<svg width="116" height="116" viewBox="0 0 116 116" fill="none" xmlns="http://www.w3.org/2000/svg">
<g id="039-thermometer 1" clip-path="url(#clip0)">
<g id="Group 1">
<g id="Group">
<g id="Group_2">
<g id="Group_3">
<path id="Vector" d="M45.1496 16.7656H70.8504V52.9134H45.1496V16.7656Z" fill="#BCD8D3"/>
</g>
<g id="Group_4">
<path id="Vector_2" d="M58 16.7656H70.8506V52.9141H58V16.7656Z" fill="#A3C1BB"/>
</g>
<g id="Group_5">
<path id="Vector_3" d="M45.893 50.2969V63.7864C40.8685 67.5002 37.6096 73.4661 37.6096 80.1938C37.6096 91.4551 46.7387 100.584 58 100.584C69.2613 100.584 78.3906 91.4551 78.3906 80.1938C78.3906 73.4661 75.1318 67.5002 70.1073 63.7864V50.2969H45.893Z" fill="#FF8659"/>
</g>
<g id="Group_6">
<path id="Vector_4" d="M78.3906 80.1941C78.3906 91.4542 69.2624 100.585 58 100.585V50.2969H70.1075V63.7864C75.1327 67.4998 78.3906 73.4652 78.3906 80.1941Z" fill="#FF405C"/>
</g>
<g id="Group_7">
<path id="Vector_5" d="M58 105.682C43.9459 105.682 32.512 94.248 32.512 80.1936C32.512 73.0408 35.5674 66.1907 40.7953 61.3921V25.7103C40.7953 16.2237 48.5134 8.50562 58.0002 8.50562C67.4871 8.50562 75.2052 16.2237 75.2052 25.7103V61.3921C80.4329 66.1909 83.4883 73.0408 83.4883 80.1936C83.4881 94.248 72.0541 105.682 58 105.682ZM58 18.7009C54.1349 18.7009 50.9904 21.8454 50.9904 25.7103V66.3577L48.9228 67.8858C44.9724 70.8055 42.707 75.2917 42.707 80.1938C42.707 88.6263 49.5674 95.4868 57.9998 95.4868C66.4322 95.4868 73.2925 88.6265 73.2925 80.1938C73.2925 75.2917 71.0269 70.8055 67.077 67.8858L65.0094 66.3574V25.7103C65.0096 21.8454 61.8652 18.7009 58 18.7009Z" fill="white"/>
</g>
<g id="Group_8">
<path id="Vector_6" d="M75.2052 60.8865V25.2052C75.2052 15.719 67.4862 8 58 8V18.1953C61.8652 18.1953 65.0098 21.34 65.0098 25.2052V65.8527L67.0761 67.3798C71.0273 70.3002 73.293 74.7861 73.293 79.6889C73.293 88.1216 66.4327 94.9819 58 94.9819V105.177C72.0537 105.177 83.4883 93.7426 83.4883 79.6889C83.4883 72.5363 80.432 65.6851 75.2052 60.8865Z" fill="#DAEFEC"/>
<path id="Vector_7" d="M75.2052 61.3814V25.7C75.2052 16.2139 67.4862 8.49487 58 8.49487V18.6902C61.8652 18.6902 65.0098 21.8349 65.0098 25.7V66.3476L67.0761 67.8746C71.0273 70.795 73.293 75.281 73.293 80.1838C73.293 88.6164 66.4327 95.4767 58 95.4767V105.672C72.0537 105.672 83.4883 94.2374 83.4883 80.1838C83.4883 73.0312 80.432 66.18 75.2052 61.3814Z" fill="#DAEFEC"/>
</g>
<g id="Group_9">
<path id="Vector_8" d="M40.7937 60.8865V25.2052C40.7937 15.719 48.5132 8 58 8V18.1953C54.1346 18.1953 50.9897 21.34 50.9897 25.2052V65.8527L48.9233 67.3798C44.9718 70.3002 42.706 74.7861 42.706 79.6889C42.706 88.1216 49.5668 94.9819 58 94.9819V105.177C43.9454 105.177 32.51 93.7426 32.51 79.6889C32.51 72.5363 35.5665 65.6851 40.7937 60.8865Z" fill="#DAEFEC"/>
<path id="Vector_9" d="M40.7937 61.3814V25.7C40.7937 16.2139 48.5132 8.49487 58 8.49487V18.6902C54.1346 18.6902 50.9897 21.8349 50.9897 25.7V66.3476L48.9233 67.8746C44.9718 70.795 42.706 75.281 42.706 80.1838C42.706 88.6164 49.5668 95.4767 58 95.4767V105.672C43.9454 105.672 32.51 94.2374 32.51 80.1838C32.51 73.0312 35.5665 66.18 40.7937 61.3814Z" fill="#DAEFEC"/>
</g>
</g>
</g>
<line id="Line 2" opacity="0.3" x1="58.0086" y1="18.5001" x2="116.009" y2="19.5001" stroke="black"/>
<line id="Line 3" opacity="0.3" x1="58.0086" y1="49.5001" x2="116.009" y2="50.5001" stroke="black"/>
<line id="Line 4" opacity="0.3" x1="58.0086" y1="95.5001" x2="116.009" y2="96.5001" stroke="black"/>
</g>
</g>
<defs>
<clipPath id="clip0">
<rect width="116" height="116" fill="white"/>
</clipPath>
</defs>
</svg>
