<svg width="1000" height="1000" viewBox="0 0 1000 1000" fill="none" xmlns="http://www.w3.org/2000/svg">
<g id="aeroplane 1">
<path id="Vector" d="M167.984 552.367L453.539 414.602H523.914L384.977 552.367H167.984Z" fill="#029BC5"/>
<path id="Vector_2" d="M384.806 560.875H167.806C166.038 560.873 164.323 560.272 162.941 559.17C161.559 558.068 160.592 556.529 160.197 554.806C159.803 553.083 160.004 551.277 160.769 549.683C161.533 548.089 162.816 546.802 164.407 546.031L449.985 408.281C451.045 407.77 452.207 407.503 453.384 407.5H523.751C525.296 407.506 526.804 407.971 528.086 408.835C529.367 409.698 530.363 410.923 530.948 412.353C531.534 413.783 531.682 415.354 531.374 416.868C531.066 418.382 530.317 419.771 529.22 420.859L390.306 558.633C388.839 560.075 386.863 560.881 384.806 560.875ZM201.993 545.25H381.587L504.774 423.133H455.165L201.993 545.25Z" fill="#029BC5"/>
<path id="Vector_3" d="M935.805 497.226L769.086 473.18C769.086 473.18 275.688 474.648 207.047 472.844C138.406 471.039 119.047 471.031 91.4219 487.297C77.2656 495.641 69.75 508.969 42.6562 516.203C15.5625 523.437 2.89844 538.078 9.5 559.109C22.2969 599.906 170.898 608.328 170.898 608.328H592.687C638.712 608.328 684.567 602.751 729.25 591.719L937.922 540.156C942.897 538.98 947.302 536.098 950.374 532.012C953.446 527.926 954.989 522.893 954.737 517.788C954.484 512.682 952.451 507.826 948.992 504.063C945.532 500.3 940.863 497.867 935.797 497.187L935.805 497.226Z" fill="#D9E2E9"/>
<path id="Vector_4" d="M942.547 499.383C939.722 502.245 936.157 504.266 932.25 505.219L723.578 556.781C678.887 567.796 633.028 573.368 587 573.375H165.234C165.234 573.375 44.7891 566.508 11.4609 535.406C9.42255 538.973 8.19311 542.945 7.85965 547.039C7.52618 551.134 8.09685 555.252 9.53124 559.102C22.3203 599.891 170.922 608.32 170.922 608.32H592.68C638.711 608.322 684.573 602.735 729.258 591.68L937.93 540.187C942.275 539.122 946.189 536.75 949.144 533.391C952.099 530.032 953.953 525.848 954.456 521.402C954.959 516.957 954.087 512.464 951.958 508.53C949.828 504.595 946.544 501.408 942.547 499.398V499.383Z" fill="#C1CDD3"/>
<path id="Vector_5" d="M592.747 615.615H170.989C144.833 614.146 15.8638 604.678 2.14509 560.928C0.442469 556.237 -0.259189 551.241 0.0852673 546.263C0.429723 541.284 1.81266 536.433 4.14509 532.022C10.1763 521.084 22.4967 513.014 40.7467 508.147C53.2034 504.898 64.6737 498.646 74.1529 489.936C78.349 486.289 82.8323 482.987 87.5592 480.061C116.692 462.873 136.434 462.662 207.325 464.529C275.051 466.318 764.2 464.873 769.129 464.857C769.278 464.74 769.911 464.857 770.27 464.936L936.989 488.99C943.833 489.946 950.13 493.259 954.794 498.359C959.457 503.46 962.195 510.027 962.536 516.929C962.876 523.832 960.798 530.637 956.66 536.171C952.521 541.706 946.581 545.623 939.864 547.248L731.192 598.811C685.891 609.979 639.404 615.621 592.747 615.615ZM163.794 479.357C128.981 479.357 114.575 482.272 95.4888 493.514C91.4763 496.031 87.6677 498.86 84.0982 501.975C72.9079 512.147 59.4101 519.443 44.7701 523.232C30.9888 526.904 21.6842 532.545 17.8326 539.537C16.5376 542.112 15.7988 544.93 15.6642 547.809C15.5296 550.688 16.0022 553.564 17.0513 556.248C25.192 582.201 116.067 596.873 171.434 599.998H592.747C638.143 599.983 683.37 594.474 727.442 583.592L936.114 532.029C939.313 531.274 942.147 529.422 944.123 526.795C946.099 524.167 947.091 520.931 946.929 517.648C946.766 514.364 945.459 511.242 943.233 508.823C941.008 506.403 938.005 504.84 934.747 504.404L768.598 480.482C749.215 480.545 273.817 481.904 206.879 480.147C189.583 479.693 175.528 479.357 163.794 479.357Z" fill="#029BC5"/>
<path id="Vector_6" d="M769.086 473.172L881.828 341.594H936.695L899.266 492.047L769.086 473.172Z" fill="#029BC5"/>
<path id="Vector_7" d="M899.273 499.852C898.894 499.852 898.516 499.826 898.141 499.773L767.969 480.906C766.584 480.706 765.278 480.138 764.187 479.261C763.097 478.384 762.262 477.23 761.771 475.919C761.279 474.609 761.148 473.191 761.392 471.813C761.635 470.435 762.245 469.148 763.156 468.086L875.898 336.508C876.633 335.652 877.543 334.965 878.568 334.494C879.593 334.023 880.708 333.78 881.836 333.781H936.719C937.905 333.781 939.076 334.05 940.143 334.57C941.21 335.089 942.144 335.845 942.875 336.78C943.606 337.714 944.115 338.803 944.363 339.963C944.61 341.123 944.591 342.325 944.305 343.477L906.875 493.922C906.454 495.618 905.476 497.124 904.098 498.199C902.72 499.274 901.021 499.856 899.273 499.852ZM784.25 467.477L893.391 483.289L926.703 349.406H885.422L784.25 467.477Z" fill="#029BC5"/>
<path id="Vector_8" d="M297.516 562.117L618.25 658.406H688.625L514.5 562.117H297.516Z" fill="#029BC5"/>
<path id="Vector_9" d="M688.625 666.211H618.258C617.498 666.211 616.743 666.101 616.016 665.883L295.273 569.602C293.476 569.064 291.933 567.897 290.925 566.315C289.917 564.732 289.512 562.84 289.784 560.984C290.056 559.128 290.987 557.432 292.407 556.205C293.826 554.979 295.64 554.304 297.516 554.305H514.492C515.815 554.305 517.116 554.641 518.273 555.281L692.406 651.562C693.922 652.401 695.116 653.719 695.8 655.31C696.485 656.901 696.621 658.674 696.189 660.351C695.756 662.028 694.778 663.514 693.409 664.574C692.04 665.635 690.357 666.211 688.625 666.211ZM619.406 650.586H658.352L512.5 569.93H350.711L619.406 650.586Z" fill="#029BC5"/>
<path id="Vector_10" d="M762.695 525.289L926.508 573.352H992.188L895.914 525.289H762.695Z" fill="#029BC5"/>
<path id="Vector_11" d="M992.188 581.172H926.508C925.765 581.171 925.025 581.063 924.313 580.852L760.5 532.812C758.7 532.281 757.152 531.119 756.139 529.539C755.125 527.96 754.714 526.069 754.981 524.211C755.247 522.353 756.173 520.654 757.59 519.423C759.006 518.192 760.819 517.512 762.695 517.508H895.914C897.123 517.508 898.316 517.789 899.398 518.328L995.672 566.406C997.227 567.203 998.47 568.497 999.202 570.083C999.935 571.668 1000.12 573.454 999.714 575.154C999.313 576.854 998.354 578.371 996.989 579.462C995.625 580.552 993.934 581.155 992.188 581.172ZM927.625 565.547H959.047L894.07 533.102H817.063L927.625 565.547Z" fill="#029BC5"/>
<g id="Group">
<path id="Vector_12" d="M220.094 503.312C217.013 503.312 214.058 504.536 211.879 506.715C209.701 508.894 208.477 511.849 208.477 514.93V522.031C208.477 525.112 209.701 528.067 211.879 530.246C214.058 532.425 217.013 533.648 220.094 533.648C223.175 533.648 226.13 532.425 228.308 530.246C230.487 528.067 231.711 525.112 231.711 522.031V514.93C231.711 511.849 230.487 508.894 228.308 506.715C226.13 504.536 223.175 503.312 220.094 503.312Z" fill="#84879C"/>
<path id="Vector_13" d="M269.148 503.312C266.067 503.312 263.112 504.536 260.934 506.715C258.755 508.894 257.531 511.849 257.531 514.93V522.031C257.531 525.112 258.755 528.067 260.934 530.246C263.112 532.425 266.067 533.648 269.148 533.648C272.23 533.648 275.184 532.425 277.363 530.246C279.542 528.067 280.766 525.112 280.766 522.031V514.93C280.766 511.849 279.542 508.894 277.363 506.715C275.184 504.536 272.23 503.312 269.148 503.312Z" fill="#84879C"/>
<path id="Vector_14" d="M318.195 503.312C315.114 503.312 312.159 504.536 309.981 506.715C307.802 508.894 306.578 511.849 306.578 514.93V522.031C306.578 523.557 306.879 525.068 307.462 526.477C308.046 527.886 308.902 529.167 309.981 530.246C311.059 531.325 312.34 532.18 313.75 532.764C315.159 533.348 316.67 533.648 318.195 533.648C319.721 533.648 321.232 533.348 322.641 532.764C324.05 532.18 325.331 531.325 326.41 530.246C327.489 529.167 328.344 527.886 328.928 526.477C329.512 525.068 329.812 523.557 329.812 522.031V514.93C329.812 511.849 328.589 508.894 326.41 506.715C324.231 504.536 321.276 503.312 318.195 503.312Z" fill="#84879C"/>
<path id="Vector_15" d="M367.25 503.312C364.169 503.312 361.214 504.536 359.035 506.715C356.857 508.894 355.633 511.849 355.633 514.93V522.031C355.633 525.112 356.857 528.067 359.035 530.246C361.214 532.425 364.169 533.648 367.25 533.648C370.331 533.648 373.286 532.425 375.465 530.246C377.643 528.067 378.867 525.112 378.867 522.031V514.93C378.867 511.849 377.643 508.894 375.465 506.715C373.286 504.536 370.331 503.312 367.25 503.312Z" fill="#84879C"/>
<path id="Vector_16" d="M416.305 503.312C413.224 503.312 410.269 504.536 408.09 506.715C405.911 508.894 404.688 511.849 404.688 514.93V522.031C404.687 525.112 405.911 528.067 408.09 530.246C410.269 532.425 413.224 533.648 416.305 533.648C419.386 533.648 422.341 532.425 424.519 530.246C426.698 528.067 427.922 525.112 427.922 522.031V514.93C427.922 511.849 426.698 508.894 424.519 506.715C422.341 504.536 419.386 503.312 416.305 503.312Z" fill="#84879C"/>
<path id="Vector_17" d="M465.359 503.312C462.278 503.312 459.323 504.536 457.145 506.715C454.966 508.894 453.742 511.849 453.742 514.93V522.031C453.742 523.557 454.043 525.068 454.627 526.477C455.21 527.886 456.066 529.167 457.145 530.246C458.224 531.325 459.504 532.18 460.914 532.764C462.323 533.348 463.834 533.648 465.359 533.648C466.885 533.648 468.396 533.348 469.805 532.764C471.215 532.18 472.495 531.325 473.574 530.246C474.653 529.167 475.508 527.886 476.092 526.477C476.676 525.068 476.977 523.557 476.977 522.031V514.93C476.977 511.849 475.753 508.894 473.574 506.715C471.395 504.536 468.44 503.312 465.359 503.312Z" fill="#84879C"/>
<path id="Vector_18" d="M514.414 503.312C511.333 503.312 508.378 504.536 506.199 506.715C504.021 508.894 502.797 511.849 502.797 514.93V522.031C502.797 525.112 504.021 528.067 506.199 530.246C508.378 532.425 511.333 533.648 514.414 533.648C517.495 533.648 520.45 532.425 522.629 530.246C524.807 528.067 526.031 525.112 526.031 522.031V514.93C526.031 511.849 524.807 508.894 522.629 506.715C520.45 504.536 517.495 503.312 514.414 503.312Z" fill="#84879C"/>
<path id="Vector_19" d="M563.461 503.312C560.38 503.312 557.425 504.536 555.246 506.715C553.068 508.894 551.844 511.849 551.844 514.93V522.031C551.844 525.112 553.068 528.067 555.246 530.246C557.425 532.425 560.38 533.648 563.461 533.648C566.542 533.648 569.497 532.425 571.676 530.246C573.854 528.067 575.078 525.112 575.078 522.031V514.93C575.078 511.849 573.854 508.894 571.676 506.715C569.497 504.536 566.542 503.312 563.461 503.312Z" fill="#84879C"/>
<path id="Vector_20" d="M612.5 503.312C609.419 503.312 606.464 504.536 604.285 506.715C602.107 508.894 600.883 511.849 600.883 514.93V522.031C600.883 525.112 602.107 528.067 604.285 530.246C606.464 532.425 609.419 533.648 612.5 533.648C615.581 533.648 618.536 532.425 620.715 530.246C622.893 528.067 624.117 525.112 624.117 522.031V514.93C624.117 511.849 622.893 508.894 620.715 506.715C618.536 504.536 615.581 503.312 612.5 503.312Z" fill="#84879C"/>
<path id="Vector_21" d="M661.57 503.312C658.489 503.312 655.534 504.536 653.356 506.715C651.177 508.894 649.953 511.849 649.953 514.93V522.031C649.953 525.112 651.177 528.067 653.356 530.246C655.534 532.425 658.489 533.648 661.57 533.648C664.651 533.648 667.606 532.425 669.785 530.246C671.964 528.067 673.188 525.112 673.188 522.031V514.93C673.188 511.849 671.964 508.894 669.785 506.715C667.606 504.536 664.651 503.312 661.57 503.312Z" fill="#84879C"/>
</g>
<path id="Vector_22" d="M79.0156 496.492C101.558 503.549 124.633 508.774 148.016 512.117V531.016C107.235 543.961 63.0992 541.296 24.1719 523.539C44.2668 518.797 63.0207 509.548 79.0156 496.492Z" fill="#3DBCE9"/>
<path id="Vector_23" d="M97.0781 546.875C70.8816 546.836 44.982 541.325 21.0391 530.695C19.568 530.048 18.3325 528.962 17.501 527.587C16.6695 526.211 16.2824 524.613 16.3926 523.009C16.5028 521.406 17.1049 519.875 18.1168 518.627C19.1287 517.378 20.5011 516.471 22.0469 516.031C40.9982 511.525 58.7047 502.845 73.875 490.625C74.8969 489.724 76.1369 489.105 77.4717 488.831C78.8066 488.557 80.1899 488.637 81.4844 489.062C103.585 495.963 126.201 501.086 149.117 504.383C150.981 504.646 152.687 505.574 153.921 506.995C155.156 508.416 155.836 510.235 155.836 512.117V531.016C155.837 532.585 155.364 534.119 154.481 535.416C153.597 536.713 152.344 537.715 150.883 538.289C133.58 544.245 115.375 547.15 97.0781 546.875ZM47.6562 523.898C77.762 533.094 109.852 533.603 140.234 525.367V518.859C120.132 515.646 100.267 511.092 80.7734 505.227C70.7236 513.062 59.5618 519.355 47.6562 523.898Z" fill="#029BC5"/>
</g>
</svg>
