<?xml version="1.0" encoding="iso-8859-1"?>
<!-- Generator: Adobe Illustrator 19.0.0, SVG Export Plug-In . SVG Version: 6.00 Build 0)  -->
<svg version="1.1" id="Capa_1" xmlns="http://www.w3.org/2000/svg" xmlns:xlink="http://www.w3.org/1999/xlink" x="0px" y="0px"
	 viewBox="0 0 512 512" style="enable-background:new 0 0 512 512;" xml:space="preserve">
<path style="fill:#FFE1BD;" d="M472.661,295.813l-36.859,134.401c-1.35,4.939-4.729,9.147-9.247,11.547
	c-2.709,1.44-5.728,2.169-8.747,2.169c-2.029,0-4.069-0.33-6.008-0.99l-155.804-53.774L14.346,305.76l-9.227-28.102
	c0,0,129.662-0.71,250.876-1.03c104.369-0.27,202.471-0.25,206.17,0.76C470.152,279.578,474.851,287.826,472.661,295.813z"/>
<path style="fill:#EFC597;" d="M472.661,295.813l-36.859,134.401c-1.35,4.939-4.729,9.147-9.247,11.547
	c-2.709,1.44-5.728,2.169-8.747,2.169c-2.029,0-4.069-0.33-6.008-0.99l-155.804-53.774V276.629
	c104.369-0.27,202.471-0.25,206.17,0.76C470.152,279.578,474.851,287.826,472.661,295.813z"/>
<path style="fill:#A55C37;" d="M512,89.094v196.722c0,11.597-9.437,21.024-21.024,21.024H21.024C9.427,306.84,0,297.413,0,285.816
	V89.094C0,77.497,9.427,68.07,21.024,68.07h469.952C502.563,68.07,512,77.497,512,89.094z"/>
<path style="fill:#934421;" d="M512,89.094v196.722c0,11.597-9.437,21.024-21.024,21.024H255.995V68.07h234.981
	C502.563,68.07,512,77.497,512,89.094z"/>
<path style="fill:#FF7B59;" d="M154.162,231.09c-6.146,0-11.911-3.807-14.111-9.923l-13.122-36.473l-36.473-13.122
	c-7.793-2.804-11.838-11.393-9.033-19.186c2.804-7.793,11.392-11.839,19.186-9.033l49.76,17.902l17.902,49.76
	c2.804,7.794-1.241,16.383-9.033,19.186C157.56,230.803,155.847,231.09,154.162,231.09z"/>
<path style="fill:#FFAB00;" d="M170.22,141.403c-5.855-5.855-15.35-5.855-21.207,0l-44.444,44.444H90.248
	c-8.282,0-14.996,6.714-14.996,14.996s6.714,14.996,14.996,14.996h5.536v5.028c0,8.282,6.714,14.996,14.996,14.996
	s14.996-6.714,14.996-14.996v-13.812l44.444-44.444C176.076,156.753,176.076,147.258,170.22,141.403z"/>
<path style="fill:#EFC597;" d="M431.647,172.456h-87.572c-8.282,0-14.996-6.714-14.996-14.996s6.714-14.996,14.996-14.996h87.572
	c8.282,0,14.996,6.714,14.996,14.996S439.93,172.456,431.647,172.456z"/>
<path style="fill:#FFE1BD;" d="M446.639,210.858c0,8.278-6.708,14.996-14.996,14.996H250.717c-8.278,0-14.996-6.718-14.996-14.996
	c0-8.288,6.718-14.996,14.996-14.996h180.927C439.931,195.863,446.639,202.571,446.639,210.858z"/>
<path style="fill:#EFC597;" d="M446.639,210.858c0,8.278-6.708,14.996-14.996,14.996H255.995v-29.991h175.649
	C439.931,195.863,446.639,202.571,446.639,210.858z"/>
<g>
</g>
<g>
</g>
<g>
</g>
<g>
</g>
<g>
</g>
<g>
</g>
<g>
</g>
<g>
</g>
<g>
</g>
<g>
</g>
<g>
</g>
<g>
</g>
<g>
</g>
<g>
</g>
<g>
</g>
</svg>
