<svg width="1201" height="549" viewBox="0 0 1201 549" fill="none" xmlns="http://www.w3.org/2000/svg">
<g id="building">
<path id="Vector" d="M337.521 264.874H272.112C270.06 264.874 268.396 266.537 268.396 268.59V312.113C268.396 314.165 270.06 315.829 272.112 315.829H337.521C339.573 315.829 341.237 314.165 341.237 312.113V268.59C341.237 266.537 339.573 264.874 337.521 264.874Z" fill="#55A2F0"/>
<path id="Vector_2" d="M337.521 264.874H304.837V315.829H337.521C339.573 315.829 341.237 314.165 341.237 312.113V268.59C341.237 266.537 339.573 264.874 337.521 264.874Z" fill="#4B9EE2"/>
<path id="Vector_3" d="M644.053 62.5273C639.551 62.5273 635.903 66.1758 635.903 70.6774V152.773C635.903 157.274 639.551 160.923 644.053 160.923C648.555 160.923 652.203 157.274 652.203 152.773V70.6774C652.203 66.1769 648.555 62.5273 644.053 62.5273Z" fill="#2D5872"/>
<path id="Vector_4" d="M657.768 183.783H630.338C625.606 183.783 621.77 179.947 621.77 175.215V145.241C621.77 140.509 625.606 136.673 630.338 136.673H657.768C662.5 136.673 666.336 140.509 666.336 145.241V175.215C666.336 179.947 662.5 183.783 657.768 183.783Z" fill="#FF4C4C"/>
<path id="Vector_5" d="M696.477 270.681H591.63C587.122 270.681 583.467 267.027 583.467 262.52V183.384C583.467 178.875 587.122 175.222 591.63 175.222H696.477C700.985 175.222 704.638 178.877 704.638 183.384V262.52C704.638 267.027 700.985 270.681 696.477 270.681Z" fill="#F33A3A"/>
<path id="Vector_6" d="M730.057 548.767H546.076V214.286H725.54C728.035 214.286 730.057 216.309 730.057 218.804V548.767V548.767Z" fill="#FF4C4C"/>
<path id="Vector_7" d="M725.54 214.286H675.566C678.062 214.286 680.084 216.309 680.084 218.804V548.767H730.057V218.804C730.057 216.309 728.035 214.286 725.54 214.286Z" fill="#F33A3A"/>
<g id="Group">
<path id="Vector_8" d="M695.65 294.015H590.225C586.493 294.015 583.468 290.989 583.468 287.258V271.632C583.468 267.9 586.494 264.875 590.225 264.875H695.65C699.382 264.875 702.407 267.901 702.407 271.632V287.258C702.407 290.989 699.382 294.015 695.65 294.015Z" fill="#E1EFFB"/>
<path id="Vector_9" d="M695.65 360.823H590.225C586.493 360.823 583.468 357.797 583.468 354.066V338.44C583.468 334.708 586.494 331.684 590.225 331.684H695.65C699.382 331.684 702.407 334.709 702.407 338.44V354.066C702.407 357.797 699.382 360.823 695.65 360.823Z" fill="#E1EFFB"/>
<path id="Vector_10" d="M695.65 427.631H590.225C586.493 427.631 583.468 424.605 583.468 420.874V405.248C583.468 401.516 586.494 398.492 590.225 398.492H695.65C699.382 398.492 702.407 401.517 702.407 405.248V420.874C702.407 424.605 699.382 427.631 695.65 427.631Z" fill="#E1EFFB"/>
<path id="Vector_11" d="M695.65 494.439H590.225C586.493 494.439 583.468 491.413 583.468 487.682V472.056C583.468 468.324 586.494 465.3 590.225 465.3H695.65C699.382 465.3 702.407 468.326 702.407 472.056V487.682C702.407 491.414 699.382 494.439 695.65 494.439Z" fill="#E1EFFB"/>
</g>
<path id="Vector_12" d="M593.906 548.767H381.452C378.055 548.767 375.301 546.013 375.301 542.616V15.9915C375.301 12.5938 378.055 9.84033 381.452 9.84033H593.906C597.304 9.84033 600.058 12.5938 600.058 15.9915V542.616C600.058 546.013 597.304 548.767 593.906 548.767Z" fill="#FFB125"/>
<g id="Group_2">
<path id="Vector_13" d="M593.907 9.84033H543.934C547.332 9.84033 550.085 12.5938 550.085 15.9915V542.616C550.085 546.013 547.332 548.767 543.934 548.767H593.907C597.305 548.767 600.059 546.013 600.059 542.616V15.9915C600.059 12.5938 597.304 9.84033 593.907 9.84033Z" fill="#FF901D"/>
<path id="Vector_14" d="M609.714 0H363.052C361.366 0 359.999 1.36656 359.999 3.05359V23.7567C359.999 25.4426 361.365 26.8103 363.052 26.8103H609.714C611.4 26.8103 612.768 25.4437 612.768 23.7567V3.05359C612.768 1.36656 611.4 0 609.714 0Z" fill="#FF901D"/>
</g>
<g id="Group_3">
<path id="Vector_15" d="M436.935 100.643H407.046C404.941 100.643 403.233 98.9366 403.233 96.8305V60.3354C403.233 58.2303 404.94 56.5229 407.046 56.5229H436.935C439.04 56.5229 440.748 58.2293 440.748 60.3354V96.8316C440.748 98.9366 439.04 100.643 436.935 100.643Z" fill="#E1EFFB"/>
<path id="Vector_16" d="M502.625 100.643H472.735C470.63 100.643 468.923 98.9366 468.923 96.8305V60.3354C468.923 58.2303 470.629 56.5229 472.735 56.5229H502.625C504.73 56.5229 506.437 58.2293 506.437 60.3354V96.8316C506.436 98.9366 504.73 100.643 502.625 100.643Z" fill="#E1EFFB"/>
<path id="Vector_17" d="M568.313 100.643H538.423C536.318 100.643 534.611 98.9366 534.611 96.8305V60.3354C534.611 58.2303 536.317 56.5229 538.423 56.5229H568.313C570.418 56.5229 572.125 58.2293 572.125 60.3354V96.8316C572.125 98.9366 570.419 100.643 568.313 100.643Z" fill="#E1EFFB"/>
<path id="Vector_18" d="M436.935 199.092H407.046C404.941 199.092 403.233 197.385 403.233 195.279V158.783C403.233 156.678 404.94 154.971 407.046 154.971H436.935C439.04 154.971 440.748 156.677 440.748 158.783V195.279C440.748 197.385 439.04 199.092 436.935 199.092Z" fill="#E1EFFB"/>
<path id="Vector_19" d="M502.625 199.092H472.735C470.63 199.092 468.923 197.385 468.923 195.279V158.783C468.923 156.678 470.629 154.971 472.735 154.971H502.625C504.73 154.971 506.437 156.677 506.437 158.783V195.279C506.436 197.385 504.73 199.092 502.625 199.092Z" fill="#E1EFFB"/>
<path id="Vector_20" d="M568.313 199.092H538.423C536.318 199.092 534.611 197.385 534.611 195.279V158.783C534.611 156.678 536.317 154.971 538.423 154.971H568.313C570.418 154.971 572.125 156.677 572.125 158.783V195.279C572.125 197.385 570.419 199.092 568.313 199.092Z" fill="#E1EFFB"/>
<path id="Vector_21" d="M436.935 297.541H407.046C404.941 297.541 403.233 295.835 403.233 293.729V257.232C403.233 255.127 404.94 253.42 407.046 253.42H436.935C439.04 253.42 440.748 255.126 440.748 257.232V293.729C440.748 295.835 439.04 297.541 436.935 297.541Z" fill="#E1EFFB"/>
<path id="Vector_22" d="M502.625 297.541H472.735C470.63 297.541 468.923 295.835 468.923 293.729V257.232C468.923 255.127 470.629 253.42 472.735 253.42H502.625C504.73 253.42 506.437 255.126 506.437 257.232V293.729C506.436 295.835 504.73 297.541 502.625 297.541Z" fill="#E1EFFB"/>
<path id="Vector_23" d="M568.313 297.541H538.423C536.318 297.541 534.611 295.835 534.611 293.729V257.232C534.611 255.127 536.317 253.42 538.423 253.42H568.313C570.418 253.42 572.125 255.126 572.125 257.232V293.729C572.125 295.835 570.419 297.541 568.313 297.541Z" fill="#E1EFFB"/>
<path id="Vector_24" d="M502.625 395.99H472.735C470.63 395.99 468.923 394.283 468.923 392.177V355.681C468.923 353.576 470.629 351.869 472.735 351.869H502.625C504.73 351.869 506.437 353.575 506.437 355.681V392.177C506.436 394.283 504.73 395.99 502.625 395.99Z" fill="#E1EFFB"/>
<path id="Vector_25" d="M568.313 395.99H538.423C536.318 395.99 534.611 394.283 534.611 392.177V355.681C534.611 353.576 536.317 351.869 538.423 351.869H568.313C570.418 351.869 572.125 353.575 572.125 355.681V392.177C572.125 394.283 570.419 395.99 568.313 395.99Z" fill="#E1EFFB"/>
<path id="Vector_26" d="M502.625 494.439H472.735C470.63 494.439 468.923 492.733 468.923 490.627V454.13C468.923 452.025 470.629 450.318 472.735 450.318H502.625C504.73 450.318 506.437 452.024 506.437 454.13V490.627C506.436 492.733 504.73 494.439 502.625 494.439Z" fill="#E1EFFB"/>
<path id="Vector_27" d="M568.313 494.439H538.423C536.318 494.439 534.611 492.733 534.611 490.627V454.13C534.611 452.025 536.317 450.318 538.423 450.318H568.313C570.418 450.318 572.125 452.024 572.125 454.13V490.627C572.125 492.733 570.419 494.439 568.313 494.439Z" fill="#E1EFFB"/>
</g>
<path id="Vector_28" d="M473.444 548.767H247.407C244.812 548.767 242.709 546.664 242.709 544.069V304.591C242.709 301.996 244.812 299.894 247.407 299.894H473.444C476.039 299.894 478.142 301.996 478.142 304.591V544.07C478.142 546.664 476.039 548.767 473.444 548.767Z" fill="#61AFF6"/>
<path id="Vector_29" d="M473.444 299.894H422.572C425.167 299.894 427.27 301.996 427.27 304.591V544.07C427.27 546.665 425.167 548.768 422.572 548.768H473.444C476.038 548.768 478.142 546.665 478.142 544.07V304.591C478.142 301.996 476.039 299.894 473.444 299.894Z" fill="#55A2F0"/>
<g id="Group_4">
<path id="Vector_30" d="M304.837 367.817H275.254C272.65 367.817 270.538 365.706 270.538 363.101V344.26C270.538 341.655 272.65 339.544 275.254 339.544H304.837C307.442 339.544 309.553 341.655 309.553 344.26V363.101C309.553 365.706 307.442 367.817 304.837 367.817Z" fill="#E1EFFB"/>
<path id="Vector_31" d="M373.703 367.817H344.12C341.516 367.817 339.404 365.706 339.404 363.101V344.26C339.404 341.655 341.516 339.544 344.12 339.544H373.703C376.308 339.544 378.419 341.655 378.419 344.26V363.101C378.419 365.706 376.308 367.817 373.703 367.817Z" fill="#E1EFFB"/>
<path id="Vector_32" d="M442.569 367.817H412.986C410.381 367.817 408.27 365.706 408.27 363.101V344.26C408.27 341.655 410.381 339.544 412.986 339.544H442.569C445.174 339.544 447.285 341.655 447.285 344.26V363.101C447.285 365.706 445.174 367.817 442.569 367.817Z" fill="#E1EFFB"/>
<path id="Vector_33" d="M304.837 433.947H275.254C272.65 433.947 270.538 431.836 270.538 429.231V410.39C270.538 407.785 272.65 405.674 275.254 405.674H304.837C307.442 405.674 309.553 407.785 309.553 410.39V429.231C309.553 431.836 307.442 433.947 304.837 433.947Z" fill="#E1EFFB"/>
<path id="Vector_34" d="M373.703 433.947H344.12C341.516 433.947 339.404 431.836 339.404 429.231V410.39C339.404 407.785 341.516 405.674 344.12 405.674H373.703C376.308 405.674 378.419 407.785 378.419 410.39V429.231C378.419 431.836 376.308 433.947 373.703 433.947Z" fill="#E1EFFB"/>
<path id="Vector_35" d="M442.569 433.947H412.986C410.381 433.947 408.27 431.836 408.27 429.231V410.39C408.27 407.785 410.381 405.674 412.986 405.674H442.569C445.174 405.674 447.285 407.785 447.285 410.39V429.231C447.285 431.836 445.174 433.947 442.569 433.947Z" fill="#E1EFFB"/>
<path id="Vector_36" d="M304.837 500.077H275.254C272.65 500.077 270.538 497.965 270.538 495.361V476.519C270.538 473.915 272.65 471.803 275.254 471.803H304.837C307.442 471.803 309.553 473.915 309.553 476.519V495.361C309.553 497.965 307.442 500.077 304.837 500.077Z" fill="#E1EFFB"/>
<path id="Vector_37" d="M373.703 500.077H344.12C341.516 500.077 339.404 497.965 339.404 495.361V476.519C339.404 473.915 341.516 471.803 344.12 471.803H373.703C376.308 471.803 378.419 473.915 378.419 476.519V495.361C378.419 497.965 376.308 500.077 373.703 500.077Z" fill="#E1EFFB"/>
<path id="Vector_38" d="M442.569 500.077H412.986C410.381 500.077 408.27 497.965 408.27 495.361V476.519C408.27 473.915 410.381 471.803 412.986 471.803H442.569C445.174 471.803 447.285 473.915 447.285 476.519V495.361C447.285 497.965 445.174 500.077 442.569 500.077Z" fill="#E1EFFB"/>
</g>
<path id="Vector_39" d="M788.753 264.874H723.345C721.292 264.874 719.629 266.537 719.629 268.59V312.113C719.629 314.165 721.292 315.829 723.345 315.829H788.753C790.805 315.829 792.469 314.165 792.469 312.113V268.59C792.469 266.537 790.805 264.874 788.753 264.874Z" fill="#55A2F0"/>
<path id="Vector_40" d="M788.753 264.874H756.069V315.829H788.753C790.805 315.829 792.469 314.165 792.469 312.113V268.59C792.469 266.537 790.805 264.874 788.753 264.874Z" fill="#4B9EE2"/>
<path id="Vector_41" d="M924.677 548.767H698.639C696.045 548.767 693.942 546.664 693.942 544.069V304.591C693.942 301.996 696.045 299.894 698.639 299.894H924.677C927.272 299.894 929.374 301.996 929.374 304.591V544.07C929.374 546.664 927.272 548.767 924.677 548.767Z" fill="#61AFF6"/>
<path id="Vector_42" d="M924.677 299.894H873.804C876.399 299.894 878.502 301.996 878.502 304.591V544.07C878.502 546.665 876.399 548.768 873.804 548.768H924.677C927.27 548.768 929.374 546.665 929.374 544.07V304.591C929.374 301.996 927.271 299.894 924.677 299.894Z" fill="#55A2F0"/>
<g id="Group_5">
<path id="Vector_43" d="M756.069 367.817H726.486C723.882 367.817 721.77 365.706 721.77 363.101V344.26C721.77 341.655 723.882 339.544 726.486 339.544H756.069C758.674 339.544 760.785 341.655 760.785 344.26V363.101C760.785 365.706 758.674 367.817 756.069 367.817Z" fill="#E1EFFB"/>
<path id="Vector_44" d="M824.935 367.817H795.352C792.748 367.817 790.636 365.706 790.636 363.101V344.26C790.636 341.655 792.748 339.544 795.352 339.544H824.935C827.54 339.544 829.651 341.655 829.651 344.26V363.101C829.651 365.706 827.54 367.817 824.935 367.817Z" fill="#E1EFFB"/>
<path id="Vector_45" d="M893.801 367.817H864.218C861.614 367.817 859.502 365.706 859.502 363.101V344.26C859.502 341.655 861.614 339.544 864.218 339.544H893.801C896.406 339.544 898.517 341.655 898.517 344.26V363.101C898.517 365.706 896.406 367.817 893.801 367.817Z" fill="#E1EFFB"/>
<path id="Vector_46" d="M756.069 433.947H726.486C723.882 433.947 721.77 431.836 721.77 429.231V410.39C721.77 407.785 723.882 405.674 726.486 405.674H756.069C758.674 405.674 760.785 407.785 760.785 410.39V429.231C760.785 431.836 758.674 433.947 756.069 433.947Z" fill="#E1EFFB"/>
<path id="Vector_47" d="M824.935 433.947H795.352C792.748 433.947 790.636 431.836 790.636 429.231V410.39C790.636 407.785 792.748 405.674 795.352 405.674H824.935C827.54 405.674 829.651 407.785 829.651 410.39V429.231C829.651 431.836 827.54 433.947 824.935 433.947Z" fill="#E1EFFB"/>
<path id="Vector_48" d="M893.801 433.947H864.218C861.614 433.947 859.502 431.836 859.502 429.231V410.39C859.502 407.785 861.614 405.674 864.218 405.674H893.801C896.406 405.674 898.517 407.785 898.517 410.39V429.231C898.517 431.836 896.406 433.947 893.801 433.947Z" fill="#E1EFFB"/>
<path id="Vector_49" d="M756.069 500.077H726.486C723.882 500.077 721.77 497.965 721.77 495.361V476.519C721.77 473.915 723.882 471.803 726.486 471.803H756.069C758.674 471.803 760.785 473.915 760.785 476.519V495.361C760.785 497.965 758.674 500.077 756.069 500.077Z" fill="#E1EFFB"/>
<path id="Vector_50" d="M824.935 500.077H795.352C792.748 500.077 790.636 497.965 790.636 495.361V476.519C790.636 473.915 792.748 471.803 795.352 471.803H824.935C827.54 471.803 829.651 473.915 829.651 476.519V495.361C829.651 497.965 827.54 500.077 824.935 500.077Z" fill="#E1EFFB"/>
<path id="Vector_51" d="M893.801 500.077H864.218C861.614 500.077 859.502 497.965 859.502 495.361V476.519C859.502 473.915 861.614 471.803 864.218 471.803H893.801C896.406 471.803 898.517 473.915 898.517 476.519V495.361C898.517 497.965 896.406 500.077 893.801 500.077Z" fill="#E1EFFB"/>
</g>
<path id="Vector_52" d="M1171.98 523.59H29.2503C13.4346 523.59 0.615234 529.225 0.615234 536.178C0.615234 543.131 13.4346 548.767 29.2503 548.767H1171.98C1187.8 548.767 1200.62 543.131 1200.62 536.178C1200.61 529.226 1187.79 523.59 1171.98 523.59Z" fill="#2D5872"/>
<path id="Vector_53" d="M1200.43 534.797C1200.41 534.713 1200.37 534.632 1200.35 534.548C1200.24 534.167 1200.09 533.789 1199.9 533.418C1199.88 533.366 1199.84 533.314 1199.81 533.262C1199.59 532.856 1199.33 532.458 1199.02 532.067C1199.01 532.052 1199 532.037 1198.98 532.022C1198.65 531.601 1198.26 531.19 1197.83 530.79V530.789C1193.24 526.536 1183.4 523.589 1171.98 523.589H1086.94V526.795C1086.94 532.977 1075.54 537.99 1061.47 537.99H29.2504C17.828 537.99 7.99528 535.042 3.39951 530.789C1.63191 532.425 0.615234 534.247 0.615234 536.177C0.615234 543.129 13.4346 548.766 29.2504 548.766H1086.94H1171.98C1187.8 548.766 1200.62 543.13 1200.62 536.177C1200.62 535.711 1200.55 535.25 1200.43 534.797Z" fill="#1D4859"/>
</g>
</svg>
