<svg width="500" height="330" viewBox="0 0 500 330" fill="none" xmlns="http://www.w3.org/2000/svg">
<g id="cloud12">
<path id="Vector" d="M406.263 146.179C402.641 146.179 399.075 146.412 395.562 146.82C395.908 142.886 396.095 138.905 396.095 134.881C396.095 60.3889 335.707 0 261.214 0C199.174 0 146.924 41.8897 131.188 98.9267C126.191 98.2693 121.095 97.9254 115.92 97.9254C51.8986 97.9254 0 149.824 0 213.845C0 277.866 51.8986 329.765 115.92 329.765H406.263C456.96 329.765 498.056 288.668 498.056 237.972C498.056 187.276 456.96 146.179 406.263 146.179Z" fill="#9BF0FF"/>
<path id="Vector_2" d="M500 237.971C500 288.67 458.905 329.765 408.206 329.765H250.972V0.547811C254.987 0.178909 259.05 0 263.161 0C337.656 0 398.042 60.3861 398.042 134.881C398.042 138.908 397.852 142.887 397.505 146.82C401.019 146.415 404.582 146.177 408.205 146.177C458.905 146.175 500 187.283 500 237.971Z" fill="#17BCFE"/>
</g>
</svg>
