<svg width="200" height="123" viewBox="0 0 200 123" fill="none" xmlns="http://www.w3.org/2000/svg">
<g id="hotel1">
<g id="KEY">
<g id="Group">
<path id="Vector" d="M38.0664 40.6742C31.208 35.6313 28.1472 26.5722 31.1683 18.2899C34.8468 8.2048 46.1661 3.03714 56.4007 6.77029C66.6354 10.5034 71.9691 21.7454 68.2905 31.8304C65.2695 40.1127 57.0949 45.0736 48.6002 44.5165L43.1717 59.3991L35.0117 63.5302L32.6382 55.5569L38.0668 40.6743L38.0664 40.6742ZM57.7567 27.9882C59.3476 23.6266 57.0409 18.7647 52.6146 17.1502C48.1884 15.5357 43.293 17.7706 41.7021 22.1321C40.1112 26.4937 42.4179 31.3556 46.8442 32.9701C51.2703 34.585 56.1657 32.3501 57.7567 27.9882V27.9882Z" fill="#FAB91E"/>
</g>
<path id="Vector_2" d="M32.6379 55.5571L43.1714 59.3993L35.1861 81.2915L48.0003 85.9656L44.2143 96.3451L31.4001 91.6711L27.614 102.051L40.4282 106.725L36.6422 117.105L13.2945 108.588L32.6379 55.5571Z" fill="#FF9A2B"/>
</g>
<g id="Group_2">
<g id="Group_3">
<g id="Group_4">
<path id="Vector_3" d="M44.9348 63.4147V122.324H122.467L135.896 92.5523L122.467 54.9168L121.785 54.842L44.9348 63.4147Z" fill="#78E7C0"/>
<path id="Vector_4" d="M44.9351 19.6711V38.6465L122.468 46.7705L132.977 30.7564L122.468 19.6711H44.9351Z" fill="#78E7C0"/>
<path id="Vector_5" d="M200 38.6465V19.6711H122.467V46.7705L122.88 46.8136L200 38.6465Z" fill="#00D4B8"/>
</g>
<path id="Vector_6" d="M200 122.324V63.4146L122.467 54.9167V122.324H200Z" fill="#00D4B8"/>
<g id="Group_5">
<path id="Vector_7" d="M44.9348 38.6462V63.4146H122.467L132.977 49.733L122.467 38.6462H44.9348Z" fill="#7194A4"/>
</g>
<path id="Vector_8" d="M122.467 38.6462H200V63.4146H122.467V38.6462Z" fill="#5E808A"/>
</g>
</g>
<g id="tag 2" clip-path="url(#clip0)">
<path id="Vector_9" d="M152.166 43.885H119.727C119.272 43.8848 118.839 44.0093 118.538 44.2268L108.868 51.2439C108.346 51.6219 108.346 52.187 108.868 52.5651L118.538 59.5822C118.838 59.7997 119.272 59.9242 119.727 59.9239H152.166C153.91 59.9239 155.324 59.0263 155.324 57.919V45.89C155.324 44.7826 153.91 43.885 152.166 43.885Z" fill="#78E7C0"/>
<circle id="Ellipse 2" cx="120" cy="52" r="2" fill="#00D4B8"/>
<path id="Vector_10" d="M152.166 60.9262H119.727C118.816 60.9265 117.949 60.6767 117.349 60.2415L107.679 53.2244C106.643 52.467 106.643 51.3415 107.679 50.5841L117.349 43.567C117.949 43.1318 118.816 42.8821 119.727 42.8823H152.166C154.782 42.8823 156.902 44.2287 156.902 45.8895V57.9188C156.902 59.5798 154.782 60.9262 152.166 60.9262V60.9262ZM119.727 44.8873L110.057 51.9044L119.727 58.9213H152.166C153.038 58.9213 153.745 58.4725 153.745 57.9188V45.8898C153.745 45.3361 153.038 44.8873 152.166 44.8873H119.727Z" fill="#00D4B8"/>
<path id="New York" d="M128.567 54H128.021L125.825 50.67V54H125.279V49.812H125.825L128.021 53.136V49.812H128.567V54ZM132.497 52.23C132.497 52.334 132.491 52.444 132.479 52.56H129.851C129.871 52.884 129.981 53.138 130.181 53.322C130.385 53.502 130.631 53.592 130.919 53.592C131.155 53.592 131.351 53.538 131.507 53.43C131.667 53.318 131.779 53.17 131.843 52.986H132.431C132.343 53.302 132.167 53.56 131.903 53.76C131.639 53.956 131.311 54.054 130.919 54.054C130.607 54.054 130.327 53.984 130.079 53.844C129.835 53.704 129.643 53.506 129.503 53.25C129.363 52.99 129.293 52.69 129.293 52.35C129.293 52.01 129.361 51.712 129.497 51.456C129.633 51.2 129.823 51.004 130.067 50.868C130.315 50.728 130.599 50.658 130.919 50.658C131.231 50.658 131.507 50.726 131.747 50.862C131.987 50.998 132.171 51.186 132.299 51.426C132.431 51.662 132.497 51.93 132.497 52.23ZM131.933 52.116C131.933 51.908 131.887 51.73 131.795 51.582C131.703 51.43 131.577 51.316 131.417 51.24C131.261 51.16 131.087 51.12 130.895 51.12C130.619 51.12 130.383 51.208 130.187 51.384C129.995 51.56 129.885 51.804 129.857 52.116H131.933ZM137.598 50.712L136.572 54H136.008L135.216 51.39L134.424 54H133.86L132.828 50.712H133.386L134.142 53.472L134.958 50.712H135.516L136.314 53.478L137.058 50.712H137.598ZM142.668 49.818L141.306 52.422V54H140.76V52.422L139.392 49.818H139.998L141.03 51.936L142.062 49.818H142.668ZM144.677 54.054C144.369 54.054 144.089 53.984 143.837 53.844C143.589 53.704 143.393 53.506 143.249 53.25C143.109 52.99 143.039 52.69 143.039 52.35C143.039 52.014 143.111 51.718 143.255 51.462C143.403 51.202 143.603 51.004 143.855 50.868C144.107 50.728 144.389 50.658 144.701 50.658C145.013 50.658 145.295 50.728 145.547 50.868C145.799 51.004 145.997 51.2 146.141 51.456C146.289 51.712 146.363 52.01 146.363 52.35C146.363 52.69 146.287 52.99 146.135 53.25C145.987 53.506 145.785 53.704 145.529 53.844C145.273 53.984 144.989 54.054 144.677 54.054ZM144.677 53.574C144.873 53.574 145.057 53.528 145.229 53.436C145.401 53.344 145.539 53.206 145.643 53.022C145.751 52.838 145.805 52.614 145.805 52.35C145.805 52.086 145.753 51.862 145.649 51.678C145.545 51.494 145.409 51.358 145.241 51.27C145.073 51.178 144.891 51.132 144.695 51.132C144.495 51.132 144.311 51.178 144.143 51.27C143.979 51.358 143.847 51.494 143.747 51.678C143.647 51.862 143.597 52.086 143.597 52.35C143.597 52.618 143.645 52.844 143.741 53.028C143.841 53.212 143.973 53.35 144.137 53.442C144.301 53.53 144.481 53.574 144.677 53.574ZM147.627 51.246C147.723 51.058 147.859 50.912 148.035 50.808C148.215 50.704 148.433 50.652 148.689 50.652V51.216H148.545C147.933 51.216 147.627 51.548 147.627 52.212V54H147.081V50.712H147.627V51.246ZM151.156 54L149.866 52.548V54H149.32V49.56H149.866V52.17L151.132 50.712H151.894L150.346 52.35L151.9 54H151.156Z" fill="black"/>
</g>
<g id="tag 3" clip-path="url(#clip1)">
<path id="Vector_11" d="M95.1662 43.885H62.7271C62.272 43.8848 61.8387 44.0093 61.5385 44.2268L51.8682 51.2439C51.3463 51.6219 51.3463 52.187 51.8682 52.5651L61.5385 59.5822C61.8383 59.7997 62.2716 59.9242 62.7271 59.9239H95.1662C96.9099 59.9239 98.3236 59.0263 98.3236 57.919V45.89C98.3236 44.7826 96.9099 43.885 95.1662 43.885Z" fill="#78E7C0"/>
<path id="Vector_12" d="M95.1661 60.9262H62.7271C61.8161 60.9265 60.9494 60.6767 60.3494 60.2415L50.6791 53.2244C49.6434 52.467 49.6434 51.3415 50.6791 50.5841L60.3494 43.567C60.9494 43.1318 61.8161 42.8821 62.7271 42.8823H95.1661C97.7819 42.8823 99.9025 44.2287 99.9025 45.8895V57.9188C99.9025 59.5798 97.7819 60.9262 95.1661 60.9262V60.9262ZM62.7271 44.8873L53.0568 51.9044L62.7271 58.9213H95.1661C96.0378 58.9213 96.745 58.4725 96.745 57.9188V45.8898C96.745 45.3361 96.0378 44.8873 95.1661 44.8873H62.7271Z" fill="#00D4B8"/>
<path id="Hotels" d="M70.8817 49.2638V54.1428H70.2447V51.9308H67.7597V54.1428H67.1227V49.2638H67.7597V51.4058H70.2447V49.2638H70.8817ZM73.6424 54.2058C73.283 54.2058 72.9564 54.1242 72.6624 53.9608C72.373 53.7975 72.1444 53.5665 71.9764 53.2678C71.813 52.9645 71.7314 52.6145 71.7314 52.2178C71.7314 51.8258 71.8154 51.4805 71.9834 51.1818C72.156 50.8785 72.3894 50.6475 72.6834 50.4888C72.9774 50.3255 73.3064 50.2438 73.6704 50.2438C74.0344 50.2438 74.3634 50.3255 74.6574 50.4888C74.9514 50.6475 75.1824 50.8762 75.3504 51.1748C75.523 51.4735 75.6094 51.8212 75.6094 52.2178C75.6094 52.6145 75.5207 52.9645 75.3434 53.2678C75.1707 53.5665 74.935 53.7975 74.6364 53.9608C74.3377 54.1242 74.0064 54.2058 73.6424 54.2058ZM73.6424 53.6458C73.871 53.6458 74.0857 53.5922 74.2864 53.4848C74.487 53.3775 74.648 53.2165 74.7694 53.0018C74.8954 52.7872 74.9584 52.5258 74.9584 52.2178C74.9584 51.9098 74.8977 51.6485 74.7764 51.4338C74.655 51.2192 74.4964 51.0605 74.3004 50.9578C74.1044 50.8505 73.892 50.7968 73.6634 50.7968C73.43 50.7968 73.2154 50.8505 73.0194 50.9578C72.828 51.0605 72.674 51.2192 72.5574 51.4338C72.4407 51.6485 72.3824 51.9098 72.3824 52.2178C72.3824 52.5305 72.4384 52.7942 72.5504 53.0088C72.667 53.2235 72.821 53.3845 73.0124 53.4918C73.2037 53.5945 73.4137 53.6458 73.6424 53.6458ZM77.2239 50.8318V53.0928C77.2239 53.2795 77.2636 53.4125 77.3429 53.4918C77.4222 53.5665 77.5599 53.6038 77.7559 53.6038H78.2249V54.1428H77.6509C77.2962 54.1428 77.0302 54.0612 76.8529 53.8978C76.6756 53.7345 76.5869 53.4662 76.5869 53.0928V50.8318H76.0899V50.3068H76.5869V49.3408H77.2239V50.3068H78.2249V50.8318H77.2239ZM82.4967 52.0778C82.4967 52.1992 82.4897 52.3275 82.4757 52.4628H79.4097C79.433 52.8408 79.5614 53.1372 79.7947 53.3518C80.0327 53.5618 80.3197 53.6668 80.6557 53.6668C80.931 53.6668 81.1597 53.6038 81.3417 53.4778C81.5284 53.3472 81.659 53.1745 81.7337 52.9598H82.4197C82.317 53.3285 82.1117 53.6295 81.8037 53.8628C81.4957 54.0915 81.113 54.2058 80.6557 54.2058C80.2917 54.2058 79.965 54.1242 79.6757 53.9608C79.391 53.7975 79.167 53.5665 79.0037 53.2678C78.8404 52.9645 78.7587 52.6145 78.7587 52.2178C78.7587 51.8212 78.838 51.4735 78.9967 51.1748C79.1554 50.8762 79.377 50.6475 79.6617 50.4888C79.951 50.3255 80.2824 50.2438 80.6557 50.2438C81.0197 50.2438 81.3417 50.3232 81.6217 50.4818C81.9017 50.6405 82.1164 50.8598 82.2657 51.1398C82.4197 51.4152 82.4967 51.7278 82.4967 52.0778ZM81.8387 51.9448C81.8387 51.7022 81.785 51.4945 81.6777 51.3218C81.5704 51.1445 81.4234 51.0115 81.2367 50.9228C81.0547 50.8295 80.8517 50.7828 80.6277 50.7828C80.3057 50.7828 80.0304 50.8855 79.8017 51.0908C79.5777 51.2962 79.4494 51.5808 79.4167 51.9448H81.8387ZM83.9745 48.9628V54.1428H83.3375V48.9628H83.9745ZM86.4182 54.2058C86.1242 54.2058 85.8605 54.1568 85.6272 54.0588C85.3939 53.9562 85.2095 53.8162 85.0742 53.6388C84.9389 53.4568 84.8642 53.2492 84.8502 53.0158H85.5082C85.5269 53.2072 85.6155 53.3635 85.7742 53.4848C85.9375 53.6062 86.1499 53.6668 86.4112 53.6668C86.6539 53.6668 86.8452 53.6132 86.9852 53.5058C87.1252 53.3985 87.1952 53.2632 87.1952 53.0998C87.1952 52.9318 87.1205 52.8082 86.9712 52.7288C86.8219 52.6448 86.5909 52.5632 86.2782 52.4838C85.9935 52.4092 85.7602 52.3345 85.5782 52.2598C85.4009 52.1805 85.2469 52.0662 85.1162 51.9168C84.9902 51.7628 84.9272 51.5622 84.9272 51.3148C84.9272 51.1188 84.9855 50.9392 85.1022 50.7758C85.2189 50.6125 85.3845 50.4842 85.5992 50.3908C85.8139 50.2928 86.0589 50.2438 86.3342 50.2438C86.7589 50.2438 87.1019 50.3512 87.3632 50.5658C87.6245 50.7805 87.7645 51.0745 87.7832 51.4478H87.1462C87.1322 51.2472 87.0505 51.0862 86.9012 50.9648C86.7565 50.8435 86.5605 50.7828 86.3132 50.7828C86.0845 50.7828 85.9025 50.8318 85.7672 50.9298C85.6319 51.0278 85.5642 51.1562 85.5642 51.3148C85.5642 51.4408 85.6039 51.5458 85.6832 51.6298C85.7672 51.7092 85.8699 51.7745 85.9912 51.8258C86.1172 51.8725 86.2899 51.9262 86.5092 51.9868C86.7845 52.0615 87.0085 52.1362 87.1812 52.2108C87.3539 52.2808 87.5009 52.3882 87.6222 52.5328C87.7482 52.6775 87.8135 52.8665 87.8182 53.0998C87.8182 53.3098 87.7599 53.4988 87.6432 53.6668C87.5265 53.8348 87.3609 53.9678 87.1462 54.0658C86.9362 54.1592 86.6935 54.2058 86.4182 54.2058Z" fill="black"/>
<circle id="Ellipse 2_2" cx="62" cy="52" r="2" fill="#00D4B8"/>
</g>
<g id="about-it">
<path id="Sofitel Mumbai BKC" d="M74.98 81.07C74.52 81.07 74.1067 80.99 73.74 80.83C73.38 80.6633 73.0967 80.4367 72.89 80.15C72.6833 79.8567 72.5767 79.52 72.57 79.14H73.54C73.5733 79.4667 73.7067 79.7433 73.94 79.97C74.18 80.19 74.5267 80.3 74.98 80.3C75.4133 80.3 75.7533 80.1933 76 79.98C76.2533 79.76 76.38 79.48 76.38 79.14C76.38 78.8733 76.3067 78.6567 76.16 78.49C76.0133 78.3233 75.83 78.1967 75.61 78.11C75.39 78.0233 75.0933 77.93 74.72 77.83C74.26 77.71 73.89 77.59 73.61 77.47C73.3367 77.35 73.1 77.1633 72.9 76.91C72.7067 76.65 72.61 76.3033 72.61 75.87C72.61 75.49 72.7067 75.1533 72.9 74.86C73.0933 74.5667 73.3633 74.34 73.71 74.18C74.0633 74.02 74.4667 73.94 74.92 73.94C75.5733 73.94 76.1067 74.1033 76.52 74.43C76.94 74.7567 77.1767 75.19 77.23 75.73H76.23C76.1967 75.4633 76.0567 75.23 75.81 75.03C75.5633 74.8233 75.2367 74.72 74.83 74.72C74.45 74.72 74.14 74.82 73.9 75.02C73.66 75.2133 73.54 75.4867 73.54 75.84C73.54 76.0933 73.61 76.3 73.75 76.46C73.8967 76.62 74.0733 76.7433 74.28 76.83C74.4933 76.91 74.79 77.0033 75.17 77.11C75.63 77.2367 76 77.3633 76.28 77.49C76.56 77.61 76.8 77.8 77 78.06C77.2 78.3133 77.3 78.66 77.3 79.1C77.3 79.44 77.21 79.76 77.03 80.06C76.85 80.36 76.5833 80.6033 76.23 80.79C75.8767 80.9767 75.46 81.07 74.98 81.07ZM81.0291 81.09C80.5158 81.09 80.0491 80.9733 79.6291 80.74C79.2158 80.5067 78.8891 80.1767 78.6491 79.75C78.4158 79.3167 78.2991 78.8167 78.2991 78.25C78.2991 77.69 78.4191 77.1967 78.6591 76.77C78.9058 76.3367 79.2391 76.0067 79.6591 75.78C80.0791 75.5467 80.5491 75.43 81.0691 75.43C81.5891 75.43 82.0591 75.5467 82.4791 75.78C82.8991 76.0067 83.2291 76.3333 83.4691 76.76C83.7158 77.1867 83.8391 77.6833 83.8391 78.25C83.8391 78.8167 83.7125 79.3167 83.4591 79.75C83.2125 80.1767 82.8758 80.5067 82.4491 80.74C82.0225 80.9733 81.5491 81.09 81.0291 81.09ZM81.0291 80.29C81.3558 80.29 81.6625 80.2133 81.9491 80.06C82.2358 79.9067 82.4658 79.6767 82.6391 79.37C82.8191 79.0633 82.9091 78.69 82.9091 78.25C82.9091 77.81 82.8225 77.4367 82.6491 77.13C82.4758 76.8233 82.2491 76.5967 81.9691 76.45C81.6891 76.2967 81.3858 76.22 81.0591 76.22C80.7258 76.22 80.4191 76.2967 80.1391 76.45C79.8658 76.5967 79.6458 76.8233 79.4791 77.13C79.3125 77.4367 79.2291 77.81 79.2291 78.25C79.2291 78.6967 79.3091 79.0733 79.4691 79.38C79.6358 79.6867 79.8558 79.9167 80.1291 80.07C80.4025 80.2167 80.7025 80.29 81.0291 80.29ZM87.2656 76.27H86.1156V81H85.2056V76.27H84.4956V75.52H85.2056V75.13C85.2056 74.5167 85.3623 74.07 85.6756 73.79C85.9956 73.5033 86.5056 73.36 87.2056 73.36V74.12C86.8056 74.12 86.5223 74.2 86.3556 74.36C86.1956 74.5133 86.1156 74.77 86.1156 75.13V75.52H87.2656V76.27ZM88.7966 74.63C88.6233 74.63 88.4766 74.57 88.3566 74.45C88.2366 74.33 88.1766 74.1833 88.1766 74.01C88.1766 73.8367 88.2366 73.69 88.3566 73.57C88.4766 73.45 88.6233 73.39 88.7966 73.39C88.9633 73.39 89.1033 73.45 89.2166 73.57C89.3366 73.69 89.3966 73.8367 89.3966 74.01C89.3966 74.1833 89.3366 74.33 89.2166 74.45C89.1033 74.57 88.9633 74.63 88.7966 74.63ZM89.2366 75.52V81H88.3266V75.52H89.2366ZM91.8976 76.27V79.5C91.8976 79.7667 91.9542 79.9567 92.0676 80.07C92.1809 80.1767 92.3776 80.23 92.6576 80.23H93.3276V81H92.5076C92.0009 81 91.6209 80.8833 91.3676 80.65C91.1142 80.4167 90.9876 80.0333 90.9876 79.5V76.27H90.2776V75.52H90.9876V74.14H91.8976V75.52H93.3276V76.27H91.8976ZM99.4302 78.05C99.4302 78.2233 99.4202 78.4067 99.4002 78.6H95.0202C95.0535 79.14 95.2368 79.5633 95.5702 79.87C95.9102 80.17 96.3202 80.32 96.8002 80.32C97.1935 80.32 97.5202 80.23 97.7802 80.05C98.0468 79.8633 98.2335 79.6167 98.3402 79.31H99.3202C99.1735 79.8367 98.8802 80.2667 98.4402 80.6C98.0002 80.9267 97.4535 81.09 96.8002 81.09C96.2802 81.09 95.8135 80.9733 95.4002 80.74C94.9935 80.5067 94.6735 80.1767 94.4402 79.75C94.2068 79.3167 94.0902 78.8167 94.0902 78.25C94.0902 77.6833 94.2035 77.1867 94.4302 76.76C94.6568 76.3333 94.9735 76.0067 95.3802 75.78C95.7935 75.5467 96.2668 75.43 96.8002 75.43C97.3202 75.43 97.7802 75.5433 98.1802 75.77C98.5802 75.9967 98.8868 76.31 99.1002 76.71C99.3202 77.1033 99.4302 77.55 99.4302 78.05ZM98.4902 77.86C98.4902 77.5133 98.4135 77.2167 98.2602 76.97C98.1068 76.7167 97.8968 76.5267 97.6302 76.4C97.3702 76.2667 97.0802 76.2 96.7602 76.2C96.3002 76.2 95.9068 76.3467 95.5802 76.64C95.2602 76.9333 95.0768 77.34 95.0302 77.86H98.4902ZM101.541 73.6V81H100.631V73.6H101.541ZM112.828 74.08V81H111.918V75.84L109.618 81H108.978L106.668 75.83V81H105.758V74.08H106.738L109.298 79.8L111.858 74.08H112.828ZM119.232 75.52V81H118.322V80.19C118.148 80.47 117.905 80.69 117.592 80.85C117.285 81.0033 116.945 81.08 116.572 81.08C116.145 81.08 115.762 80.9933 115.422 80.82C115.082 80.64 114.812 80.3733 114.612 80.02C114.418 79.6667 114.322 79.2367 114.322 78.73V75.52H115.222V78.61C115.222 79.15 115.358 79.5667 115.632 79.86C115.905 80.1467 116.278 80.29 116.752 80.29C117.238 80.29 117.622 80.14 117.902 79.84C118.182 79.54 118.322 79.1033 118.322 78.53V75.52H119.232ZM127.358 75.42C127.785 75.42 128.165 75.51 128.498 75.69C128.831 75.8633 129.095 76.1267 129.288 76.48C129.481 76.8333 129.578 77.2633 129.578 77.77V81H128.678V77.9C128.678 77.3533 128.541 76.9367 128.268 76.65C128.001 76.3567 127.638 76.21 127.178 76.21C126.705 76.21 126.328 76.3633 126.048 76.67C125.768 76.97 125.628 77.4067 125.628 77.98V81H124.728V77.9C124.728 77.3533 124.591 76.9367 124.318 76.65C124.051 76.3567 123.688 76.21 123.228 76.21C122.755 76.21 122.378 76.3633 122.098 76.67C121.818 76.97 121.678 77.4067 121.678 77.98V81H120.768V75.52H121.678V76.31C121.858 76.0233 122.098 75.8033 122.398 75.65C122.705 75.4967 123.041 75.42 123.408 75.42C123.868 75.42 124.275 75.5233 124.628 75.73C124.981 75.9367 125.245 76.24 125.418 76.64C125.571 76.2533 125.825 75.9533 126.178 75.74C126.531 75.5267 126.925 75.42 127.358 75.42ZM131.981 76.54C132.167 76.2133 132.441 75.9467 132.801 75.74C133.161 75.5333 133.571 75.43 134.031 75.43C134.524 75.43 134.967 75.5467 135.361 75.78C135.754 76.0133 136.064 76.3433 136.291 76.77C136.517 77.19 136.631 77.68 136.631 78.24C136.631 78.7933 136.517 79.2867 136.291 79.72C136.064 80.1533 135.751 80.49 135.351 80.73C134.957 80.97 134.517 81.09 134.031 81.09C133.557 81.09 133.141 80.9867 132.781 80.78C132.427 80.5733 132.161 80.31 131.981 79.99V81H131.071V73.6H131.981V76.54ZM135.701 78.24C135.701 77.8267 135.617 77.4667 135.451 77.16C135.284 76.8533 135.057 76.62 134.771 76.46C134.491 76.3 134.181 76.22 133.841 76.22C133.507 76.22 133.197 76.3033 132.911 76.47C132.631 76.63 132.404 76.8667 132.231 77.18C132.064 77.4867 131.981 77.8433 131.981 78.25C131.981 78.6633 132.064 79.0267 132.231 79.34C132.404 79.6467 132.631 79.8833 132.911 80.05C133.197 80.21 133.507 80.29 133.841 80.29C134.181 80.29 134.491 80.21 134.771 80.05C135.057 79.8833 135.284 79.6467 135.451 79.34C135.617 79.0267 135.701 78.66 135.701 78.24ZM137.489 78.24C137.489 77.68 137.602 77.19 137.829 76.77C138.055 76.3433 138.365 76.0133 138.759 75.78C139.159 75.5467 139.602 75.43 140.089 75.43C140.569 75.43 140.985 75.5333 141.339 75.74C141.692 75.9467 141.955 76.2067 142.129 76.52V75.52H143.049V81H142.129V79.98C141.949 80.3 141.679 80.5667 141.319 80.78C140.965 80.9867 140.552 81.09 140.079 81.09C139.592 81.09 139.152 80.97 138.759 80.73C138.365 80.49 138.055 80.1533 137.829 79.72C137.602 79.2867 137.489 78.7933 137.489 78.24ZM142.129 78.25C142.129 77.8367 142.045 77.4767 141.879 77.17C141.712 76.8633 141.485 76.63 141.199 76.47C140.919 76.3033 140.609 76.22 140.269 76.22C139.929 76.22 139.619 76.3 139.339 76.46C139.059 76.62 138.835 76.8533 138.669 77.16C138.502 77.4667 138.419 77.8267 138.419 78.24C138.419 78.66 138.502 79.0267 138.669 79.34C138.835 79.6467 139.059 79.8833 139.339 80.05C139.619 80.21 139.929 80.29 140.269 80.29C140.609 80.29 140.919 80.21 141.199 80.05C141.485 79.8833 141.712 79.6467 141.879 79.34C142.045 79.0267 142.129 78.6633 142.129 78.25ZM145.056 74.63C144.883 74.63 144.736 74.57 144.616 74.45C144.496 74.33 144.436 74.1833 144.436 74.01C144.436 73.8367 144.496 73.69 144.616 73.57C144.736 73.45 144.883 73.39 145.056 73.39C145.223 73.39 145.363 73.45 145.476 73.57C145.596 73.69 145.656 73.8367 145.656 74.01C145.656 74.1833 145.596 74.33 145.476 74.45C145.363 74.57 145.223 74.63 145.056 74.63ZM145.496 75.52V81H144.586V75.52H145.496ZM153.203 77.41C153.457 77.45 153.687 77.5533 153.893 77.72C154.107 77.8867 154.273 78.0933 154.393 78.34C154.52 78.5867 154.583 78.85 154.583 79.13C154.583 79.4833 154.493 79.8033 154.313 80.09C154.133 80.37 153.87 80.5933 153.523 80.76C153.183 80.92 152.78 81 152.313 81H149.713V74.03H152.213C152.687 74.03 153.09 74.11 153.423 74.27C153.757 74.4233 154.007 74.6333 154.173 74.9C154.34 75.1667 154.423 75.4667 154.423 75.8C154.423 76.2133 154.31 76.5567 154.083 76.83C153.863 77.0967 153.57 77.29 153.203 77.41ZM150.623 77.04H152.153C152.58 77.04 152.91 76.94 153.143 76.74C153.377 76.54 153.493 76.2633 153.493 75.91C153.493 75.5567 153.377 75.28 153.143 75.08C152.91 74.88 152.573 74.78 152.133 74.78H150.623V77.04ZM152.233 80.25C152.687 80.25 153.04 80.1433 153.293 79.93C153.547 79.7167 153.673 79.42 153.673 79.04C153.673 78.6533 153.54 78.35 153.273 78.13C153.007 77.9033 152.65 77.79 152.203 77.79H150.623V80.25H152.233ZM159.626 81L156.756 77.82V81H155.846V74.03H156.756V77.26L159.636 74.03H160.786L157.626 77.52L160.816 81H159.626ZM161.493 77.51C161.493 76.83 161.646 76.22 161.953 75.68C162.259 75.1333 162.676 74.7067 163.203 74.4C163.736 74.0933 164.326 73.94 164.973 73.94C165.733 73.94 166.396 74.1233 166.963 74.49C167.529 74.8567 167.943 75.3767 168.203 76.05H167.113C166.919 75.63 166.639 75.3067 166.273 75.08C165.913 74.8533 165.479 74.74 164.973 74.74C164.486 74.74 164.049 74.8533 163.663 75.08C163.276 75.3067 162.973 75.63 162.753 76.05C162.533 76.4633 162.423 76.95 162.423 77.51C162.423 78.0633 162.533 78.55 162.753 78.97C162.973 79.3833 163.276 79.7033 163.663 79.93C164.049 80.1567 164.486 80.27 164.973 80.27C165.479 80.27 165.913 80.16 166.273 79.94C166.639 79.7133 166.919 79.39 167.113 78.97H168.203C167.943 79.6367 167.529 80.1533 166.963 80.52C166.396 80.88 165.733 81.06 164.973 81.06C164.326 81.06 163.736 80.91 163.203 80.61C162.676 80.3033 162.259 79.88 161.953 79.34C161.646 78.8 161.493 78.19 161.493 77.51Z" fill="black"/>
<path id="C 57 Bandra Kurla Complex, Bandra East, Maharashtra" d="M52.258 90.906C52.258 90.498 52.35 90.132 52.534 89.808C52.718 89.48 52.968 89.224 53.284 89.04C53.604 88.856 53.958 88.764 54.346 88.764C54.802 88.764 55.2 88.874 55.54 89.094C55.88 89.314 56.128 89.626 56.284 90.03H55.63C55.514 89.778 55.346 89.584 55.126 89.448C54.91 89.312 54.65 89.244 54.346 89.244C54.054 89.244 53.792 89.312 53.56 89.448C53.328 89.584 53.146 89.778 53.014 90.03C52.882 90.278 52.816 90.57 52.816 90.906C52.816 91.238 52.882 91.53 53.014 91.782C53.146 92.03 53.328 92.222 53.56 92.358C53.792 92.494 54.054 92.562 54.346 92.562C54.65 92.562 54.91 92.496 55.126 92.364C55.346 92.228 55.514 92.034 55.63 91.782H56.284C56.128 92.182 55.88 92.492 55.54 92.712C55.2 92.928 54.802 93.036 54.346 93.036C53.958 93.036 53.604 92.946 53.284 92.766C52.968 92.582 52.718 92.328 52.534 92.004C52.35 91.68 52.258 91.314 52.258 90.906ZM61.3724 89.136H59.2664V90.504C59.3584 90.376 59.4944 90.272 59.6744 90.192C59.8544 90.108 60.0484 90.066 60.2564 90.066C60.5884 90.066 60.8584 90.136 61.0664 90.276C61.2744 90.412 61.4224 90.59 61.5104 90.81C61.6024 91.026 61.6484 91.256 61.6484 91.5C61.6484 91.788 61.5944 92.046 61.4864 92.274C61.3784 92.502 61.2124 92.682 60.9884 92.814C60.7684 92.946 60.4944 93.012 60.1664 93.012C59.7464 93.012 59.4064 92.904 59.1464 92.688C58.8864 92.472 58.7284 92.184 58.6724 91.824H59.2064C59.2584 92.052 59.3684 92.23 59.5364 92.358C59.7044 92.486 59.9164 92.55 60.1724 92.55C60.4884 92.55 60.7264 92.456 60.8864 92.268C61.0464 92.076 61.1264 91.824 61.1264 91.512C61.1264 91.2 61.0464 90.96 60.8864 90.792C60.7264 90.62 60.4904 90.534 60.1784 90.534C59.9664 90.534 59.7804 90.586 59.6204 90.69C59.4644 90.79 59.3504 90.928 59.2784 91.104H58.7624V88.656H61.3724V89.136ZM65.044 89.088L63.376 93H62.824L64.516 89.142H62.2V88.674H65.044V89.088ZM69.433 90.846C69.585 90.87 69.723 90.932 69.847 91.032C69.975 91.132 70.075 91.256 70.147 91.404C70.223 91.552 70.261 91.71 70.261 91.878C70.261 92.09 70.207 92.282 70.099 92.454C69.991 92.622 69.833 92.756 69.625 92.856C69.421 92.952 69.179 93 68.899 93H67.339V88.818H68.839C69.123 88.818 69.365 88.866 69.565 88.962C69.765 89.054 69.915 89.18 70.015 89.34C70.115 89.5 70.165 89.68 70.165 89.88C70.165 90.128 70.097 90.334 69.961 90.498C69.829 90.658 69.653 90.774 69.433 90.846ZM67.885 90.624H68.803C69.059 90.624 69.257 90.564 69.397 90.444C69.537 90.324 69.607 90.158 69.607 89.946C69.607 89.734 69.537 89.568 69.397 89.448C69.257 89.328 69.055 89.268 68.791 89.268H67.885V90.624ZM68.851 92.55C69.123 92.55 69.335 92.486 69.487 92.358C69.639 92.23 69.715 92.052 69.715 91.824C69.715 91.592 69.635 91.41 69.475 91.278C69.315 91.142 69.101 91.074 68.833 91.074H67.885V92.55H68.851ZM70.8146 91.344C70.8146 91.008 70.8826 90.714 71.0186 90.462C71.1546 90.206 71.3406 90.008 71.5766 89.868C71.8166 89.728 72.0826 89.658 72.3746 89.658C72.6626 89.658 72.9126 89.72 73.1246 89.844C73.3366 89.968 73.4946 90.124 73.5986 90.312V89.712H74.1506V93H73.5986V92.388C73.4906 92.58 73.3286 92.74 73.1126 92.868C72.9006 92.992 72.6526 93.054 72.3686 93.054C72.0766 93.054 71.8126 92.982 71.5766 92.838C71.3406 92.694 71.1546 92.492 71.0186 92.232C70.8826 91.972 70.8146 91.676 70.8146 91.344ZM73.5986 91.35C73.5986 91.102 73.5486 90.886 73.4486 90.702C73.3486 90.518 73.2126 90.378 73.0406 90.282C72.8726 90.182 72.6866 90.132 72.4826 90.132C72.2786 90.132 72.0926 90.18 71.9246 90.276C71.7566 90.372 71.6226 90.512 71.5226 90.696C71.4226 90.88 71.3726 91.096 71.3726 91.344C71.3726 91.596 71.4226 91.816 71.5226 92.004C71.6226 92.188 71.7566 92.33 71.9246 92.43C72.0926 92.526 72.2786 92.574 72.4826 92.574C72.6866 92.574 72.8726 92.526 73.0406 92.43C73.2126 92.33 73.3486 92.188 73.4486 92.004C73.5486 91.816 73.5986 91.598 73.5986 91.35ZM76.6753 89.652C77.0753 89.652 77.3993 89.774 77.6473 90.018C77.8953 90.258 78.0193 90.606 78.0193 91.062V93H77.4793V91.14C77.4793 90.812 77.3973 90.562 77.2333 90.39C77.0693 90.214 76.8453 90.126 76.5613 90.126C76.2733 90.126 76.0433 90.216 75.8713 90.396C75.7033 90.576 75.6193 90.838 75.6193 91.182V93H75.0733V89.712H75.6193V90.18C75.7273 90.012 75.8733 89.882 76.0573 89.79C76.2453 89.698 76.4513 89.652 76.6753 89.652ZM78.7072 91.344C78.7072 91.008 78.7752 90.714 78.9112 90.462C79.0472 90.206 79.2332 90.008 79.4692 89.868C79.7092 89.728 79.9772 89.658 80.2732 89.658C80.5292 89.658 80.7672 89.718 80.9872 89.838C81.2072 89.954 81.3752 90.108 81.4912 90.3V88.56H82.0432V93H81.4912V92.382C81.3832 92.578 81.2232 92.74 81.0112 92.868C80.7992 92.992 80.5512 93.054 80.2672 93.054C79.9752 93.054 79.7092 92.982 79.4692 92.838C79.2332 92.694 79.0472 92.492 78.9112 92.232C78.7752 91.972 78.7072 91.676 78.7072 91.344ZM81.4912 91.35C81.4912 91.102 81.4412 90.886 81.3412 90.702C81.2412 90.518 81.1052 90.378 80.9332 90.282C80.7652 90.182 80.5792 90.132 80.3752 90.132C80.1712 90.132 79.9852 90.18 79.8172 90.276C79.6492 90.372 79.5152 90.512 79.4152 90.696C79.3152 90.88 79.2652 91.096 79.2652 91.344C79.2652 91.596 79.3152 91.816 79.4152 92.004C79.5152 92.188 79.6492 92.33 79.8172 92.43C79.9852 92.526 80.1712 92.574 80.3752 92.574C80.5792 92.574 80.7652 92.526 80.9332 92.43C81.1052 92.33 81.2412 92.188 81.3412 92.004C81.4412 91.816 81.4912 91.598 81.4912 91.35ZM83.5119 90.246C83.6079 90.058 83.7439 89.912 83.9199 89.808C84.0999 89.704 84.3179 89.652 84.5739 89.652V90.216H84.4299C83.8179 90.216 83.5119 90.548 83.5119 91.212V93H82.9659V89.712H83.5119V90.246ZM85.0002 91.344C85.0002 91.008 85.0682 90.714 85.2042 90.462C85.3402 90.206 85.5262 90.008 85.7622 89.868C86.0022 89.728 86.2682 89.658 86.5602 89.658C86.8482 89.658 87.0982 89.72 87.3102 89.844C87.5222 89.968 87.6802 90.124 87.7842 90.312V89.712H88.3362V93H87.7842V92.388C87.6762 92.58 87.5142 92.74 87.2982 92.868C87.0862 92.992 86.8382 93.054 86.5542 93.054C86.2622 93.054 85.9982 92.982 85.7622 92.838C85.5262 92.694 85.3402 92.492 85.2042 92.232C85.0682 91.972 85.0002 91.676 85.0002 91.344ZM87.7842 91.35C87.7842 91.102 87.7342 90.886 87.6342 90.702C87.5342 90.518 87.3982 90.378 87.2262 90.282C87.0582 90.182 86.8722 90.132 86.6682 90.132C86.4642 90.132 86.2782 90.18 86.1102 90.276C85.9422 90.372 85.8082 90.512 85.7082 90.696C85.6082 90.88 85.5582 91.096 85.5582 91.344C85.5582 91.596 85.6082 91.816 85.7082 92.004C85.8082 92.188 85.9422 92.33 86.1102 92.43C86.2782 92.526 86.4642 92.574 86.6682 92.574C86.8722 92.574 87.0582 92.526 87.2262 92.43C87.3982 92.33 87.5342 92.188 87.6342 92.004C87.7342 91.816 87.7842 91.598 87.7842 91.35ZM93.1265 93L91.4045 91.092V93H90.8585V88.818H91.4045V90.756L93.1325 88.818H93.8225L91.9265 90.912L93.8405 93H93.1265ZM97.3663 89.712V93H96.8203V92.514C96.7163 92.682 96.5703 92.814 96.3823 92.91C96.1983 93.002 95.9943 93.048 95.7703 93.048C95.5143 93.048 95.2843 92.996 95.0803 92.892C94.8763 92.784 94.7143 92.624 94.5943 92.412C94.4783 92.2 94.4203 91.942 94.4203 91.638V89.712H94.9603V91.566C94.9603 91.89 95.0423 92.14 95.2063 92.316C95.3703 92.488 95.5943 92.574 95.8783 92.574C96.1703 92.574 96.4003 92.484 96.5683 92.304C96.7363 92.124 96.8203 91.862 96.8203 91.518V89.712H97.3663ZM98.8342 90.246C98.9302 90.058 99.0662 89.912 99.2422 89.808C99.4222 89.704 99.6402 89.652 99.8962 89.652V90.216H99.7522C99.1402 90.216 98.8342 90.548 98.8342 91.212V93H98.2882V89.712H98.8342V90.246ZM101.072 88.56V93H100.526V88.56H101.072ZM101.799 91.344C101.799 91.008 101.867 90.714 102.003 90.462C102.139 90.206 102.325 90.008 102.561 89.868C102.801 89.728 103.067 89.658 103.359 89.658C103.647 89.658 103.897 89.72 104.109 89.844C104.321 89.968 104.479 90.124 104.583 90.312V89.712H105.135V93H104.583V92.388C104.475 92.58 104.313 92.74 104.097 92.868C103.885 92.992 103.637 93.054 103.353 93.054C103.061 93.054 102.797 92.982 102.561 92.838C102.325 92.694 102.139 92.492 102.003 92.232C101.867 91.972 101.799 91.676 101.799 91.344ZM104.583 91.35C104.583 91.102 104.533 90.886 104.433 90.702C104.333 90.518 104.197 90.378 104.025 90.282C103.857 90.182 103.671 90.132 103.467 90.132C103.263 90.132 103.077 90.18 102.909 90.276C102.741 90.372 102.607 90.512 102.507 90.696C102.407 90.88 102.357 91.096 102.357 91.344C102.357 91.596 102.407 91.816 102.507 92.004C102.607 92.188 102.741 92.33 102.909 92.43C103.077 92.526 103.263 92.574 103.467 92.574C103.671 92.574 103.857 92.526 104.025 92.43C104.197 92.33 104.333 92.188 104.433 92.004C104.533 91.816 104.583 91.598 104.583 91.35ZM107.453 90.906C107.453 90.498 107.545 90.132 107.729 89.808C107.913 89.48 108.163 89.224 108.479 89.04C108.799 88.856 109.153 88.764 109.541 88.764C109.997 88.764 110.395 88.874 110.735 89.094C111.075 89.314 111.323 89.626 111.479 90.03H110.825C110.709 89.778 110.541 89.584 110.321 89.448C110.105 89.312 109.845 89.244 109.541 89.244C109.249 89.244 108.987 89.312 108.755 89.448C108.523 89.584 108.341 89.778 108.209 90.03C108.077 90.278 108.011 90.57 108.011 90.906C108.011 91.238 108.077 91.53 108.209 91.782C108.341 92.03 108.523 92.222 108.755 92.358C108.987 92.494 109.249 92.562 109.541 92.562C109.845 92.562 110.105 92.496 110.321 92.364C110.541 92.228 110.709 92.034 110.825 91.782H111.479C111.323 92.182 111.075 92.492 110.735 92.712C110.395 92.928 109.997 93.036 109.541 93.036C109.153 93.036 108.799 92.946 108.479 92.766C108.163 92.582 107.913 92.328 107.729 92.004C107.545 91.68 107.453 91.314 107.453 90.906ZM113.726 93.054C113.418 93.054 113.138 92.984 112.886 92.844C112.638 92.704 112.442 92.506 112.298 92.25C112.158 91.99 112.088 91.69 112.088 91.35C112.088 91.014 112.16 90.718 112.304 90.462C112.452 90.202 112.652 90.004 112.904 89.868C113.156 89.728 113.438 89.658 113.75 89.658C114.062 89.658 114.344 89.728 114.596 89.868C114.848 90.004 115.046 90.2 115.19 90.456C115.338 90.712 115.412 91.01 115.412 91.35C115.412 91.69 115.336 91.99 115.184 92.25C115.036 92.506 114.834 92.704 114.578 92.844C114.322 92.984 114.038 93.054 113.726 93.054ZM113.726 92.574C113.922 92.574 114.106 92.528 114.278 92.436C114.45 92.344 114.588 92.206 114.692 92.022C114.8 91.838 114.854 91.614 114.854 91.35C114.854 91.086 114.802 90.862 114.698 90.678C114.594 90.494 114.458 90.358 114.29 90.27C114.122 90.178 113.94 90.132 113.744 90.132C113.544 90.132 113.36 90.178 113.192 90.27C113.028 90.358 112.896 90.494 112.796 90.678C112.696 90.862 112.646 91.086 112.646 91.35C112.646 91.618 112.694 91.844 112.79 92.028C112.89 92.212 113.022 92.35 113.186 92.442C113.35 92.53 113.53 92.574 113.726 92.574ZM120.084 89.652C120.34 89.652 120.568 89.706 120.768 89.814C120.968 89.918 121.126 90.076 121.242 90.288C121.358 90.5 121.416 90.758 121.416 91.062V93H120.876V91.14C120.876 90.812 120.794 90.562 120.63 90.39C120.47 90.214 120.252 90.126 119.976 90.126C119.692 90.126 119.466 90.218 119.298 90.402C119.13 90.582 119.046 90.844 119.046 91.188V93H118.506V91.14C118.506 90.812 118.424 90.562 118.26 90.39C118.1 90.214 117.882 90.126 117.606 90.126C117.322 90.126 117.096 90.218 116.928 90.402C116.76 90.582 116.676 90.844 116.676 91.188V93H116.13V89.712H116.676V90.186C116.784 90.014 116.928 89.882 117.108 89.79C117.292 89.698 117.494 89.652 117.714 89.652C117.99 89.652 118.234 89.714 118.446 89.838C118.658 89.962 118.816 90.144 118.92 90.384C119.012 90.152 119.164 89.972 119.376 89.844C119.588 89.716 119.824 89.652 120.084 89.652ZM122.858 90.318C122.966 90.13 123.126 89.974 123.338 89.85C123.554 89.722 123.804 89.658 124.088 89.658C124.38 89.658 124.644 89.728 124.88 89.868C125.12 90.008 125.308 90.206 125.444 90.462C125.58 90.714 125.648 91.008 125.648 91.344C125.648 91.676 125.58 91.972 125.444 92.232C125.308 92.492 125.12 92.694 124.88 92.838C124.644 92.982 124.38 93.054 124.088 93.054C123.808 93.054 123.56 92.992 123.344 92.868C123.132 92.74 122.97 92.582 122.858 92.394V94.56H122.312V89.712H122.858V90.318ZM125.09 91.344C125.09 91.096 125.04 90.88 124.94 90.696C124.84 90.512 124.704 90.372 124.532 90.276C124.364 90.18 124.178 90.132 123.974 90.132C123.774 90.132 123.588 90.182 123.416 90.282C123.248 90.378 123.112 90.52 123.008 90.708C122.908 90.892 122.858 91.106 122.858 91.35C122.858 91.598 122.908 91.816 123.008 92.004C123.112 92.188 123.248 92.33 123.416 92.43C123.588 92.526 123.774 92.574 123.974 92.574C124.178 92.574 124.364 92.526 124.532 92.43C124.704 92.33 124.84 92.188 124.94 92.004C125.04 91.816 125.09 91.596 125.09 91.344ZM126.912 88.56V93H126.366V88.56H126.912ZM130.843 91.23C130.843 91.334 130.837 91.444 130.825 91.56H128.197C128.217 91.884 128.327 92.138 128.527 92.322C128.731 92.502 128.977 92.592 129.265 92.592C129.501 92.592 129.697 92.538 129.853 92.43C130.013 92.318 130.125 92.17 130.189 91.986H130.777C130.689 92.302 130.513 92.56 130.249 92.76C129.985 92.956 129.657 93.054 129.265 93.054C128.953 93.054 128.673 92.984 128.425 92.844C128.181 92.704 127.989 92.506 127.849 92.25C127.709 91.99 127.639 91.69 127.639 91.35C127.639 91.01 127.707 90.712 127.843 90.456C127.979 90.2 128.169 90.004 128.413 89.868C128.661 89.728 128.945 89.658 129.265 89.658C129.577 89.658 129.853 89.726 130.093 89.862C130.333 89.998 130.517 90.186 130.645 90.426C130.777 90.662 130.843 90.93 130.843 91.23ZM130.279 91.116C130.279 90.908 130.233 90.73 130.141 90.582C130.049 90.43 129.923 90.316 129.763 90.24C129.607 90.16 129.433 90.12 129.241 90.12C128.965 90.12 128.729 90.208 128.533 90.384C128.341 90.56 128.231 90.804 128.203 91.116H130.279ZM133.28 93L132.5 91.776L131.75 93H131.18L132.242 91.368L131.18 89.712H131.798L132.578 90.93L133.322 89.712H133.892L132.836 91.338L133.898 93H133.28ZM134.999 92.244L134.327 93.858H133.961L134.399 92.244H134.999ZM139.318 90.846C139.47 90.87 139.608 90.932 139.732 91.032C139.86 91.132 139.96 91.256 140.032 91.404C140.108 91.552 140.146 91.71 140.146 91.878C140.146 92.09 140.092 92.282 139.984 92.454C139.876 92.622 139.718 92.756 139.51 92.856C139.306 92.952 139.064 93 138.784 93H137.224V88.818H138.724C139.008 88.818 139.25 88.866 139.45 88.962C139.65 89.054 139.8 89.18 139.9 89.34C140 89.5 140.05 89.68 140.05 89.88C140.05 90.128 139.982 90.334 139.846 90.498C139.714 90.658 139.538 90.774 139.318 90.846ZM137.77 90.624H138.688C138.944 90.624 139.142 90.564 139.282 90.444C139.422 90.324 139.492 90.158 139.492 89.946C139.492 89.734 139.422 89.568 139.282 89.448C139.142 89.328 138.94 89.268 138.676 89.268H137.77V90.624ZM138.736 92.55C139.008 92.55 139.22 92.486 139.372 92.358C139.524 92.23 139.6 92.052 139.6 91.824C139.6 91.592 139.52 91.41 139.36 91.278C139.2 91.142 138.986 91.074 138.718 91.074H137.77V92.55H138.736ZM140.699 91.344C140.699 91.008 140.767 90.714 140.903 90.462C141.039 90.206 141.225 90.008 141.461 89.868C141.701 89.728 141.967 89.658 142.259 89.658C142.547 89.658 142.797 89.72 143.009 89.844C143.221 89.968 143.379 90.124 143.483 90.312V89.712H144.035V93H143.483V92.388C143.375 92.58 143.213 92.74 142.997 92.868C142.785 92.992 142.537 93.054 142.253 93.054C141.961 93.054 141.697 92.982 141.461 92.838C141.225 92.694 141.039 92.492 140.903 92.232C140.767 91.972 140.699 91.676 140.699 91.344ZM143.483 91.35C143.483 91.102 143.433 90.886 143.333 90.702C143.233 90.518 143.097 90.378 142.925 90.282C142.757 90.182 142.571 90.132 142.367 90.132C142.163 90.132 141.977 90.18 141.809 90.276C141.641 90.372 141.507 90.512 141.407 90.696C141.307 90.88 141.257 91.096 141.257 91.344C141.257 91.596 141.307 91.816 141.407 92.004C141.507 92.188 141.641 92.33 141.809 92.43C141.977 92.526 142.163 92.574 142.367 92.574C142.571 92.574 142.757 92.526 142.925 92.43C143.097 92.33 143.233 92.188 143.333 92.004C143.433 91.816 143.483 91.598 143.483 91.35ZM146.56 89.652C146.96 89.652 147.284 89.774 147.532 90.018C147.78 90.258 147.904 90.606 147.904 91.062V93H147.364V91.14C147.364 90.812 147.282 90.562 147.118 90.39C146.954 90.214 146.73 90.126 146.446 90.126C146.158 90.126 145.928 90.216 145.756 90.396C145.588 90.576 145.504 90.838 145.504 91.182V93H144.958V89.712H145.504V90.18C145.612 90.012 145.758 89.882 145.942 89.79C146.13 89.698 146.336 89.652 146.56 89.652ZM148.592 91.344C148.592 91.008 148.66 90.714 148.796 90.462C148.932 90.206 149.118 90.008 149.354 89.868C149.594 89.728 149.862 89.658 150.158 89.658C150.414 89.658 150.652 89.718 150.872 89.838C151.092 89.954 151.26 90.108 151.376 90.3V88.56H151.928V93H151.376V92.382C151.268 92.578 151.108 92.74 150.896 92.868C150.684 92.992 150.436 93.054 150.152 93.054C149.86 93.054 149.594 92.982 149.354 92.838C149.118 92.694 148.932 92.492 148.796 92.232C148.66 91.972 148.592 91.676 148.592 91.344ZM151.376 91.35C151.376 91.102 151.326 90.886 151.226 90.702C151.126 90.518 150.99 90.378 150.818 90.282C150.65 90.182 150.464 90.132 150.26 90.132C150.056 90.132 149.87 90.18 149.702 90.276C149.534 90.372 149.4 90.512 149.3 90.696C149.2 90.88 149.15 91.096 149.15 91.344C149.15 91.596 149.2 91.816 149.3 92.004C149.4 92.188 149.534 92.33 149.702 92.43C149.87 92.526 150.056 92.574 150.26 92.574C150.464 92.574 150.65 92.526 150.818 92.43C150.99 92.33 151.126 92.188 151.226 92.004C151.326 91.816 151.376 91.598 151.376 91.35ZM153.397 90.246C153.493 90.058 153.629 89.912 153.805 89.808C153.985 89.704 154.203 89.652 154.459 89.652V90.216H154.315C153.703 90.216 153.397 90.548 153.397 91.212V93H152.851V89.712H153.397V90.246ZM154.885 91.344C154.885 91.008 154.953 90.714 155.089 90.462C155.225 90.206 155.411 90.008 155.647 89.868C155.887 89.728 156.153 89.658 156.445 89.658C156.733 89.658 156.983 89.72 157.195 89.844C157.407 89.968 157.565 90.124 157.669 90.312V89.712H158.221V93H157.669V92.388C157.561 92.58 157.399 92.74 157.183 92.868C156.971 92.992 156.723 93.054 156.439 93.054C156.147 93.054 155.883 92.982 155.647 92.838C155.411 92.694 155.225 92.492 155.089 92.232C154.953 91.972 154.885 91.676 154.885 91.344ZM157.669 91.35C157.669 91.102 157.619 90.886 157.519 90.702C157.419 90.518 157.283 90.378 157.111 90.282C156.943 90.182 156.757 90.132 156.553 90.132C156.349 90.132 156.163 90.18 155.995 90.276C155.827 90.372 155.693 90.512 155.593 90.696C155.493 90.88 155.443 91.096 155.443 91.344C155.443 91.596 155.493 91.816 155.593 92.004C155.693 92.188 155.827 92.33 155.995 92.43C156.163 92.526 156.349 92.574 156.553 92.574C156.757 92.574 156.943 92.526 157.111 92.43C157.283 92.33 157.419 92.188 157.519 92.004C157.619 91.816 157.669 91.598 157.669 91.35ZM161.289 89.262V90.66H162.813V91.11H161.289V92.55H162.993V93H160.743V88.812H162.993V89.262H161.289ZM163.615 91.344C163.615 91.008 163.683 90.714 163.819 90.462C163.955 90.206 164.141 90.008 164.377 89.868C164.617 89.728 164.883 89.658 165.175 89.658C165.463 89.658 165.713 89.72 165.925 89.844C166.137 89.968 166.295 90.124 166.399 90.312V89.712H166.951V93H166.399V92.388C166.291 92.58 166.129 92.74 165.913 92.868C165.701 92.992 165.453 93.054 165.169 93.054C164.877 93.054 164.613 92.982 164.377 92.838C164.141 92.694 163.955 92.492 163.819 92.232C163.683 91.972 163.615 91.676 163.615 91.344ZM166.399 91.35C166.399 91.102 166.349 90.886 166.249 90.702C166.149 90.518 166.013 90.378 165.841 90.282C165.673 90.182 165.487 90.132 165.283 90.132C165.079 90.132 164.893 90.18 164.725 90.276C164.557 90.372 164.423 90.512 164.323 90.696C164.223 90.88 164.173 91.096 164.173 91.344C164.173 91.596 164.223 91.816 164.323 92.004C164.423 92.188 164.557 92.33 164.725 92.43C164.893 92.526 165.079 92.574 165.283 92.574C165.487 92.574 165.673 92.526 165.841 92.43C166.013 92.33 166.149 92.188 166.249 92.004C166.349 91.816 166.399 91.598 166.399 91.35ZM169.038 93.054C168.786 93.054 168.56 93.012 168.36 92.928C168.16 92.84 168.002 92.72 167.886 92.568C167.77 92.412 167.706 92.234 167.694 92.034H168.258C168.274 92.198 168.35 92.332 168.486 92.436C168.626 92.54 168.808 92.592 169.032 92.592C169.24 92.592 169.404 92.546 169.524 92.454C169.644 92.362 169.704 92.246 169.704 92.106C169.704 91.962 169.64 91.856 169.512 91.788C169.384 91.716 169.186 91.646 168.918 91.578C168.674 91.514 168.474 91.45 168.318 91.386C168.166 91.318 168.034 91.22 167.922 91.092C167.814 90.96 167.76 90.788 167.76 90.576C167.76 90.408 167.81 90.254 167.91 90.114C168.01 89.974 168.152 89.864 168.336 89.784C168.52 89.7 168.73 89.658 168.966 89.658C169.33 89.658 169.624 89.75 169.848 89.934C170.072 90.118 170.192 90.37 170.208 90.69H169.662C169.65 90.518 169.58 90.38 169.452 90.276C169.328 90.172 169.16 90.12 168.948 90.12C168.752 90.12 168.596 90.162 168.48 90.246C168.364 90.33 168.306 90.44 168.306 90.576C168.306 90.684 168.34 90.774 168.408 90.846C168.48 90.914 168.568 90.97 168.672 91.014C168.78 91.054 168.928 91.1 169.116 91.152C169.352 91.216 169.544 91.28 169.692 91.344C169.84 91.404 169.966 91.496 170.07 91.62C170.178 91.744 170.234 91.906 170.238 92.106C170.238 92.286 170.188 92.448 170.088 92.592C169.988 92.736 169.846 92.85 169.662 92.934C169.482 93.014 169.274 93.054 169.038 93.054ZM171.675 90.162V92.1C171.675 92.26 171.709 92.374 171.777 92.442C171.845 92.506 171.963 92.538 172.131 92.538H172.533V93H172.041C171.737 93 171.509 92.93 171.357 92.79C171.205 92.65 171.129 92.42 171.129 92.1V90.162H170.703V89.712H171.129V88.884H171.675V89.712H172.533V90.162H171.675ZM173.758 92.244L173.086 93.858H172.72L173.158 92.244H173.758ZM56.704 97.848V102H56.158V98.904L54.778 102H54.394L53.008 98.898V102H52.462V97.848H53.05L54.586 101.28L56.122 97.848H56.704ZM57.426 100.344C57.426 100.008 57.494 99.714 57.63 99.462C57.766 99.206 57.952 99.008 58.188 98.868C58.428 98.728 58.694 98.658 58.986 98.658C59.274 98.658 59.524 98.72 59.736 98.844C59.948 98.968 60.106 99.124 60.21 99.312V98.712H60.762V102H60.21V101.388C60.102 101.58 59.94 101.74 59.724 101.868C59.512 101.992 59.264 102.054 58.98 102.054C58.688 102.054 58.424 101.982 58.188 101.838C57.952 101.694 57.766 101.492 57.63 101.232C57.494 100.972 57.426 100.676 57.426 100.344ZM60.21 100.35C60.21 100.102 60.16 99.886 60.06 99.702C59.96 99.518 59.824 99.378 59.652 99.282C59.484 99.182 59.298 99.132 59.094 99.132C58.89 99.132 58.704 99.18 58.536 99.276C58.368 99.372 58.234 99.512 58.134 99.696C58.034 99.88 57.984 100.096 57.984 100.344C57.984 100.596 58.034 100.816 58.134 101.004C58.234 101.188 58.368 101.33 58.536 101.43C58.704 101.526 58.89 101.574 59.094 101.574C59.298 101.574 59.484 101.526 59.652 101.43C59.824 101.33 59.96 101.188 60.06 101.004C60.16 100.816 60.21 100.598 60.21 100.35ZM63.3167 98.652C63.5647 98.652 63.7887 98.706 63.9887 98.814C64.1887 98.918 64.3447 99.076 64.4567 99.288C64.5727 99.5 64.6307 99.758 64.6307 100.062V102H64.0907V100.14C64.0907 99.812 64.0087 99.562 63.8447 99.39C63.6807 99.214 63.4567 99.126 63.1727 99.126C62.8847 99.126 62.6547 99.216 62.4827 99.396C62.3147 99.576 62.2307 99.838 62.2307 100.182V102H61.6847V97.56H62.2307V99.18C62.3387 99.012 62.4867 98.882 62.6747 98.79C62.8667 98.698 63.0807 98.652 63.3167 98.652ZM65.3185 100.344C65.3185 100.008 65.3865 99.714 65.5225 99.462C65.6585 99.206 65.8445 99.008 66.0805 98.868C66.3205 98.728 66.5865 98.658 66.8785 98.658C67.1665 98.658 67.4165 98.72 67.6285 98.844C67.8405 98.968 67.9985 99.124 68.1025 99.312V98.712H68.6545V102H68.1025V101.388C67.9945 101.58 67.8325 101.74 67.6165 101.868C67.4045 101.992 67.1565 102.054 66.8725 102.054C66.5805 102.054 66.3165 101.982 66.0805 101.838C65.8445 101.694 65.6585 101.492 65.5225 101.232C65.3865 100.972 65.3185 100.676 65.3185 100.344ZM68.1025 100.35C68.1025 100.102 68.0525 99.886 67.9525 99.702C67.8525 99.518 67.7165 99.378 67.5445 99.282C67.3765 99.182 67.1905 99.132 66.9865 99.132C66.7825 99.132 66.5965 99.18 66.4285 99.276C66.2605 99.372 66.1265 99.512 66.0265 99.696C65.9265 99.88 65.8765 100.096 65.8765 100.344C65.8765 100.596 65.9265 100.816 66.0265 101.004C66.1265 101.188 66.2605 101.33 66.4285 101.43C66.5965 101.526 66.7825 101.574 66.9865 101.574C67.1905 101.574 67.3765 101.526 67.5445 101.43C67.7165 101.33 67.8525 101.188 67.9525 101.004C68.0525 100.816 68.1025 100.598 68.1025 100.35ZM70.1232 99.246C70.2192 99.058 70.3552 98.912 70.5312 98.808C70.7112 98.704 70.9292 98.652 71.1852 98.652V99.216H71.0412C70.4292 99.216 70.1232 99.548 70.1232 100.212V102H69.5772V98.712H70.1232V99.246ZM71.6115 100.344C71.6115 100.008 71.6795 99.714 71.8155 99.462C71.9515 99.206 72.1375 99.008 72.3735 98.868C72.6135 98.728 72.8795 98.658 73.1715 98.658C73.4595 98.658 73.7095 98.72 73.9215 98.844C74.1335 98.968 74.2915 99.124 74.3955 99.312V98.712H74.9475V102H74.3955V101.388C74.2875 101.58 74.1255 101.74 73.9095 101.868C73.6975 101.992 73.4495 102.054 73.1655 102.054C72.8735 102.054 72.6095 101.982 72.3735 101.838C72.1375 101.694 71.9515 101.492 71.8155 101.232C71.6795 100.972 71.6115 100.676 71.6115 100.344ZM74.3955 100.35C74.3955 100.102 74.3455 99.886 74.2455 99.702C74.1455 99.518 74.0095 99.378 73.8375 99.282C73.6695 99.182 73.4835 99.132 73.2795 99.132C73.0755 99.132 72.8895 99.18 72.7215 99.276C72.5535 99.372 72.4195 99.512 72.3195 99.696C72.2195 99.88 72.1695 100.096 72.1695 100.344C72.1695 100.596 72.2195 100.816 72.3195 101.004C72.4195 101.188 72.5535 101.33 72.7215 101.43C72.8895 101.526 73.0755 101.574 73.2795 101.574C73.4835 101.574 73.6695 101.526 73.8375 101.43C74.0095 101.33 74.1455 101.188 74.2455 101.004C74.3455 100.816 74.3955 100.598 74.3955 100.35ZM77.0342 102.054C76.7822 102.054 76.5562 102.012 76.3562 101.928C76.1562 101.84 75.9982 101.72 75.8822 101.568C75.7662 101.412 75.7022 101.234 75.6902 101.034H76.2542C76.2702 101.198 76.3462 101.332 76.4822 101.436C76.6222 101.54 76.8042 101.592 77.0282 101.592C77.2362 101.592 77.4002 101.546 77.5202 101.454C77.6402 101.362 77.7002 101.246 77.7002 101.106C77.7002 100.962 77.6362 100.856 77.5082 100.788C77.3802 100.716 77.1822 100.646 76.9142 100.578C76.6702 100.514 76.4702 100.45 76.3142 100.386C76.1622 100.318 76.0302 100.22 75.9182 100.092C75.8102 99.96 75.7562 99.788 75.7562 99.576C75.7562 99.408 75.8062 99.254 75.9062 99.114C76.0062 98.974 76.1482 98.864 76.3322 98.784C76.5162 98.7 76.7262 98.658 76.9622 98.658C77.3262 98.658 77.6202 98.75 77.8442 98.934C78.0682 99.118 78.1882 99.37 78.2042 99.69H77.6582C77.6462 99.518 77.5762 99.38 77.4482 99.276C77.3242 99.172 77.1562 99.12 76.9442 99.12C76.7482 99.12 76.5922 99.162 76.4762 99.246C76.3602 99.33 76.3022 99.44 76.3022 99.576C76.3022 99.684 76.3362 99.774 76.4042 99.846C76.4762 99.914 76.5642 99.97 76.6682 100.014C76.7762 100.054 76.9242 100.1 77.1122 100.152C77.3482 100.216 77.5402 100.28 77.6882 100.344C77.8362 100.404 77.9622 100.496 78.0662 100.62C78.1742 100.744 78.2302 100.906 78.2342 101.106C78.2342 101.286 78.1842 101.448 78.0842 101.592C77.9842 101.736 77.8422 101.85 77.6582 101.934C77.4782 102.014 77.2702 102.054 77.0342 102.054ZM80.637 98.652C80.885 98.652 81.109 98.706 81.309 98.814C81.509 98.918 81.665 99.076 81.777 99.288C81.893 99.5 81.951 99.758 81.951 100.062V102H81.411V100.14C81.411 99.812 81.329 99.562 81.165 99.39C81.001 99.214 80.777 99.126 80.493 99.126C80.205 99.126 79.975 99.216 79.803 99.396C79.635 99.576 79.551 99.838 79.551 100.182V102H79.005V97.56H79.551V99.18C79.659 99.012 79.807 98.882 79.995 98.79C80.187 98.698 80.401 98.652 80.637 98.652ZM83.5089 99.162V101.1C83.5089 101.26 83.5429 101.374 83.6109 101.442C83.6789 101.506 83.7969 101.538 83.9649 101.538H84.3669V102H83.8749C83.5709 102 83.3429 101.93 83.1909 101.79C83.0389 101.65 82.9629 101.42 82.9629 101.1V99.162H82.5369V98.712H82.9629V97.884H83.5089V98.712H84.3669V99.162H83.5089ZM85.5744 99.246C85.6704 99.058 85.8064 98.912 85.9824 98.808C86.1624 98.704 86.3804 98.652 86.6364 98.652V99.216H86.4924C85.8804 99.216 85.5744 99.548 85.5744 100.212V102H85.0284V98.712H85.5744V99.246ZM87.0627 100.344C87.0627 100.008 87.1307 99.714 87.2667 99.462C87.4027 99.206 87.5887 99.008 87.8247 98.868C88.0647 98.728 88.3307 98.658 88.6227 98.658C88.9107 98.658 89.1607 98.72 89.3727 98.844C89.5847 98.968 89.7427 99.124 89.8467 99.312V98.712H90.3987V102H89.8467V101.388C89.7387 101.58 89.5767 101.74 89.3607 101.868C89.1487 101.992 88.9007 102.054 88.6167 102.054C88.3247 102.054 88.0607 101.982 87.8247 101.838C87.5887 101.694 87.4027 101.492 87.2667 101.232C87.1307 100.972 87.0627 100.676 87.0627 100.344ZM89.8467 100.35C89.8467 100.102 89.7967 99.886 89.6967 99.702C89.5967 99.518 89.4607 99.378 89.2887 99.282C89.1207 99.182 88.9347 99.132 88.7307 99.132C88.5267 99.132 88.3407 99.18 88.1727 99.276C88.0047 99.372 87.8707 99.512 87.7707 99.696C87.6707 99.88 87.6207 100.096 87.6207 100.344C87.6207 100.596 87.6707 100.816 87.7707 101.004C87.8707 101.188 88.0047 101.33 88.1727 101.43C88.3407 101.526 88.5267 101.574 88.7307 101.574C88.9347 101.574 89.1207 101.526 89.2887 101.43C89.4607 101.33 89.5967 101.188 89.6967 101.004C89.7967 100.816 89.8467 100.598 89.8467 100.35Z" fill="black"/>
</g>
<g id="building (2) 1">
<path id="Vector_13" d="M54.9219 72.25H59.7031V81.0156H54.9219V72.25Z" fill="#396795"/>
<g id="Group_6">
<path id="Vector_14" d="M55.7188 73.0469H56.7812V74.1094H55.7188V73.0469Z" fill="#8ACCE7"/>
<path id="Vector_15" d="M57.8438 73.0469H58.9062V74.1094H57.8438V73.0469Z" fill="#8ACCE7"/>
<path id="Vector_16" d="M55.7188 75.1719H56.7812V76.2344H55.7188V75.1719Z" fill="#8ACCE7"/>
<path id="Vector_17" d="M57.8438 75.1719H58.9062V76.2344H57.8438V75.1719Z" fill="#8ACCE7"/>
<path id="Vector_18" d="M55.7188 77.2969H56.7812V78.3594H55.7188V77.2969Z" fill="#8ACCE7"/>
<path id="Vector_19" d="M55.7188 79.4219H56.7812V80.4844H55.7188V79.4219Z" fill="#8ACCE7"/>
</g>
<path id="Vector_20" d="M59.7031 71.4531H54.9219C54.7752 71.4531 54.6562 71.572 54.6562 71.7188V71.9844C54.6562 72.1311 54.7752 72.25 54.9219 72.25H59.7031C59.8498 72.25 59.9688 72.1311 59.9688 71.9844V71.7188C59.9688 71.572 59.8498 71.4531 59.7031 71.4531Z" fill="#C4D4E0"/>
<path id="Vector_21" d="M55.9844 70.125H58.6406C58.7815 70.125 58.9166 70.181 59.0163 70.2806C59.1159 70.3802 59.1719 70.5154 59.1719 70.6562V71.4531H55.4531V70.6562C55.4531 70.5154 55.5091 70.3802 55.6087 70.2806C55.7084 70.181 55.8435 70.125 55.9844 70.125V70.125Z" fill="#396795"/>
<path id="Vector_22" d="M57.8438 77.0312H64.2188V84.2031H57.8438V77.0312Z" fill="#EEBE33"/>
<path id="Vector_23" d="M58.9062 80.6836V84.2031H57.8438V80.2188H58.4414C58.5646 80.2189 58.6828 80.2679 58.77 80.355C58.8571 80.4422 58.9061 80.5604 58.9062 80.6836V80.6836Z" fill="#E88604"/>
<g id="Group_7">
<path id="Vector_24" d="M58.6406 78.3594H59.7031V79.4219H58.6406V78.3594Z" fill="#8ACCE7"/>
<path id="Vector_25" d="M60.5 78.3594H61.5625V79.4219H60.5V78.3594Z" fill="#8ACCE7"/>
<path id="Vector_26" d="M62.3594 78.3594H63.4219V79.4219H62.3594V78.3594Z" fill="#8ACCE7"/>
<path id="Vector_27" d="M58.6406 80.75H59.7031V81.8125H58.6406V80.75Z" fill="#8ACCE7"/>
<path id="Vector_28" d="M60.5 80.75H61.5625V81.8125H60.5V80.75Z" fill="#8ACCE7"/>
<path id="Vector_29" d="M62.3594 80.75H63.4219V81.8125H62.3594V80.75Z" fill="#8ACCE7"/>
</g>
<path id="Vector_30" d="M58.6406 80.75H58.9062V81.8125H58.6406V80.75Z" fill="#379EC3"/>
<path id="Vector_31" d="M64.2188 78.8906H67.1406V84.2031H64.2188V78.8906Z" fill="#396795"/>
<path id="Vector_32" d="M65.2812 79.6875H66.3438V80.75H65.2812V79.6875Z" fill="#8ACCE7"/>
<path id="Vector_33" d="M65.2812 81.5469H66.3438V82.6094H65.2812V81.5469Z" fill="#8ACCE7"/>
<path id="Vector_34" d="M53.5273 80.4844H58.4414C58.4942 80.4844 58.5449 80.5054 58.5823 80.5427C58.6196 80.5801 58.6406 80.6308 58.6406 80.6836V84.2031H53.3281V80.6836C53.3281 80.6308 53.3491 80.5801 53.3865 80.5427C53.4238 80.5054 53.4745 80.4844 53.5273 80.4844Z" fill="#EEDC9A"/>
<path id="Vector_35" d="M54.3906 83.1406H55.4531V84.2031H54.3906V83.1406Z" fill="#8ACCE7"/>
<path id="Vector_36" d="M53.3281 81.2812H58.6406V82.3438H53.3281V81.2812Z" fill="#8ACCE7"/>
<path id="Vector_37" d="M54.125 81.2812H54.6562V82.3438H54.125V81.2812Z" fill="#379EC3"/>
<path id="Vector_38" d="M55.1875 81.2812H55.7188V82.3438H55.1875V81.2812Z" fill="#379EC3"/>
<path id="Vector_39" d="M56.25 81.2812H56.7812V82.3438H56.25V81.2812Z" fill="#379EC3"/>
<path id="Vector_40" d="M57.3125 81.2812H57.8438V82.3438H57.3125V81.2812Z" fill="#379EC3"/>
<path id="Vector_41" d="M60.5 82.6094H61.5625V84.2031H60.5V82.6094Z" fill="#8ACCE7"/>
<path id="Vector_42" d="M52.5312 83.9375H68.4688V84.4688H52.5312V83.9375Z" fill="#395166"/>
<path id="Vector_43" d="M68.2031 71.7188C68.2031 70.9438 67.8953 70.2006 67.3473 69.6527C66.7994 69.1047 66.0562 68.7969 65.2812 68.7969C64.5063 68.7969 63.7631 69.1047 63.2152 69.6527C62.6672 70.2006 62.3594 70.9438 62.3594 71.7188C62.3594 73.3325 65.2812 76.7656 65.2812 76.7656C65.2812 76.7656 68.2031 73.3325 68.2031 71.7188Z" fill="#E44B4D"/>
<path id="Vector_44" d="M65.2812 73.5781C66.3082 73.5781 67.1406 72.7457 67.1406 71.7188C67.1406 70.6918 66.3082 69.8594 65.2812 69.8594C64.2543 69.8594 63.4219 70.6918 63.4219 71.7188C63.4219 72.7457 64.2543 73.5781 65.2812 73.5781Z" fill="#8ACCE7"/>
</g>
</g>
<defs>
<clipPath id="clip0">
<rect width="50" height="31.746" fill="white" transform="translate(107 36)"/>
</clipPath>
<clipPath id="clip1">
<rect width="50" height="31.746" fill="white" transform="translate(50 36)"/>
</clipPath>
</defs>
</svg>
