<svg width="200" height="123" viewBox="0 0 200 123" fill="none" xmlns="http://www.w3.org/2000/svg">
<g id="hotel">
<g id="KEY">
<g id="Group">
<path id="Vector" d="M38.0662 40.6742C31.2078 35.6313 28.147 26.5722 31.168 18.2899C34.8466 8.2048 46.1658 3.03714 56.4005 6.77029C66.6351 10.5034 71.9689 21.7454 68.2903 31.8304C65.2693 40.1127 57.0946 45.0736 48.6 44.5165L43.1715 59.3991L35.0114 63.5302L32.638 55.5569L38.0665 40.6743L38.0662 40.6742ZM57.7565 27.9882C59.3474 23.6266 57.0406 18.7647 52.6144 17.1502C48.1881 15.5357 43.2927 17.7706 41.7018 22.1321C40.1109 26.4937 42.4177 31.3556 46.8439 32.9701C51.2701 34.585 56.1654 32.3501 57.7565 27.9882V27.9882Z" fill="#FAB91E"/>
</g>
<path id="Vector_2" d="M32.6377 55.5571L43.1712 59.3993L35.1858 81.2915L48 85.9656L44.214 96.3451L31.3998 91.6711L27.6137 102.051L40.4279 106.725L36.6419 117.105L13.2942 108.588L32.6377 55.5571Z" fill="#FF9A2B"/>
</g>
<g id="Group_2">
<g id="Group_3">
<g id="Group_4">
<path id="Vector_3" d="M44.9348 63.4147V122.324H122.467L135.896 92.5523L122.467 54.9168L121.785 54.842L44.9348 63.4147Z" fill="#78E7C0"/>
<path id="Vector_4" d="M44.9351 19.6711V38.6465L122.468 46.7705L132.977 30.7564L122.468 19.6711H44.9351Z" fill="#78E7C0"/>
<path id="Vector_5" d="M200 38.6465V19.6711H122.467V46.7705L122.88 46.8136L200 38.6465Z" fill="#00D4B8"/>
</g>
<path id="Vector_6" d="M200 122.324V63.4146L122.467 54.9167V122.324H200Z" fill="#00D4B8"/>
<g id="Group_5">
<path id="Vector_7" d="M44.9348 38.6462V63.4146H122.467L132.977 49.733L122.467 38.6462H44.9348Z" fill="#7194A4"/>
</g>
<path id="Vector_8" d="M122.467 38.6462H200V63.4146H122.467V38.6462Z" fill="#5E808A"/>
</g>
</g>
<g id="tag 2" clip-path="url(#clip0)">
<path id="Vector_9" d="M152.166 43.885H119.727C119.272 43.8848 118.839 44.0093 118.538 44.2268L108.868 51.2439C108.346 51.6219 108.346 52.187 108.868 52.5651L118.538 59.5822C118.838 59.7997 119.272 59.9242 119.727 59.9239H152.166C153.91 59.9239 155.324 59.0263 155.324 57.919V45.89C155.324 44.7826 153.91 43.885 152.166 43.885Z" fill="#78E7C0"/>
<circle id="Ellipse 2" cx="120" cy="52" r="2" fill="#00D4B8"/>
<path id="Vector_10" d="M152.166 60.9262H119.727C118.816 60.9265 117.949 60.6767 117.349 60.2415L107.679 53.2244C106.643 52.467 106.643 51.3415 107.679 50.5841L117.349 43.567C117.949 43.1318 118.816 42.8821 119.727 42.8823H152.166C154.782 42.8823 156.902 44.2287 156.902 45.8895V57.9188C156.902 59.5798 154.782 60.9262 152.166 60.9262V60.9262ZM119.727 44.8873L110.057 51.9044L119.727 58.9213H152.166C153.038 58.9213 153.745 58.4725 153.745 57.9188V45.8898C153.745 45.3361 153.038 44.8873 152.166 44.8873H119.727Z" fill="#00D4B8"/>
<path id="New York" d="M128.567 54H128.021L125.825 50.67V54H125.279V49.812H125.825L128.021 53.136V49.812H128.567V54ZM132.497 52.23C132.497 52.334 132.491 52.444 132.479 52.56H129.851C129.871 52.884 129.981 53.138 130.181 53.322C130.385 53.502 130.631 53.592 130.919 53.592C131.155 53.592 131.351 53.538 131.507 53.43C131.667 53.318 131.779 53.17 131.843 52.986H132.431C132.343 53.302 132.167 53.56 131.903 53.76C131.639 53.956 131.311 54.054 130.919 54.054C130.607 54.054 130.327 53.984 130.079 53.844C129.835 53.704 129.643 53.506 129.503 53.25C129.363 52.99 129.293 52.69 129.293 52.35C129.293 52.01 129.361 51.712 129.497 51.456C129.633 51.2 129.823 51.004 130.067 50.868C130.315 50.728 130.599 50.658 130.919 50.658C131.231 50.658 131.507 50.726 131.747 50.862C131.987 50.998 132.171 51.186 132.299 51.426C132.431 51.662 132.497 51.93 132.497 52.23ZM131.933 52.116C131.933 51.908 131.887 51.73 131.795 51.582C131.703 51.43 131.577 51.316 131.417 51.24C131.261 51.16 131.087 51.12 130.895 51.12C130.619 51.12 130.383 51.208 130.187 51.384C129.995 51.56 129.885 51.804 129.857 52.116H131.933ZM137.598 50.712L136.572 54H136.008L135.216 51.39L134.424 54H133.86L132.828 50.712H133.386L134.142 53.472L134.958 50.712H135.516L136.314 53.478L137.058 50.712H137.598ZM142.668 49.818L141.306 52.422V54H140.76V52.422L139.392 49.818H139.998L141.03 51.936L142.062 49.818H142.668ZM144.677 54.054C144.369 54.054 144.089 53.984 143.837 53.844C143.589 53.704 143.393 53.506 143.249 53.25C143.109 52.99 143.039 52.69 143.039 52.35C143.039 52.014 143.111 51.718 143.255 51.462C143.403 51.202 143.603 51.004 143.855 50.868C144.107 50.728 144.389 50.658 144.701 50.658C145.013 50.658 145.295 50.728 145.547 50.868C145.799 51.004 145.997 51.2 146.141 51.456C146.289 51.712 146.363 52.01 146.363 52.35C146.363 52.69 146.287 52.99 146.135 53.25C145.987 53.506 145.785 53.704 145.529 53.844C145.273 53.984 144.989 54.054 144.677 54.054ZM144.677 53.574C144.873 53.574 145.057 53.528 145.229 53.436C145.401 53.344 145.539 53.206 145.643 53.022C145.751 52.838 145.805 52.614 145.805 52.35C145.805 52.086 145.753 51.862 145.649 51.678C145.545 51.494 145.409 51.358 145.241 51.27C145.073 51.178 144.891 51.132 144.695 51.132C144.495 51.132 144.311 51.178 144.143 51.27C143.979 51.358 143.847 51.494 143.747 51.678C143.647 51.862 143.597 52.086 143.597 52.35C143.597 52.618 143.645 52.844 143.741 53.028C143.841 53.212 143.973 53.35 144.137 53.442C144.301 53.53 144.481 53.574 144.677 53.574ZM147.627 51.246C147.723 51.058 147.859 50.912 148.035 50.808C148.215 50.704 148.433 50.652 148.689 50.652V51.216H148.545C147.933 51.216 147.627 51.548 147.627 52.212V54H147.081V50.712H147.627V51.246ZM151.156 54L149.866 52.548V54H149.32V49.56H149.866V52.17L151.132 50.712H151.894L150.346 52.35L151.9 54H151.156Z" fill="black"/>
</g>
<g id="tag 3" clip-path="url(#clip1)">
<path id="Vector_11" d="M95.1662 43.885H62.7271C62.272 43.8848 61.8387 44.0093 61.5385 44.2268L51.8682 51.2439C51.3463 51.6219 51.3463 52.187 51.8682 52.5651L61.5385 59.5822C61.8383 59.7997 62.2716 59.9242 62.7271 59.9239H95.1662C96.9099 59.9239 98.3236 59.0263 98.3236 57.919V45.89C98.3236 44.7826 96.9099 43.885 95.1662 43.885Z" fill="#78E7C0"/>
<path id="Vector_12" d="M95.1661 60.9262H62.7271C61.8161 60.9265 60.9494 60.6767 60.3494 60.2415L50.6791 53.2244C49.6434 52.467 49.6434 51.3415 50.6791 50.5841L60.3494 43.567C60.9494 43.1318 61.8161 42.8821 62.7271 42.8823H95.1661C97.7819 42.8823 99.9025 44.2287 99.9025 45.8895V57.9188C99.9025 59.5798 97.7819 60.9262 95.1661 60.9262V60.9262ZM62.7271 44.8873L53.0568 51.9044L62.7271 58.9213H95.1661C96.0378 58.9213 96.745 58.4725 96.745 57.9188V45.8898C96.745 45.3361 96.0378 44.8873 95.1661 44.8873H62.7271Z" fill="#00D4B8"/>
<path id="Hotels" d="M70.8817 49.2638V54.1428H70.2447V51.9308H67.7597V54.1428H67.1227V49.2638H67.7597V51.4058H70.2447V49.2638H70.8817ZM73.6424 54.2058C73.283 54.2058 72.9564 54.1242 72.6624 53.9608C72.373 53.7975 72.1444 53.5665 71.9764 53.2678C71.813 52.9645 71.7314 52.6145 71.7314 52.2178C71.7314 51.8258 71.8154 51.4805 71.9834 51.1818C72.156 50.8785 72.3894 50.6475 72.6834 50.4888C72.9774 50.3255 73.3064 50.2438 73.6704 50.2438C74.0344 50.2438 74.3634 50.3255 74.6574 50.4888C74.9514 50.6475 75.1824 50.8762 75.3504 51.1748C75.523 51.4735 75.6094 51.8212 75.6094 52.2178C75.6094 52.6145 75.5207 52.9645 75.3434 53.2678C75.1707 53.5665 74.935 53.7975 74.6364 53.9608C74.3377 54.1242 74.0064 54.2058 73.6424 54.2058ZM73.6424 53.6458C73.871 53.6458 74.0857 53.5922 74.2864 53.4848C74.487 53.3775 74.648 53.2165 74.7694 53.0018C74.8954 52.7872 74.9584 52.5258 74.9584 52.2178C74.9584 51.9098 74.8977 51.6485 74.7764 51.4338C74.655 51.2192 74.4964 51.0605 74.3004 50.9578C74.1044 50.8505 73.892 50.7968 73.6634 50.7968C73.43 50.7968 73.2154 50.8505 73.0194 50.9578C72.828 51.0605 72.674 51.2192 72.5574 51.4338C72.4407 51.6485 72.3824 51.9098 72.3824 52.2178C72.3824 52.5305 72.4384 52.7942 72.5504 53.0088C72.667 53.2235 72.821 53.3845 73.0124 53.4918C73.2037 53.5945 73.4137 53.6458 73.6424 53.6458ZM77.2239 50.8318V53.0928C77.2239 53.2795 77.2636 53.4125 77.3429 53.4918C77.4222 53.5665 77.5599 53.6038 77.7559 53.6038H78.2249V54.1428H77.6509C77.2962 54.1428 77.0302 54.0612 76.8529 53.8978C76.6756 53.7345 76.5869 53.4662 76.5869 53.0928V50.8318H76.0899V50.3068H76.5869V49.3408H77.2239V50.3068H78.2249V50.8318H77.2239ZM82.4967 52.0778C82.4967 52.1992 82.4897 52.3275 82.4757 52.4628H79.4097C79.433 52.8408 79.5614 53.1372 79.7947 53.3518C80.0327 53.5618 80.3197 53.6668 80.6557 53.6668C80.931 53.6668 81.1597 53.6038 81.3417 53.4778C81.5284 53.3472 81.659 53.1745 81.7337 52.9598H82.4197C82.317 53.3285 82.1117 53.6295 81.8037 53.8628C81.4957 54.0915 81.113 54.2058 80.6557 54.2058C80.2917 54.2058 79.965 54.1242 79.6757 53.9608C79.391 53.7975 79.167 53.5665 79.0037 53.2678C78.8404 52.9645 78.7587 52.6145 78.7587 52.2178C78.7587 51.8212 78.838 51.4735 78.9967 51.1748C79.1554 50.8762 79.377 50.6475 79.6617 50.4888C79.951 50.3255 80.2824 50.2438 80.6557 50.2438C81.0197 50.2438 81.3417 50.3232 81.6217 50.4818C81.9017 50.6405 82.1164 50.8598 82.2657 51.1398C82.4197 51.4152 82.4967 51.7278 82.4967 52.0778ZM81.8387 51.9448C81.8387 51.7022 81.785 51.4945 81.6777 51.3218C81.5704 51.1445 81.4234 51.0115 81.2367 50.9228C81.0547 50.8295 80.8517 50.7828 80.6277 50.7828C80.3057 50.7828 80.0304 50.8855 79.8017 51.0908C79.5777 51.2962 79.4494 51.5808 79.4167 51.9448H81.8387ZM83.9745 48.9628V54.1428H83.3375V48.9628H83.9745ZM86.4182 54.2058C86.1242 54.2058 85.8605 54.1568 85.6272 54.0588C85.3939 53.9562 85.2095 53.8162 85.0742 53.6388C84.9389 53.4568 84.8642 53.2492 84.8502 53.0158H85.5082C85.5269 53.2072 85.6155 53.3635 85.7742 53.4848C85.9375 53.6062 86.1499 53.6668 86.4112 53.6668C86.6539 53.6668 86.8452 53.6132 86.9852 53.5058C87.1252 53.3985 87.1952 53.2632 87.1952 53.0998C87.1952 52.9318 87.1205 52.8082 86.9712 52.7288C86.8219 52.6448 86.5909 52.5632 86.2782 52.4838C85.9935 52.4092 85.7602 52.3345 85.5782 52.2598C85.4009 52.1805 85.2469 52.0662 85.1162 51.9168C84.9902 51.7628 84.9272 51.5622 84.9272 51.3148C84.9272 51.1188 84.9855 50.9392 85.1022 50.7758C85.2189 50.6125 85.3845 50.4842 85.5992 50.3908C85.8139 50.2928 86.0589 50.2438 86.3342 50.2438C86.7589 50.2438 87.1019 50.3512 87.3632 50.5658C87.6245 50.7805 87.7645 51.0745 87.7832 51.4478H87.1462C87.1322 51.2472 87.0505 51.0862 86.9012 50.9648C86.7565 50.8435 86.5605 50.7828 86.3132 50.7828C86.0845 50.7828 85.9025 50.8318 85.7672 50.9298C85.6319 51.0278 85.5642 51.1562 85.5642 51.3148C85.5642 51.4408 85.6039 51.5458 85.6832 51.6298C85.7672 51.7092 85.8699 51.7745 85.9912 51.8258C86.1172 51.8725 86.2899 51.9262 86.5092 51.9868C86.7845 52.0615 87.0085 52.1362 87.1812 52.2108C87.3539 52.2808 87.5009 52.3882 87.6222 52.5328C87.7482 52.6775 87.8135 52.8665 87.8182 53.0998C87.8182 53.3098 87.7599 53.4988 87.6432 53.6668C87.5265 53.8348 87.3609 53.9678 87.1462 54.0658C86.9362 54.1592 86.6935 54.2058 86.4182 54.2058Z" fill="black"/>
<circle id="Ellipse 2_2" cx="62" cy="52" r="2" fill="#00D4B8"/>
</g>
</g>
<defs>
<clipPath id="clip0">
<rect width="50" height="31.746" fill="white" transform="translate(107 36)"/>
</clipPath>
<clipPath id="clip1">
<rect width="50" height="31.746" fill="white" transform="translate(50 36)"/>
</clipPath>
</defs>
</svg>
