<svg width="1631" height="246" viewBox="0 0 1631 246" fill="none" xmlns="http://www.w3.org/2000/svg">
<g id="line">
<path id="Vector" d="M1307.64 177.682C1298.44 176.724 1292.3 174.998 1288.27 172.121C1277.34 164.45 1271.59 144.121 1277.15 133.382C1283.48 121.3 1293.84 115.355 1311.48 113.821C1316.27 113.245 1317.43 112.095 1318.96 106.533C1323.56 88.1225 1344.66 75.4652 1363.64 79.6843C1369.97 81.2186 1370.55 80.835 1373.81 74.1228C1382.05 58.2053 1396.82 49 1414.27 49C1427.51 49 1438.05 53.7944 1447.07 63.5751C1453.2 70.479 1454.35 71.0544 1459.53 69.7119C1467.39 67.4106 1483.89 69.5202 1493.67 74.1228C1533.56 92.917 1535.86 148.532 1497.7 170.778C1491.94 174.23 1484.65 176.34 1473.53 177.491C1455.89 179.6 1329.32 179.6 1307.64 177.682Z" fill="#FEFEFE"/>
<path id="Vector_2" d="M622.239 179.55C613.208 177.783 602.017 170.715 596.912 163.647C593.378 158.739 592.2 158.15 586.899 159.72C579.439 161.88 562.75 158.935 555.879 154.419C538.209 143.032 530.748 116.92 539.976 99.054C546.455 85.8998 562.554 75.4942 576.101 75.1015C581.598 75.1015 582.776 73.9236 588.077 63.1253C595.145 48.5968 604.962 40.9399 620.472 37.6023C634.411 34.8536 643.443 36.6206 655.615 44.6702L665.432 51.3455L670.34 45.6519C681.334 33.4793 698.415 28.3747 715.889 32.3013C732.381 36.0316 744.553 48.0078 749.265 65.0887C752.406 76.2795 753.388 77.8502 759.671 80.4025C791.084 93.5567 795.403 138.124 767.131 157.168C756.137 164.432 742.786 167.181 731.399 164.04C725.313 162.469 722.957 162.469 720.601 164.629C708.625 174.838 688.991 176.801 671.518 169.341L661.112 164.825L657.578 169.341C654.044 173.66 636.767 181.513 631.663 181.12C630.485 180.924 626.165 180.335 622.239 179.55Z" fill="#2798D2"/>
<path id="Vector_3" d="M402.212 178.277C391.36 176.268 386.135 173.454 377.293 165.215L370.259 158.181L362.422 161.597C350.364 166.621 333.484 164.612 322.632 157.176C318.01 153.961 312.383 148.334 310.173 144.918C306.354 139.09 305.551 138.688 296.909 139.693C288.67 140.698 286.861 140.095 280.833 134.669C275.005 129.444 274 127.233 274 119.597C274 108.946 279.828 101.109 289.273 99.0992C294.297 97.8934 295.101 96.8886 295.101 90.8599C295.101 69.7592 321.828 47.6537 344.135 50.2661C349.159 50.869 350.164 49.8642 353.781 39.8163C360.011 23.5386 377.092 7.05993 392.566 2.43787C407.035 -1.58131 425.121 -0.576516 437.983 5.05034C455.667 13.0887 470.337 33.9884 472.95 55.0892L474.155 65.3381L483.198 65.74C499.275 66.3429 514.749 77.1947 520.979 92.4676C525.199 102.516 524.998 119.396 520.376 129.243C511.132 149.54 485.208 159.99 464.911 151.55C461.093 149.942 457.878 149.339 457.878 150.143C457.878 151.148 454.26 155.971 449.839 160.995C436.978 175.464 420.097 181.492 402.212 178.277Z" fill="#FEFEFE"/>
<path id="Vector_4" d="M415.873 226.71C408.182 223.16 398.123 211.721 395.362 203.241C393.982 198.902 390.629 195.352 385.501 192.393C359.073 177.207 368.342 134.41 398.912 131.057C408.576 130.071 410.943 128.296 410.943 121.393C410.943 118.829 414.098 113.504 417.846 109.165C425.735 100.487 438.357 95.951 449.007 97.9232C455.318 99.1066 455.91 98.7121 457.29 93.7815C459.065 86.0898 468.729 73.6647 476.224 69.1286C484.31 64.198 500.877 62.423 510.344 65.5785C524.346 70.1147 535.588 83.7231 538.152 99.3038C538.744 103.051 541.111 107.39 543.674 108.968C546.041 110.546 549.986 114.096 552.352 116.462C556.691 121.196 556.691 121.196 566.947 117.843C592.783 109.165 620 128.69 620 156.104C620 161.429 619.211 168.135 618.028 170.896C615.267 178.391 603.039 191.013 595.741 193.971C592.389 195.352 586.669 198.507 583.119 201.071C579.766 203.635 573.652 206.199 569.314 206.988C565.172 207.58 558.269 209.749 553.733 211.721C543.083 216.652 526.516 216.652 516.458 211.524C507.188 206.791 497.13 206.396 493.58 210.735C488.649 216.652 479.577 219.808 470.307 218.821C462.813 218.032 460.446 218.624 454.727 222.963C449.204 227.105 445.26 228.288 434.807 228.683C426.918 229.077 419.423 228.288 415.873 226.71Z" fill="#AEE4FF"/>
<path id="Vector_5" d="M296.229 218.264C290.044 216.408 278.291 205.274 276.435 199.707C275.816 197.851 273.136 198.47 266.538 201.769C259.734 205.274 255.197 206.099 247.775 205.48C237.053 204.449 224.475 196.614 222.207 189.397C221.176 186.098 219.114 185.274 212.104 185.274C195.815 185.274 182 171.047 182 154.139C182 148.778 183.856 144.654 189.217 138.469C196.639 129.602 204.475 126.51 216.228 127.334C222.001 127.747 222.826 127.128 224.888 119.499C229.424 104.653 247.568 92.9006 262.002 95.7873C267.156 96.8182 268.187 95.7873 273.548 85.0654C278.703 75.1683 281.384 72.694 290.044 68.5702C316.023 56.405 342.003 69.3949 347.983 97.2306C349.014 101.973 350.045 102.798 356.437 102.798C365.303 102.798 375.612 106.922 380.561 112.695C383.86 116.2 386.128 116.612 396.231 115.788C406.128 114.757 409.84 115.375 416.438 119.293C439.119 131.87 436.438 166.717 412.108 175.995C406.953 178.057 400.561 179.088 397.675 178.676C393.345 177.851 392.52 178.469 391.489 185.48C389.221 199.707 374.375 212.078 359.736 212.078C356.437 212.078 349.632 209.81 344.271 207.336C337.467 203.831 334.581 203.212 333.756 205.068C331.9 210.016 318.704 218.058 310.869 219.089C306.333 219.707 299.734 219.295 296.229 218.264Z" fill="#2798D2"/>
<path id="Vector_6" d="M76.0825 161.284C64.3868 155.95 57 144.459 57 131.737C57 107.115 80.1862 90.0843 101.936 98.9074C105.629 100.344 109.323 101.575 110.144 101.575C110.964 101.575 112.606 97.2659 114.042 91.931C117.941 77.9783 132.509 63.8203 146.257 60.9477C157.952 58.4854 171.29 60.3321 178.882 65.4618C184.011 68.7448 184.216 68.7448 188.115 60.9477C201.452 34.8888 234.282 27.9124 256.648 46.3793C267.933 55.818 273.063 67.1033 272.857 82.6976C272.857 93.9829 273.268 95.4192 276.756 95.4192C286.4 95.4192 296.659 103.216 302.405 115.117C307.739 125.787 307.945 127.429 305.482 136.046C302.199 148.768 296.659 155.95 286.195 160.874C277.577 164.978 274.499 165.183 180.933 165.183C91.0612 165.183 84.0848 164.773 76.0825 161.284Z" fill="#FEFEFE"/>
<path id="Vector_7" d="M132.498 222.815C127.919 220.942 120.634 215.946 116.471 211.367L108.562 203.042L99.8202 208.037C83.3772 217.403 62.147 214.281 49.2423 200.752C45.4958 196.798 41.1249 194.508 37.5865 194.508C24.6818 194.508 7.40626 181.603 2.20277 168.074C-5.49839 147.677 7.82254 121.659 29.2609 115.207C35.7132 113.334 37.5865 111.669 38.6272 106.673C40.2923 98.5558 50.9074 88.7732 59.0249 87.9406C64.6447 87.3162 65.8935 86.0674 68.183 78.1581C77.5493 46.3127 122.507 41.1092 140.199 69.8325C143.321 74.8278 146.235 81.6965 146.444 84.8185C146.86 89.8139 147.692 90.4383 151.231 89.1895C159.556 86.4837 175.167 85.8592 182.452 88.3569C192.026 91.479 200.976 99.1802 204.306 107.089C206.388 111.877 208.261 113.334 212.84 113.334C221.374 113.334 229.491 116.872 237.192 124.365C264.875 151.007 244.477 197.214 206.596 193.884C200.144 193.467 193.483 192.427 191.61 191.594C189.112 190.553 187.863 191.594 186.614 195.965C181.619 216.571 153.52 230.308 132.498 222.815Z" fill="#AEE4FF"/>
<path id="Vector_8" d="M1413.64 226.682C1404.44 225.724 1398.3 223.998 1394.27 221.121C1383.34 213.45 1377.59 193.121 1383.15 182.382C1389.48 170.3 1399.84 164.355 1417.48 162.821C1422.27 162.245 1423.43 161.095 1424.96 155.533C1429.56 137.123 1450.66 124.465 1469.64 128.684C1475.97 130.219 1476.55 129.835 1479.81 123.123C1488.05 107.205 1502.82 98 1520.27 98C1533.51 98 1544.05 102.794 1553.07 112.575C1559.2 119.479 1560.35 120.054 1565.53 118.712C1573.39 116.411 1589.89 118.52 1599.67 123.123C1639.56 141.917 1641.86 197.532 1603.7 219.778C1597.94 223.23 1590.65 225.34 1579.53 226.491C1561.89 228.6 1435.32 228.6 1413.64 226.682Z" fill="#AEE4FF"/>
<path id="Vector_9" d="M1255.24 238.55C1246.21 236.783 1235.02 229.715 1229.91 222.647C1226.38 217.739 1225.2 217.15 1219.9 218.72C1212.44 220.88 1195.75 217.935 1188.88 213.419C1171.21 202.032 1163.75 175.92 1172.98 158.054C1179.45 144.9 1195.55 134.494 1209.1 134.102C1214.6 134.102 1215.78 132.924 1221.08 122.125C1228.15 107.597 1237.96 99.9399 1253.47 96.6023C1267.41 93.8536 1276.44 95.6206 1288.62 103.67L1298.43 110.345L1303.34 104.652C1314.33 92.4793 1331.42 87.3747 1348.89 91.3013C1365.38 95.0316 1377.55 107.008 1382.27 124.089C1385.41 135.28 1386.39 136.85 1392.67 139.402C1424.08 152.557 1428.4 197.124 1400.13 216.168C1389.14 223.432 1375.79 226.181 1364.4 223.04C1358.31 221.469 1355.96 221.469 1353.6 223.629C1341.62 233.838 1321.99 235.801 1304.52 228.341L1294.11 223.825L1290.58 228.341C1287.04 232.66 1269.77 240.513 1264.66 240.12C1263.48 239.924 1259.17 239.335 1255.24 238.55Z" fill="#2798D2"/>
<path id="Vector_10" d="M1132.21 203.277C1121.36 201.268 1116.14 198.454 1107.29 190.215L1100.26 183.181L1092.42 186.597C1080.36 191.621 1063.48 189.612 1052.63 182.176C1048.01 178.961 1042.38 173.334 1040.17 169.918C1036.35 164.09 1035.55 163.688 1026.91 164.693C1018.67 165.698 1016.86 165.095 1010.83 159.669C1005 154.444 1004 152.233 1004 144.597C1004 133.946 1009.83 126.109 1019.27 124.099C1024.3 122.893 1025.1 121.889 1025.1 115.86C1025.1 94.7592 1051.83 72.6537 1074.13 75.2661C1079.16 75.869 1080.16 74.8642 1083.78 64.8163C1090.01 48.5386 1107.09 32.0599 1122.57 27.4379C1137.03 23.4187 1155.12 24.4235 1167.98 30.0503C1185.67 38.0887 1200.34 58.9884 1202.95 80.0892L1204.16 90.3381L1213.2 90.74C1229.28 91.3429 1244.75 102.195 1250.98 117.468C1255.2 127.516 1255 144.396 1250.38 154.243C1241.13 174.54 1215.21 184.99 1194.91 176.55C1191.09 174.942 1187.88 174.339 1187.88 175.143C1187.88 176.148 1184.26 180.971 1179.84 185.995C1166.98 200.464 1150.1 206.492 1132.21 203.277Z" fill="#FEFEFE"/>
<path id="Vector_11" d="M924.873 243.71C917.182 240.16 907.123 228.721 904.362 220.241C902.982 215.902 899.629 212.352 894.501 209.393C868.073 194.207 877.342 151.41 907.912 148.057C917.576 147.071 919.943 145.296 919.943 138.393C919.943 135.829 923.098 130.504 926.846 126.165C934.735 117.487 947.357 112.951 958.007 114.923C964.318 116.107 964.91 115.712 966.29 110.782C968.065 103.09 977.729 90.6647 985.224 86.1286C993.31 81.198 1009.88 79.423 1019.34 82.5785C1033.35 87.1147 1044.59 100.723 1047.15 116.304C1047.74 120.051 1050.11 124.39 1052.67 125.968C1055.04 127.546 1058.99 131.096 1061.35 133.462C1065.69 138.196 1065.69 138.196 1075.95 134.843C1101.78 126.165 1129 145.69 1129 173.104C1129 178.429 1128.21 185.135 1127.03 187.896C1124.27 195.391 1112.04 208.013 1104.74 210.971C1101.39 212.352 1095.67 215.507 1092.12 218.071C1088.77 220.635 1082.65 223.199 1078.31 223.988C1074.17 224.58 1067.27 226.749 1062.73 228.721C1052.08 233.652 1035.52 233.652 1025.46 228.524C1016.19 223.791 1006.13 223.396 1002.58 227.735C997.649 233.652 988.577 236.808 979.307 235.821C971.813 235.033 969.446 235.624 963.727 239.963C958.204 244.105 954.26 245.288 943.807 245.683C935.918 246.077 928.423 245.288 924.873 243.71Z" fill="#AEE4FF"/>
<path id="Vector_12" d="M890.229 157.264C884.044 155.408 872.291 144.274 870.435 138.707C869.816 136.851 867.136 137.47 860.538 140.769C853.734 144.274 849.197 145.099 841.775 144.48C831.053 143.449 818.475 135.614 816.207 128.397C815.176 125.098 813.114 124.274 806.104 124.274C789.815 124.274 776 110.047 776 93.139C776 87.7781 777.856 83.6543 783.217 77.4686C790.639 68.6024 798.475 65.5095 810.228 66.3343C816.001 66.7467 816.826 66.1281 818.888 58.4991C823.424 43.6534 841.568 31.9006 856.002 34.7873C861.156 35.8182 862.187 34.7873 867.548 24.0654C872.703 14.1683 875.384 11.694 884.044 7.57018C910.023 -4.59502 936.003 8.39495 941.983 36.2306C943.014 40.973 944.045 41.7977 950.437 41.7977C959.303 41.7977 969.612 45.9215 974.561 51.6948C977.86 55.2001 980.128 55.6124 990.231 54.7877C1000.13 53.7567 1003.84 54.3753 1010.44 58.2929C1033.12 70.8705 1030.44 105.717 1006.11 114.995C1000.95 117.057 994.561 118.088 991.675 117.676C987.345 116.851 986.52 117.469 985.489 124.48C983.221 138.707 968.375 151.078 953.736 151.078C950.437 151.078 943.632 148.81 938.271 146.336C931.467 142.831 928.581 142.212 927.756 144.068C925.9 149.016 912.704 157.058 904.869 158.089C900.333 158.707 893.734 158.295 890.229 157.264Z" fill="#2798D2"/>
<path id="Vector_13" d="M632.082 202.284C620.387 196.95 613 185.459 613 172.737C613 148.115 636.186 131.084 657.936 139.907C661.629 141.344 665.323 142.575 666.144 142.575C666.964 142.575 668.606 138.266 670.042 132.931C673.941 118.978 688.509 104.82 702.257 101.948C713.952 99.4854 727.29 101.332 734.882 106.462C740.011 109.745 740.216 109.745 744.115 101.948C757.452 75.8888 790.282 68.9124 812.648 87.3793C823.933 96.818 829.063 108.103 828.858 123.698C828.858 134.983 829.268 136.419 832.756 136.419C842.4 136.419 852.659 144.216 858.405 156.117C863.739 166.787 863.945 168.429 861.482 177.046C858.199 189.768 852.659 196.95 842.195 201.874C833.577 205.978 830.499 206.183 736.933 206.183C647.061 206.183 640.085 205.773 632.082 202.284Z" fill="#FEFEFE"/>
</g>
</svg>
