<svg width="200" height="132" viewBox="0 0 200 132" fill="none" xmlns="http://www.w3.org/2000/svg">
<g id="poi">
<g id="camera 1">
<path id="Vector" d="M19.7451 28.6245V14.3362C19.7451 13.1261 18.764 12.145 17.5539 12.145H10.2525C9.04233 12.145 8.06128 13.1261 8.06128 14.3362V28.6245" fill="#E5E9EA"/>
<path id="Vector_2" d="M13.3673 28.6245V12.145H10.2525C9.04233 12.145 8.06128 13.1261 8.06128 14.3362V28.6245" fill="#D1D1D1"/>
<path id="Vector_3" d="M100 31.2285V84.6877C100 88.3529 97.0285 91.3244 93.3633 91.3244H6.63672C2.97148 91.3244 0 88.3529 0 84.6877V31.2285C0 27.5632 2.97148 24.5918 6.63672 24.5918H19.7598C22.5863 24.5918 25.1047 22.8019 26.0312 20.1306L28.4537 13.1388C29.3803 10.4673 31.8965 8.67554 34.7252 8.67554H73.4389C76.2654 8.67554 78.7816 10.4673 79.7082 13.1388L82.1326 20.1306C83.0592 22.8021 85.5754 24.5918 88.402 24.5918H93.3631C97.0285 24.5918 100 27.5632 100 31.2285Z" fill="#FCB65F"/>
<g id="Group">
<path id="Vector_4" d="M11.8408 91.3244H6.63672C2.97148 91.3244 0 88.3529 0 84.6877V31.2285C0 27.5633 2.97148 24.5918 6.63672 24.5918H11.4285V24.6041C7.95508 24.8184 5.2041 27.7021 5.2041 31.2285V84.6877C5.2041 88.3531 8.17559 91.3244 11.8408 91.3244Z" fill="#E29A4B"/>
<path id="Vector_5" d="M39.9291 8.67554C37.1005 8.67554 34.5841 10.4673 33.6576 13.1388L31.2351 20.1306C30.3085 22.8021 27.7902 24.5917 24.9636 24.5917H20.5105V24.549C23.0248 24.2632 25.188 22.5632 26.0308 20.1306L28.4533 13.1388C29.3798 10.4673 31.896 8.67554 34.7248 8.67554C34.7251 8.67554 39.9291 8.67554 39.9291 8.67554Z" fill="#E29A4B"/>
</g>
<path id="Vector_6" d="M100 42.6531V84.6878C100 88.3531 97.0285 91.3246 93.3633 91.3246H6.63672C2.97148 91.3246 0 88.3531 0 84.6878V42.6531H100Z" fill="#53BCE9"/>
<path id="Vector_7" d="M11.8408 91.3244H6.63672C2.97148 91.3244 0 88.3529 0 84.6876V42.6531H5.2041V84.6878C5.2041 88.3531 8.17559 91.3244 11.8408 91.3244Z" fill="#36A6CE"/>
<path id="Vector_8" d="M50.0001 85.1C65.2713 85.1 77.6511 72.7203 77.6511 57.4491C77.6511 42.1779 65.2713 29.7981 50.0001 29.7981C34.7289 29.7981 22.3491 42.1779 22.3491 57.4491C22.3491 72.7203 34.7289 85.1 50.0001 85.1Z" fill="#E5E9EA"/>
<path id="Vector_9" d="M69.5509 57.4489C69.5509 63.2061 67.0632 68.3815 63.1019 71.9612C59.6347 75.0938 55.0427 77.0018 49.9999 77.0018C44.9591 77.0018 40.3652 75.0936 36.898 71.961C32.9369 68.3834 30.447 63.2059 30.447 57.4487C30.447 51.6915 32.9369 46.5139 36.898 42.9385C40.3654 39.8038 44.9591 37.8977 49.9999 37.8977C55.0427 37.8977 59.6347 39.8059 63.1019 42.9385C67.0632 46.5163 69.5509 51.6916 69.5509 57.4489Z" fill="#566368"/>
<g id="Group_2">
<path id="Vector_10" d="M63.8237 43.6239C67.8946 47.6947 69.7952 53.1135 69.5253 58.4457C64.193 58.7154 58.7743 56.8151 54.7034 52.7442C50.6325 48.6733 48.7319 43.2545 49.0032 37.9239C54.3339 37.6526 59.7528 39.5532 63.8237 43.6239Z" fill="#6F7B7F"/>
<path id="Vector_11" d="M45.2947 62.1531C49.3655 66.224 51.2661 71.6428 50.9962 76.975C45.6654 77.2463 40.2437 75.3459 36.173 71.2748C32.1021 67.2039 30.2015 61.7822 30.4741 56.4529C35.805 56.1815 41.2238 58.082 45.2947 62.1531Z" fill="#6F7B7F"/>
</g>
<g id="Group_3">
<path id="Vector_12" d="M49.9994 78.5315C38.3746 78.5315 28.917 69.0739 28.917 57.4491C28.917 45.8243 38.3746 36.3667 49.9994 36.3667C61.6242 36.3667 71.0818 45.8241 71.0818 57.4491C71.0818 69.0741 61.6242 78.5315 49.9994 78.5315ZM49.9994 39.4278C40.0625 39.4278 31.9781 47.5122 31.9781 57.4491C31.9781 67.386 40.0625 75.4704 49.9994 75.4704C59.9363 75.4704 68.0207 67.386 68.0207 57.4491C68.0207 47.5122 59.9363 39.4278 49.9994 39.4278Z" fill="#435054"/>
<path id="Vector_13" d="M49.9995 49.6006C45.6718 49.6006 42.1509 53.1215 42.1509 57.4494C42.1509 61.7773 45.6718 65.2981 49.9995 65.2981C54.3273 65.2981 57.8482 61.7772 57.8482 57.4494C57.8482 53.1217 54.3273 49.6006 49.9995 49.6006Z" fill="#435054"/>
</g>
<path id="Vector_14" d="M59.9331 23.0622H71.961C73.5423 23.0622 74.8243 21.7803 74.8243 20.1989V17.0481C74.8243 15.4668 73.5425 14.1848 71.961 14.1848H59.9331C58.3519 14.1848 57.0698 15.4667 57.0698 17.0481V20.1989C57.0698 21.7801 58.3519 23.0622 59.9331 23.0622Z" fill="#E5E9EA"/>
<path id="Vector_15" d="M71.9609 24.5926H59.933C57.5102 24.5926 55.5391 22.6215 55.5391 20.1986V17.0482C55.5391 14.6254 57.5102 12.6543 59.933 12.6543H71.9609C74.3838 12.6543 76.3549 14.6254 76.3549 17.0482V20.1988C76.3547 22.6217 74.3836 24.5926 71.9609 24.5926ZM59.933 15.7154C59.198 15.7154 58.6004 16.3133 58.6004 17.048V20.1986C58.6004 20.9336 59.198 21.5313 59.933 21.5313H71.9609C72.6959 21.5313 73.2935 20.9334 73.2935 20.1986V17.0482C73.2935 16.3133 72.6957 15.7156 71.9609 15.7156C71.9609 15.7154 59.933 15.7154 59.933 15.7154Z" fill="#E29A4B"/>
<path id="Vector_16" d="M19.0101 85.6594C22.0669 85.6594 24.5449 83.1814 24.5449 80.1246C24.5449 77.0678 22.0669 74.5898 19.0101 74.5898C15.9533 74.5898 13.4753 77.0678 13.4753 80.1246C13.4753 83.1814 15.9533 85.6594 19.0101 85.6594Z" fill="#566368"/>
</g>
<g id="Group_4">
<path id="Vector_17" d="M46.0688 29.3782V131.281H123.034L135.097 85.4249L123.034 29.3782H46.0688Z" fill="#584AA4"/>
<path id="Vector_18" d="M123.034 29.3782H200V131.281H123.034V29.3782Z" fill="#3E3377"/>
</g>
<g id="Group_5">
<path id="Vector_19" d="M46.0688 48.3906V72.9778H123.034L133.467 59.3963L123.034 48.3906H46.0688Z" fill="#7194A4"/>
</g>
<path id="Vector_20" d="M123.034 48.3906H200V72.9778H123.034V48.3906Z" fill="#5E808A"/>
<g id="eiffel-tower 1">
<path id="Vector_21" d="M73.375 81.25H74.625V84.375H73.375V81.25Z" fill="#4D5D7A"/>
<path id="Vector_22" d="M80.875 110.14L79.685 107.5C79.1806 106.272 78.7344 105.02 78.3475 103.75L77.6681 101.25C76.8969 98.0294 76.5 94.7075 76.5 91.3506V88.75H71.5V91.3506C71.5 94.7081 71.1031 98.0294 70.3319 101.25L69.6525 103.75C69.2656 105.02 68.8187 106.272 68.315 107.5L67.1938 110C65.6731 113.118 63.7662 116.059 61.5 118.75H69V117.5C69 114.739 71.2387 112.5 74 112.5C76.7613 112.5 79 114.739 79 117.5V118.75H86.5C84.2681 116.099 82.3844 113.206 80.875 110.14V110.14ZM71.5 107.5L72.75 103.75H75.25L76.5 107.5H71.5Z" fill="#A8B0BC"/>
<path id="Vector_23" d="M71.5 86.25H76.5V88.75H71.5V86.25Z" fill="#4D5D7A"/>
<path id="Vector_24" d="M72.75 83.75H75.25V86.25H72.75V83.75Z" fill="#8892A0"/>
<path id="Vector_25" d="M65.25 107.5H82.75V110H65.25V107.5Z" fill="#4D5D7A"/>
<path id="Vector_26" d="M67.75 101.25H80.25V103.75H67.75V101.25Z" fill="#4D5D7A"/>
<path id="Vector_27" d="M57.75 114.375C59.1307 114.375 60.25 113.256 60.25 111.875C60.25 110.494 59.1307 109.375 57.75 109.375C56.3693 109.375 55.25 110.494 55.25 111.875C55.25 113.256 56.3693 114.375 57.75 114.375Z" fill="#78B75B"/>
<path id="Vector_28" d="M90.25 114.375C91.6307 114.375 92.75 113.256 92.75 111.875C92.75 110.494 91.6307 109.375 90.25 109.375C88.8693 109.375 87.75 110.494 87.75 111.875C87.75 113.256 88.8693 114.375 90.25 114.375Z" fill="#78B75B"/>
<path id="Vector_29" d="M63.375 96.25C63.3537 96.25 63.3337 96.2556 63.3125 96.2563C63.0256 94.8269 61.7637 93.75 60.25 93.75C58.7363 93.75 57.4744 94.8269 57.1875 96.2563C57.1662 96.2556 57.1463 96.25 57.125 96.25C56.0894 96.25 55.25 97.0894 55.25 98.125C55.25 99.1606 56.0894 100 57.125 100C57.6506 100 58.1238 99.7825 58.4644 99.4344C58.9713 99.7887 59.585 100 60.25 100C60.915 100 61.5288 99.7887 62.0356 99.4344C62.3763 99.7825 62.8494 100 63.375 100C64.4106 100 65.25 99.1606 65.25 98.125C65.25 97.0894 64.4106 96.25 63.375 96.25V96.25Z" fill="#A1CDFB"/>
<path id="Vector_30" d="M90.875 96.25C90.8537 96.25 90.8338 96.2556 90.8125 96.2563C90.5256 94.8269 89.2637 93.75 87.75 93.75C86.2363 93.75 84.9744 94.8269 84.6875 96.2563C84.6662 96.2556 84.6463 96.25 84.625 96.25C83.5894 96.25 82.75 97.0894 82.75 98.125C82.75 99.1606 83.5894 100 84.625 100C85.1506 100 85.6238 99.7825 85.9644 99.4344C86.4713 99.7887 87.085 100 87.75 100C88.415 100 89.0287 99.7887 89.5356 99.4344C89.8762 99.7825 90.3494 100 90.875 100C91.9106 100 92.75 99.1606 92.75 98.125C92.75 97.0894 91.9106 96.25 90.875 96.25V96.25Z" fill="#A1CDFB"/>
<path id="Vector_31" d="M57.125 111.25H58.375V118.125H57.125V111.25Z" fill="#C18E59"/>
<path id="Vector_32" d="M89.625 111.25H90.875V118.125H89.625V111.25Z" fill="#C18E59"/>
<path id="Vector_33" d="M77.1039 98.47L74.8839 96.25L76.5002 94.6337L76.6414 94.775C76.5896 94.1312 76.5514 93.485 76.5283 92.8375L76.5002 92.8663L74.8839 91.25L76.5002 89.6337V88.75H75.6164L74.0002 90.3663L72.3839 88.75H71.5002V89.6337L73.1164 91.25L71.5002 92.8663L71.4714 92.8375C71.4489 93.4856 71.4108 94.1319 71.3583 94.7756L71.5002 94.6337L73.1164 96.25L70.8964 98.47C70.7708 99.2088 70.6252 99.9431 70.4614 100.673L74.0002 97.1337L77.5389 100.673C77.3752 99.9431 77.2296 99.2088 77.1039 98.47V98.47ZM72.3839 93.75L74.0002 92.1337L75.6164 93.75L74.0002 95.3663L72.3839 93.75Z" fill="#C1C8D1"/>
<path id="Vector_34" d="M55.25 117.5H92.75V118.75H55.25V117.5Z" fill="#976947"/>
<path id="Vector_35" d="M94 96.8667C94 95.3107 93.3679 93.8185 92.2426 92.7183C91.1174 91.6181 89.5913 91 88 91C86.4087 91 84.8826 91.6181 83.7574 92.7183C82.6321 93.8185 82 95.3107 82 96.8667C82 100.107 88 107 88 107C88 107 94 100.107 94 96.8667Z" fill="#E44B4D"/>
<path id="Vector_36" d="M88 101C90.2091 101 92 99.2091 92 97C92 94.7909 90.2091 93 88 93C85.7909 93 84 94.7909 84 97C84 99.2091 85.7909 101 88 101Z" fill="#8ACCE7"/>
</g>
<g id="tag 4" clip-path="url(#clip0)">
<path id="Vector_37" d="M95.1662 52.885H62.7271C62.272 52.8848 61.8387 53.0093 61.5385 53.2268L51.8682 60.2439C51.3463 60.6219 51.3463 61.187 51.8682 61.5651L61.5385 68.5822C61.8383 68.7997 62.2716 68.9242 62.7271 68.9239H95.1662C96.9099 68.9239 98.3236 68.0263 98.3236 66.919V54.89C98.3236 53.7826 96.9099 52.885 95.1662 52.885Z" fill="#584AA4"/>
<path id="Vector_38" d="M95.1661 69.9262H62.7271C61.8161 69.9265 60.9494 69.6767 60.3494 69.2415L50.6791 62.2244C49.6434 61.467 49.6434 60.3415 50.6791 59.5841L60.3494 52.567C60.9494 52.1318 61.8161 51.8821 62.7271 51.8823H95.1661C97.7819 51.8823 99.9025 53.2287 99.9025 54.8895V66.9188C99.9025 68.5798 97.7819 69.9262 95.1661 69.9262V69.9262ZM62.7271 53.8873L53.0568 60.9044L62.7271 67.9213H95.1661C96.0378 67.9213 96.745 67.4725 96.745 66.9188V54.8898C96.745 54.3361 96.0378 53.8873 95.1661 53.8873H62.7271Z" fill="#3E3377"/>
<path id="Art" d="M75.8651 62.0578H73.7371L73.3451 63.1428H72.6731L74.4371 58.2918H75.1721L76.9291 63.1428H76.2571L75.8651 62.0578ZM75.6831 61.5398L74.8011 59.0758L73.9191 61.5398H75.6831ZM78.3349 59.9298C78.4469 59.7105 78.6056 59.5402 78.8109 59.4188C79.0209 59.2975 79.2752 59.2368 79.5739 59.2368V59.8948H79.4059C78.6919 59.8948 78.3349 60.2822 78.3349 61.0568V63.1428H77.6979V59.3068H78.3349V59.9298ZM81.0862 59.8318V62.0928C81.0862 62.2795 81.1259 62.4125 81.2052 62.4918C81.2845 62.5665 81.4222 62.6038 81.6182 62.6038H82.0872V63.1428H81.5132C81.1585 63.1428 80.8925 63.0612 80.7152 62.8978C80.5379 62.7345 80.4492 62.4662 80.4492 62.0928V59.8318H79.9522V59.3068H80.4492V58.3408H81.0862V59.3068H82.0872V59.8318H81.0862Z" fill="white"/>
<circle id="Ellipse 2" cx="62" cy="61" r="2" fill="#3E3377"/>
</g>
</g>
<defs>
<clipPath id="clip0">
<rect width="50" height="31.746" fill="white" transform="translate(50 45)"/>
</clipPath>
</defs>
</svg>
