<svg width="35" height="35" viewBox="0 0 35 35" fill="none" xmlns="http://www.w3.org/2000/svg">
<g id="reverse">
<circle id="Ellipse 1" cx="17.5" cy="17.5" r="17.5" fill="#00337A"/>
<g id="reverse 1" clip-path="url(#clip0)">
<g id="Group">
<g id="Group_2">
<path id="Vector" d="M27.8761 13.0327L23.3261 9.1827C23.2222 9.09484 23.0766 9.07491 22.9527 9.13229C22.8291 9.19004 22.75 9.31358 22.75 9.45008V12.2501H8.05C7.47111 12.2501 7 12.7212 7 13.3001C7 13.879 7.47111 14.3501 8.05 14.3501H22.75V17.1501C22.75 17.2866 22.8291 17.4101 22.9527 17.4676C22.9999 17.4896 23.0499 17.5001 23.1 17.5001C23.1812 17.5001 23.2617 17.4718 23.3261 17.4175L27.8761 13.5675C27.9549 13.5007 28 13.403 28 13.3001C28 13.1973 27.9548 13.0995 27.8761 13.0327ZM22.75 13.6501H8.05C7.85714 13.6501 7.70001 13.4933 7.70001 13.3001C7.70001 13.1069 7.85714 12.9501 8.05 12.9501H22.75V13.6501ZM23.45 16.3955V10.2047L27.1082 13.3001L23.45 16.3955Z" fill="#D1F0FF"/>
</g>
</g>
<g id="Group_3">
<g id="Group_4">
<path id="Vector_2" d="M26.95 20.6502H12.25V17.8501C12.25 17.7136 12.1709 17.5901 12.0473 17.5327C11.9234 17.4753 11.7778 17.4952 11.6739 17.5831L7.12391 21.4331C7.04516 21.4996 7 21.5973 7 21.7002C7 21.8031 7.04516 21.9007 7.12391 21.9675L11.6739 25.8176C11.7383 25.8718 11.8188 25.9002 11.9 25.9002C11.9501 25.9002 12.0001 25.8897 12.0474 25.8676C12.1709 25.8102 12.25 25.6866 12.25 25.5501V22.7501H26.95C27.5289 22.7501 28 22.279 28 21.7001C28 21.1213 27.5289 20.6502 26.95 20.6502ZM11.55 24.7956L7.8918 21.7002L11.55 18.6047V24.7956ZM26.95 22.0501H12.25V21.3502H26.95C27.1429 21.3502 27.3 21.507 27.3 21.7002C27.3 21.8933 27.1429 22.0501 26.95 22.0501Z" fill="#D1F0FF"/>
</g>
</g>
</g>
</g>
<defs>
<clipPath id="clip0">
<rect width="21" height="21" fill="white" transform="translate(7 7)"/>
</clipPath>
</defs>
</svg>
