<svg width="200" height="200" viewBox="0 0 200 200" fill="none" xmlns="http://www.w3.org/2000/svg">
<g id="reverse">
<circle id="Ellipse 1" cx="100" cy="100" r="100" fill="#00337A"/>
<g id="reverse 1" clip-path="url(#clip0)">
<g id="Group">
<g id="Group_2">
<path id="Vector" d="M159.292 74.4729L133.292 52.4728C132.698 51.9708 131.866 51.8569 131.158 52.1847C130.452 52.5147 130 53.2207 130 54.0007V70.0008H46C42.692 70.0008 40 72.6928 40 76.0008C40 79.3087 42.692 82.0008 46 82.0008H130V98.0009C130 98.7809 130.452 99.4868 131.158 99.8149C131.428 99.941 131.714 100.001 132 100.001C132.464 100.001 132.924 99.8391 133.292 99.529L159.292 77.5289C159.742 77.1469 160 76.5888 160 76.001C160 75.4132 159.742 74.8547 159.292 74.4729ZM130 78.0007H46C44.898 78.0007 44.0001 77.1047 44.0001 76.0008C44.0001 74.8969 44.898 74.0008 46 74.0008H130V78.0007ZM134 93.6888V58.3127L154.904 76.0008L134 93.6888Z" fill="#D1F0FF"/>
</g>
</g>
<g id="Group_3">
<g id="Group_4">
<path id="Vector_2" d="M154 118.001H70V102.001C70 101.221 69.5479 100.515 68.842 100.187C68.1339 99.8587 67.3019 99.9726 66.708 100.475L40.708 122.475C40.258 122.855 40 123.413 40 124.001C40 124.589 40.258 125.147 40.708 125.529L66.708 147.529C67.0759 147.839 67.536 148.001 68.0001 148.001C68.286 148.001 68.5722 147.941 68.8422 147.815C69.5481 147.487 70.0002 146.781 70.0002 146.001V130H154C157.308 130 160 127.308 160 124C160 120.693 157.308 118.001 154 118.001ZM65.9999 141.689L45.096 124.001L65.9999 106.313V141.689ZM154 126.001H70V122.001H154C155.102 122.001 156 122.897 156 124.001C156 125.105 155.102 126.001 154 126.001Z" fill="#D1F0FF"/>
</g>
</g>
</g>
</g>
<defs>
<clipPath id="clip0">
<rect width="120" height="120" fill="white" transform="translate(40 40)"/>
</clipPath>
</defs>
</svg>
