<svg id="Capa_1" enable-background="new 0 0 512 512" height="512" viewBox="0 0 512 512" width="512" xmlns="http://www.w3.org/2000/svg"><g><g><path d="m90.992 18.885v278.707h210.504l32.991-125.417-32.991-153.29z" fill="#584aa4"/><path d="m301.496 18.885h210.504v278.707h-210.504z" fill="#3e3377"/></g><g><circle cx="207.807" cy="127.329" fill="none" r="22.86"/><path d="m258.484 112.331c-6.482-21.861-26.741-37.859-50.677-37.859-29.146 0-52.858 23.712-52.858 52.858s23.712 52.858 52.858 52.858c23.936 0 44.195-15.998 50.677-37.859h43.011l18.129-16.722-18.129-13.275h-43.011zm-50.677 37.859c-12.605 0-22.86-10.255-22.86-22.86s10.255-22.86 22.86-22.86 22.86 10.255 22.86 22.86c.001 12.605-10.254 22.86-22.86 22.86z" fill="#fab91e"/></g><g><g><path d="m0 333.174v159.941h210.504l36.46-80.831-36.46-102.182-1.852-.203z" fill="#78e7c0"/><path d="m0 214.408v51.519l210.504 22.057 28.534-43.479-28.534-30.097z" fill="#78e7c0"/><path d="m421.008 265.927v-51.519h-210.504v73.576l1.121.117z" fill="#00d4b8"/></g><path d="m421.008 493.115v-159.941l-210.504-23.072v183.013z" fill="#00d4b8"/><g><path d="m0 265.927v67.247h210.504l28.534-37.146-28.534-30.101z" fill="#7194a4"/></g><path d="m210.504 265.927h210.504v67.247h-210.504z" fill="#5e808a"/></g><path d="m301.496 112.331v29.997h63.269v36.492h29.997v-36.492h29.998v36.492h29.997v-66.489z" fill="#ff9a2b"/></g></svg>