<svg width="400" height="159" viewBox="0 0 400 159" fill="none" xmlns="http://www.w3.org/2000/svg">
<g id="ticket">
<path id="Vector" d="M0 20C0 8.95429 8.95431 0 20 0H380C391.046 0 400 8.95431 400 20V128.483C400 139.528 391.046 148.483 380 148.483H20C8.95431 148.483 0 139.528 0 128.483V98.7602C0 93.8315 2.13551 89.1446 5.85474 85.9105C13.5361 79.2311 13.68 67.3491 6.16279 60.4855L5.72052 60.0817C2.07622 56.7543 0 52.0471 0 47.1123V20Z" fill="#D5D6DB"/>
<path id="Vector_2" d="M284.849 0H400V148.483H284.849V0Z" fill="#029BC5"/>
<path id="Vector_3" d="M34.1788 28.7389H256.198V35.14H34.1788V28.7389Z" fill="#BDBEC1"/>
<path id="Vector_4" d="M34.1788 56.9399H256.198V63.3411H34.1788V56.9399Z" fill="#BDBEC1"/>
<path id="Vector_5" d="M34.1788 85.1345H256.198V91.5356H34.1788V85.1345Z" fill="#BDBEC1"/>
<path id="Vector_6" d="M34.1788 113.336H256.198V119.737H34.1788V113.336Z" fill="#BDBEC1"/>
<path id="Vector_7" d="M378.096 31.9198C377.625 31.4746 377.092 31.1018 376.512 30.8125C376.139 30.6213 375.751 30.4581 375.353 30.3252C375.058 30.2256 374.763 30.1333 374.46 30.0595C372.83 29.6985 371.134 29.776 369.544 30.2847L355.691 34.6474L351.716 32.8462C351.837 32.6661 351.869 32.4402 351.801 32.2335L351.461 31.1853C351.369 30.9225 351.136 30.7335 350.86 30.698C350.271 30.6501 349.679 30.7246 349.121 30.9158C348.828 31.0103 348.545 31.1343 348.276 31.2849L343.326 29.0371C343.201 28.9876 343.061 28.9876 342.935 29.0371L339.532 30.1444C339.248 30.2389 339.094 30.546 339.189 30.8302C339.21 30.8937 339.243 30.9527 339.285 31.0044L345.065 38.0173L324.336 44.543L313.912 36.8657C313.725 36.7276 313.483 36.6893 313.263 36.7623L310.494 37.6629C310.11 37.798 309.907 38.2188 310.042 38.6041C310.062 38.6632 310.091 38.7186 310.125 38.7702L316.182 47.1045L316.861 49.1899L312.934 52.951C312.865 53.0197 312.864 53.1319 312.933 53.2013C312.979 53.2486 313.049 53.2655 313.111 53.2463L315.806 52.3679L315.865 52.3384L319.397 49.4335L325.912 50.1201L341.414 48.5403L329.234 63.6549C329.035 63.9059 329.077 64.2706 329.328 64.4692C329.479 64.5895 329.681 64.6257 329.865 64.5666L333.342 63.4335C334.01 63.2165 334.628 62.8629 335.154 62.3963L347.334 51.9508C348.504 52.8167 350.054 52.9769 351.376 52.3679C352.154 52.1258 352.874 51.7264 353.491 51.1941C353.779 50.9343 353.886 50.529 353.764 50.1607L353.295 48.7212C353.176 48.3513 352.848 48.0878 352.461 48.0494C352.278 48.031 352.095 48.0228 351.911 48.0236L356.189 44.3547L376.298 37.7995C380.391 36.659 379.989 33.5401 379.989 33.5401C379.716 32.8093 378.635 32.4144 378.096 31.9198ZM359.909 36.7734C359.789 36.4065 359.989 36.0116 360.356 35.8913C360.723 35.7709 361.118 35.971 361.238 36.3379L361.43 36.9321C361.55 37.299 361.35 37.694 360.983 37.8143C360.617 37.9346 360.222 37.7346 360.101 37.3677L359.909 36.7734ZM355.248 38.2904L355.443 38.8847C355.564 39.2516 355.364 39.6465 354.997 39.7668C354.63 39.8871 354.235 39.6871 354.115 39.3202L353.919 38.726C353.799 38.3591 353.999 37.9641 354.366 37.8438C354.732 37.7235 355.127 37.9235 355.248 38.2904ZM352.251 39.2685L352.443 39.8628C352.563 40.2297 352.363 40.6246 351.996 40.7449C351.629 40.8653 351.234 40.6652 351.114 40.2983L350.922 39.7041C350.802 39.3372 351.002 38.9423 351.368 38.8219C351.735 38.7016 352.13 38.9016 352.251 39.2685ZM347.925 40.6822C347.804 40.3153 348.004 39.9204 348.371 39.8C348.738 39.6797 349.133 39.8798 349.253 40.2466L349.445 40.8409C349.566 41.2078 349.366 41.6027 348.999 41.723C348.632 41.8434 348.237 41.6433 348.117 41.2764L347.925 40.6822ZM358.26 37.316L358.455 37.9066C358.572 38.2734 358.373 38.6662 358.009 38.7887C357.645 38.9105 357.252 38.7156 357.129 38.3524C357.128 38.3487 357.127 38.3458 357.126 38.3421L356.931 37.7478C356.811 37.381 357.012 36.9868 357.38 36.8679C357.746 36.7483 358.141 36.9491 358.26 37.316ZM344.939 41.6603C344.818 41.2942 345.018 40.9 345.384 40.7796L345.389 40.7782C345.75 40.6563 346.142 40.8505 346.263 41.2122C346.265 41.2166 346.266 41.2203 346.267 41.2248L346.448 41.8301C346.568 42.197 346.367 42.5912 346 42.7108C345.633 42.8303 345.238 42.6296 345.119 42.2627L344.939 41.6603ZM334.478 45.7211C334.597 46.088 334.397 46.4822 334.029 46.6011C333.662 46.7207 333.268 46.5199 333.148 46.153L332.953 45.5587C332.833 45.1918 333.034 44.7976 333.401 44.6781C333.768 44.5585 334.162 44.7593 334.282 45.1269L334.478 45.7211ZM337.475 44.743C337.594 45.1099 337.394 45.5041 337.026 45.6237C336.659 45.7433 336.265 45.5425 336.145 45.1756L335.95 44.585C335.841 44.213 336.055 43.824 336.427 43.7154C336.782 43.6121 337.156 43.8018 337.282 44.1495L337.475 44.743ZM339.144 44.2004L338.952 43.6062C338.832 43.2393 339.032 42.8444 339.399 42.724C339.765 42.6037 340.16 42.8038 340.281 43.1707L340.473 43.7649C340.593 44.1318 340.393 44.5267 340.026 44.647C339.659 44.7666 339.264 44.5673 339.144 44.2004ZM364.446 35.9466C364.554 36.3187 364.34 36.7077 363.968 36.8162C363.613 36.9196 363.239 36.7299 363.113 36.3822L362.921 35.7879C362.801 35.421 363.001 35.0261 363.368 34.9058C363.735 34.7854 364.13 34.9855 364.25 35.3524L364.446 35.9466ZM370.539 37.9176L367.528 38.8994L365.715 33.3925L368.727 32.4107L370.539 37.9176Z" fill="#E56353"/>
<path id="Vector_8" d="M377.064 131.255C376.956 130.616 376.753 129.997 376.464 129.418C376.28 129.041 376.069 128.677 375.83 128.332C375.654 128.075 375.474 127.824 375.276 127.583C374.19 126.315 372.788 125.357 371.211 124.808L357.517 119.971L355.422 116.143C355.627 116.072 355.788 115.91 355.858 115.704L356.217 114.662C356.301 114.397 356.228 114.105 356.029 113.911C355.587 113.519 355.069 113.223 354.508 113.041C354.217 112.94 353.916 112.869 353.611 112.828L351.005 108.057C350.935 107.942 350.823 107.857 350.693 107.821L347.307 106.661C347.023 106.566 346.715 106.719 346.621 107.003C346.6 107.067 346.59 107.134 346.593 107.2L346.998 116.279L326.508 109.038L322.79 96.638C322.724 96.4155 322.553 96.2393 322.333 96.165L319.579 95.2214C319.191 95.0982 318.775 95.3126 318.652 95.7017C318.633 95.7614 318.622 95.8225 318.619 95.8846L318.452 106.186L317.741 108.261L312.342 108.907C312.245 108.92 312.177 109.01 312.191 109.106C312.199 109.172 312.245 109.227 312.306 109.25L314.988 110.167L315.053 110.179L319.622 109.98L324.416 114.443L337.757 122.496L318.938 127.258C318.628 127.339 318.443 127.656 318.524 127.965C318.573 128.152 318.712 128.302 318.895 128.366L322.355 129.549C323.02 129.778 323.725 129.866 324.426 129.809L340.439 128.78C340.854 130.175 341.996 131.234 343.419 131.542C344.186 131.816 345.002 131.929 345.815 131.875C346.201 131.84 346.53 131.58 346.654 131.213L347.145 129.781C347.271 129.413 347.168 129.005 346.882 128.742C346.746 128.618 346.605 128.501 346.457 128.391L352.081 128.029L372.094 134.874C376.051 136.422 377.604 133.688 377.604 133.688C377.825 132.939 377.198 131.974 377.064 131.255ZM359.611 124.205C359.735 123.84 360.133 123.644 360.498 123.769C360.864 123.893 361.059 124.29 360.935 124.656L360.731 125.246C360.607 125.612 360.21 125.807 359.844 125.683C359.479 125.559 359.283 125.161 359.407 124.796L359.611 124.205ZM354.973 122.617L354.773 123.209C354.648 123.575 354.251 123.77 353.886 123.646C353.52 123.522 353.325 123.124 353.449 122.759L353.65 122.166C353.774 121.801 354.171 121.605 354.537 121.729C354.902 121.854 355.098 122.251 354.973 122.617ZM351.99 121.597L351.786 122.188C351.662 122.553 351.265 122.749 350.899 122.624C350.534 122.5 350.338 122.103 350.463 121.737L350.666 121.147C350.791 120.781 351.188 120.586 351.553 120.71C351.919 120.835 352.114 121.232 351.99 121.597ZM347.683 120.128C347.807 119.762 348.204 119.567 348.57 119.691C348.936 119.815 349.131 120.213 349.007 120.578L348.803 121.168C348.679 121.534 348.281 121.729 347.916 121.605C347.55 121.481 347.355 121.084 347.479 120.718L347.683 120.128ZM357.966 123.648L357.768 124.237C357.641 124.601 357.246 124.795 356.881 124.674C356.517 124.553 356.32 124.161 356.44 123.797C356.441 123.793 356.442 123.79 356.444 123.787L356.645 123.194C356.77 122.829 357.167 122.635 357.532 122.761C357.897 122.886 358.092 123.283 357.966 123.648ZM344.708 119.115C344.832 118.75 345.228 118.555 345.593 118.679L345.598 118.681C345.96 118.8 346.157 119.191 346.036 119.553C346.035 119.557 346.034 119.561 346.032 119.566L345.813 120.158C345.688 120.523 345.291 120.718 344.925 120.592C344.56 120.467 344.365 120.07 344.49 119.705L344.708 119.115ZM333.907 116.075C333.782 116.44 333.384 116.634 333.019 116.508C332.654 116.383 332.46 115.986 332.584 115.621L332.785 115.028C332.91 114.663 333.307 114.469 333.673 114.594C334.038 114.719 334.233 115.116 334.107 115.482L333.907 116.075ZM336.89 117.094C336.765 117.459 336.368 117.653 336.002 117.528C335.637 117.403 335.442 117.006 335.567 116.641L335.766 116.051C335.903 115.689 336.308 115.506 336.67 115.643C337.016 115.774 337.201 116.15 337.093 116.504L336.89 117.094ZM338.55 117.663L338.754 117.073C338.878 116.707 339.275 116.512 339.641 116.636C340.006 116.76 340.202 117.158 340.078 117.523L339.874 118.114C339.75 118.479 339.352 118.675 338.987 118.55C338.622 118.425 338.426 118.029 338.55 117.663ZM363.734 126.271C363.597 126.633 363.192 126.815 362.829 126.679C362.484 126.548 362.299 126.172 362.407 125.818L362.611 125.228C362.735 124.862 363.132 124.667 363.498 124.791C363.863 124.915 364.059 125.312 363.935 125.678L363.734 126.271ZM367.42 131.508L364.423 130.483L366.284 124.992L369.281 126.017L367.42 131.508Z" fill="#E56353"/>
<rect id="Rectangle 1" x="310" y="65" width="60" height="4" rx="2" fill="#E56353"/>
<rect id="Rectangle 2" x="307" y="137" width="70" height="4" rx="2" fill="#E56353"/>
<line id="Line 1" x1="285" y1="73.75" x2="400" y2="73.75" stroke="#E56353" stroke-width="0.5"/>
</g>
</svg>
