<svg width="446" height="226" viewBox="0 0 446 226" fill="none" xmlns="http://www.w3.org/2000/svg">
<rect width="446" height="226" rx="20" fill="url(#paint0_angular)"/>
<path d="M31.915 80.48V78.986H35.299V92H33.643V80.48H31.915ZM37.6806 80.48V78.986H41.0646V92H39.4086V80.48H37.6806ZM50.9882 84.71V86.096H43.8062V84.71H50.9882ZM53.7923 85.358C53.7923 83.294 54.1283 81.686 54.8003 80.534C55.4723 79.37 56.6483 78.788 58.3283 78.788C59.9963 78.788 61.1663 79.37 61.8383 80.534C62.5103 81.686 62.8463 83.294 62.8463 85.358C62.8463 87.458 62.5103 89.09 61.8383 90.254C61.1663 91.418 59.9963 92 58.3283 92C56.6483 92 55.4723 91.418 54.8003 90.254C54.1283 89.09 53.7923 87.458 53.7923 85.358ZM61.2263 85.358C61.2263 84.314 61.1543 83.432 61.0103 82.712C60.8783 81.98 60.5963 81.392 60.1643 80.948C59.7443 80.504 59.1323 80.282 58.3283 80.282C57.5123 80.282 56.8883 80.504 56.4563 80.948C56.0363 81.392 55.7543 81.98 55.6103 82.712C55.4783 83.432 55.4123 84.314 55.4123 85.358C55.4123 86.438 55.4783 87.344 55.6103 88.076C55.7543 88.808 56.0363 89.396 56.4563 89.84C56.8883 90.284 57.5123 90.506 58.3283 90.506C59.1323 90.506 59.7443 90.284 60.1643 89.84C60.5963 89.396 60.8783 88.808 61.0103 88.076C61.1543 87.344 61.2263 86.438 61.2263 85.358ZM64.663 80.48V78.986H68.047V92H66.391V80.48H64.663ZM77.9706 84.71V86.096H70.7886V84.71H77.9706ZM80.5767 90.686C82.1007 89.462 83.2947 88.46 84.1587 87.68C85.0227 86.888 85.7487 86.066 86.3367 85.214C86.9367 84.35 87.2367 83.504 87.2367 82.676C87.2367 81.896 87.0447 81.284 86.6607 80.84C86.2887 80.384 85.6827 80.156 84.8427 80.156C84.0267 80.156 83.3907 80.414 82.9347 80.93C82.4907 81.434 82.2507 82.112 82.2147 82.964H80.6307C80.6787 81.62 81.0867 80.582 81.8547 79.85C82.6227 79.118 83.6127 78.752 84.8247 78.752C86.0607 78.752 87.0387 79.094 87.7587 79.778C88.4907 80.462 88.8567 81.404 88.8567 82.604C88.8567 83.6 88.5567 84.572 87.9567 85.52C87.3687 86.456 86.6967 87.284 85.9407 88.004C85.1847 88.712 84.2187 89.54 83.0427 90.488H89.2347V91.856H80.5767V90.686ZM91.1282 85.358C91.1282 83.294 91.4642 81.686 92.1362 80.534C92.8082 79.37 93.9842 78.788 95.6642 78.788C97.3322 78.788 98.5022 79.37 99.1742 80.534C99.8462 81.686 100.182 83.294 100.182 85.358C100.182 87.458 99.8462 89.09 99.1742 90.254C98.5022 91.418 97.3322 92 95.6642 92C93.9842 92 92.8082 91.418 92.1362 90.254C91.4642 89.09 91.1282 87.458 91.1282 85.358ZM98.5622 85.358C98.5622 84.314 98.4902 83.432 98.3462 82.712C98.2142 81.98 97.9322 81.392 97.5002 80.948C97.0802 80.504 96.4682 80.282 95.6642 80.282C94.8482 80.282 94.2242 80.504 93.7922 80.948C93.3722 81.392 93.0902 81.98 92.9462 82.712C92.8142 83.432 92.7482 84.314 92.7482 85.358C92.7482 86.438 92.8142 87.344 92.9462 88.076C93.0902 88.808 93.3722 89.396 93.7922 89.84C94.2242 90.284 94.8482 90.506 95.6642 90.506C96.4682 90.506 97.0802 90.284 97.5002 89.84C97.9322 89.396 98.2142 88.808 98.3462 88.076C98.4902 87.344 98.5622 86.438 98.5622 85.358ZM102.233 90.686C103.757 89.462 104.951 88.46 105.815 87.68C106.679 86.888 107.405 86.066 107.993 85.214C108.593 84.35 108.893 83.504 108.893 82.676C108.893 81.896 108.701 81.284 108.317 80.84C107.945 80.384 107.339 80.156 106.499 80.156C105.683 80.156 105.047 80.414 104.591 80.93C104.147 81.434 103.907 82.112 103.871 82.964H102.287C102.335 81.62 102.743 80.582 103.511 79.85C104.279 79.118 105.269 78.752 106.481 78.752C107.717 78.752 108.695 79.094 109.415 79.778C110.147 80.462 110.513 81.404 110.513 82.604C110.513 83.6 110.213 84.572 109.613 85.52C109.025 86.456 108.353 87.284 107.597 88.004C106.841 88.712 105.875 89.54 104.699 90.488H110.891V91.856H102.233V90.686ZM112.352 80.48V78.986H115.736V92H114.08V80.48H112.352ZM147.619 71.24V92H144.889V76.52L137.989 92H136.069L129.139 76.49V92H126.409V71.24H129.349L137.029 88.4L144.709 71.24H147.619ZM159.419 92.27C157.879 92.27 156.479 91.92 155.219 91.22C153.979 90.52 152.999 89.53 152.279 88.25C151.579 86.95 151.229 85.45 151.229 83.75C151.229 82.07 151.589 80.59 152.309 79.31C153.049 78.01 154.049 77.02 155.309 76.34C156.569 75.64 157.979 75.29 159.539 75.29C161.099 75.29 162.509 75.64 163.769 76.34C165.029 77.02 166.019 78 166.739 79.28C167.479 80.56 167.849 82.05 167.849 83.75C167.849 85.45 167.469 86.95 166.709 88.25C165.969 89.53 164.959 90.52 163.679 91.22C162.399 91.92 160.979 92.27 159.419 92.27ZM159.419 89.87C160.399 89.87 161.319 89.64 162.179 89.18C163.039 88.72 163.729 88.03 164.249 87.11C164.789 86.19 165.059 85.07 165.059 83.75C165.059 82.43 164.799 81.31 164.279 80.39C163.759 79.47 163.079 78.79 162.239 78.35C161.399 77.89 160.489 77.66 159.509 77.66C158.509 77.66 157.589 77.89 156.749 78.35C155.929 78.79 155.269 79.47 154.769 80.39C154.269 81.31 154.019 82.43 154.019 83.75C154.019 85.09 154.259 86.22 154.739 87.14C155.239 88.06 155.899 88.75 156.719 89.21C157.539 89.65 158.439 89.87 159.419 89.87ZM179.448 75.26C181.448 75.26 183.068 75.87 184.308 77.09C185.548 78.29 186.168 80.03 186.168 82.31V92H183.468V82.7C183.468 81.06 183.058 79.81 182.238 78.95C181.418 78.07 180.298 77.63 178.878 77.63C177.438 77.63 176.288 78.08 175.428 78.98C174.588 79.88 174.168 81.19 174.168 82.91V92H171.438V75.56H174.168V77.9C174.708 77.06 175.438 76.41 176.358 75.95C177.298 75.49 178.328 75.26 179.448 75.26ZM189.608 83.72C189.608 82.04 189.948 80.57 190.628 79.31C191.308 78.03 192.238 77.04 193.418 76.34C194.618 75.64 195.958 75.29 197.438 75.29C198.718 75.29 199.908 75.59 201.008 76.19C202.108 76.77 202.948 77.54 203.528 78.5V69.8H206.288V92H203.528V88.91C202.988 89.89 202.188 90.7 201.128 91.34C200.068 91.96 198.828 92.27 197.408 92.27C195.948 92.27 194.618 91.91 193.418 91.19C192.238 90.47 191.308 89.46 190.628 88.16C189.948 86.86 189.608 85.38 189.608 83.72ZM203.528 83.75C203.528 82.51 203.278 81.43 202.778 80.51C202.278 79.59 201.598 78.89 200.738 78.41C199.898 77.91 198.968 77.66 197.948 77.66C196.928 77.66 195.998 77.9 195.158 78.38C194.318 78.86 193.648 79.56 193.148 80.48C192.648 81.4 192.398 82.48 192.398 83.72C192.398 84.98 192.648 86.08 193.148 87.02C193.648 87.94 194.318 88.65 195.158 89.15C195.998 89.63 196.928 89.87 197.948 89.87C198.968 89.87 199.898 89.63 200.738 89.15C201.598 88.65 202.278 87.94 202.778 87.02C203.278 86.08 203.528 84.99 203.528 83.75ZM209.881 83.72C209.881 82.04 210.221 80.57 210.901 79.31C211.581 78.03 212.511 77.04 213.691 76.34C214.891 75.64 216.221 75.29 217.681 75.29C219.121 75.29 220.371 75.6 221.431 76.22C222.491 76.84 223.281 77.62 223.801 78.56V75.56H226.561V92H223.801V88.94C223.261 89.9 222.451 90.7 221.371 91.34C220.311 91.96 219.071 92.27 217.651 92.27C216.191 92.27 214.871 91.91 213.691 91.19C212.511 90.47 211.581 89.46 210.901 88.16C210.221 86.86 209.881 85.38 209.881 83.72ZM223.801 83.75C223.801 82.51 223.551 81.43 223.051 80.51C222.551 79.59 221.871 78.89 221.011 78.41C220.171 77.91 219.241 77.66 218.221 77.66C217.201 77.66 216.271 77.9 215.431 78.38C214.591 78.86 213.921 79.56 213.421 80.48C212.921 81.4 212.671 82.48 212.671 83.72C212.671 84.98 212.921 86.08 213.421 87.02C213.921 87.94 214.591 88.65 215.431 89.15C216.271 89.63 217.201 89.87 218.221 89.87C219.241 89.87 220.171 89.63 221.011 89.15C221.871 88.65 222.551 87.94 223.051 87.02C223.551 86.08 223.801 84.99 223.801 83.75ZM245.335 75.56L235.435 99.74H232.615L235.855 91.82L229.225 75.56H232.255L237.415 88.88L242.515 75.56H245.335Z" fill="black"/>
<path d="M37.9711 55H31.1311L19.6911 37.68V55H12.8511V26.92H19.6911L31.1311 44.32V26.92H37.9711V55ZM63.9692 43.48C63.9692 44.12 63.9292 44.7867 63.8492 45.48H48.3692C48.4759 46.8667 48.9159 47.9333 49.6892 48.68C50.4892 49.4 51.4626 49.76 52.6092 49.76C54.3159 49.76 55.5026 49.04 56.1692 47.6H63.4492C63.0759 49.0667 62.3959 50.3867 61.4092 51.56C60.4492 52.7333 59.2359 53.6533 57.7692 54.32C56.3026 54.9867 54.6626 55.32 52.8492 55.32C50.6626 55.32 48.7159 54.8533 47.0092 53.92C45.3026 52.9867 43.9692 51.6533 43.0092 49.92C42.0492 48.1867 41.5692 46.16 41.5692 43.84C41.5692 41.52 42.0359 39.4933 42.9692 37.76C43.9292 36.0267 45.2626 34.6933 46.9692 33.76C48.6759 32.8267 50.6359 32.36 52.8492 32.36C55.0092 32.36 56.9292 32.8133 58.6092 33.72C60.2892 34.6267 61.5959 35.92 62.5292 37.6C63.4892 39.28 63.9692 41.24 63.9692 43.48ZM56.9692 41.68C56.9692 40.5067 56.5692 39.5733 55.7692 38.88C54.9692 38.1867 53.9692 37.84 52.7692 37.84C51.6226 37.84 50.6492 38.1733 49.8492 38.84C49.0759 39.5067 48.5959 40.4533 48.4092 41.68H56.9692ZM99.6177 32.68L93.5777 55H86.0177L82.4977 40.52L78.8577 55H71.3377L65.2577 32.68H72.0977L75.2577 48.64L79.0177 32.68H86.2577L90.0577 48.56L93.1777 32.68H99.6177ZM134.783 26.92L125.063 45.72V55H118.223V45.72L108.503 26.92H116.263L121.703 38.68L127.103 26.92H134.783ZM147.699 55.32C145.512 55.32 143.539 54.8533 141.779 53.92C140.045 52.9867 138.672 51.6533 137.659 49.92C136.672 48.1867 136.179 46.16 136.179 43.84C136.179 41.5467 136.685 39.5333 137.699 37.8C138.712 36.04 140.099 34.6933 141.859 33.76C143.619 32.8267 145.592 32.36 147.779 32.36C149.965 32.36 151.939 32.8267 153.699 33.76C155.459 34.6933 156.845 36.04 157.859 37.8C158.872 39.5333 159.379 41.5467 159.379 43.84C159.379 46.1333 158.859 48.16 157.819 49.92C156.805 51.6533 155.405 52.9867 153.619 53.92C151.859 54.8533 149.885 55.32 147.699 55.32ZM147.699 49.4C149.005 49.4 150.112 48.92 151.019 47.96C151.952 47 152.419 45.6267 152.419 43.84C152.419 42.0533 151.965 40.68 151.059 39.72C150.179 38.76 149.085 38.28 147.779 38.28C146.445 38.28 145.339 38.76 144.459 39.72C143.579 40.6533 143.139 42.0267 143.139 43.84C143.139 45.6267 143.565 47 144.419 47.96C145.299 48.92 146.392 49.4 147.699 49.4ZM169.847 36.4C170.647 35.1733 171.647 34.2133 172.847 33.52C174.047 32.8 175.381 32.44 176.847 32.44V39.68H174.967C173.261 39.68 171.981 40.0533 171.127 40.8C170.274 41.52 169.847 42.8 169.847 44.64V55H163.007V32.68H169.847V36.4ZM193.757 55L186.957 45.64V55H180.117V25.4H186.957V41.76L193.717 32.68H202.157L192.877 43.88L202.237 55H193.757ZM212.16 40.92C212.16 38.1467 212.76 35.68 213.96 33.52C215.16 31.3333 216.827 29.64 218.96 28.44C221.12 27.2133 223.56 26.6 226.28 26.6C229.613 26.6 232.467 27.48 234.84 29.24C237.213 31 238.8 33.4 239.6 36.44H232.08C231.52 35.2667 230.72 34.3733 229.68 33.76C228.667 33.1467 227.507 32.84 226.2 32.84C224.093 32.84 222.387 33.5733 221.08 35.04C219.773 36.5067 219.12 38.4667 219.12 40.92C219.12 43.3733 219.773 45.3333 221.08 46.8C222.387 48.2667 224.093 49 226.2 49C227.507 49 228.667 48.6933 229.68 48.08C230.72 47.4667 231.52 46.5733 232.08 45.4H239.6C238.8 48.44 237.213 50.84 234.84 52.6C232.467 54.3333 229.613 55.2 226.28 55.2C223.56 55.2 221.12 54.6 218.96 53.4C216.827 52.1733 215.16 50.48 213.96 48.32C212.76 46.16 212.16 43.6933 212.16 40.92ZM247.229 30.36C246.029 30.36 245.042 30.0133 244.269 29.32C243.522 28.6 243.149 27.72 243.149 26.68C243.149 25.6133 243.522 24.7333 244.269 24.04C245.042 23.32 246.029 22.96 247.229 22.96C248.402 22.96 249.362 23.32 250.109 24.04C250.882 24.7333 251.269 25.6133 251.269 26.68C251.269 27.72 250.882 28.6 250.109 29.32C249.362 30.0133 248.402 30.36 247.229 30.36ZM250.629 32.68V55H243.789V32.68H250.629ZM268.025 49.2V55H264.545C262.065 55 260.132 54.4 258.745 53.2C257.359 51.9733 256.665 49.9867 256.665 47.24V38.36H253.945V32.68H256.665V27.24H263.505V32.68H267.985V38.36H263.505V47.32C263.505 47.9867 263.665 48.4667 263.985 48.76C264.305 49.0533 264.839 49.2 265.585 49.2H268.025ZM294.635 32.68L280.635 65.6H273.275L278.395 54.24L269.315 32.68H276.955L282.115 46.64L287.235 32.68H294.635Z" fill="black"/>
<path d="M331.399 65.02C331.399 63.66 331.706 62.44 332.319 61.36C332.932 60.2667 333.766 59.4133 334.819 58.8C335.886 58.1867 337.066 57.88 338.359 57.88C339.879 57.88 341.206 58.2467 342.339 58.98C343.472 59.7133 344.299 60.7533 344.819 62.1H342.639C342.252 61.26 341.692 60.6133 340.959 60.16C340.239 59.7067 339.372 59.48 338.359 59.48C337.386 59.48 336.512 59.7067 335.739 60.16C334.966 60.6133 334.359 61.26 333.919 62.1C333.479 62.9267 333.259 63.9 333.259 65.02C333.259 66.1267 333.479 67.1 333.919 67.94C334.359 68.7667 334.966 69.4067 335.739 69.86C336.512 70.3133 337.386 70.54 338.359 70.54C339.372 70.54 340.239 70.32 340.959 69.88C341.692 69.4267 342.252 68.78 342.639 67.94H344.819C344.299 69.2733 343.472 70.3067 342.339 71.04C341.206 71.76 339.879 72.12 338.359 72.12C337.066 72.12 335.886 71.82 334.819 71.22C333.766 70.6067 332.932 69.76 332.319 68.68C331.706 67.6 331.399 66.38 331.399 65.02ZM349.348 57.2V72H347.528V57.2H349.348ZM357.23 72.18C356.203 72.18 355.27 71.9467 354.43 71.48C353.603 71.0133 352.95 70.3533 352.47 69.5C352.003 68.6333 351.77 67.6333 351.77 66.5C351.77 65.38 352.01 64.3933 352.49 63.54C352.983 62.6733 353.65 62.0133 354.49 61.56C355.33 61.0933 356.27 60.86 357.31 60.86C358.35 60.86 359.29 61.0933 360.13 61.56C360.97 62.0133 361.63 62.6667 362.11 63.52C362.603 64.3733 362.85 65.3667 362.85 66.5C362.85 67.6333 362.597 68.6333 362.09 69.5C361.597 70.3533 360.923 71.0133 360.07 71.48C359.217 71.9467 358.27 72.18 357.23 72.18ZM357.23 70.58C357.883 70.58 358.497 70.4267 359.07 70.12C359.643 69.8133 360.103 69.3533 360.45 68.74C360.81 68.1267 360.99 67.38 360.99 66.5C360.99 65.62 360.817 64.8733 360.47 64.26C360.123 63.6467 359.67 63.1933 359.11 62.9C358.55 62.5933 357.943 62.44 357.29 62.44C356.623 62.44 356.01 62.5933 355.45 62.9C354.903 63.1933 354.463 63.6467 354.13 64.26C353.797 64.8733 353.63 65.62 353.63 66.5C353.63 67.3933 353.79 68.1467 354.11 68.76C354.443 69.3733 354.883 69.8333 355.43 70.14C355.977 70.4333 356.577 70.58 357.23 70.58ZM374.963 61.04V72H373.143V70.38C372.796 70.94 372.31 71.38 371.683 71.7C371.07 72.0067 370.39 72.16 369.643 72.16C368.79 72.16 368.023 71.9867 367.343 71.64C366.663 71.28 366.123 70.7467 365.723 70.04C365.336 69.3333 365.143 68.4733 365.143 67.46V61.04H366.943V67.22C366.943 68.3 367.216 69.1333 367.763 69.72C368.31 70.2933 369.056 70.58 370.003 70.58C370.976 70.58 371.743 70.28 372.303 69.68C372.863 69.08 373.143 68.2067 373.143 67.06V61.04H374.963ZM377.356 66.48C377.356 65.36 377.583 64.38 378.036 63.54C378.489 62.6867 379.109 62.0267 379.896 61.56C380.696 61.0933 381.589 60.86 382.576 60.86C383.429 60.86 384.223 61.06 384.956 61.46C385.689 61.8467 386.249 62.36 386.636 63V57.2H388.476V72H386.636V69.94C386.276 70.5933 385.743 71.1333 385.036 71.56C384.329 71.9733 383.503 72.18 382.556 72.18C381.583 72.18 380.696 71.94 379.896 71.46C379.109 70.98 378.489 70.3067 378.036 69.44C377.583 68.5733 377.356 67.5867 377.356 66.48ZM386.636 66.5C386.636 65.6733 386.469 64.9533 386.136 64.34C385.803 63.7267 385.349 63.26 384.776 62.94C384.216 62.6067 383.596 62.44 382.916 62.44C382.236 62.44 381.616 62.6 381.056 62.92C380.496 63.24 380.049 63.7067 379.716 64.32C379.383 64.9333 379.216 65.6533 379.216 66.48C379.216 67.32 379.383 68.0533 379.716 68.68C380.049 69.2933 380.496 69.7667 381.056 70.1C381.616 70.42 382.236 70.58 382.916 70.58C383.596 70.58 384.216 70.42 384.776 70.1C385.349 69.7667 385.803 69.2933 386.136 68.68C386.469 68.0533 386.636 67.3267 386.636 66.5ZM395.432 72.18C394.592 72.18 393.838 72.04 393.172 71.76C392.505 71.4667 391.978 71.0667 391.592 70.56C391.205 70.04 390.992 69.4467 390.952 68.78H392.832C392.885 69.3267 393.138 69.7733 393.592 70.12C394.058 70.4667 394.665 70.64 395.412 70.64C396.105 70.64 396.652 70.4867 397.052 70.18C397.452 69.8733 397.652 69.4867 397.652 69.02C397.652 68.54 397.438 68.1867 397.012 67.96C396.585 67.72 395.925 67.4867 395.032 67.26C394.218 67.0467 393.552 66.8333 393.032 66.62C392.525 66.3933 392.085 66.0667 391.712 65.64C391.352 65.2 391.172 64.6267 391.172 63.92C391.172 63.36 391.338 62.8467 391.672 62.38C392.005 61.9133 392.478 61.5467 393.092 61.28C393.705 61 394.405 60.86 395.192 60.86C396.405 60.86 397.385 61.1667 398.132 61.78C398.878 62.3933 399.278 63.2333 399.332 64.3H397.512C397.472 63.7267 397.238 63.2667 396.812 62.92C396.398 62.5733 395.838 62.4 395.132 62.4C394.478 62.4 393.958 62.54 393.572 62.82C393.185 63.1 392.992 63.4667 392.992 63.92C392.992 64.28 393.105 64.58 393.332 64.82C393.572 65.0467 393.865 65.2333 394.212 65.38C394.572 65.5133 395.065 65.6667 395.692 65.84C396.478 66.0533 397.118 66.2667 397.612 66.48C398.105 66.68 398.525 66.9867 398.872 67.4C399.232 67.8133 399.418 68.3533 399.432 69.02C399.432 69.62 399.265 70.16 398.932 70.64C398.598 71.12 398.125 71.5 397.512 71.78C396.912 72.0467 396.218 72.18 395.432 72.18Z" fill="black"/>
<path d="M367 208C399.033 208 425 182.033 425 150C425 117.967 399.033 92 367 92C334.967 92 309 117.967 309 150C309 182.033 334.967 208 367 208Z" fill="#4793FF"/>
<path d="M367 208C399.033 208 425 182.033 425 150C425 117.967 399.033 92 367 92C334.967 92 309 117.967 309 150C309 182.033 334.967 208 367 208Z" fill="#4793FF"/>
<path d="M425 150C425 146.197 424.63 142.48 423.931 138.881L406.265 119.646C406.265 119.646 372.664 111.711 370.398 125.909C368.133 140.107 324.725 172.76 324.725 172.76L359.48 207.515C361.942 207.834 364.452 208 367 208C399.033 208 425 182.033 425 150Z" fill="#424FDD"/>
<path d="M387.38 159.519C400.857 159.519 411.782 148.594 411.782 135.118C411.782 121.641 400.857 110.716 387.38 110.716C373.903 110.716 362.978 121.641 362.978 135.118C362.978 148.594 373.903 159.519 387.38 159.519Z" fill="#FFEA92"/>
<path d="M411.782 135.117C411.782 148.595 400.858 159.52 387.379 159.52V110.716C400.858 110.716 411.782 121.641 411.782 135.117Z" fill="#FFDD50"/>
<path d="M384.555 147.398C383.963 147.398 383.38 147.436 382.807 147.503C382.863 146.86 382.894 146.21 382.894 145.552C382.894 133.383 373.028 123.517 360.859 123.517C350.724 123.517 342.188 130.361 339.617 139.678C338.801 139.571 337.968 139.515 337.123 139.515C326.664 139.515 318.186 147.993 318.186 158.452C318.186 168.911 326.664 177.389 337.123 177.389H384.555C392.837 177.389 399.55 170.676 399.55 162.394C399.55 154.112 392.837 147.398 384.555 147.398Z" fill="white"/>
<path d="M399.55 162.393C399.55 170.675 392.837 177.389 384.555 177.389H358.868V123.606C359.524 123.546 360.188 123.517 360.859 123.517C373.029 123.517 382.894 133.382 382.894 145.552C382.894 146.21 382.863 146.86 382.806 147.502C383.38 147.436 383.962 147.397 384.554 147.397C392.837 147.397 399.55 154.112 399.55 162.393Z" fill="#DAEFEC"/>
<g clip-path="url(#clip0)">
<path d="M185.15 118.766H210.85V154.913H185.15V118.766Z" fill="#BCD8D3"/>
<path d="M198 118.766H210.851V154.914H198V118.766Z" fill="#A3C1BB"/>
<path d="M185.893 152.297V165.786C180.869 169.5 177.61 175.466 177.61 182.194C177.61 193.455 186.739 202.584 198 202.584C209.261 202.584 218.391 193.455 218.391 182.194C218.391 175.466 215.132 169.5 210.107 165.786V152.297H185.893Z" fill="#FF8659"/>
<path d="M218.391 182.194C218.391 193.454 209.262 202.585 198 202.585V152.297H210.108V165.786C215.133 169.5 218.391 175.465 218.391 182.194Z" fill="#FF405C"/>
<path d="M215.205 160.886V125.205C215.205 115.719 207.486 108 198 108V118.195C201.865 118.195 205.01 121.34 205.01 125.205V165.853L207.076 167.38C211.027 170.3 213.293 174.786 213.293 179.689C213.293 188.122 206.433 194.982 198 194.982V205.177C212.054 205.177 223.488 193.743 223.488 179.689C223.488 172.536 220.432 165.685 215.205 160.886Z" fill="#DAEFEC"/>
<path d="M215.205 161.381V125.7C215.205 116.214 207.486 108.495 198 108.495V118.69C201.865 118.69 205.01 121.835 205.01 125.7V166.348L207.076 167.875C211.027 170.795 213.293 175.281 213.293 180.184C213.293 188.616 206.433 195.477 198 195.477V205.672C212.054 205.672 223.488 194.237 223.488 180.184C223.488 173.031 220.432 166.18 215.205 161.381Z" fill="#DAEFEC"/>
<path d="M181.284 160.886V125.205C181.284 115.719 189.003 108 198.49 108V118.195C194.625 118.195 191.48 121.34 191.48 125.205V165.853L189.413 167.38C185.462 170.3 183.196 174.786 183.196 179.689C183.196 188.122 190.057 194.982 198.49 194.982V205.177C184.435 205.177 173 193.743 173 179.689C173 172.536 176.057 165.685 181.284 160.886Z" fill="#DAEFEC"/>
<path d="M227.134 118.27C227.981 117.59 228.644 117.033 229.124 116.6C229.604 116.16 230.007 115.703 230.334 115.23C230.667 114.75 230.834 114.28 230.834 113.82C230.834 113.387 230.727 113.047 230.514 112.8C230.307 112.547 229.971 112.42 229.504 112.42C229.051 112.42 228.697 112.563 228.444 112.85C228.197 113.13 228.064 113.507 228.044 113.98H227.164C227.191 113.233 227.417 112.657 227.844 112.25C228.271 111.843 228.821 111.64 229.494 111.64C230.181 111.64 230.724 111.83 231.124 112.21C231.531 112.59 231.734 113.113 231.734 113.78C231.734 114.333 231.567 114.873 231.234 115.4C230.907 115.92 230.534 116.38 230.114 116.78C229.694 117.173 229.157 117.633 228.504 118.16H231.944V118.92H227.134V118.27ZM237.026 113.49C236.879 112.75 236.423 112.38 235.656 112.38C235.063 112.38 234.619 112.61 234.326 113.07C234.033 113.523 233.889 114.273 233.896 115.32C234.049 114.973 234.303 114.703 234.656 114.51C235.016 114.31 235.416 114.21 235.856 114.21C236.543 114.21 237.089 114.423 237.496 114.85C237.909 115.277 238.116 115.867 238.116 116.62C238.116 117.073 238.026 117.48 237.846 117.84C237.673 118.2 237.406 118.487 237.046 118.7C236.693 118.913 236.263 119.02 235.756 119.02C235.069 119.02 234.533 118.867 234.146 118.56C233.759 118.253 233.489 117.83 233.336 117.29C233.183 116.75 233.106 116.083 233.106 115.29C233.106 112.843 233.959 111.62 235.666 111.62C236.319 111.62 236.833 111.797 237.206 112.15C237.579 112.503 237.799 112.95 237.866 113.49H237.026ZM235.666 114.98C235.379 114.98 235.109 115.04 234.856 115.16C234.603 115.273 234.396 115.45 234.236 115.69C234.083 115.923 234.006 116.21 234.006 116.55C234.006 117.057 234.153 117.47 234.446 117.79C234.739 118.103 235.159 118.26 235.706 118.26C236.173 118.26 236.543 118.117 236.816 117.83C237.096 117.537 237.236 117.143 237.236 116.65C237.236 116.13 237.103 115.723 236.836 115.43C236.569 115.13 236.179 114.98 235.666 114.98ZM245.94 119L243.07 115.82V119H242.16V112.03H243.07V115.26L245.95 112.03H247.1L243.94 115.52L247.13 119H245.94Z" fill="black"/>
<line opacity="0.3" x1="198.009" y1="120.5" x2="256.009" y2="121.5" stroke="black"/>
<path d="M224.559 149.905C225.829 148.885 226.824 148.05 227.544 147.4C228.264 146.74 228.869 146.055 229.359 145.345C229.859 144.625 230.109 143.92 230.109 143.23C230.109 142.58 229.949 142.07 229.629 141.7C229.319 141.32 228.814 141.13 228.114 141.13C227.434 141.13 226.904 141.345 226.524 141.775C226.154 142.195 225.954 142.76 225.924 143.47H224.604C224.644 142.35 224.984 141.485 225.624 140.875C226.264 140.265 227.089 139.96 228.099 139.96C229.129 139.96 229.944 140.245 230.544 140.815C231.154 141.385 231.459 142.17 231.459 143.17C231.459 144 231.209 144.81 230.709 145.6C230.219 146.38 229.659 147.07 229.029 147.67C228.399 148.26 227.594 148.95 226.614 149.74H231.774V150.88H224.559V149.905ZM232.992 141.4V140.155H235.812V151H234.432V141.4H232.992ZM248.051 151L243.746 146.23V151H242.381V140.545H243.746V145.39L248.066 140.545H249.791L245.051 145.78L249.836 151H248.051Z" fill="black"/>
<line opacity="0.3" x1="198.009" y1="151.5" x2="256.009" y2="152.5" stroke="black"/>
<path d="M228.278 189.6V188.77H230.158V196H229.238V189.6H228.278ZM235.752 190.49C235.605 189.75 235.148 189.38 234.382 189.38C233.788 189.38 233.345 189.61 233.052 190.07C232.758 190.523 232.615 191.273 232.622 192.32C232.775 191.973 233.028 191.703 233.382 191.51C233.742 191.31 234.142 191.21 234.582 191.21C235.268 191.21 235.815 191.423 236.222 191.85C236.635 192.277 236.842 192.867 236.842 193.62C236.842 194.073 236.752 194.48 236.572 194.84C236.398 195.2 236.132 195.487 235.772 195.7C235.418 195.913 234.988 196.02 234.482 196.02C233.795 196.02 233.258 195.867 232.872 195.56C232.485 195.253 232.215 194.83 232.062 194.29C231.908 193.75 231.832 193.083 231.832 192.29C231.832 189.843 232.685 188.62 234.392 188.62C235.045 188.62 235.558 188.797 235.932 189.15C236.305 189.503 236.525 189.95 236.592 190.49H235.752ZM234.392 191.98C234.105 191.98 233.835 192.04 233.582 192.16C233.328 192.273 233.122 192.45 232.962 192.69C232.808 192.923 232.732 193.21 232.732 193.55C232.732 194.057 232.878 194.47 233.172 194.79C233.465 195.103 233.885 195.26 234.432 195.26C234.898 195.26 235.268 195.117 235.542 194.83C235.822 194.537 235.962 194.143 235.962 193.65C235.962 193.13 235.828 192.723 235.562 192.43C235.295 192.13 234.905 191.98 234.392 191.98ZM244.665 196L241.795 192.82V196H240.885V189.03H241.795V192.26L244.675 189.03H245.825L242.665 192.52L245.855 196H244.665Z" fill="black"/>
<line opacity="0.3" x1="198.009" y1="197.5" x2="256.009" y2="198.5" stroke="black"/>
</g>
<path d="M112 158C112 157.393 111.989 156.787 111.968 156.185C111.012 129.412 89.0068 108 62 108C34.9932 108 12.9875 129.412 12.0324 156.185C12.0109 156.787 12 157.393 12 158C12 185.614 37.684 206.186 62 206.186C86.7566 206.186 112 185.614 112 158Z" fill="#FF5876"/>
<path d="M62 204.371C34.9936 204.371 12.9918 182.959 12.0363 156.185C12.0146 156.788 12 157.392 12 158C12 185.614 34.3857 208 62 208C89.6143 208 112 185.614 112 158C112 157.392 111.985 156.788 111.964 156.185C111.008 182.959 89.0064 204.371 62 204.371Z" fill="#E6485D"/>
<path d="M103.683 156.185C102.733 133.985 84.4346 116.278 62 116.278C39.5654 116.278 21.2666 133.985 20.3166 156.185C20.2908 156.787 20.3164 197.068 62 197.068C103.684 197.068 103.709 156.787 103.683 156.185V156.185Z" fill="#E4EEF9"/>
<path d="M62 196.093C39.5656 196.093 21.2697 178.386 20.3193 156.185C20.2935 156.787 20.2777 157.392 20.2777 158C20.2777 181.042 38.9574 199.722 62 199.722C85.0425 199.722 103.722 181.043 103.722 158C103.722 157.392 103.706 156.787 103.681 156.185C102.73 178.386 84.4343 196.093 62 196.093V196.093Z" fill="#D5E0F2"/>
<path d="M83.4132 177.499C83.0699 177.499 82.725 177.383 82.4414 177.145L63.2865 161.056C62.6472 160.519 62.564 159.565 63.1011 158.925C63.6383 158.286 64.592 158.203 65.2316 158.74L84.3865 174.83C85.0257 175.367 85.109 176.321 84.5718 176.96C84.2728 177.316 83.8445 177.499 83.4132 177.499Z" fill="#86DCFF"/>
<path d="M57.7191 150.861L41.6249 136.519C40.3779 135.407 38.4663 135.517 37.3552 136.764C36.2441 138.011 36.354 139.923 37.6011 141.034L54.0122 155.659L57.432 154.518L57.7191 150.861Z" fill="#405B6C"/>
<path d="M54.0123 155.659L56.8365 158.176L60.4635 156.943L60.2668 153.131L57.7194 150.861C55.9469 151.926 54.6053 153.632 54.0123 155.659Z" fill="#2D4456"/>
<path d="M77.1553 143.361C75.966 142.189 74.0512 142.202 72.8785 143.391L65.782 150.585L66.4951 154.011L69.81 155.115L77.1848 147.638C78.3574 146.449 78.3443 144.534 77.1553 143.361V143.361Z" fill="#405B6C"/>
<path d="M65.7818 150.586L63.3807 153.02V157.798H67.1631L69.81 155.115C69.0826 153.147 67.632 151.531 65.7818 150.586Z" fill="#2D4456"/>
<path d="M66.8404 156.185C66.1056 154.226 64.2156 152.832 62 152.832C59.7843 152.832 57.8943 154.226 57.1595 156.185C56.9478 156.75 57.1455 161.353 62 161.353C66.8544 161.353 67.0521 156.75 66.8404 156.185V156.185Z" fill="#FF5876"/>
<path d="M62 159.539C59.7844 159.539 57.8951 158.145 57.1604 156.186C56.9484 156.75 56.8318 157.361 56.8318 158C56.8318 160.854 59.1457 163.168 61.9998 163.168C64.8541 163.168 67.1678 160.854 67.1678 158C67.1678 157.361 67.0512 156.75 66.8395 156.186C66.1049 158.144 64.2156 159.539 62 159.539Z" fill="#E6485D"/>
<path d="M63.5151 126.276V121.583C63.5151 120.746 62.8368 120.068 62 120.068C61.1633 120.068 60.485 120.746 60.485 121.583V126.276C60.485 127.113 61.1631 127.791 62 127.791C62.837 127.791 63.5151 127.113 63.5151 126.276Z" fill="#405B6C"/>
<path d="M60.485 189.724V194.417C60.485 195.254 61.1631 195.932 62 195.932C62.837 195.932 63.5151 195.254 63.5151 194.417V189.724C63.5151 188.887 62.8368 188.209 62 188.209C61.1633 188.209 60.485 188.887 60.485 189.724Z" fill="#405B6C"/>
<path d="M98.4168 159.515C99.2537 159.515 99.9318 158.837 99.9318 158C99.9318 157.163 99.2535 156.485 98.4168 156.485H93.724C92.8873 156.485 92.209 157.163 92.209 158C92.209 158.837 92.8873 159.515 93.724 159.515H98.4168Z" fill="#405B6C"/>
<path d="M25.5832 156.485C24.7463 156.485 24.0682 157.163 24.0682 158C24.0682 158.837 24.7463 159.515 25.5832 159.515H30.276C31.1129 159.515 31.791 158.837 31.791 158C31.791 157.163 31.1127 156.485 30.276 156.485H25.5832Z" fill="#405B6C"/>
<defs>
<radialGradient id="paint0_angular" cx="0" cy="0" r="1" gradientUnits="userSpaceOnUse" gradientTransform="translate(361 94.9073) rotate(160.042) scale(384.065 358.172)">
<stop offset="0.0111499" stop-color="#FFEA92"/>
<stop offset="0.0758298" stop-color="#FFD787"/>
<stop offset="0.134651" stop-color="#FFC67D"/>
<stop offset="0.234163" stop-color="#FF8659"/>
<stop offset="0.574376" stop-color="#2DE1FD"/>
<stop offset="0.921845" stop-color="#D4E8A8"/>
</radialGradient>
<clipPath id="clip0">
<rect width="116" height="116" fill="white" transform="translate(140 102)"/>
</clipPath>
</defs>
</svg>
