<svg id="Layer_1" enable-background="new 0 0 512 512" height="512" viewBox="0 0 512 512" width="512" xmlns="http://www.w3.org/2000/svg"><g><path d="m191.733 412.4h-176.733c-8.284 0-15-6.716-15-15s6.716-15 15-15h176.733c8.284 0 15 6.716 15 15s-6.715 15-15 15z" fill="#9bf0ff"/><path d="m79.267 129.6h-64.267c-8.284 0-15-6.716-15-15s6.716-15 15-15h64.267c8.284 0 15 6.716 15 15s-6.716 15-15 15z" fill="#9bf0ff"/><path d="m453.601 122.472c-33.065-.463-60.112 26.3-60.112 59.261 0 14.248 11.54 20.57 17.963 21.75 14.022 2.575 26.291-8.169 26.304-21.728.006-6.542 4.122-12.463 10.391-14.335 10.25-3.06 19.609 4.534 19.609 14.313 0 28.747-23.387 52.133-52.133 52.133h-400.623c-8.284 0-15 6.716-15 15v14.267c0 8.284 6.716 15 15 15h400.622c51.611 0 94.513-40.715 96.339-92.934 1.173-33.52-24.823-62.257-58.36-62.727z" fill="#17bcfe"/><path d="m285.656 308.133h-270.656c-8.284 0-15 6.716-15 15v14.267c0 8.284 6.716 15 15 15h270.656c28.499 0 51.729 22.985 52.128 51.391.116 8.231-6.422 15.555-14.652 15.739-8.441.189-15.343-6.598-15.343-14.996 0-12.205-9.929-22.133-22.133-22.133-12.076 0-22.133 9.711-22.133 22.133 0 32.961 27.047 59.724 60.112 59.261 33.537-.47 59.533-29.207 58.361-62.727-1.824-52.118-44.612-92.935-96.34-92.935z" fill="#2de1fd"/><path d="m155.689 203.867h-140.686c-8.284 0-15-6.716-15-15v-14.267c0-8.284 6.716-15 15-15h140.685c28.499 0 51.729-22.985 52.128-51.391.116-8.231-6.422-15.555-14.652-15.739-8.441-.189-15.343 6.598-15.343 14.996 0 12.205-9.929 22.133-22.133 22.133-12.076 0-22.133-9.711-22.133-22.133 0-32.961 27.047-59.724 60.112-59.261 33.537.47 59.533 29.207 58.361 62.727-1.823 52.118-44.611 92.935-96.339 92.935z" fill="#2de1fd"/><path d="m511.962 185.199c1.172-33.52-24.824-62.258-58.361-62.727-33.065-.463-60.112 26.3-60.112 59.261 0 14.248 11.54 20.57 17.963 21.75 14.022 2.575 26.291-8.169 26.304-21.728.006-6.542 4.122-12.463 10.391-14.335 10.25-3.06 19.609 4.534 19.609 14.313 0 28.747-23.387 52.133-52.133 52.133h-163.595v44.267h163.594c51.612 0 94.513-40.715 96.34-92.934z" fill="#0096ff"/><path d="m337.784 403.791c.116 8.231-6.422 15.555-14.652 15.739-8.441.189-15.343-6.598-15.343-14.996 0-12.205-9.929-22.133-22.133-22.133-12.076 0-22.133 9.711-22.133 22.133 0 32.961 27.047 59.724 60.112 59.261 33.537-.47 59.533-29.207 58.361-62.727-1.823-52.117-44.611-92.934-96.339-92.934h-33.627v44.266h33.627c28.497 0 51.728 22.985 52.127 51.391z" fill="#17bcfe"/></g></svg>