<svg id="Layer_1" enable-background="new 0 0 512 512" height="512" viewBox="0 0 512 512" width="512" xmlns="http://www.w3.org/2000/svg"><g><g id="XMLID_276_"><g><g id="XMLID_902_"><g id="XMLID_921_"><g id="XMLID_922_"><g id="XMLID_923_"><g id="XMLID_1206_"><g id="XMLID_1450_"><g id="XMLID_1574_"><g id="XMLID_1575_"><g id="XMLID_1576_"><g id="XMLID_1577_"><g id="XMLID_1578_"><g id="XMLID_1579_"><g id="XMLID_1580_"><g id="XMLID_1581_"><circle cx="256" cy="256" fill="#00337a" r="256"/></g></g></g></g></g></g></g></g></g></g></g></g></g></g></g></g><path d="m512 256c0-7.283-.321-14.49-.917-21.618l-132.053-132.053s-161.03 16.671-166.03 130.671-77.636 160.081-77.636 160.081l118.897 118.897c.581.004 1.158.022 1.739.022 141.385 0 256-114.615 256-256z" fill="#002659"/><g><path d="m288.09 256c0-66.226 36.738-123.866 90.941-153.671-31.404-22.915-70.089-36.449-111.941-36.449-105 0-190.12 85.12-190.12 190.12s85.12 190.12 190.12 190.12c41.852 0 80.537-13.534 111.941-36.449-54.204-29.805-90.941-87.445-90.941-153.671z" fill="#fff4c5"/><path d="m379.03 409.67c-31.4 22.92-70.09 36.45-111.94 36.45-6.1 0-12.14-.29-18.09-.85v-378.54c5.95-.56 11.99-.85 18.09-.85 41.85 0 80.54 13.53 111.94 36.45-54.2 29.8-90.94 87.44-90.94 153.67s36.74 123.87 90.94 153.67z" fill="#ffea92"/></g></g></svg>