<svg id="Layer_1" enable-background="new 0 0 512 512" height="512" viewBox="0 0 512 512" width="512" xmlns="http://www.w3.org/2000/svg"><g><g id="XMLID_28_"><g><g id="XMLID_754_"><g id="XMLID_755_"><g id="XMLID_756_"><g id="XMLID_757_"><g id="XMLID_758_"><g id="XMLID_759_"><g id="XMLID_760_"><g id="XMLID_761_"><g id="XMLID_762_"><g id="XMLID_763_"><g id="XMLID_764_"><g id="XMLID_765_"><g id="XMLID_766_"><g id="XMLID_781_"><circle cx="256" cy="256" fill="#51eaf2" r="256"/></g></g></g></g></g></g></g></g></g></g></g></g></g></g></g></g><path d="m510.112 287.125-158.986-159.137-2.434-2.231-270.607 214.939 171.217 171.217c2.226.057 4.458.087 6.698.087 130.848 0 238.753-98.172 254.112-224.875z" fill="#22c2d3"/><path d="m386.962 211.705c-3.04 0-6.033.195-8.98.538.29-3.302.447-6.643.447-10.02 0-62.519-50.682-113.2-113.2-113.2-52.069 0-95.92 35.157-109.127 83.026-4.194-.552-8.47-.841-12.814-.841-53.73 0-97.287 43.557-97.287 97.287s43.557 97.287 97.287 97.287h243.675c42.547 0 77.038-34.491 77.038-77.038s-34.492-77.039-77.039-77.039z" fill="#fff"/><g><path d="m464 288.74c0 42.55-34.49 77.04-77.04 77.04h-131.96v-276.3c3.37-.31 6.78-.46 10.23-.46 62.52 0 113.2 50.68 113.2 113.2 0 3.38-.16 6.72-.45 10.02 2.95-.34 5.94-.54 8.98-.54 42.55 0 77.04 34.5 77.04 77.04z" fill="#daefec"/></g></g></svg>