<svg id="Layer_1" enable-background="new 0 0 512 512" height="512" viewBox="0 0 512 512" width="512" xmlns="http://www.w3.org/2000/svg"><g><g id="XMLID_72_"><g><g id="XMLID_1445_"><g id="XMLID_1446_"><g id="XMLID_1449_"><g id="XMLID_1547_"><g id="XMLID_1633_"><g id="XMLID_1634_"><g id="XMLID_1635_"><g id="XMLID_1636_"><g id="XMLID_1637_"><g id="XMLID_1638_"><g id="XMLID_1696_"><g id="XMLID_1697_"><g id="XMLID_1717_"><circle id="XMLID_1718_" cx="256" cy="256" fill="#4793ff" r="256"/></g></g></g></g></g></g></g></g></g></g></g></g></g></g></g><path d="m512 256c0-10.121-.607-20.099-1.749-29.914l-100.241-100.535s-14.3 8.34-19.26 7.01l-52.02-53.83c-7.73 30.33-49.34 15.77-59.6 7.87l-22.88-24.09 15.67 83.11s-180.94 137.02-233.47 134.69l235.314 231.065c133.095-9.125 238.236-119.964 238.236-255.376z" fill="#424fdd"/><g><path d="m473.81 279.561h-435.61c17.41-11.13 26.83-29.92 26.83-49.06 0-11.55-3.43-23.23-10.61-33.42l1.55-.28c32.4-5.92 53.43-37.54 46.36-69.71l-.34-1.54c4.21.93 8.41 1.37 12.55 1.37 27.63 0 52.31-19.83 57.24-48.22l1.3.89c27.1 18.73 64.33 11.24 82.07-16.51l.85-1.32c11.14 17.41 29.93 26.83 49.06 26.83 11.55 0 23.22-3.43 33.42-10.61 5.28 28.9 30.47 48.98 58.65 48.98 4.24 0 8.56-.46 12.88-1.41-.93 4.21-1.37 8.41-1.37 12.55 0 27.63 19.83 52.31 48.23 57.24l-.9 1.3c-18.73 27.1-11.24 64.32 16.51 82.07z" fill="#ffb522"/><path d="m473.81 279.561h-217.81v-217.8c11.14 17.41 29.93 26.83 49.06 26.83 11.55 0 23.22-3.43 33.42-10.61 5.28 28.9 30.47 48.98 58.65 48.98 4.24 0 8.56-.46 12.88-1.41-.93 4.21-1.37 8.41-1.37 12.55 0 27.63 19.83 52.31 48.23 57.24l-.9 1.3c-18.73 27.1-11.24 64.32 16.51 82.07z" fill="#fd9827"/><g><g><g id="XMLID_744_"><g><g id="XMLID_1698_"><g id="XMLID_1699_"><g id="XMLID_1706_"><g id="XMLID_1707_"><g id="XMLID_1708_"><g id="XMLID_1709_"><g id="XMLID_1710_"><g id="XMLID_1711_"><g id="XMLID_1712_"><g id="XMLID_1713_"><g id="XMLID_1714_"><g id="XMLID_1715_"><g id="XMLID_1716_"><g><path d="m408.67 279.561h-305.34c0-84.31 68.36-152.67 152.67-152.67s152.67 68.36 152.67 152.67z" fill="#ffe05f"/></g></g></g></g></g></g></g></g></g></g></g></g></g></g></g></g><g id="XMLID_120_"><g><g id="XMLID_1677_"><g id="XMLID_1678_"><g id="XMLID_1680_"><g id="XMLID_1681_"><g id="XMLID_1683_"><g id="XMLID_1684_"><g id="XMLID_1685_"><g id="XMLID_1700_"><g id="XMLID_1701_"><g id="XMLID_1702_"><g id="XMLID_1703_"><g id="XMLID_1704_"><g id="XMLID_1705_"><g><path d="m408.67 279.561h-152.67v-152.67c16.11 0 31.63 2.49 46.21 7.12 61.72 19.581 106.46 77.35 106.46 145.55z" fill="#f9cb0d"/></g></g></g></g></g></g></g></g></g></g></g></g></g></g></g></g></g></g><g><g><g><path d="m103.33 312.561h305.34v30h-305.34z" fill="#ffe05f"/></g></g></g><g><g><path d="m170.864 373.561h170.271v30h-170.271z" fill="#ffe05f"/></g></g><g><g><path d="m256 312.561h152.67v30h-152.67z" fill="#f9cb0d"/></g></g><g><g><path d="m256 373.561h85.14v30h-85.14z" fill="#f9cb0d"/></g></g></g></g></svg>