<svg id="Layer_1" enable-background="new 0 0 512 512" height="512" viewBox="0 0 512 512" width="512" xmlns="http://www.w3.org/2000/svg"><g><g id="XMLID_21_"><g><circle cx="256" cy="256" fill="#ff8659" r="256"/></g></g><path d="m512 256c0-22.342-2.869-44.012-8.247-64.669l-126.953-126.954-303.419 219.729 67.133 67.133-26.685 90.761 54.638 54.638c27.31 9.937 56.787 15.362 87.533 15.362 141.385 0 256-114.615 256-256z" fill="#ff405c"/><g><g><path d="m262.724 339.967h30v102.033h-30z" fill="#22c2d3"/></g><g><path d="m337.172 339.967h30v62.602h-30z" fill="#22c2d3"/></g><g><path d="m113.828 339.967h30v102.033h-30z" fill="#51eaf2"/></g><g><path d="m188.276 339.967h30v62.602h-30z" fill="#51eaf2"/></g></g><g><g><path d="m408.36 134.925c-2.484 0-4.93.16-7.34.44.237-2.699.365-5.429.365-8.189 0-51.096-41.421-92.517-92.517-92.517-42.555 0-78.393 28.733-89.187 67.856-3.427-.451-6.922-.687-10.473-.687-43.913 0-79.511 35.598-79.511 79.511s35.598 79.511 79.511 79.511h199.152c34.773 0 62.962-28.189 62.962-62.962s-28.189-62.963-62.962-62.963z" fill="#00337a"/><g><path d="m471.322 197.885c0 34.775-28.188 62.964-62.964 62.964h-107.848v-225.816c2.754-.253 5.541-.376 8.361-.376 51.097 0 92.517 41.42 92.517 92.517 0 2.762-.131 5.492-.368 8.189 2.411-.278 4.854-.441 7.339-.441 34.775-.001 62.963 28.195 62.963 62.963z" fill="#002659"/></g></g><g><path d="m326.128 178.965c-2.484 0-4.93.16-7.339.44.237-2.699.365-5.429.365-8.189 0-51.096-41.421-92.517-92.517-92.517-42.555 0-78.393 28.733-89.187 67.856-3.427-.451-6.922-.687-10.473-.687-43.913 0-79.511 35.598-79.511 79.511s35.598 79.511 79.511 79.511h199.151c34.773 0 62.962-28.189 62.962-62.962 0-34.774-28.189-62.963-62.962-62.963z" fill="#fff"/><g><path d="m389.09 241.924c0 34.775-28.188 62.964-62.964 62.964h-107.848v-225.816c2.754-.253 5.541-.376 8.361-.376 51.097 0 92.517 41.42 92.517 92.516 0 2.762-.131 5.492-.368 8.189 2.411-.278 4.855-.441 7.339-.441 34.775.001 62.963 28.197 62.963 62.964z" fill="#daefec"/></g></g></g></g></svg>