<svg id="Layer_1" enable-background="new 0 0 512 512" height="512" viewBox="0 0 512 512" width="512" xmlns="http://www.w3.org/2000/svg"><g><g id="XMLID_30_"><g><g id="XMLID_1619_"><g id="XMLID_1620_"><g id="XMLID_1621_"><g id="XMLID_1622_"><g id="XMLID_1623_"><g id="XMLID_1624_"><g id="XMLID_1625_"><g id="XMLID_1626_"><g id="XMLID_1627_"><g id="XMLID_1628_"><g id="XMLID_1629_"><g id="XMLID_1630_"><g id="XMLID_1632_"><g id="XMLID_1688_"><circle cx="256" cy="256" fill="#00337a" r="256"/></g></g></g></g></g></g></g></g></g></g></g></g></g></g></g></g><path d="m512 256c0-6.259-.236-12.463-.678-18.61l-176.303-177.252s-61.288 146.338-65.019 153.363l-91.019-84.946-80.034 258.559 122.656 122.579c11.252 1.511 22.731 2.307 34.397 2.307 141.385 0 256-114.615 256-256z" fill="#002659"/><g><path d="m335.019 60.137-87.294 103.569c-38.454 45.623-35.29 113.162 7.26 154.99 44.421 43.668 115.647 43.668 160.068 0 42.55-41.829 45.713-109.368 7.26-154.99z" fill="#51eaf2"/><path d="m449.185 237.257c0 29.64-11.485 59.177-34.13 81.44-22.216 21.834-51.129 32.751-80.033 32.751v-291.313l87.29 103.572c17.987 21.35 26.873 47.487 26.873 73.55z" fill="#22c2d3"/><path d="m178.981 128.554-87.294 103.569c-38.453 45.623-35.29 113.162 7.26 154.99 44.421 43.668 115.647 43.668 160.068 0 42.55-41.829 45.713-109.368 7.26-154.99z" fill="#fff"/><path d="m293.147 305.674c0 29.64-11.485 59.177-34.13 81.44-22.216 21.834-51.129 32.751-80.033 32.751v-291.313l87.29 103.572c17.987 21.349 26.873 47.487 26.873 73.55z" fill="#daefec"/></g></g></svg>