<svg id="Layer_1" enable-background="new 0 0 512 512" height="512" viewBox="0 0 512 512" width="512" xmlns="http://www.w3.org/2000/svg"><g><g id="XMLID_239_"><g><g id="XMLID_1728_"><g id="XMLID_1732_"><g id="XMLID_1742_"><g id="XMLID_1745_"><g id="XMLID_1836_"><g id="XMLID_1837_"><g id="XMLID_1838_"><g id="XMLID_1839_"><g id="XMLID_1840_"><g id="XMLID_1930_"><g id="XMLID_1931_"><g id="XMLID_1932_"><g id="XMLID_1933_"><g id="XMLID_1934_"><circle cx="256" cy="256" fill="#4793ff" r="256"/></g></g></g></g></g></g></g></g></g></g></g></g></g></g></g></g><g><g id="XMLID_109_"><g><g id="XMLID_1594_"><g id="XMLID_1597_"><g id="XMLID_1598_"><g id="XMLID_1599_"><g id="XMLID_1600_"><g id="XMLID_1602_"><g id="XMLID_1687_"><g id="XMLID_1689_"><g id="XMLID_1720_"><g id="XMLID_1721_"><g id="XMLID_1722_"><g id="XMLID_1723_"><g id="XMLID_1724_"><g id="XMLID_1726_"><circle cx="256" cy="256" fill="#4793ff" r="256"/></g></g></g></g></g></g></g></g></g></g></g></g></g></g></g></g><path d="m512 256c0-16.788-1.634-33.192-4.719-49.078l-77.972-84.899s-148.309-35.023-158.309 27.644c-10 62.666-201.593 206.791-201.593 206.791l153.403 153.403c10.865 1.407 21.942 2.139 33.19 2.139 141.385 0 256-114.615 256-256z" fill="#424fdd"/><circle cx="345.953" cy="190.312" fill="#ffea92" r="107.704"/><path d="m453.66 190.31c0 59.49-48.22 107.71-107.71 107.71v-215.41c59.49 0 107.71 48.22 107.71 107.7z" fill="#ffdd50"/><g><g><path d="m333.483 244.515c-2.612 0-5.183.168-7.716.462.249-2.837.384-5.707.384-8.609 0-53.713-43.543-97.257-97.257-97.257-44.735 0-82.41 30.205-93.757 71.332-3.603-.474-7.277-.722-11.009-.722-46.163 0-83.585 37.422-83.585 83.585s37.422 83.585 83.585 83.585h209.355c36.555 0 66.188-29.633 66.188-66.188s-29.633-66.188-66.188-66.188z" fill="#fff"/><g><path d="m399.671 310.7c0 36.557-29.632 66.189-66.189 66.189h-113.375v-237.385c2.895-.266 5.825-.395 8.789-.395 53.715 0 97.257 43.542 97.257 97.257 0 2.904-.137 5.773-.387 8.609 2.534-.292 5.103-.464 7.715-.464 36.558-.001 66.19 29.64 66.19 66.189z" fill="#daefec"/></g></g></g></g></g></svg>