<svg id="Layer_1" enable-background="new 0 0 512 512" height="512" viewBox="0 0 512 512" width="512" xmlns="http://www.w3.org/2000/svg"><g><g id="XMLID_709_"><g><g id="XMLID_1813_"><g id="XMLID_1821_"><g id="XMLID_1822_"><g id="XMLID_1823_"><g id="XMLID_1824_"><g id="XMLID_1825_"><g id="XMLID_1826_"><g id="XMLID_1827_"><g id="XMLID_1828_"><g id="XMLID_1829_"><g id="XMLID_1830_"><g id="XMLID_1831_"><g id="XMLID_1832_"><g id="XMLID_1970_"><circle cx="256" cy="256" fill="#00337a" r="256"/></g></g></g></g></g></g></g></g></g></g></g></g></g></g></g></g><path d="m512 256c0-11.359-.749-22.542-2.183-33.51l-38.987-38.986-225.485 20.652-113.101-110.641-47.488 324.975 74.632 74.632c29.814 12.16 62.426 18.878 96.612 18.878 141.385 0 256-114.615 256-256z" fill="#002659"/><g><g><path d="m238.277 307.773-142.484-61.776 141.378-75.601 14.146 26.455-86.622 46.321 85.516 37.077z" fill="#51eaf2"/></g><g><path d="m250.21 280.25-11.93 27.52-17.78-7.71-124.71-54.06 5.29-2.83h63.61l55.81 24.2z" fill="#24cee0"/></g><g><path d="m84.756 109.487h47.488v309.003h-47.488z" fill="#ffea92"/></g><g><g><path d="m108.5 109.49h23.74v309h-23.74z" fill="#ffdd50"/></g></g><g><path d="m84.756 93.515h47.488v77.951h-47.488z" fill="#ff8659"/></g><g><path d="m108.5 93.51h23.74v77.96h-23.74z" fill="#ff405c"/></g><g><path d="m470.83 183.503v110.63l-51.61 7.28-20.835-7.402-26.655 14.112-50.5 7.12-30.251-6.072-17.239 12.782-53.24 7.51v-181.29l53.24 7.51 23.745 21.025 23.745-14.315 50.5 7.12 23.745 21.025 23.745-14.315z" fill="#fff"/></g><g><path d="m470.83 243.17v50.96l-51.61 7.28-20.83-7.4-26.66 14.11-50.5 7.12-30.25-6.07-17.24 12.78-53.24 7.51v-86.29z" fill="#daefec"/></g><g><path d="m321.23 162.393v152.85l-47.49 6.71v-166.27z" fill="#ff8659"/></g><g><path d="m321.23 243.17v72.07l-47.49 6.71v-78.78z" fill="#ff405c"/></g><g><path d="m419.22 176.223v125.19l-47.49 6.71v-138.61z" fill="#ff8659"/></g><g><path d="m419.22 243.17v58.24l-47.49 6.71v-64.95z" fill="#ff405c"/></g></g></g></svg>