<svg id="Layer_1" enable-background="new 0 0 512 512" height="512" viewBox="0 0 512 512" width="512" xmlns="http://www.w3.org/2000/svg"><g><g id="XMLID_24_"><g><g id="XMLID_1087_"><g id="XMLID_1088_"><g id="XMLID_1089_"><g id="XMLID_1954_"><g id="XMLID_1955_"><g id="XMLID_1956_"><g id="XMLID_1957_"><g id="XMLID_1958_"><g id="XMLID_1959_"><g id="XMLID_1960_"><g id="XMLID_1961_"><g id="XMLID_1962_"><g id="XMLID_1963_"><g id="XMLID_1964_"><circle cx="256" cy="256" fill="#ff8659" r="256"/></g></g></g></g></g></g></g></g></g></g></g></g></g></g></g></g><path d="m512 256c0-15.571-1.394-30.815-4.056-45.619l-134.353-134.353-310.068 224.545 73.702 73.702-9.697 8.544 26.472 26.343-26.472 37 58.464 56.147c22.251 6.312 45.735 9.691 70.008 9.691 141.385 0 256-114.615 256-256z" fill="#ff405c"/><g><g><g><path d="m405.843 148.122c-2.539 0-5.038.163-7.5.449.242-2.758.373-5.548.373-8.369 0-52.215-42.329-94.544-94.544-94.544-43.487 0-80.111 29.363-91.142 69.343-3.502-.461-7.074-.702-10.702-.702-44.875 0-81.253 36.378-81.253 81.253s36.378 81.253 81.253 81.253h203.516c35.535 0 64.342-28.807 64.342-64.342-.001-35.534-28.808-64.341-64.343-64.341z" fill="#51eaf2"/><g><path d="m470.185 212.462c0 35.537-28.806 64.343-64.343 64.343h-110.213v-230.764c2.815-.259 5.663-.384 8.544-.384 52.216 0 94.544 42.328 94.544 94.544 0 2.823-.134 5.612-.376 8.369 2.464-.284 4.961-.451 7.5-.451 35.538-.001 64.344 28.813 64.344 64.343z" fill="#24cee0"/></g></g><g><path d="m321.808 193.127c-2.539 0-5.038.163-7.5.449.242-2.758.373-5.548.373-8.369 0-52.215-42.329-94.544-94.544-94.544-43.487 0-80.111 29.363-91.142 69.343-3.502-.461-7.074-.702-10.702-.702-44.875 0-81.253 36.378-81.253 81.254 0 44.875 36.378 81.253 81.253 81.253h203.515c35.535 0 64.342-28.807 64.342-64.342s-28.806-64.342-64.342-64.342z" fill="#fff"/><g><path d="m386.15 257.466c0 35.537-28.806 64.343-64.343 64.343h-110.212v-230.763c2.815-.259 5.663-.384 8.544-.384 52.216 0 94.544 42.328 94.544 94.544 0 2.823-.134 5.612-.376 8.369 2.464-.284 4.961-.451 7.5-.451 35.538-.001 64.343 28.813 64.343 64.342z" fill="#daefec"/></g></g></g><g><path d="m127.528 416.162h171.8v30h-171.8z" fill="#51eaf2"/></g><g><path d="m127.528 352.819h171.8v30h-171.8z" fill="#51eaf2"/></g><g><path d="m211.576 352.823h87.75v30h-87.75z" fill="#22c2d3"/></g><g><path d="m211.576 416.163h87.75v30h-87.75z" fill="#22c2d3"/></g></g></g></svg>