<svg id="Layer_1" enable-background="new 0 0 512 512" height="512" viewBox="0 0 512 512" width="512" xmlns="http://www.w3.org/2000/svg"><g><g id="XMLID_15_"><g><circle cx="256" cy="256" fill="#00337a" r="256"/></g></g><path d="m512 256c0-.306-.01-.61-.012-.915l-118.452-118.452-203.536 68.405-135.971 150.849 151.039 151.039c16.461 3.323 33.491 5.074 50.932 5.074 141.385 0 256-114.615 256-256z" fill="#002659"/><g><g><path d="m442.655 290.043h-45v-27.359c0-78.109-63.546-141.655-141.655-141.655s-141.655 63.546-141.655 141.655v27.359h-45v-27.359c0-102.922 83.733-186.655 186.655-186.655s186.655 83.733 186.655 186.655z" fill="#ff8659"/></g></g><g><path d="m442.66 262.68v27.36h-45v-27.36c0-78.11-63.55-141.65-141.66-141.65v-45c102.92 0 186.66 83.73 186.66 186.65z" fill="#ff405c"/></g><g><g><path d="m404.478 290.043h-45v-21.531c0-57.058-46.42-103.478-103.478-103.478s-103.478 46.42-103.478 103.478v21.531h-45v-21.531c0-81.871 66.607-148.478 148.478-148.478s148.478 66.607 148.478 148.478z" fill="#fed940"/></g></g><g><g><path d="m404.48 268.51v21.53h-45v-21.53c0-57.06-46.42-103.48-103.48-103.48v-45c81.87 0 148.48 66.61 148.48 148.48z" fill="#fdbf2d"/></g></g><g><path d="m360.274 290.043h-45v-21.253c0-32.684-26.59-59.274-59.274-59.274s-59.274 26.59-59.274 59.274v21.252h-45v-21.252c0-57.497 46.777-104.274 104.274-104.274s104.274 46.777 104.274 104.274z" fill="#51eaf2"/></g><g><path d="m360.27 268.79v21.25h-45v-21.25c0-32.68-26.59-59.27-59.27-59.27v-45c57.5 0 104.27 46.77 104.27 104.27z" fill="#24cee0"/></g><g><path d="m181.339 363.681h-102.188c-24.523 0-44.402-19.88-44.402-44.402 0-24.523 19.88-44.402 44.402-44.402h102.188c24.523 0 44.403 19.88 44.403 44.402 0 24.522-19.88 44.402-44.403 44.402z" fill="#fff"/><path d="m432.849 363.681h-102.189c-24.523 0-44.402-19.88-44.402-44.402 0-24.523 19.88-44.402 44.402-44.402h102.188c24.523 0 44.402 19.88 44.402 44.402.001 24.522-19.879 44.402-44.401 44.402z" fill="#daefec"/></g></g></svg>