<svg id="Layer_1" enable-background="new 0 0 512 512" height="512" viewBox="0 0 512 512" width="512" xmlns="http://www.w3.org/2000/svg"><g><g id="XMLID_32_"><g><g id="XMLID_1012_"><g id="XMLID_1013_"><g id="XMLID_1014_"><g id="XMLID_1015_"><g id="XMLID_1016_"><g id="XMLID_1017_"><g id="XMLID_1018_"><g id="XMLID_1019_"><g id="XMLID_1020_"><g id="XMLID_1021_"><g id="XMLID_1022_"><g id="XMLID_1085_"><g id="XMLID_1086_"><g id="XMLID_1166_"><circle cx="256" cy="256" fill="#ff8659" r="256"/></g></g></g></g></g></g></g></g></g></g></g></g></g></g></g></g><path d="m511.921 262.282-199.077-199.077-132.999 373.478 75.306 75.306c.283.001.565.011.849.011 139.285 0 252.585-111.236 255.921-249.718z" fill="#ff405c"/><g><g><path d="m189.671 74h132.657v271.663h-132.657z" fill="#bcd8d3"/></g><g><path d="m255.999 74h66.329v271.667h-66.329z" fill="#a3c1bb"/></g><g><g><path d="m346 353.96c0 49.7-40.29 90-90 90s-90-40.3-90-90c0-9.64 1.52-18.92 4.32-27.63h171.36c2.8 8.71 4.32 17.99 4.32 27.63z" fill="#4793ff"/></g></g><g><path d="m346 353.96c0 49.7-40.29 90-90 90v-117.63h85.68c2.8 8.71 4.32 17.99 4.32 27.63z" fill="#424fdd"/></g><g><path d="m256 466.458c-62.032 0-112.499-50.467-112.499-112.499 0-31.571 13.486-61.806 36.561-82.986v-157.493c0-41.872 34.066-75.938 75.939-75.938s75.939 34.066 75.939 75.938v157.492c23.074 21.181 36.561 51.415 36.561 82.986-.002 62.033-50.469 112.5-112.501 112.5zm0-383.916c-17.06 0-30.939 13.879-30.939 30.938v179.409l-9.126 6.745c-17.436 12.887-27.435 32.688-27.435 54.325 0 37.219 30.28 67.499 67.499 67.499s67.499-30.28 67.499-67.499c0-21.637-10-41.438-27.434-54.325l-9.126-6.746v-179.408c.001-17.059-13.878-30.938-30.938-30.938z" fill="#fff"/></g><g><path d="m331.94 270.97v-157.49c0-41.87-34.07-75.94-75.94-75.94v45c17.06 0 30.94 13.88 30.94 30.94v179.41l9.12 6.74c17.44 12.89 27.44 32.69 27.44 54.33 0 37.22-30.28 67.5-67.5 67.5v45c62.03 0 112.5-50.47 112.5-112.5 0-31.57-13.49-61.81-36.56-82.99z" fill="#daefec"/></g></g></g></svg>