<svg id="Layer_1" enable-background="new 0 0 512 512" height="512" viewBox="0 0 512 512" width="512" xmlns="http://www.w3.org/2000/svg"><g><g id="XMLID_71_"><g><g id="XMLID_1693_"><g id="XMLID_1694_"><g id="XMLID_1727_"><g id="XMLID_1744_"><g id="XMLID_1798_"><g id="XMLID_1814_"><g id="XMLID_1815_"><g id="XMLID_1816_"><g id="XMLID_1817_"><g id="XMLID_1818_"><g id="XMLID_1819_"><g id="XMLID_1820_"><g id="XMLID_1835_"><g id="XMLID_1935_"><circle cx="256" cy="256" fill="#4793ff" r="256"/></g></g></g></g></g></g></g></g></g></g></g></g></g></g></g></g><path d="m512 256c0-1.197-.029-2.387-.045-3.58l-162.335-162.335-276.351 219.517 81.731 81.731c.077.082-38.02 18.33-38.02 18.33l99.153 99.242c12.992 2.031 26.305 3.095 39.867 3.095 141.385 0 256-114.615 256-256z" fill="#424fdd"/><g><g><g><path d="m389.723 178.94c-3.103 0-6.159.2-9.168.549.296-3.371.456-6.782.456-10.23 0-63.827-51.742-115.569-115.569-115.569-53.158 0-97.926 35.893-111.41 84.763-4.281-.563-8.647-.858-13.082-.858-54.854 0-99.322 44.468-99.322 99.322s44.468 99.322 99.322 99.322h248.773c43.437 0 78.65-35.213 78.65-78.65 0-43.436-35.213-78.649-78.65-78.649z" fill="#fff"/><g><path d="m468.373 257.587c0 43.44-35.212 78.652-78.652 78.652h-134.721v-282.081c3.44-.317 6.922-.47 10.444-.47 63.828 0 115.568 51.74 115.568 115.568 0 3.451-.163 6.861-.46 10.23 3.012-.347 6.064-.551 9.168-.551 43.441 0 78.653 35.222 78.653 78.652z" fill="#daefec"/></g></g></g><g><path d="m159.848 368.347v27.732c0 9.645-5.872 18.317-14.826 21.899-10.145 4.058-21.748.617-28.041-8.315-8.034-11.403-2.593-27.326 10.738-31.428z" fill="#51eaf2"/><path d="m238.824 368.347v27.732c0 9.645-5.872 18.317-14.826 21.899-10.145 4.058-21.748.617-28.041-8.315-8.034-11.403-2.593-27.326 10.738-31.428z" fill="#51eaf2"/><g fill="#22c2d3"><path d="m317.8 368.347v27.732c0 9.645-5.872 18.317-14.827 21.899-10.145 4.058-21.748.617-28.041-8.315-8.034-11.403-2.593-27.326 10.738-31.428z"/><path d="m396.776 368.347v27.732c0 9.645-5.872 18.317-14.827 21.899-10.145 4.058-21.748.617-28.041-8.315-8.034-11.403-2.593-27.326 10.738-31.428z"/></g></g></g></g></svg>