<svg id="Layer_1" enable-background="new 0 0 512 512" height="512" viewBox="0 0 512 512" width="512" xmlns="http://www.w3.org/2000/svg"><g><g id="XMLID_47_"><g><g id="XMLID_1417_"><g id="XMLID_1418_"><g id="XMLID_1420_"><g id="XMLID_1421_"><g id="XMLID_1447_"><g id="XMLID_1461_"><g id="XMLID_1462_"><g id="XMLID_1463_"><g id="XMLID_1464_"><g id="XMLID_1465_"><g id="XMLID_1466_"><g id="XMLID_1483_"><g id="XMLID_1484_"><g id="XMLID_1485_"><circle cx="256" cy="256" fill="#51eaf2" r="256"/></g></g></g></g></g></g></g></g></g></g></g></g></g></g></g></g><path d="m512 256c0-2.773-.06-5.531-.147-8.283l-73.425-73.425s-109.698-18.215-125.579-10.824l-62.431-56.013c-14.994 10.556-18.873 22.881-33.143 13.296l-27.638-25.251-6.154 64.166-154.345 96.334 18.762 19.375s24.943 22.244-6.278 42.684l39.747 39.597c.96 5.379-3.972 6.15-5.221 11.834l1.135-.25s87.009 85.187 141.295 140.028c12.216 1.791 24.708 2.732 37.422 2.732 141.385 0 256-114.615 256-256z" fill="#22c2d3"/><g><g><path d="m350.137 256-.979-.626c-20.448-13.077-25.966-40.51-12.165-60.477l.661-.956c-24.058-4.179-39.769-27.582-34.526-51.431-24.326 5.348-48.236-10.553-52.71-35.055-19.966 14.057-47.624 8.617-60.78-11.954l-.626.979c-13.077 20.448-40.51 25.966-60.477 12.165l-.956-.661c-4.179 24.058-27.582 39.769-51.431 34.526l.25 1.135c5.212 23.706-10.284 47.006-34.162 51.366l-1.143.209c14.057 19.966 8.617 47.624-11.954 60.78l.979.626c20.448 13.078 25.966 40.51 12.165 60.477l-.661.956c24.058 4.179 39.769 27.582 34.526 51.431l1.135-.25c23.706-5.212 47.006 10.284 51.366 34.161l.209 1.144c19.966-14.057 47.624-8.617 60.78 11.954l.626-.979c13.078-20.448 40.51-25.966 60.477-12.165l.956.661c4.179-24.058 27.582-39.769 51.431-34.526l-.25-1.135c-5.212-23.706 10.284-47.006 34.162-51.366l1.144-.209c-14.058-19.966-8.618-47.624 11.953-60.78z" fill="#ffb522"/><path d="m330.368 292.152c0 8.511 2.527 17.111 7.819 24.627l-1.15.206c-23.875 4.362-39.372 27.663-34.163 51.369l.251 1.135c-3.102-.685-6.197-1.01-9.248-1.01-20.361 0-38.547 14.613-42.18 35.533l-.958-.656c-19.963-13.802-47.397-8.283-60.477 12.166l-.626.973v-320.991c8.209 12.829 22.055 19.771 36.152 19.771 8.511 0 17.111-2.528 24.627-7.818 3.891 21.296 22.453 36.093 43.219 36.093 3.125 0 6.308-.339 9.491-1.039-.685 3.102-1.01 6.197-1.01 9.248 0 20.36 14.613 38.547 35.541 42.18l-.663.958c-13.802 19.97-8.283 47.397 12.166 60.477l.98.626c-12.829 8.202-19.771 22.048-19.771 36.152z" fill="#fd9827"/><g><g><g id="XMLID_479_"><g><g id="XMLID_1332_"><g id="XMLID_1348_"><g id="XMLID_1349_"><g id="XMLID_1350_"><g id="XMLID_1351_"><g id="XMLID_1352_"><g id="XMLID_1353_"><g id="XMLID_1354_"><g id="XMLID_1356_"><g id="XMLID_1357_"><g id="XMLID_1358_"><g id="XMLID_1359_"><g id="XMLID_1360_"><g id="XMLID_1414_"><circle cx="189.635" cy="256" fill="#ffe05f" r="112.499"/></g></g></g></g></g></g></g></g></g></g></g></g></g></g></g></g><g id="XMLID_110_"><g><g id="XMLID_1115_"><g id="XMLID_1116_"><g id="XMLID_1117_"><g id="XMLID_1118_"><g id="XMLID_1119_"><g id="XMLID_1120_"><g id="XMLID_1121_"><g id="XMLID_1184_"><g id="XMLID_1313_"><g id="XMLID_1314_"><g id="XMLID_1315_"><g id="XMLID_1323_"><g id="XMLID_1324_"><g><path d="m302.138 256c0 50.256-32.969 92.827-78.45 107.256-10.744 3.412-22.181 5.247-34.052 5.247v-225.005c11.872 0 23.308 1.835 34.052 5.247 45.481 14.428 78.45 56.999 78.45 107.255z" fill="#f9cb0d"/></g></g></g></g></g></g></g></g></g></g></g></g></g></g></g></g></g></g></g><circle cx="345.161" cy="256" fill="#00337a" r="124"/><path d="m469.159 256c0 68.48-55.51 124-124 124v-248c68.49 0 124 55.52 124 124z" fill="#002659"/></g></g></svg>