<svg id="Layer_1" enable-background="new 0 0 512 512" height="512" viewBox="0 0 512 512" width="512" xmlns="http://www.w3.org/2000/svg"><g><g id="XMLID_76_"><g><g id="XMLID_1064_"><g id="XMLID_1065_"><g id="XMLID_1167_"><g id="XMLID_1331_"><g id="XMLID_1486_"><g id="XMLID_1487_"><g id="XMLID_1488_"><g id="XMLID_1516_"><g id="XMLID_1517_"><g id="XMLID_1528_"><g id="XMLID_1593_"><g id="XMLID_1691_"><g id="XMLID_1692_"><g id="XMLID_1936_"><circle cx="256" cy="256" fill="#4793ff" r="256"/></g></g></g></g></g></g></g></g></g></g></g></g></g></g></g></g><path d="m512 256c0-16.325-1.546-32.287-4.467-47.763l-101.885-101.885-46.93 30.553-102.718-101.238-11.009 169.342-98.171-98.657-40.468 40.468 99.157 98.671-169.842 10.509 112.774 112.059-42.089 37.589 101.885 101.885c15.476 2.921 31.438 4.467 47.763 4.467 141.385 0 256-114.615 256-256z" fill="#424fdd"/><g><path d="m379.418 278.5 33.326 19.787 63.589-42.287-63.589-42.287-33.326 19.787h-76.169l49.265-49.265-24.748-24.749-49.266 49.266v-76.171l19.787-33.325-42.287-63.589-42.287 63.589 19.787 33.325v76.171l-49.266-49.266-24.748 24.749 49.265 49.265h-76.17l-33.325-19.787-63.589 42.287 63.589 42.287 33.325-19.787h76.17l-49.265 49.265 24.748 24.749 49.266-49.265v76.17l-19.787 33.325 42.287 63.589 42.287-63.589-19.787-33.325v-76.17l49.266 49.265 24.748-24.749-49.265-49.265z" fill="#fff"/><path d="m476.33 256-63.59 42.29-33.32-19.79h-76.17l49.26 49.27-24.74 24.74-49.27-49.26v76.17l19.79 33.32-42.29 63.59v-440.66l42.29 63.59-19.79 33.32v76.17l49.27-49.26 24.74 24.74-49.26 49.27h76.17l33.32-19.79z" fill="#daefec"/><path d="m405.648 146.82c11.175-11.175 11.175-29.293 0-40.468s-29.293-11.175-40.468 0-11.175 29.293 0 40.468 29.293 11.175 40.468 0z" fill="#daefec"/><circle cx="126.586" cy="385.414" fill="#fff" r="28.615"/><circle cx="385.414" cy="385.414" fill="#daefec" r="28.615"/><circle cx="126.586" cy="126.586" fill="#fff" r="28.615"/></g></g></svg>