<svg id="Layer_1" enable-background="new 0 0 512 512" height="512" viewBox="0 0 512 512" width="512" xmlns="http://www.w3.org/2000/svg"><g><g id="XMLID_8_"><g><g id="XMLID_1591_"><g id="XMLID_1592_"><g id="XMLID_1595_"><g id="XMLID_1667_"><g id="XMLID_1668_"><g id="XMLID_1682_"><g id="XMLID_1695_"><g id="XMLID_1729_"><g id="XMLID_1731_"><g id="XMLID_1733_"><g id="XMLID_1734_"><g id="XMLID_1739_"><g id="XMLID_1746_"><g id="XMLID_1775_"><circle cx="256" cy="256" fill="#00337a" r="256"/></g></g></g></g></g></g></g></g></g></g></g></g></g></g></g></g><path d="m512 256c0-7.373-.33-14.668-.941-21.883l-110.974-110.974-276.942 276.942 110.974 110.974c7.215.611 14.51.941 21.883.941 141.385 0 256-114.615 256-256z" fill="#002659"/><g id="XMLID_210_"><g><g id="XMLID_1763_"><g id="XMLID_1764_"><g id="XMLID_1765_"><g id="XMLID_1766_"><g id="XMLID_1767_"><g id="XMLID_1768_"><g id="XMLID_1769_"><g id="XMLID_1770_"><g id="XMLID_1771_"><g id="XMLID_1772_"><g id="XMLID_1773_"><g id="XMLID_1774_"><g id="XMLID_1776_"><g id="XMLID_1777_"><circle cx="256" cy="256" fill="#51eaf2" r="196"/></g></g></g></g></g></g></g></g></g></g></g></g></g></g></g></g><g><g id="XMLID_767_"><g id="XMLID_831_"><g id="XMLID_908_"><g id="XMLID_910_"><g id="XMLID_911_"><g id="XMLID_912_"><g id="XMLID_913_"><g id="XMLID_916_"><g id="XMLID_917_"><g id="XMLID_930_"><g id="XMLID_965_"><g id="XMLID_966_"><g id="XMLID_967_"><g id="XMLID_968_"><path d="m452 256c0 108.25-87.75 196-196 196v-392c108.25 0 196 87.75 196 196z" fill="#22c2d3"/></g></g></g></g></g></g></g></g></g></g></g></g></g></g><g id="XMLID_522_"><g id="XMLID_714_"><g id="XMLID_716_"><g id="XMLID_717_"><g id="XMLID_721_"><g id="XMLID_732_"><g id="XMLID_733_"><g id="XMLID_734_"><g id="XMLID_735_"><g id="XMLID_736_"><g id="XMLID_745_"><g id="XMLID_746_"><g id="XMLID_747_"><g id="XMLID_748_"><circle id="XMLID_751_" cx="256" cy="256" fill="#fff" r="137.028"/></g></g></g></g></g></g></g></g></g></g></g></g></g></g><g id="XMLID_523_"><g id="XMLID_529_"><g id="XMLID_531_"><g id="XMLID_532_"><g id="XMLID_533_"><g id="XMLID_535_"><g id="XMLID_536_"><g id="XMLID_567_"><g id="XMLID_569_"><g id="XMLID_593_"><g id="XMLID_594_"><g id="XMLID_595_"><g id="XMLID_711_"><g id="XMLID_712_"><path d="m393.03 256c0 75.68-61.35 137.03-137.03 137.03v-274.06c75.68 0 137.03 61.35 137.03 137.03z" fill="#daefec"/></g></g></g></g></g></g></g></g></g></g></g></g></g></g><path d="m244.26 189.702-47.485 99.507c-7.525 15.769 10.026 31.691 24.99 22.671l34.235-20.638 34.235 20.638c14.964 9.02 32.515-6.902 24.99-22.671l-47.485-99.507c-4.712-9.874-18.768-9.874-23.48 0z" fill="#ff8659"/><path d="m290.24 311.88-34.24-20.64v-108.94c4.69 0 9.38 2.46 11.74 7.4l47.49 99.51c7.52 15.77-10.03 31.69-24.99 22.67z" fill="#ff405c"/></g></g></svg>