<svg id="Layer_1" enable-background="new 0 0 512 512" height="512" viewBox="0 0 512 512" width="512" xmlns="http://www.w3.org/2000/svg"><g><g id="XMLID_48_"><g><g id="XMLID_1025_"><g id="XMLID_1026_"><g id="XMLID_1027_"><g id="XMLID_1028_"><g id="XMLID_1029_"><g id="XMLID_1030_"><g id="XMLID_1031_"><g id="XMLID_1058_"><g id="XMLID_1059_"><g id="XMLID_1060_"><g id="XMLID_1061_"><g id="XMLID_1062_"><g id="XMLID_1063_"><g id="XMLID_1080_"><circle cx="256" cy="256" fill="#ff8659" r="256"/></g></g></g></g></g></g></g></g></g></g></g></g></g></g></g></g><path d="m512 256c0-3.07-.074-6.123-.181-9.167l-94.649-98.833-295.45 248 115.299 115.298c6.268.46 12.596.702 18.981.702 141.385 0 256-114.615 256-256z" fill="#ff405c"/><g><g><g><g id="XMLID_617_"><g><g id="XMLID_1032_"><g id="XMLID_1033_"><g id="XMLID_1047_"><g id="XMLID_1048_"><g id="XMLID_1049_"><g id="XMLID_1050_"><g id="XMLID_1051_"><g id="XMLID_1052_"><g id="XMLID_1053_"><g id="XMLID_1054_"><g id="XMLID_1055_"><g id="XMLID_1056_"><g id="XMLID_1057_"><g><path d="m449.991 256c0 12.4-1.16 24.52-3.39 36.27 0 0-19.601 22.417-26.267 36.73-6.687 14.358-13.303 48.75-13.303 48.75-35.55 44.06-90 72.24-151.03 72.24-107.14 0-194-86.85-194-193.99 0-28.53 6.16-55.63 17.23-80.03 0 0 27.359-12.965 41.103-27.97 11.176-12.201 30.407-54.97 30.407-54.97 30.32-19.63 66.46-31.02 105.26-31.02 35 0 67.83 9.27 96.18 25.49 0 0 23.246 41.515 38.052 59.287 13.76 16.517 47.409 40.963 47.409 40.963 7.979 21.23 12.349 44.23 12.349 68.25z" fill="#fff4c5"/></g></g></g></g></g></g></g></g></g></g></g></g></g></g></g></g><g id="XMLID_115_"><g><g id="XMLID_1034_"><g id="XMLID_1035_"><g id="XMLID_1036_"><g id="XMLID_1037_"><g id="XMLID_1038_"><g id="XMLID_1039_"><g id="XMLID_1040_"><g id="XMLID_1041_"><g id="XMLID_1042_"><g id="XMLID_1043_"><g id="XMLID_1044_"><g id="XMLID_1045_"><g id="XMLID_1046_"><g><path d="m449.999 256c0 86.663-56.852 160.072-135.28 184.953-18.527 5.883-38.249 9.047-58.72 9.047v-388c20.471 0 40.193 3.164 58.72 9.047 78.428 24.881 135.28 98.29 135.28 184.953z" fill="#ffea92"/></g></g></g></g></g></g></g></g></g></g></g></g></g></g></g></g></g></g><path d="m175.261 138.91c0 30.47-24.7 55.17-55.17 55.17-16.2 0-30.77-6.98-40.86-18.11 15.43-34.03 40.41-62.82 71.51-82.94 14.78 9.9 24.52 26.75 24.52 45.88z" fill="#ffea92"/><path d="m446.601 292.27c-6.04 31.96-19.92 61.14-39.57 85.48-16.32-7.4-27.67-23.83-27.67-42.91 0-26.01 21.09-47.09 47.09-47.09 7.21 0 14.04 1.62 20.15 4.52z" fill="#ffe05f"/><path d="m437.642 187.75c-12.08 12.78-29.18 20.75-48.15 20.75-36.59 0-66.25-29.66-66.25-66.25 0-22.75 11.47-42.83 28.94-54.75 38.979 22.29 69.469 57.72 85.46 100.25z" fill="#ffe05f"/><circle cx="230.503" cy="316.763" fill="#ffea92" r="68.263"/><path d="m298.761 316.762c0 28.68-17.69 53.24-42.76 63.34v-126.68c25.07 10.1 42.76 34.66 42.76 63.34z" fill="#ffe05f"/></g></g></svg>