<svg id="Layer_1" enable-background="new 0 0 512 512" height="512" viewBox="0 0 512 512" width="512" xmlns="http://www.w3.org/2000/svg"><g><g id="XMLID_112_"><g><g id="XMLID_1004_"><g id="XMLID_1005_"><g id="XMLID_1006_"><g id="XMLID_1007_"><g id="XMLID_1008_"><g id="XMLID_1009_"><g id="XMLID_1024_"><g id="XMLID_1077_"><g id="XMLID_1078_"><g id="XMLID_1079_"><g id="XMLID_1081_"><g id="XMLID_1518_"><g id="XMLID_1529_"><g id="XMLID_1566_"><circle cx="256" cy="256" fill="#00337a" r="256"/></g></g></g></g></g></g></g></g></g></g></g></g></g></g></g></g><path d="m512 256c0-7.81-.37-15.532-1.054-23.164l-163.075-163.075-260.3 206.757 49.794 49.794c.192.211-32.88 42.074-32.88 42.074l49.359 49.271-24.075 23.134 63.447 63.441c20.091 5.066 41.121 7.768 62.784 7.768 141.385 0 256-114.615 256-256z" fill="#002659"/><g><g><g><g><path d="m384.924 152.691c-2.924 0-5.802.188-8.638.517.279-3.176.429-6.389.429-9.638 0-60.132-48.747-108.879-108.879-108.879-50.081 0-92.258 33.815-104.961 79.856-4.033-.531-8.146-.809-12.325-.809-51.679 0-93.573 41.894-93.573 93.573s41.894 93.573 93.573 93.573h234.373c40.923 0 74.098-33.175 74.098-74.098s-33.174-74.095-74.097-74.095z" fill="#fff"/><g><path d="m459.022 226.785c0 40.926-33.173 74.099-74.099 74.099h-126.923v-265.752c3.241-.298 6.521-.442 9.84-.442 60.133 0 108.879 48.745 108.879 108.879 0 3.251-.154 6.463-.433 9.638 2.837-.327 5.713-.519 8.637-.519 40.925-.002 74.099 33.181 74.099 74.097z" fill="#daefec"/></g></g></g><g><path d="m141.637 325.801v26.126c0 9.086-5.532 17.257-13.968 20.632-9.557 3.823-20.489.581-26.418-7.833-7.569-10.743-2.443-25.744 10.117-29.609z" fill="#51eaf2"/><path d="m227.975 325.801v26.126c0 9.086-5.532 17.257-13.968 20.632-9.557 3.823-20.489.581-26.418-7.833-7.569-10.743-2.443-25.744 10.117-29.609z" fill="#51eaf2"/><g fill="#22c2d3"><path d="m314.314 325.801v26.126c0 9.086-5.532 17.257-13.968 20.632-9.557 3.823-20.489.581-26.418-7.833-7.569-10.743-2.443-25.744 10.117-29.609z"/><path d="m400.652 325.801v26.126c0 9.086-5.532 17.257-13.968 20.632-9.557 3.823-20.489.581-26.418-7.833-7.569-10.743-2.443-25.744 10.117-29.609z"/></g></g></g><path d="m167.386 398.641v26.126c0 9.086-5.532 17.257-13.968 20.632-9.557 3.823-20.489.581-26.418-7.833-7.569-10.743-2.443-25.744 10.117-29.609z" fill="#51eaf2"/><path d="m253.724 398.641v26.126c0 9.086-5.532 17.257-13.968 20.632-9.557 3.823-20.489.581-26.418-7.833-7.569-10.743-2.443-25.744 10.117-29.609z" fill="#51eaf2"/><path d="m340.062 398.641v26.126c0 9.086-5.532 17.257-13.968 20.632-9.557 3.823-20.489.581-26.418-7.833-7.569-10.743-2.443-25.744 10.117-29.609z" fill="#22c2d3"/></g></g></svg>