<svg id="Layer_1" enable-background="new 0 0 512 512" height="512" viewBox="0 0 512 512" width="512" xmlns="http://www.w3.org/2000/svg"><g><g id="XMLID_45_"><g><g id="XMLID_961_"><g id="XMLID_980_"><g id="XMLID_989_"><g id="XMLID_1082_"><g id="XMLID_1083_"><g id="XMLID_1084_"><g id="XMLID_1099_"><g id="XMLID_1114_"><g id="XMLID_1325_"><g id="XMLID_1326_"><g id="XMLID_1327_"><g id="XMLID_1328_"><g id="XMLID_1329_"><g id="XMLID_1330_"><circle cx="256" cy="256" fill="#51eaf2" r="256"/></g></g></g></g></g></g></g></g></g></g></g></g></g></g></g></g><path d="m512 256c0-16.194-1.521-32.03-4.396-47.39l-132.909-132.909-33.461 87.278-42.955-42.955-234.03 185.87 130.535 130.743-10.853 19.514 55.287 55.288c5.55.359 11.142.561 16.782.561 141.385 0 256-114.615 256-256z" fill="#22c2d3"/><g><path d="m405.606 144.043c-2.382 0-4.727.153-7.036.422.227-2.587.35-5.205.35-7.851 0-48.984-39.71-88.694-88.694-88.694-40.796 0-75.154 27.546-85.502 65.052-3.286-.432-6.636-.659-10.04-.659-42.098 0-76.226 34.127-76.226 76.226 0 42.098 34.128 76.226 76.226 76.226h190.923c33.336 0 60.361-27.025 60.361-60.361s-27.025-60.361-60.362-60.361z" fill="#00337a"/><g><g><path d="m465.967 204.401c0 33.339-27.023 60.362-60.362 60.362h-103.393v-216.486c2.641-.243 5.312-.36 8.015-.36 48.985 0 88.694 39.708 88.694 88.694 0 2.648-.125 5.265-.353 7.851 2.311-.266 4.654-.423 7.036-.423 33.34 0 60.363 27.031 60.363 60.362z" fill="#002659"/></g></g></g><g><g><path d="m330.689 193.608c-2.63 0-5.219.169-7.769.465.251-2.857.386-5.747.386-8.669 0-54.087-43.846-97.933-97.933-97.933-45.046 0-82.983 30.415-94.409 71.828-3.628-.477-7.328-.727-11.086-.727-46.483 0-84.166 37.682-84.166 84.166s37.682 84.166 84.166 84.166h210.811c36.809 0 66.648-29.84 66.648-66.648 0-36.809-29.839-66.648-66.648-66.648z" fill="#4793ff"/><g><path d="m397.337 260.253c0 36.811-29.838 66.65-66.65 66.65h-114.162v-239.036c2.915-.268 5.866-.398 8.85-.398 54.088 0 97.933 43.845 97.933 97.933 0 2.924-.138 5.814-.389 8.669 2.552-.294 5.139-.467 7.769-.467 36.811-.001 66.649 29.846 66.649 66.649z" fill="#424fdd"/></g></g><path d="m277.013 291.015h-87.543l-51.013 88.97h63.688l-18.213 76.166 93.081-101.554h-36.159z" fill="#ffe05f"/><path d="m240.852 354.6h36.161l-60.488 65.994v-129.577h60.488z" fill="#f9cb0d"/></g></g></svg>