<svg id="Layer_1" enable-background="new 0 0 512 512" height="512" viewBox="0 0 512 512" width="512" xmlns="http://www.w3.org/2000/svg"><g><g id="XMLID_17_"><g><g><circle cx="256" cy="256" fill="#4793ff" r="256"/></g></g></g><g><path d="m512 256c0-6.528-.248-12.999-.728-19.404l-129.033-129.033-32.777-11.507c-97.039-34.066-199.578 34.684-204.914 137.391l-9.027 173.737 133.043 104.506c135.548-6.551 243.436-118.518 243.436-255.69z" fill="#424fdd"/><g><g><path d="m427.785 231.509-13.772 8.177h-18.785l14.921-14.921-14.681-14.682-14.921 14.921v-18.784l8.177-13.772-20.453-30.756-20.453 30.756 8.177 13.772v18.784l-14.921-14.921-14.681 14.682 14.92 14.921h-18.784l-13.772-8.177-30.757 20.453 30.757 20.452 13.772-8.176h18.784l-14.92 14.921 14.681 14.681 14.921-14.921v18.785l-8.177 13.771 20.453 30.757 20.453-30.757-8.177-13.771v-18.785l14.921 14.921 14.681-14.681-14.921-14.921h18.785l13.772 8.176 30.756-20.452z" fill="#fff"/><path d="m458.541 251.964-30.761 20.454-13.77-8.178h-18.781l14.916 14.915-14.674 14.683-14.924-14.916v18.781l8.177 13.77-20.453 30.761v-180.541l20.453 30.752-5.35 9.01-2.827 4.76v18.79l14.924-14.924 14.674 14.683-14.916 14.924h18.781l13.77-8.178z" fill="#daefec"/></g><path d="m208.208 251.963c0-80.297 69.773-145.391 155.843-145.391 6.154 0 12.221.344 18.189.991-34.417-30.985-79.962-49.848-129.917-49.848-107.281 0-194.249 86.968-194.249 194.249s86.968 194.249 194.249 194.249c49.955 0 95.5-18.864 129.917-49.848-5.968.647-12.035.991-18.189.991-86.07-.002-155.843-65.096-155.843-145.393z" fill="#fff4c5"/><g fill="#ffea92"><path d="m364.05 397.352c6.153 0 12.224-.337 18.193-.99-34.416 30.988-79.965 49.854-129.921 49.854-3.418 0-6.826-.092-10.203-.265v-103.432c28.549 33.416 72.567 54.833 121.931 54.833z"/><path d="m242.119 161.407v-103.432c3.377-.173 6.785-.265 10.203-.265 49.956 0 95.505 18.866 129.921 49.854-5.969-.653-12.04-.99-18.193-.99-49.364 0-93.382 21.417-121.931 54.833z"/></g></g></g></g></svg>