<svg id="Layer_1" enable-background="new 0 0 512 512" height="512" viewBox="0 0 512 512" width="512" xmlns="http://www.w3.org/2000/svg"><g><g id="XMLID_2_"><g><circle cx="256" cy="256" fill="#4793ff" r="256"/></g></g><path d="m511.001 278.538-135.885-140.456-340.062 120.2 252.345 251.799c119.218-14.582 213.095-111.112 223.602-231.543z" fill="#424fdd"/><g><path d="m69.663 177.631c1.884 0 3.739.121 5.566.333-.18-2.047-.277-4.117-.277-6.211 0-38.752 31.415-70.167 70.167-70.167 32.275 0 59.456 21.792 67.642 51.464 2.599-.342 5.25-.521 7.943-.521 33.305 0 60.303 26.999 60.303 60.303 0 33.305-26.999 60.303-60.303 60.303h-151.041c-26.373 0-47.752-21.379-47.752-47.752s21.379-47.752 47.752-47.752z" fill="#daefec"/><path d="m281.01 212.83c0 33.31-27 60.31-60.31 60.31h-90.96v-169.85c4.95-1.12 10.1-1.7 15.38-1.7 32.27 0 59.46 21.79 67.64 51.46 2.6-.34 5.25-.52 7.94-.52 33.31 0 60.31 27 60.31 60.3z" fill="#bcd8d3"/><g><g><g><g id="XMLID_700_"><g><g id="XMLID_1343_"><g id="XMLID_1355_"><g id="XMLID_1370_"><g id="XMLID_1379_"><g id="XMLID_1380_"><g id="XMLID_1381_"><g id="XMLID_1382_"><g id="XMLID_1383_"><g id="XMLID_1384_"><g id="XMLID_1385_"><g id="XMLID_1386_"><g id="XMLID_1387_"><g id="XMLID_1388_"><g><path d="m402.608 222.319c0 9.126-.854 18.046-2.495 26.693 0 0-14.426 16.498-19.331 27.032-4.921 10.567-9.791 35.878-9.791 35.878-26.164 32.427-66.237 53.166-111.153 53.166-78.851 0-142.777-63.919-142.777-142.77 0-20.997 4.534-40.942 12.681-58.899 0 0 20.135-9.542 30.251-20.585 8.225-8.98 22.378-40.456 22.378-40.456 22.314-14.447 48.912-22.83 77.468-22.83 25.759 0 49.921 6.822 70.785 18.76 0 0 17.108 30.554 28.004 43.633 10.127 12.156 34.891 30.148 34.891 30.148 5.873 15.625 9.089 32.552 9.089 50.23z" fill="#fff4c5"/></g></g></g></g></g></g></g></g></g></g></g></g></g></g></g></g><g id="XMLID_39_"><g><g id="XMLID_1316_"><g id="XMLID_1317_"><g id="XMLID_1318_"><g id="XMLID_1319_"><g id="XMLID_1320_"><g id="XMLID_1321_"><g id="XMLID_1322_"><g id="XMLID_1337_"><g id="XMLID_1338_"><g id="XMLID_1339_"><g id="XMLID_1340_"><g id="XMLID_1341_"><g id="XMLID_1342_"><g><path d="m402.613 222.319c0 63.781-41.841 117.807-99.562 136.119-13.635 4.33-28.15 6.658-43.216 6.658v-285.554c15.066 0 29.581 2.329 43.216 6.659 57.722 18.311 99.562 72.337 99.562 136.118z" fill="#ffea92"/></g></g></g></g></g></g></g></g></g></g></g></g></g></g></g></g></g></g><path d="m200.416 136.145c0 22.425-18.178 40.603-40.603 40.603-11.923 0-22.646-5.137-30.072-13.328 11.356-25.045 29.74-46.233 52.629-61.041 10.878 7.286 18.046 19.687 18.046 33.766z" fill="#ffea92"/><path d="m400.113 249.013c-4.445 23.521-14.66 44.997-29.122 62.91-12.011-5.446-20.364-17.538-20.364-31.58 0-19.143 15.521-34.657 34.657-34.657 5.306 0 10.333 1.192 14.829 3.327z" fill="#ffe05f"/><path d="m393.519 172.09c-8.89 9.406-21.475 15.271-35.437 15.271-26.929 0-48.758-21.829-48.758-48.758 0-16.743 8.442-31.521 21.299-40.294 28.688 16.405 51.128 42.48 62.896 73.781z" fill="#ffe05f"/><ellipse cx="241.072" cy="267.038" fill="#ffea92" rx="50.239" ry="50.239" transform="matrix(.16 -.987 .987 .16 -61.134 462.223)"/><path d="m291.308 267.038c0 21.108-13.019 39.183-31.47 46.616v-93.232c18.451 7.433 31.47 25.509 31.47 46.616z" fill="#ffe05f"/></g><path d="m400.089 309.555c-1.982 0-3.933.127-5.854.351.189-2.153.291-4.33.291-6.532 0-40.757-33.04-73.797-73.797-73.797-33.944 0-62.531 22.919-71.141 54.126-2.734-.36-5.522-.548-8.354-.548-35.028 0-63.423 28.395-63.423 63.423s28.395 63.423 63.423 63.423h158.855c27.737 0 50.223-22.485 50.223-50.223-.001-27.738-22.486-50.223-50.223-50.223z" fill="#fff"/><path d="m450.31 359.78c0 27.73-22.48 50.22-50.22 50.22h-86.03v-180.12c2.2-.2 4.42-.3 6.67-.3 40.76 0 73.8 33.04 73.8 73.79 0 2.21-.11 4.38-.3 6.54 1.93-.23 3.88-.36 5.86-.36 27.74 0 50.22 22.49 50.22 50.23z" fill="#daefec"/></g></g></svg>