<svg id="Layer_1" enable-background="new 0 0 512 512" height="512" viewBox="0 0 512 512" width="512" xmlns="http://www.w3.org/2000/svg"><g><g id="XMLID_1_"><g><circle cx="256" cy="256" fill="#ff8659" r="256"/></g></g><path d="m512 256c0-5.604-.2-11.16-.555-16.674l-110.553-110.553-146.479 24.814-61.919-61.749-58.494 4.162-14.857 69.191 143.601 144.066-19.981 150.557 49.604 49.604c124.158-17.661 219.633-124.381 219.633-253.418z" fill="#ff405c"/><g><g><g><path d="m400.892 169.058v-40.285h-158.129v331.04h40.285v-148.131h108.483v-40.285h-108.483v-102.339z" fill="#fff"/></g><g><path d="m151.577 176.522c-28.81 0-52.249-23.439-52.249-52.249 0-28.811 23.439-52.249 52.249-52.249s52.249 23.438 52.249 52.249c0 28.81-23.439 52.249-52.249 52.249zm0-74.498c-12.268 0-22.249 9.981-22.249 22.249 0 12.269 9.981 22.249 22.249 22.249s22.249-9.98 22.249-22.249-9.981-22.249-22.249-22.249z" fill="#fff"/></g></g><g fill="#daefec"><path d="m326.31 271.4h65.22v40.28h-65.22z"/><path d="m326.31 128.77h74.58v40.29h-74.58z"/></g><g><path d="m151.58 72.02v30c12.26 0 22.25 9.98 22.25 22.25s-9.99 22.25-22.25 22.25v30c28.81 0 52.25-23.44 52.25-52.25s-23.44-52.25-52.25-52.25z" fill="#daefec"/></g></g></g></svg>