<svg id="Layer_1" enable-background="new 0 0 512 512" height="512" viewBox="0 0 512 512" width="512" xmlns="http://www.w3.org/2000/svg"><g><g><g><g id="XMLID_1422_"><g><g id="XMLID_1423_"><g id="XMLID_1424_"><g id="XMLID_1425_"><g id="XMLID_1428_"><g id="XMLID_1429_"><g id="XMLID_1430_"><g id="XMLID_1431_"><g id="XMLID_1532_"><g id="XMLID_1533_"><g id="XMLID_1534_"><g id="XMLID_1535_"><g id="XMLID_1536_"><g id="XMLID_1537_"><g id="XMLID_1538_"><circle cx="256" cy="256" fill="#51eaf2" r="256"/></g></g></g></g></g></g></g></g></g></g></g></g></g></g></g></g></g></g><path d="m512 256c0-22.182-2.824-43.705-8.128-64.23l-116.701-116.701-11.836 34.595-65.612-62.912-15 60.248-62.448-60.248-30 71.248-47.448-42.931-30 73.699 50.754 46.649c-38.664 28.655-76.865 127.536-76.865 127.536l93.574 92.609 9.686 43.971 51.712 52.437c.771.007 1.538.029 2.31.029 141.387.001 256.002-114.614 256.002-255.999z" fill="#22c2d3"/><g><g><g><path d="m230.655 470.573c-23.624 0-42.845-19.22-42.845-42.845v-12.166h35v12.166c0 4.325 3.519 7.845 7.845 7.845s7.845-3.52 7.845-7.845v-121.668h35v121.668c0 23.625-19.22 42.845-42.845 42.845z" fill="#00337a"/></g><g><path d="m273.5 306.06v121.67c0 14.15-6.9 26.72-17.5 34.52v-156.19z" fill="#002659"/></g><g><path d="m413.283 308.708v14.245h-314.566v-14.245c0-86.852 70.413-157.274 157.283-157.274 43.43 0 82.753 17.603 111.225 46.066 28.455 28.455 46.058 67.787 46.058 111.208z" fill="#ffb522"/></g><g><g><path d="m413.28 308.71v14.24h-157.28v-171.52c43.43 0 82.75 17.61 111.23 46.07 28.45 28.46 46.05 67.79 46.05 111.21z" fill="#fd9827"/></g></g><g><path d="m351.148 322.954h-190.296c10.707-142.198 95.148-171.519 95.148-171.519s84.441 29.321 95.148 171.519z" fill="#ff8500"/></g><g><path d="m351.15 322.95h-95.15v-171.52s84.44 29.33 95.15 171.52z" fill="#ff405c"/></g></g><g><path d="m279.724 46.752h30v76.833h-30z" fill="#daefec"/><path d="m202.276 46.752h30v76.833h-30z" fill="#fff"/><path d="m357.172 75.069h30v73.699h-30z" fill="#daefec"/><path d="m124.829 75.069h30v73.699h-30z" fill="#fff"/></g></g></g></svg>