<svg id="Layer_1" enable-background="new 0 0 512 512" height="512" viewBox="0 0 512 512" width="512" xmlns="http://www.w3.org/2000/svg"><g><g id="XMLID_73_"><g><g id="XMLID_896_"><g id="XMLID_991_"><g id="XMLID_996_"><g id="XMLID_1125_"><g id="XMLID_1140_"><g id="XMLID_1161_"><g id="XMLID_1419_"><g id="XMLID_1467_"><g id="XMLID_1468_"><g id="XMLID_1469_"><g id="XMLID_1470_"><g id="XMLID_1471_"><g id="XMLID_1472_"><g id="XMLID_1490_"><circle cx="256" cy="256" fill="#00337a" r="256"/></g></g></g></g></g></g></g></g></g></g></g></g></g></g></g></g><path d="m512 256c0-8.387-.416-16.675-1.205-24.855l-166.794-166.795s-67.393 16.525-76.211 71.788c-8.819 55.262-177.775 182.358-177.775 182.358l48.249 61.684-34.47 40.741 81.491 81.18c22.462 6.442 46.184 9.899 70.715 9.899 141.385 0 256-114.615 256-256z" fill="#002659"/><g><path d="m340.71 165.625c-27.116-27.116-27.116-71.079 0-98.195 1.07-1.07 2.17-2.094 3.291-3.079-27.019-.873-54.321 8.997-74.945 29.62-39.574 39.574-39.574 103.735 0 143.309s103.735 39.574 143.309 0c20.624-20.624 30.493-47.926 29.621-74.945-.986 1.121-2.009 2.22-3.079 3.291-27.117 27.115-71.081 27.115-98.197-.001z" fill="#ffea92"/><path d="m412.367 237.28c-18.369 18.369-42.046 28.219-66.094 29.524v-96.183c27.267 22.002 67.303 20.335 92.629-5 1.076-1.067 2.099-2.169 3.087-3.289.872 27.02-9.004 54.322-29.622 74.948z" fill="#ffdd50"/><g><path d="m322.89 219.779c-2.303 0-4.571.148-6.804.408.22-2.502.338-5.033.338-7.592 0-47.367-38.399-85.766-85.766-85.766-39.449 0-72.673 26.637-82.679 62.904-3.177-.418-6.417-.637-9.708-.637-40.708 0-73.709 33.001-73.709 73.709s33.001 73.709 73.709 73.709h184.619c32.236 0 58.368-26.132 58.368-58.368 0-32.234-26.132-58.367-58.368-58.367z" fill="#fff"/><g><path d="m381.258 278.145c0 32.238-26.131 58.369-58.369 58.369h-99.979v-209.338c2.553-.235 5.137-.348 7.751-.348 47.368 0 85.766 38.397 85.766 85.765 0 2.561-.121 5.091-.341 7.592 2.235-.258 4.5-.409 6.804-.409 32.237 0 58.368 26.139 58.368 58.369z" fill="#daefec"/></g></g></g><g><path d="m138.265 380.18v24.669c0 8.58-5.223 16.295-13.189 19.481-9.024 3.61-19.347.549-24.945-7.397-7.147-10.144-2.307-24.308 9.553-27.958z" fill="#51eaf2"/><path d="m208.52 380.18v24.669c0 8.58-5.223 16.295-13.189 19.481-9.024 3.61-19.347.549-24.945-7.397-7.147-10.144-2.307-24.308 9.553-27.958z" fill="#51eaf2"/><g fill="#22c2d3"><path d="m278.776 380.18v24.669c0 8.58-5.224 16.295-13.189 19.481-9.024 3.61-19.347.549-24.945-7.397-7.147-10.144-2.307-24.308 9.553-27.958z"/><path d="m349.032 380.18v24.669c0 8.58-5.223 16.295-13.189 19.481-9.025 3.61-19.347.549-24.945-7.397-7.147-10.144-2.307-24.308 9.553-27.958z"/></g></g></g></svg>