<svg id="Layer_1" enable-background="new 0 0 512 512" height="512" viewBox="0 0 512 512" width="512" xmlns="http://www.w3.org/2000/svg"><g><g id="XMLID_36_"><g><circle cx="256" cy="256" fill="#ff8659" r="256"/></g></g><path d="m512 256c0-29.437-4.984-57.706-14.128-84.029l-74.417-74.417-335.136 220.413 16.359 16.521-26.162 16.951 53.15 52.227-10.233 19.654 83.598 83.598c16.473 3.329 33.516 5.082 50.969 5.082 141.385 0 256-114.615 256-256z" fill="#ff405c"/><g><g><path d="m371.103 198.999c-2.79 0-5.536.179-8.241.494.266-3.031.41-6.096.41-9.195 0-57.374-46.511-103.885-103.885-103.885-47.784 0-88.026 32.264-100.146 76.194-3.849-.506-7.773-.772-11.76-.772-49.308 0-89.281 39.972-89.281 89.281s39.973 89.281 89.281 89.281h223.622c39.046 0 70.699-31.653 70.699-70.699-.001-39.046-31.654-70.699-70.699-70.699z" fill="#00337a"/><g><path d="m441.801 269.695c0 39.049-31.652 70.7-70.7 70.7h-121.101v-253.562c3.093-.285 6.222-.422 9.388-.422 57.375 0 103.885 46.509 103.885 103.884 0 3.102-.147 6.167-.413 9.195 2.707-.312 5.451-.496 8.241-.496 39.049.001 70.7 31.662 70.7 70.701z" fill="#002659"/></g></g><g><path d="m423.455 97.554h-82.619l-48.143 83.966h60.106l-17.19 71.881 87.846-95.842h-34.125z" fill="#f9cb0d"/><path d="m209.279 267.474h-82.619l-48.143 83.965h60.106l-17.19 71.881 87.846-95.841h-34.125z" fill="#ffe05f"/></g></g></g></svg>