<svg id="Layer_1" enable-background="new 0 0 512 512" height="512" viewBox="0 0 512 512" width="512" xmlns="http://www.w3.org/2000/svg"><g><g id="XMLID_37_"><g><g id="XMLID_1390_"><g id="XMLID_1391_"><g id="XMLID_1392_"><g id="XMLID_1393_"><g id="XMLID_1394_"><g id="XMLID_1395_"><g id="XMLID_1396_"><g id="XMLID_1397_"><g id="XMLID_1398_"><g id="XMLID_1399_"><g id="XMLID_1400_"><g id="XMLID_1401_"><g id="XMLID_1402_"><g id="XMLID_1426_"><circle cx="256" cy="256" fill="#4793ff" r="256"/></g></g></g></g></g></g></g></g></g></g></g></g></g></g></g></g><path d="m512 256c0-5.432-.19-10.819-.523-16.167l-162.525-162.526-266.719 211.81 90.138 90.512-13.743 4.803 52.872 54.568-52.872 10.644 59.573 59.573c12.336 1.825 24.955 2.783 37.799 2.783 141.385 0 256-114.615 256-256z" fill="#424fdd"/><g><g><path d="m158.628 415.986h192.745v33.658h-192.745z" fill="#51eaf2"/></g><g><path d="m158.628 350.775h192.745v33.657h-192.745z" fill="#51eaf2"/></g><g><path d="m255 350.775h96.37v33.659h-96.37z" fill="#22c2d3"/></g><g><path d="m255 415.986h96.37v33.659h-96.37z" fill="#22c2d3"/></g></g><path d="m385.158 160.362c-2.998 0-5.95.193-8.858.531.286-3.257.44-6.552.44-9.883 0-61.664-49.989-111.653-111.653-111.653-51.357 0-94.609 34.677-107.635 81.891-4.136-.544-8.354-.829-12.639-.829-52.996 0-95.957 42.962-95.957 95.957s42.962 95.957 95.957 95.957h240.345c41.966 0 75.986-34.02 75.986-75.986 0-41.965-34.02-75.985-75.986-75.985z" fill="#fff"/><g><path d="m461.144 236.345c0 41.969-34.019 75.987-75.987 75.987h-130.157v-272.524c3.324-.306 6.687-.454 10.09-.454 61.666 0 111.653 49.987 111.653 111.653 0 3.334-.158 6.628-.444 9.883 2.91-.335 5.859-.533 8.857-.533 41.969 0 75.988 34.029 75.988 75.988z" fill="#daefec"/></g></g></svg>