<svg id="Layer_1" enable-background="new 0 0 512 512" height="512" viewBox="0 0 512 512" width="512" xmlns="http://www.w3.org/2000/svg"><g><g><g><g id="XMLID_698_"><g><g id="XMLID_1853_"><g id="XMLID_1854_"><g id="XMLID_1855_"><g id="XMLID_1856_"><g id="XMLID_1857_"><g id="XMLID_1858_"><g id="XMLID_1859_"><g id="XMLID_1860_"><g id="XMLID_1861_"><g id="XMLID_1862_"><g id="XMLID_1863_"><g id="XMLID_1864_"><g id="XMLID_1865_"><g id="XMLID_1922_"><circle cx="256" cy="256" fill="#00337a" r="256"/></g></g></g></g></g></g></g></g></g></g></g></g></g></g></g></g></g><path d="m510.299 285.49-211.924-211.924s-197.302-40.821-173.19 187.687l52.907 52.907-18.228 7.818 61.804 63.352 111.227 114.912c94.774-29.81 165.76-113.255 177.404-214.752z" fill="#002659"/><g><path d="m183.959 168.5c0-52.791 45.872-95.586 102.457-95.586 4.046 0 8.034.226 11.958.652-22.627-20.371-52.57-32.772-85.413-32.772-70.531 0-127.707 57.176-127.707 127.707s57.176 127.707 127.707 127.707c32.843 0 62.786-12.402 85.413-32.772-3.923.426-7.912.651-11.958.651-56.585-.001-102.457-42.796-102.457-95.587z" fill="#fff4c5"/><g fill="#ffea92"><path d="m286.417 264.085c4.045 0 8.036-.221 11.961-.651-22.627 20.373-52.572 32.776-85.415 32.776-2.247 0-4.488-.06-6.708-.174v-68.001c18.768 21.969 47.707 36.05 80.162 36.05z"/><path d="m206.254 108.965v-68.001c2.22-.114 4.461-.174 6.708-.174 32.843 0 62.789 12.403 85.415 32.776-3.924-.429-7.916-.651-11.961-.651-32.454 0-61.393 14.081-80.162 36.05z"/></g></g></g><g><g><g><path d="m355.071 321.977h-195.208v-32.931h195.207c11.729 0 22.002-7.922 24.982-19.266 2.654-10.101-.991-20.728-9.283-27.075-7.562-5.789-18.034-6.235-26.061-1.115l-17.712-27.762c19.647-12.535 45.282-11.439 63.788 2.726 18.865 14.439 27.153 38.616 21.118 61.591-6.778 25.808-30.149 43.832-56.831 43.832z" fill="#51eaf2"/></g></g><g><path d="m356.034 450.037c-8.669 0-17.357-2.437-24.969-7.357l17.877-27.657c4.664 3.016 10.754 2.748 15.153-.663 5.127-3.976 7.371-10.664 5.718-17.039-1.831-7.06-8.076-11.992-15.188-11.992h-132.957v-32.931h132.957c22.115 0 41.469 15.074 47.065 36.658 4.959 19.128-1.876 39.275-17.412 51.325-8.268 6.412-18.244 9.655-28.244 9.656z" fill="#51eaf2"/></g><g><g><path d="m411.899 278.146c-6.774 25.809-30.146 43.836-56.83 43.836h-76.974v-32.931h76.974c11.733 0 22.007-7.922 24.98-19.269 2.653-10.105-.988-20.728-9.277-27.079-7.565-5.786-18.037-6.229-26.063-1.11l-17.717-27.766c19.655-12.533 45.285-11.441 63.792 2.729 18.866 14.442 27.156 38.613 21.115 61.59z" fill="#22c2d3"/></g></g><g><path d="m384.275 440.377c-8.261 6.417-18.244 9.663-28.245 9.663-8.666 0-17.35-2.437-24.962-7.358l17.877-27.662c4.657 3.02 10.754 2.747 15.148-.659 5.128-3.98 7.377-10.67 5.721-17.04-1.835-7.066-8.073-11.996-15.186-11.996h-76.532v-32.931h76.532c22.111 0 41.465 15.073 47.063 36.657 4.958 19.129-1.873 39.283-17.416 51.326z" fill="#22c2d3"/></g></g></g></svg>