<svg id="Layer_1" enable-background="new 0 0 512 512" height="512" viewBox="0 0 512 512" width="512" xmlns="http://www.w3.org/2000/svg"><g><g id="XMLID_10_"><g><circle cx="256" cy="256" fill="#4793ff" r="256"/></g></g><path d="m512 256c0-2.838-.063-5.662-.155-8.478l-162.683-169.885-265.826 211.117 81.312 81.599-9.537-1.574 140.244 140.211c122.7-18.933 216.645-124.989 216.645-252.99z" fill="#424fdd"/><g><g><g><g><path d="m385.693 160.907c-2.988 0-5.929.192-8.826.529.285-3.246.439-6.528.439-9.848 0-61.444-49.81-111.254-111.254-111.254-51.173 0-94.271 34.553-107.251 81.599-4.121-.542-8.324-.826-12.593-.826-52.807 0-95.615 42.808-95.615 95.615 0 52.806 42.808 95.614 95.615 95.614h239.486c41.816 0 75.714-33.898 75.714-75.714-.001-41.817-33.899-75.715-75.715-75.715z" fill="#51eaf2"/></g></g></g><g><g><path d="m461.41 236.62c0 41.82-33.9 75.71-75.72 75.71h-129.69v-271.55c3.31-.3 6.66-.45 10.05-.45 61.45 0 111.26 49.81 111.26 111.26 0 3.32-.16 6.6-.44 9.85 2.89-.34 5.84-.53 8.82-.53 41.82 0 75.72 33.89 75.72 75.71z" fill="#22c2d3"/></g></g><path d="m322.515 345.919-15.392 9.138h-20.994l16.675-16.676-16.408-16.408-16.676 16.676v-20.994l9.139-15.392-22.859-34.375-22.859 34.375 9.139 15.392v20.994l-16.677-16.676-16.408 16.408 16.676 16.676h-20.994l-15.392-9.138-34.375 22.859 34.375 22.858 15.392-9.138h20.994l-16.676 16.676 16.408 16.409 16.677-16.677v20.995l-9.139 15.391 22.859 34.375 22.859-34.375-9.139-15.391v-20.995l16.676 16.677 16.408-16.409-16.675-16.676h20.994l15.392 9.138 34.375-22.858z" fill="#fff"/><path d="m356.89 368.78-34.38 22.86-15.39-9.14h-20.99l16.67 16.67-16.4 16.41-16.68-16.67v20.99l9.14 15.39-22.86 34.38v-201.78l22.86 34.37-5.98 10.07-3.16 5.32v21l16.68-16.68 16.4 16.41-16.67 16.68h20.99l15.39-9.14z" fill="#daefec"/></g></g></svg>