<svg id="Layer_1" enable-background="new 0 0 512 512" height="512" viewBox="0 0 512 512" width="512" xmlns="http://www.w3.org/2000/svg"><g><g id="XMLID_1782_"><g><g id="XMLID_1884_"><g id="XMLID_1885_"><g id="XMLID_1886_"><g id="XMLID_1887_"><g id="XMLID_1888_"><g id="XMLID_1889_"><g id="XMLID_1890_"><g id="XMLID_1891_"><g id="XMLID_1892_"><g id="XMLID_1893_"><g id="XMLID_1894_"><g id="XMLID_1895_"><g id="XMLID_1896_"><g id="XMLID_1925_"><circle cx="256" cy="256" fill="#00337a" r="256"/></g></g></g></g></g></g></g></g></g></g></g></g></g></g></g></g><path d="m512 256c0-7.373-.33-14.668-.941-21.883l-110.974-110.974-276.942 276.942 110.974 110.974c7.215.611 14.51.941 21.883.941 141.385 0 256-114.615 256-256z" fill="#002659"/><g id="XMLID_1555_"><g><g id="XMLID_1898_"><g id="XMLID_1899_"><g id="XMLID_1900_"><g id="XMLID_1901_"><g id="XMLID_1902_"><g id="XMLID_1903_"><g id="XMLID_1904_"><g id="XMLID_1905_"><g id="XMLID_1906_"><g id="XMLID_1907_"><g id="XMLID_1908_"><g id="XMLID_1909_"><g id="XMLID_1910_"><g id="XMLID_1911_"><circle cx="256" cy="256" fill="#51eaf2" r="196"/></g></g></g></g></g></g></g></g></g></g></g></g></g></g></g></g><g><g id="XMLID_1066_"><g id="XMLID_1067_"><g id="XMLID_1068_"><g id="XMLID_1069_"><g id="XMLID_1070_"><g id="XMLID_1073_"><g id="XMLID_1074_"><g id="XMLID_1075_"><g id="XMLID_1076_"><g id="XMLID_1110_"><g id="XMLID_1169_"><g id="XMLID_1549_"><g id="XMLID_1553_"><g id="XMLID_1554_"><path d="m452 256c0 108.25-87.75 196-196 196v-392c108.25 0 196 87.75 196 196z" fill="#22c2d3"/></g></g></g></g></g></g></g></g></g></g></g></g></g></g><g id="XMLID_780_"><g id="XMLID_803_"><g id="XMLID_830_"><g id="XMLID_969_"><g id="XMLID_970_"><g id="XMLID_971_"><g id="XMLID_972_"><g id="XMLID_973_"><g id="XMLID_974_"><g id="XMLID_975_"><g id="XMLID_976_"><g id="XMLID_977_"><g id="XMLID_979_"><g id="XMLID_981_"><circle id="XMLID_993_" cx="256" cy="256" fill="#fff" r="137.028"/></g></g></g></g></g></g></g></g></g></g></g></g></g></g><g id="XMLID_752_"><g id="XMLID_753_"><g id="XMLID_768_"><g id="XMLID_769_"><g id="XMLID_770_"><g id="XMLID_771_"><g id="XMLID_772_"><g id="XMLID_773_"><g id="XMLID_774_"><g id="XMLID_775_"><g id="XMLID_776_"><g id="XMLID_777_"><g id="XMLID_778_"><g id="XMLID_779_"><path d="m393.03 256c0 75.68-61.35 137.03-137.03 137.03v-274.06c75.68 0 137.03 61.35 137.03 137.03z" fill="#daefec"/></g></g></g></g></g></g></g></g></g></g></g></g></g></g><path d="m300.261 193.717-102.823 39.799c-16.294 6.307-14.453 29.933 2.622 33.639l39.065 8.48 10.742 38.504c4.695 16.829 28.388 17.291 33.734.657l33.74-104.968c3.347-10.415-6.877-20.06-17.08-16.111z" fill="#ff8659"/><path d="m283.6 314.796 33.74-104.967c3.348-10.416-6.876-20.061-17.079-16.112l-44.261 17.132v112.543c8.862 6.807 23.534 4.056 27.6-8.596z" fill="#ff405c"/></g></g></svg>