<svg id="Layer_1" enable-background="new 0 0 512 512" height="512" viewBox="0 0 512 512" width="512" xmlns="http://www.w3.org/2000/svg"><g><g><g id="XMLID_20_"><g><g><circle cx="256" cy="256" fill="#ff8659" r="256"/></g></g></g><path d="m512 256c0-10.942-.69-21.722-2.022-32.302l-159.356-159.356-266.766 211.828 71.305 71.668-25.833 90.828 66.107 66.107c19.42 4.712 39.697 7.227 60.565 7.227 141.385 0 256-114.615 256-256z" fill="#ff405c"/><g><path d="m386.228 146.74c-3 0-5.953.193-8.862.531.286-3.259.441-6.555.441-9.889 0-61.698-50.016-111.713-111.713-111.713-51.385 0-94.66 34.695-107.693 81.936-4.138-.545-8.358-.83-12.646-.83-53.024 0-96.009 42.985-96.009 96.009s42.985 96.009 96.009 96.009h240.474c41.988 0 76.027-34.038 76.027-76.027s-34.039-76.026-76.028-76.026z" fill="#00337a"/><g><path d="m462.255 222.764c0 41.991-34.037 76.028-76.028 76.028h-130.227v-272.671c3.326-.306 6.691-.454 10.096-.454 61.699 0 111.713 50.014 111.713 111.713 0 3.336-.158 6.632-.444 9.888 2.911-.335 5.862-.533 8.862-.533 41.991 0 76.028 34.047 76.028 76.029z" fill="#002659"/></g></g><g><g><path d="m129.329 336.634h30v102.033h-30z" fill="#fff"/></g><g><path d="m203.776 336.634h30v62.602h-30z" fill="#fff"/></g><g><path d="m203.776 432.058h30v41.692h-30z" fill="#fff"/></g></g></g><path d="m424.291 272.682h-95.54l-61.709 97.098h69.507l-19.878 83.124 101.585-110.832h-39.462z" fill="#f9cb0d"/></g></svg>