<svg id="Layer_1" enable-background="new 0 0 512 512" height="512" viewBox="0 0 512 512" width="512" xmlns="http://www.w3.org/2000/svg"><g><g id="XMLID_23_"><g><circle cx="256" cy="256" fill="#ffea92" r="256"/></g></g><path d="m512 256c0-6.372-.241-12.687-.699-18.942l-120.501-120.502-35.84 93.484-46.009-46.01-250.673 199.087 142.793 142.955c17.697 3.87 36.072 5.928 54.929 5.928 141.385 0 256-114.615 256-256z" fill="#ffdd50"/><g><path d="m423.909 189.758c-2.551 0-5.063.164-7.536.451.243-2.771.375-5.575.375-8.409 0-52.468-42.533-95.001-95.001-95.001-43.697 0-80.499 29.505-91.582 69.678-3.519-.463-7.108-.706-10.754-.706-45.092 0-81.646 36.554-81.646 81.646s36.554 81.646 81.646 81.646h204.499c35.707 0 64.653-28.946 64.653-64.653s-28.947-64.652-64.654-64.652z" fill="#00337a"/><g><g><path d="m488.562 254.408c0 35.709-28.945 64.654-64.654 64.654h-110.745v-231.879c2.828-.26 5.69-.386 8.585-.386 52.469 0 95.001 42.532 95.001 95.001 0 2.837-.134 5.64-.378 8.409 2.476-.285 4.985-.453 7.536-.453 35.71 0 64.655 28.953 64.655 64.654z" fill="#002659"/></g></g></g><g><path d="m343.664 242.847c-2.817 0-5.59.181-8.322.498.269-3.06.414-6.155.414-9.285 0-57.933-46.964-104.897-104.897-104.897-48.249 0-88.884 32.578-101.122 76.936-3.886-.511-7.849-.779-11.874-.779-49.789 0-90.151 40.362-90.151 90.151s40.362 90.151 90.151 90.151h225.801c39.426 0 71.388-31.961 71.388-71.388 0-39.425-31.962-71.387-71.388-71.387z" fill="#4793ff"/><g><path d="m415.052 314.232c0 39.429-31.96 71.389-71.389 71.389h-122.281v-256.034c3.123-.287 6.283-.426 9.48-.426 57.934 0 104.897 46.962 104.897 104.897 0 3.132-.148 6.227-.417 9.285 2.734-.315 5.504-.5 8.321-.5 39.428 0 71.389 31.969 71.389 71.389z" fill="#424fdd"/></g></g></g></svg>