<svg id="Layer_1" enable-background="new 0 0 512 512" height="512" viewBox="0 0 512 512" width="512" xmlns="http://www.w3.org/2000/svg"><g><g id="XMLID_7_"><g><circle cx="256" cy="256" fill="#51eaf2" r="256"/></g></g><path d="m511.921 262.282-199.412-199.477-133.371 373.226 76.013 75.959c.283 0 .565.01.849.01 139.285 0 252.585-111.236 255.921-249.718z" fill="#22c2d3"/><g><path d="m202.562 74.5v207.04c-22.177 16.392-36.561 42.724-36.561 72.419 0 49.705 40.294 89.999 89.999 89.999s90-40.294 90-89.999c0-29.695-14.384-56.027-36.561-72.419v-207.04z" fill="#ff8659"/></g><g><path d="m346 353.96c0 49.7-40.29 90-90 90v-369.46h53.44v207.04c22.18 16.39 36.56 42.72 36.56 72.42z" fill="#ff405c"/></g><g><path d="m256 466.458c-62.032 0-112.499-50.467-112.499-112.5 0-31.571 13.486-61.806 36.561-82.986v-157.492c0-41.872 34.066-75.938 75.939-75.938s75.939 34.066 75.939 75.938v157.492c23.074 21.181 36.56 51.415 36.56 82.986-.001 62.033-50.468 112.5-112.5 112.5zm0-383.916c-17.06 0-30.939 13.879-30.939 30.938v179.409l-9.126 6.745c-17.436 12.887-27.435 32.688-27.435 54.325 0 37.219 30.28 67.5 67.499 67.5s67.499-30.28 67.499-67.5c0-21.637-10-41.438-27.434-54.325l-9.126-6.746v-179.408c.001-17.059-13.878-30.938-30.938-30.938z" fill="#fff"/></g><g><path d="m331.94 270.97v-157.49c0-41.87-34.07-75.94-75.94-75.94v45c17.06 0 30.94 13.88 30.94 30.94v179.41l9.12 6.74c17.44 12.89 27.44 32.69 27.44 54.33 0 37.22-30.28 67.5-67.5 67.5v45c62.03 0 112.5-50.47 112.5-112.5 0-31.57-13.49-61.81-36.56-82.99z" fill="#daefec"/></g></g></svg>