<svg id="Layer_1" enable-background="new 0 0 512 512" height="512" viewBox="0 0 512 512" width="512" xmlns="http://www.w3.org/2000/svg"><g><g id="XMLID_5_"><g><g><circle cx="256" cy="256" fill="#ff8659" r="256"/></g></g></g><path d="m512 256c0-21.537-2.674-42.447-7.682-62.431l-161.003-161.003-38.982 14.434-114 168.667-120.06 94.235 36.801 37.357-16.307 5.662 158.999 158.999c2.072.05 4.15.079 6.234.079 141.385.001 256-114.614 256-255.999z" fill="#ff405c"/><g><g><path d="m339.749 142.335c-29.39-29.39-29.39-77.041 0-106.431 1.16-1.16 2.352-2.269 3.567-3.338-29.285-.946-58.877 9.751-81.231 32.105-42.893 42.893-42.893 112.435 0 155.328s112.435 42.893 155.328 0c22.354-22.354 33.05-51.945 32.105-81.23-1.069 1.215-2.178 2.407-3.338 3.567-29.391 29.389-77.041 29.389-106.431-.001z" fill="#ffea92"/><path d="m417.415 219.999c-19.909 19.91-45.573 30.586-71.638 32v-104.249c29.553 23.847 72.947 22.041 100.398-5.419 1.166-1.156 2.275-2.351 3.345-3.565.947 29.285-9.758 58.877-32.105 81.233z" fill="#ffdd50"/><g><path d="m320.434 201.031c-2.496 0-4.954.16-7.375.442.238-2.712.367-5.455.367-8.228 0-51.34-41.619-92.958-92.959-92.958-42.758 0-78.768 28.87-89.613 68.18-3.444-.453-6.955-.69-10.523-.69-44.123 0-79.891 35.768-79.891 79.891 0 44.122 35.768 79.891 79.891 79.891h200.103c34.939 0 63.263-28.324 63.263-63.263 0-34.941-28.324-63.265-63.263-63.265z" fill="#00337a"/><g><path d="m383.697 264.291c0 34.941-28.323 63.264-63.264 63.264h-108.364v-226.894c2.767-.255 5.568-.378 8.401-.378 51.341 0 92.958 41.618 92.958 92.958 0 2.776-.131 5.518-.37 8.228 2.423-.279 4.878-.443 7.374-.443 34.943.001 63.265 28.332 63.265 63.265z" fill="#002659"/></g></g></g><g><g><path d="m289.069 352.922h-198.303v-33.453h198.303c11.915 0 22.351-8.048 25.378-19.572 2.696-10.261-1.006-21.057-9.43-27.505-7.682-5.88-18.319-6.334-26.474-1.132l-17.992-28.202c19.958-12.734 46-11.62 64.799 2.769 19.164 14.668 27.584 39.228 21.453 62.568-6.887 26.217-30.628 44.527-57.734 44.527z" fill="#51eaf2"/></g></g><g><path d="m290.047 481.489c-8.807 0-17.632-2.475-25.365-7.474l18.16-28.095c4.738 3.063 10.925 2.792 15.393-.674 5.208-4.039 7.488-10.833 5.809-17.309-1.86-7.172-8.204-12.182-15.429-12.182h-135.064v-33.453h135.066c22.466 0 42.126 15.313 47.811 37.239 5.038 19.432-1.906 39.897-17.689 52.139-8.399 6.514-18.533 9.808-28.692 9.809z" fill="#51eaf2"/></g><g><g><path d="m346.8 308.4c-6.88 26.21-30.63 44.53-57.73 44.53h-77v-33.46h77c11.92 0 22.35-8.04 25.37-19.57 2.7-10.27-1-21.06-9.42-27.51-7.68-5.88-18.32-6.33-26.48-1.13l-17.99-28.2c19.96-12.73 46-11.63 64.8 2.77 19.16 14.67 27.59 39.22 21.45 62.57z" fill="#22c2d3"/></g></g><g><path d="m318.74 471.68c-8.4 6.51-18.54 9.81-28.7 9.81-8.8 0-17.62-2.47-25.35-7.47l18.16-28.1c4.73 3.06 10.92 2.79 15.38-.67 5.21-4.05 7.5-10.84 5.82-17.31-1.87-7.18-8.21-12.19-15.43-12.19h-76.55v-33.45h76.55c22.46 0 42.12 15.31 47.81 37.24 5.04 19.43-1.9 39.9-17.69 52.14z" fill="#22c2d3"/></g></g></g></svg>