<svg id="Layer_1" enable-background="new 0 0 512 512" height="512" viewBox="0 0 512 512" width="512" xmlns="http://www.w3.org/2000/svg"><g><g id="XMLID_29_"><g><g id="XMLID_1939_"><g id="XMLID_1941_"><g id="XMLID_1942_"><g id="XMLID_1943_"><g id="XMLID_1944_"><g id="XMLID_1945_"><g id="XMLID_1946_"><g id="XMLID_1947_"><g id="XMLID_1948_"><g id="XMLID_1949_"><g id="XMLID_1950_"><g id="XMLID_1951_"><g id="XMLID_1952_"><g id="XMLID_1953_"><circle cx="256" cy="256" fill="#4793ff" r="256"/></g></g></g></g></g></g></g></g></g></g></g></g></g></g></g></g><path d="m512 256c0-9.345-.515-18.569-1.491-27.654l-163.361-163.361-260.353 206.81 62.564 64.098-29.248 36.104 49.273 49.286c-8.332 3.535-16.362 28.517-16.362 28.517l58.309 58.309c14.505 2.552 29.43 3.891 44.669 3.891 141.385 0 256-114.615 256-256z" fill="#424fdd"/><g><g><g><path d="m384.924 148.691c-2.924 0-5.802.188-8.638.517.279-3.176.429-6.389.429-9.638 0-60.132-48.747-108.879-108.879-108.879-50.081 0-92.258 33.815-104.961 79.857-4.033-.531-8.146-.809-12.325-.809-51.679 0-93.573 41.894-93.573 93.573s41.894 93.573 93.573 93.573h234.373c40.923 0 74.098-33.175 74.098-74.098s-33.174-74.096-74.097-74.096z" fill="#fff"/><g><path d="m459.022 222.785c0 40.926-33.173 74.099-74.099 74.099h-126.923v-265.752c3.241-.298 6.521-.442 9.839-.442 60.133 0 108.879 48.745 108.879 108.879 0 3.251-.154 6.463-.433 9.638 2.837-.327 5.713-.519 8.637-.519 40.926-.002 74.1 33.181 74.1 74.097z" fill="#daefec"/></g></g></g><g><ellipse cx="134.018" cy="353.364" fill="#fff" rx="23.25" ry="23.25" transform="matrix(.159 -.987 .987 .159 -236.162 429.481)"/><ellipse cx="223.089" cy="353.364" fill="#fff" rx="23.25" ry="23.25" transform="matrix(.159 -.987 .987 .159 -161.256 517.419)"/><g fill="#daefec"><ellipse cx="312.161" cy="353.364" rx="23.25" ry="23.25" transform="matrix(.174 -.985 .985 .174 -90.017 599.461)"/><ellipse cx="401.232" cy="353.364" rx="23.25" ry="23.25" transform="matrix(.16 -.987 .987 .16 -11.84 692.812)"/></g></g><g><ellipse cx="166.929" cy="431.167" fill="#fff" rx="23.25" ry="23.25" transform="matrix(.159 -.987 .987 .159 -285.298 527.402)"/><ellipse cx="256" cy="431.167" fill="#fff" rx="23.25" ry="23.25" transform="matrix(.16 -.987 .987 .16 -210.606 614.796)"/><ellipse cx="345.071" cy="431.167" fill="#daefec" rx="23.25" ry="23.25" transform="matrix(.16 -.987 .987 .16 -135.802 702.717)"/></g><path d="m279.25 431.17c0 12.84-10.41 23.25-23.25 23.25v-46.5c12.84 0 23.25 10.41 23.25 23.25z" fill="#daefec"/></g></g></svg>