<svg id="Layer_1" enable-background="new 0 0 512 512" height="512" viewBox="0 0 512 512" width="512" xmlns="http://www.w3.org/2000/svg"><g><g id="XMLID_715_"><g><g><circle cx="256" cy="256" fill="#4793ff" r="256"/></g></g></g><path d="m509.204 293.886-102.006-102.006s-111.524-14.097-126.625-8.703l-94.266-93.917-64.979 2.073-7.763 70.67 90.826 91.94c-10.718 20.124 10.505 153.831 10.505 153.831l97.894 97.894c102.004-23.105 180.885-107.109 196.414-211.782z" fill="#424fdd"/><g><g><g><g><path d="m310.038 443.814c-79.347 0-143.9-64.552-143.9-143.899s64.553-143.899 143.9-143.899c28.834 0 56.66 8.502 80.47 24.588l16.69 11.276-22.552 33.381-16.691-11.276c-17.124-11.57-37.151-17.684-57.917-17.684-57.133 0-103.615 46.482-103.615 103.614 0 57.133 46.482 103.614 103.615 103.614 21.672 0 40.017-6.552 54.524-19.473 2.824-2.516 5.518-5.295 8.008-8.264l12.944-15.434 30.866 25.887-12.943 15.433c-3.74 4.46-7.805 8.653-12.082 12.461-21.796 19.414-49.915 29.675-81.317 29.675z" fill="#fff"/></g></g><g><path d="m143.577 171.522c-28.81 0-52.249-23.439-52.249-52.249 0-28.811 23.439-52.249 52.249-52.249s52.249 23.438 52.249 52.249c0 28.81-23.439 52.249-52.249 52.249zm0-74.498c-12.268 0-22.249 9.981-22.249 22.249 0 12.269 9.981 22.249 22.249 22.249s22.249-9.98 22.249-22.249-9.981-22.249-22.249-22.249z" fill="#fff"/></g><g><path d="m143.58 67.02v30c12.26 0 22.25 9.98 22.25 22.25s-9.99 22.25-22.25 22.25v30c28.81 0 52.25-23.44 52.25-52.25s-23.44-52.25-52.25-52.25z" fill="#daefec"/></g></g><g><g fill="#daefec"><path d="m310.04 196.3c-6.41 0-12.69.59-18.78 1.71v-40.77c6.14-.8 12.41-1.22 18.78-1.22 28.83 0 56.66 8.5 80.47 24.58l16.69 11.28-22.55 33.38-16.69-11.28c-17.13-11.56-37.16-17.68-57.92-17.68z"/><path d="m416.38 386.25-12.94 15.43c-3.74 4.46-7.81 8.65-12.09 12.46-21.79 19.41-49.91 29.67-81.31 29.67-6.37 0-12.64-.42-18.78-1.22v-40.77c6.09 1.12 12.37 1.71 18.78 1.71 21.67 0 40.01-6.55 54.52-19.47 2.83-2.52 5.52-5.3 8.01-8.27l12.94-15.43z"/></g></g></g></g></svg>