<svg id="Layer_1" enable-background="new 0 0 512 512" height="512" viewBox="0 0 512 512" width="512" xmlns="http://www.w3.org/2000/svg"><g><g id="XMLID_3_"><g><g><circle cx="256" cy="256" fill="#00337a" r="256"/></g></g></g><path d="m512 256c0-8.781-.444-17.459-1.307-26.012l-93.964-100.517-235.062-7.137-137.216 144.669 64.549 64.747-10.571 15.582 67.821 65.668-11.935 12.934 85.545 85.545c5.339.332 10.717.521 16.14.521 141.385 0 256-114.615 256-256z" fill="#002659"/><g><g><g><g id="XMLID_1749_"><g><g id="XMLID_2039_"><g id="XMLID_2040_"><g id="XMLID_2041_"><g id="XMLID_2042_"><g id="XMLID_2043_"><g id="XMLID_2044_"><g id="XMLID_2045_"><g id="XMLID_2046_"><g id="XMLID_2047_"><g id="XMLID_2048_"><g id="XMLID_2049_"><g id="XMLID_2050_"><g id="XMLID_2051_"><g><path d="m467.538 267.003h-423.087c0-31.111 6.717-60.662 18.789-87.269 0 0 29.835-14.132 44.818-30.5 12.191-13.303 33.161-59.943 33.161-59.943 33.062-21.405 72.471-33.826 114.781-33.826 38.166 0 73.966 10.109 104.88 27.796 0 0 25.353 45.265 41.492 64.653 15.005 18.003 51.699 44.665 51.699 44.665 8.702 23.151 13.467 48.232 13.467 74.424z" fill="#fff4c5"/></g></g></g></g></g></g></g></g></g></g></g></g></g></g></g></g><g id="XMLID_720_"><g><g id="XMLID_2021_"><g id="XMLID_2022_"><g id="XMLID_2023_"><g id="XMLID_2024_"><g id="XMLID_2025_"><g id="XMLID_2026_"><g id="XMLID_2027_"><g id="XMLID_2052_"><g id="XMLID_2053_"><g id="XMLID_2054_"><g id="XMLID_2055_"><g id="XMLID_2056_"><g id="XMLID_2057_"><g><path d="m467.549 267.003h-211.549v-211.549c22.322 0 43.826 3.446 64.032 9.869 85.524 27.131 147.517 107.181 147.517 201.68z" fill="#ffea92"/></g></g></g></g></g></g></g></g></g></g></g></g></g></g></g></g></g></g><path d="m167.958 139.322c0 33.226-26.934 60.161-60.16 60.161-17.665 0-33.553-7.611-44.556-19.748 16.826-37.108 44.065-68.503 77.979-90.443 16.116 10.795 26.737 29.169 26.737 50.03z" fill="#ffea92"/><path d="m454.072 192.58c-13.173 13.936-31.82 22.627-52.506 22.627-39.9 0-72.243-32.343-72.243-72.243 0-24.808 12.508-46.704 31.558-59.703 42.507 24.306 75.755 62.941 93.191 109.319z" fill="#ffe05f"/></g><g><g><g><path d="m98.429 308.804h315.142v38.528h-315.142z" fill="#fff4c5"/></g></g><g><g><path d="m256 308.804h157.568v38.529h-157.568z" fill="#ffea92"/></g></g></g><g><g><g><path d="m154.315 387.406h203.37v38.528h-203.37z" fill="#fff4c5"/></g></g><g><g><path d="m256 387.406h101.683v38.53h-101.683z" fill="#ffea92"/></g></g></g></g></svg>