<svg id="Layer_1" enable-background="new 0 0 512 512" height="512" viewBox="0 0 512 512" width="512" xmlns="http://www.w3.org/2000/svg"><g><g id="XMLID_46_"><g><g id="XMLID_1521_"><g id="XMLID_1539_"><g id="XMLID_1540_"><g id="XMLID_1541_"><g id="XMLID_1542_"><g id="XMLID_1543_"><g id="XMLID_1544_"><g id="XMLID_1550_"><g id="XMLID_1552_"><g id="XMLID_1567_"><g id="XMLID_1582_"><g id="XMLID_1583_"><g id="XMLID_1584_"><g id="XMLID_1601_"><circle cx="256" cy="256" fill="#ff8659" r="256"/></g></g></g></g></g></g></g></g></g></g></g></g></g></g></g></g><path d="m512 256c0-9.64-.551-19.149-1.589-28.512l-160.837-160.837-260.097 206.553 62.713 64.132s-21.44 56.663-23.69 74.663-13.08 22.667-13.08 22.667l66.404 66.404c23.481 7.099 48.379 10.93 74.176 10.93 141.385 0 256-114.615 256-256z" fill="#ff405c"/><g><g><path d="m384.924 147.691c-2.924 0-5.802.188-8.638.517.279-3.176.429-6.389.429-9.638 0-60.132-48.747-108.879-108.879-108.879-50.081 0-92.258 33.815-104.961 79.857-4.033-.531-8.146-.809-12.325-.809-51.679 0-93.573 41.894-93.573 93.573s41.894 93.573 93.573 93.573h234.373c40.923 0 74.098-33.175 74.098-74.098s-33.174-74.096-74.097-74.096z" fill="#fff"/><g><path d="m459.022 221.785c0 40.926-33.173 74.099-74.099 74.099h-126.923v-265.752c3.241-.298 6.521-.442 9.839-.442 60.133 0 108.879 48.745 108.879 108.879 0 3.251-.154 6.463-.433 9.638 2.837-.327 5.713-.519 8.637-.519 40.926-.002 74.1 33.181 74.1 74.097z" fill="#daefec"/></g></g></g><g><g><path d="m153 410.713c0 10.996-2.15 18.398-4.42 23.953h-33.16c1.32-4.54 2.97-8.03 4.38-10.984 2.13-4.494 3.2-6.753 3.2-12.969 0-6.228-1.07-8.475-3.2-12.969-2.87-6.057-6.8-14.361-6.8-29.234 0-14.885 3.93-23.178 6.8-29.234.33-.696.63-1.335.9-1.939h31.49c-1.3 8.315-3.92 13.836-5.99 18.204-2.13 4.494-3.2 6.741-3.2 12.969 0 6.216 1.07 8.475 3.2 12.969 2.87 6.057 6.8 14.349 6.8 29.234z" fill="#ffe05f"/></g><g><g><path d="m235 410.713c0 10.996-2.15 18.398-4.42 23.953h-33.16c1.32-4.54 2.97-8.03 4.38-10.984 2.13-4.494 3.2-6.753 3.2-12.969 0-6.228-1.07-8.475-3.2-12.969-2.87-6.057-6.8-14.361-6.8-29.234 0-14.885 3.93-23.178 6.8-29.234.33-.696.63-1.335.9-1.939h31.49c-1.3 8.315-3.92 13.836-5.99 18.204-2.13 4.494-3.2 6.741-3.2 12.969 0 6.216 1.07 8.475 3.2 12.969 2.87 6.057 6.8 14.349 6.8 29.234z" fill="#ffe05f"/></g></g><g><path d="m317 410.713c0 10.996-2.15 18.398-4.42 23.953h-33.16c1.32-4.54 2.97-8.03 4.38-10.984 2.13-4.494 3.2-6.753 3.2-12.969 0-6.228-1.07-8.475-3.2-12.969-2.87-6.057-6.8-14.361-6.8-29.234 0-14.885 3.93-23.178 6.8-29.234.33-.696.63-1.335.9-1.939h31.49c-1.3 8.315-3.92 13.836-5.99 18.204-2.13 4.494-3.2 6.741-3.2 12.969 0 6.216 1.07 8.475 3.2 12.969 2.87 6.057 6.8 14.349 6.8 29.234z" fill="#f9cb0d"/></g><g><path d="m399 410.713c0 10.996-2.15 18.398-4.42 23.953h-33.16c1.32-4.54 2.97-8.03 4.38-10.984 2.13-4.494 3.2-6.753 3.2-12.969 0-6.228-1.07-8.475-3.2-12.969-2.87-6.057-6.8-14.361-6.8-29.234 0-14.885 3.93-23.178 6.8-29.234.33-.696.63-1.335.9-1.939h31.49c-1.3 8.315-3.92 13.836-5.99 18.204-2.13 4.494-3.2 6.741-3.2 12.969 0 6.216 1.07 8.475 3.2 12.969 2.87 6.057 6.8 14.349 6.8 29.234z" fill="#f9cb0d"/></g></g></g></svg>