<svg id="Layer_1" enable-background="new 0 0 512 512" height="512" viewBox="0 0 512 512" width="512" xmlns="http://www.w3.org/2000/svg"><g><g id="XMLID_1797_"><g><g id="XMLID_1988_"><g id="XMLID_1989_"><g id="XMLID_1990_"><g id="XMLID_1991_"><g id="XMLID_1992_"><g id="XMLID_1993_"><g id="XMLID_1994_"><g id="XMLID_1995_"><g id="XMLID_1996_"><g id="XMLID_1997_"><g id="XMLID_1998_"><g id="XMLID_1999_"><g id="XMLID_2000_"><g id="XMLID_2029_"><circle cx="256" cy="256" fill="#00337a" r="256"/></g></g></g></g></g></g></g></g></g></g></g></g></g></g></g></g><path d="m512 256c0-7.373-.33-14.668-.941-21.883l-110.974-110.974-276.942 276.942 110.974 110.974c7.215.611 14.51.941 21.883.941 141.385 0 256-114.615 256-256z" fill="#002659"/><g id="XMLID_1605_"><g><g id="XMLID_2001_"><g id="XMLID_2002_"><g id="XMLID_2003_"><g id="XMLID_2004_"><g id="XMLID_2005_"><g id="XMLID_2006_"><g id="XMLID_2007_"><g id="XMLID_2008_"><g id="XMLID_2009_"><g id="XMLID_2010_"><g id="XMLID_2011_"><g id="XMLID_2012_"><g id="XMLID_2013_"><g id="XMLID_2014_"><circle cx="256" cy="256" fill="#51eaf2" r="196"/></g></g></g></g></g></g></g></g></g></g></g></g></g></g></g></g><g><g id="XMLID_1505_"><g id="XMLID_1520_"><g id="XMLID_1556_"><g id="XMLID_1557_"><g id="XMLID_1558_"><g id="XMLID_1559_"><g id="XMLID_1560_"><g id="XMLID_1561_"><g id="XMLID_1562_"><g id="XMLID_1563_"><g id="XMLID_1564_"><g id="XMLID_1565_"><g id="XMLID_1603_"><g id="XMLID_1604_"><path d="m452 256c0 108.25-87.75 196-196 196v-392c108.25 0 196 87.75 196 196z" fill="#22c2d3"/></g></g></g></g></g></g></g></g></g></g></g></g></g></g><g id="XMLID_1218_"><g id="XMLID_1247_"><g id="XMLID_1248_"><g id="XMLID_1492_"><g id="XMLID_1493_"><g id="XMLID_1494_"><g id="XMLID_1495_"><g id="XMLID_1496_"><g id="XMLID_1497_"><g id="XMLID_1498_"><g id="XMLID_1499_"><g id="XMLID_1500_"><g id="XMLID_1501_"><g id="XMLID_1502_"><circle id="XMLID_1503_" cx="256" cy="256" fill="#fff" r="137.028"/></g></g></g></g></g></g></g></g></g></g></g></g></g></g><g id="XMLID_26_"><g id="XMLID_708_"><g id="XMLID_1204_"><g id="XMLID_1207_"><g id="XMLID_1208_"><g id="XMLID_1209_"><g id="XMLID_1210_"><g id="XMLID_1211_"><g id="XMLID_1212_"><g id="XMLID_1213_"><g id="XMLID_1214_"><g id="XMLID_1215_"><g id="XMLID_1216_"><g id="XMLID_1217_"><path d="m393.03 256c0 75.68-61.35 137.03-137.03 137.03v-274.06c75.68 0 137.03 61.35 137.03 137.03z" fill="#daefec"/></g></g></g></g></g></g></g></g></g></g></g></g></g></g><path d="m244.26 316.696-47.485-99.507c-7.525-15.769 10.026-31.691 24.99-22.671l34.235 20.638 34.235-20.638c14.964-9.021 32.515 6.902 24.99 22.671l-47.485 99.507c-4.712 9.874-18.768 9.874-23.48 0z" fill="#ff8659"/><path d="m290.24 194.518-34.24 20.64v108.94c4.69 0 9.38-2.46 11.74-7.4l47.49-99.51c7.52-15.77-10.03-31.69-24.99-22.67z" fill="#ff405c"/></g></g></svg>