<svg id="Layer_1" enable-background="new 0 0 512 512" height="512" viewBox="0 0 512 512" width="512" xmlns="http://www.w3.org/2000/svg"><g><g id="XMLID_211_"><g><circle cx="256" cy="256" fill="#51eaf2" r="256"/></g></g><path d="m512 256c0-20.879-2.518-41.167-7.234-60.596l-156.346-156.345s-74.309 18.221-84.032 79.155-196.019 201.073-196.019 201.073l67.407 67.407-5.257 9.17 61.116 60.008-11.96 22.323 29.522 29.522c15.176 2.804 30.816 4.283 46.803 4.283 141.385 0 256-114.615 256-256z" fill="#22c2d3"/><g><path d="m344.792 150.727c-29.899-29.899-29.899-78.374 0-108.273 1.18-1.18 2.392-2.308 3.628-3.395-29.792-.962-59.896 9.92-82.636 32.66-43.635 43.635-43.635 114.381 0 158.016s114.381 43.635 158.016 0c22.74-22.74 33.622-52.844 32.66-82.636-1.087 1.236-2.215 2.448-3.395 3.628-29.899 29.899-78.374 29.899-108.273 0z" fill="#ffea92"/><path d="m423.803 229.735c-20.254 20.254-46.361 31.115-72.877 32.554v-106.053c30.065 24.26 74.21 22.422 102.135-5.513 1.186-1.176 2.314-2.392 3.403-3.627.963 29.792-9.928 59.896-32.661 82.639z" fill="#ffdd50"/><g><path d="m325.143 210.439c-2.54 0-5.04.163-7.502.449.242-2.759.373-5.549.373-8.371 0-52.228-42.339-94.567-94.567-94.567-43.498 0-80.131 29.37-91.164 69.36-3.503-.461-7.076-.702-10.705-.702-44.886 0-81.273 36.387-81.273 81.274 0 44.886 36.387 81.273 81.273 81.273h203.566c35.544 0 64.358-28.814 64.358-64.358-.001-35.544-28.815-64.358-64.359-64.358z" fill="#00337a"/><g><path d="m389.501 274.794c0 35.546-28.813 64.359-64.359 64.359h-110.239v-230.821c2.815-.259 5.664-.384 8.546-.384 52.229 0 94.567 42.338 94.567 94.567 0 2.824-.134 5.614-.376 8.371 2.464-.284 4.962-.451 7.502-.451 35.546 0 64.359 28.821 64.359 64.359z" fill="#002659"/></g></g></g><g><path d="m280.292 299.691h-94.63l-55.143 96.172h68.844l-19.688 82.332 100.617-109.776h-39.087z" fill="#ffe05f"/><path d="m241.203 368.423h39.089l-65.386 71.337v-140.067h65.386z" fill="#f9cb0d"/></g></g></svg>