<?xml version="1.0" encoding="iso-8859-1"?>
<!-- Generator: Adobe Illustrator 19.0.0, SVG Export Plug-In . SVG Version: 6.00 Build 0)  -->
<svg version="1.1" id="Layer_1" xmlns="http://www.w3.org/2000/svg" xmlns:xlink="http://www.w3.org/1999/xlink" x="0px" y="0px"
	 viewBox="0 0 512 512" style="enable-background:new 0 0 512 512;" xml:space="preserve">
<path style="fill:#E2C79F;" d="M508.312,152.643c-0.676,2.745-2.596,5.939-3.61,7.302c-2.472,3.32-5.762,5.938-9.158,8.304
	c-2.472,1.722-5.075,3.381-6.893,5.785c-1.201,1.588-2.034,3.617-1.992,5.632c0.035,1.658,0.945,2.908,1.16,4.496
	c0.606,4.472,0.243,9.304,0.363,13.818c0.254,9.61,0.522,19.219,0.851,28.826c0.272,7.973-0.167,15.946-0.101,23.92
	c0.032,3.874,0.021,7.882,0.596,11.721c0.458,3.052-0.249,5.584-0.152,8.663c0.071,2.248,0.795,4.565,2.429,6.111
	c0.96,0.908,2.337,1.856,2.071,3.15c-0.264,1.286-1.941,1.657-2.772,2.675c-0.822,1.007-0.684,2.48-0.327,3.73
	c0.356,1.25,0.892,2.509,0.725,3.797c-0.168,1.289-1.43,2.55-2.658,2.123c0.306,3.388,0.904,6.859,0.49,10.195
	c-0.371,2.985-0.364,6.016,1.545,8.521c1.111,1.457,2.865,3.037,2.172,4.733c-0.431,1.055-1.69,1.576-2.158,2.616
	c-0.584,1.297,0.28,2.784,0.199,4.204c-0.074,1.299-0.924,2.405-1.401,3.616c-1.145,2.901-0.101,6.018,0.347,8.946
	c0.449,2.931-0.032,5.868,0.154,8.829c0.965,15.421,0.476,30.933,0.613,46.405c0.013,1.471,0.053,2.953-0.09,4.415
	c-0.577,5.91-3.62,9.07-9.965,9.692c-4.381,0.429-8.824,0.254-13.24,0.311c-53.777,0.688-107.552,1.805-161.33,1.918
	c-46.364,0.097-92.731-1.075-139.099-1.459c-39.789-0.329-79.587-0.893-119.366-0.29c-4.308,0.065-9.02-0.543-13.258,0.114
	c-3.467,0.538-6.32-0.319-8.805-3.019c-2.622-2.848-3.177-6.746-3.293-10.467c-0.355-11.427,0.202-22.891,0.552-34.36
	c0.253-8.313,0.695-16.782-0.202-25.054c-0.563-5.191-1.848-10.304-3.831-15.135c-0.75-1.827-1.573-4.012-0.473-5.653
	c0.791-1.181,2.322-1.617,3.342-2.608c1.442-1.403,1.618-3.619,1.707-5.629c0.142-3.221,0.726-7.923-1.399-10.597
	c-0.925-1.164-2.056-1.522-2.108-3.296c-0.048-1.606,1.197-2.954,1.153-4.57c-0.044-1.632-1.358-2.894-2.363-4.18
	c-1.003-1.288-1.726-3.232-0.646-4.457c1.111-1.26,3.36-0.823,4.52-2.041c0.698-0.733,0.778-1.841,0.82-2.852
	c0.166-4.053,0.482-7.88,1.071-11.843c1.927-12.994,0.715-26.461,0.78-39.721c0.051-10.485,0.034-20.971,0.023-31.457
	c-0.003-2.791-0.137-5.618-0.007-8.407c0.091-1.927,0.404-2.919-0.815-4.548c-2.709-3.619-6.793-6.245-10.295-9.019
	c-4.293-3.4-8.517-7.425-9.952-12.711c-0.462-1.703-0.498-3.798,0.855-4.932c0.909-0.762,2.186-0.859,3.371-0.924
	c4.321-0.231,9.279-1.206,13.571-0.71c1.376,0.159,2.367,0.945,3.715,0.081c1.544-0.99,1.539-3.036,1.462-4.658
	c-0.154-3.255-0.308-6.511-0.461-9.766c-0.092-1.936,0.002-4.248,1.641-5.281c0.573-0.361,1.264-0.501,1.838-0.861
	c1.649-1.03,1.765-3.344,1.696-5.287c-0.122-3.407-0.242-6.815-0.364-10.222c-0.066-1.858-0.096-3.852,0.927-5.405
	c1.635-2.481,5.11-2.738,8.081-2.738c2.956,0,6.471,0.305,7.934,2.874c0.865,1.518,0.71,3.386,0.529,5.122
	c-0.396,3.805-0.792,7.611-1.188,11.417c-0.113,1.08-0.179,2.307,0.56,3.103c0.691,0.744,1.833,0.824,2.709,1.338
	c1.799,1.055,2.011,3.524,2.015,5.609c0.008,3.519,0.015,7.037,0.023,10.556c0.002,0.884,0.035,1.854,0.623,2.514
	c0.598,0.673,1.58,0.81,2.476,0.899c6.16,0.617,12.857,1.623,18.969,0.659c2.541-0.4,5.239-0.059,7.813,0.037
	c5.23,0.192,10.46,0.352,15.69,0.492c12.897,0.347,25.797,0.586,38.698,0.781c15.323,0.23,30.649,0.392,45.973,0.509
	c16.758,0.128,33.516,0.205,50.273,0.239c17.199,0.034,34.398,0.025,51.598-0.03c16.648-0.053,33.297-0.148,49.945-0.298
	c15.106-0.135,30.213-0.313,45.317-0.563c12.572-0.208,25.145-0.461,37.713-0.827c2.274-0.061,4.406-0.635,6.66-0.469
	c3.194,0.236,6.375,0.5,9.578,0.588c6.256,0.173,12.525-0.07,18.749-0.725c1.554-0.164,3.173-0.377,4.464-1.258
	c3.542-2.415,0.836-8.825,0.589-12.221c-0.129-1.774,0.147-3.68,1.294-5.041c0.879-1.043,2.19-1.674,2.987-2.78
	c1.109-1.542,0.978-3.621,0.799-5.513c-0.277-2.926-0.554-5.851-0.831-8.777c-0.189-1.994-0.33-4.182,0.825-5.819
	c1.419-2.012,4.193-2.397,6.647-2.607c3.177-0.272,6.814-0.384,9.042,1.897c2.311,2.365,1.845,5.778,1.461,8.749
	c-0.484,3.751-0.585,7.598-0.819,11.384c-0.032,0.521-0.062,1.061,0.122,1.551c0.184,0.489,0.642,0.916,1.163,0.89
	c0.68-0.033,1.19-0.783,1.869-0.741c0.799,0.05,1.084,1.066,1.157,1.864c0.229,2.492,1,4.462,1.453,6.839
	c0.488,2.557-0.238,4.968-0.413,7.511c-0.129,1.875,0.513,4.052,2.251,4.77c0.836,0.345,1.776,0.289,2.679,0.227
	c5.496-0.379,10.711-0.647,16.193,0.135C508.574,148.371,508.876,150.351,508.312,152.643z"/>
<path style="fill:#775847;" d="M74.219,150.214c-2.856-0.102-5.707-0.354-8.544-0.847c-13.205-2.293-26.381-2.209-39.818-2.209
	c-3.731,0-7.462-0.011-11.193,0c-2.878,0.008-5.953-0.936-8.765-0.671c-5.338,0.502-3.22,4.36-1.87,7.87
	c1.448,3.765,4.236,5.52,6.468,8.716c1.425,2.041,2.619,4.504,4.368,6.319c8.107,8.405,25.401,7.293,35.821,6.028
	c11.528-1.399,23.871-1.088,35.54-1.063c12.101,0.027,24.159,0.325,36.265,0.326c14.289,0.001,28.558-0.002,42.846,0
	c7.472,0.001,14.896,1.123,22.3,0.806c8.214-0.351,16.409-1.137,24.637-1.134c9.305,0.003,18.615-0.152,27.909,0.247
	c16.646,0.713,33.311,1.355,49.966,1.407c7.701,0.023,14.836,0.487,22.573-0.049c8.924-0.617,17.861-1.044,26.801-1.349
	c17.618-0.602,35.249-0.725,52.876-0.898c12.236-0.121,24.355-0.522,36.591,0.307c11.719,0.794,23.371,2.182,35.12,2.702
	c10.141,0.448,20.747,1.697,28.82-5.316c4.054-3.521,7.767-7.606,11.532-11.468c2.244-2.303,6.183-7.875,4.599-11.477
	c-0.909-2.07-3.025-1.706-5.152-1.557c-5.673,0.395-11.341,0.888-17.064,0.909c-14.687,0.053-29.346,0.475-43.996,1.393
	c-16.465,1.032-32.994-0.42-49.463-0.408c-16.582,0.012-33.176,0.011-49.779,0c-19.811-0.013-39.539,2.291-59.349,2.294
	c-21.578,0.003-43.028-0.252-64.61-1.351c-22.846-1.163-46.477-1.284-69.247-0.215c-9.391,0.441-18.92,0.929-28.325,0.909
	c-9.145-0.02-18.095-1.108-27.186-0.816C88.013,149.839,81.097,150.461,74.219,150.214z"/>
<g>
	<path style="fill:#AF7B61;" d="M26.376,275.283c-2.598-0.079-8.219-0.113-8.126,3.604c0.066,2.664,3.515,3.63,3.145,7.138
		c-0.46,4.367-2.433,5.624,3.271,6.616c7.619,1.326,15.78,1.415,23.518,1.666c26.808,0.869,53.453-0.144,80.337-0.337
		c17.738-0.127,35.455-0.429,53.185-0.327c8.598,0.049,18.247,0.866,26.48-1.9c1.93-0.648,4.005-0.341,6.013-0.319
		c2.499,0.028,4.999,0.003,7.497-0.032c4.892-0.07,9.786-0.189,14.678-0.068c3.454,0.086,6.908,0.216,10.361,0.356
		c5.231,0.213,10.46,0.457,15.693,0.625c4.036,0.129,7.705,1.27,11.771,1.368c10.435,0.253,20.86-0.421,31.284-0.799
		c13.912-0.503,27.831-0.123,41.736,0.359c3.809,0.133,7.621,0.246,11.433,0.199c3.237-0.04,6.895,0.167,10.003-0.863
		c2.645-0.875,4.616-1.425,7.486-1.438c3.673-0.018,7.352,0.064,11.007,0.457c6.183,0.666,12.307,1.49,18.52,1.859
		c10.254,0.608,20.49,1.076,30.75,1.497c12.67,0.53,25.466-0.042,38.157-0.032c4.432,0.003,10.322,0.682,14.241-1.909
		c1.686-1.115,3.228-2.505,3.185-4.671c-0.032-1.607-0.898-3.167-0.715-4.802c0.208-1.843,5.585-6.12,3.223-7.633
		c-1.906-1.221-6.56-0.288-8.607-0.121c-5.161,0.42-10.35,0.759-15.531,0.502c-5.791-0.286-11.641-0.521-17.439-0.52
		c-10.004,0.001-19.93,0.322-29.945,0.324c-10.259,0.002-20.516,0.208-30.777,0.134c-4.537-0.033-9.074-0.145-13.609-0.147
		c-4.485-0.002-8.857,0.356-13.35,0.262c-4.821-0.102-9.642-0.016-14.46,0.153c-9.434,0.331-18.854,0.984-28.293,1.195
		c-11.374,0.253-22.782,0.098-34.155-0.07c-2.826-0.042-5.651,0.201-8.477,0.075c-2.154-0.096-4.086-0.258-6.219,0.093
		c-5.374,0.885-11.145,0.468-16.583,0.468c-10.556,0-21.1-0.336-31.652-0.385c-6.844-0.031-13.641,0.305-20.452,0.07
		c-12.011-0.416-24.041,0.225-36.043-0.365c-18.355-0.9-36.656-1.301-55.023-1.301c-8.329,0-16.657,0-24.986,0
		c-13.178,0-26.172,1.311-39.349,1.311C42.856,277.576,34.843,276.251,26.376,275.283z"/>
	<path style="fill:#AF7B61;" d="M55.407,310.179c-2.291-0.52-4.992-0.494-7.328-0.607c-4.116-0.199-8.258-0.265-12.374-0.003
		c-4.509,0.288-9.358,0.311-13.8,1.151c-3.355,0.635-3.814,3.075-2.503,5.804c0.671,1.396,1.456,2.914,1.893,4.4
		c0.46,1.566-0.457,3.346,0.025,4.755c0.528,1.544,2.556,1.325,3.922,1.392c3.117,0.153,6.267,0.029,9.388,0.029
		c9.293,0,18.504,0.857,27.777,1.399c5.926,0.346,11.874,0.525,17.809,0.505c5.862-0.019,11.805,0.481,17.66,0.085
		c12.818-0.852,25.612-1.843,38.481-1.741c12.121,0.095,24.22,0.622,36.344,0.645c2.362,0.004,4.899-0.39,7.24-0.166
		c1.972,0.189,3.838,0.397,5.86,0.333c4.599-0.146,9.174-0.707,13.775-0.843c6.562-0.195,13.105-0.105,19.659,0.285
		c5.229,0.312,10.664-0.218,15.934-0.436c5.994-0.248,11.987-0.559,17.987-0.582c6.826-0.027,13.633,0.512,20.446,0.893
		c13.48,0.753,27.161,1.877,40.627,1.018c2.158-0.138,4.322-0.175,6.479-0.328c1.456-0.104,2.695-0.653,4.111-0.822
		c4.097-0.488,8.462-0.181,12.591-0.296c8.418-0.235,16.845-0.447,25.261-0.019c8.509,0.434,17.12,1.419,25.587-0.076
		c2.296-0.406,4.937,0.157,7.283,0.233c2.796,0.09,5.594,0.104,8.391,0.094c5.487-0.019,10.975-0.139,16.461,0.017
		c10.695,0.304,21.363,0.702,32.066,0.833c8.265,0.101,16.662,0.667,24.918,0.058c3.652-0.27,7.96-0.408,11.346-2.021
		c3.245-1.545,2.975-4.119,3.073-7.066c0.086-2.598,3.525-3.84,2.147-6.94c-1.274-2.867-6.409-0.612-8.795-0.815
		c-3.162-0.27-6.12-1.689-9.294-1.795c-15.31-0.514-30.801-0.382-46.093,0.498c-7.973,0.458-15.984,0.918-23.928,1.726
		c-4.211,0.428-8.543,0.681-12.772,0.699c-4.888,0.02-9.752-0.383-14.658-0.248c-4.99,0.137-9.981,0.439-14.973,0.277
		c-6.163-0.2-12.306-0.388-18.462-0.702c-6.579-0.336-13.156-0.753-19.744-0.875c-2.758-0.051-5.414,0.111-8.096-0.545
		c-2.488-0.608-5.132-0.145-7.668-0.043c-3.362,0.135-6.735,0.066-10.092,0.254c-8.003,0.449-15.926,1.951-23.935,2.424
		c-5.32,0.313-10.705,0.939-16.034,0.445c-2.008-0.186-4.056-0.302-6.005-0.854c-1.952-0.553-2.951-1.286-5.053-1.281
		c-6.704,0.018-13.406-0.262-20.108-0.253c-9.935,0.014-19.837-0.701-29.764-0.768c-5.617-0.038-11.134-0.039-16.721,0.639
		c-4.24,0.515-8.528,1.33-12.767,1.484c-4.796,0.175-9.596,0.25-14.395,0.258c-10.53,0.017-21.058-0.293-31.583-0.588
		c-10.101-0.283-20.268-0.275-30.316-0.872c-5.598-0.332-11.17-0.941-16.777-1.145C69.179,309.836,62.379,309.383,55.407,310.179z"
		/>
</g>
<path style="fill:#C6A983;" d="M43.918,174.983c1.587-0.503,3.149-1.03,4.941-1.19c8.473-0.76,17.047,0.069,25.524,0.342
	c14.244,0.459,28.358,1.112,42.639,1.119c25.956,0.013,51.929-2.04,77.88,0.208c31.334,2.713,63.019-1.286,94.512-0.777
	c10.526,0.17,21.084,0.6,31.609,0.571c15.343-0.042,30.383,0.876,45.743,0.83c7.237-0.022,14.464-0.293,21.696-0.282
	c12.955,0.022,25.899-0.586,38.839-1.134c5.465-0.231,10.714,0.448,16.22,0.139c6.444-0.362,12.886-1.053,19.35-0.728
	c5.268,0.264,10.433,0.619,15.718,0.621c2.554,0,7.338-1.212,8.738,1.678c0.949,1.958-0.482,4.686-2.198,5.686
	c-5.219,3.041-15.588-0.35-21.175-1.078c-9.049-1.181-18.006-0.813-27.098-0.761c-12.493,0.071-24.876,0.024-37.373-0.477
	c-13.298-0.533-26.256-0.375-39.548-0.062c-11.295,0.265-22.602,0.72-33.818,1.238c-22.682,1.046-45.607,1.004-68.306,0.43
	c-10.14-0.257-20.184-1.114-30.301,0.248c-5.099,0.686-10.102,1.257-15.229,1.671c-15.49,1.254-31.297-1.516-46.775-2.556
	c-6.664-0.448-12.557-1.607-19.325-0.59c-6.524,0.98-12.886,3.068-18.719,6.151c-11.53,6.095-20.922,16.21-24.951,28.734
	c-4.187,13.016,0.402,27.941,8.91,38.199c10.319,12.442,24.145,14.267,39.342,13.88c14.075-0.358,28.145-0.31,42.211,0.388
	c25.913,1.285,51.854,1.668,77.782,2.324c4.749,0.121,9.466,0.238,14.205,0.635c2.727,0.229,7.23,0.252,9.476,2.145
	c2.068,1.743,2.63,5.156,0.036,6.385c-1.697,0.804-4.38,0.25-6.153,0.137c-5.078-0.324-10.067-0.425-15.165-0.425
	c-14.145-0.002-28.268-0.805-42.402-0.84c-19.479-0.046-38.957,0.166-58.435,0.343c-9.854,0.09-19.709,0.169-29.565,0.204
	c-7.97,0.028-15.425-2.118-23.507-2.186c-14.132-0.118-28.264-0.353-42.396-0.479c-6.427-0.058-12.891-0.364-19.251-0.515
	c-6.966-0.166-13.812,1.613-20.855,1.043c-5.188-0.419-10.981,1.004-11.097-5.582c-0.467-26.324,1.879-52.979-0.826-79.275
	c-0.33-3.206-0.14-6.361-0.271-9.576c-0.037-0.908-0.837-3.963-0.226-4.854c0.733-1.069,3.283-0.868,4.361-0.857
	c3.901,0.039,8.306,0.428,12.151-0.294C41.916,175.606,42.921,175.299,43.918,174.983z"/>
<g>
	<path style="fill:#5B453D;" d="M66.415,185.861c-1.957,0.102-4.066,1.154-5.764,2.024c-2.906,1.49-5.225,3.539-6.67,6.469
		c-2.124,4.309-3.444,9.262-4.232,13.99c-0.626,3.753,0.135,7.703,0.129,11.487c-0.003,1.91,0.095,3.787,0.188,5.692
		c0.053,1.08-0.211,2.716,0.385,3.698c0.612,1.008,2.216,1.443,3.261,1.66c2.561,0.532,5.587,0.407,8.182,0.294
		c3.259-0.142,6.472-0.322,9.737-0.323c2.268,0,4.511,0.017,6.752-0.39c1.503-0.273,3.149-0.603,4.411-1.52
		c1.116-0.811,0.952-1.505,0.869-2.74c-0.253-3.735,0.448-7.56,0.466-11.306c0.011-2.296-0.111-4.594-0.05-6.887
		c0.053-2.011-0.618-4.03-1.008-5.994c-0.507-2.55-0.677-5.045-1.743-7.463c-1.081-2.451-2.758-4.238-4.793-5.927
		c-1.084-0.9-2.315-1.864-3.62-2.404C70.905,185.393,68.536,185.917,66.415,185.861z"/>
	<path style="fill:#5B453D;" d="M107.329,185.861c-1.957,0.102-4.066,1.154-5.764,2.024c-2.906,1.49-5.225,3.539-6.67,6.469
		c-2.125,4.309-3.444,9.262-4.233,13.99c-0.626,3.753,0.135,7.703,0.129,11.487c-0.003,1.91,0.095,3.787,0.188,5.692
		c0.053,1.08-0.211,2.716,0.385,3.698c0.612,1.008,2.217,1.443,3.262,1.66c2.561,0.532,5.587,0.407,8.182,0.294
		c3.259-0.142,6.472-0.322,9.737-0.323c2.268,0,4.511,0.017,6.752-0.39c1.503-0.273,3.149-0.603,4.411-1.52
		c1.116-0.811,0.952-1.505,0.869-2.74c-0.253-3.735,0.448-7.56,0.466-11.306c0.011-2.296-0.111-4.594-0.05-6.887
		c0.053-2.011-0.618-4.03-1.008-5.994c-0.507-2.55-0.677-5.045-1.743-7.463c-1.081-2.451-2.758-4.238-4.793-5.927
		c-1.084-0.9-2.315-1.864-3.62-2.404C111.818,185.393,109.449,185.917,107.329,185.861z"/>
	<path style="fill:#5B453D;" d="M148.242,185.861c-1.957,0.102-4.066,1.154-5.764,2.024c-2.906,1.49-5.225,3.539-6.67,6.469
		c-2.125,4.309-3.444,9.262-4.233,13.99c-0.626,3.753,0.135,7.703,0.129,11.487c-0.003,1.91,0.095,3.787,0.188,5.692
		c0.053,1.08-0.211,2.716,0.385,3.698c0.612,1.008,2.217,1.443,3.262,1.66c2.561,0.532,5.587,0.407,8.182,0.294
		c3.259-0.142,6.472-0.322,9.737-0.323c2.268,0,4.511,0.017,6.752-0.39c1.503-0.273,3.149-0.603,4.411-1.52
		c1.116-0.811,0.953-1.505,0.869-2.74c-0.253-3.735,0.448-7.56,0.466-11.306c0.011-2.296-0.111-4.594-0.05-6.887
		c0.053-2.011-0.618-4.03-1.008-5.994c-0.507-2.55-0.677-5.045-1.743-7.463c-1.08-2.451-2.758-4.238-4.793-5.927
		c-1.084-0.9-2.315-1.864-3.62-2.404C152.732,185.393,150.362,185.917,148.242,185.861z"/>
	<path style="fill:#5B453D;" d="M189.154,185.861c-1.957,0.102-4.066,1.154-5.764,2.024c-2.906,1.49-5.225,3.539-6.67,6.469
		c-2.125,4.309-3.444,9.262-4.233,13.99c-0.626,3.753,0.135,7.703,0.129,11.487c-0.003,1.91,0.095,3.787,0.188,5.692
		c0.053,1.08-0.211,2.716,0.385,3.698c0.612,1.008,2.217,1.443,3.262,1.66c2.561,0.532,5.587,0.407,8.183,0.294
		c3.259-0.142,6.471-0.322,9.737-0.323c2.268,0,4.511,0.017,6.752-0.39c1.503-0.273,3.149-0.603,4.411-1.52
		c1.116-0.811,0.952-1.505,0.869-2.74c-0.253-3.735,0.448-7.56,0.466-11.306c0.011-2.296-0.111-4.594-0.05-6.887
		c0.053-2.011-0.618-4.03-1.008-5.994c-0.507-2.55-0.677-5.045-1.743-7.463c-1.081-2.451-2.758-4.238-4.793-5.927
		c-1.084-0.9-2.315-1.864-3.62-2.404C193.645,185.393,191.276,185.917,189.154,185.861z"/>
	<path style="fill:#5B453D;" d="M230.068,185.861c-1.957,0.102-4.066,1.154-5.764,2.024c-2.906,1.49-5.225,3.539-6.67,6.469
		c-2.124,4.309-3.444,9.262-4.233,13.99c-0.626,3.753,0.135,7.703,0.129,11.487c-0.003,1.91,0.095,3.787,0.189,5.692
		c0.053,1.08-0.211,2.716,0.385,3.698c0.612,1.008,2.217,1.443,3.261,1.66c2.561,0.532,5.587,0.407,8.183,0.294
		c3.259-0.142,6.471-0.322,9.737-0.323c2.268,0,4.511,0.017,6.752-0.39c1.503-0.273,3.149-0.603,4.411-1.52
		c1.116-0.811,0.952-1.505,0.869-2.74c-0.253-3.735,0.448-7.56,0.466-11.306c0.011-2.296-0.111-4.594-0.05-6.887
		c0.053-2.011-0.618-4.03-1.008-5.994c-0.507-2.55-0.677-5.045-1.743-7.463c-1.081-2.451-2.758-4.238-4.793-5.927
		c-1.084-0.9-2.315-1.864-3.62-2.404C234.559,185.393,232.189,185.917,230.068,185.861z"/>
	<path style="fill:#5B453D;" d="M85.186,239.924c-3.606-0.3-8.336,3.348-10.805,5.698c-2.687,2.556-3.479,7.659-3.968,11.156
		c-0.588,4.213-0.699,8.43-1.064,12.653c-0.154,1.782-0.856,4.884,0.715,5.617c1.035,0.483,2.711,0.131,3.808,0.156
		c2.195,0.05,4.325,0.385,6.529,0.271c3.335-0.171,6.787-0.246,10.099-0.129c1.977,0.07,4.285,1.505,5.393-0.63
		c0.926-1.783,0.626-4.644,0.604-6.575c-0.031-2.672-0.124-5.341-0.15-8.018c-0.04-4.043-0.49-8.693-1.998-12.486
		c-0.63-1.586-1.404-2.95-2.797-3.961c-0.865-0.627-1.91-1.363-2.848-1.846C87.247,241.08,85.491,241.175,85.186,239.924z"/>
	<path style="fill:#5B453D;" d="M165.101,238.417c-10.051,1.427-12.156,13.606-12.059,21.699c0.044,3.708-0.579,7.363-0.606,11.058
		c-0.018,2.334-0.605,3.791,2.092,4.155c5.898,0.795,11.799,1.195,17.759,1.232c2.294,0.014,5.375,0.652,7.659,0.012
		c2.237-0.626,2.818-4.622,3.072-6.638c0.536-4.267,0.805-8.991,0.332-13.261C182.341,247.603,176.546,238.175,165.101,238.417z"/>
</g>
<path style="fill:#C6A983;" d="M79.422,326.531c-17.197-0.559-34.012,1.232-51.176,1.367c-1.453,0.011-4.171-0.617-5.222,0.554
	c-0.813,0.906-0.403,2.771-0.415,3.983c-0.155,14.688,0.169,29.464-0.003,44.248c-0.081,7.021,0.051,14.035,0.285,21.03
	c0.129,3.853-0.105,6.261,3.906,7.06c6.871,1.369,13.779-0.446,20.682-0.298c9.33,0.2,18.666,1.488,28.013,1.142
	c10.537-0.39,21.079,0.659,31.59,0.124c11.182-0.57,22.526-0.415,33.724-0.415c30.058,0,60.141-0.347,90.17,0.864
	c14.155,0.571,28.375,1.859,42.541,1.908c6.579,0.021,13.296,0.281,19.825-0.654c1.536-0.22,5.763-0.429,7.034-1.436
	c1.374-1.087,0.798-1.961-0.267-3.609c-1.494-2.314-4.054-2.654-6.564-2.96c-2.812-0.343-4.403-0.905-6.889-1.963
	c-5.044-2.148-11.547-1.185-17.003-1.766c-12.004-1.28-24.012-2.571-35.94-4.437c-14.036-2.196-28.109-4.065-42.161-6.131
	c-12.864-1.893-25.852-2.985-38.685-5.106c-8.091-1.336-18.47-2.644-25.628-6.924c-20.774-12.425,27.635-28.477,34.286-30.157
	c16.696-4.219,33.807-6.831,50.911-7.511c18.457-0.733,36.926-1.928,55.405-1.268c31.341,1.121,62.643,3.28,94.018,3.124
	c23.511-0.116,46.976,0.73,70.5-0.061c16.725-0.562,33.434-1.51,50.143-2.213c2.488-0.105,8.815-1.898,5.25-5.49
	c-1.286-1.296-10.705-0.721-12.769-0.892c-6.575-0.542-13.191-0.471-19.788-0.471c-19.051,0-38.112,0.468-57.147-0.008
	c-22.49-0.562-44.841-2.016-67.357-1.436c-36.727,0.948-73.288,0.89-110,0.89c-8.064,0-16.204-0.478-24.204,0.189
	c-8.357,0.697-17.012,0.378-25.291-0.934c-9.535-1.51-19.282-0.455-28.948-0.223C121.31,327.157,100.357,327.211,79.422,326.531z"/>
<g>
	<path style="fill:#5B453D;" d="M156.698,405.41c-5.061-0.446-11.722,1.908-12.833-5.064c-0.576-3.609-1.082-7.264-1.081-10.951
		c0.002-6.354,0.434-12.747,0.867-19.083c0.572-8.338,2.081-17.19,7.281-23.945c7.359-9.56,24.31-13.215,33.564-4.443
		c4.997,4.738,4.833,11.35,5.924,17.77c0.711,4.183,1.8,8.263,2.426,12.482c0.708,4.773,0.359,9.814-0.033,14.606
		c-0.395,4.818-1.355,9.575-1.821,14.384c-0.399,4.124-3.011,4.409-7.001,4.588c-4.748,0.213-9.466-0.1-14.21-0.131
		C165.418,405.597,161.05,405.793,156.698,405.41z"/>
	<path style="fill:#5B453D;" d="M227.825,405.632c0-15.657-2.354-31.579,1.408-47.035c1.555-6.391,6.657-13.342,12.094-17.124
		c4.833-3.362,11.452-3.406,17.091-3.391c5.616,0.013,11.987,0.525,16.54,4.172c3.487,2.793,5.469,6.803,7.036,10.862
		c2.672,6.922,2.286,15.061,2.646,22.375c0.378,7.705-0.906,15.4-0.581,23.096c0.109,2.603,0.734,5.208-1.658,6.982
		c-1.611,1.195-3.88,1.265-5.787,1.278c-3.696,0.024-7.388,0.008-11.08-0.157c-8.741-0.392-17.478,0.415-26.206,0.139
		C237.752,406.777,227.682,407.349,227.825,405.632z"/>
	<path style="fill:#5B453D;" d="M338.8,335.671c-6.189,1.272-10.79,3.918-13.913,9.473c-3.29,5.852-3.176,13.254-3.885,19.78
		c-0.809,7.443-1.061,15.245-1.065,22.731c-0.002,3.417,0.009,6.851,0.016,10.272c0.004,1.951-0.582,6.501,1.443,7.724
		c2.467,1.491,7.17,0.533,9.838,0.619c7.008,0.226,14.081,0.279,21.093,0.083c4.376-0.122,8.743-0.296,13.103,0.075
		c1.691,0.144,2.352,0.264,3.082-1.321c2.083-4.515,1.196-11.41,1.198-16.203c0.003-8.602-0.649-17.229-1.508-25.779
		c-0.681-6.786-0.981-14.755-6.216-19.852C356.01,337.457,346.289,336.723,338.8,335.671z"/>
</g>
<g>
	<path style="fill:#3A2B26;" d="M184.098,405.482c0.232-6.06,0.905-12.12,0.905-18.238c0-6.2-0.024-12.442-0.375-18.628
		c-0.388-6.857-1.445-17.447-8.09-21.479c-7.174-4.353-17.013,1.945-20.823,8.001c-3.197,5.082-2.266,11.841-2.938,17.541
		c-0.929,7.887-2.087,15.683-2.529,23.62c-0.133,2.382-1.431,7.371,0.556,9.07c1.453,1.243,3.673,0.955,5.437,1.049
		c3.018,0.16,6.003,0.166,9.02,0.257c4.446,0.134,8.915,0.215,13.349,0.347C181.279,407.103,183.315,407.025,184.098,405.482z"/>
	<path style="fill:#3A2B26;" d="M263.241,407.129c3.756,0.147,7.674,0.711,11.429,0.482c3.245-0.198,3.075-3.14,2.725-5.841
		c-1.133-8.776-1.466-17.466-2.044-26.305c-0.455-6.954-0.665-14.247-3.314-20.814c-1.236-3.062-3.571-4.565-6.439-6.01
		c-3.905-1.967-7.542-3.453-13.799-2.566c-4.812,0.675-9.65,4.492-12.138,8.516c-3.346,5.414-2.698,13.42-2.64,19.515
		c0.063,6.704-0.4,13.622-1.353,20.266c-0.362,2.524-2.735,10.848,0.575,11.698c1.236,0.317,3.133,0.087,4.422,0.149
		c2.404,0.117,4.804,0.098,7.21,0.158C252.997,406.505,258.123,406.929,263.241,407.129z"/>
	<path style="fill:#3A2B26;" d="M335.935,346.828c-6.057,2.071-7.171,14.349-7.735,19.613c-0.651,6.084-0.356,12.15-0.55,18.249
		c-0.109,3.456-0.21,6.913-0.301,10.37c-0.067,2.552-0.878,6.108,0.098,8.558c0.721,1.809,3.581,1.977,5.407,2.326
		c4.368,0.834,9.515,0.601,13.941,0.294c3.915-0.271,7.8-0.56,11.717-0.757c0.664-0.033,2.523,0.115,3.096-0.405
		c0.778-0.706,0.454-3.158,0.452-4.034c0-2.497-0.112-4.982-0.225-7.476c-0.268-5.899-1.438-11.634-2.119-17.486
		c-0.554-4.754-1.216-9.535-2.287-14.2c-0.846-3.687-1.984-9.08-4.91-11.75C348.225,346.209,340.418,344.785,335.935,346.828z"/>
	<path style="fill:#3A2B26;" d="M90.916,242.789c-3.435,1.346-7.531,4.038-8.507,7.836c-1.543,5.997-1.685,13.371-1.41,19.529
		c0.054,1.223-0.161,3.943,0.774,4.607c0.405,0.286,2.482,0.17,2.997,0.194c2.145,0.095,4.304-0.343,6.462-0.35
		c1.182-0.003,4.565,0.585,5.485-0.222c0.653-0.573,0.511-2.461,0.54-3.231c0.087-2.352,0.238-4.841,0.145-7.184
		c-0.108-2.738-0.627-5.475-0.767-8.226c-0.103-2.035-0.323-4.162-0.963-6.109C94.895,247.275,93.196,244.434,90.916,242.789z"/>
	<path style="fill:#3A2B26;" d="M175.504,239.774c-3.27-0.155-7.372,2.268-9.044,5.004c-1.023,1.675-1.359,3.749-2.034,5.58
		c-0.743,2.019-1.264,3.706-1.285,5.859c-0.034,3.652,0.001,7.208,0.184,10.86c0.111,2.201-0.3,6.397,1.082,8.06
		c1.483,1.785,5.42,1.411,7.506,1.547c1.811,0.118,3.618-0.28,5.419-0.108c0.816,0.077,2.049,0.605,2.86,0.302
		c2.04-0.761,2.245-5.294,2.487-6.961c0.573-3.956,0.676-8.417,0.524-12.421c-0.153-4.036-0.611-7.146-2.39-10.762
		C179.968,245.024,177.935,240.737,175.504,239.774z"/>
</g>
<g>
	<path style="fill:#5B453D;" d="M446.327,185.861c1.957,0.102,4.066,1.154,5.764,2.024c2.906,1.49,5.225,3.539,6.67,6.469
		c2.125,4.309,3.444,9.262,4.233,13.99c0.626,3.753-0.135,7.703-0.129,11.487c0.003,1.91-0.095,3.787-0.188,5.692
		c-0.053,1.08,0.211,2.716-0.385,3.698c-0.612,1.008-2.217,1.443-3.262,1.66c-2.561,0.532-5.587,0.407-8.182,0.294
		c-3.259-0.142-6.472-0.322-9.737-0.323c-2.268,0-4.511,0.017-6.752-0.39c-1.503-0.273-3.149-0.603-4.411-1.52
		c-1.116-0.811-0.953-1.505-0.869-2.74c0.253-3.735-0.448-7.56-0.466-11.306c-0.011-2.296,0.111-4.594,0.05-6.887
		c-0.053-2.011,0.618-4.03,1.008-5.994c0.507-2.55,0.677-5.045,1.743-7.463c1.081-2.451,2.758-4.238,4.793-5.927
		c1.084-0.9,2.315-1.864,3.62-2.404C441.837,185.393,444.205,185.917,446.327,185.861z"/>
	<path style="fill:#5B453D;" d="M405.413,185.861c1.957,0.102,4.066,1.154,5.764,2.024c2.906,1.49,5.225,3.539,6.67,6.469
		c2.125,4.309,3.444,9.262,4.233,13.99c0.626,3.753-0.135,7.703-0.129,11.487c0.003,1.91-0.095,3.787-0.188,5.692
		c-0.053,1.08,0.211,2.716-0.385,3.698c-0.612,1.008-2.217,1.443-3.261,1.66c-2.561,0.532-5.587,0.407-8.183,0.294
		c-3.259-0.142-6.471-0.322-9.737-0.323c-2.268,0-4.511,0.017-6.752-0.39c-1.503-0.273-3.149-0.603-4.411-1.52
		c-1.116-0.811-0.953-1.505-0.869-2.74c0.253-3.735-0.448-7.56-0.466-11.306c-0.011-2.296,0.111-4.594,0.05-6.887
		c-0.053-2.011,0.618-4.03,1.008-5.994c0.507-2.55,0.677-5.045,1.743-7.463c1.081-2.451,2.758-4.238,4.793-5.927
		c1.084-0.9,2.315-1.864,3.62-2.404C400.924,185.393,403.292,185.917,405.413,185.861z"/>
	<path style="fill:#5B453D;" d="M364.5,185.861c1.957,0.102,4.066,1.154,5.764,2.024c2.906,1.49,5.225,3.539,6.67,6.469
		c2.124,4.309,3.444,9.262,4.233,13.99c0.626,3.753-0.135,7.703-0.129,11.487c0.003,1.91-0.095,3.787-0.189,5.692
		c-0.053,1.08,0.211,2.716-0.385,3.698c-0.612,1.008-2.217,1.443-3.262,1.66c-2.561,0.532-5.587,0.407-8.182,0.294
		c-3.259-0.142-6.471-0.322-9.737-0.323c-2.268,0-4.511,0.017-6.752-0.39c-1.503-0.273-3.149-0.603-4.411-1.52
		c-1.116-0.811-0.952-1.505-0.869-2.74c0.253-3.735-0.448-7.56-0.466-11.306c-0.011-2.296,0.111-4.594,0.05-6.887
		c-0.053-2.011,0.618-4.03,1.008-5.994c0.507-2.55,0.677-5.045,1.743-7.463c1.081-2.451,2.758-4.238,4.793-5.927
		c1.084-0.9,2.315-1.864,3.62-2.404C360.01,185.393,362.378,185.917,364.5,185.861z"/>
	<path style="fill:#5B453D;" d="M323.587,185.861c1.957,0.102,4.066,1.154,5.764,2.024c2.906,1.49,5.225,3.539,6.67,6.469
		c2.124,4.309,3.445,9.262,4.232,13.99c0.626,3.753-0.135,7.703-0.129,11.487c0.003,1.91-0.095,3.787-0.188,5.692
		c-0.053,1.08,0.211,2.716-0.385,3.698c-0.612,1.008-2.217,1.443-3.262,1.66c-2.561,0.532-5.587,0.407-8.182,0.294
		c-3.259-0.142-6.471-0.322-9.737-0.323c-2.268,0-4.511,0.017-6.752-0.39c-1.503-0.273-3.149-0.603-4.411-1.52
		c-1.116-0.811-0.953-1.505-0.869-2.74c0.253-3.735-0.448-7.56-0.466-11.306c-0.011-2.296,0.111-4.594,0.05-6.887
		c-0.053-2.011,0.618-4.03,1.008-5.994c0.507-2.55,0.677-5.045,1.743-7.463c1.081-2.451,2.758-4.238,4.793-5.927
		c1.084-0.9,2.315-1.864,3.62-2.404C319.097,185.393,321.465,185.917,323.587,185.861z"/>
	<path style="fill:#5B453D;" d="M282.673,185.861c1.957,0.102,4.066,1.154,5.764,2.024c2.906,1.49,5.225,3.539,6.67,6.469
		c2.124,4.309,3.445,9.262,4.233,13.99c0.626,3.753-0.135,7.703-0.129,11.487c0.003,1.91-0.095,3.787-0.188,5.692
		c-0.053,1.08,0.211,2.716-0.385,3.698c-0.612,1.008-2.217,1.443-3.261,1.66c-2.561,0.532-5.587,0.407-8.182,0.294
		c-3.259-0.142-6.472-0.322-9.737-0.323c-2.268,0-4.511,0.017-6.752-0.39c-1.503-0.273-3.149-0.603-4.411-1.52
		c-1.116-0.811-0.953-1.505-0.869-2.74c0.253-3.735-0.448-7.56-0.466-11.306c-0.011-2.296,0.111-4.594,0.05-6.887
		c-0.053-2.011,0.618-4.03,1.008-5.994c0.507-2.55,0.677-5.045,1.743-7.463c1.08-2.451,2.758-4.238,4.793-5.927
		c1.084-0.9,2.315-1.864,3.62-2.404C278.183,185.393,280.553,185.917,282.673,185.861z"/>
	<path style="fill:#5B453D;" d="M427.555,239.924c3.607-0.3,8.336,3.348,10.805,5.698c2.687,2.556,3.479,7.659,3.968,11.156
		c0.588,4.213,0.699,8.43,1.064,12.653c0.154,1.782,0.856,4.884-0.715,5.617c-1.035,0.483-2.711,0.131-3.808,0.156
		c-2.195,0.05-4.325,0.385-6.529,0.271c-3.335-0.171-6.787-0.246-10.099-0.129c-1.977,0.07-4.285,1.505-5.393-0.63
		c-0.926-1.783-0.626-4.644-0.604-6.575c0.031-2.672,0.124-5.341,0.15-8.018c0.04-4.043,0.491-8.693,1.998-12.486
		c0.631-1.586,1.404-2.95,2.797-3.961c0.864-0.627,1.91-1.363,2.848-1.846C425.494,241.08,427.249,241.175,427.555,239.924z"/>
	<path style="fill:#5B453D;" d="M347.641,238.417c10.051,1.427,12.156,13.606,12.059,21.699c-0.044,3.708,0.579,7.363,0.606,11.058
		c0.018,2.334,0.605,3.791-2.092,4.155c-5.898,0.795-11.799,1.195-17.759,1.232c-2.294,0.014-5.375,0.652-7.659,0.012
		c-2.237-0.626-2.818-4.622-3.072-6.638c-0.536-4.267-0.805-8.991-0.332-13.261C330.4,247.603,336.196,238.175,347.641,238.417z"/>
</g>
<g>
	<path style="fill:#3A2B26;" d="M421.825,242.789c3.435,1.346,7.531,4.038,8.507,7.836c1.544,5.997,1.685,13.371,1.41,19.529
		c-0.054,1.223,0.161,3.943-0.773,4.607c-0.405,0.286-2.482,0.17-2.997,0.194c-2.145,0.095-4.304-0.343-6.462-0.35
		c-1.182-0.003-4.565,0.585-5.485-0.222c-0.653-0.573-0.511-2.461-0.54-3.231c-0.087-2.352-0.238-4.841-0.145-7.184
		c0.108-2.738,0.627-5.475,0.767-8.226c0.103-2.035,0.323-4.162,0.963-6.109C417.847,247.275,419.546,244.434,421.825,242.789z"/>
	<path style="fill:#3A2B26;" d="M337.237,239.774c3.27-0.155,7.372,2.268,9.044,5.004c1.023,1.675,1.359,3.749,2.034,5.58
		c0.743,2.019,1.264,3.706,1.285,5.859c0.034,3.652-0.001,7.208-0.184,10.86c-0.111,2.201,0.3,6.397-1.082,8.06
		c-1.483,1.785-5.42,1.411-7.506,1.547c-1.811,0.118-3.618-0.28-5.419-0.108c-0.816,0.077-2.049,0.605-2.86,0.302
		c-2.04-0.761-2.245-5.294-2.487-6.961c-0.573-3.956-0.676-8.417-0.524-12.421c0.153-4.036,0.611-7.146,2.39-10.762
		C332.773,245.024,334.807,240.737,337.237,239.774z"/>
	<path style="fill:#3A2B26;" d="M254.513,239.558c-4.493-1.049-9.659,3.766-11.718,7.266c-3.293,5.596-2.462,12.545-3.031,18.75
		c-0.238,2.587-0.269,5.209-0.371,7.805c-0.036,0.945-0.348,2.737,0.303,3.576c0.622,0.801,1.911,0.761,2.842,0.92
		c2.692,0.461,5.334,0.272,8.045,0.462c5.271,0.371,10.728,0.993,16.015,0.864c2.55-0.063,5.825,0.274,7.149-2.266
		c1.713-3.29,0.624-7.927,0.354-11.435c-0.324-4.213-0.279-8.724-1.257-12.852c-0.813-3.431-2.74-7.089-5.666-9.134
		c-2.116-1.479-4.799-2.126-7.173-3.075C257.892,239.593,255.587,238.545,254.513,239.558z"/>
</g>
<g>
	<path style="fill:#C6A983;" d="M40.584,105.291c-2.776,7.146-1.409,14.396-1.107,21.641c0.157,3.763-0.107,6.961,2.731,9.89
		c2.531,2.61,5.667,2.123,8.289,3.835c1.627,1.062,1.94,3.547,0.656,5.595c-1.518,2.419-3.04,0.679-6.212,0.53
		c-4.032-0.189-7.811-0.006-11.879-0.563c-2.176-0.299-4.374-0.979-6.484-1.15c2.336-4.184,2.294-11.05,2.114-15.741
		c-0.051-1.317-0.605-3.35,0.124-4.269c0.915-1.154,3.319-0.098,4.165-1.146c1.818-2.253-0.584-10.646-0.699-13.287
		c-0.067-1.557-0.611-5.365,0.28-6.687C33.644,102.331,41.031,102.325,40.584,105.291z"/>
	<path style="fill:#C6A983;" d="M22.886,295.268c-0.718,2.869-1.982,14.318,1.094,16.605c1.842,1.369,5.678-0.319,7.762-0.519
		c3.07-0.296,6.143-0.173,9.226-0.31c4.048-0.179,8.045,0.229,12.133,0.263c4.788,0.04,9.758,0.981,14.502-0.023
		c5.939-1.258,2.988-2.758,2.624-7.087c-0.136-1.616,0.675-6.881-1.151-7.964c-3.437-2.036-4.491,7.651-6.587,8.716
		c-1.922,0.977-6.739,0.072-8.88,0.059c-3.339-0.019-6.68-0.164-9.977-0.732c-5.745-0.99-9.27-3.602-11.557-8.754
		C30.276,291.469,29.265,293.923,22.886,295.268z"/>
	<path style="fill:#C6A983;" d="M80.627,309.741c-0.039-0.041-0.075-0.082-0.11-0.124c-1.78-2.158-0.368-14.678-2.013-15.171
		c2.244,0.671,4.451,0.144,6.76,0.264c3.87,0.202,2.96,2.919,2.886,6.362c-0.05,2.329,0.441,8.112-1.718,9.626
		C84.957,311.732,81.849,311.038,80.627,309.741z"/>
	<path style="fill:#C6A983;" d="M95.614,294.439c-0.333,3.228-1.005,6.42-1.326,9.659c-0.132,1.333-1,5.068-0.137,6.189
		c1.119,1.455,6.74,1.159,8.611,2.395c0.708-6.126-0.046-12.324,0.338-18.425C101.624,295.627,98.982,294.708,95.614,294.439z"/>
	<path style="fill:#C6A983;" d="M111.652,293.609c-0.821,3.619-0.628,7.974-0.911,11.671c-0.081,1.053-0.864,4.865,0.139,5.797
		c0.784,0.728,6.972,1.577,7.721,0.947c0.531-0.447,0.74-4.67,0.794-5.009c0.559-3.51,0.607-6.749,0.138-10.274
		C118.833,291.473,116.365,294.189,111.652,293.609z"/>
	<path style="fill:#C6A983;" d="M128.797,293.886c-0.751,4.521-1.427,10.314-1.133,14.874c0.174,2.697,0.502,2.826,3.158,3.115
		c4.68,0.509,5.348,0.546,5.427-3.867c0.091-5.115-0.198-9.61-0.863-14.663C133.129,293.329,129.967,294.573,128.797,293.886z"/>
	<path style="fill:#C6A983;" d="M159.492,295.268c0,5.75-0.361,11.675,0.056,17.4c1.628-0.588,3.906,0.345,5.499-0.573
		c2.382-1.372,1.603-3.048,1.696-5.69c0.091-2.588,1.15-9.507-0.74-11.538C164.491,293.245,160.416,294.992,159.492,295.268z"/>
	<path style="fill:#C6A983;" d="M140.688,294.162c1.595,1.665,0.161,6.105,0.049,8.252c-0.096,1.822-0.93,8.418,0.567,9.72
		c1.626,1.413,6.172-1.104,8.327-1.208c1.224-4.073,1.993-11.718,0.06-15.652C148.001,291.834,145.868,293.35,140.688,294.162z"/>
	<path style="fill:#C6A983;" d="M176.084,294.715c-1.64,3.583-0.994,11.018-0.788,15.171c2.159,0.762,5.19,0.998,7.456,1.392
		c2.692-4.261,2.29-13.61,0.741-18.427C181.497,292.587,176.435,294.836,176.084,294.715z"/>
	<path style="fill:#C6A983;" d="M191.57,294.162c0,5.572-0.263,11.218,0.042,16.777c1.532-0.243,4.079-0.765,5.707-1.345
		c2.762-0.983,2.536-1.678,2.574-4.823c0.027-2.17-0.273-10.892-1.837-12.111C197,291.839,193.344,293.158,191.57,294.162z"/>
	<path style="fill:#C6A983;" d="M208.439,293.886c-1.224,2.366-0.395,7.647-0.691,10.603c-0.427,4.266,1.25,8.107,6.83,6.92
		c4.574-0.973,1.722-9.631,1.594-13.226C216.06,295.046,215.063,292.206,208.439,293.886z"/>
	<path style="fill:#C6A983;" d="M224.754,293.886c-1.87,5.699-0.569,12.559-0.233,18.484c1.348-0.165,2.951-0.437,4.327-0.801
		c2.419-0.642,1.487,0.285,2.252-1.796c1.182-3.214-0.093-7.402-0.238-10.715c-0.083-1.88,0.239-3.874-0.338-5.682
		C228.987,293.316,227.081,293.919,224.754,293.886z"/>
	<path style="fill:#C6A983;" d="M240.793,293.056c-0.16,6.164-0.514,12.618-0.235,18.755c2.292,0.75,6.282,1.393,7.681-0.944
		c0.919-1.534,0.55-5.792,0.531-7.474c-0.037-3.31-0.525-6.74-0.83-10.023C245.657,292.657,243.404,293.454,240.793,293.056z"/>
	<path style="fill:#C6A983;" d="M256.832,293.886c0.165,5.865-0.592,11.757-0.235,17.633c2.963-0.567,6.014,0.403,9.063,0.023
		c1.745-5.448,1.479-11.94-0.135-17.388C264.387,290.307,261.584,291.012,256.832,293.886z"/>
	<path style="fill:#C6A983;" d="M272.594,294.439c-0.795-0.116-1.498,12.416-1.221,13.691c0.998,4.589,7.987,8.473,8.902,1.79
		c0.71-5.183-0.899-10.38-0.8-15.438C277.843,294.333,276.057,294.944,272.594,294.439z"/>
	<path style="fill:#C6A983;" d="M288.356,293.886c-0.298,3.314-0.135,6.604-0.262,9.927c-0.049,1.255-0.968,4.917-0.082,6.129
		c0.892,1.22,3.818,1.491,5.412,1.119c4.433-1.032,3.983-9.44,3.732-12.942c-0.062-0.867-0.097-5.104-0.786-5.657
		C294.856,291.249,290.843,294.392,288.356,293.886z"/>
	<path style="fill:#C6A983;" d="M304.119,294.992c0,4.113-1.363,10.445,0.029,14.299c1.057,2.928,2.711,1.478,5.737,0.91
		c4.103-0.77,3.437-2.891,3.64-7.201c0.1-2.109,1.251-8.245-0.998-9.639C310.887,292.345,308.228,294.503,304.119,294.992z"/>
	<path style="fill:#C6A983;" d="M319.604,294.992c0,2.618-1.838,13.386,0.111,14.653c2.457,1.597,6.767-2.984,9.808,0.027
		c0.673-4.661,0.437-9.576-0.504-14.187c-0.409-2.004-0.459-3.376-2.446-3.863C324.467,291.106,321.028,293.18,319.604,294.992z"/>
	<path style="fill:#C6A983;" d="M337.026,293.333c-0.012,4.621-1.423,10.269-0.503,14.748c0.659,3.209,2.057,3.352,4.872,2.735
		c4.244-0.929,3.845-3.691,3.944-8.043C345.452,297.891,345.024,289.823,337.026,293.333z"/>
	<path style="fill:#C6A983;" d="M351.959,293.609c0.376,2.383,0.523,4.83,0.566,7.257c0.034,1.901-1.189,9.436,0.395,11.261
		c1.817,2.093,8.691,0.723,10.921-0.327C362.825,306.676,362.958,285.394,351.959,293.609z"/>
	<path style="fill:#C6A983;" d="M369.657,293.333c-1.234,4.354-2.362,11.21-1.34,15.645c0.728,3.157,3.091,3.018,6.218,2.847
		c4.999-0.271,3.917-4.433,3.973-8.712C378.551,299.957,377.931,290.431,369.657,293.333z"/>
	<path style="fill:#C6A983;" d="M384.589,293.886c0.016,6.25-0.988,12.901-0.178,19.074c2.004-0.166,3.839-1.175,5.92-1.38
		c3.063-0.303,2.63,0.387,3.411-2.416C395.1,304.293,395.042,289.571,384.589,293.886z"/>
	<path style="fill:#C6A983;" d="M400.628,293.886c-0.003,2.895-0.113,5.761-0.215,8.651c-0.055,1.559-0.941,6.234-0.072,7.59
		c0.913,1.425-0.055,0.643,1.518,0.861c0.705,0.098,4.225-0.367,5.221-0.505c1.657-0.231,1.291,0.54,2.21-1.123
		c1.021-1.847,0.388-6.012,0.452-8.136C409.856,297.407,408.246,290.622,400.628,293.886z"/>
	<path style="fill:#C6A983;" d="M417.22,294.715c-1.021,1.112-0.548,2.917-0.545,4.378c0.003,2.039-1.418,8.418-0.263,10.285
		c1.823,2.947,7.689-0.185,10.467-0.623c-0.749-3.639-0.958-7.736-1.986-11.426C423.457,292.175,419.344,293.52,417.22,294.715z"/>
	<path style="fill:#C6A983;" d="M432.983,295.545c0.467,3.359-2.7,17.787,5.767,13.965
		C443.979,307.149,441.808,292.211,432.983,295.545z"/>
	<path style="fill:#C6A983;" d="M448.745,295.545c-0.66,3.958-3.379,17.121,4.982,14.653
		C459.022,308.636,457.401,293.478,448.745,295.545z"/>
	<path style="fill:#C6A983;" d="M466.443,296.651c0.135,4.473-3.292,17.629,6.247,13.418
		C478.301,307.594,475.655,293.771,466.443,296.651z"/>
</g>
<g>
	<path style="fill:#604537;" d="M20.397,167.234c4.584,0.861,9.748,0.359,14.392,0.517c7.443,0.251,14.852,0.882,22.307,0.872
		c31.306-0.043,62.285,3.161,93.707,0.878c14.182-1.03,28.264-1.146,42.461-0.869c7.367,0.143,14.956-0.934,22.171,0.279
		c7.682,1.291,15.461,0.538,23.201,0.536c15.474-0.003,30.966-0.502,46.43-0.968c25.445-0.768,50.835,0.691,76.284,0.691
		c14.635,0,29.121,1.727,43.852,2.016c15.803,0.312,31.629,0.048,47.39-1.196c9.728-0.767,19.63-1.669,29.39-1.672
		c1.907-0.001,11.499-0.648,11.865,1.406c-0.022-0.123-1.54,2.849-1.39,2.707c-1.052,1.014-2.114,1.134-3.736,1.37
		c-8.284,1.205-16.371,2.266-24.796,1.943c-36.889-1.413-73.794-0.395-110.616-0.486c-14.042-0.034-28.071-0.283-42.115-0.283
		c-15.141,0-30.351-0.247-45.471,0.209c-8.534,0.258-17.063,0.43-25.595,0.759c-6.354,0.244-12.671,1.246-19.039,1.175
		c-5.335-0.06-10.651-1.22-16.027-1.597c-6.553-0.46-13.168-0.376-19.744-0.58c-18.107-0.563-36.231-0.465-54.337,0.112
		c-9.169,0.292-18.333,0.707-27.492,1.219c-7.796,0.437-14.786-0.903-22.561-1.428c-14.386-0.971-28.661-0.509-43.018,0.07
		c-7.026,0.282-17.054,1.991-18.925-6.616C19.685,167.907,20.749,167.336,20.397,167.234z"/>
	<path style="fill:#604537;" d="M4.082,153.684c-0.361,7.873,9.989,6.89,15.037,7.251c6.054,0.433,12.152,0.573,18.225,0.783
		c8.257,0.285,16.419,1.051,24.705,0.888c9.605-0.188,19.205-0.89,28.814-0.563c11.52,0.393,23.108,1.077,34.632,1.05
		c32.154-0.075,64.31-0.581,96.565-0.559c8.591,0.006,17.183,0.028,25.773,0.02c7.642-0.007,14.927-0.984,22.625-0.865
		c11.252,0.175,22.504,0.227,33.756,0.252c9.605,0.021,20.42-1.37,29.821,0.644c9.247,1.981,19.729,0.315,29.196,0.254
		c10.759-0.069,21.522-0.032,32.276-0.442c16.66-0.635,33.6-0.543,50.26,0.074c10.895,0.404,21.975,0.286,32.854-0.416
		c7.903-0.51,15.911-0.602,23.569-2.806c1.857-0.535,7.514-1.187,5.309-4.057c-2.068-2.692-12.89-1.774-15.759-1.788
		c-11.761-0.052-23.503,0.551-35.268,0.555c-16.454,0.006-32.919-1.015-49.368-0.85c-14.475,0.146-28.935,0.622-43.354,1.958
		c-8.44,0.782-16.989,2.845-25.497,2.55c-8.376-0.29-16.787-0.171-25.201,0.137c-12.154,0.447-24.32,0.812-36.482,0.508
		c-11.089-0.278-21.791-2.235-32.747-2.75c-12.733-0.598-25.465-0.635-38.198-1.059c-14-0.467-28.081,0.079-42.088,0.337
		c-12.078,0.222-23.836,0.782-35.912,0.344c-14.78-0.536-29.604,0.175-44.38,0.458c-10.494,0.201-20.997,0.185-31.476,0.35
		c-4.01,0.063-7.997-0.545-11.949-0.496c-3.23,0.04-6.49,0.723-9.763,0.726c-4.533,0.002-8.876-0.073-13.278-1.246
		C12.508,153.79,8.102,151.544,4.082,153.684z"/>
</g>
<path style="fill:#C6A983;" d="M458.423,147.6c-0.132-5.997,0.556-12.227,0.857-18.202c2.875-1.072,3.974-2.281,4.135-5.193
	c0.237-4.306-0.948-8.738-0.831-13.132c0.051-1.89-0.487-1.8,0.57-3.272c0.678-0.945,4.947-3.431,6.058-3.045
	c3.722,1.29,0.294,19.042,1.098,22.423c1.097,4.62,5.376,8.193,9.669,9.866c1.25,0.487,4.09,0.133,4.966,1.296
	c0.884,1.172-0.036,4.939-0.273,6.17c-0.838,4.356-6.473,3.833-9.931,4.26C469.373,149.432,463.734,146.327,458.423,147.6z"/>
<g>
	<path style="fill:#93624D;" d="M20.95,286.972c4.238,1.056,8.613,1.536,12.967,1.774c4.452,0.243,8.949-0.333,13.393-0.779
		c2.881-0.289,5.76-0.613,8.64-0.904c2.409-0.243,4.73-0.676,7.074-0.075c2.504,0.642,5.462,0.355,8.021,0.237
		c2.752-0.128,5.496-0.38,8.247-0.532c8.193-0.451,16.402-0.459,24.606-0.459c7.392,0,14.783,0.159,22.169,0.481
		c3.511,0.153,7.349-0.028,10.786,0.689c3.379,0.705,7.048,0.207,10.504,0.206c6.073-0.002,12.162,0.069,18.233,0.211
		c5.945,0.139,11.893,0.204,17.84,0.331c2.635,0.056,5.514-0.165,8.054,0.462c2.572,0.636,5.311,0.168,7.928,0.086
		c4.73-0.148,9.455-0.257,14.188-0.257c4.953,0,9.903,0.096,14.855,0.092c7.576-0.006,15.008,1.147,22.533,0.369
		c4.054-0.419,8.159-0.277,12.228-0.277c12.843,0,25.657,0.467,38.47-0.458c4.836-0.35,9.689-0.562,14.536-0.648
		c2.813-0.05,5.621-0.229,8.433-0.326c2.207-0.076,4.325,0.42,6.563,0.415c5.656-0.013,11.312-0.069,16.965-0.272
		c5.646-0.204,11.317-0.347,16.967-0.374c2.591-0.012,5.322-0.281,7.898,0.017c0.728,0.084,1.336,0.373,2.031,0.563
		c1.094,0.301,2.244,0.237,3.369,0.243c5.405,0.03,10.804-0.242,16.205-0.365c3.739-0.085,7.515-0.17,11.25,0.051
		c1.2,0.071,2.24,0.577,3.42,0.687c1.863,0.173,3.805,0.03,5.677,0.052c7.654,0.087,15.308,0.296,22.96,0.503
		c0.997,0.027,1.993,0.054,2.99,0.081c11.861,0.316,23.517,0.218,35.313-1.085c3.678-0.406,7.303-0.857,11.005-0.921
		c1.13-0.02,4.252-0.248,4.718,1.445c0.286,1.044-1.712,3.039-2.457,3.571c-3.522,2.518-9.157,2.088-13.215,2.082
		c-15.291-0.027-30.581-0.321-45.864-0.827c-3.493-0.116-7.209-0.633-10.69-0.316c-0.99,0.09-1.889,0.46-2.856,0.648
		c-1.513,0.294-3.094,0.053-4.619-0.016c-7.294-0.33-14.581-0.824-21.881-1.03c-3.8-0.103-7.602-0.123-11.402,0.013
		c-3.003,0.107-5.731-0.486-8.722-0.54c-5.657-0.101-11.309-0.353-16.964-0.514c-7.511-0.215-14.959,0.23-22.439,0.272
		c-4.747,0.027-9.495-0.096-14.242-0.092c-9.348,0.01-18.8,0.305-28.112,0.973c-6.184,0.444-12.311,0.519-18.509,0.393
		c-4.194-0.085-8.389-0.114-12.583-0.198c-3.973-0.08-7.991-0.498-11.94-0.353c-6.798,0.249-13.598,0.382-20.399,0.39
		c-7.527,0.01-15.03-0.523-22.551-0.734c-1.321-0.038-2.275,0.196-3.506,0.577c-1.546,0.478-3.218,0.447-4.823,0.51
		c-3.791,0.148-7.586,0.112-11.379,0.133c-1.213,0.007-2.427,0.019-3.641,0.044c-7.628,0.16-15.258,0.031-22.887-0.036
		c-1.841-0.017-3.775,0.147-5.604-0.055c-1.186-0.132-2.247-0.618-3.457-0.716c-3.513-0.281-7.07-0.27-10.592-0.364
		c-6.923-0.186-13.851-0.292-20.776-0.174c-6.752,0.115-13.481,0.784-20.165,1.736c-3.084,0.439-6.441,1.458-9.555,1.395
		c-0.93-0.019-1.805-0.327-2.723-0.436c-1.562-0.185-3.192,0.016-4.759,0.08c-7.524,0.305-15.005,0.193-22.526-0.051
		c-3.109-0.101-6.212-0.277-9.32-0.371c-6.274-0.19-12.694,0.858-18.927,0.035C23.939,293.74,19.264,291.808,20.95,286.972z"/>
	<path style="fill:#93624D;" d="M491.504,321.261c-0.382,0.223-1.067,0.242-1.57,0.296c-2.14,0.232-4.298,0.358-6.449,0.444
		c-6.808,0.271-13.64,0.035-20.451,0.084c-3.797,0.028-7.594,0.093-11.39,0.186c-3.298,0.081-6.636,0.452-9.926,0.28
		c-3.438-0.18-6.876-0.184-10.317-0.185c-7.704-0.001-15.403-0.004-23.105,0c-11.655,0.008-23.302-0.657-34.956-0.553
		c-4.129,0.036-8.228,0.118-12.354-0.074c-1.966-0.092-4.085,0.329-6.075,0.449c-2.541,0.154-5.08,0.355-7.626,0.428
		c-8.031,0.232-16.059,0.432-24.088,0.625c-14.842,0.355-29.54,0.067-44.38-0.497c-3.737-0.143-7.475-0.255-11.214-0.286
		c-13.004-0.11-26.128-1.887-39.125-0.926c-1.918,0.142-3.707,0.522-5.626,0.446c-2.466-0.098-4.932,0.054-7.397,0.133
		c-6.643,0.211-13.303,0.263-19.951,0.348c-7.96,0.102-15.902,0.644-23.866,0.644c-4.92,0.001-9.873-0.478-14.785-0.066
		c-5.051,0.423-10.062-0.016-15.112-0.209c-8.446-0.325-16.882-0.262-25.328-0.274c-7.925-0.011-15.853-0.05-23.778-0.009
		c-3.866,0.02-7.722,0.263-11.573,0.58c-9.736,0.8-19.64-0.183-29.414,0.095c-5.186,0.148-10.411-0.107-15.584-0.483
		c-2.437-0.177-4.86-0.426-7.293-0.649c-1.751-0.16-3.583-0.473-5.319-0.083c-1.949,0.438-3.565,1.234-2.657,3.383
		c1.314,3.107,6.726,3.019,9.507,3.06c7.699,0.114,15.394-0.729,23.106-0.628c7.532,0.1,15.053,0.671,22.532,1.559
		c1.505,0.178,3.034,0.505,4.548,0.263c1.213-0.195,2.294-0.446,3.543-0.441c3.791,0.015,7.568-0.087,11.356-0.261
		c0.147-0.007,0.294-0.013,0.441-0.02c9.366-0.432,18.71-1.031,28.089-1.184c5.294-0.086,10.587-0.067,15.881-0.179
		c5.652-0.119,11.468-0.265,17.11,0.065c4.003,0.235,8.022,0.288,12.03,0.282c15.247-0.022,30.496,0.145,45.739-0.272
		c9.778-0.267,19.545-0.697,29.332-0.423c15.282,0.428,30.572,0.551,45.86,0.528c4.379-0.007,8.586-0.429,12.953-0.352
		c4.937,0.087,9.876,0.006,14.808-0.217c8.223-0.371,16.42-0.847,24.65-1.041c12.151-0.286,24.101,1.472,36.209,1.408
		c9.158-0.049,18.32-0.529,27.476-0.72c7.626-0.159,15.254-0.195,22.881-0.204c1.907-0.002,3.813-0.002,5.72-0.002
		c1.474,0,2.646,0.385,4.064,0.545c3.742,0.424,7.654,0.109,11.411,0.046c0.988-0.017,1.977-0.032,2.964-0.038
		c9.974-0.061,19.945,0,29.92,0c2.044,0,4.896,0.491,6.802-0.457C490.941,326.101,492.25,324.18,491.504,321.261z"/>
</g>
<path d="M50.971,232.364c1.96,0.539,4.494,0.125,6.516,0.368c3.641,0.438,7.462,0.308,11.125,0.094
	c3.751-0.218,7.387-0.625,11.156-0.729c1.927-0.052,4.03,0.16,5.18-1.589c1.245-1.895,0.736-5.475,0.841-7.669
	c0.167-3.502-0.429-6.967-0.435-10.479c-0.01-5.558,0.941-13.687-1.787-18.796c-5.09-9.528-18.296-13.06-26.995-5.877
	c-8.65,7.144-9.478,20.22-8.457,31.725C48.02,222.809,46.392,231.105,50.971,232.364z M58.022,192.389
	c5.711-5.911,15.175-5.634,20.257,0.761c3.947,4.969,3.192,12.246,3.182,18.381c-0.004,2.782,0.15,5.485,0.319,8.251
	c0.117,1.93-0.085,3.746-0.242,5.671c-0.103,0.867-0.156,1.737-0.16,2.61c-0.292-0.042-0.584-0.083-0.876-0.124
	c-2.165,1.105-7.178,0.022-9.704,0.372c-3.639,0.505-7.835,0.816-11.494,0.48c-1.072-0.098-5.906-0.083-6.539-0.475
	c-0.473-0.293-0.798-0.816-1.022-1.47C52.687,215.118,49.134,201.589,58.022,192.389z"/>
<path d="M91.912,232.364c1.96,0.539,4.494,0.125,6.516,0.368c3.641,0.438,7.462,0.308,11.125,0.094
	c3.751-0.218,7.387-0.625,11.156-0.729c1.927-0.052,4.03,0.16,5.18-1.589c1.245-1.895,0.736-5.475,0.841-7.669
	c0.167-3.502-0.429-6.967-0.436-10.479c-0.01-5.558,0.941-13.687-1.787-18.796c-5.09-9.528-18.296-13.06-26.995-5.877
	c-8.65,7.144-9.478,20.22-8.457,31.725C88.96,222.809,87.333,231.105,91.912,232.364z M98.963,192.389
	c5.711-5.911,15.175-5.634,20.257,0.761c3.947,4.969,3.192,12.246,3.183,18.381c-0.004,2.782,0.15,5.485,0.319,8.251
	c0.117,1.93-0.085,3.746-0.242,5.671c-0.103,0.867-0.156,1.737-0.16,2.61c-0.292-0.042-0.584-0.083-0.876-0.124
	c-2.165,1.105-7.178,0.022-9.705,0.372c-3.638,0.505-7.835,0.816-11.494,0.48c-1.072-0.098-5.906-0.083-6.539-0.475
	c-0.473-0.293-0.798-0.816-1.022-1.47C93.628,215.118,90.075,201.589,98.963,192.389z"/>
<path d="M132.109,232.364c1.961,0.539,4.495,0.125,6.516,0.368c3.641,0.438,7.462,0.308,11.125,0.094
	c3.751-0.218,7.387-0.625,11.156-0.729c1.927-0.052,4.03,0.16,5.18-1.589c1.246-1.895,0.736-5.475,0.841-7.669
	c0.167-3.502-0.429-6.967-0.436-10.479c-0.01-5.558,0.941-13.687-1.788-18.796c-5.09-9.528-18.296-13.06-26.995-5.877
	c-8.65,7.144-9.478,20.22-8.457,31.725C129.158,222.809,127.53,231.105,132.109,232.364z M139.16,192.389
	c5.711-5.911,15.175-5.634,20.257,0.761c3.947,4.969,3.192,12.246,3.182,18.381c-0.004,2.782,0.15,5.485,0.319,8.251
	c0.117,1.93-0.085,3.746-0.242,5.671c-0.103,0.867-0.156,1.737-0.16,2.61c-0.292-0.042-0.584-0.083-0.876-0.124
	c-2.165,1.105-7.178,0.022-9.704,0.372c-3.639,0.505-7.835,0.816-11.494,0.48c-1.072-0.098-5.906-0.083-6.539-0.475
	c-0.473-0.293-0.798-0.816-1.022-1.47C133.825,215.118,130.272,201.589,139.16,192.389z"/>
<path d="M173.05,232.364c1.96,0.539,4.494,0.125,6.516,0.368c3.641,0.438,7.462,0.308,11.125,0.094
	c3.751-0.218,7.387-0.625,11.156-0.729c1.927-0.052,4.03,0.16,5.18-1.589c1.245-1.895,0.736-5.475,0.841-7.669
	c0.167-3.502-0.429-6.967-0.436-10.479c-0.01-5.558,0.941-13.687-1.787-18.796c-5.09-9.528-18.296-13.06-26.995-5.877
	c-8.65,7.144-9.478,20.22-8.457,31.725C170.098,222.809,168.471,231.105,173.05,232.364z M180.101,192.389
	c5.711-5.911,15.175-5.634,20.257,0.761c3.947,4.969,3.192,12.246,3.183,18.381c-0.004,2.782,0.15,5.485,0.319,8.251
	c0.117,1.93-0.085,3.746-0.242,5.671c-0.103,0.867-0.156,1.737-0.159,2.61c-0.292-0.042-0.584-0.083-0.876-0.124
	c-2.165,1.105-7.178,0.022-9.704,0.372c-3.639,0.505-7.835,0.816-11.494,0.48c-1.072-0.098-5.906-0.083-6.539-0.475
	c-0.473-0.293-0.798-0.816-1.022-1.47C174.766,215.118,171.213,201.589,180.101,192.389z"/>
<path d="M213.99,232.364c1.96,0.539,4.494,0.125,6.517,0.368c3.641,0.438,7.461,0.308,11.125,0.094
	c3.752-0.218,7.388-0.625,11.156-0.729c1.927-0.052,4.03,0.16,5.18-1.589c1.246-1.895,0.736-5.475,0.842-7.669
	c0.167-3.502-0.429-6.967-0.436-10.479c-0.01-5.558,0.941-13.687-1.788-18.796c-5.09-9.528-18.296-13.06-26.995-5.877
	c-8.65,7.144-9.477,20.22-8.456,31.725C211.04,222.809,209.412,231.105,213.99,232.364z M221.042,192.389
	c5.711-5.911,15.176-5.634,20.257,0.761c3.947,4.969,3.192,12.246,3.182,18.381c-0.004,2.782,0.15,5.485,0.319,8.251
	c0.116,1.93-0.085,3.746-0.242,5.671c-0.103,0.867-0.157,1.737-0.16,2.61c-0.293-0.042-0.584-0.083-0.876-0.124
	c-2.165,1.105-7.178,0.022-9.704,0.372c-3.639,0.505-7.836,0.816-11.494,0.48c-1.072-0.098-5.907-0.083-6.539-0.475
	c-0.473-0.293-0.798-0.816-1.022-1.47C215.706,215.118,212.153,201.589,221.042,192.389z"/>
<path d="M509.825,146.452c-2.923-1.748-7.163-0.919-10.371-0.938c-4.152-0.024-8.162,0.23-12.295,0.4
	c0.221-3.401,0.029-6.928-0.152-10.295c-0.135-2.524,0.925-5.93,0.17-8.361c-0.666-2.143-2.962-3.136-5.588-3.577
	c0.344-1.833,0.097-3.921,0.321-5.667c0.45-3.516,0.715-6.754,0.219-10.286c-0.216-1.531,0.016-4.178-1.599-5.113
	c-1.556-0.9-4.858-0.963-6.709-0.96c-1.672,0.003-3.319,0.525-4.995,0.484c-1.284-0.031-2.572-0.522-3.867-0.429
	c-1.759,0.126-3.19,0.854-3.902,2.526c-1.116,2.619-0.288,6.275-0.113,8.991c0.241,3.76,0.117,7.503-0.045,11.269
	c-0.008,0.174,0.008,0.334,0.03,0.488c-1.365,0.367-2.608,0.935-3.408,2.266c-1.407,2.346-0.764,5.493-0.734,8.042
	c0.04,3.293-0.885,6.703-0.606,9.966c-15.623-0.103-31.201,1.324-46.82,1.457c-8.713,0.074-17.416,0.416-26.113,0.566
	c-8.276,0.143-16.559-0.636-24.839-0.5c-8.162,0.135-16.446,0.097-24.646,0.064c-9.525-0.039-18.999-0.429-28.507-0.167
	c-7.694,0.211-15.321,0.58-23.009,0.983c-8.744,0.458-17.507,0.47-26.245,1.123c-8.738-0.652-17.501-0.665-26.245-1.123
	c-7.689-0.403-15.314-0.772-23.009-0.983c-9.507-0.261-18.981,0.128-28.506,0.167c-8.2,0.033-16.484,0.071-24.646-0.064
	c-8.28-0.136-16.563,0.643-24.839,0.5c-8.697-0.15-17.4-0.492-26.113-0.566c-15.62-0.133-31.197-1.56-46.82-1.457
	c0.279-3.264-0.645-6.674-0.606-9.966c0.031-2.549,0.674-5.695-0.734-8.042c-0.8-1.332-2.042-1.899-3.408-2.266
	c0.022-0.155,0.038-0.314,0.03-0.488c-0.163-3.767-0.286-7.509-0.045-11.269c0.175-2.716,1.003-6.371-0.113-8.991
	c-0.712-1.671-2.144-2.399-3.902-2.526c-1.295-0.093-2.583,0.397-3.867,0.429c-1.676,0.041-3.323-0.482-4.995-0.484
	c-1.852-0.003-5.153,0.06-6.709,0.96c-1.615,0.935-1.384,3.582-1.599,5.113c-0.497,3.532-0.231,6.77,0.219,10.286
	c0.223,1.745-0.023,3.834,0.321,5.667c-2.626,0.441-4.922,1.436-5.588,3.577c-0.754,2.431,0.305,5.836,0.17,8.361
	c-0.18,3.367-0.373,6.893-0.152,10.295c-4.134-0.17-8.143-0.426-12.295-0.4c-3.208,0.019-7.448-0.81-10.372,0.938
	c-1.503,0.899-2.328,2.373-2.154,4.125c0.142,1.417,1.34,2.962,1.878,4.181c0.748,1.69,1.22,3.644,2.257,5.205
	c0.637,0.959,1.501,1.663,2.509,2.188c0.083,0.42,0.375,0.805,0.926,0.98c0.741,0.236,2.848,3.039,3.503,3.641
	c1.088,1.002,2.208,1.964,3.276,2.993c2.308,2.221,4.451,5.303,7.389,6.706c0.56,0.267,1.14,0.491,1.731,0.692
	c-2.154,22.821-1.702,45.839-1.525,68.764c0.039,5.087-0.486,10.124-0.758,15.194c-0.192,3.6-1.309,8.526-0.638,12.331
	c-3.036,0.143-5.566,1.035-6.294,3.513c-0.64,2.18,0.853,3.548,2.247,4.805c1.628,1.469,2.666,1.52,2.626,3.602
	c-0.021,1.137-0.806,2.566-0.899,3.806c-0.22,2.954,1.146,4.597,3.162,5.544c-0.541,2.537-1.168,5.12-1.206,7.685
	c-0.024,1.731,0.446,3.556,0.059,5.285c-0.689,0.518-1.567,0.855-2.257,1.455c-1.675,1.457-2.933,3.689-2.426,5.994
	c0.348,1.585,1.476,2.201,2.324,3.419c2.126,3.054,0.847,4.109,1.199,7.069c0.202,1.703,0.898,2.816,1.898,3.536
	c-0.278,4.26-0.837,8.504-1.083,12.76c-0.295,5.09,0.232,10.232,0.018,15.326c-0.423,9.984,0.437,19.752-0.298,29.791
	c-0.473,6.474-3.006,14.174,3.255,18.559c6.827,4.78,18.738,2.311,26.477,2.45c11.368,0.205,22.721,0.146,34.091,0.115
	c10.717-0.03,21.498-0.792,32.215-0.155c18.914,1.126,38.012-0.41,56.905,1.094c10.515,0.837,21.186,0.108,31.718,0.752
	c5.387,0.33,11.016,0.253,16.398-0.065c3.746-0.221,7.467-0.126,11.169-0.358c7.526,0.312,15.263,1.372,22.748,0.676
	c0.551-0.051,1.005-0.222,1.383-0.461c0.377,0.238,0.832,0.409,1.383,0.461c7.484,0.696,15.221-0.364,22.748-0.676
	c3.701,0.232,7.422,0.137,11.169,0.358c5.381,0.319,11.011,0.394,16.398,0.065c10.533-0.644,21.202,0.085,31.718-0.752
	c18.893-1.503,37.991,0.032,56.905-1.094c10.718-0.638,21.499,0.125,32.216,0.155c11.37,0.031,22.723,0.09,34.091-0.115
	c7.74-0.139,19.65,2.331,26.477-2.45c6.262-4.385,3.73-12.084,3.255-18.559c-0.734-10.039,0.125-19.807-0.298-29.791
	c-0.215-5.095,0.312-10.236,0.018-15.326c-0.247-4.256-0.805-8.501-1.083-12.76c1-0.72,1.696-1.834,1.898-3.536
	c0.351-2.96-0.928-4.015,1.198-7.069c0.848-1.219,1.976-1.835,2.324-3.419c0.508-2.305-0.752-4.537-2.426-5.994
	c-0.689-0.6-1.567-0.937-2.257-1.455c-0.387-1.729,0.083-3.554,0.059-5.285c-0.038-2.564-0.665-5.147-1.206-7.685
	c2.016-0.946,3.383-2.588,3.162-5.544c-0.093-1.24-0.877-2.669-0.899-3.806c-0.04-2.082,0.998-2.134,2.626-3.602
	c1.394-1.257,2.886-2.625,2.247-4.805c-0.728-2.477-3.258-3.37-6.294-3.513c0.669-3.806-0.446-8.732-0.638-12.331
	c-0.271-5.069-0.796-10.108-0.758-15.194c0.177-22.925,0.628-45.944-1.525-68.764c0.591-0.202,1.171-0.426,1.731-0.692
	c2.937-1.403,5.08-4.485,7.389-6.706c1.069-1.029,2.188-1.991,3.276-2.993c0.655-0.603,2.762-3.406,3.503-3.641
	c0.552-0.176,0.844-0.56,0.926-0.98c1.008-0.525,1.872-1.229,2.509-2.188c1.036-1.562,1.509-3.515,2.257-5.205
	c0.539-1.219,1.737-2.764,1.878-4.181C512.154,148.824,511.328,147.35,509.825,146.452z M464.852,108.75
	c0.227-3.409,1.328-2.683,3.974-2.714c2.24-0.025,4.381-0.743,6.64-0.628c0.284,0.014,1.815,0.075,2.711,0.187
	c-0.007,0.228,0.065,0.629,0.054,1.105c-0.061,2.708,0.557,5.224,0.221,8.001c-0.316,2.616-0.948,5.897-0.292,8.674
	c-1.906-0.049-3.703,0.058-4.92,0.117c-2.394,0.118-4.906,0.301-7.365,0.613C465.618,119.123,464.526,113.662,464.852,108.75z
	 M461.158,133.569c-0.053-2.148-0.659-2.572,1.166-3.752c3.108-2.009,9.817-1.709,13.481-1.532c1.59,0.076,5.642,0.161,6.326,1.363
	c0.449,0.789-0.229,4.194-0.165,5.202c0.246,3.846,0.816,7.459,1.666,11.159c-7.448,0.094-14.872-0.448-22.302-0.669
	c-0.042-0.216-0.108-0.425-0.204-0.625c-0.396-2.287,0.122-5.292,0.073-7.564C461.174,135.957,461.188,134.763,461.158,133.569z
	 M33.772,106.7c-0.01-0.476,0.061-0.877,0.054-1.105c0.896-0.113,2.427-0.174,2.711-0.187c2.259-0.115,4.4,0.603,6.64,0.628
	c2.646,0.03,3.748-0.696,3.974,2.714c0.326,4.912-0.765,10.373-1.025,15.355c-2.459-0.312-4.971-0.494-7.365-0.613
	c-1.217-0.06-3.014-0.166-4.92-0.117c0.656-2.777,0.024-6.058-0.292-8.674C33.214,111.924,33.832,109.408,33.772,106.7z
	 M29.873,129.648c0.684-1.201,4.736-1.286,6.326-1.363c3.665-0.177,10.373-0.477,13.481,1.532c1.825,1.18,1.22,1.604,1.166,3.752
	c-0.03,1.194-0.017,2.388-0.042,3.582c-0.049,2.272,0.469,5.276,0.073,7.564c-0.095,0.2-0.161,0.41-0.204,0.625
	c-7.429,0.221-14.853,0.762-22.302,0.669c0.848-3.7,1.42-7.314,1.666-11.159C30.101,133.841,29.424,130.435,29.873,129.648z
	 M182.936,386.494c-0.441,5.429-0.136,11.024-1.059,16.404c-9.836-0.267-19.672-0.161-29.514-0.126
	c0.002-0.041,0.012-0.075,0.012-0.117c0-1.077-0.027-2.212-0.142-3.324c-0.147-8.236,0.944-16.334,1.343-24.563
	c0.45-9.268,1.378-19.737,10.184-25.081c2.662-1.616,5.514-2.521,8.657-2.304c4.743,0.329,5.801,2.62,7.24,6.59
	c1.779,4.906,2.893,9.883,3.457,15.095C183.729,374.739,183.398,380.809,182.936,386.494z M190.264,387.146
	c-0.221,5.24-1.181,10.7-1.113,15.932c-0.846-0.018-1.69-0.042-2.535-0.063c0.807-6.411,0.228-13.151,0.116-19.564
	c-0.123-7.165-0.063-14.142-1.428-21.203c-0.937-4.846-2.084-12.274-5.784-15.854c-2.993-2.897-8.586-2.683-12.319-1.772
	c-11.319,2.765-15.349,14.152-16.621,24.404c-0.708,5.703-1.3,11.719-1.581,17.476c-0.124,2.532-0.321,5.693-0.19,8.768
	c-0.023,0.201-0.018,0.395-0.04,0.656c-0.022,0.254-0.154,0.971-0.132,1.483c0.076,1.738-0.282,3.495-0.281,5.243
	c0,0.044,0.01,0.082,0.012,0.125c-1.066,0.001-2.132,0.003-3.198,0c0.216-12.136-0.046-24.184,1.025-36.319
	c0.536-6.077,0.836-12.373,4.032-17.772c4.019-6.789,10.361-10.546,18.327-10.878c8.592-0.358,14.644,2.831,17.835,10.833
	c2.332,5.848,2.985,12.524,3.336,18.773C190.093,373.919,190.538,380.646,190.264,387.146z M273.987,404.216
	c-0.034,0.002-0.064,0.012-0.096,0.015c-1.529-0.015-3.063-0.024-4.597-0.022c-4.792-0.387-9.732-0.107-14.259,0.115
	c-1.259,0.062-2.525,0.087-3.794,0.106c-4.335-0.246-8.752-0.243-13.126-0.199c-0.033-0.003-0.063-0.013-0.096-0.015
	c-0.615-0.04-1.231-0.071-1.847-0.105c1.984-9.046,1.346-18.375,1.574-27.597c0.145-5.858,0.185-12.519,2.074-18.093
	c2.045-6.032,6.458-8.3,11.612-10.472c2.316-0.307,4.635-0.775,6.97-0.847c0.04-0.001,0.092,0,0.139,0
	c6.009,2.493,11.337,4.507,13.646,11.319c1.889,5.574,1.929,12.235,2.074,18.093c0.228,9.222-0.41,18.551,1.574,27.597
	C275.219,404.146,274.602,404.177,273.987,404.216z M281.946,403.808c-1.159,0.048-2.318,0.102-3.478,0.158
	c-0.396-12.465-0.883-24.958-1.374-37.41c-0.207-5.244-1.379-11.372-5.033-15.381c-2.118-2.325-4.897-3.805-7.813-4.89
	c-1.281-0.477-2.326-1.349-3.61-1.676c-1.678-0.427-3.634-0.379-5.348-0.272c-0.989,0.062-2.051,0.135-3.021,0.312
	c-0.757,0.139-1.237,0.543-1.946,0.765c-3.849,1.211-7.547,2.649-10.382,5.76c-3.654,4.009-4.826,10.137-5.033,15.381
	c-0.491,12.454-0.977,24.945-1.374,37.41c-1.159-0.056-2.318-0.111-3.478-0.158c1.094-4.543,0.261-10.037,0.147-14.373
	c-0.189-7.241-0.837-14.606-0.437-21.837c0.392-7.08,1.799-14.007,6.477-19.55c2.514-2.978,5.575-4.91,9.161-6.485
	c3.67-1.612,6.908-0.963,10.594-1.849c3.687,0.887,6.924,0.238,10.595,1.849c3.586,1.574,6.647,3.508,9.161,6.485
	c4.68,5.543,6.086,12.469,6.477,19.55c0.4,7.232-0.248,14.596-0.437,21.837C281.685,393.771,280.852,399.265,281.946,403.808z
	 M359.769,399.33c-0.115,1.112-0.14,2.247-0.142,3.324c0,0.042,0.01,0.076,0.012,0.117c-9.841-0.035-19.678-0.14-29.514,0.126
	c-0.923-5.38-0.617-10.975-1.059-16.404c-0.462-5.686-0.792-11.754-0.178-17.425c0.564-5.213,1.678-10.19,3.457-15.095
	c1.44-3.969,2.497-6.262,7.24-6.59c3.143-0.218,5.993,0.688,8.657,2.304c8.805,5.345,9.733,15.813,10.184,25.081
	C358.827,382.995,359.917,391.093,359.769,399.33z M363.634,402.779c0.002-0.043,0.012-0.081,0.012-0.125
	c0.001-1.748-0.357-3.505-0.281-5.243c0.022-0.511-0.109-1.228-0.132-1.483c-0.022-0.261-0.015-0.456-0.04-0.656
	c0.131-3.075-0.067-6.236-0.19-8.768c-0.281-5.756-0.873-11.774-1.581-17.476c-1.272-10.254-5.302-21.639-16.621-24.404
	c-3.733-0.913-9.326-1.126-12.319,1.772c-3.7,3.581-4.847,11.008-5.784,15.854c-1.365,7.062-1.305,14.038-1.428,21.203
	c-0.111,6.413-0.69,13.153,0.116,19.564c-0.845,0.02-1.689,0.045-2.535,0.063c0.07-5.231-0.892-10.691-1.113-15.932
	c-0.274-6.5,0.171-13.227,0.536-19.729c0.351-6.25,1.004-12.925,3.336-18.773c3.191-8.003,9.243-11.192,17.835-10.833
	c7.966,0.332,14.309,4.089,18.327,10.878c3.196,5.399,3.494,11.695,4.032,17.772c1.072,12.134,0.81,24.182,1.025,36.319
	C365.765,402.782,364.7,402.78,363.634,402.779z M485.691,401.256c-2.482,3.396-8.956,2.406-12.576,2.189
	c-10.767-0.644-21.71-0.614-32.502-0.879c-19.967-0.491-39.883-0.628-59.842-0.001c-3.405,0.107-6.809,0.157-10.213,0.186
	c0.389-2.565,0.161-5.158,0.371-7.806c0.311-3.956,0.711-7.865,0.873-11.836c0.314-7.723-0.477-15.871-1.584-23.52
	c-2.03-14.03-11.328-24.683-26.084-25.386c-6.764-0.322-13.768,0.553-18.289,6.005c-4.548,5.486-6.215,12.145-7.296,19.028
	c-1.202,7.654-1.096,15.401-1.488,23.115c-0.334,6.576,0.795,13.105,0.837,19.63c-0.217,0.33-0.323,0.73-0.29,1.184
	c-10.353,0.148-20.732,0.15-31.081,0.472c0.334-2.457,0.166-5.176,0.28-7.358c0.228-4.353,0.321-8.757,0.388-13.12
	c0.125-8.026,0.732-16.013-0.74-23.971c-0.112-0.601-0.242-1.197-0.392-1.789c-1.846-7.287-6.599-13.938-13.113-17.756
	c-7.464-4.374-16.354-3.965-24.618-3.104c-11.36,1.186-20.668,11.206-22.785,22.648c-1.472,7.959-0.865,15.945-0.74,23.971
	c0.067,4.363,0.16,8.767,0.388,13.12c0.114,2.182-0.055,4.901,0.28,7.358c-10.348-0.323-20.728-0.324-31.081-0.472
	c0.033-0.455-0.072-0.854-0.29-1.184c0.042-6.525,1.171-13.055,0.837-19.63c-0.392-7.714-0.285-15.46-1.488-23.115
	c-1.081-6.882-2.748-13.541-7.296-19.028c-4.52-5.452-11.525-6.327-18.289-6.005c-14.756,0.702-24.054,11.355-26.084,25.386
	c-1.107,7.649-1.897,15.797-1.584,23.52c0.161,3.971,0.562,7.88,0.873,11.836c0.208,2.648-0.019,5.24,0.369,7.806
	c-3.404-0.029-6.808-0.079-10.213-0.186c-19.959-0.628-39.875-0.491-59.842,0.001c-10.792,0.267-21.735,0.236-32.502,0.879
	c-3.619,0.217-10.092,1.207-12.576-2.189c-2.299-3.144-1.015-8.797-0.969-12.474c0.124-9.902-1.962-19.872-1.186-29.707
	c0.406-5.13-0.098-10.331,0.025-15.476c0.107-4.449,0.461-8.861,0.404-13.3c3.047,0.262,6.706-0.482,9.237-0.46
	c9.839,0.084,19.663,0.768,29.53,0.833c20.7,0.136,41.323,0.122,61.994-0.897c18.85-0.929,37.56-0.023,56.416-0.173
	c10.898-0.086,21.667,0.253,32.588-0.299c6.403-0.324,12.84-0.196,19.249-0.154c3.871,0.025,8.08,0.438,12.051-0.029
	c3.241,0.741,7.081,0.326,10.057,0.212c3.659-0.14,7.837,0.383,11.631-0.115c3.676,0.303,7.511-0.045,11.062-0.069
	c6.408-0.042,12.845-0.17,19.249,0.154c10.921,0.552,21.69,0.212,32.588,0.299c18.856,0.149,37.566-0.757,56.416,0.173
	c20.671,1.019,41.293,1.034,61.994,0.897c9.868-0.065,19.692-0.749,29.53-0.833c2.531-0.022,6.19,0.722,9.237,0.46
	c-0.058,4.439,0.296,8.851,0.404,13.3c0.124,5.143-0.379,10.346,0.025,15.476c0.776,9.836-1.31,19.805-1.186,29.707
	C486.706,392.461,487.989,398.113,485.691,401.256z M488.644,324.124c-1.063,2.438-3.615,1.096-5.929,0.907
	c-8.196-0.669-16.553,0.647-24.773,0.617c-10.179-0.036-20.555-0.93-30.699-0.441c-9.777,0.471-19.768,0.929-29.559,0.618
	c-8.25-0.262-16.563-1.156-24.817-0.947c-8.817,0.225-17.714,0.175-26.547-0.04c-9.259-0.225-18.576,0.676-27.839,0.748
	c-9.664,0.075-19.301-0.845-28.978-0.722c-5.015,0.063-10.03,0.132-15.046,0.211c-2.657,0.043-5.343-0.115-8.007-0.065
	c-3.337-0.525-6.919-0.488-10.045-0.354c-2.824,0.122-5.549,0.177-8.252,0.493c-3.509-0.309-7.08-0.019-10.604-0.075
	c-5.015-0.081-10.03-0.148-15.046-0.211c-9.678-0.122-19.314,0.798-28.978,0.722c-9.263-0.073-18.58-0.972-27.839-0.748
	c-8.834,0.215-17.73,0.264-26.547,0.04c-8.254-0.209-16.568,0.685-24.817,0.947c-9.791,0.311-19.782-0.146-29.559-0.618
	c-10.144-0.489-20.521,0.405-30.699,0.441c-8.22,0.03-16.576-1.286-24.772-0.617c-2.314,0.188-4.866,1.531-5.929-0.907
	c-0.427-0.978,0.149-2.859-0.095-3.947c-0.088-0.394-0.217-0.723-0.358-1.034c4.158,0.759,8.301,0.361,12.628,0.532
	c6.808,0.271,13.666,0.788,20.463,0.962c16.655,0.427,33.262-0.497,49.952-0.484c7.334,0.004,14.521,0.758,21.864,0.591
	c7.414-0.169,14.773-0.673,22.172-1.074c15.557-0.843,31.22-0.249,46.758,0.539c19.521,0.99,39.193,0.304,58.707-0.553
	c0.21-0.009,0.395-0.056,0.553-0.132c0.158,0.075,0.343,0.122,0.553,0.132c19.513,0.857,39.186,1.542,58.707,0.553
	c15.538-0.788,31.202-1.383,46.758-0.539c7.399,0.402,14.758,0.905,22.172,1.074c7.342,0.167,14.53-0.585,21.864-0.591
	c16.689-0.012,33.297,0.911,49.952,0.484c6.797-0.174,13.655-0.691,20.463-0.962c4.326-0.171,8.47,0.226,12.628-0.532
	c-0.142,0.311-0.27,0.64-0.358,1.034C488.495,321.265,489.071,323.146,488.644,324.124z M491.029,312.829
	c0.122,0.07,0.232,0.148,0.314,0.25c1.098,1.368,0.038,2.603-0.708,3.555c-13.925-0.706-27.777,1.191-41.691,1.425
	c-16.67,0.279-33.508-2.197-50.192-0.681c-14.425,1.311-29.19-0.39-43.64-0.894c-15.812-0.551-31.452,1.004-47.228,0.886
	c-8.678-0.065-17.404,0.629-26.065,0.229c-8.429-0.39-16.835-0.931-25.266-0.561c-0.21,0.009-0.395,0.056-0.553,0.131
	c-0.158-0.074-0.343-0.122-0.553-0.131c-8.431-0.371-16.837,0.17-25.266,0.561c-8.661,0.4-17.387-0.294-26.065-0.229
	c-15.777,0.118-31.416-1.437-47.228-0.886c-14.45,0.503-29.216,2.203-43.64,0.894c-16.684-1.515-33.52,0.961-50.191,0.681
	c-13.914-0.233-27.766-2.13-41.691-1.425c-0.746-0.952-1.806-2.187-0.708-3.555c0.082-0.102,0.192-0.18,0.314-0.25
	c20.145,1.069,40.521-0.657,60.744,0.264c20.503,0.935,41.024,1.244,61.544,1.258c10.518,0.007,20.668-0.372,31.116-1.425
	c10.135-1.02,20.145-0.824,30.288-0.489c6.361,0.209,12.889,0.129,19.324,0.356c0.385,0.092,0.788,0.115,1.177,0.05
	c1.847,0.077,3.689,0.176,5.512,0.324c6.903,0.563,14.542,1.698,21.499,1.08c1.674,0.097,3.346,0.197,5.02,0.307
	c2.935,0.196,6.911,0.631,10.184-0.195c4.7-0.218,9.475-0.828,13.941-1.192c1.824-0.148,3.665-0.248,5.512-0.324
	c0.389,0.064,0.792,0.041,1.177-0.05c6.435-0.227,12.964-0.147,19.324-0.356c10.142-0.335,20.153-0.531,30.288,0.489
	c10.449,1.052,20.598,1.431,31.117,1.425c20.52-0.014,41.041-0.323,61.544-1.258C450.508,312.171,470.884,313.897,491.029,312.829z
	 M486.768,309.727c-2.038-0.243-4.093-0.529-6.048-0.713c-4.169-0.393-8.301-0.439-12.498-0.451c-0.216,0-0.432,0-0.648,0
	c0.012-0.086,0.033-0.167,0.038-0.259c0.054-1.104,0.32-1.978,0.251-3.129c-0.067-1.143-0.093-2.289-0.128-3.433
	c-0.002-0.221,0.003-0.441,0-0.664c-0.008-0.426-0.006-0.827-0.007-1.219c0.016-0.909,0.009-1.885-0.173-2.761
	c4.665-0.178,9.331-0.488,13.948-0.864c1.844-0.149,4.095-0.227,6.163-0.619c-0.42,1.473-1.103,2.804-1.198,4.37
	c-0.103,1.707-0.166,3.605-0.218,5.33C486.205,306.834,486.263,308.389,486.768,309.727z M477.693,292.042
	c-16.631,1.227-33.624,0.765-50.25-0.445c-18.223-1.325-36.585-1.886-54.845-1.937c-19.649-0.055-39.379-0.263-59.016,0.341
	c-8.744,0.269-17.857-0.46-26.58,0.469c-4.189,0.446-8.34,0.24-12.487,0.167c-6.224-1.165-13.553-0.104-19.521-0.18
	c-5.555-0.07-11.254-0.406-16.801,0.17c-4.38,0.059-8.765,0.313-13.191-0.158c-8.723-0.929-17.836-0.201-26.58-0.469
	c-19.636-0.603-39.367-0.395-59.016-0.341c-18.26,0.051-36.622,0.612-54.845,1.937c-16.626,1.21-33.62,1.671-50.25,0.445
	c-2.576-0.19-10.796,0.181-11.945-2.306c-0.653-1.411,1.053-4.263,0.916-6.057c4.886,0.859,10.104,0.63,14.919,1.142
	c8.061,0.856,16.141,0.522,24.232,0.466c14.465-0.098,28.875-1.242,43.299-1.307c29.679-0.134,59.178,2.405,88.855,2.299
	c8.636-0.031,17.325,0.519,25.98,0.528c7.637,0.007,15.999,0.75,23.679-0.033c3.535,0.386,6.921,0.758,10.694,0.637
	c4.328-0.139,9.013,0.208,13.34-0.576c7.535,0.698,15.694-0.021,23.158-0.027c8.654-0.008,17.344-0.559,25.98-0.528
	c29.677,0.107,59.177-2.431,88.855-2.299c14.424,0.065,28.835,1.208,43.299,1.307c8.09,0.055,16.17,0.39,24.232-0.466
	c4.816-0.511,10.034-0.282,14.919-1.142c-0.137,1.794,1.568,4.646,0.916,6.057C488.489,292.223,480.27,291.852,477.693,292.042z
	 M462.927,301.078c0.021,2.41,0.077,4.816,0.017,7.225c-0.002,0.092,0.013,0.171,0.019,0.258c-4.117-0.003-8.233,0.003-12.35,0.008
	c0.166-0.904,0.359-1.677,0.155-2.666c-0.22-1.065-0.347-2.077-0.424-3.144c0.001-0.432,0.004-0.865,0.008-1.297
	c0.008-1.432,0.178-2.926,0.019-4.344c1.578,0.012,3.158,0.032,4.739,0.076c2.662,0.074,5.341,0.073,8.026,0.025
	C462.802,298.395,462.914,299.607,462.927,301.078z M435.387,297.105c3.337,0.035,6.673,0.012,10.012,0.003
	c-0.317,2.162,0.042,4.61,0.053,6.64c0.009,1.665-0.217,3.332,0.29,4.823c-2.405,0.002-4.809,0.003-7.214,0.004
	c-1.251,0.001-2.501,0.022-3.75,0.052c0.132-2.192,0.327-4.377,0.388-6.562C435.214,300.341,435.638,298.722,435.387,297.105z
	 M418.996,296.338c2.12,0.129,4.241,0.26,6.354,0.405c1.77,0.122,3.537,0.202,5.306,0.259c0.004,0.051,0.021,0.1,0.029,0.15
	c-0.292,3.881-0.782,7.732-0.77,11.635c-3.596,0.148-7.191,0.332-10.789,0.435c0.036-0.154,0.064-0.315,0.072-0.488
	C419.402,304.604,419.106,300.471,418.996,296.338z M402.732,305.501c0.063-0.878,0.138-1.744,0.138-2.518
	c0-2.479,0.018-4.958-0.072-7.434c3.779,0.136,7.56,0.31,11.338,0.514c-0.094,4.194,0.181,8.477,0.389,12.672
	c-0.007,0.203,0.01,0.39,0.043,0.565c-0.052,0-0.105,0.002-0.157,0.002c-3.825,0.003-7.643,0.049-11.458,0.155
	C403.02,308.186,402.891,306.834,402.732,305.501z M398.1,304.005c0,1.775-0.255,3.823,0.054,5.632
	c-2.469,0.108-4.938,0.238-7.404,0.419c-1.387,0.102-2.783,0.16-4.182,0.202c0.105-4.897,0.528-10.109-0.013-15.03
	c2.07,0.021,4.138,0.025,6.209,0.056c1.782,0.027,3.566,0.065,5.351,0.113c0.014,0.056,0.029,0.112,0.05,0.168
	C398.063,298.377,398.1,301.192,398.1,304.005z M381.954,310.318c-3.305-0.01-6.62-0.103-9.924-0.178
	c0.055-3.081,0.041-6.158,0.016-9.239c-0.016-1.937,0.368-4.044-0.356-5.749c3.428,0.006,6.855,0.012,10.283,0.035
	C381.422,300.14,381.851,305.388,381.954,310.318z M367.328,300.901c-0.025,3.057-0.038,6.111,0.016,9.168
	c-0.925-0.008-1.852-0.021-2.772-0.014c-3.186,0.022-6.346,0.006-9.496-0.08c0.039-3.042-0.006-6.086-0.022-9.128
	c-0.011-1.952,0.042-3.84-0.334-5.674c4.324-0.012,8.647-0.029,12.97-0.028C366.96,296.85,367.345,298.961,367.328,300.901z
	 M350.044,309.771c-3.175-0.173-6.349-0.432-9.541-0.823c-0.403-0.049-0.805-0.087-1.207-0.132c0.14-2.968,0.585-6.893-0.019-10.242
	c-0.1-0.968-0.21-2.219-0.499-3.365c3.874-0.01,7.748-0.017,11.621-0.029c-0.374,1.831-0.321,3.717-0.332,5.666
	C350.051,303.821,350.011,306.796,350.044,309.771z M334.254,308.368c-3.71-0.248-7.409-0.313-11.104-0.277
	c0.124-4.016,0.548-8.762-0.491-12.799c2.171-0.032,4.344-0.056,6.52-0.057c1.846-0.001,3.691-0.01,5.538-0.013
	c-0.027,0.556-0.063,1.217-0.091,1.932C333.593,300.598,334.069,305.014,334.254,308.368z M317.975,308.21
	c-3.74,0.134-7.481,0.357-11.226,0.617c0.091-3.873,0.095-7.752,0-11.625c-0.011-0.438-0.031-1.01-0.105-1.604
	c3.932-0.064,7.865-0.157,11.802-0.234C317.421,299.425,317.857,304.192,317.975,308.21z M301.927,309.176
	c-1.946,0.146-3.895,0.294-5.846,0.44c-2.019,0.15-4.062,0.246-6.114,0.316c0.03-2.014,0.071-4.109,0.02-6.215
	c-0.024-1.866-0.127-3.736-0.441-5.516c-0.135-0.879-0.312-1.744-0.529-2.593c1.332-0.016,2.668-0.017,4.01,0.01
	c2.998,0.058,5.993,0.053,8.988,0.03c-0.098,0.842-0.096,1.66-0.102,2.181C301.878,301.614,301.839,305.392,301.927,309.176z
	 M284.751,310.057c-3.342,0.046-6.683,0.046-9.967,0.064c-0.016,0-0.032,0.001-0.049,0.001c0.194-0.344,0.316-0.752,0.316-1.241
	c-0.003-3.044,0.029-6.09-0.011-9.134c-0.018-1.372,0.011-2.773-0.296-4.055c3.628,0.156,7.267,0.056,10.938-0.024
	c-0.209,0.83-0.38,1.675-0.511,2.534c-0.313,1.773-0.416,3.636-0.44,5.495C284.677,305.852,284.722,307.999,284.751,310.057z
	 M269.919,308.88c-0.009,0.522,0.124,0.951,0.335,1.309c-0.478,0.014-0.956,0.031-1.435,0.053c-2.871-0.938-6.557-0.534-9.791-0.282
	c0.15-2.156,0.233-4.233,0.051-6.344c0.004-2.096-0.096-4.205-0.514-6.146c0.028-0.841,0.075-1.684,0.092-2.54
	c3.673,0.275,7.753,0.594,11.643,0.468c-0.392,1.358-0.348,2.873-0.368,4.349C269.892,302.79,269.923,305.836,269.919,308.88z
	 M253.975,299.652c0.022,0.58,0.025,1.163,0.033,1.744c-0.096,2.873-0.181,5.744-0.148,8.613c-3.362-0.209-7.229-0.556-10.58,0.236
	c-0.51-0.023-1.02-0.042-1.53-0.058c0.211-0.357,0.344-0.786,0.335-1.309c-0.003-3.044,0.028-6.09-0.011-9.134
	c-0.02-1.492,0.028-3.023-0.378-4.394c2.118-0.24,4.235-0.609,6.356-1.158c2.054,0.143,4.086,0.285,6.111,0.419
	c-0.001,0.165-0.006,0.33-0.007,0.494C253.781,296.554,253.921,298.234,253.975,299.652z M227.274,303.697
	c-0.024-1.861-0.128-3.723-0.44-5.495c-0.132-0.859-0.302-1.705-0.511-2.534c3.671,0.08,7.31,0.179,10.938,0.024
	c-0.309,1.282-0.279,2.683-0.296,4.055c-0.04,3.044-0.008,6.09-0.011,9.134c-0.001,0.489,0.123,0.897,0.316,1.241
	c-0.017,0-0.032-0.001-0.048-0.001c-3.283-0.018-6.625-0.018-9.967-0.064C227.283,307.999,227.327,305.852,227.274,303.697z
	 M222.035,309.932c-2.052-0.071-4.095-0.165-6.114-0.316c-1.952-0.146-3.9-0.294-5.846-0.44c0.09-3.784,0.05-7.561,0.012-11.348
	c-0.006-0.52-0.003-1.338-0.102-2.181c2.995,0.023,5.992,0.028,8.988-0.03c1.343-0.025,2.679-0.024,4.011-0.01
	c-0.217,0.85-0.395,1.713-0.529,2.593c-0.314,1.78-0.417,3.65-0.441,5.516C221.965,305.823,222.006,307.918,222.035,309.932z
	 M205.255,308.826c-3.745-0.259-7.486-0.482-11.226-0.617c0.118-4.019,0.554-8.785-0.471-12.847c3.937,0.077,7.87,0.17,11.802,0.235
	c-0.073,0.594-0.094,1.166-0.105,1.604C205.161,301.074,205.164,304.954,205.255,308.826z M188.855,308.091
	c-3.696-0.036-7.394,0.029-11.104,0.277c0.185-3.354,0.661-7.769-0.373-11.215c-0.028-0.715-0.064-1.376-0.09-1.932
	c1.846,0.003,3.691,0.012,5.538,0.013c2.176,0.001,4.348,0.025,6.52,0.057C188.307,299.329,188.731,304.074,188.855,308.091z
	 M172.708,308.817c-0.403,0.044-0.804,0.083-1.207,0.132c-3.192,0.39-6.367,0.649-9.541,0.823c0.034-2.974-0.006-5.95-0.023-8.924
	c-0.011-1.949,0.042-3.834-0.332-5.666c3.873,0.013,7.747,0.02,11.621,0.029c-0.289,1.146-0.399,2.397-0.499,3.365
	C172.123,301.924,172.568,305.849,172.708,308.817z M156.928,309.974c-3.151,0.085-6.31,0.102-9.496,0.08
	c-0.92-0.007-1.846,0.006-2.772,0.014c0.053-3.056,0.041-6.11,0.016-9.168c-0.017-1.94,0.369-4.051-0.361-5.757
	c4.324,0,8.647,0.016,12.97,0.028c-0.376,1.834-0.323,3.723-0.334,5.674C156.933,303.888,156.89,306.933,156.928,309.974z
	 M139.959,300.901c-0.025,3.082-0.04,6.159,0.015,9.239c-3.304,0.074-6.619,0.168-9.924,0.178c0.103-4.929,0.532-10.179-0.018-15.13
	c3.429-0.023,6.856-0.03,10.283-0.035C139.591,296.857,139.975,298.964,139.959,300.901z M125.437,310.259
	c-1.399-0.042-2.794-0.101-4.182-0.202c-2.467-0.181-4.936-0.311-7.404-0.419c0.31-1.81,0.054-3.857,0.054-5.632
	c0-2.813,0.038-5.627-0.065-8.439c0.021-0.056,0.035-0.112,0.05-0.168c1.786-0.048,3.571-0.086,5.351-0.113
	c2.071-0.031,4.139-0.035,6.209-0.056C124.909,300.15,125.332,305.363,125.437,310.259z M109.052,309.457
	c-3.815-0.107-7.634-0.152-11.458-0.155c-0.052,0-0.105-0.002-0.157-0.002c0.033-0.176,0.051-0.363,0.043-0.565
	c0.208-4.194,0.483-8.477,0.389-12.672c3.777-0.205,7.559-0.378,11.338-0.514c-0.09,2.477-0.072,4.955-0.072,7.434
	c0,0.773,0.075,1.639,0.138,2.518C109.113,306.834,108.984,308.186,109.052,309.457z M92.807,308.734
	c0.009,0.174,0.035,0.335,0.072,0.488c-3.598-0.103-7.193-0.286-10.789-0.435c0.011-3.904-0.479-7.754-0.77-11.635
	c0.009-0.05,0.024-0.098,0.029-0.15c1.769-0.057,3.536-0.138,5.306-0.259c2.113-0.145,4.233-0.277,6.354-0.405
	C92.898,300.471,92.603,304.604,92.807,308.734z M66.552,303.749c0.011-2.03,0.371-4.479,0.053-6.64
	c3.338,0.008,6.674,0.032,10.012-0.003c-0.252,1.617,0.174,3.237,0.221,4.961c0.061,2.185,0.256,4.369,0.388,6.562
	c-1.249-0.03-2.499-0.051-3.75-0.052c-2.405,0-4.811-0.001-7.214-0.004C66.769,307.08,66.542,305.414,66.552,303.749z
	 M61.392,308.567c-4.117-0.004-8.233-0.011-12.35-0.008c0.006-0.086,0.021-0.166,0.019-0.258c-0.061-2.409-0.004-4.816,0.017-7.225
	c0.012-1.47,0.125-2.682-0.208-3.857c2.685,0.048,5.364,0.049,8.026-0.025c1.581-0.044,3.16-0.064,4.739-0.076
	c-0.16,1.418,0.01,2.911,0.019,4.344c0.003,0.432,0.007,0.865,0.008,1.297c-0.076,1.066-0.205,2.077-0.424,3.144
	C61.033,306.892,61.226,307.665,61.392,308.567z M44.277,299.859c0,0.39,0.001,0.793-0.007,1.219c-0.003,0.221,0.002,0.441,0,0.664
	c-0.035,1.145-0.061,2.291-0.128,3.433c-0.069,1.15,0.197,2.025,0.251,3.129c0.004,0.092,0.025,0.173,0.038,0.259
	c-0.216,0.001-0.432,0-0.648,0c-4.197,0.012-8.329,0.058-12.498,0.451c-1.957,0.184-4.011,0.47-6.048,0.713
	c0.507-1.337,0.563-2.893,0.518-4.411c-0.052-1.726-0.115-3.623-0.218-5.33c-0.095-1.566-0.778-2.897-1.198-4.37
	c2.068,0.393,4.319,0.47,6.163,0.619c4.617,0.375,9.284,0.686,13.948,0.864C44.268,297.974,44.262,298.95,44.277,299.859z
	 M489.474,278.281c0.637,0.144,1.252,0.575,1.421,1.206c0.665,2.473-7.651,2.021-9.084,2.098c-4.14,0.225-8.283,0.393-12.423,0.6
	c-9.337,0.466-18.7,0.708-28.05,0.687c-14.446-0.032-28.708-2.168-43.187-2.001c-14.184,0.164-28.467,0.5-42.637,1.303
	c-14.83,0.84-29.742,0.899-44.594,1.577c-8.021,0.366-16.241,0.663-24.267,0.527c-6.141-0.104-12.359-0.327-18.481,0.311
	c-4.388-0.385-8.847-0.052-13.232,0.014c-3.001,0.046-6.01,0.116-9.013,0.249c-6.796-0.945-13.733-0.69-20.576-0.573
	c-8.026,0.136-16.247-0.161-24.267-0.527c-14.852-0.678-29.764-0.738-44.594-1.577c-14.169-0.803-28.453-1.139-42.637-1.303
	c-14.478-0.167-28.741,1.969-43.187,2.001c-9.351,0.021-18.713-0.221-28.05-0.687c-4.14-0.207-8.283-0.375-12.423-0.6
	c-1.432-0.077-9.749,0.375-9.084-2.098c0.169-0.632,0.784-1.062,1.421-1.206c0.946-0.212,2.117-0.097,3.099-0.155
	c0.208,0.033,0.416,0.067,0.633,0.096c5.661,0.755,11.396,0.616,17.129,0.678c22.43,0.243,44.919-2.596,67.384-0.393
	c5.709,0.56,11.399,0.416,17.118,0.887c5.693,0.469,11.305-0.393,16.992-0.128c11.306,0.524,22.651,1.609,33.997,1.624
	c12.367,0.018,24.755,1.536,37.087,1.452c9.66-0.066,20.555,1.613,30.234-0.48c2.241-0.014,4.495-0.048,6.771-0.074
	c4.527-0.052,9.168,0.163,13.813,0.26c9.429,1.781,19.911,0.231,29.245,0.294c12.332,0.084,24.721-1.435,37.087-1.452
	c11.346-0.015,22.691-1.099,33.997-1.624c5.688-0.264,11.298,0.597,16.992,0.128c5.72-0.471,11.41-0.326,17.118-0.887
	c22.465-2.203,44.954,0.635,67.384,0.393c5.733-0.062,11.468,0.077,17.129-0.678c0.216-0.029,0.424-0.063,0.633-0.096
	C487.356,278.183,488.529,278.068,489.474,278.281z M26.868,177.991c4.551,0.737,9.534,0.25,13.812-0.045
	c17.737-1.228,35.8-0.939,53.601-0.602c18.365,0.347,36.837,1.324,55.171,0.309c17.274-0.957,34.875-0.685,52.156-0.179
	c9.713,0.284,19.469,0.298,29.171,0.361c4.46,0.03,8.891,0.642,13.337,0.864c1.79,0.09,3.761,0.239,5.604-0.028
	c2.555,0.113,5.101,0.045,7.337,0.059c3.512,0.02,7.253,0.345,10.835-0.03c4.446-0.222,8.874-0.834,13.334-0.864
	c9.703-0.064,19.458-0.076,29.171-0.361c17.282-0.504,34.883-0.778,52.156,0.179c18.334,1.015,36.807,0.039,55.171-0.309
	c17.801-0.336,35.864-0.626,53.601,0.602c4.279,0.296,9.262,0.782,13.812,0.045c0.218,23.741-1.099,47.551-0.388,71.322
	c0.166,5.541,0.392,11.141,0.679,16.677c0.097,1.882,0.72,4.075,0.251,5.926c-0.286,1.132-0.591,1.723-1.198,2.106
	c-2.377,0.397-4.498,0.883-5.765,1.08c-0.028,0.004-0.045,0.02-0.071,0.027c-2.651,0.128-5.448-0.03-8.005,0.098
	c-2.719,0.137-5.522,0.069-8.244,0.033c-4.647-0.059-9.549-0.371-14.171-0.772c-1.224-0.106-2.454-0.179-3.681-0.271
	c1.755-11.817,0.373-29.628-12.109-34.645c-5.921-2.379-12.404,0.405-15.832,5.515c-1.823,2.719-2.452,6.184-2.681,9.407
	c-0.432,6.074-0.53,12.618-0.201,18.721c-10.216,0.035-20.431,0.353-30.577,0.774c-5.106,0.211-10.118-0.657-15.216-0.588
	c-2.448,0.032-4.92,0.061-7.393,0.114c1.442-3.541,0.886-8.365,0.774-11.959c-0.139-4.465-0.97-9.11-2.326-13.365
	c-2.431-7.632-8.296-12.393-16.639-11.669c-17.619,1.53-16.042,25.424-14.359,38.378c-2.915,0.073-5.83,0.122-8.746,0.133
	c-10.065,0.035-20.491,0.39-30.495,1.29c-2.111,0.189-4.274,0.286-6.462,0.354c-1.922-0.323-3.888-0.553-5.869-0.736
	c-0.397-3.105-0.048-7.062-0.017-9.875c0.066-5.827-0.55-12.858-2.573-18.372c-2.984-8.134-11.994-11.985-20.398-11.067
	c-7.963,0.869-13.133,8.909-15.21,15.985c-2.164,7.369-1.701,15.913-0.113,23.504c-2.949,0.076-5.888,0.222-8.77,0.549
	c-2.054-0.069-4.086-0.163-6.07-0.342c-10.004-0.899-20.43-1.254-30.495-1.29c-2.916-0.01-5.831-0.06-8.746-0.133
	c1.684-12.954,3.26-36.848-14.359-38.378c-8.344-0.725-14.209,4.036-16.641,11.669c-1.355,4.255-2.187,8.9-2.325,13.365
	c-0.112,3.595-0.668,8.419,0.774,11.959c-2.473-0.053-4.945-0.081-7.393-0.114c-5.097-0.069-10.11,0.801-15.216,0.588
	c-10.145-0.421-20.362-0.739-30.577-0.774c0.329-6.104,0.231-12.647-0.201-18.721c-0.229-3.222-0.858-6.688-2.681-9.407
	c-3.428-5.11-9.911-7.896-15.832-5.515c-12.482,5.017-13.864,22.829-12.109,34.645c-1.227,0.092-2.456,0.164-3.681,0.271
	c-4.621,0.4-9.524,0.713-14.171,0.772c-2.722,0.034-5.525,0.104-8.244-0.033c-2.557-0.129-5.354,0.029-8.005-0.098
	c-0.025-0.006-0.043-0.022-0.071-0.027c-1.268-0.197-3.388-0.682-5.765-1.08c-0.607-0.383-0.911-0.974-1.198-2.106
	c-0.469-1.849,0.153-4.044,0.25-5.926c0.288-5.536,0.513-11.136,0.679-16.677C27.966,225.543,26.65,201.732,26.868,177.991z
	 M431.673,251.33c-0.905-2.497-3.955-6.911-7.211-8.327c3.831-1.4,8.366-0.254,11.402,3.735c3.263,4.287,4.719,9.256,5.338,14.569
	c0.482,4.134,0.139,8.556,0.619,12.709c-2.959-0.195-5.924-0.338-8.892-0.459C433.991,266.382,434.062,257.923,431.673,251.33z
	 M418.75,248.318c0.76-1.546,1.782-2.78,2.952-3.727c1.931,0.395,4.76,3.295,5.65,4.459c2.013,2.634,2.238,5.973,2.525,9.124
	c0.461,5.051,0.226,10.216-0.548,15.246c-3.915-0.122-7.835-0.188-11.757-0.204C417.863,265.609,415.329,255.283,418.75,248.318z
	 M350.005,263.165c0.044-4.113,0.473-8.118-0.541-12.151c-0.872-3.464-4.113-9.035-8.034-10.736
	c16.455-4.388,17.042,22.517,16.73,33.301c-1.814,0.053-3.625,0.117-5.422,0.22c-0.983,0.055-1.967,0.102-2.951,0.155
	c0.051-0.104,0.104-0.208,0.135-0.317C350.812,270.407,349.97,266.479,350.005,263.165z M346.307,272.203
	c-0.583,0.598-0.601,1.352-0.299,1.949c-4.699,0.241-9.399,0.462-14.1,0.618c-0.317-2.357-0.93-4.583-0.926-7.038
	c0.008-3.962-0.174-7.9,0.15-11.831c0.491-5.941,1.803-11.702,7.304-14.499c5.343,3.134,8.563,8.907,8.57,15.074
	c0.004,3.36-0.445,6.735-0.523,10.1C346.461,267.6,347.05,271.441,346.307,272.203z M271.673,269.971
	c0.045,1.802-0.158,3.738-0.178,5.619c-6.152-0.273-12.374-0.063-18.197,0.228c-3.734,0.187-7.595,0.183-11.472,0.228
	c0.733-5.162-0.754-10.828-0.296-15.971c0.645-7.245,3.698-18.295,12.16-19.575c4.086-0.618,9.108,0.538,12.602,2.817
	c4.89,3.19,4.887,9.69,5.389,14.875C272.068,262.203,271.573,265.996,271.673,269.971z M165.697,272.203
	c-0.742-0.762-0.154-4.603-0.177-5.628c-0.079-3.365-0.528-6.74-0.523-10.1c0.009-6.168,3.229-11.941,8.571-15.074
	c5.5,2.797,6.813,8.559,7.304,14.499c0.324,3.931,0.143,7.869,0.15,11.831c0.004,2.456-0.608,4.681-0.926,7.038
	c-4.701-0.156-9.401-0.376-14.1-0.618C166.297,273.554,166.28,272.802,165.697,272.203z M161.999,263.165
	c0.036,3.314-0.806,7.242,0.083,10.471c0.03,0.109,0.084,0.213,0.135,0.317c-0.983-0.053-1.968-0.1-2.95-0.155
	c-1.797-0.102-3.608-0.167-5.422-0.22c-0.312-10.784,0.275-37.689,16.731-33.301c-3.921,1.701-7.162,7.272-8.034,10.736
	C161.524,255.046,161.954,259.053,161.999,263.165z M94.43,273.217c-3.921,0.016-7.841,0.082-11.757,0.204
	c-0.773-5.028-1.009-10.194-0.548-15.246c0.288-3.152,0.512-6.492,2.525-9.124c0.89-1.164,3.719-4.064,5.65-4.459
	c1.17,0.946,2.192,2.18,2.952,3.727C96.675,255.283,94.141,265.609,94.43,273.217z M79.075,273.558
	c-2.968,0.121-5.933,0.263-8.892,0.459c0.48-4.154,0.136-8.576,0.619-12.709c0.621-5.313,2.075-10.281,5.338-14.569
	c3.036-3.99,7.57-5.136,11.402-3.735c-3.255,1.416-6.306,5.83-7.211,8.327C77.942,257.923,78.013,266.382,79.075,273.558z
	 M497.585,164.44c-2.951,2.565-6.532,6.683-10.248,7.696c-7.459,2.033-15.924,0.386-23.49,0.131
	c-17.939-0.606-36.254-0.1-54.205,0.363c-17.35,0.447-34.725-0.566-52.036-0.502c-8.642,0.032-17.259-0.254-25.9-0.275
	c-8.752-0.022-17.523,0.875-26.295,1.004c-8.391,0.123-16.778,0.028-25.156,0.258c-3.764,0.103-7.558,0.387-11.309,0.716
	c-0.799,0.07-1.695,0.175-2.619,0.269c-6.01-0.668-12.347-0.407-18.403,0.171c-1.684-0.074-3.427-0.313-4.866-0.439
	c-3.75-0.329-7.545-0.613-11.309-0.716c-8.379-0.23-16.764-0.135-25.156-0.258c-8.772-0.129-17.543-1.026-26.295-1.004
	c-8.641,0.021-17.258,0.307-25.9,0.275c-17.311-0.065-34.687,0.948-52.036,0.502c-17.951-0.462-36.267-0.969-54.205-0.363
	c-7.566,0.256-16.032,1.904-23.49-0.131c-3.717-1.013-7.297-5.132-10.248-7.696c-0.32-0.278-0.612-0.562-0.893-0.845
	c2.874,0.125,5.796-0.046,7.994,0.161c17.26,1.635,34.752,0.138,52.044,1.397c8.546,0.623,17.344,0.451,25.927,0.533
	c8.984,0.085,17.93-0.263,26.905-0.261c20.081,0.003,40.11,0.692,60.18,0.574c19.449-0.114,38.768-0.976,58.162-1.668
	c3.36,0.164,6.735,0.258,10.067,0.315c7.438,0.127,16.335,1.833,23.851,0.103c15.578,0.583,31.131,1.159,46.769,1.251
	c20.07,0.118,40.099-0.571,60.18-0.574c8.974-0.001,17.921,0.347,26.905,0.261c8.582-0.082,17.381,0.09,25.927-0.533
	c17.292-1.259,34.784,0.237,52.044-1.397c2.198-0.208,5.12-0.037,7.995-0.161C498.197,163.878,497.905,164.162,497.585,164.44z
	 M504.342,157.917c-1.562,1.469-4.95,1.224-6.95,1.348c-3.487,0.215-7.005,0.409-10.498,0.481
	c-8.463,0.176-17.041-0.259-25.513-0.389c-15.949-0.246-31.939,0.971-47.902,0.82c-16.398-0.156-33.145-1.532-49.515-0.344
	c-16.936,1.229-33.884,1.453-50.879,1.52c-14.113,0.055-28.184-0.659-42.273-0.963c-4.568-0.3-9.236-0.105-13.561-0.11
	c-5.794-0.004-11.999-0.543-17.909,0.15c-13.472,0.323-26.931,0.973-40.427,0.921c-16.995-0.066-33.942-0.291-50.879-1.52
	c-16.37-1.187-33.115,0.188-49.515,0.344c-15.963,0.152-31.952-1.065-47.902-0.82c-8.472,0.131-17.05,0.565-25.513,0.389
	c-3.494-0.072-7.012-0.267-10.498-0.481c-2-0.123-5.389,0.121-6.95-1.348c-0.726-0.682-2.566-5.609-1.821-6.511
	c0.983-1.188,9.436-0.241,11.36-0.239c4.423,0.007,8.816,0.513,13.256,0.483c7.964-0.054,15.901-0.773,23.844-0.804
	c15.8-0.062,31.525,0.88,47.319,0.767c15.818-0.113,31.514-0.253,47.298-0.786c8.342-0.281,16.583-0.128,24.93-0.079
	c9.892,0.058,19.937-0.176,29.777,0.477c17.472,1.157,34.871,2.52,52.38,1.206c17.508,1.314,34.907-0.049,52.378-1.206
	c9.84-0.652,19.885-0.418,29.777-0.477c8.346-0.05,16.586-0.202,24.93,0.079c15.784,0.532,31.48,0.673,47.298,0.786
	c15.794,0.113,31.519-0.828,47.319-0.767c7.943,0.031,15.88,0.749,23.844,0.804c4.44,0.03,8.831-0.477,13.256-0.483
	c1.924-0.002,10.377-0.949,11.36,0.239C506.908,152.308,505.068,157.235,504.342,157.917z"/>
<path d="M426.214,222.84c0.105,2.193-0.405,5.774,0.841,7.669c1.15,1.749,3.253,1.536,5.18,1.59
	c3.77,0.104,7.406,0.511,11.156,0.729c3.665,0.212,7.484,0.344,11.125-0.094c2.022-0.243,4.556,0.171,6.516-0.368
	c4.579-1.259,2.951-9.555,2.857-12.952c1.021-11.505,0.192-24.58-8.457-31.725c-8.699-7.183-21.905-3.652-26.995,5.877
	c-2.729,5.109-1.778,13.238-1.788,18.796C426.643,215.873,426.046,219.338,426.214,222.84z M430.225,219.78
	c0.168-2.765,0.323-5.468,0.319-8.251c-0.009-6.133-0.764-13.411,3.183-18.381c5.082-6.396,14.546-6.673,20.257-0.761
	c8.888,9.201,5.335,22.73,6.28,34.457c-0.225,0.654-0.549,1.177-1.022,1.47c-0.633,0.392-5.468,0.376-6.539,0.475
	c-3.658,0.336-7.855,0.025-11.494-0.48c-2.527-0.351-7.539,0.733-9.704-0.372c-0.292,0.041-0.584,0.083-0.876,0.124
	c-0.003-0.874-0.058-1.744-0.16-2.61C430.309,223.527,430.108,221.71,430.225,219.78z"/>
<path d="M385.273,222.84c0.105,2.193-0.405,5.774,0.841,7.669c1.15,1.749,3.253,1.536,5.18,1.59
	c3.77,0.104,7.406,0.511,11.156,0.729c3.665,0.212,7.484,0.344,11.125-0.094c2.022-0.243,4.556,0.171,6.516-0.368
	c4.579-1.259,2.951-9.555,2.857-12.952c1.021-11.505,0.192-24.58-8.457-31.725c-8.699-7.183-21.905-3.652-26.995,5.877
	c-2.729,5.109-1.778,13.238-1.787,18.796C385.702,215.873,385.106,219.338,385.273,222.84z M389.284,219.78
	c0.168-2.765,0.322-5.468,0.319-8.251c-0.009-6.133-0.764-13.411,3.183-18.381c5.082-6.396,14.546-6.673,20.257-0.761
	c8.888,9.201,5.335,22.73,6.279,34.457c-0.225,0.654-0.549,1.177-1.022,1.47c-0.633,0.392-5.468,0.376-6.539,0.475
	c-3.658,0.336-7.855,0.025-11.494-0.48c-2.527-0.351-7.54,0.733-9.705-0.372c-0.292,0.041-0.584,0.083-0.876,0.124
	c-0.003-0.874-0.057-1.744-0.16-2.61C389.369,223.527,389.167,221.71,389.284,219.78z"/>
<path d="M345.076,222.84c0.105,2.193-0.405,5.774,0.841,7.669c1.15,1.749,3.253,1.536,5.18,1.59
	c3.77,0.104,7.406,0.511,11.156,0.729c3.665,0.212,7.484,0.344,11.125-0.094c2.022-0.243,4.556,0.171,6.516-0.368
	c4.579-1.259,2.951-9.555,2.857-12.952c1.021-11.505,0.192-24.58-8.457-31.725c-8.699-7.183-21.905-3.652-26.995,5.877
	c-2.729,5.109-1.778,13.238-1.788,18.796C345.504,215.873,344.908,219.338,345.076,222.84z M349.087,219.78
	c0.168-2.765,0.323-5.468,0.319-8.251c-0.009-6.133-0.764-13.411,3.182-18.381c5.082-6.396,14.546-6.673,20.257-0.761
	c8.888,9.201,5.335,22.73,6.279,34.457c-0.225,0.654-0.549,1.177-1.022,1.47c-0.633,0.392-5.468,0.376-6.539,0.475
	c-3.658,0.336-7.855,0.025-11.494-0.48c-2.527-0.351-7.539,0.733-9.704-0.372c-0.292,0.041-0.584,0.083-0.876,0.124
	c-0.003-0.874-0.058-1.744-0.16-2.61C349.171,223.527,348.97,221.71,349.087,219.78z"/>
<path d="M304.135,222.84c0.105,2.193-0.405,5.774,0.841,7.669c1.15,1.749,3.253,1.536,5.18,1.59
	c3.77,0.104,7.406,0.511,11.156,0.729c3.665,0.212,7.484,0.344,11.125-0.094c2.022-0.243,4.556,0.171,6.516-0.368
	c4.579-1.259,2.951-9.555,2.856-12.952c1.021-11.505,0.192-24.58-8.457-31.725c-8.699-7.183-21.905-3.652-26.995,5.877
	c-2.729,5.109-1.778,13.238-1.788,18.796C304.564,215.873,303.968,219.338,304.135,222.84z M308.146,219.78
	c0.168-2.765,0.322-5.468,0.319-8.251c-0.009-6.133-0.764-13.411,3.183-18.381c5.082-6.396,14.546-6.673,20.257-0.761
	c8.888,9.201,5.335,22.73,6.28,34.457c-0.225,0.654-0.549,1.177-1.022,1.47c-0.633,0.392-5.468,0.376-6.539,0.475
	c-3.658,0.336-7.855,0.025-11.494-0.48c-2.527-0.351-7.539,0.733-9.704-0.372c-0.292,0.041-0.584,0.083-0.876,0.124
	c-0.003-0.874-0.058-1.744-0.16-2.61C308.231,223.527,308.029,221.71,308.146,219.78z"/>
<path d="M263.194,222.84c0.106,2.193-0.404,5.774,0.842,7.669c1.15,1.749,3.252,1.536,5.18,1.59
	c3.769,0.104,7.404,0.511,11.156,0.729c3.665,0.212,7.484,0.344,11.125-0.094c2.022-0.243,4.556,0.171,6.517-0.368
	c4.579-1.259,2.951-9.555,2.856-12.952c1.021-11.505,0.194-24.58-8.457-31.725c-8.699-7.183-21.906-3.652-26.995,5.877
	c-2.729,5.109-1.778,13.238-1.788,18.796C263.623,215.873,263.027,219.338,263.194,222.84z M267.205,219.78
	c0.168-2.765,0.323-5.468,0.319-8.251c-0.01-6.133-0.764-13.411,3.182-18.381c5.082-6.396,14.546-6.673,20.257-0.761
	c8.888,9.201,5.335,22.73,6.279,34.457c-0.225,0.654-0.549,1.177-1.022,1.47c-0.633,0.392-5.468,0.376-6.539,0.475
	c-3.658,0.336-7.855,0.025-11.494-0.48c-2.526-0.351-7.539,0.733-9.704-0.372c-0.292,0.041-0.583,0.083-0.876,0.124
	c-0.003-0.874-0.058-1.744-0.16-2.61C267.29,223.527,267.088,221.71,267.205,219.78z"/>
<g>
</g>
<g>
</g>
<g>
</g>
<g>
</g>
<g>
</g>
<g>
</g>
<g>
</g>
<g>
</g>
<g>
</g>
<g>
</g>
<g>
</g>
<g>
</g>
<g>
</g>
<g>
</g>
<g>
</g>
</svg>
