<?xml version="1.0" encoding="iso-8859-1"?>
<!-- Generator: Adobe Illustrator 19.0.0, SVG Export Plug-In . SVG Version: 6.00 Build 0)  -->
<svg version="1.1" id="Layer_1" xmlns="http://www.w3.org/2000/svg" xmlns:xlink="http://www.w3.org/1999/xlink" x="0px" y="0px"
	 viewBox="0 0 512.003 512.003" style="enable-background:new 0 0 512.003 512.003;" xml:space="preserve">
<path style="fill:#F4CF92;" d="M506.365,367.233c-0.624,0.451-1.314,0.826-2.001,1.106c-1.252,0.509-2.558,1.068-3.391,2.132
	c-1.063,1.359-1.12,3.225-1.131,4.95c-0.095,14.786,0.009,29.519,0.009,44.359c-0.07,2.791-0.207,5.574-0.414,8.355
	c-0.163,2.193,0.277,4.41-0.926,6.411c-1.056,1.756-2.983,2.958-5.024,3.133c-2.918,0.248-5.966-1.453-8.681-0.354
	c-1.033,0.419-2.119,1.234-3.139,0.785c-0.682-0.299-1.026-1.086-1.093-1.827c-0.069-0.742,0.074-1.487,0.057-2.232
	c-0.05-2.076-1.471-4.051-3.423-4.757c-3.863-1.398-6.201,1.423-8.364,4.015c-0.548,0.656-1.447,1.374-2.149,0.884
	c-0.495-0.345-0.496-1.067-0.407-1.662c0.31-2.088,1.087-4.076,1.563-6.132s0.634-4.295-0.253-6.21
	c-0.379-0.819-0.962-1.571-1.754-2.005c-2.494-1.367-4.047,0.862-4.865,2.841c-0.479,1.16-1.544,2.423-2.739,2.04
	c-1.151-0.368-1.329-1.888-1.368-3.096c-0.201-6.29-2.37-12.504-6.127-17.554c-0.849-1.141-2.1-2.34-3.482-2.001
	c-0.941,0.231-1.587,1.153-1.782,2.103c-0.196,0.949-0.03,1.933,0.136,2.887c0.534,3.072,1.07,6.143,1.606,9.215
	c0.152,0.874,0.246,1.924-0.428,2.5c-0.709,0.608-1.88,0.245-2.457-0.489c-0.579-0.733-0.733-1.702-0.91-2.618
	c-0.93-4.817-3.021-9.406-6.044-13.27c-0.848-1.084-1.794-2.132-3.002-2.794c-1.208-0.662-2.726-0.885-3.965-0.287
	c-2.467,1.189-2.447,4.313-2.505,6.645c-0.051,2.072,0.797,6.306-0.976,7.665c-1.571,1.204-3.81,0.029-5.36-1.202
	c-1.459-1.159-2.96-2.423-4.792-2.757c-1.833-0.334-4.067,0.709-4.269,2.561c-0.246,2.259,2.508,4.267,1.744,6.407
	c-0.36,1.008-1.456,1.618-2.525,1.673c-1.069,0.055-2.11-0.347-3.057-0.846c-1.694-0.893-3.205-2.109-4.914-2.973
	c-1.71-0.864-3.747-1.355-5.54-0.68c-1.792,0.676-3.076,2.846-2.276,4.587c0.344,0.747,0.992,1.304,1.479,1.967
	c0.487,0.663,0.811,1.581,0.405,2.298c-0.507,0.895-1.851,0.911-2.743,0.401c-0.893-0.51-1.517-1.378-2.312-2.03
	c-2.729-2.234-7.479-1.083-8.882,2.153c-0.948,2.188-0.554,4.724-2.269,6.615c-0.719,0.793-1.906,1.266-2.887,0.837
	c-1.458-0.639-1.944-2.936-3.534-3.016c-1.352-0.068-2.077,1.531-2.436,2.836c-0.359,1.304-1.12,2.899-2.468,2.79
	c-1.413-0.114-1.846-1.914-2.573-3.13c-1.318-2.207-4.771-2.717-6.671-0.985c-0.898,0.818-1.415,1.973-2.213,2.889
	c-0.798,0.917-2.132,1.6-3.215,1.046c-0.992-0.509-1.283-1.81-1.164-2.918c0.119-1.109,0.53-2.188,0.485-3.301
	c-0.057-1.393-0.886-2.729-2.109-3.398c-1.223-0.669-2.797-0.645-4,0.059c-1.236,0.724-2.003,2.039-3.124,2.931
	c-1.121,0.892-3.044,1.171-3.796-0.049c-0.546-0.886-0.157-2.023,0.16-3.014c0.714-2.233,0.956-4.801-0.241-6.817
	c-1.196-2.016-4.241-2.984-5.983-1.416c-0.905,0.814-1.259,2.059-1.902,3.093c-0.643,1.032-1.929,1.922-3.021,1.385
	c-2.272-1.118-1.568-5.168-1.614-7.12c-0.044-1.832-0.374-3.775-1.6-5.135c-1.226-1.361-3.587-1.814-4.882-0.519
	c-1.219,1.217-0.977,3.197-1.028,4.918c-0.051,1.721-1.029,3.85-2.742,3.68c-0.905-0.09-1.606-0.831-2.091-1.598
	c-1.168-1.846-1.587-4.05-2.263-6.126c-0.675-2.077-1.752-4.201-3.689-5.212c-1.937-1.01-4.851-0.274-5.393,1.842
	c-0.309,1.205,0.194,2.451,0.395,3.678c0.201,1.229-0.098,2.775-1.272,3.187c-0.831,0.29-1.743-0.131-2.441-0.668
	c-1.867-1.438-2.928-3.666-4.454-5.462c-1.527-1.796-4.036-3.226-6.183-2.251c-2.355,1.069-2.755,4.332-1.996,6.805
	c0.32,1.042,0.786,2.059,0.852,3.147c0.067,1.088-0.398,2.312-1.412,2.712c-1.445,0.57-2.884-0.76-3.879-1.953
	c-0.994-1.193-2.457-2.509-3.89-1.909c-1.366,0.572-1.546,2.429-2.485,3.575c-1.195,1.459-3.522,1.502-5.185,0.612
	c-3.838-2.055-6.267-7.379-8.709-10.826c-0.894-1.262-1.801-2.539-2.983-3.536c-1.182-0.998-2.688-1.703-4.231-1.612
	c-2.071,0.121-3.848,1.662-4.826,3.493c-1.521,2.85-0.958,6.193-2.147,9.009c-0.355,0.839-1.23,1.535-2.126,1.372
	c-0.706-0.129-1.215-0.722-1.773-1.175c-1.775-1.445-4.541-1.501-6.375-0.132c-1.159,0.865-1.906,2.173-2.982,3.139
	c-1.076,0.966-2.803,1.529-3.934,0.63c-1.611-1.281-0.834-4.491-2.72-5.317c-1.457-0.639-2.913,0.856-3.773,2.196
	c-0.859,1.339-2.166,2.906-3.689,2.446c-1.048-0.317-1.59-1.53-1.566-2.625c0.024-1.094,0.468-2.129,0.768-3.182
	c0.417-1.465,0.556-3.05,0.091-4.501c-0.465-1.45-1.608-2.734-3.087-3.095c-1.949-0.476-3.964,0.721-5.222,2.284
	c-1.257,1.563-1.986,3.478-3.023,5.196c-0.826,1.368-2.3,2.762-3.811,2.242c-1.406-0.485-1.799-2.293-1.695-3.776
	c0.103-1.484,0.448-3.085-0.291-4.376c-0.946-1.651-3.392-1.946-5.034-0.987c-1.643,0.959-2.573,2.808-3.029,4.655
	c-0.457,1.846-0.529,3.769-0.946,5.626c-0.387,1.724-2.993,7.371-5.279,4.3c-0.673-0.905-0.324-2.2-0.305-3.238
	c0.033-1.8-0.058-3.614-0.867-5.26c-1.14-2.319-4.158-3.915-6.389-2.612c-2.077,1.213-2.373,4.105-1.983,6.478
	c0.391,2.373,1.22,4.821,0.512,7.12c-0.218,0.707-0.605,1.399-1.237,1.785c-1.328,0.811-3.104-0.075-4.048-1.313
	c-0.945-1.237-1.417-2.785-2.378-4.01c-0.961-1.224-2.773-2.064-4.067-1.201c-1.297,0.865-1.232,2.76-1.019,4.306
	c0.245,1.781,0.489,3.562,0.734,5.342c0.106,0.78,0.198,1.634-0.228,2.295c-0.641,0.992-2.173,1.005-3.169,0.369
	c-0.996-0.635-1.605-1.711-2.243-2.703c-0.64-0.994-1.426-2-2.556-2.344c-1.673-0.508-3.483,0.707-4.236,2.286
	c-0.753,1.578-0.707,3.406-0.613,5.152c0.061,1.123,0.128,2.293-0.309,3.33c-0.438,1.037-1.552,1.883-2.645,1.617
	c-1.837-0.448-1.797-3.059-2.767-4.683c-1.178-1.972-4.421-2.193-5.857-0.403c-0.723,0.903-0.964,2.087-1.429,3.146
	c-0.465,1.059-1.348,2.109-2.505,2.11c-1.206,0.002-2.111-1.144-2.49-2.289c-0.38-1.145-0.44-2.395-0.969-3.48
	c-0.529-1.084-1.801-1.978-2.911-1.505c-1.81,0.771-1.493,4.228-3.446,4.464c-3.139,0.378-3.035-5.999-3.942-7.818
	c-1.423-2.851-5.469-3.992-8.171-2.303c-1.233,0.771-2.158,1.998-3.471,2.625c-1.313,0.626-3.325,0.22-3.549-1.218
	c-0.13-0.833,0.396-1.607,0.837-2.324c1.121-1.824,1.817-4.194,0.795-6.074c-1.312-2.413-4.82-2.724-7.302-1.549
	c-2.482,1.175-4.285,3.381-6.325,5.218c-0.613,0.552-1.382,1.109-2.188,0.934c-1.087-0.236-1.466-1.619-1.341-2.723
	c0.309-2.749,2.329-5.611,0.977-8.024c-1.14-2.034-4.155-2.248-6.195-1.121c-2.04,1.127-3.375,3.166-4.766,5.036
	c-1.39,1.871-3.079,3.748-5.352,4.259c0.702-4.932,1.926-10.204,1.253-15.19c-0.146-1.08-0.411-2.229-1.224-2.957
	c-1.015-0.909-2.585-0.873-3.872-0.424c-3.918,1.366-5.972,5.593-7.339,9.511c-1.366,3.918-2.665,8.23-6.048,10.632
	c0.312-5.23,0.622-10.46,0.934-15.69c0.079-1.332-0.054-3.014-1.301-3.487c-0.926-0.351-1.938,0.218-2.693,0.86
	c-3.096,2.629-4.632,6.683-5.322,10.686s-0.661,8.1-1.271,12.116c-0.101,0.668-0.3,1.437-0.924,1.697
	c-1.045,0.434-1.893-0.936-2.157-2.036c-0.383-1.591-0.665-3.257-1.566-4.624c-0.9-1.366-2.641-2.352-4.18-1.794
	c-1.158,0.419-1.898,1.604-2.132,2.812c-0.233,1.209-0.045,2.454,0.143,3.67c0.303,1.957,0.605,3.914,0.908,5.872
	c0.225,1.457,0.261,3.314-1.052,3.985c-0.937,0.478-2.106,0.028-2.889-0.675c-0.783-0.702-1.332-1.631-2.091-2.36
	c-1.417-1.361-3.644-1.903-5.446-1.12c-3.225,1.4-2.38,4.633-2.316,7.507c0.007,0.308,0.011,0.629-0.114,0.91
	c-0.389,0.878-1.63,0.818-2.584,0.693c-1.84-0.243-3.718-0.182-5.539,0.176c-1.215,0.24-2.41,0.612-3.643,0.726
	c-1.234,0.113-2.554-0.063-3.538-0.816c-1.536-1.174-1.828-3.358-1.758-5.289c0.142-3.86-0.54-7.58-0.617-11.461
	c-0.088-4.493-0.032-8.991-0.336-13.476c-0.408-6.029-0.76-12.079-0.542-18.123c0.173-4.812,0.96-10.474,0.081-15.195
	c-0.571-3.065-2.424-6.079-5.345-7.168c-1.708-0.636-3.844-0.709-4.872-2.212c-0.978-1.43-0.357-3.444,0.738-4.787
	c1.094-1.343,2.596-2.313,3.677-3.667c2.011-2.52,0.701-7.729,0.819-10.84c0.159-4.15,0.295-8.301,0.376-12.453
	c0.206-10.526-0.426-20.891-0.63-31.364c-0.084-4.328,1.348-9.227,5.254-11.094c2.38-1.138,5.149-0.898,7.779-1.109
	c4.88-0.391,10.19-2.316,14.382,0.213c3.679,2.221,5.052,7.231,4.928,11.29c-0.156,5.095,0.119,10.147,0.476,15.302
	c0.098,1.408,0.261,2.961,1.296,3.92c0.918,0.852,2.272,0.992,3.522,1.064c3.569,0.205,7.151,0.198,10.719-0.02
	c1.781-0.109,3.765-0.375,4.881-1.767c0.945-1.179,0.982-2.82,0.975-4.331c-0.028-6.123-0.327-12.014-0.067-18.172
	c0.159-3.762,1.301-7.929,4.57-9.798c1.766-1.01,3.877-1.176,5.908-1.29c3.36-0.186,6.723-0.288,10.088-0.305
	c2.247-0.011,4.796,0.151,6.235,1.876c1.114,1.336,1.213,3.222,1.234,4.962c0.093,7.734-1.304,15.546-1.688,23.318
	c-0.073,1.478-0.123,3.055,0.633,4.328c0.893,1.501,2.718,2.21,4.458,2.362c1.741,0.152,3.488-0.143,5.236-0.126
	c1.699,0.017,3.441,0.324,5.067-0.169c4.241-1.283,4.941-6.152,4.748-9.84c-0.275-5.238,0.441-10.546,0.928-15.83
	c0.195-2.117,0.475-4.421,1.988-5.913c1.221-1.205,2.999-1.62,4.692-1.903c3.263-0.544,6.578-0.786,9.885-0.722
	c2.414,0.048,4.992,0.323,6.854,1.86c3.289,2.716,2.73,7.007,1.891,10.582c-1.101,4.693-1.903,9.837-0.023,14.445
	c1.967,4.821,7.993,8.307,12.55,5.789c3.708-2.049,4.797-6.886,4.696-11.121c-0.1-4.235-0.977-8.599,0.342-12.624
	c1.538-4.696,6.225-8.177,11.166-8.291c3.59-0.083,7.329,1.413,10.67,0.096c6.369-2.51,6.764-11.24,6.942-17.005
	c0.103-3.311,0.569-7.121,0.024-10.375c-0.787-4.711,0.037-8.026,0.706-12.85c0.53-3.817-0.338-8.408-3.79-10.12
	c-1.468-0.727-3.211-0.818-4.608-1.674c-2.489-1.526-2.911-5.532-0.795-7.543c1.074-1.021,2.548-1.484,3.834-2.22
	c3.521-2.017,5.484-6.07,5.989-10.096c0.476-3.797-0.735-7.332-0.646-11.056c0.202-8.408-0.163-16.927-0.2-25.359
	c-0.01-2.302,0.048-4.807,1.497-6.594c1.586-1.955,4.383-2.448,6.894-2.274c2.512,0.174,4.991,0.872,7.505,0.736
	c3.688-0.198,7.22-2.319,9.129-5.48c2.492-4.125,0.775-8.26,0.579-12.622c-0.265-5.889,0.866-11.911,0.614-17.869
	c-0.048-1.117-0.155-2.34-0.938-3.138c-1.091-1.112-2.986-0.856-4.339-0.082c-1.353,0.774-2.447,1.959-3.847,2.642
	c-2.988,1.458-7.049-0.037-8.378-3.085c-0.562-1.29-0.726-2.832-1.759-3.787c-2.38-2.201-6.196,0.819-9.375,0.187
	c-3.483-0.693-4.458-5.686-2.548-8.68c1.909-2.994,5.453-4.429,8.747-5.755c22.614-9.103,43.945-21.384,63.172-36.369
	c2.976-2.32,6.625-4.85,10.202-3.65c1.22,0.409,2.258,1.22,3.269,2.016c4.222,3.325,8.204,6.886,12.288,10.26
	c4.887,4.038,12.419,6.343,18.112,9.12c12.782,6.235,25.562,12.47,38.343,18.705c3.288,1.604,6.959,3.685,7.661,7.275
	c0.778,3.98-3.602,7.979-7.495,6.843c-1.615-0.471-3.155-1.637-4.799-1.286c-3.758,0.802-2.694,7.691-6.302,9.017
	c-3.508,1.29-6.672-4.312-10.269-3.295c-2.574,0.729-3.04,4.122-3.006,6.796c0.061,4.696-0.023,9.389,0.185,14.082
	c0.176,3.969,0.094,8.352,0.588,12.229c0.228,1.791,1.117,3.594,2.694,4.47c1.409,0.782,3.116,0.72,4.725,0.636
	c3.234-0.166,6.468-0.334,9.702-0.5c1.783-0.092,3.813-0.09,5.032,1.215c1.042,1.115,1.11,2.799,1.12,4.326
	c0.04,6.521-0.44,13.128,1.038,19.464c1.071,4.593,1.752,10.041,1.125,14.717c-0.584,4.358-2.36,8.973,0.894,12.82
	c1.412,1.67,3.487,2.614,5.162,4.02c1.674,1.407,2.991,3.738,2.092,5.732c-1.142,2.537-4.745,2.584-6.955,4.273
	c-2.596,1.986-2.778,5.809-2.316,9.046c0.886,6.223,1.99,12.541,2.39,18.816c0.32,5.041-1.016,9.698-0.999,14.586
	c0.008,2.052,0.69,4.198,2.262,5.518c3.419,2.87,8.567,0.557,13.015,0.923c5.448,0.448,9.758,5.214,11.409,10.424
	c1.952,6.162-0.777,15.577,4.066,20.444c2.07,2.081,4.982,3.168,7.897,3.504c1.467,0.169,3.029,0.144,4.318-0.576
	c1.463-0.816,2.347-2.423,2.685-4.064c0.621-3.027,1.127-7.066,0.778-10.14c-0.376-3.309-1.88-5.673-0.713-9.181
	c0.967-2.908,3.203-5.369,6.007-6.609c3.246-1.435,6.96-1.227,10.483-0.795c2.055,0.253,4.183,0.604,5.878,1.792
	c1.945,1.364,3.053,3.677,3.464,6.016c0.563,3.211,0.502,6.589,0.756,9.833c0.293,3.736-1.528,8.52,0.84,11.816
	c1.805,2.512,5.253,3.056,8.327,3.391c2.006,0.22,4.083,0.432,6.004-0.189c4.187-1.353,3.821-6.581,3.771-10.113
	c-0.082-5.81-0.113-11.645-0.06-17.487c0.014-1.608,0.047-3.287,0.798-4.708c1.236-2.337,4.104-3.345,6.747-3.419
	c2.643-0.073,5.261,0.572,7.905,0.582c2.596,0.01,5.37-0.558,7.664,0.656c2.955,1.565,3.813,5.421,3.647,8.762
	c-0.179,3.579,0.164,6.707,0.617,10.221c0.623,4.835-2.755,11.27,2.826,13.999c2.146,1.049,4.621,1.123,7.008,1.171
	c3.158,0.063,6.621,1.618,9.391-0.41c3.232-2.366,1.825-5.227,1.443-8.393c-0.58-4.799,0.357-10.255,0.537-15.091
	c0.083-2.249,0.316-4.801,2.098-6.175c1.097-0.845,2.547-1.036,3.924-1.181c3.586-0.378,7.183-0.645,10.786-0.802
	c4.662-0.202,9.873-0.011,13.181,3.281c2.076,2.066,3.014,5.06,3.152,7.984c0.196,4.147-1.218,8.051-1.206,12.16
	c0.012,4.599,0.049,9.199,0.037,13.798c-0.024,9.199-0.124,18.398-0.159,27.597c-0.004,1.277,0.124,2.697,0.744,3.842
	c0.745,1.377,2.489,1.68,3.169,2.743C509.618,363.652,508.318,365.818,506.365,367.233z"/>
<g>
	<path style="fill:#D1A15D;" d="M105.125,356.093c-6.934-0.383-13.866-0.862-20.87-1.28c-9.416-0.562-18.879,1.223-28.383,0.786
		c-9.172-0.421-18.032-0.908-27.268-0.462c-6.441,0.31-16.327-0.475-21.995,1.935c-11.101,4.719,2.078,11.206,7.552,11.787
		c9.723,1.03,19.735,0.387,29.5,0.953c5.916,0.343,11.932-0.497,17.811-0.927c8.843-0.646,18.078-1.723,26.878-1.956
		c12.076-0.319,24.212,0.68,36.275,0.123c12.448-0.574,25.479-0.397,37.788,0.356c5.627,0.344,15.187,3.293,17.401-3.565
		c3.378-10.455-6.282-9.78-13.261-9.617c-9.168,0.213-18.17,1.837-27.303,2.285C127.672,357.079,116.398,356.714,105.125,356.093z"
		/>
	<path style="fill:#D1A15D;" d="M205.935,323.978c-5.409,0-11.115,0.542-16.496,0c-3.391-0.342-7.129-2.444-10.54-1.375
		c-7.018,2.199-6.383,12.605-0.356,15.935c4.302,2.378,11.875,1.018,16.609,1.018c7.183,0,14.29,0.477,21.423,0.458
		c12.435-0.032,24.708,1.443,37.139,0.946c15.879-0.634,31.784-0.811,47.67-1.506c8.317-0.365,16.65-0.396,24.969-0.816
		c6.289-0.318,12.093-2.017,12.426-9.431c0.377-8.386-7.144-6.133-13.25-6.146c-20.755-0.048-41.433,2.028-62.169,2.598
		C244.16,326.189,225.078,323.978,205.935,323.978z"/>
	<path style="fill:#D1A15D;" d="M333.475,354.912c0.857-0.585,1.897-1.015,3.094-1.241c4.758-0.901,9.841,0.491,14.574,0.951
		c21.427,2.084,43.448,0.514,64.835,1.226c23.075,0.768,46.226-1.157,69.346-0.254c6.337,0.247,16.886-1.06,21.786,3.553
		c6.677,6.287-6.918,9.156-11.58,9.849c-13.971,2.076-29.86,0.09-43.989-0.594c-18.487-0.896-36.909,0.405-55.345-0.436
		c-17.821-0.813-35.581-0.074-53.288-0.457c-3.09-0.067-8.373,0.404-10.401-2.394C329.655,361.179,330.375,357.029,333.475,354.912z
		"/>
	<path style="fill:#D1A15D;" d="M193.563,225.003c-4.726-1.678-13.1-2.014-17.399,1.031c-6.461,4.577-5.609,9.631,1.833,10.859
		c24.687,4.069,49.823-0.315,74.794-0.435c24.671-0.119,49.031,0.568,73.383,2.767c5.049,0.456,14.536-0.809,14.018-7.807
		c-0.543-7.338-14.403-7.048-19.568-6.975c-19.872,0.278-39.418,0.941-59.21,0.091C239.002,223.571,216.413,224.181,193.563,225.003
		z"/>
</g>
<g>
	<path style="fill:#8C6E49;" d="M232.971,87.536c-5.124,1.617-10.311,7.407-15.142,10.327c-4.953,2.993-10.122,5.521-15.201,8.333
		c-5.031,2.784-10.286,5.365-15.476,7.801c-3.096,1.453-7.679,2.556-9.87,5.37c-2.366,3.038-3.304,9.34,0.703,10.324
		c3.23,0.794,6.838-3.691,9.748-2.414c4.186,1.837,1.561,8.512,6.978,9.708c6.763,1.493,15.299-7.068,20.491-10.268
		c6.531-4.023,13.774-6.725,19.961-11.398c5.688-4.297,11.177-10.962,18.204-12.705c10.978-2.723,18.054,8.561,26.114,14.948
		c8.987,7.121,18.798,13.403,29.532,17.043c5.371,1.822,8.311,3.695,12.628-1.006c2.211-2.406,2.227-3.982,5.256-4.72
		c3.257-0.794,5.287,1.443,8.264-1.902c6.816-7.658-7.379-10.389-12.037-13.314c-11.482-7.21-24.04-12.941-35.647-20.175
		c-7.754-4.832-16.011-9.106-23.246-14.659c-1.815-1.394-4.293-4.75-6.557-5.33c-3.476-0.892-4.297,1.733-7.267,3.991
		C245.221,81.429,239.531,85.142,232.971,87.536z"/>
	<path style="fill:#8C6E49;" d="M223.348,157.186c-3.777-5.736-1.504-24.106,8.707-23.826c6.483,0.179,7.581,5.779,8.35,10.993
		c0.441,2.996,2.019,11.4-1.46,13.537C237.343,158.873,227.197,157.721,223.348,157.186z"/>
	<path style="fill:#8C6E49;" d="M275.127,136.108c-2.914,4.354-2.956,8.49-2.749,13.746c0.237,6.018,0.706,8.717,7.329,8.704
		c5.583-0.01,8.582-0.072,9.166-5.957c0.464-4.665-0.079-10.892-2.177-14.775C283.273,131.491,277.843,134.407,275.127,136.108z"/>
	<path style="fill:#8C6E49;" d="M194.938,199.342c-3.889,5.098-7.109,14.714,1.375,15.579c4.687,0.478,8.132,0.686,8.707-4.353
		c0.323-2.832-0.342-7.755-1.79-10.125c-3.307-5.41-6.094-2.917-9.666,0.731"/>
	<path style="fill:#8C6E49;" d="M253.59,198.884c-1.832,2.631-3.084,9.473-1.833,12.371c1.151,2.667,7.137,5.069,10.205,2.873
		c6.99-5.002-0.191-18.429-8.372-15.703"/>
	<path style="fill:#8C6E49;" d="M311.784,198.426c-3.668,0.905-3.864,5.362-4.163,8.476c-0.429,4.489,0.109,6.518,4.621,7.561
		c9.084,2.101,10.749-6.085,7.217-13.185c-2.413-4.851-5.111-2.768-9.05-3.311"/>
	<path style="fill:#8C6E49;" d="M203.209,262.639c-7.991,3.332-8.537,12.796-9.646,20.127c-0.772,5.106-2.29,18.727,1.72,22.438
		c2.87,2.657,16.861,2.402,19.703-0.125c5.48-4.871,2.515-20.823,2.863-27.493c0.444-8.509-3.867-19.103-14.302-15.083
		C203.433,262.547,203.32,262.592,203.209,262.639z"/>
	<path style="fill:#8C6E49;" d="M236.637,262.119c-6.444,3.037-8.539,12.312-9.175,18.767c-0.553,5.615-2.765,20.799,2.416,24.66
		c2.732,2.036,15.703,1.033,18.232-1.5c5.028-5.039,3.175-19.739,3.19-26.459C251.324,266.726,248.625,259.554,236.637,262.119z"/>
	<path style="fill:#8C6E49;" d="M269.628,261.202c-8.808-0.393-8.76,12.524-8.707,18.528c0.049,5.457-1.326,18.839,2.625,22.826
		c3.575,3.605,13.71,5.479,18.423,3.752c6.633-2.431,2.934-10.706,3.064-16.271C285.3,278.573,285.315,261.034,269.628,261.202z"/>
	<path style="fill:#8C6E49;" d="M301.245,261.661c-7.699,2.854-5.998,15.196-6.313,21.535c-0.231,4.645-1.276,17.234,2.739,20.506
		c3.091,2.519,16.932,4.575,19.979,1.375c4.702-4.939,1.439-21.136,0.56-27.287c-0.617-4.315-1.855-8.892-4.48-12.463
		C310.067,260.343,307.144,262.154,301.245,261.661z"/>
	<path style="fill:#8C6E49;" d="M348.441,327.644c-4.974,3.152-5.879,14.811-0.814,16.852c9.654,3.891,13.027-4.023,9.482-12.002
		C355.512,328.9,351.511,325.63,348.441,327.644z"/>
	<path style="fill:#8C6E49;" d="M393.806,327.644c-4.287,1.67-4.679,7.51-4.582,11.455c0.124,5.041,4.873,7.345,10.105,5.522
		C406.465,342.134,403.316,324.539,393.806,327.644"/>
	<path style="fill:#8C6E49;" d="M441.003,327.186c4.033,2.656,12.918,14.761,2.851,17.056c-5.169,1.179-7.807,0.059-8.35-5.142
		c-0.405-3.881,0.426-10.095,4.124-10.998C440.302,326.631,439.207,327.421,441.003,327.186z"/>
	<path style="fill:#8C6E49;" d="M484.534,327.186c-3.549,1.909-4.337,8.3-4.123,11.912c0.282,4.733,4.401,7.076,9.396,5.962
		C499.062,342.998,491.276,325.409,484.534,327.186z"/>
	<path style="fill:#8C6E49;" d="M160.771,328.092c-4.073,0.918-6.252,6.092-6.084,9.727c0.203,4.4,2.887,7.179,7.448,6.818
		c4.209-0.333,7.16-1.395,6.701-6.683C168.46,333.625,165.778,326.979,160.771,328.092z"/>
	<path style="fill:#8C6E49;" d="M116.124,328.103c8.48,1.71,10.525,16.148,0.687,16.954c-6.204,0.508-7.958-1.731-7.559-7.789
		c0.232-3.516,1.889-9.597,6.414-9.625C117.262,326.384,114.222,327.719,116.124,328.103z"/>
	<path style="fill:#8C6E49;" d="M69.837,328.046c-6.226,0.91-8.057,14.059-1.987,16.929c10.854,5.131,13.611-13.853,4.316-16.719
		C71.335,328,70.557,327.941,69.837,328.046z"/>
	<path style="fill:#8C6E49;" d="M24.022,327.644c-6.051,3.403-7.801,14.737-0.687,16.725c9.006,2.517,12.11-5.509,8.133-13.172
		C29.071,326.579,25.707,326.676,24.022,327.644z"/>
</g>
<g>
	<path style="fill:#D8B177;" d="M14.274,426.024c2.055-6.845,1.855-14.075,4.805-21.067c1.479-3.507,6.846-17.271,12.574-15.281
		c4.632,1.61,4.048,9.474,10.766,4.338c3.983-3.045,5.678-8.755,9.964-11.398c4.37-2.694,4.555-0.08,6.77,3.124
		c5.684,8.22,10.911-3.648,17.41-5.283c8.139-2.048,2.285,10.778,9.023,9.129c3.455-0.846,6.753-7.61,10.648-9.147
		c4.379-1.728,6.348-0.174,7.042,4.236c0.38,2.416-1.459,8.894,2.055,9.634c1.293,0.272,3.182-1.875,4.257-2.545
		c2.798-1.743,5.593-3.01,8.917-3.371c13.609-1.476,3.507,14.932,10.768,16.982c4.476,1.264,7.938-7.923,12.88-5.722
		c4,1.781,2.386,8.387,8.038,9.699c5.819,1.352,13.57-4.94,17.245-8.643c4.211-4.245,6.553-9.952,9.208-15.197
		c3.957-7.82,6.502-3.425,6.996,3.158c0.249,3.333,1.83,31.471-3.049,31.477c-2.213,0.003-3.749-5.921-7.196-5.179
		c-3.297,0.709-2.487,6.387-2.753,8.842c-0.553,5.094-2.167,3.161-5.931,1.119c-5.021-2.724-6.108-0.55-7.403,4.869
		c-0.348,1.456-0.294,5.32-2.883,4.682c-1.059-0.261-2.056-4.158-3.392-4.855c-3.914-2.04-6.692,3.014-10.068,4.395
		c-1.379-1.907-0.731-5.978-4.058-6.181c-1.883-0.114-2.966,2.785-4.351,2.864c-2.863,0.163-1.609-1.782-2.54-3.922
		c-1.23-2.824-3.977-6.369-7.44-6.67c-3.544-0.308-7.113,2.424-10.662,2.282c-0.511-4.114,4.801-8.238-1.885-8.958
		c-3.344-0.36-11.665,6.356-12.788,2.672c-1.096-3.595,5.126-7.511-2-8.197c-6.037-0.581-9.274,5.63-14.098,7.755
		c-0.933-2.487,6.652-20.601-1.461-18.299c-1.517,0.43-5.824,5.098-7.021,6.486c-3.274,3.793-3.748,11.94-7.319,14.416
		c-0.271-3.719,4.276-20.775-2.824-17.36c-8.062,3.879-5.83,15.913-7.962,22.763c-1.189-4.089-7.587-9.515-10.365-3.575
		c-0.717,1.535-0.756,4.137-0.712,5.838c0.03,1.142,1.244,4.505,1.042,5.212c-0.628,2.194-1.433,1.217-3.613,0.427
		c-1.71-0.62-4.71-2.771-6.65-1.995c-4.093,1.639-0.157,6.607-3.222,8.305c-1.454,0.805-4.176-0.489-5.746-0.432
		c-3.192,0.114-6.427,2.14-9.567,1.642c-3.436-0.546-3.02-1.079-3.219-4.218C12.319,431.991,12.517,425.548,14.274,426.024z"/>
	<path style="fill:#D8B177;" d="M498.47,426.024c-2.055-6.845-1.855-14.075-4.805-21.067c-1.479-3.507-6.846-17.271-12.574-15.281
		c-4.632,1.61-4.048,9.474-10.766,4.338c-3.983-3.045-5.678-8.755-9.964-11.398c-4.37-2.694-4.555-0.08-6.77,3.124
		c-5.684,8.22-10.911-3.648-17.41-5.283c-8.139-2.048-2.285,10.778-9.023,9.129c-3.455-0.846-6.753-7.61-10.648-9.147
		c-4.379-1.728-6.347-0.174-7.042,4.236c-0.38,2.416,1.459,8.894-2.055,9.634c-1.293,0.272-3.182-1.875-4.257-2.545
		c-2.798-1.743-5.593-3.01-8.917-3.371c-13.609-1.476-3.507,14.932-10.768,16.982c-4.476,1.264-7.938-7.923-12.88-5.722
		c-4,1.781-2.386,8.387-8.038,9.699c-5.819,1.352-13.57-4.94-17.245-8.643c-4.21-4.245-6.553-9.952-9.207-15.197
		c-3.957-7.82-6.502-3.425-6.996,3.158c-0.249,3.333-1.83,31.471,3.049,31.477c2.213,0.003,3.749-5.921,7.196-5.179
		c3.297,0.709,2.487,6.387,2.753,8.842c0.553,5.094,2.167,3.161,5.931,1.119c5.021-2.724,6.108-0.55,7.403,4.869
		c0.348,1.456,0.294,5.32,2.883,4.682c1.059-0.261,2.057-4.158,3.392-4.855c3.914-2.04,6.692,3.014,10.067,4.395
		c1.379-1.907,0.731-5.978,4.058-6.181c1.883-0.114,2.966,2.785,4.35,2.864c2.863,0.163,1.609-1.782,2.54-3.922
		c1.23-2.824,3.977-6.369,7.44-6.67c3.544-0.308,7.113,2.424,10.66,2.282c0.512-4.114-4.801-8.238,1.885-8.958
		c3.344-0.36,11.665,6.356,12.788,2.672c1.096-3.595-5.125-7.511,2-8.197c6.037-0.581,9.274,5.63,14.098,7.755
		c0.933-2.487-6.652-20.601,1.461-18.299c1.517,0.43,5.824,5.098,7.021,6.486c3.274,3.793,3.748,11.94,7.319,14.416
		c0.271-3.719-4.276-20.775,2.824-17.36c8.062,3.879,5.83,15.913,7.96,22.763c1.189-4.089,7.587-9.515,10.365-3.575
		c0.717,1.535,0.756,4.137,0.712,5.838c-0.03,1.142-1.244,4.505-1.042,5.212c0.628,2.194,1.433,1.217,3.613,0.427
		c1.71-0.62,4.71-2.771,6.649-1.995c4.092,1.639,0.157,6.607,3.222,8.305c1.454,0.805,4.176-0.489,5.746-0.432
		c3.192,0.114,6.427,2.14,9.567,1.642c3.436-0.546,3.02-1.079,3.219-4.218C500.424,431.991,500.226,425.548,498.47,426.024z"/>
	<path style="fill:#D8B177;" d="M329.925,338.056c1.699,11.58-48.624,9.24-55.062,9.24c-11.645,0-24.014-1.018-34.225,5.631
		c-7.264,4.73-10.915,11.689-9.325,20.334c1.288,7.001,5.806,12.351,10.817,17.094c2.538,2.403,6.495,4.44,8.316,7.457
		c1.86,3.079,0.469,4.271-0.441,7.208c-0.56,1.807,0.231,7.378-1.478,8.4c-0.949,0.568-6.202-1.549-7.948-1.17
		c-3.197,0.693-5.247,5.165-8.547,4.479c0.221-6.055-4.667-5.21-8.666-1.924c-0.884-3.91,2.472-8.739-1.372-11.693
		c-5.205-4.002-9.302,2.446-12.567,5.37c-6.418,5.749-1.158-5.634-6.098-6.124c-5.242-0.52-6.52,11.348-10.543,12.908
		c-2.453-4.568,0.697-6.733-4.725-8.009c-4.702-1.107-5.439-1.369-5.698-7.017c-0.368-8.01,0.767-16.487-0.639-24.443
		c-1.214-6.868-1.582-13.46-1.885-20.488c-0.139-3.203-2.687-13.641,0.76-16.113c0.874-0.626,3.117-0.159,4.041-0.119
		c4.049,0.171,8.217-0.139,12.222,0.289c4.583,0.489,8.989,1.519,13.627,1.654c5.616,0.164,11.026-0.92,16.606-1.132
		c9.384-0.358,19.074-0.671,28.442-0.167c13.166,0.709,26.427,0.222,39.635,0.843C307.965,341.163,321.754,341.499,329.925,338.056z
		"/>
	<path style="fill:#D8B177;" d="M211.571,127.614c-8.2,6.223-5.022,9.241-3.644,18.277c0.534,3.503-0.059,7.179-0.364,10.676
		c-0.36,4.137-2.397,11.57,1.495,14.623c2.953,2.316,4.509,0.57,5.181,5.173c0.694,4.758-0.558,9.784,0.169,14.546
		c1.061,6.96,7.294,9.739,14.108,8.54c8.329-1.466,5.696-12.207,5.68-18.802c-0.023-9.094,1.634-12.327,11.328-11.89
		c2.871,0.13,14.592,0.863,8.261-4.975c-4.315-3.977-13.125,0.607-17.925,1.365c-4.799,0.758-11.933,1.556-16.3-1.565
		c-5.087-3.636-4.461-11.908-3.936-17.357c0.467-4.849,2.525-10.035,6.429-13.143c3.416-2.72,8.458-3.402,12.369-5.627
		c8.008-4.557,16.738-11.6,26.416-8.378c9.566,3.185,19.7,7.057,27.973,12.918c4.605,3.262,9.738,7.236,14.87,9.381
		c2.597-3.342,1.173-9.59-1.81-11.949c-8.373-6.62-19.15-9.633-27.447-16.507c-4.904-4.064-11.703-12.328-18.411-11.148
		c-3.431,0.603-6.941,3.35-9.992,5.001c-6.567,3.555-12.689,7.854-19.136,11.577C221.569,121.418,216.455,123.908,211.571,127.614z"
		/>
	<path style="fill:#D8B177;" d="M297.768,173.207c-4.858-1.334-9.059,0.559-9.618,5.814c-0.375,3.524-2.92,14.356-0.165,17.06
		c2.987,2.932,8.215,1.753,9.505-1.5C299.974,188.31,296.711,180.154,297.768,173.207z"/>
	<path style="fill:#D8B177;" d="M180.601,238.629c-0.259,1.304-0.97,4.186-0.655,5.471c0.824,3.368,2.186,2.624,5.891,2.66
		c15.125,0.15,30.215,0.365,45.375,0.821c21.305,0.64,42.59-0.002,63.899,0.638c10.494,0.315,20.978,0.776,31.403,0.381
		c3.983-0.151,7.154-0.627,6.746-5.546c-0.436-5.256-6.363-5.022-10.522-5.433c-15.332-1.516-30.944-2.872-46.376-2.336
		c-12.217,0.424-24.384,1.66-36.617,1.876c-14.102,0.248-28.231-0.378-42.351-0.378C191.614,236.78,186.633,236.781,180.601,238.629
		z"/>
	<path style="fill:#D8B177;" d="M338.426,369.103c-2.184,0.775-4.728-0.793-6.296,0.91c-1.927,2.094-0.283,3.532,1.662,4.246
		c4.628,1.698,12.934-0.715,17.807-0.72c7.527-0.008,15.076,0.758,22.586,1.139c14.301,0.723,28.686-0.205,43.001,0.421
		c13.709,0.6,27.412,1.266,41.126,0.333c11.613-0.791,23.098-0.238,34.639,0.328c4.36,0.214,8.25,0.428,6.24-3.987
		c-2.538-5.576-15.098-2.423-20.707-2.311c-11.645,0.233-23.463,0.328-35.083,0.014c-18.702-0.505-37.465-0.944-56.196-1.121
		C372.134,368.213,357.444,365.448,338.426,369.103z"/>
	<path style="fill:#D8B177;" d="M28.689,367.995c-3.25,0.589-6.724,0.43-9.898,0.822c-2.81,0.346-5.064,1.713-7.789,2.569
		c-1.592,7.71,16.198,3.911,20.009,3.712c13.491-0.703,27.01,0.288,40.535,0.288c18.997,0,38.088-1.577,57.035-0.771
		c11.817,0.502,23.867-0.175,35.614-0.726c3.544-0.166,9.324,0.79,12.528-0.563c2.727-1.152,2.794-3.096,3.091-6.004
		c-3.5-1.49-8.34,0.314-12.089,0.221c-7.059-0.175-14.034-0.108-21.147-0.758c-9.843-0.901-19.571-0.238-29.425-0.268
		c-9.416-0.029-18.878,1.344-28.266,1.147c-6.86-0.144-13.667-0.674-20.551-0.129C53.696,368.694,38.919,370.165,28.689,367.995z"/>
</g>
<path d="M192.27,216.235c1.921,0.525,4.146,0.177,6.083,0.068c1.95-0.11,5.053-0.044,6.658-1.209
	c2.5-1.815,1.496-8.302,0.858-10.707c-0.917-3.461-1.876-8.667-6.294-8.732c-2.732-0.041-5.063,1.417-6.636,3.484
	c-1.777,2.163-2.901,5.006-3.33,7.655C189.178,209.461,188.992,215.339,192.27,216.235z M198.011,198.928
	c3.726-1.415,4.935,4.923,5.077,7.743c0.057,1.122,0.119,2.551-0.089,3.631c-0.262,1.363,0.159,1.078-1.049,1.705
	c-1.376,0.714-3.424,0.343-4.879,0.427c-0.9,0.052-2.142,0.35-3.046,0.172c-0.153-0.054-0.266-0.084-0.349-0.096
	c-0.126-0.498-0.247-0.998-0.329-1.506c-0.096-0.609-0.189-1.287-0.259-1.973C193.185,204.822,193.897,200.489,198.011,198.928z"/>
<path d="M110.163,346.596c1.921,0.524,4.146,0.177,6.083,0.069c1.95-0.11,5.053-0.044,6.658-1.21
	c2.5-1.816,1.496-8.302,0.858-10.707c-0.917-3.461-1.876-8.667-6.294-8.732c-2.732-0.041-5.063,1.417-6.636,3.484
	c-1.777,2.162-2.901,5.006-3.33,7.655C107.07,339.822,106.884,345.701,110.163,346.596z M115.903,329.289
	c3.726-1.415,4.935,4.923,5.077,7.743c0.057,1.121,0.119,2.551-0.089,3.631c-0.262,1.363,0.159,1.078-1.049,1.704
	c-1.376,0.714-3.424,0.343-4.879,0.427c-0.9,0.052-2.142,0.35-3.046,0.172c-0.153-0.054-0.266-0.084-0.349-0.096
	c-0.126-0.498-0.247-0.998-0.329-1.506c-0.096-0.609-0.188-1.287-0.259-1.973C111.077,335.184,111.789,330.852,115.903,329.289z"/>
<path d="M64.898,346.596c1.921,0.524,4.146,0.177,6.083,0.069c1.95-0.11,5.053-0.044,6.658-1.21c2.5-1.816,1.496-8.302,0.858-10.707
	c-0.917-3.461-1.876-8.667-6.294-8.732c-2.732-0.041-5.063,1.417-6.636,3.484c-1.777,2.162-2.901,5.006-3.33,7.655
	C61.806,339.822,61.619,345.701,64.898,346.596z M70.64,329.289c3.726-1.415,4.935,4.923,5.077,7.743
	c0.057,1.121,0.119,2.551-0.089,3.631c-0.262,1.363,0.159,1.078-1.049,1.704c-1.376,0.714-3.424,0.343-4.879,0.427
	c-0.9,0.052-2.142,0.35-3.046,0.172c-0.153-0.054-0.266-0.084-0.35-0.096c-0.126-0.498-0.247-0.998-0.329-1.506
	c-0.096-0.609-0.189-1.287-0.259-1.973C65.814,335.184,66.526,330.852,70.64,329.289z"/>
<path d="M19.635,346.596c1.921,0.524,4.146,0.177,6.083,0.069c1.95-0.11,5.053-0.044,6.658-1.21c2.5-1.816,1.496-8.302,0.858-10.707
	c-0.917-3.461-1.876-8.667-6.294-8.732c-2.732-0.041-5.063,1.417-6.636,3.484c-1.777,2.162-2.901,5.006-3.33,7.655
	C16.543,339.822,16.356,345.701,19.635,346.596z M25.376,329.289c3.726-1.415,4.935,4.923,5.077,7.743
	c0.057,1.121,0.119,2.551-0.089,3.631c-0.262,1.363,0.159,1.078-1.049,1.704c-1.376,0.714-3.424,0.343-4.879,0.427
	c-0.9,0.052-2.142,0.35-3.046,0.172c-0.153-0.054-0.266-0.084-0.35-0.096c-0.126-0.498-0.247-0.998-0.329-1.506
	c-0.096-0.609-0.189-1.287-0.259-1.973C20.55,335.184,21.262,330.852,25.376,329.289z"/>
<path d="M155.426,346.596c1.921,0.524,4.146,0.177,6.083,0.069c1.95-0.11,5.053-0.044,6.658-1.21
	c2.5-1.816,1.496-8.302,0.858-10.707c-0.917-3.461-1.876-8.667-6.294-8.732c-2.732-0.041-5.063,1.417-6.636,3.484
	c-1.777,2.162-2.901,5.006-3.33,7.655C152.333,339.822,152.147,345.701,155.426,346.596z M161.166,329.289
	c3.726-1.415,4.935,4.923,5.077,7.743c0.057,1.121,0.119,2.551-0.089,3.631c-0.262,1.363,0.159,1.078-1.049,1.704
	c-1.376,0.714-3.424,0.343-4.879,0.427c-0.9,0.052-2.142,0.35-3.046,0.172c-0.153-0.054-0.266-0.084-0.349-0.096
	c-0.126-0.498-0.247-0.998-0.329-1.506c-0.096-0.609-0.189-1.287-0.259-1.973C156.34,335.184,157.052,330.852,161.166,329.289z"/>
<path d="M232.846,131.389c-4.241-0.469-7.178,2.42-8.975,5.815c-3.598,4.767-3.949,12.733-3.107,18.321
	c0.282,1.872,0.367,3.29,2.067,4.244c1.904,1.068,6.746,0.674,8.811,0.706c2.571,0.04,7.189,0.64,8.81-1.707
	c1.351-1.956,1.422-5.954,1.6-8.237c0.212-2.693,0.258-5.869-0.245-8.523C240.877,137.098,238.336,131.997,232.846,131.389z
	 M237.014,155.795c-3.847,0.069-8.234,0.743-11.942,0.004c-0.029-0.096-0.05-0.197-0.078-0.295c0.251-2.66,0.536-5.263,0.57-8.001
	c0.057-4.507,0.652-11.453,6.289-11.613c5.096-0.144,6.05,5.777,6.151,9.928C238.067,148.416,238.129,152.994,237.014,155.795z"/>
<path d="M191.07,298.222c-0.041,2.807-0.607,6.3,0.646,8.874c0.451,0.926,1.507,1.356,2.468,1.416
	c6.359,0.394,13.923,0.208,20.178-1.222c4.342-0.992,4.676-4.312,5.093-8.286c0.7-6.658,0.497-13.455,0.85-20.156
	c0.295-5.587-0.108-12.096-4.046-16.348c-8.183-8.832-20.398-0.814-22.97,8.948c-1.398,5.308-2.346,11.315-2.421,16.821
	c-0.039,2.853-0.007,5.887,0.236,8.901C191.091,297.521,191.074,297.871,191.07,298.222z M195.32,294.325
	c0.004-4.487-0.027-8.556,0.573-13.038c0.561-4.201,1.128-9.191,3.633-12.785c3.756-5.387,12.043-6.995,14.701,0.248
	c1.537,4.188,0.801,8.997,0.529,13.318c-0.325,5.159,0.204,10.407-0.326,15.549c-0.109,1.052-0.087,3.871-0.72,4.88
	c0.008-0.417-2.442-0.222-2.86-0.19c-1.195,0.092-2.387,0.22-3.582,0.312c-3.699,0.284-7.418,0.389-11.12,0.254
	c-0.724-2.463-0.684-5.697-0.845-8.013C195.308,294.683,195.319,294.499,195.32,294.325z"/>
<path d="M224.659,298.222c-0.041,2.807-0.607,6.3,0.645,8.874c0.451,0.926,1.507,1.356,2.468,1.416
	c6.359,0.394,13.923,0.208,20.178-1.222c4.342-0.992,4.676-4.312,5.093-8.286c0.7-6.658,0.497-13.455,0.85-20.156
	c0.295-5.587-0.108-12.096-4.046-16.348c-8.183-8.832-20.398-0.814-22.97,8.948c-1.398,5.308-2.346,11.315-2.421,16.821
	c-0.039,2.853-0.007,5.887,0.236,8.901C224.68,297.521,224.663,297.871,224.659,298.222z M228.909,294.325
	c0.004-4.487-0.027-8.556,0.573-13.038c0.561-4.201,1.128-9.191,3.633-12.785c3.756-5.387,12.043-6.995,14.701,0.248
	c1.537,4.188,0.801,8.997,0.529,13.318c-0.325,5.159,0.204,10.407-0.326,15.549c-0.109,1.052-0.086,3.871-0.72,4.88
	c0.008-0.417-2.442-0.222-2.86-0.19c-1.195,0.092-2.387,0.22-3.582,0.312c-3.699,0.284-7.418,0.389-11.12,0.254
	c-0.724-2.463-0.684-5.697-0.845-8.013C228.898,294.683,228.909,294.499,228.909,294.325z"/>
<path d="M258.961,299.003c0.417,3.973,0.751,7.293,5.093,8.286c6.255,1.43,13.818,1.616,20.178,1.222
	c0.961-0.06,2.017-0.489,2.468-1.416c1.253-2.573,0.686-6.067,0.645-8.874c-0.004-0.35-0.021-0.701-0.034-1.052
	c0.243-3.013,0.274-6.047,0.236-8.901c-0.074-5.507-1.022-11.513-2.421-16.821c-2.57-9.761-14.785-17.779-22.97-8.948
	c-3.94,4.251-4.341,10.76-4.046,16.348C258.463,285.549,258.261,292.346,258.961,299.003z M264.189,268.751
	c2.658-7.243,10.945-5.635,14.701-0.248c2.505,3.594,3.07,8.582,3.633,12.785c0.599,4.482,0.568,8.55,0.573,13.038
	c0.001,0.174,0.011,0.358,0.016,0.537c-0.162,2.316-0.121,5.551-0.845,8.013c-3.701,0.135-7.419,0.03-11.12-0.254
	c-1.194-0.092-2.386-0.22-3.582-0.312c-0.418-0.032-2.867-0.227-2.86,0.19c-0.633-1.009-0.611-3.828-0.72-4.88
	c-0.53-5.143-0.001-10.389-0.326-15.549C263.389,277.747,262.652,272.938,264.189,268.751z"/>
<path d="M306.993,215.094c1.604,1.165,4.707,1.099,6.658,1.209c1.937,0.11,4.163,0.456,6.083-0.068
	c3.279-0.895,3.093-6.774,2.66-9.441c-0.429-2.649-1.552-5.492-3.33-7.655c-1.572-2.067-3.904-3.525-6.636-3.484
	c-4.418,0.065-5.377,5.271-6.294,8.732C305.497,206.792,304.492,213.277,306.993,215.094z M308.916,206.67
	c0.143-2.82,1.352-9.158,5.077-7.743c4.114,1.562,4.826,5.895,4.924,10.104c-0.072,0.686-0.163,1.364-0.259,1.973
	c-0.082,0.508-0.203,1.008-0.329,1.506c-0.084,0.012-0.196,0.042-0.349,0.096c-0.904,0.179-2.147-0.12-3.046-0.172
	c-1.455-0.084-3.504,0.287-4.879-0.427c-1.206-0.626-0.787-0.343-1.049-1.705C308.797,209.221,308.859,207.792,308.916,206.67z"/>
<path d="M250.452,215.094c1.605,1.165,4.707,1.099,6.658,1.209c1.937,0.11,4.163,0.456,6.083-0.068
	c3.279-0.895,3.093-6.774,2.66-9.441c-0.429-2.649-1.552-5.492-3.33-7.655c-1.573-2.067-3.904-3.525-6.636-3.484
	c-4.418,0.065-5.377,5.271-6.294,8.732C248.956,206.792,247.95,213.277,250.452,215.094z M252.373,206.67
	c0.142-2.82,1.352-9.158,5.077-7.743c4.114,1.562,4.826,5.895,4.924,10.104c-0.071,0.686-0.163,1.364-0.259,1.973
	c-0.082,0.508-0.203,1.008-0.329,1.506c-0.084,0.012-0.196,0.042-0.349,0.096c-0.904,0.179-2.147-0.12-3.046-0.172
	c-1.455-0.084-3.504,0.287-4.879-0.427c-1.206-0.626-0.787-0.343-1.049-1.705C252.255,209.221,252.317,207.792,252.373,206.67z"/>
<path d="M389.102,345.455c1.604,1.165,4.707,1.099,6.658,1.21c1.937,0.11,4.163,0.456,6.083-0.069
	c3.279-0.895,3.093-6.774,2.66-9.441c-0.429-2.649-1.552-5.492-3.33-7.655c-1.572-2.067-3.904-3.525-6.636-3.484
	c-4.418,0.065-5.377,5.271-6.294,8.732C387.606,337.153,386.6,343.64,389.102,345.455z M391.023,337.032
	c0.142-2.82,1.352-9.158,5.077-7.743c4.114,1.562,4.826,5.895,4.924,10.104c-0.071,0.686-0.163,1.364-0.259,1.973
	c-0.082,0.508-0.203,1.008-0.329,1.506c-0.084,0.012-0.196,0.042-0.349,0.096c-0.904,0.177-2.147-0.12-3.046-0.172
	c-1.455-0.084-3.504,0.287-4.879-0.427c-1.206-0.627-0.787-0.343-1.049-1.704C390.905,339.584,390.967,338.154,391.023,337.032z"/>
<path d="M434.365,345.455c1.604,1.165,4.707,1.099,6.658,1.21c1.937,0.11,4.163,0.456,6.083-0.069
	c3.279-0.895,3.093-6.774,2.661-9.441c-0.429-2.649-1.552-5.492-3.33-7.655c-1.572-2.067-3.904-3.525-6.636-3.484
	c-4.418,0.065-5.377,5.271-6.294,8.732C432.869,337.153,431.865,343.64,434.365,345.455z M436.288,337.032
	c0.142-2.82,1.352-9.158,5.077-7.743c4.114,1.562,4.826,5.895,4.924,10.104c-0.071,0.686-0.163,1.364-0.259,1.973
	c-0.082,0.508-0.203,1.008-0.329,1.506c-0.084,0.012-0.196,0.042-0.35,0.096c-0.904,0.177-2.146-0.12-3.046-0.172
	c-1.455-0.084-3.504,0.287-4.879-0.427c-1.206-0.627-0.787-0.343-1.049-1.704C436.169,339.584,436.23,338.154,436.288,337.032z"/>
<path d="M479.628,345.455c1.604,1.165,4.707,1.099,6.658,1.21c1.937,0.11,4.163,0.456,6.083-0.069
	c3.279-0.895,3.093-6.774,2.66-9.441c-0.429-2.649-1.552-5.492-3.33-7.655c-1.572-2.067-3.904-3.525-6.636-3.484
	c-4.418,0.065-5.377,5.271-6.294,8.732C478.132,337.153,477.128,343.64,479.628,345.455z M481.551,337.032
	c0.142-2.82,1.352-9.158,5.077-7.743c4.114,1.562,4.826,5.895,4.924,10.104c-0.071,0.686-0.163,1.364-0.259,1.973
	c-0.082,0.508-0.203,1.008-0.329,1.506c-0.084,0.012-0.196,0.042-0.349,0.096c-0.904,0.177-2.147-0.12-3.046-0.172
	c-1.455-0.084-3.504,0.287-4.879-0.427c-1.206-0.627-0.787-0.343-1.049-1.704C481.432,339.584,481.494,338.154,481.551,337.032z"/>
<path d="M343.839,345.455c1.604,1.165,4.707,1.099,6.658,1.21c1.937,0.11,4.163,0.456,6.083-0.069
	c3.279-0.895,3.093-6.774,2.66-9.441c-0.429-2.649-1.552-5.492-3.33-7.655c-1.572-2.067-3.904-3.525-6.636-3.484
	c-4.418,0.065-5.377,5.271-6.294,8.732C342.342,337.153,341.337,343.64,343.839,345.455z M345.76,337.032
	c0.142-2.82,1.352-9.158,5.077-7.743c4.114,1.562,4.826,5.895,4.924,10.104c-0.072,0.686-0.163,1.364-0.259,1.973
	c-0.082,0.508-0.203,1.008-0.329,1.506c-0.084,0.012-0.196,0.042-0.349,0.096c-0.904,0.177-2.146-0.12-3.046-0.172
	c-1.455-0.084-3.504,0.287-4.879-0.427c-1.206-0.627-0.786-0.343-1.049-1.704C345.642,339.584,345.704,338.154,345.76,337.032z"/>
<path d="M279.157,131.389c-5.491,0.608-8.03,5.709-8.961,10.621c-0.503,2.653-0.457,5.829-0.245,8.523
	c0.179,2.282,0.25,6.281,1.6,8.237c1.621,2.346,6.238,1.746,8.81,1.707c2.065-0.032,6.907,0.363,8.811-0.706
	c1.701-0.954,1.785-2.372,2.067-4.244c0.84-5.589,0.491-13.555-3.107-18.321C286.335,133.808,283.4,130.92,279.157,131.389z
	 M286.933,155.799c-3.707,0.738-8.096,0.064-11.942-0.004c-1.114-2.801-1.053-7.378-0.991-9.977c0.1-4.15,1.055-10.071,6.151-9.928
	c5.638,0.16,6.234,7.105,6.289,11.613c0.034,2.739,0.319,5.341,0.57,8.001C286.983,155.601,286.961,155.703,286.933,155.799z"/>
<path d="M508.457,356.153c-0.839-0.536-1.658-0.884-2.476-1.127c0.181-0.361,0.305-0.777,0.323-1.274
	c0.004-0.12,0.01-0.24,0.014-0.359c0.237-1.098,0.256-2.292,0.151-3.511c0.299-6.263,0.704-12.414,0.401-18.784
	c-0.314-6.617,0.303-13.322,0.524-19.947c0.126-3.776,0.421-7.537,0.155-11.312c-0.19-2.686,0.356-6.373-0.746-8.854
	c-1.815-4.082-6.529-3.559-10.299-3.712c-6.772-0.274-13.74-0.745-20.508-0.258c-6.339,0.456-6.781,3.124-6.823,8.885
	c-0.03,4.087-0.01,8.176-0.01,12.263c0,1.81-0.071,3.625-0.047,5.433c0.014,1.062,0.62,2.911,0.309,3.89
	c-0.145,0.46,0.774,0.556-1.203,0.499c-1.663-0.049-3.333,0.001-4.998,0c-2.113-0.001-6.798,0.844-9.596,0.408
	c-0.367-5.705,0.134-11.615-0.036-17.3c-0.126-4.268,0.152-11.464-3.505-14.443c-3.559-2.899-8.65-2.161-12.839-2.424
	c-2.441-0.153-4.81-0.24-7.265-0.255c-2.039-0.013-4.525-0.62-6.447,0.295c-3.953,1.882-2.433,7.307-2.432,10.794
	c0.002,5.021-0.846,10.146-0.383,15.136c0.226,2.439,0.096,4.792,0.204,7.231c0.014,0.32,0.001,0.638-0.008,0.921
	c-0.943,0.012-2.148,0.19-2.312,0.187c-2.921-0.03-5.856,0.026-8.773-0.054c-3.154-0.086-2.471-0.569-2.711-3.654
	c-0.487-6.21-0.13-12.463-0.699-18.665c-0.31-3.376-0.741-7.344-4.277-8.806c-3.406-1.409-8.345-1.002-12.025-1.213
	c-3.416-0.195-8.404-1.43-11.592,0.173c-6.269,3.151-2.91,16.847-2.973,22.246c-0.028,2.347-0.439,5.269,0.285,7.535
	c0.039,0.122,0.067,0.214,0.099,0.318c-0.992-0.045-2.365,0.071-2.675,0.069c-2.545-0.018-5.601,0.58-8.067-0.211
	c-1.913-0.613-1.714-2.527-1.811-4.231c-0.317-5.604-0.733-11.218-1.931-16.715c-0.724-3.322-1.543-7.368-4.766-9.128
	c-3.606-1.969-8.947-1.068-12.941-1.192c-2.734-0.085-5.555-0.335-8.23,0.146c-0.034-0.607-0.062-1.215-0.1-1.821
	c-0.501-8.007-0.74-16.174-0.751-24.182c-0.009-5.957,0.401-12.656-0.58-18.695c2.73-0.196,5.427-0.776,6.911-2.362
	c2.196-2.343,2.405-6.633,0.937-9.383c-1.383-2.59-4.586-4.775-7.614-5.823c0.083-0.388,0.152-0.792,0.194-1.225
	c0.348-3.546,0.003-7.679-0.505-11.196c-0.915-6.332-0.98-12.598-0.884-18.908c0.092-6.038,2.771-17.274-3.579-21.069
	c-2.793-1.67-6.272-0.991-9.373-1.18c-2.238-0.136-4.45-0.508-6.663-0.846c-0.961-0.147-2.635,0.313-3.48-0.104
	c-0.999-0.493-1.455-2.279-1.636-3.268c-0.429-2.359-0.004-4.802-0.112-7.184c-0.113-2.506-0.45-4.999-0.472-7.509
	c-0.04-4.587,0.944-9.969-0.138-14.58c0.432,0.195,0.867,0.383,1.307,0.557c2.799,1.104,5.938,3.081,8.943,3.389
	c4.777,0.488,7.178-4.566,8.844-8.786c2.721,1.55,5.597,2.678,8.581,1.57c4.193-1.557,6.464-8.584,5.103-12.624
	c-1.698-5.037-9.618-6.777-13.787-8.784c-4.917-2.366-10.005-4.502-14.87-6.732c-5.065-2.321-9.514-5.901-14.594-7.983
	c-7.246-2.969-13.665-7.31-20.014-11.848c-2.961-2.116-6.041-4.085-9.063-6.119c-0.625-0.529-1.246-1.061-1.906-1.57
	c-2.716-2.096-6.654-7.556-10.483-7.39c-3.105,0.134-7.013,4.536-9.185,6.43c-1.729,1.507-3.653,2.872-5.431,4.362
	c-2.125,1.405-4.251,2.81-6.318,4.288c-6.348,4.539-12.767,8.879-20.014,11.848c-5.08,2.081-9.528,5.662-14.594,7.983
	c-4.865,2.229-9.953,4.366-14.87,6.732c-4.168,2.006-12.09,3.746-13.787,8.784c-1.361,4.041,0.91,11.066,5.103,12.624
	c2.984,1.109,5.86-0.019,8.581-1.57c1.667,4.22,4.067,9.274,8.844,8.786c3.005-0.307,6.145-2.284,8.943-3.389
	c0.44-0.174,0.876-0.361,1.307-0.557c-1.08,4.613-0.096,9.993-0.137,14.58c-0.022,2.51-0.359,5.003-0.472,7.509
	c-0.108,2.382,0.318,4.826-0.112,7.184c-0.181,0.99-0.636,2.775-1.636,3.268c-0.845,0.417-2.518-0.043-3.48,0.104
	c-2.213,0.338-4.425,0.711-6.663,0.846c-3.1,0.188-6.58-0.49-9.373,1.18c-6.35,3.797-3.671,15.032-3.579,21.069
	c0.096,6.309,0.03,12.577-0.884,18.908c-0.508,3.517-0.854,7.65-0.505,11.196c0.043,0.434,0.111,0.837,0.194,1.225
	c-3.028,1.048-6.233,3.232-7.614,5.823c-1.468,2.75-1.259,7.04,0.937,9.383c1.486,1.586,4.181,2.166,6.911,2.362
	c-0.981,6.039-0.571,12.738-0.579,18.695c-0.011,8.008-0.251,16.174-0.751,24.182c-0.038,0.605-0.065,1.214-0.1,1.821
	c-2.675-0.481-5.495-0.231-8.23-0.146c-3.994,0.124-9.335-0.777-12.941,1.192c-3.222,1.76-4.042,5.806-4.766,9.128
	c-1.198,5.497-1.613,11.111-1.93,16.715c-0.096,1.704,0.102,3.619-1.811,4.231c-2.467,0.791-5.522,0.193-8.067,0.211
	c-0.309,0.002-1.681-0.115-2.675-0.069c0.032-0.104,0.06-0.196,0.099-0.318c0.724-2.265,0.313-5.186,0.285-7.535
	c-0.063-5.398,3.297-19.093-2.973-22.246c-3.188-1.602-8.176-0.368-11.592-0.173c-3.68,0.211-8.619-0.196-12.025,1.213
	c-3.536,1.463-3.967,5.43-4.277,8.806c-0.569,6.202-0.213,12.456-0.699,18.665c-0.241,3.085,0.441,3.567-2.711,3.654
	c-2.917,0.08-5.852,0.024-8.773,0.054c-0.163,0.001-1.368-0.175-2.312-0.187c-0.01-0.284-0.022-0.601-0.008-0.921
	c0.108-2.438-0.022-4.791,0.204-7.231c0.465-4.989-0.385-10.115-0.383-15.136c0.001-3.486,1.521-8.912-2.432-10.794
	c-1.923-0.915-4.409-0.308-6.448-0.295c-2.455,0.016-4.825,0.102-7.265,0.255c-4.189,0.263-9.28-0.475-12.839,2.424
	c-3.657,2.978-3.379,10.175-3.505,14.443c-0.169,5.685,0.333,11.596-0.035,17.3c-2.798,0.436-7.482-0.408-9.596-0.408
	c-1.663,0-3.334-0.049-4.998,0c-1.978,0.058-1.058-0.039-1.203-0.499c-0.31-0.979,0.295-2.828,0.309-3.89
	c0.024-1.809-0.047-3.624-0.047-5.433c0-4.087,0.02-8.176-0.01-12.263c-0.042-5.762-0.483-8.429-6.823-8.885
	c-6.768-0.487-13.736-0.017-20.508,0.258c-3.77,0.153-8.484-0.369-10.299,3.712c-1.103,2.482-0.557,6.168-0.746,8.854
	c-0.266,3.775,0.029,7.537,0.155,11.312c0.222,6.625,0.838,13.331,0.524,19.947c-0.302,6.37,0.102,12.521,0.401,18.784
	c-0.105,1.219-0.086,2.414,0.151,3.511c0.004,0.12,0.01,0.238,0.014,0.359c0.018,0.497,0.142,0.913,0.323,1.274
	c-0.819,0.243-1.637,0.592-2.476,1.127c-4.726,3.012-4.831,11.176,0.317,13.699c1.83,0.896,4.05,1.3,6.289,1.529
	c-1.131,10.941-0.06,21.771,0.016,32.75c0.044,6.427,0.23,12.852,0.447,19.275c0.11,3.24,0.228,6.48,0.343,9.72
	c0.047,1.3,0.201,2.585,0.258,3.864c0.063,1.408-0.071,2.763,0.783,3.993c0.539,0.777,1.522,1.453,2.489,1.522
	c1.088,0.079,1.938-0.842,2.932-1.283c2.867-1.044,6.746-0.86,9.997-0.577c2.403,0.571,4.759,1.368,7.2,1.609
	c1.846,0.182,2.665-2.361,1.468-3.544c-1.045-1.032-1.939-2.772-2.078-4.249c-0.235-2.499,2.495-3.63,4.39-2.589
	c2.211,1.215,4.004,3.239,6.452,4.128c1.172,0.426,2.561-0.689,2.495-1.901c-0.194-3.537-2.469-8.161-1.282-11.614
	c2.567-7.47,6.033,3.534,6.865,5.752c0.783,2.087,4.126,1.94,4.089-0.553c-0.078-5.198-0.408-9.896,1.14-14.971
	c0.756-2.479,1.704-5.117,2.965-7.383c1.454-2.611,2.649-4.605,2.795-0.605c0.197,5.412-4.714,14.269-0.836,18.958
	c1.038,1.255,2.775,0.584,3.575-0.461c2.729-3.566,3.597-8.131,5.03-12.288c0.731-2.119,1.606-4.218,2.927-6.043
	c1.286-1.775,2.95-4.063,5.358-3.952c3.674,0.169,0.511,7.305-0.031,9.234c-0.947,3.369-1.989,6.555-3.322,9.778
	c-0.901,2.179,1.911,3.582,3.602,2.768c2.33-1.121,3.501-3.843,5.157-5.725c2.611-2.967,7.215-6.452,11.528-6.178
	c-0.03,3.26-2.944,6.15-2.538,9.462c0.21,1.709,1.62,3.279,3.527,2.687c3.823-1.188,6.726-4.082,10.67-5.117
	c2.726-0.715,4.461-1.643,3.237,1.558c-0.591,1.546-1.084,2.699-1.281,4.3c-0.103,0.839,0.563,1.921,1.308,2.281
	c2.402,1.161,5.933-1.081,8.133-1.903c1.144-0.427,2.642-1.056,3.893-0.774c5.12,1.151,2.238,6.911,4.219,10.016
	c1.077,1.687,3.239,1.929,4.708,0.607c0.671-0.604,2.466-3.166,3.465-2.869c1.497,0.445,1.162,3.592,1.999,4.664
	c1.03,1.318,2.176,1.797,3.765,1.162c2.17-0.868,2.546-3.707,4.46-4.853c4.146-2.484,4.93,3.393,7.905,4.815
	c0.948,0.454,2.145,0.442,2.914-0.376c2.555-2.721,0.798-6.885,3.267-9.475c1.733-1.817,1.342-1.465,3.136-0.153
	c0.823,0.602,1.577,1.303,2.393,1.916c1.229,0.924,2.296,1.634,3.752,2.132c1.488,0.508,2.997-0.827,3.009-2.292
	c0.024-2.946-2.956-8.26-0.274-10.684c1.833-1.657,3.444,1.425,4.574,3.14c0.895,1.359,1.433,2.489,2.696,3.537
	c1.657,1.375,3.947,0.863,4.669-1.233c0.735-2.131-0.058-4.562,0.129-6.815c0.137-1.678,0.459-3.401,0.98-5.001
	c0.613-1.883,0.902-3.756,2.167-1.979c2.4,3.372-0.52,9.78,4.021,12.053c1.387,0.694,3.589,0.507,4.311-1.13
	c2.035-4.615,2.445-10.111,5.166-14.428c2.741-4.347,2.765,1.528,2.397,3.658c-0.326,1.887-0.47,3.135-0.125,5.064
	c0.194,1.083,1.525,2.092,2.626,1.999c3.711-0.316,4.991-3.896,6.799-6.653c0.806-1.229,1.744-2.53,2.718-3.619
	c1.753-1.963,2.003-3.325,3.916-0.456c1.507,2.259,1.077,3.16,0.206,5.543c-0.636,1.744-1.387,3.232-1.814,5.046
	c-0.451,1.918,1.203,3.561,3.117,3.117c2.774-0.643,3.718-2.852,6.076-4.145c3.931-2.156,2.791,1.434,3.631,4.077
	c0.593,1.866,2.771,2.386,4.206,1.11c1.899-1.688,3.944-3.3,5.855-5.004c2.418-0.716,4.795-0.497,7.041,2.01
	c1.831,2.041,5.604,0.458,5.477-2.269c-0.173-3.729-1.995-10.511,1.831-13.193c4.258-2.986,7.742,3.416,9.48,5.841
	c1.346,1.88,2.685,3.577,4.118,5.137c0.113,0.31,0.3,0.618,0.594,0.907c2.344,2.31,5.067,4.373,7.538,6.57
	c1.435,1.275,3.613,0.755,4.206-1.11c0.841-2.643-0.299-6.233,3.631-4.077c2.359,1.293,3.302,3.502,6.077,4.145
	c1.914,0.444,3.568-1.198,3.117-3.117c-0.427-1.814-1.178-3.302-1.814-5.046c-0.87-2.383-1.301-3.284,0.207-5.543
	c1.914-2.87,2.163-1.507,3.916,0.456c0.974,1.089,1.912,2.391,2.718,3.619c1.81,2.757,3.089,6.337,6.799,6.653
	c1.101,0.094,2.432-0.916,2.626-1.999c0.345-1.929,0.202-3.177-0.125-5.064c-0.368-2.131-0.344-8.006,2.397-3.658
	c2.722,4.317,3.131,9.812,5.166,14.428c0.722,1.637,2.924,1.825,4.311,1.13c4.54-2.273,1.62-8.681,4.02-12.053
	c1.264-1.777,1.552,0.095,2.167,1.979c0.521,1.6,0.842,3.323,0.98,5.001c0.185,2.253-0.607,4.684,0.129,6.815
	c0.722,2.095,3.013,2.608,4.669,1.233c1.262-1.048,1.801-2.177,2.696-3.537c1.129-1.715,2.741-4.797,4.573-3.14
	c2.682,2.424-0.298,7.738-0.274,10.684c0.012,1.466,1.521,2.8,3.009,2.292c1.456-0.497,2.524-1.209,3.752-2.132
	c0.816-0.613,1.569-1.314,2.393-1.916c1.794-1.313,1.403-1.665,3.136,0.153c2.468,2.59,0.712,6.754,3.267,9.475
	c0.768,0.818,1.965,0.829,2.914,0.376c2.975-1.422,3.759-7.298,7.905-4.815c1.915,1.147,2.29,3.985,4.46,4.853
	c1.589,0.635,2.734,0.156,3.765-1.162c0.837-1.072,0.503-4.219,1.999-4.664c1-0.297,2.794,2.264,3.465,2.869
	c1.469,1.323,3.631,1.08,4.708-0.607c1.982-3.106-0.9-8.865,4.219-10.016c1.251-0.282,2.749,0.347,3.893,0.774
	c2.2,0.822,5.732,3.064,8.133,1.903c0.745-0.36,1.412-1.441,1.308-2.281c-0.196-1.601-0.69-2.754-1.281-4.3
	c-1.224-3.201,0.511-2.273,3.237-1.558c3.945,1.035,6.848,3.93,10.672,5.117c1.906,0.592,3.318-0.978,3.527-2.687
	c0.406-3.311-2.508-6.202-2.538-9.462c4.312-0.274,8.916,3.211,11.528,6.178c1.657,1.882,2.828,4.604,5.157,5.725
	c1.69,0.813,4.502-0.589,3.602-2.768c-1.333-3.222-2.375-6.409-3.322-9.778c-0.542-1.929-3.705-9.066-0.031-9.234
	c2.408-0.111,4.072,2.177,5.358,3.952c1.322,1.825,2.197,3.924,2.927,6.043c1.433,4.157,2.301,8.722,5.03,12.288
	c0.799,1.045,2.537,1.715,3.575,0.461c3.878-4.689-1.035-13.546-0.836-18.958c0.146-4,1.342-2.006,2.795,0.605
	c1.261,2.265,2.209,4.903,2.965,7.383c1.548,5.074,1.217,9.772,1.14,14.971c-0.037,2.494,3.308,2.64,4.089,0.553
	c0.832-2.218,4.298-13.222,6.865-5.752c1.186,3.453-1.088,8.077-1.282,11.614c-0.067,1.212,1.323,2.326,2.495,1.901
	c2.448-0.889,4.241-2.913,6.452-4.128c1.894-1.041,4.625,0.09,4.39,2.589c-0.139,1.477-1.032,3.217-2.078,4.249
	c-1.196,1.183-0.378,3.726,1.468,3.544c2.439-0.241,4.797-1.038,7.2-1.609c3.251-0.284,7.13-0.467,9.997,0.577
	c0.995,0.441,1.844,1.362,2.932,1.283c0.967-0.07,1.95-0.745,2.489-1.522c0.854-1.23,0.72-2.585,0.783-3.993
	c0.058-1.28,0.212-2.565,0.258-3.864c0.114-3.24,0.233-6.48,0.343-9.72c0.217-6.424,0.402-12.848,0.447-19.275
	c0.075-10.978,1.147-21.809,0.016-32.75c2.24-0.231,4.46-0.633,6.289-1.529C513.289,367.329,513.183,359.165,508.457,356.153z
	 M343.01,290.538c2.625,0.147,6.333-0.352,8.806,0.332c6.617,1.827,5.299,14.895,5.439,20.209
	c0.119,4.531-0.512,10.668,5.287,11.316c3.476,0.388,7.223,0.245,10.725,0.282c2.468,0.026,5.385,0.66,7.465-0.914
	c3.011-2.276,1.06-7.864,1.028-11.161c-0.032-3.292-0.179-6.527-0.416-9.799c-0.149-2.035-0.858-4.865-0.369-6.833
	c1.073-4.317,9.643-1.901,13.491-1.695c2.119,0.113,4.874-0.276,5.878,1.341c1.701,2.738,0.169,9.393,0.114,12.5
	c-0.084,4.794-0.939,12.041,1.353,16.446c2.273,4.37,9.017,2.304,12.929,2.263c3.603-0.039,10.77,1.488,12.485-2.798
	c0.748-1.872-0.092-4.2-0.142-6.123c-0.074-2.907-0.523-5.602-0.704-8.485c-0.212-3.369,0.135-6.817,0.142-10.19
	c0.001-0.765-0.72-6.764-0.049-7.556c0.274-0.324,5.597,0.159,6.504,0.174c2.851,0.05,5.989-0.012,8.81,0.292
	c3.315,0.357,4.678,0.941,5.196,4.286c0.562,3.63,0.528,7.105,0.485,10.764c-0.039,3.338-0.079,6.675-0.118,10.013
	c-0.024,2.017-0.75,5.38,0.395,7.251c2.259,3.692,9.961,2.274,13.454,2.29c3.525,0.016,10.127,1.019,13.163-1.487
	c3.198-2.639,1.529-8.561,1.561-12.105c0.053-5.775-0.531-11.874-0.221-17.685c2.583-0.589,6.193-0.074,8.472-0.082
	c3.883-0.013,7.74,0.131,11.618,0.263c1.359,0.047,3.116-0.246,4.402,0.305c2.107,0.901,0.062-0.665,0.775,2.001
	c1.052,3.938,0.64,8.392,0.475,12.399c-0.31,7.531-1.012,15.229-0.673,22.75c0.323,7.154-0.581,14.346-0.237,21.45
	c-0.167,0.081-0.343,0.157-0.534,0.217c-2.344,0.742-5.834,0.725-8.271,0.767c-6.758,0.119-13.607-0.407-20.355-0.734
	c-6.972-0.338-13.963,0.344-20.928,0.397c-8.017,0.061-16.036,0.002-24.052,0.013c-15.479,0.02-30.932-0.019-46.401-0.61
	c-7.539-0.288-15.115-0.713-22.65-0.858c-7.123-0.137-14.391,0.203-21.478-0.285c-0.251-0.018-0.471,0.01-0.679,0.054
	c0.05-3.732,0.049-8.437-1.957-11.586c2.448-0.445,4.83-1.239,6.259-3.165c2.064-2.782,1.759-8.734,0.605-11.891
	c-0.717-1.963-2.064-3.198-3.669-3.862c0.246-0.717,0.281-1.485,0.164-2.284c0.129-0.904,0.112-1.878,0.022-2.976
	c-0.283-3.46-0.201-6.822-0.3-10.285c-0.153-5.301-0.309-10.639-0.554-15.956C338.175,289.807,340.674,290.406,343.01,290.538z
	 M186.292,123.47c-1.326,0.681-2.58,2.025-3.987,2.5c-1.914,0.646-4.703-0.034-3.879-2.942c0.752-2.657,6.727-4.046,8.914-5.152
	c11.205-5.661,21.603-12.066,32.854-17.562c7.272-3.552,13.599-8.85,20.147-13.52c3.923-2.8,8.81-6.099,12.243-10.068
	c1.392-0.9,2.691-1.52,3.517-1.328c1.419,0.329,2.912,3.123,4.043,4.114c1.499,1.313,3.181,2.698,4.775,3.893
	c1.857,1.394,3.8,2.712,5.879,3.755c0.886,0.445,1.864,0.601,2.73,1.009c1.418,0.671,2.615,1.885,3.858,2.829
	c1.561,1.185,3.157,2.332,4.761,3.457c3.087,2.164,6.275,4.204,9.667,5.86c11.251,5.495,21.649,11.902,32.854,17.562
	c2.188,1.104,8.162,2.495,8.914,5.152c0.823,2.907-1.966,3.588-3.88,2.942c-1.407-0.476-2.661-1.82-3.987-2.5
	c-6.987-3.583-14.458-6.142-21.343-9.994c-0.063-0.035-0.126-0.07-0.189-0.105c-6.324-3.529-12.842-6.691-19.265-10.033
	c-1.609-0.837-3.213-1.685-4.806-2.554c-1.234-0.672-2.018-1.425-3.065-2.293c-2.51-2.081-5.502-4.084-8.343-5.684
	c-3.539-1.994-6.69-5.738-10.701-6.806c-4.083-1.087-9.317,2.376-12.369,4.673c-5.723,4.306-10.99,8.693-17.343,12.033
	c-6.873,3.612-13.877,6.977-20.654,10.769C200.75,117.328,193.278,119.887,186.292,123.47z M203.327,129.723
	c-2.048,1.052-5.718,2.88-7.926,3.196c-3.679,0.527-3.433-2.483-5.454-4.712c-0.017-0.019-0.033-0.034-0.051-0.053
	c0.466-0.262,0.928-0.507,1.382-0.712c6.855-3.108,13.436-6.421,20.044-9.955c7.217-3.859,14.089-8.106,20.976-12.649
	c5.755-3.798,11.752-6.785,16.469-11.59c0.013-0.01,0.027-0.019,0.04-0.029c3.38-2.584,5.755-5.807,10.027-3.271
	c1.264,0.75,2.488,1.637,3.705,2.568c4.815,5.243,11.127,8.333,17.17,12.32c6.887,4.543,13.759,8.791,20.976,12.649
	c6.609,3.533,13.189,6.846,20.044,9.955c0.453,0.205,0.915,0.45,1.382,0.712c-0.018,0.019-0.034,0.034-0.051,0.053
	c-2.021,2.229-1.776,5.238-5.454,4.711c-2.208-0.316-5.877-2.143-7.926-3.196c-3.125-1.606-6.175-3.386-9.359-4.942
	c-6.748-3.299-13.545-7.274-19.496-11.815c-2.978-2.272-6.2-5.698-9.746-8.152c-3.989-3.684-9.036-7.017-13.795-7.444
	c-3.84-0.344-7.914,2.188-10.845,4.441c-1.605,1.232-3.431,2.605-5.06,4.146c-2.942,2.298-5.657,5.073-8.197,7.01
	c-5.951,4.54-12.747,8.515-19.496,11.815C209.503,126.337,206.451,128.118,203.327,129.723z M301.289,161.182
	c-0.201,2.7-0.722,4.724,0.221,7.087c-0.408,0.001-0.818,0.023-1.232,0.094c-2.437,0.416-4.084,1.576-4.971,3.912
	c-0.972,2.561-0.416,5.478-0.303,8.138c0.187,4.448-0.837,8.633-0.899,13.022c-0.038,2.646,0.644,1.929-1.638,2.595
	c-1.291,0.377-3.893-0.02-5.148-0.093c-1.357-0.124-2.713-0.252-4.069-0.384c-0.784-0.208-1.329-0.299-1.672-0.291
	c-0.386-1.572-0.232-3.467-0.34-4.9c-0.326-4.331-0.506-8.485-0.444-12.825c0.044-3.086,0.1-6.675-2.349-8.943
	c-2.078-1.924-5.069-2.008-7.724-2.028c-3.393-0.024-6.809-0.386-10.185-0.133c-2.996-0.272-6.063-0.195-8.718-0.217
	c-3.151-0.027-6.748-0.336-9.972,0.338c-0.185,0.003-0.371,0.01-0.557,0.011c-2.656,0.019-5.647,0.104-7.724,2.028
	c-2.449,2.268-2.393,5.857-2.349,8.943c0.061,4.34-0.118,8.494-0.444,12.825c-0.108,1.432,0.045,3.328-0.34,4.9
	c-0.343-0.009-0.888,0.082-1.672,0.291c-1.356,0.131-2.712,0.258-4.069,0.384c-1.254,0.074-3.857,0.47-5.148,0.093
	c-2.282-0.665-1.6,0.051-1.638-2.595c-0.063-4.389-1.087-8.575-0.899-13.022c0.112-2.66,0.67-5.576-0.303-8.138
	c-0.888-2.336-2.534-3.496-4.971-3.912c-0.414-0.071-0.824-0.093-1.232-0.094c0.943-2.363,0.42-4.387,0.221-7.087
	c-0.243-3.273-0.13-6.599-0.163-9.878c-0.061-6.044,0.003-11.814-2.067-17.554c-0.007-0.019-0.021-0.033-0.028-0.051
	c1.853-1.026,3.699-2.096,5.625-3.024c8.082-3.896,15.912-8.553,22.941-14.102c2.931-2.314,5.956-4.648,8.838-7.058
	c0.852-0.583,1.704-1.17,2.577-1.72c2.315-1.459,6.557-4.619,9.409-4.354c1.459,0.135,2.534,1.555,3.589,2.472
	c4.324,3.759,9.024,7.091,13.545,10.66c7.029,5.55,14.859,10.206,22.941,14.102c1.925,0.928,3.772,1.998,5.625,3.024
	c-0.007,0.018-0.021,0.033-0.028,0.051c-2.07,5.741-2.006,11.51-2.067,17.554C301.419,154.585,301.532,157.91,301.289,161.182z
	 M183.74,196.214c0.07-4.614,0.226-9.236,0.211-13.85c-0.008-2.763-0.894-6.228,3.374-7.352c1.702-0.448,4.29,0.459,6.093,0.368
	c3.16-0.159,6.514-1.061,9.578-1.083c1.16-0.009,6.87-0.106,7.441,0.358c0.846,0.691,0.001,5.829-0.059,7.415
	c-0.145,3.85,0.439,7.542,0.414,11.365c-0.039,5.619,1.47,9.019,7.59,9.68c3.476,0.376,6.92-0.177,10.373-0.478
	c2.565-0.223,5.335,0.095,7.009-2.202c1.294-1.775,1.435-4.496,1.599-6.636c0.325-4.238,0.636-8.657,0.501-12.908
	c-0.05-1.561-1.062-6.086-0.088-7.357c0.758-0.988,2.423-0.622,3.507-0.66c0.819-0.028,1.631-0.057,2.438-0.09
	c2.819,0.09,5.777-0.245,8.09-0.177c3.823,0.111,8.346,0.655,12.388-0.072c2.149,0.193,4.307,0.264,6.514,0.339
	c1.084,0.037,2.749-0.328,3.507,0.66c0.976,1.271-0.038,5.796-0.088,7.357c-0.135,4.251,0.177,8.67,0.501,12.908
	c0.164,2.14,0.306,4.861,1.599,6.636c1.674,2.299,4.444,1.979,7.009,2.202c3.453,0.3,6.897,0.854,10.373,0.478
	c6.121-0.662,7.629-4.063,7.59-9.68c-0.027-3.822,0.558-7.515,0.414-11.365c-0.06-1.586-0.905-6.724-0.059-7.415
	c0.571-0.466,6.282-0.367,7.441-0.358c3.064,0.022,6.418,0.925,9.578,1.083c1.803,0.091,4.391-0.816,6.093-0.368
	c4.268,1.123,3.383,4.588,3.374,7.352c-0.014,4.614,0.141,9.236,0.212,13.85c0.128,8.349-0.642,16.2,0.651,24.461
	c-0.111,0.135-0.22,0.273-0.364,0.376c-1.304,0.929-3.455,0.226-5.057,0.369c-3.643,0.325-7.386,0.89-11.09,0.64
	c-8.441-0.572-16.693-1-25.196-0.705c-5.999,0.208-13.114-0.45-19.474,0.435c-1.702-0.264-3.488,0.043-5.379,0.041
	c-4.429-0.004-8.859-0.018-13.287,0c-1.978,0.008-4.007-0.1-6.049-0.191c-6.03-0.65-12.614-0.091-18.224-0.285
	c-8.504-0.295-16.755,0.133-25.196,0.705c-3.704,0.252-7.447-0.315-11.091-0.64c-1.602-0.143-3.753,0.56-5.057-0.369
	c-0.144-0.103-0.254-0.241-0.364-0.376C184.382,212.415,183.613,204.563,183.74,196.214z M174.234,232.561
	c-0.61-3.529,2.969-4.755,5.785-5.165c1.551-0.226,3.136-0.288,4.703-0.288c2.311,0.001,4.556,0.863,6.88,0.975
	c9.406,0.456,18.935-0.473,28.374-0.628c5.06-0.083,10.114-0.299,15.172-0.421c1.271-0.031,2.579-0.031,3.9-0.043
	c3.389,0.203,6.823,0.154,10.02,0.166c4.062,0.016,8.123-0.003,12.185,0c2.147,0.001,4.451,0.116,6.562-0.389
	c3.016,0.279,6.122,0.195,9.039,0.266c5.06,0.121,10.113,0.338,15.172,0.421c9.44,0.154,18.968,1.083,28.374,0.628
	c2.557-0.123,4.757-1.322,7.315-1.418c3.218-0.121,10.896,1.017,10.053,5.896c-0.526,3.04-8.123,2.257-10.631,2.221
	c-5.083-0.071-10.054,0.098-15.134-0.369c-9.358-0.859-19.171-0.757-28.577-0.54c-0.045,0.001-0.09,0.002-0.134,0.003
	c-6.449-0.68-13.179-0.414-19.721-0.274c-1.555-0.103-3.189-0.154-4.69,0.064c-2.253,0.004-4.546-0.051-6.857-0.111
	c-0.53-0.034-1.067-0.049-1.608-0.041c-5.332-0.133-10.73-0.21-15.916,0.464c-1.977-0.024-3.953-0.06-5.928-0.105
	c-9.406-0.217-19.22-0.319-28.577,0.54c-5.08,0.467-10.051,0.298-15.134,0.369C182.357,234.817,174.76,235.602,174.234,232.561z
	 M182.418,305.461c0.018-7.732,0.098-15.519,0.354-23.239c0.277-8.296,0.431-16.636,0.407-24.918
	c-0.016-5.168,1.296-11.449,0.235-16.793c0.184-0.003,0.369-0.007,0.541-0.009c12.847-0.152,25.773-0.002,38.606-1.129
	c6.719-0.59,13.482-0.142,20.194-0.622c5.358,0.329,10.73,0.342,16.195,0.355c7.57,0.018,15.176,0.574,22.721-0.061
	c2.594,0.03,5.186,0.1,7.771,0.327c12.833,1.127,25.759,0.977,38.606,1.129c0.172,0.002,0.357,0.006,0.541,0.009
	c-1.061,5.346,0.251,11.625,0.235,16.793c-0.024,8.282,0.13,16.622,0.407,24.918c0.257,7.72,0.336,15.507,0.354,23.239
	c0.01,4.382-1,9.982,0.589,14.348c-2.262,0.509-5.609,0.313-7.253,0.406c-6.164,0.347-12.302,0.689-18.462,0.953
	c-6.503,0.278-12.974,0.615-19.503,0.814c-3.609,0.11-7.171,0.092-10.721,0.182c-2.93-0.001-5.877,0.152-8.778,0.058
	c-5.632-0.182-11.207,0.072-16.826,0.109c-1.899,0.012-3.804,0.043-5.708,0.071c-5.267-0.369-10.517-0.256-15.873-0.419
	c-6.53-0.198-13-0.537-19.504-0.814c-6.161-0.263-12.298-0.605-18.462-0.953c-1.644-0.092-4.991,0.103-7.253-0.406
	C183.419,315.443,182.409,309.843,182.418,305.461z M11.811,293.947c1.286-0.55,3.043-0.258,4.402-0.305
	c3.88-0.132,7.735-0.277,11.618-0.263c2.28,0.008,5.89-0.507,8.472,0.082c0.31,5.813-0.274,11.91-0.221,17.685
	c0.033,3.545-1.637,9.466,1.561,12.105c3.036,2.505,9.638,1.503,13.163,1.487c3.492-0.016,11.195,1.403,13.454-2.29
	c1.144-1.871,0.419-5.234,0.395-7.251c-0.039-3.338-0.079-6.675-0.118-10.013c-0.043-3.657-0.078-7.132,0.485-10.764
	c0.518-3.344,1.881-3.929,5.196-4.286c2.821-0.304,5.959-0.242,8.81-0.292c0.906-0.016,6.231-0.498,6.504-0.174
	c0.671,0.791-0.05,6.791-0.049,7.556c0.007,3.373,0.355,6.822,0.142,10.19c-0.181,2.883-0.63,5.579-0.704,8.485
	c-0.049,1.923-0.89,4.251-0.142,6.123c1.713,4.286,8.882,2.76,12.485,2.798c3.912,0.042,10.656,2.107,12.929-2.263
	c2.292-4.405,1.437-11.653,1.353-16.446c-0.054-3.107-1.588-9.762,0.114-12.5c1.005-1.617,3.76-1.228,5.878-1.341
	c3.849-0.205,12.418-2.621,13.491,1.695c0.489,1.968-0.221,4.798-0.369,6.833c-0.237,3.272-0.384,6.507-0.416,9.799
	c-0.033,3.297-1.983,8.884,1.028,11.161c2.08,1.573,4.996,0.939,7.465,0.914c3.502-0.037,7.25,0.106,10.725-0.282
	c5.799-0.648,5.168-6.785,5.287-11.316c0.14-5.314-1.178-18.381,5.439-20.209c2.474-0.683,6.182-0.184,8.806-0.332
	c2.336-0.132,4.836-0.732,7.259-1.032c-0.245,5.317-0.401,10.655-0.554,15.956c-0.1,3.463-0.018,6.825-0.3,10.285
	c-0.09,1.098-0.106,2.072,0.022,2.976c-0.116,0.799-0.082,1.567,0.164,2.284c-1.606,0.664-2.952,1.901-3.669,3.862
	c-1.153,3.157-1.458,9.108,0.605,11.891c1.428,1.926,3.81,2.72,6.259,3.165c-2.006,3.148-2.007,7.854-1.957,11.586
	c-0.207-0.044-0.428-0.071-0.679-0.054c-7.089,0.488-14.355,0.147-21.478,0.285c-7.536,0.145-15.111,0.57-22.65,0.858
	c-15.468,0.591-30.92,0.63-46.401,0.61c-8.016-0.011-16.035,0.048-24.052-0.013c-6.966-0.053-13.956-0.735-20.928-0.397
	c-6.748,0.327-13.597,0.852-20.355,0.734c-2.438-0.042-5.928-0.026-8.271-0.767c-0.192-0.061-0.367-0.136-0.534-0.217
	c0.344-7.103-0.56-14.295-0.237-21.45c0.339-7.521-0.363-15.219-0.673-22.75c-0.165-4.008-0.578-8.462,0.475-12.399
	C11.75,293.282,9.705,294.848,11.811,293.947z M12.248,366.183c-2.354-0.308-6.045-0.289-6.485-2.732
	c-0.312-1.733,0.206-2.526,1.191-3.403c1.137-1.012,2.882-1.373,4.753-1.518c5.028,1.313,11.148,0.549,15.904,0.483
	c7.275-0.099,14.518-0.71,21.801-0.841c8.234-0.149,16.507,0.294,24.757,0.289c17.422-0.01,34.813,0.096,52.22-0.55
	c16.543-0.614,33.274-0.329,49.755-1.864c0.296-0.028,0.554-0.109,0.791-0.215c0.135,3.042,0.379,5.746,0.58,8.596
	c-3.229,0.814-7.139,0.356-10.353,0.358l-15.177,0.011c-9.411,0.007-18.822,0.014-28.232,0.021
	c-16.545,0.012-33.074,0.512-49.594,0.893c-16.627,0.384-33.239,0.801-49.886,0.965C20.234,366.715,16.262,366.708,12.248,366.183z
	 M179.152,415.736c-2.214-2.728-4.595-4.964-8.386-2.248c-2.06,1.477-2.809,3.682-3.139,6.105c-0.173,1.264-0.083,3.136,0.061,4.865
	c-2.741-2-5.428-4.615-8.89-3.743c-1.69,0.426-2.52,1.436-3.217,2.988c-0.662,1.475-0.582,5.235-1.029,7.608
	c-1.681-1.743-2.598-4.527-5.584-4.684c-2.54-0.133-5.597,1.887-7.145,4.118c-0.167-0.707-0.567-1.471-0.886-1.976
	c-0.506-0.798-1.775-2.013-2.626-2.436c-2.005-0.997-3.783-0.588-5.44,0.313c-0.402-0.991-1.005-2.061-1.499-2.823
	c-0.691-1.064-1.359-1.82-2.098-2.377c-2.811-4.048-7.302-2.587-11.79-1.139c1.656-3.505,2.9-6.947-2.431-8.933
	c-3.012-1.122-6.015-0.418-8.935,0.635c-1.795,0.648-3.362,1.723-4.909,2.797c0.24-0.582,0.446-1.129,0.547-1.589
	c0.3-1.382,0.557-3.07,0.173-4.461c-0.763-2.762-3.164-3.323-5.88-3.141c-3.305,0.222-7.502,2.054-10.191,3.946
	c-0.268,0.189-0.52,0.402-0.775,0.609c1.638-6.485,2.054-13.367-3.289-14.58c-4.124-0.937-8.329,4.146-10.409,6.857
	c-1.507,1.964-2.717,4.143-3.696,6.414c0.105-0.791,0.206-1.581,0.297-2.373c0.36-3.128,0.583-6.453-1.769-8.862
	c-0.48-0.491-1.21-0.669-1.867-0.493c-4.662,1.24-7.073,6.806-8.762,10.833c-1.542,3.677-2.316,6.903-2.653,10.22
	c-1.775-2.764-4.095-4.657-7.1-3.234c-5.148,2.437-3.712,10.142-2.852,15.69c-3.301-2.223-6.792-5.39-10.15-2.811
	c-2.802,0.943-3.836,3.819-3.936,6.825c-3.762-0.941-8.474-0.328-11.396,0.684c-0.073,0.026-0.143,0.054-0.216,0.08
	c0.02-10.655-0.856-21.411-0.803-32.077c0.03-5.83-0.93-11.48-1.147-17.277c-0.177-4.743,0.141-9.633-0.463-14.341
	c0.3,0.02,0.605,0.038,0.895,0.061c5.683,0.44,11.526-0.047,17.225-0.048c9.179-0.002,18.344-0.579,27.514-0.572
	c18.98,0.014,37.929-1.163,56.922-1.149l34.557,0.026c5.774,0.004,11.551-0.044,17.325,0.013c2.696,0.027,5.729,0.204,8.488-0.282
	c0.249,7.318,1.125,14.467,1.138,21.82c0.007,3.971-0.358,7.753-0.06,11.726c0.18,2.403,0.855,4.524,1.394,6.781
	C179.682,411.908,179.339,413.832,179.152,415.736z M328.717,355.13c-0.391,5.672-0.618,11.412-0.951,17.337
	c-0.421,7.494-1.227,14.703-0.987,22.261c0.093,2.922,0.071,5.587,0.266,8.182c-0.374-0.22-0.77-0.401-1.192-0.529
	c-2.887-0.873-5.081,0.997-6.273,3.482c-0.583,1.217-0.954,2.584-1.288,3.938c-2.056-4.786-4.808-9.538-9.494-10.765
	c-5.039-1.318-5.508,3.036-5.413,7.397c-1.123-1.483-2.519-2.859-3.883-4.112c-2.1-1.931-4.629-3.833-7.654-3.39
	c-6.885,1.011-6.134,7.112-4.621,12.572c-2.049-1.876-4.144-3.588-7.297-2.451c-1.557,0.562-2.681,1.815-3.343,3.288
	c-0.077,0.171-0.119,0.339-0.167,0.509c-1.271-1.671-2.712-3.288-3.794-4.635c-3.098-3.858-5.926-7.663-10.638-9.638
	c-4.084-1.712-7.852-1.715-10.95,1.749c-2.463,2.753-3.639,5.949-4.038,9.29c-1.975-0.729-4.126-0.832-6.56,0.062
	c-1.64,0.602-3.302,1.826-4.584,3.331c-0.06,0.037-0.122,0.068-0.182,0.105c-0.057-0.256-0.139-0.513-0.254-0.772
	c-0.662-1.473-1.786-2.726-3.343-3.288c-3.154-1.139-5.248,0.574-7.297,2.451c1.514-5.46,2.264-11.561-4.621-12.572
	c-3.025-0.445-5.554,1.458-7.654,3.39c-1.364,1.254-2.76,2.629-3.883,4.112c0.093-4.361-0.375-8.717-5.413-7.397
	c-4.686,1.226-7.437,5.979-9.494,10.765c-0.335-1.354-0.704-2.72-1.288-3.938c-1.192-2.485-3.385-4.354-6.273-3.482
	c-0.422,0.128-0.818,0.309-1.192,0.529c0.195-2.595,0.173-5.26,0.266-8.182c0.241-7.559-0.566-14.768-0.987-22.261
	c-0.334-5.925-0.56-11.665-0.951-17.337c-0.312-4.53,0.883-9.972-0.113-14.598c0.134,0.019,0.269,0.037,0.399,0.057
	c11.501,1.752,23.475,1.974,35.086,2.152c5.226,0.081,10.463-0.009,15.695-0.021c6.135,0.765,12.752,0.371,18.381,0.215
	c5.859-0.162,11.805,0.273,17.672,0.35c4.513,0.06,10.235,0.492,14.94-0.528c2.668,0.016,5.335,0.023,7.999-0.018
	c11.61-0.179,23.585-0.4,35.086-2.152c0.13-0.02,0.265-0.038,0.399-0.057C327.835,345.158,329.029,350.601,328.717,355.13z
	 M324.752,336.132c-3.881,0.334-7.851,0.733-11.739,0.89c-14.221,0.578-28.708-0.393-42.963,0.274
	c-5.518-0.095-11.075-0.247-16.567-0.074c-3.456,0.109-6.888,0.109-10.328,0.135c-14.641-0.783-29.542,0.258-44.161-0.335
	c-3.889-0.157-7.858-0.557-11.739-0.89c-2.385-0.205-5.3-0.529-7.682-1.033c-3.363-0.712-3.855-2.18-3.583-5.676
	c0.151-1.933-0.37-3.826,1.957-4.293c3.697-0.743,7.111,0.775,10.836,1.09c4.041,0.342,8.098,0.283,12.143,0.52
	c11.91,0.699,24.203,1.484,36.258,0.738c3.276,0.126,6.554,0.234,9.813,0.326c5.892,0.167,11.769-0.344,17.679-0.065
	c4.867,0.228,10.106,0.642,15.044-0.042c10.473,0.313,21.061-0.352,31.364-0.956c4.045-0.237,8.102-0.179,12.143-0.52
	c3.725-0.315,7.139-1.832,10.836-1.09c2.329,0.468,1.806,2.36,1.957,4.293c0.273,3.496-0.22,4.965-3.583,5.676
	C330.052,335.603,327.137,335.927,324.752,336.132z M496.669,386.065c-0.216,5.797-1.176,11.447-1.147,17.277
	c0.054,10.665-0.822,21.421-0.803,32.077c-0.072-0.026-0.143-0.054-0.216-0.08c-2.922-1.012-7.633-1.626-11.396-0.684
	c-0.101-3.007-1.133-5.882-3.936-6.825c-3.36-2.579-6.849,0.588-10.15,2.811c0.86-5.549,2.296-13.253-2.852-15.69
	c-3.005-1.423-5.325,0.47-7.1,3.234c-0.337-3.318-1.111-6.543-2.653-10.22c-1.689-4.027-4.099-9.594-8.762-10.833
	c-0.658-0.175-1.387,0.002-1.867,0.493c-2.352,2.408-2.129,5.734-1.769,8.862c0.091,0.792,0.192,1.582,0.297,2.373
	c-0.979-2.271-2.189-4.45-3.696-6.414c-2.079-2.711-6.285-7.794-10.409-6.857c-5.342,1.213-4.927,8.096-3.289,14.58
	c-0.255-0.206-0.507-0.42-0.775-0.609c-2.69-1.893-6.887-3.726-10.191-3.946c-2.717-0.182-5.117,0.379-5.88,3.141
	c-0.384,1.39-0.128,3.079,0.173,4.461c0.1,0.46,0.306,1.007,0.547,1.589c-1.547-1.073-3.114-2.149-4.909-2.797
	c-2.92-1.053-5.923-1.758-8.935-0.635c-5.331,1.986-4.087,5.428-2.431,8.933c-4.489-1.448-8.979-2.91-11.79,1.139
	c-0.738,0.558-1.407,1.313-2.098,2.377c-0.495,0.763-1.097,1.833-1.499,2.823c-1.657-0.9-3.435-1.31-5.44-0.313
	c-0.85,0.424-2.12,1.637-2.626,2.436c-0.319,0.505-0.717,1.269-0.886,1.976c-1.549-2.231-4.605-4.251-7.145-4.118
	c-2.986,0.156-3.903,2.941-5.584,4.684c-0.447-2.373-0.368-6.133-1.029-7.608c-0.696-1.552-1.527-2.563-3.217-2.988
	c-3.462-0.87-6.149,1.743-8.89,3.743c0.144-1.729,0.234-3.6,0.061-4.865c-0.33-2.423-1.079-4.628-3.139-6.105
	c-3.791-2.718-6.172-0.481-8.386,2.248c-0.187-1.904-0.53-3.828-1.117-5.635c0.538-2.255,1.214-4.377,1.394-6.781
	c0.298-3.973-0.067-7.756-0.06-11.726c0.012-7.353,0.888-14.501,1.138-21.82c2.759,0.487,5.793,0.308,8.488,0.282
	c5.774-0.057,11.551-0.009,17.325-0.013l34.557-0.026c18.993-0.013,37.941,1.163,56.922,1.149c9.169-0.007,18.334,0.57,27.514,0.572
	c5.698,0.001,11.542,0.488,17.225,0.048c0.289-0.022,0.594-0.041,0.895-0.061C496.528,376.434,496.845,381.323,496.669,386.065z
	 M506.24,363.451c-0.439,2.443-4.132,2.424-6.485,2.732c-4.014,0.526-7.986,0.533-12.022,0.493
	c-16.647-0.164-33.26-0.581-49.886-0.965c-16.521-0.381-33.049-0.88-49.594-0.893c-9.411-0.007-18.822-0.013-28.232-0.021
	l-15.177-0.011c-3.216-0.002-7.125,0.456-10.353-0.358c0.201-2.849,0.445-5.554,0.58-8.596c0.236,0.106,0.496,0.187,0.791,0.215
	c16.481,1.535,33.212,1.25,49.755,1.864c17.407,0.646,34.797,0.54,52.22,0.55c8.25,0.004,16.523-0.438,24.757-0.289
	c7.283,0.131,14.527,0.742,21.801,0.841c4.756,0.064,10.877,0.829,15.904-0.483c1.871,0.146,3.616,0.506,4.753,1.518
	C506.035,360.925,506.553,361.717,506.24,363.451z"/>
<path d="M292.55,299.003c0.417,3.973,0.751,7.293,5.093,8.286c6.255,1.43,13.818,1.616,20.178,1.222
	c0.961-0.06,2.017-0.489,2.468-1.416c1.253-2.573,0.686-6.067,0.646-8.874c-0.004-0.35-0.021-0.701-0.034-1.052
	c0.243-3.013,0.275-6.047,0.236-8.901c-0.074-5.507-1.022-11.513-2.421-16.821c-2.57-9.761-14.786-17.779-22.97-8.948
	c-3.94,4.251-4.342,10.76-4.046,16.348C292.053,285.549,291.85,292.346,292.55,299.003z M297.778,268.751
	c2.658-7.243,10.945-5.635,14.701-0.248c2.505,3.594,3.072,8.582,3.633,12.785c0.599,4.482,0.568,8.55,0.573,13.038
	c0,0.174,0.011,0.358,0.016,0.537c-0.162,2.316-0.121,5.551-0.845,8.013c-3.701,0.135-7.419,0.03-11.12-0.254
	c-1.194-0.092-2.386-0.22-3.582-0.312c-0.418-0.032-2.867-0.227-2.86,0.19c-0.633-1.009-0.611-3.828-0.72-4.88
	c-0.53-5.143,0-10.389-0.325-15.549C296.978,277.747,296.241,272.938,297.778,268.751z"/>
<g>
</g>
<g>
</g>
<g>
</g>
<g>
</g>
<g>
</g>
<g>
</g>
<g>
</g>
<g>
</g>
<g>
</g>
<g>
</g>
<g>
</g>
<g>
</g>
<g>
</g>
<g>
</g>
<g>
</g>
</svg>
