<?xml version="1.0" encoding="iso-8859-1"?>
<!-- Generator: Adobe Illustrator 19.0.0, SVG Export Plug-In . SVG Version: 6.00 Build 0)  -->
<svg version="1.1" id="Layer_1" xmlns="http://www.w3.org/2000/svg" xmlns:xlink="http://www.w3.org/1999/xlink" x="0px" y="0px"
	 viewBox="0 0 511.998 511.998" style="enable-background:new 0 0 511.998 511.998;" xml:space="preserve">
<path style="fill:#FCF3E3;" d="M508.833,448.018c-0.124-1.649-0.338-3.371-0.412-5.181c-0.141-3.445-0.976-7.126-3.56-9.41
	c-1.133-1.002-2.529-1.666-3.677-2.651c-5.974-5.134-4.157-16.735-4.418-23.665c-0.166-4.402-0.331-8.803-0.498-13.204
	c-0.055-1.465-0.09-3.017,0.641-4.287c0.798-1.387,2.33-2.14,3.612-3.097c1.282-0.957,2.451-2.502,1.99-4.035
	c-0.756-2.513-4.672-2.19-6.391-4.173c-2.22-2.558,0.396-6.441,0.289-9.332c-0.141-3.84-0.788-7.855-0.998-11.761
	c-0.434-8.088-1.551-16.084-2.322-24.135c-0.367-3.821-0.166-7.931,2.001-11.098c1.466-2.143,3.864-4.039,3.727-6.633
	c-0.172-3.268-4.158-4.838-5.759-7.692c-1.823-3.251-0.216-7.051,0.171-10.448c0.359-3.149-0.868-6.235-1.067-9.432
	c-0.526-8.43-0.646-16.879-0.729-25.322c-0.022-2.138-0.011-4.396,1.071-6.239c1.083-1.843,3.649-2.993,5.432-1.814
	c1.274-3.093,2.437-6.981,0.225-9.492c-1.075-1.221-2.757-1.807-3.743-3.101c-1.149-1.507-1.086-3.579-0.971-5.471
	c0.567-9.355,3.691-22.27-1.73-30.677c-3.647-5.656-10.426-9.233-17.136-8.734c-6.71,0.499-13.001,5.21-15.078,11.611
	c-3.022,9.311,2.367,18.758,1.482,28.106c-0.366,3.861-2.548,5.249-5.66,7.065c-1.529,0.893-3.057,2.108-3.459,3.833
	c-0.657,2.82,1.875,5.234,3.42,7.682c3.074,4.865,1.855,9.882,1.725,15.215c-0.049,2,0.648,3.841,0.835,5.834
	c0.284,3.029,0.228,6.136,0.179,9.176c-0.068,4.265-0.978,8.963-0.273,13.102c0.653,3.837,0.908,7.131-1.44,10.582
	c-1.734,2.55-4.591,4.961-4.05,7.997c0.273,1.534,1.391,2.753,2.261,4.045c3.161,4.7,2.401,11.224,2.363,16.628
	c-0.048,6.875-1.421,13.681-1.878,20.53c-0.194,2.909-0.892,5.634-1.203,8.47c-0.33,3.017,0.126,5.841-1.91,8.423
	c-2.016,2.557-5.891,4.052-6.108,7.3c-0.18,2.709,2.386,4.69,3.748,7.039c2.184,3.766,0.813,7.452,0.6,11.435
	c-0.207,3.903-0.678,7.373-1.821,11.201c-1.004,3.362-0.752,5.521-0.679,9.03c0.067,3.239-0.893,6.817-3.743,8.704
	c-1.598,1.057-3.558,1.4-5.464,1.583c-4.331,0.417-19.19,0.802-20.481-4.749c-0.379-1.63,0.179-3.314,0.73-4.894
	c3.069-8.801,1.713-18.761,1.731-28.082c0.025-13.163-0.017-26.338-0.87-39.478c-0.433-6.66-1.072-13.31-2.014-19.918
	c-0.807-5.668-0.656-11.972-2.553-17.432c-1.509-4.344-4.776-8.349-9.23-9.49c-1.157-0.296-2.383-0.401-3.445-0.946
	c-1.67-0.856-2.663-2.69-2.977-4.539c-0.948-5.567,0.268-11.859,0.466-17.495c0.033-0.927,0.093-1.93,0.692-2.639
	c0.682-0.806,1.87-0.994,2.636-1.721c1.214-1.15,0.918-3.23-0.044-4.599c-0.961-1.368-2.415-2.298-3.578-3.501
	c-2.614-2.701-2.657-8.298-3.402-11.805c-1.253-5.9-1.05-12.074-3.06-17.877c-1.799-5.195-5.301-10.056-10.356-12.222
	c-2.479-1.063-5.252-1.454-7.544-2.877c-5.085-3.158-3.953-14.125-3.598-19.201c0.104-1.477,0.259-2.989-0.146-4.414
	s-1.522-2.762-2.993-2.923c-2.07-0.227-3.658,1.847-4.313,3.824c-1.268,3.825-0.772,7.977-1.05,11.997
	c-0.278,4.02-1.703,8.438-5.298,10.256c-2.106,1.065-4.584,1.037-6.849,1.698c-6.3,1.837-9.851,8.594-11.161,15.025
	c-1.107,5.436-1.514,11.017-2.497,16.479c-0.27,1.499-0.199,3.192-0.938,4.549c-0.968,1.777-3.099,3.126-4.441,4.626
	c-1.253-4.218-3.3-8.282-3.71-12.649c-0.491-5.224-1.885-10.135-4.85-14.526c-1.065-1.576-2.329-3.149-2.538-5.039
	c-0.309-2.783,1.724-5.206,3.47-7.395c3.733-4.681,6.691-9.973,8.752-15.592c1.009-2.753,2.021-5.728,2.405-8.646
	c0.281-2.138-0.315-4.126-0.418-6.266c-0.6-12.508-3.188-24.235-8.361-35.689c-5.854-12.958-15.126-24.39-26.739-32.617
	c-1.568-1.112-3.324-2.393-3.582-4.297c-0.121-0.893,0.118-1.806-0.006-2.699c-0.178-1.271-2.789-3.068-3.713-4.02
	c-1.673-1.724-3.596-3.191-5.495-4.654c-6.268-4.831-12.638-9.72-19.974-12.69c-2.684-1.086-5.657-2.036-7.351-4.385
	c-2.288-3.171-1.848-9.458,0.169-12.702c1.362-2.19,3.639-3.741,4.779-6.055c1.363-2.767,0.708-6.389-1.537-8.503
	c-0.776-0.73-1.707-1.286-2.425-2.072c-0.717-0.786-1.204-1.922-0.823-2.917c0.536-1.405,2.329-1.706,3.73-2.257
	c5.978-2.349,5.743-10.838,3.578-15.668c-0.369-0.823-0.927-1.714-1.82-1.842c-0.888-0.128-1.705,0.598-2.064,1.421
	c-0.359,0.823-0.396,1.745-0.587,2.623c-0.581,2.688-2.733,4.975-5.381,5.718c-2.648,0.744-5.676-0.089-7.571-2.081
	c-2.18-2.291-2.848-5.831-5.357-7.756c-3.809,5.633-1.93,14.288,3.872,17.836c1.207,0.738,2.622,1.355,3.262,2.617
	c0.858,1.691-0.087,3.758-1.339,5.182c-1.253,1.424-2.854,2.609-3.641,4.334c-1.516,3.321,0.522,7.113,2.598,10.115
	c2.954,4.272,5.378,9.603,2.446,14.49c-1.716,2.861-4.566,4.975-7.519,6.423c-4.218,2.069-8.88,3.093-13.147,5.06
	c-3.563,1.642-6.821,3.935-9.601,6.703c-3.399,3.386-6.054,7.434-9.191,11.064c-4.389,5.082-9.682,9.303-14.301,14.178
	c-1.637,1.726-3.183,3.538-4.633,5.424c-8.848,11.518-13.752,25.651-14.821,40.08c-0.495,6.685-0.902,14.791,1.483,21.082
	c3.198,8.435,6.898,16.717,10.339,25.057c0.629,1.523,1.266,3.204,0.772,4.775c-0.335,1.066-1.141,1.904-1.844,2.772
	c-3.12,3.856-4.385,8.762-4.985,13.594c-0.574,4.621-1.31,7.752-3.255,11.965c-9.972-5.318-5.37-21.371-9.776-29.942
	c-2.78-5.41-9.616-14.158-16.316-14.147c-1.409,0.002-2.885,0.294-4.183-0.254c-1.758-0.743-2.589-2.794-2.761-4.694
	c-0.222-2.458-0.257-5.15-0.022-7.608c0.319-3.305,0.942-6.711-0.027-9.886c-0.338-1.107-0.989-2.263-2.103-2.574
	c-1.199-0.335-2.476,0.492-3.074,1.584c-0.597,1.092-0.675,2.382-0.74,3.626c-0.392,7.446,1.691,18.645-5.742,23.02
	c-2.512,1.478-5.354,2.326-7.872,3.795c-5.481,3.198-8.949,9.111-10.565,15.248c-1.434,5.447-1.263,10.865-1.576,16.423
	c-0.227,4.016-3.04,8.233-5.698,11.206c-1.198,1.34-2.64,3.005-2.024,4.694c0.411,1.126,1.596,1.734,2.449,2.576
	c2.259,2.23,1.592,5.033,1.63,7.844c0.03,2.283,0.776,4.47,0.877,6.775c0.205,4.689-1.05,10.46-5.998,12.329
	c-2.738,1.034-6.099,0.649-8.284,2.597c-1.766,1.575-2.141,4.153-2.378,6.509c-1.389,13.856-2.15,27.835-2.943,41.741
	c-0.809,14.172-0.985,28.373-0.848,42.566c0.068,7.186,0.178,14.43,0.583,21.578c0.125,2.217-0.215,4.713-1.945,6.107
	c-1.297,1.044-3.071,1.219-4.735,1.297c-3.016,0.142-6.04,0.11-9.053-0.097c-2.62-0.18-5.333-0.527-7.551-1.936
	c-4.814-3.059-4.666-10.61-5.605-15.636c-1.224-6.553-2.261-13.139-3.22-19.735c-0.218-1.498-0.428-3.068,0.089-4.489
	c0.65-1.787,2.304-2.97,3.608-4.353c1.305-1.383,2.335-3.467,1.418-5.133c-0.973-1.767-3.428-1.918-5.116-3.024
	c-2.459-1.61-2.947-5.01-2.715-7.939c0.963-12.129-2.404-23.623-3.617-35.655c-0.407-4.037-0.366-8.33,1.617-11.87
	c1.241-2.217,3.278-4.447,2.649-6.908c-0.424-1.656-1.951-2.762-2.866-4.206c-2.133-3.363-0.359-7.331-0.503-10.909
	c-0.188-4.651-0.187-9.304-0.141-13.962c0.102-10.341-5.632-20.422,0.093-30.538c1.324-2.34,3.279-4.82,2.521-7.4
	c-0.696-2.372-3.372-3.533-4.763-5.576c-2.409-3.538-0.547-9.463-0.773-13.541c-0.188-3.384-0.306-6.142,0.018-9.593
	c0.396-4.225,0.254-8.606-1.549-12.523c-2.52-5.473-8.232-9.298-14.246-9.667c-6.015-0.369-12.097,2.675-15.51,7.642
	c-3.411,4.962-4.01,11.141-3.704,17.001c0.311,5.946,2.296,11.816,1.166,17.788c-0.536,2.836-2.375,5.616-5.149,6.411
	c-0.569,1.863-1.077,3.803-0.856,5.738c0.221,1.935,1.323,3.885,3.142,4.584c1.129,0.435,2.492,0.394,3.379,1.216
	c0.918,0.851,0.948,2.269,0.911,3.519c-0.354,12.227,0.659,24.478-0.022,36.684c-0.165,2.96,0.443,5.92-0.323,8.865
	c-0.892,3.427-2.905,5.068-5.062,7.598c-1.624,1.906-1.984,4.796-0.876,7.042c0.631,1.28,1.666,2.313,2.427,3.52
	c2.29,3.633,1.289,7.236,1.424,11.199c0.108,3.215,0.852,6.273,0.79,9.583c-0.164,8.795-1.328,17.555-1.063,26.361
	c0.083,2.781-0.353,5.878-2.486,7.663c-1.788,1.496-4.587,1.911-5.595,4.014c-0.735,1.534-0.159,3.399,0.806,4.799
	s2.29,2.519,3.281,3.902c3.249,4.534,1.693,9.522,2.031,14.59c0.358,5.377-0.601,10.629-0.903,16.036
	c-0.146,2.602-0.338,5.353-1.818,7.499c-1.507,2.187-4.081,3.355-6.015,5.175c-3.04,2.86-4.316,7.208-4.324,11.382
	c-0.013,7.612,1.992,14.96,9.934,17.39c3.166,0.969,6.54,0.929,9.851,0.881c18.539-0.27,37.078-0.539,55.617-0.809
	c36.696-0.534,73.432-1.625,110.131-1.601c35.886,0.023,71.85-1.666,107.838-0.493c9.082,0.296,18.162,0.689,27.237,1.181
	c8.824,0.477,18.24,2.185,27.047,1.721c3.197-0.169,6.345-1.28,9.612-1.533c4.51-0.35,9.025-0.631,13.544-0.826
	c9.037-0.389,18.092-0.435,27.127,0.01c31.13,1.532,62.753,8.802,93.065,1.549c3.999-0.957,8.061-2.226,11.204-4.878
	C508.91,455.502,509.13,451.971,508.833,448.018z"/>
<path style="fill:#A89985;" d="M219.805,426.085c1.156-2.593,0.151-8.275,0.313-11.463c0.241-4.743,0.301-9.482,0.29-14.232
	c-0.018-8.886,1.863-17.469,2.348-26.269c0.494-8.957,0.456-18.569,5.805-26.266c6.284-9.042,14.868-16.601,21.507-25.42
	c2.884-3.83,9.37-10.365,12.089-3.273c3.033,7.912,7.482,13.733,13.427,19.834c5.342,5.481,11.297,9.777,12.536,17.756
	c2.163,13.918,2.236,28.221,2.969,42.235c0.339,6.489-0.567,12.958-0.317,19.427c0.075,1.93,1.163,6.06,0.088,7.85
	c-1.63,2.715-6.921,1.084-9.723,0.743c-14.705-1.793-30.561,0.164-45.277,1.862C230.199,429.523,221.79,430.565,219.805,426.085z"/>
<path style="fill:#DBCEB9;" d="M154,224.159c-7.655,1.839-12.113,18.288-11.369,25.017c1.012,9.156,10.853,13.889,18.637,16.538
	c3.451,1.174,26.855,2.475,19.409,10.649c-3.594,3.945-11.112,0.338-15.423,0.525c-6.133,0.265-14.697,2.467-19.278,6.744
	c-4.84,4.52-4.231,10.612-5.447,16.483c-1.367,6.596-3.027,12.937-4.959,19.473c-4.221,14.28-8.405,29.757-7.567,44.797
	c0.87,15.614,4.124,33.333,16.649,44.087c9.895,8.497,25.506,7.744,35.238,16.742c11.414,10.553-17.818,3.573-21.429,3.398
	c-14.791-0.713-29.331,4.143-44.256,3.225c-8.244-0.507-19.686,0.016-19.716-10.461c-0.019-6.897,1.012-13.858,0.953-20.86
	c-0.071-8.506-1.119-17.068-0.838-25.567c0.596-17.923-0.872-36.162,2.386-53.861c0.856-4.651,0.95-9.023,5.036-11.689
	c2.105-1.372,5.381-1.113,7.325-2.82c3.282-2.881,4.01-8.581,4.046-12.657c0.067-7.471-3.958-15.049-1.184-22.459
	c1.37-3.66,4.169-6.1,4.834-10.159c0.609-3.716-0.36-7.581-0.367-11.314c-0.018-9.448,4.921-16.53,13.211-20.833
	C137.886,225.008,144.58,225.663,154,224.159z"/>
<g>
	<path style="fill:#A89985;" d="M133.736,377.464c-2.873,4.402-6.02,8.725-10.39,11.658c-3.969,2.665-8.521,3.758-11.214,8.123
		c-2.416,3.917-3.455,13.264-2.564,17.665c1.068,5.271,7.831,5.119,12.35,5.134c8.54,0.027,16.975,0.344,25.51-0.067
		c3.973-0.191,10.877,1.048,14.216-1.739c4.162-3.476,2.176-10.245,1.978-14.77c-0.208-4.747,0.676-9.009-4.218-11.443
		c-5.313-2.641-10.741-5.562-15.823-8.683c-2.168-1.331-3.257-3.056-5.012-4.824C135.148,375.074,134.106,377.428,133.736,377.464z"
		/>
	<path style="fill:#A89985;" d="M137.663,314.65c-3.568,10.326-15.714,10.377-21.759,18.119c-4.32,5.533-3.74,15.411-4.883,22.039
		c-1.179,6.831-0.645,10.181,6.694,10.87c9.792,0.919,19.523,2.129,29.413,2.123c5.461-0.003,11.589,0.579,16.439-2.339
		c4.862-2.925,2.709-9.244,2.485-14.362c-0.221-5.055-0.022-10.767-3.928-14.639c-4.51-4.47-10.58-7.414-15.706-11.081
		c-1.96-1.402-3.97-3.078-5.055-5.203C140.063,317.629,140.306,313.759,137.663,314.65z"/>
</g>
<g>
	<path style="fill:#776C5E;" d="M118.939,304.684c-0.085-6.083,0.178-15.331,7.399-16.599c3.762-0.661,5.996,1.659,8.609,4.217
		c3.514,3.44,2.344,7.651,1.463,12.327C130.539,306.411,124.828,304.498,118.939,304.684z"/>
	<path style="fill:#776C5E;" d="M147.024,303.778c-0.789-2.682,0.994-8.693,2.492-11.091c1.832-2.936,6.163-4.765,9.595-4.317
		c3.098,0.404,6.055,2.246,7.536,4.847c1.068,1.877,3.991,7.959,1.607,10.047c-1.364,1.196-8.441,0.741-10.308,0.831
		C155.394,304.218,149.736,305.034,147.024,303.778z"/>
</g>
<path style="fill:#DBCEB9;" d="M43.969,198.185c-5.412-0.271-9.694,9.303-10.908,13.46c-1.795,6.148-0.377,12.385,1.555,18.284
	c1.58,4.823,4.036,10.389,3.694,15.48c-0.427,6.372-3.88,12.746-4.79,19.212c-1.378,9.795,1.018,19.37,1.479,29.067
	c0.462,9.718-3.225,18.395-1.799,28.328c1.601,11.156,5.544,21.517,6.069,32.823c0.609,13.101-4.075,26.475,0.206,39.336
	c2.134,6.409,5.364,12.502,8.506,18.464c1.752,3.323,7.157,10.541,5.412,14.603c-3.678,8.568-29.863,6.504-37.722,5.576
	c-0.301-14.072-1.355-28.573-0.042-42.674c0.965-10.366,2.751-20.498,2.129-31.193c-0.664-11.406-0.456-22.146,0.605-33.401
	c1.684-17.881,2.4-37.006,1.511-54.889c-0.737-14.823,0.03-30.05-1.406-44.791c-0.762-7.823-1.207-14.601,3.91-21.098
	C28.133,197.464,34.428,195.177,43.969,198.185z"/>
<g>
	<path style="fill:#A89985;" d="M23.869,242.448c0-2.906-0.272-7.144,1.345-9.697c0.723-1.142,1.339-1.585,2.534-1.49
		c1.791,0.143,2.14,1.084,2.353,2.672c0.191,1.432,0.716,2.745,0.799,4.18c0.051,0.892,0.423,2.757,0.122,3.591
		C30.457,243.273,24.821,243.356,23.869,242.448z"/>
	<path style="fill:#A89985;" d="M38.464,241.908c0.969-3.161-0.18-6.783,1.051-10.033c0.967-2.552,3.65-1.872,4.968,0.23
		c0.771,1.231,0.225,3.11,0.571,4.531c0.295,1.217,0.828,2.376,0.581,3.682C45.045,243.429,40.406,242.185,38.464,241.908z"/>
	<path style="fill:#A89985;" d="M26.118,310.127c-4.333-1.626-10.523,2.02-11.53,6.472c-1.399,6.181,8.595,5.884,12.607,5.919
		c8.351,0.069,17.289,1.011,25.53-0.539c3.247-0.61,9.187-3.513,8.147-7.872c-0.826-3.46-7.987-3.476-11.021-3.784
		C42.036,309.528,33.803,311.878,26.118,310.127z"/>
	<path style="fill:#A89985;" d="M31.775,243.057c-4.996,0.002-12.072-1.598-16.16,1.945c-4.36,3.778-1.399,8.55,3.291,9.704
		c9.394,2.31,20.791,2.706,30.396,1.819c4.743-0.438,11.597-0.834,9.745-7.563C56.666,240.308,37.712,243.307,31.775,243.057z"/>
</g>
<path style="fill:#DBCEB9;" d="M380.202,228.88c-6.332,1.187-12.248,10.09-13.126,16.136c-1.287,8.855,3.79,17.605,11.146,22.034
	c3.217,1.937,13.343,5.119,12.852,10.231c-0.608,6.325-13.128,2.224-16.765,4.693c-4.782,3.247-8.905,10.827-10.529,16.273
	c-1.207,4.049-1.135,8.117-2.941,11.958c-2.39,5.091-6.419,9.118-8.267,14.655c-2.962,8.874-3.526,18.316-2.617,27.542
	c1.027,10.42,4.938,20.079,5.224,30.605c0.268,9.85-0.544,19.622,6.39,27.475c5.823,6.594,12.63,10.146,21.323,11.685
	c2.259,0.4,12.126,0.526,11.932,4.798c-0.165,3.616-10.871,2.613-12.968,2.616c-8.988,0.014-18.077-0.498-27.073-0.838
	c-7.339-0.278-15.879,1.657-23.105-0.107c-4.871-1.189-3.024-1.786-1.638-6.243c1.66-5.34,1.112-11.304,1.049-16.853
	c-0.165-14.608-2.183-29.013-2.857-43.6c-0.444-9.62,1.089-19.348,0.732-28.925c-0.304-8.172-0.241-16.296,0.342-24.444
	c0.473-6.602,1.566-13.033,1.312-19.716c-0.173-4.55-0.798-9.069-0.769-13.628c0.039-6.075,2.417-5.924,5.857-10.458
	c3.54-4.665,2.832-11.514,3.412-17.011c0.87-8.252,2.356-14.097,9.951-18.407c4.388-2.49,9.098-3.6,14.107-4.235
	C369.79,224.277,373.7,228.705,380.202,228.88z"/>
<g>
	<path style="fill:#A89985;" d="M58.981,377.259c3.064,0.229,7.008,0.716,8.065,3.712c1.82,5.161-3.583,7.88-7.772,8.692
		c-4.705,0.912-10.243,0.739-15.043,0.736c-6.35-0.006-12.697,0.541-19.055,0.279c-3.494-0.143-19.151-1.038-14.828-7.415
		c2.45-3.612,8.142-5.587,12.326-5.74C34.691,377.083,46.982,376.364,58.981,377.259z"/>
	<path style="fill:#A89985;" d="M378.013,377.464c2.873,4.402,6.02,8.725,10.39,11.658c3.969,2.665,8.521,3.758,11.214,8.123
		c2.415,3.917,3.455,13.264,2.564,17.665c-1.068,5.271-7.831,5.119-12.35,5.134c-8.54,0.027-16.975,0.344-25.51-0.067
		c-3.973-0.191-10.877,1.048-14.216-1.739c-4.163-3.476-2.176-10.245-1.978-14.77c0.208-4.747-0.676-9.009,4.218-11.443
		c5.313-2.641,10.741-5.562,15.823-8.683c2.168-1.331,3.257-3.056,5.012-4.824C376.601,375.074,377.644,377.428,378.013,377.464z"/>
	<path style="fill:#A89985;" d="M374.087,314.65c3.568,10.326,15.714,10.377,21.759,18.119c4.32,5.533,3.74,15.411,4.883,22.039
		c1.179,6.831,0.645,10.181-6.694,10.87c-9.792,0.919-19.523,2.129-29.413,2.123c-5.461-0.003-11.589,0.579-16.439-2.339
		c-4.862-2.925-2.709-9.244-2.485-14.362c0.221-5.055,0.022-10.767,3.928-14.639c4.51-4.47,10.58-7.414,15.706-11.081
		c1.96-1.402,3.97-3.078,5.055-5.203C371.687,317.629,371.443,313.759,374.087,314.65z"/>
</g>
<g>
	<path style="fill:#776C5E;" d="M392.811,304.684c0.085-6.083-0.178-15.331-7.399-16.599c-3.762-0.661-5.995,1.659-8.609,4.217
		c-3.514,3.44-2.344,7.651-1.463,12.327C381.211,306.411,386.921,304.498,392.811,304.684z"/>
	<path style="fill:#776C5E;" d="M364.725,303.778c0.789-2.682-0.994-8.693-2.492-11.091c-1.832-2.936-6.163-4.765-9.595-4.317
		c-3.098,0.404-6.055,2.246-7.536,4.847c-1.068,1.877-3.991,7.959-1.607,10.047c1.364,1.196,8.441,0.741,10.308,0.831
		C356.355,304.218,362.014,305.034,364.725,303.778z"/>
</g>
<path style="fill:#A89985;" d="M487.88,242.448c0-2.906,0.272-7.144-1.345-9.697c-0.723-1.142-1.339-1.585-2.534-1.49
	c-1.791,0.143-2.14,1.084-2.353,2.672c-0.191,1.432-0.716,2.745-0.799,4.18c-0.051,0.892-0.423,2.757-0.122,3.591
	C481.293,243.273,486.929,243.356,487.88,242.448z"/>
<path style="fill:#DBCEB9;" d="M483.15,199.13c-12.682,5.251-14.689,25.062-9.975,36.09c1.78,4.166,3.272,5.906,2.405,10.661
	c-1.137,6.239-4.361,12.132-5.075,18.558c-1.599,14.391,4.492,28.027,3.222,42.571c-0.843,9.66-3.89,18.545-3.353,28.447
	c0.565,10.415,4.415,18.107,2.267,28.812c-2.682,13.371-4.463,27.233-2.136,40.782c1.812,10.556,7.415,15.433,14.6,22.154
	c-5.65,5.742-24.82,3.888-32.653,2.836c-4.274-0.574-6.684-0.257-6.864-4.43c-0.228-5.279,3.353-12.728,4.449-17.938
	c1.996-9.479,2.375-19.66,2.885-29.303c0.58-10.935,3.109-21.882,3.098-32.86c-0.01-9.529,0.221-19.204,1.141-28.688
	c1.069-11.02,0.313-21.978,0.853-33.068c0.897-18.43-0.247-36.16,1.533-54.297c0.673-6.858-1.681-15.242,0.818-21.85
	C463.595,199.07,473.241,195.703,483.15,199.13z"/>
<g>
	<path style="fill:#A89985;" d="M473.285,241.908c-0.969-3.161,0.18-6.783-1.051-10.033c-0.967-2.552-3.649-1.872-4.968,0.23
		c-0.771,1.231-0.225,3.11-0.571,4.531c-0.295,1.217-0.828,2.376-0.581,3.682C466.704,243.429,471.344,242.185,473.285,241.908z"/>
	<path style="fill:#A89985;" d="M485.631,310.127c4.333-1.626,10.523,2.02,11.53,6.472c1.398,6.181-8.595,5.884-12.607,5.919
		c-8.351,0.069-17.289,1.011-25.53-0.539c-3.247-0.61-9.187-3.513-8.147-7.872c0.826-3.46,7.987-3.476,11.021-3.784
		C469.713,309.528,477.946,311.878,485.631,310.127z"/>
	<path style="fill:#A89985;" d="M479.975,243.057c4.996,0.002,12.072-1.598,16.16,1.945c4.36,3.778,1.398,8.55-3.291,9.704
		c-9.394,2.31-20.792,2.706-30.396,1.819c-4.743-0.438-11.597-0.834-9.745-7.563C455.083,240.308,474.038,243.307,479.975,243.057z"
		/>
	<path style="fill:#A89985;" d="M452.768,377.259c-3.064,0.229-7.008,0.716-8.065,3.712c-1.821,5.161,3.583,7.88,7.772,8.692
		c4.705,0.912,10.243,0.739,15.043,0.736c6.35-0.006,12.697,0.541,19.055,0.279c3.494-0.143,19.151-1.038,14.828-7.415
		c-2.45-3.612-8.142-5.587-12.326-5.74C477.059,377.083,464.768,376.364,452.768,377.259z"/>
</g>
<g>
	<path style="fill:#DBCEB9;" d="M4.773,453.667c2.501,6.743,8.75,8.305,15.585,9.327c13.008,1.946,26.238,1.534,39.412,1.534
		c27.065,0,53.98-1.417,81.014-1.417c11.065,0,20.761-0.125,31.841,0.454c6.85,0.359,13.77,0.815,20.668,0.515
		c14.797-0.645,29.438-2.754,44.309-2.95c15.428-0.204,30.853,0.376,46.266,0.996c25.741,1.036,51.604,0.513,77.379,0.513
		c41.789,0,84.847,7.654,126.384,1.074c6.593-1.044,17.357-2.886,20.896-9.432c4.131-7.639-7.835-8.978-13.339-9.703
		c-17.419-2.297-34.003-0.599-51.53-0.338c-30.708,0.458-61.348-0.489-92.056-0.491c-32.42-0.002-64.839,0.306-97.259,0.457
		c-16.386,0.076-32.8,0.345-49.184,0.048c-14.357-0.261-28.698,0.352-43.213,0.427c-40.946,0.213-82.471,3.951-123.397,0.917
		c-8.662-0.642-16.905-2.039-25.532-0.484C7.831,446.049,2.009,449.74,4.773,453.667z"/>
	<path style="fill:#DBCEB9;" d="M245.142,104.21c-9.194,2.831-22.735,8.603-26.445,17.473c-2.061,4.928-4.386,5.899-8.948,9.525
		c-5.539,4.402-10.108,9.712-14.678,15.069c-9.621,11.279-14.321,26.21-16.043,40.811c-1.081,9.169,0.042,18.812,2.656,27.722
		c1.54,5.248,2.677,10.834,5.625,15.439c2.496,3.902,6.029,6.537,3.766,11.62c-1.76,3.952-4.77,5.599-5.815,10.032
		c-2.108,8.942-1.504,18.816-1.012,27.97c0.61,11.367,1.773,22.701,2.296,34.12c0.661,14.409-0.469,27.92-1.848,42.265
		c-1.586,16.505-4.25,32.671-4.25,49.3c0,5.249-2.544,14.082,0.475,18.857c2.914,4.609,11.903,4.478,16.758,4.12
		c3.819-0.281,11.22-0.655,13.591-4.119c2.124-3.103,0.19-8.722-0.13-12.063c-1.019-10.641-0.735-22.349-0.24-33.032
		c0.635-13.758,2.857-27.357,5.418-40.876c5.018-26.494,16.83-52.638,33.414-73.983c7.192-9.257,16.399-16.782,27.544-20.691
		c11.021-3.866,22.237-1.173,33.686-4.025c6.958-1.733,10.832-3.234,14.928-9.766c3.378-5.386,6.138-13.817,2.827-19.78
		c-4.361-7.854-15.509-7.249-22.782-4.391c-19.348,7.602-48.409,8.866-63.869-8.584c-13.864-15.648-4.526-43.356,10.702-54.559
		c6.85-5.041,15.184-5.92,23.344-7.178c4.733-0.73,11.131-0.207,15.332-2.929c6.085-3.942,4.403-7.215-0.861-9.09
		c-9.279-3.306-38.349,2.614-41.694-9.906c-1.115-4.172,2.805-6.757,4.231-10.315C249.332,100.114,245.366,103.665,245.142,104.21z"
		/>
</g>
<g>
	<path style="fill:#B5A896;" d="M197.446,274.216c0,31.724,1.822,63.782,0.471,95.405c-0.625,14.646-0.005,29.338-0.707,43.911
		c-0.198,4.095-1.863,10.719,2.09,12.295c0.451,0.18,7.852,0.638,8.54,0.459c2.816-0.731,2.49-1.581,3.065-4.49
		c1.108-5.601,0.024-11.926-0.236-17.541c-0.407-8.771,0.059-17.65-0.367-26.374c-0.725-14.832-0.706-29.527-2.099-44.268
		c-1.233-13.049-0.301-27.132,1.982-39.919c1.713-9.596,4.92-15.712,14.647-14.75c22.03,2.175,43.888-3.242,66.117,0.364
		c7.021,1.139,8.414,2.216,10.212,9.229c1.926,7.512,2.251,15.552,2.601,23.261c0.91,20.092,0.2,40.266-0.671,60.347
		c-0.403,9.3-1.178,18.627-1.28,27.937c-0.071,6.412-3.692,24.291,2.361,27.494c2.302,1.219,9.903,2.483,11.699,0.61
		c2.868-2.99,1.461-13.978,1.629-17.762c1.203-27.123-1.994-54.208-1.994-81.325c0-15.056-0.501-30.108,0-45.108
		c0.14-4.184,1.692-10.244,0.116-14.142c-2.792-6.909-14.787-9.35-21.431-10.333c-11.781-1.745-23.863-1.02-35.694-0.26
		c-11.276,0.724-22.432-0.715-33.792,0.216c-6.842,0.56-18.765,0.417-24.189,5.558C196.876,268.478,197.361,274.773,197.446,274.216
		z"/>
	<path style="fill:#B5A896;" d="M180.445,216.131c43.542,0,87.226,0.549,130.664,1.417c5.141,0.102,13.532,1.67,17.75-1.773
		c2.097-1.711,4.209-5.727,4.012-8.508c-0.418-5.916-6.953-3.678-11.87-3.927c-38.887-1.957-77.872-2.356-116.835-2.803
		c-5.33-0.06-22.708-1.435-25.673,4.005c-5.972,10.96,9.729,12.082,15.173,13.476"/>
	<path style="fill:#B5A896;" d="M115.748,268.549c11.386,0.343,23.126-1.036,34.484-1.312c6.314-0.154,16.827,2.089,22.656-0.813
		c5.837-2.905,1.917-10.657-3.353-11.201c-9.382-0.968-20.162,0.655-29.649,1.073c-5.716,0.252-11.736-0.638-17.297,0.408
		c-3.287,0.617-5.517,1.424-6.842,4.763C113.264,267.721,118.663,267.672,115.748,268.549z"/>
	<path style="fill:#B5A896;" d="M396.258,257.215c-6.645-1.693-15.53,0.487-22.668,0.473c-7.294-0.016-14.646-0.451-21.643-0.105
		c-2.238,0.11-20.515,0.532-14.649,8.167c1.864,2.426,15.887,1.658,19.028,1.831c8.248,0.452,16.678,0.962,24.908,0.863
		c2.54-0.031,12.035,0.843,13.959-0.96C397.68,265.156,395.643,259.372,396.258,257.215z"/>
</g>
<g>
	<path style="fill:#776C5E;" d="M128.421,367.866c-0.62-1.744-0.175-4.292-0.175-6.119c0-2.593-0.058-5.159-0.182-7.74
		c-0.079-1.632-0.036-3.676,0.22-5.218c0.229-1.379,0.366-1.683,2.154-2.384c1.916-0.752,4.107-0.309,6.142-0.534
		c1.542-0.171,3.148-0.195,4.684,0.088c2.743,0.503,2.205,4.788,2.319,7.278c0.183,4.033,1.266,9.219-0.469,13.026
		c-1.868,0.462-4.099,0.662-6.02,0.729C134.217,367.091,130.495,367.867,128.421,367.866z"/>
	<path style="fill:#776C5E;" d="M364.852,366.639c0.949-3.742,0.223-8.147,0.351-12.01c0.072-2.17,0.03-6.554,2.442-7.273
		c1.724-0.514,4.583-0.043,6.322,0.267c0.995,0.178,3.389,0.222,4.21,0.784c1.959,1.339,1.451,7.333,1.558,9.556
		c0.145,2.995,0.2,6.666-1.248,9.35C373.974,366.404,368.956,366.476,364.852,366.639z"/>
	<path style="fill:#776C5E;" d="M243.979,47.088c-2.278,5.667-1.765,11.219,3.151,14.982c1.335,1.022,3.955,1.813,4.882,3.148
		c1.203,1.73-1.083,3.281-2.192,4.703c-3.13,4.014-4.26,9.556-0.768,13.707c1.208,1.435,2.723,2.017,2.968,4.02
		c0.229,1.869-0.274,4.112-0.188,6.046c0.069,1.536-0.287,4.316,0.91,5.428c1.454,1.351,3.905,0.888,4.759-0.687
		c1.466-2.704,0.348-6.284,1.097-9.143c0.659-2.525,3.28-3.559,4.383-5.888c1.427-3.011,0.686-7.554-0.05-10.705
		c-0.596-2.549-2.835-4.61-1.52-7.207c1.526-3.016,5.274-4.054,6.728-7.351c1.371-3.109,0.752-6.079-0.727-9.093
		c-0.366-0.745-1.246-2.79-2.379-2.707c-1.483,0.108-1.716,3.218-2.23,4.388c-1.545,3.513-4.234,5.119-7.982,4.956
		c-2.624-0.114-4.226-0.62-5.835-2.482c-0.749-0.868-1.59-1.685-2.159-2.726C246.105,49.153,246.31,47.122,243.979,47.088z"/>
</g>
<path d="M158.72,329.879c-3.188-2.01-6.755-2.658-9.905-4.657c-4.781-3.034-5.888-6.693-7.572-11.99
	c-0.333-1.045-1.52-1.916-2.655-1.507c-2.992,1.08-3.893,4.238-5.675,6.657c-2.265,3.075-4.818,4.88-7.686,6.505
	c-2.277,0.908-4.595,1.893-6.663,3.481c-0.211,0.162-0.424,0.331-0.637,0.499c-2.039,1.195-3.225,2.132-4.148,3.831
	c-0.908,1.055-1.683,2.196-2.206,3.44c-1.569,3.737-2.158,7.876-2.993,11.813c-1.034,4.874-0.84,10.02-0.924,14.98
	c-0.044,2.646-0.139,4.678,2.376,6.025c2.885,1.544,6.413,0.252,9.418,0.67c4.733,0.658,9.358,0.735,14.129,0.721
	c9.664-0.028,19.504,0.442,28.985-1.831c7.35-1.763,6.987-12.13,6.255-18.312C167.856,342.067,166.047,334.499,158.72,329.879z
	 M141.665,352.449c-0.157,4.316-0.188,8.655-0.131,12.981c-3.735,0.015-7.474-0.046-11.214-0.053
	c-0.05-0.645-0.125-1.286-0.218-1.926c0.688-2.657,0.853-5.377,0.789-8.264c-0.032-1.461-0.589-3.028-0.568-4.437
	c0.024-1.672,0.506-1.625,2.244-1.754c0.909-0.067,1.863,0.137,2.767,0.184c1.549,0.082,3.098-0.284,4.623-0.196
	c1.223,0.071,1.212-0.268,1.7,0.762C141.919,350.296,141.687,351.859,141.665,352.449z M163.781,358.217
	c-0.241,1.4-0.484,4.625-1.435,5.392c-0.87,0.702-3.726,0.709-4.972,0.884c-3.748,0.525-7.508,0.761-11.275,0.866
	c0.005-3.592-0.128-7.187-0.025-10.777c0.059-2.066,0.404-4.243-0.087-6.283c-1.246-5.168-6.125-3.478-10.123-3.61
	c-4.07-0.134-10.149-0.766-10.227,4.979c-0.034,2.577,0.738,5.187,0.84,7.828c0.001,0.367,0,0.733,0.007,1.1
	c-0.031,2.164-0.259,4.439,0.034,6.589c-2.615-0.223-5.192-0.596-7.843-0.82c-1.402-0.118-2.466,0.032-3.84,0.088
	c-0.831,0.142-1.645,0.115-2.443-0.061c0.27-0.008,0.337-0.251,0.19-0.746c-0.646-1.393,0.067-5.014,0.043-6.546
	c-0.011-0.745-0.025-1.48-0.033-2.213c0.73-5.802,1.582-11.447,3.179-17.087c0.009-0.031,0.019-0.057,0.028-0.088
	c2.724-5.92,8.338-7.751,13.945-10.725c3.981-2.111,7.119-5.049,8.285-9.128c1.256,4.331,2.859,8.076,7.043,10.743
	c5.948,3.792,14.222,4.631,17.057,12.096C164.087,345.854,164.71,352.838,163.781,358.217z"/>
<path d="M155.796,386.694c-3.112-1.492-6.314-2.81-9.534-4.095c-2.359-0.942-3.881-1.749-5.325-3.899
	c-0.868-1.293-1.241-3.103-2.318-4.216c-1.641-1.697-3.585-1.548-5.315-0.005c-1.167,1.041-1.626,2.619-2.373,3.926
	c-1.687,2.946-3.871,5.517-6.579,7.565c-0.698,0.528-1.443,0.995-2.203,1.442c-2.778,1.342-5.628,2.68-7.873,4.688
	c-5.216,4.667-6.985,11.769-7.204,18.471c-0.084,2.583-1.051,6.855,0.755,9.104c1.442,1.796,4.723,1.775,6.761,1.998
	c8.579,0.938,17.169,0.376,25.728,0.218c6.653-0.123,15.987,1.707,22.298-1.15c1.979-0.896,2.584-2.06,2.88-4.141
	c0.616-4.334,0.682-9.482,0.64-13.901C166.053,394.743,163.002,390.149,155.796,386.694z M160.991,411.326
	c-0.154,3.876,0.705,5.195-3.634,5.674c-7.087,0.782-14.25,0.001-21.35,0.699c-6.639,0.653-14.436,0.15-21.13-0.454
	c-1.578-0.142-2.895,0.019-3.6-1.175c-0.629-1.067-0.171-3.281-0.159-4.552c0.04-4.372,0.331-8.283,2.488-12.197
	c0.085-0.154,0.183-0.301,0.276-0.451c0.3-0.453,0.614-0.894,0.937-1.323c1.261-1.543,2.903-2.854,4.711-4.062
	c2.056-1.098,4.34-1.937,6.212-3.246c1.395-0.975,2.679-1.963,3.874-3.083c2.56-1.938,4.57-4.197,5.264-7.235
	c0.348-0.509,0.702-0.977,1.057-1.381c0.926,1.44,1.647,3.713,2.549,4.73c1.494,1.683,3.297,2.504,5.357,3.323
	c5.992,2.379,16.111,5.408,17.434,12.437C162.062,403.192,161.155,407.173,160.991,411.326z"/>
<path d="M349.422,368.516c9.481,2.273,19.321,1.803,28.985,1.831c4.771,0.014,9.394-0.063,14.129-0.721
	c3.005-0.418,6.535,0.875,9.418-0.67c2.515-1.346,2.42-3.38,2.376-6.025c-0.084-4.961,0.11-10.106-0.924-14.98
	c-0.835-3.936-1.424-8.076-2.993-11.813c-0.523-1.245-1.299-2.386-2.206-3.44c-0.922-1.698-2.109-2.635-4.148-3.831
	c-0.213-0.167-0.426-0.337-0.637-0.499c-2.068-1.59-4.386-2.574-6.663-3.481c-2.868-1.625-5.42-3.43-7.686-6.505
	c-1.781-2.418-2.683-5.577-5.675-6.657c-1.134-0.409-2.322,0.461-2.655,1.507c-1.686,5.297-2.791,8.956-7.572,11.99
	c-3.149,1.999-6.716,2.647-9.905,4.657c-7.326,4.62-9.136,12.188-10.1,20.326C342.435,356.387,342.072,366.753,349.422,368.516z
	 M377.371,363.033c-0.169,0.91-0.416,1.646-0.558,2.376c-3.313,0.028-6.624,0.048-9.93-0.024c0.761-3.172-0.215-6.761,0.183-10.041
	c0.188-1.54,0.466-4.61,1.847-5.174c1.618-0.661,3.648,0.172,5.226,0.471c0.65,0.123,1.313,0.12,1.967,0.169
	c1.304,0.098,0.19-0.887,0.966,0.113c0.901,1.162,0.423,4.484,0.41,5.74C377.462,358.713,377.745,361.005,377.371,363.033z
	 M349.859,340.7c2.836-7.465,11.108-8.303,17.057-12.096c4.184-2.667,5.786-6.412,7.043-10.743c1.166,4.079,4.304,7.016,8.285,9.128
	c5.608,2.974,11.221,4.805,13.945,10.725c0.009,0.031,0.019,0.057,0.028,0.088c1.597,5.64,2.45,11.284,3.179,17.087
	c-0.008,0.732-0.022,1.468-0.033,2.213c-0.023,1.532,0.689,5.153,0.044,6.546c-0.148,0.495-0.08,0.739,0.19,0.746
	c-0.798,0.177-1.611,0.204-2.443,0.061c-1.375-0.055-2.437-0.206-3.84-0.088c-3.887,0.33-7.611,1-11.535,1.008
	c0.195-0.926,0.555-1.93,0.612-2.709c0.114-1.551,0.001-3.132-0.007-4.685c-0.014-2.554,0.057-5.035-0.489-7.544
	c-1.042-4.796-5.2-4.528-9.397-5.035c-4.114-0.498-8.626,0.326-9.441,4.905c-0.838,4.708-1.477,10.475,0.632,14.974
	c-3.029-0.132-6.055-0.362-9.072-0.786c-1.247-0.175-4.102-0.182-4.972-0.884c-0.952-0.768-1.194-3.993-1.435-5.392
	C347.278,352.838,347.902,345.854,349.859,340.7z"/>
<path d="M397.714,392.098c-2.245-2.008-5.095-3.346-7.873-4.688c-0.76-0.446-1.504-0.913-2.203-1.442
	c-2.709-2.049-4.892-4.619-6.579-7.565c-0.748-1.306-1.206-2.884-2.373-3.926c-1.73-1.543-3.674-1.692-5.315,0.005
	c-1.076,1.113-1.45,2.923-2.318,4.216c-1.444,2.151-2.967,2.958-5.325,3.899c-3.222,1.287-6.422,2.603-9.534,4.095
	c-7.207,3.454-10.258,8.047-10.334,16.003c-0.043,4.419,0.023,9.566,0.64,13.901c0.296,2.081,0.901,3.245,2.88,4.141
	c6.31,2.857,15.644,1.027,22.298,1.15c8.558,0.158,17.149,0.721,25.728-0.218c2.037-0.223,5.318-0.202,6.761-1.998
	c1.806-2.249,0.84-6.521,0.755-9.104C404.698,403.867,402.93,396.765,397.714,392.098z M400.711,416.07
	c-0.704,1.195-2.021,1.032-3.6,1.175c-6.694,0.605-14.49,1.107-21.13,0.454c-7.1-0.698-14.263,0.083-21.35-0.699
	c-4.339-0.478-3.48-1.798-3.634-5.674c-0.164-4.153-1.072-8.134-0.288-12.298c1.322-7.029,11.442-10.057,17.435-12.437
	c2.061-0.819,3.863-1.64,5.357-3.323c0.902-1.016,1.623-3.29,2.549-4.73c0.355,0.404,0.708,0.874,1.057,1.381
	c0.694,3.04,2.705,5.298,5.264,7.235c1.196,1.119,2.479,2.108,3.874,3.083c1.872,1.309,4.157,2.148,6.212,3.246
	c1.809,1.208,3.451,2.519,4.711,4.062c0.323,0.429,0.638,0.87,0.937,1.323c0.092,0.15,0.19,0.296,0.276,0.451
	c2.157,3.913,2.449,7.825,2.488,12.197C400.881,412.789,401.34,415.003,400.711,416.07z"/>
<path d="M511.277,443.601c-0.167-2.795-0.117-5.589-0.896-8.319c-1.048-3.668-3.405-5.807-6.99-7.135
	c-0.798-0.296-1.615-0.522-2.444-0.702c0.249-5.457-0.748-10.808-1.348-16.251c-0.697-6.318,0.456-12.979-1.301-19.135
	c2.723-0.622,4.566-2.078,5.766-6.22c1.454-5.02-2.065-7.543-6.53-8.611c1.168-9.452-0.493-19.027-0.73-28.426
	c-0.121-4.795-0.014-9.628-0.051-14.43c-0.027-3.407-0.777-5.894-1.501-8.959c1.51-0.2,3.078-0.577,4.059-1.413
	c3.2-2.729,1.396-11.059-1.235-13.667c-0.885-0.878-2.122-1.441-3.527-1.809c0.206-8.948-0.01-17.94-0.174-26.887
	c-0.138-7.504,0.551-15.692-0.59-23.218c1.709-0.019,3.363-0.238,4.996-1.294c2.123-1.372,2.838-3.027,2.748-5.449
	c-0.08-2.142-0.267-5.445-1.566-7.267c-1.045-1.467-2.803-2.294-4.791-2.761c1.105-2.208,1.199-4.239,1.016-6.736
	c-0.24-3.275-0.142-6.62-0.522-9.884c-0.009-0.081-0.026-0.164-0.041-0.246c3.706-4.03,0.535-15.207-1.244-18.912
	c-2.312-4.814-6.44-8.237-11.31-9.959c0.294-1.912-0.056-4.143-0.361-5.72c-0.451-2.332-0.515-5.02-1.573-7.161
	c-0.043-0.088-0.106-0.14-0.157-0.213c-0.322-2.066-3.143-3.32-4.356-1.044c-1.928,3.618-1.733,8.894-1.581,12.888
	c-6.097,0.227-11.563,3.172-15.261,8.305c-4.871,6.76-4.311,13.506-2.881,21.297c0.097,0.525,0.313,0.905,0.593,1.187
	c-0.731,5.044,0.27,10.264-0.599,15.159c-0.009,0.028-0.009,0.054-0.017,0.081c-2.348,0.257-4.42,1.197-5.682,3.76
	c-1.972,4.006-1.859,12.645,3.258,13.97c0.456,0.118,0.917,0.213,1.381,0.292c-0.832,2.593-0.914,5.264-1.033,8.127
	c-0.218,5.255-0.492,10.528-0.527,15.788c-0.031,4.522,0.446,8.699,0.022,13.182c-0.413,4.366-0.038,8.795,0.107,13.174
	c-0.121,0.038-0.233,0.084-0.335,0.141c-3.946,0.94-4.332,4.514-4.266,8.308c0.074,4.246,1.988,5.892,4.775,6.676
	c-0.989,2.654-0.522,5.588-0.999,8.703c-0.818,5.33-1.373,10.843-1.578,16.246c-0.195,5.138-1.109,10.222-1.328,15.363
	c-0.125,2.956,0.063,7.554-0.672,10.481c-0.027,0.11-0.043,0.216-0.06,0.322c-2.482,0.161-4.762,0.793-5.964,2.345
	c-2.207,2.851-0.952,8.697,1.57,10.841c0.943,0.801,2.065,1.402,3.302,1.857c-3.042,5.068-2.603,12.259-3.455,17.915
	c-0.899,5.958-2.655,12.637-2.283,18.676c-4.428-0.017-8.859-0.022-13.298-0.03c-2.931-0.006-5.838,0.044-8.729,0.158
	c0.229-1.11,0.375-2.226,0.468-3.279c1.082-12.195-0.352-24.436,0.825-36.595c0.566-5.85-0.192-11.563-0.571-17.375
	c-0.425-6.514-0.023-13.1-0.486-19.614c-0.763-10.696-1.641-21.303-3.768-31.826c-0.826-4.081-0.79-9.161-4.358-11.978
	c-3.13-2.471-7.564-2.75-11.572-2.914c0.42-3.396-0.361-6.949-0.354-10.377c0.006-2.734,0.78-6.651,0.173-9.69
	c1.794-0.253,3.297-1.018,4.039-2.6c1.99-4.235-3.231-9.076-5.271-12.21c-3.795-5.829-2.066-14.277-3.083-20.92
	c-1.117-7.298-4.408-13.748-10.354-18.037c-4.036-2.911-8.437-4.946-12.997-6.12c0.35-1.105-0.005-2.488-0.167-3.622
	c-0.022-0.154-0.031-0.311-0.044-0.466c0.35-3.512-0.219-7.797-0.363-9.429c-0.329-3.706-0.003-13.835-6.012-13.061
	c-4.539,0.584-5.082,6.019-5.19,9.647c-0.106,3.541-0.199,6.859-0.638,10.398c-0.22,1.773-0.868,3.788-0.522,5.537
	c-4.855,0.481-9.69,1.895-14.285,4.309c-6.413,3.37-9.054,11.334-10.058,18.068c-0.649,4.349-1.159,8.642-1.675,12.994
	c-0.297,2.507-1.468,5.23-3.321,7.196c-0.035-2.967-0.129-5.917-0.592-8.904c-0.993-6.397-1.286-13.919-7.417-17.513
	c1.979-1.69,3.616-3.969,4.924-7.206c2.223-5.503,4.523-10.83,6.095-16.696c4.701-17.544,3.175-36.953-5.059-53.225
	c-3.991-7.888-9.077-14.659-14.972-21.153c-4.558-5.019-9.735-9.777-15.846-12.654c0.163-0.194,0.319-0.394,0.45-0.621
	c4.044-6.973-10.115-13.417-14.301-15.753c-6.691-3.733-13.147-7.828-20.31-10.506c-1.132-0.967-2.654-1.674-4.221-2.159
	c-0.73-3.228,0.188-6.792-0.943-9.948c3.179-1.138,5.931-3.512,7.077-6.865c1.681-4.92-0.473-11.367-4.428-14.709
	c1.33-0.245,2.57-0.803,4.128-2.182c2.155-1.909,4.907-5.067,5.232-8.079c0.302-2.805-1.617-5.944-2.758-8.429
	c-1.008-2.197-1.557-4.768-4.081-5.477c-1.089-0.305-1.896,0.532-2.012,1.533c-0.582,5.013-2.326,10.63-8.523,10.292
	c-4.637-0.253-7.119-6.323-7.489-10.167c-0.101-1.05-1.346-1.746-2.177-0.902c-1.793,1.818-3.251,3.997-3.959,6.469
	c-0.717,2.508-0.436,5.301,0.112,7.826c0.212,0.977,0.407,1.966,0.769,2.901c0.362,0.934,0.776,1.303,1.529,1.872
	c1.544,1.165,2.951,2.263,4.803,2.935c1.163,0.421,2.32,0.768,3.466,1.016c-1.998,1.387-3.642,3.295-4.859,5.39
	c-1.157,1.993-1.36,4.233-1.422,6.505c-0.031,1.105,0.089,2.224,0.387,3.289c0.147,0.523,0.341,1.027,0.587,1.512
	c0.21,0.415,0.306,0.861,0.528,1.265c0.506,0.917,1.238,1.746,2.034,2.42c0.394,0.334,0.815,0.634,1.26,0.9
	c0.118,0.071,1.306,0.615,1.304,0.65c-0.077,1.235-0.057,2.467,0.006,3.699c-0.01,0.167-0.026,0.326-0.033,0.502
	c-0.084,1.91-0.262,3.882-0.099,5.801c-1.835,0.671-3.532,1.692-5.1,2.913c-6.399,2.657-12.29,6.34-18.371,9.733
	c-4.185,2.336-18.345,8.779-14.301,15.753c0.131,0.227,0.287,0.427,0.45,0.621c-6.111,2.876-11.288,7.634-15.846,12.654
	c-5.897,6.494-10.982,13.265-14.972,21.153c-8.234,16.273-9.759,35.681-5.059,53.225c1.572,5.865,3.871,11.193,6.095,16.696
	c1.307,3.237,2.944,5.515,4.924,7.206c-6.133,3.593-6.424,11.115-7.417,17.513c-0.464,2.986-0.557,5.936-0.592,8.904
	c-1.853-1.967-3.024-4.69-3.321-7.196c-0.516-4.353-1.026-8.645-1.675-12.994c-1.004-6.734-3.647-14.698-10.058-18.068
	c-4.594-2.414-9.429-3.829-14.285-4.309c0.346-1.748-0.302-3.764-0.522-5.537c-0.438-3.538-0.532-6.857-0.639-10.398
	c-0.108-3.628-0.65-9.063-5.19-9.647c-6.01-0.774-5.684,9.356-6.012,13.061c-0.206,2.321-1.278,10.012,0.671,13.205
	c-5.005,1.109-9.84,3.255-14.242,6.431c-5.946,4.288-9.237,10.739-10.354,18.037c-1.017,6.643,0.712,15.091-3.083,20.92
	c-2.04,3.134-7.26,7.974-5.271,12.21c0.743,1.581,2.246,2.347,4.04,2.6c-0.607,3.04,0.167,6.956,0.173,9.69
	c0.007,3.428-0.774,6.981-0.354,10.377c-4.008,0.164-8.442,0.443-11.572,2.914c-3.567,2.816-3.533,7.897-4.358,11.978
	c-2.127,10.522-3.005,21.129-3.768,31.826c-0.465,6.513-0.062,13.1-0.486,19.614c-0.379,5.813-1.137,11.525-0.571,17.375
	c1.176,12.158-0.256,24.401,0.825,36.595c0.093,1.051,0.24,2.168,0.468,3.279c-2.89-0.114-5.798-0.164-8.729-0.158
	c-4.439,0.008-8.869,0.013-13.298,0.03c0.371-6.039-1.386-12.718-2.285-18.676c-0.853-5.656-0.413-12.847-3.455-17.915
	c1.238-0.456,2.36-1.057,3.303-1.857c2.521-2.143,3.778-7.99,1.57-10.841c-1.203-1.552-3.483-2.184-5.964-2.345
	c-0.017-0.107-0.033-0.213-0.06-0.322c-0.735-2.927-0.547-7.524-0.672-10.481c-0.219-5.141-1.132-10.225-1.328-15.363
	c-0.205-5.403-0.761-10.916-1.578-16.246c-0.477-3.114-0.009-6.05-0.999-8.703c2.788-0.784,4.701-2.431,4.775-6.676
	c0.066-3.792-0.32-7.368-4.266-8.308c-0.101-0.057-0.214-0.104-0.335-0.141c0.145-4.379,0.52-8.808,0.107-13.174
	c-0.425-4.484,0.052-8.66,0.022-13.182c-0.035-5.26-0.31-10.533-0.527-15.788c-0.118-2.863-0.2-5.533-1.033-8.127
	c0.465-0.079,0.926-0.173,1.381-0.292c5.117-1.326,5.232-9.964,3.258-13.97c-1.263-2.564-3.333-3.503-5.682-3.76
	c-0.008-0.027-0.008-0.054-0.017-0.081c-0.869-4.894,0.132-10.115-0.599-15.159c0.28-0.281,0.497-0.662,0.593-1.187
	c1.429-7.791,1.99-14.536-2.881-21.297c-3.698-5.133-9.163-8.078-15.261-8.304c0.153-3.994,0.347-9.27-1.581-12.888
	c-1.213-2.275-4.034-1.022-4.356,1.044c-0.051,0.074-0.114,0.125-0.157,0.213c-1.058,2.141-1.123,4.829-1.573,7.161
	c-0.304,1.577-0.655,3.808-0.361,5.72c-4.87,1.722-8.998,5.145-11.31,9.959c-1.779,3.705-4.949,14.881-1.244,18.912
	c-0.016,0.083-0.032,0.166-0.041,0.246c-0.379,3.264-0.281,6.609-0.522,9.884c-0.183,2.497-0.089,4.528,1.016,6.736
	c-1.988,0.467-3.746,1.294-4.791,2.761c-1.299,1.822-1.486,5.125-1.566,7.267c-0.09,2.422,0.625,4.077,2.748,5.449
	c1.632,1.055,3.286,1.274,4.996,1.294c-1.141,7.526-0.452,15.714-0.591,23.218c-0.164,8.947-0.38,17.939-0.174,26.887
	c-1.404,0.368-2.642,0.93-3.527,1.809c-2.63,2.608-4.435,10.938-1.235,13.667c0.981,0.836,2.549,1.213,4.059,1.413
	c-0.724,3.066-1.474,5.552-1.501,8.959c-0.038,4.803,0.069,9.636-0.051,14.43c-0.237,9.399-1.9,18.972-0.73,28.426
	c-4.465,1.067-7.984,3.59-6.53,8.611c1.2,4.142,3.044,5.599,5.766,6.22c-1.756,6.154-0.604,12.817-1.301,19.135
	c-0.6,5.444-1.598,10.794-1.348,16.251c-0.828,0.18-1.646,0.405-2.444,0.702c-3.585,1.328-5.943,3.467-6.99,7.135
	c-0.78,2.73-0.729,5.523-0.896,8.319c-0.17,2.846-0.83,5.711-0.7,8.571c0.18,3.947,0.788,8.519,4.079,11.094
	c4.005,3.135,10.72,3.509,15.548,4.275c11.043,1.753,23.52,2.16,34.603,0.629c6.383-0.883,13.172-0.157,19.618-0.19
	c7.152-0.035,14.303-0.071,21.455-0.106c13.167-0.065,26.361-0.579,39.491-0.523c14.225,0.06,28.408-0.531,42.631-0.498
	c12.853,0.03,26.292,1.052,39.227-0.058c0.017,0.001,0.034,0.001,0.051,0.002c11.095,0.539,22.216,0.617,33.366,0.625
	c10.908,0.008,21.836-0.743,32.744-0.749c2.866-0.002,5.694-0.132,8.523-0.287c14.141,1.748,29.03,0.5,43.207,0.468
	c14.222-0.033,28.404,0.558,42.631,0.498c13.131-0.056,26.323,0.458,39.491,0.523c7.152,0.035,14.304,0.071,21.455,0.106
	c6.446,0.032,13.235-0.692,19.618,0.19c11.083,1.532,23.561,1.124,34.603-0.629c4.828-0.766,11.541-1.14,15.548-4.275
	c3.291-2.576,3.899-7.146,4.079-11.094C512.107,449.312,511.447,446.447,511.277,443.601z M462.442,207.366
	c2.675-5.208,8.987-8.533,14.676-7.939c7.141,0.746,12.259,4.997,14.309,11.935c0.981,3.321,0.207,7.695,0.87,11.272
	c-5.513-0.563-11.327,0.046-16.832,0.019c-4.436-0.021-9.156-0.557-13.643-0.216C461.992,217.229,459.723,212.661,462.442,207.366z
	 M488.949,235.056c-0.557-2.115-2.316-4.801-4.631-5.219c-2.085-0.377-3.68,1.355-4.366,3.136c-0.995,2.578,0.15,5.298-0.518,7.901
	c-1.585,0.01-3.172,0.052-4.754,0.099c0.609-1.389,1.147-2.414,0.836-4.139c-0.224-1.247-0.458-2.578-0.821-3.798
	c-0.683-2.288-2.264-4.371-4.894-4.061c-2.573,0.303-3.51,2.951-3.976,5.152c-0.475,2.242-1.132,4.619-1.055,6.938
	c-0.937-0.058-1.905-0.149-2.902-0.248c0.786-4.399-0.312-9.16,0.145-13.733c4.33-0.471,9.18,0.167,13.451,0.147
	c4.995-0.023,10.664-0.793,15.732-0.221c0.025,3.396-0.421,7.288,0.237,10.671c-0.126,0.438-0.246,0.883-0.33,1.355
	c-0.122,0.684-0.129,1.384-0.145,2.082c-0.62-0.027-1.232-0.039-1.826-0.041C489.626,239.169,489.395,236.75,488.949,235.056z
	 M482.338,237.143c-0.121-1.135-0.424-3.919,1.077-4.471c1.889-0.695,2.837,3.341,2.947,4.46c0.131,1.326,0.158,2.65,0.188,3.978
	c-0.05,0.001-0.109,0.002-0.158,0.003c-1.307-0.117-2.63-0.174-3.956-0.207C482.649,239.663,482.473,238.413,482.338,237.143z
	 M472.544,241.037c-1.361,0.04-2.708,0.068-4.046,0.084c-0.116-2.525,0.133-8.792,1.847-8.868
	C472.27,232.166,472.315,238.774,472.544,241.037z M456.861,247.806c0.248-0.921,0.397-1.527,0.501-1.926
	c0.411-0.058,0.819-0.15,1.213-0.253c0.084-0.022,0.167-0.047,0.252-0.069c0.169-0.001,0.355-0.015,0.581-0.063
	c2.526-0.528,5.872,0.107,8.487,0.043c3.192-0.076,6.382-0.23,9.574-0.298c2.165-0.046,4.354-0.025,6.537-0.076
	c2.442,0.169,4.874,0.383,7.29,0.704c3.599,0.478,5.046,0.235,5.022,4.157c-0.015,2.306,0.134,2.845-3.007,3.052
	c-2.277,0.15-4.464-0.317-6.758,0.031c-2.628,0.397-5.104,0.862-7.785,0.88c-6.185,0.041-12.386-0.157-18.545-0.63
	c-2.222-0.171-3.168-0.018-3.948-1.342C455.76,251.143,456.816,247.973,456.861,247.806z M489.099,281.637
	c-0.161,8.736-0.366,17.516-0.183,26.254c-2.318-0.039-4.555,0.081-6.162,0.033c-7.234-0.218-14.699-0.133-22.001,0.42
	c0.112-4.656,0.233-9.258,0.653-13.876c0.328-3.614-0.437-7.233-0.525-10.866c-0.117-4.849-0.262-9.697-0.445-14.545
	c-0.118-3.13,0.184-6.759-0.328-9.997c1.753,0.04,3.511,0.013,5.215,0.121c4.502,0.286,8.923,0.542,13.449,0.491
	c3.732-0.042,7.251-1.149,10.926-1.287C488.545,265.922,489.236,274.114,489.099,281.637z M455.567,313.766
	c0.757-0.609,4.204-0.741,5.138-0.83c1.698-0.163,3.407-0.215,5.119-0.23c7.048,0.383,14.157,0.49,21.07,0.743
	c2.439,0.089,5.56-0.859,7.297,1.179c0.864,1.014,1.545,4.64,1.151,5.022c-1.147,1.112-4.885,0.44-6.367,0.481
	c-2.384,0.066-4.722,0.54-7.124,0.588c-4.67,0.092-9.218-0.459-13.86-0.565c-3.636-0.083-12.206,0.326-12.941-3.502
	C454.883,315.776,455.313,313.97,455.567,313.766z M458.962,324.818c0.388,0.04,0.78,0.08,1.178,0.122
	c6.954,0.724,13.903,1.33,20.888,1.262c3.496-0.034,7.028-0.24,10.52-0.479c-0.481,2.799,0.009,5.829-0.157,8.65
	c-0.281,4.792-0.358,9.632-0.426,14.43c-0.058,4.033,0.622,7.956,0.573,12.005c-0.064,5.186-0.509,10.55,0.025,15.72
	c-2.902-0.097-5.833,0.022-8.701-0.159c-3.628-0.229-7.277-0.638-10.907-0.724c-4.995-0.118-9.957-0.331-14.92-0.3
	c0.749-3.048,0.626-7.184,0.698-10.106c0.121-4.903,0.868-9.8,0.891-14.698c0.026-5.909,0.227-11.869,0.589-17.752
	C459.347,330.596,459.414,327.469,458.962,324.818z M448.707,382.472c-0.729-3.73,5.653-3.077,8.85-3.253
	c6.809,0.766,13.589,1.555,20.466,1.946c5.469,0.312,11.986-0.163,17.304,1.006c0.647,0.142,3.616,0.723,3.817,1.422
	c0.039,0.136-0.806,1.36-0.937,1.635c-0.966,2.029-1.591,1.533-3.96,1.722c-11.087,0.883-22.241-0.476-33.332-0.902
	C457.838,385.931,449.476,386.411,448.707,382.472z M492.942,411.195c0.315,5.207,0.582,10.466,0.95,15.679
	c-2.606,0.038-5.217,0.239-7.718,0.274c-6.16,0.089-12.45,0.525-18.605,0.229c-5.719-0.276-11.439-0.399-17.165-0.465
	c1.239-5.191,1.197-10.868,1.64-16.131c0.556-6.595,1.417-12.901,1.23-19.494c4.742,0.618,10.066,0.177,13.794,0.432
	c8.34,0.569,16.787,1.596,25.164,0.97c0.673-0.05,1.309-0.091,1.921-0.133C492.545,398.315,492.59,405.385,492.942,411.195z
	 M366.245,203.816c0.166-0.736,0.31-2.469,1.403-2.608c0.198-0.025,0.609,3.942,0.681,4.661c0.241,2.418,0.377,4.83,0.412,7.259
	c0.047,3.213,0.125,6.331,0.705,9.464c-1.279-0.172-2.567-0.263-3.858-0.301c0.904-2.515,0.708-5.905,0.859-8.167
	C366.668,210.808,365.507,207.087,366.245,203.816z M341.999,247.433c0.821-8.357,3.402-15.453,11.909-18.217
	c6.777-2.203,12.78-2.74,19.709-0.73c7.184,2.084,13.484,5.921,16.499,12.974c2.788,6.522,2.38,13.401,3.091,20.321
	c0.173,1.68,0.471,3.079,0.871,4.362c-3.989-0.384-10.997,0.186-11.646,0.21c-5.318,0.192-10.974,0.011-16.287-0.329
	c-5.678-0.363-11.515-0.219-17.161-0.735c-3.27-0.298-6.711-1.223-9.957-0.666C341.275,259.108,341.612,251.38,341.999,247.433z
	 M331.773,270.913c0.756-0.023,1.452-0.161,2.093-0.396c1.171-0.268,2.316-0.594,3.528-0.991c0.494-0.162,1.295-0.347,1.966-0.671
	c3.116,1.068,6.79,1.045,9.98,1.174c5.322,0.215,10.614-0.077,15.945,0.264c5.577,0.358,11.566,0.419,17.147,0.116
	c3.283-0.178,6.421-0.948,9.725-0.837c1.315,0.044,2.368,0.198,3.443,0.148c0.753,1.375,1.672,2.747,2.759,4.345
	c0.546,0.801,2.092,2.454,2.117,3.44c0.043,1.703,0.549,1.181-1.914,1.212c-0.82,0.01-1.647,0.003-2.472,0.015
	c-4.399-0.836-10.394,0.009-13.056,0.144c-4.296,0.217-9.212,0.085-13.559-0.368c-1.93-0.202-3.585-0.753-5.488-0.752
	c-2.377,0.003-4.743,0.449-7.174,0.369c-8.185-0.268-16.405-1.09-24.514-1.167c-0.108-0.001-0.21,0.013-0.311,0.024
	c-0.154-2.011-0.328-4.022-0.397-6.043C331.651,270.935,331.712,270.922,331.773,270.913z M393.355,297.223
	c-0.099-2.012,0.059-4.631-0.907-6.436c-1.632-3.05-5.078-4.641-8.332-4.821c-4.574-0.254-7.585,0.748-9.979,4.949
	c-1.051,1.845-1.174,4.768-1.795,6.848c-0.499,1.67-0.897,3.263-0.456,4.949c-2.143-0.035-4.287-0.092-6.429-0.164
	c0.263-0.426,0.868-4.792,0.781-5.331c-0.32-1.987-0.979-4.292-2.012-6.047c-1.916-3.257-6.261-4.223-9.75-4.677
	c-9.328-1.214-15.379,6.263-13.158,15.157c-3.019-0.109-5.922-0.214-8.945,0.106c-0.254-5.85-0.544-11.69-0.205-17.594
	c0.015-0.259,0.016-0.516,0.025-0.774c2.667,0.848,5.835,0.774,8.599,0.785c4.208,0.017,8.371,0.457,12.605,0.418
	c3.363-0.032,6.709-0.266,10.034-0.427c3.322-0.161,6.698,0.166,10.12-0.013c2.043-0.107,4.042,0.293,6.014,0.285
	c2.025-0.008,3.972-0.549,6.025-0.678c2.784-0.175,7.464-0.853,10.042,0.206c0.171-0.028,0.322-0.049,0.46-0.064
	c0.137,0.333,0.274,0.663,0.416,0.991c0.047,1.331,0.076,2.663,0.083,3.995c0.024,2.065-0.092,4.148,0.019,6.209
	c0.138,2.569,0.215,5.447,0.676,8.113c-1.254-0.061-2.508-0.108-3.762-0.15C393.868,301.078,393.458,299.297,393.355,297.223z
	 M377.035,300.395c0.211-2.493,1.247-4.862,1.534-7.362c1.11-1.403,2.162-2.491,4.175-2.7c1.883-0.196,3.685,0.038,5.014,1.503
	c1.76,1.939,1.417,4.651,1.845,7.133c0.239,1.386,0.711,2.65,1.03,4.005c-4.519-0.113-9.04-0.147-13.561-0.192
	C377.127,301.982,376.975,301.103,377.035,300.395z M346.903,293.35c1.965-2.989,6.228-2.537,9.183-1.849
	c3.631,0.845,4.624,2.07,5.566,5.723c0.473,1.834,0.367,3.604,1.129,5.224c-0.329-0.015-0.658-0.022-0.987-0.038
	c-5.284-0.257-10.477-0.492-15.772-0.614C346.677,299.167,345.433,295.588,346.903,293.35z M332.65,311.87
	c0.003-1.782-0.039-3.559-0.095-5.334c9.548,1.517,19.659,1.369,29.238,1.902c6.831,0.38,13.656,0.085,20.489,0.643
	c6.214,0.507,12.431,1.209,18.629,1.92c5.25,0.602,8.709,0.159,10.44,5.389c1.514,4.573,2.672,10.278,3.003,15.078
	c0.728,10.553,0.814,21.127,0.555,31.73c-0.139,5.653,0.432,11.209,0.298,16.844c-0.125,5.299-0.899,10.5-0.943,15.805
	c-0.05,5.904,0.19,11.805,0.101,17.711c-0.042,2.762,0.443,10.374-1.247,12.581c-0.671,0.876-1.786,1.386-3.108,1.683
	c-0.855,0.099-1.709,0.215-2.564,0.333c-2.951,0.161-6.219-0.212-8.13-0.083c-5.429,0.366-10.553,0.177-15.996-0.148
	c-11.78-0.7-23.992,0.409-35.676-0.912c-4.801-0.543-9.603-1.019-14.403-1.475c0.146-2.275,0.832-4.33,0.789-6.652
	c-0.049-2.569-0.416-5.166-0.574-7.72c-0.298-4.829-0.623-9.613-0.707-14.461c-0.076-4.404-0.259-8.629-0.829-12.954
	c-0.657-4.97-0.198-9.981-0.429-14.984C330.609,349.779,332.618,330.851,332.65,311.87z M264.113,103.962
	c3.961,3.051,8.113,5.722,12.29,8.605c3.796,2.619,8.211,4.572,11.858,7.392c1.165,0.901,2.214,2.171,3.459,2.964
	c0.019,0.038,0.035,0.063,0.055,0.099c-1.738-0.789-5.89-0.966-7.695-0.945c-3.065,0.035-3.708,0.51-5.447,2.614
	c-1.127,1.364-0.982,2.06-2.355,1.965c-0.78-4.747-4.805-8.894-7.603-12.582c-1.856-2.445-3.899-4.907-5.644-7.426
	c-0.664-0.958-1.228-1.977-1.794-3.003C262.192,103.774,263.148,103.896,264.113,103.962z M264.35,113.907
	c2.865,3.781,5.642,7.807,8.67,11.514c-0.705-0.397-1.408-0.788-2.039-0.976c-0.363-0.108-0.72-0.195-1.071-0.262
	c-0.041-0.03-0.066-0.074-0.113-0.098c-4.963-2.657-8.781,0.965-13.323,2.371c-0.547,0.17-1.08,0.257-1.605,0.303
	c0.33-0.862,0.654-1.722,0.826-2.574c0.658-3.262-0.1-7.007,0.323-10.338c0.409-3.217,1.002-7.199,0.664-10.807
	c0.339,0.038,0.679,0.073,1.018,0.116c0.403,1.285,0.753,2.725,1.378,3.813C260.478,109.401,262.636,111.645,264.35,113.907z
	 M253.975,94.514c0.031-0.538,0.079-1.073,0.146-1.61c0.105-0.831-0.021-1.698,0.253-2.507c0.269-0.796,1.03-0.957,1.774-1.028
	c0.326-0.032,0.779-0.164,0.988,0.154c0.206,0.313,0.064,1.016,0.066,1.372c0.015,2.218,0.104,4.5-0.597,6.637
	c-0.14,0.427-0.307,1.277-0.82,1.119c-0.196-0.06-0.453-0.3-0.651-0.397c-0.276-0.137-0.534-0.268-0.744-0.495
	c-0.399-0.433-0.462-0.948-0.464-1.515C253.927,95.665,253.942,95.089,253.975,94.514z M246.062,58.776
	c-2.626-3.315-2.499-6.805-1.194-10.374c1.419,5.062,3.341,9.582,9.721,9.87s9.731-4.496,10.727-9.876
	c0.942,2.15,1.762,5.094,1.875,5.904c0.758,5.47-3.667,8.028-8.254,9.189C254.068,64.722,249.125,62.64,246.062,58.776z
	 M250.758,83.834c-0.446-0.607-0.753-1.557-0.998-2.177c-0.524-1.33-0.647-2.655-0.482-4.073c0.186-1.606,0.507-3.189,1.409-4.555
	c0.776-1.174,2.123-2.625,3.489-3.114c2.882-1.03,5.455,0.369,7.104,3.237c1.319,2.294,1.741,5.415,0.667,7.877
	c-0.936,2.147-3.123,3.478-5.349,3.94c-1.666,0.346-4.1,0.358-5.512-0.78C250.969,84.095,250.86,83.973,250.758,83.834z
	 M251.302,103.449c0.641-0.173,1.299-0.301,1.972-0.391c-0.005,0.754,0.015,1.548,0.011,2.435
	c-0.016,3.508-0.515,6.838-0.703,10.309c-0.17,3.135-0.567,7.451,0.104,10.881c-1.199-0.19-2.362-0.575-3.513-0.967
	c-0.091-0.081-0.192-0.156-0.307-0.223c-2.556-1.483-5.002-1.896-7.859-1.048c-1.42,0.423-3.199,1.871-4.57,2.115
	c-0.604,0.107-1,0.124-1.298,0.069c2.911-2.298,4.41-6.991,6.339-9.746C244.647,112.359,248.3,108.054,251.302,103.449z
	 M220.267,122.924c1.244-0.794,2.293-2.062,3.459-2.964c3.647-2.82,8.062-4.773,11.858-7.392c3.22-2.222,6.425-4.316,9.54-6.555
	c0.626-0.309,1.247-0.61,1.868-0.904c-1.855,2.556-3.812,5.072-5.578,7.654c-1.703,2.49-3.411,4.808-4.836,7.483
	c-0.813,1.528-1.583,3.603-2.72,5.123c-0.139-0.206-0.295-0.427-0.503-0.679c-1.739-2.103-2.382-2.579-5.447-2.614
	c-1.805-0.021-5.956,0.157-7.695,0.945C220.232,122.987,220.248,122.962,220.267,122.924z M183.257,210.637
	c-4.403-16.238-1.827-34.71,6.113-49.445c6.731-12.491,16.003-22.58,26.523-31.89c1.044,0.35,2.179,0.492,3.222,0.492
	c3.229,0,6.732-3.286,9.611-2.886c2.532,0.352,3.197,5.206,6.834,5.109c1.534-0.041,2.529-1.02,3.832-1.688
	c0.875-0.448,3.856-1.077,5.79-1.414c1.638,0.662,3.267,1.854,4.854,2.531c2.225,0.949,4.342,1.354,6.727,0.79
	c3.077-0.729,6.319-2.305,9.315-3.442c1.805,0.281,5.523,1.026,6.517,1.535c1.304,0.667,2.298,1.647,3.833,1.688
	c3.636,0.097,4.301-4.757,6.834-5.109c2.879-0.4,6.382,2.886,9.611,2.886c1.044,0,2.177-0.142,3.222-0.492
	c10.52,9.31,19.792,19.399,26.523,31.89c7.94,14.734,10.516,33.207,6.113,49.445c-0.329,1.214-0.716,2.401-1.13,3.575
	c-5.952-0.715-12.418-0.059-18.33-0.124c-7.618-0.083-15.237-0.105-22.854-0.173c-7.185-0.064-14.279,0.56-21.461,0.552
	c-2.892-0.003-6.002-0.315-8.963-0.214c-2.961-0.102-6.071,0.21-8.963,0.214c-7.183,0.009-14.277-0.616-21.46-0.552
	c-7.618,0.067-15.236,0.089-22.854,0.173c-5.913,0.065-12.378-0.591-18.33,0.124C183.972,213.038,183.586,211.851,183.257,210.637z
	 M185.751,217.771c12.366,1.961,25.349,1.127,37.8,1.105c6.504-0.013,12.921,0.585,19.404,0.594
	c4.355,0.007,8.708-0.027,13.041-0.076c4.332,0.049,8.685,0.082,13.041,0.076c6.482-0.009,12.9-0.607,19.404-0.594
	c12.451,0.024,25.434,0.856,37.8-1.105c-1.309,3.173-2.779,6.264-4.135,9.392c-0.362,0.834-0.736,1.607-1.131,2.338
	c-0.954-3.93-3.594-7.515-7.3-7.393c-3.956,0.131-6.718,3.341-8.328,7.216c-0.415-0.881-0.886-1.737-1.436-2.48
	c-1.781-2.404-4.711-3.881-7.701-3.862c-5.715,0.035-8.241,4.028-9.836,8.62c-2.036-4.62-5.09-8.937-10.066-9.365
	c-5.774-0.497-9.064,4.911-10.781,10.303c-0.12-1.108-0.285-2.215-0.531-3.405c-0.877-4.255-3.617-7.457-8.123-7.974
	c-4.667-0.536-8.4,2.95-10.049,7.054c-0.364,0.908-0.622,1.929-0.821,2.969c-1.822-4.903-5.026-9.401-10.313-8.947
	c-4.977,0.428-8.03,4.744-10.066,9.365c-1.596-4.592-4.122-8.585-9.836-8.62c-2.989-0.018-5.92,1.459-7.701,3.862
	c-0.55,0.743-1.022,1.599-1.436,2.48c-1.61-3.874-4.371-7.085-8.328-7.216c-3.705-0.122-6.346,3.463-7.3,7.393
	c-0.395-0.732-0.769-1.504-1.131-2.338C188.53,224.035,187.059,220.944,185.751,217.771z M317.182,233.863
	c-0.922,0.591-1.983,1.064-3.273,1.368c-1.898,0.448-3.87,0.901-5.848,1.294c-0.068-2.713,0.58-5.87,2.495-7.596
	C315.795,224.204,316.73,229.511,317.182,233.863z M302.648,237.38c-4.446,0.493-8.905,0.758-13.368,0.918
	c0.378-2.117,0.717-4.427,1.511-6.244c2.015-4.612,7.265-7.118,10.428-1.749C302.461,232.411,302.227,235.068,302.648,237.38z
	 M283.793,238.45c-2.347,0.049-4.697,0.085-7.045,0.123c-2.454,0.039-4.895-0.066-7.336-0.117
	c0.763-5.679,4.502-17.366,10.883-8.431C282.057,232.493,282.907,235.547,283.793,238.45z M261.15,238.412
	c-1.727-0.05-3.454-0.084-5.156,0.107c-2.377-0.268-4.806-0.102-7.21-0.058c0.172-0.255,0.329-0.527,0.428-0.885
	c0.334-1.201,0.273-2.568,0.511-3.798c0.599-3.106,1.146-7.319,4.844-8.412C260.647,223.568,261.814,233.262,261.15,238.412z
	 M242.576,238.456c-2.442,0.051-4.882,0.156-7.336,0.117c-2.349-0.038-4.698-0.073-7.045-0.123c0.886-2.903,1.737-5.957,3.5-8.425
	C238.075,221.09,241.813,232.776,242.576,238.456z M222.708,238.298c-4.464-0.159-8.922-0.425-13.368-0.918
	c0.423-2.312,0.187-4.969,1.429-7.077c3.163-5.369,8.414-2.863,10.428,1.749C221.99,233.871,222.33,236.181,222.708,238.298z
	 M203.927,236.524c-1.978-0.393-3.95-0.846-5.848-1.294c-1.291-0.304-2.351-0.777-3.273-1.368c0.451-4.35,1.387-9.659,6.626-4.935
	C203.347,230.655,203.995,233.812,203.927,236.524z M186.292,416.093c0.42-4.248,0.571-8.617,0.736-12.886
	c0.17-4.394-0.052-8.871-0.35-13.252c-0.227-3.337,0.4-6.551,0.281-9.902c-0.318-9.06,0.822-18.003,0.385-27.052
	c-0.423-8.74,0.108-17.38,0.071-26.118c-0.034-8.136-0.351-16.062,0.06-24.211c0.438-8.694-1.319-17.37-0.853-26
	c0.458-8.478,0.388-16.815,1.244-25.271c0.592-5.856,2.709-8.578,8.467-8.892c1.339,0.392,2.766,0.736,4.282,1.073
	c9.263,2.057,18.489,2.234,27.955,2.05c5.104-0.099,10.08-0.285,15.139-0.921c1.596-0.2,3.258-0.219,4.896-0.354
	c1.539,0.171,3.098,0.237,4.537,0.399c3.581,0.403,7.534,0.382,11.228-0.328c1.314,0.08,2.634,0.123,3.911,0.284
	c5.059,0.637,10.034,0.822,15.139,0.921c9.466,0.184,18.692,0.007,27.955-2.05c1.516-0.337,2.943-0.681,4.282-1.073
	c5.758,0.315,7.875,3.037,8.467,8.892c0.854,8.456,0.786,16.794,1.244,25.271c0.466,8.629-1.291,17.306-0.853,26
	c0.411,8.148,0.095,16.075,0.06,24.211c-0.038,8.738,0.493,17.379,0.071,26.118c-0.437,9.049,0.703,17.993,0.385,27.052
	c-0.117,3.35,0.508,6.564,0.281,9.902c-0.297,4.382-0.52,8.859-0.35,13.252c0.165,4.27,0.314,8.638,0.736,12.886
	c0.163,1.649,0.153,3.364,0.36,5.021c-0.137,1.26-0.215,2.513-0.159,3.734c-1.98-0.184-3.961-0.368-5.941-0.556
	c-0.479-0.046-0.952-0.067-1.429-0.105c0.387-5.445,0.049-11.054,0.097-16.509c0.042-4.826,0.42-9.878-0.059-14.678
	c-0.979-9.812-0.881-19.915-1.331-29.791c-0.892-19.596,2.487-39.491,0.46-59.022c-0.969-9.343-0.149-18.575-0.515-27.93
	c-0.231-5.932-0.473-11.385-5.872-13.812c-1.187-1.233-2.599-2.267-3.821-2.905c-4.765-2.486-12.413-2.013-17.664-1.627
	c-2.636-0.613-5.239-0.276-8.033-0.467c-2.384-0.163-4.77-0.325-7.169-0.236c-2.48,0.091-4.962,0.151-7.41,0.36
	c-5.267-0.419-10.709,0.197-15.854,0.705c-0.315,0.031-0.63,0.052-0.944,0.077c-0.039-0.008-0.068-0.026-0.11-0.031
	c-8.997-0.843-17.268-0.819-26.245,0.156c-7.453,0.809-15.207,1.092-22.409,3.579c-6.346,2.191-6.591,7.931-6.835,14.2
	c-0.366,9.357,0.454,18.587-0.515,27.93c-2.026,19.531,1.352,39.426,0.46,59.022c-0.45,9.876-0.351,19.979-1.331,29.791
	c-0.479,4.799-0.101,9.851-0.059,14.678c0.048,5.456-0.292,11.064,0.097,16.509c-0.477,0.039-0.95,0.059-1.429,0.105
	c-1.98,0.188-3.961,0.372-5.941,0.556c0.056-1.221-0.023-2.474-0.159-3.734C186.139,419.458,186.129,417.742,186.292,416.093z
	 M302.788,414.439c0.03-4.928,0.262-9.832,0.456-14.754c0.378-9.593,0.112-19.171,0.769-28.726
	c0.479-6.975,0.769-13.949,1.139-20.931c0.454-8.583,1.583-17.247,1.084-25.859c-0.454-7.843-0.826-15.798-1.765-23.583
	c-0.501-4.148-1.312-8.163-1.978-12.264c-0.466-2.865-0.241-6.395-2.355-8.699c-3.124-3.407-9.199-2.552-13.306-2.32
	c-2.426,0.137-4.832-0.157-7.217,0.151c-2.734,0.354-5.37,0.7-8.141,0.694c-5.37-0.013-10.722-0.711-16.095-0.546
	c-2.852,0.088-5.707-0.163-8.566-0.154c-1.853,0.006-3.194-0.466-4.897-0.747c-2.047-0.338-4.731,0.235-6.765,0.551
	c-2.51-0.074-4.998-0.259-7.537,0.019c-4.566,0.5-12.206-1.529-15.763,2.348c-2.113,2.304-1.888,5.833-2.355,8.699
	c-0.667,4.102-1.478,8.117-1.979,12.264c-0.94,7.785-1.311,15.74-1.765,23.583c-0.499,8.612,0.63,17.274,1.084,25.859
	c0.37,6.982,0.658,13.955,1.139,20.931c0.657,9.555,0.391,19.134,0.769,28.726c0.194,4.922,0.426,9.826,0.456,14.754
	c0.018,3.11-0.229,6.408,0.225,9.526c-0.23-0.007-0.461-0.009-0.69-0.018c-3.663-0.131-7.231-0.153-10.815-0.021
	c-0.003-0.021-0.011-0.04-0.016-0.06c1.209-8.661-0.1-17.952,0.002-26.64c0.052-4.462,0.653-8.837,0.602-13.333
	c-0.051-4.523-0.313-9.115-0.113-13.638c0.807-18.244-0.378-36.379-0.256-54.624c0.058-8.795,0.557-17.51,0.444-26.313
	c-0.056-4.347-0.46-8.716-0.211-13.06c0.13-2.272,0.339-4.619,0.952-6.819c0.858-3.081,1.795-3.33,4.82-4.255
	c11.244-3.438,23.135-3.845,34.807-3.606c6.023,0.123,12.041,0.453,18.061,0.669c1.072,0.039,2.171-0.03,3.28-0.134
	c4.549,1.078,9.993,0.155,14.326-0.021c4.198-0.17,8.154,0.425,12.154-0.035c7.006,0.738,14.282,1.052,21.07,3.127
	c0.553,0.17,1.036,0.315,1.462,0.461c0.875,0.823,1.731,1.683,2.649,2.419c0.093,0.075,0.199,0.132,0.311,0.177
	c0.139,0.346,0.27,0.737,0.397,1.198c0.613,2.201,0.822,4.547,0.952,6.819c0.248,4.345-0.155,8.713-0.211,13.06
	c-0.113,8.803,0.385,17.518,0.444,26.313c0.122,18.244-1.065,36.379-0.256,54.624c0.2,4.523-0.061,9.114-0.113,13.638
	c-0.051,4.495,0.549,8.871,0.601,13.333c0.101,8.688-1.207,17.979,0.002,26.64c-0.005,0.021-0.011,0.04-0.016,0.06
	c-3.583-0.132-7.151-0.11-10.815,0.021c-0.229,0.008-0.46,0.011-0.69,0.018C303.017,420.847,302.769,417.549,302.788,414.439z
	 M299.428,402.835c-0.263,6.39-1.437,14.539-0.114,21.194c-1.717,0.022-3.443,0.04-5.164,0.097
	c-0.008-0.014-0.016-0.027-0.024-0.041c-0.573-10.571-0.328-21.474-0.495-32.036c-0.087-5.459-0.85-10.761-1.281-16.194
	c-0.376-4.749-0.134-9.45-1.174-14.133c-0.95-4.275-1.385-8.055-3.461-11.933c-1.843-3.443-4.435-5.716-7.251-8.427
	c-1.47-1.416-2.987-2.859-4.503-4.338c-0.715-1.916-2.429-2.71-4.144-4.367c-3.388-3.273-6.49-7.675-8.059-12.145
	c-1.098-3.13-2.307-9.482-7.089-8.078c-2.207,0.648-2.815,2.831-4.201,4.346c-1.481,1.618-3.177,2.552-4.723,4.054
	c-4.379,4.256-7.643,10.16-11.698,14.795c-3.909,4.467-8.953,8.896-11.771,14.16c-2.075,3.877-2.511,7.656-3.461,11.932
	c-1.04,4.683-0.798,9.384-1.174,14.133c-0.43,5.433-1.194,10.736-1.28,16.194c-0.169,10.562,0.076,21.464-0.495,32.036
	c-0.008,0.014-0.016,0.027-0.024,0.041c-1.721-0.057-3.446-0.075-5.164-0.097c1.323-6.655,0.149-14.804-0.114-21.194
	c-0.377-9.152,0.333-18.408-0.23-27.534c-0.395-6.409-0.777-12.77-1.088-19.175c-0.351-7.208-0.594-14.701-1.298-21.867
	c-1.503-15.32,1.469-31.323,3.678-46.448c0.412-2.82-0.107-5.162,3.953-6.278c0.917-0.252,2.682-0.071,3.651-0.057
	c3.284,0.048,6.301-0.293,9.556-0.416c2.373-0.09,4.71,0.15,7.067,0.166c4.593,0.475,9.314,0.294,13.809,0.29
	c4.226-0.005,9.585,0.768,14.408,0.345c1.946,0.118,3.958-0.038,5.876-0.131c4.215-0.205,9.304,0.904,13.402-0.438
	c1.78,0.112,3.555,0.211,5.415,0.183c0.97-0.014,2.736-0.195,3.652,0.057c4.06,1.116,3.541,3.46,3.953,6.279
	c2.209,15.125,5.182,31.128,3.678,46.448c-0.703,7.166-0.948,14.659-1.298,21.867c-0.311,6.405-0.692,12.767-1.088,19.175
	C299.094,384.427,299.805,393.684,299.428,402.835z M288.275,424.561c-0.97,0.124-1.931,0.292-2.887,0.486
	c-3.044-0.061-6.103,0.009-9.185,0.057c0.092-0.243,0.158-0.508,0.183-0.802c0.995-11.49,2.985-24.896-0.981-35.998
	c-1.527-4.275-3.887-7.019-7.273-9.807c-1.955-1.61-4.103-3.164-6.021-4.797c-3.018-2.57-3.445-5.996-5.676-9.011
	c-0.978-1.321-3.1-1.277-3.609,0.471c-0.079,0.269-0.169,0.52-0.251,0.785c-2.195,4.751-3.602,9.545-6.971,13.665
	c-3.358,4.108-6.874,7.237-8.929,12.312c-4.191,10.357-2.197,22.306-1.909,33.22c-2.693-0.034-5.388-0.049-8.082-0.08
	c-0.984-0.204-1.974-0.377-2.974-0.504c0.524-3.591-0.077-7.627-0.082-11.136c-0.007-5.837-0.118-11.647,0.342-17.463
	c0.403-5.084,0.307-10.174,0.727-15.269c0.477-5.791,0.102-11.875,1.09-17.599c0.689-3.991,0.903-8.185,2.835-11.788
	c2.233-4.165,6.578-7.274,9.902-10.558c3.819-3.774,8.207-8.706,10.744-14.022c1.69-1.673,3.302-3.42,4.727-5.337
	c2.026-2.724,2.994-5.695,4.838-1.373c0.97,2.274,1.342,4.388,2.553,6.639c2.245,4.169,4.708,7.137,7.899,9.673
	c1.391,1.594,2.816,3.081,4.169,4.419c3.323,3.284,7.669,6.394,9.902,10.558c1.931,3.603,2.146,7.798,2.835,11.788
	c0.987,5.724,0.613,11.808,1.09,17.599c0.419,5.094,0.325,10.185,0.727,15.269c0.461,5.816,0.35,11.627,0.342,17.463
	C288.351,416.933,287.751,420.969,288.275,424.561z M271.098,424.805c-0.01,0.009-0.021,0.019-0.031,0.028
	c-0.424,0.38-1.063,0.377-1.597,0.377c-0.503,0-1.011-0.036-1.512,0.016c-0.47,0.049-0.91,0.318-1.381,0.319
	c-1.076,0.003-1.186-1.615-1.135-2.37c0.114-1.719-0.162-3.476-0.173-5.2c-0.03-4.708-0.092-9.416-0.122-14.124
	c-0.047-7.514,1.339-15.323,0.114-22.803c2.685,2.278,5.025,4.862,6.275,8.324c0.7,1.938,1.173,3.954,1.481,5.991
	c0.812,5.372,0.528,10.86,0,16.246c-0.188,1.918-0.413,3.831-0.648,5.744c-0.104,0.853-0.268,1.715-0.227,2.568
	c0.048,0.986-0.274,1.95-0.429,2.914C271.609,423.474,271.601,424.32,271.098,424.805z M260.709,425.428
	c-3.466,0.096-6.936,0.173-10.386,0.157c-0.003-0.038-0.001-0.072-0.007-0.109c-2.224-13.802-0.769-28.353-1.246-42.381
	c0.532-0.686,1.065-1.379,1.592-2.095c2.122-2.881,3.541-6.173,4.6-9.581c0.305,0.695,0.656,1.376,1.14,2.016
	c1.221,1.614,2.787,2.97,4.408,4.167c0.631,0.466,1.262,0.935,1.889,1.408c-1.681,7.065-1.54,15.431-1.787,22.668
	c-0.149,4.344-0.098,8.707-0.125,13.052C260.766,417.949,261.387,422.121,260.709,425.428z M246.751,425.53
	c-1.208-0.032-2.414-0.079-3.616-0.145c-1.978-0.108-4.283,0.101-4.029-2.723c0.115-1.273-0.073-2.552-0.192-3.831
	c-0.278-2.974-0.569-5.948-0.717-8.931c0.286-5.464,1.27-10.852,3.496-15.786c1.298-2.876,2.977-5.297,4.775-7.661
	c-0.205,6.796-0.195,13.601-0.277,20.397C246.115,413.148,245.911,419.304,246.751,425.53z M143.247,213.129
	c0.035-2.429,0.172-4.841,0.412-7.259c0.072-0.72,0.483-4.686,0.681-4.661c1.093,0.139,1.237,1.872,1.403,2.608
	c0.738,3.272-0.424,6.991-0.203,10.309c0.15,2.262-0.046,5.652,0.859,8.167c-1.29,0.038-2.578,0.129-3.858,0.301
	C143.12,219.459,143.2,216.342,143.247,213.129z M118.782,261.781c0.711-6.92,0.303-13.797,3.091-20.321
	c3.015-7.054,9.315-10.891,16.499-12.974c6.93-2.01,12.932-1.474,19.709,0.73c8.506,2.765,11.087,9.86,11.909,18.217
	c0.387,3.946,0.725,11.673,2.971,17.189c-3.245-0.556-6.686,0.368-9.957,0.666c-5.646,0.516-11.482,0.37-17.161,0.735
	c-5.313,0.341-10.968,0.52-16.287,0.329c-0.649-0.024-7.656-0.593-11.646-0.21C118.31,264.86,118.609,263.462,118.782,261.781z
	 M111.512,277.508c0.025-0.985,1.572-2.639,2.117-3.44c1.089-1.598,2.007-2.97,2.759-4.345c1.075,0.05,2.127-0.104,3.443-0.148
	c3.304-0.11,6.441,0.659,9.724,0.837c5.58,0.302,11.57,0.241,17.147-0.116c5.331-0.342,10.623-0.049,15.945-0.264
	c3.534-0.142,7.667-0.087,10.971-1.552c0.408,0.272,0.807,0.557,1.215,0.839c0.766,0.53,1.58,0.825,2.373,1.29
	c1.067,0.625,2.033,1.299,3.122,1.626c-0.076,1.411-0.183,2.818-0.29,4.224c-0.658,0.043-1.309,0.165-1.985,0.322
	c-0.172,0.04-0.307,0.123-0.426,0.222c-7.439,0.178-14.959,0.88-22.451,1.125c-2.43,0.08-4.796-0.367-7.174-0.369
	c-1.903-0.002-3.559,0.55-5.488,0.752c-4.347,0.453-9.265,0.585-13.559,0.368c-2.663-0.134-8.658-0.979-13.056-0.143
	c-0.826-0.011-1.652-0.005-2.472-0.015C110.964,278.689,111.468,279.211,111.512,277.508z M157.51,286.494
	c-3.488,0.454-7.834,1.42-9.75,4.677c-1.033,1.755-1.692,4.06-2.012,6.047c-0.087,0.539,0.517,4.905,0.781,5.331
	c-2.142,0.072-4.285,0.129-6.429,0.164c0.443-1.686,0.043-3.28-0.456-4.949c-0.621-2.08-0.744-5.003-1.795-6.848
	c-2.394-4.201-5.405-5.203-9.979-4.949c-3.254,0.18-6.7,1.771-8.332,4.821c-0.966,1.805-0.807,4.423-0.907,6.436
	c-0.102,2.074-0.512,3.855-0.172,5.833c-1.254,0.043-2.509,0.089-3.762,0.15c0.461-2.666,0.539-5.544,0.676-8.113
	c0.11-2.061-0.005-4.144,0.019-6.209c0.005-0.908,0.033-1.814,0.057-2.721c0.148-0.754,0.293-1.509,0.418-2.267
	c0.143,0.015,0.305,0.036,0.485,0.067c2.578-1.059,7.258-0.382,10.042-0.206c2.051,0.13,4,0.67,6.023,0.678
	c1.973,0.008,3.972-0.391,6.014-0.285c3.422,0.179,6.798-0.148,10.12,0.013c3.324,0.161,6.671,0.395,10.034,0.427
	c4.234,0.04,8.396-0.401,12.605-0.418c2.764-0.01,5.932,0.064,8.599-0.785c0.009,0.259,0.01,0.516,0.025,0.774
	c0.341,5.904,0.049,11.744-0.205,17.594c-3.023-0.32-5.925-0.215-8.945-0.106C172.889,292.756,166.839,285.281,157.51,286.494z
	 M165.967,301.795c-5.293,0.122-10.488,0.356-15.772,0.614c-0.329,0.016-0.658,0.023-0.987,0.038c0.762-1.619,0.656-3.39,1.13-5.224
	c0.942-3.652,1.935-4.878,5.566-5.723c2.954-0.688,7.218-1.139,9.183,1.849C166.556,295.588,165.311,299.167,165.967,301.795z
	 M134.916,302.782c-4.521,0.046-9.042,0.08-13.561,0.192c0.32-1.355,0.792-2.619,1.03-4.005c0.428-2.482,0.085-5.193,1.845-7.133
	c1.329-1.466,3.133-1.699,5.014-1.503c2.013,0.21,3.065,1.297,4.175,2.7c0.286,2.5,1.323,4.869,1.533,7.362
	C135.013,301.103,134.861,301.982,134.916,302.782z M20.562,211.363c2.05-6.938,7.168-11.189,14.309-11.935
	c5.69-0.594,12.001,2.731,14.676,7.939c2.718,5.295,0.45,9.861,0.622,15.07c-4.488-0.341-9.208,0.196-13.643,0.216
	c-5.505,0.025-11.319-0.582-16.832-0.019C20.354,219.058,19.58,214.684,20.562,211.363z M42.187,228.977
	c-2.63-0.31-4.21,1.773-4.894,4.061c-0.364,1.22-0.597,2.55-0.821,3.798c-0.311,1.724,0.227,2.749,0.836,4.139
	c-1.582-0.047-3.168-0.089-4.754-0.099c-0.669-2.603,0.476-5.323-0.518-7.901c-0.687-1.781-2.282-3.513-4.366-3.136
	c-2.314,0.418-4.073,3.106-4.631,5.219c-0.446,1.693-0.676,4.112-0.183,6.021c-0.594,0.002-1.206,0.014-1.826,0.041
	c-0.017-0.698-0.023-1.397-0.145-2.082c-0.084-0.473-0.205-0.917-0.33-1.355c0.658-3.384,0.212-7.275,0.237-10.671
	c5.068-0.572,10.737,0.198,15.732,0.221c4.271,0.019,9.121-0.618,13.451-0.147c0.458,4.574-0.641,9.334,0.145,13.733
	c-0.996,0.099-1.965,0.19-2.902,0.248c0.079-2.319-0.579-4.695-1.055-6.938C45.696,231.927,44.76,229.28,42.187,228.977z
	 M43.489,241.121c-1.338-0.015-2.685-0.043-4.046-0.084c0.229-2.263,0.274-8.871,2.199-8.785
	C43.356,232.328,43.606,238.596,43.489,241.121z M29.552,240.904c-1.327,0.034-2.649,0.091-3.956,0.207
	c-0.05-0.001-0.108-0.002-0.158-0.003c0.028-1.328,0.057-2.652,0.188-3.978c0.11-1.118,1.058-5.154,2.947-4.46
	c1.501,0.552,1.198,3.337,1.077,4.471C29.514,238.413,29.338,239.663,29.552,240.904z M15.67,250.024
	c-0.025-3.922,1.424-3.678,5.022-4.157c2.414-0.321,4.848-0.535,7.289-0.704c2.183,0.051,4.372,0.03,6.537,0.076
	c3.192,0.068,6.382,0.222,9.574,0.298c2.615,0.063,5.961-0.573,8.487-0.043c0.43,0.09,0.747,0.08,0.99,0.028
	c0.345,0.194,0.671,0.41,1.019,0.631c0.04,0.025,0.083,0.04,0.123,0.064c0.098,0.386,0.227,0.892,0.415,1.588
	c0.046,0.167,1.1,3.336,0.585,4.21c-0.78,1.323-1.726,1.171-3.948,1.342c-6.159,0.474-12.359,0.671-18.545,0.63
	c-2.681-0.018-5.157-0.483-7.785-0.88c-2.294-0.346-4.48,0.12-6.758-0.031C15.536,252.87,15.685,252.332,15.67,250.024z
	 M51.556,269.058c-0.183,4.848-0.328,9.695-0.445,14.545c-0.089,3.633-0.854,7.251-0.525,10.866
	c0.419,4.618,0.541,9.219,0.653,13.876c-7.302-0.553-14.766-0.638-22.001-0.42c-1.607,0.048-3.846-0.072-6.162-0.033
	c0.182-8.74-0.023-17.519-0.183-26.254c-0.138-7.522,0.553-15.715-0.597-23.251c3.676,0.138,7.194,1.245,10.926,1.287
	c4.526,0.051,8.947-0.205,13.449-0.491c1.705-0.108,3.462-0.081,5.215-0.121C51.371,262.299,51.674,265.928,51.556,269.058z
	 M16.644,319.649c-0.395-0.383,0.287-4.009,1.151-5.022c1.737-2.037,4.857-1.09,7.297-1.179c6.912-0.253,14.022-0.36,21.07-0.743
	c1.713,0.015,3.422,0.067,5.119,0.23c0.935,0.09,4.381,0.222,5.138,0.83c0.254,0.204,0.684,2.01,0.517,2.885
	c-0.735,3.827-9.304,3.419-12.941,3.502c-4.642,0.106-9.189,0.657-13.86,0.565c-2.403-0.048-4.741-0.522-7.124-0.588
	C21.53,320.089,17.792,320.761,16.644,319.649z M20.449,360.808c-0.049-4.049,0.631-7.972,0.573-12.005
	c-0.068-4.799-0.145-9.638-0.426-14.43c-0.166-2.822,0.323-5.851-0.157-8.65c3.493,0.238,7.023,0.445,10.52,0.479
	c6.986,0.068,13.935-0.538,20.888-1.262c0.397-0.041,0.789-0.082,1.178-0.122c-0.451,2.65-0.385,5.776-0.251,7.97
	c0.362,5.883,0.563,11.843,0.589,17.752c0.022,4.898,0.77,9.795,0.891,14.698c0.072,2.922-0.051,7.059,0.698,10.106
	c-4.963-0.032-9.926,0.181-14.92,0.3c-3.63,0.087-7.28,0.495-10.907,0.724c-2.868,0.181-5.799,0.063-8.701,0.159
	C20.958,371.359,20.513,365.995,20.449,360.808z M12.845,383.595c0.202-0.699,3.171-1.28,3.817-1.422
	c5.317-1.168,11.835-0.695,17.304-1.006c6.878-0.392,13.657-1.18,20.466-1.946c3.196,0.175,9.578-0.478,8.85,3.253
	c-0.769,3.938-9.131,3.46-12.208,3.578c-11.091,0.426-22.245,1.785-33.332,0.902c-2.369-0.189-2.994,0.307-3.96-1.722
	C13.65,384.954,12.805,383.73,12.845,383.595z M17.835,392.555c0.613,0.042,1.248,0.083,1.921,0.133
	c8.377,0.625,16.824-0.401,25.164-0.97c3.727-0.254,9.052,0.188,13.794-0.432c-0.187,6.593,0.674,12.899,1.23,19.494
	c0.444,5.263,0.402,10.939,1.64,16.131c-5.725,0.066-11.445,0.19-17.165,0.465c-6.155,0.296-12.445-0.14-18.605-0.229
	c-2.501-0.035-5.113-0.237-7.719-0.274c0.368-5.213,0.634-10.472,0.95-15.679C19.397,405.385,19.443,398.315,17.835,392.555z
	 M162.531,444.573c-0.088,3.325,0.097,6.663-0.18,9.977c-0.138,1.659-0.401,3.239-0.367,4.849c-2.805,0.072-5.611,0.155-8.421,0.253
	c-23.001,0.803-46.044,0.739-69.07,0.625c-11.108-0.055-22.319-0.712-33.355,0.323c-11.785,1.106-24.166,0.368-35.754-1.767
	c-1.69-0.311-4.397-0.251-5.896-1.14c-2.361-1.401-2.321-5.691-2.139-8.006c0.294-3.722-0.45-11.414,2.496-13.917
	c3.664-3.114,12.681-1.859,17.104-1.921c6.1-0.087,12.318,0.199,18.404-0.171c9.537-0.58,19.095-0.618,28.646-0.635
	c1.683-0.003,3.37,0.03,5.052-0.01c1.319-0.031,2.543-0.205,3.886-0.109c2.184,0.155,4.363,0.284,6.551,0.384
	c4.709,0.214,9.385,0.845,14.072,1.318c4.52,0.457,8.995,0.712,13.535,0.838c2.488,0.069,4.981,0.088,7.466-0.085
	c7.31-0.508,14.622-0.532,21.946-0.458c5.652,0.057,11.292-0.005,16.92-0.224C162.566,437.993,162.6,441.937,162.531,444.573z
	 M128.668,427.924c-5.444,0.323-10.567,0.514-15.996,0.148c-1.911-0.129-5.179,0.243-8.13,0.083
	c-0.854-0.117-1.708-0.233-2.564-0.333c-1.322-0.297-2.437-0.807-3.108-1.683c-1.69-2.207-1.205-9.819-1.247-12.581
	c-0.09-5.906,0.15-11.808,0.101-17.711c-0.044-5.305-0.818-10.506-0.943-15.805c-0.133-5.636,0.437-11.191,0.298-16.844
	c-0.26-10.603-0.174-21.177,0.555-31.729c0.331-4.8,1.488-10.506,3.002-15.078c1.731-5.23,5.19-4.788,10.44-5.389
	c6.199-0.711,12.416-1.413,18.629-1.92c6.834-0.558,13.658-0.263,20.49-0.643c9.579-0.533,19.69-0.385,29.238-1.902
	c-0.056,1.775-0.098,3.552-0.095,5.334c0.032,18.981,2.041,37.909,1.16,56.897c-0.232,5.003,0.227,10.014-0.429,14.984
	c-0.572,4.324-0.753,8.55-0.83,12.954c-0.084,4.848-0.409,9.632-0.707,14.461c-0.158,2.554-0.525,5.151-0.574,7.72
	c-0.044,2.321,0.643,4.375,0.789,6.652c-4.8,0.456-9.602,0.933-14.403,1.475C152.66,428.332,140.449,427.224,128.668,427.924z
	 M339.411,436.917c-0.299,4.307-0.359,8.653-0.423,12.969c-0.042,2.844,0.452,6.33,0.099,9.298
	c-5.161-0.077-10.326-0.123-15.502-0.134c-7.699-0.017-15.577-0.392-23.365-0.13c-0.382-0.028-0.753-0.069-1.138-0.096
	c-5.19-0.351-10.261,0.089-15.45,0.054c-11.177-0.075-22.381,0.68-33.555,0.753c-9.881,0.064-19.783-0.087-29.637-0.083
	c-10.549-1.224-21.464-0.523-32.039-0.499c-6.342,0.014-12.665,0.077-18.988,0.192c-0.181-1.526,0.298-3.181,0.4-4.691
	c0.198-2.954,0.083-5.924,0.088-8.889c0.005-3.043,0.494-6.125,0.41-9.14c-0.021-0.745-0.194-1.455-0.397-2.151
	c5.045-0.32,10.081-0.788,15.103-1.459c6.134-0.818,12.19-1.217,18.378-1.38c4.757-0.125,9.767,0.026,14.684-0.228
	c8.954,0.499,17.907,0.894,26.838,1.274c9.711,0.413,19.662,0.678,29.374,0.257c5.894-0.255,11.978-0.634,17.887-1.648
	c5.468,0.404,11.098,0.204,16.415,0.344c6.187,0.163,12.243,0.563,18.378,1.38c4.137,0.551,8.283,0.959,12.435,1.269
	C339.43,435.108,339.472,436.037,339.411,436.917z M502.498,457.693c-1.499,0.889-4.206,0.828-5.896,1.14
	c-11.588,2.135-23.969,2.874-35.754,1.768c-11.035-1.035-22.246-0.378-33.355-0.323c-23.026,0.114-46.069,0.178-69.07-0.625
	c-3.909-0.137-7.811-0.238-11.714-0.325c0.031-1.175-0.108-2.396-0.205-3.895c-0.305-4.717-0.076-9.531-0.24-14.261
	c-0.074-2.131-0.009-4.416-0.32-6.581c6.495,0.314,13.007,0.396,19.535,0.33c7.324-0.074,14.635-0.05,21.946,0.458
	c3.968,0.276,7.94,0.054,11.909-0.056c3.562-0.099,7.109-0.766,10.657-1.224c3.384-0.436,6.791-0.674,10.2-0.792
	c3.215-0.11,6.412-0.301,9.62-0.286c12.311,0.061,24.571-0.087,36.821,0.657c6.085,0.37,12.303,0.084,18.404,0.171
	c4.422,0.063,13.44-1.192,17.104,1.921c2.946,2.503,2.203,10.195,2.496,13.917C504.819,452.003,504.859,456.293,502.498,457.693z"/>
<path d="M245.554,264.291c0.073,0,0.073-0.114,0-0.114C245.481,264.177,245.481,264.291,245.554,264.291z"/>
<g>
</g>
<g>
</g>
<g>
</g>
<g>
</g>
<g>
</g>
<g>
</g>
<g>
</g>
<g>
</g>
<g>
</g>
<g>
</g>
<g>
</g>
<g>
</g>
<g>
</g>
<g>
</g>
<g>
</g>
</svg>
