<?xml version="1.0" encoding="iso-8859-1"?>
<!-- Generator: Adobe Illustrator 19.0.0, SVG Export Plug-In . SVG Version: 6.00 Build 0)  -->
<svg version="1.1" id="Layer_1" xmlns="http://www.w3.org/2000/svg" xmlns:xlink="http://www.w3.org/1999/xlink" x="0px" y="0px"
	 viewBox="0 0 512.004 512.004" style="enable-background:new 0 0 512.004 512.004;" xml:space="preserve">
<path style="fill:#BCA691;" d="M421.278,499.073c-2.705-4.471-5.266-9.036-7.901-13.549c-5.269-9.028-10.541-18.054-15.777-27.101
	c-5.447-9.41-10.857-18.843-16.189-28.319c-7.632-13.567-15.731-26.865-23.312-40.461c-3.699-6.633-7.277-13.336-10.584-20.175
	c-3.072-6.353-5.036-13.063-8.25-19.259c-1.407-2.714-2.578-5.919-1.463-8.768c0.735-1.879,2.35-3.266,3.353-5.017
	c2.602-4.546,0.685-10.658,3.249-15.225c1.458-2.597,4.373-5.067,3.411-7.885c-0.557-1.634-2.321-2.579-4.031-2.809
	c-1.71-0.229-3.441,0.094-5.165,0.168c-4.659,0.201-10.523-1.582-13.48-5.387c-3.644-4.686-5.79-11.766-7.959-17.244
	c-4.506-11.385-8.015-23.131-12.323-34.588c-3.107-8.262-5.017-17.079-7.361-25.584c2.15,0.428,3.91-1.868,4.322-4.022
	c0.41-2.154,0.097-4.467,0.969-6.479c1.155-2.668,4.248-4.463,4.438-7.364c0.191-2.931-2.814-5.128-5.694-5.707
	s-5.916-0.171-8.744-0.964c-5.958-1.671-5.167-9.634-6.1-14.642c-5.782-31.054-11.259-62.169-16.496-93.319
	c-0.98-5.829-2.275-11.604-3.13-17.455c-0.425-2.906-0.294-6.084-0.927-8.93c-0.605-2.719-1.485-4.459-0.848-7.431
	c0.502-2.338,1.432-4.563,2.034-6.877c0.904-3.48,1.052-7.153,0.43-10.693c-0.341-1.94-1.076-4.049-2.835-4.935
	c-2.017-1.013-4.945-0.021-6.728-1.621c-1.761-1.582-1.39-4.765-1.509-6.911c-0.391-7.115-0.225-14.26,0.502-21.349
	c0.142-1.389,0.305-2.806,0.019-4.173c-0.286-1.368-1.108-2.705-2.406-3.223c-1.983-0.79-4.287,0.676-5.181,2.615
	c-0.894,1.939-0.755,4.174-0.598,6.304c0,5.659,1.072,11.333,1.255,16.991c0.101,3.11,1.383,10.22-2.533,11.33
	c-1.025,0.291-2.156,0.02-3.163,0.365c-2.008,0.687-2.478,3.263-2.618,5.38c-0.19,2.861-0.4,5.787,0.049,8.636
	c0.245,1.56,0.578,5.673,1.88,6.625c0.838,0.613,1.929,0.991,2.405,1.913c0.345,0.667,0.278,1.463,0.201,2.21
	c-0.418,4.109-1.184,8.346-0.91,12.447c0.261,3.914-0.901,7.557-0.901,11.428c-1.729,10.387-3.489,20.769-5.274,31.146
	c-3.57,20.756-7.239,41.495-10.953,62.224c-0.794,4.425-1.706,8.544-3.072,12.78c-1.124,3.483-0.745,8.172-4.753,9.921
	c-1.458,0.636-3.114,0.561-4.703,0.474c-1.914-0.104-3.828-0.209-5.742-0.313c-1.08-0.059-2.228-0.103-3.169,0.431
	c-1.374,0.779-1.862,2.591-1.599,4.148c0.262,1.557,1.111,2.94,1.869,4.326c0.967,1.769,1.647,3.772,2.082,5.737
	c0.431,1.942-0.06,3.759,0.352,5.649c0.236,1.085,0.962,2.137,2.033,2.433c0.716,0.198,1.583,0.08,2.102,0.612
	c0.477,0.488,0.402,1.275,0.288,1.949c-1.909,11.272-4.676,21.801-8.345,32.662c-2.65,7.846-5.296,15.701-8.262,23.43
	c-1.771,4.618-3.493,9.431-5.875,13.776c-1.757,3.204-2.973,6.839-6.177,8.931c-2.683,1.75-5.987,2.379-9.187,2.232
	c-2.722-0.125-5.481-0.776-8.138-0.175c-3.204,0.724-5.051,3.468-4.439,6.253c0.153,0.693,0.457,1.388,0.932,2.055
	c2.371,3.334,5.206,5.431,4.057,10.116c-0.336,1.369-0.987,2.657-1.188,4.051c-0.201,1.395,0.194,3.029,1.432,3.7
	c0.922,0.501,2.064,0.344,3.06,0.675c7.422,2.464-1.908,16.27-3.62,19.776c-3.902,7.996-7.872,15.958-11.909,23.887
	c-4.617,9.068-9.322,18.09-14.114,27.066c-2.445,4.58-4.913,9.147-7.404,13.703c-1.984,3.629-3.102,7.484-5.076,11.032
	c-10.277,18.471-21.356,36.535-31.997,54.8c-2.92,5.069-7.465,9.052-10.474,14.186c-0.811,1.384-1.578,3.094-0.852,4.525
	c0.684,1.346,2.363,1.786,3.848,2.056c21.595,3.931,43.769,2.259,65.653,0.575c5.422-0.417,10.982-1.552,11.593-7.655
	c0.722-7.215,0.946-14.167,2.714-21.269c3.446-13.839,10.109-26.897,19.468-37.675c14.974-17.244,36.691-28.472,59.42-30.722
	c28.117-2.783,55.566,11.522,74.198,32.06c8.047,8.87,14.268,19.628,17.085,31.319c1.237,5.132,1.305,10.267,3.024,15.237
	c2.32,6.705,0.711,15.253,8.634,18.245c3.328,1.257,6.985,1.206,10.543,1.138c10.292-0.194,20.583-0.389,30.875-0.583
	c5.251-0.099,10.501-0.199,15.752-0.297c3.358-0.063,12.049,1.331,14.668-1.177C426.567,505.047,422.647,501.336,421.278,499.073z
	 M252.868,193.753c0.164-3.612,0.261-7.226,0.398-10.855c0.028-0.75,0.329-1.288,0.755-1.634c-0.754-1.297-0.168-3.391,1.791-3.391
	c1.567,0,2.261,1.343,2.096,2.545c0.374,0.769,0.265,1.779-0.318,2.407c0.003,0.026,0.011,0.047,0.014,0.075
	c0.149,1.527,0.13,3.139,0.08,4.779c0.916,0.252,1.721,0.986,1.834,2.193c0.283,3.029,0.313,6.071,0.583,9.098
	c0.321,0.93-0.092,1.793-0.799,2.368c-0.031,0.155-0.051,0.31-0.085,0.465c-0.279,1.246-1.7,1.88-2.878,1.646
	c-0.965,1.631-3.878,0.691-4.038-1.331C252.074,199.275,252.431,196.528,252.868,193.753z M235.971,392.181
	c-5.078,1.241-10.129,2.16-14.847,4.524c-4.044,2.027-7.753,4.521-11.945,6.269c-1.402,0.584-2.851-1.409-1.994-2.594
	c0.61-0.845,1.198-1.706,1.777-2.572c-0.037-0.422,0.041-0.854,0.267-1.246c2.511-4.348,4.51-8.162,9.78-9.097
	c5.528-0.981,12.344-1.527,17.419,1.232C237.854,389.475,237.544,391.797,235.971,392.181z M259.527,309.319
	c-8.409-0.577-16.799-0.776-25.194,0.101c-1.448,0.151-2.45-1.283-2.542-2.544c-0.44-5.966,2.178-11.673,3.549-17.395
	c1.418-5.915,2.422-11.923,3.464-17.913c2.086-11.978,3.564-24.183,7.058-35.849c-0.314-0.661-0.627-1.323-0.942-1.985
	c-1.4-1.301-0.748-3.954,1.154-4.37c4.728-1.036,12.902-2.169,17.532-0.073c4.195,1.899,3.651,6.88,3.897,10.735
	c0.6,9.443,3.639,18.79,5.667,27.987c1.862,8.446,3.485,16.949,5.437,25.375c0.889,3.837,3.341,8.714,2.357,12.7
	c-0.857,3.473-4.42,3.887-7.504,4.037C268.823,310.352,264.144,309.635,259.527,309.319z M302.887,402.862
	c-4.451-1.697-7.856-5.198-12.383-6.733c-4.869-1.65-10.05-2.017-14.883-3.823c-1.56-0.582-2.126-2.801-0.486-3.72
	c4.392-2.459,9.083-1.933,13.77-1.199c2.268,0.167,4.39,0.622,6.327,1.388c2.122,0.268,3.766,1.43,5.327,3.334
	c2.164,2.003,3.893,4.651,5.078,8.004C306.178,401.642,304.445,403.455,302.887,402.862z"/>
<g>
	<path style="fill:#9B7E67;" d="M276.816,310.034c-5.736-2.074-13.256-0.321-19.244-0.326c-5.572-0.005-11.027-0.326-16.589-0.326
		c-11.764,0-23.381,0.651-35.15,0.651c-12.087,0-24.697-0.997-36.7,0.254c-3.925,0.409-6.643,1.186-6.333,5.877
		c0.227,3.449,2.198,3.32,4.471,5.352c4.551,4.065-0.3,10.915,4.959,14.974c5.441,4.2,15.832,2.519,22.158,2.533
		c14.903,0.035,29.805-0.894,44.724-0.969c24.85-0.124,49.619-2.575,74.44-0.912c6.6,0.442,13.13,1.828,19.71,2.216
		c3.588,0.211,7.118,0.566,8.78-3.17c1.579-3.549-0.552-7.089,0.003-10.594c0.647-4.077,5.309-4.952,6.292-8.925
		c1.351-5.457-5.571-4.916-9.489-5.261C317.739,309.553,296.276,308.397,276.816,310.034z"/>
	<path style="fill:#9B7E67;" d="M209.055,222.077c1.723,1.343,1.561,3.589,3.241,4.975c2.271,1.874,6.507,1.488,9.203,1.612
		c12.323,0.571,24.659,0.341,37.004,0.912c11.057,0.511,22.392,0.15,33.401-0.333c4.422-0.194,7.908-0.019,9.345-4.853
		c0.648-2.18,0.067-3.897,0.307-5.898c0.322-2.678,1.758-3.212,3.285-5.196c1.016-1.322,3.038-4.898,2.206-6.539
		c-1.233-2.429-5.238-0.941-7.59-1.046c-12.444-0.555-24.653-1.229-37.164-1.229c-12.423,0-24.887,0.239-37.278-0.313
		c-4.881-0.217-19.473-2.783-20.035,4.54c-0.326,4.244,2.403,4.78,4.536,7.327C211.574,218.497,208.924,221.493,209.055,222.077z"/>
	<path style="fill:#9B7E67;" d="M252.709,38.667c-6.186,0.019-10.489-0.332-10.751,6.598c-0.146,3.862-0.848,12.598,2.272,14.235
		c4.942,2.592,13.946,1.499,19.228,0.74c6.3-0.906,5.113-4.659,4.56-10.188c-0.266-2.661,0.251-6.709-1.05-9.122
		C264.52,36.387,257.205,39.009,252.709,38.667z"/>
	<path style="fill:#9B7E67;" d="M171.918,353.036c-2.485,1.693-5.044,9.018-6.328,12.19c-1.268,3.136-3.375,6.93-3.714,10.231
		c2.7,1.24,7.206,0.063,10.294,0.473c5.682,0.753,11.595,0.993,17.321,1.22c15.743,0.625,31.541,0.874,47.281,1.313
		c20.898,0.582,41.777-0.015,62.691-0.017c14.067-0.001,28.237,0.863,42.276,0.651c2.471-0.037,6.791,0.638,8.135-1.63
		c1.417-2.388-1.162-4.756-1.725-6.905c-1.393-5.319-2.808-9.828-5.123-14.992c-1.19-2.657-1.046-3.353-4.228-3.528
		c-3.827-0.21-7.922,0.701-11.833,0.505c-19.697-0.982-39.625-1.138-59.353-1.141c-18.533-0.002-37.098-0.612-55.621-0.651
		c-8.657-0.018-17.166,1.514-25.791,1.967c-3.134,0.165-6.324,0.042-9.451,0.311C173.999,353.27,171.431,354.556,171.918,353.036z"
		/>
</g>
<g>
	<path style="fill:#9B897B;" d="M197.328,381.704c-12.231,10.077-23.378,26.136-29.976,40.314
		c-7.003,15.051-14.075,34.638-11.277,51.558c0.861,5.21,1.517,10.866,3.13,15.898c0.96,2.995,2.502,5.816,3.336,8.854
		c1.698,6.178-1.907,6.885-6.881,8.272c-4.357,1.215-8.716,2.327-13.28,2.135c-3.883-0.162-7.71-0.335-11.573-0.652
		c-7.322-0.603-14.705-0.61-22.068-0.942c-5.638-0.253-12.765-0.242-17.865-2.96c-4.211-2.243-3.084-4.853-0.742-8.533
		c2.593-4.073,6.379-7.425,9.211-11.33c3.196-4.405,6.114-8.851,8.805-13.602c6.243-11.019,11.823-22.263,17.511-33.547
		c5.563-11.037,13.436-20.782,18.485-32.096c3.465-7.768,7.119-20.012,14.738-24.801c3.803-2.39,8.977-1.563,13.167-1.178
		C181.737,379.988,191.147,380.726,197.328,381.704z"/>
	<path style="fill:#9B897B;" d="M336.717,459.626c-2.796-7.553-5.773-15.032-8.692-22.614c-2.931-7.616-6.333-15.032-9.429-22.65
		c-2.488-6.122-4.72-12.32-7.014-18.572c-1.29-3.517-2.764-6.46-4.542-9.581c-1.505-2.641-2.618-4.398,0.571-6.337
		c7.076-4.304,14.303,2.561,17.864,8.04c8.851,13.616,13.429,29.306,18.621,44.502c4.004,11.72,9.666,22.953,16.99,32.955
		c3.033,4.141,6.468,9.216,10.71,12.21c4.276,3.018,9.713,3.75,14.558,5.43c7.077,2.454,13.567,5.693,20.37,8.803
		c4.703,2.15,10.541,4.285,14.407,7.745c8.476,7.588-13.298,6.786-16.143,7.167c-10.304,1.379-21.01,2.486-31.393,3.007
		c-5.968,0.3-18.413,1.807-23.733-2.024c-2.178-1.568-4.467-7.633-5.204-10.105c-1.734-5.822-1.739-12.066-2.609-18.01
		c-0.528-3.608-0.904-7.421-2.083-10.871C338.922,465.673,337.834,462.643,336.717,459.626z"/>
	<path style="fill:#9B897B;" d="M244.565,231.85c-5.174,5.534-11.35,10.386-16.272,16.163
		c-8.583,10.073-12.737,22.158-15.652,34.859c-1.14,4.965-1.844,10.111-1.629,15.212c0.102,2.416,1.5,5.16,1.317,7.444
		c-0.445,5.559-7.913,1.837-11.452,1.567c-2.648-0.202-10.95,1.802-12.693-0.638c-1.412-1.975,1.446-6.775,2.138-8.644
		c1.498-4.043,3.087-8.068,4.93-11.98c6.465-13.721,10.042-28.754,15.279-42.94c1.631-4.421,0.71-10.274,5.04-12.845
		c3.094-1.837,7.324-1.999,10.78-1.468C231.769,229.411,236.78,229.895,244.565,231.85z"/>
	<path style="fill:#9B897B;" d="M266.391,231.523c3.544,12.247,5.891,25.162,8.67,37.615c1.705,7.639,3.199,15.484,5.268,23.014
		c0.74,2.695,1.767,5.296,2.514,7.969c0.625,2.234,0.468,5.339,1.464,7.385c2.302,4.727,11.756,3.3,15.993,2.934
		c2.256-0.194,9.06-0.357,9.773-3.411c0.54-2.316-3.925-6.974-4.993-8.622c-6.841-10.546-12.836-22.644-17.27-34.387
		c-4.363-11.551-0.834-19.042,4.971-29.082c1.273-2.202,2.601-3.293,0.778-5.569c-2.451-3.057-8.412-2.152-11.697-1.51
		c-4.205,0.822-11.363,0.695-14.477,3.585C267.798,231.676,268.238,231.991,266.391,231.523z"/>
	<path style="fill:#9B897B;" d="M256.944,62.123c0.008,7.4-2.608,15.67-3.566,23.057c-1.357,10.456-2.816,20.877-3.285,31.426
		c-0.659,14.842-1.992,30.052-0.805,44.851c0.589,7.338,1.749,14.492,2.124,21.85c0.2,3.917,0.063,7.902,0.245,11.793
		c0.099,2.119,0.74,5.131-0.825,6.802c-2.992,3.195-11.598,2.52-15.617,2.267c-3.303-0.208-7.85-1.141-10.694-2.65
		c-3.439-1.825-1.749-3.594-0.41-7.078c2.241-5.831,3.145-12.449,4.487-18.534c1.518-6.888,3.005-13.815,4.157-20.768
		c2.233-13.483,4.825-27.131,6.107-40.738c1.197-12.709,2.836-25.582,5.293-38.061c0.738-3.753,1.343-7.57,2.608-11.203
		c0.307-0.884,0.857-3.194,1.536-3.683C250.109,60.151,255.938,60.956,256.944,62.123z"/>
</g>
<g>
	<path style="fill:#7F614C;" d="M251.731,38.993c0.033,2.385-0.965,4.399-0.26,6.767c0.546,1.836,2.796,4.703,4.234,5.952
		c2.486,2.159,8.626,3.455,9.983,6.11c-2.545,2.419-8.482,2.321-11.842,2.026c-2.57-0.225-4.692-0.495-7.274-0.35
		c-1.398,0.078-3.061,0.751-4.299-0.626c-1.766-1.966-1.074-8.514-0.977-11.14C241.523,41.656,243.326,39.098,251.731,38.993z"/>
	<path style="fill:#7F614C;" d="M211.01,222.077c18.541,0.008,37.161,0.643,55.774,0.651c7.616,0.003,15.341-0.249,22.939-0.579
		c3.455-0.15,8.505-1.21,11.809-0.016c-1.397,3.397-1.855,4.173-5.655,4.902c-9.429,1.812-19.381,1.18-28.951,1.549
		c-9.056,0.348-18.089,0.754-27.141,0.305c-7.431-0.369-14.693-1.886-22.156-2.25c-1.211-0.059-5.753,0.242-6.552-0.648
		C209.973,224.764,210.933,222.753,211.01,222.077z"/>
	<path style="fill:#7F614C;" d="M170.525,332.601c0.209-0.151,0.447-0.305,0.713-0.462c3.358-1.977,8.84-0.217,12.487-0.167
		c7.014,0.096,14.027,0.225,21.041,0.215c19.096-0.028,38.014-0.993,57.079-1.62c24.905-0.82,50.463-2.175,75.297,0.063
		c4.326,0.39,8.172,2.485,3.179,6.458c-2.234,1.777-4.019,1.17-6.864,0.882c-5.563-0.563-11.446-0.521-17.034-0.587
		c-12.63-0.148-25.338,1.644-38.028,1.644c-16.609,0-33.208,0.667-49.805,0.651c-15.787-0.015-32.066,0.283-47.726-0.981
		C178.379,338.498,165.056,336.543,170.525,332.601z"/>
	<path style="fill:#7F614C;" d="M161.168,376.491c0.454-2.766,1.985-6.647,3.691-8.946c1.966-2.65,3.113-1.969,6.317-1.797
		c20.36,1.092,40.797,0.967,61.203,0.97c25.903,0.005,51.784,0.632,77.68,0.651c8.501,0.007,16.915-0.995,25.399-0.978
		c2.954,0.007,6.921-0.973,9.767-0.324c4.601,1.048,4.76,6.868,6.483,10.683c-7.722,2.734-18.627,1.731-26.788,2.037
		c-15.253,0.573-30.55,0.634-45.83,0.634c-30.112,0-60.11-1.303-90.177-1.303C185.543,378.12,159.508,381.548,161.168,376.491z"/>
	<path style="fill:#7F614C;" d="M165.403,316.224c2.912,1.916,7.586,0.942,10.89,0.974c9.27,0.093,18.516,0.09,27.793-0.005
		c15.217-0.155,30.378-0.216,45.551-0.952c16.308-0.791,32.759-0.521,49.054-0.676c11.798-0.112,23.633,0.007,35.466,0.007
		c2.65,0,14.338-0.658,9.758,4.586c-1.758,2.013-5.178,1.699-7.551,1.576c-6.609-0.345-13.154,0.031-19.788,0.028
		c-35.096-0.012-70.176,1.707-105.268,1.296c-12.19-0.142-24.321-0.932-36.484-1.296
		C172.305,321.686,158.699,317.727,165.403,316.224z"/>
	<path style="fill:#7F614C;" d="M207.101,211.651c5.448-2.177,13.682-0.184,19.458-0.398c9.233-0.341,18.471-0.578,27.706-0.906
		c13.676-0.486,27.542-1.108,41.185,0.072c2.088,0.181,9.177-0.484,9.126,1.883c-0.075,3.457-5.103,2.706-7.18,2.607
		c-16.811-0.799-33.46-0.148-50.238,0.986c-9.722,0.657-19.834,0.014-29.55-0.659c-2.899-0.201-8.676,0.667-10.075-2.695
		C207.998,212.342,208.602,211.78,207.101,211.651z"/>
</g>
<path d="M243.524,389.076c-1.268-2.299-5.884-2.479-8.057-2.787c-3.745-0.53-8.129-1.134-11.89-0.803
	c-3.043,0.269-8.388,0.049-11.173,1.629c-2.164,1.228-3.342,3.923-4.402,6.041c-1.407,2.813-2.494,5.634-4.142,8.3
	c-0.584,0.946-1.355,2.557-1.067,3.705c0.271,1.08,1.822,2.012,2.949,1.286c7.878-5.068,16.39-9.063,25.452-11.857
	C233.443,393.898,246.102,393.751,243.524,389.076z M208.582,400.852c1.748-3.285,3.844-6.492,5.119-9.91
	c1.617-1.3,3.242-1.3,6.66-1.623c3.19-0.302,6.235-0.187,9.405,0.008c2.181,0.133,4.887,0.638,7.101,0.684
	c-2.089,0.512-4.321,1.158-4.705,1.253c-3.783,0.932-7.35,2.656-11.078,3.794C216.528,396.449,212.553,398.549,208.582,400.852z"/>
<path d="M427.73,498.648c-3.739-5.147-7.263-10.432-10.833-15.747c-15.071-22.429-26.356-46.735-40.565-69.624
	c-4.159-6.7-7.616-13.894-11.062-20.965c-2.737-5.617-6.809-10.79-9.963-16.252c-3.819-6.613-6.759-13.74-9.875-20.696
	c-1.49-3.327-3.105-6.703-4.491-10.017c-0.532-1.272-1.19-2.298-1.862-3.325c2.138-0.352,4.245-1.098,5.388-2.591
	c2.323-3.036,2.377-11.394,0.278-15.56c3.212-1.637,5.55-4.421,6.715-8.393c1.863-6.347-4.182-7.683-8.848-7.757
	c-4.326-0.069-8.65-0.179-12.976-0.281c-1.303-6-5.059-12.69-8.024-17.748c-3.578-6.102-4.972-13.647-7.52-20.194
	c-5.023-12.902-8.473-26.487-13.529-39.414c1.498-0.574,2.772-1.516,3.494-3.157c1.033-2.348,0.832-5.656-0.358-8.16
	c0.765-0.216,1.495-0.521,2.165-0.956c2.931-1.904,3.342-6.015,3.828-9.208c0.456-2.994-0.081-5.382-3.447-6.099
	c-4.341-0.925-9.677-0.648-14.114-0.63c-0.016,0-0.033,0-0.049,0c-0.01-4.933-2.513-10.772-3.386-15.507
	c-1.104-5.989-2.391-12.066-2.975-18.143c-0.527-5.474-1.374-11.056-2.783-16.392c-1.505-5.698-2.175-11.587-3.838-17.231
	c-3.826-12.983-5.053-26.211-6.478-39.569c-1.178-11.046-3.861-21.84-5.56-32.818c1.296-0.596,2.295-1.626,2.727-3.438
	c0.755-3.165,0.049-5.821-0.479-8.898c-0.522-3.042,0.379-6.33-0.31-9.285c-1.086-4.667-5.352-4.434-9.374-4.145
	c-0.089-9.704-1.107-19.354-0.608-29.064c0.267-5.196-0.74-8.21-6.872-7.184c-6.25,1.046-4.307,9.297-4.311,13.886
	c-0.003,4.543,0.331,9.18,0.716,13.702c0.245,2.895,0.201,6.107,1.075,8.943c-1.37,0.049-2.731,0.121-4.052,0.274
	c-1.566,0.181-3.427,0.404-4.516,1.669c-1.201,1.394-1.031,3.558-1.175,5.225c-0.283,3.281-0.542,6.523-0.547,9.826
	c-0.008,4.827,0.555,8.259,5.441,9.531c-1.704,10.62-4.252,21.08-5.394,31.777c-1.426,13.358-2.652,26.587-6.478,39.569
	c-1.663,5.643-2.333,11.532-3.838,17.231c-1.409,5.335-2.255,10.917-2.783,16.392c-0.584,6.078-1.872,12.155-2.975,18.143
	c-0.873,4.734-3.376,10.573-3.386,15.507c-0.016,0-0.033,0-0.049,0c-4.437-0.018-9.773-0.295-14.114,0.63
	c-3.364,0.717-3.902,3.105-3.447,6.099c0.486,3.194,0.896,7.304,3.828,9.208c0.67,0.435,1.4,0.74,2.165,0.956
	c-1.192,2.503-1.392,5.811-0.358,8.16c0.722,1.641,1.996,2.582,3.494,3.157c-5.054,12.927-8.506,26.512-13.529,39.414
	c-2.548,6.546-3.942,14.092-7.52,20.194c-2.966,5.059-6.721,11.748-8.024,17.748c-4.325,0.103-8.649,0.212-12.976,0.281
	c-4.667,0.075-10.711,1.41-8.848,7.757c1.166,3.971,3.503,6.757,6.715,8.393c-2.099,4.165-2.045,12.524,0.278,15.56
	c1.143,1.493,3.25,2.239,5.388,2.591c-0.671,1.026-1.331,2.053-1.862,3.325c-1.386,3.315-3.001,6.69-4.491,10.017
	c-3.116,6.956-6.056,14.082-9.875,20.696c-3.154,5.461-7.225,10.635-9.963,16.252c-3.446,7.07-6.903,14.264-11.062,20.965
	c-14.209,22.889-25.495,47.196-40.564,69.624c-3.571,5.314-7.096,10.599-10.835,15.747c-2.565,3.532-5.38,9.503,0.677,11.385
	c1.795,0.558,4.245,0.341,6.111,0.604c3.16,0.443,6.423,0.952,9.613,1.198c7.302,0.564,14.728-0.468,22.059-0.464
	c7.286,0.005,14.492,0.591,21.807,0.6c3.302,0.003,6.559-0.031,9.852-0.262c1.865-0.131,3.768-0.436,5.646-0.297
	c1.614,0.119,3.416,0.9,5.061,0.415c4.089-1.204,4.296-6.808,4.624-10.265c0.795-8.384,0.984-16.036,3.613-24.154
	c5.407-16.696,13.757-30.416,27.245-41.764c3.384-2.848,7.296-4.749,11.054-7.003c3.163-1.898,5.649-4.234,9.104-5.733
	c5.114-2.218,10.209-4.421,15.335-6.567c7.661-1.302,15.248-3.117,23.134-2.629c5.293,0.327,10.575,1.201,15.829,2.256
	c5.427,2.261,10.816,4.592,16.228,6.939c3.455,1.498,5.941,3.835,9.104,5.733c3.757,2.254,7.669,4.157,11.054,7.003
	c13.488,11.347,21.836,25.066,27.245,41.764c2.629,8.118,2.818,15.77,3.613,24.154c0.328,3.458,0.535,9.062,4.624,10.265
	c1.645,0.484,3.447-0.296,5.061-0.415c1.877-0.138,3.78,0.166,5.646,0.297c3.294,0.231,6.551,0.266,9.852,0.262
	c7.315-0.008,14.521-0.595,21.807-0.6c7.331-0.005,14.757,1.026,22.059,0.464c3.189-0.246,6.453-0.755,9.613-1.198
	c1.866-0.262,4.315-0.045,6.111-0.604C433.109,508.151,430.294,502.18,427.73,498.648z M370.222,415.821
	c0.768,1.377,1.537,2.752,2.347,4.121c5.149,8.712,9.971,17.568,14.794,26.419c-9.211-4.325-18.065-9.334-27.473-13.235
	c2.884-4.13,5.241-8.796,7.763-13.025C368.521,418.643,369.553,417.202,370.222,415.821z M152.719,424.246
	c-1.078-1.745-2.303-3.396-3.386-5.14c-0.651-1.047-2.869-3.694-2.923-4.853c-0.041-0.859,0.379-0.692,1.731-1.247
	c1.7-0.699,3.321-1.781,4.968-2.608c3.918-1.968,7.939-3.714,11.892-5.609c2.201-1.056,4.364-2.186,6.501-3.358
	c4.248,6.312,9.256,11.999,12.724,18.771c-9.182,3.572-18.2,7.534-27.396,11.053C155.374,429.01,154.222,426.679,152.719,424.246z
	 M164.118,448.165c1.749,2.485,6.904,7.573,6.006,10.709c-0.599,2.096-6.517,4.412-8.655,5.794c-3.294,2.13-6.919,3.922-10.425,5.68
	c-2.709,1.358-5.414,2.734-8.12,4.106c-2.582-4.19-5.213-8.355-7.824-12.522c-1.149-1.833-2.073-3.755-3.502-5.387
	c-1.79-2.043-3.623-3.633-4.789-5.969c9.545-4.401,18.827-9.264,28.491-13.442c0.13,0.141,0.249,0.295,0.381,0.434
	C158.773,440.82,161.528,444.484,164.118,448.165z M175.253,399.317c0.479-0.277,0.961-0.551,1.437-0.83
	c3.638-2.133,7.717-3.224,11.511-5.104c3.774-1.87,7.65-3.667,11.46-5.461c0.973-0.458,1.939-0.825,2.859-1.233
	c-2.203,6.426-5.087,12.698-7.911,18.8c-2.061,4.453-3.899,8.994-5.764,13.527C185.275,411.719,179.942,405.885,175.253,399.317z
	 M199.054,405.826c3.364-7.444,6.963-14.902,9.689-22.622c10.455-1.227,21.102,0.573,31.438-0.883
	c6.056,0.596,12.076,0.695,18.192,0.444c3.553-0.146,7.149-0.427,10.706-0.304c1.566,0.054,2.94,0.154,4.291,0.053
	c9.849,1.09,19.957-0.476,29.889,0.691c2.727,7.72,6.325,15.178,9.689,22.622c1.88,4.161,3.639,8.372,5.401,12.583
	c-5.429-4.739-12.077-8.213-18.569-11.237c-5.768-2.685-11.748-4.649-17.914-6.315c-3.787-1.024-7.77-2.104-11.626-1.629
	c-5.71-1.011-11.581-1.281-17.341-0.971c-5.101,0.274-11.226,0.11-16.74,1.187c-2.03,0.337-4.054,0.882-6.024,1.414
	c-6.165,1.666-12.146,3.63-17.914,6.315c-6.492,3.023-13.141,6.497-18.569,11.237C195.415,414.199,197.173,409.987,199.054,405.826z
	 M317.394,405.488c-2.823-6.102-5.708-12.374-7.911-18.8c0.92,0.407,1.886,0.774,2.859,1.233c3.81,1.794,7.686,3.592,11.46,5.461
	c3.794,1.88,7.873,2.971,11.511,5.104c0.477,0.279,0.959,0.553,1.438,0.83c-4.689,6.568-10.023,12.403-13.592,19.699
	C321.293,414.482,319.454,409.942,317.394,405.488z M340.499,401.431c2.138,1.172,4.3,2.302,6.501,3.358
	c3.952,1.896,7.973,3.64,11.892,5.609c1.647,0.828,3.268,1.909,4.968,2.608c1.352,0.555,1.771,0.389,1.731,1.247
	c-0.054,1.159-2.272,3.806-2.923,4.853c-1.083,1.743-2.306,3.394-3.386,5.14c-1.504,2.433-2.655,4.764-4.11,7.008
	c-9.197-3.519-18.214-7.48-27.396-11.053C331.243,413.43,336.251,407.743,340.499,401.431z M356.323,437.568
	c0.132-0.139,0.251-0.293,0.381-0.434c9.663,4.177,18.946,9.04,28.491,13.441c-1.164,2.334-2.999,3.926-4.789,5.969
	c-1.429,1.631-2.354,3.554-3.502,5.387c-2.611,4.167-5.243,8.333-7.824,12.522c-2.706-1.371-5.412-2.748-8.12-4.106
	c-3.508-1.758-7.131-3.551-10.425-5.68c-2.138-1.383-8.056-3.698-8.655-5.794c-0.898-3.137,4.257-8.224,6.006-10.709
	C350.474,444.484,353.229,440.82,356.323,437.568z M361.307,398.768c1.705,3.352,3.381,6.674,5.1,9.974
	c-6.707-3.422-13.751-6.226-20.458-9.656c-0.973-0.497-1.926-1.057-2.87-1.638c3.13-4.914,6.304-9.936,8.744-15.203
	C355.014,387.745,358.432,393.117,361.307,398.768z M339.55,395.225c-1.249-0.779-2.507-1.523-3.802-2.148
	c-2.752-1.329-5.687-1.97-8.437-3.346c-3.654-1.828-7.5-3.177-11.155-5.044c-1.341-0.685-4.246-1.462-5.863-2.541
	c4.566-0.018,9.138,0.015,13.704-0.055c3.251-0.05,6.304-0.694,9.58-0.608c4.104,0.107,8.021-0.606,12.108-0.72
	c1.428-0.04,2.79-0.09,4.098-0.34C346.059,385.11,342.869,390.207,339.55,395.225z M311.117,282.35
	c1.299,3.77,2.781,7.491,4.637,10.767c1.909,3.369,3.335,7.012,4.853,10.587c-4.649-3.518-11.626-7.526-12.504-8.097
	c-2.048-1.329-4.086-2.659-6.123-3.982c2.341-2.279,4.662-4.58,6.882-6.985C309.505,283.942,310.332,283.177,311.117,282.35z
	 M224.163,299.956c-1.747-2.164-3.814-4.075-5.807-6.01c-0.647-0.627-1.297-1.25-1.947-1.874c1.28-0.844,2.568-1.678,3.89-2.469
	c3.441-2.063,7.417-3.71,10.558-6.209c0.173-0.138,0.307-0.271,0.456-0.406c-1.438,6.984-2.715,13.995-3.603,21.156
	C226.153,303.597,225.209,301.251,224.163,299.956z M224.56,307.244c-8.364-0.075-16.732-0.043-25.097-0.052
	c-2.079-0.002-4.157,0.019-6.232,0.046c0.954-0.664,1.899-1.328,2.854-1.889c3.896-2.287,7.489-4.972,11.324-7.338
	c1.865-1.151,3.68-2.371,5.492-3.594c1.332,1.292,2.659,2.589,3.968,3.906C219.387,300.856,221.511,305.052,224.56,307.244z
	 M227.82,273.751c-2.104-2.259-4.184-4.667-6.217-7.148c1.887-1.024,3.777-2.05,5.665-3.098c3.12-1.73,7.817-3.497,9.566-6.102
	c-0.3,1.485-0.601,2.97-0.922,4.45c-1.211,5.576-2.461,11.093-3.645,16.613C231.315,276.891,229.343,275.386,227.82,273.751z
	 M283.657,249.136c1.236-1.478,2.452-2.908,3.673-4.323c4.22,3.024,8.443,6.05,12.735,8.968c-2.23,3.195-4.602,6.435-7.08,9.6
	c-2.346-1.289-4.693-2.572-7.058-3.853c-1.081-0.586-7.22-2.823-7.527-4.134C278.108,254.146,282.762,250.205,283.657,249.136z
	 M276.518,251.262c-1.116,1.176-1.721,2.233-1.941,3.195c-0.899-4.557-1.775-9.12-2.832-13.637c-0.415-1.774-0.89-4.231-1.646-6.579
	c4.194,2.332,8.534,4.395,12.409,7.135c0.423,0.298,0.843,0.603,1.266,0.902C281.375,245.261,279.183,248.455,276.518,251.262z
	 M286.297,239.385c-3.911-2.636-7.893-5.153-12.074-7.424c0.984-0.075,1.9-0.158,2.693-0.222c6.021-0.478,12.123-0.089,18.131-0.652
	c0.136-0.012,0.274-0.026,0.41-0.04C293.121,234.345,289.029,236.612,286.297,239.385z M286.526,225.289
	c-4.955-0.102-9.711,0.589-14.651,0.6c-1.553,0.003-3.243-0.131-4.871-0.052c-3.505-0.934-7.529,0.139-11.119,0.155
	c-2.83,0.012-5.697,0.014-8.546,0.17c-2.266-0.565-4.891-0.267-7.21-0.272c-4.94-0.011-9.696-0.702-14.651-0.6
	c-2.618,0.054-10.381,1.186-12.309-0.725c-1.158-1.146-1.025-3.387-1.381-5.363c2.025,0.005,4.088-0.306,5.883-0.506
	c7.54-0.837,14.941-0.35,22.375-0.685c3.499,0.37,7.13,0.392,10.651,0.655c5.815,0.432,11.757,0.673,17.334-0.922
	c8.765,0.814,17.439-0.031,26.306,0.954c1.795,0.199,3.858,0.511,5.883,0.506c-0.356,1.976-0.224,4.216-1.381,5.363
	C296.908,226.474,289.145,225.343,286.526,225.289z M241.903,234.241c-0.756,2.348-1.231,4.806-1.646,6.579
	c-1.057,4.519-1.933,9.08-2.832,13.637c-0.222-0.962-0.825-2.019-1.941-3.195c-2.663-2.807-4.857-6.002-7.257-8.985
	c0.423-0.301,0.843-0.604,1.266-0.902C233.369,238.636,237.709,236.573,241.903,234.241z M216.954,231.088
	c6.007,0.563,12.11,0.174,18.131,0.652c0.792,0.063,1.709,0.147,2.693,0.222c-4.179,2.271-8.162,4.788-12.074,7.424
	c-2.731-2.773-6.822-5.041-9.161-8.336C216.68,231.063,216.818,231.075,216.954,231.088z M228.345,249.136
	c0.895,1.071,5.55,5.01,5.257,6.258c-0.306,1.311-6.446,3.549-7.527,4.134c-2.365,1.281-4.712,2.565-7.058,3.853
	c-2.478-3.165-4.85-6.405-7.08-9.6c4.292-2.918,8.515-5.944,12.735-8.968C225.893,246.227,227.109,247.658,228.345,249.136z
	 M236.838,285.968c1.228-7.101,3.289-13.932,4.838-20.932c2.333-10.543,3.508-21.218,5.119-31.821
	c3.786,0.471,7.826,0.298,11.331,0.304c2.224,0.003,4.874,0.483,7.14,0.094c1.58,10.473,2.755,21.012,5.059,31.423
	c1.549,7.001,3.611,13.833,4.838,20.932c1.225,7.088,1.891,14.261,3.183,21.357c-3.855,0.028-7.719,0.052-11.555,0.287
	c-2.125,0.13-4.412,0.064-6.602,0.313c-4.087-0.374-8.294-0.22-12.291-0.357c-1.324-0.045-2.659-0.094-3.966-0.018
	c-3.417-0.17-6.851-0.2-10.28-0.225C234.947,300.229,235.613,293.055,236.838,285.968z M276.09,261.853
	c-0.321-1.48-0.623-2.964-0.922-4.45c1.749,2.606,6.446,4.373,9.566,6.102c1.889,1.047,3.778,2.072,5.665,3.098
	c-2.033,2.481-4.113,4.889-6.217,7.148c-1.523,1.635-3.494,3.139-4.446,4.715C278.551,272.946,277.3,267.428,276.09,261.853z
	 M281.144,283.394c3.141,2.5,7.115,4.146,10.558,6.209c1.322,0.792,2.61,1.625,3.89,2.469c-0.65,0.624-1.3,1.246-1.947,1.874
	c-1.993,1.934-4.061,3.846-5.807,6.01c-1.046,1.296-1.989,3.641-3.546,4.187c-0.887-7.159-2.165-14.172-3.603-21.156
	C280.837,283.123,280.971,283.256,281.144,283.394z M295.134,298.323c1.309-1.317,2.636-2.614,3.968-3.906
	c1.812,1.223,3.627,2.443,5.492,3.594c3.833,2.366,7.428,5.051,11.324,7.338c0.955,0.561,1.9,1.225,2.854,1.889
	c-2.077-0.028-4.153-0.049-6.232-0.046c-8.364,0.009-16.731-0.023-25.097,0.052C290.491,305.052,292.615,300.856,295.134,298.323z
	 M305.982,281.76c-2.431,2.616-4.979,5.105-7.547,7.577c-3.621-2.319-7.272-4.592-11.032-6.751
	c-0.564-0.324-3.354-1.573-3.594-2.374c-0.237-0.798,0.456-0.701,1.508-1.646c1.888-1.697,3.613-3.917,5.212-5.902
	c1.107-1.374,2.225-2.763,3.344-4.162c2.195,1.204,4.385,2.42,6.559,3.693c2.111,1.236,4.839,2.247,6.685,3.841
	C309.96,278.49,307.94,279.651,305.982,281.76z M307.627,271.35c-1.602-0.841-3.205-1.561-4.35-2.217
	c-2.281-1.306-4.567-2.578-6.856-3.849c2.289-2.911,4.543-5.863,6.664-8.834C304.516,261.462,306.112,266.482,307.627,271.35z
	 M301.196,249.714c-3.819-2.601-7.539-5.257-11.28-7.85c1.227-1.376,2.47-2.745,3.775-4.121c0.925-0.976,2.043-1.967,3.018-3.036
	c0.565,1.708,1.232,3.385,1.644,4.898C299.269,242.983,300.246,246.346,301.196,249.714z M281.669,188.189
	c0.617,3.241,1.216,6.613,2.05,9.894c-2.528-2-6.474-3.532-8.626-4.872c-0.374-0.234-0.755-0.48-1.132-0.72
	c2.452-2.272,4.961-4.621,7.197-7.077C281.326,186.34,281.493,187.27,281.669,188.189z M251.779,177.743
	c-0.054,0.696-0.078,1.331-0.02,1.998c-0.114,0.825-0.245,1.649-0.379,2.475c-2.043-2.155-4.767-3.997-6.986-5.775
	c2.832-1.524,5.619-3.108,8.204-4.972c-0.312,1.166-0.45,2.407-0.568,3.218c-0.125,0.858-0.029,1.697-0.103,2.547
	C251.955,176.902,251.787,177.644,251.779,177.743z M241.211,195.365c2.478,2.029,4.871,4.134,7.067,6.417
	c-0.042,0.187-0.075,0.376-0.119,0.562c-1.219-0.009-2.433,0.038-3.59,0.265c-4.768-0.573-9.632-0.716-14.465-0.74
	c2.686-2.168,7.358-4.404,9.77-5.77C240.308,195.853,240.763,195.61,241.211,195.365z M231.928,183.746
	c2.73-2.005,5.694-3.676,8.697-5.29c2.736,2.279,6.292,4.459,8.362,7.245c-2.524,2.122-5.621,3.765-8.676,5.346
	C237.432,188.66,234.626,186.198,231.928,183.746z M243.867,193.92c2.138-1.155,4.292-2.359,6.238-3.77
	c-0.075,0.53-0.158,1.059-0.222,1.589c-0.242,2.005-0.513,4.046-0.847,6.075C247.302,196.568,245.577,195.265,243.867,193.92z
	 M242.123,174.462c-2.636-2.407-5.113-5.046-7.584-7.607c2.704-2.18,5.508-4.213,8.363-6.172c0.163,0.112,0.332,0.218,0.492,0.332
	c3.143,2.239,6.02,5.464,9.242,7.757C248.734,169.871,245.565,172.287,242.123,174.462z M246.646,159.095
	c-0.211-0.165-0.437-0.32-0.652-0.484c2.227-1.469,4.471-2.914,6.733-4.334c3.499,2.262,7.114,4.409,10.691,6.551
	c-2.623,1.787-5.736,3.656-8.004,6.006C253.433,163.687,249.209,161.096,246.646,159.095z M268.796,175.091
	c-2.294-0.961-4.436-2.003-6.567-3.414c-1.539-1.019-2.859-2.145-4.439-2.883c0.147-0.128,0.295-0.255,0.452-0.379
	c2.635-2.056,5.538-3.797,8.247-5.75c2.687,1.573,6.531,3.102,8.681,5.205c0.132,0.129,0.244,0.216,0.336,0.271
	c-0.228,0.06-0.582,0.263-1.065,0.792c-1.069,1.17-2.145,2.332-3.214,3.503C270.416,173.324,269.606,174.207,268.796,175.091z
	 M277.995,183.214c-2.332,2.328-5.097,4.563-7.757,6.899c-2.135-1.359-4.307-2.687-6.53-3.794c0.849-0.883,1.989-1.784,2.52-2.367
	c1.376-1.508,2.744-3.014,4.14-4.503C272.994,180.533,275.754,181.679,277.995,183.214z M254.613,190.089
	c0.401-3.698,0.868-7.38,1.224-11.072c0.145,0.591,0.294,1.167,0.501,1.725c0.328,3.116,0.713,6.226,1.052,9.347
	c0.344,3.168,0.298,8.15,1.513,11.88c-2.068,0.08-4.107,0.331-5.706,0.423c-0.081,0.005-0.166,0.006-0.249,0.009
	C254.317,198.633,254.255,193.381,254.613,190.089z M258.853,174.748c-0.069-0.228-0.137-0.457-0.197-0.682
	c-0.125-0.47-0.213-1.03-0.311-1.611c2.562,1.948,5.161,3.833,8.06,5.257c-1.021,1.119-2.042,2.238-3.051,3.369
	c-0.78,0.873-1.695,1.667-2.511,2.525c-0.407-2.42-0.787-4.842-0.993-7.272C259.787,175.575,259.38,175.048,258.853,174.748z
	 M267.272,192.849c-1.621,1.592-3.099,3.264-4.291,5.065c-0.34-2.062-0.617-4.136-0.864-6.175c-0.08-0.667-0.172-1.334-0.269-2
	C263.686,190.602,265.505,191.705,267.272,192.849z M264.906,202.181c1.04-2.523,3.743-4.909,6.018-6.919
	c0.211,0.14,0.425,0.281,0.633,0.418c1.804,1.178,3.719,2.191,5.539,3.346c0.969,0.615,3.632,1.718,4.739,2.838
	c-5.465,0.028-10.969,0.217-16.329,1.004c-0.254-0.119-0.522-0.223-0.798-0.314C264.783,202.44,264.85,202.318,264.906,202.181z
	 M280.278,180.373c-2.264-1.439-4.858-2.594-7.383-3.622c1.513-1.609,3.022-3.22,4.533-4.827c0.567-0.604,1.021-1.147,1.383-1.649
	C279.217,173.63,279.721,177.011,280.278,180.373z M278.177,165.089c-0.953-0.731-2.246-1.475-3.749-2.391
	c-1.499-0.913-3.009-1.812-4.514-2.718c1.324-1.117,2.632-2.255,3.999-3.293c0.834-0.634,1.848-1.223,2.764-1.897
	C277.235,158.218,277.744,161.653,278.177,165.089z M273.789,139.88c0.842,3.664,1.573,7.362,2.235,11.072
	c-3.266,1.483-6.322,4.682-9.157,7.194c-3.475-2.076-6.958-4.138-10.456-6.177c0.566-0.354,1.134-0.709,1.7-1.064
	c3.931-2.466,7.643-5.206,11.421-7.882C270.931,142.035,272.551,141.109,273.789,139.88z M271.936,132.31
	c-2.977-2.711-6.842-5.115-9.44-7.115c-0.503-0.387-1.004-0.764-1.506-1.145c2.786-2.233,5.559-4.479,8.267-6.758
	C269.87,122.359,270.707,127.387,271.936,132.31z M254.623,74.214c-2.731,2.955-5.689,5.767-8.448,8.632
	c0.328-2.168,0.66-4.339,0.967-6.526c0.461-3.286,0.995-6.801,0.987-10.233c0.11-0.044,0.219-0.096,0.33-0.166
	C247.58,66.48,251.651,71.049,254.623,74.214z M257.092,71.406c-0.865-0.882-1.715-1.777-2.505-2.734
	c-1.369-1.657-2.511-3.37-4.029-4.765c2.619,0.016,5.353-0.293,7.937-0.895c1.289-0.043,2.688,0.011,4.056-0.016
	C261.174,66.034,259.262,68.795,257.092,71.406z M263.893,67.742c0.132,2.897,0.581,5.82,0.968,8.578
	c0.223,1.585,0.459,3.161,0.696,4.733c-1.32-1.833-2.608-3.601-4.235-5.351c-0.592-0.638-1.201-1.256-1.814-1.87
	C261.127,71.891,262.627,69.88,263.893,67.742z M256.998,76.706c0.203,0.211,0.372,0.387,0.453,0.475
	c2.338,2.518,4.096,5.282,6.162,7.981c1.739,2.271,1.924,1.575-0.361,3.889c-2.7,2.735-5.501,5.364-8.319,7.973
	c-3.059-2.614-6.184-5.15-9.328-7.63C248.937,84.973,253.141,80.948,256.998,76.706z M255.057,102.955
	c0.535,0.46,1.062,0.926,1.6,1.384c2.607,2.219,5.008,4.625,7.569,6.884c0.895,0.79,3.284,1.626,3.242,2.587
	c-0.025,0.581-3.68,2.831-4.508,3.441c-1.842,1.357-3.632,2.763-5.405,4.187c-2.237-1.708-4.446-3.441-6.576-5.345
	c-0.739-0.66-3.863-2.861-5.3-4.297C248.729,108.789,251.984,105.961,255.057,102.955z M267.495,96.51
	c0.306,4.349,0.595,8.751,0.974,13.154c-0.032-0.027-0.068-0.053-0.098-0.079c-1.773-1.535-3.256-3.258-4.94-4.883
	c-1.721-1.66-3.492-3.272-5.283-4.864c2.377-2.445,4.883-4.77,7.279-7.194c0.416-0.422,0.982-0.913,1.559-1.45
	C267.192,92.956,267.369,94.726,267.495,96.51z M254.764,3.639c0.575,0.229,0.839,0.241,0.946,0.211
	c-0.047,0.105-0.077,0.383,0.102,1.055c0.254,0.956-0.157,2.286-0.224,3.269c-0.197,2.899-0.298,5.815-0.301,8.722
	c-0.006,6.559,0.337,13.162,0.461,19.721c-1.132,0.017-2.272,0.033-3.425,0.047c0.018-4.991-0.033-9.771-0.65-14.817
	c-0.397-3.242-0.504-6.385-0.506-9.645C251.166,10.379,250.152,1.798,254.764,3.639z M244.183,57.23
	c-0.731-1.234-0.335-3.8-0.366-5.276c-0.047-2.154-0.103-4.276-0.055-6.427c0.061-2.805-0.145-4.434,3.197-4.669
	c4.368-0.306,8.897-0.252,13.281-0.24c2.159,0.007,3.975-0.8,4.807,1.851c0.56,1.784-0.248,4.517-0.035,6.436
	c0.229,2.067,1.025,4.004,1.127,6.097c0.144,2.944,0.021,3.281-2.731,3.311c-5.173,0.058-11.494-0.681-16.856,0.522
	C245.582,58.625,244.736,58.165,244.183,57.23z M244.507,96.51c0.059-0.832,0.129-1.661,0.207-2.487
	c2.341,1.983,4.654,3.997,6.969,6.013c-2.684,2.463-5.347,4.938-7.972,7.445C244.004,103.807,244.252,100.14,244.507,96.51z
	 M239.771,133.532c1.583-5.973,2.547-12.12,3.224-18.301c1.29,1.145,2.792,2.167,3.863,3.233c2.173,2.163,4.61,4.087,7.094,5.924
	c-1.981,1.656-3.945,3.332-5.905,5.021c-1.914,1.65-3.847,3.272-5.805,4.895c-1.429,1.185-2.492,2.503-3.61,3.792
	C238.995,136.568,239.369,135.045,239.771,133.532z M242.813,138.399c2.684-2.206,5.5-4.216,8.205-6.388
	c2.117-1.7,4.26-3.403,6.405-5.111c4.523,3.165,10.41,6.624,14.191,10.696c-0.818,0.753-1.653,1.496-2.506,2.223
	c-5.399,2.749-10.281,6.715-15.449,9.754c-0.229,0.135-0.458,0.274-0.686,0.409c-4.946-2.865-9.902-5.704-14.859-8.505
	C239.901,141.098,241.371,139.584,242.813,138.399z M237.438,143.38c3.195,3.139,7.376,5.452,10.966,7.985
	c0.35,0.248,0.719,0.479,1.074,0.724c-2.237,1.371-4.446,2.789-6.631,4.242c-0.733-0.506-1.467-1.014-2.202-1.496
	c-1.474-0.965-3.095-2.362-4.784-3.251C236.342,148.839,236.861,146.102,237.438,143.38z M235.168,155.721
	c1.392,1.03,2.893,1.944,4.391,2.848c-1.82,1.267-3.624,2.557-5.392,3.898C234.471,160.217,234.811,157.969,235.168,155.721z
	 M233.12,170.835c1.826,1.948,3.656,3.898,5.537,5.788c-2.303,1.419-4.634,2.807-6.995,4.116
	C232.211,177.443,232.712,174.128,233.12,170.835z M230.333,188.189c0.093-0.486,0.18-0.98,0.27-1.469
	c2.26,1.979,4.627,3.864,6.997,5.745c-0.967,0.513-1.916,1.032-2.814,1.574c-1.881,1.135-4.365,2.437-6.482,3.959
	C229.126,194.744,229.722,191.403,230.333,188.189z M208.684,212.235c-0.415-0.568-1.211-4.252-1.025-4.488
	c0.7-0.89,6.558-0.735,7.856-0.812c5.067-0.298,10.197-0.042,15.271-0.054c5.552-0.014,11.21,0.549,16.74,0.04
	c1.999,0.105,4.034,0.175,5.988,0.136c2.671-0.053,6.301,0.354,9.33-0.323c6.046,0.812,12.273,0.133,18.374,0.148
	c5.073,0.014,10.203-0.244,15.271,0.054c1.298,0.077,7.156-0.077,7.856,0.812c0.185,0.236-0.609,3.921-1.025,4.488
	c-1.515,2.068-4.207,1.402-6.418,1.193c-3.795-0.361-7.356-0.526-11.171-0.443c-6.697,0.146-13.368,0.187-20.045,0.501
	c-4.906-0.658-10.192,0.054-14.989,0.027c-2.492-0.015-6.357-0.574-9.686-0.229c-4.906-0.139-9.813-0.192-14.734-0.3
	c-3.815-0.083-7.376,0.083-11.171,0.443C212.891,213.636,210.199,214.301,208.684,212.235z M213.65,239.605
	c0.41-1.513,1.078-3.19,1.643-4.898c0.976,1.068,2.093,2.061,3.018,3.036c1.305,1.376,2.548,2.745,3.775,4.121
	c-3.741,2.593-7.461,5.249-11.28,7.85C211.756,246.346,212.733,242.983,213.65,239.605z M208.916,256.45
	c2.121,2.971,4.376,5.923,6.664,8.834c-2.288,1.271-4.575,2.542-6.856,3.849c-1.145,0.656-2.748,1.376-4.35,2.217
	C205.89,266.482,207.486,261.462,208.916,256.45z M204.887,276.035c1.846-1.593,4.574-2.605,6.685-3.841
	c2.173-1.273,4.364-2.489,6.559-3.693c1.119,1.4,2.237,2.789,3.344,4.162c1.599,1.985,3.322,4.204,5.212,5.902
	c1.051,0.945,1.745,0.848,1.507,1.646c-0.239,0.802-3.03,2.05-3.594,2.374c-3.76,2.16-7.41,4.433-11.032,6.751
	c-2.568-2.471-5.117-4.961-7.547-7.577C204.062,279.651,202.042,278.49,204.887,276.035z M196.248,293.116
	c1.856-3.276,3.338-6.997,4.637-10.767c0.783,0.829,1.611,1.593,2.255,2.29c2.22,2.406,4.541,4.705,6.882,6.985
	c-2.037,1.323-4.074,2.651-6.123,3.982c-0.878,0.571-7.856,4.578-12.505,8.097C192.913,300.129,194.339,296.485,196.248,293.116z
	 M167.104,315.615c-0.015-1.708-0.685-1.162,1.145-1.828c1.402-0.51,3.937-0.164,5.429-0.265c3.956-0.265,7.869-0.293,11.837-0.296
	c8.225-0.008,16.45-0.018,24.675-0.027c8.605-0.009,17.205-0.044,25.809-0.187c4.006-0.067,7.964-0.137,11.955-0.477
	c0.527-0.045,1.024-0.127,1.511-0.223c0.11,0.005,0.219,0.009,0.329,0.015c4.61,0.213,9.389,0.902,13.974,0.174
	c0.095,0.01,0.185,0.027,0.281,0.035c3.991,0.34,7.948,0.41,11.955,0.477c8.604,0.144,17.204,0.177,25.808,0.187
	c8.225,0.009,16.45,0.019,24.675,0.027c3.968,0.003,7.881,0.032,11.837,0.296c1.491,0.099,4.027-0.245,5.429,0.265
	c1.83,0.666,1.16,0.12,1.145,1.828c-0.037,4.411-4.23,4.725-7.674,4.421c-3.477-0.306-6.89-0.496-10.387-0.529
	c-7.06-0.067-13.962,0.452-20.99,0.633c-7.809,0.201-16.109,0.421-23.9-0.001c-3.875-0.21-7.622-0.335-11.368-0.174
	c-4.595-0.837-9.936-0.578-14.323-0.413c-4.608,0.173-9.691-0.098-14.496,0.427c-3.859-0.183-7.712-0.055-11.704,0.161
	c-7.791,0.422-16.09,0.201-23.9,0.001c-7.028-0.181-13.93-0.7-20.99-0.633c-3.497,0.033-6.91,0.223-10.387,0.529
	C171.333,320.341,167.14,320.027,167.104,315.615z M171.658,330.368c-0.139-0.84-0.985-3.447-1.469-5.369
	c0.76,0.199,1.547,0.358,2.373,0.458c7.678,0.917,15.641,0.142,23.372,0.413c9.356,0.327,18.559,0.665,27.954,0.479
	c4.324-0.086,8.505-0.552,12.79-0.804c0.522-0.031,1.056-0.034,1.593-0.028c11.497,1.813,23.711,2.695,35.056,0.003
	c0.674-0.014,1.342-0.014,1.994,0.025c4.286,0.252,8.466,0.719,12.79,0.804c9.394,0.185,18.599-0.153,27.954-0.479
	c7.729-0.27,15.692,0.505,23.372-0.413c0.827-0.098,1.613-0.259,2.373-0.458c-0.483,1.922-1.329,4.529-1.469,5.369
	c-0.865,5.223-0.384,5.84-6.49,5.608c-8.411-0.32-16.832,0.066-25.291-0.122c-8.686-0.193-17.196-1.166-25.885-1.184
	c-3.911-0.008-7.842-0.123-11.751,0.009c-1.153,0.04-2.394,0.063-3.657,0.115c-5.707-1.06-11.926-0.555-17.523-0.133
	c-2.206,0.166-4.618,0.093-7.04,0.066c-0.556-0.016-1.104-0.031-1.63-0.049c-3.909-0.132-7.84-0.017-11.751-0.009
	c-8.689,0.018-17.199,0.991-25.885,1.184c-8.459,0.189-16.882-0.197-25.291,0.122C172.043,336.208,172.524,335.59,171.658,330.368z
	 M337.49,350.334c-1.866-0.373-5.092-0.959-5.733-0.996c-3.481-0.202-6.994-0.1-10.486-0.13c-0.007-0.97-0.25-1.969-0.482-2.995
	c-0.286-1.264-0.263-2.731-0.475-4.095c4.857,0.114,9.616,0.07,14.505,0.18c0.139,0.003,0.286,0.005,0.434,0.006
	C335.597,344.99,336.477,347.692,337.49,350.334z M316.955,349.189c-0.037,0.329-9.362,0.432-10.489-0.428
	c-1.673-1.275-1.74-5.399,0.248-6.358c1.206-0.582,10.316,0.226,10.415-0.346c-0.168,0.968-0.203,1.982-0.271,2.899
	C316.749,346.408,317.118,347.804,316.955,349.189z M287.055,341.125c2.622,0.017,5.242,0.088,7.86,0.2
	c1.657,0.071,5.825-0.511,6.731,1.299c0.266,0.531,0.298,1.145,0.327,1.738c0.053,1.123,0.512,3.007,0.06,4.151
	c-0.034,0.085-0.072,0.165-0.116,0.242c-0.625,1.08-2.043,0.961-3.121,0.97c-0.95,0.008-11.013-0.331-11.037-0.17
	C288.142,346.939,287.56,343.462,287.055,341.125z M283.78,341.092c-0.323,1.813-0.496,3.665-0.62,5.491
	c-0.071,1.051-0.132,1.931-0.374,2.885c-3.371-0.041-6.747-0.021-10.099,0.122c0.046-0.861-0.031-1.775-0.067-2.693
	c-0.076-1.92-0.246-3.776-0.681-5.604c0.322-0.08,0.641-0.17,0.958-0.267C276.519,341.002,280.154,341.052,283.78,341.092z
	 M268.188,341.907c-0.332,1.632-0.477,3.289-0.545,4.991c-0.031,0.755-0.085,1.502-0.079,2.219c-2.946-0.005-5.961,0.417-8.752,0.67
	c0.049-2.58-0.582-5.2-1.014-7.763c0.194-0.001,0.391-0.001,0.584-0.002C261.586,342.014,264.936,342.203,268.188,341.907z
	 M254.877,349.992c-3.467,0.041-7.002-0.194-10.475-0.081c0.089-0.951-0.001-1.975-0.043-3.013
	c-0.078-1.952-0.242-3.846-0.693-5.708c3.801,0.725,7.826,0.831,11.695,0.838C255.004,344.693,254.7,347.283,254.877,349.992z
	 M240.118,341.029c-0.483,1.915-0.657,3.858-0.737,5.871c-0.036,0.917-0.113,1.83-0.067,2.693
	c-3.352-0.144-6.728-0.163-10.099-0.122c-0.242-0.954-0.303-1.834-0.374-2.885c-0.123-1.826-0.296-3.677-0.62-5.491
	C232.186,341.048,236.162,340.98,240.118,341.029z M224.242,349.555c-3.72,0.079-7.414,0.172-11.036,0.17
	c-0.502,0-2.052,0.239-2.451-0.031c-0.378-0.254-0.355-0.83-0.427-1.379c-0.211-1.582-0.408-3.085-0.265-4.688
	c0.064-0.712,0.016-1.565,0.59-1.947c0.526-0.35,2.237-0.141,2.885-0.177c3.798-0.215,7.603-0.352,11.408-0.376
	C224.442,343.462,223.86,346.939,224.242,349.555z M205.58,349.53c-3.509-0.141-7.011-0.31-10.533-0.343
	c-0.163-1.384,0.206-2.781,0.097-4.234c-0.069-0.917-0.103-1.931-0.271-2.899c1.844-0.035,3.689-0.042,5.534-0.054
	c1.227-0.009,4.079-0.599,5.146-0.064C206.885,342.606,205.141,349.513,205.58,349.53z M191.689,342.118
	c-0.211,1.363-0.19,2.831-0.475,4.095c-0.232,1.025-0.475,2.025-0.482,2.995c-3.492,0.031-7.006-0.072-10.486,0.13
	c-0.641,0.037-3.867,0.623-5.733,0.996c1.013-2.642,1.892-5.344,2.236-8.03c0.147-0.001,0.294-0.002,0.434-0.006
	C182.072,342.189,186.832,342.233,191.689,342.118z M171.649,357.506c0.433-1.156,0.918-2.345,1.414-3.553
	c4.703,2.126,12.032,0.848,16.762,0.877c7.473,0.046,14.858,0.626,22.318,0.635c7.694,0.009,15.39,0.02,23.085-0.017
	c1.507-0.007,3.066,0.202,4.623,0.371c3.758,1.055,8.77,0.982,11.994,1.016c6.076,0.063,11.571,0.383,17.315-0.816
	c2.52-0.006,5.14-0.582,7.618-0.571c7.694,0.037,15.389,0.026,23.085,0.017c7.46-0.009,14.846-0.589,22.318-0.635
	c4.73-0.029,12.059,1.249,16.762-0.877c0.495,1.208,0.981,2.397,1.414,3.553c2.219,5.935,4.729,11.912,7.607,17.62
	c-1.591,0.005-3.19,0.123-4.586,0.155c-4.155,0.095-8.185,0.347-12.36,0.305c-3.364-0.034-6.59,0.648-9.992,0.635
	c-4.528-0.017-9.056-0.035-13.584-0.053c-4.914-0.019-9.554,0.496-14.458,0.047c-4.331-0.396-8.856-0.201-13.209-0.077
	c-3.059,0.087-7.667-0.603-11.521-0.056c-5.792-0.364-11.867,0.423-17.538-0.049c-2.805-0.233-7.488-0.675-11.325-0.155
	c-2.618,0.055-5.205,0.315-7.158,0.259c-4.351-0.124-8.878-0.319-13.209,0.077c-4.904,0.449-9.544-0.068-14.458-0.047
	c-4.528,0.018-9.056,0.036-13.584,0.053c-3.403,0.014-6.628-0.669-9.992-0.635c-4.175,0.042-8.205-0.21-12.36-0.305
	c-1.396-0.032-2.996-0.15-4.586-0.155C166.92,369.419,169.429,363.441,171.649,357.506z M166.316,380.762
	c4.087,0.114,8.004,0.828,12.108,0.72c3.276-0.086,6.328,0.557,9.58,0.608c4.566,0.07,9.137,0.037,13.704,0.055
	c-1.617,1.08-4.522,1.856-5.863,2.541c-3.655,1.868-7.501,3.216-11.155,5.044c-2.749,1.375-5.685,2.017-8.437,3.346
	c-1.294,0.625-2.552,1.369-3.801,2.148c-3.319-5.017-6.509-10.116-10.233-14.804C163.526,380.672,164.889,380.722,166.316,380.762z
	 M150.695,398.768c2.875-5.652,6.295-11.025,9.484-16.522c2.441,5.268,5.614,10.289,8.744,15.203
	c-0.944,0.581-1.896,1.14-2.869,1.638c-6.707,3.43-13.75,6.235-20.458,9.655C147.313,405.443,148.989,402.12,150.695,398.768z
	 M139.434,419.941c0.808-1.368,1.578-2.744,2.347-4.121c0.668,1.383,1.7,2.823,2.57,4.28c2.522,4.229,4.879,8.896,7.763,13.025
	c-9.408,3.901-18.262,8.91-27.473,13.235C129.463,437.509,134.285,428.653,139.434,419.941z M90.712,501.497
	c3.653-4.932,7.121-9.821,10.542-15c7.556-11.437,14.19-23.307,20.713-35.238c1.727,4.325,5.342,7.084,7.805,10.993
	c2.989,4.742,6.063,9.49,8.955,14.314c-3.042,1.523-6.091,3.023-9.157,4.448c-7.4,3.439-14.567,7.632-21.743,11.568
	c-3.644,2-7.314,3.727-11.083,5.469C94.625,499.029,92.664,500.256,90.712,501.497z M158.339,504.644
	c-1.342,0.025-2.618,0.196-3.948,0.293c-4.689,0.344-9.371,0.295-14.075,0.295c-6.523,0.001-12.942-0.531-19.474-0.543
	c-7.573-0.012-15.299,1.323-22.81,0.184c-1.292-0.196-2.602-0.451-3.91-0.682c4.14-1.736,8.214-3.849,11.991-5.787
	c6.88-3.529,14.012-6.905,20.739-10.659c4.616-2.576,9.306-5.085,14.049-7.48c0.036,0.063,0.075,0.125,0.111,0.189
	c2.406,4.229,5.479,8.643,8.5,12.478c1.578,2.004,3.527,3.705,5.129,5.712c1.556,1.95,2.841,4.093,4.366,6.054
	C158.723,504.666,158.476,504.642,158.339,504.644z M169.809,466.801c-2.14,6.525-5.24,13.678-5.741,20.599
	c-0.232,3.196-0.002,6.399-0.265,9.613c-0.073,0.901-0.007,3.202-0.219,5.104c-0.171-0.114-0.356-0.203-0.547-0.279
	c-3.205-3.519-6.141-7.725-9.193-11.335c-3.053-3.611-6.214-8.324-8.645-12.361c0.891-0.432,1.779-0.874,2.674-1.296
	c7.695-3.627,14.786-8.363,22.413-11.974c0.089-0.043,0.168-0.086,0.257-0.128C170.278,465.437,170.032,466.124,169.809,466.801z
	 M174.259,455.326c-0.121-0.242-0.244-0.485-0.384-0.738c-3.802-6.855-8.638-13.631-13.972-19.39
	c8.912-3.665,17.758-7.365,26.725-10.905c-0.534,1.249-1.06,2.501-1.62,3.741c-3.005,6.665-5.675,13.453-8.123,20.361
	C176.054,450.737,175.125,453.011,174.259,455.326z M303.745,422.866c-2.599-1.498-4.685-3.592-7.427-4.865
	c-3.052-1.417-6.376-2.535-9.582-3.665c-7.631-4.404-18.612-5.724-26.477-6.15c-6.122-0.331-11.914,0.535-17.917,1.556
	c-1.342,0.189-2.68,0.416-4.01,0.699c-1.918,0.364-3.915,0.818-5.781,1.483c-2.079,0.614-4.136,1.292-6.161,2.018
	c-3.542,1.268-7.296,2.479-10.705,4.061c-2.743,1.272-4.828,3.365-7.427,4.865c-9.883,5.698-18.184,12.375-25.307,20.971
	c1.879-4.748,3.761-9.481,5.848-14.116c0.281-0.625,0.546-1.256,0.822-1.882c2.659-2.081,5.024-4.367,7.751-6.575
	c4.922-3.985,10.711-6.786,16.459-9.286c4.901-2.131,9.72-3.859,14.869-5.335c2.328-0.667,4.751-1.431,7.159-1.957
	c0.52-0.046,1.04-0.096,1.56-0.147c4.827-0.476,9.616-0.532,14.458-0.765c8.837-0.426,17.494,1.216,26.267,1.396
	c1.741,0.462,3.476,0.993,5.158,1.474c5.149,1.475,9.969,3.203,14.869,5.335c5.747,2.499,11.538,5.301,16.459,9.286
	c2.727,2.208,5.093,4.494,7.751,6.575c0.276,0.626,0.54,1.257,0.822,1.882c2.087,4.635,3.969,9.368,5.848,14.116
	C321.929,435.241,313.628,428.563,303.745,422.866z M338.127,454.587c-0.14,0.253-0.263,0.496-0.384,0.738
	c-0.867-2.314-1.796-4.589-2.626-6.932c-2.446-6.908-5.118-13.695-8.123-20.361c-0.56-1.24-1.086-2.492-1.62-3.741
	c8.967,3.541,17.813,7.241,26.725,10.905C346.767,440.956,341.929,447.732,338.127,454.587z M348.965,501.838
	c-0.191,0.076-0.378,0.165-0.547,0.279c-0.213-1.903-0.146-4.203-0.219-5.104c-0.262-3.214-0.034-6.417-0.265-9.613
	c-0.502-6.922-3.601-14.073-5.741-20.599c-0.223-0.677-0.469-1.366-0.731-2.057c0.087,0.043,0.166,0.086,0.257,0.128
	c7.626,3.611,14.718,8.349,22.413,11.974c0.895,0.422,1.783,0.864,2.674,1.296c-2.432,4.037-5.593,8.749-8.645,12.361
	C355.106,494.114,352.172,498.319,348.965,501.838z M413.967,504.874c-7.511,1.138-15.237-0.197-22.81-0.184
	c-6.532,0.01-12.951,0.543-19.474,0.543c-4.704,0-9.384,0.049-14.075-0.295c-1.329-0.097-2.606-0.268-3.948-0.293
	c-0.137-0.002-0.383,0.022-0.668,0.054c1.526-1.959,2.81-4.104,4.366-6.054c1.602-2.008,3.552-3.708,5.129-5.712
	c3.021-3.837,6.094-8.249,8.5-12.478c0.036-0.063,0.075-0.125,0.111-0.189c4.742,2.395,9.433,4.904,14.049,7.48
	c6.726,3.754,13.86,7.13,20.74,10.659c3.776,1.938,7.85,4.049,11.991,5.787C416.57,504.423,415.258,504.678,413.967,504.874z
	 M415.258,498.05c-3.769-1.742-7.44-3.469-11.084-5.469c-7.174-3.938-14.343-8.129-21.743-11.568
	c-3.067-1.426-6.115-2.926-9.157-4.448c2.893-4.824,5.966-9.572,8.955-14.314c2.463-3.909,6.077-6.668,7.805-10.993
	c6.523,11.93,13.157,23.801,20.713,35.238c3.422,5.18,6.889,10.069,10.543,15C419.338,500.256,417.377,499.029,415.258,498.05z"/>
<path d="M280.808,394.591c9.061,2.793,17.573,6.79,25.451,11.857c1.127,0.725,2.679-0.208,2.949-1.286
	c0.288-1.147-0.483-2.76-1.067-3.705c-1.648-2.666-2.735-5.487-4.142-8.3c-1.059-2.117-2.237-4.812-4.402-6.041
	c-2.784-1.58-8.128-1.36-11.173-1.629c-3.761-0.331-8.145,0.272-11.89,0.803c-2.173,0.307-6.789,0.487-8.057,2.787
	C265.9,393.751,278.559,393.898,280.808,394.591z M282.235,389.328c3.17-0.194,6.214-0.31,9.405-0.008
	c3.417,0.323,5.044,0.322,6.66,1.623c1.275,3.417,3.372,6.625,5.119,9.91c-3.97-2.303-7.946-4.403-12.502-5.794
	c-3.727-1.138-7.295-2.862-11.078-3.794c-0.384-0.095-2.616-0.74-4.705-1.253C277.348,389.965,280.054,389.461,282.235,389.328z"/>
<g>
</g>
<g>
</g>
<g>
</g>
<g>
</g>
<g>
</g>
<g>
</g>
<g>
</g>
<g>
</g>
<g>
</g>
<g>
</g>
<g>
</g>
<g>
</g>
<g>
</g>
<g>
</g>
<g>
</g>
</svg>
