<?xml version="1.0" encoding="iso-8859-1"?>
<!-- Generator: Adobe Illustrator 19.0.0, SVG Export Plug-In . SVG Version: 6.00 Build 0)  -->
<svg version="1.1" id="Layer_1" xmlns="http://www.w3.org/2000/svg" xmlns:xlink="http://www.w3.org/1999/xlink" x="0px" y="0px"
	 viewBox="0 0 511.999 511.999" style="enable-background:new 0 0 511.999 511.999;" xml:space="preserve">
<g>
	<path style="fill:#EFEFEF;" d="M161.009,115.21c0.164-0.175,0.328-0.359,0.493-0.503c0.735-0.642,1.525-1.048,2.308-1.238
		c0.586-0.56,1.226-1.025,1.918-1.352c-1.217,0.06-2.424,0.163-3.574,0.549c-3.523,1.184-5.758,4.823-6.357,8.491
		c-0.262,1.603-0.193,3.188-0.019,4.765c0.892-4.33,2.753-8.538,4.511-10.434C160.504,115.255,160.762,115.181,161.009,115.21z"/>
	<path style="fill:#EFEFEF;" d="M260.349,114.473c0.493-0.121,1.015-0.099,1.506,0.042c0.528-0.21,1.067-0.304,1.611-0.272
		c-1.601-0.494-3.337-0.595-5.048-0.789c0.166,0.23,0.299,0.484,0.387,0.762C259.314,114.155,259.85,114.252,260.349,114.473z"/>
	<path style="fill:#EFEFEF;" d="M359.374,451.683c-0.318-2.064-1.264-3.97-2.199-5.837c-3.219-6.435-6.784-13.243-13.061-16.76
		c-5.039-2.824-11.068-3.077-16.842-3.261c-13.57-0.434-27.142-0.87-40.712-1.304c-5.522-0.177-11.555-0.195-15.896,3.224
		c0.125-0.099-2.164-7.781-2.308-8.606c-0.547-3.133-0.768-6.296-0.738-9.474c0.058-6.18-0.734-12.498-1.127-18.701
		c-3.303-52.026-6.374-104.068-9.49-156.107c-0.96-16.033-1.932-31.879-3.633-47.787c-0.152-1.419-0.176-3.134,1.005-3.937
		c1.554-1.056,4.114,0.296,5.359-1.111c0.591-0.668,0.561-1.681,0.348-2.547c-1.067-4.316-5.633-6.423-6.568-10.674
		c-1.032-4.691,0.012-9.908,2.675-13.886c2.326-3.475,5.76-6.035,8.56-9.139c4.692-5.2,4.336-13.369,4.751-20.053
		c0.214-3.45-0.561-7.296-2.93-9.639c2.067,2.504,1.974,6.385,2.206,9.44c0.308,4.063,0.61,7.955-1.11,11.752
		c-0.666,1.467-2.353,1.757-3.705,1.228c-1.268,0.467-2.714,0.202-3.515-1.236c-0.064-0.113-0.107-0.227-0.164-0.339
		c-1.131,0.446-2.414,0.24-3.215-0.697c-1.278,0.508-2.796,0.218-3.463-1.094c-0.059,0.007-0.117,0.025-0.176,0.028
		c-0.996,2.032-4.78,1.295-4.61-1.217c0.164-2.419,0.382-4.851,0.635-7.282c0.2-3.425,0.288-6.854,0.327-10.298
		c0.012-1.168,0.788-1.961,1.719-2.278c0.413-0.674,1.049-1.087,2.082-0.873c0.134,0.028,0.234,0.082,0.335,0.134
		c0.159-0.344,0.384-0.601,0.646-0.794c-0.002-0.001-0.003-0.001-0.006-0.002c-3.035-1.331-4.967-4.47-5.695-7.702
		c-0.88-3.908,0.146-7.356,0.271-11.163c0.256-7.818-2.067-15.921-2.766-23.724c-0.72-8.048,2.324-16.113,0.498-24.165
		c-1.37-6.041-6.173-10.692-11.224-14.279c-2.99-2.123-6.159-4.043-9.177-6.12c-2.677-1.843-5.188-2.957-5.344-6.755
		c-0.103-2.521,0.663-5.024,0.498-7.541c-0.238-3.614-2.557-7.021-5.838-8.554s-7.39-1.123-10.294,1.04
		c-7.129,5.309-0.168,13.355-5.051,18.809c-1.541,1.723-3.706,2.722-5.739,3.822c-7.021,3.795-13.111,9.298-17.6,15.897
		c-1.306,1.922-2.525,4.25-1.851,6.474c0.514,1.694,1.998,2.872,3.121,4.24c1.583,1.928,1.022,3.011,0.784,5.052
		c-0.269,2.307-0.146,4.624-0.138,7.026c0.018,5.303-0.565,10.584-1.304,15.827c-0.754,5.342-1.412,10.768-2.377,16.073
		c-0.359,1.975-0.917,3.746-0.941,5.797c-0.026,2.341,0.67,4.876-0.814,6.949c-0.353,0.493-0.802,0.883-1.301,1.205
		c0.151,0.211,0.286,0.446,0.386,0.719c0.764,2.11,1.112,4.271,1.377,6.447c0.204,0.396,0.32,0.873,0.31,1.434
		c-0.006,0.315-0.012,0.686-0.022,1.083c0.152,1.337,0.319,2.675,0.579,4.008c0.527,2.691,1.974,5.724,0.894,8.464
		c-1.641,4.159-10.12,5.795-14.03,5.932c-2.737,0.096-4.465-1.041-5.45-2.868c-0.381,3.299-0.858,6.584,1.557,9.404
		c0.253,0.295,0.526,0.566,0.816,0.82c1.39,1.218,3.137,2.037,4.595,3.201c2.559,2.045,4.145,5.109,4.98,8.275
		c1.421,5.38,3.324,11.728-1.252,16.196c-1.123,1.097-2.502,1.929-3.498,3.141c-0.996,1.212-1.53,3.031-0.67,4.343
		c1.141,1.742,3.781,1.487,5.564,2.561c2.372,1.428,2.637,4.775,2.113,7.493c-1.192,6.176,0.606,12.232,0.133,18.38
		c-0.566,7.345-2,14.6-2.371,21.963c-1.672,33.175-4.418,66.294-6.678,99.439c-2.57,37.68-5.2,75.356-7.588,113.047
		c-0.746,11.768-1.544,23.538-1.863,35.328c-0.145,5.361-0.005,10.788-0.66,16.016c-0.561,4.477,1.674,8.343,5.814,10.395
		c3.937,1.952,8.509,2.006,12.904,2.021l159.389,0.526c4.453,0.015,9.02,0.01,13.191-1.549c6.599-2.465,8.605-8.444,8.68-14.983
		c0.099-8.596-1.266-17.505-1.658-26.184c-0.118-2.607-0.035-5.66,2.064-7.21C355.597,455.856,360.452,458.683,359.374,451.683z"/>
</g>
<g>
	<path style="fill:#C4C4C4;" d="M245.945,149.992c-6.526,2.491-12.656,5.893-18.654,9.838c-1.368,0.9-17.649,15.232-16.806,15.962
		c4.352,3.768,16.036,0.731,21.579,0.998c3.489,0.168,20.695,1.279,20.64,6.876c-0.064,6.32-12.658-0.452-15.046-1.29
		c-11.267-3.953-26.356,0.229-32.45,11.14c-5.88,10.528-5.01,28.47-5.382,40.38c-0.714,22.868-1.386,45.834-1.372,68.707
		c0.008,12.685,0.462,25.311,1.046,37.984c0.769,16.681-1.636,33.288-1.015,49.953c0.82,22.003,0.762,46.261,7.871,67.4
		c4.141,12.312,9.795,24.891,18.688,34.605c3.752,4.099,15.409,10.267,8.229,14.058c-3.966,2.093-8.706,0.46-12.77-0.102
		c-6.644-0.92-13.498-0.128-20.19-0.329c-6.879-0.206-13.82-1.493-20.678-1.441c-5.51,0.042-10.603,1.034-16.105,0.397
		c-2.202-0.255-5.99-0.308-7.913-1.642c-3.248-2.252-1.927-3.942-2.28-8.052c-1.292-15.021-0.691-29.468,1.023-44.54
		c3.747-32.953,7.466-65.551,7.332-98.757c-0.169-41.986,5.496-83.793,7.34-125.638c0.551-12.492-0.604-25.629,1.615-37.951
		c1.609-8.93-1.134-5.891-7.954-7.265c-0.382-5.333,5.764-7.806,6.907-12.136c1.108-4.198-1.366-10.849-2.883-14.787
		c-1.656-4.294-11.568-9.149-5.921-13.272c4.494-3.281,13.932-4.184,19.272-4.436c8.467-0.4,16.941-0.921,25.438-0.914
		c15.402,0.012,30.696,0.159,45.915,1.965c2.674,0.318,13.225,1.187,14.474,3.888c2.155,4.658-4.855,4.495-7.182,4.89
		C254.259,147.234,250.025,148.435,245.945,149.992z"/>
	<path style="fill:#C4C4C4;" d="M299.913,453.886c15.216,1.141,30.983,3.352,48.851,7.601c-1.004-1.926-20.236,2.291-23.273,3.02
		c-11.395,2.739-21.701,7.525-29.08,16.763c-5.231,6.549-6.596,12.646-10.121,19.909c-1.694,3.493-3.705,6.323-7.796,6.866
		c-9.911,1.314-6.23-9.652-6.49-16.323c-0.333-8.593-0.526-19.317-4.174-27.171c-1.179-2.539-5.45-4.367-6.111-6.51
		c-2.488-8.067,20.903-5.059,24.013-4.942c17.658,0.663,35.276-0.068,52.93,1.396c4.345,0.361,15.402,1.91,8.238,7.457"/>
</g>
<path style="fill:#937270;" d="M279.89,422.862c-6.735,4.142-12.282,9.935-17.683,15.798c-3.018,3.275-9.307,8.047-10.646,12.122
	c3.16,3.619,12.896,1.14,17.065,0.83c8.618-0.64,17.614-0.725,26.296-0.388c18.103,0.704,36.323,4.518,54.328,5.038
	c2.556,0.074,8.702,0.071,10.123-2.779c1.954-3.919-4.411-9.428-6.37-12.007c-2.798-3.684-4.801-8.695-8.429-11.632
	c-3.786-3.065-8.592-2.871-13.358-3.261c-8.344-0.683-16.756-0.007-25.138-0.465C297.56,425.652,287.894,424.52,279.89,422.862z"/>
<path style="fill:#C4C4C4;" d="M207.3,128.017c-4.596-7.225-5.976-17.061-6.622-25.398c-1.213-15.64,0.99-30.19,9.852-43.367
	c3.344-4.974,6.523-10.877-1.839-11.014c-5.801-0.095-12.549,1.343-18.3,2.441c-9.443,1.803-11.656,7.416-12.839,16.73
	c-2.18,17.164-4.108,35.426-3.064,52.738c0.143,2.373,0.689,4.492,1.021,6.734c0.5,1.842,0.939,3.746,0.423,5.545
	c0.205,0.769,0.589,1.448,1.313,1.921c1.953,1.275,6.223,0.888,8.409,0.78c5.417-0.266,11.468-1.145,16.843-0.518
	c1.763,0.205,3.42,0.643,5.214,0.63c2.28-0.016,6.865-1.689,8.894-0.898C212.556,132.763,209.848,132.023,207.3,128.017z"/>
<path style="fill:#565656;" d="M228.037,62.516c-1.648-6.842-11.222-3.578-15.85-3.312c-4.433,0.254-13.628-2.363-15.742,3.421
	c-2.343,6.415-3.332,14.187-3.318,20.978c0.014,7.23-1.253,14.734-0.799,21.875c0.263,4.141,6.71,3.184,9.848,3.052
	c6.13-0.259,12.239-0.555,18.409-0.555c2.805,0,10.148,1.452,11.122-1.73c0.945-3.083-0.027-7.176-0.024-10.35
	c0.005-3.865,0.254-7.607-0.255-11.422C230.446,77.107,229.787,69.784,228.037,62.516z"/>
<path style="fill:#C63E3E;" d="M209.707,2.895c-7.23-0.049-8.699,9.146-7.636,14.538c0.35,1.779,0.743,2.452-0.545,3.837
	c-2.089,2.245-5.431,3.82-7.952,5.549c-5.925,4.06-13.111,7.472-16.979,13.823c-2.402,3.944-2.207,11.395,3.57,11.85
	c4.257,0.336,10.299-1.927,14.371-3.213c5.82-1.836,12.099-2.206,18.166-2.04c9.005,0.245,17.362,1.476,25.853,4.2
	c4.019,1.289,8.45,1.058,8.727-4.5c0.283-5.694-3.512-10.299-8.166-13.035c-3.647-2.144-7.316-3.984-10.732-6.463
	c-2.05-1.488-6.376-4.252-7.101-6.813c-0.454-1.606,0.678-3.343,1.022-4.815c0.39-1.674,0.254-3.578-0.21-5.239
	C220.429,4.606,215.411,1.97,209.707,2.895z"/>
<path style="fill:#9B2929;" d="M216.101,3.693c-4.076,3.303-5.967,5.999-6.197,11.543c-0.217,5.217,1.103,10.87,4.385,15.026
	c4.231,5.357,10.161,8.368,16.2,11.144c2.546,1.17,12.227,4.023,5.588,7.348c-3.267,1.636-6.09-0.316-9.144-1.089
	c-4.485-1.134-9.757-0.222-14.354-0.221c-6.441,0.001-13.057,0.27-19.412,1.338c-4.916,0.827-9.766,3.156-14.649,3.661
	c-8.297,0.858,0.591-13.688,3.107-15.926c3.98-3.539,8.428-5.911,12.535-9.181c2.403-1.913,5.43-3.886,7.361-6.256
	c2.216-2.719,0.141-5.718,0.177-8.809C201.76,6.746,207.478,1.02,216.101,3.693z"/>
<g>
	<path style="fill:#565656;" d="M211.441,190.316c-2.642,0.778-4.235,4.63-4.655,7.081c-0.417,2.437-1.141,8.039,1.09,9.062
		c1.335,0.612,3.3,0.308,4.7,0.164c1.658-0.171,4.101,0.52,5.593-0.311c2.465-1.373,0.92-7.619,0.46-10.052
		c-0.348-1.839-0.925-3.704-2.028-5.216C214.842,188.625,212.93,189.486,211.441,190.316z"/>
	<path style="fill:#565656;" d="M210.315,319.069c-3.007,2.473-3.569,7.508-3.566,11.085c0,0.649-0.428,3.393,0.085,3.939
		c0.593,0.63,3.277,0.205,4.128,0.316c2.106,0.276,7.778,1.945,8.555-0.307c0.451-1.306-0.231-4.29-0.45-5.655
		c-0.279-1.741-0.688-3.479-1.102-5.195c-0.373-1.549-0.613-3.442-2.012-4.372C213.425,317.199,210.73,318.913,210.315,319.069z"/>
	<path style="fill:#565656;" d="M184.977,463.776c-4.128,2.622-5.681,6.071-6.24,11.027c-0.149,1.314-0.733,4.359,0.6,5.17
		c0.762,0.464,3.548,0.109,4.522,0.133c2.177,0.053,6.087,1.337,7.478-0.68c1.607-2.331,0.525-6.765-0.171-9.252
		C190.002,466.018,187.571,462.205,184.977,463.776z"/>
</g>
<path style="fill:#725757;" d="M277.108,423.935c-3.34,3.164-6.094,6.167-8.82,9.821c-2.028,2.717-4.976,4.584-7.464,6.887
	c-3.274,3.03-11.773,7.461-11.473,12.653c5.026,0.717,10.288-1.555,15.436-1.306c7.886,0.381,15.791,0.508,23.69,0.802
	c9.623,0.358,19.297,0.208,28.906,1.013c6.609,0.553,13.25-0.062,19.796,0.934c2.073,0.316,26.873,3.036,22.277-3.54
	c-1.746-2.498-6.319-2.113-8.893-2.138c-5.417-0.051-10.821,0.302-16.226,0.272c-10.886-0.061-22.197-0.032-32.89-2.392
	c-4.489-0.991-9.302-3.363-12.71-6.481c-3.174-2.904-3.396-5.594-3.605-9.664c-0.094-1.834-0.214-4.836-1.539-6.207
	C281.164,422.075,278.573,424.74,277.108,423.935z"/>
<path d="M363.021,449.625c-1.836-4.3-5.234-7.931-8.167-11.495c-3.142-3.818-5.671-8.271-8.938-11.951
	c-3.434-3.868-6.954-3.927-11.85-3.93c-6.728-0.006-13.456-0.019-20.184-0.027c-6.638-0.008-13.161-0.315-19.747-0.61
	c-4.773-0.214-10.796-1.965-15.478-0.939c-3.109,0.682-5.087,2.521-6.876,4.712c-0.265-2.445-0.559-4.881-0.898-7.297
	c-1.819-12.935-1.77-26.197-2.864-39.197c-0.985-11.717-2.678-23.373-2.593-35.15c0.093-12.983-0.166-25.701-1.973-38.57
	c-1.749-12.444-2.474-25.307-2.589-37.854c-0.223-24.498-3.143-49.07-4.516-73.434c-0.163-2.91,0.098-5.973-0.627-8.748
	c2.168,0.488,4.29,0.29,5.915-1.275c4.008-3.858-0.294-9.242-3.534-11.73c-0.416-0.32-0.841-0.61-1.264-0.905
	c-3.352-5.635-1.23-10.679,2.235-15.868c2.155-3.225,3.978-4.773,7.299-6.399c1.758-0.861,3.306-1.771,4.087-3.646
	c0.733-1.758,0.621-4.429,0.401-6.246c-0.301-2.489-0.232-4.501-0.051-6.993c0.22-3.02-0.282-6.063-0.083-9.089
	c0.153-2.309,0.658-4.387-0.252-6.627c-1.717-4.229-7.404-5.703-11.432-6.508c-2.319-0.464-4.674-0.752-7.032-0.989
	c0.015-0.124,0.037-0.242,0.037-0.374c0.011-9.239-0.96-18.633-1.873-27.834c-0.542-5.459-1.355-10.875-1.92-16.344
	c-0.272-2.639-0.607-5.154-1.309-7.589c-0.066-0.759-0.279-1.505-0.606-2.224c1.162,0.019,2.321-0.451,3.462-1.816
	c2.976-3.56,0.361-10.451-1.986-13.615c-3.696-4.983-8.664-7.962-13.745-11.208c-3.375-2.156-7.057-5.932-10.987-7.758
	c1.239-2.502,3.141-4.438,3.111-7.532c-0.028-2.758-1.403-4.917-3.132-6.925c-4.412-5.123-10.875-7.45-17.272-4.018
	c-5.077,2.724-8.58,7.8-6.993,13.544c0.376,1.364,0.756,1.982,1.337,3.328c0.364,0.844,0.648,1.222,0.721,1.499
	c-4.02,1.779-7.785,5.661-11.228,7.861c-5.083,3.247-10.051,6.226-13.745,11.208c-2.346,3.163-4.961,10.055-1.986,13.615
	c1.141,1.364,2.3,1.835,3.462,1.816c-0.327,0.72-0.54,1.466-0.606,2.224c-0.702,2.435-1.036,4.949-1.309,7.589
	c-0.564,5.469-1.378,10.885-1.92,16.344c-0.913,9.201-1.885,18.595-1.873,27.834c0,0.133,0.023,0.252,0.037,0.374
	c-2.358,0.237-4.713,0.526-7.032,0.989c-4.028,0.805-9.715,2.279-11.432,6.508c-0.909,2.24-0.405,4.318-0.252,6.627
	c0.2,3.025-0.303,6.069-0.083,9.089c0.181,2.492,0.249,4.505-0.051,6.993c-0.22,1.817-0.331,4.488,0.401,6.246
	c0.781,1.876,2.329,2.786,4.087,3.646c3.321,1.626,5.146,3.174,7.299,6.399c3.467,5.189,5.588,10.233,2.235,15.868
	c-0.423,0.296-0.848,0.585-1.264,0.905c-3.241,2.489-7.541,7.872-3.534,11.73c1.626,1.565,3.747,1.762,5.915,1.275
	c-0.725,2.774-0.464,5.837-0.627,8.748c-1.371,24.364-4.291,48.936-4.514,73.434c-0.115,12.546-0.84,25.41-2.589,37.854
	c-1.809,12.87-2.066,25.587-1.973,38.57c0.085,11.778-1.608,23.433-2.593,35.15c-1.093,13-1.046,26.262-2.863,39.197
	c-1.863,13.254-2.588,27.006-2.876,40.378c-0.159,7.396-0.516,14.794-0.85,22.183c-0.321,7.085-1.463,14.03-1.117,21.194
	c0.09,1.854,0.311,3.876,1.625,5.187c1.047,1.044,2.573,1.412,4.025,1.691c7.319,1.406,14.806,1.652,22.257,1.845
	c14.751,0.383,29.507,0.574,44.264,0.573c7.378,0,14.757-0.049,22.133-0.145c3.591-0.046,7.495-0.567,11.061-0.18
	c2.697,0.293,5.197,1.135,7.996,1.135c5.083,0.125,10.187-0.003,15.269-0.077c4.068-0.059,8.134-0.153,12.199-0.268
	c10.314-0.301,20.668,0.44,30.977,0.067c8.464-0.306,18.372-0.093,26.518-2.657c8.334-2.622,7.217-11.876,6.581-19.135
	c-0.879-10.019-0.633-20.331-0.619-30.448c0.073,0.001,0.145,0.005,0.217,0.006c2.986,0.058,6.835,0.855,9.423-1.035
	C364.934,456.184,364.305,452.629,363.021,449.625z M250.997,113.756c1.881,0.379,3.765,0.764,5.64,1.157
	c4.449,0.931,7.815,2.327,8.799,7.328c0.112,0.57,0.175,1.213,0.205,1.893c-4.912-1.721-10.15-2.558-15.343-3.184
	C250.584,118.553,250.85,116.158,250.997,113.756z M249.109,133.481c0.095-3.114,0.431-6.212,0.802-9.307
	c1.117,0.151,2.233,0.314,3.345,0.515c4.135,0.744,8.225,2.016,12.35,2.767c-0.053,1.114-0.128,2.193-0.169,3.117
	c-0.108,2.468-0.357,4.696-0.369,7.108c-4.551-2.775-10.485-3.352-15.971-3.862C249.108,133.71,249.117,133.6,249.109,133.481z
	 M247.51,113.067c-0.362,2.479-0.722,4.959-1.061,7.439c-0.372-0.041-0.746-0.083-1.117-0.124
	c-3.682-0.406-7.346-0.799-11.006-1.156c0.146-2.456,0.229-4.916,0.119-7.321c3.448,0.463,7.032,0.883,10.344,0.637
	c0.154,0.028,0.307,0.048,0.462,0.078C245.999,112.767,246.757,112.919,247.51,113.067z M244.979,133.402
	c-3.801-0.452-7.606-0.719-11.423-0.903c0.012-0.101,0.031-0.198,0.029-0.307c-0.007-3.123,0.277-6.456,0.53-9.841
	c2.626,0.282,5.257,0.581,7.899,0.897c1.334,0.16,2.667,0.305,3.998,0.454C245.588,126.771,244.606,130.319,244.979,133.402z
	 M178.9,43.005c2.032-3.519,6.412-7.015,9.82-8.982c5.613-3.24,10.769-7.17,16.47-10.241c2.979-1.605,0.285-6.785-0.329-9.065
	c-1.436-5.342,5.02-10.635,10.264-8.397c1.241,0.53,2.991,2.245,3.814,3.443c1.506,2.197,1.437,3.163,0.242,5.517
	c-0.931,1.835-1.692,3.911-1.706,6.079c-0.015,2.498,2.125,2.985,4.155,4.206c4.516,2.717,8.787,5.822,13.353,8.456
	c3.409,1.967,7.788,5.465,9.82,8.982c0.968,1.677,2.362,6.541-0.352,8.004c-0.149,0.079-0.346,0.118-0.562,0.139
	c-1.625-1.572-3.642-2.791-5.405-3.393c-4.763-1.627-10.185-2.06-15.177-2.032c-1.78,0.01-3.586-0.143-5.368-0.116
	c-3.139-1.323-7.438-0.89-10.539-0.538c-1.899,0.215-3.726,0.359-5.509,0.627c-0.5,0.017-1,0.028-1.497,0.025
	c-4.992-0.028-10.415,0.405-15.177,2.032c-1.762,0.602-3.778,1.821-5.405,3.393c-0.217-0.022-0.414-0.059-0.562-0.139
	C176.537,49.546,177.932,44.681,178.9,43.005z M178.849,81.38c0.507-7.603,2.422-15.956,2.195-23.712
	c0.054-0.121,0.108-0.243,0.177-0.369c2.457-4.442,7.553-4.922,12.202-5.593c5.305-0.767,10.784-0.507,15.912-1.952
	c1.826,0.087,3.921,0.328,5.817,0.212c4.9,1.212,10.094,1.012,15.129,1.74c4.648,0.672,9.744,1.151,12.202,5.593
	c0.069,0.126,0.121,0.246,0.177,0.369c-0.227,7.756,1.689,16.108,2.195,23.712c0.595,8.922,1.633,18.026,1.654,26.955
	c-0.308-0.029-0.62-0.056-0.929-0.087c-2.874-0.293-5.704-0.577-8.508-0.788c-0.923-0.205-1.85-0.391-2.777-0.564
	c0.508-9.285-1.076-18.802-1.454-28.041c-0.193-4.726-1.679-8.957-2.496-13.544c-0.591-3.321-0.659-5.234-3.869-7.255
	c-6.024-3.792-14.072-1.645-20.6-1.157c-4.316,0.323-9,0.052-11.272,4.309c-1.412,2.644-1.727,5.669-2.421,8.532
	c-0.725,2.99-1.2,6.038-1.326,9.115c-0.382,9.367-2.014,19.018-1.44,28.423c-1.264,0.069-2.534,0.163-3.808,0.266
	c-2.225,0.079-4.438,0.238-6.6,0.615c-0.297,0.029-0.592,0.059-0.89,0.09c-0.308,0.032-0.62,0.058-0.929,0.087
	C177.216,99.406,178.254,90.304,178.849,81.38z M229.187,132.328c-1.493-0.034-3.087-0.034-4.695,0.037
	c-1.372-0.12-2.727-0.225-4.029-0.355c-2.051-0.205-4.105-0.053-6.16-0.043c0.206-3.717,0.187-7.441,0.145-11.166
	c0.118,0.005,0.236,0.005,0.353,0.01c4.953,0.214,9.852,0.6,14.745,1.074c-0.209,3.429-0.366,6.856-0.374,10.308
	C229.173,132.241,229.185,132.281,229.187,132.328z M226.938,73.561c-4.381-1.383-9.253-2.039-14.157-1.979
	c-0.263-3.408-0.63-6.804-1.082-10.266c-0.011-0.09-0.043-0.172-0.083-0.251c0.221,0,0.454,0.001,0.658,0
	c3.361-0.028,6.859-0.009,10.138,0.755c1.287,0.301,2.278,0.748,3.276,0.797C225.469,66.151,226.364,70.012,226.938,73.561z
	 M227.379,77.499c0.295,5.064,0.51,10.134,0.735,15.206c-4.683-0.29-10.044,0.024-14.685,0.464
	c-0.153-3.473-0.235-6.947-0.219-10.381c0.011-2.439-0.069-4.826-0.188-7.2C217.886,75.787,222.5,77.053,227.379,77.499z
	 M228.299,96.746c0.145,3.107,0.301,6.215,0.494,9.321c-4.762-0.54-9.577-0.627-14.445-0.237c-0.294-2.827-0.513-5.69-0.694-8.562
	C218.473,96.828,223.638,98.015,228.299,96.746z M214.802,117.881c-0.127-0.005-0.255-0.003-0.382-0.007
	c-0.015-1.357-0.028-2.715-0.025-4.073c0.001-0.769,0.034-1.618,0.061-2.503c1.758-0.126,3.526-0.234,5.298-0.293
	c1.938,0.081,3.884,0.032,5.842-0.003c1.514,0.057,3.02,0.166,4.512,0.34c-0.068,1.799-0.094,3.58-0.211,5.244
	c-0.052,0.742-0.101,1.482-0.152,2.223C224.785,118.378,219.818,118.043,214.802,117.881z M210.429,131.754
	c-2.723-0.244-5.378-0.337-8.142-0.163c-2.472,0.155-5.298,0.099-8.22,0.107c0.358-3.378,0.33-6.804,0.268-10.224
	c5.407-0.566,10.851-0.841,16.327-0.775C210.484,124.388,210.349,128.103,210.429,131.754z M194.285,118.759
	c-0.02-1.227-0.034-2.453-0.023-3.672c0.01-1.068,0.058-2.15,0.099-3.233c5.306,0.13,10.676,0.225,15.903-0.226
	c0.252-0.022,0.509-0.039,0.761-0.06c-0.025,1.39-0.045,2.771-0.113,4.119c-0.035,0.706-0.073,1.421-0.109,2.132
	C205.28,117.808,199.768,118.136,194.285,118.759z M199.136,77.222c3.501-0.637,6.955-1.318,10.505-1.591
	c0.039,2.113,0.074,4.222,0.042,6.316c-0.058,3.811,0.009,7.631,0.147,11.446c-4.763,0.166-9.696-0.075-14.305,0.864
	c0.252-5.656,0.481-11.313,0.812-16.961C197.704,77.28,199.129,77.223,199.136,77.222z M196.621,74.554
	c0.481-3.354,1.377-7.047,1.427-10.521c0.82-1.073,1.76-1.954,3.506-2.418c2.206-0.585,5.731-0.574,8.593-0.556
	c-0.003,0.017-0.012,0.026-0.015,0.044c-0.498,3.504-0.576,7.061-0.549,10.624C205.068,72.07,200.629,73.017,196.621,74.554z
	 M210.017,97.583c0.143,2.885,0.31,5.766,0.509,8.634c-4.257,0.501-8.538,0.795-12.83,0.981c-0.948-0.04-1.896-0.066-2.845-0.069
	c0.22-3.369,0.389-6.739,0.547-10.11C200.098,98.041,205.165,97.956,210.017,97.583z M176.91,112.927
	c0.514-0.101,1.033-0.205,1.544-0.305c1.222-0.237,2.444-0.438,3.665-0.617c2.695-0.098,5.394-0.31,7.983-0.254
	c0.349,0.008,0.701,0.017,1.05,0.025c-0.141,1.785-0.278,3.57-0.393,5.355c-0.044,0.693-0.077,1.387-0.109,2.08
	c-1.173,0.16-2.343,0.332-3.512,0.518c-3.452,0.548-6.897,1.156-10.324,1.85c-0.076-1.08-0.143-2.151-0.175-3.204
	C176.598,116.957,176.809,114.971,176.91,112.927z M190.343,131.763c-3.236,0.125-6.461,0.468-9.341,1.399
	c-0.777,0.078-1.554,0.152-2.33,0.245c-0.489,0.059-0.988,0.112-1.492,0.163c0.283-3.008,0.075-6.165-0.163-9.294
	c4.475-0.979,8.986-1.766,13.524-2.358c-0.069,1.932-0.132,3.866-0.251,5.796C190.197,129.207,190.003,130.531,190.343,131.763z
	 M158.27,122.24c0.983-5,4.349-6.397,8.799-7.328c2.009-0.421,4.027-0.832,6.043-1.236c0.064,2.277,0.244,4.548,0.262,6.633
	c0.002,0.306,0.064,1.029,0.151,1.961c-1.39,0.311-2.776,0.636-4.156,0.987c-3.622,0.922-7.703,1.843-11.297,3.45
	C158.012,125.108,158.022,123.5,158.27,122.24z M158.268,130.575c-0.015-0.346-0.035-0.717-0.058-1.1
	c5.136-1.704,10.329-3.2,15.573-4.453c0.329,3.464,0.679,7.55,0.323,7.835c-0.349,0.279-0.488,0.663-0.485,1.056
	c-5.203,0.494-10.706,1.161-14.985,3.771C158.627,135.271,158.376,133.042,158.268,130.575z M164.406,144.804
	c-0.314-0.261-0.62-0.527-0.968-0.761c-1.01-0.676-1.962-1.168-2.747-1.723c2.024-0.528,4.044-1.237,6.019-1.575
	c4.686-0.803,9.435-1.348,14.158-1.86c3.98-0.431,8.006-0.653,11.97-1.218c0.611-0.087,1.235-0.153,1.867-0.21
	c2.325-0.025,4.65-0.042,6.968-0.15c5.983-0.278,12.125,0.173,18.122,0.415c5.164,0.209,10.045,1.226,15.138,0.416
	c2.635,0.261,5.28,0.46,7.906,0.745c4.724,0.511,9.472,1.057,14.158,1.86c1.974,0.338,3.995,1.047,6.019,1.575
	c-0.786,0.555-1.736,1.047-2.747,1.723c-0.582,0.389-1.106,0.827-1.597,1.289c-1.741-0.44-3.827-0.338-5.452-0.524
	c-4.059-0.465-8.096-0.989-12.157-1.414c-8.826-0.925-17.632-1.381-26.489-1.747c-9.146-0.378-18.369-0.034-27.5,0.389
	C180.432,142.343,170.941,141.838,164.406,144.804z M166.408,146.851c15.68-1.772,31.338-2.931,47.157-2.286
	c8.01,0.328,16.015,0.982,24.003,1.785c3.832,0.384,7.649,0.86,11.466,1.354c1.754,0.227,4.873,0.122,7.238,0.591
	c-1.548,2.435-2.602,5.234-3.755,7.856c-1.711,3.894-3.071,7.33-2.029,11.619c-2.825-1.126-5.817-1.835-9.029-2.147
	c-6.799-0.659-14.439-1.82-21.511-1.1c-3.125-0.304-6.177-0.28-9.355-0.246c-3.489,0.037-7.272-0.223-10.949,0.022
	c-5.853-0.069-11.9,0.79-17.399,1.323c-3.211,0.311-6.203,1.021-9.029,2.147c1.042-4.289-0.318-7.725-2.029-11.619
	C169.8,152.992,168.555,149.571,166.408,146.851z M167.335,179.22c0.443-2.458,6.224-5.612,8.363-6.524
	c8.819-3.76,19.154-2.804,28.608-4.273c3.07,0.008,6.145,0.173,9.227,0.172c2.297-0.001,8.182,1.167,12.151,0.521
	c7.603,0.584,15.427,0.638,22.323,3.579c2.14,0.913,7.921,4.065,8.363,6.524c0.282,1.565,0.678,0.966-1.49,1.044
	c-1.112,0.041-1.868-0.466-2.872-0.531c-3.124-2.244-7.938-3.267-11.511-3.85c-4.847-0.792-10.007-1.152-14.886-1.365
	c-2.708-0.119-5.527-0.386-8.251,0.015c-3.485-0.158-7.047,0.033-10.316,0.12c-2.938-0.567-6.009-0.264-8.951-0.135
	c-4.88,0.213-10.039,0.574-14.886,1.365c-3.573,0.584-8.387,1.607-11.511,3.85c-1.005,0.064-1.76,0.57-2.872,0.531
	C166.657,180.186,167.053,180.784,167.335,179.22z M268.982,505.29c-0.845,0.008-1.689,0.032-2.534,0.031
	c-16.9-0.026-33.653-1.221-50.574-1.44c-17.164-0.221-34.341-0.663-51.506-0.663c-2.465-0.032-5.076-0.105-7.15-1.438
	c-3.225-2.072-2.073-5.117-1.586-8.135c0.626-3.89,0.829-7.92,1.253-11.84c0.626-5.784,0.269-11.538,0.727-17.306
	c0.456-5.738,0.068-11.451,0.665-17.183c0.531-5.105,0.896-10.407,1.128-15.545c1.095-24.139,2.608-48.184,4.393-72.305
	c0.889-12.019,1.194-24.073,2.172-36.094c0.946-11.629,3.179-23.074,3.684-34.745c0.514-11.859,0.138-23.679,0.955-35.553
	c0.42-6.096,0.435-12.214,0.737-18.314c0.31-6.256,0.899-12.218,0.658-18.502c-0.242-6.274-0.827-12.497,0.268-18.715
	c1.061-6.035-0.029-12.404,6.764-15.005c4.652-1.78,9.834-2.325,14.814-3.053c3.422,0.189,6.905,0.158,10.305,0.191
	c4.547,0.044,9.092,0.435,13.64,0.171c9.079-0.528,18.221-0.624,26.88,2.691c6.794,2.601,5.703,8.97,6.764,15.005
	c1.094,6.219,0.509,12.441,0.268,18.715c-0.242,6.285,0.348,12.245,0.658,18.502c0.302,6.1,0.318,12.216,0.737,18.314
	c0.816,11.874,0.441,23.694,0.955,35.553c0.506,11.671,2.739,23.116,3.684,34.745c0.977,12.019,1.283,24.075,2.172,36.094
	c1.785,24.121,3.298,48.166,4.393,72.305c0.044,0.972,0.116,1.964,0.17,2.945c-1.125,1.469-2.201,2.968-3.19,4.521
	c-1.211,0.947-2.466,1.828-3.774,2.604c-3.069,1.82-16.881,10.064-7.625,13.767c1.411,0.564,2.6,0.158,4.015,0.099
	c0.532-0.023,1.059-0.018,1.586-0.012c3.086,1.198,6.237,2.266,8.371,4.923c3.32,4.135,4.081,9.844,4.719,14.871
	C269.8,485.132,270.328,495.578,268.982,505.29z M346.03,498.286c-0.346,2.422-0.16,3.264-2.429,4.254
	c-3.174,1.385-7.62,1.013-11.039,1.336c-4.466,0.421-9.149,0.743-13.631,0.861c-8.588,0.228-17.218-0.002-25.811,0.015
	c-6.363,0.014-12.714,0.302-19.078,0.463c-1.271-10.823,2.175-40.643-9.139-49.279c5.33,0.018,10.659,0.044,15.99,0.112
	c12.366,0.155,24.832,0.667,37.157,1.48c9.104,0.6,18.144,1.3,27.227,1.677c0.017,7.593,0.242,15.114,0.568,22.665
	c0.135,3.137-0.315,6.283,0.035,9.408C346.161,493.779,346.404,495.668,346.03,498.286z M355.456,452.853
	c-2.369-0.026-4.738,0.034-7.107,0.039c-8.551,0.017-17.277-0.454-25.839-1.015c-19.007-1.245-38.033-0.883-57.11-0.847
	c-2.676,0.006-5.22-0.101-7.868-0.403c-0.514-0.058-3.896,0.153-3.901,0.151c0.181,0.096,7.921-5.417,9.497-6.677
	c0.567-0.454,1.144-0.923,1.721-1.4c1.454-1.048,2.796-2.286,4.068-3.623c1.2-1.176,2.325-2.404,3.289-3.683
	c0.198-0.263,0.395-0.531,0.593-0.795c1.255-1.529,2.485-3.043,3.74-4.42c1.941-2.131,2.795-2.923,5.677-2.768
	c1.66,0.09,3.336,0.346,5.003,0.439c4.33,0.244,8.624,0.902,12.955,1.065c9.495,0.358,19.078-0.02,28.58-0.033
	c2.402-0.003,5.042-0.289,7.437-0.008c3.575,0.418,5.168,2.134,7.107,4.961c2.373,3.461,5.051,6.569,7.574,9.901
	c2.141,2.826,4.966,5.547,6.073,9c0.023,0.069,0.045,0.125,0.068,0.181C356.53,452.99,355.919,452.859,355.456,452.853z"/>
<path d="M213.465,187.866c-5.994-0.108-8.995,7.062-9.303,12.924c-0.279,1.78-0.23,3.575,0.225,5.804
	c0.119,0.582,0.703,1.177,1.289,1.289c2.282,0.441,4.499,0.127,6.798,0.176c2.529,0.053,4.942,0.281,7.451-0.161
	c0.583-0.103,1.192-0.721,1.301-1.301c0.753-3.994-0.375-8.619-1.351-12.486C219.132,191.159,216.859,187.927,213.465,187.866z
	 M217.769,204.428c-1.763,0.104-3.524-0.135-5.295-0.15c-1.572-0.014-3.165,0.245-4.738,0.16c-0.294-1.96-0.29-4.086,0.12-6.111
	c0.188-0.793,0.408-1.572,0.676-2.305c0.497-1.272,1.193-2.447,2.122-3.447c0.384-0.344,0.805-0.633,1.286-0.831
	C216.667,189.784,218.01,200.106,217.769,204.428z"/>
<path d="M213.465,316.345c-5.994-0.108-8.995,7.062-9.303,12.924c-0.279,1.781-0.23,3.575,0.225,5.804
	c0.119,0.582,0.703,1.177,1.289,1.289c2.282,0.441,4.499,0.127,6.798,0.176c2.529,0.053,4.942,0.281,7.451-0.161
	c0.583-0.103,1.192-0.722,1.301-1.301c0.753-3.994-0.375-8.619-1.351-12.486C219.132,319.638,216.859,316.406,213.465,316.345z
	 M217.769,332.907c-1.763,0.104-3.524-0.135-5.295-0.15c-1.572-0.014-3.165,0.245-4.738,0.16c-0.294-1.96-0.29-4.086,0.12-6.111
	c0.188-0.793,0.408-1.572,0.676-2.307c0.497-1.272,1.193-2.447,2.122-3.447c0.384-0.344,0.805-0.633,1.286-0.831
	C216.667,318.262,218.01,328.585,217.769,332.907z"/>
<path d="M186.107,461.99c-5.994-0.108-8.995,7.062-9.303,12.924c-0.279,1.78-0.23,3.576,0.226,5.804
	c0.119,0.582,0.703,1.177,1.289,1.29c2.28,0.441,4.499,0.127,6.798,0.176c2.529,0.053,4.942,0.281,7.451-0.161
	c0.583-0.103,1.191-0.722,1.301-1.301c0.753-3.994-0.375-8.619-1.351-12.486C191.773,465.283,189.501,462.051,186.107,461.99z
	 M190.41,478.551c-1.763,0.104-3.523-0.135-5.295-0.15c-1.572-0.014-3.164,0.245-4.738,0.16c-0.294-1.96-0.29-4.086,0.12-6.111
	c0.188-0.793,0.408-1.572,0.676-2.307c0.497-1.272,1.193-2.447,2.122-3.447c0.384-0.344,0.805-0.633,1.286-0.831
	C189.307,463.907,190.652,474.23,190.41,478.551z"/>
<g>
</g>
<g>
</g>
<g>
</g>
<g>
</g>
<g>
</g>
<g>
</g>
<g>
</g>
<g>
</g>
<g>
</g>
<g>
</g>
<g>
</g>
<g>
</g>
<g>
</g>
<g>
</g>
<g>
</g>
</svg>
