<?xml version="1.0" encoding="iso-8859-1"?>
<!-- Generator: Adobe Illustrator 19.0.0, SVG Export Plug-In . SVG Version: 6.00 Build 0)  -->
<svg version="1.1" id="Layer_1" xmlns="http://www.w3.org/2000/svg" xmlns:xlink="http://www.w3.org/1999/xlink" x="0px" y="0px"
	 viewBox="0 0 511.997 511.997" style="enable-background:new 0 0 511.997 511.997;" xml:space="preserve">
<path style="fill:#E5E5E5;" d="M108.946,304.313c0.058-0.067,0.11-0.134,0.153-0.202c1.317-2.08-1.753-8.467-2.434-10.636
	c-1.269-4.041-2.761-8.011-4.459-11.892c-3.311-7.567-7.409-14.79-12.192-21.521c-4.179-5.88-8.883-11.389-14.046-16.427
	c-4.843-4.725-10.723-8.353-15.435-13.11c-0.995-1.005-1.621-2.5-1.211-3.855c1.032-3.411,18.262-0.97,21.706-0.746
	c8.572,0.556,17.106,1.696,25.525,3.402c7.733,1.568,15.369,3.615,22.848,6.13c6.341,2.133,13.793,7.21,20.526,5.703
	c1.092-0.244,2.297-0.811,2.543-1.904c0.182-0.806-0.23-1.614-0.643-2.33c-7.084-12.271-12.72-25.248-18.716-38.162
	c-2.671-5.754-6.277-11.192-9.17-16.855c-0.984-1.927-6.18-15.826-7.721-16.048c29.241,4.219,57.047,15.184,82.643,29.713
	c5.305,3.011,10.291,7.363,15.74,9.984c3.011,1.448,10.824,4.177,9.404-1.795c-0.851-3.577-3.16-6.089-4.478-9.382
	c-5.904-14.758-15.759-28.736-24.746-41.743c-8.708-12.603-16.954-25.376-26.037-37.649c-0.632-0.853-1.296-1.821-1.173-2.876
	c0.139-1.187,1.283-2.054,2.459-2.27c1.176-0.215,2.378,0.077,3.536,0.372c15.261,3.891,30.298,8.685,44.939,14.493
	c19.48,7.728,38.272,17.264,55.766,28.82c17.555,11.596,34.903,23.502,50.315,37.955c7.109,6.665,13.83,13.745,20.107,21.197
	c3.13,3.716,6.166,7.519,9.06,11.422c2.2,2.967,3.729,6.576,8.157,5.857c2.554-0.414,4.729-2.015,6.846-3.502
	c17.891-12.571,38.93-20.094,60.332-24.574c21.402-4.48,43.292-6.041,65.104-7.591c2.843-0.203,6.085-0.26,8.068,1.787
	c1.634,1.687,1.843,4.372,1.13,6.609c-1.375,4.31-4.669,9.04-6.965,12.997c-11.362,19.59-21.931,39.641-31.669,60.088
	c-4.6,9.658-9,19.384-12.734,29.338c-1.977,5.27-5.649,10.374-8.342,15.324c-2.799,5.145-5.582,10.296-8.333,15.467
	c-0.51,0.959-1.036,2.016-0.826,3.081c0.453,2.297,3.173,2.463,4.724,3.635c1.668,1.261,2.196,2.794,3.148,4.52
	c2.116,3.838,5.141,6.65,9.313,8.156c5.647,2.038,11.794,2.045,17.718,3.018c4.228,0.695,8.534,1.978,11.707,4.859
	c4.08,3.705,2.318,7.786,4.416,11.927c1.879,3.709,6.683,5.005,10.451,5c4.063-0.006,8.709-0.161,11.472,2.817
	c2.51,2.705,2.274,7.237,0.086,10.21c-2.188,2.973-5.886,4.532-9.552,4.958c-3.666,0.427-7.366-0.141-11.02-0.665
	c-12.025-1.726-24.116-3.005-36.236-3.831c-23.309-1.592-46.732-1.52-70.031,0.217c-5.824,0.434-11.642,0.971-17.446,1.615
	c-4.623,0.512-8.031-0.153-12.513-0.497c-11.482-0.88-23.263-0.384-34.776-0.419c-47.415-0.137-94.835,1.508-142.127,4.932
	c-10.616,0.768-20.841,0.123-31.496,0.313c-11.924,0.211-23.849,0.434-35.772,0.635c-23.844,0.404-47.692,0.729-71.54,0.729
	c-9.21,0.124-19.213,0.21-27.688-3.928c-3.4-1.66-4.548-2.989-4.823-6.669c-0.25-3.338-0.647-8.545,2.743-10.548
	c2.433-1.438,5.602-0.219,8.33-0.957c7.874-2.127,2.472-11.106,3.064-16.093c0.263-2.214,2.078-4.443,4.298-4.242
	c2.11,0.189,3.705,2.41,5.822,2.329c1.631-0.063,2.918-1.566,3.278-3.157c0.361-1.591,0.008-3.249-0.366-4.837
	c-1.04-4.427-0.641-9.662-0.735-14.258c-0.014-0.705,0.013-1.5,0.528-1.981c0.707-0.659,1.842-0.329,2.736,0.037
	c5.298,2.173,10.596,4.348,15.895,6.521c0.628,0.258,1.287,0.521,1.963,0.458c1.208-0.111,2.108-1.266,2.336-2.457
	c0.497-2.599-0.847-5.362-0.552-8.01c0.342-3.07,1.995-6.057,4.291-8.098c4.108-3.651,9.691-5.023,14.988-6.488
	c10.516-2.91,20.801-6.651,30.73-11.174C103.394,306.879,107.752,305.669,108.946,304.313z"/>
<path style="fill:#BFA08A;" d="M111.074,303.205c-16.947,5.635-33.411,12.568-49.601,19.927c-4.145,1.884-7.598,2.837-8.634,7.37
	c-0.911,3.986,0.76,8.045,0.84,11.76c-4.36,0.134-10.197-3.044-14.488-4.128c-1.638-0.414-6.089-2.234-7.744-1.296
	c-3.012,1.708-0.685,7.505-0.483,10.268c0.149,2.032,0.712,6.005,0.039,7.962c-1.264,3.676-1.975,2.52-5.669,2.769
	c-10.857,0.731-6.741,8.186-7.594,16.724c-5.453,1.233-10.74-0.351-13.124,5.553c-1.729,4.28-1.8,13.76,2.027,16.813
	c2.336,1.864,9.045,1.731,12.039,2.259c8.207,1.449,16.64,1.874,24.986,1.877c15.181,0.005,30.324-3.227,45.608-3.23
	c17.16-0.003,34.318-0.693,51.507-0.467c8.765,0.116,17.606,0.079,26.198,0.851c12.919,1.16,26.059-2.241,38.986-2.429
	c14.357-0.208,28.715-0.291,43.072-0.364c29.086-0.148,58.179-0.242,87.252-1.218c14.684-0.493,29.37-0.896,44.059-1.243
	c13.101-0.309,27.005-2.44,39.989-0.944c11.371,1.311,22.838,1.475,34.245,2.624c11.585,1.166,22.869,1.708,34.447,2.256
	c5.014,0.238,11.81,2.207,15.922-1.91c2.928-2.932,4.804-11.632,0.804-13.777c-4.202-2.254-11.438,0.176-16.092-0.568
	c-9.691-1.55-3.398-8.087-6.765-15.112c-3.267-6.817-12.724-7.813-19.243-9.453c-7.656-1.926-19.37-0.839-22.763-8.316
	c-3.772-8.31-5.65-6.614-14.727-6.346c-38.2,1.127-76.646,0.826-114.911,0.909c-10.681,0.023-21.498-0.241-32.122-1.264
	c-4.015-0.386-9.934-2.112-13.852-1.363c-3.719,0.71-6.99,3.724-10.683,4.099c-3.89,0.395-6.157-2.006-9.226-3.954
	c-7.419-4.706-14.51-4.991-22.916-2.861c-9.207,2.331-23.053,9.353-32.584,6.205c-3.282-1.084-3.135-3.44-5.49-5.342
	c-3.338-2.697-9.781-3.818-13.761-5.595c-9.276-4.141-18.192-9.049-26.767-14.491c-5.281-3.351-10.947-5.995-16.414-9.011
	C123.262,306.45,117.822,302.768,111.074,303.205z"/>
<g>
	<path style="fill:#A58671;" d="M114.714,304.116c-10.028,6.303-17.544,21.692-18.208,33.232
		c-0.626,10.867,5.44,16.919,13.659,22.738c4.942,3.499,11.077,5.785,13.762,11.362c2.113,4.389,1.437,5.52-2.9,6.359
		c-8.1,1.566-17.176,0.372-25.331-0.013c-13.625-0.644-29.196-2.257-42.675-0.886c-0.01-0.013,0.079,0.021,0.07,0.022
		c-3.633-4.905,3.001-14.272-5.236-17.785c-7.722-3.293-16.838,4.18-19.151-6.632c-1.246-5.824-1.893-16.211,6.547-15.089
		c4.175,0.555,14.598,8.531,18.519,4.266c2.433-2.646-0.875-9.114-0.153-12.111c1.565-6.491,15.28-8.626,20.753-10.865
		C87.028,313.539,98.613,306.362,114.714,304.116z"/>
	<path style="fill:#A58671;" d="M10.094,389.294c-2.86,0.117-4.995,1.012-4.069,3.786c2.037,6.105,14.838,5.924,19.487,6.277
		c17.789,1.349,35.625-0.622,53.427,0.26c13.895,0.689,28.075-1.102,41.877-0.094c18.086,1.321,35.316-0.699,53.49-1.256
		c16.83-0.515,33.686-0.419,50.518-0.909c9.011-0.262,17.951,0.864,26.974,0.097c12.185-1.035,24.312-2.061,36.542-2.487
		c24.058-0.837,48.138-0.473,72.197-1.203c34.136-1.035,68.013,0.222,102.073,1.442c9.688,0.347,19.316,0.809,29.059,0.809
		c4.481,0,9.157,1.174,12.189-2.498c6.635-8.035-6.927-7.976-11.86-7.967c-46.94,0.094-93.774,0.394-140.555,2.628
		c-28.007,1.338-55.768,0.101-83.756,0.101c-28.802,0-57.545,3.17-86.505,2.279c-8.964-0.275-17.924-1.109-26.893-1.471
		c-15.937-0.643-31.81,0.237-47.731,1.024c-19.923,0.985-39.988,0.441-59.95,0.441c-9.31,0-17.945,1.112-27.213-0.232
		C17.826,390.098,13.459,389.157,10.094,389.294z"/>
	<path style="fill:#A58671;" d="M195.241,345.971c7.552-4.906,18.711-8.829,27.887-8.754c9.23,0.075,4.36,11.839,7.178,18.351
		c4.701,10.865,16.093,7.819,24.954,11.781c3.158,1.411,4.594,3.765,6.547,6.38c1.432,1.918,5.589,4.412,3.89,7.335
		c-0.841,1.447-3.31,0.793-4.71,0.794c-4.736,0.004-9.866,0.308-14.561-0.235c-3.621-0.418-6.458-0.993-10.195-0.575
		c-10.103,1.131-20.267,1.443-30.418,0.863c-2.173-0.124-7.309-0.243-9.116-1.708c-2.289-1.854-1.069-3.018-1.036-6.226
		C195.756,364.828,190.928,351.118,195.241,345.971z"/>
	<path style="fill:#A58671;" d="M41.012,360.075c-6.574-0.315-4.567,10.501-7.85,13.635c-2.119,2.023-11.328,2.95-14.215,1.839
		c-3.09-1.189-2.018-0.508-2.047-4.08c-0.013-1.763-0.063-8.067,0.886-9.593c1.554-2.499,4.092-2.042,6.779-2.256
		C30.71,359.13,37.744,358.316,41.012,360.075z"/>
	<path style="fill:#A58671;" d="M360.846,340.967c-5.693,0.75-12.761,5.568-17.503,8.745c-6.681,4.477-10.878,9.535-15.253,16.172
		c-3.01,4.567-6.879,11.093-11.814,13.581c-7.78,3.923-17.83,1.576-26.164,1.537c-6.378-0.029-18.601,1.992-24.284-1.026
		c2.283-4.61,2.135-10.447,1.207-15.456c-0.655-3.535-1.589-5.386-3.781-8.076c-1.638-2.012-5.658-4.351-6.61-6.591
		c-3.795-8.93,25.857-5.977,30.785-6.142C310.642,342.939,333.979,341.664,360.846,340.967z"/>
</g>
<path style="fill:#5E5249;" d="M296.697,382.368c0.394-4.956-1.091-12.854,2.274-16.858c5.591-6.653,23.583-3.514,31.769-3.615
	c18.567-0.228,37.232-0.653,55.804-1.388c10.383-0.411,22.472-1.337,32.816,0.019c9.783,1.282,3.207,10.421,1.928,17.224
	c-17.646-0.515-35.209,2.158-52.892,2.809C343.878,381.461,318.707,378.786,296.697,382.368z"/>
<g>
	<path style="fill:#BFBFBF;" d="M140.066,237.739c-1.98,0.938-3.572,3.115-6.624,5.309c-5.853,4.21-16.09,5.057-23.025,4.119
		c-11.262-1.524-22.05-7.532-31.975-12.548c-2.591-1.309-16.003-9.984-17.428-7.18c-1.469,2.889,3.983,5.611,5.552,6.702
		c4.244,2.948,6.7,6.147,10.032,9.97c5.382,6.172,11.682,11.829,16.504,18.395c4.514,6.146,5.95,13.859,9.429,20.694
		c1.936,3.803,4.384,7.295,5.824,11.396c0.666,1.899,0.917,5.778,2.981,6.756c4.065,1.927,15.045-6.596,17.447-9.144
		c4.092-4.34,6.849-9.02,9.5-14.256c1.918-3.787,4.746-9.823,9.634-10.232c7.297-0.609,6.668,9.101,7.687,13.835
		c1.169,5.429,1.677,9.08,1.421,14.642c-0.23,5.014,0.094,9.736,2.497,14.042c2.154,3.858,5.441,15.598,9.696,16.582
		c4.533-14.337-1.392-31.164-5.143-45.262c-2.231-8.385-4.408-16.628-6.963-24.888c-2.016-6.519-2.814-13.86-9.132-17.402
		C144.048,237.063,141.892,236.873,140.066,237.739z"/>
	<path style="fill:#BFBFBF;" d="M171.129,326.863c0-29.171-4.847-57.392-16.266-84.214c-7.7-18.087-17.774-35.214-26.957-52.626
		c-3.549-6.729-11.889-16.649-11.759-24.145c11.319-1.584,23.972,2.015,32.156,10.396c7.046,7.216,7.843,18.399,8.267,27.966
		c0.613,13.871,9.096,30.075,24.091,32.698c15.439,2.701,24.47-9.258,34.161-18.983c7.279-7.304,11.526-8.634,16.043,1.479
		c3.757,8.411,6.97,17.04,9.19,25.989c3.525,14.216,6.944,29.064,8.374,43.651c1.284,13.095,2.852,25.44,5.695,38.254
		c1.501,6.76-0.813,15.364-7.597,8.179c-3.763-3.986-7.4-10.481-10.365-15.266c-2.776-4.48-2.882-8.144-3.261-13.322
		c-1.053-14.423-0.036-29.184-1.492-43.522c-0.353-3.484-0.51-10.585-4.412-12.42c-11.203-5.269-17.571,30.456-19.7,37.039
		c-3.194,9.875-7.138,22.853-14.045,30.47c-3.669,4.045-8.382,8.193-13.402,10.311C173.877,331.318,172.228,330.957,171.129,326.863
		z"/>
	<path style="fill:#BFBFBF;" d="M167.944,112.123c-0.17,4.433,6.709,9.428,9.453,12.764c4.531,5.509,8.579,11.587,12.966,17.264
		c10.81,13.986,22.307,29.735,29.906,45.82c10.494,22.211,15.184,45.506,20.922,69.301c3.174,13.163,5.057,26.936,8.065,40.246
		c1.582,7.001,1.73,14.294,2.327,21.424c0.432,5.145-0.07,17.564,4.375,21.311c7.248,6.102,20.791-10.804,27.914-12.5
		c10.094-2.402,17.878-7.449,23.283-16.808c5.775-9.999,11.696-20.025,18.535-29.355c4.539-6.193,9.472-12.277,13.686-18.692
		c1.958-2.978,6.403-13.446,11.72-9.495c4.337,3.224,0.25,19.201,0.039,23.81c-0.44,9.605-1.57,19.109-1.666,28.757
		c-0.041,4.067-0.308,8.096-0.455,12.169c-0.081,2.266-1.343,6.376-0.419,8.457c2.556,5.764,15.156-3.509,19.16-5.303
		c3.942-1.766,12.143-2.623,15.051-5.793c3.127-3.41,0.804-10.816-0.011-14.891c-1.534-7.671-4.746-15.553-7.374-22.9
		c-3.094-8.651-5.48-17.021-7.296-26.141c-1.025-5.142-0.894-11.083-3.354-15.831c-4.244-8.196-10.016-2.586-15.414,1.495
		c-7.581,5.732-14.731,11.973-22.69,17.293c-10.511,7.027-26.425,14.378-39.328,11.008c-6.463-1.688-10.99-7.491-15.589-11.991
		c-6.781-6.635-12.242-14.932-16.137-23.549c-13.39-29.622-22.527-63.62-43.527-89.121
		C208.76,136.836,177.01,99.427,167.944,112.123z"/>
	<path style="fill:#BFBFBF;" d="M363.575,230.415c0.251,4.76,8.24,11.418,11.196,14.807c5.067,5.81,9.598,12.059,14.281,18.175
		c6.441,8.414,13.771,16.13,19.927,24.766c4.828,6.773,7.204,15.218,11.11,22.641c2.55,4.844,8.268,21.839,14.457,19.722
		c9.271-3.172,11.481-21.779,15.95-29.166c6.178-10.212,11.455-20.909,16.694-31.708c7.35-15.15,13.383-30.103,22.431-44.458
		c3.247-5.152,6.962-10.724,9.529-16.267c1.393-3.008,7.284-11.266,5.709-14.462c-3.793-7.692-24.726,28.697-26.863,32.517
		c-10.229,18.285-23.109,38.482-46.782,35.291c-17.872-2.409-34.679-11.787-46.487-25.06
		C379.671,231.534,366.845,219.257,363.575,230.415z"/>
</g>
<g>
	<path style="fill:#727272;" d="M197.416,316.753c4.864-1.531,11.577-1.425,16.83-1.742c4.892-0.295,10.181-0.988,15.118-0.432
		c7.052,0.794,11.825,9.687,15.571,15.469c2.063,3.184,5.081,7.699-1.011,8.097c-1.626,0.106-4.642-1.886-6.462-2.193
		c-10.817-1.828-21.425,1.6-31.804,4.204c-4.262,1.069-7.842,3.626-12.363,2.681c-4.321-0.903-8.02-3.564-12.197-4.884
		c-3.39-1.071-6.722-2.136-9.946-3.637c-4.721-2.195-9.056-3.751-13.382-6.741c-4.713-3.259-9.567-6.322-14.672-8.934
		c-6.19-3.166-11.891-7.442-18.284-10.191c-3.233-1.389-10.207-2.211-10.948-6.518c5.386-2.912,8.828-7.13,14.95-5.778
		c5.528,1.221,10.946,4.167,16.269,6.152c4.21,1.57,7.959,2.499,11.044,5.902c3.353,3.698,5.924,8.164,8.048,12.659
		c1.536,3.252,3.835,7.848,7.437,9.278c4.641,1.841,9.82-0.974,12.669-4.439C187.507,321.785,192.558,318.282,197.416,316.753z"/>
	<path style="fill:#727272;" d="M261.665,341.877c6.082-3.484,11.521-8.67,17.377-12.626c7.245-4.894,15.193-8.579,23.013-12.307
		c7.098-3.383,11.826-0.07,18.777,2.54c6.332,2.378,12.622,4.629,19.184,6.583c8.722,2.596,16.318,0.011,25.289-2.944
		c7.766-2.559,18.665-9.099,26.499-6.046c10.688,4.164,21.381,9.69,31.911,14.313c2.686,1.179,11.848,4.349,7.687,7.689
		c-1.418,1.138-7.71,0.068-9.626,0.069c-6.308,0.001-12.572,0.161-18.864,0.499c-30.871,1.657-61.867,0.945-92.73,1.819
		c-11.384,0.323-22.591,0.57-33.943,1.817C275.04,343.413,255.148,345.252,261.665,341.877z"/>
</g>
<path d="M510.201,379.21c-1.497-1.82-3.579-2.408-5.847-2.571c-3.739-0.269-7.515-0.381-11.266-0.638
	c-1.987-0.135-3.988-0.211-5.994-0.262c-0.032-0.132-0.048-0.26-0.098-0.397c-1.448-4.063,0.526-8.865-1.472-12.635
	c-2.03-3.833-7.253-4.421-11.015-5.332c-2.151-0.521-4.086-0.656-6.05-1.628c-2.052-1.016-3.464-1.714-5.823-2.157
	c-6.027-1.132-11.702-3.29-17.638-4.697c-0.153-4.452-0.004-10-4.431-11.775c-0.967-0.388-1.983-0.541-3.013-0.59
	c0.612-1.125,0.991-2.37,1.579-3.561c1.533-3.104,3.542-5.992,5.333-8.931c3.691-6.06,6.44-12.729,9.59-19.077
	c6.38-12.86,12.125-26.033,18.481-38.91c6.548-13.267,13.78-26.247,20.651-39.339c2.702-5.146,5.236-10.396,7.825-15.597
	c2.28-4.582,5.836-8.992,7.483-13.835c0.371-1.091,0.001-2.729-0.918-3.473c-4.343-3.513-12.169-2.553-17.46-2.773
	c-7.417-0.309-14.727,0.156-22.111,0.751c-13.212,1.065-26.237,3.987-39.16,6.778c-13.445,2.904-27.071,7.516-39.643,13.102
	c-8.986,3.992-20.002,8.66-27.649,15.575c-1.624-1.275-2.859-4.003-4.106-5.651c-2.05-2.712-4.112-5.388-6.238-8.03
	c-4.239-5.266-7.785-10.932-12.58-15.774c-11.172-11.282-22.631-22.067-35.467-31.496c-14.159-10.4-29.692-19.76-45.124-28.124
	c-14.721-7.979-29.631-14.594-45.546-19.822c-8.433-2.77-17.166-4.69-25.76-6.826c-6.647-1.651-14.044-4.066-20.972-3.476
	c-1.361,0.116-2.082,1.416-1.816,2.479c-0.1,0.291-0.088,0.626,0.13,0.977c7.899,12.69,17.857,23.809,26.261,36.195
	c9.149,13.484,18.365,27.57,25.436,42.256c2.113,4.387,4.062,8.846,5.893,13.355c-5.338-3.428-11.329-5.928-16.838-9.198
	c-8.649-5.134-17.667-10.529-26.942-14.508c-10.02-4.298-20.564-7.287-31.003-10.36c-6.171-1.817-12.512-2.762-18.847-3.797
	c-4.692-0.766-9.645-2.693-14.294-1.11c-0.945,0.322-1.057,1.759,0,2.032c3.934,5.301,6.49,11.891,9.84,17.584
	c3.3,5.61,6.238,11.642,8.961,17.58c3.387,7.388,6.878,14.723,10.357,22.071c2.204,4.655,4.587,9.567,6.497,14.506
	c-1.437-1.007-3.397-1.838-5.579-2.812c-13.884-6.199-29.928-9.073-44.975-10.859c-8.293-0.984-16.101-1.778-24.493-1.5
	c-6.157,0.205-14.273-0.615-19.709,2.799c-0.031,0.019-0.05,0.045-0.077,0.066c-0.025-0.004-0.051-0.011-0.075-0.014
	c-0.296-0.044-0.698,0.197-0.556,0.556c0.035,0.088,0.085,0.173,0.123,0.26c-0.09,0.549,0.194,1.133,0.768,1.392
	c2.723,4.048,8.778,6.947,12.046,10.007c5.873,5.498,10.992,11.431,15.901,17.784c6.057,7.841,11.416,16.076,15.91,24.89
	c2.046,4.013,4.315,7.952,5.923,12.175c0.991,2.602,1.613,5.439,2.619,8.06c-1.29,0.402-2.555,0.923-3.835,1.486
	c-4.337,1.91-8.74,3.628-13.222,5.166c-7.215,2.475-14.475,4.996-21.159,8.593c-4.019,2.162-8.106,4.379-12.255,6.249
	c-2.627,1.184-5.717,0.838-7.259,3.703c-1.419,2.638-0.222,5.398,0.317,8.093c0.386,1.929,0.773,3.836,1.166,5.744
	c-1.5-0.719-2.988-1.456-4.537-2.072c-2.146-0.854-4.093-0.893-6.306-1.552c-3.512-1.047-6.624-2.762-10.366-3.163
	c-1.236-0.132-2.845,1.067-3.043,2.316c-0.584,3.683-0.079,6.8,0.448,10.433c0.514,3.547,0.35,7.191,0.951,10.706
	c-3.993-0.195-7.993-0.426-11.927,0.38c-1.463,0.299-2.14,1.701-2.3,3.021c-0.413,3.425,0.401,6.491,0.89,9.874
	c0.215,1.485,0.34,2.909,0.601,4.298c-12.623-0.469-15.672,6.129-15.365,17.537c0.024,0.891,0.341,1.581,0.811,2.094
	c0.345,1.565,0.972,3.035,2.041,4.334c3.547,4.304,12.534,4.065,17.501,3.989c8.081-0.123,15.735,1.124,23.828,0.87
	c4.413-0.139,8.844-0.514,13.258-0.2c4.402,0.313,8.508,1.266,12.965,1.246c8.769-0.04,17.299-1.456,26.078-1.087
	c9.229,0.388,18.093-0.831,27.291-0.641c8.753,0.181,17.287-0.968,26.072-0.961c9.355,0.008,18.649-0.71,27.994-0.87
	c18.694-0.318,37.292-1.424,56.003-1.794c19.394-0.383,38.718-0.767,58.131-0.685c40.512,0.172,81.024,0.066,121.537,0.066
	c19.414,0,38.827,0.447,58.21,1.547c4.544,0.258,9.215-0.132,13.733,0.264c3.895,0.342,7.304,1.167,11.286,1.018
	c5.901-0.221,10.841-0.864,13.457-6.854C511.938,390.112,513.171,382.823,510.201,379.21z M437.779,342.441
	c-0.032,0.531,0.001,2.139-0.001,2.114c0.181,2.276,0.604,4.699,0.904,6.985c0.177,1.355,0.876,2.831,2.386,3.133
	c5.219,1.05,10.032,3.307,15.188,4.526c2.167,0.512,4.666,0.347,6.747,1.08c1.838,0.648,3.143,2.124,5.027,2.681
	c2.917,0.863,9.474,0.428,11.191,3.217c0.919,1.495,0.192,3.822,0.176,5.536c-0.014,1.495,0.224,2.674,0.596,3.965
	c-5.728,0.036-11.471,0.217-17.134,0.22c-4.67,0.002-9.387,0.207-14.054,0.012c-3.743-0.156-7.445-0.815-11.187-0.988
	c-3.638-0.168-11.106,1.874-11.434-3.92c-0.205-3.617,1.914-7.324,0.218-10.92c-1.438-3.052-5.091-3.514-8.109-3.64
	c-12.596-0.524-25.469,0.342-38.098,0.349c-7.65,0.004-15.301-0.031-22.95,0.019c-7.086,0.045-14.034,1.002-21.159,0.914
	c-12.862-0.159-26.025,0.356-38.694,2.116c-0.928,0.129-1.938,1.191-2.096,2.096c-0.644,3.663-0.294,7.196-0.124,10.887
	c0.115,2.498-0.182,5.054-0.055,7.535c-0.184,0-0.367-0.001-0.551-0.001c-4.619-0.001-9.461,0.435-14.042-0.229
	c-3.221-0.467-6.158-0.568-9.313-0.367c-0.054-0.635-0.264-1.26-0.628-1.794c0.145-1.37,0.924-2.85,1.029-4.218
	c0.161-2.074-0.383-3.921-0.905-5.899c-1.268-4.807-1.307-9.613-4.22-13.825c-2.065-2.986-4.834-5.349-7.587-7.696
	c3.804-0.22,7.595-0.697,11.609-0.872c8.619-0.377,17.395,0.12,26.028,0.138c9.095,0.019,18.447,0.784,27.492-0.33
	c8.272-1.02,16.614,0.672,24.803-0.62c4.514-0.712,8.516-0.679,13.032-0.754c4.359-0.072,8.633-0.859,13.005-0.887
	c9.127-0.061,18.259,0.028,27.387,0.034c8.98,0.007,17.958,0.019,26.938,0.03C429.794,343.072,437.127,343.103,437.779,342.441z
	 M419.584,374.795c-4.176-0.047-8.353-0.102-12.533-0.14c-1.21-0.011-2.408,0.044-3.599,0.134c-0.047-0.194-0.112-0.383-0.218-0.556
	c-0.257-0.423-0.434-0.612-0.564-0.775c0.152-1.188,0.029-2.507,0.117-3.616c0.162-2.036,0.294-4.567-0.004-6.852
	c3.99-0.039,7.979-0.115,11.959-0.303c0.983-0.046,5.211-0.634,5.888,0.216c0.765,0.962-0.944,5.014-1.122,6.267
	C419.252,370.995,419.104,373.029,419.584,374.795z M384.366,372.83c-0.421-1.336-0.285-2.486-0.329-3.863
	c-0.065-1.987-0.302-4.029-0.707-6.001c4.818,0.031,9.639,0.075,14.459,0.07c-0.112,1.655,0.254,3.305,0.053,4.992
	c-0.17,1.42-0.412,2.868-0.454,4.3c-0.029,0.959,0.175,2.068,0.59,3.029c-1.599,0.181-3.201,0.348-4.823,0.429
	c-2.715,0.135-5.437,0.105-8.157,0.065c0.019-0.13,0.026-0.265,0.017-0.405C384.945,374.442,384.661,373.77,384.366,372.83z
	 M379.865,374.07c-0.012,0.589,0.019,1.17,0.085,1.743c-0.277-0.002-0.554-0.004-0.83-0.002c-4.752,0.053-9.389,1.029-14.144,1.116
	c-0.21,0.004-0.418,0.014-0.628,0.02c-0.115-0.74-0.109-1.758-0.215-2.157c-0.215-0.814-0.482-1.512-0.681-2.225
	c0.004-0.286,0.013-0.568,0.032-0.84c0.212-3.02,0.138-5.924-0.139-8.903c4.555,0.015,9.117,0.115,13.652,0.117
	c1.105,0,2.211,0.006,3.317,0.011c-0.437,2.277-0.607,4.596-0.804,6.908C379.368,371.511,379.496,372.773,379.865,374.07z
	 M359.159,374.771c0.062,0.274,0.106,0.571,0.152,0.866c0.004,0.51,0.03,1.014,0.098,1.502c-2.838,0.146-5.668,0.336-8.525,0.51
	c-2.183,0.133-4.36,0.239-6.533,0.337c-0.35-1.242-1.045-2.356-1.258-3.641c-0.196-1.174,0.017-2.522-0.036-3.721
	c-0.097-2.174-0.344-4.307-0.79-6.419c-0.008-0.171-0.009-0.345-0.02-0.514c4.309-0.207,8.57-0.589,12.931-0.764
	c1.58-0.063,3.163-0.089,4.75-0.106c-0.148,0.187-0.237,0.418-0.219,0.685C359.961,367.456,358.271,370.828,359.159,374.771z
	 M337.884,378.28c-4.963,0.232-9.923,0.516-14.912,1.086c-0.143-3.159-0.96-6.271-0.901-9.456c0.021-1.132,0.161-2.276-0.055-3.401
	c-0.181-0.941-0.641-1.699-1.054-2.494c5.055-0.184,10.113-0.248,15.124-0.189c0.734,0.009,1.459-0.01,2.187-0.022
	c-0.424,2.302-0.274,4.689-0.306,7.105C337.939,373.035,337.588,375.821,337.884,378.28z M300.84,365.448
	c5.504-0.6,11.088-1.022,16.688-1.289c0.032,0.392,0.11,0.793,0.231,1.317c0.364,1.58,0.215,2.823,0.112,4.435
	c-0.209,3.282,0.295,6.646,0.711,9.918c-6.294,0.56-12.609,0.571-18.929,0.548c0.69-1.951,1.362-3.297,1.359-6.061
	C301.006,371.381,300.604,368.384,300.84,365.448z M264.33,370.353c0.873,3.481-0.858,6.435-0.33,9.93
	c-7.674,0.371-15.422,0.021-23.087,0.099c-9.219,0.095-18.358,0.444-27.498-0.774c-4.108-0.547-8.287-0.083-12.42-0.325
	c-0.733-0.043-1.463-0.097-2.194-0.148c-0.023-0.069-0.031-0.134-0.058-0.205c-0.958-2.406,0.069-5.045,0.007-7.69
	c-0.067-2.858-0.078-5.719-0.08-8.579c11.357,0.851,23.022,0.088,34.365,0.1c6.598,0.007,13.197,0.014,19.795,0.021
	c2.922,0.003,6.87,0.666,9.874-0.427C263.398,364.987,263.693,367.816,264.33,370.353z M198.661,357.452
	c-0.01-3.612-0.699-7.103-0.735-10.67c-0.001-0.083-0.004-0.159-0.007-0.239c5.507-0.498,11.146-2.223,16.307-3.623
	c4.537-1.232,9.047-2.422,13.635-3.464c5.665-1.285,8.782-1.748,13.89,1.587c3.669,2.395,7.057,5.482,10.314,8.405
	c2.974,2.669,6.494,5.066,8.739,8.43c0.178,0.268,0.321,0.556,0.477,0.838c-4.471,0.382-9.149-0.019-13.57-0.013
	c-6.64,0.007-13.281,0.014-19.921,0.021c-9.619,0.01-19.565-0.559-29.126,0.907C198.663,358.905,198.663,358.179,198.661,357.452z
	 M248.602,332.104c-2.649-3.834-5.386-7.543-8.026-11.379c-1.317-1.912-2.66-4.356-4.624-5.788
	c0.264-4.427-1.166-8.952-1.669-13.323c-0.476-4.128-0.874-8.24-1.262-12.376c-1.014-10.817-0.957-21.747-1.593-32.585
	c-0.018-0.298-0.447-0.299-0.465,0c-0.313,5.33-1.206,10.407-1.278,15.775c-0.074,5.457-0.148,10.904,0.031,16.345
	c0.258,7.857,0.324,16.877,2.171,24.755c-3.596-0.413-8.228,0.236-11.226,0.395c-5.465,0.291-10.931,0.142-16.398,0.394
	c-2.239,0.103-4.725,0.034-7.093,0.351c1.048-2.01,1.748-4.389,2.5-6.081c2.3-5.179,3.822-10.658,5.887-15.945
	c4.225-10.812,8.603-22.015,11.166-33.349c0.163-0.718-0.742-1.349-1.294-0.753c-2.853,3.079-3.643,8.19-4.82,12.081
	c-1.672,5.533-3.931,11.176-6.177,16.479c-4.051,9.561-7.234,20.004-12.159,29.125c-0.001,0.003-0.001,0.007-0.003,0.01
	c-0.15,0.09-0.301,0.177-0.446,0.277c-3.659,2.504-6.528,6.735-9.865,9.671c-0.718,0.631-1.541,1.278-2.353,1.969
	c2.574-6.81,5.755-13.463,8.385-20.263c4.296-11.107,8.714-22.247,13.575-33.131c5.109-11.439,10.459-22.794,15.723-34.165
	c2.387-5.156,4.877-10.219,6.519-15.686c0.876-2.918,1.779-5.812,2.694-8.711c8.028,23.184,13.048,47.498,16.918,71.542
	c1.509,9.379,2.956,18.694,4.209,28.121c0.537,4.042,0.884,8.148,1.64,12.153c0.418,2.217,0.896,4.371,1.103,6.595
	C249.77,333.735,249.149,332.896,248.602,332.104z M192.132,321.663c6.227-5.756,18.604-2.914,26.576-3.3
	c3.779-0.183,7.905-0.762,11.678-0.252c4.461,0.603,6.133,4.742,8.425,7.986c2.092,2.959,4.163,5.872,6.139,8.918
	c-0.17-0.107-0.334-0.219-0.504-0.324c-3.575-2.177-6.847-3.748-11.127-3.295c-5.332,0.565-10.844,2.29-15.995,3.739
	c-5.715,1.607-11.626,2.853-17.266,4.685c-1.04,0.338-2.516,0.713-3.942,1.241c-0.186-0.193-0.38-0.384-0.606-0.575
	c-2.012-1.692-4.811-2.646-7.044-4.059c-2.553-1.617-5.409-2.735-8.201-3.958C184.422,329.062,188.132,325.361,192.132,321.663z
	 M266.897,339.979c3.231-1.802,6.387-3.759,9.47-5.603c6.852-4.098,13.764-7.978,20.665-12.014c3.987-2.332,6.505-5.248,11.515-4.23
	c3.789,0.77,7.673,2.391,11.25,3.819c6.323,2.525,12.482,5.337,18.878,7.687c4.273,1.571,7.03,1.976,11.429,0.724
	c4.14-1.178,8.168-2.519,12.278-3.779c3.093-0.948,6.236-1.869,9.278-2.924c4.031-1.398,8.012-4.029,12.264-4.743
	c3.894-0.655,8.372,1.864,11.928,3.422c4.244,1.858,8.36,3.911,12.519,5.938c3.109,1.515,6.069,3.165,9.169,4.688
	c2.28,1.12,5.388,2.275,8.001,3.696c-2.201-0.01-4.402-0.023-6.6-0.021c-10.477,0.013-20.955,0.035-31.432,0.05
	c-9.209,0.012-18.42,0.962-27.576,0.885c-4.71-0.04-8.71,0.591-13.344,1.115c-4.352,0.492-8.763-0.197-13.118-0.315
	c-4.957-0.134-9.713,0.952-14.645,1.174c-5.268,0.237-10.557-0.008-15.829-0.004c-9.761,0.008-19.531,0.179-29.291,0.058
	C271.413,339.574,269.149,339.729,266.897,339.979z M389.253,219.53c11.873-5.647,24.993-10.263,37.806-13.213
	c11.676-2.688,23.403-5.168,35.28-6.798c6.845-0.939,13.823-1.435,20.725-1.384c2.945,0.022,5.872-0.018,8.812,0.151
	c1.5,0.086,5.815-0.279,8.546-0.004c-1.649,3.571-3.968,7.272-5.672,10.663c-2.627,5.224-5.131,10.51-7.796,15.714
	c-6.676,13.039-14.164,25.72-20.556,38.907c-5.963,12.304-11.73,24.736-17.888,36.941c-3.129,6.203-5.945,12.645-9.508,18.611
	c-1.688,2.827-3.509,5.566-5.119,8.456c-0.043,0.078-0.084,0.155-0.127,0.232c-1.073-1.797-2.217-3.556-3.138-5.406
	c-1.9-3.815-3.736-7.825-6.073-11.406c-6.387-9.785-13.311-19.229-20.04-28.787c-6.218-8.832-12.557-17.574-18.662-26.445
	c-5.995-8.713-12.933-16.531-19.719-24.593C373.531,226.795,381.58,223.179,389.253,219.53z M357.806,238.528
	c1.061-0.933,2.365-2.526,3.686-3.746c6.596,7.911,13.312,15.58,19.211,24.067c6.128,8.815,12.497,17.52,18.578,26.408
	c6.153,8.996,12.228,18.043,18.36,27.05c2.492,3.66,4.521,7.67,6.521,11.542c1.528,2.957,3.668,5.879,5.07,8.995
	c-3.817-2.352-8.514-3.939-12.277-5.976c-6.506-3.522-13.292-6.761-20.112-9.769c-2.463-1.086-5.014-2.384-7.621-3.113
	c-0.02-0.053-0.029-0.105-0.051-0.157c-3.961-9.139-6.248-18.836-9.616-28.188c-1.432-3.978-2.914-7.959-4.445-11.898
	c-1.324-3.409-2.924-7.443-5.259-10.271c-0.509-0.617-1.434,0.171-1.075,0.829c1.973,3.611,3.222,8.82,4.182,12.834
	c1.066,4.455,2.639,8.742,3.871,13.157c2.136,7.657,3.641,15.904,6.779,23.294c-0.361,0.065-0.723,0.144-1.087,0.253
	c-6.428,1.923-12.626,4.723-18.964,6.901c-3.851,1.323-8.43,3.214-12.933,4.172c0.595-4.535,0.421-9.209,0.672-13.759
	c0.326-5.933,0.817-11.858,1.162-17.777c0.357-6.146-0.173-12.317,0.27-18.473c0.412-5.721-0.088-11.698,0.584-17.34
	c0.08-0.675-0.985-0.93-1.275-0.345c-1.947,3.944-1.849,8.626-2.247,12.932c-0.655,7.088-0.301,14.152-0.764,21.224
	c-0.748,11.403-2.132,22.71-2.727,34.115c-1.588,0.069-3.132-0.039-4.592-0.419c-5.678-1.481-11.32-4.287-16.744-6.511
	c-5.345-2.192-11.088-4.476-16.803-5.508c1.527-1.966,2.754-4.39,4.052-6.027c2.694-3.401,5.177-6.776,7.411-10.526
	c2.842-4.771,5.198-9.905,8.304-14.503c2.688-3.98,4.735-7.382,6.41-11.88c0.121-0.326-0.342-0.456-0.519-0.219
	c-2.705,3.639-6.037,6.714-8.559,10.539c-2.957,4.484-5.836,8.965-8.922,13.371c-2.313,3.302-4.773,6.427-7.223,9.617
	c-2.228,2.902-5.32,6.54-6.604,10.157c-3.647,1.391-6.985,4.405-10.183,6.207c-6.683,3.765-13.146,7.912-19.644,11.993
	c-4.278,2.688-8.591,5.034-12.733,7.788c3.31-3.465,6.123-7.677,9.26-11.16c3.506-3.891,7.02-7.801,10.582-11.649
	c9.373-10.127,19.31-19.718,28.839-29.702c9.204-9.644,18.66-19.04,28.013-28.503c4.385-4.437,8.963-8.593,13.404-12.965
	C352.547,243.134,355.173,240.842,357.806,238.528z M199.845,151.778c-5.16-7.592-10.532-14.759-16.321-21.86
	c-2.902-3.56-5.791-7.038-8.872-10.424c-1.985-2.183-3.792-4.503-5.768-6.664c11.909,3.327,23.951,6.113,35.825,9.662
	c16.081,4.807,31.869,11.297,46.422,19.668c14.793,8.51,29.104,17.463,43.468,26.683c13.645,8.757,25.191,20.236,36.647,31.546
	c5.566,5.495,9.764,11.777,14.605,17.849c3.297,4.135,6.441,10.104,10.487,13.859c-0.015,0.015-0.031,0.032-0.046,0.047
	c-2.477,2.369-5.171,4.506-7.667,6.855c-4.804,4.52-9.655,9.106-14.164,13.903c-9.472,10.074-19.372,19.79-28.924,29.824
	c-9.716,10.205-19.742,20.139-29.24,30.544c-6.266,6.862-12.536,13.764-17.905,21.331c-0.445-3.858-1.654-7.83-2.054-11.166
	c-1.038-8.648-2.183-17.387-3.759-25.961c-3.007-16.367-5.895-32.925-10.025-49.054c-4.571-17.848-10.912-34.7-17.522-51.872
	C218.816,180.404,209.536,166.037,199.845,151.778z M137.597,200.346c-3.376-6.642-6.936-13.322-10.867-19.613
	c-2.688-4.302-5.417-9.302-8.852-13.314c20.426,5.165,41.773,9.988,60.428,19.964c8.471,4.529,16.732,9.463,25.179,14.038
	c3.463,1.875,7.271,3.174,10.593,5.328c3.491,2.264,6.36,4.494,9.93,5.786c-2.155,4.171-3.439,8.736-5.114,13.173
	c-2.195,5.818-5.236,11.242-7.995,16.797c-5.458,10.989-10.984,21.987-16.087,33.141c-4.722,10.321-9.312,20.745-13.306,31.36
	c-1.749,4.651-3.915,9.14-5.741,13.764c-0.288,0.729-0.637,1.498-1.003,2.289c-1.233-12.426-2.691-24.849-5.615-37.008
	c-3.629-15.088-7.775-30.019-12.57-44.813C151.992,227.09,144.306,213.546,137.597,200.346z M150.703,246.29
	c0.353-0.738,0.602-1.403,0.786-2.026c4.191,14.127,8.123,28.202,11.57,42.508c2.897,12.018,4.067,24.233,4.901,36.499
	c-1.691-3.452-3.71-6.879-5.343-10.311c-0.904-1.903-1.816-4.196-3.268-5.843c0.41-5.111-0.685-10.29-0.941-15.389
	c-0.2-3.977,0.556-7.815-0.607-11.715c-0.077-0.259-0.444-0.257-0.523,0c-2.312,7.559-2.314,16.382-1.757,24.4
	c-1.967-0.993-4.133-1.786-5.995-2.648c-6.071-2.812-13.102-6.254-19.751-7.556c2.387-2.996,5.018-5.902,7.123-9.085
	c1.95-2.947,3.267-6.109,4.694-9.318c0.668-1.503,1.864-2.886,1.802-4.546c-0.018-0.472-0.61-0.617-0.865-0.234
	c-3.432,5.121-7.305,10.247-11.063,15.159c-1.614,2.108-4.64,5.077-5.876,8.1c-2.128,0.559-4.189,1.811-6.108,3.258
	c1.286-2.34,2.485-4.748,3.94-6.96c2.093-3.179,4.176-6.348,6.163-9.594c3.845-6.278,7.426-12.778,11.678-18.818
	C144.713,257.274,148.123,251.678,150.703,246.29z M164.287,325.996c-2.872-1.322-5.428-3.009-8.313-4.605
	c-7.253-4.014-14.67-7.682-21.927-11.683c-4.169-2.298-9.014-5.517-13.958-7.568c0.331-0.173,0.66-0.346,1.003-0.526
	c3.607-1.898,5.875-3.557,10.183-2.49c5.815,1.44,12.111,4.488,17.446,7.12c3.646,1.799,6.418,2.615,8.755,6.163
	c1.001,1.518,1.744,3.348,2.473,5.008C161.228,320.332,162.867,323.142,164.287,325.996z M103.605,277.79
	c-4.648-8.66-10.14-16.801-16.515-24.319c-5.3-6.249-10.68-12.171-16.82-17.625c-2.501-2.222-5.435-4.957-8.609-7.036
	c3.306-0.081,6.744-0.552,9.638-0.56c6.964-0.019,14.217-0.21,21.083,0.944c7.399,1.244,14.783,2.067,22.117,3.695
	c7.182,1.595,14.401,3.885,21.373,6.217c1.629,0.545,6.965,2.288,7.926,3.47c0.927,1.141,0.825-0.283,0.31,1.701
	c-0.322,1.242-1.192,2.614-1.824,3.748c-2.932,5.265-6.238,10.235-9.263,15.418c-3.151,5.4-6.434,10.715-9.648,16.062
	c-1.644,2.735-3.514,5.313-5.279,7.96c-1.941,2.912-3.433,6.336-5.361,9.301c-1.187-2.481-2.105-5.2-3.231-7.602
	C107.682,285.286,105.637,281.574,103.605,277.79z M55.278,329.352c-0.176,0.249,3.116-0.364,3.388-0.471
	c7.634-3.012,14.321-8.004,22.112-10.629c8.752-2.948,17.465-6.494,25.961-10.124c9.001-3.846,20.429,5.441,28.13,9.729
	c7.837,4.365,15.807,8.617,23.677,12.936c3.408,1.869,6.991,2.659,10.616,3.937c4.234,1.493,8.217,3.881,12.321,5.71
	c1.888,0.841,3.427,1.844,5.168,2.898c0.983,0.595,3.925,1.29,4.517,2.245c0.489,0.788-0.167,2.789-0.102,3.795
	c0.155,2.394,0.722,4.698,0.805,7.118c0.156,4.594,0.163,9.325-0.028,13.922c-0.137,3.29-1.077,5.46-0.644,8.217
	c-1.398-0.072-2.8-0.127-4.208-0.132c-9.647-0.043-19.349,0.319-28.988-0.053c-4.557-0.176-9.17-0.611-13.717-0.974
	c-4.418-0.352-9.24-0.173-13.558-0.912c-0.247-0.042-0.494-0.067-0.741-0.106c0.095-0.745-0.205-1.514-0.981-2.032
	c-3.741-2.496-8.602-3.633-12.638-5.854c-4.275-2.353-8.858-3.992-13.276-6.08c-8.627-4.077-17.902-6.91-26.615-10.881
	c-6.605-3.01-13.089-6.306-19.72-9.15c0.134-2.853-0.011-6.055-0.48-8.773C56.163,333.032,54.971,329.784,55.278,329.352z
	 M41.486,343.072c4.912,0.994,10.586,4.074,14.931,6.474c3.313,1.831,6.967,2.857,10.422,4.533c4.542,2.202,9.093,4.38,13.696,6.452
	c8.154,3.67,16.502,7.024,24.679,10.568c3.367,1.46,6.62,2.988,9.891,4.559c-2.82,0.028-5.641,0.09-8.449,0.089
	c-9.038-0.003-17.744-1.166-26.796-0.95c-4.391,0.105-8.831-0.346-13.215-0.021c-1.536,0.115-3.001,0.46-4.516,0.694
	c-1.961,0.302-3.789,0.121-5.648-0.131c0.01-0.512-0.133-1.043-0.495-1.553c-1.291-1.822-0.303-5.824-0.504-7.892
	c-0.19-1.96-0.72-4.032-1.502-5.856c-1.453-3.387-2.837-3.48-6.218-3.434c-4.826,0.067-9.739,0.205-14.638,0.154
	c0.591-2.696,0.757-5.55,0.615-8.254c-0.149-2.831-0.936-5.605-1.075-8.418C35.631,340.972,38.47,342.461,41.486,343.072z
	 M31.808,363.027c4.608,0.083,9.346-0.502,13.9-0.304c0.381,0.017,2.845,0.701,2.761,0.244c1.084,1.422,0.836,4.857,0.811,6.344
	c-0.035,2.031-0.163,3.702,0.276,5.296c-8.243-0.511-16.756,0.138-24.939,0.111c-1.284-0.004-2.713-0.102-4.211-0.216
	c0.873-3.901-0.27-7.721-0.367-11.772C23.913,362.379,27.97,362.958,31.808,363.027z M501.66,393.327
	c-2.399,1.101-8.082,0.668-10.626,0.264c-3.928-0.623-7.374-0.922-11.418-0.962c-17.402-0.173-34.784-1.82-52.198-1.82
	c-37.13,0-74.262-0.098-111.391,0.066c-18.531,0.081-37.115-0.293-55.638,0.185c-17.472,0.45-34.913,1.978-52.407,1.879
	c-8.075-0.046-15.92,0.985-23.993,0.948c-8.656-0.04-17.25,0.735-25.895,0.895c-7.733,0.142-15.872-0.859-23.512,0.413
	c-8.335,1.387-16.81,0.081-25.174,1.341c-8.34,1.255-16.916-0.881-25.316,0.153c-8.376,1.031-16.004,0.889-24.372-0.077
	c-7.682-0.886-15.356,0.499-23.037,0.286c-3.258-0.09-6.314-1.104-9.643-1.102c-4.288,0.002-8.769,0.529-12.999-0.21
	c-1.099-0.192-2.386-0.313-3.451-0.628c-2.814-0.833-3.431-1.778-3.973-4.651c-0.063-0.334-0.101-0.667-0.145-1
	c-0.081-1.766-0.13-3.616,0.389-5.148c1.509-4.457,8.067-2.783,11.847-2.728c8.591,0.126,17.19-0.143,25.781-0.166
	c4.443-0.012,8.58,0.4,12.974,0.848c4.069,0.415,7.949-0.884,12.015-0.914c8.347-0.062,16.814-0.604,25.039,0.764
	c7.938,1.321,16.865,0.237,24.909,0.235c7.138-0.001,14.602,0.535,21.686,1.374c17.318,2.051,34.631,0.441,51.969,1.475
	c16.345,0.974,32.45,1.851,48.856,1.687c8.751-0.088,17.67,0.522,26.38-0.374c7.717-0.794,15.383,0.329,23.158,0.328
	c8.241-0.001,16.556,0.293,24.782-0.293c8.747-0.623,17.491-2.364,26.269-2.508c8.793-0.144,17.717-0.139,26.495-0.819
	c4.011-0.31,7.891-0.995,11.936-0.981c4.412,0.015,8.848,0.168,13.254-0.105c17.124-1.058,34.69-1.786,51.816-0.073
	c17.32,1.733,34.986-1.352,52.29,0.842c3.133,0.397,6.488-0.75,6.409,2.976C504.673,388.102,504.099,392.209,501.66,393.327z"/>
<g>
</g>
<g>
</g>
<g>
</g>
<g>
</g>
<g>
</g>
<g>
</g>
<g>
</g>
<g>
</g>
<g>
</g>
<g>
</g>
<g>
</g>
<g>
</g>
<g>
</g>
<g>
</g>
<g>
</g>
</svg>
