<?xml version="1.0" encoding="iso-8859-1"?>
<!-- Generator: Adobe Illustrator 19.0.0, SVG Export Plug-In . SVG Version: 6.00 Build 0)  -->
<svg version="1.1" id="Layer_1" xmlns="http://www.w3.org/2000/svg" xmlns:xlink="http://www.w3.org/1999/xlink" x="0px" y="0px"
	 viewBox="0 0 512.001 512.001" style="enable-background:new 0 0 512.001 512.001;" xml:space="preserve">
<path style="fill:#D1DAE0;" d="M404.223,494.921c-0.061-5.294-0.641-10.572-0.766-15.865c-1.116-47.24-2.131-94.483-3.312-141.722
	c-0.217-8.697,0.652-17.94-2-25.93c-3.569-10.752-3.511-21.361-3.7-32.212c-0.203-11.673-0.1-23.376-1.254-35.007
	c-0.559-5.636-2.075-11.116-2.741-16.692c-0.591-4.945-0.895-9.076-4.288-13.107c-0.846-1.005-1.835-1.98-2.148-3.255
	c-0.459-1.868,0.653-3.708,1.32-5.512c1.083-2.924,0.644-5.522,0.105-8.452c-0.61-3.313-0.819-6.755-1.235-10.1
	c-0.822-6.595-1.678-13.187-2.6-19.768c-0.399-2.86-1.251-8.209-3.216-10.41c-0.8-0.896-1.783-1.734-2.062-2.903
	c-0.188-0.788-0.021-1.612,0.145-2.405c0.751-3.569,2.027-7.376,2.315-11.008c0.239-3.003-0.318-6.394-0.744-9.375
	c-0.947-6.626-3.103-13.023-6.92-18.56c-0.738-1.07-0.82-2.835-0.684-4.227c1.501-15.447-5.416-28.105-12.915-40.746
	c-2.183-3.68-4.605-7.419-5.579-11.605c-0.944-4.06-3.724-7.466-2.872-11.901c0.652-3.395,3.259-6.407,2.935-9.849
	c-0.239-2.537-2.229-4.778-4.689-5.444c-2.46-0.666-5.236,0.212-6.97,2.078c-1.734,1.867-2.411,4.62-1.877,7.111
	c0.517,2.414,2.048,4.484,2.84,6.823c1.366,4.038-1.032,5.668-3.133,8.599c-3.851,5.374-7.54,10.886-10.587,16.763
	c-3.51,6.768-6.172,14.078-7.076,21.679c-0.786,6.597,1.612,13.111-1.815,19.462c-0.993,1.841-2.403,3.427-3.462,5.232
	c-3.03,5.161-2.864,11.397-2.236,17.148c0.318,2.913,0.851,5.248,0.698,8.229c-0.174,3.382-0.37,6.764-0.539,10.146
	c-0.058,1.156-0.122,2.342-0.59,3.401c-0.536,1.214-1.548,2.14-2.376,3.177c-2.631,3.293-3.397,7.688-3.626,11.898
	c-0.328,6.055-0.553,11.945-0.502,17.975c0.049,5.716,0.097,11.434,0.146,17.15c0.024,2.758,0.024,5.623-1.148,8.118
	c-0.791,1.684-2.068,3.085-3.081,4.646c-3.134,4.83-3.604,10.863-3.677,16.469c-0.081,6.145-1.169,12.297-1.312,18.488
	c-0.297,12.872,0.945,25.704,1.564,38.549c0.112,2.337,0.202,4.79-0.833,6.887c-0.811,1.642-2.229,2.89-3.344,4.342
	c-2.822,3.676-3.601,8.514-3.788,13.144c-0.166,4.124-0.765,8.749-0.086,12.815c0.57,3.405-0.66,5.994-3.978,7.614
	c-2.381,1.162-5.145,1.143-7.793,1.099l-47.231-0.779c-2.218-0.037-4.542-0.1-6.473-1.194c-3.38-1.914-1.921-4.653-2.564-7.648
	c-0.419-1.95-1.036-3.762-1.164-5.774c-0.438-6.808-1.477-12.992-3.76-19.462c-0.775-2.197-1.617-4.402-1.867-6.719
	c-0.225-2.082,0.422-3.572,0.875-5.52c0.323-1.389,0.069-2.789,0.023-4.215c-0.136-4.311-0.11-8.625-0.184-12.937
	c-0.13-7.967,0.684-16.25-1.554-23.935c-1.134-3.894-0.685-8.236-0.956-12.255c-0.311-4.619-0.832-9.223-1.563-13.795
	c-0.408-2.553-0.98-5.282-2.875-7.04c-0.903-0.837-2.066-1.408-2.783-2.41c-1.384-1.934-0.599-4.615,0.35-6.795
	c2.996-6.877,1.421-16.484-0.431-23.563c-2.067-7.9-1.806-15.948-5.362-23.572c-0.717-1.538-1.558-3.087-1.635-4.782
	c-0.111-2.475,1.327-4.608,1.812-6.962c0.425-2.06-0.479-3.659-0.524-5.691c-0.127-5.783-1.654-11.222-1.896-17.012
	c-0.163-3.89-0.84-7.906-3.156-11.137c-0.929-1.298-2.101-2.438-2.795-3.874c-1.183-2.451-0.796-5.328-0.506-8.034
	c0.475-4.45-1.087-8.239-2.32-12.445c-1.405-4.791-3.179-9.464-4.956-14.126c-3.56-9.343-6.877-17.958-13.079-25.989
	c-1.116-1.446-2.346-3.023-2.297-4.849c0.058-2.126,1.807-3.762,2.798-5.644c1.444-2.741,1.151-6.371-0.901-8.693
	c-2.053-2.32-5.808-3.013-8.439-1.377c-1.807,1.124-2.94,3.159-3.243,5.266c-0.303,2.106,0.157,4.271,1.007,6.222
	c0.72,1.654,1.731,3.227,1.984,5.014c0.312,2.201-0.571,4.384-1.531,6.389c-3.419,7.137-8.044,13.628-11.76,20.614
	c-2.547,4.79-4.682,9.896-5.584,15.271c-0.416,2.478-0.267,4.986-0.561,7.439c-0.316,2.642-0.644,5.2-0.562,7.89
	c0.183,6.037-1.683,11.187-4.337,16.532c-2.204,4.438-3.986,9.773-3.763,14.609c0.781,16.908-3.335,33.057-6.002,49.474
	c-1.271,7.823-0.948,15.902-1.391,23.863c-0.159,2.851,0.397,6.13-0.812,8.471c-8.798,17.043-6.187,35.542-6.89,53.508
	c-0.565,14.468,0.55,28.872-4.566,42.982c-2.16,5.957-2.059,12.888-2.202,19.393c-0.526,23.988-0.509,47.988-1.1,71.975
	c-0.217,8.823-0.474,17.647-0.751,26.469c-0.427,13.573-0.904,27.145-1.365,40.717c-0.229,6.757-0.482,13.513-0.67,20.269
	c-0.131,4.699,0.708,9.926,5.199,12.421c3.123,1.735,6.833,1.966,10.4,2.155c7.314,0.392,14.629,0.783,21.944,1.174
	c19.973,1.068,40.04,2.136,59.941,0.132c5.042-0.507,10.291-1.298,14.409-4.251c6.065-4.349,4.912-10.312,4.7-16.738
	c-0.009-0.268-0.017-0.537-0.026-0.806c-0.226-6.787-0.491-13.572-0.746-20.358c-0.128-3.392-0.252-6.783-0.369-10.175
	c-0.099-2.896,0.222-6.143-0.626-8.935c-3.264-10.738-3.167-24.843,0.367-35.534c2.904-8.786,8.642-16.197,13.918-23.661
	c5.588-7.908,9.251-16.603,14.256-24.825c0.97-1.594,2.476-3.381,4.297-2.971c0.214,0.048,0.411,0.122,0.596,0.219
	c1.097,0.575,1.713,1.934,2.199,3.141c3.226,8.009,7.836,15.328,12.346,22.628c2.431,3.936,4.848,7.882,7.221,11.853
	c2.194,3.669,4.864,7.08,6.828,10.854c3.843,7.386,4.852,15.943,4.78,24.164c-0.01,1.077-0.027,2.154-0.052,3.231
	c-0.311,13.42-1.775,26.777-2.51,40.174c-0.15,2.719-0.057,5.476-0.963,8.075c-0.647,1.857-1.375,3.4-1.45,5.418
	c-0.201,5.338,1.408,11.627,5.95,14.898c3.628,2.613,8.41,2.781,12.88,2.851c28.315,0.443,56.642,0.886,84.945,0.008
	c3.506-0.109,7.158-0.276,10.235-1.963C404.2,502.865,404.273,499.22,404.223,494.921z M244.667,360.337
	c-3.247,4.598-7.034,8.736-9.833,13.649c-3.148,5.525-5.565,11.493-7.765,17.446c-0.616,1.665-3.523,2.151-3.892,0
	c-1.067-6.229-1.194-12.844-0.531-19.132c0.155-1.468,0.369-2.919,0.569-4.373c-0.239-2.738,0.035-5.458,0.086-8.258
	c0.019-0.987,0.705-2.028,1.711-2.248c5.962-1.311,11.91-0.019,17.931-0.087C244.364,357.317,245.557,359.078,244.667,360.337z
	 M289.211,390.638c-0.476,1.6-2.51,2.175-3.715,0.981c-3.636-3.603-5.285-9.372-7.972-13.707c-3.27-5.273-6.664-10.478-9.426-16.04
	c-0.379-0.407-0.763-0.821-1.166-1.244c-1.157-1.216-0.724-3.456,1.021-3.868c6.288-1.482,12.446,0.696,18.774,0.268
	c1.365-0.093,2.156,1.134,2.303,2.303c0.697,5.554,0.275,11.153,0.791,16.723C290.283,381.017,290.651,385.796,289.211,390.638z"/>
<g>
	<path style="fill:#9CADB7;" d="M166.639,74.758c-0.103,1.275-0.427,2.422-0.705,4.303c-0.574,3.875-1.992,12.654,0.565,16.083
		c2.458,3.294,17.858,6.185,15.968,11.432c-1.389,3.859-14.674,2.429-18.42,5.721c-10.38,9.125-7.456,27.358,5.077,31.842
		c8.562,3.063,17.721,3.652,25.572,8.335c-10.805,3.525-33.678-7.566-37.925,6.105c-1.791,5.766-1.494,11.738-2.231,17.653
		c-0.551,4.42-2.463,8.484-2.076,12.991c0.736,8.574,7.265,12.071,15.115,13.437c7.035,1.223,33.001-1.175,34.894,7.927
		c-7.218,5.181-19.432,1.592-27.591,0.792c-6.571-0.645-19.113-2.584-24.726,2.048c-4.386,3.623-5.615,12.156-5.597,17.443
		c0.026,8.428-0.665,17.912,0.253,26.344c1.058,9.711,4.432,17.401,13.384,22.13c9.436,4.983,20.52,4.418,30.633,6.793
		c6.49,1.525,16.013,2.625,19.755,8.607c-4.231,6.652-23.745,2.663-30.458,2.741c-6.35,0.074-12.609,1.324-18.966,1.038
		c-4.234-0.19-5.941-1.563-8.809,2.723c-3.902,5.829-2.407,14.803-2.986,21.416c-1.781,20.37-0.61,40.421,0.552,60.757
		c1.267,22.178,3.431,43.24,8.506,64.974c4.485,19.212,14.244,31.401,32.581,38.668c8.421,3.337,16.25,5.632,25.106,7.4
		c5.527,1.103,10.228,2.111,9.072,8.648c-0.683,3.868-40.058,4.782-44.54,4.909c-14.328,0.405-29.515,0.702-44.183,0.629
		c-6.576-0.033-14.07,0.201-19.515-4.086c-5.636-4.437-4.632-11.866-4.633-18.713c-0.009-51.728,2.175-103.476,2.183-155.147
		c0.001-7.052-0.509-14.627,1.775-21.373c2.08-6.146,6.002-9.558,6.411-16.215c1.26-20.526-0.085-41.547,0-62.073
		c0.013-3.042-0.564-7.723,0.931-10.533c1.419-2.664,5.13-3.528,6.597-5.948c3.042-5.016,0.65-13.656,0.656-19.233
		c0.01-9.076-0.972-18.947,1.609-27.721c1.949-6.624,4.715-10.296,4.422-17.453c-0.362-8.855-2.723-23.092,0.477-31.548
		c2.572-6.8,7.71-6.102,7.68-14.42c-0.028-7.672-0.953-16.135,1.436-23.537c2.326-7.206,8.421-12.534,12.234-18.904
		c2.684-4.482,6.658-12.268,5.725-17.462c-0.959-5.344-6.799-10.145,0.247-14.238c3.121,2.156,0.235,6.082,2.711,9.055
		c1.29,1.55,3.603-0.076,4.411,1.886c0.63,1.529-1.633,8.658-2.054,10.746c-0.839,4.153-2.744,8-3.413,12.192
		c-0.473,2.963,1.531,4.765,2.041,7.417C166.669,72.786,166.715,73.807,166.639,74.758z"/>
	<path style="fill:#9CADB7;" d="M344.527,74.758c-0.103,1.275-0.427,2.422-0.705,4.303c-0.574,3.875-1.992,12.654,0.565,16.083
		c2.457,3.294,17.858,6.185,15.968,11.432c-1.389,3.859-14.674,2.429-18.42,5.721c-10.38,9.125-7.456,27.358,5.077,31.842
		c8.562,3.063,17.721,3.652,25.572,8.335c-10.805,3.525-33.678-7.566-37.925,6.105c-1.791,5.766-1.494,11.738-2.231,17.653
		c-0.551,4.42-2.463,8.484-2.077,12.991c0.736,8.574,7.265,12.071,15.115,13.437c7.035,1.223,33.001-1.175,34.894,7.927
		c-7.218,5.181-19.432,1.592-27.591,0.792c-6.571-0.645-19.113-2.584-24.726,2.048c-4.386,3.623-5.615,12.156-5.597,17.443
		c0.026,8.428-0.665,17.912,0.254,26.344c1.057,9.711,4.432,17.401,13.384,22.13c9.436,4.983,20.52,4.418,30.633,6.793
		c6.49,1.525,16.013,2.625,19.755,8.607c-4.231,6.652-23.745,2.663-30.458,2.741c-6.35,0.074-12.609,1.324-18.966,1.038
		c-4.234-0.19-5.941-1.563-8.809,2.723c-3.902,5.829-2.408,14.803-2.986,21.416c-1.781,20.37-0.61,40.421,0.552,60.757
		c1.267,22.178,3.431,43.24,8.505,64.974c4.485,19.212,14.244,31.401,32.581,38.668c8.421,3.337,16.25,5.632,25.106,7.4
		c5.525,1.103,10.227,2.111,9.072,8.648c-0.683,3.868-40.058,4.782-44.54,4.909c-14.328,0.405-29.515,0.702-44.183,0.629
		c-6.576-0.033-14.07,0.201-19.515-4.086c-5.636-4.437-4.632-11.866-4.633-18.713c-0.009-51.728,2.175-103.476,2.183-155.147
		c0.001-7.052-0.509-14.627,1.773-21.373c2.08-6.146,6.002-9.558,6.412-16.215c1.26-20.526-0.085-41.547,0-62.073
		c0.013-3.042-0.564-7.723,0.931-10.533c1.419-2.664,5.13-3.528,6.598-5.948c3.042-5.016,0.65-13.656,0.656-19.233
		c0.01-9.076-0.972-18.947,1.609-27.721c1.949-6.624,4.715-10.296,4.422-17.453c-0.362-8.855-2.723-23.092,0.477-31.548
		c2.572-6.8,7.71-6.102,7.68-14.42c-0.028-7.672-0.953-16.135,1.436-23.537c2.326-7.206,8.421-12.534,12.234-18.904
		c2.684-4.482,6.658-12.268,5.725-17.462c-0.959-5.344-6.799-10.145,0.247-14.238c3.121,2.156,0.235,6.082,2.711,9.055
		c1.29,1.55,3.603-0.076,4.411,1.886c0.63,1.529-1.633,8.658-2.055,10.746c-0.838,4.153-2.744,8-3.413,12.192
		c-0.473,2.963,1.531,4.765,2.041,7.417C344.557,72.786,344.603,73.807,344.527,74.758z"/>
</g>
<path style="fill:#759CAF;" d="M251.641,336.759c-4.926,1.067-10.427,0.783-15.279,0.546c-4.181-0.204-10.274-2.175-13.1,1.36
	c-1.808,2.262-1.336,11.83-1.127,14.758c0.534,7.497,4.39,5.14,10.557,4.59c12.67-1.132,24.789,0.572,37.41,0.574
	c5.089,0.001,10.944,1.456,15.66,0.015c5.883-1.797,4.87-5.302,5.149-10.703c0.379-7.309,1.597-11.563-6.802-12.184
	C274.391,334.997,264.439,336.213,251.641,336.759z"/>
<path d="M404.262,467.13c-0.148-10.714-1.028-21.321-1.054-32.067c-0.029-12.336-0.091-24.673-0.147-37.009
	c-0.051-11.174,0.073-22.516-0.596-33.654c-0.731-12.165-0.557-24.397-0.601-36.625c-0.031-8.586-0.284-18.697-3.048-26.884
	c-0.75-2.222-1.939-3.694-3.412-4.671c0.009-0.067,0.027-0.126,0.033-0.194c0.538-6.768,0.225-13.728,0.13-20.52
	c-0.085-6.115,0.972-11.717,0.158-17.867c-0.832-6.278-0.119-12.546-0.983-18.888c-0.768-5.636-1.43-11.174-1.857-16.854
	c-0.434-5.774-2.723-9.02-6.281-10.74c0.156-0.265,0.274-0.541,0.339-0.805c1.962-7.905,1.172-16.716,0.537-24.741
	c-0.588-7.433-2.255-14.49-3.72-21.718c-0.887-4.377-1.898-7.686-4.574-9.765c1.926-2.268,1.523-5.278,1.499-8.289
	c-0.029-3.75-0.012-7.503-0.099-11.252c-0.148-6.352-1.046-14.558-3.492-20.444c-1.096-2.637-3.153-4.028-5.557-4.813
	c1.561-3.943,0.398-9.879,0.334-13.852c-0.082-5.106-0.973-10.728-2.644-15.566c-0.557-1.611-1.48-2.89-2.638-3.902
	c-0.678-1.446-1.487-2.81-2.309-4.247c-2.153-3.765-3.98-7.574-6.334-11.217c-2.353-3.643-4.036-11.246-7.864-14.73
	c0.055-0.035,0.11-0.063,0.165-0.099c0.643-0.421,1.199-1.079,1.669-1.862c0.724-0.922,1.3-1.969,1.67-2.892
	c1.285-3.212,0.852-7.71-1.292-10.468c-1.245-1.602-2.771-2.594-4.384-3.08c1.024-2.21,0.495-4.79,0.394-7.18
	c-0.057-1.327-0.088-2.658-0.115-3.99c0.031-4.728-0.002-9.456-0.013-14.184c-0.005-2.751-4.277-2.747-4.269,0
	c-0.005,2.504-0.019,5.006-0.025,7.509c-0.017,2.271-0.041,4.542-0.063,6.814c-0.004,0.406,0.027,0.941,0.072,1.55
	c-0.022,2.151-0.154,4.339,0.104,6.441c-0.098,0.595-0.254,1.103-0.497,1.466c-0.355,0.53-0.441,1.049-0.357,1.518
	c-3.623,0.954-6.766,4.065-7.257,8.306c-0.465,4.015,1.692,7.974,4.889,10.042c-3.069,2.083-5.668,5.626-7.327,8.093
	c-4.46,6.634-6.958,14.586-10.412,21.715c-0.17,0.351-0.293,0.724-0.362,1.102c-0.856,0.906-1.546,1.99-1.996,3.291
	c-1.671,4.838-2.562,10.459-2.644,15.566c-0.064,3.974-1.227,9.908,0.334,13.852c-2.403,0.785-4.461,2.176-5.557,4.813
	c-2.446,5.887-3.344,14.092-3.492,20.444c-0.088,3.749-0.07,7.502-0.099,11.252c-0.024,3.011-0.427,6.02,1.499,8.289
	c-2.676,2.079-3.687,5.388-4.574,9.765c-1.466,7.228-3.132,14.285-3.72,21.718c-0.635,8.025-1.426,16.836,0.537,24.741
	c0.065,0.265,0.184,0.54,0.339,0.805c-3.558,1.72-5.846,4.967-6.281,10.74c-0.428,5.679-1.089,11.218-1.857,16.854
	c-0.864,6.342-0.153,12.608-0.983,18.888c-0.814,6.151,0.243,11.754,0.158,17.867c-0.095,6.791-0.408,13.752,0.13,20.52
	c0.005,0.07,0.025,0.128,0.033,0.194c-1.472,0.976-2.662,2.448-3.412,4.671c-2.763,8.187-3.016,18.298-3.048,26.884
	c-0.008,2.068,1.057,4.824-1.258,6.002c-1.073,0.546-2.329,0.548-3.533,0.539c-8.99-0.069-17.979-0.306-26.967-0.479
	c0-0.003,0-0.008,0-0.011c-0.092,0.002-0.182,0.003-0.273,0.005c-0.092-0.002-0.182-0.003-0.273-0.005c0,0.003,0,0.008,0,0.011
	c-8.988,0.172-17.977,0.41-26.967,0.479c-1.204,0.01-2.46,0.007-3.533-0.539c-2.316-1.178-1.251-3.933-1.258-6.002
	c-0.031-8.586-0.284-18.697-3.048-26.884c-0.75-2.222-1.939-3.694-3.412-4.671c0.009-0.067,0.027-0.125,0.033-0.194
	c0.538-6.768,0.225-13.728,0.13-20.52c-0.085-6.115,0.972-11.717,0.158-17.867c-0.831-6.278-0.119-12.546-0.983-18.888
	c-0.768-5.636-1.43-11.174-1.857-16.854c-0.434-5.774-2.723-9.02-6.281-10.74c0.156-0.265,0.274-0.541,0.339-0.805
	c1.962-7.905,1.172-16.716,0.537-24.741c-0.588-7.433-2.255-14.49-3.72-21.718c-0.887-4.377-1.898-7.686-4.574-9.765
	c1.926-2.268,1.523-5.278,1.499-8.289c-0.029-3.75-0.012-7.503-0.1-11.252c-0.148-6.352-1.046-14.558-3.492-20.444
	c-1.096-2.637-3.153-4.028-5.557-4.813c1.561-3.943,0.398-9.879,0.334-13.852c-0.082-5.106-0.973-10.728-2.644-15.566
	c-0.45-1.302-1.14-2.386-1.996-3.291c-0.071-0.379-0.193-0.752-0.363-1.102c-3.454-7.13-5.953-15.08-10.412-21.715
	c-1.659-2.468-4.258-6.01-7.327-8.093c3.198-2.067,5.354-6.027,4.889-10.042c-0.491-4.241-3.634-7.352-7.257-8.306
	c0.084-0.469-0.002-0.989-0.357-1.518c-0.242-0.362-0.398-0.871-0.497-1.466c0.258-2.102,0.126-4.29,0.104-6.441
	c0.045-0.609,0.076-1.144,0.072-1.55c-0.023-2.271-0.046-4.542-0.063-6.814c-0.007-2.504-0.02-5.007-0.025-7.509
	c0.008-2.747-4.263-2.751-4.269,0c-0.01,4.728-0.044,9.456-0.013,14.184c-0.025,1.331-0.058,2.663-0.115,3.99
	c-0.1,2.39-0.629,4.97,0.394,7.18c-1.613,0.486-3.139,1.479-4.384,3.08c-2.144,2.758-2.577,7.255-1.292,10.468
	c0.37,0.924,0.946,1.97,1.67,2.892c0.469,0.782,1.026,1.439,1.669,1.862c0.055,0.036,0.11,0.064,0.165,0.099
	c-3.828,3.484-5.51,11.087-7.864,14.73c-2.354,3.643-4.181,7.452-6.334,11.217c-0.822,1.436-1.632,2.8-2.309,4.247
	c-1.157,1.013-2.08,2.291-2.638,3.902c-1.671,4.838-2.562,10.459-2.644,15.566c-0.064,3.974-1.227,9.908,0.334,13.852
	c-2.403,0.785-4.461,2.176-5.557,4.813c-2.446,5.887-3.343,14.092-3.492,20.444c-0.088,3.749-0.07,7.502-0.1,11.252
	c-0.024,3.011-0.427,6.02,1.499,8.289c-2.676,2.079-3.687,5.388-4.574,9.765c-1.466,7.228-3.132,14.285-3.72,21.718
	c-0.635,8.025-1.426,16.836,0.537,24.741c0.065,0.265,0.184,0.54,0.339,0.805c-3.558,1.72-5.846,4.967-6.281,10.74
	c-0.428,5.679-1.089,11.218-1.857,16.854c-0.864,6.342-0.153,12.608-0.983,18.888c-0.814,6.151,0.243,11.754,0.158,17.867
	c-0.095,6.791-0.408,13.752,0.13,20.52c0.005,0.07,0.025,0.128,0.033,0.194c-1.472,0.976-2.661,2.448-3.412,4.671
	c-2.763,8.187-3.016,18.298-3.048,26.884c-0.044,12.228,0.13,24.46-0.601,36.625c-0.669,11.137-0.545,22.479-0.596,33.654
	c-0.057,12.336-0.118,24.673-0.147,37.009c-0.025,10.744-0.905,21.353-1.054,32.067c-0.133,9.641-2.438,19.22-1.734,28.913
	c0.309,4.252-0.327,9.413,3.811,11.896c4.477,2.687,11.006,3.183,16.098,3.552c6.38,0.463,12.842,0.681,19.23,0.349
	c2.183-0.113,5.03-0.099,7.767-0.411c2.462,0.141,4.925,0.234,7.384,0.282c4.67,0.091,9.502-0.475,14.206-0.595
	c1.311-0.034,2.549-0.079,3.749-0.191c3.49,0.846,7.72,0.762,10.707,0.917c6.389,0.331,12.85,0.112,19.23-0.349
	c5.092-0.369,11.621-0.865,16.098-3.552c4.138-2.484,3.503-7.644,3.811-11.896c0.705-9.693-1.601-19.272-1.734-28.913
	c-0.148-10.714-1.028-21.321-1.054-32.067c-0.017-7.413-0.056-14.827-0.088-22.241c0.071-0.096,0.141-0.196,0.202-0.315
	c5.067-9.796,11.211-19.203,17.01-28.572c2.496-4.033,5.171-7.953,7.602-12.024c1.203-2.014,2.351-4.063,3.38-6.172
	c0.473-0.968,0.792-2.141,1.544-2.942c0.331-0.353,0.677-0.559,1.037-0.692c0.36,0.133,0.706,0.339,1.037,0.692
	c0.752,0.801,1.072,1.974,1.544,2.942c1.029,2.108,2.177,4.157,3.38,6.172c2.433,4.073,5.107,7.992,7.602,12.024
	c5.797,9.369,11.941,18.775,17.01,28.572c0.061,0.119,0.131,0.219,0.202,0.315c-0.033,7.413-0.071,14.827-0.088,22.241
	c-0.025,10.744-0.905,21.353-1.054,32.067c-0.133,9.641-2.438,19.22-1.734,28.913c0.309,4.252-0.327,9.413,3.811,11.896
	c4.477,2.687,11.006,3.183,16.098,3.552c6.38,0.463,12.842,0.681,19.23,0.349c2.987-0.155,7.217-0.071,10.707-0.917
	c1.199,0.113,2.438,0.158,3.749,0.191c4.705,0.12,9.536,0.685,14.207,0.595c2.459-0.048,4.921-0.141,7.384-0.282
	c2.737,0.313,5.584,0.299,7.767,0.411c6.389,0.331,12.85,0.112,19.23-0.349c5.092-0.369,11.621-0.865,16.098-3.552
	c4.138-2.484,3.503-7.644,3.811-11.896C406.7,486.349,404.396,476.771,404.262,467.13z M185.064,80.727
	c0.216,0.142,0.455,0.227,0.703,0.267c2.045,2.876,2.099,7.324,2.365,10.96c0.348,4.752-0.087,9.598,0.111,14.376
	c0.027,0.656,0.026,1.351,0.087,2.032c-0.712-0.067-1.419-0.122-2.105-0.177c-0.758-0.06-1.494-0.069-2.22-0.057
	c0.096-9.436,0.194-18.883-0.056-28.296C184.299,80.166,184.669,80.466,185.064,80.727z M161.799,38.216
	c-0.187-1.268-0.071-2.637,0.397-3.831c0.515-0.88,1.243-1.656,1.999-2.466c0.152-0.096,0.294-0.203,0.461-0.283
	c5.983-2.849,9.785,5.674,5.971,9.796c-0.841,0.91-2.641,1.773-4.33,1.948c-0.05-0.045-0.095-0.094-0.153-0.133
	c-0.829-0.569-1.705-0.551-2.46-1.234C162.7,41.123,161.986,39.49,161.799,38.216z M145.993,91.954
	c0.273-3.716,0.32-8.28,2.498-11.147c-0.291,9.056-0.394,18.134-0.379,27.223c-0.593,0.08-1.191,0.172-1.8,0.288
	c-0.175,0.015-0.343,0.027-0.517,0.044c0.061-0.681,0.06-1.375,0.087-2.032C146.08,101.553,145.645,96.706,145.993,91.954z
	 M138.362,140.013c-0.051-6.462,0.034-12.621,1.197-19.006c0.515-2.828,0.331-5.122,3.169-6.403c1.551-0.7,3.521-1.076,5.405-1.266
	c0.067,12.402,0.268,24.813,0.351,37.186c-0.387,0.12-0.792,0.248-1.175,0.362c-2.924,0.224-5.821,0.588-8.623,1.001
	c-0.219,0.033-0.417,0.076-0.626,0.113C139.324,148.401,138.39,143.423,138.362,140.013z M123.14,262.187
	c0.666-10.788,0.925-21.461,2.003-32.229c0.481-4.811-1.222-12.752,4.892-14.003c1.053-0.215,2.119-0.323,3.193-0.374
	c0.002,11.378,0.004,22.758,0.003,34.136c-0.002,14.848,0.001,29.696,0.007,44.544c-2.906,0.311-6.266,0.009-9.44,0.128
	c0.302-5.402,0.033-10.874,0.047-16.277C123.858,272.805,122.816,267.438,123.14,262.187z M133.19,422.618
	c-0.056,27.185-0.555,54.44-0.276,81.644c-6.248-0.136-13.673-0.065-18.857-2.836c-0.685-2.929-0.461-6.632-0.475-9.401
	c-0.021-3.933,0.322-8.061,0.493-12.009c0.131-3.022,0.67-6.111,0.984-9.131c0.426-4.091-0.029-8.176,0.386-12.275
	c1.707-16.816,0.716-34.093,0.637-51.012c-0.076-16.646,0.746-33.235,0.919-49.808c0.169-16.198-0.763-32.542,1.337-48.614
	c0.278-2.129,0.488-5.11,1.939-6.746c1.349-1.521,2.891-1.39,4.871-1.417c2.762-0.036,5.413-0.094,8.091-0.271
	C133.255,341.367,133.272,381.993,133.19,422.618z M135.964,215.546c2.322,0.022,4.653,0.107,6.932-0.237
	c1.857-0.28,3.726-0.405,5.601-0.475c0.001,11.627,0.004,23.254,0.002,34.881c-0.002,14.539,0.001,29.078,0.007,43.618
	c-4.219-0.086-8.455,0.151-12.53,0.606C135.971,267.808,135.967,241.677,135.964,215.546z M148.457,422.618
	c-0.056,27.359-0.555,54.787-0.263,82.165c-0.533,0.02-1.067,0.033-1.599,0.06c-3.25-0.241-6.522-0.21-9.774-0.429
	c-0.18-0.012-0.369-0.02-0.552-0.031c0.21-23.286-0.188-46.611-0.235-69.878c-0.059-29.177-0.046-58.354-0.05-87.531l-0.008-46.459
	c0.181-0.019,0.359-0.028,0.541-0.048c2.368-0.255,4.766-0.387,7.174-0.49c0.418,0.275,0.943,0.379,1.531,0.164
	c0.267-0.097,0.542-0.178,0.817-0.26c0.822-0.032,1.646-0.064,2.468-0.1C148.523,340.726,148.541,381.672,148.457,422.618z
	 M148.496,209.161c-4.195,0.047-8.317,0.354-12.551,0.29c-1.381-0.021-2.696,0.02-3.951,0.122c-0.023-0.253-0.081-0.512-0.186-0.775
	c0.001-0.005,0.001-0.009,0.001-0.014c0.117-0.404,0.127-0.806,0.032-1.21c-0.049-1.74-0.47-3.552-0.571-5.321
	c-0.226-3.97-0.734-7.695-0.421-11.679c0.497-6.311,0.515-12.997,1.764-19.216c0.582-2.896,1.274-5.721,1.861-8.632
	c0.969-4.804,4.688-4.915,8.851-5.266c1.696-0.143,3.431-0.246,5.181-0.347c0.003,1.517,0.015,3.035,0.013,4.551
	C148.499,177.497,148.495,193.329,148.496,209.161z M151.16,123.522c-0.004-3.448,0.02-6.902,0.05-10.359
	c2.667-0.073,5.149-0.236,7.544-0.856c0.275-0.003,0.551-0.007,0.824-0.011c1.89-0.031,3.687-0.166,5.477-0.262
	c0.053,12.525,0.252,25.059,0.342,37.558c-2.21,0.024-4.405,0.111-6.519,0.139c-2.556,0.033-5.133,0.067-7.685,0.266
	C151.181,141.174,151.173,132.348,151.16,123.522z M151.231,214.89c1.904-0.013,3.815-0.124,5.665-0.109
	c2.724,0.023,5.617,0.228,8.52,0.309c0.001,11.542,0.004,23.085,0.002,34.627c-0.002,14.692,0.001,29.384,0.007,44.077
	c-1.351-0.036-2.698-0.083-4.035-0.158c-2.079-0.117-4.39-0.117-6.73,0.068c-1.132-0.119-2.274-0.2-3.418-0.264L151.231,214.89z
	 M165.377,422.618c-0.056,27.336-0.548,54.74-0.256,82.095c-1.877,0.131-3.747,0.227-5.592,0.136
	c-2.705-0.131-5.361-0.176-7.996-0.148c0.216-23.392-0.184-46.824-0.232-70.197c-0.059-29.177-0.046-58.354-0.051-87.531
	l-0.008-47.336c1.625-0.097,3.246-0.225,4.855-0.413c3.252,0.251,6.487,0.734,9.329,0.945
	C165.442,340.987,165.46,381.802,165.377,422.618z M165.417,208.726c-3.318,0.044-6.62,0.309-9.572,0.507
	c-0.246,0.016-0.493,0.033-0.742,0.048c-0.924-0.021-1.845-0.037-2.758-0.074c-0.373-0.015-0.743-0.019-1.115-0.027
	c-0.001-11.842-0.003-23.685-0.005-35.527c-0.001-5.566-0.014-11.133-0.022-16.699c4.036-0.249,8.1-0.585,11.937-1.464
	c0.758,0.021,1.52,0.032,2.283,0.037c0.008,2.046,0.021,4.094,0.017,6.138C165.419,177.351,165.415,193.038,165.417,208.726z
	 M165.038,107.398c-1.804,0.075-3.62,0.167-5.459,0.201c-2.964,0.056-5.628-0.013-8.317,0.136c0.1-9.673,0.194-19.359-0.089-29.004
	c0.204-0.087,0.403-0.179,0.624-0.25c0.915-0.295,1.829-0.486,2.743-0.625c3.616,0.605,7.343,0.69,10.972,0.38
	C165.156,87.934,165.03,97.66,165.038,107.398z M161.101,73.745c-2.809-0.751-6.015-1.011-8.985-0.573
	c0.533-0.905,0.99-1.739,1.351-2.365c1.829-3.174,3.905-6.151,5.764-9.285c1.82-3.07,2.66-7.413,5.109-10.049
	c1.615-1.739,2.617-1.504,4.615,0.095c1.083,0.867,2.066,2.435,2.918,3.506c2.615,3.287,3.916,7.065,5.543,10.874
	c0.847,1.982,1.6,4.539,2.545,7.021c-1.733-0.073-3.497,0.061-5.173,0.371c-2.305-0.345-4.704-0.31-6.944-0.081
	C165.615,73.491,163.357,73.602,161.101,73.745z M168.081,123.522c-0.005-3.855,0.023-7.717,0.058-11.581
	c1.048,0,2.11,0.038,3.204,0.151c1.221,0.126,2.367,0.148,3.492,0.069c1.948,0.563,3.947,0.801,6.051,0.92
	c0.063,12.537,0.267,25.082,0.35,37.59c-1.388,0-2.774,0.04-4.149,0.144c-2.859-0.85-5.907-1.142-8.973-1.209
	C168.1,140.911,168.093,132.216,168.081,123.522z M168.15,215.122c2.294-0.025,4.563-0.192,6.725-0.661
	c0.056,0.004,0.111,0.009,0.167,0.013c2.065,0.178,4.135,0.224,6.202,0.258c0.001,11.662,0.004,23.323,0.003,34.985
	c-0.002,14.614,0.001,29.229,0.007,43.843c-1.646,0.131-3.282,0.303-4.89,0.557c-2.722-0.159-5.465-0.207-8.2-0.262
	C168.159,267.611,168.155,241.366,168.15,215.122z M181.206,422.618c-0.056,27.443-0.551,54.958-0.251,82.419
	c-2.737-0.389-5.448-0.66-8.316-0.702c-1.39-0.02-2.789,0.049-4.189,0.142c0.213-23.318-0.18-46.673-0.228-69.972
	c-0.059-29.177-0.046-58.354-0.051-87.531l-0.008-46.668c3.212,0.079,6.628-0.148,9.701-1.1c1.125,0.134,2.257,0.231,3.391,0.315
	C181.27,340.553,181.289,381.585,181.206,422.618z M181.244,209.223c-2.146,0.07-4.336,0.059-6.486,0.268
	c-2.091-0.458-4.333-0.667-6.609-0.737c-0.002-11.7-0.003-23.402-0.005-35.102c-0.001-6.053-0.015-12.104-0.023-18.157
	c0.798-0.024,1.593-0.059,2.385-0.12c3.451,0.836,7.097,1.212,10.75,1.468c0.004,1.608,0.016,3.216,0.014,4.822
	C181.246,177.517,181.243,193.37,181.244,209.223z M180.864,108.282c-0.803,0.052-1.612,0.102-2.442,0.121
	c-3.427-0.968-6.82-1.146-10.239-1.096c0.098-9.765,0.176-19.543-0.131-29.278c2.748-0.174,5.497-0.016,8.158-0.538
	c1.705,0.15,3.416,0.3,5.127,0.727C180.97,88.214,180.848,98.241,180.864,108.282z M183.908,123.522
	c-0.004-3.436,0.019-6.878,0.049-10.322c2.402,0.088,5.312,0.444,7.439,1.405c2.84,1.281,2.654,3.575,3.169,6.403
	c1.163,6.384,1.248,12.545,1.197,19.006c-0.027,3.409-0.961,8.388,0.3,11.989c-0.21-0.038-0.407-0.082-0.626-0.113
	c-3.717-0.548-7.601-1.014-11.494-1.17C183.93,141.654,183.921,132.588,183.908,123.522z M183.979,214.784
	c2.428,0.056,4.85,0.164,7.251,0.526c2.172,0.327,4.392,0.263,6.606,0.238c0.001,11.389,0.004,22.779,0.002,34.169
	c-0.002,14.73,0.001,29.461,0.007,44.19c-4.509-0.49-9.205-0.706-13.855-0.513C183.987,267.191,183.983,240.987,183.979,214.784z
	 M197.797,422.618c-0.056,27.231-0.545,54.532-0.26,81.783c-0.076,0.004-0.157,0.008-0.234,0.013
	c-3.861,0.26-7.751,0.141-11.597,0.579c-0.427,0.049-0.92,0.133-1.436,0.229c0.228-23.565-0.172-47.171-0.22-70.718
	c-0.059-29.177-0.046-58.354-0.05-87.531c-0.002-15.759-0.004-31.519-0.008-47.278c4.556,0.237,9.139,0.288,13.616,0.772
	c0.081,0.009,0.159,0.013,0.239,0.022C197.862,341.197,197.879,381.907,197.797,422.618z M183.978,209.156
	c-0.002-11.834-0.003-23.67-0.005-35.505c-0.001-5.545-0.014-11.09-0.022-16.635c2.315,0.136,4.615,0.256,6.848,0.444
	c4.163,0.35,7.882,0.462,8.851,5.266c0.587,2.911,1.279,5.736,1.861,8.632c1.248,6.22,1.267,12.904,1.764,19.216
	c0.313,3.983-0.195,7.709-0.42,11.679c-0.1,1.768-0.522,3.582-0.571,5.321c-0.096,0.403-0.085,0.807,0.032,1.21
	c0,0.005,0.001,0.009,0.001,0.014c-0.105,0.264-0.162,0.523-0.186,0.775c-1.255-0.103-2.57-0.143-3.951-0.122
	C193.391,209.523,188.747,209.119,183.978,209.156z M200.57,215.572c1.184,0.044,2.361,0.145,3.52,0.382
	c6.115,1.251,4.411,9.192,4.892,14.003c1.077,10.768,1.337,21.442,2.003,32.229c0.324,5.251-0.718,10.619-0.704,15.926
	c0.014,5.403-0.255,10.875,0.046,16.277c-3.284-0.123-6.772,0.208-9.745-0.159C200.578,268.011,200.574,241.792,200.57,215.572z
	 M220.07,501.425c-5.28,2.822-12.879,2.697-19.198,2.845c0.207-23.249-0.183-46.536-0.23-69.766
	c-0.06-29.177-0.046-58.354-0.051-87.531c-0.002-15.416-0.004-30.831-0.008-46.248c2.782,0.193,5.528,0.25,8.393,0.287
	c1.98,0.026,3.521-0.105,4.871,1.417c1.451,1.637,1.661,4.617,1.939,6.746c2.099,16.072,1.168,32.415,1.337,48.614
	c0.174,16.572,0.996,33.161,0.919,49.808c-0.079,16.919-1.07,34.196,0.637,51.012c0.416,4.099-0.039,8.184,0.386,12.275
	c0.314,3.019,0.852,6.109,0.984,9.131c0.171,3.948,0.514,8.076,0.493,12.009C220.529,494.793,220.754,498.496,220.07,501.425z
	 M223.677,339.911c0.416-1.654,2.728-1.611,4.05-1.546c5.518,0.266,11.04,0.462,16.562,0.614c1.934,0.053,3.869,0.088,5.804,0.113
	c-0.187,2.387-0.453,4.766-0.703,7.145c-0.007,0-0.012-0.002-0.017-0.002c-4.925,0.013-9.819,0.409-14.737,0.434
	c-3.515,0.017-7.099-0.059-10.573,0.502c-0.013-1.041-0.046-2.082-0.052-3.125C224.001,342.929,223.417,340.943,223.677,339.911z
	 M224.2,355.458c-0.055-2.017-0.07-4.035-0.102-6.051c7.989,1.401,16.982-0.085,24.991-0.099c-0.04,0.438-0.085,0.874-0.12,1.312
	c-0.104,1.285-0.447,2.89-0.449,4.377c-1.924-0.012-3.847-0.033-5.771-0.037C241.638,354.957,224.183,354.801,224.2,355.458z
	 M224.577,364.4c-0.087-1.45-0.144-2.903-0.207-4.356c4.968,1.403,11.182,0.571,15.927,0.611c1.144,0.01,2.296,0.017,3.451,0.026
	c-1.435,1.702-2.639,3.685-3.676,5.39c-2.21,3.635-4.553,7.162-6.89,10.721c-2.785,4.243-4.396,9.174-7.297,13.403
	c-0.247,0.36-0.49,0.731-0.731,1.103C225.139,382.329,225.112,373.3,224.577,364.4z M247.519,368.603
	c-2.833,5.031-6.193,9.709-9.222,14.609c-2.616,4.233-4.824,8.783-7.566,12.981c-1.825,2.795-3.808,5.426-5.533,8.206
	c-0.007-1.489-0.011-2.977-0.017-4.465c1.41-2.684,2.495-5.627,4.201-8.129c2.597-3.81,4.056-8.189,6.413-12.111
	c3.824-6.364,8.66-12.273,11.935-18.974c1.55,0.02,3.103,0.05,4.656,0.092C250.565,363.288,249.047,365.891,247.519,368.603z
	 M258.679,348.236c-0.174,2.112-0.568,4.54-0.371,6.792c-0.767,0.007-1.533,0.008-2.301,0.015c-1.216-0.011-2.433-0.013-3.648-0.023
	c0.033-1.746-0.298-3.67-0.243-5.064c0.141-3.61,0.481-7.224,0.471-10.842c2.301,0.016,4.602,0.007,6.905-0.013
	C258.997,342.1,258.925,345.242,258.679,348.236z M286.815,404.4c-1.725-2.78-3.707-5.412-5.533-8.206
	c-2.741-4.198-4.949-8.748-7.566-12.981c-3.028-4.901-6.389-9.579-9.222-14.609c-1.528-2.713-3.046-5.315-4.865-7.79
	c1.553-0.041,3.106-0.072,4.656-0.092c3.276,6.701,8.112,12.612,11.935,18.974c2.355,3.92,3.815,8.3,6.413,12.111
	c1.706,2.502,2.791,5.446,4.201,8.129C286.826,401.424,286.822,402.912,286.815,404.4z M287.437,364.4
	c-0.535,8.9-0.562,17.928-0.578,26.9c-0.241-0.372-0.485-0.743-0.731-1.103c-2.9-4.229-4.51-9.16-7.296-13.403
	c-2.337-3.559-4.68-7.086-6.89-10.721c-1.036-1.705-2.239-3.688-3.676-5.39c1.155-0.009,2.307-0.016,3.451-0.026
	c4.745-0.04,10.959,0.792,15.927-0.611C287.581,361.497,287.524,362.95,287.437,364.4z M287.813,355.458
	c0.017-0.658-17.437-0.502-18.548-0.5c-2.255,0.004-4.51,0.028-6.765,0.044c0.156-2.065-0.068-4.269-0.1-6.185
	c4.566,0.845,9.988,0.138,14.513-0.179c3.4-0.239,7.448,0.289,11.017-0.048C287.895,350.88,287.874,353.169,287.813,355.458z
	 M288.005,344.047c-0.002,0.388-0.016,0.777-0.02,1.166c-3.633-0.431-7.555,0.136-11.074,0.425
	c-4.807,0.393-9.774,0.033-14.502,1.051c0.05-2.568,0.116-5.122-0.438-7.614c7.44-0.097,14.88-0.349,22.316-0.709
	c1.322-0.064,3.634-0.108,4.05,1.546C288.597,340.943,288.012,342.929,288.005,344.047z M386.87,229.957
	c1.077,10.768,1.337,21.442,2.003,32.229c0.324,5.251-0.718,10.619-0.705,15.926c0.014,5.403-0.255,10.875,0.046,16.277
	c-3.174-0.119-6.534,0.182-9.44-0.128c0.005-14.848,0.009-29.696,0.007-44.544c-0.001-11.378,0.001-22.758,0.003-34.136
	c1.074,0.05,2.14,0.158,3.193,0.374C388.092,217.205,386.388,225.147,386.87,229.957z M369.284,114.605
	c2.84,1.281,2.654,3.575,3.169,6.403c1.163,6.384,1.249,12.545,1.197,19.006c-0.027,3.409-0.961,8.388,0.3,11.989
	c-0.21-0.038-0.407-0.082-0.625-0.113c-2.801-0.413-5.699-0.777-8.623-1.001c-0.383-0.115-0.787-0.242-1.175-0.362
	c0.084-12.374,0.286-24.784,0.353-37.186C365.764,113.528,367.733,113.904,369.284,114.605z M366.021,91.954
	c0.348,4.752-0.087,9.598,0.111,14.376c0.027,0.656,0.026,1.351,0.087,2.032c-0.175-0.016-0.344-0.028-0.517-0.044
	c-0.609-0.116-1.207-0.208-1.8-0.288c0.014-9.089-0.088-18.168-0.379-27.223C365.701,83.674,365.748,88.239,366.021,91.954z
	 M347.358,31.636c0.167,0.08,0.309,0.187,0.461,0.283c0.755,0.811,1.484,1.588,1.999,2.466c0.468,1.194,0.584,2.562,0.397,3.831
	c-0.188,1.275-0.901,2.908-1.884,3.797c-0.755,0.683-1.63,0.666-2.46,1.234c-0.058,0.039-0.103,0.088-0.153,0.133
	c-1.689-0.175-3.489-1.039-4.33-1.948C337.573,37.31,341.375,28.785,347.358,31.636z M323.881,91.954
	c0.267-3.636,0.321-8.085,2.365-10.96c0.248-0.04,0.488-0.126,0.703-0.267c0.395-0.26,0.765-0.56,1.114-0.894
	c-0.25,9.412-0.152,18.86-0.056,28.296c-0.726-0.012-1.461-0.003-2.22,0.057c-0.686,0.055-1.394,0.11-2.105,0.177
	c0.061-0.681,0.06-1.375,0.087-2.032C323.968,101.553,323.533,96.706,323.881,91.954z M311.423,346.974
	c-0.004,29.177,0.009,58.354-0.051,87.531c-0.047,23.23-0.439,46.517-0.23,69.766c-6.318-0.147-13.918-0.023-19.198-2.845
	c-0.685-2.929-0.461-6.632-0.475-9.401c-0.021-3.933,0.322-8.061,0.493-12.009c0.131-3.022,0.67-6.111,0.984-9.131
	c0.426-4.091-0.029-8.176,0.386-12.275c1.707-16.816,0.716-34.093,0.637-51.012c-0.076-16.646,0.746-33.235,0.919-49.808
	c0.169-16.198-0.763-32.542,1.337-48.614c0.278-2.129,0.488-5.11,1.939-6.746c1.349-1.521,2.891-1.39,4.871-1.417
	c2.866-0.037,5.612-0.095,8.393-0.287C311.428,316.141,311.426,331.557,311.423,346.974z M311.432,294.23
	c-2.973,0.368-6.461,0.036-9.745,0.159c0.302-5.402,0.033-10.874,0.047-16.277c0.014-5.307-1.028-10.674-0.705-15.926
	c0.666-10.788,0.925-21.461,2.003-32.229c0.481-4.811-1.222-12.752,4.892-14.003c1.16-0.237,2.337-0.338,3.52-0.382
	C311.44,241.792,311.435,268.011,311.432,294.23z M328.014,346.974c-0.004,29.177,0.009,58.354-0.05,87.531
	c-0.048,23.547-0.449,47.152-0.22,70.718c-0.516-0.096-1.009-0.18-1.436-0.229c-3.847-0.439-7.735-0.32-11.597-0.579
	c-0.076-0.005-0.157-0.008-0.234-0.013c0.285-27.251-0.203-54.552-0.26-81.783c-0.083-40.709-0.064-81.419-0.05-122.129
	c0.08-0.009,0.158-0.013,0.239-0.022c4.477-0.482,9.059-0.534,13.616-0.772C328.019,315.455,328.017,331.214,328.014,346.974z
	 M328.023,293.394c-4.649-0.194-9.344,0.023-13.855,0.513c0.005-14.73,0.009-29.461,0.007-44.19
	c-0.001-11.389,0.001-22.779,0.002-34.169c2.214,0.025,4.435,0.089,6.606-0.238c2.401-0.362,4.823-0.47,7.251-0.526
	C328.03,240.987,328.027,267.191,328.023,293.394z M328.041,173.652c-0.001,11.834-0.003,23.67-0.005,35.505
	c-4.769-0.038-9.413,0.366-14.203,0.295c-1.381-0.021-2.696,0.02-3.951,0.122c-0.024-0.253-0.081-0.512-0.186-0.775
	c0-0.005,0.001-0.009,0.001-0.014c0.117-0.404,0.128-0.806,0.032-1.21c-0.049-1.74-0.47-3.552-0.571-5.321
	c-0.226-3.97-0.734-7.695-0.42-11.679c0.497-6.311,0.515-12.997,1.764-19.216c0.582-2.896,1.274-5.721,1.861-8.632
	c0.969-4.804,4.688-4.915,8.851-5.266c2.233-0.188,4.533-0.309,6.848-0.444C328.055,162.562,328.042,168.107,328.041,173.652z
	 M328.071,150.719c-3.893,0.156-7.776,0.622-11.493,1.17c-0.219,0.033-0.417,0.076-0.626,0.113c1.26-3.601,0.326-8.58,0.3-11.989
	c-0.051-6.462,0.034-12.621,1.197-19.006c0.515-2.828,0.331-5.122,3.169-6.403c2.127-0.959,5.036-1.316,7.439-1.405
	c0.031,3.444,0.055,6.886,0.049,10.322C328.092,132.588,328.084,141.654,328.071,150.719z M343.843,346.974
	c-0.004,29.177,0.009,58.354-0.051,87.531c-0.047,23.299-0.441,46.655-0.228,69.972c-1.399-0.093-2.798-0.163-4.189-0.142
	c-2.868,0.041-5.579,0.314-8.316,0.702c0.3-27.462-0.195-54.976-0.251-82.419c-0.083-41.031-0.064-82.063-0.05-123.095
	c1.134-0.085,2.266-0.182,3.391-0.315c3.073,0.952,6.489,1.179,9.701,1.1L343.843,346.974z M343.851,293.855
	c-2.735,0.055-5.479,0.103-8.2,0.262c-1.61-0.253-3.246-0.426-4.89-0.557c0.004-14.614,0.009-29.229,0.007-43.843
	c-0.001-11.662,0.001-23.323,0.003-34.985c2.067-0.035,4.136-0.081,6.202-0.258c0.056-0.004,0.111-0.009,0.167-0.013
	c2.163,0.469,4.431,0.636,6.725,0.661C343.859,241.366,343.855,267.611,343.851,293.855z M343.869,173.652
	c-0.002,11.7-0.003,23.402-0.005,35.102c-2.277,0.071-4.518,0.278-6.609,0.737c-2.149-0.21-4.34-0.198-6.486-0.268
	c0.001-15.853-0.002-31.706-0.025-47.558c-0.002-1.605,0.01-3.215,0.014-4.822c3.653-0.255,7.299-0.632,10.75-1.468
	c0.79,0.061,1.587,0.096,2.385,0.12C343.885,161.548,343.87,167.599,343.869,173.652z M343.899,149.604
	c-3.067,0.069-6.114,0.359-8.973,1.209c-1.374-0.104-2.761-0.144-4.149-0.144c0.083-12.508,0.286-25.053,0.35-37.59
	c2.104-0.119,4.103-0.357,6.051-0.92c1.124,0.08,2.27,0.057,3.492-0.069c1.095-0.112,2.156-0.151,3.204-0.151
	c0.036,3.866,0.064,7.727,0.058,11.581C343.921,132.216,343.914,140.911,343.899,149.604z M343.83,107.307
	c-3.419-0.05-6.812,0.128-10.239,1.096c-0.83-0.02-1.638-0.069-2.442-0.121c0.016-10.04-0.106-20.068-0.473-30.065
	c1.711-0.427,3.422-0.577,5.127-0.727c2.661,0.522,5.41,0.365,8.158,0.538C343.654,87.763,343.732,97.542,343.83,107.307z
	 M337.225,73.344c-1.676-0.31-3.44-0.445-5.173-0.371c0.945-2.482,1.698-5.039,2.545-7.021c1.626-3.809,2.927-7.587,5.543-10.874
	c0.852-1.072,1.836-2.64,2.918-3.506c1.998-1.599,3-1.833,4.616-0.095c2.449,2.634,3.287,6.979,5.109,10.049
	c1.86,3.134,3.935,6.111,5.764,9.285c0.36,0.625,0.819,1.46,1.35,2.365c-2.97-0.438-6.176-0.178-8.985,0.573
	c-2.256-0.143-4.513-0.254-6.742-0.483C341.93,73.033,339.53,72.999,337.225,73.344z M357.473,77.855
	c0.913,0.14,1.828,0.331,2.743,0.625c0.222,0.071,0.42,0.164,0.624,0.25c-0.284,9.646-0.19,19.332-0.09,29.004
	c-2.689-0.15-5.354-0.081-8.317-0.136c-1.839-0.034-3.654-0.126-5.459-0.201c0.008-9.738-0.118-19.465-0.474-29.163
	C350.132,78.545,353.859,78.46,357.473,77.855z M360.763,346.974c-0.004,29.177,0.009,58.354-0.051,87.531
	c-0.048,23.373-0.449,46.805-0.232,70.197c-2.636-0.027-5.291,0.016-7.996,0.148c-1.844,0.089-3.714-0.005-5.592-0.136
	c0.293-27.354-0.201-54.76-0.256-82.095c-0.083-40.815-0.064-81.631-0.05-122.446c2.842-0.211,6.077-0.694,9.329-0.945
	c1.61,0.188,3.23,0.314,4.855,0.413L360.763,346.974z M360.77,293.438c-1.144,0.064-2.286,0.145-3.418,0.264
	c-2.34-0.184-4.651-0.184-6.73-0.068c-1.337,0.075-2.684,0.122-4.035,0.158c0.005-14.692,0.009-29.384,0.007-44.077
	c-0.002-11.542,0.001-23.084,0.002-34.627c2.903-0.081,5.796-0.287,8.52-0.309c1.85-0.015,3.762,0.096,5.665,0.109L360.77,293.438z
	 M360.789,173.652c-0.002,11.842-0.003,23.685-0.005,35.527c-0.372,0.009-0.742,0.012-1.115,0.027
	c-0.911,0.037-1.833,0.053-2.758,0.074c-0.249-0.015-0.497-0.032-0.742-0.048c-2.951-0.199-6.254-0.464-9.572-0.507
	c0.001-15.687-0.002-31.375-0.024-47.062c-0.003-2.044,0.01-4.091,0.017-6.138c0.763-0.005,1.526-0.016,2.283-0.037
	c3.836,0.879,7.9,1.215,11.937,1.463C360.803,162.519,360.79,168.086,360.789,173.652z M360.819,149.999
	c-2.553-0.2-5.13-0.234-7.685-0.266c-2.114-0.027-4.309-0.115-6.519-0.139c0.09-12.499,0.288-25.033,0.342-37.558
	c1.791,0.096,3.588,0.231,5.477,0.262c0.273,0.004,0.55,0.007,0.824,0.011c2.394,0.62,4.877,0.781,7.544,0.856
	c0.032,3.456,0.056,6.91,0.05,10.359C360.84,132.348,360.833,141.174,360.819,149.999z M376.029,346.974
	c-0.004,29.177,0.009,58.354-0.05,87.531c-0.047,23.267-0.444,46.592-0.235,69.878c-0.183,0.011-0.373,0.019-0.552,0.031
	c-3.252,0.219-6.524,0.188-9.774,0.429c-0.533-0.027-1.066-0.04-1.599-0.06c0.292-27.377-0.207-54.806-0.263-82.165
	c-0.083-40.946-0.064-81.892-0.05-122.838c0.822,0.036,1.646,0.069,2.467,0.1c0.275,0.082,0.55,0.163,0.817,0.26
	c0.588,0.214,1.113,0.111,1.531-0.164c2.409,0.104,4.806,0.235,7.174,0.49c0.182,0.02,0.36,0.029,0.541,0.048L376.029,346.974z
	 M376.038,293.939c-4.076-0.455-8.311-0.692-12.53-0.606c0.005-14.539,0.009-29.079,0.007-43.617
	c-0.002-11.627,0.001-23.254,0.002-34.881c1.875,0.07,3.743,0.194,5.601,0.475c2.279,0.344,4.61,0.258,6.932,0.237
	C376.046,241.677,376.043,267.808,376.038,293.939z M363.517,209.161c0.001-15.832-0.002-31.664-0.024-47.497
	c-0.002-1.515,0.01-3.034,0.013-4.551c1.751,0.102,3.485,0.204,5.181,0.347c4.163,0.35,7.882,0.462,8.851,5.266
	c0.587,2.911,1.279,5.736,1.861,8.632c1.249,6.22,1.267,12.904,1.764,19.216c0.313,3.983-0.195,7.709-0.42,11.68
	c-0.1,1.768-0.522,3.582-0.571,5.321c-0.096,0.403-0.085,0.807,0.032,1.21c0,0.005,0.001,0.009,0.001,0.014
	c-0.105,0.264-0.162,0.523-0.186,0.775c-1.255-0.103-2.57-0.143-3.951-0.122C371.833,209.514,367.712,209.208,363.517,209.161z
	 M397.958,501.425c-5.185,2.772-12.609,2.7-18.857,2.836c0.279-27.205-0.222-54.46-0.276-81.644
	c-0.083-40.624-0.064-81.249-0.05-121.874c2.679,0.176,5.329,0.235,8.091,0.271c1.979,0.026,3.521-0.105,4.871,1.417
	c1.451,1.637,1.661,4.617,1.939,6.746c2.1,16.072,1.168,32.415,1.337,48.614c0.172,16.572,0.996,33.161,0.919,49.808
	c-0.079,16.919-1.07,34.196,0.637,51.012c0.416,4.099-0.039,8.184,0.386,12.275c0.314,3.019,0.853,6.109,0.984,9.131
	c0.171,3.948,0.514,8.076,0.493,12.009C398.417,494.793,398.642,498.496,397.958,501.425z"/>
<g>
</g>
<g>
</g>
<g>
</g>
<g>
</g>
<g>
</g>
<g>
</g>
<g>
</g>
<g>
</g>
<g>
</g>
<g>
</g>
<g>
</g>
<g>
</g>
<g>
</g>
<g>
</g>
<g>
</g>
</svg>
