<?xml version="1.0" encoding="iso-8859-1"?>
<!-- Generator: Adobe Illustrator 19.0.0, SVG Export Plug-In . SVG Version: 6.00 Build 0)  -->
<svg version="1.1" id="Layer_1" xmlns="http://www.w3.org/2000/svg" xmlns:xlink="http://www.w3.org/1999/xlink" x="0px" y="0px"
	 viewBox="0 0 511.996 511.996" style="enable-background:new 0 0 511.996 511.996;" xml:space="preserve">
<path style="fill:#E2E2E2;" d="M236.708,197.862c-3.183-0.316-6.358,1.158-9.162,2.794c-11.625,6.786-21.129,17.112-27.032,29.202
	c-1.727,3.535-2.604,7.172-4.065,10.774c-2.527,6.23-5.507,12.228-7.28,18.776c-0.36,1.327-0.61,2.949,0.383,3.899
	c0.691,0.662,1.754,0.742,2.564,1.25c1.551,0.973,1.733,3.122,1.748,4.952c0.022,2.806-0.117,5.99-2.236,7.829
	c-1.411,1.223-3.554,1.682-4.41,3.341c-0.507,0.984-0.421,2.156-0.321,3.258c0.387,4.274,0.773,8.549,1.159,12.824
	c0.35,3.878,0.182,7.545,0.272,11.424c0.202,8.584,0.389,17.169,0.566,25.752c0.353,17.17,0.663,34.34,0.96,51.509
	c0,8.467,0.291,16.945,0.436,25.411c0.073,4.278,0.146,8.555,0.221,12.834c0.063,3.633,0.462,7.376,0.064,11.005
	c-0.354,3.219-1.275,6.376-2.733,9.268c-0.887,1.757-1.984,3.477-2.239,5.429c-0.219,1.68,0.18,3.386,0.369,5.051
	c0.11,0.969,0.414,2.039-0.117,2.92c-1.409,2.335-5.462,3.542-7.935,4.05c-3.295,0.677-6.692,0.606-10.056,0.559
	c-8.479-0.12-16.96-0.067-25.437,0.152c-8.384,0.217-16.785,0.984-25.163,1.06c-17.156,0.157-34.317,0.694-51.47,1.039
	c-7.978,0.162-15.956,0.322-23.934,0.484c-2.912,0.059-5.958,0.088-8.559-1.225s-4.534-4.438-3.502-7.163
	c1.571-4.148,7.914-3.964,10.637-7.466c1.97-2.533,1.432-6.153,0.607-9.254c-0.487-1.834-1.033-3.692-1.132-5.597
	c-0.091-1.77,0.543-2.851,0.997-4.432c0.521-1.815,0.139-4.269,0.167-6.156c0.032-2.147,0.064-4.293,0.096-6.44
	c0.127-8.573,0.255-17.146,0.383-25.719c0.255-17.098,0.51-34.195,0.764-51.292c0-8.481,0.252-16.969,0.379-25.449
	c0.064-4.285,0.127-8.568,0.191-12.853c0.026-1.715-0.138-3.354-0.208-5.035c-0.085-2.068,0.278-4.207,0.267-6.29
	c-0.006-1.098-0.04-2.195-0.101-3.292c-0.109-1.927-0.458-4.116-2.077-5.167c-1.362-0.885-3.136-0.632-4.745-0.402
	c-1.608,0.23-3.434,0.346-4.663-0.717c-0.817-0.706-1.185-1.794-1.447-2.842c-0.514-2.063-0.745-4.262-0.134-6.298
	s2.202-3.873,4.284-4.306c1.988-0.414,4.063,0.467,6.066,0.129c2.618-0.441,4.509-2.925,5.093-5.515
	c0.781-3.459-0.593-6.67-0.485-10.06c0.119-3.72,0.232-7.441,0.328-11.161c0.192-7.574,0.303-15.151,0.193-22.727
	c-0.119-8.263-0.061-16.533-0.5-24.788c-0.203-3.833-0.719-7.534-0.873-11.38c-0.167-4.188-0.335-8.376-0.502-12.565
	c-0.074-1.853-0.443-4.127-2.196-4.729c-0.688-0.237-1.452-0.14-2.15-0.346c-1.004-0.295-1.742-1.188-2.119-2.164
	c-0.376-0.975-0.446-2.039-0.512-3.083c-0.186-2.956-0.372-5.911-0.558-8.867c-0.103-1.641-0.25-3.399-1.286-4.675
	c-1.063-1.309-2.825-1.81-4.495-2.046c-4.096-0.579-8.256-0.007-12.392,0.055c-2.24,0.034-4.422-0.091-6.602-0.598
	c-1.971-0.458-3.725-0.631-5.103-2.32c-1.202-1.473-1.748-3.366-2.156-5.222c-0.51-2.321-0.852-4.715-0.558-7.074
	s1.277-4.699,3.068-6.263c2.025-1.77,4.807-2.359,7.476-2.698c7.293-0.927,14.695-0.465,22.002,0.36
	c2.336,0.263,4.807,0.545,6.954-0.418c2.361-1.059,3.885-3.482,4.505-5.994c0.574-2.325,0.175-4.545,0.369-6.871
	c0.152-1.814,0.449-3.569,0.473-5.429c0.073-5.873-1.207-11.523-1.315-17.333c-0.032-1.685-0.311-3.478-1.429-4.74
	c-0.688-0.777-1.629-1.278-2.437-1.931c-1.621-1.308-2.715-3.373-2.504-5.445c0.211-2.072,1.93-3.996,4.01-4.102
	c1.546-0.078,3.156,0.769,4.589,0.184c1.632-0.666,2.063-2.795,1.876-4.548c-0.185-1.754-0.743-3.562-0.185-5.234
	c0.685-2.055,2.821-3.22,4.836-4.016c1.757-0.693,3.984-1.179,5.35,0.126c1.932,1.846,0.026,4.828,2.877,6.088
	c1.243,0.55,2.686,0.415,3.998,0.06c2.017-0.545,4.081-1.832,4.518-3.874c0.418-1.948-0.728-4.194,0.349-5.871
	c0.693-1.079,2.072-1.477,3.346-1.631c1.534-0.186,3.142-0.131,4.553,0.501c1.411,0.632,2.591,1.922,2.781,3.457
	c0.137,1.107-0.235,2.205-0.482,3.294c-0.248,1.089-0.353,2.309,0.248,3.25c0.464,0.727,1.29,1.166,2.137,1.323
	c1.984,0.367,4.031-0.709,5.285-2.289c1.254-1.58,1.839-3.587,2.201-5.572c0.225-1.235,0.434-2.592,1.37-3.427
	c1.043-0.928,2.605-0.875,3.998-0.769c1.079,0.083,2.171,0.169,3.194,0.522c1.023,0.354,1.984,1.013,2.471,1.979
	c1.32,2.616-1.454,8.02,2.557,9.268c1.319,0.409,2.884-0.245,3.517-1.472c0.795-1.539,0.127-3.41,0.329-5.13
	c0.219-1.878,1.529-3.532,3.202-4.411c1.674-0.879,3.664-1.034,5.524-0.692c1.319,0.243,2.73,0.855,3.227,2.102
	c0.469,1.178-0.032,2.496-0.061,3.763c-0.054,2.349,1.771,4.603,4.082,5.036s4.828-1.005,5.629-3.215
	c0.573-1.583,0.321-3.358,0.782-4.977c0.76-2.67,3.646-4.553,6.395-4.17c2.749,0.381,5.014,2.978,5.018,5.754
	c0.002,1.19-0.342,2.474,0.245,3.509c0.767,1.353,2.812,1.467,4.113,0.618c1.302-0.85,2.016-2.341,2.595-3.784
	s1.118-2.966,2.227-4.056c0.982-0.967,2.325-1.493,3.679-1.755c3.188-0.617,6.292,1.058,5.48,4.581
	c-0.709,3.072,1.69,6.076,4.799,6.569c3.032,0.481,6.252-1.663,6.976-4.646c0.459-1.889,0.087-4.117,1.372-5.576
	c1.061-1.207,2.847-1.386,4.452-1.454c2.079-0.09,4.58,0.092,5.595,1.908c1.027,1.838-0.153,4.238,0.585,6.208
	c0.598,1.597,2.457,2.532,4.143,2.281c1.687-0.251,3.117-1.538,3.781-3.109c0.573-1.356,0.633-2.894,1.268-4.223
	c0.942-1.976,3.2-3.236,5.376-3.003c2.176,0.234,4.114,1.945,4.615,4.075c0.276,1.175,0.147,2.405,0.283,3.603
	c0.137,1.199,0.639,2.48,1.725,3.006c1.353,0.656,3.032-0.182,3.89-1.416c0.857-1.235,1.129-2.767,1.525-4.218
	c0.397-1.449,1.015-2.959,2.285-3.766c1.296-0.826,3.082-0.693,4.348,0.177c1.598,1.099,2.07,2.667,1.793,4.427
	c-0.271,1.714,0.425,3.571,1.942,4.495c1.758,1.07,4.286,0.611,5.557-1.008c1.442-1.839,1.165-4.51,2.228-6.591
	c0.797-1.562,2.411-2.711,4.16-2.825c1.749-0.113,3.555,0.882,4.279,2.478c0.721,1.586,0.364,3.469,0.907,5.125
	c0.6,1.832,2.374,3.217,4.297,3.355c1.922,0.139,3.877-0.978,4.733-2.704c0.931-1.876,0.596-4.193,1.545-6.06
	c0.82-1.613,2.614-2.68,4.422-2.631c1.809,0.048,3.543,1.209,4.275,2.864c0.829,1.869,0.416,4.12,1.291,5.968
	c0.978,2.065,3.505,3.155,5.753,2.744c2.248-0.41,4.13-2.13,5.06-4.218c0.756-1.7,0.978-3.68,2.174-5.103
	c1.828-2.176,5.768-1.958,7.344,0.407c1.411,2.117,0.941,5.162,2.581,7.108c1.648,1.957,5.227,1.681,6.556-0.505
	c1.201-1.976,0.605-4.745,2.045-6.554c1.091-1.372,3.176-1.734,4.777-1.019c1.931,0.862,3.088,3.036,3.095,5.104
	c0.004,0.966-0.375,1.613,0.172,2.492c0.614,0.987,1.935,1.605,3.069,1.611c1.641,0.009,3.217-1.164,3.677-2.739
	c0.407-1.391,0.009-2.957,0.59-4.285c0.823-1.882,3.162-2.463,5.188-2.809c0.877-0.15,1.779-0.3,2.654-0.138
	c0.876,0.163,1.737,0.704,2.025,1.547c0.354,1.034-0.223,2.129-0.409,3.207c-0.354,2.04,0.9,4.245,2.835,4.982
	s4.338-0.072,5.432-1.83c0.981-1.578,0.913-3.614,1.767-5.265c1.205-2.333,4.216-3.432,6.75-2.74
	c2.533,0.691,4.485,2.93,5.187,5.461c0.328,1.183,0.425,2.457,1.053,3.511c1.078,1.807,3.582,2.448,5.556,1.722
	c1.973-0.728,3.388-2.579,3.989-4.595c0.496-1.669,0.585-3.614,1.867-4.791c1.356-1.244,3.454-1.077,5.266-0.755
	c1.784,0.316,3.78,0.868,4.621,2.473c1.046,1.997-0.341,3.851-0.075,5.814c0.243,1.8,2.984,2.721,4.542,2.586
	c1.935-0.166,3.72-1.78,3.85-3.719c0.125-1.866-1.148-3.784-0.445-5.517c0.459-1.135,1.68-1.814,2.893-1.972
	c1.214-0.159,2.437,0.112,3.63,0.381c1.683,0.379,3.602,0.947,4.277,2.535c0.648,1.521-0.173,3.253-0.086,4.904
	c0.097,1.825,1.438,3.517,3.191,4.03c1.754,0.512,3.795-0.195,4.858-1.681c1.109-1.551,1.113-3.621,1.852-5.378
	c0.954-2.272,3.279-3.942,5.741-3.976c2.464-0.034,4.893,1.657,5.582,4.022c0.403,1.385,0.237,2.866,0.419,4.298
	c0.182,1.431,0.881,2.977,2.255,3.418c1.578,0.506,3.259-0.747,3.937-2.26c0.678-1.513,0.664-3.228,0.886-4.871
	c0.222-1.643,0.8-3.4,2.211-4.268c1.749-1.074,4.003-0.375,5.923,0.349c1.46,0.551,3.103,1.289,3.539,2.788
	c0.326,1.117-0.144,2.297-0.185,3.46c-0.077,2.181,1.573,4.298,3.707,4.754c2.134,0.456,4.505-0.798,5.329-2.82
	c0.683-1.677,0.355-3.625,0.982-5.324c0.902-2.44,3.848-3.841,6.368-3.188c2.518,0.653,4.377,3.138,4.499,5.738
	c0.117,2.479-0.405,5.08,2.589,5.99c1.243,0.379,2.598,0.211,3.834-0.191c1.217-0.396,2.493-1.197,2.682-2.463
	c0.126-0.848-0.275-1.689-0.269-2.546c0.009-1.387,1.123-2.584,2.418-3.078c1.296-0.494,2.736-0.415,4.108-0.219
	c1.998,0.285,4.179,0.964,5.155,2.729c0.885,1.598,0.502,3.561,0.216,5.364c-0.257,1.619-0.698,3.716,0.717,4.922
	c0.933,0.795,2.201,1.05,3.416,1.217c1.215,0.167,2.474,0.287,3.545,0.883c1.257,0.701,2.122,2.059,2.227,3.495
	c0.105,1.435-0.554,2.905-1.696,3.781c-1.419,1.09-3.535,1.352-4.429,2.901c-0.603,1.046-0.432,2.346-0.268,3.542
	c0.827,6.027,0.966,12.15,0.929,18.199c-0.014,2.432,0.066,4.864,0.167,7.293c0.101,2.454,0.438,4.089-0.524,6.456
	c-0.486,1.197-1.084,3.142-0.359,4.381c0.755,1.29,3.059,1.715,4.365,2.09c4.069,1.169,8.343,1.432,12.557,1.418
	c5.901-0.021,11.831-0.561,17.683,0.183c2.374,0.302,4.885,0.905,6.5,2.67c1.385,1.513,1.871,3.621,2.267,5.633
	c0.579,2.944,1.01,6.236-0.644,8.739c-1.084,1.641-2.925,2.66-4.83,3.148c-1.905,0.488-3.894,0.501-5.86,0.512
	c-4.348,0.024-8.697,0.047-13.045,0.07c-1.977,0.011-4.105,0.071-5.684,1.261c-1.663,1.255-2.292,3.495-2.269,5.579
	c0.026,2.447,0.967,4.771,1.148,7.148c0.155,2.038-1.805,4.212-3.444,5.156c-1.287,0.741-2.82,1.106-3.873,2.152
	c-1.457,1.449-1.558,3.733-1.569,5.787c-0.021,4.248-0.044,8.496-0.066,12.746c-0.019,3.71,0.394,7.272,0.376,10.96
	c-0.039,8.387-0.057,16.774-0.063,25.16c0,7.22-0.004,14.441,0.001,21.662c0.001,1.804,0.002,3.61,0.004,5.416
	c0.001,1.472,0.283,2.872,0.094,4.325c-0.469,3.621-1.01,7.233-1.514,10.848c-0.229,1.636-0.436,3.4,0.346,4.856
	c0.863,1.606,2.741,2.419,4.55,2.649c1.809,0.231,3.647,0.001,5.467,0.117c1.241,0.079,2.552,0.362,3.425,1.249
	c1.215,1.234,1.196,3.186,1.097,4.913c-0.126,2.222-0.4,4.735-2.174,6.08c-1.19,0.901-2.79,1.038-4.28,0.932
	c-1.488-0.106-2.976-0.419-4.462-0.28c-0.868,0.081-1.783,0.359-2.309,1.053c-0.578,0.763-0.539,1.812-0.473,2.766
	c0.289,4.226,0.578,8.452,0.867,12.676c0.131,1.914,0.09,3.938,0.521,5.814c0.252,1.098,0.787,2.104,1.011,3.21
	c0.781,3.853,0.263,8.291,0.314,12.216c0.055,4.292,0.109,8.583,0.16,12.874c0.206,17.166,0.382,34.332,0.515,51.499
	c0.06,8.469,0.119,16.939,0.162,25.408c0.041,8.371-0.38,16.911,0.225,25.243c0.228,3.131-0.534,6.455-2.064,9.188
	c-0.85,1.52-2.006,3.137-1.597,4.83c0.395,1.635,2.129,2.588,3.778,2.913c1.65,0.326,3.381,0.235,4.977,0.762
	c2.841,0.939,4.774,3.766,5.286,6.714c0.237,1.363,0.169,2.898-0.73,3.95c-0.732,0.857-1.872,1.231-2.956,1.54
	c-3.223,0.921-7.114,2.353-10.463,2.125c-4.249-0.29-8.5-0.554-12.754-0.769c-8.507-0.429-17.024-0.694-25.541-0.793
	c-4.182-0.041-8.363-0.057-12.545-0.025c-3.986,0.031-8.081,0.363-12.032,0.013c-4.226-0.375-8.612-0.11-12.855-0.164
	c-4.287-0.054-8.574-0.11-12.861-0.164c-13.462-0.172-26.923-0.344-40.385-0.515c-2.774-0.035-5.589-0.077-8.25-0.863
	c-3.504-1.037-6.805-3.087-6.328-7.111c0.197-1.657,0.672-3.361,0.196-4.959c-0.478-1.598-1.816-2.774-2.642-4.223
	c-1.199-2.108-1.248-4.654-1.264-7.08c-0.029-4.255-0.058-8.511-0.087-12.766c-0.012-1.799-0.248-3.73,0.204-5.483
	c0.429-1.663,0.467-3.229,0.513-4.956c0.225-8.59,0.448-17.179,0.666-25.77c0.438-17.18,0.86-34.36,1.266-51.541
	c0.277-11.769,0.547-23.537,0.808-35.307c0.131-5.926-0.106-11.917-0.116-17.88c-0.001-1.14-0.071-2.434-0.938-3.176
	c-0.899-0.768-2.25-0.596-3.362-0.995c-1.142-0.41-1.984-1.425-2.464-2.539c-0.48-1.115-0.647-2.334-0.81-3.536
	c-0.321-2.378-0.558-5.069,0.981-6.909c0.664-0.794,1.585-1.322,2.345-2.025c1.832-1.697,2.582-4.314,2.546-6.811
	c-0.052-3.65-1.654-6.778-2.51-10.215c-2.965-11.899-9.482-23.596-17.522-32.828c-6.703-7.697-15.21-13.979-24.898-17.185
	c-2.661-0.88-5.886-1.426-8.019,0.394c-1.908,1.629-3.217,3.607-5.487,4.863c-2.29,1.267-4.915,1.925-7.528,1.965
	c-4.519,0.07-8.941-1.57-12.768-3.975c-2.208-1.387-4.34-3.069-6.897-3.581C237.256,197.93,236.981,197.889,236.708,197.862z"/>
<g>
	<path style="fill:#A0A0A0;" d="M94.324,198.787c-4.034,0-8.101-0.107-12.065,0.281c-4.162,0.407-7.908-0.592-10.477,3.013
		c-3.513,4.93-3.616,12.936-3.861,18.757c-0.184,4.365-0.254,10.979,4.481,13.006c3.365,1.441,8.228,1.256,11.811,1.435
		c4.705,0.235,9.326,0.035,13.983,0.367c8.508,0.606,17.448,0.209,26.064,0.218c4.498,0.005,8.853-0.53,13.253-1.139
		c1.92-0.265,4.47,0.028,6.103-1.096c4.411-3.036,4.446-12.337,4.64-17.007c0.15-3.609,0.522-8.531-0.774-11.866
		c-1.457-3.749-5.288-3.953-8.792-4.628c-7.058-1.36-13.793-0.803-20.933-0.781C109.552,199.372,101.397,199.067,94.324,198.787z"/>
	<path style="fill:#A0A0A0;" d="M90.111,384.456c-3.289-2.905-5.582-7.459-8.722-10.674c-5.496-5.63-2.562-9.464,1.945-14.228
		c2.689-2.844,3.463-5.807,2.078-9.702c-1.81-5.089-2.884-9.737,0.702-14.566c1.08-1.454,2.674-2.562,3.09-4.469
		c0.657-3.004-1.208-6.223-1.773-9.102c-0.59-3.003-1.433-7.488-0.697-10.516c0.662-2.72,3.722-4.557,6.345-5.521
		c4.353-1.597,7.99,0.638,12.23,0.416c5.31-0.277,7.433-5.404,13.041-1.835c1.908,1.214,3.973,2.801,4.433,5.169
		c0.813,4.186-3.404,8.101-2.912,12.42c0.544,4.772,13.932,4.403,10.152,10.303c4.823,2.575,4.293,8.64,2.211,12.978
		c-0.856,1.784-4.363,5.321-3.445,7.246c0.539,1.13,1.912,0.698,2.893,1.304c1.294,0.798,2.273,2.064,2.891,3.486
		c1.674,3.853-1.689,5.438-3.692,8.607c-2.21,3.497-0.728,5.162-0.045,8.764c0.612,3.228,0.206,8.193-2.184,10.701
		c-2.27,2.381-7.161,1.987-10.302,2.023c-6.23,0.07-12.359-0.857-18.579-0.841C95.495,386.434,92.991,387.243,90.111,384.456z"/>
	<path style="fill:#A0A0A0;" d="M383.641,387.264c-1.185-1.74-2.103-4.137-2.676-6.18c-1.033-3.683,0.964-5.954,1.696-9.409
		c1.243-5.877-10.004-9.675-3.793-15.659c2.347-2.262,4.429-2.137,2.949-5.855c-1.381-3.469-4.151-5.954-4.61-9.868
		c-0.624-5.33,2.255-8.871,6.226-11.722c3.367-2.417,7.165-3.282,7.376-7.595c0.362-7.388-2.589-19.32,8.768-18.261
		c2.884,0.269,4.126,2.338,6.875,2.815c4.535,0.788,8.665-1.308,13.288,0.412c3.477,1.294,6.728,4.123,7.244,8.005
		c0.764,5.745-3.477,10.624-3.476,16.24c0.001,4.153,4.011,6.074,4.833,9.768c1.19,5.349-3.966,10.044-3.278,15.016
		c0.475,3.432,5.58,4.075,7.451,7.364c2.617,4.596,1.518,9.801-2.239,13.411c-3.184,3.061-6.741,8.639-10.494,10.677
		c-2.92,1.586-7.001,0.704-10.183,0.83c-4.264,0.169-8.499,0.559-12.756,0.922C393.118,388.494,389.357,388.388,383.641,387.264z"/>
	<path style="fill:#A0A0A0;" d="M371.002,200.191c-1.632-0.712-5.504,1.988-6.465,3.715c-1.382,2.481-0.304,6.692-0.276,9.473
		c0.052,5.011-0.012,11.398,1.342,16.243c1.116,3.992,4.139,4.604,8.062,5.423c9.238,1.928,19.651,1.293,29.078,1.38
		c10.529,0.097,21.261,0.613,31.753-0.304c7.269-0.636,9.291-3.436,9.544-10.452c0.196-5.438-0.041-11.805-0.839-17.183
		c-0.479-3.227-1.254-6.52-4.24-8.231c-3.278-1.879-7.772-1.04-11.367-1.179c-5.403-0.209-10.714-0.849-16.158-0.849
		c-6.799,0-13.518-0.147-20.307-0.004c-3.165,0.067-6.3,0.284-9.478,0.284C377.756,198.506,373.94,199.316,371.002,200.191z"/>
	<path style="fill:#A0A0A0;" d="M181.717,175.97c-0.02,6.219-0.875,12.384-0.875,18.611c0,3.164-0.944,7.995,0.421,10.919
		c3.252-0.263,5.383-4.253,7.256-6.566c2.332-2.879,4.608-5.802,7.691-7.932c6.198-4.281,13.057-7.545,20.148-9.992
		c3.194-1.103,14.878-3.577,13.075-8.93c-0.796-2.362-4.544-2.657-6.652-2.691c-5.79-0.093-11.959,0.716-17.713,1.324
		c-5.099,0.539-10.19,1.432-15.308,1.708C185.203,172.665,181.097,171.551,181.717,175.97z"/>
	<path style="fill:#A0A0A0;" d="M291.366,170.279c-2.314-0.267-9.104,0.091-8.544,3.411c0.642,3.798,8.948,5.044,11.778,6
		c4.193,1.415,8.302,2.74,12.215,4.805c3.321,1.753,6.065,4.481,8.93,6.863c2.859,2.376,5.682,4.913,8.025,7.823
		c1.488,1.848,2.969,4.909,4.692,6.445c3.664,3.269,2.94-9.127,2.737-11.21c-0.48-4.938,0.205-9.908,0-14.895
		c-0.072-1.741,0.114-4.959-1.309-6.133c-0.498-0.41-2.342-0.414-2.947-0.487c-2.116-0.256-4.082-0.481-6.178-0.958
		C310.523,169.614,298.705,169.425,291.366,170.279z"/>
	<path style="fill:#A0A0A0;" d="M177.135,142.744c-10.182-1.946-20.662,0.742-30.903-0.255c-8.789-0.855-17.756-0.471-26.6-0.447
		c-16.689,0.045-33.362,0-50.059,0c-6.573,0-13.215-0.267-19.779,0.029c-2.904,0.131-9.243-0.823-12.008,0.351
		c-4.998,2.124-3.333,15.55,0.751,17.939c1.7,0.993,3.936,0.874,5.846,0.964c5.242,0.248,10.388,0.395,15.633,0.789
		c10.109,0.758,20.04,1.637,30.22,1.238c21.759-0.852,43.553-1.021,65.334-0.974c26.535,0.058,53.625,1.346,80.122,0.35
		c2.89-0.108,3.441-1.327,5.218-3.128c2.415-2.448,2.952-2.603,6.258-2.967c6.488-0.716,14.268-2.068,20.43,0.758
		c2.548,1.168,2.247,3.305,4.814,4.568c2.688,1.321,7.513,0.42,10.428,0.419c5.501-0.001,10.939-0.235,16.428-0.428
		c10.56-0.373,21.121-2.498,31.728-2.044c5.301,0.226,10.527,1.381,15.818,1.608c4.814,0.205,9.761-0.35,14.599,0.068
		c5.248,0.453,10.555,0.524,15.822,0.719c9.803,0.366,19.66,0.073,29.446,0.447c17.333,0.662,35.235-1.782,52.422-0.291
		c9.724,0.844,15.187,0.806,16.498-10.692c0.414-3.634,1.044-7.578-2.23-9.065c-2.831-1.286-7.568-0.975-10.645-1.357
		c-5.174-0.642-10.485-1.198-15.694-1.422c-15.721-0.676-31.647,1.741-47.333,2.463c-16.947,0.78-34.222,1.527-50.993,0.373
		c-18.3-1.26-36.843-0.898-55.163-0.343c-11.344,0.343-22.705,0.111-34.038,0.79c-10.323,0.618-20.073,0.005-30.448-0.124
		C211.11,142.856,192.948,144.715,177.135,142.744z"/>
</g>
<g>
	<path style="fill:#C1C1C1;" d="M48.366,280.159c-2.905,0.923-5.305,2.661-6.775,5.727c-3.976,8.296-0.681,18.875-0.642,27.624
		c0.081,18.169-0.185,36.248,0.364,54.458c0.531,17.601-1.393,35.469-2.242,53.02c-0.281,5.81-1.249,12.424-0.139,18.177
		c0.757,3.922,4.591,8.546-0.344,11.532c-3.235,1.958-13.095,3.373-7.864,9.931c3.853,4.831,20.027,2.945,25.657,2.945
		c15.404,0,30.774-0.226,46.144-0.285c22.671-0.086,45.675,0.218,68.2-1.681c3.131-0.264,11.018,0.649,12.721-2.95
		c3.097-6.541-24.785-4.648-28.599-4.486c-19.33,0.824-38.384,3.824-57.746,2.702c-7.652-0.443-15.291-0.952-22.938-1.47
		c-3.786-0.257-10.592,0.367-12.719-3.539c4.584-6.109,12.635-4.443,19.066-4.498c9.165-0.078,18.346,0.479,27.506,0.072
		c7.174-0.318,15.112,1.409,22.152-0.323c5.435-1.337,3.413-5.154-0.73-7.014c-7.067-3.173-15.423,0.054-22.757-1.181
		c-11.318-1.906-11.253-15.376-17.486-22.709c-6.368-7.493-16.494-12.101-21.444-20.759c-5.916-10.348-6.372-21.366-6.615-32.931
		c-0.261-12.409-1.781-24.293,1.514-36.538c2.64-9.808,9.815-22.378,17.935-28.643c9.198-7.096,20.645-7.085,31.522-6.033
		c13.871,1.342,28.254,0.857,42.18,0.857c7.815,0,21.021,3.03,21.528-8.235c0.245-5.468-3.861-4.307-8.479-4.728
		c-10.152-0.926-20.913-0.886-31.122-0.425c-12.358,0.558-24.76,0.445-37.151,0.415c-8.475-0.02-16.976,0.808-25.437,1.263
		C66.74,280.829,55.869,277.774,48.366,280.159z"/>
	<path style="fill:#C1C1C1;" d="M42.916,165.971c1.641,5.137-0.304,11.872,1.073,17.318c1.608,6.356-0.098,13.632,0.106,20.462
		c0.361,12.074,0.407,24.252,0.393,36.389c-0.007,6.033-1.506,19.42,5.122,22.837c2.947,1.519,7.894,0.594,11.183,0.472
		c1.409-0.053,19.348,0.418,18.821-1.083c-1.12-3.187-6.725-5.616-9.3-7.582c-3.322-2.537-6.427-4.918-8.43-8.693
		c-3.874-7.298-4.443-16.158-4.038-24.302c0.202-4.061,1.072-8.264,1.582-12.363c0.597-4.791,0.183-10.931,1.869-15.474
		c1.76-4.739,6.152-5.859,10.891-6.369c8.892-0.958,16.807-2.354,25.411-5.178c14.099-4.626,28.625-8.189,43.275-10.527
		c5.41-0.863,23.681-1.346,23.979-9.472c-2.546-1.658-7.729-0.893-10.73-0.78c-5.755,0.217-11.52,0.573-17.278,0.728
		c-12.8,0.344-25.891,0.04-38.723,0.107c-14.311,0.075-28.326-0.957-42.579,0.771c-2.417,0.292-8.123-0.784-10.363,0.37
		C42.234,165.121,44.796,167.852,42.916,165.971z"/>
	<path style="fill:#C1C1C1;" d="M1.637,130.589c1.758,4.587-0.844,7.848,5.093,9.446c9.881,2.661,22.093,1.53,32.205,1.189
		c35.243-1.19,70.731-1.332,105.98,0.285c15.282,0.702,30.734,0.09,46.038,0.087c4.103,0,8.192,0.177,12.287,0.02
		c6.488-0.248,12.789-0.295,19.289,0.077c14.737,0.842,29.671,0.69,44.435,0.69c23.754,0,47.42,0.787,71.15,0.787
		c30.771,0,61.449-0.456,92.206-0.394c13.201,0.027,26.134,0.16,39.333,0.752c9.767,0.438,20.063-0.624,29.707-1.942
		c2.982-0.408,6.457-0.693,8.42-3.331c4.708-6.324-4.183-8.061-8.423-8.059c-15.71,0.007-31.416-0.085-47.089,0.699
		c-22.804,1.14-45.826-0.08-68.528-1.005c-15.707-0.639-31.436-0.656-47.156-1.316c-21.412-0.9-42.702-2.762-64.144-1.965
		c-12.66,0.471-25.322,0.894-37.982,1.399c-11.97,0.478-25.276,2.798-37.046,0.994c-24.94-3.82-51.667-1.169-76.869-1.166
		c-30.177,0.004-60.282,2.807-90.434,2.752c-7.113-0.013-14.227,0.014-21.34,0.001C4.861,130.582,0.749,129.873,1.637,130.589z"/>
	<path style="fill:#C1C1C1;" d="M50.189,79.679c-7.171,5.823,5.888,6.66,9.147,6.493c11.825-0.606,23.491-0.007,35.36-0.006
		c37.252,0.004,74.489-1.148,111.768-1.755c65.327-1.064,130.539-2.603,195.806-0.012c17.96,0.712,36.401,4.386,54.246,4.148
		c4.469-0.06,8.394-1.474,7.645-7.099c-0.88-6.605-6.917-3.602-12.637-3.538c-71.21,0.788-142.476-2.419-213.643-2.359
		c-38.239,0.033-76.328-0.109-114.527,1.474c-16.547,0.685-33.055,0.888-49.647,0.885C66.891,77.908,56.739,75.347,50.189,79.679z"
		/>
	<path style="fill:#C1C1C1;" d="M335.016,281.357c-0.042,16.369,1.79,32.822,1.177,49.222c-0.591,15.822-2.589,31.595-3.536,47.327
		c-0.817,13.575-0.719,28.34-0.031,42.177c0.318,6.401,0.663,12.932,1.214,19.327c0.596,6.887,3.893,5.365-2.34,10.09
		c-3.495,2.649-9.229,5.245-4.03,9.827c1.79,1.578,7.002,0.452,9.32,0.681c5.465,0.54,10.845,1.479,16.362,1.928
		c12.689,1.036,25.732,1.123,38.449,1.669c24.001,1.03,47.986-0.872,71.986-0.62c3.086,0.032,16.516,2.01,18.178-0.547
		c3.695-5.691-23.13-5.235-26.169-5.363c-20.965-0.883-42.098,0.558-63.085,0.604c-8.836,0.02-34.652,4.839-38.43-6.501
		c4.64-4.811,13.178-2.605,18.787-2.19c9.184,0.679,18.633-0.744,27.881-0.744c7.915,0,18.191,1.587,25.584-0.675
		c-0.946-10.859-16.502-8.506-24.37-8.173c-13.78,0.583-28.25-1.453-36.309-13.694c-14.642-22.242-10.254-53.235-12.371-78.844
		c-1.237-14.967-1.471-32.766,10.256-44.165c9.324-9.064,24.78-9.341,36.92-10.586c15.357-1.575,30.722-1.452,46.083-2.654
		c5.1-0.399,14.412,1.431,19.141-1.549c1.3-0.818,5.007-5.645,4.271-7.133c-1.453-2.941-32.778-0.002-37.373-0.002
		C399.984,280.772,366.802,278.467,335.016,281.357z"/>
	<path style="fill:#C1C1C1;" d="M241.843,201.157c0.494-4.562-2.332-10.892,0.058-14.981c3-5.139,13.214-4.431,18.812-4.449
		c7.633-0.024,8.972,0.71,10.077,8.471c0.882,6.185,0.783,10.664-5.33,12.729C259.852,204.819,245.059,205.812,241.843,201.157z"/>
</g>
<path d="M100.894,327.921c2.031,0.524,3.709,0.547,5.768,0.505c1.051-0.022,0.416-0.384,1.524,0.182
	c0.685,0.35,2.058,1.67,2.48,2.294c0.315,0.467,1.036,0.533,1.336,0c1.024-1.814,0.261-4.321-1.137-5.767
	c-2.272-2.351-4.568-1.152-7.365-1.464c-2.351-0.262-3.628-0.294-2.474-2.839c0.683-1.508,2.457-3.992,4.136-4.427
	c0.767-0.198,0.866-1.523,0-1.652c-4.608-0.691-8.709,3.968-8.565,8.478C96.681,325.862,98.513,327.308,100.894,327.921z"/>
<path d="M116.833,359.793c-1.316-1.874-2.622-3.171-4.291-4.154c0.535-0.502,1.097-0.992,1.725-1.453
	c2.571-1.885,5.531-2.661,6.693-5.777c0.321-0.86-0.623-1.567-1.394-1.394c-5.009,1.122-9.434,4.039-12.815,7.907
	c-1.701,1.945-2.597,4.335-4.335,6.249c-2.194,2.413-6.876,4.505-4.07-1.977c4.049-9.35,21.714-15.27,16.697-27.757
	c-0.185-0.461-0.854-0.534-1.013,0c-1.3,4.372-2.826,7.923-5.634,11.198c-0.13-0.675-0.288-1.354-0.261-2.064
	c0.027-0.704,0.23-1.366,0.188-2.079c-0.044-0.722-0.236-1.383-0.195-2.116c0.027-0.475-0.581-0.665-0.896-0.372
	c-2.098,1.96-3.617,6.879-1.104,8.964c-1.011,0.929-2.023,1.794-3.017,2.641c-0.188-1.827-0.903-3.649-1.402-5.514
	c-0.544-2.029-0.916-3.225,0.067-5.101c0.636-1.211,1.629-2.221,2.216-3.436c0.14-0.29,0.146-0.69-0.119-0.921
	c-2.453-2.15-5.405,2.109-6.271,4.104c-0.798,1.84-0.04,3.951,0.461,5.768c0.182,0.658,2.181,6.062,2.497,7.368
	c-1.208,1.15-2.349,2.394-3.37,3.894c-2.251,3.308-5.267,10.058-0.899,13.215c3.63,2.624,7.792-1.333,9.99-3.892
	c0.048-0.057,0.092-0.113,0.139-0.169c1.335,1.734,2.698,3.462,3.636,5.408c1.662,3.45,0.486,8.483-1.829,11.515
	c-0.263,0.344,0.107,0.732,0.441,0.769c5.115,0.57,7.034-6.659,6.055-10.549c-0.942-3.746-3.157-7.469-6.499-9.39
	c0.729-0.942,1.44-1.876,2.195-2.78c1.858,2.307,3.813,4.556,5.672,6.862c2.076,2.573,2.624,5.277,1.559,8.503
	c-0.418,1.264-0.699,3.384-1.485,4.416c-0.254,0.333,0.085,0.925,0.501,0.874c4.07-0.502,5.939-6.81,5.442-10.221
	C121.595,364.816,118.772,362.555,116.833,359.793z"/>
<path d="M108.135,321.918c-0.075,0-0.075,0.118,0,0.118C108.21,322.036,108.21,321.918,108.135,321.918z"/>
<path d="M60.356,244.752c3.706,2.531,9.012,1.983,13.291,1.979c6.856-0.005,13.604,1.049,20.495,1.013
	c14.766-0.074,29.482-0.248,44.208-0.602c4.194-0.101,10.983,0.111,14.701-2.085c3.738-2.208,4.738-7.914,5.667-11.775
	c1.225-5.086,0.854-11.29,0.374-16.468c-0.6-6.477-0.572-13.015-0.991-19.506c-0.232-3.584-0.167-7.26-4.015-8.79
	c-2.919-1.161-6.858-1.111-10.028-1.562c-3.49-0.495-7.001-0.548-10.519-0.468c-6.43,0.146-12.675-0.329-19.104,0.098
	c-2.904,0.192-5.822,0.357-8.742,0.525c-1.366-0.046-2.729-0.078-4.089-0.081c-6.904-0.018-13.808-0.156-20.714-0.142
	c-3.312,0.006-6.624,0.195-9.931,0.119c-2.386-0.054-4.974-0.329-7.245,0.664c-3.386,1.48-4.314,4.731-4.739,8.093
	c-0.813,6.437-1.333,12.74-1.659,19.201c-0.334,6.611-1.421,13.344-1.425,19.947C55.888,239.163,56.768,242.301,60.356,244.752z
	 M61.569,218.661c0.221-4.698,0.302-9.339,0.78-14.011c0.246-2.407,0.708-4.8,1.005-7.2c0.653-5.278,4.078-5.852,8.691-5.537
	c5.83,0.399,12.033-0.429,17.936-0.498c6.484-0.074,12.858-0.198,19.314,0.239c7.128,0.484,15.07,0.587,22.569-0.219
	c0.883,0.012,1.768,0.021,2.675,0.012c2.859-0.031,5.665,0.026,8.501,0.4c2.241,0.296,5.922,0.19,7.969,1.145
	c3.052,1.424,2.59,8.984,2.668,11.781c0.156,5.608,0.394,11.235,0.499,16.823c0.093,4.946-0.038,9.188-1.419,13.981
	c-1.845,6.399-9.519,6.529-15.299,6.475c-5.122-0.048-10.19,0.777-15.337,0.73c-6.319-0.058-12.633-0.152-18.954-0.156
	c-10.527-0.005-20.944-1.03-31.423-1.086c-5.556-0.029-10.341-0.34-10.685-6.629C60.774,229.73,61.324,223.889,61.569,218.661z"/>
<path d="M70.191,236.624c3.83,1.449,8.284,0.837,12.275,0.738c5.232-0.13,10.525,0.213,15.75,0.455
	c10.335,0.478,20.926,1.153,31.252,0.165c5.505-0.526,14.932,0.932,17.958-5.172c1.674-3.379,1.501-7.614,1.866-11.263
	c0.513-5.12,0.775-10.939,0.243-16.053c-0.817-7.852-10.275-8.302-16.539-8.709c-10.034-0.652-20.025-0.664-30.005,0.376
	c-3.344-0.133-6.686-0.246-10.031-0.281c-4.274-0.044-8.672,0.402-12.975,0.594c-2.787,0.125-6.057-0.098-8.406,1.552
	c-5.747,4.038-5.091,14.653-5.418,20.604C65.864,225.108,63.567,234.119,70.191,236.624z M70.152,218.647
	c0.244-4.3,0.06-9.014,1.635-13.029c1.986-5.066,6.226-4.416,11.098-4.423c3.975-0.006,7.84-0.54,11.791-0.537
	c5.029,0.004,10.039-0.228,15.05-0.485c6.076-0.054,12.168-0.328,18.217,0.085c3.855,0.263,7.615,0.823,11.371,1.571
	c8.032,1.599,6.395,8.558,6.37,14.886c-0.014,3.592,0.623,10.583-1.32,13.673c-2.737,4.356-9.593,3.005-13.878,3.23
	c-9.741,0.513-19.759,0.739-29.498-0.091c-4.528-0.386-9.136-0.494-13.68-0.673c-5.064-0.199-10.76,1.386-15.026-1.571
	c-3.125-2.167-2.309-2.378-2.156-5.689C70.232,223.277,70.021,220.961,70.152,218.647z"/>
<path d="M228.094,168.123c-1.404-0.617-2.621-0.598-4.116-0.51c-3.767,0.223-7.394,0.975-11.211,1.048
	c-5.655,0.107-11.275,0.784-16.909,1.073c-3.098,0.159-6.129,1.033-9.234,1.071c-1.375,0.017-3.204-0.511-4.545-0.019
	c-2.329,0.855-2.371,3.079-2.638,5.362c-1.421,12.102,0.66,24.587-0.744,36.777c-0.29,2.514,3.592,2.452,3.916,0
	c0.572-4.345,4.614-10.303,7.505-13.353c3.625-3.826,7.632-7.217,12-10.144c4.646-3.114,9.62-5.726,14.783-7.871
	c3.99-1.658,10.013-2.174,13.361-4.997C233.292,174.005,231.342,169.55,228.094,168.123z M226.627,174.41
	c-0.129,0.357-0.563,0.768-1.069,1.181c-9.73,1.104-19.78,7.085-27.361,12.444c-4.916,3.476-11.018,8.567-15.096,14.383
	c0.007-4.744-0.177-9.497-0.177-14.246c0-3.059-1.356-9.506,0.268-12.312c1.168-2.018,0.58-1.388,3.432-1.367
	c7.164,0.052,14.598-1.211,21.773-1.577c3.786-0.192,7.696-0.015,11.458-0.51C221.59,172.178,227.912,170.848,226.627,174.41z"/>
<path d="M509.754,120.681c-3.291-4.992-12.572-4.091-17.65-4.772c-7.674-1.028-15.838-2.047-23.596-2.007
	c-0.486,0.002-0.969-0.002-1.455,0c1.727-4.583,0.626-8.968,0.624-13.758c-0.002-4.557,0.379-9.096,0.622-13.589
	c0.126-2.316-0.31-4.482-1.238-6.312c2.752-0.336,5.143-1.439,6.44-3.779c2.349-4.242,0.663-10.507-4.315-11.183
	c-1.953-0.265-3.966-0.234-5.982-0.159c1.815-6.007,2.168-14.063-5.494-15.027c-2.253-0.283-7.055-1.499-8.979,0.267
	c-1.549,1.421-1.462,4.468-1.6,6.741c-0.987,0.178-2.011,0.343-2.627,0.252c-2.763-0.409-1.609-4.869-1.825-7.28
	c-0.075-0.837-0.577-1.856-1.524-2.001c-1.672-0.256-3.467-0.377-5.278-0.372c-0.861-0.081-1.697-0.124-2.408-0.166
	c-1.92-0.116-4.792-0.36-6.107,1.444c-1.564,2.144,1.084,7.188-0.393,8.676c-2.42,2.435-4.81-1.767-5.089-3.092
	c-0.315-1.494,0.133-4.055-0.772-5.377c-1.264-1.847-3.236-1.26-5.359-1.531c-2.543-0.324-6.55-1.792-8.676,0.443
	c-1.174,1.234-1.326,3.112-1.387,4.726c-0.045,1.157,0.364,2.522-0.132,3.622c-0.803,1.782-2.093,0.374-2.636-0.795
	c-0.833-1.788,0.231-4.311-0.607-6.068c-1.558-3.261-5.754-2.338-8.853-2.296c-2.459,0.033-4.858-0.155-6.023,2.458
	c-0.554,1.243-0.468,3.063-0.632,4.419c-0.372,3.055,0.453,2.891-2.106,2.833c-5.976-0.134-1.629-5.813-3.719-8.936
	c-1.373-2.052-4.023-1.309-6.171-1.368c-2.355-0.065-6.758-1.196-8.268,1.196c-1.085,1.718-0.583,5.058-0.501,7.638
	c-4.564,0.418-2.148-3.989-4.492-7.013c-1.07-1.38-3.388-1.912-5.735-1.992c-2.704-0.583-5.785-0.586-7.564,0.886
	c-1.342,1.111-1.499,2.913-1.704,4.507c-0.072,0.56-0.35,2.365-0.277,3.178c-0.586-0.087-1.633-0.04-1.99-0.061
	c-3.399-0.209-3.634,0.096-3.953-3.348c-0.126-1.356-0.074-3.571-1.141-4.614c-0.953-0.932-2.267-0.876-3.53-1.001
	c-2.374-0.236-5.951-0.738-8.397-0.268c-6.192,1.191-1.57,6.725-5,8.476c-1.266,0.019-2.176,0.024-2.536-1.422
	c-0.276-1.11,0.144-2.329-0.029-3.421c-0.254-1.596-0.513-2.439-1.911-3.19c-1.464-0.787-6.219-0.4-7.531-0.493
	c-1.644-0.117-3.109-0.504-4.269,0.898c-0.955,1.153-1.023,3.48-1.224,4.909c-0.454,3.217-0.406,3.105-2.63,2.906
	c-0.132-0.012-0.473-4.492-0.55-4.926c-0.257-1.468-0.638-2.662-2.287-2.912c-1.109-0.167-2.217-0.04-3.32-0.151
	c-0.809-0.081-1.484-0.277-2.322-0.192c-1.529,0.153-3.383,0.666-4.231,2.072c-0.593,0.985-0.48,2.136-0.34,3.223
	c0.105,0.808,0.693,2.29-0.298,2.73c-0.62,0.276-2.426,0.446-3.078,0.311c-2.544-0.526-1.573-1.063-2.042-3.543
	c-0.307-1.619-0.281-4.051-1.729-5.1c-1.744-1.261-6.657-0.593-8.521-0.162c-4.564,1.058-3.807,5.79-3.887,9.71
	c-1.881-0.633-3.765,0.218-5.714-0.462c-2.296-0.801-1.674-1.67-2.196-3.988c-1.008-4.475-3.431-6.411-8.14-5.97
	c-3.726,0.349-5.638,1.632-5.477,5.528c0.127,3.096-0.671,5.607-4.562,5.096c-0.402-0.053-0.706-0.109-0.948-0.172
	c-0.085-3.926,0.688-8.682-3.888-9.742c-1.865-0.432-6.777-1.1-8.521,0.162c-1.449,1.048-1.424,3.48-1.729,5.1
	c-0.469,2.48,0.501,3.017-2.043,3.543c-0.652,0.134-2.458-0.037-3.078-0.311c-0.992-0.44-0.403-1.922-0.3-2.73
	c0.14-1.089,0.254-2.24-0.34-3.223c-0.848-1.406-2.702-1.919-4.231-2.072c-0.839-0.084-1.513,0.111-2.322,0.192
	c-1.103,0.111-2.211-0.017-3.32,0.151c-1.65,0.249-2.03,1.444-2.287,2.912c-0.077,0.434-0.418,4.915-0.55,4.926
	c-2.224,0.199-2.175,0.311-2.63-2.906c-0.202-1.428-0.269-3.755-1.224-4.909c-1.161-1.401-2.625-1.014-4.269-0.898
	c-1.312,0.093-6.067-0.295-7.531,0.493c-1.399,0.751-1.658,1.595-1.911,3.19c-0.173,1.092,0.246,2.312-0.029,3.421
	c-0.359,1.446-1.27,1.441-2.536,1.422c-3.43-1.753,1.192-7.286-4.999-8.476c-2.446-0.471-6.022,0.033-8.397,0.268
	c-1.263,0.125-2.578,0.071-3.53,1.001c-1.066,1.041-1.015,3.258-1.14,4.614c-0.32,3.444-0.554,3.14-3.953,3.348
	c-0.356,0.022-1.405-0.026-1.99,0.061c0.073-0.814-0.205-2.618-0.277-3.178c-0.205-1.593-0.363-3.396-1.704-4.507
	c-1.779-1.472-4.859-1.468-7.562-0.886c-2.347,0.08-4.666,0.613-5.735,1.992c-2.345,3.024,0.072,7.43-4.492,7.013
	c0.081-2.579,0.584-5.919-0.501-7.638c-1.51-2.391-5.912-1.261-8.269-1.196c-2.148,0.059-4.798-0.684-6.171,1.368
	c-2.09,3.123,2.257,8.802-3.719,8.936c-2.559,0.058-1.735,0.222-2.106-2.833c-0.165-1.357-0.078-3.176-0.632-4.419
	c-1.165-2.612-3.564-2.425-6.023-2.458c-3.098-0.041-7.295-0.964-8.853,2.296c-0.84,1.757,0.224,4.279-0.607,6.068
	c-0.544,1.168-1.833,2.577-2.636,0.795c-0.497-1.102-0.088-2.465-0.132-3.622c-0.061-1.613-0.213-3.492-1.387-4.726
	c-2.125-2.235-6.133-0.769-8.676-0.443c-2.123,0.271-4.095-0.316-5.359,1.531c-0.905,1.322-0.456,3.883-0.773,5.377
	c-0.28,1.326-2.669,5.528-5.089,3.092c-1.477-1.486,1.171-6.532-0.393-8.676c-1.314-1.802-4.187-1.558-6.107-1.444
	c-0.71,0.042-1.547,0.085-2.408,0.166c-1.809-0.006-3.604,0.116-5.278,0.372c-0.947,0.145-1.449,1.164-1.524,2.001
	c-0.216,2.412,0.94,6.871-1.825,7.28c-0.616,0.091-1.641-0.074-2.627-0.252c-0.139-2.275-0.052-5.321-1.6-6.741
	c-1.925-1.766-6.725-0.55-8.978-0.267c-7.661,0.962-7.309,9.02-5.494,15.027c-2.016-0.074-4.029-0.106-5.982,0.159
	c-4.977,0.676-6.665,6.942-4.315,11.183c1.296,2.34,3.689,3.442,6.44,3.779c-0.928,1.83-1.365,3.995-1.238,6.312
	c0.244,4.494,0.625,9.033,0.622,13.589c-0.004,4.79-1.103,9.175,0.624,13.758c-0.486-0.002-0.971,0.004-1.457,0
	c-7.758-0.04-15.922,0.98-23.596,2.007c-5.077,0.681-14.359-0.221-17.65,4.772c-2.926,4.438-2.276,12.569-1.922,17.619
	c0.432,6.148,6.103,6.444,11.274,6.647c7.361,0.29,14.707,0.627,22.067,0.78c-0.98,5.625-1.702,15.744,3.147,19.168
	c1.34,0.947,3.109,1.207,4.936,1.228c-0.464,3.533-1.185,11.333-1.203,11.899c-0.156,5.046,0.626,10.07,0.954,15.096
	c0.739,11.334,0.579,22.66,0.524,34.023c-0.05,10.152-0.705,20.222-0.705,30.345c0,2.494-0.315,5.126,1.183,7.095
	c-1.064,0.081-2.134,0.144-3.214,0.158c-3.55,0.047-7.14-0.053-9.979,2.489c-2.562,2.293-2.11,4.931-1.842,8.022
	c0.23,2.651-0.219,6.553,2.663,7.895c1.19,0.554,2.229,0.044,3.405-0.086c2.215-0.245,4.274-0.292,6.458-0.237
	c-0.556,3.7-0.78,7.319-0.768,11.131c0.019,6.239-0.802,12.42-0.79,18.696c0.02,10.875,0.696,21.871,0.528,32.71
	c-0.155,9.982-0.04,20.432-1.014,30.385c-0.973,9.936-0.259,19.82-0.185,29.745c0.087,11.515-1.012,23.439-0.005,34.899
	c0.215,2.446,0.301,5.253,1.853,7.209c-0.078,0.006-0.156,0.018-0.235,0.022c-2.802,0.17-5.36,0.217-7.956,1.449
	c-5.316,2.525-4.187,7.384-5.055,12.319c-0.216,1.227,0.316,2.707,1.698,2.991c7.085,1.459,14.682,1.888,21.935,1.901
	c10.848,0.019,21.647,0.372,32.461,0.63c9.999,0.239,20.204-0.502,30.245-0.482c8.951,0.019,18.073,0.271,26.971-0.695
	c8.596-0.933,17.321-0.314,25.95-0.796c4.245-0.237,8.469-0.872,12.708-1.084c2.714-0.136,5.732,0.979,8.082-0.78
	c3.171-2.373,3.755-8.545,2.164-12.115c2.63-3.381,3.337-7.83,3.771-12.373c0.663-6.951,0.157-13.987,0.116-20.969
	c-0.097-16.713,0.998-33.534-0.163-50.254c-0.538-7.75-0.376-15.513-0.833-23.245c-0.493-8.36-1.286-16.784-1.545-25.161
	c-0.366-11.798,0.535-24.315-1.466-35.92c1.362-0.022,2.691-0.242,3.923-0.921c3.058-1.687,4.106-4.722,4.492-8.057
	c0.367-3.162,0.193-7.969-1.879-10.605c-0.975-1.24-2.319-1.718-3.787-1.861c2.316-6.374,2.318-13.407,5.329-19.715
	c1.554-3.255,2.313-6.821,3.906-10.024c1.519-3.055,3.447-6.225,5.356-9.064c4.786-7.124,10.55-11.454,17.951-15.68
	c2.906-1.659,5.719-3.555,8.807-4.922c2.282-1.011,4.668-1.602,6.963-2.468c0.12,1.311,0.532,2.569,1.405,3.68
	c2.709,3.447,9.3,2.734,13.137,2.908c4.541,0.208,11.414,1.564,15.306-1.617c1.217-0.995,2.185-2.999,2.677-5.143
	c2.431,0.966,4.982,1.564,7.414,2.641c3.088,1.367,5.901,3.262,8.807,4.922c7.402,4.227,13.165,8.558,17.951,15.68
	c1.907,2.84,3.835,6.01,5.356,9.064c1.593,3.203,2.352,6.769,3.906,10.024c3.012,6.307,3.013,13.343,5.329,19.715
	c-1.468,0.143-2.812,0.622-3.787,1.861c-2.072,2.635-2.246,7.443-1.879,10.605c0.387,3.334,1.434,6.37,4.492,8.057
	c0.903,0.498,1.861,0.737,2.842,0.848c-2.272,14.438-0.774,28.836-1.562,43.368c-0.383,7.078-1.341,14.043-1.755,21.104
	c-0.447,7.625-0.124,15.101-0.157,22.74c-0.037,8.452,0.908,16.999,0.208,25.443c-0.589,7.101-0.771,14.173-0.803,21.33
	c-0.034,7.988-0.412,16.059-0.146,24.04c0.163,4.902,1.148,8.521,4.683,11.415c-0.912,3.605-0.121,8.593,2.655,10.67
	c2.351,1.76,5.369,0.644,8.082,0.78c4.238,0.212,8.463,0.847,12.708,1.084c8.63,0.482,17.355-0.137,25.95,0.796
	c8.899,0.965,18.021,0.714,26.971,0.695c10.04-0.021,20.246,0.721,30.245,0.482c10.815-0.258,21.614-0.611,32.461-0.63
	c7.252-0.013,14.85-0.442,21.935-1.901c1.382-0.284,1.914-1.764,1.698-2.991c-0.868-4.935,0.261-9.795-5.056-12.319
	c-2.596-1.234-5.154-1.28-7.956-1.449c-0.078-0.005-0.157-0.017-0.235-0.022c1.552-1.955,1.638-4.762,1.853-7.209
	c1.007-11.459-0.092-23.384-0.005-34.899c0.075-9.925,0.788-19.809-0.185-29.745c-0.974-9.953-0.86-20.403-1.014-30.385
	c-0.167-10.839,0.508-21.834,0.528-32.71c0.011-6.276-0.809-12.457-0.79-18.696c0.012-3.813-0.212-7.433-0.768-11.131
	c2.184-0.055,4.243-0.008,6.458,0.237c1.176,0.13,2.215,0.64,3.405,0.086c2.882-1.342,2.433-5.244,2.663-7.895
	c0.269-3.091,0.719-5.73-1.842-8.022c-2.839-2.542-6.43-2.441-9.979-2.489c-1.08-0.014-2.15-0.077-3.214-0.158
	c1.498-1.97,1.183-4.602,1.183-7.095c0.001-10.123-0.656-20.191-0.705-30.345c-0.057-11.364-0.217-22.689,0.522-34.023
	c0.328-5.027,1.11-10.051,0.954-15.096c-0.018-0.565-0.74-8.364-1.203-11.899c1.827-0.021,3.596-0.281,4.936-1.228
	c4.849-3.423,4.127-13.542,3.147-19.168c7.359-0.151,14.706-0.489,22.067-0.78c5.171-0.204,10.842-0.499,11.274-6.647
	C512.03,133.251,512.679,125.119,509.754,120.681z M52.061,57.591c0.886-2.651,3.03-2.92,5.076-3.373
	c0.369-0.081,2.715-0.075,3.224-0.287c-0.1,0.867,0.324,5.156,0.311,5.045c0.163,1.303,0.886,2.027,2.197,2.197
	c2.927,0.38,6.799,1.696,9.27-0.637c2.246-2.121,1.565-5.679,1.36-8.663c2.531-0.205,5.053,0.125,7.584-0.066
	c0.448,0.495,0.154,1.391,0.13,3.191c-0.079,5.849,1.12,6.859,6.914,6.679c2.47-0.077,4.518-0.823,5.096-3.404
	c0.405-1.809-0.535-6.743,1.735-7.58c0.847-0.313,2.263-0.106,3.212-0.263c0.835-0.138,2.373-0.672,3.19-0.28
	c2.18,1.047,1.26,7.542,1.648,9.609c0.112,0.596,0.722,1.19,1.312,1.31c1.485,0.304,2.995,0.101,4.51,0.052
	c0.399-0.013,0.724-0.129,0.992-0.302c0.456-0.123,0.915-0.355,1.38-0.751c0.75-0.639,1.028-1.421,1.315-2.305
	c0.526-1.618-0.475-5.501,0.473-6.616c0.788-0.927,5.622-1.138,6.698-0.592c2.36,1.198,1.679,3.682,1.793,5.713
	c0.129,2.296,0.525,4.299,2.899,4.977c2.029,0.58,6.075-0.198,7.869-1.303c2.557-1.575,2.109-3.98,1.98-6.642
	c-0.045-0.933-0.773-2.272-0.14-3.135c0.458-0.625,1.403-0.587,2.135-0.66c1.446-0.145,3.746-0.471,5.103,0.199
	c1.406,0.693,0.598,1.804,0.472,3.699c-0.1,1.498-0.153,2.987,0.061,4.471c0.098,0.673,0.833,1.333,1.473,1.473
	c3.043,0.666,7.605,1.353,9.248-2.031c0.916-1.889-0.903-5.941,1.105-7.335c0.702-0.487,3.491-0.316,5.676-0.302
	c0.938,0.291,1.679,0.801,1.994,1.679c0.688,1.917-0.781,4.173,0.399,6.324c1.845,3.366,6.303,1.954,9.459,1.3
	c1.672-0.347,3.196-1.02,3.427-2.862c0.229-1.827-0.469-3.649,0.348-5.385c0.673-1.431,1.796-1.534,3.243-1.363
	c-0.093,0.002,5.055-0.047,4.85-0.127c2.959,1.157,0.693,4.298,1.376,6.609c1.04,3.526,5.697,3.516,8.876,2.572
	c1.596-0.473,2.596-1.49,2.835-3.145c0.209-1.446-0.388-2.886-0.217-4.331c0.216-1.826,1.136-1.484,2.512-1.483
	c1.428,0,4.647-1.153,4.831,0.932c0.133,1.512-0.238,3.107,0.045,4.621c0.877,4.705,4.03,3.65,8.276,3.444
	c0.849-0.041,1.806-0.604,1.983-1.51c0.322-1.648-0.171-3.445,0.014-5.122c0.073-0.663,0.14-1.412,0.819-1.712
	c0.547-0.243,4.3-0.078,4.742,0.287c0.077,0.063,0.14,0.131,0.178,0.209c0.637,1.307-0.927,4.13-0.41,5.671
	c1.078,3.209,6.429,2.68,9.076,2.075c1.997-0.456,3.002-1.55,3.232-3.551c0.104-0.9,0.096-1.809,0.278-2.7
	c0.167-0.815,0.328-2.433,1.045-2.88c1.281-0.797,5.159-0.619,5.903,0.921c0.67,1.386-0.356,5.042-0.172,6.645
	c0.146,1.275,1.092,2.065,2.147,2.056c3.499,2.047,9.833,0.231,11.077-3.591c0.36-1.103,0.127-2.31,0.113-3.436
	c-0.158-1.036-0.185-2.08-0.081-3.134c2.535-1.225,4.715-0.698,6.539,1.58c0.886,1.815-0.41,4.054,0.278,5.873
	c1.506,3.982,8.371,3.568,11.536,2.011c0.054,0.046,0.11,0.092,0.164,0.138c1.478,1.242,3.403,0.369,3.616-1.498
	c0.184-1.604-0.842-5.259-0.172-6.645c0.744-1.54,4.622-1.718,5.903-0.921c0.718,0.447,0.879,2.065,1.045,2.88
	c0.183,0.892,0.173,1.8,0.278,2.7c0.23,2.003,1.235,3.096,3.232,3.551c2.647,0.605,7.998,1.135,9.076-2.075
	c0.517-1.54-1.047-4.364-0.41-5.671c0.038-0.078,0.101-0.146,0.178-0.209c0.442-0.364,4.195-0.53,4.742-0.287
	c0.678,0.301,0.745,1.05,0.819,1.712c0.185,1.677-0.308,3.475,0.014,5.122c0.177,0.906,1.133,1.468,1.983,1.51
	c4.246,0.206,7.398,1.261,8.276-3.444c0.283-1.514-0.088-3.108,0.045-4.621c0.184-2.085,3.403-0.932,4.831-0.932
	c1.376,0,2.296-0.343,2.512,1.483c0.171,1.446-0.426,2.885-0.217,4.331c0.239,1.655,1.24,2.673,2.835,3.145
	c3.18,0.944,7.837,0.954,8.876-2.572c0.682-2.313-1.583-5.452,1.376-6.609c-0.205,0.08,4.943,0.13,4.85,0.127
	c1.447-0.171,2.57-0.067,3.243,1.363c0.817,1.735,0.119,3.558,0.348,5.385c0.23,1.842,1.755,2.516,3.427,2.862
	c3.156,0.655,7.614,2.066,9.459-1.3c1.179-2.151-0.289-4.407,0.399-6.324c0.315-0.877,1.057-1.387,1.994-1.679
	c2.185-0.014,4.975-0.185,5.676,0.302c2.009,1.394,0.189,5.446,1.105,7.335c1.643,3.385,6.204,2.697,9.248,2.031
	c0.64-0.14,1.376-0.8,1.473-1.473c0.215-1.484,0.162-2.974,0.061-4.471c-0.127-1.894-0.934-3.005,0.472-3.699
	c1.357-0.67,3.657-0.344,5.103-0.199c0.731,0.073,1.677,0.035,2.135,0.66c0.631,0.862-0.096,2.202-0.14,3.135
	c-0.127,2.662-0.576,5.068,1.981,6.642c1.794,1.105,5.842,1.884,7.869,1.303c2.374-0.678,2.77-2.681,2.899-4.977
	c0.113-2.031-0.566-4.515,1.793-5.713c1.076-0.546,5.91-0.336,6.698,0.592c0.948,1.116-0.053,4.997,0.473,6.616
	c0.288,0.883,0.565,1.665,1.315,2.305c0.465,0.396,0.923,0.629,1.38,0.751c0.268,0.173,0.593,0.289,0.992,0.302
	c1.516,0.05,3.025,0.254,4.51-0.052c0.59-0.12,1.199-0.715,1.312-1.31c0.388-2.067-0.532-8.561,1.648-9.609
	c0.816-0.393,2.355,0.142,3.19,0.28c0.948,0.157,2.365-0.05,3.212,0.263c2.27,0.837,1.33,5.772,1.735,7.58
	c0.578,2.582,2.628,3.327,5.096,3.404c5.792,0.18,6.993-0.83,6.912-6.679c-0.024-1.801-0.318-2.696,0.13-3.191
	c2.531,0.191,5.053-0.139,7.584,0.066c-0.205,2.984-0.886,6.542,1.36,8.663c2.471,2.334,6.343,1.017,9.27,0.637
	c1.311-0.17,2.036-0.894,2.197-2.197c-0.014,0.111,0.412-4.179,0.311-5.045c0.509,0.211,2.855,0.205,3.224,0.287
	c2.045,0.453,4.19,0.722,5.076,3.373c0.303,0.908,0.158,2.657,0.146,3.622c-0.024,1.731-0.251,2.755-0.057,4.019
	c-0.861,0.021-1.718,0.028-2.565-0.005c-3.847-0.15-7.633-0.627-11.492-0.716c-9.544-0.219-19.093-0.171-28.636-0.374
	c-4.426-0.094-8.787-0.906-13.218-0.817c-4.228,0.085-8.16,0.526-12.412,0.171c-8.522-0.712-17.16-0.013-25.722-0.784
	c-17.855-1.608-36.024-1.481-53.953-1.473c-14.414,0.006-28.714-0.969-43.042-0.263c-4.264-0.044-8.566-0.198-12.81,0.022
	c-3.804,0.198-7.97,0.052-12.173,0.027c-14.659-0.803-29.283,0.221-44.027,0.213c-17.929-0.008-36.098-0.134-53.953,1.473
	c-8.561,0.77-17.199,0.072-25.722,0.784c-4.251,0.355-8.185-0.086-12.412-0.171c-4.431-0.088-8.792,0.723-13.219,0.817
	c-9.543,0.203-19.091,0.155-28.636,0.374c-3.859,0.088-7.645,0.566-11.492,0.716c-0.847,0.033-1.704,0.026-2.565,0.005
	c0.195-1.263-0.034-2.288-0.057-4.019C51.902,60.248,51.758,58.499,52.061,57.591z M42.895,71.857
	c-0.33-1.243,0.261-2.224,1.775-2.945c0.992-0.474,4.803-0.039,5.921-0.044c9.576-0.035,19.086-0.138,28.685-0.046
	c5.123,0.05,10.266,0.229,15.388,0.133c4.758-0.088,9.441-0.967,14.208-0.729c9.16,0.458,18.243,0.415,27.472,0.098
	c19.347-0.665,38.552-1.842,57.925-1.842c8.765,0,17.677,0.443,26.422-0.092c3.644-0.223,7.291-0.336,10.938-0.434
	c7.894,1.401,17.028,0.407,24.538,0.116c8.019-0.311,16.815,0.98,24.968-0.094c3.387,0.094,6.776,0.205,10.161,0.413
	c8.745,0.535,17.657,0.092,26.422,0.092c19.373,0,38.578,1.178,57.925,1.842c9.23,0.317,18.311,0.36,27.472-0.098
	c4.768-0.238,9.451,0.64,14.208,0.729c5.123,0.096,10.266-0.084,15.388-0.133c9.599-0.093,19.11,0.011,28.687,0.046
	c1.118,0.005,4.929-0.432,5.921,0.044c1.514,0.721,2.105,1.703,1.775,2.945c-1.025,2.331-2.628,3.267-4.81,2.811
	c-1.23,0.256-2.428,0.372-3.614,0.478c-0.492-0.126-0.995-0.234-1.528-0.297c-5.304-0.631-11.116,0.472-16.485,0.438
	c-4.518-0.028-9.071-0.209-13.581,0.047c-9.843,0.56-19.432-0.728-29.22-0.692c-21.614,0.079-43.086-2.463-64.713-1.448
	c-15.063,0.705-30.545,0.085-45.751,1.044c-4.381-0.262-8.756-0.091-13.26-0.14c-6.704-0.074-13.333-0.024-20.029,0.046
	c-8.579,0.09-17.251,0.565-25.824,0.33c-3.465-0.096-7.089-0.41-10.68-0.4c-14.24-0.715-28.682-0.221-42.758-0.88
	c-21.627-1.013-43.099,1.529-64.713,1.448c-9.788-0.035-19.376,1.253-29.22,0.692c-4.51-0.256-9.064-0.075-13.581-0.047
	c-5.367,0.034-11.18-1.069-16.483-0.438c-0.533,0.064-1.038,0.171-1.529,0.297c-1.185-0.107-2.384-0.222-3.614-0.478
	C45.524,75.124,43.921,74.187,42.895,71.857z M50.537,87.871c-0.032-1.622-0.81-2.36-0.218-4.232
	c1.201-3.797,4.24-3.023,7.253-2.868c3.939,0.202,7.855,0.356,11.791,0.422c-0.011,0.993-0.011,1.988,0.008,2.987
	c-0.38,9.894,0.765,19.77,0.458,29.614c-7.052,0.051-14.102,0.107-21.164,0.105C51.186,105.855,50.701,96.209,50.537,87.871z
	 M73.299,98.866c-0.08-5.839,0.09-11.76-0.329-17.598c8.435,0.149,16.828,0.98,25.257,0.309c0.54-0.044,1.08-0.074,1.621-0.111
	c-0.007,0.902-0.002,1.808,0.014,2.715c-0.38,9.905,0.768,19.793,0.458,29.647c-1.744-0.038-3.488-0.077-5.234-0.09
	c-6.983-0.048-13.949-0.015-20.912,0.031C74.177,108.806,73.367,103.835,73.299,98.866z M103.787,98.866
	c-0.08-5.844,0.091-11.769-0.329-17.612c7.31-0.351,14.609-0.294,21.963-0.406c1.641-0.025,3.286-0.088,4.931-0.15
	c-0.02,1.157-0.025,2.318-0.002,3.483c-0.389,10.146,0.833,20.276,0.439,30.369c-2.326,0.068-4.645,0.098-6.948,0.034
	c-6.405-0.177-12.788-0.456-19.182-0.649C104.684,108.917,103.856,103.891,103.787,98.866z M134.275,98.866
	c-0.083-6.077,0.12-12.247-0.369-18.317c6.234-0.31,12.479-0.795,18.662-1.261c2.766-0.209,5.543-0.285,8.325-0.291
	c-0.006,0.054-0.018,0.103-0.02,0.16c-0.065,1.662-0.067,3.34-0.037,5.023c-0.379,9.861,0.757,19.704,0.46,29.515
	c-4.24,0.131-8.479,0.256-12.746,0.246c-4.451-0.011-8.936,0.243-13.409,0.443C135.224,109.218,134.346,104.042,134.275,98.866z
	 M164.764,98.866c-0.084-6.118,0.126-12.327-0.376-18.435c0.042-0.259,0.075-0.521,0.123-0.781c0.041-0.226,0.04-0.43,0.021-0.624
	c6.231,0.117,12.471,0.513,18.657,0.658c2.7,0.063,5.423,0.145,8.156,0.228c-0.04,1.415-0.046,2.839-0.02,4.268
	c-0.374,9.73,0.725,19.444,0.469,29.124c-5.572,0.048-11.143,0.112-16.716,0.106c-3.16-0.004-6.303,0.072-9.442,0.162
	C165.622,108.675,164.831,103.77,164.764,98.866z M195.251,98.866c-0.084-6.118,0.126-12.327-0.376-18.435
	c0.022-0.137,0.044-0.274,0.065-0.41c8.926,0.264,17.96,0.454,26.889,0.038c-0.035,1.368-0.041,2.742-0.017,4.123
	c-0.381,9.934,0.776,19.853,0.455,29.735c-5.712-0.392-11.431-0.611-17.127-0.65c-3.004-0.02-6.009-0.012-9.013,0.006
	C196.082,108.475,195.318,103.67,195.251,98.866z M225.74,98.866c-0.084-6.118,0.126-12.327-0.376-18.435
	c0.032-0.193,0.06-0.388,0.092-0.583c1.274-0.085,2.549-0.163,3.817-0.278c0.004,0,0.007,0,0.009,0
	c7.622,0.561,15.364,0.405,23.038,0.405c-0.038,1.395-0.044,2.798-0.019,4.206c-0.395,10.303,0.88,20.59,0.427,30.838
	c-0.011,0.248,0.024,0.466,0.078,0.67c-4.247-0.057-8.486,0.007-12.723,0.027c-4.473-0.599-8.969-1.086-13.475-1.466
	C226.672,109.127,225.81,103.996,225.74,98.866z M256.228,98.866c-0.084-6.118,0.126-12.327-0.376-18.435
	c0.024-0.147,0.047-0.294,0.07-0.441c0.061,0.001,0.123,0,0.184,0.001c8.715,0.086,17.794,0.519,26.702-0.024
	c-0.039,1.398-0.045,2.802-0.019,4.213c-0.377,9.853,0.755,19.688,0.461,29.49c-3.479,0.248-7.007,0.875-10.133,1.036
	c-5.38,0.276-10.755,0.793-16.14,0.942c0.061-0.193,0.106-0.399,0.113-0.631C257.261,109.641,256.302,104.253,256.228,98.866z
	 M286.717,98.866c-0.084-6.118,0.126-12.327-0.376-18.435c0.032-0.192,0.06-0.384,0.091-0.578c8.89,0.599,17.914,0.511,26.862,0.272
	c-0.034,1.346-0.04,2.697-0.015,4.055c-0.373,9.716,0.722,19.414,0.471,29.082c-2.3-0.008-4.6-0.011-6.9,0.005
	c-5.651,0.039-11.322,0.257-16.987,0.642c-0.741-0.143-1.501-0.225-2.273-0.278C287.581,108.714,286.784,103.789,286.717,98.866z
	 M317.204,98.866c-0.084-6.118,0.126-12.327-0.376-18.435c0.022-0.136,0.044-0.271,0.064-0.407
	c3.997-0.118,7.975-0.248,11.908-0.338c4.978-0.117,9.991-0.396,15.006-0.564c-0.001,0.013-0.004,0.024-0.005,0.037
	c-0.065,1.662-0.067,3.34-0.035,5.023c-0.376,9.8,0.742,19.583,0.465,29.332c-2.434-0.06-4.872-0.104-7.321-0.101
	c-6.277,0.006-12.554-0.074-18.83-0.121C318.036,108.486,317.27,103.675,317.204,98.866z M347.693,98.866
	c-0.084-6.118,0.126-12.327-0.376-18.435c0.042-0.259,0.075-0.521,0.123-0.781c0.041-0.226,0.04-0.43,0.021-0.624
	c3.998-0.075,7.99-0.038,11.962,0.262c4.92,0.37,9.88,0.752,14.843,1.052c-0.028,1.275-0.034,2.555-0.011,3.84
	c-0.386,10.059,0.809,20.101,0.446,30.108c-3.76-0.176-7.523-0.355-11.262-0.347c-4.979,0.012-9.924-0.156-14.872-0.307
	C348.558,108.717,347.76,103.79,347.693,98.866z M378.181,98.866c-0.083-6.083,0.121-12.258-0.37-18.332
	c2.924,0.149,5.846,0.27,8.758,0.314c6.081,0.092,12.124,0.07,18.168,0.256c-0.013,1.023-0.013,2.047,0.006,3.077
	c-0.382,9.964,0.783,19.91,0.453,29.821c-5.679,0.188-11.354,0.423-17.045,0.581c-3.013,0.084-6.053,0.014-9.101-0.105
	C379.142,109.28,378.253,104.072,378.181,98.866z M408.67,98.866c-0.08-5.846,0.091-11.775-0.33-17.622
	c1.807,0.085,3.615,0.188,5.424,0.333c7.163,0.571,14.298,0.054,21.456-0.206c-0.008,0.934-0.005,1.871,0.012,2.811
	c-0.38,9.881,0.762,19.746,0.459,29.576c-6.254-0.038-12.511-0.063-18.782-0.019c-2.459,0.017-4.913,0.064-7.367,0.129
	C409.558,108.871,408.738,103.868,408.67,98.866z M439.157,98.866c-0.08-5.838,0.09-11.757-0.329-17.594
	c0.593-0.012,1.185-0.028,1.779-0.032c4.621-0.029,9.196-0.232,13.809-0.468c3.013-0.154,6.053-0.928,7.253,2.868
	c0.591,1.872-0.186,2.61-0.218,4.232c-0.163,8.338-0.647,17.985,1.872,26.028c-7.773,0.002-15.532-0.065-23.293-0.12
	C440.037,108.813,439.226,103.839,439.157,98.866z M39.377,157.523c-1.519-3.564-1.31-7.845-1.846-11.727
	c0.1,0.001,0.201,0.005,0.301,0.006c3.694,0.033,7.329-0.073,10.994-0.237c-0.451,1.952-0.327,3.991-0.349,6.056
	c-0.029,2.715-0.545,5.891-0.091,8.696C44.791,160.542,40.738,160.716,39.377,157.523z M61.565,160.179
	c-2.742,0.001-5.485,0.006-8.228,0.006c-0.079-0.143-0.162-0.284-0.283-0.415c-0.086-0.093-0.178-0.16-0.27-0.228
	c-0.436-2.549-0.042-5.403-0.212-7.922c-0.048-0.719-0.808-4.384-0.932-6.166c3.57-0.073,7.157,0.504,10.742,0.643
	c-0.134,0.629-0.189,1.264-0.186,2.024c0.006,1.775-0.436,3.433-0.545,5.217C61.509,155.692,61.267,157.964,61.565,160.179z
	 M62.721,165.925c20.658,0.014,41.337-1.254,61.96-1.046c15.685,0.158,31.279,0.158,46.859-0.476
	c-0.305,2.512-1.6,7.849-1.678,8.583c-0.472,4.445-0.126,9.024-0.443,13.497c-0.635,8.933,0.183,17.808-0.526,26.763
	c-0.749,9.459-0.931,19.543-0.451,29.017c0.29,5.732,2.792,14.931-0.885,20.017c-2.163,0.333-4.231,1.03-6.507,1.303
	c-4.584,0.551-9.329,0.54-13.942,0.532c-9.249-0.017-18.438,0.012-27.715,0.017c-20.01,0.011-39.879-2.076-59.885-2.108
	c-2.514-0.004-5.132,0.218-7.634,0.021c-3.42-0.268-4.722-0.219-4.956-3.664c-0.278-4.113,0.007-8.182,0.323-12.272
	c0.773-9.978-0.05-20.173,0.052-30.181c0.098-9.781-0.498-19.688-1.38-29.431c-0.412-4.553-0.692-8.816-0.605-13.399
	c0.047-2.454,0.046-4.8-0.466-7.091c0.86-0.053,1.685-0.105,2.432-0.103C52.422,165.917,57.571,165.921,62.721,165.925z
	 M77.162,160.168c-3.576,0.002-7.152,0.004-10.728,0.007c-0.394-2.704-0.63-5.623-0.285-8.255c0.297-2.272-0.004-3.848-0.688-5.781
	c3.968,0.033,7.947,0.001,11.932-0.047c-0.223,2.476-0.171,4.949-0.328,7.461C76.932,155.701,76.615,158.071,77.162,160.168z
	 M92.873,156.639c0.105,1.116-0.005,2.276,0.005,3.383c-3.597,0.071-7.196,0.126-10.796,0.137c0.055-2.569-0.361-5.37-0.583-7.875
	c-0.186-2.115-0.592-4.173-1.054-6.227c4.378-0.061,8.762-0.133,13.142-0.167C93.006,149.442,92.541,153.119,92.873,156.639z
	 M111.737,159.53c-4.471,0.129-8.942,0.259-13.413,0.372c0.024-0.164,0.055-0.324,0.06-0.495c0.051-1.682-0.454-3.344-0.586-5.02
	c-0.226-2.878-0.423-5.687-0.782-8.515c5.232-0.012,10.457,0.065,15.665,0.294c-0.653,2.579-0.967,5.071-1.097,7.882
	C111.503,155.839,111.333,157.802,111.737,159.53z M129.521,159.133c-4.221,0.058-8.439,0.14-12.656,0.252
	c0.104-1.738-0.357-3.655-0.441-5.338c-0.126-2.537-0.196-5.159-0.405-7.711c1.462,0.086,2.925,0.171,4.384,0.289
	c3.607,0.29,7.214,0.288,10.823,0.196c-0.315,0.942-0.81,1.8-1.045,2.816c-0.388,1.684-0.305,3.53-0.421,5.245
	C129.666,156.272,129.416,157.748,129.521,159.133z M145.166,159.181c-2.776-0.066-5.546-0.121-8.294-0.119
	c-0.731,0.001-1.461,0.018-2.193,0.021c0.044-2.132-0.112-4.361-0.342-6.424c-0.223-1.996-0.222-3.949-0.383-5.918
	c4.243-0.153,8.488-0.372,12.736-0.368c-0.002,0.029-0.001,0.058-0.005,0.087c-0.257,2.163-0.986,4.234-1.353,6.372
	C145.011,154.705,144.624,157.167,145.166,159.181z M160.22,155.822c0.09,1.026,0.17,2.302,0.381,3.546
	c-3.359,0.058-6.74,0.014-10.123-0.061c-0.018-0.061-0.027-0.121-0.052-0.185c-1.031-2.728-0.29-6.225-0.414-9.104
	c-0.051-1.171-0.119-2.439-0.349-3.605c0.854,0.025,1.707,0.06,2.56,0.111c3.052,0.185,6.12,0.231,9.193,0.218
	C161.128,149.736,159.955,152.795,160.22,155.822z M164.782,146.705c3.298-0.06,6.598-0.172,9.893-0.267
	c-0.017,1.054,0.159,2.106,0.116,3.18c-0.054,1.329-0.322,2.59-0.574,3.887c-0.271,1.4-0.728,3.373-0.709,5.182
	c-2.661,0.185-5.318,0.367-7.973,0.506c0.011-1.756-0.446-3.637-0.573-5.22C164.756,151.429,165.035,149.052,164.782,146.705z
	 M182.322,458.565c-0.906,0.399-2.95-0.21-4.001-0.172c-1.741,0.064-3.371,0.475-5.108,0.59c-3.342,0.221-6.8,0.541-10.148,0.55
	c-13.66,0.034-27.302,1.86-40.944,1.691c-15.992-0.197-32.001,0.289-47.931,0.105c-14.01-0.162-28.93,1.357-42.762-1.225
	c0.078-0.583,0.152-1.166,0.264-1.728c0.758-3.83,2.412-5.509,6.379-6.079c2.822-0.406,5.469-1.214,8.151-2.034
	c2.468,0.21,5.045,0.098,6.934,0.318c9.998,1.168,20.679,1.028,30.668,0.448c2.695-0.157,5.333,0.557,8,0.522
	c2.233-0.029,4.394-0.553,6.665-0.501c5.95,0.134,11.883,0.54,17.851,0.598c10.675,0.104,21.246,0.723,31.962-0.064
	c6.825-0.5,13.744,0.479,20.571-0.177c0.816-0.078,1.606-0.153,2.374-0.245c0.262,0.17,0.557,0.29,0.886,0.326
	c2.726,0.287,7.446-0.868,9.947,0.673c0.134,0.865,0.741,1.622,1.52,1.911C184.229,455.798,183.783,457.923,182.322,458.565z
	 M44.593,359.47c-0.015-4.453,0.559-8.791,0.605-13.188c0.058-5.633-0.638-11.286-0.651-16.937
	c-0.014-5.915,0.018-11.829-0.029-17.744c-0.047-5.904,0.57-11.769,0.379-17.647c-0.117-3.583,0.218-7.447-0.683-10.953
	c3.588,0.171,7.166,0.363,10.786,0.493c10.708,0.383,21.275,0.729,32.019,0.283c10.086-0.419,20.03-1.186,30.181-1.161
	c10.716,0.027,21.352-0.508,32.036-0.497c8.667,0.009,17.395-0.179,26.067,0.098c-0.169,0.829-0.36,1.651-0.427,2.407
	c-0.255,2.871-0.521,5.792-0.696,8.676c-0.402,6.625-0.624,13.377-0.633,20.013c-0.022,15.316,1.019,30.481,0.995,45.756
	c-0.012,7.635-0.685,15.45-0.123,23.063c0.103,1.394,0.166,2.79,0.217,4.188c-14.379,0.939-28.845-0.112-43.261-0.36
	c2.779-2.808,3.379-7.461,1.807-10.985c-1.55-3.475-2.256-4.777,0.899-7.703c1.868-1.733,4.05-3.526,4.689-6.148
	c0.513-2.104-0.162-4.088-1.461-5.743c-0.61-0.776-5.969-3.679-5.993-3.793c0.015,0.078,4.413-6.844,4.734-7.965
	c0.138-0.481,0.218-0.938,0.257-1.381c1.289-4.405-0.375-8.919-3.3-12.633c-1.664-2.113-3.404-4.056-5.865-5.207
	c-1.516-0.709-3.687-0.938-4.347-2.812c-0.643-1.828,1.151-5.888,1.396-7.91c0.657-5.436-0.598-10.372-6.069-12.545
	c-2.3-0.913-4.55-0.657-6.826,0.209c-1.209,0.46-2.161,1.22-3.304,1.805c-3.344,1.71-4.365,0.907-7.487,0.234
	c-4.562-0.984-10.123,0.269-13.474,3.629c-4.575,4.589-3.467,10.974-1.959,16.64c1.052,3.95,2.798,6.299,0.08,9.694
	c-1.801,2.249-3.104,4.129-3.59,7.108c-0.445,2.72-0.026,5.987,0.956,8.559c0.441,1.155,1.42,2.181,1.773,3.338
	c1.017,3.339-0.704,3.425-2.888,4.839c-5.201,3.368-7.467,9.3-4.952,15.079c1.543,3.544,4.136,6.149,6.889,8.762
	c1.343,1.275,2.576,2.702,4.042,3.84c0.606,0.472,1.584,0.902,2.486,1.34c-1.332,0.079-2.645,0.305-3.734,0.89
	c-7.99-0.748-16.087,0.451-24.111,0.178c-5.49-0.188-10.934-0.31-16.442-0.126c-0.671,0.022-1.322,0.008-1.945,0.028
	c0.127-4.527,0.432-9.051,0.861-13.382C44.966,369.061,44.608,364.228,44.593,359.47z M134.586,444.852
	c0.798-7.87,0.443-16.27,0.484-24.173c0.038-7.523,0.196-15.246-0.635-22.761c4.411,0.145,8.821,0.408,13.234,0.783
	c4.857,0.413,9.678-0.261,14.475-0.276c4.358-0.013,8.513,0.591,12.835,0.008c0.064,1.28,0.14,2.559,0.258,3.834
	c0.692,7.529,0.836,15.583,0.809,23.145c-0.011,2.864,1.987,17.735-1.657,19.415c-3.281,0.488-7.397,0.278-10.155,0.33
	c-5.74,0.106-11.658-0.485-17.368,0.112c-4.11,0.429-8.212,0.506-12.312,0.439c0.001-0.005,0.002-0.009,0.004-0.015
	C134.631,445.412,134.635,445.126,134.586,444.852z M133.703,393.773c-0.278-1.736-0.547-3.259-1.109-4.502
	c5.47,0.364,10.987,0.258,16.519,0.282c8.338,0.037,17.284,1.169,25.614-0.042c0.033,1.524,0.061,3.048,0.097,4.571
	c-5.024,0.889-9.975-0.373-14.941,0.172c-5.482,0.602-10.828-0.061-16.285-0.278C140.289,393.846,136.994,393.79,133.703,393.773z
	 M129.665,445.575c-3.352-0.129-6.704-0.307-10.057-0.432c-11.131-0.413-22.239-0.511-33.345-0.502
	c-0.09-8.119-0.198-16.233-0.204-24.355c-0.005-5.84,1.006-12.781-0.499-18.629c-0.025-0.459-0.054-0.919-0.096-1.378
	c-0.058-0.65-0.077-1.124-0.127-1.46c3.222-0.243,6.441-0.546,9.655-0.677c6.147-0.251,12.351,0.414,18.491,0.04
	c5.819-0.355,11.629-0.462,17.435-0.357c-0.807,7.574-0.458,15.247-0.653,22.852c-0.213,8.282-0.434,16.539-0.604,24.824
	C129.659,445.528,129.665,445.55,129.665,445.575z M86.482,394.673c0.303-1.319,0.285-2.759,1.203-3.847
	c1.191-1.413,5.719-0.644,7.506-0.716c2.746-0.111,5.419-0.59,8.18-0.587c5.753,0.006,11.557-0.208,17.304-0.009
	c1.558,0.054,5.497-0.245,6.942,0.806c0.66,0.481,1.047,2.014,1.394,3.458c-6.054,0.04-12.101,0.189-18.188,0.304
	c-5.602,0.106-11.279-0.367-16.868-0.012C91.464,394.227,88.973,394.461,86.482,394.673z M127.403,367.202
	c-1.094,1.968-1.08,3.595-0.597,5.701c0.373,1.623,1.597,3.105,1.961,4.65c0.698,2.964-2.169,5.057-2.833,7.887
	c-0.028,0.12-0.024,0.229-0.033,0.343c-7.094-0.841-14.402-0.259-21.523-0.288c-3.224-0.013-6.408,0.31-9.613,0.519
	c2.044-2.318,1.507-6.404-0.256-9.034c-0.219-0.327-0.465-0.622-0.702-0.926c1.086-0.841,2.753-1.341,3.92-1.553
	c1.153-0.21,2.062-0.124,3.118,0.287c0.998,0.388,1.692,0.833,2.765,0.452c0.515-0.183,0.9-0.708,0.724-1.275
	c-1.657-5.352-9.966-3.459-12.569-0.255c-0.758-0.795-1.529-1.583-2.257-2.44c-1.838-2.162-0.961-2.559-0.084-4.676
	c0.359-0.865,0.711-0.451,0.584-1.42c-0.07-0.525-0.682-0.74-1.005-0.272c-0.024,0.034-1.628,0.259-1.841,0.362
	c-0.732,0.349-1.572,1.222-1.967,1.913c-0.866,1.513-0.558,3.089,0.176,4.59c1.151,2.359,3.359,3.837,4.974,5.836
	c1.684,2.085,1.889,3.627,1.678,5.402c-2.386-2.995-5.98-5.372-8.354-8.165c-3.791-4.461-4.956-10.511,0.525-14.172
	c1.698-1.135,3.688-1.527,4.736-3.41c0.987-1.771,0.626-3.554-0.094-5.389c-1.195-3.042-3.13-5.905-3.173-9.138
	c0.315,0.098,0.658,0.193,0.712,0.208c0.436,0.119,0.889,0.198,1.314,0.355c1.137,0.42,1.856,1.228,2.618,2.123
	c0.559,0.656,1.171,1.387,2.137,1.146c0.932-0.232,1.308-1.197,1.281-2.071c-0.073-2.364-2.415-4.268-4.505-4.942
	c-0.773-0.249-1.727-0.505-2.651-0.573c1.376-2.498,4.166-3.253,5.173-5.968c0.932-2.509-0.129-5.044-0.859-7.416
	c-1.119-3.636-2.995-8.861-1.997-12.627c1.131-4.268,6.108-6.513,10.212-6.254c1.733,0.109,3.411,0.895,5.129,1.141
	c1.773,0.908,3.828,1.886,4.865,3.388c2.226,3.223-0.747,5.885-0.859,9.136c-0.029,0.852,1.071,1.258,1.651,0.684
	c3.495-3.458,5.231-7.564,2.141-11.959c-0.682-0.969-1.691-1.849-2.847-2.505c3.076-1.721,6.086-4.093,9.077-0.591
	c4.941,5.785-3.649,14.293,1.006,19.939c1.409,1.71,3.378,1.766,5.244,2.648c1.043,0.493,2.111,1.245,3.101,2.165
	c-0.377,0.211-0.697,0.526-0.842,0.945c-0.87,2.499-1.665,4.254-3.588,6.16c-1.103,1.094-2.72,3.832-4.374,3.993
	c-0.436,0.042-0.524,0.605-0.103,0.761c2.242,0.829,5.003-1.043,6.724-2.305c2.047-1.503,4.173-3.965,4.647-6.605
	c1.681,2.635,2.435,5.739,0.985,8.348c-0.348,0.625-0.393,1.233-0.251,1.773c-0.139,0.311-0.267,0.625-0.423,0.929
	c-0.863,1.667-2.631,3.421-3.479,5.305c-1.155,0.629-2.241,1.69-2.77,2.407c-1.626,2.2-3.229,5.319-1.326,7.842
	c0.427,0.566,1.182,0.618,1.599,0c0.62-0.918,0.522-1.979,0.995-2.943c0.376-0.764,1.021-1.576,1.508-2.28
	c0.136-0.196,0.288-0.372,0.446-0.539c2.188,2.509,7.222,3.254,4.716,7.809C131.049,364.208,128.504,365.222,127.403,367.202z
	 M50.195,390.154c4.718,0.034,9.36,0.409,14.068,0.452c5.981,0.054,13.129,0.705,19.473-0.218c-0.329,1.424-0.244,3.025,0.005,4.496
	c-2.018,0.149-4.037,0.274-6.061,0.297c-6.002,0.07-12.01,0.084-18.013,0.08c-5.274-0.004-10.753-0.144-16.036,0.305
	c-0.067-1.847-0.087-3.715-0.071-5.589C45.748,390.221,47.973,390.137,50.195,390.154z M43.942,400.742
	c-0.059-0.648-0.097-1.307-0.142-1.961c11.512,1.074,23.327,0.493,34.908,0.379c1.008-0.009,2.017-0.052,3.024-0.104
	c-0.455,2.404-0.178,5.112-0.184,7.408c-0.005,1.937,0.08,3.804,0.228,5.656c0.047,2.808,0.196,5.592,0.156,8.166
	c-0.125,8.112-0.219,16.25,0.077,24.361c-6.562,0.019-13.124,0.066-19.693,0.101c-5.056,0.027-10.144-0.574-15.172-1.071
	c-2.688-0.265-2.499-0.074-2.911-2.802c-0.41-2.72-0.232-5.467-0.166-8.205C44.322,422.181,44.888,411.188,43.942,400.742z
	 M180.228,282.434c0.835,0.046,1.671,0.087,2.504,0.145c0.502,0.035,1.014,0.088,1.529,0.146c-0.031,1.392,0.075,2.802,0.124,4.164
	c0.146,4.104,0.166,8.189,0.146,12.304c-0.032,6.621,0.176,13.168,0.347,19.762c0.192,7.429,0.842,14.881,1.168,22.304
	c0.342,7.823,0.173,15.7,0.73,23.533c0.504,7.078,0.59,14.305,0.69,21.377c0.123,8.719,0.563,17.811-0.336,26.487
	c-0.731,7.049-0.755,14.615-0.721,21.692c0.015,3.275-0.221,6.546-1.104,9.736c-0.295,1.067-0.776,1.994-1.283,2.906
	c-1.11-0.348-2.313-0.504-3.552-0.526c0.863-1.398,1.425-3.032,1.664-4.494c1.296-7.927-0.209-17.015-0.601-24.972
	c-0.418-8.46-0.552-17.103-0.439-25.566c0.055-4.142-0.791-8.138-0.873-12.273c-0.087-4.4,0.178-8.81,0.18-13.212
	c0.012-17.605-1.117-35.026-1.149-52.636c-0.014-7.585,0.127-15.456,0.775-23.005C180.205,288.21,180.594,285.135,180.228,282.434z
	 M191.422,272.461c-0.544,7.154-6.432,4.246-11.319,3.985c-21.229-1.135-42.713,0.653-63.944,0.63
	c-19.901-0.021-39.499,2.297-59.383,1.23c-4.774-0.256-9.58-0.224-14.356-0.425c-2.23-0.094-4.602-0.241-6.829-0.092
	c-2.721,0.18-2.759,1.389-3.493-1.113c-0.673-2.293-0.748-5.55,1.245-7.19c2.272-1.867,7.098-1.004,9.873-1.391
	c1.466-0.204,2.972-0.441,4.439-0.8c2.152,0.427,4.465,0.448,6.396,0.486c21.821,0.433,43.52,2.168,65.339,2.18
	c10.593,0.006,20.966,0.218,31.541,0.02c4.966-0.093,13.61,0.58,18.473-2.571c4.732-0.256,9.458-0.467,14.192-0.481
	c1.52-0.005,5.185-0.616,6.51,0.017C191.822,267.762,191.555,270.705,191.422,272.461z M238.236,193.416
	c-6.12,0.578-13.205,5.667-17.69,8.236c-3.601,2.063-7.113,4.228-10.519,6.615c-3.246,2.275-5.109,5.207-7.566,8.265
	c-5.47,6.81-7.601,14.632-11.123,22.314c-3.15,6.874-5.689,15.18-4.753,22.906c-0.401,0.027-0.793,0.048-1.17,0.053
	c-3.657,0.045-7.177,0.565-10.755,1.008c0.1-0.222,0.185-0.456,0.271-0.691c0.387-0.046,0.747-0.268,0.813-0.684
	c1.612-10.168,2.766-19.683,6.432-29.419c3.009-7.99,8.115-14.918,13.206-21.676c6.126-8.134,13.766-13.864,22.799-18.5
	c3.886-1.994,8.376-3.601,12.679-4.437c2.5-0.486,5.095-0.451,7.549-1.059C238.395,188.709,238.338,191.064,238.236,193.416z
	 M238.263,173.993c0.058,2.536,0.103,5.08,0.131,7.625c-0.071,0.008-0.137,0.006-0.21,0.02
	c-17.612,3.263-33.864,10.216-44.886,25.154c-7.834,10.618-15.319,22.581-18.425,35.524c-0.272-7.063-0.267-14.153-0.331-21.221
	c-0.046-5.042,0.401-10.019,0.347-15.049c-0.058-5.385-0.795-10.858-0.574-16.207c0.232-5.642-0.272-11.461,0.278-17.058
	c0.28-2.84,0.382-5.731-0.304-8.487c2.485-0.113,4.971-0.242,7.456-0.392c9.847-0.593,19.816,0.203,29.633,0.819
	c8.744,0.548,18.573,0.76,27.381-0.82c0.044,0.251,0.093,0.497,0.151,0.736C238.25,167.744,238.196,171.087,238.263,173.993z
	 M178.628,146.339c1.267-0.026,2.532-0.05,3.795-0.058c2.129-0.014,4.255-0.024,6.383-0.033c-0.326,2.783-0.796,5.56-1.04,8.361
	c-0.094,1.085-0.425,2.223-0.564,3.339c-2.803,0.074-5.597,0.217-8.383,0.393C178.875,154.571,180.466,149.587,178.628,146.339z
	 M201.613,156.147c0.111,0.651,0.35,1.451,0.691,2.231c-3.26-0.222-6.52-0.405-9.788-0.462c0.164-1.495,0.283-2.943,0.157-4.553
	c-0.189-2.397-0.635-4.755-0.942-7.128c3.436-0.013,6.868-0.021,10.3-0.032c-0.051,0.999-0.073,2.005-0.154,2.984
	C201.686,151.429,201.231,153.908,201.613,156.147z M215.573,159.296c-0.795-0.031-1.587-0.067-2.376-0.121
	c-1.727-0.119-3.451-0.25-5.174-0.381c-0.009-0.191-0.031-0.381-0.091-0.552c-0.471-1.334-1.128-2.529-1.315-3.943
	c-0.171-1.29-0.057-2.681-0.152-3.986c-0.109-1.49-0.322-2.813-0.65-4.121c3.654-0.012,7.308-0.029,10.961-0.053
	C215.916,150.334,214.393,155.373,215.573,159.296z M229.951,159.411c-3.207-0.079-6.434-0.027-9.644-0.031
	c0.561-2.223,0.189-4.773,0.111-6.994c-0.077-2.182-0.13-4.207-0.294-6.278c3.725-0.031,7.449-0.08,11.176-0.138
	c0.106,0.007,0.211,0.011,0.317,0.017c-1.131,2.135-1.462,4.718-1.757,7.06C229.596,155.149,229.406,157.359,229.951,159.411z
	 M239.943,156.831c-0.698,0.798-1.103,1.979-1.276,3.275c-1.238-0.191-2.485-0.324-3.738-0.432c0.321-2.459-0.071-5.14,0.002-7.604
	c0.063-2.089,0.316-4.123-0.456-5.934c3.551,0.164,7.091,0.245,10.646,0.366c-0.515,2.174-1.356,5.679-0.814,8.245
	C242.514,155.125,240.878,155.762,239.943,156.831z M259.866,154.475c-2.936-0.055-5.865-0.184-8.794-0.236
	c-0.651-0.012-1.449-0.012-2.314,0.019c0.029-0.732-0.024-1.481-0.067-2.2c-0.114-1.843-0.386-3.666-0.773-5.47
	c4.346,0.146,8.715,0.159,13.075,0.087c-0.476,1.446-0.736,3.011-0.978,4.452C259.864,152.027,259.664,153.355,259.866,154.475z
	 M249.991,158.904c4.011-0.074,9.352-0.594,13.264,0.203c3.763,0.767,4.3,2.704,4.958,4.838c-0.005,0.208,0.001,0.418,0.001,0.626
	c-3.649-0.934-8.176,0.372-11.861,0.209c-4.223-0.186-8.386-0.195-12.582,0.098c0.017-1.288-0.044-2.555-0.291-3.756
	C244.7,158.913,246.95,158.961,249.991,158.904z M265.833,200.867c-2.106,1.631-7.525,0.576-9.951,0.521
	c-2.314-0.053-8.593,0.593-10.724-0.703c-0.605-0.368-1.148-1.688-1.592-3.156c2.943,0.364,7.396-0.176,8.322-0.126
	c3.766,0.204,7.457-0.02,11.233,0.084c1.492,0.041,2.906,0.248,4.282,0.255C267.133,198.994,266.768,200.143,265.833,200.867z
	 M268.625,173.993c-0.392,6.576-0.638,13.247-0.359,19.846c-5.159-0.436-10.341,0.231-15.521,0.054
	c-2.71-0.092-6.12-0.526-8.795,0.065c-0.057,0.012-0.138,0.047-0.23,0.09c0.294-6.666,0.041-13.41-0.355-20.055
	c-0.11-1.839,0.081-3.844,0.239-5.868c3.756,0.727,8.019,0.13,11.689,0.321c3.917,0.203,9.126,0.735,13.071-0.565
	C268.527,169.989,268.739,172.08,268.625,173.993z M269.615,155.629c-1.608-1.11-3.552-1.191-5.458-1.159
	c0.653-2.3,0.35-5.929,0.329-7.871c0.556-0.014,1.111-0.024,1.664-0.041c3.176-0.097,6.292-0.052,9.397-0.146
	c-0.589,2.446-0.492,4.957-0.778,7.481c-0.191,1.684-0.767,4.174-0.256,6.054c-0.649,0.085-1.296,0.173-1.941,0.283
	C272.038,158.346,271.081,156.641,269.615,155.629z M273.096,163.879c8.842,1.605,18.729,1.393,27.518,0.841
	c9.816-0.616,19.786-1.413,29.633-0.819c2.485,0.15,4.97,0.278,7.456,0.392c-0.686,2.756-0.584,5.647-0.304,8.487
	c0.55,5.596,0.045,11.417,0.278,17.058c0.221,5.35-0.517,10.822-0.574,16.207c-0.054,5.031,0.393,10.007,0.347,15.049
	c-0.065,7.069-0.059,14.159-0.33,21.221c-3.105-12.944-10.591-24.906-18.425-35.524c-11.022-14.938-27.274-21.891-44.886-25.154
	c-0.073-0.013-0.139-0.012-0.21-0.02c0.028-2.545,0.073-5.089,0.131-7.625c0.066-2.901,0.013-6.238-0.643-9.342
	C273.096,164.398,273.099,164.139,273.096,163.879z M291.684,159.379c-4.113,0.006-8.252-0.083-12.344,0.134
	c0.316-2.277,0.144-4.978,0.045-7.117c-0.091-1.927-0.423-4.149-1.011-6.127c1.041-0.07,2.083-0.159,3.127-0.291
	c3.456,0.051,6.913,0.099,10.366,0.127c-0.164,2.071-0.216,4.096-0.294,6.278C291.496,154.606,291.123,157.156,291.684,159.379z
	 M295.216,146.137c3.654,0.025,7.306,0.041,10.961,0.053c-0.328,1.307-0.541,2.631-0.65,4.121c-0.096,1.306,0.019,2.696-0.152,3.986
	c-0.186,1.414-0.843,2.609-1.315,3.943c-0.06,0.171-0.081,0.361-0.091,0.552c-1.723,0.131-3.447,0.261-5.174,0.381
	c-0.789,0.054-1.583,0.092-2.376,0.121C297.597,155.373,296.074,150.334,295.216,146.137z M310.115,149.187
	c-0.083-0.979-0.104-1.984-0.155-2.984c3.432,0.009,6.864,0.019,10.3,0.032c-0.307,2.373-0.754,4.732-0.942,7.128
	c-0.126,1.61-0.007,3.057,0.157,4.553c-3.268,0.058-6.529,0.241-9.788,0.462c0.341-0.781,0.579-1.58,0.691-2.231
	C310.76,153.908,310.304,151.429,310.115,149.187z M333.172,158.339c-2.786-0.177-5.58-0.318-8.383-0.393
	c-0.139-1.115-0.468-2.254-0.564-3.339c-0.244-2.801-0.715-5.576-1.04-8.361c2.126,0.009,4.253,0.019,6.383,0.033
	c1.263,0.008,2.529,0.032,3.795,0.058C331.524,149.587,333.115,154.571,333.172,158.339z M361.564,159.123
	c-0.024,0.064-0.033,0.123-0.052,0.185c-3.384,0.075-6.765,0.119-10.123,0.061c0.212-1.244,0.291-2.519,0.381-3.546
	c0.264-3.029-0.908-6.086-1.198-9.08c3.074,0.014,6.141-0.033,9.193-0.218c0.854-0.052,1.708-0.086,2.56-0.111
	c-0.23,1.168-0.298,2.434-0.349,3.605C361.854,152.897,362.595,156.394,361.564,159.123z M387.311,164.879
	c20.622-0.208,41.3,1.06,61.959,1.046c5.149-0.004,10.299-0.008,15.449-0.021c0.747-0.002,1.572,0.05,2.432,0.103
	c-0.512,2.29-0.513,4.636-0.466,7.091c0.087,4.583-0.193,8.847-0.605,13.399c-0.882,9.743-1.478,19.65-1.379,29.431
	c0.1,10.01-0.721,20.203,0.051,30.181c0.317,4.09,0.603,8.159,0.323,12.272c-0.234,3.445-1.536,3.397-4.956,3.664
	c-2.503,0.196-5.12-0.026-7.634-0.021c-20.006,0.033-39.877,2.118-59.885,2.108c-9.277-0.005-18.466-0.034-27.715-0.017
	c-4.614,0.008-9.357,0.019-13.942-0.532c-2.276-0.274-4.344-0.971-6.507-1.303c-3.676-5.086-1.175-14.285-0.885-20.017
	c0.48-9.475,0.298-19.558-0.451-29.017c-0.709-8.955,0.107-17.83-0.526-26.763c-0.318-4.473,0.028-9.052-0.443-13.497
	c-0.078-0.734-1.374-6.069-1.678-8.583C356.03,165.036,371.625,165.037,387.311,164.879z M366.658,152.832
	c-0.367-2.139-1.096-4.209-1.353-6.372c-0.004-0.029-0.002-0.058-0.005-0.087c4.248-0.004,8.494,0.215,12.736,0.368
	c-0.162,1.97-0.16,3.923-0.383,5.918c-0.23,2.063-0.386,4.292-0.342,6.424c-0.731-0.004-1.461-0.021-2.193-0.021
	c-2.749-0.002-5.518,0.054-8.294,0.119C367.366,157.167,366.979,154.705,366.658,152.832z M382.23,154.882
	c-0.117-1.715-0.034-3.561-0.421-5.245c-0.234-1.015-0.729-1.873-1.045-2.816c3.609,0.092,7.217,0.094,10.823-0.196
	c1.459-0.118,2.921-0.203,4.384-0.289c-0.209,2.552-0.278,5.174-0.405,7.711c-0.084,1.682-0.545,3.6-0.441,5.338
	c-4.216-0.112-8.435-0.195-12.656-0.252C382.574,157.748,382.324,156.272,382.23,154.882z M413.667,159.902
	c-4.472-0.112-8.942-0.244-13.413-0.372c0.403-1.727,0.235-3.69,0.152-5.482c-0.129-2.811-0.443-5.303-1.097-7.882
	c5.209-0.229,10.434-0.307,15.665-0.294c-0.357,2.829-0.554,5.639-0.782,8.515c-0.132,1.676-0.637,3.337-0.586,5.02
	C413.611,159.577,413.644,159.738,413.667,159.902z M418.402,145.888c4.382,0.034,8.764,0.105,13.142,0.167
	c-0.462,2.055-0.868,4.113-1.056,6.227c-0.222,2.505-0.638,5.306-0.581,7.875c-3.601-0.011-7.199-0.066-10.796-0.137
	c0.009-1.106-0.1-2.267,0.005-3.383C419.451,153.119,418.984,149.442,418.402,145.888z M445.841,151.921
	c0.344,2.631,0.109,5.55-0.285,8.255c-3.576-0.004-7.152-0.005-10.728-0.007c0.547-2.097,0.231-4.468,0.098-6.615
	c-0.157-2.512-0.104-4.984-0.328-7.461c3.984,0.048,7.963,0.08,11.932,0.047C445.844,148.073,445.544,149.649,445.841,151.921z
	 M459.206,159.542c-0.092,0.067-0.183,0.134-0.27,0.228c-0.121,0.131-0.203,0.272-0.283,0.415c-2.743,0-5.485-0.004-8.228-0.006
	c0.297-2.215,0.055-4.488-0.087-6.842c-0.107-1.783-0.551-3.441-0.544-5.217c0.002-0.761-0.052-1.396-0.186-2.024
	c3.585-0.139,7.172-0.716,10.742-0.643c-0.124,1.782-0.883,5.447-0.932,6.166C459.248,154.139,459.641,156.993,459.206,159.542z
	 M347.029,153.974c-0.129,1.583-0.584,3.464-0.573,5.22c-2.655-0.139-5.312-0.321-7.973-0.506c0.019-1.809-0.438-3.782-0.709-5.182
	c-0.251-1.297-0.52-2.558-0.574-3.887c-0.044-1.074,0.132-2.126,0.116-3.18c3.294,0.096,6.595,0.206,9.893,0.267
	C346.955,149.052,347.236,151.429,347.029,153.974z M320.652,238.846c-3.522-7.683-5.653-15.504-11.123-22.314
	c-2.457-3.058-4.319-5.989-7.566-8.265c-3.407-2.388-6.918-4.554-10.519-6.615c-4.485-2.569-11.57-7.658-17.689-8.236
	c-0.101-2.352-0.16-4.708-0.172-7.067c2.456,0.609,5.049,0.573,7.549,1.059c4.302,0.836,8.792,2.443,12.679,4.437
	c9.032,4.636,16.672,10.366,22.799,18.5c5.089,6.758,10.196,13.686,13.206,21.676c3.667,9.736,4.82,19.251,6.432,29.419
	c0.066,0.416,0.426,0.638,0.813,0.684c0.086,0.235,0.171,0.469,0.271,0.691c-3.578-0.445-7.098-0.965-10.755-1.008
	c-0.377-0.005-0.769-0.026-1.17-0.053C326.341,254.027,323.803,245.72,320.652,238.846z M331.966,290.306
	c0.647,7.551,0.789,15.421,0.775,23.005c-0.032,17.61-1.159,35.031-1.149,52.636c0.004,4.403,0.268,8.813,0.18,13.212
	c-0.081,4.135-0.928,8.131-0.873,12.273c0.113,8.463-0.02,17.106-0.439,25.566c-0.394,7.957-1.898,17.046-0.602,24.972
	c0.239,1.462,0.801,3.097,1.664,4.494c-1.525,0.028-2.996,0.255-4.301,0.802c-4.334-3.04-2.635-11.849-2.654-16.302
	c-0.033-7.724-0.131-15.45-0.127-23.173c0.002-7.125,0.754-14.169,0.722-21.317c-0.033-7.6-0.475-15.178-0.492-22.786
	c-0.029-13.264,1.307-26.258,1.784-39.503c0.255-7.054-0.709-14.093-0.301-21.118c0.232-3.998,0.085-7.959,0.203-11.962
	c0.083-2.851,0.452-5.502,0.259-8.257c0.89-0.1,1.776-0.211,2.642-0.271c0.834-0.058,1.669-0.099,2.504-0.145
	C331.397,285.135,331.785,288.21,331.966,290.306z M473.92,452.296c3.968,0.57,5.621,2.249,6.379,6.079
	c0.111,0.563,0.186,1.145,0.264,1.728c-13.832,2.583-28.752,1.064-42.762,1.225c-15.931,0.184-31.939-0.302-47.931-0.105
	c-13.642,0.169-27.284-1.658-40.944-1.691c-3.348-0.008-6.806-0.329-10.148-0.55c-1.737-0.114-3.367-0.527-5.108-0.59
	c-1.051-0.038-3.095,0.57-4.001,0.172c-2.037-0.894-2.113-4.676-0.026-6.234c2.419-1.806,7.391-0.546,10.217-0.843
	c0.328-0.034,0.623-0.156,0.885-0.326c0.768,0.092,1.558,0.167,2.374,0.245c6.828,0.656,13.746-0.323,20.571,0.177
	c10.716,0.785,21.288,0.166,31.962,0.064c5.969-0.058,11.9-0.464,17.851-0.598c2.269-0.052,4.432,0.473,6.664,0.501
	c2.668,0.035,5.306-0.678,8-0.522c9.99,0.58,20.67,0.718,30.668-0.448c1.888-0.221,4.465-0.11,6.934-0.318
	C468.451,451.083,471.098,451.891,473.92,452.296z M467.474,311.6c-0.047,5.914-0.014,11.829-0.029,17.744
	c-0.014,5.653-0.71,11.306-0.651,16.937c0.045,4.397,0.619,8.735,0.605,13.188c-0.017,4.758-0.374,9.591,0.096,14.326
	c0.429,4.331,0.734,8.855,0.861,13.382c-0.623-0.021-1.274-0.006-1.945-0.028c-5.508-0.184-10.953-0.061-16.442,0.126
	c-8.022,0.274-16.119-0.926-24.109-0.178c-1.089-0.585-2.402-0.811-3.734-0.89c0.903-0.438,1.88-0.868,2.486-1.34
	c1.466-1.138,2.698-2.565,4.042-3.84c2.752-2.612,5.346-5.218,6.889-8.762c2.516-5.778,0.25-11.709-4.952-15.079
	c-2.184-1.414-3.905-1.5-2.888-4.839c0.353-1.157,1.332-2.183,1.773-3.338c0.982-2.572,1.401-5.839,0.956-8.559
	c-0.487-2.979-1.79-4.858-3.59-7.108c-2.717-3.394-0.972-5.742,0.08-9.694c1.508-5.667,2.616-12.051-1.959-16.64
	c-3.351-3.36-8.913-4.613-13.474-3.629c-3.122,0.673-4.144,1.477-7.487-0.234c-1.144-0.585-2.095-1.345-3.305-1.805
	c-2.276-0.866-4.528-1.122-6.826-0.209c-5.472,2.172-6.727,7.109-6.069,12.545c0.244,2.021,2.039,6.082,1.396,7.91
	c-0.659,1.874-2.832,2.104-4.346,2.812c-2.461,1.151-4.201,3.094-5.865,5.207c-2.925,3.714-4.588,8.228-3.3,12.633
	c0.039,0.445,0.12,0.901,0.257,1.381c0.321,1.12,4.719,8.042,4.734,7.965c-0.024,0.114-5.383,3.017-5.993,3.793
	c-1.3,1.654-1.974,3.638-1.461,5.743c0.639,2.622,2.821,4.416,4.689,6.148c3.155,2.926,2.45,4.228,0.899,7.703
	c-1.572,3.524-0.972,8.177,1.808,10.985c-14.416,0.248-28.881,1.299-43.261,0.36c0.051-1.396,0.113-2.793,0.217-4.188
	c0.564-7.613-0.111-15.428-0.123-23.063c-0.024-15.276,1.018-30.44,0.995-45.756c-0.009-6.635-0.231-13.389-0.633-20.013
	c-0.175-2.884-0.442-5.805-0.697-8.676c-0.067-0.756-0.258-1.578-0.427-2.407c8.671-0.277,17.399-0.088,26.067-0.098
	c10.684-0.012,21.32,0.524,32.036,0.497c10.152-0.026,20.096,0.742,30.181,1.161c10.744,0.447,21.311,0.1,32.018-0.283
	c3.62-0.13,7.198-0.322,10.786-0.493c-0.901,3.506-0.566,7.37-0.683,10.953C466.904,299.831,467.52,305.696,467.474,311.6z
	 M467.921,432.671c0.066,2.739,0.244,5.485-0.166,8.205c-0.412,2.728-0.223,2.538-2.911,2.802
	c-5.028,0.495-10.116,1.098-15.171,1.071c-6.568-0.035-13.132-0.083-19.693-0.101c0.296-8.111,0.203-16.249,0.077-24.361
	c-0.04-2.575,0.109-5.358,0.156-8.166c0.149-1.853,0.234-3.72,0.228-5.656c-0.006-2.296,0.271-5.004-0.183-7.408
	c1.007,0.052,2.016,0.093,3.024,0.104c11.581,0.114,23.396,0.696,34.908-0.379c-0.045,0.656-0.083,1.315-0.142,1.961
	C467.103,411.188,467.669,422.181,467.921,432.671z M452.323,395.258c-6.003,0.005-12.011-0.011-18.013-0.08
	c-2.024-0.024-4.043-0.147-6.061-0.297c0.249-1.471,0.335-3.072,0.005-4.496c6.344,0.925,13.492,0.274,19.473,0.218
	c4.709-0.042,9.351-0.418,14.068-0.452c2.222-0.017,4.448,0.067,6.633-0.178c0.017,1.874-0.004,3.742-0.071,5.589
	C463.074,395.114,457.597,395.254,452.323,395.258z M425.931,420.287c-0.006,8.12-0.116,16.236-0.204,24.355
	c-11.106-0.008-22.213,0.09-33.345,0.502c-3.353,0.124-6.704,0.303-10.057,0.432c0-0.025,0.006-0.047,0.005-0.072
	c-0.17-8.285-0.39-16.544-0.604-24.824c-0.196-7.605,0.153-15.278-0.653-22.852c5.806-0.105,11.616,0.002,17.435,0.357
	c6.14,0.375,12.344-0.291,18.491-0.04c3.213,0.131,6.431,0.434,9.655,0.677c-0.052,0.336-0.07,0.81-0.127,1.46
	c-0.041,0.459-0.071,0.918-0.096,1.378C424.925,407.506,425.936,414.447,425.931,420.287z M387.864,352.467
	c-0.53-0.716-1.616-1.777-2.77-2.407c-0.848-1.884-2.617-3.638-3.479-5.305c-0.157-0.304-0.284-0.619-0.423-0.929
	c0.14-0.54,0.097-1.148-0.251-1.773c-1.452-2.609-0.697-5.713,0.985-8.348c0.474,2.64,2.599,5.102,4.647,6.605
	c1.721,1.263,4.482,3.134,6.723,2.305c0.421-0.156,0.334-0.717-0.103-0.761c-1.655-0.162-3.272-2.899-4.374-3.993
	c-1.922-1.906-2.717-3.662-3.588-6.16c-0.146-0.419-0.465-0.734-0.842-0.945c0.99-0.919,2.058-1.672,3.101-2.165
	c1.866-0.882,3.834-0.938,5.244-2.648c4.655-5.647-3.934-14.154,1.006-19.939c2.99-3.5,6.001-1.129,9.076,0.591
	c-1.155,0.656-2.165,1.536-2.846,2.505c-3.091,4.397-1.354,8.502,2.141,11.959c0.58,0.574,1.681,0.167,1.651-0.684
	c-0.112-3.25-3.084-5.912-0.859-9.136c1.037-1.503,3.092-2.48,4.865-3.388c1.718-0.245,3.397-1.032,5.129-1.14
	c4.104-0.258,9.083,1.987,10.212,6.254c0.998,3.766-0.877,8.989-1.997,12.627c-0.73,2.372-1.79,4.906-0.859,7.416
	c1.007,2.714,3.797,3.469,5.173,5.968c-0.925,0.068-1.879,0.324-2.652,0.573c-2.091,0.673-4.433,2.577-4.505,4.942
	c-0.026,0.875,0.348,1.839,1.281,2.071c0.965,0.241,1.577-0.489,2.136-1.146c0.763-0.895,1.481-1.703,2.618-2.123
	c0.425-0.157,0.877-0.236,1.314-0.355c0.054-0.014,0.397-0.11,0.712-0.208c-0.044,3.234-1.979,6.096-3.173,9.138
	c-0.721,1.835-1.082,3.617-0.094,5.389c1.05,1.882,3.038,2.275,4.736,3.41c5.48,3.661,4.315,9.711,0.525,14.172
	c-2.374,2.794-5.969,5.171-8.354,8.165c-0.211-1.775-0.006-3.316,1.678-5.402c1.615-1.998,3.822-3.477,4.974-5.836
	c0.732-1.501,1.04-3.077,0.176-4.59c-0.395-0.691-1.235-1.564-1.967-1.913c-0.213-0.101-1.819-0.328-1.841-0.362
	c-0.323-0.467-0.935-0.254-1.005,0.272c-0.127,0.969,0.225,0.556,0.584,1.42c0.877,2.117,1.754,2.513-0.084,4.676
	c-0.728,0.857-1.499,1.645-2.257,2.44c-2.603-3.203-10.911-5.097-12.569,0.255c-0.176,0.567,0.209,1.092,0.724,1.275
	c1.072,0.381,1.767-0.064,2.764-0.452c1.057-0.412,1.965-0.497,3.12-0.287c1.166,0.212,2.834,0.712,3.92,1.553
	c-0.238,0.304-0.484,0.599-0.702,0.926c-1.764,2.631-2.301,6.717-0.257,9.034c-3.206-0.209-6.389-0.532-9.613-0.519
	c-7.121,0.029-14.429-0.553-21.523,0.288c-0.009-0.114-0.005-0.223-0.033-0.343c-0.665-2.829-3.532-4.923-2.833-7.887
	c0.364-1.545,1.589-3.026,1.961-4.65c0.484-2.106,0.498-3.732-0.597-5.701c-1.1-1.98-3.646-2.995-4.663-4.846
	c-2.505-4.556,2.529-5.301,4.716-7.809c0.159,0.167,0.31,0.343,0.446,0.539c0.487,0.704,1.131,1.516,1.508,2.28
	c0.474,0.964,0.375,2.024,0.997,2.943c0.418,0.618,1.172,0.566,1.599,0C391.093,357.787,389.49,354.666,387.864,352.467z
	 M424.306,390.826c0.918,1.089,0.901,2.527,1.203,3.847c-2.492-0.212-4.982-0.446-7.474-0.604
	c-5.589-0.355-11.266,0.118-16.868,0.012c-6.087-0.114-12.134-0.264-18.188-0.304c0.347-1.442,0.734-2.977,1.394-3.458
	c1.445-1.052,5.384-0.752,6.942-0.806c5.748-0.198,11.551,0.015,17.304,0.009c2.761-0.002,5.435,0.476,8.18,0.587
	C418.587,390.182,423.115,389.413,424.306,390.826z M379.396,389.273c-0.563,1.242-0.83,2.766-1.109,4.502
	c-3.291,0.017-6.586,0.072-9.895,0.204c-5.457,0.217-10.803,0.88-16.285,0.278c-4.965-0.545-9.916,0.717-14.941-0.172
	c0.035-1.524,0.064-3.048,0.097-4.571c8.331,1.21,17.276,0.079,25.614,0.042C368.408,389.531,373.926,389.637,379.396,389.273z
	 M336.752,402.266c0.118-1.276,0.195-2.555,0.258-3.834c4.323,0.583,8.479-0.021,12.835-0.008c4.797,0.014,9.618,0.688,14.475,0.276
	c4.413-0.375,8.824-0.638,13.234-0.783c-0.83,7.515-0.672,15.239-0.635,22.761c0.04,7.903-0.315,16.303,0.484,24.173
	c-0.048,0.275-0.046,0.56,0.027,0.841c0.001,0.005,0.002,0.009,0.004,0.015c-4.1,0.067-8.203-0.009-12.312-0.439
	c-5.711-0.597-11.628-0.005-17.368-0.112c-2.757-0.052-6.874,0.158-10.155-0.33c-3.644-1.681-1.646-16.552-1.657-19.415
	C335.916,417.85,336.06,409.795,336.752,402.266z M478.646,269.486c1.992,1.639,1.919,4.897,1.245,7.19
	c-0.736,2.504-0.773,1.295-3.493,1.113c-2.227-0.149-4.597-0.001-6.828,0.092c-4.774,0.201-9.581,0.169-14.356,0.425
	c-19.884,1.067-39.482-1.251-59.383-1.23c-21.23,0.024-42.715-1.764-63.944-0.63c-4.886,0.262-10.775,3.169-11.319-3.985
	c-0.133-1.757-0.4-4.699,1.315-5.516c1.326-0.632,4.99-0.021,6.51-0.017c4.734,0.014,9.46,0.225,14.192,0.481
	c4.863,3.151,13.505,2.478,18.473,2.571c10.576,0.198,20.949-0.014,31.541-0.02c21.819-0.012,43.518-1.746,65.339-2.18
	c1.931-0.038,4.243-0.06,6.396-0.486c1.467,0.359,2.972,0.596,4.439,0.8C471.547,268.483,476.375,267.619,478.646,269.486z
	 M472.615,157.523c-1.361,3.193-5.415,3.019-9.011,2.793c0.454-2.805-0.06-5.98-0.091-8.696c-0.024-2.065,0.101-4.104-0.349-6.056
	c3.664,0.164,7.301,0.27,10.994,0.237c0.1-0.001,0.201-0.005,0.301-0.006C473.925,149.677,474.134,153.959,472.615,157.523z
	 M504.98,139.229c-2.827,1.465-8.744,0.158-11.871,0.131c-7.934-0.068-15.844,0.459-23.806,0.38
	c-33.597-0.334-67.403-0.414-101.033-0.468c-8.104-0.013-16.205,0.734-24.322,0.941c-9.053,0.23-18.151-0.169-27.196,0.301
	c-15.322,0.796-30.601,0.147-45.938,0.381c-7.926-0.33-15.931,0.309-23.927,0.113c-0.452-0.011-0.903-0.011-1.355-0.018
	c-16.801-0.462-33.522,0.395-50.295-0.476c-9.044-0.469-18.142-0.071-27.196-0.301c-8.117-0.206-16.218-0.954-24.322-0.941
	c-33.63,0.054-67.436,0.136-101.033,0.468c-7.962,0.079-15.872-0.448-23.806-0.38c-3.127,0.027-9.043,1.334-11.871-0.131
	c-1.845-0.955-1.324-0.991-1.311-3.449c0.013-2.419,0.071-4.611,0.616-6.966c0.944-4.078,2.963-4.721,6.73-5.255
	c3.865-0.548,7.913-1.319,11.813-1.446c8.071-0.263,15.927-1.617,24.066-1.676c16.148-0.117,32.221-0.771,48.389-0.882
	c8.125-0.055,16.212,0.249,24.331,0.407c7.514,0.146,14.915-0.593,22.441-0.596c19.584-0.004,39.114-0.767,58.745-0.711
	c2.851,0.008,5.689,0.098,8.525,0.215c5.359,1.488,12.208,1.241,17.2,1.642c8.41,0.677,16.827,0.67,25.271,0.723
	c4.515,0.028,9.044-0.264,13.564-0.585c5.14,0.072,10.189-0.526,15.529-0.816c8.752-0.475,17.453-1.153,26.243-1.179
	c19.632-0.055,39.162,0.708,58.746,0.711c7.526,0.001,14.927,0.742,22.441,0.596c8.12-0.158,16.206-0.462,24.331-0.407
	c16.167,0.11,32.24,0.765,48.389,0.882c8.138,0.059,15.995,1.413,24.066,1.676c3.9,0.127,7.947,0.898,11.813,1.446
	c3.767,0.534,5.786,1.177,6.731,5.255c0.545,2.354,0.602,4.545,0.616,6.966C506.306,138.237,506.824,138.273,504.98,139.229z"/>
<path d="M401.324,330.9c0.421-0.624,1.794-1.944,2.479-2.294c1.107-0.566,0.472-0.203,1.524-0.182
	c2.059,0.042,3.738,0.019,5.768-0.505c2.382-0.613,4.213-2.059,4.298-4.693c0.144-4.51-3.957-9.168-8.565-8.478
	c-0.866,0.13-0.767,1.454,0,1.652c1.678,0.435,3.452,2.919,4.136,4.427c1.153,2.546-0.124,2.577-2.474,2.839
	c-2.798,0.311-5.093-0.887-7.365,1.464c-1.398,1.446-2.161,3.953-1.136,5.767C400.289,331.433,401.009,331.367,401.324,330.9z"/>
<path d="M395.323,378.554c0.416,0.052,0.755-0.54,0.501-0.874c-0.785-1.032-1.067-3.153-1.485-4.416
	c-1.064-3.227-0.515-5.93,1.56-8.504c1.86-2.305,3.814-4.555,5.672-6.862c0.756,0.903,1.467,1.838,2.195,2.78
	c-3.342,1.921-5.557,5.645-6.5,9.39c-0.978,3.89,0.941,11.118,6.056,10.549c0.334-0.037,0.704-0.426,0.441-0.769
	c-2.315-3.031-3.491-8.065-1.829-11.515c0.938-1.945,2.301-3.674,3.636-5.408c0.047,0.057,0.091,0.113,0.139,0.169
	c2.197,2.559,6.361,6.516,9.99,3.892c4.369-3.158,1.353-9.907-0.899-13.215c-1.02-1.5-2.162-2.744-3.37-3.894
	c0.316-1.306,2.315-6.71,2.497-7.368c0.5-1.817,1.26-3.929,0.461-5.768c-0.866-1.994-3.819-6.254-6.271-4.104
	c-0.264,0.232-0.259,0.631-0.119,0.921c0.589,1.214,1.582,2.223,2.216,3.436c0.984,1.876,0.61,3.072,0.068,5.101
	c-0.499,1.865-1.215,3.687-1.402,5.514c-0.993-0.847-2.006-1.711-3.017-2.641c2.513-2.085,0.994-7.004-1.104-8.963
	c-0.315-0.294-0.923-0.104-0.896,0.371c0.041,0.731-0.151,1.393-0.195,2.116c-0.042,0.714,0.162,1.375,0.188,2.079
	c0.027,0.711-0.131,1.389-0.261,2.064c-2.808-3.275-4.334-6.826-5.634-11.198c-0.158-0.534-0.828-0.461-1.012,0
	c-5.018,12.489,12.647,18.407,16.696,27.757c2.807,6.481-1.876,4.389-4.069,1.977c-1.74-1.913-2.635-4.304-4.337-6.249
	c-3.383-3.866-7.806-6.785-12.815-7.907c-0.771-0.172-1.715,0.534-1.394,1.394c1.162,3.116,4.122,3.893,6.693,5.777
	c0.629,0.461,1.189,0.951,1.725,1.453c-1.669,0.982-2.976,2.28-4.291,4.154c-1.939,2.762-4.764,5.023-5.277,8.54
	C389.384,371.745,391.253,378.052,395.323,378.554z"/>
<path d="M403.857,321.918c-0.075,0-0.075,0.118,0,0.118C403.932,322.036,403.932,321.918,403.857,321.918z"/>
<path d="M358.94,245.058c3.719,2.196,10.507,1.985,14.701,2.085c14.726,0.354,29.441,0.528,44.208,0.602
	c6.89,0.034,13.639-1.018,20.495-1.013c4.279,0.004,9.585,0.552,13.291-1.979c3.589-2.452,4.468-5.589,4.465-9.841
	c-0.004-6.603-1.091-13.337-1.425-19.947c-0.327-6.461-0.847-12.764-1.659-19.201c-0.425-3.362-1.353-6.613-4.739-8.093
	c-2.272-0.993-4.859-0.718-7.245-0.664c-3.306,0.075-6.618-0.113-9.931-0.119c-6.904-0.013-13.809,0.124-20.714,0.142
	c-1.36,0.004-2.724,0.035-4.089,0.081c-2.92-0.166-5.837-0.331-8.742-0.525c-6.429-0.427-12.674,0.048-19.104-0.098
	c-3.518-0.08-7.029-0.026-10.519,0.468c-3.17,0.449-7.109,0.4-10.028,1.562c-3.847,1.53-3.782,5.206-4.015,8.79
	c-0.42,6.493-0.39,13.029-0.991,19.506c-0.48,5.179-0.85,11.382,0.374,16.468C354.202,237.145,355.202,242.851,358.94,245.058z
	 M357.815,221.596c0.105-5.588,0.342-11.215,0.499-16.823c0.078-2.798-0.384-10.358,2.668-11.781
	c2.047-0.954,5.728-0.849,7.969-1.145c2.836-0.374,5.642-0.43,8.501-0.4c0.907,0.009,1.792,0,2.675-0.012
	c7.499,0.807,15.441,0.703,22.569,0.219c6.456-0.438,12.83-0.315,19.314-0.239c5.903,0.068,12.107,0.896,17.936,0.498
	c4.613-0.316,8.038,0.259,8.691,5.537c0.297,2.4,0.758,4.792,1.006,7.2c0.478,4.673,0.559,9.314,0.78,14.011
	c0.245,5.228,0.795,11.069,0.511,16.25c-0.344,6.29-5.129,6.6-10.685,6.629c-10.48,0.057-20.896,1.08-31.424,1.086
	c-6.32,0.004-12.635,0.098-18.953,0.156c-5.146,0.047-10.214-0.778-15.337-0.73c-5.779,0.054-13.455-0.075-15.299-6.475
	C357.851,230.785,357.722,226.543,357.815,221.596z"/>
<path d="M364.565,232.811c3.024,6.103,12.452,4.646,17.958,5.172c10.327,0.987,20.917,0.311,31.252-0.165
	c5.225-0.242,10.518-0.584,15.75-0.455c3.992,0.099,8.446,0.711,12.276-0.738c6.622-2.506,4.326-11.518,4.026-16.993
	c-0.326-5.952,0.329-16.566-5.417-20.604c-2.347-1.65-5.619-1.427-8.406-1.552c-4.301-0.192-8.699-0.638-12.975-0.594
	c-3.345,0.034-6.687,0.147-10.031,0.281c-9.979-1.04-19.971-1.028-30.004-0.376c-6.264,0.407-15.723,0.856-16.539,8.709
	c-0.532,5.114-0.269,10.933,0.243,16.053C363.063,225.197,362.891,229.434,364.565,232.811z M372.679,201.828
	c3.755-0.748,7.515-1.308,11.371-1.571c6.048-0.413,12.14-0.138,18.217-0.085c5.01,0.257,10.021,0.488,15.05,0.485
	c3.951-0.002,7.816,0.531,11.791,0.537c4.871,0.007,9.112-0.643,11.098,4.423c1.574,4.015,1.391,8.729,1.635,13.029
	c0.131,2.315-0.08,4.632,0.026,6.948c0.153,3.312,0.971,3.523-2.155,5.689c-4.267,2.957-9.961,1.372-15.026,1.571
	c-4.545,0.179-9.153,0.288-13.681,0.673c-9.74,0.83-19.756,0.603-29.498,0.091c-4.284-0.225-11.141,1.125-13.878-3.23
	c-1.941-3.09-1.306-10.08-1.32-13.673C366.284,210.386,364.647,203.428,372.679,201.828z"/>
<path d="M282.669,176.383c3.988,2.606,8.401,3.486,12.736,5.307c5.05,2.121,9.918,4.691,14.469,7.74
	c4.367,2.927,8.374,6.318,12,10.144c2.891,3.05,6.934,9.008,7.505,13.353c0.322,2.452,4.205,2.514,3.916,0
	c-1.405-12.19,0.676-24.676-0.744-36.777c-0.268-2.282-0.309-4.507-2.638-5.362c-1.341-0.493-3.17,0.035-4.544,0.019
	c-3.103-0.038-6.134-0.912-9.234-1.071c-5.634-0.289-11.254-0.966-16.909-1.073c-3.818-0.072-7.444-0.826-11.211-1.048
	c-1.495-0.088-2.714-0.107-4.116,0.51c-2.985,1.313-4.168,3.936-3.142,6.151C281.115,175.052,281.747,175.78,282.669,176.383z
	 M292.135,172.406c3.762,0.494,7.672,0.317,11.458,0.51c7.177,0.366,14.609,1.629,21.773,1.577c2.852-0.021,2.263-0.651,3.432,1.367
	c1.623,2.805,0.268,9.252,0.268,12.312c0,4.749-0.184,9.502-0.177,14.246c-4.077-5.816-10.179-10.908-15.096-14.383
	c-7.58-5.359-17.63-11.34-27.361-12.444c-0.506-0.413-0.94-0.823-1.069-1.181C284.078,170.848,290.4,172.178,292.135,172.406z"/>
<path d="M54.397,100.974c1.862,4.719,7.073,6.086,10.67,2.188c2.956-3.203,2.382-10.379-2.092-12.058
	c-2.102-0.789-4.998-0.354-6.532,1.357c-0.65,0.725-1.346,1.702-1.786,2.582c-0.328,0.655-0.377,1.116-0.29,1.584
	C53.884,98.017,53.815,99.498,54.397,100.974z M59.245,93.934c0.493-0.242,0.994-0.4,1.48-0.418c3.444-0.127,4.82,5.443,2.397,7.562
	c-1.928,1.687-4.623,2.04-5.917-0.607C56.049,98.101,57.385,95.57,59.245,93.934z"/>
<path d="M80.94,100.974c1.862,4.719,7.073,6.086,10.67,2.188c2.956-3.203,2.382-10.379-2.092-12.058
	c-2.102-0.789-4.998-0.354-6.532,1.357c-0.65,0.725-1.346,1.702-1.786,2.582c-0.328,0.655-0.377,1.116-0.29,1.584
	C80.428,98.017,80.357,99.498,80.94,100.974z M85.788,93.934c0.493-0.242,0.994-0.4,1.48-0.418c3.444-0.127,4.82,5.443,2.397,7.562
	c-1.928,1.687-4.623,2.04-5.917-0.607C82.591,98.101,83.927,95.57,85.788,93.934z"/>
<path d="M111.021,100.974c1.862,4.719,7.073,6.086,10.67,2.188c2.956-3.203,2.382-10.379-2.092-12.058
	c-2.103-0.789-4.998-0.354-6.532,1.357c-0.65,0.725-1.346,1.702-1.786,2.582c-0.328,0.655-0.377,1.116-0.29,1.584
	C110.509,98.017,110.438,99.498,111.021,100.974z M115.869,93.934c0.493-0.242,0.994-0.4,1.48-0.418
	c3.444-0.127,4.82,5.443,2.398,7.562c-1.928,1.687-4.623,2.04-5.917-0.607C112.672,98.101,114.008,95.57,115.869,93.934z"/>
<path d="M355.335,100.974c1.862,4.719,7.073,6.086,10.67,2.188c2.956-3.203,2.382-10.379-2.092-12.058
	c-2.103-0.789-4.998-0.354-6.532,1.357c-0.65,0.725-1.346,1.702-1.786,2.582c-0.328,0.655-0.377,1.116-0.29,1.584
	C354.822,98.017,354.752,99.498,355.335,100.974z M360.182,93.934c0.493-0.242,0.994-0.4,1.48-0.418
	c3.444-0.127,4.82,5.443,2.397,7.562c-1.928,1.687-4.623,2.04-5.917-0.607C356.986,98.101,358.321,95.57,360.182,93.934z"/>
<path d="M385.822,100.974c1.862,4.719,7.073,6.086,10.67,2.188c2.956-3.203,2.382-10.379-2.092-12.058
	c-2.102-0.789-4.998-0.354-6.532,1.357c-0.65,0.725-1.347,1.702-1.786,2.582c-0.328,0.655-0.377,1.116-0.29,1.584
	C385.31,98.017,385.24,99.498,385.822,100.974z M390.671,93.934c0.493-0.242,0.994-0.4,1.48-0.418
	c3.444-0.127,4.82,5.443,2.397,7.562c-1.928,1.687-4.623,2.04-5.917-0.607C387.473,98.101,388.81,95.57,390.671,93.934z"/>
<path d="M141.101,100.974c1.863,4.719,7.073,6.086,10.67,2.188c2.956-3.203,2.382-10.379-2.092-12.058
	c-2.103-0.789-4.998-0.354-6.532,1.357c-0.65,0.725-1.346,1.702-1.786,2.582c-0.328,0.655-0.377,1.116-0.29,1.584
	C140.59,98.017,140.52,99.498,141.101,100.974z M145.95,93.934c0.493-0.242,0.994-0.4,1.48-0.418
	c3.444-0.127,4.82,5.443,2.398,7.562c-1.928,1.687-4.623,2.04-5.917-0.607C142.753,98.101,144.089,95.57,145.95,93.934z"/>
<path d="M173.542,100.974c1.862,4.719,7.073,6.086,10.67,2.188c2.956-3.203,2.382-10.379-2.092-12.058
	c-2.102-0.789-4.998-0.354-6.532,1.357c-0.65,0.725-1.347,1.702-1.786,2.582c-0.328,0.655-0.377,1.116-0.29,1.584
	C173.029,98.017,172.958,99.498,173.542,100.974z M178.39,93.934c0.492-0.242,0.994-0.4,1.48-0.418
	c3.444-0.127,4.82,5.443,2.397,7.562c-1.928,1.687-4.623,2.04-5.917-0.607C175.192,98.101,176.528,95.57,178.39,93.934z"/>
<path d="M324.202,100.974c1.862,4.719,7.073,6.086,10.67,2.188c2.956-3.203,2.382-10.379-2.092-12.058
	c-2.103-0.789-4.998-0.354-6.532,1.357c-0.65,0.725-1.346,1.702-1.786,2.582c-0.328,0.655-0.377,1.116-0.29,1.584
	C323.69,98.017,323.619,99.498,324.202,100.974z M329.05,93.934c0.493-0.242,0.994-0.4,1.48-0.418
	c3.444-0.127,4.82,5.443,2.398,7.562c-1.928,1.687-4.623,2.04-5.917-0.607C325.853,98.101,327.189,95.57,329.05,93.934z"/>
<path d="M204.219,100.974c1.862,4.719,7.073,6.086,10.67,2.188c2.956-3.203,2.382-10.379-2.092-12.058
	c-2.102-0.789-4.998-0.354-6.532,1.357c-0.65,0.725-1.346,1.702-1.786,2.582c-0.328,0.655-0.377,1.116-0.29,1.584
	C203.705,98.017,203.636,99.498,204.219,100.974z M209.066,93.934c0.493-0.242,0.994-0.4,1.48-0.418
	c3.444-0.127,4.82,5.443,2.397,7.562c-1.928,1.687-4.623,2.04-5.917-0.607C205.868,98.101,207.205,95.57,209.066,93.934z"/>
<path d="M235.479,100.974c1.862,4.719,7.073,6.086,10.67,2.188c2.956-3.203,2.381-10.379-2.092-12.058
	c-2.102-0.789-4.998-0.354-6.532,1.357c-0.65,0.725-1.346,1.702-1.786,2.582c-0.328,0.655-0.377,1.116-0.29,1.584
	C234.966,98.017,234.896,99.498,235.479,100.974z M240.326,93.934c0.493-0.242,0.994-0.4,1.48-0.418
	c3.444-0.127,4.82,5.443,2.397,7.562c-1.928,1.687-4.623,2.04-5.917-0.607C237.13,98.101,238.465,95.57,240.326,93.934z"/>
<path d="M263.201,100.974c1.862,4.719,7.073,6.086,10.67,2.188c2.956-3.203,2.382-10.379-2.092-12.058
	c-2.102-0.789-4.998-0.354-6.532,1.357c-0.65,0.725-1.346,1.702-1.786,2.582c-0.328,0.655-0.377,1.116-0.29,1.584
	C262.688,98.017,262.618,99.498,263.201,100.974z M268.048,93.934c0.493-0.242,0.994-0.4,1.48-0.418
	c3.444-0.127,4.82,5.443,2.398,7.562c-1.928,1.687-4.623,2.04-5.917-0.607C264.852,98.101,266.188,95.57,268.048,93.934z"/>
<path d="M293.281,100.974c1.862,4.719,7.073,6.086,10.67,2.188c2.956-3.203,2.382-10.379-2.092-12.058
	c-2.103-0.789-4.998-0.354-6.532,1.357c-0.65,0.725-1.346,1.702-1.786,2.582c-0.328,0.655-0.377,1.116-0.29,1.584
	C292.768,98.017,292.699,99.498,293.281,100.974z M298.129,93.934c0.493-0.242,0.994-0.4,1.48-0.418
	c3.444-0.127,4.82,5.443,2.397,7.562c-1.928,1.687-4.623,2.04-5.917-0.607C294.932,98.101,296.269,95.57,298.129,93.934z"/>
<path d="M414.228,100.974c1.862,4.719,7.073,6.086,10.67,2.188c2.956-3.203,2.382-10.379-2.092-12.058
	c-2.103-0.789-4.998-0.354-6.532,1.357c-0.65,0.725-1.347,1.702-1.787,2.582c-0.327,0.655-0.377,1.116-0.29,1.584
	C413.715,98.017,413.646,99.498,414.228,100.974z M419.076,93.934c0.493-0.242,0.994-0.4,1.48-0.418
	c3.444-0.127,4.82,5.443,2.397,7.562c-1.928,1.687-4.623,2.04-5.917-0.607C415.878,98.101,417.214,95.57,419.076,93.934z"/>
<path d="M443.599,100.974c1.862,4.719,7.073,6.086,10.67,2.188c2.956-3.203,2.382-10.379-2.092-12.058
	c-2.102-0.789-4.998-0.354-6.532,1.357c-0.65,0.725-1.347,1.702-1.786,2.582c-0.328,0.655-0.377,1.116-0.29,1.584
	C443.087,98.017,443.016,99.498,443.599,100.974z M448.446,93.934c0.492-0.242,0.994-0.4,1.48-0.418
	c3.444-0.127,4.82,5.443,2.397,7.562c-1.928,1.687-4.623,2.04-5.917-0.607C445.25,98.101,446.586,95.57,448.446,93.934z"/>
<g>
</g>
<g>
</g>
<g>
</g>
<g>
</g>
<g>
</g>
<g>
</g>
<g>
</g>
<g>
</g>
<g>
</g>
<g>
</g>
<g>
</g>
<g>
</g>
<g>
</g>
<g>
</g>
<g>
</g>
</svg>
