<?xml version="1.0" encoding="iso-8859-1"?>
<!-- Generator: Adobe Illustrator 19.0.0, SVG Export Plug-In . SVG Version: 6.00 Build 0)  -->
<svg version="1.1" id="Layer_1" xmlns="http://www.w3.org/2000/svg" xmlns:xlink="http://www.w3.org/1999/xlink" x="0px" y="0px"
	 viewBox="0 0 511.997 511.997" style="enable-background:new 0 0 511.997 511.997;" xml:space="preserve">
<path style="fill:#7F6655;" d="M131.596,363.028c9.86,5.652,18.372,10.531,27.18,15.579c1.786,1.023,4.592-12.178,4.867-13.099
	c1.463-4.909,3.577-9.708,7.136-13.473c4.04-4.274,9.515-6.822,14.583-9.806c9.655-5.684,24.201-20.659,13.615-32.139
	c-2.503-2.715-6.265-3.854-9.225-6.062c-7.678-5.73-6.437-17.549-6.762-26.091c-1.526-39.856-3.288-79.715-3.847-119.588
	c-0.198-14.12,0.867-28.215,1.997-42.281c1.069-13.333,1.399-26.681,6.086-39.398c2.686-7.284,6.985-14.179,13.303-18.69
	c6.77-4.834,15.245-6.555,23.501-7.571c22.953-2.825,46.193-1.116,69.256,0.597c6.451,0.479,13.182,1.046,18.689,4.439
	c6.623,4.081,10.056,11.369,12.256,18.55c2.276,7.429,5.025,14.624,6.178,22.358c2.81,18.85,4.995,38.05,4.713,57.052
	c-0.668,45.032-5.637,89.913-9.379,134.801c-0.495,5.934-1.191,12.346-5.233,16.718c-2.725,2.949-6.745,4.667-8.848,8.088
	c-5.209,8.471,3.106,22.661,9.88,27.896c4.636,3.583,10.307,5.594,15.094,8.974c4.453,3.144,8.034,7.485,10.359,12.409
	c1.413,2.993,1.456,10.861,4.416,12.207c1.771,0.806,3.816-0.052,5.567-0.901c5.357-2.596,10.767-5.223,15.413-8.945
	c4.646-3.723,8.531-8.69,9.842-14.497c1.257-5.561,0.081-11.35-1.137-16.919c-1.183-5.411-2.407-10.813-3.671-16.205
	c-0.963-4.108-2.213-8.599-5.729-10.929c-1.984-1.314-4.424-1.733-6.548-2.808c-5.052-2.554-7.607-8.546-7.671-14.206
	c-0.067-5.923,2.733-10.823,3.669-16.453c0.942-5.669,0.874-11.819,1.361-17.573c1.028-12.142,1.985-24.292,3.064-36.429
	c0.997-11.914,1.992-23.828,2.989-35.743c0.891-10.639-1.202-22.182,1.723-32.516c1.983-7.003,7.017-13.602,14.08-15.359
	c7.24-1.801,11.825,1.661,17.707,5.199c6.865,4.129,14.654,3.578,21.737,6.609c7.348,3.145,14.587,4.425,22.491,5.878
	c11.692,2.149,23.646,4.96,33.307,11.886c7.243,5.193,12.639,12.891,14.325,21.691c1.459,7.617,6.377,16.174,2.966,23.779
	c-1.429,3.187-3.903,5.798-5.505,8.904c-3.786,7.346-1.43,18.822,1.983,26.072c2.91,6.182,6.134,12.203,9.373,18.217
	c2.664,4.945,6.034,8.873,4.565,14.933c-1.072,4.418-4.134,8.166-7.831,10.813c-1.853,1.327-4.027,2.602-4.7,4.78
	c-1.938,6.271,5.186,11.546,2.653,18.085c-1.176,3.036-3.276,5.703-4.047,8.866c-1.153,4.727,0.839,9.584,2.669,14.094
	c3.472,8.552,8.743,24.037,0.397,31.424c-2.371,2.098-5.448,3.24-8.547,3.887c-6.499,1.358-13.574,1.079-20.145,0.513
	c-0.031-0.003,1.695,18.171,2.354,20.321c1.937,6.327,1.938,12.658,2.627,19.234c0.842,8.054,2.141,16.057,3.769,23.99
	c0.814,3.967,1.715,7.917,2.676,11.85c0.518,2.12,3.352,7.143,1.589,8.908c-0.792,0.794-1.919,1.134-2.996,1.446
	c-5.612,1.629-11.224,3.258-16.836,4.887c-0.563,0.164-1.183,0.323-1.716,0.082c-1.017-0.459-0.958-1.921-0.625-2.986
	c1.017-3.258,3.04-6.202,3.548-9.578s-1.42-7.564-4.833-7.641c-2.795-0.064-4.809,2.532-6.478,4.776
	c-1.668,2.244-4.123,4.63-6.831,3.933c0.965-3.636,1.937-7.355,1.666-11.109c-0.27-3.752-2.015-7.614-5.306-9.437
	c-3.291-1.823-8.153-0.817-9.694,2.616c-0.628,1.398-0.665,2.976-0.738,4.506c-0.074,1.53-0.212,3.124-1.005,4.435
	c-0.791,1.312-2.43,2.239-3.876,1.733c-2.003-0.7-1.247-4.891-1.688-6.616c-0.802-3.129-2.589-6.276-4.136-9.09
	c-1.172-2.131-2.99-4.475-5.41-4.228c-3.094,0.316-4.028,4.32-4.169,7.426c-0.167,3.653-0.334,7.304-0.5,10.955
	c-0.096,2.11-0.661,4.79-2.743,5.154c-1.903,0.333-3.376-1.655-4.027-3.473c-0.947-2.643-1.273-5.526-2.634-7.98
	c-1.363-2.455-4.31-4.414-6.923-3.386c-3.168,1.248-3.479,5.544-3.217,8.94c0.263,3.396,0.095,7.657-3.004,9.069
	c-1.139-2.347-2.319-4.751-4.218-6.54c-1.899-1.789-4.706-2.859-7.171-2c-3.992,1.389-4.896,6.53-5.143,10.751
	c-2.082-2.723-4.217-5.498-7.066-7.404c-2.849-1.907-6.593-2.822-9.755-1.5c-2.28,0.953-3.957,2.903-5.752,4.601
	c-1.794,1.698-4.015,3.273-6.482,3.146c-3.723-0.192-4.74-5.346-5.568-8.254c-0.747-2.623-1.48-5.402-3.401-7.34
	c-1.921-1.937-5.478-2.547-7.27-0.489c-0.713,0.819-1.083,1.965-2.012,2.53c-1.408,0.856-3.163-0.074-4.758-0.485
	c-2.931-0.757-6.094,0.391-8.455,2.286s-4.071,4.464-5.743,6.988c-0.756-2.564-1.577-5.241-3.457-7.143s-5.17-2.697-7.238-1.002
	c-0.703,0.577-1.232,1.399-2.072,1.75c-1.822,0.761-3.741-1.292-3.876-3.262c-0.135-1.97,0.782-3.845,1.144-5.785
	c0.706-3.785-0.896-7.907-3.973-10.222c-3.077-2.314-7.483-2.709-10.922-0.981c-1.25,0.628-2.438,1.529-3.835,1.616
	c-2.623,0.165-4.621-2.554-7.23-2.874c-3.041-0.372-5.43,2.571-6.658,5.377c-1.228,2.808-2.158,6.056-4.756,7.681
	c-1.401-2.651-2.717-5.797-4.673-8.109c-2.542-3.005-5.883-5.492-9.956-5.654c-4.983-0.198-9.569,3.257-12.01,7.606
	c-2.441,4.349-3.1,9.459-3.379,14.438c-1.76-2.521-5.644-2.673-8.322-1.164c-2.678,1.509-4.433,4.207-6.081,6.801
	c-2.188-4.3-5.508-9.27-10.314-8.842c-1.701,0.152-3.318,1.015-5.022,0.901c-1.703-0.114-3.423-2.059-2.4-3.426
	c-4.182-0.782-7.692,2.981-10.277,6.359c-1.504,1.965-5.979,10.209-8.276,10.702c-2.463,0.529-5.468-4.496-7.661-5.49
	c-3.871-1.753-8.632-1.199-12.383,0.59c-4.931,2.352-8.688,6.554-12.304,10.647c-2.153-4.223,3.52-9.63,1.086-13.696
	c-1.818-3.036-6.655-2.281-9.256,0.119s-4.03,5.856-6.61,8.277c-0.589,0.553-1.393,1.076-2.151,0.8
	c-0.583-0.212-0.911-0.827-1.099-1.419c-1.092-3.416,0.71-6.988,1.586-10.465c0.876-3.477,0.034-8.22-3.477-8.946
	c-3.374-0.699-5.981,2.916-7.207,6.136c-1.787,4.691-3.514,10.434-8.341,11.813c0.001-7.167,0.001-14.335,0.002-21.502
	c0-2.159-0.318-4.817-2.325-5.613c-2.334-0.926-4.545,1.53-5.777,3.716c-4.313,7.655-5.925,16.159-9.736,23.909
	c-1.476-2.676-1.706-5.837-1.917-8.885c-0.211-3.049-0.469-6.213-1.992-8.863c-1.521-2.651-4.696-4.614-7.625-3.741
	c-3.87,1.153-4.952,6.022-5.367,10.041c-0.455,4.413-0.912,8.825-1.368,13.237c-3.291-3.064-6.58-6.129-9.871-9.193
	c-1.132-1.055-2.518-2.188-4.037-1.897c-1.715,0.328-2.559,2.274-2.86,3.993c-0.578,3.309-0.18,6.782,1.129,9.875
	c0.537,1.265,1.23,2.505,1.359,3.874c0.127,1.369-0.527,2.945-1.851,3.314c-0.806,0.225-1.658-0.037-2.455-0.297
	c-5.084-1.663-10.169-3.328-15.253-4.992c-0.799-0.262-1.666-0.575-2.094-1.299c-0.574-0.971-0.107-2.2,0.364-3.223
	c2.7-5.853,5.719-11.354,6.95-17.695c1.23-6.344,2.15-12.745,2.847-19.169c1.368-12.631,1.861-25.34,2.158-38.035
	c0.032-1.373,0.025-2.869-0.824-3.948c-1.133-1.441-3.248-1.537-5.079-1.45c-6.831,0.326-14.602,1.171-19.615-3.482
	c-4.977-4.617-4.765-12.463-3.716-19.169c0.664-4.244,1.512-8.461,2.543-12.631c0.908-3.675,2.941-7.808,3.089-11.592
	c0.263-6.791-7.285-11.71-5.671-18.941c0.614-2.75,2.622-5.065,3.066-7.848c0.696-4.356-2.563-8.296-5.859-11.231
	c-3.295-2.934-7.086-5.914-8.017-10.227c-1.069-4.957,2.018-9.741,4.746-14.015c4.318-6.764,8.085-13.877,11.259-21.247
	c2.729-6.337,7.544-14.14,2.587-20.431c-1.182-1.5-2.81-2.602-3.971-4.118c-1.672-2.183-2.228-5.059-2.082-7.804
	c0.28-5.279,1.446-10.666,1.924-16c0.497-5.536,1.7-10.941,4.47-15.812c5.286-9.297,14.815-15.549,24.865-19.205
	c10.051-3.656,20.757-5.029,31.308-6.775c10.551-1.746,21.222-3.952,30.614-9.067c5.054-2.753,9.981-6.416,15.73-6.675
	c7.886-0.356,14.772,6.134,17.501,13.541c2.508,6.809,1.272,13.29,2.017,20.241c0.59,5.505,2.12,10.859,2.614,16.5
	c1.283,14.674,2.517,29.354,3.74,44.034c0.786,9.436,1.567,18.872,2.354,28.308c0.725,8.694,2.512,17.586,2.057,26.316
	c-0.313,6.015-1.908,12.114-5.542,16.917c-3.313,4.379-8.103,7.433-11.594,11.672C125.712,326.177,130.481,346.653,131.596,363.028z
	"/>
<g>
	<path style="fill:#604D40;" d="M16.79,215.926c4.833,6.25,8.087,9.605,4.542,18.27c-3.713,9.072-10.295,16.682-14.121,25.727
		c-3.902,9.223-5.678,19.204,2.618,26.682c5.569,5.02,9.68,8.931,17.307,7.733c7.141-1.121,21.681-2.043,26.407-8.409
		c3.173-4.275,0.87-7.963-0.505-12.392c-1.544-4.97-2.794-10.028-4.066-15.074c-1.498-5.939-2.661-12.95,1.315-18.233
		c4.152-5.517,12.799-3.898,18.906-3.81c11.963,0.175,29.773-3.258,28.415-18.176c-1.069-11.757-18.83-17.435-29.059-17.012
		c-9.552,0.394-18.815,4.111-28.19,5.905c-7.57,1.449-16.852,2.451-23.537,6.555C17.548,214.898,18.657,215.928,16.79,215.926z"/>
	<path style="fill:#604D40;" d="M114.237,138.589c-4.459,2.845-4.829,8.742-5.03,13.52c-0.367,8.705,0.072,17.075,0.766,25.743
		c0.749,9.346,1.254,18.711,1.456,28.086c0.131,6.082,1.609,12.306,0.09,18.323c-1.435,5.684-7.01,8.168-8.85,13.515
		c-2.306,6.704-2.124,13.738-3.12,20.658c-1.002,6.967-2.919,13.826-3.973,20.8c-1.27,8.398-0.653,16.395-1.436,24.769
		c-0.469,5.013-1.003,10.118-1.912,14.975c-1.61,8.616-4.386,17.329-6.982,25.695c-1.416,4.565-2.971,8.542-5.812,12.364
		c-1.658,2.233-7.678,6.582-4.349,8.245c4.111,2.053,14.508-5.532,18.472-7.612c6.673-3.503,13.559-7.914,19.646-12.404
		c11.255-8.301,18.794-18.175,22.896-31.315c0.624-1.999,0.751-4.6,2.289-6.151c3.477-3.507,9.54-2.901,12.381-7.081
		c2.769-4.074,2.734-10.914,2.506-15.582c-0.382-7.807-0.477-15.782-1.179-23.641c-1.61-18.014-5.71-35.889-4.688-54.066
		c1.189-21.17-1.253-40.701-8.047-60.757C135.897,136.446,121.905,130.789,114.237,138.589z"/>
	<path style="fill:#604D40;" d="M134.344,360.934c-11.715,0.347-25.425,4.379-31.227,15.062
		c-6.528,12.021-10.928,26.146-14.596,39.256c-1.419,5.073-7.922,20.007-3.392,24.147c2.577-3.887,8.321-19.036,14.412-18.55
		c5.004,0.399,2.707,11.683,2.707,15.323c0,2.301-1.29,10.3,1.194,11.569c3.404,1.74,5.749-5.705,6.588-7.78
		c2.084-5.155,6.067-13.998,11.357-7.096c3.034,3.958,1.968,6.928,0.572,11.493c-0.705,2.305-3.262,8.114-0.081,9.343
		c1.947-2.579,14.704-18.203,18.68-13.119c2.049,2.621-2.87,8.468-1.213,11.198c2.406,3.963,6.434-2.223,7.949-4.048
		c2.559-3.084,5.885-3.421,8.326-5.976c3.452-3.614,0.775-14.126,1.104-18.922c0.608-8.854,1.707-17.554,2.647-26.346
		c0.573-5.369,2.099-10.955,0.127-16.126C155.494,369.863,143.74,366.334,134.344,360.934z"/>
	<path style="fill:#604D40;" d="M495.035,215.926c-4.833,6.25-8.087,9.605-4.541,18.27c3.713,9.072,10.295,16.682,14.121,25.727
		c3.902,9.223,5.678,19.204-2.618,26.682c-5.569,5.02-9.68,8.931-17.307,7.733c-7.141-1.121-21.681-2.043-26.407-8.409
		c-3.173-4.275-0.87-7.963,0.505-12.392c1.544-4.97,2.794-10.028,4.066-15.074c1.497-5.939,2.661-12.95-1.315-18.233
		c-4.152-5.517-12.799-3.898-18.906-3.81c-11.963,0.175-29.773-3.258-28.415-18.176c1.069-11.757,18.83-17.435,29.059-17.012
		c9.552,0.394,18.815,4.111,28.192,5.905c7.57,1.449,16.852,2.451,23.537,6.555C494.278,214.898,493.17,215.928,495.035,215.926z"/>
	<path style="fill:#604D40;" d="M397.59,138.589c4.459,2.845,4.829,8.742,5.03,13.52c0.367,8.705-0.072,17.075-0.766,25.743
		c-0.749,9.346-1.254,18.711-1.456,28.086c-0.131,6.082-1.609,12.306-0.09,18.323c1.435,5.684,7.01,8.168,8.85,13.515
		c2.306,6.704,2.125,13.738,3.12,20.658c1.002,6.967,2.919,13.826,3.973,20.8c1.27,8.398,0.653,16.395,1.436,24.769
		c0.469,5.013,1.003,10.118,1.912,14.975c1.61,8.616,4.386,17.329,6.982,25.695c1.416,4.565,2.97,8.542,5.812,12.364
		c1.658,2.233,7.678,6.582,4.349,8.245c-4.111,2.053-14.508-5.532-18.472-7.612c-6.673-3.503-13.559-7.914-19.646-12.404
		c-11.255-8.301-18.794-18.175-22.896-31.315c-0.624-1.999-0.751-4.6-2.289-6.151c-3.477-3.507-9.54-2.901-12.381-7.081
		c-2.769-4.074-2.734-10.914-2.506-15.582c0.382-7.807,0.477-15.782,1.179-23.641c1.61-18.014,5.71-35.889,4.688-54.066
		c-1.189-21.17,1.253-40.701,8.047-60.757C375.93,136.446,389.921,130.789,397.59,138.589z"/>
	<path style="fill:#604D40;" d="M377.483,360.934c11.715,0.347,25.425,4.379,31.227,15.062
		c6.529,12.021,10.928,26.146,14.596,39.256c1.419,5.073,7.922,20.007,3.392,24.147c-2.577-3.887-8.32-19.036-14.412-18.55
		c-5.004,0.399-2.707,11.683-2.707,15.323c0,2.301,1.29,10.3-1.194,11.569c-3.404,1.74-5.749-5.705-6.588-7.78
		c-2.084-5.155-6.067-13.998-11.357-7.096c-3.034,3.958-1.968,6.928-0.572,11.493c0.705,2.305,3.262,8.114,0.081,9.343
		c-1.947-2.579-14.704-18.203-18.68-13.119c-2.049,2.621,2.87,8.468,1.213,11.198c-2.406,3.963-6.434-2.223-7.949-4.048
		c-2.559-3.084-5.885-3.421-8.326-5.976c-3.452-3.614-0.775-14.126-1.104-18.922c-0.608-8.854-1.707-17.554-2.647-26.346
		c-0.573-5.369-2.099-10.955-0.127-16.126C356.332,369.863,368.086,366.334,377.483,360.934z"/>
	<path style="fill:#604D40;" d="M314.899,145.472c-6.002,6.589-19.168,5.603-26.044,1.223c-7.313-4.667-11.88-12.991-19.555-17.084
		c-6.027-3.22-12.916-4.455-19.48-2.933c0.275,0.187,0.549,0.412,0.824,0.686c3.494,3.469-0.611,11.418-2.096,15.125
		c-3.444,8.536-5.542,17.184-5.94,26.468c-0.387,8.71,0.537,18.332,3.981,26.393c1.41,3.307,3.132,5.478,5.104,6.913
		c5.441,3.968,12.791,2.483,21.027,4.443c3.981,0.936,7.25,2.521,10.807,4.43c3.12,1.672,7.076,2.696,9.21,5.853
		c-2.184,3.145-6.327,3.644-9.771,4.293c-3.769,0.699-7.263,1.972-11.044,2.845c-8.473,1.959-16.023,1.947-24.497,0.399
		c-4.505-0.824-8.973-1.847-13.49-2.621c-2.795-0.474-5.74,0-8.436-0.562c-4.992-1.061-8.224-5.628-8.024-10.532
		c0.437-10.083,9.147-17.858,12.13-27.105c3.918-12.13,3.706-25.67,5.478-38.249c0.362-2.608,3.02-10.345,6.564-15.262
		c-7.937,5.304-12.329,14.376-22.25,17.97c-6.314,2.284-16.26,0.911-22.2-1.884c-12.941-6.115,0.3-21.839,7.138-28.19
		c3.032-2.608,8.099-6.676,15-8.062c5.067-1.023,10.657-1.186,15.761-1.922c19.255-2.733,37.637-0.499,56.581,2.995
		c8.81,1.635,15.736,7.188,20.254,14.8C315.099,131.246,320.028,139.844,314.899,145.472z"/>
	<path style="fill:#604D40;" d="M256.152,257.256c-2.759,0.02-5.518,0.045-8.27,0.045c-4.876,0-9.593,0.268-14.452,0.784
		c-2.219,0.236-7.451,0.161-8.891,2.406c-1.938,3.019,3.097,3.165,5.678,3.772c13.586,3.198,28.361,3.559,42.243,2.686
		c2.502-0.157,20.538-0.545,15.139-6.746c-2.37-2.72-10.446-2.545-13.65-2.708C268.034,257.192,262.09,257.212,256.152,257.256z"/>
	<path style="fill:#604D40;" d="M18.338,324.198c7.647-0.027,15.228-0.298,22.834-0.387c3.911-0.045,13.47-1.298,15.167,3.79
		c3.002,9.004-28.091,2.255-32.252,2.398C17.059,330.24,12.732,327.901,18.338,324.198z"/>
	<path style="fill:#604D40;" d="M309.741,315.793c-1.052,1.27-3.167,2.586-3.806,3.004c-3.474,2.267-5.072,4.957-8.164,7.77
		c-7.106,6.463-15.081,10.951-23.267,15.806c-13.138,7.792-24.287,13.706-30.328,28.31c-3.513,8.492-6.314,18.457-8.025,27.48
		c-1.368,7.214,0.252,14.057-5.994,18.841c-4.02,3.08-6.656,4.328-8.108,9.376c-1.242,4.314-0.72,7.64-0.382,11.844
		c-3.201-1.619-7.711-4.055-10.864-0.744c-2.387,2.506-3.016,7.927-7.802,4.479c-3.307-2.382-1.521-6.094-6.107-6.317
		c-3.78-0.185-7.396,2.706-7.637,6.378c0.144-4.993-3.638-11.614-9.302-7.614c-2.133,1.506-4.133,5.329-5.199,7.59
		c-1.121,2.377-0.906,7.077-3.27,8.569c-3.73,2.356-11.773-8.661-13.65-11.901c-2.884-4.979-0.698-12.927-0.678-18.422
		c0.02-5.611,0.215-10.847,0.98-16.391c1.428-10.359,3.198-20.732,4.435-31.153c1.192-10.036,2.329-15.554,11.116-21.545
		c8.775-5.983,18.665-10.612,24.265-19.999c0.93-1.56,2.372-3.369,2.928-5.1c0.676-2.111-0.318-4.621,0.439-6.618
		c1.404-3.706,5.792-3.659,9.513-3.394c8.266,0.588,15.971,3.968,24.434,4.29c10.96,0.417,20.989-0.111,31.897-1.161
		c9.693-0.932,19.309-2.41,28.962-3.683c1.79-0.236,3.795-0.082,5.472-0.337c2.292-0.347,5.2-2.492,7.532-1.777
		C310.731,313.866,310.55,314.816,309.741,315.793z"/>
</g>
<path d="M229.697,144.773c2.267-1.697,4.077-3.827,6.065-5.8c-0.935,2.226-1.702,4.521-2.233,6.782
	c-1.42,6.047-3.558,12.278-4.511,18.381c-0.968,6.19-1.869,12.394-2.559,18.62c-0.417,3.764-1.143,7.619-3.001,10.948
	c-1.349,2.417-3.585,4.222-5.307,6.369c-4.666,5.813-4.503,14.551,1.088,19.844c3.847,3.643,10.049,5.094,16.116,5.223
	c5.482,1.424,11.608,1.725,16.379,1.79c7.092,0.097,16.389,1.26,23.214-1.787c6.583,0.124,13.604-1.242,17.812-5.225
	c5.592-5.294,5.755-14.032,1.088-19.844c-1.723-2.148-3.96-3.952-5.307-6.369c-1.858-3.331-2.584-7.184-3.001-10.948
	c-0.689-6.226-1.591-12.431-2.559-18.62c-0.955-6.104-3.092-12.334-4.511-18.381c-0.53-2.261-1.298-4.555-2.234-6.782
	c1.989,1.973,3.797,4.103,6.065,5.8c4.033,3.02,9.029,5.559,14.13,6.106c5.044,2.26,10.184,3.141,16.767-0.285
	c3.891-2.024,7.156-4.346,7.975-8.94c0.761-4.27-1.927-8.543-3.849-12.187c-2.408-4.567-5.723-10.768-9.659-14.15
	c-3.499-3.006-9.498-4.686-13.806-6.075c-2.743-0.885-5.581-1.411-8.435-1.841c-0.876-0.2-1.706-0.396-2.443-0.603
	c-8.744-2.457-17.734-2.712-26.765-2.579c-8.213,0.121-16.087,0.459-24.175,1.849c-2.779,0.477-5.788,1.101-8.782,1.899
	c-1.73,0.333-3.443,0.733-5.119,1.273c-4.308,1.389-10.307,3.069-13.806,6.075c-3.936,3.382-7.252,9.583-9.659,14.15
	c-1.922,3.644-4.61,7.917-3.849,12.187c0.82,4.595,4.084,6.916,7.975,8.94c6.583,3.426,11.722,2.543,16.767,0.285
	C220.668,150.332,225.663,147.793,229.697,144.773z M277.473,218.892c-4.284,0.347-8.078,0.794-12.134,2.381
	c-0.085,0.034-0.153,0.086-0.228,0.132c-3.285,0.208-6.557,0.417-9.916,0.431c-2.803,0.012-5.541-0.181-8.279-0.411
	c-0.084-0.055-0.165-0.115-0.263-0.152c-4.054-1.587-7.849-2.034-12.134-2.381c-3.664-0.297-8.05-0.494-10.992-2.544
	c2.866-2.07,6.161-4.114,9.01-5.292c4.01-1.658,8.173-2.138,12.285-3.045c2.339-0.297,4.651-0.482,6.592-0.52
	c6.457-0.129,13.3,1.314,19.878,1.353c2.749,0.532,5.49,1.108,8.163,2.214c2.849,1.178,6.144,3.222,9.01,5.292
	C285.525,218.399,281.137,218.595,277.473,218.892z M280.899,189.37c0.85,3.874,1.556,6.826,4.013,9.892
	c3.077,3.841,7.869,7.023,6.567,12.564c-0.135,0.574-0.328,1.081-0.547,1.56c-1.98-2.431-5.06-4.416-7.396-5.546
	c-4.778-2.309-10.31-4.187-15.639-3.653c-6.037-1.045-12.172-1.494-18.316-0.962c-2.819,0.243-6.12,0.447-9.137,0.947
	c-4.152,0.356-8.294,1.884-11.985,3.669c-2.337,1.129-5.416,3.114-7.396,5.546c-0.218-0.479-0.412-0.986-0.547-1.56
	c-1.302-5.541,3.489-8.723,6.567-12.564c2.457-3.066,3.163-6.02,4.013-9.892c2.302-10.489,1.768-21.352,4.792-31.763
	c1.414-4.871,1.562-9.958,3.042-14.805c0.849-2.779,1.522-5.057,1.441-7.651c2.54-1.844,5.136-3.498,7.862-4.969
	c1.677-0.432,3.391-0.759,5.151-0.955c2.233-0.248,4.853-0.745,7.228-0.611c3.923,1.802,7.514,3.998,11.007,6.535
	c-0.081,2.594,0.593,4.872,1.441,7.651c1.481,4.847,1.63,9.935,3.042,14.805C279.129,168.018,278.596,178.881,280.899,189.37z
	 M202.758,145.838c-6.208-2.493-7.379-5.701-5.206-11.579c1.614-4.369,3.83-8.16,6.314-12.069
	c5.143-8.093,15.997-9.754,24.88-10.957c2.135-0.29,4.279-0.6,6.419-0.952c6.552-0.588,13.164-0.796,19.941-0.867
	c8.493-0.09,17.325-0.358,25.574,2.028c2.99,0.865,5.74,1.727,8.809,2.265c2.223,0.389,4.954,0.213,7.028,1.048
	c0.459,0.185,0.921-0.022,1.228-0.376c4.2,1.582,7.941,3.965,10.385,7.812c2.483,3.908,4.7,7.7,6.314,12.069
	c2.173,5.88,1.001,9.086-5.206,11.579c-3.887,1.562-9.709,2.276-13.914,1.323c-0.515-0.117-1.964-0.569-3.659-1.158
	c-1.006-0.477-1.999-0.997-2.989-1.645c-2.708-1.771-4.184-3.155-5.694-5.893c-0.874-1.582-1.777-2.99-3.046-4.28
	c-2.829-2.875-6.797-5.98-11.028-7.647c-4.792-3.973-11.784-3.046-17.765-1.963c-1.108,0.201-2.169,0.477-3.207,0.787
	c-5.929,0.469-11.98,4.864-15.874,8.823c-1.269,1.29-2.173,2.697-3.046,4.28c-1.511,2.738-2.988,4.122-5.694,5.893
	c-0.99,0.648-1.982,1.168-2.989,1.645c-1.695,0.589-3.144,1.041-3.659,1.158C212.468,148.114,206.646,147.4,202.758,145.838z"/>
<path d="M234.004,249.028c3.963-0.109,7.932,0.015,11.908-0.081c5.986-0.144,11.715-1.077,17.757-0.467
	c3.291,0.332,6.366,0.173,9.515-0.079c3.918,0.517,7.856,0.991,11.77,1.512c6.041,0.805,12.503,1.715,18.378,2.939
	c0.436,0.091,0.797-0.434,0.45-0.774c-4.474-4.379-9.791-5.739-15.946-6.616c-7.934-1.131-17.96-4.342-26.108-2.403
	c-3.459-0.129-6.931-0.02-10.348,0.312c-8.334-2.543-18.921,0.908-27.223,2.092c-6.155,0.877-11.472,2.238-15.946,6.616
	c-0.346,0.339,0.015,0.865,0.45,0.774c5.875-1.224,12.337-2.134,18.378-2.939C229.355,249.607,231.681,249.319,234.004,249.028z"/>
<path d="M509.974,280.037c4.829-8.445,0.027-14.279-4.152-21.787c-4.722-8.486-10.675-16.275-13.343-25.746
	c-0.625-2.219-1.892-5.521-1.339-7.858c0.61-2.581,3.039-3.468,4.74-5.214c2.362-2.422,4.73-5.941,4.954-9.369
	c0.544-8.285-1.725-18.152-3.935-26.108c-4.063-14.628-18.23-23.783-31.668-28.874c-8.949-3.389-18.389-6.082-27.906-7.017
	c-1.255-0.124-2.505-0.303-3.751-0.504c-0.475-0.101-0.953-0.193-1.429-0.297c-5.829-1.27-11.597-2.692-17.329-4.346
	c-3.227-0.932-6.47-1.589-9.314-3.464c-2.191-1.446-4.033-3.096-6.362-4.376c-7.293-4.011-14.737-5.54-22.376-1.488
	c-7.2,3.819-9.583,16.245-10.499,23.546c-1.39,11.095-2.003,22.199-3.022,33.313c-0.926,10.084-1.703,20.13-2.664,30.227
	c-0.993,10.44-1.829,20.86-2.763,31.275c-0.499,5.568-0.595,11.431-0.602,17.044c-0.006,5.34-1.297,10.262-1.888,15.498
	c-0.502,4.448-1.389,9.71,0.324,14.025c1.273,3.206,4.526,5.49,6.972,7.787c2.904,2.728,6.391,4.901,10.315,5.818
	c0.201,0.047,0.399,0.067,0.599,0.104c0.641,6.525,2.008,12.267,5.944,17.277c-0.661,3.806-0.434,7.389,0.064,11.516
	c0.439,3.641,0.906,7.668,0.197,11.301c-0.791,4.056-3.372,5.808-6.716,7.678c-7.072,3.953-15.027,6.876-20.044,12.579
	c-0.493-2.491-0.985-4.984-1.464-7.489c-1.087-5.678-2.475-11.559-6.583-15.895c-4.406-4.65-10.993-6.849-16.681-9.429
	c-6.666-3.024-10.829-7.224-13.069-14.336c-1.016-3.226-1.339-6.445-1.987-9.594c7.501-3.18,14.309-8.321,17.21-15.529
	c2.478-6.16,1.381-12.398,1.94-18.855c0.534-6.182,0.277-12.145,0.392-18.333c0.227-12.282,1.748-24.729,2.511-37.001
	c0.847-13.65,0.603-27.432,0.698-41.126c0.101-14.583,1.363-29.048,1.228-43.637c-0.107-11.587-2.316-22.929-2.827-34.453
	c-0.549-12.417-2.352-24.953-8.347-36.066c-5.286-9.797-11.742-17.634-22.851-20.602c-6.997-1.869-14.376-3.011-21.738-3.222
	c-5.841-0.518-11.714,0.373-17.764-0.23c-6.096-0.608-11.354-0.309-17.536,0.064c-1.933,0.116-3.88,0.277-5.829,0.454
	c-10.476-0.946-21.356,0.24-31.439,2.934c-11.109,2.968-17.564,10.804-22.851,20.602c-5.995,11.113-7.798,23.649-8.347,36.066
	c-0.51,11.523-2.719,22.866-2.827,34.453c-0.135,14.589,1.127,29.054,1.228,43.637c0.094,13.695-0.151,27.477,0.698,41.126
	c0.762,12.272,2.284,24.718,2.511,37.001c0.115,6.188-0.144,12.151,0.391,18.333c0.558,6.457-0.539,12.695,1.941,18.855
	c2.9,7.208,9.708,12.349,17.21,15.529c-0.648,3.148-0.97,6.368-1.987,9.594c-2.24,7.112-6.403,11.312-13.069,14.336
	c-5.688,2.581-12.275,4.781-16.681,9.429c-4.108,4.335-5.496,10.215-6.583,15.895c-0.479,2.505-0.971,4.998-1.464,7.489
	c-5.017-5.703-12.972-8.627-20.044-12.579c-3.346-1.869-5.926-3.623-6.716-7.678c-0.709-3.634-0.242-7.661,0.197-11.301
	c0.498-4.127,0.724-7.708,0.064-11.516c3.936-5.01,5.302-10.752,5.944-17.277c0.2-0.036,0.398-0.056,0.599-0.104
	c3.925-0.918,7.411-3.09,10.315-5.818c2.446-2.297,5.701-4.582,6.972-7.787c1.713-4.314,0.826-9.577,0.324-14.025
	c-0.592-5.238-1.882-10.159-1.888-15.498c-0.006-5.613-0.102-11.476-0.601-17.044c-0.933-10.415-1.768-20.835-2.763-31.275
	c-0.961-10.097-1.738-20.141-2.664-30.227c-1.021-11.114-1.632-22.218-3.022-33.313c-0.915-7.3-3.298-19.726-10.499-23.546
	c-7.64-4.051-15.082-2.523-22.376,1.488c-2.329,1.28-4.169,2.93-6.362,4.376c-2.843,1.876-6.087,2.532-9.314,3.464
	c-5.73,1.655-11.5,3.076-17.329,4.346c-0.475,0.104-0.953,0.197-1.429,0.297c-1.247,0.201-2.496,0.381-3.751,0.504
	c-9.517,0.933-18.957,3.626-27.906,7.017c-13.439,5.092-27.605,14.246-31.668,28.874c-2.21,7.955-4.48,17.823-3.935,26.108
	c0.226,3.428,2.593,6.946,4.954,9.369c1.701,1.745,4.129,2.633,4.74,5.214c0.553,2.337-0.714,5.639-1.339,7.858
	c-2.668,9.47-8.621,17.26-13.343,25.746c-4.179,7.509-8.98,13.341-4.152,21.787c2.596,4.539,7.999,11.305,13.768,14.612
	c-2.873,3.604-5.244,10.471-5.79,14.019c-0.465,3.026,1.375,4.921,3.817,5.948c0.06,1.103,0.378,1.34,1.091,3.045
	c1.761,4.212,1.678,6.56-0.089,10.781c-1.965,4.693-2.606,7.705-3.381,12.83c-1.171,7.727-4.03,19.218,0.081,26.553
	c3.272,5.84,12.275,6.49,18.165,6.58c3.605,0.056,7.235-0.001,10.869-0.112c-3.198,12.008-2.536,25.287-3.926,37.473
	c-0.932,8.168-1.777,16.474-4.244,24.354c-1.156,3.694-2.497,7.309-3.862,10.899c-0.713,0.931-1.214,1.953-1.721,3.016
	c-0.937,1.965-2.361,4.106-1.958,6.392c0.675,3.829,4.559,3.429,7.854,2.156c0.852-0.025,1.712-0.1,2.02-0.082
	c1.666,0.091,3.367,0.366,4.95,0.901c3.728,1.263,6.391,4.4,10.057,5.733c2.521,0.916,4.995,0.514,5.498-2.574
	c0.714-4.395-3.488-9.218-3.422-13.763c0.026-1.841-0.145-6.21,3.213-5.841c0.676,0.074,2.314,2.106,2.819,2.593
	c2.512,2.421,5.431,6.287,6.544,9.616c1.101,3.293,6.333,1.887,5.231-1.443c-1.292-3.901-0.459-10.886,0.292-14.785
	c0.624-3.24,3.19-13.761,7.978-6.295c1.698,2.648,1.027,9.05,1.143,12.066c0.136,3.528,0.282,6.955,3.206,9.357
	c1.856,1.525,5.581,1.365,6.054-1.599c0.92-5.76,2.244-11.286,4.242-16.783c1.333-3.668,3.328-7.733,6.339-10.386
	c2.004-1.766,0.809-1.747,1.152,0.296c0.237,1.405,0.233,3.015,0.316,4.45c0.338,5.868-4.544,19.911,2.271,23.568
	c0.996,0.534,2.285,0.639,3.272,0c2.478-1.604,2.574-4.038,3.889-6.499c1.655-3.1,2.921-6.406,4.565-9.512
	c1.32-2.495,3.428-7.614,5.143-1.592c0.628,2.203-0.401,5.191-0.718,7.389c-0.589,4.084-2.085,8.141-2.002,12.257
	c0.055,2.687,3.129,3.728,5.04,2.088c2.261-1.938,11.684-18.362,15.162-13.959c0.764,0.967-1.443,7.631-1.606,8.577
	c-0.414,2.412-0.761,4.466,0.358,6.741c1.02,2.074,3.982,2.183,5.501,0.709c1.72-1.668,2.421-3.52,3.675-5.502
	c1.781-2.815,4.819-4.934,7.632-6.71c3.619-2.285,8.296-3.24,11.612,0.293c1.204,1.284,1.716,2.556,2.818,3.663
	c0.708,1.726,1.822,3.216,3.655,4.282c1.383,0.804,3.079,0.277,3.921-1.028c2.883-4.465,2.088-10.772,5.369-15.328
	c2.639-3.666,7.032-6.022,7.255-0.215c0.082,2.145-0.429,4.01,0.09,6.143c0.452,1.856,3.079,2.623,4.386,1.158
	c1.882-2.108,2.058-9.514,5.251-8.315c2.842,1.067,6.442,8.034,8.083,10.415c1.428,2.072,4.302,2.179,5.708,0
	c1.083-1.678,0.802-3.363,1.511-5.082c0.611-1.483,2.169-3.673,4.355-3.513c1.819,0.132,3.932,2.589,5.372,3.719
	c2.301,1.805,6.444,0.252,5.377-3.131c-1.375-4.364-2.692-10.023-0.772-14.442c0.467-1.073,1.057-1.934,1.735-2.654
	c4.862-3.458,10.408-5.151,14.657,0.084c1.997,2.46,4.374,5.477,5.828,8.238c1.337,2.536,1.685,4.624,4.074,6.47
	c2.818,2.176,6.257-1.403,5.581-4.29c-0.881-3.77-1.531-7.969,0.869-11.447c3.772-5.465,7.408-0.78,10.098,2.652
	c1.307,1.666,4.378,1.091,5.277-0.68c1.242-2.446,1.943-3.168,3.63-4.01c3.145,0.87,5.765,2.259,7.233,5.638
	c1.919,4.418,0.603,10.078-0.772,14.442c-1.067,3.383,3.076,4.936,5.377,3.131c1.44-1.129,3.554-3.587,5.372-3.719
	c2.186-0.159,3.744,2.03,4.355,3.513c0.709,1.718,0.428,3.403,1.511,5.082c1.408,2.179,4.28,2.072,5.708,0
	c1.641-2.381,5.24-9.348,8.083-10.415c3.193-1.199,3.369,6.207,5.251,8.315c1.308,1.465,3.935,0.698,4.386-1.158
	c0.519-2.134,0.008-3.998,0.09-6.144c0.223-5.808,4.616-3.452,7.255,0.215c3.281,4.556,2.486,10.863,5.369,15.328
	c0.842,1.305,2.538,1.832,3.921,1.028c1.833-1.066,2.948-2.556,3.655-4.282c1.102-1.107,1.614-2.379,2.818-3.663
	c3.316-3.533,7.993-2.578,11.612-0.293c2.813,1.776,5.851,3.895,7.632,6.71c1.253,1.982,1.954,3.834,3.675,5.502
	c1.519,1.474,4.481,1.365,5.501-0.709c1.119-2.275,0.772-4.329,0.358-6.741c-0.162-0.946-2.369-7.61-1.606-8.577
	c3.478-4.404,12.901,12.021,15.162,13.959c1.912,1.638,4.987,0.599,5.042-2.088c0.084-4.116-1.413-8.173-2.002-12.257
	c-0.317-2.196-1.345-5.185-0.718-7.389c1.716-6.021,3.822-0.902,5.143,1.592c1.643,3.105,2.911,6.411,4.565,9.512
	c1.313,2.461,1.409,4.896,3.889,6.499c0.987,0.639,2.276,0.534,3.272,0c6.814-3.659,1.933-17.7,2.271-23.568
	c0.082-1.435,0.079-3.045,0.316-4.45c0.344-2.042-0.851-2.062,1.152-0.296c3.011,2.653,5.005,6.718,6.339,10.386
	c1.998,5.496,3.322,11.023,4.242,16.783c0.473,2.964,4.198,3.124,6.054,1.599c2.924-2.401,3.07-5.829,3.206-9.357
	c0.116-3.015-0.555-9.417,1.143-12.066c4.788-7.466,7.354,3.054,7.978,6.295c0.751,3.898,1.585,10.883,0.292,14.785
	c-1.102,3.329,4.131,4.735,5.231,1.443c1.113-3.329,4.032-7.197,6.544-9.616c0.504-0.487,2.141-2.518,2.819-2.593
	c3.358-0.368,3.187,4.001,3.213,5.842c0.067,4.545-4.136,9.367-3.422,13.763c0.503,3.09,2.979,3.49,5.498,2.574
	c3.666-1.333,6.328-4.47,10.057-5.733c1.584-0.537,3.284-0.811,4.951-0.901c0.085-0.005,0.215-0.003,0.373,0.004
	c1.328,0.626,2.558,1.41,4.094,1.67c5.14,0.867,6.822-4.521,3.937-7.346c-2.077-5.505-4.29-11.018-6.071-16.71
	c-2.467-7.881-3.312-16.187-4.244-24.354c-1.39-12.186-0.729-25.464-3.927-37.473c3.634,0.111,7.264,0.167,10.869,0.112
	c5.89-0.091,14.893-0.741,18.165-6.58c4.111-7.335,1.25-18.826,0.081-26.553c-0.775-5.124-1.415-8.136-3.381-12.83
	c-1.767-4.219-1.849-6.568-0.089-10.781c0.713-1.705,1.031-1.942,1.091-3.045c2.442-1.027,4.282-2.92,3.817-5.948
	c-0.547-3.548-2.918-10.415-5.79-14.019C501.975,291.341,507.38,284.575,509.974,280.037z M111.45,147.052
	c0.125-1.195,0.603-2.331,1.294-3.388c1.772-1.137,3.53-2.306,5.457-3.212c4.496-2.114,8.19-2.633,12.799-0.802
	c5.858,2.325,7.152,6.809,8.254,12.543c1.025,5.329,1.369,10.685,1.712,16.111c0.316,4.968-0.991,9.92-0.631,14.878
	c0.308,4.264,0.839,8.574,1.202,12.837c0.376,4.411,0.04,8.787,0.332,13.193c0.626,9.464,2.486,18.875,2.95,28.369
	c0.426,8.707,1.248,17.364,1.747,26.072c0.318,5.547-0.057,10.934,0.922,16.449c0.709,3.99,2.728,10.737,1.409,14.784
	c-1.127,3.458-6.296,7.652-9.478,9.176c-2.264,1.084-3.787,0.854-6.084,0.986c-1.869,0.107-3.569,0.705-5.365,1.152
	c-4.103-0.352-8.077-1.118-10.653-3.428c-5.282-4.736-2.291-16.545-1.562-22.948c0.928-8.163,0.397-17.264-0.382-25.445
	c-0.809-8.507-0.749-17.02-0.762-25.565c-0.025-15.13,1.363-31.041-1.151-45.978c-1.403-8.331-2.837-16.837-1.826-25.317
	C112.054,153.999,111.096,150.458,111.45,147.052z M16.433,253.03c2.659-6.902,6.583-13.494,8.491-20.764
	c0.706-2.693,1.493-6.696,0.825-9.498c-0.755-3.173-3.319-4.195-5.309-6.465c-0.302-0.344-0.545-0.73-0.761-1.132
	c7.756-1.96,15.293-4.76,23.21-6.241c9.099-1.701,18.852-3.689,28.102-4.043c7.52-0.288,19.269,1.969,23.285,9.152
	c6.599,11.808-6.115,18.197-15.933,19.056c-11.729,1.026-32.764-2.163-34.638,14.485c-0.923,8.208,2.224,15.621,4.923,23.218
	c0.948,2.669,3.165,6.872,3.146,10.245c-0.432-0.591-0.845-1.195-1.177-1.562c-1.56-1.73-3.186-3.326-5.083-4.7
	c-4.073-2.951-8.894-3.413-13.73-4.232c-4.702-0.795-10.116-1.156-14.851-0.479c-3.085,0.441-6.733,1.223-9.816,2.692
	C7.71,266.225,14.306,258.555,16.433,253.03z M7.678,276.811c-0.144-0.337-0.251-0.683-0.342-1.031
	c8.502-2.23,17.501-2.772,26.077-0.867c4.751,1.054,8.687,1.928,12.137,5.76c1.424,1.582,2.46,3.679,4.011,5.114
	c-0.147,0.162-0.287,0.324-0.443,0.487c-6.831-0.061-14.201,3.422-20.81,4.249c-3.795,0.475-6.695,1.315-9.851-1.188
	C14.398,286.116,9.773,281.749,7.678,276.811z M32.58,367.938c-3.562,0.061-8.083,0.525-11.574-0.468
	c-6.091-1.733-5.131-9.621-4.569-14.613c0.448-3.96,1.031-7.916,1.554-11.87c0.638-4.821,2.371-8.638,3.609-13.199
	c0.268-0.991,0.407-2.014,0.437-3.042c5.208,0.004,10.541,0.745,15.716,0.196c2.95-0.313,4.867-0.78,7.904-0.412
	c2.646,0.321,5.238,0.563,7.858,0.12c1.043-0.177,0.903-1.711,0-1.974c-3.126-0.91-6.151-2.658-9.407-3.081
	c-3.238-0.422-6.6,0.294-9.841,0.297c-3.054,0.001-8.876-0.703-12.755,0.674c-0.495-1.802-1.315-3.515-2.458-4.98
	c3.436-0.042,6.903-0.864,10.409-0.912c3.735-0.052,7.539-0.376,11.265-0.289c4.015,0.091,8.856,0.534,12.791,1.374
	c2.85,0.609,4.703,2.44,7.642,2.401c1.908-0.025,2.296-2.35,0.91-3.361c-8.729-6.369-21.193-5.153-31.445-5.276
	c-3.005-0.036-6.156,0.119-9.126-0.135c-1.718-0.146-4.248,2.412-5.448-1.062c-0.21-0.606,1.166-3.177,1.395-3.846
	c0.764-2.218,2.41-5.453,2.376-8.174c0.759,0.182,1.514,0.308,2.261,0.313c6.942,0.05,14.598-1.639,21.564-4.162
	c0.139,0.18,0.357,0.28,0.636,0.172c6.243-2.381,13.056-3.871,12.923-12.056c-0.163-10.154-8.402-18.977-8.9-29.09
	c-0.821-16.656,20.274-12.151,31.023-13.192c7.468-0.723,16.481-3.344,20.068-10.614c8.158-16.534-11.154-26.856-24.737-27.734
	c-10.059-0.65-20.795,2.381-30.615,4.138c-5.678,1.016-11.548,2.407-17.003,4.3c-2.229,0.774-4.342,1.771-6.469,2.778
	c-0.047,0.022-0.866,0.485-1.801,1.022c-0.464-3.498,0.458-7.741,0.721-10.859c0.366-4.327,0.505-8.554,1.285-12.819
	c1.222-6.673,3.455-12.741,8.259-17.652c6.368-6.51,14.436-10.959,23.121-13.683c1.033-0.323,2.072-0.605,3.112-0.88
	c3.604,0.352,7.369-0.268,10.834-1.036c9.598-2.128,19.391-3.902,29.082-5.567c4.005-0.688,8.11-1.436,11.904-2.965
	c-0.921,3.789-0.401,8.116-0.916,11.997c-0.635,4.785-0.265,9.734,0.144,14.518c0.772,9.059,2.674,17.895,2.735,27.035
	c0.079,11.513-0.245,23.062-0.265,34.581c-0.019,10.73,0.075,21.439,0.029,32.165c-0.04,9.515-1.31,18.655-1.974,28.132
	c-0.549,7.849,3.745,14.326,11.103,17.139c4.04,1.544,9.691,2.148,14.473,0.933c-0.65,2.747-0.646,5.676-1.871,8.335
	c-1.596,3.464-4.723,6.153-7.36,8.81c-5.745,5.785-12.024,10.4-18.349,15.389c-7.03,5.546-15.217,8.824-23.111,12.892
	c-0.507,0.261-1.031,0.538-1.561,0.82c0.568-0.714,1.131-1.431,1.69-2.153c3.376-4.354,4.123-8.543,5.906-13.59
	c4.182-11.827,5.833-25.124,7.657-37.594c1.781-12.166,2.657-24.384,3.769-36.619c0.952-10.486,4.136-21.81,2.723-32.331
	c-0.094-0.696-1.054-0.731-1.112,0c-0.764,9.926-3.907,19.948-5.215,29.875c-1.494,11.339-2.019,22.703-3.634,33.987
	c-1.708,11.935-3.957,23.997-6.792,35.709c-1.043,4.312-3.129,11.336-5.442,15.006c-2.715,4.307-6.543,8.478-9.802,12.523
	c-4.041,1.259-9.145,1.675-13.22,2.096C48.698,367.206,40.619,367.798,32.58,367.938z M83.312,433.033
	c-0.329-1.008-0.708-2-1.199-2.943c-1.933-3.699-5.44-6.281-9.689-4.592c-4.238,1.685-6.106,6.913-7.33,10.911
	c-0.704,2.301-1.338,5.218-1.646,8.2c-0.965-1.021-1.969-1.988-2.994-2.878c-2.713-2.355-5.043-5.355-8.782-3.158
	c-3.203,1.882-4.017,6.182-4.258,9.57c-0.165,2.334-0.122,4.631,0.483,6.896c0.046,0.172,1.042,2.545,1.745,4.332
	c-3.039-1.856-5.734-4.908-9.392-5.717c-2.186-0.483-3.923-0.457-5.591-0.161c5.367-12.358,8.136-25.726,9.665-39.157
	c0.78-6.859,0.85-13.393,0.923-20.285c0.074-6.842,1.44-13.328-0.072-19.929c4.579-0.228,9.151-0.574,13.67-1.057
	c4.139-0.442,8.592-0.845,12.62-1.874c4.156-1.062,7.988-3.696,11.861-5.512c8.963-4.2,17.84-8.518,25.818-14.417
	c6.701-4.954,12.386-10.501,18.208-16.333c-0.379,2.007-0.728,4.058-1.118,6.258c-1.005,5.666-2.037,12.867,1.118,18.065
	c-0.538-0.11-1.146,0.05-1.57,0.411c1.064-0.904-6.182,0.572-7.42,0.981c-3.442,1.136-6.463,3.272-9.18,5.627
	c-6.198,5.374-10.31,12.134-13.273,19.74c-3.374,8.666-6.287,17.354-8.511,26.388C85.843,418.723,83.694,426.13,83.312,433.033z
	 M153.691,405.122c-0.59,6.198-1.04,12.387-1.575,18.568c-0.458,5.289-1.483,11.508,0.287,16.73
	c-3.041,1.168-5.95,3.227-8.458,5.133c-0.291,0.221-0.547,0.463-0.807,0.7c0.197-0.928,0.328-1.781,0.306-2.467
	c-0.11-3.329-1.752-6.563-5.223-7.317c-3.933-0.854-8.572,2.497-11.371,4.848c-0.922,0.775-1.782,1.636-2.594,2.544
	c1.138-8.014,1.424-16.727-5.448-16.606c-3.87,0.069-7.172,3.754-9.074,6.709c-1.6,2.486-2.568,5.312-4.073,7.844
	c-0.172,0.288-0.364,0.572-0.562,0.852c0.03-5.324,0.734-12.886,0.57-14.364c-0.408-3.684,0.034-10.42-5.566-10.534
	c-4.988-0.101-10.66,8.511-12.639,12.316c-0.208,0.399-0.383,0.799-0.58,1.198c2.956-12.891,5.387-25.839,10.527-38.14
	c3-7.182,5.871-14.694,11.553-20.23c0.781-0.761,1.586-1.525,2.418-2.266c4.092-2.543,8.501-4.484,13.426-5.017
	c2.936-0.317,5.903-0.441,8.83-0.07c2.145,1.501,4.458,2.789,6.669,4.002c3.396,1.864,7.279,3.004,10.383,5.387
	c1.594,1.224,2.666,2.798,3.453,4.534c-5.164-2.274-12.754-2.502-16.179-1.928c-6.915,1.159-12.112,4.913-17.013,9.767
	c-4.102,4.063-4.808,8.895-6.971,14.082c-0.307,0.735,0.85,1.384,1.344,0.782c1.812-2.208,3.115-4.685,4.572-7.134
	c2.837-4.768,6.577-8.176,11.774-10.506c6.825-3.06,19.202-4.197,24.575,2.589C155.186,393.088,154.269,399.064,153.691,405.122z
	 M190.297,295.724c-1.259-5.272-0.523-10.878-1.157-16.252c-0.686-5.833-0.188-11.52-0.484-17.35
	c-0.547-10.728-1.929-21.585-3.147-32.26c-2.805-24.562-0.961-49.138-0.364-73.751c0.273-11.31,0.029-22.564,0.396-33.809
	c0.146-4.453,1.305-8.894,1.448-13.351c0.192-6.022-0.021-12.338,0.968-18.301c2.104-12.674,6.558-28.411,19.944-33.337
	c1.771-0.651,3.575-1.182,5.398-1.636c4.094-0.147,8.295-0.716,12.11-0.96c6.815-0.436,13.861-1.084,20.703-1.192
	c2.833-0.045,5.485,0.079,8.304-0.272c3.322-0.412,5.966,0.431,9.232,0.565c6.26,0.26,13.123,0.656,19.454-0.478
	c7.164,0.648,14.292,1.506,20.992,3.972c13.386,4.926,17.84,20.664,19.944,33.337c0.99,5.963,0.777,12.278,0.968,18.301
	c0.142,4.458,1.302,8.899,1.448,13.351c0.367,11.245,0.122,22.5,0.396,33.809c0.597,24.611,2.441,49.188-0.364,73.751
	c-1.219,10.673-2.602,21.532-3.147,32.26c-0.296,5.83,0.202,11.517-0.484,17.35c-0.633,5.374,0.102,10.979-1.157,16.252
	c-2.782,11.651-17.833,15.428-28.043,16.685c-12.107,1.49-23.638,2.992-35.891,2.45c-0.775-0.035-1.215,0.377-1.396,0.906
	c-0.242,0.014-0.484,0.024-0.726,0.037c-0.172-0.548-0.614-0.978-1.408-0.942c-12.253,0.543-23.785-0.96-35.891-2.45
	C208.13,311.152,193.079,307.375,190.297,295.724z M204.913,317.976c2.201,0.613,4.39,1.066,6.489,1.357
	c4.767,0.66,9.598,1.324,14.433,1.726c1.345,0.19,2.669,0.358,3.837,0.565c7.637,1.361,14.52,1.078,22.274,1.25
	c7.549,0.168,15.301-0.218,22.868-0.392c2.863-0.066,5.582-0.62,8.32-1.207c5.841-0.338,11.697-1.146,17.457-1.944
	c2.099-0.291,4.288-0.744,6.489-1.357c-0.026,0.297-0.042,0.598-0.04,0.904c0.022,2.755,0.812,5.738,1.474,8.387
	c0.767,3.075,1.828,5.96,3.313,8.637c-4.166,7.333-6.907,15.075-12.658,21.619c-2.641,3.005-5.94,5.883-9.492,8.436
	c-0.492-0.639-1.406-0.981-2.215-0.523c-6.046,3.428-11.47,8.334-18.376,10.082c-6.786,1.717-13.878,0.582-20.75,0.392
	c-5.111-0.141-9.649-1.094-14.223-2.728c-0.072-0.262-0.25-0.499-0.588-0.654c-7.374-3.387-15.376-8.941-20.703-15.005
	c-5.75-6.543-8.491-14.286-12.658-21.619c1.485-2.677,2.546-5.562,3.313-8.637c0.661-2.648,1.451-5.631,1.474-8.387
	C204.957,318.574,204.939,318.273,204.913,317.976z M347.539,440.631c-3.071,1.405-4.112,4.626-6.523,6.28
	c-0.146-0.804-0.301-1.58-0.523-2.247c-0.725-2.193-1.544-4.413-2.633-6.454c-2.158-4.041-5.014-6.242-9.316-7.594
	c-3.172-0.996-5.975-1.167-7.852,2.11c-0.221,0.387-0.387,0.78-0.52,1.177c-1.217-1.174-2.594-1.94-4.458-1.836
	c-3.54,0.198-7.202,3.741-10.134,7.386c-0.13-0.479-0.29-0.947-0.533-1.381c-1.142-2.039-2.988-3.545-5.189-4.289
	c-2.684-0.906-5.03-0.524-7.187,0.462c0.539-5.042-0.036-10.275-3.11-14.075c-1.897-2.346-4.297-4.193-6.925-5.093
	c-0.367-0.475-0.941-0.815-1.627-0.892c-2.8-0.317-4.419-1.426-7.19,0.182c-1.673,0.971-2.777,2.337-3.64,3.876
	c-1.386-0.987-2.748-2.103-4.511-2.641c-2.948-0.898-5.335-0.445-7.826,1.348c-2.356,1.697-3.739,3.951-4.716,6.661
	c-0.107,0.298-0.19,0.616-0.291,0.922c-0.643-0.769-1.299-1.529-1.917-2.327c-2.582-3.339-4.376-6.671-8.648-8.107
	c-3.468-1.166-8.582-0.782-12.01,0.706c-2.983,0.754-5.718,2.75-7.831,5.364c-3.074,3.801-3.649,9.035-3.11,14.075
	c-2.156-0.986-4.503-1.368-7.187-0.462c-2.203,0.743-4.047,2.25-5.189,4.289c-0.243,0.434-0.402,0.902-0.533,1.381
	c-2.933-3.645-6.594-7.188-10.134-7.386c-1.863-0.104-3.241,0.661-4.458,1.836c-0.134-0.397-0.299-0.79-0.52-1.177
	c-1.877-3.277-4.68-3.107-7.852-2.11c-4.303,1.35-7.158,3.553-9.316,7.594c-1.091,2.042-1.908,4.262-2.633,6.454
	c-0.221,0.668-0.377,1.444-0.523,2.247c-2.411-1.654-3.452-4.874-6.522-6.28c-1.345-0.615-2.809-0.992-4.303-1.169
	c1.176-4.516,0.723-9.781,1.149-14.215c0.574-5.965,0.568-12.132,0.946-18.129c0.392-6.231,0.009-12.606,0.65-18.827
	c0.087-0.852,0.195-1.7,0.308-2.547c0.467-0.796,0.705-1.763,0.537-2.873c-0.016-0.106-0.046-0.2-0.064-0.306
	c0.961-5.775,2.371-11.451,3.683-17.175c1.931-8.425,6.861-11.979,14.386-15.417c5.266-2.405,10.726-4.486,14.703-8.86
	c0.161-0.177,0.303-0.363,0.459-0.543c1.904,7.665,7.576,15.724,12.077,20.787c2.874,3.233,7.144,7.166,11.823,9.961
	c1.465,1.139,3.034,2.158,5.093,3.261c6.751,3.616,13.063,5.941,20.715,6.483c12.673,0.897,27.171,1.359,37.182-6.602
	c7.328-1.713,14.858-8.214,19.205-13.103c4.501-5.063,10.173-13.122,12.077-20.787c0.155,0.18,0.297,0.366,0.459,0.543
	c3.977,4.374,9.437,6.455,14.703,8.86c7.526,3.438,12.455,6.992,14.386,15.417c1.312,5.724,2.722,11.4,3.683,17.175
	c-0.017,0.105-0.047,0.198-0.064,0.306c-0.168,1.111,0.071,2.078,0.537,2.873c0.114,0.846,0.22,1.695,0.308,2.547
	c0.641,6.221,0.258,12.596,0.651,18.827c0.378,5.996,0.371,12.162,0.946,18.129c0.427,4.434-0.026,9.699,1.149,14.215
	C350.347,439.639,348.884,440.015,347.539,440.631z M491.554,216.302c-1.989,2.27-4.554,3.292-5.309,6.465
	c-0.668,2.803,0.119,6.806,0.825,9.498c1.908,7.27,5.832,13.862,8.491,20.764c2.129,5.525,8.723,13.194,9.316,19.728
	c-3.084-1.469-6.733-2.251-9.816-2.692c-4.736-0.676-10.149-0.316-14.852,0.479c-4.836,0.817-9.656,1.279-13.73,4.232
	c-1.897,1.374-3.522,2.97-5.083,4.7c-0.332,0.367-0.745,0.971-1.177,1.562c-0.017-3.372,2.198-7.576,3.146-10.245
	c2.701-7.596,5.848-15.01,4.923-23.218c-1.874-16.647-22.909-13.459-34.638-14.485c-9.819-0.859-22.534-7.248-15.933-19.056
	c4.016-7.183,15.765-9.441,23.285-9.152c9.248,0.354,19.003,2.342,28.102,4.043c7.917,1.48,15.454,4.279,23.21,6.241
	C492.099,215.572,491.856,215.957,491.554,216.302z M378.659,305.045c-2.296-0.131-3.819,0.099-6.084-0.986
	c-3.181-1.524-8.351-5.718-9.478-9.176c-1.319-4.048,0.7-10.794,1.409-14.784c0.98-5.515,0.604-10.902,0.922-16.449
	c0.499-8.708,1.322-17.365,1.747-26.072c0.464-9.493,2.324-18.905,2.95-28.369c0.291-4.408-0.045-8.782,0.332-13.193
	c0.364-4.263,0.894-8.573,1.202-12.837c0.359-4.959-0.946-9.91-0.631-14.878c0.343-5.426,0.688-10.782,1.712-16.111
	c1.102-5.734,2.396-10.217,8.254-12.543c4.609-1.829,8.302-1.312,12.799,0.802c1.927,0.906,3.685,2.075,5.457,3.212
	c0.691,1.057,1.169,2.193,1.294,3.388c0.354,3.406-0.604,6.947-0.185,10.463c1.012,8.48-0.423,16.985-1.826,25.317
	c-2.513,14.938-1.126,30.849-1.151,45.978c-0.014,8.544,0.046,17.058-0.762,25.565c-0.779,8.181-1.31,17.282-0.382,25.445
	c0.729,6.403,3.72,18.212-1.562,22.948c-2.577,2.31-6.55,3.076-10.653,3.428C382.228,305.749,380.529,305.151,378.659,305.045z
	 M424.532,430.081c-1.979-3.804-7.651-12.417-12.639-12.316c-5.599,0.114-5.158,6.849-5.566,10.534
	c-0.163,1.478,0.54,9.039,0.57,14.364c-0.198-0.282-0.391-0.564-0.562-0.852c-1.506-2.532-2.473-5.36-4.073-7.844
	c-1.902-2.955-5.204-6.641-9.074-6.709c-6.872-0.121-6.587,8.591-5.448,16.606c-0.812-0.908-1.672-1.771-2.594-2.544
	c-2.799-2.35-7.438-5.702-11.371-4.848c-3.469,0.754-5.111,3.987-5.223,7.317c-0.022,0.686,0.107,1.539,0.306,2.467
	c-0.262-0.238-0.517-0.479-0.807-0.7c-2.508-1.907-5.417-3.965-8.458-5.133c1.768-5.221,0.745-11.441,0.287-16.73
	c-0.535-6.181-0.985-12.369-1.575-18.568c-0.577-6.057-1.495-12.032-2.551-17.99c5.374-6.786,17.75-5.648,24.575-2.589
	c5.198,2.33,8.939,5.738,11.774,10.506c1.458,2.45,2.76,4.928,4.572,7.134c0.494,0.602,1.651-0.047,1.344-0.782
	c-2.163-5.186-2.869-10.018-6.971-14.082c-4.901-4.854-10.098-8.607-17.013-9.767c-3.426-0.574-11.015-0.347-16.179,1.928
	c0.787-1.736,1.858-3.31,3.453-4.534c3.104-2.384,6.987-3.524,10.383-5.387c2.211-1.214,4.524-2.501,6.669-4.002
	c2.928-0.371,5.895-0.247,8.83,0.07c4.926,0.532,9.334,2.473,13.426,5.017c0.832,0.741,1.636,1.505,2.418,2.266
	c5.682,5.536,8.552,13.048,11.553,20.23c5.139,12.301,7.571,25.249,10.527,38.14C424.915,430.88,424.74,430.481,424.532,430.081z
	 M477.335,453.492c-1.667-0.296-3.404-0.321-5.591,0.161c-3.658,0.807-6.353,3.861-9.392,5.717c0.703-1.788,1.698-4.161,1.743-4.332
	c0.605-2.265,0.649-4.562,0.483-6.896c-0.24-3.388-1.053-7.688-4.258-9.57c-3.739-2.196-6.069,0.804-8.782,3.158
	c-1.025,0.89-2.029,1.857-2.994,2.878c-0.308-2.983-0.942-5.899-1.646-8.2c-1.223-3.996-3.091-9.226-7.33-10.911
	c-4.249-1.688-7.756,0.893-9.689,4.592c-0.493,0.942-0.871,1.933-1.199,2.943c-0.382-6.902-2.531-14.31-4.088-20.633
	c-2.224-9.035-5.136-17.722-8.511-26.388c-2.963-7.606-7.074-14.366-13.273-19.74c-2.717-2.355-5.738-4.491-9.18-5.627
	c-1.238-0.408-8.485-1.884-7.42-0.981c-0.423-0.359-1.032-0.519-1.57-0.411c3.156-5.198,2.123-12.401,1.119-18.065
	c-0.391-2.201-0.739-4.253-1.118-6.258c5.823,5.832,11.507,11.379,18.208,16.333c7.978,5.899,16.856,10.217,25.818,14.417
	c3.874,1.816,7.705,4.45,11.861,5.512c4.028,1.03,8.48,1.431,12.62,1.874c4.519,0.483,9.091,0.829,13.67,1.057
	c-1.512,6.602-0.145,13.087-0.072,19.929c0.074,6.892,0.142,13.426,0.923,20.285C469.198,427.768,471.968,441.134,477.335,453.492z
	 M495.945,308.324c-1.201,3.474-3.73,0.916-5.448,1.062c-2.97,0.253-6.121,0.099-9.126,0.135
	c-10.252,0.124-22.717-1.093-31.445,5.276c-1.386,1.012-0.997,3.336,0.911,3.361c2.939,0.039,4.792-1.792,7.642-2.401
	c3.933-0.84,8.775-1.283,12.791-1.374c3.728-0.085,7.531,0.238,11.265,0.29c3.507,0.049,6.973,0.869,10.409,0.912
	c-1.144,1.465-1.963,3.178-2.458,4.98c-3.879-1.378-9.701-0.673-12.755-0.674c-3.241-0.003-6.603-0.719-9.841-0.297
	c-3.256,0.424-6.281,2.171-9.407,3.081c-0.903,0.263-1.043,1.797,0,1.974c2.621,0.443,5.213,0.201,7.858-0.12
	c3.037-0.368,4.956,0.099,7.904,0.412c5.175,0.549,10.509-0.192,15.716-0.196c0.029,1.028,0.167,2.05,0.437,3.042
	c1.237,4.56,2.971,8.379,3.609,13.199c0.523,3.955,1.106,7.911,1.554,11.87c0.564,4.992,1.522,12.88-4.569,14.613
	c-3.492,0.993-8.013,0.529-11.574,0.468c-8.038-0.139-16.118-0.731-24.11-1.559c-4.076-0.422-9.18-0.837-13.22-2.096
	c-3.26-4.044-7.087-8.216-9.802-12.523c-2.314-3.67-4.399-10.695-5.442-15.006c-2.835-11.712-5.084-23.773-6.792-35.709
	c-1.615-11.284-2.14-22.648-3.634-33.987c-1.308-9.927-4.45-19.948-5.215-29.875c-0.057-0.731-1.018-0.696-1.112,0
	c-1.413,10.521,1.771,21.845,2.723,32.331c1.112,12.235,1.988,24.453,3.769,36.619c1.824,12.469,3.475,25.767,7.657,37.594
	c1.785,5.047,2.531,9.236,5.906,13.59c0.559,0.72,1.122,1.438,1.688,2.153c-0.53-0.282-1.054-0.559-1.561-0.82
	c-7.894-4.068-16.081-7.346-23.111-12.892c-6.326-4.989-12.604-9.605-18.349-15.389c-2.638-2.656-5.764-5.345-7.36-8.81
	c-1.225-2.659-1.22-5.588-1.871-8.335c4.782,1.214,10.434,0.61,14.473-0.933c7.359-2.813,11.652-9.291,11.103-17.139
	c-0.664-9.477-1.934-18.616-1.974-28.132c-0.045-10.727,0.047-21.436,0.029-32.165c-0.02-11.52-0.343-23.069-0.265-34.581
	c0.061-9.14,1.963-17.976,2.735-27.035c0.408-4.785,0.779-9.734,0.144-14.518c-0.515-3.88,0.005-8.209-0.916-11.997
	c3.792,1.529,7.899,2.277,11.904,2.965c9.689,1.665,19.484,3.439,29.082,5.567c3.465,0.769,7.23,1.388,10.834,1.036
	c1.041,0.273,2.079,0.555,3.112,0.88c8.686,2.724,16.753,7.173,23.121,13.683c4.803,4.911,7.038,10.979,8.259,17.652
	c0.78,4.264,0.92,8.492,1.285,12.819c0.263,3.119,1.186,7.361,0.721,10.859c-0.936-0.537-1.753-1-1.801-1.022
	c-2.129-1.007-4.242-2.004-6.469-2.778c-5.456-1.894-11.326-3.285-17.004-4.3c-9.82-1.757-20.556-4.788-30.615-4.138
	c-13.584,0.877-32.895,11.2-24.737,27.734c3.587,7.269,12.6,9.891,20.068,10.614c10.751,1.041,31.844-3.464,31.023,13.192
	c-0.498,10.113-8.737,18.936-8.9,29.09c-0.132,8.185,6.68,9.675,12.923,12.056c0.28,0.106,0.499,0.007,0.636-0.172
	c6.966,2.523,14.622,4.212,21.564,4.162c0.746-0.005,1.503-0.131,2.26-0.313c-0.034,2.722,1.612,5.956,2.376,8.174
	C494.78,305.147,496.155,307.718,495.945,308.324z M493.538,289.335c-3.156,2.503-6.056,1.663-9.851,1.188
	c-6.609-0.827-13.979-4.31-20.81-4.249c-0.156-0.162-0.296-0.324-0.443-0.487c1.551-1.436,2.587-3.532,4.011-5.114
	c3.451-3.834,7.386-4.706,12.137-5.76c8.576-1.904,17.574-1.363,26.077,0.867c-0.091,0.348-0.198,0.694-0.342,1.031
	C502.221,281.749,497.596,286.116,493.538,289.335z"/>
<path d="M284.968,258.007c-4.604-1.672-8.911-2.92-13.824-2.986c-6.213-0.082-12.368-0.874-18.587-0.553
	c-9.225,0.475-19.079,0.366-27.785,3.879c-0.654,0.263-0.841,1.339,0,1.522c3.547,0.774,7.873,0.256,11.476,0.089
	c5.426-0.252,10.859-0.755,16.308-1.082c5.899-0.354,11.828,0.658,17.745,0.676c4.903,0.015,9.809,1.677,14.666,0.656
	C286.159,259.958,285.941,258.36,284.968,258.007z"/>
<g>
</g>
<g>
</g>
<g>
</g>
<g>
</g>
<g>
</g>
<g>
</g>
<g>
</g>
<g>
</g>
<g>
</g>
<g>
</g>
<g>
</g>
<g>
</g>
<g>
</g>
<g>
</g>
<g>
</g>
</svg>
