<?xml version="1.0" encoding="iso-8859-1"?>
<!-- Generator: Adobe Illustrator 19.0.0, SVG Export Plug-In . SVG Version: 6.00 Build 0)  -->
<svg version="1.1" id="Layer_1" xmlns="http://www.w3.org/2000/svg" xmlns:xlink="http://www.w3.org/1999/xlink" x="0px" y="0px"
	 viewBox="0 0 512.004 512.004" style="enable-background:new 0 0 512.004 512.004;" xml:space="preserve">
<path style="fill:#EFC98B;" d="M283.469,124.45c7.755,5.72,15.5,11.456,23.252,17.18c3.424,2.528,6.868,5.733,10.739,7.478
	c3.814,1.721,8.213,2.889,12.162,4.444c1.522,0.6,3.137,1.272,4.05,2.629c2.384,3.547,0.841,11.997-3.929,12.846
	c-1.835,0.327-3.83-0.339-5.537,0.409c-1.614,0.707-2.499,2.537-2.606,4.295c-0.107,1.759,0.418,3.488,0.909,5.18
	c0.756,2.603,1.001,5.317,1.432,7.986c0.452,2.799,0.444,5.916,3.312,7.206c1.184,0.532,2.486,0.873,3.481,1.706
	c3.04,2.549,1.571,8.016,4.391,10.805c1.793,1.773,4.659,1.793,6.884,2.98c2.35,1.254,3.822,3.765,4.441,6.355
	c0.555,2.323,0.13,4.585,0.419,6.89c0.226,1.796,0.904,3.541,1.115,5.395c0.583,5.095,0.834,10.252,0.844,15.383
	c0.024,11.828-0.04,23.657-0.082,35.485c-0.021,6.04-0.039,12.079-0.032,18.119c0.004,3.94,0.087,9.8-3.256,12.557
	c-1.761,1.452-4.155,1.78-6.378,2.298c-2.223,0.519-4.611,1.471-5.591,3.533c-1.52,3.201,1.042,7.601-1.238,10.314
	c-1.727,2.053-5.09,1.635-7.263,3.21c-1.345,0.974-2.071,2.624-2.288,4.27c-0.217,1.646,0.014,3.314,0.245,4.958
	c1.027,7.311,2.552,14.713,2.624,22.098c0.124,12.623,0.247,25.248,0.387,37.871c0.069,6.31,0.143,12.619,0.223,18.929
	c0.039,3.076,0.456,6.406,0.125,9.46c-0.291,2.687-0.776,5.202-0.282,7.954c0.406,2.265,1.463,4.503,3.319,5.864
	c1.412,1.035,3.173,1.493,4.629,2.467c3.035,2.03,3.559,5.531,2.965,8.849c-0.632,3.523-2.106,4.617-5.825,5.239
	c-1.423,0.237-3.004,0.484-3.907,1.611c-0.815,1.017-0.816,2.447-0.719,3.748c0.194,2.601,0.844,5.048,1.269,7.601
	c0.365,2.192,0.182,4.51,0.25,6.745c0.128,4.179,0.375,8.357,0.356,12.541c-0.028,6.179,0.065,13.302-5.759,17.261
	c-3.275,2.225-7.497,2.327-11.456,2.351c-10.238,0.062-20.476,0.125-30.714,0.186c-24.842,0.151-49.669-0.467-74.536-0.526
	c-5.036-0.012-10.143-0.065-15.066-1.25c-2.367-0.569-3.889-1.089-4.627-3.595c-0.527-1.792-0.278-3.749-0.395-5.59
	c-0.271-4.251-0.542-8.502-0.676-12.76c-0.109-3.451,0.389-6.772,0.243-10.182c-0.177-4.107-0.103-8.224,0.222-12.322
	c0.168-2.115,0.228-4.638-1.484-5.891c-2.058-1.505-4.958-0.359-6.76-2.389c-1.921-2.164-3.707-6.191-2.309-8.972
	c0.832-1.656,2.553-2.662,4.256-3.395c1.702-0.733,3.517-1.306,4.951-2.48c2.943-2.409,2.615-6.06,2.741-9.471
	c0.156-4.22,0.108-8.445,0.204-12.667c0.085-3.773,0.156-7.548,0.222-11.322c0.217-12.58,0.372-25.163,0.788-37.739
	c0.197-5.958,1.294-12.42,0.779-18.345c-0.481-5.521,0.18-11.118-0.504-16.707c-0.19-1.553-0.587-3.323-1.974-4.047
	c-0.972-0.508-2.155-0.335-3.21-0.635c-6.069-1.725-0.01-12.72-6.525-14.791c-0.955-0.303-1.986-0.202-2.987-0.258
	c-2.613-0.149-5.138-1.463-6.759-3.519c-2.186-2.773-2.164-6.6-2.275-9.961c-0.136-4.113,0.165-8.228,0.363-12.334
	c0.63-13.172-0.566-26.421-0.567-39.635c0-5.313,0.246-10.625,0.718-15.916c0.238-2.668,0.405-4.91,0.063-7.549
	c-0.332-2.562-0.542-5.168-0.118-7.733c0.547-3.314,2.32-6.604,5.315-8.126c1.567-0.798,3.349-1.061,4.984-1.71
	c4.567-1.813,4.047-7.798,7.54-10.987c1.017-0.929,2.192-1.69,3.097-2.729c1.6-1.836,1.867-5.146,2.224-7.474
	c0.465-3.02,0.767-6.062,1.24-9.079c0.273-1.739,0.498-3.536,0.064-5.243c-0.434-1.706-1.672-3.318-3.393-3.69
	c-1.437-0.31-2.935,0.271-4.391,0.079c-4.006-0.53-4.391-6.883-3.847-9.985c0.2-1.14,0.615-2.306,1.496-3.056
	c0.961-0.819,2.289-1.002,3.532-1.229c6.474-1.184,11.133-4.612,16.419-8.187c2.637-1.783,4.864-4.316,7.355-6.332
	c2.636-2.133,5.36-4.153,8.038-6.231c4.088-3.172,8.105-6.512,11.457-10.474c1.407-1.663,3.54-3.891,4.021-6.067
	c0.465-2.096,0.445-4.657,0.638-6.823c0.201-2.251,0.096-4.538,0.38-6.746c0.289-2.242,0.665-4.544-0.277-6.696
	c-0.591-1.352-1.642-2.466-2.219-3.825c-0.729-1.716-0.057-2.49,0.638-3.891c0.723-1.456,1.024-3.242,1.613-4.811
	c1.594-4.248,3.611-8.502,4.795-12.865c3.113-11.465,7.044-22.708,11.752-33.614c1.177-2.726,2.402-5.433,3.675-8.116
	c1.281-2.7,1.691-3.999,0.791-6.914c-1.384-4.48-4.622-8.744-3.673-13.663c0.905-4.69,6.226-7.849,10.893-6.832
	c4.354,0.949,7.595,5.036,8.132,9.37c0.275,2.222-0.158,5.307-1.531,7.156c-1.325,1.783-3.96,2.054-5.12,4.025
	c-0.829,1.409-0.533,3.211,0.06,4.733c1.416,3.641,2.024,7.181,3.465,10.871c2.252,5.765,4.501,11.531,6.755,17.295
	c3.245,8.293,6.503,16.58,9.804,24.849c1.253,3.141,3.487,7.738,2.736,11.214c-0.291,1.35-0.94,2.593-1.419,3.888
	c-1.642,4.438-0.466,8.791-0.312,13.288C282.112,113.86,283.204,119.119,283.469,124.45z"/>
<g>
	<path style="fill:#6280A5;" d="M185.303,152.74c-2.484,1.87-5.063,3.855-6.376,6.673c-1.314,2.818-0.869,6.719,1.798,8.316
		c1.47,0.88,3.278,0.906,4.99,0.907c46.035,0.026,92.069,0.052,138.104,0.078c2.947,0.002,6.226-0.126,8.316-2.206
		c3.229-3.214,1.352-9.046-2.211-11.886c-3.563-2.841-8.22-3.827-12.3-5.855c-9.899-4.92-15.737-15.553-25.028-21.543
		c-8.7-5.609-19.558-6.607-29.908-6.456c-8.214,0.119-16.453,0.875-24.66,0.171c-5.916-0.508-8.937-1.001-13.988,2.633
		C210.93,133.004,198.205,143.027,185.303,152.74z"/>
	<path style="fill:#6280A5;" d="M229.543,83.071c-0.917,2.413-1.705,5.489,0.151,7.283c1.197,1.157,3.035,1.253,4.7,1.281
		c15.141,0.253,30.283,0.506,45.425,0.759c1.165,0.02,2.399,0.022,3.401-0.573c1.581-0.939,2.042-3.108,1.592-4.891
		c-0.45-1.783-1.6-3.291-2.646-4.804c-11.062-15.997-12.495-36.656-20.368-54.442c-1.795-4.055-6.416-9.108-9.728-3.876
		c-3.521,5.561-5.18,13.604-7.524,19.774C239.545,56.744,234.544,69.908,229.543,83.071z"/>
</g>
<g>
	<path style="fill:#CC9C5C;" d="M216.99,201.235c3.096-2.594,7.839-3.082,11.321-1.036c3.482,2.046,5.368,6.547,4.235,10.423
		c-0.295,1.011-0.818,2.017-1.72,2.56c-0.942,0.567-2.115,0.529-3.214,0.472c-3.191-0.162-11.465,1.001-13.7-1.713
		C211.492,209.001,214.635,203.189,216.99,201.235z"/>
	<path style="fill:#CC9C5C;" d="M248.394,200.676c3.822-3.05,9.005-3.952,13.875-3.502c2.588,0.239,5.35,0.953,6.973,2.985
		c1.798,2.251,1.691,5.425,1.496,8.299c-0.104,1.528-0.339,3.288-1.637,4.101c-0.701,0.438-1.566,0.492-2.391,0.534
		c-3.898,0.198-7.796,0.394-11.694,0.591c-2.366,0.119-7.694,1.428-9.748,0.199C240.734,211.17,245.508,202.895,248.394,200.676z"/>
	<path style="fill:#CC9C5C;" d="M280.513,204.32c1.416-2.71,3.884-4.935,6.845-5.694s6.373,0.11,8.349,2.442
		c2.161,2.551,2.314,6.189,2.361,9.532c0.015,1.091,0.001,2.277-0.672,3.137c-0.939,1.198-2.708,1.245-4.226,1.149
		c-3.391-0.215-9.616,0.099-12.588-1.638C277.614,211.511,278.984,207.249,280.513,204.32z"/>
</g>
<path style="fill:#FFFFFF;" d="M220.016,254.695c-2.411,13.328,3.694,27.684,14.652,35.645s26.161,9.408,38.654,4.175
	c5.72-2.396,10.952-6.153,14.56-11.197c3.875-5.419,5.724-12.103,6.094-18.754c0.427-7.699-1.109-15.611-5.1-22.209
	c-4.183-6.917-10.984-12.153-18.66-14.688c-16.001-5.283-36.207,0.65-45.428,15.035C222.452,246.346,220.787,250.43,220.016,254.695
	z"/>
<g>
	<path style="fill:#826233;" d="M209.023,239.671c0.066,0.338,0.161,0.709,0.451,0.895c0.431,0.277,0.991-0.02,1.41-0.314
		c4.33-3.051,8.308-6.599,11.832-10.552c1.077-1.208,2.166-2.586,2.22-4.205c-3.321-0.499-6.707-0.569-10.046-0.206
		C207.172,226.124,207.834,233.596,209.023,239.671z"/>
	<path style="fill:#826233;" d="M300.266,242.732c2.419-4.581,1.873-10.093,1.264-15.237c-0.576-4.869-11.586-4.248-15.276-4.189
		c-2.133,0.034-3.888-0.01-2.371,2.547c1.652,2.78,6.466,5.307,8.818,7.713C293.617,234.502,300.836,241.673,300.266,242.732z"/>
	<path style="fill:#826233;" d="M212.907,296.372c0.185,0.985,0.431,2.032,1.166,2.714c0.863,0.802,2.15,0.883,3.328,0.92
		c2.836,0.09,5.672,0.181,8.509,0.271c0.641,0.021,1.371,0.004,1.796-0.476c0.72-0.814-0.057-2.054-0.811-2.839
		c-2.137-2.228-4.273-4.454-6.41-6.682c-2.085-2.174-3.118-4.591-5.869-6.209c-0.38-0.223-0.793-0.434-1.232-0.414
		c-1.087,0.049-1.602,1.406-1.524,2.491C212.11,289.626,212.277,292.911,212.907,296.372z"/>
	<path style="fill:#826233;" d="M284.973,298.188c0.193,0.476,0.726,0.704,1.216,0.854c2.787,0.854,5.769,0.69,8.679,0.516
		c1.011-0.06,2.1-0.15,2.869-0.809c0.778-0.665,1.032-1.745,1.217-2.752c0.434-2.357,1.045-4.681,1.185-7.083
		c0.026-0.452-0.618-7.622-1.677-6.517C296.17,284.787,283.462,294.464,284.973,298.188z"/>
</g>
<g>
	<path style="fill:#CC9C5C;" d="M204.215,357.089c0.353-2.175,0.771-4.386,1.839-6.311c1.069-1.926,2.91-3.551,5.097-3.809
		c2.3-0.271,4.551,1.007,6.11,2.72c3.809,4.182,4.136,10.38,4.161,16.036c0.083,19.182-0.98,38.347-2.041,57.5
		c-0.092,1.656-0.221,3.418-1.21,4.748c-1.54,2.071-4.496,2.31-7.077,2.368c-3.947,0.086-6.939-0.524-7.371-4.663
		c-0.519-4.969-0.524-10.171-0.846-15.186c-0.728-11.319-1.153-22.678-0.623-34.016
		C202.559,369.984,203.173,363.504,204.215,357.089z"/>
	<path style="fill:#CC9C5C;" d="M232.898,354.862c0.615-2.969,1.633-5.993,4.694-7.341c3.514-1.547,7.753,0.888,9.546,4.284
		s1.78,7.421,1.726,11.261c-0.259,18.143-0.517,36.287-0.777,54.43c-0.04,2.805-0.107,5.723-1.381,8.222
		c-1.823,3.573-6.374,5.651-10.143,4.279c-2.919-1.064-4.934-3.862-5.848-6.832c-0.914-2.97-0.893-6.136-0.864-9.244
		c0.098-10.552,0.202-21.106,0.296-31.658c0.038-4.211-0.385-8.585-0.033-12.723c0.386-4.542,1.715-8.875,2.528-13.339
		C232.722,355.76,232.806,355.312,232.898,354.862z"/>
	<path style="fill:#CC9C5C;" d="M261.913,385.799c0.231,10.919,1.088,21.889,1.376,32.611c0.067,2.509,0.18,5.168,1.569,7.259
		c1.477,2.222,4.181,3.383,6.839,3.627c0.37,0.034,0.74,0.061,1.11,0.083c3.313,0.194,7.222,0.944,8.272-2.775
		c0.959-3.399,0.523-7.056,0.575-10.537c0.089-6.01,0.369-12.021,0.175-18.032c-0.386-12.001-0.563-24.01-1.421-36.023
		c-0.132-2.905-0.276-5.865-1.298-8.588c-2.179-5.805-9.136-8.482-13.233-2.684c-1.429,2.022-1.968,4.528-2.372,6.971
		C261.983,366.902,261.712,376.331,261.913,385.799z"/>
	<path style="fill:#CC9C5C;" d="M292.515,356.543c-2.169,9.719-0.637,19.785-0.574,29.599c0.055,8.537,0.901,17.074,1.149,25.611
		c0.103,3.541-0.186,7.048-0.193,10.585c-0.003,1.586-0.174,4.814,1.065,6.118c2.446,2.574,9.474,0.778,12.46,0.482
		c1.776-0.177,2.505-0.373,2.86-2.254c0.755-3.983,0.965-8.918,0.818-12.975c-0.279-7.622,0.178-15.071,0.181-22.682
		c0.002-5.392-0.511-10.74-0.773-16.091c-0.25-5.091-0.036-9.921-1.188-14.912c-0.952-4.122-2.485-12.04-7.011-13.753
		C294.418,343.661,292.76,354.516,292.515,356.543z"/>
	<path style="fill:#CC9C5C;" d="M203.686,506.312c-0.766-3.142-0.361-7.07-0.531-10.315c-0.186-3.584-0.529-7.386-0.275-10.932
		c0.394-5.514,1.828-13.307,8.336-14.461c5.363-0.951,7.865,4.877,8.316,9.111c0.535,5.021,1.225,10.117,0.975,15.19
		c-0.117,2.387-0.203,4.747-0.201,7.145c0.001,1.095,0.381,3.152-0.469,3.984c-1.768,1.73-7.077,0.274-9.27,0.125
		C208.756,506.037,204.349,507.788,203.686,506.312z"/>
	<path style="fill:#CC9C5C;" d="M230.812,507.84c-1.808-3.508-2.134-7.58-2.08-11.463c0.046-3.291-0.388-6.535-0.267-9.759
		c0.161-4.288,1.284-8.971,4.151-12.287c2.678-3.099,8.495-6.267,11.377-1.56c1.864,3.044,1.338,7.721,1.486,11.138
		c0.258,5.948-0.007,11.766-0.297,17.7c-0.151,3.083,0.316,5.651-3.023,6.227c-1.93,0.333-3.955-0.056-5.901-0.234
		C234.662,507.456,232.429,508.172,230.812,507.84z"/>
	<path style="fill:#CC9C5C;" d="M267.872,472.117c-3.15,1.366-3.692,6.85-4.197,9.742c-0.823,4.711-1.395,9.355-1.534,14.136
		c-0.143,4.924-1.67,13.897,4.965,14.33c1.758,0.115,3.557-0.148,5.309-0.235c1.383-0.069,4.153,0.271,5.399-0.383
		c1.931-1.015,1.495-4.808,1.687-6.903c0.736-8.01,1.049-16.887-0.162-24.853c-0.365-2.401-1.121-4.558-3.522-5.533
		C273.112,471.318,269.6,471.263,267.872,472.117z"/>
	<path style="fill:#CC9C5C;" d="M297.673,469.442c-3.473,0.183-6.025,5.021-6.88,7.875c-1.291,4.307-1.195,9.274-0.994,13.707
		c0.153,3.374,0.585,6.729,0.616,10.087c0.014,1.602-0.529,4.305,0.364,5.679c0.983,1.513,3.914,0.807,5.876,0.813
		c2.073,0.007,5.779,0.641,7.715,0.014c1.979-0.641,2.501-4.476,2.807-6.317c0.874-5.254,1.077-10.569,0.312-15.829
		C306.722,480.204,305.58,465.773,297.673,469.442z"/>
	<path style="fill:#CC9C5C;" d="M177.09,206.664c-3.186,1.065-6.92,1.271-8.965,4.051c-2.779,3.78-2.796,11.284-2.988,15.717
		c-0.701,16.169-1.582,32.271-0.832,48.533c0.391,8.469,0.826,16.969,1.223,25.401c0.242,5.159,0.084,8.681,4.733,11.416
		c1.835,1.079,4.174,2.011,6.424,1.6c3.961-0.724,3.197-2.115,3.371-6.1c0.717-16.528,2.156-32.618,2.156-49.166
		c0-12.443-0.853-24.777-0.854-37.175C181.358,218.651,182.252,202.904,177.09,206.664z"/>
	<path style="fill:#CC9C5C;" d="M333.325,209.652c1.78,3.941-0.184,11.467-0.854,15.811c-1.176,7.623-1.205,15.146-1.613,22.796
		c-0.474,8.889-0.779,17.338-0.131,26.241c0.596,8.18,1.836,16.302,2.593,24.443c0.376,4.051,0.019,9.141,2.213,12.656
		c6.515,1.096,8.853-0.651,10.364-6.901c3.143-13.016,3.491-26.893,3.564-40.202c0.056-10.305-1.344-20.958-2.143-31.268
		c-0.423-5.454,1.198-16.217-2.254-20.818c-1.218-1.623-3.207-2.47-5.123-3.186C334.764,207.288,334.422,209.251,333.325,209.652z"
		/>
</g>
<g>
	<path style="fill:#826233;" d="M255.03,2.22c-7.181,2.256-9.204,12.811-3.163,17.577c7.495,5.914,16.503-3.416,15.472-11.26
		C266.367,1.143,259.633,0.774,255.03,2.22z"/>
	<path style="fill:#826233;" d="M178.092,128.179c-5.96,2.912-5.56,17.647,2.669,15.336
		C189.71,141.002,184.449,130.537,178.092,128.179z"/>
	<path style="fill:#826233;" d="M331.645,129.477c-8.682,0.179-5.876,19.874,3.229,13.57
		C341.388,138.538,339.498,127.093,331.645,129.477z"/>
</g>
<path d="M200.733,403.942c-0.15,1.983-0.265,3.97-0.406,5.953c-0.291,4.087,0.512,7.832,0.448,11.831
	c-0.043,2.714-0.912,6.003,1.106,8.213c1.73,1.894,4.546,1.862,6.907,1.808c4.813-0.111,11.363,2.147,12.803-4.414
	c0.867-3.954,0.137-8.896,0.094-12.925c-0.05-4.612,0.567-9.045,0.723-13.626c0.332-9.766,0.691-19.541,0.533-29.322
	c-0.119-7.419,0.127-15.882-3.651-22.58c-2.611-4.63-7.46-6.848-11.798-2.927c-4.965,4.488-5.295,10.448-5.834,16.676
	c-0.52,6.002-1.515,11.606-1.445,17.66c0.062,5.433,0.136,10.865,0.135,16.299C200.344,399.087,200.524,401.518,200.733,403.942z
	 M204.263,376.167c0.172-4.764,0.907-9.846,1.622-14.591c0.489-3.244,0.544-6.755,2.271-9.585c1.635-2.681,4.117-4.896,7.074-2.049
	c1.411,1.359,1.908,3.879,2.36,5.73c1.109,4.534,0.982,9.101,0.901,13.723c-0.307,17.596-1.829,35.043-1.738,52.646
	c0.011,2.211,0.799,4.151-2.103,4.89c-0.854,0.217-3.075-0.275-4.055-0.25c-1.06,0.026-2.68,0.523-3.648,0.139
	c-2.711-1.075-1.483-4.031-1.659-6.18c-0.062-0.75-0.154-1.482-0.258-2.208c0.068-4.967-0.328-9.949-0.816-14.855
	C203.339,394.794,203.944,384.995,204.263,376.167z"/>
<path d="M228.943,403.942c-0.15,1.983-0.265,3.97-0.406,5.953c-0.291,4.087,0.512,7.832,0.448,11.831
	c-0.043,2.714-0.912,6.003,1.106,8.213c1.73,1.894,4.546,1.862,6.907,1.808c4.813-0.111,11.363,2.147,12.803-4.414
	c0.867-3.954,0.137-8.896,0.094-12.925c-0.05-4.612,0.567-9.045,0.723-13.626c0.332-9.766,0.691-19.541,0.533-29.322
	c-0.119-7.419,0.127-15.882-3.65-22.58c-2.611-4.63-7.46-6.848-11.798-2.927c-4.965,4.488-5.295,10.448-5.834,16.676
	c-0.52,6.002-1.515,11.606-1.445,17.66c0.062,5.433,0.136,10.865,0.135,16.299C228.555,399.087,228.734,401.518,228.943,403.942z
	 M232.473,376.167c0.172-4.764,0.907-9.846,1.622-14.591c0.489-3.244,0.544-6.755,2.271-9.585c1.635-2.681,4.117-4.896,7.074-2.049
	c1.411,1.359,1.908,3.879,2.36,5.73c1.109,4.534,0.982,9.101,0.901,13.723c-0.307,17.596-1.829,35.043-1.738,52.646
	c0.011,2.211,0.799,4.151-2.103,4.89c-0.854,0.217-3.076-0.275-4.055-0.25c-1.06,0.026-2.68,0.523-3.648,0.139
	c-2.711-1.075-1.483-4.031-1.659-6.18c-0.062-0.75-0.156-1.482-0.258-2.208c0.068-4.967-0.328-9.949-0.816-14.855
	C231.549,394.794,232.155,384.995,232.473,376.167z"/>
<path d="M350.542,299.466c-0.169-6.707-1.359-13.642-0.98-20.307c0.405-7.118,0.391-14.14,0.453-21.266
	c0.063-7.079,0.627-14.075,0.509-21.205c-0.114-6.901-0.675-13.602-1.876-20.392c-0.896-5.067-1.104-7.04-5.399-9.663
	c-2.463-1.504-4.844-2.086-7.493-2.3c-0.044-0.408-0.075-0.823-0.127-1.226c-0.852-6.597-2.334-11.57-9.215-13.457
	c-0.116-0.032-0.234-0.053-0.35-0.083c0.589-5.62-0.191-11.922-1.672-17.314c2.129-0.374,4.256-0.797,6.372-1.213
	c5.453-1.071,5.81-4.647,5.535-9.644c-0.098-1.792-0.148-3.111-0.332-4.162c0.017-1.231-0.078-2.46-0.199-3.604
	c-0.249-2.37,0.327-5.352,0.044-7.946c5.586-3.773,6.45-13.515,0.579-17.584c-2.861-1.983-6.494-0.716-8.73,1.615
	c-1.87,1.95-3.43,5.663-3.023,8.357c0.431,2.849,2.176,5.921,4.947,7.053c0.691,0.282,1.431,0.442,2.181,0.5
	c-0.32,2.307-0.047,4.967,0.156,6.886c0.007,0.065,0.013,0.138,0.02,0.204c-0.292-0.152-0.602-0.309-0.938-0.472
	c-5.972-2.911-11.79-7.3-16.847-11.592c-5.293-4.492-10.873-8.677-16.538-12.681c-4.24-2.997-8.096-7.102-12.843-9.33
	c0.293-4.337-0.132-9.013-0.524-13.171c-0.258-2.742-0.855-5.477-1.229-8.202c-0.098-0.712-0.212-1.353-0.366-1.96
	c1.541-0.053,2.967-0.282,4.423-1.283c1.259-0.865,2.346-2.611,1.71-4.204c-4.481-11.231-9.402-22.473-13.548-33.985
	c-2.391-6.638-5.234-13.252-8.334-19.507c-0.29-2.645-1.05-5.284-2.121-7.385c-0.829-1.625-1.725-3.994-2.98-5.983
	c2.001-0.74,3.82-1.992,5.174-3.799c2.192-2.929,2.802-7.129,2.217-10.685c-0.644-3.91-3.814-6.448-7.412-7.718
	c-3.654-1.29-7.88-1.048-10.838,1.59c-1.259,1.123-2.284,2.382-3.01,3.744c-0.258,0.291-0.493,0.591-0.694,0.899
	c-1.884,2.903-2.086,7.654-0.426,10.706c1.096,2.014,2.706,3.512,4.562,4.524c-2.124,2.777-3.406,6.85-4.545,9.204
	c-1.053,2.176-2.753,5.039-3.092,7.709c-2.573,5.415-4.95,11.042-6.987,16.7c-4.146,11.512-9.067,22.754-13.548,33.985
	c-0.636,1.593,0.452,3.338,1.71,4.204c1.455,1.001,2.882,1.23,4.423,1.283c-0.153,0.607-0.268,1.248-0.366,1.96
	c-0.375,2.726-0.971,5.46-1.229,8.202c-0.392,4.156-0.819,8.832-0.524,13.171c-4.747,2.228-8.604,6.333-12.843,9.33
	c-5.665,4.004-11.245,8.19-16.538,12.681c-5.057,4.291-10.875,8.68-16.847,11.592c-0.335,0.163-0.645,0.32-0.938,0.472
	c0.007-0.066,0.013-0.139,0.02-0.204c0.204-1.919,0.476-4.579,0.156-6.886c0.75-0.057,1.491-0.218,2.181-0.5
	c2.772-1.132,4.516-4.203,4.947-7.053c0.408-2.693-1.153-6.407-3.023-8.357c-2.235-2.33-5.87-3.598-8.73-1.615
	c-5.871,4.069-5.007,13.812,0.579,17.584c-0.282,2.595,0.294,5.576,0.044,7.946c-0.12,1.143-0.216,2.372-0.199,3.604
	c-0.184,1.05-0.233,2.37-0.332,4.162c-0.275,4.997,0.083,8.572,5.535,9.644c2.116,0.416,4.242,0.839,6.372,1.213
	c-1.481,5.392-2.261,11.693-1.672,17.314c-0.116,0.031-0.234,0.051-0.35,0.083c-6.882,1.887-8.363,6.859-9.215,13.457
	c-0.052,0.403-0.084,0.818-0.127,1.226c-2.649,0.214-5.03,0.797-7.493,2.3c-4.294,2.623-4.503,4.597-5.399,9.663
	c-1.2,6.791-1.762,13.492-1.876,20.392c-0.118,7.13,0.446,14.125,0.509,21.205c0.063,7.125,0.049,14.149,0.452,21.266
	c0.38,6.665-0.811,13.6-0.98,20.307c-0.12,4.794,0.767,11.087,4.32,14.624c2.777,2.765,5.98,3.183,9.391,3.438
	c-0.045,2.727,0.082,5.479,1.029,8.053c1.688,4.588,5.618,6.81,9.994,7.916c-0.143,2.54,0.017,5.12-0.377,7.664
	c-0.617,3.987-0.792,7.807-0.842,11.86c-0.128,10.392-1.136,20.776-1.063,31.167c0.109,15.304,0.736,30.668,0.428,45.991
	c-0.917,2.478-1.783,5.251-1.578,7.719c-1.343,0.031-2.678,0.145-3.984,0.487c-7.312,1.912-10.226,14.839-3.761,19.443
	c1.947,1.387,4.534,1.945,7.216,2.228c-0.369,2.053-0.26,4.238-0.429,6.491c-0.298,3.975-0.417,7.876-0.333,11.854
	c0.081,3.88,0.532,7.743,0.701,11.625c0.081,1.852,0,3.895,0.036,5.938c-0.285,2.638-0.553,5.326-0.195,7.798
	c1.175,8.122,11.06,7.366,17.243,7.41c9.42,0.066,18.804,0.188,28.205,0.68c9.291,0.487,18.699-0.337,28.012-0.321
	c10.884,0.018,21.798,0.241,32.673-0.075c8.597-0.249,17.655-0.257,26.214,0.374c5.902,0.436,11.313,0.253,13.352-6.192
	c2.733-8.639,3.03-16.647,2.678-25.561c-0.125-3.17-0.103-6.46-0.218-9.746c0.003,0,0.006,0,0.009,0
	c0.026-1.166-0.057-2.393-0.21-3.618c-0.174-2.231-0.466-4.438-0.96-6.584c2.951-0.257,5.848-0.784,7.979-2.303
	c6.465-4.604,3.551-17.531-3.761-19.443c-1.306-0.342-2.641-0.456-3.984-0.487c0.205-2.467-0.661-5.241-1.578-7.719
	c-0.308-15.321,0.319-30.686,0.428-45.991c0.074-10.391-0.935-20.775-1.063-31.167c-0.05-4.053-0.225-7.871-0.842-11.86
	c-0.394-2.544-0.234-5.124-0.377-7.664c4.377-1.107,8.306-3.329,9.994-7.916c0.947-2.574,1.075-5.325,1.029-8.053
	c3.412-0.255,6.613-0.673,9.391-3.438C349.775,310.553,350.662,304.26,350.542,299.466z M328.915,136.078
	c0.363-1.293,1.079-3.28,2.075-4.157c2.24-1.971,4.155-0.37,5.179,1.785c0.8,2.659,0.148,6.342-1.712,7.456
	C331.231,143.096,328.06,139.124,328.915,136.078z M177.544,141.162c-1.86-1.115-2.512-4.797-1.712-7.456
	c1.024-2.155,2.94-3.755,5.18-1.785c0.996,0.877,1.713,2.864,2.075,4.157C183.941,139.124,180.77,143.096,177.544,141.162z
	 M176.659,251.913c-0.099,8.811-0.217,17.623-0.286,26.435c-0.034,4.387-0.013,8.778-0.068,13.165
	c-0.05,3.923-1.026,7.7-1.124,11.613c-0.054,2.152,0.001,4.3,0.045,6.449c-0.131-0.01-0.258-0.01-0.391-0.024
	c-3.213-0.369-3.847-2.53-4.719-5.367c-1.347-4.384-0.933-9.491-0.801-14.068c0.159-5.491,0.449-10.549,0.041-16.067
	c-0.421-5.706-0.161-11.438-0.31-17.154c-0.274-10.542-1.821-21.131-0.957-31.739c0.365-4.485,0.393-11.292,4.396-13.763
	c1.12-0.692,2.263-1.334,3.399-1.994c-0.207,5.783,0.13,11.805,0.344,17.346C176.557,235.181,176.755,243.439,176.659,251.913z
	 M250.456,11.011c0.534-1.268,1.124-2.502,1.845-3.566c1.147-1.165,2.645-2.036,3.994-2.978c0.008-0.004,0.011-0.014,0.018-0.02
	c1.003-0.218,2.155-0.195,3.512,0.172c5.075,1.374,6.78,6.56,4.19,11.079c-2.559,4.463-9.148,4.16-12.384,0.572
	C250.38,14.881,250.118,12.851,250.456,11.011z M242.764,56.617c2.134-6.49,4.78-12.929,7.4-19.133
	c1.191-2.818,1.996-5.88,3.182-8.732c0.324-0.78,0.74-1.546,0.996-2.352c0.25-0.792,0.309-1.399,0.933-2.04
	c0.49-0.503,0.815,0.686,1.024,1.076c0.546,1.017,1.126,1.972,1.572,3.051c0.59,1.428,1.19,2.648,1.877,4.022
	c0.734,1.469,0.948,3.237,1.805,4.674c0.13,0.217,0.27,0.426,0.419,0.629c2.575,6.104,5.167,12.429,7.263,18.805
	c3.482,10.59,6.943,21.214,10.905,31.451c-1.001-0.045-1.999-0.136-2.729-0.042c-2.69,0.345-5.164,0.88-7.904,0.653
	c-1.85-0.153-3.579-0.275-5.283-0.246c-4.193-0.893-9.104-0.967-12.475-0.792c-4.588,0.236-9.715-0.241-14.346,0.783
	c-0.927-0.128-1.859-0.275-2.82-0.398c-0.728-0.094-1.728-0.003-2.729,0.042C235.821,77.831,239.282,67.207,242.764,56.617z
	 M234.276,95.465c2.453,0.201,4.888,0.528,7.38,0.29c0.119-0.011,0.247-0.021,0.371-0.032c3.538,0.252,7.165-0.001,10.579-0.049
	c4.188-0.058,8.701,0.76,12.693-0.341c1.811,0.211,3.6,0.284,5.046,0.421c2.494,0.238,4.928-0.09,7.38-0.29
	c-0.025,3.345-0.215,6.6,0.035,10.007c0.263,3.572,0.424,8.259-0.021,12.154c-3.891,0.354-7.793-0.194-11.676-0.406
	c-1.694-0.093-3.306,0.178-4.964,0.127c-2.007-0.061-4.014-0.095-6.021-0.086c-2.253,0.009-4.47-0.138-6.704-0.122
	c-4.706,0.033-9.404,0.917-14.112,0.489c-0.445-3.896-0.284-8.583-0.021-12.154C234.491,102.065,234.303,98.81,234.276,95.465z
	 M197.42,150.467c2.296-1.512,4.229-3.264,6.322-5.044c5.09-4.331,10.257-8.526,15.571-12.571c2.15-1.637,4.074-3.457,6.101-5.234
	c2.224-1.951,3.522-4.217,6.827-3.348c3.589,0.944,7.129,0.436,10.816,0.409c2.387-0.018,4.466,0.172,6.41-0.231
	c0.888,0.072,1.773,0.152,2.649,0.266c2.947,0.385,6.558,0.237,9.853-0.398c2.104,0.576,4.353,0.344,6.97,0.363
	c4.342,0.031,8.663,0.651,12.941-0.345c0.301-0.071,0.608-0.203,0.9-0.378c1.355,1.257,2.651,2.652,3.802,3.661
	c2.028,1.777,3.951,3.597,6.101,5.234c5.315,4.046,10.482,8.241,15.571,12.571c2.093,1.781,4.025,3.532,6.322,5.044
	c0.681,0.448,1.326,0.967,1.963,1.502c-1.06,0-2.073,0.011-2.988,0.006c-5.108-0.033-10.027-0.834-15.069-0.883
	c-6.802-0.065-13.609,0.088-20.409,0.067c-4.37-0.013-8.447-1.118-12.715-0.487c-4.651-0.011-9.482,0.579-13.728,0.636
	c-0.772,0.01-1.572,0.001-2.389-0.017c-0.018-0.007-0.029-0.018-0.046-0.024c-5.229-1.716-10.042-0.125-15.278-0.108
	c-6.8,0.021-13.608-0.131-20.409-0.067c-5.042,0.049-9.961,0.85-15.069,0.883c-0.915,0.006-1.928-0.006-2.988-0.006
	C196.095,151.434,196.741,150.917,197.42,150.467z M182.669,165.294c-0.049-0.004-0.097-0.01-0.145-0.018
	c-2.312-0.338-3.092-3.501-2.266-5.435c0.929-2.177,5.064-3.259,7.206-2.982c0.936,0.124,1.716,0.616,2.714,0.707
	c2.437,0.222,4.911-0.07,7.354-0.042c5.399,0.061,10.675-0.58,15.982-0.626c6.541-0.055,13.14-0.132,19.677,0.075
	c1.539,0.049,2.915-0.07,4.321-0.245c4.74,0.442,9.833-0.055,14.124,0.001c6.076,0.079,12.58,0.698,18.619-0.526
	c0.573,0.043,1.149,0.095,1.731,0.18c2.381,0.349,4.396,0.668,6.824,0.59c6.537-0.207,13.137-0.13,19.677-0.075
	c5.307,0.044,10.583,0.686,15.982,0.626c2.24-0.025,4.577,0.328,6.805,0.075c2.891-0.328,8.136-1.434,10.043,1.57
	c0.989,1.558,0.818,5.331-1.155,6.092c-0.893,0.344-2.054-0.217-2.98-0.229c-1.757-0.023-3.591,0.341-5.343,0.493
	c-5.391,0.469-11.181-0.782-16.695-0.59c-3.156,0.11-6.215,0.919-9.364,1.063c-2.906,0.132-5.779-0.404-8.687-0.402
	c-2.051,0.002-4.193,0.001-6.354,0.033c-2.233-0.167-4.478-0.193-6.779,0.092c-5.21,0.643-10.454-0.024-15.68,0.16
	c-5.498,0.194-10.983,0.462-16.504,0.282c-5.624-0.183-11.243-0.56-16.872-0.566c-2.907-0.002-5.78,0.534-8.687,0.402
	c-3.149-0.143-6.208-0.952-9.363-1.063c-5.513-0.192-11.304,1.059-16.695,0.59c-1.593-0.139-3.218-0.409-4.817-0.427
	C184.483,165.089,183.53,165.375,182.669,165.294z M319.909,172.723c-1.074,4.837-0.554,9.628-1.05,14.439
	c-2.068-0.122-4.196-0.67-6.202-0.788c-2.693-0.159-5.324-0.574-8.005-0.933c-4.274-0.575-8.638-0.989-12.941-1.144
	c-5.823-0.21-11.434-0.581-17.318-0.344c-1.933,0.077-3.859,0.072-5.761,0.445c-1.83-0.157-3.706-0.107-5.638-0.106
	c-5.256,0.003-10.595-0.202-15.842,0.134c-1.007,0.065-2.072,0.096-3.168,0.115c-0.161-0.042-0.324-0.089-0.483-0.122
	c-1.944-0.401-3.915-0.386-5.893-0.466c-5.884-0.237-11.495,0.135-17.318,0.344c-4.303,0.154-8.667,0.569-12.941,1.144
	c-2.681,0.361-5.311,0.775-8.005,0.933c-2.006,0.118-4.134,0.665-6.202,0.788c-0.497-4.813,0.022-9.602-1.05-14.439
	c2.336-0.028,4.614-0.397,7.055-0.356c3.941,0.067,7.873-0.183,11.787,0.333c2.981,0.394,5.851,0.581,8.838,0.163
	c2.267-0.317,4.513-0.572,6.745-0.819c2.817,0.124,5.686-0.034,8.399,0.033c6.688,0.165,13.153,0.541,19.815-0.266
	c6.383-0.773,12.791,0.72,19.162-0.264c1.379-0.213,2.737-0.314,4.078-0.388c4.712,0.634,9.437,1.029,14.262,1.705
	c2.986,0.417,5.855,0.231,8.838-0.163c3.914-0.516,7.845-0.267,11.787-0.333C315.296,172.326,317.574,172.695,319.909,172.723z
	 M217.651,503.908c-0.864-0.025-1.726-0.04-2.591-0.074c-3.413-0.134-6.81-0.217-10.221-0.246c0.457-3.909,0.159-8.096-0.055-11.943
	c-0.289-5.191-1.579-13.194,3.053-16.889c6.938-5.537,9.221,4.601,9.699,9.766C218.127,490.898,217.829,497.48,217.651,503.908z
	 M244.334,480.041c-0.014,2.477-0.092,4.957-0.119,7.435c-0.063,5.539-0.367,11.028-0.509,16.55
	c-1.793,0.021-3.585,0.04-5.374,0.042c-2.383,0.003-4.761,0.008-7.139,0.007c-0.038-4.773-0.186-9.5-0.572-14.307
	c-0.396-4.94-0.218-11.855,3.666-15.533C240.122,468.712,244.371,473.913,244.334,480.041z M277.716,503.4
	c-4.619,0.028-9.242,0.11-13.866,0.214c0.423-4.087-0.253-8.069-0.126-12.281c0.148-4.905-0.321-13.171,3.798-16.509
	c7.613-6.171,10.083,5.519,10.316,10.688C278.105,491.458,277.352,497.458,277.716,503.4z M292.057,503.555
	c-0.117-0.003-0.235-0.004-0.352-0.009c0.959-4.851,0.576-10.187,0.685-15.034c0.068-3.031-0.28-5.967,0.43-8.959
	c0.591-2.495,3.389-9.986,7.042-8.699c0.897,0.317,3.303,4.542,3.637,5.331c1.375,3.261,1.356,7.47,1.348,10.974
	c-0.012,5.532-0.034,10.931-0.481,16.442C300.263,503.612,296.147,503.687,292.057,503.555z M321.932,492.461
	c-0.525,3.417-2.156,6.905-2.223,10.364c-0.002,0.102-0.14,0.424-0.277,0.736c-1.599-0.029-3.537,0.41-5.078,0.302
	c-1.678-0.118-3.364-0.182-5.054-0.22c0.446-8.528,0.907-18.111-1.119-26.362c-0.927-3.772-4.263-10.566-8.702-10.612
	c-6.588-0.069-9.994,7.846-10.946,13.258c-0.685,3.899-0.337,7.957-0.529,11.9c-0.185,3.791-0.116,7.854,0.674,11.65
	c-2.12-0.043-4.24-0.074-6.364-0.082c0.76-8.101,0.862-17.557-1.3-25.268c-1.353-4.825-4.983-9.592-10.506-8.93
	c-6.81,0.816-9.281,7.163-10.053,13.072c-0.896,6.863-1.069,14.488,0.242,21.42c-4.078,0.096-8.155,0.195-12.226,0.268
	c-0.035-8.773,0.647-17.674-0.045-26.403c-0.505-6.372-4.471-11.042-11.339-9.329c-5.659,1.412-9.306,7.419-10.252,12.802
	c-0.744,4.23-0.235,8.43,0.041,12.672c0.218,3.341,0.403,7.019,1.279,10.363c-2.015-0.008-4.029-0.014-6.044-0.045
	c0.114-9.164,3.04-37.868-12.077-34.791c-6.202,1.262-8.805,7.098-9.252,12.76c-0.533,6.76,0.046,14.728,1.443,21.588
	c-3.404,0.06-8.381,0.81-11.298-0.64c-0.804-0.399-1.178-0.878-1.334-1.451c0.906-3.409,0.718-7.445,0.627-10.648
	c-0.195-6.953-0.516-13.756-0.174-20.727c0.177-3.592-0.659-6.086-1.075-9.521c0.572-0.082,1.063,0.018,1.635,0.096
	c6.464,0.889,12.927-0.292,19.355,0.436c6.788,0.769,13.739-0.232,20.598-0.44c2.867-0.087,5.846,0.015,8.687-0.415
	c0.371-0.056,0.734-0.135,1.093-0.218c4.946-0.172,9.971,0.602,14.859-0.017c5.177-0.655,10.526-0.174,15.771-0.164
	c0.583,0.162,1.173,0.307,1.783,0.399c2.84,0.431,5.82,0.328,8.687,0.415c6.859,0.21,13.812,1.21,20.598,0.44
	c6.148-0.697,12.325,0.333,18.509-0.351c-0.164,3.425,0.747,7.207,0.909,10.341C321.811,477.935,322.975,485.683,321.932,492.461z
	 M330.866,444.06c2.283,0.765,4.068,4.83,2.57,7.094c-1.542,2.331-9.835,1.533-12.526,1.885c-5.014,0.658-9.868,0.277-14.898,0.231
	c-2.092-0.019-3.953,0.22-6.013,0.449c-2.808,0.313-5.222-0.191-8.005-0.38c-3.622-0.246-7.327-0.078-10.994,0.097
	c-8.215-1.158-16.826-1.323-24.863-0.613c-6.634,0.585-13.364,0.525-20.071,0.861c-0.41-0.03-0.821-0.062-1.235-0.077
	c-4.894-0.177-9.936-0.599-14.827-0.267c-2.782,0.189-5.197,0.693-8.005,0.38c-2.06-0.229-3.92-0.468-6.013-0.449
	c-5.03,0.045-9.884,0.427-14.898-0.231c-2.691-0.353-10.983,0.447-12.526-1.885c-1.498-2.264,0.287-6.33,2.57-7.094
	c2.118-0.709,5.081-0.19,7.356-0.224c1.952,0.406,4.092,0.427,5.877,0.701c4.106,0.632,8.752,0.374,12.882,0.206
	c2.271-0.093,4.509-0.563,6.775-0.615c2.334-0.053,4.562,0.663,6.877,0.762c2.609,0.113,5.308-0.153,8.003-0.412
	c1.385,0.025,2.762,0.035,4.112,0.077c5.289,0.164,10.335-0.153,15.526-0.415c5.553-0.28,11.293-0.394,16.86-0.428
	c0.928-0.006,1.858,0.002,2.789,0.011c2.998,0.654,6.628,0.295,9.365,0.359c4.466,0.106,9.133,0.997,13.546,0.807
	c2.315-0.099,4.544-0.815,6.877-0.762c2.265,0.051,4.504,0.522,6.775,0.615c4.129,0.168,8.775,0.426,12.882-0.206
	c1.784-0.275,3.926-0.296,5.878-0.701C325.785,443.87,328.749,443.349,330.866,444.06z M192.05,342.004
	c0.07-0.895-0.103-4.695-0.41-7.624c4.029,0.367,8.078,0.29,12.092,0.895c4.185,0.63,8.245,1.057,12.488,1.056
	c2.709-0.001,5.501-0.117,8.311-0.334c2.537,0.214,5.373-0.14,7.198-0.072c3.217,0.12,6.354-0.231,9.56-0.263
	c3.686-0.038,7.216,0.893,10.911,0.513c8.076-0.83,16.905-0.487,25.317-1.47c6.049,1.124,12.349,1.625,18.267,1.626
	c4.242,0.001,8.303-0.426,12.488-1.056c4.014-0.605,8.063-0.527,12.091-0.895c-0.308,2.93-0.481,6.729-0.41,7.624
	c0.396,5.082,0.331,10.075,0.333,15.175c0.002,10.953,0.909,21.908,0.062,32.848c-0.805,10.384-0.654,20.817-0.764,31.228
	c-0.046,4.386-0.263,8.784-0.305,13.161c-0.009,0.903,0.056,1.71,0.207,2.439c-1.011,0.119-2.051,0.178-2.857,0.264
	c-0.079,0.009-0.159,0.008-0.238,0.015c-0.34-0.034-0.675-0.077-1.018-0.102c-2.058-0.147-4.088-0.063-6.107,0.118
	c-4.097-0.289-8.183-0.903-12.256-0.897c-3.701,0.004-7.017,0.569-10.76,0.181c-3.069-0.319-6.205-0.26-9.295-0.18
	c-0.309-0.054-0.622-0.105-0.954-0.146c-2.85-0.345-5.712-0.249-8.578-0.253c-5.666-0.007-11.287,0.489-16.953,0.517
	c-3.362,0.017-6.624,0.396-9.942,0.618c-1.742-0.344-3.472-0.685-5.015-0.727c-3.239-0.086-6.536-0.165-9.759,0.169
	c-3.744,0.388-7.059-0.177-10.76-0.181c-4.074-0.004-8.16,0.608-12.257,0.897c-2.019-0.181-4.049-0.264-6.107-0.118
	c-0.342,0.024-0.679,0.068-1.018,0.102c-0.079-0.008-0.159-0.008-0.238-0.015c-0.805-0.086-1.846-0.145-2.857-0.264
	c0.151-0.729,0.216-1.537,0.207-2.439c-0.042-4.377-0.258-8.775-0.305-13.161c-0.109-10.41,0.042-20.844-0.764-31.228
	c-0.848-10.94,0.058-21.894,0.062-32.848C191.719,352.079,191.654,347.086,192.05,342.004z M329.142,225.839
	c-0.27,8.702-0.858,17.329-0.958,26.074c-0.107,9.516-0.228,19.033-0.302,28.549c-0.033,4.278-0.244,8.585-0.121,12.861
	c0.121,4.273,1.033,8.336,0.873,12.633c-0.164,4.416,0.135,8.917-0.142,13.312c-0.336,5.338-3.826,6.242-8.786,6.707
	c-9.649,0.906-19.178,1.464-28.74,1.54c-0.071-0.031-0.122-0.076-0.2-0.102c-5.565-1.893-12.888-1.155-18.653-0.748
	c-7.072,0.5-13.914,1.246-21.051,1.152c-7.482-0.098-14.961-0.487-22.445-0.332c-12.125,0.25-24.25-0.377-36.32-1.51
	c-4.958-0.466-8.449-1.37-8.786-6.707c-0.277-4.396,0.022-8.896-0.142-13.312c-0.16-4.297,0.751-8.36,0.873-12.633
	c0.121-4.275-0.088-8.583-0.121-12.861c-0.074-9.516-0.194-19.033-0.302-28.549c-0.099-8.745-0.687-17.372-0.958-26.074
	c-0.128-4.119-0.061-8.247-0.074-12.367c-0.013-4.225-0.9-9.695,0.857-13.709c1.476-3.373,3.962-4.515,6.819-5.203
	c5.126,0.489,10.544-0.803,15.559-1.582c5.528-0.858,11.147-1.144,16.686-1.634c3.215-0.285,6.441-0.628,9.671-0.929
	c4.44,0.275,9.122-0.203,13.27-0.439c1.228,0.127,2.4,0.193,3.48-0.097c6.566,0.057,14.609,1.382,21.137-0.124
	c6.351,0.249,12.71,1.032,19.03,1.59c5.539,0.49,11.159,0.776,16.686,1.634c5.016,0.779,10.433,2.071,15.559,1.582
	c2.857,0.688,5.342,1.83,6.819,5.203c1.758,4.014,0.871,9.484,0.857,13.709C329.202,217.591,329.27,221.72,329.142,225.839z
	 M342.954,256.894c-0.148,5.715,0.111,11.447-0.31,17.154c-0.408,5.519-0.117,10.577,0.041,16.067
	c0.132,4.577,0.546,9.684-0.801,14.068c-0.872,2.837-1.506,4.998-4.719,5.367c-0.132,0.015-0.259,0.014-0.391,0.024
	c0.044-2.149,0.099-4.298,0.045-6.449c-0.098-3.912-1.075-7.688-1.124-11.613c-0.055-4.387-0.034-8.778-0.068-13.165
	c-0.068-8.811-0.185-17.624-0.286-26.435c-0.096-8.474,0.102-16.732,0.428-25.168c0.214-5.54,0.553-11.563,0.344-17.346
	c1.136,0.66,2.28,1.302,3.399,1.994c4.003,2.47,4.031,9.278,4.396,13.763C344.775,235.762,343.228,246.351,342.954,256.894z"/>
<path d="M312.494,212.875c-3.084-2.401-8.008-2.094-12.635-1.707c1.055-7.504-4.715-15.261-12.482-15.415
	c-4.273-0.085-6.899,2.449-8.559,6.223c-1.022,2.321-2.255,6.317-1.634,9.301c-0.004,0-0.008-0.001-0.012-0.001
	c-1.443-0.008-2.872-0.015-4.3-0.013c-0.135-1.837,0.023-6.378-0.295-7.434c-0.679-2.259-1.631-4.512-3.386-6.127
	c-3.808-3.504-9.921-3.109-14.66-2.5c-4.857,0.624-8.16,3.535-10.645,7.66c-1.461,2.424-2.879,6.148-2.072,9.067
	c-0.298,0.134-0.624,0.243-0.997,0.311c-1.155,0.017-2.31,0.022-3.468,0.023c-0.882-0.087-1.786-0.216-2.666-0.359
	c0.959-3.025-0.407-7.444-1.499-9.929c-1.661-3.773-4.285-6.308-8.559-6.223c-7.768,0.153-13.537,7.911-12.482,15.415
	c-4.627-0.387-9.552-0.693-12.635,1.707c-4.727,3.68-3.096,12.966-3.145,18.047c-0.082,8.601,0.897,17.081,1.165,25.631
	c0.124,3.947-0.307,7.911-0.477,11.848c-0.178,4.139,0.697,8.071,0.764,12.196c0.138,8.546,1.013,17.31,1.798,25.844
	c0.576,6.261,4.196,8.357,10.211,8.5c6.094,0.146,13.455,0.53,20.075-0.479c0.32,0.006,0.64,0.01,0.963,0.017
	c7.587,0.148,15.151,0.741,22.735,0.755c8.146,0.014,16.299,0.127,24.443,0.007c2.336-0.034,4.859-0.068,7.321-0.391
	c5.706,0.501,11.706,0.213,16.815,0.09c6.015-0.143,9.635-2.239,10.211-8.5c0.786-8.533,1.661-17.298,1.798-25.844
	c0.066-4.125,0.942-8.058,0.763-12.196c-0.17-3.937-0.6-7.901-0.477-11.848c0.268-8.55,1.247-17.03,1.165-25.631
	C315.59,225.841,317.221,216.554,312.494,212.875z M287.377,200.326c6.744-0.023,7.267,6.127,8.552,11.134
	c-1.234,0.061-2.391,0.065-3.418-0.053c-3.612-0.414-6.972-0.413-10.623-0.167C282.87,206.955,281.452,200.346,287.377,200.326z
	 M257.17,199.082c5.159-0.303,9.621-0.185,11.087,5.937c0.501,2.09,0.2,4.203,0.167,6.319c-0.227,0.008-0.452,0.004-0.68,0.013
	c-3.051,0.116-6.107-0.179-9.154-0.234c-3.461-0.063-6.697,0.588-10.139,0.829c-1.067,0.074-2.138,0.113-3.21,0.157
	C247.15,205.644,249.103,199.556,257.17,199.082z M224.624,200.326c5.925,0.021,4.507,6.629,5.489,10.914
	c-3.651-0.246-7.011-0.247-10.623,0.167c-1.027,0.118-2.186,0.114-3.418,0.053C217.359,206.452,217.881,200.303,224.624,200.326z
	 M309.604,232.945c-0.095,7.165-1.005,14.315-1.748,21.414c-0.714,6.829,0.527,13.61-0.825,20.339
	c-0.694,3.455-0.36,7.002-0.931,10.483c-0.52,3.161-0.77,6.444-1.027,9.638c-0.183,2.268-0.14,4.536-0.406,6.8
	c-0.043,0.37-0.372,4.381-0.553,4.792c-0.044,0.003-0.066,0.004-0.118,0.009c-0.605,0.05-1.21,0.058-1.817,0.026
	c-1.876,0.025-3.75,0.015-5.627,0.053c-4.397,0.088-9.246-0.077-13.878,0.455c-2.321,0.097-4.603,0.28-6.637,0.263
	c-8.16-0.069-16.324,0.063-24.485,0.043c-7.46-0.018-14.853-0.449-22.325-0.316c-4.601-0.519-9.41-0.357-13.775-0.445
	c-1.877-0.038-3.75-0.028-5.627-0.053c-0.607,0.032-1.213,0.023-1.817-0.026c-0.052-0.004-0.074-0.005-0.118-0.009
	c-0.181-0.41-0.51-4.422-0.553-4.792c-0.266-2.263-0.223-4.531-0.406-6.8c-0.257-3.194-0.509-6.477-1.027-9.638
	c-0.572-3.481-0.236-7.028-0.931-10.483c-1.353-6.728-0.111-13.51-0.825-20.339c-0.743-7.099-1.653-14.249-1.748-21.414
	c-0.05-3.734-0.353-7.55-0.114-11.276c0.275-4.272,2.086-4.495,5.876-4.43c1.665,0.029,3.308-0.004,4.941-0.076
	c1.482,0.389,2.98,0.692,4.64,0.771c3.683,0.174,7.38,0.164,11.067,0.229c7.385,0.129,14.972,0.756,22.339,0.15
	c6.394-0.526,12.822,0.174,19.156-0.783c3.004-0.455,6.839-0.591,10.211-1.449c1.472,0.009,2.846,0.007,3.981,0.068
	c6.51,0.353,12.762,1.204,19.343,1.09c3.79-0.065,5.602,0.158,5.876,4.43C309.956,225.395,309.653,229.212,309.604,232.945z"/>
<path d="M290.318,414.408c-0.043,4.028-0.775,8.97,0.094,12.925c1.44,6.562,7.99,4.303,12.803,4.414
	c2.361,0.054,5.177,0.086,6.907-1.808c2.018-2.21,1.15-5.499,1.106-8.213c-0.064-4,0.738-7.744,0.448-11.831
	c-0.141-1.983-0.256-3.97-0.406-5.953c0.209-2.424,0.388-4.856,0.387-7.356c-0.001-5.434,0.073-10.866,0.135-16.299
	c0.07-6.054-0.926-11.658-1.445-17.66c-0.54-6.228-0.869-12.188-5.834-16.676c-4.338-3.921-9.188-1.704-11.798,2.927
	c-3.777,6.698-3.532,15.161-3.651,22.58c-0.157,9.782,0.201,19.557,0.533,29.322C289.751,405.362,290.368,409.796,290.318,414.408z
	 M294.413,355.672c0.452-1.85,0.948-4.37,2.36-5.73c2.957-2.847,5.438-0.632,7.074,2.049c1.727,2.831,1.782,6.342,2.271,9.585
	c0.715,4.744,1.45,9.826,1.622,14.591c0.319,8.827,0.925,18.627,0.05,27.408c-0.489,4.907-0.885,9.888-0.816,14.855
	c-0.104,0.726-0.196,1.458-0.258,2.208c-0.177,2.149,1.051,5.105-1.659,6.18c-0.968,0.384-2.587-0.114-3.648-0.139
	c-0.98-0.024-3.202,0.468-4.055,0.25c-2.902-0.739-2.114-2.679-2.103-4.89c0.092-17.602-1.431-35.05-1.738-52.646
	C293.43,364.773,293.304,360.206,294.413,355.672z"/>
<path d="M262.108,414.408c-0.043,4.028-0.775,8.97,0.094,12.925c1.44,6.562,7.99,4.303,12.803,4.414
	c2.361,0.054,5.177,0.086,6.907-1.808c2.018-2.21,1.15-5.499,1.106-8.213c-0.064-4,0.738-7.744,0.448-11.831
	c-0.141-1.983-0.256-3.97-0.406-5.953c0.209-2.424,0.388-4.856,0.387-7.356c-0.001-5.434,0.073-10.866,0.135-16.299
	c0.069-6.054-0.926-11.658-1.445-17.66c-0.54-6.228-0.869-12.188-5.834-16.676c-4.338-3.921-9.188-1.704-11.798,2.927
	c-3.777,6.698-3.532,15.161-3.651,22.58c-0.157,9.782,0.202,19.557,0.534,29.322C261.541,405.362,262.158,409.796,262.108,414.408z
	 M266.202,355.672c0.452-1.85,0.948-4.37,2.36-5.73c2.957-2.847,5.438-0.632,7.074,2.049c1.727,2.831,1.782,6.342,2.271,9.585
	c0.715,4.744,1.45,9.826,1.622,14.591c0.319,8.827,0.925,18.627,0.05,27.408c-0.489,4.907-0.885,9.888-0.816,14.855
	c-0.104,0.726-0.196,1.458-0.258,2.208c-0.177,2.149,1.051,5.105-1.659,6.18c-0.968,0.384-2.587-0.114-3.648-0.139
	c-0.98-0.024-3.202,0.468-4.055,0.25c-2.902-0.739-2.114-2.679-2.103-4.89c0.092-17.602-1.431-35.05-1.738-52.646
	C265.22,364.773,265.094,360.206,266.202,355.672z"/>
<path d="M242.407,82.834c0.433-0.588,0.858-1.017,1.512-1.371c0.325-0.177,0.665-0.353,1.029-0.439
	c0.13-0.031,0.209-0.053,0.268-0.072c0.537,0.229,0.981,0.914,1.409,1.286c0.703,0.612,1.401,1.031,2.297,1.311
	c0.784,0.245,1.871,0.004,2.416-0.639c0.046-0.055,0.093-0.11,0.139-0.164c0.683-0.807,0.788-1.702,0.342-2.648
	c-0.382-0.809-0.955-0.869-1.61-1.353c-0.413-0.305-0.729-0.738-1.103-1.09c-1.249-1.175-2.723-1.886-4.472-1.651
	c-2.817,0.38-7.126,2.944-6.15,6.318C239.036,84.226,241.35,84.274,242.407,82.834z"/>
<path d="M257.691,81.194c1.668,2.703,4.565-1.784,6.604-1.463c1.605,0.253,2.402,2.303,3.292,3.408
	c2.019,2.507,5.658-1.082,3.563-3.563c-1.069-1.266-1.691-2.499-3.121-3.439c-1.594-1.048-3.378-1.534-5.267-1.111
	C260.524,75.527,255.923,78.325,257.691,81.194z"/>
<path d="M250.196,70.458c1.309-0.976,4.32-3.158,6.098-2.204c0.748,0.401,1.093,1.826,1.774,2.462
	c1.101,1.028,2.388,1.155,3.72,0.491c1.07-0.533,1.602-2.294,0.862-3.285c-0.513-0.686-0.901-1.017-1.209-1.455
	c-0.453-0.644-0.821-1.323-1.421-1.85c-1.673-1.467-4.108-1.649-6.182-1.172c-2.497,0.575-8.19,2.934-5.853,6.434
	C248.429,70.541,249.463,71.005,250.196,70.458z"/>
<path d="M245.042,113.027c0.25-2.022,0.076-4.112,0.014-6.148c-0.058-1.923-0.049-3.883-0.575-5.743c-0.48-1.697-2.96-1.698-3.441,0
	c-0.525,1.859-0.516,3.823-0.575,5.743c-0.062,2.039-0.236,4.122,0.014,6.148C240.842,115.953,244.679,115.959,245.042,113.027z"/>
<path d="M254.651,114.997c4.451,0.857,2.697-5.775,2.715-8.082c0.02-2.495,0.559-4.425-0.321-6.848
	c-0.537-1.478-2.727-1.662-3.192,0C253.092,102.792,249.66,114.036,254.651,114.997z"/>
<path d="M265.221,107.71c-0.128,1.876-0.429,3.735,0.198,5.566c0.584,1.708,2.636,2.338,3.993,1.054
	c1.44-1.363,0.837-4.293,0.745-6.033c-0.071-1.317-0.16-2.637-0.189-3.957c-0.012-0.548,0.045-1.111,0.013-1.656
	c-0.001-0.014-0.003-0.023-0.004-0.036c1.153-1.419,0.071-3.841-1.92-3.911c-3.235-0.115-3.089,4.048-3.009,6.229
	C265.081,105.881,265.148,106.796,265.221,107.71z"/>
<path d="M292.272,279.1c3.259-7.472,6.975-17.197,4.473-25.347c-2.837-9.238-6.73-16.549-14.597-22.446
	c-8.33-6.245-18.02-10.844-28.545-8.494c-1.587,0.354-3.161,0.746-4.718,1.175c-1.809,0.308-3.813,0.732-5.489,1.266
	c-3.675,1.171-7.743,3.576-10.856,5.793c-1.581,1.127-3.067,2.413-4.454,3.818c-0.824,0.786-1.627,1.606-2.394,2.49
	c-0.152,0.177-0.25,0.372-0.309,0.574c-4.094,5.169-6.944,11.465-8.006,17.8c-1.478,8.823-0.857,18.496,4.538,25.906
	c5.875,8.069,13.018,14.293,22.952,16.499C262.983,302.159,284.195,297.618,292.272,279.1z M276.862,290.019
	c-7.414,4.579-17.3,5.125-25.724,4.246c-9.05-0.946-15.998-4.472-22.186-11.119c-6.488-6.97-8.281-14.38-7.769-23.721
	c0.431-7.876,3.822-15.781,9.297-21.573c5.122-3.203,10.139-5.924,16.112-7.572c3.89-1.074,8.017-2.14,12.026-2.529
	c4.22-0.409,9.157,1.396,12.899,3.325c7.728,3.986,14.331,8.992,18.012,17.006c1.369,2.982,2.88,6.566,3.228,9.825
	c0.469,4.391-1.123,8.42-2.551,12.455C287.375,278.363,284.422,285.351,276.862,290.019z"/>
<path d="M213.189,240.835c2.059-2.067,4.765-3.503,6.824-5.642c1.92-1.995,3.431-4.311,5.537-6.148
	c1.156-1.01,2.464-1.868,1.95-3.663c-1.112-3.88-8.599-3.612-13.816-1.772c-0.802,0.228-1.595,0.481-2.423,0.694
	c-1.274,0.329-2.149,0.393-3.029,1.47c-1.453,1.781-1.147,4.387-1.064,6.513c0.131,3.341-0.489,6.634,0.167,9.949
	c0.15,0.757,1.051,1.455,1.829,1.392C211.387,243.45,211.755,242.274,213.189,240.835z M211.655,228.103
	c2.368-0.506,4.687-1.418,7.113-1.654c0.942-0.092,1.91-0.12,2.855-0.087c0.163,0.006,0.511,0.071,0.879,0.136
	c-0.944,0.835-1.986,2.256-2.547,2.895c-1.15,1.312-2.11,2.705-3.387,3.911c-1.439,1.358-2.987,2.55-4.569,3.73
	c-0.172,0.129-0.679,0.659-1.216,1.221c0.034-1.556,0.22-3.114,0.209-4.675C210.981,231.914,210.205,229.338,211.655,228.103z"/>
<path d="M224.88,292.627c-1.581-1.635-3.261-3.183-4.763-4.893c-2.082-2.371-4.224-5.008-7.273-6.141
	c-0.531-0.197-1.335,0.012-1.699,0.449c-1.26,1.514-1.338,3.314-1.151,5.168c-0.077,2.109,0.278,4.273,0.529,6.323
	c0.285,2.334-0.309,5.593,1.531,7.495c1.382,1.429,3.44,1.267,5.23,0.992c3.511-0.537,7.248-0.165,10.753,0.505
	c0.575,0.11,1.274,0.044,1.682-0.445C232.204,299.099,226.701,294.511,224.88,292.627z M220.771,297.996
	c-1.597-0.146-3.718,0.78-5.172,0.41c-1.768-0.448-1.231-6.023-1.521-7.562c-0.226-1.202-1.08-3.615-0.874-5.233
	c2.918,1.794,5.18,5.337,7.528,7.633c1.193,1.165,2.369,2.347,3.491,3.58c0.505,0.556,1.008,1.125,1.481,1.715
	C224.059,298.295,222.391,298.144,220.771,297.996z"/>
<path d="M300.767,286.232c0.105-2.042,0.434-4.672-1.464-5.988c-0.585-0.405-1.47-0.222-1.952,0.252
	c-3.097,3.044-5.407,6.588-8.296,9.797c-2.433,2.703-5.08,5.257-6.995,8.377c-0.56,0.912-0.063,2.385,1.057,2.597
	c1.925,0.364,3.762,0.216,5.708,0.182c2.452-0.043,5.028,0.662,7.418,0.451c3.139-0.277,4.313-2.896,4.708-5.666
	C301.434,292.841,300.595,289.616,300.767,286.232z M297.427,297.034c-1.171,1.714-2.998,0.949-4.464,0.834
	c-2.014-0.157-4.096,0.137-6.14,0.171c1.787-2.231,3.883-4.204,5.612-6.489c1.773-2.342,3.064-4.908,5.274-6.953
	c-0.079,1.129-0.237,2.489-0.252,2.732c-0.11,1.957,0.435,3.626,0.492,5.591C297.976,293.86,297.976,296.231,297.427,297.034z"/>
<path d="M302.104,223.03c-2.416-1.843-7.797-0.723-10.59-0.735c-3.248-0.014-6.676-0.572-9.861,0.204
	c-1.083,0.264-1.565,1.584-1.024,2.518c1.562,2.698,2.145,3.455,4.625,5.104c0.835,0.89,1.866,1.624,2.96,2.464
	c3.072,2.357,5.118,5.618,7.754,8.386c1.189,1.249,3.502,2.991,5.393,2.428c1.915-0.57,1.944-2.669,2.046-4.379
	c0.207-3.531-0.643-6.872-0.626-10.345C302.793,226.644,304.086,224.541,302.104,223.03z M300.103,239.602
	c-2.136-1.138-4.662-5.085-5.848-6.388c-1.055-1.159-2.137-2.285-3.4-3.221c-0.607-0.45-1.282-0.836-1.957-1.229
	c-0.232-0.256-0.48-0.503-0.767-0.726c-1.115-0.869-2.052-1.588-2.883-2.467c1.836,0.017,3.715,0.297,5.509,0.302
	c1.193,0.003,8.23-0.888,9.026,0.138c0.126,0.162-0.269,2.366-0.265,2.665c0.026,1.832,0.52,3.634,0.641,5.458
	C300.248,235.479,300.517,237.904,300.103,239.602z"/>
<path d="M276.314,251.113c0.075-2.003-0.178-4.004,0.002-5.975c0.058-0.647,0.211-1.303,0.138-1.936
	c0.21-1.087-0.7-1.941-1.728-2.036c-0.082-0.008-0.161-0.006-0.243-0.01c-2.01-0.51-4.923,0.423-6.484,0.492
	c-2.235,0.099-2.243,3.389,0,3.479c0.597,0.023,1.206-0.014,1.818-0.075c0.362-0.019,0.728-0.046,1.085-0.083
	c-0.682,0.576-1.367,1.117-1.798,1.592c-1.559,1.718-2.996,3.557-4.53,5.307c-1.899,2.165-3.935,4.172-5.763,6.392
	c-2.404-2.015-4.855,1.419-6.131,3c-2.014,2.494-5.605,2.246-8.486,3.038c-1.648,0.452-3.313,0.874-4.964,1.339
	c0.119-0.2,0.242-0.397,0.364-0.595c0.691-0.725,1.215-1.573,1.738-2.427c1.024-1.672-1.394-3.602-2.746-2.118
	c-0.37,0.405-0.704,0.835-1.025,1.275c-1.985,2.059-5.687,4.123-4.809,7.303c0.014,0.053,0.041,0.1,0.058,0.152
	c0.05,0.587,0.409,1.111,0.929,1.413c1.809,1.748,5.412,2.512,7.262,3.075c2.687,0.818,3.744-3.252,1.149-4.166
	c-0.61-0.215-1.229-0.394-1.849-0.572c4.107-1.277,8.386-2.134,12.47-3.418c1.206,2.721,4.646,3.338,6.808,0.974
	c1.266-1.384,1.636-3.696,0.987-5.535c2.917-3.029,5.828-6.066,8.706-9.127c0.95-1.01,1.79-2.081,2.689-3.114
	c0.04,0.867,0.114,1.696,0.137,2.356C272.196,253.825,276.212,253.828,276.314,251.113z"/>
<path d="M257.018,240.357c0.909-1.024,0.381-2.031,0.656-3.224c0.321-1.388,0.319-3.093-0.577-4.273
	c-0.577-0.76-1.619-0.855-2.179,0c-0.606,0.922-0.578,2.046-0.981,3.05c-0.481,1.198-0.779,2.232-0.405,3.526
	C253.946,240.871,255.948,241.563,257.018,240.357z"/>
<path d="M258.708,286.867c-0.044-0.139-0.087-0.277-0.116-0.424c-0.003-0.061-0.042-0.361-0.046-0.404
	c-0.029-0.292-0.064-0.585-0.092-0.877c-0.099-1.027-0.157-2.01-0.48-2.997c-0.471-1.434-2.342-1.359-2.842,0
	c-0.674,1.83-1.868,5.895,0.225,7.492c0.224,0.21,0.492,0.372,0.779,0.441c0.051,0.012,0.102,0.024,0.152,0.036
	c1.687,0.408,2.916-1.032,2.633-2.633C258.906,287.424,258.74,286.938,258.708,286.867z"/>
<path d="M231.266,257.811c-1.248-0.387-2.535,0.06-3.8,0.169c-1.259,0.109-2.647,0.151-3.83,0.624
	c-0.944,0.377-1.558,2.008-0.331,2.529c2.583,1.095,7.164,1.971,9.042-0.665C233.054,259.478,232.293,258.13,231.266,257.811z"/>
<path d="M286.251,259.489c-0.982-0.209-1.89,0.045-2.878,0.078c-0.964,0.033-1.913,0.076-2.848,0.335l0.019,0.019
	c-0.298,0.072-0.576,0.215-0.793,0.433c-0.956,0.955-0.477,2.547,0.775,2.933c1.958,0.604,4.999,1.294,6.647-0.311
	C288.251,261.925,287.801,259.817,286.251,259.489z"/>
<path d="M269.708,281.553c-1.091-1.192-2.68-2.217-3.691-1.889c-1.57,0.51-1.017,3.241-0.465,4.297
	c0.309,0.588,0.807,1.071,1.38,1.407c0.31,0.181,0.653,0.297,1.005,0.354c0.081,0.013,1.142,0.102,1.122,0
	c-0.371,0.031-0.374,0.024-0.01-0.018c0.143,0.002,0.279-0.028,0.405-0.089C271.741,284.715,270.97,282.931,269.708,281.553z"/>
<path d="M278.121,276.512c-0.013-0.011-0.02-0.017-0.035-0.03c-0.191-0.158-0.388-0.307-0.591-0.447
	c0.523,0.427-0.688-0.536-0.421-0.341c-0.193-0.141-0.388-0.29-0.588-0.421c-0.171-0.143-0.368-0.242-0.59-0.295
	c0.179,0.052,0.172,0.026-0.021-0.074c-0.226-0.108-0.456-0.196-0.697-0.253c-0.394-0.093-0.862-0.19-1.279-0.011
	c-2.415,0.579,1.182,6.615,3.911,5.852c1.317-0.367,1.876-1.87,1.237-3.042C278.808,277.015,278.499,276.787,278.121,276.512z"/>
<path d="M266.012,239.936c0.552,0.426,1.112,0.473,1.783,0.366c0.05-0.008,0.098-0.015,0.148-0.023
	c0.829-0.131,1.331-0.909,1.414-1.717c0.119-0.268,0.239-0.535,0.327-0.818c0.082-0.263,0.132-0.52,0.169-0.792
	c0.046-0.341,0.007-0.649-0.127-0.967c-0.015-0.036-0.023-0.052-0.034-0.078c-0.002-0.023-0.008-0.056-0.02-0.113
	c-0.271-1.243-1.961-1.488-2.727-0.602c-0.061,0.049-0.135,0.107-0.241,0.194c-0.107,0.125-0.201,0.259-0.293,0.394
	c-0.031,0.03-0.254,0.297-0.289,0.341c-0.538,0.655-0.843,1.359-0.916,2.209C265.152,238.959,265.538,239.571,266.012,239.936z"/>
<path d="M281.756,254.209c0.907-0.909,1.603-2.235,2.227-2.905c0.028-0.088,0.068-0.373,0.131-0.44
	c1.39-1.501-0.893-2.306-1.978-2.025c-1.416,0.367-3.29,1.359-4.081,2.634c-0.905,1.459-0.224,3.608,1.69,3.687
	C280.523,255.192,281.182,254.784,281.756,254.209z"/>
<path d="M240.472,239.16c0.145,1.826,1.24,4.182,2.219,4.636c1.32,0.613,3.021-0.098,3.001-1.722
	c-0.004-0.323-0.054-0.672-0.136-0.988c-0.03-0.114-0.18-0.489-0.241-0.64c0.006,0.014,0.008,0.02,0.017,0.041
	c0.131,0.32-0.177-0.436-0.141-0.351c-0.256-0.6-0.579-1.104-0.971-1.623c-0.135-0.179-0.265-0.388-0.424-0.547
	c-0.01-0.01-0.205-0.162-0.31-0.244c-0.15-0.119-0.3-0.257-0.465-0.354c-0.049-0.029-0.573-0.325-0.271-0.151
	c-0.151-0.087-0.306-0.183-0.478-0.231C240.804,236.683,240.361,237.766,240.472,239.16z"/>
<path d="M229.707,250.816c1.157,0.898,3.15,1.354,4.104,1.625c2.057,0.585,4.249-1.964,2.35-3.704
	c-0.932-0.854-1.921-0.94-3.114-0.872c-0.801,0.045-1.538-0.095-2.282,0.041c-0.844,0.154-1.589-0.377-1.898,0.968
	C228.682,249.688,229.067,250.32,229.707,250.816z"/>
<path d="M231.608,271.908c-0.397-0.397-1.113-0.656-1.665-0.44c0.415-0.014,0.33,0.007-0.255,0.065
	c-0.15,0.063-0.301,0.127-0.451,0.191c-0.06,0.028-0.085,0.041-0.099,0.049c-0.023,0.009-0.039,0.014-0.071,0.026
	c-0.762,0.286-1.219,0.631-1.716,1.3c-0.978,1.316,0.35,3.184,1.818,3.169c0.058-0.001,0.117-0.001,0.175-0.002
	c0.649-0.007,1.232-0.328,1.609-0.83c0.204-0.213,0.385-0.452,0.564-0.691c0.092-0.121,0.184-0.242,0.264-0.372
	c0.104-0.158,0.181-0.33,0.231-0.516c0.078-0.575,0.09-0.67,0.036-0.284C232.152,272.953,232.075,272.373,231.608,271.908z"/>
<path d="M241.801,279.392c-0.922,0.796-1.659,1.723-2.042,2.898c-0.192,0.589-0.286,1.258-0.279,1.879
	c0.003,0.311,0.024,0.685,0.107,0.986c0.04,0.147,0.537,1.281,0.393,0.739c0.205,0.77,1.241,1.291,1.946,0.792
	c0.476-0.336,1.002-0.514,1.317-1.054c0.373-0.638,0.456-1.379,0.524-2.097c0.102-1.064,0.259-2.113,0.352-3.184
	C244.228,279.081,242.609,278.694,241.801,279.392z"/>
<g>
</g>
<g>
</g>
<g>
</g>
<g>
</g>
<g>
</g>
<g>
</g>
<g>
</g>
<g>
</g>
<g>
</g>
<g>
</g>
<g>
</g>
<g>
</g>
<g>
</g>
<g>
</g>
<g>
</g>
</svg>
