<?xml version="1.0" encoding="iso-8859-1"?>
<!-- Generator: Adobe Illustrator 19.0.0, SVG Export Plug-In . SVG Version: 6.00 Build 0)  -->
<svg version="1.1" id="Layer_1" xmlns="http://www.w3.org/2000/svg" xmlns:xlink="http://www.w3.org/1999/xlink" x="0px" y="0px"
	 viewBox="0 0 512 512" style="enable-background:new 0 0 512 512;" xml:space="preserve">
<path style="fill:#FCCC75;" d="M72.345,345.384c0.129-1.867-0.234-3.737-1.276-5.274c-1.729-2.552-4.873-3.666-7.803-4.624
	c-13.616-4.453-27.231-8.905-40.848-13.357c-4.828-1.578-17.484-5.789-14.22-12.622c0.736-1.539,1.93-2.804,3.105-4.042
	c7.75-8.16,14.068-17.347,21.553-25.532c8.289-9.061,16.409-18.336,23.265-28.551c3.055-4.551,5.859-9.288,9.312-13.544
	c3.452-4.256,7.51-7.978,11.229-12.003c3.818-4.132,7.283-8.589,10.347-13.309c1.182-1.821,2.607-3.878,4.769-4.086
	c2.515-0.242,4.416,2.13,5.805,4.24c4.61,7.003,8.92,14.201,13.533,21.201c4.436,6.734,10.457,12.463,15.864,18.442
	c0.872,0.965,1.815,1.974,3.069,2.321c1.77,0.49,3.679-0.534,4.782-2.003c2.413-3.217,3.368-7.765,5.693-11.303
	c2.893-4.403,5.735-8.844,8.366-13.411c9.435-16.38,17.989-33.268,27.508-49.599c19.829-34.02,39.364-67.955,59.606-101.878
	c2.542-4.261,5.131-8.579,8.731-11.993s8.407-5.865,13.359-5.548c6.987,0.446,12.561,6.192,15.768,12.415
	c4.746,9.21,6.944,18.916,12.847,27.574c6.358,9.323,13.541,18.099,19.104,27.949c12.266,21.722,24.954,43.201,37.759,64.607
	c6.404,10.706,12.84,21.393,19.268,32.085c3.214,5.345,6.425,10.692,9.631,16.043c2.345,3.914,5.669,18.115,12.199,14.085
	c2.994-1.848,5.042-6.175,7.693-8.67c3.582-3.369,6.891-7.008,10.026-10.793c6.009-7.251,9.918-14.966,15.036-22.783
	c0.96-1.466,2.178-3.049,3.922-3.216c2.594-0.248,4.22,2.63,5.331,4.987c5.954,12.647,20.882,20.058,24.467,33.312
	c1.408,5.205,5.593,13.02,10.633,15.565c2.137,1.079,4.515,1.644,6.594,2.829c2.948,1.679,5.072,4.465,7.114,7.174
	c5.986,7.948,11.71,16.088,17.478,24.196c2.344,3.296,14.554,15.337,12.019,19.099c-1.456,2.162-4.277,2.839-6.832,3.357
	c-15.082,3.064-30.084,6.517-44.989,10.351c-3.066,0.789-6.181,1.616-8.861,3.302s-4.904,4.388-5.227,7.535
	c-0.487,4.735,3.094,8.247,5.604,11.797c2.544,3.598,4.09,7.84,6.558,11.44c2.401,3.501,5.857,6.156,7.903,10.014
	c1.971,3.719,2.709,8.34,0.896,12.139c-2.209,4.627-7.427,6.857-12.212,8.702c-30.196,11.634-60.39,23.268-90.586,34.904
	c-34.007,13.103-73.599,22.53-110.178,21.21c-23.792-0.858-47.096-6.818-69.898-13.66c-36.146-10.846-71.622-24.004-105.848-39.904
	c-5.256-2.441-10.767-5.21-14.778-9.503c-5.011-5.364-5.839-9.421-1.169-15.127c5.77-7.052,12.897-14.556,16.221-23.157
	C71.995,347.695,72.265,346.54,72.345,345.384z"/>
<g>
	<path style="fill:#DB9F58;" d="M449.779,240.396c-4.137,2.046-7.903,7.236-9.734,11.44c-2.539,5.826-0.281,8.069,5.16,10.522
		c4.231,1.907,10.177,5.691,14.996,4.703c8.098-1.659-0.624-7.092-3.296-9.506C454.062,254.983,451.096,242.454,449.779,240.396z"/>
	<path style="fill:#DB9F58;" d="M383.706,378.979c-23.597,8.678-48.979,14.244-73.422,20.555
		c-11.985,3.094-23.412,5.428-35.823,6.067c-6.383,0.329-14.774-1.65-18.942,2.27c-8.672,8.157-0.375,18.067,9.35,16.539
		c12.68-1.993,25.606-5.953,38.027-9.059c11.266-2.816,22.785-4.447,34.054-7.317c15.504-3.95,31.126-11.368,45.922-17.523
		c6.593-2.743,22.154-5.357,24.115-13.642C398.7,372.284,382.93,379.246,383.706,378.979z"/>
	<path style="fill:#DB9F58;" d="M269.205,291.763c-4.356,0.174-8.69-1.066-12.137,1.953c-15.449,13.524,20.399,8.685,24.604,8.157
		c23.698-2.976,47.249-7.159,69.58-15.584c4.522-1.705,17.714-2.511,20.287-7.457c3.702-7.112-16.94-2.319-10.611-4.306
		c-9.841-0.262-21.159,3.683-30.642,5.833c-10.882,2.467-21.667,5.78-32.613,7.921C288.346,290.105,278.703,291.382,269.205,291.763
		z"/>
	<path style="fill:#DB9F58;" d="M385.929,305.085c-24.838,10.138-54.277,10.716-80.622,14.293
		c-12.664,1.72-25.351,3.246-38.01,4.874c-5.174,0.666-9.248,0.159-12.628,4.418c-2.178,2.745-5.169,9.821-2.108,12.878
		c3.442,3.439,18.23,0.558,22.593,0.108c23.283-2.401,47.243-10.192,69.845-16.14c9.906-2.607,19.608-6.152,29.116-9.886
		c5.787-2.273,14.003-4.213,17.323-9.903C390.571,305.733,389.593,305.905,385.929,305.085z"/>
	<path style="fill:#DB9F58;" d="M387.04,342.309c-9.128,2.515-18.737,2.947-27.931,5.555c-10.653,3.024-21.498,5.206-32.383,7.207
		c-19.477,3.579-38.262,6.319-57.891,8.474c-2.442,0.268-12.882,0.59-16.901,3.14c-1.076-11.201-2.215-22.416-2.11-33.801
		c0.119-12.982,1.432-25.998,1.818-38.995c0.488-16.453,0.477-32.891,4.49-48.917c22.892-4.504,54.335-4.925,73.565-19.233
		c-6.92-4.676-23.938-2.21-32.294-1.811c-11.318,0.541-28.438,5.906-38.634,1.612c-0.839,1.304-1.605,2.676-2.276,4.08
		c-0.241-2.324-0.51-4.65-0.668-6.963c-0.605-8.869-0.97-17.755-0.97-26.645c0-7.498,0.191-14.772,0.488-22.051
		c0.009,0.004,0.018,0.009,0.027,0.013c3.099,1.371,11.641-1.576,14.882-2.164c10.325-1.872,20.49-4.328,30.698-6.741
		c3.692-0.872,11.919-1.059,12.124-6.011c-8.516-2.617-19.499,0.481-28.311,0.46c-8.276-0.019-20.557,2.959-28.286,0
		c-0.141,0.205-0.296,0.434-0.458,0.681c0.038-0.662,0.069-1.313,0.108-1.977c0.661-11.207-0.39-22.252,0.536-33.472
		c0.965-11.686,1.905-23.097,2.312-34.895c0.16-4.646-0.412-8.928-0.458-13.74c-0.044-4.608-0.079-13.192-1.83-16.918
		c-5.322-7.447-24.747,20.98-26.195,26.871c-0.686,2.791-0.515,5.789-1.581,8.474c-1.533,3.862-5.178,5.604-8.039,8.353
		c-6.26,6.014-10.254,14.98-14.404,22.524c-7.993,14.529-16.555,28.732-24.691,43.178c-7.2,12.784-15.298,24.933-22.541,37.671
		c-5.439,9.566-9.872,19.448-15.109,29.092c-4.322,7.96-8.883,15.085-12.813,23.425c-4.351,9.233-11.622,15.472-17.146,23.798
		c-3.667,5.527-5.744,11.989-9.394,17.55c-2.438,3.716-5.611,6.755-8.347,10.152c3.357-5.459,7.083-10.434,8.139-17.236
		c1.182-7.612-1.513-14.293-2.768-21.629c-2.027-11.867-4.454-23.671-6.267-35.587c-1.175-7.717-0.021-16.37-2.198-23.829
		c-0.754-2.581-1.868-4.962-3.66-2.724c-8.052,6.894-13.909,16.51-21.753,23.52c-3.048,2.725-5.748,4.767-7.117,8.694
		c-1.297,3.718-1.067,7.528-2.93,11.253c-4.479,8.952-14.569,10.713-20.35,18.737c-8.331,11.565-17.86,22.021-27.008,32.979
		c-2.667,3.195-7.388,7.291-4.575,10.743c3.261,4.005,12.569,4.347,17.175,5.714c12.923,3.837,26.1,6.32,38.671,11.1
		c8.795,3.344,15.482,5.786,23.347-1.944c1.364-1.34,2.517-2.954,3.554-4.701c-0.548,1.36-1.113,2.704-1.734,4.001
		c-2.912,6.086-7.734,10.964-11.932,16.143c-4.077,5.027-7.165,10.654-10.97,15.91c-2.657,3.67-7.084,6.298-9.506,9.93
		c-2.217,3.323-3.438,9.394-1.843,13.177c1.902,4.513,5.868,5.764,10.089,7.107c5.35,1.701,10.128,4.502,15.23,7.07
		c11.454,5.765,23.303,10.807,35.513,14.742c8.769,2.827,17.137,6.962,25.329,11.108c9.777,4.95,21.051,5.322,31.164,9.623
		c18.178,7.732,37.603,7.146,56.346,12.685c3.971,1.174,7.711,2.279,11.441,3.89c2.91,1.257,7.906,4.939,11.323,3.282
		c4.769-2.314,2.974-12.788,2.974-17.255c0-9.049-0.046-17.896,0.914-26.885c1.362-12.764,0.559-25.297-0.584-37.817
		c4.466,2.156,14.719,0.008,17.147-0.333c23.582-3.324,48.061-5.439,71.271-10.876c11.555-2.707,22.581-7.812,33.973-11.211
		C377.569,348.853,391.281,345.121,387.04,342.309z"/>
	<path style="fill:#DB9F58;" d="M416.463,289.542c9.617-0.665,18.925-3.006,28.232-5.501c4.951-1.327,17.222-2.489,20.112-7.194
		c-18.074-1.17-35.73,4.073-53.799,2.132c0.838-7.15,1.063-14.547,1.698-21.081c0.94-9.676,4.096-18.37,5.489-27.853
		c0.667-4.541,3.639-15.326,1.883-19.348c-1.101,0.074-2.476,0.796-3.244,1.33c-2.765,5.561-8.63,10.363-12.622,15.316
		c-4.1,5.089-7.103,10.754-11.149,15.799c-2.817,3.514-7.929,7.592-9.633,11.886c-2.428,6.119,6.613,13.571,10.273,18.029
		c5.286,6.436,7.896,15.685,13.887,21.297c0.621-1.613,1.136-3.309,1.582-5.052C411.074,290.268,413.76,289.728,416.463,289.542z"/>
	<path style="fill:#DB9F58;" d="M414.819,306.196c-2.08,5.622,0.496,10.112,3.446,13.82c11.616-0.868,24.293-5.884,36.039-7.724
		c10.929-1.711,28.515-3.16,36.579-11.553C466.062,303.643,438.671,306.196,414.819,306.196z"/>
</g>
<path d="M86.913,291.309c1.015-0.064,1.478-1.415,0.533-1.97c-5.464-3.214-11.938-3.832-17.923-5.615
	c-5.338-1.589-11.46-6.254-17.266-5.771c-1.038,0.087-1.314,1.532-0.252,1.857c2.541,0.779,6.445,3.168,8.83,4.385
	c2.84,1.45,5.406,2.641,8.48,3.528C74.865,289.328,81.033,291.68,86.913,291.309z"/>
<path d="M459.994,279.811c1.062-0.325,0.787-1.772-0.252-1.857c-5.806-0.483-11.927,4.182-17.266,5.771
	c-5.986,1.783-12.46,2.401-17.924,5.615c-0.945,0.555-0.482,1.906,0.533,1.97c5.881,0.371,12.047-1.981,17.599-3.584
	c3.073-0.888,5.638-2.078,8.48-3.528C453.548,282.977,457.453,280.588,459.994,279.811z"/>
<path d="M511.901,313.611c-0.746-3.687-4.161-6.739-6.678-9.391c-3.617-3.811-6.652-7.76-9.872-11.895
	c-5.741-7.375-12.159-14.351-18.055-21.65c-2.454-3.038-4.462-7.277-7.572-9.596c-2.695-2.01-6.492-2.402-9.052-4.537
	c-2.066-1.724-4.029-5.959-5.164-8.501c-1.319-2.956-0.58-5.8-1.317-8.887c-0.629-2.639-2.161-4.411-4.685-5.385
	c-3.718-1.435-5.997-2.511-8.6-5.787c-4.807-6.046-10.495-11.286-14.339-17.989c-2.207-3.851-4.701-10.866-10.396-6.257
	c-2.039,1.651-3.143,4.365-4.426,6.588c-1.901,3.295-4.251,6.265-6.207,9.526c-2.098,3.5-5.16,6.15-7.409,9.582
	c-2.51,3.829-4.919,7.891-8.103,11.154c-3.001,3.074-5.342,6.785-7.117,10.741c-1.235-3.401-2.312-6.867-3.952-10.096
	c-2.216-4.364-5.005-8.463-8.17-12.184c-6.512-7.656-7.438-18.177-14.123-26.037c-3.216-3.781-6.507-7.844-8.912-12.219
	c-2.167-3.948-3.533-8.571-5.452-12.698c-2.318-4.985-5-9.83-8.714-13.902c-3.189-3.496-6.841-7.957-9.046-12.177
	c-2.543-4.862-4.983-9.848-7.324-14.82c-2.226-4.729-5.243-8.538-8.126-12.849c-1.926-2.883-3.855-6.006-5.199-9.211
	c-0.908-2.164-1.29-4.384-2.499-6.422c-2.253-3.793-5.705-7.611-8.915-10.605c-1.787-1.667-3.878-2.827-5.413-4.782
	c-1.841-2.344-1.997-4.677-2.902-7.398c-1.326-3.985-3.092-7.978-5.466-11.461c-0.501-1.429-0.873-2.934-1.659-4.226
	c-1.383-2.275-3.372-4.708-5.462-6.329c-2.242-1.74-4.688-3.146-6.977-4.881c-2.101-1.59-4.576-3.254-7.256-3.743
	c-0.12-0.497-0.761-0.851-1.275-0.404c-0.023,0.02-0.046,0.038-0.069,0.058c-0.024-0.02-0.046-0.038-0.07-0.058
	c-0.483-0.42-1.079-0.134-1.25,0.313c-4.892,0.459-10.04,4.09-12.836,7.759c-1.5,1.969-2.962,4.154-4.337,6.425
	c-1.368,1.372-2.666,2.864-3.858,4.542c-2.562,3.603-4.42,7.815-5.813,12.003c-0.906,2.721-1.062,5.056-2.902,7.398
	c-1.535,1.953-3.627,3.113-5.414,4.782c-3.209,2.994-6.663,6.812-8.915,10.605c-1.211,2.038-1.591,4.258-2.499,6.422
	c-1.345,3.204-3.273,6.328-5.199,9.211c-2.883,4.313-5.9,8.12-8.126,12.849c-2.34,4.971-4.78,9.957-7.324,14.82
	c-2.206,4.219-5.858,8.68-9.046,12.177c-3.713,4.072-6.396,8.918-8.713,13.902c-1.919,4.126-3.285,8.749-5.452,12.698
	c-2.403,4.377-5.694,8.438-8.91,12.219c-6.685,7.86-7.61,18.382-14.123,26.037c-3.164,3.719-5.954,7.819-8.169,12.184
	c-1.64,3.229-2.717,6.695-3.952,10.096c-1.775-3.956-4.116-7.666-7.117-10.741c-3.185-3.264-5.593-7.325-8.103-11.154
	c-2.25-3.432-5.312-6.082-7.409-9.582c-1.955-3.261-4.306-6.232-6.207-9.526c-1.283-2.223-2.387-4.937-4.426-6.588
	c-5.694-4.61-8.188,2.406-10.396,6.257c-3.844,6.702-9.532,11.944-14.339,17.989c-2.603,3.274-4.881,4.352-8.6,5.787
	c-2.523,0.973-4.055,2.745-4.685,5.385c-0.737,3.087,0.001,5.93-1.317,8.887c-1.135,2.542-3.096,6.777-5.164,8.501
	c-2.561,2.136-6.356,2.527-9.052,4.537c-3.109,2.319-5.117,6.557-7.571,9.596c-5.896,7.299-12.314,14.275-18.055,21.65
	c-3.219,4.136-6.254,8.084-9.872,11.895c-2.517,2.652-5.932,5.704-6.678,9.391c-0.532,2.625,1.132,4.853,3.821,5.017
	c3.843,0.234,7.06,1.807,10.635,3.016c3.227,1.091,6.533,1.792,9.745,2.891c6.041,2.069,11.893,4.443,17.836,6.743
	c6.082,2.353,12.179,5.04,18.408,6.997c2.537,0.798,5.024,1.774,7.561,2.548c0.58,0.177,1.304,0.293,2.077,0.392
	c-0.954,1.244-1.881,2.51-2.751,3.83c-3.492,5.301-6.403,10.754-10.621,15.554c-5.294,6.025-14.115,11.245-10.79,20.453
	c1.167,3.234,2.321,6.37,5.125,8.545c4.051,3.143,9.702,5.344,14.359,7.499c9.15,4.233,18.642,7.534,27.692,11.898
	c4.624,2.23,9.62,3.531,14.18,5.764c3.994,1.956,7.247,4.767,11.098,6.872c4.982,2.724,9.465,4.691,15.098,5.642
	c5.777,0.974,10.191,3.247,15.564,5.352c11.095,4.346,23.086,8.838,35.039,9.841c3,0.252,6.143,0.204,9.112,0.724
	c2.995,0.525,5.674,1.945,8.556,2.863c5.948,1.893,12.292,2.23,18.379,3.533c11.879,2.543,23.399,7.979,35.778,7.73
	c12.381,0.249,23.901-5.186,35.778-7.73c6.086-1.303,12.431-1.64,18.378-3.533c2.882-0.917,5.561-2.338,8.556-2.863
	c2.968-0.52,6.111-0.472,9.112-0.724c11.953-1.003,23.944-5.495,35.038-9.841c5.373-2.104,9.786-4.378,15.564-5.352
	c5.634-0.951,10.115-2.918,15.098-5.642c3.851-2.105,7.104-4.916,11.099-6.872c4.56-2.234,9.556-3.534,14.18-5.764
	c9.048-4.364,18.54-7.664,27.69-11.898c4.658-2.154,10.309-4.357,14.36-7.499c2.803-2.175,3.958-5.311,5.125-8.545
	c3.325-9.208-5.496-14.428-10.79-20.453c-4.219-4.801-7.129-10.253-10.621-15.554c-0.869-1.32-1.797-2.586-2.75-3.83
	c0.773-0.1,1.498-0.215,2.077-0.392c2.539-0.775,5.024-1.751,7.561-2.548c6.229-1.958,12.326-4.644,18.41-6.997
	c5.943-2.3,11.794-4.675,17.836-6.743c3.21-1.099,6.517-1.8,9.745-2.891c3.575-1.207,6.792-2.781,10.634-3.016
	C510.77,318.463,512.432,316.236,511.901,313.611z M95.498,217.529c5.065,7.066,10.581,13.422,15.845,20.326
	c3.562,4.672,7.943,8.824,11.764,13.365c-2.671,1.297-5.268,3.392-7.575,4.864c-2.98,1.899-5.967,3.784-7.84,6.851
	c-0.433,0.71,0.443,1.627,1.161,1.161c3.254-2.111,6.888-3.83,10.239-5.827c2.046-1.219,4.572-2.32,6.456-3.952
	c0.498,0.678,0.991,1.361,1.45,2.066c-0.087,0.179-0.164,0.363-0.254,0.541c-4.676,9.219-13.081,15.405-17.143,24.888
	c-1.037,2.421-2.032,4.767-3.153,7.057c-0.223-5.209-1.379-10.731-2.153-15.349c-1.157-6.904-1.651-14.048-3.406-20.818
	c-0.151-0.58-0.322-1.157-0.498-1.734c1.463-0.65,2.866-1.33,4.384-1.893c2.401-0.889,4.846-2.603,6.403-4.624
	c0.288-0.374-0.246-0.712-0.571-0.571c-1.044,0.452-2.3,0.421-3.394,0.711c-1.276,0.338-2.477,0.92-3.725,1.348
	c-1.019,0.35-2.152,0.644-3.094,1.181c-0.362,0.206-0.691,0.481-1.015,0.765c-0.631-1.86-1.256-3.722-1.659-5.624
	c-0.765-3.605-0.47-7.178-0.752-10.795c-0.367-4.702-1.885-9.436-2.511-14.117c-0.068-0.501-0.136-0.995-0.204-1.491
	C94.716,216.489,95.17,217.071,95.498,217.529z M54.11,262.866c2.81-1.469,3.609-3.484,4.989-6.245
	c1.417-2.832,3.737-5.532,4.41-8.664c0.212-0.99,0.147-1.967,0.122-2.943c0.038,1.468,4.713,5.122,5.533,6.8
	c1.187,2.426,1.71,5.546-0.125,7.641c-3.306,3.774-11.061,4.741-15.74,4.899c-0.87,0.03-1.726-0.019-2.578-0.081
	C51.869,263.827,53.042,263.425,54.11,262.866z M64.26,330.931c-6.816-1.856-13.475-4.522-20.161-6.773
	c-6.297-2.121-12.539-4.257-18.945-6.089c-3.238-0.926-6.574-1.665-9.757-2.78c-2.003-0.701-3.851-1.667-5.732-2.569
	c2.141-2.565,5.216-4.957,7.105-7.139c2.95-3.405,5.314-7.219,8.187-10.676c1.892-2.276,3.713-4.611,5.508-6.969
	c1.965,1.144,3.937,1.823,6.308,3.054c3.133,1.627,5.291,2.95,8.969,3.122c4.503,0.211,8.723,0.323,13.054,1.837
	c2.685,0.939,5.519,1.372,8.401,1.292c0.466-0.013,0.572-0.688,0.11-0.819c-3.029-0.859-5.545-2.711-8.304-4.023
	c-2.96-1.409-7.152-1.766-10.364-2.308c-5.405-0.911-10.453-4.029-15.818-5.28c3.465-4.644,6.873-9.339,10.481-13.881
	c0.833-1.049,1.536-2.149,2.346-3.155c3.19,1.117,7.499,0.928,10.196,0.741c3.839-0.268,7.782-1.108,10.405-3.723
	c0.853-0.277,1.658-0.566,2.347-0.895c2.896-1.384,4.509-2.323,5.182-5.536c1.716-8.194-3.343-13.375-8.783-18.112
	c0.726-0.758,1.715-1.275,2.933-2.027c1.972-1.22,3.658-2.685,5.202-4.278c0.059,0.019,0.116,0.045,0.178,0.062
	c1.577,0.411,3.073,0.643,4.618,1.259c2.427,0.968,5.476,2.029,8.064,0.981c0.733-0.297,0.947-1.051,0.441-1.673
	c-0.856-1.054-1.892-1.398-3.159-1.715c-2.041-0.51-3.943-1.286-5.917-2.009c-0.455-0.166-0.863-0.239-1.256-0.273
	c2.383-2.916,4.617-6.004,7.365-8.747c2.829-2.822,4.423-5.859,6.709-9.065c0.229-0.272,0.447-0.553,0.669-0.831
	c0.338,13.705,4.233,26.758,5.735,40.402c0.382,3.471,0.731,6.961,1.07,10.459c-2.439-0.735-5.128-0.852-7.521-1.664
	c-3.419-1.161-6.127-2.16-9.782-1.892c-0.471,0.034-0.712,0.566-0.383,0.926c2.239,2.448,6.65,3.53,9.701,4.672
	c2.253,0.844,5.663,2.337,8.391,2.173c0.318,3.311,0.643,6.627,0.98,9.941c-3.308-1.089-7.205-1.48-10.166-1.878
	c-5.771-0.775-12.288-2.911-18.083-2.397c-0.239,0.021-0.352,0.331-0.126,0.466c4.934,2.939,9.445,4.509,15.064,5.652
	c3.642,0.741,7.219,1.554,10.82,2.501c1.231,0.324,2.155,0.614,3.02,0.726c0.521,4.765,1.103,9.519,1.805,14.239
	c0.046,0.315,0.158,0.579,0.31,0.805c-0.776,1.302-1.578,2.605-2.566,3.658c-1.684,1.794-3.506,3.12-5.042,5.132
	c-2.865,3.754-5.04,7.927-7.21,12.093c-5.21-1.469-10.858-1.982-16.087-2.997c-4.86-0.944-9.856-2.166-14.516-3.759
	c-5.095-1.742-10.506-1.953-15.697-3.711c-4.286-1.451-9.442-3.551-13.995-3.693c-0.841-0.026-1.041,1.082-0.407,1.504
	c1.908,1.265,2.984,2.651,5.141,3.475c2.664,1.017,5.421,1.898,8.117,2.863c5.617,2.009,11.209,3.115,17.148,3.683
	c1.249,0.119,2.539,0.026,3.812,0.1c4.469,0.262,7.23,2.155,11.281,3.746c3.89,1.529,8.247,2.94,12.569,3.741
	c-1.894,3.414-3.975,6.708-6.635,9.633c-0.324,0.356-0.642,0.716-0.965,1.073C72.66,332.41,68.048,331.962,64.26,330.931z
	 M83.982,338.922c1.291-1.421,2.467-2.896,3.562-4.413c2.997,1.252,6.248,2.916,8.791,4.277c3.757,2.012,7.515,3.676,11.442,5.377
	c3.314,1.436,6.723,2.7,10.18,3.836c-2.485,4.369-5.088,8.67-7.416,13.128c-2.089,4.001-4.636,7.857-6.493,11.711
	c-0.262,0.546-0.503,1.118-0.748,1.684c-0.147-0.043-0.291-0.095-0.439-0.135c-6.889-1.898-13.618-4.835-20.158-7.702
	c-4.509-1.977-9.422-4.662-14.29-5.913C73.601,353.484,77.852,345.664,83.982,338.922z M242.911,446.842
	c-5.469-1.354-10.672-3.29-16.067-4.879c-5.241-1.543-10.65-2.302-16.005-3.315c-5.103-0.966-9.629-3.519-14.64-4.556
	c-4.547-0.941-9.338-0.589-13.927-1.209c-5.548-0.749-11.219-2.507-16.569-4.137c-9.424-2.871-18.188-8.388-27.912-9.93
	c-5.287-0.838-9.439-2.088-14.208-4.471c-3.52-1.759-6.666-4.046-10.237-5.845c-4.328-2.18-8.914-3.1-13.353-4.956
	c-4.779-1.999-9.256-4.409-14.259-5.807c-9.383-2.623-18.308-7.72-26.699-12.595c-2.798-1.626-5.666-4.194-4.879-7.912
	c0.498-2.355,2.953-3.545,4.587-5.017c2.207-1.987,4.164-4.378,6.051-6.664c0.659-0.799,1.281-1.619,1.901-2.438
	c1.807,1.267,3.46,2.683,5.479,3.661c3.251,1.574,6.53,3.249,9.817,4.773c5.463,2.531,11.063,5.234,16.787,7.145
	c0.84,0.28,1.677,0.572,2.509,0.873c-0.482,1.271-0.962,2.537-1.468,3.762c-1.012,2.457-2.311,4.6-2.08,7.308
	c0.097,1.15,1.431,1.486,2.099,0.568c2.274-3.122,3.9-6.603,5.646-10.026c10.892,4.38,21.337,10.057,32.599,13.725
	c3.489,1.137,7.301,1.59,10.657,3.058c2.973,1.301,5.864,2.857,8.829,4.194c5.865,2.645,12.104,4.065,18.076,6.445
	c6.017,2.4,12.162,4.159,18.373,5.953c3.314,0.957,6.475,2.182,9.888,2.763c3.353,0.57,7.952,0.116,10.949,1.705
	c1.207,0.64,2.127-1.025,1.053-1.802c-4.594-3.322-11.511-3.759-16.793-5.659c-6.99-2.514-14.181-4.129-20.979-7.224
	c-5.795-2.638-11.972-4.339-17.677-7.127c-6.015-2.94-11.346-5.252-17.776-7.067c-7.169-2.025-13.971-5.117-20.879-7.861
	c-4.656-1.849-8.992-4.183-13.564-6.035c0.216-0.344,0.423-0.694,0.652-1.031c2.407-3.569,4.46-7.35,6.449-11.284
	c2.426-4.798,4.593-9.723,6.847-14.608c3.079,0.91,6.181,1.728,9.275,2.466c4.598,1.098,8.807,3.101,13.354,4.335
	c4.776,1.297,9.428,2.486,14.097,4.126c4.253,1.493,8.427,2.453,12.891,3.061c4.142,0.564,8.62,1.988,12.77,1.386
	c0.832-0.121,0.962-1.454,0.236-1.805c-8.519-4.11-17.482-5.945-26.377-9.023c-4.541-1.571-9.287-2.35-13.863-3.767
	c-4.51-1.396-8.71-3.056-13.317-4.182c-2.24-0.547-4.437-1.17-6.61-1.843c1.26-2.662,2.425-5.358,3.476-8.113
	c1.469-3.85,1.874-8.556,3.767-12.162c0.095-0.183-0.131-0.36-0.284-0.22c-5.167,4.751-7.211,12.213-10.348,18.367
	c-0.15,0.293-0.316,0.577-0.468,0.869c-4.516-1.538-8.952-3.261-13.429-5.026c-5.055-1.993-11.396-5.774-17.394-6.896
	c3.403-5.428,6.132-11.233,9.497-16.883c2.331-3.915,6.041-6.143,8.464-9.855c2.689-4.119,5.497-8.267,7.48-12.784
	c1.784-4.062,3.107-8.325,5.851-11.879c2.858-3.7,6.506-6.545,9.041-10.54c4.427-6.981,6.65-14.847,9.93-22.25
	c4.174,2.955,9.442,4.029,14.187,5.983c4.879,2.009,9.996,3.219,15.012,4.785c-0.873,2.885-1.728,5.763-3.09,8.47
	c-2.275,4.524-4.359,9.1-6.362,13.742c-0.345,0.8-0.676,1.6-1.017,2.4c-4.627-1.349-9.605-2.902-14.081-2.496
	c-1.192,0.108-1.543,1.792-0.292,2.158c2.572,0.752,5.237,2.609,7.76,3.622c1.529,0.614,3.062,1.078,4.604,1.491
	c-2.521,6.099-4.915,12.228-7.19,18.458c-0.711,1.948,2.161,2.931,3.203,1.351c3.787-5.746,5.984-12.308,8.547-18.665
	c0.46,0.116,0.923,0.234,1.387,0.358c6.457,1.728,12.801,3.444,19.303,4.892c-0.169,0.415-0.333,0.831-0.506,1.245
	c-3.683,8.858-6.97,17.638-10.204,26.655c-7.292-1.88-14.566-3.889-21.794-5.875c-4.839-1.329-9.638-2.724-14.424-4.23
	c-4.618-1.451-11.703-2.609-15.568-5.555c-0.979-0.746-1.967,0.79-1.247,1.616c2.955,3.395,7.633,5.03,11.672,6.772
	c4.699,2.026,9.854,3.516,14.742,5.013c8.208,2.512,16.475,4.95,24.752,7.3c-2.713,7.186-5.481,14.367-6.378,22.014
	c-0.135,1.152,1.575,1.794,2.304,0.954c2.74-3.162,3.892-7.332,5.53-11.139c1.447-3.365,2.758-6.83,4.024-10.291
	c1.574,0.439,3.147,0.883,4.722,1.315c11.398,3.127,22.593,7.585,34.206,9.785c2.065,0.392,4.129,0.803,6.188,1.231
	c-1.508,4.102-2.812,8.26-4.226,12.487c-2.46,7.347-5.123,14.491-7.096,21.985c-0.418,1.587-0.877,3.171-1.354,4.748
	c-0.202,0.629-0.404,1.258-0.621,1.882c-0.789,2.272-1.781,4.58-2.771,6.912c-3.756-1.365-7.492-2.79-11.239-4.22
	c-8.646-3.3-17.267-5.966-26.085-8.645c-3.999-1.215-7.808-2.878-11.893-3.849c-4.348-1.033-8.553-1.606-12.772-3.236
	c-1.078-0.417-1.856,1.404-0.793,1.881c15.634,7.018,32.211,11.629,48.127,18.007c4.201,1.684,8.372,3.481,12.577,5.18
	c-0.906,2.428-1.654,4.872-2.021,7.318c-0.136,0.911,0.655,1.562,1.512,1.162c2.377-1.108,4.06-3.658,5.317-6.608
	c2.988,1.122,6.005,2.159,9.081,3.019c3.249,0.909,6.555,1.518,9.81,2.333c1.508,0.643,3.087,1.141,4.347,1.615
	c5.458,2.057,11.337,4.549,16.972,5.959c0.413,0.103,0.84,0.18,1.265,0.261c0.002,13.454,0.742,26.862,0.806,40.316
	C247.074,447.97,244.99,447.357,242.911,446.842z M170.416,269.499c2.003-3.556,2.868-6.823,3.683-10.561
	c5.623,1.635,11.222,2.65,17.082,3.478c1.178,0.166,2.314,0.354,3.437,0.544c-1.711,4-3.857,8.013-4.98,12.237
	c-2.04,4.267-3.741,8.666-5.46,13.074c-6.934-1.507-13.744-3.344-20.649-4.956c0.123-0.267,0.237-0.54,0.364-0.806
	C165.997,278.117,168.017,273.757,170.416,269.499z M249.537,357.933c-0.193,4.643-0.356,9.299-0.503,13.957
	c-5.669-1.065-11.108-4.441-16.693-5.389c-0.824-0.14-1.466,0.776-0.839,1.441c2.858,3.03,4.82,4.479,8.835,5.946
	c2.72,0.995,5.596,2.442,8.541,3.265c-0.24,8.546-0.411,17.098-0.491,25.617c-0.866-0.172-1.729-0.381-2.582-0.675
	c-2.134-0.738-4.303-1.48-6.494-2.191c-5.991-3.832-12.858-4.937-19.713-6.811c-3.683-1.006-7.302-2.171-10.897-3.409
	c0.558-2.012,1.002-3.925,1.405-5.462c0.765-2.185,1.461-4.401,2.272-6.518c2.72-7.107,5.561-13.876,7.883-21.106
	c1.654-5.151,2.67-10.444,4.081-15.644c2.131,0.477,4.258,0.974,6.372,1.519c1.038,0.268,2.146,0.533,3.284,0.773
	c0.024,0.007,0.046,0.013,0.07,0.02c4.999,1.492,10.004,3.554,15.246,3.821C249.495,350.697,249.687,354.304,249.537,357.933z
	 M251.213,256.652c-0.9,6.539-0.82,13.173-1.106,19.757c-0.096,2.222-0.154,4.442-0.222,6.663
	c-3.943-1.708-8.513-2.406-12.384-3.981c-5.394-2.194-11.34-5.396-17.101-6.442c-0.914-0.166-1.462,0.8-0.879,1.511
	c4.034,4.922,11.526,7.844,17.309,10.407c3.445,1.527,7.13,2.578,10.732,3.635c0.739,0.217,1.459,0.47,2.166,0.682
	c-0.192,9.397-0.202,18.794-0.22,28.21c-0.012,6.582-0.123,13.119-0.399,19.694c-0.071,1.7-0.064,3.394-0.02,5.087
	c-1.586-0.061-3.184-0.222-4.786-0.451c-4.604-1.627-9.391-2.288-14.071-3.67c-1.505-0.444-3.019-0.86-4.537-1.271
	c0.186-0.554,0.367-1.11,0.571-1.66c2.685-7.209,4.35-14.877,7.342-21.939c0.509-1.201-1.187-2.28-1.802-1.053
	c-3.248,6.487-4.982,13.439-8.135,19.968c-0.593,1.228-1.136,2.463-1.657,3.7c-2.01-0.532-4.021-1.062-6.016-1.626
	c-11.259-3.181-22.22-7.385-33.63-10.032c-1.798-0.417-3.594-0.866-5.39-1.309c3.022-8.427,5.913-16.855,9.086-25.243
	c0.368-0.972,0.725-1.949,1.075-2.928c13.245,3.152,26.614,9.464,40.192,9.284c0.773-0.011,1.245-1.233,0.427-1.581
	c-12.491-5.318-25.627-9.697-38.897-12.741c1.391-4.211,2.687-8.46,4.005-12.699c1.927-4.294,3.875-8.61,5.585-13.025
	c4.131,0.674,8.166,1.15,12.745,0.582c0.82-0.102,1.222-1.451,0.218-1.612c-3.937-0.628-7.643-1.778-11.366-2.935
	c1.263-3.074,2.544-6.386,2.769-9.499c0.023-0.046,0.042-0.093,0.065-0.139c0.132-0.263,0.094-0.512-0.021-0.711
	c0.001-0.088,0.015-0.178,0.014-0.265c-0.007-0.407-0.446-0.846-0.881-0.671c-3.28,1.328-4.684,6.173-5.828,10.115
	c-0.832-0.244-1.661-0.494-2.507-0.716c-6.072-1.596-12.245-2.375-18.281-4.138c1.303-4.296,3.361-8.381,5.577-12.274
	c1.952-3.431,4.157-6.082,5.214-9.805c7.115,1.786,14.498,2.857,21.333,4.537c7.53,1.853,14.785,4.225,22.211,6.459
	c2.353,0.709,5.145,1.802,8.011,2.686c3.69,2.658,8.573,4.166,13.664,4.579C251.472,252.08,251.528,254.361,251.213,256.652z
	 M251.546,241.419c-0.167,1.155-0.233,2.302-0.254,3.448c-1.875-0.136-3.619-0.535-5.332-1.022
	c-5.643-1.768-11.387-4.37-16.768-6.557c-7.003-2.847-13.648-5.206-21.064-6.792c-6.61-1.413-13.736-1.866-20.219-3.624
	c-0.285-0.077-0.568-0.165-0.853-0.244c0.462-3.552,0.774-7.076,2.079-10.6c1.747-4.719,4.125-9.449,6.807-13.697
	c0.609-0.964-0.82-2.098-1.595-1.231c-5.837,6.537-10.294,15.109-12.254,23.694c-0.028,0.125-0.069,0.244-0.098,0.368
	c-4.688-1.411-9.365-2.902-14.116-4.116c-1.317-0.337-1.838,1.32-0.869,2.059c4.098,3.124,8.729,5.239,13.6,6.83
	c-2.492,7.454-6.319,14.44-9.272,21.836c-0.07,0.174-0.129,0.351-0.196,0.527c-4.786-1.437-9.675-2.571-14.325-4.423
	c-4.674-1.863-9.773-3.715-14.755-4.995c0.564-1.081,1.158-2.149,1.806-3.195c2.253-3.634,5.154-6.76,7.257-10.473
	c2.413-4.262,3.158-8.759,5.091-13.255c3.893-9.049,12.533-15.3,16.393-24.542c1.308-3.133,2.484-6.281,3.912-9.36
	c2.065,1.192,4.771,2.526,5.277,2.745c4.346,1.891,9.138,3.019,13.729,4.124c3.757,0.904,7.498,2.003,11.313,2.474
	c2.453,0.303,4.84,0.198,7.286,0.54c0.241,0.033,1.12,0.089,2.141,0.159c-0.611,2.311-1.124,4.652-1.721,6.911
	c-1.022,3.865-3.309,8.675-2.466,12.62c0.158,0.742,1.41,0.981,1.729,0.225c3.709-8.772,7.403-17.584,10.496-26.564
	c1.362-3.957,2.639-7.873,4.096-11.867c0.061-0.165,0.123-0.331,0.185-0.497c3.367,0.647,6.734,1.189,10.142,1.869
	c1.802,0.36,3.544,0.725,5.293,0.925c2.264,0.868,4.663,1.399,7.085,1.651c0.201,1.747,0.409,3.483,0.57,5.186
	c0.408,4.371,0.536,8.753,0.694,13.134c-2.204-0.546-4.556-0.768-6.647-1.291c-2.873-0.719-6.777-1.288-9.672-0.64
	c-0.623,0.14-0.951,1.11-0.405,1.535c3.061,2.382,5.859,2.518,9.478,3.67c1.746,0.555,3.308,0.825,5.113,1.218
	c0.896,0.195,1.645,0.433,2.363,0.592c0.044,0.838,0.076,1.676,0.133,2.514C253.589,215.787,253.35,228.99,251.546,241.419z
	 M254.96,98.382c-0.57,5.38-0.712,10.98-0.668,16.398c0.047,5.839-1.505,11.52-1.835,17.288c-0.253,4.43,0.358,8.875,0.544,13.289
	c0.285,6.768-1.784,13.578-2.394,20.362c-0.211,2.352-0.135,4.757,0.052,7.164c-3.357-0.555-6.743-2.032-10.085-2.571
	c-0.462-0.14-0.925-0.281-1.415-0.4c-2.904-0.71-5.844-1.154-8.776-1.684c1.29-3.471,2.381-7.09,2.103-10.625
	c-0.083-1.061-1.594-1.362-1.912-0.259c-0.999,3.469-2.784,6.728-4.57,9.969c-0.11-0.027-0.222-0.045-0.332-0.074
	c-8.19-2.094-16.092-5.453-24.632-5.731c-0.216-0.007-0.338,0.24-0.24,0.419c1.295,2.339,3.877,3.179,6.219,4.244
	c5.223,2.375,10.93,4.316,16.491,5.676c0.027,0.007,0.055,0.012,0.082,0.018c-0.42,0.849-0.821,1.7-1.177,2.56
	c-1.595,3.857-2.42,7.728-4.083,11.505c-0.479,1.091-0.889,2.218-1.254,3.365c-2.571-1.24-5.018-2.295-8.179-2.807
	c-5.059-0.818-10.225-2.393-15.212-3.664c-4.918-1.253-9.576-3.178-14.423-4.537c-0.228-0.064-0.474-0.138-0.728-0.212
	c1.014-1.88,2.116-3.792,3.379-5.44c1.94-2.531,4.613-4.331,6.62-6.824c6.771-8.416,10.428-17.909,14.89-27.673
	c1.92-4.202,4.676-7.88,7.165-11.739c2.114,0.65,4.253,0.94,6.476,1.497c2.143,0.538,4.068,1.403,6.11,2.063
	c-0.072,0.161-0.153,0.318-0.224,0.481c-1.539,3.553-3.318,6.918-4.378,10.616c-1.334,4.655-4.277,8.858-5.303,13.471
	c-0.077,0.349,0.444,0.617,0.61,0.258c1.856-3.997,5.471-6.997,7.571-10.914c1.603-2.991,3.334-5.93,4.664-9.062
	c0.547-1.29,1.131-2.542,1.734-3.779c2.523,0.549,5.112,1.329,7.59,1.531c2.908,0.236,6.425-0.366,9.358-0.764
	c0.539-0.074,0.406-0.818,0-0.966c-4.818-1.753-9.712-2.992-14.602-4.37c0.941-1.768,1.898-3.533,2.852-5.336
	c2.312-4.366,3.317-9.314,5.383-13.763c0.475-1.023-0.871-2.35-1.704-1.315c-2.813,3.494-4.309,7.84-6.478,11.731
	c-1.41,2.531-3.013,4.911-4.497,7.368c-0.28-0.088-0.56-0.17-0.84-0.259c-3.877-1.243-7.738-2.681-11.777-2.801
	c2.639-4.998,4.09-9.788,7.92-14.132c3.182-3.609,7.274-6.558,9.961-10.536c0.519-0.768,0.929-1.555,1.27-2.356
	c0.176,0.082,0.343,0.176,0.528,0.243c1.562,0.579,3.093,1.033,4.633,1.695c2.302,0.99,5.534,1.474,7.91,0.603
	c0.256-0.094,0.4-0.525,0.087-0.661c-0.953-0.417-1.662-2.102-2.615-2.733c-1.334-0.884-2.987-1.634-4.446-2.315
	c-1.244-0.582-2.541-0.777-3.833-1.184c-0.323-0.101-0.627-0.216-0.923-0.332c0.468-2.437,0.766-4.939,1.576-7.422
	c2.626-8.046,8.891-14.281,15.084-20.218c1.339-0.774,2.746-1.286,4.194-1.398c0.396,2.505,0.37,5.389,0.399,7.404
	c0.04,2.876,0.439,5.685,0.516,8.553C255.581,84.484,255.717,91.225,254.96,98.382z M448.49,247.957
	c0.672,3.132,2.993,5.832,4.41,8.664c1.38,2.76,2.179,4.774,4.989,6.245c1.067,0.558,2.241,0.961,3.388,1.406
	c-0.852,0.063-1.707,0.11-2.578,0.081c-4.726-0.16-9.626-1.638-13.795-3.869c-3.471-1.859-3.827-4.655-2.293-8.206
	c0.822-1.905,5.713-5.667,5.755-7.263C448.343,245.991,448.278,246.968,448.49,247.957z M386.453,254.317
	c1.885,1.632,4.41,2.733,6.455,3.952c3.35,1.996,6.985,3.715,10.238,5.827c0.718,0.465,1.595-0.452,1.162-1.161
	c-1.873-3.067-4.861-4.951-7.841-6.851c-2.307-1.47-4.904-3.566-7.575-4.864c3.82-4.541,8.201-8.692,11.764-13.365
	c5.265-6.905,10.78-13.261,15.845-20.326c0.329-0.458,0.782-1.04,1.252-1.669c-0.069,0.496-0.138,0.99-0.205,1.491
	c-0.625,4.681-2.145,9.415-2.51,14.117c-0.281,3.617,0.013,7.19-0.752,10.795c-0.405,1.902-1.028,3.765-1.659,5.624
	c-0.324-0.285-0.654-0.559-1.015-0.765c-0.942-0.535-2.074-0.831-3.094-1.181c-1.249-0.428-2.45-1.01-3.725-1.348
	c-1.095-0.29-2.35-0.26-3.394-0.711c-0.325-0.141-0.859,0.197-0.57,0.571c1.556,2.021,4.001,3.735,6.403,4.624
	c1.518,0.563,2.921,1.243,4.383,1.893c-0.177,0.577-0.348,1.154-0.498,1.734c-1.757,6.77-2.249,13.914-3.406,20.818
	c-0.774,4.618-1.931,10.139-2.153,15.349c-1.12-2.289-2.116-4.636-3.153-7.057c-4.061-9.485-12.467-15.669-17.142-24.888
	c-0.09-0.178-0.169-0.362-0.255-0.541C385.462,255.677,385.953,254.995,386.453,254.317z M335.478,182.056
	c1.428,3.08,2.603,6.227,3.912,9.36c3.861,9.242,12.501,15.492,16.393,24.542c1.934,4.497,2.68,8.995,5.093,13.255
	c2.103,3.713,5.004,6.84,7.256,10.473c0.649,1.046,1.244,2.114,1.806,3.195c-4.981,1.279-10.082,3.132-14.755,4.995
	c-4.65,1.854-9.539,2.986-14.325,4.423c-0.068-0.176-0.126-0.352-0.196-0.527c-2.954-7.396-6.78-14.382-9.272-21.836
	c4.869-1.591,9.503-3.706,13.599-6.83c0.97-0.739,0.45-2.396-0.868-2.059c-4.751,1.214-9.427,2.705-14.116,4.116
	c-0.03-0.123-0.071-0.244-0.099-0.368c-1.959-8.585-6.417-17.158-12.254-23.694c-0.775-0.868-2.203,0.267-1.595,1.231
	c2.682,4.246,5.061,8.978,6.806,13.697c1.307,3.525,1.619,7.048,2.08,10.6c-0.285,0.078-0.567,0.167-0.853,0.244
	c-6.483,1.758-13.61,2.21-20.219,3.624c-7.416,1.587-14.061,3.945-21.064,6.792c-3.414,1.389-6.977,2.939-10.567,4.342
	c-0.212-0.114-0.441-0.197-0.693-0.196c-4.136,0.007-8.018,1.441-12.023,2.467c0.139-7.559,0.633-15.288,0.714-22.97
	c2.758-0.31,5.843-1.544,8.132-1.93c4.715-0.794,8.188-2.261,12.111-4.859c0.921-0.61,0.582-2.072-0.568-2.099
	c-4.263-0.098-9.079,1.174-13.297,1.92c-2.173,0.385-4.358,0.887-6.393,1.714c-0.059-3.089-0.215-6.162-0.517-9.204
	c-0.596-5.96-0.9-12.058-1.014-18.054c-0.069-3.643-0.456-7.326-0.709-11.004c4.776-0.388,10.094-0.83,14.744-2.51
	c0.183-0.037,0.363-0.072,0.547-0.109c3.408-0.681,6.774-1.222,10.142-1.869c0.062,0.166,0.125,0.332,0.185,0.497
	c1.456,3.994,2.733,7.91,4.096,11.867c3.092,8.982,6.787,17.794,10.496,26.564c0.319,0.755,1.57,0.516,1.728-0.225
	c0.843-3.945-1.444-8.755-2.465-12.62c-0.597-2.258-1.111-4.6-1.721-6.911c1.019-0.069,1.9-0.125,2.141-0.159
	c2.446-0.342,4.831-0.237,7.286-0.54c3.814-0.47,7.555-1.57,11.313-2.474c4.589-1.105,9.383-2.234,13.728-4.124
	C330.706,184.581,333.412,183.247,335.478,182.056z M341.583,269.499c2.4,4.258,4.418,8.619,6.524,13.011
	c0.127,0.266,0.241,0.539,0.364,0.806c-6.905,1.612-13.715,3.449-20.648,4.956c-2.121-5.438-4.212-10.865-6.953-16.042
	c-0.853-2.372-1.799-4.702-2.849-6.944c-0.352-0.754-0.717-1.503-1.082-2.25c1.266-0.216,2.548-0.43,3.882-0.618
	c5.858-0.828,11.459-1.843,17.082-3.479C338.715,262.676,339.58,265.943,341.583,269.499z M257.877,168.529
	c0.489-6.55,2.674-12.979,3.17-19.568c0.37-4.931-1.463-9.661-2.413-14.422c-1.283-6.438,0.663-13.262,0.563-19.758
	c-0.108-6.956,0.617-14.1,1.453-21.004c0.849-7.007-0.296-14.539-0.877-21.555c-0.266-3.198-0.163-6.747-0.993-9.913
	c2.245,1.24,3.736,3.352,5.797,4.788c2.152,1.499,3.76,2.7,5.53,4.367c2.884,3.473,5.303,7.226,6.695,11.492
	c0.951,2.912,1.2,5.852,1.841,8.679c-1.821,0.241-3.52,0.919-5.191,1.697c-1.772,0.826-3.348,2.118-5.231,2.689
	c-1.303,0.394-1.117,2.006,0,2.467c1.71,0.707,3.493-0.058,5.1-0.731c1.929-0.808,3.91-1.713,6.003-1.98
	c0.233-0.03,0.439-0.097,0.633-0.18c0.293,0.617,0.629,1.225,1.033,1.822c2.687,3.978,6.779,6.927,9.961,10.536
	c3.83,4.345,5.281,9.135,7.921,14.132c-4.039,0.12-7.899,1.558-11.778,2.801c-0.279,0.09-0.56,0.172-0.84,0.259
	c-1.484-2.457-3.087-4.836-4.496-7.368c-2.167-3.892-3.665-8.238-6.478-11.731c-0.832-1.035-2.178,0.292-1.704,1.315
	c2.066,4.449,3.071,9.397,5.383,13.763c0.954,1.803,1.911,3.568,2.852,5.336c-4.891,1.378-9.784,2.617-14.602,4.37
	c-0.407,0.148-0.539,0.892,0,0.966c2.933,0.399,6.45,1,9.358,0.764c2.479-0.202,5.068-0.981,7.59-1.531
	c0.603,1.237,1.186,2.49,1.734,3.779c1.33,3.132,3.06,6.072,4.664,9.062c2.099,3.916,5.714,6.917,7.571,10.914
	c0.167,0.361,0.687,0.091,0.611-0.258c-1.024-4.614-3.969-8.817-5.303-13.471c-1.061-3.698-2.84-7.063-4.378-10.616
	c-0.071-0.163-0.152-0.319-0.224-0.481c2.041-0.66,3.967-1.525,6.11-2.063c2.222-0.557,4.363-0.847,6.475-1.497
	c2.49,3.858,5.244,7.536,7.165,11.739c4.462,9.764,8.12,19.257,14.891,27.673c2.006,2.495,4.678,4.293,6.619,6.824
	c1.263,1.647,2.365,3.56,3.379,5.44c-0.254,0.076-0.5,0.148-0.728,0.212c-4.846,1.359-9.504,3.285-14.422,4.537
	c-4.987,1.27-10.154,2.846-15.212,3.664c-3.162,0.51-5.61,1.567-8.181,2.807c-0.366-1.146-0.774-2.273-1.254-3.365
	c-1.661-3.776-2.488-7.647-4.084-11.505c-0.356-0.86-0.758-1.713-1.177-2.56c0.027-0.007,0.055-0.012,0.082-0.018
	c5.56-1.36,11.266-3.302,16.489-5.676c2.343-1.065,4.924-1.905,6.219-4.244c0.099-0.178-0.025-0.426-0.24-0.419
	c-8.54,0.278-16.443,3.638-24.633,5.731c-0.11,0.028-0.222,0.046-0.332,0.074c-1.785-3.241-3.571-6.5-4.57-9.969
	c-0.318-1.104-1.829-0.802-1.912,0.259c-0.277,3.535,0.814,7.154,2.103,10.625c-2.933,0.532-5.871,0.974-8.776,1.684
	c-1.269,0.31-2.428,0.7-3.541,1.136c-0.247,0.019-0.492,0.059-0.738,0.083c-3.558-0.139-7.19,0.871-10.784,1.498
	C257.759,171.259,257.776,169.891,257.877,168.529z M257.724,282.312c0.141-3.062,0.392-6.093,0.674-9.117
	c1.775-0.266,3.534-0.758,5.284-1.221c4.352-1.152,8.742-1.664,12.75-3.824c1.31-0.705,0.577-2.476-0.701-2.592
	c-5.32-0.484-11.373,0.739-16.839,2.591c0.218-2.141,0.438-4.283,0.641-6.435c0.217-2.31,0.542-4.676,0.675-6.984
	c0.101-1.768-0.138-3.505-0.366-5.247c3.452-0.531,6.722-1.562,9.504-3.069c4.461-0.705,9.239-2.771,12.941-3.884
	c7.426-2.234,14.681-4.606,22.211-6.459c6.834-1.681,14.218-2.751,21.333-4.537c1.056,3.722,3.261,6.374,5.215,9.805
	c2.216,3.893,4.275,7.978,5.577,12.274c-6.036,1.764-12.21,2.543-18.281,4.138c-1.17,0.307-2.324,0.646-3.473,0.991
	c-0.184-0.396-0.368-0.793-0.546-1.193c-0.231-0.553-0.466-1.105-0.705-1.657c-0.392-0.961-0.757-1.933-1.076-2.927
	c-0.576-1.792-0.412-2.984-2.091-3.659c-0.012-0.023-0.023-0.045-0.034-0.066c-0.398-0.722-1.347-0.291-1.374,0.377
	c-0.21,0.324-0.269,0.756-0.069,1.125c0.504,0.927,0.288,2.042,0.485,3.074c0.4,2.094,1.323,3.982,2.077,5.948
	c-3.583,1.113-7.159,2.202-10.949,2.807c-1.005,0.16-0.603,1.51,0.218,1.612c4.409,0.548,8.311,0.128,12.283-0.504
	c0.788,1.783,1.638,3.526,2.339,5.392c1.993,5.299,3.354,11.419,6.459,16.332c0.415,1.309,0.825,2.62,1.256,3.924
	c-13.271,3.044-26.405,7.422-38.896,12.741c-0.817,0.348-0.345,1.57,0.427,1.581c13.578,0.18,26.947-6.131,40.192-9.284
	c0.35,0.979,0.707,1.956,1.075,2.928c3.172,8.389,6.063,16.817,9.085,25.243c-1.797,0.443-3.591,0.891-5.389,1.309
	c-11.41,2.647-22.372,6.851-33.631,10.032c-1.995,0.564-4.005,1.094-6.016,1.626c-0.521-1.238-1.063-2.473-1.657-3.7
	c-3.153-6.529-4.887-13.481-8.135-19.968c-0.615-1.227-2.31-0.148-1.802,1.053c2.992,7.061,4.658,14.729,7.343,21.939
	c0.205,0.551,0.385,1.106,0.571,1.66c-1.518,0.409-3.033,0.827-4.537,1.271c-1.26,0.371-2.529,0.691-3.8,0.99
	c-2.39-0.916-5.388,0.17-7.736,0.762c-4.112,1.037-8.477,1.046-12.713,1.675c0.127-5.6,0.225-11.203,0.215-16.807
	C257.706,310.402,257.08,296.268,257.724,282.312z M256.645,377.382c3.265-0.58,6.768-1.638,9.738-2.489
	c3.554-1.018,7.884-2.488,10.083-5.589c0.818-1.154-0.529-2.571-1.743-2.268c-5.758,1.437-11.956,3.766-17.979,4.737
	c0.033-1.729,0.062-3.46,0.103-5.188c0.159-6.672,0.371-13.343,0.548-20.015c3.263-0.393,6.514-0.876,9.783-1.085
	c2.248-0.144,5.075-0.711,7.62-1.672c2.263-0.326,4.496-0.827,6.489-1.341c2.114-0.545,4.24-1.042,6.372-1.519
	c1.411,5.201,2.427,10.494,4.081,15.644c2.323,7.23,5.164,13.998,7.884,21.106c0.811,2.117,1.506,4.333,2.27,6.518
	c0.404,1.537,0.847,3.45,1.405,5.462c-3.594,1.238-7.213,2.402-10.897,3.409c-5.413,1.479-10.833,2.48-15.824,4.721
	c-0.223-0.026-0.466-0.012-0.728,0.055c-6.1,1.545-12.757,4.252-19.341,5.079C256.483,394.433,256.522,385.904,256.645,377.382z
	 M445.306,363.112c0.621,0.819,1.243,1.64,1.901,2.438c1.888,2.286,3.844,4.677,6.053,6.664c1.634,1.472,4.089,2.662,4.587,5.017
	c0.786,3.718-2.08,6.285-4.879,7.912c-8.392,4.875-17.318,9.973-26.701,12.595c-5.002,1.398-9.479,3.808-14.259,5.807
	c-4.437,1.856-9.023,2.776-13.351,4.956c-3.572,1.799-6.717,4.087-10.239,5.845c-4.769,2.383-8.921,3.632-14.208,4.471
	c-9.725,1.542-18.488,7.059-27.911,9.93c-5.35,1.629-11.021,3.388-16.569,4.137c-4.591,0.62-9.38,0.268-13.927,1.209
	c-5.012,1.037-9.537,3.591-14.64,4.556c-5.356,1.014-10.764,1.772-16.005,3.315c-5.395,1.589-10.598,3.525-16.067,4.879
	c-3.668,0.908-7.347,2.099-11.024,3.058c-0.001-13.378-1.43-26.654-1.527-40.034c-0.004-0.426-0.002-0.852-0.005-1.278
	c5.449-0.484,11.087-2.186,15.825-4.549c4.052-0.38,7.763-1.892,11.665-3.031c3.958-1.156,8.033-1.8,12.019-2.915
	c3.076-0.86,6.094-1.898,9.081-3.019c1.257,2.95,2.94,5.5,5.316,6.608c0.858,0.4,1.65-0.252,1.512-1.162
	c-0.368-2.446-1.116-4.891-2.021-7.318c4.205-1.7,8.374-3.496,12.576-5.18c15.915-6.379,32.493-10.99,48.127-18.007
	c1.063-0.477,0.285-2.298-0.793-1.881c-4.219,1.631-8.424,2.204-12.772,3.236c-4.086,0.971-7.893,2.633-11.893,3.849
	c-8.818,2.679-17.439,5.344-26.085,8.645c-3.747,1.43-7.484,2.857-11.239,4.22c-0.99-2.332-1.983-4.64-2.772-6.912
	c-0.217-0.624-0.419-1.253-0.62-1.882c-0.477-1.577-0.936-3.162-1.354-4.748c-1.972-7.495-4.636-14.638-7.097-21.985
	c-1.415-4.227-2.718-8.386-4.226-12.487c2.06-0.427,4.124-0.839,6.189-1.231c11.613-2.2,22.807-6.658,34.205-9.785
	c1.574-0.432,3.147-0.876,4.721-1.315c1.266,3.46,2.578,6.926,4.026,10.291c1.638,3.807,2.789,7.978,5.529,11.139
	c0.729,0.84,2.439,0.198,2.304-0.954c-0.897-7.645-3.665-14.828-6.378-22.014c8.278-2.35,16.544-4.788,24.753-7.3
	c4.888-1.497,10.044-2.987,14.742-5.013c4.04-1.742,8.718-3.376,11.673-6.772c0.718-0.826-0.269-2.363-1.247-1.616
	c-3.865,2.948-10.951,4.104-15.568,5.555c-4.788,1.505-9.587,2.901-14.424,4.23c-7.23,1.986-14.504,3.995-21.794,5.875
	c-3.235-9.017-6.521-17.797-10.204-26.655c-0.172-0.414-0.337-0.83-0.506-1.245c6.501-1.448,12.845-3.163,19.303-4.892
	c0.464-0.125,0.926-0.242,1.386-0.358c2.564,6.358,4.761,12.918,8.547,18.665c1.042,1.581,3.914,0.597,3.203-1.351
	c-2.275-6.231-4.67-12.359-7.19-18.458c1.542-0.413,3.075-0.877,4.604-1.491c2.523-1.014,5.189-2.868,7.76-3.622
	c1.251-0.367,0.9-2.05-0.292-2.158c-4.477-0.407-9.454,1.145-14.081,2.496c-0.339-0.8-0.671-1.6-1.016-2.4
	c-2.004-4.642-4.087-9.218-6.362-13.742c-1.361-2.707-2.216-5.584-3.09-8.47c5.015-1.567,10.133-2.776,15.012-4.785
	c4.745-1.953,10.012-3.028,14.186-5.983c3.281,7.403,5.503,15.269,9.93,22.25c2.535,3.995,6.183,6.838,9.041,10.54
	c2.744,3.553,4.067,7.815,5.851,11.879c1.982,4.518,4.79,8.666,7.48,12.784c2.423,3.712,6.133,5.94,8.464,9.855
	c3.365,5.65,6.094,11.454,9.497,16.883c-5.998,1.122-12.338,4.903-17.393,6.896c-4.478,1.765-8.914,3.489-13.429,5.026
	c-0.152-0.292-0.318-0.576-0.468-0.869c-3.138-6.154-5.18-13.616-10.349-18.367c-0.153-0.141-0.379,0.037-0.284,0.22
	c1.894,3.607,2.298,8.311,3.768,12.162c1.051,2.755,2.215,5.451,3.476,8.113c-2.173,0.672-4.371,1.295-6.61,1.843
	c-4.607,1.126-8.807,2.787-13.317,4.182c-4.575,1.416-9.322,2.194-13.863,3.767c-8.895,3.079-17.858,4.913-26.377,9.023
	c-0.726,0.351-0.596,1.684,0.236,1.805c4.149,0.603,8.628-0.822,12.77-1.386c4.464-0.608,8.636-1.568,12.89-3.061
	c4.669-1.639,9.321-2.829,14.098-4.126c4.547-1.234,8.756-3.238,13.354-4.335c3.094-0.738,6.197-1.556,9.275-2.466
	c2.254,4.885,4.421,9.81,6.845,14.608c1.989,3.933,4.042,7.714,6.45,11.284c0.228,0.338,0.434,0.687,0.652,1.031
	c-4.572,1.85-8.908,4.185-13.564,6.035c-6.908,2.744-13.711,5.835-20.88,7.861c-6.43,1.816-11.761,4.128-17.777,7.067
	c-5.705,2.788-11.882,4.488-17.677,7.127c-6.798,3.094-13.989,4.709-20.979,7.224c-5.284,1.9-12.199,2.337-16.793,5.659
	c-1.074,0.776-0.154,2.441,1.053,1.802c2.998-1.589,7.597-1.136,10.951-1.705c3.413-0.58,6.575-1.805,9.888-2.763
	c6.209-1.794,12.355-3.553,18.372-5.953c5.972-2.381,12.211-3.8,18.076-6.446c2.965-1.338,5.856-2.893,8.829-4.194
	c3.357-1.468,7.169-1.921,10.657-3.058c11.262-3.67,21.707-9.346,32.599-13.725c1.747,3.423,3.373,6.904,5.647,10.026
	c0.668,0.917,2.002,0.582,2.099-0.568c0.229-2.707-1.068-4.852-2.082-7.308c-0.506-1.225-0.986-2.491-1.467-3.762
	c0.832-0.301,1.669-0.593,2.509-0.873c5.723-1.911,11.323-4.612,16.787-7.145c3.287-1.524,6.565-3.2,9.817-4.773
	C441.846,365.796,443.497,364.379,445.306,363.112z M443.587,360.774c-4.869,1.251-9.782,3.935-14.29,5.913
	c-6.54,2.867-13.27,5.805-20.158,7.702c-0.148,0.04-0.292,0.093-0.439,0.135c-0.246-0.566-0.485-1.138-0.749-1.684
	c-1.856-3.856-4.403-7.711-6.493-11.711c-2.328-4.46-4.931-8.761-7.416-13.128c3.457-1.137,6.867-2.4,10.18-3.836
	c3.926-1.702,7.683-3.366,11.442-5.377c2.542-1.361,5.794-3.026,8.791-4.277c1.094,1.517,2.27,2.993,3.562,4.413
	C434.146,345.664,438.398,353.484,443.587,360.774z M496.603,315.288c-3.184,1.114-6.52,1.854-9.758,2.779
	c-6.405,1.832-12.647,3.969-18.945,6.089c-6.688,2.253-13.346,4.917-20.161,6.773c-3.787,1.033-8.4,1.479-12.365,2.67
	c-0.322-0.357-0.64-0.717-0.965-1.073c-2.661-2.925-4.741-6.219-6.635-9.633c4.322-0.801,8.679-2.213,12.569-3.741
	c4.051-1.59,6.811-3.483,11.281-3.746c1.275-0.075,2.563,0.019,3.813-0.1c5.939-0.567,11.531-1.672,17.147-3.683
	c2.695-0.965,5.453-1.844,8.118-2.863c2.158-0.824,3.234-2.21,5.141-3.475c0.634-0.42,0.433-1.53-0.408-1.504
	c-4.553,0.144-9.709,2.242-13.994,3.693c-5.191,1.759-10.602,1.969-15.697,3.711c-4.661,1.593-9.657,2.815-14.517,3.759
	c-5.228,1.015-10.877,1.527-16.087,2.997c-2.169-4.168-4.345-8.341-7.21-12.093c-1.537-2.012-3.357-3.337-5.042-5.132
	c-0.987-1.053-1.79-2.356-2.566-3.658c0.152-0.224,0.263-0.49,0.31-0.805c0.704-4.72,1.284-9.474,1.805-14.239
	c0.866-0.114,1.79-0.402,3.02-0.726c3.601-0.947,7.179-1.761,10.82-2.501c5.619-1.142,10.131-2.712,15.064-5.652
	c0.225-0.135,0.112-0.445-0.126-0.466c-5.795-0.514-12.312,1.622-18.083,2.397c-2.961,0.398-6.858,0.788-10.166,1.878
	c0.337-3.314,0.663-6.629,0.98-9.941c2.728,0.164,6.139-1.329,8.391-2.173c3.051-1.143,7.461-2.223,9.702-4.672
	c0.329-0.36,0.088-0.891-0.383-0.926c-3.654-0.268-6.362,0.731-9.782,1.892c-2.393,0.812-5.082,0.929-7.521,1.664
	c0.339-3.497,0.688-6.987,1.07-10.459c1.501-13.645,5.396-26.697,5.735-40.402c0.222,0.278,0.439,0.559,0.669,0.831
	c2.286,3.206,3.881,6.243,6.709,9.065c2.749,2.743,4.982,5.832,7.365,8.747c-0.393,0.034-0.8,0.107-1.256,0.273
	c-1.975,0.723-3.876,1.499-5.917,2.009c-1.268,0.317-2.302,0.661-3.159,1.715c-0.506,0.622-0.291,1.377,0.441,1.673
	c2.588,1.048,5.637-0.013,8.064-0.981c1.545-0.616,3.041-0.849,4.618-1.259c0.062-0.017,0.119-0.043,0.177-0.062
	c1.544,1.594,3.229,3.058,5.202,4.278c1.216,0.752,2.205,1.269,2.933,2.027c-5.439,4.738-10.5,9.918-8.782,18.112
	c0.673,3.214,2.286,4.153,5.182,5.536c0.688,0.329,1.494,0.618,2.347,0.895c2.623,2.615,6.564,3.455,10.405,3.723
	c2.695,0.188,7.006,0.377,10.196-0.741c0.811,1.006,1.513,2.105,2.346,3.155c3.608,4.542,7.014,9.238,10.481,13.881
	c-5.366,1.251-10.413,4.367-15.818,5.28c-3.213,0.542-7.404,0.9-10.364,2.308c-2.759,1.313-5.275,3.164-8.304,4.023
	c-0.462,0.131-0.356,0.807,0.11,0.819c2.883,0.079,5.717-0.354,8.401-1.292c4.332-1.514,8.551-1.626,13.054-1.837
	c3.679-0.172,5.835-1.497,8.97-3.122c2.37-1.231,4.341-1.91,6.307-3.054c1.794,2.358,3.616,4.693,5.508,6.969
	c2.873,3.457,5.237,7.27,8.187,10.676c1.889,2.181,4.966,4.574,7.105,7.139C500.454,313.621,498.606,314.587,496.603,315.288z"/>
<g>
</g>
<g>
</g>
<g>
</g>
<g>
</g>
<g>
</g>
<g>
</g>
<g>
</g>
<g>
</g>
<g>
</g>
<g>
</g>
<g>
</g>
<g>
</g>
<g>
</g>
<g>
</g>
<g>
</g>
</svg>
