<?xml version="1.0" encoding="iso-8859-1"?>
<!-- Generator: Adobe Illustrator 19.0.0, SVG Export Plug-In . SVG Version: 6.00 Build 0)  -->
<svg version="1.1" id="Layer_1" xmlns="http://www.w3.org/2000/svg" xmlns:xlink="http://www.w3.org/1999/xlink" x="0px" y="0px"
	 viewBox="0 0 511.995 511.995" style="enable-background:new 0 0 511.995 511.995;" xml:space="preserve">
<path style="fill:#88D1BA;" d="M199.261,135.426c-2.594-0.726-4.782-2.931-5.321-5.588c-0.76-3.752,1.47-7.714,0.396-11.389
	c-0.678-2.319-2.542-4.057-4.05-5.947c-4.646-5.822-2.272-15.817,1.264-21.626c1.053-1.729,0.866-4.996-0.018-6.991
	c-4.388-9.901-1.708-19.172,2.353-28.577c1.672-3.872,2.403-7.55,4.521-11.322c1.459-2.597,3.379-5.249,4.496-8.007
	c0.953-2.353,0.895-4.41,3.126-6.17c1.4-1.103,3.036-2.062,3.828-3.659c0.587-1.183,0.622-2.551,0.872-3.848
	c0.839-4.352,3.495-6.554,7.288-8.083c4.758-1.918,8.839-4.763,13.884-6.184c17.784-5.014,37.747-3.828,54.486,4.08
	c3.622,1.712,7.89,3.7,9.935,6.821c8.857,13.524,17.649,27.178,25.063,41.51c2.381,4.602,4.08,11.634,1.597,16.404
	c-1.209,2.322-2.803,4.609-2.857,7.227c-0.067,3.364,2.395,6.157,3.918,9.158c2.558,5.041,2.338,13.2-1.739,17.437
	c-1.997,2.077-4.529,3.839-5.535,6.54c-0.702,1.883-0.55,3.973-0.233,5.958c0.318,1.985,0.795,3.968,0.712,5.976
	c-0.083,2.008-0.83,4.11-2.475,5.266c-4.933,3.467-10.853-3.269-11.727-7.689c-0.371-1.877-1.279-4.069-3.175-4.316
	c-1.129-0.147-2.197,0.485-3.16,1.092c-2.203,1.391-4.4,2.79-6.592,4.197c-1.861,1.195-3.82,2.509-4.705,4.537
	c-0.931,2.13-0.456,4.665,0.68,6.693c2.885,5.157,6.15,4.978,11.384,6.173c28.24,6.449,48.869,25.024,68.768,44.235
	c8.337,8.048,12.374,19.35,12.829,31.037c0.674,17.268,4.669,33.781,8.912,50.382c1.991,7.793,2.124,16.061,3.102,24.114
	c1.269,10.439,4.046,13.528,14.959,15.096c12.62,1.814,23.763,8.604,37.005,9.218c8.827,0.41,14.745,11.63,14.747,22.752
	c0.001,5.669-0.246,13.429-4.344,17.751c-1.556,1.641-3.364,3.063-4.666,4.912c-3.18,4.516-0.409,6.86,2.135,10.48
	c1.926,2.742,2.063,5.855,3.095,8.908c1.024,3.03,2.868,3.851,5.927,4.385c4.683,0.818,9.41,1.222,14.048,2.318
	c6.055,1.43,10.087,5.485,10.886,11.78c0.536,4.229,0.034,9.586-4.21,11.876c-1.926,1.038-4.162,1.29-6.329,1.597
	c-2.166,0.307-4.41,0.726-6.172,2.022c-3.566,2.622-3.941,7.823-3.164,12.18c0.986,5.524,2.971,10.951,3.736,16.482
	c1.026,7.405,0.764,15.165,1.091,22.631c0.5,11.425-5.376,18.486-15.716,21.961c-6.922,2.327-13.996,4.864-21.181,5.635
	c-9.497,1.019-18.995,2.022-28.496,3.004c-8.258,0.854-17.276,2.885-25.478,1.684c-8.728-1.28-18.736,0.528-27.557,0.885
	c-9.619,0.388-19.239,0.743-28.861,1.062c-38.486,1.279-76.991,2.002-115.497,2.171c-11.744,0.051-23.488,0.045-35.234,0
	c-11.134-0.043-22.478-1.718-33.595-2.594c-17.861-1.407-35.656-3.676-53.471-5.639c-4.041-0.446-8.113-0.963-12.053-1.926
	c-25.066-6.127-28.556-10.855-28.207-37.073c0.08-5.948,0.081-11.896,0.069-17.845c-0.005-2.464-0.315-4.764-0.509-7.182
	c-0.222-2.744,0.772-5.36,0.729-8.119c-0.044-2.837-0.978-5.786-3.108-7.662c-2.574-2.267-6.359-2.588-9.176-4.545
	c-9.035-6.276-1.4-20.046,7.034-22.336c5.425-1.473,11.137-1.893,17.359-2.878c0.79-0.125,2.485-5.844,2.588-6.623
	c0.365-2.741,0.238-4.347,2.043-6.815c1.503-2.054,3.269-4.214,3.218-6.759c-0.054-2.755-2.201-4.934-3.856-7.137
	c-3.787-5.039-4.072-10.364-5.164-16.275c-1.027-5.56,0.355-11.142,3.873-15.672c3.309-4.26,8.962-10.458,12.737-9.926
	c4.711,0.664,9.373-0.187,13.842-1.689c4.322-1.452,6.742-5.555,10.674-7.855c2.987-1.746,6.625-2.664,9.95-1.707
	c1.881,0.541,3.695,1.668,5.637,1.43c2.433-0.298,4.056-2.578,5.366-4.649c1.416-2.24,2.856-4.536,3.435-7.121
	c0.643-2.869,0.19-5.799,0.307-8.702c0.121-2.975,1.443-5.107,2.127-7.84c1.618-6.461,2.596-13.13,4.18-19.621
	c3.217-13.194,6.661-26.494,6.727-40.166c0.071-14.797,6.753-28.453,19.857-37.585c2.667-1.859,5.546-3.714,7.53-6.206
	c14.507-18.218,34.996-25.83,56.286-31.927c5.14-1.472,7.522-3.378,9.375-8.61c0.726-2.051,0.807-4.439-0.3-6.312
	c-1.605-2.716-4.875-3.468-7.43-4.954c-2.656-1.544-4.807-6.13-8.401-5.262c-1.837,0.445-2.822,2.493-3.014,4.374
	c-0.192,1.88,0.142,3.806-0.252,5.654c-0.692,3.246-3.848,5.788-7.168,5.77C200.441,135.677,199.841,135.587,199.261,135.426z"/>
<g>
	<path style="fill:#6FB29C;" d="M186.345,153.796c-9.084,4.704-15.698,10.429-21.338,19.124c-2.858,4.406-5.015,4.472-9.481,6.506
		c-4.221,1.923-7.338,5.644-9.551,9.561c-6.827,12.085-12.071,26.41-13.925,40.262c-1.501,11.219-1.155,22.515-4.474,33.482
		c-1.121,3.706-11.225,36.308-2.582,35.867c-2.112,1.634-7.44,6.494-6.972,9.611c0.318,2.126,2.991,2.387,4.853,3.171
		c4.466,1.877,8.282,4.587,12.767,6.344c6.356,2.49,13.493,7.216,20.621,6.947c2.313-0.087,4.977-1.615,7.135-2.398
		c2.662-0.965,5.467-0.785,8.271-0.77c6.788,0.035,12.258,4.717,18.098,7.738c7.645,3.956,16.988,4.137,25.368,4.723
		c4.061,0.284,8.651,0.165,12.669-0.191c1.351-0.12,2.746-0.132,3.932-0.849c1.448-0.876,2.544-1.934,2.31-3.888
		c-0.489-4.069-5.755-4.856-8.782-5.785c-3.604-1.107-6.847-2.235-10.614-2.801c-2.583-0.388-8.024-1.004-8.881-4.27
		c-1.059-4.031,10.471-11.737,7.834-14.722c-3.357-3.799-17.362,4.632-21.715,4.682c-3.178,0.037-6.734-1.924-5.499-5.672
		c0.671-2.034,4.9-5.441,6.646-6.667c-0.595-2.504-3.265-2.466-5.332-2.159c-5.277,0.785-10.341,3.325-15.7,4.225
		c-4.002,0.672-9.822,1.697-7.997-4.052c0.846-2.666,3.989-5.056,6.138-6.674c0.427-0.322,3.02-1.605,3.222-2.322
		c1.456-5.163-13.367-1.109-15.942-3.316c-3.802-3.26,0.389-8.345,3.092-10.957c5.725-5.533,11.276-9.575,13.543-17.635
		c2.21-7.858-3.287-14.116-4.936-21.604c-1.888-8.566-0.953-17.602,1.882-25.875c6.248-18.232,21.463-30.291,35.959-41.988
		c4.159-3.355,13.307-11.508,5.139-14.839c-3.48-1.419-6.297-0.956-9.792,0.282c-2.081,0.737-3.16,0.936-5.178,1.381
		C193.179,149.141,189.922,151.363,186.345,153.796z"/>
	<path style="fill:#6FB29C;" d="M190.123,195.649c-3.322,3.327-4.044,11.115-4.89,15.432c-2.09,10.663-2.121,21.421-0.664,32.177
		c1.168,8.624,4.711,17.011,9.987,23.967c1.806,2.382,7.54,8.917,10.275,5.103c1.227-1.713-0.423-5.913-0.829-7.676
		c-1.162-5.052-2.776-9.921-4.273-14.88c-3.206-10.622-5.506-21.337-4.414-32.513c0.806-8.245,4.325-16.562,3.183-24.922
		C197.372,184.101,192.911,188.544,190.123,195.649z"/>
	<path style="fill:#6FB29C;" d="M231.086,133.11c0.158,0.818,0.093,1.659-0.256,2.521c-0.838,2.065-3.609,2.98-5.333,4.088
		c-2.754,1.771-5.045,3.805-6.153,6.98c-1.368,3.921-1.243,8.559-1.984,12.645c-0.808,4.461-1.85,8.876-2.896,13.286
		c-2.032,8.572-4.164,17.174-4.816,25.988c-0.98,13.217-3.107,27.315,0.59,40.369c1.814,6.405,3.535,12.228,8.434,16.829
		c3.505,3.291,7.621,6.157,11.646,8.741c2.967,1.904,5.755,4.809,8.954,6.329c7.084,3.363,15.865,1.585,20.358-4.82
		c4.363-6.221,2.464-14.193-4.487-17.812c-5.824-3.032-13.175-2.65-18.824-6.138c-3.011-1.859-14.299-9.476-12.74-13.995
		c0.579-1.678,2.425-1.244,3.572-2.099c2.291-1.708,3.872-5.899,4.85-8.515c3.529-9.455,2.436-20.553,3.414-30.442
		c0.658-6.655,1.214-13.066,4.961-18.864c3.624-5.609,9.558-7.577,15.368-10.34c5.872-2.793,12.472-4.062,18.142-7.113
		c2.812-1.512,6.915-3.275,8.396-6.143c2.275-4.407,2.615-11.731-3.425-11.967c-10.738-0.42-19.639,4.33-29.679-1.697
		c-6.335-3.804-11.011-10.042-14.862-16.236c-2.871-4.614-3.08-14.945-0.028-19.476c1.435-2.131,4.285-4.139,6.326-5.743
		c3.348-2.632,6.225-4.617,5.29-9.362c-0.494-2.504-2.149-4.529-2.727-6.975c-0.66-2.801-0.252-6.792,0.29-9.6
		c1.607-8.314,6.858-12.979,13.909-16.875c5.543-3.063,17.61-12.496,5.08-15.372c-4.785-1.098-10.557,0.031-15.314,0.636
		c-6.896,0.876-14.811,2.476-20.681,6.346c-12.402,8.176-17.854,19.152-21.537,33.276c-2.732,10.477,0.154,23.06,3.304,33.147
		c2.154,6.897,2.951,12.158,9.055,16.753C220.416,123.812,230.098,127.997,231.086,133.11z"/>
	<path style="fill:#6FB29C;" d="M313.196,193.48c-0.122,0.486-0.229,1.027-0.315,1.626c-0.37,2.582,0.893,2.637,1.849,4.742
		c2.108,4.64,0.5,11.731,0.967,16.736c0.914,9.79,1.177,20.172-1.777,29.671c-2.884,9.274-9.541,16.899-12.456,26.007
		c-1.28,4,1.984,9.526,6.623,7.37c3.014-1.401,5.797-6.991,7.326-9.639c2.453-4.249,4.356-8.929,6.039-13.535
		c4.025-11.017,5.859-23.692,6.127-35.355c0.185-8.074-0.606-17.598-4.242-24.917C320.833,191.147,315.042,186.184,313.196,193.48z"
		/>
	<path style="fill:#6FB29C;" d="M382.822,316.627c4.002-2.585,17.126-7.153,10.981-13.307c-1.556-1.559-4.063-2.306-4.89-4.549
		c-1.297-3.521,2.126-7.28,2.082-10.888c-0.069-5.598-1.596-11.046-2.861-16.458c-1.444-6.178-3.865-12.094-5.333-18.233
		c-0.598-2.498-1.352-5.037-1.855-7.542c-0.167-0.83,0.038-5.698-0.475-6.115c-4.624-3.761-8.446,19.813-9.218,21.905
		c-2.06,5.581-5.552,13.052-11.15,15.859c-3.556,1.783-5.208,0.419-8.179-1.359c-3.907-2.338-9.575-4.042-14.13-3.866
		c-2.597,0.102-9.352,0.976-8.313,5.042c0.691,2.7,6.21,4.968,8.277,5.774c4.798,1.869,9.33,2.782,13.674,5.753
		c1.798,1.23,6.318,3.638,5.363,6.522c-0.939,2.839-4.02,1.038-6.209,0.639c-6.378-1.166-13.012-1.794-19.447-2.755
		c-3.123-0.467-14.166-1.929-16.401,2.011c-1.515,2.671,3.4,3.88,5.314,4.58c5.054,1.848,10.327,2.181,13.375,7.271
		c4.954,8.274-5.742,5.396-9.645,3.58c-4.369-2.033-9.018-3.221-13.424-5.161c-1.608-0.708-8.798-4.993-11.036-2.929
		c-2.842,2.621,4.796,9.225,3.571,12.915c-1.706,5.14-12.285,6.444-16.41,8.205c-4.494,1.919-7.051,5.447-0.543,7.015
		c4.934,1.188,10.183-0.402,15.067-1.068c4.99-0.681,9.766-0.795,14.731-1.806c6.263-1.276,12.5-0.492,18.417-3.273
		c3.111-1.462,6.964-4.538,10.428-4.939c2.817-0.326,8.576,0.47,11.251,1.599c6.629,2.799,14.672,5.054,21.176,0.595
		C379.134,320.185,380.633,318.042,382.822,316.627z"/>
	<path style="fill:#6FB29C;" d="M302.023,209.891c-3.483,4.022-8.269,4.793-13.557,3.929c-6.249-1.023-11.798-5.826-17.897-6.946
		c-4.943-0.909-7.214,2.771-5.837,7.031c1.354,4.189,4.117,6.634,7.001,9.662c5.01,5.262,12.419,6.677,19.685,6.977
		c4.061,0.168,7.365,0.257,10.311-2.575C305.753,224.101,305.507,214.877,302.023,209.891z"/>
	<path style="fill:#6FB29C;" d="M257.263,102.059c-4.104,0.227-4.835-7.018-8.713-7.257c-2.684-0.165-3.18,2.086-2.338,4.286
		C248.043,103.874,252.085,105.194,257.263,102.059z"/>
	<path style="fill:#6FB29C;" d="M208.725,41.605c-9.099,9.785-11.703,25.767-11.335,38.688c0.119,4.164-0.669,7.522-1.171,11.633
		c-0.738,6.033,0.686,9.667,2.043,15.445c1.532,6.524,7.642,12.792,6.416,19.786c-0.556,3.174-6.113,11.683-8.899,5.162
		c-2.404-5.623,2.083-11.873-1.226-17.437c-1.656-2.784-3.734-3.801-4.952-7.05c-1.379-3.679-1.525-8.255-0.156-12.088
		c1.696-4.754,3.39-8.57,2.871-13.799c-0.376-3.78-1.14-7.528-1.318-11.302c-0.539-11.429,4.308-26.047,11.892-34.853
		c6.05-7.024,15.685-12.873,24.837-14.528c7.307-1.321,6.03,2.397,1.155,5.977C220.631,33.294,212.097,38.613,208.725,41.605z"/>
	<path style="fill:#6FB29C;" d="M299.989,55.265c-2.181-2.601-9.649-13.299-5.184-15.678c6.544-3.487,14.067,11.805,15.647,15.886
		c3.922,10.128,6.705,20.255,5.834,31.197c-0.547,6.88-1.658,13.819-3.082,20.527c-0.915,4.309-0.718,9.011-0.716,13.435
		c0,3.314,1.531,9.044-1.156,11.602c-2.618,2.493-6.092,0.38-7.796-2.225c-3.242-4.959-4.387-10.684-1.632-16.482
		c2.285-4.81,5.663-10.243,7.017-15.449c1.118-4.301,0.901-9.012,0.727-13.373c-0.187-4.69-0.622-8.209-2.086-12.717
		C305.466,65.548,305.235,57.509,299.989,55.265z"/>
	<path style="fill:#6FB29C;" d="M134.318,320.048c-4.66-1.991-8.641-4.641-13.094-6.961c-5.036-2.623-12.206-5.805-18.071-6.188
		c-5.165-0.338-5.871,4.407-8.947,7.647c-3.593,3.783-8.608,3.46-13.241,2.711c-20.609-3.326-30.328,24.001-21.362,39.718
		c10.144,17.782,31.81,12.786,48.831,14.272c8.77,0.765,17.26,1.204,25.931,2.694c7.746,1.331,15.616,2.411,23.41,3.347
		c6.552,0.786,13.088,1.441,19.69,1.735c6.021,0.268,11.93,1.209,17.944,1.412c12.784,0.432,25.515,1.459,38.29,1.825
		c8.172,0.234,16.605,1.101,24.744,0.718c9.67-0.454,19.751-1.012,29.202-2.762c9.761-1.808,20.672-0.682,30.636-1.617
		c8.193-0.768,16.301-0.268,24.464-1.586c9.339-1.508,18.786-2.17,28.23-2.563c7.934-0.331,17.981,1.133,25.443-1.641
		c14.959-5.561,32.035,1.645,46.853-5.687c4.992-2.47,8.278-7.07,11.28-11.832c2.4-3.809,3.408-12.388-2.519-14.005
		c-1.449,4.694-12.187,19.556-17.757,13.732c-1.335-1.396,3.363-19.257-3.489-14.588c-1.192,0.812-1.613,5.066-2.073,6.287
		c-1.096,2.907-2.371,4.935-4.688,7.029c-1.936,1.75-6.934,6.592-9.727,5.375c-2.757-1.203-2.967-7.351-2.972-9.809
		c-0.01-4.155,1.182-6.826-0.698-10.986c-1.394-3.084-5.763-9.797-9.706-9.901c-1.937,3.362-0.531,9.847-1.57,13.691
		c-1.305,4.829-4.351,12.399-9.044,14.95c-11.307,6.145-7.137-13.746-10.945-16.986c-1.728-1.471-3.125-1.315-4.127,0.416
		c-0.764,1.321-0.178,3.593-0.234,5.08c-0.118,3.079-0.448,5.544-1.908,8.323c-1.615,3.074-4.94,7.757-9.09,6.467
		c-4.181-1.298-3.888-6.134-3.196-9.452c0.965-4.619,4.123-9.802-0.224-13.69c-1.697-1.517-5.234-3.104-6.805-0.967
		c-0.883,1.2-0.288,4.303-0.354,5.579c-0.148,2.836-0.374,5.752-1.225,8.478c-1.713,5.491-5.615,13.428-11.073,16.09
		c-5.192,2.529-15.381,0.981-18.807-3.979c-6.072-8.788,4.112-16.673,4.361-25.056c-5.709-0.513-13.618,9.307-15.2,13.849
		c-1.043,2.995-0.28,5.844-0.734,8.861c-0.485,3.223-2.323,5.72-4.357,8.156c-2.394,2.868-4.983,5.168-8.701,3.097
		c-3.177-1.77-4.085-4.619-3.93-7.987c0.147-3.183,0.839-5.546-2.34-7.555c-3.286-2.076-6.693-0.723-8.888,2.197
		c-4.605,6.119-7.572,14.163-16.224,15.228c-4.214,0.519-8.7-0.08-12.921-0.212c-3.186-0.1-6.759,1.171-9.835,0.67
		c-11.802-1.925-4.81-18.089-12.583-22.805c-7.602-4.614-7.498,9.199-9.921,13.167c-2.719,4.452-18.601,14.1-22.43,6.525
		c-1.664-3.292,3.865-11.617,4.525-15.062c0.474-2.473-0.012-9.333-3.365-10.287c-3.371-0.96-5.578,9.492-7.149,11.787
		c-2.017,2.945-9.093,10.09-13.548,7.245c-4.029-2.572-0.192-10.155-4.094-13.669c-3.186-2.871-6.187-0.113-8.135,2.815
		c-3.7,5.56-5.169,10.687-12.069,13.135c-7.198,2.555-12.86,0.184-15.476-7.217c-1.416-4.007,1.64-12.163-2.507-14.496
		c-4.756-2.677-10.191,6.71-13.64,8.814c-4.33,2.64-11.503,7.024-16.737,5.003c-7.168-2.769-7.831-12.257-4.318-17.985
		c3.281-5.35,10.081-8.956,15.904-10.744c5.251-1.613,10.722-0.893,16.073-1.985c1.724-0.351,5.811-1.4,6.28-3.594
		C140.901,321.814,137.009,319.666,134.318,320.048z"/>
	<path style="fill:#6FB29C;" d="M247.691,310.042c-1.347,0.195-2.697,0.43-4.067,0.705c-4.225,0.85-12.347,0.271-14.874,4.625
		c-1.809,3.114,0.089,6.159,2.684,7.362c2.343,1.087,5.567,0.983,8.078,1.237c2.926,0.295,5.791,1.183,8.736,1.288
		c6.101,0.217,12.434-0.209,18.591-0.271c3.932-0.039,7.76-0.607,11.486-1.845c4.868-1.618,10.629-7.244,3.063-10.303
		c-7.565-3.059-17.794-3.76-25.886-3.486C252.824,309.444,250.262,309.671,247.691,310.042z"/>
</g>
<path style="fill:#94A7B2;" d="M264.066,380.548c-2.714-0.164-5.423-0.131-8.539-0.015c-8.687,0.323-17.377,0.565-26.059,1.012
	c-12.888,0.664-25.72-0.375-38.548-1.565c-10.845-1.007-21.78-0.66-32.482-2.894c-8.357-1.745-16.872-3.408-25.363-4.387
	c-10.638-1.227-21.428-1.858-32.096-2.917c-9.013-0.895-18.602,0.164-27.489,1.871c-3.789,0.727-8.745,2.011-11.231,5.049
	c-2.034,2.486-2.67,5.523-3.793,8.394c-0.895,2.288-1.32,3.054-3.576,3.56c-1.339,0.3-2.852-0.173-4.236,0.081
	c-2.237,0.41-4.265,1.656-6.555,1.925c-5.038,0.595-12.892-0.059-15.3,5.387c-2.155,4.873-2.181,12.903,1.493,16.706
	c2.987,3.093,5.442,2.442,9.01,4.062c7.294,3.31,8.292,12.636,8.135,20.291c-0.138,6.759-1.237,13.547-1.756,20.274
	c-0.507,6.56-2.584,15.465,0.145,21.785c4.008,9.285,19.901,10.647,28.355,12.334c4.055,0.809,8.642,1.646,12.55,2.912
	c3.738,1.211,6.87,3.32,10.751,4.099c15.283,3.066,30.91,2.986,46.399,4.013c8.608,0.571,17.114-0.862,25.749-0.097
	c9.294,0.824,18.619-0.12,27.872,0.7c9.182,0.814,17.518,0.273,26.68-0.229c12.115-0.664,24.287,1.743,36.341,1.723
	c11.391-0.018,22.812-0.732,34.207-0.599c18.678,0.217,37.267-1.844,55.814-3.791c8.024-0.843,15.516-1.917,23.417-0.689
	c8.493,1.319,18.117-1.597,26.572-2.518c6.626-0.721,13.254,0,19.802-1.291c5.71-1.125,11.329-3.414,17-4.805
	c12.745-3.126,28.749-6.819,28.012-22.901c-0.359-7.829-0.536-15.623-0.556-23.479c-0.022-8.869-2.615-25.079,8.101-29.195
	c4.454-1.711,6.821-0.647,8.468-5.604c1.543-4.643,3.681-10.919,0.948-15.542c-2.694-4.556-11.508-6.824-16.359-7.529
	c-3.553-0.516-10.256,0.901-13.401-1.507c-1.954-1.498-2.23-4.781-2.905-6.994c-0.637-2.09-1.626-5.856-3.193-7.266
	c-1.683-1.514-5.196-1.628-7.256-1.748c-17.354-1.005-34.785,3.932-51.934,5.524c-14.66,1.361-29.796,5.049-44.548,4.297
	c-5.756-0.294-11.542,0.195-17.313,0.34c-9.577,0.241-19.152,0.816-28.673,1.882c-8.714,0.976-16.864,1.868-25.672,0.212
	C268.564,380.952,266.313,380.682,264.066,380.548z"/>
<g>
	<path style="fill:#81929B;" d="M480.212,402.499c-0.415,0.04-0.999,0.191-1.882,0.309c-4.575,0.615-8.914,1.891-13.582,2.079
		c-13.662,0.554-27.14,1.477-40.781,2.582c-37.521,3.04-75.308,7.255-112.983,7.626c-17.824,0.175-35.648,0.753-53.449-0.566
		c-15.342-1.136-30.557-2.812-45.966-2.94c-17.513-0.146-34.768,1.255-52.229,2.087c-15.773,0.751-31.477-1.134-47.154-2.714
		c-10.937-1.102-21.612-4.237-32.535-5.063c-8.61-0.65-17.36-0.682-25.99-0.694c-5.021-0.007-9.686,0.053-14.667-0.505
		c-1.57-0.175-4.581-1.282-6.122-0.669c-5.936,2.362,0.374,10.807,3.847,12.01c2.213,0.767,4.575,0.073,6.685,1.012
		c5.709,2.537,2.386,12.414,1.713,16.78c-1.239,8.038-0.572,17.026-0.622,25.21c-0.034,5.736,0.299,15.212,3.524,20.068
		c4.034,6.073,13.908,9.243,20.302,11.649c25.862,9.732,54.155,7.256,81.053,11.102c30.488,4.36,61.199,3.708,91.895,4.636
		c19.074,0.577,37.861-2.11,56.9-2.477c17.575-0.339,35.539-0.187,53.012-2.026c18.769-1.974,38.181-0.438,56.61-5.197
		c4.63-1.195,14.693-3.288,12.867-10.066c-2.548-9.454-19.525-7.576-26.495-7.836c-34.024-1.272-68.19,1.552-102.202,2.248
		c-27.504,0.565-55.478,0.88-82.338-5.948c-6.033-1.533-17.809-3.894-17.831-12.159c-0.025-8.858,15.564-13.511,22.188-15.024
		c33.195-7.578,68.419-6.219,102.202-6.461c41.049-0.296,82.736,1.706,123.093-6.541c7.147-1.461,16.073-4.053,22.206-8.245
		c2.21-1.511,2.967-4.093,4.556-6.111c1.897-2.411,4.428-3.851,7.315-4.742c5.212-1.608,10.068-4.756,8.342-11.268
		C481.195,402.766,481.039,402.418,480.212,402.499z"/>
	<path style="fill:#81929B;" d="M62.528,376.433c-2.054,3.076-5.08,9.045-1.094,11.213c8.978,4.88,22.292,2.596,32.057,3.013
		c8.474,0.36,16.643-1.15,25.169-0.274c7.949,0.817,15.852,0.773,23.785,1.89c13.859,1.951,28.109,2.867,42.076,3.4
		c46.568,1.777,93.678,5.065,140.119,0.418c25.013-2.503,49.905-3.871,74.992-5.342c12.123-0.71,24.556-0.56,36.355-3.778
		c4.107-1.121,9.891-0.866,13.45-3.591c7.742-5.927-9.137-4.928-11.183-4.919c-14.742,0.064-29.566,2.508-44.235,3.769
		c-17.657,1.519-35.408,2.147-53.03,3.924c-17.864,1.801-35.799,3.114-53.778,3.07c-10.736-0.026-21.563,0.456-32.28,0.092
		c-13.719-0.464-27.756-1.34-41.474-0.903c-10.68,0.34-21.008-1.279-31.713-0.949c-12.382,0.381-25.274,0.991-37.556-0.584
		c-6.476-0.83-13.002-0.541-19.505-1.127c-5.8-0.523-11.54-1.485-17.354-1.836c-7.587-0.458-15-1.727-22.616-2.021
		c-6.015-0.233-11.022-1.061-16.554-3.096C65.502,377.824,60.47,377.203,62.528,376.433z"/>
</g>
<path d="M139.994,303.475c2.956-1.929,5.495-4.272,8.506-6.186c4.094-2.604,8.58-4.235,12.95-6.299
	c5.203-2.457,9.912-3.653,15.499-4.816c3.342-0.696,7.152-2.281,10.599-1.763c0.975,0.147,1.865-0.758,1.324-1.722
	c-3.644-6.484-18.645-1.762-23.657,0.156c-10.805,4.136-19.589,9.57-26.931,18.413C137.329,302.408,138.555,304.413,139.994,303.475
	z"/>
<path d="M195.806,292.615c-14.769-4.253-30.639,3.43-42.479,11.494c-2.365,1.61-0.231,5.407,2.269,3.883
	c6.434-3.92,12.328-6.362,19.648-8.267c6.876-1.789,13.963-1.82,20.561-4.526C196.965,294.722,197.183,293.012,195.806,292.615z"/>
<path d="M230.683,87.157c4.074-0.126,10.872-0.143,12.736-4.489c0.208-0.486,0.185-1.173-0.377-1.44
	c-3.867-1.837-7.121-1.826-11.264-1.287c-2.453,0.318-5.034,0.634-7.505,0.692c-2.142,0.05-3.753-0.323-5.559,1.05
	c-0.209,0.159-0.279,0.336-0.241,0.594C219.163,86.974,227.057,87.268,230.683,87.157z"/>
<path d="M207.861,269.701c0.808,0.569,1.838-0.539,1.335-1.335c-6.426-10.162-10.324-20.461-10.951-32.587
	c-0.291-5.628-0.626-11.297-0.71-16.932c-0.093-6.129,1.206-12.207,1.14-18.301c-0.013-1.237-1.787-1.196-1.895,0
	c-0.617,6.857-2.564,13.413-2.597,20.389c-0.033,6.684-0.233,13.538,0.462,20.192C195.718,251.416,198.947,263.423,207.861,269.701z
	"/>
<path d="M183.088,245.919c2.318,11.832,4.215,24.266,16.307,30.054c1.161,0.556,2.539-0.912,1.461-1.893
	c-9.408-8.56-11.39-20.79-13.609-32.647c-2.393-12.786-0.223-25.096,0.802-37.849c0.179-2.221-3.155-2.132-3.415,0
	c-0.914,7.464-2.788,14.485-3.115,22.049C181.217,232.587,181.751,239.094,183.088,245.919z"/>
<path d="M180.524,176.277c-7.282,10.152-10.171,23.399-12.409,35.448c-1.207,6.498-1.921,12.995-0.996,19.579
	c0.46,3.272,0.867,8.501,3.311,10.96c0.689,0.694,2.095-0.006,1.727-1.005c-1.389-3.771-0.993-9.929-1.085-13.964
	c-0.147-6.456,0.855-12.783,2.067-19.104c1.961-10.229,4.084-21.607,9.912-30.436C184.102,176.161,181.605,174.769,180.524,176.277z
	"/>
<path d="M121.502,349.926c-1.309-4.611,3.015-9.623,5.478-13.233c1.307-1.915,4.865-7.518,7.38-8.252
	c0.742-0.217,0.787-1.356,0-1.55c-4.345-1.072-8.471,3.948-10.55,7.062c-3.24,4.852-7.47,10.747-5.185,16.765
	C119.292,352.481,122.037,351.811,121.502,349.926z"/>
<path d="M169.047,371.477c0.756-0.013,1.334-1.07,0.67-1.617c-5.549-4.563-6.936-11.401-7.045-18.226
	c-0.102-6.369,1.868-11.058,3.767-16.938c0.383-1.184-1.436-1.964-2.019-0.851c-2.054,3.916-4.623,6.955-5.57,11.421
	c-0.858,4.052-1.075,8.456-0.631,12.559C158.826,363.402,162.363,371.593,169.047,371.477z"/>
<path d="M232.726,68.216c2.131,0.152,3.551,1.969,5.572,2.45c1.625,0.388,2.856-0.997,2.559-2.559
	c-1.13-5.977-8.789-5.061-13.045-4.265c-3.974,0.745-10.272,2.851-11.669,7.084c-0.157,0.476,0.36,1.025,0.847,0.847
	c3.378-1.233,6.456-2.356,10.064-2.792C228.703,68.781,231.116,68.101,232.726,68.216z"/>
<path d="M203.792,353.997c0.279,4.634-1.467,8.912-1.249,13.471c0.078,1.646,2.197,1.832,2.763,0.374
	c3.903-10.071,2.552-19.131-3.922-27.605c-0.445-0.582-1.31-0.103-0.992,0.579C202.288,344.868,203.523,349.53,203.792,353.997z"/>
<path d="M323.119,282.688c-0.541,0.964,0.349,1.869,1.324,1.722c3.446-0.519,7.257,1.068,10.599,1.763
	c5.586,1.162,10.294,2.359,15.499,4.816c4.371,2.064,8.857,3.696,12.95,6.299c3.011,1.915,5.55,4.258,8.506,6.186
	c1.44,0.939,2.665-1.067,1.711-2.217c-7.342-8.843-16.126-14.279-26.931-18.413C341.764,280.927,326.764,276.204,323.119,282.688z"
	/>
<path d="M358.663,304.109c-11.84-8.064-27.71-15.747-42.479-11.494c-1.376,0.397-1.159,2.108,0,2.583
	c6.597,2.708,13.685,2.737,20.561,4.526c7.32,1.906,13.214,4.347,19.648,8.267C358.894,309.516,361.029,305.721,358.663,304.109z"/>
<path d="M486.9,397.538c-0.669-12.987-18.218-13.222-27.871-13.378c-1.048-0.017-2.097-0.006-3.146-0.016
	c0.916-5.609-0.249-11.338-5.05-14.827c-0.38-0.276-0.776-0.52-1.174-0.76c7.585-4.809,10.715-21.531,10.831-27.968
	c0.242-13.559-9.285-29.678-24.542-28.277c-3.518,0.323-7.459,1.351-11.022,0.933c-4.428-0.519-4.69-4.946-7.894-7.269
	c-5.398-3.914-12.621-1.368-18.728,0.009c-1.174-3.52-3.393-6.726-6.113-9.604c2.92-12.287-0.41-22.821-3.796-34.855
	c-1.803-6.406-2.901-12.897-4.908-19.247c-2.023-6.402-0.887-12.898-1.429-19.467c-0.892-10.786-3.389-21.53-9.057-30.831
	c-1.591-2.61-3.164-5.671-5.308-7.858c-1.506-1.537-3.483-2.279-5.09-3.682c-3.946-3.445-9.181-6.596-12.731-10.371
	c-2.09-2.224-3.309-4.88-5.614-6.94c-1.877-1.679-4.018-3.108-6.013-4.641c-3.58-2.751-7.037-5.728-11.269-7.441
	c-3.211-1.301-6.622-1.416-9.757-2.938c-2.437-1.184-4.694-2.559-7.22-3.584c-4.558-1.849-9.408-4.542-14.435-4.778
	c-1.716-0.081-3.006,0.269-3.974,0.926c-0.713-0.451-1.373-0.972-2.095-1.707c-1.252-1.271-2.367-2.315-2.668-4.058
	c-0.119-0.689-0.263-1.296-0.453-1.857c1.073-0.462,2.141-0.938,3.201-1.419c3.878-1.757,7.486-4.256,10.531-7.306
	c0.629,6.433,4.049,13.955,10.957,13.625c3.216-0.153,7.35-1.621,8.943-4.64c1.85-3.506,0.266-6.727-0.312-10.202
	c-0.241-1.451,0.471-6.395,1.357-7.567c0.91-1.203,2.907-1.876,3.957-3.239c2.383-3.095,4.717-7.256,4.294-11.248
	c-0.37-3.491-3.423-11.569-7.675-15.19c2.818-2.529,4.368-6.897,4.737-10.452c0.95-9.168-1.984-19.401-6.306-27.47
	c-3.512-6.558-7.231-14.021-13.235-18.607c-0.994-0.76-1.983-1.476-2.969-2.161c0.383-0.372,0.656-0.855,0.674-1.373
	c0.257-7.598-10.333-15.629-16.459-18.437c-4.709-2.158-10.504-4.52-16.276-5.492c-5.59-2.442-12.92-1.868-18.609-1.662
	c-4.754,0.173-10.125,0.549-14.978,2.049c-5.097,1.127-10.113,3.195-14.278,5.104c-6.127,2.808-16.716,10.839-16.459,18.437
	c0.017,0.518,0.291,1.001,0.675,1.373c-0.986,0.686-1.973,1.401-2.968,2.161c-6.002,4.586-9.721,12.048-13.233,18.607
	c-4.322,8.069-7.256,18.302-6.306,27.47c0.369,3.555,1.919,7.925,4.737,10.452c-4.252,3.621-7.305,11.7-7.675,15.19
	c-0.423,3.992,1.912,8.154,4.294,11.248c1.049,1.364,3.047,2.037,3.957,3.239c0.885,1.172,1.599,6.116,1.358,7.567
	c-0.578,3.475-2.164,6.696-0.312,10.202c1.593,3.019,5.728,4.487,8.943,4.64c6.908,0.329,10.329-7.191,10.957-13.625
	c3.044,3.051,6.651,5.549,10.531,7.306c1.061,0.481,2.128,0.958,3.201,1.419c-0.19,0.561-0.334,1.167-0.453,1.857
	c-0.301,1.744-1.417,2.787-2.668,4.058c-0.723,0.735-1.383,1.255-2.095,1.707c-0.967-0.656-2.259-1.005-3.974-0.926
	c-5.028,0.235-9.877,2.929-14.435,4.778c-2.526,1.025-4.783,2.4-7.22,3.584c-3.135,1.523-6.546,1.639-9.757,2.938
	c-4.232,1.713-7.689,4.692-11.269,7.441c-1.996,1.533-4.137,2.962-6.013,4.641c-2.305,2.06-3.523,4.716-5.614,6.94
	c-3.549,3.777-8.785,6.926-12.731,10.371c-1.607,1.403-3.583,2.146-5.09,3.682c-2.143,2.187-3.717,5.248-5.308,7.858
	c-5.669,9.301-8.166,20.045-9.057,30.831c-0.544,6.568,0.594,13.064-1.429,19.467c-2.007,6.35-3.106,12.84-4.907,19.247
	c-3.386,12.034-6.716,22.57-3.796,34.855c-2.721,2.878-4.94,6.084-6.113,9.604c-6.107-1.376-13.331-3.922-18.729-0.009
	c-3.204,2.323-3.464,6.75-7.894,7.269c-3.562,0.418-7.503-0.61-11.022-0.933c-15.256-1.401-24.785,14.719-24.541,28.277
	c0.115,6.437,3.245,23.159,10.831,27.968c-0.398,0.24-0.795,0.484-1.174,0.76c-4.802,3.489-5.965,9.218-5.05,14.827
	c-1.048,0.011-2.097,0-3.146,0.016c-9.654,0.156-27.203,0.391-27.871,13.378c-0.185,3.588,0.325,7.283,0.349,10.883
	c0.012,1.909,0.009,4.03,1.059,5.717c2.688,4.316,10.028,4.825,14.235,6.233c1.182,0.396,2.357,0.697,3.532,0.961
	c-0.358,0.712-0.681,1.405-0.845,1.935c-1.247,4.02-1.342,8.392-1.806,12.568c-1.121,10.09-0.896,20.211-1.254,30.336
	c-0.306,8.702-0.501,15.81,7.651,20.958c7.587,4.791,17.065,7.915,25.867,9.548c19.582,3.637,39.167,4.701,58.904,6.843
	c9.404,1.02,18.645,2.507,28.057,3.447c10.581,1.056,21.463,1.199,32.119,1.728c11.984,0.595,23.96,1.39,35.934,2.04
	c1.838,0.1,3.708,0.119,5.586,0.103c5.813,0.465,11.646,0.712,17.373,0.939c8.679,0.347,18.393,0.43,27.411-0.933
	c1.286-0.012,2.568-0.04,3.833-0.109c11.974-0.65,23.95-1.445,35.934-2.04c10.657-0.529,21.54-0.672,32.119-1.728
	c9.412-0.941,18.653-2.427,28.057-3.447c19.737-2.142,39.323-3.207,58.904-6.843c8.801-1.635,18.28-4.758,25.867-9.548
	c8.151-5.148,7.958-12.256,7.651-20.958c-0.356-10.125-0.133-20.247-1.254-30.336c-0.464-4.176-0.558-8.548-1.806-12.568
	c-0.164-0.53-0.486-1.223-0.845-1.935c1.174-0.263,2.35-0.565,3.532-0.961c4.205-1.408,11.546-1.917,14.235-6.233
	c1.051-1.686,1.046-3.807,1.059-5.717C486.575,404.821,487.085,401.125,486.9,397.538z M322.404,102.922
	c-1.203,5.725-7.381,6.903-8.138,12.522c-0.316,2.34-0.806,5.109-0.446,7.498c0.483,3.196,4.393,9.356-2.214,9.575
	c-6.542,0.218-4.902-8.983-7.467-13.073c1.362-2.005,2.506-4.153,3.359-6.423c3.327-8.848,4.389-18.603,2.307-27.855
	c-0.075-0.336-0.122-0.674-0.181-1.01c1.472,1.947,3.294,3.391,5.635,3.708c0.529,0.071,1.031,0.077,1.521,0.053
	C319.889,92.325,323.382,98.267,322.404,102.922z M317.694,60.759c1.272,4.989,1.729,10.222,0.702,14.689
	c-2.105,9.159-6.788,2.715-9.667-3.522c-0.089-0.689-0.2-1.378-0.349-2.062c-0.22-1.012-0.501-1.945-0.808-2.85
	c0.392-0.558,0.727-1.165,1.105-1.728c1.027-1.536,2.22-2.733,3.876-3.597c1.505-0.784,3.131-1.318,4.825-0.999
	C317.49,60.71,317.594,60.734,317.694,60.759z M313.277,49.512c0.031,0.055,0.055,0.108,0.086,0.163
	c1.125,2.048,2.168,4.387,3.046,6.865c-3.491-0.179-8.45,2.616-10.625,6.122c-0.667-2.96-1.455-6.017-2.497-8.932
	c0.682-0.618,1.327-1.301,1.983-1.786C307.772,50.089,310.129,48.994,313.277,49.512z M307.906,38.401
	c0.227,0.407,0.452,0.816,0.656,1.254c0.898,1.92,1.71,3.749,2.564,5.57c-2.611,0.033-5.36,1.448-7.291,2.981
	c-0.547,0.435-1.336,1.091-2.06,1.855c-0.43-0.907-0.883-1.797-1.39-2.638c-0.622-1.034-1.37-2.079-2.212-3.12
	c1.146-1.801,2.498-3.451,4.363-4.598C304.263,38.643,306.124,38.747,307.906,38.401z M299.267,29.705
	c2.192,1.539,4.137,3.052,5.8,4.83c-1.724,0.31-3.451,1.054-4.534,1.744c-1.735,1.105-3.818,2.946-5.053,5.053
	c0.072-0.122-4.137-3.415-4.421-3.905c-1.287-2.218,0.218-4.66,1.973-6.126c1.282-1.072,2.566-1.909,4.34-1.997
	c0.416-0.021,0.805-0.04,1.176-0.078C298.789,29.384,299.03,29.538,299.267,29.705z M280.002,27.355
	c0.703-0.905,1.482-1.984,2.436-2.632c1.069-0.727,2.23-0.561,3.401-0.969c0.191-0.066,0.36-0.162,0.507-0.278
	c2.346,0.742,4.628,1.619,6.848,2.684c-0.988,0.427-1.893,0.988-2.501,1.646c-1.23,1.331-3.412,3.806-4.105,6.186
	c-0.87-0.312-1.77-0.589-2.68-0.835c-1.847-0.857-3.729-1.526-5.603-1.964C278.775,29.884,279.122,28.488,280.002,27.355z
	 M277.461,24.674c-1.176,1.462-2.465,3.843-2.498,5.999c-0.168-0.012-0.337-0.031-0.503-0.039c-2.305-0.791-4.59-1.678-6.924-2.359
	c-0.148-0.778-0.376-1.565-0.41-2.234c-0.109-2.182,0.202-4.182,0.636-6.242c0.77,0.107,1.537,0.206,2.318,0.329
	c0.201,0.032,3.124,0.435,5.567,0.674c0.776,0.19,1.559,0.372,2.364,0.541c0.757,0.158,1.501,0.327,2.246,0.498
	C279.209,22.64,278.281,23.654,277.461,24.674z M230.053,11.36c4.144-1.532,8.553-2.984,12.91-3.793
	c2.863-0.531,4.912-0.494,7.092-1.38c0.692-0.073,1.383-0.152,2.077-0.191c3.248-0.184,6.503-0.084,9.743,0.165
	c2.204,0.914,4.264,0.868,7.155,1.405c4.357,0.808,8.766,2.261,12.91,3.793c6.822,2.52,11.814,7.015,16.308,12.312
	c-4.651-2.567-9.517-4.416-15.199-5.691c-2.485-0.557-5.039-1.168-7.61-1.61c-6.063-2.18-13.514-2.894-19.235-2.436
	c-5.358,0.429-10.582,0.907-15.891,1.751c-0.856,0.136-1.701,0.31-2.548,0.483c-2.978,0.44-5.944,1.168-8.82,1.814
	c-0.36,0.081-0.708,0.17-1.062,0.256c-0.392,0.066-0.779,0.152-1.173,0.208c-0.272,0.039-0.498,0.135-0.687,0.269
	c-4.46,1.221-8.445,2.841-12.278,4.956C218.239,18.375,223.23,13.88,230.053,11.36z M264.555,19.416
	c-0.812,1.538-1.196,3.324-1.418,5.091c-0.102,0.817-0.22,1.812-0.208,2.804c-2.921-0.342-5.903-0.22-8.837-0.157
	c-0.037-1.483-0.174-3.033-0.263-4.47c-0.072-1.15-0.299-2.441-0.795-3.526c0.703-0.04,1.403-0.1,2.109-0.124
	C258.356,18.928,261.449,19.093,264.555,19.416z M249.528,21.386c0.043,1.074-0.01,2.07-0.096,3.14
	c-0.075,0.931-0.192,1.956-0.129,2.927c-2.806,0.298-5.604,0.808-8.345,1.539c-0.178-2.487-1.226-4.862-2.779-6.827
	c-0.338-0.427-0.731-0.835-1.161-1.204c4.166-0.585,8.335-1.174,12.538-1.556C249.579,20.132,249.51,20.911,249.528,21.386z
	 M236.722,30.298c-0.549,0.192-1.097,0.385-1.639,0.591c-2.848,0.485-5.745,1.56-8.52,3.015c-0.107-0.872-0.3-1.735-0.498-2.529
	c-0.464-1.858-1.479-3.341-2.913-4.58c-0.768-0.664-1.608-1.147-2.482-1.473c3.665-1.564,7.502-2.662,11.51-3.567
	c1.482,1.029,2.841,2.092,3.648,3.872c0.436,0.963,0.84,2.246,0.89,3.306C236.745,29.448,236.716,29.88,236.722,30.298z
	 M212.723,29.705c0.909-0.638,1.832-1.22,2.764-1.77c1.703,0.049,3.424,0.026,4.804,1.199c0.936,0.796,1.596,1.793,1.793,3.019
	c0.171,1.069,0.435,2.72,0.037,3.729c-0.062,0.159-0.104,0.314-0.129,0.463c-0.424,0.219-0.845,0.441-1.247,0.681
	c-1.841,1.103-2.878,2.413-3.984,3.804c-1.118-2.017-3.086-3.851-4.536-4.669c-1.762-0.996-4.019-1.183-6.121-0.71
	C207.93,33.256,210.164,31.504,212.723,29.705z M203.33,39.87c2.294-0.898,5.059-1.711,6.973-0.42
	c0.858,0.579,1.946,1.637,2.393,2.487c0.445,0.844,0.566,1.883,0.746,2.853c-0.687,0.879-1.312,1.761-1.836,2.632
	c-0.895,1.488-1.652,3.1-2.319,4.771c-1.223-2.097-3.129-3.756-5.545-4.347c-1.499-0.367-2.973-0.146-4.358,0.382
	C200.816,45.454,201.984,42.758,203.33,39.87z M197.011,52.992c1.413-1.085,2.938-1.973,4.922-1.921
	c4.226,0.111,4.211,4.361,5.309,7.381c-0.393,1.463-0.747,2.931-1.07,4.371c-0.441,0.893-0.843,1.798-1.214,2.726
	c-0.911-1.828-2.175-3.723-3.765-4.575c-2.209-1.184-4.749-1.199-6.864-0.35C195.02,57.95,195.956,55.367,197.011,52.992z
	 M193.503,64.587c2.526-1.43,5.625-1.39,7.518,1.407c1.345,1.985,1.555,4.192,2.045,6.351c-2.893,6.099-7.413,12.058-9.47,3.103
	C192.829,72.114,192.895,68.354,193.503,64.587z M200.385,132.517c-6.608-0.219-2.697-6.379-2.214-9.575
	c0.36-2.389-0.13-5.157-0.446-7.498c-0.757-5.619-6.935-6.797-8.138-12.522c-0.978-4.655,2.514-10.597,5.623-15.005
	c0.49,0.024,0.992,0.018,1.521-0.053c2.34-0.317,4.163-1.761,5.635-3.708c-0.059,0.337-0.107,0.676-0.181,1.01
	c-2.082,9.252-1.02,19.007,2.307,27.855c0.854,2.27,1.997,4.418,3.359,6.423C205.287,123.536,206.927,132.735,200.385,132.517z
	 M209.74,105.11c-2.3-7.486-2.066-14.634-1.868-22.348c0.098-3.812-0.127-7.471,0.198-11.224c2.57-7.098,3.839-15.185,7.877-21.578
	c2.946-4.665,7.174-8.22,11.916-10.989c1.441-0.419,2.889-0.843,4.331-1.352c8.105-2.866,15.76-4.676,24.42-4.579
	c8.094,0.091,15.381,3.117,22.959,5.658c2.124,0.712,5.243,2.204,8.023,2.52c3.316,2.386,6.242,5.252,8.446,8.743
	c4.039,6.393,5.306,14.48,7.877,21.578c0.326,3.752,0.1,7.411,0.198,11.224c0.197,7.714,0.431,14.861-1.868,22.348
	c-2.787,9.077-7.732,15.865-16.59,19.716c-4.049,1.761-7.936,3.651-12.334,4.335c-1.216,0.19-2.387,0.37-3.534,0.572
	c-1.259-0.081-2.54,0.056-3.99,0.202c-3.703,0.371-7.441,0.302-11.123,0.742c-2.428,0.29-4.628,0.503-6.882,0.437
	c-2.957-1.02-5.895-1.449-9.132-1.953c-4.399-0.685-8.286-2.574-12.334-4.335C217.472,120.975,212.527,114.187,209.74,105.11z
	 M216.715,179.671c1.761-6.369,3.366-12.639,4.286-19.18c0.446-3.173,2.056-8.91,1.942-13.55c1.461-0.4,2.855-1.089,3.826-1.864
	c3.123-2.491,5.281-5.62,6.178-9.306c1.496,0.441,3.003,0.796,4.518,1.035c4.82,2.006,10.79,2.067,15.708,1.957
	c5.517-0.124,12.969,0.572,18.493-1.667c2.482-0.129,4.943-0.607,7.376-1.325c0.898,3.686,3.055,6.815,6.178,9.306
	c0.972,0.775,2.365,1.463,3.826,1.864c-0.114,4.64,1.496,10.377,1.942,13.55c0.92,6.542,2.525,12.811,4.286,19.18
	c1.663,6.014,1.684,12.159,2.064,18.34c0.356,5.802,1.183,11.608,1.264,17.422c0.044,3.142,0.328,6.402,0.386,9.612
	c-7.391,0.591-15.199-0.186-21.727-3.825c-3.384-1.886-6.64-4.121-9.555-6.678c-1.23-1.078-1.549-1.839-3.139-2.008
	c-0.636-0.067-0.843,0.893-0.318,1.177c0.727,0.394,1.663,3.108,2.172,3.98c0.981,1.675,2.174,3.092,3.544,4.467
	c2.704,2.714,6.129,5.284,9.764,6.565c4.38,1.544,13.549,3.472,19.081,1.316c-0.032,0.313-0.053,0.629-0.094,0.939
	c-0.858,6.413-1.901,13.825-4.979,19.621c-1.752,3.299-4.799,5.712-7.732,8.18c-3.681,1.566-6.689,6.238-9.866,7.927
	c-6.74,3.585-14.357,5.048-21.964,4.934c-6.653-0.098-13.933-2.037-19.663-5.574c-1.444-0.892-2.776-1.968-4.096-3.063
	c-0.04-0.051-0.069-0.105-0.114-0.157c-3.701-4.253-9.381-7.219-12.05-12.247c-3.079-5.796-4.121-13.208-4.979-19.621
	c-0.042-0.31-0.062-0.626-0.094-0.939c5.533,2.154,14.7,0.228,19.081-1.316c3.635-1.281,7.06-3.851,9.764-6.565
	c1.37-1.375,2.563-2.791,3.544-4.467c0.509-0.871,1.444-3.586,2.173-3.98c0.524-0.284,0.317-1.244-0.318-1.177
	c-1.59,0.17-1.909,0.931-3.139,2.008c-2.915,2.556-6.171,4.792-9.555,6.678c-6.528,3.637-14.337,4.415-21.727,3.825
	c0.058-3.209,0.342-6.468,0.386-9.612c0.081-5.812,0.907-11.618,1.264-17.422C215.032,191.831,215.052,185.685,216.715,179.671z
	 M122.443,304.561c4.437-5.345,9.746-9.79,15.842-13.446c10.359-6.214,22.374-9.53,33.986-12.638c1.215-0.326,1.292-2.256,0-2.537
	c-12.736-2.776-26.655,2.684-37.52,9.13c-3.458,2.051-7.416,4.608-11.014,7.629c0.032-3.741,0.056-7.459,0.643-11.24
	c0.876-5.638,2.806-10.941,4.554-16.34c1.653-5.107,2.519-10.376,3.993-15.525c1.353-4.723,3.092-8.746,3.629-13.688
	c0.585-5.379,0.119-10.725,0.98-16.116c0.854-5.344,2.019-10.727,3.973-15.787c2.07-5.364,5.396-12.118,10.065-15.581
	c3.843-2.85,7.307-6.137,11.15-9.082c3.905-2.993,5.403-6.056,8.068-9.986c3.033-4.474,9.432-8.981,14.076-11.635
	c4.389-2.508,9.787-1.859,14.542-3.776c5.037-2.03,11.007-3.506,15.785-5.969c-0.002,0.153-0.006,0.307-0.009,0.46
	c-0.845,3.096-0.975,6.852-1.463,10.047c-0.887,5.79-2.251,11.342-3.738,17.006c-2.694,10.261-3.494,20.944-4.316,31.48
	c-0.895,11.476-2.564,22.8,0.354,34.192c1.341,5.235,2.9,11.144,6.111,15.602c3.174,4.405,7.847,6.199,11.952,9.125
	c1.124,0.905,2.24,1.821,3.324,2.784c6.413,5.687,14.487,8.18,22.768,9.411c7.458,1.107,16.55-0.012,23.608-2.749
	c3.327-1.291,7.021-2.975,9.699-5.382c0.814-0.731,1.541-1.545,2.236-2.389c0.132-0.088,0.266-0.171,0.396-0.283
	c4.469-3.843,10.093-5.456,13.739-10.516c3.211-4.456,4.77-10.366,6.112-15.602c2.918-11.391,1.249-22.716,0.354-34.192
	c-0.822-10.537-1.621-21.219-4.316-31.48c-1.487-5.663-2.851-11.216-3.738-17.006c-0.49-3.195-0.618-6.951-1.463-10.047
	c-0.002-0.153-0.006-0.307-0.009-0.46c4.778,2.462,10.749,3.937,15.785,5.969c4.755,1.917,10.155,1.268,14.542,3.776
	c4.644,2.654,11.041,7.162,14.076,11.635c2.665,3.93,4.163,6.993,8.068,9.986c3.843,2.945,7.307,6.232,11.15,9.082
	c4.669,3.463,7.994,10.217,10.065,15.581c1.952,5.06,3.119,10.442,3.973,15.787c0.861,5.391,0.394,10.739,0.98,16.116
	c0.538,4.94,2.275,8.964,3.63,13.688c1.476,5.147,2.34,10.418,3.993,15.525c1.749,5.401,3.679,10.702,4.554,16.34
	c0.587,3.78,0.611,7.497,0.643,11.24c-3.598-3.021-7.556-5.578-11.014-7.629c-10.865-6.444-24.784-11.905-37.52-9.13
	c-1.292,0.282-1.215,2.212,0,2.537c11.612,3.108,23.627,6.424,33.986,12.638c6.096,3.657,11.406,8.101,15.842,13.446
	c0.729,0.878,1.417,1.799,2.12,2.705c-2.099,0.484-4.126,1.14-6.108,2.247c-3.98,2.224-7.22,5.467-11.482,7.283
	c-5.254,2.24-11.444,1.579-17.392,1.4c-1.738-0.93-3.444-1.898-4.41-2.121c-3.588-0.823-9.166-0.603-12.872-0.12
	c-3.877,0.505-7.38,3.139-10.769,4.916c-4.581,2.401-8.447,4.427-13.759,4.982c-10.175,1.062-20.407-0.693-30.558,1.069
	c-3.991,0.693-7.239,2.551-10.074,5.408c-2.052-0.767-4.17-0.737-6.737-0.148c-2.771,0.637-5.437,1.932-8.367,1.639
	c-2.719-0.272-4.801-1.979-7.238-2.929c-3.474-1.354-7.381-1.685-11.063-1.139c-1.834,0.272-3.162,0.746-4.34,1.414
	c-2.537-2.198-5.409-3.652-8.827-4.246c-10.152-1.762-20.383-0.007-30.558-1.069c-5.312-0.555-9.179-2.579-13.759-4.982
	c-3.39-1.777-6.892-4.411-10.769-4.916c-3.706-0.483-9.284-0.703-12.872,0.12c-0.966,0.222-2.672,1.19-4.41,2.121
	c-5.948,0.179-12.138,0.84-17.392-1.4c-4.262-1.816-7.502-5.059-11.482-7.283c-1.981-1.107-4.008-1.763-6.108-2.247
	C121.024,306.36,121.713,305.439,122.443,304.561z M62.228,329.825c3.392-7.481,8.356-10.539,16.512-9.705
	c0.747,0.076,1.543,0.168,2.365,0.254c-0.463,0.502-0.922,1.053-1.379,1.679c-3.316,4.535-5.879,10.098-7.098,15.598
	c-1.068,4.823-0.922,17.19,5.932,18.102c1.097,0.146,1.302-1.266,0.795-1.919c-1.809-2.334-1.302-4.95-1.549-7.616
	c-0.465-5.006-0.185-8.578,1.664-13.29c1.265-3.223,2.888-6.417,4.887-9.251c0.876-1.241,1.892-2.185,2.978-3.011
	c2.177-0.108,4.269-0.53,5.99-1.577c1.93-1.176,2.67-3.046,3.994-4.722c3.087-3.91,5.948-3.314,10.381-2.313
	c2.757,0.622,5.601,0.953,8.375,1.528c-1.961,0.075-3.953,0.4-6.025,1.116c-6.181,2.135-11.81,6.584-15.844,11.676
	c-5.636,7.113-8.545,23.49,0.56,29.104c0.866,0.534,1.789-0.506,1.342-1.342c-1.875-3.5-1.512-9.337-1.062-13.161
	c0.686-5.807,2.496-10.055,6.727-14.157c6.892-6.682,14.716-8.574,23.676-8.699c0.448,0.344,0.899,0.691,1.358,1.042
	c4.723,3.61,9.713,6.64,15.743,7.164c0.747,0.065,1.482,0.089,2.209,0.097c-1.517,1.161-2.906,2.475-4.106,3.952
	c-3.404,4.189-5.034,9.629-6.268,14.796c-1.543,6.465-0.834,10.413,2.308,16.161c0.637,1.163,2.215,0.522,2.318-0.628
	c0.437-4.881-0.372-9.136,0.921-14.005c1.063-4.006,2.002-8.283,4.378-11.766c5.114-7.498,16.307-11.482,25.033-10.533
	c1.653,0.181,3.327,0.187,4.988,0.336c1.132,0.703,2.09,1.568,3.331,2.21c0.19,0.098,0.38,0.2,0.569,0.3
	c2.931,2.524,5.429,5.645,7.457,8.56c1.668,2.398,3.708,4.731,5.152,7.255c2.672,4.671,3.095,9.975,3.493,15.225
	c0.091,1.192,1.65,1.406,2.059,0.278c3.701-10.228-2.63-18.7-8.539-26.497c-0.036-0.048-0.075-0.093-0.11-0.141
	c0.306,0.118,0.611,0.239,0.921,0.348c9.784,3.426,20.024,1.915,30.128,2.45c6.112,0.323,10.93,0.987,14.682,6.221
	c4.797,6.689,4.929,13.897,3.978,21.802c-0.23,1.912,2.351,2.076,3.235,0.877c4.472-6.061,4.227-17.188,1.394-23.9
	c-1.045-2.474-3.136-3.924,0.926-4.143c5.099-0.274,7.91,2.476,12.404,3.888c3.164,0.994,6.334,0.84,9.54,0.132
	c0.899-0.198,4.481-1.265,5.199-0.611c0.911,0.83-0.331,4.116-0.573,5.123c-1.869,7.764-6.7,20.167,3.798,24.136
	c1.242,0.47,2.083-0.878,1.924-1.924c-0.811-5.323-3.43-8.967-2.199-14.697c0.482-2.247,1.16-4.389,1.943-6.484
	c1.429-1.04,2.36-2.626,3.487-4.198c3.752-5.233,8.571-5.897,14.682-6.221c10.104-0.535,20.345,0.977,30.127-2.45
	c0.309-0.108,0.615-0.229,0.921-0.348c-0.037,0.048-0.075,0.093-0.11,0.141c-5.909,7.797-12.24,16.27-8.539,26.497
	c0.408,1.128,1.968,0.912,2.059-0.278c0.398-5.25,0.82-10.554,3.493-15.225c1.444-2.524,3.485-4.857,5.152-7.255
	c2.028-2.916,4.526-6.037,7.457-8.56c0.19-0.1,0.38-0.202,0.569-0.3c1.239-0.643,2.199-1.507,3.331-2.21
	c1.661-0.148,3.335-0.154,4.988-0.336c8.727-0.949,19.92,3.035,25.033,10.533c2.376,3.483,3.315,7.759,4.378,11.766
	c1.292,4.869,0.483,9.122,0.921,14.005c0.103,1.15,1.681,1.792,2.318,0.628c3.142-5.748,3.851-9.695,2.308-16.161
	c-1.233-5.167-2.862-10.605-6.268-14.796c-1.2-1.477-2.59-2.791-4.106-3.952c0.729-0.007,1.462-0.032,2.209-0.097
	c6.03-0.524,11.019-3.554,15.743-7.164c0.459-0.351,0.91-0.698,1.358-1.042c8.959,0.125,16.783,2.017,23.676,8.699
	c4.231,4.101,6.041,8.351,6.727,14.157c0.451,3.824,0.813,9.662-1.062,13.161c-0.448,0.835,0.476,1.875,1.342,1.342
	c9.105-5.615,6.195-21.992,0.56-29.104c-4.034-5.092-9.664-9.541-15.844-11.676c-2.072-0.715-4.065-1.041-6.025-1.116
	c2.774-0.576,5.619-0.906,8.375-1.528c4.433-1.001,7.294-1.597,10.381,2.313c1.324,1.676,2.064,3.547,3.993,4.722
	c1.719,1.047,3.811,1.47,5.99,1.577c1.086,0.827,2.103,1.771,2.978,3.011c2,2.834,3.622,6.028,4.887,9.251
	c1.849,4.711,2.128,8.282,1.664,13.29c-0.247,2.667,0.258,5.282-1.55,7.616c-0.506,0.654-0.302,2.065,0.795,1.919
	c6.854-0.912,7-13.28,5.932-18.102c-1.219-5.5-3.782-11.063-7.098-15.598c-0.457-0.625-0.916-1.177-1.379-1.679
	c0.822-0.087,1.618-0.178,2.365-0.254c8.156-0.835,13.118,2.223,16.512,9.705c4.895,10.795,1.995,28.998-9.081,35.07
	c-0.323,0.178-0.568,0.442-0.745,0.745c-5.704-0.579-11.825,0.085-17.03,0.153c-8.188,0.108-15.888,2.77-23.935,3.378
	c-0.408,0.031-0.825,0.061-1.236,0.092c3.119-3.272,5.256-7.602,6.337-11.919c1.119-4.47,1.1-8.368-0.447-12.681
	c-0.535-1.493-0.988-3.412-1.973-4.696c-1.214-1.583-3.179-2.251-4.22-4.08c-0.347-0.609-1.313-0.338-1.31,0.355
	c0.006,2.315,1.77,3.375,2.51,5.483c0.97,2.758,1.646,7.035,1.539,9.823c-0.301,7.784-4.183,13.486-9.541,18.263
	c-5.216,0.415-10.461,0.904-15.539,1.7c-6.486,1.015-13.09,1.843-19.728,2.546c6.573-2.601,10.973-7.523,12.296-15.264
	c1.545-9.029-2.77-17.359-7.831-24.339c-0.841-1.16-2.578-0.179-1.934,1.13c2.976,6.037,5.474,12.154,5.511,19.066
	c0.045,8.294-5.909,14.465-12.414,18.664c-0.471,0.304-0.565,0.813-0.416,1.232c-8.291,0.801-16.602,1.416-24.768,1.942
	c-7.579,0.489-15.125,0.938-22.686,1.288c-1.38-1.38-2.526-3.013-3.613-4.644c-2.362-3.55-4.919-7.419-6.324-11.466
	c-0.347-0.998-1.83-1.101-2.131,0c-1.587,5.786,3.22,11.313,6.564,15.522c0.011,0.013,0.027,0.029,0.038,0.043
	c-4.295-0.114-8.587,0.404-13.16,0.594c-8.675,0.36-17.52,0.214-26.191-0.096c-6.602-0.236-13.137-0.796-19.748-0.665
	c-3.69,0.072-7.366,0.116-11.046,0.381c-1.894,0.136-4.431,0.803-6.855,1.195c-0.245-0.028-0.485-0.051-0.737-0.088
	c-1.512-0.222-2.904-0.435-4.447-0.494c-0.6-0.022-1.199-0.053-1.798-0.077c0.257-0.272,0.494-0.54,0.697-0.794
	c3.343-4.208,8.151-9.735,6.564-15.522c-0.301-1.101-1.784-0.998-2.131,0c-1.406,4.049-3.963,7.916-6.324,11.466
	c-1.086,1.632-2.232,3.264-3.613,4.644c-7.561-0.35-15.107-0.8-22.686-1.288c-8.166-0.527-16.477-1.141-24.768-1.942
	c0.148-0.419,0.054-0.928-0.416-1.232c-6.504-4.199-12.458-10.37-12.414-18.664c0.038-6.912,2.535-13.03,5.511-19.066
	c0.645-1.308-1.092-2.29-1.934-1.13c-5.061,6.98-9.378,15.31-7.833,24.339c1.325,7.74,5.724,12.663,12.296,15.264
	c-6.637-0.703-13.243-1.53-19.727-2.546c-5.079-0.795-10.324-1.285-15.539-1.7c-5.359-4.777-9.241-10.479-9.541-18.263
	c-0.108-2.786,0.569-7.064,1.539-9.823c0.742-2.109,2.504-3.169,2.51-5.483c0.001-0.693-0.964-0.964-1.31-0.355
	c-1.041,1.83-3.005,2.497-4.22,4.08c-0.986,1.285-1.438,3.204-1.973,4.696c-1.547,4.313-1.566,8.211-0.447,12.681
	c1.081,4.317,3.218,8.647,6.337,11.919c-0.41-0.031-0.827-0.061-1.236-0.092c-8.047-0.607-15.747-3.27-23.935-3.378
	c-5.205-0.069-11.325-0.731-17.03-0.153c-0.178-0.304-0.421-0.568-0.745-0.745C60.233,358.823,57.333,340.62,62.228,329.825z
	 M448.985,384.108c-27.773,0.067-55.504,2.15-83.126,4.524c-14.263,1.226-28.416,3.081-42.768,3.613
	c-15.463,0.572-31.347-0.005-46.641,2.733c-8.378,0.132-16.817-0.427-25.195-0.397c-7.491,0.027-15.068-0.322-22.615-0.625
	c-13.138-1.569-26.592-1.225-39.742-1.711c-14.351-0.53-28.503-2.387-42.768-3.613c-27.623-2.373-55.353-4.456-83.126-4.524
	c0.424-3.074,0.558-6.389,2.978-8.266c3.487-2.706,10.529-2.001,14.754-2.022c8.59-0.043,17.077,0.374,25.537,1.694
	c13.754,2.146,27.71,1.779,41.527,3.246c8.269,0.878,16.753,1.396,25.056,1.842c7.255,0.389,14.519,1.315,21.803,1.455
	c7.993,0.153,16.123,0.094,24.088,0.879c1.397,0.282,2.888,0.375,4.407,0.372c3.102,0.136,6.273-0.082,9.431-0.509
	c0.411-0.01,0.814-0.012,1.205-0.004c7.077,0.153,14.099,0.509,21.15,0.923c14.755,0.866,30.438,1.618,45.097-1.272
	c5.758-0.278,11.557-0.279,17.286-0.389c7.284-0.14,14.549-1.067,21.803-1.455c8.303-0.446,16.787-0.964,25.056-1.842
	c13.819-1.467,27.773-1.1,41.527-3.246c8.46-1.32,16.948-1.735,25.537-1.694c4.226,0.021,11.268-0.685,14.754,2.022
	C448.427,377.719,448.561,381.034,448.985,384.108z M82.512,472.245c-0.219,3.058-0.967,6.029-1.009,9.099
	c-0.032,2.324-0.393,5.146-0.231,7.716c-5.447-1.116-10.837-2.406-16.275-3.859c-4.076-1.089-7.648-2.462-11.367-4.507
	c-5.102-2.804-5.53-6.356-5.328-11.831c0.108-2.916,0.162-5.833,0.201-8.749c1.581,0.841,3.16,1.692,4.892,2.28
	c3.44,1.165,6.674,1.423,10.231,1.963c6.39,0.971,12.801,1.647,19.23,2.115C82.657,468.385,82.652,470.286,82.512,472.245z
	 M49.815,422.285c3.005,0.389,6.029,0.669,9.131,1.236c7.419,1.356,14.841,2.143,22.269,3.207c-0.271,2.329-0.175,4.767-0.223,7.024
	c-0.051,2.395-0.653,5.06-0.531,7.522c-4.949-0.68-9.856-1.757-14.741-2.932c-0.12-0.125-0.274-0.222-0.484-0.258
	c-0.152-0.027-0.305-0.053-0.457-0.08c-0.164-0.028-0.329-0.026-0.491-0.006c-5.056-1.234-10.09-2.546-15.118-3.613
	C49.572,430.426,50.174,426.18,49.815,422.285z M84.441,434.442c-0.043-2.311,0.076-4.837-0.167-7.255
	c0.301,0.047,0.601,0.089,0.903,0.138c6.07,0.974,12.121,0.927,18.208,1.794c4.63,0.66,9.281,1.326,13.945,1.789
	c-0.5,2.747-0.449,5.631-0.91,8.374c-0.359,2.141-0.086,4.35,0.193,6.51c-9.634-1.672-19.25-3.385-29.032-3.847
	c-1.181-0.055-2.357-0.151-3.532-0.262C84.619,439.354,84.485,436.848,84.441,434.442z M155.031,449.307
	c-7.844,0.051-15.669-0.114-23.377-1.127c-3.576-0.47-7.135-1.038-10.689-1.64c0.002-0.029,0.01-0.055,0.011-0.085
	c0.102-2.648-0.578-4.993-0.224-7.666c0.329-2.481,0.252-5.112-0.269-7.601c2.082,0.159,4.165,0.272,6.249,0.309
	c3.949,0.071,7.844,0.663,11.786,0.839c4.679,0.209,9.37-0.29,14.044-0.002c0.99,0.061,1.978,0.1,2.966,0.152
	c-0.269,2.863-0.224,5.77-0.279,8.631C155.201,443.661,154.642,446.678,155.031,449.307z M130.257,452.061
	c3.13,0.5,6.292,0.855,9.468,1.141c-0.67,2.601-0.978,5.031-0.944,7.949c0.026,2.22-0.494,3.97-0.795,6.105
	c-0.094,0.666-0.062,1.211,0.033,1.722c-0.888-0.143-1.777-0.29-2.664-0.431c-7.315-1.155-14.709-1.708-22.005-3.026
	c-2.733-0.494-5.415-0.85-8.147-1.095c-0.898-5.457,1.078-11.123-0.434-16.363C113.254,449.285,121.709,450.698,130.257,452.061z
	 M101.607,447.616c-0.036,0.937,0.069,1.855,0,2.862c-0.105,1.538-0.664,2.988-0.791,4.537c-0.235,2.852-0.456,6.019-0.233,8.972
	c-3.463-0.478-6.84-1.336-10.342-1.652c-7.867-0.711-15.739-1.019-23.602-1.876c-0.016-3.784,0.021-7.573-0.051-11.356
	c-0.011-0.58-0.509-4.481-0.83-6.975c5.533,1.619,11.376,2.932,17.017,3.385C89.111,446.02,95.371,446.758,101.607,447.616z
	 M62.355,441.088c0.016,0.005,0.032,0.01,0.047,0.015c-0.495,2.12-0.331,4.308-0.306,6.625c0.044,4.078-0.023,8.16-0.047,12.238
	c-2.283-0.252-4.562-0.544-6.794-1.02c-0.337-0.072-4.005-0.882-6.726-1.525c0.065-6.446,0.082-12.893,0.353-19.341
	c0.012-0.296,0.038-0.606,0.058-0.909C53.256,439.14,57.487,439.528,62.355,441.088z M119.977,493.555
	c-9.291-0.666-18.593-1.193-27.779-2.54c-1.974-0.289-3.921-0.625-5.864-0.972c-0.712-2.962-0.394-7.896-0.236-10.576
	c0.258-4.399,0.794-8.443,0.238-12.745c8.456,0.549,17.365,2.119,25.742,3.413c3.12,0.483,6.268,0.738,9.421,0.939
	C119.153,477.883,119.856,486.331,119.977,493.555z M157.609,491.471c-0.154,1.608-0.604,3.969-0.463,6.067
	c-4.356-0.207-8.699-0.517-12.926-1.275c-6.351-1.139-12.761-1.808-19.186-2.326c0.062-7.24,0.643-15.56-0.66-22.689
	c4.017,0.231,8.038,0.453,12.026,1.01c0.992,0.138,1.984,0.289,2.976,0.445c0.544,0.478,1.304,0.555,2.001,0.325
	c5.982,0.996,11.966,2.217,17.966,3.283C157.796,481.071,158.071,486.67,157.609,491.471z M143.161,469.816
	c-0.023-1.245-0.231-2.463-0.089-3.766c0.224-2.048,0.027-4.056-0.119-6.106c-0.154-2.161,0.294-4.347,0.167-6.46
	c11.475,0.8,23.128,0.492,34.523,0.133c0.471-0.015,0.944-0.022,1.417-0.032c-2.088,6.227-1.465,14.011-1.402,20.514
	C166.131,473.594,154.584,471.698,143.161,469.816z M198.969,444.149c0.075-1.43,0.512-2.802,0.578-4.234
	c0.086-1.839,0.002-3.778-0.242-5.674c4.242,0.058,8.482,0.011,12.713-0.163c4.681,0.323,9.717-0.38,13.904-0.555
	c2.916-0.122,5.839-0.163,8.763-0.157c-0.344,2.479-0.091,5.266-0.131,7.518c-0.058,3.153,0.081,6.222,0.625,9.291
	c-3.621,0.001-7.24-0.022-10.849-0.131c-4.921-0.148-9.894,0.049-14.817,0.129c-1.525,0.024-3.075,0.173-4.634,0.35
	c-1.685-0.077-3.368-0.198-5.042-0.432c-0.529-0.073-1.054-0.119-1.579-0.151c0.383-0.38,0.659-0.922,0.723-1.647
	C199.105,446.905,198.896,445.536,198.969,444.149z M312.443,439.914c0.067,1.433,0.503,2.803,0.578,4.234
	c0.073,1.388-0.136,2.757-0.015,4.144c0.064,0.725,0.339,1.268,0.723,1.647c-0.523,0.032-1.048,0.077-1.579,0.151
	c-1.156,0.16-2.316,0.263-3.478,0.342c-8.436-1.49-18.257-0.165-26.536-0.168c-1.19,0-2.381-0.012-3.571-0.02
	c0.002-0.153-0.006-0.311-0.043-0.478c-0.612-2.743-0.069-6.112-0.186-8.905c-0.093-2.204-0.061-4.379-0.153-6.562
	c3.124,0.009,6.248,0.024,9.375,0.078c7.24,0.126,14.767,0.606,22.076-0.124c1.016-0.002,2.033-0.001,3.051-0.016
	C312.441,436.137,312.357,438.075,312.443,439.914z M352.419,448.523c-0.016,0.022-0.035,0.038-0.051,0.06
	c-0.073,0.105-0.148,0.209-0.222,0.315c-0.077,0.11-0.137,0.23-0.184,0.354c-6.697-0.098-13.393-0.256-20.025-0.086
	c-3.101,0.08-6.031,0.655-9.099,0.827c-1.979,0.11-3.913-0.02-5.854-0.078c0.399-0.382,0.698-0.918,0.789-1.62
	c0.376-2.908-0.054-5.419-0.524-8.254c-0.326-1.964-0.315-3.925-0.479-5.879c4.666-0.125,9.333-0.344,13.994-0.599
	c7.326-0.4,14.618-0.566,21.918-0.883c-0.193,2.27-0.192,4.562-0.236,6.841C352.392,442.29,352.877,445.686,352.419,448.523z
	 M329.789,453.544c-0.623,2.475-0.348,4.906-0.185,7.595c0.263,4.331,0.01,8.765-0.066,13.126
	c-6.968,0.167-13.964,0.524-20.948,0.91c-4.603,0.255-9.194,0.162-13.777,0.207c2.241-2.504,0.943-8.635,1.003-11.572
	c0.066-3.22-0.096-6.41-0.393-9.597c0.421-0.016,0.841-0.021,1.263-0.038c3.85-0.163,7.779,0.119,11.605-0.338
	C315.468,453.834,322.661,453.509,329.789,453.544z M282.139,454.461c3.516-0.001,7.011-0.065,10.511-0.165
	c-0.634,3.102-0.702,6.352-0.898,9.514c-0.167,2.693-0.239,5.458-0.333,8.15c-0.053,1.49-0.086,2.47,0.909,3.48
	c-0.892,0.022-1.783,0.032-2.675,0.075c-4.355-0.151-8.969,0.426-13.061,0.322c-5.718-0.146-11.45-0.097-17.18-0.047
	c0.505-3.635-0.311-7.872-0.267-11.382c0.036-2.848,0.974-6.874,0.465-10.088C267.121,454.393,274.632,454.465,282.139,454.461z
	 M274.895,442.791c-0.032,1.983-0.713,5.26-0.045,7.435c-7.975-0.07-15.947-0.208-23.927-0.156
	c-4.018,0.027-8.041,0.075-12.063,0.099c0.337-3.036-0.125-6.288-0.157-9.286c-0.025-2.275,0.22-5.047-0.26-7.485
	c5.969,0.094,11.94,0.36,17.88,0.606c6.395,0.266,12.789,0.278,19.185,0.29C275.277,437.119,274.94,439.916,274.895,442.791z
	 M249.747,454.236c2.31,0.016,4.621,0.04,6.931,0.06c-0.429,3.717-0.829,7.432-0.966,11.176c-0.114,3.122-0.756,7.044-0.246,10.347
	c-1.619,0.011-3.238,0.024-4.856,0.024c-7.838,0.002-15.648,0.004-23.463-0.266c-1.44-0.049-2.886-0.097-4.334-0.137
	c0.375-4.344-0.091-9.087-0.229-13.418c-0.091-2.841-0.451-5.486-1.051-8.178c0.175,0.001,0.355-0.002,0.529-0.001
	C231.286,453.941,240.499,454.175,249.747,454.236z M200.766,453.821c6.048,0.562,12.423,0.119,18.428,0.032
	c-0.404,2.688-0.202,5.437-0.203,8.169c-0.004,4.475-0.104,8.896,0.145,13.357c-0.803-0.01-1.608-0.033-2.408-0.029
	c-0.129,0.001-0.267,0.012-0.4,0.018c-4.301-0.026-8.608,0.048-12.926-0.191c-6.984-0.387-13.979-0.743-20.948-0.91
	c-0.076-4.361-0.329-8.794-0.066-13.126c0.163-2.689,0.438-5.12-0.185-7.595C188.358,453.513,194.564,453.752,200.766,453.821z
	 M194.219,448.293c0.091,0.702,0.388,1.238,0.789,1.62c-1.941,0.059-3.876,0.189-5.854,0.078c-3.068-0.17-5.997-0.747-9.099-0.827
	c-6.633-0.17-13.328-0.012-20.025,0.086c-0.048-0.125-0.107-0.244-0.184-0.354c-0.073-0.105-0.147-0.209-0.222-0.315
	c-0.016-0.023-0.034-0.039-0.051-0.06c-0.458-2.837,0.026-6.233-0.027-9.002c-0.044-2.279-0.043-4.57-0.236-6.841
	c7.301,0.317,14.594,0.483,21.918,0.883c4.661,0.255,9.327,0.474,13.994,0.599c-0.164,1.955-0.153,3.915-0.479,5.879
	C194.273,442.874,193.843,445.384,194.219,448.293z M202.653,500.41c-0.616-0.034-1.233-0.062-1.849-0.105
	c-9.785-0.671-19.617-1.125-29.38-2.01c-3.051-0.277-6.15-0.414-9.258-0.54c-1.037-0.978,0.582-9.197,0.574-10.869
	c-0.013-2.664-0.119-5.206,0.018-7.873c0.042-0.806,0.049-1.483-0.009-2.122c5.745,0.948,11.507,1.695,17.308,1.872
	c7.889,0.242,15.913,0.926,23.934,1.288C202.632,486.548,202.659,493.801,202.653,500.41z M235.884,502.082
	c-1.167-0.066-2.332-0.116-3.504-0.209c-1.702-0.136-3.462-0.255-5.249-0.331c-6.491-0.672-12.971-0.7-19.462-0.91
	c-0.069-3.842-0.351-7.716-0.105-11.538c0.193-3.016,0.391-5.955-0.026-8.904c5.582,0.174,11.154,0.135,16.67-0.375
	c0.294,0.013,0.598,0.018,0.883,0.038c3.772,0.258,7.546,0.396,11.324,0.476C235.153,487.287,235.728,495.034,235.884,502.082z
	 M270.958,501.884c-4.808,0.156-9.616,0.304-14.426,0.404c-5.328,0.111-10.591,0.156-15.87,0.004
	c0.078-7.208,0.103-14.829-1.318-21.912c3.359,0.047,6.722,0.061,10.088,0.062c7.616,0.002,15.234-0.035,22.85,0.004
	C271.171,487.454,271.077,494.826,270.958,501.884z M304.321,500.632c-5.233,0.168-10.461,0.216-15.692,0.579
	c-2.455,0.114-4.846,0.271-7.032,0.336c-1.82,0.054-3.637,0.115-5.457,0.173c-0.058-4.185,0.004-8.326,0.067-12.506
	c0.047-3.058,0.191-5.932-0.593-8.761h0.018c4.946,0.045,9.971,0.362,14.841-0.426c4.634,0.304,9.301,0.309,13.977,0.163
	c-0.416,2.948-0.219,5.888-0.026,8.904C304.672,492.916,304.389,496.792,304.321,500.632z M349.826,497.755
	c-3.109,0.126-6.208,0.265-9.258,0.54c-9.763,0.884-19.595,1.337-29.379,2.01c-0.617,0.043-1.233,0.071-1.849,0.105
	c-0.005-6.608,0.021-13.862-1.337-20.358c8.021-0.362,16.045-1.047,23.934-1.288c5.801-0.178,11.563-0.925,17.308-1.872
	c-0.058,0.639-0.05,1.316-0.009,2.122c0.137,2.666,0.032,5.21,0.018,7.873C349.243,488.557,350.863,496.777,349.826,497.755z
	 M334.335,474.101c0.062-6.503,0.685-14.286-1.402-20.514c0.473,0.01,0.945,0.017,1.417,0.032
	c11.395,0.358,23.049,0.665,34.523-0.134c-0.127,2.111,0.321,4.297,0.167,6.46c-0.147,2.05-0.343,4.058-0.119,6.106
	c0.142,1.303-0.066,2.519-0.089,3.766C357.406,471.698,345.861,473.594,334.335,474.101z M427.551,434.442
	c-0.044,2.405-0.179,4.912,0.392,7.244c-1.176,0.111-2.351,0.206-3.532,0.262c-9.782,0.462-19.398,2.175-29.032,3.847
	c0.28-2.16,0.552-4.369,0.193-6.51c-0.459-2.744-0.409-5.627-0.91-8.374c4.662-0.463,9.313-1.129,13.945-1.789
	c6.086-0.867,12.137-0.822,18.208-1.794c0.301-0.049,0.601-0.091,0.903-0.138C427.475,429.605,427.592,432.133,427.551,434.442z
	 M462.821,434.386c-5.028,1.067-10.062,2.378-15.118,3.613c-0.162-0.02-0.326-0.022-0.491,0.006
	c-0.152,0.027-0.305,0.053-0.457,0.08c-0.209,0.037-0.364,0.133-0.484,0.258c-4.885,1.174-9.792,2.252-14.741,2.932
	c0.121-2.46-0.48-5.126-0.531-7.522c-0.048-2.256,0.048-4.694-0.223-7.024c7.427-1.064,14.85-1.852,22.269-3.207
	c3.102-0.567,6.126-0.846,9.131-1.236C461.818,426.18,462.418,430.426,462.821,434.386z M449.589,441.103
	c0.016-0.005,0.032-0.01,0.047-0.015c4.868-1.56,9.099-1.948,13.415-3.916c0.02,0.302,0.045,0.612,0.058,0.909
	c0.271,6.448,0.288,12.894,0.353,19.34c-2.721,0.644-6.389,1.452-6.726,1.525c-2.233,0.475-4.512,0.767-6.794,1.02
	c-0.023-4.079-0.091-8.161-0.047-12.238C449.92,445.411,450.085,443.223,449.589,441.103z M446.235,442.126
	c-0.321,2.495-0.819,6.395-0.83,6.975c-0.072,3.783-0.036,7.572-0.051,11.356c-7.863,0.858-15.735,1.166-23.602,1.876
	c-3.502,0.316-6.879,1.174-10.342,1.652c0.223-2.953,0.001-6.119-0.234-8.972c-0.127-1.549-0.686-2.999-0.791-4.537
	c-0.069-1.007,0.035-1.924,0-2.862c6.236-0.857,12.496-1.596,18.832-2.105C434.86,445.059,440.702,443.746,446.235,442.126z
	 M407.222,448.064c-1.51,5.24,0.464,10.907-0.432,16.363c-2.731,0.244-5.414,0.6-8.147,1.095
	c-7.296,1.318-14.689,1.871-22.005,3.026c-0.885,0.14-1.776,0.287-2.664,0.431c0.096-0.511,0.127-1.056,0.033-1.722
	c-0.302-2.135-0.822-3.886-0.795-6.105c0.034-2.918-0.274-5.348-0.944-7.949c3.174-0.287,6.337-0.642,9.468-1.141
	C390.283,450.698,398.736,449.285,407.222,448.064z M391.239,438.79c0.354,2.673-0.326,5.018-0.224,7.666
	c0.001,0.031,0.009,0.055,0.011,0.085c-3.554,0.6-7.114,1.169-10.689,1.64c-7.708,1.013-15.533,1.177-23.377,1.127
	c0.391-2.628-0.17-5.646-0.218-8.19c-0.055-2.861-0.01-5.769-0.279-8.631c0.988-0.051,1.977-0.091,2.966-0.152
	c4.674-0.288,9.365,0.211,14.044,0.002c3.942-0.175,7.836-0.767,11.786-0.839c2.084-0.038,4.169-0.149,6.249-0.309
	C390.987,433.678,390.91,436.309,391.239,438.79z M386.958,493.937c-6.426,0.518-12.835,1.187-19.186,2.326
	c-4.227,0.758-8.57,1.068-12.926,1.275c0.14-2.097-0.309-4.458-0.463-6.067c-0.462-4.801-0.187-10.4-1.733-15.16
	c6.001-1.067,11.983-2.288,17.966-3.283c0.697,0.23,1.457,0.153,2.001-0.325c0.992-0.156,1.984-0.305,2.976-0.445
	c3.987-0.558,8.008-0.78,12.026-1.01C386.316,478.377,386.897,486.697,386.958,493.937z M425.657,490.043
	c-1.942,0.348-3.889,0.682-5.863,0.972c-9.186,1.347-18.488,1.875-27.779,2.54c0.121-7.224,0.824-15.673-1.521-22.479
	c3.153-0.201,6.301-0.457,9.421-0.939c8.376-1.294,17.286-2.866,25.742-3.413c-0.556,4.302-0.021,8.346,0.238,12.745
	C426.05,482.146,426.369,487.082,425.657,490.043z M458.361,480.695c-3.719,2.045-7.291,3.418-11.367,4.507
	c-5.439,1.452-10.828,2.744-16.275,3.859c0.163-2.57-0.2-5.392-0.231-7.716c-0.042-3.07-0.791-6.041-1.009-9.099
	c-0.14-1.958-0.145-3.86-0.342-5.773c6.429-0.468,12.84-1.144,19.23-2.115c3.556-0.54,6.791-0.798,10.231-1.963
	c1.733-0.587,3.311-1.439,4.892-2.28c0.039,2.917,0.093,5.833,0.201,8.749C463.891,474.339,463.463,477.89,458.361,480.695z
	 M479.225,407.714c-0.19,4.23-1.812,3.366-5.519,4.502c-2.922,0.894-5.628,2.389-8.623,3.107
	c-5.079,1.217-10.788,0.945-16.016,1.879c-14.06,2.509-28.327,2.556-42.45,4.313c-13.295,1.653-26.849,3.033-40.272,2.817
	c-7.438-0.12-14.737,0.823-22.185,0.709c-7.425-0.114-14.885,0.498-22.308,0.737c-10.631,0.342-21.256,1.38-31.884,2.041
	c-0.805-0.001-1.61,0.001-2.409-0.011c-9.882-0.16-19.767,0.305-29.642-0.131c-9.532-0.421-18.938-0.291-28.468-0.257
	c-3.332,0.012-6.677,0.108-10.013,0.239c-9.766-0.659-19.529-1.566-29.299-1.881c-7.422-0.239-14.883-0.851-22.308-0.737
	c-7.448,0.114-14.747-0.829-22.185-0.709c-13.423,0.217-26.977-1.163-40.272-2.817c-14.122-1.756-28.39-1.804-42.45-4.313
	c-5.228-0.933-10.936-0.661-16.016-1.879c-2.993-0.718-5.701-2.213-8.623-3.107c-3.707-1.135-5.33-0.272-5.519-4.502
	c-0.118-2.606-0.24-5.513-0.058-8.12c0.358-5.151,3.596-5.595,7.874-6.342c7.191-1.255,14.361-1.304,21.648-1.362
	c28.087-0.222,56.606,0.478,84.527,3.455c13.952,1.488,28.084,2.147,42.141,2.329c7.736,0.1,15.61,0.426,23.463,0.385
	c2.88,0.545,5.867,0.703,8.843,0.857c9.421,0.487,18.723,1.473,28.184,1.509c9.777,0.036,19.664,0.806,29.422,0.443
	c9.128-0.339,19.453-0.002,28.281-2.861c5.364-0.091,10.715-0.263,16.001-0.332c14.056-0.184,28.188-0.843,42.141-2.329
	c27.921-2.977,56.439-3.675,84.527-3.455c7.288,0.058,14.458,0.105,21.648,1.362c4.279,0.747,7.517,1.192,7.874,6.342
	C479.464,402.202,479.341,405.109,479.225,407.714z"/>
<path d="M281.308,87.157c3.626,0.111,11.52-0.182,12.211-4.881c0.038-0.258-0.032-0.435-0.241-0.594
	c-1.805-1.373-3.417-0.999-5.559-1.05c-2.47-0.058-5.05-0.372-7.505-0.692c-4.144-0.539-7.397-0.551-11.264,1.287
	c-0.562,0.267-0.587,0.953-0.377,1.44C270.436,87.014,277.233,87.031,281.308,87.157z"/>
<path d="M304.13,269.701c8.914-6.279,12.143-18.285,13.217-28.575c0.694-6.653,0.494-13.508,0.462-20.192
	c-0.034-6.975-1.98-13.532-2.597-20.389c-0.108-1.196-1.881-1.237-1.895,0c-0.066,6.094,1.233,12.173,1.14,18.301
	c-0.086,5.634-0.419,11.303-0.71,16.932c-0.628,12.127-4.525,22.425-10.952,32.587C302.291,269.162,303.322,270.27,304.13,269.701z"
	/>
<path d="M324.743,241.43c-2.219,11.857-4.202,24.087-13.609,32.647c-1.078,0.981,0.3,2.449,1.461,1.893
	c12.092-5.788,13.989-18.22,16.307-30.054c1.337-6.824,1.871-13.33,1.571-20.287c-0.327-7.565-2.202-14.585-3.115-22.049
	c-0.261-2.132-3.594-2.221-3.415,0C324.966,216.335,327.137,228.644,324.743,241.43z"/>
<path d="M338.852,208.19c1.212,6.322,2.213,12.647,2.067,19.104c-0.092,4.035,0.304,10.194-1.085,13.964
	c-0.369,0.999,1.037,1.7,1.727,1.005c2.443-2.459,2.851-7.688,3.311-10.96c0.926-6.586,0.212-13.081-0.996-19.579
	c-2.239-12.048-5.128-25.296-12.409-35.448c-1.081-1.506-3.58-0.115-2.528,1.478C334.767,186.583,336.89,197.961,338.852,208.19z"/>
<path d="M197.65,307.007c-0.928,0.437-11.297,4.943-10.909,5.195c-0.349-0.227-0.884-0.08-1.08,0.283l-0.234,0.435
	c-0.476,0.883,0.132,1.821,1.087,1.895c6.679,0.514,12.874-2.621,18.793-5.36c5.453-2.524,11.177-4.813,16.97-6.45
	c7.282-2.057,13.764-0.718,21.087,0.089c1.624,0.179,3.251,0.211,4.88,0.195c-0.004-0.069-0.007-0.138-0.011-0.207
	c5.779,0.79,12.495,1.41,17.962,0.182c0.811-0.028,1.621-0.081,2.432-0.17c7.324-0.807,13.806-2.147,21.087-0.089
	c5.792,1.636,11.518,3.925,16.97,6.45c5.919,2.741,12.114,5.875,18.793,5.36c0.955-0.073,1.564-1.012,1.087-1.895l-0.234-0.435
	c-0.196-0.363-0.731-0.509-1.08-0.283c0.387-0.251-9.982-4.758-10.909-5.195c-2.902-1.368-5.61-3.077-8.532-4.432
	c-5.469-2.534-11.274-5.15-17.242-6.431c-7.282-1.563-13.719-0.192-20.885,0.437c-4.463-1.274-9.727-0.207-14.168-0.164
	c-4.508,0.044-8.842,0.032-13.292-0.315c-1.069-0.083-2.28-0.274-3.463-0.317c-4.373-0.438-8.681-0.64-13.335,0.359
	c-5.969,1.281-11.772,3.897-17.242,6.431C203.26,303.928,200.552,305.639,197.65,307.007z"/>
<path d="M283.292,309.396c-2.23-1.456-4.095-0.873-6.494-1.301c-3.717-0.663-7.131-1.899-10.76-1.433
	c-4.59-1.223-9.246-1.359-14.126-1.051c-2.643,0.167-5.752,0.231-8.511,0.977c-2.713,0.163-5.374,1.002-8.209,1.506
	c-2.398,0.427-4.264-0.156-6.494,1.301c-1.643,1.073-2.829,2.702-3.577,4.489c-1.745,4.176-0.31,8.574,3.885,10.52
	c2.291,1.062,4.973,1.086,7.408,1.617c0.007,0.001,0.013,0.004,0.021,0.005c5.668,2.229,13.647,1.97,19.121,1.759
	c3.99-0.154,10.756,0.418,15.593-1.128c1.419,0.069,2.818-0.285,4.422-0.636c2.435-0.531,5.118-0.555,7.408-1.617
	c4.194-1.945,5.631-6.344,3.885-10.52C286.12,312.097,284.934,310.469,283.292,309.396z M281.772,317.859
	c-0.628,1.782-3.599,1.659-5.098,1.937c-2.008,0.374-4.009,1.018-5.932,1.794c-4.984-0.314-10.461,0.789-15.184,0.997
	c-3.572,0.157-6.936-0.328-10.478-0.509c-0.353-0.018-1.354,0.015-2.584,0.048c-2.296-1.015-4.731-1.874-7.181-2.329
	c-1.499-0.279-4.469-0.157-5.098-1.937c-0.409-1.157,0.79-3.073,1.607-3.717c1.176-0.926,2.667-0.612,4.045-0.975
	c1.297-0.342,2.328-0.727,3.643-0.996c1.15-0.235,2.039-0.748,3.09-1.247c0.017-0.007,0.033-0.013,0.05-0.021
	c3.63,0.454,7.674-0.474,11.165-0.427c4.343,0.058,9.444,0.988,13.728-0.189c0.621,0.157,1.237,0.35,1.842,0.637
	c1.051,0.5,1.94,1.012,3.09,1.247c1.314,0.268,2.346,0.654,3.643,0.996c1.378,0.362,2.871,0.049,4.045,0.975
	C280.984,314.787,282.181,316.701,281.772,317.859z"/>
<path d="M385.012,336.694c2.463,3.61,6.787,8.623,5.478,13.233c-0.535,1.885,2.21,2.553,2.879,0.794
	c2.284-6.018-1.946-11.913-5.185-16.765c-2.079-3.114-6.205-8.134-10.55-7.062c-0.787,0.195-0.742,1.334,0,1.55
	C380.147,329.175,383.705,334.779,385.012,336.694z"/>
<path d="M342.944,371.477c6.684,0.118,10.222-8.075,10.828-13.652c0.446-4.103,0.229-8.506-0.629-12.559
	c-0.945-4.466-3.516-7.504-5.57-11.421c-0.583-1.112-2.403-0.333-2.019,0.851c1.899,5.879,3.869,10.569,3.767,16.938
	c-0.109,6.824-1.496,13.662-7.045,18.226C341.61,370.405,342.188,371.464,342.944,371.477z"/>
<path d="M273.694,70.666c2.021-0.481,3.441-2.299,5.572-2.45c1.609-0.114,4.023,0.567,5.67,0.765
	c3.609,0.436,6.688,1.559,10.064,2.792c0.487,0.178,1.004-0.371,0.847-0.847c-1.397-4.232-7.696-6.34-11.669-7.084
	c-4.257-0.797-11.916-1.712-13.045,4.265C270.838,69.669,272.068,71.053,273.694,70.666z"/>
<path d="M309.449,367.468c0.218-4.559-1.527-8.837-1.249-13.471c0.269-4.467,1.504-9.128,3.4-13.182
	c0.318-0.682-0.547-1.161-0.992-0.579c-6.473,8.474-7.824,17.534-3.922,27.605C307.251,369.3,309.369,369.113,309.449,367.468z"/>
<path d="M266.833,62.851c0.081-0.273,0.062-0.583-0.087-0.872c-0.907-1.756-2.796-2.436-4.28-3.523
	c-2.011-1.474-4.777-2.524-7.263-2.622c-3.112-0.122-6.62,1.163-8.768,3.556c-1.012,0.779-1.986,1.885-2.185,3.053
	c-0.238,0.253-0.378,0.607-0.3,0.989C246.328,75.015,268.641,70.538,266.833,62.851z M252.201,59.932
	c1.675-0.528,3.644-0.494,5.179,0.082c2.378,0.892,3.679,2.377,5.608,3.139c-1.806,2.21-4.654,3.234-7.572,3.498
	c-2.692,0.242-5.005-0.126-7.12-1.929c-0.414-0.353-0.753-0.709-1.092-1.059c1.091-1.195,2.279-2.353,3.691-3.166
	C251.299,60.267,251.738,60.078,252.201,59.932z"/>
<path d="M255.069,105.9c4.169,0.422,10.7-2.654,11.456-7.035c0.066-0.385-0.098-0.846-0.531-0.936
	c-3.93-0.816-7.486,3.306-11.412,2.847c-1.968-0.23-3.836-0.189-5.675-1.143c-1.705-0.884-2.294-1.877-4.24-1.467
	c-0.787,0.167-0.974,1.059-0.686,1.686C246.045,104.359,250.552,105.442,255.069,105.9z"/>
<path d="M223.306,245.372c-0.932,0.157-0.754,1.461,0,1.716c0.544,0.291,1.087,0.582,1.63,0.873
	c0.338,0.367,0.975,0.551,1.452,0.385c2.852-1.004,7.224-0.369,10.273-0.574c3.838-0.257,7.713-0.806,11.556-0.89
	c7.277-0.159,14.612,0.18,21.861-0.115c1.201-0.049,1.478-1.481,0.579-2.139c-7.396-5.424-19.721-3.134-28.17-2.245
	C235.805,243.084,228.363,244.519,223.306,245.372z"/>
<path d="M246.997,290.928c5.975,0.821,11.827,0.009,17.597-1.555c4.089-1.108,8.206-2.195,12.207-3.586
	c2.611-0.907,5.087-2.939,7.625-3.701c1.125-0.338,0.812-1.83-0.263-1.945c-3.653-0.393-7.925,1.646-11.568,2.381
	c-5.844,1.178-11.736,3.054-17.695,3.462c-5.8,0.397-11.072-0.872-16.539-2.64c-5.141-1.663-14.065-4.485-16.425-10.053
	c-0.409-0.964-1.771-0.371-1.819,0.492C219.519,284.705,239.039,289.836,246.997,290.928z"/>
<path d="M290.285,277.396c-0.078,0-0.08,0.122,0,0.122S290.364,277.396,290.285,277.396z"/>
<path d="M243.402,117.793c-0.07,0.64,0.4,1.193,0.878,1.531c6.269,4.429,17.76,3.538,23.568-1.004
	c1.026-0.802,0.114-2.401-1.004-2.425c-3.974-0.082-7.925,1.728-12.012,1.757c-3.521,0.024-6.677-1.75-10.099-1.614
	c-0.747,0.029-1.2,0.566-1.277,1.277C243.437,117.475,243.42,117.634,243.402,117.793z"/>
<g>
</g>
<g>
</g>
<g>
</g>
<g>
</g>
<g>
</g>
<g>
</g>
<g>
</g>
<g>
</g>
<g>
</g>
<g>
</g>
<g>
</g>
<g>
</g>
<g>
</g>
<g>
</g>
<g>
</g>
</svg>
