<?xml version="1.0" encoding="iso-8859-1"?>
<!-- Generator: Adobe Illustrator 19.0.0, SVG Export Plug-In . SVG Version: 6.00 Build 0)  -->
<svg version="1.1" id="Layer_1" xmlns="http://www.w3.org/2000/svg" xmlns:xlink="http://www.w3.org/1999/xlink" x="0px" y="0px"
	 viewBox="0 0 511.999 511.999" style="enable-background:new 0 0 511.999 511.999;" xml:space="preserve">
<path style="fill:#EFE7D3;" d="M121.497,388.863c3.195,2.892,5.037,7.343,4.43,11.634c-0.508,3.598-2.439,7.526-0.497,10.597
	c1.7,2.688,5.82,3.003,8.471,1.246c2.651-1.757,3.989-4.978,4.419-8.129c0.429-3.151,0.098-6.351,0.183-9.53
	c0.077-2.878,0.498-6.832,3.204-8.587c3.564-2.31,10.325-1.932,14.303-1.346c2.051,0.302,4.209,0.895,5.561,2.468
	c2.471,2.874,1.081,7.219,0.149,10.892c-0.744,2.935-1.093,6.096-0.078,8.951c1.014,2.853,3.687,5.281,6.714,5.214
	c3.982-0.087,6.76-4.268,7.207-8.227c0.446-3.959-0.682-7.916-0.828-11.896c-0.28-7.704,3.869-10.676,11.018-10.728
	c3.933-0.028,10.353-0.909,13.472,2.21c4.049,4.049,1.843,11.984,0.909,16.741c-0.759,3.87-0.586,8.589,2.651,10.84
	c2.854,1.985,7.06,0.974,9.438-1.562c2.379-2.536,3.215-6.178,3.263-9.654s-0.592-6.926-0.731-10.4
	c-0.079-1.992,0.106-4.22,1.574-5.57c1.487-1.369,3.745-1.346,5.764-1.241c2.892,0.149,5.784,0.297,8.675,0.446
	c1.836,0.095,3.734,0.18,5.454-0.471c2.774-1.05,4.563-3.875,5.179-6.776c0.545-2.565,0.018-4.934,0.047-7.487
	c0.025-2.07,0.498-4.157,0.715-6.252c0.724-7.008-0.294-11.595-2.721-18.087c-2.244-6.008,0.646-12.775,4.66-17.776
	c4.761-5.934,11.074-9.218,11.132-17.555c0.024-3.323-0.229-6.863,1.433-9.741c1.11-1.924,2.951-3.304,4.328-5.048
	c4.951-6.27,3.827-16.38,3.603-23.845c-0.382-12.74-0.395-25.486-0.435-38.231c-0.02-6.471,0.035-12.954-0.129-19.424
	c-0.054-2.113-0.609-4.102-0.718-6.176c-0.136-2.575,0.802-5.088,0.809-7.678c0.008-2.945-0.803-6.004-2.818-8.153
	c-1.076-1.148-2.439-1.984-3.623-3.02c-3.408-2.982-5.192-7.677-4.76-12.186c0.297-3.093,1.547-6.001,2.444-8.977
	c1.82-6.036,1.531-11.602,1.229-17.773c-0.151-3.094,0.417-6.292,0.09-9.362c-0.338-3.161-0.359-5.793,3.233-7.313
	c2.516-1.065,5.396-0.732,8.059-0.119c3.019,0.695,6.763,1.505,8.744-0.877c0.876-1.054,1.122-2.479,1.305-3.837
	c1.213-8.963-0.153-17.95,0.918-26.767c0.946-7.792,0.727-15.936,0.806-23.776c0.091-9.058,0.07-18.13-0.385-27.178
	c-0.182-3.626-0.609-6.627-0.367-10.266c0.239-3.578-0.101-7.402-2.488-10.266c-1.16-1.392-2.798-2.584-3.087-4.372
	c-0.268-1.653,0.726-3.221,1.674-4.601c2.124-3.092,4.247-6.183,6.371-9.275c1.44-2.096,3.755-6.541,6.267-6.74
	c8.386-0.661,15.214,7.256,17.38,14.586c0.517,1.748,0.81,3.687,0.067,5.35c-0.516,1.155-1.473,2.046-2.165,3.104
	c-1.962,2.999-1.588,6.897-1.141,10.452c0.179,1.417,0.443,2.991,1.586,3.849c2.02,1.517,4.889-0.342,7.388,0.026
	c2.394,0.352,4.022,2.774,4.38,5.168c0.357,2.394-0.241,4.811-0.622,7.202c-0.381,2.391-0.514,4.977,0.661,7.093
	c1.928,3.473,7.45,4.138,10.15,1.225c1.733-1.871,2.173-4.589,2.236-7.139c0.061-2.549-0.169-5.155,0.534-7.606
	c2.192-7.642,15.044-7.036,15.736,1.26c0.197,2.358-0.41,4.696-0.718,7.042s-0.271,4.895,1.046,6.86
	c1.86,2.775,6.035,3.462,8.922,1.782c2.887-1.68,4.367-5.278,3.961-8.594c-0.252-2.055-1.127-3.975-1.664-5.975
	c-0.538-1.999-0.701-4.26,0.377-6.027c0.569-0.932,1.456-1.657,2.461-2.085c3.519-1.5,8.604,0.147,12.283,0.503
	c2.479,0.239,5.561,0.44,8.005,0.059c2.67-0.415,4.954-1.424,6.692,1.77c1.129,2.076,0.925,4.631,0.285,6.906
	c-0.638,2.275-1.675,4.436-2.151,6.751c-0.337,1.642-0.341,3.49,0.664,4.832c1.004,1.342,2.769,1.858,4.433,2.067
	c2.489,0.313,5.225,0.054,7.137-1.569c2.769-2.351,2.827-6.524,2.699-10.154c-0.167-4.731,0.177-9.668,5.566-10.387
	c4.2-0.559,8.799,1.878,9.581,6.302c0.479,2.706-0.155,5.472-0.207,8.22c-0.052,2.748,0.699,5.826,3.047,7.253
	c2.859,1.738,6.861,0.015,8.527-2.887c1.666-2.902,1.502-6.508,0.779-9.775c-0.827-3.732-0.988-9.259,4.492-8.341
	c1.775,0.298,3.574,1.055,5.311,0.583c4.675-1.271,3.792-9.778,4.231-13.508c0.157-1.33,0.145-3-1.044-3.616
	c-1.05-0.543-2.358,0.136-3.5-0.169c-1.26-0.337-1.927-1.823-1.775-3.119c0.342-2.902,17.716-21.943,18.384-21.373
	c6.074,5.184,12.734,11.879,14.847,19.876c0.435,1.648,0.309,3.537-0.745,4.879c-0.854,1.088-2.218,1.713-2.977,2.868
	c-0.827,1.259-0.774,2.879-0.692,4.383c0.858,15.674,1.379,31.233,1.551,46.934c0.083,7.541,0.304,15.079,0.564,22.616
	c0.128,3.701,0.466,7.449,0.474,11.144c0.007,3.263-1.452,6.381-1.276,9.751c0.163,3.11,1.699,6.345,4.53,7.643
	c3.297,1.512,7.096,0.05,10.691-0.414c1.641-0.212,3.399-0.184,4.828,0.65c2.632,1.538,3.143,5.107,2.974,8.151
	c-0.398,7.174-2.947,14.266-2.023,21.391c0.596,4.599,2.613,8.914,3.302,13.499c0.689,4.585-0.395,9.989-4.396,12.332
	c-2.199,1.289-5.212,1.664-6.387,3.926c-0.605,1.163-0.537,2.548-0.455,3.857c0.325,5.145,0.272,10.354,1.683,15.316
	c1.451,5.104,0.862,10.744,0.907,16.027c0.084,9.964,0.316,20.218-0.585,30.136c-0.947,10.425-1.639,20.791-1.452,31.27
	c0.032,1.789,0.168,3.777,1.463,5.011c0.864,0.824,2.096,1.148,3.032,1.891c1.841,1.463,2.113,4.162,1.8,6.492
	c-0.313,2.331-1.061,4.665-0.692,6.987c0.813,5.12,6.344,7.768,10.147,11.289c3.87,3.581,6.172,8.5,8.382,13.287
	c1.246,2.699,2.504,5.816,1.309,8.539c-0.602,1.37-1.75,2.416-2.582,3.66c-2.325,3.476-1.953,8.066-1.053,12.149
	c3.719,16.879,4.601,35.429,1.523,52.394c-2.316,12.77,0.251,25.695,1.207,38.462c0.432,5.761-0.581,11.96,0.452,17.592
	c1.081,5.899,0.851,11.861,0.908,17.869c0.051,5.383-1.077,10.777-1.791,17.398c-5.607,1.212-10.74,3.109-15.942,3.327
	c-63.74,2.689-127.487,4.138-191.313,3.495c-77.163-0.778-154.341-0.034-231.512,0.071c-14.966,0.02-29.866-0.415-45.4-4.843
	c-0.91-5.43-2.786-10.766-2.527-15.995c2.226-44.863-4.591-89.471-3.531-134.286c0.074-3.143,0.219-6.367-0.352-9.426
	c-1.147-6.138-0.585-12.518,2.643-17.961c1.657-2.794,3.87-4.992,6.276-7.132c2.326-2.069,5.784-2.595,7.749-4.929
	c2.505-2.978,1.304-7.57,2.71-11.198c1.276-3.288,4.91-5.49,8.415-5.095c3.505,0.395,6.56,3.349,7.072,6.838
	c0.2,1.361,0.053,2.78,0.473,4.09c0.87,2.714,4.331,2.309,6.516,3.34c13.815,6.516,16.023,16.978,15.412,31.012
	c-0.277,6.384,0.281,12.765,1.063,19.096c0.415,3.362,0.959,6.707,1.369,10.067c0.389,3.191-0.997,6.12-0.615,9.37
	c0.311,2.65,1.94,5.33,4.511,6.043c1.994,0.553,4.093-0.145,6.156-0.307c7.073-0.553,6.314,11.178,5.832,15.648
	c-0.312,2.897-0.201,6.223,1.963,8.175c1.744,1.573,4.293,1.761,6.639,1.869c2.128,0.098,4.533,0.095,6.03-1.42
	c1.37-1.387,1.479-3.545,1.506-5.493c0.043-3.148,0.344-6.399,0.091-9.537c-0.163-2.029-0.789-3.405,0.316-5.256
	c2.562-4.294,9.561-5.763,13.996-4.42C118.531,386.683,120.137,387.632,121.497,388.863z"/>
<g>
	<path style="fill:#C6BA9E;" d="M254.623,169.75c-2.391,4.771-1.761,14.694,3.404,17.45c8.441,4.505,19.972,5.161,29.372,5.146
		c31.666-0.05,63.127-0.482,94.767-2.048c10.816-0.536,21.672-0.348,32.5-0.598c12.601-0.292,25.45-1.603,38.008-0.563
		c7.592,0.629,15.152,0.323,22.726-0.186c2.3-0.155,5.608,0.413,7.745-0.526c4.101-1.802,3.241-7.351,3.475-10.95
		c0.173-2.666,1.784-7.139-1.565-8.525c-1.126-0.466-3.661,0.558-4.782,0.748c-2.748,0.466-4.663,0.369-7.395,0.045
		c-5.808-0.688-11.762-0.387-17.612-0.865c-12.671-1.037-25.504,1.03-38.181,0.48c-5.696-0.247-11.489,0.473-17.203,0.688
		c-7.289,0.274-14.523-0.778-21.755-0.543c-10.549,0.343-21.03,3.067-31.612,2.111c-8.005-0.722-15.751-1.245-23.8-1.312
		c-8.529-0.071-16.951-1.621-25.567-1.594c-7.132,0.022-14.222-0.669-21.343-0.796c-3.382-0.06-6.754-0.408-10.145-0.268
		C262.228,167.783,259.698,169.393,254.623,169.75z"/>
	<path style="fill:#C6BA9E;" d="M287.314,3.039c-0.842,0.63-1.398,1.6-2.068,2.404c-1.956,2.342-3.989,4.603-5.808,7.06
		c-1.237,1.671-2.159,3.436-3.085,5.285c-0.731,1.46-1.88,3.209-2.086,4.876c-0.104,0.839-0.113,3.527,0.485,3.987
		c0.37,0.285,1.227,0.039,1.672,0.119c0.419,0.077,0.797,0.332,1.208,0.42c0.39,0.083,0.992-0.028,1.333,0.169
		c0.68,0.395,0.634,1.251,0.661,1.959c0.071,1.796,0.077,3.593,0.174,5.392c0.312,5.813,0.467,11.619,0.544,17.443
		c0.045,3.423-0.591,6.708-0.918,10.098c-0.226,2.353,0.193,4.635,0.466,6.963c0.324,2.754,0.232,6.386,3.408,7.279
		c1.532,0.43,2.898,1.143,4.514,1.127c2.357-0.025,4.746-0.731,7.047-1.204c1.56-0.32,3.942-1.232,5.149-2.332
		c0.651-0.592,0.902-1.712,1.465-2.33c0.986-1.084,2.198-1.477,3.548-1.913c1.223-0.395,2.469-0.407,3.677-0.818
		c1.937-0.66,3.585-2.06,4.639-3.799c0.284-0.469,0.503-1.232,0.932-1.612c0.352-0.312,0.955-0.287,1.285-0.589
		c0.585-0.537,0.367-1.204,0.37-1.985c0.011-2.154-0.482-4.186-0.607-6.328c-0.123-2.118-0.07-3.999,0.239-6.093
		c0.209-1.422,0.175-3.861-1.187-4.816c-0.75-0.526-2.115-0.247-2.98-0.252c-1.136-0.007-2.216-0.208-3.34-0.271
		c-2.116-0.119-3.493,0.039-4.931-1.725c-2.21-2.711-2.583-7.423-2.224-10.766c0.145-1.354,0.369-3.072,1.746-3.665
		c0.782-0.337,1.667-0.251,2.427-0.665c1.849-1.006,1.6-3.052,1.297-4.825c-0.549-3.214-3.08-5.586-5.094-8.05
		c-1.07-1.31-2.427-2.321-3.526-3.592c-1.13-1.309-1.657-2.976-2.958-4.145c-0.886-0.795-1.914-1.297-2.746-2.163
		c-0.179-0.187-0.454-0.705-0.741-0.839C290.437,2.434,288.622,3.63,287.314,3.039z"/>
	<path style="fill:#C6BA9E;" d="M339.687,43.095c1.78,0.383,3.723,1.029,4.318,2.857c0.78,2.397,0.08,4.939,0.09,7.403
		c0.012,3.039-0.462,5.981-0.799,8.99c-0.46,4.112-2.838,7.966-6.891,9.245c-5.203,1.642-7.988-3.952-8.585-8.138
		c-0.694-4.861-0.097-9.772,0.484-14.612c0.096-0.802-0.044-2.657,0.413-3.311c0.369-0.529,1.387-0.488,1.991-0.665
		C333.443,44.067,336.82,42.478,339.687,43.095z"/>
	<path style="fill:#C6BA9E;" d="M356.614,43.635c-0.277,1.372-0.265,2.832-0.356,4.222c-0.199,3.04-0.41,6.094-0.283,9.139
		c0.158,3.762,0.168,7.716,2.806,10.708c1.111,1.26,2.705,2.216,3.998,3.294c1.284,1.07,2.576,1.899,4.091,2.589
		c2.393,1.09,5.091,1.625,7.754,1.26c1.446-0.197,2.952-0.643,4.337-1.095c1.713-0.559,2.431-1.02,3.136-2.688
		c0.926-2.192,1.614-4.678,1.859-7.04c0.259-2.497,0.719-4.944,1.011-7.429c0.456-3.884,0.882-7.704,0.797-11.632
		c-0.05-2.288-0.688-3.006-2.997-2.85c-4.623,0.312-9.265,0.447-13.899,0.447c-2.343,0-4.608,0.087-6.921-0.316
		C360.173,41.937,358.684,41.974,356.614,43.635z"/>
	<path style="fill:#C6BA9E;" d="M398.283,43.992c-0.007,4.248-0.962,8.33-1.165,12.55c-0.138,2.912,0.223,5.44,0.815,8.277
		c0.566,2.721,1.729,5.344,4.499,6.354c2.112,0.77,4.931,1.664,7.025,0.507c2.229-1.232,3.187-2.62,3.991-5.031
		c0.394-1.182,0.184-2.155,0.216-3.38c0.047-1.834,0.39-3.587,0.134-5.42c-0.536-3.821,1.255-8.653-1.253-11.955
		c-0.704-0.926-1.149-1.368-2.256-1.765c-1.252-0.449-2.357-1.192-3.709-1.282c-1.588-0.106-3.265-0.2-4.855-0.2
		C400.075,42.648,400.293,43.38,398.283,43.992z"/>
	<path style="fill:#C6BA9E;" d="M464.014,47.861c0.013-2.654,0.176-5.662-0.559-8.242c-0.61-2.144-2.057-3.913-2.475-6.167
		c-0.284-1.53,0.394-2.472,0.876-3.839c0.471-1.335,0.838-1.565,2.239-2.064c2.194-0.78,3.442-2.145,2.974-4.585
		c-0.398-2.079-1.866-4.277-3.268-5.843c-1.97-2.203-2.644-5.158-4.091-7.689c-1.126-1.967-2.048-4.03-4.018-5.276
		c-1.969-1.245-4.221-0.127-6.092,0.85c-3.275,1.71-5.567,4.305-7.735,7.247c-1.654,2.243-3.41,4.485-4.774,6.917
		c-0.772,1.377-2.735,3.993-2.423,5.732c0.234,1.304,1.499,1.128,2.487,1.418c1.19,0.35,1.597,1.229,2.042,2.302
		c0.694,1.677,0.647,3.93,0.324,5.69c-0.328,1.784-0.443,3.615-0.821,5.386c-0.155,0.727-0.409,2.541-1.068,3.009
		c-0.709,0.505-1.127,0-1.777-0.303c-1.418-0.661-2.95-0.216-4.462-0.394c-1.977-0.233-2.829,0.759-4.854,2.343
		c0,1.732-0.102,3.434-0.264,5.16c-0.151,1.618-0.381,3.236-0.439,4.861c-0.06,1.652,0.387,3.114,0.617,4.728
		c0.252,1.763,0.04,3.589,0.824,5.223c0.521,1.088,0.791,2.581,1.817,3.27c0.657,0.441,1.936,1.252,2.686,1.43
		c0.862,0.205,1.707-0.28,2.501-0.492c0.764-0.203,1.498-0.278,2.294-0.307c1.282-0.047,1.735-0.083,2.372,1.036
		c0.348,0.61,0.719,1.198,0.923,1.873c0.4,1.317,0.11,2.855,1.076,3.962c1.549,1.771,4.699,2.556,6.899,2.688
		c3.315,0.197,6.66,0.985,9.923,0.38c1.524-0.284,1.61-0.096,2.315-1.591c0.648-1.377,0.793-2.39,0.953-3.875
		c0.318-2.971,1.055-5.912,1.567-8.853C463.507,58.653,463.987,53.118,464.014,47.861z"/>
	<path style="fill:#C6BA9E;" d="M371.726,248.94c1.919,0.467,3.721,1.356,5.674,1.655c2.358,0.361,4.346,0.823,6.626,1.565
		c4.404,1.435,8.682,3.344,12.916,5.23c0.669,0.298,3.926,1.595,2.897,2.775c-0.396,0.454-1.991,0.488-2.52,0.492
		c-1.153,0.009-2.291-0.197-3.45-0.187c-10.16,0.096-20.298-0.134-30.473,0.228c-5.655,0.201-11.245-0.205-16.881-0.319
		c-1.041-0.021-5.095,0.251-3.441-1.66c2.896-3.344,8.377-4.468,12.412-5.621c4.499-1.286,8.95-2.912,13.379-4.426
		C370.854,247.991,369.739,249.461,371.726,248.94z"/>
	<path style="fill:#C6BA9E;" d="M390.772,308.135c-0.936-0.329-2.301-0.11-3.275-0.07c-2.62,0.11-5.227-0.025-7.85-0.024
		c-3.213,0-6.435,0.288-9.646,0.183c-2.876-0.093-5.675-0.663-8.568-0.63c-4.221,0.047-8.394,0.774-12.608,0.896
		c-0.871,0.025-2.543-0.086-3.17,0.683c-0.789,0.968,0.162,2.863,0.506,3.876c0.92,2.704,1.173,5.493,3.956,6.906
		c1.717,0.871,3.807,1.173,5.696,1.327c2.969,0.241,5.96,0.503,8.938,0.61c3.419,0.124,6.813-0.193,10.228,0.102
		c2.873,0.247,5.601,0.122,8.469,0.083c1.776-0.024,3.632,0.346,5.38-0.091c1.169-0.292,2.009-0.987,3.033-1.539
		c1.407-0.758,1.808-1.428,2.545-2.902c0.848-1.697,2.576-4.109,1.824-6.012c-0.27-0.683-0.547-1.945-1.043-2.41
		c-0.488-0.459-1.497-0.533-2.106-0.719C392.196,308.133,391.374,307.746,390.772,308.135z"/>
	<path style="fill:#C6BA9E;" d="M265.497,293.649c0.813,0.117,1.421,0.763,2.096,1.169c0.59,0.355,1.304,0.581,1.815,1.058
		c1.206,1.126,1.059,2.847,1.445,4.335c0.344,1.331,1.048,2.593,1.236,3.965c0.206,1.491,0.102,3.183-0.078,4.678
		c-0.266,2.203-1.907,5.051-0.246,6.89c0.96,1.062,1.832,2.116,3.153,2.761c1.582,0.772,3.125,1.275,4.618,2.277
		c2.841,1.905,5.655,3.572,7.716,6.346c1.739,2.341,3.055,4.339,3.933,7.139c1.059,3.38,1.341,8.994-2.567,10.631
		c-1.575,0.66-4.07,0.531-5.722,0.526c-2.866-0.009-5.746,0.368-8.604,0.255c-7.835-0.31-15.648-0.539-23.499-0.521
		c-3.436,0.008-8.433,0.611-11.574-1.372c-1.986-1.252-1.683-3.697-1.22-5.733c1.756-7.741,6.319-14.245,12.438-19.154
		c1.782-1.43,4.998-2.783,6.002-4.996c0.712-1.569,0.13-3.656-0.151-5.238c-0.664-3.726,0.417-7.255,2.222-10.529
		c1.062-1.926,2.58-4.364,4.753-5.203C264.319,292.525,264.882,292.454,265.497,293.649z"/>
	<path style="fill:#C6BA9E;" d="M240.013,384.32c3.116,0.482,2.093,6.229,1.927,8.257c-0.492,6.046-1.433,12.232-3.477,17.963
		c-0.743,2.081-1.785,4.038-3.226,5.725c-0.973,1.14-2.099,1.406-3.538,1.623c-3.363,0.508-6.615,1.256-9.781-0.435
		c-2.543-1.359-3.27-2.994-3.903-5.73c-0.817-3.534-1.212-6.932-1.483-10.548c-0.169-2.26-0.423-4.459-0.403-6.73
		c0.019-2.074,0.362-4.121,0.369-6.193c0.004-0.97-0.222-1.785,0.481-2.472c0.765-0.748,2.15-1.093,3.161-1.276
		c3.185-0.578,6.685-0.744,9.918-0.628c2.521,0.091,5.012,0.529,7.539,0.533C238.783,384.412,238.822,384.135,240.013,384.32z"/>
	<path style="fill:#C6BA9E;" d="M184.675,382.962c-2.45,0.181-7.171,0.214-7.771,3.457c-0.471,2.542-0.493,5.265-0.648,7.844
		c-0.275,4.564-0.62,9.173-0.031,13.728c0.407,3.144,1.888,5.73,3.748,8.252c1.367,1.853,4.519,3.944,6.789,4.338
		c1.35,0.234,2.889,0.162,4.239-0.059c1.356-0.222,2.173-1.285,3.033-2.294c1.185-1.39,1.623-2.516,2.106-4.281
		c0.732-2.677,1.938-5.192,2.699-7.863c1.247-4.378,2.288-9.212,2.277-13.77c-0.007-2.705-0.018-5.219-2.282-7.048
		c-2.326-1.879-4.659-2.727-7.638-2.736C188.985,382.523,186.875,382.801,184.675,382.962z"/>
	<path style="fill:#C6BA9E;" d="M150.236,384.41c-1.259-0.258-2.599-0.038-3.834,0.228c-1.285,0.278-2.806,0.398-4.018,0.928
		c-1.573,0.688-2.093,2.329-2.254,3.937c-0.291,2.926-0.455,5.843-0.849,8.766c-0.997,7.405-1.587,16.945,4.899,22.136
		c0.842,0.674,1.71,1.466,2.617,2.042c1.089,0.692,2.398,0.845,3.632,1.104c1.505,0.316,2.669,0.221,3.935-0.74
		c1.122-0.851,2.903-1.976,3.591-3.229c0.435-0.793,0.63-1.874,0.948-2.727c0.409-1.096,0.933-2.171,1.298-3.279
		c0.752-2.284,0.77-4.925,1.038-7.304c0.513-4.556,0.482-9.333,0.105-13.901c-0.136-1.647,0.225-3.584-0.864-4.974
		c-0.668-0.853-1.522-0.881-2.482-1.216C155.155,385.191,152.199,384.546,150.236,384.41z"/>
	<path style="fill:#C6BA9E;" d="M115.541,387.271c-1.524,0-3.064,0.129-4.581,0.026c-1.834-0.124-3.597-0.306-5.327,0.465
		c-1.409,0.628-1.491,1.009-1.532,2.471c-0.063,2.209-0.83,4.284-1.153,6.452c-0.597,4.019-0.474,8.343-0.368,12.397
		c0.04,1.53-0.326,3.068-0.171,4.597c0.141,1.394,0.737,2.621,1.434,3.809c1.839,3.126,4.164,4.122,7.609,4.907
		c1.771,0.403,3.304,0.388,5.08,0.04c2.507-0.491,3.643-1.499,5.168-3.567c5.458-7.397,3.975-17.311,4.03-25.942
		c0.013-2.116-0.909-4.711-3.033-5.525c-1.16-0.445-2.312-0.48-3.529-0.417C117.945,387.045,116.766,386.83,115.541,387.271z"/>
	<path style="fill:#C6BA9E;" d="M85.46,401.936c-0.365,4.733-0.805,9.284-2.406,13.774c-0.99,2.776-2.371,5.292-5.046,6.712
		c-1.096,0.582-2.122,1.473-3.332,1.789c-1.448,0.377-2.576-0.253-3.792-1.001c-2.185-1.347-3.586-3.468-3.432-6.06
		c0.201-3.376,0.62-6.864,1.057-10.221c0.264-2.024,0.234-3.974,0.261-6.01c0.027-2.029,0.413-4.028,0.458-6.056
		c0.047-2.167-0.341-4.088,1.648-5.484c2.513-1.764,6.004-2.671,9.054-2.288c2.483,0.312,5.088,1.85,5.822,4.372
		c0.432,1.479,0.09,3.365,0.032,4.897C85.713,398.221,85.603,400.08,85.46,401.936z"/>
	<path style="fill:#C6BA9E;" d="M66.182,324.856c0.21,1.114,0.244,2.252,0.459,3.365c0.65,3.369,2.365,7.153,0.519,10.516
		c-0.767,1.398-2.644,1.963-3.965,2.657c-1.716,0.901-3.423,1.986-5.401,2.159c-1.933,0.169-4.345-0.357-6.197-0.906
		c-1.798-0.532-3.22-0.242-5.096-0.011c-4.478,0.553-8.992,0.837-13.505,0.721c-4.536-0.116-9.153,0.604-13.658,0.145
		c-2.491-0.254-5.374-0.095-7.598-1.407c-2.508-1.48-2.139-5.613-1.925-8.146c0.29-3.422,2.142-6.782,4.067-9.548
		c2.197-3.155,5.483-6.009,8.738-8.023c1.809-1.12,4.083-1.307,5.571-2.982c0.805-0.906,0.271-2.075,0.563-3.209
		c0.51-1.978,1.126-3.927,1.612-5.908c0.453-1.847,0.99-3.762,2.466-5.049c1.589-1.385,3.558-2.057,5.623-2.187
		c4.195-0.263,6.971,3.384,6.978,7.436c0.002,1.218,0.357,2.133,0.608,3.292c0.296,1.368,0.086,2.466,1.402,3.312
		c2.58,1.659,5.849,1.499,8.628,2.685c2.2,0.939,4.125,2.135,5.776,3.888C63.626,319.538,65.611,322.619,66.182,324.856z"/>
</g>
<path style="fill:#D3CBB8;" d="M66.028,349.011c-1.698-1.146-5.277,2.364-6.404,3.32c-5.926,5.028-9.452,10.973-12.702,17.978
	c-3.289,7.09-4.989,14.838-5.751,22.587c-0.681,6.924-1.165,15.093,1.795,21.559c5.361,11.712,13.082,21.335,23.267,29.275
	c7.174,5.593,14.361,11.243,22.393,15.563c9.67,5.2,19.649,9.459,30.157,12.666c21.166,6.458,43.63,7.234,65.577,8.538
	c10.612,0.631,21.197,1.135,31.826,1.387c8.376,0.197,16.978,1.625,25.335,0.674c6.378-0.725,12.492-1.726,18.94-1.369
	c4.949,0.274,9.629-0.858,14.536-0.73c3.41,0.09,6.721,1.071,10.115,1.427c2.574,0.271,4.091,0.838,5.535,3.107
	c2.444,3.839,0.758,9.936,0.183,14.171c-0.238,1.753-0.64,4.363-1.893,5.724c-1.158,1.258-1.591,1-3.602,1.224
	c-12.441,1.383-25.303,2.291-37.813,1.626c-6.377-0.339-12.799-0.406-19.169-0.867c-7.686-0.557-15.336-0.297-23.019-0.7
	c-7.81-0.409-15.28-0.888-23.128-0.598c-8.095,0.298-16.01-0.585-24.12,0.16c-3.386,0.311-6.863,0.739-10.261,0.33
	c-2.873-0.345-5.563-0.978-8.478-0.998c-5.966-0.041-12.012,0.291-17.955,0.8c-12.086,1.037-24.136,0.923-36.267,0.988
	c-11.674,0.061-23.194-0.575-34.852-0.987c-5-0.177-10.042-0.328-15.035-0.702c-4.097-0.307-8.417-0.05-12.468-0.654
	c-2.124-0.317-4.65-0.857-5.878-2.736c-1.735-2.658-1.548-6.705-1.761-9.69c-0.265-3.719-0.839-7.129-0.926-10.9
	c-0.109-4.776-0.609-9.501-0.601-14.282c0.019-10.827-0.993-21.712-0.082-32.556c0.572-6.814,2.222-15.975-0.413-22.484
	c-2.715-6.708-2.921-14.075-2.433-21.306c0.384-5.693,0.953-11.407,1.389-17.101c0.27-3.524,1.465-6.482,0.656-9.973
	c-0.805-3.476-0.407-7.15-0.75-10.734c-0.164-1.71,0.058-3.396-0.03-5.084c-0.045-0.856-0.747-2.479-0.271-3.307
	c0.955-1.66,5.587-0.417,7.235-0.277c3.393,0.29,6.576-0.064,9.977-0.092c3.248-0.027,6.232,0.56,9.553,0.299
	C40.962,344.089,68.305,343.523,66.028,349.011z"/>
<path style="fill:#C6BA9E;" d="M33.02,448.741c0.082,1.915-0.52,3.928-0.816,5.802c-0.49,3.108-0.52,6.193-0.707,9.321
	c-0.124,2.085-0.456,4.333,0.281,6.336c0.544,1.476,1.441,3.401,3.053,3.894c1.77,0.542,3.824,0.482,5.655,0.926
	c2.518,0.61,4.994,0.576,7.566,0.569c2.455-0.007,4.867,0.357,7.321,0.116c1.15-0.112,2.316-0.332,3.477-0.341
	c0.599-0.004,1.22,0.145,1.814,0.032c0.449-0.085,0.662-0.151,0.868-0.499c0.225-0.38,0.129-1.311,0.223-1.785
	c0.299-1.492,0.735-2.969,0.954-4.477c0.403-2.78,0.274-5.748,0.324-8.555c0.05-2.858,0.511-5.866,0.069-8.702
	c-0.218-1.395-0.51-2.809-0.756-4.199c-0.193-1.087-0.51-1.195-1.524-1.448c-1.236-0.307-2.338-0.291-3.594-0.154
	c-2.072,0.225-4.184,0.121-6.267,0.299c-2.096,0.179-4.264,0.065-6.368,0.018c-1.552-0.035-2.905,0.246-4.428,0.316
	c-1.158,0.053-2.21,0.144-3.347,0.433C35.489,446.979,35.131,447.999,33.02,448.741z"/>
<path style="fill:#595145;" d="M46.219,465.516c1.213,0.199,2.775,0.481,3.992,0.481c0.665,0,1.318-0.242,1.973-0.303
	c0.293-0.027,0.776,0.111,1.035-0.058c0.745-0.487,0.387-2.417,0.414-3.165c0.093-2.491-0.227-4.574-2.897-5.208
	c-1.418-0.337-2.807-0.142-4.237-0.13c-1.245,0.009-2.452,0.283-3.125,1.492c-0.621,1.115-0.479,2.595-0.531,3.843
	c-0.024,0.568-0.21,1.059,0.125,1.542C43.619,464.944,45.178,465.347,46.219,465.516z"/>
<path style="fill:#C6BA9E;" d="M85.168,448.741c0.082,1.915-0.52,3.928-0.816,5.802c-0.49,3.108-0.52,6.193-0.707,9.321
	c-0.124,2.085-0.456,4.333,0.281,6.336c0.544,1.476,1.441,3.401,3.052,3.894c1.77,0.542,3.824,0.482,5.655,0.926
	c2.518,0.61,4.994,0.576,7.566,0.569c2.455-0.007,4.867,0.357,7.321,0.116c1.15-0.112,2.316-0.332,3.477-0.341
	c0.599-0.004,1.22,0.145,1.814,0.032c0.449-0.085,0.662-0.151,0.868-0.499c0.225-0.38,0.129-1.311,0.223-1.785
	c0.299-1.492,0.735-2.969,0.954-4.477c0.403-2.78,0.275-5.748,0.324-8.555c0.05-2.858,0.511-5.866,0.069-8.702
	c-0.218-1.395-0.51-2.809-0.756-4.199c-0.193-1.087-0.51-1.195-1.524-1.448c-1.236-0.307-2.338-0.291-3.593-0.154
	c-2.072,0.225-4.184,0.121-6.267,0.299c-2.096,0.179-4.264,0.065-6.368,0.018c-1.552-0.035-2.905,0.246-4.428,0.316
	c-1.158,0.053-2.21,0.144-3.347,0.433C87.637,446.979,87.28,447.999,85.168,448.741z"/>
<path style="fill:#595145;" d="M98.367,465.516c1.213,0.199,2.775,0.481,3.992,0.481c0.664,0,1.318-0.242,1.973-0.303
	c0.293-0.027,0.776,0.111,1.035-0.058c0.745-0.487,0.385-2.417,0.414-3.165c0.093-2.491-0.227-4.574-2.897-5.208
	c-1.418-0.337-2.807-0.142-4.237-0.13c-1.245,0.009-2.451,0.283-3.125,1.492c-0.621,1.115-0.479,2.595-0.531,3.843
	c-0.024,0.568-0.21,1.059,0.125,1.542C95.767,464.944,97.326,465.347,98.367,465.516z"/>
<path style="fill:#C6BA9E;" d="M137.316,448.741c0.082,1.915-0.52,3.928-0.816,5.802c-0.49,3.108-0.52,6.193-0.707,9.321
	c-0.124,2.085-0.456,4.333,0.281,6.336c0.544,1.476,1.441,3.401,3.053,3.894c1.77,0.542,3.824,0.482,5.655,0.926
	c2.518,0.61,4.994,0.576,7.566,0.569c2.455-0.007,4.867,0.357,7.321,0.116c1.15-0.112,2.316-0.332,3.477-0.341
	c0.599-0.004,1.22,0.145,1.814,0.032c0.449-0.085,0.662-0.151,0.868-0.499c0.225-0.38,0.129-1.311,0.223-1.785
	c0.299-1.492,0.735-2.969,0.954-4.477c0.403-2.78,0.274-5.748,0.324-8.555c0.05-2.858,0.511-5.866,0.069-8.702
	c-0.218-1.395-0.508-2.809-0.756-4.199c-0.193-1.087-0.51-1.195-1.524-1.448c-1.236-0.307-2.338-0.291-3.594-0.154
	c-2.072,0.225-4.184,0.121-6.267,0.299c-2.096,0.179-4.264,0.065-6.368,0.018c-1.552-0.035-2.905,0.246-4.428,0.316
	c-1.158,0.053-2.211,0.144-3.347,0.433C139.785,446.979,139.428,447.999,137.316,448.741z"/>
<path style="fill:#595145;" d="M150.515,465.516c1.213,0.199,2.775,0.481,3.992,0.481c0.664,0,1.318-0.242,1.973-0.303
	c0.293-0.027,0.776,0.111,1.035-0.058c0.745-0.487,0.387-2.417,0.414-3.165c0.093-2.491-0.227-4.574-2.897-5.208
	c-1.418-0.337-2.807-0.142-4.237-0.13c-1.245,0.009-2.451,0.283-3.125,1.492c-0.621,1.115-0.479,2.595-0.531,3.843
	c-0.024,0.568-0.21,1.059,0.125,1.542C147.915,464.944,149.475,465.347,150.515,465.516z"/>
<path style="fill:#C6BA9E;" d="M188.282,448.741c0.082,1.915-0.52,3.928-0.816,5.802c-0.49,3.108-0.52,6.193-0.707,9.321
	c-0.124,2.085-0.456,4.333,0.281,6.336c0.544,1.476,1.441,3.401,3.052,3.894c1.77,0.542,3.824,0.482,5.655,0.926
	c2.518,0.61,4.994,0.576,7.566,0.569c2.455-0.007,4.867,0.357,7.321,0.116c1.15-0.112,2.316-0.332,3.477-0.341
	c0.599-0.004,1.22,0.145,1.814,0.032c0.449-0.085,0.662-0.151,0.868-0.499c0.225-0.38,0.129-1.311,0.223-1.785
	c0.299-1.492,0.735-2.969,0.954-4.477c0.403-2.78,0.274-5.748,0.324-8.555c0.05-2.858,0.511-5.866,0.069-8.702
	c-0.218-1.395-0.51-2.809-0.756-4.199c-0.193-1.087-0.51-1.195-1.524-1.448c-1.236-0.307-2.338-0.291-3.594-0.154
	c-2.072,0.225-4.184,0.121-6.267,0.299c-2.096,0.179-4.264,0.065-6.368,0.018c-1.552-0.035-2.905,0.246-4.428,0.316
	c-1.158,0.053-2.21,0.144-3.347,0.433C190.751,446.979,190.394,447.999,188.282,448.741z"/>
<path style="fill:#595145;" d="M201.481,465.516c1.214,0.199,2.775,0.481,3.992,0.481c0.665,0,1.318-0.242,1.973-0.303
	c0.293-0.027,0.776,0.111,1.035-0.058c0.745-0.487,0.387-2.417,0.414-3.165c0.093-2.491-0.227-4.574-2.897-5.208
	c-1.418-0.337-2.807-0.142-4.236-0.13c-1.245,0.009-2.451,0.283-3.125,1.492c-0.621,1.115-0.479,2.595-0.531,3.843
	c-0.024,0.568-0.21,1.059,0.125,1.542C198.881,464.944,200.44,465.347,201.481,465.516z"/>
<path style="fill:#C6BA9E;" d="M240.061,448.741c0.082,1.915-0.52,3.928-0.816,5.802c-0.49,3.108-0.52,6.193-0.707,9.321
	c-0.124,2.085-0.456,4.333,0.281,6.336c0.544,1.476,1.441,3.401,3.052,3.894c1.77,0.542,3.824,0.482,5.655,0.926
	c2.519,0.61,4.994,0.576,7.566,0.569c2.455-0.007,4.867,0.357,7.321,0.116c1.15-0.112,2.316-0.332,3.477-0.341
	c0.599-0.004,1.22,0.145,1.814,0.032c0.449-0.085,0.662-0.151,0.868-0.499c0.225-0.38,0.129-1.311,0.223-1.785
	c0.299-1.492,0.735-2.969,0.954-4.477c0.403-2.78,0.274-5.748,0.324-8.555c0.05-2.858,0.511-5.866,0.069-8.702
	c-0.218-1.395-0.51-2.809-0.756-4.199c-0.193-1.087-0.51-1.195-1.524-1.448c-1.236-0.307-2.338-0.291-3.594-0.154
	c-2.072,0.225-4.184,0.121-6.267,0.299c-2.096,0.179-4.264,0.065-6.368,0.018c-1.552-0.035-2.905,0.246-4.428,0.316
	c-1.158,0.053-2.211,0.144-3.347,0.433C242.53,446.979,242.173,447.999,240.061,448.741z"/>
<path style="fill:#595145;" d="M253.26,465.516c1.214,0.199,2.775,0.481,3.992,0.481c0.664,0,1.318-0.242,1.973-0.303
	c0.293-0.027,0.776,0.111,1.035-0.058c0.745-0.487,0.387-2.417,0.414-3.165c0.093-2.491-0.227-4.574-2.897-5.208
	c-1.418-0.337-2.807-0.142-4.236-0.13c-1.245,0.009-2.451,0.283-3.125,1.492c-0.621,1.115-0.479,2.595-0.531,3.843
	c-0.024,0.568-0.21,1.059,0.125,1.542C250.66,464.944,252.22,465.347,253.26,465.516z"/>
<path style="fill:#D3CBB8;" d="M286.347,352.756c-5.307,0.558-11.1,0.437-15.923,3.312c-3.82,2.277-5.344,7.117-6.26,11.215
	c-1.355,6.063-2.086,12.258-2.844,18.412c-0.962,7.805-2.165,16.35-1.093,24.194c0.313,2.291,2.009,7.189-0.382,8.792
	c-2.192,1.469-8.247,0.251-10.652-0.145c-2.317-0.382-5.256-1.114-7.386-2.089c-1.113-0.51-0.918,0.026-1.379-1.045
	c-0.551-1.282,0.346-3.915,0.519-5.249c0.621-4.774,0.406-10.079,0.477-14.916c0.059-4.067,0.416-8.11-0.066-12.112
	c-0.559-4.65-0.492-9.832-0.292-14.509c0.179-4.186,0.887-8.526,0.759-12.714c-0.073-2.417-0.702-4.719,0.46-7.049
	c1.295-2.598,3.583-1.522,6.014-1.664c3.366-0.197,6.731-0.331,10.047,0.246c6.928,1.206,14.445-0.104,21.46-0.438
	C283.682,346.812,290.881,346.829,286.347,352.756z"/>
<g>
	<path style="fill:#595145;" d="M36.51,363.9c-1.982,0.849-3.061,3.444-4.017,5.205c-0.795,1.464-1.625,3.048-2.003,4.675
		c-0.377,1.621-0.447,3.298-0.517,4.954c-0.09,2.137-0.286,4.712,2.051,5.667c0.92,0.376,1.918,0.422,2.898,0.427
		c1.317,0.007,2.641,0.114,3.949,0.268c1.253,0.149,2.468,0.073,3.723,0.08c0.88,0.005,1.788,0.275,2.666,0.163
		c1.127-0.144,1.861-0.73,2.1-1.806c0.212-0.953,0.42-1.912,0.582-2.876c0.219-1.305,0.132-2.572,0.149-3.887
		c0.017-1.337,0.154-2.641-0.066-3.969c-0.225-1.36-0.274-2.831-0.623-4.16c-0.284-1.082-0.91-2.098-1.374-3.111
		c-0.46-1.005-1.259-1.516-2.191-2.054c-0.905-0.523-1.74-0.733-2.783-0.793C39.412,362.59,38.23,363.123,36.51,363.9z"/>
	<path style="fill:#595145;" d="M262.931,363.587c-0.747,0.297-1.377,1.311-1.841,1.92c-1.206,1.581-2.354,3.345-3.134,5.175
		c-1.195,2.806-1.295,5.613-1.038,8.595c0.077,0.895,0.072,2.079,0.707,2.798c0.409,0.464,1.225,0.873,1.791,1.121
		c0.793,0.348,1.603,0.311,2.444,0.411c1.179,0.142,2.255,0.591,3.45,0.646c1.459,0.067,2.879-0.135,4.332-0.225
		c1.159-0.072,2.333,0.034,3.487-0.052c1.584-0.118,2.411-0.967,2.543-2.457c0.238-2.664,0.284-5.14,0.058-7.803
		c-0.116-1.361-0.071-2.74-0.397-4.075c-0.285-1.165-0.882-2.293-1.401-3.373c-0.886-1.843-3.022-3.162-5.029-3.546
		C266.532,362.271,264.144,362.369,262.931,363.587z"/>
	<path style="fill:#595145;" d="M365.543,336.759c-3.17,1.937-5.221,6.45-6.884,9.606c-0.986,1.871-1.664,3.907-2.221,5.943
		c-0.582,2.127-1.334,4.302-1.415,6.519c-0.067,1.847-0.286,3.79-0.184,5.634c0.044,0.78,0.241,1.536,0.329,2.312
		c0.086,0.766-0.038,1.901,0.375,2.605c0.499,0.85,1.476,0.85,2.351,0.999c2.241,0.382,4.184,0.122,6.429,0.011
		c1.937-0.096,3.9,0.245,5.852,0.244c1.886-0.001,3.801,0.1,5.684-0.014c1.625-0.099,3.195,0.046,4.811-0.002
		c1.016-0.031,2.734,0.333,3.69-0.048c3.172-1.266,1.809-7.966,1.564-10.295c-0.552-5.259-1.172-10.452-2.315-15.617
		c-0.228-1.032-0.633-1.876-1.111-2.805c-0.493-0.955-0.635-1.93-1.03-2.918c-0.557-1.392-1.986-2.628-3.106-3.607
		c-1.512-1.322-3.664-1.344-5.594-1.284C370.033,334.121,367.979,335.085,365.543,336.759z"/>
	<path style="fill:#595145;" d="M349.074,263.584c-0.018,0.73-0.281,1.448-0.404,2.167c-0.46,2.701-0.64,5.438-0.783,8.169
		c-0.297,5.688-0.469,11.379-0.747,17.065c-0.182,3.728-0.093,7.298,0.138,11c0.116,1.837-0.189,3.31,0.734,4.939
		c0.322,0.568,0.52,1.191,1.145,1.496c0.732,0.358,1.738,0.14,2.541,0.339c1.239,0.307,2.335,0.746,3.647,0.666
		c1.845-0.114,3.531-0.471,5.405-0.384c4.027,0.186,8.017-0.424,12.027-0.21c3.299,0.176,6.549-0.288,9.84-0.15
		c2.452,0.103,4.834-0.432,7.278-0.363c0.922,0.026,2.628,0.33,3.346-0.427c0.871-0.919,0.944-3.01,1.091-4.237
		c0.203-1.677,0.738-3.285,0.936-4.961c0.273-2.296-0.051-4.534-0.096-6.832c-0.16-8.075,0.774-16.056,0.679-24.111
		c-0.017-1.4-0.019-3.3-1.323-4.037c-1.892-1.068-3.632-1.269-5.744-1.538c-8.941-1.139-18.013-1.22-27.005-0.539
		c-2.443,0.184-4.997-0.004-7.441-0.09c-0.556-0.02-1.113,0.006-1.664,0.045C351.145,261.7,350.615,262.763,349.074,263.584z"/>
</g>
<path style="fill:#D3CBB8;" d="M475.466,195.065c0.21,0.738,0.415,1.476,0.281,2.09c-0.447,2.061-3.363,2.702-5.153,2.878
	c-11.038,1.088-22.382,2.141-33.466,2.774c-14.545,0.831-29.068,0.441-43.591,1.949c-14.792,1.536-29.316,3.483-43.923,6.276
	c-7.149,1.367-15.533,2.601-21.99,6.173c-2.25,1.244-5.07,3.114-6.137,5.563c-0.772,1.771-0.805,3.817-1.547,5.648
	c-2.416,5.971-4.629,11.9-6.204,18.159c-3.097,12.31-4.356,25.016-4.754,37.679c-0.54,17.155,0.469,34.754,5.962,51.137
	c3.842,11.46,11.34,21.911,19.338,30.858c2.288,2.56,5.258,4.348,7.23,7.198c1.205,1.742,3.981,5.64,3.269,7.966
	c-0.547,1.789-2.461,2.228-4.232,2.446c-3.118,0.387-6.756,0.7-9.88,0.654c-3.438-0.051-6.427-1.109-9.933-0.823
	c-3.483,0.284-6.618-0.739-10.031-0.586c-4.35,0.194-8.571-0.04-12.933,0.377c-1.78,0.17-6.864,2.024-7.85,0.169
	c-0.387-0.727,0.113-2.173,0.155-2.982c0.111-2.191,0.052-4.434,0.024-6.626c-0.048-3.714-0.142-7.473-0.402-11.179
	c-0.325-4.649-1.677-10.269,0.4-14.455c1.858-3.745,2.544-5.985,2.161-10.127c-0.429-4.641-2.945-8.896-5.511-12.741
	c-1.316-1.973-3.059-3.481-4.784-5.124c-1.78-1.694-4.015-2.373-5.807-4.054c-4.197-3.939-5.041-7.358-6.543-12.822
	c-1.111-4.04-4.013-6.88-5.354-10.712c-0.83-2.372-0.993-5.147-0.829-7.609c0.304-4.562,0.162-8.914,0.048-13.482
	c-0.271-10.931-0.131-22.035,0.222-32.971c0.208-6.431,0.158-12.866,0.239-19.298c0.071-5.699,0.799-11.42,0.819-17.08
	c0.011-3.061-1.398-6.977,0.88-9.538c3.408-3.833,9.918-3.106,14.38-2.701c3.609,0.328,7.223-0.281,10.834,0.012
	c9.009,0.732,18.105,0.409,27.146,0.409c8.122,0,16.173,0.506,24.278,0.384c8.472-0.128,16.94,0.344,25.385,0.388
	c10.204,0.053,20.447-0.701,30.674-0.589c11.564,0.128,23.2,0.553,34.748,0.231c8.416-0.235,16.889,0.351,25.295-0.407
	c2.997-0.27,15.757-3.907,17.034-0.485c0.332,0.889-0.306,2.319-0.298,3.253C475.12,193.876,475.295,194.471,475.466,195.065z"/>
<g>
	<path style="fill:#595145;" d="M362.997,203.311c-1.399,0.482-2.697,0.631-4.138,0.883c-0.682,0.119-1.343,0.364-2.017,0.521
		c-0.499,0.116-1.469,0.072-1.907,0.356c-0.384,0.249-0.15,0.099-0.342,0.551c-0.438,1.033-0.341,2.787-0.519,3.896
		c-0.498,3.09-0.278,6.334-0.397,9.457c-0.105,2.766-0.014,5.547-0.02,8.313c-0.004,1.949-0.043,4.375,1.011,6.128
		c0.569,0.946,1.64,1.789,2.556,2.371c1.709,1.085,3.668,0.557,5.589,0.936c1.031,0.203,2.007,0.584,3.064,0.675
		c1.181,0.102,2.373-0.072,3.555-0.118c2.53-0.098,4.913,0.767,7.455,0.362c2.374-0.378,4.802-0.356,7.203-0.55
		c3.823-0.309,2.813-4.773,3.013-7.641c0.455-6.546-0.203-13.159-0.659-19.702c-0.127-1.815,0.041-4.385-1.438-5.752
		c-1.072-0.991-2.896-1.192-4.285-1.29c-1.359-0.096-2.71,0.149-4.056,0.273c-1.317,0.122-2.584-0.076-3.897-0.082
		C369.697,202.884,366.696,203.596,362.997,203.311z"/>
	<path style="fill:#595145;" d="M344.829,128.439c-0.394-0.761-0.287-1.965-0.241-2.769c0.126-2.203,0.523-4.413,1.056-6.55
		c1.152-4.615,2.98-9.249,6.005-12.955c3.888-4.764,9.802-7.826,15.843-8.717c5.281-0.778,10.534,0.2,15.472,2.127
		c1.082,0.422,2.19,0.843,3.181,1.456c1.102,0.68,1.647,1.706,2.472,2.662c1.394,1.616,2.634,3.233,3.722,5.087
		c1.181,2.012,2.002,4.579,2.792,6.781c0.871,2.429,1.255,5.741,1.082,8.326c-0.09,1.355-0.124,3.197-1.065,4.216
		c-1.581,1.712-4.108,2.197-5.706,3.842c-0.934,0.961-1.104,2.089-1.281,3.392c-0.27,1.999-0.469,3.998-0.469,6.017
		c0.001,2.897,1.03,6.491-0.42,9.195c-0.739,1.379-1.66,1.908-3.234,1.731c-1.006-0.114-1.939-0.39-2.964-0.316
		c-1.713,0.124-3.386,0.685-5.104,0.836c-2.643,0.234-5.316-0.006-7.965,0c-1.173,0.002-2.403,0.111-3.574-0.017
		c-1.18-0.128-2.18-0.731-3.312-1.005c-1.433-0.346-2.903,0.18-4.244-0.417c-0.802-0.357-1.978-0.802-2.61-1.426
		c-0.707-0.698-1.23-2.297-1.551-3.248c-0.62-1.828-0.245-4.14-0.245-6.049c0-2.884,0.416-7.293-1.619-9.666
		c-0.802-0.935-2.098-1.582-3.324-1.472c-0.674,0.06-1.447,0.695-2.125,0.401C344.5,129.511,344.414,128.073,344.829,128.439z"/>
</g>
<path style="fill:#D3CBB8;" d="M452.221,419.277c-1.233,0.565-2.387,1.411-3.462,2.63c-3.205,3.636-7.19,3.17-11.207,5.305
	c-2.555,1.359-4.625,3.334-6.203,5.759c-2.66,4.092-2.202,8.11-1.503,12.73c0.965,6.379,1.314,12.867,3.39,19.021
	c1.775,5.257,4.207,10.85,6.987,15.652c4.161,7.19,16.069,10.159,23.863,10.506c4.961,0.221,10.094,0.298,15.058,0.181
	c3.806-0.09,7.804-0.62,11.557,0.241c2.036,0.467,6.678,1.558,8.201,3.122c1.634,1.675,0.56,4.193-0.119,6.137
	c-0.974,2.785-3.384,3.557-6.305,3.898c-9.296,1.087-18.639,1.201-28.05,1.748c-9.362,0.543-18.679,1.298-28.036,2.057
	c-7.466,0.605-15.405,1.102-22.703-0.809c-3.632-0.951-7.822-1.823-9.263-5.69c-1.295-3.472-0.597-8.712-0.238-12.343
	c1.083-10.929,2.561-22.085,2.574-33.07c0.006-4.625-0.063-9.991-0.739-14.567c-0.228-1.542-1.036-4.702-2.178-5.859
	c-2.335-2.362-5.744-0.067-7.814,1.477c-2.45,1.828-5.162,2.734-8.124,3.541c-6.924,1.888-14.238,2.196-20.944,4.903
	c-10.49,4.237-21.664,7.385-30.837,14.232c-6.98,5.21-14.598,11.522-18.21,19.673c-2.503,5.649-3.581,11.846-6.231,17.502
	c-3.605,7.694-10.699,7.665-18.203,8.628c-1.834,0.235-2.969,0.643-3.604-1.204c-1.175-3.419,0.977-8.92,1.172-12.43
	c0.266-4.789,0.324-9.846-0.37-14.585c-0.734-5.009-0.416-9.9-0.404-14.94c0.013-5.887,1.418-11.702,1.868-17.572
	c0.479-6.249,0.423-12.585,0.32-18.849c-0.07-4.273-0.89-8.448-1.355-12.687c-0.26-2.381-0.83-5.897,0.538-8.011
	c2.455-3.792,9.595-4.266,13.547-4.569c13.378-1.025,26.953-0.183,40.372-0.987c11.772-0.705,23.634-0.618,35.375,0.341
	c19.874,1.623,40.055-0.362,60.016-0.532c1.47-0.013,3.019,0.168,4.364,0.174c0.914,0.005,1.412,0.126,2.238-0.403
	c1.615-1.033,2.202-3.622,2.614-5.334c0.964-4.002,0.993-8.111,1.264-12.194c0.623-9.394,1.729-18.69,1.438-28.105
	c-0.046-1.51-0.459-3.714,0.812-4.951c0.926-0.9,2.647-0.65,3.777-0.81c3.859-0.547,7.423-1.072,11.378-1.181
	c4.134-0.114,8.344,0.38,12.505,0.38c4.181,0,8.318,0.199,12.425-0.695c1.523-0.331,4.116-1.113,5.6-0.279
	c2.228,1.251,0.972,3.999,0.192,5.785c-0.609,1.394-1.331,2.98-2.286,4.167c-1.452,1.804-3.107,1.862-5.152,2.557
	c-5.995,2.041-11.097,4.55-15.125,9.657c-5.065,6.42-5.46,14.158-6.51,21.865c-0.871,6.405-1.334,14.731,5.913,17.346
	c3.502,1.264,6.763,2.845,10.558,2.839c3.411-0.006,6.621-0.446,10.052-0.058c1.45,0.164,3.985-0.144,4.104,1.832
	c0.089,1.463-1.668,2.372-2.73,2.858c-2.51,1.147-4.998,1.835-7.681,1.587c-4.109-0.38-7.94,1.081-12.044,1.346
	c-3.707,0.239-7.354,1.281-11.062,0.886c-2.262-0.24-4.523-0.326-6.788-0.601C457.611,418.137,454.749,418.12,452.221,419.277z"/>
<path style="fill:#595145;" d="M471.068,364.556c-2.047-0.047-3.314,3.915-3.728,5.389c-1.039,3.703-1.619,7.647-1.489,11.494
	c0.028,0.842-0.086,2.254,0.662,2.855c0.637,0.512,1.947,0.411,2.715,0.551c2.45,0.443,4.889-0.134,7.369-0.148
	c1.027-0.006,1.978-0.271,2.995-0.364c0.923-0.085,1.891-0.071,2.796-0.287c0.934-0.223,1.931-0.553,2.377-1.413
	c0.831-1.603,0.368-3.976,0.221-5.709c-0.175-2.07-0.647-4.499-1.385-6.426c-0.949-2.482-1.946-4.797-4.065-6.515
	c-0.906-0.735-2.125-0.991-3.249-1.166C474.553,362.545,473.45,363.23,471.068,364.556z"/>
<g>
	<path style="fill:#C6BA9E;" d="M476.745,294.392c-0.966,0.918-1.641,2.373-2.345,3.475c-1.441,2.258-2.85,4.488-3.099,7.215
		c-0.235,2.568-0.465,6.185,0.388,8.652c-1.477-0.644-4.28,1.746-5.456,2.387c-4.6,2.509-8.642,5.213-11.831,9.516
		c-3.649,4.925-5.729,11.524-5.661,17.66c0.03,2.652,1.654,3.026,3.849,3.784c3.481,1.201,7.074,0.539,10.656,0.207
		c4.426-0.411,8.884-0.28,13.315-0.623c2.183-0.169,4.372-0.481,6.566-0.416c1.706,0.05,3.385,0.303,5.095,0.294
		c2.468-0.013,4.766-0.918,7.241-0.711c1.218,0.102,2.373-0.012,3.584,0.021c1.379,0.038,1.588-0.034,2.69-1.111
		c1.354-1.323,0.984-1.889,0.978-3.611c-0.013-4.545-2.69-8.948-5.499-12.376c-1.794-2.189-3.289-4.524-5.256-6.573
		c-1.49-1.552-3.423-3.012-4.562-4.864c-1.076-1.751-1.959-3.779-1.751-5.846c0.121-1.197,0.447-2.393,0.384-3.603
		c-0.071-1.356-0.403-2.741-0.57-4.092C484.967,299.752,482.025,291.913,476.745,294.392z"/>
	<path style="fill:#C6BA9E;" d="M391.499,384.676c-9.29-0.019-18.591-0.352-27.877-0.009c-3.144,0.116-6.288,0.312-9.435,0.309
		c-3.243-0.005-6.476-0.341-9.723-0.287c-9.232,0.153-18.47-0.012-27.698-0.077c-4.052-0.028-8.073,0.564-12.118,0.685
		c-1.596,0.047-2.779-0.201-4.284-0.532c-1.716-0.377-3.804-0.209-5.536,0.002c-1.309,0.16-1.586,0.309-1.804,1.608
		c-0.225,1.329-0.443,2.82-0.29,4.167c0.097,0.851,0.408,1.594,0.339,2.468c-0.157,1.994-1.37,4.247-0.391,6.209
		c0.624,1.252,2.636,0.968,3.87,1.233c3.982,0.857,7.817,0.656,11.888,0.721c2.945,0.047,5.878,0.328,8.823,0.414
		c3.466,0.102,6.919-0.095,10.383-0.065c2.9,0.025,5.795,0.316,8.694,0.388c4.228,0.105,8.461-0.04,12.692,0.028
		c7.851,0.125,15.696-0.384,23.535-0.011c14.193,0.674,28.485-0.666,42.682-0.94c5.483-0.106,11.23-0.796,16.689-0.212
		c1.459,0.156,2.803,0.42,4.273,0.287c1.204-0.108,2.398-0.235,3.61-0.197c1.59,0.05,3.127,0.454,4.733,0.393
		c1.13-0.044,3.157,0.242,4.164-0.292c0.91-0.484,1.472-2.284,1.836-3.223c0.971-2.495,1.42-5.153,1.889-7.777
		c0.756-4.231-2.374-5.413-5.633-6.569c-3.205-1.137-7.326-1.169-10.637-0.42c-1.08,0.245-2.036,0.819-3.122,1.042
		c-1.822,0.372-3.804,0.311-5.657,0.4c-7.917,0.377-15.845,0.378-23.768,0.33C399.584,384.722,395.542,384.684,391.499,384.676z"/>
</g>
<path style="fill:#D3CBB8;" d="M439.269,71.347c-2.478,2.252-4.197,3.663-7.508,4.417c-2.015,0.459-3.317,0.967-5.039,0.222
	c-1.004-0.434-2.031-1.275-3.066-1.768c-2.898-1.38-5.093-0.466-7.671,1.542c-4.372,3.404-7.227,5.829-13.03,5.082
	c-2.721-0.35-3.315-0.604-5.193-2.514c-1.117-1.136-2.625-2.514-4.046-3.253c-2.969-1.543-7.65-1.162-10.029,1.201
	c-1.787,1.776-3.162,4.193-5.396,5.528c-3.393,2.028-9.42,1.753-13.181,1.171c-4.478-0.693-8.06-3.489-11.911-5.496
	c-4.097-2.134-7.106,2.225-10.523,3.723c-2.626,1.152-6.002,1.503-8.844,1.089c-3.159-0.461-4.43-2.866-7.127-4.131
	c-7.082-3.323-11.687,6.626-13.713,11.695c-3.38,8.455-3.441,17.745-2.016,26.658c0.504,3.149,0.863,5.173,0.199,8.24
	c-0.559,2.579-1.022,4.214-3.967,4.731c-2.392,0.42-5.218,0.472-7.662,0.695c-2.042,0.186-5.564-0.274-7.079,1.561
	c-1.184,1.434-0.651,6.636-0.871,8.501c-0.459,3.89-0.32,8.364-1.512,12.131c-0.744,2.349-1.557,1.912-4.108,2.544
	c-1.578,0.391-5.069,1.469-6.53-0.054c-0.844-0.88-0.635-3.393-0.899-4.689c-0.584-2.872-0.558-6.007-0.681-9.042
	c-0.355-8.819-0.15-18.101,0.59-26.893c0.84-9.965,0.207-19.982,0.751-29.957c0.121-2.215,0.242-4.61,2.118-5.958
	c2.456-1.764,5.686-1.834,8.523-2.081c2.874-0.251,5.976-0.905,8.811-1.448c2.303-0.441,2.917-1.431,4.436-3.291
	c1.276-1.562,1.186-1.541,3.235-1.737c2.114-0.202,6.228-0.602,7.833-2.133c1.129-1.077,1.542-3.764,3.035-4.55
	c1.508-0.795,4.721-0.349,6.305-0.364c3.784-0.037,4.276,1.277,5.395,4.487c1.33,3.814,4.057,4.2,7.787,3.35
	c3.799-0.866,3.281-4.668,6.546-6.242c2.494-1.202,5.499-0.245,8.153-0.24c3.325,0.006,4.942-0.193,7.093,2.553
	c2.565,3.273,5.294,4.733,9.249,5.955c3.062,0.946,5.67,1.914,8.933,1.094c2.234-0.562,3.629-1.434,4.867-3.444
	c1.121-1.82,0.764-4.323,2.743-5.555c2.367-1.474,7.625-1.266,10.117-0.468c0.758,0.242,1.568,0.455,2.225,0.931
	c1.114,0.806,1.089,1.621,2.015,2.637c1.836,2.015,5.683,3.051,8.318,2.787c4.182-0.419,4.193-4.994,7.331-6.679
	c1.849-0.992,6.892-0.748,9.03-0.426c1.749,0.265,3.182,0.702,4.351,2.131c1.03,1.258,0.98,1.985,2.737,2.534
	c1.111,0.348,2.444,0.404,3.587,0.612c1.606,0.292,3.567,0.975,4.893-0.29C439.302,69.095,439.179,69.533,439.269,71.347z"/>
<path d="M267.749,360.339c-9.679-1.181-12.371,13.297-12.604,20.029c-0.169,4.875,4.212,4.987,7.973,6.093
	c4.184,1.23,7.604-1.845,11.684-1.147c1.15,0.196,2.475-0.291,2.762-1.568c0.624-2.779,0.064-5.561,0.374-8.372
	c0.292-2.653-0.011-4.628-0.996-7.126C275.329,364.152,272.406,360.907,267.749,360.339z M273.512,380.742
	c-1.31,0.038-2.56,0.329-3.998,0.715c-2.221,0.598-7.135,1.674-9.208,0.007c-1.841-1.48-1.02-5.184-0.68-7.195
	c0.685-4.046,2.868-10.785,8.091-10.125c3.851,0.487,6.034,4.965,6.284,8.428c0.112,1.561-0.51,3.103-0.581,4.661
	C273.364,378.439,273.543,379.584,273.512,380.742z"/>
<path d="M484.183,366.952c-1.367-3.559-5.369-7.109-9.427-6.613c-4.656,0.568-7.579,3.812-9.194,7.908
	c-1.752,4.443-1.297,10.257-0.874,14.945c0.052,0.576,0.11,1.172,0.401,1.672c0.637,1.095,2.096,1.321,3.36,1.398
	c5.426,0.329,11.008,0.847,16.334-0.189c0.717-0.14,1.544-0.909,1.651-1.651c0.028-0.195,0.056-0.39,0.084-0.585
	c0.092-0.64-0.047-1.197-0.315-1.653C487.353,377.391,485.809,371.188,484.183,366.952z M482.252,381.369
	c-0.38,0.229-0.864,0.433-1.48,0.611c-2.806,0.815-6.707,0.843-9.545,0.266c-0.815-0.166-1.698-0.371-2.219-1.019
	c-0.5-0.622-0.532-1.487-0.518-2.286c0.038-2.081-0.132-4.323,0.015-6.367c0.251-3.462,2.432-7.941,6.284-8.427
	c6.29-0.795,7.02,7.649,8.023,11.893C483.378,378.44,484.156,380.221,482.252,381.369z"/>
<path d="M353.01,236.019c1.489,2.594,3.068,2.89,6.173,3.163c4.727,0.416,9.511,0.861,14.269,0.782
	c5.492-0.091,13.094,1.959,15.094-4.652c2.344-7.747,0.687-17.24,0.435-25.171c-0.082-2.581,0.834-5.666-1.009-7.775
	c-1.921-2.2-5.807-2.074-8.492-2.121c-6.426-0.115-12.672,0.189-18.763,1.862c-0.2,0.015-0.397,0.025-0.598,0.041
	c-2.273,0.181-5.08-0.229-6.762,1.679c-1.912,2.167-1.621,6.472-1.865,9.149c-0.396,4.342-0.417,8.545,0.054,12.874
	C351.864,228.772,351.524,233.428,353.01,236.019z M383.157,204.997c0.359,0.092,0.675,0.214,0.874,0.4
	c0.486,0.452,0.066,0.925,0.271,1.845c1.194,5.401,0.647,12.43,0.516,17.959c-0.04,1.7,0.202,7.835-0.908,9.217
	c-1.335,1.661-7.482,0.844-9.406,0.888c-0.384,0.008-0.763-0.001-1.145-0.001c0.63-6.216-0.257-12.396-0.199-18.618
	c0.035-3.888-0.404-7.822-0.973-11.668C375.855,204.997,379.535,205.068,383.157,204.997z M354.988,215.133
	c0.105-1.819-0.053-7.681,1.463-9.024c0.195-0.173,0.562-0.3,1.03-0.4c3.149,0.939,7.172,0.117,10.738-0.429
	c-0.011,0.228-0.024,0.45-0.044,0.655c-0.427,4.192,0.201,8.351,0.021,12.566c-0.232,5.439-0.225,11.226,0.556,16.654
	c-1.414-0.085-2.829-0.188-4.265-0.287c-3.927-0.27-6.61,0.953-7.851-3.262C355.202,226.736,354.697,220.144,354.988,215.133z"/>
<path d="M339.77,262.943c1.588,0.142,3.695,0.336,5.858,0.35c-0.368,1.447-0.357,3.058-0.422,4.536
	c-0.486,3.941-0.519,7.872-0.5,11.846c-0.059,1.473-0.128,2.947-0.228,4.417c-0.019,0.281,0.08,0.526,0.245,0.721
	c-0.004,0.958-0.013,1.919-0.035,2.885c-0.119,4.97,0.465,10.059-0.096,14.994c-0.487,4.289-0.927,8.827-0.417,13.145
	c0.923,7.811,8.821,8.428,15.249,9.005c9.255,0.83,18.352,1.005,27.599-0.499c2.489-0.404,5.439,0.006,7.266-1.913
	c2.068-2.172,3.402-7.116,3.669-9.977c0.421-4.5,0.079-9.349-0.228-13.846c-0.377-5.511-0.078-10.781,0.142-16.279
	c0.213-5.317,0.303-10.882,0.022-16.193c-0.028-0.538-0.082-1.029-0.155-1.497c2.66-0.079,5.275-0.584,7.072-1.376
	c1.42-0.627,1.502-2.789,0.485-3.764c-3.148-3.016-8.795-4.429-12.734-5.917c-3.897-1.472-7.752-2.845-11.774-3.94
	c-3.13-0.851-6.945-2.958-10.037-3.352c-2.399-0.305-4.685,0.953-6.884,1.742c-3.247,1.166-6.56,2.166-9.802,3.315
	c-5.128,1.819-12.116,3.52-15.942,7.612C336.662,260.52,337.78,262.765,339.77,262.943z M392.863,312.104
	c-0.226,1.578-0.98,6.025-2.374,6.809c-0.309,0.173-4.542,0.464-4.822,0.511c-2.709,0.454-5.283,0.647-8.008,0.754
	c-4.76,0.188-9.245,0.621-13.985,0.041c-5.464-0.668-13.478,0.757-14.555-6.325c-0.167-1.094-0.21-2.202-0.188-3.314
	c6.124,1.48,13.873-0.166,19.932-0.119c7.869,0.06,15.818-0.132,23.647,0.575c0.147,0.013,0.303-0.002,0.46-0.032
	C392.938,311.37,392.915,311.74,392.863,312.104z M393.055,305.187c-0.002,0.257,0.002,0.517,0.004,0.774
	c-0.035-0.002-0.065-0.013-0.1-0.013c-7.764-0.212-15.479-0.39-23.274-0.331c-6.63,0.051-13.979-0.38-20.497,1.367
	c0.202-1.876,0.461-3.746,0.563-5.57c0.254-4.533-0.189-9.169-0.173-13.713c0.014-4.07-0.435-8.025-0.647-12.044
	c0.108-0.631,0.216-1.262,0.335-1.884c0.525-2.756-0.424-9.244,2.923-10.086c0.622-0.156,3.36,0.487,4.443,0.519
	c2.705,0.079,5.197,0.057,7.91,0.306c3.252,0.298,6.604-0.255,9.862-0.482c4.788-0.335,9.238-0.242,14.024,0.398
	c2.511,0.336,3.696-0.013,4.67,2.445c0.88,2.221,0.005,6.788,0.006,9.207C393.105,285.778,393.137,295.493,393.055,305.187z
	 M356.917,254.958c4.079-1.359,10.028-4.702,14.355-3.836c5.19,1.038,11.051,3.519,16.016,5.374
	c2.418,0.903,5.767,1.802,8.815,3.015c-1.601-0.169-3.184-0.31-4.688,0.077c-6.372-1.454-14.119-0.666-20.166-0.214
	c-4.783,0.357-9.813,0.257-14.618,0.017c-1.748-0.088-3.606-0.458-5.379-0.374c-1.451-0.299-2.898-0.428-4.356-0.474
	C350.182,256.999,353.908,255.96,356.917,254.958z"/>
<path d="M380.656,334.985c-4.971-3.268-11.535-2.944-16.43,0.228c-0.796,0.516-1.528,1.13-2.229,1.785
	c-6.221,4.726-8.221,14.608-9.904,22.089c-0.851,3.781-2.122,10.049,1.586,12.795c2.144,1.588,5.207,0.851,7.682,0.907
	c4.312,0.096,8.604,0.307,12.924,0.128c3.384-0.141,11.751,1.189,13.577-2.449c0.879-1.75,0.52-4.738,0.636-6.643
	c0.245-4.031,0.097-8.317-0.328-12.335C387.56,345.727,385.807,338.372,380.656,334.985z M383.414,367.909
	c-0.219-0.017-0.5-0.046-0.871-0.096c-1.223-0.164-2.845-0.045-4.102,0.012c-2.41,0.109-4.793,0.292-7.207,0.324
	c-3.502,0.046-6.974-0.154-10.468-0.226c-0.718-0.015-2.73,0.394-3.35,0.03c-0.583-0.343-0.912-0.853-1.107-1.428
	c-0.082-1.569-0.071-3.267,0.04-5.028c0.931-8.836,3.411-17.673,10.43-22.819c0.177-0.099,0.351-0.202,0.533-0.293
	C384.669,329.754,384.147,357.573,383.414,367.909z"/>
<path d="M505.387,470.232c-0.095-10.221-0.607-20.264-0.694-30.445c-0.039-4.553-0.662-9.08-0.961-13.601
	c-0.205-3.101-0.137-6.642-1.32-9.542c0.953-1.516,1.299-3.547,1.367-6.215c0.174-6.856,0.799-13.271-0.067-20.151
	c-1.006-7.993,0.57-16.289-0.303-24.328c-0.324-2.986-0.741-6.008-1.237-8.985c-0.14-2.988-0.304-6.024-0.785-8.918
	c5.341-1.36,6.093-4.951,4.086-10.527c-2.502-6.957-6.825-15.093-11.643-20.685c-1.8-2.088-4.208-3.483-6.876-4.371
	c1.085-2.163,1.114-4.523,0.835-7.053c-0.293-2.65-0.659-5.998-1.66-8.448c-1.159-2.837-3.625-5.388-6.503-6.156
	c-0.069-2.669,1.003-7.135,1.02-8.926c0.048-4.861-0.111-9.75,0.085-14.607c0.422-10.449,1.659-21.069,0.555-31.543
	c-0.914-8.676-0.167-17.802-0.076-26.564c0.043-4.091-0.589-8.054-0.623-12.13c-0.006-0.65-0.491-3.538-0.127-4.041
	c0.122-0.168,2.184-0.533,2.641-0.752c5.007-2.398,6.342-7.07,6.879-12.328c0.435-4.263,1.484-11.467-3.08-13.722
	c0.758-4.08,0.848-8.184,0.914-12.352c0.074-4.788,0.692-9.463,0.796-14.258c0.097-4.51,1.045-11.745-5.609-11.344
	c-1.732,0.104-3.33,0.863-5.08,1.032c-2.645,0.254-5.388-0.293-7.995-0.61c-1.169-0.142-2.502-0.303-3.801-0.259
	c-0.011-2.333-0.316-4.611-0.174-7.062c0.292-5.045,0.175-10.146,0.252-15.198c0.15-9.726-0.847-19.548-1.218-29.265
	c-0.439-11.482,0.142-23.077,0.079-34.574c-0.02-3.611,0.669-8.474-0.312-12.169c1.582-0.135,3.165-0.422,4.569-0.63
	c1.206-0.179,2.307-1.724,2.204-2.894c-0.29-3.27-1.999-5.649-3.878-8.259c-2.522-3.503-4.681-7.234-6.686-11.055
	c-3.838-7.315-8.085-9.771-15.074-4.391c-3.262,2.511-6.085,5.298-8.553,8.6c-2.261,3.023-6.492,8.122-7.058,11.888
	c-0.605,4.028,2.638,5.602,6.153,5.687c-0.787,2.877-0.591,6.45-0.682,9.206c-0.024,0.713-0.031,1.424-0.025,2.133
	c-6.252-1.444-13.155-0.382-13.194,7.284c-0.019,3.72,1.765,7.787,1.166,11.46c-0.027,0.17-0.037,0.302-0.039,0.417
	c-0.13,0.001-0.294,0.025-0.51,0.084c-0.953,0.262-2.819,0.738-3.775,0.634c-3.204-0.349-3.202-3.813-3.36-6.837
	c-0.182-3.474,0.753-8.89-2.557-11.331c-2.798-2.061-10.108-1.881-13.479-1.636c-3.693,0.267-4.383,2.024-4.666,5.365
	c-0.206,2.422-0.702,4.823-0.799,7.285c-0.091,2.287,0.461,5.424,0.109,7.973c-2.163,0.281-5.621,0.471-6.248,0.056
	c-1.068-0.707-0.586-1.93-0.559-3.362c0.059-3.069-0.143-6.145-0.115-9.212c0.02-2.265,0.667-4.389,0.551-6.627
	c-0.083-1.586-1.162-2.439-2.637-2.637c-3.411-0.456-6.994,0.228-10.482,0.63c-2.764-0.171-5.619,0.007-8.433,0.056
	c-3.643-0.389-7.405-1.165-10.98-0.686c-1.474,0.197-2.554,1.051-2.637,2.637c-0.117,2.238,0.53,4.362,0.551,6.627
	c0.027,3.068-0.174,6.143-0.115,9.212c0.027,1.432,0.508,2.654-0.559,3.362c-0.625,0.414-4.085,0.225-6.248-0.056
	c-0.352-2.548,0.2-5.686,0.109-7.973c-0.098-2.462-0.595-4.863-0.801-7.285c-0.283-3.34-0.973-5.097-4.666-5.365
	c-3.371-0.244-10.682-0.424-13.479,1.636c-3.312,2.44-2.375,7.857-2.558,11.331c-0.026,0.488-0.048,0.987-0.079,1.483
	c-0.09,0.511-0.144,1.037-0.157,1.578c-0.286,1.937-0.997,3.544-3.124,3.775c-0.957,0.104-2.822-0.372-3.775-0.634
	c-0.126-0.034-0.231-0.054-0.325-0.067c-0.066-0.796-0.179-1.597-0.324-2.396c0.087-3.125,1.282-6.427,1.266-9.498
	c-0.039-7.665-6.942-8.727-13.194-7.284c0.006-0.709-0.001-1.42-0.025-2.133c-0.092-2.756,0.105-6.329-0.682-9.206
	c3.515-0.084,6.759-1.659,6.153-5.687c-0.565-3.766-4.797-8.864-7.058-11.888c-2.469-3.302-5.291-6.088-8.553-8.6
	c-6.989-5.38-11.236-2.924-15.074,4.391c-2.004,3.821-4.164,7.552-6.686,11.055c-1.879,2.611-3.589,4.989-3.878,8.259
	c-0.103,1.171,0.998,2.716,2.204,2.894c1.405,0.208,2.988,0.497,4.569,0.63c-0.981,3.695-0.292,8.558-0.312,12.169
	c-0.063,11.498,0.518,23.092,0.079,34.574c-0.371,9.717-1.368,19.539-1.218,29.265c0.078,5.052-0.04,10.154,0.252,15.198
	c0.142,2.451-0.163,4.73-0.174,7.062c-1.299-0.043-2.632,0.117-3.801,0.259c-2.607,0.317-5.35,0.864-7.995,0.61
	c-1.75-0.169-3.349-0.928-5.08-1.032c-6.654-0.4-5.706,6.834-5.609,11.344c0.103,4.796,0.721,9.471,0.796,14.258
	c0.065,4.168,0.155,8.272,0.913,12.352c-4.565,2.256-3.515,9.459-3.08,13.722c0.537,5.258,1.872,9.931,6.879,12.328
	c0.458,0.219,2.52,0.584,2.641,0.752c0.364,0.504-0.121,3.391-0.126,4.041c-0.034,4.075-0.666,8.039-0.623,12.13
	c0.091,8.762,0.84,17.888-0.076,26.564c-1.104,10.475,0.132,21.095,0.555,31.543c0.196,4.857,0.037,9.746,0.085,14.607
	c0.018,1.791,1.089,6.257,1.02,8.926c-2.878,0.767-5.344,3.319-6.504,6.156c-1.001,2.45-1.368,5.798-1.66,8.448
	c-0.279,2.529-0.251,4.89,0.835,7.053c-2.667,0.888-5.077,2.283-6.876,4.371c-4.818,5.592-9.141,13.728-11.643,20.685
	c-2.005,5.576-1.253,9.167,4.086,10.527c-0.48,2.893-0.644,5.931-0.784,8.918c-0.495,2.977-0.913,6.001-1.237,8.985
	c-0.495,4.56-0.206,9.204-0.044,13.828c-0.101,0.007-0.197,0.001-0.302,0.019c-6.607,1.064-13.329-0.329-19.935,0.507
	c-2.887,0.365-4.511,1.255-5.197,4.173c-0.813,3.456,0.017,6.937,0.57,10.41c-0.155,2.432-0.11,4.901,0.073,7.312
	c-0.109,0.472-0.239,0.944-0.414,1.414c-1.354,3.636-2.747,3.901-6.189,3.68c-0.368-0.024-2.951-0.103-3.574,0.121
	c0.002-0.024,0.004-0.04,0.006-0.065c0.07-0.873,0.176-1.742,0.319-2.607c0.708-5.802,3.328-19.841-3.137-23.433
	c-3.272-1.817-8.468-1.283-12.116-1.277c-4.461,0.007-10.404-0.665-14.508,1.463c-1.503,0.779-1.618,2.571-1.033,3.942
	c0.006,0.014,0.011,0.024,0.017,0.037c-0.008,0.044-0.013,0.102-0.012,0.186c0.021,2.6,0.199,5.192,0.18,7.803
	c-0.025,3.411,0.469,7.085,0.141,10.45c-0.533,5.453-4.759,2.372-7.935,2.878c0.426-1.398-0.073-3.756,0.006-5.095
	c0.304-5.173,0.792-13.964-3.531-17.814c-2.889-2.573-7.684-2.178-12.221-1.388c-2.974-0.519-6.089-0.743-8.928-1.025
	c-1.247-0.124-2.594,1.01-2.874,2.189c-1.058,4.449-0.066,8.923-0.18,13.469c-0.074,3.019-0.333,6.391-1.124,9.344
	c-0.74,2.763-1.023,2.522-3.391,2.829c0.551-0.071-4.424,0.054-4.433,0.041c-0.294-0.462,0.26-4.831,0.149-5.884
	c-0.364-3.436-0.367-6.824-0.67-10.254c-0.335-3.774-1.077-7.345-4.94-8.712c-4.829-1.709-10.287-0.397-15.219-0.367
	c-3.401,0.021-6.482-1.135-7.611,3.114c-1.465,5.512,0.112,11.807-0.162,17.433c-0.154,3.129-0.732,4.717-4.156,4.848
	c-1.237,0.047-4.173-0.086-6.41-0.352c0.128-1.309,0.344-2.621,0.343-3.916c-0.004-2.466-0.53-4.84-0.661-7.298
	c-0.164-3.086,0.445-7.029-0.999-9.912c-2.53-5.05-10.197-4.225-15.809-2.854c0.354-14.205-0.287-28.597-3.135-42.385
	c0.149-0.22,0.294-0.443,0.428-0.687c2.826-5.143,1.719-12.542-0.513-17.676c-3.976-9.145-11.61-13.44-20.137-14.697
	c0.615-3.379-0.259-7.631-1.538-10.333c-1.279-2.703-3.967-4.054-6.795-4.542c0.027-0.103,0.058-0.2,0.073-0.316
	c0.396-2.832,0.368-5.718,0.355-8.592c2.086-0.123,4.168-0.352,6.228-0.293c3.772,0.109,3.706-5.569,0-5.82
	c-2.001-0.136-4.004,0.143-6.016,0.332c0.281-2.769,0.54-5.587-1.661-7.609c-0.925-0.849-2.076-0.562-2.786,0.359
	c-0.889,1.154-1.003,1.686-1.009,3.072c-0.006,1.522-0.121,3.025-0.194,4.537c-0.602,0.063-1.206,0.118-1.808,0.18
	c-1.084,0.013-2.192,0.128-3.315,0.182c-3.488,0.167-3.485,5.231,0,5.418c1.752,0.095,3.424-0.046,5.108-0.161
	c0.057,2.601,0.186,5.201,0.514,7.775c0.037,0.291,0.131,0.563,0.267,0.812c-4.09,0.406-6.911,2.268-8.225,6.323
	c-0.892,2.75-1.62,7.516,0.45,10.093c-5.615,1.251-11.022,5.174-14.976,9.221c-5.043,5.162-6.892,10.742-7.709,17.736
	c-0.45,3.861,0.616,5.717,2.807,6.763c-0.811,4.613-0.498,9.516-0.547,14.156c-0.065,6.048-0.044,12.098-0.05,18.147
	c-0.009,9.313,0.348,18.632,0.422,27.908c0.041,5.179-0.063,11.023,3.635,13.938c0.214,1.231-0.557,4.434-0.618,5.247
	c-0.239,3.14,0.19,6.237-0.073,9.359c-0.407,4.818-0.143,9.537-0.404,14.338c-0.624,11.476-0.037,22.898-0.153,34.404
	c-0.051,5.02,0.05,9.994,0.297,15.002c0.226,4.556,0.847,8.68,5.322,10.795c3.571,1.687,8.345,1.707,12.193,2.111
	c5.466,0.572,11.051,0.75,16.542,1.053c12.276,0.681,24.474-0.316,36.743,0.391c12.62,0.727,25.254-0.262,37.851-0.21
	c11.697,0.048,23.414-0.847,35.138-0.847h40.712c6.887,0,13.806-0.181,20.686,0.153c6.413,0.311,12.734-0.465,19.143,0.059
	c8.843,0.724,18.632,1.128,27.953,0.215c0.806,0.02,1.615,0.043,2.429,0.074c8.997,0.355,18.02-0.273,27,0.061
	c17.217,0.641,34.495,0.447,51.775,0.447c17.745,0,35.402-0.118,53.145-0.584c8.66-0.227,17.484,0.565,26.113-0.11
	c8.346-0.654,16.798-1.085,25.171-1.23c9.007-0.154,18.056-0.763,27.077-0.851c4.629-0.046,9.221-0.317,13.832-0.43
	c1.979-0.048,3.904,0.187,5.583-0.61c4.465-0.38,8.403-3.07,9.396-8.298c0.746-3.926,0.314-8.679,0.393-12.701
	C505.22,481.329,505.438,475.772,505.387,470.232z M487.971,343.402c-5.174,0.216-10.859,0.415-15.88-0.219
	c-0.265-0.033-0.526-0.046-0.79-0.071c-1.356-3.752-0.119-11.709,0.66-14.864c1.074-4.344,3.425-6.87,5.913-9.919
	c0.3,0.002,0.609-0.014,0.903-0.001c3.701,4.026,5.623,8.501,7.293,13.684c0.944,2.93,1.719,5.751,1.866,8.873
	C487.982,341.861,487.942,342.657,487.971,343.402z M497.1,366.488c0.026,0.694,0.056,1.387,0.061,2.079
	c0.064,7.728-1.064,15.87-0.025,23.524c0.653,4.808,0.699,9.555,0.111,14.373c-0.137,1.13-0.265,2.177-0.279,3.312
	c-0.04,3.087-0.091,2.75-3.345,3.699c-2.555,0.745-4.863,1.832-7.534,1.9c-4.435,0.112-8.967-0.367-13.357-0.855
	c-4.045-0.449-8.06,0.234-12.092-0.122c-0.283-0.025-4.201-0.391-4.799-0.655c-2.47-1.091-2.025-2.712-2.321-5.058
	c-1.031-8.189,0.063-15.92,0.13-24.083c0.064-7.722,0.808-15.725,1.751-23.416c0.484-3.943-0.284-7.632-0.037-11.468
	c2.701,0.317,5.4,0.422,8.156,0.216c3.866-0.288,7.293,0.083,11.122,0.176c7.423,0.18,14.535-0.285,21.763-1.268
	C495.5,354.591,496.037,360.616,497.1,366.488z M465.672,343.056c-2.502,0.116-5,0.302-7.591,0.123
	c-1.247-0.086-5.075-0.158-6.027-0.918c-0.364-0.291-0.712-0.993-1.025-1.837c2.051-4.616,3.987-9.339,7.009-13.43
	c3.448-4.667,7.95-7.093,13.382-8.108c-1.678,2.222-2.978,4.785-3.47,6.054c-1.674,4.315-1.847,8.842-2.164,13.396
	C465.681,339.869,465.516,341.501,465.672,343.056z M480.769,298.899c0.533,1.173,0.517,3.033,0.808,4.312
	c0.641,2.819,0.531,5.492,0.765,8.216c-2.614-0.342-5.282-0.332-7.753-0.11c-0.643-4.267-0.315-9.181,1.263-12.935
	C477.055,295.516,479.703,296.557,480.769,298.899z M437.717,22.277c1.571-2.634,3.152-5.156,4.971-7.648
	c2.243-3.072,7.412-10.483,11.811-6.744c2.325,1.977,4.131,7.824,5.768,10.425c0.637,1.013,4.696,4.928,4.293,6.002
	c-0.332,0.883-6.489,0.686-7.419,0.731c-6.249,0.297-12.525,0.045-18.73-0.753c-0.292-0.038-0.605-0.085-0.821-0.286
	C437.128,23.577,437.395,22.816,437.717,22.277z M458.23,73.176c-1.92-0.051-3.864-0.045-5.768-0.162
	c-1.846-0.114-7.807,0.377-9.24-1.109c-1.531-1.588-0.468-8.002-0.456-10.016c0.024-3.864,0.171-7.732-0.126-11.586
	c-0.313-4.059-0.715-7.937-0.597-12.021c0.044-1.48-0.375-4.711,0.384-6.092c1.252-2.28,2.31-1.802,4.884-1.681
	c2.552,0.119,9.534-0.441,11.073,1.796c1.107,1.607-0.106,8.966-0.111,11.156c-0.017,8.853-0.028,17.705-0.073,26.558
	C458.194,71.074,458.207,72.126,458.23,73.176z M428.337,47.085c0.543-1.969-0.542-0.916,2.135-1.225
	c1.966-0.227,3.712-0.09,5.471-0.209c0.216,3.3,0.513,6.589,0.516,9.923c0.004,3.555-0.128,7.122-0.19,10.682
	c-0.733,0.061-1.457,0.297-2.368,0.346c-0.741,0.04-3.075-1.074-3.775-2.012c-0.534-0.717-0.815-1.53-0.98-2.383
	c1.143-2.915,0.205-6.877-0.232-9.75C428.683,50.952,427.918,48.603,428.337,47.085z M410.38,46.762
	c1.303,2.159-0.057,7.318,0.248,9.982c0.158,1.39,0.177,2.906,0.437,4.324c-0.084,0.683-0.169,1.364-0.254,2.064
	c-0.255,2.112-0.092,4.219-2.357,5.075c-2.498,0.945-4.665-0.445-6.379-2.087c-1.033-0.99-1.629-2.129-1.986-3.351
	c0.461-2.157,0.173-4.913,0.206-7.756c0.025-2.069,0.824-4.802,0.544-6.763c-0.018-0.127-0.315-2.743-0.759-2.657
	C401.428,44.632,410.364,46.737,410.38,46.762z M367.977,44.987c0.499,0.013,0.999,0.024,1.504,0.032
	c3.131,0.056,6.373,0.251,9.433-0.391c1.349-0.145,2.691-0.274,4-0.259c-0.337,5.573-1.919,11.709-1.077,17.216
	c-0.806,6.079-2.926,10.995-9.45,10.161c-6.841-0.875-11.14-5.107-12.766-11.216c0.437-4.449-0.517-9.251-1.006-13.801
	c-0.037-0.575-0.09-1.145-0.156-1.711c-0.017-0.216-0.035-0.434-0.048-0.649C361.53,44.333,364.841,45.099,367.977,44.987z
	 M330.943,46.762c0.015-0.025,8.952-2.131,10.299-1.168c-0.446-0.086-0.741,2.53-0.759,2.657c-0.281,1.962,0.519,4.693,0.544,6.763
	c0.027,2.247-0.154,4.443-0.004,6.331c-0.705,4.491-4.075,10.501-8.715,6.27c-1.226-1.117-2.009-3.003-2.472-5.036
	c0.674-1.798,0.643-3.93,0.861-5.833C330.999,54.081,329.64,48.921,330.943,46.762z M305.38,45.652
	c1.759,0.119,3.506-0.018,5.471,0.209c2.678,0.309,1.593-0.744,2.135,1.225c0.419,1.517-0.346,3.865-0.576,5.373
	c-0.468,3.075-1.513,7.399,0.039,10.351c-0.319,0.718-0.827,1.382-1.608,2.145c-1.123,1.098-2.782,3.052-4.594,2.621
	c-0.424-0.101-0.817-0.108-1.174-0.04c-0.048-3.983-0.213-7.979-0.21-11.96C304.867,52.242,305.162,48.952,305.38,45.652z
	 M304.99,72.818c4.62,1.044,8.935-2.663,11.425-6.264c0.18-0.26,0.339-0.529,0.482-0.804c1.555,0.309,3.241,0.363,4.553,0.452
	c1.502,0.102,3.165,0.167,4.661-0.239c1.077,3.713,3.507,7.325,7.397,7.978c5.13,0.861,9.302-2.941,11.43-7.253
	c0.628,0.164,1.341,0.277,2.179,0.312c2.703,0.114,6.143,0.609,8.704-0.261c3.022,6.124,10.005,9.678,16.487,10.582
	c8.669,1.208,12.442-3.719,13.996-10.357c2.448,0.547,5.47,0.138,7.898,0.035c0.858-0.037,1.587-0.151,2.224-0.322
	c1.467,3.19,4.007,5.694,7.816,6.605c4.572,1.093,9.849-0.492,11.185-5.391c0.158-0.582,0.299-1.181,0.426-1.79
	c1.32,0.24,2.725,0.187,4.015,0.099c1.583-0.108,3.707-0.163,5.489-0.68c0.285,0.816,0.67,1.612,1.216,2.375
	c1.411,1.981,3.43,2.99,5.712,3.688c1.146,0.35,2.626,0.389,3.973,0.083c0.087,2.724,0.578,4.804,3.359,6.154
	c3.237,1.571,7.585,1.875,11.128,2.069c2.768,0.153,5.243,0.454,7.767,0.258c0.229,4.345,0.503,8.683,0.513,13.065
	c0.017,6.928,0.887,13.835,0.996,20.803c0.091,5.848,0.268,11.019,1.362,16.62c-1.119,1.744-1.148,4.454-1.388,6.37
	c-0.634,5.071,0.51,10.243,0.488,15.346c-0.672-0.119-1.411-0.318-1.758-0.361c-1.205-0.145-2.937,0.039-4.008-0.485
	c-1.609-0.786-1.35-0.435-1.315-2.613c0.061-3.833-0.303-7.722-0.155-11.544c0.077-1.997,0.877-4.339,0.241-6.315
	c-1.082-3.362-4.271-2.967-7.236-3.085c-5.344-0.215-10.666-0.927-16.012-1.224c-3.356-0.187-6.763-0.19-8.104,3.484
	c-0.737,2.018-0.264,4.428-0.031,6.477c0.21,1.853,0.408,3.734,0.273,5.601c0.048-0.681-0.75,5.956-0.756,5.964
	c-1.327,1.649-5.879-0.08-7.766-0.085c-0.676-0.002-1.779-0.037-2.41,0.181c-0.064,0.022-0.112,0.041-0.17,0.063
	c0.007-0.039,0.013-0.078,0.009-0.122c-0.511-6.126,0.188-12.594-1.009-18.604c-0.239-1.199-1.465-1.872-2.573-1.959
	c-2.093-0.166-5.25-0.829-8.545-1.25c0.596-7.205-1.251-15.706-5.149-21.452c-1.302-1.919-2.967-3.688-4.873-5.082
	c-5.275-4.473-16.129-6.375-20.556-5.425c-4.559,0.979-8.905,1.305-12.916,3.457c-0.215,0.086-0.43,0.17-0.642,0.267
	c-3.113,1.441-5.797,3.96-7.713,6.782c-3.898,5.745-5.745,14.247-5.149,21.452c-3.294,0.421-6.452,1.084-8.545,1.25
	c-1.109,0.087-2.335,0.76-2.574,1.959c-1.197,6.01-0.497,12.478-1.009,18.604c-0.004,0.044,0.002,0.083,0.009,0.122
	c-0.058-0.021-0.105-0.04-0.17-0.063c-0.63-0.216-1.735-0.182-2.41-0.181c-1.887,0.005-6.439,1.735-7.766,0.085
	c-0.007-0.008-0.805-6.644-0.756-5.964c-0.134-1.866,0.064-3.748,0.273-5.601c0.233-2.049,0.706-4.459-0.031-6.477
	c-1.341-3.675-4.748-3.67-8.104-3.485c-5.346,0.297-10.668,1.009-16.012,1.224c-2.965,0.119-6.154-0.277-7.236,3.085
	c-0.636,1.977,0.164,4.318,0.241,6.315c0.148,3.821-0.216,7.71-0.155,11.544c0.035,2.178,0.293,1.828-1.315,2.613
	c-1.072,0.524-2.803,0.339-4.008,0.485c-0.348,0.041-1.087,0.24-1.758,0.361c-0.02-5.102,1.123-10.275,0.49-15.346
	c-0.24-1.915-0.27-4.627-1.388-6.37c1.095-5.6,1.271-10.772,1.362-16.62c0.109-6.968,0.978-13.875,0.996-20.803
	c0.011-4.382,0.283-8.72,0.513-13.065c2.524,0.196,4.999-0.106,7.767-0.258c3.542-0.194,7.89-0.498,11.127-2.069
	C304.079,76.668,304.779,74.98,304.99,72.818z M385.309,141.78c-0.013,0.724-0.027,6.367,0.194,6.184
	c-0.83,0.682-4.056-0.017-5.214,0.043c-2.708,0.138-5.444,0.083-8.155,0.121c-5.433,0.076-10.87,0.106-16.298-0.177
	c0.202-0.15,0.188-5.467,0.176-6.17c-0.064-3.551,1.214-9.47-0.899-12.603c-1.541-2.284-4.516-3.006-7.855-3.042
	c0.902-5.744,1.214-11.641,4.215-16.812c2.962-5.106,7.751-6.449,12.494-8.925c1.133-0.245,2.294-0.443,3.487-0.589
	c3.006-0.367,6.426-0.247,9.699,0.487c3.989,2.111,8.024,3.38,10.999,6.704c0.278,0.406,0.538,0.828,0.773,1.271
	c0.131,0.247,0.35,0.43,0.603,0.553c0.105,0.166,0.215,0.324,0.317,0.499c3.001,5.172,3.313,11.068,4.216,16.812
	c-3.339,0.038-6.314,0.758-7.855,3.042C384.096,132.309,385.374,138.228,385.309,141.78z M298.683,50.304
	c-0.298,3.855-0.15,7.722-0.127,11.586c0.012,2.014,1.075,8.428-0.456,10.016c-1.433,1.486-7.395,0.996-9.24,1.109
	c-1.904,0.117-3.848,0.111-5.768,0.162c0.022-1.05,0.035-2.102,0.031-3.158c-0.046-8.853-0.058-17.705-0.073-26.558
	c-0.004-2.19-1.218-9.549-0.111-11.156c1.541-2.237,8.523-1.677,11.073-1.796c2.574-0.119,3.632-0.598,4.884,1.681
	c0.758,1.381,0.341,4.611,0.384,6.092C299.399,42.367,298.997,46.244,298.683,50.304z M277.881,22.85
	c1.004-1.552,2.197-2.981,3.177-4.539c1.636-2.601,3.442-8.448,5.768-10.425c4.398-3.74,9.568,3.673,11.811,6.744
	c1.535,2.102,3.402,4.208,4.531,6.565c1.506,3.145-0.692,3.215-3.454,3.249c-6.902,0.084-13.807,0.07-20.708,0.104
	c-0.564,0.002-1.275-0.096-1.438-0.636C277.456,23.546,277.673,23.17,277.881,22.85z M260.197,151.767
	c0.019-5.424-1.356-11.122-0.94-16.57c0.212,0.061,0.484,0.141,0.848,0.252c1.051,0.32,2.208,0.301,3.295,0.316
	c3.064,0.04,7.663-1.521,10.536-0.946c0.158,0.032,0.227,0,0.259-0.044c0.045,0.136,0.137,0.359,0.336,0.741
	c0.685,1.316,0.551,3.632,0.506,5.192c-0.112,3.941-0.739,7.751-0.713,11.726c0.005,0.767,0.231,1.392,0.591,1.878
	c0.707,6.43,14.737,5.571,18.577,1.115c1.334-1.548,1.278-3.448,1.372-5.379c0.222-4.532,0.734-10.256-0.312-14.718l-0.325-1.121
	c-0.041-0.286-0.087-0.511-0.135-0.706c0.854-0.045,1.996,0.073,2.553,0.038c3.71-0.239,7.414-0.481,11.114-0.837
	c1.054-0.102,3.441-0.764,4.411-0.283c0.416-0.093,0.819-0.051,1.21,0.128c-0.168,1.528-0.435,3.036-0.804,4.529
	c-0.556,3.851-0.054,7.357,0.279,11.176c0.568,6.507,3.686,8.063,10.151,7.459c3.805-0.356,11.566,1.211,13.843-2.913
	c1.18-2.139,0.197-5.489,0.028-7.794c-0.292-3.989-0.731-8.112-0.681-12.149c1.239-0.095,2.481-0.186,3.726-0.284
	c1.953-0.154,6.831-0.831,8.49,0.028c3.194,1.655,0.8,12.137,1.437,16.02c1.154,7.044,7.579,5.681,12.823,5.965
	c6.179,0.335,12.367,0.517,18.555,0.547c4.685,0.024,9.352-1.048,10.248-6.513c0.636-3.884-1.757-14.366,1.437-16.021
	c1.659-0.86,6.536-0.182,8.49-0.028c1.246,0.098,2.487,0.189,3.727,0.284c0.05,4.037-0.389,8.16-0.681,12.149
	c-0.169,2.307-1.152,5.655,0.028,7.794c2.276,4.124,10.038,2.557,13.842,2.913c6.465,0.604,9.582-0.952,10.151-7.459
	c0.333-3.819,0.835-7.324,0.279-11.176c-0.368-1.491-0.636-3.001-0.804-4.529c0.39-0.179,0.793-0.221,1.21-0.128
	c0.971-0.481,3.358,0.181,4.411,0.283c3.701,0.356,7.405,0.598,11.114,0.837c0.557,0.035,1.699-0.083,2.553-0.038
	c-0.047,0.195-0.093,0.42-0.135,0.706l-0.325,1.121c-1.046,4.461-0.534,10.186-0.312,14.718c0.095,1.931,0.039,3.831,1.372,5.379
	c3.839,4.456,17.869,5.315,18.577-1.115c0.361-0.487,0.586-1.11,0.591-1.878c0.026-3.976-0.601-7.786-0.713-11.726
	c-0.045-1.56-0.179-3.877,0.506-5.192c0.199-0.382,0.291-0.604,0.336-0.741c0.032,0.045,0.1,0.076,0.259,0.044
	c2.872-0.575,7.472,0.985,10.536,0.946c1.088-0.014,2.243,0.006,3.295-0.316c0.364-0.111,0.636-0.19,0.848-0.252
	c0.415,5.448-0.96,11.148-0.94,16.57c0.017,4.464-0.462,9.441,1.168,13.619c-1.88-0.007-3.824,0.164-5.541,0.011
	c-4.024-0.361-7.717,0.116-11.73,0.202c-8.557,0.186-17.175-0.305-25.741-0.296c-8.5,0.008-17.034-0.132-25.334,1.821
	c-0.148,0.035-0.298,0.061-0.447,0.095c-7.036-0.661-14.411-0.342-21.311-0.546c-9.203-0.273-18.394-0.758-27.562-0.923
	c-14.381-0.26-29.212-0.576-43.72,0.248c-6.235-0.759-12.561-0.687-18.869-0.693c-8.566-0.009-17.185,0.481-25.741,0.296
	c-4.013-0.088-7.707-0.563-11.73-0.202c-1.717,0.154-3.661-0.018-5.541-0.011C260.659,161.207,260.182,156.231,260.197,151.767z
	 M261.111,186.677c-2.802-0.832-3.682-2.995-4.155-5.756c-0.141-0.821-0.789-8.221-0.03-8.913c-0.065,0.059,3.674,0.452,4.35,0.465
	c4.468,0.084,8.673-0.238,13.155,0.14c5.169,0.434,10.493,0.025,15.68,0.065c10.656,0.08,21.308-0.116,31.913,0.647
	c8.874,0.638,17.92,1.602,26.836,0.443c3.116,0.223,6.221,0.283,9.471,0.21c6.198-0.136,12.406-0.019,18.605-0.007
	c4.688,0.008,9.475,0.225,14.125-0.41c9.367,1.461,18.898,0.435,28.237-0.236c10.606-0.763,21.258-0.566,31.913-0.647
	c5.187-0.04,10.511,0.369,15.681-0.065c4.481-0.376,8.686-0.056,13.155-0.14c0.676-0.013,4.415-0.406,4.35-0.465
	c0.76,0.692,0.111,8.092-0.03,8.913c-0.473,2.761-1.351,4.923-4.155,5.756c-1.299,0.385-2.498,0.199-3.752,0.741
	c-0.149,0.019-0.299,0.033-0.449,0.052c0.033-1.685-0.105-3.395-0.242-5.056c-0.154-1.88-0.151-3.935-1.124-5.588
	c-0.287-0.488-0.715-0.679-1.142-0.681c-0.026-0.004-0.051-0.005-0.077-0.006c-0.04,0.002-0.078,0.005-0.118,0.009
	c-0.42,0.011-0.839,0.201-1.12,0.678c-0.974,1.652-0.971,3.708-1.124,5.588c-0.15,1.832-0.292,3.72-0.214,5.571
	c-2.807,0.21-5.638,0.31-8.477,0.356c0.189-1.238-0.035-2.516,0.266-3.784c0.543-2.28,0.427-4.67-0.413-6.872
	c-0.674-1.769-3.28-2.02-3.855,0c-0.437,1.537-0.26,3.209-0.741,4.722c-0.355,1.116-0.798,1.973-0.828,3.177
	c-0.022,0.896-0.083,1.876,0.028,2.779c-2.483-0.022-4.966-0.082-7.445-0.149c0.192-1.362,0.013-2.768-0.171-4.186
	c-0.316-2.431-0.516-4.782-1.305-7.118c-0.48-1.42-2.406-1.418-2.886,0c-1.166,3.447-1.24,7.074-1.398,10.675
	c-0.086,0.143-0.154,0.299-0.206,0.463c-2.42-0.07-4.823-0.123-7.215-0.161c0.758-3.39-0.084-7.773-1.36-10.769
	c-0.656-1.543-2.717-0.782-3.191,0.417c-1.179,2.986-0.644,6.807-1.121,9.97c-0.018,0.117-0.015,0.225-0.021,0.337
	c-2.947-0.002-5.892-0.007-8.838-0.009c-0.015-1.867-0.187-3.714-0.408-5.576c-0.189-1.596-0.137-3.648-1.811-4.4
	c-0.158-0.071-0.317-0.103-0.473-0.118c-0.05-0.006-0.1-0.005-0.153-0.006c-0.051,0.001-0.102-0.001-0.151,0.006
	c-0.156,0.014-0.315,0.046-0.474,0.118c-1.674,0.753-1.622,2.803-1.811,4.4c-0.22,1.865-0.393,3.712-0.408,5.581
	c-2.698,0.002-5.396,0.018-8.095,0.034c0.072-1.47-0.24-2.978-0.748-4.335c-0.659-1.755-1.025-3.397-2.004-5.036
	c-0.97-1.62-3.046-0.737-3.254,0.881c-0.174,1.351,0.083,2.957,0.173,4.33c0.091,1.395,0.304,2.716,0.171,4.104
	c-1.806-0.083-3.638-0.229-5.477-0.363c0.249-3.11-0.524-6.202-1.058-9.242c-0.303-1.72-3.171-1.719-3.474,0
	c-0.519,2.949-1.255,5.94-1.072,8.957c-2.632-0.039-5.226,0.134-7.728,0.702c-0.046-0.002-0.091-0.005-0.137-0.007
	c0.041-0.286,0.053-0.59,0.004-0.92c-0.428-2.865-0.591-5.589-1.477-8.378c-0.38-1.197-2.051-1.198-2.432,0
	c-0.838,2.641-1.892,6.187-1.22,9.036c-1.798-0.08-3.593-0.147-5.38-0.186c-0.067-1.113-0.435-2.287-0.549-3.395
	c-0.175-1.726-0.631-3.333-1.124-4.991c-0.356-1.198-2.075-1.199-2.432,0c-0.627,2.107-1.894,5.78-1.29,8.384
	c-2.04,0.037-4.078,0.095-6.117,0.125c-0.034-0.292-0.13-0.589-0.302-0.877c0.28,0.474,0.077-0.054,0.08-0.482
	c0.002-0.209,0.02-0.419,0.02-0.628c0.001-1.121-0.044-2.249-0.066-3.369c-0.028-1.415-0.4-3.3-1.477-4.316
	c-0.747-0.704-2.106-0.837-2.835,0c-0.897,1.032-0.889,2.49-0.913,3.872c-0.299,1.407-0.539,2.938-0.497,4.371
	c0.013,0.441,0.073,0.89,0.17,1.331c-1.73-0.22-3.489-0.303-5.27-0.275c0.182-3.016-0.555-6.008-1.072-8.957
	c-0.303-1.719-3.171-1.72-3.474,0c-0.526,2.991-1.278,6.034-1.064,9.094c-1.422,0.077-2.834,0.221-4.22,0.435
	c-0.416,0.025-0.836,0.056-1.25,0.075c-0.132-1.389,0.079-2.709,0.171-4.104c0.09-1.373,0.346-2.978,0.173-4.33
	c-0.207-1.618-2.284-2.502-3.254-0.881c-0.979,1.638-1.346,3.28-2.004,5.036c-0.51,1.356-0.822,2.865-0.748,4.335
	c-2.698-0.018-5.396-0.032-8.095-0.034c-0.015-1.869-0.187-3.716-0.408-5.581c-0.189-1.596-0.138-3.648-1.811-4.4
	c-0.16-0.072-0.318-0.103-0.474-0.118c-0.05-0.007-0.1-0.005-0.151-0.006c-0.051,0.001-0.103-0.001-0.153,0.006
	c-0.156,0.014-0.315,0.046-0.473,0.118c-1.674,0.753-1.622,2.803-1.811,4.4c-0.22,1.863-0.391,3.709-0.408,5.576
	c-2.947,0.004-5.893,0.007-8.838,0.009c-0.007-0.112-0.004-0.22-0.021-0.337c-0.478-3.163,0.058-6.984-1.121-9.97
	c-0.473-1.199-2.534-1.96-3.191-0.417c-1.276,2.997-2.118,7.379-1.36,10.769c-2.392,0.038-4.795,0.091-7.215,0.161
	c-0.053-0.164-0.121-0.32-0.206-0.463c-0.157-3.6-0.232-7.227-1.398-10.675c-0.48-1.418-2.406-1.42-2.886,0
	c-0.79,2.336-0.99,4.688-1.305,7.118c-0.184,1.419-0.362,2.824-0.171,4.186c-2.479,0.067-4.962,0.125-7.446,0.149
	c0.11-0.902,0.05-1.882,0.027-2.779c-0.03-1.204-0.473-2.061-0.828-3.177c-0.481-1.513-0.304-3.185-0.74-4.722
	c-0.575-2.02-3.181-1.769-3.855,0c-0.84,2.202-0.954,4.592-0.413,6.872c0.302,1.268,0.077,2.546,0.266,3.784
	c-2.839-0.045-5.67-0.144-8.477-0.356c0.078-1.85-0.064-3.739-0.214-5.571c-0.155-1.88-0.151-3.935-1.124-5.588
	c-0.281-0.477-0.7-0.667-1.12-0.678c-0.039-0.006-0.078-0.008-0.118-0.009c-0.026,0.002-0.051,0.004-0.077,0.006
	c-0.427,0.002-0.854,0.193-1.141,0.681c-0.974,1.652-0.971,3.708-1.124,5.588c-0.136,1.661-0.275,3.371-0.242,5.056
	c-0.149-0.019-0.299-0.033-0.449-0.052C263.61,186.876,262.411,187.063,261.111,186.677z M259.747,303.211
	c0.291-1.279,0.274-3.139,0.808-4.312c1.064-2.342,3.713-3.383,4.918-0.516c1.577,3.754,1.906,8.668,1.263,12.935
	c-2.471-0.222-5.139-0.232-7.753,0.11C259.216,308.704,259.106,306.03,259.747,303.211z M262.545,318.328
	c0.296-0.013,0.604,0.005,0.903,0.001c2.488,3.048,4.84,5.574,5.913,9.919c0.78,3.155,2.016,11.112,0.66,14.864
	c-0.264,0.025-0.525,0.038-0.79,0.071c-5.02,0.634-10.705,0.435-15.88,0.219c0.027-0.746-0.012-1.541,0.034-2.516
	c0.147-3.123,0.922-5.943,1.866-8.873C256.921,326.83,258.844,322.355,262.545,318.328z M241.779,339.576
	c2.146-5.602,5.701-10.372,9.089-15.262c1.504-2.172,3.304-3.63,5.324-4.568c-4.109,5.625-7.174,17.135-6.813,23.374
	c-1.843-0.234-3.693-0.588-5.506-0.805C241.038,341.971,240.578,342.713,241.779,339.576z M218.324,386.198
	c0.241-0.05,0.596-0.082,1.124-0.051c6.03,0.355,12.439,0.394,18.469-0.358c-0.04,1.503-0.119,3.002-0.306,4.488
	c-0.545,4.333-0.499,8.482-0.346,12.673c-0.385,2.289-0.877,4.525-1.923,6.491c-2.702,5.08-7.624,9.905-13.062,4.474
	c-2.756-2.753-3.391-6.023-3.631-9.473c0.352-1.615,0.54-3.23,0.588-4.62c0.098-2.854-0.213-5.603-0.534-8.429
	C218.52,389.78,218.169,387.893,218.324,386.198z M191.95,385.461c1.212,0.095,4.608-0.053,5.523,0.835
	c1.146,1.11-0.066,6.854-0.167,8.479c-0.051,0.83-0.171,1.723-0.313,2.638c-1.395,3.981-2.051,8.346-2.536,12.524
	c-0.421,3.625-0.896,8.08-5.672,7.436c-3.288-0.443-6.846-2.326-8.33-5.32c-0.795-1.606-1.218-3.488-1.452-5.461
	c0.183-0.731,0.329-1.511,0.411-2.37c0.428-4.416-0.319-9.305-0.329-13.799c-0.004-1.701,0.063-3.347-0.348-4.949
	C182.652,384.519,188.772,385.213,191.95,385.461z M142.585,403.454c0.886-5.155-0.29-10.64,0.112-15.775
	c1.121,0.138,2.232,0.293,3.343,0.42c2.492,0.524,4.984,0.773,7.786,0.847c0.437,0.012,2.921-0.253,3.24,0.064
	c0.404,0.401,0.573,3.284,0.713,4.009c0.53,2.753,0.576,5.007,0.324,7.792c-0.244,2.695-1.366,7.662-0.214,10.223
	c0.13,0.29,0.283,0.54,0.446,0.773c-0.214,1.966-0.704,3.903-1.671,5.577c-2.772,4.797-8.679,2.347-11.714-0.98
	c-2.027-2.221-2.669-5.745-2.82-9.425C142.276,405.77,142.394,404.562,142.585,403.454z M105.471,395.996
	c-0.015-0.763-0.125-1.545-0.158-2.303c-0.048-1.129,0.078-2.204,0.953-3.077c2.294-2.287,6.819-1.395,9.69-1.289
	c2.892,0.108,5.16-0.641,5.946,3.042c0.351,1.642-0.108,3.967-0.15,5.619c-0.032,1.245-0.015,2.491,0.013,3.738
	c-0.078,1.593-0.109,3.227-0.135,5.012c-0.046,3.252-0.218,7.145-2.138,9.923c-2.124,3.072-6.033,4.102-9.638,2.451
	c-3.697-1.693-4.887-4.711-5.186-8.071c0.748-2.022,0.965-4.333,1.018-6.37C105.764,401.778,105.526,398.888,105.471,395.996z
	 M70.516,409.264c0.303-4.454,0.805-8.961,1.052-13.413c0.101-1.814,0.186-3.635,0.261-5.46c1.448-0.03,2.893-0.128,4.414-0.11
	c3.496,0.04,5.644-0.681,6.235,2.615c0.841,4.691,0.173,9.592,0.057,14.354c-1.943,4.22-1.673,11.822-6.994,13.703
	c-2.127,0.752-3.871-1.532-4.837-3.205c-0.49-0.848-0.771-1.765-0.975-2.714C70.246,413.149,70.39,411.116,70.516,409.264z
	 M48.134,315.287c6.249,1.451,13.674,6.327,15.608,12.967c0.825,2.834,2.229,9.331-0.336,11.519
	c-2.152,1.834-6.073,0.553-8.506,0.739c-0.596,0.045-1.194,0.073-1.791,0.112c-0.09-6.576,0.558-14.375-3.578-19.956
	c-1.5-2.024-3.721-4.451-6.251-6.119C44.898,314.695,46.515,314.911,48.134,315.287z M47.957,340.904
	c-3.872,0.166-7.752,0.27-11.621,0.417c-2.991,0.115-6.1-0.026-9.211-0.273c-0.222-3.97,0.375-8.78,1.12-12.268
	c1.084-5.08,3.765-10.126,7.509-13.884c0.398-0.009,0.796-0.019,1.193-0.03c4.259,2.597,8.782,5.99,10.398,10.764
	C49.075,330.742,47.477,335.87,47.957,340.904z M31.479,306.566c0.341-3.935,1.057-7.171,5.581-7.568
	c4.212-0.37,5.914,1.871,6.173,5.878c0.109,1.675,0.197,3.07,0.518,4.467c-3.897-0.078-7.869,0.375-11.673,1.208
	c-0.351,0.037-0.708,0.087-1.064,0.134C31.48,309.421,31.366,307.877,31.479,306.566z M11.529,339.75
	c0.164-0.564,0.279-1.136,0.345-1.717c-0.294-3.597,0.883-7.096,2.537-10.241c2.684-5.102,8.585-10.435,14.289-12.091
	c0.705-0.205,1.435-0.341,2.173-0.452c-3.365,3.294-5.515,8.335-6.691,12.412c-0.816,2.825-2.151,8.577-1.801,12.944
	c-1.876-0.197-3.736-0.408-5.548-0.604c-0.935-0.102-4.056-0.072-4.659-0.508C11.96,339.578,11.744,339.663,11.529,339.75z
	 M13.634,408.203c-0.102-3.59-0.26-7.193-0.315-10.782c-0.136-9.011-0.019-18.033-0.028-27.044
	c-0.008-7.701,0.938-16.503-0.346-24.316c0.225,0.035,0.448,0.07,0.682,0.104c14.334,2.081,28.684,0.667,43.014,0.842
	c2.476,0.03,5.155-0.059,7.508-0.821c0.384,5.042,1.419,10.282,1.947,15.13c0.954,8.757-0.019,18.154-0.026,26.975
	c-0.002,3.315-0.123,6.49-0.434,9.787c-0.41,4.349,0.394,10.761-1.291,14.898c-2.325,5.709-17.155,2.594-22.076,2.607
	c-8.069,0.021-16.895,1.096-24.862-0.248C13.721,414.716,13.738,411.9,13.634,408.203z M287.359,445.062
	c-0.169,19.364-1.639,38.633-1.189,58.026c-5.823-0.033-11.678,0.214-17.437,0.351c-2.234,0.053-4.475,0.067-6.718,0.093
	c-6.571-0.646-13.214-0.777-19.735-0.719c-11.398,0.1-22.808-0.5-34.231-0.5c-25.246,0-50.502,0.447-75.737,0.426
	c-10.238-0.008-20.492,0.853-30.756,0.912c-12.674,0.073-25.535-1.117-38.166-0.214c-10.727,0.767-21.82-0.046-32.544-0.789
	c-2.446-0.169-5.019-0.402-7.43-0.818c-2.907-0.503-4.111-0.305-4.734-3.441c-1.001-5.036-0.896-10.903-0.879-16.011
	c0.022-6.605-0.461-13.172-0.487-19.784c-0.022-5.679,0.526-11.133,0.789-16.752c0.118-2.534-0.524-5.003-0.506-7.566
	c0.019-2.837,0.404-5.547,0.106-8.377c-0.251-2.388-0.014-5.932-0.429-9.01c8.849,1.187,18.104,0.174,27.007,0.394
	c5.902,0.145,17.367,2.65,22.626-1.634c0.293,0.679,0.633,1.363,1.074,2.069c1.712,2.731,4.371,4.675,7.72,4.25
	c5.126-0.65,8.96-5.571,10.169-10.803c2.463,0.577,5.309,0.13,7.813,0.41c2.288,0.255,4.7,0.856,6.885,0.018
	c1.493,4.538,5.38,7.973,10.195,9.026c6.051,1.323,11.291-0.808,13.772-6.54c0.376-0.868,0.673-1.735,0.92-2.6
	c3.39,1.296,8.762,0.672,11.425,0.014c0.5-0.123,0.934-0.302,1.34-0.504c1.999,5.426,7.716,9.94,13.369,10.614
	c7.039,0.84,10.406-5.897,11.577-11.764c0.935,0.046,1.886,0.038,2.774,0.103c3.758,0.276,6.947-0.167,9.288-1.686
	c1.246,4.119,3.704,7.263,8.595,9.249c4.569,1.855,11.131,2.446,14.18-2.268c1.119-1.73,1.474-3.738,1.629-5.777
	c1.264,0.223,2.715,0.158,4.182,0.085c3.563-0.179,8.005,0.563,10.976-1.684c1.583,4.268,4.653,7.953,9.106,9.569
	c6.69,2.427,11.394-0.877,14.377-6.114c0.906,2.518,2.826,3.969,6.711,4.624c2.528,0.427,4.475,1.763,7.033,2.079
	c3.606,0.445,7.574-0.124,11.206-0.221c4.02-0.108,7.885-0.921,11.932-0.822c3.799,0.093,7.375-0.065,11.125-0.718
	c0.701-0.122,1.338-0.279,1.918-0.469C288.071,428.235,287.432,436.596,287.359,445.062z M287.804,408.684
	c-0.296,2.346,0.149,3.966-2.321,5.058c-0.598,0.265-4.517,0.63-4.799,0.655c-4.032,0.355-8.046-0.328-12.092,0.122
	c-4.39,0.488-8.921,0.967-13.357,0.855c-2.671-0.067-4.979-1.155-7.534-1.9c-3.253-0.948-3.305-0.611-3.345-3.699
	c-0.014-1.135-0.142-2.182-0.279-3.312c-0.588-4.819-0.54-9.567,0.111-14.373c1.038-7.654-0.09-15.796-0.025-23.524
	c0.006-0.692,0.035-1.385,0.06-2.079c1.063-5.872,1.6-11.897,0.696-17.646c7.228,0.983,14.339,1.447,21.763,1.268
	c3.829-0.092,7.256-0.465,11.122-0.176c2.755,0.206,5.456,0.1,8.156-0.216c0.247,3.836-0.52,7.526-0.037,11.468
	c0.944,7.691,1.687,15.695,1.751,23.416C287.741,392.764,288.835,400.495,287.804,408.684z M289.267,342.261
	c-0.952,0.758-4.778,0.831-6.027,0.918c-2.589,0.179-5.089-0.007-7.591-0.123c0.156-1.555-0.009-3.187-0.116-4.719
	c-0.317-4.555-0.49-9.081-2.164-13.396c-0.492-1.269-1.793-3.832-3.47-6.054c5.432,1.014,9.934,3.44,13.382,8.108
	c3.022,4.091,4.958,8.814,7.009,13.43C289.98,341.268,289.633,341.97,289.267,342.261z M292.382,365.017
	c-0.174-2.171-0.637-4.352-0.763-6.52c-0.131-2.258,0.592-4.31,0.673-6.498c0.041-1.127-0.006-2.457-0.137-3.79
	c3.663-2.115,3.383-6.489,2.215-10.988c0.07-5.382-3.625-10.983-6.612-15.247c-3.625-5.175-8.371-7.953-14.109-9.458
	c0.397-3.204-0.176-6.866-0.746-9.456c-0.948-4.312-2.209-9.726-6.569-11.809c0.316-1.233,0.417-2.546,0.494-3.876
	c0.293-5.044,0.05-10.196,0.072-15.252c0.05-10.768-0.863-21.431-0.539-32.244c0.155-5.191,0.913-10.295,0.993-15.566
	c0.083-5.431-0.097-10.886,0.109-16.311c0.14-3.678,1.897-10.717,0.845-15.682c2.831,0.403,5.726,0.499,8.452,0.563
	c9.571,0.222,19.163,0.14,28.737,0.144c9.387,0.005,18.776-0.059,28.163,0.022c7.084,0.061,14.817,0.428,21.925-0.899
	c6.682,0.43,13.485-0.281,20.112,0.534c5.544,0.682,11.227,0.359,16.806,0.359c2.565,0,5.828,0.501,8.686,0.089
	c2.192-0.021,4.361-0.065,6.471-0.084c9.387-0.082,18.776-0.018,28.163-0.022c9.574-0.005,19.165,0.078,28.737-0.144
	c2.725-0.063,5.622-0.16,8.452-0.563c-1.05,4.965,0.706,12.004,0.845,15.682c0.207,5.426,0.027,10.88,0.109,16.311
	c0.08,5.271,0.837,10.377,0.993,15.566c0.323,10.813-0.589,21.475-0.539,32.244c0.024,5.056-0.221,10.206,0.072,15.252
	c0.077,1.33,0.18,2.643,0.494,3.876c-4.361,2.082-5.62,7.496-6.569,11.809c-0.57,2.589-1.143,6.253-0.746,9.456
	c-5.739,1.505-10.484,4.281-14.109,9.458c-2.987,4.264-6.68,9.863-6.612,15.247c-1.168,4.499-1.447,8.873,2.215,10.988
	c-0.131,1.331-0.179,2.663-0.137,3.79c0.08,2.187,0.804,4.24,0.673,6.498c-0.125,2.167-0.589,4.349-0.763,6.52
	c-0.467,5.827-0.718,11.676-1.143,17.498c-6.036-1.525-13.044-0.726-19.12-0.792c-6.501-0.072-13.303-0.586-19.768,0.103
	c-5.697,0.608-10.911,0.382-16.6,0.112c-1.16-0.054-2.278,0.017-3.378,0.15c-6.954,0.008-13.932,0.479-20.887,0.656
	c-4.364,0.112-8.637,0.043-12.926-0.205c-1.972-0.4-3.973-0.702-6.106-0.602c-0.326,0.015-0.647,0.03-0.971,0.045
	c-3.788-0.345-8.012-0.441-11.911,0.126c-1.224-0.061-2.457-0.149-3.717-0.284c-6.464-0.689-13.266-0.175-19.768-0.103
	c-6.075,0.066-13.083-0.733-19.12,0.792C293.1,376.693,292.849,370.843,292.382,365.017z M447.43,386.769
	c-0.071,0.764-0.124,1.531-0.206,2.294c-0.356,3.338-0.544,6.651-0.57,9.959c-2.585-0.332-5.842-0.5-6.165-0.526
	c-3.55-0.284-6.963-0.733-10.533-0.854c-6.892-0.232-13-0.557-19.917,0.171c-7.535,0.795-15.178,1.127-22.772,1.25
	c-0.407-0.038-0.815-0.071-1.224-0.102c-2.173-0.265-4.435-0.323-6.723-0.26c-1.077-0.011-2.146-0.014-3.209-0.009
	c-0.539-0.041-1.041-0.058-1.529,0.006c-0.993,0.007-1.975,0.015-2.941,0.02c-1.623,0.008-3.353-0.032-5.133-0.063
	c-0.19-0.013-0.384-0.015-0.581-0.009c-3.358-0.051-6.866-0.035-10.169,0.428c-0.354,0-0.707,0.007-1.062,0.002
	c-7.805-0.115-15.668-0.448-23.417-1.264c-6.917-0.73-13.025-0.403-19.917-0.171c-3.57,0.121-6.983,0.57-10.533,0.854
	c-0.323,0.026-3.58,0.194-6.165,0.526c-0.025-3.308-0.214-6.621-0.57-9.959c-0.082-0.763-0.135-1.529-0.206-2.294
	c5.956,1.406,12.802,0.643,18.752,0.708c7.013,0.077,14.16-0.401,21.094,0.553c5.089,0.7,10.251,0.391,15.274-0.523
	c0.434-0.079,0.863-0.137,1.291-0.184c5.639,0.753,11.13,1.218,16.898,1.262c6.357,0.047,12.74-0.188,19.099-0.356
	c3.306-0.087,6.652,0.098,9.944-0.141c3.762,0.424,7.571,0.461,11.339-0.057c6.934-0.954,14.081-0.477,21.094-0.553
	C434.628,387.412,441.474,388.174,447.43,386.769z M402.934,471.067c-0.034,6.242,0.372,12.44,0.365,18.696
	c-0.005,3.865-0.893,8.72-0.462,13.002c-0.691,0.006-1.38,0.019-2.07,0.025c-17.769,0.144-35.466,1.064-53.243,0.719
	c-8.089-0.157-16.232,0.108-24.33,0.177c-4.343,0.037-8.634-0.385-12.97-0.409c-4.291-0.024-8.526,0.767-12.809,0.339
	c-1.296-0.13-2.6-0.226-3.907-0.305c0.477-19.757,0.679-39.545,0.506-59.29c-0.079-9.093,0.187-18.098-0.037-27.195
	c-0.058-2.379,0.095-4.92,0.192-7.489c0.209-2.047,0.365-4.089,0.44-6.127c4.853,0.89,9.685,0.199,14.893,0.066
	c7.771-0.196,15.278-0.3,23.021,0.559c5.135,0.57,10.406,0.827,15.635,0.864c5.539,0.716,11.395,0.319,16.717,0.364
	c4.636,0.039,9.259-0.079,13.893-0.076c3.293,0.002,6.599,0.24,9.777-0.319c6.722,0.114,13.6-0.095,20.254-0.834
	c7.743-0.86,15.249-0.756,23.02-0.559c5.21,0.132,10.041,0.824,14.893-0.066c0.091,2.497,0.277,4.998,0.575,7.509
	c0.253,2.141,0.651,3.924,1.382,5.363c-9.55-0.455-19.132-0.568-28.658-0.633c-4.771-0.032-10.443-0.793-14.159,2.934
	c-3.009,3.019-2.381,9.361-2.646,13.335C402.333,444.871,403.005,457.917,402.934,471.067z M497.363,486.078
	c-0.117,3.388,0.114,7.48-0.38,10.819c-0.258,1.743-1.223,2.649-2.515,3.196c-0.945-0.145-1.96,0.063-2.913,0.752
	c-0.021,0.004-0.043,0.007-0.064,0.012c1.129-0.933,0.906-0.443-1.053-0.559c-1.383-0.082-2.712,0.183-4.084,0.281
	c-4.533,0.324-9.099-0.089-13.637,0.154c-7.581,0.406-15.174,0.462-22.752,0.806c-13.589,0.617-27.125,0.968-40.717,1.15
	c-0.28-4.572,0.229-9.454,0.221-13.93c-0.011-5.26-0.356-10.429-0.473-15.671c-0.26-11.639-0.488-23.227-0.66-34.877
	c-0.059-3.998-0.542-10.658,0.99-14.353c1.555-3.752,4.621-3.312,8.378-3.36c3.458-0.045,6.918-0.076,10.377-0.098
	c8.986-0.059,18.062,0.205,27.076-0.127c3.708,0.635,7.252,0.793,11.012,0.701c4.046-0.099,7.911,0.714,11.931,0.822
	c3.631,0.097,7.599,0.666,11.206,0.221c2.557-0.316,4.505-1.652,7.033-2.079c0.11-0.019,0.207-0.043,0.313-0.061
	c-0.66,4.992,0.806,11.041,1.051,15.401c0.428,7.612-0.095,15.159,0.31,22.718C498.513,467.305,497.685,476.763,497.363,486.078z
	 M497.45,342.313c-1.814,0.218-3.663,0.571-5.506,0.805c0.361-6.237-2.703-17.749-6.813-23.374c2.021,0.938,3.82,2.396,5.324,4.568
	c3.388,4.892,6.942,9.66,9.089,15.262C500.745,342.713,500.285,341.971,497.45,342.313z"/>
<path d="M34.427,387.084c3.192,0.078,5.958,0.043,9.13-0.025c1.836-0.039,4.322,0.449,5.919-0.815
	c1.336-1.058,1.03-2.206,1.088-3.76c0.106-2.903,0.021-5.386-0.18-8.257c-0.289-4.132-0.307-8.643-3.371-11.992
	c-2.379-2.601-6.591-2.119-9.575-0.837c-4.124,1.771-7.742,6.917-9.195,12.265c-1.271,2.803-1.024,6.154-0.908,9.326
	C27.498,387.399,30.937,386.999,34.427,387.084z M32.165,374.79c0.771-3.139,2.094-6.605,4.659-8.788
	c3.068-2.611,7.146-2.759,8.717,1.482c1.168,3.153,1.093,6.244,1.152,9.579c0.022,1.226,0.326,3.587-0.367,4.683
	c-0.248,0.422-0.209,0.713,0.121,0.874c-0.722,0.027-1.444,0.024-2.165-0.009c-2.78-0.015-5.479,0.225-8.272,0.103
	c-0.714-0.031-3.336,0.393-3.855-0.015c-0.601-0.473-0.369-0.493-0.415-1.88c-0.044-1.321-0.114-2.528-0.14-3.716
	C31.801,376.229,32.011,375.42,32.165,374.79z"/>
<path d="M65.43,452.94c-0.09-2.046,0.605-4.542-0.55-6.44c-2.176-3.576-8.032-2.747-12.497-2.023c-1.71-0.161-3.159-0.29-3.463-0.26
	c-4.27,0.408-8.548,0.112-12.788,0.869c-5.931,1.059-5.706,4.484-5.714,9.88c-0.009,5.929-2.138,12.953,0.143,18.709
	c2.009,5.069,9.02,4.375,13.45,5.19c4.732,0.87,12.737,1.645,17.491-0.206c5.889-2.291,4.497-8.775,4.486-13.939
	C65.978,460.751,65.604,456.889,65.43,452.94z M47.502,448.545c0.85-0.088,1.738-0.124,2.637-0.153
	c2.239,0.212,4.472,0.482,6.724,0.482c0.344,0,0.654-0.007,0.935-0.013c-0.553,0.686-1.097,1.382-1.578,2.147
	c-0.999,1.589-2.314,3.169-3.074,4.927c-2.288-0.306-4.448,0.341-6.735,0.167c-0.507-0.039-1.019-0.085-1.497-0.258
	c-0.945-0.343-1.411-1.367-2.02-2.109c-0.717-0.875-1.399-1.777-2.236-2.542c-0.651-0.596-1.252-1.246-1.936-1.804
	c-0.089-0.072-0.2-0.148-0.32-0.222C41.071,448.258,44.757,448.829,47.502,448.545z M51.303,464.53
	c-0.725,0.627-1.31,0.151-2.093,0.112c-1.007-0.05-1.878,0.41-2.903,0.077c-1.224-0.398-1.094-0.979-1.174-2.057
	c-0.064-0.862-0.411-2.022,0.258-2.744c0.769-0.83,1.363-0.685,2.361-0.576c1.374,0.15,2.766,0.087,4.141,0.245
	C52.085,460.915,52.482,463.512,51.303,464.53z M35.299,467.098c0.131-4.305-0.625-8.604-0.073-12.954
	c0.136-1.074,0.225-1.924,0.466-2.636c0.721,0.832,1.568,1.573,2.111,2.138c2.695,2.806,4.155,5.696,3.89,9.659
	c-0.147,2.185-1.878,3.207-3.27,4.639c-0.925,0.951-2.137,1.73-3.161,2.653C34.727,469.406,35.261,468.325,35.299,467.098z
	 M55.231,474.357c-4.125-0.06-7.817-0.685-11.85-1.265c-1.465-0.21-3.399-0.019-5.076-0.358c0.933-0.8,1.889-1.575,2.669-2.522
	c0.559-0.681,1.557-1.509,2.229-2.419c1.405,0.707,3.035,0.05,4.517,0.222c1.629,0.189,2.993,0.803,4.403,0.394
	c0.694,1.226,1.528,2.357,2.658,3.345c1.114,0.973,2.392,1.781,3.651,2.604C57.585,474.469,56.536,474.375,55.231,474.357z
	 M61.306,470.368c-0.032,0.184-0.069,0.345-0.103,0.513c-1.187-0.739-2.522-1.349-3.462-1.967c-1.039-0.685-2.042-1.755-3.146-2.572
	c1.528-2.483,1.394-6.3,0.776-8.883c1.388-1.283,2.429-3.043,3.488-4.542c0.56-0.792,1.097-1.578,1.764-2.274
	c0.044,0.176,0.086,0.364,0.129,0.577c0.715,3.618,0.508,7.982,0.52,11.667C61.28,465.218,61.704,468.089,61.306,470.368z"/>
<path d="M117.06,452.94c-0.09-2.046,0.605-4.542-0.55-6.44c-2.177-3.576-8.033-2.747-12.497-2.023
	c-1.71-0.161-3.159-0.29-3.463-0.26c-4.27,0.408-8.548,0.112-12.788,0.869c-5.931,1.059-5.706,4.484-5.715,9.88
	c-0.009,5.929-2.138,12.953,0.143,18.709c2.009,5.069,9.02,4.375,13.45,5.19c4.732,0.87,12.737,1.645,17.491-0.206
	c5.889-2.291,4.497-8.775,4.486-13.939C117.608,460.751,117.235,456.889,117.06,452.94z M99.133,448.545
	c0.85-0.088,1.738-0.124,2.638-0.153c2.239,0.212,4.472,0.482,6.724,0.482c0.344,0,0.654-0.007,0.935-0.013
	c-0.553,0.686-1.097,1.382-1.578,2.147c-0.999,1.589-2.314,3.169-3.074,4.927c-2.288-0.306-4.448,0.341-6.735,0.167
	c-0.506-0.039-1.019-0.085-1.497-0.258c-0.945-0.343-1.411-1.367-2.02-2.109c-0.717-0.875-1.399-1.777-2.236-2.542
	c-0.651-0.596-1.253-1.246-1.936-1.804c-0.09-0.072-0.2-0.148-0.32-0.222C92.702,448.258,96.389,448.829,99.133,448.545z
	 M102.933,464.53c-0.726,0.627-1.31,0.151-2.093,0.112c-1.007-0.05-1.878,0.41-2.903,0.077c-1.224-0.398-1.094-0.979-1.174-2.057
	c-0.064-0.862-0.411-2.022,0.258-2.744c0.769-0.83,1.362-0.685,2.361-0.576c1.374,0.15,2.766,0.087,4.141,0.245
	C103.716,460.915,104.113,463.512,102.933,464.53z M86.931,467.098c0.131-4.305-0.625-8.604-0.073-12.954
	c0.136-1.074,0.225-1.924,0.466-2.636c0.72,0.832,1.568,1.573,2.111,2.138c2.695,2.806,4.155,5.696,3.889,9.659
	c-0.147,2.185-1.878,3.207-3.27,4.639c-0.925,0.951-2.137,1.73-3.161,2.653C86.357,469.406,86.893,468.325,86.931,467.098z
	 M106.862,474.357c-4.125-0.06-7.817-0.685-11.85-1.265c-1.465-0.21-3.399-0.019-5.076-0.358c0.934-0.8,1.891-1.575,2.669-2.522
	c0.559-0.681,1.557-1.509,2.229-2.419c1.405,0.707,3.035,0.05,4.517,0.222c1.629,0.189,2.993,0.803,4.403,0.394
	c0.694,1.226,1.528,2.357,2.658,3.345c1.114,0.973,2.392,1.781,3.651,2.604C109.216,474.469,108.168,474.375,106.862,474.357z
	 M112.937,470.368c-0.032,0.184-0.069,0.345-0.103,0.513c-1.187-0.739-2.522-1.349-3.462-1.967
	c-1.039-0.685-2.042-1.755-3.146-2.572c1.528-2.483,1.394-6.3,0.776-8.883c1.388-1.283,2.429-3.043,3.488-4.542
	c0.56-0.792,1.097-1.578,1.764-2.274c0.044,0.176,0.086,0.364,0.129,0.577c0.715,3.618,0.508,7.982,0.52,11.667
	C112.911,465.218,113.336,468.089,112.937,470.368z"/>
<path d="M168.692,452.94c-0.09-2.046,0.605-4.542-0.55-6.44c-2.177-3.576-8.032-2.747-12.497-2.023
	c-1.71-0.161-3.159-0.29-3.463-0.26c-4.27,0.408-8.548,0.112-12.788,0.869c-5.931,1.059-5.706,4.484-5.716,9.88
	c-0.009,5.929-2.138,12.953,0.143,18.709c2.009,5.069,9.02,4.375,13.45,5.19c4.732,0.87,12.737,1.645,17.491-0.206
	c5.889-2.291,4.497-8.775,4.485-13.939C169.239,460.751,168.866,456.889,168.692,452.94z M150.763,448.545
	c0.85-0.088,1.738-0.124,2.637-0.153c2.239,0.212,4.472,0.482,6.724,0.482c0.344,0,0.654-0.007,0.935-0.013
	c-0.553,0.686-1.097,1.382-1.578,2.147c-0.999,1.589-2.314,3.169-3.074,4.927c-2.288-0.306-4.448,0.341-6.735,0.167
	c-0.506-0.039-1.019-0.085-1.497-0.258c-0.945-0.343-1.411-1.367-2.02-2.109c-0.717-0.875-1.399-1.777-2.236-2.542
	c-0.651-0.596-1.253-1.246-1.936-1.804c-0.089-0.072-0.201-0.148-0.32-0.222C144.332,448.258,148.02,448.829,150.763,448.545z
	 M154.565,464.53c-0.726,0.627-1.31,0.151-2.093,0.112c-1.006-0.05-1.876,0.41-2.903,0.077c-1.224-0.398-1.094-0.979-1.174-2.057
	c-0.064-0.862-0.411-2.022,0.258-2.744c0.769-0.83,1.362-0.685,2.361-0.576c1.374,0.15,2.766,0.087,4.141,0.245
	C155.346,460.915,155.744,463.512,154.565,464.53z M138.561,467.098c0.131-4.305-0.625-8.604-0.073-12.954
	c0.136-1.074,0.225-1.924,0.466-2.636c0.721,0.832,1.568,1.573,2.111,2.138c2.695,2.806,4.155,5.696,3.889,9.659
	c-0.147,2.185-1.878,3.207-3.27,4.639c-0.925,0.951-2.137,1.73-3.162,2.653C137.989,469.406,138.524,468.325,138.561,467.098z
	 M158.494,474.357c-4.125-0.06-7.817-0.685-11.85-1.265c-1.465-0.21-3.399-0.019-5.076-0.358c0.933-0.8,1.889-1.575,2.669-2.522
	c0.559-0.681,1.557-1.509,2.229-2.419c1.405,0.707,3.035,0.05,4.517,0.222c1.629,0.189,2.993,0.803,4.403,0.394
	c0.694,1.226,1.528,2.357,2.659,3.345c1.114,0.973,2.392,1.781,3.651,2.604C160.847,474.469,159.799,474.375,158.494,474.357z
	 M164.568,470.368c-0.032,0.184-0.069,0.345-0.103,0.513c-1.187-0.739-2.522-1.349-3.462-1.967
	c-1.039-0.685-2.042-1.755-3.146-2.572c1.528-2.483,1.394-6.3,0.776-8.883c1.388-1.283,2.429-3.043,3.488-4.542
	c0.56-0.792,1.097-1.578,1.765-2.274c0.044,0.176,0.086,0.364,0.129,0.577c0.715,3.618,0.508,7.982,0.52,11.667
	C164.542,465.218,164.966,468.089,164.568,470.368z"/>
<path d="M220.323,452.94c-0.09-2.046,0.605-4.542-0.55-6.44c-2.176-3.576-8.032-2.747-12.497-2.023
	c-1.71-0.161-3.159-0.29-3.463-0.26c-4.27,0.408-8.548,0.112-12.788,0.869c-5.931,1.059-5.706,4.484-5.715,9.88
	c-0.009,5.929-2.138,12.953,0.143,18.709c2.009,5.069,9.02,4.375,13.45,5.19c4.732,0.87,12.737,1.645,17.491-0.206
	c5.889-2.291,4.497-8.775,4.486-13.939C220.871,460.751,220.497,456.889,220.323,452.94z M202.395,448.545
	c0.85-0.088,1.738-0.124,2.637-0.153c2.239,0.212,4.472,0.482,6.724,0.482c0.344,0,0.654-0.007,0.935-0.013
	c-0.553,0.686-1.097,1.382-1.578,2.147c-0.999,1.589-2.314,3.169-3.074,4.927c-2.288-0.306-4.448,0.341-6.735,0.167
	c-0.506-0.039-1.019-0.085-1.497-0.258c-0.945-0.343-1.411-1.367-2.02-2.109c-0.717-0.875-1.399-1.777-2.236-2.542
	c-0.651-0.596-1.252-1.246-1.936-1.804c-0.089-0.072-0.2-0.148-0.32-0.222C195.964,448.258,199.65,448.829,202.395,448.545z
	 M206.196,464.53c-0.726,0.627-1.31,0.151-2.093,0.112c-1.007-0.05-1.876,0.41-2.903,0.077c-1.224-0.398-1.094-0.979-1.174-2.057
	c-0.064-0.862-0.411-2.022,0.258-2.744c0.769-0.83,1.363-0.685,2.361-0.576c1.374,0.15,2.766,0.087,4.141,0.245
	C206.978,460.915,207.375,463.512,206.196,464.53z M190.193,467.098c0.131-4.305-0.626-8.604-0.073-12.954
	c0.136-1.074,0.225-1.924,0.466-2.636c0.721,0.832,1.568,1.573,2.111,2.138c2.695,2.806,4.155,5.696,3.89,9.659
	c-0.147,2.185-1.878,3.207-3.27,4.639c-0.925,0.951-2.137,1.73-3.161,2.653C189.62,469.406,190.155,468.325,190.193,467.098z
	 M210.124,474.357c-4.125-0.06-7.817-0.685-11.85-1.265c-1.465-0.21-3.399-0.019-5.076-0.358c0.933-0.8,1.889-1.575,2.669-2.522
	c0.559-0.681,1.557-1.509,2.229-2.419c1.405,0.707,3.035,0.05,4.517,0.222c1.629,0.189,2.993,0.803,4.403,0.394
	c0.695,1.226,1.528,2.357,2.659,3.345c1.114,0.973,2.392,1.781,3.651,2.604C212.478,474.469,211.429,474.375,210.124,474.357z
	 M216.199,470.368c-0.032,0.184-0.069,0.345-0.103,0.513c-1.187-0.739-2.522-1.349-3.462-1.967
	c-1.039-0.685-2.042-1.755-3.146-2.572c1.528-2.483,1.394-6.3,0.776-8.883c1.388-1.283,2.429-3.043,3.488-4.542
	c0.56-0.792,1.096-1.578,1.764-2.274c0.044,0.176,0.086,0.364,0.129,0.577c0.715,3.618,0.508,7.982,0.52,11.667
	C216.173,465.218,216.598,468.089,216.199,470.368z"/>
<path d="M271.954,452.94c-0.09-2.046,0.605-4.542-0.55-6.44c-2.177-3.576-8.033-2.747-12.497-2.023
	c-1.71-0.161-3.159-0.29-3.463-0.26c-4.27,0.408-8.548,0.112-12.788,0.869c-5.931,1.059-5.706,4.484-5.716,9.88
	c-0.009,5.929-2.138,12.953,0.143,18.709c2.009,5.069,9.02,4.375,13.45,5.19c4.732,0.87,12.737,1.645,17.491-0.206
	c5.889-2.291,4.497-8.775,4.486-13.939C272.501,460.751,272.129,456.889,271.954,452.94z M254.026,448.545
	c0.85-0.088,1.738-0.124,2.637-0.153c2.239,0.212,4.473,0.482,6.724,0.482c0.344,0,0.654-0.007,0.935-0.013
	c-0.553,0.686-1.097,1.382-1.578,2.147c-0.999,1.589-2.314,3.169-3.074,4.927c-2.288-0.306-4.448,0.341-6.735,0.167
	c-0.506-0.039-1.019-0.085-1.497-0.258c-0.945-0.343-1.411-1.367-2.02-2.109c-0.717-0.875-1.399-1.777-2.236-2.542
	c-0.651-0.596-1.253-1.246-1.936-1.804c-0.09-0.072-0.2-0.148-0.32-0.222C247.595,448.258,251.282,448.829,254.026,448.545z
	 M257.826,464.53c-0.726,0.627-1.31,0.151-2.093,0.112c-1.007-0.05-1.878,0.41-2.903,0.077c-1.224-0.398-1.094-0.979-1.174-2.057
	c-0.064-0.862-0.411-2.022,0.258-2.744c0.769-0.83,1.362-0.685,2.361-0.576c1.374,0.15,2.766,0.087,4.141,0.245
	C258.609,460.915,259.006,463.512,257.826,464.53z M241.824,467.098c0.131-4.305-0.625-8.604-0.073-12.954
	c0.136-1.074,0.225-1.924,0.466-2.636c0.721,0.832,1.568,1.573,2.111,2.138c2.695,2.806,4.155,5.696,3.889,9.659
	c-0.147,2.185-1.878,3.207-3.27,4.639c-0.925,0.951-2.137,1.73-3.161,2.653C241.251,469.406,241.786,468.325,241.824,467.098z
	 M261.756,474.357c-4.125-0.06-7.817-0.685-11.85-1.265c-1.465-0.21-3.399-0.019-5.076-0.358c0.934-0.8,1.891-1.575,2.669-2.522
	c0.559-0.681,1.557-1.509,2.229-2.419c1.406,0.707,3.035,0.05,4.517,0.222c1.629,0.189,2.993,0.803,4.403,0.394
	c0.694,1.226,1.528,2.357,2.658,3.345c1.114,0.973,2.392,1.781,3.651,2.604C264.11,474.469,263.061,474.375,261.756,474.357z
	 M267.831,470.368c-0.032,0.184-0.069,0.345-0.103,0.513c-1.187-0.739-2.522-1.349-3.462-1.967
	c-1.039-0.685-2.042-1.755-3.146-2.572c1.528-2.483,1.394-6.3,0.776-8.883c1.388-1.283,2.429-3.043,3.488-4.542
	c0.56-0.792,1.096-1.578,1.764-2.274c0.044,0.176,0.086,0.364,0.129,0.577c0.715,3.618,0.508,7.982,0.52,11.667
	C267.805,465.218,268.229,468.089,267.831,470.368z"/>
<g>
</g>
<g>
</g>
<g>
</g>
<g>
</g>
<g>
</g>
<g>
</g>
<g>
</g>
<g>
</g>
<g>
</g>
<g>
</g>
<g>
</g>
<g>
</g>
<g>
</g>
<g>
</g>
<g>
</g>
</svg>
