<?xml version="1.0" encoding="iso-8859-1"?>
<!-- Generator: Adobe Illustrator 19.0.0, SVG Export Plug-In . SVG Version: 6.00 Build 0)  -->
<svg version="1.1" id="Layer_1" xmlns="http://www.w3.org/2000/svg" xmlns:xlink="http://www.w3.org/1999/xlink" x="0px" y="0px"
	 viewBox="0 0 511.999 511.999" style="enable-background:new 0 0 511.999 511.999;" xml:space="preserve">
<path style="fill:#A87E8E;" d="M432.915,505.644c-1.041,0.926-2.295,1.645-3.601,2.109c-2.939,1.044-6.133,1.03-9.251,1.003
	c-33.502-0.286-67.004-0.572-100.506-0.859c-5.246-0.045-10.738-0.152-15.333-2.68c-4.595-2.528-7.849-8.328-5.731-13.126
	c0.732-1.659,2.002-3.013,2.967-4.547c3.341-5.309,1.85-11.242,3.091-17.023c1.257-5.854,1.495-11.221,1.312-17.261
	c-1.707-56.313-3.962-112.61-5.295-168.931c-0.492-20.784,1.049-41.614,1.549-62.426c0.204-8.484,0.644-17.015,0.045-25.458
	c-0.494-6.957-3.093-15.324-6.287-21.541c-3.7-7.201-9.513-13.323-16.522-17.376c-11.358-6.568-25.48-7.78-38.077-4.11
	c-10.019,2.919-19.339,9.024-24.828,17.9c-4.905,7.931-6.381,17.337-6.672,26.514c-0.294,9.271,0.073,18.451-0.073,27.725
	c-1.26,80.255-1.647,160.528-6.239,240.7c-0.282,4.921-1.6,11.704,0.344,16.312c1.575,3.732,5.313,6.28,6.651,10.104
	c1.842,5.261-1.694,11.194-6.557,13.917c-4.863,2.723-10.674,3.009-16.245,3.147c-23.221,0.575-46.45-0.302-69.66-1.18
	c-12.224-0.461-24.449-0.923-36.673-1.386c-2.992-0.114-6.547-0.565-7.902-3.235c-1.361-2.679,0.49-5.977,2.927-7.736
	c2.437-1.759,5.432-2.631,7.832-4.44c3.592-2.707,5.434-7.245,5.864-11.723c0.433-4.507-0.708-8.667-1.122-13.097
	c-0.417-4.471-0.16-9.118-0.235-13.611c-0.162-9.614-0.312-19.227-0.45-28.841c-0.277-19.228-0.512-38.456-0.732-57.685
	c-0.24-20.829-0.345-41.661-0.263-62.491c0.192-49.22,0.414-98.44,0.636-147.661c0.097-21.656,0.196-43.314,0.292-64.971
	c0.048-10.828,0.095-21.656,0.143-32.486c0.023-5.404,0.243-10.849,0.071-16.25c-0.137-4.273,0.512-8.364,0.385-12.595
	c-0.088-2.901-1.182-5.915-3.516-7.642c-3.079-2.277-7.802-2.036-10.153-5.058c-2.377-3.056-0.667-7.853,2.511-10.062
	c3.178-2.21,7.261-2.526,11.126-2.735c23.801-1.279,47.492-0.222,71.223-0.659c24.591-0.452,49.186-0.775,73.781-0.969
	c49.19-0.386,98.386-0.254,147.573,0.396c13.773,0.182,27.545,0.406,41.315,0.669c4.916,0.094,10.25,0.341,14.029,3.487
	c5.411,4.504,3.796,13.642-4.03,14.063c-1.847,0.1-3.849-0.418-5.456,0.499c-1.487,0.849-2.111,2.653-2.453,4.331
	c-1.228,6.009,0.797,11.287,0.79,17.17c0,23.645-2.777,47.19-3.303,70.87c-0.265,11.943-0.253,23.892,0.041,35.833
	c0.279,11.371,1.631,22.836,1.945,34.084c0.338,12.089-1.155,24.458-1.388,36.573c-0.234,12.194-0.242,24.395-0.022,36.589
	c0.447,24.55,2.418,49.036,3.361,73.567c0.426,11.087-0.613,22.596-0.692,33.807c-0.086,12.306-0.177,24.612-0.254,36.918
	c0,13.749-0.092,27.501-0.145,41.25c-0.052,13.584-1.698,27.185-2.879,40.749c-0.114,1.305-0.213,2.689,0.384,3.855
	c0.996,1.945,3.438,2.505,5.495,3.246c4.287,1.545,8.249,5.639,7.437,10.123C435.181,503.007,434.216,504.486,432.915,505.644z"/>
<path style="fill:#4F3B44;" d="M246.315,103.721c-3.738,0.641-7.194,1.547-10.842,2.59c-1.866,0.533-3.227,1.445-4.903,2.313
	c-4.035,2.089-8.087,3.801-11.891,6.386c-4.029,2.739-6.499,6.5-9.464,10.237c-3.198,4.029-6.201,8.609-8.183,13.37
	c-1.724,4.142-2.587,8.565-3.602,12.917c-0.315,1.35-0.169,2.183-0.173,3.494c-0.008,3.517-1.111,7.343-1.626,10.805
	c-1.037,6.985-1.699,14.073-2.349,21.104c-0.397,4.301-0.581,8.623-0.455,12.941c0.1,3.44,1.326,6.415,1.387,9.85
	c0.158,8.911-0.744,17.789-1.173,26.68c-0.133,2.755-0.222,5.513-0.22,8.272c0.002,3.624,0.187,7.23,0.43,10.844
	c0.175,2.596,0.884,5.024,1.083,7.614c0.217,2.803,0.044,5.615-0.016,8.419c-0.166,7.762-1.357,15.433-1.388,23.206
	c-0.03,7.569-0.191,15.147-0.462,22.71c-0.088,2.466-0.738,5.863-0.052,8.25c0.275,0.956,0.764,1.513,0.765,2.605
	c0.001,1.104-0.29,2.186-0.359,3.285c-0.253,3.955-0.104,7.92-0.416,11.877c-0.305,3.874-1.007,7.707-1.32,11.577
	c-0.338,4.186-0.519,8.389-0.791,12.581c-0.49,7.532-1.119,15.055-1.404,22.599c-0.141,3.728-0.198,7.459-0.111,11.189
	c0.044,1.854,0.065,3.732,0.246,5.578c0.143,1.451,0.908,2.569,1.023,4.078c0.266,3.488-0.212,6.972-0.341,10.455
	c-0.238,6.438-0.614,12.861-0.892,19.293c-0.437,10.106-0.138,20.238-0.523,30.349c-0.14,3.686-0.042,7.342-0.014,11.021
	c0.015,1.925-0.125,4.206,0.531,6.064c0.98,2.775,3.93,3.743,6.533,4.192c3.096,0.535,5.587,1.742,6.634,4.872
	c0.869,2.601,0.401,5.087,0.374,7.751c-0.02,1.926,0.18,4.051,2.682,3.529c5.673-1.181,7.073-7.15,6.743-12.142
	c-0.152-2.292-0.955-4.037-2.498-5.682c-0.711-0.758-1.088-1.371-2.125-1.526c-1.251-0.188-1.524,0.13-2.416-0.899
	c-0.81-0.935-1.847-1.743-2.55-2.768c-0.911-1.329-1.21-2.926-1.451-4.496c-0.798-5.207,0.111-10.822,0.344-16.049
	c0.343-7.724,0.845-15.439,1.191-23.164c0.278-6.221,0.969-12.413,1.628-18.603c0.643-6.036,0.966-12.004,1.58-18.024
	c0.32-3.13-0.015-6.274,0.03-9.41c0.06-4.159,0.178-8.308,0.192-12.467c0.015-4.417,0.562-8.797,0.882-13.195
	c0.399-5.473,0.66-10.973,0.965-16.453c0.291-5.236,0.29-10.478,0.452-15.718c0.118-3.805,0.626-7.672,0.422-11.479
	c-0.125-2.342-1.271-4.409-1.421-6.744c-0.484-7.535,0.323-15.249,0.654-22.778c0.276-6.285,0.359-12.57,0.557-18.854
	c0.131-4.153,0.561-8.252,0.301-12.411c-0.207-3.327,0.377-6.628,0.662-9.93c0.129-1.484,0.315-3.075,0.064-4.555
	c-0.162-0.952-0.605-1.82-0.709-2.786c-0.346-3.185,0.29-6.712,0.35-9.928c0.061-3.326,0.072-6.652,0.161-9.978
	c0.087-3.27-0.214-6.554,0.012-9.816c0.262-3.78,0.367-7.518,0.466-11.304c0.081-3.111,0.517-6.184,0.629-9.292
	c0.112-3.091,0.364-6.177,0.802-9.24c0.418-2.922,1.309-5.454,2.437-8.182c1.817-4.395,3.923-8.758,6.556-12.73
	c1.051-1.586,2.684-1.907,4.159-3.049c1.798-1.392,3.373-3.064,5.332-4.242c1.795-1.08,3.651-2.225,5.623-2.94
	c2.389-0.866,4.556-2.263,6.915-3.097c2.161-0.765,4.634-1.082,6.856-1.723c2.689-0.776,5.583-0.058,8.337-0.433
	c2.381-0.324,5.073-0.176,7.471,0.005c2.386,0.18,4.342,1.141,6.558,1.918c1.692,0.593,3.546,0.904,5.089,1.855
	c1.422,0.877,2.619,2.022,4.09,2.861c2.387,1.359,4.859,3.108,6.869,4.996c0.904,0.849,1.699,1.747,2.782,2.371
	c0.885,0.509,1.827,0.482,2.674,1.086c0.827,0.59,1.39,1.484,2.156,2.142c2.264,1.947,3.195,4.005,4.087,6.843
	c2.336,7.439,2.562,15.397,2.571,23.127c0.005,3.747-1.214,8.024-0.329,11.679c0.883,3.644,0.457,7.693,0.353,11.435
	c-0.152,5.516-0.745,11.043-0.677,16.555c0.052,4.211,0.195,8.498-0.206,12.696c-0.519,5.447-1.301,10.826-1.553,16.301
	c-0.261,5.694,0.015,11.891,1.323,17.458c0.225,0.957,0.676,1.458,1.149,2.265c0.6,1.023,0.615,2.076,0.691,3.244
	c0.198,3.066,0.221,6.132,0.221,9.203c0,5.503-0.178,11.009,0.213,16.506c0.856,12.043,1.411,24.033,1.411,36.116
	c0,3.638-0.035,7.278-0.014,10.916c0.019,3.284,0.542,6.539,0.441,9.745c-0.058,1.831,0.102,3.658,0.119,5.488
	c0.046,4.865-0.236,9.722-0.225,14.584c0.019,7.621,0.151,15.27,0.494,22.881c0.35,7.775-0.163,15.544-0.168,23.302
	c-0.002,3.755,0.327,7.48,0.459,11.229c0.116,3.285,0.723,6.507,0.63,9.8c-0.146,5.243-0.637,10.497-0.879,15.733
	c-0.132,2.867,0.166,5.81-0.642,8.619c-0.448,1.561-1.992,2.638-3.277,3.598c-5.23,3.908-4.067,11.136,0.03,15.512
	c1.688,1.802,5.317,4.818,7.833,2.707c2.713-2.277,1.17-6.497,2.232-9.474c0.76-2.131,2.596-3.213,4.799-2.636
	c2.809,0.735,4.854,0.527,6.431-2.18c1.151-1.974,1.185-3.618,0.677-5.745c-0.62-2.593-0.285-5.235-0.304-7.88
	c-0.022-3.168-0.191-6.332-0.338-9.497c-0.419-8.991-1.126-17.915-0.543-26.914c0.49-7.571,0.168-15.217,0.407-22.807
	c0.273-8.686,0.68-17.347,0.78-26.039c0.045-3.978-0.555-7.919-1.132-11.843c-0.516-3.506-0.599-7.148-1.638-10.537
	c-1.053-3.436-0.247-7.43-0.257-10.981c-0.013-4.27-0.217-8.537-0.229-12.808c-0.019-6.752-0.161-13.525-0.105-20.274
	c0.022-2.718,0.229-5.448,0.103-8.165c-0.11-2.373-0.416-4.718-0.428-7.099c-0.024-4.662-0.378-9.278-0.474-13.931
	c-0.052-2.529,0.652-4.996,0.861-7.505c0.166-1.983-0.554-3.2-0.947-5.032c-0.526-2.455,0.119-5.419,0.269-7.907
	c0.167-2.775,0.317-5.553,0.389-8.332c0.102-3.945,0.231-7.891,0.392-11.835c0.127-3.116-0.54-6.003-0.498-9.134
	c0.102-7.705,0.738-15.39,1.108-23.084c0.271-5.637,0.68-11.506,0.294-17.142c-0.117-1.706-0.983-3.156-1.199-4.831
	c-0.346-2.672,0.088-5.51,0.131-8.196c0.07-4.382-0.307-8.751-0.255-13.129c0.054-4.604,0.123-9.198-0.25-13.79
	c-0.295-3.638-0.801-7.116-1.655-10.672c-1.183-4.921-2.395-9.981-3.337-14.927c-0.942-4.943-3.591-9.621-6.517-13.644
	c-3.088-4.246-6.783-8.457-10.824-11.82c-3.757-3.126-7.777-6.192-12.016-8.638c-2.89-1.667-6.382-2.499-9.518-3.585
	c-1.87-0.648-3.781-0.761-5.686-1.268c-2.315-0.616-4.498-0.409-6.858-0.701c-1.497-0.185-2.922-0.713-4.431-0.835
	c-1.165-0.094-2.297,0.109-3.453,0.105c-1.401-0.003-2.366-0.074-3.718,0.242C249.59,103.211,247.926,103.445,246.315,103.721z"/>
<path style="fill:#936D7D;" d="M310.461,134.044c0.848,1.915,0.614,4.402,1.153,6.483c0.895,3.455,2.463,6.554,3.255,10.07
	c1.657,7.359,3.169,14.959,3.711,22.484c1.606,22.302,1.569,44.866,1.447,67.25c-0.126,23.232-1.257,46.437-0.838,69.6
	c0.43,23.763,2.111,47.492,2.269,71.261c0.007,0.955,0.01,1.91,0.012,2.864c0.027,26.783,0.633,53.467,1.716,80.225
	c0.219,5.423-0.687,11.076-1.209,16.479c-0.207,2.156-2.158,9.865-0.767,11.587c1.244,1.541,6.994,0.674,8.521,0.623
	c6.731-0.221,13.344-1.76,20.095-1.765c14.19-0.009,28.413,0.363,42.592-0.51c2.073-0.127,5.283,0.72,7.137,0.167
	c3.203-0.957,2.012-5.745,1.269-8.688c-1.041-4.125-3.404-6.777-6.317-9.733c-4.006-4.064-7.449-8.624-11.264-12.872
	c-9.037-10.063-16.303-22.44-20.804-35.248c-6.11-17.388-11.235-35.558-15.404-53.492c-2.546-10.955-5.001-21.623-5.075-32.923
	c-0.078-11.935-0.192-24.078,0.338-35.996c0.161-3.607,1.626-6.807,2.006-10.354c0.628-5.865-0.443-12.353-1.395-18.136
	c-2.25-13.671-2.519-27.485-4.615-41.187c-1.804-11.796-1.227-23.902-3.777-35.594c-2.25-10.314-3.779-20.492-7.261-30.51
	c-1.631-4.694-3.088-9.469-4.845-14.119C319.979,145.579,316.493,139.831,310.461,134.044z"/>
<g>
	<path style="fill:#604852;" d="M369.611,349.735c-1.717-0.605-3.491,0.235-5.067,0.869c-2.686,1.08-3.473,2.986-4,5.786
		c-1.846,9.82-1.429,19.807-1.319,29.735c0.093,8.307-0.621,16.71-1.33,24.985c-0.291,3.385-0.761,6.711-0.387,10.112
		c0.418,3.799,1.027,7.581,1.548,11.368c0.472,3.423,1.003,7.05,2,10.371c0.91,3.03,2.861,4.014,5.826,4.525
		c1.386,0.239,2.813,0.611,4.226,0.647c1.655,0.042,3.255-0.46,4.893-0.625c2.587-0.258,4.1-1.009,6.177-2.542
		c1.407-1.037,1.995-2.242,2.35-3.947c0.789-3.804,0.869-7.935,1.112-11.798c0.852-13.528-0.006-27.188-0.008-40.731
		c0-3.695-0.143-7.422,0.01-11.114c0.121-2.927,0.615-5.82,0.647-8.756c0.041-3.795-0.205-7.638-1.173-11.316
		c-0.638-2.429-1.613-4.04-3.554-5.615c-1.199-0.973-2.492-1.329-3.957-1.732C374.948,349.224,373.352,349.452,369.611,349.735z"/>
	<path style="fill:#604852;" d="M367.121,201.206c-5.468,0.366-5.985,5.585-6.96,10.157c-1.914,8.975-1.253,18.178-1.671,27.283
		c-0.365,7.955-1.388,15.795-1.439,23.778c-0.054,8.374-0.296,16.851,1.327,25.104c0.557,2.839,0.939,6.658,3.066,8.813
		c1.907,1.933,4.087,2.748,6.725,2.59c1.492-0.089,2.714,0.161,4.169,0.367c1.475,0.209,2.782-0.162,4.241-0.349
		c1.236-0.159,2.532-0.163,3.725-0.568c1.063-0.36,1.919-1.173,3.016-1.414c2.047-0.452,2.5-0.48,2.945-2.847
		c1.014-5.404,1.1-11.329,0.969-16.798c-0.295-12.274-0.102-24.581-0.083-36.857c0.009-6.601,0.058-13.324-0.428-19.911
		c-0.298-4.045,0.334-8.222-0.868-12.102c-0.443-1.432-0.541-2.404-1.83-3.222c-1.187-0.753-2.567-1.692-3.81-2.321
		c-1.467-0.743-3.24-0.812-4.84-1.031C372.431,201.478,369.829,201.291,367.121,201.206z"/>
</g>
<path style="fill:#936D7D;" d="M421.988,32.077c-0.783,0.423-2.003,0.286-3.113,0.29c-6.846,0.022-13.691,0-20.537,0
	c-26.433,0-52.817,0.935-79.236,1.645c-30.523,0.822-61.235,1.305-91.483,5.622c-7.848,1.126-15.412,2.521-23.333,2.677
	c-7.581,0.148-15.091,4.39-21.702,7.777c-7.058,3.615-12.33,9.756-17.429,15.699c-9.057,10.555-15.284,21.083-19.455,34.347
	c-8.254,26.237-9.744,54.12-10.416,81.426c-0.36,14.642-1.334,29.428-3.218,43.957c-1.621,12.5-3.556,24.963-9.31,36.24
	c-5.576,10.926-5.331,25.661-4.906,37.646c0.393,11.085,1.26,22.21,2.068,33.276c1.78,24.342,1.896,48.838,6.732,72.836
	c3.711,18.41,10.322,34.428,19.318,50.754c4.595,8.338,11.585,14.69,15.63,23.297c2.05,4.363,3.791,9.183-1.426,12.281
	c-3.379,2.006-10.031,2.502-14.038,2.579c-5.015,0.097-10.237-1.243-15.246-1.686c-7.167-0.634-14.25,0-21.405-0.118
	c-4.286-0.071-7.86-1.475-11.961-2.237c-1.576-0.293-3.255,0.151-4.642-0.941c-2.239-1.764-1.974-5.213-1.995-7.714
	c-0.107-12.734-0.904-25.451-0.876-38.174c0.059-27.311-3.447-54.561-0.866-81.821c0.743-7.835,1.423-15.62,2.037-23.456
	c0.593-7.569-0.561-14.944-0.162-22.492c0.74-14.012-0.275-28.423-1.251-42.409c-0.92-13.173-0.626-26.538,0.139-39.8
	c1.192-20.675-0.015-41.305-0.191-61.975c-0.119-14.012,0.03-27.812-0.689-41.832c-0.333-6.483-0.13-13.187-0.905-19.625
	c-0.373-3.097-1.261-5.707-1.322-8.847c-0.071-3.684-0.194-7.38-0.477-11.053c-0.633-8.183-0.642-16.497,0.351-24.615
	c0.84-6.872,1.802-13.122,1.096-20.113c-0.65-6.441-2.404-12.196-1.251-18.69c1.054-5.94,5.341-5.273,10.672-5.484
	c16.383-0.648,32.842,0.416,49.213-0.295c9.876-0.43,19.212-1.196,29.091-0.616c9.863,0.578,20.069,0.388,29.933-0.102
	c18.565-0.922,37.147-2.14,55.734-2.158c12.401-0.012,24.724,1.101,37.132,1.152c12.044,0.05,24.072,0.55,36.131,0.586
	c17.183,0.051,34.385-0.754,51.562-0.064c9.099,0.366,18.53,0.559,27.575,1.496c3.358,0.348,6.734,1.331,10.073,1.498
	C423.949,24.856,424.46,28.421,421.988,32.077z"/>
<g>
	<path style="fill:#604852;" d="M241.976,32.867c-1.115-0.275-2.254-0.052-3.363,0.148c-2.042,0.367-3.767,0.264-5.807,0.169
		c-3.474-0.161-7.805,0.718-9.096,4.434c-1.895,5.459-2.411,10.937-2.411,16.674c-0.001,6.482-0.028,12.974,0.014,19.441
		c0.016,2.425,0.21,4.882,0.312,7.308c0.088,2.101-0.188,4.487,0.291,6.533c0.192,0.824,0.621,2.324,1.346,2.872
		c0.732,0.553,2.684,0.952,3.606,1.189c1.333,0.343,3.014-0.415,4.218,0.229c0.995,0.533,2.102,2.509,2.358,3.554
		c0.324,1.326,0.162,2.879,0.222,4.244c0.032,0.73-0.304,2.828,0.074,3.375c0.295,0.428,1.896,0.766,2.334,0.878
		c1.816,0.466,4.119,0.532,5.989,0.638c2.222,0.126,4.043-1.27,6.142-1.686c1.63-0.323,3.483-0.932,5.148-0.948
		c3.076-0.029,6.39-0.023,9.447,0.377c2.283,0.299,4.644,0.498,6.802,1.219c1.181,0.394,1.795,1.083,2.872,1.571
		c0.907,0.411,2.803,0.898,3.781,0.994c1.969,0.194,2.831-2.426,3.175-4.039c0.487-2.284-0.446-4.832,0.399-7.017
		c0.433-1.122,1.409-2.474,2.602-2.837c0.828-0.251,1.63,0.071,2.466,0.028c1.196-0.061,2.134-0.611,3.102-1.275
		c3.548-2.434,2.657-8.321,2.917-12.051c0.272-3.908-0.581-7.875-0.758-11.802c-0.202-4.465-0.027-8.868-0.129-13.323
		c-0.088-3.798,0.057-7.745-0.367-11.518c-0.254-2.263-0.26-5.392-1.817-7.262c-1.569-1.884-4.66-2.628-6.977-2.979
		c-3.825-0.581-8.103-0.086-11.949,0.046c-3.803,0.13-7.666,0.387-11.469,0.243c-2.49-0.094-4.921,0.199-7.4,0.213
		C247.773,32.526,245.548,32.023,241.976,32.867z"/>
	<path style="fill:#604852;" d="M128.522,204.454c-0.758,0.899-1.014,2.046-1.331,3.152c-0.827,2.879-1.538,5.769-1.908,8.746
		c-0.841,6.744-0.671,13.952-0.659,20.743c0.017,10.051,0.593,19.982,1.52,29.977c0.68,7.338,0.541,14.683,1.001,22.009
		c0.152,2.416-0.158,4.965,1.497,6.963c1.735,2.094,3.942,2.406,6.398,3.045c1.466,0.382,2.783,0.848,4.321,0.844
		c2.025-0.005,4.035-0.435,6.073-0.432c2.765,0.003,6.149-0.222,7.851-2.833c0.869-1.333,0.766-3.342,0.891-4.852
		c0.187-2.239,0.524-4.463,0.633-6.707c0.249-5.1,0.461-10.39,0.236-15.485c-0.081-1.853-0.451-3.663-0.523-5.524
		c-0.08-2.059,0.094-4.122,0.09-6.183c-0.006-4.488-0.439-8.942-0.568-13.425c-0.247-8.612-1.448-17.156-1.794-25.756
		c-0.153-3.792,0.693-7.573,0.17-11.345c-0.25-1.806-0.791-5.292-2.675-5.896c-2.793-0.895-5.666,0.07-8.489,0.148
		C136.919,201.766,133.521,202.824,128.522,204.454z"/>
	<path style="fill:#604852;" d="M129.497,351.576c-0.536,0.484-0.667,1.129-0.859,1.808c-0.7,2.498-1.11,5.135-1.577,7.682
		c-1.244,6.775-2.321,13.421-2.572,20.318c-0.378,10.342,0.447,20.57,0.991,30.874c0.403,7.645,0.26,15.287,0.638,22.924
		c0.216,4.338,0.8,11.789,5.95,13.309c2.078,0.613,5.39,0.233,7.578,0.097c1.789-0.111,3.382-0.816,5.113-1.195
		c1.59-0.349,3.276-0.314,4.792-0.978c2.145-0.94,3.314-2.438,3.583-4.773c0.546-4.753,0.71-9.731,0.918-14.522
		c0.387-8.915,1.012-18.107,0.119-26.989c-0.378-3.762-0.593-7.615-0.857-11.396c-0.331-4.75-0.87-9.652-0.436-14.397
		c0.406-4.424,0.841-8.776,0.516-13.22c-0.18-2.451-0.44-5.823-2.152-7.829c-1.558-1.827-4.429-2.825-6.721-3.229
		C139.093,349.104,134.121,351.316,129.497,351.576z"/>
	<path style="fill:#604852;" d="M117.706,5.212c-3.967,0.324-7.949,0.502-11.93,0.401c-3.512-0.089-7.322,0.017-10.774-0.672
		c-2.257-0.451-4.203-1.18-6.551-0.869c-1.892,0.25-3.746,0.832-5.608,1.243c-1.504,0.333-3.154,0.479-4.39,1.489
		c-1.169,0.955-2.209,2.066-3.074,3.304c-1.979,2.826-2.602,8.152,1.078,10.032c1.878,0.959,4.453,0.913,6.507,1.198
		c3.738,0.518,7.385,0.632,11.154,0.455c3.393-0.159,6.71,0.358,10.094,0.461c4.001,0.122,8.023-0.147,12.029-0.098
		c4.285,0.051,8.55-0.314,12.832-0.335c5.324-0.025,10.629,0.174,15.954-0.016c5.14-0.183,10.303-0.319,15.438-0.626
		c3.994-0.239,7.799-0.948,11.81-1.159c4.269-0.224,8.54-0.374,12.813-0.462c5.263-0.108,10.423-0.409,15.687,0.027
		c5.695,0.472,11.424-0.032,17.131,0.095c5.721,0.129,11.438,0.334,17.161,0.138c7.334-0.251,14.676-0.279,22.008-0.591
		c6.887-0.292,13.996,0.484,20.913,0.663c2.957,0.076,5.897,0.438,8.856,0.438c3.374,0.001,6.736-0.284,10.111-0.195
		c6.059,0.161,12.046,0.381,18.112,0.39c6.711,0.01,13.421-0.107,20.132-0.115c6.108-0.007,12.24,0.342,18.347,0.496
		c4.942,0.125,9.839,0.316,14.772,0.645c4.052,0.27,8.3-0.13,12.251,0.589c4.371,0.795,9.19-0.298,13.625-0.098
		c4.177,0.187,8.359,0.297,12.54,0.196c7.981-0.192,15.954-0.081,23.928-0.181c3.667-0.046,5.573-1.888,6.734-5.322
		c0.66-1.956,0.769-5.891-0.324-7.685c-1.698-2.784-4.962-3.766-7.959-3.789c-5.293-0.042-10.499,0.356-15.768,0.819
		c-5.92,0.521-12.113,0.394-18.049,0.385c-3.199-0.005-6.775,0.295-9.877-0.63c-2.171-0.648-3.578-2.003-5.956-2.184
		c-6.79-0.516-13.609,0.543-20.391,0.73c-9.447,0.261-19.059-0.345-28.487-0.91c-8.645-0.518-17.498-0.248-26.15,0.058
		c-7.85,0.278-15.706-0.194-23.535,0.571c-3.378,0.33-6.834,0.396-10.197-0.137c-0.993-0.158-1.911-0.559-2.893-0.729
		c-1.351-0.235-2.796-0.007-4.159,0.029c-4.065,0.107-8.134,0.065-12.2,0.145c-17.471,0.345-34.933,0.778-52.409,0.884
		c-9.413,0.058-18.821,0.26-28.233,0.328c-2.916,0.021-5.836-0.13-8.73-0.501c-2.474-0.317-4.831-0.387-7.346-0.481
		C142.336,3.175,130.026,4.203,117.706,5.212z"/>
</g>
<path style="fill:#513D46;" d="M258.648,44.883c-1.248,0.229-2.619,2.195-3.309,3.168c-1.63,2.299-2.41,5.288-2.33,8.092
	c0.121,4.256,3.623,7.683,2.825,11.931c-0.268,1.423-1.162,2.813-1.283,4.222c-0.122,1.426,1.239,1.912,1.371,3.138
	c0.116,1.078-1.234,2.008-1.85,2.728c-1.584,1.849-3.253,5.307-1.397,7.496c1.509,1.781,3.671,1.918,4.361,4.436
	c0.579,2.112,0.805,3.151,3.353,2.322c1.798-0.585,4.222-2.346,6.181-1.516c1.33,0.565,1.363,2.532,0.642,3.651
	c-0.713,1.107-2.935,1.978-4.144,2.257c-2.299,0.533-4.977-0.671-7.14,0.457c-2.288,1.192-0.911,2.652,1.025,2.726
	c2.658,0.102,5.606-1.136,8.076,0.125c-0.805,0.849-2.561,1.729-3.729,2.197c-1.199,0.481-2.681,0.496-3.943,0.255
	c-2.758-0.527-5.507-0.226-8.339,0.01c-1.569,0.131-5.113,1.526-6.284-0.508c-0.92-1.599,0.885-5.31,1.19-6.963
	c0.437-2.371,0.875-4.144-0.243-6.323c-0.723-1.41-1.657-2.67-2.392-4.002c-0.567-1.028-0.654-2.514-0.929-3.645
	c-0.506-2.079-1.205-4.899-3.652-5.401c-1.145-0.235-1.378-0.276-2.212-1.302c-0.743-0.914-1.153-1.618-1.278-2.811
	c-0.25-2.388,0.728-5.086,2.742-6.544c0.81-0.587,1.235-0.482,1.68-1.345c0.786-1.523,0.944-3.889,1.287-5.563
	c0.564-2.75,0.629-5.452,2.173-7.871c1.937-3.039,5.833-5.845,9.101-7.279C251.722,42.353,259.795,41.616,258.648,44.883z"/>
<g>
	<path style="fill:#604852;" d="M108.264,490.64c-3.071,0.16-5.915,0.213-9.06,0.516c-3.916,0.378-8.456-0.481-12.087,0.234
		c-3.19,0.629-6.852,2.922-9.038,5.378c-1.412,1.586-3.573,5.344-1.701,7.359c1.299,1.397,7.223,1.651,9.073,1.816
		c8.345,0.74,16.635,1.964,25.032,2.295c9.647,0.381,19.056,0.087,28.679,0.07c13.459-0.024,26.822,1.098,40.333,1.161
		c4.031,0.019,8.121,0.773,12.081-0.132c1.648-0.377,5.036-0.637,6.517-1.527c2.67-1.605,3.688-7.599,1.643-9.639
		c-3.064-3.056-12.406-3.027-16.316-3.164c-6.161-0.218-12.11-1.138-18.245-1.891c-4.796-0.587-9.586,0.043-14.381-0.739
		c-4.051-0.66-7.967-0.678-12.046-0.845C129.606,491.155,120.591,491.42,108.264,490.64z"/>
	<path style="fill:#604852;" d="M317.413,493.537c-8.402-0.054-12.12,10.738-2.184,11.87c4.956,0.564,9.853,0.83,14.82,1.246
		c7.666,0.642,15.377-1.103,22.996-0.094c14.275,1.892,29.418,3.375,43.796,1.774c9.025-1.006,17.8-1.105,26.757-1.534
		c3.27-0.156,7.433-0.329,10.264-2.037c3.929-2.37,1.575-7.169-0.636-9.769c-2.936-3.453-7.77-2.856-11.912-3.256
		c-6.05-0.584-12.08-0.585-18.163-0.523c-14.864,0.152-29.734-0.621-44.626,0.297c-7.171,0.443-14.53,1.659-21.701,1.166
		C330.48,492.238,323.866,492.661,317.413,493.537z"/>
</g>
<path d="M155.771,363.427c-0.251-3.439,0.353-9.504-1.746-12.635c-2.285-3.407-7.03-2.714-10.6-3.142
	c-5.952-0.715-19.429-0.693-19.323,8.103c-1.382,3.834-0.95,9.106-1.261,13.026c-0.443,5.576-0.862,11.231-1.028,16.826
	c-0.345,11.668,0.864,23.468,0.834,35.195c-0.014,5.378-0.16,10.77-0.063,16.147c0.065,3.577,0.428,7.621,3.173,10.257
	c2.343,2.25,6.606,3.262,9.759,3.365c4.327,0.141,9.199,0.176,13.449-0.881c9.011-2.241,7.402-15.223,8.35-22.243
	c1.298-9.603,0.156-20.718-0.869-30.335C155.252,385.922,156.591,374.616,155.771,363.427z M150.946,430.7
	c-0.585,4.089,0.584,11.311-4.375,12.615c-3.348,0.879-8.218,0.762-11.766,0.512c-6.736-0.476-5.744-6.861-5.747-11.849
	c-0.007-10.767-0.007-21.486-0.703-32.207c-0.628-9.678-1.051-19.483-0.324-29.197c0.292-3.901-0.425-11.957,2.675-14.567
	c2.327-1.959,7.765-2.078,11.691-2.673c0.375,0.031,0.724,0.061,1.005,0.082c1.662,0.125,4.862-0.531,6.098,0.977
	c0.893,1.09,0.108,4.405,0.242,5.66c0.957,8.959,0.265,17.997,1.175,26.976c0.991,9.78,1.443,20.039,1.309,29.89
	C152.161,421.682,151.618,426.005,150.946,430.7z"/>
<path d="M155.771,214.67c-0.251-3.439,0.353-9.504-1.746-12.635c-2.285-3.407-7.03-2.714-10.6-3.142
	c-5.952-0.715-19.429-0.693-19.323,8.103c-1.382,3.834-0.95,9.106-1.261,13.026c-0.443,5.576-0.862,11.231-1.028,16.826
	c-0.345,11.668,0.864,23.468,0.834,35.195c-0.014,5.378-0.16,10.77-0.063,16.147c0.065,3.577,0.428,7.621,3.173,10.257
	c2.343,2.25,6.606,3.262,9.759,3.365c4.327,0.141,9.199,0.176,13.449-0.881c9.011-2.241,7.402-15.223,8.35-22.243
	c1.298-9.603,0.156-20.718-0.869-30.335C155.252,237.165,156.591,225.859,155.771,214.67z M150.946,281.942
	c-0.585,4.089,0.584,11.311-4.375,12.615c-3.348,0.879-8.218,0.762-11.766,0.512c-6.736-0.476-5.744-6.861-5.747-11.849
	c-0.007-10.767-0.007-21.486-0.703-32.207c-0.628-9.678-1.051-19.483-0.324-29.197c0.292-3.901-0.425-11.956,2.675-14.567
	c2.327-1.959,7.765-2.078,11.691-2.673c0.375,0.031,0.724,0.061,1.005,0.082c1.662,0.125,4.862-0.531,6.098,0.977
	c0.893,1.09,0.108,4.405,0.242,5.66c0.957,8.959,0.265,17.997,1.175,26.976c0.991,9.781,1.443,20.039,1.309,29.89
	C152.161,272.924,151.618,277.248,150.946,281.942z"/>
<path d="M390.189,385.606c-0.166-5.595-0.585-11.25-1.028-16.826c-0.312-3.92,0.12-9.192-1.261-13.026
	c0.105-8.796-13.372-8.818-19.323-8.103c-3.571,0.429-8.316-0.264-10.6,3.142c-2.1,3.131-1.495,9.194-1.746,12.635
	c-0.82,11.189,0.519,22.494-0.674,33.682c-1.025,9.617-2.167,20.732-0.869,30.335c0.949,7.02-0.66,20.002,8.35,22.243
	c4.25,1.057,9.123,1.023,13.449,0.881c3.153-0.103,7.416-1.115,9.759-3.365c2.745-2.636,3.108-6.68,3.173-10.257
	c0.097-5.375-0.05-10.769-0.064-16.147C389.324,409.074,390.534,397.274,390.189,385.606z M383.647,399.77
	c-0.696,10.72-0.696,21.44-0.703,32.207c-0.003,4.988,0.988,11.373-5.747,11.849c-3.548,0.251-8.417,0.368-11.766-0.512
	c-4.96-1.304-3.791-8.526-4.375-12.615c-0.672-4.695-1.216-9.018-1.28-13.781c-0.133-9.853,0.319-20.111,1.309-29.89
	c0.91-8.979,0.218-18.017,1.175-26.976c0.134-1.255-0.652-4.57,0.242-5.66c1.235-1.507,4.437-0.852,6.098-0.977
	c0.28-0.021,0.629-0.051,1.005-0.082c3.927,0.596,9.365,0.714,11.691,2.673c3.101,2.612,2.383,10.666,2.675,14.567
	C384.698,380.287,384.275,390.093,383.647,399.77z"/>
<path d="M389.161,220.023c-0.312-3.92,0.12-9.192-1.261-13.026c0.105-8.796-13.372-8.818-19.323-8.103
	c-3.571,0.429-8.316-0.264-10.6,3.142c-2.1,3.131-1.495,9.194-1.746,12.635c-0.82,11.189,0.519,22.494-0.674,33.682
	c-1.025,9.617-2.167,20.732-0.869,30.335c0.949,7.02-0.66,20.002,8.35,22.243c4.25,1.057,9.123,1.023,13.449,0.881
	c3.153-0.103,7.416-1.115,9.759-3.365c2.745-2.636,3.108-6.68,3.173-10.257c0.097-5.376-0.05-10.769-0.064-16.147
	c-0.03-11.727,1.18-23.525,0.834-35.195C390.023,231.254,389.604,225.598,389.161,220.023z M383.647,251.013
	c-0.696,10.72-0.696,21.44-0.703,32.207c-0.003,4.988,0.988,11.373-5.747,11.849c-3.548,0.25-8.417,0.368-11.766-0.512
	c-4.96-1.304-3.791-8.526-4.375-12.615c-0.672-4.695-1.216-9.018-1.28-13.781c-0.133-9.853,0.319-20.111,1.309-29.89
	c0.91-8.979,0.218-18.017,1.175-26.976c0.134-1.255-0.652-4.57,0.242-5.66c1.235-1.507,4.437-0.852,6.098-0.977
	c0.28-0.021,0.629-0.051,1.005-0.082c3.927,0.596,9.365,0.714,11.691,2.673c3.101,2.612,2.383,10.666,2.675,14.567
	C384.698,231.53,384.275,241.336,383.647,251.013z"/>
<path d="M426.758,488.599c0.754-2.616,0.518-5.723-0.236-8.598c-0.001-0.34-0.002-0.678,0.002-1.014
	c0.071-4.985,0.039-9.974,0.039-14.959c0-9.498,0.494-18.935,0.455-28.416c-0.038-9.402-0.433-18.834,0.326-28.173
	c0.742-9.131-0.22-18.3,0.634-27.437c0.41-4.395-0.153-8.708-0.116-13.109c0.036-4.247,0.555-8.418,0.523-12.689
	c-0.07-8.829,0.213-17.58,0.371-26.39c0.151-8.438-0.185-16.947-0.503-25.408c-0.029-8.505-0.118-17.009-0.341-25.513
	c-0.536-20.568-2.409-41.748-0.625-62.244c0.981-11.272,0.117-22.95,0.09-34.262c-0.027-11.199-0.008-22.356-0.576-33.539
	c-0.503-9.923-0.827-20.316,0.078-30.182c0.959-10.467,0.093-21.42,0.045-31.937c-0.089-19.974,0.826-40.012-0.231-59.975
	c1.261-0.002,2.52-0.003,3.777,0.01c3.532,0.043,7.422-0.399,9.161-3.9c1.412-2.846,1.361-9.118,0.52-12.08
	c-3.036-10.692-19.048-6.537-26.837-6.248c-12.011,0.448-24.367-1.088-36.362-1.903c-13.428-0.912-26.565-0.073-39.958,0.059
	c-12.494,0.123-24.836-0.766-37.291-0.687c-6.446,0.041-12.783,0.652-19.108,1.448c-10.203-1.523-20.582-0.925-30.99-0.913
	c-6.999,0.007-13.996,0.053-20.995,0.075c-1.275,0.003-2.543,0.044-3.81,0.096c-4.141-0.403-8.301-0.678-12.507-0.706
	c-12.454-0.079-24.795,0.81-37.291,0.687c-13.392-0.132-26.529-0.971-39.958-0.059c-11.996,0.815-24.35,2.351-36.362,1.903
	c-7.789-0.291-23.8-4.445-26.837,6.248c-0.841,2.962-0.892,9.234,0.52,12.08c1.738,3.503,5.628,3.943,9.16,3.9
	c1.257-0.015,2.518-0.014,3.777-0.01c-1.057,19.964-0.14,40.001-0.231,59.975c-0.046,10.517-0.913,21.47,0.045,31.937
	c0.904,9.867,0.581,20.259,0.078,30.182c-0.568,11.183-0.548,22.341-0.576,33.539c-0.028,11.314-0.891,22.99,0.09,34.262
	c1.784,20.497-0.088,41.676-0.625,62.244c-0.222,8.504-0.312,17.008-0.341,25.513c-0.317,8.46-0.654,16.971-0.503,25.408
	c0.158,8.81,0.439,17.562,0.371,26.39c-0.034,4.271,0.487,8.444,0.523,12.689c0.037,4.401-0.526,8.714-0.116,13.109
	c0.854,9.139-0.109,18.307,0.634,27.437c0.759,9.339,0.364,18.771,0.326,28.173c-0.039,9.482,0.455,18.918,0.455,28.416
	c0,4.985-0.031,9.974,0.039,14.959c0.005,0.336,0.005,0.674,0.002,1.014c-0.754,2.875-0.991,5.982-0.236,8.598
	c-4.108-0.038-8.06,0.846-10.359,4.821c-2.448,4.235-5.429,12.065,0.22,14.92c3.233,1.634,7.856,1.364,11.335,1.371
	c4.648,0.009,9.133,0.183,13.762,0.55c16.602,1.317,33.518,1.145,50.259,1.145c9.089,0,18.968,1.145,27.97,0.03
	c4.017-0.498,7.965-0.832,12.022-0.457c2.086,0.194,4.463,0.704,6.706,0.644c2.002,0.464,4.445,0.687,6.014-0.497
	c2.761-0.883,5.101-3.286,7.228-5.135c4.358-3.787,3.373-5.112,3.158-10.6c-0.137-3.473,0.279-7.412-2.828-9.798
	c-1.161-0.892-3.417-0.641-4.292-1.409c-2.202-1.935-1.695-7.514-1.729-10.278c-0.156-12.828,0.993-25.454,1.884-38.204
	c0.979-14.01,0.716-28.174,1.72-42.223c0.499-6.992,0.725-14.215,0.882-21.213c0.155-6.969,0.41-13.909,0.41-20.894
	c-0.001-15.581-0.156-31.166-0.2-46.742c-0.009-3.334,0.615-6.558,0.774-9.876c0.167-3.484-0.262-6.993-0.066-10.469
	c0.411-7.309,0.637-14.519,0.636-21.863c-0.002-15.199,0.276-30.36,0.458-45.543c0.086-7.176,1.606-14.23,2.181-21.355
	c0.678-8.398,0.476-15.938,5.483-23.135c4.999-7.185,11.54-11.549,19.659-14.56c3.095-1.148,6.823-2.035,10.006-3.519
	c21.254-2.769,44.079,7.252,49.141,29.823c3.101,13.824,0.54,29.089,0.535,43.137c-0.003,13.463-0.391,26.54-1.66,39.94
	c-0.56,5.909,0.679,11.659,0.565,17.547c-0.127,6.599,0.75,13.076,1.059,19.643c0.63,13.375,1.769,26.463,1.769,39.907
	c-0.001,14.614,0.358,29.252,1.095,43.836c0.344,6.805,0.057,13.683,0.06,20.497c0.003,7.203,0.826,14.299,0.757,21.492
	c-0.081,8.34,0.241,16.571,0.448,24.866c0.176,7.07-1.149,14.311-1.206,21.437c-0.023,2.855-0.162,6.364,0.921,9.179
	c-0.693,0.263-1.446,0.699-2.314,1.338c-2.967,2.183-4.745,5.688-4.385,9.423c0.355,3.673,2.542,7.394,5.305,9.769
	c2.46,2.113,7.083,5.261,10.456,4.547c0.212,0.124,0.424,0.247,0.64,0.338c2.978,1.262,6.731,0.239,9.828-0.047
	c4.057-0.375,8.004-0.042,12.022,0.457c9.002,1.115,18.881-0.03,27.97-0.03c16.742,0,33.657,0.173,50.259-1.145
	c4.629-0.367,9.113-0.541,13.762-0.55c3.48-0.007,8.102,0.263,11.335-1.371c5.648-2.855,2.669-10.685,0.22-14.92
	C434.818,489.445,430.866,488.562,426.758,488.599z M82.887,18.723c-2.825,0.141-4.876,0.971-5.097-2.273
	c-0.516-7.585,5.2-7.584,11.111-7.557c5.752,0.025,11.446,0.59,17.228,0.53c10.939-0.114,21.97-2.052,32.94-2.512
	c5.554-0.233,11.123-0.518,16.652-0.723c6.083-0.225,12.063,0.475,18.146,0.393c10.865-0.146,21.579-0.957,32.363-1.421
	c0.328,0.392,0.824,0.667,1.49,0.7c13.907,0.677,27.943,0.408,41.887,0.454c6.08,0.02,11.942-0.158,18.018,0.093
	c6.381,0.263,12.247,0.109,18.272-1.231c4.604-0.18,9.211-0.365,13.808-0.239c12.844,0.352,25.53,1.469,38.429,1.642
	c6.082,0.081,12.062-0.618,18.146-0.393c5.529,0.204,11.098,0.49,16.652,0.723c10.97,0.46,22.002,2.399,32.94,2.512
	c5.782,0.06,11.476-0.504,17.228-0.53c5.911-0.027,11.628-0.028,11.111,7.557c-0.22,3.244-2.271,2.414-5.097,2.273
	c-1.327-0.066-2.65-0.114-3.973-0.148c-0.461-0.177-0.979-0.194-1.45-0.025c-0.691-0.013-1.38-0.031-2.073-0.036
	c-5.918-0.048-11.836-0.054-17.754-0.081c-11.084-0.05-22.399-0.547-33.417-1.882c-11.64-1.41-23.397-0.295-35.093-0.316
	c-11.893-0.021-23.793-0.148-35.686-0.05c-5.661,0.046-11.213,0.9-16.891,0.997c-0.856,0.014-1.714,0.044-2.57,0.067
	c-11.789-3.703-25.213-0.111-37.211-1.051c-5.102-0.4-10.274,0.02-15.368,0.525c-0.956,0.095-1.913,0.17-2.87,0.251
	c-4.144-0.285-8.254-0.755-12.421-0.79c-11.892-0.098-23.792,0.029-35.686,0.05c-11.696,0.021-23.452-1.094-35.093,0.316
	c-11.019,1.335-22.334,1.832-33.417,1.882c-5.918,0.027-11.836,0.034-17.755,0.081c-0.693,0.006-1.382,0.023-2.073,0.036
	c-0.472-0.168-0.988-0.152-1.451,0.025C85.536,18.609,84.213,18.657,82.887,18.723z M420.339,53.041
	c-0.362,13.273-0.761,26.495-0.813,39.785c-0.078,20.108-1.239,40.07-0.461,60.198c0.871,22.545-0.388,45.191-0.798,67.685
	c-0.388,21.231,0.577,42.554,0.996,63.785c0.222,11.274,0.054,22.549,0.138,33.824c0.041,5.412,0.626,10.423,1.309,15.77
	c0.058,0.457,0.13,0.913,0.193,1.37c-0.242,6.959-0.386,13.907-0.499,20.894c-0.068,4.203-0.743,8.286-0.679,12.501
	c0.068,4.509,0.122,8.811-0.439,13.304c-1.108,8.882,0.272,17.946-0.783,26.844c-1.117,9.406-0.229,19.413-0.244,28.894
	c-0.014,8.711-0.65,17.395-0.655,26.133c-0.002,4.984-0.031,9.975,0.039,14.959c0.037,2.601-0.169,5.373,0.272,7.948
	c-0.828-0.008-1.653,0.036-2.474,0.16c-2.113,0.052-4.133,0.285-6.237,0.388c-10.818,0.535-21.858-0.178-32.698-0.169
	c-11.084,0.01-22.561-0.193-33.575,1.095c-5.327,0.623-11.163,0.577-16.797,1.195c0.068-10.419,0.517-20.769,0.501-31.246
	c-0.02-12.03-0.257-24.083-0.035-36.11c0.188-10.16-0.637-20.396-0.652-30.619c-0.016-11.094,0.036-22.075-0.716-33.115
	c-0.732-10.748-1.213-21.699-1.66-32.486c-0.394-9.506-1.224-18.994-1.238-28.525c-0.034-22.853-0.247-45.706-0.44-68.558
	c-0.101-11.876-0.19-23.75-0.28-35.626c-0.053-7.044,0.278-14.083-0.162-21.076c-0.043-3.517-0.258-6.988-0.754-10.654
	c-1.401-10.354-4.107-21.58-9.673-30.569c-5.383-8.694-10.906-15.487-19.647-21.121c-3.314-2.136-6.755-3.752-10.251-5.358
	c-0.16-0.173-0.329-0.341-0.508-0.501c0.153-1.53,0.26-3.059,0.278-4.641c0.042-3.402-0.198-4.405,3.302-4.65
	c2.981-0.207,6.555-0.155,8.193-3.081c2.229-3.979,0.714-11.109,0.708-15.474c-0.008-5.774,0.903-11.313,0.368-17.103
	c-0.786-8.503,2.608-23.66-7.527-27.843c-4.824-1.991-10.286-1.167-15.365-1.147c-4.199,0.016-9.022,0.156-13.227,1.227
	c-0.584,0.012-1.163,0.009-1.735-0.019c-0.416-0.021-0.826-0.041-1.235-0.059c-4.139-1.006-8.843-1.134-12.949-1.151
	c-5.079-0.02-10.541-0.844-15.365,1.147c-10.135,4.183-6.743,19.34-7.527,27.843c-0.535,5.79,0.377,11.329,0.368,17.103
	c-0.006,4.365-1.521,11.494,0.708,15.474c1.638,2.925,5.212,2.872,8.193,3.081c3.502,0.243,3.262,1.248,3.302,4.65
	c0.02,1.67,0.133,3.28,0.299,4.896c-3.679,1.688-7.3,3.36-10.781,5.604c-8.741,5.634-14.265,12.427-19.647,21.121
	c-5.565,8.989-8.272,20.215-9.673,30.569c-0.496,3.666-0.711,7.138-0.754,10.654c-0.44,6.993-0.108,14.033-0.162,21.076
	c-0.09,11.876-0.181,23.751-0.28,35.626c-0.194,22.852-0.407,45.706-0.44,68.558c-0.014,9.532-0.844,19.02-1.238,28.525
	c-0.447,10.787-0.928,21.738-1.66,32.486c-0.752,11.04-0.7,22.021-0.716,33.115c-0.015,10.223-0.84,20.46-0.652,30.619
	c0.222,12.028-0.015,24.081-0.035,36.11c-0.016,10.477,0.432,20.827,0.501,31.246c-5.634-0.618-11.47-0.572-16.797-1.195
	c-11.014-1.288-22.491-1.085-33.575-1.095c-10.84-0.01-21.88,0.704-32.698,0.169c-2.103-0.104-4.123-0.336-6.237-0.388
	c-0.82-0.124-1.645-0.168-2.474-0.16c0.44-2.575,0.235-5.346,0.272-7.948c0.071-4.984,0.042-9.974,0.039-14.959
	c-0.005-8.738-0.641-17.423-0.655-26.133c-0.015-9.481,0.873-19.487-0.244-28.894c-1.057-8.898,0.323-17.962-0.783-26.844
	c-0.56-4.494-0.508-8.796-0.439-13.304c0.064-4.217-0.611-8.299-0.679-12.501c-0.114-6.987-0.257-13.935-0.499-20.894
	c0.064-0.457,0.136-0.913,0.194-1.37c0.684-5.347,1.269-10.358,1.309-15.77c0.083-11.276-0.086-22.55,0.138-33.824
	c0.419-21.231,1.385-42.554,0.996-63.785c-0.411-22.494-1.67-45.14-0.798-67.685c0.777-20.128-0.384-40.091-0.461-60.198
	c-0.052-13.289-0.452-26.51-0.813-39.785c-0.243-8.929,0.925-19.198-0.797-28.241c9.67,0.151,19.389,0.539,28.993,0.098
	c12.132-0.556,24.297-1.207,36.405-2.014c3.932-0.262,7.806,0.533,11.742,0.597c3.914,0.063,7.836-0.01,11.751-0.003
	c7.811,0.014,15.623,0.05,23.434,0.041c13.595-0.016,27.046,0.525,40.608-0.582c5.704,0.483,11.928-0.152,17.629-0.32
	c1.05-0.031,2.107-0.036,3.166-0.034c0.151,0.042,0.309,0.073,0.481,0.09c14.624,1.482,29.093,0.827,43.731,0.845
	c7.811,0.009,15.623-0.027,23.434-0.041c3.914-0.007,7.836,0.066,11.751,0.003c3.937-0.064,7.812-0.859,11.742-0.597
	c12.107,0.805,24.273,1.457,36.405,2.014c9.606,0.44,19.324,0.052,28.993-0.098C419.414,33.843,420.582,44.112,420.339,53.041z
	 M275.737,101.49c-0.751-0.241-1.512-0.436-2.262-0.611c0.093-0.235,0.155-0.477,0.14-0.705c-0.146-2.302-2.137-3.703-2.598-5.991
	c-0.329-1.63-0.632-3.584-1.197-5.32c0.751-1.628,1.283-3.375,2.016-5.081c1.472-3.423,4.111-4.301,5.56-7.358
	c0.709-1.496,0.885-3.243,1.131-4.853c0.56-3.665,0.833-5.754-1.609-7.29c-0.497-0.312-0.781-0.873-0.742-1.458
	c0.489-7.222-0.41-14.676-6.445-19.429c-5.19-4.088-12.391-5.401-18.558-3.123c-3.685,1.361-7.315,3.327-10.033,6.211
	c-2.805,2.976-4.285,5.991-4.184,10.197c0.021,0.907,0.104,1.827-0.09,2.713c-0.613,2.781-3.657,4.316-4.942,6.857
	c-1.115,2.204-0.76,4.832-0.378,7.272c0.122,0.779,0.261,1.598,0.761,2.207c0.475,0.581,1.202,0.878,1.872,1.214
	c3.713,1.863,4.3,5.221,6.385,8.541c0.488,0.777,0.978,1.496,1.474,2.188c-0.199,1.024-0.294,2.57-0.295,2.855
	c-0.007,1.436,0.131,2.908,0.086,4.331c-0.06,1.833-1.233,4.376-1.345,6.505c-1.437,0.094-2.841,0.315-4.293,0.813
	c0.614-5.125,0.607-11.295-3.886-12.472c-1.465-0.384-3.315-0.232-4.818-0.378c-2.098-0.205-2.841,0.089-3.463-1.977
	c-0.742-2.466-0.068-6.33-0.066-8.922c0.001-2.823,0.209-5.695-0.003-8.508c-0.396-5.262,0.117-10.11,0.178-15.348
	c0.064-5.48-1.552-13.731,3.189-17.446c4.131-3.237,10.774-2.093,15.855-2.03c2.462,0.03,4.853,0.276,7.23,0.269
	c1.738,0.24,3.497,0.384,5.208,0.562c3.711,0.387,8.331,0.744,11.873-0.791c0.446-0.017,0.893-0.034,1.344-0.039
	c5.081-0.061,11.723-1.207,15.855,2.03c4.74,3.715,3.125,11.966,3.189,17.446c0.061,5.239,0.574,10.087,0.178,15.348
	c-0.212,2.813-0.005,5.686-0.003,8.508c0.001,2.592,0.674,6.456-0.066,8.922c-0.621,2.066-1.365,1.771-3.463,1.977
	c-1.503,0.147-3.354-0.005-4.818,0.378C275.404,90.829,275.21,96.514,275.737,101.49z M245.888,91.82
	c1.681,1.314,3.64,2.29,6.161,2.852c4.779,1.067,10.048,1.67,14.211-1.314c0.14,1.452,0.467,2.861,0.857,3.996
	c0.256,0.747,0.762,1.757,1.429,2.652c-5.415-0.713-10.803-0.656-16.235-0.109c-2.47,0.249-4.847,0.794-7.276,1.263
	c0.747-2.039,0.972-4.491,0.985-6.285C246.027,93.988,245.987,92.923,245.888,91.82z M265.81,87.574
	c-3.76,4.241-8.124,3.752-13.415,2.743c-8.52-1.625-8.115-9.094-12.73-14.41c-1.222-1.408-3.009-1.26-4.122-2.158
	c-0.888-0.716-1.03-2.003-0.783-3.466c0.194-1.151,0.693-2.589,1.48-3.472c0.897-1.006,2.349-1.314,3.218-2.365
	c1.034-1.249,0.883-3.051,0.929-4.672c0.116-3.999,2.348-7.762,3.587-11.526c0.48-1.457,3.641-4.43,5.266-2.837
	c0.762,0.747,0.585,2.437,1.324,3.387c0.76,0.977,1.998,1.79,3.286,1.524c0.116,0.467,0.341,0.893,0.651,1.229
	c0.063,0.183,0.129,0.345,0.2,0.439c0.465,0.603,1.148,1.047,1.904,1.18c1.548,0.27,3.495-1.188,3.894-2.682
	c0.239-0.895-0.043-1.787-0.353-2.682c0.035-0.305,0.051-0.612,0.044-0.921c-0.03-1.682,3.874-2.08,4.809-1.542
	c7.818,4.497,6.134,11.544,7.294,19.247c0.124,0.825,0.628,1.243,1.228,1.356c0.158,0.163,0.355,0.302,0.606,0.396
	c2.684,1.014,2.03,5.425,1.153,7.728c-1.225,3.215-4.404,3.899-5.846,6.773C268.208,83.293,267.785,85.346,265.81,87.574z
	 M198.335,501.636c-1.086,1.889-0.856,1.923-3.012,2.335c-1.625,0.311-3.58-0.44-5.265-0.535c-3.44-0.196-6.94-0.183-10.357,0.26
	c-8.447,1.095-17.374,0.244-25.915,0.244c-9.054,0-18.111,0.02-27.165-0.017c-14.182-0.057-28.17-1.4-42.352-1.758
	c-0.067-0.001-5.123-0.227-5.01,0.499c-0.341-0.91,0.857-4.038,1.409-4.922c2.423-3.881,7.239-2.301,10.955-1.956
	c2.728,0.254,5.538-0.012,8.336-0.285c0.996,0.038,1.962,0.067,2.838,0.102c6.139,0.244,12.374-0.056,18.523-0.038
	c13.781,0.039,27.517,0.293,41.289,0.606c6.718,0.153,13.357,1.352,20.089,1.562c3.008,0.094,6.05,0.411,8.994,0.126
	c0.425,0.131,0.852,0.271,1.275,0.384C195.742,498.979,200.471,497.921,198.335,501.636z M205.162,489.201
	c4.211,1.677,3.061,3.662,3.324,7.63c0.022,0.321,0.273,1.517,0.228,2.043c-0.19,2.169-0.89,2.645-2.483,3.938
	c0.752-2.677,0.757-5.397-0.489-7.192c-1.759-2.533-4.971-3.293-7.848-3.447c0.681-0.363,1.366-0.722,2.081-1.001
	c1.505-0.587,2.805-1.339,3.79-2.451C204.2,488.861,204.663,489.002,205.162,489.201z M306.259,495.621
	c-1.235,1.779-1.24,4.466-0.508,7.119c-1.368-0.723-2.674-1.519-3.634-2.66c-1.9-2.26-3.254-5.496-1.775-8.336
	c0.702-1.35,2.231-2.561,3.861-2.992c0.196,0.16,0.396,0.316,0.618,0.459c1.974,1.278,4.33,2.334,6.635,3.307
	C309.421,492.957,307.485,493.855,306.259,495.621z M310.353,485.974c-4.637-2.292-2.596-0.968-3.527-3.92
	c-1.886-5.976-0.484-13.855,0.074-20.049c0.576-6.409-0.082-12.519-0.032-18.949c0.061-7.904,0.548-15.841-0.226-23.716
	c-0.676-6.88-0.337-13.9-0.338-20.816c0-7.461-0.575-14.869-0.574-22.322c0.003-15.487-0.453-31.005-0.597-46.505
	c-0.11-11.986-1.25-24.293-2.574-36.208c-1.547-13.92-0.178-27.717,0.409-41.622c0.599-14.165-0.057-28.455,0.922-42.619
	c0.826-11.956-0.149-23.053-4.038-34.277c-3.921-11.318-13.755-18.071-24.434-22.23c-10.797-4.204-25.64-4.814-36.402,0.834
	c-0.528,0.14-1.044,0.285-1.542,0.437c-5.73,1.749-10.623,4.11-15.332,7.944c-9.365,7.629-12.635,18.1-13.533,29.784
	c-0.521,6.788-1.521,13.6-2.295,20.384c-0.832,7.299,0.041,14.71-0.474,22.043c-1.037,14.759,0.473,29.618-0.414,44.374
	c-0.842,14.036-1.126,27.943-1.129,42.028c-0.002,14.609,0.27,29.231-0.6,43.794c-0.407,6.813-0.585,13.864-0.585,20.701
	c0,7.753-0.514,15.513-0.825,23.271c-0.54,13.474-0.826,26.915-2.198,40.321c-0.691,6.755-0.436,13.577-0.622,20.37
	c-0.097,3.561-0.056,7.07,0.35,10.612c0.185,1.621,0.076,3.816,0.554,5.611c-0.964,1.071-2.282,1.511-3.584,2.139
	c-0.888,0.428-1.669,1.013-2.412,1.647c-0.11-19.488-0.621-39.016-0.652-58.562c-0.016-10.113,0.547-20.071,0.531-30.184
	c-0.019-11.161-0.446-22.395-0.165-33.547c0.512-20.236,2.038-40.655,3.335-60.87c1.44-22.458-0.021-45.432-0.211-67.933
	c-0.148-17.608,0.395-35.373-0.578-52.977c0.426-6.222-0.209-12.817,0.603-18.568c1.4-9.928,3.688-20.334,8.444-29.236
	c4.499-8.422,9.992-15.088,17.862-20.568c3.662-2.549,7.661-4.409,11.683-6.226c1.844-0.832,3.533-1.696,5.376-2.472
	c0.43-0.181,0.879-0.397,1.336-0.628c3.556-0.65,7.162-1.287,10.782-1.57c4.65-0.363,9.495-0.636,14.191-0.039
	c1.476,0.7,3.075,1.642,4.49,2.237c1.842,0.775,3.533,1.64,5.376,2.472c4.022,1.817,8.022,3.677,11.683,6.226
	c7.87,5.48,13.362,12.147,17.862,20.568c4.755,8.902,7.044,19.308,8.444,29.236c0.811,5.752,0.176,12.346,0.603,18.568
	c-0.974,17.603-0.43,35.369-0.578,52.977c-0.19,22.501-1.65,45.476-0.211,67.933c1.297,20.216,2.823,40.635,3.335,60.87
	c0.282,11.153-0.146,22.385-0.165,33.547c-0.016,10.112,0.547,20.069,0.531,30.184c-0.032,19.777-0.557,39.536-0.659,59.253
	c-1.433-0.747-2.83-1.608-4.153-2.3C312.449,486.892,311.38,486.482,310.353,485.974z M432.742,502.664
	c0.111-0.727-4.943-0.501-5.01-0.499c-14.183,0.357-28.171,1.7-42.352,1.758c-9.054,0.036-18.111,0.017-27.165,0.017
	c-8.541,0-17.468,0.851-25.915-0.244c-3.417-0.443-6.916-0.455-10.357-0.26c-1.685,0.096-3.641,0.846-5.265,0.535
	c-2.155-0.411-1.926-0.446-3.012-2.335c-2.134-3.715,2.593-2.656,5.37-3.394c0.423-0.112,0.849-0.253,1.275-0.384
	c2.944,0.285,5.987-0.032,8.994-0.126c6.732-0.21,13.37-1.409,20.089-1.562c13.771-0.314,27.507-0.568,41.289-0.606
	c6.149-0.017,12.384,0.282,18.523,0.038c0.876-0.035,1.841-0.063,2.838-0.102c2.798,0.273,5.608,0.539,8.336,0.285
	c3.717-0.345,8.532-1.925,10.955,1.956C431.884,498.626,433.082,501.755,432.742,502.664z"/>
<path d="M260.834,75.407c-0.024-0.014-0.045-0.022-0.07-0.036c0.058-0.056,0.129-0.094,0.184-0.154
	c1.129-1.221,1.803-6.446-1.17-5.569c-0.345,0.102-0.709,0.4-0.775,0.775c-0.177,1.014,0.496,2.509-0.516,3.21
	c-0.666,0.462-1.557,0.382-2.327,0.416c-0.09,0.003-0.183,0.029-0.275,0.038c-0.645-0.145-1.385,0.008-2.052-0.076
	c-1.098-0.139-1.174-0.591-1.081-1.622c0.052-0.581,0.555-1.292,0.003-1.804c-0.438-0.406-1.232-0.205-1.691,0.066
	c-1.682,0.996-1.424,3.888-0.11,5.081c0.176,0.16,0.38,0.277,0.587,0.386c-0.725,0.469-1.379,0.99-1.822,1.346
	c-1.396,1.127-3.92,3.182-2.827,5.191c0.206,0.379,0.635,0.601,1.058,0.606c1.74,0.023,3.512,0.422,5.257,0.249
	c2.078-0.206,3.906-0.582,6.038-0.419c1.492,0.112,6.196,0.913,6.367-1.642C265.746,79.472,262.32,76.279,260.834,75.407z"/>
<path d="M250.08,67.725c2.237-0.133,2.243-3.352,0-3.483c-1.432-0.083-2.85-0.125-4.27,0.118c-0.879,0.151-2.531,0.662-2.454,1.837
	c0.001,0.022,0.002,0.043,0.005,0.065c0.031,0.48,0.25,1.073,0.736,1.282c1.007,0.432,1.696,0.35,2.74,0.267
	C247.911,67.726,249,67.79,250.08,67.725z"/>
<path d="M269.082,64.482c-1.188-0.645-2.535-0.547-3.849-0.436c-1.193,0.101-2.416,0.254-3.263,1.189
	c-0.399,0.439-0.401,1.056,0,1.498c0.846,0.934,2.069,1.087,3.263,1.189c1.313,0.111,2.662,0.21,3.849-0.436
	C270.213,66.871,270.213,65.097,269.082,64.482z"/>
<g>
</g>
<g>
</g>
<g>
</g>
<g>
</g>
<g>
</g>
<g>
</g>
<g>
</g>
<g>
</g>
<g>
</g>
<g>
</g>
<g>
</g>
<g>
</g>
<g>
</g>
<g>
</g>
<g>
</g>
</svg>
