<?xml version="1.0" encoding="iso-8859-1"?>
<!-- Generator: Adobe Illustrator 19.0.0, SVG Export Plug-In . SVG Version: 6.00 Build 0)  -->
<svg version="1.1" id="Layer_1" xmlns="http://www.w3.org/2000/svg" xmlns:xlink="http://www.w3.org/1999/xlink" x="0px" y="0px"
	 viewBox="0 0 511.998 511.998" style="enable-background:new 0 0 511.998 511.998;" xml:space="preserve">
<path style="fill:#93B9D8;" d="M488.944,466.247c-0.003,0.178-0.012,0.361-0.02,0.549c-0.263,5.994,0.177,12.077,0.177,18.113
	c0,6.641,0,13.282,0,19.923c-7.365,5.351-15.489,5.828-23.627,5.729c-42.554-0.514-85.106-1.307-127.66-1.692
	c-20.891-0.189-41.789,0.509-62.683,0.424c-26.857-0.109-53.714-0.609-80.571-0.916c-2.986-0.034-5.973,0.1-8.959,0.146
	c-43.3,0.664-86.597,1.366-129.896,1.959c-10.337,0.141-20.913,1.2-30.781-5.534c-2.227-9.073-0.921-17.86-1.37-27.013
	c-0.193-3.932-3.395-14.601,3.502-14.95c2.869-0.145,5.674,0.42,8.494-0.209c1.906-0.424,1.722-0.793,2.242-2.631
	c0.333-1.176,0.341-1.377,1.649-1.805c0.978-0.321,2.005-0.488,3.007-0.714c1.455-0.327,6.794-0.223,7.665-1.541
	c0.908-1.373-0.424-3.373,1.02-4.557c1.188-0.974,3.894-1.448,5.413-1.658c1.18-0.164,2.419-0.144,3.572-0.39
	c0.975-0.209,1.68-0.714,2.719-0.637c-0.25-3.126,3.831-4.36,6.262-4.593c2.409-0.231,4.944-0.89,7.336-0.862
	c2.98,0.035,3.15-1.391,3.181-4.098c0.019-1.663,0.204-3.851,1.616-4.87c0.854-0.616,1.703-0.486,2.675-0.56
	c1.379-0.105,2.581-0.615,3.905-0.995c1.939-0.557,4.079,0.088,5.486-1.625c1.934-2.355,1.506-5.109,1.878-7.906
	c0.267-2.001,1.401-2.543,3.197-3.156c2.675-0.914,5.132-0.617,7.848-0.489c1.697,0.08,3.637,0.604,5.283,0.404
	c0.753-2.774-0.062-5.784,0.056-8.598c0.052-1.244-0.255-3.902,0.555-4.893c0.738-0.903,2.185-0.595,3.169-0.653
	c1.594-0.095,3.22-0.407,4.805-0.564c1.003-0.1,1.94-0.312,2.595-1.158c0.888-1.145,0.552-2.632,0.655-3.995
	c0.206-2.724,0.192-6.186,2.629-7.968c1.895-1.386,4.528-1.372,6.749-1.745c2.407-0.403,2.568-1.938,2.658-4.136
	c0.135-3.31,0.838-6.87,0.477-10.164c-0.181-1.643-1.279-4.977,0.11-6.376c0.452-0.456,2.076-1.096,2.714-1.396
	c1.194-0.561,2.408-0.491,3.675-0.808c2.075-0.518,4.012-1.005,4.712-3.242c1.565-5.002,0.652-9.926,0.652-15.046
	c0-1.733-0.615-4.944,0.026-6.562c0.691-1.741,3.936-2.335,5.597-2.749c1.957-0.488,4.201,0.578,5.311-1.186
	c2.179-3.464,2.294-8.758,2.518-12.734c0.088-1.56-0.526-3.687,0.594-4.933c1.26-1.401,4.76-1.187,6.442-1.363
	c1.614-0.168,2.512-0.491,3.05-2.002c0.816-2.292,1.142-4.619,1.487-7.011c0.242-1.682,0.973-3.179,1.136-4.874
	c0.459-4.786-0.204-9.655-0.075-14.453c0.048-1.798-0.399-4.677,0.581-6.253c1.36-2.187,4.66-2.061,6.756-2.85
	c2.892-1.087,4.219-3.579,4.859-6.45c0.632-2.831,1.295-5.931,1.44-8.814c0.449-8.98-0.189-17.973,0.224-26.954
	c0.347-7.546-0.748-15.162,0.837-22.635c0.552-2.6,2.246-3.145,4.454-4.381c1.345-0.753,3.259-1.564,3.867-3.025
	c0.592-1.424,0.546-3.689,0.803-5.176c0.752-4.352,0.307-8.85,0.052-13.249c-0.123-2.115,0.008-4.247,0.296-6.343
	c0.2-1.451,0.135-3.713,0.937-4.978c1.073-1.691,4.115-1.786,5.865-2.779c3.369-1.911,4.1-6.275,4.249-9.803
	c0.191-4.491,0.424-9.022,0.759-13.533c0.747-10.063,2.406-20.046,4.78-29.851c4.924-20.328,12.866-39.778,21.719-58.679
	c5.66-12.081,11.041-24.292,16.43-36.179c8.089,1.75,10.683,7.336,13.362,12.618c15.565,30.693,29.741,61.958,36.065,96.077
	c1.617,8.723,1.473,17.759,2.503,26.609c0.273,2.347,0.608,4.65,0.044,6.955c-0.351,1.434-1.756,4.509-0.144,5.609
	c1.277,0.872,3.532,0.504,4.966,1.494c3.887,2.682,5.378,8.865,5.591,13.246c0.138,2.857-0.141,5.12-0.963,7.8
	c-1.055,3.438-0.156,7.574-0.035,11.101c0.057,1.681,0.38,1.636,1.933,2.123c2.928,0.918,6.246,4.564,7.792,7.233
	c2.261,3.903,2.162,9.41,2.425,13.777c0.717,11.909,0.349,23.878,0.624,35.82c0.061,2.629-1.304,7.695,0.307,10.079
	c1.197,1.772,4.247,0.311,6.111,1.179c1.974,0.921,3.591,3.374,4.825,5.08c1.965,2.715,2.492,6.05,2.49,9.336
	c-0.006,7.011,0.459,13.822,0.388,20.798c-0.01,1.002-0.075,2.004,0.978,2.362c1.746,0.594,3.632-0.638,5.191,0.579
	c1.343,1.049,2.687,3,3.739,4.342c1.704,2.176,1.104,3.748,1.621,6.374c0.414,2.104,0.727,3.796,0.371,5.981
	c-0.304,1.869-0.788,2.005,1.077,2.628c2.791,0.931,5.569,0.916,7.817,3.012c2.32,2.163,3.786,5.079,4.362,8.181
	c0.941,5.072-1.532,10.413-0.176,15.437c0.546,2.027,2.223,0.873,3.604,1.33c1.454,0.48,2.759,2.038,4.326,2.656
	c1.581,0.624,2.66,3.478,3.235,5.513c1.312,4.643-0.144,8.736,0.022,13.375c0.12,3.357,3.691,2.497,5.854,3.009
	c2.213,0.524,5.352,2.075,5.722,4.54c0.288,1.924-1.403,8.045,1.56,8.601c1.008,0.19,1.915-0.398,2.9-0.439
	c1.035-0.043,1.831,0.357,2.767,0.745c1.313,0.545,2.198,0.917,2.912,2.216c1.627,2.963-0.543,8.378,2.401,10.379
	c2.605,1.771,6.136,0.292,8.992,1.281c2.021,0.7,3.06,2.438,4.294,4.06c2.028,2.663,4.219,4.89,5.166,8.207
	c4.248,1.94,10.477,3.418,13.488,7.231c1.186,1.502,0.013,3.397,0.839,4.814c1.235,2.117,7.065,0.524,8.912,0.415
	c2.163-0.128,4.712-0.583,5.232,2.03c0.197,0.99-0.395,3.198,0.341,3.942c0.803,0.81,2.636,0.045,3.586-0.044
	c1.433-0.134,2.867,0.186,4.317,0.321c0.745,0.07,2.134-0.218,2.766,0.309c0.763,0.635,0.321,1.674,0.45,2.639
	c0.111,0.834,0.532,1.461,0.84,2.163c0.448,1.019,0.413,1.49,1.559,1.884c1.369,0.471,3.187,0.003,4.619,0.15
	c2.224,0.229,4.34,0.063,5.394,2.402c1.013,2.25,1.029,3.144,3.722,3.632c2.027,0.367,4.444,0.673,6.471,0.2
	c1.634-0.382,2.246-0.537,3.968,0.008c0.851,0.269,1.783,0.605,2.296,1.416C488.908,464.971,488.958,465.584,488.944,466.247z"/>
<path style="fill:#6983D6;" d="M254.928,377.85c-0.425,0.048-0.726,0.456-1.029,0.733c-1.394,1.277-2.677,2.641-4.035,3.953
	c-2.558,2.471-4.754,5.956-5.413,9.496c-0.559,3.007-0.665,6.076-0.719,9.127c-0.025,1.398-0.297,3.061-0.062,4.437
	c0.077,0.45,0.365,0.774,0.481,1.207c0.162,0.599,0.009,1.272-0.015,1.881c-0.102,2.653-0.411,5.278-0.45,7.938
	c-0.094,6.328-0.222,12.658-0.594,18.977c-0.144,2.432-0.224,4.869-0.395,7.299c-0.163,2.324-0.569,4.612-0.798,6.927
	c-0.187,1.891-0.359,3.767-0.444,5.668c-0.057,1.266-0.343,2.865,0.04,4.111c0.279,0.904,0.989,1.5,1.888,1.749
	c0.553,0.153,1.123,0.129,1.689,0.184c0.925,0.09,1.814,0.353,2.744,0.412c1.987,0.126,3.995-0.36,5.984-0.445
	c2.208-0.095,4.414-0.211,6.621-0.314c1.762-0.083,4.123,0.348,5.475-1.077c1.426-1.501,1.476-4.072,1.627-5.985
	c0.609-7.72,0.71-15.445,0.764-23.184c0.022-3.142-0.338-6.247-0.553-9.375c-0.26-3.783-0.505-7.567-0.79-11.348
	c-0.126-1.673-0.402-3.271-0.517-4.947c-0.132-1.911-0.337-3.822-0.788-5.687c-0.397-1.644-0.723-3.328-1.183-4.953
	c-0.511-1.8-1.46-3.465-2.142-5.204c-0.601-1.534-1.244-3.058-1.814-4.602c-0.497-1.344-1.276-2.475-1.933-3.738
	C257.688,379.399,256.599,377.267,254.928,377.85z"/>
<g>
	<path style="fill:#759EBA;" d="M302.987,156.133c-0.497-0.247-1.177-0.065-1.836,0c-2.23,0.221-4.401-0.034-6.638-0.019
		c-3.604,0.022-7.212,0.836-10.736,1.523c-6.269,1.221-12.316,2.823-18.317,5.043c-11.642,4.305-21.056,11.232-27.291,22.055
		c-2.029,3.522-3.585,7.296-4.798,11.17c-1.084,3.462-2.546,7.543-2.38,11.202c0.173,3.823-0.947,7.305-1.847,11.025
		c-1.038,4.291-2.013,8.605-2.594,12.985c-1.005,7.574-1.088,15.198-1.768,22.799c-0.819,9.153-1.22,18.375-1.866,27.518
		c-0.321,4.539-0.176,9.132-0.499,13.685c-0.315,4.441-0.701,8.878-0.922,13.325c-0.402,8.075,0.007,16.204,0.002,24.287
		c-0.006,10.117,0.172,20.349-1.013,30.356c-0.305,2.574,0.26,5.504,0.404,8.093c0.147,2.662,0.294,5.322,0.457,7.984
		c0.324,5.318,0.704,10.634,1.248,15.935c0.717,6.991,1.066,14.016,1.262,21.04c0.429,15.36,0.422,30.719,0.897,46.074
		c0.2,6.472-0.306,13.072,0.361,19.51c0.579,5.589-0.309,11.442-0.494,17.046c-0.088,2.655,0.238,7.806-2.488,9.344
		c-1.667,0.94-5.141,0.957-7.079,0.938c-1.518-0.016-3.747-0.571-5.235-0.977c-0.965-0.264-2.581-1.105-3.328-1.825
		c-1.927-1.857-2.132-5.1-2.279-7.558c-0.228-3.806-0.298-7.585-0.208-11.401c0.242-10.18-0.329-20.363,0.52-30.535
		c0.752-9.025,1.598-18.28,1.414-27.342c-0.218-10.709-0.295-21.355,0.276-32.061c0.368-6.901,0.614-14.154,0.177-21.052
		c-0.111-1.755-0.693-3.378-0.77-5.125c-0.093-2.121-0.108-4.253-0.126-6.377c-0.082-9.973,0.524-19.939,0.936-29.898
		c0.356-8.596,2.105-17.028,1.394-25.659c-0.352-4.282-2.207-8.41-2.465-12.654c-0.092-1.516,0.356-3.039,0.356-4.58
		c0.001-2.026,0.019-4.052,0.049-6.078c0.125-8.295,0.811-16.625,1.735-24.869c0.816-7.284,0.982-14.593,0.955-21.92
		c-0.01-2.777,0.485-5.656,0.171-8.424c-0.239-2.103-0.971-3.859-1.044-6.09c-0.203-6.292-0.452-12.773,0.031-19.052
		c0.522-6.766,0.046-13.494,0.704-20.266c0.838-8.631,0.323-17.463,0.696-26.116c0.079-1.817,0.21-4.285,1.407-5.7
		c0.84-0.993,2.001-1.234,3.217-1.269c2.266-0.065,4.451,0.181,6.738-0.029c5.87-0.539,11.938-0.054,17.762,0.624
		c3.835,0.447,7.659,0.125,11.503,0.079c4.39-0.054,8.764,0.297,13.157,0.291c7.285-0.011,14.533,0.088,21.818-0.172
		c3.665-0.13,7.085-0.821,10.682-1.406c1.658-0.269,3.354-0.723,5.025-0.561C302.564,151.266,303.908,153.311,302.987,156.133z"/>
	<path style="fill:#759EBA;" d="M197.806,271.971c0.289-1.602,0.631-3.196,0.829-4.818c0.391-3.191,0.082-6.714-0.563-9.852
		c-0.659-3.21-0.119-6.756-0.083-10.027c0.04-3.679,0.044-7.36,0.173-11.038c0.105-3.024-0.186-5.885,0.019-8.924
		c0.238-3.531,0.439-7.073,0.281-10.612c-0.066-1.462-0.353-2.652-1.786-3.355c-3.43-1.684-5.901,1.511-6.752,4.382
		c-2.322,7.841-2.558,16.331-3.213,24.421c-0.402,4.973-0.807,10.005-0.72,14.997c0.054,3.112,0.575,6.139,0.856,9.244
		c0.26,2.862,0.423,5.65,0.424,8.528c0.001,5.939-0.939,11.797-1.152,17.724c-0.678,18.875-0.104,37.679-0.779,56.559
		c-0.295,8.241,0.395,16.345-0.062,24.6c-0.477,8.62-1.27,17.238-1.085,25.88c0.077,3.581,0.156,7.162,0.27,10.742
		c0.046,1.456,0.447,2.343,0.769,3.677c0.353,1.468-0.015,3.112-0.057,4.599c-0.101,3.507-0.255,6.978-0.576,10.473
		c-0.558,6.073-1.156,12.101-1.406,18.193c-0.495,12.08-0.429,24.062,0.185,36.139c0.223,4.401,0.09,8.782,0.107,13.184
		c0.009,2.34-0.401,7.688,1.74,9.254c1.571,1.149,5.054,1.797,6.51,0.158c1.362-1.533,0.833-4.607,0.898-6.475
		c0.206-5.942,0.177-11.837,0.102-17.776c-0.067-5.352,0.019-10.709,0.006-16.063c-0.011-4.582,0.75-9.025,1.122-13.577
		c0.362-4.437,0.554-8.896,0.811-13.344c0.168-2.913,0.105-5.836,0.298-8.747c0.191-2.878,0.419-5.581,0.448-8.448
		c0.031-3.078-0.016-6.156,0.004-9.235c0.029-4.451-0.571-8.842-0.413-13.313c0.14-3.964,0.803-7.874,0.826-11.844
		c0.03-5.333-0.275-10.718,0.301-16.03c0.528-4.877-0.276-9.719-0.592-14.546c-0.355-5.394,0.403-11.109,0.425-16.539
		c0.021-5.055,0.668-10.107,0.332-15.163c-0.156-2.355-0.591-4.516-0.606-6.876c-0.016-2.616-0.197-5.226-0.266-7.839
		c-0.22-8.293,0.248-16.992,1.122-25.244c0.343-3.248,0.537-6.428,0.787-9.683C197.426,274.216,197.603,273.091,197.806,271.971z"/>
	<path style="fill:#759EBA;" d="M173.535,345.328c-0.021-2.331,0.226-4.725,0.048-7.047c-0.12-1.581-0.605-2.954-0.608-4.574
		c-0.007-4.38,0.039-8.756-0.849-13.069c-0.643-3.119-3.961-2.608-6.564-1.974c-3.317,0.808-3.323,3.02-3.948,6.332
		c-1.275,6.76-1.678,13.625-1.565,20.501c0.132,8.068,1.354,15.906,1.662,23.97c0.184,4.813-0.243,9.668-0.67,14.462
		c-0.68,7.645-1.068,15.466-0.777,23.131c0.29,7.581,0.965,15.41,0.361,22.99c-0.576,7.233-1.565,14.407-1.55,21.677
		c0.027,11.761,0.572,23.41,1.436,35.136c0.297,4.026,0.297,8.029,0.496,12.041c0.146,2.938-0.43,8.46,3.002,9.42
		c2.07,0.579,3.091,0.015,4.66-1.309c1.651-1.394,1.689-3.259,1.886-5.56c0.309-3.597-0.022-7.085,0.589-10.671
		c0.434-2.548,1.13-5.203,1.403-7.739c0.416-3.87,1.301-7.613,1.426-11.536c0.186-5.843-0.623-11.381-0.848-17.168
		c-0.2-5.12-0.304-10.256-0.305-15.381c0-3.547-0.036-7.096-0.009-10.643c0.031-4.176,0.858-8.299,0.986-12.472
		c0.125-4.058,0.062-8.115-0.346-12.158c-0.688-6.835-0.623-14.311-0.382-21.174c0.116-3.283-0.287-6.519-0.277-9.794
		c0.013-4.433,1.506-8.888,0.808-13.324c-0.351-2.227-0.438-3.957-0.296-6.276C173.466,350.525,173.559,347.926,173.535,345.328z"/>
	<path style="fill:#759EBA;" d="M146.725,368.831c0.719,1.068,1.102,2.383,1.074,3.796c-0.077,3.936-0.356,7.959-0.36,11.962
		c-0.004,5.232,0.29,10.513,0.028,15.728c-0.258,5.147-0.357,10.314-0.838,15.464c-0.316,3.386-0.902,6.768-0.991,10.172
		c-0.154,5.935,0.414,11.917,0.536,17.856c0.082,4,0.118,7.995,0.02,11.995c-0.088,3.554,1.037,7.066,1.223,10.63
		c0.263,5.043-0.264,10.076-0.698,15.094c-0.199,2.291-0.515,4.588-0.25,6.874c0.294,2.538,0.672,5.056,0.818,7.611
		c0.162,2.845,0.194,5.669,0.012,8.514c-0.15,2.354,0.275,3.54-2.298,3.652c-1.823,0.079-3.439,0.909-5.231,1.088
		c-6.336,0.635-4.291-7.746-4.105-11.598c0.16-3.324,0.561-6.679,0.972-9.98c0.423-3.409,0.171-6.804,0.293-10.228
		c0.174-4.862,0.442-9.72,0.199-14.587c-0.092-1.846,0.306-3.68,0.232-5.525c-0.073-1.807-0.607-3.337-0.576-5.185
		c0.073-4.235,0.462-8.456,0.588-12.689c0.15-5.067-0.132-10.212-0.342-15.283c-0.109-2.618-0.502-5.23-0.543-7.851
		c-0.028-1.789,0.201-3.315-0.061-5.063c-0.288-1.928-0.192-4.012-0.213-5.958c-0.04-3.636-0.001-7.248,0.007-10.88
		c0.008-3.649,0.55-7.348,0.072-10.97c-0.389-2.948-0.626-5.986-0.895-8.92c-0.203-2.221,1.196-4.161,2.635-5.753
		c1.087-1.203,3.461-2.837,5.216-2.389C144.746,366.789,145.937,367.662,146.725,368.831z"/>
	<path style="fill:#759EBA;" d="M124.293,404.116c0.738,5.441-0.49,11.27-0.431,16.765c0.074,6.8,0.818,13.602,0.559,20.408
		c-0.331,8.685,0.532,17.377,0.281,26.075c-0.235,8.118-0.969,16.135-0.969,24.265c0,3.264,0.304,6.425,0.534,9.674
		c0.111,1.578,0.931,4.148-0.037,5.323c-1.148,1.394-4.775,1.357-6.394,1.426c-0.638,0.028-3.752-0.117-4.271-0.48
		c-1.138-0.801-0.633-3.84-0.633-4.979c0-4.472-0.107-8.959-0.007-13.428c0.107-4.784,0.259-9.576,0.406-14.361
		c0.154-4.985-0.661-10.048-0.681-15.051c-0.019-4.729-0.779-9.468-0.965-14.201c-0.214-5.449-0.64-10.884-0.935-16.328
		c-0.37-6.822,1.317-13.683,1.766-20.47c0.146-2.204-0.239-3.153,2.071-4.078c1.663-0.665,4.111-1.23,5.884-1.26
		C122.534,403.38,124.207,404.903,124.293,404.116z"/>
	<path style="fill:#759EBA;" d="M94.698,433.992c0.944,4.404,0.435,9.291,0.591,13.768c0.255,7.269,0.552,14.628,0.397,21.903
		c-0.128,6.017-0.568,12.036-0.569,18.044c-0.001,4.148,0.791,8.192,0.558,12.414c-0.113,2.044,0.084,4.061-0.343,6.086
		c-0.131,0.622-0.177,1.087-0.588,1.422c-0.312,0.254-1.708,0.295-2.147,0.426c-0.944,0.283-1.801,0.788-2.803,0.844
		c-1.871,0.103-4.095-0.591-5.907-1.073c-1.343-0.357-3.614-0.476-4.766-1.353c-0.719-0.549-0.521-0.48-0.654-1.562
		c-0.305-2.479-0.52-4.98-0.362-7.471c0.301-4.769,0.412-9.432,1.027-14.161c1.189-9.151,0.698-18.714,0.698-27.931
		c0-2.775,0.027-5.552,0.003-8.326c-0.018-2.055-0.471-4.126-0.402-6.172c0.1-2.958,1.255-7.285,4.249-8.407
		C86.798,431.274,93.362,430.368,94.698,433.992z"/>
	<path style="fill:#759EBA;" d="M63.7,450.122c0.774,9.696,0.215,19.778-0.112,29.495c-0.23,6.834,0.661,13.889,1.066,20.722
		c0.102,1.726,0.359,5.619-1.305,6.799c-0.693,0.491-2.604,0.82-3.494,0.796c-1.315-0.036-2.232-0.608-3.617-0.324
		c-0.805,0.165-1.387,0.679-2.213,0.505c-0.058-0.012-1.208-0.746-1.237-0.791c-0.252-0.405-0.091-2.174-0.128-2.64
		c-0.143-1.79-0.39-3.568-0.522-5.36c-0.507-6.931-0.157-13.923-0.66-20.863c-0.412-5.685-0.558-11.459-0.544-17.167
		c0.007-2.611-1.16-7.53,0.834-9.75c1.352-1.504,4.626-0.814,6.455-1.304C60.735,449.566,62.276,448.867,63.7,450.122z"/>
	<path style="fill:#759EBA;" d="M37.892,464.85c0,12.657,0.821,25.284,1.125,37.919c0.049,2.032,0.405,4.979-2.064,5.544
		c-1.676,0.385-3.624-0.594-5.251-0.877c-2.178-0.38-3.672-0.683-5.389-2.044c-2.712-2.148-2.17-4.451-2.167-7.993
		c0.004-5.474,0-10.933,0-16.41c0-3.789-0.128-7.523-0.281-11.294c-0.098-2.417,0.008-4.895,2.239-6.398
		c1.058-0.714,2.5-0.911,3.723-0.972c1.492-0.074,2.949-0.49,4.39-0.459C35.714,461.9,37.362,462.657,37.892,464.85z"/>
	<path style="fill:#759EBA;" d="M304.309,178.487c-0.693,2.283-0.31,5.925-0.382,7.497c-0.205,4.507-0.394,9.017-0.382,13.529
		c0.028,10.243,0.55,20.374,1.1,30.576c0.215,3.995-0.039,8.044-0.15,12.042c-0.245,8.816-0.228,17.665-0.248,26.485
		c-0.011,4.816,0.475,9.382,0.892,14.134c0.443,5.052-0.035,10.126,0.199,15.184c0.422,9.165,0.083,18.234-0.094,27.394
		c-0.375,19.349-0.155,38.753-0.681,58.149c-0.155,5.72-0.074,11.351,0.208,17.05c0.321,6.487,0.59,12.962,0.842,19.453
		c0.468,12.041,0.509,24.154,1.188,36.178c0.514,9.101,1.314,18.04,0.962,27.167c-0.267,6.909-0.871,13.871-0.708,20.784
		c0.045,1.894,0.491,3.949,2.453,4.766c1.301,0.541,4.817,0.514,6.156,0.294c2.446-0.403,2.791-2.085,2.896-4.376
		c0.53-11.515-0.112-22.903-0.985-34.434c-0.965-12.757-0.815-25.712-0.69-38.489c0.09-9.194,0.815-18.368,1.058-27.558
		c0.222-8.392-0.88-16.512-0.574-24.899c0.245-6.696-0.139-13.417-0.063-20.121c0.057-4.968,0.154-9.936,0.415-14.898
		c0.2-3.799,0.361-7.17-0.713-10.841c-1.108-3.788-1.115-7.454-1.111-11.381c0.006-5.178-0.001-10.356,0.001-15.534
		c0.003-7.598,0.591-15.468-0.184-23.036c-0.111-1.083-0.518-2.006-0.734-3.054c-0.336-1.637-0.13-3.402-0.145-5.065
		c-0.031-3.694-0.191-7.389-0.508-11.07c-0.472-5.486-0.193-10.857-0.109-16.359c0.056-3.704,0.024-7.409-0.04-11.113
		c-0.061-3.47,0.284-7.297-0.318-10.715c-1.134-6.44-0.793-13.623-0.312-20.173c0.388-5.276,0.756-10.556,0.974-15.845
		c0.104-2.528,0.235-5.337-0.862-7.696c-0.907-1.95-2.283-4.071-4.292-4.994c-0.888-0.407-3.052-1.339-3.992-0.706
		C304.87,177.15,304.533,177.748,304.309,178.487z"/>
	<path style="fill:#759EBA;" d="M327.533,282.088c0.348,0.864,0.102,2.026,0.016,2.958c-0.5,5.419-1.506,10.731-1.718,16.184
		c-0.16,4.112-0.148,8.233,0.072,12.343c0.093,1.743,0.13,3.268-0.093,4.972c-0.226,1.719,0.27,3.281,0.461,4.99
		c0.378,3.382,0.572,6.773,0.564,10.175c-0.013,6.096,0.058,12.268,0.306,18.36c0.194,4.791,1.113,9.522,1.241,14.331
		c0.098,3.687-0.093,7.402-0.283,11.094c-0.296,5.787-0.708,11.536-0.706,17.333c0.002,8.357,0.173,16.732,1.1,25.045
		c0.177,1.588,0.513,2.937,0.944,4.445c0.497,1.738,0.3,3.613,0.343,5.409c0.107,4.377,0.39,8.751,0.285,13.132
		c-0.128,5.297-1.009,10.523-1.261,15.796c-0.552,11.487,0.518,23.059,0.84,34.527c0.093,3.302-0.793,8.502,0.827,11.467
		c0.65,1.189,2.022,2.389,3.307,2.834c1.544,0.536,3.105-0.301,4.669-0.281c2.609,0.035,3.054-1.737,2.962-4.148
		c-0.276-7.289-2.263-14.533-2.975-21.8c-0.705-7.184-0.783-14.383-0.102-21.573c0.815-8.593,2.451-17.091,3.1-25.702
		c0.151-2.01,0.444-4.174,0.218-6.184c-0.14-1.244-0.605-2.353-0.605-3.624c-0.002-4.154,0.765-8.381,0.95-12.542
		c0.26-5.866,0.214-11.745-0.067-17.61c-0.286-5.944-1.424-12.009-0.863-17.921c0.757-7.996-0.646-16.294-1.105-24.291
		c-0.419-7.284-0.436-14.581-0.557-21.873c-0.057-3.453-0.718-7.365-0.229-10.777c0.15-1.049,0.574-1.971,0.64-3.045
		c0.111-1.819-0.194-3.682-0.196-5.505c-0.007-4.478,0.038-8.946-0.171-13.428c-0.135-2.897,0.151-5.909-0.811-8.678
		c-0.713-2.049-2.49-3.402-4.11-4.737c-0.638-0.526-1.742-1.32-2.517-1.654C330.538,281.483,329.856,282.274,327.533,282.088z"/>
	<path style="fill:#759EBA;" d="M352.78,342.401c-0.012,5.378-0.484,10.724-0.669,16.094c-0.194,5.619-0.114,11.247,0.173,16.862
		c0.122,2.396,0.741,4.687,0.691,7.061c-0.062,2.959-0.47,5.898-0.762,8.839c-0.552,5.582-0.663,11.316-0.95,16.928
		c-0.166,3.244,0.061,6.607-0.249,9.826c-0.268,2.778,0.323,4.98,0.784,7.755c0.735,4.419,0.843,8.793,0.844,13.258
		c0.001,8.027-0.61,16.001-0.918,24.015c-0.504,13.1-0.034,26.251-0.757,39.326c-0.137,2.469-0.723,3.401,1.781,4.552
		c3.07,1.413,7.165,0.993,10.543,0.993c0.784,0,2.104,0.274,2.731-0.334c1.314-1.272,0.231-5.1,0.219-6.562
		c-0.066-7.52-0.566-15.024-1.174-22.528c-0.37-4.57-0.049-9.177-0.08-13.761c-0.037-5.623-0.336-11.261-0.112-16.886
		c0.193-4.874,0.054-9.693,0.53-14.55c0.606-6.187,1.79-13.046,0.296-19.128c-0.739-3.009-0.148-6.385-0.113-9.466
		c0.043-3.753-0.04-7.509-0.323-11.254c-0.26-3.445-0.531-6.896-0.389-10.352c0.148-3.6-0.251-7.13-0.028-10.692
		c0.252-4.037,0.385-8.079,0.526-12.121c0.203-5.833,1.347-12.534-2.261-17.516c-1.364-1.884-2.325-2.786-4.604-3.439
		c-0.8-0.229-2.384-0.89-3.207-0.554c-1.711,0.696-2.37,5.221-2.942,6.862"/>
	<path style="fill:#759EBA;" d="M377.186,390.23c-1.516,5.57-1.031,11.996-1.231,17.717c-0.26,7.478-0.746,14.95-0.732,22.413
		c0.008,4.174,0.034,8.362,0.424,12.52c0.474,5.051,0.022,10.191,0,15.252c-0.026,5.996-0.156,11.931,0.001,17.926
		c0.143,5.435,0.608,10.989,0.385,16.416c-0.172,4.151-0.846,9.209,0.021,13.271c0.789,3.689,4.604,3.632,7.611,3.309
		c1.424-0.154,3.6,0.267,4.456-0.862c0.956-1.259,0.751-4.638,0.716-6.176c-0.074-3.268-0.862-6.57-1.207-9.818
		c-0.96-9.036-0.623-18.484-0.274-27.563c0.199-5.168,0.421-10.328,0.738-15.493c0.321-5.213,0.359-10.448,0.928-15.644
		c0.472-4.319-0.415-8.635-0.346-12.991c0.045-2.806,0.399-5.573,0.261-8.387c-0.189-3.854-0.522-7.729-0.532-11.585
		c-0.004-1.603,0.242-3.417-0.384-4.939c-0.615-1.495-2.337-2.969-3.7-3.825C382.011,390.318,380.234,389.713,377.186,390.23z"/>
	<path style="fill:#759EBA;" d="M400.75,422.21c-0.874,4.794-1.272,9.759-1.262,14.631c0.009,4.487-0.589,8.957-0.389,13.439
		c0.284,6.379,0.389,12.74,0.389,19.133c0,7.987-0.24,15.917-0.549,23.888c-0.132,3.428-0.342,7.023-0.151,10.447
		c0.083,1.49,0.683,2.656,2.055,3.489c3.297,2.003,8.488,1.462,12.1,0.965c0.819-0.112,2.441,0.092,3.158-0.42
		c0.674-0.48,0.524-0.956,0.577-2.093c0.138-2.974,0.19-5.994,0.22-8.971c0.1-9.849-0.301-19.684-0.428-29.544
		c-0.134-10.419,0.419-20.843-0.327-31.243c-0.284-3.97,0.302-8.056-0.237-12.002c-0.355-2.604-1.745-3.254-4.003-4.193
		c-2.536-1.056-4.622-0.986-7.29-1.097c-0.818-0.034-1.689-0.328-2.456,0.13C400.873,419.535,401.153,421.362,400.75,422.21z"/>
	<path style="fill:#759EBA;" d="M434.694,443.25c-1.373,1.568-1.296,5.038-1.574,6.955c-0.799,5.49-1.351,10.661-0.981,16.201
		c0.453,6.774,0.913,13.516,1.749,20.255c0.603,4.862,0.47,9.54,0.238,14.407c-0.165,3.465-0.656,7.037,3.373,7.832
		c2.988,0.59,6.325,0.218,9.23-0.15c1.367-0.173,2.196,0.23,2.836-0.995c0.44-0.843,0.223-3.229,0.218-4.154
		c-0.011-1.911-0.502-3.756-0.517-5.663c-0.035-4.025,0.123-8.01,0.02-12.04c-0.089-3.494-0.824-6.908-0.848-10.405
		c-0.053-7.248-0.529-14.476-0.287-21.719c0.108-3.246,1.913-7.159-1.67-8.837c-1.825-0.854-4.044-1.223-6.039-1.508
		C437.366,442.985,435.329,442.163,434.694,443.25z"/>
	<path style="fill:#759EBA;" d="M459.509,463.163c0.038-1.357,0.228-2.709,0.816-4.087c0.936-2.194,2.599-2.218,4.808-2.643
		c2.892-0.555,7.151,1.121,8.279,4.071c0.571,1.495,0.221,3.291,0.377,4.891c0.218,2.245,0.174,4.478,0.178,6.739
		c0.006,3.169-0.496,6.246-0.68,9.395c-0.172,2.947,0.245,5.881,0.094,8.83c-0.194,3.812-0.423,7.631-0.635,11.442
		c-0.089,1.588,0.013,4.887-0.964,6.32c-0.574,0.843-3.131,1.652-4.035,1.906c-1.556,0.439-3.307,0.006-4.917,0.165
		c-1.343,0.132-2.92,0.116-3.985-0.915c-1.826-1.765-0.586-7.301-0.588-9.672c-0.004-6.207,0.194-12.426,0.482-18.628
		c0.186-4,0.544-7.988,0.821-11.982C459.701,466.989,459.455,465.071,459.509,463.163z"/>
	<path style="fill:#759EBA;" d="M259.506,30.878c-2.019,3.211-2.268,8.365-3.091,11.931c-2.168,9.383-4.363,18.664-5.678,28.222
		c-1.178,8.566-1.642,17.136-2.249,25.753c-0.503,7.133-0.324,14.54,1.614,21.47c1.103,3.944,3.064,7.561,5.691,10.697
		c1.581,1.888,4.806,7.332,6.806,3.085c1.323-2.81,1.628-5.961,1.992-9.014c0.353-2.975,0.282-6.556,1.224-9.402
		c0.622-1.877,3.181-5.784,5.475-5.827c2.721-0.05,1.651,11.899,1.584,13.386c-0.134,3.025-0.352,6.046-0.559,9.067
		c-0.174,2.556-1.915,6.811,0.369,8.767c1.063,0.91,3.725,1.232,5.003,0.858c1.906-0.555,1.605-2.401,1.73-4.274
		c0.313-4.663,0.088-9.285,0.541-13.94c0.347-3.553,1.394-9.205,4.115-11.858c2.209-2.154,3.113,0.89,3.318,2.896
		c0.647,6.315,0.488,12.647,0.099,18.97c-0.131,2.128-0.114,4.373-0.386,6.48c-0.088,0.68-0.227,1.56-0.671,2.122
		c-0.645,0.817-2.239,1.295-3.177,1.637c-1.606,0.587-3.642,0.937-5.361,1.048c-2.046,0.131-4.054,0.043-6.094-0.147
		c-1.523-0.141-2.969,0.025-4.441-0.506c-0.952-0.343-1.739-0.99-2.673-1.352c-1.295-0.503-2.521-0.323-3.869-0.351
		c-1.441-0.029-2.82-0.461-4.254-0.54c-2.545-0.139-4.775-0.728-7.254-0.141c-2.421,0.573-5.092,1.091-7.13,2.61
		c-4.322,3.223,3.822,4.968,6.155,5.389c3.893,0.704,7.874-0.287,11.788-0.134c4.945,0.194,9.803-0.662,14.734-0.919
		c5.604-0.292,11.109-0.885,16.692-1.38c3.024-0.268,6.487-0.461,9.503-0.02c3.125,0.457,2.181,4.647-0.123,5.807
		c-2.273,1.145-5.553,1.07-8.041,1.497c-5.437,0.934-11.082,0.955-16.581,1.268c-9.628,0.546-19.226,0.15-28.851,0.264
		c-9.016,0.105-18.396,0.673-27.351-0.485c-2.055-0.266-3.4-0.946-5.271-1.529c-1.046-0.325-2.774-0.242-3.65-0.991
		c-0.69-0.589-1.29-2.507-1.483-3.422c-0.369-1.761,0.553-3.533,1.035-5.198c1.003-3.474,2.02-7.028,2.819-10.541
		c0.641-2.814,1.206-5.591,2.147-8.328c1.878-5.465,3.365-11.191,4.531-16.856c2.531-12.296,6.826-25.099,12.283-36.391
		c2.519-5.213,4.932-10.485,7.402-15.717c2.226-4.713,4.906-9.192,6.874-14.04c1.608-3.959,3.296-8.669,5.707-12.234
		c0.555-0.822,1.587-1.83,2.666-1.922C257.338,26.46,257.482,29.532,259.506,30.878z"/>
</g>
<g>
	<path style="fill:#3D5C6D;" d="M249.267,210.274c0.809,2.047,0.155,5.52-0.003,7.726c-0.129,1.791-0.228,3.594-0.284,5.4
		c-0.042,1.334-0.048,4.704,0.839,5.658c0.743,0.798,3.248,0.894,4.23,0.943c2.01,0.098,5.116,0.064,5.962-2.049
		c1.331-3.323,0.591-7.285,0.746-10.809c0.093-2.115-0.085-4.383-0.765-6.372C258.584,206.647,250.749,208.266,249.267,210.274z"/>
	<path style="fill:#3D5C6D;" d="M249.828,240.43c-0.752,2.574-0.384,5.725-0.562,8.407c-0.178,2.675-0.421,5.423-0.279,8.109
		c0.07,1.311,0.034,1.926,1.054,2.497c1.072,0.599,3.365,0.698,4.578,0.641c1.026-0.048,1.918-0.506,2.926-0.568
		c0.812-0.049,0.934,0.442,1.749-0.137c1.284-0.913,1.152-3.179,1.229-4.538c0.165-2.924,0.033-5.816-0.104-8.734
		c-0.073-1.544,0.166-3.84-0.474-5.259c-0.426-0.947-1.7-1.577-2.683-1.803c-1.134-0.261-2.134-0.077-3.254,0.092
		C251.963,239.447,251.72,239.832,249.828,240.43z"/>
	<path style="fill:#3D5C6D;" d="M249.688,270.587c-0.705,3.799-0.457,7.958-0.632,11.818c-0.074,1.636-0.848,5.101,0.068,6.413
		c0.664,0.95,1.663,0.798,2.675,0.81c1.217,0.015,2.56,0.428,3.783,0.297c1.202-0.128,2.944-1.04,4.029-0.414
		c0.599-1.094,1.175-1.208,1.441-2.579c0.424-2.188,0.14-4.377-0.008-6.588c-0.13-1.946-0.21-3.873-0.307-5.827
		c-0.056-1.112,0.119-2.604-0.215-3.654c-0.536-1.684-2.619-2.061-4.253-2.101c-1.237-0.029-2.264,0.227-3.421,0.638
		C252.139,269.655,250.684,270.548,249.688,270.587z"/>
	<path style="fill:#3D5C6D;" d="M249.267,300.603c0.056,3.076-0.332,6.113-0.148,9.189c0.13,2.185-0.511,4.414-0.273,6.591
		c0.366,3.34,4.653,3.241,7.306,2.838c0.772-0.117,1.807-0.073,2.512-0.386c0.956-0.423,1.321-1.096,1.653-2.188
		c1.051-3.457,0.337-7.331,0.314-10.879c-0.007-1.127,0.171-4.68-0.44-5.784c-0.741-1.342-3.145-1.231-4.532-1.208
		c-0.954,0.015-1.93-0.043-2.883,0.071C250.868,299.071,250.371,300.241,249.267,300.603z"/>
	<path style="fill:#3D5C6D;" d="M238.186,505.666c0.384-1.271,0.14-2.806,0.14-4.117c0-2.999-0.031-5.984,0.175-8.978
		c0.3-4.323,0.546-8.536,1.01-12.839c0.171-1.584-0.248-6.342,1.059-7.506c0.828-0.737,2.963,0.057,4.082,0.057
		c2.88-0.002,5.716-0.406,8.586-0.421c2.358-0.011,4.758,0.139,7.111,0.003c1.986-0.114,5.162-1.056,6.672,0.815
		c0.598,0.742,0.468,1.95,0.486,2.849c0.044,2.156,0.053,4.29,0.203,6.442c0.291,4.139,0.285,8.319,0.215,12.468
		c-0.076,4.584-0.567,9.169-1.012,13.722c-0.422,0.004-0.742,0.147-1.159,0.304c-1.428,0.539-2.436,0.27-3.94,0.166
		c-1.939-0.134-3.841,0.231-5.771,0.243c-1.913,0.012-3.776-0.437-5.655-0.72c-1.48-0.223-2.744-0.743-4.18-1.075
		c-1.275-0.295-2.589,0.272-3.805-0.026C241.55,506.844,239.766,506.307,238.186,505.666z"/>
	<path style="fill:#3D5C6D;" d="M250.108,140.429c-2.636,0.016-5.358-0.239-7.965,0.036c-2.585,0.273-5.138,0.83-7.751,0.66
		c-2.894-0.189-5.58,0.58-8.481,0.145c-2.25-0.339-4.381-0.208-6.615-0.606c-1.579-0.282-3.162,0.107-4.72-0.068
		c-1.412-0.159-2.168-0.358-3.004,0.998c-1.009,1.636-1.41,3.965-1.995,5.806c-0.741,2.333-0.957,3.597,1.542,4.821
		c1.803,0.882,4.051,0.475,5.982,0.67c2.514,0.255,4.972,0.707,7.506,0.835c2.899,0.147,5.448,0.196,8.304,0.671
		c3.68,0.612,7.432,0.192,11.137,0.466c2.631,0.194,5.24,0.587,7.885,0.595c2.813,0.008,5.663-0.498,8.471-0.72
		c5.452-0.431,10.772-0.286,16.222-0.286c3.73,0,7.545-0.531,11.231-1.118c3.22-0.513,6.453-0.31,9.615-0.849
		c1.654-0.282,2.732,0.047,3.586-1.506c1.059-1.926,1.853-5.949,1.231-8.124c-1.131-3.96-11.447-2.387-14.182-2.46
		c-5.021-0.135-10.057,0.093-15.07,0.382c-2.307,0.132-4.457,0.79-6.819,0.698c-2.377-0.093-4.722-0.553-7.069-0.897
		c-3.016-0.441-5.956-0.168-8.986-0.146C250.144,140.429,250.126,140.429,250.108,140.429z"/>
</g>
<path style="fill:#FFFFFF;" d="M248.307,163.017c-1.021,0.352-1.989,1.139-2.874,1.733c-1.661,1.115-3.145,2.526-4.457,4.036
	c-2.362,2.72-3.952,6.276-4.097,9.915c-0.132,3.316,0.375,7.116,2.398,9.839c0.94,1.265,2.108,2.25,3.346,3.207
	c1.468,1.136,2.963,2.327,4.617,3.178c3.806,1.958,8.966,1.62,13.011,0.663c3.696-0.874,7.203-3.242,8.944-6.726
	c1.6-3.199,2.493-6.32,2.549-9.917c0.052-3.27-0.871-7.02-2.929-9.613c-2.139-2.693-4.467-5.183-7.747-6.468
	c-1.588-0.622-3.47-0.772-5.158-0.985C253.108,161.523,250.75,162.676,248.307,163.017z"/>
<path style="fill:#BAD5E8;" d="M224.986,414.617c0.008,1.294,0.016,2.589,0.003,3.886c-0.039,4.282-0.889,8.723-1.234,13.026
	c-0.243,3.027-0.465,6.004-0.024,8.991c0.472,3.199,0.827,6.802,0.765,10.041c-0.096,5.043-0.488,10.091-0.751,15.128
	c-0.537,10.294-1.5,20.69-1.534,30.993c-0.011,3.385-0.507,8.617,2.065,11.426c0.886,0.968,1.918,0.918,3.153,1.069
	c2.033,0.25,3.937,1.014,6.019,0.895c1.963-0.112,3.7-0.668,3.928-2.512c0.458-3.685,0.247-7.617,0.371-11.334
	c0.249-7.4,0.716-14.779,1.473-22.147c0.444-4.326,1.368-8.6,1.726-12.934c0.426-5.169,0.065-10.361,0.33-15.538
	c0.266-5.204,0.811-10.381,0.917-15.597c0.119-5.925-0.375-11.715,0.021-17.66c0.159-2.384,0.22-4.73,0.224-7.122
	c0.006-3.492-0.239-6.611,0.619-10.036c0.791-3.156,2.316-5.676,3.685-8.584c0.863-1.835,1.876-2.685,3.408-3.965
	c1.643-1.373,3.384-2.762,5.499-3.264c0.762-0.182,1.002-0.434,1.727-0.165c0.9,0.334,2.282,1.596,2.862,2.307
	c0.941,1.152,1.456,2.742,2.188,4.035c1.11,1.961,2.212,3.799,3.055,5.901c1.758,4.375,2.344,8.998,2.366,13.687
	c0.018,3.795,0.016,7.593,0.251,11.383c0.104,1.671,0.265,3.176,0.737,4.75c0.479,1.599,0.274,3.118,0.274,4.785
	c0.001,4.116-0.266,8.199-0.447,12.311c-0.319,7.266,0.534,14.548,0.292,21.824c-0.201,6.046-0.576,12.092-0.601,18.143
	c-0.024,5.465,0.048,10.951-0.192,16.407c-0.121,2.769-1.326,7.181-0.213,9.807c1.48,3.49,6.012,2.761,9.128,3.078
	c2.252,0.229,4.419,0.055,6.656,0.377c1.298,0.186,2.586,0.596,3.706-0.256c1.403-1.066,0.967-2.807,1.127-4.512
	c0.479-5.143,1.01-10.161,1.217-15.326c0.465-11.597,0.604-23.231-0.194-34.824c-0.44-6.385-0.545-12.783-1.005-19.164
	c-0.255-3.53-0.809-7.015-0.89-10.559c-0.053-2.295,0.04-4.591-0.017-6.885c-0.049-1.977-0.582-3.784-0.738-5.697
	c-0.395-4.847-0.234-9.251-1.788-13.981c-0.847-2.582-2.182-4.744-3.302-7.178c-1.495-3.247-2.764-6.336-4.594-9.43
	c-3.334-5.636-6.762-11.224-10.418-16.659c-2.16-3.21-5.61-8.541-9.91-8.461c-2.747,0.052-4.952,2.203-6.951,3.902
	c-4.157,3.531-6.976,7.841-10.238,12.134c-3.936,5.181-7.261,10.89-9.907,16.825c-2.274,5.101-3.82,10.474-4.472,16.039
	C224.951,407.52,224.965,411.064,224.986,414.617z"/>
<path d="M492.229,464.495c-0.468-6.933-10.742-6.375-16.027-4.193c-0.546-3.176-1.647-5.367-5.246-5.812
	c-1.93-0.239-4.491-0.209-6.483,0.559c0.028-0.502,0.057-1.002,0.079-1.504c0.12-2.801-0.229-4.809-3.238-5.746
	c-2.893-0.9-7.269-1.229-10.142,0.187c-0.074-3.647-0.679-5.389-4.323-6.211c-3.297-0.743-7.181-1.474-10.501-0.508
	c0.237-3.569,0.144-6.715-3.178-9.041c-1.513-1.059-3.831-2.022-5.63-2.39c-2.154-0.44-5.762,0.628-7.841-0.099
	c-0.029-2.102-0.123-4.187-0.357-6.224c-0.48-4.194-2.995-6.807-7.245-7.378c-2.433-0.327-6.265-0.637-8.995,0.347
	c-0.001-1.797,0-3.593-0.001-5.389c-0.004-3.599,0.342-7.919-3.915-9.192c-2.322-0.695-5.691-0.617-8.439,0.084
	c0.027-1.132,0.043-2.267,0.019-3.408c-0.086-4.107,0.295-9.015-4.547-10.339c-1.735-0.475-4.908-1.283-7.172-0.71
	c0.422-4.583,0.884-9.255,0.398-13.764c-0.44-4.075-0.435-8.194-5.333-8.962c-1.904-0.298-4.006-0.545-6.013-0.425
	c0.035-4.754,0.096-9.511,0.026-14.255c-0.07-4.703-0.757-10.322-5.31-12.807c-2.739-1.495-5.316-1.637-7.818-0.762
	c-0.004-0.042-0.004-0.082-0.009-0.122c-0.454-4.675,0.202-10.332-0.853-14.861c-0.719-3.088-2.521-4.684-5.688-5.139
	c-2.599-0.374-4.226-0.09-6.073,0.517c-0.217-6.336-0.957-12.683-0.447-19.033c0.405-5.038,1.582-12.764-3.043-16.258
	c-2.815-2.127-6.757-3.628-10.311-3.133c-0.062-0.888-0.121-1.773-0.176-2.656c-0.265-4.31-0.701-9.102-0.361-13.403
	c0.151-1.922,0.788-3.752,0.834-5.688c0.056-2.37-0.514-4.75-0.523-7.133c-0.035-9.438-0.332-19.39-1.548-28.758
	c-0.383-2.944-0.063-5.683-2.43-7.831c-1.991-1.805-5.094-2.692-7.869-3.158c0.265-3.378,0.549-6.758,0.566-10.17
	c0.019-3.964,0.042-7.966-0.177-11.925c-0.125-2.259,0.084-5.559-0.94-7.657c-1.551-3.179-6.353-4.908-9.808-4.951
	c-0.028-4.255-0.07-8.504-0.226-12.758c-0.007-0.195-0.412-6.903-1.05-10.253c3.198-4.246-0.743-15.656-1.556-18.994
	c-2.622-10.767-5.926-21.347-8.475-32.099c-1.378-5.811-3.962-11.092-6.459-16.474c-2.231-4.809-4.172-9.678-6.445-14.499
	c-2.677-5.68-4.951-11.541-7.617-17.226c-1.213-2.588-2.706-4.89-3.853-7.514c-1.187-2.715-2.335-5.459-3.877-7.998
	c-1.675-2.76-3.468-5.475-5.548-7.95c-1.34-1.596-3.092-3.316-4.917-4.325c-0.006-0.043,0.001-0.08-0.007-0.125
	c-0.144-0.805-0.257-1.612-0.361-2.421c0.164-2.26,0.067-4.593-0.086-6.935c1.118-0.199,2.194-0.429,3.179-0.654
	c2.687,0.875,4.84-3.143,2.101-4.634c-1.735-0.945-3.721-0.405-5.641-0.006c-0.006-0.098-0.013-0.196-0.018-0.294
	c0.064-2.591,0.177-5.177,0.26-7.747c0.084-2.579-4.093-3.242-4.583-0.621c-0.59,3.164-0.571,6.128-0.525,9.174
	c-0.678,0.013-1.364-0.002-2.117-0.1c-1.62-0.211-2.616-0.261-4.069,0.536c-1.293,0.711-1.007,2.319,0,3.088
	c1.669,1.272,3.871,1.726,6.197,1.752c-0.037,2.866-0.035,5.95,0.475,8.835c-0.717,0.511-1.386,1.309-1.977,2.474
	c-2.77,5.466-4.753,11.416-7.422,16.91c-1.222,2.515-2.593,4.977-3.771,7.488c-0.814,1.735-1.41,3.575-2.023,5.412
	c-1.892,4.32-3.679,8.687-5.655,12.878c-2.272,4.821-4.213,9.688-6.445,14.499c-2.497,5.382-5.081,10.662-6.459,16.474
	c-2.549,10.752-5.853,21.331-8.475,32.099c-0.814,3.339-4.754,14.749-1.556,18.994c-0.638,3.349-1.044,10.057-1.05,10.253
	c-0.156,4.255-0.197,8.503-0.226,12.758c-3.455,0.043-8.258,1.772-9.808,4.951c-1.024,2.099-0.816,5.398-0.94,7.657
	c-0.219,3.959-0.196,7.96-0.177,11.925c0.017,3.411,0.301,6.792,0.566,10.17c-2.775,0.466-5.879,1.351-7.869,3.158
	c-2.368,2.148-2.048,4.887-2.43,7.831c-1.217,9.367-1.515,19.32-1.549,28.758c-0.009,2.383-0.579,4.763-0.523,7.133
	c0.046,1.937,0.682,3.767,0.834,5.688c0.339,4.301-0.096,9.093-0.361,13.403c-0.054,0.883-0.114,1.77-0.176,2.656
	c-3.554-0.495-7.494,1.005-10.311,3.133c-4.625,3.494-3.449,11.22-3.043,16.258c0.512,6.349-0.23,12.697-0.447,19.033
	c-1.847-0.607-3.474-0.89-6.073-0.517c-3.167,0.456-4.969,2.051-5.688,5.139c-1.055,4.529-0.398,10.186-0.853,14.861
	c-0.003,0.042-0.004,0.082-0.009,0.122c-2.501-0.875-5.08-0.734-7.818,0.762c-4.552,2.484-5.24,8.104-5.31,12.807
	c-0.071,4.745-0.009,9.502,0.026,14.255c-2.007-0.12-4.109,0.127-6.013,0.425c-4.898,0.769-4.893,4.887-5.333,8.962
	c-0.486,4.509-0.024,9.18,0.397,13.764c-2.264-0.572-5.438,0.236-7.172,0.71c-4.842,1.324-4.46,6.231-4.547,10.339
	c-0.024,1.142-0.008,2.277,0.019,3.408c-2.748-0.701-6.118-0.779-8.439-0.084c-4.257,1.272-3.911,5.594-3.915,9.192
	c-0.002,1.797,0,3.593-0.002,5.389c-2.73-0.984-6.561-0.673-8.995-0.347c-4.251,0.571-6.765,3.182-7.245,7.378
	c-0.233,2.038-0.328,4.123-0.357,6.224c-2.079,0.727-5.687-0.341-7.841,0.099c-1.799,0.367-4.117,1.331-5.63,2.39
	c-3.323,2.326-3.416,5.471-3.178,9.041c-3.319-0.966-7.205-0.236-10.501,0.508c-3.645,0.821-4.249,2.565-4.323,6.211
	c-2.871-1.417-7.248-1.088-10.142-0.187c-3.009,0.937-3.357,2.945-3.238,5.746c0.021,0.502,0.05,1.003,0.08,1.504
	c-1.993-0.768-4.553-0.798-6.483-0.559c-3.599,0.445-4.699,2.637-5.246,5.812c-5.285-2.181-15.558-2.74-16.026,4.193
	c-0.282,4.185,0.95,8.725,1.235,13.021c-0.807,7.254-0.865,14.634-0.939,21.893c-0.093,9.128,4.18,10.745,12.664,11.763
	c8.636,1.037,16.966,0.78,25.671,0.467c11.015-0.396,22.117-0.037,33.137-0.009c10.804,0.028,21.607,0.164,32.41,0.255
	c10.253,0.086,20.729,0.268,30.961-0.151c9.43-0.386,18.83-1.389,28.291-1.335c3.158,0.018,6.271-0.144,9.389-0.319
	c1.405,0.209,2.81,0.343,4.092,0.529c4.118,0.596,8.389,0.296,12.648,0.369c6.099,0.105,12.262,0.313,18.356-0.015
	c1.029-0.055,2.167-0.11,3.34-0.203c2.371,1.277,5.64,0.708,8.28,0.824c5.091,0.222,10.074-0.187,15.193-0.196
	c2.646-0.004,5.266-0.163,7.888-0.341c1.893,0.03,3.789,0.046,5.706,0.011c2.461-0.045,7.595,0.741,10.741-0.517
	c1.911,0.254,3.831,0.336,5.477,0.423c6.094,0.328,12.259,0.12,18.356,0.015c4.259-0.073,8.53,0.227,12.648-0.369
	c1.284-0.185,2.689-0.321,4.092-0.529c3.118,0.175,6.231,0.337,9.389,0.319c9.46-0.055,18.861,0.948,28.292,1.335
	c10.232,0.419,20.708,0.238,30.961,0.151c10.802-0.092,21.607-0.228,32.41-0.255c11.02-0.028,22.123-0.387,33.137,0.009
	c8.705,0.313,17.037,0.57,25.671-0.467c8.485-1.019,12.758-2.635,12.664-11.763c-0.074-7.259-0.132-14.639-0.939-21.893
	C491.279,473.221,492.512,468.681,492.229,464.495z M32.48,504.463c-2.329-0.297-4.832-0.31-6.159-2.947
	c-0.702-1.395-0.085-4.634-0.123-6.322c-0.027-1.191-0.055-2.379-0.088-3.565c2.041-5.911,0.687-14.156,0.192-19.83
	c-0.128-1.47-0.769-3.67-0.402-5.098c0.457-1.776,0.047-1.12,1.628-1.568c2.87-0.812,5.284,0.043,7.855-0.776
	c-0.189,3.944,0.136,7.996,0.139,11.889c0.003,4.274-0.76,9.209,0.633,13.334c0.208,5.129,0.542,10.255,0.705,15.376
	C35.366,504.806,33.886,504.643,32.48,504.463z M44.743,505.555c-0.885-0.04-1.8-0.095-2.723-0.158
	c0.362-6.005-0.314-12.226-0.866-18.34c1.099-5.744,0.001-12.969-0.044-18.111c-0.018-2.025-0.167-4.043,0.01-6.062
	c0.257-2.914,0.285-2.266,2.602-3.104c1.534-0.555,2.831-0.587,4.028-1.285c0.319,4.277,0.715,8.549,0.697,12.849
	c-0.018,4.486-0.848,9.79,1,13.993c0.303,6.728-0.091,13.575,0.303,20.29C48.075,505.642,46.404,505.63,44.743,505.555z
	 M55.051,505.492c0.04-0.567,0.042-1.147,0.028-1.707c-0.126-5.089-0.742-10.118-0.824-15.221c-0.04-2.503-0.148-5.03-0.293-7.556
	c0.144-1.884,0.048-3.827,0.056-5.746c0.02-4.668-0.209-9.172-0.495-13.823c-0.125-2.016-0.048-4.038-0.24-6.05
	c-0.097-0.722-0.195-1.443-0.295-2.165c0.138-0.019,0.295-0.045,0.471-0.077c2.742-1.175,5.134-1.478,7.355-3.305
	c-0.04,5.922,0.218,11.779,0.476,17.697c0.011,0.265,0.02,0.531,0.03,0.796c-0.082,3.321-0.145,6.644-0.172,9.968
	c-0.071,8.96-0.661,18.002,0.496,26.881C59.448,505.293,57.248,505.403,55.051,505.492z M75.976,463.157
	c-0.515,4.482-0.783,9.182-0.617,13.66c0.013,0.358,0.138,0.673,0.325,0.937c-0.104,9.042-0.026,18.085,0.011,27.099
	c-1.401,0.001-2.804,0.007-4.206,0.008c-1.664,0.001-3.336,0.048-5.011,0.109c0.107-3.585-0.543-7.16-0.45-10.788
	c0.08-3.112,0.063-6.23,0.025-9.347c2.766-8.436,0.405-17.523,0.279-26.278c-0.036-2.513-0.011-5.028-0.018-7.542
	c0.002-1.305-0.002-2.611-0.013-3.916c-0.844-0.017-0.583-0.084,0.779-0.204c1.524-0.938,3.881-0.431,5.604-0.781
	c1.156-0.236,2.217-0.586,3.253-1.047c0.128,1.619,0.249,3.241,0.347,4.863C76.153,454.338,76.068,458.748,75.976,463.157z
	 M93.101,504.818c-4.099,0.017-8.199,0.018-12.298,0.025c1.488-9.906,0.155-20.18-0.203-30.18c0.424-1.327,0.589-2.798,0.764-4.234
	c0.605-4.954,0.784-10.112,0.834-15.114c0.045-4.615-1.478-10.159-0.861-14.631c0.857-6.219,6.5-4.956,10.973-6.892
	c0.073,3.757,0.259,7.524,0.246,11.161c-0.012,3.577-0.187,7.334,0.072,11.011c-0.099,3.425-0.127,6.849,0.099,10.229
	C93.58,478.997,92.91,491.946,93.101,504.818z M100.45,504.785c-0.821,0.007-1.643,0.006-2.464,0.011
	c0.23-12.568,0.943-25.721-0.481-38.174c-0.135-1.175-0.227-2.356-0.303-3.541c3.142-9.373,1.312-21.36,1.277-30.955
	c-0.007-2.041-0.692-5.392-0.022-7.308c1.247-3.565,4.722-2.574,7.38-2.839c1.13-0.113,2.157-0.476,3.057-1.041
	c-0.001,4.062-0.007,8.124-0.003,12.186c0.003,5.005-1.329,12.482,0.902,17.054c0.001,0.003,0.003,0.004,0.004,0.007
	c0.067,3.224,0.127,6.448,0.093,9.679c-0.157,14.949,0.055,29.897,0.608,44.837L100.45,504.785z M122.19,466.405
	c-0.339,4.451-0.849,8.569-0.683,13.062c0.312,8.392-0.557,16.71-0.329,25.142l-5.818,0.049c0.475-14.942-0.35-29.852-0.506-44.795
	c-0.047-4.507-0.29-9-0.515-13.497c0.479-2.232,0.379-4.614,0.387-6.948c0.019-5.962,0.009-11.923,0.013-17.885
	c0.002-2.831-1.313-13.001,0.57-14.247c0.921-0.609,3.085-0.134,4.249-0.467c0.613-0.175,1.228-0.456,1.838-0.759
	c0.19,4.201,0.393,8.381-0.136,12.646c-0.463,3.739-0.696,9.133,0.516,13.208c-0.065,7.482-0.14,14.963-0.202,22.444
	C121.543,458.419,122.5,462.322,122.19,466.405z M134.201,441.86c0.054,10.653-0.798,21.244-0.766,31.934
	c0.017,6.023,0.021,12.046,0.053,18.069c0.021,4.272-0.626,8.44-0.463,12.657c-1.626,0.009-3.255,0.017-4.871,0.03l-2.119,0.018
	c0.376-8.658,0.845-17.416,0.56-26.055c-0.146-4.429,0.592-8.64,0.811-13.042c0.201-4.034-0.614-7.931-0.693-11.949
	c-0.138-6.965-0.169-13.934-0.202-20.902c1.499-3.448,0.346-6.788,0.587-10.79c0.344-5.713,0.851-11.102,0.249-16.861
	c-0.266-2.547-1.193-6.742-0.348-9.254c0.792-2.351,2.258-1.839,4.437-2.698c0.441-0.174,1.169-0.456,1.882-0.835
	c0.264,4.722,0.044,9.341,0.983,13.974C134.064,418.066,134.142,429.95,134.201,441.86z M144.737,406.156
	c-0.279,7.287-0.601,14.471-0.603,21.791c-0.002,14.56-0.004,29.121-0.007,43.681c0,6.434-0.408,12.796-0.563,19.214
	c-0.104,4.29-0.569,9.145,0.018,13.594c-1.923,0.026-3.847,0.037-5.77,0.051c1.019-9.819,0.591-19.832,0.619-29.7
	c0.033-11.013,0.861-21.936,0.812-32.926c-0.052-11.874-0.33-23.756-0.57-35.628c-0.009-0.433-0.022-0.862-0.031-1.293
	c2.401-6.848,0.673-15.092,0.444-22.214c-0.107-3.321-2.237-10.537,1.243-12.518c0.917-0.522,2.467-0.573,3.522-1.048
	c0.021-0.01,0.037-0.018,0.058-0.028c0,0.715,0.006,1.43,0.001,2.144c-0.025,3.688-0.085,7.414,0.229,11.094
	c0.053,0.617,0.162,1.214,0.291,1.803c-0.019,0.98-0.036,1.959-0.056,2.94C144.244,393.516,144.981,399.776,144.737,406.156z
	 M154.91,504.116c-2.113,0.105-4.24,0.177-6.374,0.232c-0.728-4.933-0.212-10.62,0.026-15.406c0.325-6.512,0.5-12.942,0.499-19.471
	c-0.002-14.183-0.004-28.367-0.007-42.55c-0.001-6.954,0.46-13.839,0.521-20.763c0.048-5.479-0.488-10.806-0.687-16.25
	c1.437-3.23,1.102-6.551,1.347-10.414c0.376-5.927,0.137-11.901,0.092-17.837c-0.035-4.619-0.637-9.424-0.223-14.026
	c0.371-4.137,2.664-5.516,6.375-5.881c0.121-0.012,0.233-0.025,0.347-0.038c0.066,3.024,0.447,6.007,1.048,8.969
	c-0.104,5.88-0.199,11.761-0.233,17.643c-0.099,16.447-0.067,32.897-0.065,49.343c0.002,16.357-0.024,32.714,0.007,49.069
	c0.024,12.297,0.282,24.859,1.417,37.137C157.636,503.962,156.273,504.047,154.91,504.116z M171.161,473.235
	c-0.147,3.298-0.879,6.591-1.096,9.849c-0.26,3.887-0.272,7.795-0.467,11.707c-0.137,2.751-0.836,5.591-0.671,8.356
	c-1.651,0.114-3.3,0.238-4.95,0.362c-1.629-28.185-1.437-56.461-1.433-84.758c0.002-16.076-0.013-32.154-0.062-48.23
	c-0.02-6.674-0.094-13.351-0.221-20.024c1.432-7.348,1.611-15.189,1.261-22.555c-0.104-2.186-0.989-4.711,1.37-6.09
	c0.81-0.474,3.599-0.582,4.598-0.906c0.025-0.008,0.046-0.013,0.071-0.02c-0.015,5.404-0.135,11.472,0.812,17.037
	c0.006,0.876,0.009,1.752-0.001,2.627c-0.045,3.927-0.68,7.758-0.719,11.658c-0.085,8.483-0.588,16.8-0.557,25.313
	c0.037,10.199,0.003,20.396,0.036,30.595c0.029,9.198,0.992,18.423,0.76,27.57c-0.107,4.204-0.33,8.391,0.177,12.57
	c0.564,4.658,0.123,9.091,0.333,13.742C170.574,465.785,171.33,469.445,171.161,473.235z M183.016,333.75
	c-0.949,7.713-0.493,15.752-1.113,23.52c-0.844,10.557-0.132,21.451-0.15,32.04c-0.017,10.248,0.787,20.87-0.327,31.048
	c-0.903,8.262-0.625,16.755-0.785,25.059c-0.368,19.026-0.581,38.169-0.613,57.275c-2.241,0-4.481,0.075-6.718,0.189
	c-0.121-7.057,1.023-14.711,1.927-21.516c0.935-7.037,0.292-13.777,0.239-20.79c-0.136-18.207-0.978-36.358-0.92-54.604
	c0.033-10.197,0.131-20.4,0.029-30.595c-0.045-4.524,0.194-8.76,0.53-13.23c0.289-3.852-0.437-7.79-0.132-11.632
	c0.396-5.007,0.589-10.06,0.726-15.108c0.238-3.053,0.223-6.151,0.355-9.189c0.254-5.82,0.901-11.602,0.864-17.421
	c-0.035-5.431-0.535-10.41-1.013-15.774c-0.352-3.968-0.027-6.455,3.836-8.152c1.124-0.494,2.253-0.995,3.355-1.545
	c-0.332,5.645-0.406,11.304,0.84,16.761C184.061,311.372,184.38,322.654,183.016,333.75z M192.748,344.443
	c-0.903,11.16-0.204,22.629-0.211,33.827c-0.006,9.054-0.63,17.968-0.577,26.998c0.061,10.462-0.011,20.928-0.018,31.392
	c-0.007,11.564-0.573,23.068-0.58,34.608c-0.003,5.658-0.231,11.331-0.569,16.978c-0.278,4.665-0.145,9.702-0.727,14.404
	c-1.692,0.073-3.385,0.082-5.08,0.073c-0.003-9.883-0.006-19.767-0.008-29.65c-0.002-9.23,0.642-18.498,0.598-27.655
	c-0.042-8.743,0.118-17.59,0.945-26.293c0.929-9.782,0.125-19.982,0.136-29.815c0.02-18.901-0.063-37.861,1.514-56.619
	c0.684-8.14-0.015-16.596-0.061-24.775c-0.012-2.135-0.02-4.274-0.03-6.415c1.105-7.674,0.057-15.559,0.944-23.242
	c0.726-6.301,1.378-13.124,0.831-19.446c-0.704-8.143,0.945-16.722,0.835-24.949c-0.058-4.344-0.644-9.211,0.268-13.503
	c0.671-3.159,1.489-3.978,4.579-5.407c0.104-0.048,0.199-0.092,0.295-0.137c0.074,1.426,0.125,2.854,0.12,4.285
	c-0.002,0.729-0.008,1.451-0.008,2.169c-0.054,0.984-0.11,1.969-0.182,2.961c-0.744,10.289-0.164,20.717-0.217,31.027
	c-0.102,19.997-1.821,39.91-1.844,59.963C193.693,325.01,193.538,334.689,192.748,344.443z M205.15,204.907
	c-0.095,10.53-0.664,20.947-0.248,31.489c-2.332,32.634-2.522,65.456-2.602,98.216c-0.046,18.839,0.422,37.637,0.452,56.455
	c0.029,18.217-1.657,36.265-1.701,54.514c-0.046,19.107-0.895,37.983,0.321,57.042c-1.189-0.148-2.572-0.488-3.282-0.505
	c-1.114-0.027-2.2,0.053-3.293,0.157c0.254-3.352,0.189-6.714,0.521-10.064c0.459-4.617,0.491-9.348,0.674-13.995
	c0.395-10.053,0.614-20.137,0.63-30.193c0.017-11.225,0-22.451-0.006-33.675c-0.004-9.307,0.549-18.51,0.545-27.773
	c-0.003-11.578-0.022-23.156-0.027-34.733c-0.003-9.989,1.192-19.875,1.103-29.857c-0.095-10.68,0.861-21.325,0.451-31.992
	c-0.175-4.565,0.833-8.977,0.673-13.571c-0.19-5.452,0.454-10.743,0.423-16.185c-0.047-8.087-0.105-16.159-0.062-24.228
	c2.317-2.386,1.928-6.354,1.766-9.447c-0.27-5.136,0.352-10.24-0.036-15.368c-0.503-6.653,0.111-13.447-0.028-20.141
	c-0.043-2.032-1.281-7.232-0.168-8.878c0.828-1.225,2.847-2.252,4.556-3.259C205.695,187.609,205.229,196.194,205.15,204.907z
	 M294.328,125.067c1.161,4.165,1.807,8.43,2.788,12.644c-2.361-0.122-4.791,0.102-7.162,0.27c-0.49-6.391-0.522-12.823-1.022-19.192
	c-0.139-1.773,0.022-4.018-0.358-5.989c0.238,0.364,0.481,0.751,0.739,1.133c1.059,1.573,1.968,2.899,3.172,4.39
	C293.09,120.57,293.7,122.816,294.328,125.067z M286.183,95.478c1.347,4.54,2.59,9.071,3.814,13.607
	c-2.032-2.186-4.282-3.199-6.515-1.097c-1.134,1.067-2.03,2.133-2.741,3.224c-0.183-3.62-0.987-7.258-0.937-10.882
	c0.042-3.014-0.522-5.947-0.689-8.953c-0.092-1.654-0.688-4.696-0.093-6.645c2.455,1.997,3.847,5.643,6.306,7.957
	C285.616,93.615,285.904,94.542,286.183,95.478z M285.116,111.813c0.243-0.258,0.47-0.445,0.686-0.577
	c0.283,2.889-0.263,6.155-0.042,9.005c0.462,5.962,0.672,11.902,0.236,17.899c-1.636,0.012-3.29,0.009-4.951-0.019
	C283.22,129.776,278.833,118.476,285.116,111.813z M274.662,67.016c-0.007-0.373-0.006-0.752-0.002-1.136
	c0.092,0.189,0.177,0.382,0.27,0.57c2.735,5.536,5.11,11.137,7.218,16.863c-0.91-1.007-1.867-1.832-2.87-2.326
	c-0.665-0.328-1.454-0.291-2.004,0.258c-0.916,0.916-1.453,2.2-1.752,3.643c-0.251-0.568-0.503-1.133-0.738-1.692
	c-0.431-1.019-0.802-2.077-1.159-3.146C275.132,75.864,274.746,71.409,274.662,67.016z M278.024,138.044
	c-0.571-0.017-1.152-0.024-1.716-0.044c-0.509-0.018-1.04-0.019-1.579-0.013c-0.085-8.995,0.8-18.17-0.434-27.081
	c1.564,2.171,3.37,5.762,4.153,6.832c-0.163,1.323-0.213,2.724-0.192,4.239C278.322,126.784,276.732,133.217,278.024,138.044z
	 M271.289,123.732c-0.607,4.69-0.321,9.57-0.359,14.316c-1.017,0.002-2.028-0.034-3.008-0.134c-0.484-0.082-0.968-0.155-1.458-0.22
	c-0.199-0.039-0.403-0.071-0.597-0.119c-0.001-3.779,0.007-7.418,0.512-11.162c0.485-3.587-0.488-7.17-0.146-10.714
	c0.168-1.742,3.023-6.182,5.518-6.518C271.417,114.031,271.922,118.848,271.289,123.732z M269.673,105.773
	c-0.114-5.761-0.343-11.464,0.295-17.211c0.273-2.459-0.406-6.223-0.3-9.46c1.584,4.382,2.818,8.824,5.688,12.723
	c0.092,1.084,0.203,2.09,0.281,2.925c0.447,4.795,1.112,9.942,1.38,14.899c-0.785-1.364-1.582-3.402-2.782-4.236
	C272.734,104.368,271.126,104.855,269.673,105.773z M265.355,44.627c0.816,2.261,1.928,4.479,2.784,6.485
	c1.031,2.413,2.048,4.837,3.09,7.25c-0.399,4.321-0.891,9.226-0.638,13.86c-0.789-0.812-2.19-0.452-2.836,0.429
	c-0.836,1.14-1.247,2.447-1.428,3.834c-0.504-1.203-1.073-2.37-1.373-3.398c-0.272-0.93-0.654-1.793-1.051-2.647
	c0.004-0.019,0.018-0.034,0.021-0.054c0.996-4.941,0.189-10.692,0.153-15.773c-0.027-3.807,0.003-7.59-0.211-11.363
	C264.341,43.749,264.831,44.221,265.355,44.627z M261.552,75.037c0.676,2.558,2.032,4.803,3.104,7.162
	c0.382,0.842,0.726,1.697,0.992,2.588c1.171,3.932,0.766,8.158,0.366,12.171c-0.362,3.633-0.168,7.409-0.16,11.058
	c0.001,0.301,0.061,0.554,0.15,0.779c-0.865,0.789-1.534,1.478-2.052,2.144c-0.855-2.296-1.597-4.66-2.643-6.876
	c-0.797-1.689-1.997-3.141-2.699-4.869c-0.587-1.449-0.902-2.88-1.664-4.259c-0.301-0.544-0.876-0.865-1.477-0.922
	c-0.066-2.349-0.343-4.742-0.34-6.986c0.004-2.428-0.295-4.809-0.487-7.202c0.947-1.793,2.034-3.503,2.841-5.395
	c0.696-1.632,1.229-3.468,1.863-5.229c0.046,0.144,0.094,0.283,0.15,0.413C260.293,71.46,261.036,73.086,261.552,75.037z
	 M255.961,117.529c-0.085-5.064,0.186-10.273-0.196-15.37c0.92,1.78,2.034,3.356,2.75,5.303c1.082,2.942,1.695,5.667,3.507,8.222
	c0.096,0.136,0.205,0.247,0.32,0.343c-0.019,0.826,0.008,1.757,0.062,2.857c0.301,6.117-0.449,12.262-0.542,18.425
	c-1.794-0.074-3.59-0.07-5.364-0.031C256.913,130.68,256.072,124.12,255.961,117.529z M253.066,31.745
	c0.406-0.5,0.442-0.853,0.552-1.047c0.6,0.498,1.159,1.115,1.688,1.655c1.532,1.562,2.992,3.16,4.234,4.963
	c0.467,0.678,0.833,1.473,1.241,2.227c-0.578,5.297-0.494,10.618-0.523,15.964c-0.013,2.425-0.212,4.916-0.172,7.367
	c-0.764-0.239-1.682,0.166-2.127,0.824c-1.5,2.214-2.369,4.951-3.268,7.58c-0.055-1.46-0.36-2.824-1.268-3.78
	c-0.025-1.017-0.127-2.048-0.251-3.139c-0.405-3.545-0.26-7.097-0.656-10.641c-0.695-6.216-0.281-12.49-1.564-18.613
	C251.613,33.862,252.324,32.657,253.066,31.745z M249.634,115.403c0.736-0.938,1.79-2.711,1.856-2.852
	c0.407-0.869,0.772-1.775,1.115-2.692c0.006,2.58,0.063,5.152,0.067,7.671c0.012,6.518,0.083,13.328,0.585,19.851
	c-0.356,0.015-0.717,0.027-1.069,0.043c-0.688,0.029-1.367,0.09-2.046,0.149c-0.075-6.251-0.851-12.484-0.546-18.687
	C249.664,117.498,249.691,116.373,249.634,115.403z M251.097,76.781c0.003,2.557,0.017,4.97,0.058,5.333
	c0.587,5.132-0.474,10.602,0.847,15.627c-0.338,1.051-0.57,2.144-0.818,3.072c-0.822,3.086-2.346,6.651-3.156,10.1
	c-0.516-0.66-1.178-1.341-2.033-2.12c0.091-0.224,0.15-0.478,0.15-0.779c0.013-6.433-0.117-12.717-0.53-19.087
	c0.086-0.082,0.167-0.175,0.229-0.295C247.726,84.947,249.597,80.889,251.097,76.781z M240.71,123.732
	c-0.633-4.884-0.128-9.701-0.461-14.55c2.496,0.336,5.35,4.777,5.518,6.518c0.342,3.544-0.631,7.126-0.146,10.714
	c0.506,3.743,0.514,7.383,0.512,11.162c-1.573,0.395-3.316,0.477-5.063,0.472C241.031,133.302,241.317,128.424,240.71,123.732z
	 M242.45,54.428c0.469-1.106,0.938-2.213,1.409-3.317c1.067-2.498,2.531-5.329,3.323-8.16c0.514-1.184,1.047-2.369,1.619-3.547
	c0.031,0.474,0.065,0.956,0.098,1.464c0.243,3.868-0.647,7.601-0.189,11.494c0.63,5.336,0.033,11.046,0.828,16.406
	c-0.968,3.291-2.476,6.528-3.743,9.814c0.008-2.16-0.303-4.23-1.552-5.933c-0.294-0.402-0.746-0.687-1.225-0.81
	c0.029-2.977-0.349-6.082-0.379-8.666c-0.024-2.023,0.46-5.11-0.445-7.232C242.286,55.438,242.376,54.934,242.45,54.428z
	 M242.33,79.101c0.107,3.237-0.572,7.002-0.3,9.46c0.637,5.746,0.41,11.45,0.295,17.211c-1.453-0.918-3.061-1.404-4.562-0.36
	c-1.2,0.834-1.996,2.871-2.782,4.236c0.267-4.956,0.932-10.103,1.38-14.899c0.077-0.835,0.19-1.84,0.281-2.925
	C239.512,87.925,240.746,83.481,242.33,79.101z M237.269,137.987c-0.539-0.004-1.069-0.004-1.579,0.013
	c-0.563,0.02-1.146,0.027-1.716,0.044c1.292-4.827-0.298-11.26-0.232-16.066c0.021-1.515-0.029-2.916-0.192-4.239
	c0.783-1.07,2.589-4.662,4.153-6.832C236.469,119.817,237.356,128.992,237.269,137.987z M237.068,66.45
	c0.8-1.62,1.555-3.263,2.297-4.914c-0.154,2.498-0.32,4.907-0.321,5.152c-0.018,3.278-0.618,7.097,0.337,10.303
	c-0.699,2.084-1.325,4.216-2.166,6.205c-0.237,0.56-0.487,1.124-0.738,1.692c-0.298-1.443-0.836-2.727-1.752-3.643
	c-0.55-0.55-1.339-0.586-2.004-0.258c-1.003,0.494-1.96,1.321-2.87,2.326C231.958,77.587,234.335,71.986,237.068,66.45z
	 M225.816,95.478c0.277-0.936,0.567-1.863,0.855-2.791c2.46-2.314,3.851-5.959,6.306-7.957c0.595,1.949-0.001,4.991-0.093,6.645
	c-0.166,3.006-0.73,5.938-0.689,8.953c0.05,3.624-0.754,7.262-0.937,10.882c-0.711-1.09-1.607-2.156-2.741-3.224
	c-2.233-2.102-4.483-1.088-6.515,1.097C223.226,104.55,224.471,100.018,225.816,95.478z M226.198,111.236
	c0.214,0.131,0.442,0.319,0.686,0.577c6.284,6.663,1.895,17.963,4.071,26.309c-1.661,0.027-3.315,0.03-4.951,0.019
	c-0.437-5.995-0.227-11.937,0.236-17.899C226.46,117.391,225.915,114.125,226.198,111.236z M217.672,125.067
	c0.627-2.252,1.237-4.498,1.842-6.743c1.204-1.49,2.113-2.815,3.172-4.39c0.258-0.384,0.502-0.771,0.739-1.133
	c-0.38,1.969-0.218,4.216-0.358,5.989c-0.5,6.368-0.532,12.8-1.022,19.192c-2.371-0.168-4.801-0.393-7.162-0.27
	C215.865,133.498,216.51,129.234,217.672,125.067z M212.808,146.864c0.36-1.739,0.744-3.467,1.146-5.194
	c2.161,0.369,4.401,0.497,6.496,0.612c3.932,0.215,7.649,0.719,11.623,0.658c4.69-0.073,9.589-0.11,14.262-0.512
	c1.039-0.09,2.367-0.185,3.41-0.597c1.125-0.043,2.246-0.076,3.36-0.086c4.144-0.039,8.052,0.369,12.155,0.714
	c1.793,0.15,3.4,0.32,4.981,0.249c3.235,0.141,6.507,0.182,9.687,0.232c3.973,0.062,7.692-0.442,11.623-0.658
	c2.095-0.114,4.335-0.242,6.496-0.612c0.402,1.726,0.785,3.454,1.146,5.194c0.104,0.505,0.433,1.552,0.558,2.272
	c-0.017,0.004-0.03,0.003-0.049,0.011c-0.31,0.127-0.574,0.288-0.796,0.475c-1.398,0.026-2.724,0.007-3.296,0.058
	c-3.873,0.348-7.681,0.289-11.565,0.231c-3.282-0.049-6.461,0.243-9.617,0.713c-3.128-0.212-6.35,0.389-9.466,0.338
	c-5.245-0.088-10.275-0.122-15.572-0.068c-4.135,0.042-8.204-0.191-12.305-0.34c-2.995-0.426-6.013-0.689-9.126-0.642
	c-3.885,0.058-7.692,0.117-11.565-0.231c-0.57-0.052-1.897-0.033-3.296-0.058c-0.221-0.186-0.485-0.348-0.796-0.475
	c-0.019-0.008-0.033-0.007-0.05-0.011C212.374,148.416,212.703,147.369,212.808,146.864z M264.806,504.945
	c-3.419,0.066-6.78,0.061-10.257-0.192c-4.326-0.313-8.867,0.189-13.144-0.475c-0.292-0.045-0.779-0.156-1.111-0.15
	c0.259-1.72,0.219-3.462,0.169-5.264c-0.108-3.985,0.232-7.617,0.506-11.582c0.311-4.501,0.808-8.978,1.272-13.461
	c2.83,0.546,6.252,0.222,8.332,0.243c4.545,0.049,9.735,1.1,14.256-0.075c-0.088,4.369-0.215,8.733-0.189,13.097
	C264.677,492.951,264.131,499.09,264.806,504.945z M264.882,470.229c-7.45-0.729-14.849-0.489-22.258-0.322
	c0.196-2.071,0.387-4.144,0.554-6.216c3.209,0.762,8.161,0.186,9.708,0.222c3.448,0.08,8.435,0.794,12-0.236
	c0.007,1.304,0.019,2.607,0.02,3.91C264.907,468.469,264.891,469.348,264.882,470.229z M256.217,459.108
	c-1.516,0.029-3.078,0.091-4.617,0.169c0.236-2.914-0.302-5.888-0.279-8.822c0.027-3.633,0.097-7.27,0.122-10.91
	c0.027-3.723-0.159-7.425-0.41-11.153c-0.004-0.065-0.006-0.134-0.01-0.2c0.096-2.006,0.193-4.014,0.258-6.022
	c0.166-5.033,0.71-11.781,2.442-17.353c0.355,1.097,0.597,1.941,0.689,2.3c1.752,6.843,3.252,14.035,3.297,21.118
	c0.038,5.954-0.426,11.798-0.822,17.728C256.633,449.757,255.122,455.18,256.217,459.108z M252.267,393.593
	c-1.169-1.465-3.39-2.811-5.318-2.875c0.288-0.601,0.627-1.176,1.026-1.72c1.957-2.671,4.065-5.138,6.032-7.708
	c0.314-0.206,0.634-0.399,0.968-0.56c0.352-0.169-0.232-1.371,1.555,1.072c0.524,0.716,0.902,1.564,1.286,2.359
	c1.123,2.32,2.334,4.549,3.558,6.819c-1.033,0.664-2.852,1.693-3.21,2.028c-1.368,1.277-2.62,2.63-3.7,4.124
	C253.842,395.861,253.123,394.665,252.267,393.593z M252.335,400.944c-2.199,5.236-2.74,11.896-3.133,17.393
	c-0.479,6.699-0.806,13.503-0.816,20.212c0,0.329-0.008,0.661-0.01,0.991c-0.062,0.815-0.118,1.629-0.159,2.445
	c-0.294,5.828-0.872,11.705-0.137,17.519c-1.746,0.146-3.354,0.33-4.634,0.567c0.525-7.176,0.911-14.359,1.193-21.54
	c0.438-11.173,0.343-22.381,0.628-33.569c0.093-3.667-0.178-7.919,0.761-11.635C248.269,392.213,250.672,396.746,252.335,400.944z
	 M264.611,429.383c0.002,9.952,0.171,19.902,0.25,29.862c-1.11-0.094-2.878-0.15-4.951-0.163c0.944-2.859,0.673-6.618,0.651-9.561
	c-0.016-2.024,0.092-4.084-0.072-6.103c0.221-2.331,0.453-4.663,0.53-7.004c0.275-8.369-0.386-16.329-2.275-24.494
	c-0.853-3.687-1.626-7.964-3.035-11.858c0.088-0.156,0.168-0.32,0.259-0.471c1.665-2.777,4.121-4.486,6.389-6.659
	c2.434,5.457,2.227,11.445,2.507,17.387C265.165,416.678,264.61,423.033,264.611,429.383z M285.672,488.468
	c0.053,4.795-0.676,9.954-0.205,14.787c-0.711,0.03-1.424,0.044-2.134,0.088c-3.246,0.201-8.155-0.631-11.068,1.28
	c-0.798,0.046-1.586,0.101-2.358,0.149c-1.051-7.204-0.243-15.386,0.056-22.607c0.333-8.021,0.136-16.095,0.14-24.128
	c0.009-13.916-0.016-27.784,0.002-41.693c0.009-6.293,0.199-12.982-0.793-19.207c-0.911-5.714-4.515-11.509-7.552-16.343
	c-1.618-2.574-4.863-6.559-8.259-4.533c-1.893,1.13-3.584,4.019-4.954,6.046c-0.935,1.147-1.814,2.273-2.645,3.21
	c-2.822,3.186-3.77,6.138-4.235,10.282c-1.38,12.294-1.524,25.043-1.779,37.403c-0.232,11.271-1.842,22.44-2.643,33.671
	c-0.419,5.876-1.296,11.702-1.669,17.577c-0.399,6.313-0.119,12.64-0.359,18.93c-2.27-0.148-4.685,0.077-6.551-0.038
	c-0.71-0.044-1.423-0.057-2.134-0.088c0.47-4.833-0.258-9.993-0.205-14.787c0.079-7.087-0.957-14.116-0.715-21.253
	c0.415-12.241,1.679-24.484,1.584-36.773c-0.047-6.284,0.31-12.443,0.789-18.695c0.505-6.59,0.291-13.314,2.313-19.696
	c1.95-6.157,6.243-11.157,9.564-16.571c1.609-2.625,3.404-5.155,5.168-7.676c0.343-0.49,0.677-1.038,1.01-1.603
	c4.608-5.991,9.832-12.353,14.146-7.033c5.058,6.239,8.197,14.234,13.546,20.242c0.22,0.617,0.441,1.208,0.684,1.712
	c1.431,2.975,3.26,5.728,4.92,8.568c1.413,2.415,2.554,4.829,3.521,7.297c0.801,4.864,0.78,9.85,1.157,14.761
	c0.479,6.252,0.836,12.413,0.789,18.695c-0.094,12.288,1.169,24.531,1.584,36.773C286.629,474.353,285.595,481.381,285.672,488.468z
	 M302.746,503.25c-0.026,0-0.052-0.001-0.077-0.002c-3.253-0.055-6.522-0.131-9.789-0.143c-0.126-0.295-0.3-0.564-0.531-0.798
	c-0.265-2.818,0.193-5.925,0.172-8.666c-0.03-3.945-0.209-7.76,0.214-11.683c0.64-5.918,0.539-12.343-0.037-18.267
	c-1.345-13.849-0.641-27.844-1.72-41.724c-0.941-12.11-0.659-25.759-6.66-36.683c-3.006-5.474-7.022-10.306-10.767-15.267
	c-0.969-1.768-2.065-3.467-3.068-5.092c-2.472-4.004-4.881-9.137-8.933-11.726c-8.308-5.31-15.491,4.185-19.98,12.479
	c-1.07,1.474-2.068,2.939-3.016,4.199c-3.775,5.011-7.839,9.883-10.874,15.409c-6.001,10.924-5.718,24.574-6.66,36.683
	c-1.079,13.881-0.375,27.875-1.72,41.724c-0.576,5.924-0.676,12.349-0.037,18.267c0.423,3.923,0.245,7.738,0.214,11.683
	c-0.02,2.742,0.436,5.848,0.172,8.666c-0.232,0.233-0.406,0.503-0.531,0.798c-3.268,0.011-6.536,0.086-9.789,0.143
	c-0.026,0-0.052,0.001-0.077,0.002c-1.11-16.814-0.404-33.381-0.412-50.224c-0.004-9.591,0.728-19.215,0.452-28.79
	c-0.256-8.867,1.284-17.836,1.212-26.764c-0.151-18.861-0.612-37.672-0.658-56.545c-0.046-18.931,0.491-37.826,0.422-56.728
	c-0.042-11.263-0.033-22.549-0.65-33.798c-0.003-0.057-0.004-0.114-0.008-0.172c0.456-4.455,0.784-8.923,0.974-13.511
	c0.454-10.965-0.129-21.814-0.242-32.766c-0.096-9.421,0.479-18.724,0.424-28.173c-0.029-5.145-0.082-10.282-0.31-15.423
	c-0.084-1.885,0.095-3.795,0.091-5.661c2.552,0.848,5.881,1.069,7.694,1.279c6.193,0.716,12.46,0.806,18.657,0.286
	c4.578,0.25,9.218,0.121,13.591,0.157c6.709,0.056,13.607,0.522,20.21-0.623c7.617,1.008,15.393,1.065,23.054,0.18
	c1.812-0.21,5.143-0.431,7.693-1.279c-0.004,1.866,0.175,3.776,0.091,5.661c-0.229,5.141-0.281,10.277-0.31,15.423
	c-0.055,9.448,0.522,18.75,0.424,28.173c-0.113,10.953-0.697,21.801-0.242,32.766c0.19,4.588,0.518,9.056,0.974,13.511
	c-0.002,0.057-0.004,0.114-0.008,0.172c-0.617,11.249-0.608,22.535-0.65,33.798c-0.07,18.902,0.469,37.797,0.422,56.728
	c-0.046,18.871-0.506,37.683-0.658,56.545c-0.071,8.93,1.468,17.897,1.212,26.764c-0.276,9.576,0.457,19.2,0.452,28.79
	C303.15,469.869,303.855,486.437,302.746,503.25z M313.91,502.118c-0.71,0.017-2.094,0.357-3.283,0.505
	c1.217-19.059,0.367-37.935,0.321-57.042c-0.044-18.248-1.73-36.297-1.701-54.514c0.029-18.818,0.498-37.616,0.452-56.455
	c-0.08-32.759-0.27-65.582-2.602-98.216c0.416-10.543-0.154-20.961-0.248-31.489c-0.079-8.713-0.544-17.298-0.659-25.991
	c1.709,1.007,3.728,2.033,4.556,3.259c1.113,1.646-0.126,6.846-0.168,8.878c-0.139,6.693,0.475,13.488-0.028,20.141
	c-0.387,5.129,0.235,10.232-0.036,15.368c-0.163,3.091-0.552,7.061,1.765,9.447c0.044,8.069-0.015,16.141-0.062,24.228
	c-0.031,5.441,0.613,10.732,0.423,16.185c-0.159,4.594,0.848,9.006,0.673,13.571c-0.41,10.667,0.545,21.311,0.451,31.992
	c-0.089,9.982,1.106,19.868,1.103,29.857c-0.004,11.578-0.024,23.156-0.027,34.733c-0.003,9.263,0.551,18.467,0.545,27.773
	c-0.007,11.225-0.022,22.451-0.006,33.675c0.015,10.055,0.235,20.139,0.63,30.193c0.183,4.647,0.214,9.377,0.674,13.995
	c0.333,3.351,0.267,6.714,0.521,10.064C316.11,502.171,315.025,502.091,313.91,502.118z M327.012,502.724
	c-1.694,0.009-3.388-0.001-5.08-0.073c-0.582-4.703-0.449-9.74-0.727-14.404c-0.337-5.648-0.566-11.321-0.569-16.978
	c-0.007-11.54-0.573-23.043-0.58-34.608c-0.006-10.464-0.079-20.929-0.018-31.392c0.053-9.03-0.571-17.943-0.577-26.998
	c-0.007-11.197,0.692-22.666-0.212-33.827c-0.79-9.754-0.945-19.434-0.956-29.221c-0.022-20.053-1.742-39.966-1.844-59.963
	c-0.053-10.31,0.527-20.739-0.217-31.027c-0.072-0.992-0.128-1.977-0.182-2.961c0.001-0.718-0.004-1.44-0.008-2.169
	c-0.004-1.432,0.045-2.859,0.12-4.285c0.096,0.045,0.191,0.089,0.295,0.137c3.09,1.43,3.908,2.249,4.579,5.407
	c0.912,4.292,0.327,9.159,0.268,13.503c-0.11,8.228,1.538,16.807,0.835,24.949c-0.546,6.323,0.105,13.145,0.831,19.446
	c0.885,7.683-0.163,15.568,0.944,23.242c-0.011,2.141-0.019,4.281-0.03,6.415c-0.046,8.179-0.745,16.636-0.061,24.775
	c1.577,18.758,1.493,37.718,1.514,56.619c0.01,9.833-0.793,20.033,0.136,29.815c0.826,8.703,0.986,17.55,0.944,26.293
	c-0.044,9.157,0.601,18.425,0.599,27.655C327.018,482.956,327.016,492.84,327.012,502.724z M331.971,502.693
	c-0.031-19.106-0.245-38.249-0.613-57.275c-0.16-8.304,0.118-16.798-0.785-25.059c-1.112-10.18-0.31-20.801-0.325-31.048
	c-0.018-10.589,0.693-21.484-0.15-32.04c-0.621-7.769-0.164-15.807-1.113-23.52c-1.366-11.094-1.046-22.378-0.931-33.661
	c1.247-5.458,1.171-11.116,0.84-16.761c1.102,0.55,2.23,1.05,3.355,1.545c3.862,1.697,4.189,4.183,3.836,8.152
	c-0.478,5.366-0.978,10.344-1.013,15.774c-0.037,5.818,0.61,11.6,0.864,17.421c0.132,3.038,0.117,6.136,0.355,9.189
	c0.137,5.048,0.33,10.101,0.726,15.108c0.304,3.841-0.423,7.778-0.132,11.632c0.336,4.469,0.576,8.705,0.53,13.23
	c-0.102,10.195-0.003,20.399,0.029,30.595c0.058,18.245-0.784,36.398-0.92,54.604c-0.052,7.012-0.696,13.754,0.239,20.79
	c0.904,6.806,2.049,14.459,1.927,21.516C336.45,502.768,334.212,502.694,331.971,502.693z M349.516,370.524
	c-0.048,16.076-0.064,32.154-0.062,48.23c0.004,28.297,0.195,56.572-1.433,84.758c-1.65-0.125-3.299-0.249-4.95-0.362
	c0.165-2.765-0.534-5.605-0.671-8.356c-0.194-3.912-0.205-7.821-0.467-11.707c-0.219-3.257-0.949-6.551-1.096-9.849
	c-0.169-3.792,0.587-7.451,0.756-11.197c0.21-4.651-0.231-9.085,0.333-13.742c0.506-4.178,0.284-8.365,0.177-12.57
	c-0.232-9.147,0.73-18.372,0.76-27.57c0.033-10.199-0.001-20.396,0.036-30.595c0.031-8.513-0.471-16.83-0.557-25.313
	c-0.039-3.9-0.674-7.731-0.719-11.658c-0.01-0.874-0.007-1.75-0.001-2.627c0.947-5.563,0.827-11.632,0.812-17.037
	c0.024,0.008,0.046,0.012,0.071,0.02c1,0.323,3.788,0.432,4.598,0.906c2.359,1.378,1.474,3.904,1.37,6.09
	c-0.35,7.368-0.171,15.208,1.262,22.555C349.61,357.173,349.536,363.85,349.516,370.524z M363.463,504.348
	c-2.133-0.055-4.261-0.127-6.374-0.232c-1.363-0.067-2.727-0.154-4.09-0.245c1.137-12.278,1.394-24.84,1.417-37.137
	c0.031-16.357,0.004-32.714,0.007-49.069c0.002-16.447,0.033-32.897-0.065-49.343c-0.035-5.882-0.129-11.763-0.233-17.643
	c0.601-2.962,0.982-5.945,1.048-8.969c0.114,0.012,0.227,0.026,0.347,0.038c3.711,0.365,6.003,1.744,6.375,5.881
	c0.414,4.602-0.189,9.408-0.223,14.026c-0.045,5.936-0.284,11.91,0.092,17.837c0.245,3.865-0.091,7.185,1.347,10.414
	c-0.2,5.444-0.735,10.772-0.687,16.25c0.061,6.924,0.521,13.81,0.521,20.763c-0.002,14.183-0.004,28.367-0.007,42.55
	c-0.001,6.528,0.174,12.959,0.499,19.471C363.676,493.728,364.191,499.415,363.463,504.348z M368.417,504.435
	c0.588-4.449,0.122-9.304,0.018-13.594c-0.156-6.417-0.563-12.78-0.564-19.214c-0.001-14.56-0.004-29.121-0.007-43.681
	c-0.001-7.322-0.322-14.505-0.603-21.791c-0.245-6.38,0.491-12.64,0.359-19.043c-0.02-0.982-0.038-1.96-0.057-2.94
	c0.129-0.589,0.238-1.186,0.292-1.803c0.314-3.679,0.254-7.405,0.229-11.094c-0.004-0.715,0.001-1.43,0-2.144
	c0.021,0.009,0.037,0.018,0.058,0.028c1.055,0.475,2.606,0.525,3.522,1.048c3.481,1.983,1.35,9.198,1.243,12.518
	c-0.229,7.121-1.956,15.366,0.444,22.214c-0.009,0.432-0.022,0.861-0.031,1.293c-0.24,11.872-0.518,23.754-0.57,35.628
	c-0.047,10.99,0.781,21.912,0.812,32.926c0.029,9.868-0.399,19.88,0.619,29.7C372.263,504.473,370.34,504.461,368.417,504.435z
	 M383.846,504.551c-1.616-0.013-3.245-0.021-4.871-0.03c0.163-4.217-0.485-8.385-0.463-12.657c0.03-6.023,0.035-12.046,0.053-18.069
	c0.031-10.689-0.82-21.281-0.766-31.934c0.061-11.91,0.138-23.794-0.098-35.703c0.938-4.631,0.718-9.251,0.982-13.974
	c0.713,0.379,1.442,0.661,1.882,0.835c2.179,0.858,3.646,0.347,4.437,2.698c0.846,2.512-0.081,6.707-0.348,9.254
	c-0.601,5.759-0.096,11.147,0.249,16.861c0.241,4.003-0.912,7.342,0.587,10.79c-0.033,6.968-0.064,13.936-0.202,20.902
	c-0.08,4.018-0.894,7.915-0.693,11.949c0.219,4.402,0.957,8.613,0.811,13.042c-0.284,8.639,0.184,17.397,0.56,26.055
	L383.846,504.551z M397.273,439.419c0.007,2.334-0.092,4.716,0.387,6.948c-0.226,4.496-0.468,8.989-0.515,13.497
	c-0.156,14.943-0.981,29.853-0.506,44.795l-5.818-0.049c0.228-8.431-0.641-16.75-0.329-25.142c0.166-4.493-0.345-8.611-0.683-13.062
	c-0.311-4.083,0.647-7.986,0.614-12.047c-0.062-7.481-0.137-14.962-0.202-22.444c1.212-4.075,0.98-9.469,0.516-13.208
	c-0.529-4.265-0.324-8.446-0.136-12.646c0.609,0.303,1.224,0.583,1.838,0.759c1.165,0.333,3.328-0.143,4.249,0.467
	c1.884,1.247,0.569,11.417,0.57,14.247C397.264,427.495,397.255,433.457,397.273,439.419z M414.495,466.623
	c-1.424,12.453-0.711,25.606-0.481,38.174c-0.821-0.006-1.643-0.004-2.464-0.011l-10.047-0.085
	c0.553-14.94,0.765-29.888,0.608-44.837c-0.034-3.232,0.025-6.457,0.092-9.679c0.001-0.003,0.003-0.004,0.004-0.007
	c2.231-4.571,0.899-12.048,0.902-17.054c0.003-4.062-0.002-8.124-0.003-12.186c0.9,0.566,1.927,0.928,3.057,1.041
	c2.658,0.265,6.133-0.726,7.38,2.839c0.67,1.917-0.015,5.268-0.022,7.308c-0.035,9.594-1.865,21.581,1.277,30.955
	C414.721,464.266,414.629,465.448,414.495,466.623z M431.196,504.843c-4.099-0.006-8.199-0.008-12.298-0.025
	c0.191-12.872-0.479-25.821,0.375-38.625c0.226-3.38,0.197-6.804,0.099-10.229c0.259-3.677,0.084-7.434,0.072-11.011
	c-0.012-3.639,0.173-7.406,0.246-11.162c4.474,1.936,10.116,0.672,10.973,6.892c0.616,4.472-0.907,10.016-0.861,14.631
	c0.049,5.001,0.229,10.159,0.834,15.114c0.175,1.436,0.34,2.907,0.764,4.234C431.041,484.663,429.708,494.937,431.196,504.843z
	 M445.667,458.557c-0.126,8.756-2.485,17.842,0.279,26.278c-0.037,3.117-0.054,6.234,0.025,9.347
	c0.093,3.628-0.557,7.203-0.45,10.788c-1.675-0.061-3.347-0.107-5.011-0.109c-1.403-0.001-2.804-0.007-4.206-0.008
	c0.036-9.014,0.116-18.058,0.011-27.099c0.187-0.264,0.312-0.579,0.325-0.937c0.166-4.478-0.102-9.179-0.617-13.66
	c-0.092-4.41-0.176-8.819-0.307-13.226c0.098-1.623,0.219-3.244,0.347-4.863c1.037,0.461,2.097,0.811,3.253,1.047
	c1.721,0.35,4.079-0.156,5.604,0.781c1.363,0.119,1.623,0.187,0.779,0.204c-0.011,1.305-0.016,2.61-0.013,3.916
	C445.678,453.529,445.702,456.044,445.667,458.557z M458.715,455.387c-0.192,2.013-0.117,4.034-0.24,6.05
	c-0.286,4.651-0.515,9.156-0.495,13.823c0.009,1.919-0.088,3.862,0.057,5.746c-0.145,2.526-0.252,5.053-0.293,7.556
	c-0.082,5.102-0.699,10.133-0.824,15.221c-0.013,0.56-0.012,1.14,0.028,1.707c-2.197-0.09-4.398-0.2-6.597-0.312
	c1.157-8.879,0.567-17.921,0.496-26.881c-0.026-3.324-0.09-6.645-0.172-9.968c0.01-0.265,0.019-0.531,0.03-0.796
	c0.258-5.918,0.516-11.774,0.476-17.697c2.222,1.827,4.613,2.13,7.355,3.305c0.177,0.033,0.333,0.058,0.471,0.077
	C458.911,453.944,458.812,454.666,458.715,455.387z M470.889,468.948c-0.045,5.141-1.142,12.367-0.044,18.111
	c-0.552,6.113-1.229,12.334-0.866,18.34c-0.923,0.062-1.838,0.118-2.723,0.158c-1.661,0.075-3.331,0.086-5.006,0.074
	c0.393-6.715,0-13.562,0.303-20.29c1.848-4.202,1.018-9.506,1-13.993c-0.018-4.3,0.378-8.573,0.697-12.849
	c1.196,0.698,2.494,0.73,4.028,1.285c2.317,0.839,2.345,0.191,2.602,3.104C471.057,464.905,470.907,466.922,470.889,468.948z
	 M485.89,491.63c-0.034,1.186-0.062,2.374-0.088,3.565c-0.037,1.686,0.579,4.926-0.123,6.322c-1.329,2.637-3.83,2.649-6.159,2.947
	c-1.406,0.18-2.886,0.342-4.38,0.493c0.163-5.121,0.497-10.247,0.705-15.376c1.391-4.125,0.63-9.06,0.633-13.334
	c0.003-3.891,0.328-7.943,0.139-11.889c2.571,0.819,4.984-0.036,7.855,0.776c1.582,0.448,1.171-0.209,1.628,1.568
	c0.367,1.427-0.274,3.628-0.402,5.098C485.203,477.474,483.848,485.719,485.89,491.63z"/>
<path d="M267.863,163.691c-6.911-5.948-17.194-6.238-23.295-0.742c-0.596,0.355-1.166,0.751-1.695,1.178
	c-2.291,1.853-4.38,4.933-5.628,7.581c-2.669,5.659-2.949,12.351,0.24,17.9c6.292,10.947,21.663,11.634,30.707,4.176
	C277.568,186.052,276.971,171.529,267.863,163.691z M262.552,191.8c-8.546,4.32-19.926,0.862-22.503-8.88
	c-1.293-4.889,0.651-9.699,3.557-13.613c1.954-2.63,4.459-3.821,6.948-5.379c0.223-0.071,0.434-0.155,0.667-0.214
	c5.607-1.448,10.98-0.274,15.006,4.053C273.163,175.221,271.935,187.057,262.552,191.8z"/>
<path d="M259.676,207.958c-2.402-0.817-7.603-1.165-9.881-0.01c-2.172,1.101-2.089,3.252-1.54,5.281
	c-0.539,2.993-0.744,5.941-0.802,9.098c-0.044,2.366-1.243,7.281,1.738,8.466c1.22,0.485,2.969,0.541,4.238,0.864
	c1.579,0.402,2.822,0.371,4.446,0.125c3.043-0.461,4.331-1.623,4.576-4.766c0.321-4.114-0.027-8.46-0.31-12.573
	C261.951,211.672,262.675,208.978,259.676,207.958z M259.138,225.98c-0.831,3.586-3.72,1.763-6.224,1.263
	c-0.444-0.089-1.25-0.049-1.773-0.132c-0.011-0.809-0.021-1.618-0.026-2.427c-0.061-4.061,0.127-8.575-0.573-12.688
	c0.307-0.879,0.818-1.1,2.656-1.123c0.921-0.011,5.417-0.093,5.444-0.061c0.189,0.228-0.059,2.253-0.022,2.686
	c0.127,1.486,0.352,2.915,0.45,4.402C259.23,220.349,259.691,223.593,259.138,225.98z"/>
<path d="M259.676,237.93c-2.402-0.817-7.603-1.165-9.881-0.01c-2.172,1.101-2.089,3.252-1.54,5.281
	c-0.539,2.993-0.744,5.941-0.802,9.098c-0.044,2.366-1.243,7.281,1.738,8.466c1.22,0.485,2.969,0.541,4.238,0.864
	c1.579,0.402,2.822,0.371,4.446,0.125c3.043-0.461,4.331-1.623,4.576-4.766c0.321-4.114-0.027-8.46-0.31-12.573
	C261.951,241.643,262.675,238.95,259.676,237.93z M259.138,255.952c-0.831,3.586-3.72,1.763-6.224,1.263
	c-0.444-0.089-1.25-0.049-1.773-0.132c-0.011-0.809-0.021-1.618-0.026-2.427c-0.061-4.061,0.127-8.575-0.573-12.688
	c0.307-0.879,0.818-1.1,2.656-1.123c0.921-0.011,5.417-0.093,5.444-0.062c0.189,0.228-0.059,2.253-0.022,2.686
	c0.127,1.486,0.352,2.915,0.45,4.402C259.23,250.322,259.691,253.566,259.138,255.952z"/>
<path d="M259.676,267.903c-2.402-0.817-7.603-1.165-9.881-0.01c-2.172,1.101-2.089,3.252-1.54,5.281
	c-0.539,2.993-0.744,5.942-0.802,9.098c-0.044,2.366-1.243,7.281,1.738,8.466c1.22,0.485,2.969,0.541,4.238,0.864
	c1.579,0.402,2.822,0.371,4.446,0.125c3.043-0.461,4.331-1.623,4.576-4.766c0.321-4.114-0.027-8.46-0.31-12.573
	C261.951,271.616,262.675,268.923,259.676,267.903z M259.138,285.925c-0.831,3.586-3.72,1.763-6.224,1.263
	c-0.444-0.089-1.25-0.051-1.773-0.132c-0.011-0.809-0.021-1.618-0.026-2.427c-0.061-4.061,0.127-8.575-0.573-12.688
	c0.307-0.879,0.818-1.1,2.656-1.123c0.921-0.011,5.417-0.093,5.444-0.061c0.189,0.228-0.059,2.253-0.022,2.686
	c0.127,1.486,0.352,2.915,0.45,4.402C259.23,280.294,259.691,283.538,259.138,285.925z"/>
<path d="M259.676,297.875c-2.402-0.817-7.603-1.165-9.881-0.01c-2.172,1.101-2.089,3.252-1.54,5.281
	c-0.539,2.993-0.744,5.942-0.802,9.098c-0.044,2.367-1.243,7.281,1.738,8.466c1.22,0.485,2.969,0.541,4.238,0.864
	c1.579,0.402,2.822,0.371,4.446,0.126c3.043-0.461,4.331-1.623,4.576-4.766c0.321-4.114-0.027-8.46-0.31-12.573
	C261.951,301.588,262.675,298.895,259.676,297.875z M259.138,315.897c-0.831,3.586-3.72,1.763-6.224,1.263
	c-0.444-0.089-1.25-0.049-1.773-0.132c-0.011-0.809-0.021-1.618-0.026-2.427c-0.061-4.061,0.127-8.575-0.573-12.688
	c0.307-0.879,0.818-1.1,2.656-1.123c0.921-0.011,5.417-0.093,5.444-0.061c0.189,0.228-0.059,2.253-0.022,2.686
	c0.127,1.486,0.352,2.915,0.45,4.402C259.23,310.266,259.691,313.51,259.138,315.897z"/>
<path d="M260.225,169.844c-2.187,2.595-5.153,5.792-6.57,9.028c-1.032,0.514-2.46,0.357-3.629,0.598
	c-1.743,0.359-3.417,0.971-5.176,1.302c-2.013,0.378-1.582,3.857,0.489,3.617c2.221-0.258,4.301-0.974,6.486-1.276
	c1.397-0.193,2.655-0.255,3.759-1.255c2.041-1.848,3.434-4.527,4.861-7.054c0.498-0.846,0.985-1.682,1.489-2.457
	c0.174-0.263,0.345-0.531,0.526-0.779C263.409,170.273,261.265,168.609,260.225,169.844z"/>
<g>
</g>
<g>
</g>
<g>
</g>
<g>
</g>
<g>
</g>
<g>
</g>
<g>
</g>
<g>
</g>
<g>
</g>
<g>
</g>
<g>
</g>
<g>
</g>
<g>
</g>
<g>
</g>
<g>
</g>
</svg>
