<?xml version="1.0" encoding="iso-8859-1"?>
<!-- Generator: Adobe Illustrator 19.0.0, SVG Export Plug-In . SVG Version: 6.00 Build 0)  -->
<svg version="1.1" id="Layer_1" xmlns="http://www.w3.org/2000/svg" xmlns:xlink="http://www.w3.org/1999/xlink" x="0px" y="0px"
	 viewBox="0 0 512.003 512.003" style="enable-background:new 0 0 512.003 512.003;" xml:space="preserve">
<path style="fill:#C65454;" d="M71.414,248.354c-0.456,0.533-0.985,1.016-1.485,1.509c-2.606,2.573-5.22,6.137-5.891,9.813
	c-0.7,3.837-3.128,7.2-3.62,11.302c-0.518,4.309-0.059,8.742,1.411,12.829c0.626,1.743,1.715,3.648,3.55,3.897
	c1.727,0.234,3.313-1.227,3.858-2.882c0.983-2.98-0.412-5.592-0.57-8.543c-0.19-3.516-0.03-7.195,1.635-10.38
	c1.302-2.49,4.002-4.653,6.727-3.962c1.345,0.341,2.452,1.331,3.218,2.487c3.849,5.806-0.421,14.091,2.498,20.415
	c0.983,2.13,3.238,4.011,5.503,3.401c1.597-0.43,2.681-1.996,3.029-3.612c0.348-1.616,0.097-3.294-0.155-4.928
	c0-6.072-2.507-12.167-2.817-18.236c-0.614-12.028,2.039-23.064,9.545-32.655c5.154-6.586,11.642-12.102,18.228-17.203
	c7.434-5.756,13.191-12.932,17.503-21.317c0.23-0.447,0.502-0.938,0.98-1.093c0.999-0.323,1.688,0.979,1.968,1.991
	c1.336,4.827,3.735,10.843,8.053,13.668c5.377,3.517,9.985,8.312,14.885,12.503c6.672,5.707,12.582,12.425,16.615,20.267
	c1.967,3.825,3.467,7.882,4.448,12.071c0.439,1.878,0.923,4.002,0.931,5.935c0.009,2.419-1.175,4.637-1.446,7.017
	c-0.252,2.219,0.366,4.433,0.586,6.656c0.289,2.912-0.109,5.846-0.034,8.772c0.075,2.924,0.709,6.002,2.696,8.15
	c1.987,2.148,5.629,2.939,7.885,1.075c1.982-1.638,2.237-4.53,2.339-7.098c0.646-16.119,1.683-32.221,1.021-48.284
	c-0.159-3.851,0.896-8.271,4.311-10.058c1.428-0.747,3.185-0.983,4.272-2.173c1.041-1.139,1.16-2.82,1.224-4.362
	c0.258-6.232,0.405-12.479,0.774-18.705c0.237-3.997,2.747-8.22,4.724-11.687c4.732-8.297,11.966-14.717,20.39-19.117
	c4.005-2.092,7.866-4.472,11.445-7.235c3.654-2.822,5.939-6.479,8.959-9.96c1.793-2.067,3.352-4.72,2.81-7.402
	c-0.396-1.959-1.829-3.515-2.816-5.253c-2.012-3.542-2.104-8.102-0.238-11.723c1.481-2.875,4.532-5.236,7.735-4.782
	c2.71,0.383,4.823,2.672,5.879,5.196c1.801,4.302,0.996,9.58-2.005,13.149c-1.049,1.249-2.398,2.41-2.673,4.018
	c-0.724,4.236,4.856,9.562,7.584,12.322c4.366,4.418,9.55,7.833,15.025,10.719c8.704,4.59,16.582,10.954,21.759,19.424
	c2.477,4.051,4.285,8.484,5.436,13.087c1.505,6.023,0.25,11.818-0.44,17.918c-0.132,1.169-0.235,2.46,0.453,3.416
	c0.754,1.048,2.168,1.308,3.347,1.836c6.871,3.083,6.031,14.58,5.591,20.632c-0.796,10.965-1.495,21.946-1.529,32.944
	c-0.009,2.798,0.037,5.658,0.983,8.29c0.947,2.632,2.969,5.039,5.685,5.708c3.567,0.879,7.364-1.591,8.866-4.944
	c1.574-3.512,0.364-6.444,0.34-10.006c-0.021-3.12,0.324-6.181,0.079-9.351c-1.42-18.228,6.311-32.343,19.338-44.17
	c4.283-3.888,9.47-7.604,12.792-12.28c3.886-5.47,7.729-10.968,11.594-16.453c0.384-0.545,0.812-1.123,1.447-1.325
	c1.504-0.48,2.647,1.331,3.247,2.792c2.458,5.98,6.063,11.479,10.532,16.148c4.78,4.994,10.612,8.523,15.65,13.26
	c7.315,6.881,13.542,15.194,16.326,24.961c1.276,4.479,2.248,9.95,1.736,14.61c-0.699,6.355-3.484,13.076-5.147,19.257
	c-0.616,2.29-1.06,5.165,0.784,6.657c1.341,1.085,3.429,0.827,4.787-0.238c1.357-1.064,2.092-2.747,2.479-4.429
	c0.622-2.694,0.487-5.494,0.539-8.257c0.054-2.763,0.326-5.619,1.663-8.039c1.337-2.42,3.975-4.304,6.721-3.995
	c2.352,0.265,4.335,2.102,5.225,4.295c0.891,2.193,0.819,4.676,0.294,6.984c-0.521,2.296-1.476,4.507-1.662,6.854
	c-0.186,2.347,0.634,5.006,2.738,6.065c2.669,1.343,6.043-0.665,7.252-3.398c1.131-2.556,0.617-5.276,1.016-7.952
	c0.379-2.54,0.461-4.467-0.178-7.046c-1.475-5.965-4.54-11.843-8.913-16.176c-1.164-1.154-2.355-2.411-2.739-4.005
	c-0.384-1.593,0.387-3.585,1.986-3.944c1.567-0.352,3.335,0.91,4.724,0.104c0.952-0.553,1.196-1.824,1.128-2.923
	c-0.351-5.603,0.625-11.202,0.529-16.848c-0.04-2.377,0.715-15.96-3.116-15.862c-0.342,0.009-0.684,0.114-1.021,0.056
	c-0.803-0.139-1.166-1.107-1.151-1.922c0.043-2.439,2.117-4.482,4.444-5.212c2.328-0.73,4.848-0.409,7.239,0.073
	c1.267,0.255,2.651,0.542,3.796-0.058c1.25-0.655,1.802-2.215,1.681-3.621c-0.206-2.422-0.579-4.919-1.539-7.126
	c-0.887-2.044-1.767-3.699-2.004-6.014c-0.477-4.648,0.942-9.529,4.067-13.036c4.974-5.58,13.61-7.842,16.58-14.701
	c1.974,4.504,5.441,8.157,8.834,11.716s6.849,7.227,8.791,11.745c1.223,2.846,1.427,5.827,0.968,8.864
	c-0.45,2.976-3.117,3.948-3.494,6.828c-0.228,1.745,0.681,3.652,2.297,4.349c2.102,0.906,4.48-0.332,6.769-0.323
	c1.793,0.008,3.582,0.857,4.649,2.297c1.066,1.44,1.349,3.45,0.638,5.095c-0.487,1.126-1.378,2.024-2.01,3.076
	c-1.787,2.977-1.229,6.529-0.89,9.799c0.344,3.311-0.259,5.983-0.448,9.179c-0.225,3.812,0.006,8.289,0.555,12.04
	c0.203,1.389,1.031,2.778,2.357,3.239c0.584,0.202,1.249,0.227,1.738,0.603c0.691,0.531,0.755,1.594,0.399,2.39
	c-0.356,0.796-1.028,1.396-1.655,2.003c-9.37,9.074-9.684,24.376-9.492,36.618c0.557,35.158,0.277,70.319,0.225,105.48
	c-0.003,2.116-0.031,4.053-0.405,6.097c-0.347,1.891-0.896,3.896,0.358,5.604c1.598,2.176,4.442,1.7,6.551,2.919
	c1.631,0.942,2.235,2.681,3.198,4.227c3.124,5.011,1.874,12.665-5.081,12.93c-8.384,0.32-17.025-0.162-25.457-0.17
	c-17.744-0.016-35.488-0.193-53.229-0.527c-8.849-0.167-17.697-0.373-26.545-0.619c-3.509-0.098-6.954-0.383-10.383,0.492
	c-2.901,0.741-5.377,1.228-8.419,1.198c-17.764-0.178-35.53-0.665-53.291-0.995c-19.888-0.37-39.796-0.944-59.688-0.944
	c-16.692-0.195-33.396,0.902-50.098,1.065c-50.889,0.494-101.778,0.786-152.666,1.235c-11.39,0.1-22.777,0.676-34.166,0.744
	c-6.115,0.037-11.854,0.698-17.911-0.529c-5.235-1.059-7.151-5.586-7.463-10.827c-0.103-1.713,0.108-3.581,1.272-4.843
	c1.953-2.116,5.502-1.536,7.963-3.029c1.893-1.148,2.882-3.412,3.05-5.621c0.246-3.246-0.642-6.517-0.6-9.801
	c0.474-36.448,0.857-72.901,1.895-109.336c0.324-11.346-2.874-23.21-11.432-31.127c-1.083-1.002-2.103-2.477-1.567-3.853
	c0.617-1.582,2.75-1.809,4.074-2.873c2.817-2.264,2.234-9.024,2.291-12.204c0.098-5.538,0.977-15.589-3.01-19.987
	c-1.118-1.233-2.455-2.43-2.781-4.064c-0.317-1.597,0.481-3.282,1.747-4.307s2.927-1.458,4.553-1.524
	c1.372-0.056,2.752,0.128,4.117-0.024c1.364-0.153,2.782-0.72,3.498-1.892c1.848-3.026-1.255-5.663-1.991-8.457
	c-0.903-3.424-0.38-7.182,0.995-10.407c1.976-4.634,5.518-8.4,9.078-11.964s7.267-7.106,9.712-11.511
	c3.384,6.621,11.595,9.366,15.843,15.467c5.039,7.236,2.75,15.173,0.331,22.77c-0.271,0.852-0.545,1.755-0.341,2.625
	c0.328,1.409,1.824,2.265,3.26,2.437c1.436,0.173,2.879-0.161,4.321-0.257c1.757-0.116,3.586,0.146,5.097,1.053
	c1.51,0.907,2.651,2.531,2.685,4.293c0.041,2.093-1.382,3.891-2.109,5.853c-1.283,3.465-0.111,6.534,0.188,9.958
	c0.265,3.035-0.437,5.751-0.854,8.675c-0.482,3.376,0.233,7.137,0.453,10.536c0.076,1.186,0.26,2.556,1.275,3.174
	c1.649,1.004,3.969-0.863,5.637,0.109c1.077,0.627,1.255,2.186,0.758,3.329C72.077,247.499,71.768,247.941,71.414,248.354z"/>
<g>
	<path style="fill:#DB884F;" d="M127.992,176.748c-0.229,3.082,1.333,6.286,4.023,7.809c2.689,1.521,6.388,1.137,8.557-1.064
		c1.271-1.29,1.961-3.043,2.397-4.799c0.427-1.711,0.634-3.559,0-5.205c-1.403-3.642-5.874-4.535-9.336-3.938
		C130.26,170.131,128.241,173.388,127.992,176.748z"/>
	<path style="fill:#DB884F;" d="M368.426,177.757c0.098,3.21,2.057,6.363,5.01,7.625c2.953,1.263,6.749,0.393,8.659-2.189
		c1.082-1.464,1.524-3.31,1.687-5.123c0.16-1.77,0.062-3.627-0.758-5.204c-1.723-3.314-6.189-4.287-9.611-3.409
		C370.048,170.322,368.328,174.517,368.426,177.757z"/>
</g>
<g>
	<path style="fill:#EDD5A4;" d="M34.765,157.756c-1.379,2.359-2.785,4.457-4.703,6.453c-2.23,2.321-4.385,4.736-6.704,6.967
		c-1.021,0.983-2.294,1.874-3.135,3.025c-0.944,1.292-1.739,2.925-2.525,4.332c-1.26,2.257-1.365,5.251-1.446,7.79
		c-0.07,2.176,0.768,4.259,1.544,6.254c0.995,2.556,2.035,5.267,4.49,6.759c2.587,1.572,6.475,1.916,9.459,2.085
		c4.049,0.229,8.132-0.545,12.174-0.387c1.39,0.055,2.697,0.367,4.085,0.186c1.922-0.252,3.143-1.207,3.953-3.007
		c1.557-3.461,2.34-6.78,2.885-10.498c0.358-2.441,0.338-4.944,0.08-7.406c-0.137-1.315-0.32-2.348-0.947-3.504
		c-0.634-1.172-0.846-2.491-1.812-3.419c-1.903-1.829-3.21-4.186-5.455-5.729c-1.659-1.142-3.398-2.043-5.022-3.247
		c-1.204-0.893-2.752-1.47-3.74-2.631C36.851,160.484,35.93,159.038,34.765,157.756z"/>
	<path style="fill:#EDD5A4;" d="M134.518,188.032c0.089,1.218-0.933,2.735-1.526,3.713c-1.071,1.771-1.949,3.659-3.074,5.4
		c-2.601,4.029-5.238,7.59-9.075,10.558c-8.448,6.533-18.718,12.329-24.81,21.339c-2.183,3.229-4.389,6.601-5.958,10.177
		c-1.661,3.781-2.452,8.124-2.717,12.231c-0.261,4.06,0.039,8.282,0.773,12.281c0.173,0.942,0.658,6.827,2.725,6.407
		c0.52-0.106,1.882-2.068,2.224-2.541c0.898-1.241,1.594-2.635,2.506-3.862c1.018-1.37,2.135-1.486,3.605-0.964
		c1.719,0.611,2.726,2.133,3.782,3.571c1.667,2.27,2.347,4.119,2.337,6.987c-0.007,1.813,0.117,3.539-0.121,5.347
		c-0.229,1.736-0.801,3.667-0.57,5.428c0.495,3.784,4.099,5.293,7.576,4.857c1.543-0.194,3.005-0.758,4.491-1.064
		c1.477-0.305,1.528-0.25,1.625-1.974c0.056-0.987,0.059-2.585-0.48-3.467c-0.228-0.373-0.654-0.514-0.903-0.884
		c-0.44-0.651-0.634-1.747-0.852-2.506c-1.188-4.142-0.147-8.606,1.921-12.247c0.707-1.245,1.444-2.887,2.565-3.815
		c1.989-1.648,3.908-0.185,5.389,1.427c1.73,1.885,4.312,3.28,4.59,6.129c0.127,1.289-0.303,2.428-0.525,3.669
		c-0.339,1.899-0.392,3.87-0.542,5.794c-0.228,2.925-1.198,7.583,3.053,8.043c2.177,0.235,4.11-0.103,6.286-0.281
		c2.179-0.178,2.969-1.286,2.355-3.614c-0.785-2.978-2.33-5.332-2.552-8.492c-0.282-4.015,1.525-6.946,3.719-10.163
		c1.068-1.566,1.266-3.128,3.362-2.767c1.429,0.246,3.758,1.707,4.683,2.765c0.819,0.936,1.38,2.218,2.018,3.282
		c0.65,1.085,1.477,2.241,1.762,3.482c0.517,2.25-0.269,4.849-0.742,7.043c-0.392,1.818-1.499,4.719-0.672,6.546
		c0.797,1.761,3.067,2.23,4.662,2.875c1.712,0.693,3.737-0.015,5.438-0.406c1.323-0.303,3.93,0.096,4.77-1.318
		c0.611-1.029-0.268-2.681-0.594-3.652c-0.543-1.614-0.646-3.333-1.12-4.97c-0.592-2.044-0.821-4.625-0.092-6.65
		c0.722-2.008,1.686-3.947,2.72-5.819c0.534-0.965,1.467-3.375,2.661-3.466c0.78-0.059,1.835,0.916,2.478,1.288
		c1.203,0.696,2.013,1.906,3.301,2.463c4.519,1.958,4.413-11.76,4.226-13.84c-0.764-8.504-5.664-17.462-10.93-24.03
		c-1.575-1.964-3.439-3.692-5.062-5.636c-1.903-2.281-4.124-4.403-6.228-6.502c-1.76-1.756-3.755-3.26-5.772-4.695
		c-1.622-1.155-2.923-2.652-4.498-3.85c-1.488-1.131-2.839-2.356-4.205-3.631c-1.609-1.501-3.569-2.782-4.84-4.616
		c-0.638-0.919-0.887-2.111-1.321-3.134c-0.529-1.251-1.136-2.468-1.632-3.733c-0.315-0.804-0.706-1.545-0.918-2.388
		C135.581,189.335,135.683,188.254,134.518,188.032z"/>
	<path style="fill:#EDD5A4;" d="M254.347,142.241c-0.642,0.732-0.926,1.87-1.218,2.711c-0.42,1.209-1.042,2.207-1.78,3.246
		c-1.683,2.367-3.44,4.703-5.528,6.732c-4.44,4.314-10.108,6.933-15.433,9.959c-2.836,1.612-5.477,3.502-8.246,5.213
		c-2.661,1.645-5.219,3.302-7.539,5.415c-3.007,2.739-4.685,6.881-5.974,10.65c-1.555,4.545-2.891,9.173-3.975,13.852
		c-0.9,3.891-1.466,7.642-1.345,11.655c0.056,1.862,0.092,3.968,1.305,5.473c0.65,0.807,1.381,1.26,2.309,1.69
		c1.42,0.658,2.681,1.643,4.163,2.158c3.24,1.125,6.957,1.171,10.339,1.298c1.348,0.05,2.674,0.3,4.016,0.377
		c1.472,0.086,2.937-0.189,4.411-0.192c1.52-0.003,2.993-0.052,4.506-0.171c2.403-0.189,4.793,0.088,7.197-0.13
		c1.323-0.12,2.704-0.485,4.003-0.307c1.604,0.22,3.139,0.51,4.768,0.552c3.055,0.08,6.114-0.212,9.165,0.052
		c5.08,0.439,10.185,0.392,15.283,0.392c4.89,0,9.746-0.04,14.623-0.441c4.199-0.346,8.88-0.392,12.794-2.073
		c1.577-0.677,3.139-1.43,4.666-2.216c0.492-0.253,0.819-0.346,1.098-0.817c0.734-1.242,0.49-3.634,0.715-5.032
		c0.969-6.046,0.246-12.353-1.281-18.248c-0.792-3.057-1.274-5.973-2.911-8.726c-1.129-1.899-2.132-3.915-3.288-5.782
		c-1.772-2.86-4.409-5.015-7.13-6.895c-2.876-1.989-5.903-3.999-8.955-5.693c-3.537-1.964-6.714-4.506-10.107-6.697
		c-1.63-1.053-3.263-2.143-4.912-3.158c-2.015-1.241-3.964-1.982-5.442-3.937c-1.037-1.372-1.87-2.915-2.527-4.503
		c-0.53-1.283-0.482-2.737-1.249-3.906c-1.2-1.828-3.404-4.229-5.859-3.02C254.752,141.849,254.535,142.028,254.347,142.241z"/>
	<path style="fill:#EDD5A4;" d="M375.945,189.39c1.212,1.783-1.535,6.262-2.324,7.842c-1.023,2.049-2.478,3.678-3.934,5.42
		c-1.681,2.01-2.941,4.062-4.931,5.812c-4.872,4.28-9.906,8.191-15.096,12.079c-2.365,1.772-4.411,4.075-6.318,6.321
		c-2.043,2.404-4.319,4.782-5.902,7.526c-2.195,3.808-4.611,7.762-5.667,12.068c-1.128,4.601-1.722,9.294-1.512,14.033
		c0.064,1.427,0.232,5.623,1.633,6.51c1.666,1.055,4.029-1.503,5.076-2.454c1.036-0.94,1.67-1.698,2.974-2.106
		c1.781-0.558,2.08,0.923,2.831,2.335c1.393,2.619,3.81,4.758,4.432,7.779c0.571,2.781-1.396,5.818-1.931,8.539
		c-0.376,1.919-0.72,4.098,0.677,5.644c1.454,1.61,4.547,1.753,6.577,1.836c2.12,0.087,5.204-0.777,6.889-2.036
		c2.005-1.499,0.972-4.852,0.42-6.764c-0.937-3.246-1.815-6.291-1.089-9.73c0.412-1.95,1.427-3.68,2.877-5.039
		c0.724-0.679,1.575-1.128,2.345-1.732c0.855-0.669,1.19-1.288,2.422-1.249c0.967,0.031,1.844,0.64,2.465,1.42
		c1.71,2.148,3.212,4.162,3.822,6.886c0.838,3.75,0.151,6.851-0.756,10.535c-0.69,2.804-1.464,6.903,2.197,7.777
		c2.29,0.546,6.676,0.366,8.304-1.726c1.39-1.786,0.82-5.14,0.368-7.11c-0.303-1.321-0.777-2.509-1.226-3.749
		c-0.52-1.431-0.465-3.912-0.238-5.422c0.603-4.01,4.616-6.741,8.05-8.277c2.405-1.075,4.383,3.785,5.294,5.487
		c1.77,3.307,1.831,6.652,0.796,10.193c-0.355,1.215-0.587,2.457-0.967,3.664c-0.328,1.044-0.854,2.298-0.713,3.425
		c0.229,1.819,1.922,2.476,3.452,2.901c2.899,0.806,9.247,1.989,10.264-1.881c1.08-4.106-0.959-8.148-1.264-12.162
		c-0.151-1.992-0.423-3.802,0.643-5.609c1.164-1.974,3.661-4.141,5.51-5.502c2.451-1.802,5.462,1.957,5.973,4.062
		c0.273,1.123,0.448,2.607,1.17,3.546c1.397,1.819,2.078-1.268,2.355-2.324c0.479-1.825,1.742-3.071,2.408-4.785
		c0.951-2.45,1.052-5.417,1.033-8.015c-0.015-2.049-0.501-3.9-0.872-5.896c-0.453-2.436-1.269-4.498-2.13-6.803
		c-1.202-3.216-2.055-6.359-3.822-9.349c-1.834-3.103-4.139-5.943-6.862-8.31c-2.498-2.17-4.703-4.399-7.471-6.258
		c-1.796-1.207-3.34-2.487-4.752-4.139c-1.082-1.266-2.264-2.547-3.605-3.544c-0.972-0.722-2.094-0.988-3.117-1.589
		c-2.896-1.699-4.727-5.46-7.13-7.786c-1.279-1.239-2.235-2.389-3.175-3.921c-0.998-1.629-1.674-3.434-2.773-5.004
		c-0.45-0.644-0.86-1.381-1.398-1.946C377.691,190.251,376.319,189.94,375.945,189.39z"/>
	<path style="fill:#EDD5A4;" d="M462.794,200.161c-0.69-0.777-0.919-1.869-1.375-2.786c-1.014-2.034-2.339-3.935-3.185-6.047
		c-1.894-4.728-2.239-9.716-0.525-14.591c0.847-2.411,2.445-4.942,4.416-6.582c2.159-1.796,4.478-3.646,6.772-5.261
		c1.547-1.088,3.086-2.122,4.402-3.492c0.669-0.697,1.255-1.487,1.875-2.226c0.063-0.075,1.052-1.437,1.11-1.436
		c0.631,0.014,0.829,1.241,1.06,1.662c1.085,1.984,2.7,3.474,4.143,5.174c1.366,1.609,2.583,2.719,4.281,3.972
		c1.665,1.228,3.27,2.64,4.77,4.062c2.529,2.4,5.068,5.826,5.66,9.317c0.349,2.061,0.587,4.283,0.279,6.363
		c-0.383,2.582-2.026,4.662-3.362,6.822c-0.804,1.3-1.378,3.482-2.55,4.511c-1,0.879-3.161,0.925-4.39,1.045
		C478.316,201.434,469.786,201.779,462.794,200.161z"/>
</g>
<g>
	<path style="fill:#5E1E1E;" d="M14.581,244.216c0.119-4.537-0.796-9.092-0.269-13.662c0.298-2.587,0.375-5.211,0.949-7.764
		c0.387-1.719,0.778-4.073,2.062-5.388c1.134-1.16,2.775-1.294,4.273-1.55c1.489-0.254,2.055,0.395,2.885,1.599
		c1.208,1.752,1.402,4.309,1.577,6.367c0.357,4.191,0.265,8.407,0.265,12.612c0,1.159-0.001,2.312-0.048,3.468
		c-0.035,0.861,0.168,1.937-0.025,2.755c-0.19,0.811-0.46,0.966-1.267,1.198c-1.925,0.55-3.63,0.072-5.536,0.187
		c-0.879,0.054-1.731,0.257-2.625,0.201C16.27,244.202,15.607,243.963,14.581,244.216z"/>
	<path style="fill:#5E1E1E;" d="M32.436,243.148c0-2.907-0.194-5.786-0.194-8.691c0-2.528-0.474-5.269-0.102-7.753
		c0.447-2.982,0.374-7.934,3.547-9.367c1.199-0.541,2.651-0.538,3.951-0.293c1.235,0.233,2.316,1.33,2.982,2.4
		c1.257,2.018,0.935,4.841,1.271,7.207c0.464,3.275,0.188,6.694,0.189,9.993c0,1.229-0.1,2.373-0.218,3.585
		c-0.094,0.957,0.054,2.161-0.869,2.784c-1.022,0.689-2.554,0.454-3.66,0.346c-0.81-0.08-1.619,0.06-2.424-0.099
		c-0.308-0.062-0.587-0.233-0.887-0.311C34.574,242.566,33.853,243.007,32.436,243.148z"/>
	<path style="fill:#5E1E1E;" d="M48.544,221.218c0.582,3.541-0.253,7.536-0.291,11.141c-0.027,2.651-0.153,5.379,0.106,8.011
		c0.187,1.901,0.276,3.269,2.499,3.497c1.739,0.179,3.677,0.305,5.426,0.232c0.932-0.039,2.02,0.141,2.922,0.005
		c0.449-1.688-0.186-3.895-0.276-5.637c-0.159-3.043-0.196-6.095-0.196-9.152c0-4.557,0.596-10.742-4.195-13.075
		C51.335,214.682,49.272,218.501,48.544,221.218z"/>
	<path style="fill:#5E1E1E;" d="M456.389,217.628c-1.317,0.624-2.622,3.198-2.893,4.585c-0.372,1.902-0.125,4.223-0.211,6.183
		c-0.109,2.499-0.112,5.02-0.002,7.522c0.08,1.834-0.033,3.767,0.192,5.584c0.137,1.106,0.444,1.926,1.57,2.16
		c1.21,0.252,2.514,0.663,3.753,0.633c1.048-0.025,2.121-0.227,3.155-0.25c0.633-0.014,1.162,0.279,1.543-0.227
		c0.529-0.704,0.168-2.856,0.173-3.691c0.019-3.297,0.229-6.579,0.102-9.879c-0.127-3.29-0.007-6.894-0.898-10.098
		c-0.333-1.196-0.87-2.168-1.73-3.027c-0.38-0.38-0.753-0.942-1.326-1.042C458.948,215.927,457.157,217.093,456.389,217.628z"/>
	<path style="fill:#5E1E1E;" d="M471.042,217.628c-3.068,2.27-2.231,7.656-2.232,10.861c-0.001,4.551-0.135,9.068,0.003,13.619
		c0.042,1.399,0.238,1.193,1.513,1.698c0.829,0.328,1.45,0.217,2.314,0.187c0.979-0.034,1.791,0.262,2.754,0.327
		c1.127,0.076,2.51,0.07,3.588-0.116c0.211-2.523,0.861-4.938,0.578-7.53c-0.358-3.271,0.067-6.565-0.175-9.837
		c-0.176-2.371,0.097-5.269-0.869-7.496C477.446,216.868,473.715,215.414,471.042,217.628z"/>
	<path style="fill:#5E1E1E;" d="M489.867,216.56c-3.052,0.278-3.574,5.1-3.689,7.389c-0.197,3.922-0.59,7.877-0.581,11.806
		c0.003,1.645-0.196,3.258-0.194,4.901c0.001,0.9-0.242,2.296,0.267,3.096c0.383,0.603,0.558,0.536,1.281,0.65
		c1.606,0.254,3.342,0.602,4.962,0.594c1.541-0.008,3.02,0.095,4.551-0.005c1.281-0.083,1.505-0.609,1.656-1.943
		c0.301-2.655-0.299-5.474-0.396-8.128c-0.13-3.562-0.378-7.126-0.674-10.672c-0.19-2.28-0.258-4.773-1.456-6.817
		c-0.466-0.796-1.28-1.413-2.14-1.728c-0.35-0.128-0.987-0.261-1.363-0.293C490.906,215.311,489.86,216.362,489.867,216.56z"/>
</g>
<path style="fill:#AF4545;" d="M318.922,308.22c-0.596,8.61-0.868,16.944-0.88,25.569c-0.019,13.056,0.673,26.089,0.692,39.134
	c0.013,8.249-0.365,16.497-0.349,24.757c0.002,1.415-0.85,5.054,0.263,6.258c0.965,1.045,5.105,1.215,6.499,1.178
	c2.048-0.052,4.073-0.508,6.137-0.485c2.34,0.025,4.649,0.496,7,0.516c5.348,0.044,10.642,0.701,15.992,0.683
	c2.991-0.01,6.099-0.1,9.069,0.027c1.074,0.046,1.889,0.464,2.922,0.683c1.737,0.368,3.597,0.113,5.358,0.155
	c20.074,0.488,40.121,0.312,60.21,0.347c5.909,0.01,12.166,0.866,18.028,0.146c4.246-0.521,5.418-6.446,5.008-10.077
	c-0.546-4.835-9.484-6.218-13.055-6.835c-5.071-0.877-10.239-0.563-15.34-1.158c-6.999-0.814-13.979-2.302-20.93-3.483
	c-11.972-2.036-25.807-5.415-35.443-13.186c-9.678-7.806-16.809-17.926-21.383-29.416c-3.525-8.856-6.315-18.666-5.229-28.282
	c0.608-5.382,2.232-10.471,3.999-15.556c1.375-3.961,4.525-8.716,0.139-11.492c-1.81-1.146-3.42-2.19-3.021-4.525
	c0.723-4.229,3.16-7.883,1.755-12.33c-0.624-1.973-1.688-3.707-2.522-5.579c-0.465-1.044-0.744-2.677-1.965-3.205
	c-2.76-1.193-7.452,4.464-8.701,6.35c-1.645,2.484-1.9,5.245-1.501,8.153c0.298,2.169,1.141,4.938,0.628,7.139
	c-0.404,1.736-1.35,2.467-2.766,3.066c-1.402,0.593-2.904,1.001-4.403,1.256c-1.228,0.209-2.674-0.2-3.7,0.509
	c-1.957,1.35-1.807,5.187-1.925,7.289C319.278,299.955,319.208,304.092,318.922,308.22z"/>
<g>
	<path style="fill:#5E1E1E;" d="M348.033,405.82c-3.619,0.318-7.227-0.448-10.83-0.362c-2.122,0.051-4.79,0.377-4.503-2.651
		c0.333-3.506-0.128-7.274-0.415-10.798c-0.376-4.611-0.781-9.079-0.781-13.725c0-4.09-0.123-8.579,1.046-12.541
		c1.176-3.983,4.409-6.29,7.26-9.027c1.198-1.151,2.275-2.417,3.282-3.736c0.549-0.719,2.338-4.129,3.135-4.184
		c0.57-0.04,2.138,2.088,2.583,2.551c1.24,1.292,2.133,2.737,3.203,4.159c2.28,3.027,5.688,4.859,8.364,7.452
		c1.315,1.274,1.758,3.721,2.104,5.453c0.433,2.162,0.595,4.368,0.752,6.564c0.326,4.602-0.109,9.296-0.1,13.913
		c0.008,3.934,0.366,7.928,0.174,11.854c-0.034,0.701,0.222,2.932-0.252,3.474c-0.452,0.517-2.81,0.675-3.501,0.747
		c-1.654,0.174-3.301,0.073-4.957,0.145C352.402,405.207,350.224,405.627,348.033,405.82z"/>
	<path style="fill:#5E1E1E;" d="M387.785,348.725c-1.228,4.009-4.63,6.152-7.559,8.785c-1.663,1.495-3.459,3.03-4.415,5.066
		c-1.243,2.648-1.497,5.878-1.849,8.767c-0.795,6.54-0.639,13.005-0.635,19.569c0.001,3.267-0.001,6.532,0,9.8
		c0,1.001-0.151,2.127,0.19,3.092c0.379,1.073,1.012,1.135,2.053,1.48c2.1,0.696,4.059,1.032,6.278,1.079
		c3.005,0.064,5.981,0.668,8.978,0.689c3.126,0.022,6.231-0.024,9.34-0.208c0.924-0.055,1.753-0.032,2.575-0.484
		c0.972-0.534,0.868-1.217,0.909-2.27c0.089-2.237-0.049-4.572-0.23-6.808c-0.19-2.34,0.236-4.655,0.133-7.008
		c-0.245-5.611,0.179-11.242-0.07-16.868c-0.104-2.344-0.233-5.014-0.948-7.279c-0.649-2.057-2.749-4.525-4.352-5.892
		c-1.366-1.164-2.438-2.493-3.72-3.736c-1.073-1.042-2.276-1.885-3.298-2.991C390.095,352.355,388.354,350.391,387.785,348.725z"/>
	<path style="fill:#5E1E1E;" d="M428.054,349.016c-0.547,2.122-1.748,4.073-3.153,5.767c-1.556,1.874-3.41,3.994-5.361,5.446
		c-1.797,1.337-3.172,3.339-3.72,5.559c-0.648,2.624-1.068,5.689-1.231,8.392c-0.365,6.045-0.963,12.081-0.461,18.141
		c0.243,2.934,0.325,5.879,0.344,8.825c0.007,1.05-0.315,2.616,0.008,3.599c0.332,1.01,1.745,1.046,2.793,1.322
		c2.03,0.535,4.053,0.109,6.115,0.213c2.303,0.116,4.614,0.262,6.918,0.392c1.703,0.096,3.387,0.399,5.101,0.286
		c1.32-0.087,2.453-0.368,3.778-0.298c2.019,0.106,5.405,0.729,5.755-1.752c0.241-1.699,0.036-3.484,0.001-5.198
		c-0.066-3.189-0.113-6.351-0.113-9.539c0-4.598,0.197-9.142,0.005-13.738c-0.107-2.578-0.763-5.381-1.354-7.887
		c-0.481-2.043-0.99-4.036-1.836-5.964c-2.493-5.682-9.35-8.507-11.649-14.343C429.653,347.372,428.279,348.144,428.054,349.016z"/>
	<path style="fill:#5E1E1E;" d="M253.485,346.881c0.172,2.118-1.309,5.377-2.186,7.275c-1.018,2.202-2.905,4.148-4.312,6.12
		c-1.389,1.946-3.72,3.27-5.543,4.776c-2.656,2.197-4.589,4.801-5.453,8.126c-1.745,6.716-2.325,14.109-2.019,21.017
		c0.102,2.281-0.292,4.45,0.002,6.748c0.222,1.734,1.358,4.813,3.191,5.332c3.434,0.972,7.037,0.64,10.548,1.114
		c3.881,0.524,7.871,0.367,11.773,0.652c2.239,0.163,4.289-0.531,6.509-0.606c1.663-0.056,3.497-0.413,5.14-0.3
		c1.161,0.079,2.555,0.527,3.677-0.067c1.605-0.85,2.241-3.109,2.582-4.783c0.635-3.127,0.554-6.787,0.642-9.964
		c0.189-6.822-0.055-14.455-3.083-20.718c-1.703-3.522-4.858-6.244-7.396-9.136c-1.359-1.55-2.474-3.285-3.832-4.82
		c-1.015-1.147-2.007-2.038-2.871-3.322c-0.714-1.062-1.369-2.128-1.788-3.347c-0.42-1.221-0.346-2.562-0.871-3.742
		c-0.37-0.829-0.823-1.597-1.659-2.006C254.759,344.354,254.634,346.868,253.485,346.881z"/>
</g>
<path style="fill:#AF4545;" d="M69.689,280.088c0.094,1.804,1.154,4.075-0.049,5.718c-0.922,1.259-1.924,0.879-3.271,1.096
	c-3.845,0.619-5.619,3.388-6.179,7.003c-1.209,7.806-0.569,15.531-0.955,23.322c-0.504,10.191-1.857,20.338-2.13,30.539
	c-0.398,14.83,0.528,29.625,0.526,44.426c-0.001,3.226-0.359,6.428-0.357,9.659c0.002,2.987-0.747,5.421,2.779,6.094
	c5.366,1.024,11.352,0.449,16.736-0.024c5.665-0.498,11.197-0.366,16.846,0.139c6.973,0.624,14.257-0.149,21.231-0.308
	c3.808-0.087,7.587-1.128,11.444-1.226c4.494-0.113,8.937-0.351,13.432-0.192c4.567,0.163,9.215-0.245,13.752,0.048
	c6.505,0.42,12.999,0.573,19.53,0.235c3.877-0.2,7.858-0.444,11.735-0.435c2.507,0.006,4.95,0.601,6.566-1.793
	c1.194-1.769,2.021-5.569,1.428-7.607c-0.917-3.155-5.295-3.636-8.04-3.987c-6.018-0.77-12.057-1.5-18.084-2.213
	c-15.424-1.825-33.765-2.156-46.48-12.422c-5.647-4.56-10.603-11.375-14.529-17.486c-3.285-5.114-5.99-10.921-8.513-16.453
	c-1.64-3.595-3.248-6.899-3.712-10.811c-0.512-4.314-1.711-8.675-2.619-12.922c-1.015-4.75-1.228-9.667-2.458-14.363
	c-0.934-3.567-2.157-7.149-3.435-10.594c-1.5-4.042-2.338-8.039-2.336-12.354c0.003-5.275,3.03-11.931,0.4-16.929
	c-1.148-2.183-2.154-3.136-4.632-3.173c-2.946-0.043-5.409,0.61-7.094,3.185C68.702,270.114,69.466,275.788,69.689,280.088z"/>
<g>
	<path style="fill:#5E1E1E;" d="M164.988,348.725c-0.488,0.383-0.806,1.107-1.17,1.653c-1.437,2.153-2.977,4.08-4.966,5.741
		c-1.689,1.412-3.403,3.092-4.762,4.813c-1.475,1.868-2.568,3.201-3.149,5.579c-0.632,2.593-0.804,5.004-1.096,7.641
		c-0.591,5.345-0.971,10.884-0.87,16.257c0.052,2.8-0.102,5.592-0.097,8.389c0.002,1.716-0.252,4.059,0.408,5.705
		c0.69,1.72,4.072,1.979,5.656,2.041c1.914,0.076,3.783,0.539,5.702,0.51c2.162-0.034,4.206-0.171,6.374-0.101
		c2.678,0.086,5.353-0.405,8.014-0.35c1.031,0.021,2.232,0.156,3.156-0.341c1.848-0.995,1.54-4.973,1.545-6.886
		c0.011-3.613,0.533-7.241,0.242-10.863c-0.513-6.398-0.007-12.708-0.236-19.111c-0.073-2.033-0.219-4.262-1.073-6.128
		c-0.363-0.79-0.836-1.255-1.456-1.838c-0.963-0.906-1.646-2.029-2.782-2.775c-2.648-1.74-5.15-3.52-6.859-6.267
		C167.102,351.64,166.554,348.123,164.988,348.725z"/>
	<path style="fill:#5E1E1E;" d="M123.941,348.627c-1.95,4.043-5.014,8.153-8.418,11.09c-1.42,1.225-3.482,2.386-4.517,3.967
		c-1.407,2.149-2.154,4.675-2.471,7.198c-0.35,2.785-0.245,5.541-0.454,8.323c-0.211,2.816-0.425,5.599-0.444,8.426
		c-0.029,4.517,0.196,9.029,0.196,13.546c0,1.024-0.384,3.112,0.303,3.956c0.521,0.64,2.121,0.786,2.838,0.944
		c2.446,0.541,5.023,0.837,7.524,0.949c4.587,0.204,9.075-0.062,13.649-0.172c1.283-0.031,4.015,0.075,5.194-0.56
		c1.517-0.818,1.196-3.347,1.282-4.781c0.244-4.116-0.084-8.249,0.417-12.355c0.436-3.569,0.185-7.141,0.015-10.719
		c-0.146-3.074,0.002-6.201-0.341-9.255c-0.517-4.603-2.313-8.269-5.856-11.343c-2.061-1.788-4.418-3.158-6.09-5.356
		c-0.454-0.596-1.038-1.383-1.329-2.079C125.125,349.653,125.275,348.218,123.941,348.627z"/>
	<path style="fill:#5E1E1E;" d="M82.701,348.627c-1.371,2-2.401,4.14-4.053,6.02c-1.796,2.045-3.547,4.459-5.701,6.146
		c-0.591,0.463-1.331,0.65-1.906,1.086c-0.715,0.543-1.193,1.472-1.623,2.247c-1.199,2.161-1.544,4.192-1.759,6.624
		c-0.458,5.202-0.793,10.49-0.964,15.713c-0.159,4.815,0.091,9.67-0.123,14.487c-0.052,1.187-0.443,3.274,0.415,4.204
		c0.623,0.675,1.779,0.634,2.591,0.763c2.643,0.421,5.03,1.289,7.734,1.424c3.736,0.188,7.532,0.456,11.264,0.481
		c1.657,0.01,3.218-0.084,4.843-0.413c0.945-0.192,2.278-0.108,3.167-0.452c1.82-0.703,1.927-3.832,1.95-5.432
		c0.022-1.541-0.468-3.013-0.446-4.571c0.025-1.84,0.104-3.654,0.042-5.493c-0.12-3.613-0.179-7.218-0.299-10.834
		c-0.089-2.701-0.383-5.393-0.383-8.1c-0.001-4.946-0.571-9.694-4.782-12.785c-1.231-0.903-2.437-1.975-3.615-2.954
		c-0.549-0.456-0.869-1.042-1.374-1.527c-0.437-0.42-1.031-0.615-1.451-1.045C84.742,352.694,85.084,349.048,82.701,348.627z"/>
</g>
<g>
	<path style="fill:#933434;" d="M32.436,200.841c-1.89,0-3.786-0.05-5.675-0.005c-2.315,0.056-4.613-0.05-6.916,0.002
		c-3.504,0.08-7.336,0.002-10.747,0.872c-1.377,0.351-1.913,0.552-2.858,1.578c-1.185,1.284-1.421,1.545-1.365,3.302
		c0.13,4.069,4.532,2.887,7.388,2.499c2.89-0.392,5.88-0.575,8.797-0.663c3.208-0.097,6.403-0.43,9.608-0.595
		c2.799-0.145,5.396,0.805,8.192,0.878c3.574,0.095,7.043-0.075,10.616,0.249c2.741,0.249,5.575,0.741,8.318,0.817
		c1.718,0.047,3.412-0.29,5.122-0.395c1.134-0.07,2.544,0.179,3.605-0.334c2.185-1.058,2.696-4.269,0.793-5.842
		c-1.258-1.039-3.057-1.074-4.575-1.507c-4.537-1.292-9.673-1.379-14.357-1.224c-3.013,0.1-6.012-0.043-9.026-0.031
		C36.486,200.455,33.655,201.025,32.436,200.841z"/>
	<path style="fill:#933434;" d="M237.674,222.216c-0.171-0.006-0.341-0.011-0.512-0.018c-2.192-0.084-4.498-0.06-6.641-0.585
		c-1.314-0.322-2.379-1.113-3.742-1.272c-4.336-0.506-8.895-0.123-13.253-0.099c-3.765,0.021-7.546,0.533-11.278,0.994
		c-2.413,0.299-5.858,0.277-6.995,2.82c-1.093,2.441-3.282,10.225,0.732,10.964c9.135,1.682,18.369,1.962,27.652,1.487
		c7.241-0.371,14.528-0.318,21.757-0.831c3.647-0.259,7.254-0.942,10.913-1.056c3.741-0.116,7.498-0.023,11.241-0.091
		c5.068-0.094,10.158,0.454,15.23,0.476c4.419,0.019,8.713,0.297,13.1,0.764c3.351,0.357,6.459,1.236,9.845,1.268
		c2.233,0.022,4.336,0.458,6.572,0.281c5.303-0.422,6.097-7.738,4.66-11.723c-0.976-2.706-3.639-3.131-6.203-3.283
		c-6.513-0.389-12.982,0.059-19.493,0.25c-8.766,0.255-17.487,0.5-26.245,0.06c-4.357-0.219-8.573-0.61-12.93-0.501
		C247.279,222.239,242.476,222.378,237.674,222.216z"/>
</g>
<path style="fill:#AF4545;" d="M195.03,239.787c0.124,0.503,0.262,0.997,0.294,1.396c0.129,1.566,0.009,3.192,0.017,4.764
	c0.015,3.025,0.04,6.048,0.064,9.073c0.049,6.047,0.102,12.095,0.092,18.143c-0.016,11.614-1.394,23.113-1.394,34.731
	c0,11.899,0.105,23.817-0.261,35.708c-0.355,11.53,0.784,23.063,0.785,34.601c0,4.651,0.412,9.334,0.135,13.978
	c-0.226,3.792-0.7,7.783-0.309,11.593c0.416,4.051,4.671,3.067,7.656,2.948c1.22-0.049,2.413,0.331,3.645,0.326
	c1.322-0.005,2.661-0.441,3.981-0.365c1.489,0.088,2.639,0.628,4.155,0.188c1.989-0.577,2.043-1.407,2.137-3.54
	c0.149-3.377-0.222-6.76-0.141-10.141c0.186-7.863,0.843-16.192,1.58-23.784c0.901-9.284,1.029-18.876,1.875-28.24
	c2.073-22.941-3.185-45.924-0.471-68.831c1.267-10.697,4.54-20.626,15.227-24.838c4.725-1.862,9.637-1.97,14.637-2.445
	c7.612-0.724,15.174-1.873,22.806-2.41c10.572-0.744,21.313-0.703,31.853-0.112c2.774,0.155,7.418,0.167,9.409-2.268
	c1.6-1.956,0.639-3.23-1.558-3.848c-2.461-0.692-5.478,0.031-7.99,0.13c-3.588,0.141-7.134-0.149-10.715-0.284
	c-10.014-0.378-20.033-0.785-30.058-0.809c-9.712-0.023-19.424,0.72-29.168,0.615c-7.871-0.084-15.849-0.422-23.709-0.149
	c-3.26,0.113-13.144-2.329-14.707,1.975C194.715,238.396,194.86,239.1,195.03,239.787z"/>
<g>
	<path style="fill:#933434;" d="M216.321,389.577c-0.683,1.699-0.06,4.342-0.119,6.145c-0.08,2.451-0.48,5.606,0.433,7.969
		c0.326,0.843,1.289,1.643,2.133,2.008c2.172,0.94,5.241,1.249,7.56,1.05c1.75-0.149,3.609,0.299,5.385,0.391
		c0.59,0.031,1.606,0.253,2.132-0.169c0.81-0.649,0.277-3.037,0.141-4.014c-0.334-2.392-0.373-4.719-0.469-7.134
		c-0.208-5.206-0.523-10.365,0.648-15.507c0.618-2.714,1.372-5.546,2.523-8.087c1.021-2.254,2.511-4.125,3.874-6.169
		c2.892-4.338,8.809-6.194,10.225-11.656c0.614-2.369,1.549-4.066,3.035-5.999c0.869-1.13,1.347-2.54,2.527-3.428
		c0.872-0.657,1.323-0.338,1.961,0.559c1.179,1.658,1.33,3.986,1.846,5.907c0.55,2.045,0.923,3.968,1.986,5.812
		c1.677,2.906,4.71,4.143,7.076,6.435c3.396,3.29,5.988,7.314,7.201,11.916c1.638,6.213,0.403,12.988,0.843,19.334
		c0.152,2.193,0.371,4.486,0.269,6.684c-0.072,1.555-0.283,3.571,0.901,4.749c3.189,3.173,9.53,1.324,13.388,1.35
		c0.644,0.005,1.849,0.21,2.429-0.098c0.68-0.359,0.525-0.217,0.576-1.201c0.315-5.994,0.299-12.038,0.563-18.041
		c0.324-7.369-0.371-14.784-0.371-22.17c0-1.568-0.005-3.136-0.033-4.703c-0.067-3.623,0.081-7.818-0.993-11.313
		c-0.872-2.838-0.714-5.758-0.892-8.736c-0.385-6.449-0.776-13.389,3.133-18.944c1.356-1.927,2.641-3.525,2.666-5.948
		c0.018-1.788-0.147-3.539-0.769-5.239c-0.874-2.389-3.615-4.021-5.668-5.319c-1.017-0.643-2.313-1.16-3.171-2.023
		c-0.72-0.724-0.792-1.707-0.895-2.75c-0.206-2.07-0.048-4.427-0.821-6.389c-0.691-1.753-2.192-2.713-3.724-3.647
		c-1.594-0.972-3.195-1.477-4.873-2.242c-0.64-0.291-0.964-0.21-1.277-0.918c-0.38-0.855-0.255-2.322-0.226-3.249
		c0.092-2.874-0.309-5.415-0.796-8.24c-0.388-2.251-0.916-4.329-2.226-6.204c-1.98-2.833-3.773-5.074-6.641-7.044
		c-1.145-0.786-2.185-1.545-3.563-1.897c-0.821-0.209-1.678-0.04-2.506-0.119c-0.753-0.072-1.488-0.373-2.246-0.396
		c-2.453-0.073-4.951,0.536-7.339,1.006c-4.839,0.952-10.502,2.597-12.828,7.434c-1.118,2.323-2.158,4.746-2.966,7.198
		c-0.901,2.734-1.095,5.309-1.211,8.142c-0.065,1.568-0.046,3.005-1.488,3.866c-2.043,1.22-4.507,1.443-6.277,3.109
		c-1.304,1.227-1.752,2.81-1.967,4.544c-0.206,1.661-0.01,3.361-0.357,4.981c-0.35,1.638-0.72,2.272-2.125,3.19
		c-4.716,3.083-11.928,6.272-10.256,13.168c0.693,2.86,2.917,4.502,4.133,7.022c0.379,0.785,0.936,1.419,1.229,2.239
		c0.486,1.359,0.547,2.997,0.809,4.417c0.48,2.609-0.17,5.367-0.302,7.974c-0.155,3.052-0.117,6.108-0.007,9.162
		c0.167,4.581-0.145,9.203-0.179,13.789C218.294,371.414,217.741,380.736,216.321,389.577z"/>
	<path style="fill:#933434;" d="M476.476,200.452c-1.304-0.357-2.795-0.233-4.123-0.149c-2.625,0.164-5.249-0.073-7.861,0.197
		c-2.591,0.268-5.097,0.226-7.656,0.755c-2.031,0.42-3.983,0.27-6.015,0.473c-2.752,0.275-6.304,1.585-6.056,4.878
		c0.081,1.073,0.086,1.542,0.976,1.9c0.619,0.25,1.754,0.197,2.442,0.316c1.593,0.273,3.187,0.317,4.803,0.25
		c12.236-0.508,24.46,0.011,36.686-0.366c3.248-0.1,6.27,0.43,9.476,0.599c2.67,0.141,5.431,1.314,7.89-0.284
		c3.285-2.136-1.196-5.674-3.16-6.753c-2.889-1.588-7.355-1.491-10.527-1.645c-2.272-0.109-4.548-0.346-6.826-0.263
		C483.357,200.475,480.243,201.12,476.476,200.452z"/>
	<path style="fill:#933434;" d="M450.276,245.089c-2.712,0-5.348,0.652-8.047,0.876c-1.48,0.122-2.909,0.148-2.927,1.87
		c-0.023,2.32,1.415,4.043,3.093,5.44c1.966,1.638,3.812,3.634,5.326,5.722c2.136,2.945,2.52,6.502,3.019,9.987
		c0.24,1.675,0.1,2.717,1.705,3.489c2.36,1.134,4.635,0.774,7.153,0.632c6.403-0.364,12.72-0.883,19.137-0.833
		c1.59,0.013,3.131-0.39,4.71-0.482c1.203-0.071,2.41,0.04,3.612-0.008c1.348-0.052,2.717-0.355,4.069-0.186
		c0.842,0.105,1.558,0.376,2.418,0.356c1.787-0.042,2.272-0.455,3.104-1.953c1.688-3.034,2.502-5.932,3.42-9.219
		c0.771-2.762,2.223-4.496,3.808-6.773c1.291-1.856,3.305-4.143,3.538-6.499c0.23-2.328-2.462-2.542-4.264-2.625
		c-4.743-0.22-9.601,0.604-14.365,0.598c-5.279-0.007-10.496-0.732-15.765-0.95c-3.499-0.145-6.907-0.263-10.402,0.102
		C458.218,245.092,453.552,246.09,450.276,245.089z"/>
	<path style="fill:#933434;" d="M35.152,244.797c-5.387,0.007-10.66,1.099-16.048,0.871c-0.918-0.039-1.81,0.131-2.72,0.222
		c-1.445,0.144-2.869-0.091-4.316-0.128c-1.756-0.043-3.509,0.106-5.266,0.102c-0.722-0.002-1.877-0.203-2.525,0.217
		c-2.523,1.63,0.811,4.713,1.924,5.822c2.817,2.809,4.206,6.248,5.757,9.844c1.705,3.954,1.623,9.537,6.897,9.833
		c4.088,0.23,8.151-0.182,12.239-0.198c4.457-0.018,8.792,0.335,13.229,0.541c3.062,0.141,6.126,0.273,9.183,0.424
		c1.488,0.074,3.689,0.252,5.123-0.226c2.335-0.778,3.326-2.71,3.89-4.9c0.804-3.12,1.404-6.1,2.605-9.123
		c1.11-2.794,2.635-5.044,4.659-7.227c1.242-1.339,3.374-3.303,2.434-5.405c-0.578-1.294-2.799-1.775-3.994-1.901
		c-3.108-0.33-6.426,0.363-9.545,0.481c-3.562,0.137-7.095,0.493-10.644,0.797C43.735,245.215,39.576,246.598,35.152,244.797z"/>
</g>
<path style="fill:#DB884F;" d="M254.941,120.203c-1.843,0.317-3.72,2.195-4.791,3.598c-1.523,1.994-2.003,4.337-2.286,6.779
	c-0.601,5.194,2.533,9.359,7.703,10.301c3.022,0.55,6.735-0.087,8.353-2.893c1.756-3.044,2.781-7.346,1.75-10.798
	c-0.638-2.134-1.524-4.375-3.252-5.832C260.027,119.342,256.93,119.972,254.941,120.203z"/>
<g>
	<path style="fill:#AF4545;" d="M47.861,271.789c-1.927,1.156-2.542,5.64-3.287,7.533c-5.21,13.246-9.352,26.64-12.188,40.602
		c-4.241,20.88-3.343,42.916-0.953,63.996c0.62,5.47,1.378,10.855,2.713,16.196c0.505,2.022,1.091,3.725-0.576,4.661
		c-2.184,1.227-6.154,0.872-8.516,0.57c-2.29-0.293-4.612-0.799-6.928-0.734c-0.884,0.025-2.278,0.513-3.084-0.036
		c-1.55-1.057-0.113-7.056,0.044-8.694c1.002-10.456,0.732-21.028,0.868-31.523c0.17-13.226,0.787-26.37-0.038-39.586
		c-0.675-10.812-0.289-21.47-0.301-32.274c-0.005-3.828,0.261-7.622,0.354-11.44c0.05-2.069-0.818-5.705,0.546-7.493
		c0.914-1.199,1.112-0.652,2.403-0.643c2.354,0.018,4.644,0.358,7.035,0.221c3.378-0.193,6.707-0.834,10.079-0.982
		C39.583,272.004,43.096,272.493,47.861,271.789z"/>
	<path style="fill:#AF4545;" d="M451.905,274.578c0.036,2.233,0.065,4.365-0.127,6.623c-0.412,4.866,0.064,9.321,0.266,14.167
		c0.423,10.125,0.124,20.298,0.422,30.429c0.382,13.015,0.528,26.088,0.667,39.105c0.1,9.447,1.038,18.879,1.038,28.324
		c0,2.911-0.43,5.886,0,8.774c0.316,2.117,1.182,2.705,3.45,3.505c5.003,1.762,11.589,0.715,16.777,0.319
		c2.084-0.16,5.591,0.811,7.492-0.176c1.258-0.652,1.086-2.255,1.177-3.797c0.351-5.978-1.148-12.323-2.252-18.165
		c-4.86-25.718-10.437-51.46-13.194-77.515c-0.453-4.278-1.163-8.888-0.547-13.184c0.506-3.534,1.815-6.958,2.578-10.437
		c0.612-2.792,1.834-5.927,1.577-8.818c-1.312-0.079-1.647-1.409-2.921-1.616c-0.969-0.157-2.157,0.535-3.141,0.557
		c-1.95,0.042-3.871-0.972-5.778-1.207C456.065,271.06,455.62,273.306,451.905,274.578z"/>
</g>
<g>
	<path style="fill:#D6BC8E;" d="M33.916,158.839c-4.381,6.501-10.945,10.983-14.91,17.676c-3.651,6.164-2.801,15.795,1.664,21.29
		c3.874,4.766,11.936,3.204,17.486,2.859c2.339-0.145,4.651,0.086,6.923,0.27c3.37,0.274,8.109-2.929,4.683-6.089
		c-1.686-1.555-3.91-2.799-5.894-3.912c-1.91-1.071-4.394-1.267-5.869-2.995c-4.024-4.71-1.9-11.176-0.274-16.26
		c1.054-3.296,0.932-7.316-0.104-10.595C36.756,158.347,36.091,157.059,33.916,158.839z"/>
	<path style="fill:#D6BC8E;" d="M133.969,190.562c-1.243,1.288-1.886,3.314-2.832,4.839c-1.275,2.055-2.716,3.881-4.214,5.774
		c-2.794,3.53-5.952,6.989-9.633,9.626c-5.692,4.078-11.181,8.818-16.49,13.402c-9.479,8.183-13.292,20.357-13.547,32.603
		c-0.071,3.377,1.373,11.745,4.662,13.574c0.868-1.49,2.097-2.808,2.879-4.333c0.575-1.12,1.015-3.011,2.312-3.672
		c2.223-1.135,4.05,2.612,5.536,4.019c1.767,1.673,3.123,2.62,3.264,5.264c0.214,4.026-2.857,8.808-0.437,12.598
		c2.302,3.603,11.298,6.208,12.426,0.209c0.326-1.737-0.659-3.496-1.183-5.081c-0.796-2.412-0.875-5.196-0.44-7.684
		c0.409-2.345,1.174-4.189,2.564-6.078c0.698-0.949,2.412-3.848,3.717-3.918c0.985-0.052,2.798,1.862,3.451,2.457
		c1.549,1.406,3.51,2.978,4.806,4.632c1.338,1.708,1.172,2.535,0.479,4.467c-0.947,2.638-1.375,5.558-1.991,8.295
		c-0.487,2.165-0.713,3.053,1.138,4.129c1.775,1.032,3.7,1.539,5.733,1.63c1.447,0.065,3.606,0.435,4.562-1.05
		c0.868-1.348-0.138-2.684-0.535-4.017c-1.255-4.215-1.602-7.845-0.164-11.873c0.716-2.004,2.242-8.668,5.18-8.264
		c2.851,0.392,4.922,3.517,6.575,5.493c3.769,4.505,0.113,11.293,0.301,16.452c0.172,4.698,8.107,4.604,11.521,4.116
		c1.233-0.177,3.548-0.583,4.503-1.569c1.467-1.516-0.444-2.982-1.208-4.503c-1.172-2.333-2.024-4.836-1.909-7.494
		c0.141-3.285,2.309-5.587,1.614-9.086c-0.641-3.223-3.643-6.584-6.064-8.656c-4.976-4.261-10.719-7.64-15.638-11.966
		c-12.056-10.602-7.929-27.607-7.97-41.639c-0.008-2.784,0.834-5.596,0.513-8.371c-0.201-1.742-1.365-2.542-1.723-4.269
		C135.293,190.648,134.887,190.382,133.969,190.562z"/>
	<path style="fill:#D6BC8E;" d="M254.241,141.756c-0.119,2.355-1.873,4.823-2.727,6.941c-1.367,3.393-3.555,5.965-6.627,8.019
		c-1.737,1.161-3.611,1.622-5.561,2.274c-2.543,0.851-4.895,2.152-7.271,3.378c-3.958,2.04-7.514,4.018-10.948,6.837
		c-2.705,2.222-6.062,3.835-8.364,6.497c-2.449,2.83-3.224,6.877-4.682,10.269c-2.812,6.54-4.329,13.24-4.533,20.346
		c-0.072,2.479,0.17,4.941,0.162,7.419c-0.003,1.033-0.44,3.302,0.206,4.167c1.497,2.005,5.981,2.58,8.298,2.64
		c3.409,0.089,6.705,1.012,10.094,1.037c4.557,0.034,8.967-0.876,13.562-0.586c3.963,0.25,7.97-0.036,11.918,0.307
		c3.078,0.268,5.982,1.166,9.093,1.251c4.654,0.128,9.366,0.595,14.018,0.953c4.371,0.338,8.91-0.078,13.3-0.261
		c4.584-0.192,9.187-0.227,13.765-0.559c3.392-0.245,7.558-0.407,9.268-3.671c1.931-3.686-0.801-5.952-4.115-7.329
		c-8.337-3.461-17.891-2.339-26.469-4.5c-6.228-1.569-12.5-3.642-17.137-8.294c-4.614-4.629-6.217-12.062-6.371-18.43
		c-0.154-6.34,2.144-13.486,4.455-19.387c1.518-3.875,2.944-7,2.953-11.167c0.005-2.179-0.076-5.301-1.255-7.257
		C258.014,140.555,255.598,141.967,254.241,141.756z"/>
	<path style="fill:#D6BC8E;" d="M375.559,191.259c-0.195,4.554-4.464,8.235-7.102,11.545c-2.21,2.774-4.37,5.381-7.025,7.672
		c-2.367,2.041-4.987,3.839-7.631,5.595c-4.751,3.156-8.737,7.762-12.168,12.334c-8.319,11.086-12.776,26.024-9.267,39.719
		c1.417,0.196,3.67-2.856,4.806-3.712c1.118-0.843,2.749-1.746,4.013-2.362c1.349,1.52,1.742,3.971,2.738,5.651
		c1.477,2.487,2.485,5.616,2.355,8.578c-0.112,2.558-2.523,6.708-1.363,9.068c1.324,2.694,6.723,1.788,9.01,1.695
		c4.465-0.182,6.691-1.201,6.132-6.16c-0.435-3.855-3.147-7.452-1.85-11.518c0.616-1.931,2.575-3.07,3.926-4.456
		c0.867-0.891,2.639-3.475,4.197-3.061c0.818,0.217,1.963,2.417,2.526,3.066c0.898,1.033,1.586,2.018,2.258,3.222
		c2.219,3.979,3.504,6.909,1.565,11.591c-1.281,3.093-3.893,7.312,0.924,7.311c2.543-0.001,8.761-0.039,9.96-2.956
		c0.497-1.21-0.642-4.481-0.952-5.673c-0.578-2.224-1.504-4.108-1.475-6.443c0.03-2.397,0.818-4.021,2.608-5.666
		c0.863-0.794,1.622-0.995,2.579-1.594c0.744-0.468,1.435-1.583,2.23-1.905c1.978-0.799,3.423,1.791,4.399,3.458
		c2.232,3.812,4.041,7.306,3.293,11.9c-0.286,1.759-1.039,3.785-1.683,5.469c-0.303,0.794-1.374,2.381-1.026,3.282
		c0.497,1.288,2.211,0.721,3.427,0.747c2.758,0.059,8.159,0.132,9.807-2.574c1.898-3.118-0.323-7.071-1.405-9.986
		c-0.801-2.158-0.457-3.241,0.682-5.202c0.947-1.629,2.095-3.152,2.134-5.107c0.057-2.883-2.233-6.821-4.141-8.848
		c-1.33-1.412-3.142-2.267-4.665-3.437c-1.939-1.491-3.702-3.264-5.507-4.91c-4.693-4.278-7.866-8.874-10.325-14.736
		c-4.418-10.531-4.143-21.564-4.595-32.761c-0.167-4.131,2.113-8.119-0.494-11.849C376.972,188.529,375.333,191.022,375.559,191.259
		z"/>
	<path style="fill:#D6BC8E;" d="M475.633,158.368c-0.303,2.525-3.285,4.326-5.181,5.659c-2.427,1.706-4.821,3.475-7.356,5.099
		c-6.46,4.138-5.462,13.668-4.746,20.428c0.512,4.845,2.652,10.749,8.003,11.252c2.468,0.232,5.134,0.544,7.612,0.531
		c3.038-0.016,6.411,0.144,9.428-0.169c2.796-0.29,7.204-0.263,8.127-3.586c1.476-5.316-8.579-6.739-11.299-9.179
		c-3.751-3.363-5.832-9.633-5.706-14.593c0.097-3.808,2.216-6.824,3.456-10.267c0.2-0.554,0.884-2.032,0.623-2.623
		C478.222,160.078,476.314,159.355,475.633,158.368z"/>
</g>
<path style="fill:#AF4545;" d="M3.954,415.291c0.641-0.958,1.989-0.408,3.021-0.285c4.313,0.517,8.628,0.095,12.958,0.097
	c5.684,0.002,11.333,0.772,16.993,0.774c6.053,0.003,12.033-0.589,18.089-0.412c12.076,0.352,24.115-0.292,36.181-0.373
	c6.405-0.043,12.746,0.338,19.15-0.064c2.891-0.181,6.073-0.834,8.957-0.512c2.42,0.269,4.757,0.887,7.235,0.974
	c4.465,0.156,8.964-0.033,13.432-0.014c10.227,0.044,20.417,0.32,30.648,0.185c5.389-0.072,10.773,0.101,16.157,0.297
	c6.943,0.251,13.774-0.569,20.699-0.671c15.79-0.232,31.586-0.769,47.379-0.757c5.033,0.003,10.061-0.235,15.09-0.423
	c4.208-0.157,7.897,0.797,12.046,0.843c10.242,0.112,20.45-1.505,30.694-0.812c9.341,0.632,18.589,1.752,27.972,1.728
	c13.811-0.035,27.517-1.162,41.298-1.338c36.009-0.458,72.015-0.685,108.014,0.203c4.197,0.104,10.95-1.291,14.976,0.519
	c0.773,0.348,2.731,1.507,3.095,2.368c0.367,0.869-1.091,4.54-1.8,5.225c-2.516,2.433-9.402,1.306-12.382,1.426
	c-8.004,0.32-15.902-0.642-23.908-0.618c-9.597,0.03-19.189-0.362-28.787-0.38c-11.066-0.021-22.067,1.046-33.137,0.964
	c-12.357-0.091-24.688-0.788-37.051-0.765c-5.244,0.01-10.508-0.679-15.737-0.551c-4.585,0.113-9.141,0.627-13.732,0.56
	c-9.821-0.146-19.62,0.339-29.451,0.363c-5.408,0.014-10.773,0.081-16.162-0.389c-8.174-0.714-16.192,1.802-23.955-1.745
	c-6.979-3.189-15.034-0.286-22.356,0.226c-3.329,0.233-6.567,0.762-9.868,1.162c-3.031,0.368-6.262-0.107-9.349-0.275
	c-6.746-0.366-13.494-0.741-20.251-0.861c-7.929-0.139-15.831,0.623-23.747,0.104c-7.008-0.46-14.09-0.553-21.114-0.682
	c-7.273-0.133-14.858,0.782-22.138,1.244c-5.178,0.328-10.288,1.562-15.497,1.435c-4.657-0.114-8.321-2.362-13.012-2.158
	c-12.826,0.557-25.739-0.478-38.565,0.704c-7.147,0.658-14.394,1.512-21.582,1.448c-4.93-0.043-9.813-0.622-14.76-0.593
	c-5.274,0.031-10.596,0.405-15.865,0.663c-4.034,0.197-8.177-0.075-12.146,0.44C7.11,425.157,0.968,424.169,3.954,415.291z"/>
<path d="M511.859,415.111c-0.31-4.346-0.804-7.655-3.302-9.541c-0.054-0.573-0.431-1.078-1.17-1.028
	c-0.26,0.017-0.536,0.009-0.815-0.005c-0.781-0.278-1.669-0.488-2.713-0.61c-0.514-0.059-1.032-0.097-1.549-0.136
	c-0.774-0.173-1.54-0.332-2.276-0.441c1.029-8.815,0.786-18.095,0.324-26.851c-0.636-12.086-0.73-24.622-0.001-36.703
	c0.665-11.043,0.159-22.824-0.582-33.863c-0.23-3.437-0.254-6.955-0.302-10.486c0.04-1.991-0.039-4.009-0.148-6.006
	c-0.04-0.948-0.097-1.892-0.164-2.835c-0.084-1.437-0.16-2.85-0.188-4.219c-0.055-2.59,0.332-6.131-0.533-8.848
	c0.265-3.218,1.104-6.785,2.197-9.72c1.521-4.086,3.922-6.158,6.61-9.311c1.896-2.224,6.348-7.022,3.721-10.11
	c-1.272-1.494-3.9-1.599-5.798-1.679c0.926-6.069,0.018-12.06,0.341-18.161c0.197-3.742,1.517-8.424,0.792-12.356
	c0.135-0.039,0.265-0.083,0.385-0.139c0.336-0.155,0.648-0.382,0.912-0.646c0.039-0.039,0.068-0.084,0.103-0.125
	c0.379-0.165,0.748-0.381,1.008-0.603c0.991-0.849,1.148-2.03,1.137-3.338c-0.031-3.415-1.739-6.171-4.919-7.046
	c-3.4-0.936-7.484-1.318-11.324-1.467c1.809-1.777,3.13-4.562,3.773-6.379c1.784-5.04,1.155-9.757-1.288-14.433
	c-2.597-4.973-6.744-8.973-10.805-12.735c-2.021-1.872-3.857-3.651-5.239-6.114c-0.354-0.63-0.604-1.239-0.875-1.815
	c0.209-0.514,0.27-1.099,0.257-1.707c-0.011-0.471-0.027-0.947-0.058-1.422c0.079-0.034,0.163-0.056,0.237-0.097
	c0.473-0.267,0.836-0.658,1.095-1.111c0.777-0.936,1.057-2.256,0.746-3.432c-0.3-1.133-1.175-2.035-2.244-2.467
	c0.137-0.948,0.283-1.893,0.344-2.858c0.081-1.275-0.346-2.822,0.137-4.042c0.741-1.875-2.19-2.941-3.151-1.329
	c-0.74,1.241-0.586,2.226-0.579,3.647c0.007,1.691-0.308,3.323-0.465,4.993c-0.19,0.131-0.374,0.274-0.544,0.44
	c-0.955,0.933-1.321,2.359-1.063,3.645c0.172,0.857,0.674,1.535,1.334,2.034c0.032,0.655,0.096,1.3,0.205,1.918
	c-0.153,0.177-0.277,0.378-0.354,0.592c-2.289,6.439-7.884,7.315-12.707,11.095c-2.802,2.195-5.075,5.641-6.268,8.929
	c-2.716,7.493-1.745,15.81,2.441,22.631c-1.419,0.042-2.836,0.096-4.255,0.171c-3.232,0.173-8.072,0.092-10.554,2.689
	c-3.345,3.501-2.297,10.235,2,10.137c-1.218,3.907-0.364,9.764-0.457,13.321c-0.097,3.719-0.147,7.439-0.253,11.159
	c-0.056,1.987-0.354,3.798,0.279,5.531c-3.305-0.084-8.527-0.446-9.158,3.437c-0.768,4.733,5.805,9.452,8.25,12.783
	c3.409,4.643,3.242,10.211,5.301,15.278c-0.963,2.378-0.53,5.645-0.568,8.304c-0.008,0.544-0.007,1.088-0.013,1.632
	c-0.203,0.115-0.409,0.229-0.622,0.34c-0.076-0.003-0.159-0.016-0.235-0.018c-1.131-0.029-2.288,0.164-3.413,0.271
	c-0.187,0.018-0.373,0.039-0.553,0.066c-0.002-0.023-0.001-0.039-0.006-0.064c-0.165-1.184,1.218-4.529,1.325-6.056
	c0.301-4.34,0.13-9.699-2.3-13.475c-4.741-7.365-12.031-5.438-15.51,2.045c-1.85,3.978-1.809,8.681-0.984,12.886
	c0.363,1.849,0.932,2.442-0.092,4.08c-0.581,0.93-2.258,2.273-3.622,1.624c-1.61-0.768-1.704-2.71-1.353-4.708
	c0.31-0.939,0.552-1.891,0.708-2.843c0.236-0.787,0.456-1.483,0.57-1.98c1.017-4.46,2.763-8.89,3.354-13.44
	c1.142-4.395,1.201-8.97-0.072-13.795c-2.091-7.934-5.625-15.767-11.047-22.045c-11.78-13.636-27.844-22.454-36.499-38.786
	c0.567-0.171,1.107-0.406,1.548-0.648c2.948-1.614,4.862-3.975,5.336-7.355c0.714-5.096-1.754-9.304-6.11-10.696
	c1.196-3.97,0.579-9.184,0.222-13.125c-0.229-2.531,0.34-5.77-2.754-6.785c-3.954-1.297-3.384,3.255-3.34,5.468
	c0.058,2.919-0.309,5.824-0.326,8.741c-0.007,1.203,0.01,2.367,0.072,3.564c0.015,0.29-0.039,1.731,0.055,1.988
	c-5.639,1.418-8.172,7.069-5.771,12.829c1.333,3.197,3.298,4.796,6.586,5.57c-0.681,4.372-2.313,8.093-4.538,11.406
	c-0.822,0.879-1.688,1.73-2.546,2.648c-4.089,4.383-8.953,7.693-13.513,11.563c-8.218,6.975-17.022,15.449-20.934,25.65
	c-0.822,2.144-1.559,4.149-2.194,6.154c-0.391,1.145-0.752,2.294-1.061,3.444c-0.383,1.431-0.727,3.325-0.923,5.39
	c-0.021,0.156-0.046,0.305-0.065,0.462c-0.275,2.347-0.49,4.651-0.184,7.014c0.185,1.418,0.63,2.746,0.949,4.133
	c0.019,0.084,0.316,1.674,0.59,1.291c-0.423,0.908-1.677,1.696-1.994,2.953c-0.603,2.396,0.232,4.791,0.802,7.065
	c0.737,2.936,2.777,7.341-1.585,8.45c-1.552,0.395-3.424,0.073-5.184,0.133c-0.021-0.577-0.042-1.154-0.062-1.731
	c0.6-3.041,0.357-6.29,0.117-9.381c-0.301-3.889-0.404-7.901-0.936-11.768c-0.665-4.843-0.916-9.943-0.963-14.838
	c-0.042-4.349,0.876-8.451,0.547-12.825c-0.344-4.601,0.509-12.314-4.097-15.189c-1.234-0.771-2.7-1.264-4.276-1.552
	c0.456-2.005,0.188-4.247,0.154-6.238c-0.046-2.653,0.058-5.42-0.375-8.063c0.014-0.782-0.024-1.598-0.119-2.463
	c-0.474-4.265-1.748-8.54-3.45-12.469c-2.536-5.854-6.002-13.372-11.571-16.925c-3.125-1.994-5.854-4.508-9.018-6.47
	c-3.626-2.249-7.465-4.19-11.061-6.483c-3.318-2.113-6.509-5.075-9.472-7.678c-1.101-0.967-2.518-2.097-3.867-3.344
	c-0.206-0.603-0.454-1.212-0.732-1.857c-0.595-1.381-1.009-2.77-1.727-4.027c1.584-0.709,3.017-1.777,4.062-3.106
	c4.6-5.842,2.304-17.757-5.139-20.341c-0.024-0.008-0.048-0.011-0.072-0.019c0.589-0.701,0.908-1.58,1.007-2.52
	c0.573-1.187,0.657-2.615,0.141-3.995c-0.439-1.176-1.13-2.129-1.986-2.769c-0.289-3.396-0.627-6.792-0.628-10.195
	c-0.001-3.307,0.094-7.185-0.785-10.545c-0.165-0.98-0.389-1.94-0.709-2.868c-0.245-0.712-0.972-0.931-1.529-0.676
	c-0.487-0.01-0.98,0.211-1.227,0.668c-2.233,4.132-1.103,8.912-1.275,13.42c-0.132,3.472,0.156,6.931,0.453,10.389
	c-2.105,1.439-3.473,3.958-2.904,6.54c0.333,1.511,1.326,2.654,2.597,3.351c-1.617,0.801-3.069,1.932-4.085,3.223
	c-1.719,2.184-2.384,4.409-2.362,6.781c-0.372,2.684-0.083,5.376,0.901,7.102c1.296,2.272,2.723,4.108,4.691,5.242
	c-0.213,0.404-0.374,0.838-0.464,1.284c-0.031,0.154-0.038,0.303-0.052,0.455c-0.102,0.476-0.18,0.96-0.316,1.466
	c-1.795,2.443-4.689,4.646-6.619,6.341c-2.963,2.603-6.154,5.564-9.472,7.678c-3.596,2.291-7.436,4.234-11.061,6.483
	c-3.163,1.962-5.893,4.478-9.018,6.47c-5.569,3.553-9.034,11.071-11.571,16.925c-1.703,3.929-2.977,8.204-3.45,12.469
	c-0.096,0.866-0.132,1.682-0.12,2.463c-0.433,2.644-0.33,5.412-0.375,8.063c-0.034,1.992-0.302,4.234,0.154,6.238
	c-1.576,0.289-3.041,0.781-4.276,1.552c-4.605,2.875-3.752,10.589-4.097,15.189c-0.328,4.374,0.59,8.476,0.547,12.825
	c-0.047,4.895-0.297,9.995-0.963,14.838c-0.531,3.866-0.635,7.879-0.936,11.768c-0.24,3.091-0.482,6.339,0.119,9.381
	c-0.019,0.577-0.041,1.154-0.062,1.731c-1.759-0.06-3.631,0.261-5.184-0.133c-4.361-1.109-2.322-5.514-1.585-8.45
	c0.571-2.274,1.406-4.668,0.802-7.065c-0.316-1.258-1.57-2.045-1.994-2.953c0.274,0.384,0.569-1.206,0.59-1.291
	c0.319-1.387,0.764-2.715,0.949-4.133c0.307-2.363,0.091-4.667-0.184-7.014c-0.018-0.159-0.044-0.306-0.065-0.462
	c-0.196-2.065-0.539-3.959-0.923-5.39c-0.308-1.151-0.669-2.299-1.061-3.444c-0.636-2.005-1.372-4.011-2.194-6.154
	c-3.912-10.201-12.715-18.673-20.934-25.65c-4.561-3.871-9.424-7.181-13.513-11.563c-0.857-0.918-1.722-1.769-2.544-2.648
	c-2.225-3.313-3.857-7.035-4.538-11.406c3.288-0.774,5.254-2.373,6.586-5.57c2.402-5.761-0.131-11.412-5.771-12.829
	c0.095-0.257,0.04-1.697,0.055-1.988c0.062-1.198,0.079-2.361,0.072-3.564c-0.017-2.916-0.384-5.822-0.326-8.741
	c0.044-2.213,0.614-6.764-3.34-5.468c-3.094,1.015-2.526,4.254-2.755,6.785c-0.357,3.94-0.974,9.154,0.222,13.125
	c-4.356,1.393-6.825,5.6-6.11,10.696c0.474,3.38,2.388,5.741,5.336,7.355c0.44,0.241,0.981,0.477,1.548,0.648
	c-8.655,16.333-24.719,25.15-36.499,38.786c-5.422,6.277-8.956,14.11-11.047,22.045c-1.272,4.825-1.213,9.4-0.072,13.795
	c0.592,4.549,2.338,8.978,3.354,13.44c0.113,0.497,0.334,1.193,0.57,1.98c0.156,0.952,0.399,1.905,0.708,2.843
	c0.351,1.997,0.258,3.94-1.353,4.708c-1.363,0.65-3.042-0.693-3.622-1.624c-1.023-1.638-0.454-2.231-0.091-4.08
	c0.825-4.205,0.864-8.908-0.984-12.886c-3.479-7.483-10.769-9.41-15.51-2.045c-2.43,3.776-2.601,9.135-2.3,13.475
	c0.106,1.527,1.491,4.871,1.325,6.056c-0.003,0.025-0.002,0.04-0.006,0.064c-0.181-0.026-0.366-0.048-0.553-0.066
	c-1.126-0.107-2.282-0.3-3.413-0.271c-0.075,0.002-0.157,0.014-0.235,0.018c-0.212-0.109-0.419-0.225-0.622-0.34
	c-0.006-0.544-0.005-1.088-0.013-1.632c-0.038-2.658,0.395-5.925-0.568-8.304c2.06-5.068,1.893-10.635,5.301-15.278
	c2.445-3.33,9.018-8.05,8.25-12.783c-0.631-3.883-5.853-3.522-9.158-3.437c0.633-1.734,0.335-3.544,0.279-5.531
	c-0.106-3.719-0.156-7.439-0.253-11.159c-0.094-3.556,0.761-9.414-0.457-13.321c4.297,0.098,5.345-6.635,2-10.137
	c-2.482-2.598-7.322-2.517-10.554-2.689c-1.419-0.075-2.836-0.13-4.255-0.171c4.186-6.821,5.156-15.138,2.441-22.631
	c-1.192-3.288-3.465-6.732-6.268-8.929c-4.823-3.78-10.418-4.654-12.707-11.095c-0.076-0.214-0.201-0.415-0.352-0.592
	c0.109-0.618,0.173-1.264,0.205-1.918c0.66-0.498,1.162-1.177,1.334-2.033c0.259-1.286-0.107-2.712-1.063-3.645
	c-0.17-0.167-0.355-0.309-0.544-0.44c-0.157-1.671-0.472-3.302-0.465-4.993c0.006-1.421,0.161-2.406-0.579-3.647
	c-0.961-1.613-3.894-0.546-3.151,1.329c0.482,1.219,0.056,2.766,0.137,4.042c0.062,0.965,0.209,1.91,0.344,2.858
	c-1.07,0.433-1.946,1.336-2.244,2.467c-0.311,1.176-0.031,2.495,0.746,3.432c0.259,0.452,0.622,0.844,1.095,1.111
	c0.074,0.042,0.159,0.064,0.237,0.097c-0.03,0.476-0.047,0.952-0.058,1.422c-0.015,0.608,0.048,1.192,0.257,1.707
	c-0.27,0.575-0.52,1.185-0.875,1.815c-1.382,2.463-3.218,4.241-5.239,6.114c-4.061,3.761-8.207,7.762-10.805,12.735
	c-2.443,4.676-3.071,9.393-1.288,14.433c0.643,1.817,1.964,4.603,3.773,6.379c-3.84,0.149-7.924,0.531-11.324,1.467
	c-3.179,0.875-4.888,3.631-4.919,7.046c-0.011,1.308,0.145,2.49,1.137,3.338c0.26,0.222,0.63,0.438,1.008,0.603
	c0.034,0.042,0.065,0.087,0.103,0.125c0.265,0.262,0.576,0.489,0.912,0.646c0.121,0.056,0.251,0.1,0.385,0.139
	c-0.725,3.932,0.594,8.613,0.792,12.356c0.323,6.103-0.585,12.093,0.341,18.161c-1.898,0.079-4.527,0.185-5.798,1.679
	c-2.627,3.088,1.826,7.887,3.721,10.11c2.688,3.153,5.089,5.225,6.61,9.311c1.093,2.936,1.932,6.502,2.197,9.72
	c-0.864,2.717-0.477,6.258-0.533,8.848c-0.029,1.369-0.104,2.782-0.188,4.219c-0.067,0.943-0.124,1.888-0.164,2.835
	c-0.109,1.997-0.188,4.015-0.148,6.006c-0.048,3.53-0.072,7.048-0.302,10.486c-0.74,11.04-1.248,22.82-0.582,33.863
	c0.728,12.082,0.635,24.617-0.002,36.703c-0.462,8.757-0.706,18.037,0.324,26.851c-0.737,0.108-1.502,0.267-2.276,0.441
	c-0.518,0.04-1.036,0.076-1.549,0.136c-1.045,0.121-1.932,0.332-2.713,0.61c-0.279,0.014-0.555,0.022-0.815,0.005
	c-0.739-0.05-1.115,0.455-1.17,1.028c-2.498,1.886-2.992,5.195-3.302,9.541c-0.314,4.399-0.584,10.443,4.576,12.047
	c3.652,1.135,8.157,0.36,11.909,0.222c4.234-0.155,8.409,0.243,12.62-0.306c17.784-2.315,36.42-1.164,54.335-1.075
	c18.092,0.09,36.158-0.503,54.241-0.235c8.777,0.13,17.55,0.38,26.334,0.009c8.096-0.342,16.57,0.39,24.603-0.893
	c5.388,0.071,10.782-0.026,16.162-0.178c6.776-0.19,13.558-0.365,20.337-0.423c4.583-0.04,9.804,0.59,14.65,0.212
	c6.898,0.059,13.947-0.728,20.531-0.72c2.083,0.002,4.138-0.137,6.189-0.286c6.118,1.987,13.732,0.739,20.108,0.795
	c6.779,0.059,13.562,0.233,20.337,0.423c5.38,0.152,10.774,0.249,16.162,0.178c8.031,1.283,16.506,0.551,24.603,0.893
	c8.784,0.371,17.558,0.122,26.334-0.009c18.083-0.269,36.149,0.324,54.241,0.235c17.915-0.089,36.552-1.24,54.336,1.075
	c4.211,0.549,8.385,0.151,12.618,0.306c3.752,0.138,8.258,0.912,11.909-0.222C512.443,425.555,512.174,419.511,511.859,415.111z
	 M462.75,172.174c2.934-3.216,6.728-4.515,10.037-7.094c1.637-1.275,2.956-3.038,3.996-4.914c0.19,0.46,0.326,0.797,0.298,0.741
	c0.827,1.633,1.844,3.116,3.02,4.51c2.222,2.632,5.109,4.694,7.34,7.347c3.737,4.447,7.888,9.677,6.803,15.849
	c-0.716,4.081-3.54,6.579-5.242,10.134c-5.56-0.014-11.083,0.013-16.658-0.019c-2.863-0.016-5.722-0.027-8.579-0.002
	c-0.076-0.102-0.161-0.195-0.254-0.278C459.01,190.495,455.847,179.739,462.75,172.174z M445.661,206.416
	c-0.14-1.083,0.878-2.026,1.648-2.605c1.698-1.277,6.673-1.099,8.864-1.176c6.325-0.22,12.625-0.344,18.972-0.381
	c6.674-0.039,13.19-0.027,19.831,0.411c2.454,0.162,5.818-0.598,8.08,0.405c2.079,0.922,4.669,4.215,1.691,5.132
	c-0.121,0.038-0.208,0.105-0.308,0.161c-2.485-2.354-6.933-2.06-10.178-2.298c-6.534-0.478-13.338-0.598-19.866-0.06
	c-5.994,0.494-12.004,1.001-18.015,1.372c-2.752,0.17-5.499,0.105-8.253,0.159C446.775,207.564,445.864,207.984,445.661,206.416z
	 M498.341,222.794c-0.646-3.134-2.13-8.055-5.912-8.546c-10.692-1.387-7.774,20.74-8.411,27.815c-1.12-0.063-2.24-0.127-3.361-0.188
	c1.215-5.915,0.925-13.173,0.025-18.968c-0.546-3.521-1.827-7.311-5.725-7.962c-10.896-1.821-8.038,19.837-8.082,26.552
	c-0.649,0.003-1.298,0.001-1.947,0.008c1.014-2.591,0.421-8.586,0.374-10.107c-0.115-3.744,0.863-15.575-4.543-16.91
	c-5.635-1.393-8.321,6.457-8.859,10.356c-0.584,4.228,0.168,8.123,0.22,12.349c0.018,1.489-0.064,3.127,0.446,4.531
	c-1.032,0.022-2.065,0.043-3.096,0.063c0.906-4.496,0.461-9.095,0.354-13.672c-0.065-2.749-0.197-5.502-0.172-8.251
	c0.014-1.54-0.384-6.249,0.495-7.327c1.482-1.819,9.446-1.069,11.914-1.35c4.726-0.541,9.573-0.841,14.328-1.153
	c5.292-0.348,10.894-0.146,16.168,0.292c1.9,0.157,5.356-0.211,7.113,0.469c2.778,1.073,2.282,3.783,2.178,6.1
	c-0.382,8.537-1.012,17.207,0.332,25.72c-1.183-0.04-2.364-0.048-3.55-0.074C499.884,236.486,499.572,228.767,498.341,222.794z
	 M487.241,232.332c0.025-2.629-0.03-5.265,0.298-7.88c0.261-2.083,0.496-5.704,2.637-6.842c0.815-0.435,3.447,0.119,3.814,1.013
	c0.463,1.128,0.843,2.283,1.14,3.466c0.657,2.403,0.657,4.684,0.857,7.141c0.358,4.395-0.038,8.941,0.772,13.273
	c-0.878-0.015-1.76-0.048-2.632-0.055c-2.272-0.021-4.541-0.105-6.812-0.213C487.753,238.928,487.207,235.739,487.241,232.332z
	 M478.205,241.748c-2.552-0.129-5.107-0.226-7.669-0.25c-0.034-0.165-0.1-0.318-0.19-0.458c0.034-4.107-0.139-8.21-0.122-12.318
	c0.006-1.391,0.123-2.766,0.193-4.153c0.058-1.155-0.206-2.126,0.285-3.26c0.627-1.448,3.045-2.093,4.535-2.121
	c1.593-0.031,1.81,0.803,2.451,1.98c1.679,3.082,0.549,8.613,0.208,11.983C477.61,235.973,477.677,238.935,478.205,241.748z
	 M462.093,241.545c-2.405,0.036-4.813,0.082-7.222,0.132c0.563-2.19,0.212-4.808,0.087-7.012c-0.13-2.286-0.691-4.504-0.663-6.802
	c0.022-1.715,0.263-4.253,0.758-5.773c0.403-1.237,2.736-4.951,4.213-4.651c4.896,0.992,3.253,13.834,2.925,17.57
	C462.031,236.886,461.189,239.71,462.093,241.545z M448.241,254.83c-1.804-2.273-4.44-3.764-6.023-6.242
	c-1.911-2.99,2.3-1.638,4.129-1.614c2.095,0.029,4.192-0.006,6.289-0.009c9.338-0.014,18.661-0.284,28.008-0.439
	c4.515-0.074,8.965,0.478,13.483,0.415c3.241-0.044,8.765-0.628,12.247,0.487c-1.247,2.254-4.679,5.479-5.596,6.503
	c-1.764,1.972-3.034,4.52-4.004,6.97c-0.831,2.101-2.029,5.596-2.297,8.797c-3.48-1.071-7.824-0.36-11.284-0.616
	c-3.697-0.274-7.663-0.274-11.359,0.023c-2.8,0.226-5.546,0.512-8.347,0.69c-3.148,0.2-6.671-0.212-9.808,0.471
	C453.005,264.667,452.071,259.658,448.241,254.83z M493.535,306.261c0.632,11.197,0.758,23.111,0.136,34.303
	c-0.697,12.511-0.165,25.217,0.164,37.728c0.214,8.086-0.878,16.765-0.172,24.897c-2.121,0.006-4.243,0.006-6.382-0.102
	c-7.743-0.389-15.606-1.122-23.35-0.852c-2.096,0.073-4.188,0.123-6.281,0.175c0.474-3.156,0.217-6.408,0.204-9.627
	c-0.016-4.171,0.206-8.369,0.12-12.525c-0.195-9.454-0.964-18.995-1.424-28.45c-0.919-18.884-1.738-37.781-2.21-56.69
	c-0.113-4.497-0.387-8.978-0.443-13.484c-0.043-3.534-2.122-6.021,1.927-7.121c2.68-0.728,5.669,0.18,8.392,0.017
	c5.505-0.328,11.009-0.803,16.529-0.638c2.806,0.084,5.446,0.623,8.236,0.651c1.523-0.255,3.038-0.201,4.548,0.135
	c0.003,0.074,0.005,0.144,0.01,0.232c0.551,1.115,0.713,2.768,0.737,4.47C492.524,288.069,493.052,297.73,493.535,306.261z
	 M370.147,178.601c-1.142-4.593,2.685-8.105,7.248-7.258c4.084,0.758,5.681,4.232,4.532,8.012c-0.65,2.135-2.295,3.573-4.165,4.606
	C374.05,183.889,371.182,182.765,370.147,178.601z M335.467,244.162c3.394-9.106,9.341-16.83,16.377-23.46
	c1.145-0.948,2.316-1.883,3.541-2.804c3.937-2.958,7.899-6.221,11.424-9.863c1.857-1.746,3.616-3.588,5.212-5.59
	c1.294-1.622,2.242-3.131,3.028-5.071c0.164-0.406,0.301-0.838,0.428-1.279c0.534-1.085,1.024-2.192,1.445-3.334
	c1.062,1.767,2.227,3.441,3.461,5.056c4.067,8.743,12.975,16.076,19.854,21.44c4.565,3.561,9.427,7.53,13.391,12.111
	c2.945,3.802,5.373,7.883,7.185,12.73c0.807,3.131,1.147,6.358,1.862,9.487c0.046,3.384,0.151,6.773-0.647,10.026
	c-0.114,0.464-0.247,0.906-0.387,1.339c-0.367,1.052-0.748,2.097-1.109,3.133c-1.544-2.828-3.638-5.642-5.148-7.425
	c-0.497-0.586-1.337-0.413-1.853,0c-3.114,2.492-8.715,5.698-9.763,9.871c-0.847,3.376,2.986,9.327,2.264,13.044
	c-0.375,0.708-0.805,1.375-1.743,1.743c-2.768,1.086-5.845,1.137-8.336-0.485c-0.21-0.137-0.438-0.213-0.672-0.247
	c1.947-3.42,3.278-7.577,2.729-11.277c-0.591-3.988-4.663-9.714-7.149-12.648c-0.497-0.586-1.337-0.413-1.853,0
	c-3.114,2.492-8.714,5.698-9.763,9.871c-0.947,3.772,3.968,10.769,1.82,14.257c-0.023,0.015-0.04,0.034-0.063,0.049
	c-1.013,0.643-2.046,0.667-3.189,0.814c-1.752,0.226-3.15,0.041-4.849-0.391c-0.178-0.046-0.375-0.056-0.576-0.049
	c-0.002-0.035-0.007-0.058-0.008-0.098c-0.005-0.13,0.011-0.277,0.039-0.432c1.976-3.437,3.335-7.64,2.782-11.374
	c-0.591-3.988-4.663-9.714-7.149-12.648c-0.497-0.586-1.337-0.413-1.853,0c-3.114,2.492-8.714,5.698-9.763,9.871
	c-0.844,3.361,2.953,9.275,2.274,12.994c-0.481,0.596-1.003,1.073-2.036,1.367c-1.038,0.297-2.388,0.465-3.468,0.546
	c-2.416,0.18-5.181,0.578-7.348-0.419c-0.025-0.011-0.054-0.014-0.079-0.024c0.005-0.1,0.008-0.2,0.027-0.311
	c1.976-3.437,3.334-7.64,2.782-11.374c-0.59-3.989-4.662-9.714-7.147-12.648c-0.497-0.586-1.337-0.414-1.853,0
	c-1.437,1.15-3.4,2.453-5.204,3.931c-0.13-0.269-0.233-0.565-0.342-0.852c-0.073-0.349-0.152-0.707-0.234-1.09
	C332.545,256.733,333.338,249.875,335.467,244.162z M321.978,334.79c-0.043-11.908,0.536-23.913,0.355-35.768
	c-0.046-3.02-0.144-6.041-0.251-9.062c2.753,0.566,6.055-0.06,8.383-0.666c1.375-0.358,3.347-0.871,4.231-2.325
	c0.123-0.202,0.213-0.424,0.286-0.654c0.945-1.722,0.291-4.838-0.062-6.891c-0.673-3.919-2.858-6.756-0.137-10.591
	c1.31-1.846,3.472-3.842,5.387-5.345c0.961,1.65,1.71,3.523,2.603,5.161c1.015,1.862,2.457,3.646,2.608,5.852
	c0.218,3.167-1.276,6.327-2.222,9.474c-0.235,0.465-0.458,0.931-0.627,1.396c-0.224,0.617-0.2,1.217-0.011,1.745
	c0.011,0.046,0.032,0.087,0.051,0.128c0.567,1.355,2.241,1.726,3.51,2.162c1.389,0.479,2.831,0.784,4.303,0.81
	c1.937,0.033,3.894-0.19,5.786-0.601c2.225-0.482,4.736-0.907,5.607-3.361c0.168-0.47,0.251-0.951,0.259-1.417
	c0.201-1.71-0.241-3.867-0.506-5.416c-0.673-3.919-2.858-6.756-0.137-10.591c1.31-1.846,3.472-3.842,5.387-5.345
	c0.963,1.65,1.71,3.523,2.603,5.161c1.016,1.862,2.457,3.646,2.608,5.852c0.218,3.167-1.276,6.327-2.222,9.474
	c-0.235,0.465-0.458,0.931-0.627,1.396c-0.224,0.617-0.2,1.217-0.011,1.745c0.01,0.046,0.031,0.086,0.051,0.128
	c0.684,1.427,2.231,1.739,3.661,2.041c1.712,0.362,3.502,0.243,5.218-0.033c1.748-0.282,3.632-0.762,5.108-1.791
	c2.639-1.84,1.629-5.375,1.17-8.037c-0.673-3.919-2.858-6.756-0.137-10.591c1.31-1.846,3.472-3.842,5.387-5.345
	c0.963,1.65,1.71,3.523,2.603,5.161c1.016,1.862,2.457,3.646,2.608,5.852c0.243,3.524-1.434,7.085-2.508,10.365
	c-0.262,0.799-0.806,2.121-0.316,2.922c0.4,0.655,1.519,1.178,2.187,1.458c0.363,0.152,0.723,0.319,1.086,0.474
	c1.874,1.12,4.498,1.049,6.532,0.769c2.023-0.279,4.914-0.815,6.297-2.495c0.374-0.455,0.626-1.001,0.803-1.584
	c1.012-1.706,0.336-4.896-0.023-6.983c-0.673-3.919-2.858-6.756-0.137-10.591c1.31-1.846,3.472-3.842,5.387-5.345
	c0.963,1.65,1.71,3.523,2.603,5.161c1.016,1.862,2.457,3.646,2.608,5.852c0.023,0.327,0.017,0.655,0.005,0.982
	c-0.458,2.061-1.442,4.605-1.739,6.984c-0.17,0.503-0.336,1.006-0.487,1.509c-0.235,0.465-0.458,0.931-0.627,1.396
	c-0.224,0.617-0.2,1.217-0.011,1.745c0.01,0.046,0.031,0.086,0.051,0.128c0.444,1.058,1.575,1.78,2.781,1.656
	c1.739,0.892,4.594,0.594,6.099,0.352c1.631-0.262,3.696-0.68,5.017-1.828c2.7-0.861,1.72-5.332,1.261-7.999
	c-0.185-1.073-0.481-2.063-0.761-3.017c-0.266-2.653-0.359-5.34,0.719-7.652c0.024-0.051,0.054-0.1,0.079-0.152
	c0.833-1.122,1.953-2.287,3.132-3.358c0.975-0.488,2.019-0.585,2.984-0.046c0.571,1.164,1.106,2.356,1.7,3.448
	c0.357,0.656,0.766,1.302,1.155,1.961c0.327,1.918,0.334,3.952,0.265,5.721c-0.086,2.205-0.804,4.793-0.902,7.235
	c-0.043,0.137-0.09,0.274-0.131,0.411c-0.235,0.465-0.458,0.931-0.627,1.396c-0.224,0.617-0.2,1.217-0.011,1.745
	c0.01,0.046,0.031,0.086,0.051,0.128c0.328,0.784,1.039,1.372,1.873,1.582c1.784,1.176,4.925,0.792,6.866,0.504
	c0.339-0.05,0.676-0.109,1.005-0.186c-0.005,5.992,0.052,11.987,0.037,17.983c-0.024,8.719,1.015,17.472,1.355,26.194
	c0.308,7.882,0.295,15.758,0.633,23.65c0.352,8.248,1.364,16.898,0.766,25.124c-0.49,6.756-0.726,13.648-0.431,20.447
	c-1.718,0.029-3.435,0.063-5.153,0.082c0.152-5.511,0.146-11.035,0.202-16.551c0.056-5.488,0.241-11.618-0.701-17.037
	c-0.901-5.182-4.285-9.3-8.048-12.776c-1.938-1.789-3.967-3.508-5.535-5.666c-1.028-1.415-1.47-3.265-3.021-4.195
	c-0.795-0.476-2.121-0.072-2.291,0.932c-1.087,6.406-6.951,7.755-10.539,12.182c-2.791,3.443-3.747,7.817-4.289,12.126
	c-0.659,5.234,0.015,10.514,0.176,15.75c0.156,5.096,0.08,10.197,0.044,15.3c-2.34-0.005-4.681-0.019-7.021-0.049
	c0.153-5.517,0.146-11.047,0.203-16.569c0.056-5.488,0.241-11.618-0.701-17.037c-0.901-5.182-4.286-9.3-8.048-12.776
	c-1.938-1.789-3.967-3.508-5.535-5.666c-1.028-1.415-1.47-3.265-3.021-4.195c-0.795-0.476-2.121-0.072-2.291,0.932
	c-1.087,6.406-6.951,7.755-10.539,12.182c-2.791,3.443-3.747,7.817-4.289,12.126c-0.659,5.234,0.016,10.514,0.176,15.75
	c0.154,5.032,0.081,10.069,0.046,15.108c-2.341,0.062-4.684,0.123-7.022,0.16c0.153-5.521,0.147-11.057,0.203-16.585
	c0.056-5.488,0.239-11.618-0.701-17.037c-0.901-5.182-4.286-9.3-8.048-12.776c-1.938-1.789-3.967-3.508-5.535-5.666
	c-1.028-1.415-1.47-3.265-3.021-4.195c-0.795-0.476-2.121-0.072-2.291,0.932c-1.087,6.406-6.951,7.755-10.539,12.182
	c-2.791,3.443-3.747,7.817-4.289,12.126c-0.659,5.234,0.016,10.514,0.176,15.75c0.16,5.192,0.076,10.391,0.043,15.589
	c-2.648,0.044-5.404-0.001-8.039,0.17c0.284-5.104,0.087-10.299,0.075-15.361c-0.011-5.629,0.247-11.362-0.341-16.965
	C320.671,358.932,322.022,346.751,321.978,334.79z M443.551,402.647c-9.025,0.078-18.047,0.051-27.106,0.048
	c-0.07-5.12-0.309-10.199-0.691-15.309c-0.419-5.58-0.972-11.571-0.027-17.119c0.513-3.018,1.259-6.194,3.331-8.534
	c1.422-1.607,3.29-2.59,4.914-3.972c2.015-1.715,3.882-4.199,5.014-6.806c0.594,1.056,1.171,2.251,1.734,2.907
	c1.089,1.268,2.268,2.648,3.502,3.773c4.959,4.519,8.558,8.557,8.797,15.708c0.184,5.517,0.187,11.003,0.319,16.522
	C443.442,394.252,442.777,398.388,443.551,402.647z M402.521,402.596c-6.832-0.101-13.66-0.25-20.481-0.275
	c-2.2-0.008-4.409,0.025-6.622,0.073c-0.074-5.018-0.312-9.999-0.688-15.008c-0.417-5.58-0.972-11.571-0.027-17.119
	c0.513-3.018,1.259-6.194,3.331-8.534c1.422-1.607,3.29-2.59,4.916-3.972c2.015-1.715,3.881-4.199,5.014-6.806
	c0.594,1.056,1.17,2.251,1.735,2.907c1.088,1.268,2.268,2.648,3.501,3.773c4.959,4.519,8.557,8.557,8.797,15.708
	c0.184,5.517,0.188,11.003,0.319,16.522C402.418,394.235,401.761,398.354,402.521,402.596z M361.51,402.677
	c-2.621,0.011-5.234-0.019-7.829-0.143c-6.332-0.301-12.892,0.015-19.279,0.293c-0.067-5.164-0.308-10.288-0.693-15.441
	c-0.419-5.58-0.972-11.571-0.027-17.119c0.513-3.018,1.259-6.194,3.331-8.534c1.422-1.607,3.29-2.59,4.916-3.972
	c2.015-1.715,3.882-4.199,5.014-6.806c0.594,1.056,1.17,2.251,1.735,2.907c1.089,1.268,2.268,2.648,3.502,3.773
	c4.959,4.519,8.557,8.557,8.795,15.708c0.185,5.517,0.188,11.003,0.319,16.522C361.397,394.262,360.728,398.407,361.51,402.677z
	 M251.863,134.478c-1.468-2.403-1.8-4.207-1.266-6.982c0.667-2.469,1.931-4.547,5.198-5.418c6.833-1.823,10.657,9.442,6.63,13.879
	C259.516,139.161,253.849,137.728,251.863,134.478z M208.273,206.842c-0.152-2.479-0.5-4.578-0.107-7.097
	c0.711-4.556,2.217-8.863,4.001-13.092c1.596-3.784,3.449-7.908,6.811-10.415c3.165-2.359,6.334-4.979,9.756-6.987
	c6.261-3.674,11.733-7.538,17.223-12.224c3.965-3.385,7.653-7.398,9.021-12.451c0.09-0.16,0.177-0.322,0.255-0.488
	c0.115-0.241,0.265-0.514,0.364-0.74c0.214,0.095,0.465,0.217,0.472,0.221c-0.03-0.026,0.129,0.273,0.167,0.325
	c0.052,0.067,0.103,0.133,0.155,0.2c0.005,0.05,0.011,0.109,0.026,0.198c0.046,0.569,0.414,1.037,0.893,1.209
	c1.545,4.62,5.023,8.348,8.743,11.524c5.489,4.686,10.961,8.551,17.223,12.224c3.423,2.007,6.591,4.628,9.756,6.987
	c3.362,2.507,5.215,6.631,6.811,10.415c1.784,4.229,3.29,8.535,4.001,13.092c0.392,2.519,0.044,4.618-0.107,7.097
	c-0.157,2.572,0.312,4.17,0.933,6.641c-0.015,0.17-0.03,0.339-0.05,0.502c-0.318,2.533-0.048,3.035-2.483,3.551
	c-2.141,0.455-4.606-0.274-6.832,0.014c-10.747,1.388-22.09,0.031-32.838,1.835c-3.148-0.063-6.308-0.039-9.501-0.019
	c-1.194,0.007-2.412-0.003-3.638-0.017c-10.683-1.75-21.945-0.42-32.619-1.799c-2.225-0.287-4.691,0.441-6.832-0.014
	c-2.436-0.518-2.165-1.018-2.483-3.551c-0.021-0.163-0.036-0.332-0.051-0.502C207.961,211.012,208.431,209.414,208.273,206.842z
	 M197.227,234.134c0.194-2.347-0.289-7.618,1.343-9.435c0.087-0.096,0.187-0.171,0.281-0.255c3.617-0.148,7.279,0.051,10.919-0.023
	c1.251,0.065,2.497,0.056,3.628,0.079c7.856,0.155,15.79,0.657,23.618,0.203c5.288,0.518,10.787,0.243,15.946,0.275
	c6.245,0.039,12.354,0.1,18.501-0.543c8.965,0.892,18.108,0.243,27.146,0.065c1.131-0.023,2.376-0.014,3.628-0.079
	c3.64,0.075,7.303-0.125,10.919,0.023c0.094,0.084,0.194,0.16,0.281,0.255c1.632,1.817,1.148,7.088,1.344,9.435
	c0.003,0.038,0.003,0.076,0.006,0.114c-9.22-0.785-18.503-0.716-27.73-1.225c-5.047-0.278-10.159-0.691-15.23-0.776
	c-6.418-0.757-13.714,0.546-19.878,0.414c-1.861-0.04-3.711-0.019-5.555,0.034c-1.35-0.271-2.726-0.478-4.172-0.482
	c-5.736-0.022-11.546,0.494-17.272,0.81c-9.228,0.509-18.51,0.44-27.73,1.225C197.223,234.209,197.223,234.171,197.227,234.134z
	 M197.768,243.984c-0.169-2.161-0.464-4.28-0.573-6.422c2.778,1.007,6.103,0.795,9.025,0.764c5.448-0.057,11.057-0.086,16.501-0.444
	c5.554-0.366,11.06-0.563,16.543-0.961c4.571,0.115,9.182-0.01,13.732,0.404c4.21,0.382,8.696-0.308,12.961-0.317
	c1.868-0.005,3.545-0.007,5.163-0.221c6.018,0.486,12.064,0.695,18.167,1.096c5.444,0.358,11.052,0.387,16.501,0.444
	c2.922,0.031,6.246,0.243,9.025-0.764c-0.108,2.143-0.403,4.262-0.573,6.422c-0.581,7.393-0.081,14.806-0.057,22.176
	c0.013,3.832,0.371,7.6,0.4,11.425c0.024,3.208-0.032,5.84,1.37,8.685c-0.066,4.589-0.062,9.195-0.339,13.761
	c-0.705,11.574-0.902,23.114-0.965,34.759c-0.066,12.134-1.459,24.436-0.352,36.516c0.811,8.866-0.037,17.769,0.029,26.649
	c0.013,1.712-0.667,4.192-0.871,6.29c-4.482-0.297-8.85-0.762-13.373-0.717c-0.397,0.005-0.794,0.007-1.19,0.011
	c1.079-6.11-0.755-13.446-0.952-19.5c-0.221-6.778-0.447-13.51-0.914-20.285c-0.389-5.642-0.547-11.301-1.015-16.934
	c-0.318-3.84-0.421-7.682-0.667-11.531c-0.257-4.018-0.998-7.353,1.665-10.68c3.083-3.854,5.551-7.582,3.596-12.715
	c-0.945-2.483-2.826-4.563-4.868-6.186c-1.583-1.258-4.192-1.688-5.587-2.847c-1.572-1.306-0.607-4.14-0.863-6.184
	c-0.232-1.84-0.861-3.484-1.99-4.949c-1.383-1.793-3.965-3.871-6.073-4.871c-0.557-0.263-1.183-0.531-1.803-0.65
	c-0.233-5.104-0.032-10.036-2.457-14.853c-2.095-4.164-4.789-6.448-8.356-8.322c-0.43-0.746-0.977-1.469-1.91-2.157
	c-2.965-2.189-7.296-2.515-10.853-2.227c-4.858,0.391-8.415,1.804-11.631,3.976c-3.971,1.957-6.911,4.26-9.162,8.73
	c-2.425,4.816-2.224,9.748-2.457,14.853c-0.62,0.12-1.247,0.387-1.803,0.65c-2.108,0.999-4.69,3.077-6.073,4.871
	c-1.129,1.463-1.759,3.108-1.99,4.949c-0.257,2.045,0.708,4.878-0.863,6.184c-1.395,1.159-4.005,1.589-5.587,2.847
	c-2.041,1.623-3.922,3.703-4.868,6.186c-1.955,5.135,0.513,8.862,3.596,12.715c2.663,3.328,1.922,6.662,1.665,10.68
	c-0.246,3.85-0.349,7.691-0.667,11.531c-0.468,5.632-0.626,11.292-1.015,16.934c-0.466,6.775-0.692,13.507-0.914,20.285
	c-0.197,6.054-2.031,13.391-0.952,19.5c-0.397-0.005-0.794-0.007-1.191-0.011c-4.523-0.043-8.891,0.421-13.373,0.717
	c-0.204-2.097-0.884-4.577-0.871-6.29c0.066-8.88-0.782-17.783,0.029-26.649c1.106-12.08-0.286-24.383-0.352-36.516
	c-0.063-11.644-0.26-23.185-0.965-34.759c-0.278-4.567-0.274-9.172-0.339-13.761c1.402-2.844,1.346-5.477,1.37-8.685
	c0.029-3.825,0.388-7.593,0.4-11.425C197.849,258.79,198.349,251.377,197.768,243.984z M293.544,403.586
	c-3.471,0.03-6.943,0.051-10.417,0.042c-1.195-0.003-2.465-0.063-3.758-0.105c0.676-4.254,1.228-8.385,0.927-12.933
	c-0.372-5.619-0.543-12.258-2.455-17.594c-1.829-5.103-5.487-9.329-9.4-13.004c-2.729-2.562-5.283-4.408-6.923-7.892
	c-1.103-2.341-1.01-4.6-2.254-6.697c0.35-0.69,0.263-1.551-0.577-2.007c-1.013-0.549-2.615-0.618-3.65-0.081
	c-0.275,0.143-0.573,0.389-0.825,0.687c-0.358,0.099-0.707,0.313-0.993,0.683c-1.77,2.296-1.499,4.805-2.729,7.417
	c-1.641,3.483-4.195,5.331-6.923,7.892c-3.914,3.675-7.572,7.901-9.4,13.004c-1.913,5.336-2.084,11.975-2.455,17.594
	c-0.301,4.548,0.251,8.679,0.927,12.933c-1.293,0.042-2.564,0.102-3.758,0.105c-3.474,0.009-6.947-0.013-10.417-0.042
	c-0.143-22.764,3.822-45.515,2.365-68.298c-0.251-3.929,0.001-8.193-2.28-11.624c-1.88-2.828-4.999-4.557-4.801-8.541
	c0.255-5.162,4.992-8.401,9.359-9.71c3.017-0.904,2.978-1.338,3.091-4.829c0.139-4.333,0.966-7.723,5.672-9.105
	c1.485-0.437,2.92-0.19,4.231-1.07c0.681-0.456,1.258-1.216,1.196-2.086c-0.344-4.892-1.554-9.133,0.007-14.102
	c0.888-2.826,2.445-4.961,4.341-6.811c0.115-0.086,0.229-0.171,0.344-0.257c3.27-2.421,6.154-4.211,10.215-4.986
	c7.257-1.386,11.67,1.704,17.624,4.898c0.07,0.038,0.146,0.047,0.222,0.044c2.039,1.917,3.717,4.131,4.654,7.111
	c1.562,4.968,0.352,9.211,0.007,14.102c-0.062,0.871,0.517,1.63,1.196,2.086c1.31,0.879,2.745,0.633,4.231,1.07
	c4.706,1.382,5.533,4.772,5.672,9.105c0.113,3.491,0.074,3.924,3.091,4.829c4.367,1.31,9.103,4.549,9.359,9.71
	c0.197,3.984-2.921,5.713-4.801,8.541c-2.281,3.431-2.028,7.695-2.28,11.624C289.723,358.072,293.686,380.823,293.544,403.586z
	 M275.605,403.521c-0.996,0.048-1.976,0.154-2.924,0.342c-1.933,0.052-3.827,0.212-5.489,0.37
	c-5.602,0.534-11.208,0.365-16.823,0.761c-2.508,0.177-5.009,0.19-7.506,0.159c-0.008-0.005-0.013-0.011-0.021-0.016
	c-1.893-1.11-4.131-1.504-6.44-1.615c0.222-2.978-0.547-6.788-0.525-8.372c0.09-6.201,0.196-14.545,2.28-20.43
	c2.265-6.399,6.946-10.568,11.647-15.219c3.872-3.831,4.029-8.319,6.199-12.854c2.169,4.535,2.327,9.024,6.199,12.854
	c4.701,4.652,9.381,8.819,11.647,15.219c2.084,5.885,2.19,14.229,2.28,20.43C276.151,396.734,275.382,400.544,275.605,403.521z
	 M130.079,179.355c-1.15-3.78,0.447-7.255,4.532-8.012c4.563-0.846,8.391,2.665,7.248,7.258c-1.034,4.164-3.902,5.287-7.615,5.36
	C132.374,182.928,130.729,181.491,130.079,179.355z M90.365,264.953c-0.139-0.433-0.274-0.875-0.387-1.339
	c-0.797-3.254-0.692-6.642-0.647-10.026c0.715-3.128,1.055-6.357,1.862-9.487c1.812-4.847,4.24-8.928,7.185-12.73
	c3.963-4.581,8.825-8.551,13.391-12.111c6.878-5.365,15.787-12.697,19.854-21.44c1.234-1.615,2.4-3.288,3.461-5.056
	c0.421,1.14,0.911,2.248,1.445,3.334c0.127,0.44,0.262,0.872,0.428,1.278c0.786,1.94,1.734,3.449,3.028,5.071
	c1.596,2,3.355,3.843,5.212,5.59c3.525,3.642,7.487,6.905,11.424,9.863c1.225,0.92,2.396,1.856,3.541,2.804
	c7.038,6.63,12.984,14.354,16.377,23.46c2.129,5.712,2.922,12.569,1.657,18.491c-0.082,0.383-0.161,0.741-0.234,1.09
	c-0.111,0.287-0.212,0.584-0.342,0.852c-1.804-1.478-3.767-2.782-5.204-3.931c-0.517-0.414-1.356-0.586-1.853,0
	c-2.485,2.934-6.558,8.659-7.149,12.648c-0.552,3.734,0.805,7.937,2.782,11.374c0.021,0.112,0.023,0.211,0.027,0.311
	c-0.025,0.01-0.054,0.013-0.079,0.024c-2.166,0.997-4.933,0.6-7.348,0.419c-1.08-0.081-2.43-0.25-3.468-0.546
	c-1.032-0.294-1.555-0.771-2.036-1.367c-0.679-3.719,3.118-9.633,2.274-12.994c-1.048-4.173-6.649-7.38-9.763-9.871
	c-0.517-0.413-1.356-0.586-1.853,0c-2.485,2.934-6.558,8.66-7.149,12.648c-0.552,3.734,0.805,7.937,2.782,11.374
	c0.027,0.155,0.043,0.302,0.039,0.432c-0.001,0.039-0.006,0.063-0.008,0.098c-0.201-0.007-0.399,0.005-0.576,0.049
	c-1.699,0.432-3.098,0.616-4.849,0.391c-1.143-0.147-2.176-0.171-3.189-0.814c-0.023-0.015-0.041-0.034-0.063-0.049
	c-2.149-3.489,2.767-10.486,1.82-14.257c-1.048-4.173-6.649-7.38-9.763-9.871c-0.517-0.413-1.356-0.586-1.853,0
	c-2.485,2.934-6.558,8.66-7.149,12.648c-0.547,3.7,0.784,7.857,2.73,11.277c-0.234,0.034-0.462,0.112-0.672,0.247
	c-2.491,1.622-5.567,1.569-8.336,0.485c-0.937-0.367-1.367-1.034-1.743-1.743c-0.722-3.716,3.111-9.668,2.264-13.044
	c-1.048-4.173-6.649-7.38-9.763-9.871c-0.517-0.413-1.356-0.586-1.853,0c-1.51,1.783-3.604,4.596-5.148,7.425
	C91.114,267.051,90.732,266.005,90.365,264.953z M62.903,307.123c-0.016-5.997,0.041-11.991,0.036-17.983
	c0.328,0.076,0.666,0.136,1.005,0.186c1.942,0.287,5.083,0.672,6.867-0.504c0.834-0.21,1.544-0.798,1.873-1.582
	c0.021-0.042,0.041-0.082,0.051-0.128c0.189-0.528,0.212-1.129-0.011-1.745c-0.169-0.466-0.392-0.932-0.627-1.396
	c-0.041-0.137-0.088-0.274-0.131-0.411c-0.098-2.442-0.817-5.031-0.902-7.235c-0.07-1.768-0.063-3.802,0.265-5.721
	c0.388-0.658,0.797-1.305,1.155-1.96c0.595-1.091,1.129-2.283,1.7-3.448c0.965-0.538,2.007-0.443,2.984,0.046
	c1.179,1.071,2.299,2.235,3.132,3.358c0.025,0.05,0.055,0.1,0.079,0.152c1.078,2.313,0.984,5,0.719,7.652
	c-0.279,0.953-0.576,1.943-0.761,3.017c-0.458,2.668-1.438,7.138,1.261,7.999c1.321,1.15,3.386,1.566,5.017,1.828
	c1.504,0.242,4.36,0.539,6.099-0.352c1.205,0.123,2.336-0.598,2.781-1.656c0.021-0.042,0.041-0.082,0.051-0.128
	c0.189-0.528,0.212-1.129-0.011-1.745c-0.169-0.466-0.392-0.932-0.627-1.396c-0.151-0.503-0.317-1.006-0.487-1.509
	c-0.299-2.378-1.281-4.922-1.739-6.984c-0.011-0.327-0.018-0.655,0.005-0.982c0.152-2.206,1.592-3.989,2.608-5.852
	c0.893-1.638,1.641-3.51,2.603-5.161c1.915,1.503,4.076,3.499,5.387,5.345c2.722,3.834,0.537,6.672-0.137,10.591
	c-0.358,2.087-1.033,5.277-0.023,6.983c0.177,0.584,0.429,1.13,0.803,1.584c1.383,1.68,4.273,2.217,6.297,2.495
	c2.032,0.281,4.657,0.351,6.532-0.769c0.363-0.155,0.723-0.323,1.086-0.474c0.668-0.281,1.787-0.803,2.187-1.458
	c0.49-0.801-0.054-2.121-0.316-2.922c-1.074-3.28-2.751-6.842-2.508-10.365c0.152-2.206,1.592-3.989,2.608-5.852
	c0.893-1.638,1.641-3.51,2.603-5.161c1.915,1.503,4.076,3.499,5.387,5.345c2.722,3.834,0.537,6.672-0.137,10.591
	c-0.457,2.662-1.469,6.197,1.17,8.037c1.476,1.029,3.36,1.51,5.108,1.791c1.715,0.276,3.506,0.395,5.218,0.033
	c1.43-0.302,2.977-0.615,3.661-2.041c0.021-0.042,0.041-0.082,0.051-0.128c0.189-0.528,0.212-1.129-0.011-1.745
	c-0.169-0.466-0.392-0.932-0.627-1.396c-0.947-3.147-2.441-6.307-2.222-9.474c0.152-2.206,1.592-3.989,2.608-5.852
	c0.893-1.638,1.641-3.51,2.603-5.161c1.915,1.503,4.076,3.499,5.387,5.345c2.722,3.834,0.537,6.672-0.137,10.591
	c-0.266,1.549-0.707,3.708-0.506,5.416c0.008,0.465,0.092,0.947,0.259,1.417c0.87,2.454,3.382,2.879,5.607,3.361
	c1.892,0.411,3.849,0.634,5.786,0.601c1.474-0.025,2.914-0.33,4.303-0.81c1.269-0.438,2.944-0.809,3.51-2.162
	c0.021-0.042,0.041-0.082,0.051-0.128c0.188-0.528,0.212-1.129-0.011-1.745c-0.169-0.466-0.392-0.932-0.627-1.396
	c-0.947-3.147-2.441-6.307-2.222-9.474c0.152-2.206,1.593-3.988,2.608-5.852c0.894-1.639,1.641-3.51,2.603-5.161
	c1.915,1.503,4.076,3.499,5.387,5.345c2.722,3.834,0.537,6.672-0.137,10.591c-0.352,2.054-1.007,5.169-0.062,6.891
	c0.073,0.229,0.164,0.451,0.286,0.653c0.884,1.454,2.855,1.967,4.231,2.325c2.328,0.604,5.629,1.232,8.383,0.666
	c-0.107,3.02-0.205,6.041-0.251,9.062c-0.181,11.855,0.398,23.86,0.355,35.768c-0.043,11.96,1.307,24.142,0.059,36.029
	c-0.589,5.603-0.33,11.335-0.341,16.965c-0.01,5.063-0.208,10.258,0.075,15.361c-2.637-0.171-5.391-0.125-8.039-0.17
	c-0.034-5.198-0.116-10.397,0.043-15.589c0.161-5.236,0.835-10.517,0.176-15.75c-0.543-4.308-1.497-8.683-4.289-12.126
	c-3.588-4.426-9.452-5.774-10.539-12.182c-0.17-1.004-1.497-1.409-2.291-0.932c-1.551,0.928-1.994,2.779-3.021,4.195
	c-1.567,2.158-3.596,3.877-5.534,5.666c-3.762,3.475-7.149,7.593-8.048,12.776c-0.942,5.417-0.757,11.547-0.701,17.037
	c0.056,5.528,0.05,11.064,0.203,16.585c-2.338-0.035-4.681-0.098-7.022-0.16c-0.035-5.039-0.108-10.076,0.046-15.108
	c0.161-5.236,0.835-10.516,0.176-15.75c-0.543-4.308-1.497-8.683-4.289-12.126c-3.588-4.426-9.452-5.774-10.539-12.182
	c-0.17-1.004-1.497-1.408-2.291-0.932c-1.551,0.928-1.992,2.779-3.021,4.195c-1.568,2.158-3.597,3.877-5.535,5.666
	c-3.762,3.475-7.147,7.593-8.048,12.776c-0.942,5.417-0.757,11.547-0.701,17.037c0.056,5.522,0.05,11.053,0.203,16.569
	c-2.34,0.03-4.681,0.043-7.021,0.049c-0.035-5.101-0.112-10.204,0.044-15.3c0.161-5.236,0.835-10.516,0.176-15.75
	c-0.543-4.308-1.497-8.683-4.289-12.126c-3.588-4.426-9.452-5.774-10.539-12.182c-0.17-1.004-1.497-1.408-2.291-0.932
	c-1.551,0.928-1.994,2.779-3.021,4.195c-1.568,2.158-3.597,3.877-5.535,5.666c-3.764,3.475-7.149,7.593-8.048,12.776
	c-0.942,5.417-0.758,11.547-0.701,17.037c0.056,5.517,0.05,11.041,0.202,16.551c-1.716-0.019-3.435-0.054-5.153-0.082
	c0.295-6.798,0.059-13.69-0.431-20.447c-0.596-8.226,0.414-16.876,0.766-25.124c0.338-7.892,0.326-15.767,0.633-23.65
	C61.888,324.597,62.927,315.842,62.903,307.123z M150.715,389.866c0.131-5.519,0.135-11.007,0.319-16.522
	c0.24-7.151,3.838-11.189,8.795-15.708c1.234-1.125,2.413-2.505,3.502-3.773c0.563-0.657,1.139-1.851,1.734-2.907
	c1.131,2.608,2.998,5.092,5.014,6.806c1.625,1.382,3.493,2.365,4.916,3.972c2.071,2.34,2.818,5.518,3.331,8.534
	c0.944,5.547,0.391,11.537-0.027,17.119c-0.385,5.153-0.626,10.276-0.693,15.441c-6.387-0.278-12.947-0.594-19.279-0.293
	c-2.596,0.123-5.209,0.155-7.829,0.143C151.28,398.407,150.61,394.262,150.715,389.866z M109.693,389.866
	c0.131-5.519,0.136-11.007,0.319-16.522c0.238-7.151,3.838-11.189,8.797-15.708c1.233-1.125,2.413-2.505,3.501-3.773
	c0.563-0.657,1.14-1.851,1.735-2.907c1.131,2.608,2.998,5.092,5.014,6.806c1.625,1.382,3.493,2.365,4.916,3.972
	c2.072,2.34,2.818,5.518,3.331,8.534c0.944,5.547,0.39,11.537-0.027,17.119c-0.375,5.009-0.614,9.99-0.688,15.008
	c-2.213-0.048-4.422-0.081-6.622-0.073c-6.821,0.025-13.649,0.172-20.481,0.275C110.246,398.354,109.588,394.235,109.693,389.866z
	 M68.669,389.866c0.132-5.519,0.136-11.007,0.319-16.522c0.238-7.151,3.838-11.189,8.797-15.708
	c1.234-1.125,2.413-2.505,3.502-3.773c0.563-0.657,1.14-1.851,1.735-2.907c1.131,2.608,2.997,5.092,5.014,6.806
	c1.624,1.382,3.492,2.365,4.914,3.972c2.072,2.34,2.818,5.518,3.331,8.534c0.944,5.547,0.391,11.537-0.027,17.119
	c-0.382,5.108-0.623,10.189-0.691,15.309c-9.059,0.003-18.081,0.03-27.106-0.048C69.229,398.388,68.564,394.252,68.669,389.866z
	 M17.761,188.615c-1.085-6.172,3.066-11.403,6.803-15.849c2.23-2.654,5.117-4.715,7.339-7.347c1.176-1.393,2.193-2.875,3.02-4.509
	c-0.029,0.055,0.107-0.283,0.298-0.741c1.041,1.876,2.36,3.638,3.996,4.914c3.31,2.579,7.104,3.879,10.037,7.094
	c6.903,7.565,3.741,18.32-0.762,26.275c-0.094,0.084-0.178,0.177-0.254,0.278c-2.857-0.024-5.716-0.014-8.58,0.002
	c-5.575,0.032-11.098,0.005-16.658,0.019C21.301,195.195,18.478,192.695,17.761,188.615z M8.95,203.07
	c2.263-1.002,5.626-0.243,8.08-0.405c6.641-0.437,13.157-0.448,19.831-0.411c6.347,0.036,12.647,0.16,18.972,0.381
	c2.191,0.076,7.167-0.102,8.864,1.176c0.771,0.579,1.788,1.521,1.648,2.605c-0.203,1.566-1.114,1.147-2.468,1.12
	c-2.753-0.055-5.501,0.011-8.253-0.159c-6.012-0.372-12.021-0.879-18.015-1.372c-6.528-0.537-13.332-0.419-19.866,0.06
	c-3.246,0.237-7.694-0.056-10.178,2.298c-0.1-0.056-0.186-0.123-0.307-0.161C4.28,207.286,6.871,203.992,8.95,203.07z
	 M60.108,224.845c-0.538-3.898-3.224-11.748-8.859-10.356c-5.406,1.336-4.429,13.166-4.543,16.91
	c-0.047,1.521-0.64,7.516,0.374,10.107c-0.65-0.007-1.298-0.005-1.948-0.008c-0.043-6.715,2.815-28.373-8.082-26.552
	c-3.897,0.651-5.179,4.441-5.725,7.962c-0.9,5.795-1.19,13.053,0.025,18.968c-1.12,0.062-2.241,0.125-3.361,0.188
	c-0.638-7.076,2.281-29.202-8.411-27.815c-3.782,0.49-5.267,5.413-5.912,8.546c-1.232,5.974-1.543,13.693-0.285,19.748
	c-1.186,0.026-2.368,0.034-3.55,0.074c1.345-8.514,0.714-17.183,0.333-25.72c-0.104-2.317-0.6-5.027,2.178-6.1
	c1.757-0.68,5.213-0.311,7.113-0.469c5.274-0.437,10.876-0.639,16.168-0.292c4.755,0.313,9.602,0.612,14.327,1.153
	c2.469,0.283,10.432-0.469,11.914,1.35c0.879,1.079,0.481,5.787,0.495,7.327c0.024,2.75-0.108,5.503-0.172,8.251
	c-0.107,4.577-0.553,9.176,0.354,13.672c-1.031-0.019-2.064-0.041-3.096-0.063c0.51-1.404,0.428-3.042,0.446-4.531
	C59.94,232.967,60.691,229.072,60.108,224.845z M57.134,241.677c-2.408-0.05-4.815-0.096-7.22-0.132
	c0.904-1.836,0.063-4.659-0.102-6.536c-0.326-3.736-1.971-16.578,2.925-17.57c1.477-0.3,3.81,3.415,4.213,4.651
	c0.496,1.52,0.738,4.058,0.76,5.773c0.029,2.298-0.533,4.516-0.663,6.802C56.923,236.869,56.572,239.488,57.134,241.677z
	 M34.112,233.152c-0.341-3.37-1.471-8.902,0.208-11.983c0.641-1.177,0.858-2.011,2.451-1.98c1.489,0.029,3.907,0.672,4.535,2.121
	c0.492,1.134,0.227,2.104,0.285,3.26c0.07,1.387,0.187,2.761,0.193,4.153c0.017,4.107-0.156,8.21-0.122,12.318
	c-0.091,0.139-0.156,0.293-0.19,0.458c-2.56,0.024-5.115,0.121-7.669,0.25C34.33,238.935,34.397,235.973,34.112,233.152z
	 M24.692,242.232c-2.271,0.108-4.54,0.194-6.812,0.213c-0.872,0.008-1.754,0.041-2.632,0.055c0.81-4.332,0.414-8.878,0.772-13.273
	c0.2-2.457,0.2-4.738,0.857-7.141c0.297-1.183,0.676-2.338,1.14-3.466c0.367-0.894,2.998-1.447,3.814-1.013
	c2.142,1.139,2.376,4.76,2.637,6.842c0.327,2.615,0.273,5.251,0.298,7.88C24.8,235.739,24.253,238.928,24.692,242.232z
	 M11.229,253.934c-0.917-1.024-4.35-4.249-5.596-6.503c3.482-1.117,9.006-0.533,12.247-0.487c4.519,0.063,8.968-0.489,13.483-0.415
	c9.347,0.155,18.671,0.425,28.008,0.439c2.095,0.003,4.194,0.036,6.289,0.009c1.829-0.025,6.04-1.378,4.129,1.614
	c-1.583,2.477-4.219,3.968-6.023,6.242c-3.83,4.827-4.764,9.837-5.436,15.438c-3.137-0.683-6.66-0.271-9.808-0.471
	c-2.801-0.178-5.548-0.465-8.347-0.69c-3.697-0.297-7.662-0.298-11.359-0.023c-3.46,0.257-7.804-0.455-11.284,0.616
	c-0.267-3.2-1.464-6.696-2.297-8.797C14.263,258.454,12.995,255.906,11.229,253.934z M54.154,392.782
	c-0.013,3.218-0.27,6.471,0.204,9.627c-2.093-0.051-4.184-0.101-6.281-0.174c-7.744-0.27-15.608,0.463-23.35,0.852
	c-2.14,0.107-4.261,0.107-6.382,0.102c0.706-8.132-0.387-16.811-0.172-24.897c0.331-12.51,0.861-25.217,0.164-37.727
	c-0.623-11.192-0.496-23.105,0.136-34.303c0.481-8.53,1.01-18.192-0.74-26.88c0.024-1.702,0.186-3.353,0.737-4.47
	c0.006-0.088,0.008-0.157,0.01-0.232c1.51-0.335,3.026-0.39,4.548-0.135c2.789-0.029,5.43-0.567,8.235-0.651
	c5.519-0.165,11.024,0.309,16.529,0.638c2.723,0.163,5.712-0.745,8.392-0.017c4.05,1.099,1.972,3.587,1.927,7.121
	c-0.056,4.506-0.33,8.987-0.443,13.484c-0.472,18.909-1.291,37.806-2.21,56.69c-0.461,9.454-1.229,18.995-1.424,28.45
	C53.948,384.413,54.171,388.611,54.154,392.782z M506.183,417.415c-0.315,2.27-0.339,2.752-2.354,3.498
	c-3.696,1.369-10.385,0.403-14.38,0.61c-8.811,0.458-18.002-0.415-26.845-0.716c-9.959-0.34-19.927-0.401-29.904-0.441
	c-19.526-0.078-39.003-1.048-58.52-0.781c-16.724,0.228-33.645-0.882-50.345-0.181c-5.877-0.026-11.771-0.236-17.639-0.457
	c-6.472-0.244-12.974-0.399-19.453-0.469c-0.747-0.008-1.507-0.026-2.273-0.049c-0.262-0.38-0.692-0.634-1.285-0.61
	c-8.47,0.341-16.963,0.525-25.448,0.899c-4.505,0.198-8.978,0.46-13.483,0.593c-6.013-1.631-12.867-0.899-18.99-0.833
	c-6.479,0.071-12.98,0.225-19.453,0.469c-5.868,0.221-11.762,0.431-17.639,0.457c-16.7-0.7-33.621,0.409-50.345,0.181
	c-19.517-0.267-38.993,0.703-58.521,0.781c-9.977,0.04-19.944,0.101-29.904,0.441c-8.843,0.302-18.033,1.175-26.845,0.716
	c-3.995-0.208-10.685,0.758-14.38-0.61c-2.015-0.747-2.039-1.228-2.354-3.498c-0.197-1.423-0.547-5.28-0.026-6.293
	c0.957-1.856,3.726-2.145,6.308-2.237c3.522,0.278,7.158,0.739,10.684,0.53c7.814-0.463,15.868-1.356,23.702-1.093
	c16.633,0.559,33.147,0.57,49.824,0.563c19.881-0.008,39.756-0.099,59.615-0.074c7.031,0.008,14.109,0.481,21.145,0.277
	c3.343-0.097,6.86,0.838,10.182,0.559c0.875,0.034,1.762,0.04,2.645,0.068c5.807,0.189,11.497-0.531,17.273-0.566
	c6.151-0.037,12.291,0.252,18.446,0.3c3.067,0.55,6.238,0.909,9.249,1.079c2.808,0.159,5.704-0.48,8.584-0.251
	c2.661,0.212,5.003,0.355,7.669,0.141c5.096-0.409,10.227,0.079,15.317-0.466c2.521-0.27,5.1-0.291,7.641-0.503
	c3.815,0.604,8.191,0.027,11.639,0.01c6.378-0.031,12.74-0.346,19.111-0.309c5.775,0.034,11.464,0.755,17.273,0.566
	c0.883-0.029,1.77-0.034,2.645-0.068c3.323,0.279,6.841-0.656,10.182-0.559c7.035,0.204,14.112-0.269,21.144-0.277
	c19.859-0.024,39.735,0.066,59.616,0.074c16.676,0.007,33.191-0.005,49.824-0.563c7.834-0.263,15.888,0.63,23.702,1.093
	c3.526,0.209,7.162-0.252,10.684-0.53c2.582,0.092,5.351,0.381,6.308,2.237C506.73,412.134,506.38,415.992,506.183,417.415z"/>
<g>
</g>
<g>
</g>
<g>
</g>
<g>
</g>
<g>
</g>
<g>
</g>
<g>
</g>
<g>
</g>
<g>
</g>
<g>
</g>
<g>
</g>
<g>
</g>
<g>
</g>
<g>
</g>
<g>
</g>
</svg>
