<?xml version="1.0" encoding="iso-8859-1"?>
<!-- Generator: Adobe Illustrator 19.0.0, SVG Export Plug-In . SVG Version: 6.00 Build 0)  -->
<svg version="1.1" id="Layer_1" xmlns="http://www.w3.org/2000/svg" xmlns:xlink="http://www.w3.org/1999/xlink" x="0px" y="0px"
	 viewBox="0 0 511.995 511.995" style="enable-background:new 0 0 511.995 511.995;" xml:space="preserve">
<path style="fill:#91C3E5;" d="M3.497,316.019c0.126-0.233,0.263-0.459,0.409-0.675c1.993-2.941,4.901-4.167,8.231-4.891
	c3.51-0.762,6.519-1.746,10.054-3.001c7.717-2.741,15.808-4.312,23.433-7.332c14.629-5.793,29.609-10.986,44.829-14.926
	c6.241-1.616,12.572-2.851,18.923-3.949c6.526-1.128,11.75-0.757,18.358-0.705c1.349,0.01,2.765-0.035,3.93-0.714
	c3.116-1.817,3.892-8.659,3.324-11.828c-0.653-3.64-2.917-4.639-6.099-6.104c-5.268-2.426-15.812-4.564-14.593-12.364
	c0.458-2.926,2.761-5.297,5.411-6.617c5.386-2.684,13.546-0.362,13.726-9.071c1.249-60.209,35.311-97.814,85.449-124.46
	c9.362-4.976,20.612-6.89,28.355-17.687c-0.551-2.542-0.862-4.79-1.834-7.093c-1.229-2.912-2.625-5.036-2.432-8.392
	c0.202-3.512,1.883-6.917,4.549-9.213c4.457-3.839,7.902-11.117,4.57-17.049c-2.12-3.774-6.698-5.294-10.013-8.078
	c-3.233-2.716-5.278-6.8-5.515-11.015c-0.237-4.216,1.336-8.503,4.245-11.565c0.951-1.002,2.302-1.935,3.62-1.517
	c1.838,0.584,1.976,3.061,2.104,4.985c0.378,5.762,5.356,14.805,12.214,13.757c7.076-1.082,11.263-11.007,9.776-17.198
	c4.669,1.446,7.871,6.242,8.109,11.125c0.237,4.881-2.171,9.662-5.766,12.974c-3.29,3.031-7.821,5.406-8.829,9.763
	c-1.341,5.797,2.935,8.561,6.434,12.058c4.096,4.092,4.477,11.335,0.831,15.835c-1.013,1.251-2.29,2.307-3.067,3.717
	c-6.398,11.599,13.694,17.147,20.173,20.731c12.311,6.809,24.924,13.296,36.394,21.359c17.445,12.266,32.458,27.979,42.556,46.855
	c4.963,9.279,8.704,19.186,11.247,29.393c1.325,5.318,2.327,10.715,3.039,16.149c0.344,2.625,1.021,5.605,0.865,8.252
	c-0.181,3.079-1.648,5.797-0.775,8.97c1.017,3.692,3.489,3.271,6.191,4.579c7.297,3.533,17.443,8.808,6.433,16.648
	c-3.436,2.447-8.023,2.533-11.458,4.938c-4.456,3.121-4.886,8.342-5.411,13.372c-0.106,1.021-0.157,2.165,0.507,2.946
	c0.721,0.848,1.981,0.923,3.094,0.932c10.866,0.095,21.452-0.316,32.034,1.936c12.415,2.641,24.475,6.683,36.458,10.814
	c17.25,5.945,34.604,11.59,51.827,17.615c4.159,1.455,13.452,7.051,6.149,11.826c-1.632,1.067-3.873,1.303-5.012,2.886
	c-0.601,0.836-0.769,1.9-0.901,2.922c-1.149,8.884,0.293,17.217,0.198,25.967c-0.106,9.831-0.168,19.661-0.237,29.492
	c-0.081,11.53-0.162,23.06-0.297,34.589c-0.071,6.018,0.281,12.24-0.263,18.233c-0.479,5.277-1.97,10.504-2.626,15.797
	c-0.162,1.314-0.133,2.972,1.054,3.557c0.868,0.428,1.892,0.02,2.856-0.054c2.588-0.2,4.796,2.191,5.333,4.73
	c1.197,5.653,0.056,11.802-6.147,13.303c-40.968,9.915-80.799,25.776-124.255,22.688c-21.522-1.53-43.161-1.376-64.738-2.201
	c-12.548-0.479-22.96-2.57-34.74-6.423c-5.183-1.696-10.759-1.591-16.211-1.47c-6.657,0.148-13.334,0.304-19.95,1.119
	c-6.906,0.852-12.934,3.364-19.573,4.973c-14.19,3.44-30.541,1.945-45.057,2.604c-16.592,0.754-33.203,1.363-49.807,1.442
	c-9.096,0.044-18.455,0.009-27.247-1.974c-27.502-6.201-54.853-13.113-82.13-20.253c-9.455-2.474-11.898-8.624-5.643-16.671
	c4.61-5.932,5.476-11.637,5.257-18.283c-0.741-22.41-1.582-44.816-2.207-67.229c-0.208-7.459-0.151-14.946,0.25-22.396
	c0.316-5.895,1.203-12.814-0.007-18.613c-0.468-2.245-1.724-4.438-3.766-5.48c-1.837-0.937-4.159-0.892-5.713-2.246
	C2.034,321.422,2.251,318.33,3.497,316.019z"/>
<g>
	<path style="fill:#5281C6;" d="M133.176,415.813c0.23-0.003,0.459-0.004,0.687-0.003c8.046,0.01-0.493-5.139,1.218-8.89
		c1.076-2.358,5.284-2.364,7.497-2.538c3.989-0.313,7.579,0.7,11.564,0.898c4.342,0.216,8.683,0.256,13.015,0.482
		c4.457,0.232,8.929-0.369,13.369-0.741c8.935-0.745,18.507-2.066,27.431-1.492c3.318,0.213,6.669,1.153,9.974,1.221
		c1.357,0.029,1.677-0.424,2.769-0.623c1.435-0.262,2.845,0.316,4.256,0.046c1.434-0.274,1.454-0.227,1.884-1.462
		c1.097-3.149-0.765-6.544,0.069-9.738c1.004-3.844,2.507-7.893,4.076-11.546c2.5-5.818,6.525-11.322,11.98-14.7
		c6.686-4.141,15.133-4.52,22.581-2.739c3.24,0.775,5.578,3.989,7.692,6.277c6.297,6.822,10.141,15.777,11.042,25.016
		c0.281,2.878-1.076,6.771,1.711,8.249c3.299,1.749,6.889,0.638,10.357,0.896c4.336,0.323,8.321,0.122,12.684-0.035
		c2.809-0.101,5.476,0.346,8.256,0.429c5.111,0.152,10.141-0.942,15.228-0.437c4.432,0.44,8.306,0.997,12.824,0.868
		c5.46-0.156,10.848-0.418,16.256-0.346c2.947,0.04,5.928-0.089,8.894-0.097c1.291-0.004,4.825-0.452,5.836,0.197
		c3.417,2.192-2.732,8.109-2.943,10.184c1.3,0.751,3.822,0.386,5.41,0.408c9.556,0.136,19.087,0.731,28.665,0.848
		c17.408,0.213,34.915-3.748,52.289-2.277c7.156,0.605,14.114-0.536,21.251-0.216c2.724,0.122,5.393,0.163,8.081,0.155
		c1.395-0.005,3.026,0.628,4.401,0.009c2.412-1.085,2.983-4.69,3.232-7.081c0.759-7.285,1.679-14.581,2.432-21.887
		c0.73-7.082,0.181-14.248,0.527-21.332c0.227-4.676,0.066-9.358-0.372-14.019c-0.207-2.202,0.198-6.32-1.328-8.131
		c-0.933-1.109-1.511-0.679-2.804-0.992c-7.567-1.832-15.63-3.726-23.419-5.469c-6.412-1.435-12.644-3.384-19.044-4.92
		c-5.873-1.41-11.927-3.913-17.428-6.372c-4.946-2.211-10.906-2.097-16.251-2.892c-4.371-0.65-8.066-1.597-12.26-2.911
		c-4.296-1.346-8.215-2.777-12.778-2.562c-4.604,0.217-9.413,0.382-13.941,0.358c-7.509-0.039-15.197,0.363-22.698,0.055
		c-3.894-0.16-7.731,0.09-11.615-0.009c-4.086-0.104-8.413-0.109-12.426-0.902c-3.566-0.705-6.511-1.425-10.229-1.321
		c-10.601,0.294-21.205,0.437-31.804,0.755c-5.496,0.165-11.061,0.43-16.553,0.412c-6.914-0.022-14.002-0.18-20.893,0.191
		c-4.403,0.237-8.864,0.933-13.273,0.556c-10.421-0.89-20.592-0.764-31.027-0.595c-6.447,0.104-12.462-1.042-18.908-0.714
		c-7.39,0.377-14.773,0.883-22.167,1.184c-13.837,0.564-27.65,0.257-41.454,0.222c-4.014-0.01-7.751,0.095-11.69,0.639
		c-2.727,0.377-5.278,0.964-7.975,1.651c-3.174,0.809-6.3,1.637-9.505,2.447c-6.81,1.721-13.625,3.14-20.537,4.408
		c-4.645,0.852-9.358,1.727-13.737,3.445c-4.066,1.596-8.276,3.268-12.593,4.024c-3.99,0.699-7.781,1.721-11.645,2.951
		c-6.557,2.089-13.049,2.412-19.544,4.131c-1.683,0.445-5.42,0.922-6.393,2.21c-1.078,1.425,0.281,6.775,0.291,8.452
		c0.039,6.492-0.608,12.99-0.599,19.498c0.012,10.109-0.094,20.195,0.429,30.289c0.166,3.199-0.268,6.564,0.678,9.62
		c1.024,3.314,2.57,3.142,5.66,3.754c4.295,0.851,8.644,1.198,13.092,1.44c5.6,0.304,11.317-0.124,16.954,0.057
		c6.482,0.208,12.962,1.678,19.469,1.48c6.607-0.201,13.04-0.57,19.659-0.263c5.149,0.24,10.826,1.516,15.954,0.663
		c7.109-1.185,15.226-1.194,22.398-0.822C129.289,415.916,131.243,415.831,133.176,415.813z"/>
	<path style="fill:#5281C6;" d="M137.392,278.22c-1.598-3.083-0.694-7.72-0.857-11.117c-0.155-3.23-0.46-6.15,1.623-8.869
		c3.122-4.073,8.992-5.683,13.402-7.874c3.499-1.738,7.005-3.405,10.831-4.261c2.206-0.493,2.451-0.387,3.385,1.256
		c1.42,2.497,2.052,7.122,2.215,9.924c0.245,4.219,2.16,17.653-2.122,19.74c-4.165,2.03-10.714,1.335-15.251,1.732
		C146.086,279.147,142.578,279.6,137.392,278.22z"/>
	<path style="fill:#5281C6;" d="M196.434,279.283c-2.141-5.903-0.433-13.941-1.004-20.285c-0.228-2.538-0.606-5.011-0.857-7.56
		c-0.279-2.849-1.259-6.337-1.078-9.149c0.207-3.212,1.682-3.281,4.594-3.553c6.997-0.654,13.977-1.026,21.004-1.407
		c9.722-0.528,19.298,0.126,28.997,0.207c9.696,0.081,19.287-0.538,28.969-0.538c9.426,0,18.731,0.492,28.106,1.404
		c4.486,0.437,9.547,0.156,13.848,1.309c-1.334,2.421-0.697,4.772-0.771,7.44c-0.138,5.013-0.349,9.948-0.797,14.981
		c-0.401,4.494,0.656,9.856-1.022,14.145c-1.606,4.105-8.692,2.799-12.697,3.138c-11.575,0.982-23.089-1.222-34.727-1.187
		c-13.729,0.04-27.436-0.661-41.182-0.253C218.588,278.249,209.394,279.021,196.434,279.283z"/>
	<path style="fill:#5281C6;" d="M342.71,279.283c1.432-3.049,0.905-8.356,1.064-11.69c0.175-3.663,0.266-7.299,0.266-10.982
		c0-2.564-0.358-5.855,0.287-8.31c0.888-3.386,3.726-1.794,6.428-0.932c6.607,2.106,13.911,5.783,19.83,9.388
		c1.8,1.097,4.136,2.161,5.086,4.05c1.286,2.562,0.148,7.746,0.292,10.675c0.109,2.228,0.237,6.094-1.869,7.495
		c-2.065,1.375-8.28,0.87-10.596,0.851c-3.376-0.029-6.695-0.398-10.078-0.225C350.623,279.746,347.59,280.576,342.71,279.283z"/>
</g>
<path style="fill:#EFCB5B;" d="M245.592,87.628c0.474,3.963-0.213,7.632-5.048,11.237c-7.033,5.245-15.944,7.088-23.955,10.291
	c-18.061,7.222-32,19.817-45.826,33.249c-16.157,15.696-29.502,37.798-35.49,59.473c-2.125,7.691-3.606,15.472-3.671,23.335
	c-0.024,2.908-0.906,6.016,0.433,8.674c1.621,3.217,3.427,2.333,6.498,1.465c29.131-8.244,60.681-12.89,90.95-13.936
	c16.29-0.563,32.745-0.517,49.021,0.361c15.588,0.84,31.19,0.479,46.564,3.592c12.023,2.434,24.852,4.82,36.578,8.382
	c6.147,1.868,13.445,8.524,16.9,1.068c3.472-7.492,0.719-15.977-1.057-23.882c-2.186-9.733-5.982-19.958-9.493-29.332
	c-8.004-21.374-23.947-38.906-41.761-52.622c-11.548-8.891-25.153-15.709-38.038-22.363c-6.756-3.489-13.961-5.612-20.252-10.01
	c-11.374-7.95,6.331-15.52,3.646-24.854c-1.364-4.741-6.245-7.197-8.018-11.269c-3.29-7.557,3.859-14.864,9.008-19.302
	c2.282-1.966,3.689-4.636,4.156-7.647c0.513-3.308-4.664-18.723-8.008-17.009c-0.988,7.174,1.94,16.597-7.28,19.981
	c-6.827,2.505-13.387-4.392-14.923-10.353c-0.47-1.827,0.114-7.581-1.523-8.639c-2.117-1.367-4.261,2.087-5.22,3.708
	c-2.724,4.605-4.847,10.321-1.328,15.237c1.558,2.176,4.414,5.19,6.61,6.671c3.245,2.187,5.272,2.438,6.448,6.271
	c0.948,3.087,1.84,7.133,1.661,10.377c-0.122,2.198,0.551,1.842-1.039,3.522c-0.947,1.001-3.238,1.568-4.416,2.418
	c-3.298,2.381-3.824,4.599-4.041,8.632C243.42,79.246,245.109,83.589,245.592,87.628z"/>
<path style="fill:#295887;" d="M13.145,341.263c0.061,19.771,1.924,39.61,1.073,59.401c-0.112,2.62-1.741,9.738,0.686,11.927
	c1.222,1.102,6.424,0.846,8.048,0.779c20.067-0.831,40.99,2.043,61.297,2.887c4.558,0.19,9.237,0.413,13.775,0.636
	c3.336,0.165,10.753,1.017,13.729-0.344c7.802-3.567,2.895-24.43,2.378-30.681c-1.491-18.026,1.653-36.066,0.797-54.042
	c-0.17-3.555,1.227-12.4-1.057-15.443c-2.424-3.232-5.748,0.232-8.773,1.118c-16.203,4.746-33.053,8.169-49.558,11.731
	c-8.788,1.897-17.341,4.658-25.983,7.007C24.436,337.628,17.059,338.403,13.145,341.263z"/>
<g>
	<path style="fill:#243D56;" d="M28.332,349.276c-6.358,5.595-5.346,18.561-4.879,26.305c0.248,4.12,0.695,8.277,0.898,12.432
		c0.117,2.378-0.401,7.313,0.863,9.389c1.215,1.998,5.403,2.105,7.622,1.838c2.906-0.349,3.872-0.754,4.232-3.482
		c1.182-8.942-0.697-18.688-1.214-27.65C35.743,366.15,35.602,344.96,28.332,349.276z"/>
	<path style="fill:#243D56;" d="M55.564,344.111c-4.205,1.053-6.421,7.026-7.747,10.629c-1.757,4.774-1.421,10.474-1.177,15.528
		c0.238,4.938,0.591,9.843,0.354,14.809c-0.173,3.63-1.414,9.436,0.205,12.875c2.449,5.207,11.174,3.577,15.433,2.319
		c3.351-0.989,2.923-3.4,3.255-6.613c0.786-7.601-0.029-15.146,0.006-22.746c0.029-6.061-0.47-12.161-1.379-18.112
		c-0.382-2.495-0.57-5.439-2.483-7.34C60.221,343.662,56.239,343.03,55.564,344.111z"/>
	<path style="fill:#243D56;" d="M86.553,336.834c-6.849,2.014-8.428,8.378-10.282,14.321c-1.469,4.704-1.22,10.131-1.22,15.019
		c0,5.716,0.322,11.354,0.716,17.001c0.306,4.388,0.202,9.595,1.573,13.747c1.139,3.452,4.212,3.001,7.637,3.328
		c3.017,0.288,11.327,2.262,13.919,0.217c3.158-2.49,2.243-11.535,2.212-14.8c-0.049-5.094-1.2-10.12-1.416-15.203
		c-0.166-3.915,0.095-7.983,0.296-11.899c0.246-4.826-0.112-9.964-1.174-14.629C97.854,339.71,92.057,335.064,86.553,336.834z"/>
	<path style="fill:#243D56;" d="M143.604,334.016c-9.105,5.414-10.821,18.508-10.799,28.434c0.012,5.484-0.442,10.854-0.235,16.29
		c0.16,4.187-0.002,7.455,4.754,8.517c3.88,0.866,8.212,1.931,12.208,1.919c2.529-0.008,8.892,0.193,10.564-1.739
		c1.172-1.354,0.563-3.731,0.64-5.345c0.147-3.043,0.507-5.979,0.358-9.063c-0.326-6.734-1.163-13.918-0.833-20.627
		c0.228-4.655,0.545-9.987-1.961-14.158C155.272,333.207,148.809,332.816,143.604,334.016z"/>
	<path style="fill:#243D56;" d="M186.8,334.016c-1.515,1.185-3.733,1.971-5.398,3.194c-2.188,1.607-3.227,3.457-4.515,5.786
		c-2.273,4.105-3.543,8.672-3.704,13.388c-0.15,4.429-0.429,8.735-0.822,13.112c-0.298,3.326-1.245,6.714-1.12,10.065
		c0.079,2.099-0.388,6.292,1.133,7.878c1.994,2.076,6.308,0.658,8.796,0.635c4.578-0.042,9.018,0.291,13.575-0.479
		c3.932-0.664,5.021-3.032,5.734-6.914c1.336-7.277,1.746-15.131,1.396-22.506c-0.276-5.823-0.138-11.476-2.211-17.005
		C197.725,335.993,192.97,331.22,186.8,334.016z"/>
	<path style="fill:#243D56;" d="M318.037,333.78c-8.791,7.867-7.278,21.865-7.278,32.393c0,4.856-0.468,9.826,0.003,14.614
		c0.331,3.363,0.069,5.199,3.626,6.162c4.723,1.278,10.032,1.692,14.921,1.512c2.789-0.102,7.838,0.352,10.144-1.39
		c3.787-2.858,1.8-10.826,1.397-14.692c-0.651-6.236-1.35-12.895-2.572-18.99C336.374,343.891,330.897,330.729,318.037,333.78z"/>
	<path style="fill:#243D56;" d="M358.183,332.608c-3.996,1.376-5.683,7.398-6.449,11.035c-1.185,5.622-1.063,11.218-1.063,16.959
		c0,5.792,0.356,11.51,0.699,17.265c0.168,2.826-0.648,9.546,2.333,10.597c2.252,0.795,5.938-0.675,8.321-0.684
		c2.588-0.01,5.112,0.152,7.657,0.286c2.512,0.132,5.958,0.277,7.93-1.466c2.691-2.378,2.263-8.773,2.416-12.123
		c0.306-6.784-0.288-14.21-1.652-20.843c-0.952-4.632-1.673-11.611-5.048-15.127c-1.43-1.49-3.509-3.031-5.341-4.033
		C365.458,333.093,363.332,333.608,358.183,332.608z"/>
	<path style="fill:#243D56;" d="M419.692,335.894c-10.008,4.749-7.747,19.614-7.747,28.751c0,6.789,0.341,13.453-0.235,20.223
		c-0.313,3.686-1.484,9.909,0.02,13.378c0.82,1.89,1.704,2.136,3.991,2.212c2.792,0.094,5.666,0.378,8.473,0.242
		c2.656-0.13,9.611,0.76,11.48-1.758c2.465-3.324,2.102-11.66,2.095-15.454c-0.016-7.9-0.369-15.922-1.117-23.776
		C435.665,349.317,433.462,336.741,419.692,335.894z"/>
	<path style="fill:#243D56;" d="M453.03,344.581c-3.565,0.258-5.837,12.309-6.086,15.147c-0.554,6.3-0.008,12.87,0.27,19.151
		c0.251,5.701,0.615,11.448,0.417,17.125c-0.135,3.865,0.978,5.139,5.172,4.983c2.243-0.084,4.232-0.614,6.53-0.532
		c1.465,0.052,2.611,0.225,3.91-0.208c2.799-0.933,2.868-4.764,3.174-7.532c1.127-10.219-0.252-20.516-0.697-30.714
		C465.468,356.248,462.185,341.99,453.03,344.581z"/>
	<path style="fill:#243D56;" d="M478.619,349.51c-3.577,11.067-3.363,21.922-3.991,33.35c-0.187,3.398-0.146,6.743,0,10.123
		c0.086,1.981-0.536,4.505,0.935,5.895c1.381,1.304,6.365,2.338,8.21,2.288c4.075-0.111,4.922-3.638,5.47-7.015
		c1.553-9.565,1.056-19.639-0.059-29.215C488.526,359.279,488.844,347.467,478.619,349.51z"/>
</g>
<path style="fill:#D69F49;" d="M241.844,98.097c-9.663,8.327-24.111,12.035-35.215,18.299c-8.756,4.938-17.413,10.304-25.618,16.245
	c-23.623,17.109-40.348,41.771-46.336,70.606c-2.352,11.324-1.231,22.452-1.053,33.58c27.572-2.628,55.392-11.098,83.312-12.589
	c31.254-1.668,62.247-3.285,93.395,0.719c12.488,1.606,24.794,4.063,37.032,6.312c4.031,0.741,8.049,1.135,12.074,1.95
	c3.441,0.696,7.585,2.883,11.062,2.679c5.132-0.301,6.24-3.728,4.132-8.549c-4.901-11.214-21.902-16.813-32.598-19.437
	c-31.249-7.666-76.398-5.539-94.589-36.913c-8.705-15.016-8.945-26.698-4.302-42.921c1.911-6.68,5.079-12.889,7.393-19.423
	c2.091-5.909,0.732-8.144,0.477-13.634c-0.51-10.927,11.761-3.159,16.279-10.154c6.131-9.491-9.647-3.058-13.145-7.5
	c-2.452-3.114,8.155-20.034-2.927-13.84c-5.495,3.072-8.624,9.605-7.079,15.494C245.987,86.062,248.511,92.347,241.844,98.097z"/>
<g>
	<path style="fill:#6EA5C4;" d="M108.35,415.704c-21.079,0-41.849-2.08-63.01-2.08c-7.455,0-15.38-0.654-22.666,0.414
		c-8.078,1.185-6.449,4.874-5.49,12.261c1.16,8.93,0.336,25.131-6.351,32.059c-2.281,2.362-6.254,6.459-4.095,10.173
		c1.738,2.99,8.494,3.934,11.526,4.671c7.857,1.913,15.609,4.343,23.37,6.668c16.938,5.072,33.285,10.1,50.798,12.869
		c14.145,2.236,27.934,1.341,42.162,0.705c19.737-0.883,39.499-1.276,59.252-2.085c2.844-0.116,39.208,3.893,35.467-3.632
		c-1.316-2.649-9.975-1.419-12.105-1.329c-14.285,0.6-27.775,1.266-42.048-0.522c-11.551-1.447-22.746-3.177-32.712-9.645
		c-5.051-3.278-7.026-10.022-8.546-15.469c-1.875-6.721-5.833-12.577-7.586-19.507c-1.115-4.408-1.486-8.942-2.287-13.4
		c-0.45-2.507,0.06-6.704-1.531-8.76c-1.183-1.531-3.133-1.99-5.003-2.162C112.602,416.48,107.645,418.175,108.35,415.704z"/>
	<path style="fill:#6EA5C4;" d="M229.377,417.368c3.082,4.268,0.142,10.255-4.928,10.461c-0.47,8.639,0.772,17.407,0.357,26.136
		c-0.297,6.24-1.641,13.137-0.396,19.305c0.928,4.6,7.083,4.966,10.805,4.731c3.172-0.2,6.312-1.1,9.465-1.533
		c3.925-0.539,7.903-0.306,11.846-0.147c3.219,0.13,6.201-0.449,9.414-0.293c7.514,0.364,16.502,1.567,23.04-3.26
		c2.55-1.884,2.897-3.335,3.219-6.83c0.946-10.285,1.493-21.58-1.902-31.18c-1.33-3.759-1.548-7.356,2.646-9.469
		c1.45-0.73,3.369-0.183,4.776-0.913c0.166-0.086,3.647-2.685,2.721-2.786c-4.474-0.488-9.162,0.342-13.553-0.942
		c-2.155-0.63-4.038-1.348-5.199-3.379c-0.599-1.047-2.213-5.348-2.434-6.434c-0.498-2.448,1.389-4.199,2.208-6.276
		c6.77-17.141-10.196-37.899-27.103-39.613c-15.036-1.525-23.35,14.944-25.714,27.46c-0.998,5.287-1.63,9.354,1.56,13.412
		C234.1,410.765,232.065,413.223,229.377,417.368z"/>
	<path style="fill:#6EA5C4;" d="M318.506,417.802c-0.124,1.036-2.336,2.558-1.727,5.325c8.008-0.452,5.743,9.342,5.759,14.723
		c0.017,5.923-0.754,11.79-0.853,17.665c-0.084,4.945,1.953,29.869-10.654,21.498c-4.61-3.061-1.558-15.425-1.33-20.111
		c0.437-8.986-2.434-18.1-2.248-27.176c0.072-3.55-0.011-9.545,3.023-12.124c1.499-1.273,3.323-1.608,5.28-1.24
		C317.966,416.778,318.577,417.211,318.506,417.802z"/>
	<path style="fill:#6EA5C4;" d="M348.321,416.416c-3.605,0.143-7.715,1.175-9.013,2.703c-3.103,3.65-1.148,10.28-0.544,14.456
		c1.551,10.714,2.135,21.548,2.377,32.363c0.064,2.876-1.184,10.048,1.223,12.334c2.145,2.036,7.769,0.366,9.713-1.42
		c1.47-1.35,1.759-3.38,2.081-5.418c0.912-5.779,1.753-11.934,1.978-17.848c0.352-9.26,0.076-19.528-0.717-28.785
		c-0.141-1.639-0.262-6.449-1.667-7.464C352.727,416.597,350.627,416.324,348.321,416.416z"/>
	<path style="fill:#6EA5C4;" d="M217.316,415.704c1.118,2.911,0.415,7.334,0.415,10.481c0,6.267,0.472,12.465,0.415,18.718
		c-0.087,9.745-0.744,19.649-1.31,29.37c-1.862,0.676-6.416,1.397-8.181,1.018c-3.494-0.75-2.569-1.552-2.569-5.776
		c-0.001-10.284-0.931-20.449-0.832-30.712c0.054-5.616,0.08-11.354-0.01-16.86c-0.041-2.565-0.595-2.87,1.25-4.784
		C208.612,414.964,213.95,414.335,217.316,415.704z"/>
	<path style="fill:#6EA5C4;" d="M189.866,419.031c0.306,12.695-0.978,25.221,0.832,37.92c0.974,6.844,1.306,13.209-0.812,19.422
		c-2.334-0.546-5.507-0.81-8.126-0.787c-3.84,0.034-4.594,1.475-6.038-1.844c-1.452-3.335,0.07-10.402-0.089-13.953
		c-0.267-5.975-0.323-11.937-0.323-17.937c0-6.302-0.891-14.017,1.571-19.918C179.348,416.019,184.841,419.828,189.866,419.031z"/>
	<path style="fill:#6EA5C4;" d="M157.01,417.784c0.303,14.382-0.002,28.993,0,43.414c0.001,5.084,0.699,10.934-1.33,15.581
		c-3.788-0.991-7.681-2.035-11.913-2.08c0.075-2.691,1.295-5.428,1.566-8.2c0.565-5.796,0.032-11.896,0.032-17.724
		c0-7.133,0.337-14.384-0.415-21.419c-0.2-1.865-2.308-8.323-1.597-9.786C144.793,414.613,155.475,416.472,157.01,417.784z"/>
	<path style="fill:#6EA5C4;" d="M4.79,320.047c2.444,0.162,7.56-2.383,10.492-3.318c6.718-2.142,13.387-4.318,20.126-6.342
		c14.522-4.361,29.163-8.494,43.728-12.763c5.598-1.641,11.115-3.572,16.707-5.242c14.301-4.271,27.635-5.734,42.665-5.208
		c16.14,0.565,31.989,1.062,48.124,0.41c47.398-1.914,94.758-2.902,142.008,0.801c14.841,1.163,29.966,0.561,44.785-0.376
		c16.571-1.048,34.004,0.359,49.719,6.125c15.897,5.832,32.686,8.698,48.701,14.254c9.28,3.22,19.937,5.541,28.806,9.692
		c2.721,1.274,4.781,2.534,1.167,4.562c-4.976,2.791-14.743-1.239-19.523-2.387c-22.683-5.447-44.239-14.679-66.893-20.291
		c-8.673-2.149-15.921-5.118-24.977-5.707c-12.559-0.817-25.114-2.059-37.709-2.119c-12.77-0.061-25.581,1.18-38.312,1.728
		c-14.825,0.638-29.841-0.021-44.679-0.021c-32.621,0-65.138-0.474-97.7-0.415c-9.022,0.016-18.026,0.749-27.045,0.791
		c-4.182,0.02-14.042,0.601-14.828,6.492c-1.154,8.662,21.947,8.946,26.988,8.852c8.089-0.15,15.862-0.621,24.136-0.192
		c9.938,0.515,19.88,0.971,29.804,1.702c5.471,0.403,16.718-1.314,20.766,3.481c-6.894,1.263-15.595,0.343-22.7-0.009
		c-9.857-0.488-19.75-0.741-29.641-0.739c-13.459,0.003-27.1,0.57-40.509,1.663c-8.826,0.72-17.614,2.515-26.505,2.135
		c-8.222-0.352-14.954,2.181-22.967,4.011c-10.964,2.505-22.011,4.701-32.853,7.783c-11.859,3.371-23.65,8.04-35.744,10.527
		c-1.094,0.225-5.212,1.273-6.271,0.935c-2.678-0.855-1.029-0.251-1.634-2.548c-1.009-3.83-0.551-8.794-0.812-12.818
		C7.606,324.063,1.556,321.418,4.79,320.047z"/>
	<path style="fill:#6EA5C4;" d="M113.756,250.175c3.653-7.888,13.751-10.502,21.505-11.842c10.214-1.767,20.274-4.025,30.506-5.665
		c2.584-0.414,5.797-1.743,8.466-1.243c13.83,2.59,25.894,0.146,39.783,0.034c13.863-0.112,27.619-1.662,41.502-1.662
		c13.223,0,26.379,0.272,39.542,1.235c19.359,1.416,37.817,3.915,56.731,8.71c7.415,1.88,14.871,3.847,22.006,6.669
		c2.957,1.17,10.924,3.933,12.497,7.071c2.438,4.86-3.749,11.315-8.633,9.621c-3.37-1.169-6.915-6.497-10.154-8.544
		c-5.53-3.494-11.456-6.381-17.716-8.333c-6.058-1.889-12.408-3.623-18.522-5.209c-3.246-0.842-5.452,0.122-6.073,3.213
		c-0.198,0.988,0.998,4.315,1.051,5.6c0.11,2.745-0.415,5.507-0.287,8.272c0.257,5.512,2.144,13.86-1.042,18.691
		c-5.089,7.72-9.325-2.07-9.033-7.255c0.437-7.763,2.953-15.475,2.91-23.312c-0.029-5.195-2.689-8.164-7.882-8.493
		c-6.721-0.425-13.585-0.383-20.446-1.073c-27.281-2.745-54.316,0.171-81.415,2.091c-11.954,0.847-28.619-2.171-31.279,13.061
		c-0.628,3.591-0.317,8.788,0.01,12.472c0.238,2.686,1.93,6.098,1.268,8.788c-0.66,2.681-5.444,6.547-8.524,5.869
		c-5.751-1.264-3.341-12.925-3.139-17.097c0.136-2.809,0.863-11.646-2.2-13.442c-3.179-1.863-12.942,3.858-16.193,5.102
		c-4.631,1.773-8.741,3.417-11.952,7.012c-2.04,2.285-1.975,3.572-5.439,3.384C125.232,263.553,119.666,255.771,113.756,250.175z"/>
	<path style="fill:#6EA5C4;" d="M280.533,483.912c15.097-0.183,30.298,1.248,45.49,1.248c17.623,0,35.334,0.54,52.901,0.852
		c13.672,0.243,28.357,1.143,41.908-1.269c15.432-2.746,29.747-6.099,44.569-10.926c6.232-2.03,12.745-3.786,19.167-5.131
		c4.952-1.037,11.71-3.707,16.822-3.072c2.348,0.292,5.106,1.245,3.892,4.205c-1.452,3.54-11.912,5.449-14.919,6.202
		c-29.651,7.433-59.556,18.784-90.24,21.412c-29.495,2.525-58.6-3.708-88.041-4.393c-9.016-0.21-17.797-0.49-26.671-1.631
		C282.589,491.046,277.877,490.39,280.533,483.912z"/>
	<path style="fill:#6EA5C4;" d="M416.711,435.26c-0.051-1.084-0.104-2.166-0.156-3.243c-0.207-4.224-2.28-10.387,0.81-14.159
		c5.27-6.431,6.257,9.529,6.318,12.156c0.187,7.995-0.589,15.973-0.933,23.953c-0.024,0.54,3.004,27.544-5.405,21.645
		c-3.864-2.711-0.003-14.436-0.001-18.259C417.347,450.103,417.058,442.609,416.711,435.26z"/>
	<path style="fill:#6EA5C4;" d="M433.585,416.536c3.853,9.243,0.832,23.207,0.832,33.28c0,5.787-0.775,11.639,0.015,17.252
		c0.317,2.256-0.201,5.339,3.311,5.166c4.574-0.225,3.301-10.593,3.336-13.687c0.131-11.364,2.371-24.708,0.801-35.773
		c-0.309-2.182-0.969-5.708-3.002-6.966C434.283,412.964,434.872,419.732,433.585,416.536z"/>
	<path style="fill:#6EA5C4;" d="M453.132,416.951c-0.087,8.034,0.138,16.15,0.415,24.126c0.235,6.751-0.759,13.246-0.847,19.963
		c-0.026,2.025-0.343,5.836,2.937,4.995c2.336-0.599,2.965-6.22,3.224-8.315c1.289-10.423,1.578-23.333,0.055-33.693
		C458.29,419.774,453.82,410.523,453.132,416.951z"/>
	<path style="fill:#6EA5C4;" d="M468.521,416.12c-0.262,15.43-0.681,31.613,0.062,46.942c2.96-1.192,4.473-1.593,5.567-5.157
		c2.152-7.012,2.019-17.897,1.439-25.154c-0.394-4.932,0.539-16.182-5.72-17.855C468.969,416.953,468.137,419.039,468.521,416.12z"
		/>
	<path style="fill:#6EA5C4;" d="M485.157,416.12c2.54,6.986-0.243,17.499-0.623,24.776c-0.306,5.837-1.33,12.262-0.978,17.999
		c7.947,1.511,5.515-23.542,5.323-27.853c-0.186-4.164,0.069-8.311-0.393-12.437C487.79,412.385,485.989,415.705,485.157,416.12z"/>
</g>
<path style="fill:#395460;" d="M239.771,475.677c0-10.638,0.895-21.155,0.895-31.813c0-4.716-0.004-9.367-0.448-14.027
	c-0.469-4.922-1.955-10.14-0.447-15.026c2.851-9.238,16.142-4.604,22.992-4.441c2.535,0.061,5.869-0.583,7.929,0.833
	c4.156,2.858,2.85,12.418,2.359,16.426c-1.109,9.066-0.507,17.517-0.006,26.589c0.255,4.6,0.276,9.294,0.275,13.898
	c-0.001,2.867,0.542,6.063,0.19,8.866c-2.127-0.23-4.174,0.155-6.351,0.241c-3.833,0.152-7.804-0.253-11.64-0.442
	c-3.213-0.157-6.403,0.135-9.61-0.212C243.693,476.332,241.519,475.623,239.771,475.677z"/>
<g>
	<path style="fill:#3C6BA5;" d="M166.702,247.882c0,9.927,0.912,19.794,0.394,29.669c-6.159,0.341-12.093,0.837-18.249,1.702
		c-5.472,0.77-7.626-0.202-12.27-1.246c-1.803-5.655-3.296-15.121,0.408-20.218C140.388,253.105,161.628,243.15,166.702,247.882z"/>
	<path style="fill:#3C6BA5;" d="M312.003,238.507c1.991,0.868,3.801,2.082,5.311,3.801c-3.062,11.612-40.277,3.208-48.402,2.322
		c-11.713-1.276-25.138-2.312-36.458,1.625c-2.648,0.921-7.491,3.526-8.857,6.039c-2.142,3.943-0.005,4.321,3.623,6.115
		c6.793,3.359,14.003,5.497,21.382,7.133c12.821,2.842,25.764,4.09,38.741,6.048c4.976,0.751,15.107,1.397,19.06,4.744
		c-6.355,5.446-21.233,2.515-28.933,2.18c-13.964-0.608-28.058-0.901-42.035-0.89c-9.283,0.007-18.711,0.475-27.981,0.024
		c-3.46-0.168-8.328,0.18-11.397-1.499c0.398-6.975-0.966-14.619-1.707-21.527c-0.363-3.388-1.266-7.096-0.235-10.456
		c1.493-4.862,4.023-3.951,8.83-5.112c7.638-3.086,17.116-1.845,25.83-2.403c8.723-0.559,17.445-1.59,26.183-2.141
		c12.521-0.789,24.861-0.22,37.308,1.193C298.383,236.397,306.017,235.895,312.003,238.507z"/>
</g>
<path d="M38.482,384.239c-0.374-6.513-0.22-13.026-1.027-19.518c-0.553-4.448,0.548-19.674-7.502-17.535
	c-4.03,1.072-6.305,4.656-7.206,8.482c-1.094,4.646-1.789,10.049-1.615,14.843c0.009,0.256,0.029,0.507,0.04,0.761
	c-0.626,8.029,0.287,16.365,1.301,24.299c0.347,2.711,0.12,5.159,2.817,6.383c3.308,1.501,9.641,1.174,12.586-0.731
	c0.922-0.596,1.108-1.747,0.791-2.661C39.915,393.997,38.749,388.889,38.482,384.239z M26.819,397.19
	c-0.21-0.346-0.373-0.79-0.504-1.291c0.952-5.067-0.858-11.79-1.309-16.582c-0.328-3.492-0.727-7.278-0.568-10.79
	c0.196-4.281,0.741-11.796,3.132-15.19c5.454-7.742,5.66,3.825,5.87,7.636c0.241,4.348,0.729,8.658,0.85,13.015
	c0.221,7.938,0.658,15.847,0.762,23.769C32.146,398.504,27.682,398.61,26.819,397.19z"/>
<path d="M66.942,358.349c-0.321-6.705-3.031-19.72-12.564-15.812c-9,3.688-9.949,16.216-9.903,24.36
	c0.024,4.17,0.082,8.297,0.252,12.428c-1.351,4.785-0.101,10.655,0.086,15.464c0.074,1.9-0.134,4.112,1.11,5.709
	c0.744,0.956,2.661,1.577,2.631,1.567c2.666,0.961,14.759,2.114,17.615-1.355c0.618-0.356,1.064-0.997,1.058-1.928
	C67.139,385.328,67.583,371.751,66.942,358.349z M62.817,368.262c-0.684,9.801-0.241,19.631-0.268,29.456
	c-1.976,1.119-4.628,0.785-6.929,0.823c-2.442,0.04-5.617,0.772-6.624-1.601c-1.011-2.384-0.465-6.406-0.762-9.011
	c-0.047-0.413-0.091-0.831-0.136-1.251c-0.107-3.361-0.246-6.725-0.288-10.113c-0.109-8.809-1.532-20.542,4.519-27.746
	C62.837,336.312,63.2,362.775,62.817,368.262z"/>
<path d="M84.813,335.694c-10.311,3.971-11.338,17.762-11.308,27.185c0.006,2.056,0.074,4.107,0.156,6.157
	c-0.105,0.2-0.166,0.43-0.119,0.704c0.621,3.582-0.208,8.113-0.218,11.801c-0.009,3.314,0.143,6.633,0.255,9.943
	c0.146,4.34-0.218,9.485,4.643,11.051c3.849,1.24,26.586,3.432,24.065-4.869c0.274-0.352,0.453-0.81,0.47-1.38
	c0.504-15.863-0.109-32.329-1.278-48.156C100.815,339.133,94.149,332.099,84.813,335.694z M97.598,398.429
	c-0.484,0.369-3.368,0.217-4.335,0.317c-3.699,0.381-13.722,1.772-15.299-2.537c-0.293-0.801-0.484-1.737-0.625-2.731
	c0.48-6.266,0.121-12.785-0.156-18.91c-0.43-9.533-1.783-20.925,2.846-29.695c3.768-7.141,14.638-9.838,16.965-0.026
	c1.125,4.746,0.598,10.165,0.663,15.011c0.163,12.144,0.061,24.298,0.48,36.429c0.009,0.238,0.052,0.45,0.112,0.651
	C97.919,397.667,97.659,398.382,97.598,398.429z"/>
<path d="M149.36,331.186c-11.066-0.359-15.385,9.866-17.001,19.03c-0.302,1.709-0.553,3.444-0.777,5.189
	c-0.082,0.46-0.133,0.93-0.162,1.402c-0.789,6.778-1.017,13.743-0.616,20.587c-0.242,5.731-1.13,12.004,5.828,13.032
	c3.687,0.545,7.817,0.625,11.545,0.512c2.75-0.085,8.18,0.502,10.594-0.74c3.547-1.825,3.655-6.963,3.202-11.513
	c0.393-2.836,0.347-5.858,0.407-8.474c0.145-6.271,0.595-12.401,0.281-18.672C162.216,342.704,160.252,331.541,149.36,331.186z
	 M158.948,358.368c-0.265,6.059-0.702,12.1-0.935,18.152c-0.051,0.216-0.11,0.424-0.151,0.648c-0.378,2.015,0.532,7.668-0.973,8.951
	c-0.787,0.671-6.594,0.484-7.774,0.55c-2.784,0.153-5.51-0.032-8.28-0.233c-3.431-0.25-5.456,0.231-6.239-3.682
	c-0.65-3.254-0.287-6.985-0.338-10.276c-0.049-3.104-0.061-6.216-0.217-9.318c0.035-0.862,0.072-1.724,0.14-2.584
	c0.679-8.689,1.877-23.874,12.891-25.667C159.276,332.921,159.305,350.21,158.948,358.368z"/>
<path d="M174.387,343.577c-2.893,6.812-3.227,13.802-3.788,21.073c-0.188,2.433-0.19,4.806-0.125,7.187
	c-0.779,5.501-1.787,11.73-0.455,16.703c0.182,0.678,0.769,1.318,1.47,1.47c3.27,0.709,7.104-0.06,10.503-0.059
	c3.875,0.003,7.745-0.304,11.607-0.318c7.576-0.026,8.397-0.25,8.61-7.952c0.381-13.758,3.596-29.893-2.305-42.887
	C193.941,325.66,178.804,333.178,174.387,343.577z M197.825,384.688c-0.883,1.469-0.415,0.346-2.16,0.536
	c-1.085,0.119-2.943-0.057-3.872-0.046c-2.628,0.034-5.198,0.487-7.829,0.59c-1.808,0.071-7.589,0.858-9.963,0.328
	c0.054-0.166-0.258-0.761-0.233-1.59c0.015-0.507-0.051-1.056-0.135-1.616c0.333-10.989-1.039-22.33,2.263-32.982
	c1.291-4.166,3.059-8.013,6.352-10.956c4.19-3.746,10.539-5.551,13.64,0.477c2.16,4.199,3.295,10.03,3.409,14.649
	c0.172,6.982-0.661,13.988-1.019,20.949C198.16,377.315,198.988,382.754,197.825,384.688z"/>
<path d="M511.975,319.703c-0.482-9.549-9.661-11.993-18.728-13.632c-2.433-0.896-4.857-1.8-7.343-2.626
	c-9.348-3.107-18.661-6.487-27.951-9.817c-8.901-3.19-17.981-6.537-27.123-8.931c-7.877-2.062-15.534-6.025-23.685-6.654
	c-9.639-0.744-19.273-1.042-28.917-1.175c1.21-3.551,1.538-8.079,1.726-11.52c0.011-0.196-0.001-0.396,0-0.594
	c0.663,0.389,5.838-0.382,5.893-0.394c3.154-0.719,5.297-1.703,8.13-3.491c4.189-2.641,7.743-6.065,6.714-11.484
	c-0.932-4.903-6.019-6.763-10.1-8.405c-3.167-1.275-6.32-2.621-9.495-3.908c2.125-6.517,1.32-14.249,0.358-20.84
	c-1.033-7.081-2.673-13.838-4.777-20.545c0.046-0.166,0.036-0.354-0.061-0.543c-0.064-0.124-0.146-0.235-0.215-0.353
	c-0.762-2.381-1.582-4.756-2.457-7.139c-5.381-14.661-14.206-29.603-24.985-40.92c-13.702-14.387-28.309-25.37-45.189-35.752
	c-7.158-4.403-15.065-6.846-22.564-10.501c-3.504-1.707-7.388-3.255-10.462-5.69c-1.771-1.401-2.734-3.305-4.011-4.998
	c2.223-1.23,4.117-3.044,5.688-5.633c4.93-8.123,1.059-19.448-6.998-23.669c-0.212-2.278-0.875-5.26-0.646-7.161
	c0.415-3.464,4.206-4.569,6.639-6.325c4.731-3.414,7.524-8.355,7.868-14.231c0.235-4.008-0.84-8.906-3.062-12.275
	c-1.998-3.029-5.187-7.54-9.003-8.175c-1.404-0.235-3.233,1.305-2.13,2.771c5.457,7.25,0.848,22.98-9.984,18.894
	c-7.327-2.764-8.803-11.443-6.273-18.017c0.545-1.416-1.041-2.599-2.307-2.307c-8.715,2.009-14.446,15.566-10.652,23.411
	c1.903,3.933,6.174,8.222,10.184,10.009c3.149,1.404,4.711,0.963,4.585,4.721c-0.097,2.901,0.371,5.469,0.802,8.239
	c-2.172,0.918-4.124,2.348-5.647,4.35c-1.676,2.201-2.462,5.083-3.53,7.621c-0.373,0.683-0.726,1.385-1.043,2.126
	c-2.137,4.998-0.418,9.358,2.69,13.465c0.499,0.66,1.088,1.215,1.732,1.698c-1.482,1.804-2.453,3.948-4.396,5.485
	c-3.076,2.436-6.958,3.983-10.462,5.69c-7.497,3.653-15.404,6.098-22.562,10.501c-16.88,10.382-31.486,21.364-45.189,35.752
	c-10.779,11.318-19.604,26.259-24.985,40.92c-0.875,2.383-1.694,4.759-2.457,7.139c-0.07,0.12-0.152,0.23-0.215,0.353
	c-0.097,0.188-0.107,0.376-0.061,0.543c-2.104,6.706-3.744,13.464-4.777,20.545c-0.962,6.592-1.767,14.324,0.358,20.84
	c-3.175,1.286-6.328,2.634-9.495,3.908c-4.08,1.642-9.168,3.501-10.1,8.405c-1.029,5.419,2.524,8.843,6.714,11.484
	c2.834,1.787,4.975,2.771,8.13,3.491c0.055,0.012,5.232,0.784,5.893,0.394c0.003,0.198-0.01,0.398,0.001,0.594
	c0.187,3.441,0.515,7.969,1.726,11.52c-9.644,0.133-19.277,0.432-28.916,1.175c-8.151,0.629-15.81,4.592-23.686,6.654
	c-9.142,2.394-18.222,5.741-27.123,8.931c-9.292,3.33-18.605,6.71-27.951,9.817c-2.485,0.826-4.91,1.731-7.343,2.626
	c-9.067,1.639-18.246,4.085-18.728,13.632c-0.379,7.515,4.683,9.212,11.025,8.633c-0.475,4.024-0.322,8.075-0.551,12.15
	c-0.303,5.393-1.009,10.519-1.043,15.949c-0.07,11.155,0.499,22.123,0.453,33.27c-0.046,11.135,1.152,22.287,1.043,33.429
	c-0.064,6.548,0.122,13.176,0.8,19.729c-0.509,3.405-0.495,6.975,0.367,10.075c-2.453-0.482-4.834-0.176-6.734,1.953
	c-3.364,3.767-4.167,14.114-1.115,18.119c1.975,2.593,5.021,3.346,8.066,4.02c4.51,0.996,8.886,2.428,13.379,3.516
	c9.413,2.28,18.79,4.801,28.198,7.092c16.601,4.041,33.2,9.169,50.137,11.387c10.343,1.354,21.468,0.248,31.935,0.243
	c10.346-0.005,20.551-0.069,30.848-0.615c9.802-0.52,19.74-1.239,29.505-1.516c2.507-0.071,4.936,0.304,7.444,0.056
	c2.679-0.265,5.267-1.043,7.965-1.104c3.032-0.07,5.504-0.11,7.899-0.958c3.084-0.004,6.115-0.041,9.34-0.58
	c3.073-0.514,5.26-0.841,6.512-3.961c3.024,0.507,6.406,0.16,9.302,0.198c5.208,0.071,10.331,0.485,15.561,0.111
	c1.566-0.112,11.681-0.051,15.553-2.313c0.145,0.626,0.303,1.223,0.488,1.731c1.23,3.384,3.459,3.707,6.622,4.236
	c3.225,0.539,6.256,0.576,9.34,0.58c2.396,0.847,4.866,0.888,7.899,0.958c2.699,0.061,5.287,0.84,7.965,1.104
	c2.508,0.247,4.936-0.127,7.443-0.056c9.765,0.277,19.703,0.996,29.505,1.516c10.297,0.546,20.501,0.61,30.848,0.615
	c10.467,0.005,21.593,1.11,31.936-0.243c16.936-2.217,33.536-7.345,50.137-11.387c9.408-2.291,18.785-4.812,28.198-7.092
	c4.494-1.088,8.869-2.52,13.379-3.516c3.046-0.674,6.091-1.427,8.066-4.02c3.052-4.005,2.248-14.354-1.114-18.119
	c-1.9-2.129-4.281-2.434-6.734-1.953c0.862-3.101,0.876-6.67,0.367-10.075c0.678-6.553,0.863-13.181,0.8-19.729
	c-0.109-11.142,1.088-22.294,1.043-33.429c-0.046-11.148,0.523-22.116,0.453-33.27c-0.034-5.431-0.74-10.557-1.043-15.949
	c-0.23-4.075-0.076-8.126-0.55-12.15C507.291,328.914,512.354,327.219,511.975,319.703z M376.761,235.373
	c-2.935-1.098-5.905-2.09-8.944-2.865c-6.703-1.708-13.488-4.021-20.301-5.551c1.339-4.091,0.124-9.338-0.368-13.318
	c-0.121-0.977-0.242-1.949-0.363-2.922c4.489,1.467,8.945,3.079,13.389,4.938c3.726,1.558,7.356,3.077,10.931,4.94
	c1.597,0.832,3.162,1.708,4.831,2.277C376.275,227.03,376.451,231.193,376.761,235.373z M374.574,212.456
	c0.347,1.737,0.611,3.474,0.833,5.21c-4.786-3.706-10.986-5.778-16.445-8.148c-4.211-1.827-8.548-3.399-12.946-4.801
	c-0.448-3.34-0.937-6.674-1.526-10.017c-0.816-4.634-1.771-9.344-2.915-14.015c3.414,1.288,6.776,2.66,10.035,4.142
	c4.509,2.05,8.972,4.06,13.405,6.225c1.218,0.595,2.619,1.088,4.036,1.608C371.532,199.061,373.266,205.903,374.574,212.456z
	 M200.402,221.617c-1.681,0.216-3.364,0.424-5.056,0.603c-8.736,0.921-17.175,2.422-25.864,3.764
	c-0.55,0.085-1.099,0.196-1.648,0.294c0.679-4.303,0.475-9.095,0.981-13.327c0.14-1.175,0.288-2.347,0.438-3.517
	c5.353-1.641,10.764-3.111,16.281-4.544c4.523-1.175,9.184-2.072,13.879-2.827c-0.017,1.072-0.034,2.144-0.031,3.22
	C199.392,210.622,198.73,216.451,200.402,221.617z M199.924,189.01c-0.136,2.595-0.266,5.175-0.366,7.758
	c-4.825,0.796-9.629,1.721-14.327,2.796c-5.059,1.158-10.144,2.433-15.171,3.904c0.422-2.908,0.883-5.811,1.407-8.716
	c0.942-5.232,2.095-10.513,3.506-15.725c4.691-1.646,9.44-3.138,14.124-4.505c4.17-1.218,8.35-2.282,12.544-3.264
	C200.801,177.116,200.238,183.018,199.924,189.01z M185.766,170.628c-3.102,0.994-6.195,2.066-9.278,3.174
	c1.194-3.853,2.542-7.643,4.08-11.315c2.704-6.453,5.754-12.901,9.391-18.959c5.346-1.723,10.732-3.338,16.23-4.626
	c1.15-0.27,2.311-0.525,3.476-0.771c-1.707,4.857-3.147,9.821-4.412,14.812c-1.083,4.275-1.986,8.548-2.737,12.836
	C196.707,167.245,191.064,168.928,185.766,170.628z M203.012,208.728c0.005-2.401-0.014-4.809-0.004-7.217
	c4.512-0.658,9.031-1.21,13.468-1.752c4.674-0.57,9.201-1.092,13.902-1.412c0.226-0.015,0.45-0.022,0.676-0.035
	c-0.09,6.876-0.034,13.755,0.168,20.626c-0.086,0.178-0.142,0.366-0.181,0.555c-1.817,0.055-3.711,0.131-5.637,0.26
	c-1.895-0.039-3.791-0.067-5.691-0.037c-5.672,0.09-11.261,0.843-16.878,1.585c-0.061-0.228-0.206-0.443-0.48-0.601
	C202.767,220.938,203.009,209.821,203.012,208.728z M231.13,193.35c-5.083,0.095-10.128,0.714-15.49,1.263
	c-4.152,0.425-8.345,0.979-12.533,1.611c0.052-1.351,0.129-2.701,0.242-4.049c0.619-7.328,1.188-14.589,2.212-21.806
	c4.327-0.945,8.674-1.804,13.068-2.569c1.709-0.297,3.421-0.527,5.134-0.729c2.947,0.206,5.947,0.222,8.956,0.151
	C231.86,175.908,231.347,184.623,231.13,193.35z M206.459,164.826c0.415-2.312,0.875-4.622,1.429-6.926
	c1.646-6.849,3.464-13.846,5.885-20.575c6.255-1.149,12.632-1.945,18.877-2.303c0.725-0.041,1.455-0.077,2.182-0.115
	c0.828,0.074,1.664,0.125,2.503,0.162c-0.951,5.583-1.854,11.174-2.706,16.76c-0.482,3.157-0.902,6.32-1.278,9.488
	C224.449,161.377,215.302,162.789,206.459,164.826z M274.487,161.401c-8.557-0.679-17.105,0.336-25.828,0.502
	c-1.487,0.029-2.987,0.054-4.493,0.08c-2.298-0.309-4.628-0.509-6.981-0.601c0.309-3.384,0.676-6.77,1.122-10.161
	c0.705-5.37,1.513-10.725,2.372-16.073c3.782,0.017,7.571-0.16,11.157-0.116c6.454,0.077,12.981,0.328,19.428-0.187
	c0.877,5.449,1.701,10.905,2.419,16.376c0.445,3.391,0.812,6.778,1.122,10.161C274.698,161.386,274.593,161.397,274.487,161.401z
	 M275.195,166.106c0.68,8.982,0.978,17.948,1.142,26.93c-7.475-0.507-15.218,0.055-22.273,0.107
	c-5.366,0.041-10.695,0.296-16.027,0.46c-0.802-0.077-1.601-0.141-2.394-0.183c0.156-8.784,0.448-17.551,1.087-26.334
	c4.374-0.177,8.721-0.419,12.901-0.374c4.986,0.054,9.963-0.54,14.958-0.695C268.052,166.386,271.719,166.045,275.195,166.106z
	 M235.568,198.186c2.454-0.044,4.889-0.129,7.356-0.639c0.284-0.059,0.5-0.206,0.685-0.384c3.477-0.075,6.957-0.146,10.455-0.119
	c4.72,0.036,9.481-0.069,14.219,0.022c0.196,0.227,0.445,0.412,0.781,0.48c2.468,0.51,4.902,0.595,7.356,0.639
	c0.095,7.043,0.142,14.1,0.257,21.187c-0.863-0.011-1.727-0.022-2.588-0.039c-6.739-0.125-13.535-0.397-20.214-0.401
	c-6.101-0.004-12.387,0.246-18.566,0.433C235.427,212.283,235.473,205.227,235.568,198.186z M274.604,134.773
	c1.581,0.085,3.16,0.16,4.735,0.25c6.245,0.358,12.623,1.154,18.877,2.303c2.422,6.73,4.24,13.726,5.885,20.575
	c0.554,2.305,1.014,4.614,1.429,6.926c-8.842-2.038-17.989-3.45-26.894-3.51c-0.376-3.168-0.796-6.331-1.278-9.488
	C276.493,146.144,275.573,140.455,274.604,134.773z M293.361,167.799c4.396,0.765,8.743,1.625,13.068,2.569
	c1.024,7.217,1.593,14.478,2.212,21.806c0.114,1.348,0.19,2.698,0.242,4.049c-4.189-0.631-8.381-1.185-12.533-1.611
	c-5.364-0.549-10.408-1.169-15.49-1.263c-0.225-9.036-0.757-18.062-1.674-27.055C283.934,166.574,288.654,166.98,293.361,167.799z
	 M280.936,198.313c0.226,0.012,0.449,0.02,0.676,0.035c4.701,0.321,9.228,0.842,13.902,1.412c4.437,0.542,8.956,1.094,13.468,1.752
	c0.01,2.408-0.007,4.815-0.003,7.217c0.003,1.092,0.245,12.21,0.656,11.97c-0.273,0.158-0.419,0.373-0.48,0.601
	c-5.617-0.741-11.206-1.495-16.878-1.585c-1.847-0.029-3.687-0.001-5.527,0.035c-1.926-0.165-3.865-0.253-5.807-0.301
	c-0.04-0.175-0.095-0.347-0.175-0.51C280.97,212.067,281.025,205.189,280.936,198.313z M309.472,165.778
	c-0.751-4.288-1.654-8.562-2.737-12.836c-1.265-4.991-2.705-9.954-4.412-14.812c1.165,0.246,2.326,0.502,3.476,0.771
	c5.499,1.289,10.885,2.903,16.23,4.626c3.637,6.058,6.688,12.506,9.391,18.959c1.538,3.672,2.886,7.463,4.08,11.315
	c-3.083-1.109-6.176-2.18-9.278-3.174C320.925,168.928,315.283,167.245,309.472,165.778z M322.891,174.522
	c4.684,1.367,9.433,2.86,14.124,4.505c1.411,5.21,2.564,10.493,3.506,15.725c0.523,2.906,0.986,5.808,1.407,8.716
	c-5.027-1.471-10.11-2.746-15.171-3.904c-4.699-1.076-9.501-1.999-14.327-2.796c-0.1-2.583-0.231-5.163-0.366-7.758
	c-0.313-5.993-0.877-11.894-1.718-17.752C314.542,172.24,318.72,173.304,322.891,174.522z M312.608,205.283
	c0.002-1.077-0.014-2.149-0.031-3.22c4.694,0.755,9.357,1.652,13.879,2.827c5.519,1.435,10.93,2.903,16.283,4.544
	c0.15,1.172,0.297,2.342,0.438,3.517c0.505,4.232,0.302,9.023,0.981,13.327c-0.549-0.099-1.098-0.21-1.648-0.294
	c-8.689-1.343-17.127-2.844-25.864-3.764c-1.692-0.178-3.375-0.387-5.056-0.603C313.259,216.451,312.598,210.622,312.608,205.283z
	 M354.597,165.112c4.749,6.175,7.784,13.715,11.349,20.59c0.327,0.63,0.625,1.281,0.933,1.926
	c-3.822-1.974-7.673-3.884-11.576-5.716c-4.915-2.306-9.967-4.419-15.083-6.373c-1.286-4.559-2.784-9.041-4.594-13.324
	c-2.406-5.693-5.038-11.399-8.061-16.871c4.754,1.582,9.499,3.179,14.282,4.661C346.308,154.849,350.532,159.825,354.597,165.112z
	 M335.304,143.186c-1.668-0.57-3.284-1.108-4.753-1.651c-2.157-0.797-4.344-1.527-6.545-2.223c-1.537-2.407-3.174-4.741-4.931-6.98
	c-1.906-2.428-3.852-4.849-5.852-7.223C321.161,130.463,328.622,136.546,335.304,143.186z M291.26,112.703
	c0.009,0.004,0.017,0.007,0.026,0.011c3.138,1.452,6.251,3.023,9.322,4.704c5.489,5.514,10.719,11.191,15.568,17.463
	c0.679,0.877,1.329,1.778,1.973,2.684c-3.716-1.044-7.456-1.995-11.184-2.887c-2.137-0.512-4.303-0.997-6.487-1.446
	c-2.035-5.069-4.418-9.984-7.345-14.611c-1.179-1.863-2.498-3.99-3.954-6.114C289.872,112.571,290.566,112.637,291.26,112.703z
	 M283.951,112.038c3.472,4.226,6.615,8.741,9.124,13.485c1.185,2.24,2.245,4.554,3.227,6.907c-5.21-0.945-10.478-1.657-15.666-1.994
	c-2.287-0.148-4.579-0.331-6.869-0.459c-1.011-5.7-2.079-11.388-3.25-17.042c-0.131-0.631-0.266-1.268-0.399-1.903
	C274.734,111.283,279.345,111.638,283.951,112.038z M270.873,103.109c2.907,1.633,5.915,3.083,8.952,4.471
	c-3.512-0.407-7.068-0.653-10.632-0.78c-0.435-1.913-0.898-3.828-1.411-5.728C268.695,101.783,269.715,102.458,270.873,103.109z
	 M239.46,34.251c-1.34-4.347,0.755-11.519,4.648-15.05c-1.532,9.504,3.127,19.364,14.102,20.172
	c10.018,0.736,15.11-9.358,13.788-18.162c0.994,1.784,1.733,3.635,2.025,4.847c1.429,5.929,0.26,12.386-4.584,16.37
	c-2.92,2.402-7.716,3.57-9.162,7.393c-0.989,2.614-0.434,6.024-0.165,9.07c-1.679-0.186-3.37-0.155-5.01,0.111
	c0.114-2.906-0.076-5.818-0.044-8.756c0.032-2.91-0.141-4.242-2.781-5.655C247.48,42.022,241.355,40.405,239.46,34.251z
	 M249.782,67.131c2.101-1.702,4.543-2.88,7.351-2.925c9.874-0.156,16.938,10.504,9.465,18.395c-4.444,4.693-16.5,4.774-19.616-1.54
	C244.579,76.194,246.472,71.075,249.782,67.131z M247.863,98.62c0.172-0.776,0.372-1.573,0.564-2.383
	c0.809-1.434,1.42-3.041,1.9-4.861c2.593,0.614,5.406,0.673,7.833,0.561c1.243-0.057,2.421-0.188,3.543-0.398
	c0.474,1.754,1.076,3.305,1.86,4.698c0.191,0.809,0.391,1.607,0.564,2.383c0.601,2.706,1.291,5.395,1.946,8.095
	c-6.59-0.116-13.158,0.115-19.445,0.413c-0.272,0.012-0.545,0.027-0.817,0.04C246.496,104.317,247.228,101.477,247.863,98.62z
	 M244.942,111.029c0.316-0.02,0.629-0.045,0.945-0.065c7.041-0.437,14.09-0.382,21.134-0.072c0.15,0.706,0.308,1.41,0.44,2.121
	c1.044,5.603,2.043,11.216,2.987,16.837c-2.578-0.051-5.147,0.04-7.696,0.413c-3.643-0.01-7.29,0.085-10.915,0.126
	c-0.586,0.006-1.179,0.006-1.777,0.002c-2.817-0.484-5.662-0.599-8.517-0.543c0.945-5.621,1.943-11.233,2.987-16.837
	C244.653,112.348,244.803,111.689,244.942,111.029z M231.728,107.781c3.185-1.447,6.342-2.96,9.389-4.671
	c1.158-0.65,2.178-1.326,3.091-2.038c-0.56,2.076-1.062,4.17-1.531,6.258c-3.742,0.201-7.519,0.454-11.288,0.832
	C231.503,108.035,231.613,107.906,231.728,107.781z M241.828,111.243c-0.119,0.564-0.238,1.13-0.356,1.691
	c-1.172,5.655-2.24,11.343-3.25,17.042c-2.29,0.129-4.582,0.311-6.869,0.459c-5.188,0.337-10.456,1.049-15.666,1.994
	c0.983-2.353,2.042-4.668,3.227-6.907c2.462-4.653,5.535-9.083,8.929-13.239C232.505,111.907,237.165,111.559,241.828,111.243z
	 M211.381,117.418c2.337-1.279,4.704-2.473,7.082-3.621c1.379-0.349,2.747-0.676,4.096-0.926c-1.356,2.001-2.59,3.993-3.701,5.748
	c-2.927,4.628-5.31,9.541-7.345,14.611c-2.183,0.449-4.35,0.935-6.487,1.446c-3.729,0.892-7.469,1.844-11.184,2.887
	c0.643-0.906,1.294-1.807,1.973-2.684C200.662,128.609,205.893,122.932,211.381,117.418z M198.767,125.109
	c-2,2.374-3.945,4.795-5.852,7.223c-1.757,2.238-3.395,4.574-4.931,6.98c-2.201,0.696-4.388,1.426-6.545,2.223
	c-1.469,0.543-3.084,1.081-4.753,1.651C183.367,136.546,190.829,130.463,198.767,125.109z M146.044,185.701
	c3.565-6.875,6.6-14.415,11.349-20.59c4.065-5.285,8.289-10.262,12.752-15.106c4.782-1.484,9.529-3.081,14.283-4.661
	c-3.024,5.472-5.656,11.178-8.061,16.871c-1.81,4.283-3.308,8.765-4.594,13.324c-5.117,1.954-10.169,4.068-15.084,6.373
	c-3.903,1.832-7.755,3.742-11.576,5.716C145.419,186.983,145.717,186.33,146.044,185.701z M137.416,212.456
	c1.306-6.553,3.042-13.395,5.521-19.796c1.417-0.519,2.82-1.013,4.036-1.608c4.433-2.165,8.896-4.175,13.405-6.225
	c3.259-1.481,6.623-2.855,10.037-4.142c-1.144,4.671-2.1,9.38-2.915,14.015c-0.589,3.343-1.077,6.676-1.526,10.017
	c-4.398,1.402-8.736,2.973-12.946,4.801c-5.459,2.369-11.659,4.442-16.445,8.148C136.805,215.93,137.071,214.193,137.416,212.456z
	 M136.051,222.873c1.669-0.569,3.235-1.445,4.831-2.277c3.575-1.863,7.207-3.381,10.931-4.94c4.444-1.859,8.9-3.471,13.389-4.938
	c-0.121,0.973-0.242,1.945-0.363,2.922c-0.492,3.98-1.706,9.227-0.368,13.318c-6.815,1.53-13.599,3.842-20.301,5.551
	c-3.038,0.774-6.008,1.767-8.944,2.865C135.54,231.193,135.716,227.03,136.051,222.873z M132.409,261.416
	c-3.506-1.707-7.345-3.187-10.511-5.264c-2.086-1.37-4.834-2.804-5.399-5.452c-0.942-4.421,4.612-5.474,7.848-6.663
	c12.396-4.552,25.645-5.884,38.337-9.399c13.296-3.682,27.397-4.968,41.045-6.725c4.699-0.605,9.252-1.647,13.913-2.23
	c5.071,0.262,10.613-0.802,15.269-0.867c6.952-0.097,14.1-0.313,20.989-0.252c6.698,0.06,13.45,0.231,20.189,0.356
	c5.167,0.096,10.4,0.614,15.579,0.374c6.337,0.236,12.334,1.813,18.59,2.618c13.649,1.757,27.75,3.043,41.046,6.725
	c12.69,3.515,25.941,4.847,38.337,9.399c3.237,1.189,8.79,2.242,7.848,6.663c-0.564,2.649-3.311,4.083-5.399,5.452
	c-3.165,2.077-7.003,3.556-10.511,5.264c-0.571-2.411-1.771-4.695-3.573-6.325c-2.721-2.459-7.559-4.608-10.882-6.11
	c-5.485-2.478-11.471-4.011-17.131-6.053c-13.417-4.84-27.008-5.972-40.991-8.043c-6.91-1.024-14.498-2.077-21.875-1.895
	c-0.191-0.009-0.384-0.021-0.574-0.029c-8.539-0.331-17.242-0.337-25.786-0.296c-9.207,0.044-18.598-0.387-27.744,0.498
	c-0.156,0.015-0.312,0.024-0.468,0.039c-8.502-0.74-17.495,0.488-25.566,1.684c-13.983,2.071-27.574,3.204-40.991,8.043
	c-5.661,2.042-11.647,3.575-17.131,6.053c-3.324,1.502-8.161,3.651-10.882,6.11C134.18,256.721,132.982,259.005,132.409,261.416z
	 M346.867,262.193c0.17-4.065,0.525-8.714-0.175-12.979c6.963,2.122,13.878,4.724,20.126,8.095
	c4.901,2.645,6.538,5.106,5.958,10.663c-0.318,3.049-0.235,6.045,0.821,8.844c-8.634-0.077-17.276-0.061-25.935-0.132
	c-0.395-0.004-0.792-0.006-1.189-0.01C347.473,272.036,346.674,266.821,346.867,262.193z M341.296,276.63
	c-4.655-0.042-9.317-0.117-13.968-0.281c0.611-6.095,0.367-12.365,0.681-18.484c0.166-3.219-0.079-6.448,0.064-9.667
	c0.01-0.221-0.095-2.056-0.216-3.529c3.232,0.548,6.449,1.178,9.64,1.985c1.809,0.458,3.635,0.952,5.462,1.465
	c-0.825,4.892-1.028,9.947-1.289,14.843C341.461,266.925,340.564,272.285,341.296,276.63z M324.35,258.81
	c-0.15,2.916-0.061,5.837-0.263,8.756c-0.04,0.586-0.594,8.231,0.151,7.712c-0.333,0.232-0.56,0.558-0.695,0.912
	c-1.279-0.061-2.555-0.143-3.832-0.223c-0.43-0.105-0.861-0.212-1.289-0.298c-0.213-10.719,1.787-21.575,1.083-32.261
	c1.869,0.257,3.738,0.523,5.602,0.811C324.028,248.843,324.583,254.254,324.35,258.81z M316.798,243.042
	c-0.992,3.873-0.621,8.731-0.949,12.324c-0.599,6.535-1.426,13.15-1.508,19.729c-3.665-0.319-7.302-0.171-11.138-0.09
	c-6.328,0.136-12.556-0.06-18.864,0.341c-6.676,0.424-13.53-0.344-20.232-0.342c-7.361,0.004-14.723-0.004-22.084,0.01
	c-12.591,0.022-25.151,0.646-37.702,0.745c-2.217-0.166-4.437-0.243-6.657-0.14c-0.044-6.751-0.906-13.544-1.52-20.253
	c-0.328-3.592,0.041-8.451-0.951-12.324c4.517-0.609,9.036-1.208,13.529-1.995c3.862-0.678,7.761-1.092,11.634-1.676
	c3.369-0.015,6.736-0.012,10.109-0.092c9.023-0.215,18.063-0.294,27.116-0.242c8.387,0.049,16.747,0.362,25.14,0.423
	c4.917,0.036,10.235,1.049,15.309,0.8c1.749,0.237,3.497,0.483,5.237,0.789C307.761,241.834,312.281,242.433,316.798,243.042z
	 M187.902,267.566c-0.201-2.92-0.114-5.841-0.263-8.756c-0.233-4.555,0.322-9.967-0.759-14.591c1.864-0.288,3.733-0.554,5.603-0.811
	c-0.709,10.759,1.33,21.691,1.083,32.483c-1.704,0.115-3.411,0.217-5.121,0.299c-0.136-0.354-0.362-0.68-0.695-0.912
	C188.497,275.798,187.943,268.152,187.902,267.566z M170.318,262.964c-0.26-4.896-0.463-9.952-1.289-14.843
	c1.828-0.514,3.653-1.008,5.462-1.465c3.19-0.807,6.408-1.437,9.64-1.985c-0.12,1.472-0.225,3.308-0.216,3.529
	c0.141,3.219-0.102,6.448,0.064,9.667c0.314,6.119,0.07,12.387,0.681,18.484c-4.653,0.163-9.314,0.238-13.969,0.281
	C171.426,272.285,170.529,266.925,170.318,262.964z M139.214,267.973c-0.58-5.557,1.056-8.018,5.958-10.663
	c6.247-3.371,13.163-5.971,20.126-8.095c-0.7,4.265-0.344,8.914-0.175,12.979c0.193,4.626-0.605,9.842,0.394,14.481
	c-0.397,0.003-0.792,0.006-1.189,0.01c-8.659,0.072-17.301,0.055-25.935,0.132C139.449,274.018,139.532,271.023,139.214,267.973z
	 M229.323,487.192c-0.185,0.035-0.398,0.077-0.671,0.137c-1.562,0.342-3.33,0.847-4.91,1.053c-4.12,0.539-8.064-0.298-12.249,0.586
	c-0.512,0.109-1.041,0.218-1.566,0.328c-0.343,0.036-0.692,0.072-1.023,0.11c-4.63,0.535-8.988,0.59-13.614,0.822
	c-9.468,0.477-18.969,1.023-28.466,1.5c-11.096,0.558-22.131,0.588-33.281,0.581c-10.932-0.005-22.081,0.654-32.877-0.741
	c-8.808-1.138-17.384-4.009-26.213-5.258c-10.833-1.533-21.469-5-32.075-7.661c-9.26-2.324-18.447-4.908-27.68-7.267
	c-2.706-0.691-5.511-0.284-6.024-3.994c-0.288-2.079,0.817-7.379,3.018-8.103c1.472-0.484,3.172,0.042,4.913,0.51
	c5.228,4.341,13.217,5.622,19.318,7.541c8.476,2.666,17.136,4.02,25.66,6.532c7.607,2.242,15.62,3.416,23.454,4.507
	c9.158,1.275,17.87,3.315,27.21,3.812c9.373,0.499,19.105,0.852,28.484,0.507c9.384-0.347,18.603,0.084,27.975-0.17
	c9.148-0.247,18.795,0.533,27.93-0.817c1.862-0.115,3.708-0.217,5.515-0.236c3.442-0.035,6.781-0.085,10.207-0.388
	c3.981-0.352,9.584-1.496,13.444-0.746c2.134,0.414,3.239,0.015,3.778,2.836c0.171,0.891-0.037,3.024-0.262,3.979
	C229.316,487.171,229.321,487.181,229.323,487.192z M112.195,474.124c-4.58-0.156-9.154-0.469-13.674-1.077
	c0.475-2.709-0.052-6.199-0.067-8.31c-0.046-6.211-0.085-12.421-0.155-18.631c-0.062-5.504-0.412-11.051-0.236-16.552
	c0.12-3.731,0.648-7.497,0.156-11.183c3.573-0.016,7.149-0.032,10.705-0.057c0.946-0.006,1.902-0.001,2.861,0.008
	c-0.004,4.286-0.002,8.57-0.012,12.856c-0.02,7.792,0.58,15.519,0.568,23.302C112.326,460.969,111.733,467.626,112.195,474.124z
	 M107.923,413.714c-10.382-0.313-20.985-0.47-31.372-0.207c-11.34,0.287-22.519-0.714-33.824-0.71
	c-7.895,0.003-16.198-1.245-24.139-0.525c-0.42-7.524-0.994-15.049-1.012-22.565c-0.026-10.824-0.73-21.463-0.797-32.274
	c-0.031-5.018,0.289-10.176,0.393-15.327c6.063-1.767,12.592-2.649,18.625-4.383c8.808-2.532,17.641-5.353,26.57-7.416
	c9.33-2.156,18.578-4.953,27.961-6.86c6.716-1.365,13.564-3.736,20.366-4.955c-0.035,6.357,0.362,12.587,0.54,18.919
	c0.419,14.855,0.51,29.678,0.535,44.587c0.019,10.598,0.025,21.196,0.02,31.795C110.502,413.775,109.216,413.752,107.923,413.714z
	 M93.531,472.253c-4.371-0.8-8.708-1.782-13.08-2.61c1.526-7.969,0.127-17.468,0.046-25.286c-0.054-5.097-0.205-10.198-0.196-15.294
	c0.005-3.394,0.57-7.183,0.131-10.677c4.923,0.022,9.858,0.02,14.788,0.004c-1.565,9.105-1.254,18.531-1.357,27.719
	c-0.07,6.21-0.11,12.421-0.156,18.631C93.694,466.647,93.261,469.684,93.531,472.253z M75.717,468.837
	c-0.127-0.019-0.253-0.046-0.381-0.065c-4.709-0.689-9.242-1.969-13.791-3.185c0.226-3.183-0.282-6.471-0.348-9.635
	c-0.117-5.551-0.404-11.156-0.351-16.706c0.054-5.532,0.349-11.066,0.524-16.591c0.05-1.582,0.178-3.368-0.027-5.049
	c5.335,0.382,10.675,0.736,16.044,0.775h0.02c-0.428,3.326-1.118,11.65-1.132,12.71c-0.067,5.158-0.146,10.317-0.191,15.475
	c-0.046,5.184-0.069,10.368-0.102,15.553C75.967,464.393,75.577,466.676,75.717,468.837z M56.647,464.347
	c-1.475-0.349-2.955-0.676-4.453-0.942c-2.052-0.363-4.11-0.75-6.166-1.165c-0.245-7.252-1.41-14.637-1.031-21.817
	c0.412-7.782,0.882-15.956-0.07-23.76c4.645,0.114,9.277,0.432,13.908,0.764c0.052,3.416-0.719,7.154-0.922,10.43
	c-0.278,4.493-0.966,8.971-1.103,13.465C56.596,448.334,55.663,456.949,56.647,464.347z M41.907,461.357
	c-3.877-0.88-7.725-1.901-11.481-3.162c0.485-6.065-0.225-12.513-1.067-18.516c-1.062-7.567,0.901-16.137-0.936-23.519
	c4.354,0.267,8.781,0.444,13.123,0.445c0.288,0,0.576,0.013,0.865,0.014C40.392,431.452,41.881,446.482,41.907,461.357z
	 M26.101,439.252c0.374,5.874,0.386,11.808,0.801,17.681c-4.015-1.541-6.286-2.831-7.5-5.39c1.222-9.148-0.319-17.843-0.382-27.242
	c-0.019-2.849-0.116-5.697-0.251-8.547c2.658,0.328,5.495,0.14,8.068,0.312c0.105,0.008,0.21,0.012,0.316,0.019
	C25.234,423.197,25.645,432.102,26.101,439.252z M110.739,314.825c-2.775,0.606-5.515,1.646-8.255,2.333
	c-4.345,1.089-8.692,2.05-13.081,2.941c-9.661,1.96-19.207,4.795-28.806,7.051c-8.952,2.104-17.868,4.854-26.69,7.479
	c-5.475,1.629-11.441,2.494-16.712,4.839c0.007-4.051-0.175-8.084-0.848-12.022c6.372-1.47,12.894-4.131,16.048-5.005
	c17.791-4.925,35.082-11.271,52.693-16.79c7.197-2.256,14.451-5.298,21.91-6.478c1.094-0.173,2.191-0.327,3.291-0.469
	C111.132,303.999,110.884,309.453,110.739,314.825z M394.147,375.848c0.001,12.659-0.005,25.316-0.035,37.971
	c-2.393-0.004-4.791-0.015-7.213-0.011c-2.79,0.004-5.671,0.311-8.541,0.555c2.047-2.937,2.754-7.142,0.095-9.728
	c-1.945-1.893-5.935-1.701-8.461-2.004c-3.813-0.457-7.842-0.13-11.679-0.166c-10.7-0.102-21.528,1.253-32.171,0.146
	c-6.925-0.72-14.055-0.593-21.137-0.447c1.087-6.554,0.002-14.079-0.538-20.522c-0.766-9.147-6.245-5.275-12.737-9.018
	c-3.941-2.273-4.992-7.693-7.562-11.515c-1.76-2.618-4.076-5.569-6.71-7.364c-3.808-2.598-9.28-5.146-14.194-4.812
	c-4.147-1.063-8.972-0.787-13.001-0.284c-0.631,0.079-1.27,0.163-1.91,0.252c-4.815-0.182-10.11,2.313-13.822,4.845
	c-2.634,1.795-4.95,4.746-6.709,7.364c-2.57,3.822-3.62,9.243-7.562,11.515c-6.492,3.743-11.97-0.129-12.737,9.018
	c-0.54,6.443-1.625,13.968-0.538,20.522c-7.082-0.145-14.211-0.273-21.137,0.447c-10.643,1.107-21.471-0.247-32.171-0.146
	c-3.837,0.036-7.866-0.291-11.679,0.166c-2.527,0.303-6.516,0.111-8.462,2.004c-2.659,2.586-1.953,6.791,0.095,9.728
	c-2.87-0.245-5.751-0.551-8.541-0.555c-2.422-0.004-4.82,0.007-7.213,0.011c-0.03-12.655-0.036-25.312-0.035-37.971
	c0.001-7.808,0.513-15.858-0.141-23.637c-0.548-6.512-0.155-13.049-0.8-19.558c-0.489-4.93-0.47-9.906-0.485-14.881
	c0.015-0.001,0.029-0.004,0.044-0.004c19.228-1.082,38.515-0.598,57.751-1.397c8.942-0.372,17.933,0.715,26.869,0.362
	c6.397-0.253,12.804-0.247,19.178-0.499c8.71,0.13,17.396,0.148,26.091-0.186c8.82-0.338,17.661,0.57,26.476,0.695
	c6.558,0.092,13.714,0.792,20.319-0.458c5.908,0.201,11.841,0.213,17.764,0.448c8.936,0.353,17.927-0.734,26.869-0.362
	c19.236,0.801,38.523,0.316,57.751,1.397c0.015,0.001,0.029,0.004,0.044,0.004c-0.015,4.975,0.003,9.95-0.485,14.881
	c-0.645,6.509-0.252,13.047-0.8,19.558C393.634,359.99,394.145,368.04,394.147,375.848z M362.343,454.275
	c-0.246-9.238,0.989-19.21-0.412-28.413c1.598-0.119,3.089-0.512,4.134-1.582c1.78-1.824,1.306-3.797,0.815-5.888
	c0.186-0.001,0.371-0.001,0.556-0.004c2.497-0.034,5.171-0.006,7.479-1.061c6.209,1.197,12.754,1.198,19.186,1.089
	c-0.057,18.621-0.192,37.237-0.548,55.847c-1.869,0.024-3.736,0.04-5.593,0.051c-8.048,0.052-16.198,0.882-24.239,1.382
	c-0.583,0.036-1.159,0.067-1.741,0.102C364.191,469.122,362.527,461.227,362.343,454.275z M358.538,471.941
	c0.017,1.402-0.13,2.852,0.245,4.05c-2.362,0.135-4.715,0.251-7.068,0.354c0.862-2.389,0.22-5.204,0.347-7.769
	c0.271-5.49,0.255-10.959,0.218-16.467c-0.037-5.626-0.368-11.211-0.497-16.829c-0.014-0.573-0.242-5.833-0.585-9.137
	c1.708-0.11,3.384-0.292,4.814-0.353c0.893-0.037,1.93,0.026,3.007,0.074c-0.312,4.139-0.084,8.494-0.284,12.604
	c-0.307,6.276-0.286,12.628-0.391,18.914C358.264,462.228,358.479,467.084,358.538,471.941z M355.4,421.63
	c-2.314,0.009-5.839,0.697-8.105-0.022c-1.313-0.417-1.461-1.409-1.648-2.606c1.943-0.059,3.883-0.15,5.817-0.328
	c4.172-0.386,8.35-0.297,12.533-0.276c-0.145,1.506-0.344,2.92-2.069,3.371C360.049,422.262,357.367,421.623,355.4,421.63z
	 M347.925,449.192c-0.067,8.955-1.226,18.4-0.306,27.315c-2.968,0.099-5.944,0.166-8.952,0.172c-2.25,0.005-4.535-0.025-6.836-0.041
	c-0.93-0.202-1.873-0.342-2.821-0.458c1.194-7.196,0.125-15.79-0.022-22.747c-0.176-8.274,0.59-17.876-1.175-26.166
	c1.586-0.152,3.049-0.571,4.146-1.528c2.059-1.795,1.633-4.522,0.821-6.841c2.887,0.091,5.774,0.165,8.659,0.168
	c-0.299,2.513,0.306,5.465,2.78,6.447c1.144,0.454,2.48,0.636,3.878,0.687C346.36,433.291,347.975,442.569,347.925,449.192z
	 M325.036,452.639c0.084,7.736-0.601,15.49-0.443,23.206c-2.293-0.089-4.594-0.105-6.859-0.225c0.031-0.131,0.055-0.268,0.065-0.417
	c1.009-15.846,0.022-32.286-1.359-48.124c1.031-0.009,2.109-0.081,3.172-0.091c1.649-0.016,3.817,0.289,5.963,0.343
	C323.887,435.488,324.948,444.446,325.036,452.639z M323.935,423.034c-1.692-0.09-3.399-0.034-5.096-0.032
	c-0.946,0.001-4.081,0.518-4.633-0.005c-1.249-1.183-0.266-3.25,0.171-4.592c2.052,0.133,4.081,0.236,6.053,0.227
	c3.22-0.012,6.454,0.08,9.693,0.183c-0.141,0.885-0.081,1.706-0.334,2.67C329.083,424.179,325.936,423.141,323.935,423.034z
	 M313.763,475.204c0.004,0.061,0.019,0.114,0.026,0.172c-4.196-0.26-8.391-0.439-12.583-0.69c0.316-1.706,0.121-3.596,0.136-5.282
	c0.039-4.688-0.045-9.382-0.079-14.069c-0.041-5.631-0.027-11.268-0.146-16.899c-0.06-2.856-1.152-7.354-0.811-10.642
	c0.307-0.081,0.601-0.167,0.877-0.256c4.921-1.601,4.871-5.45,4.023-9.839c1.798,0.134,3.59,0.284,5.374,0.429
	c-0.695,1.618-0.427,3.902,0,5.425c0.658,2.342,2.131,3.162,3.943,3.42c-0.535,7.235-0.387,14.307-0.507,21.554
	C313.868,457.397,313.198,466.341,313.763,475.204z M297.091,474.362c-2.272-0.282-5.062-0.737-7.874-0.957
	c1.426-7.859,0.586-16.305,0.489-24.227c-0.081-6.655-0.156-13.983-1.477-20.646c3.084,0.377,6.557,0.248,9.448-0.201
	c-0.077,1.168-0.025,2.364-0.067,3.476c-0.215,5.496-0.277,10.985-0.321,16.485C297.222,456.817,296.295,465.878,297.091,474.362z
	 M294.507,423.673c-2.358-0.039-5.203,0.554-7.469-0.106c-4.333-1.26-3.651-4.22,0.485-5.193c4.635-1.092,9.601-1.143,14.618-0.873
	c-0.213,1.953-0.273,4.456-1.147,5.384C299.781,424.172,295.99,423.698,294.507,423.673z M279.509,375.764
	c-2.041-3.143-10.412-12.194-16.493-13.005c-3.107-1.759-7.843-1.315-11.143-0.721c-0.846,0.152-1.712,0.382-2.554,0.691
	c-6.105,0.503-14.757,9.832-16.837,13.035c-5.036,7.753-7.887,17.056-6.7,26.284c-3.086-0.156-6.337,0.236-8.608,0.246
	c-2.036,0.009-4.09-0.017-6.149-0.054c0.966-5.288,0.579-10.652,1.014-16.09c0.304-3.801-0.519-6.942,4.015-7.474
	c2.921-0.342,5.663,0.142,8.096-1.787c4.607-3.653,5.638-11.228,9.534-15.71c3.148-3.622,6.884-5.482,10.967-6.821
	c1.887-0.279,3.771-0.677,5.588-0.785c4.223-0.25,8.93,0.613,13.102-0.377c5.645,1.491,10.814,3.208,14.964,7.982
	c3.895,4.482,4.927,12.057,9.534,15.71c2.433,1.93,5.175,1.445,8.096,1.787c4.534,0.532,3.711,3.672,4.015,7.474
	c0.435,5.439,0.049,10.803,1.014,16.09c-2.06,0.035-4.112,0.062-6.149,0.054c-2.271-0.01-5.522-0.402-8.608-0.246
	C287.395,392.819,284.543,383.518,279.509,375.764z M222.772,473.404c-2.812,0.22-5.602,0.676-7.874,0.957
	c0.796-8.484-0.13-17.545-0.197-26.071c-0.044-5.499-0.105-10.989-0.321-16.485c-0.044-1.112,0.009-2.31-0.069-3.476
	c2.891,0.449,6.363,0.578,9.448,0.201c-1.321,6.663-1.395,13.991-1.477,20.646C222.185,457.099,221.346,465.544,222.772,473.404z
	 M217.483,423.673c-1.482,0.025-5.274,0.499-6.488-0.789c-0.873-0.928-0.935-3.43-1.147-5.384c5.017-0.27,9.983-0.218,14.618,0.873
	c4.136,0.973,4.819,3.933,0.485,5.193C222.686,424.227,219.841,423.634,217.483,423.673z M210.784,474.686
	c-4.192,0.251-8.388,0.43-12.583,0.69c0.007-0.059,0.022-0.111,0.026-0.172c0.565-8.864-0.106-17.807-0.253-26.677
	c-0.12-7.245,0.029-14.317-0.507-21.554c1.812-0.258,3.285-1.078,3.943-3.42c0.428-1.523,0.695-3.808,0-5.425
	c1.784-0.146,3.576-0.297,5.374-0.429c-0.848,4.389-0.898,8.239,4.023,9.839c0.276,0.09,0.57,0.175,0.877,0.256
	c0.341,3.286-0.751,7.786-0.811,10.642c-0.119,5.63-0.105,11.267-0.146,16.899c-0.034,4.688-0.117,9.382-0.079,14.069
	C210.662,471.091,210.468,472.981,210.784,474.686z M194.192,475.204c0.01,0.148,0.034,0.286,0.065,0.417
	c-2.265,0.119-4.565,0.136-6.859,0.225c0.157-7.716-0.527-15.47-0.443-23.206c0.089-8.194,1.149-17.151-0.538-25.307
	c2.146-0.054,4.313-0.359,5.963-0.343c1.063,0.01,2.141,0.084,3.172,0.091C194.168,442.919,193.181,459.36,194.192,475.204z
	 M193.151,423.001c-1.697-0.003-3.404-0.059-5.096,0.032c-2.001,0.107-5.148,1.145-5.854-1.548c-0.253-0.964-0.193-1.784-0.334-2.67
	c3.238-0.104,6.473-0.197,9.693-0.183c1.971,0.008,4.001-0.094,6.053-0.227c0.437,1.341,1.42,3.409,0.171,4.592
	C197.231,423.519,194.096,423.003,193.151,423.001z M183.001,453.433c-0.147,6.957-1.217,15.551-0.022,22.747
	c-0.948,0.115-1.892,0.255-2.821,0.458c-2.301,0.016-4.587,0.045-6.836,0.041c-3.008-0.006-5.984-0.074-8.952-0.172
	c0.921-8.915-0.238-18.36-0.306-27.315c-0.05-6.622,1.567-15.9-0.171-22.989c1.397-0.051,2.734-0.233,3.878-0.687
	c2.474-0.983,3.079-3.935,2.78-6.447c2.885-0.004,5.772-0.077,8.659-0.168c-0.811,2.32-1.236,5.046,0.821,6.841
	c1.097,0.956,2.56,1.375,4.145,1.528C182.411,435.557,183.177,445.159,183.001,453.433z M159.927,468.576
	c0.127,2.565-0.515,5.381,0.347,7.769c-2.353-0.104-4.706-0.22-7.068-0.354c0.374-1.199,0.227-2.648,0.245-4.05
	c0.061-4.856,0.276-9.713,0.195-14.559c-0.105-6.286-0.084-12.638-0.391-18.914c-0.201-4.109,0.026-8.464-0.284-12.604
	c1.077-0.047,2.114-0.111,3.007-0.074c1.43,0.061,3.106,0.243,4.814,0.353c-0.343,3.304-0.571,8.564-0.585,9.137
	c-0.13,5.618-0.459,11.202-0.497,16.829C159.672,457.618,159.655,463.086,159.927,468.576z M156.588,421.63
	c-1.966-0.008-4.648,0.631-6.529,0.138c-1.724-0.452-1.924-1.865-2.069-3.371c4.184-0.021,8.361-0.11,12.533,0.276
	c1.934,0.178,3.874,0.27,5.817,0.328c-0.187,1.198-0.336,2.19-1.648,2.606C162.428,422.328,158.904,421.639,156.588,421.63z
	 M149.646,454.275c-0.185,6.952-1.847,14.846,0.362,21.527c-0.581-0.035-1.157-0.066-1.741-0.102
	c-8.041-0.5-16.191-1.33-24.239-1.382c-1.858-0.013-3.724-0.027-5.593-0.051c-0.354-18.611-0.489-37.227-0.547-55.847
	c6.432,0.109,12.977,0.107,19.186-1.089c2.308,1.054,4.982,1.027,7.479,1.061c0.186,0.003,0.371,0.001,0.556,0.004
	c-0.492,2.091-0.966,4.064,0.815,5.888c1.044,1.071,2.535,1.464,4.134,1.582C148.657,435.067,149.892,445.038,149.646,454.275z
	 M227.326,413.715c-4.968,2.488-12.623,0.081-17.927,0.119c-8.282,0.057-16.441,0.558-24.741,0.467
	c-10.098-0.111-20.192-0.66-30.256-0.78c-3.848-0.046-8.398,0.666-12.178-0.055c-3.49-0.666-8.377-4.041-2.689-6.073
	c1.193-0.427,3.496-0.528,4.724-0.596c9.247-0.515,18.762,0.278,28.002,0.714c10.906,0.514,21.811-0.463,32.752-0.435
	c5.557,0.014,11.113,0.051,16.671,0.079c2.256,0.011,5.849-0.755,7.446,1.376C230.737,410.673,229.356,412.698,227.326,413.715z
	 M290.305,407.151c5.557-0.027,11.113-0.064,16.671-0.079c10.941-0.027,21.845,0.949,32.752,0.435
	c9.241-0.435,18.757-1.229,28.002-0.714c1.227,0.069,3.53,0.171,4.724,0.596c5.688,2.031,0.801,5.406-2.689,6.073
	c-3.778,0.721-8.33,0.009-12.178,0.055c-10.064,0.121-20.158,0.669-30.256,0.78c-8.3,0.091-16.458-0.408-24.741-0.467
	c-5.304-0.037-12.959,2.371-17.927-0.119c-2.03-1.017-3.412-3.042-1.804-5.187C284.457,406.396,288.051,407.162,290.305,407.151z
	 M337.778,312.928c-8.949-0.318-17.936,0.724-26.869,0.377c-5.356-0.208-10.724-0.313-16.083-0.272
	c-3.379-0.679-6.59-0.265-10.094-0.186c-4.287,0.096-8.663-0.272-12.956-0.382c-8.694-0.221-17.609-0.953-26.299-0.367
	c-9.238,0.624-18.525,0.468-27.791,0.62c-5.61,0.092-11.262-0.121-16.824,0.591c-8.861,0.321-17.775-0.697-26.651-0.382
	c-19.261,0.685-38.567,0.414-57.82,1.324c-0.027-2.246-0.086-4.488-0.228-6.725c-0.182-2.855-0.271-6.437-1.42-9.319
	c6.658-0.644,13.384-0.877,20.031-1.167c16.455-0.717,32.924-1.154,49.388-1.721c1.783,0.121,3.543,0.145,4.938,0.223
	c7.028,0.398,14.014-0.257,21.03-0.215c13.738,0.084,27.367-1.081,41.072-0.027c14.024,1.077,28.226,0.594,42.267,1.491
	c10.526,0.673,21.852-0.109,32.615-1.531c17.042,0.598,34.094,1.036,51.129,1.778c6.648,0.289,13.374,0.523,20.031,1.167
	c-1.149,2.882-1.238,6.464-1.42,9.319c-0.142,2.236-0.201,4.479-0.228,6.725C376.344,313.342,357.04,313.614,337.778,312.928z
	 M275.319,483.619c-0.318-0.13-0.658-0.198-1.007-0.156c-7.962,0.948-16.078,1.61-24.088,1.625
	c-3.304,0.006-9.188-0.992-13.61-0.126c0.13-1.847,0.066-3.742-0.277-5.323c2.197,0.087,4.467-0.2,6.673-0.175
	c5.843,0.065,11.703,0.148,17.529,0.593c4.639,0.353,9.061,0.665,13.721,0.384c0.435-0.026,0.855-0.041,1.266-0.056
	C275.368,481.397,275.3,482.497,275.319,483.619z M242.242,417.682c0.056-3.195-0.553-4.549,2.144-5.371
	c3.059-0.933,6.643-0.064,9.778-0.029c-1.671,20.919-0.06,41.793,0.014,62.687c-4.367-0.238-9.022-0.712-13.516-0.452
	c1.068-12.528,1.372-25.214,2.049-37.781C243.052,430.375,242.131,424.047,242.242,417.682z M270.994,476.236
	c-4.265-0.372-8.533-0.847-12.793-1.073c-0.101-9.939-1.031-19.87-0.887-29.793c0.158-11.056,0.143-22.203-0.749-33.234
	c4.786-0.463,12.917-1.661,14.043,2.043c0.813,2.679-0.049,7.333-0.064,10.111c-0.02,3.446-0.233,6.829-0.447,10.261
	C269.251,448.21,269.815,462.581,270.994,476.236z M276.976,476.642c-0.561-0.022-1.123-0.059-1.684-0.091
	c-1.364-16.992-0.915-34.016-1.001-51.036c-0.019-3.702,2.061-13.79-1.681-16.39c-1.452-1.009-4.513-0.76-6.217-0.832
	c-3.889-0.163-7.742,0.26-11.607,0.361c-3.722,0.097-12.569-2.036-15.258,1.63c-2.716,3.703-1.088,12.939-0.791,17.064
	c1.138,15.815-2.166,31.613-1.051,47.471c-1.24,0.18-2.46,0.429-3.648,0.784c-1.883-1.628-4.613-2.228-7.585-2.31
	c1.2-7.378-0.075-15.751-0.152-23.142c-0.042-4.036,0.099-8.05,0.112-12.082c0.011-3.274-0.403-6.642-0.353-9.932
	c1.256-0.291,2.388-0.69,3.303-1.219c3.291-1.905,4.351-7.502,1.916-10.567c3.578-1.852,4.587-5.391,2.846-9.871
	c-0.895-2.305-2.836-3.464-5.169-4.016c0.359-2.982,0.15-5.988,0.513-8.991c0.578-4.772,2.897-9.168,5.205-13.345
	c2.283-4.131,5.321-7.695,9.34-10.24c2.641-1.673,6.292-2.005,8.643-3.989c0.012-0.003,0.024-0.005,0.035-0.008
	c2.094-0.339,4.242-0.258,6.398-0.223c2.334,2.185,6.149,2.487,8.886,4.22c4.019,2.544,7.057,6.109,9.34,10.24
	c2.308,4.176,4.628,8.572,5.205,13.345c0.364,3.004,0.153,6.009,0.513,8.991c-2.333,0.554-4.275,1.713-5.169,4.016
	c-1.739,4.478-0.732,8.019,2.847,9.871c-2.434,3.064-1.375,8.662,1.916,10.567c0.915,0.529,2.046,0.928,3.303,1.219
	c0.049,3.29-0.364,6.656-0.353,9.932c0.015,4.031,0.156,8.045,0.112,12.082c-0.077,7.391-1.354,15.765-0.153,23.142
	C282.003,473.388,278.801,474.207,276.976,476.642z M500.298,459.29c2.202,0.724,3.306,6.024,3.018,8.103
	c-0.514,3.709-3.319,3.303-6.024,3.994c-9.233,2.358-18.42,4.942-27.68,7.267c-10.607,2.661-21.242,6.128-32.076,7.661
	c-8.828,1.25-17.406,4.121-26.212,5.258c-10.796,1.394-21.945,0.735-32.877,0.741c-11.151,0.006-22.185-0.024-33.281-0.581
	c-9.498-0.478-18.999-1.024-28.466-1.5c-4.625-0.232-8.985-0.287-13.614-0.822c-0.331-0.039-0.679-0.074-1.023-0.11
	c-0.525-0.11-1.054-0.221-1.566-0.328c-4.186-0.885-8.129-0.047-12.249-0.586c-1.58-0.207-3.348-0.711-4.91-1.053
	c-0.273-0.06-0.487-0.102-0.671-0.137c0.003-0.011,0.007-0.02,0.005-0.035c-0.225-0.956-0.432-3.088-0.262-3.979
	c0.539-2.822,1.644-2.422,3.778-2.836c3.862-0.75,9.463,0.394,13.444,0.746c3.426,0.303,6.765,0.353,10.207,0.388
	c1.808,0.019,3.653,0.12,5.515,0.236c9.134,1.35,18.782,0.57,27.93,0.817c9.372,0.253,18.591-0.177,27.975,0.17
	c9.379,0.347,19.11-0.008,28.484-0.507c9.339-0.497,18.052-2.538,27.21-3.812c7.834-1.09,15.847-2.265,23.454-4.507
	c8.523-2.512,17.183-3.865,25.659-6.532c6.101-1.919,14.09-3.2,19.318-7.541C497.126,459.332,498.827,458.806,500.298,459.29z
	 M401.297,318.491c6.801,1.219,13.65,3.59,20.366,4.955c9.383,1.906,18.631,4.704,27.961,6.86c8.929,2.064,17.762,4.884,26.57,7.416
	c6.034,1.734,12.562,2.618,18.625,4.383c0.102,5.151,0.424,10.309,0.393,15.327c-0.067,10.811-0.771,21.451-0.797,32.274
	c-0.019,7.516-0.593,15.041-1.013,22.565c-7.942-0.719-16.245,0.528-24.139,0.525c-11.305-0.004-22.484,0.997-33.824,0.71
	c-10.387-0.263-20.989-0.106-31.372,0.207c-1.293,0.039-2.579,0.061-3.865,0.079c-0.005-10.598,0.001-21.196,0.02-31.795
	c0.026-14.909,0.116-29.732,0.537-44.587C400.936,331.078,401.332,324.848,401.297,318.491z M401.7,298.702
	c1.1,0.142,2.197,0.296,3.291,0.469c7.459,1.18,14.713,4.223,21.91,6.478c17.613,5.52,34.903,11.864,52.693,16.79
	c3.154,0.873,9.676,3.535,16.048,5.005c-0.674,3.938-0.856,7.97-0.848,12.022c-5.27-2.344-11.236-3.21-16.712-4.839
	c-8.821-2.625-17.737-5.375-26.69-7.479c-9.599-2.256-19.146-5.091-28.806-7.051c-4.389-0.891-8.735-1.852-13.081-2.941
	c-2.74-0.686-5.48-1.727-8.255-2.333C401.105,309.453,400.857,303.999,401.7,298.702z M492.587,451.544
	c-1.214,2.559-3.485,3.848-7.5,5.39c0.417-5.873,0.428-11.807,0.802-17.681c0.455-7.149,0.866-16.054-1.053-23.166
	c0.105-0.006,0.211-0.012,0.316-0.019c2.572-0.172,5.409,0.016,8.068-0.312c-0.135,2.849-0.232,5.698-0.251,8.547
	C492.906,433.701,491.366,442.396,492.587,451.544z M482.632,439.681c-0.842,6.003-1.552,12.451-1.067,18.516
	c-3.757,1.259-7.605,2.282-11.481,3.162c0.026-14.875,1.513-29.906-0.503-44.737c0.288-0.003,0.575-0.014,0.863-0.014
	c4.342-0.001,8.768-0.178,13.123-0.445C481.732,423.544,483.693,432.113,482.632,439.681z M455.178,441.322
	c-0.137-4.494-0.825-8.972-1.103-13.465c-0.203-3.274-0.974-7.012-0.922-10.43c4.632-0.332,9.263-0.65,13.908-0.764
	c-0.952,7.804-0.482,15.978-0.07,23.76c0.379,7.179-0.785,14.566-1.031,21.817c-2.056,0.415-4.114,0.802-6.166,1.165
	c-1.499,0.265-2.98,0.593-4.453,0.942C456.327,456.949,455.393,448.334,455.178,441.322z M450.444,465.587
	c-4.549,1.215-9.081,2.495-13.791,3.185c-0.127,0.019-0.253,0.045-0.381,0.065c0.138-2.161-0.25-4.444-0.265-6.718
	c-0.034-5.184-0.057-10.368-0.102-15.553c-0.045-5.158-0.124-10.317-0.191-15.475c-0.014-1.061-0.704-9.384-1.133-12.71h0.02
	c5.368-0.039,10.708-0.393,16.043-0.775c-0.206,1.682-0.077,3.469-0.026,5.049c0.175,5.526,0.47,11.06,0.524,16.591
	c0.055,5.549-0.232,11.153-0.351,16.706C450.726,459.116,450.219,462.404,450.444,465.587z M431.539,469.642
	c-4.371,0.828-8.708,1.81-13.078,2.61c0.268-2.568-0.163-5.605-0.178-7.515c-0.046-6.211-0.085-12.421-0.156-18.631
	c-0.104-9.188,0.207-18.615-1.358-27.719c4.93,0.016,9.864,0.02,14.788-0.004c-0.439,3.492,0.126,7.282,0.131,10.677
	c0.009,5.097-0.142,10.198-0.196,15.294C431.412,452.174,430.013,461.673,431.539,469.642z M400.206,418.323
	c0.96-0.009,1.915-0.015,2.861-0.008c3.556,0.025,7.132,0.041,10.705,0.057c-0.492,3.686,0.036,7.453,0.156,11.183
	c0.177,5.5-0.173,11.048-0.236,16.552c-0.07,6.21-0.109,12.421-0.156,18.631c-0.015,2.111-0.544,5.6-0.067,8.31
	c-4.519,0.606-9.093,0.921-13.675,1.077c0.462-6.498-0.132-13.155-0.143-19.643c-0.014-7.783,0.586-15.51,0.568-23.302
	C400.208,426.894,400.209,422.608,400.206,418.323z M488.015,318.263c-19.701-5.678-38.897-11.957-58.194-18.859
	c-7.863-2.812-16.049-6.08-24.363-7.234c-10.098-1.401-20.414-1.739-30.601-1.815c-15.727-0.117-31.417,0.613-47.102,1.419
	c-11.419-0.72-22.863,0.56-34.284,0.045c-14.376-0.649-28.953-0.424-43.29-1.649c-12.149-1.039-24.364,0.029-36.539,0.162
	c-6.74,0.074-13.422,0.341-20.152,0.671c-3.135,0.155-6.245-0.152-9.355-0.11c-0.579,0.007-2.095,0.402-3.409,0.702
	c-14.516-0.732-29.038-1.348-43.592-1.239c-10.188,0.076-20.505,0.414-30.601,1.815c-8.312,1.154-16.5,4.422-24.363,7.234
	c-19.297,6.902-38.493,13.181-58.194,18.859c-4.151,1.197-9.388,3.807-13.771,3.744c-4.141-0.059-5.388-3.515-2.183-6.093
	c1.397-1.124,4.861-2.15,6.587-2.745c2.661-0.92,6.139-1.809,9.367-3.108c11.398-3.182,22.638-7.365,33.925-10.673
	c16.706-4.895,33.135-11.088,49.994-15.384c9.081-2.314,20.088-1.397,29.428-0.682c10.496,0.804,20.869,1.077,31.418,1.157
	c10.582,0.079,21.033-0.892,31.552-1.793c6.627-0.568,14.154,0.198,21.024-0.941c8.524-0.041,17.074-0.21,25.582-0.206
	c6.564,0.003,13.128,0.006,19.693,0.009c6.243,0.002,12.589,0.775,18.808,0.23c1.386-0.121,2.784-0.195,4.189-0.236
	c7.156,1.424,15.132,0.546,22.111,1.144c10.518,0.901,20.97,1.873,31.552,1.793c10.549-0.079,20.924-0.353,31.418-1.157
	c9.342-0.715,20.348-1.632,29.428,0.682c16.86,4.296,33.289,10.489,49.996,15.384c11.287,3.306,22.527,7.491,33.925,10.673
	c3.228,1.299,6.705,2.188,9.367,3.108c1.724,0.596,5.189,1.621,6.587,2.745c3.204,2.578,1.958,6.034-2.184,6.093
	C497.403,322.071,492.167,319.459,488.015,318.263z"/>
<path d="M474.113,401.224c2.945,1.904,9.278,2.232,12.586,0.731c2.698-1.224,2.47-3.672,2.817-6.383
	c1.014-7.933,1.926-16.269,1.3-24.299c0.011-0.255,0.031-0.507,0.04-0.761c0.173-4.794-0.52-10.196-1.615-14.843
	c-0.901-3.825-3.175-7.411-7.206-8.482c-8.05-2.14-6.95,13.087-7.502,17.535c-0.807,6.492-0.651,13.005-1.027,19.518
	c-0.267,4.649-1.432,9.757-0.185,14.324C473.004,399.478,473.19,400.629,474.113,401.224z M477.698,373.988
	c0.122-4.357,0.609-8.668,0.851-13.015c0.211-3.81,0.417-15.378,5.87-7.636c2.391,3.394,2.936,10.909,3.132,15.19
	c0.16,3.511-0.238,7.298-0.568,10.79c-0.45,4.792-2.261,11.516-1.309,16.582c-0.131,0.503-0.294,0.946-0.504,1.291
	c-0.861,1.42-5.325,1.314-8.235,0.566C477.041,389.835,477.476,381.926,477.698,373.988z"/>
<path d="M444.762,398.782c-0.006,0.931,0.44,1.572,1.058,1.928c2.856,3.469,14.95,2.316,17.615,1.355
	c-0.031,0.011,1.887-0.611,2.631-1.567c1.245-1.597,1.037-3.81,1.11-5.709c0.187-4.809,1.437-10.679,0.086-15.464
	c0.17-4.131,0.227-8.257,0.252-12.428c0.047-8.144-0.903-20.672-9.902-24.36c-9.534-3.908-12.244,9.107-12.564,15.812
	C444.407,371.751,444.851,385.328,444.762,398.782z M459.659,348.819c6.051,7.204,4.629,18.938,4.52,27.746
	c-0.042,3.388-0.181,6.751-0.288,10.113c-0.044,0.422-0.089,0.84-0.135,1.251c-0.297,2.605,0.25,6.627-0.762,9.011
	c-1.006,2.373-4.182,1.641-6.624,1.601c-2.301-0.037-4.952,0.296-6.929-0.823c-0.027-9.824,0.415-19.655-0.268-29.456
	C448.79,362.775,449.153,336.312,459.659,348.819z"/>
<path d="M409.703,397.667c-2.522,8.301,20.215,6.109,24.065,4.869c4.861-1.566,4.497-6.71,4.643-11.051
	c0.111-3.31,0.263-6.629,0.255-9.943c-0.01-3.688-0.838-8.217-0.217-11.801c0.047-0.273-0.014-0.505-0.119-0.704
	c0.082-2.05,0.15-4.1,0.156-6.157c0.029-9.424-0.997-23.214-11.309-27.185c-9.337-3.596-16.002,3.439-16.667,12.436
	c-1.169,15.827-1.782,32.293-1.278,48.156C409.25,396.857,409.429,397.315,409.703,397.667z M413.853,396.287
	c0.419-12.131,0.317-24.287,0.48-36.429c0.065-4.847-0.463-10.265,0.663-15.011c2.327-9.812,13.197-7.114,16.965,0.026
	c4.629,8.77,3.276,20.163,2.846,29.695c-0.277,6.125-0.636,12.644-0.156,18.91c-0.141,0.994-0.332,1.93-0.625,2.731
	c-1.577,4.308-11.6,2.917-15.299,2.537c-0.967-0.1-3.849,0.052-4.335-0.317c-0.061-0.047-0.321-0.762-0.651-1.49
	C413.799,396.738,413.844,396.525,413.853,396.287z"/>
<path d="M380.57,356.808c-0.029-0.474-0.08-0.943-0.162-1.402c-0.225-1.744-0.477-3.479-0.777-5.189
	c-1.616-9.164-5.937-19.391-17.001-19.03c-10.891,0.354-12.855,11.518-13.298,20.354c-0.314,6.271,0.136,12.401,0.281,18.672
	c0.06,2.616,0.014,5.638,0.407,8.474c-0.452,4.549-0.346,9.687,3.202,11.513c2.414,1.243,7.844,0.656,10.594,0.74
	c3.728,0.115,7.858,0.035,11.545-0.512c6.957-1.029,6.07-7.303,5.828-13.032C381.587,370.552,381.359,363.586,380.57,356.808z
	 M377.393,382.752c-0.782,3.914-2.807,3.434-6.239,3.682c-2.77,0.201-5.496,0.387-8.28,0.233c-1.18-0.065-6.987,0.121-7.774-0.55
	c-1.505-1.283-0.595-6.936-0.973-8.951c-0.042-0.225-0.101-0.433-0.151-0.648c-0.231-6.051-0.67-12.094-0.935-18.152
	c-0.356-8.157-0.328-25.447,11.876-23.459c11.015,1.793,12.213,16.978,12.891,25.667c0.067,0.86,0.105,1.722,0.14,2.584
	c-0.156,3.102-0.168,6.214-0.217,9.318C377.68,375.767,378.043,379.498,377.393,382.752z"/>
<path d="M341.391,364.65c-0.561-7.27-0.895-14.26-3.788-21.073c-4.417-10.398-19.554-17.917-25.518-4.782
	c-5.902,12.995-2.686,29.129-2.305,42.887c0.213,7.702,1.036,7.925,8.61,7.952c3.862,0.014,7.732,0.321,11.607,0.318
	c3.4-0.001,7.234,0.767,10.503,0.059c0.701-0.152,1.288-0.792,1.47-1.47c1.333-4.973,0.323-11.202-0.455-16.703
	C341.581,369.456,341.58,367.083,341.391,364.65z M338.356,382.891c-0.084,0.56-0.15,1.109-0.135,1.616
	c0.025,0.83-0.287,1.425-0.233,1.59c-2.373,0.53-8.155-0.258-9.963-0.328c-2.633-0.104-5.203-0.556-7.829-0.59
	c-0.928-0.013-2.786,0.165-3.872,0.046c-1.744-0.191-1.276,0.933-2.16-0.536c-1.164-1.935-0.334-7.373-0.453-9.661
	c-0.358-6.961-1.192-13.967-1.019-20.949c0.114-4.619,1.249-10.45,3.409-14.649c3.099-6.028,9.45-4.222,13.64-0.477
	c3.293,2.943,5.061,6.79,6.352,10.956C339.396,360.561,338.022,371.903,338.356,382.891z"/>
<path d="M285.871,320.628c-5.165-0.628-10.44-0.484-15.642-0.487c-5.733-0.003-11.317,0.838-17.026,1.047
	c-4.059,0.148-7.904,0.05-11.902,0.749c-0.297,0.052-0.502,0.205-0.654,0.393c-3.477,0.172-6.929-0.046-10.442,0.077
	c-2.928,0.104-7.043-0.09-9.695,1.289c-4.648,2.414-4.347,7.383-3.919,11.883c0.725,7.621,3.949,5.406,10.552,6.109
	c16.874,1.797,34.564,2.749,51.56,1.718c4.059-0.246,11.3,0.819,13.837-2.811c2.731-3.908,2.356-13.752-0.499-17.495
	C290.663,321.296,287.973,320.883,285.871,320.628z M288.124,339.529c-1.929,0.921-6.31,0.454-8.352,0.599
	c-8.871,0.63-18.276,0.81-27.181,0.387c-7.415-0.352-15.1-0.057-22.471-0.94c-2.072-0.248-7.494-0.161-8.977-1.276
	c-3.882-2.918-1.072-10.876,3.167-12.359c5.935-2.075,14.004-0.004,20.244-0.828c6.095-0.805,12.365-0.55,18.446-1.323
	c0.896-0.021,1.794-0.05,2.69-0.064c4.467-0.072,9.013-0.16,13.48-0.02c1.827,0.057,5.55-0.057,7.167,0.55
	c3.078,1.158,3.44,4.134,3.812,7.171C290.482,334.168,291.384,337.974,288.124,339.529z"/>
<g>
</g>
<g>
</g>
<g>
</g>
<g>
</g>
<g>
</g>
<g>
</g>
<g>
</g>
<g>
</g>
<g>
</g>
<g>
</g>
<g>
</g>
<g>
</g>
<g>
</g>
<g>
</g>
<g>
</g>
</svg>
