<?xml version="1.0" encoding="iso-8859-1"?>
<!-- Generator: Adobe Illustrator 19.0.0, SVG Export Plug-In . SVG Version: 6.00 Build 0)  -->
<svg version="1.1" id="Layer_1" xmlns="http://www.w3.org/2000/svg" xmlns:xlink="http://www.w3.org/1999/xlink" x="0px" y="0px"
	 viewBox="0 0 511.994 511.994" style="enable-background:new 0 0 511.994 511.994;" xml:space="preserve">
<path style="fill:#EAD59B;" d="M258.153,4.064c0.605,0.371,1.156,0.859,1.665,1.356c2.717,2.654,4.93,5.891,6.248,9.462
	c1.621,4.393,0.504,6.744-0.488,11.102c-2.814,12.358,1.256,23.251,2.934,35.306c1.833,13.175,3.807,26.331,5.72,39.494
	c0.448,3.083,0.847,6.245,1.88,9.154c2.225,6.264,15.29,10.747,11.893,18.587c-0.602,1.389-1.461,2.707-1.662,4.208
	c-0.129,0.971,0.028,1.957,0.247,2.911c1.782,7.789,8.3,11.289,11.66,18.176c6.654,13.637,11.397,28.186,13.969,43.142
	c1.26,7.327,2.006,14.74,2.253,22.171c0.257,7.758-0.679,15.269-1.51,22.998c-0.249,2.322-0.342,5.058,1.456,6.549
	c1.631,1.352,4.371,1.202,5.476,3.01c1.495,2.445-1.535,5.895-0.034,8.336c1.231,2,4.092,1.628,5.571,3.26
	c1.272,1.404,2.328,5.118,1.228,6.798c-0.846,1.292-2.316,2.019-3.753,2.584c-1.437,0.565-2.952,1.053-4.121,2.064
	c-1.442,1.246-2.174,3.158-2.372,5.053c-0.199,1.896,0.081,3.804,0.36,5.69c0.248,1.679,0.557,3.484,1.762,4.68
	c1.423,1.414,3.641,1.547,5.647,1.593c3.151,0.074,6.7-0.008,8.88-2.285c2.53-2.642,2.694-8.223,3.553-11.678
	c1.171-4.709,2.204-9.454,3.09-14.224c0.223-1.205,0.906-2.757,2.108-2.515c0.852,0.172,1.212,1.168,1.42,2.012
	c1.671,6.768,3.673,12.942,6.006,19.447c1.218,3.395,2.436,6.791,3.654,10.186c0.391,1.091,2.426,8.96,3.278,9.137
	c4.689,0.972,13.24,5.165,15.457-0.434c2.827-7.139,4.425-15.058,6.591-22.428c0.341-1.159,1.014-2.568,2.22-2.495
	c1.079,0.065,1.637,1.288,1.964,2.319c3.806,12.027,7.974,23.919,11.852,35.911c0.301,0.931,0.697,1.969,1.6,2.344
	c0.997,0.414,2.175-0.233,2.74-1.152c0.564-0.919,0.676-2.036,0.806-3.107c0.733-5.99,2.543-11.847,5.315-17.207
	c0.358-0.692,0.75-1.397,1.368-1.872c0.618-0.474,1.526-0.658,2.181-0.235c0.591,0.382,0.818,1.12,1.004,1.799
	c3.224,11.828,6.104,23.325,7.13,35.586c0.059,0.705,0.106,1.464-0.259,2.071c-0.482,0.8-1.523,1.064-2.456,1.064
	c-1.411-0.001-2.789-0.436-4.198-0.527c-1.409-0.089-2.991,0.269-3.774,1.443c-0.554,0.83-0.595,1.889-0.595,2.886
	c0.001,4.259,0.926,8.368,0.82,12.603c-0.224,8.952-1.596,17.722-1.07,26.757c0.072,1.229,0.387,2.747,1.577,3.062
	c1.312,0.348,2.355-1.078,2.949-2.298c4.146-8.518,7.669-17.432,11.137-26.209c0.773-1.958,2.066-4.271,4.168-4.16
	c1.808,0.095,2.924,1.971,3.623,3.64c1.629,3.884,2.067,8.109,3.548,11.969c0.972,2.533,2.814,4.865,3.937,7.373
	c2.815,6.284,5.107,12.807,6.717,19.504c3.303,13.732,2.333,26.509,1.352,40.343c-0.056,0.79-0.09,1.658,0.389,2.288
	c0.548,0.719,1.623,0.864,2.473,0.554c0.85-0.31,1.516-0.978,2.104-1.665c3.172-3.704,5.741-9.152,8.046-13.5
	c3.028-5.712,6.052-11.427,9.06-17.15c3.055,5.135,5.118,8.107,6.673,11.327c2.718,5.632,3.772,12.778,7.911,16.882
	c11.863,11.765,12.225,28.574,7.812,43.677c-0.147,0.505-0.317,1.044-0.732,1.367c-0.934,0.726-2.245-0.112-3.127-0.899
	c-3.818-3.402-7.941-6.464-12.302-9.137c-2.107-1.292-4.364-2.522-6.83-2.695c-2.466-0.173-5.189,0.995-6.091,3.297
	c-0.729,1.859-0.148,3.945,0.404,5.865c0.552,1.919,1.058,4.046,0.203,5.852c-1.963,4.146-7.113,0.051-10.13,0.959
	c-1.819,0.548-2.938,2.505-3.036,4.403c-0.098,1.898,0.631,3.739,1.478,5.439c0.716,1.435,1.541,2.868,1.735,4.459
	c0.194,1.592-0.444,3.422-1.92,4.049c-2.033,0.864-4.198-0.92-5.464-2.73c-1.266-1.81-2.53-3.998-4.701-4.405
	c-1.984-0.371-3.975,1.045-4.847,2.865c-0.872,1.821-0.85,3.936-0.629,5.942c0.23,2.087,0.652,4.242,0.034,6.249
	c-0.618,2.006-2.749,3.748-4.735,3.065c-2.326-0.799-2.616-3.885-3.719-6.083c-1.082-2.159-3.32-3.695-5.725-3.93
	c-2.405-0.234-4.896,0.84-6.376,2.75c-0.872,1.126-1.397,2.494-2.311,3.587s-2.458,1.886-3.755,1.299
	c-1.03-0.467-1.55-1.65-1.668-2.775c-0.177-1.709,0.363-3.4,0.563-5.107s-0.052-3.661-1.4-4.726
	c-1.635-1.293-4.076-0.666-5.841,0.441c-1.766,1.107-3.321,2.651-5.33,3.211c-4.468,1.245-5.395-4.122-7.201-6.882
	c-2.707-4.135-8.249-5.707-12.255-2.204c-1.249,1.093-2.139,2.557-3.435,3.594c-1.295,1.037-3.299,1.535-4.565,0.462
	c-0.936-0.793-1.139-2.163-1.033-3.385c0.169-1.949,0.947-3.797,1.215-5.734c0.268-1.938-0.129-4.185-1.748-5.284
	c-1.562-1.061-3.739-0.668-5.342,0.329c-1.604,0.995-2.821,2.492-4.207,3.773c-1.387,1.281-3.105,2.406-4.993,2.356
	c-3.112-0.08-4.294-4.148-4.507-6.724c-0.197-2.398,0.08-4.836-0.366-7.201s-1.856-4.776-4.17-5.437
	c-1.589-0.454-3.335,0.013-4.719,0.918c-1.383,0.905-2.455,2.208-3.424,3.547c-0.57,0.787-1.134,1.617-1.953,2.14
	c-3.022,1.931-3.82-2.368-4.821-4.265c-1.213-2.298-2.83-4.705-5.162-5.972c-2.671-1.451-6.359-1.278-8.404,0.971
	c-1.419,1.56-1.837,3.762-2.807,5.634c-0.97,1.872-3.096,3.568-5.042,2.757c-2.415-1.007-2.107-4.511-3.345-6.815
	c-1.608-2.993-6.546-3.299-8.511-0.528c-1.106,1.561-1.581,3.95-3.452,4.347c-2.717,0.577-4.035-3.763-6.761-4.299
	c-2.123-0.417-3.841,1.607-5.154,3.326c-3.922,5.136-8.851,1.429-13.754-0.075c-7.582-2.326-15.496,1.388-22.688,3.561
	c-1.086,0.328-2.254,0.657-3.335,0.314c-1.307-0.415-2.151-1.748-2.388-3.098c-0.237-1.35,0.021-2.733,0.28-4.079
	c-4.222,0.12-8.308,2.528-10.459,6.162c-0.518,0.877-1.1,1.937-2.114,2.031c-1.399,0.128-2.138-1.717-1.898-3.102
	c0.24-1.383,0.98-2.744,0.685-4.117c-0.341-1.58-2.046-2.597-3.661-2.57s-3.11,0.89-4.333,1.945
	c-3.298,2.845-8.705,9.548-10.932,2.532c-1.507-4.743-5.606-7.712-10.325-4.096c-2.644,2.026-3.981,5.289-5.108,8.424
	c-0.394,1.095-0.81,2.246-1.685,3.015c-0.876,0.767-2.367,0.967-3.146,0.102c-0.857-0.952-0.387-2.438-0.481-3.716
	c-0.17-2.336-2.539-4.115-4.88-4.126c-2.342-0.012-4.511,1.417-5.935,3.277c-3.501,4.57-0.516,8.853-2.867,13.512
	c-0.947,1.877-3.172,3.323-5.141,2.587c-1.998-0.746-2.69-3.165-4.059-4.8c-1.594-1.903-4.354-2.736-6.736-2.034
	c-2.381,0.702-4.247,2.899-4.554,5.363c-0.274,2.195,0.579,4.527-0.234,6.584c-0.621,1.571-2.24,2.695-3.929,2.727
	c-2.101,0.04-6.035-2.85-7.837-4.065c-1.902-1.282-4.38-2.374-6.405-1.298c-2.154,1.146-2.52,4.002-2.897,6.412
	c-0.378,2.411-1.604,5.284-4.042,5.39c-3.39,0.147-4.606-5.049-7.889-5.908c-2.912-0.762-5.405,2.326-6.25,5.215
	c-0.845,2.89-1.08,6.213-3.273,8.275c-1.108-5.312-7.611-8.732-12.616-6.636c-4.987,2.089-12.009,9.174-12.607-0.811
	c-0.088-1.477,0.105-2.965-0.034-4.439c-0.139-1.474-0.68-3.011-1.889-3.867c-1.899-1.345-4.557-0.494-6.542,0.722
	c-2.327,1.426-4.378,3.3-6.006,5.492c-0.507,0.683-1.286,1.49-2.052,1.122c-0.724-0.348-0.649-1.389-0.46-2.171
	c1.622-6.698,5.438-15.219-3.989-17.224c-7.237-1.54-1.627-10.451-7.066-13.455c-9.727-3.023-14.673,7.718-23.199,8.402
	c-2.091,0.168-5.395-20.499-5.449-22.346c-0.121-4.15,0.773-8.46,3.283-11.768c1.383-1.824,3.2-3.278,4.628-5.068
	c2.184-2.74,3.354-6.129,4.485-9.446c2.153-6.314,4.305-12.627,6.458-18.941c0.48-1.408,0.986-2.861,2-3.948
	c1.014-1.088,2.686-1.711,4.028-1.072c1.026,0.489,1.618,1.562,2.144,2.569c2.394,4.582,5.603,9.086,7.579,13.772
	c2.051,4.862,3.185,10.08,4.64,15.135c0.276,0.959,0.621,2.01,1.482,2.514c0.96,0.562,2.251,0.193,3.051-0.579
	c0.8-0.772,1.211-1.856,1.542-2.917c2.084-6.67,1.926-14.551,1.789-21.484c-0.066-3.303,0.819-6.288,0.786-9.487
	c-0.035-3.441-1.062-6.807-0.65-10.266c0.279-2.328,1.172-4.533,2.057-6.705c3.83-9.402,7.66-18.805,11.492-28.207
	c1.176-2.889,2.952-6.235,6.064-6.445c2.489,5.524,4.671,11.398,7.661,16.66c2.512,4.42,3.708,9.3,5.485,14.109
	c0.313,0.846,0.749,1.806,1.625,2.017c0.749,0.18,1.53-0.313,1.929-0.971c0.398-0.659,0.501-1.45,0.586-2.215
	c1.406-12.534,1.848-24.917,2.116-37.544c0.051-2.359-0.723-5.134-2.948-5.915c-2.154-0.757-4.513,0.765-6.765,0.387
	c-2.184-0.368-3.723-2.499-4.119-4.676c-0.396-2.178,0.107-4.408,0.608-6.565c1.275-5.492,2.55-10.983,3.826-16.475
	c1.153-4.967,2.581-10.364,6.701-13.367c1.119,8.402,5.545,14.966,9.251,22.404c0.135,0.27,0.276,0.55,0.511,0.742
	c0.633,0.516,1.651,0.12,2.098-0.564c0.448-0.684,0.502-1.541,0.619-2.349c0.677-4.666,3.938-8.321,4.801-13.083
	c1.236-6.835,3.14-13.595,5.41-20.155c0.349-1.01,0.817-2.13,1.815-2.509c0.931-0.354,2.014,0.11,2.675,0.856
	c0.662,0.745,0.993,1.718,1.309,2.662c2.044,6.107,3.505,17.201,8.978,21.306c1.759,1.319,9.654,0.956,11.942,0.3
	c4.36-1.248,3.739-5.202,4.34-9.072c1.812-11.644,5.583-22.983,11.123-33.385c3.238,8.889,4.273,19.86,9.626,27.725
	c2.428,3.568,9.818,4.518,12.492,0.979c3.056-4.042,4.054-11.584-1.276-14.194c-2.291-1.122-4.225-0.68-5.561-3.334
	c-1.248-2.476-0.668-5.635,1.303-7.566c1.307-1.281,3.212-2.107,3.835-3.828c0.592-1.636-0.224-3.448-0.039-5.178
	c0.199-1.853,1.518-3.388,2.93-4.607c3.759-3.246,5.886-6.097,6.283-11.144c0.492-6.258-0.429-12.499-0.338-18.758
	c0.395-27.225,7.806-52.491,21.71-75.819c3.204-5.377,7.022-9.887,4.239-17.133c-0.824-2.146,2.55-7.155,5.255-9.153
	c6.33-4.678,8.491-11.041,9.455-18.148c2.841-20.944,5.667-41.892,8.161-62.878c1.024-8.616-6.251-16.879-2.291-25.357
	c1.267-2.711,3.56-4.798,5.945-6.606c1.321-1.003,2.857-1.989,4.504-1.793C257.043,3.497,257.618,3.736,258.153,4.064z"/>
<g>
	<path style="fill:#BF8B52;" d="M116.538,317.217c-6.073-0.267-17.323,2.824-20.875,7.854c-6.569,9.302,9.561,7.746,14.972,7.963
		c12.665,0.507,25.486,1.536,38.132,1.033c4.821-0.192,9.848,0.188,14.624-0.222c3.763-0.323,5.241-0.823,5.893-5.05
		c0.652-4.225-1.474-5.906,3.948-6.721c5.847-0.88,12.532,0.275,18.359,0.505c12.017,0.475,23.861,0.088,35.86-0.465
		c8.581-0.395,16.481,0.789,24.883-1.005c8.851-1.89,19.161-1.044,28.203-1.054c7.646-0.008,15.249,0.417,22.884,0.405
		c6.989-0.011,13.961,0.282,20.933,0.609c4.068,0.19,11.104-1.389,14.798,0.508c3.206,1.647,2.448,3.525,2.888,6.832
		c0.48,3.605-0.237,2.866,2.787,4.207c6.355,2.818,17.043,0.264,23.78-0.079c12.371-0.631,24.755-1.415,37.138-1.118
		c5.688,0.136,15.802-1.508,8.086-8.288c-4.21-3.699-9.56-2.842-14.812-3.99c-7.683-1.681-3.991-4.862-7.181-10.059
		c-4.215-6.867-21.362-6.437-28.213-6.097c-6.257,0.31-7.742,0.483-9.731-5.057c-1.557-4.336-3.57-5.737-8.37-6.669
		c-6.907-1.341-14.277,0.014-21.251-0.001c-9.963-0.022-20.099-0.07-30.058,0.384c-10.944,0.5-21.86-1.22-32.833-0.805
		c-11.816,0.447-23.724,1.664-35.541,1.637c-19.639-0.045-40.29-2.581-59.602,1.318c-5.686,1.148-3.786,1.488-5.081,6.182
		c-1.381,5.003-4.581,4.92-8.688,4.728c-5.95-0.277-12.044,0.275-17.982,0.762c-4.021,0.33-12.516-0.859-15.541,2.809
		C117.316,310.248,118.987,321.448,116.538,317.217z"/>
	<path style="fill:#BF8B52;" d="M254.037,271.897c13.888-0.429,27.772-0.839,41.671-0.541c6.461,0.139,12.893,0.006,19.371,0.346
		c3.045,0.16,6.835,0.905,9.52-0.702c6.55-3.92,0.043-9.336-4.72-10.335c0.263-3.058,0.53-5.318-1.288-7.846
		c-1.724-2.399-5.038-3.364-6.124-6.338c-0.678-1.858-0.393-5.183-0.356-7.102c0.128-6.71,1.604-12.867,0.89-19.619
		c-1.602-15.126-1.738-30.634-5.523-45.455c-2.311-9.05-5.446-16.066-10.724-23.776c-3.454-5.044-6.633-15.319-12.156-18.257
		c-6.02-3.201-18.016-0.975-24.808-0.656c-7.398,0.348-14.786,0.355-22.208,0.584c-4.117,0.127-9.04,0.496-12.444,3.052
		c-2.667,2.003-3.307,5.105-4.585,8.185c-2.26,5.446-4.751,10.887-7.159,16.302c-4.848,10.904-10.337,23.423-10.679,35.521
		c-0.369,13.054-1.125,25.939-1.564,39.007c-0.15,4.467-0.638,7.998-3.442,11.466c-1.61,1.991-6.231,4.393-6.711,7.023
		c-0.536,2.937,2.329,2.636,2.526,4.943c0.346,4.05-8.017,3.806-8.451,8.004c-0.756,7.301,13.76,6.434,17.586,6.589
		C219.821,272.985,236.933,272.426,254.037,271.897z"/>
</g>
<g>
	<path style="fill:#FCDB72;" d="M253.623,2.894c-5.316,4.122-12.634,14.509-8.212,21.517c1.629,2.582,4.986,2.649,5.786,5.49
		c1.037,3.682-2.787,12.463-3.352,16.353c-0.94,6.479-0.686,13.094-1.637,19.624c-1.132,7.775-3.498,15.316-4.651,23.09
		c-1.249,8.421-0.467,17.967-6.995,24.277c-4.661,4.505-15.274,9.525-6.196,16.079c5.972,4.312,17.626,3.561,24.821,2.55
		c6.709-0.943,13.365-0.476,20.088-1.109c4.162-0.391,13.082-0.197,14.822-4.058c2.715-6.029-4.183-10.012-7.592-13.361
		c-11.446-11.243-9.854-30.197-11.975-44.95c-1.317-9.161-2.718-18.31-4.045-27.475c-0.899-6.21-2.979-9.842,0.913-15.039
		c3.466-4.627,2.628-8.353-0.175-13.489C263.556,9.339,258.821-1.182,253.623,2.894z"/>
	<path style="fill:#FCDB72;" d="M129.517,277.876c-2.876,3.286-4.049,12.708-5.513,17.647c-1.019,3.433-3.139,7.424-2.536,11.088
		c4.316-0.156,8.916-0.829,13.322-1.165c4.044-0.309,6.113,0.333,5.679-4.633c-0.47-5.39-3.603-10.325-5.172-15.319
		c-1.04-3.312-2.166-5.898-4.137-8.803C130.279,277.2,129.164,278.362,129.517,277.876z"/>
	<path style="fill:#FCDB72;" d="M103.965,293.288c-1.945,4.923-4.076,9.83-5.373,15.006c-0.527,2.1-3.183,9.371-1.896,11.558
		c1.587,2.698,13.24-1.656,16.606-2.28C116.603,310.463,107.348,300.66,103.965,293.288z"/>
	<path style="fill:#FCDB72;" d="M168.046,262.059c-4.204,8.659-5.432,19.266-8.071,28.42c3.768,1.082,17.784,3.432,18.635-1.87
		c0.563-3.502-2.822-9.737-3.827-13.264C173.253,269.969,171.345,264.79,168.046,262.059z"/>
	<path style="fill:#FCDB72;" d="M86.93,347.636c-3.556,6.43-6.283,13.59-9.371,20.342c-0.824,1.801-4.994,8.91-4.043,11.105
		c1.822,4.208,12.785,1.151,15.951,0.979c3.802-0.207,7.812,0.831,11.162,0.783c1.098-6.652-3.734-14.132-5.785-20.269
		C93.413,356.291,91.212,351.216,86.93,347.636z"/>
	<path style="fill:#FCDB72;" d="M44.345,398.738c-0.409,5.97-4.813,13.716-7.133,19.4c-2.056,5.038-3.936,11.251-6.617,15.804
		c3.809,1.124,11.064,1.132,15.279,0.862c3.394-0.219,12.888,0.29,14.735-2.811c-2.121-7.04-4.928-14.74-7.725-21.786
		C51.526,406.788,48.576,393.575,44.345,398.738z"/>
	<path style="fill:#FCDB72;" d="M93.826,421.451c-7.755,12.429-11.638,28.416-16.566,42.161c1.433-0.467,3.85,0.523,5.606,0.81
		c3.455,0.564,7.121,0.897,10.677,0.832c3.935-0.072,15.683,1.892,16.924-1.811c0.793-2.366-2.474-7.454-3.268-9.637
		c-1.56-4.283-2.481-8.766-4.045-13.055C100.97,434.764,96.814,427.907,93.826,421.451z"/>
	<path style="fill:#FCDB72;" d="M146.957,419.829c-3.489,5.131-4.955,11.559-8.021,16.883c-1.221,2.121-5.369,6.384-3.76,8.891
		c1.175,1.831,9.686,1.314,11.691,1.399c4.103,0.174,7.857-0.357,11.792-0.871c1.326-3.976-2.923-10.394-4.719-14.065
		C151.623,427.328,149.414,424.489,146.957,419.829z"/>
	<path style="fill:#FCDB72;" d="M382.233,277.876c2.876,3.286,4.049,12.708,5.513,17.647c1.019,3.433,3.139,7.424,2.536,11.088
		c-4.316-0.156-8.916-0.829-13.322-1.165c-4.044-0.309-6.113,0.333-5.679-4.633c0.47-5.39,3.603-10.325,5.172-15.319
		c1.04-3.312,2.166-5.898,4.137-8.803C381.47,277.2,382.585,278.362,382.233,277.876z"/>
	<path style="fill:#FCDB72;" d="M407.784,293.288c1.945,4.923,4.077,9.83,5.373,15.006c0.527,2.1,3.183,9.371,1.896,11.558
		c-1.585,2.698-13.24-1.656-16.606-2.28C395.146,310.463,404.401,300.66,407.784,293.288z"/>
	<path style="fill:#FCDB72;" d="M343.703,262.059c4.204,8.659,5.432,19.266,8.071,28.42c-3.768,1.082-17.784,3.432-18.635-1.87
		c-0.563-3.502,2.822-9.737,3.827-13.264C338.496,269.969,340.404,264.79,343.703,262.059z"/>
	<path style="fill:#FCDB72;" d="M424.819,347.636c3.556,6.43,6.283,13.59,9.371,20.342c0.824,1.801,4.994,8.91,4.043,11.105
		c-1.822,4.208-12.785,1.151-15.951,0.979c-3.802-0.207-7.812,0.831-11.162,0.783c-1.098-6.652,3.734-14.132,5.785-20.269
		C418.336,356.291,420.537,351.216,424.819,347.636z"/>
	<path style="fill:#FCDB72;" d="M467.404,398.738c0.409,5.97,4.813,13.716,7.133,19.4c2.056,5.038,3.936,11.251,6.617,15.804
		c-3.809,1.124-11.064,1.132-15.279,0.862c-3.394-0.219-12.888,0.29-14.735-2.811c2.121-7.04,4.928-14.74,7.725-21.786
		C460.224,406.788,463.173,393.575,467.404,398.738z"/>
	<path style="fill:#FCDB72;" d="M417.923,421.451c7.755,12.429,11.638,28.416,16.566,42.161c-1.433-0.467-3.85,0.523-5.606,0.81
		c-3.455,0.564-7.121,0.897-10.677,0.832c-3.935-0.072-15.683,1.892-16.924-1.811c-0.793-2.366,2.474-7.454,3.268-9.637
		c1.56-4.283,2.481-8.766,4.045-13.055C410.78,434.764,414.935,427.907,417.923,421.451z"/>
	<path style="fill:#FCDB72;" d="M364.793,419.829c3.489,5.131,4.955,11.559,8.021,16.883c1.221,2.121,5.369,6.384,3.76,8.891
		c-1.175,1.831-9.686,1.314-11.691,1.399c-4.103,0.174-7.857-0.357-11.792-0.871c-1.326-3.976,2.923-10.394,4.719-14.065
		C360.126,427.328,362.336,424.489,364.793,419.829z"/>
</g>
<path style="fill:#BF8B52;" d="M237.806,335.874c-6.2,4.421-6.332,11.678-14.602,12.956c-6.284,0.971-11.567,0.423-17.826,0.113
	c-6.459-0.32-13.221-0.435-19.69-0.112c-5.364,0.268-11.372-0.196-16.422,1.744c-1.962,0.753-5.93,2.43-6.713,4.545
	c-1.951,5.271,5.456,4.861,8.67,5.09c7.612,0.543,15.167,0.791,22.802,1.194c7.299,0.385,15.07-0.255,22.245,0.893
	c-3.076,8.607-0.759,19.8-1.583,28.914c-0.749,8.28-1.401,16.568-1.929,24.866c-0.221,3.474-1.942,15.026,1.082,17.661
	c1.726,1.504,10.169,0.645,12.566,0.65c-0.36-8.421-1.963-16.673-1.984-25.136c-0.031-12.216,1.107-24.687,6.88-35.683
	c5.157-9.824,12.587-19.949,19.496-28.555c7.641-9.519,13.848,6.389,17.449,11.962c5.236,8.105,12.552,15.547,16.774,24.105
	c2.466,5,2.655,7.185,1.691,12.621c-2.181,12.305-1.568,25.775-0.994,38.281c0.04,0.878,12.078-0.957,13.249-0.565
	c1.329-2.079-0.073-6-0.284-8.444c-1.232-14.172,0.753-28.256-1.966-42.396c-0.604-3.139-4.058-12.908-1.842-15.935
	c1.49-2.034,5.806-1.965,8.058-2.392c8.313-1.573,17.551-0.46,26.076-0.925c3.952-0.216,24.549,0.818,20.605-9.275
	c-2.703-6.917-25.821-3.602-31.036-3.603c-10.626-0.002-22.883,1.011-33.359-0.803c-7.531-1.305-12.458-10.374-16.599-16.333
	c-3.273-4.711-6.398-12.67-13.788-11.487C246.771,321.112,242.781,329.592,237.806,335.874z"/>
<path style="fill:#8E5F30;" d="M236.236,431.725c-1.837,0.11-3.724,0.32-5.731,0.676c-7.523,1.334-4.883-5.301-4.957-10.94
	c-0.122-9.312-1.935-17.662-0.514-27.05c1.45-9.588,4.359-17.2,9.78-25.34c3.441-5.169,7.1-10.193,10.883-15.118
	c2.928-3.81,3.901-9.09,8.609-11.409c1.929-0.95,1.853-0.747,3.402,0.492c7.887,6.312,12.489,15.637,18.222,23.742
	c4.001,5.655,6.116,10.803,7.717,17.367c2.466,10.112,2.336,21.156,2.849,31.821c0.181,3.767,1.255,9.849-1.269,13.002
	c-1.132,1.414-4.036,2.412-5.695,2.66c-4.803,0.716-10.01,0.663-14.847,0.465c-5.122-0.209-10.123,0.11-15.226-0.119
	C244.716,431.762,240.62,431.462,236.236,431.725z"/>
<path style="fill:#513215;" d="M255.654,374.854c-2.537,1.032-5.047,4.034-7.039,5.873c-2.318,2.141-5.27,4.297-7.058,6.933
	c-1.548,2.284-1.808,5.668-2.345,8.333c-0.864,4.282-1.365,8.588-2.057,12.895c-0.663,4.122-1.072,8.347-1.363,12.511
	c-0.174,2.486-1.118,6.32-0.362,8.79c0.511,1.67,0.657,1.711,2.713,1.936c3.735,0.407,7.504,1.038,11.272,0.963
	c6.687-0.135,13.321-0.343,20-0.481c3.01-0.061,7.059,0.618,8.305-2.783c1.067-2.912-0.59-7.637-0.894-10.629
	c-0.306-3.016-0.911-5.98-1.066-8.998c-0.289-5.61,0.438-11.923-1.577-17.261c-0.574-1.52-0.907-2.038-2.19-3.207
	c-2.791-2.548-5.11-5.277-7.571-8.135c-1.482-1.721-3.609-5.618-5.598-6.689C257.154,374.005,256.221,374.918,255.654,374.854z"/>
<path style="fill:#BF8B52;" d="M163.543,419.363c1.017,3.151,1.571,6.677,1.992,10.038c0.589,4.699,0.42,4.163-3.571,4.359
	c-2.91,0.142-5.898-0.749-5.766,2.841c0.103,2.822,3.529,6.453,4.278,9.344c25.043-0.759,50.409,3.388,75.739,1.826
	c19.17-1.182,38.331,2.167,57.509,0.691c15.308-1.178,31.918-4.421,47.167-2.165c3.058,0.452,7.067,1.596,9.522-0.078
	c3.091-2.107,3.776-8.483,5.533-11.585c-2.486-2.678-9.098,0.657-11.231-2.167c-2.359-3.124,5.639-10.122,1.424-13.025
	c-1.629-1.122-8.373-0.771-10.528-0.872c-4.629-0.216-9.172-0.604-13.806-0.863c-6.108-0.341-16.302-2.58-21.887,0.806
	c0.595,2.841,2.382,12.585-0.235,14.149c-1.321,0.789-9.582,0.43-11.55,0.715c-5.241,0.758-10.419,0.601-15.675,0.28
	c-12.754-0.778-25.233-1.114-38.012-0.277c-8.155,0.534-17.542,0.276-25.405,1.591c1.127-2.922,4.474-14.128,2.104-16.591
	c-3.472-3.608-15.667,0.22-20.209,0.207C183.67,418.567,176.657,417.377,163.543,419.363z"/>
<g>
	<path style="fill:#CEB578;" d="M170.203,337.094c1.16,1.9,1.785,6.111,0.39,8.216c-1.716,2.589-5.333,1.872-7.249,3.972
		c-2.101,2.304-0.308,4.271-4.071,5.439c-3.388,1.052-6.942,0.06-10.495,1.638c-4.027,1.789-7.519,5.243-9.647,9.135
		c-6.334,11.591-5.545,32.628,10.092,35.18c4.876,0.796,13.404-2.309,16.952,1.451c2.016,2.138,2.687,7.884,2.475,10.734
		c-0.423,5.702-3.701,2.628-6.106,5.738c-1.851,2.394,0.819,8.541,0.538,11.665c-2.883,1.462-6.248,2.519-8.882,4.346
		c-0.001-4.313-3.608-13.845-7.918-15.695c-4.431,3.058-4.377,13.287-9.772,15.742c-2.113,0.961-10.856-1.328-13.495-1.641
		c-4.252-0.504-10.741-0.55-14.683-1.856c1.689-5.995,0.732-14.42,0.758-20.629c0.029-7.139-0.314-14.243-0.403-21.35
		c-0.201-16.009,1.842-32.015-1.089-47.806c-1.654-8.911,6.458-6.316,13.047-6.619c10.421-0.479,20.905-0.423,31.374-0.407
		C156.998,334.359,171.034,330.076,170.203,337.094z"/>
	<path style="fill:#CEB578;" d="M88.717,380.579c-5.152-0.934-13.752-1.639-17.159,3.153c-2.114,2.973-1.105,6.731-1.245,10.307
		c-0.255,6.55-1.074,13.059-1.185,19.619c-0.081,4.794-3.398,18.798,2.355,21.413c0.931,0.423,7.481-1.081,8.741-1.202
		c2.092-0.2,3.683-0.822,5.643-0.069c4.915-2.032,4.404-14.643,10.694-14.664c3.016,3.224,1.589,11.755,5.085,13.955
		c5.905,3.714,4.626-10.613,4.699-12.969c0.079-2.519,0.731-6.652-1.235-8.611c-2.728-2.717-8.998-1.743-12.313-4.095
		c-5.187-3.68-12.19-13.389-8.922-20.148c2.247-4.646,8.56-3.565,10.99-7.101C93.216,379.036,90.693,379.136,88.717,380.579z"/>
	<path style="fill:#CEB578;" d="M25.643,436.209c-0.114,6.566-1.683,13.404-2.056,20.052c-0.232,4.137-2.18,11.151-0.696,15.127
		c1.384,3.709,2.499,1.929,5.866,0.081c5.291-2.903,9.631-5.424,14.366-9.244c2.698-2.178,8.328-4.994,10.354,0.214
		c2.199,5.654-5.935,13.576-5.053,19.581c3.488-2.007,9.037-10.243,14.141-7.447c5.187,2.842-1.504,15.435-1.602,19.576
		c4.51-0.032,10.632-6.446,15.14-5.483c1.074-6.81,0.568-13.78,0.477-20.734c-0.068-5.333,6.244-16.771-0.971-17.941
		c-6.201-1.005-12.739,4.22-18.478-0.914c-5.096-4.56,0.555-10.091-2.168-14.521c-2.79-4.539-10.791-1.719-14.846-1.166
		C35.963,433.956,27.214,432.56,25.643,436.209z"/>
	<path style="fill:#CEB578;" d="M94.907,468.366c1.95,4.655,0.552,12.445,0.94,16.718c0.267,2.948,2.092,8.028-0.27,9.906
		c-0.516,0.41-3.003,0.083-3.715,0.259c-1.642,0.404-4.004,1.601-5.317,2.648c-2.254,1.797-3.063,6.75-4.977,7.987
		c-4.124,2.667-2.928-13.113-3.232-16.204c-0.583-5.922-1.667-12.55-0.586-18.586c0.873-4.881,8.495-7.146,12.707-6.419
		C92.741,465.07,94.106,466.454,94.907,468.366z"/>
	<path style="fill:#CEB578;" d="M116.14,472.643c-1.287,5.634-1.61,12.37-0.725,17.963c2.224,0.699,4.709,2.191,6.915,3.131
		c1.153-2.448,1.799-10.554,5.543-11.319c3.744-0.765,9.204,6.053,13.663,5.12c4.298-0.9,5.645-10.608,5.163-13.954
		c-0.972-6.752-1.084-12.439-0.344-19.464c0.549-5.217-0.853-8.706-6.89-6.959c-5.983,1.732-3.741,7.652-3.736,12.419
		c0.004,2.884,0.007,8.739-2.834,10.502c-1.963,1.218-14.129-2.349-14.728,0.662C118.012,471.521,117.43,472.334,116.14,472.643z"/>
	<path style="fill:#CEB578;" d="M171.77,370.002c11.313,0,22.448,1.721,33.713,1.16c1.806-0.089,7.638,0.766,9.038-0.653
		c1.074-1.091,0.988-5.84,1.48-7.458c-3.689-1.242-7.431-0.658-11.323-0.471c-5.623,0.271-11.102-0.509-16.649-0.77
		c-4.593-0.217-10.042-0.621-14.523,0.143c-1.352,0.23-4.376,0.975-5.062,2.345C167.496,366.189,169.488,370.227,171.77,370.002z"/>
	<path style="fill:#CEB578;" d="M294.783,362.166c1.397,0.818,0.745,3.901,1.547,5.778c1.648,3.861,4.559,3.063,8.36,3.224
		c6.716,0.284,13.459,0.009,20.244,0.009c3.025,0,7.407,0.956,10.204,0.2c3.764-1.017,7.543-6.959,2.957-9.18
		c-3.044-1.475-11.094-0.532-14.404-0.388C316.593,362.118,308.943,362.524,294.783,362.166z"/>
	<path style="fill:#CEB578;" d="M181.173,348.062c-4.034-10.894,11.457-14.905,18.795-15.594c14.079-1.32,29.486-1.124,43.228-4.484
		c7.998-1.956,5.918-8.1-1.737-8.524c-15.675-0.87-31.709,1.106-47.378,0.381c-6.907-0.32-16.889-0.442-23.026,2.816
		c-1.128,5.821-1.529,12.854-0.658,18.758C171.284,347.438,177.305,348.359,181.173,348.062z"/>
	<path style="fill:#CEB578;" d="M267.36,328.474c14.98,3.981,33.177,3.433,48.553,2.655c5.875-0.297,11.813-0.337,17.672-0.411
		c1.852-0.023,4.699,0.67,6.476-0.629c1.194-0.873,2.514-3.083,2.547-4.748c0.063-3.217-1.507-3.113-4.082-3.707
		c-13.141-3.03-26.901,0.018-40.168-0.193c-10.646-0.169-23.427-3.549-33.681-0.339C264.323,325.22,263.644,327.463,267.36,328.474z
		"/>
	<path style="fill:#CEB578;" d="M403.693,338.66c-3.975-1.33-9.666-0.301-13.791,0.286c-10.794,1.534-19.285,5.881-23.85,16.212
		c-7.785,17.623-6.925,37.322-6.216,55.988c0.203,5.362,0.8,12.547-2.077,16.805c-1.308,1.935-2.514,4.237-4.995,4.741
		c-2.737,0.557-4.893-1.962-7.394-1.225c0.685-3.492,4.991-10.37,2.119-13.666c-1.977-2.268-2.857,0.11-5.017-0.751
		c-3.12-1.243-2.544-4.598-2.635-7.562c-0.303-9.936-0.784-19.9-0.785-29.819c0-4.102-0.618-10.736,1.186-14.463
		c1.64-3.386,4.562-1.342,7.42-4.01c2.271-2.12,3.519-8.643,0.825-11.007c-3.526-3.092-7.638,1.69-8.265-4.832
		c-0.208-2.167,0.284-8.553,1.879-10.171c1.675-1.699,2.507-0.668,5.452-0.424c14.437,1.192,28.642-2.413,42.927-2.69
		c2.407-0.047,6.901-0.515,9.207,0.018c2.815,0.65,2.011,1.717,4.486,3.388C404.023,335.976,403.733,336.384,403.693,338.66z"/>
</g>
<path style="fill:#AA7643;" d="M250.202,187.484c0.881-15.437,0.585-31.48,14.88-41.466c5.12-3.576,17.051-5.586,19.306-12.219
	c2.145-6.309-8.044-4.077-11.855-3.956c-6.101,0.194-12.17,1.677-18.273,1.614c-5.439-0.056-10.686-0.716-16.191-0.041
	c-4.988,0.611-10.353,0.604-13.596,4.761c-20.65,26.472-21.08,63.093-25.674,94.773c-0.608,4.191-3.457,12.315,1.647,14.393
	c2.111,0.859,6.22-0.201,8.426-0.389c5.087-0.432,9.997-0.643,15.118-0.698c9.972-0.107,19.863,0.196,29.785,0.166
	c5.115-0.016,10.439,1.161,15.482,0.48c1.04-7.619-7.79-11.151-11.621-16.678C250.056,217.283,249.476,200.222,250.202,187.484z"/>
<path style="fill:#8E5F30;" d="M248.947,165.502c-15.687,13.824-15.716,39.317-17.716,58.852c-0.398,3.89-0.712,7.784-1.088,11.632
	c-0.17,1.749-1.176,5.6-0.199,7.299c1.068,1.857,3.744,2.314,5.892,2.361c5.626,0.122,10.971-0.685,16.757-0.214
	c10.17,0.829,19.891,1.046,29.978-0.471c2.356-6.6,0.335-16.074,0.078-23.112c-0.299-8.154-1.808-16.422-4.305-24.241
	c-2.774-8.687-5.27-18.074-9.416-26.258C264.126,161.87,252.906,164.608,248.947,165.502z"/>
<g>
	<path style="fill:#AA7643;" d="M192.533,254.04c13.301,2.365,29.212,0.69,42.642-0.396c14.408-1.165,28.841,0.787,43.283,0.787
		c9.889,0,19.659-0.751,29.42-1.195c5.335-0.243,9.964-1.247,13.522,3.077c-8.853,4.258-22.93,2.135-32.566,2.42
		c-13.059,0.385-26.121,1.149-39.175,1.595c-15.246,0.521-30.735,0.12-45.925-0.717c-3.523-0.194-10.692,0.46-11.991-3.877
		C192.846,254.982,193.898,254.154,192.533,254.04z"/>
	<path style="fill:#AA7643;" d="M183.131,268.927c14.542-3.039,30.458-0.798,45.228-1.166c13.453-0.336,26.773,0.383,40.226,0.383
		c12.123,0,24.113-0.655,36.173-1.189c4.948-0.22,18.494-2.44,22.203,1.574c-5.051,6.717-22.319,4.253-29.46,3.847
		c-16.422-0.936-32.601-2.233-49.06-1.466c-14.91,0.695-29.926,1.889-44.823,2.327C199.049,273.37,188.637,274.283,183.131,268.927z
		"/>
	<path style="fill:#AA7643;" d="M116.532,315.155c3.734,0.224,7.447-0.803,11.132-1.153c7.883-0.747,15.877-0.303,23.79-0.806
		c44.492-2.831,89.074,1.14,133.623,1.553c26.794,0.248,53.444,0.079,80.23-1.194c5.057-0.24,27.975-4.888,28.228,2.559
		c0.232,6.827-12.326,4.081-16.288,4.15c-16.168,0.281-32.314,0.046-48.455,1.065c-14.803,0.934-29.799,0.752-44.59-0.295
		c-6.555-0.464-13.136-0.467-19.694-0.75c-5.534-0.239-11.126,1.558-16.636,0.981c-4.251-0.445-7.273-2.057-11.725-1.791
		c-12.526,0.745-24.97,2.006-37.537,1.956c-19.862-0.081-39.635-2.738-59.551-1.929C138.008,319.539,115.09,322.641,116.532,315.155
		z"/>
	<path style="fill:#AA7643;" d="M160.409,297.525c27.951,0,55.784,0.126,83.781-0.323c17.071-0.274,34.137,1.347,51.226,0.323
		c12.417-0.744,24.722-0.37,37.139,0.004c3.527,0.106,14.773-2.006,17.387,0.872c5.183,5.706-6.994,6.186-9.171,6.176
		c-13.183-0.055-26.692,0.458-39.841,1.46c-19.134,1.456-37.534,1.442-56.684,0.881c-18.55-0.543-36.936-2.222-55.52-1.964
		c-5.797,0.081-11.638,0.398-17.421,0.798c-2.543,0.175-6.787,1.152-9.208-0.167C157.695,303.19,161.254,302.028,160.409,297.525z"
		/>
	<path style="fill:#AA7643;" d="M96.552,327.299c16.901,0,33.657,1.835,50.524,1.16c5.188-0.207,11.834-1.383,16.868-0.778
		c2.972,0.357,3.466,0.887,4.258,3.849c-3.473,1.741-8.098,1.439-11.894,1.752c-9.73,0.805-19.47,0.568-29.206,0.085
		c-7.287-0.362-14.551-0.59-21.852-0.584c-3.533,0.002-7.387,0.611-9.863-2.244C95.975,330.35,96.415,329.848,96.552,327.299z"/>
	<path style="fill:#AA7643;" d="M160.409,355.898c4.083-1.657,10.453,0.005,14.881,0c9.184-0.011,18.407,0.262,27.587,0.009
		c5.779-0.16,16.774-3.962,22.054-0.909c-3.084,2.657-4.792,5.343-9.036,5.631c-8.081,0.547-16.561-1.433-24.707-1.223
		c-7.807,0.2-16.304,1.773-24.05,1.192C163.445,360.318,161.537,359.424,160.409,355.898z"/>
	<path style="fill:#AA7643;" d="M288.906,355.114c14.698,0,29.44,0.367,44.104-0.429c3.925-0.213,13.147-2.282,15.9,1.607
		c-2.506,3.305-9.118,2.989-12.777,3.152c-8.629,0.387-17.31-0.062-25.94,0.351c-3.687,0.176-10.317,2.567-13.844,1.498
		C293.428,360.409,293.39,357.029,288.906,355.114z"/>
	<path style="fill:#AA7643;" d="M342.187,327.691c5.938-2.492,16.173,0.295,22.466,0.407c9.503,0.169,18.968,0.377,28.471,0.377
		c4.93,0,9.674-0.201,14.498-0.695c2.655-0.271,6.02-0.502,8.558,0.371c-0.078,6.054-9.655,5.033-13.739,5.024
		c-10.988-0.021-22.027,0.192-33.028,0.394c-6.203,0.114-23.881,4.624-27.093-3.549
		C342.994,330.065,343.455,329.677,342.187,327.691z"/>
	<path style="fill:#AA7643;" d="M211.338,423.672c-9.71-2.168-22.061,1.085-32.177,1.175c-7.569,0.067-12.657-0.891-15.568,6.19
		C168.018,432.689,214.533,435.514,211.338,423.672z"/>
	<path style="fill:#AA7643;" d="M157.667,440.91c16.074-0.042,31.78,0.233,47.878-0.696c28.09-1.621,56.576-2.175,84.771-1.296
		c10.925,0.341,21.858,0.43,32.788,0.447c4.195,0.006,29.229-2.72,30.081,2.711c0.905,5.769-21.483,3.555-23.7,3.522
		c-34.036-0.495-68.013,4.651-102.036,1.55c-16.368-1.491-31.714-1.312-48.06,0.135C172.906,447.858,161.513,451.15,157.667,440.91z
		"/>
	<path style="fill:#AA7643;" d="M299.877,424.456c5.68-1.67,13.463-0.29,19.249-0.021c6.356,0.295,12.635,0.028,18.94,0.11
		c2.836,0.036,11.164-0.619,9.033,4.029c-0.999,2.179-4.196,2.309-6.214,2.454c-6.357,0.457-13.021-0.179-19.459,0.068
		C318.602,431.203,297.88,433.145,299.877,424.456z"/>
</g>
<g>
	<path style="fill:#CEB578;" d="M364.517,447.962c-0.393,7.156,0.281,13.743,1.117,20.704c-2.711,0.936-8.021,2.058-10.938,1.641
		c-4.31-0.617-3.92-3.59-3.908-7.673c0.012-4.014,0.23-10.714,2.291-14.286c0.661-1.145,0.109-1.762,1.435-2.333
		C356.085,445.338,363.062,447.134,364.517,447.962z"/>
	<path style="fill:#CEB578;" d="M414.271,468.333c1.61,3.21,1.352,7.437,1.604,10.969c0.254,3.551,2.199,10.881,1.156,14.152
		c-0.809,2.539-7.219,7.662-9.734,8.911c-1.723-4.594,0.2-12.916-7.462-11.656c0.007-6.186-2.856-14.484-1.156-20.416
		c0.656-2.287,2.365-3.285,4.528-3.542c1.912-0.228,3.78,0.886,5.759,0.834C411.818,467.51,415.063,466.374,414.271,468.333z"/>
	<path style="fill:#CEB578;" d="M421.714,380.97c-0.281,8.614-1.788,17.327,1.263,25.792c1.978,5.486,4.77,9.054,9.81,11.912
		c1.999,1.133,7.865,2.904,9.07,4.847c1.462,2.359-0.055,8.254-2.704,9.179c-2.497,0.872-8.594-1.219-11.678-0.995
		c-2.081,0.15-4.062,0.541-6.095,0.529c0.011-2.643-0.375-8.168-2.281-10.137c-3.008-3.105-4.963,1.558-6.307,4.868
		c-0.981,2.418-0.87,7.395-3.978,8.482c-3.259,1.139-4.696-1.855-5.044-4.319c-0.717-5.077,1.046-11.104,1.095-16.342
		c0.065-6.901-0.643-13.564-1.28-20.419c-0.297-3.201-0.725-9.463,1.636-12.137C408.688,378.303,418.053,379.994,421.714,380.97z"/>
	<path style="fill:#CEB578;" d="M428.374,443.261c6.294,3.639,10.512,15.034,19.325,13.349c5.016-0.959,7.322-6.756,12.677-7.606
		c5.371-0.853,8.947,3.851,13.639,5.625c3.351,1.267,8.59-0.825,11.085,0.866c2.526,1.712,2.597,7.29,2.821,9.891
		c0.123,1.444,1.093,7.668-0.46,8.752c-2.363,1.651-7.146-2.918-8.851-4.226c-4-3.065-9.501-9.425-15.4-8.161
		c-8.392,1.797-0.747,12.748-1.616,17.87c-0.763,4.5-2.453-2.433-4.681-3.755c-2.512-1.489-7.149-1.435-8.48,0.973
		c-1.883,3.406,5.961,26.597-4.514,16.945c-1.126-1.038-1.562-2.851-2.847-3.723c-1.077-0.731-2.24-0.158-3.297-0.851
		c-3.721-2.441-2.75-6.569-3.427-10.598c-0.304-1.809-1.461-4.531-1.299-6.362c0.229-2.594,1.276-4.203,1.189-7.043
		C434.028,458.376,429.793,453.142,428.374,443.261z"/>
	<path style="fill:#CEB578;" d="M315.155,279.112c-20.584-0.063-41.224-1.181-61.819-1.175c-7.584,0.002-7.933,0.161-11.44,6.187
		c-1.61,2.765-4.384,4.408-5.982,7.103c-6.109-2.395-15.931-1.014-22.537-1.156c-5.243-0.113-12.746,2.118-17.648,0.354
		c-0.098-6.633-6.341-13.281,2.984-14.833c17.484-2.911,36.362-2.324,54.013-2.355c16.04-0.029,32.008,0.822,47.976,0.784
		c3.932-0.009,9.208-0.615,12.922,0.696C316.936,275.885,315.699,275.553,315.155,279.112z"/>
</g>
<g>
	<path style="fill:#E2AB5A;" d="M259.133,4.879c-2.6,3.713-5.296,7.501-6.285,12.13c-0.504,2.359-0.49,4.859,0.029,7.214
		c0.483,2.192,1.647,2.583,2.356,4.054c1.298,2.693,0.531,5.901,0.351,9.195c-0.361,6.602,0.397,13.214,0.035,19.784
		c-0.642,11.64-2.363,23.137-2.363,34.838c0,4.26-0.172,8.421-0.39,12.627c-0.183,3.507-1.14,8.101-0.814,11.447
		c0.574,5.886,7.338,6.994,10.645,10.549c-4.792,7.564-27.411,2.65-34.304,1.957c-1.569-0.157-6.044,0.388-6.922-1.119
		c-1.349-2.314,4.432-7.167,6.002-8.184c3.407-2.206,5.727-2.48,8.165-5.879c2.324-3.24,3.433-6.626,4.691-10.391
		c3.299-9.872,2.74-19.324,3.125-29.596c0.317-8.456,2.071-16.912,3.33-25.266c0.778-5.171,3.31-11.85,2.468-17.048
		c-0.778-4.808-4.582-2.978-5.698-7.19C242.17,18.784,254.367-4.673,259.133,4.879z"/>
	<path style="fill:#E2AB5A;" d="M170.203,264.226c0.183,5.091-0.277,10.61-0.736,15.698c-0.32,3.558,0.939,9.544-0.441,12.762
		c-2.852-3.009-6.115-1.601-8.95-3.097c1.523-3.487,3.234-7.485,4.267-11.212C165.1,275.652,165.339,264.527,170.203,264.226z"/>
	<path style="fill:#E2AB5A;" d="M132.594,278.329c0.303,5.075-1.389,10.4-1.576,15.52c-0.139,3.784,0.395,8.228-0.843,11.843
		c-2.596-0.342-5.09-1.641-7.698-0.773c-0.55-5.245,1.86-11.444,3.273-16.486c0.732-2.615,1.432-8.831,3.71-10.533
		C130.672,278.915,131.359,280.427,132.594,278.329z"/>
	<path style="fill:#E2AB5A;" d="M104.272,296.097c-0.301,5.255-0.621,11.023-0.668,16.383c-0.022,2.568,0.122,5.149-0.362,7.619
		c0.154-0.789-4.015,0.344-4.15,0.25c-1.265-0.876-0.986-2.086-0.824-3.599c0.664-6.177,1.883-15.375,4.541-20.86
		C102.695,296.127,104.197,296.114,104.272,296.097z"/>
	<path style="fill:#E2AB5A;" d="M89.108,347.279c-2.004,9.949-2.301,20.216-4.378,30.113c-3.527,0.175-8.407,1.298-11.157,0.3
		c3.699-7.261,7.015-14.924,9.383-22.694C84.047,351.42,84.372,347.518,89.108,347.279z"/>
	<path style="fill:#E2AB5A;" d="M46.798,400.95c0.297,4.782-0.958,9.593-1.194,14.357c-0.196,3.955,0.859,10.461-0.712,14.078
		c-1.889,4.343-9.247,3.475-13.703,3.239c0.14-6.604,5.426-13.996,8.028-20.03c1.895-4.391,3.998-8.697,5.699-13.169
		C46.371,399.588,47.01,400.868,46.798,400.95z"/>
	<path style="fill:#E2AB5A;" d="M95.768,424.065c0,9.508-1.316,18.766-1.576,28.208c-0.136,4.939,0.113,9.613-0.776,14.376
		c-2.905-2.77-10.412-2.963-14.109-2.4c-1.477-1.852-0.416-4.325,0.371-6.364c2.247-5.825,3.717-12.057,6.282-17.737
		C87.304,437.168,90.914,422.029,95.768,424.065z"/>
	<path style="fill:#E2AB5A;" d="M146.697,422.105c2.479,1.92,0.973,14.038,0.597,17.057c-0.397,3.189-0.893,6.518-1.774,9.445
		c-2.199-1.863-7.595-2.331-10.137-1.498c2.262-4.451,3.822-9.477,5.447-14.28c1.259-3.717,2.547-9.62,5.551-12.229
		C148.045,421.392,148.501,423.432,146.697,422.105z"/>
	<path style="fill:#E2AB5A;" d="M364.909,420.539c0.308,4.217-0.458,8.737-0.805,12.938c-0.187,2.267-0.521,4.699-0.282,6.964
		c0.083,0.787,1.099,2.299,0.998,2.906c-0.572,3.454-8.382,4.863-10.431,1.806c1.052-3.14,1.915-6.726,3.35-9.924
		C359.724,430.804,363.102,426.604,364.909,420.539z"/>
	<path style="fill:#E2AB5A;" d="M382.538,277.154c0.147,5.261-0.527,10.364-0.391,15.64c0.075,2.941,0.756,7.561-0.471,10.157
		c-5.365-1.649-12.742,6.471-8.768-4.237C374.628,294.076,376.914,280.126,382.538,277.154z"/>
	<path style="fill:#E2AB5A;" d="M343.362,265.009c-0.88,8.026-1.186,16.11-1.627,24.25c-4.439-1.647-10.481,4.014-7.403-4.144
		c1.912-5.068,3.938-9.446,5.024-14.852c0.543-2.703,0.771-6.472,3.244-8.048C343.777,263.288,344.434,264.919,343.362,265.009z"/>
	<path style="fill:#E2AB5A;" d="M406.827,296.741c-0.135,4.179,0.331,8.506,0.383,12.66c0.036,2.926,1.524,5.858-0.462,8.329
		c-3.641,0.081-5.162-1.64-8.469-2.254c0.411-3.661,3.881-7.329,5.249-10.907C404.443,302.173,405.029,298.357,406.827,296.741z"/>
	<path style="fill:#E2AB5A;" d="M423.673,348.062c2.505,8.014,2.066,19.188,0.377,27.456c-0.757,3.702-0.524,3.266-4.711,3.495
		c-3.326,0.181-7.212,0.984-10.414,0.114C411.727,375.578,420.31,345.208,423.673,348.062z"/>
	<path style="fill:#E2AB5A;" d="M417.012,424.847c-0.043,9.792-0.784,19.541-0.784,29.366c0,3.039,0.813,6.442,0.334,9.361
		c-3.759,1.47-10.783-1.588-15.082-1.57c4.317-7.934,6.563-16.616,9.284-25.179c1.185-3.73,2.367-9.293,4.779-12.222
		C415.896,425.243,416.695,425.585,417.012,424.847z"/>
	<path style="fill:#E2AB5A;" d="M465.983,400.166c1.669,3.803,0.874,9.564,0.696,13.719c-0.19,4.44,0.257,8.785,0.087,13.203
		c-0.306,7.904-3.917,6.409-10.587,4.897c-3.03-0.686-4.691-0.088-4.72-3.107c-0.034-3.395,4.341-9.804,5.912-12.94
		C458.602,413.481,462.121,399.159,465.983,400.166z"/>
</g>
<path d="M492.264,462.684c-0.043-5.107,0.418-10.251,0.244-15.346c-0.203-5.949,0.294-13.787-6.808-15.205
	c-0.971-0.194-1.973-0.378-2.991-0.554c-1.021-3.5-1.578-7.148-3.005-10.633c-1.322-3.227-3.105-6.196-4.662-9.261
	c-1.824-3.592-2.335-7.778-4.239-11.403c-0.924-1.761-1.954-5.095-4.074-5.825c-2.184-0.751-3.34,0.598-4.292,2.293
	c-2.083,3.707-3.496,8.06-5.524,11.872c-2.711,5.095-8.347,13.998-8.265,20.549c-1.046,0.006-2.071,0.098-3.064,0.322
	c0.217-1.387,0.8-3.033,0.921-4.108c0.287-2.537,0.148-5.316-0.025-7.858c-0.311-4.552-0.433-8.698-0.247-13.258
	c0.214-5.257-0.267-10.554-0.519-15.801c-0.129-2.661,0.496-6.101-1.283-8.392c-0.993-1.278-2.566-2.103-4.406-2.646
	c-1.102-4.26-3.189-8.296-4.759-12.399c-1.625-4.245-3.036-8.489-4.809-12.679c-1.165-2.751-2.816-10.079-7.296-8.826
	c-1.844,0.516-2.46,2.509-3.066,4.071c-1.189,3.06-2.379,6.044-3.757,9.043c-1.813,3.947-3.924,7.894-5.587,11.897
	c-0.994,2.393-2.291,5.209-2.841,7.921c-0.022,0-0.043-0.002-0.066-0.002c-0.229-2.674,0.344-6.625,0.377-8.213
	c0.079-3.722-0.547-7.099-0.676-10.767c-0.248-7.025,0.483-14.295-0.46-21.303c1.489,0.045,2.979,0.08,4.486,0.114
	c2.257,0.051,5.053,0.532,7.058-0.787c3.757-2.473,1.201-7.244,0.51-10.715c-0.358-1.803-0.952-3.095-1.756-4.077
	c-0.1-5.389-2.105-11.836-3.3-16.688c-0.896-3.633-2.637-6.957-3.513-10.567c-0.376-1.55-0.232-3.051-1.591-4.118
	c-0.763-0.599-1.999-0.86-2.729,0c-1.368,1.612-1.507,2.82-1.971,4.908c-0.641,2.884-1.718,5.216-3.185,7.77
	c-1.617,2.815-2.191,5.954-3.507,8.876c-0.154,0.342-0.331,0.661-0.516,0.971c-0.15-2.412-0.609-4.735-2.032-6.174
	c-0.786-0.794-1.771-1.354-2.859-1.755c-0.502-3.766-2.253-7.711-3.038-11.115c-0.822-3.563-1.915-6.948-2.99-10.434
	c-0.85-2.755-0.946-5.945-2.718-8.247c-0.659-0.857-1.671-1.269-2.686-0.704c-3.475,1.938-4.722,8.414-6.335,11.698
	c-1.629,3.32-2.748,7.44-3.77,10.974c-0.575,1.984-1.195,3.8-1.322,5.718c-1.166-0.173-2.335-0.351-3.514-0.529
	c-2.66-0.401-5.344-0.706-8.007-1.118c-0.284-0.043-1.214-0.034-1.98-0.072c0.029-0.244,0.032-0.583,0.143-0.901
	c0.831-2.391,0.069-6.262-1.809-8.421c-0.55-5.577-3.507-11.302-4.896-16.743c-0.983-3.848-2.245-7.611-3.221-11.457
	c-0.583-2.299-0.692-4.867-2.039-6.864c-0.811-1.201-2.8-1.46-3.551,0c-1.393,2.708-1.121,5.574-1.809,8.508
	c-0.599,2.557-1.629,5.252-2.561,7.713c-1.982,5.231-3.102,10.76-4.78,16.098c-0.742-0.06-1.484-0.114-2.227-0.153
	c-0.816-0.042-8.397,0.14-9.167-0.737c-0.722-0.823-0.107-5.248-0.353-6.498c-0.243-1.235-0.596-2.435-0.936-3.641
	c3.417-0.237,6.704-0.901,9.485-2.5c4.546-2.613,3.744-9.479,0.115-12.825c-1.175-1.084-2.747-1.749-4.514-2.144
	c0.094-0.257,0.173-0.53,0.234-0.822c1.607-7.706-2.985-11.689-8.801-12.752c0.257-0.717,0.314-1.588,0.053-2.691
	c2.353-4.129,1.221-10.266,1.301-14.73c0.096-5.318-0.662-10.425-0.698-15.671c-0.071-10.003-1.872-21.093-4.644-30.691
	c-3.14-10.877-6.415-20.996-11.504-31.086c-3.245-6.435-7.219-13.195-12.617-18.152c1.622-0.786,2.971-1.797,3.706-3.099
	c2.64-4.679,0.496-10.48-3.402-13.502c-3.196-2.476-7.3-2.871-9.326-6.699c-0.53-1.001-0.939-2.06-1.317-3.138
	c-0.108-1.085-0.347-2.206-0.48-3.394c-0.364-3.261-0.852-6.485-1.195-9.747c-0.826-7.839-2.379-15.553-3.204-23.401
	c-0.893-8.49-2.101-16.836-3.519-25.255c-0.616-3.662-0.603-7.527-1.561-11.122c-0.323-1.218-0.783-2.434-1.241-3.642
	c0.29-0.154,0.578-0.311,0.851-0.517c2.305-1.73,3.86-4.614,3.957-7.494c0.094-2.788-0.523-5.545-1.647-8.089
	c-0.944-2.137-2.606-3.395-3.709-5.396c-1.863-3.379-3.775-7.901-8.142-8.415c-3.588-0.422-6.788,3.096-8.845,6.783
	c-3.712,4.265-6.442,9.366-6.247,15.118c0.098,2.879,1.652,5.764,3.957,7.494c0.273,0.205,0.562,0.363,0.851,0.517
	c-0.458,1.208-0.917,2.426-1.241,3.642c-0.957,3.595-0.944,7.46-1.561,11.122c-1.417,8.419-2.626,16.764-3.519,25.255
	c-0.825,7.849-2.379,15.561-3.204,23.401c-0.343,3.261-0.831,6.484-1.195,9.747c-0.133,1.188-0.371,2.309-0.48,3.394
	c-0.377,1.077-0.787,2.137-1.317,3.138c-2.026,3.828-6.13,4.224-9.326,6.699c-3.898,3.022-6.042,8.822-3.402,13.502
	c0.735,1.302,2.084,2.313,3.706,3.099c-5.398,4.957-9.372,11.718-12.617,18.152c-5.089,10.09-8.363,20.208-11.504,31.086
	c-2.771,9.599-4.573,20.689-4.644,30.691c-0.036,5.246-0.794,10.353-0.698,15.671c0.08,4.465-1.052,10.602,1.301,14.73
	c-0.261,1.104-0.204,1.974,0.053,2.691c-5.816,1.061-10.407,5.044-8.801,12.752c0.061,0.293,0.14,0.565,0.234,0.822
	c-1.766,0.395-3.339,1.06-4.514,2.144c-3.629,3.347-4.432,10.213,0.115,12.825c2.781,1.598,6.068,2.262,9.485,2.5
	c-0.34,1.206-0.692,2.406-0.936,3.641c-0.246,1.25,0.368,5.675-0.353,6.498c-0.77,0.878-8.352,0.696-9.167,0.737
	c-0.742,0.039-1.484,0.093-2.227,0.153c-1.678-5.338-2.798-10.866-4.78-16.098c-0.932-2.46-1.962-5.155-2.561-7.713
	c-0.686-2.934-0.416-5.8-1.809-8.508c-0.75-1.46-2.74-1.201-3.551,0c-1.347,1.998-1.456,4.566-2.039,6.864
	c-0.977,3.846-2.239,7.61-3.221,11.457c-1.389,5.442-4.346,11.166-4.896,16.743c-1.878,2.159-2.64,6.03-1.809,8.421
	c0.11,0.319,0.114,0.657,0.143,0.901c-0.765,0.039-1.696,0.028-1.98,0.072c-2.663,0.411-5.348,0.717-8.007,1.118
	c-1.179,0.177-2.348,0.356-3.514,0.529c-0.127-1.918-0.747-3.734-1.322-5.718c-1.024-3.533-2.141-7.653-3.771-10.974
	c-1.611-3.284-2.859-9.76-6.335-11.698c-1.014-0.565-2.026-0.153-2.686,0.704c-1.772,2.301-1.869,5.491-2.718,8.247
	c-1.075,3.487-2.168,6.871-2.99,10.434c-0.784,3.404-2.535,7.349-3.037,11.115c-1.088,0.401-2.073,0.959-2.859,1.755
	c-1.423,1.439-1.882,3.761-2.032,6.174c-0.185-0.31-0.361-0.629-0.515-0.971c-1.317-2.922-1.89-6.061-3.507-8.876
	c-1.467-2.554-2.544-4.886-3.185-7.77c-0.464-2.088-0.604-3.294-1.971-4.908c-0.73-0.86-1.966-0.599-2.729,0
	c-1.36,1.067-1.215,2.568-1.591,4.118c-0.877,3.61-2.619,6.935-3.513,10.567c-1.195,4.85-3.2,11.299-3.3,16.688
	c-0.804,0.983-1.396,2.274-1.756,4.077c-0.69,3.471-3.247,8.242,0.51,10.715c2.005,1.32,4.801,0.838,7.058,0.787
	c1.507-0.034,2.997-0.07,4.486-0.114c-0.943,7.008-0.21,14.28-0.46,21.303c-0.129,3.668-0.756,7.045-0.676,10.767
	c0.033,1.588,0.606,5.539,0.377,8.213c-0.022,0-0.043,0.002-0.066,0.002c-0.55-2.714-1.845-5.529-2.841-7.921
	c-1.663-4.003-3.774-7.951-5.587-11.897c-1.379-2.998-2.568-5.982-3.757-9.043c-0.608-1.562-1.222-3.555-3.066-4.071
	c-4.48-1.253-6.13,6.075-7.296,8.826c-1.774,4.19-3.184,8.433-4.809,12.679c-1.57,4.103-3.657,8.139-4.759,12.399
	c-1.84,0.543-3.413,1.367-4.406,2.646c-1.781,2.291-1.154,5.73-1.283,8.392c-0.254,5.246-0.735,10.544-0.519,15.801
	c0.186,4.56,0.065,8.707-0.247,13.258c-0.174,2.542-0.313,5.321-0.025,7.858c0.121,1.074,0.704,2.721,0.921,4.108
	c-0.993-0.223-2.019-0.316-3.064-0.322c0.082-6.551-5.554-15.454-8.265-20.549c-2.027-3.811-3.441-8.165-5.524-11.872
	c-0.952-1.695-2.108-3.044-4.292-2.293c-2.119,0.73-3.15,4.064-4.074,5.825c-1.904,3.625-2.415,7.811-4.239,11.403
	c-1.557,3.065-3.34,6.034-4.662,9.261c-1.427,3.485-1.985,7.133-3.005,10.633c-1.018,0.176-2.02,0.36-2.991,0.554
	c-7.101,1.417-6.605,9.255-6.808,15.205c-0.174,5.095,0.288,10.239,0.244,15.346c-0.039,4.521-0.847,9.32-0.08,13.777
	c0.228,1.322,1.081,2.128,2.132,2.482c0.571,0.953,2.226,1.201,2.952,0.045c0.04-0.063,0.092-0.128,0.135-0.192
	c0.954-0.397,1.735-1.124,2.049-2.135c2.385-2.011,5.745-3.964,7.485-5.236c3.292-2.403,7.247-5.982,11.307-6.804
	c0.71-0.247,1.435-0.438,2.177-0.576c2.57,0.347,3.284,1.582,2.143,3.703c-0.026,1.584-0.879,3.485-1.242,5.01
	c-0.974,4.088-3.048,7.502-4.168,11.487c-0.813,2.897,2.794,4.787,4.892,2.847c1.891-1.749,3.326-3.816,5.288-5.523
	c1.84-1.601,3.13-3.588,5.546-2.138c2.242,1.346,1.678,2.468,1.052,5.224c-1.187,5.217-4.922,10.817-4.397,16.266
	c0.243,2.514,2.839,3.567,4.78,1.98c2.434-1.99,3.638-4.839,5.878-6.989c1.333-1.279,3.841-3.291,5.706-3.541
	c3.234-0.433,3.049,1.12,3.272,3.634c0.449,5.053-2.751,10.722,0.851,14.975c0.689,0.814,2.251,1.268,3.257,0.86
	c4.841-1.959,6.862-8.956,11.736-10.377c4.498-1.312,7.404,5.731,10.681,7.903c1.672,1.108,4.042,0.306,5.024-1.318
	c1.756-2.899,0.403-13.815,4.588-13.59c1.734,0.093,4.068,2.979,5.599,3.862c1.577,0.909,3.727,2.261,5.539,2.516
	c2.473,0.348,4.262-0.924,4.532-3.452c0.202-1.902-0.286-3.854-0.058-5.721c0.503-4.109,3.726-3.867,7.027-2
	c3.172,1.792,5.902,6.026,10.017,5.586c3.073-0.328,4.188-2.983,4.451-5.746c0.275-2.891-2.152-11.493,3.438-9.48
	c3.962,1.428,5.396,6.473,9.957,7.388c3.14,0.629,5.862-0.862,6.786-3.947c0.651-2.173-0.182-4.21-0.26-6.389
	c-0.082-2.319,0.776-5.853,2.116-7.889c0.527-0.8,1.729-2.239,2.818-2.166c0.829,0.055,1.506,1.511,1.909,2.213
	c1.196,2.081,1.772,4.484,2.478,6.758c0.824,2.659,4.092,3.553,6.124,1.617c3.39-3.23,4.131-16.862,10.956-15.266
	c3.648,0.853,2.497,10.425,6.376,12.834c1.005,0.624,2.04,0.611,2.911,0.219c0.793-0.001,1.617-0.367,2.227-1.223
	c1.49-2.093,6.69-11.939,9.615-10.748c1.097,0.447,0.689,8.726,1.567,10.459c1.156,2.285,4.477,2.005,5.705,0
	c1.387-2.265,2.517-5.822,4.78-7.398c1.671-1.164,3.146-1.771,3.558,0.327c0.159,0.806-0.765,3.34-0.867,4.23
	c-0.316,2.772,3.139,4.124,5.229,3.001c1.762-0.947,2.886-2.514,4.706-3.481c1.838-0.975,3.561-1.066,5.387-1.433
	c1.963-0.301,3.83-1.124,5.418-2.383c3.252-2.58,6.16-1.677,8.994,0.036c-0.086,0.866,0.417,1.701,1.332,1.986
	c2.389,0.747,4.523,0.562,6.84,1.793c1.82,0.967,2.944,2.534,4.706,3.481c2.09,1.124,5.545-0.228,5.229-3.001
	c-0.101-0.89-1.025-3.424-0.867-4.23c0.411-2.097,1.886-1.49,3.558-0.327c2.262,1.576,3.394,5.134,4.78,7.398
	c1.227,2.005,4.547,2.285,5.705,0c0.877-1.732,0.469-10.013,1.565-10.459c2.925-1.191,8.126,8.654,9.615,10.748
	c0.61,0.857,1.433,1.222,2.227,1.223c0.871,0.393,1.906,0.407,2.911-0.219c3.878-2.409,2.728-11.981,6.376-12.834
	c6.825-1.596,7.566,12.035,10.956,15.266c2.031,1.936,5.301,1.041,6.124-1.617c0.662-2.134,1.688-6.055,3.23-7.861
	c0.269-0.315,0.832-1.094,0.673-1.209c0.817-0.025,2.876,1.617,3.301,2.265c1.34,2.036,2.198,5.57,2.116,7.889
	c-0.078,2.179-0.911,4.216-0.26,6.389c0.925,3.084,3.646,4.575,6.786,3.947c4.561-0.913,5.995-5.96,9.957-7.388
	c5.59-2.014,3.163,6.589,3.438,9.48c0.263,2.763,1.377,5.418,4.451,5.746c4.115,0.438,6.846-3.794,10.017-5.586
	c3.301-1.866,6.524-2.108,7.027,2c0.228,1.869-0.26,3.82-0.058,5.721c0.27,2.528,2.059,3.8,4.532,3.452
	c1.812-0.255,3.962-1.607,5.539-2.516c1.531-0.883,3.866-3.768,5.599-3.862c4.185-0.225,2.832,10.69,4.588,13.59
	c0.983,1.623,3.352,2.426,5.024,1.318c3.277-2.171,6.183-9.214,10.681-7.903c4.874,1.421,6.895,8.419,11.736,10.377
	c1.006,0.407,2.568-0.047,3.257-0.86c3.602-4.253,0.401-9.923,0.851-14.975c0.223-2.514,0.038-4.068,3.272-3.634
	c1.864,0.249,4.373,2.262,5.706,3.541c2.24,2.151,3.444,5,5.878,6.989c1.94,1.587,4.538,0.534,4.78-1.98
	c0.527-5.45-3.21-11.049-4.397-16.266c-0.626-2.755-1.191-3.877,1.052-5.224c2.416-1.45,3.706,0.536,5.546,2.138
	c1.96,1.707,3.395,3.774,5.288,5.523c2.098,1.939,5.705,0.049,4.892-2.847c-1.121-3.987-3.194-7.4-4.168-11.487
	c-0.363-1.527-1.216-3.427-1.242-5.01c-1.142-2.123-0.428-3.357,2.143-3.703c0.74,0.138,1.467,0.329,2.177,0.576
	c4.061,0.822,8.015,4.4,11.307,6.804c1.741,1.272,5.101,3.224,7.485,5.236c0.314,1.012,1.094,1.738,2.049,2.135
	c0.043,0.063,0.095,0.128,0.135,0.192c0.726,1.155,2.381,0.909,2.952-0.045c1.051-0.354,1.905-1.16,2.132-2.482
	C493.111,472.004,492.302,467.206,492.264,462.684z M459.591,415.588c1.473-3.56,3.223-6.989,4.802-10.505
	c0.495-1.101,0.907-2.43,1.373-3.723c0.09,0.134,0.163,0.248,0.2,0.322c0.993,2.007,2.093,3.982,2.798,6.136
	c1.134,3.459,2.214,5.908,3.85,9.107c2.074,4.054,3.488,9.848,6.168,14.056c-5.462-0.744-11.215-1.107-16.297-0.625
	c-2.634,0.25-5.486-0.248-8.341-0.673C456.275,425.195,457.682,420.199,459.591,415.588z M419.195,362.164
	c0.219-0.535,4.754-13.339,5.185-13.382c0.395-0.039,5.395,13.783,5.98,15.342c1.569,4.183,3.244,8.674,5.652,12.559
	c-3.878-0.402-8.039-0.15-10.617-0.196c-3.89-0.069-7.823,0.417-11.693,0.336C415.929,372.164,417.264,366.875,419.195,362.164z
	 M407.594,399.11c0.361-4.77,0.717-9.642,0.228-14.431c-0.04-0.385-0.098-0.789-0.167-1.206c2.459-0.315,5.026,0.649,7.505,0.464
	c3.495-0.26,6.696-0.527,10.233-0.475c3.382,0.049,6.477,0.253,9.835,0.618c0.974,0.106,4.497-0.341,5.15,0.709
	c0.797,1.28-0.341,5.392-0.463,7.061c-0.565,7.8-1.848,16.127-1.041,23.916c0.463,4.478-0.625,10.408,1.275,14.817
	c-4.892-0.168-9.999-0.469-14.725,0.494c-0.259-0.649-0.517-1.296-0.772-1.946c-1.477-3.763-3.732-6.867-5.537-10.447
	c-0.543-1.078-1.836-1.375-2.916-1.187c-2.609,0.455-3.268,2.791-3.943,5.028c-0.897,2.972-1.764,5.956-2.634,8.939
	c-0.733-0.264-1.471-0.481-2.214-0.67c0.163-0.38,0.221-0.809,0.15-1.28c0.053-4.861,0.358-9.442-0.008-14.254
	C407.151,410.014,407.199,404.346,407.594,399.11z M401.628,313.808c1.141-2.325,1.477-5.017,2.482-7.41
	c1.147-2.733,2.824-4.84,3.589-7.709c0.08-0.299,0.141-0.635,0.196-0.985c0.12,0.554,0.217,0.97,0.267,1.104
	c1.124,2.99,2.098,5.976,2.646,9.134c0.575,3.315,1.138,6.797,2.2,10.059c-0.764-0.263-1.588-0.505-2.473-0.76
	c-3.217-0.924-6.626-1.42-10.04-1.819C400.938,314.899,401.354,314.367,401.628,313.808z M398.123,322.411
	c2.373,0.326,4.738,0.679,7.121,0.978c2.412,0.302,5.605,0.519,7.142,2.363c0.946,1.133,0.968,2.946,1.313,4.347
	c-0.127-0.032-0.251-0.063-0.403-0.098c-4.391-1.017-9.521-0.153-13.912,0.217c-0.803,0.068-1.415,0.377-1.857,0.81
	c-0.342,0.019-0.681,0.034-1.008,0.042c-6.29,0.156-12.872,0.054-19.149,0.557c-5.844,0.468-11.605,0.165-17.481-0.16
	c-2.977-0.165-6.003,0.155-8.986,0.112c-2.227-0.033-4.163-0.389-6.281,0.085c0.075-2.647-0.046-5.293-0.521-7.897
	c5.322-0.015,10.667-0.032,15.951,0.457c5.527,0.511,11.183-0.368,16.721-0.744C382.962,323.061,391.541,324.42,398.123,322.411z
	 M401.797,415.259c0.279,4.888-0.113,9.61-0.005,14.551c0,0.036,0.011,0.065,0.013,0.1c-2.736-0.205-5.523-0.16-8.356-0.13
	c-3.789,0.04-7.157,0.447-10.947,0.006c-3.126-0.363-6.294-0.579-9.314,0.276c-0.537-1.272-1.072-2.543-1.614-3.813
	c-0.973-2.284-2.298-5.995-3.71-7.988c-0.845-1.193-1.852-2.207-3.461-2.076c-1.696,0.139-2.582,1.471-3.234,2.891
	c-1.396,3.039-2.885,6.117-4.287,9.179c-0.574,1.25-1.038,2.562-1.477,3.885c-2.267-0.645-4.602-1.05-6.975-1.296
	c0.854-1.276,1.501-2.635,1.886-4.374c0.321-1.451,0.444-2.844,0.863-4.217c0.276-0.911,0.77-1.182,0.837-2.165
	c0.261-3.84-4.215-4.472-8.027-4.537c0.666-9.575-0.471-19.121-0.554-28.692c-0.062-7.261,0.425-15.289-0.986-22.616
	c1.353-0.031,2.702-0.079,4.042-0.169c3.538-0.237,5.536-1.903,5.784-5.534c0.233-3.405-0.644-8.989-3.869-10.904
	c-1.699-1.01-3.695-0.816-5.572-0.807c1.409-2.405,1.059-6.222,1.326-8.782c0.089-0.852,0.168-1.709,0.24-2.568
	c5.446,2.131,11.233,0.893,16.931,1.468c5.403,0.545,10.988,0.542,16.409,0.027c7.169-0.681,14.447-0.369,21.643-0.96
	c0.538-0.043,1.112-0.074,1.705-0.101c-1.268,7.88-1,17.005-0.455,24.612c0.33,4.605,0.681,9.083,0.529,13.74
	c-0.088,2.698-0.441,5.25,1.017,7.604c0.261,5.386,0.655,10.7-0.021,16.12C401.46,403.57,401.478,409.645,401.797,415.259z
	 M374.866,444.895c-3.407-1.167-8.259-0.155-11.728-0.617c-1.661-0.221-4.055-0.549-6.419-0.515
	c1.054-3.562,2.534-7.174,3.688-10.635c0.86-2.58,1.986-4.754,3.17-7.177c0.402-0.824,0.712-2.127,1.12-3.32
	c0.474,1.105,0.968,2.345,1.082,2.572c1.219,2.443,2.158,4.923,3.192,7.442C370.693,436.84,372.819,440.858,374.866,444.895z
	 M155.117,428.256c-1.402-3.062-2.891-6.14-4.287-9.179c-0.652-1.42-1.538-2.753-3.234-2.891c-1.609-0.132-2.616,0.883-3.461,2.076
	c-1.413,1.993-2.737,5.706-3.71,7.988c-0.542,1.27-1.077,2.542-1.614,3.813c-3.02-0.856-6.189-0.639-9.314-0.276
	c-3.788,0.441-7.156,0.034-10.945-0.006c-2.834-0.031-5.62-0.075-8.356,0.13c0.001-0.036,0.012-0.063,0.013-0.1
	c0.108-4.94-0.283-9.663-0.005-14.551c0.32-5.613,0.337-11.689-0.358-17.271c-0.676-5.42-0.282-10.734-0.021-16.12
	c1.457-2.354,1.105-4.904,1.017-7.604c-0.152-4.658,0.199-9.137,0.529-13.74c0.545-7.606,0.813-16.731-0.455-24.612
	c0.594,0.027,1.168,0.058,1.705,0.101c7.195,0.591,14.474,0.28,21.642,0.96c5.422,0.515,11.007,0.518,16.409-0.027
	c5.698-0.575,11.485,0.663,16.931-1.468c0.072,0.859,0.15,1.716,0.24,2.568c0.267,2.56-0.083,6.377,1.326,8.782
	c-1.877-0.008-3.873-0.202-5.572,0.807c-3.225,1.917-4.102,7.5-3.869,10.904c0.248,3.632,2.246,5.297,5.784,5.534
	c1.34,0.091,2.689,0.138,4.042,0.169c-1.412,7.328-0.924,15.355-0.986,22.616c-0.081,9.573-1.22,19.118-0.554,28.692
	c-3.813,0.065-8.287,0.696-8.027,4.537c0.067,0.983,0.561,1.255,0.837,2.165c0.417,1.373,0.541,2.765,0.863,4.217
	c0.385,1.739,1.032,3.098,1.886,4.374c-2.373,0.247-4.708,0.65-6.975,1.296C156.154,430.818,155.689,429.506,155.117,428.256z
	 M155.28,443.764c-2.365-0.034-4.759,0.294-6.419,0.515c-3.469,0.462-8.321-0.55-11.728,0.617c2.046-4.036,4.172-8.055,5.896-12.251
	c1.034-2.519,1.973-4.997,3.192-7.442c0.114-0.228,0.609-1.467,1.081-2.572c0.408,1.192,0.718,2.496,1.12,3.32
	c1.184,2.423,2.309,4.599,3.17,7.177C152.746,436.59,154.226,440.201,155.28,443.764z M337.957,372.788
	c-0.031,4.688-0.116,9.381-0.154,14.072c-0.075,9.493,0.025,19.194,0.623,28.671c-9.171-0.249-18.468-1.18-27.623-0.579
	c-1.805,0.119-3.774,0.729-5.581,0.615c-1.247-0.079-2.47-0.546-3.723-0.703c-0.329-4.2-0.629-8.423-1.045-12.61
	c-1.095-11.012-0.695-22.081-2.529-33.04c-0.268-1.604-0.483-3.06-0.747-4.424c2.988,0.468,6.556-0.281,9.474-0.115
	c6.63,0.375,13.166-0.637,19.768-0.597c3.784,0.022,7.63,0.159,11.464,0.193C337.68,367.079,337.976,369.886,337.957,372.788z
	 M304.995,420.829c2.754,0.168,5.467-0.609,8.234-0.596c7.083,0.032,14.119,0.508,21.183,0.618c1.863,0.029,3.727-0.034,5.588,0.012
	c1.562,0.039,4.002,0.636,5.648,0.531c-0.798,1.635-0.415,4.907-0.896,6.666c-0.29,1.06-0.566,1.785-0.713,2.494
	c-5.753-0.206-11.614,0.183-17.171,0.019c-5.145-0.153-10.28-1.022-15.41-1.345c-3.122-0.196-6.203-0.785-9.165-0.341
	c0.013-0.603-0.026-1.24-0.101-1.958c-0.239-2.26-0.174-4.421-0.281-6.643C302.928,420.492,303.941,420.764,304.995,420.829z
	 M334.613,358.333c-4.642-0.002-9.492-0.424-14.107-0.039c-4.585,0.382-9.227,0.959-13.854,0.608
	c-3.808-0.289-7.718-0.755-11.454,0.145c-0.669-1.153-1.541-2.281-2.736-3.426c-1.631-1.564-3.106-3.263-4.524-5.015
	c10.015,1.369,20.578,0.487,30.63,0.543c5.409,0.031,10.89-0.112,16.291,0.236c3.186,0.204,14.26-0.453,12.033,5.654
	C345.894,359.775,337.475,358.336,334.613,358.333z M338.3,336.388c-0.275,2.879-1.524,7.196-0.489,10.197
	c-1.755-0.136-3.508-0.287-5.277-0.334c-8.14-0.213-16.307-0.061-24.447,0.076c-7.451,0.126-15.14-0.159-22.5,1.152
	c-0.031,0.006-0.052,0.025-0.081,0.033c-1.441-1.859-2.882-3.726-4.432-5.506c-4.773-5.48-9.234-11.199-14.262-16.413
	c-0.152-0.457-0.348-0.899-0.563-1.333c3.092,0.203,6.653,0.315,9.508-0.657c1.59,0.125,3.192,0.176,4.792,0.21
	c6.906,0.148,13.805,0.21,20.713,0.183c12.749-0.052,25.497-0.237,38.246-0.225C338.811,327.899,338.697,332.242,338.3,336.388z
	 M277.766,345.936c2.965,3.804,5.324,8.232,8.702,11.651c2.559,2.59,4.322,4.356,5.189,8.121c0.534,2.318,0.817,4.879,1.118,7.239
	c1.365,10.715,1.705,21.756,2.064,32.54c0.134,4.041,0.463,8.046,0.83,12.058c-0.15,0.477-0.086,0.939,0.123,1.345
	c0.029,0.316,0.058,0.632,0.087,0.95c0.34,3.61-0.277,7.5,1.046,10.942c-2.301,0.047-4.595,0.173-6.895,0.228
	c0.266-2.247-0.065-4.736,0.052-6.928c0-0.014,0-0.028,0-0.043c0.321-8.007-0.213-15.936-0.77-23.887
	c-0.488-6.955-0.474-14.339-3.534-20.753c-3.44-7.21-9.126-13.935-13.691-20.475c-1.596-2.287-3.339-4.715-5.202-7.076
	c-0.425-2.85-3.569-5.772-5.187-7.796c-1.865-2.333-5.051-6.32-8.538-4.944c-2.569,1.013-4.542,5.147-5.974,7.361
	c-1.396,2.159-2.409,4.378-3.471,6.707c-0.283,0.622-0.651,1.229-1.011,1.842c-0.97,1.322-1.905,2.637-2.79,3.907
	c-4.565,6.539-10.251,13.264-13.691,20.475c-3.06,6.415-3.046,13.798-3.534,20.753c-0.557,7.951-1.091,15.88-0.77,23.887
	c0,0.014,0,0.028,0,0.043c0.115,2.192-0.215,4.681,0.051,6.928c-2.3-0.055-4.595-0.181-6.895-0.228
	c1.322-3.442,0.706-7.331,1.046-10.942c0.029-0.317,0.058-0.632,0.087-0.95c0.209-0.405,0.274-0.867,0.123-1.345
	c0.368-4.014,0.696-8.019,0.83-12.058c0.358-10.783,0.699-21.824,2.064-32.54c0.3-2.36,0.584-4.922,1.118-7.239
	c0.866-3.766,2.629-5.531,5.189-8.121c3.378-3.419,5.737-7.846,8.702-11.651c4.176-5.359,8.419-10.695,12.659-16.041
	c0.857-0.944,1.649-1.829,2.361-2.474c1.863-1.685,3.948-3.618,6.301-4.058c0.992,0.105,1.984,0.206,2.975,0.31
	c0.284,0.116,0.571,0.251,0.864,0.424c1.716,1.015,2.509,2.772,3.984,3.607C268.19,333.787,273.02,339.846,277.766,345.936z
	 M284.556,428.934c-0.06,0.268-0.141,0.527-0.249,0.773c-0.876,2.005-4.181,0.986-5.952,0.92c0.926-4.271,0.742-8.855,0.11-13.116
	c-0.999-6.746-1.597-13.598-2.435-20.359c-0.623-5.034-2.378-8.628-5.888-12.445c-1.642-1.786-3.254-3.639-4.89-5.466
	c-0.189-0.284-0.394-0.572-0.632-0.871c-1.837-2.313-3.437-4.913-5.551-6.985c-2.596-2.543-7.224,2.802-8.897,4.431
	c-2.899,2.823-5.631,5.97-8.319,8.892c-3.509,3.817-5.264,7.411-5.888,12.445c-0.837,6.761-1.436,13.613-2.435,20.359
	c-0.612,4.135-0.794,8.569,0.04,12.729c-0.499,0.13-0.988,0.288-1.468,0.465c-1.223,0.061-2.486,0.214-3.704,0.153
	c-0.532-2.963-0.617-5.489-0.562-8.53c0.058-3.221-0.029-6.444-0.132-9.663c-0.107-3.368,0.614-6.562,0.621-9.917
	c0.015-7.416-0.295-16.604,3.337-23.268c3.465-6.358,7.847-12.412,11.699-18.542c1.75-2.784,3.763-5.386,5.672-8.06
	c1.793-2.51,2.895-5.511,5.219-7.594c0.564-0.505,1.36-0.984,2.036-0.641c0.235,0.12,0.414,0.323,0.588,0.523
	c2.018,2.326,4.064,4.577,5.754,7.154c1.141,1.742,2.373,3.353,3.763,4.863c2.775,3.015,4.5,7.266,6.757,10.685
	c2.507,3.799,5.008,7.611,7.187,11.611c3.632,6.664,3.321,15.852,3.337,23.268c0.007,3.355,0.728,6.549,0.621,9.917
	c-0.102,3.206-0.188,6.416-0.133,9.624C284.196,424.261,285.013,426.878,284.556,428.934z M273.501,422.559
	c0.041,1.907-0.971,5.375-1.012,8.095c-0.224,0.008-0.447,0.002-0.67,0.002c-1.615-0.337-3.253-0.585-4.995-0.606
	c-4.763-0.056-9.563,0.113-14.329,0.174c-3.983,0.051-8.618-0.685-13.047-0.658c-0.226-2.503-0.986-5.346-0.951-7.007
	c0.063-2.939,0.7-5.805,1.01-8.721c0.429-4.044,0.189-8.053,0.871-12.074c0.44-2.59,0.341-5.25,0.971-7.766
	c0.919-3.673,3.455-6.13,6.044-8.754c1.181-1.196,2.321-2.543,3.337-3.987c1.839-1.81,3.843-3.381,6.006-4.795
	c1.587,2.282,2.818,5.081,5.176,6.654c2.124,1.417,3.565,3.431,5.25,5.295c1.594,1.763,2.877,3.143,3.488,5.585
	c0.63,2.516,0.531,5.176,0.971,7.766c0.682,4.022,0.442,8.031,0.871,12.074C272.8,416.754,273.437,419.62,273.501,422.559z
	 M237.965,333.702c-2.336,2.784-4.714,5.632-7.042,8.306c-1.55,1.781-2.991,3.647-4.432,5.506c-0.029-0.007-0.051-0.027-0.081-0.033
	c-7.36-1.31-15.048-1.026-22.5-1.152c-8.14-0.138-16.306-0.289-24.447-0.076c-1.769,0.046-3.523,0.197-5.277,0.334
	c1.035-3.002-0.214-7.319-0.489-10.197c-0.397-4.146-0.51-8.489-1.207-12.616c12.748-0.012,25.497,0.174,38.246,0.224
	c6.908,0.028,13.807-0.035,20.713-0.183c2.539-0.054,5.081-0.153,7.571-0.53c0.775-0.011,1.517,0.001,2.202,0.061
	c1.515,0.132,3.016,0.383,4.515,0.544c-2.572,2.822-4.572,6.003-6.995,8.885C238.484,333.083,238.225,333.391,237.965,333.702z
	 M177.138,351.384c5.4-0.347,10.882-0.205,16.291-0.236c10.051-0.056,20.616,0.826,30.63-0.543
	c-1.417,1.752-2.891,3.452-4.524,5.015c-1.195,1.146-2.067,2.273-2.736,3.426c-3.736-0.899-7.646-0.434-11.454-0.145
	c-4.627,0.351-9.269-0.226-13.854-0.608c-4.615-0.385-9.465,0.035-14.107,0.039c-2.862,0.001-11.28,1.442-12.278-1.295
	C162.878,350.932,173.952,351.588,177.138,351.384z M206.775,415.565c-1.806,0.114-3.775-0.496-5.581-0.615
	c-9.154-0.599-18.452,0.33-27.623,0.579c0.598-9.477,0.699-19.177,0.623-28.671c-0.038-4.691-0.123-9.382-0.154-14.072
	c-0.019-2.902,0.277-5.71,0.073-8.517c3.834-0.034,7.68-0.17,11.464-0.193c6.603-0.04,13.139,0.972,19.768,0.597
	c2.918-0.165,6.486,0.584,9.474,0.115c-0.264,1.362-0.48,2.818-0.747,4.424c-1.836,10.958-1.435,22.028-2.529,33.04
	c-0.416,4.185-0.715,8.408-1.045,12.61C209.244,415.018,208.022,415.486,206.775,415.565z M210.085,420.286
	c-0.107,2.221-0.042,4.384-0.281,6.643c-0.076,0.718-0.115,1.355-0.101,1.958c-2.962-0.444-6.043,0.145-9.165,0.341
	c-5.13,0.322-10.265,1.193-15.41,1.345c-5.557,0.165-11.418-0.224-17.171-0.019c-0.147-0.709-0.424-1.434-0.713-2.494
	c-0.482-1.759-0.098-5.031-0.896-6.666c1.647,0.105,4.086-0.492,5.648-0.531c1.862-0.046,3.727,0.018,5.588-0.012
	c7.066-0.11,14.1-0.585,21.183-0.618c2.768-0.013,5.48,0.764,8.234,0.596C208.056,420.764,209.07,420.492,210.085,420.286z
	 M167.482,436.219c5.881,0.052,11.763,0.113,17.646,0.17c4.658,0.046,9.329-0.562,13.967-0.978c1.258-0.113,2.573-0.148,3.903-0.186
	c7.713,1.198,15.53,1.349,23.307,1.678c5.482,0.232,10.793-0.665,16.16-1.216c4.438-0.456,8.909-0.143,13.345,0.149
	c2.07,0.136,4.216,0.448,6.29,0.355c1.516-0.068,3.187-0.791,4.734-0.362c1.725,0.478,3.488,0.757,5.301,0.689
	c4.567-0.172,9.061,0.576,13.559,0.385c7.777-0.328,15.594-0.481,23.307-1.678c1.33,0.038,2.646,0.073,3.903,0.186
	c4.637,0.416,9.308,1.024,13.967,0.978c5.881-0.058,11.763-0.119,17.646-0.17c3.279-0.029,6.384,0.477,9.523,0.027
	c-0.073,0.207-0.139,0.417-0.213,0.622c-0.978,2.677-2.882,5.393-2.943,8.281c-0.261,0.173-0.499,0.369-0.722,0.582
	c-4.742-1.216-10.124-0.686-14.985-0.816c-7.736-0.205-15.464-0.02-23.206-0.052c-8.524-0.034-17.044,0.209-25.567,0.205
	c-4.126-0.002-8.282-0.39-12.423-0.433c-3.378-0.562-6.884-0.217-10.355-0.166c-5.325,0.079-10.571,0.068-15.857-0.474
	c-3.301-0.338-7.622-0.353-10.847,0.404c-0.154,0.036-0.452,0.136-0.807,0.268c-3.509,0.113-7.027,0.397-10.521,0.4
	c-8.522,0.006-17.043-0.239-25.567-0.204c-7.742,0.032-15.47-0.153-23.206,0.052c-4.86,0.128-10.241-0.401-14.985,0.816
	c-0.222-0.213-0.462-0.409-0.722-0.582c-0.061-2.888-1.965-5.604-2.943-8.281c-0.074-0.204-0.141-0.416-0.213-0.622
	C161.098,436.698,164.203,436.191,167.482,436.219z M376.511,292.5c1.067-3.306,2.466-6.267,3.686-9.5
	c0.416-1.105,0.618-2.929,1.175-4.358c0.718,2.154,1.088,4.944,1.651,6.646c0.934,2.828,1.739,5.65,2.448,8.54
	c0.79,3.22,1.931,6.256,3.046,9.309c-1.967-0.207-3.976-0.162-5.66-0.14c-3.172,0.041-6.258-0.219-9.339-0.599
	C375.263,299.59,375.548,295.48,376.511,292.5z M340.069,273.834c0.806-2.12,1.538-4.45,2.134-6.657
	c0.162-0.598,0.274-1.272,0.369-1.973c0.109,0.517,0.221,1.013,0.349,1.444c1.032,3.474,2.038,6.94,2.997,10.437
	c1.175,4.287,2.817,7.964,4.582,11.813c-3.783-0.838-8.158-0.183-11.85-0.311c-0.853-0.029-1.705-0.083-2.559-0.147
	C337.512,283.617,338.271,278.556,340.069,273.834z M254.258,5.12c0.233-0.118,0.47-0.224,0.717-0.311
	c1.294-0.452,2.087-0.071,3.013,0.631c3.508,4.515,8.817,10.781,6.958,15.768c-1.549,4.157-6.911,5.64-10.933,5.055
	c-2.856-0.416-5.922-2.268-6.961-5.055C245.148,16.103,250.759,9.657,254.258,5.12z M246.928,70.884
	c0.857-7.833,2.222-15.598,3.399-23.387c0.588-3.891,1.133-7.791,1.542-11.706c0.096-0.92,0.187-1.84,0.266-2.762
	c0.095-1.115-0.115-1.763,0.814-2.213c1.892-0.916,4.766-0.197,6.719,0.115c1.026,6.606,1.493,13.334,2.527,19.961
	c1.038,6.652,2.144,13.297,2.877,19.992c0.686,6.271,1.5,12.499,2.213,18.734c-0.991-0.004-1.978,0.011-2.914-0.039
	c-1.508-0.08-3.028-0.212-4.537-0.106c-1.22,0.085-2.259,0.543-3.461,0.558c-2.904,0.038-5.893-0.604-8.745-0.451
	c-0.934,0.049-1.922,0.035-2.914,0.039C245.427,83.385,246.241,77.156,246.928,70.884z M244.156,94.71
	c0.019-0.181,0.041-0.362,0.06-0.543c0.933,0.208,1.89,0.357,2.959,0.377c0.837,0.016,1.714,0.067,2.601,0.101
	c1.454,0.273,2.971,0.304,4.459,0.335c1.982,0.042,3.84,0.089,5.666-0.336c1.652,0.082,3.355-0.071,4.921-0.101
	c1.07-0.02,2.027-0.169,2.959-0.377c0.019,0.181,0.041,0.362,0.06,0.543c0.235,2.3,0.204,5.04,0.464,7.713
	c-1.242,0.011-2.543,0.11-4.047,0.126c-2.512,0.026-5.694-0.145-8.26,0.61c-2.567-0.756-5.748-0.585-8.26-0.61
	c-1.503-0.015-2.804-0.115-4.046-0.126C243.952,99.749,243.922,97.01,244.156,94.71z M240.159,113.242
	c0.474-1.019,0.933-2.208,1.285-3.461c0.639-0.914,1.099-1.95,1.441-3.055c0.396,0.026,0.794,0.065,1.198,0.146
	c1.878,0.376,3.549,0.503,5.439,0.671c2.154,0.192,4.647,0.95,6.478,0.195c1.831,0.755,4.323-0.004,6.478-0.195
	c1.889-0.168,3.561-0.295,5.439-0.671c0.403-0.081,0.8-0.12,1.196-0.146c0.343,1.104,0.802,2.14,1.441,3.055
	c0.351,1.253,0.811,2.442,1.285,3.461c0.315,0.677,0.657,1.329,1.022,1.964c-3.115-0.061-6.251,0.168-9.393,0.403
	c-2.854-0.425-5.67-0.368-8.744-0.08c-3.064,0.287-6.241-0.187-9.394-0.145c-2.071-0.13-4.138-0.22-6.194-0.179
	C239.502,114.571,239.844,113.919,240.159,113.242z M228.403,123.313c0.669-1.359,2.313-2.152,4.03-2.864
	c0.572-0.016,1.172-0.042,1.823-0.056c3.56-0.075,7.281,0.136,10.843,0.268c1.906,0.071,3.984,0.543,5.815,0.499
	c0.977,0.089,1.936,0.138,2.848,0.15c1.737,0.023,3.385-0.492,5.117-0.581c1.285,0.564,2.874,0.483,4.52,0.293
	c1.171,0.047,2.304-0.026,3.546-0.364c3.548-0.132,7.252-0.341,10.796-0.267c0.651,0.014,1.251,0.041,1.823,0.056
	c1.717,0.711,3.361,1.506,4.03,2.864c2.515,5.114-3.93,5.426-7.239,5.527c-3.789,0.115-7.897,0.054-11.667-0.3
	c-5.801-0.544-11.54-0.548-17.38,0c-3.77,0.354-7.878,0.415-11.667,0.3C232.334,128.739,225.888,128.425,228.403,123.313z
	 M203.669,231.975c-0.015-5.424,0.048-10.553,0.463-15.932c0.753-9.768,1.119-19.42,2.901-29.124
	c1.812-9.867,4.882-20.713,9.053-29.769c2.144-4.652,4.05-9.265,6.901-13.563c1.903-2.869,3.703-6.398,5.958-9.239
	c2.433,0.625,4.917,0.932,6.698,1.047c6.932,0.45,14.058-0.458,21.068-0.274c6.564,0.173,13.033,0.703,19.645,0.274
	c1.781-0.115,4.264-0.422,6.698-1.047c2.255,2.841,4.055,6.37,5.958,9.239c2.851,4.298,4.758,8.91,6.901,13.563
	c4.171,9.054,7.242,19.902,9.053,29.769c1.782,9.703,2.147,19.356,2.901,29.124c0.415,5.379,0.478,10.508,0.463,15.932
	c-0.009,3.63-0.776,7.603,0.441,10.933c-3.605-0.014-7.06,0.377-10.632,0.397c-5.135,0.029-9.977-0.385-14.843,0.051
	c1.262-6.772,0.919-14.414-0.039-21.056c-1.151-7.987-1.764-16.073-3.527-23.988c-1.775-7.968-3.902-15.457-7.704-22.716
	c-1.4-2.673-2.897-6.524-5.336-8.937c-1.584-5.325-9.979-5.712-14.424-4.547c-3.3,0.865-9.186,4.431-9.774,8.471
	c-0.96,1.739-1.755,3.553-2.52,5.014c-3.801,7.259-5.929,14.749-7.704,22.716c-1.763,7.914-2.375,16.002-3.527,23.988
	c-0.957,6.637-1.3,14.27-0.041,21.038c-0.094,0-0.187,0-0.28,0c-4.77-0.396-9.525-0.002-14.561-0.032
	c-3.572-0.02-7.028-0.411-10.632-0.397C204.445,239.578,203.678,235.605,203.669,231.975z M280.494,243.712
	c-0.512,0.085-1.025,0.187-1.538,0.296c-2.365-0.076-4.662-0.699-7.018-0.842c-6.22-0.375-12.902-0.268-19.097,0.226
	c-6.188,0.492-12.15-0.324-18.337-0.065c-0.953,0.04-1.943,0.041-2.952,0.033c1-6.066,0.175-12.312,0.933-18.414
	c0.762-6.142,1.924-12.176,2.753-18.293c0.893-6.593,2.284-13.555,4.512-19.849c1.424-4.022,3.52-7.676,5.473-11.443
	c1.623-3.129,2.555-5.63,5.895-7.223c1.095-0.523,2.232-1.005,3.435-1.159c2.838-0.362,5.82,1.185,8.232,2.485
	c2.146,1.156,2.919,3.835,3.99,5.898c1.953,3.767,4.049,7.421,5.473,11.443c2.228,6.295,3.62,13.256,4.512,19.849
	c0.829,6.117,1.99,12.151,2.753,18.293C280.285,231.166,279.402,237.537,280.494,243.712z M198.636,250.382
	c1.436-0.451,2.851-0.933,4.267-1.417c2.305,0.242,4.789,0.237,6.604,0.539c4.289,0.713,8.54,0.31,12.862-0.008
	s8.896,0.321,13.087-0.908c5.702,0.026,11.229,1.201,16.961,0.557c6.19-0.696,13.28-0.811,19.52-0.304
	c2.466,0.2,5.181,0.65,7.698,0.358c3.292,0.366,6.713,0.058,9.992,0.299c4.323,0.318,8.573,0.723,12.862,0.008
	c1.815-0.302,4.3-0.297,6.604-0.539c1.416,0.485,2.831,0.966,4.267,1.417c2.545,0.799,4.113,2.178,4,4.897
	c-0.114,2.689-0.571,1.278-3.14,1.54c-5.626,0.576-11.42,0.527-17.076,1.2c-2.714,0.119-5.446,0.336-8.132,0.418
	c-5.739,0.175-11.561-0.769-17.261-0.025c-1.904-0.005-3.824,0.072-5.74,0.066c-6.037-0.021-11.848-0.256-17.88-0.005
	c-2.268,0.094-4.635,0.102-7.012,0.068c-2.939-0.478-5.915-0.469-8.898-0.355c-0.389-0.025-0.791-0.043-1.174-0.069
	c-4.299-0.302-8.831-0.633-13.146,0.069c-1.017-0.06-2.033-0.122-3.048-0.167c-5.657-0.673-11.451-0.625-17.076-1.2
	c-2.569-0.263-3.026,1.149-3.14-1.54C194.522,252.56,196.092,251.181,198.636,250.382z M188.658,269.602
	c-1.616-0.776-1.471,0.71-1.292-1.355c0.102-1.175,0.676-1.818,1.689-2.38c1.774-0.984,5.405-1.048,7.309-1.345
	c1.125-0.175,2.205-0.41,3.278-0.666c6.088,0.495,12.734,0.264,18.829-0.966c1.808,0.16,3.614,0.318,5.412,0.471
	c2.528,0.214,5.168,0.106,7.797-0.04c2.349,0.155,4.742-0.085,7.088-0.013c3.126,0.095,6.238,0.757,9.362,0.686
	c5.668-0.128,11.161,0.046,16.832,0.133c4.782,0.074,9.858,0.556,14.46-0.856c2.923,0.169,5.875,0.328,8.691,0.089
	c1.798-0.152,3.605-0.311,5.412-0.471c6.095,1.231,12.741,1.46,18.829,0.966c1.072,0.257,2.153,0.491,3.278,0.666
	c1.905,0.296,5.536,0.361,7.309,1.345c1.013,0.562,1.587,1.205,1.689,2.38c0.18,2.065,0.324,0.579-1.292,1.355
	c-2.38,1.142-5.88,0.938-8.478,0.971c-5.533,0.068-11.079-0.079-16.616-0.066c-2.523,0.006-5.093-0.108-7.616,0.062
	c-4.581-0.63-9.34-0.51-13.854-0.954c-7.964-0.785-16.328-0.105-24.335-0.072c-7.26,0.031-14.467,1.065-21.658,0.252
	c-3.733-0.422-7.53,0.109-11.271,0.083c-3.553-0.025-5.894-0.388-9.294,0.642c-4.36,0.031-8.725,0.107-13.082,0.054
	C194.538,270.539,191.038,270.744,188.658,269.602z M313.155,287.144c0.012,0.222,0.026,0.441,0.045,0.655
	c-3.203-0.192-6.414-0.289-9.644-0.625c-5.804-0.603-11.392,0.737-17.126,0.577c-6.26-0.175-12.255,0.378-18.446,0.671
	c-2.997,0.142-5.903-0.75-8.878-0.952c-3.14-0.213-6.283,0.102-9.422,0.176c-11.848,0.28-23.855,1.359-35.703,0.813
	c-5.053-0.233-10.17-0.101-15.259,0.047c0.059-0.436,0.098-0.891,0.122-1.363c0.175-3.462,0.382-6.873-0.537-10.039
	c3.271-0.062,6.502-0.302,9.375-0.308c4.679-0.011,14.018,1.712,18.832-1.106c9.4,0.448,18.969-0.315,28.229-0.281
	c8.168,0.029,16.36-0.334,24.452,0.625c2.495,0.296,5.142,0.261,7.706,0.334c5.058,1.851,13.164,0.42,17.415,0.429
	c2.872,0.006,6.103,0.247,9.375,0.308C312.773,280.271,312.98,283.682,313.155,287.144z M193.451,294.1
	c0.134-0.018,0.257-0.045,0.385-0.067c6.944,0.283,13.995-0.106,20.862,0.445c5.546,0.445,11.399-0.28,17.046-0.209
	c6.03,0.076,11.922-0.469,17.938-0.606c2.827-0.065,5.658-0.351,8.487-0.203c2.999,0.158,5.885,0.973,8.899,0.986
	c6.151,0.025,12.239-0.853,18.468-0.693c6.577,0.169,12.848-0.885,19.45-0.116c3.768,0.438,7.621,0.33,11.418-0.136
	c0.604,0.283,1.309,0.489,2.141,0.602c6.15,0.829,12.788,0.819,19.002,1.045c3.04,0.11,6.131-0.279,9.153,0.065
	c0.28,0.032,1.581,0.145,2.442,0.311c-0.21,0.405-0.15,1.447-0.214,1.771c-0.341,1.737-0.543,3.744-0.188,5.518
	c-7.221-0.197-14.502-0.544-21.698,0.043c-7.248,0.592-14.531-0.246-21.747,0.57c-7.499,0.847-16.003-1.013-23.273,1.167
	c-11.97-0.011-23.99,0.074-35.967,0.043c-5.685-0.014-11.66,0.023-17.415-0.398c-2.539-0.586-5.204-0.753-7.91-0.758
	c-3.601-0.301-7.293-0.4-10.835,0.158c-1.079-0.031-2.146-0.093-3.192-0.212c-7.216-0.816-14.499,0.022-21.747-0.57
	c-7.196-0.588-14.477-0.241-21.698-0.043c0.356-1.773,0.153-3.781-0.188-5.518c-0.063-0.324-0.004-1.365-0.214-1.771
	c0.861-0.167,2.161-0.28,2.442-0.311c3.022-0.343,6.113,0.046,9.153-0.065C180.663,294.92,187.301,294.93,193.451,294.1z
	 M166.08,277.085c0.958-3.496,1.965-6.962,2.997-10.437c0.128-0.431,0.24-0.927,0.349-1.444c0.095,0.702,0.208,1.375,0.369,1.973
	c0.597,2.207,1.328,4.537,2.135,6.657c1.798,4.722,2.557,9.783,3.977,14.604c-0.853,0.063-1.707,0.118-2.559,0.147
	c-3.694,0.128-8.067-0.527-11.85,0.311C163.261,285.048,164.904,281.372,166.08,277.085z M126.526,293.829
	c0.709-2.89,1.515-5.711,2.449-8.54c0.563-1.702,0.932-4.492,1.651-6.646c0.558,1.429,0.759,3.253,1.175,4.358
	c1.221,3.233,2.62,6.194,3.686,9.5c0.963,2.98,1.249,7.09,2.991,9.898c-3.08,0.381-6.167,0.639-9.339,0.599
	c-1.684-0.021-3.693-0.066-5.66,0.14C124.595,300.085,125.736,297.049,126.526,293.829z M122.412,310.855
	c0.159-0.101,0.559-0.39,1.201-0.393c1.534-0.006,3.069-0.315,4.625-0.304c5.754,0.039,11.343-0.572,17.043-1.356
	c2.46-0.337,4.909-0.528,7.356-0.899c1.664-0.004,3.226-0.067,4.434-0.058c8.555,0.065,17.236-0.374,25.773,0.222
	c8.427,0.588,16.877,0.31,25.264,1.176c4.743,0.49,10.743,0.903,16.126,0.357c0.579,0.055,1.154,0.116,1.718,0.188
	c7.679,0.988,15.889,1.02,23.623,1.038c9.067,0.02,18.135,0.066,27.202,0.046c4.573-0.011,10.071,0.525,14.585-1.042
	c4.349,0.13,8.823-0.204,12.531-0.588c8.387-0.866,16.837-0.588,25.264-1.176c8.537-0.596,17.217-0.158,25.773-0.222
	c1.208-0.009,2.77,0.055,4.434,0.058c2.447,0.371,4.897,0.562,7.356,0.899c5.7,0.783,11.289,1.395,17.043,1.356
	c1.555-0.011,3.09,0.297,4.625,0.304c0.642,0.002,1.042,0.291,1.201,0.393c0.543,1.871,0.318,5.499,0.402,7.209
	c-4.763,0.099-9.547,0.056-14.326,0.316c-11.76,0.638-23.301,0.005-35.099-0.045c-13.485-0.055-26.97,0.125-40.456,0.139
	c-6.872,0.007-13.774-0.139-20.637,0.27c-0.096,0.006-0.196,0.004-0.293,0.008c-0.221-0.15-0.502-0.239-0.85-0.215
	c-1.095,0.074-2.222,0.125-3.352,0.17c-1.602-0.054-3.21-0.082-4.759,0.114c-2.912,0.012-5.826-0.075-8.595-0.284
	c-0.699-0.053-1.375-0.113-2.046-0.172c-2.011-0.723-4.184-0.854-6.237-0.175c-0.169,0.012-0.329,0.006-0.501,0.021
	c-0.033,0.002-0.087,0.011-0.135,0.016c-3.66-0.749-7.739-0.342-11.484-0.387c-3.704-0.043-7.344,0.294-10.935,0.561
	c-1.925,0.143-3.902-0.078-5.761,0.088c-4.213-0.052-8.429-0.013-12.635-0.016c-13.485-0.014-26.97-0.195-40.456-0.139
	c-11.799,0.049-23.339,0.682-35.099,0.045c-4.779-0.26-9.561-0.217-14.324-0.316C122.094,316.354,121.868,312.726,122.412,310.855z
	 M101.19,307.943c0.548-3.158,1.522-6.144,2.646-9.134c0.049-0.134,0.146-0.55,0.267-1.104c0.055,0.35,0.116,0.685,0.196,0.985
	c0.764,2.869,2.442,4.976,3.589,7.709c1.005,2.393,1.342,5.085,2.482,7.41c0.274,0.559,0.69,1.093,1.134,1.616
	c-3.414,0.4-6.824,0.896-10.04,1.819c-0.885,0.254-1.71,0.497-2.473,0.76C100.052,314.74,100.615,311.26,101.19,307.943z
	 M98.702,330.001c-0.15,0.035-0.276,0.066-0.403,0.098c0.344-1.401,0.367-3.214,1.313-4.347c1.537-1.843,4.731-2.06,7.142-2.363
	c2.383-0.298,4.748-0.652,7.121-0.978c6.584,2.01,15.161,0.65,21.351,1.069c5.538,0.375,11.193,1.255,16.721,0.744
	c5.284-0.489,10.629-0.472,15.951-0.457c-0.475,2.603-0.596,5.25-0.521,7.897c-2.118-0.475-4.055-0.118-6.281-0.085
	c-2.983,0.043-6.009-0.276-8.986-0.112c-5.876,0.323-11.638,0.628-17.481,0.16c-6.278-0.503-12.86-0.401-19.149-0.557
	c-0.328-0.008-0.665-0.023-1.008-0.042c-0.442-0.431-1.054-0.742-1.857-0.81C108.223,329.848,103.093,328.984,98.702,330.001z
	 M81.638,364.124c0.585-1.56,5.585-15.382,5.98-15.342c0.43,0.042,4.966,12.847,5.185,13.382c1.931,4.712,3.266,10.001,5.493,14.661
	c-3.87,0.081-7.803-0.405-11.693-0.336c-2.579,0.046-6.739-0.207-10.618,0.196C78.395,372.798,80.069,368.307,81.638,364.124z
	 M71.621,384.788c0.653-1.048,4.176-0.603,5.15-0.709c3.358-0.366,6.451-0.568,9.835-0.618c3.538-0.052,6.738,0.214,10.233,0.475
	c2.48,0.185,5.046-0.779,7.505-0.464c-0.069,0.417-0.127,0.82-0.167,1.206c-0.49,4.789-0.133,9.661,0.228,14.431
	c0.395,5.236,0.443,10.904,0.045,16.15c-0.367,4.812-0.062,9.393-0.008,14.254c-0.071,0.471-0.012,0.9,0.15,1.28
	c-0.742,0.19-1.481,0.405-2.214,0.67c-0.87-2.984-1.738-5.967-2.634-8.939c-0.675-2.237-1.334-4.574-3.943-5.028
	c-1.08-0.188-2.373,0.109-2.916,1.187c-1.805,3.58-4.059,6.684-5.537,10.447c-0.255,0.651-0.515,1.299-0.772,1.946
	c-4.726-0.963-9.835-0.663-14.725-0.494c1.9-4.408,0.812-10.339,1.275-14.817c0.806-7.79-0.476-16.116-1.041-23.916
	C71.962,390.181,70.823,386.068,71.621,384.788z M39.384,416.925c1.636-3.199,2.716-5.648,3.85-9.107
	c0.706-2.153,1.806-4.128,2.798-6.136c0.036-0.074,0.11-0.188,0.2-0.322c0.465,1.293,0.878,2.622,1.373,3.723
	c1.58,3.514,3.33,6.945,4.802,10.505c1.907,4.611,3.315,9.607,5.446,14.095c-2.855,0.425-5.707,0.924-8.341,0.673
	c-5.082-0.482-10.835-0.119-16.297,0.625C35.896,426.774,37.31,420.978,39.384,416.925z M75.074,465.932
	c0.012,0.262,0.031,0.524,0.058,0.784c0.163,1.612,0.093,3.136,0.106,4.796c0.028,3.788,0.615,7.555,0.498,11.346
	c-0.035,1.137-0.134,2.16-0.127,3.122c-4.316-0.321-7.818,2.542-10.938,5.825c2.362-6.325,5.255-13.187,0.291-17.553
	c-3.351-2.948-7.005-1.775-10.406,0.605c2.57-7.772,3.689-16.301-4.881-16.921c-6.177-0.447-11.863,3.696-16.512,7.147
	c-1.95,1.447-4.238,3.212-6.29,5.199c-0.13-5.988,0.053-12.004-0.15-17.982c-0.12-3.525-0.236-6.902,0.758-10.331
	c0.626-2.158,0.136-1.772,1.918-2.688c1.31-0.673,3.952-0.434,5.498-0.61c9.078-1.037,19.235-0.107,28.308-2.453
	c2.08,0.059,4.161,0.065,6.22,0.099c4.923,0.085,10.167,0.558,15.106-0.086c-0.849,2.155-1.677,4.319-2.449,6.513
	c-1.459,4.145-3.129,8.213-4.572,12.364c-0.725,2.084-1.397,4.189-1.95,6.325C75.181,462.889,75.007,464.423,75.074,465.932z
	 M79.809,462.753c2.378-5.024,4.369-10.045,6.242-15.481c1.554-4.507,3.256-8.933,5.029-13.356c1.254-3.13,2.801-5.968,4.333-8.863
	c0.811,2.603,1.819,6.302,1.947,6.751c1.441,5.036,2.703,9.942,4.591,14.861c1.544,4.029,3.132,8.072,4.468,12.176
	c0.354,1.084,0.569,2.293,0.885,3.449c-0.51,0.032-0.999,0.056-1.446,0.052c-5.088-0.046-9.952,0.347-15.001,0.577
	C87.499,463.072,83.08,461.988,79.809,462.753z M110.857,480.25c-0.099,2.553-0.689,5.073-0.577,7.589
	c-0.227,0.071-0.455,0.141-0.69,0.241c-2.472,1.05-4.492,3.694-5.523,6.086c-0.633,1.47-1.011,3.115-1.347,4.712
	c-0.649-0.75-1.298-1.454-1.96-1.973c-1.952-1.53-4.53-2.952-7.096-2.973c-2.568-0.021-4.848,1.471-6.777,2.993
	c-1.415,1.117-2.724,2.862-4.07,4.533c0.053-0.333,0.09-0.591,0.095-0.724c0.098-2.47,0.127-5.274-0.254-7.731
	c-0.289-1.866-1.081-3.769-2.443-5.109c1.609-3.688,1.175-8.109,1.235-12.13c0.021-1.384-0.266-7.153-0.074-7.259
	c0.452-0.248,4.2,0.268,4.597,0.266c1.913-0.013,3.954-0.004,5.861-0.148c3.717-0.28,7.271-0.686,11.014-0.599
	c1.574,0.036,3.145,0.056,4.719,0.061c0.985,0.004,2.888-0.542,3.553,0.537c0.477,0.775,0.326,2.64,0.344,3.531
	C111.521,474.873,110.961,477.542,110.857,480.25z M114.028,462.921c-0.101-0.176-0.222-0.346-0.384-0.497
	c-0.958-0.897-0.863-2.539-1.234-3.721c-0.751-2.392-1.897-4.658-2.727-7.022c-1.852-5.272-4.359-10.357-5.97-15.714
	c2.061,0.323,6.012,0.749,6.926,0.793c3.634,0.179,7.021,0.2,10.641,0.2c3.969,0,10.541,2.01,14.507,0.224
	c-0.049,0.115-0.096,0.229-0.147,0.344c-1.265,2.932-2.966,6.253-2.824,9.469c0.025,0.554,0.362,1.01,0.803,1.281
	c-0.128,0.351-0.242,0.724-0.326,1.139c-0.579,2.883,0.255,5.956-0.013,8.877c-0.31,3.382-0.185,6.658-0.436,10.026
	c-0.013,0.168,0.016,0.327,0.073,0.476c-2.756,0.158-5.51,0.351-8.206,0.534c-2.32,0.156-5.323,0.058-7.921,0.632
	c-0.096-2.302-0.442-4.666-1.624-6.106C114.836,463.461,114.449,463.16,114.028,462.921z M142.972,482.663
	c-0.103,0.933-0.311,2.212-0.384,3.418c-0.987-0.729-2.467-1.497-3.01-1.839c-4.363-2.753-10.386-4.183-14.839-0.705
	c-3.173,2.479-3.112,5.773-3.127,9.197c-0.961-0.538-1.845-1.196-2.727-1.856c-0.692-0.517-1.904-1.111-2.253-1.872
	c-0.776-1.697-0.005-4.839,0.08-6.651c0.122-2.617,0.132-5.304,0.105-7.927c2.297,0.291,4.839-0.148,7.038-0.281
	c5.653-0.341,11.503-0.578,17.164-0.678c1.86-0.033,3.587,0.624,5.391,0.658c0.107,0.002,0.214-0.014,0.321-0.015
	C144.225,475.897,143.353,479.228,142.972,482.663z M141.83,468.494c-2.005,0.005-4.043,0.075-6.086,0.168
	c0.313-1.305,1.158-2.586,1.323-3.998c0.297-2.546,0.954-5.47,1.028-8.025c0.066-2.269-1.186-4.628,0.421-6.498
	c1.704-1.982,6.536-0.659,9.194-0.903c1.952-0.179,7.259-1.577,9.213-0.44c2.251,1.31,0.758,4.299,1.055,6.701
	c0.381,3.071,0.397,6.146,0.209,9.247c-0.076,1.265-0.335,2.461-0.474,3.666c-0.322,0.019-0.648,0.031-0.966,0.056
	C151.691,468.877,146.818,468.482,141.83,468.494z M157.392,474.851c-0.77-0.487-1.544-0.906-2.336-1.243
	c2.557,0.063,5.205,0.161,7.744,0.042c-0.121,0.539-0.221,1.086-0.259,1.662c-0.012,0.173,0.348,3.43,0.328,4.294
	C162.64,478.608,158.162,475.338,157.392,474.851z M347.553,468.573c-0.638-1.714-1.414-3.405-2.647-4.694
	c-2.527-2.643-7.769-5.218-11.353-3.405c-1.632,0.825-2.977,2.566-4.097,4.598c-0.738-1.548-1.604-3.026-2.648-4.393
	c-2.3-3.016-5.223-5.147-9.023-5.631c-4.258-0.543-7.048,0.682-9.248,4.319c-0.981,1.622-1.755,3.347-2.293,5.162
	c-0.023,0.076-0.043,0.168-0.063,0.268c-2.569-4.466-6.49-8.617-10.656-8.998c-3.138-0.287-5.715,1.517-6.906,4.345
	c-0.422,1-0.626,2.177-0.777,3.344c-2.456-3.06-5.392-5.651-9.406-5.355c-3.887,0.287-4.948,3.005-5.239,6.11
	c-2.141-1.268-4.414-2.116-6.481-1.853c-2.193-2.58-6.996-3.775-10.14-3.499c-3.252,0.287-5.658,0.879-7.91,3.279
	c-0.497,0.53-0.604,0.816-0.966,1.151c-2.593-1.835-5.878-0.866-8.897,0.923c-0.291-3.105-1.352-5.824-5.239-6.11
	c-4.014-0.296-6.949,2.294-9.406,5.355c-0.15-1.166-0.355-2.342-0.777-3.344c-1.191-2.828-3.768-4.632-6.907-4.345
	c-4.166,0.381-8.087,4.532-10.656,8.998c-0.02-0.1-0.041-0.19-0.063-0.268c-0.538-1.815-1.312-3.54-2.293-5.162
	c-2.2-3.638-4.99-4.863-9.248-4.319c-3.799,0.485-6.721,2.615-9.023,5.631c-1.042,1.368-1.91,2.845-2.648,4.393
	c-1.12-2.032-2.465-3.771-4.097-4.598c-3.585-1.813-8.826,0.762-11.353,3.405c-1.233,1.289-2.009,2.981-2.647,4.694
	c-0.511-0.058-1.027-0.098-1.543-0.134c0.067-2.876,0.537-5.865,0.441-8.741c-0.075-2.279-0.731-4.743-0.617-6.994
	c0.047-0.947,0.368-1.848,0.508-2.775c4.833,0.477,9.537,0.32,14.637,0.257c7.762-0.095,15.521,0.132,23.287,0.121
	c8.147-0.011,16.293,0.005,24.438-0.224c5.276-0.148,10.95-0.123,16.234-1.184c3.14,0.308,6.289,0.558,9.403,0.82
	c6.823,0.575,15.581,1.424,22.731-0.249c4.146,0.472,8.409,0.499,12.442,0.612c8.145,0.228,16.291,0.213,24.438,0.224
	c7.766,0.011,15.525-0.216,23.287-0.121c5.098,0.062,9.803,0.22,14.637-0.257c0.14,0.927,0.461,1.826,0.508,2.775
	c0.114,2.251-0.542,4.714-0.617,6.994c-0.095,2.876,0.374,5.865,0.441,8.741C348.58,468.475,348.066,468.515,347.553,468.573z
	 M354.606,474.851c-0.77,0.487-5.248,3.757-5.477,4.755c-0.02-0.864,0.34-4.122,0.328-4.294c-0.038-0.576-0.138-1.124-0.259-1.662
	c2.539,0.119,5.187,0.021,7.744-0.042C356.15,473.945,355.376,474.364,354.606,474.851z M355.249,468.469
	c-0.318-0.026-0.644-0.038-0.966-0.056c-0.139-1.205-0.397-2.401-0.474-3.666c-0.188-3.103-0.172-6.176,0.209-9.247
	c0.297-2.402-1.195-5.391,1.055-6.701c1.954-1.138,7.261,0.26,9.213,0.44c2.658,0.243,7.49-1.079,9.194,0.903
	c1.608,1.87,0.355,4.229,0.421,6.498c0.074,2.555,0.731,5.479,1.028,8.025c0.166,1.413,1.011,2.694,1.323,3.998
	c-2.043-0.092-4.081-0.162-6.086-0.168C365.18,468.482,360.306,468.877,355.249,468.469z M395.514,488.603
	c-0.043,0.147-0.095,0.288-0.156,0.421c-0.346,0.747-1.569,1.348-2.248,1.856c-0.88,0.658-1.764,1.316-2.725,1.855
	c-0.015-3.424,0.046-6.718-3.127-9.197c-4.452-3.478-10.475-2.047-14.838,0.705c-0.542,0.342-2.023,1.111-3.01,1.839
	c-0.073-1.206-0.281-2.485-0.384-3.418c-0.381-3.435-1.253-6.766-3.76-8.55c0.107,0.001,0.214,0.016,0.321,0.015
	c1.804-0.034,3.531-0.691,5.39-0.658c5.661,0.1,11.511,0.337,17.164,0.678c2.2,0.133,4.742,0.572,7.038,0.281
	c-0.027,2.622-0.018,5.31,0.105,7.927C395.363,484.044,396.035,486.833,395.514,488.603z M398.355,462.424
	c-0.162,0.152-0.283,0.32-0.384,0.497c-0.422,0.24-0.809,0.541-1.134,0.938c-1.184,1.44-1.528,3.803-1.624,6.106
	c-2.597-0.575-5.601-0.476-7.921-0.632c-2.696-0.182-5.45-0.376-8.206-0.534c0.055-0.149,0.085-0.309,0.073-0.476
	c-0.251-3.37-0.126-6.645-0.436-10.026c-0.268-2.919,0.565-5.993-0.013-8.877c-0.083-0.415-0.196-0.787-0.326-1.139
	c0.441-0.271,0.778-0.726,0.803-1.281c0.142-3.217-1.56-6.537-2.824-9.469c-0.049-0.115-0.098-0.23-0.146-0.344
	c3.964,1.784,10.536-0.225,14.507-0.225c3.62,0,7.007-0.021,10.641-0.2c0.913-0.045,4.865-0.47,6.926-0.793
	c-1.61,5.357-4.118,10.441-5.97,15.714c-0.83,2.365-1.976,4.632-2.727,7.022C399.217,459.885,399.313,461.527,398.355,462.424z
	 M429.338,493.003c-0.381,2.459-0.351,5.262-0.254,7.731c0.005,0.133,0.042,0.391,0.095,0.724c-1.346-1.672-2.655-3.417-4.07-4.533
	c-1.929-1.522-4.209-3.015-6.777-2.993c-2.567,0.021-5.144,1.444-7.096,2.973c-0.663,0.519-1.312,1.225-1.96,1.973
	c-0.336-1.597-0.712-3.241-1.346-4.712c-1.032-2.392-3.052-5.037-5.523-6.086c-0.235-0.1-0.462-0.17-0.689-0.241
	c0.112-2.517-0.478-5.037-0.577-7.589c-0.083-2.181-0.48-4.343-0.579-6.526c-0.062-1.362-0.227-2.901,0.374-4.176
	c0.797-1.692,1.905-1.47,3.494-1.463c1.574-0.005,3.145-0.025,4.719-0.061c3.742-0.087,7.296,0.32,11.014,0.599
	c1.907,0.143,3.948,0.135,5.861,0.148c0.396,0.002,4.144-0.514,4.597-0.266c0.193,0.106-0.094,5.874-0.074,7.259
	c0.061,4.021-0.373,8.442,1.235,12.13C430.419,489.234,429.627,491.136,429.338,493.003z M421.142,462.921
	c-5.049-0.229-9.915-0.623-15.001-0.577c-0.448,0.004-0.937-0.02-1.446-0.052c0.316-1.158,0.531-2.367,0.885-3.449
	c1.336-4.103,2.923-8.146,4.468-12.176c1.886-4.92,3.15-9.825,4.591-14.861c0.128-0.449,1.137-4.148,1.947-6.751
	c1.533,2.895,3.079,5.733,4.333,8.863c1.774,4.423,3.475,8.849,5.029,13.356c1.873,5.435,3.863,10.457,6.241,15.481
	C428.918,461.988,424.499,463.072,421.142,462.921z M485.278,452.3c-0.203,5.978-0.02,11.995-0.15,17.982
	c-2.052-1.987-4.339-3.751-6.29-5.199c-4.649-3.449-10.334-7.594-16.512-7.147c-8.571,0.619-7.451,9.148-4.881,16.921
	c-3.401-2.38-7.055-3.552-10.406-0.605c-4.964,4.367-2.072,11.228,0.29,17.553c-3.12-3.283-6.623-6.146-10.938-5.825
	c0.006-0.963-0.093-1.985-0.127-3.122c-0.147-4.787,0.863-9.85,0.356-14.596c-0.019-0.17-0.045-0.328-0.069-0.489
	c0.564-0.37,0.97-1.059,0.849-1.818c-1.246-7.825-4.859-15.763-7.48-23.211c-0.772-2.194-1.601-4.358-2.449-6.513
	c4.939,0.643,10.183,0.169,15.106,0.086c2.059-0.035,4.139-0.04,6.22-0.099c9.073,2.347,19.231,1.416,28.308,2.453
	c1.546,0.176,4.188-0.063,5.498,0.61c1.782,0.916,1.292,0.531,1.918,2.688C485.514,445.397,485.398,448.775,485.278,452.3z"/>
<g>
</g>
<g>
</g>
<g>
</g>
<g>
</g>
<g>
</g>
<g>
</g>
<g>
</g>
<g>
</g>
<g>
</g>
<g>
</g>
<g>
</g>
<g>
</g>
<g>
</g>
<g>
</g>
<g>
</g>
</svg>
