<?xml version="1.0" encoding="iso-8859-1"?>
<!-- Generator: Adobe Illustrator 19.0.0, SVG Export Plug-In . SVG Version: 6.00 Build 0)  -->
<svg version="1.1" id="Layer_1" xmlns="http://www.w3.org/2000/svg" xmlns:xlink="http://www.w3.org/1999/xlink" x="0px" y="0px"
	 viewBox="0 0 512.002 512.002" style="enable-background:new 0 0 512.002 512.002;" xml:space="preserve">
<path style="fill:#EFDEBF;" d="M506.458,299.46c-1.538-0.97-3.517,0.023-5.334,0.063c-1.802,0.04-3.587-0.988-4.458-2.565
	c-1.142-2.07-0.186-5.127-0.14-7.42c0.101-5.092-2.919-9.618-2.7-14.862c0.178-4.267,2.384-8.738,6.354-10.309
	c1.522-0.603,3.285-0.797,4.466-1.929c2.467-2.366,0.262-6.846-2.915-8.107c-3.177-1.261-6.751-0.608-10.158-0.869
	c-3.409-0.261-7.291-2.135-7.627-5.537c-0.232-2.344,1.334-4.786,0.432-6.961c-1.017-2.449-4.296-2.768-6.947-2.702
	c-15.596,0.387-31.192,0.774-46.788,1.16c-17.077,0.423-33.867,0.361-51.009,0.783c-1.111,0.027-2.355,0.005-3.142-0.781
	c-0.74-0.736-0.813-1.89-0.842-2.933c-0.273-9.831-0.547-19.663-0.82-29.494c-0.254-9.108-0.076-17.998-0.091-27.109
	c-0.002-1.433,0.033-2.984,0.909-4.118c0.876-1.134,2.929-1.409,3.626-0.156c2.37-1.249,3.571-4.35,2.664-6.869
	c-0.907-2.521-3.81-4.141-6.432-3.594c-0.56,0.117-1.205,0.301-1.653-0.052c-0.464-0.366-0.414-1.071-0.321-1.654
	c0.859-5.364,1.325-9.526,1.007-15.074l-1.034-18.078c-0.053-0.947-0.094-1.958,0.384-2.777c0.754-1.291,2.453-1.607,3.676-2.467
	c1.823-1.282,2.441-4.004,1.352-5.948c-1.09-1.944-3.735-2.836-5.779-1.95c1.568-0.679,1.13-9.457,1.036-10.946
	c-0.215-3.429-0.711-7.275-2.557-10.236c-2.213-3.547-2.323-8.355-4.134-12.239c-1.825-3.912-4.326-7.512-7.386-10.56
	c-2.344-2.335-5.39-4.467-8.673-4.062c-2.809,0.347-5.05,2.469-6.869,4.637c-5.662,6.746-9.316,15.121-10.586,23.825
	c-0.567,3.886-0.469,7.816-0.919,11.712c-0.568,4.926-2.4,6.73-4.554,10.864c-0.625,1.198-0.594,2.925,0.55,3.644
	c0.679,0.427,1.546,0.379,2.317,0.606c1.671,0.493,2.693,2.259,2.902,3.988c0.208,1.729-0.225,3.461-0.557,5.17
	c-0.989,5.076,0.703,14.107-4.791,16.808c-2.369,1.165-5.116,1.175-7.757,1.161c-26.99-0.14-53.981-0.279-80.972-0.419
	l-40.486-0.209c-4.096-0.021-14.851,1.767-17.713-0.997c-2.31-2.231-1.982-8.748-2.12-11.64c-0.134-2.788-0.063-5.592-0.271-8.376
	c-0.124-1.655-0.219-3.441,0.668-4.844c0.585-0.927,1.527-1.564,2.265-2.374c0.738-0.812,1.282-1.992,0.831-2.991
	c-0.627-1.389-2.633-1.472-3.667-2.591c-1.154-1.251-0.696-3.245-0.079-4.831c1.824-4.696-0.754-10.952-2.137-15.611
	c-1.246-4.195-1.125-8.341-2.759-12.49c-1.728-4.388-4.203-8.481-7.307-12.033c-1.352-1.547-2.957-3.068-4.983-3.412
	c-3.128-0.533-5.941,1.869-8.056,4.235c-5.992,6.702-10.627,14.604-13.603,23.086c-1.298,3.701-2.779,7.97-3.207,11.853
	c-0.363,3.288,1.011,7.216-2.121,9.581c-1.587,1.197-4.122,1.468-4.737,3.357c-0.363,1.11,0.178,2.337,0.973,3.192
	s1.823,1.451,2.726,2.192c3.56,2.921,3.731,7.157,3.635,11.296c-0.144,6.231,0.027,12.441-0.335,18.673
	c-0.093,1.617-0.238,3.329-1.194,4.637c-0.96,1.316-2.554,1.973-3.893,2.902c-1.86,1.29-3.324,3.292-3.539,5.546
	c-0.216,2.253,1.041,4.688,3.174,5.449c0.89,0.318,1.888,0.35,2.699,0.836c2.231,1.339,1.366,3.909,1.113,5.911
	c-0.37,2.942-0.205,5.266,0.237,8.312c1.766,12.156,0.904,24.71,0.905,37.093c0,5.178,0.045,8.738-4.969,11.038
	c-4.572,2.096-9.803,2.031-14.725,1.896l-77.126-2.114c-2.681-0.073-5.421-0.14-7.979,0.667c-2.558,0.806-4.946,2.659-5.657,5.245
	c-0.718,2.619,0.268,5.797-1.479,7.877c-1.188,1.416-3.262,1.74-5.094,1.504s-3.584-0.926-5.418-1.159
	c-2.783-0.351-5.843,0.514-7.565,2.729s-1.617,5.835,0.607,7.544c1.117,0.859,2.562,1.154,3.784,1.852
	c3.285,1.875,4.275,6.152,4.288,9.934c0.023,6.597,0.526,13.151,0.556,19.763c0.008,1.659-0.165,3.604-1.569,4.487
	c-2.358,1.483-5.315-1.516-8.049-0.979c-2.765,0.542-3.52,4.082-3.682,6.896c-0.109,1.915-0.04,4.204,1.574,5.241
	c1.359,0.872,3.139,0.392,4.748,0.54c2.452,0.224,5.266,1.53,6.365,3.82c0.855,1.785,0.93,3.834,0.878,5.813
	c-0.104,3.98,0.17,7.949,0.181,11.94c0.019,6.358,0.049,12.714,0.069,19.072c0.037,12.83,0.035,25.661-0.168,38.49
	c-0.187,11.818-0.546,23.634-0.946,35.447c-0.212,6.27-0.437,12.54-0.656,18.809c-0.163,4.672-1.883,10.277,2.574,13.422
	c0.08,0.057,0.164,0.114,0.249,0.17c2.586,1.687,5.803,2.015,8.883,2.225c14.478,0.988,28.997,0.37,43.47-0.373
	c14.237-0.731,28.367-0.439,42.636-0.33c4.231,0.031,8.625,0.1,12.43,1.951c2.544,1.238,4.679,3.21,7.241,4.411
	c8.416,3.948,19.654,0.14,28.685,1.23c10.977,1.324,22.524,1.833,32.973-2.407c2.991-1.213,5.833-2.795,8.899-3.801
	c4.431-1.452,9.144-1.639,13.824-1.66c0.088-0.961,0.163-1.922,0.185-2.886c-1.995-8.037-1.245-17.65-1.465-25.726
	c-0.243-8.925-0.003-17.973-0.778-26.869c-0.758-8.698-4.96-21.465,3.168-28.048c1.969-1.595,4.939-1.462,6.705-2.816
	c3.511-2.692-1.666-6.388-3.118-8.687c-3.086-4.885-4.068-11.163-2.763-16.782c1.448-6.234,5.197-11.372,9.785-15.807
	c0.016-0.254,0.099-0.518,0.315-0.771c6.29-7.374,14.755-14.205,23.762-18.027c5.587-2.371,11-1.32,15.561,2.597
	c5.026,4.316,8.484,10.368,12.966,15.213c3.897,4.212,8.404,8.104,10.701,13.495c2.232,5.236,2.135,11.712-0.539,16.765
	c-1.534,2.9-3.734,5.422-5.205,8.357c-1.958,3.909,0.501,4.08,3.962,5.275c4.739,1.637,8.595,3.404,9.19,8.855
	c0.729,6.673-1.489,13.78-1.744,20.47c-0.693,18.146,1.219,36.905-1.788,54.859c-0.034,0.205-0.115,0.411-0.22,0.61
	c0.335,0,0.669,0.001,1.003,0.001c4.447,0.005,9.005,0.028,13.172,1.581c4.446,1.657,8.058,5.181,12.688,5.984
	c6.161,1.069,12.965,0.827,19.21,0.962c12.474,0.27,25.058-0.379,37.213-3.384c5.173-1.279,10.254-2.978,15.517-3.81
	c6.206-0.981,12.53-0.735,18.81-0.571c25.982,0.677,53.109,1.114,78.917-2.412c5.14-0.703,7.303-1.968,6.224-7.037
	c-1.199-5.626-1.074-11.04-1.078-16.812c-0.009-13.427-0.016-26.855,0.021-40.284c0.002-1.076,0.006-2.153,0.009-3.229
	c0.041-12.572,0.118-25.143,0.201-37.715c0.043-6.356,0.088-12.713,0.133-19.07c0.041-5.75-1.418-11.087-1.573-16.828
	c-0.024-0.903-0.005-1.873,0.521-2.608c0.733-1.027,2.181-1.227,3.438-1.113c1.258,0.115,2.537,0.45,3.761,0.145
	c1.527-0.38,2.672-1.716,3.241-3.184c0.569-1.468,0.655-3.071,0.735-4.643C507.971,302.394,507.895,300.367,506.458,299.46z"/>
<g>
	<path style="fill:#D3BF9F;" d="M92.359,237.433c9.231,0.346,18.414,1.042,27.483,2.185c8.656,1.091,17.961-3.382,25.955,2.668
		c6.209,4.699,6.6,16.416,8.366,23.582c1.197,4.859,2.115,9.718,3.766,14.429c1.061,3.03,3.258,6.473,3.436,9.708
		c0.116,2.103-1.014,5.023-1.007,7.481c0.036,13.776,2.121,27.398,2.061,41.177c-0.062,14.533-0.491,29.07,0.044,43.6
		c0.483,13.121-0.834,26.214-0.825,39.332c0.006,9.141-0.453,23.646,7.479,29.971c3.263,2.602,15.197,6.01,16.546,9.395
		c2.584,6.49-19.276,5.252-21.918,5.172c-10.173-0.307-22.836,0.625-30.839-6.352c-4.396-3.833-8.719-2.656-14.411-2.242
		c-21.482,1.567-42.097,0.859-63.514-1.463c-9.174-0.995-18.524-1.359-27.75-1.533c-6.443-0.122-11.037,0.275-11.963-6.945
		c-1.36-10.597,0.984-21.739,1.594-32.302c0.74-12.833,1.422-25.745,1.144-38.593c-0.258-11.949-1.03-23.83-1.75-35.761
		c-0.382-6.329,4.796-25.853-0.708-30.491c-3.782-3.185-8.738,2.202-12.077-1.575c-1.84-2.082-1.361-8.268,1.251-9.644
		c2.707-1.422,8.297,1.686,10.807,0.027c5.377-3.552,2.25-20.543,2.611-25.767c0.149-2.156,1.724-6.163,0.896-8.2
		c-0.985-2.423-1.424-2.243-4.018-2.51c-2.694-0.277-3.959,1.906-6.391,0.044c-1.298-0.993-2.456-4.378-1.909-5.861
		c2.224-6.032,13.346-2.922,17.638-4.362c8.257-2.771-0.843-12.738,10.199-13.598C53.609,237.52,73.088,236.712,92.359,237.433z"/>
	<path style="fill:#D3BF9F;" d="M295.867,295.745c7.672-0.415,16.135-2.415,19.926-9.272c2.977-5.385,5.42-10.224,7.65-15.808
		c2.239-5.606,6.311-5.842,12.605-6.52c11.919-1.284,14.801,1.135,14.715,12.741c-0.104,14.118-5.661,27.513-5.339,41.608
		c0.688,30.03-0.812,60.499-2.529,90.611c-0.81,14.211-2.713,25.71,3.74,38.647c2.093,4.197,4.06,7.657,7.891,10.596
		c2.298,1.762,5.252,1.874,5.769,5.088c-4.611,3.222-15.824,2.426-21.195,2.2c-9.084-0.382-26.398,3.149-30.984-7.672
		c-3.156-7.449-1.188-14.942,0.993-22.358c3.642-12.379,3.333-26.332,4.009-39.21c0.556-10.597-1.105-21.046-0.359-31.673
		c0.792-11.295,2.362-21.865,0.154-33.153c-1.501-7.677-4.129-16.807-10.627-21.802c-6.095-4.685-18.841-5.067-26.255-5.636
		c-8.655-0.665-17.492-0.506-26.153-0.055c-12.658,0.661-29.818,3.58-38.783,13.34c-9.956,10.84-8.491,30.799-8.481,44.487
		c0.015,17.73-1.048,35.274,0.505,52.956c0.871,9.926,1.49,19.637,3.406,29.432c0.517,2.642,3.491,11.347,1.869,13.797
		c-3.238,4.889-8.668,0.535-9.666-2.57c-2.74-8.516-1.986-17.92-5.708-26.093c-1.027-2.255-3.012-4.494-3.532-6.79
		c-1.006-4.452,0.45-10.045,0.497-14.497c0.174-16.588,2.248-33.15,0.97-49.67c-0.974-12.588-0.547-26.776-0.484-38.345
		c1.68-5.644,11.465-18.816,16.513-22.742c4.856-3.776,13.132-2.779,19.011-2.474c13.407,0.695,26.803,0.93,40.263,0.93
		c8.696,0,17.393,0,26.089,0C293.488,295.835,294.667,295.809,295.867,295.745z"/>
	<path style="fill:#D3BF9F;" d="M371.165,324.008c1.356,16.418,1.744,33.983,0.93,50.561c-0.425,8.652-0.634,17.358-1.038,26.06
		c-0.285,6.139-3.089,16.251,0.23,22.007c1.601,2.776,3.363,2.889,5.6,4.965c3.224,2.991,2.466,5.268,3.886,9.255
		c1.309,3.674,4.557,4.478,6.213,7.629c1.524,2.898-1.232,12.285,1.89,13.607c7.573,3.207,5.154-17.7,4.985-19.781
		c-1.019-12.494-1.405-25.294-4.584-37.446c-4.386-16.768-8.607-33.599-5.433-51.082c3.211-17.674,15.585-25.071,32.464-27.136
		c14.471-1.771,28.961-1.775,43.478-2.054c9.294-0.178,19.707,0.836,28.918-0.467c3.958-0.56,10.406-4.95,6.329-9.729
		c-3.452-4.045-20.356,0.138-25.347,0.507c-23.69,1.75-46.681-1.928-70.335-1.956c-3.858-0.005-13.735-1.118-16.837,1.925
		c-1.381,1.355-1.024,4.117-2.422,5.85C377.321,320.162,371.692,319.065,371.165,324.008z"/>
	<path style="fill:#D3BF9F;" d="M161.503,175.847c-2.396,0.912-3.994,2.835-4.1,6.637c-0.225,8.135,1.527,16.653,1.497,24.932
		c-0.024,6.62-1.27,15.893,6.057,19.225c5.255,2.389,11.968,0.763,16.081,5.94c4.417,5.56-1.33,5.641-6.486,5.971
		c-8.232,0.527-16.625-2.256-24.785-2.512c-2.723-0.086-11.855,2.422-14.208,0.46c-2.101-1.753-0.494-7.008-0.233-9.054
		c0.711-5.568,0.736-10.947,0.742-16.586c0.008-8.31-0.688-16.537-1.255-24.816c-0.287-4.201-0.065-7.181-1.807-11.048
		c-1.248-2.771-3.428-4.531-2.156-7.858c0.985-2.573,3.78-4.392,4.974-7.084c3.056-6.886,3.468-21.572,1.593-28.904
		c-1.17-4.575-10.131-5.676-4.76-11.269c2.257-2.351,3.619-1.505,4.843-4.252c0.855-1.919,0.693-4.552,0.983-6.594
		c1.621-11.404,3.421-21.618,10.748-30.914c1.504-1.909,8.114-11.002,11.329-8.177c1.629,1.431-0.628,7.676-0.988,9.476
		c-2.99,14.951-1.345,30.301-0.225,45.373c0.909,12.223-0.13,23.78,7.942,34.225c3.325,4.303,8.105,4.207,12.956,5.209
		c2.658,0.55,4.07-0.529,4.892,2.394c1.477,5.259-3.934,8.727-7.933,9.047C172.041,176.081,166.551,173.925,161.503,175.847z"/>
	<path style="fill:#D3BF9F;" d="M357.079,175.847c-2.396,0.912-3.994,2.835-4.1,6.637c-0.225,8.135,1.527,16.653,1.497,24.932
		c-0.024,6.62-1.27,15.893,6.057,19.225c5.255,2.389,11.968,0.763,16.081,5.94c4.417,5.56-1.33,5.641-6.486,5.971
		c-8.232,0.527-16.625-2.256-24.785-2.512c-2.723-0.086-11.855,2.422-14.208,0.46c-2.101-1.753-0.494-7.008-0.233-9.054
		c0.711-5.568,0.736-10.947,0.742-16.586c0.008-8.31-0.688-16.537-1.255-24.816c-0.287-4.201-0.065-7.181-1.807-11.048
		c-1.248-2.771-3.428-4.531-2.156-7.858c0.985-2.573,3.78-4.392,4.974-7.084c3.056-6.886,3.468-21.572,1.593-28.904
		c-1.17-4.575-10.131-5.676-4.76-11.269c2.257-2.351,3.619-1.505,4.843-4.252c0.855-1.919,0.693-4.552,0.983-6.594
		c1.621-11.404,3.421-21.618,10.748-30.914c1.504-1.909,8.114-11.002,11.329-8.177c1.629,1.431-0.628,7.676-0.988,9.476
		c-2.99,14.951-1.345,30.301-0.225,45.373c0.909,12.223-0.13,23.78,7.942,34.225c3.325,4.303,8.105,4.207,12.956,5.209
		c2.658,0.55,4.07-0.529,4.892,2.394c1.477,5.259-3.934,8.727-7.933,9.047C367.616,176.081,362.126,173.925,357.079,175.847z"/>
	<path style="fill:#D3BF9F;" d="M188.847,166.186c2.837-2.458,8.189-1.795,13.134-2.009c11.154-0.48,22.46,0.024,33.624,0.024
		c21.472,0,42.862,0.309,64.294,0.997c6.962,0.223,16.342-3.674,22.252,1.483c8.053,7.027-3.41,10.056-9.388,10.398
		c-3.749,0.215-7.083-0.889-10.713-1.087c-5.377-0.293-11.392,1.149-16.786,1.688c-13.198,1.317-31.926,2.414-42.631,11.31
		c-27.716,23.032,49.113,30.052,41.958,46.213c-5.321,12.02-32.093,6.652-41.762,6.206c-14.417-0.663-28.966-0.668-43.39-0.948
		c-6.54-0.127-14.642-0.689-15.763-7.998c-0.991-6.459,0.707-14.841,1.455-21.292c0.797-6.862-0.473-13.452-0.012-20.279
		c0.453-6.68,1.299-13.432,1.719-20.002C186.98,168.651,187.712,167.169,188.847,166.186z"/>
	<path style="fill:#D3BF9F;" d="M186.587,267.663c0.64,6.942,5.269,18.325,9.732,23.563c6.811,7.993,26.809,3.684,36.34,3.033
		c18.234-1.246,36.636,1.104,54.888,0.227c6.055-0.291,12.111-0.357,18.065-0.083c3.092,0.143,7.343,0.547,9.815-0.868
		c6.629-3.795,9.452-18.523,9.516-25.338c-8.997,2.777-21.34,0.554-30.769,0.912c-11.672,0.443-23.449,0.277-35.109,0.875
		c-12.613,0.647-25.483-1.856-38.199-1.835C210.081,268.168,199.331,268.634,186.587,267.663z"/>
</g>
<g>
	<path style="fill:#B29974;" d="M53.496,458.07c-1.367-2.858-0.53-8.56-0.96-12.093c-0.718-5.923-1.393-11.739-1.956-17.656
		c-0.734-7.719-1.869-15.19-1.943-22.941c-0.077-8.16-0.772-16.867,0.973-24.817c2.379-10.84,8.054-20.292,14.711-29.05
		c7.509-9.877,17.548-27.021,30.971-16.32c12.145,9.681,17.4,25.633,21.214,40.034c3.505,13.232,0.946,24.684,0.241,38.157
		c-0.767,14.666,0.639,29.487-0.181,44.129c-10.847,0.322-21.847,0.152-32.806,0.667c-6.598,0.309-13.079,0.174-19.685,0.376
		C60.81,458.654,56.033,459.61,53.496,458.07z"/>
	<path style="fill:#B29974;" d="M419.738,333.723c-16.061,12.5-24.283,35.095-25.769,55.019
		c-0.967,12.961-0.134,27.172,0.971,40.064c0.432,5.04,0.511,10.058,0.511,15.166c0,3.025-1.557,11.319,0.356,13.637
		c2.216,2.685,11.893,1.327,15.106,1.434c8.047,0.27,15.776,0.413,23.811-0.019c5.664-0.305,11.466-0.247,17.085-0.486
		c5.425-0.23,6.329,0.875,7.516-4.894c2.816-13.671,1.876-28.443,3.157-42.345c0.913-9.923,2.167-20.797-0.974-30.351
		c-3.934-11.966-10.753-24.457-18.078-34.663c-3.226-4.494-6.493-9.8-10.862-13.284
		C425.854,327.648,420.902,334.474,419.738,333.723z"/>
	<path style="fill:#B29974;" d="M141.414,238.033c-24.631,0.013-49.326-1.429-74.059-1.458c-8.242-0.009-16.484,0.708-24.649,1.458
		c-5.171,0.475-11.014,0.599-14.238,5.101c-3.468,4.844-0.881,7.551-7.747,8.866c-5.234,1.003-11.904-0.454-13.856,5.216
		c-2.711,7.878,7.371,6.353,11.938,6.023c9.703-0.701,20.116-1.534,29.859-0.978c11.956,0.683,24.005,1.473,35.978,1.529
		c11.832,0.055,23.609-0.508,35.435-0.497c17.214,0.016,34.415,0.72,51.619,1.167c16.731,0.434,33.668,0.016,50.366,1.131
		c10.355,0.691,20.684,1.893,31.067,2.113c10.287,0.218,19.957-0.619,30.206-1.021c11.039-0.434,22.09-0.964,33.144-0.959
		c17.27,0.009,34.421-0.343,51.625-0.99c16.47-0.619,33.072-2.665,49.593-1.817c12.287,0.632,24.501,1.835,36.835,1.835
		c9.097,0,18.163,0.95,27.257,1.048c5.579,0.061,18.635,1.338,22.973-3.34c10.215-11.016-21.466-11.073-22.321-8.954
		c1.603-3.968,5.122-9.825,0.403-13.054c-4.751-3.25-16.918-2.237-22.28-2.537c-5.155-0.288-10.313-0.626-15.466-0.968
		c-11.262-0.749-23.279,1.124-34.681,1.211c-12.833,0.098-25.667,0.236-38.499,0.35c-18.631,0.166-37.416,4.517-56.298,4.654
		c-18.571,0.135-37.089-1.104-55.632-1.752c-19.652-0.688-39.162-0.404-58.814-1.661c-9.995-0.64-19.801-1.226-29.824-1.227
		C161.321,238.517,151.467,237.999,141.414,238.033z"/>
	<path style="fill:#B29974;" d="M120.041,295.835c-20.079,0-40.151,0.262-60.112,0.971c-9.174,0.326-18.422,0.864-27.613,0.971
		c-6.23,0.073-12.526-1.224-18.669-0.93c-4.765,0.228-8.564,0.392-9.101,5.76c-1.189,11.911,29.331,7.602,36.267,7.907
		c19.806,0.871,39.71-1.454,59.241-0.635c5.384,0.226,21.434,3.867,25.839,0.536C130.55,306.896,125.372,299.349,120.041,295.835z"
		/>
	<path style="fill:#B29974;" d="M390.109,297.778c-2.509,3.442-7.687,8.688-7.697,13.041c35.692,1.503,71.613,1.23,107.402-0.52
		c6.365-0.312,18.975,3.176,18.705-6.074c-0.256-8.742-23.835-4.991-30.044-4.991C451.115,299.236,422.439,297.323,390.109,297.778z
		"/>
	<path style="fill:#B29974;" d="M144.814,163.231c-5.971-0.058-15.507-2.669-16.515,4.711c-1.319,9.663,9.203,5.49,16.103,5.49
		c7.101,0,14.123,0.279,21.189,0.491c5.199,0.155,12.359,1.386,17.321,0.238c3.429-0.793,2.955,0.006,3.676-3.377
		c0.618-2.897-0.4-6.138-2.668-7.088c-0.863-0.362-4.386,0.499-5.57,0.506c-4.132,0.024-8.111-0.957-12.252-0.992
		C157.606,163.137,148.848,165.176,144.814,163.231z"/>
	<path style="fill:#B29974;" d="M341.049,165.174c-3.906-1.344-16.682-2.595-17.011,2.89c-0.327,5.446,7.08,5.327,10.812,5.369
		c15.613,0.173,30.949,0.852,46.431-0.085C390.032,159.174,339.305,165.302,341.049,165.174z"/>
	<path style="fill:#B29974;" d="M157.443,115.142c-3.822-0.173-7.835,1.255-11.746,1.468c-2.655,0.145-6.456-0.479-8.897,0.515
		c-4.773,1.946-6.389,6.138-0.657,7.244c4.694,0.906,49.803,2.666,46.837-5.603C180.449,111.718,158.525,115.189,157.443,115.142z"
		/>
	<path style="fill:#B29974;" d="M353.193,116.114c-4.176-1.952-15.729-1.889-19.913,0.501c-1.163,0.664-3.73,3.812-2.927,5.825
		c1.031,2.587,3.597,1.835,6.196,1.931c9.708,0.362,19.378,0.017,29.045,0.475c3.697,0.174,13.949,2.775,15.335-1.93
		C375.478,110.551,354.188,118.664,353.193,116.114z"/>
	<path style="fill:#B29974;" d="M182.7,151.087c-0.692,5.223-2.879,11.011,4.287,12.228c0.174,4.998-3.876,7.726,1.41,10.249
		c3.801,1.814,10.57,1.299,14.665,1.32c9.67,0.05,19.532,0.45,29.211-0.038c17.37-0.876,34.63-0.624,51.975-0.446
		c10.218,0.106,20.587-1.013,30.728-0.49c4.95,0.256,9.995,1.691,11.039-4.367c0.454-2.636-1.709-3.129,0.437-5.719
		c1.55-1.869,4.54-1.295,5.985-3.975c4.322-8.015-2.63-9.338-8.239-8.791c-16.985,1.659-34.106,0.514-51.148,0.513
		c-17.958-0.001-35.877,0-53.885,0C209.878,151.573,193.125,148.2,182.7,151.087z"/>
</g>
<g>
	<path style="fill:#89704E;" d="M80.697,347.808c-8.804,5.399-16.013,18.677-18.361,28.554c-3.43,14.429,5.862,11.533,17.293,10.329
		c6.092-0.641,24.664,2.698,27.302-3.645c2.671-6.419-5.225-17.367-7.54-22.847c-2.113-5.001-4.26-8.435-8.701-11.923
		c-1.232-0.968-2.443-2.237-4.058-2.53C82.385,344.975,83.45,347.374,80.697,347.808z"/>
	<path style="fill:#89704E;" d="M187.558,165.174c13.372-3.299,29.721-0.479,43.382-0.486c20.436-0.01,40.858-0.969,61.289-0.971
		c9.378-0.001,18.798-0.271,28.171,0c9.018,0.261,3.591,2.507,3.577,8.185c-12.072,2.912-25.533,3.01-38.022,2.986
		c-15.56-0.029-31.103,0.973-46.665,0.971c-14.36-0.001-28.726-0.485-43.121-0.485c-1.753,0-8.968,0.983-10.212-0.341
		C183.879,172.82,187.103,169.527,187.558,165.174z"/>
	<path style="fill:#89704E;" d="M422.167,347.808c-8.649,5.699-18.945,22.647-18.457,33.516c0.234,5.227,2.852,5.692,8.087,5.878
		c7.8,0.279,15.72-0.326,23.604,0.058c9.308,0.454,17.864,1.142,14.937-9.823c-1.896-7.102-5.622-12.324-9.336-18.457
		c-2.223-3.671-4.361-9.351-8.148-11.536C427.321,344.251,424.392,348.32,422.167,347.808z"/>
</g>
<g>
	<path style="fill:#473A2B;" d="M79.726,399.296c-4.48,2.687-6.52,9.912-7.042,14.81c-0.61,5.728,0.537,6.646-2.934,10.869
		c-5.143,6.255-6.27,29.706,2.421,34.069c3.186,1.6,10.688-0.149,14.264-0.003c3.931,0.161,8.101,1.046,12.01,0.284
		c3.541-0.691,2.378,0.514,4.232-2.713c3.808-6.626,4.549-22.549-0.116-28.906c-1.146-1.561-3.789-1.759-4.738-3.253
		c-3.905-6.145,2.231-15.742-1.097-22.644C93.757,395.655,84.88,394.351,79.726,399.296z"/>
	<path style="fill:#473A2B;" d="M419.738,396.382c-3.88,4.872-4.779,11.053-5.369,16.987c-0.25,2.523,0.198,5.615-0.479,8.047
		c-0.775,2.784-0.848,1.742-2.652,4.442c-3.069,4.594-3.194,11.427-3.181,16.804c0.016,6.039-1.285,14.824,4.725,16.864
		c13.478,4.574,30.725,4.166,33.076-11.765c0.836-5.671,1.897-11.299,0.095-16.903c-1.581-4.915-6.242-6.382-7.278-10.913
		c-1.275-5.58-0.064-11.377-3.206-17.01C432.38,397.394,425.645,391.641,419.738,396.382z"/>
	<path style="fill:#473A2B;" d="M346.879,151.573c1.444-3.923-0.291-19.105,7.298-18.468c5.04,0.423,7.799,14.756,6.219,18.383
		C356.41,151.862,352.452,152.058,346.879,151.573z"/>
	<path style="fill:#473A2B;" d="M152.1,152.545c0.12-3.853,0.547-25.986,8.853-15.569c1.755,2.202,3.936,9.495,3.774,12.171
		c-0.397,6.56-8.304,1.693-13.113,4.369"/>
</g>
<g>
	<path style="fill:#B29974;" d="M155.229,69.586c-4.668,3.99-8.588,13.322-10.577,17.949c-2.807,6.527-6.291,15.017-5.667,22.251
		c0.885,10.24,29.079,6.679,35.236,5.339c10.277-2.237,6.046-17.734,3-25.035c-2.662-6.38-11.032-25.689-19.772-21.936
		C156.695,68.478,155.954,68.968,155.229,69.586z"/>
	<path style="fill:#B29974;" d="M349.306,68.998c-9.189,7.947-14.495,24.103-14.567,35.949c-0.017,2.835-0.743,8.179,1.09,10.668
		c2.473,3.356,9.539,2.182,13.426,1.982c5.003-0.258,21.893,0.888,24.966-3.293c4.132-5.622-2.42-18.459-5.106-23.556
		c-2.505-4.752-5.983-8.564-8.758-12.98c-1.256-2.001-1.757-3.98-3.255-5.842C353.362,67.271,352.42,69.564,349.306,68.998z"/>
</g>
<g>
	<path style="fill:#89704E;" d="M162.3,70.942c-1.454,10.505-7.184,22.208-2.805,32.92c2.168,5.304,9.111,11.987-0.798,11.772
		c-4.813-0.105-13.605,0.655-18.013-1.522c-6.374-3.148-1.892-17.338,0.783-23.071C144.238,85.104,153.979,66.651,162.3,70.942z"/>
	<path style="fill:#89704E;" d="M349.306,69.969c-6.488,9.289-24.616,31.516-14.218,43.837c4.118,4.879,17.244,4.829,22.499,2.768
		c9.58-3.76-1.764-17.734-3.081-24.627c-1.125-5.892-0.564-11.708-0.33-17.509C354.489,66.71,351.711,71.105,349.306,69.969z"/>
</g>
<path d="M95.94,351.377c-2.63-3.717-6.431-9.266-11.761-8.775c-2.994,0.276-4.852,3.161-6.974,4.981
	c-2.906,2.494-5.684,5.557-7.979,8.638c-3.51,4.708-6.276,9.41-7.529,14.641c-1.455,3.613-2.538,7.436-3.121,10.957
	c-0.778,4.714,0.333,8.255,5.432,8.929c7.737,1.023,15.978-1.598,23.739-1.433c3.881,0.083,7.755-0.124,11.629-0.155
	c2.854-0.022,5.674,0.372,8.067-1.58c4.762-3.888,2.052-11.772,0.031-16.375C104.444,364.306,100.295,357.533,95.94,351.377z
	 M101.655,384.432c-0.758-0.092-1.519-0.123-2.28-0.094c-5.968,0.916-12.146-0.33-18.113,0.485
	c-4.183,0.571-8.548,0.761-12.783,1.175c-3.542,0.346-6.061,0.746-5.336-3.76c2.11-13.113,10.107-22.571,18.256-32.272
	c1.869-1.382,3.756-2.103,5.446-1.465c2.685,1.016,4.922,5.364,6.52,7.628c1.89,2.678,3.717,5.691,5.064,8.681
	c1.263,2.807,3.068,5.184,4.396,7.946c0.833,1.733,1.89,4.173,1.97,6.109C105.528,381.098,104.483,382.954,101.655,384.432z"/>
<path d="M152.746,154.82c3.795-0.581,8.108-0.332,11.852,0.346c0.907,0.164,2.191-0.241,2.342-1.33
	c0.34-2.441,0.069-4.589-0.489-6.967c-0.575-2.45-0.74-5.108-1.711-7.439c-1.417-3.399-3.947-7.465-8.257-6.066
	c-4.245,1.38-5.79,5.882-6.267,9.917C149.961,145.436,148.996,155.394,152.746,154.82z M155.984,137.922
	c3.506-4.531,5.918,3.704,6.258,5.813c0.38,2.371,1.178,4.858,1.18,7.291c-1.735-0.263-3.407-0.276-5.312-0.322
	c-1.482-0.035-2.939-0.178-4.336,0.037C153.335,146.505,153.415,141.244,155.984,137.922z"/>
<path d="M510.743,297.779c-2.291-4.118-8.336-3.606-12.47-3.352c-0.215-0.019-0.432-0.048-0.649-0.064
	c1.386-4.025-0.002-9.661,0.112-13.553c0.121-4.123,1.259-8.798-0.408-12.604c1.523-0.066,3.037-0.168,4.535-0.366
	c5.194-0.69,5.905-4.459,6.764-9.093c1.597-8.614-6.774-8.865-14.419-8.329c-2.12-0.288-4.243-0.549-6.373-0.75
	c0.974-6.099,1.524-13.723-6.273-14.195c-10.176-0.617-20.413-1.267-30.624-1.302c-4.437-0.015-8.625,0.651-13.004,0.718
	c-5.335,0.081-10.704-0.123-16.042-0.158c-9.889-0.065-19.713,0.522-29.637,0.463c-4.794-0.028-9.627,0.006-14.46,0.099
	c0.551-3.092-0.134-7.002,0.149-9.586c0.561-5.104,1.226-10.437,0.655-15.54c-0.653-5.827,0.277-11.633,0.221-17.51
	c-0.048-4.901,0.592-10.469-1.255-15.119c0.903-0.009,1.793-0.052,2.656-0.154c6.64-0.782,3.96-8.326,3.534-12.893
	c-0.149-1.591-1.134-2.508-2.686-2.686c-1.281-0.147-2.565-0.294-3.852-0.437c0.656-3.329,0.254-7.381,0.251-9.853
	c-0.008-7.526,0.678-15.768-1.352-23.132c0.163,0,0.326,0,0.489,0c3.091-0.005,5.668-0.387,6.376-3.848
	c0.949-4.642-2.095-8.129-5.949-9.376c0.72-2.281,0.707-5.778,0.578-7.842c-0.214-3.396-1.447-7.28-2.679-10.441
	c-1.58-4.057-3.632-8.003-5.966-11.759c-0.942-2.576-2.11-5.127-3.694-7.692c-2.154-3.492-6.21-9.966-10.884-12.004
	c0.439-2.6,0.548-6.961,0.554-7.484c0.044-4.343-0.016-8.726-0.266-13.062c-0.178-3.072-4.593-3.068-4.772,0
	c-0.334,5.762-0.308,11.557-0.177,17.324c0.016,0.724,0.016,1.771,0.129,2.839c-6.299,1.908-9.985,10.685-12.95,15.859
	c-1.876,3.275-3.107,6.758-4.096,10.421c-1.003,3.711-2.439,7.688-3.098,11.44c-0.571,3.258-1.044,8.72,0.654,12.358
	c-3.663,1.391-5.368,8.506-2.064,11.152c0.71,0.569,1.548,0.93,2.446,1.17c-1.197,4.379-1.375,9.518-1.846,13.816
	c-0.256,2.329-0.407,4.73-0.475,7.154c-4.465-0.782-9.136-0.467-13.645-0.499c-5.177-0.037-10.354-0.108-15.53-0.033
	c-0.639,0.009-1.273,0.026-1.909,0.038c-6.081-0.94-12.463-0.924-18.481-0.754c-3.59,0.101-7.054,0.764-10.691,0.769
	c-3.937,0.006-7.968-0.254-11.89,0.1c-7.199,0.648-14.386,0.684-21.64,0.701c-2.602-0.457-5.219-0.81-7.921-0.722
	c-4.674,0.151-9.279-0.064-13.967-0.133c-5.177-0.076-10.354-0.005-15.53,0.033c-4.509,0.033-9.181-0.283-13.645,0.499
	c-0.069-2.423-0.22-4.824-0.475-7.154c-0.471-4.297-0.649-9.437-1.846-13.816c0.897-0.241,1.736-0.601,2.446-1.17
	c3.304-2.645,1.6-9.759-2.064-11.152c1.697-3.638,1.225-9.1,0.653-12.358c-0.658-3.752-2.095-7.729-3.098-11.44
	c-0.99-3.663-2.22-7.145-4.096-10.421c-2.965-5.173-6.651-13.949-12.95-15.859c0.114-1.068,0.114-2.115,0.129-2.839
	c0.13-5.768,0.157-11.562-0.177-17.324c-0.178-3.068-4.593-3.072-4.772,0c-0.251,4.336-0.312,8.719-0.266,13.062
	c0.006,0.522,0.115,4.884,0.554,7.484c-4.675,2.037-8.73,8.512-10.884,12.004c-1.582,2.565-2.75,5.116-3.694,7.692
	c-2.334,3.756-4.386,7.701-5.966,11.759c-1.232,3.161-2.465,7.045-2.679,10.441c-0.129,2.064-0.142,5.561,0.578,7.842
	c-3.854,1.247-6.9,4.735-5.949,9.376c0.708,3.46,3.285,3.844,6.376,3.848c0.163,0,0.326,0,0.489,0
	c-2.03,7.364-1.344,15.606-1.352,23.132c-0.002,2.472-0.405,6.524,0.251,9.853c-1.285,0.143-2.571,0.291-3.852,0.437
	c-1.552,0.178-2.537,1.095-2.686,2.686c-0.426,4.568-3.106,12.113,3.534,12.893c0.863,0.101,1.753,0.144,2.656,0.154
	c-1.847,4.65-1.208,10.219-1.255,15.119c-0.057,5.876,0.874,11.682,0.22,17.51c-0.571,5.102,0.094,10.436,0.655,15.54
	c0.283,2.584-0.403,6.493,0.149,9.586c-4.832-0.092-9.666-0.127-14.46-0.099c-9.923,0.058-19.748-0.528-29.637-0.463
	c-5.339,0.035-10.707,0.24-16.042,0.158c-4.379-0.066-8.566-0.732-13.004-0.718c-10.211,0.034-20.448,0.684-30.623,1.302
	c-7.797,0.473-7.246,8.096-6.273,14.195c-2.13,0.201-4.252,0.462-6.373,0.75c-7.644-0.535-16.017-0.285-14.418,8.329
	c0.859,4.634,1.57,8.402,6.764,9.093c1.497,0.199,3.013,0.3,4.536,0.366c-1.667,3.805-0.529,8.481-0.408,12.604
	c0.114,3.891-1.275,9.527,0.112,13.553c-0.218,0.016-0.433,0.045-0.649,0.064c-4.133-0.255-10.179-0.768-12.47,3.352
	c-1.856,3.336-1.98,13.366,1.824,15.733c2.025,1.26,4.759,0.47,6.966,0.528c1.416,0.037,2.779,0.126,4.134,0.218
	c-1.671,11.981-1.427,23.892-1.577,36.012c-0.085,6.979-0.108,13.958-0.145,20.936c-0.03,5.736,0.923,11.305,0.817,16.974
	c-0.223,11.983,0.307,24.274-1.294,36.123c-0.796,5.891-0.46,11.909-0.462,17.861c-0.001,2.332-0.168,4.673-0.087,6.937
	c-0.949,2.871-1.678,6.431,0.016,8.571c2.637,3.335,9.132,2.551,12.722,3.01c12.445,1.59,24.86,0.593,37.364,1.313
	c11.55,0.665,22.952,1.42,34.55,1.44c6.946,0.012,13.904-0.086,20.848,0.086c2.723,0.067,6.254,0.284,9.253-0.493
	c1.005,1.402,1.987,2.919,2.89,3.454c2.137,1.266,4.865,1.323,7.264,1.415c9.906,0.378,19.843-0.166,29.739,0.034
	c6.263,0.127,32.977,5.628,33.919-5.275c-0.015,0.179,9.649-0.719,10.558-0.947c1.659-0.415,3.581-0.206,5.171-0.719
	c1.888-0.608,1.965-2.414,2.025-4.183c0.205-5.917-0.062-11.894-0.152-17.813c-0.184-11.931-0.527-23.86-1.076-35.779
	c-0.341-7.394-0.779-14.68-0.938-22.117c-0.079-3.746-0.64-2.505,2.837-3.758c2.199-0.791,5.031-1.151,7.092-2.189
	c4.248-2.141,3.085-6.019,0.742-9.118c-4.755-6.288-6.733-13.162-4.45-20.931c2.084-7.093,7.569-13.285,12.979-18.09
	c2.567-2.279,5.308-4.127,7.659-6.638c0.136-0.145,0.283-0.279,0.425-0.42c4.601-2.677,9.827-5.775,15.319-5.855
	c1.697-0.024,3.64,0.526,5.606,1.372c1.879,1.648,4.016,3.054,5.749,4.903c2.351,2.51,5.092,4.359,7.659,6.638
	c5.411,4.805,10.896,10.997,12.979,18.09c2.284,7.77,0.305,14.643-4.45,20.931c-2.344,3.099-3.507,6.978,0.742,9.118
	c2.06,1.039,4.893,1.397,7.092,2.189c3.477,1.253,2.918,0.012,2.837,3.758c-0.158,7.437-0.597,14.723-0.938,22.117
	c-0.514,11.169-0.695,22.35-0.867,33.528c-0.08,5.238-0.579,10.698-0.044,15.884c0.342,3.306-0.494,8.383,3.917,8.712
	c2.003,0.15,3.863,0.704,5.857,0.942c2.542,0.305,5.113,0.192,7.663,0.373c0.943,10.903,27.656,5.401,33.919,5.275
	c9.898-0.2,19.835,0.344,29.741-0.034c2.4-0.092,5.127-0.149,7.264-1.415c0.903-0.535,1.885-2.052,2.89-3.454
	c2.999,0.777,6.53,0.561,9.253,0.493c6.944-0.172,13.902-0.074,20.848-0.086c11.597-0.02,23.001-0.775,34.55-1.44
	c12.503-0.72,24.919,0.278,37.364-1.313c3.59-0.46,10.084,0.325,12.721-3.01c1.694-2.142,0.966-5.701,0.016-8.571
	c0.079-2.265-0.086-4.604-0.087-6.937c-0.002-5.952,0.334-11.97-0.462-17.861c-1.601-11.849-1.07-24.139-1.294-36.123
	c-0.106-5.669,0.848-11.238,0.817-16.974c-0.037-6.979-0.061-13.959-0.145-20.936c-0.15-12.12,0.093-24.03-1.576-36.012
	c1.355-0.093,2.719-0.18,4.134-0.218c2.207-0.059,4.941,0.732,6.966-0.528C512.724,311.145,512.598,301.116,510.743,297.779z
	 M335.223,103.556c0.684-3.534,1.944-7.289,2.925-10.769c1.843-6.537,5.449-11.907,8.953-17.606
	c2.406-3.913,5.204-3.697,7.861-1.766c0.906,1.101,1.698,2.349,2.357,3.162c2.384,2.943,4.197,6.089,6.358,9.175
	c0.909,1.299,1.796,2.678,2.636,4.109c1.617,3.541,3.01,7.246,4.668,10.778c0.579,2.149,0.946,4.328,1.007,6.494
	c0.045,1.595-0.016,3.279-0.536,4.827c-0.265,0.793-0.344,1.085-0.361,1.151c0.016-0.074,0.068-0.39-0.144-0.299
	c-2.441,1.046-7.577-0.491-10.251-0.42c-7.554,0.201-14.857,1.404-22.463,0.122c-2.327-0.392-2.351,0.436-3.02-2.141
	C334.645,108.187,334.801,105.739,335.223,103.556z M332.266,121.256c-0.087-1.795,0.498-2.184,1.598-2.826
	c0.211,0.073,0.409,0.158,0.639,0.211c7.909,1.807,17.054,0.883,25.022,0.095c2.894-0.286,5.845,0.392,8.741,0.447
	c3.584,0.066,6.359-0.657,9.546,1.546c0.258,0.179,0.518,0.378,0.661,0.657c0.314,0.611-0.06,1.394-0.638,1.767
	c-0.384,0.248-0.797,0.392-1.226,0.469c-1.224,0.22-2.579-0.106-3.772-0.116c-6.423-0.052-12.849,0.024-19.272-0.023
	c-3.574-0.027-7.031-0.884-10.593-0.948c-2.499-0.045-5.003,0.291-7.504,0.211c-0.625-0.02-1.661,0.184-2.241-0.057
	c-0.813-0.339-1.244-0.462-1.452-0.504C331.982,122.157,332.302,121.985,332.266,121.256z M371.087,157.262
	c-0.049,0.522-0.879,3.01-0.51,3.503c-3.789-0.241-7.577-0.225-11.337,0.327c-2.221-0.262-4.439-0.591-6.694-0.575
	c-4.615,0.034-9.408-0.401-13.99,0.013c-1.31,0.119-2.594,0.585-3.897,0.708c0.446-7.082-0.27-14.191,0.477-21.242
	c0.423-4.002,1.142-8.219,0.342-12.16c0.913-0.026,1.802-0.077,2.612-0.102c6.517-0.206,12.894,0.757,19.429,0.69
	c4.97-0.051,9.943-0.044,14.913-0.042C369.86,137.73,371.969,147.733,371.087,157.262z M330.141,167.112
	c0.276,0.037,0.551,0.074,0.826,0.111c1.686,0.178,3.207,0.242,4.882,0.121c7.536-0.544,14.943-0.714,22.463,0.121
	c3.067,0.341,6.182,0.344,9.246-0.017c1.936-0.229,4.62-0.173,6.472-1.073c1.462,0.128,2.922,0.279,4.376,0.458
	c-0.006,0.927,0.013,1.852,0.206,2.759c0.023,0.106,0.977,2.68,0.982,2.67c0.262-0.507-7.028-0.375-7.636-0.294
	c-6.925,0.917-13.897,0.123-20.763,0.269c-5.828,0.123-12.619,0.649-18.491,0.034c-2.573-0.27-4.994-2.167-4.466-5.219
	C328.685,167.085,329.304,167.107,330.141,167.112z M372.46,193.557c-0.05,5.363-1.142,10.781-0.468,16.102
	c0.755,5.973-0.466,11.815-1.025,17.752c-0.222,2.374-0.306,5.499,0.556,8.048c-3.382,0.107-6.758,0.242-10.115,0.42
	c1.056-3.322,0.415-7.065,0.428-10.532c0.022-5.796,0.463-11.539,0.683-17.325c0.229-6.044,0.857-12.462,0.066-18.475
	c-0.359-2.727-1.779-8.251-1.211-11.751c2.755-0.152,5.517-0.371,8.26-0.429c1.339-0.029,2.73,0.028,4.126,0.084
	C371.761,182.367,372.508,188.403,372.46,193.557z M357.503,235.665c-0.057,0.135-0.09,0.265-0.109,0.393
	c-4.307,0.158-8.55,0.164-12.898,0.218c-0.359,0.005-0.714,0.022-1.07,0.037c0.02-5.526-0.238-11.052-0.226-16.573
	c0.01-4.713,0.796-9.288,0.764-14.025c-0.059-9.323,0.575-18.949,0.058-28.232c4.196,0.157,8.384,0.436,12.563,0.464
	c0.436,0.002,0.876-0.019,1.313-0.027c-0.301,1.946-0.088,4.045-0.133,6.038c-0.122,5.551,1,10.974,0.812,16.605
	c-0.213,6.331-0.568,12.67-0.711,19.002C357.758,224.379,359.173,231.119,357.503,235.665z M340.017,204.689
	c-0.01,5.078-0.881,9.99-0.881,15.051c0,5.629-0.024,11.277,0.035,16.909c-2.528,0.266-5.047,0.575-7.637,0.569
	c-0.053,0-0.107,0.001-0.159,0.001c0.183-0.404,0.304-0.867,0.33-1.397c0.285-5.557,0.086-11.167,0.038-16.732
	c-0.035-4.151,0.639-8.062,0.722-12.167c0.188-9.23,0.9-20.093-1.161-29.337c1.124,0.023,2.293-0.03,3.463-0.095
	c2.047-0.115,4.094-0.128,6.137-0.093C338.497,185.776,340.036,196.087,340.017,204.689z M183.592,154.272
	c4.46,0.778,9.126,0.464,13.631,0.497c5.177,0.037,10.354,0.115,15.53,0.033c3.239-0.051,6.419-0.322,9.574-0.69
	c3.953,0.277,8.03,0.143,11.434,0.192c7.215,0.106,14.66,0.7,21.8-0.185c10.157-1.261,20.725-0.14,31.09-0.385
	c4.15,0.565,8.324,1,12.599,1.068c5.177,0.083,10.354,0.005,15.53-0.033c4.504-0.033,9.171,0.282,13.631-0.497
	c0.043,2.152,0.131,4.292,0.261,6.38c-0.372-0.034-0.747-0.059-1.121-0.056c-6.771,0.056-5.056,6.954-4.077,11.544
	c0.021,0.1,0.05,0.186,0.074,0.283c-1.472,0.155-2.94,0.403-4.207,0.435c-6.301,0.162-12.691-0.136-19.005-0.138
	c-4.459-0.002-8.783,0.18-13.155,0.465c-9.234-2.422-19.796-0.036-29.143-0.012c-6.084,0.016-12.103,0.227-18.129-0.358
	c-3.099-0.301-7.303-0.409-10.621,0.693c-5.925-0.464-11.651-0.791-17.62-0.789c-6.315,0.002-12.705,0.3-19.005,0.138
	c-1.267-0.033-2.736-0.28-4.207-0.435c0.024-0.097,0.054-0.183,0.074-0.283c0.978-4.589,2.693-11.488-4.077-11.544
	c-0.375-0.004-0.749,0.022-1.121,0.056C183.46,158.564,183.549,156.424,183.592,154.272z M325.562,206.922
	c-0.353,9.618-1.261,19.186-0.763,28.899c0.029,0.562,0.158,1.052,0.361,1.472c-8.621,0.191-17.208,0.695-25.825,0.64
	c-5.449-0.035-10.772,0.691-16.213,0.754c-2.136,0.024-4.01,0.199-5.836,0.472c-1.605-0.002-3.213,0.038-4.805,0.037
	c-6.716-0.008-13.429-0.15-20.113,0.478c-5.287,0.497-10.592-0.012-15.91-0.223c-2.389-0.446-4.757-0.731-7.573-0.763
	c-5.441-0.063-10.764-0.789-16.213-0.754c-8.617,0.055-17.203-0.45-25.825-0.64c0.202-0.42,0.33-0.91,0.361-1.472
	c0.498-9.714-0.412-19.281-0.763-28.899c-0.354-9.671,1.066-20.107-1.091-29.659c3.091,0.704,6.562,0.761,9.39,0.772
	c6.347,0.026,12.694,0.01,19.041,0c8-0.013,16.184,0.763,24.068-0.429c0.127,0.01,0.255,0.017,0.382,0.031
	c6.26,0.665,12.31,1.009,18.659,1.095c5.943,0.08,11.768-0.492,17.699-0.485c2.782,0.003,5.669,0.08,8.538,0.017
	c5.023,0.062,10.094-0.237,15.092-0.229c6.347,0.01,12.694,0.026,19.041,0c2.829-0.012,6.299-0.07,9.39-0.772
	C324.496,186.815,325.915,197.251,325.562,206.922z M140.018,107.135c0.063-2.167,0.428-4.345,1.007-6.494
	c1.659-3.532,3.051-7.238,4.668-10.778c0.84-1.431,1.726-2.808,2.636-4.109c2.159-3.087,3.974-6.233,6.358-9.175
	c0.658-0.813,1.451-2.063,2.357-3.162c2.657-1.93,5.454-2.148,7.861,1.766c3.505,5.699,7.11,11.069,8.953,17.606
	c0.981,3.48,2.241,7.235,2.925,10.769c0.422,2.184,0.578,4.631,0.012,6.818c-0.669,2.578-0.693,1.748-3.02,2.141
	c-7.606,1.282-14.909,0.079-22.463-0.122c-2.674-0.071-7.811,1.466-10.251,0.42c-0.212-0.091-0.161,0.225-0.144,0.299
	c-0.017-0.065-0.095-0.358-0.362-1.151C140.033,110.415,139.972,108.73,140.018,107.135z M135.395,123.622
	c-0.429-0.077-0.842-0.221-1.226-0.469c-0.577-0.372-0.95-1.155-0.637-1.767c0.143-0.279,0.404-0.479,0.661-0.657
	c3.188-2.203,5.962-1.48,9.546-1.546c2.896-0.054,5.846-0.733,8.741-0.447c7.968,0.788,17.113,1.711,25.022-0.095
	c0.228-0.052,0.428-0.137,0.639-0.211c1.101,0.642,1.686,1.031,1.598,2.826c-0.035,0.729,0.284,0.902,0.49,0.928
	c-0.208,0.041-0.639,0.165-1.452,0.504c-0.579,0.241-1.616,0.037-2.241,0.057c-2.5,0.08-5.005-0.256-7.503-0.211
	c-3.563,0.064-7.02,0.92-10.593,0.948c-6.423,0.048-12.849-0.028-19.272,0.023C137.974,123.515,136.618,123.842,135.395,123.622z
	 M140.918,157.262c-0.883-9.529,1.227-19.532-1.346-28.88c4.97-0.002,9.943-0.009,14.913,0.042
	c6.534,0.067,12.913-0.896,19.429-0.69c0.81,0.026,1.698,0.077,2.612,0.102c-0.8,3.941-0.081,8.158,0.342,12.16
	c0.747,7.051,0.031,14.16,0.477,21.242c-1.302-0.123-2.587-0.59-3.897-0.708c-4.582-0.414-9.375,0.021-13.99-0.013
	c-2.255-0.016-4.473,0.313-6.694,0.575c-3.76-0.551-7.548-0.568-11.337-0.327C141.798,160.273,140.967,157.784,140.918,157.262z
	 M132.412,172.262c0.005,0.009,0.959-2.564,0.982-2.67c0.193-0.909,0.212-1.833,0.206-2.759c1.454-0.178,2.914-0.329,4.376-0.458
	c1.853,0.899,4.536,0.845,6.472,1.073c3.065,0.362,6.181,0.358,9.246,0.017c7.52-0.835,14.926-0.665,22.463-0.121
	c1.675,0.121,3.197,0.057,4.883-0.121c0.275-0.037,0.55-0.073,0.826-0.111c0.838-0.005,1.455-0.027,1.902-0.062
	c0.528,3.051-1.893,4.949-4.466,5.219c-5.872,0.617-12.663,0.09-18.491-0.034c-6.865-0.145-13.838,0.649-20.763-0.269
	C139.439,171.887,132.149,171.755,132.412,172.262z M179.538,206.922c0.084,4.105,0.757,8.017,0.722,12.167
	c-0.048,5.565-0.247,11.174,0.038,16.732c0.027,0.53,0.148,0.993,0.33,1.397c-0.052,0-0.106-0.001-0.159-0.001
	c-2.591,0.006-5.109-0.302-7.637-0.569c0.06-5.632,0.035-11.28,0.035-16.909c0-5.063-0.87-9.974-0.881-15.051
	c-0.02-8.602,1.52-18.912-0.89-27.292c2.044-0.034,4.09-0.021,6.137,0.093c1.171,0.065,2.341,0.12,3.463,0.095
	C178.638,186.829,179.35,197.692,179.538,206.922z M154.138,219.564c-0.143-6.332-0.499-12.671-0.711-19.002
	c-0.188-5.632,0.935-11.054,0.812-16.605c-0.044-1.993,0.169-4.091-0.133-6.038c0.437,0.007,0.877,0.029,1.313,0.027
	c4.179-0.028,8.367-0.307,12.563-0.464c-0.517,9.282,0.117,18.91,0.058,28.232c-0.03,4.737,0.754,9.312,0.764,14.025
	c0.013,5.521-0.245,11.047-0.226,16.573c-0.356-0.015-0.711-0.033-1.07-0.037c-4.347-0.054-8.591-0.059-12.898-0.218
	c-0.02-0.128-0.052-0.259-0.109-0.393C152.832,231.119,154.247,224.379,154.138,219.564z M149.486,208.023
	c0.22,5.786,0.661,11.53,0.683,17.325c0.014,3.466-0.628,7.208,0.428,10.532c-3.359-0.179-6.733-0.314-10.115-0.42
	c0.861-2.549,0.778-5.674,0.556-8.048c-0.557-5.936-1.78-11.779-1.025-17.752c0.675-5.321-0.418-10.739-0.468-16.102
	c-0.048-5.154,0.7-11.189-1.298-16.105c1.396-0.057,2.787-0.113,4.126-0.084c2.742,0.059,5.504,0.278,8.26,0.429
	c0.568,3.498-0.852,9.024-1.211,11.751C148.629,195.562,149.257,201.979,149.486,208.023z M29.165,244.858
	c0.725-3.424,0.629-3.419,4.111-3.512c5.027-0.135,10.25-0.302,15.258-0.783c4.47-0.428,8.86-0.3,13.348-0.341
	c4.153-0.037,8.036,0.807,12.186,0.802c8.906-0.012,17.884-0.401,26.729,0.626c9.759,1.133,19.879-0.056,29.692,0.343
	c9.656,0.393,19.394,1.253,29.054,1.351c8.425,0.086,16.677,0.695,25.117,0.698c10.134,0.005,20.169,0.585,30.298,0.725
	c7.173,0.099,14.456,0.962,21.667,0.53c5.528,0.302,11.046,0.829,16.567,0.348c7.462-0.65,15.015-0.321,22.516-0.332
	c7.104,0.386,14.275-0.45,21.341-0.548c10.129-0.14,20.164-0.72,30.298-0.725c8.44-0.003,16.693-0.612,25.117-0.698
	c9.66-0.099,19.398-0.959,29.054-1.351c9.814-0.399,19.934,0.789,29.692-0.343c8.845-1.026,17.821-0.638,26.729-0.626
	c4.148,0.006,8.032-0.839,12.186-0.802c4.487,0.041,8.879-0.088,13.348,0.341c5.009,0.48,10.231,0.648,15.258,0.783
	c3.482,0.093,3.386,0.088,4.111,3.512c0.3,1.42,0.371,2.953,0.484,4.46c-8.218-0.526-16.484-0.371-24.721,0.6
	c-9.642,1.138-19.549,0.59-29.275,0.568c-9.558-0.021-19.141,0.24-28.654-0.578c-4.352-0.375-8.555,0.469-12.908,0.515
	c-5.194,0.056-10.401-0.152-15.593-0.015c-9.372,0.249-18.666,0.688-28.061,0.685c-10.617-0.002-21.234-0.009-31.851-0.001
	c-5.19,0.005-10.446,0.292-15.626,0.016c-0.349-0.019-0.688-0.041-1.03-0.062c-0.102-0.007-0.206-0.012-0.309-0.019
	c-2.782-0.177-5.38-0.376-8.048-0.034c-3.794,0.131-7.549,0.379-11.016,0.379c-10.121-0.001-20.334-0.347-30.447,0.107
	c-5.571,0.25-11.169,0.695-16.76,0.793c-0.214-0.209-0.463-0.393-0.791-0.501c-4.407-1.458-8.35-0.904-12.868-0.663
	c-0.943,0.05-1.89,0.065-2.837,0.084c-2.437-0.255-4.95-0.377-7.224-0.027c-1.859-0.035-3.715-0.071-5.563-0.073
	c-10.617-0.008-21.234-0.001-31.851,0.001c-9.395,0.001-18.689-0.437-28.061-0.685c-5.192-0.137-10.399,0.071-15.593,0.015
	c-4.352-0.047-8.555-0.89-12.908-0.515c-9.513,0.818-19.096,0.556-28.654,0.578c-9.727,0.022-19.634,0.569-29.275-0.568
	c-8.236-0.971-16.504-1.126-24.721-0.6C28.793,247.811,28.865,246.279,29.165,244.858z M12.47,261.43
	c-2.288,0.05-2.982-0.305-2.849-3.072c0.101-2.144-0.875-1.393,1.377-2.448c5.355,0.671,10.685-0.064,16.169-0.493
	c8.954-0.7,18.783,0.049,27.652,1.163c8.695,1.092,17.999,0.285,26.762,0.291c9.919,0.007,19.873,0.323,29.748-0.499
	c4.338-0.361,8.564,0.503,12.908,0.55c4.83,0.055,9.664-0.028,14.495,0.027c9.718,0.111,19.412,0.692,29.159,0.691
	c10.617-0.002,21.234-0.008,31.851-0.001c5.946,0.004,12.154,0.333,18.214-0.158c1.102,0.141,2.205,0.278,3.307,0.4
	c8.866,0.983,17.899-0.284,26.765-0.368c9.399-0.088,18.805,0.049,28.205,0.05c6.679,0.001,14.513,0.928,21.563,0.127
	c4.85,0.159,9.739-0.05,14.464-0.052c10.617-0.007,21.234-0.001,31.851,0.001c9.748,0.001,19.44-0.581,29.159-0.691
	c4.831-0.055,9.665,0.027,14.495-0.027c4.343-0.049,8.57-0.912,12.908-0.55c9.874,0.821,19.829,0.506,29.748,0.499
	c8.763-0.006,18.068,0.802,26.762-0.291c8.869-1.114,18.697-1.864,27.652-1.163c5.485,0.429,10.815,1.164,16.169,0.493
	c2.252,1.056,1.277,0.305,1.377,2.448c0.131,2.768-0.561,3.124-2.849,3.072c-12.766-0.283-25.426,0.421-38.16,0.622
	c-6.999,0.111-13.704,0.729-20.736,0.297c-6.835-0.421-13.492,0.518-20.306-0.057c-21.758-1.839-43.478,0.08-65.224,0.138
	c-9.559,0.026-18.98,1.248-28.5,1.404c-11.925,0.197-23.839,0.839-35.764,1.05c-4.889,0.086-9.472,0.45-14.396,0.352
	c-3.924-0.078-7.94,0.108-11.783,1.002c-4.047,0.229-8.101,0.41-12.166,0.479c-1.16,0.02-2.314,0.002-3.467-0.028
	c-4.345-1.279-8.97-1.541-13.474-1.452c-4.924,0.098-9.507-0.265-14.396-0.352c-11.925-0.212-23.839-0.854-35.764-1.05
	c-9.521-0.157-18.941-1.379-28.5-1.404c-21.746-0.058-43.467-1.978-65.224-0.138c-6.814,0.576-13.471-0.363-20.306,0.057
	c-7.032,0.433-13.738-0.186-20.736-0.297C37.896,261.851,25.237,261.147,12.47,261.43z M491.959,272.119
	c0.074,3.219-0.66,6.418-0.765,9.641c-0.1,3.026,0.27,6.234-0.055,9.236c-0.069,0.626,0.124,0.653-0.001,1.251
	c-0.079,0.385-0.654,1.041-0.804,1.503c-0.042,0.127-0.058,0.244-0.087,0.365c-1.224-0.005-15.988-0.259-15.973-0.458
	c0.008-0.101,0.009-0.201-0.002-0.299c-0.549-4.696-0.561-9.447-1.294-14.132c-0.287-1.842-3.428-1.839-3.716,0
	c-0.692,4.425-1.611,10.005-0.234,14.404c-2.485,0.09-4.956,0.298-7.597,0.508c-1.968,0.157-3.944,0.069-5.919-0.088
	c-0.007-3.991,0.337-8.128-0.458-12.068c-0.359-1.78-1.51-3.849-3.298-2.516c-1.617,1.204-1.173,4.516-1.162,6.208
	c0.009,1.388-0.591,2.484-0.821,3.831c-0.22,1.288-0.243,2.676-0.192,4.031c-0.767-0.053-1.532-0.097-2.298-0.111
	c-2.633-0.05-5.262,0.022-7.892,0.141c0.164-0.763,0.199-1.575,0.087-2.343c-0.307-2.124-0.587-11.565-3.62-11.518
	c-2.352,0.036-2.395,4.11-2.343,5.685c0.069,2.01,0.781,7.228-1.075,8.547c-1.794,1.276-8.362,0.364-10.592,0.351
	c1.832,0.008,0.59-6.942,0.462-7.845c-0.214-1.519-0.792-10.159-3.674-7.398c-1.903,1.822-1.702,4.387-1.735,6.823
	c-0.035,2.665-0.917,5.574-0.621,8.22c-2.882-0.173-5.784-0.361-8.689-0.464c0.252-2.134-0.171-4.351-0.159-6.466
	c0.013-2.351-0.108-4.454-1.203-6.604c-0.978-1.923-3.241-2.769-4.033-0.219c-0.413,1.337-0.332,4.253-0.37,5.734
	c-0.065,2.495,0.141,5.017-0.13,7.498c-2.449,0.051-4.891,0.211-7.318,0.543c0.444-3.372,0.048-10.648-2.13-13.464
	c-3.085-3.988-4.838,3.742-4.372,6.062c0.543,2.69,0.677,5.195,0.347,7.876c-2.238,0.042-4.478,0.037-6.721-0.1
	c-0.415-2.77-1.745-5.859-2.043-7.957c-0.563-3.983-1.142-8.37-2.211-12.239c-0.668-2.415-1.933-4.572-3.007-6.752
	c2.875,0.135,5.718,0.404,8.624,0.489c2.194,0.064,4.414-0.204,6.636-0.472c4.023,0.708,8.122,0.884,12.495,1.102
	c4.451,0.222,8.901-0.045,13.353,0.008c3.933,0.048,7.869,0.824,11.797,0.641c4.232-0.197,8.101-0.658,12.377-0.407
	c4.474,0.263,8.947,0.693,13.432,0.393c7.742-0.518,15.498-0.921,23.246-1.282c5.194-0.242,10.541,0.171,15.838,0.268
	C491.8,269.426,491.925,270.614,491.959,272.119z M324.047,385.909c-0.797-10.477,0.023-21.48-0.02-32.063
	c-0.021-5.178,0.014-10.356,0.024-15.534c0.008-4.188-0.949-9.853,0.234-14.074c0.326-0.009,0.648-0.013,0.995-0.05
	c2.878-0.308,5.682-0.299,8.483-0.193c-0.589,7.552-0.052,15.071,0.225,22.633c0.32,8.704,0.036,17.456,0.001,26.166
	c-0.037,9.15-0.058,18.298-0.116,27.448c-0.044,6.981-1.842,15.307-0.411,22.234c-0.391-0.019-0.784-0.029-1.171-0.052
	c-1.244-0.073-4.866-0.414-5.807-0.927c-3.705-2.022-2.651-7.388-2.523-10.631c0.169-4.239-0.321-8.108-0.583-12.257
	C323.113,394.395,324.374,390.198,324.047,385.909z M326.27,427.634c0.012,0,0.672-0.024,1.516-0.073
	c5.757,1.217,12.362,0.582,17.912,0.586c6.29,0.005,14.217,1.107,20.774-0.684c2.439,0.086,4.971-0.142,7.217,0.805
	c4.253,1.795,2.05,4.81,2.059,8.05c-2.74-0.137-5.522,0.261-8.25,0.454c-5.439,0.385-10.618,1.173-16.11,1.144
	c-5.92-0.03-11.859-0.215-17.778-0.12c-3.041,0.049-5.542,0.029-8.56-0.432c-0.131-0.02-4.595-0.392-4.433-0.212
	c-0.304-0.34-0.677-0.492-1.06-0.525c0.236-1.324,0.212-2.656,0.48-4.304C320.579,428.992,323.144,427.778,326.27,427.634z
	 M357.724,345.315c1.175,9.055,1.147,18.275,1.071,27.395c-0.079,9.471,0.898,19.228-0.055,28.66
	c-0.728,7.204-1.11,14.351-0.121,21.499c-4.632,0.271-9.511-0.229-14.087-0.227c-2.571,0.001-5.169,0.001-7.75-0.055
	c1.696-6.919,0.976-15.342,0.957-22.348c-0.024-9.15-0.078-18.298-0.116-27.448c-0.066-16.12,0.34-32.593-1.13-48.674
	c2.131,0.113,4.275,0.242,6.462,0.297c4.885,0.121,9.658-0.365,14.486-0.603c-0.026,2.937,0.342,5.954,0.194,8.903
	C357.423,337.005,357.172,341.053,357.724,345.315z M368.126,380.002c0.064,11.188-0.04,22.377-0.047,33.564
	c-0.001,1.377,0.825,6.166,0.035,7.145c-0.692,0.857-3.727,1.446-5.721,1.751c0.033-2.524-0.528-4.869-0.703-7.621
	c-0.288-4.554,0.294-8.965,0.67-13.473c0.818-9.838-0.128-19.9-0.058-29.764c0.062-8.471-0.112-16.968-1.071-25.385
	c-0.852-7.46,0.219-15.179-1.239-22.503c0.7-0.017,1.402-0.031,2.107-0.03c1.914,0.003,4.292,0.249,6.729,0.37
	c-0.943,8.666-0.522,17.609-1.206,26.248C366.833,360.268,368.07,370.101,368.126,380.002z M364.336,318.299
	c-5.373-0.008-10.441,0.498-15.755,0.781c-5.044,0.269-9.998-0.692-15.008-0.827c-5.09-0.137-10.667,1.417-14.01-3.094
	c-2.87-3.872-5.465-7.783-7.922-11.924c-0.713-1.203-1.339-2.594-2.021-3.954c13.355,0.42,26.686,0.581,40.053,0.413
	c9.325-0.118,18.724,0.646,28.104,0.586c0.29,0.069,0.605,0.066,0.933-0.012c2.229-0.028,4.457-0.088,6.682-0.241
	c-0.235,0.471-0.456,0.945-0.665,1.396c-1.961,4.225-3.704,8.475-6.028,12.57c-1.601,2.82-2.443,4.053-5.763,4.374
	C370.143,318.637,367.143,318.303,364.336,318.299z M149.704,371.605c0.071,9.864-0.876,19.926-0.058,29.764
	c0.376,4.508,0.959,8.917,0.67,13.473c-0.174,2.754-0.736,5.097-0.703,7.621c-1.994-0.305-5.029-0.893-5.721-1.751
	c-0.79-0.978,0.036-5.768,0.035-7.145c-0.007-11.188-0.111-22.378-0.047-33.564c0.056-9.902,1.291-19.735,0.505-29.696
	c-0.684-8.64-0.264-17.584-1.206-26.248c2.437-0.121,4.815-0.366,6.729-0.37c0.704-0.001,1.406,0.012,2.107,0.03
	c-1.458,7.323-0.386,15.043-1.238,22.503C149.815,354.638,149.642,363.134,149.704,371.605z M145.534,427.463
	c6.558,1.792,14.483,0.689,20.774,0.684c5.549-0.003,12.153,0.631,17.911-0.586c0.843,0.049,1.504,0.073,1.516,0.073
	c3.127,0.144,5.692,1.358,6.234,4.689c0.27,1.648,0.244,2.979,0.48,4.304c-0.383,0.033-0.756,0.184-1.06,0.525
	c0.162-0.181-4.302,0.191-4.433,0.212c-3.019,0.461-5.519,0.48-8.56,0.432c-5.919-0.095-11.858,0.09-17.778,0.12
	c-5.492,0.029-10.671-0.759-16.11-1.144c-2.728-0.193-5.51-0.59-8.25-0.454c0.009-3.24-2.195-6.256,2.059-8.05
	C140.562,427.321,143.095,427.549,145.534,427.463z M154.28,345.315c0.554-4.261,0.301-8.31,0.086-12.599
	c-0.148-2.949,0.22-5.966,0.194-8.903c4.828,0.237,9.601,0.724,14.486,0.603c2.187-0.055,4.331-0.184,6.462-0.297
	c-1.469,16.081-1.063,32.553-1.13,48.674c-0.037,9.15-0.092,18.298-0.116,27.448c-0.019,7.006-0.739,15.428,0.957,22.348
	c-2.581,0.056-5.179,0.057-7.75,0.055c-4.577-0.002-9.454,0.497-14.087,0.227c0.989-7.149,0.607-14.295-0.121-21.499
	c-0.953-9.432,0.024-19.189-0.055-28.66C153.133,363.589,153.106,354.37,154.28,345.315z M178.241,323.995
	c2.801-0.106,5.605-0.114,8.483,0.193c0.348,0.037,0.669,0.042,0.995,0.05c1.184,4.221,0.226,9.885,0.234,14.074
	c0.01,5.178,0.044,10.356,0.024,15.534c-0.042,10.583,0.778,21.586-0.02,32.063c-0.327,4.289,0.934,8.487,0.669,12.698
	c-0.262,4.148-0.75,8.018-0.583,12.257c0.128,3.242,1.183,8.609-2.523,10.63c-0.942,0.514-4.564,0.854-5.807,0.927
	c-0.387,0.023-0.781,0.034-1.171,0.052c1.43-6.926-0.366-15.252-0.412-22.234c-0.058-9.15-0.078-18.298-0.116-27.448
	c-0.035-8.71-0.319-17.462,0.001-26.166C178.294,339.066,178.83,331.547,178.241,323.995z M178.433,318.253
	c-5.012,0.135-9.964,1.096-15.008,0.827c-5.314-0.283-10.382-0.789-15.755-0.781c-2.807,0.003-5.807,0.339-8.598,0.069
	c-3.32-0.321-4.162-1.554-5.763-4.374c-2.324-4.096-4.066-8.345-6.028-12.57c-0.211-0.453-0.43-0.925-0.665-1.396
	c2.225,0.151,4.453,0.213,6.682,0.241c0.328,0.078,0.643,0.081,0.933,0.012c9.38,0.059,18.78-0.704,28.104-0.586
	c13.368,0.168,26.697,0.008,40.053-0.413c-0.682,1.36-1.308,2.751-2.021,3.954c-2.457,4.141-5.054,8.053-7.923,11.924
	C189.1,319.67,183.523,318.116,178.433,318.253z M119.761,280.645c-2.178,2.816-2.574,10.092-2.13,13.464
	c-2.428-0.333-4.871-0.493-7.319-0.543c-0.271-2.481-0.066-5.003-0.13-7.498c-0.038-1.481,0.043-4.397-0.37-5.734
	c-0.792-2.551-3.055-1.704-4.033,0.219c-1.095,2.15-1.216,4.252-1.203,6.604c0.012,2.115-0.412,4.332-0.159,6.466
	c-2.905,0.105-5.806,0.292-8.689,0.464c0.295-2.647-0.586-5.555-0.621-8.22c-0.033-2.436,0.169-5.001-1.735-6.823
	c-2.883-2.762-3.461,5.878-3.674,7.398c-0.127,0.904-1.37,7.854,0.462,7.846c-2.23,0.013-8.798,0.924-10.592-0.351
	c-1.856-1.318-1.142-6.537-1.075-8.547c0.054-1.575,0.01-5.648-2.343-5.685c-3.033-0.047-3.314,9.393-3.62,11.518
	c-0.112,0.768-0.076,1.58,0.087,2.343c-2.63-0.119-5.259-0.191-7.892-0.141c-0.764,0.015-1.53,0.058-2.298,0.111
	c0.051-1.355,0.028-2.743-0.192-4.031c-0.23-1.348-0.831-2.443-0.821-3.831c0.01-1.691,0.455-5.003-1.162-6.208
	c-1.788-1.333-2.939,0.736-3.298,2.516c-0.796,3.94-0.451,8.077-0.458,12.068c-1.975,0.157-3.951,0.244-5.919,0.088
	c-2.641-0.211-5.112-0.418-7.597-0.508c1.377-4.4,0.457-9.979-0.234-14.404c-0.287-1.839-3.428-1.842-3.716,0
	c-0.733,4.685-0.746,9.435-1.294,14.132c-0.012,0.098-0.01,0.198-0.002,0.299c0.015,0.199-14.75,0.455-15.974,0.458
	c-0.029-0.122-0.045-0.238-0.087-0.365c-0.151-0.462-0.725-1.119-0.804-1.503c-0.124-0.598,0.067-0.624-0.001-1.251
	c-0.325-3.001,0.045-6.21-0.055-9.236c-0.106-3.222-0.84-6.422-0.765-9.641c0.034-1.503,0.158-2.693-0.077-3.846
	c5.297-0.097,10.643-0.51,15.838-0.268c7.748,0.361,15.504,0.764,23.246,1.282c4.483,0.3,8.958-0.131,13.432-0.393
	c4.275-0.251,8.144,0.211,12.377,0.407c3.929,0.183,7.864-0.593,11.797-0.641c4.452-0.054,8.902,0.214,13.354-0.008
	c4.373-0.219,8.473-0.393,12.495-1.102c2.222,0.269,4.442,0.536,6.636,0.472c2.906-0.085,5.749-0.355,8.624-0.489
	c-1.074,2.179-2.339,4.336-3.007,6.752c-1.07,3.869-1.648,8.256-2.211,12.239c-0.298,2.099-1.628,5.188-2.043,7.957
	c-2.244,0.138-4.483,0.143-6.721,0.1c-0.33-2.68-0.197-5.186,0.347-7.876C124.599,284.387,122.846,276.657,119.761,280.645z
	 M139.113,279.79c0.598-3.094,1.125-6.203,1.918-9.247c0.297-1.139,0.677-2.09,0.906-3.069c0.208,0.005,0.414,0.003,0.624,0.012
	c4.452,0.172,8.788,0.805,13.274,0.825c9.921,0.044,19.679,1.29,29.561,1.476c0.009,0,0.019,0.001,0.019,0.001
	c0.389,1.789,0.833,4.501,0.984,5.027c1.225,4.266,2.644,8.426,4.087,12.621c0.472,1.373,0.939,3.57,1.728,5.497
	c-9.865-0.029-19.792-0.213-29.613,0.567c-5.081,0.404-10.137,0.918-15.238,0.995c-3.611,0.055-7.277-0.41-10.883-0.4
	c0.539-1.56,1.06-3.683,1.151-4.258C138.16,286.483,138.467,283.132,139.113,279.79z M199.109,292.966
	c-0.117-0.208-0.266-0.412-0.463-0.603c-1.405-1.358-1.697-3.528-2.327-5.311c-0.991-2.809-2.064-5.589-3.043-8.405
	c-1.009-2.901-1.837-5.891-3.039-8.682c-0.013-0.028,4.57,0.657,5.19,0.748c3.182,0.465,6.187,0.293,9.243,1.24
	c-0.477,2.841-1.173,5.504-0.309,8.376c0.917,3.051,2.948,5.191,6.359,4.825c3.041-0.325,6.153-0.675,8.255-3.104
	c2.337-2.7,2.725-6.182,2.616-9.608c1.868-0.105,3.723-0.219,5.58-0.315c-0.655,1.512-0.748,3.39-0.66,4.922
	c0.191,3.3,2.47,6.75,5.692,7.814c3.32,1.097,6.469-1.049,8.162-3.815c1.724-2.816,1.281-6.042,1.116-9.182
	c2.386,0.154,4.771,0.333,7.166,0.462c-0.624,2.791-0.884,5.913,0.918,8.231c1.616,2.078,4.375,3.256,6.916,3.717
	c6.338,1.148,9.474-6.632,8.704-12.04c1.469-0.067,2.939-0.143,4.416-0.221c0.311-0.016,0.614-0.037,0.923-0.055
	c-0.169,3.111-0.586,6.302,1.121,9.09c1.693,2.765,4.841,4.912,8.162,3.815c3.222-1.064,5.501-4.514,5.692-7.814
	c0.087-1.531-0.005-3.41-0.66-4.922c1.858,0.097,3.711,0.211,5.58,0.315c-0.108,3.426,0.279,6.908,2.616,9.608
	c2.102,2.429,5.213,2.779,8.255,3.104c3.411,0.364,5.442-1.774,6.359-4.826c0.863-2.871,0.169-5.535-0.309-8.376
	c3.056-0.946,6.061-0.775,9.243-1.24c0.62-0.091,5.202-0.776,5.19-0.748c-1.202,2.791-2.03,5.781-3.039,8.682
	c-0.98,2.818-2.052,5.597-3.043,8.405c-0.629,1.781-0.921,3.953-2.327,5.311c-0.198,0.191-0.347,0.394-0.463,0.603
	c-3.339,0.066-6.612,0.247-9.985,0.535c-0.047,0-0.092,0-0.138,0c-2.014,0.02-4.031-0.005-6.047-0.042
	c-2.282-0.164-4.566-0.366-6.938-0.176c-0.05,0.005-0.088,0.024-0.136,0.031c-1.416-0.022-2.829-0.031-4.241-0.024
	c-0.893-0.157-1.767-0.3-2.57-0.34c-3.84-0.188-7.693-0.162-11.537-0.156c-6.448,0.01-12.798,0.943-19.175,0.728
	c-5.684-0.192-11.36-0.019-17.038,0.129c-4.229-0.383-8.478-0.405-12.736-0.337c-0.048-0.007-0.086-0.028-0.136-0.031
	c-2.372-0.191-4.656,0.012-6.938,0.176c-2.016,0.038-4.033,0.062-6.047,0.042c-0.047,0-0.092,0-0.138,0
	C205.72,293.212,202.448,293.032,199.109,292.966z M208.005,272.35c3.003,0.355,6.266,0.383,9.349,0.289
	c-0.033,2.086-0.008,4.247-1.261,6.018c-1.234,1.743-3.135,1.726-5.085,1.985c-1.768,0.235-1.921,0.09-2.562-1.44
	c-0.558-1.334-0.728-2.517-0.543-3.938C208.038,274.221,208.07,273.282,208.005,272.35z M229.507,272.022
	c1.482-0.06,2.97-0.109,4.479-0.116c1.124-0.006,2.262,0.003,3.403,0.007c0.087,1.611,0.271,3.246,0.088,4.839
	c-0.215,1.88-1.999,4.849-4.223,4.01c-1.886-0.711-2.834-2.944-3.167-4.76C229.913,275.044,229.308,273.196,229.507,272.022z
	 M252.101,272.461c0.131,0.004,0.264,0.013,0.397,0.015c2.949,0.055,5.869,0.009,8.785-0.087c-0.313,3.533-0.084,8.698-4.796,7.232
	c-1.263-0.393-3.112-0.945-3.774-2.236c-0.493-0.962-0.238-2.428-0.372-3.477C252.279,273.424,252.194,272.941,252.101,272.461z
	 M274.617,271.913c1.14-0.005,2.279-0.013,3.403-0.007c1.509,0.007,2.996,0.056,4.479,0.116c0.2,1.174-0.406,3.022-0.581,3.98
	c-0.332,1.816-1.281,4.05-3.167,4.76c-2.224,0.839-4.008-2.13-4.223-4.01C274.345,275.158,274.53,273.525,274.617,271.913z
	 M304.103,275.263c0.185,1.42,0.016,2.604-0.543,3.938c-0.641,1.53-0.793,1.675-2.562,1.44c-1.95-0.259-3.851-0.242-5.085-1.985
	c-1.253-1.771-1.228-3.932-1.261-6.018c3.083,0.094,6.346,0.066,9.349-0.289C303.935,273.282,303.967,274.221,304.103,275.263z
	 M325.606,274.814c0.151-0.526,0.596-3.236,0.975-5.027c0.009,0,0.019-0.001,0.027-0.001c9.882-0.186,19.641-1.432,29.561-1.476
	c4.487-0.02,8.822-0.654,13.274-0.825c0.209-0.008,0.415-0.007,0.624-0.012c0.229,0.978,0.61,1.931,0.906,3.069
	c0.795,3.044,1.322,6.153,1.918,9.247c0.647,3.342,0.953,6.695,1.482,10.044c0.091,0.575,0.612,2.698,1.151,4.258
	c-3.608-0.008-7.272,0.455-10.883,0.4c-5.101-0.077-10.156-0.591-15.238-0.995c-9.821-0.779-19.749-0.596-29.613-0.567
	c0.79-1.926,1.255-4.124,1.728-5.497C322.962,283.24,324.381,279.08,325.606,274.814z M12.065,307.255
	c-3.495-0.35-5.054,1.487-5.14-2.391c-0.017-0.818,0.336-4.694-0.264-3.98c0.308-0.368,0.833-0.627,1.427-0.817
	c8.797,1.99,18.918,1.338,27.609,0.676c5.145-0.392,9.787,0.126,14.877,0.428c4.727,0.282,9.431-0.63,14.147-0.724
	c4.492-0.088,8.774,0.742,13.254,0.698c5.465-0.055,11.012,0.309,16.465,0.021c4.915-0.261,9.836-0.357,14.749-0.661
	c3.001-0.185,9.851-2.167,12.501-0.245c0.783,0.568,1.228,1.582,1.593,2.445c0.487,1.152,0.857,2.351,1.228,3.543
	c0.101,0.325,0.202,0.649,0.305,0.973c0.1,0.313,0.271,0.625,0.341,0.945c0.065,0.299,0.183,0.585,0.306,0.868
	c-1.445-0.186-3.027-0.181-4.622-0.056c-0.091-0.036-0.178-0.074-0.278-0.102c-0.285-0.079-0.558-0.124-0.832-0.17
	c-1.873,0.086-3.754,0.098-5.492,0.155c-3.313,0.111-6.664-0.08-9.979-0.093c-7.464-0.03-14.936-0.276-22.394-0.284
	c-6.527-0.007-12.949,1.019-19.532,0.896c-7.408-0.14-14.795-0.628-22.202-0.727c-6.337-0.085-12.598-1.085-18.952-0.863
	C17.975,307.903,15.234,307.572,12.065,307.255z M101.609,456.028c-4.571,0.007-9.139,0.014-13.708,0.023
	c-5.01,0.01-9.83-0.942-14.851-0.791c-1.042,0.031-2.08,0.021-3.117-0.005c0.067-7.111-3.363-13.966-2.744-21.068
	c0.362-4.154,1.069-5.957,4.718-8.249c0.714-0.449,1.786-0.689,2.376-1.369c1.546-1.786,0.627-3.739,0.373-5.826
	c-0.814-6.71,2.585-17.619,9.041-20.457c13.859-6.091,12.986,16.311,10.693,23.613c-0.308,0.982,0.212,2.05,1.047,2.574
	c3.189,1.999,5.354,3.434,6.26,7.275c0.582,2.469,1.227,5.429,1.39,7.922C103.453,445.164,101.767,450.552,101.609,456.028z
	 M115.183,423.818c-0.23,9.958-2.222,19.701-2.182,29.737c0.002,0.532,0.127,0.982,0.339,1.352c-0.069,0.389-0.117,0.781-0.15,1.177
	c-2.205-0.019-4.411-0.057-6.617-0.06c0.101-7.218,1.654-14.069,0.279-21.297c-1.261-6.632-2.464-9.686-7.543-13.168
	c0.779-2.199,1.608-4.253,1.391-6.693c-0.249-2.805-0.319-6.024-0.803-8.817c-0.811-4.679-2.754-9.812-7.448-11.688
	c-9.309-3.72-16.418,3.874-19.594,11.584c-1.363,3.31-2.437,6.632-2.769,10.2c-0.166,1.782,0.726,4.678,0.157,5.614
	c-0.831,1.365-4.082,2.365-5.289,3.93c-2.877,3.73-2.823,9.61-2.248,14.057c0.639,4.927,1.771,10.402,3.298,15.333
	c-2.914-0.178-5.825-0.408-8.769-0.422c-0.962-0.005-1.924,0.003-2.885,0.015c0.482-5.541,0.067-11.346-0.183-16.764
	c-0.368-7.998-0.701-15.945-1.695-23.93c-0.968-7.783-2.794-16.782-1.474-24.589c1.493-8.815,4.364-18.2,8.357-26.18
	c3.398-6.787,8.076-14.538,13.383-19.941c2.714-2.763,6.979-8.426,10.689-9.678c4.299-1.451,9.588,3.951,12.191,6.483
	c7.177,6.982,11.666,16.324,14.959,25.646c3.07,8.69,5.871,17.709,6.126,27C116.988,403.027,115.423,413.51,115.183,423.818z
	 M126.618,441.216c-1.139,2.21-1.541,4.836-1.843,7.279c-0.294,2.372-0.212,4.649-0.169,7.001c-6.721,2.038-5.893-6.544-5.72-10.587
	c0.304-7.046,1.425-14.034,1.573-21.09c0.109-5.152,0.606-10.219,0.701-15.348c0.1-5.56,1.081-11.232,0.782-16.783
	c-0.537-9.977-3.466-19.688-6.946-28.984c-3.452-9.218-8.003-18.442-15.102-25.422c-4.28-4.205-11.714-11.644-18.14-8.208
	c-7.393,3.952-13.733,11.721-18.198,18.58C58.508,355.41,54,362.678,50.8,371.416c-1.558,4.252-2.319,9.052-3.538,13.453
	c-1.303,4.705-1.561,9.623-1.082,14.483c0.441,4.476,0.758,8.885,1.461,13.338c0.9,5.715,0.517,11.593,1.488,17.25
	c1.423,8.292-0.123,16.638,1.297,24.799c-4.086,0.067-8.164,0.088-12.218-0.387c-4.893-0.575-9.882-0.333-14.807-0.702
	c-1.291-0.097-2.572-0.001-3.863-0.034c0.639-4.046-0.115-8.922-0.119-12.557c-0.006-5.828,0.043-11.443,0.641-17.2
	c1.249-12.047,0.827-24.49,0.791-36.64c-0.016-5.384-0.969-10.592-0.998-16.009c-0.035-6.979-0.059-13.959-0.145-20.936
	c-0.081-6.728-0.334-13.445-0.461-20.169c-0.1-5.33,0.586-10.344,0.206-15.555c0.876,0.024,1.759,0.041,2.671,0.015
	c16.665-0.455,33.438,2.699,50.16,1.643c8.463-0.534,16.738-0.788,25.251-0.822c4.956-0.02,10.143,0.419,15.169,0.028
	c0.284-0.009,0.569-0.014,0.853-0.035c4.616-0.34,9.205-0.708,13.873-0.832c0.134-0.003,0.257-0.023,0.379-0.041
	c1.274,3.054,2.818,6.339,5.287,7.956c1.625,1.064,3.759,1.494,6.042,1.621c-1.956,16.954,0.964,34.253-0.525,51.237
	c-0.869,9.913-0.177,20.164-0.183,30.11c-0.003,5.014-0.467,10.288-0.063,15.285c0.083,1.023,0.279,1.902,0.649,2.673
	c-1.005,0.162-2.002,0.392-2.956,0.704c-5.342,1.747-4.471,5.534-4.986,10.095C130.717,437.37,128.052,438.438,126.618,441.216z
	 M194.744,451.022c-0.45,2.642-1.53,4.986-1.325,7.334c-0.344,0.655-0.469,1.452-0.28,2.362c0.307,1.49-19.478,0.655-21.095,0.429
	c-7.26-1.013-14.798-0.156-22.124-0.108c-3.232,0.021-6.466,0.042-9.698,0.09c-2.158,0.033-5.129,0.674-7.215-0.038
	c-4.13-1.41-3.389-10.597-2.702-14.048c0.674-3.388,1.974-4.238,4.096-6.645c0.405-0.457,0.725-0.786,0.989-1.138
	c8.207,1.752,16.872,2.416,25.229,2.459c10.712,0.056,21.353,0.604,31.947-0.587c0.577-0.065,1.138-0.333,1.544-0.731
	c0.781,1.149,1.488,2.116,1.626,3.832C195.91,446.38,195.105,448.906,194.744,451.022z M314.953,435.629
	c-0.258,0.533-2.494,1.961-3.132,3.34c-1.074,2.321-0.824,5.072-0.553,7.531c0.318,2.858,0.456,6.594,1.391,9.782
	c-2.132-0.131-4.271-0.205-6.422-0.512c-1.733-0.247-3.1-0.598-4.43-0.703c0.056-9.062,0.494-18.084,0.403-27.159
	c-0.099-9.66-1.215-19.85,0.026-29.435c0.492-3.797,0.207-7.635,0.159-11.456c-0.038-3.14,0.964-7.344,0.229-10.304
	c-0.606-2.444-2.023-3.155-4.232-4.136c-1.512-0.671-4.362-2.663-6.349-2.778c0.753-0.871,1.338-2.161,1.805-2.963
	c1.669-2.864,3.035-5.996,3.662-9.259c1.237-6.432-0.084-13.078-3.093-18.84c-2.187-4.186-5.358-8.035-8.904-11.358
	c-1.707-3.749-5.563-7.341-8.197-9.656c-3.936-3.457-10.293-7.818-15.51-8.754c-5.79-1.039-12.286,1.757-17.051,4.823
	c-0.877,0.564-1.657,1.176-2.394,1.81c-0.717,0.396-1.426,0.834-2.114,1.359c-2.734,2.082-5.585,3.924-8.367,5.945
	c-5.621,4.084-11.041,9.6-14.297,15.831c-3.01,5.762-4.33,12.408-3.093,18.84c0.627,3.263,1.994,6.395,3.662,9.259
	c0.467,0.802,1.052,2.092,1.805,2.963c-1.987,0.116-4.837,2.107-6.349,2.778c-2.208,0.981-3.626,1.691-4.232,4.136
	c-0.735,2.96,0.268,7.164,0.229,10.304c-0.048,3.822-0.333,7.661,0.159,11.456c1.24,9.584,0.124,19.774,0.026,29.435
	c-0.092,9.075,0.347,18.098,0.403,27.159c-1.33,0.104-2.695,0.455-4.43,0.703c-2.151,0.307-4.289,0.38-6.422,0.512
	c0.936-3.189,1.075-6.923,1.391-9.782c0.271-2.458,0.521-5.211-0.553-7.531c-0.639-1.379-2.875-2.807-3.132-3.34
	c-1.623-3.352,1.054-8.025-2.985-11.339c-0.618-0.507-1.318-0.883-2.063-1.168c2.402-3.898,1.582-9.739,1.387-14.216
	c-0.178-4.083,0.831-8.048,0.572-12.065c-0.285-4.449-0.706-8.307-0.184-12.752c0.548-4.675-0.658-9.717-0.667-14.486
	c-0.012-6,0.124-12.001,0.151-18.001c0.023-5.497,0.021-10.993,0.031-16.49c0.008-3.847,0.698-8.524-0.398-12.344
	c0.981-0.686,1.89-1.598,2.808-2.734c3.389-4.191,6.401-8.748,9.187-13.35c1.332-2.199,3.521-4.877,4.286-7.599
	c0.648-0.016,1.299-0.031,1.95-0.047c1.169,0.023,2.325,0,3.46-0.085c1.847-0.045,3.701-0.1,5.551-0.168
	c1.084,0.259,2.173,0.419,3.267,0.396c2.004-0.043,4.232-0.272,6.397-0.22c8.626,0.209,17.329,0.683,25.955,0.585
	c2.941-0.034,5.717-0.753,8.627-0.81c3.564-0.069,7.136,0.04,10.7,0.016c3.278-0.021,8.521,0.717,12.599-0.15
	c3.242,0.171,6.494,0.271,9.731,0.35c1.134,0.085,2.291,0.108,3.46,0.085c0.65,0.015,1.302,0.03,1.95,0.047
	c0.763,2.722,2.954,5.399,4.286,7.599c2.787,4.602,5.798,9.158,9.187,13.35c0.918,1.135,1.828,2.047,2.808,2.734
	c-1.096,3.819-0.406,8.497-0.398,12.344c0.012,5.497,0.009,10.993,0.031,16.49c0.026,6,0.163,12.001,0.151,18.001
	c-0.009,4.768-1.215,9.812-0.667,14.486c0.521,4.445,0.101,8.303-0.184,12.752c-0.258,4.016,0.752,7.982,0.572,12.065
	c-0.195,4.477-1.016,10.318,1.387,14.216c-0.746,0.285-1.445,0.661-2.063,1.168C313.898,427.603,316.575,432.278,314.953,435.629z
	 M378.997,461.091c-2.086,0.712-5.057,0.071-7.215,0.038c-3.232-0.048-6.466-0.069-9.698-0.09
	c-7.327-0.048-14.863-0.905-22.124,0.108c-1.617,0.226-21.402,1.061-21.095-0.429c0.188-0.91,0.064-1.707-0.28-2.362
	c0.206-2.348-0.875-4.692-1.325-7.334c-0.361-2.117-1.166-4.643-0.991-6.789c0.138-1.715,0.846-2.683,1.626-3.832
	c0.407,0.398,0.967,0.665,1.544,0.731c10.593,1.191,21.235,0.643,31.947,0.587c8.357-0.044,17.022-0.707,25.228-2.459
	c0.264,0.351,0.584,0.679,0.989,1.138c2.121,2.407,3.421,3.257,4.095,6.645C382.386,450.494,383.127,459.681,378.997,461.091z
	 M442.07,455.257c-1.037,0.026-2.073,0.036-3.117,0.005c-5.02-0.151-9.841,0.802-14.851,0.791
	c-4.568-0.009-9.138-0.016-13.707-0.023c-0.158-5.477-1.844-10.864-1.481-16.356c0.164-2.493,0.809-5.453,1.39-7.922
	c0.906-3.841,3.071-5.277,6.26-7.275c0.836-0.523,1.355-1.591,1.047-2.574c-2.293-7.302-3.165-29.704,10.693-23.613
	c6.458,2.839,9.857,13.747,9.043,20.457c-0.254,2.087-1.173,4.039,0.373,5.826c0.59,0.681,1.661,0.921,2.375,1.369
	c3.649,2.291,4.355,4.095,4.718,8.249C445.434,441.291,442.004,448.146,442.07,455.257z M459.531,413.981
	c-0.993,7.985-1.327,15.932-1.695,23.93c-0.25,5.418-0.664,11.223-0.183,16.764c-0.961-0.012-1.923-0.02-2.885-0.015
	c-2.944,0.014-5.855,0.245-8.769,0.422c1.527-4.929,2.659-10.406,3.298-15.333c0.576-4.446,0.629-10.327-2.248-14.057
	c-1.206-1.565-4.458-2.565-5.288-3.93c-0.569-0.936,0.322-3.832,0.157-5.614c-0.332-3.568-1.405-6.892-2.769-10.2
	c-3.175-7.711-10.285-15.305-19.594-11.584c-4.694,1.876-6.637,7.008-7.448,11.688c-0.484,2.793-0.554,6.012-0.803,8.817
	c-0.215,2.439,0.612,4.494,1.391,6.693c-5.079,3.482-6.282,6.536-7.543,13.168c-1.375,7.229,0.178,14.079,0.279,21.297
	c-2.206,0.003-4.413,0.041-6.617,0.06c-0.033-0.397-0.081-0.79-0.15-1.177c0.212-0.37,0.336-0.82,0.339-1.352
	c0.04-10.037-1.952-19.78-2.182-29.737c-0.24-10.308-1.805-20.791-1.523-31.096c0.255-9.29,3.056-18.311,6.126-27
	c3.293-9.322,7.783-18.663,14.959-25.646c2.602-2.533,7.892-7.933,12.192-6.483c3.709,1.252,7.973,6.915,10.689,9.678
	c5.307,5.403,9.985,13.154,13.383,19.941c3.994,7.98,6.864,17.365,8.357,26.18C462.325,397.199,460.499,406.198,459.531,413.981z
	 M492.757,330.101c-0.127,6.724-0.379,13.441-0.461,20.169c-0.086,6.979-0.111,13.958-0.145,20.936
	c-0.028,5.418-0.982,10.625-0.998,16.009c-0.036,12.15-0.46,24.593,0.791,36.64c0.598,5.757,0.647,11.372,0.641,17.2
	c-0.003,3.635-0.756,8.511-0.119,12.557c-1.291,0.034-2.572-0.063-3.863,0.034c-4.924,0.37-9.914,0.127-14.807,0.702
	c-4.053,0.476-8.133,0.455-12.218,0.387c1.422-8.161-0.124-16.506,1.297-24.799c0.971-5.657,0.587-11.536,1.488-17.25
	c0.701-4.452,1.02-8.86,1.461-13.338c0.479-4.86,0.221-9.779-1.082-14.483c-1.219-4.4-1.98-9.2-3.538-13.453
	c-3.2-8.737-7.708-16.006-12.757-23.764c-4.465-6.859-10.804-14.627-18.198-18.58c-6.425-3.435-13.86,4.002-18.14,8.208
	c-7.1,6.979-11.652,16.204-15.102,25.422c-3.48,9.296-6.409,19.008-6.946,28.984c-0.299,5.551,0.682,11.223,0.782,16.783
	c0.094,5.129,0.592,10.195,0.702,15.348c0.148,7.056,1.269,14.044,1.573,21.09c0.173,4.044,1,12.626-5.72,10.587
	c0.043-2.351,0.126-4.629-0.169-7.001c-0.301-2.443-0.703-5.069-1.843-7.279c-1.433-2.779-4.097-3.846-4.458-7.031
	c-0.515-4.561,0.356-8.348-4.986-10.095c-0.954-0.312-1.951-0.542-2.956-0.704c0.369-0.771,0.565-1.651,0.649-2.673
	c0.405-4.996-0.059-10.271-0.063-15.285c-0.006-9.946,0.686-20.198-0.183-30.11c-1.489-16.983,1.43-34.282-0.525-51.237
	c2.284-0.127,4.417-0.557,6.042-1.621c2.47-1.617,4.013-4.902,5.287-7.956c0.122,0.017,0.245,0.037,0.379,0.041
	c4.667,0.123,9.257,0.492,13.873,0.832c0.284,0.021,0.569,0.024,0.853,0.035c5.026,0.391,10.213-0.048,15.169-0.028
	c8.513,0.034,16.788,0.287,25.251,0.822c16.723,1.055,33.496-2.098,50.16-1.643c0.912,0.024,1.795,0.009,2.671-0.015
	C492.172,319.757,492.857,324.771,492.757,330.101z M505.079,304.864c-0.086,3.877-1.645,2.04-5.14,2.391
	c-3.169,0.318-5.91,0.648-9.116,0.536c-6.354-0.221-12.615,0.778-18.952,0.863c-7.407,0.099-14.794,0.587-22.202,0.727
	c-6.583,0.124-13.005-0.903-19.532-0.896c-7.458,0.008-14.93,0.254-22.394,0.284c-2.968,0.012-5.935,0.165-8.904,0.119
	c-0.703-0.01-1.443-0.109-2.143-0.042c-0.465,0.045-0.854,0.188-1.333,0.165c-1.448-0.071-2.892-0.161-4.343-0.192
	c-0.867-0.019-1.735-0.028-2.601-0.031c-0.626-0.002-1.238,0.28-1.846,0.222c0.169-0.977,0.664-1.945,0.961-2.894
	c0.247-0.789,0.496-1.579,0.777-2.356c0.428-1.182,0.936-2.726,2.003-3.499c2.65-1.923,9.5,0.059,12.501,0.245
	c4.913,0.304,9.834,0.4,14.749,0.661c5.454,0.29,10.999-0.076,16.465-0.021c4.479,0.045,8.761-0.786,13.254-0.698
	c4.717,0.093,9.422,1.005,14.147,0.724c5.09-0.302,9.731-0.82,14.877-0.428c8.691,0.662,18.812,1.313,27.609-0.676
	c0.596,0.19,1.12,0.449,1.427,0.817C504.742,300.17,505.096,304.046,505.079,304.864z"/>
<path d="M450.309,370.862c-1.253-5.23-4.02-9.933-7.529-14.641c-2.295-3.079-5.073-6.144-7.979-8.638
	c-2.122-1.821-3.98-4.707-6.974-4.981c-5.33-0.49-9.132,5.058-11.761,8.775c-4.355,6.155-8.505,12.928-11.532,19.828
	c-2.021,4.603-4.729,12.487,0.031,16.375c2.392,1.953,5.212,1.558,8.066,1.58c3.874,0.03,7.748,0.237,11.629,0.155
	c7.761-0.165,16.002,2.456,23.739,1.433c5.099-0.674,6.211-4.215,5.432-8.929C452.849,378.298,451.764,374.475,450.309,370.862z
	 M443.527,385.998c-4.235-0.413-8.599-0.603-12.783-1.175c-5.967-0.815-12.145,0.43-18.113-0.485
	c-0.761-0.029-1.522,0.002-2.28,0.094c-2.828-1.479-3.875-3.334-3.14-5.568c0.079-1.936,1.137-4.375,1.97-6.109
	c1.329-2.762,3.132-5.138,4.396-7.946c1.346-2.99,3.172-6.003,5.064-8.681c1.598-2.264,3.836-6.614,6.52-7.628
	c1.689-0.639,3.576,0.083,5.446,1.465c8.149,9.701,16.146,19.16,18.256,32.272C449.587,386.744,447.068,386.344,443.527,385.998z"/>
<path d="M355.522,133.364c-4.31-1.399-6.84,2.666-8.257,6.066c-0.971,2.332-1.138,4.991-1.711,7.439
	c-0.557,2.378-0.828,4.527-0.49,6.967c0.151,1.089,1.434,1.494,2.342,1.33c3.744-0.677,8.057-0.926,11.852-0.346
	c3.749,0.574,2.785-9.385,2.53-11.539C361.313,139.245,359.768,134.743,355.522,133.364z M358.232,150.742
	c-1.397-0.215-2.854-0.073-4.336-0.037c-1.906,0.047-3.577,0.059-5.312,0.322c0.001-2.433,0.799-4.92,1.18-7.291
	c0.34-2.109,2.751-10.344,6.258-5.813C358.591,141.244,358.67,146.505,358.232,150.742z"/>
<path d="M317.424,192.075c-1.519-4.168-6.002-4.88-9.912-4.586c-3.169,0.24-6.223,1.069-9.425,1.011
	c-3.667-0.066-7.378-0.793-11.06-0.954c-1.54-0.067-3.083-0.234-4.621-0.398c-0.279-0.165-0.614-0.248-0.947-0.181
	c-0.121,0.024-0.243,0.031-0.365,0.045c-0.97-0.098-1.938-0.181-2.901-0.227c-0.745-0.145-1.484-0.307-2.199-0.377
	c-2.538-0.251-5.129-0.124-7.674-0.116c-4.877,0.015-9.664,0.81-14.514,0.79c-8.628-0.035-18.758-1.32-27.52,0.384
	c-0.437,0.033-0.874,0.062-1.311,0.08c-3.682,0.161-7.393,0.886-11.06,0.954c-3.203,0.058-6.256-0.771-9.425-1.011
	c-3.91-0.295-8.392,0.416-9.912,4.586c-1.027,2.818-0.486,6.529-0.432,9.481c0.054,2.783-0.254,5.627-0.155,8.352
	c0.107,2.918,0.476,6.275,0.839,9.208c0.346,2.795,0.658,6.166,1.404,8.879c1.609,5.856,6.702,3.423,10.995,2.966
	c6.533-0.693,13.664-1.477,20.231-1.526c2.662-0.02,5.3-0.124,7.942-0.228c3.681,0.484,7.678,0.225,10.758,0.275
	c5.439,0.088,10.878,0.174,16.317,0.215c4.806,0.036,9.983,0.585,14.722-0.466c2.442,0.095,4.881,0.186,7.341,0.205
	c6.567,0.049,13.698,0.833,20.231,1.526c4.293,0.456,9.385,2.889,10.995-2.967c0.746-2.713,1.059-6.083,1.404-8.879
	c0.363-2.933,0.732-6.29,0.839-9.208c0.099-2.723-0.208-5.569-0.155-8.352C317.912,198.604,318.453,194.892,317.424,192.075z
	 M312.579,200.83c-0.156,3.784-0.316,7.666-0.819,11.27c-0.423,3.041-0.177,5.964-0.795,9.022c-0.049,0.24-0.347,2.474-0.594,3.017
	c-0.868,1.897,1.36,1.612-2.027,1.782c-4.451,0.222-9.331-0.836-13.86-0.991c-5.779-0.197-11.479-0.574-17.309-0.587
	c-1.344-0.003-2.65,0.069-3.938,0.187c-2.82-0.155-5.689,0.027-8.497,0.04c-5.579,0.026-11.159,0.123-16.738,0.197
	c-2.339,0.031-4.606,0.024-6.847,0.041c-2.059-0.275-4.143-0.469-6.325-0.464c-5.831,0.013-11.531,0.39-17.309,0.587
	c-4.529,0.155-9.409,1.213-13.86,0.991c-3.386-0.17-1.159,0.115-2.027-1.782c-0.248-0.542-0.546-2.777-0.594-3.017
	c-0.618-3.057-0.37-5.98-0.795-9.022c-0.503-3.604-0.663-7.486-0.819-11.27c-0.148-3.603-0.546-7.775,3.769-8.752
	c2.06-0.466,4.437,0.03,6.475,0.238c5.451,0.556,10.825-0.703,16.255-1.025c0.398-0.023,0.795-0.056,1.192-0.083
	c4.13,0.534,8.439,0.327,12.528,0.379c6.073,0.078,12.365,0.678,18.418,0.263c6.009-0.411,11.9-0.51,17.932-0.672
	c1.27-0.035,2.6-0.051,3.804-0.347c2.092,0.169,4.183,0.333,6.28,0.458c5.43,0.323,10.805,1.581,16.255,1.025
	c2.038-0.208,4.415-0.704,6.475-0.238C313.125,193.055,312.727,197.227,312.579,200.83z"/>
<g>
</g>
<g>
</g>
<g>
</g>
<g>
</g>
<g>
</g>
<g>
</g>
<g>
</g>
<g>
</g>
<g>
</g>
<g>
</g>
<g>
</g>
<g>
</g>
<g>
</g>
<g>
</g>
<g>
</g>
</svg>
