<?xml version="1.0" encoding="iso-8859-1"?>
<!-- Generator: Adobe Illustrator 19.0.0, SVG Export Plug-In . SVG Version: 6.00 Build 0)  -->
<svg version="1.1" id="Layer_1" xmlns="http://www.w3.org/2000/svg" xmlns:xlink="http://www.w3.org/1999/xlink" x="0px" y="0px"
	 viewBox="0 0 512.001 512.001" style="enable-background:new 0 0 512.001 512.001;" xml:space="preserve">
<path style="fill:#A3AF94;" d="M469.836,256.849c-0.494,0.798-1.09,1.546-1.678,2.278c-2.275,2.835-4.55,5.669-6.825,8.505
	c-0.929,1.158-2.285,2.786-1.945,4.385c0.331,1.562,2.226,2.877,3.577,3.448c1.56,0.66,3.273,0.853,4.962,0.982
	c3.793,0.291,7.607,0.295,11.401,0.012c2.552-0.19,5.115-0.509,7.663-0.266c2.547,0.244,5.136,1.118,6.906,2.967
	c1.727,1.804,2.487,4.318,2.945,6.774c0.368,1.97,0.414,4.235,1.203,6.095c0.606,1.43,1.42,2.425,1.815,3.997
	c1.055,4.196,1.791,8.483,2.354,12.77c0.551,4.2,0.91,8.425,1.154,12.653c0.217,3.764,1.055,7.034-1.613,10.263
	c-1.974,2.389-5.202,3.679-8.279,3.307c-1.604-0.193-3.375-0.769-4.727,0.114c-1.542,1.006-1.527,3.206-1.665,5.042
	c-0.086,1.143-0.31,2.31-0.937,3.27c-0.626,0.96-1.723,1.676-2.866,1.585c-0.909-0.071-1.818-0.625-2.679-0.324
	c-1.104,0.386-1.306,1.835-1.319,3.004c-0.032,2.814-0.064,5.627-0.096,8.442c-0.026,2.362-0.366,4.934,0.259,7.237
	c1.211,4.474,1.147,9.009,1.224,13.652c0.182,10.923-0.001,21.869,0.995,32.76c0.357,3.903-0.287,8.127,4.144,9.919
	c2.571,1.04,5.483,0.679,8.187,0.067s5.408-1.464,8.179-1.36c2.771,0.104,5.716,1.417,6.813,3.964
	c1.348,3.127-0.675,6.886-3.598,8.633c-2.923,1.748-6.475,1.987-9.876,2.167c-4.745,0.251-9.492,0.471-14.239,0.69
	c-5.402,0.25-10.545,0.538-15.931,0.158c-5.603-0.396-11.21-0.739-16.819-1.032c-11.218-0.584-22.448-0.962-33.68-1.132
	c-5.543-0.085-11.088-0.118-16.633-0.102c-4.909,0.014-9.57,0.677-14.497,0.629c-11.343-0.114-22.686-0.228-34.03-0.341
	c-18.036-0.181-36.071-0.361-54.107-0.542c-5.042-0.051-10.149-0.109-15.014-1.433c-2.387-0.65-4.686-1.595-7.068-2.261
	c-3.299-0.922-7.259-1.617-10.691-1.158c-3.243,0.433-6.253,0.233-9.569,0.091c-7.429-0.318-15.026-0.065-22.126,2.357
	c-1.979,0.675-3.911,1.516-5.954,1.959c-2.675,0.58-5.443,0.458-8.177,0.379c-11.017-0.32-22.009,0.386-33.024,0.25
	c-11.272-0.139-22.548-0.116-33.82,0.067c-11.28,0.184-22.558,0.529-33.829,1.036c-10.699,0.482-21.565-0.059-32.325-0.08
	c-22.617-0.044-45.232-0.089-67.849-0.134c-0.452-0.001-0.905-0.002-1.357-0.003c-3.114-0.006-6.348-0.039-9.156-1.385
	c-2.807-1.347-5.049-4.417-4.392-7.461c0.646-2.997,3.828-4.86,6.88-5.147c3.052-0.286,6.073,0.613,9.082,1.202
	c3.412,0.668,7.094,0.914,10.234-0.58c3.725-1.771,4.56-4.92,4.35-8.637c-0.284-5.023,0.528-10.357,0.718-15.395
	c0.39-10.357,0.69-20.722,1.513-31.057c0.315-3.966,0.493-11.208-0.594-14.896c-1.381-4.684-3.132-2.45-6.522-5.633
	c-2.37-2.224-0.294-6.798-2.542-9.147c-2.266-2.367-6.155-0.194-9.433-0.212c-2.26-0.012-4.476-1.262-5.656-3.189
	c-2.51-4.1,1.294-15.623,1.943-20.337c0.855-6.218,2.797-12.608,3.173-18.853c0.279-4.651,0.197-10.008,4.364-13.19
	c2.154-1.646,5.008-2.104,7.716-1.993c2.709,0.112,5.369,0.736,8.066,1.024c4.594,0.492,9.292-0.007,13.682-1.449
	c1.499-0.493,3.132-1.268,3.608-2.773c0.515-1.627-0.561-3.29-1.582-4.659c-2.134-2.866-4.27-5.73-6.404-8.596
	c-1.003-1.346-2.021-2.72-2.573-4.304c-0.552-1.585-0.577-3.444,0.344-4.849c0.905-1.382,2.523-2.085,3.809-3.121
	c2.946-2.375,0.97-5.35-0.383-8.06c-2.154-4.313-3.676-8.901-5.051-13.511c-1.421-4.766-3.562-9.451-4.294-14.346
	c-0.246-1.645-0.323-3.523,0.794-4.754c0.898-0.991,2.355-1.279,3.69-1.182c1.333,0.098,2.623,0.52,3.945,0.715
	c1.436,0.211,2.937,0.146,4.29-0.384c6.085-2.385,1.64-10.812,0.45-15.347c-1.631-6.207-3.366-12.386-5.078-18.571
	c-0.263-0.95-0.518-1.982-0.152-2.898c0.373-0.935,1.329-1.526,2.303-1.779c1.822-0.473,3.733,0.018,5.599,0.262
	c3.056,0.4,6.342-1.054,6.672-4.408c0.148-1.502-0.492-2.378-1.014-3.692c-0.758-1.91-0.933-4.098-1.481-6.088
	c-0.663-2.406-1.315-4.899-0.952-7.37c0.362-2.469,2.007-4.926,4.449-5.445c2.66-0.566,5.341,1.248,8.041,0.919
	c4.161-0.507,4.358-3.966,3.724-7.238c-0.938-4.839-1.685-9.723-2.526-14.579c-0.13-0.755-0.244-1.597,0.189-2.229
	c0.441-0.643,1.315-0.841,2.091-0.773c0.777,0.067,1.522,0.344,2.297,0.43c1.733,0.193,3.542-0.656,4.501-2.113
	c0.963-1.465,1.011-3.932,0.776-5.649c-0.241-1.752-2.489-3.926-1.583-5.682c0.516-0.999,1.837-1.19,2.96-1.251
	c9.255-0.503,18.536-0.517,27.792-0.043c0.953,0.049,1.96,0.119,2.752,0.654c4.335,2.923-3.971,13.661,2.265,14.377
	c1.432,0.165,2.881-0.943,4.242-0.468c0.931,0.325,1.487,1.329,1.578,2.311c0.092,0.982-0.192,1.955-0.472,2.9
	c-1.143,3.859-2.287,7.718-3.429,11.575c-0.627,2.119-1.163,4.685,0.331,6.313c1.523,1.659,4.195,1.293,6.37,0.709
	c1.71-0.458,3.429-0.974,5.198-1.015c1.77-0.041,3.637,0.458,4.849,1.75c1.726,1.84,1.68,4.686,1.352,7.187
	c-0.472,3.595-1.307,7.141-2.489,10.568c-0.751,2.178-1.552,4.865,0.012,6.558c1.127,1.218,3.018,1.308,4.66,1.065
	c1.642-0.243,3.314-0.731,4.931-0.354c2.838,0.662,4.474,3.87,4.353,6.782c-0.172,4.155-2.336,8.348-3.822,12.151
	c-1.808,4.629-3.507,9.299-5.096,14.008c-0.317,0.94-0.631,1.967-0.304,2.904c0.327,0.938,1.249,1.568,2.212,1.814
	c0.962,0.245,1.974,0.17,2.964,0.092c2.681-0.21,5.362-0.421,8.043-0.632c1.409-0.11,3.058-0.124,3.944,0.977
	c0.814,1.012,0.58,2.479,0.302,3.747c-2.531,11.574-5.194,22.966-11.475,33.187c-0.584,0.951-1.202,1.913-1.446,3.003
	s-0.036,2.356,0.814,3.08c1.379,1.174,3.632,0.415,5.178,1.359c2.839,1.732,1.297,5.511-0.148,7.459
	c-2.588,3.49-5.184,6.974-7.776,10.461c-0.938,1.262-1.923,2.682-1.777,4.248c0.141,1.523,1.372,2.77,2.775,3.379
	c1.403,0.609,2.968,0.699,4.496,0.781c2.658,0.141,5.633,0.176,7.585-1.633c1.584-1.468,2.042-3.756,2.415-5.884
	c1.73-9.867,3.461-19.735,5.191-29.602c0.486-2.774,1.052-5.712,2.96-7.784c3.082-3.344,8.321-3.163,12.847-2.728
	c10.586,1.017,21.174,2.036,31.76,3.053c1.576,0.151,3.153,0.051,4.708,0.152c1.804,0.118,3.224,0.602,4.887-0.506
	c1.495-0.995,2.376-2.844,2.208-4.631c-0.251-2.675-2.513-4.633-4.454-6.489c-2.69-2.573-5.052-5.49-7.009-8.657
	c-1.351-2.186-2.503-5.034-1.133-7.209c0.644-1.023,1.73-1.668,2.772-2.281c1.042-0.613,2.122-1.276,2.737-2.315
	c0.776-1.308,0.306-2.237-0.421-3.304c-0.818-1.199-1.301-2.276-1.823-3.697c-1.137-3.097-2.357-6.161-3.481-9.262
	c-2.401-6.624-4.538-13.925-5.311-20.943c-0.147-1.339-0.199-2.796,0.542-3.921c0.948-1.437,2.87-1.853,4.592-1.864
	c2.103-0.013,4.199,0.397,6.149,1.184c1.691,0.683,3.435,1.871,5.26,0.81c2.47-1.436,0.088-4.603-0.835-6.349
	c-1.929-3.646-2.695-7.532-3.667-11.514c-0.518-2.127-1.129-4.232-1.682-6.35c-0.764-2.926-2.09-6.196-1.955-9.24
	c0.083-1.859,0.921-3.794,2.552-4.691c1.462-0.804,3.296-0.636,4.838,0.002c0.909,0.377,1.795,0.915,2.779,0.922
	c4.497,0.039,3.319-5.733,2.476-8.253c-0.665-1.99-0.581-4.105-1.237-6.078c-0.684-2.059-1.045-4.057-0.95-6.259
	c0.087-2.049,0.64-4.135,1.919-5.739c1.279-1.603,3.365-2.642,5.392-2.329c1.044,0.161,2.002,0.654,2.965,1.087
	c2.002,0.898,3.305,1.331,4.43-0.814c1.034-1.971,1.248-4.342,1.021-6.524c-0.32-3.076-1.438-6.004-2.166-9.01
	c-0.32-1.326-0.567-2.707-0.314-4.047c0.253-1.34,1.097-2.64,2.382-3.095c1.558-0.551,3.452,0.197,4.85-0.685
	c1.326-0.836,1.498-2.707,1.238-4.252c-0.258-1.545-0.801-3.131-0.381-4.64c0.38-1.363,1.51-2.419,2.787-3.028
	c1.277-0.609,2.7-0.831,4.103-1.01c8.739-1.119,17.588-0.892,26.396-0.662c0.588,0.015,1.205,0.039,1.707,0.346
	c0.889,0.544,1.082,1.804,0.759,2.794c-0.323,0.99-1.031,1.797-1.637,2.646c-1.9,2.654-1.726,7.971,2.747,7.637
	c0.832-0.062,1.621-0.393,2.443-0.537c0.822-0.143,1.772-0.051,2.325,0.572c0.684,0.769,0.477,1.953,0.229,2.953
	c-1.085,4.368-2.17,8.736-3.254,13.104c-0.456,1.838-0.861,3.965,0.278,5.478c0.93,1.235,2.606,1.632,4.15,1.716
	c2.15,0.117,4.307-0.202,6.456-0.074c2.15,0.128,4.409,0.795,5.772,2.461c1.985,2.425,1.344,5.965,1.33,8.851
	c-0.018,3.578-1.975,7.533-3.041,10.934c-0.301,0.96-0.589,2.058-0.077,2.925c0.748,1.268,2.573,1.159,4.04,1.026
	c2.254-0.204,4.538-0.074,6.753,0.386c1.21,0.251,2.52,0.692,3.119,1.772c0.59,1.065,0.289,2.382-0.027,3.557
	c-1.153,4.296-1.804,8.726-3.173,12.909c-1.645,5.024-3.29,10.05-4.934,15.074c-0.297,0.909-0.592,1.916-0.219,2.796
	c0.347,0.818,1.211,1.318,2.085,1.478c0.873,0.16,1.77,0.035,2.651-0.07c2.465-0.293,4.947-0.43,7.429-0.411
	c1.159,0.009,2.415,0.088,3.298,0.838c1.103,0.938,1.233,2.573,1.195,4.02c-0.075,2.941-0.778,5.777-1.515,8.608
	c-0.611,2.349-0.587,4.403-1.61,6.656c-2.711,5.969-5.442,11.929-8.162,17.893c-0.734,1.608-1.449,3.566-0.481,5.044
	c1.259,1.923,4.493,1.627,5.769,3.539c1.643,2.462-0.337,5.516-1.492,7.679c-1.499,2.806-2.53,5.155-4.947,7.383
	c-2.338,2.155-4.989,4.001-6.984,6.476c-0.827,1.027-1.562,2.392-1.062,3.612c0.485,1.182,1.885,1.653,3.132,1.931
	c13.037,2.914,26.557-0.141,39.895-0.905c3.382-0.193,6.921-0.208,9.966,1.276c4.168,2.032,4.993,6.568,6.007,10.665
	c1.423,5.749,2.72,11.531,4.1,17.291c0.952,3.977,2.192,8.09,2.844,12.117c0.201,1.243-0.076,2.321,0.652,3.422
	c0.943,1.428,2.851,2.299,4.467,2.636c2.302,0.481,4.686,0.15,7.014-0.18c1.225-0.175,2.625-0.464,3.219-1.55
	c0.58-1.062,0.103-2.377-0.464-3.446c-2.976-5.61-8.272-9.92-10.3-15.938c-0.356-1.056-0.604-2.196-0.35-3.281
	c0.254-1.085,1.128-2.089,2.239-2.183c0.578-0.05,1.163,0.144,1.736,0.046c0.905-0.154,1.557-1.019,1.743-1.917
	s0.004-1.828-0.192-2.725c-1.256-5.704-3.385-11.042-5.328-16.525c-1.106-3.119-1.549-6.607-2.952-9.581
	c-1.43-3.03-1.679-6.371-1.76-9.709c-0.023-0.948-0.001-1.953,0.499-2.758c0.677-1.09,2.081-1.528,3.363-1.473
	c1.825,0.078,3.504,0.958,5.254,1.483c1.75,0.525,3.857,0.618,5.19-0.631c1.234-1.157,1.378-3.072,1.114-4.743
	c-0.667-4.227-2.241-8.304-3.145-12.509c-0.558-2.594-1.182-5.176-1.761-7.765c-0.764-3.422-3.101-6.876-1.771-10.466
	c0.884-2.384,3.668-4.137,6.046-3.239c1.169,0.441,2.279,1.457,3.482,1.123c0.843-0.234,1.367-1.066,1.717-1.867
	c1.96-4.485,0.025-10.503-0.564-15.136c-0.273-2.142-0.411-4.372,0.299-6.413c0.71-2.039,2.456-3.852,4.608-4.038
	c2.736-0.236,5.37,2.107,8.015,1.364c1.518-0.426,2.614-1.827,3.058-3.34c0.684-2.33-0.103-5.592-0.791-7.87
	c-0.895-2.962-1.24-6.03-1.706-9.098c-0.187-1.227-0.288-2.694,0.664-3.491c0.847-0.707,2.113-0.508,3.161-0.16
	c1.047,0.348,2.154,0.811,3.216,0.508c1.415-0.404,2.141-2.06,2.056-3.53s-0.763-2.827-1.279-4.206
	c-0.516-1.379-0.871-2.937-0.31-4.298c0.851-2.065,3.365-2.799,5.573-3.136c8.271-1.264,16.7-0.576,25.038,0.116
	c0.924,0.076,1.88,0.162,2.688,0.619c1.432,0.809,2.042,2.624,1.902,4.262c-0.139,1.638-0.884,3.155-1.596,4.636
	c-0.401,0.834-0.794,1.838-0.335,2.64c0.481,0.837,1.641,0.98,2.591,0.804c0.949-0.176,1.889-0.57,2.846-0.441
	c1.541,0.209,2.609,1.761,2.818,3.302c0.228,1.674-0.455,3.092-0.634,4.706c-0.11,0.994,0.166,1.906,0.134,2.9
	c-0.101,3.201-1.004,6.571-1.491,9.739c-0.155,1.005-0.283,2.13,0.318,2.95c0.777,1.059,2.328,1.063,3.637,0.962
	c2.255-0.173,4.509-0.346,6.764-0.519c1.362-0.105,2.867-0.168,3.94,0.676c1.01,0.793,1.338,2.163,1.523,3.433
	c1.023,6.98-1.052,13.402-2.673,20.14c-0.165,0.684-0.323,1.436-0.009,2.066c0.511,1.026,1.906,1.135,3.051,1.101
	c2.156-0.061,4.312-0.122,6.468-0.183c1.814-0.052,4.016,0.113,4.848,1.726c0.478,0.928,0.313,2.045,0.11,3.07
	c-0.961,4.852-2.688,9.687-4.163,14.413c-1.551,4.972-3.356,9.865-5.404,14.654c-0.358,0.837-0.727,1.789-0.377,2.629
	c0.538,1.291,2.293,1.408,3.69,1.318c3.34-0.218,6.679-0.435,10.019-0.652c1.036-0.067,2.193-0.097,2.974,0.587
	c0.894,0.781,0.912,2.142,0.844,3.327c-0.408,7.113-1.32,14.049-4.335,20.59c-2.161,4.689-4.784,9.196-6.315,14.127
	c-0.502,1.615-0.806,3.585,0.351,4.818c1.037,1.105,2.818,1.116,4.026,2.032c1.355,1.028,1.674,3.013,1.209,4.65
	C470.571,255.521,470.237,256.202,469.836,256.849z"/>
<path style="fill:#CEB578;" d="M103.133,459.563c-0.145,0-0.291,0-0.435,0"/>
<g>
	<path style="fill:#AA9375;" d="M121.399,272.567c-12.617-3.526-29.235-0.998-42.2,0.017c-10.384,0.813-21.16,2.349-31.512,2.592
		c-7.887,0.186-18.476-1.591-25.776,1.401c-10.489,4.298-9.122,18.101-10.416,27.54c-0.961,7.004-7.887,23.515,0.283,27.326
		c12.716,5.931,30.461,4.487,44.032,5.028c17.978,0.716,35.711,0.477,53.701-0.316c8.146-0.359,16.367-1.459,24.506-1.4
		c5.094,0.038,7.632,0.935,10.224-4.19c3.995-7.895,6.226-18.118,5.869-26.905c-0.314-7.732,0.669-15.14,0.859-22.855
		c0.159-6.464-0.741-6.299-6.948-6.934C134.532,272.9,125.65,273.665,121.399,272.567z"/>
	<path style="fill:#AA9375;" d="M162.726,231c-1.432,0.795-2.656,2.024-3.565,3.893c-4.248,8.733-4.074,20.247-6.234,29.624
		c-0.493,2.141-2.397,7.682-1.108,9.81c2.074,3.424,8.987,2.211,12.063,2.145c20.29-0.43,41.147,0.465,61.525,1.29
		c26.626,1.079,53.713,0.481,80.405,0.457c12.827-0.011,25.632-0.235,38.402-1.293c3.978-0.329,9.671,0.366,13.32-1.414
		c7.772-3.788,1.544-13.26-0.019-19.146c-1.665-6.263-1.582-19.284-7.034-23.689c-3.986-3.22-12.625-2.681-17.411-2.729
		c-12.523-0.124-25.136,0.063-37.645-0.534c-27.257-1.299-54.964-1.819-82.238-0.795c-11.751,0.441-23.52,1.063-35.272,1.326
		C172.878,230.06,166.915,228.674,162.726,231z"/>
	<path style="fill:#AA9375;" d="M362.319,292.571c1.996,11.996,1.196,26.427,5.219,38.013c1.608,4.632,2.401,5.492,7.163,5.905
		c10.106,0.877,19.911-0.84,30.032-0.861c29.347-0.061,59.881,0.785,88.908-2.082c6.591-0.652,10.817-1.796,10.016-9.436
		c-0.936-8.926-4.867-17.218-6.431-26.079c-0.922-5.229-0.761-16.7-4.847-20.246c-4.454-3.864-13.659-2.072-18.868-1.836
		c-10.195,0.463-20.399,0.265-30.497-1.21c-21.794-3.183-43.055-2.856-64.989-1.701c-3.907,0.205-10.255-0.151-13.733,1.477
		C357.904,277.505,361.874,290.768,362.319,292.571z"/>
	<path style="fill:#AA9375;" d="M227.507,326.491c-6.596,1.868-12.896,11.472-17.82,16.007c-3.764,3.467-13.347,8.713-4.771,10.957
		c6.615,1.73,14.823,1.642,21.393,0.073c8.565-2.046,12.993-12.959,20.767-17.699c14.462-8.815,22.828,5.624,32.061,13.698
		c6.523,5.705,21.562,10.267,29.711,5.23c8.068-4.986-5.197-10.444-9.154-13.133c-9.724-6.608-14.628-15.986-26.088-20.585
		C258.301,314.895,238.592,320.312,227.507,326.491z"/>
</g>
<g>
	<path style="fill:#6E775F;" d="M47.47,347.365c0.538,20.971-2.742,42.557-1.75,63.427c0.127,2.682-0.017,4.72,2.176,5.716
		c1.34,0.609,2.987-0.601,4.263-0.488c1.997,0.177,3.914,1.308,6.078,1.392c11.117,0.43,22.557-1.309,33.783-1.337
		c7.259-0.018,18.266,2.859,25.05,0.011c7.067-2.967,3.478-16.582,2.684-22.516c-0.898-6.717-1.22-13.501-1.346-20.271
		c-0.06-3.204,0.361-6.74-0.144-9.888c-0.498-3.105-0.175-5.801,0.815-8.815c0.594-1.81,1.595-4.575,0.316-6.348
		c-0.409-0.567-0.698-0.526-1.369-0.565c-0.936-0.054-1.095-0.081-1.839-0.556c-5.158-3.291-12.325-1.655-18.118-1.948
		c-7.843-0.397-15.379,0.509-23.185,0.844C66.715,346.374,57.431,344.988,47.47,347.365z"/>
	<path style="fill:#6E775F;" d="M134.444,347.8c0,14.155,0.412,28.2,0.435,42.283c0.011,6.724-1.745,16.461,0.001,22.892
		c1.136,4.181,4.739,3.285,9.551,3.757c15.755,1.543,32.249-0.057,48.075,0.611c3.831,0.162,8.692,0.672,12.41-0.3
		c6.063-1.585,4.602-6.744,4.857-12.48c0.467-10.515-0.713-20.977-0.966-31.479c-0.146-6.059,1.463-11.835,0.368-17.825
		c-5.59-0.831-5.193,0.739-8.521-4.318c-1.357-2.063,0.003-2.271-2.244-3.15c-2.834-1.108-9.696,0.281-12.98,0.05
		c-11.567-0.81-23.012-1.04-34.616-0.514C147.596,347.473,134.916,344.114,134.444,347.8z"/>
</g>
<path style="fill:#434C35;" d="M72.258,365.195c-2.128,10.482-1.998,22.421-1.74,33.204c0.081,3.362-0.423,5.57,3.047,6.91
	c3.067,1.185,10.078-0.286,13.511-0.541c2.623-0.196,7.117,0.023,9.024-1.731c2.563-2.356,3.08-9.364,3.614-12.51
	c0.974-5.747,3.579-23.748-1.787-27.974C92.98,358.662,76.878,358.422,72.258,365.195z"/>
<path style="fill:#6E775F;" d="M224.464,356.932c0,15.529-0.293,31.083-0.435,46.56c-0.025,2.799-1.148,9.145,0.435,11.496
	c1.442,2.14,5.549,1.975,8.186,2.034c2.139,5.361-2.901,9.169,4.404,10.345c8.916,1.435,19.524,0.773,28.513,0.43
	c4.412-0.169,11.044,1.266,13.038-3.061c1.521-3.302-0.745-4.399,2.645-6.249c4.066-2.219,5.391,0.873,7.239-3.555
	c2.577-6.173,0.945-14.787,1.196-21.294c0.243-6.287-0.308-12.099-0.425-18.374c-0.109-5.917,1.747-16.797-2.774-20.77
	c-2.202-1.935-4.749-2.919-6.795-5.049c-2.197-2.287-3.872-5.091-5.992-7.304c-3.671-3.836-9.841-7.945-15.315-8.254
	c-6.501-0.367-15.349,2.599-19.753,7.562c-2.525,2.845-3.094,7.083-6.161,9.398C229.414,353.15,223.47,352.989,224.464,356.932z"/>
<g>
	<path style="fill:#434C35;" d="M152.71,368.239c-2.107,8.119-5.559,22.343-1.738,30.439c2.634,5.58,13.243,5.465,18.37,5.124
		c9.35-0.623,9.826-11.197,10.668-18.866c0.582-5.3,4.003-19.128-2.936-21.502c-4.069-1.392-10.171,0.663-14.232,1.228
		C156.345,365.568,155.413,365.97,152.71,368.239z"/>
	<path style="fill:#434C35;" d="M239.832,426.128c-0.6-0.382-1.073-0.859-1.37-1.456c-1.932-3.873,0.836-11.383,1.247-15.473
		c0.653-6.5-0.053-12.875-0.036-19.3c0.015-6.205-3.944-25.883,2.605-28.967c4.984-2.348,15.109-0.474,20.456-0.531
		c3.442-0.038,9.456-1.123,11.74,1.751c3.415,4.3,0.593,17.049,0.414,21.936c-0.41,11.151-2.123,22.214-2.609,33.321
		c-0.276,6.321,1.353,9.653-5.589,10.068c-5.047,0.302-10.3,0.584-15.395,0.338C247.919,427.652,242.562,427.869,239.832,426.128z"
		/>
</g>
<g>
	<path style="fill:#6E775F;" d="M303.611,356.498c0.007,19.108-2.757,41.257,0.936,59.947c13.392,2.887,29.245,0.794,43.241,1.368
		c7.52,0.308,15.089-0.749,22.556-1.3c6.753-0.499,6.83-0.654,7.198-7.71c0.963-18.458,2.44-37.475,1.783-55.803
		c-0.292-8.127-4.738-5.769-11.786-6.105c-10.215-0.486-20.607-1.66-30.84-1.171c-5.302,0.254-10.548,0.973-15.846,1.231
		c-2.266,0.109-6.73-1.027-8.457,0.936c-1.384,1.573,0.124,4.962-1.43,6.651C308.864,356.825,305.394,354.556,303.611,356.498z"/>
	<path style="fill:#6E775F;" d="M392.325,348.234c1.981,5.92,0.251,14.338-0.01,20.5c-0.276,6.511-0.425,12.997-0.425,19.53
		c0,8.813-0.852,17.627-0.369,26.429c4.947,2.158,12.913,1.537,18.283,1.719c9.761,0.331,19.609-0.772,29.365,0.073
		c7.058,0.611,14.451,1.638,21.441,0.905c7.048-0.739,6.269-5.368,6.609-11.959c0.505-9.778-0.568-19.767-0.531-29.628
		c0.028-7.561,0.029-16.053-1.342-23.438c-1.124-6.055-2.488-6.149-8.226-6.729c-8.44-0.854-16.956-0.27-25.414-0.447
		c-8.406-0.177-16.562-0.869-25.032-0.869C401.921,344.32,396.009,343.486,392.325,348.234z"/>
</g>
<g>
	<path style="fill:#434C35;" d="M334.053,369.109c-1.164,7.418-0.386,13.95,0.435,21.32c0.348,3.127,0.268,7.734,2.045,10.426
		c3.462,5.246,13.257,4.344,18.829,3.031c2.386-0.562,5.476-0.938,6.956-3.01c2.646-3.705,1.522-13.923,0.884-18.11
		c-1.066-6.996,0.053-15.822-8.168-17.039C347.994,364.684,331.722,359.521,334.053,369.109z"/>
	<path style="fill:#434C35;" d="M414.069,364.326c0.658,10.901-3.781,22.11-0.868,33.041c1.942,7.288,7.47,7.794,14.641,7.426
		c11.202-0.576,13.627-3.711,13.189-15.046c-0.264-6.851,2.996-21.879-2.49-26.397C434.529,360.044,415.135,357.893,414.069,364.326
		z"/>
</g>
<path style="fill:#879377;" d="M96.61,102.965c-2.106,7.043-6.752,12.896,2.097,17.036c0.081,2.535-2.262,3.728-3.581,5.727
	c-1.66,2.514-3.015,5.83-3.515,8.765c-0.877,5.139,0.51,6.953,5.207,8.083c4.797,1.154,7.798,0.858,5.034,5.704
	c-2.826,4.956-6.555,9.125,2.023,10.37c4.959,0.72,19.582-1.547,21.383,5.1c-3.781,4.558-10.737,2.747-15.697,4.533
	c-6.419,2.311-11.687,10.489-7.243,16.763c3.347,4.726,10.276,6.302,15.604,7.091c4.407,0.652,13.284-0.412,15.607,4.785
	c3.431,7.678-13.561,7.94-18.227,8.261c-8.711,0.6-19.406,2.036-23.973,10.758c-1.8,3.436-2.721,9.08,1.097,11.1
	c4.155,2.198,11.961,0.792,16.81,2.452c5.393,1.846,31.103,4.864,30.892,13.187c-0.144,5.641-21.602,4.88-26.152,5.87
	c-5.404,1.178-31.664,1.558-27.774,10.012c2.375,5.16,20.408,5.893,25.281,6.315c6.88,0.595,16.398-2.048,22.489,2.159
	c-3.151,3.852-8.327,4.984-13.247,5.519c-13.469,1.463-27.721,1.217-41.303,1.994c-6.751,0.387-16.859,1.365-23.264-1.441
	c-4.189-1.835-7.429-7.28-10.101-11.149c-1.519-2.198-4.761-6.827-3.428-9.63c0.893-1.877,4.235-1.49,5.077-3.01
	c1.448-2.616-1.571-8.345-2.51-10.752c-2.771-7.099-5.798-14.149-8.27-21.35c-0.701-2.044-3.465-7.242-2.87-9.336
	c0.665-2.339,0.694-1.159,3.171-2.051c3.341-1.204,11.894,0.362,13.849-1.966c2.049-2.443-1.551-10.858-2.303-13.381
	c-1.382-4.633-7.196-12.939-5.687-17.931c1.328-4.395,7.672-2.032,11.562-3.715c4.836-2.095,2.994-3.462,1.943-8.639
	c-0.661-3.26-3.266-13.574-1.594-16.482c2.746-4.78,10.414-1.217,14.031-2.913c7.596-3.562-5.572-18.662,1.886-22.623
	c5.557-2.952,7.329,1.616,5.705-6.526c-0.475-2.382-1.507-4.434-0.078-6.28C79.358,101.737,89.175,102.626,96.61,102.965z"/>
<g>
	<path style="fill:#BBCCA2;" d="M92.502,131.989c-3.526,1.058-6.354,4.551-5.566,8.301c0.778,3.685,5.331,6.693,9.018,5.928
		c5.68-1.18,7.262-10.838,1.975-13.727C96.188,131.54,94.258,131.462,92.502,131.989z"/>
	<path style="fill:#BBCCA2;" d="M90.522,158.194c-11.276,3.266-3.84,23.526,7.922,15.361
		C107.264,167.433,99.462,151.443,90.522,158.194z"/>
	<path style="fill:#BBCCA2;" d="M91.827,192.985c-7.793-0.49-14.627,8.24-11.654,15.991c2.513,6.549,11.783,8.063,17.73,6.63
		C115.808,211.293,105.524,184.802,91.827,192.985z"/>
	<path style="fill:#BBCCA2;" d="M89.217,232.558c-7.943,5.754-9.34,22.024,1.741,24.363c11.327,2.391,18.115-12.392,11.728-21.106
		C100.345,232.62,91.467,231.233,89.217,232.558z"/>
</g>
<path style="fill:#879377;" d="M260.558,54.246c-2.106,7.043-6.752,12.896,2.097,17.036c0.081,2.535-2.262,3.728-3.583,5.727
	c-1.66,2.514-3.015,5.83-3.515,8.765c-0.877,5.139,0.51,6.953,5.206,8.083c4.797,1.154,7.798,0.858,5.034,5.704
	c-2.826,4.956-6.555,9.125,2.023,10.371c4.959,0.72,19.582-1.547,21.383,5.1c-3.781,4.558-10.738,2.747-15.697,4.533
	c-6.419,2.311-11.687,10.489-7.242,16.763c3.347,4.726,10.276,6.302,15.604,7.091c4.407,0.652,13.284-0.412,15.607,4.786
	c3.431,7.678-13.561,7.94-18.227,8.261c-8.711,0.6-19.406,2.036-23.973,10.757c-1.798,3.436-2.72,9.08,1.097,11.1
	c4.155,2.198,11.961,0.792,16.81,2.452c5.393,1.846,31.103,4.864,30.892,13.186c-0.144,5.642-21.602,4.878-26.152,5.87
	c-5.404,1.179-31.664,1.558-27.774,10.012c2.375,5.16,20.408,5.893,25.281,6.315c6.88,0.595,16.398-2.048,22.489,2.159
	c-3.151,3.852-8.327,4.984-13.247,5.519c-13.469,1.463-27.721,1.217-41.303,1.994c-6.751,0.387-16.859,1.365-23.264-1.441
	c-4.19-1.835-7.429-7.28-10.101-11.148c-1.519-2.198-4.761-6.827-3.428-9.63c0.893-1.877,4.235-1.49,5.077-3.01
	c1.448-2.616-1.571-8.345-2.51-10.752c-2.771-7.099-5.798-14.149-8.27-21.35c-0.701-2.044-3.465-7.242-2.87-9.336
	c0.665-2.339,0.694-1.159,3.171-2.053c3.341-1.204,11.894,0.362,13.849-1.966c2.049-2.443-1.551-10.858-2.303-13.381
	c-1.382-4.633-7.196-12.941-5.687-17.931c1.328-4.395,7.672-2.032,11.562-3.715c4.836-2.095,2.994-3.462,1.943-8.638
	c-0.662-3.26-3.266-13.574-1.594-16.482c2.746-4.78,10.414-1.217,14.031-2.913c7.596-3.562-5.572-18.662,1.886-22.623
	c5.557-2.952,7.329,1.616,5.705-6.524c-0.475-2.382-1.507-4.434-0.078-6.28C243.305,53.017,253.122,53.907,260.558,54.246z"/>
<g>
	<path style="fill:#BBCCA2;" d="M256.45,83.27c-3.526,1.058-6.354,4.551-5.566,8.301c0.778,3.685,5.331,6.692,9.018,5.928
		c5.682-1.18,7.262-10.838,1.975-13.727C260.136,82.82,258.206,82.742,256.45,83.27z"/>
	<path style="fill:#BBCCA2;" d="M254.47,109.475c-11.276,3.266-3.84,23.526,7.922,15.361
		C271.212,118.713,263.409,102.723,254.47,109.475z"/>
	<path style="fill:#BBCCA2;" d="M255.775,144.265c-7.793-0.49-14.628,8.24-11.654,15.992c2.513,6.548,11.783,8.063,17.73,6.63
		C279.756,162.574,269.472,136.083,255.775,144.265z"/>
	<path style="fill:#BBCCA2;" d="M253.165,183.839c-7.943,5.754-9.34,22.024,1.741,24.363c11.327,2.391,18.115-12.39,11.728-21.106
		C264.292,183.901,255.415,182.514,253.165,183.839z"/>
</g>
<path style="fill:#879377;" d="M421.759,101.86c-2.106,7.043-6.752,12.896,2.097,17.036c0.081,2.535-2.262,3.728-3.581,5.727
	c-1.66,2.514-3.015,5.83-3.515,8.765c-0.877,5.139,0.51,6.953,5.207,8.083c4.797,1.154,7.798,0.858,5.034,5.704
	c-2.826,4.956-6.555,9.125,2.023,10.37c4.959,0.72,19.582-1.547,21.383,5.1c-3.781,4.558-10.738,2.747-15.697,4.533
	c-6.419,2.311-11.687,10.489-7.243,16.763c3.347,4.726,10.276,6.302,15.604,7.091c4.407,0.652,13.285-0.412,15.607,4.785
	c3.431,7.678-13.561,7.94-18.227,8.261c-8.711,0.6-19.406,2.036-23.973,10.758c-1.8,3.436-2.721,9.08,1.097,11.1
	c4.155,2.198,11.961,0.792,16.81,2.452c5.393,1.846,31.103,4.864,30.892,13.187c-0.144,5.641-21.602,4.88-26.152,5.87
	c-5.404,1.178-31.664,1.558-27.774,10.012c2.375,5.16,20.408,5.893,25.281,6.315c6.88,0.595,16.398-2.048,22.489,2.159
	c-3.151,3.852-8.327,4.984-13.247,5.519c-13.469,1.463-27.721,1.217-41.303,1.994c-6.751,0.387-16.859,1.365-23.264-1.441
	c-4.19-1.835-7.429-7.28-10.102-11.149c-1.519-2.198-4.761-6.827-3.428-9.63c0.893-1.877,4.235-1.49,5.077-3.01
	c1.448-2.616-1.571-8.345-2.51-10.752c-2.771-7.099-5.798-14.149-8.27-21.35c-0.702-2.044-3.465-7.242-2.87-9.336
	c0.665-2.339,0.694-1.159,3.171-2.051c3.341-1.204,11.894,0.362,13.849-1.966c2.049-2.443-1.551-10.858-2.303-13.381
	c-1.382-4.633-7.196-12.939-5.687-17.931c1.328-4.395,7.672-2.032,11.562-3.715c4.836-2.095,2.994-3.462,1.943-8.639
	c-0.662-3.26-3.266-13.574-1.594-16.482c2.746-4.78,10.414-1.217,14.031-2.913c7.596-3.562-5.572-18.662,1.886-22.623
	c5.557-2.952,7.329,1.616,5.705-6.526c-0.475-2.382-1.507-4.434-0.078-6.28C404.507,100.632,414.324,101.521,421.759,101.86z"/>
<g>
	<path style="fill:#BBCCA2;" d="M417.651,130.884c-3.526,1.058-6.354,4.551-5.566,8.301c0.777,3.685,5.331,6.693,9.018,5.928
		c5.68-1.18,7.262-10.838,1.975-13.727C421.337,130.435,419.407,130.358,417.651,130.884z"/>
	<path style="fill:#BBCCA2;" d="M415.671,157.089c-11.276,3.266-3.84,23.526,7.922,15.361
		C432.413,166.328,424.611,150.338,415.671,157.089z"/>
	<path style="fill:#BBCCA2;" d="M416.976,191.88c-7.793-0.49-14.628,8.24-11.654,15.991c2.513,6.549,11.783,8.063,17.73,6.63
		C440.957,210.188,430.673,183.697,416.976,191.88z"/>
	<path style="fill:#BBCCA2;" d="M414.366,231.453c-7.943,5.754-9.34,22.024,1.741,24.363c11.327,2.391,18.115-12.392,11.728-21.106
		C425.493,231.515,416.615,230.129,414.366,231.453z"/>
</g>
<path style="fill:#6E775F;" d="M221.855,285.613c1.201,4.569-5.566,6.639-8.698,8.239c-4.282,2.185-7.156,8.85-5.216,13.944
	c2.056,5.399,17.61,2.393,23.13,2.6c12.953,0.489,25.891,1.416,38.849,0.852c8.112-0.354,16.152-0.969,24.22-1.272
	c6.983-0.263,10.268-0.101,9.91-8.907c-0.218-5.351-2.435-7.404-7.18-8.891c-1.99-0.624-3.959-0.69-5.458-2.193
	c-1.341-1.344-1.033-3.519-3.447-4.719c-2.392-1.191-6.551-0.506-9.208-0.51c-7.357-0.011-14.817,0.363-22.164,0.004
	C246.212,284.253,233.115,282.168,221.855,285.613z"/>
<g>
	<path style="fill:#879377;" d="M40.076,338.668c-2.733,16.117-1.457,34.383-0.859,50.71c0.347,9.486-1.112,19.044,0.369,28.275
		c-2.67,0.247-5.789,0.055-8.576,0.095c-0.758-13.019-0.388-26.658,0.792-39.624c0.735-8.081,2.456-16.827,1.752-24.954
		c-0.583-6.732-4.349-5.353-7.414-9.728c-1.392-1.987-1.644-4.098,0.014-5.219C28.246,336.808,39.935,337.262,40.076,338.668z"/>
	<path style="fill:#879377;" d="M2.243,425.207c4.727,0.114,9.422,1.317,14.299,1.305c12.371-0.03,24.664-1.256,37.009-1.304
		c25.471-0.097,50.945-0.001,76.416-0.001c21.813,0,45.478-1.46,66.329,0.868c5.651,0.631,12.223-1.301,18.016-1.304
		c4.136-0.001,8.425,0.031,12.543,0.435c2.877,0.283,5.108-0.254,4.023,3.383c-1.249,4.184-6.404,2.897-9.76,2.743
		c-31.861-1.459-63.247,1.251-95.182-0.376c-16.275-0.829-32.927,0.228-49.188,0.994c-13.304,0.629-26.848-0.344-40.213-0.211
		C33.151,431.774,4.001,433.054,2.243,425.207z"/>
	<path style="fill:#879377;" d="M216.201,356.932c3.534,10.975,0.134,26.023-0.451,37.536c-0.244,4.799-0.157,9.907,0.234,14.669
		c0.218,2.651,1.263,5.687,0.129,8.187c-2.809-0.741-7.8,0.429-9.064-2.539c-0.541-1.27,0.968-4.723,1.122-6.065
		c0.347-3.004,0.426-6.247,0.54-9.273c0.226-5.999,0.082-11.761,0.097-17.742c0.014-6.131-0.404-12.46,0.434-18.485
		C210.22,356.196,211.951,358.873,216.201,356.932z"/>
	<path style="fill:#879377;" d="M127.052,339.103c0,25.044,2.261,50.668,0.804,75.506c-2.262-0.386-6.942-0.721-9.097,0.119
		c-1.818-3.923,0.03-12.395,0.031-16.715c0.001-7.393-0.083-14.825-0.032-22.147c0.054-7.854,2.211-16.462,1.337-24.246
		c-0.656-5.842-3.976-3.788-6.957-7.298c-0.984-1.158-2.348-3.916-1.017-5.346C113.455,337.539,129.328,338.136,127.052,339.103z"/>
	<path style="fill:#879377;" d="M288.406,355.33c1.732,12.806,0.033,26.939,0,39.975c-0.018,6.73,1.439,13.305,1.041,19.984
		c-3.878,2.631-6.566,0.218-8.262,5.563c-0.745,2.348-2.032,8.365,0.318,10.276c1.528,1.243,8.259,0.758,10.475,0.803
		c4.582,0.093,9.128-0.927,13.733-0.735c7.561,0.316,15.268,0.393,22.827,0.36c9.607-0.043,19.182,1.14,28.768,0.825
		c10.026-0.329,20.089-0.866,30.119-0.825c18.223,0.073,36.201-2.566,54.425-1.106c11.794,0.945,23.684,0.738,35.522,0.738
		c7.649,0,16.264,1.11,23.779-0.696c3.21-0.771,9.172-4.083,3.822-6.696c-3.363-1.642-12.095,1.019-15.576,1.149
		c-7.296,0.274-14.625-0.266-21.923-0.036c-35.037,1.105-70.13-0.348-105.224,0.774c-15.732,0.503-31.413-0.624-47.118,0
		c-4.159,0.166-9.102,1.168-13.12-0.309c-5.419-1.991-3.839-9.298-4.102-14.257c-0.762-14.348-0.663-29.118-2.535-43.263
		c-0.372-2.808,0.191-8.328-1.064-10.837C292.574,353.549,290.796,355.405,288.406,355.33z"/>
	<path style="fill:#879377;" d="M386.725,340.232c0.207,3.451-0.83,6.858-1.033,10.296c-0.404,6.853-0.378,13.697-0.442,20.563
		c-0.085,9.253-0.367,18.514-0.367,27.79c0,6.808,2.709,17.542-6.448,17.194c-1.705-0.065-2.137,0.94-3.134-0.716
		c-0.794-1.319,0.686-6.779,0.735-8.575c0.209-7.682,1.194-15.362,1.495-23.019c0.272-6.923,0.011-13.801,0.713-20.682
		c0.419-4.107,2.113-10.103,1.084-14.167c-0.927-3.66-4.01-2.285-5.647-5.167c-0.348-0.611-0.777-5.653-0.157-6.39
		C375.227,335.334,382.607,336.55,386.725,340.232z"/>
	<path style="fill:#879377;" d="M472.524,338.759c1.322,3.486-0.202,8.437-0.019,12.172c0.281,5.729,0.751,11.194,0.47,16.937
		c-0.476,9.702-0.841,19.281-0.446,28.974c0.177,4.344,0.099,8.662,0.356,12.993c0.096,1.618,0.957,4.003,0.662,5.436
		c-0.652,3.163-4.533,3.335-7.594,2.236c-0.172-4.022,1.306-8.366,1.426-12.473c0.14-4.807-0.929-9.312-1.112-14.074
		c-0.365-9.523-0.219-19.17-0.414-28.649c-0.077-3.72,1.116-13.135-1.578-16.022c-2.75-2.947-6.333-1.981-5.316-7.837
		C464.478,336.388,469.069,337.877,472.524,338.759z"/>
	<path style="fill:#879377;" d="M197.819,278c-5.328,5.347-9.907,14.645-8.833,22.325c1.33,9.504,10.579,15.011,19.194,17.01
		c8.022,1.861,16.954,2.339,24.574,3.363c-0.636,4.62-8.907,6.829-12.407,8.782c-5.384,3.005-9.225,1.38-15.622,0.809
		c-12.325-1.1-25.703-1.967-38.041-0.738c-6.604,0.658-14.402-2.13-20.721-0.056c-3.32-6.829-0.486-17.821,1.188-24.794
		c1.811-7.544,1.695-16.722,4.179-23.874c1.487-4.28,6.807-3.872,10.999-3.969C176.052,276.54,189.912,277.631,197.819,278z"/>
	<path style="fill:#879377;" d="M276.622,322.557c17.118,0.319,34.189,0.737,51.344,0.737c7.473,0,15.412,1.148,20.342-5.682
		c3.777-5.231,4.169-12.548,3.72-18.754c-0.249-3.431-2.545-27.321,6.75-22.421c2.5,1.318,3.924,6.054,4.297,8.552
		c0.73,4.876,1.525,9.874,1.557,14.846c0.054,8.378,3.929,19.328-1.839,26.709c-3.069,3.926-7.355,2.88-11.907,2.908
		c-6.865,0.041-13.704,0.784-20.57,0.829c-8.657,0.055-17.29-0.013-25.95,0.347C294.823,331.022,288.338,331.943,276.622,322.557z"
		/>
</g>
<g>
	<path style="fill:#897358;" d="M85.876,276.159c-8.879,8.847-25.511,25.748-12.173,38.075c12.583,11.629,35.146,7.339,50.75,7.946
		c5.263,0.204,16.469,0.803,17.76,7.265c2.182,10.908-17.451,6.755-22.674,6.738c-17.658-0.061-35.387-0.034-53.038-0.646
		c-12.733-0.442-25.553-2.863-38.19-2.76c-5.981,0.05-15.608,2.415-18.375-4.043c-1.791-4.181-1.171-9.631-0.314-14.008
		c1.109-5.661,2.237-10.897,2.982-16.647c0.594-4.597,0.746-10.271,2.923-14.371c2.116-3.984,6.6-4.715,10.759-5.44
		c8.658-1.508,17.438-0.492,26.129-1.455C64.065,275.521,75.615,275.054,85.876,276.159z"/>
	<path style="fill:#897358;" d="M226.91,230.497c-3.182,2.976-5.574,8.434-4.206,12.775c2.713,8.606,15.623,10.905,22.977,12.443
		c27.19,5.687,54.28,10.373,82.078,11.646c2.728,0.125,34.413-1.454,33.517,5.504c-0.98,7.611-31.648,4.755-36.11,4.765
		c-20.594,0.046-41.181,0.637-61.8-0.367c-21.767-1.061-43.209-1.634-64.987-1.477c-8.457,0.061-17.08,0.138-25.514,0.729
		c-5.768,0.404-12.624,1.348-18.324-0.072c-4.528-1.127-3.711-1.983-2.555-6.036c1.161-4.077,2.169-8.285,3.025-12.491
		c1.372-6.741,0.4-21.894,6.638-26.425c5.12-3.718,14.042-2.469,19.903-2.469C195.798,229.024,210.95,230.463,226.91,230.497z"/>
	<path style="fill:#897358;" d="M363.526,300.83c0.877,7.161,2.587,14.402,3.682,21.616c0.836,5.514,1.228,10.874,7.161,12.823
		c10.845,3.565,25.031,0.405,36.207,0.616c14.266,0.268,28.396,0.672,42.667,0.009c10.551-0.49,22.396,1.162,32.627-1.832
		c11.625-3.402-6.102-11.37-10.231-12.799c-10.242-3.548-19.949-6.551-29.636-11.667c-8.458-4.466-20.727-8.528-25.724-17.327
		c-1.688-2.972-2.083-6.642-1.194-9.978c0.497-1.863,3.321-5.128,2.948-7.034c-0.687-3.514-6.833-3.017-9.662-3.158
		c-9.087-0.452-18.39-0.063-27.458,0.346c-5.717,0.257-13.251-1.189-18.726,0.769c-4.186,1.497-3.921,5.849-4.154,9.951
		C361.639,290.119,362.665,298.375,363.526,300.83z"/>
	<path style="fill:#897358;" d="M211.045,342.651c-2.196,2.419-9.362,6.08-9.137,9.663c0.162,2.593,4.36,2.434,6.327,2.631
		c5.029,0.505,14.889,1.507,19.503-1.063c2.325-1.296,3.882-4.601,5.635-6.608c2.439-2.794,4.951-5.652,7.881-7.955
		c5.067-3.982,12.34-6.996,18.781-5.335c4.967,1.281,9.15,5.426,12.639,9.038c2.964,3.069,5.269,7.809,9.111,9.914
		c3.825,2.096,9.227,2.259,13.448,2.05c3.859-0.19,8.401,0.076,12.031-0.981c2.853-0.831,4.062-2.08,1.442-3.895
		c-2.563-1.774-5.732-1.545-8.663-1.959c-3.78-0.532-8.074-1.465-11.449-3.294c-3.537-1.918-6.268-5.211-9.565-7.543
		c-3.475-2.458-7.088-4.814-10.969-6.584c-8.761-3.995-18.711-3.362-27,1.58c-5.334,3.179-9.273,9.823-15.852,10.827
		c-2.151,0.328-4.476-0.584-6.457-1.249C215.409,340.766,214.85,340.838,211.045,342.651z"/>
</g>
<path d="M93.624,358.634c-3.601-0.457-7.689-0.529-11.331-0.299c-3.104,0.196-7.478,0.101-10.031,2.159
	c-5.321,4.291-3.644,15.828-3.099,22.3c-0.555,3.854-0.931,7.785-1.169,11.672c-0.157,2.568-0.94,5.807,0.22,8.204
	c2.392,4.938,12.737,4.41,17.228,4.811c6.382,0.571,12.788,1.079,14.863-6.063c2.478-8.53,1.891-17.893,1.561-26.691
	C101.601,367.655,102.467,359.757,93.624,358.634z M97.433,390.406c-0.071,1.986-0.348,3.885-0.727,5.824
	c-0.552,2.827-0.612,3.742-3.288,5.378c-4.646,2.839-12.134,1.281-17.287,0.045c-2.373-0.569-3.346-0.81-3.694-3.21
	c-0.368-2.545,0.17-5.54,0.389-8.077c0.671-7.756,1.203-15.538,1.268-23.32c0.243-0.729,0.57-1.407,1.044-1.984
	c2.578-3.133,13.786-2.826,17.882-1.974c5.174,1.076,4.063,5.611,4.24,9.586c0.143,3.205,0.184,6.391,0.183,9.599
	C97.443,384.978,97.529,387.699,97.433,390.406z"/>
<path d="M166.112,362.743c-4.259-0.222-8.651,0.095-12.203,1.576c-4.895,2.041-5.404,7.852-5.867,12.576
	c-0.416,4.241-0.472,8.576-0.84,12.837c-0.263,3.053-0.965,7.716,0.168,10.653c2.077,5.382,11.391,6.351,16.214,6.793
	c4.988,0.457,11.456,0.901,14.294-3.731c3.441-5.616,3.449-13.445,3.475-19.791c0.015-3.715,0.092-7.366,0.059-11.087
	c-0.022-2.598,1.118-5.231-0.483-7.585C178.277,361.081,171.359,361.527,166.112,362.743z M177.209,374.775
	c0.211,2.462-0.162,4.777-0.268,7.226c-0.231,5.379,0.14,10.783-1.653,16.019c-1.721,5.025-6.665,4.571-11.358,4.374
	c-2.543-0.107-5.126-0.747-7.552-1.459c-3.852-1.131-4.423-2.689-4.659-6.583c-0.299-4.933,0.434-9.918,0.493-14.857
	c0.025-2.11,0.059-4.665,0.377-6.787c0.603-4.036,2.787-5.25,6.316-5.707c1.728-0.224,3.45-0.393,5.17-0.556
	c4.777-0.028,12.304-0.935,13.195,2.835C177.639,370.839,177.064,373.082,177.209,374.775z"/>
<path d="M506.762,415.878c-3.287-0.601-7.808,0.251-11.165,0.432c-3.343,0.18-6.614,0.464-9.977,0.41
	c-0.829-0.013-1.66-0.034-2.49-0.051c0.483-2.171-0.059-5.003-0.107-6.76c-0.2-7.346-0.493-14.77-0.54-22.099
	c-0.049-7.603-0.738-15.128-0.764-22.735c-0.019-5.529-0.404-11.405-1.216-16.967c3.138-0.283,6.429-0.858,7.754-3.771
	c0.822-1.808,0.968-4.291,0.319-6.33c1.082-0.103,2.162-0.203,3.243-0.312c3.785-0.38,12.03-0.747,14.084-4.806
	c2.064-4.08-0.57-11.107-1.019-15.298c-0.675-6.315-0.259-12.809-1.747-19.017c-1.479-6.172-1.71-13.143-4.039-19.046
	c-1.898-4.809-7.057-4.771-11.496-5.325c-5.461-0.681-10.837-1.29-16.351-1.378c-3.022-0.048-6.033-0.066-9.042-0.086
	c0.033-0.061,0.107-0.246,0.191-0.485c2.297-2.133,4.201-4.944,5.318-7.035c2.134-3.995,8.606-10.973,5.991-15.826
	c-1.151-2.138-4.001-3.043-7.157-3.394c2.883-6.182,5.361-12.531,7.655-19.013c1.428-4.038,2.561-8.399,3.542-12.568
	c0.696-2.955,2.163-6.431,1.807-9.434c-0.19-1.6-1.115-2.534-2.71-2.71c-3.204-0.355-6.276,0.369-9.477,0.355
	c-2.046-0.009-4.082-0.183-6.122-0.297c1.151-1.654,2.279-2.862,2.85-5.306c0.808-3.457,1.688-6.82,2.423-10.309
	c1.309-6.216,5.066-12.177,4.287-18.756c-0.186-1.57-1.162-2.764-2.826-2.826c-2.53-0.094-5.119,0.287-7.629,0.116
	c-1.56-0.106-2.898-0.37-4.298-0.504c2.437-4.2,2.596-10.036,3.384-14.604c0.685-3.971,1.489-8.638-2.647-11.028
	c-2.104-1.216-4.692-0.896-7.004-0.943c-2.464-0.051-4.918-0.244-7.376-0.389c0.657-1.594,0.958-3.419,1.372-5
	c0.666-2.546,1.403-5.062,1.838-7.666c0.294-1.762,1.222-4.192,1.001-5.986c-0.506-4.118-4.756-3.87-7.815-3.851
	c-1.173,0.008-2.243-0.105-3.254-0.246c2.161-2.82,3.786-8.664,3.706-9.99c-0.274-4.581-4.174-4.293-7.669-4.377
	c-8.749-0.209-17.945-0.211-26.765,0c-3.495,0.084-7.395-0.205-7.669,4.377c-0.08,1.326,1.547,7.17,3.706,9.99
	c-1.013,0.141-2.081,0.253-3.255,0.246c-3.059-0.019-7.309-0.267-7.814,3.851c-0.22,1.794,0.707,4.224,1.001,5.986
	c0.435,2.604,1.172,5.12,1.838,7.666c0.414,1.58,0.715,3.406,1.372,5c-2.457,0.146-4.912,0.339-7.376,0.389
	c-2.312,0.048-4.899-0.274-7.004,0.943c-4.136,2.391-3.332,7.057-2.647,11.028c0.788,4.568,0.947,10.404,3.384,14.604
	c-1.401,0.135-2.739,0.398-4.298,0.504c-2.51,0.171-5.099-0.209-7.629-0.116c-1.663,0.062-2.639,1.255-2.826,2.826
	c-0.779,6.579,2.979,12.538,4.287,18.756c0.735,3.489,1.615,6.853,2.423,10.309c0.235,1.008,0.613,1.996,0.882,3
	c0.895,3.334-1.848,2.593-4.154,2.603c-3.203,0.013-6.274-0.709-9.477-0.355c-1.595,0.177-2.521,1.11-2.71,2.71
	c-0.356,3.004,1.112,6.48,1.807,9.434c0.981,4.169,2.113,8.529,3.542,12.568c2.293,6.482,4.771,12.831,7.653,19.013
	c-3.156,0.351-6.006,1.256-7.157,3.394c-2.615,4.854,3.857,11.831,5.991,15.826c0.982,1.838,2.573,4.232,4.503,6.234
	c-2.918-0.205-7.025-0.994-10.226-0.449c-0.446-2.85-1.022-5.685-1.637-8.459c-1.434-6.463-2.507-12.954-3.796-19.45
	c-0.897-4.519-1.531-11.354-4.45-15.141c-2.508-3.256-7.313-2.414-10.892-2.216c-12.857,0.71-25.792,1.108-38.674,1.218
	c-2.095,0.018-4.213-0.075-6.339-0.175c3.989-1.544,7.537-6.436,9.246-9.636c2.134-3.995,8.606-10.973,5.991-15.826
	c-1.151-2.138-4.001-3.043-7.157-3.394c2.883-6.182,5.361-12.531,7.655-19.013c1.428-4.038,2.561-8.399,3.541-12.568
	c0.696-2.955,2.163-6.431,1.807-9.435c-0.19-1.6-1.115-2.533-2.71-2.71c-3.204-0.355-6.276,0.369-9.477,0.355
	c-2.306-0.01-5.049,0.73-4.155-2.603c0.27-1.004,0.646-1.994,0.882-3c0.808-3.457,1.688-6.82,2.423-10.309
	c1.309-6.216,5.066-12.177,4.287-18.756c-0.186-1.57-1.162-2.764-2.826-2.826c-2.53-0.094-5.119,0.287-7.629,0.115
	c-1.56-0.106-2.898-0.37-4.298-0.504c2.437-4.2,2.596-10.036,3.384-14.603c0.685-3.971,1.489-8.638-2.647-11.028
	c-2.104-1.216-4.692-0.896-7.004-0.943c-2.464-0.051-4.918-0.244-7.375-0.389c0.657-1.594,0.958-3.419,1.372-5
	c0.666-2.546,1.403-5.062,1.838-7.666c0.294-1.762,1.222-4.192,1.001-5.986c-0.506-4.118-4.756-3.87-7.815-3.851
	c-1.173,0.008-2.243-0.105-3.254-0.246c2.161-2.82,3.786-8.664,3.706-9.989c-0.274-4.581-4.174-4.293-7.669-4.377
	c-8.82-0.21-18.016-0.209-26.765,0c-3.495,0.084-7.395-0.204-7.669,4.377c-0.08,1.326,1.547,7.17,3.706,9.989
	c-1.013,0.141-2.081,0.253-3.254,0.246c-3.059-0.019-7.309-0.267-7.815,3.851c-0.22,1.794,0.707,4.224,1.002,5.986
	c0.435,2.604,1.172,5.12,1.838,7.666c0.414,1.58,0.715,3.406,1.372,5c-2.457,0.145-4.913,0.339-7.376,0.389
	c-2.312,0.048-4.899-0.274-7.004,0.943c-4.136,2.391-3.332,7.057-2.647,11.028c0.788,4.568,0.947,10.403,3.384,14.603
	c-1.401,0.135-2.739,0.398-4.298,0.504c-2.51,0.171-5.099-0.209-7.629-0.115c-1.663,0.062-2.639,1.255-2.825,2.826
	c-0.779,6.579,2.979,12.538,4.287,18.756c0.735,3.489,1.615,6.853,2.423,10.309c0.571,2.444,1.699,3.652,2.85,5.306
	c-2.04,0.115-4.076,0.289-6.122,0.297c-3.203,0.013-6.274-0.709-9.477-0.355c-1.595,0.177-2.521,1.11-2.71,2.71
	c-0.356,3.004,1.112,6.48,1.807,9.435c0.981,4.169,2.113,8.529,3.542,12.568c2.293,6.482,4.771,12.831,7.653,19.013
	c-3.156,0.35-6.006,1.256-7.157,3.394c-2.615,4.854,3.857,11.831,5.991,15.826c1.117,2.091,3.021,4.903,5.318,7.035
	c0.084,0.239,0.159,0.424,0.192,0.485c0.495,0.925,1.111,1.553,1.865,2.118c-2.116,0.099-4.224,0.191-6.308,0.173
	c-12.883-0.11-25.818-0.508-38.674-1.219c-3.579-0.198-8.384-1.04-10.892,2.216c-2.918,3.788-3.553,10.622-4.45,15.141
	c-1.289,6.496-2.362,12.987-3.796,19.45c-0.615,2.774-1.191,5.61-1.637,8.459c-3.201-0.546-7.309,0.243-10.226,0.449
	c1.929-2.002,3.521-4.396,4.503-6.234c2.134-3.995,8.606-10.973,5.991-15.826c-1.151-2.138-4.001-3.043-7.157-3.394
	c2.883-6.182,5.361-12.531,7.655-19.013c1.428-4.038,2.561-8.399,3.542-12.568c0.695-2.955,2.163-6.431,1.807-9.434
	c-0.19-1.6-1.115-2.534-2.71-2.71c-3.204-0.355-6.276,0.369-9.477,0.355c-2.306-0.01-5.049,0.73-4.154-2.603
	c0.27-1.004,0.646-1.993,0.882-3c0.808-3.457,1.688-6.82,2.423-10.309c1.309-6.216,5.066-12.177,4.287-18.756
	c-0.186-1.57-1.162-2.764-2.826-2.826c-2.53-0.094-5.119,0.287-7.629,0.116c-1.56-0.106-2.898-0.37-4.298-0.504
	c2.437-4.2,2.596-10.036,3.384-14.604c0.685-3.971,1.489-8.638-2.647-11.028c-2.104-1.216-4.692-0.896-7.004-0.943
	c-2.464-0.051-4.918-0.244-7.375-0.389c0.657-1.594,0.958-3.419,1.372-5c0.666-2.546,1.403-5.062,1.838-7.666
	c0.295-1.762,1.222-4.192,1.002-5.986c-0.506-4.118-4.756-3.87-7.814-3.851c-1.173,0.008-2.243-0.105-3.254-0.246
	c2.161-2.82,3.786-8.664,3.706-9.99c-0.274-4.581-4.174-4.293-7.669-4.377c-8.82-0.211-18.016-0.209-26.765,0
	c-3.495,0.084-7.395-0.205-7.669,4.377c-0.08,1.326,1.545,7.17,3.706,9.99c-1.013,0.141-2.081,0.253-3.254,0.246
	c-3.059-0.019-7.309-0.267-7.814,3.851c-0.22,1.794,0.707,4.224,1.001,5.986c0.435,2.604,1.172,5.12,1.838,7.666
	c0.414,1.58,0.715,3.406,1.372,5c-2.457,0.146-4.912,0.339-7.376,0.389c-2.312,0.048-4.899-0.274-7.004,0.943
	c-4.136,2.391-3.332,7.057-2.647,11.028c0.788,4.568,0.947,10.404,3.384,14.604c-1.401,0.135-2.739,0.398-4.298,0.504
	c-2.51,0.171-5.099-0.209-7.629-0.116c-1.663,0.062-2.639,1.255-2.825,2.826c-0.779,6.579,2.979,12.538,4.287,18.756
	c0.735,3.489,1.615,6.853,2.423,10.309c0.571,2.444,1.699,3.652,2.85,5.306c-2.04,0.115-4.076,0.289-6.122,0.297
	c-3.203,0.013-6.274-0.709-9.477-0.355c-1.595,0.177-2.521,1.11-2.71,2.71c-0.356,3.004,1.112,6.48,1.807,9.434
	c0.981,4.169,2.113,8.529,3.542,12.568c2.293,6.482,4.771,12.831,7.653,19.013c-3.156,0.351-6.006,1.256-7.157,3.394
	c-2.615,4.854,3.857,11.831,5.991,15.826c1.117,2.091,3.021,4.903,5.318,7.035c0.084,0.237,0.159,0.423,0.192,0.485
	c-3.009,0.02-6.02,0.039-9.042,0.086c-5.514,0.087-10.89,0.697-16.351,1.378c-4.439,0.553-9.599,0.516-11.496,5.325
	c-2.33,5.904-2.56,12.874-4.039,19.046c-1.488,6.207-1.072,12.702-1.747,19.017c-0.449,4.192-3.082,11.218-1.019,15.298
	c2.054,4.059,10.299,4.426,14.084,4.806c1.082,0.108,2.163,0.209,3.243,0.312c-0.647,2.039-0.503,4.522,0.319,6.33
	c1.325,2.913,4.615,3.489,7.754,3.771c-0.812,5.562-1.196,11.438-1.216,16.967c-0.027,7.607-0.716,15.132-0.764,22.735
	c-0.048,7.328-0.339,14.752-0.54,22.099c-0.048,1.757-0.59,4.589-0.107,6.76c-0.83,0.017-1.661,0.038-2.49,0.051
	c-3.363,0.054-6.633-0.23-9.977-0.41c-3.357-0.181-7.879-1.033-11.165-0.432c-4.708,0.862-5.716,7.215-5.057,11.152
	c0.852,5.085,4.749,5.937,9.333,6.597c15.432,2.224,31.537,1.269,47.104,1.333c30.346,0.125,60.715,1.723,91.1,0.187
	c8.863-0.449,17.73-0.308,26.608-0.309c4.212-0.001,8.552-0.007,12.735-0.142c1.717-0.055,3.775-0.232,5.413-1.004
	c3.305,1.033,6.861,0.422,10.592,0.456c5.306,0.05,10.548,0.403,15.838,0.471c3.625,0.046,8.77,1.443,12.172,0.01
	c2.206-0.93,3.123-2.811,3.457-4.912c7.426,1.311,15.278,0.157,22.769,0.842c3.701,0.338,7.372-0.143,11.071,0
	c2.927,0.113,6.195,0.434,8.951-0.745c0.051-0.007,0.102-0.01,0.152-0.017c0.345,2.067,1.266,3.913,3.444,4.831
	c3.401,1.433,8.547,0.036,12.172-0.01c5.29-0.068,10.532-0.422,15.838-0.471c3.731-0.034,7.286,0.577,10.592-0.456
	c1.639,0.772,3.696,0.948,5.413,1.004c4.184,0.136,8.524,0.141,12.736,0.142c8.879,0.001,17.745-0.139,26.608,0.309
	c30.385,1.537,60.754-0.062,91.1-0.187c15.566-0.064,31.672,0.89,47.104-1.333c4.583-0.661,8.481-1.512,9.333-6.597
	C512.478,423.093,511.469,416.739,506.762,415.878z M485.048,340.841c-1.423,3.341-4.531,2.458-7.953,2.823
	c-3.697,0.394-6.969,0.112-10.646-0.105c-0.621-0.036-4.041,0.381-4.585-0.006c-0.815-0.581-1.045-2.361-1.14-3.653
	c8.271-0.304,16.515-0.863,24.764-1.604C485.449,339.159,485.395,340.028,485.048,340.841z M477.812,416.412
	c-0.009,0.043-0.025,0.084-0.033,0.127c-3.006-0.086-6.014-0.203-9.018-0.339c1.011-3.293,0.704-7.706,0.824-10.656
	c0.242-5.95-0.463-12.128-0.508-18.107c-0.055-7.4-0.685-14.863-0.983-22.277c-0.22-5.466-0.126-11.087-1.228-16.478
	c0.472-0.004,0.939-0.002,1.391,0.024c2.963,0.177,5.669,0.168,8.605-0.257c0.168-0.024,0.346-0.044,0.521-0.065
	c-1.487,11.271-0.288,23.169,0.31,34.406c0.365,6.837,0.307,13.748,0.224,20.592c-0.049,4.033,0.755,9.08-0.152,13.055
	C477.782,416.429,477.798,416.421,477.812,416.412z M394.1,397.264c-0.018-6.035-0.047-12.07-0.08-18.105
	c-0.05-9.692,1.561-20.949-0.449-30.611c2.335-0.203,4.514-0.635,6.092-1.534c3.971,0.792,8.483,0.407,12.417,0.368
	c6.028-0.059,12.04,0.222,18.047,0.577c6.052,0.358,12.237,0.379,18.255-0.003c3.089-0.196,6.355-0.081,9.349-0.817
	c0.648,0.62,1.479,1.093,2.568,1.347c1.088,0.253,2.261,0.295,3.449,0.278c-1.186,4.207-0.33,9.179-0.357,13.437
	c-0.041,6.847-0.179,13.96,0.36,20.774c0.471,5.952-0.112,11.952,0.294,17.921c0.292,4.298,0.587,10.741-0.671,15.013
	c-0.002,0.004-0.006,0.009-0.008,0.013c-0.418-0.024-0.837-0.04-1.255-0.065c-15.773-0.961-31.64-0.26-47.407-1.299
	c-6.857-0.452-13.853-0.641-20.862-0.629C394.825,408.565,394.116,402.623,394.1,397.264z M389.371,379.159
	c-0.033,6.395-0.063,12.791-0.082,19.187c-0.014,5.029-0.645,10.577,0.264,15.615c-3.594,0.05-7.185,0.151-10.757,0.3
	c0.862-10.475,1.432-20.879,1.395-31.42c-0.039-11.232,0.563-22.607-0.688-33.817c1.467-0.055,2.867-0.194,3.969-0.246
	c1.93-0.092,4.49-0.009,7.092-0.072c-0.852,4.902-0.439,10.076-0.888,15.005C389.211,368.826,389.399,374.022,389.371,379.159z
	 M385.28,343.87c-2.449,0.035-6.901,1.276-9.086-0.046c-1.307-0.792-1.247-2.837-1.279-4.673c0.346,0.007,0.685,0.017,1.01,0.04
	c3.389,0.239,6.791,0.149,10.177,0.354c4.214,0.254,8.436,0.435,12.657,0.65c-0.65,2.27-0.525,3.095-3.756,3.628
	C391.714,344.364,388.56,343.823,385.28,343.87z M396.569,301.907c0.094,10.395-0.497,21.164,0.196,31.588
	c-3.895-0.129-7.774-0.482-11.662-0.605c-0.029-9.781-1.21-19.5-2.392-29.214c-0.64-5.254-1.676-10.456-2.517-15.68
	c-0.532-3.312-0.889-6.908-1.692-10.262c1.131-0.087,2.237-0.171,3.281-0.212c4.717-0.188,9.317,0.217,13.983-0.094
	c0.123,0,0.245-0.006,0.368-0.006C395.329,285.546,396.495,293.745,396.569,301.907z M417.183,304.056
	c-0.024,9.787-0.188,19.951,0.435,29.794c-5.44-0.078-10.862-0.17-16.275-0.253c0.682-10.517-0.136-21.215-0.469-31.691
	c-0.256-8.054-0.609-16.49-1.764-24.551c5.778-0.2,11.552-0.763,17.342-0.713C416.208,285.791,417.206,294.914,417.183,304.056z
	 M439.243,307.105c0.403,8.752-0.911,18.27,0.547,26.908c-5.777,0.018-11.553-0.032-17.325-0.103
	c0.508-10.159-0.639-20.657-1.044-30.733c-0.354-8.803-1.226-17.733-2.591-26.464c0.263,0.011,0.526,0.011,0.79,0.024
	c5.59,0.299,11.185,0.419,16.782,0.53C436.742,287.238,438.785,297.139,439.243,307.105z M438.894,277.317
	c3.429,0.07,6.859,0.144,10.288,0.267c0.441,0.015,0.886,0.023,1.336,0.023c1.289,0.099,2.578,0.207,3.885,0.351
	c1.299,0.145,2.602,0.235,3.905,0.304c0.556,8.729,2.025,17.443,2.266,26.179c0.159,5.777,0.757,11.512,1.077,17.284
	c0.211,3.8-0.199,8.111,0.682,11.835c-5.927,0.243-11.871,0.366-17.821,0.421c-0.025-0.125-0.067-0.249-0.127-0.371
	c-0.403-9.124-0.165-18.271-0.964-27.384c-0.495-5.646-1.185-11.38-2.029-16.986C440.788,285.235,439.664,281.291,438.894,277.317z
	 M448.216,340.158c2.402-0.007,4.798-0.047,7.192-0.102c0.103,1.362,0.252,2.765,0.615,4.036c-3.108-0.184-6.258,0.023-9.338,0.165
	c-5.594,0.256-11.789,0.049-17.412-0.402c-5.352-0.429-10.783-0.569-16.156-0.594c-3.613-0.017-7.355-0.39-10.98-0.033
	c0.05-0.83-0.078-1.781-0.428-2.88c0.315,0.019,0.63,0.03,0.945,0.049C417.752,341.32,433.086,340.201,448.216,340.158z
	 M488.895,280.647c1.121,0.169,3.494,0.199,4.388,1.045c0.687,0.651,0.928,3.732,1.18,4.747c0.779,3.144,1.147,6.299,1.747,9.476
	c1.013,5.368,1.98,10.381,2.158,15.881c0.154,4.734,0.741,9.286,1.48,13.954c0.708,4.477,0.484,4.052-3.664,4.867
	c-2.522,0.496-4.961,0.739-7.511,0.907c-0.022-2.639-0.728-5.495-0.941-7.857c-0.466-5.174-0.975-10.16-1.856-15.287
	c-1.654-9.632-3.314-19.216-5.159-28.786C483.451,279.895,486.182,280.236,488.895,280.647z M472.914,278.821
	c1.68,0.152,3.365,0.315,5.05,0.486c0.492,8.925,2.371,18.07,3.496,26.878c0.639,4.999,1.433,9.909,1.8,14.935
	c0.247,3.4,0.18,7.265,0.71,10.793c-3.996,0.391-7.987,0.897-11.996,1.152c-1.712,0.109-3.431,0.182-5.148,0.27
	c-0.015-0.127-0.032-0.255-0.071-0.391c-1.312-4.566-0.753-10.634-1.068-15.395c-0.328-4.964-0.777-9.909-1.118-14.874
	c-0.366-5.334-1.281-10.67-2.096-15.954c-0.441-2.863-1.301-5.608-1.973-8.365C464.637,278.491,468.785,278.448,472.914,278.821z
	 M402.824,105.834c2.339,0.576,5.189,0.028,7.745-0.354c0.418,0.103,0.907,0.156,1.563,0.189c1.901,0.096,3.776,0.425,5.706,0.452
	c2.633,0.036,6.34,0.324,9.406-0.431c2.165,0.329,4.43,0.615,6.35,0.144c0.302-0.074,0.483-0.13,0.616-0.176
	c-0.052,0.046-0.095,0.105-0.095,0.182c-0.001,0.552-0.241,1.122-0.394,1.645c-0.272,0.929-0.663,1.821-0.916,2.756
	c-0.38,1.404-0.517,2.89-0.914,4.292c-1.449-0.118-2.901-0.035-4.515,0.558c-3.055-0.042-6.123,0-9.193-0.309
	c-4.355-0.439-9.246-1.213-13.697-0.414c-0.362-1.353-0.508-2.776-0.874-4.126c-0.253-0.936-0.644-1.826-0.916-2.756
	c-0.152-0.523-0.393-1.093-0.394-1.645c0-0.077-0.043-0.136-0.095-0.182C402.341,105.704,402.523,105.76,402.824,105.834z
	 M396.71,119.769c1.237-0.39,2.621,0.204,3.887,0.039c0.931-0.123,1.864-0.261,2.792-0.423c2.061,0.45,4.144,0.425,6.5,0.398
	c2.954-0.035,5.737,0.4,8.663,0.542c5.095,0.249,10.781,0.255,16.017-0.69c0.418,0.062,0.835,0.119,1.252,0.173
	c1.106,0.146,3.09-0.562,4.054,0.21c0.038,0.031,0.074,0.063,0.109,0.098c0.672,0.681,0.137,1.956,0.007,2.737
	c-0.541,3.252-1.507,6.424-2.05,9.665c-0.202,1.203-0.452,2.553-0.493,3.769c-0.012,0.363,0.093,0.852,0.172,1.32
	c-2.69-0.04-6.235-0.099-9.038,0.804c-0.07-0.432-0.162-0.853-0.304-1.244c-0.326-0.906-0.89-1.9-1.611-2.823
	c-1.286-3.711-8.292-5.716-11.542-3.333c-3.11,0.129-6.034,3.519-6.984,6.155c-0.141,0.391-0.233,0.812-0.304,1.244
	c-2.803-0.904-6.348-0.844-9.038-0.804c0.08-0.468,0.184-0.956,0.172-1.32c-0.042-1.216-0.292-2.566-0.493-3.769
	c-0.555-3.31-1.533-6.53-2.074-9.843C396.238,121.651,395.405,120.18,396.71,119.769z M422.607,139.378
	c-0.214,1.681-1.954,3.341-3.602,3.494c-1.072,0.099-2.674-0.173-3.482-0.847c-2.068-1.723-1.826-3.907-0.759-6.143
	c1.097-2.298,4.909-0.763,6.292,0.35C422.004,136.997,422.77,138.106,422.607,139.378z M383.377,143.495
	c0.909-0.645,4.385,0.112,5.425,0.157c5.032,0.215,10.033,0.537,15.035,0.927c2.99,0.233,4.714-0.08,7.456,1.442
	c2.028,1.126,3.65,2.852,6.133,2.887c3.721,0.051,8.738-1.386,10.398-5.067c1.322,0.739,2.915,0.884,4.757,0.74
	c5.002-0.39,10.004-0.71,15.035-0.927c1.042-0.045,4.516-0.802,5.425-0.157c1.433,1.017,1.192,3.72,1.091,5.183
	c-0.179,2.602-1.298,5.107-1.689,7.68c-0.395,2.6-0.907,5.769-0.288,8.452c-4.868,0.424-10.131,0.943-14.959,0.504
	c-1.454-0.133-5.135-0.241-6.39-0.932c-1.456-0.803-1.954-3.311-3.036-4.811c-2.065-2.866-4.881-4.583-8.253-5.48
	c-0.485-0.129-0.933-0.024-1.308,0.198c-0.374-0.222-0.823-0.327-1.308-0.198c-3.373,0.897-6.189,2.614-8.253,5.48
	c-1.082,1.501-1.58,4.009-3.036,4.811c-1.255,0.692-4.937,0.801-6.39,0.932c-4.828,0.441-10.09-0.08-14.959-0.504
	c0.619-2.683,0.107-5.852-0.288-8.452c-0.392-2.574-1.51-5.078-1.689-7.68C382.185,147.215,381.944,144.512,383.377,143.495z
	 M420.991,172.077c-0.072,0.025-0.137,0.062-0.205,0.093c-0.059,0.008-0.12,0.02-0.178,0.025c-1.89,0.199-3.839-0.156-5.727-0.346
	c-2.965-1.382-2.538-4.291-1.816-7.215c0.508-2.06,1.55-3.554,2.816-4.91c0.844-0.276,1.692-0.594,2.662-0.572
	c0.745,0.017,1.438,0.264,2.078,0.66c1.23,1.333,2.235,2.808,2.733,4.823C424.118,167.729,424.556,170.808,420.991,172.077z
	 M371.3,170.336c4.112-0.508,9.371-0.24,12.946,0.287c5.116,0.753,11.134,1.372,16.322,0.877c1.768-0.169,3.862-0.152,5.751-0.592
	c0.539,3.723,3.869,6.512,7.653,6.301c2.793,1.365,7.123,1.016,9.769-0.048c3.224-0.405,5.882-2.963,6.359-6.254
	c1.888,0.44,3.984,0.423,5.751,0.592c5.188,0.496,11.205-0.124,16.322-0.877c3.575-0.526,8.834-0.794,12.946-0.287
	c-0.471,5.637-3.47,10.972-4.428,16.523c-0.889,5.15-2.811,10.227-3.572,15.393c-4.836,0.085-9.676,0.354-14.521,0.468
	c-3.471,0.083-5.664,0.277-7.441-2.977c-0.898-1.645-1.818-3.444-3.015-4.887c-2.261-2.725-5.699-4.965-9.269-5.257
	c-2.294-0.686-4.979-0.977-7.3-0.615c-0.722,0.113-1.286,0.321-1.78,0.59c-3.657,0.204-7.202,2.493-9.516,5.283
	c-1.198,1.443-2.117,3.242-3.015,4.887c-1.777,3.254-3.97,3.06-7.441,2.977c-4.845-0.115-9.686-0.383-14.521-0.468
	c-0.76-5.166-2.683-10.242-3.572-15.393C374.77,181.308,371.771,175.973,371.3,170.336z M429.494,206.547
	c-1.884,8.796-20.731,8.588-22.568,0c-0.716-3.345,2.773-10.4,6.355-12.381c0.752,0.056,1.532,0.006,2.292,0.035
	c2.774,0.106,5.39,0.172,7.972,1.273c0.938,0.4,1.953,1.223,3.005,2.061C428.582,200.461,429.969,204.322,429.494,206.547z
	 M368.189,228.147c-1.435-3.776-2.33-7.677-3.365-11.572c-0.658-2.481-2.006-5.9-2.449-8.875c2.224,0.191,4.417,0.73,6.676,0.871
	c2.84,0.177,5.716,0.055,8.559,0.101c5.395,0.085,10.795,0.606,16.212,0.732c2.327,0.054,4.859,0.265,7.064-0.349
	c-1.501,0.419,6.585,8.332,7.673,8.808c4.22,1.848,9.84,2.234,14.34,1.523c1.154-0.182,2.312-0.516,3.343-1.021
	c4.242-1.096,8.179-5.092,9.294-9.311c2.205,0.614,4.736,0.403,7.064,0.349c5.416-0.126,10.817-0.647,16.212-0.732
	c2.845-0.045,5.719,0.076,8.559-0.101c2.258-0.14,4.452-0.679,6.676-0.871c-0.443,2.975-1.791,6.394-2.449,8.875
	c-1.035,3.896-1.93,7.796-3.365,11.572c-1.786,4.701-5.387,12.149-4.919,17.659c-2.701-0.04-5.29,0.157-6.939,0.2
	c-4.96,0.129-9.76,1.374-14.685,1.483c-3.275,0.072-6.497-0.061-9.697,0.384c0.784-0.112-1.148-7.767-1.319-8.451
	c-1.207-4.835-3.726-7.154-8.281-9.092c-3.716-1.581-7.916-1.599-10.942,0.975c-3.555,1.988-6.387,6.21-6.245,9.812
	c0.072,1.815,0.028,4.338,0.217,6.907c-3.527-0.634-7.075-0.456-10.689-0.536c-4.924-0.108-9.724-1.353-14.684-1.483
	c-1.648-0.043-4.238-0.24-6.939-0.2C373.576,240.294,369.976,232.847,368.189,228.147z M410.474,242.68
	c-0.283-3.553,0.494-5.963,3.79-7.843c1.029-0.587,2.056-0.869,3.038-1.246c2.175,0.075,4.392,0.825,6.155,2.137
	c2.185,1.744,2.726,3.934,2.487,6.953c-0.147,1.848-0.064,3.388,0.203,5.213c1.335,9.113-17.057,8.054-15.877,0.001
	C410.538,246.07,410.621,244.528,410.474,242.68z M368.8,254.353c-1.359-2.355-1.291-1.409,0.291-2.218
	c1.175-0.602,3.387-0.419,4.663-0.581c4.071-0.517,8.24-0.7,12.337-0.235c6.967,0.792,12.958,1.064,19.569-1.011
	c0.563,3.989,1.963,7.603,5.548,8.284c3.114,2.028,9.083,1.495,11.771,0.908c2.713-0.591,4.46-1.902,6.018-4.095
	c0.208-0.292,2.974-4.76,2.605-4.866c6.278,1.795,12.058,1.538,18.726,0.78c4.097-0.466,8.267-0.283,12.337,0.235
	c1.276,0.162,3.488-0.021,4.663,0.581c1.582,0.81,1.649-0.137,0.291,2.218c-2.623,4.544-6.333,8.522-9.897,11.911
	c-1.552,1.476-4.034,2.914-4.698,4.912c-2.416,0.118-4.832-0.257-7.265-0.477c-8.045-0.727-16.154,0.072-24.208-0.629
	c-8.562-0.745-17.007,0.402-25.543,0.327c-3.731-0.033-7.265-0.421-10.939-1.077c-0.843-0.15-2.05-0.214-3.217-0.365
	c-1.001-0.964-2.239-1.821-3.154-2.69C375.135,262.874,371.423,258.896,368.8,254.353z M367.033,277.52
	c2.641,0.669,5.697,0.611,8.7,0.415c0.11,8.908,2.238,17.657,3.007,26.563c0.817,9.464,1.65,18.854,1.832,28.333
	c-1.549-0.003-3.093-0.019-4.648-0.134c-0.587-0.043-2.589,0.028-3.221-0.197c-2.198-0.78-1.099,0.001-1.907-1.848
	c-1.927-4.409-1.457-10.74-2.091-15.521c-0.629-4.743-1.022-9.55-1.747-14.295c-0.762-4.994-1.388-10.244-1.885-15.246
	c-0.239-2.406-0.239-4.855-0.466-7.281c-0.008-0.084-0.034-0.516-0.059-0.99c0.044-0.224,0.042-0.457-0.02-0.692
	C365.214,277.302,367.567,277.654,367.033,277.52z M290.901,387.114c-0.138-5.364-0.282-10.729-0.44-16.093
	c-0.118-4.013-1.163-9.006-0.505-13.094c3.826,0.109,7.74-0.118,11.537-0.169c-0.224,0.621-0.34,1.283-0.386,1.627
	c-0.162,1.246-0.333,2.82-0.108,4.228c-0.689,7.071,0.074,14.35,0.066,21.474c-0.006,5.256,0.239,10.468,0.242,15.724
	c0.003,4.534,0.664,9.409,0.221,13.964c-2.975,0.114-5.952,0.283-8.924,0.401c-0.275,0.011-0.55,0.027-0.825,0.04
	c-0.007-0.065-0.019-0.129-0.03-0.193C293.339,406.03,291.133,396.123,290.901,387.114z M292.603,352.09
	c-2.293-0.198-4.696,0.208-6.928-0.455c-1.839-0.547-2.608-1.624-4-3.073c-3.418-3.56-7.241-6.859-10.839-10.261
	c-1.935-1.829-4.089-3.727-6.503-4.993c-3.154-2.357-8.569-2.381-11.957-1.669c-0.852,0.179-1.684,0.429-2.497,0.731
	c-1.519,0.483-2.941,1.258-4.273,2.191c-2.003,1.318-3.837,2.941-5.469,4.698c-3.292,3.066-6.712,6.077-9.808,9.302
	c-1.392,1.45-2.162,2.528-4,3.073c-2.232,0.663-4.634,0.257-6.928,0.455c-2.359,0.204-15.436,2.523-16.702-0.078
	c-0.207-0.425,0.335-0.064,1.385-0.645c0.869-0.481,1.67-1.007,2.51-1.543c2.235-1.428,4.153-2.751,5.959-4.705
	c3.262-3.533,6.171-7.281,9.311-10.907c2.893-3.341,7.125-6.329,11.001-8.442c2.299-1.253,4.643-2.119,7.015-2.847
	c2.281-0.19,4.75-0.882,6.402-1.033c3.144-0.287,6.36-0.294,9.52-0.447c3.173-0.154,6.711,0.401,9.831-0.327
	c4.587,1.263,9.129,2.266,13.511,4.653c3.875,2.112,8.107,5.1,11.001,8.442c3.14,3.626,6.048,7.374,9.311,10.907
	c1.805,1.955,3.724,3.278,5.959,4.705c0.84,0.537,1.639,1.063,2.51,1.543c1.051,0.581,1.592,0.219,1.385,0.645
	C308.038,354.613,294.96,352.294,292.603,352.09z M220.252,415.022c-0.012,0.064-0.023,0.128-0.03,0.193
	c-0.275-0.013-0.549-0.029-0.825-0.04c-2.972-0.118-5.949-0.287-8.924-0.401c-0.443-4.555,0.218-9.43,0.221-13.964
	c0.004-5.256,0.247-10.468,0.242-15.724c-0.008-7.124,0.757-14.404,0.066-21.475c0.223-1.406,0.053-2.982-0.109-4.228
	c-0.045-0.345-0.162-1.006-0.386-1.627c3.797,0.051,7.711,0.278,11.537,0.169c0.658,4.089-0.387,9.081-0.505,13.094
	c-0.158,5.364-0.3,10.729-0.44,16.093C220.868,396.123,218.663,406.03,220.252,415.022z M141.917,338.907
	c0.641-0.125,1.249-0.315,1.8-0.608c2.072-1.104,3.002-3.162,3.514-5.373c5.132,0.726,10.633,0.06,15.7,0.102
	c7.595,0.064,15.127,0.982,22.701,1.186c6.627,0.179,13.266-0.023,19.847,0.303c2.778,0.137,6.375,0.36,9.771,0.092
	c-3.061,3.335-6.096,6.684-10.001,9.161c-1.206,0.766-2.824,1.421-4.311,2.195c-0.179-0.177-0.384-0.331-0.648-0.416
	c-2.951-0.951-5.198-0.462-8.269-0.305c-2.855,0.146-5.631-0.24-8.468-0.354c-6.482-0.26-13.132-0.358-19.619-0.323
	c-5.84,0.032-11.638-0.362-17.468-0.197c-1.625,0.046-3.253,0.104-4.878,0.199C142.191,342.799,142.373,340.684,141.917,338.907z
	 M306.754,343.77c-3.905-2.478-6.94-5.826-10.001-9.161c3.396,0.268,6.993,0.045,9.771-0.092c6.581-0.326,13.22-0.124,19.847-0.303
	c7.574-0.204,15.106-1.122,22.701-1.186c5.067-0.043,10.568,0.623,15.7-0.102c0.513,2.212,1.441,4.27,3.514,5.373
	c0.55,0.293,1.159,0.483,1.8,0.608c-0.456,1.777-0.274,3.893,0.329,5.665c-1.625-0.095-3.253-0.152-4.878-0.199
	c-5.83-0.166-11.628,0.229-17.468,0.197c-6.487-0.036-13.135,0.063-19.619,0.323c-2.837,0.114-5.613,0.499-8.468,0.354
	c-3.071-0.157-5.318-0.646-8.269,0.305c-0.264,0.085-0.471,0.24-0.648,0.416C309.578,345.191,307.96,344.537,306.754,343.77z
	 M335.763,232.299c3.945-0.272,11.042-2.791,13.169,1.318c2.488,4.805,2.637,11.614,3.714,16.858
	c1.572,7.66,2.923,15.782,5.379,23.336c-4.511-0.725-9.22-0.442-13.817-0.225c0.727-2.549,0.075-4.99-0.473-7.699
	c-0.819-4.05-1.399-8.194-2.449-12.191c-1.875-7.13-3.905-14.242-5.771-21.384C335.598,232.307,335.68,232.305,335.763,232.299z
	 M319.068,232.641c4.579-0.253,9.192-0.067,13.774-0.207c0.318,6.875,2.496,13.653,4.037,20.297
	c0.973,4.196,1.636,8.42,2.468,12.647c0.549,2.788,0.494,5.81,1.75,8.331c-0.066,0.002-0.134,0.006-0.2,0.008
	c-5.34,0.143-10.695,0.15-16.047,0.218c-0.363-3.416-1.385-6.782-2.111-10.14c-0.821-3.797-1.491-7.579-2.459-11.333
	c-1.679-6.514-2.923-13.3-5.302-19.606C316.338,232.788,317.701,232.716,319.068,232.641z M312.051,232.978
	c0.2,1.597,0.623,3.197,0.91,4.726c0.869,4.63,1.644,9.294,2.665,13.892c1.649,7.427,3.076,14.924,4.397,22.43
	c-0.737,0.018-1.475,0.025-2.211,0.048c-3.958,0.119-7.916,0.219-11.877,0.3c-0.451-7.182-2.758-14.265-4.178-21.275
	c-1.348-6.653-2.551-13.576-4.87-20.016c1.591,0.021,3.183,0.042,4.775,0.065C305.152,233.2,308.6,233.116,312.051,232.978z
	 M283.758,252.533c-1.782-6.492-2.751-13.5-4.86-19.967c4.933,0.277,9.874,0.395,14.82,0.472
	c1.158,13.875,5.441,27.655,7.397,41.423c-4.022,0.064-8.047,0.107-12.073,0.11c-0.747,0.001-1.486,0.003-2.228,0.006
	C288.024,267.87,285.466,258.758,283.758,252.533z M269.618,274.384c-0.007-0.127-0.044-0.24-0.07-0.358
	c-0.559-6.225-1.642-12.399-2.46-18.592c-0.563-4.265-1.13-8.518-1.674-12.783c-0.45-3.53-1.308-7.002-1.804-10.475
	c3.963,0.157,7.93,0.412,11.863,0.273c0.361,6.843,1.811,13.944,3.7,20.369c1.347,4.577,2.206,9.505,2.7,14.251
	c0.274,2.638,0.201,5.124,0.91,7.547c-2.716,0.05-5.426,0.158-8.166,0.432c-1.671,0.168-3.34,0.252-4.993,0.393
	c0.021-0.14,0.031-0.287,0.024-0.441C269.638,274.795,269.628,274.59,269.618,274.384z M244.767,275.055
	c-1.569-0.006-3.137,0.001-4.713,0.048c-0.558,0.017-1.119,0.024-1.681,0.031c-0.329-0.026-0.658-0.052-0.989-0.084
	c-2.739-0.274-5.448-0.382-8.165-0.432c0.709-2.425,0.636-4.909,0.91-7.547c0.493-4.746,1.353-9.674,2.7-14.251
	c1.899-6.457,3.355-13.599,3.707-20.474c0.449-0.033,0.897-0.075,1.346-0.11c3.868,0.588,8.033,0.505,11.931,0.288
	c-1.341,4.633-3.042,17.656-3.201,19.405c-0.362,3.979-1.126,7.858-1.446,11.844C244.893,267.149,243.644,271.622,244.767,275.055z
	 M225.188,274.577c-0.741-0.002-1.481-0.004-2.228-0.006c-4.027-0.003-8.05-0.046-12.073-0.11
	c1.956-13.768,6.238-27.547,7.397-41.423c4.947-0.076,9.887-0.194,14.82-0.472c-2.109,6.467-3.078,13.475-4.859,19.967
	C226.535,258.758,223.978,267.87,225.188,274.577z M249.428,265.424c0.318-4.783,1.107-9.459,1.391-14.252
	c0.233-3.932,0.741-7.841,1.102-11.757c0.209-2.266,0.826-4.729,0.661-7.065c0.809-0.055,1.604-0.11,2.368-0.16
	c2.391-0.158,4.794-0.139,7.201-0.064c-0.966,1.893-0.772,4.139-0.827,6.337c-0.113,4.513,0.397,9.242,1.006,13.717
	c1.037,7.625,1.317,15.49,2.691,23.053c-3.533-0.149-7.099-0.009-10.263-0.042c-2.092-0.022-4.176-0.065-6.26-0.099
	C249.555,272.181,249.232,268.377,249.428,265.424z M241.536,57.759c1.92,0.472,4.186,0.186,6.35-0.143
	c3.066,0.753,6.774,0.466,9.406,0.43c1.93-0.027,3.805-0.356,5.706-0.452c0.657-0.033,1.147-0.086,1.563-0.189
	c2.556,0.381,5.406,0.929,7.745,0.354c0.302-0.074,0.483-0.129,0.616-0.176c-0.052,0.046-0.095,0.104-0.095,0.182
	c-0.001,0.552-0.241,1.122-0.394,1.645c-0.272,0.929-0.663,1.821-0.916,2.756c-0.366,1.35-0.51,2.773-0.874,4.126
	c-4.451-0.8-9.343-0.024-13.697,0.414c-3.07,0.309-6.139,0.267-9.193,0.309c-1.614-0.593-3.066-0.676-4.515-0.558
	c-0.397-1.402-0.534-2.888-0.914-4.292c-0.253-0.936-0.644-1.826-0.916-2.756c-0.152-0.523-0.393-1.093-0.394-1.645
	c0-0.077-0.043-0.136-0.095-0.182C241.053,57.63,241.235,57.685,241.536,57.759z M235.147,72.042
	c0.034-0.035,0.071-0.067,0.108-0.098c0.963-0.772,2.948-0.065,4.054-0.21c0.418-0.055,0.834-0.113,1.252-0.175
	c5.236,0.946,10.921,0.939,16.017,0.69c2.926-0.143,5.708-0.577,8.663-0.542c2.356,0.028,4.439,0.052,6.5-0.398
	c0.928,0.162,1.86,0.302,2.792,0.423c1.266,0.166,2.651-0.429,3.889-0.039c1.305,0.411,0.472,1.881,0.305,2.906
	c-0.541,3.312-1.519,6.533-2.074,9.842c-0.202,1.203-0.452,2.553-0.493,3.769c-0.012,0.363,0.093,0.852,0.172,1.32
	c-2.69-0.04-6.235-0.099-9.038,0.804c-0.071-0.432-0.162-0.853-0.304-1.244c-0.95-2.637-3.875-6.025-6.984-6.155
	c-3.25-2.383-10.257-0.378-11.542,3.333c-0.72,0.922-1.284,1.917-1.611,2.823c-0.141,0.391-0.233,0.812-0.304,1.244
	c-2.803-0.904-6.348-0.844-9.038-0.804c0.08-0.468,0.184-0.956,0.172-1.32c-0.042-1.216-0.292-2.566-0.493-3.769
	c-0.544-3.241-1.509-6.413-2.05-9.665C235.01,73.997,234.476,72.722,235.147,72.042z M259.608,93.951
	c-0.808,0.673-2.412,0.947-3.482,0.847c-1.648-0.154-3.388-1.814-3.602-3.494c-0.162-1.272,0.603-2.381,1.552-3.144
	c1.383-1.115,5.195-2.649,6.292-0.35C261.434,90.043,261.676,92.228,259.608,93.951z M222.089,95.421
	c0.909-0.645,4.385,0.112,5.425,0.157c5.032,0.217,10.033,0.537,15.035,0.927c1.84,0.144,3.435-0.002,4.757-0.74
	c1.659,3.681,6.677,5.118,10.398,5.067c2.483-0.033,4.104-1.761,6.133-2.887c2.742-1.521,4.465-1.209,7.456-1.442
	c5.002-0.39,10.004-0.71,15.035-0.927c1.042-0.045,4.516-0.802,5.425-0.157c1.433,1.017,1.192,3.72,1.091,5.183
	c-0.179,2.602-1.298,5.107-1.689,7.68c-0.395,2.6-0.907,5.769-0.288,8.452c-4.868,0.424-10.131,0.943-14.959,0.504
	c-1.453-0.133-5.135-0.241-6.39-0.932c-1.456-0.803-1.954-3.311-3.036-4.811c-2.065-2.866-4.881-4.583-8.253-5.48
	c-0.485-0.129-0.934-0.024-1.308,0.198c-0.374-0.222-0.823-0.327-1.308-0.198c-3.373,0.897-6.189,2.615-8.253,5.48
	c-1.082,1.501-1.58,4.009-3.036,4.811c-1.255,0.692-4.937,0.801-6.39,0.932c-4.828,0.441-10.09-0.08-14.959-0.504
	c0.619-2.683,0.107-5.852-0.288-8.452c-0.392-2.574-1.51-5.078-1.689-7.68C220.897,99.141,220.656,96.438,222.089,95.421z
	 M260.25,123.776c-1.888,0.19-3.837,0.545-5.727,0.346c-0.057-0.007-0.119-0.019-0.178-0.025c-0.068-0.031-0.133-0.066-0.205-0.093
	c-3.565-1.269-3.126-4.348-2.363-7.441c0.497-2.016,1.504-3.49,2.733-4.823c0.641-0.395,1.334-0.643,2.078-0.66
	c0.971-0.022,1.818,0.296,2.663,0.572c1.266,1.357,2.308,2.85,2.816,4.91C262.788,119.485,263.214,122.393,260.25,123.776z
	 M210.012,122.262c4.112-0.508,9.371-0.24,12.946,0.287c5.116,0.753,11.134,1.373,16.322,0.877c1.768-0.169,3.862-0.152,5.751-0.592
	c0.476,3.291,3.134,5.847,6.359,6.254c2.646,1.064,6.975,1.414,9.769,0.048c3.785,0.212,7.114-2.577,7.653-6.301
	c1.888,0.44,3.984,0.423,5.751,0.592c5.188,0.496,11.205-0.124,16.322-0.877c3.575-0.526,8.834-0.794,12.946-0.287
	c-0.471,5.637-3.47,10.972-4.428,16.523c-0.889,5.15-2.811,10.227-3.572,15.392c-4.836,0.085-9.676,0.354-14.521,0.468
	c-3.471,0.083-5.664,0.276-7.441-2.977c-0.898-1.645-1.818-3.444-3.015-4.887c-2.314-2.788-5.858-5.077-9.516-5.283
	c-0.494-0.268-1.057-0.478-1.78-0.59c-2.322-0.361-5.007-0.071-7.3,0.615c-3.568,0.293-7.007,2.532-9.269,5.257
	c-1.198,1.443-2.117,3.242-3.015,4.887c-1.777,3.253-3.97,3.06-7.441,2.977c-4.845-0.115-9.686-0.383-14.521-0.468
	c-0.76-5.166-2.683-10.242-3.572-15.392C213.482,133.234,210.483,127.9,210.012,122.262z M268.206,158.474
	c-1.838,8.588-20.686,8.796-22.568,0c-0.476-2.224,0.911-6.086,2.945-9.012c1.052-0.837,2.067-1.66,3.005-2.061
	c2.582-1.1,5.197-1.165,7.972-1.273c0.76-0.03,1.54,0.021,2.292-0.035C265.433,148.074,268.921,155.127,268.206,158.474z
	 M206.901,180.072c-1.435-3.776-2.33-7.677-3.365-11.572c-0.658-2.481-2.006-5.9-2.449-8.875c2.224,0.191,4.417,0.73,6.676,0.871
	c2.84,0.177,5.716,0.056,8.559,0.101c5.395,0.085,10.795,0.606,16.212,0.732c2.327,0.054,4.859,0.265,7.064-0.349
	c1.115,4.219,5.051,8.215,9.294,9.311c1.031,0.505,2.188,0.838,3.343,1.021c4.501,0.71,10.12,0.325,14.34-1.523
	c1.088-0.476,9.175-8.389,7.673-8.808c2.204,0.614,4.736,0.403,7.064,0.349c5.416-0.126,10.817-0.647,16.212-0.732
	c2.845-0.044,5.719,0.076,8.559-0.101c2.258-0.14,4.452-0.679,6.676-0.871c-0.443,2.975-1.791,6.394-2.449,8.875
	c-1.035,3.896-1.93,7.796-3.365,11.572c-1.787,4.701-5.388,12.149-4.919,17.659c-2.701-0.04-5.29,0.157-6.939,0.2
	c-4.96,0.129-9.76,1.374-14.685,1.483c-3.615,0.08-7.162-0.098-10.689,0.536c0.189-2.568,0.145-5.091,0.217-6.907
	c0.143-3.602-2.69-7.824-6.245-9.812c-3.026-2.574-7.226-2.556-10.942-0.975c-4.555,1.938-7.073,4.256-8.281,9.092
	c-0.171,0.684-2.103,8.341-1.319,8.451c-3.201-0.445-6.422-0.313-9.697-0.384c-4.924-0.108-9.724-1.353-14.684-1.483
	c-1.648-0.043-4.238-0.24-6.939-0.2C212.288,192.22,208.688,184.773,206.901,180.072z M249.186,194.606
	c-0.24-3.019,0.302-5.208,2.487-6.953c1.763-1.311,3.98-2.063,6.155-2.137c0.982,0.377,2.008,0.66,3.038,1.246
	c3.298,1.88,4.073,4.29,3.79,7.843c-0.147,1.848-0.064,3.389,0.203,5.214c1.18,8.053-17.211,9.111-15.877-0.001
	C249.25,197.995,249.333,196.455,249.186,194.606z M207.512,206.278c-1.359-2.355-1.291-1.408,0.291-2.218
	c1.175-0.602,3.387-0.419,4.663-0.581c4.071-0.517,8.24-0.701,12.337-0.235c6.668,0.758,12.448,1.015,18.726-0.78
	c-0.369,0.106,2.397,4.575,2.605,4.866c1.559,2.193,3.305,3.504,6.018,4.095c2.688,0.585,8.657,1.119,11.771-0.908
	c3.584-0.682,4.984-4.295,5.548-8.284c6.611,2.075,12.601,1.803,19.569,1.011c4.097-0.466,8.267-0.283,12.337,0.235
	c1.276,0.162,3.488-0.021,4.663,0.581c1.582,0.81,1.649-0.136,0.291,2.218c-2.623,4.545-6.333,8.522-9.897,11.911
	c-0.915,0.869-2.152,1.726-3.154,2.69c-1.167,0.151-2.374,0.214-3.217,0.365c-3.674,0.656-7.209,1.045-10.939,1.077
	c-8.537,0.075-16.982-1.073-25.543-0.327c-8.053,0.701-16.163-0.098-24.208,0.629c-2.434,0.22-4.849,0.595-7.265,0.477
	c-0.664-1.997-3.147-3.436-4.698-4.912C213.847,214.8,210.135,210.823,207.512,206.278z M199.95,232.978
	c3.451,0.138,6.9,0.222,10.389,0.17c1.592-0.023,3.184-0.044,4.775-0.065c-2.319,6.44-3.522,13.363-4.87,20.016
	c-1.42,7.009-3.727,14.093-4.178,21.275c-3.959-0.082-7.919-0.181-11.877-0.3c-0.737-0.022-1.474-0.031-2.211-0.048
	c1.321-7.507,2.747-15.003,4.397-22.43c1.021-4.598,1.795-9.262,2.665-13.892C199.327,236.175,199.75,234.575,199.95,232.978z
	 M192.933,232.641c1.368,0.075,2.73,0.147,4.091,0.213c-2.378,6.307-3.622,13.092-5.301,19.606
	c-0.968,3.754-1.638,7.536-2.459,11.333c-0.726,3.358-1.748,6.724-2.111,10.14c-5.353-0.067-10.707-0.075-16.047-0.218
	c-0.066-0.002-0.134-0.006-0.2-0.008c1.257-2.521,1.201-5.542,1.751-8.331c0.833-4.227,1.495-8.451,2.468-12.647
	c1.541-6.644,3.718-13.422,4.037-20.297C183.742,232.574,188.354,232.389,192.933,232.641z M159.357,250.475
	c1.076-5.244,1.225-12.052,3.714-16.858c2.128-4.108,9.224-1.59,13.169-1.318c0.082,0.006,0.165,0.008,0.246,0.013
	c-1.866,7.142-3.896,14.253-5.771,21.384c-1.051,3.997-1.631,8.14-2.449,12.191c-0.548,2.71-1.2,5.151-0.473,7.699
	c-4.597-0.217-9.305-0.499-13.817,0.225C156.432,266.257,157.785,258.134,159.357,250.475z M147.934,328.381
	c0.871-6.384,1.743-12.784,2.329-19.194c0.639-6.997,1.561-14.059,2.557-20.995c0.419-2.915,0.456-5.87,0.703-8.839
	c1.739,0.105,3.507,0.05,5.332,0.098c3.585,0.095,7.12,0.462,10.708,0.484c7.927,0.049,15.907,0.261,23.856,0.387
	c9.844,0.156,19.677,0.414,29.539,0.234c4.752-0.087,9.35-0.139,14.086,0.097c2.612,0.13,5.338,0.06,7.953-0.437
	c2.978,0.125,5.956,0.25,8.932,0.339c3.902,0.118,7.786,0.265,11.685,0.271c3.039,0.004,6.236,0.6,9.2-0.168
	c0.048-0.002,0.096-0.002,0.144-0.004c4.736-0.236,9.333-0.185,14.086-0.097c9.862,0.18,19.695-0.078,29.539-0.234
	c7.95-0.126,15.928-0.338,23.856-0.387c3.588-0.022,7.123-0.39,10.708-0.484c1.825-0.048,3.594,0.007,5.332-0.098
	c0.246,2.969,0.283,5.925,0.703,8.839c0.996,6.936,1.92,13.999,2.557,20.995c0.586,6.411,1.458,12.81,2.329,19.194
	c0.02,0.145,0.039,0.294,0.057,0.443c-4.935-0.776-10.304-0.644-15.053-0.666c-7.339-0.033-14.61,0.721-21.921,1.015
	c-6.324,0.254-12.793-0.288-19.046,0.136c-3.468,0.235-6.784,0.076-10.246-0.024c-0.843-0.024-3.589,0.618-5.349,0.911
	c-0.124-0.118-0.241-0.243-0.365-0.36c-6.76-6.366-17.651-13.229-27.47-12.036c-5.496-2.1-12.087-1.404-17.795-0.72
	c-1.889,0.226-4.768,0.468-7.235,1.246c-7.453,1.77-14.763,6.776-19.789,11.51c-0.125,0.117-0.242,0.242-0.365,0.36
	c-1.76-0.295-4.505-0.937-5.349-0.911c-3.462,0.101-6.779,0.26-10.246,0.024c-6.254-0.424-12.723,0.118-19.046-0.136
	c-7.311-0.294-14.582-1.048-21.921-1.015c-4.75,0.022-10.119-0.109-15.054,0.666C147.895,328.674,147.915,328.525,147.934,328.381z
	 M144.969,277.52c-0.534,0.136,1.819-0.218,2.503-0.892c-0.061,0.234-0.064,0.467-0.02,0.692c-0.024,0.475-0.051,0.906-0.059,0.99
	c-0.228,2.425-0.228,4.875-0.466,7.281c-0.497,5.002-1.121,10.252-1.885,15.246c-0.725,4.744-1.118,9.551-1.747,14.295
	c-0.634,4.781-0.165,11.112-2.091,15.521c-0.808,1.849,0.292,1.068-1.907,1.848c-0.632,0.224-2.635,0.154-3.221,0.197
	c-1.554,0.115-3.099,0.13-4.648,0.134c0.181-9.478,1.014-18.868,1.832-28.333c0.769-8.906,2.897-17.653,3.007-26.563
	C139.271,278.129,142.327,278.189,144.969,277.52z M122.712,398.345c-0.019-6.395-0.049-12.792-0.082-19.187
	c-0.027-5.137,0.16-10.332-0.306-15.447c-0.45-4.929-0.036-10.104-0.888-15.005c2.603,0.062,5.162-0.021,7.093,0.072
	c1.104,0.052,2.502,0.191,3.969,0.246c-1.252,11.211-0.65,22.587-0.688,33.817c-0.036,10.541,0.534,20.945,1.395,31.42
	c-3.572-0.149-7.163-0.251-10.757-0.3C123.357,408.923,122.727,403.374,122.712,398.345z M126.721,343.87
	c-3.28-0.046-6.434,0.494-9.723-0.047c-3.231-0.532-3.108-1.357-3.757-3.628c4.222-0.215,8.442-0.396,12.658-0.65
	c3.387-0.204,6.787-0.116,10.177-0.354c0.325-0.023,0.664-0.033,1.01-0.04c-0.032,1.836,0.028,3.881-1.279,4.673
	C133.623,345.146,129.17,343.905,126.721,343.87z M117.981,379.159c-0.031,6.035-0.062,12.07-0.08,18.105
	c-0.015,5.359-0.725,11.301,0.254,16.666c-7.009-0.012-14.006,0.176-20.863,0.629c-15.765,1.04-31.633,0.338-47.407,1.299
	c-0.418,0.025-0.837,0.041-1.255,0.065c-0.002-0.004-0.006-0.009-0.008-0.013c-1.257-4.273-0.962-10.715-0.671-15.013
	c0.405-5.969-0.177-11.968,0.293-17.921c0.539-6.815,0.401-13.927,0.36-20.774c-0.025-4.259,0.83-9.231-0.357-13.437
	c1.188,0.017,2.361-0.024,3.449-0.278c1.088-0.253,1.92-0.727,2.568-1.347c2.994,0.737,6.26,0.622,9.349,0.817
	c6.018,0.381,12.205,0.361,18.255,0.003c6.006-0.356,12.018-0.635,18.047-0.577c3.934,0.039,8.446,0.424,12.418-0.368
	c1.58,0.899,3.757,1.331,6.094,1.534C116.42,358.21,118.03,369.467,117.981,379.159z M94.818,304.056
	c-0.023-9.143,0.975-18.265,0.73-27.412c5.791-0.051,11.564,0.513,17.342,0.713c-1.157,8.061-1.508,16.497-1.764,24.551
	c-0.334,10.476-1.151,21.174-0.47,31.691c-5.413,0.083-10.835,0.175-16.275,0.253C95.006,324.007,94.843,313.843,94.818,304.056z
	 M109.347,340.397c0.315-0.019,0.63-0.03,0.945-0.049c-0.349,1.099-0.477,2.05-0.428,2.88c-3.625-0.357-7.366,0.017-10.98,0.033
	c-5.373,0.024-10.804,0.166-16.156,0.594c-5.624,0.45-11.819,0.658-17.412,0.402c-3.079-0.141-6.229-0.349-9.338-0.165
	c0.363-1.27,0.513-2.673,0.615-4.036c2.394,0.054,4.791,0.095,7.192,0.102C78.916,340.201,94.249,341.32,109.347,340.397z
	 M90.579,303.177c-0.404,10.076-1.551,20.574-1.043,30.733c-5.772,0.071-11.549,0.12-17.325,0.103
	c1.458-8.638,0.144-18.156,0.547-26.908c0.458-9.966,2.502-19.867,2.841-29.838c5.596-0.112,11.192-0.231,16.781-0.53
	c0.263-0.014,0.526-0.014,0.79-0.024C91.806,285.444,90.933,294.373,90.579,303.177z M70.611,289.242
	c-0.843,5.606-1.533,11.341-2.029,16.986c-0.8,9.113-0.561,18.259-0.964,27.384c-0.06,0.124-0.102,0.246-0.127,0.371
	c-5.95-0.055-11.894-0.178-17.821-0.421c0.88-3.724,0.47-8.033,0.682-11.835c0.321-5.772,0.918-11.508,1.077-17.284
	c0.24-8.736,1.71-17.45,2.266-26.179c1.304-0.068,2.605-0.159,3.905-0.304c1.307-0.146,2.596-0.253,3.885-0.351
	c0.449,0.001,0.895-0.008,1.336-0.023c3.429-0.123,6.859-0.198,10.288-0.267C72.337,281.291,71.214,285.235,70.611,289.242z
	 M115.432,301.907c0.074-8.163,1.241-16.361,0.436-24.485c0.123,0.001,0.245,0.006,0.368,0.006c4.666,0.31,9.266-0.094,13.983,0.094
	c1.044,0.042,2.15,0.125,3.281,0.212c-0.803,3.355-1.16,6.951-1.692,10.262c-0.841,5.224-1.878,10.425-2.517,15.68
	c-1.182,9.714-2.363,19.433-2.392,29.214c-3.889,0.124-7.766,0.476-11.662,0.605C115.929,323.07,115.338,312.303,115.432,301.907z
	 M78.407,105.834c1.92,0.472,4.186,0.186,6.35-0.144c3.066,0.753,6.774,0.466,9.406,0.431c1.93-0.027,3.805-0.356,5.706-0.452
	c0.657-0.033,1.147-0.086,1.564-0.189c2.556,0.381,5.406,0.929,7.745,0.354c0.302-0.074,0.483-0.13,0.616-0.176
	c-0.052,0.046-0.095,0.105-0.095,0.182c-0.001,0.552-0.241,1.122-0.394,1.645c-0.272,0.929-0.663,1.821-0.916,2.756
	c-0.366,1.35-0.511,2.773-0.874,4.126c-4.451-0.799-9.343-0.024-13.697,0.414c-3.07,0.309-6.139,0.267-9.193,0.309
	c-1.614-0.593-3.066-0.676-4.515-0.558c-0.397-1.402-0.534-2.888-0.914-4.292c-0.253-0.936-0.644-1.826-0.916-2.756
	c-0.152-0.523-0.393-1.093-0.394-1.645c0-0.077-0.043-0.136-0.095-0.182C77.924,105.704,78.106,105.76,78.407,105.834z
	 M72.018,120.116c0.034-0.035,0.071-0.067,0.108-0.098c0.963-0.772,2.948-0.065,4.054-0.21c0.418-0.055,0.835-0.113,1.252-0.173
	c5.236,0.946,10.922,0.939,16.017,0.69c2.926-0.143,5.708-0.577,8.663-0.542c2.356,0.028,4.439,0.052,6.5-0.398
	c0.928,0.162,1.86,0.302,2.792,0.423c1.266,0.167,2.651-0.429,3.889-0.039c1.305,0.411,0.472,1.882,0.304,2.906
	c-0.541,3.312-1.519,6.533-2.074,9.843c-0.202,1.203-0.452,2.553-0.493,3.769c-0.012,0.363,0.093,0.852,0.172,1.32
	c-2.69-0.04-6.235-0.099-9.038,0.804c-0.071-0.432-0.162-0.853-0.304-1.244c-0.95-2.637-3.875-6.025-6.984-6.155
	c-3.25-2.383-10.256-0.378-11.542,3.333c-0.72,0.922-1.284,1.917-1.611,2.823c-0.14,0.391-0.233,0.812-0.304,1.244
	c-2.803-0.904-6.348-0.844-9.038-0.804c0.08-0.468,0.184-0.956,0.172-1.32c-0.042-1.216-0.292-2.566-0.493-3.769
	c-0.544-3.241-1.509-6.413-2.05-9.665C71.881,122.072,71.346,120.796,72.018,120.116z M96.479,142.025
	c-0.808,0.673-2.412,0.947-3.482,0.847c-1.648-0.154-3.388-1.814-3.602-3.494c-0.162-1.272,0.603-2.381,1.552-3.145
	c1.383-1.115,5.195-2.648,6.292-0.35C98.305,138.117,98.548,140.302,96.479,142.025z M58.959,143.495
	c0.909-0.645,4.385,0.112,5.425,0.157c5.032,0.215,10.033,0.537,15.035,0.927c1.84,0.144,3.435-0.001,4.757-0.74
	c1.659,3.681,6.677,5.118,10.398,5.067c2.483-0.033,4.104-1.761,6.133-2.887c2.742-1.521,4.465-1.209,7.456-1.442
	c5.002-0.39,10.004-0.71,15.035-0.927c1.042-0.045,4.516-0.802,5.425-0.157c1.433,1.017,1.192,3.72,1.091,5.183
	c-0.179,2.602-1.298,5.107-1.689,7.68c-0.395,2.601-0.907,5.769-0.288,8.452c-4.868,0.424-10.131,0.943-14.959,0.504
	c-1.453-0.133-5.135-0.241-6.39-0.932c-1.456-0.803-1.954-3.311-3.036-4.811c-2.065-2.866-4.881-4.583-8.253-5.48
	c-0.485-0.129-0.933-0.024-1.308,0.198c-0.374-0.222-0.823-0.327-1.308-0.198c-3.373,0.897-6.189,2.614-8.253,5.48
	c-1.082,1.501-1.58,4.009-3.036,4.811c-1.255,0.692-4.937,0.801-6.39,0.932c-4.828,0.441-10.09-0.08-14.959-0.504
	c0.619-2.683,0.107-5.852-0.288-8.452c-0.392-2.574-1.51-5.078-1.689-7.68C57.767,147.215,57.526,144.512,58.959,143.495z
	 M97.12,171.849c-1.889,0.19-3.837,0.544-5.727,0.346c-0.057-0.007-0.119-0.019-0.178-0.025c-0.068-0.031-0.133-0.066-0.205-0.093
	c-3.565-1.269-3.126-4.348-2.363-7.441c0.497-2.016,1.504-3.49,2.733-4.823c0.641-0.395,1.334-0.643,2.078-0.66
	c0.971-0.022,1.818,0.296,2.663,0.572c1.266,1.357,2.308,2.85,2.816,4.91C99.659,167.559,100.085,170.467,97.12,171.849z
	 M46.884,170.336c4.112-0.508,9.37-0.24,12.946,0.287c5.116,0.753,11.134,1.372,16.321,0.877c1.768-0.169,3.862-0.152,5.751-0.592
	c0.476,3.291,3.135,5.848,6.359,6.254c2.646,1.064,6.976,1.414,9.769,0.048c3.785,0.212,7.114-2.577,7.653-6.301
	c1.888,0.44,3.984,0.423,5.751,0.592c5.187,0.496,11.205-0.124,16.322-0.877c3.575-0.526,8.834-0.794,12.946-0.287
	c-0.471,5.637-3.47,10.972-4.428,16.523c-0.889,5.15-2.811,10.227-3.572,15.393c-4.836,0.085-9.676,0.354-14.521,0.468
	c-3.471,0.083-5.664,0.277-7.441-2.977c-0.898-1.645-1.818-3.444-3.015-4.887c-2.314-2.788-5.859-5.077-9.516-5.283
	c-0.494-0.268-1.057-0.478-1.78-0.59c-2.322-0.361-5.007-0.071-7.3,0.615c-3.568,0.293-7.007,2.532-9.269,5.257
	c-1.198,1.443-2.117,3.242-3.015,4.887c-1.777,3.254-3.97,3.06-7.441,2.977c-4.845-0.115-9.686-0.383-14.521-0.468
	c-0.76-5.166-2.683-10.242-3.572-15.393C50.352,181.308,47.354,175.973,46.884,170.336z M105.077,206.547
	c-1.838,8.588-20.686,8.796-22.568,0c-0.476-2.224,0.911-6.086,2.944-9.012c1.053-0.837,2.067-1.66,3.005-2.061
	c2.582-1.1,5.198-1.165,7.972-1.273c0.76-0.03,1.54,0.021,2.292-0.035C102.304,196.148,105.792,203.202,105.077,206.547z
	 M43.772,228.147c-1.435-3.776-2.33-7.677-3.365-11.572c-0.66-2.481-2.006-5.9-2.449-8.875c2.224,0.191,4.417,0.73,6.676,0.871
	c2.84,0.177,5.716,0.055,8.559,0.101c5.395,0.085,10.795,0.606,16.212,0.732c2.327,0.054,4.859,0.265,7.064-0.349
	c1.115,4.219,5.051,8.215,9.294,9.311c1.031,0.505,2.188,0.838,3.343,1.021c4.501,0.71,10.12,0.325,14.34-1.523
	c1.088-0.476,9.175-8.389,7.673-8.808c2.204,0.614,4.736,0.403,7.064,0.349c5.416-0.126,10.817-0.647,16.212-0.732
	c2.845-0.045,5.719,0.076,8.559-0.101c2.258-0.14,4.452-0.679,6.676-0.87c-0.443,2.975-1.791,6.394-2.449,8.875
	c-1.035,3.896-1.93,7.796-3.365,11.572c-1.787,4.701-5.387,12.149-4.919,17.659c-2.701-0.04-5.29,0.157-6.939,0.2
	c-4.96,0.129-9.76,1.374-14.685,1.483c-3.615,0.08-7.162-0.098-10.689,0.536c0.189-2.568,0.145-5.091,0.217-6.907
	c0.143-3.604-2.69-7.824-6.245-9.812c-3.026-2.573-7.227-2.556-10.942-0.975c-4.555,1.938-7.073,4.256-8.281,9.092
	c-0.171,0.684-2.103,8.341-1.319,8.451c-3.2-0.445-6.422-0.313-9.697-0.384c-4.924-0.108-9.724-1.353-14.685-1.483
	c-1.648-0.043-4.238-0.24-6.939-0.2C49.158,240.294,45.558,232.847,43.772,228.147z M86.057,242.68
	c-0.24-3.019,0.3-5.208,2.487-6.953c1.763-1.311,3.98-2.063,6.155-2.137c0.982,0.377,2.008,0.66,3.038,1.246
	c3.298,1.88,4.073,4.29,3.79,7.843c-0.147,1.848-0.064,3.389,0.203,5.215c1.18,8.052-17.211,9.111-15.877-0.001
	C86.121,246.068,86.205,244.528,86.057,242.68z M44.383,254.353c-1.359-2.355-1.291-1.409,0.291-2.218
	c1.175-0.602,3.387-0.419,4.663-0.581c4.071-0.517,8.24-0.7,12.337-0.235c6.668,0.759,12.448,1.015,18.726-0.78
	c-0.368,0.106,2.398,4.575,2.605,4.866c1.559,2.193,3.305,3.504,6.018,4.095c2.688,0.586,8.657,1.119,11.771-0.908
	c3.584-0.682,4.984-4.295,5.548-8.284c6.611,2.075,12.601,1.803,19.569,1.011c4.097-0.466,8.267-0.283,12.337,0.235
	c1.276,0.162,3.488-0.021,4.663,0.581c1.582,0.81,1.649-0.137,0.291,2.218c-2.623,4.544-6.333,8.522-9.897,11.911
	c-0.914,0.869-2.153,1.726-3.154,2.69c-1.167,0.151-2.374,0.214-3.217,0.365c-3.674,0.657-7.209,1.045-10.939,1.077
	c-8.537,0.075-16.982-1.073-25.543-0.327c-8.053,0.701-16.163-0.098-24.208,0.629c-2.433,0.22-4.849,0.595-7.265,0.477
	c-0.664-1.997-3.147-3.436-4.698-4.912C50.717,262.874,47.005,258.896,44.383,254.353z M39.088,278.821
	c4.128-0.373,8.277-0.331,12.415-0.465c-0.672,2.757-1.532,5.501-1.973,8.365c-0.814,5.284-1.73,10.621-2.097,15.954
	c-0.34,4.965-0.789,9.91-1.118,14.874c-0.315,4.761,0.244,10.829-1.068,15.395c-0.039,0.136-0.056,0.264-0.072,0.391
	c-1.716-0.087-3.435-0.161-5.147-0.27c-4.01-0.255-8-0.761-11.996-1.152c0.53-3.528,0.462-7.393,0.71-10.793
	c0.367-5.025,1.161-9.936,1.8-14.935c1.125-8.808,3.005-17.954,3.496-26.878C35.723,279.137,37.407,278.973,39.088,278.821z
	 M24.272,323.667c-0.213,2.361-0.918,5.216-0.941,7.857c-2.55-0.168-4.989-0.411-7.511-0.907c-4.148-0.815-4.372-0.39-3.664-4.867
	c0.738-4.667,1.327-9.22,1.48-13.954c0.178-5.499,1.144-10.514,2.158-15.881c0.599-3.177,0.967-6.331,1.747-9.476
	c0.252-1.015,0.493-4.096,1.18-4.747c0.894-0.846,3.267-0.876,4.388-1.045c2.711-0.41,5.443-0.751,8.179-1.053
	c-1.845,9.569-3.505,19.154-5.159,28.785C25.248,313.506,24.739,318.492,24.272,323.667z M26.954,340.841
	c-0.347-0.813-0.401-1.681-0.44-2.546c8.249,0.741,16.492,1.3,24.764,1.604c-0.095,1.293-0.325,3.072-1.14,3.653
	c-0.542,0.388-3.963-0.031-4.585,0.006c-3.678,0.217-6.949,0.499-10.646,0.105C31.485,343.297,28.378,344.18,26.954,340.841z
	 M42.415,405.544c0.12,2.95-0.186,7.362,0.824,10.656c-3.005,0.136-6.012,0.253-9.018,0.339c-0.007-0.043-0.023-0.084-0.033-0.127
	c0.015,0.009,0.03,0.018,0.045,0.025c-0.907-3.976-0.104-9.022-0.152-13.055c-0.083-6.843-0.14-13.755,0.224-20.592
	c0.599-11.237,1.797-23.135,0.31-34.406c0.176,0.021,0.354,0.041,0.521,0.065c2.935,0.425,5.642,0.435,8.605,0.257
	c0.452-0.026,0.919-0.03,1.391-0.024c-1.101,5.391-1.009,11.012-1.228,16.478c-0.298,7.414-0.928,14.876-0.983,22.277
	C42.879,393.416,42.173,399.594,42.415,405.544z M190.932,425.476c-0.486,3.57-2.424,3.156-5.593,3.103
	c-3.354-0.057-6.645,0.253-9.992,0.341c-13.079,0.344-26.153-0.134-39.224,0.518c-25.307,1.262-50.646-0.143-75.916,0.032
	c-13.571,0.094-27.154,0.399-40.69-0.213c-2.703-0.123-18.307-0.337-13.492-6.72c1.943-2.576,12.986-0.615,16.521-0.566
	c13.525,0.188,27.054-1.544,40.568-1.692c13.473-0.148,26.884-0.801,40.342-1.143c13.937-0.355,28.045-0.215,41.945,0.615
	c7.679,0.46,15.404,0.35,23.1,0.293c4.566-0.034,9.207,0.144,13.807-0.02c0.868,0.134,1.738,0.259,2.608,0.368
	c1.98,0.6,3.933,0.618,5.88,0.295c0.097,0.01,0.162,0.021,0.175,0.033C191.597,421.371,191.054,424.576,190.932,425.476z
	 M191.793,415.82c-0.33,0.001-0.667,0.018-1.015,0.061c-0.732,0.092-1.469,0.197-2.206,0.304c-6.949-0.961-14.137-0.57-21.129-0.608
	c-7.884-0.042-15.764-0.183-23.623-0.727c-1.834-0.127-3.678-0.24-5.528-0.341c-0.002-0.196-0.021-0.379-0.057-0.55
	c-0.794-10.373-1.401-20.709-1.45-31.118c-0.053-11.059-0.072-22.776-1.409-33.869c1.043-0.091,2.044-0.285,2.927-0.639
	c2.282,0.109,4.631,0.006,5.662,0.05c6.018,0.256,12.023,0.758,18.044,0.681c6.508-0.084,13.041,0.289,19.555,0.366
	c5.264,0.062,10.465,0.618,15.659-0.094c-0.323,0.825-0.38,1.789-0.013,2.961c1.504,4.803,6.02,5.38,10.289,5.435
	c-0.282,0.489-0.388,2.047-0.424,3.184c-0.057,0.817-0.135,1.675-0.062,2.494c-0.115,3.053-0.189,6.1-0.511,9.143
	c-0.572,5.414-0.708,10.857-0.851,16.296c-0.149,5.664-0.279,11.351-0.456,17.025c-0.081,2.597-0.699,5.885-0.358,8.784
	C200.466,414.659,196.11,414.928,191.793,415.82z M225.719,429.545c-3.622,0.381-7.772-0.751-11.427-0.832
	c-4.35-0.096-8.78-0.154-13.158-0.067c-1.515,0.03-3.271-0.098-5.025-0.099c0.794-2.897,0.868-6.407,0.163-8.928
	c3.671,0.156,7.426-0.112,11.034-0.139c0.518,0.228,1.057,0.201,1.552-0.004c3.834,0.04,7.663,0.14,11.495,0.32
	c1.996,0.094,3.999,0.356,5.995,0.355c0.941,0,2.239-0.329,3.313-0.173c0.034,1.403-0.038,2.82,0.019,4.22
	C229.819,427.624,229.035,429.196,225.719,429.545z M270.802,395.801c-0.806,9.592-0.972,18.931-0.716,28.549
	c0,0.006,0.002,0.009,0.002,0.014c-6.336,0.115-12.661-0.057-19.017-0.252c-3.556-0.108-7.136,0.239-10.697,0.209
	c-0.207-0.001-0.414-0.008-0.622-0.015c-0.101-0.127-0.226-0.243-0.404-0.333c1.111,0.555,1.18-10.559,1.19-11.571
	c0.049-5.049,0.055-10.098,0.071-15.148c0.028-8.932,0.359-18.037-0.133-26.917c-0.076-1.388,0.201-3.151-0.091-4.496
	c0.056-0.492,0.035-0.98-0.048-1.464c2.486-0.939,7.117-0.065,9.641-0.246c6.917-0.497,14.054,0.686,20.988,0.344
	c1.233,4.159,0.048,9.883-0.136,13.895C270.567,384.159,271.288,390.022,270.802,395.801z M279.859,415.868
	c-2.799,1.355-2.42,5.373-2.438,8.258c-0.109-0.008-0.215-0.023-0.33-0.015c-0.626,0.035-1.253,0.061-1.879,0.089
	c0-0.129,0.001-0.259,0.001-0.388c0-0.05-0.011-0.091-0.013-0.138c-0.289-10.807,0.61-21.444,0.625-32.228
	c0.008-5.932,0.057-11.827,0.234-17.746c0.128-4.316,0.5-8.969-1.401-12.937c-0.334-0.697-1.308-1.265-2.08-1.193
	c-3.303,0.304-7.019-0.015-10.394-0.006c-4.624,0.013-9.107-0.319-13.698,0.031c-5.187,0.395-13.1-1.951-12.877,5.527
	c0.265,8.876,0.51,17.754,0.538,26.669c0.019,6.16,0.013,12.321,0.064,18.481c0.036,4.446-0.515,9.519,0.599,13.914
	c-0.75-0.006-1.495,0.033-2.222,0.175c-0.043-2.897,0.434-7.097-2.441-8.49c-1.378-0.667-3.081-0.376-4.536-0.369
	c-0.429,0.002-0.856-0.011-1.285-0.019c-1.034-10.4,0.316-20.956,0.081-31.384c-0.123-5.406-0.262-10.82-0.482-16.224
	c-0.13-3.211-0.102-6.931-1.171-10.085c0.732-0.06,1.46-0.134,2.181-0.233c5.057-0.695,7.919-4.925,10.498-9.09
	c1.648-2.661,3.786-5.589,6.258-8.173c1.962-1.417,3.984-2.735,6.227-3.617c5.029-1.974,9.623-0.581,14.612,0.198
	c4.087,3.125,7.604,7.649,10.046,11.592c2.58,4.165,5.442,8.395,10.498,9.09c0.72,0.099,1.448,0.173,2.181,0.233
	c-1.068,3.154-1.041,6.875-1.171,10.085c-0.22,5.403-0.359,10.816-0.482,16.224c-0.236,10.427,1.115,20.985,0.081,31.384
	c-0.428,0.008-0.855,0.021-1.285,0.019C282.939,415.493,281.236,415.201,279.859,415.868z M310.868,428.645
	c-4.378-0.086-8.808-0.029-13.158,0.067c-3.654,0.081-7.804,1.213-11.426,0.832c-3.317-0.349-4.101-1.921-3.963-5.349
	c0.056-1.4-0.015-2.816,0.019-4.22c1.073-0.156,2.371,0.172,3.313,0.173c1.997,0.001,4-0.261,5.995-0.355
	c3.831-0.18,7.66-0.282,11.495-0.32c0.495,0.205,1.034,0.232,1.552,0.004c3.609,0.028,7.364,0.296,11.034,0.139
	c-0.705,2.521-0.63,6.032,0.164,8.928C314.139,428.547,312.383,428.675,310.868,428.645z M307.164,414.656
	c0.341-2.899-0.276-6.185-0.358-8.784c-0.177-5.674-0.307-11.361-0.456-17.025c-0.144-5.439-0.278-10.883-0.851-16.296
	c-0.321-3.042-0.395-6.089-0.51-9.143c0.073-0.82-0.004-1.677-0.062-2.494c-0.038-1.137-0.143-2.694-0.424-3.184
	c4.27-0.055,8.786-0.632,10.289-5.435c0.367-1.172,0.309-2.135-0.013-2.961c5.194,0.711,10.395,0.156,15.659,0.094
	c6.513-0.076,13.047-0.45,19.555-0.366c6.022,0.077,12.026-0.423,18.044-0.681c1.032-0.044,3.379,0.06,5.662-0.05
	c0.884,0.352,1.885,0.547,2.929,0.639c-1.337,11.094-1.357,22.81-1.41,33.869c-0.05,10.409-0.656,20.744-1.451,31.118
	c-0.036,0.171-0.055,0.356-0.057,0.55c-1.85,0.102-3.695,0.214-5.528,0.341c-7.858,0.544-15.739,0.685-23.623,0.727
	c-6.991,0.038-14.179-0.354-21.129,0.608c-0.737-0.106-1.474-0.212-2.206-0.304c-0.348-0.043-0.685-0.061-1.015-0.061
	C315.891,414.928,311.535,414.659,307.164,414.656z M492.486,429.257c-13.536,0.612-27.118,0.306-40.69,0.213
	c-25.27-0.175-50.61,1.23-75.916-0.032c-13.071-0.652-26.145-0.175-39.224-0.518c-3.347-0.088-6.638-0.399-9.992-0.341
	c-3.171,0.054-5.108,0.468-5.594-3.103c-0.123-0.9-0.665-4.105-0.038-4.756c0.012-0.012,0.077-0.023,0.175-0.033
	c1.948,0.324,3.901,0.306,5.88-0.295c0.871-0.109,1.74-0.234,2.608-0.368c4.6,0.164,9.24-0.014,13.807,0.02
	c7.694,0.057,15.421,0.167,23.1-0.293c13.9-0.832,28.008-0.97,41.945-0.615c13.458,0.342,26.87,0.995,40.342,1.143
	c13.514,0.149,27.043,1.88,40.568,1.692c3.535-0.049,14.578-2.011,16.521,0.566C510.793,428.922,495.189,429.136,492.486,429.257z"
	/>
<path d="M217.948,312.968c5.849,0.401,11.609,0.769,17.486,0.703c2.658-0.03,5.423,0.056,8.194,0.053
	c1.658,0.242,3.45,0.14,4.984,0.198c3.706,0.139,8.353,0.373,12.112-0.634c5.197,0.702,10.716,0.325,15.842,0.382
	c5.877,0.066,11.637-0.302,17.486-0.703c3.095-0.212,9.744-0.214,11.894-3.045c2.249-2.961-0.121-8.177-0.816-11.206
	c-0.805-3.509-1.537-6.395-5.222-7.792c-2.518-0.953-4.44-0.186-6.318-2.708c-1.03-1.384-1.076-2.851-2.587-4.031
	c-3.113-2.43-6.682-1.637-10.257-1.3c-1.881,0.178-3.799,0.491-5.721,0.808c-8.377-1.23-17.332-0.597-25.713-0.509
	c-4.79,0.05-9.493,0.486-14.298,0.193c-1.264-0.198-2.52-0.376-3.76-0.493c-3.575-0.337-7.145-1.13-10.257,1.3
	c-1.511,1.18-1.558,2.648-2.587,4.031c-1.878,2.523-3.8,1.754-6.318,2.708c-3.685,1.395-4.417,4.282-5.222,7.792
	c-0.695,3.029-3.064,8.246-0.816,11.206C208.205,312.753,214.852,312.755,217.948,312.968z M210.813,298.341
	c1.182-4.661,4.514-3.147,7.876-4.896c1.886-0.981,2.045-2.705,3.191-4.27c1.263-1.723,2.662-2.567,4.174-2.947
	c1.475,0.402,3.133,0.367,4.593,0.512c5.522,0.545,10.78,0.682,16.316,0.413c8.753-0.424,18.036,1.074,26.713-0.591
	c1.397-0.077,2.793-0.163,4.165-0.22c4.739-0.193,8.975-1.676,12.281,2.834c1.147,1.564,1.306,3.289,3.192,4.27
	c3.362,1.749,6.693,0.235,7.875,4.896c0.297,1.173,1.257,6.02,1.051,6.931c-0.576,2.541-2.253,2.138-4.756,2.45
	c-3.822,0.476-7.653,0.907-11.49,1.231c-8.349,0.705-17.469-0.714-25.836,0.676c-2.783-0.55-5.703-0.234-8.567-0.038
	c-8.298-1.319-17.314,0.059-25.58-0.639c-3.837-0.324-7.669-0.755-11.49-1.231c-2.504-0.313-4.18,0.091-4.756-2.45
	C209.557,304.361,210.516,299.513,210.813,298.341z"/>
<path d="M426.559,407.48c4.491-0.402,14.836,0.127,17.228-4.811c1.16-2.395,0.377-5.635,0.22-8.204
	c-0.238-3.889-0.614-7.818-1.169-11.672c0.545-6.473,2.223-18.009-3.099-22.3c-2.553-2.058-6.927-1.963-10.031-2.159
	c-3.643-0.23-7.73-0.158-11.331,0.299c-8.843,1.122-7.977,9.022-8.242,16.092c-0.33,8.798-0.916,18.161,1.561,26.691
	C413.771,408.559,420.177,408.051,426.559,407.48z M414.557,382.271c-0.001-3.208,0.041-6.394,0.183-9.599
	c0.177-3.974-0.935-8.51,4.24-9.586c4.096-0.852,15.304-1.159,17.882,1.974c0.474,0.576,0.801,1.254,1.044,1.984
	c0.066,7.783,0.598,15.564,1.268,23.32c0.22,2.536,0.758,5.532,0.389,8.077c-0.348,2.401-1.32,2.641-3.694,3.21
	c-5.152,1.236-12.64,2.794-17.287-0.045c-2.677-1.635-2.735-2.55-3.288-5.378c-0.379-1.939-0.657-3.838-0.727-5.824
	C414.472,387.699,414.558,384.978,414.557,382.271z"/>
<path d="M330.647,383.656c0.026,6.345,0.034,14.175,3.475,19.791c2.838,4.632,9.306,4.188,14.294,3.731
	c4.824-0.442,14.137-1.41,16.214-6.793c1.133-2.937,0.432-7.599,0.168-10.653c-0.367-4.262-0.423-8.596-0.84-12.837
	c-0.464-4.724-0.972-10.535-5.867-12.576c-3.552-1.481-7.944-1.798-12.203-1.576c-5.247-1.215-12.165-1.661-14.819,2.241
	c-1.601,2.354-0.461,4.987-0.483,7.585C330.556,376.29,330.632,379.94,330.647,383.656z M334.732,369.279
	c0.89-3.769,8.418-2.863,13.195-2.835c1.72,0.162,3.443,0.331,5.17,0.556c3.53,0.457,5.714,1.673,6.316,5.707
	c0.317,2.122,0.351,4.677,0.377,6.787c0.059,4.939,0.792,9.926,0.493,14.857c-0.236,3.894-0.808,5.452-4.659,6.583
	c-2.426,0.713-5.009,1.352-7.552,1.459c-4.693,0.198-9.636,0.652-11.358-4.374c-1.793-5.236-1.422-10.641-1.653-16.019
	c-0.105-2.449-0.479-4.762-0.268-7.226C334.939,373.082,334.363,370.839,334.732,369.279z"/>
<g>
</g>
<g>
</g>
<g>
</g>
<g>
</g>
<g>
</g>
<g>
</g>
<g>
</g>
<g>
</g>
<g>
</g>
<g>
</g>
<g>
</g>
<g>
</g>
<g>
</g>
<g>
</g>
<g>
</g>
</svg>
