<?xml version="1.0" encoding="iso-8859-1"?>
<!-- Generator: Adobe Illustrator 19.0.0, SVG Export Plug-In . SVG Version: 6.00 Build 0)  -->
<svg version="1.1" id="Layer_1" xmlns="http://www.w3.org/2000/svg" xmlns:xlink="http://www.w3.org/1999/xlink" x="0px" y="0px"
	 viewBox="0 0 512.004 512.004" style="enable-background:new 0 0 512.004 512.004;" xml:space="preserve">
<path style="fill:#F4D38C;" d="M125.288,348.017c1.326,1.157,3.148,1.757,4.899,1.538c1.009-0.126,1.979-0.499,2.992-0.595
	c1.013-0.095,2.159,0.161,2.728,1.005c0.502,0.745,0.422,1.725,0.322,2.617c-0.322,2.899-0.702,5.948-2.438,8.293
	c-1.329,1.795-3.312,2.975-4.916,4.53c-3.14,3.047-4.689,7.441-5.104,11.797c-0.376,3.931,0.324,7.693,0.69,11.583
	c0.605,6.411,0.937,13.725-2.146,19.589c-0.576,1.095-1.269,2.278-1.003,3.485c0.403,1.828,2.637,2.475,4.492,2.725
	c7.071,0.956,14.246,1.132,21.354,0.526c1.361-0.116,2.856-0.327,3.759-1.352c1.711-1.944,0.06-4.933,0.14-7.523
	c0.093-3.034,2.784-5.492,5.712-6.299s6.038-0.32,9.023,0.233c2.985,0.553,6.047,1.171,9.032,0.613
	c2.984-0.556,5.916-2.603,6.517-5.579c0.508-2.512-0.575-5.552,1.179-7.419c0.786-0.836,1.968-1.178,3.109-1.294
	c2.344-0.238,4.685,0.319,7.028,0.57c2.343,0.251,4.884,0.141,6.795-1.238c2.207-1.593,1.901-3.501,1.506-5.738
	c-0.919-5.195-0.476-11.028-0.433-16.3c0.053-6.371,0.187-12.744,0.569-19.104c0.748-12.465,2.456-24.949,6.334-36.856
	c2.676-8.219,6.512-16.307,12.812-22.225c3.905-3.669,8.573-6.349,12.923-9.433c2.989-2.119,6.265-4.818,8.042-8.11
	c0.868-1.607,1.165-3.638,0.307-5.249c-1.132-2.123-3.756-2.842-5.776-4.151c-4.667-3.025-5.989-9.153-6.823-14.653
	c-0.352-2.323-0.588-5.001,1.006-6.726c1.486-1.608,3.972-1.711,6.15-1.483s4.484,0.655,6.477-0.251
	c2.84-1.29,2.458-3.746,1.107-5.72c-2.109-3.08-4.179-5.197-5.378-8.871c-1.058-3.241-1.827-7.111-4.987-9.009
	c-1.24-0.745-2.696-1.059-3.957-1.767c-2.206-1.239-3.652-3.726-3.639-6.256c0.012-2.53,1.483-5.002,3.699-6.221
	c2.271-1.25,5.01-1.179,7.6-1.072c15.503,0.636,31.005,1.33,46.503,2.08c0.692,0.034,1.435,0.085,1.976,0.519
	c0.882,0.706,0.82,2.042,0.677,3.162c-0.287,2.253-0.65,4.671-2.22,6.312c-1.268,1.325-3.108,1.905-4.67,2.867
	c-2.989,1.84-4.903,4.91-6.086,8.119c-1.26,3.42-3.167,6.621-4.703,9.995c-0.458,1.006-0.907,2.122-0.61,3.186
	c0.468,1.675,2.537,2.347,4.27,2.198c1.732-0.149,3.412-0.837,5.148-0.749c3.129,0.157,5.424,2.871,6.281,5.696
	c1.002,3.305-0.419,7.799-1.845,10.85c-1.623,3.47-4.692,6.303-8.38,7.418c-0.96,0.29-2.035,0.527-2.631,1.332
	c-0.483,0.652-0.526,1.522-0.517,2.332c0.039,3.711,0.296,6.62,3.003,9.482c1.979,2.092,4.489,3.586,6.866,5.209
	c9.68,6.609,17.489,15.851,22.615,26.375c5.465,11.221,6.418,23.147,7.819,35.331c0.81,7.039,1.26,14.114,1.594,21.191
	c0.175,3.722,0.202,7.465,0.457,11.183c0.218,3.185-1.27,5.52-1.385,8.665c-0.082,2.236,0.857,4.656,2.841,5.688
	c1.939,1.009,4.273,0.48,6.452,0.299c3.248-0.271,7.032,0.639,8.477,3.561c1.526,3.087-0.702,7.404,2.831,9.457
	c1.267,0.737,2.776,0.927,4.241,0.969c4.366,0.125,8.716-0.93,13.075-0.647c4.359,0.283,9.084,2.411,10.446,6.561
	c1.335,4.07-0.57,7.519,4.339,9.562c1.768,0.736,3.704,0.945,5.608,1.145c3.831,0.404,7.661,0.808,11.493,1.212
	c1.62,0.171,3.336,0.327,4.808-0.372c2.742-1.301,3.42-4.91,3.168-7.935c-0.528-6.323-0.548-12.671-0.623-19.011
	c-0.03-2.498-0.486-4.899-0.274-7.362c0.269-3.122,0.513-6.059-0.548-9.089c-1.304-3.721-4.106-6.68-6.598-9.736
	s-4.828-6.58-4.882-10.523c-0.015-1.088,0.199-2.274,1.015-2.993c1.706-1.503,4.304,0.061,6.577,0.114
	c2.838,0.066,5.197-2.477,5.908-5.226c0.932-3.608-0.392-7.315-0.226-10.968c0.2-4.413,0.391-8.826,0.562-13.24
	c0.342-8.79,0.592-17.585,0.554-26.383c-0.158-37.07-1.217-74.135-1.516-111.206c-0.075-9.26-1.047-18.285-1.106-27.571
	c-0.009-1.441,0.104-3.127,1.304-3.927c0.839-0.559,1.93-0.475,2.922-0.651c2.794-0.495,4.792-3.167,5.394-5.94
	c1.099-5.069-1.666-9.335-2.021-14.271c-0.747-10.388-1.589-20.769-2.458-31.146c-0.856-10.212-1.342-20.479-3.434-30.498
	c-0.504-2.414-0.466-5.265,1.348-6.937c1.415-1.304,3.495-1.505,5.415-1.64c3.878-0.273,8.209-0.402,11.136,2.155
	c1.139,0.994,1.942,2.306,2.728,3.597c3.796,6.237,7.593,12.476,11.389,18.713c1.899,3.119,3.789,6.242,5.695,9.357
	c1.443,2.36,3.304,3.919,4.942,6.091c8.864,11.76,17.244,23.929,25.776,35.93c8.596,12.09,11.403,25.631,11.759,40.596
	c0.829,34.824,2.043,69.638,3.332,104.448c0.4,10.792,0.806,21.583,1.209,32.375c0.202,5.396,0.403,10.791,0.603,16.187
	c0.097,2.611,0.204,5.221,0.288,7.833c0.076,2.343-0.776,4.614-0.546,6.924c0.144,1.448,0.871,2.922,2.172,3.572
	c1.305,0.652,2.855,0.362,4.304,0.2c2.601-0.292,8.612-0.925,8.762,2.59c0.119,2.782-1.364,5.262-2.212,7.8
	c-0.822,2.463-1.865,5.113-4.507,6.099c-1.425,0.531-3.105,0.45-4.317,1.366c-2.076,1.567-1.702,4.91-1.746,7.184
	c-0.062,3.149-0.454,6.426-0.052,9.563c0.345,2.698,0.938,4.7,0.822,7.528c-0.268,6.595-0.533,13.189-0.799,19.784
	c-0.039,0.957-0.07,1.954,0.318,2.831c0.765,1.727,2.899,2.408,4.787,2.369c1.888-0.04,3.753-0.596,5.639-0.486
	c4.548,0.265,8.276,5.058,7.411,9.53c-0.286,1.483-0.902,3.276,0.202,4.308c0.768,0.719,1.959,0.611,3.01,0.613
	c4.245,0.008,8.347,2.829,9.874,6.789c1.527,3.961,0.382,8.805-2.758,11.662c-5.656,5.146-12.093,4.179-19.142,3.878
	c-8.668-0.37-17.339-0.686-26.011-0.946c-17.345-0.521-34.696-0.824-52.048-0.91c-17.328-0.084-34.658,0.049-51.983,0.401
	c-8.105,0.165-16.23,0.318-24.253,1.045c-3.947,0.358-8.268-0.536-12.224-0.841c-4.284-0.332-8.572-0.636-12.861-0.913
	c-34.309-2.221-68.73-2.731-103.091-1.532c-16.719,0.583-33.557,2.617-50.246,2.412c-17.372-0.215-34.746-0.297-52.118-0.25
	c-28.144,0.077-56.287,0.5-84.421,1.266c-3.494,0.095-7.568,0.176-10.803-1.351c-3.864-1.825-4.987-7.461-4.616-11.397
	c0.292-3.093,2.343-6.253,5.405-6.77c2.223-0.376,4.767,0.613,6.623-0.665c1.79-1.232,1.842-3.821,1.599-5.98
	s-0.493-4.647,1.016-6.21c1.225-1.268,3.208-1.434,4.952-1.171s3.447,0.873,5.211,0.853c7.105-0.079,7.399-7.967,7.483-13.137
	c0.092-5.613,0.435-11.268,0.341-16.878c-0.031-1.808-0.626-3.145-0.902-4.861c-0.391-2.431,0.56-4.87,1.03-7.232
	c0.541-2.715,0.576-5.827-1.242-7.916c-1.093-1.255-2.683-1.933-4.107-2.794c-3.496-2.115-6.166-5.562-7.338-9.477
	c-0.749-2.502-0.622-5.747,1.632-7.066c2.742-1.606,6.058,0.87,9.232,1.017c2.364,0.11,4.723-1.406,5.801-3.485
	c1.025-1.976,0.293-3.091-0.17-5.056c-1.334-5.659,0.075-12.807,0.285-18.605c0.476-13.159,0.952-26.318,1.435-39.477
	c1.36-37.052,2.877-74.098,4.015-111.156c0.377-12.293,2.502-24.006,7.93-35.1c5.503-11.245,13.022-21.345,20.497-31.33
	c9.29-12.407,18.579-24.813,28.038-37.091c2.17-2.816,4.411-5.684,7.418-7.581c3.007-1.896,6.98-2.659,10.134-1.02
	c3.148,1.637,4.807,5.316,4.993,8.859c0.145,2.756-0.755,5.259-0.978,7.959c-0.153,1.866,0.322,3.667,0.354,5.527
	c0.109,6.38-0.979,12.978-1.507,19.337c-0.584,7.038-1.173,14.075-1.75,21.114c-0.295,3.605-0.588,7.21-0.875,10.816
	c-0.268,3.368-1.484,6.82-1.325,10.18c0.087,1.847,0.751,3.747,2.168,4.934c1,0.838,2.343,1.306,3.069,2.389
	c0.61,0.91,0.66,2.071,0.688,3.166c0.129,4.876-0.268,10.04,1.024,14.77c1.206,4.41,0.57,8.608,0.576,13.153
	c0.072,49.181-0.248,98.364-0.42,147.546c-0.01,2.921,0.383,6.14-0.007,9.028c-0.344,2.553-1.385,4.669,0.225,7.141
	C124.508,347.239,124.874,347.656,125.288,348.017z"/>
<path style="fill:#E0B080;" d="M259.537,195.925c-3.061,5.944-6.579,11.21-6.317,18.113c0.174,4.564,2.027,7.933,3.1,12.175
	c2.066,8.163-5.344,13.287-1.924,20.913c1.176,2.623,3.788,4.916,3.368,8.005c-0.317,2.332-2.986,4.938-3.602,7.474
	c-1.038,4.279-1.561,10.179,0.224,14.234c1.042,2.369,3.438,3.84,2.938,6.721c-0.299,1.718-3.01,4.137-3.86,5.612
	c-2.547,4.424-3.61,9.351-5.092,14.221c-3.207,10.541-4.27,20.831-2.668,31.658c0.68,4.602,0.964,7.842,2.645,11.961
	c3.606,8.842,2.722,19.351,4.136,28.71c0.722,4.778,2.673,7.228-2.973,8.421c-5.063,1.071-11.505,1.094-16.729,1.331
	c-9.795,0.445-22.505,2.051-31.732-0.983c-1.122-18.463-2.891-38.829,1.272-57.148c1.936-8.519,4.724-17.519,8.362-25.495
	c4.932-10.81,11.578-18.024,20.602-25.422c2.983-2.446,17.428-9.835,11.264-15.283c-1.597-1.411-6.097-0.296-8.025-1.494
	c-2.875-1.787-4.155-7.34-4.821-10.524c-0.418-1.997-1.656-8.142-0.593-10.189c1.791-3.449,5.094-1.767,8.413-1.955
	c9.742-0.554,5.755-4.385,4.024-10.986c-1.501-5.728-3.084-10.373-8.159-13.941c-4.91-3.452-12.119-5.366-7.283-13.414
	C234.805,198.293,241.987,195.962,259.537,195.925z"/>
<path style="fill:#CE7165;" d="M244.884,349.007c0,9.245,0.757,18.48,0.789,27.704c0.017,4.894-0.724,9.114,4.978,9.646
	c2.963,0.277,7.725,0.847,10.413-0.523c2.416-1.232,2.328-4.023,2.692-6.761c0.832-6.245,0.326-12.284,0.587-18.496
	c0.145-3.468,1.579-8.611,0.21-11.91c-1.166-2.808-4.567-3.337-7.363-3.618C251.728,344.503,247.854,345.167,244.884,349.007z"/>
<path style="fill:#FFFBF5;" d="M90.484,348.219c-7.257-1.129-14.999-0.001-22.305,0c-6.324,0-12.701-0.235-18.994,0.27
	c-8.01,0.643-16.795-1.112-24.651,0.835c-7.589,1.88-0.067,10.875,3.282,13.625c4.649,3.818,7.693,4.619,7.694,11.046
	c0,3.826-0.258,7.369-0.468,11.158c-0.275,4.951-0.804,9.877-1.053,14.838c-0.202,4.032-2.081,11.151,1.884,13.388
	c7.63,4.306,18.729,2.368,26.983,2.186c9.573-0.211,19.293,0.181,28.842,0.92c8.278,0.64,17.057,0.707,25.228-0.994
	c6.68-1.391,4.943-8.052,5.705-13.655c1.061-7.793,0.573-15.066,0.192-22.877c-0.145-2.967-0.519-6.692,0.719-9.425
	c1.24-2.738,4.015-4.894,5.914-7.167c2.629-3.148,8.734-9.346,3.513-12.571c-4.008-2.475-11.661-1.872-16.147-2.211
	C108.461,346.954,100.418,348.115,90.484,348.219z"/>
<path style="fill:#E5E0D8;" d="M67.774,350.587c-0.166,7.452,1.552,10.69,9.164,11.867c5.74,0.887,11.6-0.2,17.343-0.468
	c9.005-0.421,18.4-1.402,27.458-0.671c7.034,0.569,4.897,6.006-1.172,7.13c-9.076,1.681-18.713-1.358-27.881-0.425
	c-3.024,0.308-9.504-0.539-12.093,0.872c-5.749,3.134,0.924,12.107,1.465,16.465c0.929,7.481,1.623,15.052,8.416,19.786
	c3.87,2.697,8.775,3.845,11.561,7.935c-9.253,3.696-23.185,0.88-33.133,0.526c-11.533-0.411-23.094,1.14-34.575,0.378
	c-1.382-3.383-0.491-6.433,0.033-9.948c0.911-6.109,1.076-12.173,1.231-18.328c0.132-5.254,2.347-13.131-1.953-16.846
	c-4.828-4.171-9.324-5.414-11.915-12.125c-2.919-7.56,4.368-5.633,10.231-6.145C41.384,349.764,53.037,351.39,67.774,350.587z"/>
<path style="fill:#FFFBF5;" d="M467.168,348.988c5.745,0.213,11.488,0.307,17.235,0.553c1.996,0.085,4.369-0.03,5.514,2.039
	c1.551,2.804-0.91,7.402-2.262,9.868c-1.785,3.256-5.195,4.033-7.036,6.815c-2.021,3.056-1.721,7.904-1.895,11.38
	c-0.257,5.122-0.194,10.137,0,15.258c0.192,5.051,0.15,11.832-1.526,16.673c-0.791,2.286-1.575,2.831-4.002,3.192
	c-3.864,0.576-8.587,0.014-12.499,0c-10.44-0.037-20.855,0.802-31.299,0.789c-10.648-0.012-20.93,0.402-31.478-1.414
	c-3.584-0.617-8.009-1.527-8.917-5.391c-1.08-4.59-0.405-10.277-0.184-14.947c0.263-5.572,0.213-11.053,0.204-16.628
	c-0.005-3.011-0.03-6.685-1.895-9.228c-1.803-2.46-4.732-4.196-6.476-6.838c-1.673-2.534-3.807-6.514-3.203-9.68
	c0.43-2.251,1.063-2.213,3.427-2.42c3.099-0.269,6.165,0.441,9.239,0.538c12.999,0.416,25.928-1.925,38.901-1.585
	C441.707,348.293,454.452,348.516,467.168,348.988z"/>
<path style="fill:#E5E0D8;" d="M376.204,350.587c0.615,4.231,2.68,8.161,5.288,11.424c2.055,2.572,5.315,3.768,7.226,6.108
	c2.098,2.57,1.046,6.882,0.906,10.193c-0.221,5.265-0.346,10.43-0.11,15.708c0.198,4.411-0.769,11.432,1.082,15.482
	c1.95,4.264,7.277,4.343,11.369,5.004c16.862,2.728,33.985,1.071,50.938,1.334c6.771,0.104,35.666,0.919,21.486-12.729
	c-5.103-4.911-59.225-17.356-43.913-28.853c7.35-5.519,17.675-4.963,26.451-5.344c5.901-0.255,12.794,0.297,18.403-0.765
	c5.85-1.109,9.761-6.746,2.759-9.312c-5.739-2.103-13.591-0.188-19.49,0.343c-6.913,0.622-13.641,1.274-20.59,1.24
	c-6.592-0.032-13.524-0.159-19.943-1.887c-5.129-1.381-4.945-2.941-7.555-6.536c-3.554-4.896-11.453-4.186-17.231-3.991
	C387.576,348.197,376.724,346.777,376.204,350.587z"/>
<g>
	<path style="fill:#F4D38C;" d="M123.626,386.621c-6.882-0.238-13.875,0.98-20.78,1.058c-8.78,0.099-17.532-0.27-26.298-0.269
		c-8.368,0.001-16.701,0.894-25.063,0.788c-4.666-0.059-10.597-1.291-14.927,1.112c-3.325,1.845-1.703,4.656-1.572,7.986
		c0.252,6.376,3.162,6.008,9.156,6.166c11.193,0.295,22.22,0.483,33.419,0.026c10.442-0.426,20.843-2.427,31.279-2.668
		c3.346-0.077,11.877,1.246,14.731-1.099c2.222-1.827,1.505-10.189,0.527-12.536C123.67,387.011,123.744,387.311,123.626,386.621z"
		/>
	<path style="fill:#F4D38C;" d="M476.352,384.255c-3.346-0.826-7.363-0.263-10.757-0.263c-5.885,0-11.76,0.068-17.641,0.255
		c-10.809,0.344-21.684,0.637-32.462,1.527c-6.602,0.545-13.173,0.592-19.794,0.585c-3.294-0.003-5.667-0.622-6.665,2.538
		c-0.769,2.435-1.001,7.528,1.292,9.186c1.606,1.16,5.177,0.804,7.088,0.974c5.298,0.47,10.623,0.629,15.93,0.979
		c12.593,0.83,25.259,0.789,37.878,0.789c6.504,0,13.435,0.628,19.858-0.556c2.888-0.533,5.868-1,6.988-3.927
		C478.924,394.107,480.444,384.455,476.352,384.255z"/>
</g>
<g>
	<path style="fill:#F9EDD9;" d="M58.805,415.732c-8.678,0-17.31-0.458-25.948-0.376c-3.803,0.036-8.254,0.801-11.441,2.721
		c-3.523,2.122-3.513,3.845-3.489,7.811c0.034,5.75-1.771,4.032-6.74,5.259c-5.28,1.302-6.891,2.016-6.886,7.388
		c0.003,2.388-0.954,7.356,0.637,9.387c1.84,2.348,8.05,1.902,10.66,2.211c11.175,1.323,22.488,1.562,33.712,1.555
		c9.262-0.007,18.482-0.93,27.741-1.154c28.455-0.688,56.989-0.033,85.462-0.368c18-0.211,36.062,0.276,54.056,0.372
		c18.785,0.101,37.537-1.381,56.328-0.759c24.877,0.824,49.454,1.658,74.339,1.539c7.685-0.036,15.106,0.913,22.757,0.361
		c8.82-0.636,17.602-1.892,26.459-1.882c11.872,0.014,23.711,0.078,35.569,0.397c9.802,0.263,19.531-0.724,29.34-0.112
		c8.413,0.525,16.832,1.112,25.244,1.524c4.675,0.229,13.63,2.875,18.031,1.217c1.877-0.707,1.78-0.939,2.698-2.924
		c1.791-3.872,3.548-13.309,1.502-17.152c-2.205-4.141-6.139-1.343-9.816-3.003c-5.203-2.348-0.862-8.312-4.916-11.296
		c-3.813-2.808-15.736-1.59-20.008-1.579c-11.186,0.027-22.315-0.765-33.49-0.757c-13.363,0.01-26.69,0.848-40.052,0.755
		c-6.815-0.047-13.49-0.966-20.245-1.5c-5.529-0.437-15.748,0.952-19.995-3.414c-3.16-3.25,0.774-8.454-3.617-11.264
		c-3.177-2.033-6.98-0.446-10.405-0.474c-3.611-0.03-7.984,0.234-11.518-0.276c-9.365-1.351-2.02-7.112-5.691-10.995
		c-2.841-3.006-12.957-2.722-16.711-3.036c-9.065-0.762-18.45-0.061-27.549-0.075c-16.527-0.025-33.037,0.826-49.55,1.392
		c-13.015,0.446-25.987,0.15-39.035,0.12c-2.947-0.007-6.288-0.444-9.22,0.001c-8.255,1.252-0.925,9.692-6.696,12.897
		c-3.343,1.858-11.228,0.729-14.976,0.729c-4.798,0-8.186,0.376-12.631,1.579c1.039,2.084,3.062,9.082,2.055,11.102
		c-1.416,2.84-7.59,2.279-10.533,2.425c-8.829,0.442-17.687,0.478-26.547,0.809c-9.692,0.362-17.784-0.295-27.089-2.298
		C80.729,412.464,68.836,415.452,58.805,415.732z"/>
	<path style="fill:#F9EDD9;" d="M112.553,151.536c-4.76-0.55-6.86,5.717-7.159,9.291c-0.796,9.474-1.217,19.025-1.555,28.532
		c-0.684,19.257-1.267,38.459-2.294,57.701c-1.257,23.579-2.617,46.793-2.617,70.449c0,5.747,0.192,11.424,0.463,17.147
		c0.127,2.699-0.115,8.1,1.318,10.377c1.488,2.365,5.499,3.094,8.134,3.351c2.415,0.235,8.458,0.753,10.712-0.401
		c4.075-2.085,2.322-10.448,2.547-14.785c0.521-10.073,1.049-20.084,1.05-30.189c0.001-8.947,0.588-16.754-1.829-25.306
		c-2.425-8.579-0.452-18.458,0.023-27.216c0.611-11.29,2.336-22.287,2.111-33.573c-0.236-11.871-0.097-23.748,0.42-35.61
		c0.292-6.696,2.028-14.419,1.187-21.063C124.143,152.991,116.073,148.896,112.553,151.536z"/>
	<path style="fill:#F9EDD9;" d="M388.104,153.807c2.02,5.857-0.016,15.161,0.001,21.635c0.03,10.624,0.78,21.195,0.754,31.79
		c-0.044,18.575-1.332,37.819,0.287,56.287c1.206,13.76,1.098,27.844,1.23,41.645c0.116,12.209,0.769,24.225,0,36.389
		c-0.216,3.414-1.056,6.614,2.917,7.58c1.791,0.435,4.753-0.14,6.65-0.123c2.1,0.02,4.317,0.527,6.441,0.484
		c2.777-0.056,4.15,0.476,5.67-2.118c1.357-2.315,0.889-7.669,1.032-10.347c0.517-9.677,0.421-19.37,0.262-29.054
		c-0.149-9.06,0.696-18.704-0.421-27.671c-2.215-17.785-0.966-36.481-1.768-54.497c-0.815-18.358-1.221-37.684-4.499-55.773
		C404.915,160.402,401.38,143.115,388.104,153.807z"/>
</g>
<g>
	<path style="fill:#514430;" d="M218.155,310.13c-6.605,3.593-8.106,18.035-0.378,20.922c9.051,3.38,15.277-9.737,11.816-17.145
		C227.713,309.88,220.558,307.894,218.155,310.13z"/>
	<path style="fill:#514430;" d="M252.22,308.237c-4.783-0.129-8.138,6.756-8.327,10.774c-0.224,4.754,2.631,8.575,7.193,9.958
		c10.879,3.298,18.644-4.494,14.391-15.055C262.765,307.173,257.067,306.319,252.22,308.237z"/>
	<path style="fill:#514430;" d="M285.908,310.886c-7.233,6.136-3.433,20.857,6.832,20.061c8.251-0.639,9.843-12.334,4.711-17.789
		c-1.264-1.343-3.032-2.629-4.92-3C288.411,309.347,287.667,312.204,285.908,310.886z"/>
</g>
<g>
	<path style="fill:#E0B080;" d="M122.755,68.978c-8.373,7.471-14.558,15.824-19.603,25.965c-5.438,10.929-11.72,19.12-9.583,32.172
		c1.113,6.798,5.089,11.756,7.826,17.824c1.111,2.462,7.609,19.842-0.89,16.911c-4.779-1.648-7.01-16.061-8.231-19.94
		c-0.961-3.048-1.067-10.659-5.564-10.818c-3.567-0.126-4.768,8.591-6.746,11.261c-4.237,5.72-6.787,9.923-3.636,17.294
		c2.665,6.234,8.104,11.156,13.016,15.628c4.821,4.39,13.735,8.311,15.451,15.088c2.139,8.452-4.45,6.135-8.413,2.917
		c-5.753-4.673-10.716-10.555-15.88-15.956c-1.976-2.067-4.067-7.105-6.893-8.001c-4.245-1.346-2.802,5.298-3.561,9.005
		c-1.113,5.445-5.18,13.731-4.099,19.092c2.178,10.801,18.289,18.913,27.886,21.19c3.316,0.787,6.96,0.819,8.356,4.039
		c0.712,1.642,0.112,8.774-2.223,9.426c-2.346,0.655-13.251-7.392-15.564-8.883c-4.409-2.842-9.77-7.843-15.167-8.46
		c-7.955-0.91-4.88,7.868-5.16,13.159c-0.295,5.603-2.128,10.551,0.592,15.921c2.575,5.084,7.786,7.757,12.937,9.606
		c5.49,1.972,14.686,2.94,19.408,6.018c5.215,3.4,1.578,7.27-2.946,7.125c-7.122-0.228-15.148-3.429-21.725-5.922
		c-1.636-0.62-6.303-3.117-8.06-1.594c-4.289,3.751,3.526,19.162,5.08,23.29c4.802,12.754,12.944,7.875,23.989,9.793
		c3.168,0.551,7.355,4.132,2.58,6.627c-3.216,1.679-10.81-0.66-14.7-0.376c1.997,3.754,5.847,4.992,9,7.518
		c4.192,3.36,7.59,7.318,8.832,12.505c1.633,6.818,1.095,14.046,1.441,21.009c0.282,5.676,1.24,6.662-4.674,6.703
		c-7.761,0.055-15.463,0.865-23.187,1.548c-8.366,0.74-17.204,3.25-25.464,0.916c-6.388-1.805-6.438-3.145-6.243-9.748
		c0.367-12.381,0.916-24.678,0.911-37.105c-0.014-26.674,1.74-53.461,2.705-80.117c0.812-22.428-2.03-45.98,2.323-68.177
		c2.617-13.348,13.3-22.583,17.585-35.006c4.752-13.783,17.271-25.18,25.63-36.892c4.64-6.501,9.13-15.344,16.335-19.376
		C111.558,59.286,127.695,59.248,122.755,68.978z"/>
	<path style="fill:#E0B080;" d="M450.175,288.951c-2.94-6.823-6.07-13.71-9.103-20.362c-2.279-5-0.466-5.986,4.975-7.153
		c4.98-1.067,9.424-3.744,14.195-5.503c2.955-1.089,15.345-5.402,6.726-7.511c-2.835-0.694-7,1.468-9.77,2.035
		c-3.96,0.81-8.495,1.272-12.537,1.243c-7.008-0.049-9.552-4.406-11.556-10.367c-1.627-4.841-4.457-10.559-4.089-15.798
		c0.368-5.253,4.384-6.629,8.932-8.843c10.401-5.064,23.119-8.341,30.829-17.639c-2.879-6.094-22.092,6.052-25.823,7.505
		c-4.256,1.658-10.304,4.034-14.728,1.592c-7.798-4.307-6.422-20.979-1.629-26.856c4.047-4.962,8.665-9.529,13.082-14.166
		c4.166-4.372,22.391-15.521,20.494-22.539c-3.036-0.828-4.258,1.456-6.302,3.087c-4.325,3.453-9.332,6.386-13.814,9.776
		c-3.435,2.598-11.933,10.307-16.949,9.447c-3.837-0.657-2.494-4.292-2.449-6.947c0.052-3.095-0.73-4.972-1.137-7.895
		c-1.073-7.725,3.757-15.35,7.193-21.928c2.362-4.522,4.327-9.258,7.029-13.572c1.934-3.087,4.375-5.198,4.146-9.139
		c-0.58-9.945-7.189,2.657-9.398,5.309c-2.018,2.421-8.337,10.566-11.285,11.184c-6.234,1.306-13.463-44.601-14.629-50.874
		c-0.711-3.82-0.911-9.87-5.205-11.385c-2.469-0.871-4.777,0.161-6.109,1.946c-0.198,0.265-0.374,0.546-0.527,0.843
		c-2.998,5.808,1.318,16.636,1.74,23.027c0.68,10.325,1.567,20.64,2.053,30.978c0.285,6.068,0.77,12.067,0.896,18.15
		c0.061,2.941-0.723,10.035,0.873,12.621c1.258,2.038,6.171,3.169,8.177,5.609c3.149,3.832,3.998,9.711,4.372,14.47
		c1.623,20.652,3.521,41.379,3.564,62.153c0.027,13.509-1.721,27.503-0.908,40.889c1.313,21.613,2.245,42.037,0.124,63.632
		c-0.259,2.638-1.93,6.571-0.588,8.939c2.089,3.688,8.448,3.19,11.892,3.543c10.474,1.073,20.726,0.911,31.182,0.795
		c4.897-0.055,14.831,1.67,18.642-2.025c8.302-8.05-0.628-21.839-6.151-28.065C458.341,309.844,455.085,300.346,450.175,288.951z"/>
</g>
<g>
	<path style="fill:#E0D4C1;" d="M116.05,151.673c-4.543,21.342-2.088,44.027-4.481,65.759c-1.156,10.502-0.055,21.102,0.007,31.625
		c0.067,11.438-0.539,22.857-0.45,34.319c0.144,18.343,2.949,36.87,2.14,55.173c-0.142,3.203,0.414,8.679-2.806,10.438
		c-0.715,0.391-6.194,0.583-6.939,0.293c-5.651-2.202-3.068-15.232-3.119-20.128c-0.135-12.99-0.899-26.033-0.894-39.018
		c0.011-23.478,0.252-47.044,2.236-70.444c1.241-14.648,1.699-29.385,3.074-43.975C105.551,167.959,104.191,151.024,116.05,151.673z
		"/>
	<path style="fill:#E0D4C1;" d="M388.719,152.119c2.291,5.037,0.773,16.219,0.904,22.061c0.194,8.653,1.071,17.269,0.882,25.928
		c-0.347,16.02-0.627,31.799-0.009,47.839c0.322,8.376,1.896,16.178,2.18,24.491c0.369,10.803-1.276,21.551-1.276,32.347
		c0,9.285,0.4,18.683-0.039,27.954c-0.142,3.014-2.413,15.426,1.371,16.524c11.055,3.209,8.349-30.959,8.489-34.836
		c1.676-46.514,0.931-92.978-1.751-139.434c-0.353-6.111,0.284-14.605-2.137-20.312
		C396.344,152.346,393.621,147.864,388.719,152.119z"/>
	<path style="fill:#E0D4C1;" d="M3.853,440.433c25.098,0.427,50.267-1.582,75.359-2.582c38.107-1.519,76.289,1.249,114.39,1.241
		c29.306-0.006,58.438-0.954,87.725-0.447c47.012,0.814,94.335,4.75,141.343,1.788c24.845-1.566,50.455-2.484,75.384-1.34
		c3.064,0.141,8.486-0.366,10.03,2.457c0.991,1.815-0.036,7.653-1.57,9.185c-4.063,4.055-18.266-0.048-23.782-0.022
		c-12.779,0.059-25.527-0.894-38.33-0.894c-17.987,0-35.938-0.87-53.916-0.098c-21.579,0.925-43.205,1.455-64.809,0.326
		c-31.458-1.644-63.15-2.016-94.74-2.016c-55.963,0-111.884,1.788-167.87,1.788c-16.257,0-32.347,0.61-48.603,0.447
		C7.791,450.201-1.563,444.728,3.853,440.433z"/>
	<path style="fill:#E0D4C1;" d="M16.162,425.673c0.444-1.616,4.603-2.414,8.092-2.573c17.267-0.785,34.459-1.324,51.766-0.585
		c24.963,1.067,49.857-2.645,74.808-1.773c22.743,0.795,45.484,1.74,68.24,2.102c9.432,0.151,17.96-1.849,27.141-2.079
		c11.578-0.292,23.199-0.134,34.776,0.067c30.955,0.536,61.871,2.419,92.829,2.805c29.461,0.368,58.427-2.064,87.933-1.046
		c6.765,0.234,13.517,0.598,20.263,0.956c3.018,0.16,7.625-0.305,10.413,0.871c7.826,3.303,0.91,5.536-3.656,5.758
		c-32.938,1.604-65.624,0.318-98.625,1.733c-21.579,0.925-43.205,1.456-64.809,0.326c-31.458-1.644-63.15-2.016-94.74-2.016
		c-55.963,0-111.884,1.788-167.87,1.788c-12.988,0-30.937,3.304-43-2.799C16.839,427.749,15.913,426.582,16.162,425.673z"/>
	<path style="fill:#E0D4C1;" d="M153.914,407.156c-1.379,1.503-1.794,3.644,0.229,5.462c2.103,1.891,6.052,0.396,8.388,0.527
		c15.836,0.888,31.253,0.709,47.132-0.206c13.524-0.778,27.408-1.124,40.91-0.231c13.966,0.923,28.06,0.295,42.026,1.463
		c13.936,1.165,28.5,1.888,42.52,1.248c4.724-0.216,22.526,1.925,25.663-2.471c5.797-8.126-9.325-7.569-12.441-7.827
		c-30.051-2.486-60.023-0.002-90.103,0c-25.094,0.002-50.203-0.166-75.282,0.463c-5.717,0.143-11.457,0.042-17.176,0.028
		c-2.766-0.007-7.712-1.041-10.248,0.302C154.923,406.237,154.365,406.662,153.914,407.156z"/>
	<path style="fill:#E0D4C1;" d="M182.206,394.393c23.937,0,47.866-0.16,71.831-0.393c14.699-0.143,29.377-1.023,44.064-1.541
		c7.313-0.258,14.676-0.588,21.994-0.389c3.153,0.086,12.412,0.498,9.181,5.266c-3.173,4.679-17.507,0.633-22.384,0.633
		c-24.693,0-49.556,1.592-74.168,0.546c-14.43-0.613-29.142,0.353-43.521,1.142C187.561,399.748,174.62,399.759,182.206,394.393z"/>
</g>
<path d="M222.003,333.097c3.453-0.816,5.88-4.567,7.338-7.516c1.633-3.304,2.832-7.091,1.355-10.644
	c-1.432-3.444-3.995-5.757-7.647-6.425c-5.295-0.967-8.076,1.654-9.932,6.325c-1.847,4.647-4.116,9.704-0.768,14.371
	C214.342,331.986,218.579,333.906,222.003,333.097z M218.247,312.912c0.084-0.053,0.164-0.111,0.251-0.161
	c1.732-0.978,4.957-0.588,6.518,0.824c2.648,2.397,2.387,5.739,0.983,8.675c-0.902,1.885-2.075,4.028-3.664,5.423
	c-2.403,2.107-5.974,0.375-7.329-2.14C213.068,321.935,215.47,316.492,218.247,312.912z"/>
<path d="M505.697,429.232c-2.182-0.195-4.419-0.141-6.661-0.026c0.394-3.109-0.544-6.848-1.072-9.266
	c-1.413-6.47-8.119-4.895-13.527-5.246c-1.296-0.084-2.584-0.139-3.873-0.181c0.248-0.676,0.402-1.425,0.497-2.263
	c0.593-5.177-0.206-10.823-0.258-16.037c-0.084-8.497,0.518-17.637-1.208-26.034c6.418-1.045,8.803-4.87,11.508-10.591
	c1.321-2.792,3.432-5.9,2.186-9.064c-1.409-3.578-4.96-3-8.265-3.031c-0.416-0.035-0.832-0.06-1.252-0.065
	c-1.181-0.014-2.347-0.026-3.503,0.003c-0.342-0.011-0.676-0.019-1.03-0.04c-0.826-0.045-1.648-0.102-2.471-0.157
	c0.393-8.021,1.242-16.144,0.341-24.108c-0.938-8.282-1.008-16.944-1.357-25.272c-0.699-16.729-0.904-33.469-1.297-50.251
	c-0.353-15.125-1.044-30.281-1.805-45.38c-0.421-8.345-1.629-16.626-1.776-25.007c-0.128-7.314,0.35-14.65-0.431-21.935
	c-0.738-6.88-3.165-11.646-6.773-17.44c-3.675-5.901-6.658-12.621-10.749-18.197c-9.194-12.533-18.63-25.102-27.949-37.526
	c-4.036-5.38-8.964-10.744-12.469-16.507c-3.315-5.449-3.435-8.289-10.289-7.633c-4.319,0.414-11.097-1.67-14.842,1.105
	c-4.685,3.471-0.459,9.059,0.108,13.34c1.738,13.144,2.21,26.23,3.196,39.392c0.552,7.367,1.168,14.741,1.87,22.078
	c0.452,4.724-0.025,9.189,0.695,13.644c-2.427,0.091-4.695,0.693-6.05,2.316c-2.809,3.367-1.405,10.383-1.441,14.464
	c-0.254,28.833,1.724,57.553,1.585,86.392c-0.079,16.359-0.219,32.72-0.187,49.079c0.012,6.525-1.046,12.961-0.468,19.498
	c-0.225,2.754-0.075,5.655-0.249,7.48c-0.325,3.409,0.178,6.744,0.033,10.164c-0.132,3.102-0.4,6.218-0.143,9.302
	c-0.629-0.001-1.257-0.003-1.886-0.005c-3.018-0.008-6.003-0.17-8.887,0.464c-1.964-0.514-4.523,1.041-3.837,3.618
	c1.86,6.988,5.463,14.597,11.309,19.115c0.885,0.684,1.812,1.199,2.767,1.609c-1.067,8.347-0.864,16.658-0.86,25.107
	c0.003,5.466-0.526,11.917,2.373,16.731c-1.995-0.043-3.987-0.137-5.974-0.333c-6.554-0.645-13.288-0.977-19.984-1.138
	c1.108-5.054,1.202-12.24-2.281-14.081c-3.068-1.623-8.864-0.417-12.167-0.453c-5.037-0.057-10.074-0.129-15.111-0.149
	c0.712-4.031,1.025-9.889-1.288-12.232c-1.803-1.827-5.173-1.004-7.355-0.962c-3.318,0.064-6.627-0.19-9.939-0.322
	c2.162-9.134,1.198-19.672,1.075-28.719c-0.159-11.775-1.859-23.958-4.338-35.457c-2.406-11.16-7.189-22.074-14.125-31.19
	c-2.993-3.933-6.415-7.435-10.538-10.161c-5.566-3.68-11.508-6.578-13.519-13.507c-0.089-0.304-0.214-0.558-0.353-0.789
	c4.296-1.114,8.236-3.604,10.533-7.091c2.145-3.256,3.503-7.075,3.886-10.957c0.287-2.904,0.422-7.626-1.225-10.169
	c-2.561-3.952-11.386-2.604-15.325-2.783c-0.018-0.001-0.039-0.002-0.057-0.003c0.992-1.878,1.576-4.012,2.557-5.913
	c1.313-2.544,3.006-4.859,4.314-7.409c0.801-1.561,1.725-3.484,1.819-5.344c3.416-0.084,7.404-0.407,9.073-3.806
	c1.537-3.129,2.531-9.189,0.128-12.128c-2.058-2.516-6-2.385-8.936-2.546c-4.019-0.22-8.267,0.238-12.39-0.056
	c-4.871-0.347-9.866,0.208-14.832,0.067c-5.703-0.162-11.414-0.324-17.114-0.011c-5.31,0.291-9.505,0.424-10.275,5.992
	c-0.698,5.044-0.62,10.164,5.076,11.722c1.826,0.5,3.648,0.721,5.465,0.765c0.093,1.86,1.017,3.782,1.818,5.344
	c1.308,2.55,3.002,4.866,4.314,7.409c0.981,1.901,1.565,4.034,2.557,5.913c-0.018,0.001-0.039,0.002-0.057,0.003
	c-4.972,0.226-14.54-1.653-16.275,4.443c-1.763,6.2,0.148,14.208,3.612,19.465c2.297,3.487,6.237,5.977,10.533,7.091
	c-0.14,0.232-0.265,0.485-0.353,0.789c-2.011,6.929-7.954,9.827-13.519,13.507c-4.122,2.725-7.544,6.227-10.538,10.161
	c-6.936,9.115-11.718,20.029-14.125,31.19c-2.48,11.499-4.179,23.682-4.338,35.458c-0.123,9.048-1.087,19.585,1.075,28.719
	c-3.312,0.133-6.62,0.386-9.939,0.322c-2.181-0.042-5.552-0.865-7.355,0.962c-2.313,2.344-2,8.202-1.288,12.232
	c-5.037,0.019-10.074,0.092-15.111,0.149c-3.303,0.037-9.099-1.17-12.167,0.453c-3.484,1.842-3.388,9.027-2.281,14.081
	c-6.697,0.16-13.43,0.493-19.984,1.138c-1.987,0.195-3.979,0.29-5.974,0.333c2.899-4.813,2.371-11.263,2.373-16.731
	c0.005-8.449,0.208-16.76-0.86-25.107c0.955-0.41,1.883-0.925,2.767-1.609c5.846-4.518,9.45-12.127,11.309-19.115
	c0.686-2.576-1.872-4.132-3.837-3.618c-2.883-0.635-5.868-0.472-8.887-0.464c-0.629,0.001-1.257,0.003-1.886,0.005
	c0.257-3.084-0.011-6.2-0.143-9.302c-0.145-3.42,0.358-6.755,0.033-10.164c-0.174-1.825-0.024-4.726-0.249-7.48
	c0.579-6.537-0.48-12.973-0.468-19.498c0.032-16.359-0.108-32.72-0.187-49.079c-0.14-28.837,1.84-57.559,1.585-86.392
	c-0.036-4.081,1.368-11.097-1.441-14.464c-1.355-1.624-3.625-2.224-6.05-2.316c0.72-4.455,0.243-8.921,0.695-13.644
	c0.702-7.337,1.318-14.711,1.87-22.078c0.987-13.162,1.458-26.248,3.196-39.392c0.565-4.281,4.793-9.869,0.108-13.34
	c-3.746-2.775-10.524-0.69-14.842-1.105c-6.854-0.657-6.974,2.184-10.289,7.633C96,71.376,91.071,76.74,87.035,82.12
	c-9.319,12.424-18.755,24.993-27.949,37.526c-4.091,5.575-7.073,12.295-10.749,18.197c-3.609,5.793-6.036,10.559-6.773,17.44
	c-0.781,7.284-0.303,14.621-0.431,21.935c-0.148,8.381-1.356,16.663-1.776,25.007c-0.762,15.099-1.451,30.255-1.805,45.38
	c-0.392,16.783-0.597,33.523-1.297,50.251c-0.349,8.328-0.419,16.99-1.357,25.272c-0.902,7.965-0.052,16.087,0.341,24.108
	c-0.823,0.055-1.646,0.111-2.471,0.157c-0.354,0.019-0.688,0.027-1.03,0.04c-1.156-0.03-2.322-0.016-3.503-0.003
	c-0.419,0.005-0.837,0.03-1.252,0.065c-3.305,0.031-6.857-0.548-8.265,3.031c-1.246,3.164,0.865,6.271,2.186,9.064
	c2.706,5.721,5.092,9.547,11.508,10.591c-1.726,8.397-1.123,17.538-1.208,26.034c-0.051,5.214-0.851,10.86-0.258,16.037
	c0.097,0.837,0.25,1.586,0.497,2.263c-1.288,0.043-2.578,0.096-3.873,0.181c-5.408,0.352-12.116-1.223-13.527,5.246
	c-0.528,2.418-1.466,6.156-1.072,9.266c-2.243-0.114-4.478-0.169-6.661,0.026c-7.367,0.66-6.478,10.065-6,15.509
	c0.692,7.886,4.994,9.075,12.315,9.015c10.104-0.083,20.138,0.51,30.238,0.077c22.298-0.956,44.72,1.329,66.975,0.27
	c11.188-0.533,22.433-0.09,33.635-0.589c9.765-0.435,19.94-0.96,29.657-0.276c5.44,0.382,10.874-0.31,16.317-0.294
	c6.768,0.018,13.535,0.019,20.303,0.031c11.621,0.017,23.438,0.534,35.029-0.66c5.831,0.203,11.648,0.526,17.483,0.539
	c3.65,0.009,7.3-0.019,10.951-0.049c9.655,0.552,19.417,0.184,29.043,0.169c6.768-0.01,13.535-0.011,20.303-0.031
	c5.444-0.016,10.876,0.676,16.317,0.294c9.718-0.682,19.892-0.159,29.656,0.276c11.202,0.5,22.447,0.058,33.635,0.589
	c22.254,1.058,44.677-1.227,66.975-0.27c10.099,0.433,20.134-0.16,30.238-0.077c7.321,0.06,11.623-1.129,12.315-9.015
	C512.175,439.298,513.065,429.892,505.697,429.232z M468.713,307.075c0.236,6.969,1.137,13.927,1.358,20.899
	c0.036,1.153,0.034,2.305,0.035,3.457c-2.759-0.36-6.678-0.907-7.617-1.044c-5.064-0.735-10.172-1.457-15.201-2.372
	c-5.772-1.05-11.625-1.808-17.349-3.103c-4.098-0.928-10.491-1.196-14.384-3.248c0.05-3.032,0.041-6.069,0.005-9.118
	c-0.043-3.626-0.153-7.233-0.287-10.835c2.484,0.123,5.457-0.619,7.18-0.762c5.421-0.45,10.846-0.584,16.245-1.054
	c9.708-0.847,20.033-0.655,29.565-3.007C468.437,300.287,468.598,303.682,468.713,307.075z M470.075,334.664
	c-0.082,4.005-0.273,8.012-0.366,12.016c-1.942-0.176-3.883-0.362-5.827-0.563c-5.575-0.577-11.319-0.349-16.921-0.262
	c-5.11,0.078-9.96-0.337-15.023-0.602c-4.827-0.253-10.316,0.279-15.147,0.76c-0.894,0.089-1.787,0.148-2.682,0.195
	c0.933-4.961,0.729-10.363,1.069-15.289c0.108-1.562,0.188-3.126,0.25-4.69c2.414,0.935,5.62,1.034,7.625,1.464
	c6.682,1.43,13.412,2.452,20.13,3.661c5.757,1.037,11.63,2.039,17.414,2.758C463.763,334.506,466.971,334.988,470.075,334.664z
	 M467.167,267.232c-0.033,8.676,0.442,17.339,0.902,25.988c-2.563-0.014-5.211,0.501-7.678,0.697
	c-5.948,0.474-11.863,0.73-17.799,1.143c-5.114,0.355-10.189,0.653-15.312,0.977c-3.11,0.196-6.215,0.563-9.328,0.698
	c-0.535,0.023-1.821,0.26-2.861,0.345c-0.068-1.673-0.139-3.343-0.206-5.016c0.051-7.232-0.094-14.465-0.322-21.689
	c4.675,0.128,9.669-2.11,14.089-3.293c5.462-1.461,11.005-2.685,16.481-4.18c7.189-1.963,15.274-3.792,21.987-7.474
	C467.159,259.361,467.183,263.294,467.167,267.232z M467.083,251.943c-0.9,0.137-1.817,0.261-2.47,0.464
	c-1.552,0.484-3.009,1.28-4.552,1.776c-4.937,1.587-10.097,2.882-15.118,4.268c-10.112,2.793-20.403,4.778-30.523,7.517
	c-0.115-3.146-0.242-6.291-0.377-9.433c-0.335-7.727-0.714-15.452-1.096-23.178c9.057-3.936,17.565-10.161,26.369-14.789
	c8.948-4.704,17.805-9.416,26-15.207C466.199,219.549,466.855,235.717,467.083,251.943z M463.802,161.02
	c0.232,7.343-0.164,14.674,0.305,22.013c0.359,5.616,0.694,11.226,1.011,16.833c-3.982,1.376-8.136,4.23-11.147,6.089
	c-4.577,2.825-9.542,5.222-14.338,7.744c-8.998,4.732-18.402,9.338-26.918,14.91c-0.468-9.437-0.932-18.876-1.329-28.32
	c2.509-1.35,4.891-4.974,6.384-6.397c5.239-4.999,9.891-10.474,14.789-15.788c5.927-6.432,12.164-12.98,18.427-19.071
	c3.413-3.319,7.432-6.874,10.129-11.06C462.872,152.03,463.649,156.213,463.802,161.02z M442.48,117.429
	c1.586,2.465,3.831,4.459,5.376,6.916c3.831,6.093,6.812,12.824,10.736,18.912c0.433,0.67,0.828,1.339,1.199,2.008
	c-3.535,3.949-7.516,7.689-11.38,11.196c-4.994,4.533-9.39,9.859-14.254,14.56c-4.805,4.644-9.351,9.577-13.909,14.439
	c-2.893,3.086-6.116,5.913-9.1,8.933c-0.224-5.789-0.421-11.58-0.565-17.376c-0.07-2.815-0.077-6.023-0.21-9.271
	c2.793-3.039,3.942-8.517,5.625-12.175c2.809-6.108,5.663-11.952,8.748-17.892c3.326-6.403,6.991-12.645,10.104-19.137
	c0.924-1.928,2.66-4.538,3.836-7.176C439.955,113.373,441.179,115.409,442.48,117.429z M392.165,64.489
	c0.715-0.717,6.679,0.351,7.823,0.308c0.717-0.027,1.56-0.206,2.297-0.208c2.849-0.006,2.363,0.018,4.137,2.326
	c1.637,2.129,3.056,4.389,4.77,6.489c8.474,10.374,15.521,21.777,23.709,32.446c0.51,0.664,0.981,1.347,1.457,2.026
	c-6.288,8.884-10.501,19.572-15.882,29.027c-3.927,6.897-7.854,14.221-11.058,21.679c-0.25-1.291-0.539-2.548-0.929-3.703
	c-1.136-3.372-3.961-5.528-7.329-6.352c-0.916-0.225-2.027-0.464-3.223-0.654c0.254-5.176,0.788-10.402,0.365-15.561
	c-0.542-6.593-0.973-13.231-1.468-19.84c-1.046-13.967-1.624-27.819-3.256-41.782C393.474,69.788,391.918,64.737,392.165,64.489z
	 M393.292,153.235c2.059-0.545,7.818,0.702,9.123,2.406c1.407,1.837,1.156,5.851,1.423,8.103c1.46,12.321,0.639,24.903,1.566,37.279
	c0.93,12.417,1.365,24.945,2.59,37.356c0.598,6.055,1.125,12.092,1.59,18.156c0.404,5.279,0.187,10.746,0.886,15.979
	c0.659,4.933,0.891,9.96,0.921,15.014c-0.433,2.483-0.63,5.025-0.46,7.842c0.099,1.625,0.173,3.244,0.232,4.86
	c-0.134,4.253-0.283,8.483-0.315,12.651c-0.028,3.742-0.193,7.464-0.386,11.181c-0.407,3.303-0.863,6.601-1.131,9.935
	c-0.294,3.663-1.859,8.561-0.913,12.331c-2.296-0.006-4.593-0.044-6.893-0.056c-2.824-0.015-5.648-0.016-8.472-0.022
	c0.117-1.087,0.174-2.201,0.199-3.323c0.086-0.29,0.146-0.598,0.146-0.949c-0.007-7.448,0.419-14.927-0.42-22.329
	c-0.82-7.232,0.413-14.505,0.383-21.753c-0.069-16.477-0.151-32.956-0.208-49.435c-0.09-25.965-1.927-51.861-1.851-77.812
	c0.01-3.519-0.001-7.036-0.053-10.555C391.207,157.208,390.1,154.08,393.292,153.235z M386.701,365.294
	c-0.548-0.346-1.096-0.777-1.648-1.307c-3.044-2.93-4.846-7.13-6.261-11.036c1.55,0.006,3.154-0.143,4.77-0.146
	c5.988-0.015,11.975-0.045,17.962-0.045c9.927,0,19.821-1.234,29.692-1.259c5.222-0.014,10.444,0.673,15.744,0.553
	c5.696-0.129,11.352-0.086,17.041,0.2c5.408,0.271,10.809,1.062,16.253,0.973c2.583-0.042,5.127-0.604,7.648-1.264
	c0.362,0.075,0.606,0.162,0.653,0.265c0.33,0.73-2.139,3.784-2.491,4.415c-1.106,1.981-1.929,4.79-3.786,6.235
	c-2.263,1.763-7.209,1.628-10.058,1.922c-2.972,0.308-5.966,0.564-8.948,0.726c-6.777,0.368-13.526,0.577-20.32,0.766
	c-12.572,0.352-25.529,1.884-38.111,0.695c-2.64-0.25-4.986-0.689-7.685-0.598C393.095,366.524,389.884,367.305,386.701,365.294z
	 M474.872,392.613c0.12,3.894-0.083,7.823-0.168,11.716c-0.043,1.956-0.275,3.996-0.127,5.941c0.177,2.323,0.581,1.306-1.005,1.949
	c-5.228,2.118-14.217,0.256-19.878,0.093c-6.323-0.182-12.594-0.081-18.909-0.141c-6.039-0.058-12.09-0.065-18.127,0.186
	c-3.288,0.136-6.595-0.187-9.88-0.074c-3.34,0.115-7.935,0.929-11.038-0.36c-6.567-2.728-4.187-15.492-4.183-21.134
	c0.002-4.292-0.219-8.641,0.049-12.922c0.118-1.896,0.431-3.707,0.594-5.522c3.504,0.16,7.146-0.235,10.601,0.044
	c7.945,0.64,16.606,0.754,24.59,0.404c4.104-0.179,7.996-0.791,12.162-0.73c4.903,0.073,9.798,0.344,14.704,0.305
	c7.086-0.056,14.258-0.71,21.317-1.627C474.23,377.88,474.65,385.428,474.872,392.613z M274.888,277.62
	c4.696,3.496,10.231,6.372,13.718,10.233c8.017,8.875,13.449,20.074,16.142,31.692c2.852,12.3,4.595,25.299,4.643,37.944
	c0.025,6.39,0.096,12.759-0.207,19.121c-0.111,2.336-0.308,4.433-0.1,6.507c-7.549-0.075-15.193,0.12-22.722,0.355
	c-2.008,0.062-4.069,0.058-6.152,0.053c0.007-0.131,0.005-0.267-0.002-0.4c0.559-4.334,0.082-8.915,0.05-13.249
	c-0.043-5.851-0.086-11.703-0.129-17.554c-0.076-10.268-1.139-20.129-2.213-30.32c-1.033-9.809-2.254-20.411-4.96-29.939
	c-1.142-4.022-3.365-7.731-5.656-11.2c-0.949-1.438-1.805-3.026-3.009-4.274C267.779,277.101,271.384,277.236,274.888,277.62z
	 M266.274,349.708c-0.324-2.14-0.656-4.66-2.808-5.683c-1.488-0.707-3.667-0.311-5.245-0.311c-2.587,0.001-5.239-0.302-7.815-0.015
	c-9.248,1.033-6.623,10.929-6.586,17.915c0.04,7.316,0.176,14.828,1.264,22.078c-0.709,0.06-1.417,0.115-2.125,0.182
	c-1.939-0.19-3.907-0.283-5.881-0.32c-0.01-0.067-0.009-0.129-0.024-0.199c-1.03-4.853-0.302-10.474-0.338-15.409
	c-0.041-5.583-0.084-11.168-0.124-16.751c-0.067-9.437,0.614-18.663,1.751-28.032c1.15-9.483,2.186-19.194,4.248-28.549
	c1.029-4.669,3.227-8.53,5.469-12.709c1.041-1.942,2.131-3.583,3.365-5.303c0.629-0.011,1.221-0.026,1.734-0.011
	c2.498,0.069,4.957,0.098,7.401-0.026c1.245,1.735,2.343,3.385,3.392,5.34c2.242,4.18,4.44,8.041,5.469,12.709
	c2.062,9.354,3.098,19.065,4.248,28.549c1.137,9.369,1.817,18.595,1.751,28.032c-0.04,5.584-0.083,11.168-0.124,16.751
	c-0.035,4.909,0.681,10.494-0.325,15.329c-2.628-0.254-5.354-0.077-7.944-0.106c-0.048-0.187-0.121-0.361-0.225-0.516
	c-0.886-5.018-0.041-10.99-0.086-16.036C266.664,361.056,267.107,355.215,266.274,349.708z M262.549,383.159
	c-4.129,0.019-8.268,0.112-12.387,0.223c-0.908,0.024-1.821,0.083-2.733,0.141c0.075-4.418-0.032-8.858-0.158-13.27
	c-0.112-3.969-0.278-7.896-0.257-11.872c0.01-1.927-0.277-4.408,0.036-6.308c0.632-3.844,1.882-5.01,6.015-4.991
	c1.865,0.009,4.384-0.166,6.134,0.285c2.59,0.668,2.737,0.467,3.432,3.622c0.85,3.862,0.137,8.666,0.104,12.625
	C262.686,369.696,261.534,377.048,262.549,383.159z M245.464,264.021c0.372,0.002,0.742-0.03,1.112-0.05
	c2.831,0.338,5.765,0.382,8.414,0.422c3.822,0.059,7.736,0.192,11.535-0.3c-0.171,0.458-0.244,0.979-0.154,1.559
	c0.441,2.857,1.691,5.227,3.411,7.298c-0.41-0.045-0.819-0.09-1.22-0.136c-1.84-0.211-3.604-0.525-5.297-0.571
	c-2.432-0.45-5.211-0.175-7.329-0.151c-2.134,0.024-4.331-0.057-6.467,0.15c-1.91-0.043-3.915,0.332-6.018,0.573
	c-0.401,0.045-0.81,0.091-1.22,0.136c1.721-2.071,2.972-4.441,3.411-7.298C245.737,265.043,245.655,264.496,245.464,264.021z
	 M228.64,207.44c0.417,0.276-1.131-5.365-0.595-6.299c0.839-1.463,11.619-1.289,13.938-1.506c1.258-0.118,2.651-0.161,4.058-0.262
	c1.981,0.248,4.013,0.296,5.859,0.408c4.917,0.296,10.418,0.763,15.348-0.326c0.964,0.055,1.905,0.099,2.78,0.181
	c3.459,0.324,6.95,0.121,10.412,0.508c1.402,0.157,3.51,0.226,4.09,1.776c0.619,1.654-0.52,4.343-1.821,5.371
	c-2.261,1.784-5.64,0.714-8.253,0.829c-2.831,0.125-5.609,0.445-8.377,0.845c-2.608-0.008-5.219-0.027-7.827,0.002
	c-0.518,0.006-1.466-0.057-2.246-0.001c-0.78-0.057-1.729,0.007-2.246,0.001c-2.608-0.03-5.218-0.01-7.827-0.002
	c-2.767-0.4-5.546-0.72-8.377-0.845C235.039,208.008,230.864,208.91,228.64,207.44z M238.984,215.066
	c-0.209-0.734-0.191-1.251-0.019-1.624c1.629-0.206,3.253-0.502,4.871-0.837c1.944-0.002,3.889-0.003,5.833-0.003
	c1.949,0,4.259,0.336,6.336,0.04c2.077,0.296,4.388-0.04,6.336-0.04c1.944,0,3.889,0.001,5.833,0.003
	c1.617,0.335,3.242,0.631,4.871,0.837c0.171,0.371,0.191,0.89-0.019,1.624c-1.301,4.555-7.635,10.426-7.258,15.77
	c-0.227,0.425-0.466,0.848-0.681,1.28c-2.978-0.192-6.22-0.313-9.083,0.223c-2.596-0.487-5.504-0.43-8.245-0.274
	c-0.419-0.95-0.992-1.875-1.505-2.666c-0.03-0.047-0.056-0.091-0.085-0.137C245.43,224.362,240.159,219.178,238.984,215.066z
	 M233.969,251.918c-2.379-3.211-2.397-6.964-2.972-10.794c-0.164-1.088-0.195-2.094-0.277-3.058c2.901,0.813,6.888,0.688,8.53,0.728
	c3.736,0.091,7.595-0.322,11.356-0.332c1.841-0.005,3.657,0.065,5.398-0.154c1.741,0.219,3.558,0.15,5.398,0.154
	c3.762,0.009,7.622,0.422,11.356,0.332c1.642-0.04,5.629,0.085,8.53-0.728c-0.083,0.965-0.115,1.97-0.277,3.058
	c-0.573,3.83-0.592,7.583-2.972,10.794c-2.752,3.715-7.008,5.257-11.536,5.234c-1.958-0.01-3.603-0.19-5.181-0.001
	c-3.313-0.56-6.903-0.164-10.3,0.048c-1.683-0.262-3.422-0.057-5.52-0.047C240.978,257.175,236.722,255.633,233.969,251.918z
	 M202.62,357.49c0.049-12.645,1.792-25.644,4.643-37.944c2.693-11.617,8.126-22.816,16.142-31.692
	c3.487-3.861,9.022-6.737,13.718-10.233c3.503-0.384,7.108-0.519,10.597-1.031c-1.204,1.248-2.06,2.837-3.009,4.274
	c-2.291,3.469-4.514,7.178-5.656,11.2c-2.706,9.528-3.925,20.13-4.96,29.939c-1.074,10.191-2.137,20.052-2.213,30.32
	c-0.043,5.851-0.086,11.703-0.129,17.554c-0.032,4.333-0.508,8.914,0.05,13.249c-0.007,0.132-0.009,0.269-0.002,0.4
	c-2.084,0.005-4.145,0.009-6.152-0.053c-7.53-0.235-15.173-0.43-22.722-0.355c0.208-2.073,0.011-4.171-0.1-6.507
	C202.525,370.248,202.596,363.879,202.62,357.49z M185.752,388.654c0.02-0.043,0.032-0.076,0.045-0.112
	c0.163,0.048,0.426,0.072,0.839,0.041c7.171-0.522,14.701-0.68,21.887-0.341c7.014,0.332,14.037,0.284,21.046,0.628
	c2.013,0.099,4.079,0.192,6.156,0.234c4.54,0.655,10.121-0.344,13.798-0.445c4.995-0.137,10.031-0.066,15.026-0.124
	c0.506-0.006,1.029,0,1.553,0.006c5.357,0.847,11.021,0.589,16.34,0.328c7.01-0.345,14.032-0.296,21.046-0.628
	c7.186-0.34,14.716-0.181,21.887,0.341c0.412,0.03,0.676,0.007,0.838-0.041c0.015,0.036,0.025,0.069,0.045,0.112
	c0.672,1.428,0.253,3.592,0.315,5.098c0.044,1.091,0.156,2.047,0.38,2.961c-9.915,0.01-19.8,0.123-29.705,0.385
	c-9.06,0.24-18.067,0.354-27.069,1.154c-5.534-0.517-11.201-0.094-16.714-0.05c-3.161,0.025-6.312,0.199-9.464,0.255
	c-9.726-0.989-19.452-1.1-29.241-1.359c-9.905-0.261-19.79-0.374-29.705-0.385c0.225-0.914,0.336-1.869,0.38-2.961
	C185.499,392.245,185.079,390.082,185.752,388.654z M155.518,402.417c0.389-0.595,6.794,0.002,7.723,0.01
	c9.706,0.083,19.408,0.181,29.115,0.181c8.814,0,17.662,0.091,26.463,0.473c5.632,0.244,11.357,0.011,17.063-0.332
	c5.203,1.865,12.786,0.625,17.585,0.648c6.86,0.034,14.376,0.653,21.215-0.737c6.185,0.388,12.403,0.685,18.512,0.42
	c8.801-0.383,17.649-0.473,26.463-0.473c9.706,0,19.408-0.098,29.115-0.181c0.929-0.008,7.333-0.605,7.723-0.01
	c0.061,0.094-0.336,4.183-0.318,4.885c0.04,1.517-0.008,2.785,0.098,4.01c-1.846-0.023-3.687-0.037-5.514-0.041
	c-11.581-0.023-23.191,0.271-34.733-0.369c-3.848-0.213-8.028-0.518-12.25-0.637c-16.114-1.235-32.703,0.891-48.844,0.727
	c-9.713-0.099-19.446-0.351-29.162-0.21c-1.793,0.026-3.693-0.031-5.629-0.096c-7.883-0.967-16.648-0.201-24.156,0.217
	c-11.542,0.64-23.152,0.346-34.733,0.369c-1.827,0.003-3.669,0.019-5.514,0.041c0.107-1.224,0.058-2.492,0.098-4.009
	C155.854,406.599,155.457,402.512,155.518,402.417z M120.762,160.098c-0.052,3.519-0.064,7.036-0.053,10.555
	c0.076,25.951-1.762,51.847-1.851,77.812c-0.057,16.479-0.137,32.956-0.208,49.434c-0.031,7.248,1.203,14.521,0.383,21.753
	c-0.839,7.401-0.413,14.881-0.42,22.329c0,0.351,0.061,0.66,0.146,0.949c0.026,1.122,0.082,2.236,0.199,3.323
	c-2.824,0.006-5.648,0.007-8.472,0.022c-2.299,0.011-4.597,0.051-6.893,0.056c0.946-3.77-0.619-8.667-0.913-12.331
	c-0.268-3.334-0.723-6.631-1.131-9.935c-0.193-3.718-0.358-7.44-0.386-11.181c-0.032-4.167-0.181-8.398-0.315-12.651
	c0.059-1.616,0.134-3.234,0.232-4.86c0.17-2.817-0.027-5.358-0.46-7.842c0.03-5.054,0.262-10.081,0.921-15.014
	c0.698-5.232,0.481-10.701,0.886-15.979c0.464-6.064,0.991-12.102,1.59-18.156c1.225-12.411,1.66-24.939,2.59-37.356
	c0.927-12.376,0.106-24.957,1.567-37.279c0.267-2.252,0.016-6.266,1.423-8.103c1.305-1.704,7.064-2.951,9.123-2.406
	C121.911,154.08,120.805,157.208,120.762,160.098z M77.11,105.849c8.188-10.669,15.235-22.072,23.709-32.446
	c1.715-2.1,3.133-4.359,4.77-6.489c1.774-2.307,1.289-2.331,4.138-2.326c0.737,0.001,1.579,0.181,2.297,0.208
	c1.145,0.043,7.107-1.023,7.823-0.308c0.248,0.248-1.308,5.299-1.414,6.198c-1.632,13.963-2.21,27.815-3.256,41.782
	c-0.495,6.609-0.927,13.247-1.468,19.84c-0.424,5.159,0.11,10.385,0.364,15.561c-1.196,0.19-2.306,0.43-3.223,0.654
	c-3.368,0.824-6.193,2.98-7.329,6.352c-0.389,1.156-0.679,2.412-0.929,3.703c-3.203-7.458-7.131-14.781-11.058-21.679
	c-5.382-9.455-9.595-20.143-15.882-29.027C76.129,107.196,76.6,106.513,77.11,105.849z M53.421,143.256
	c3.924-6.087,6.905-12.819,10.736-18.912c1.545-2.457,3.789-4.451,5.376-6.916c1.301-2.02,2.525-4.055,3.795-6.062
	c1.174,2.638,2.911,5.248,3.836,7.176c3.112,6.492,6.778,12.734,10.104,19.137c3.085,5.94,5.939,11.784,8.748,17.892
	c1.683,3.657,2.832,9.136,5.625,12.175c-0.133,3.249-0.14,6.457-0.21,9.271c-0.144,5.796-0.342,11.587-0.565,17.376
	c-2.984-3.02-6.207-5.846-9.1-8.933c-4.558-4.863-9.103-9.795-13.909-14.439c-4.865-4.701-9.261-10.027-14.254-14.56
	c-3.864-3.508-7.845-7.247-11.38-11.196C52.592,144.595,52.988,143.926,53.421,143.256z M47.906,183.033
	c0.469-7.339,0.073-14.67,0.305-22.013c0.152-4.808,0.929-8.99,2.688-13.045c2.697,4.186,6.715,7.74,10.129,11.06
	c6.263,6.091,12.5,12.639,18.427,19.071c4.897,5.314,9.55,10.79,14.789,15.788c1.493,1.424,3.873,5.046,6.384,6.397
	c-0.396,9.444-0.861,18.884-1.329,28.32c-8.515-5.572-17.921-10.18-26.918-14.91c-4.796-2.522-9.761-4.919-14.338-7.744
	c-3.01-1.858-7.165-4.711-11.147-6.089C47.212,194.259,47.547,188.649,47.906,183.033z M46.696,203.362
	c8.195,5.79,17.052,10.501,26,15.207c8.804,4.628,17.312,10.853,26.369,14.789c-0.383,7.726-0.761,15.451-1.096,23.178
	c-0.136,3.142-0.262,6.286-0.377,9.433c-10.12-2.739-20.411-4.724-30.523-7.517c-5.021-1.386-10.181-2.681-15.118-4.268
	c-1.543-0.496-3.001-1.292-4.552-1.776c-0.653-0.203-1.569-0.327-2.47-0.464C45.158,235.717,45.813,219.549,46.696,203.362z
	 M97.903,346.207c-0.895-0.048-1.788-0.107-2.682-0.195c-4.83-0.48-10.32-1.013-15.147-0.76c-5.064,0.266-9.913,0.681-15.023,0.602
	c-5.603-0.086-11.346-0.313-16.921,0.262c-1.944,0.201-3.885,0.387-5.827,0.563c-0.093-4.005-0.284-8.011-0.366-12.016
	c3.104,0.325,6.311-0.158,9.477-0.552c5.784-0.72,11.656-1.721,17.414-2.758c6.719-1.209,13.447-2.23,20.13-3.661
	c2.005-0.429,5.212-0.53,7.625-1.464c0.061,1.564,0.143,3.126,0.251,4.69C97.173,335.845,96.97,341.245,97.903,346.207z
	 M44.844,267.232c-0.015-3.939,0.008-7.871,0.048-11.803c6.713,3.682,14.799,5.511,21.987,7.474
	c5.475,1.495,11.019,2.718,16.481,4.18c4.421,1.183,9.415,3.421,14.089,3.293c-0.228,7.225-0.374,14.457-0.322,21.689
	c-0.067,1.671-0.137,3.343-0.206,5.016c-1.039-0.085-2.326-0.322-2.861-0.345c-3.114-0.135-6.218-0.502-9.328-0.698
	c-5.123-0.324-10.198-0.621-15.312-0.977c-5.935-0.412-11.851-0.67-17.799-1.143c-2.467-0.196-5.117-0.71-7.678-0.697
	C44.403,284.573,44.877,275.909,44.844,267.232z M41.942,327.974c0.22-6.972,1.122-13.932,1.358-20.899
	c0.115-3.393,0.276-6.788,0.451-10.187c9.533,2.352,19.858,2.161,29.565,3.007c5.398,0.471,10.825,0.605,16.245,1.054
	c1.723,0.143,4.695,0.885,7.18,0.762c-0.134,3.601-0.245,7.209-0.287,10.835c-0.036,3.048-0.045,6.085,0.005,9.118
	c-3.894,2.052-10.285,2.321-14.384,3.248c-5.724,1.294-11.577,2.052-17.349,3.103c-5.029,0.915-10.137,1.637-15.201,2.372
	c-0.938,0.136-4.858,0.684-7.617,1.044C41.907,330.279,41.904,329.127,41.942,327.974z M29.734,362.878
	c-1.857-1.447-2.68-4.255-3.786-6.235c-0.353-0.631-2.822-3.685-2.491-4.415c0.047-0.102,0.292-0.19,0.653-0.265
	c2.521,0.66,5.063,1.222,7.648,1.264c5.443,0.089,10.843-0.702,16.253-0.973c5.689-0.285,11.345-0.329,17.041-0.2
	c5.299,0.12,10.522-0.567,15.743-0.553c9.871,0.025,19.766,1.259,29.692,1.259c5.988,0,11.975,0.031,17.962,0.045
	c1.616,0.003,3.221,0.152,4.77,0.146c-1.684,4.651-4.304,9.422-8.092,12.064c-2.675,1.866-7.281,1.474-10.271,1.374
	c-2.699-0.09-5.045,0.35-7.685,0.598c-12.583,1.189-25.539-0.343-38.111-0.695c-6.794-0.19-13.543-0.399-20.32-0.766
	c-2.983-0.162-5.976-0.418-8.948-0.726C36.943,364.505,31.998,364.641,29.734,362.878z M37.309,404.33
	c-0.085-3.894-0.288-7.823-0.168-11.716c0.221-7.184,0.642-14.733-0.701-21.872c7.059,0.918,14.231,1.572,21.317,1.627
	c4.905,0.039,9.801-0.233,14.704-0.305c4.167-0.062,8.059,0.55,12.162,0.73c7.984,0.35,16.644,0.236,24.59-0.404
	c3.454-0.278,7.097,0.117,10.6-0.044c0.162,1.815,0.476,3.626,0.594,5.522c0.268,4.282,0.047,8.63,0.049,12.922
	c0.003,5.642,2.383,18.407-4.183,21.134c-3.103,1.289-7.7,0.475-11.038,0.36c-3.286-0.112-6.592,0.21-9.88,0.074
	c-6.036-0.25-12.089-0.243-18.127-0.186c-6.315,0.06-12.586-0.041-18.909,0.141c-5.661,0.162-14.649,2.025-19.878-0.093
	c-1.587-0.643-1.183,0.375-1.005-1.949C37.584,408.325,37.351,406.286,37.309,404.33z M19.484,424.946
	c0.04-1.214,0.33-2.472,0.304-3.671c-0.042-1.991-0.577-0.887,0.759-0.846c2.111,0.065,4.482-0.343,6.604-0.546
	c4.022-0.385,8.021-0.621,12.006-0.975c5.572,0.774,12.103-0.347,17.152-0.414c7.858-0.103,15.658-0.301,23.516-0.235
	c7.386,0.062,14.793,0.328,22.191,0.249c4.767-0.051,10.793,1.007,15.728-0.376c4.397,0.221,8.831,0.305,13.188-0.039
	c4.918-0.388,10.128-0.217,15.073-0.211c5.683,0.007,11.305-0.321,16.99-0.312c11.049,0.018,21.974-0.295,32.991-1.037
	c5.247-0.353,10.567-0.352,15.856-0.628c3.736,0.463,7.802,0.17,10.782,0.213c10.518,0.153,21.043,0.333,31.558,0.589
	c14.998,0.366,30.712,0.513,45.939-0.806c5.305,0.279,10.642,0.277,15.906,0.631c11.016,0.74,21.941,1.055,32.991,1.037
	c5.683-0.009,11.306,0.319,16.99,0.312c4.944-0.006,10.154-0.178,15.073,0.211c4.358,0.344,8.791,0.261,13.188,0.039
	c4.935,1.382,10.961,0.324,15.728,0.376c7.398,0.079,14.805-0.186,22.191-0.249c7.859-0.066,15.659,0.132,23.516,0.235
	c5.048,0.067,11.58,1.188,17.152,0.414c3.984,0.354,7.984,0.59,12.006,0.975c2.122,0.203,4.493,0.611,6.604,0.546
	c1.335-0.041,0.801-1.146,0.759,0.846c-0.025,1.199,0.265,2.457,0.304,3.671c0.111,3.403-0.194,2.68-3.204,2.649
	c-16.97-0.174-34.02,1.443-50.995,1.573c-19.158,0.146-38.322-0.471-57.481-0.509c-35.454-0.068-71.043-4.061-106.485-2.162
	c-0.677,0.036-1.216,0.261-1.628,0.594c-4.626-0.254-9.254-0.529-13.875-0.456c-6.703,0.104-13.415-0.059-20.113,0.126
	c-0.317-0.145-0.681-0.241-1.099-0.263c-35.442-1.899-71.031,2.093-106.485,2.162c-19.158,0.037-38.322,0.655-57.481,0.509
	c-16.975-0.129-34.024-1.746-50.995-1.573C19.678,427.626,19.372,428.35,19.484,424.946z M505.695,441.417
	c-0.104,2.188,0.05,4.955-1.796,6.131c-2.513,1.6-8.867,0.327-11.717,0.304c-4.874-0.039-9.667,0.617-14.535,0.469
	c-4.148-0.126-8.289-0.424-12.436-0.52c-9.947-0.233-19.916-0.108-29.866-0.143c-19.523-0.069-38.942,0.036-58.461-0.479
	c-17.764-0.47-35.51-0.882-53.238-0.886c-19.204-0.003-39.177-1.533-58.293,0.835c-0.686,0.008-1.372,0.015-2.052,0.016
	c-6.82,0.008-13.593-0.388-20.409-0.434c-17.962-1.757-36.581-0.421-54.526-0.418c-17.729,0.003-35.475,0.416-53.238,0.886
	c-19.518,0.517-38.939,0.41-58.461,0.479c-9.95,0.035-19.919-0.09-29.866,0.143c-4.147,0.097-8.288,0.394-12.436,0.52
	c-4.868,0.148-9.661-0.508-14.535-0.469c-2.85,0.023-9.204,1.296-11.717-0.304c-1.846-1.175-1.692-3.944-1.796-6.131
	c-0.058-1.216-0.656-5.318,0.175-6.282c0.657-0.762,6.159-0.05,7.473-0.104c1.976-0.081,3.988-0.166,5.949-0.418
	c2.521-0.324,5.025-0.684,7.515-1.132c4.743,0.039,9.464,0.375,14.215,0.372c21.646-0.012,43.231,0.76,64.902,0.484
	c20.138-0.257,40.761,1.221,60.81-0.652c5.58-0.521,11.097-0.291,16.687-0.424c5.512-0.131,11.014-0.743,16.525-0.705
	c7.879,0.055,15.813,0.006,23.729-0.194c2.337,0.149,4.623,0.136,6.454,0.209c8.485,0.337,17.122-0.062,25.626-0.109
	c13.667-0.075,27.185,1.545,40.754,0.067c4.782,0.048,9.56,0.06,14.317,0.027c5.511-0.037,11.013,0.573,16.525,0.705
	c5.59,0.133,11.106-0.098,16.688,0.424c20.049,1.872,40.672,0.395,60.81,0.652c21.671,0.277,43.256-0.496,64.902-0.484
	c4.75,0.002,9.472-0.334,14.215-0.372c2.489,0.448,4.994,0.808,7.514,1.132c1.961,0.251,3.973,0.337,5.949,0.418
	c1.314,0.053,6.815-0.659,7.472,0.104C506.351,436.099,505.753,440.2,505.695,441.417z"/>
<path d="M290.009,333.097c3.425,0.81,7.661-1.111,9.655-3.89c3.413-4.757,1.104-9.839-0.983-14.604
	c-1.866-4.256-4.796-6.99-9.717-6.092c-3.652,0.667-6.214,2.98-7.647,6.425c-1.477,3.554-0.278,7.34,1.355,10.644
	C284.129,328.531,286.556,332.28,290.009,333.097z M286.997,313.576c1.561-1.414,4.786-1.802,6.518-0.824
	c0.089,0.05,0.167,0.108,0.251,0.161c2.777,3.579,5.179,9.022,3.242,12.62c-1.355,2.516-4.927,4.249-7.329,2.14
	c-1.59-1.396-2.763-3.538-3.664-5.423C284.61,319.314,284.349,315.972,286.997,313.576z"/>
<path d="M262.061,307.326c-6.244-4.727-15.864,0.085-17.921,7.061c-0.028,0.096-0.023,0.183-0.027,0.271
	c-1.696,3.393-2.214,7.274-0.729,10.383c3.748,7.844,14.751,9.839,21.126,3.966C270.121,323.84,267.779,311.655,262.061,307.326z
	 M262.004,325.137c-3.768,4.903-11.763,3.91-14.879-1.22c-2.073-3.413-1.062-8.242,1.518-11.629
	c2.848-2.666,6.896-4.455,10.458-2.277C263.274,312.562,264.884,321.39,262.004,325.137z"/>
<g>
</g>
<g>
</g>
<g>
</g>
<g>
</g>
<g>
</g>
<g>
</g>
<g>
</g>
<g>
</g>
<g>
</g>
<g>
</g>
<g>
</g>
<g>
</g>
<g>
</g>
<g>
</g>
<g>
</g>
</svg>
