<?xml version="1.0" encoding="iso-8859-1"?>
<!-- Generator: Adobe Illustrator 19.0.0, SVG Export Plug-In . SVG Version: 6.00 Build 0)  -->
<svg version="1.1" id="Layer_1" xmlns="http://www.w3.org/2000/svg" xmlns:xlink="http://www.w3.org/1999/xlink" x="0px" y="0px"
	 viewBox="0 0 511.996 511.996" style="enable-background:new 0 0 511.996 511.996;" xml:space="preserve">
<path style="fill:#B6BBCE;" d="M444.005,497.779c-2.893-0.625-5.886,0.02-8.841,0.169c-2.956,0.15-6.254-0.37-8.12-2.667
	c-1.327-1.633-1.682-3.882-2.964-5.551c-4.729-6.156-16.426,0.337-21.745-5.317c-1.192-1.269-1.839-2.987-3.092-4.196
	c-4.669-4.502-12.751,1.13-18.812-1.176c-4.503-1.712-6.831-7.476-11.574-8.318c-2.776-0.494-5.55,0.906-8.369,0.886
	c-3.497-0.025-6.555-2.18-9.627-3.85c-6.79-3.695-14.712-5.276-22.4-4.474c-2.825,0.294-6.714,0.204-7.255-2.584
	c-0.23-1.183,0.349-2.357,0.911-3.424c2.361-4.485,7.093-10.452,7.855-15.468c0.695-4.574-0.895-10.453-1.251-15.09
	c-1.756-22.947-3.567-45.891-5.456-68.828c-4.299-52.2-8.982-104.373-12.883-156.604c-1.791-23.971-3.33-47.963-4.569-71.97
	c-0.316-6.113-0.494-12.233-0.725-18.35c-0.206-5.46,0.196-11.415-1.631-16.618c-1.633-4.652-1.381-7.481-0.664-12.454
	c0.626-4.352,0.909-9.695-2.757-12.882c-1.173-1.019-2.634-1.66-3.823-2.661c-4.992-4.206-0.622-10.986,2.088-14.999
	c4.487-6.645,2.039-13.256,1.253-20.663c-0.433-4.086,1.161-8.103,0.262-12.228c-0.74-3.396-3.455-6.627-6.927-6.768
	c-3.218-0.131-6.07,2.453-7.193,5.47c-1.124,3.019-0.864,6.366-0.36,9.547c0.503,3.181,1.238,6.373,1.01,9.585
	c-0.311,4.388-2.379,8.422-4.05,12.492c-2.975,7.24-1.453,12.621-0.479,20.003c0.163,1.238,0.315,2.558-0.219,3.685
	c-0.827,1.748-2.999,2.41-4.931,2.423c-3.947,0.029-7.855-1.959-10.157-5.164c-4.313-6.004-1.135-15.025-1.36-21.909
	c-0.421-12.829,0.159-25.67-1.018-38.407c-0.131-1.414-0.355-2.895-1.22-4.023c-1.594-2.082-4.638-2.183-7.259-2.096
	c-2.015,0.067-4.285,0.253-5.573,1.804c-0.936,1.128-1.091,2.692-1.207,4.153c-0.867,11.004-0.105,21.747-0.299,32.796
	c-0.094,5.373-0.793,11.017-0.438,16.368c0.285,4.29,1.922,7.931-1.01,11.9c-2.178,2.949-6.121,4.516-9.707,3.753
	c-3.148-0.67-5.872-3.114-6.808-6.194c-1.335-4.397,0.878-9.054,0.867-13.651c-0.012-4.748-2.375-9.115-4.19-13.502
	c-3.278-7.922-0.93-15.786-1.13-24.092c-0.045-1.872-0.309-4.063-1.926-5.009c-1.031-0.603-2.314-0.494-3.502-0.366
	c-1.532,0.165-3.141,0.358-4.392,1.258c-2.013,1.447-2.466,4.205-2.715,6.672c-0.613,6.061-1.232,12.134-1.302,18.23
	c-0.054,4.578-1.029,11.551,1.923,15.322c1.552,1.984,3.546,3.994,3.492,6.512c-0.036,1.729-1.025,3.178-2.143,4.558
	c-0.507,0.627-1.04,1.24-1.521,1.86c-3.039,3.906-4.357,8.93-4.581,13.874c-0.28,6.168,0.576,11.679-0.271,17.779
	c-1.08,7.783-0.574,16.077-0.887,23.936c-0.649,16.218-1.531,32.427-2.802,48.608c-4.165,53.016-9.135,105.969-13.679,158.956
	c-1.967,22.938-3.926,45.881-5.476,68.85c-0.698,10.339-1.812,20.653-2.132,31.016c-0.26,8.44-1.94,16.469,4.031,23.556
	c1.824,2.165,4.294,4.626,3.445,7.327c-0.887,2.823-4.619,3.335-7.575,3.186c-4.113-0.207-8.233-0.687-12.338-0.362
	c-3.741,0.294-8.054,1.318-10.941,3.885c-2.379,2.114-3.225,5.258-6.734,5.976c-2.717,0.556-5.506-0.18-8.253-0.56
	c-2.747-0.379-5.83-0.302-7.913,1.53c-1.323,1.164-2.046,2.878-3.3,4.117c-3.005,2.971-7.884,2.383-12.065,1.771
	c-3.306-0.484-7.41-0.793-10.259,1.323c-2.708,2.013-2.201,6.225-5.468,7.56c-2.069,0.845-4.412,0.446-6.599-0.006
	c-2.188-0.452-4.494-0.938-6.617-0.243c-4.125,1.349-5.797,6.447-9.546,8.635c-2.866,1.673-6.431,1.368-9.72,0.926
	c-3.288-0.44-6.784-0.936-9.804,0.436c-3.02,1.374-5.041,5.454-3.069,8.121c1.502,2.033,4.398,2.273,6.925,2.331
	c24.242,0.564,48.145,1.143,72.361,0.328c24.706-0.832,49.418-1.495,74.133-1.988c4.202-0.083,8.403-0.163,12.605-0.237
	c48.931-0.862,97.946,0.925,146.89,1.686c21.566,0.335,43.132,0.67,64.698,1.005c2.115,0.033,4.286,0.056,6.27-0.676
	c1.984-0.733,3.768-2.404,3.997-4.507C449.716,500.876,446.897,498.405,444.005,497.779z M225.914,96.626
	c0.159-1.402,1.709-1.778,2.49-1.037c1.76-1.856,4.496-2.924,6.979-2.267c2.953,0.781,4.687,3.648,5.504,6.467
	c0.477,0.397,0.836,0.993,0.967,1.685c0.658,3.478-0.467,8.529-2.056,11.631c-1.112,2.172-2.823,3.362-4.539,3.082
	c-1.496,0.918-3.236,1.337-5.194,0.986C220.271,115.423,225.214,102.813,225.914,96.626z M246.269,160.602
	c-0.126,0.521-0.517,0.845-0.971,0.974c1.289,27.956,0.534,56.059-0.263,83.996c-0.459,16.068-0.849,32.14-0.693,48.215
	c0.075,7.788,0.54,15.558,0.645,23.342c0.038,2.854,0.047,5.711,0.008,8.566c-0.011,0.786,0.091,1.699-0.044,2.476
	c-0.007,0.452,0.008,0.903,0.033,1.353c0.361,0.475,0.529,1.09,0.329,1.754c-0.349,1.163-0.787,1.83-1.963,2.225
	c-0.026,0.008-0.052,0.01-0.079,0.018c-0.585,10.812,0.051,21.727,0.13,32.527c0.074,10.147,1.616,21.357-2.989,30.796
	c-0.537,1.099-1.916,1.442-3.009,1.225c-8.198-1.622-29.01,4.479-27.883-9.263c0.504-6.145,2.698-12.021,4.065-17.993
	c2.239-9.783,2.606-20.132,3.61-30.101c2.346-23.294,3.322-46.66,4.143-70.049c0.836-23.822,1.841-47.593,3.943-71.342
	c1.775-20.053,0.482-40.715,4.67-60.501c-0.101-0.517,0.018-0.974,0.302-1.376c0.1-0.446,0.187-0.893,0.293-1.338
	c0.558-2.333,3.191-2.186,4.32-0.706c2.971-0.508,6.41-0.371,7.67,0.231c2.77,1.322,3.688,6.483,4.121,9.081
	C247.515,149.866,247.506,155.516,246.269,160.602z M269.715,96.502c1.065-2.221,2.989-4.007,5.468-4.425
	c8.089-1.36,13.086,5.579,12.764,13.002c-0.314,7.261-6.411,15.103-14.421,11.866c-7.588-3.067-4.53-13.038-5.531-19.218
	C267.802,96.549,268.941,96.011,269.715,96.502z M299.67,388.847c-2.637,9.443-22.853,15.132-27.327,4.679
	c-2.381-5.564-1.384-12.344-1.53-18.23c-0.302-12.245-0.773-24.488-1.217-36.728c-0.893-24.566-1.909-49.128-2.689-73.698
	c-0.771-24.291-2.457-48.684-1.333-72.987c0.801-17.293-2.955-36.052,2.653-52.803c-0.461-0.951-0.444-2.128,0.478-3.117
	c8.579-9.203,14.008,1.065,15.493,9.491c1.91,10.843,1.667,21.99,2.29,32.952c2.786,48.988,7.38,97.841,10.069,146.842
	c0.653,11.917,1.288,23.822,2.265,35.718c0.467,5.683,0.707,11.372,1.092,17.058C300.16,381.625,300.659,385.308,299.67,388.847z"/>
<g>
	<path style="fill:#8A92A8;" d="M255.996,3.824c-2.286,8.143-1.471,18.909-1.819,27.47c-0.352,8.653-0.405,17.721,0.031,26.368
		c0.281,5.582,3.102,18.986-5.858,18.813c-1.265-16.522,0.942-33.704,1.684-50.178c0.225-5.007-1.074-10.905-0.618-15.618
		C249.716,7.589,254.613-1.348,255.996,3.824z"/>
	<path style="fill:#8A92A8;" d="M242.285,133.19c19.817-2.515,12.325,41.445,11.906,50.622c-1.657,36.299,0.64,72.205,0.613,108.445
		c-0.021,28.72,0.589,57.646-0.729,86.25c-0.926,20.092-2.468,40.223-2.252,60.344c0.046,4.292,1.408,9.044-2.387,11.493
		c-1.968,1.27-9.434,1.198-11.031-0.569c-3.51-3.883,0.694-18.939,1.363-23.902c1.16-8.605,1.865-17.188,2.485-25.87
		c1.527-21.378,0.755-43.183,2.474-64.729c1.87-23.421-1.177-46.502-0.07-69.921c1.053-22.29,0.653-44.852,1.669-67.197
		C247.235,178.166,250.652,154.974,242.285,133.19z"/>
	<path style="fill:#8A92A8;" d="M286.4,138.555c0,65.458,5.34,130.524,11.327,195.405c1.827,19.802,2.487,39.954,2.958,59.5
		c0.114,4.761-0.738,7.134,4.661,6.342c7.628-1.117,4.491-14.657,4.185-20.985c-1.933-39.944-5.539-79.767-6.986-119.778
		c-0.785-21.7-0.833-43.252-2.598-64.921c-1.159-14.227-3.588-28.27-5.2-42.446c-0.447-3.933-0.223-16.651-4.028-19.24
		C284.167,127.97,285.178,139.898,286.4,138.555z"/>
	<path style="fill:#8A92A8;" d="M275.821,486.142c-10.848-0.479-25.079-1.484-31.058-12.06c-2.076-3.671-2.137-7.399-2.153-11.186
		c11.741,1.021,23.907-0.302,35.797-0.151c11.135,0.141,27.583,3.662,37.22-2.264c4.053-2.492,10.305-8.682,4.767-11.939
		c-2.222-1.307-8.155,0.494-10.545,0.608c-5.56,0.267-11.049,0.148-16.589,0.614c-17.615,1.482-35.587,0.593-53.334,0.39
		c-0.913-1.741-1.817-3.476-2.158-5.506c-1.506-8.961,6.923-21.304-0.702-29.072c-3.095-3.154-8.588-3.629-12.633-5.026
		c-6.572-2.269-13.836-5.17-18.73-9.927c-8.078-7.853-6.239-20.989-5.311-31.343c1.529-17.043,4.063-33.735,4.898-50.851
		c1.715-35.19,4.924-70.059,7.947-105.153c1.165-13.536,2.342-27.077,3.397-40.633c0.723-9.283,1.372-18.725,1.297-28.001
		c-0.049-6.019,0.895-12.029,1.397-18.08c0.18-2.172,0.304-4.35,0.303-6.534c-0.001-8.262-0.77-16.374-1.19-24.542
		c-0.336-6.535-1.933-13.034,2.085-18.034c4.128-5.134,9.776-7.677,10.976-14.973c1.136-6.907-3.776-10.458-5.364-16.602
		c-2.363-9.145,1.63-17.707,0.675-26.417c-0.677-6.173-5.17-10.31-10.891-5.661c-7.05,5.728-5.503,23.84-4.638,32.221
		c0.837,8.13,10.54,11.034,5.989,19.228c-3.497,6.299-7.324,7.244-7.8,14.934c-0.936,15.13-1.853,31.097-0.911,46.232
		c0.732,11.776-0.969,22.944-1.482,34.8c-0.806,18.657-2.351,36.944-5.2,55.438c-6.605,42.879-5.206,86.736-9.821,129.921
		c-1.694,15.848-2.523,31.837-4.009,47.73c-1.252,13.391-1.058,26.77-2.76,40.132c-0.662,5.193-2.24,12.821,1.015,17.145
		c0.613,0.814,2.028,1.679,3.594,2.64c0.706,1.536,2.523,2.617,4.652,3.375c1.242,1.284,1.902,2.733,1.209,4.402
		c-1.492,3.596-19.106,2.796-22.927,2.955c-7.794,0.324-12.77,0.969-14.576,8.936c-1.573,6.933-4.299,24.018,2.326,28.786
		c4.1,2.952,14.283,1.34,18.811,1.325c11.167-0.038,22.071,1.841,33.337,1.794c19.373-0.081,38.632-0.553,58.007-0.602
		c18.83-0.048,37.752,1.005,56.517-0.581c5.5-0.465,27.523,0.082,27.698-7.767C355.314,480.746,286.706,486.623,275.821,486.142z"/>
	<path style="fill:#8A92A8;" d="M154.054,473.594c-15.171,11.402-34.78,20.806-53.745,24.471c-9.33,1.803-18.323-0.168-27.465,0.568
		c-3.806,0.306-10.138,0.761-10,5.662c0.235,8.303,18.592,4.707,23.4,4.503c13.361-0.566,26.606-1.067,40.028-1.226
		c7.266-0.086,19.952,0.274,26.764-2.416c6.015-2.375,1.92-6.142,0.407-12.473c-1.818-7.608,5.823-15.25,3.662-21.416
		C156.057,471.561,154.411,471.432,154.054,473.594z"/>
	<path style="fill:#8A92A8;" d="M357.342,495.652c26.467,0.063,52.971,2.06,79.452,2.981c1.957,0.068,10.35-0.306,11.652,1.313
		c1.886,2.348-0.458,6.592-2.569,7.656c-5.606,2.825-18.457-1.054-24.312-1.241c-10.339-0.331-20.668-0.676-30.968-1.201
		c-5.008-0.255-36.561,3.064-33.727-5.871C358.65,500.271,360.866,500.018,357.342,495.652z"/>
</g>
<g>
	<path style="fill:#5A657A;" d="M217.246,418.748c-0.368,4.37-3.08,12.404-1.192,16.692c1.192,2.71,7.222,5.716,10.312,2.562
		c1.618-1.651,2.141-14.079,1.476-16.274c-1.358-4.483-10.482-5.43-11.192,0.596"/>
	<path style="fill:#5A657A;" d="M284.015,421.728c1.691,5.265,0.246,11.286,1.89,16.589c9.668,4.946,9.541-4.905,8.891-10.924
		c-0.913-8.464,0.429-10.913-9.486-9.15c-0.543,1.394-0.996,3.192-0.7,4.677"/>
</g>
<path d="M222.738,117.845c2.959,2.404,8.691,2.666,12.352,2.724c4.813,0.076,7.82-1.371,9.609-6.057
	c2.134-5.592,2.734-12.494,1.141-18.307c-1.171-4.271-3.984-5.482-8.192-5.549c-3.689-0.058-11.273-1.536-14.03,1.612
	c-1.145,1.307-1.614,3.594-1.65,5.965c-0.506,2.128-0.781,4.341-0.963,6.743C220.705,108.898,219.211,114.98,222.738,117.845z
	 M226.205,106.273c-0.07-1.277,0.002-2.651,0.092-4.054c0.321-1.413,0.49-2.835,0.874-4.341c0.526-2.065-0.005-1.947,2.18-2.273
	c1.582-0.236,3.455,0.073,5.084,0.089c2.345,0.024,4.919-0.631,6.25,1.932c1.019,1.961,0.433,5.999,0.172,7.943
	c-0.506,3.765-0.497,8.527-5.017,9.215c-2.015,0.308-5.855-0.063-7.868-0.8C224.89,112.858,226.363,109.122,226.205,106.273z"/>
<path d="M216.665,439.475c2.608,1.343,7.651,2.252,10.201,0.273c2.983-2.315,2.202-8.866,2.177-12.209
	c-0.02-2.78,1.366-8.519-1.844-10.127c-1.242-0.622-3.17-0.86-4.488-1.273c-1.515-0.477-2.881-0.805-4.422-0.16
	c-2.808,1.176-3.254,4.319-3.416,7.031c-0.216,3.62-1.222,7.791-0.748,11.53C214.134,436.57,214.58,438.402,216.665,439.475z
	 M218.295,422.574c0.212-1.086-0.075-1.558,0.982-2.176c0.943-0.551,1.968-0.759,2.957-0.399c0.743,0.269,1.723,0.242,2.379,0.728
	c1.259,0.932,0.61,5.066,0.63,6.81c0.023,2.053,0.839,8.291-1.29,9.603c-0.838,0.516-4.425,0.011-5.275-0.551
	c-0.686-0.453-1.009-0.926-1.164-1.443C218.312,431.129,217.508,426.597,218.295,422.574z"/>
<path d="M276.903,120.569c3.66-0.058,9.392-0.321,12.352-2.724c3.527-2.865,2.033-8.947,1.735-12.869
	c-0.182-2.402-0.457-4.614-0.963-6.743c-0.036-2.371-0.506-4.658-1.65-5.965c-2.757-3.148-10.341-1.67-14.03-1.612
	c-4.209,0.067-7.022,1.278-8.192,5.549c-1.593,5.813-0.993,12.715,1.141,18.307C269.083,119.197,272.09,120.644,276.903,120.569z
	 M271.309,97.627c1.332-2.562,3.905-1.908,6.25-1.932c1.629-0.017,3.502-0.326,5.084-0.089c2.185,0.326,1.655,0.207,2.18,2.273
	c0.383,1.505,0.553,2.928,0.874,4.341c0.089,1.403,0.162,2.777,0.092,4.054c-0.157,2.847,1.315,6.584-1.767,7.712
	c-2.013,0.736-5.852,1.106-7.868,0.8c-4.52-0.689-4.512-5.45-5.017-9.215C270.876,103.624,270.29,99.588,271.309,97.627z"/>
<path d="M451.74,498.048c-3.292-4.228-12.478-3.229-17.057-3.62c-2.99-0.254-6.392,0.504-7.225-2.126
	c-0.562-1.768,0.252-3.247-1.402-4.749c-2.314-2.104-6.886-1.592-9.717-1.994c-1.866-0.265-3.604-0.662-5.497-0.707
	c-1.483-0.036-3.846,0.646-5.235,0.167c-1.633-0.564-0.646,0.186-1.132-1.587c-0.171-0.625,0.049-1.473-0.108-2.141
	c-0.233-0.986-0.411-1.68-1.168-2.491c-1.557-1.668-3.644-1.325-5.716-1.383c-5.842-0.166-11.996-0.522-17.906-1.13
	c-0.8-3.478-1.896-5.944-5.923-6.686c-5.772-1.066-11.26-0.678-16.597,1.302c-1.197-3.555-3.262-6.491-7.421-8.488
	c-6.853-3.291-15.008-2.494-22.382-2.444c-1.302,0.008-2.596-0.004-3.893-0.01c3.893-3.575,7.597-8.432,8.136-12.627
	c1.031-8.021-0.224-16.76-0.594-24.787c-0.767-16.635-2.162-33.172-3.56-49.726c-0.638-7.553-1.947-14.975-2.3-22.507
	c-0.377-8.044-0.827-16.113-1.295-24.144c-0.848-14.537-1.291-29.274-2.914-43.76c-1.861-16.618-4.437-33.218-5.84-49.869
	c-1.396-16.572-2.051-33.191-3.905-49.73c-1.738-15.514-1.83-31.233-3.626-46.733c-0.918-7.918-0.718-15.888-1.135-23.845
	c-0.451-8.592-0.87-17.296-0.878-25.901c-0.005-6.09,2.472-13.802-2.333-18.596c-2.371-2.367-7.404-4.65-5.917-8.904
	c0.872-2.491,3.895-3.571,5.444-5.65c2.022-2.715,1.484-5.089,0.997-8.171c-0.597-3.77-0.533-7.518-1.033-11.304
	c-0.461-3.493-0.818-7-1.295-10.483c0.128-1.629,0.238-3.255,0.08-4.918c-0.293-3.073-0.064-7.513-3.18-9.23
	c-1.588-0.875-3.201-0.606-4.929-0.5c-2.096,0.129-4.745-0.309-6.822,0.18c-3.099,0.73-4.304,3.324-4.613,6.283
	c-0.219,2.098,0.252,4.172,0.494,6.242c0.361,3.076,0.103,6.1,0.268,9.181c0.175,3.26,1.015,6.51,0.538,9.794
	c-0.495,3.402-1.862,4.09-3.984,6.417c-5.505,6.041-3.445,15.678-0.674,23.282c-1.647,0.198-3.298,0.336-5.022,0.287
	c-2.023-0.058-3.997-0.13-5.972-0.037c-1.531-12.764-0.947-25.418-0.745-38.243c0.124-7.872,0.327-15.783,0.248-23.653
	c-0.037-3.584-1.277-5.591-4.263-6.859c-0.789-0.72-1.866-1.075-3.124-1.17c-2.244-0.168-4.469-0.361-6.727-0.243
	c-2.338,0.123-4.034,0.886-5.135,2.224c-1.897,1.281-2.727,3.142-2.757,6.047c-0.08,7.87,0.124,15.781,0.248,23.653
	c0.202,12.826,0.786,25.48-0.745,38.243c-1.976-0.093-3.95-0.021-5.972,0.037c-1.724,0.05-3.375-0.089-5.022-0.287
	c2.771-7.606,4.831-17.242-0.674-23.282c-2.121-2.327-3.489-3.015-3.984-6.417c-0.477-3.284,0.362-6.534,0.538-9.794
	c0.166-3.081-0.092-6.105,0.268-9.181c0.243-2.07,0.713-4.142,0.494-6.242c-0.31-2.959-1.514-5.554-4.613-6.283
	c-2.076-0.489-4.726-0.051-6.821-0.18c-1.729-0.106-3.341-0.376-4.929,0.5c-3.116,1.717-2.887,6.158-3.18,9.23
	c-0.159,1.663-0.048,3.29,0.08,4.918c-0.477,3.482-0.833,6.989-1.295,10.483c-0.501,3.787-0.436,7.535-1.033,11.304
	c-0.488,3.082-1.025,5.456,0.997,8.171c1.549,2.079,4.573,3.16,5.444,5.65c1.488,4.253-3.545,6.537-5.917,8.904
	c-4.805,4.794-2.329,12.506-2.333,18.596c-0.007,8.605-0.427,17.309-0.878,25.901c-0.417,7.957-0.217,15.927-1.135,23.845
	c-1.796,15.5-1.887,31.218-3.626,46.733c-1.854,16.539-2.507,33.159-3.905,49.73c-1.403,16.653-3.979,33.251-5.84,49.87
	c-1.623,14.487-2.067,29.224-2.914,43.76c-0.467,8.031-0.919,16.1-1.295,24.144c-0.353,7.532-1.662,14.955-2.3,22.507
	c-1.399,16.554-2.794,33.093-3.56,49.726c-0.37,8.027-1.625,16.767-0.594,24.787c0.539,4.196,4.243,9.052,8.137,12.627
	c-1.297,0.006-2.591,0.018-3.893,0.01c-7.374-0.05-15.529-0.848-22.382,2.444c-4.159,1.997-6.225,4.933-7.421,8.488
	c-5.337-1.98-10.825-2.368-16.597-1.302c-4.028,0.744-5.123,3.21-5.922,6.686c-5.911,0.608-12.064,0.965-17.906,1.13
	c-2.073,0.058-4.159-0.284-5.716,1.383c-0.757,0.811-0.936,1.505-1.168,2.491c-0.157,0.668,0.062,1.517-0.109,2.141
	c-0.485,1.773,0.502,1.024-1.132,1.587c-1.389,0.479-3.753-0.202-5.235-0.167c-1.892,0.045-3.631,0.442-5.497,0.707
	c-2.832,0.402-7.403-0.111-9.717,1.994c-1.654,1.504-0.841,2.981-1.402,4.749c-0.835,2.63-4.236,1.872-7.225,2.126
	c-4.581,0.39-13.765-0.608-17.057,3.62c-2.151,2.763-2.937,9.755,0.367,11.85c2.662,1.687,7.074,0.507,10.074,0.718
	c5.7,0.402,11.233,1.29,16.982,1.359c9.596,0.117,19.153-0.242,28.688-1.017c10.814-0.88,21.89-1.408,32.735-0.856
	c5.722,0.291,11.464,0.174,17.192,0.179c3.259,0.004,6.452-0.378,9.646-0.749c7.342,0.876,15.361-0.495,22.462,0.101
	c4.625,0.388,9.327,0.111,13.971,0.14c4.542,0.029,10.153,0.794,14.762-0.374c7.105,0.339,14.214,0.362,21.351,0.384
	c7.955,0.024,16.019,0.929,23.933,0.388c4.842-0.331,9.393,0.8,13.908-0.478c4.299,0.712,9.225,0.106,13.298,0.081
	c4.645-0.029,9.348,0.248,13.971-0.14c7.103-0.595,15.121,0.776,22.462-0.101c3.194,0.371,6.387,0.752,9.646,0.749
	c5.728-0.005,11.47,0.112,17.192-0.179c10.845-0.553,21.921-0.024,32.735,0.856c9.534,0.775,19.092,1.133,28.688,1.017
	c5.751-0.069,11.283-0.957,16.982-1.359c3-0.211,7.411,0.969,10.074-0.718C454.676,507.804,453.89,500.809,451.74,498.048z
	 M112.867,482.688c0.454-0.442,8.442-0.447,9.244-0.464c3.856-0.08,7.75-0.169,11.582-0.54c1.489,0.013,3.034-0.018,4.663,0.01
	c5.166,0.088,9.846,1.275,14.64,0.021c-0.144,1.227-0.298,2.454-0.433,3.682c-3.602-0.459-7.396,0.641-11.007,0.751
	c-6.18,0.188-12.609,0.326-18.779,0.007c-3.468-0.179-6.921-0.273-10.37-0.249C112.43,484.528,112.312,483.228,112.867,482.688z
	 M89.561,491.639c0.954-1.108,12.109-1.16,13.393-1.137c2.121,0.039,4.707,0.568,6.806-0.2c4.339,0.044,8.6,0.265,13.018,0.439
	c6.221,0.246,12.555,0.129,18.779,0.045c3.259-0.044,7.228,0.132,10.492-0.925c-0.048,0.39-0.086,0.782-0.135,1.171
	c-0.137,1.066-0.321,2.138-0.466,3.209c-6.658-0.7-13.284,0.993-19.989,0.256c-7.018-0.77-14.631,0.194-21.673,0.703
	c-6.782,0.491-13.478-0.56-20.244-0.28C89.645,493.924,89.639,491.548,89.561,491.639z M117.921,504.255
	c-10.48,0.41-20.851,1.416-31.391,1.244c-5.32-0.087-10.542-1.024-15.835-1.18c-1.513-0.044-3.801,0.631-5.221,0.024
	c-0.634-0.271-1.109-1.04-0.811-1.661c0.201-0.42,0.668-0.633,1.103-0.795c2.497-0.934,4.428-0.643,6.976-0.79
	c2.494-0.144,5.041-0.51,7.518-0.8c2.064-0.242,5.253-0.169,7.212-1.464c7.565-0.531,15.016,1.004,22.604,0.442
	c7.497-0.554,15.147-1.099,22.623-0.416c5.869,0.537,12.6,0.141,18.588-0.657c0.088,0.887,0.278,1.768,0.645,2.636
	c0.395,0.932,0.934,1.706,1.571,2.363C141.613,503.334,129.718,503.794,117.921,504.255z M153.369,478.617
	c-4.767-1.446-10.068-1.366-15.014-1.287c-0.125,0.002-0.26,0-0.389-0.001c0.817-2.16,2.078-2.195,5.33-2.671
	c3.627-0.531,7.281-0.483,10.895-1.023C153.849,475.209,153.603,476.881,153.369,478.617z M178.799,479.85
	c-0.21,6.593-0.665,13.619-0.093,20.286c-5.895,0.02-12.268,0.604-17.827-1.436c-3.341-1.226-1.984-4.296-1.8-7.296
	c0.192-3.131,0.315-6.258,0.43-9.389c0.138-3.752-0.021-9.81,2.778-12.659c2.667-2.714,7.346-3.279,10.905-3.544
	c2.212-0.165,4.429-0.207,6.651-0.21C178.862,470.192,178.947,475.226,178.799,479.85z M188.259,446.222
	c-0.774-3.074-0.252-6.578-0.252-9.686c0-7.403,0.72-14.81,1.227-22.19c0.953-13.895,1.761-27.65,2.916-41.527
	c0.632-7.582,1.964-14.931,2.3-22.507c0.357-8.039,0.804-16.114,1.259-24.144c0.79-13.918,1.348-27.918,2.612-41.814
	c1.508-16.58,4.018-33.078,5.787-49.621c1.633-15.277,2.387-30.778,3.55-46.108c2.373-31.292,5.078-62.478,5.642-93.911
	c0.079-4.354,0.305-8.824-0.366-13.14c-0.266-1.706-0.601-3.166-0.593-4.915c0.014-3.197,0.978-3.575,3.497-5.605
	c4.618-3.721,7.754-8.629,5.516-14.627c-1.06-2.839-2.965-3.833-4.972-5.897c-2.742-2.821-1.706-8.325-1.88-12.181
	c-0.14-3.09-0.076-6.232,0.063-9.388c0.156-1.277,0.192-2.598,0.203-3.926c0.041-5.039-0.867-14.526,7.5-11.154
	c4.662,1.879,1.438,7.261,1.29,11.601c-0.217,6.433-3.038,16.405,1.018,22.031c0.782,1.084,1.865,1.817,2.677,2.852
	c1.804,2.3,2.11,5.034,1.769,7.953c-0.521,4.466-2.568,9.248-3.818,13.591c-0.622,2.162,1.121,4.513,3.397,4.458
	c2.668-0.063,5.287,0.507,7.971,0.508c3.294,0.001,6.632-0.509,9.899,0.109c1.582,0.299,3.784-0.429,4.06-2.305
	c1.573-10.703,1.3-21.551,0.821-32.347c-0.258-5.828-0.898-11.427-0.656-17.317c0.125-3.064,0.283-6.127,0.336-9.195
	c0.039-2.246-1.049-8.951,1.083-10.633c0.346-0.031,0.719-0.041,1.148-0.03c1.613,0.041,3.167,0.236,4.769,0.361
	c0.769,0.061,1.566,0.205,2.355,0.266c1.424,2.301,0.535,7.999,0.571,10.036c0.055,3.067,0.211,6.13,0.337,9.195
	c0.241,5.891-0.398,11.489-0.656,17.317c-0.477,10.796-0.75,21.645,0.822,32.347c0.275,1.877,2.478,2.604,4.06,2.305
	c3.267-0.618,6.604-0.106,9.899-0.109c2.684-0.001,5.302-0.571,7.971-0.508c2.276,0.054,4.018-2.296,3.396-4.458
	c-1.25-4.344-3.297-9.125-3.818-13.591c-0.341-2.92-0.035-5.654,1.769-7.953c0.812-1.035,1.896-1.768,2.677-2.852
	c4.055-5.625,1.235-15.597,1.018-22.029c-0.093-2.754-1.164-6.46-0.005-9.165c1.241-2.899,8.572-4.218,7.655-0.15
	c0.384,0.849,0.626,1.754,0.792,2.689c0.105,2.053,0.23,4.116,0.348,6.177c0.011,1.328,0.047,2.649,0.203,3.926
	c0.138,3.157,0.203,6.299,0.063,9.388c-0.174,3.856,0.863,9.361-1.88,12.181c-2.007,2.064-3.912,3.057-4.972,5.897
	c-2.238,5.999,0.898,10.906,5.516,14.627c2.519,2.031,3.483,2.408,3.497,5.605c0.008,1.749-0.328,3.209-0.593,4.915
	c-0.671,4.316-0.445,8.786-0.366,13.14c0.564,31.433,3.269,62.619,5.642,93.911c1.162,15.328,1.916,30.831,3.549,46.108
	c1.769,16.542,4.279,33.04,5.787,49.621c1.264,13.896,1.823,27.896,2.612,41.814c0.455,8.03,0.903,16.106,1.259,24.144
	c0.336,7.576,1.668,14.925,2.3,22.507c1.155,13.877,1.964,27.632,2.916,41.527c0.506,7.38,1.227,14.787,1.227,22.19
	c0,3.107,0.522,6.613-0.252,9.686c-7.128-0.795-14.782,0.211-21.756,0.78c-5.388,0.439-10.719,0.247-16.118,0.491
	c-2.898,0.131-6.07,0.207-8.927,0.996c-0.068-1.256-0.215-2.517-0.293-3.857c-0.323-5.504-0.862-10.956-1.407-16.387
	c-0.866-8.637-1.8-17.221-3.328-25.7c0.669,0.03,1.39,0.002,2.208-0.14c0.182,0.032,0.362,0.067,0.563,0.072
	c8.277,0.234,19.904,2.645,26.766-3.566c2.68-2.426,3.117-6.531,2.791-9.835c-0.562-5.711-0.584-11.588-1.286-17.254
	c-1.251-10.096-1.67-20.536-2.442-30.733c-0.892-11.794-2.284-23.53-3.312-35.319c-0.851-9.773-1.58-19.516-2.239-29.284
	c-0.411-6.089-0.502-12.132-0.502-18.248c-0.001-5.094-0.72-10.07-0.638-15.176c0.142-8.732-0.664-17.582-1.379-26.281
	c-0.762-9.268-2.376-18.818-2.273-28.093c0.095-8.62-1.424-17.141-1.859-25.738c0.114-6.884,0.143-13.766-0.733-20.61
	c-0.392-3.058-1.08-5.451-2.265-7.098c0-0.715-0.019-1.245-0.063-1.467c-0.154-0.771-0.912-1.502-1.672-1.672
	c-4.268-0.951-8.549-1.289-12.932-1.316c-3.434-0.021-5.195,1.075-6.171,4.458c-1.264,4.381-1.333,9.419-2.031,13.906
	c-0.824,5.296-0.845,10.627-0.87,15.972c-0.1,21.538,1.263,43.046,1.711,64.556c0.249,11.989-0.082,24.019-0.16,36.01
	c-0.075,11.503,0.663,23.325-0.455,34.771c-1.003,10.263,0.241,20.466,0.217,30.703c-0.025,10.972,0.759,21.736,1.656,32.651
	c0.399,4.86,0.929,9.752,1.216,14.617c0.234,3.958-0.002,7.689-0.08,11.652c-0.075,3.881,0.08,8.376,2.295,10.773
	c0.302,2.067,0.693,4.113,0.979,6.063c0.925,6.291,1.111,13.049,1.44,19.406c0.266,5.138,0.334,10.28,0.823,15.42
	c0.202,2.109,0.491,4.627,0.473,6.962c-1.55,0.042-3.107,0.119-4.685,0.119c-4.396,0-8.918-0.252-13.306,0.02
	c-3.656,0.227-8.232-0.309-12.395-0.094c-0.151-2.673-0.367-5.362-0.135-7.838c0.541-5.759,1.469-11.482,2.169-17.217
	c1.006-8.248,3.678-18.602,2.664-27.448c0.342-1.969,0.373-4.147,0.335-6.165c-0.077-3.963-0.314-7.694-0.08-11.652
	c0.287-4.866,0.816-9.757,1.215-14.617c0.898-10.916,1.682-21.68,1.656-32.651c-0.024-10.237,1.22-20.44,0.217-30.703
	c-1.118-11.446-0.38-23.268-0.455-34.771c-0.079-11.991-0.41-24.021-0.16-36.01c0.448-21.51,1.811-43.02,1.711-64.556
	c-0.025-5.345-0.048-10.676-0.87-15.972c-0.698-4.487-0.767-9.525-2.031-13.906c-0.975-3.383-2.736-4.479-6.171-4.458
	c-4.383,0.027-8.663,0.365-12.932,1.316c-0.759,0.169-1.518,0.9-1.672,1.672c-0.044,0.222-0.063,0.751-0.063,1.467
	c-1.185,1.647-1.873,4.038-2.265,7.098c-0.876,6.843-0.849,13.726-0.733,20.61c-0.436,8.598-1.955,17.118-1.859,25.738
	c0.103,9.275-1.512,18.825-2.274,28.093c-0.715,8.699-1.521,17.547-1.38,26.281c0.083,5.105-0.637,10.081-0.638,15.176
	c-0.001,6.117-0.091,12.159-0.502,18.248c-0.661,9.77-1.388,19.511-2.239,29.284c-1.027,11.788-2.42,23.524-3.312,35.319
	c-0.771,10.197-1.191,20.637-2.442,30.733c-0.701,5.666-0.724,11.543-1.286,17.254c-0.325,3.304,0.111,7.409,2.791,9.835
	c6.862,6.212,18.489,3.801,26.766,3.566c0.2-0.006,0.382-0.039,0.564-0.072c0.818,0.142,1.538,0.171,2.208,0.14
	c-1.529,8.48-2.462,17.062-3.328,25.7c-0.545,5.431-1.084,10.883-1.407,16.387c-0.079,1.34-0.225,2.602-0.293,3.857
	c-2.857-0.788-6.028-0.864-8.927-0.996c-5.399-0.244-10.73-0.052-16.118-0.491C203.042,446.434,195.386,445.427,188.259,446.222z
	 M269.428,246.936c-0.018-5.748,0.129-11.509,0.007-17.255c-0.097-4.581-0.9-9.083-0.866-13.67
	c0.147-19.373-1.657-38.738-1.084-58.119c0.132-4.463,1.136-8.741,1.654-13.148c0.23-1.966-0.018-4.14,0.502-6.059
	c0.638-2.355,0.049-1.81,2.424-2.265c1.827-0.349,4.675-0.176,6.508-0.043c2.735,0.199,1.951-0.074,2.37,2.106
	c0.446,2.317,0.759,4.522,1.219,6.824c0.258,5.804,0.205,11.596,0.44,17.397c0.215,5.287,0.672,10.634,1.062,15.899
	c0.33,4.46,0.275,8.861,0.538,13.323c0.974,16.651,3.846,33.441,3.517,50.165c-0.1,5.101,0.509,10.018,0.584,15.087
	c0.079,5.383-0.248,10.8,0.013,16.177c0.424,8.766,0.881,17.643,1.899,26.36c2.388,20.449,2.959,40.969,5.145,61.401
	c0.984,9.201,1.591,18.86,1.94,28.137c0.217,5.742-3.544,6.132-8.481,6.535c-4.828,0.395-9.312-0.067-14.143-0.204
	c-0.554-0.016-1.038,0.078-1.453,0.254c-1.53-2.943,0.207-10.66,0.114-13.071c-0.173-4.466-0.732-9.034-1.18-13.487
	c-1.044-10.383-2.302-20.828-2.357-31.303c-0.049-9.231-0.672-18.362-0.665-27.538c0.008-10.203,0.576-20.349,0.502-30.576
	C269.557,268.888,269.462,257.912,269.428,246.936z M238.771,395.839c-0.415-0.175-0.9-0.269-1.453-0.254
	c-4.831,0.137-9.316,0.599-14.143,0.204c-4.937-0.403-8.698-0.793-8.481-6.535c0.349-9.277,0.956-18.936,1.94-28.137
	c2.184-20.433,2.757-40.952,5.145-61.402c1.018-8.717,1.475-17.594,1.899-26.36c0.261-5.377-0.066-10.794,0.013-16.177
	c0.074-5.068,0.684-9.987,0.583-15.087c-0.329-16.725,2.543-33.515,3.517-50.165c0.261-4.462,0.206-8.862,0.538-13.323
	c0.39-5.265,0.848-10.614,1.062-15.899c0.235-5.801,0.182-11.593,0.44-17.397c0.459-2.301,0.771-4.507,1.219-6.824
	c0.42-2.18-0.364-1.907,2.37-2.106c1.833-0.134,4.681-0.306,6.508,0.043c2.375,0.455,1.786-0.091,2.424,2.265
	c0.52,1.92,0.272,4.093,0.502,6.059c0.517,4.407,1.521,8.685,1.654,13.148c0.574,19.381-1.23,38.746-1.084,58.119
	c0.035,4.587-0.769,9.089-0.866,13.67c-0.122,5.746,0.025,11.507,0.007,17.255c-0.035,10.975-0.13,21.952-0.21,32.927
	c-0.074,10.228,0.495,20.373,0.502,30.576c0.007,9.176-0.616,18.307-0.665,27.538c-0.055,10.474-1.313,20.92-2.357,31.303
	c-0.448,4.453-1.006,9.021-1.18,13.487C238.563,385.178,240.301,392.896,238.771,395.839z M198.895,481.717
	c-0.05,6.283-0.628,12.848-0.083,19.156c-1.427-0.061-2.854-0.119-4.282-0.166c-4.026-0.134-7.91-0.357-11.894-0.491
	c0.501-6.361-0.074-12.914-0.043-19.257c0.025-5.15-0.106-10.236-0.249-15.346c4.143,0.042,8.291,0.15,12.42-0.129
	c1.468-0.099,2.938-0.229,4.403-0.359c0.337,0.062,0.678,0.117,1.022,0.169C199.243,470.711,198.939,476.209,198.895,481.717z
	 M219.814,472.224c-0.316,3.452-0.423,6.92-0.707,10.372c-0.521,6.332-0.768,12.609-0.77,18.952
	c-1.377-0.008-2.741-0.016-4.068-0.05c-3.721-0.098-7.457-0.268-11.195-0.438c0.575-6.366-0.01-12.995-0.055-19.343
	c-0.037-5.152,0.86-10.818,0.296-16.064c3.629,0.303,7.001,0.23,8.501,0.231c2.969,0.002,5.778,0.137,8.61,0.165
	C220.033,468.809,219.811,472.261,219.814,472.224z M215.999,458.434c-4.95-0.076-9.992-0.353-14.938-0.252
	c-0.835,0.017-1.573,0.025-2.271,0.018c-0.298-0.417-0.709-0.793-1.252-1.102c-2.219-1.266-4.768-3.778-6.648-6.132
	c6.626,1.376,13.72,1.185,20.356,1.887c4.633,0.49,9.269,0.029,13.924,0.159c3.862,0.107,6.816,0.78,10.104-0.603
	c0.453,2.399,1.43,4.617,2.337,6.861c-3.304-0.658-6.491-0.904-9.928-0.749C223.676,458.701,219.963,458.496,215.999,458.434z
	 M242.096,480.879c-0.358,6.506-1.139,13.945-0.389,20.616c-3.065-0.171-6.132-0.348-9.195-0.461
	c-3.055-0.113-6.154-0.279-9.178,0.105c0.041-6.189,0.005-12.357,0.221-18.543c0.186-5.339,0.732-11.106,0.382-16.587
	c0.934-0.033,1.874-0.081,2.834-0.167c3.728-0.333,7.101,0.283,10.231-0.875c2.06,0.058,4.122,0.124,6.183,0.202
	C242.194,470.298,242.376,475.765,242.096,480.879z M266.367,469.49c-0.79,4.626-0.858,9.59-1.198,14.283
	c-0.438,6.035-1.358,12.311-1.028,18.412c-3.292-0.072-6.583-0.169-9.875-0.197c-2.755-0.024-5.513-0.137-8.271-0.273
	c-0.974-7.428-0.114-15.631,0.046-23.007c0.093-4.266,0.746-9.014,0.209-13.406c1.847,0.087,3.694,0.186,5.539,0.32
	c5.095,0.368,10.273,0.492,15.399,0.628C266.85,467.496,266.487,468.785,266.367,469.49z M268.518,460.009
	c-6.26-0.217-12.539-0.233-18.81-0.564c-2.113-0.112-4.241-0.144-6.372-0.149c-0.44-1.787-1.306-3.417-1.994-5.114
	c0.025-0.339,0.031-0.684,0.042-1.028c4.425,0.407,9.017-0.072,13.351-0.202c5.399-0.162,10.975,0.383,16.394-0.097
	c-0.725,2.345-2.103,4.444-2.59,6.875C268.52,459.827,268.529,459.913,268.518,460.009z M274.86,502.196
	c-1.921,0.06-3.839,0.069-5.758,0.058c-0.194-5.592,0.449-11.251,0.713-16.812c0.188-3.973,0.632-7.954,0.596-11.928
	c-0.014-1.599-0.533-4.693-0.69-7.197c0.278,0.008,0.558,0.014,0.835,0.023c4.873,0.147,9.791,1.058,14.411-0.516
	c0.086,0.007,0.171,0.011,0.256,0.018c0.96,0.086,1.901,0.134,2.834,0.167c-0.351,5.481,0.196,11.248,0.382,16.587
	c0.219,6.279,0.178,12.537,0.222,18.821C284.007,501.383,279.152,502.061,274.86,502.196z M308.919,501.06
	c-3.739,0.169-7.475,0.34-11.195,0.438c-1.327,0.035-2.691,0.043-4.068,0.05c-0.001-6.343-0.249-12.619-0.77-18.952
	c-0.284-3.452-0.391-6.92-0.707-10.372c0.004,0.037-0.218-3.415-0.61-6.175c2.831-0.029,5.641-0.162,8.61-0.165
	c1.499-0.001,4.872,0.072,8.501-0.231c-0.565,5.245,0.333,10.912,0.296,16.064C308.929,488.065,308.344,494.694,308.919,501.06z
	 M295.995,458.434c-3.964,0.062-7.677,0.267-11.682,0.085c-3.439-0.156-6.624,0.089-9.928,0.749
	c0.907-2.244,1.884-4.462,2.337-6.861c3.287,1.383,6.243,0.709,10.104,0.603c4.655-0.129,9.289,0.333,13.924-0.159
	c6.636-0.702,13.731-0.512,20.356-1.887c-1.88,2.354-4.429,4.867-6.648,6.132c-0.541,0.309-0.953,0.686-1.251,1.102
	c-0.699,0.007-1.437,0-2.271-0.018C305.986,458.082,300.944,458.357,295.995,458.434z M329.399,480.959
	c0.031,6.343-0.544,12.896-0.043,19.257c-3.985,0.135-7.868,0.358-11.894,0.491c-1.427,0.046-2.854,0.106-4.282,0.166
	c0.546-6.307-0.033-12.873-0.083-19.156c-0.044-5.51-0.348-11.007-1.292-16.423c0.342-0.052,0.683-0.107,1.022-0.169
	c1.465,0.13,2.935,0.26,4.403,0.359c4.129,0.279,8.276,0.171,12.42,0.129C329.506,470.723,329.374,475.809,329.399,480.959z
	 M351.114,498.7c-5.56,2.04-11.931,1.456-17.827,1.436c0.571-6.667,0.117-13.692-0.093-20.286
	c-0.148-4.624-0.063-9.658-1.043-14.246c2.22,0.002,4.439,0.045,6.651,0.21c3.558,0.265,8.238,0.83,10.905,3.544
	c2.798,2.848,2.639,8.907,2.778,12.659c0.116,3.131,0.237,6.258,0.43,9.389C353.098,494.403,354.455,497.475,351.114,498.7z
	 M409.04,490.502c1.284-0.024,12.439,0.03,13.393,1.137c-0.079-0.092-0.085,2.286,0.02,3.281c-6.766-0.28-13.464,0.771-20.244,0.28
	c-7.042-0.51-14.655-1.475-21.673-0.703c-6.706,0.737-13.332-0.956-19.989-0.256c-0.145-1.071-0.329-2.144-0.466-3.208
	c-0.05-0.389-0.088-0.781-0.135-1.171c3.265,1.058,7.234,0.882,10.492,0.925c6.224,0.083,12.559,0.202,18.779-0.045
	c4.419-0.174,8.679-0.396,13.018-0.439C404.334,491.069,406.92,490.541,409.04,490.502z M378.301,481.685
	c3.831,0.37,7.726,0.459,11.582,0.54c0.802,0.017,8.79,0.021,9.244,0.464c0.554,0.54,0.438,1.841,0.459,3.217
	c-3.447-0.024-6.901,0.07-10.369,0.249c-6.171,0.318-12.599,0.181-18.779-0.007c-3.612-0.11-7.405-1.21-11.007-0.751
	c-0.135-1.228-0.289-2.455-0.432-3.682c4.794,1.253,9.474,0.067,14.64-0.021C375.266,481.666,376.812,481.698,378.301,481.685z
	 M368.697,474.659c3.253,0.476,4.514,0.51,5.331,2.671c-0.129,0-0.264,0.002-0.389,0.001c-4.946-0.08-10.248-0.16-15.014,1.287
	c-0.233-1.736-0.479-3.408-0.823-4.982C361.415,474.176,365.069,474.127,368.697,474.659z M446.52,504.342
	c-1.421,0.606-3.709-0.069-5.221-0.024c-5.293,0.156-10.515,1.093-15.835,1.18c-10.541,0.173-20.911-0.833-31.391-1.244
	c-11.798-0.461-23.692-0.922-35.583-1.055c0.638-0.657,1.177-1.431,1.571-2.363c0.367-0.869,0.557-1.749,0.645-2.636
	c5.988,0.798,12.72,1.194,18.588,0.657c7.476-0.683,15.126-0.138,22.623,0.416c7.588,0.562,15.039-0.973,22.604-0.442
	c1.959,1.295,5.148,1.222,7.212,1.464c2.476,0.29,5.023,0.656,7.518,0.8c2.548,0.147,4.479-0.144,6.976,0.79
	c0.435,0.163,0.903,0.377,1.103,0.795C447.629,503.303,447.154,504.072,446.52,504.342z"/>
<path d="M293.703,415.977c-1.542-0.645-2.907-0.317-4.422,0.16c-1.318,0.414-3.245,0.652-4.488,1.273
	c-3.211,1.608-1.824,7.348-1.845,10.127c-0.025,3.343-0.805,9.894,2.177,12.209c2.55,1.98,7.594,1.069,10.201-0.273
	c2.085-1.073,2.531-2.904,2.538-4.937c0.475-3.74-0.532-7.911-0.748-11.53C296.958,420.295,296.511,417.151,293.703,415.977z
	 M293.315,436.591c-0.85,0.562-4.438,1.067-5.275,0.551c-2.129-1.312-1.313-7.551-1.29-9.603c0.021-1.908-0.457-3.931,0.052-5.808
	c0.418-1.542,2.389-1.917,3.751-1.989c0.612-0.032,1.685-0.145,2.218,0.217c0.882,0.6,0.751,1.717,0.926,2.616
	c0.787,4.023-0.017,8.555,0.781,12.574C294.324,435.665,294.001,436.137,293.315,436.591z"/>
<g>
</g>
<g>
</g>
<g>
</g>
<g>
</g>
<g>
</g>
<g>
</g>
<g>
</g>
<g>
</g>
<g>
</g>
<g>
</g>
<g>
</g>
<g>
</g>
<g>
</g>
<g>
</g>
<g>
</g>
</svg>
