<?xml version="1.0" encoding="iso-8859-1"?>
<!-- Generator: Adobe Illustrator 19.0.0, SVG Export Plug-In . SVG Version: 6.00 Build 0)  -->
<svg version="1.1" id="Layer_1" xmlns="http://www.w3.org/2000/svg" xmlns:xlink="http://www.w3.org/1999/xlink" x="0px" y="0px"
	 viewBox="0 0 512.004 512.004" style="enable-background:new 0 0 512.004 512.004;" xml:space="preserve">
<path style="fill:#E5E5E5;" d="M418.567,500.264c-0.525-2.137-1.929-3.961-3.522-5.48c-4.278-4.079-10.021-6.326-15.824-7.448
	c-5.803-1.122-11.747-1.21-17.648-1.531c-1.875-0.102-3.789-0.237-5.521-0.959c-6.001-2.497-3.413-15.046-3.48-20.432
	c-0.73-58.952-1.353-117.907-2.247-176.857c-0.215-14.166-1.774-28.316-1.92-42.481c-0.188-18.313-0.211-36.626-0.177-54.94
	c0.017-9.273,0.048-18.546,0.078-27.819c0.031-9.429,0.049-18.874,0-28.313c-0.004-0.826,0.016-1.723,0.534-2.365
	c0.618-0.766,1.715-0.897,2.697-0.971c6.002-0.45,11.659-0.167,17.661-0.138c3.09,0.016,6.227,0.024,9.2-0.818
	c2.973-0.841,5.813-2.662,7.165-5.44c1.353-2.778,0.82-6.558-1.694-8.356c-1.908-1.364-4.435-1.374-6.78-1.332
	c-16.29,0.298-32.579,0.595-48.868,0.893c-1.611,0.029-3.346,0.022-4.659-0.911c-3.008-2.138-1.261-13.594-1.33-16.92
	c-0.125-6.171-0.285-12.341-0.565-18.507c-0.336-7.423-0.753-14.824-1.259-22.244c-0.11-1.61-0.269-3.343-1.327-4.56
	c-1.059-1.218-3.359-1.426-4.11,0.002c-4.075-3.991-3.451-10.281-3.207-15.484c0.399-8.487,0.941-16.97,1.411-25.453
	c0.185-3.339-0.065-7.464-3.082-8.909c-2.74-1.312-6.117,0.748-7.399,3.503c-1.282,2.755-1.08,5.933-1.007,8.97
	c0.137,5.688-1.402,11.008-0.959,16.606c0.189,2.389,0.332,4.873-0.534,7.108c-0.129,0.333-0.288,0.645-0.473,0.942
	c-2.424,3.879-9.371,4.792-13.148,6.697c-4.357,2.196-8.668,4.484-12.882,6.942c-25.067,14.621-46.378,35.027-64.794,57.454
	c-7.388,8.996-14.343,18.34-21.026,27.87c-24.633,35.125-46.512,71.076-58.103,112.731
	c-15.741,56.571-19.531,114.664-11.622,173.042c1.327,9.795,3.573,19.393,5.141,29.134c1.434,8.911,5.032,17.523,7.936,26.117
	c0.534,1.583,1.051,3.4,0.222,4.85c-1.35,2.359-8.232,2.629-10.827,2.858c-4.228,0.373-8.431-0.58-12.649-0.608
	c-7.771-0.052-15.546,1.761-22.493,5.244c-3.642,1.826-7.291,4.725-9.624,8.077c-0.894,1.285-1.622,3.093-0.654,4.323
	c0.505,0.642,1.336,0.915,2.124,1.129c5.395,1.462,10.901,1.056,16.354,1.427c6.788,0.461,13.706,0.19,20.509,0.269
	c46.584,0.542,93.17,0.936,139.756,1.184c23.293,0.123,46.586,0.211,69.88,0.261c10.763,0.024,21.846,0.852,32.509,0.333
	c11.561-0.565,23.118-1.102,34.695-1.102c2.06-0.086,4.281-0.233,5.867-1.552C418.583,504.892,419.092,502.402,418.567,500.264z
	 M296.708,85.382c-0.123,7.426-0.997,14.816-0.755,22.251c0.125,3.877,1.914,11.926-1.028,15.207
	c-3.006,3.352-11.042,2.021-14.904,1.778c-6.876-0.434-13.605-0.868-20.494-0.324c-3.678,0.291-7.267,0.848-10.882,1.526
	c-1.77,0.332-3.39,0.566-5.094-0.115c-1.361-0.543-2.252-2.384-0.936-3.547c8.632-7.636,15.493-16.159,22.65-25.134
	c4.583-5.748,10.29-12.672,16.815-17.296c1.854-1.649,3.806-3.205,5.662-4.766c1.998-1.684,4.738-3.892,7.221-1.727
	C297.688,75.61,296.757,82.383,296.708,85.382z M359.741,345.859c-0.155,0.6-0.575,0.902-1.044,0.978
	c0.001,0.044,0.002,0.087,0.004,0.132c0.263,6.861,0.572,13.721,0.764,20.585c0.321,11.536,0.131,23.073-1.537,34.49
	c1.5,12.992,1.527,26.496,1.502,39.284c-0.017,8.651-0.605,17.251-1.219,25.875c-0.286,4.017,1.11,12.831-2.712,15.584
	c-2.61,1.88-9.876,1.911-12.581,0.309c-4.307-2.551-2.287-10.203-1.996-14.064c0.627-8.333,0.649-16.707,1.293-25.052
	c0.413-5.348,0.646-10.729,0.608-16.102c-0.039-0.076-0.09-0.138-0.122-0.223c-2.11-5.595-1.26-12.328-1.213-18.211
	c0.046-5.902,0.111-11.815,0.392-17.711c0.286-5.977,0.436-11.859,0.339-17.844c-0.021-1.315,0.156-2.835,0.336-4.402
	c-0.099-0.132-0.19-0.271-0.253-0.43c-2.198-5.547-1.493-12.07-1.534-17.928c-0.04-5.714-0.369-11.361-0.801-17.056
	c-0.738-9.714-0.857-19.981,0.068-29.822c-2.175-7.383-1.047-16.319-1.107-23.822c-0.067-8.596-0.192-17.184-0.095-25.781
	c0.097-8.659-0.041-17.368,0.323-26.019c0.161-3.846,0.127-8.626,0.991-12.84c-1.258-6.307-0.203-13.63-0.645-19.95
	c-0.486-6.931-0.788-13.704-0.782-20.653c0.006-7.371-0.392-14.702-0.161-22.077c0.195-6.25-0.085-12.972,1.019-19.181
	c-1.012-0.726-0.417-2.62,0.893-2.538c4.227,0.264,12.079-0.886,15.732,1.723c3.756,2.683,1.54,10.751,1.47,14.47
	c-0.152,7.964-0.176,15.931-0.35,23.893c-0.105,4.836-0.199,9.699-1.19,14.371c0.43,8.881-0.239,17.84,0.192,26.754
	c0.425,8.779,0.747,17.557,0.883,26.346c0.13,8.488,0.568,16.855,1.18,25.316c0.337,4.657,0.323,9.301,0.4,13.967
	c0.053,3.144,0.451,6.187,0.319,9.266c1.182,8.175,0.414,16.787,0.719,24.937c0.22,5.878,0.39,11.76,0.537,17.64
	C360.491,335.276,361.049,340.773,359.741,345.859z"/>
<g>
	<path style="fill:#415DB7;" d="M233.971,134.644c-3.557,3.559-6.264,8.291-8.948,12.496c-3.768,5.904-8.582,10.947-12.062,17.023
		c-8.667,15.128-14.879,31.168-21.18,47.402c-2.965,7.639-5.66,15.28-8.033,23.139c-4.05,13.417-7.983,27.065-10.261,40.733
		c-1.251,7.503-2.896,14.874-4.115,22.384c-1.981,12.199-3.891,24.414-5.32,36.697c-1.583,13.596-1.835,27.347-2.14,41.015
		c-0.272,12.261-1.585,24.533-1.046,36.809c0.407,9.265,0.72,18.537,1.12,27.806c0.141,3.287-0.516,8.986,1.027,11.889
		c2.273,4.272,12.393,2.913,17.103,3.359c6.781,0.643,14.443,1.223,20.93-0.809c1.182-3.514-0.559-7.636-1.619-11.036
		c-1.567-5.028-2.932-10.058-3.637-15.299c-2.462-18.27-5.282-36.375-6.674-54.757c-1.969-25.98,2.717-51.749,5.315-77.522
		c1.014-10.053,3.195-19.556,5.386-29.388c2.309-10.356,5.535-20.512,8.367-30.74c1.53-5.526,3.264-10.995,4.986-16.463
		c1.855-5.895,2.985-12.041,5.292-17.801c3.955-9.881,7.873-20.106,12.82-29.532c4.559-8.687,10.213-17.405,16.13-25.283
		c2.151-2.863,18.647-16.658,17.38-19.231c-0.912-1.854-12.834-0.492-15.163-0.728C242.572,126.09,238.799,127.053,233.971,134.644z
		"/>
	<path style="fill:#415DB7;" d="M308.884,126.713c-0.674,0.925-1.214,2.268-1.619,4.188c-1.545,7.335-0.066,14.904-0.462,22.311
		c-0.514,9.636-0.585,19.32-1.467,28.932c-1.936,21.092-3.92,42.468-4.526,63.65c-0.307,10.753-0.962,21.491-1.373,32.241
		c-0.379,9.879,0.636,19.301,0.596,29.081c-0.09,21.951-0.344,43.901-0.344,65.852c0,20.211,2.811,40.525,1.576,60.743
		c-0.559,9.153-6.678,19.616,5.535,22.236c6.907,1.482,13.893,0.953,20.859,0.287c6.656-0.637,12.373,0.352,12.913-7.772
		c0.646-9.728,0.67-19.265-0.109-28.972c-0.844-10.521,1.355-21.439,1.409-32.008c0.072-14.258,1.016-28.813-0.355-43.032
		c-1.034-10.725-0.36-21.496,0.193-32.227c0.423-8.231-1.707-14.19-2.873-22.032c-1.493-10.046-0.361-21.02-0.388-31.166
		c-0.03-11.341,0.013-22.685,0.465-34.019c1.018-25.586,0.159-50.797-1.171-76.282c-0.273-5.243-0.818-10.452-1.09-15.699
		c-0.13-2.501,0.024-5.632-2.576-6.906c-2.971-1.456-9.933-0.521-13.18-0.611C315.275,125.356,311.251,123.465,308.884,126.713z"/>
</g>
<g>
	<path style="fill:#31459B;" d="M228.016,140.149c6.647,0,13.465,1.224,20.028,0.829c2.837-0.171,7.639-2,8.399-5.206
		c-6.254-0.354-12.805-0.378-19.06-0.332C233.47,135.47,230.091,136.964,228.016,140.149z"/>
	<path style="fill:#31459B;" d="M219.73,156.169c-1.686,1.56-4.83,4.234-5.212,6.573c1.967,1.007,5.956-0.19,8.253-0.004
		c3.316,0.269,6.328,0.311,9.624,0c1.609-0.152,3.66,0.127,5.006-0.755c1.606-1.052,3.314-4.48,4.128-6.041
		c-2.489-0.867-5.734-0.287-8.294-0.049C228.735,156.312,223.788,155.288,219.73,156.169z"/>
	<path style="fill:#31459B;" d="M206.747,178.542c-0.646,1.612-4.052,4.233-3.548,6.864c5.793,0.3,11.608,0.041,17.426,0.318
		c4.131,0.196,6.611,0.258,5.967-4.93c-2.388-0.14-4.744,0.077-7.139-0.041C214.978,180.529,211.125,179.595,206.747,178.542z"/>
	<path style="fill:#31459B;" d="M207.024,200.363c-3.299-0.795-8.991-0.274-11.957,1.45c-2.172,1.262-2.136,3.135-2.094,5.691
		c6.088,1.261,12.988,1.332,19.196,0.594c4.085-0.486,6.037-1.51,5.31-6.029C213.845,200.897,210.298,200.649,207.024,200.363z"/>
	<path style="fill:#31459B;" d="M191.833,224.392c-2.861-0.097-6.157,0.026-7.526,2.748c-2.298,4.568,0.994,4.283,4.349,4.158
		c4.817-0.178,9.601,0.199,14.457,0c2.338-0.096,5.333,0.088,7.454-0.877c0.868-3.12,4.35-4.814-0.217-5.744
		C204.16,223.414,197.289,224.07,191.833,224.392z"/>
	<path style="fill:#31459B;" d="M206.472,241.794c-4.746,3.338-13.019,3.037-19.119,3.038c-2.597,0-5.317-0.383-7.397,1.106
		c-1.199,0.857-3.478,3.679-2.705,5.266c0.821,1.685,4.157,1.077,5.715,1.147c3.531,0.159,7.082,0.793,10.608,1.103
		c2.426,0.214,6.097,0.651,8.417-0.257C205.399,251.867,206.371,247.331,206.472,241.794z"/>
	<path style="fill:#31459B;" d="M201.5,262.785c-1.922,0.809-4.66,2.655-7.223,3.321c-5.017,1.305-10.117,0.6-15.23,0.816
		c-2.624,0.111-5.658-0.122-7.113,2.486c-0.93,1.667-0.767,3.796,0.559,5.047c1.474,1.389,4.397,1.325,6.281,1.388
		c4.809,0.16,10.073-0.278,14.891-0.69c1.386-0.119,4.171-0.069,5.365-0.838c1.248-0.803,1.115-1.556,1.685-2.911
		C201.683,269.097,203.805,266.321,201.5,262.785z"/>
	<path style="fill:#31459B;" d="M196.804,285.986c-6.321,2.089-12.836,2.788-19.541,3.253c-3.802,0.263-11.031,1.982-8.631,7.657
		c0.841,1.989,2.989,1.527,5.368,1.52c4.536-0.012,9.077,0.576,13.558,0.413c2.236-0.081,5.603,0.28,7.315-1.355
		C197.111,295.336,198.345,290.009,196.804,285.986z"/>
	<path style="fill:#31459B;" d="M194.319,307.531c-1.707,2.043-7.395,2.358-10.02,2.83c-4.283,0.771-8.636,0.842-12.909,1.582
		c-3.549,0.614-7.402,3.964-4.829,7.455c3.009,4.08,13.978,1.997,18.761,1.937C192.887,321.236,193.934,318.096,194.319,307.531z"/>
	<path style="fill:#31459B;" d="M193.214,336.255c-0.811,2.585-2.247,4.564-4.556,6.082c-2.407,1.583-5.035,1.029-7.886,1.161
		c-3.402,0.157-15.68,2.215-17.675-1.295c-0.466-0.819-0.226-4.388,0.397-5.194c1.382-1.79,5.822-1.665,7.819-1.92
		c5.533-0.707,15.188,0.169,19.414-3.805C194.873,330.529,193.966,333.858,193.214,336.255z"/>
	<path style="fill:#31459B;" d="M189.899,353.38c-6.843,2.07-12.844,3.585-20.155,4.204c-2.559,0.216-12.069,1.867-7.754,6.708
		c1.126,1.264,5.308,1.266,6.864,1.261c4.547-0.013,9.067,0.237,13.606,0.269C187.966,365.861,195.702,361.331,189.899,353.38z"/>
	<path style="fill:#31459B;" d="M189.07,376.306c-7.183,1.387-14.078,3.514-21.481,3.882c-3.772,0.187-8.85,1.674-6.636,7.16
		c0.938,2.323,3.099,1.658,5.297,1.663c5.132,0.012,10.229-0.067,15.354,0.021c2.715,0.047,5.264-0.217,7.266-1.957
		C191.113,385.127,194.096,380.113,189.07,376.306z"/>
	<path style="fill:#31459B;" d="M192.385,397.021c-7.37,3.493-15.69,3.569-23.629,4.903c-1.77,0.298-6.89,0.602-8.094,2.265
		c-0.699,0.967-0.096,4.837,0.636,5.685c1.346,1.558,4.684,1.453,6.484,1.509c4.498,0.142,9.13-0.145,13.63-0.337
		c2.818-0.121,6.406,0.352,8.778-1.508C192.681,407.586,194.253,402.815,192.385,397.021z"/>
	<path style="fill:#31459B;" d="M194.871,417.184c-5.28,4.782-16.556,5.616-23.355,6.355c-4.115,0.448-9.741-0.568-9.513,4.914
		c0.171,4.125,4.565,4.455,8.133,4.761c4.117,0.353,8.468-0.036,12.571-0.278c2.621-0.155,5.639,0.493,8.244,0.006
		C195.745,432.043,198.221,423.81,194.871,417.184z"/>
	<path style="fill:#31459B;" d="M202.605,446.186c2.991,10.005-11.333,9.391-16.871,9.391c-6.452,0-14.823,0.906-21.049-1.106
		c-3.818-1.233-2.631-4.879,0.599-6.355c4.591-2.097,10.62-1.473,15.64-2.17c3.898-0.541,8.017-1.279,11.668-2.799
		c2.079-0.866,3.988-2.548,6.147-3.038C203.559,439.016,201.72,443.228,202.605,446.186z"/>
	<path style="fill:#31459B;" d="M300.658,445.909c2.685-1.105,8.141-0.485,11.244-0.552c6.828-0.148,13.677-0.3,20.498-0.614
		c4.295-0.197,8.113-1.582,9.541,3.48c1.027,3.64-4.513,6.689-7.594,6.801c-3.029,0.11-6.053-0.146-9.101,0.002
		c-5.682,0.277-11.431,0.775-17.135,0.549c-2.221-0.089-4.492-0.176-5.947-2.07C300.39,451.198,302.189,448.171,300.658,445.909z"/>
	<path style="fill:#31459B;" d="M300.658,423.261c2.685-1.105,8.141-0.485,11.244-0.552c6.828-0.148,13.677-0.3,20.498-0.614
		c4.295-0.197,8.113-1.582,9.541,3.48c1.027,3.64-4.513,6.689-7.594,6.801c-3.029,0.11-6.053-0.146-9.101,0.002
		c-5.682,0.277-11.431,0.774-17.135,0.549c-2.221-0.087-4.492-0.176-5.947-2.07C300.39,428.548,302.189,425.523,300.658,423.261z"/>
	<path style="fill:#31459B;" d="M300.658,400.611c2.685-1.105,8.141-0.485,11.244-0.552c6.828-0.148,13.677-0.3,20.498-0.614
		c4.295-0.197,8.113-1.582,9.541,3.48c1.027,3.64-4.513,6.689-7.594,6.801c-3.029,0.11-6.053-0.146-9.101,0.002
		c-5.682,0.277-11.431,0.775-17.135,0.549c-2.221-0.089-4.492-0.176-5.947-2.07C300.39,405.9,302.189,402.873,300.658,400.611z"/>
	<path style="fill:#31459B;" d="M300.658,377.963c2.685-1.105,8.141-0.485,11.244-0.552c6.828-0.148,13.677-0.3,20.498-0.614
		c4.295-0.197,8.113-1.582,9.541,3.48c1.027,3.64-4.513,6.689-7.594,6.801c-3.029,0.11-6.053-0.146-9.101,0.002
		c-5.682,0.277-11.431,0.774-17.135,0.549c-2.221-0.089-4.492-0.176-5.947-2.07C300.39,383.25,302.189,380.225,300.658,377.963z"/>
	<path style="fill:#31459B;" d="M300.658,355.315c2.685-1.105,8.141-0.485,11.244-0.552c6.828-0.148,13.677-0.3,20.498-0.614
		c4.295-0.197,8.113-1.582,9.541,3.48c1.027,3.64-4.513,6.689-7.594,6.801c-3.029,0.11-6.053-0.146-9.101,0.002
		c-5.682,0.277-11.431,0.775-17.135,0.549c-2.221-0.089-4.492-0.176-5.947-2.07C300.39,360.602,302.189,357.575,300.658,355.315z"/>
	<path style="fill:#31459B;" d="M300.658,332.665c2.685-1.105,8.141-0.485,11.244-0.552c6.828-0.148,13.677-0.3,20.498-0.614
		c4.295-0.197,8.113-1.582,9.541,3.48c1.027,3.64-4.513,6.689-7.594,6.801c-3.029,0.11-6.053-0.146-9.101,0.002
		c-5.682,0.277-11.431,0.775-17.135,0.549c-2.221-0.087-4.492-0.176-5.947-2.07C300.39,337.953,302.189,334.927,300.658,332.665z"/>
	<path style="fill:#31459B;" d="M300.658,310.017c2.685-1.105,8.141-0.485,11.244-0.552c6.828-0.148,13.677-0.3,20.498-0.614
		c4.295-0.197,8.113-1.582,9.541,3.48c1.027,3.64-4.513,6.689-7.594,6.801c-3.029,0.11-6.053-0.146-9.101,0.002
		c-5.682,0.277-11.431,0.774-17.135,0.549c-2.221-0.087-4.492-0.176-5.947-2.07C300.39,315.304,302.189,312.277,300.658,310.017z"/>
	<path style="fill:#31459B;" d="M300.658,287.367c2.684-1.103,8.134-0.486,11.238-0.552c4.318-0.092,9.013,0.11,13.473-0.02
		c3.134-0.092,10.02-2.438,12.386-0.472c2.449,2.034,1.799,6.473-0.245,8.439c-3.072,2.954-8.442,1.537-12.264,1.723
		c-5.682,0.277-11.431,0.775-17.135,0.549c-2.221-0.089-4.492-0.176-5.947-2.07C300.39,292.655,302.189,289.629,300.658,287.367z"/>
	<path style="fill:#31459B;" d="M300.658,266.652c2.684-1.103,8.134-0.486,11.238-0.552c4.318-0.092,9.013,0.11,13.473-0.021
		c3.134-0.092,10.02-2.438,12.386-0.472c2.449,2.034,1.799,6.473-0.245,8.44c-3.072,2.954-8.442,1.537-12.264,1.723
		c-5.682,0.277-11.431,0.775-17.135,0.549c-2.221-0.087-4.492-0.176-5.947-2.07C300.39,271.94,302.189,268.913,300.658,266.652z"/>
	<path style="fill:#31459B;" d="M300.658,245.936c2.684-1.103,8.134-0.486,11.238-0.552c4.318-0.092,9.013,0.11,13.473-0.02
		c3.134-0.092,10.02-2.438,12.386-0.472c2.449,2.034,1.799,6.473-0.245,8.439c-3.072,2.954-8.442,1.537-12.264,1.723
		c-5.682,0.277-11.431,0.774-17.135,0.549c-2.221-0.088-4.492-0.176-5.947-2.07C300.39,251.224,302.189,248.198,300.658,245.936z"/>
	<path style="fill:#31459B;" d="M300.658,220.74c2.684-1.103,8.134-0.486,11.238-0.552c4.318-0.092,9.013,0.11,13.473-0.02
		c3.134-0.092,10.02-2.438,12.386-0.472c2.449,2.034,1.799,6.473-0.245,8.439c-3.072,2.954-8.442,1.537-12.264,1.723
		c-5.682,0.277-11.431,0.774-17.135,0.549c-2.221-0.087-4.492-0.176-5.947-2.07C300.39,226.028,302.189,223.001,300.658,220.74z"/>
	<path style="fill:#31459B;" d="M300.658,198.92c2.684-1.103,8.134-0.486,11.238-0.552c4.318-0.092,9.013,0.11,13.473-0.021
		c3.134-0.092,10.02-2.438,12.386-0.472c2.449,2.034,1.799,6.473-0.245,8.44c-3.072,2.954-8.442,1.537-12.264,1.723
		c-5.682,0.277-11.431,0.775-17.135,0.549c-2.221-0.088-4.492-0.176-5.947-2.07C300.39,204.207,302.189,201.182,300.658,198.92z"/>
	<path style="fill:#31459B;" d="M303.888,177.997c0.186-0.704,0.402-1.217,0.637-1.311c2.14-0.855,5.127-0.091,7.371-0.139
		c4.318-0.092,9.013,0.11,13.473-0.02c3.134-0.092,10.02-2.438,12.386-0.472c2.449,2.034,1.799,6.473-0.245,8.439
		c-3.072,2.954-8.442,1.537-12.264,1.723c-5.682,0.277-11.431,0.775-17.135,0.549c-2.962-0.118-4.652-0.194-4.921-3.482
		C303.141,182.681,303.424,179.749,303.888,177.997z"/>
	<path style="fill:#31459B;" d="M304.769,156.888c0.108-0.25,0.235-0.492,0.382-0.725c1.728-2.72,4.092-1.665,6.765-1.437
		c4.378,0.372,9.06,0.109,13.454-0.021c3.134-0.092,10.019-2.436,12.385-0.472c2.449,2.034,1.799,6.473-0.245,8.439
		c-3.072,2.954-8.442,1.537-12.264,1.723c-5.029,0.245-11.73,1.833-16.65,0.804C305.174,164.487,303.399,160.063,304.769,156.888z"
		/>
	<path style="fill:#31459B;" d="M306.094,135.63c0.427-1.033,1.061-1.928,1.861-2.488c1.765-1.237,4.929-0.26,7.081-0.261
		c3.446-0.002,6.89,0.105,10.335,0.003c3.135-0.093,10.018-2.436,12.384-0.472c2.449,2.034,1.799,6.473-0.245,8.44
		c-3.072,2.954-8.442,1.537-12.264,1.723c-4.772,0.233-12.792,2.263-17.327,0.541C305.298,142.122,304.957,138.385,306.094,135.63z"
		/>
</g>
<g>
	<path style="fill:#C1C1C1;" d="M323.273,2.941c0.378,9.207-2.612,18.671-2.613,28.04c-0.001,5.679,0,11.359,0,17.038
		c0,19.236-1.12,38.357-1.12,57.587c0,4.041-1.739,14.033,1.019,17.28c3.88,4.568,5.501-1.348,5.703-4.658
		c1.523-25.045,1.487-50.133,0.29-75.219c-0.473-9.902,0.432-19.752,0.464-29.633c0.008-2.6-0.272-5.865-0.751-8.425
		C325.44,0.544,324.721,1.14,323.273,2.941z"/>
	<path style="fill:#C1C1C1;" d="M343.437,123.924c15.006,0.562,30.476-2.471,45.58-2.613c3.747-0.036,17.574-3.245,16.419,3.515
		c-1.035,6.059-14.642,4.143-18.992,4.34c-8.837,0.402-17.623,0.271-26.409,1.106c-6.101,0.58-12.537,2.108-18.411,0.318
		C341.51,128.107,340.657,124.769,343.437,123.924z"/>
	<path style="fill:#C1C1C1;" d="M217.973,207.566c0.956-3.687,2.136-9.158,5.028-11.798c4.008-3.66,7.921-0.085,11.956,1.436
		c15.282,5.763,38.298,1.761,52.11-6.251c3.398-1.972,11.51-10.243,15.014-5.891c2.243,2.786,0.366,13.074,0.29,16.716
		c-0.123,5.892-3.914,5.851-8.797,6.133c-8.763,0.507-17.703,0.034-26.497-0.336c-11.761-0.495-23.463-0.009-35.246-0.009
		C227.413,207.566,220.165,206.363,217.973,207.566z"/>
	<path style="fill:#C1C1C1;" d="M236.644,163.504c0.367-4.411,6.142-9.695,9.911-11.59c6.308-3.171,8.537,1.203,14.271,3.29
		c8.51,3.097,21.264,0.988,29.139-2.904c3.873-1.914,7.137-4.671,10.454-7.382c1.488-1.215,2.012-2.727,4.128-2.64
		c0.375,6.591,0.892,14.79-0.373,21.17c-4.257,0.469-8.964-0.252-13.295-0.307c-7.817-0.1-15.645,0.373-23.468,0.363
		c-6.207-0.008-12.474,0.205-18.619-0.342C245.625,162.88,240.91,162.03,236.644,163.504z"/>
	<path style="fill:#C1C1C1;" d="M204.905,249.761c3.215-5.877,4.642-14.919,14.143-16.465c6.837-1.112,11.161,3.852,16.417,6.971
		c4.281,2.541,9.508,2.506,14.326,3.051c12.227,1.385,29.888,1.785,38.974-7.759c3.217-3.38,6.03-7.406,7.997-11.584
		c1.009-2.142,1.752-5.669,3.734-7.119c2.402,1.435,1.017,7.468,1.038,9.837c0.047,5.286-0.153,10.66,0.068,15.95
		c0.257,6.162,1.849,11.303-5.367,10.573c-11.381-1.153-22.907-0.384-34.287-0.459c-11.459-0.075-23.375-0.617-34.827,0.012
		c-5.181,0.285-10.667,0.234-15.859,0C209.219,252.675,203.104,253.248,204.905,249.761z"/>
	<path style="fill:#C1C1C1;" d="M196.689,296.062c0.846-5.088,1.867-12.906,5.179-16.848c4.416-5.256,11.741-3.846,16.127,0.087
		c5.966,5.35,9.728,10.819,18.085,12.438c7.943,1.539,17.713,0.91,25.559-0.97c11.719-2.807,23.736-12.477,30.55-22.154
		c0.926-1.315,3.587-7.499,5.021-7.952c3.097-0.978,3.922,4.047,4.046,6.056c0.38,6.105-1.428,12.851-1.881,18.972
		c-0.321,4.351-0.166,8.698-1.185,12.936c-9.12-1.359-18.911-0.658-28.114-0.754c-9.785-0.102-19.569-0.318-29.355-0.317
		c-6.888,0.001-13.718,0.357-20.62,0.373C213.488,297.944,202.78,298.744,196.689,296.062z"/>
	<path style="fill:#C1C1C1;" d="M191.462,341.245c-0.216-5.618,2.084-23.306,10.767-21.021c3.627,0.954,6.105,6.389,9.096,8.546
		c4.183,3.018,8.987,4.39,13.963,5.48c12.146,2.662,26.245,3.185,38.324,0.281c12.682-3.048,20.695-8.183,27.379-19.07
		c3.503-5.705,8.713-14.021,8.765-2.06c0.024,5.323-0.143,10.645-0.384,15.957c-0.123,2.711,0.82,8.383-0.734,10.785
		c-2.967,4.587-14.693,2.594-19.325,2.594c-11.388,0-22.654-0.537-33.968-1.119c-11.533-0.593-23.137,0.503-34.653,0.372
		C206.733,341.946,192.998,344.728,191.462,341.245z"/>
	<path style="fill:#C1C1C1;" d="M189.222,378.212c1.487-4.289,0.495-14.504,6.047-16.174c4.762-1.432,7.509,6.032,10.031,8.651
		c10.517,10.918,30.914,10.868,45.078,11.546c9.431,0.451,18.178-0.259,26.239-5.602c7.291-4.834,9.788-11.284,13.807-18.594
		c1.378-2.506,4.624-11.669,7.457-10.171c2.734,1.445,2.86,9.996,2.634,12.516c-0.84,9.344-1.861,18.872-2.985,27.768
		c-4.434-3.581-15.132-0.119-20.432-0.633c-9.698-0.94-19.022-0.698-28.825-0.718c-9.178-0.019-18.183,1.666-27.33,1.121
		c-7.194-0.428-14.401-0.378-21.636-0.745C193.081,386.861,188.91,385.286,189.222,378.212z"/>
	<path style="fill:#C1C1C1;" d="M194.823,427.127c0.336-4.421-4.322-23.071,5.891-15.785c3.551,2.533,5.571,6.849,8.865,9.632
		c4.15,3.505,10.706,4.182,15.846,4.472c8.022,0.454,16.455-0.268,24.514-0.642c7.378-0.343,14.274-1.224,20.954-4.575
		c6.426-3.224,12.14-6.862,16.634-12.591c2.587-3.297,6.176-13.278,10.663-14.329c6.032-1.413,4.11,15.831,4.145,19.429
		c0.058,6.132,3.597,18.608-3.782,20.063c-4.178,0.824-8.705-0.623-12.968-0.829c-5.953-0.288-11.996,0.009-17.959,0.009
		c-5.94,0-11.679,0.141-17.54,0.373c-8.449,0.334-17.66,0-26.473,0c-7.225,0-14.406,0.311-21.6,0.373
		C196.751,432.774,195.438,432.274,194.823,427.127z"/>
	<path style="fill:#C1C1C1;" d="M202.664,451.771c-2.603-4.378-4.3-14.558,3.104-11.2c8.902,4.037,17.202,7.036,27.267,7.486
		c19.699,0.88,38.028,0.764,56.52-6.833c3.091-1.27,10.347-6.641,11.995-1.437c0.996,3.143-2.169,11.344-4.604,13.104
		c-4.056,2.93-12.862,3.139-17.644,3.361c-8.063,0.374-16.408,1.062-24.455,0.747c-11.801-0.463-23.813-0.932-35.605-1.855
		C215.259,454.831,204.636,454.887,202.664,451.771z"/>
	<path style="fill:#C1C1C1;" d="M340.089,464.647c-0.344-5.302-2.413-10.949-8.601-8.133c-2.649,1.205-4.605,4.413-6.824,6.205
		c-3.429,2.769-7.42,3.97-11.659,5.025c-11.668,2.904-23.937,2.374-35.802,4.377c-22.184,3.746-44.78,3.809-67.182,2.426
		c-7.743-0.477-15.517-0.905-23.175-2.211c-5.403-0.922-14.893-1.83-19.058-5.472c-0.333-0.29-0.647-0.599-0.945-0.924
		c-6.085-6.644-5.263-20.296-5.253-28.387c0.025-20.756-3.023-41.853-1.124-62.561c0.367-3.999,0.93-7.948,1.213-11.953
		c2.123-29.965,4.894-59.939,11.777-89.271c3.131-13.344,6.383-26.63,10.519-39.729c8.416-26.652,19.228-53.472,32.933-77.878
		c7.717-13.744,18.822-26.584,28.331-39.157c6.892-9.112,15.85-17.066,23.424-25.763c3.096-3.556,9.511-8.832,12.893-13.865
		c3.137-2.731,6.251-4.796,9.22-5.365c6.06-1.162,5.76,5.175,5.971,9.564c0.344,7.153,0.089,14.046,0.015,21.274
		c-0.048,4.592,0.24,9.235,0.019,13.819c-0.104,2.149-1.283,5.418,0.338,6.908c2.174,1.998,12.591,1.979,14.432-0.027
		c3.576-3.899-2.402-7.308-4.341-10.465c-3.293-5.361-0.662-14.312-0.035-20.162c0.602-5.616,1.313-11.465,1.181-17.116
		c-0.09-3.803,0.105-11.347-2.644-14.297c-5.555-5.962-11.939,3.368-16.382,5.954c-7.237,4.212-14.208,7.914-20.525,13.553
		c-12.766,11.396-24.245,25.019-35.193,38.123c-13.304,15.925-26.136,32.399-36.462,50.448
		c-10.165,17.768-15.57,36.876-22.583,55.937c-10.947,29.752-15.1,61.347-19.243,92.559c-4.485,33.797-6.048,67.429-4.532,101.433
		c0.474,10.635-0.365,21.527,0.705,32.084c0.584,5.753-1.313,11.502-0.779,17.194c0.33,3.514,0.912,10.13,3.029,13.046
		c4.393,6.048,14.788,1.464,20.915,2.48c3.812,0.632,7.928-0.807,11.815-0.493c6.654,0.538,13.339,0.414,20.002,0.782
		c28.574,1.577,57.969,1.811,86.503-0.456c7.474-0.594,14.973-0.711,22.458-1.113c5.275-0.285,13.391,2.762,18.041,0.195
		C341.113,479.019,340.579,472.181,340.089,464.647z"/>
	<path style="fill:#C1C1C1;" d="M362.854,132.886c1.366,6.331-0.342,12.724-0.373,19.219c-0.032,6.776-0.735,13.659-0.373,20.397
		c0.361,6.72-0.175,13.422,0.083,20.207c0.636,16.749,0.621,33.479,0.664,50.366c0.026,9.834,0.907,19.655,1.457,29.46
		c0.55,9.815,1.488,19.733,1.528,29.559c0.034,8.357,0.507,16.142,1.934,24.214c1.322,7.481-0.817,15.311-0.811,22.825
		c0.027,33.536-4.958,67.13-3.278,100.613c0.314,6.241,0.887,12.322,1.027,18.588c0.105,4.707,1.318,10.147-0.048,14.753
		c-2.48-0.302-3.731,1.534-5.746-0.134c-1.757-1.454-1.278-3.765-1.293-5.793c-0.045-6.218,0-12.44,0-18.658
		c0-11.966,1.466-23.729,1.95-35.588c0.472-11.546,1.023-22.939,1.037-34.664c0.013-10.63-1.962-21.086-1.502-31.716
		c0.408-9.422,0.459-18.853,0.431-28.282c-0.024-8.005,1.697-16.403,0.319-24.347c-2.823-16.274,0.083-33.833-1.499-50.42
		c-0.804-8.436-1.052-16.886-1.498-25.378c-0.636-12.099,0.785-24.178,0.761-36.226c-0.024-10.839-0.944-21.833-0.375-32.485
		c0.305-5.691,0.375-11.361,0.375-17.101c0-5.379-1.611-9.834,5.115-9.381C362.961,133.246,362.998,133.61,362.854,132.886z"/>
</g>
<path style="fill:#E2BB6D;" d="M205.651,484.258c-11.59,0-23.172-0.073-34.734,0.374c-9.393,0.364-18.743-0.435-28.171,0.03
	c-11.072,0.547-21.765,0.599-32.314,4.46c-5.367,1.964-19.196,8.632-19.37,15.606c3.286,1.369,8.444,0.644,11.982,0.833
	c8.935,0.477,18.362,0.334,27.335,0c17.635-0.656,35.983-1.529,53.632-0.019c18.171,1.554,36.582,1.49,54.821,1.493
	c22.566,0.004,45.11,0.51,67.679,0.009c21.84-0.485,43.694,0.365,65.579,0.365c9.673,0,19.362-0.099,28.991,0.701
	c3.827,0.318,14.496,2.86,17.877,0.391c4.859-3.548-4.51-11.545-7.464-13.6c-10.081-7.018-24.873-9.135-36.89-9.708
	c-26.573-1.267-53.117-2.053-79.762-2.053C266.811,483.137,238.873,484.632,205.651,484.258z"/>
<path style="fill:#D39C59;" d="M92.884,504.048c3.597-9.824,16.781-15.722,26.512-16.803c12.141-1.349,24.605-1.264,36.769-1.865
	c8.226-0.407,16.136,1.543,24.102,3.342c14.824,3.347,29.463,6.85,44.649,8.336c21.983,2.15,44.031,1.72,66.058,2.694
	c22.678,1.005,45.355,1.995,68.055,2.056c13.474,0.036,26.835-1.964,40.314-1.409c3.03,0.124,15.832-0.858,17.954,2.159
	c2.883,4.102-5.015,4.318-7.077,4.481c-10.826,0.852-22.096,0.111-32.923-0.758c-13.615-1.094-26.918-0.006-40.498,0.01
	c-11.089,0.012-22.171-0.737-33.284-0.747c-17.215-0.015-34.377,1.276-51.62,1.129c-28.583-0.243-57.156,1.867-85.708,0.655
	c-17.605-0.747-35.081-2.92-52.725-1.503c-4.668,0.375-10.267,1.811-14.949,0.84C94.646,505.861,95.003,503.964,92.884,504.048z"/>
<path d="M421.615,500.287c-2.636-5.51-8.098-11.051-13.937-12.896c-7.055-2.229-14.871-4.032-22.225-4.872
	c-3.858-0.441-7.723-0.789-11.591-1.075c0.913-23.445-0.147-47.161-0.21-70.611c-0.031-11.619,0.55-23.154,0.548-34.788
	c-0.002-12.756,0.025-25.512-0.009-38.268c-0.026-9.889-0.883-19.684-1.154-29.533c-0.28-10.149-1.166-20.323-1.121-30.439
	c0.05-11.321-2.061-22.747-1.95-34.06c0.111-11.38,0.712-22.671,0.712-34.052c0-13.518-0.039-27.035-0.022-40.553
	c0.008-6.21-0.634-12.329-0.667-18.551c-0.029-5.507,0.134-11.052-0.495-16.523c4.681-0.137,9.357-0.306,14.053-0.593
	c6.566-0.4,14.21,0.751,20.576-1.315c5.417-1.758,3.786-7.262,3.617-11.932c-0.147-4.036-0.532-8.866-5.399-8.861
	c-5.881,0.007-11.897,1.181-17.769,1.622c-7.521,0.566-15.341,0.533-22.9,0.518c-3.273-0.007-6.603-0.202-9.86,0.128
	c-2.238,0.226-5.024,0.114-7.502,0.419c-0.26-10.323-0.754-20.658-0.748-30.974c0.002-4.584,0.431-9.378-0.142-13.928
	c-0.494-3.917-0.025-7.813-0.455-11.727c-0.287-2.607-1.159-5.578-3.613-6.98c-1.667-0.953-3.427-0.614-5.143,0.021
	c-0.235-11.553-0.333-23.123,0.56-34.511c0.346-4.413,1.866-11.925-2.839-14.476c-3.572-1.937-8.804-2.478-10.952,1.583
	c-1.354,2.559-1.135,5.868-1.231,8.674c-0.129,3.742-0.395,7.373-0.465,11.153c-0.087,4.744-0.577,9.652-0.541,14.503
	c-2.085-0.115-4.499,0.702-6.741,1.936c-6.474,3.561-12.384,6.852-18.368,11.204c-3.622,2.634-7.583,4.844-11.171,7.47
	c-3.028,2.217-5.582,4.978-8.765,7.029c-4.528,2.918-9.219,6.7-13.367,10.538c-0.08,0.063-0.161,0.122-0.24,0.186
	c-3.2,2.557-5.853,5.676-9.093,8.212c-2.851,2.231-5.515,4.435-7.91,7.163c-1.619,1.844-3.25,3.678-4.884,5.508
	c-0.672,0.674-1.343,1.35-2.003,2.039c-0.105,0.11-0.141,0.232-0.131,0.347c-8.964,10.01-17.976,19.971-25.987,30.743
	c-4.986,6.704-10.795,12.732-15.588,19.637c-4.657,6.71-8.627,13.895-13.678,20.294c-9.688,12.272-16.207,27.869-21.31,42.53
	c-1.22,3.506-3.207,6.55-4.682,9.977c-1.841,4.275-3.48,8.639-5.317,12.921c-3.539,8.254-4.854,17.25-7.24,25.862
	c-2.197,7.931-3.175,16.516-4.267,24.67c-1.217,9.077-2.683,18.134-3.994,27.207c-2.736,18.932-2.548,37.548-2.715,56.623
	c-0.18,20.561,1.665,41.042,4.398,61.424c1.34,9.995,4.302,19.432,6.265,29.279c0.916,4.596,2.873,9.001,4.192,13.524
	c0.739,2.535,2.248,5.371,3.403,8.166c-12.944,0.056-26.239-0.576-38.565,3.319c-2.347,0.742-4.787,1.408-7.069,2.411
	c-2.878,1.264-4.691,3.746-6.917,5.844c-2.696,2.543-8.919,7.65-7.773,11.955c1.192,4.48,7.578,3.172,10.942,3.297
	c9.111,0.338,18.135,0.671,27.265,0.669c9.155-0.003,18.225,0.782,27.379,0.814c8.154,0.028,16.54-0.511,24.659,0.243
	c8.614,0.8,17.12,0.313,25.754,0.372c4.43,0.03,8.796,0.83,13.239,0.865c4.789,0.038,9.555,0.011,14.342,0.23
	c8.357,0.38,16.562-0.366,24.899-0.258c9.063,0.118,18.398,0.547,27.434-0.164c21.347-1.679,43.301-0.395,64.725-0.392
	c5.375,0.001,10.849-0.28,16.202,0.202c4.918,0.442,9.58-0.127,14.496-0.229c8.436-0.177,16.968,1.765,25.068-0.587
	c3.668,0.301,7.412,0.811,11.008,0.57C423.217,510.594,424.159,505.602,421.615,500.287z M370.016,328.948
	c0.85,12.255-0.002,24.878-0.004,37.165c-0.002,12.006-0.479,23.988-0.587,35.951c-0.236,26.285,0.994,52.813-0.062,79.082
	c-3.189-0.192-6.381-0.353-9.574-0.461c0.175-9.53,0.98-18.983,1.117-28.51c0.168-11.717-0.58-23.545,0.136-35.243
	c0.751-12.257,1.028-24.496,1.026-36.778c-0.001-12.093,0.625-24.139,0.563-36.272c-0.231-45.031-3.166-89.794-3.861-134.784
	c-0.204-13.182,0.518-26.308,0.449-39.513c-0.06-11.703-0.655-23.543-0.196-35.238c0.037-0.001,0.071,0,0.108-0.001
	c2.475-0.066,4.94-0.13,7.405-0.195c-1.288,10.074-0.36,20.383,0.059,30.443c0.503,12.07-0.041,24.288-0.044,36.37
	c-0.002,11.203-0.587,22.353-0.588,33.522c-0.002,11.727,0.799,23.329,1.185,35.051c0.344,10.448,1.67,20.941,1.745,31.388
	C368.958,310.315,369.368,319.609,370.016,328.948z M344.569,118.954c3.375,0.325,6.852-0.608,10.295-0.697
	c6.026-0.155,12.17,0.427,18.164-0.25c5.57-0.63,11.167-0.567,16.743-1.05c2.5-0.216,5.147-0.502,7.65-0.518
	c0.59-0.003,2.988-0.272,3.605-0.037c0.421-0.065,0.841-0.129,1.262-0.194c0.422,1.034,0.605,2.096,0.546,3.185
	c0.086,1.297,0.67,6.403-0.101,7.302c-1.038,1.211-5.804,1.124-7.425,1.162c-7.111,0.168-14.334-0.08-21.434,0.432
	c-6.24,0.45-12.486,0.884-18.766,0.957c-3.472,0.04-7.195-0.762-10.78-0.771C345.321,125.892,344.877,122.12,344.569,118.954z
	 M356.556,134.365c-1.624,9.42-0.568,19.785-0.627,29.252c-0.073,11.53-0.579,22.999-0.874,34.488
	c-0.285,11.109,0.335,22.2,0.682,33.26c0.375,11.971-0.164,24.111,0.748,36.052c3.549,46.456,1.976,93.604,0.658,140.183
	c-0.393,13.87-0.595,27.695-0.612,41.586c-0.012,10.482-0.932,20.893-1.126,31.377c-3.824-0.089-7.652-0.132-11.482-0.131
	c-0.104-1.732,0.263-3.557,0.162-5.265c-0.16-2.722-0.264-5.052-0.065-7.789c0.262-3.594-0.056-7.19-0.063-10.786
	c-0.007-3.326,0.542-6.576,0.575-9.898c0.157-15.585-0.095-31.195-0.133-46.782c-0.035-14.091-0.095-28.174-0.62-42.21
	c-0.217-5.827,0.645-11.739,0.096-17.539c-0.675-7.137-0.176-14.196-0.754-21.316c-1.038-12.802-1.301-25.778-1.703-38.614
	c-0.026-0.809-0.027-1.621-0.048-2.431c0.092-0.002,0.183-0.003,0.274-0.006c-0.124-1.13-0.235-2.263-0.343-3.395
	c-0.246-12.76-0.027-25.602,0.682-38.284c0.35-6.246,0.448-12.558,0.542-18.813c0.048-3.162,0.607-6.265,0.672-9.421
	c0.074-3.556-0.776-6.989-0.851-10.52c-0.137-6.439,0.132-12.922,0.123-19.368c-0.009-6.711-0.653-13.328-0.607-20.041
	c0.034-4.889-0.338-9.716-0.502-14.578c0.008,0,0.016,0,0.024,0c-0.013-0.232-0.033-0.464-0.046-0.696
	c-0.047-1.6-0.071-3.205-0.044-4.817c0.03-1.82,0.068-3.763-0.106-5.666C346.267,133.659,351.204,134.321,356.556,134.365z
	 M336.069,476.85c0.015,1.246-0.111,2.447-0.151,3.635c-21.286,0.285-42.626,1.555-63.892,1.881
	c-5.481,0.084-10.981,0.509-16.457,0.515c-1.376,0.001-2.742-0.052-4.107-0.124c-1.762-0.31-3.524-0.614-5.349-0.683
	c-4.297-0.164-8.612-0.148-12.912-0.239c-8.832-0.185-17.66-0.94-26.464-0.419c-8.966,0.53-18.259,0.973-27.203,0.146
	c-2.868-0.266-5.697-0.344-8.515-0.327c-0.021-0.476-0.157-0.979-0.476-1.498c-1.342-2.178-1.821-6.45-2.378-8.936
	c-0.915-4.088-1.387-8.322-1.73-12.481c-0.037-0.447-0.056-0.894-0.09-1.341c5.09,0.259,10.251,0.192,15.164,0.192
	c7.781,0,15.551-0.249,23.327-0.393c1.352,0.571,2.804,0.995,4.316,1.282c7.338,1.39,14.778,1.784,22.228,1.728
	c4.289-0.033,8.585-0.166,12.876-0.136c3.621,0.026,7.261,0.919,10.853,0.532c8.026-0.864,16.326-0.392,24.426-0.383
	c5.815,0.008,13.576,1.243,19.045-1.406c0.643-0.311,1.213-0.661,1.735-1.036c12.057,0.058,24.121,0.015,36.168-0.216
	c-0.11,3.878-0.251,7.759-0.68,11.564C335.481,471.581,336.036,474,336.069,476.85z M334.664,161.664
	c-8.954-0.158-17.917-0.215-26.878-0.206c0.17-3.889,0.329-7.78,0.451-11.673c0.064-2.034,0.139-4.054,0.207-6.072
	c8.763,0.007,17.528-0.05,26.284-0.205C334.764,149.557,334.559,155.629,334.664,161.664z M305.468,430.303
	c-0.059-0.633-0.134-1.264-0.23-1.895c-0.348-5.289-0.728-10.555-0.889-15.848c10.916,0.032,21.836-0.029,32.743-0.244
	c0.089,6.075,0.183,12.163,0.171,18.239C326.673,430.344,316.069,430.277,305.468,430.303z M297.92,448.325
	c-0.953,3.795-3.67,4.297-7.163,4.436c-0.799,0.032-1.601,0.036-2.401,0.055c-1.853,0.018-3.705,0.034-5.556,0.054
	c-4.043-0.016-8.09-0.097-12.117-0.093c-3.679,0.004-7.456,0.251-11.202,0.388c-1.89,0.025-3.781,0.049-5.671,0.073
	c-0.649-0.012-1.297-0.027-1.938-0.059c-12.686-0.633-25.418,0.314-38.064-1.092c-2.813-0.313-6.138-0.338-8.611-1.909
	c-0.274-0.174-0.522-0.364-0.759-0.562c-1.74-4.918-2.982-10.009-3.994-15.158c2.952-0.066,5.905-0.127,8.86-0.16
	c18.175-0.206,36.342,0.03,54.516,0.277c11.627,0.158,23.29,0.306,34.963,0.372c-0.067,1.215-0.132,2.431-0.211,3.646
	C298.375,441.631,298.658,445.386,297.92,448.325z M263.819,430.704c-18.173,0.248-36.341,0.483-54.516,0.277
	c-3.181-0.036-6.362-0.108-9.542-0.183c-0.883-5.023-1.6-10.077-2.348-15.067c-1.274-8.492-2.183-17.286-2.759-25.953
	c4.882-0.108,9.763-0.233,14.648-0.288c18.175-0.206,36.342,0.03,54.516,0.277c11.164,0.151,22.361,0.292,33.567,0.358
	c0.385,13.406,0.839,26.809,1.467,40.207C287.157,430.397,275.469,430.546,263.819,430.704z M194.297,383.852
	c-0.622-12.926-1.003-25.918-0.513-38.866c5.172-0.111,10.343-0.246,15.518-0.306c18.175-0.206,36.342,0.03,54.516,0.277
	c10.831,0.148,21.693,0.283,32.566,0.352c0.104,8.361,0.244,16.72,0.462,25.069c0.131,5.053,0.264,10.107,0.404,15.16
	c-11.161,0.066-22.313,0.205-33.432,0.356c-18.173,0.248-36.341,0.483-54.516,0.277c-4.964-0.056-9.924-0.192-14.884-0.304
	C194.383,385.198,194.33,384.52,194.297,383.852z M196.625,315.985c0.887-5.266,1.519-10.589,2.144-15.915
	c3.51-0.081,7.021-0.158,10.534-0.198c18.175-0.206,36.342,0.03,54.516,0.277c10.783,0.147,21.598,0.283,32.422,0.352
	c-0.067,13.416-0.055,26.829,0.084,40.234c-10.851,0.068-21.695,0.205-32.506,0.352c-18.173,0.248-36.341,0.483-54.516,0.277
	c-5.117-0.058-10.23-0.199-15.344-0.314C194.396,332.662,195.225,324.296,196.625,315.985z M201.31,281.516
	c1.583-8.856,3.362-17.655,5.36-26.408c0.877-0.013,1.754-0.035,2.632-0.045c18.175-0.206,36.342,0.03,54.516,0.277
	c10.934,0.149,21.901,0.287,32.877,0.355c-0.19,13.402-0.344,26.814-0.429,40.229c-10.834,0.069-21.657,0.207-32.448,0.353
	c-18.173,0.248-36.341,0.483-54.516,0.277c-3.366-0.038-6.73-0.115-10.094-0.196C199.801,291.388,200.434,286.424,201.31,281.516z
	 M212.588,232.059c1.566-5.532,3.758-10.979,5.006-16.552c0.397-1.773,0.848-3.542,1.322-5.306
	c14.968-0.053,29.933,0.129,44.903,0.333c11.717,0.159,23.471,0.307,35.233,0.369c-1.023,10.187-1.987,20.374-2.144,30.553
	c-0.049,3.218-0.096,6.44-0.143,9.661c-10.999,0.068-21.989,0.206-32.945,0.355c-18.173,0.246-36.341,0.483-54.516,0.277
	c-0.613-0.007-1.225-0.022-1.838-0.031c0.268-1.134,0.521-2.271,0.796-3.403C209.592,242.838,211.052,237.484,212.588,232.059z
	 M228.669,182.933c2.498-5.807,5.304-11.768,8.441-17.501c8.902,0.062,17.805,0.173,26.709,0.293
	c12.873,0.175,25.789,0.342,38.716,0.39c-0.398,5.92-0.84,11.841-1.154,17.765c-0.395,7.466-1.116,14.938-1.865,22.411
	c-11.918,0.059-23.826,0.211-35.697,0.372c-14.674,0.199-29.343,0.379-44.015,0.337
	C222.205,198.798,225.317,190.724,228.669,182.933z M334.146,241.443c-0.212,3.245-0.19,6.539-0.128,9.83
	c-10.346-0.177-20.704-0.225-31.058-0.19c0.009-2.001,0.031-4.004,0.031-6.003c0-3.92,0.114-7.839,0.299-11.759
	c10.486,0.035,20.977-0.015,31.457-0.199C334.543,235.901,334.327,238.681,334.146,241.443z M335.381,220.951
	c-0.043,2.637-0.183,5.286-0.35,7.937c-10.49-0.188-20.991-0.239-31.488-0.206c0.357-5.919,0.845-11.84,1.341-17.759
	c10.334,0.026,20.67-0.035,30.994-0.227C335.734,214.111,335.436,217.532,335.381,220.951z M335.628,201.792
	c0.204,1.567,0.298,3.137,0.323,4.708c-10.219-0.192-20.449-0.252-30.678-0.23c0.491-5.917,0.95-11.833,1.256-17.749
	c9.6,0.016,19.204-0.045,28.795-0.22C335.209,192.811,335.05,197.361,335.628,201.792z M302.455,362.272
	c-0.093-5.636,0.023-11.288,0.027-16.927c11.349,0.04,22.702-0.021,34.04-0.243c0.026,4.188-0.181,8.378-0.097,12.602
	c0.038,1.879,0.076,3.758,0.114,5.638c-11.348-0.218-22.711-0.272-34.069-0.23C302.466,362.836,302.459,362.546,302.455,362.272z
	 M302.469,322.932c11.164,0.04,22.334-0.012,33.489-0.224c0.036,4.973-0.425,9.937,0.159,14.912c0.13,1.108,0.211,2.215,0.274,3.32
	c-11.294-0.22-22.605-0.28-33.909-0.24L302.469,322.932z M335.789,318.527c-11.1-0.208-22.214-0.262-33.323-0.222l-0.006-7.969
	c-0.002-3.265,0.027-6.532,0.046-9.798c10.808,0.039,21.62-0.015,32.42-0.208C335.104,306.4,335.312,312.47,335.789,318.527z
	 M304.27,407.91c-0.002-0.816,0-1.631,0.013-2.448c0.084-5.07-0.035-10.193-0.285-15.304c10.985,0.031,21.974-0.035,32.947-0.252
	c0.017,2.619,0.033,5.239,0.026,7.859c-0.009,3.451,0.024,6.918,0.067,10.39C326.124,407.94,315.194,407.877,304.27,407.91z
	 M303.73,385.508c-0.188-2.899-0.402-5.789-0.662-8.655c-0.264-2.913-0.4-6.035-0.49-9.113c11.351,0.041,22.706-0.012,34.047-0.232
	c0.121,6.078,0.225,12.163,0.289,18.253C325.86,385.542,314.793,385.475,303.73,385.508z M334.221,282.093
	c0.288,4.661,0.445,9.33,0.582,13.999c-10.752-0.192-21.516-0.243-32.274-0.204c0.048-5.92,0.114-11.842,0.187-17.762
	c10.446,0.038,20.896-0.006,31.336-0.183C334.086,279.331,334.135,280.714,334.221,282.093z M302.767,273.491
	c0.073-5.924,0.128-11.844,0.168-17.762c10.391,0.036,20.785-0.013,31.169-0.192c0.026,1.338,0.046,2.672,0.045,3.999
	c-0.003,4.687-0.155,9.421-0.156,14.139C323.592,273.498,313.177,273.454,302.767,273.491z M335.393,184.024
	c0,0.02-0.001,0.039-0.001,0.059c-9.541-0.174-19.093-0.234-28.643-0.22c0.263-5.918,0.553-11.831,0.828-17.744
	c9.077,0.01,18.154-0.048,27.222-0.209C335.083,171.971,335.401,177.93,335.393,184.024z M304.384,131.115
	c-0.323,2.135-0.325,4.29-0.356,6.443c-0.076,5.179-0.581,10.301-0.771,15.475c-0.102,2.811-0.252,5.62-0.421,8.43
	c-13.027,0.046-26.044,0.215-39.017,0.391c-8.284,0.112-16.566,0.217-24.847,0.281c1.78-3.063,3.652-6.045,5.646-8.858
	c3.597-5.075,7.486-10.706,11.831-15.153c1.619-1.658,3.487-3.053,4.998-4.817c1.124-1.312,1.961-2.836,2.891-4.286
	c3.721-0.119,7.452-0.315,11.157-0.22c4.443,0.114,9.289-0.738,13.642-0.132c2.919,0.407,5.218-0.168,8.16-0.181
	c2.609-0.011,5.18-0.208,7.771-0.329C304.848,129.221,304.506,130.301,304.384,131.115z M295.083,85.625
	c-0.372,12.041-1.018,24.145-0.64,36.125c-6.591,0.411-13.268,0.913-19.979,0.999c-7.613,0.097-15.119,0.883-22.66,0.679
	c-2.163-0.058-5.147,0.168-8.024,0.79c0.837-1.075,1.685-2.143,2.563-3.191c4.864-5.803,9.831-11.525,14.818-17.224
	c6.207-7.094,11.974-15.554,19.564-21.25c0.999-0.749,1.997-1.571,3.001-2.425c1.973-1.68,4.859-2.242,6.871-3.925
	c1.442-1.206,3.394-2.886,4.104-1.124c0.068,0.17,0.125,0.373,0.169,0.613C295.441,78.788,295.18,82.454,295.083,85.625z
	 M253.862,128.837c2.103,0.206,4.219,0.263,6.341,0.258c-3.578,3.09-6.774,6.795-9.764,10.514
	c-6.163,0.069-12.327,0.122-18.491,0.15c2.845-3.411,5.444-6.999,8.076-10.568C244.635,129.451,249.106,128.371,253.862,128.837z
	 M229.373,142.997c6.093,0.02,12.187,0.068,18.28,0.133c-0.698,0.892-1.391,1.776-2.074,2.637
	c-4.108,5.187-7.508,10.717-10.715,16.388c-5.839,0.034-11.678,0.039-17.518,0.01C220.946,155.511,224.804,148.983,229.373,142.997z
	 M215.611,165.419c5.812-0.036,11.623-0.034,17.435-0.004c-1.503,2.727-2.985,5.473-4.499,8.226
	c-1.959,3.565-3.716,7.229-5.325,10.961c-4.639,0-9.278-0.015-13.917-0.067c-1.213-0.013-2.425-0.044-3.637-0.068
	c1.467-2.835,2.945-5.653,4.411-8.445C211.918,172.514,213.74,168.96,215.611,165.419z M203.877,187.954
	c1.808-0.038,3.616-0.082,5.425-0.102c4.197-0.048,8.395-0.06,12.592-0.065c-2.54,6.263-4.706,12.696-6.713,19.186
	c-1.959-0.012-3.919-0.011-5.879-0.034c-4.756-0.054-9.509-0.169-14.263-0.273C197.725,200.328,200.748,194.093,203.877,187.954z
	 M191.44,215.826c0.63-1.762,1.296-3.516,1.99-5.263c5.291-0.112,10.58-0.248,15.874-0.307c1.628-0.019,3.255-0.017,4.883-0.028
	c-1.923,6.376-3.74,12.78-5.649,19.102c-7.237-0.093-14.464-0.33-21.7-0.41C188.342,224.519,189.895,220.149,191.44,215.826z
	 M185.432,233.09c7.362-0.071,14.717-0.293,22.08-0.4c-0.412,1.329-0.83,2.653-1.256,3.97c-1.591,4.926-2.896,9.928-4.084,14.962
	c-6.517-0.145-13.03-0.342-19.552-0.342c-0.816,0-1.659-0.004-2.486-0.007C181.633,245.161,183.45,239.094,185.432,233.09z
	 M178.052,260.949c0.322-1.808,0.687-3.612,1.079-5.413c0.796-0.002,1.593-0.004,2.378-0.004c6.616,0,13.223-0.184,19.834-0.328
	c-1.254,5.56-2.405,11.146-3.655,16.701c-0.15,0.669-0.301,1.336-0.451,2.003c-4.871-0.115-9.741-0.225-14.617-0.225
	c-2.397,0-4.854-0.008-7.327-0.003C176.283,269.447,177.291,265.222,178.052,260.949z M172.814,285.453
	c0.428-2.525,0.952-5.03,1.509-7.526c2.428,0.012,4.838,0.009,7.187,0.009c4.968,0,9.932-0.103,14.894-0.216
	c-0.706,3.356-1.311,6.725-1.618,10.16c-0.252,2.817-0.715,5.59-1.219,8.353c-3.647-0.08-7.296-0.147-10.947-0.147
	c-3.662,0-7.447-0.024-11.241,0.054C171.777,292.578,172.21,289.016,172.814,285.453z M169.857,309.208
	c0.416-2.981,0.747-5.96,1.071-8.937c3.575,0.081,7.138,0.071,10.583,0.071c3.778,0,7.554-0.066,11.329-0.145
	c-0.438,2.393-0.85,4.792-1.127,7.22c-0.425,3.729-0.929,7.445-1.435,11.157c-2.551-0.047-5.103-0.083-7.654-0.083
	c-4.538,0-9.265-0.058-13.967,0.108C169.025,315.46,169.422,312.328,169.857,309.208z M168.216,322.606
	c4.477,0.172,8.978,0.14,13.294,0.14c2.739,0,5.477-0.038,8.213-0.086c-0.768,5.711-1.483,11.426-1.872,17.192
	c-0.025,0.364-0.035,0.727-0.056,1.091c-1.724-0.024-3.449-0.046-5.174-0.046c-5.236,0-10.723-0.084-16.131,0.196
	C166.966,334.909,167.54,328.744,168.216,322.606z M166.209,344.936c5.133,0.274,10.341,0.214,15.299,0.214
	c2.029,0,4.057-0.022,6.085-0.052c-0.158,4.587-0.156,9.172-0.169,13.774c-0.004,1.483-0.039,2.971-0.082,4.463
	c-1.574-0.021-3.147-0.035-4.722-0.035c-5.684,0-11.667-0.106-17.521,0.267C165.4,357.356,165.767,351.142,166.209,344.936z
	 M164.921,367.272c5.547,0.358,11.214,0.281,16.588,0.281c1.904,0,3.809-0.019,5.712-0.045c-0.092,3.408-0.128,6.816,0.143,10.191
	c0.215,2.668,0.401,5.357,0.585,8.053c-1.776-0.025-3.552-0.047-5.329-0.047c-5.971,0-12.27-0.117-18.404,0.326
	C164.411,379.797,164.639,373.542,164.921,367.272z M164.101,389.615c5.808,0.422,11.769,0.343,17.408,0.343
	c2.242,0,4.483-0.022,6.723-0.057c0.418,6.113,0.875,12.245,1.631,18.283c-2.413-0.043-4.827-0.075-7.242-0.075
	c-6.163,0-12.679-0.125-19,0.37C163.71,402.183,163.913,395.914,164.101,389.615z M181.509,412.361c2.975,0,5.947-0.044,8.919-0.099
	c0.025,0.164,0.044,0.329,0.069,0.494c0.878,5.684,1.453,11.816,2.368,17.889c-3.414-0.073-6.829-0.132-10.245-0.132
	c-5.777,0-11.862-0.105-17.807,0.29c-0.525-5.454-1.243-10.86-1.241-16.37c0.001-0.819,0.015-1.633,0.02-2.45
	C169.56,412.448,175.706,412.361,181.509,412.361z M181.509,434.766c4.007,0,8.009-0.073,12.012-0.158
	c0.744,4.088,1.707,8.097,3.103,11.869c0.145,0.757,0.319,1.507,0.553,2.242c0.562,1.767,1.428,3.247,2.519,4.482
	c-5.692-0.134-11.381-0.283-17.078-0.283c-5.365,0-10.996-0.093-16.535,0.207c-0.356-6.195-0.513-12.388-0.951-18.591
	c-0.001-0.012-0.002-0.026-0.003-0.038C170.612,434.837,176.204,434.766,181.509,434.766z M336.816,447.782
	c-0.099,1.712-0.162,3.436-0.215,5.166c-10.893-0.211-21.802-0.273-32.706-0.239c0.999-2.5,1.251-5.402,1.386-8.372
	c0.147-3.209,0.364-6.309,0.374-9.363c10.53,0.025,21.063-0.043,31.582-0.252C337.187,439.092,337.065,443.448,336.816,447.782z
	 M335.899,54.379c3.38,1.659,2.556,6.029,2.466,9.367c-0.184,6.73,0.6,13.568,0.604,20.364c0.003,8.174,0.674,16.296,0.521,24.475
	c-0.066,3.489-0.151,6.979-0.226,10.468c-0.039,1.829-0.063,3.66-0.101,5.489c-0.012,0.604,0.006,1.015,0.018,1.323
	c-0.111-0.162-0.221-0.324-0.344-0.481c-0.976-1.243-2.2-2.026-3.558-2.513c-0.155-2.755-0.493-5.449-0.641-8.277
	c-0.24-4.584,0.13-9.298,0.113-13.893c-0.034-9.247-0.089-18.495-0.137-27.743c-0.032-6.297-0.189-12.642-0.329-18.995
	C334.815,54.025,335.35,54.11,335.899,54.379z M322.762,54.061c0.212-3.687,1.772-7.496,1.146-11.217
	c-0.205-1.218-0.556-2.184-1.009-2.96c0.193-4.331-0.038-8.726,0.457-12.998c0.652-5.618,0.515-11.285,1.054-16.902
	c0.193-2.011,0.065-5.091,2.547-5.04c1.706,0.035,2.844,1.306,3.246,2.915c0.662,2.649-0.174,6.788-0.472,9.412
	c-0.772,6.793-0.153,13.831-0.213,20.67c-0.131,15.266-0.199,30.534-0.279,45.801c-0.066,12.688-0.986,25.774,0.102,38.469
	c-1.658,0.083-3.306,0.297-4.806,0.462c-0.586,0.065-1.156,0.142-1.721,0.223c0.355-8.146,1.186-16.207,0.434-24.359
	c-0.957-10.36-0.417-21.047-0.464-31.447C322.768,62.777,322.514,58.37,322.762,54.061z M319.735,129.288
	c0.243,0.009,0.468-0.008,0.686-0.037c0.171,0.012,0.344,0.025,0.509,0.022c2.266-0.031,4.381-0.265,6.72-0.222
	c1.473,0.028,2.732-0.031,3.749,0.134c0.297,0.138,0.612,0.222,0.932,0.252c1.117,0.457,1.805,1.476,1.997,3.761
	c0.17,2.013,0.261,4.035,0.323,6.059c-8.687-0.152-17.383-0.208-26.078-0.203c0.034-1.697,0.055-3.398,0.036-5.11
	c-0.021-1.905,0.378-3.953,0.236-5.85C312.502,128.252,316.059,129.145,319.735,129.288z M144.999,439.859
	c-2.336-17.254-5.202-34.535-5.044-51.971c0.084-9.259-0.667-18.641-0.764-27.938c-0.103-9.85-0.252-19.485,1.005-29.255
	c2.22-17.264,3.228-34.79,6.749-51.894c0.786-3.822,0.913-7.71,1.641-11.533c0.852-4.48,2.242-8.88,3.216-13.341
	c1.916-8.765,5.237-16.683,8.243-25.079c1.326-3.705,3.361-6.953,4.854-10.523c1.33-3.18,1.905-6.66,3.225-9.869
	c3.12-7.588,6.207-15.429,10.269-22.553c3.796-6.66,8.666-12.541,12.463-19.144c4.18-7.268,8.769-14.363,13.788-21.097
	c9.77-13.112,19.773-26.02,29.943-38.834c5.564-7.01,11.856-14.11,18.871-19.67c3.887-3.082,7.091-6.88,11.114-9.783
	c2.841-2.05,5.769-3.921,8.547-6.04c5.281-4.029,10.668-8.207,16.144-12.15c5.441-3.65,10.968-7.173,16.525-10.497
	c2.582-1.545,5.638-2.926,8.448-3.979c2.71-1.016,3.598-1.062,3.625,2.267c0.009,1.109-0.585,2.5-0.755,3.624
	c-1.256,8.258-0.393,17.11-0.476,25.446c-0.087,8.793-0.125,17.475,0.242,26.242c0.271,6.456-1.314,13-1.395,19.484
	c-2.694-0.366-5.362-0.765-8.143-0.681c-2.209,0.067-4.427,0.175-6.643,0.295c-0.091-2.923-0.506-5.825-0.23-8.809
	c0.412-4.447,0.02-9.069-0.057-13.538c-0.145-8.347-0.12-16.398-1.54-24.552c-0.285-1.637-1.1-5.416-2.975-5.859
	c-2.266-0.535-5.776,2.155-7.507,3.372c-2.384,1.676-4.569,3.614-6.936,5.312c-5.98,4.289-11.081,8.866-16.085,14.342
	c-10.612,11.613-21.217,23.638-30.631,36.25c-8.56,11.468-17.233,22.774-23.745,35.614c-2.905,5.725-6.291,11.154-9.186,16.864
	c-3.459,6.824-6.707,13.752-10.225,20.555c-7.177,13.876-12.363,30.035-16.188,45.141c-4.065,16.05-7.928,32.193-10.413,48.589
	c-1.115,7.354-1.721,15-2.126,22.413c-0.394,7.211-2.072,14.202-2.206,21.453c-0.132,7.196-0.733,14.631-1.361,21.802
	c-0.623,7.113-0.494,14.271-1.194,21.362c-0.849,8.604-1.045,17.275-1.033,25.928c0.013,9.101,0.932,17.862,1.584,26.91
	c0.616,8.558,0.63,17.1,1.405,25.653c0.4,4.409,1.081,9.005,2.147,13.304c0.617,2.489,1.062,5.497,2.183,7.922
	c-2.497,0.105-4.998,0.23-7.52,0.324c-0.4-1.162-0.864-2.312-1.299-3.477c-1.452-3.888-2.386-7.883-3.662-11.823
	C149.153,457.975,146.196,448.701,144.999,439.859z M415.674,503.952c-1.259-0.084-2.534-0.068-3.796-0.145
	c-2.209-0.133-4.406-0.326-6.62-0.33c-3.579-0.008-7.885-0.271-11.358,0.762c-2.603-0.153-5.207-0.286-7.807-0.338
	c-4.414-0.09-8.705,0.296-13.1,0.499c-4.747,0.22-9.494-0.49-14.259-0.488c-17.651,0.002-35.301,0.062-52.952,0.045
	c-32.538-0.031-65.141,2.049-97.631-0.032c-8.148-0.522-16.354,0.811-24.511,0.222c-7.92-0.572-15.756-0.557-23.708-0.529
	c-16.403,0.058-32.783-0.28-49.197-0.333c-4.239-0.013-8.463-0.457-12.701-0.456c-0.423,0-0.856,0-1.287,0.007
	c1.75-1.133,3.839-3.975,5.269-5.311c2.711-2.534,5.185-4.166,8.763-5.315c12.912-4.143,27.527-4.379,41.098-4.173
	c8.199,0.125,16.341-1.056,24.582-0.924c9.192,0.148,18.255,0.21,27.465-0.206c6.113-0.276,12.244-0.365,18.379-0.4
	c2.237,0.703,4.791,0.325,7.241,0.442c7.743,0.372,15.395,0.434,23.085,1.237c8.761,0.915,18.034,0.169,26.848,0.232
	c8.325,0.059,16.711-0.104,25.002-0.803c9.036-0.761,18.368-0.12,27.441-0.109c7.289,0.009,15.046,0.586,22.238-0.136
	c7.457-0.748,15.572,0.197,23.073,0.874c7.673,0.692,14.954,2.525,22.355,4.374c3.773,0.943,6.456,1.226,9.534,3.665
	c1.87,1.482,6.221,4.964,6.693,7.679C415.766,503.958,415.726,503.955,415.674,503.952z"/>
<g>
</g>
<g>
</g>
<g>
</g>
<g>
</g>
<g>
</g>
<g>
</g>
<g>
</g>
<g>
</g>
<g>
</g>
<g>
</g>
<g>
</g>
<g>
</g>
<g>
</g>
<g>
</g>
<g>
</g>
</svg>
