<?xml version="1.0" encoding="iso-8859-1"?>
<!-- Generator: Adobe Illustrator 19.0.0, SVG Export Plug-In . SVG Version: 6.00 Build 0)  -->
<svg version="1.1" id="Layer_1" xmlns="http://www.w3.org/2000/svg" xmlns:xlink="http://www.w3.org/1999/xlink" x="0px" y="0px"
	 viewBox="0 0 511.999 511.999" style="enable-background:new 0 0 511.999 511.999;" xml:space="preserve">
<path style="fill:#BF926A;" d="M261.363,22.668c0.054,0.674,0.101,1.35,0.14,2.026c0.117,2.051,0.013,4.11,0.147,6.159
	c0.106,1.636-0.861,3.301-0.226,4.92c0.521,1.327,1.88,2.094,2.838,3.151c1.643,1.812,2.05,4.484,1.643,6.897
	c-0.256,1.517-1.001,2.846-1.411,4.31c-0.354,1.268-0.279,2.389-1.464,3.266c-0.91,0.673-2.034,1.032-2.89,1.773
	c-1.502,1.3-1.867,3.564-1.376,5.489c0.491,1.926,1.691,3.583,2.927,5.139c1.037,1.304,2.372,2.639,2.831,4.282
	c0.346,1.234,0.357,2.413,0.874,3.624c1.22,2.85,2.597,5.643,3.868,8.472c2.643,5.883,5.273,11.775,8.158,17.545
	c2.784,5.569,5.831,11.013,9.249,16.219c2.711,4.13,5.56,9.862,11.088,10.352c1.469,0.13,3.133-0.04,4.227,0.95
	c0.841,0.761,1.059,1.982,1.172,3.111c0.38,3.767-0.36,7.708,0.244,11.386c0.556,3.377,0.557,6.891,0.986,10.296
	c0.921,7.3,2.487,14.546,5.149,21.419c1.177,3.037,2.562,5.993,4.167,8.828c6.578,11.623,10.43,27.391,23.841,33.061
	c1.39,0.588,2.869,1.074,3.994,2.08c1.126,1.006,1.792,2.73,1.068,4.053c-1.252,2.292-5.129,1.458-6.794,3.469
	c-0.883,1.066-0.853,2.592-0.779,3.974c0.268,4.959,0.59,9.915,0.911,14.87c0.139,2.144,0.789,4.907,0.251,6.989
	c-0.489,1.893-0.513,3.476,1.206,4.877c1.343,1.094,3.134,1.473,4.866,1.562c1.73,0.089,3.47-0.079,5.194,0.084
	c1.724,0.162,3.499,0.706,4.69,1.963c1.248,1.318,1.681,3.267,1.51,5.036c-0.164,1.717-0.458,3.822-1.338,5.313
	c-0.702,1.19-1.646,2.229-2.304,3.444c-1.237,2.282-1.372,4.979-1.481,7.572c-0.177,4.219-0.353,8.438-0.53,12.657
	c-0.071,1.7-0.249,3.42,0.12,5.098c0.257,1.168,0.652,2.246,0.73,3.454c0.264,4.123-0.017,8.318,0.139,12.455
	c0.141,3.781-0.757,7.262-1.519,10.972c-0.311,1.513-0.548,3.302,0.527,4.412c0.976,1.007,2.568,0.964,3.97,0.938
	c2.492-0.048,4.991,0.177,7.435,0.671c1.983,0.401,4.111,1.108,5.17,2.832c0.729,1.187,0.816,2.649,0.801,4.041
	c-0.067,6.72-1.474,13.688-7.781,17.301c-1.769,1.013-3.81,1.706-5.124,3.264c-1.439,1.707-1.7,4.09-1.813,6.321
	c-0.211,4.191-0.119,8.391,0.114,12.58c0.211,3.786,0.333,7.648,1.174,11.327c0.422,1.846,0.128,4.011,0.128,5.9
	c0,2.122,0.001,4.244,0.002,6.367c0.001,4.241,0.002,8.482,0.003,12.723c0.003,16.933,0.001,33.867-0.018,50.799
	c0,0.254,0,0.508-0.001,0.762c-0.006,4.751,0.237,9.931-1.152,14.525c-1.381,4.568-4.403,8.577-8.098,11.546
	c-5.33,4.282-11.923,6.649-18.478,8.591c-7.826,2.319-15.793,4.14-23.816,5.63c-3.841,0.713-7.821,1.703-11.713,1.788
	c-4.233,0.092-8.468,0.163-12.702,0.217c-16.938,0.211-33.879,0.111-50.814-0.298c-0.847-0.02-1.693-0.042-2.54-0.063
	c-4.09-0.107-8.181-0.233-12.266-0.471c-1.833-0.107-4.03,0.046-5.783-0.533c-1.512-0.499-2.941-1.048-4.514-1.441
	c-7.79-1.943-15.569-4.057-23-7.13c-2.846-1.177-5.686-2.528-7.926-4.641c-2.311-2.182-3.859-5.072-4.876-8.085
	c-1.138-3.37-2.288-7.532-2.312-11.082c-0.113-16.616-0.14-33.23-0.131-49.846c0.009-16.858,0.207-33.724,0.059-50.58
	c-0.017-1.903-0.287-3.699-0.256-5.613c0.04-2.443-0.582-4.901-1.818-7.013c-2.188-3.742-6.032-6.193-8.763-9.559
	c-2.65-3.267-4.2-7.41-4.344-11.615c-0.081-2.376,0.353-4.929,1.997-6.647c1.971-2.06,5.163-2.389,7.987-1.993
	c2.394,0.336,5.106,1.022,7.028-0.444c2.509-1.913,1.824-4.77,1.281-7.33c-0.758-3.574-0.001-7.83-0.017-11.484
	c-0.028-6.536-0.334-13.07-0.954-19.577c-0.267-2.8-0.424-5.66-1.252-8.353c-0.803-2.612,0.014-5.389-0.183-8.095
	c-0.192-2.622-0.954-5.27-2.604-7.317c-0.883-1.096-2.022-2.033-2.549-3.339c-0.787-1.951,0.077-4.294,1.662-5.677
	c1.586-1.382,3.742-1.939,5.842-2.064c2.063-0.123,4.14,0.127,6.197-0.074c2.057-0.201,4.194-0.948,5.424-2.609
	c1.657-2.24,1.028-4.494,0.362-6.879c-0.671-2.402,0.008-5.378-0.126-7.877c-0.109-2.039-0.65-3.954-0.741-5.972
	c-0.107-2.346-0.213-4.691-0.321-7.036c-0.04-0.868-0.116-1.823-0.732-2.436c-0.827-0.821-2.188-0.633-3.291-1.007
	c-1.841-0.621-2.761-2.878-2.353-4.778c0.408-1.9,1.844-3.43,3.46-4.51c1.616-1.08,3.441-1.8,5.141-2.739
	c6.017-3.323,10.089-9.112,13.622-14.832c3.942-6.381,7.276-13.272,10.437-20.11c1.447-3.131,2.778-6.32,3.843-9.602
	c2.968-9.142,4.578-18.41,2.808-27.88c-0.559-2.989-0.717-6.36,1.131-8.776c0.784-1.026,1.862-1.778,2.9-2.547
	c4.768-3.532,9.007-7.768,12.58-12.505c3.78-5.01,5.677-10.235,8.343-15.787c4.499-9.369,8.997-18.738,13.495-28.107
	c0.894-1.863,2.103-3.558,2.993-5.423c0.33-0.692,0.369-1.342,0.577-2.056c0.286-0.98,0.952-1.83,1.274-2.809
	c0.378-1.147,0.489-2.421,0.068-3.552c-0.818-2.202-3.189-3.276-4.517-5.111c-1.508-2.086-2.558-4.431-1.641-7.061
	c0.801-2.297,2.954-3.352,4.193-5.292c0.442-0.692,0.56-1.468,1.096-2.116c0.632-0.766,1.543-1.237,1.812-2.267
	c0.129-0.492,0.074-1.011,0.02-1.517c-0.712-6.55-0.202-13.199,0.971-19.666c0.724-3.992,1.652-7.952,3.018-11.771
	c0.103-0.29,0.274-0.631,0.582-0.64c0.323-0.009,0.511,0.357,0.608,0.666c0.962,3.076,0.934,6.338,1.542,9.482
	c0.153,0.796,0.393,1.554,0.601,2.334c0.162,0.609,0.113,1.273,0.209,1.902c0.263,1.719,0.473,3.444,0.632,5.177
	C261.31,22.043,261.337,22.356,261.363,22.668z"/>
<path style="fill:#5B5149;" d="M250.083,64.433c-5.201,13.987-13.668,26.899-19.572,40.591c-4.086,9.475-8.347,18.977-12.519,28.484
	c-6.312,14.38-12.459,28.824-17.552,43.686c-2.304,6.725-5.2,13.17-8.302,19.555c-1.471,3.027-5.178,6.813-5.454,10.17
	c-0.482,5.831,8.972,3.883,12.041,3.758c5.779-0.237,11.586,0.142,17.362-0.113c11.662-0.517,23.4-1.051,35.08-1.074
	c10.32-0.021,20.693,0.02,31.004-0.001c9.442-0.019,18.851,0.852,28.278,1.257c3.751,0.161,16.842,4.264,18.187-1.422
	c0.672-2.844-2.801-6.702-4.271-8.859c-2.643-3.878-5.078-7.599-7.199-11.758c-4.446-8.721-9.622-17.49-12.546-26.893
	c-2.014-6.477-4.957-12.487-7.304-18.868c-2.261-6.144-3.854-12.571-6.251-18.666c-4.652-11.827-10.146-23.199-15.52-34.746
	c-3.277-7.039-8.176-13.059-11.065-20.2c-0.708-1.749-1.41-5.122-2.926-6.383C257.309,59.416,251.404,66.074,250.083,64.433z"/>
<g>
	<path style="fill:#352F2C;" d="M253.036,126.809c-5.691,2.753-7.381,6.093-7.382,12.447c-0.001,5.91-0.848,9.731,5.537,10.438
		c3.628,0.402,10.908,1.657,13.563-1.192c2.801-3.004,2.759-11.94,1.209-15.437C263.874,128.351,257.39,125.842,253.036,126.809z"/>
	<path style="fill:#352F2C;" d="M209.482,148.585c-0.272-3.554,0.103-7.228-0.001-10.868c-0.086-2.986-1.004-6.088-0.681-9
		c3.708-1.471,8.915-4.962,13.183-3.322c-0.249,4.376-5.279,9.649-6.981,13.886c-1.211,3.014-1.769,8.191-4.329,10.278
		C210.05,148.371,209.829,147.016,209.482,148.585z"/>
	<path style="fill:#352F2C;" d="M292.913,126.339c-0.857,1.087-0.638,2.717-0.264,4.841c0.774,4.407,2.608,8.612,4.727,12.527
		c1.612,2.979,2.737,6.222,5.02,2.548c2.36-3.798,1.189-12.112,0.472-16.311c-0.584-3.421-3.933-5.582-7.329-4.914
		C294.215,125.289,293.394,125.727,292.913,126.339z"/>
</g>
<path style="fill:#D8B75B;" d="M252.667,57.788c-8.508-1.479-5.786-16.032-1.936-19.995c3.32-3.417,2.643-4.148,2.223-9.082
	c-0.351-4.121,0.447-8.309,1.224-12.447c0.489-2.601,0.739-5.243,1.298-7.832c0.268-1.241,0.418-4.279,1.593-4.977
	c1.917-1.138,1.74,3.042,1.984,4.274c0.729,3.668,1.172,7.384,1.854,11.06c0.576,3.106,1.563,6.373,1.363,9.56
	c-0.132,2.104-1.134,3.173-1.557,5.168c-0.641,3.029-0.928,1.429,1.538,3.691c3.236,2.969,4.546,6.203,3.193,10.446
	c-0.92,2.886-2.76,5.509-4.937,7.559C258.554,57.057,255.259,57.16,252.667,57.788z"/>
<path style="fill:#A07755;" d="M334.887,227.388c-9.952,0.871-21.717,0.453-32.202,1.549c-9.177,0.959-19.24,2.506-27.768,6.132
	c-6.046,2.571-10.193,6.178-14.819,10.643c-5.306,5.122-10.186,5.448-17.34,6.112c-13.315,1.237-26.625,1.149-39.978,1.81
	c-4.134,0.204-8.271,0.526-12.375,1.081c-2.778,0.376-6.226,1.738-9.022,1.506c-2.561-0.212-2.383-0.93-2.607-3.427
	c-0.629-7.024-0.317-13.771-1.394-20.762c-0.322-2.091-1.208-7.564,0.93-9.101c0.77-0.553,2.238-0.237,3.148-0.267
	c3.289-0.109,6.569-0.409,9.861-0.531c20.993-0.777,42.028-0.86,63.019-1.629c22.683-0.83,45.327,1.687,67.988,1.604
	c3.327-0.012,7.014-0.884,10.2,0.251C336.021,223.607,334.01,224.282,334.887,227.388z"/>
<g>
	<path style="fill:#443224;" d="M192.941,229.61c-4.773-0.286-5.618,9.649-5.562,12.823c0.048,2.707,0.174,10.16,2.779,10.793
		c1.727,0.42,5.801-0.404,7.632-0.561c2.259-0.192,3.761-0.056,4.864-1.667c2.187-3.191,0.814-10.938,0.007-14.305
		C201.367,231.291,197.885,225.218,192.941,229.61z"/>
	<path style="fill:#443224;" d="M222.108,228.221c-8.539-3.077-8.18,15.412-7.778,19.445c0.163,1.633-0.221,2.942,1.173,3.826
		c1.633,1.036,5.851,0.622,7.765,0.619c1.902-0.004,5.899,0.506,7.312-0.687c1.982-1.672,1.408-6.481,1.227-8.727
		C231.414,237.821,229.751,228.737,222.108,228.221z"/>
	<path style="fill:#443224;" d="M254.33,229.888c-5.824,1.398-9.202,7.741-9.382,13.363c-0.056,1.713-0.359,5.707,0.48,7.198
		c1.239,2.2,2.921,0.969,5.262,1.127c3.416,0.229,11.546,2.43,14.753,0.118c2.786-2.008,0.894-9.793,0.422-12.778
		c-0.436-2.75-1.026-5.218-3.241-7.089C260.641,230.149,256.204,228.621,254.33,229.888z"/>
	<path style="fill:#443224;" d="M288.497,228.777c-5.188-0.523-7.517,8.928-7.51,12.755c0.007,3.836-0.152,7.764,0.052,11.649
		c5.15,0.583,11.389,0.604,16.299-0.554C299.17,247.508,300.292,223.93,288.497,228.777z"/>
	<path style="fill:#443224;" d="M314.331,230.721c-7,0.246-5.187,18.002-6.069,22.458c2.163,0.036,4.457,0.521,6.609,0.807
		c1.701,0.227,4.721,1.63,6.35,0.569c2.262-1.474,2.786-7.278,3.049-9.652c0.35-3.162,0.727-8.209-0.548-11.132
		C322.58,231.153,317.443,227.943,314.331,230.721z"/>
</g>
<path style="fill:#A07755;" d="M298.775,262.666c-17.388,3.899-34.167,19.769-42.626,34.828c-3.434,6.113-5.511,12.93-8.688,19.127
	c-2.463,4.807-6.726,6.619-11.65,8.267c-11.373,3.807-22.909,2.392-34.659,3.334c-9.695,0.778-19.398,0.864-29.107,1.389
	c-2.542,0.138-4.168,0.497-5.087-2.349c-1.129-3.494-0.578-9.317-0.413-13.005c0.43-9.595,0.181-19.265-1.897-28.721
	c-0.802-3.651-3.439-9.548-2.559-13.286c1.037-4.406,8.786-4.553,12.411-5.141c12.72-2.061,25.788-3.384,38.649-3.95
	c14.383-0.632,28.445-1.848,42.848-1.321c11.962,0.438,23.833,0.271,35.832,0.271C294.814,262.111,295.762,262.663,298.775,262.666z
	"/>
<g>
	<path style="fill:#443224;" d="M175.441,286.277c-5.973,3.877-3.117,17.851-2.283,23.758c0.281,1.993,2.2,6.586,5.358,4.533
		c2.833-1.841,1.198-13.335,1.346-16.41C179.984,295.62,180.899,286.606,175.441,286.277z"/>
	<path style="fill:#443224;" d="M193.219,280.444c-4.166-2.956-7.593,8.182-8.047,10.61c-0.67,3.59-0.131,7.256-0.009,10.848
		c0.106,3.128-1.023,6.457-0.57,9.504c0.808,5.42,8.3,1.781,11.959,0.967c1.799-0.401,2.386,0.164,3.31-1.813
		c1.539-3.296,0.684-9.955,0.518-13.538c-0.151-3.248,0.112-7.319-0.834-10.461C198.933,284.53,195.827,279.796,193.219,280.444z"/>
	<path style="fill:#443224;" d="M215.441,276.277c-6.12,5.592-8.206,12.889-9.103,21.178c-0.383,3.531-1.492,14.833,2.153,16.329
		c4.321,1.772,13.755,0.077,18.123-1.056c6.58-1.706,4.431-17.591,4.104-23.262c-0.229-3.983-1.616-7.708-4.391-10.473
		C223.441,276.117,217.238,274.799,215.441,276.277z"/>
	<path style="fill:#443224;" d="M252.942,277.666c-7.589,2.038-11.025,11.35-11.677,18.219c-0.448,4.718-2.274,16.26,3.407,17.613
		c4.239,1.01,9.671,0.481,14.036,0.286c3.29-0.148,6.981,0.397,10.16-0.663c3.757-1.253,3.178-2.74,2.844-5.937
		c-0.804-7.707,1.598-15.203-2.646-22.378C265.969,279.572,259.103,276.013,252.942,277.666z"/>
	<path style="fill:#443224;" d="M283.22,285.722c-1.426,2.016-0.918,7.787-1.119,10.272c-0.25,3.089-0.427,6.177-0.548,9.266
		c-0.08,2.04-0.297,5.274,1.036,6.927c2.553,3.167,7.797,2.636,11.36,2.267c2.013-0.209,3.801-0.392,5.667-0.249
		c3.722,0.284,4.854-0.149,5.472-3.568c0.752-4.158,1.32-8.444,1.127-12.686c-0.267-5.851-1.09-13.792-5.352-18.236
		C294.665,273.254,284.421,277.124,283.22,285.722z"/>
	<path style="fill:#443224;" d="M314.609,282.388c-2.443,2.828-2.184,9.689-2.222,13.27c-0.04,3.822-0.461,7.599-0.284,11.427
		c0.138,2.991,1.869,6.856,5.046,7.757c1.81,0.513,9.273-0.258,10.53-1.886c1.48-1.918,0.08-8.392-0.013-10.699
		c-0.224-5.549,0.252-10.661-1.882-15.765c-1.028-2.458-1.713-4.299-4.229-5.27C317.701,279.736,315.911,281.985,314.609,282.388z"
		/>
	<path style="fill:#443224;" d="M332.942,288.5c0,6.224,0.011,12.454,0.278,18.671c0.119,2.774-0.888,7.813,2.5,7.426
		c4.18-0.479,2.983-7.536,2.98-10.769c-0.004-4.152,0.841-8.449,0.368-12.627c-0.133-1.181-0.548-3.839-1.532-4.646
		C335.827,285.154,332.662,286.593,332.942,288.5z"/>
</g>
<path style="fill:#A07755;" d="M350.998,364.333c-5.569,2.237-13.168,2.362-19.161,3.349c-14.135,2.326-27.654,5.993-40.53,12.445
	c-34.215,17.141-64.569,47.938-68.663,87.708c-1.253,12.173,2.992,21.697,6.413,32.864c2.217,7.236-5.559,6.299-10.548,5.307
	c-10.01-1.992-20.16-3.064-30.002-5.767c-5.973-1.64-14.459-2.81-19.113-7.271c-9.993-9.577-6.638-26.64-6.731-38.878
	c-0.067-8.766-0.654-17.628-1.048-26.385c-0.557-12.399-0.192-24.859-1.103-37.236c-0.589-7.992-1.952-18.511,0.771-26.237
	c1.591-4.514,4.709-4.866,9.281-4.634c5.136,0.259,10.185-0.034,15.339-0.326c8.282-0.467,16.541-0.218,24.822-0.556
	c11.196-0.457,22.373,0.388,33.549-0.216c24.96-1.349,50.098,0.278,75.056,0.278c7.556,0,15.236-0.4,22.786,0
	C343.912,358.873,351.232,358.066,350.998,364.333z"/>
<g>
	<path style="fill:#443224;" d="M182.108,378.5c-3.037,2.478-4.961,12.999-2.777,16.388c1.969,3.053,9.361,3.052,12.451,1.904
		C193.428,391.809,191.619,370.861,182.108,378.5z"/>
	<path style="fill:#443224;" d="M221.552,376.833c-4.452,2.909-6.402,18.452,0.836,18.007c2.086-0.128,2.872,0.088,4.862,0.339
		c0.818,0.103,3.153,0.046,3.611-0.289c2.77-2.027,1.561-9.372,1.247-12.237c-0.234-2.127-0.696-4.517-2.291-6.111
		C227.198,373.926,225.15,375.587,221.552,376.833z"/>
	<path style="fill:#443224;" d="M282.942,377.389c-3.836,3.48-3.761,13.297-1.903,17.737c3.116,0.327,7.937,2.068,10.792,1.18
		c3.437-1.068,2.698-5.336,2.5-8.376C293.987,382.652,290.501,372.813,282.942,377.389z"/>
	<path style="fill:#443224;" d="M322.942,378.222c-3.581,2.651-3.496,10.822-2.768,14.882c0.617,3.436,2.906,3.283,6.364,3.458
		c3.513,0.177,6.71-0.213,6.959-3.902c0.218-3.23-0.65-7.702-1.951-10.535C329.935,378.621,325.729,375.955,322.942,378.222z"/>
	<path style="fill:#443224;" d="M206.83,419.612c-3.272,1.293-5.809,7.246-6.603,10.487c-0.822,3.352-1.168,7.756-1.188,11.209
		c-0.011,1.901-0.234,6.633,1.05,8.103c1.569,1.796,4.514,1.033,6.672,1.036c4.576,0.007,12.62,1.759,14.108-4.009
		c0.7-2.717,0.397-6.723,0.407-9.514c0.012-3.789,0.279-8.61-0.766-12.241C218.618,418.103,210.215,417.562,206.83,419.612z"/>
	<path style="fill:#443224;" d="M297.942,419.056c-7.329,0.951-5.87,10.363-6.112,15.695c-0.176,3.851-2.237,10.986,1.1,13.812
		c3.078,2.608,16.716,3.736,19.255-0.049c2.962-4.416,0.542-14.47-0.692-19.249c-0.641-2.48-1.11-6.146-3.057-7.992
		C305.376,418.369,300.834,418.557,297.942,419.056z"/>
</g>
<g>
	<path style="fill:#936947;" d="M173.497,329.889c-6.058,0-11.899,0.124-17.908,0.972c-2.854,0.402-6.9,0.37-8.82,2.889
		c-4.189,5.493,3.178,14.365,6.541,18.197c2.349,2.677,3.379,3.439,7.047,3.984c4.649,0.692,9.326,1.313,14.013,1.458
		c20.056,0.621,39.954-1.119,60.008-1.959c19.792-0.829,39.858,0.316,59.673,0.292c17.675-0.021,35.346,2.408,52.975,3.061
		c4.532,0.168,8.759,0.802,11.475-3.219c2.403-3.559,4.363-8.62,5.776-12.692c0.912-2.632,2.764-6.792,0.902-9.381
		c-2.007-2.789-8.548-2.086-11.679-2.492c-9.517-1.238-19.067-2.217-28.634-2.967c-7.779-0.61-14.327,1.673-22.043,1.952
		c-19.379,0.7-38.74-0.834-58.076-1.912C220.768,326.736,197.398,327.301,173.497,329.889z"/>
	<path style="fill:#936947;" d="M195.195,253.154c-10.906,0.696-21.891,3.136-32.49,5.708c-2.822,0.686-7.973,2.499-6.354,6.516
		c1.368,3.392,6.607,2.684,9.45,2.573c7.1-0.277,14.337-1.224,21.412-1.951c16.699-1.716,33.376-3.333,50.167-3.333
		c29.162,0,58.594-0.572,87.579,2.832c4.993,0.587,9.821,1.993,14.789,2.438c4.498,0.402,14.832,3.349,15.973-4.041
		c0.962-6.229-8.879-4.961-12.442-5.581c-7.08-1.231-14.152-2.444-21.277-3.391c-14.028-1.866-28.162-2.972-42.317-3.096
		c-12.788-0.112-25.574,0.182-38.348,0.291c-12.786,0.108-25.545,1.131-38.337,0.859
		C200.407,252.92,197.803,252.987,195.195,253.154z"/>
	<path style="fill:#936947;" d="M260.719,209.055c21.577-0.024,43.121-0.141,64.65,1.389c3.418,0.243,6.057,0.82,9.113,2.631
		c1.739,1.031,8.148,3.952,7.855,6.534c-0.526,4.619-15.04,2.676-17.858,2.786c-16.445,0.64-33.149-1.072-49.585-1.649
		c-18.093-0.634-36.191,0.153-54.274,0.743c-9.156,0.299-18.313,0.552-27.475,0.546c-4.572-0.003-9.148-0.056-13.717-0.229
		c-3.27-0.124-7.713,0.159-10.595-1.59c-0.241-2.764,3.084-3.69,4.836-4.86c2.537-1.694,4.443-3.948,7.583-4.632
		c5.954-1.298,12.387-0.749,18.445-1.098c7.43-0.428,14.795-0.542,22.267-0.289c8.789,0.298,18.37,0.61,27.088-0.002
		C253.982,208.987,255.759,209.055,260.719,209.055z"/>
</g>
<g>
	<path style="fill:#775135;" d="M171.274,216.832c11.092-1.303,22.583-0.196,33.766-0.617c11.471-0.432,22.866-1.038,34.376-1.05
		c24.186-0.027,48.474-1.167,72.693-0.268c8.167,0.303,18.632-1.13,26.418,1.718c1.921,0.703,4.25,2.041,2.957,4.396
		c-1.152,2.098-3.95,1.174-5.994,1.101c-30.01-1.088-60.042-1.566-90.073-2.842c-19.327-0.821-38.712,0.749-57.951,2.486
		c-5.041,0.456-10.228,1.362-15.288,1.193c-0.818-0.028-3.056-0.016-3.553-0.828C167.394,220.116,170.849,219.222,171.274,216.832z"
		/>
	<path style="fill:#775135;" d="M156.83,264.611c10.849-1.136,21.51-3.957,32.486-4.777c15.11-1.13,30.197-2.443,45.367-2.446
		c17.099-0.003,34.197-0.278,51.294-0.278c15.157,0,30.944,0.854,45.797,3.964c2.782,0.582,20.962,1.396,20.619,4.924
		c-0.29,2.986-5.762,1.738-7.514,1.399c-8.573-1.659-17.372-1.899-26.076-2.616c-30.572-2.517-60.937-5.334-91.624-3.498
		c-17.276,1.033-34.565,3.328-51.734,5.484c-4.182,0.526-8.979,1.08-13.19,0.909C160.259,267.598,155.804,266.982,156.83,264.611z"
		/>
	<path style="fill:#775135;" d="M229.323,328.5c0.577,1.653-2.661,3.976-3.61,6.686c-1.957,5.588,4.761,6.113,8.874,7.069
		c19.716,4.579,40.597,5.272,60.773,5.938c11.827,0.39,23.671,0.674,35.479,1.423c4.583,0.29,9.191,0.364,13.757,0.886
		c2.204,0.252,7.4,0.402,9.166,2.154c6.979,6.924-21.095,6.398-22.822,6.408c-23.082,0.137-46.109-0.367-69.179-1.396
		c-19.843-0.884-39.669,1.149-59.501,1.111c-7.54-0.014-15.006,0.228-22.523,0.532c-4.981,0.202-10.185,0.474-15.001-0.946
		c-7.96-2.347-17.252-7.517-18.818-16.668c-2.302-13.453,14.253-12.429,23.312-12.895c10.637-0.548,21.249-1.463,31.888-2.114
		c5.208-0.319,10.563-0.87,15.767-0.492c3.194,0.232,6.503-0.073,9.645,0.687C228.287,327.308,229.097,327.853,229.323,328.5z"/>
</g>
<path style="fill:#443C36;" d="M256.025,60.483c-1.263,14.938-2.15,30.034-2.15,45.108c0,6.582,1.244,13.231,0.868,19.65
	c-3.486,2.016-6.448,4.697-7.02,8.762c-0.546,3.881-1.294,8.019-1.22,11.953c0.064,3.444,0.462,3.642,3.694,4.149
	c2.269,0.356,3.577-0.012,4.756,1.91c1.123,1.831,0.457,5.517,0.457,7.588c0.007,13.467-0.65,29.001,13.527,35.797
	c6.949,3.331,14.619,4.491,22.137,5.761c3.619,0.611,14.023,1.203,16.365,4.616c4.214,6.142-15.228,4.192-17.393,4.06
	c-7.239-0.441-14.467-0.116-21.705-0.45c-19.677-0.91-38.879,3.128-58.699,1.331c-5.399-0.489-10.635-0.163-16.029-0.411
	c-4.467-0.206-10.288,0.306-8.184-5.76c1.288-3.714,4.4-6.503,6.572-9.668c2.758-4.014,5.679-8.232,7.851-12.583
	c5.576-11.17,10.378-22.209,14.4-34.058c6.298-18.551,12.539-37.165,20.58-55.036c3.167-7.038,7.703-13.269,11.372-20.051
	C248.166,69.523,250.468,58.043,256.025,60.483z"/>
<path style="fill:#C6934F;" d="M257.56,3.965c0.779,1.804-0.501,5.861-0.846,8.039c-0.581,3.673-0.903,7.328-0.997,11.037
	c-0.097,3.867,0.442,7.153,1.537,10.702c1.018,3.302,0.61,4.104-0.578,7.363c-0.751,2.061-1.236,4.788,0.293,6.661
	c1.587,1.943,4.153,0.516,5.51,1.636c2.696,2.227-1.904,7.133-4.198,8.008c-3.28,1.251-6.033,0.266-8.316-2.459
	c-2.707-3.231-3.84-6.912-1.62-10.697c1.882-3.209,5.549-4.436,5.528-8.5c-0.014-2.732-0.917-5.503-0.921-8.501
	C252.939,19.621,254.782,11.457,257.56,3.965z"/>
<path d="M180.443,295.667c0.066-2.639,0.834-12.553-4.381-11.487c-4.713,0.964-4.154,9.301-4.234,12.517
	c-0.077,3.057-0.377,6.906,0.044,10.458c-0.041,2.328,0.088,4.656,0.319,7.107c0.079,0.831,0.494,1.367,1.264,1.661
	c1.567,0.599,3.518,0.224,5.178,0.279c0.618,0.02,1.363-0.487,1.477-1.124C181.208,308.924,180.288,301.912,180.443,295.667z
	 M177.871,300.577c-0.131,3.894,0.304,8.517-0.446,12.452c-0.637-0.047-1.309-0.092-1.92-0.179
	c-0.254-3.226-0.208-6.551-0.971-9.663c-0.23-4.382-0.598-9.07,0.557-13.292c1.482-5.424,2.983,0.261,3.063,3.029
	C178.229,295.475,177.958,298.027,177.871,300.577z"/>
<path d="M201.347,291.221c-0.292-4.611-1.122-9.966-5.95-11.892c-3.784-1.51-7.441,1.042-9.4,4.328
	c-2.733,4.583-2.698,10.342-2.687,15.48c0.006,2.233-0.149,4.953-0.098,7.665c-0.011,0.292-0.026,0.582-0.029,0.886
	c-0.018,1.838-0.686,5.146,0.148,6.884c1.454,3.034,7.611,1.736,10.263,1.4c2.691-0.34,6.611-0.652,7.844-3.416
	c1.039-2.328,0.17-7.526,0.137-10.006C201.525,298.776,201.586,294.987,201.347,291.221z M191.987,306.962
	c0.034,1.75-0.274,3.831,0.159,5.618c-2.638,0.293-4.833,0.686-5.583-2.119c-0.068-0.252-0.107-0.509-0.16-0.763
	c-0.007-5.583-0.566-11.173-0.003-16.758c0.364-3.629,1.729-11.081,6.562-11.128c1.228-0.011,2.171,0.429,2.9,1.162
	c-3.334,3.73-3.818,9.155-4.042,13.963C191.663,300.262,191.921,303.627,191.987,306.962z M196.463,311.901
	c-0.244,0.131-0.522,0.227-0.817,0.301c-1.091-4.657-1.264-10.518-1.313-15.263c-0.047-4.52,1.29-8.143,2.711-12.158
	c1.543,3.494,1.204,9.145,1.26,11.686c0.092,4.217-0.163,8.427-0.243,12.627C198.005,312.085,198.537,310.79,196.463,311.901z"/>
<path d="M209.367,280.28c-4.071,5.721-3.962,13.801-4.222,20.511c-0.102,2.638-1.31,8.52-0.201,12.032
	c0.226,1.219,0.872,2.26,2.308,2.899c2.236,0.996,5.338,0.133,7.706,0.052c3.607-0.123,7.173-0.354,10.769-0.622
	c5.664-0.422,5.282-1.824,5.713-7.127c0.55-6.766,1.449-13.985-0.093-20.67C228.826,276.431,217.12,269.382,209.367,280.28z
	 M212.998,289.233c-0.401,3.347-0.562,6.788-0.629,10.158c-0.078,3.969-1.076,8.982,0.372,12.779
	c-0.471,0.022-0.941,0.053-1.413,0.068c-2.47,0.08-2.741,0.279-3.131-2.274c-0.18-1.181-0.349-2.24-0.584-3.337
	c0.104-1.253,0.212-2.481,0.246-3.619c0.15-5.123,0.163-10.522,1.386-15.543c1.034-4.251,3.933-8.538,7.772-9.525
	C214.509,280.876,213.337,286.404,212.998,289.233z M228.044,306.833c-0.104,1.307,0.049,3.212-0.289,4.577
	c-1.187,0.298-2.546,0.038-3.732,0.08c-2.669,0.093-5.326,0.308-7.987,0.49c-0.001-0.009,0.001-0.017-0.001-0.026
	c-0.733-6.474-0.348-13.255-0.221-19.765c0.068-3.514,0.604-6.887,1.963-10.159c0.573-1.381,1.579-2.756,2.298-4.152
	c1.077,0.224,2.198,0.709,3.35,1.519c4.069,2.862,5.212,9.127,5.396,13.869C228.995,297.783,228.4,302.34,228.044,306.833z"/>
<path d="M193.905,389.644c0.311-6.324-2.272-17.423-10.753-13.028c-4.766,2.47-6.237,9.116-5.643,14.722
	c-0.057,0.726-0.112,1.429-0.188,2.071c-0.427,3.637,0.65,4.737,4.344,4.784c2.719,0.036,7.895,1.094,10.416-0.174
	C194.546,396.78,193.795,391.875,193.905,389.644z M190.687,394.899c-0.876-0.027-1.737,0.078-2.66,0.043
	c-1.78-0.066-5.821,0.372-7.308-0.278c-0.231,0.052-0.42,0.067-0.577,0.054c0.341-5.398-0.918-14.763,5.426-16.077
	c3.601-0.746,5.147,4.15,5.369,7.145C191.026,386.986,191.462,392.916,190.687,394.899z"/>
<path d="M233.069,381.565c-1.199-6.254-8.538-9.952-13.193-4.69c-3.293,3.722-3.956,9.12-3.254,14.047
	c-0.517,2.172-0.857,4.506,0.731,5.931c1.057,0.949,2.548,0.74,3.838,0.747c2.062,0.01,3.94,0.158,5.989-0.121
	c2.499-0.34,5.262-0.432,5.886-3.351c0.43-2.013,0.064-4.588,0.137-6.647C233.273,385.49,233.45,383.552,233.069,381.565z
	 M230.223,389.424c-0.054,1.163,0.052,3.658-1.042,4.423c-0.438,0.307-1.39,0.153-1.927,0.212c-1.628,0.178-5.016,0.799-6.624,0.079
	c-0.593-0.266-1.064-0.878-1.436-1.636c-0.154-2.868-0.057-5.814,0.667-8.522c0.514-1.928,1.177-3.897,2.666-5.267
	c4.023-3.703,7.457,1.012,7.836,5.12C230.53,385.652,230.308,387.595,230.223,389.424z"/>
<path d="M219.866,420.276c-2.603-3.211-8.876-4.287-12.688-3.016c-5.696,1.898-7.437,8.997-8.144,14.17
	c-0.314,2.301-0.789,5.516-0.909,8.742c-0.052,0.774-0.099,1.546-0.141,2.31c-0.192,3.474-1.584,8.75,2.672,10.21
	c2.269,0.778,5.539-0.002,7.852-0.189c3.354-0.27,7.12-0.141,10.406-0.796c5.349-1.066,3.747-7.242,3.564-11.578
	C222.231,434.215,223.968,425.336,219.866,420.276z M219.296,443.715c0.076,5.712-4.904,4.664-9.103,5.009
	c-1.669,0.137-3.322,0.339-4.992,0.43c-2.678,0.147-2.937,0.54-4.071-1.651c-0.052-0.101-0.08-0.228-0.126-0.336
	c-0.02-7.682-0.437-17.272,3.509-23.6c1.961-3.144,5.846-4.236,9.316-3.272c5.017,1.394,5.151,5.571,5.397,9.858
	C219.482,434.641,219.237,439.222,219.296,443.715z"/>
<path d="M335.933,284.181c-5.216-1.068-4.447,8.847-4.381,11.487c0.154,6.244-0.764,13.257,0.332,19.411
	c0.113,0.638,0.859,1.144,1.477,1.124c1.66-0.056,3.611,0.319,5.178-0.279c0.771-0.294,1.187-0.83,1.264-1.661
	c0.231-2.451,0.36-4.779,0.319-7.107c0.421-3.552,0.121-7.401,0.044-10.458C340.089,293.482,340.648,285.146,335.933,284.181z
	 M337.461,303.189c-0.763,3.111-0.717,6.438-0.971,9.663c-0.611,0.086-1.284,0.132-1.92,0.179c-0.75-3.934-0.314-8.557-0.446-12.452
	c-0.087-2.551-0.358-5.103-0.283-7.653c0.08-2.768,1.581-8.453,3.063-3.029C338.058,294.118,337.691,298.806,337.461,303.189z"/>
<path d="M328.782,306.801c0.052-2.711-0.102-5.431-0.098-7.665c0.011-5.138,0.047-10.897-2.687-15.48
	c-1.959-3.286-5.616-5.837-9.4-4.328c-4.828,1.926-5.657,7.281-5.949,11.892c-0.239,3.768-0.178,7.556-0.229,11.329
	c-0.033,2.48-0.903,7.678,0.137,10.006c1.233,2.763,5.153,3.076,7.845,3.416c2.652,0.336,8.808,1.634,10.263-1.4
	c0.833-1.739,0.166-5.047,0.148-6.884C328.808,307.383,328.794,307.093,328.782,306.801z M316.349,312.201
	c-0.293-0.073-0.571-0.17-0.817-0.301c-2.074-1.111-1.541,0.186-1.599-2.809c-0.08-4.2-0.334-8.41-0.243-12.627
	c0.056-2.541-0.283-8.191,1.26-11.686c1.421,4.014,2.758,7.638,2.711,12.158C317.613,301.683,317.44,307.544,316.349,312.201z
	 M325.593,309.697c-0.053,0.254-0.092,0.511-0.16,0.763c-0.75,2.804-2.946,2.412-5.583,2.119c0.432-1.787,0.124-3.868,0.159-5.618
	c0.064-3.336,0.323-6.7,0.169-10.025c-0.224-4.809-0.708-10.233-4.042-13.963c0.729-0.733,1.672-1.174,2.9-1.162
	c4.832,0.047,6.197,7.498,6.561,11.128C326.158,298.525,325.6,304.114,325.593,309.697z"/>
<path d="M302.629,280.28c-7.754-10.898-19.459-3.849-21.979,7.076c-1.542,6.686-0.643,13.905-0.093,20.67
	c0.431,5.301,0.049,6.703,5.713,7.127c3.594,0.268,7.161,0.499,10.769,0.622c2.368,0.081,5.47,0.943,7.706-0.052
	c1.436-0.64,2.082-1.68,2.308-2.899c1.11-3.512-0.099-9.393-0.201-12.032C306.592,294.081,306.7,286.001,302.629,280.28z
	 M295.961,311.954c-0.001,0.009,0,0.017,0,0.026c-2.661-0.182-5.318-0.397-7.987-0.49c-1.187-0.041-2.546,0.219-3.732-0.08
	c-0.339-1.364-0.186-3.27-0.289-4.577c-0.357-4.495-0.951-9.05-0.777-13.567c0.183-4.742,1.328-11.007,5.396-13.869
	c1.152-0.81,2.273-1.294,3.35-1.519c0.719,1.398,1.724,2.772,2.298,4.152c1.358,3.271,1.894,6.645,1.963,10.159
	C296.309,298.7,296.693,305.48,295.961,311.954z M303.797,309.963c-0.39,2.553-0.661,2.353-3.131,2.274
	c-0.472-0.016-0.942-0.046-1.413-0.068c1.448-3.797,0.45-8.809,0.372-12.779c-0.067-3.371-0.228-6.812-0.629-10.158
	c-0.339-2.829-1.511-8.357-4.019-11.292c3.838,0.987,6.738,5.273,7.772,9.525c1.222,5.021,1.236,10.42,1.386,15.543
	c0.033,1.137,0.142,2.366,0.246,3.619C304.146,307.723,303.979,308.782,303.797,309.963z"/>
<path d="M364.811,329.802c-2.139-0.977-5.481-1.27-8.553-1.033c-2.194-0.408-4.422-0.704-6.625-0.983
	c0.141-0.343,0.244-0.722,0.276-1.16c0.778-10.976-0.227-22.007,0.593-32.971c0.514-6.89,2.281-14.86,0.907-21.83
	c1.822-0.331,3.359-1.336,4.368-3.503c1.14-2.447,3.124-6.009,1.116-8.377c-0.61-0.72-1.463-1.319-2.421-1.823
	c-4.561-3.246-11.871-3.567-17.456-4.566c1.582-2.753,0.964-6.583,1.088-9.838c0.114-3.058,0.194-6.236,0.007-9.383
	c-0.008-0.286-0.014-0.573-0.014-0.87c-0.003-2.441,0.278-4.947,0.2-7.412c2.723,0.443,5.479,0.607,7.148-1.107
	c2.391-2.454,1.127-6.432-0.893-8.672c-3.21-3.56-7.454-4.436-11.212-7.003c-1.298-0.887-2.409-1.928-3.423-3.05
	c-1.697-5.39-4.906-10.473-7.408-15.507c-1.77-3.56-4.208-6.671-5.673-10.429c-1.19-3.051-2.596-6.012-3.906-9.022
	c-3.627-8.335-7.266-16.442-7.541-25.679c-0.128-4.274-0.251-8.646-0.132-12.92c0.063-2.277,0.598-4.852-1.06-6.746
	c-1.511-1.726-4.206-2.119-6.297-2.682c-3.822-1.03-4.272-1.698-5.988-5.092c-3.999-7.914-8.691-15.479-12.52-23.451
	c-2.937-6.117-6.274-12.1-9.183-18.266c-1.951-4.134-3.893-11.726-7.507-15.806c-0.526-1.324-1.492-2.262-2.679-2.876
	c3.873-1.228,7.242-4.857,8.037-8.703c1.094-5.293-0.86-11.275-5.617-13.653c2.729-4.228,1.206-7.834,0.193-13.178
	c-1.353-7.144-1.483-14.919-4.384-21.639c-0.352-0.814-1.623-0.703-2.009,0c-1.368,2.494-1.411,6.067-1.93,8.851
	c-0.891,4.782-1.861,9.571-2.62,14.373c-0.388,2.454-1.649,9.222,0.926,11.64c-3.901,1.778-6.81,5.521-7.602,9.973
	c-0.834,4.683,1.447,10.723,5.896,12.885c-1.724,1.207-3.216,3.264-3.714,5.368c-2.338,4.137-3.87,9.516-5.402,12.765
	c-2.91,6.166-6.247,12.149-9.183,18.266c-3.828,7.972-8.521,15.537-12.52,23.451c-1.716,3.394-2.167,4.062-5.988,5.092
	c-2.091,0.563-4.786,0.957-6.297,2.682c-1.658,1.893-1.123,4.469-1.06,6.746c0.119,4.274-0.004,8.646-0.132,12.92
	c-0.276,9.238-3.914,17.345-7.541,25.679c-1.309,3.01-2.716,5.971-3.906,9.022c-1.466,3.758-3.903,6.869-5.673,10.429
	c-2.502,5.034-5.711,10.117-7.408,15.507c-1.014,1.122-2.126,2.163-3.423,3.05c-3.758,2.568-8.002,3.442-11.212,7.003
	c-2.02,2.24-3.284,6.218-0.893,8.672c1.67,1.713,4.426,1.55,7.148,1.107c-0.078,2.466,0.203,4.971,0.2,7.412
	c0,0.297-0.007,0.584-0.014,0.87c-0.188,3.148-0.108,6.326,0.007,9.383c0.122,3.254-0.494,7.083,1.088,9.838
	c-5.584,0.999-12.895,1.32-17.456,4.566c-0.957,0.503-1.81,1.103-2.421,1.823c-2.01,2.368-0.024,5.931,1.116,8.377
	c1.009,2.167,2.546,3.172,4.368,3.503c-1.376,6.97,0.391,14.94,0.907,21.83c0.82,10.965-0.186,21.996,0.593,32.971
	c0.031,0.437,0.134,0.817,0.276,1.16c-2.202,0.279-4.43,0.576-6.624,0.983c-3.072-0.237-6.414,0.057-8.553,1.033
	c-5.021,2.293-4.293,8.424-3.048,12.78c1.559,5.451,4.038,9.502,7.7,13.74c2.458,2.843,4.799,4.047,7.399,4.592
	c-1.312,17.346-1.493,34.879-1.312,52.218c0.11,10.565,0.693,21.102,0.671,31.687c-0.023,10.62-0.181,21.249-0.117,31.867
	c0.043,7.148,2.106,14.147,8.025,18.731c6.79,5.26,15.511,7.109,23.462,9.739c8.857,2.929,17.876,4.411,27.147,5.231
	c4.744,0.42,9.168,0.492,13.562,0.23c1.55,0.034,3.09,0.09,4.608,0.227c7.995,0.723,16.012,1.389,24.048,1.076
	c7.191-0.28,14.557,0.029,21.729-0.443c2.736-0.18,5.849-0.314,8.875-0.788c1.622-0.062,3.261-0.153,4.951-0.302
	c9.272-0.821,18.29-2.303,27.147-5.231c7.951-2.63,16.672-4.479,23.462-9.739c5.919-4.584,7.981-11.585,8.025-18.731
	c0.064-10.618-0.093-21.248-0.117-31.867c-0.022-10.583,0.561-21.122,0.671-31.687c0.181-17.339,0.001-34.872-1.312-52.218
	c2.599-0.546,4.941-1.749,7.399-4.592c3.662-4.238,6.14-8.288,7.7-13.74C369.105,338.227,369.832,332.095,364.811,329.802z
	 M297.113,129.014c0.729,0.209,1.459,0.419,2.188,0.628c0.153-0.012,0.291-0.013,0.416-0.007c0.028,0.144,0.056,0.287,0.079,0.426
	c0.078,0.454,0.192,0.887,0.317,1.314c0.76,3.578-0.104,8.712-0.329,12.33c-0.006,0.086-0.008,0.167-0.013,0.251
	c-0.824-2.266-1.744-4.521-2.61-6.749c-1.039-2.674-2.131-5.942-3.54-9.002C294.764,128.525,296.007,128.712,297.113,129.014z
	 M276.373,100.262c3.651,7.619,7.673,15.046,11.377,22.626c0.733,5.037,4.59,10.828,6.219,15.2
	c2.417,6.487,4.099,13.428,6.94,19.722c1.727,7.438,5.15,14.289,8.261,21.289c2.781,6.258,5.986,12.312,9.179,18.311
	c1.744,3.278,3.397,6.851,5.381,9.963c0.31,0.487,0.62,0.91,0.944,1.293c-5.028-0.447-10.109-0.287-13.382-0.577
	c-0.559-0.05-1.126-0.076-1.688-0.119c-0.949-5.754-3.27-11.386-5.084-16.883c-2.136-6.47-4.132-12.916-6.676-19.241
	c-4.649-11.558-7.701-23.749-12.075-35.401c-5.097-13.58-9.901-27.222-14.259-41.057c-2.713-8.616-5.778-17.218-8.491-25.881
	C266.986,79.966,271.534,90.166,276.373,100.262z M262.829,73.974c1.876,7.048,4.039,14.038,6.084,21.043
	c3.93,13.462,8.134,27.015,13.235,40.091c4.667,11.968,7.917,24.495,12.52,36.499c4.503,11.746,9.081,23.885,12.061,36.161
	c-5.484-0.341-11.023-0.456-16.516-0.449c-0.389-1.682-0.297-4.069-0.549-5.548c-0.564-3.299-1.184-6.59-1.887-9.861
	c-1.379-6.424-3.24-12.742-4.904-19.091c-3.228-12.317-5.844-24.837-8.972-37.202c-3.362-13.297-6.988-26.956-8.715-40.579
	c-0.847-6.677-2.317-13.216-3.113-19.909c-0.257-2.158-0.533-4.314-0.823-6.469C261.801,70.448,262.364,72.225,262.829,73.974z
	 M262.943,97.425c1.851,13.303,5.072,26.716,8.293,39.746c3.203,12.958,5.84,26.079,9.218,38.972
	c1.778,6.784,3.607,13.525,4.981,20.407c0.638,3.191,0.608,7.35,1.434,10.783c-0.156,0.001-0.312,0-0.468,0.002
	c-1.538,0.017-3.06,0.089-4.577,0.186c-2.046-0.153-4.43,0.26-5.803,0.206c-0.817-0.032-1.722-0.112-2.669-0.194
	c-2.583-0.414-5.29-0.199-7.957-0.216c-2.798-0.018-5.6-0.057-8.406-0.07c0.669-3.223-0.232-7.309-0.271-10.48
	c-0.06-4.851-0.41-9.66-0.431-14.502c-0.02-4.722,0.032-9.389,0.182-14.097c0.161-5.056,0.641-10.361,0.224-15.426
	c1.121-0.067,2.269-0.191,3.31-0.492c0.196,0.037,0.404,0.042,0.621,0.008c2.521-0.404,5.166,0.137,6.448-2.646
	c1.508-3.272,0.574-9.198,0.271-12.596c-0.257-2.883-0.246-5.439-2.323-7.612c-1.141-1.194-2.566-2.009-3.749-3.106
	c-1.239-1.148-2.423-2.586-4.244-2.742c-0.421-5.093-0.188-10.34-0.333-15.46c-0.147-5.169-0.304-10.339-0.363-15.51
	c-0.067-5.833-0.274-11.688-0.244-17.519c0.014-2.817,0.249-5.569,0.37-8.323c0.688,0.001,1.373-0.004,2.051-0.009
	c0.151-0.001,0.323,0.007,0.507,0.018C259.772,77.016,261.532,87.29,262.943,97.425z M253.058,149.144
	c-2.136-0.031-3.996-0.639-4.887-2.683c-1.337-3.066-0.428-7.627-0.184-10.859c0.171-2.274,1.147-3.929,2.399-5.43
	c1.047-0.833,2.102-1.659,3.168-2.437c4.546-3.32,10.139,3.657,10.457,7.867c0.243,3.232,1.152,7.793-0.184,10.859
	c-0.446,1.023-1.132,1.456-1.94,1.791C259.737,148.049,256.116,149.188,253.058,149.144z M255.492,17.42
	c0.472-2.447,0.876-4.868,1.276-7.321c0.237-1.448,0.344-3.362,0.614-5.136c1.29,4.592,1.353,9.573,2.112,14.247
	c0.477,2.936,1.546,6.352,1.402,9.309c-0.113,2.342-1.168,3.936-1.959,5.87c-0.026-0.002-0.049-0.009-0.074-0.011
	c-1.33-0.126-2.62-0.03-3.847,0.246C251.543,30.455,254.602,22.036,255.492,17.42z M249.405,51.625
	c-2.736-4.714-0.011-11.108,4.733-13.296c5.694-2.626,10.762,2.152,10.603,7.724c-0.086,2.978-1.422,5.531-3.893,7.276
	c-1.787,1.261-4.028,1.604-6.073,2.334C252.899,54.515,250.782,53.996,249.405,51.625z M252.972,67.018
	c0.111-0.146,0.217-0.297,0.321-0.448c0.343,0.043,0.689,0.07,1.036,0.094c-1.713,18.905,0.05,38.381,0.098,57.239
	c-0.043,0.012-0.088,0.019-0.129,0.041c-0.068,0.022-0.139,0.041-0.204,0.066c-1.436,0.523-2.431,1.463-3.46,2.496
	c-1.307,0.872-2.589,1.777-3.66,2.897c-2.077,2.173-2.066,4.728-2.323,7.612c-0.303,3.398-1.237,9.323,0.271,12.596
	c0.79,1.714,2.099,2.167,3.577,2.356c1.572,0.748,3.257,1.027,5.274,0.904c0.294-0.018,0.623-0.028,0.943-0.04
	c-0.976,9.136-1.151,18.282-1.217,27.466c-0.032,4.448,0.206,8.851,0.149,13.283c-0.033,2.634-0.126,5.278-0.089,7.911
	c0.02,1.452,0.473,4.287,0.072,5.75c-3.217,0.021-6.431,0.056-9.64,0.081c-0.88-0.049-1.788-0.036-2.691,0.011
	c-1.384-0.032-2.971-0.2-4.242,0.329c-0.373,0.028-0.738,0.051-1.083,0.064c-1.373,0.054-3.758-0.359-5.803-0.206
	c-1.517-0.097-3.039-0.169-4.577-0.186c-0.156-0.001-0.312-0.001-0.468-0.002c0.827-3.433,0.797-7.592,1.434-10.783
	c1.376-6.882,3.203-13.622,4.981-20.407c3.378-12.893,6.014-26.015,9.218-38.972c3.221-13.03,6.441-26.442,8.293-39.746
	C250.452,87.378,252.205,77.195,252.972,67.018z M250.746,68.658c-0.291,2.154-0.567,4.311-0.823,6.469
	c-0.797,6.693-2.268,13.233-3.114,19.909c-1.727,13.623-5.351,27.282-8.714,40.579c-3.128,12.366-5.744,24.887-8.972,37.202
	c-1.664,6.349-3.524,12.668-4.904,19.091c-0.702,3.272-1.322,6.562-1.887,9.861c-0.252,1.479-0.161,3.864-0.549,5.548
	c-5.493-0.006-11.031,0.108-16.516,0.449c2.98-12.277,7.558-24.416,12.061-36.161c4.602-12.003,7.853-24.53,12.52-36.499
	c5.099-13.077,9.303-26.629,13.235-40.091c2.046-7.006,4.209-13.997,6.084-21.043C249.63,72.225,250.195,70.448,250.746,68.658z
	 M211.885,131.375c0.124-0.428,0.239-0.86,0.317-1.314c0.023-0.139,0.051-0.281,0.079-0.426c0.124-0.007,0.262-0.006,0.416,0.007
	c0.729-0.209,1.459-0.419,2.188-0.628c1.106-0.302,2.349-0.489,3.494-0.808c-1.409,3.06-2.501,6.329-3.54,9.002
	c-0.866,2.228-1.786,4.483-2.61,6.749c-0.004-0.084-0.008-0.166-0.013-0.251C211.989,140.087,211.125,134.953,211.885,131.375z
	 M188.267,207.373c1.984-3.113,3.636-6.687,5.381-9.963c3.193-5.999,6.397-12.053,9.179-18.311c3.111-7,6.534-13.851,8.261-21.289
	c2.841-6.294,4.523-13.237,6.94-19.722c1.629-4.372,5.486-10.163,6.219-15.2c3.703-7.58,7.726-15.007,11.377-22.626
	c4.839-10.097,9.387-20.296,13.353-30.755c-2.713,8.663-5.777,17.265-8.491,25.881c-4.358,13.835-9.162,27.477-14.259,41.057
	c-4.373,11.652-7.426,23.843-12.075,35.401c-2.544,6.324-4.54,12.771-6.676,19.241c-1.814,5.498-4.137,11.129-5.084,16.883
	c-0.561,0.044-1.128,0.07-1.688,0.119c-3.273,0.289-8.354,0.13-13.382,0.577C187.647,208.283,187.957,207.86,188.267,207.373z
	 M174.424,220.939c-1.902,0.054-1.798,0.846-1.211-0.348c0.603-1.229,2.849-2.547,4.017-3.199c2-1.117,3.731-2.402,5.234-3.833
	c1.689-0.244,3.397-0.367,5.168-0.543c6.168-0.618,12.456-0.744,18.653-0.963c7.351-0.26,14.839-1.18,22.192-1.063
	c2.149,0.034,4.306,0.518,6.448,0.222c0.211-0.029,0.42-0.063,0.63-0.094c1.03,0.089,2.073,0.162,3.144,0.22
	c2.064,0.112,4.812,0.611,7.078,0.094c3.061,0.266,6.156,0.318,9.314,0.328c5.844,0.019,12.702,0.849,18.633-0.451
	c0.919-0.053,1.826-0.113,2.716-0.19c0.21,0.031,0.42,0.066,0.63,0.094c2.142,0.294,4.299-0.188,6.448-0.222
	c7.352-0.117,14.841,0.802,22.192,1.063c6.198,0.219,12.486,0.346,18.653,0.963c1.771,0.177,3.479,0.299,5.168,0.543
	c1.503,1.431,3.234,2.717,5.234,3.833c1.168,0.652,3.413,1.97,4.017,3.199c0.586,1.192,0.69,0.401-1.211,0.348
	c-0.814-0.023-1.592-0.196-2.401-0.253c-4.063-0.29-8.11-0.333-12.172-0.777c-10.687-1.166-21.462-1.282-32.206-1.871
	c-5.796-0.318-11.589-0.25-17.392-0.281c-2.801-0.014-5.826-0.098-8.776,0.063c-3.643-0.084-7.397,0.243-10.571,0.298
	c-1.243,0.021-2.571-0.02-3.934-0.059c-3.777-0.461-7.84-0.322-11.522-0.302c-5.803,0.03-11.597-0.037-17.392,0.281
	c-10.743,0.589-21.519,0.704-32.206,1.871c-4.062,0.443-8.109,0.487-12.172,0.777C176.018,220.742,175.24,220.916,174.424,220.939z
	 M331.539,252.562c-2.449-0.362-4.942-0.61-7.442-0.818c2.66-7.288,3.46-20.956-5.522-24.071c-3.682-1.277-7.539,1.882-8.94,5.069
	c-1.12,2.544-1.437,5.266-1.752,7.999c-0.308,2.666-0.048,6.547-0.819,9.317c-0.064,0.088-0.12,0.181-0.168,0.279
	c-2.431-0.176-4.86-0.299-7.288-0.399c1.538-8.076,1.13-25.128-10.556-23.491c-4.367,0.611-7.58,4.128-8.716,8.342
	c-0.592,2.199-0.862,4.804-0.957,7.086c-0.074,1.809,0.517,5.084-0.281,6.718c-0.823,1.684-3.094,1.217-4.71,1.252
	c-2.203,0.05-4.407,0.117-6.611,0.178c0.043-0.118,0.08-0.242,0.103-0.382c0.924-5.476-0.033-10.949-2.401-15.961
	c-2.229-4.716-5.681-6.453-10.717-5.517c-5.057,0.941-8.798,3.912-10.441,8.814c-1.083,3.231-2.373,9.139-0.994,13.021
	c-1.908-0.052-3.814-0.11-5.722-0.153c-1.614-0.036-3.887,0.432-4.71-1.252c-0.798-1.633-0.207-4.909-0.281-6.718
	c-0.096-2.281-0.364-4.887-0.957-7.086c-1.136-4.214-4.349-7.73-8.716-8.342c-11.685-1.636-12.092,15.416-10.555,23.491
	c-2.428,0.1-4.857,0.223-7.288,0.399c-0.048-0.098-0.104-0.191-0.168-0.279c-0.771-2.77-0.51-6.652-0.819-9.317
	c-0.316-2.733-0.633-5.454-1.752-7.999c-1.401-3.187-5.258-6.346-8.94-5.069c-8.982,3.116-8.182,16.783-5.522,24.071
	c-2.5,0.207-4.993,0.454-7.442,0.818c0.907-2.966-0.251-7.041-0.442-9.851c-0.169-2.472-0.231-5.007-0.383-7.532
	c0.007-0.542,0-1.103-0.028-1.713c-0.12-2.662-0.171-5.498-0.524-8.216c5.143-0.12,10.258-0.864,15.396-0.98
	c6.346-0.142,12.698,0.186,19.048,0.036c7.007-0.167,13.962-0.699,20.993-0.676c5.94,0.019,11.981,1.099,17.741-0.534
	c0.627-0.007,1.229-0.01,1.794,0c2.194,0.037,4.486,0.194,6.791,0.28c5.424,1.219,11.075,0.272,16.635,0.254
	c7.031-0.022,13.987,0.51,20.993,0.676c6.35,0.151,12.702-0.178,19.048-0.036c5.138,0.116,10.252,0.86,15.396,0.98
	c-0.353,2.717-0.404,5.553-0.524,8.216c-0.028,0.61-0.034,1.171-0.028,1.713c-0.152,2.526-0.214,5.061-0.383,7.532
	C331.79,245.521,330.633,249.597,331.539,252.562z M322.062,251.583c-1.156-0.088-2.306-0.172-3.456-0.258
	c0.847-2.51,2.35-16.577-0.704-20.353c0.388,0.167,0.794,0.387,1.232,0.689c3.892,2.697,3.206,8.489,3.029,12.471
	c-0.08,1.798-0.454,3.66-0.453,5.438C321.711,249.876,321.905,250.926,322.062,251.583z M315.726,251.089
	c-0.976-0.081-1.956-0.157-2.919-0.254c-0.692-0.07-1.383-0.112-2.076-0.176c0.791-5.029,0.592-17.482,4.449-19.687
	c1.413,3.37,2.587,6.733,2.134,10.472c-0.388,3.204-1.44,6.357-1.597,9.583C315.718,251.053,315.726,251.067,315.726,251.089z
	 M291.918,230.937c1.282,0.558,2.428,1.621,3.173,3.059c1.182,2.279,1.171,4.984,1.354,7.472c0.211,2.871,0.12,5.594,0.443,8.378
	c-1.056-0.032-2.111-0.042-3.167-0.064c0-0.007,0.002-0.011,0.003-0.018C293.887,247.427,294.463,235.896,291.918,230.937z
	 M290.792,240.653c-0.012,3.029-0.541,6.036-0.603,9.056c-2.296-0.024-4.591-0.027-6.887-0.009c0.549-1.59,0.394-3.751,0.469-5.153
	c0.203-3.823-0.446-8.303,1.861-11.635c0.87-1.254,1.951-1.979,3.083-2.267C290.475,232.187,290.798,239.046,290.792,240.653z
	 M264.103,249.115c0.033,0.38,0.166,0.717,0.368,0.998c-0.476,0.013-0.952,0.024-1.429,0.039c-3.306-0.189-6.656-0.089-9.821-0.053
	c-1.662,0.019-3.356,0.016-5.049,0.03c-0.632-0.019-1.266-0.032-1.898-0.051c0.424-2.774-0.044-5.593,0.477-8.442
	c0.854-4.669,2.639-8.675,7.711-9.843c9.258-2.133,10.076,11.028,9.583,17.33C264.064,249.119,264.083,249.117,264.103,249.115z
	 M228.693,249.7c-2.296-0.018-4.591-0.016-6.886,0.009c-0.062-3.02-0.591-6.027-0.603-9.056c-0.007-1.608,0.318-8.467,2.074-10.008
	c1.132,0.288,2.214,1.012,3.083,2.267c2.308,3.331,1.658,7.812,1.862,11.635C228.298,245.949,228.144,248.11,228.693,249.7z
	 M218.27,249.763c0,0.007,0.002,0.011,0.003,0.018c-1.056,0.022-2.111,0.032-3.167,0.064c0.322-2.783,0.232-5.507,0.443-8.378
	c0.183-2.488,0.172-5.193,1.354-7.472c0.746-1.438,1.891-2.501,3.173-3.059C217.532,235.896,218.108,247.427,218.27,249.763z
	 M194.68,241.447c-0.452-3.739,0.721-7.103,2.134-10.472c3.857,2.204,3.658,14.658,4.449,19.687
	c-0.692,0.063-1.383,0.104-2.076,0.176c-0.962,0.098-1.943,0.173-2.919,0.254c0-0.022,0.009-0.037,0.008-0.059
	C196.12,247.804,195.068,244.651,194.68,241.447z M193.389,251.325c-1.15,0.086-2.301,0.17-3.456,0.258
	c0.157-0.657,0.352-1.707,0.352-2.012c0.002-1.778-0.372-3.64-0.453-5.438c-0.178-3.982-0.864-9.775,3.029-12.471
	c0.438-0.303,0.844-0.522,1.232-0.689C191.039,234.748,192.542,248.815,193.389,251.325z M160.755,265.669
	c-0.491-0.357-1.247-1.946-1.741-3.187c0.288-0.246,0.594-0.481,0.921-0.708c6.009-0.683,11.996-1.936,17.957-2.903
	c7.608-1.234,15.806-1.488,23.529-2.148c7.659-0.654,15.352-0.794,23.012-1.471c5.077-0.448,10.197-0.562,15.285-0.939
	c2.772-0.206,5.508-0.037,8.222-0.116c1.989,0.161,4.022,0.233,6.183,0.252c5.436,0.049,11.308,1.071,16.645-0.209
	c0.501,0.016,1.003,0.034,1.508,0.071c5.088,0.377,10.209,0.491,15.285,0.939c7.66,0.676,15.353,0.817,23.012,1.471
	c7.723,0.66,15.921,0.913,23.529,2.148c5.962,0.968,11.949,2.22,17.957,2.903c0.327,0.227,0.633,0.463,0.921,0.708
	c-0.494,1.241-1.25,2.83-1.741,3.187c-1.772,1.289-3.739,0.279-5.53,0.036c-3.689-0.502-7.52-0.55-11.246-0.901
	c-8.528-0.806-16.995-2.212-25.547-2.886c-9.741-0.767-19.525-1.239-29.23-1.976c-1.88-0.142-3.799-0.341-5.72-0.476
	c-7.203-0.827-14.876,0.631-21.958,0.58c-1.493-0.011-3.11-0.109-4.773-0.204c-4.798-1.03-9.997-0.273-14.927,0.101
	c-9.706,0.737-19.489,1.209-29.23,1.976c-8.553,0.673-17.02,2.08-25.547,2.886c-3.726,0.352-7.557,0.4-11.246,0.901
	C164.494,265.948,162.528,266.958,160.755,265.669z M343.571,326.625c0.011,0.13,0.042,0.243,0.064,0.366
	c-8.6-1.164-17.683-1.23-26.31-1.331c-14.097-0.167-28.282-0.909-42.356-0.068c-6.04-0.022-12.152,0.412-17.953,0.43
	c-5.541,0.017-11.118-0.442-16.668-0.199c-15.161-1.191-30.47-0.343-45.677-0.163c-8.627,0.102-17.711,0.168-26.31,1.331
	c0.022-0.121,0.053-0.236,0.064-0.366c0.473-5.504-0.311-11.297-0.36-16.853c-0.05-5.687,0.063-11.337-0.623-16.988
	c-0.828-6.82-0.973-14.36-2.68-21.095c0.24-0.043,0.482-0.091,0.726-0.143c5.063-1.08,10.117-1.703,15.2-2.58
	c6.107-1.053,11.962-2.549,18.171-3.234c6.697-0.74,13.418-0.462,20.127-0.972c5.993-0.456,11.933-0.568,17.918-0.948
	c1.018-0.064,2.046-0.098,3.077-0.126c4.571,0.421,9.115,0.726,13.821,0.856c5.078,0.14,10.164-0.462,15.251-0.559
	c1.686-0.032,3.398-0.03,5.069-0.219c0.323,0.016,0.648,0.028,0.97,0.048c5.986,0.38,11.925,0.492,17.918,0.948
	c6.709,0.51,13.43,0.232,20.127,0.972c6.209,0.686,12.065,2.181,18.171,3.234c5.083,0.877,10.137,1.499,15.2,2.58
	c0.243,0.052,0.484,0.1,0.726,0.143c-1.707,6.734-1.852,14.275-2.68,21.095c-0.687,5.651-0.573,11.301-0.623,16.988
	C343.881,315.329,343.098,321.12,343.571,326.625z M347.564,409.179c-0.11,18.946-0.827,37.902-0.868,56.875
	c-0.017,7.857,1.557,16.249-3.987,22.558c-5.527,6.29-16.57,8.211-24.171,10.572c-8.366,2.599-16.81,3.712-25.493,4.519
	c-3.986,0.37-7.673,0.789-11.67,0.463c-4.279-0.349-7.792,0.491-11.693,1.362c-3.988,0.102-7.972,0.223-11.978,0.373
	c-5.128,0.193-10.25-0.051-15.365-0.368c-3.912-0.873-7.431-1.718-11.719-1.368c-3.997,0.326-7.684-0.092-11.67-0.463
	c-8.683-0.807-17.128-1.92-25.493-4.519c-7.6-2.361-18.643-4.282-24.171-10.572c-5.543-6.309-3.97-14.7-3.987-22.558
	c-0.041-18.972-0.758-37.929-0.868-56.875c-0.047-8.054-0.598-16.01,0.009-24.065c0.582-7.741,0.693-15.887,0.201-23.707
	c1.149,0.038,2.367,0.072,3.673,0.151c13.916,0.849,28.124-0.33,42.023-1.182c7.421-0.456,14.765-0.121,22.189-0.669
	c1.042-0.077,2.212-0.141,3.448-0.213c8.698,0.026,17.37-0.076,26.061-0.011c3.65,0.027,7.299-0.076,10.949-0.191
	c2.352,0.181,4.62,0.277,6.488,0.416c7.424,0.548,14.768,0.213,22.189,0.669c13.898,0.852,28.107,2.031,42.022,1.182
	c1.307-0.08,2.524-0.113,3.673-0.151c-0.492,7.82-0.382,15.966,0.201,23.707C348.162,393.17,347.611,401.125,347.564,409.179z
	 M356.376,351.337c-2.496,2.604-4.585,4.786-8.459,4.93c-2.567,0.096-5.102,0.232-7.666,0.358
	c-4.928,0.243-9.779-0.673-14.679-0.999c-9.933-0.66-19.915-2.227-29.902-1.993c-11.138-0.717-22.268,0.23-33.636,0.317
	c-9.436,0.072-18.855,0.334-28.295,0.549c-3.323,0.076-6.686-0.169-10.042-0.323c-1.876-0.221-3.756-0.421-5.654-0.507
	c-10.561-0.478-21.117,1.26-31.619,1.958c-4.9,0.326-9.751,1.241-14.679,0.999c-2.563-0.127-5.099-0.262-7.666-0.358
	c-3.874-0.144-5.963-2.326-8.459-4.93c-2.479-2.588-5.149-6.112-6.214-9.866c6.841,0.648,13.767,0.161,20.653,0.157
	c8.948-0.006,17.862-0.237,26.806-0.148c8.912,0.089,17.839-0.563,26.761-0.393c0.974,0.019,1.979,0.061,3.006,0.114
	c3.221,0.636,6.583,0.264,9.885,0.568c6.386,0.588,12.68,0.576,19.093,0.464c7.047-0.123,13.71,0.083,20.375-0.557
	c4.257-0.083,8.55-0.517,12.383-0.59c8.922-0.17,17.85,0.482,26.762,0.393c8.943-0.089,17.858,0.142,26.806,0.148
	c6.887,0.004,13.812,0.491,20.653-0.157C361.525,345.224,358.854,348.75,356.376,351.337z M363.068,338.294
	c-7.308-0.673-14.613-0.937-21.96-0.976c-8.996-0.048-17.936-0.649-26.928-0.168c-9.082,0.486-18.139,0.387-27.225,0.712
	c-10.247-1.128-21.009-0.322-31.346,0.007c-2.422,0.077-4.838,0.212-7.251,0.326c-3.349-0.608-6.889-0.103-10.282-0.132
	c-4.274-0.037-8.52-0.037-12.787-0.193c-9.169-0.337-18.309-0.228-27.475-0.719c-8.992-0.481-17.932,0.12-26.928,0.168
	c-7.347,0.039-14.652,0.302-21.96,0.976c0-0.039-0.004-0.079-0.004-0.118c0.013-2.699,1.129-3.386,2.936-3.894
	c0.782-0.043,1.569-0.119,2.357-0.198c4.021-0.402,8.003-0.644,12.019-0.994c9.422-0.823,18.978-0.933,28.439-1.054
	c9.755-0.124,19.472-0.341,29.248-0.384c1.937-0.009,3.882,0.039,5.832,0.097c0.181,0.008,0.362,0.01,0.544,0.017
	c4.88,0.149,9.779,0.344,14.609-0.094c3.734,0.054,7.461,0.17,11.215,0.181c4.983,0.016,9.902,0.161,14.848,0.046
	c1.894,0.058,3.794,0.048,5.698,0.008c3.844,0.148,7.761,0.439,11.465-0.253c9.759,0.043,19.459,0.259,29.196,0.383
	c9.461,0.121,19.017,0.231,28.439,1.054c4.016,0.351,7.998,0.592,12.019,0.994c0.788,0.079,1.574,0.154,2.357,0.198
	c1.807,0.509,2.922,1.194,2.936,3.894C363.073,338.215,363.069,338.255,363.068,338.294z"/>
<path d="M334.488,391.338c0.593-5.607-0.879-12.252-5.643-14.722c-8.481-4.396-11.065,6.703-10.753,13.028
	c0.11,2.231-0.642,7.136,1.824,8.377c2.522,1.269,7.698,0.209,10.416,0.174c3.693-0.048,4.771-1.148,4.344-4.784
	C334.6,392.767,334.545,392.064,334.488,391.338z M331.276,394.665c-1.487,0.651-5.528,0.212-7.308,0.278
	c-0.923,0.034-1.784-0.07-2.66-0.043c-0.776-1.984-0.339-7.913-0.25-9.112c0.222-2.996,1.768-7.89,5.369-7.145
	c6.343,1.312,5.086,10.679,5.426,16.077C331.697,394.731,331.508,394.717,331.276,394.665z"/>
<path d="M294.642,396.853c1.589-1.427,1.248-3.759,0.731-5.931c0.702-4.927,0.039-10.324-3.254-14.047
	c-4.656-5.262-11.995-1.564-13.193,4.69c-0.381,1.988-0.203,3.926-0.133,5.916c0.073,2.059-0.293,4.634,0.137,6.647
	c0.623,2.918,3.387,3.01,5.886,3.351c2.049,0.279,3.927,0.131,5.989,0.121C292.094,397.592,293.585,397.801,294.642,396.853z
	 M284.741,394.059c-0.537-0.059-1.489,0.094-1.927-0.212c-1.094-0.766-0.988-3.259-1.042-4.423
	c-0.086-1.829-0.308-3.772-0.139-5.591c0.379-4.108,3.812-8.823,7.836-5.12c1.488,1.37,2.151,3.339,2.666,5.267
	c0.722,2.709,0.82,5.656,0.667,8.522c-0.371,0.758-0.841,1.37-1.436,1.636C289.756,394.857,286.368,394.236,284.741,394.059z"/>
<path d="M313.87,440.173c-0.12-3.227-0.594-6.441-0.909-8.742c-0.708-5.173-2.449-12.272-8.144-14.17
	c-3.812-1.27-10.085-0.194-12.688,3.016c-4.102,5.06-2.366,13.938-2.613,19.855c-0.182,4.336-1.783,10.513,3.564,11.578
	c3.286,0.654,7.051,0.526,10.406,0.796c2.313,0.187,5.583,0.967,7.852,0.189c4.258-1.46,2.864-6.737,2.672-10.21
	C313.97,441.718,313.922,440.947,313.87,440.173z M310.991,447.167c-0.046,0.108-0.073,0.234-0.126,0.336
	c-1.136,2.192-1.393,1.799-4.071,1.651c-1.669-0.092-3.323-0.293-4.992-0.43c-4.199-0.344-9.179,0.703-9.103-5.009
	c0.06-4.493-0.186-9.076,0.071-13.561c0.246-4.287,0.38-8.465,5.397-9.858c3.47-0.964,7.354,0.127,9.316,3.272
	C311.429,429.895,311.011,439.486,310.991,447.167z"/>
<path d="M271.574,286.344c-3.363-11.271-16.997-13.978-25.53-6.602c-8.21,7.096-9.141,24.617-5.622,34.156
	c0.121,0.328,0.436,0.54,0.763,0.603c2.756,2.508,9.208,1.803,12.319,1.632c3.169-0.176,6.388-0.55,9.543-0.899
	c2.14-0.237,5.217,0.141,7.293-0.49c4.223-1.283,2.848-8.02,2.848-11.357C273.187,297.894,273.156,291.647,271.574,286.344z
	 M269.142,309.055c-0.763,2.132,0.681,1.313-1.392,1.926c-3.296,0.974-8.108,0.752-11.565,1.053
	c-2.681,0.233-11.005,1.508-13.13-0.709c-0.162-0.169-0.336-0.289-0.513-0.376c0.72-7.311-0.614-14.7,1.952-21.945
	c2.289-6.462,9.276-12.163,16.452-9.27c4.63,1.867,6.616,5.539,7.432,10.109c0.668,3.734,0.9,7.959,0.982,11.743
	C269.411,303.769,269.884,306.982,269.142,309.055z"/>
<g>
</g>
<g>
</g>
<g>
</g>
<g>
</g>
<g>
</g>
<g>
</g>
<g>
</g>
<g>
</g>
<g>
</g>
<g>
</g>
<g>
</g>
<g>
</g>
<g>
</g>
<g>
</g>
<g>
</g>
</svg>
