<?xml version="1.0" encoding="iso-8859-1"?>
<!-- Generator: Adobe Illustrator 19.0.0, SVG Export Plug-In . SVG Version: 6.00 Build 0)  -->
<svg version="1.1" id="Layer_1" xmlns="http://www.w3.org/2000/svg" xmlns:xlink="http://www.w3.org/1999/xlink" x="0px" y="0px"
	 viewBox="0 0 511.997 511.997" style="enable-background:new 0 0 511.997 511.997;" xml:space="preserve">
<path style="fill:#E2BF7F;" d="M175.54,263.859c0.446-0.637,0.848-1.307,1.189-2.02c2.426-5.061,1.378-11.184,1.382-16.607
	c0.005-6.476,0.001-12.952-0.048-19.428c-0.029-3.866-1.464-7.726-1.624-11.663c-0.168-4.106,0.208-8.231,1.091-12.245
	c1.729-7.867,5.422-15.325,10.824-21.319c1.67-1.853,3.495-3.581,4.947-5.612c2.799-3.917,4.05-8.768,4.348-13.573
	c0.381-6.15-0.56-12.412-1.118-18.507c-0.942-10.275,1.806-20.896,7.806-29.312c2.76-3.871,6.186-7.383,8.263-11.702
	c2.085-4.333,1.78-8.876,1.555-13.557c-0.489-10.115-1.857-21.046,3.275-30.296c1.237-2.229,2.793-4.28,3.864-6.593
	c2.465-5.321-0.131-12.12-0.575-17.744c-0.405-5.134,0.674-10.925,4.83-13.966c1.738-1.271,4.077-2.209,4.473-4.567
	c0.421-2.514-1.267-4.741,0.557-7.251c1.095-1.507,2.984-2.179,4.773-2.699c8.308-2.412,17.637-2.779,26.285-3.066
	c3.496-0.116,7.63,0.287,9.42,3.293c1.26,2.117,0.977,5.052,2.732,6.78c1.067,1.052,2.636,1.38,3.936,2.126
	c3.897,2.238,5.298,9.216,5.626,13.425c0.501,6.437-1.222,13.624-3.236,19.685c-0.399,1.202-0.829,2.549-0.279,3.689
	c1.383,2.867,3.429,3.345,3.957,6.851c0.609,4.048,1.308,8.189,1.087,12.296c-0.24,4.436-0.512,8.885-0.532,13.389
	c-0.005,1.007,0.019,2.1,0.642,2.891c0.987,1.255,2.872,1.12,4.468,1.153c3.947,0.083,7.817,2.029,10.237,5.15
	c2.626,3.387,2.571,7.388,3.341,11.374c0.844,4.372,0.584,8.888,0.623,13.344c0.09,9.982,0.12,19.984-0.863,29.929
	c-0.096,0.97-0.176,2.017,0.327,2.852c1.061,1.764,3.648,1.336,5.705,1.393c4.453,0.12,8.231,3.664,9.997,7.753
	c1.736,4.022,1.147,8.281,2.374,12.334c1.173,3.877,1.924,7.479,2.324,11.583c0.77,7.908,1.332,15.866,2.32,23.707
	c0.92,7.294-1.45,16.001-2.302,23.321c-0.117,1.006-0.228,2.062,0.161,2.997c0.598,1.444,2.231,2.193,3.781,2.392
	c1.551,0.198,3.132-0.014,4.684,0.175c4.505,0.549,8.018,4.467,9.472,8.766c1.471,4.346,0.672,8.903,1.876,13.249
	c1.134,4.093,1.291,8.067,1.457,12.324c0.273,7.014,0.489,14.03,0.713,21.044c0.109,3.395,0.884,7.465,0.36,10.811
	c-0.357,2.277-2.02,4.056-2.119,6.465c-0.07,1.68,0.781,3.521,2.376,4.051c1.099,0.365,2.29,0.054,3.436-0.118
	c2.313-0.347,4.754-0.093,6.829,0.983c2.55,1.322,4.365,3.779,5.473,6.429c0.954,2.281,1.028,4.764,1.854,7.039
	c0.595,1.638,1.575,3.036,2.119,4.748c1.476,4.631,2.095,9.52,2.466,14.35c0.785,10.192,0.954,20.417,1.129,30.633
	c0.067,3.891-0.496,7.417-0.741,11.223c-0.308,4.776,0.209,9.263-0.877,14.024c-0.253,1.107-0.541,2.322-0.024,3.334
	c0.98,1.921,3.763,1.569,5.88,1.154c3.081-0.603,6.41-0.687,9.219,0.713c3.45,1.719,5.554,5.436,6.288,9.22
	c0.836,4.307,0.186,8.397,1.342,12.652c1.212,4.462,1.375,9.707,1.134,14.313c-0.168,3.187-1.621,6.241-1.733,9.532
	c-0.107,3.12,0.799,6.419,3.1,8.531c3.952,3.626,10.094,2.553,15.438,2.095c5.018-0.43,10.1-0.099,15.019,0.976
	c1.919,0.419,3.947,1.036,5.164,2.578c2.551,3.23,0.179,8.533,2.66,11.819c2.002,2.652,5.985,2.525,8.935,4.055
	c4.717,2.446,4.336,7.764,4.704,12.253c0.349,4.26-0.927,10.057-5.358,11.841c-2.566,1.033-5.422,0.989-8.189,0.93
	c-36.321-0.774-72.642-1.549-108.964-2.323c-19.559-0.417-38.969-1.687-58.479-1.895c-20.167-0.216-40.331,0.413-60.478,1.251
	c-38.86,1.617-77.745,4.067-116.656,2.978c-5.414-0.151-12.058-0.727-16.223-4.626c-2.244-2.1-1.91-3.433-1.758-6.187
	c0.191-3.475-0.096-7.015-0.021-10.504c0.037-1.692,0.201-3.591,1.493-4.684c2.062-1.744,5.29-0.197,7.874-0.982
	c1.882-0.571,3.191-2.362,3.728-4.254c1.046-3.689-0.449-7.601,2.511-10.696c2.052-2.146,5.247-2.688,8.212-2.814
	c7.234-0.308,14.686,1.129,21.605-1.006c6.622-2.043,12.019-7.17,18.74-8.862c1.437-0.361,2.951-0.574,4.211-1.353
	c1.903-1.176,2.877-3.475,3.018-5.707c0.211-3.328-0.574-7.045-0.791-10.4c-0.262-4.031-0.6-8.057-0.896-12.085
	c-0.607-8.243-1.138-16.501-1.111-24.772c0.034-10.01-0.757-20.341,1.637-30.151c1.336-5.478,3.772-10.796,7.715-14.825
	c3.23-3.299,7.456-5.748,9.729-9.766c2.203-3.893,2.143-8.47,2.315-12.803c0.161-4.039,1.182-7.882,1.223-11.868
	c0.091-8.695-2.187-17.194-1.526-25.973c0.577-7.663,3.018-15.421,8.214-21.083C169.667,269.616,173.218,267.175,175.54,263.859z"/>
<path style="fill:#C19D63;" d="M213.522,78.362c0.006-0.194,0.013-0.384,0.022-0.568c0.449-8.766,2.915-17.576,6.796-25.201
	c1.656-3.253,1.506-5.109,1.515-8.643c0.015-6.536-0.897-13.765,2.278-19.77c1.111-2.101,3.331-3.704,4.148-5.927
	c1.218-3.312-0.708-6.917,0.574-10.098c1.191-2.956,6.664-5.574,9.85-4.679c2.199,0.619,2.193,2.317,4.2,3.74
	c3.147,2.231,7.591,1.745,11.214,1.875c4.528,0.163,15.327-0.127,18.58,3.296c-6.271-0.144-12.665-0.966-19.028-0.451
	c-8.643,0.7-10.714,5.403-9.307,13.566c1.557,9.033,8.402,11.096,16.78,12.025c3.159,0.351,15.339,0.569,16.795,4.774
	c2.407,6.945-10.848,2.217-13.16,1.989c-10.086-0.999-20.312-0.248-21.515,11.695c-1.015,10.08,5.972,16.014,15.065,18.833
	c5.146,1.596,12.744,3.766,18.055,3.707c2.322-0.026,4.4-2.007,6.298-0.045c1.649,1.706,0.57,5.234-1.204,6.379
	c-2.991,1.93-9.618,1.202-13.217,1.772c-4.168,0.661-8.392,0.567-12.584,1.088c-8.585,1.068-15.113,4.808-18.524,13.089
	c-13.121,31.858,39.659,26.712,55.709,33.194c4.47,1.805,11.557,5.883,9.086,12.293c-2.52,6.536-11.898,4.104-17.405,3.81
	c-21.587-1.152-40.888,0.7-54.128,18.391c-8.82,11.786-31.001,36.558-11.091,48.762c19.723,12.09,49.965,4.081,71.228,2.252
	c8.345-0.718,26.529-6.891,32.145,2.34c8.635,14.194-18.834,12.855-25.611,13.003c-10.027,0.217-20.083-0.425-30.088,0.488
	c-23.479,2.139-69.55,23.339-53.405,53.486c7.665,14.312,27.753,14.38,42.046,14.56c18.257,0.229,37.751-0.891,55.686-3.823
	c11.643-1.904,20.413-1.666,31.494-0.348c3.181,6.084,2.295,11.184-4.99,12.377c-5.965,0.977-12.474,1.257-18.525,1.803
	c-18.035,1.625-36.233-0.342-54.21,2.178c-27.979,3.923-48.267,9.823-57.667,39.949c-7.451,23.879,4.009,43.839,28.665,49.248
	c24.563,5.389,56.653,4.068,81.722,1.662c14.983-1.438,28.777-10.587,44.145-9.396c13.883,1.077,1.572,12.66-4.15,16.996
	c-16.668,12.627-41.222,10.485-60.788,13.092c-7.679,1.023-15.372,2.132-23.053,3.191c-4.922,0.68-42.273,4.804-36.104,15.384
	c4.948,8.485,35.912,5.813,44.615,7.412c12.399,2.279,27.761,1.74,39.335,7c-10.991,7.758-33.207,3.966-46.299,4.002
	c-12.188,0.032-24.223-1.065-36.515-1.214c-14.123-0.17-28.235-0.869-42.362-0.853c-9.926,0.011-19.826,0.889-29.74,1.263
	c-8.385,0.316-16.618-0.146-25.037,0.126c-3.25,0.105-26.002-0.087-15.565-7.099c3.733-2.507,9.363-4.763,13.706-3.711
	c1.965-4.323-0.192-9.819-1.145-14.128c-1.085-4.904-0.679-8.581-0.549-13.495c0.344-12.876-0.659-25.754-0.136-38.636
	c0.45-11.081-0.378-25.226,9.18-32.998c10.054-8.176,12.117-13.17,11.673-26.023c-0.432-12.517,0.342-25.036,1.039-37.53
	c0.357-6.392,1.513-12.96,5.817-17.752c6.862-7.64,12.457-7.949,12.457-19.421c0-21.26-6.306-47.347,5.382-66.819
	c2.985-4.974,7.608-7.979,11.243-12.225c3.375-3.942,1.853-6.369,1.157-11.627c-0.701-5.294,0.897-10.348,1.537-15.546
	c0.55-4.461-0.208-8.703,0.074-13.19c0.536-8.528,2.518-17.435,9.072-23.435c1.461-1.339,4.57-2.868,5.599-4.448
	c3.646-5.591,1.895-17.877,1.271-24.174c-0.861-8.695-2.063-18.171,4.656-25c7.864-7.993,19.174-9.572,29.731-11.526"/>
<path style="fill:#BF7C64;" d="M217.647,462.98c-4.712,0.414-9.598-0.942-14.391-0.936c-6.907,0.008-13.814,0-20.72,0
	c-21.906,0-43.654-0.563-65.601,0.034c-7.495,0.204-30.777-3.478-35.009,5.35c-1.117,2.34,0.102,7.702-0.06,10.445
	c-4.593,1.663-10.234,0.934-13.145,6.154c-2.264,4.06-2.664,16.918-0.341,20.96c1.558,2.711,1.833,2.433,4.985,2.915
	c7.3,1.116,16.101,0.67,23.49,0.489c32.657-0.803,64.883-1.888,97.562-0.933c49.22,1.438,98.98,2.584,148.172,0.34
	c17.513-0.799,35.142-0.364,52.682-0.364c8.068,0,16.274-0.43,24.331-0.025c5.103,0.256,11.407,1.539,16.509,0.492
	c7.483-1.537,7.588-8.812,6.766-15.005c-0.395-2.978-0.679-7.496-3.034-9.676c-2.055-1.903-6.699-0.748-8.26-3.021
	c-1.154-1.682,0.159-2.374,0.269-4.117c0.251-3.98,0.587-6.051-2.576-9.021c-4.43-4.159-12.14-4.166-17.808-4.253
	c-7.425-0.114-14.531-0.863-21.955-1.463c-18.277-1.474-36.63-1.167-54.949-1.173C292.648,460.161,250.65,463.743,217.647,462.98z"
	/>
<path style="fill:#9B5E4B;" d="M67.91,499.011c-0.341-4.032-0.157-13.888,2.9-16.857c3.257-3.162,9.315,1.175,11.967-2.33
	c1.938-2.56-1.412-7.889-0.36-11.228c1.746-5.545,9.08-3.962,14.587-4.213c23.212-1.059,46.635-2.662,69.781-2.828
	c4.601-0.033,9.416-0.078,13.93,0.941c4.222,0.953,5.663,3.195,8.954,5.33c7.498,4.861,20.437,3.108,28.906,3.018
	c16.079-0.17,32.178,0.354,48.274,0.011c38.243-0.815,76.593-0.989,114.86-0.024c14.194,0.358,29.268-1.01,43.317,1.185
	c9.725,1.52,4.654,6.131-2.158,6.3c-36.9,0.913-73.883-0.145-110.779,0.802c-22.479,0.577-45.27,1.708-67.736,0.379
	c-6.294-0.372-12.566-0.927-18.853-1.267c-1.385-0.076-2.614-0.142-3.676,0.581c2.604,3.181,9.963,3.88,13.746,4.706
	c8.655,1.892,17.366,3.526,26.016,5.442c40.073,8.875,80.93,10.73,121.752,12.352c13.229,0.525,26.462,0.303,39.674,0.937
	c4.878,0.234,10.369-0.334,14.972,1.536c-1.336,4.502-10.887,3.797-14.37,3.662c-14.213-0.554-28.285-1.332-42.545-1.404
	c-36.119-0.183-72.258-1.978-108.393-1.888c-58.718,0.149-117.482,1.408-176.218,1.408C91.021,505.563,67.084,509.316,67.91,499.011
	z"/>
<g>
	<path style="fill:#4F3935;" d="M104.409,506.966c0.002-4.441-1.583-10.579,0.467-14.517c1.765-3.388,8.234-4.819,11.481-1.878
		c1.798,1.628,3.336,12.129,1.983,14.418C115.754,509.369,107.764,504.996,104.409,506.966z"/>
	<path style="fill:#4F3935;" d="M142.472,506.62c0-4.799-0.296-9.271,0.691-13.969c0.665-3.165,3.946-5.965,7.424-4.921
		c2.21,0.663,4.834,3.416,5.304,5.646c0.57,2.708,0.139,5.817-0.002,8.558c-0.091,1.746,0.086,3.731-0.513,5.359
		C152.187,505.034,146.175,506.306,142.472,506.62z"/>
	<path style="fill:#4F3935;" d="M179.207,505.24c0.057-3.884-0.133-6.385,1.57-10.015c1.049-2.237,3.251-5.98,5.98-6.511
		c1.983-0.386,4.888,1.287,5.561,3.142c1.15,3.172,0.538,7.75,0.556,11.112c0.011,2.015-0.353,2.402-2.546,2.755
		C186.18,506.39,181.696,504.6,179.207,505.24z"/>
	<path style="fill:#4F3935;" d="M216.114,504.033c-0.021-1.336-0.216-2.634-0.172-3.996c0.051-1.584-0.392-3.566-0.161-5.058
		c0.34-2.189,3.458-5.971,5.507-6.769c2.453-0.955,3.785,1.275,4.829,3.107c1.673,2.932,2.394,5.022,1.899,8.569
		c-0.204,1.466-0.36,3.544-1.576,4.361c-1.014,0.681-3.424,0.295-4.629,0.425C219.075,504.965,216.472,505.834,216.114,504.033z"/>
	<path style="fill:#4F3935;" d="M251.642,504.033c0-5.12-0.47-15.863,7.074-16.039c1.942-0.045,3.311,1.808,4.351,3.267
		c1.981,2.78,1.733,7.233,1.548,10.456c-0.116,2.013-0.284,2.359-2.387,2.904C257.987,505.722,253.508,504.638,251.642,504.033z"/>
	<path style="fill:#4F3935;" d="M288.549,488.511c-6.155,3.007-4.873,11.011-3.246,16.359c1.477,0.105,2.974-0.349,4.501-0.281
		c1.307,0.059,2.63,0.292,3.924-0.033c3.014-0.758,2.275-2.776,2.409-5.39c0.12-2.34,0.32-4.349-0.983-6.443
		C294.211,491.209,290.95,488.538,288.549,488.511z"/>
	<path style="fill:#4F3935;" d="M320.11,504.55c-1.761-5.206,0.211-16.788,7.767-14.417c2.373,0.745,4.407,3.233,5.124,5.613
		c0.686,2.276,0.768,7.573-0.944,9.493C328.953,508.719,321.74,504.044,320.11,504.55z"/>
	<path style="fill:#4F3935;" d="M354.948,505.068c2.543-4.434,0.096-17.491,8.968-16.026c2.223,0.367,4.815,1.827,5.739,3.95
		c0.956,2.197,0.523,4.665,0.122,6.904c-0.308,1.721-0.17,3.689-0.72,5.323C367.702,504.833,355.892,506.198,354.948,505.068z"/>
	<path style="fill:#4F3935;" d="M394.442,505.757c-0.545-1.845-0.368-5.555-0.181-7.49c0.204-2.104,1.343-3.533,2.392-5.28
		c1.16-1.934,2.127-4.232,4.901-4.139c2.04,0.068,3.885,1.695,4.997,3.246c2.196,3.062,1.474,6.547,1.126,10.179
		c-0.224,2.341,0.412,3.325-1.926,3.845C401.921,506.966,397.202,507.511,394.442,505.757z"/>
</g>
<g>
	<path style="fill:#494032;" d="M229.242,47.451c-1.438-3.5-1.565-14.098,0.107-18.494c1.657-4.353,5.452-4.624,7.55-0.589
		c1.474,2.837,3.115,11.748,2.485,15.06C238.489,48.13,233.227,45.624,229.242,47.451z"/>
	<path style="fill:#494032;" d="M247.162,32.208c-0.011,2.719-1.81,11.195,1.434,12.241c2.455,0.791,5.801-0.597,8.401-0.325
		c2.178,0.228,2.66,0.34,2.964-1.715c0.59-3.988,0.171-8.987-0.326-12.933c-0.351-2.787-1.199-7.42-3.94-8.624
		C247.326,17.177,246.677,30.428,247.162,32.208z"/>
	<path style="fill:#494032;" d="M266.453,28.128c-0.02,4.996-1.788,10.854-0.556,15.766c0.353,1.409,0.712,1.772,2.426,1.84
		c1.628,0.065,3.937,0.629,5.517,0.356c1.139-3.036,1.039-6.589,1.186-9.828c0.151-3.316,0.492-6.887,0.338-10.181
		c-0.09-1.925-0.706-5.196-3.162-5.011c-1.097,0.083-3.004,1.602-3.707,2.366C266.946,25.121,267.174,27.631,266.453,28.128z"/>
</g>
<path d="M445.654,491.212c0.27-1.988,0.963-3.728,0.797-5.864c-0.562-7.194-7.067-8.091-12.942-8.516
	c-0.388-0.028-0.778-0.041-1.166-0.065c1.167-3.887,2.904-8.393,0.46-11.917c-2.353-3.391-8.205-3.611-11.833-4.025
	c-9.125-1.042-18.381-1.618-27.634-1.941c0.128-0.498,0.132-1.045-0.037-1.616c-0.511-1.729,0.151-5.084,0.172-6.897
	c0.025-1.995-0.084-3.949-0.237-5.931c-0.325-4.178-0.545-8.605-0.17-12.798c0.597-6.68-1.154-13.153-2.316-19.683
	c0.347-0.431,0.512-0.995,0.312-1.623c-1.243-3.9-6.324-5.386-9.945-5.782c-3.29-0.36-6.594-0.403-9.893-0.554
	c-0.417-0.019-0.8-0.03-1.163-0.015c0.609-2.226,0.844-4.63,1.12-7.277c0.843-8.079,0.513-16.27,0.597-24.386
	c0.079-7.646-0.404-15.137-0.85-22.741c-0.459-7.832-1.304-16.265-3.338-23.852c-1.712-6.391-4.708-12.843-11.283-15.243
	c-2.55-0.931-5.346-1.455-8.195-1.754c0.047-4.513-0.464-8.912-0.972-13.392c-0.722-6.36-0.436-12.942-0.408-19.329
	c0.026-6.186-0.364-12.442-0.615-18.627c-0.208-5.089-0.87-10.944-2.907-15.641c-1.367-3.149-2.66-6.089-5.883-7.648
	c-2.94-1.424-6.435-2.045-9.83-2.527c-0.005-0.032-0.007-0.064-0.013-0.094c-0.172-9.369,0.767-18.712,0.014-28.018
	c-0.374-4.629-0.477-9.409-0.711-14.047c-0.308-6.095-1.326-11.833-1.962-17.879c-0.831-7.896-2.253-17.942-10.805-21.215
	c-2.219-0.85-4.845-1.224-7.398-1.428c-0.192-6.691-1.13-13.459-0.887-20.091c0.315-8.554,0.395-17.556-0.144-26.124
	c-0.41-6.507-1.12-13.254-7.74-16.143c-3.304-1.441-6.933-2.238-10.619-2.721c-0.184-7.587,0.11-15.181-0.764-22.721
	c-0.49-4.222-1.273-8.362-3.872-11.609c1.961-5.816,0.824-13.402,1.208-19.509c0.255-4.068,2.063-10.473-0.904-13.926
	c-1.461-1.701-3.882-2.907-6.418-3.756c-0.014-0.111-0.018-0.218-0.046-0.334c-0.659-2.703-0.375-5.319-2.385-7.477
	c-1.669-1.792-4.315-2.577-6.568-3.27c-6.255-1.921-12.741-1.104-19.16-0.532c-8.061,0.719-26.297,0.855-20.089,13.923
	c-2.523,1.075-4.754,2.683-6.391,5.101c-3.414,5.037-3.363,11.638-2.912,17.446c0.362,4.683,0.759,9.04,1.5,13.572
	c-4.187,2.767-7.452,6.458-8.659,11.389c-1.566,6.4-1.408,13.272-1.412,19.808c-0.004,6.41-0.033,13.498,1.103,19.898
	c-6.254,4.901-11.226,11.117-14.244,19.225c-3.082,8.278-2.441,16.852-3.055,25.473c-0.619,8.689-0.026,16.833,0.946,25.386
	c-7.854,5.005-14.806,12.366-17.508,21.435c-3.164,10.617-3.326,21.04-2.933,31.967c0.227,6.285,0.006,12.445,0.04,18.723
	c0.031,5.792-0.364,11.819,0.892,17.505c-5.038,3.152-9.71,6.821-13.005,11.064c-6.897,8.886-6.064,22.02-6.171,32.652
	c-0.125,12.366-1.965,25.422,0.207,37.539c-4.538,2.63-8.793,5.717-12.565,9.466c-6.309,6.272-7.553,13.131-8.563,21.671
	c-0.942,7.955-2.089,16.517-1.906,24.513c0.189,8.289,0.549,16.828,1.38,25.066c0.41,4.057,0.643,8.13,1.186,12.168
	c0.6,4.459,1.76,9.57,2.017,14.087c-3.319,0.665-6.585,1.492-9.852,2.642c-4.217,1.485-7.239,4.672-11.062,6.548
	c-8.788,0.331-17.572,0.898-26.239,1.888c-3.628,0.414-9.48,0.634-11.833,4.025c-2.445,3.524-0.708,8.029,0.46,11.917
	c-0.388,0.025-0.778,0.038-1.166,0.065c-5.875,0.424-12.381,1.321-12.942,8.516c-0.166,2.137,0.526,3.878,0.797,5.864
	c-1.025,5.078-1.374,10.667,0.25,14.519c0.24,0.568,0.567,1.059,0.935,1.516c0.077,0.292,0.138,0.59,0.227,0.877
	c0.34,1.1,1.458,1.481,2.354,1.165c4.235,2.166,10.77,1.854,14.707,1.801c8.408-0.113,17.124-0.879,25.445-0.009
	c3.716,0.388,7.377,0.482,11.083,0.789c4.374,0.362,8.485-0.158,12.88-0.145c17.956,0.05,35.928-0.485,53.833-1.196
	c8.191-0.325,16.427-0.103,24.59-0.784c10.597,2.532,22.607,0.079,33.322,0.318c7.972,0.177,16.341,0.046,24.316-0.359
	c5.765-0.293,11.998,0.215,17.824-0.611c2.592-0.038,5.179-0.005,7.719,0.297c9.314,1.111,18.744,0.766,28.117,1.138
	c17.905,0.711,35.876,1.247,53.833,1.196c4.395-0.013,8.506,0.508,12.88,0.145c3.707-0.307,7.367-0.4,11.083-0.789
	c8.321-0.869,17.036-0.104,25.445,0.009c3.938,0.053,10.472,0.365,14.707-1.801c0.896,0.316,2.014-0.065,2.354-1.165
	c0.089-0.288,0.15-0.586,0.227-0.877c0.367-0.457,0.695-0.948,0.935-1.516C447.028,501.878,446.679,496.29,445.654,491.212z
	 M368.786,407.24c1.603,0.798,3.664,0.807,5.41,0.892c2.584,0.124,7.476-0.009,10.654,1.368c-0.263,0.247-0.531,0.509-0.823,0.8
	c-3.805,3.809-7.048,5.748-12.277,6.703c-6.215,1.136-12.421,1.703-18.708,2.172c-1.186,0.089-2.372,0.192-3.558,0.29
	c5.844-1.939,11.895-4.309,16.3-8.385C367.113,409.851,368.072,408.575,368.786,407.24z M231.306,10.727
	c1.079-2.863,3.622-4.492,6.405-5.02c4.311-0.818,8.908-0.64,13.281-1.051c3.5-0.329,7.218-0.598,10.711-0.294
	c1.744,0.152,4.723,0.643,6.377,1.591c2.881,1.653,3.003,3.041,3.086,5.006c-0.382-0.067-0.757-0.13-1.107-0.183
	c-6.175-0.928-12.947-1.417-19.156-0.694c-5.998,0.699-11.868,1.957-17.787,3.073c-0.803,0.151-1.59,0.347-2.367,0.568
	C230.893,12.793,230.811,12.044,231.306,10.727z M224.143,26.229c1.817-6.582,6.831-7.643,12.67-8.762
	c4.983-0.955,9.959-2.054,15.02-2.549c4.684-0.458,9.275,0.067,13.934,0.51c3.598,0.342,12.535,1.09,13.554,5.245
	c0.489,1.995-0.338,5.349-0.539,7.397c-0.244,2.488-0.333,4.899-0.465,7.388c-0.179,3.386-0.738,6.861-0.463,10.238
	c-0.698-0.359-1.432-0.663-2.181-0.944c0.547-1.837,0.447-3.906,0.519-5.815c0.129-3.396,0.216-7.082-0.089-10.469
	c-0.222-2.457-0.819-7.977-4.176-8.434c-3.371-0.458-5.951,5.036-6.77,7.473c-1.562,4.644-1.393,10.512,0.02,15.26
	c-0.63-0.034-1.251-0.058-1.856-0.071c-0.879-0.018-1.765-0.037-2.652-0.052c1.081-6.936,1.088-24.966-8.485-23.971
	c-5.043,0.524-5.737,6.432-5.856,10.412c-0.14,4.696-1.417,9.409-0.536,13.916c-1.105,0.103-2.206,0.221-3.296,0.375
	c-0.493,0.07-1.009,0.153-1.524,0.236c0.002-0.812-0.017-1.612-0.063-2.385c0.636-4.768-0.119-9.844-2.13-14.163
	c-1.412-3.033-5.004-6.171-8.398-3.901c-3.225,2.157-3.025,7.955-3.398,11.254c-0.333,2.952-0.133,5.604-0.224,8.523
	c-0.054,1.726-0.316,3.004,0.462,4.313c-1.162,0.463-2.31,0.954-3.414,1.511C224.422,41.329,222.126,33.535,224.143,26.229z
	 M267.036,36.48c0.05-3.187-0.421-10.072,3.03-12.1c3.783-2.223,3.14,5.877,3.14,8.007c0,3.633,0.425,7.829-0.316,11.493
	c-1.978-0.503-4.023-0.818-6.007-0.994C267.521,40.763,267,38.767,267.036,36.48z M250.064,24.945
	c0.066-0.181,0.159-0.364,0.275-0.544c1.185-1.854,4.743-3.522,5.543-0.604c0.595,0.892,0.271,1.027,0.534,1.84
	c0.56,1.729,1.04,3.289,1.301,5.102c0.563,3.931,0.407,7.977,1.077,11.876c-3.216-0.041-6.458-0.026-9.674,0.145
	c-0.066-0.215-0.142-0.434-0.161-0.707c-0.133-1.841-0.148-3.348,0.078-5.2c0.196-1.608,0.371-3.208,0.444-4.827
	C249.583,29.749,249.254,27.165,250.064,24.945z M238.076,36.304c-0.028,2.618-0.125,5.235-0.097,7.851
	c-2.364,0.469-4.828,1.062-7.283,1.844c-0.686-2.3-0.587-7.083-0.472-9.147c0.126-2.285-0.028-6.847,1.077-8.759
	c0.123-0.398,0.24-0.797,0.353-1.197c0.09-0.073,0.181-0.144,0.275-0.208c0.195-0.066,0.39-0.13,0.571-0.174
	c0.22-0.017,0.445-0.014,0.662-0.087c0.012-0.004,0.02-0.012,0.032-0.017c1.614-0.12,2.611,0.845,2.976,2.93
	c0.607,1.302,1.075,2.775,1.425,4.16C237.827,34.428,237.971,35.365,238.076,36.304z M215.78,71.839
	c0.534-6.695,1.849-13.298,7.936-17.272c4.859-3.173,11.102-4.344,16.689-5.549c5.458-1.177,10.822-1.176,16.376-1.173
	c5.849,0.004,13.132-0.43,18.526,2.259c6.001,2.992,5.908,9.965,6.267,15.738c0.365,5.869,0.466,11.578,0.268,17.44
	c-1.67-0.115-3.328-0.197-4.944-0.275c-7.58-0.365-15.543,1.433-22.966,2.807c-8.766,1.623-17.992,3.433-26.273,6.847
	c-4.311,1.778-8.384,3.823-12.109,6.233C216.496,89.963,215.067,80.77,215.78,71.839z M198.831,149.027
	c0.589-8.42,0.308-17.565,3.04-25.625c6.508-19.205,25.678-26.271,43.638-30.931c9.156-2.376,20.044-4.663,29.568-4.507
	c3.945,0.064,8.086,0.575,11.972,1.229c1.872,0.315,3.814,0.614,5.602,1.291c4.978,1.885,6.235,3.877,6.824,8.664
	c0.557,4.535,0.26,9,0.225,13.566c-0.033,4.46,0.426,8.881,0.11,13.317c-0.531,7.477,0.224,15.007,0.333,22.523
	c-5.278-0.201-10.531-0.292-15.836-0.223c-21.019,0.27-43.566,3.815-63.229,11.408c-4.665,1.801-8.937,4.489-13.64,6.168
	c-3.266,1.166-6.495,2.629-9.551,4.338C198.581,163.218,198.336,156.087,198.831,149.027z M179.891,235.475
	c0.263-8.866-1.152-17.683-0.367-26.513c0.981-11.037,4.114-21.384,12.702-28.941c6.664-5.864,15.147-8.175,22.922-12
	c17.206-8.466,36.672-11.329,55.52-13.34c10.188-1.087,20.225-0.698,30.43-0.258c3.565,0.153,8.945-0.045,12.069,1.88
	c4.974,3.067,5.555,10.825,6.394,15.935c0.961,5.847,1.872,11.236,2.081,17.166c0.165,4.685-0.165,9.374-0.002,14.047
	c0.316,9.059-0.698,18.105-0.794,27.198c-10.619-1.241-21.065-0.113-31.723,0.541c-22.227,1.365-43.475,6.881-65.124,11.686
	c-11.482,2.549-22.855,5.962-33.545,10.848c-3.612,1.651-7.573,3.567-11.45,5.769C180.324,251.759,179.662,243.191,179.891,235.475z
	 M162.748,283.559c2.635-11.357,14.72-17.294,24.074-22.655c9.42-5.399,20.078-8.561,30.529-11.276
	c19.77-5.136,40.071-9.468,60.36-11.671c10.015-1.087,20.246-2.072,30.334-2.028c5.258,0.024,10.152,0.182,15.364,0.995
	c3.358,0.524,9.956,0.691,12.445,3.234c1.281,1.309,2.573,5.457,3.128,7.209c0.857,2.707,1.479,5.723,1.772,8.539
	c0.672,6.465,0.949,13.602,0.724,20.099c-0.194,5.579-0.627,11.071-0.634,16.683c-0.007,5.247,0.611,10.459,0.513,15.694
	c-1.45-0.007-2.879,0.013-4.256,0.05c-34.129,0.897-68.003,3.533-101.549,10.286c-17.155,3.454-34.091,7.73-50.839,12.777
	c-8.288,2.498-16.774,5.339-24.588,9.36c1.18-7.972,1.001-16.468,1.389-24.442C162.037,305.682,160.298,294.123,162.748,283.559z
	 M142.016,369.065c2.215-14.777,19.873-23.522,32.58-28.466c14.301-5.565,29.818-8.397,44.685-12.005
	c29.021-7.046,59.4-11.382,89.223-12.632c13.746-0.576,27.24-1.683,40.949-0.386c10.275,0.973,12.708,10.277,13.672,19.19
	c0.754,6.975,2.056,13.866,2.194,20.879c0.29,14.758,0.949,29.717-0.072,44.464c-0.403,5.802-3.107,7.902-7.989,10.624
	c-4.353,2.426-8.924,4.238-13.672,5.751c-6.042,1.925-12.462,3.139-18.398,5.406c-6.971,0.752-13.94,1.493-20.922,2.073
	c-21.328,1.771-42.881,5.398-63.993,8.95c-10.406,1.751-20.738,3.912-31.164,5.54c-11.07,1.728-22.39,2.428-33.355,4.62
	c-10.332,2.067-20.641,3.964-31.072,5.547c-0.609,0.092-1.215,0.188-1.818,0.286c0.153-5.882-1.172-11.941-1.535-17.789
	c-0.42-6.778-0.754-13.528-1.088-20.31C139.553,396.848,139.935,382.951,142.016,369.065z M126.249,458.654
	c4.376-1.954,9.386-3.344,14.112-4.143c9.342-1.577,18.749-2.665,28.039-4.497c20.627-4.069,41.719-6.378,62.527-9.669
	c22.137-3.502,44.463-6.417,66.693-9.33c16.014-2.099,32.211-2.89,48.279-4.828c7.464-0.901,15.863-2.008,22.988-4.441
	c2.93-1.001,6-1.876,8.905-2.915c1.674-0.598,3.689-1.558,5.137-2.595c0.789-0.565,2.723-3.249,4.175-4.139
	c0.438,3.381,1.021,6.73,1.406,10.134c0.47,4.158,0.313,8.014,0.103,12.174c-0.199,3.959-1.069,7.805-1.293,11.764
	c-0.203,3.597-1.022,7.951-0.433,11.62c-0.05,0.305-0.063,0.609-0.031,0.909c-4.211-0.096-8.415-0.15-12.6-0.175
	c-17.375-0.1-34.759-0.17-52.134-0.057c-7.787,0.051-15.493-0.338-23.333-0.086c-1,0.032-2.007,0.05-3.02,0.06
	c-4.917-1.662-12.526-1.069-15.912-1.049c-7.751,0.047-15.518,1.147-23.234,0.55c-9.363-0.725-18.901,0.325-28.237,0.632
	c-0.49,0.017-0.977,0.027-1.464,0.038c-4.583-0.22-9.225-0.085-13.714-0.229c-7.839-0.251-15.545,0.137-23.333,0.086
	c-17.375-0.113-34.759-0.044-52.134,0.057c-3.828,0.022-7.674,0.067-11.526,0.148C126.227,458.663,126.238,458.659,126.249,458.654z
	 M86.167,468.095c5.212-1.939,11.986-0.949,17.401-1.487c15.139-1.505,30.629-1.113,45.871-0.855
	c14.931,0.253,30.491,1.342,45.373,0.144c9.313-0.75,18.978-0.373,28.389-1.285c1.19,0.008,2.366,0.026,3.517,0.066
	c9.134,0.314,18.403-0.874,27.56-0.283c7.385,0.476,14.568-0.04,21.966-0.155c3.534-0.055,7.032-0.043,10.541,0.152
	c10.041,1.188,20.422,0.702,30.4,1.505c14.882,1.198,30.441,0.109,45.373-0.144c15.242-0.259,30.732-0.65,45.871,0.855
	c5.416,0.538,12.189-0.452,17.401,1.487c2.265,0.843,1.774,2.058,1.838,4.577c0.034,1.355,0.125,2.621,0.312,3.89
	c-8.721-0.28-17.51,0.067-26.158-0.687c-8.713-0.76-18.121-0.718-26.939-0.074c-9.559,0.698-18.77-0.143-28.308-0.395
	c-5.776-0.152-11.42,0.92-17.158,0.836c-4.788-0.07-9.435-1.016-14.241-0.91c-10.832,0.241-21.56-0.209-32.381-0.058
	c-1.709,0.024-3.42,0.032-5.131,0.04c-2.085-0.29-4.243-0.477-6.575-0.636c-3.509-0.24-7.007,0.364-10.5,0.49
	c-3.303,0.12-6.631-0.21-9.923,0.017c-2.521,0.174-5.048,0.242-7.577,0.287c-4.623-0.182-9.262-0.133-13.887-0.198
	c-10.821-0.15-21.549,0.299-32.381,0.058c-4.806-0.107-9.453,0.839-14.241,0.91c-5.738,0.084-11.382-0.989-17.158-0.836
	c-9.538,0.253-18.749,1.093-28.308,0.395c-8.818-0.643-18.226-0.686-26.939,0.074c-8.648,0.754-17.436,0.407-26.158,0.687
	c0.187-1.27,0.277-2.534,0.312-3.89C84.394,470.153,83.902,468.938,86.167,468.095z M105.887,503.637
	c-0.026-1.02-0.092-2.05-0.031-3.076c0.142-2.342-0.189-7.452,1.909-9.134c3.866-3.1,6.188,0.721,6.945,4.05
	c0.676,2.975,0.915,5.895,1.059,8.886C112.503,504.008,109.14,503.673,105.887,503.637z M153.724,504.18
	c-2.577,0.228-5.102,0.574-7.747,0.562c-0.636-0.002-1.277,0.009-1.916,0.018c0.488-4.35-1.139-9.714,1.757-13.18
	c1.029-1.231,2.384-1.188,3.841-0.784c2.847,0.792,3.766,2.727,4.021,5.484C153.929,498.995,153.491,501.622,153.724,504.18z
	 M190.754,503.569c-3.373-0.022-6.76-0.041-10.142-0.009c0.271-2.041,0.263-4.109,0.713-6.134c0.608-2.732,5.418-9.87,8.12-4.595
	c0.602,1.176,0.214,2.377,0.353,3.617c0.117,1.045,0.526,2.04,0.731,3.07C190.799,500.874,190.778,502.222,190.754,503.569z
	 M225.443,502.375c-2.164-0.047-4.326-0.074-6.465-0.015c-0.551,0.015-1.104,0.042-1.655,0.065
	c-0.166-2.491-0.083-5.037,0.832-7.387c0.83-2.133,3.138-6.24,5.823-3.907C226.849,493.621,225.602,498.462,225.443,502.375z
	 M263.124,502.737c-3.424,0.093-6.867,0.131-10.289,0.137c0.195-0.794,0.532-1.57,0.654-2.398c0.209-1.415-0.047-2.828,0.3-4.237
	c0.556-2.261,3.229-8.395,6.266-6.106c2,1.506,2.697,5.824,2.832,8.098c0.085,1.427,0.294,2.801,0.247,4.227
	C263.13,502.564,263.128,502.641,263.124,502.737z M294.676,502.424c-0.551-0.022-1.104-0.05-1.655-0.065
	c-1.5-0.041-3.013-0.033-4.528-0.013c-0.648-0.098-1.297-0.189-1.954-0.251c-0.203-3.861-1.323-8.532,1.481-10.966
	c2.687-2.331,4.993,1.775,5.823,3.907C294.759,497.387,294.843,499.933,294.676,502.424z M321.243,503.569
	c-0.024-1.347-0.045-2.694,0.224-4.052c0.204-1.031,0.614-2.026,0.731-3.07c0.139-1.238-0.249-2.441,0.353-3.617
	c2.702-5.274,7.512,1.865,8.12,4.595c0.451,2.024,0.441,4.094,0.713,6.134C328.004,503.526,324.616,503.546,321.243,503.569z
	 M367.937,504.76c-0.64-0.008-1.28-0.02-1.916-0.018c-2.645,0.012-5.17-0.334-7.747-0.562c0.233-2.558-0.205-5.186,0.045-7.898
	c0.255-2.759,1.173-4.693,4.021-5.484c1.457-0.405,2.812-0.449,3.841,0.784C369.076,495.046,367.45,500.41,367.937,504.76z
	 M406.111,503.637c-3.251,0.034-6.615,0.369-9.883,0.726c0.144-2.992,0.382-5.912,1.059-8.886c0.757-3.329,3.08-7.149,6.946-4.05
	c2.098,1.682,1.768,6.791,1.909,9.134C406.203,501.587,406.136,502.617,406.111,503.637z M439.566,494.491
	c0.151,2.872,0.06,5.866,0.32,8.78c-0.791,0.589-1.892,0.693-3.498,0.98c-4.403,0.785-8.862,0.259-13.289,0.12
	c-3.773-0.118-7.449,0.176-11.194-0.391c-0.995-0.151-2.024-0.235-3.067-0.289c0.126-0.36,0.235-0.735,0.277-1.164
	c0.231-2.321,0.413-4.658,0.032-6.971c-0.31-1.879-0.205-3.954-1.394-5.54c-1.116-1.487-3.145-2.472-4.931-2.842
	c-9.078-1.885-10.656,10.586-10.742,17.625c-0.637,0.064-1.277,0.128-1.897,0.178c-6.313,0.519-12.885,0.038-19.358-0.158
	c1.178-5.406,0.802-14.274-3.79-16.97c-3.302-1.938-8.719-0.182-10.879,2.739c-2.857,3.862-1.36,8.945-1.775,13.385
	c-3.781-0.046-7.557,0.263-11.338-0.001c-2.965-0.208-5.959-0.318-8.962-0.375c0.931-6.708-1.629-16.218-9.699-16.054
	c-3.142,0.064-5.24,2.804-5.745,5.751c-0.358,2.091-0.655,4.104-1.078,6.217c-0.272,1.356-0.261,2.721-0.295,4.078
	c-0.074,0-0.149,0-0.223,0.001c-6.723,0.025-13.424-0.699-20.127-1.065c1.097-3.342,1-6.485-0.549-9.867
	c-1.332-2.907-3.397-5.63-6.895-5.655c-3.326-0.025-5.193,2.821-6.25,5.628c-1.149,3.047-0.578,6.156-0.843,9.246
	c-3.805-0.041-7.645,0.267-11.295,0.51c-1.357,0.091-2.736,0.143-4.111,0.203c0.051-0.595,0.17-1.215,0.098-1.799
	c-0.151-1.226-0.459-2.402-0.557-3.649c-0.081-1.041-0.038-2.145-0.365-3.155c-0.393-1.215-1.297-2.135-1.785-3.314
	c-1.149-2.774-3.197-5.228-6.658-4.474c-3.378,0.737-5.507,4.313-6.542,7.281c-0.825,2.363-0.733,4.13-0.797,6.57
	c-0.028,1.098-0.162,1.98-0.011,2.822c-1.468-0.001-2.939-0.002-4.389-0.004c-1.944-0.002-3.89,0.067-5.836,0.168
	c-2.231-0.558-4.565-0.47-7.152-0.498c-1.098-0.012-2.202-0.037-3.306-0.064c-0.408-3.286,0.328-6.6-0.894-9.843
	c-1.058-2.806-2.925-5.653-6.25-5.628c-3.498,0.026-5.563,2.747-6.895,5.656c-1.549,3.383-1.646,6.525-0.549,9.867
	c-6.703,0.366-13.403,1.09-20.127,1.065c-0.074-0.001-0.149-0.001-0.223-0.001c-0.034-1.357-0.022-2.722-0.295-4.078
	c-0.424-2.112-0.72-4.127-1.078-6.217c-0.505-2.948-2.603-5.687-5.745-5.751c-8.07-0.165-10.63,9.346-9.699,16.054
	c-3.003,0.058-5.997,0.168-8.962,0.375c-3.781,0.266-7.557-0.045-11.338,0.001c-0.416-4.441,1.082-9.523-1.775-13.385
	c-2.16-2.92-7.577-4.677-10.879-2.739c-4.591,2.695-4.969,11.564-3.79,16.97c-6.475,0.196-13.045,0.679-19.358,0.158
	c-0.62-0.051-1.26-0.116-1.897-0.178c-0.086-7.039-1.664-19.51-10.742-17.625c-1.786,0.371-3.814,1.355-4.93,2.842
	c-1.189,1.585-1.085,3.661-1.394,5.54c-0.381,2.313-0.2,4.65,0.032,6.971c0.043,0.428,0.151,0.805,0.277,1.164
	c-1.042,0.054-2.072,0.139-3.067,0.289c-3.746,0.567-7.42,0.273-11.193,0.391c-4.428,0.138-8.888,0.666-13.289-0.12
	c-1.607-0.287-2.707-0.391-3.498-0.98c0.26-2.915,0.17-5.908,0.32-8.78c0.11-2.094-0.567-6.528-0.302-8.003
	c0.68-3.805,8.674-2.767,11.411-2.912c4.806-0.254,9.622,0.06,14.427-0.157c7.707-0.348,15.208-0.492,22.845-0.511
	c9.144-0.021,18.228,0.995,27.326,0.845c8.749-0.144,17.659-1.158,26.384-0.369c9.664,0.874,19.134-0.227,28.842-0.269
	c9.328-0.04,18.584-0.844,27.918-0.964c0.222-0.002,0.444-0.004,0.666-0.006c2.824,0.017,5.658-0.046,8.465,0.079
	c3.122,0.139,6.049,0.957,9.206,0.746c6.796-0.454,14.109-1.098,20.926-0.669c3.368,0.211,6.226,0.214,9.015-0.161
	c0.385,0.004,0.77,0.005,1.154,0.009c9.335,0.12,18.59,0.924,27.918,0.964c9.708,0.043,19.178,1.143,28.842,0.269
	c8.725-0.789,17.635,0.225,26.384,0.369c9.098,0.15,18.182-0.866,27.326-0.845c7.638,0.018,15.138,0.162,22.845,0.511
	c4.806,0.217,9.622-0.097,14.427,0.157c2.737,0.145,10.731-0.892,11.411,2.912C440.132,487.963,439.456,492.397,439.566,494.491z"/>
<g>
</g>
<g>
</g>
<g>
</g>
<g>
</g>
<g>
</g>
<g>
</g>
<g>
</g>
<g>
</g>
<g>
</g>
<g>
</g>
<g>
</g>
<g>
</g>
<g>
</g>
<g>
</g>
<g>
</g>
</svg>
