<?xml version="1.0" encoding="iso-8859-1"?>
<!-- Generator: Adobe Illustrator 19.0.0, SVG Export Plug-In . SVG Version: 6.00 Build 0)  -->
<svg version="1.1" id="Layer_1" xmlns="http://www.w3.org/2000/svg" xmlns:xlink="http://www.w3.org/1999/xlink" x="0px" y="0px"
	 viewBox="0 0 512.002 512.002" style="enable-background:new 0 0 512.002 512.002;" xml:space="preserve">
<path style="fill:#EAE3D3;" d="M63.325,422.283c-0.484,0.388-1.015,0.718-1.569,0.972c-2.354,1.082-5.036,1.116-7.627,1.131
	c-13.713,0.081-27.426,0.161-41.138,0.242c-2.57,0.015-5.298-0.012-7.475-1.377c-2.007-1.257-3.267-3.623-3.192-5.99
	c0.075-2.368,1.483-4.647,3.565-5.775c1.367-0.74,2.964-1.001,4.289-1.815c3.461-2.124,3.992-6.931,3.397-10.544
	c-0.797-4.831-0.501-9.701-0.218-14.627c0.446-7.769,1.059-15.53,1.37-23.305c0.12-3.025-0.302-5.689-0.499-8.626
	c-0.237-3.521,0.715-6.708-0.622-10.171c-0.87-2.254-2.438-4.192-3.257-6.465c-1.068-2.964-0.776-6.222-0.469-9.357
	c0.765-7.833,8.773,0.124,9.046-7.564c0.277-7.845,0.671-15.683,0.58-23.533c-0.104-8.881-0.235-17.76-0.359-26.641
	c-0.243-17.552-0.457-35.105-0.367-52.659c0.043-8.409,0.814-16.791,1.662-25.15c0.788-7.767,0.773-15.301,1.702-23.052
	c0.171-1.426,0.06-3.312-1.319-3.713c-1.052-0.306-2.142,0.55-3.223,0.378c-1.218-0.194-1.841-1.532-2.259-2.693
	c-1-2.773-2-5.547-2.999-8.32c-0.841-2.334-1.696-4.805-1.243-7.244c0.702-3.783,4.309-6.312,7.877-7.752
	c17.368-7.011,36.017-11.48,54.093-16.566c19.453-5.473,39.009-10.605,58.746-14.952c3.554-0.783,7.112-1.539,10.677-2.268
	c13.442-2.749,26.969-5.097,40.572-6.892c12.668-1.673,25.116-5.822,37.8-7.799c13.419-2.093,27.027-3.199,40.611-2.617
	c19.845,0.852,39.01,5.855,58.561,8.789c19.654,2.951,39.218,6.497,58.658,10.63c37.324,7.934,74.19,18.031,110.346,30.23
	c3.791,1.28,7.736,2.682,10.472,5.603c6.307,6.734-1.688,18.684-8.408,21.846c-0.832,0.391-1.793,0.827-2.046,1.711
	c-0.202,0.708,0.137,1.443,0.447,2.111c3.62,7.796,3.774,17.101,4.196,25.537c0.515,10.301,0.765,20.613,0.871,30.926
	c0.214,20.641-0.152,41.283-0.154,61.924c0,4.542,0.016,9.083,0.061,13.624c0.044,4.581,0.133,9.183-0.304,13.749
	c-0.379,3.95-1.88,7.875,3.046,8.618c6.429,0.97,7.05,4.146,5.9,10.273c-3.482,18.557-4.205,38.233-4.123,57.091
	c0.015,3.672,0.208,7.31,0.914,10.908c0.482,2.456,0.058,6.017,1.966,7.898c1.379,1.36,3.546,1.576,5.083,2.756
	c2.923,2.245,2.253,7.179-0.423,9.714c-2.675,2.534-6.555,3.254-10.217,3.674c-13.112,1.504-26.367,0.614-39.534-0.28
	c-1.961-0.133-3.956-0.274-5.784-0.995c-1.827-0.721-3.493-2.129-4.017-4.022c-0.62-2.237,0.565-5.424,2.225-7.014
	c1.502-1.439,3.946-1.552,4.876-3.702c0.468-1.081,0.361-2.313,0.246-3.485c-0.563-5.731-1.751-11.516-0.485-17.182
	c1.378-6.168,0.79-12.751,0.756-19.051c-0.022-4.236-0.197-8.551-0.015-12.732c0.186-4.326,0.34-8.851-2.375-12.521
	c-1.122-1.516-2.64-2.723-3.633-4.327c-1.613-2.607-1.614-5.865-1.566-8.931c0.028-1.75,0.095-3.624,1.123-5.04
	c0.718-0.991,1.82-1.625,2.687-2.489c1.764-1.756,2.446-4.373,2.37-6.861c-0.129-4.239-2.192-7.068-3.696-10.8
	c-1.535-3.805-3.093-7.6-4.73-11.362c-3.337-7.667-7.991-14.775-10.194-22.747c-2.447-8.848-6.62-17.15-11.626-24.814
	c-6.287-9.626-13.891-18.311-21.533-26.901c-11.38-12.791-23.143-25.642-37.52-35.14c-7.102-4.693-14.887-7.571-22.27-11.603
	c-8.063-4.405-16.477-8.175-25.147-11.218c-17.894-6.278-36.414-8.474-55.241-9.505c-18.756-1.027-37.672,0.976-55.805,5.876
	c-7.979,2.156-15.806,4.873-23.397,8.139c-15.56,6.693-30.121,15.685-43.126,26.535c-27,22.524-50.447,50.445-66.429,81.818
	c-2.701,5.302-5.203,10.707-7.495,16.199c-2.407,5.768-4.376,11.752-5.274,17.954c-0.352,2.428-1.289,4.806-1.108,7.262
	c0.233,3.141,1.649,6.121,2.888,8.967c1.739,3.995,3.298,8.618,1.5,12.585c-0.849,1.873-2.359,3.358-3.434,5.112
	c-2.451,3.997-2.525,9.187-1.751,13.686c0.282,1.634,1.039,3.076,1.35,4.671c0.475,2.439-0.081,5.219-0.233,7.679
	c-0.697,11.275-1.396,22.55-2.093,33.826c-0.089,1.445-0.172,2.936,0.317,4.298c1.532,4.259,7.952,5.656,8.559,10.142
	C65.969,419.134,64.897,421.019,63.325,422.283z"/>
<g>
	<path style="fill:#B2AA9A;" d="M11.747,323.13c16.068-0.573,32.458-6.352,48.141-1.15c3.298,1.094,3.661,3.689,4.215,7.282
		c0.44,2.854-0.557,6.024-1.173,8.83c-0.29,1.317-0.68,2.584-1.728,3.345c-3.82,2.778-11.821,1.411-16.059,1.221
		c-7.608-0.34-15.063,1.462-22.462-0.697c-3.298-0.963-8.926,0.404-10.869-2.483c-0.998-1.482-1.235-4.814-1.407-6.63
		C10.002,328.575,11.46,325.801,11.747,323.13z"/>
	<path style="fill:#B2AA9A;" d="M14.074,408.969c-2.343,1.563-5.403,0.824-7.89,2.082c-3.437,1.739-3.641,5.625-3.293,9.146
		c0.337,3.391,3.42,4.201,6.359,4.776c6.581,1.29,13.905,1.534,20.564,0.936c6.29-0.564,12.346-1.339,18.704-1.356
		c3.864-0.009,7.557,0.832,11.376-0.215c6.567-1.8,9.06-10.508,1.326-12.985c-6.431-2.061-12.468-0.345-18.966-0.167
		c-4.415,0.12-8.628-0.441-13.026-0.793C24.718,410.033,20.639,410.592,14.074,408.969z"/>
	<path style="fill:#B2AA9A;" d="M468.155,321.502c-2.819-1.178-7.017-0.356-9.955,0.108c-3.44,0.543-8.165,0.409-9.781,4.308
		c-1.059,2.555,0.106,7.881,0.654,10.539c1.815,8.819,14.611,7.803,21.397,6.951c5.554-0.698,11.145-0.131,16.72-0.273
		c3.407-0.085,9.856-0.869,12.193-3.723c2-2.442,2.062-6.78,2.218-9.857c0.213-4.213-1.015-6.424-5.231-7.595
		c-3.199-0.889-6.265-0.481-9.566-0.463c-2.401,0.012-4.775,0.544-7.164,0.504C477.089,321.958,474.697,321.169,468.155,321.502z"/>
	<path style="fill:#B2AA9A;" d="M472.342,411.063c-6.68-0.261-14.251-2.736-20.651-0.349c-2.802,1.046-3.808,2.197-4.442,5.141
		c-0.674,3.123-1.805,7.248,2.217,7.961c3.639,0.646,7.82,0.003,11.508,0.036c5.419,0.048,10.831,0.47,16.279,0.47
		c6.179,0,12.21,0.395,18.345,0.646c2.996,0.123,5.822-0.037,8.619-0.879c3.362-1.012,4.316-2.821,5.174-6.326
		c1.334-5.448-0.09-7.389-5.636-7.858c-4.284-0.363-8.139-0.66-12.471-0.457C486.626,409.665,480.409,411.893,472.342,411.063z"/>
	<path style="fill:#B2AA9A;" d="M340.785,99.653c10.592,2.441,21.592,3.564,32.227,5.507c5.218,0.953,10.469,1.462,15.728,2.212
		c5.934,0.846,10.654,3.197,16.158,5.154c5.695,2.026,11.299,4.3,17.032,6.237c10.31,3.484,21.057,5.515,31.445,8.753
		c11.858,3.696,24.116,6.008,35.842,10.105c5.301,1.852,12.474,3.474,12.675,10.203c0.132,4.436-3.578,17.794-9.621,18.026
		c-2.66,0.102-6.329-2.521-8.834-3.475c-3.844-1.466-7.602-2.91-11.344-4.62c-21.612-9.882-44.803-11.607-67.678-16.766
		c-7.477-1.686-14.816-4.098-22.197-6.168c-7.998-2.244-16.299-3.218-24.373-5.197c-11.798-2.893-24.047-6.056-36.138-7.383
		c-3.72-0.408-6.975,0.764-10.62,0.925c-5.403,0.239-10.844-2.247-15.989-3.59c-10.728-2.799-21.937-3.281-32.964-2.617
		c-10.011,0.604-19.928-0.139-30.034-0.159c-8.939-0.018-17.476,1.155-26.36,2.02c-5.577,0.543-10.963,2.144-16.401,3.409
		c-2.797,0.65-5.625,1.261-8.488,1.545c-2.321,0.23-4.162-0.371-6.4-0.467c-5.451-0.234-11.702,1.801-16.994,2.966
		c-6.056,1.334-12.062,2.876-18.042,4.514c-34.727,9.509-69.278,20.094-103.457,31.284c-6.454,2.113-15.848,5.741-20.962-0.846
		c-1.701-2.191-2.479-4.976-2.958-7.663c-0.398-2.221-1.48-6.903-0.597-9.043c1.776-4.306,12.923-6.556,16.967-8.084
		c7.152-2.702,14.766-4.864,22.169-6.727c7.02-1.766,13.543-4.741,20.476-6.63c23.289-6.342,46.561-12.51,69.959-18.422
		c14.365-3.65,28.969-4.467,43.524-6.926c11.457-1.935,22.874-3.961,34.324-5.809c16.653-2.689,34.327-6.324,51.322-4.447
		c12.339,1.362,24.65,3.216,36.874,5.421c4.693,0.847,9.517,0.499,13.935,1.984c4.178,1.403,8.641,1.677,12.858,2.949
		C336.135,98.513,338.449,99.115,340.785,99.653z"/>
</g>
<g>
	<path style="fill:#D6CEBF;" d="M62.601,149.736c2.069-0.677,4.149-1.308,6.242-1.868c4.846-1.298,9.764-2.158,14.665-3.195
		c8.091-1.711,16.002-4.14,24.062-5.967c16.703-3.786,33.536-8.235,50.458-10.881c17.426-2.726,34.884-5.253,52.399-7.34
		c7.948-0.947,16.296-2.537,24.268-2.169c8.124,0.375,16.236-2.321,24.477-1.936c9.556,0.446,19.2,0.798,28.73,1.635
		c11.134,0.978,22.104,2.186,33.004,4.658c10.618,2.409,21.009,5.765,31.715,7.785c10.096,1.906,20.548,1.576,30.533,4.126
		c10.139,2.59,20.548,3.969,30.557,7.009c9.951,3.021,19.717,6.359,29.716,9.252c10.546,3.051,21.041,6.872,31.422,9.916
		c4.824,1.414,15.2,4.27,13.509,11.578c-1.883,8.143-12.832,4.223-17.736,2.956c-23.6-6.099-47.22-11.655-70.441-19.193
		c-8.379-2.72-16.985-4.852-25.497-7.103c-7.447-1.969-14.674-4.682-22.099-6.763c-13.518-3.788-26.828-8.78-40.766-10.797
		c-22.901-3.313-45.736-1.996-68.741-2.088c-7.249-0.029-14.515,0.843-21.758,1.208c-18.426,0.929-36.48,3.984-54.594,7.31
		c-27.641,5.074-55.438,10.875-81.756,21.005c-8.892,3.423-18.388,8.525-24.775,15.792c-8.216,9.349-7.969,23.406-8.925,35.239
		c-0.963,11.919-3.555,23.533-4.649,35.423c-0.393,4.266-1.031,10.201,1.589,14.005c3.792,5.51,9.361,1.007,13.056-2.325
		c13.917-12.557,24.103-28.958,36.232-43.105c10.28-11.99,21.381-22.356,33.722-32.159c13.105-10.411,29.204-19.233,44.879-25.003
		c13.702-5.045,27.461-8.053,41.71-11.045c5.459-1.146,10.909-1.727,16.323-2.972c5.776-1.329,12.73-1.928,18.643-1.585
		c4.385,0.254,8.739,0.619,13.128,0.8c7.36,0.304,14.738,1.796,21.9,3.452c8.813,2.038,17.398,4.991,26.076,7.525
		c9.639,2.814,19.75,4.706,29.044,8.572c13.594,5.653,24.612,16.128,36.148,25.023c4.902,3.781,10.212,7.443,14.864,11.527
		c8.298,7.286,15.428,15.392,22.143,24.16c8.403,10.973,18.032,21.041,25.311,32.879c6.803,11.063,12.324,23.446,15.849,35.917
		c2.208,7.816,5.374,17.282,3.954,25.529c-0.491,2.857-2.392,6.672-5.587,4.928c-3.057-1.669-3.082-6.68-3.958-9.717
		c-1.298-4.5-2.882-8.857-4.357-13.308c-3.069-9.263-6.477-18.424-10.535-27.279c-4.364-9.524-10.814-18.034-16.063-27.067
		c-2.235-3.848-5.415-6.946-7.876-10.669c-2.542-3.844-5.259-7.76-8.344-11.192c-6.035-6.716-12.878-12.415-19.244-18.756
		c-4.955-4.936-10.625-8.756-15.873-13.311c-4.418-3.833-8.272-7.511-13.426-10.419c-4.405-2.485-8.673-5.171-13.052-7.702
		c-6.773-3.912-14.235-6.749-21.637-9.227c-7.399-2.478-14.932-5.093-22.528-6.808c-7.934-1.791-15.565-2.6-23.631-3.604
		c-4.44-0.552-8.62-1.239-13.12-1.424c-4.481-0.185-8.219,0.219-12.62,0.691c-3.578,0.384-7.206,0.055-10.772,0.578
		c-2.915,0.427-4.73,2.049-7.387,2.906c-7.465,2.406-15.833,3.183-23.483,5.095c-8.563,2.139-17.205,4.36-25.671,6.857
		c-9.374,2.765-17.373,7.317-25.579,12.505c-8.738,5.525-17.641,11.916-24.865,19.341c-6.562,6.745-13.607,12.992-20.122,19.762
		c-11.609,12.06-20.444,25.233-29.116,39.409c-8.574,14.015-16.343,28.634-21.877,44.131c-1.708,4.783-0.966,10.821-3.437,15.306
		c-0.926,1.682-1.868,2.258-3.529,2.758c-1.141,0.344-2.644,0.49-3.838,0.516c-0.754,0.016-1.442-0.276-2.184-0.345
		c-2.955-0.277-5.636,0.655-8.554,0.721c-3.687,0.082-7.422-0.158-11.117-0.158c-1.405,0-6.759,0.871-8.036-0.105
		c-1.641-1.254-0.385-6.622-0.338-8.315c0.276-10.156,0.302-20.338,0.718-30.514c0.483-11.8-1.062-23.438-0.852-35.25
		c0.254-14.273-0.955-28.502,0.009-42.802c0.496-7.352,1.762-14.471,2.94-21.727c0.675-4.162,0.303-9.785,2.666-13.442
		c1.28-1.982,3.888-3.309,5.703-4.757c3.74-2.984,8.882-5.865,13.402-7.553C50.146,154.282,56.325,151.791,62.601,149.736z"/>
	<path style="fill:#D6CEBF;" d="M473.521,344.037c-2.971-0.163-6.466,0.615-8.457,0.897c-2.217,0.312-5.483,0.294-7.378,1.564
		c-3.865,2.592-3.078,10.599-3.252,14.648c-0.398,9.206-1.929,18.264-1.1,27.438c0.545,6.027-0.567,12.517,0.95,18.408
		c1.022,3.968,2.628,4.704,6.713,4.367c5.101-0.42,10.462,1.295,15.561,0.646c6.359-0.809,5.597-11.012,4.709-15.373
		c-1.4-6.873-2.46-13.805-3.936-20.665c-1.39-6.458-2.411-12.459-1.801-19.102c0.32-3.492,4.89-7.243,2.682-10.748
		C477.315,344.691,475.539,344.147,473.521,344.037z"/>
	<path style="fill:#D6CEBF;" d="M13.998,342.223c-2.217,2.501-0.753,7.335-0.067,10.073c1.373,5.483-0.792,12.059-0.787,17.719
		c0.005,6.384,0.125,12.79,0.011,19.151c-0.104,5.78-1.653,12.243-0.47,17.957c0.429,2.073,0.283,2.021,2.368,2.136
		c3.117,0.171,5.835-0.002,9.013,0.638c3.252,0.655,9.228,3.225,11.816-0.24c2.198-2.943,0.926-11.124,0.721-14.676
		c-0.368-6.361-1.77-12.487-1.605-18.902c0.109-4.204-1.33-10.641,0.032-14.632c1.262-3.699,5.889-6.76,9.053-8.545
		c3.024-1.704,10.508-2.314,11.281-6.506c0.478-2.593-2.198-2.674-4.512-2.798c-4.21-0.226-8.385-0.407-12.579-0.966
		c-3.975-0.53-8.026-1.289-12.052-1.542c-1.869-0.117-3.706-0.09-5.575-0.027c-1.483,0.05-3.865-0.475-5.202,0.12
		C14.844,341.45,14.37,341.804,13.998,342.223z"/>
</g>
<g>
	<path style="fill:#9B9386;" d="M36.038,148.079c23.37-5.732,46.155-13.866,69.539-19.593c7.086-1.736,14.161-3.519,21.252-5.24
		c6.103-1.482,12.123-1.923,18.018-3.611c5.119-1.466,10.487-2.267,15.689-3.414c14.331-3.163,28.894-5.262,43.457-7.082
		c15.8-1.975,31.425-3.789,47.329-4.685c6.183-0.349,12.93-1.202,19.098-0.487c5.457,0.634,11.082,0.435,16.522,1.191
		c8.082,1.123,16.283,2.344,24.178,4.419c9.939,2.613,20.161,3.879,30.197,6.058c13.679,2.97,27.198,6.906,40.795,10.238
		c19.957,4.89,40.419,7.25,60.249,12.674c9.569,2.617,18.986,5.47,28.33,8.78c6.409,2.27,12.976,3.757,19.274,6.356
		c2.095,0.864,7.764,2.819,8.655,4.961c1.1,2.64-1.201,5.293-3.273,6.242c-5.478,2.51-13.721-1.498-19.251-2.831
		c-24.339-5.862-47.748-15.249-71.847-21.928c-18.151-5.031-36.32-9.316-54.681-13.569c-8.07-1.869-16.089-3.571-24.261-4.925
		c-4.933-0.816-9.66-1.605-14.656-1.956c-10.332-0.726-20.513,0.12-30.76-0.893c-11.404-1.126-22.754-3.089-34.241-3.119
		c-11.06-0.028-22.908,1.742-33.782,3.687c-6.541,1.171-13.143,2.022-19.766,2.571c-10.003,0.828-21.174,1.877-30.764,4.596
		c-10.387,2.945-21.665,3.123-32.272,5.222c-7.302,1.445-14.34,2.675-21.252,5.442c-6.941,2.778-13.943,5.704-21.377,6.861
		c-6.351,0.988-12.474,2.916-18.635,4.722c-7.534,2.21-14.891,5.215-22.52,7.085c-2.814,0.69-5.636,0.576-8.233,2.012
		c-2.866,1.586-5.889,2.448-9.101,3.558c-3.012,1.041-5.492,3.148-8.908,2.578c-5.327-0.888-2.859-6.286-0.893-9.505
		c1.452-2.377,4.053-2.518,6.629-3.264C28.521,150.147,32.25,149.006,36.038,148.079z"/>
	<path style="fill:#9B9386;" d="M61.529,332.668c-9.063,1.186-18.179,1.181-27.322,1.64c-6.807,0.342-12.468-1.632-19.187-2.11
		c-2.394-0.171-7.613,0.735-6.658,4.412c0.598,2.3,5.369,4.086,7.321,4.764c4.323,1.502,9.379,1.093,13.906,1.521
		c6.613,0.625,13.272,1.047,19.874,1.672c3.717,0.351,8.251,2.325,11.845,0.285c1.721-0.977,2.373-2.433,2.335-4.268
		C63.587,337.851,63.467,335.717,61.529,332.668z"/>
	<path style="fill:#9B9386;" d="M64.553,417.11c-4.546-0.24-9.164,0.511-13.794,0.233c-5.969-0.359-11.876-0.289-17.855-0.456
		c-6.526-0.182-13.072-0.077-19.601,0.218c-2.536,0.115-5.672,0.078-8.084,0.943c-1.58,0.567-3.209,1.606-2.786,3.572
		c0.667,3.104,6.981,2.625,9.588,2.707c6.015,0.188,11.824,1.273,17.854,1.328c5.58,0.05,11.117,0.519,16.704,0.528
		c4.292,0.007,8.579,0.364,12.796-0.22c1.702-0.235,3.494-0.726,4.495-2.338C65.07,421.694,63.398,419.919,64.553,417.11z"/>
	<path style="fill:#9B9386;" d="M450.708,330.807c2.754,1.724,8.394,1.589,11.59,1.984c7.041,0.871,14.267,1.877,21.384,1.528
		c4.343-0.213,8.161-1.613,12.595-1.016c1.068,0.144,5.124,0.821,5.419,1.915c0.484,1.792-3.37,4.272-4.573,4.686
		c-4.762,1.639-10.468,1.146-15.407,1.831c-5.75,0.797-11.549,0.271-17.291,0.958c-2.764,0.33-4.261,0.746-6.989,0.096
		c-2.344-0.559-5.016-1.293-7.141-2.488c-0.561-0.316-1.776-1.288-2.154-1.845C446.1,335.446,450.28,333.842,450.708,330.807z"/>
	<path style="fill:#9B9386;" d="M446.986,416.877c-0.466-0.128-0.924-0.204-1.329-0.418c1.6,0.846,4.713,0.192,6.482,0.288
		c1.789,0.096,2.949,0.59,4.682,0.937c3.004,0.601,6.289-0.123,9.303-0.336c11.22-0.791,22.554,0.004,33.764,0.006
		c1.824,0,3.41-0.467,5.198,0.159c1.888,0.661,2.972,1.916,2.137,4.029c-0.988,2.501-5.789,3.707-8.522,3.715
		c-12.293,0.035-24.663-0.925-36.959-0.714c-3.882,0.067-7.125-0.008-10.948-1.007C446.683,422.463,445.618,422.064,446.986,416.877
		z"/>
</g>
<path d="M508.245,408.751c-1.592-0.815-3.834-1.09-5.968-1.224c1.691-4.86,0.29-11.989,0.388-16.574
	c0.081-3.754-0.291-6.857-0.856-10.488c-0.628-4.034,0.036-8.235-0.035-12.298c-0.135-7.774-0.889-16.079-2.323-23.814
	c0.809-0.288,1.58-0.663,2.283-1.178c5.018-3.68,4.373-14.864,2.591-19.959c-1.51-4.316-5.349-4.363-9.275-4.21
	c0.866-7.212,0.811-14.388,0.998-21.652c0.206-8.047,1.224-15.809,0.538-23.886c-0.677-7.989-0.349-16.095-0.249-24.117
	c0.082-6.637-0.218-12.783-0.786-19.311c-0.566-6.5,1.4-12.94,1.277-19.397c-0.13-6.847-1.425-13.686-1.641-20.536
	c-0.261-8.219,0.135-16.104-3.772-22.4c0.449,0.044,0.897,0.094,1.349,0.097c9.283,0.07,10.524-12.803,11.358-19.545
	c1.054-8.526-4.315-11.065-11.75-12.417c-10.762-1.957-21.029-7.085-31.58-10.045c-21.564-6.048-42.891-12.48-64.542-17.823
	c-22.221-5.485-44.688-10.607-67.404-14.293c-11.12-1.804-22.121-3.857-33.309-5.191c-6.959-0.831-13.987-2.256-20.83-3.753
	c-2.569-0.561-4.963-1.071-7.598-1.21c-1.008-0.053-2.052,0.083-3.082,0.187c-4.183-0.233-8.42-0.027-12.751,0.378
	c-0.301-0.212-0.676-0.331-1.123-0.297c-1.684,0.128-3.528-0.358-5.26-0.268c-2.634,0.138-5.029,0.648-7.598,1.21
	c-6.843,1.496-13.871,2.922-20.83,3.753c-11.187,1.336-22.189,3.388-33.309,5.191c-22.717,3.686-45.184,8.808-67.404,14.293
	c-21.652,5.345-42.978,11.776-64.542,17.823c-10.552,2.959-20.819,8.088-31.58,10.045c-7.435,1.352-12.804,3.891-11.75,12.417
	c0.834,6.742,2.075,19.616,11.358,19.545c0.452-0.004,0.9-0.053,1.349-0.097c-3.907,6.296-3.512,14.181-3.772,22.4
	c-0.216,6.85-1.511,13.69-1.642,20.536c-0.123,6.458,1.844,12.896,1.277,19.397c-0.568,6.53-0.868,12.674-0.786,19.311
	c0.099,8.022,0.428,16.126-0.249,24.117c-0.685,8.076,0.331,15.838,0.538,23.886c0.186,7.264,0.132,14.441,0.998,21.652
	c-3.925-0.153-7.765-0.106-9.275,4.21c-1.783,5.095-2.427,16.279,2.591,19.959c0.702,0.515,1.473,0.889,2.282,1.178
	c-1.434,7.734-2.189,16.04-2.323,23.814c-0.07,4.063,0.593,8.263-0.035,12.298c-0.565,3.631-0.937,6.734-0.856,10.488
	c0.099,4.585-1.302,11.714,0.39,16.574c-2.134,0.134-4.376,0.408-5.968,1.224c-4.099,2.101-4.24,8.244-3.237,12.238
	c1.736,6.909,7.394,5.954,13.137,6.718c7.63,1.015,16.555,1.006,24.193,0.154c5.08-0.566,10.137-0.329,15.201-0.861
	c2.908-0.306,7.276,0.102,10.008-1.018c4.489-1.84,6.064-7.862,4.816-12.258c-1.33-4.681-5.002-5.789-9.043-6.023
	c0.953-1.909,1.424-4.194,1.603-6.696c0.605-8.494,1.468-17.701,0.818-26.202c-0.737-9.628-0.455-19.152-0.807-28.796
	c2.316-0.764,4.256-2.253,5.243-4.966c1.081-2.968,0.427-6.26,0.469-9.332c0.043-3.136,0.711-6.693-1.167-9.496
	c-0.979-1.462-2.448-2.372-4.157-2.944c0.698-2.852,1.252-5.701,2.024-8.54c1.221-4.493,3.411-8.691,5.03-13.047
	c3.126-8.409,7.791-15.986,11.081-24.255c3.161-7.94,7.69-14.97,12.636-21.966c5.101-7.215,9.028-15.261,14.904-21.957
	c11.297-12.874,22.922-27.091,37.409-36.454c3.312-2.141,6.06-5.016,9.418-7.055c3.859-2.343,7.727-4.788,11.68-7.003
	c3.615-2.026,7.243-4.427,11.156-5.794c4.04-1.411,7.645-3.699,11.621-5.115c10.139-3.611,20.169-6.397,30.716-8.568
	c5.348-1.101,10.565-1.975,15.987-2.621c2.64-0.315,5.218-0.346,7.868-0.473c0.735-0.035,1.543-0.14,2.37-0.237
	c11.111-1.295,21.798-0.601,32.779,0.71c5.422,0.648,10.638,1.521,15.987,2.621c10.546,2.171,20.576,4.956,30.716,8.568
	c3.976,1.417,7.58,3.705,11.621,5.115c3.913,1.366,7.54,3.767,11.156,5.794c3.953,2.215,7.821,4.66,11.68,7.003
	c3.357,2.039,6.106,4.914,9.418,7.055c14.486,9.363,26.111,23.58,37.409,36.454c5.876,6.697,9.802,14.742,14.904,21.957
	c4.946,6.995,9.476,14.025,12.636,21.966c3.29,8.269,7.955,15.845,11.081,24.255c1.619,4.355,3.809,8.553,5.03,13.047
	c0.772,2.839,1.327,5.688,2.024,8.54c-1.709,0.573-3.178,1.483-4.157,2.944c-1.877,2.803-1.211,6.36-1.167,9.496
	c0.042,3.072-0.612,6.365,0.468,9.332c0.987,2.713,2.928,4.202,5.243,4.966c-0.352,9.645-0.07,19.167-0.806,28.796
	c-0.652,8.502,0.213,17.709,0.816,26.202c0.178,2.503,0.649,4.788,1.603,6.696c-4.041,0.234-7.713,1.343-9.043,6.023
	c-1.248,4.395,0.325,10.418,4.816,12.258c2.733,1.119,7.1,0.711,10.008,1.018c5.064,0.532,10.12,0.295,15.201,0.861
	c7.636,0.852,16.562,0.861,24.193-0.154c5.743-0.764,11.402,0.191,13.139-6.718C512.486,416.995,512.344,410.852,508.245,408.751z
	 M19.239,161.898c-1.345-0.461-2.846-3.112-3.385-4.34c-1.385-3.156-3.088-12.65,0.216-14.363c2.958-1.534,6.98-1.057,10.1-2.062
	c5.624-1.812,11.12-4.19,16.738-6.077c9.466-3.179,19.304-5.871,28.938-8.561c37.917-10.589,76.163-20.475,115.28-26.317
	c11.187-1.672,22.387-3.354,33.557-5.088c6.489-1.007,13.201-1.952,19.527-3.705c1.896-0.525,4.154-0.834,6.27-1.419
	c5.108-0.405,10.219-0.64,15.353-0.606c0.705,0.005,1.414,0.041,2.123,0.092c2.52,0.955,5.463,1.274,7.842,1.934
	c6.326,1.752,13.038,2.696,19.527,3.705c11.169,1.735,22.368,3.417,33.557,5.088c39.115,5.842,77.362,15.728,115.28,26.317
	c9.633,2.69,19.473,5.382,28.937,8.561c5.618,1.887,11.114,4.265,16.738,6.077c3.12,1.005,7.141,0.529,10.1,2.062
	c3.306,1.714,1.601,11.207,0.216,14.363c-0.539,1.228-2.04,3.879-3.385,4.34c-1.97,0.676-5.901-1.482-7.649-2.197
	c-4.088-1.673-8.199-3.319-12.371-4.762c-2.752-0.952-5.184-2.307-7.981-2.251c-4.832-1.475-9.717-2.759-14.436-4.144
	c-5.662-1.661-11.294-3.579-16.813-5.608c-6.358-2.337-13.073-3.368-19.568-5.19c-12.685-3.56-25.759-5.409-38.471-8.743
	c-12.911-3.385-26.054-5.726-39.196-7.906c-3.623-0.601-7.226-0.322-10.876-0.85c-2.847-0.413-5.611-1.191-8.442-1.605
	c-5.882-0.862-11.941-0.853-17.881-1.515c-2.558-0.285-5.114-0.584-7.669-0.877c-13.401-3.523-27.487-4.803-41.236-2.985
	c-4.473,0.592-8.963,0.988-13.444,1.394c-7.952,0.576-15.866,1.583-23.808,2.468c-5.94,0.662-11.999,0.652-17.881,1.515
	c-2.831,0.415-5.595,1.193-8.442,1.605c-3.651,0.529-7.254,0.249-10.876,0.85c-13.142,2.179-26.285,4.521-39.196,7.906
	c-12.712,3.334-25.786,5.183-38.471,8.743c-6.496,1.822-13.211,2.854-19.569,5.19c-5.519,2.028-11.151,3.947-16.813,5.608
	c-4.72,1.385-9.605,2.669-14.436,4.144c-2.798-0.057-5.23,1.298-7.981,2.251c-4.172,1.443-8.283,3.089-12.371,4.762
	C25.141,160.416,21.209,162.574,19.239,161.898z M20.474,281.804c0.033-6.457,0.804-12.823,0.829-19.293
	c0.027-6.82,0.144-13.638,0.211-20.458c0.049-5.054,1.288-9.868,1.146-14.89c-0.174-6.187-1.427-12.561-0.943-18.705
	c0.509-6.464,1.503-12.939,1.679-19.425c0.185-6.806-0.842-15.909,5.073-20.63c9.553-7.624,23.505-10.162,34.952-13.533
	c10.928-3.218,21.44-7.214,32.573-9.774c12.523-2.881,24.877-6.034,37.52-8.44c12.861-2.448,25.392-6.152,38.395-7.881
	c13.105-1.742,26.264-3.169,39.424-4.694c6.498-0.753,12.838-2.736,19.338-3.321c2.221-0.2,4.419-0.491,6.596-0.878
	c3.984-0.223,7.978-0.446,11.96-0.925c6.415-0.772,12.774-0.778,19.12-0.519c4.246,1.169,8.572,1.925,12.989,2.323
	c6.5,0.585,12.839,2.568,19.338,3.321c13.16,1.525,26.319,2.952,39.424,4.694c13.002,1.728,25.532,5.432,38.395,7.881
	c12.643,2.406,24.996,5.559,37.52,8.44c11.132,2.561,21.645,6.556,32.573,9.774c11.448,3.371,25.399,5.908,34.952,13.533
	c5.917,4.721,4.888,13.824,5.073,20.63c0.175,6.486,1.171,12.962,1.68,19.425c0.484,6.145-0.769,12.519-0.943,18.705
	c-0.142,5.022,1.097,9.835,1.146,14.89c0.066,6.82,0.182,13.638,0.211,20.458c0.026,6.47,0.795,12.836,0.829,19.293
	c0.064,12.516-1.172,24.794,0.347,37.288c-0.64-0.006-1.267-0.036-1.867-0.113c-3.089-0.398-6.165-0.485-9.238-0.677
	c0.177-3.83-0.957-13.693-1.087-14.469c-1.121-6.687-2.951-13.666-5.415-19.982c-3.521-9.025-6.218-18.98-11.349-27.222
	c-2.878-4.624-5.104-9.598-7.878-14.326c-2.628-4.475-5.786-8.602-8.421-13.078c-5.526-9.385-12.808-18.226-20.279-26.127
	c-14.395-15.223-30.646-28.497-47.751-40.493c-3.472-2.435-7.134-4.176-10.648-6.377c-3.791-2.376-7.361-5.113-11.278-7.266
	c-8.69-4.782-17.91-8.77-27.146-12.351c-10.937-4.242-22.058-7.545-33.323-10.777c-4.976-1.427-10.425-1.958-15.556-2.735
	c-3.665-0.554-7.484-1.126-11.214-1.012c-17.839,0.546-36.177-1.256-53.617,3.747c-11.264,3.232-22.385,6.534-33.323,10.777
	c-9.235,3.582-18.456,7.571-27.146,12.351c-3.916,2.155-7.485,4.892-11.278,7.266c-3.514,2.201-7.176,3.942-10.648,6.377
	c-17.105,11.996-33.357,25.27-47.751,40.493c-7.472,7.902-14.754,16.743-20.28,26.127c-2.634,4.475-5.793,8.604-8.42,13.078
	c-2.776,4.727-5.002,9.702-7.879,14.326c-5.129,8.242-7.827,18.198-11.348,27.222c-2.463,6.317-4.294,13.295-5.415,19.982
	c-0.13,0.776-1.263,10.639-1.087,14.469c-3.073,0.192-6.148,0.281-9.238,0.677c-0.6,0.077-1.227,0.106-1.867,0.113
	C21.648,306.598,20.41,294.32,20.474,281.804z M59.123,413.113c3.583,1.007,5.784,6.372,0.972,7.878
	c-1.141,0.357-3.951-0.04-5.143,0.076c-2.831,0.276-5.397,0.623-8.247,0.65c-4.87,0.047-9.614,0.973-14.46,1.021
	c-4.629,0.047-9.412-0.089-14.039-0.262c-3.317-0.124-11.269,0.17-12.508-3.74c-0.442-1.398-0.312-4.452,0.766-5.375
	c0.549-0.47,3.251-0.232,4.22-0.379c1.386-0.211,2.938-0.391,4.488-0.653c0.891,0.138,1.849,0.193,2.897,0.305
	c3.906,0.42,7.93,0.556,11.837,1.028c5.077,0.614,10.384,0.842,15.573,0.335c0.51,0.067,1.019,0.11,1.528,0.084
	c1.872-0.098,3.547-0.95,5.398-1.153C54.265,412.725,57.324,412.607,59.123,413.113z M15.684,381.267
	c0.66-6.091-0.378-12.222,0.235-18.336c0.609-6.079,0.364-11.967-0.63-17.914c1.831,0.281,3.723,0.34,5.451,0.552
	c3.033,0.372,5.473-0.096,8.039-0.841c7.526,0.822,14.934,0.729,22.479,1.684c1.069,0.136,2.201,0.24,3.347,0.277
	c-0.419,14.043,1.493,28,0.586,41.99c-0.233,3.593-0.359,7.206-0.601,10.794c-0.308,4.54-1.863,7.313-6.389,8.014
	c-7.338,1.136-14.182,0.184-21.503,0.034c-2.683-0.055-5.535-0.088-8.134-0.873c-1.371-0.415-2.682-0.082-3.36-2.011
	c-0.366-1.042,0.048-3.99,0.05-5.065C15.264,393.364,15.019,387.413,15.684,381.267z M59.903,333.854
	c0.07,4.569-1.138,6.79-6.005,6.616c-5.637-0.202-11.038-1-16.699-0.924c-6.282,0.084-13.304-1.036-19.496-1.929
	c-3.659-0.528-4.273-0.6-4.557-4.784c-0.115-1.69-0.058-3.376-0.007-5.057c0.601-3.357,2.549-2.251,6.184-2.3
	c6.458-0.085,13.01-1.694,19.453-1.586c3.335,0.056,6.534,1.031,9.991,0.928c2.549-0.076,7.449-0.822,9.722,0.601
	C60.927,326.949,59.861,331.146,59.903,333.854z M449.117,291.7c-1.724-4.784-3.889-9.426-6.202-13.953
	c-2.307-4.513-3.951-9.459-6.501-13.793c-9.347-15.889-19.048-32.353-31.949-45.673c-3.576-3.693-6.579-7.829-10.039-11.617
	c-3.048-3.336-6.651-6.062-9.887-9.198c-2.963-2.872-6.162-5.814-9.457-8.291c-3.722-2.799-7.651-5.848-11.555-8.408
	c-15.548-10.198-32.296-17.985-49.945-23.673c-9.642-3.108-20.114-5.43-30.187-6.546c-2.71-0.299-5.324-0.535-7.94-0.68
	c-6.623-1.597-13.991-0.799-20.623-0.67c-5.169,0.101-11.387-0.502-16.856,0.613c-3.099,0.13-6.166,0.383-9.367,0.737
	c-10.072,1.115-20.544,3.438-30.187,6.546c-17.648,5.688-34.396,13.476-49.945,23.673c-3.903,2.561-7.833,5.609-11.555,8.408
	c-3.295,2.478-6.496,5.419-9.457,8.291c-3.236,3.136-6.84,5.86-9.887,9.198c-3.46,3.788-6.463,7.924-10.039,11.617
	c-12.902,13.321-22.603,29.785-31.949,45.673c-2.55,4.334-4.195,9.281-6.501,13.792c-2.313,4.526-4.479,9.167-6.202,13.953
	c-3.253,9.033-7.332,17.206-6.842,26.742c-3.315-0.188-6.773,0.15-9.264,0.122c-3.747-0.042-7.037-1.198-10.792-0.696
	c-0.498,0.067-0.998,0.122-1.496,0.173c0.663-3.679,0.545-7.7,1.144-11.306c0.889-5.357,2.32-10.571,3.829-15.787
	c2.758-9.526,6.673-19.123,11.147-27.872c9.326-18.243,19.582-35.956,32.966-51.672c13.112-15.397,29.505-29.975,46.363-41.107
	c6.71-4.431,13.414-8.35,20.209-12.543c8.6-5.307,17.509-10.072,27.017-13.639c11.406-4.279,22.502-8.462,34.239-11.784
	c7.296-2.065,14.754-3.548,22.272-4.568c1.982-0.097,3.965-0.239,5.949-0.408c2.754-0.104,5.513-0.118,8.221-0.075
	c6.172,0.098,12.344,0.126,18.515,0.228c3.102,0.051,6.409,0.605,9.6,0.48c1.841,0.319,3.708,0.507,5.328,0.22
	c6.514,0.994,12.975,2.329,19.311,4.122c11.736,3.322,22.832,7.504,34.239,11.784c9.508,3.567,18.417,8.332,27.017,13.639
	c6.795,4.194,13.5,8.112,20.209,12.543c16.858,11.132,33.252,25.711,46.363,41.107c13.384,15.717,23.639,33.429,32.967,51.672
	c4.472,8.749,8.388,18.345,11.147,27.872c1.51,5.215,2.94,10.428,3.829,15.787c0.599,3.605,0.48,7.627,1.143,11.306
	c-0.498-0.051-0.997-0.106-1.496-0.173c-3.755-0.501-7.044,0.654-10.792,0.696c-2.492,0.028-5.949-0.311-9.264-0.122
	C456.449,308.906,452.37,300.732,449.117,291.7z M452.1,333.854c0.042-2.708-1.024-6.905,1.415-8.434
	c2.273-1.424,7.173-0.678,9.722-0.601c3.457,0.103,6.656-0.871,9.99-0.928c6.444-0.108,12.995,1.5,19.453,1.586
	c3.636,0.049,5.583-1.057,6.184,2.3c0.051,1.681,0.108,3.367-0.007,5.057c-0.284,4.184-0.898,4.257-4.557,4.784
	c-6.193,0.893-13.215,2.013-19.496,1.929c-5.662-0.076-11.062,0.722-16.699,0.924C453.238,340.645,452.029,338.423,452.1,333.854z
	 M457.398,346.691c1.145-0.037,2.277-0.142,3.347-0.277c7.545-0.956,14.953-0.861,22.479-1.684c2.565,0.745,5.005,1.213,8.039,0.841
	c1.728-0.212,3.62-0.273,5.451-0.552c-0.994,5.947-1.24,11.834-0.63,17.914c0.613,6.113-0.423,12.245,0.236,18.336
	c0.666,6.146,0.42,12.098,0.432,18.308c0.002,1.075,0.416,4.023,0.05,5.065c-0.677,1.929-1.989,1.597-3.36,2.011
	c-2.599,0.786-5.451,0.818-8.134,0.873c-7.321,0.151-14.166,1.103-21.503-0.034c-4.527-0.701-6.082-3.474-6.389-8.014
	c-0.243-3.589-0.368-7.2-0.601-10.794C455.905,374.69,457.816,360.734,457.398,346.691z M506.305,418.737
	c-1.238,3.909-9.191,3.616-12.507,3.74c-4.626,0.173-9.409,0.308-14.038,0.262c-4.845-0.049-9.591-0.976-14.46-1.021
	c-2.85-0.027-5.416-0.374-8.247-0.65c-1.193-0.117-4.003,0.281-5.143-0.076c-4.812-1.507-2.611-6.871,0.972-7.878
	c1.8-0.505,4.859-0.388,6.719-0.184c1.852,0.204,3.527,1.055,5.398,1.153c0.509,0.027,1.018-0.018,1.527-0.084
	c5.188,0.508,10.495,0.281,15.573-0.335c3.907-0.473,7.931-0.608,11.837-1.028c1.048-0.112,2.007-0.167,2.899-0.305
	c1.55,0.262,3.102,0.442,4.488,0.653c0.97,0.147,3.673-0.091,4.22,0.379C506.617,414.286,506.748,417.341,506.305,418.737z"/>
<g>
</g>
<g>
</g>
<g>
</g>
<g>
</g>
<g>
</g>
<g>
</g>
<g>
</g>
<g>
</g>
<g>
</g>
<g>
</g>
<g>
</g>
<g>
</g>
<g>
</g>
<g>
</g>
<g>
</g>
</svg>
