<?xml version="1.0" encoding="iso-8859-1"?>
<!-- Generator: Adobe Illustrator 19.0.0, SVG Export Plug-In . SVG Version: 6.00 Build 0)  -->
<svg version="1.1" id="Layer_1" xmlns="http://www.w3.org/2000/svg" xmlns:xlink="http://www.w3.org/1999/xlink" x="0px" y="0px"
	 viewBox="0 0 512.001 512.001" style="enable-background:new 0 0 512.001 512.001;" xml:space="preserve">
<path style="fill:#EAE3D3;" d="M228.874,73.433c0.91-1.282,1.249-2.958,0.645-4.406c-0.703-1.687-2.386-2.735-4.032-3.532
	c-1.645-0.797-3.414-1.499-4.628-2.864c-1.215-1.366-1.631-3.666-0.342-4.962c0.917-0.921,2.342-1.043,3.64-1.112
	c20.968-1.1,41.926-2.459,62.934-1.838c1.516,0.044,3.115,0.123,4.39,0.945c1.932,1.245,2.164,4.098,0.837,5.794
	c-1.477,1.888-4.373,2.18-6.327,3.381c-2.006,1.232-3.348,3.482-3.482,5.831c-0.053,0.931,0.12,1.961,0.829,2.568
	c0.845,0.723,2.095,0.585,3.191,0.771c7.001,1.192,6.277,12.093,0.895,14.899c-1.835,0.957-3.929,1.286-5.857,2.039
	c-4.549,1.777-7.916,5.866-9.743,10.394c-2.773,6.867-1.55,13.16-1.824,20.177c-0.324,8.294-0.399,16.595-0.405,24.895
	c-0.051,75.559,7.418,150.751,11.062,226.13c0.558,11.554,0.864,23.117,1.168,34.679c0.07,2.676,0.682,5.939,0.067,8.557
	c-0.355,1.512-1.476,2.404-2.046,3.76c-1.802,4.289,3.031,5.596,6.421,5.614c20.093,0.109,40.187,0.219,60.28,0.328
	c3.9,0.022,7.991,0.091,11.396,1.994c5.016,2.804,8.498,12.227,4.041,16.784c-3.801,3.886-10.24,4.435-15.121,6.192
	c-10.818,3.891-18.232,14.059-22.636,24.678c-0.977,2.357-1.764,5.299-0.138,7.266c1.418,1.715,3.97,1.804,6.195,1.752
	c12.981-0.304,25.963-0.608,38.944-0.912c3.449-0.081,7.194-0.071,9.941,2.017c4.407,3.351,3.41,9.214,4.621,13.93
	c1.08,4.204-1.084,7.004-5.57,7.041c-77.385,0.626-154.771,1.251-232.156,1.876c-4.896,0.04-16.03,0.024-16.452-6.707
	c-0.317-5.065-0.781-13.173,3.875-16.543c2.349-1.7,5.464-1.766,8.365-1.787c13.003-0.096,26.003-0.647,38.967-1.654
	c1.298-0.1,2.656-0.227,3.745-0.94c2.097-1.374,2.388-4.321,2.132-6.815c-1.195-11.647-10.283-22.068-21.659-24.838
	c-3.476-0.846-7.18-1.064-10.331-2.76c-4.163-2.241-4.625-5.845-4.082-10.038c0.457-3.529,2.197-7.041,5.231-8.899
	c3.07-1.879,6.905-1.817,10.503-1.696c15.419,0.518,30.837,1.037,46.257,1.555c4.406,0.148,9.013,0.256,12.982-1.661
	c7.201-3.479,6.045-11.838,6.371-18.549c0.43-8.85,0.818-17.702,1.193-26.554c1.561-36.867,2.9-73.766,6.172-110.533
	c3.774-42.381,2.814-84.753,4.281-127.116c0.248-7.18-0.152-14.38-0.112-21.571c0.035-6.249-0.377-12.787-2.595-18.699
	c-1.941-5.173-5.7-9.946-10.92-11.756c-2.171-0.752-4.543-0.985-6.536-2.128c-4.09-2.345-4.034-10.469,0.512-12.408
	c0.858-0.366,1.806-0.466,2.677-0.798C227.54,74.861,228.314,74.222,228.874,73.433z"/>
<path style="fill:#7F7360;" d="M278.7,55.894c-2.528-0.069-5.09-0.195-7.605-0.46c-1.646-0.173-3.192-0.85-4.835-0.943
	c-5.06-0.284-10.709,1.19-15.717,1.892c-5.583,0.783-12.119,1.278-17.73,0.668c-2.87-0.313-13.5-2.865-13.649,2.361
	c-0.123,4.304,5.311,5.368,8.185,6.965c1.827,1.014,1.864,1.63,2.301,3.557c0.273,1.202,0.485,2.568-0.223,3.676
	c-0.98,1.53-2.434,0.717-4.026,1.141c-1.673,0.446-2.817,1.605-3.608,3.12c-1.489,2.848-0.744,5.522,0.945,8.049
	c2.217,3.319,7.508,2.149,11.134,2.306c6.292,0.272,12.5-0.367,18.812-0.432c7.154-0.074,14.555-0.813,21.581,0.727
	c3.395,0.744,7.277,1.44,10.777,1.147c4.448-0.372,7.162-4.948,6.857-9.217c-0.351-4.924-3.871-4.211-7.517-5.326
	c-2.629-0.805-2.939-6.201-1.05-8.069c2.054-2.033,5.535-2.218,7.678-4.168c2.124-1.932,2.698-4.783-0.394-5.847
	C287.104,55.831,282.365,55.994,278.7,55.894z"/>
<path style="fill:#D6AE54;" d="M252.699,3.532c1.386,1.783,0.538,6.528-0.217,8.575c-1.192,3.233-1.899,6.599-3.101,9.831
	c-0.655,1.761-1.228,3.408-1.149,5.312c0.078,1.866,1.126,5.158,0.474,6.816c-0.993-1.737-1.385-3.932-2.927-5.153
	c-2.341-1.852-2.426,3.993-2.873,5.544c-1.081,3.75-2.939,7.368-2.744,11.353c0.125,2.568,0.646,7.729,3.13,9.19
	c1.342,0.79,3.926,0.491,5.364,0.389c3.197-0.227,6.214,0.224,9.375,0.443c3.912,0.271,7.91,0.468,11.78-0.147
	c1.34-0.213,2.998-0.55,3.916-1.442c2.162-2.103,2.716-5.499,3.355-8.264c0.602-2.6,1.551-6.363,0.105-8.751
	c-1.801-2.972-2.614,0.042-4.735,0.863c0.508-2.968,1.216-5.744,0.382-8.767c-0.745-2.698-2.164-5.189-2.848-7.903
	c-0.424-1.68-0.487-3.33-0.432-5.07c0.021-0.658,0.763-4.051,0.413-4.487c-0.673-0.842-3.232,0.906-3.705,1.266
	c-1.611,1.225-2.446,2.902-3.767,4.248c-0.766-0.987-0.557-2.67-0.889-3.865c-0.481-1.729-1.24-3.636-2.033-5.25
	c-0.981-1.999-3.227-5.524-5.586-6.057C253.89,2.756,253.608,2.773,252.699,3.532z"/>
<path style="fill:#D3995F;" d="M252.699,3.244c1.217,0.668,2.597,3.349,3.256,4.529c1.678,3.007,1.415,7.72,1.505,11.067
	c0.128,4.764-1.006,9.306-2.135,13.901c-0.915,3.723-1.386,6.691,2.272,8.759c2.363,1.335,5.281,2.596,7.439,4.231
	c1.705,1.291,2.372,2.851,4.443,3.639c1.218,0.464,2.791,0.488,3.918,0.998c1.337,0.605,0.972,1.167,0.738,2.409
	c-1.633,0.301-3.064,0.844-4.756,1.106c-3.663,0.567-7.485,0.405-11.22,0.605c-3.669,0.197-7.216,0.227-10.837,0.72
	c-1.642,0.223-2.619,0.399-3.699-0.911c-2.29-2.779-5.119-6.179-4.332-10.034c0.398-1.947,1.535-3.884,2.38-5.651
	c1.064-2.227,1.631-4.487,1.847-6.981c0.115-1.34,0.05-3.692,1.973-2.786c1.171,0.551,1.522,2.341,2.716,2.762
	c1.248-4.848-0.365-9.783,1.603-14.62c1.006-2.473,3.121-4.594,3.458-7.275c0.172-1.371,0.136-3.165-0.092-4.542
	C253.026,4.255,252.588,3.436,252.699,3.244z"/>
<g>
	<path style="fill:#6D6252;" d="M221.179,60.891c1.672,0.057,3.243,0.401,4.898,0.534c2.761,0.221,5.557-0.229,8.321-0.243
		c6.404-0.035,12.8,0.003,19.2,0.165c6.339,0.16,12.722,0.211,19.06,0.057c4.814-0.117,9.626,0.013,14.437-0.254
		c0.817-0.045,1.628-0.141,2.441-0.214c0.267-0.024,1.131-0.202,1.343,0.047c0.293,0.345-0.161,1.009-0.415,1.298
		c-0.795,0.902-2.252,1.327-3.319,1.779c-1.561,0.661-3.265,1.103-4.933,1.391c-4.224,0.729-8.469,1.273-12.757,1.538
		c-3.34,0.208-6.679,0.268-10.023,0.371c-3.938,0.122-7.844-0.133-11.778-0.15c-3.693-0.016-7.338-0.127-11.021-0.425
		c-2.795-0.227-5.535-0.155-8.272-0.861C226.073,65.335,217.405,64.37,221.179,60.891z"/>
	<path style="fill:#6D6252;" d="M230.272,83.346c7.392,0.408,14.822,0.783,22.225,0.833c3.954,0.026,7.894-0.003,11.847-0.11
		c3.734-0.101,7.456-0.435,11.186-0.578c2.369-0.092,4.718-0.443,7.084-0.553c1.423-0.066,3.017-0.333,4.432-0.15
		c1.452,0.188,1.368,1.934,1.054,3.055c-0.312,1.112-0.909,2.203-1.974,2.711c-1.688,0.806-3.564,0.736-5.383,0.572
		c-2.445-0.22-4.846-0.662-7.279-0.97c-1.455-0.183-2.924-0.255-4.377-0.446c-1.536-0.202-3.047-0.543-4.597-0.641
		c-3.068-0.195-6.234-0.285-9.299-0.018c-3.951,0.344-7.985,0.735-11.892,1.415c-1.59,0.277-3.154,0.668-4.765,0.805
		c-1.584,0.135-3.17,0.215-4.755,0.339c-1.307,0.102-2.624,0.078-3.934,0.061c-1.242-0.015-2.49,0.111-3.733,0.038
		c-1.333-0.079-3.753-0.333-4.505-1.569c-0.598-0.982-0.859-2.627-1.073-3.73c-0.142-0.73-0.211-1.848,0.221-2.499
		c0.659-0.994,1.504-0.462,2.263-0.051C225.127,83,227.928,83.216,230.272,83.346z"/>
	<path style="fill:#6D6252;" d="M278.681,67.019c-2.54-0.005-5.075,0.222-7.606,0.412c-3.69,0.277-7.379,0.38-11.078,0.425
		c-5.107,0.064-10.227,0.358-15.332,0.086c-1.784-0.095-3.519-0.539-5.305-0.618c-1.699-0.074-3.354-0.334-5.046-0.454
		c-1.329-0.095-2.741-0.205-4.073-0.19c-1.055,0.013-1.205,0.644-1.114,1.578c0.074,0.764,0.259,1.518,0.313,2.288
		c0.058,0.826-0.041,1.78,0.292,2.563c0.392,0.919,1.777,0.953,2.631,1.107c3.199,0.579,6.619,0.244,9.857,0.351
		c4.352,0.143,8.701-0.001,13.054,0.002c4.148,0.002,8.307,0.163,12.454,0.088c2.74-0.05,5.48-0.095,8.22-0.087
		c1.317,0.003,2.794,0.041,4.1-0.204c1.85-0.348,2.213-1.832,2.498-3.519c0.166-0.981,0.312-2.438-0.046-3.395
		c-0.192-0.514-0.572-0.713-1.089-0.822C280.32,66.396,279.057,66.564,278.681,67.019z"/>
</g>
<path style="fill:#D6CEBF;" d="M260.047,88.371c-4.898,5.088-6.577,14.063-7.069,20.756c-0.466,6.342-0.145,12.698,0.194,19.037
	c0.162,3.029-0.179,6.552,0.491,9.505c0.193,0.851,0.728,1.549,0.924,2.391c0.299,1.284-0.071,2.68-0.229,3.959
	c-0.475,3.881-0.575,7.747-0.528,11.655c0.056,4.656,0.091,9.271,0.012,13.929c-0.122,7.208-0.225,14.419-0.686,21.615
	c-0.194,3.038-0.618,5.857-0.052,8.829c0.594,3.122-0.135,6.51-0.081,9.675c0.056,3.315,0.5,6.61,0.826,9.905
	c0.626,6.306,0.598,12.571,0.971,18.888c0.726,12.281,1.406,24.756,0.623,37.042c-0.82,12.853-1.769,25.774,0.053,38.611
	c1.018,7.176,2.827,14.222,3.85,21.398c0.97,6.797,0.757,13.668,1.503,20.486c0.626,5.726,1.291,11.468,2.318,17.138
	c1.854,10.234,4.519,20.314,6.024,30.613c0.765,5.237,1.282,10.571,1.126,15.869c-0.041,1.405,0.002,4.064-1.212,5.092
	c-1.387,1.175-4.284,0.559-5.962,0.716c-2.336,0.22-4.7,0.678-7.03,0.244c-1.732-0.323-3.131-0.325-4.897-0.17
	c-1.998,0.174-3.731-0.326-5.7-0.43c-3.269-0.174-6.93,0.561-10.1-0.412c-0.781-0.24-1.973-0.592-2.409-1.28
	c-0.614-0.967-0.596-2.94-0.681-4.066c-0.527-6.949-0.173-14.032,0.101-20.986c0.179-4.556,1.108-8.971,1.59-13.491
	c0.44-4.122,0.573-8.322,0.783-12.463c0.213-4.178-0.167-8.38,0.096-12.557c0.305-4.844,0.866-9.663,1.139-14.514
	c0.583-10.326,0.921-20.618,0.948-30.968c0.013-5.199-0.368-10.28,0.062-15.487c0.191-2.323,0.57-4.867,0.325-7.193
	c-0.173-1.631-0.645-3.107-0.705-4.786c-0.165-4.702,0.18-9.403,0.579-14.086c0.688-8.07,1.95-16.089,2.812-24.143
	c0.785-7.333,1.344-14.688,2.046-22.028c0.391-4.093,0.694-8.17,0.85-12.281c0.146-3.808-0.449-7.306-0.571-11.076
	c-0.142-4.431-0.023-8.865,0.093-13.296c0.228-8.779-0.385-17.647,0.441-26.338c0.615-6.474,1.266-12.886,1.578-19.383
	c0.142-2.96,0.45-5.881,0.445-8.846c-0.005-2.642,0.409-5.298,0.405-7.987c-0.008-5.412-0.072-10.823-0.638-16.206
	c-0.332-3.16-0.826-6.141-2.188-9.016c-0.742-1.568-1.597-3.055-2.7-4.397c-0.979-1.189-2.468-2.408-2.942-3.914
	c-1.24-3.947,4.299-3.19,6.589-3.642c2.871-0.566,5.771-0.939,8.635-1.519C253.999,88.382,256.047,88.312,260.047,88.371z"/>
<path style="fill:#EAD59B;" d="M238.93,424.263c-17.983-0.055-36.029-0.374-54.01-0.435c-9.628-0.032-21.013-0.755-30.287,2.27
	c-8.092,2.64-6.837,9.229-4.359,15.938c1.743,4.72,4.274,4.414,9.075,4.854c10.86,0.997,18.943,3.886,22.904,14.263
	c1.559,4.082,11.272,18.477,4.6,21.321c-4.167,1.776-9.207-0.465-13.457-0.758c-6.315-0.437-13.066-0.228-19.398,0.023
	c-5.356,0.213-10.928,0.535-16.147,1.811c-4.123,1.009-4.707,1.247-5.965,4.901c-2.193,6.366-4.174,16.713,3.784,18.823
	c6.226,1.651,14.164,0.789,20.569,0.448c14.037-0.747,27.272-0.113,41.238-0.82c11.653-0.59,23.454-0.703,35.127-0.838
	c15.494-0.179,30.99-0.142,46.484-0.085c13.73,0.051,27.062,1.075,40.598,1.723c17.479,0.837,34.916,3.221,52.389,2.185
	c9.83-0.584,13.018-3.594,12.635-13.834c-0.324-8.65-2.279-10.904-11.308-12.185c-7.591-1.078-15.426-1.314-23.075-1.947
	c-5.516-0.456-10.963-0.443-16.479-0.629c-1.914-0.065-8.274,0.44-9.689-0.972c-1.499-1.495-0.487-7.343,0.018-9.248
	c1.341-5.069,5.73-10.925,9.677-14.289c6.906-5.884,16.647-6.273,24.259-10.889c5.514-3.345,7.822-12.56,1.287-16.682
	c-4.014-2.531-9.482-3.921-14.201-4.063C311.521,424.133,277.285,428.926,238.93,424.263z"/>
<g>
	<path style="fill:#CCB479;" d="M336.252,454.032c5.654-3.711,12.44-5.887,19.716-8.671c6.669-2.552,5.527-6.268-1.089-6.743
		c-9.648-0.692-19.948,1.751-29.714,1.745c-15.837-0.011-31.674,0-47.51,0c-31.241,0-62.709,0.489-93.814-2.397
		c-7.223-0.67-14.467-0.76-21.702-1.179c-2.215-0.128-8.198-1.575-10.204-0.142c-2.97,2.122,0.117,5.181,2.484,6.775
		c6.279,4.231,14.472,4.829,20.399,9.653c3.841,3.126,7.219,9.119,10.065,13.192c2.801,4.008,5.284,8.715,7.668,13.001
		c5.716,10.276,24.235,5.892,33.651,6.026c16.512,0.234,33.021-0.42,49.513-1.202c10.937-0.518,22.11-0.286,32.988-1.627
		c5.928-0.731,12.188-1.999,14.715-8.272c0.883-2.191,0.587-4.499,1.552-6.708C327.728,461.169,331.608,457.082,336.252,454.032z"/>
	<path style="fill:#CCB479;" d="M128.406,496.93c60.094-0.017,120.227-3.082,180.345-1.328c21.21,0.619,42.67,0.426,63.892-0.391
		c4.323-0.166,13.065-0.084,12.018,6.758c-0.988,6.454-15.821,5.617-20.315,5.933c-7.473,0.526-15.037-0.142-22.541-0.493
		c-10.559-0.494-21.173,0.264-31.732-0.255c-38.401-1.888-77.184-1.119-115.574,0.207c-16.645,0.575-33.154,0.873-49.796,0.88
		C137.896,508.246,128.308,507.872,128.406,496.93z"/>
</g>
<path d="M385.704,495.082c-0.371-3.137,0.285-6.595-0.792-9.637c-2.035-5.745-7.387-4.287-12.216-4.763
	c-7.502-0.739-14.923-0.69-22.494-0.64c-7.676,0.052-15.484-1.548-23.177-0.566c-0.275,0.036-0.552,0.079-0.83,0.118
	c0.296-0.799,0.536-1.666,0.714-2.63c1.048-5.681,3.456-12.666,7.475-16.942c4.949-5.265,11.118-7.269,17.417-9.319
	c1.239-0.248,2.485-0.526,3.76-0.817c2.302-0.522,5.263-0.369,7.314-1.63c5.237-3.22,2.338-13.411,2.339-18.342
	c0.002-6.855-4.547-7.446-10.407-7.386c-8.934,0.093-17.768,0.389-26.688-0.206c-4.134-0.276-8.397-0.4-12.5,0.199
	c-3.904,0.571-7.846-0.345-11.841-0.33c-2.132,0.009-4.087,0.489-6.2,0.634c-1.836,0.126-3.475-0.274-5.306-0.412
	c-2.755-0.208-5.497,0.11-8.253,0.154c-0.029-0.446-0.121-0.905-0.326-1.373c-1.129-2.579-0.222-7.316-0.225-10.174
	c-0.004-3.006,0.233-6.137-0.119-9.122c-0.753-6.394-0.639-12.716-0.644-19.18c-0.004-5.298-0.508-10.47-0.727-15.735
	c-0.123-2.954-0.837-5.795-0.848-8.776c-0.01-2.79,0.331-5.634,0.14-8.416c-1.464-21.426-2.663-43.036-3.739-64.524
	c-0.546-10.898-1.461-21.815-2.236-32.706c-0.374-5.264-1.439-10.538-1.672-15.787c-0.242-5.442-0.26-10.701-0.783-16.111
	c-0.525-5.438,0.24-10.762-0.524-16.224c-0.728-5.202-0.275-10.434-0.222-15.667c0.066-6.621,0.004-13.247,0.006-19.868
	c0.002-5.525,0.556-11.373-0.057-16.856c-1.199-10.713-0.965-21.877-0.671-32.734c0.134-4.981,0.753-10.196,1.273-15.116
	c0.628-5.941,6.264-9.456,11.627-10.787c2.671,0.715,5.216,0.042,7.28-3.093c2.177-3.307,4.144-10.9,2.041-14.634
	c-1.285-2.283-4.171-3.027-6.577-3.364c-1.303-0.182-2.472,0.069-3.176-1.286c-0.519-0.999-0.243-2.048,0.674-2.699
	c1.432-1.017,3.747-0.297,5.383-0.922c3.81-1.458,6.799-7.341,4.947-11.207c-2.17-4.527-10.864-2.617-14.826-2.673
	c-1.298-0.018-2.598-0.051-3.898-0.084c3.706-4.784,4-13.016,1.82-18.242c-0.347-0.833-1.152-1.271-2.013-0.819
	c-0.318,0.167-0.6,0.372-0.874,0.587c0.378-1.797,0.41-3.647-0.068-5.444c-0.519-1.953-1.636-3.786-2.548-5.559
	c-2.454-4.765-3.234-8.04-0.179-12.953c0.545-0.876-0.147-2.316-1.262-2.2c-2.988,0.311-6.2,2.842-8.01,5.867
	c-0.733-6.098-4.628-11.708-10.489-14.543c-0.818-0.396-1.813,0.077-1.825,1.048c-0.045,3.369-0.338,6.814-0.811,10.158
	c-0.578,4.078-2.803,7.433-3.388,11.416c-0.232,1.578-0.209,3.353,0.077,5.096c-0.632-0.517-1.326-1.026-2.095-1.535
	c-0.88-0.584-1.886,0.206-1.954,1.121c-0.508,6.803-6.79,12.648-6.029,19.565c0.182,1.66,1.289,4.4,2.871,6.352
	c-2.454,0.053-4.909,0.136-7.357,0.17c-3.962,0.056-12.656-1.852-14.826,2.673c-1.854,3.867,1.137,9.75,4.947,11.207
	c1.637,0.626,3.952-0.094,5.382,0.922c0.917,0.652,1.193,1.7,0.674,2.699c-0.703,1.355-1.872,1.104-3.176,1.286
	c-2.406,0.336-5.292,1.081-6.577,3.364c-2.104,3.734-0.136,11.327,2.041,14.634c2.064,3.135,4.609,3.808,7.28,3.093
	c5.363,1.33,10.999,4.845,11.627,10.787c0.52,4.921,1.138,10.136,1.273,15.116c0.292,10.857,0.528,22.021-0.671,32.734
	c-0.613,5.483-0.059,11.331-0.057,16.856c0.002,6.622-0.059,13.247,0.006,19.868c0.053,5.234,0.506,10.465-0.222,15.667
	c-0.764,5.462,0.001,10.787-0.524,16.224c-0.522,5.409-0.541,10.669-0.783,16.111c-0.233,5.248-1.298,10.522-1.672,15.787
	c-0.775,10.89-1.691,21.808-2.236,32.706c-1.076,21.488-2.274,43.098-3.739,64.524c-0.19,2.782,0.15,5.626,0.14,8.416
	c-0.01,2.981-0.724,5.823-0.848,8.776c-0.219,5.264-0.722,10.437-0.727,15.735c-0.005,6.465,0.109,12.786-0.644,19.18
	c-0.352,2.985-0.113,6.116-0.119,9.122c-0.004,2.858,0.902,7.595-0.227,10.174c-0.158,0.36-0.234,0.712-0.281,1.059
	c-1.239-0.001-2.555,0.028-3.821,0.16c-1.492-0.069-2.983-0.112-4.477,0c-1.831,0.138-3.47,0.539-5.305,0.412
	c-2.114-0.146-4.068-0.626-6.2-0.634c-3.996-0.015-7.936,0.901-11.841,0.33c-4.104-0.6-8.366-0.475-12.5-0.199
	c-8.92,0.594-17.754,0.299-26.688,0.206c-5.859-0.06-10.409,0.53-10.407,7.386c0.001,4.929-2.898,15.121,2.339,18.342
	c2.051,1.261,5.011,1.108,7.314,1.63c1.276,0.289,2.521,0.569,3.76,0.817c6.3,2.05,12.469,4.054,17.417,9.319
	c4.02,4.277,6.428,11.261,7.475,16.942c0.178,0.965,0.419,1.831,0.714,2.63c-0.276-0.039-0.553-0.083-0.83-0.118
	c-7.693-0.982-15.501,0.618-23.177,0.566c-7.572-0.051-14.992-0.099-22.494,0.64c-4.829,0.476-10.181-0.981-12.216,4.763
	c-1.077,3.04-0.422,6.499-0.792,9.637c-0.421,3.556-0.49,6.196,0.549,9.697c1.613,5.434,8.254,6.539,13.34,6.454
	c3.446-0.057,6.783,0.683,10.222,0.738c4.795,0.077,9.602-0.015,14.398-0.005c8.248,0.018,16.369-0.712,24.577-0.761
	c4.349-0.026,8.595-0.864,12.939-0.865c5.239-0.002,10.356-0.249,15.588-0.545c5.055-0.285,10.248-0.48,15.31-0.274
	c4.228,0.172,6.868,0.601,10.484-0.601c3.637,0.156,7.271,0.328,10.926,0.346c5.154,0.027,10.323,0.15,15.483,0.135
	c2.767,0.568,5.179,0.261,8.668,0.12c5.061-0.205,10.255-0.011,15.31,0.274c5.233,0.295,10.349,0.542,15.588,0.545
	c4.344,0.002,8.59,0.84,12.939,0.865c8.208,0.047,16.33,0.779,24.577,0.761c4.796-0.011,9.603,0.082,14.398,0.005
	c3.439-0.055,6.775-0.795,10.222-0.738c5.086,0.085,11.727-1.02,13.34-6.454C386.194,501.279,386.125,498.638,385.704,495.082z
	 M242.711,38.889c1.376-3.133,1.992-5.879,2.247-8.972c2.923,2.695,3.104,6.189,4.583,10.154c0.199,0.535,1.158,0.708,1.268,0
	c0.37-2.38,0.347-4.351-0.069-6.07c0.081-0.165,0.113-0.356,0.072-0.556c-0.474-2.256-1.11-4.898-1.212-7.209
	c-0.156-3.579,2.034-6.343,3.091-9.594c1.401-4.312,1.576-8.692,0.891-13.045c6.475,4.593,8.755,14.126,6.268,21.704
	c-0.159,0.483,0.557,0.766,0.809,0.341c1.079-1.82,1.774-3.724,2.14-5.646c1.184-2.118,3.126-4.692,5.24-6.44
	c-1.062,3.31-1.057,6.451,0.72,10.177c1.625,3.407,3.691,6.075,3.212,10.163c-0.302,2.576-1.145,5.086-1.461,7.683
	c-0.094,0.778,0.96,0.849,1.319,0.357c0.624-0.851,1.2-1.774,1.698-2.745c0.004-0.002,0.01-0.001,0.014-0.004
	c0.843-0.374,1.53-0.944,2.241-1.479c0.682,3.285,0.411,7.514-0.488,10.343c-0.632,1.993-2.07,3.558-3.097,5.304
	c-3.326-0.063-6.653-0.059-9.963,0.215c-2.66-0.151-5.543,0.278-8.122,0.526c-0.173-0.035-0.346-0.064-0.52-0.091
	c-3.148-0.492-6.318-0.654-9.495-0.682c-0.737-1.152-1.696-2.138-2.335-3.348C239.602,45.894,241.033,42.709,242.711,38.889z
	 M228.291,64.063c-0.984-0.241-8.81-2.861-6.237-4.537c1.569-1.021,3.107-0.608,4.891-0.586c3.024,0.039,6.048,0.104,9.072,0.128
	c4.612,0.037,9.175-0.563,13.757-0.583c1.821-0.008,3.336,0.375,4.602-0.172c1.286,0.068,2.695,0.19,4.127,0.24
	c0.614,0.09,1.282,0.055,2.003,0.006c0.32-0.012,0.639-0.029,0.955-0.056c0.25-0.012,0.506-0.019,0.769-0.018
	c4.582,0.019,9.143,0.62,13.757,0.583c3.024-0.024,6.048-0.09,9.072-0.128c1.782-0.023,3.322-0.435,4.891,0.586
	c2.574,1.677-5.253,4.296-6.237,4.537c-3.474,0.849-7.062,1.082-10.629,1.072c-1.315-0.004-2.546-0.429-3.838-0.4
	c-1.421,0.032-2.833,0.268-4.256,0.372c-4.409-1.152-9.574-0.334-14.003-0.234c-3.381,0.077-6.964-0.731-10.253,0.067
	c-0.597,0.097-1.195,0.194-1.815,0.195C235.354,65.146,231.764,64.913,228.291,64.063z M281.206,67.903
	c-0.024,1.518-0.506,2.801-0.389,4.189c-1.324,0.043-2.527,0.115-3.462,0.154c-5.59,0.234-10.887-0.997-16.304,0.016
	c-2.161,0.045-4.257,0.184-6.016,0.225c-0.969,0.023-2.051-0.009-3.189-0.043c-5.73-1.34-11.3,0.049-17.196-0.199
	c-0.935-0.039-2.139-0.112-3.462-0.154c0.117-1.389-0.365-2.671-0.389-4.189c0.01,0.57,8.402,0.625,9.115,0.646
	c3.041,0.091,6.358,1.052,9.43,0.64c2.541,0.505,5.204,0.504,7.777,0.597c2.543,0.093,5.334,0.098,7.83-0.507
	c2.388-0.097,4.842-0.661,7.14-0.729C272.804,68.528,281.196,68.473,281.206,67.903z M228.768,87.495
	c-0.775,0.233-1.373,0.712-2.169,0.487c-0.671-0.19-1.23-0.932-1.559-1.501c-0.735-1.263-0.86-2.822-1.079-4.236
	c-0.086-0.555-0.657-2.963,0.058-3.562c1.329-1.116,5.597-0.851,7.197-0.914c5.762-0.225,11.756,0.066,17.491-0.95
	c2.108,0.082,4.216,0.137,6.325,0.183c3.913,0.086,8.858,1.119,13.041,0.396c4.233,0.315,8.533,0.207,12.709,0.371
	c1.6,0.063,5.868-0.202,7.197,0.914c0.715,0.6,0.143,3.008,0.058,3.562c-0.218,1.414-0.344,2.972-1.078,4.236
	c-0.33,0.569-0.889,1.31-1.56,1.501c-0.794,0.225-1.394-0.254-2.169-0.487c-3.792-1.14-7.846-1-11.749-1.395
	c-1.921-0.194-3.856-0.428-5.777-0.562c-3.411-1.127-8.181-0.296-11.341-0.125c-0.796,0.043-1.554,0.112-2.312,0.183
	c-3.759-0.437-7.674,0.113-11.537,0.504C236.614,86.495,232.561,86.355,228.768,87.495z M235.997,410.15
	c-0.009-5.83,0.812-11.448,0.723-17.269c-0.083-5.438-0.524-11.124-0.063-16.546c0.49-5.744,1.481-11.475,1.515-17.258
	c0.066-11.211,0.886-22.342,1.259-33.59c0.199-5.975,0.443-11.942,0.643-17.91c0.205-6.142,0.265-12.551,0.966-18.649
	c0.557-4.851,0.531-9.665,1.136-14.512c0.784-6.283,1.206-12.921,1.184-19.238c-0.019-5.632,1.239-11.18,1.537-16.781
	c0.316-5.935,0.247-11.81,0.646-17.734c0.201-2.96-0.235-5.946-0.247-8.903c-0.012-2.945,0.604-5.707,0.891-8.621
	c0.597-6.054,0.013-12.24,0.016-18.314c0.002-5.98,0.004-11.961,0.006-17.942c0.002-6.311,0.224-12.311,0.84-18.525
	c0.664-6.7-0.122-13.93-0.128-20.674c-0.006-6.53-0.179-12.713-1.215-19.161c-0.947-5.893-0.942-10.032-5.481-14.569
	c-0.767-0.767-1.597-1.452-2.46-2.081c0.281-0.028,0.567-0.054,0.844-0.084c5.644-0.623,11.269-0.494,16.647-2.247
	c0.453-0.014,0.905-0.027,1.355-0.042c5.419,1.801,11.091,1.663,16.782,2.289c0.276,0.03,0.563,0.055,0.844,0.084
	c-0.863,0.629-1.693,1.315-2.46,2.081c-4.54,4.537-4.534,8.676-5.481,14.569c-1.036,6.447-1.209,12.63-1.215,19.161
	c-0.006,6.744-0.792,13.975-0.128,20.674c0.615,6.213,0.838,12.214,0.84,18.525c0.002,5.98,0.004,11.961,0.006,17.942
	c0.002,6.074-0.58,12.26,0.016,18.314c0.287,2.914,0.903,5.676,0.891,8.621c-0.011,2.957-0.447,5.942-0.247,8.903
	c0.399,5.924,0.33,11.8,0.646,17.734c0.299,5.6,1.557,11.149,1.537,16.781c-0.022,6.318,0.399,12.955,1.184,19.238
	c0.605,4.847,0.58,9.661,1.136,14.512c0.699,6.099,0.761,12.507,0.966,18.649c0.2,5.968,0.446,11.934,0.643,17.91
	c0.372,11.247,1.193,22.379,1.259,33.59c0.033,5.783,1.026,11.514,1.515,17.258c0.463,5.421,0.022,11.107-0.063,16.546
	c-0.09,5.822,0.731,11.439,0.723,17.269c-0.006,4.202-0.572,8.479,0.438,12.514c-7.472-0.031-14.919-0.248-22.391-0.465
	c-6.138-0.177-12.256-0.188-18.389-0.043C236.508,418.271,236.003,414.177,235.997,410.15z M155.346,443.211
	c-1.763-0.245-2.071,0.219-2.812-1.704c-0.799-2.076,0.537-6.026,0.824-8.102c0.434-3.138,2.908-4.038,5.741-4.09
	c5.009-0.093,10.019-0.135,15.029-0.19c4.596-0.051,9.136-0.641,13.724-0.786c4.108-0.131,8.128,0.808,12.171,0.606
	c4.924-0.247,8.982-0.648,13.943-0.15c3.739,0.375,7.581-0.59,11.379-0.545c4.563,0.055,9.115-0.483,13.626-1.102
	c5.605,0.187,11.211,0.362,16.815,0.509c7.314,0.191,14.609,0.275,21.922,0.413c2.87,0.054,5.823,0.326,8.71,0.176
	c0.08,0,0.159,0.003,0.238,0.002c3.798-0.045,7.639,0.92,11.379,0.545c4.962-0.498,9.019-0.096,13.943,0.15
	c4.043,0.203,8.062-0.736,12.171-0.606c4.588,0.146,9.128,0.736,13.724,0.786c5.009,0.055,10.019,0.098,15.029,0.19
	c2.833,0.052,5.307,0.952,5.742,4.09c0.287,2.077,1.624,6.027,0.824,8.102c-0.741,1.923-1.049,1.459-2.813,1.704
	c-5.067,0.703-9.646,1.878-14.802,1.776c-8.794-0.174-17.467,1.313-26.334,0.561c-9.176-0.778-18.437,0.005-27.622-0.596
	c-6.792-0.444-13.606-1.174-20.4-0.579c-3.984-0.052-7.972-0.077-11.933-0.036c-3.477,0.037-6.947,0.061-10.415,0.093
	c-7.008-0.701-14.038,0.064-21.046,0.522c-9.184,0.601-18.445-0.182-27.621,0.596c-8.867,0.752-17.54-0.736-26.334-0.561
	C164.992,445.089,160.413,443.914,155.346,443.211z M175.84,451.592c6.256,0.248,12.514,0.799,18.825,0.313
	c9.148-0.705,18.337-0.907,27.507-1.196c4.604-0.146,9.071-1.087,13.697-1.217c1.445-0.04,2.862-0.174,4.267-0.363
	c5.411,0.076,10.825,0.105,16.238,0.146c8.959,0.068,18.397,1.272,27.54,0.927c1.962,0.231,3.927,0.443,5.915,0.506
	c9.17,0.289,18.359,0.492,27.507,1.196c6.312,0.487,12.569-0.065,18.825-0.313c-8.212,5.138-12.542,13.737-15.336,22.722
	c-1.159,3.724-1.46,4.199-5.253,4.926c-2.773,0.531-5.398,0.632-8.185,0.89c-2.59,0.24-5.181,0.603-7.769,0.894
	c-3.202,0.359-6.277-0.287-9.494-0.314c-1.669-0.014-3.342,0-5.014,0.001c-4.084-0.544-8.451,0.117-12.495,0.117
	c-6.943,0-13.885,0.057-20.827,0.088c-2.009,0.009-4.014,0.074-6.019,0.156c-1.732-0.163-3.516-0.151-5.208-0.195
	c-6.223-0.162-12.463-0.218-18.688-0.166c-3.217,0.027-6.292,0.673-9.494,0.314c-2.587-0.291-5.178-0.654-7.769-0.894
	c-2.788-0.258-5.413-0.359-8.185-0.89c-3.793-0.726-4.094-1.202-5.253-4.926C188.381,465.329,184.052,456.73,175.84,451.592z
	 M373.343,504.796c-17.185,1.283-34.384,0.088-51.573-0.086c-9.166-0.093-18.495-0.741-27.677-1.179
	c-4.717-0.225-9.585-0.348-14.305-0.136c-0.878,0.04-1.748,0.168-2.614,0.314c-0.018,0.001-0.037,0.001-0.055,0.002
	c-7.206,0.278-14.45,0.122-21.661,0.159c-6.964,0.037-14.179-0.468-21.275-0.27c-0.653-0.097-1.308-0.176-1.968-0.205
	c-4.719-0.213-9.588-0.088-14.305,0.136c-9.182,0.438-18.511,1.086-27.677,1.179c-17.19,0.175-34.388,1.369-51.573,0.086
	c-5.61-0.419-7.081-3.052-6.588-8.496c0.427-4.715-1.39-8.267,4.452-9.081c2.857-0.398,5.722-0.756,8.574-1.193
	c2.517-0.386,4.497,0.42,6.972,0.289c2.137-0.113,4.223-0.678,6.386-0.764c3.654-0.146,7.278,0.156,10.912-0.33
	c4.978-0.667,10.751-1.102,15.764-0.341c3.078,0.466,6.18,0.805,9.283,0.947c4.121,0.905,8.387,1.14,12.56,1.586
	c6.165,0.658,11.805,0.256,17.979,0.288c6.541,0.033,13.15,0.175,19.679-0.297c2.574-0.186,5.216-0.289,7.468-1.308
	c2.625,0.012,5.251,0.021,7.876,0.035c2.237,0.987,4.848,1.09,7.395,1.274c6.527,0.471,13.137,0.33,19.679,0.297
	c6.174-0.031,11.815,0.371,17.979-0.288c4.172-0.446,8.439-0.68,12.56-1.586c3.102-0.142,6.204-0.481,9.282-0.947
	c5.014-0.76,10.787-0.326,15.764,0.341c3.634,0.487,7.258,0.184,10.912,0.33c2.162,0.086,4.249,0.651,6.385,0.764
	c2.475,0.131,4.455-0.675,6.973-0.289c2.85,0.437,5.716,0.796,8.573,1.193c5.843,0.813,4.025,4.366,4.453,9.081
	C380.423,501.744,378.953,504.378,373.343,504.796z"/>
<g>
</g>
<g>
</g>
<g>
</g>
<g>
</g>
<g>
</g>
<g>
</g>
<g>
</g>
<g>
</g>
<g>
</g>
<g>
</g>
<g>
</g>
<g>
</g>
<g>
</g>
<g>
</g>
<g>
</g>
</svg>
