<?xml version="1.0" encoding="iso-8859-1"?>
<!-- Generator: Adobe Illustrator 19.0.0, SVG Export Plug-In . SVG Version: 6.00 Build 0)  -->
<svg version="1.1" id="Layer_1" xmlns="http://www.w3.org/2000/svg" xmlns:xlink="http://www.w3.org/1999/xlink" x="0px" y="0px"
	 viewBox="0 0 511.996 511.996" style="enable-background:new 0 0 511.996 511.996;" xml:space="preserve">
<path style="fill:#CC765C;" d="M507.334,266.783c0.095-2.299-0.331-5.34-2.864-6.217c-1.763-0.61-3.779,0.286-5.548-0.309
	c-2.315-0.779-3.112-3.666-3.07-6.108c0.045-2.629,0.423-4.714-0.889-7.032c-1.316-2.325-2.645-4.465-3.753-6.985
	c-2.591-5.893-5.251-11.756-7.886-17.63c-11.234-25.053-22.473-50.104-33.838-75.097c-2.236-4.917-3.008-10.306-5.259-15.194
	c-0.968-2.101-1.631-4.791-0.138-6.558c1.358-1.607,4.009-1.77,5.124-3.554c0.924-1.482,0.368-3.43-0.426-4.988
	c-0.794-1.556-1.832-3.107-1.82-4.854c0.013-1.72,1.042-3.239,1.972-4.685c4.694-7.3,11.788-20.191,6.575-28.661
	c-2.579-4.188-6.811-7.021-10.764-9.949c-9.425-6.98-17.928-15.205-25.215-24.395c-1.054-1.329-2.325-2.805-4.022-2.819
	c-2.077-0.016-3.42,2.109-4.421,3.929c-6.154,11.208-15.045,20.901-25.683,27.998c-3.183,2.124-6.647,4.146-8.616,7.427
	c-2.385,3.977-0.669,7.669,0.992,11.453c2.04,4.649,4.081,9.296,6.121,13.945c0.593,1.349,1.197,2.753,1.168,4.226
	c-0.045,2.341-1.645,4.327-2.47,6.518s-0.345,5.375,1.947,5.853c1.011,0.21,2.109-0.196,3.072,0.174
	c1.597,0.615,1.746,2.791,1.551,4.492c-0.635,5.569-3.333,11.547-5.226,16.852c-2.22,6.223-4.784,12.319-7.508,18.337
	c-5.549,12.252-11.786,24.177-17.39,36.405c-7.554,16.483-13.773,33.153-19.131,50.43c-0.804,2.591-1.696,5.324-3.747,7.1
	c-2.047,1.775-4.872,2.27-7.335,3.4c-2.813,1.292-5.314,3.673-5.909,6.711c-0.597,3.038,1.287,6.592,4.34,7.109
	c1.479,0.25,2.984-0.195,4.485-0.213c5.045-0.058,9.013,4.877,9.704,9.876c0.783,5.668-2.055,12.077-4.211,17.383
	c0.985,0.37,1.755,1.252,1.751,2.666c-0.081,25.121-3.108,49.989-4.15,75.05c-0.988,23.764,3.692,47.334,0.155,71.042
	c-0.439,2.94-4.23,2.51-5.599,0.732c-8.576-11.137-15.719-23.217-22.871-35.291c-6.622-11.179-14.011-21.905-20.704-33.02
	c-0.134,0.894-0.433,1.735-1.144,2.246c-0.155,0.113-0.323,0.201-0.498,0.273c-0.613,0.25-1.322,0.278-1.995,0.295
	c-16.077,0.401-32.154,0.803-48.231,1.203c-2.711,0.068-5.937-0.128-7.354-2.44c-0.098-0.159-0.181-0.321-0.256-0.489
	c-3.924,6.479-8.112,12.808-12.267,19.083c-10.533,15.907-21.505,31.522-31.143,48.002c-1.466,2.506-5.019,1.261-5.2-1.408
	c-0.85-12.508-1.069-25.066-1.049-37.644c-0.762-0.321-1.374-0.988-1.586-2.092c-2.711-14.155-1.717-28.533-1.498-42.849
	c0.003-0.171,0.009-0.343,0.011-0.514c-0.014-0.678-0.028-1.356-0.04-2.032c-0.205-3.629-0.364-7.26-0.424-10.893
	c-0.283-17.119-3.152-35.334,0.898-52.196c-2.306-5.421-3.349-11.352-2.87-17.245c0.173-2.127,0.659-4.457,2.367-5.735
	c2.974-2.222,6.746,0.245,9.834-1.139c2.736-1.227,3.564-6.199,3.398-9.042c-0.161-2.776-1.915-5.67-4.645-6.201
	c-0.992-0.193-2.03-0.066-3.01-0.308c-2.728-0.673-4.005-3.857-4.172-6.661c-0.159-2.668,0.388-5.303-0.982-7.711
	c-1.298-2.285-2.786-4.15-3.879-6.642c-2.789-6.361-5.533-12.741-8.368-19.082c-11.213-25.068-22.644-50.039-33.589-75.22
	c-2.491-5.73-4.04-11.974-5.928-17.922c-0.283-0.889-0.527-1.975,0.104-2.663c0.557-0.608,1.502-0.574,2.291-0.814
	c1.82-0.555,2.759-2.641,2.798-4.544c0.039-1.902-0.582-3.752-0.803-5.64c-0.583-4.985,1.625-9.864,4.211-14.166
	c3.139-5.221,8.598-10.565,5.653-17.061c-1.69-3.726-5.013-6.401-8.134-9.046c-9.959-8.444-18.971-17.996-26.817-28.428
	c-1.362-1.811-3.219-3.869-5.439-3.412c-1.068,0.22-1.92,1.001-2.698,1.766c-10.748,10.563-18.642,24.22-31.262,32.455
	c-1.963,1.282-4.106,2.496-5.323,4.501c-2.708,4.46,0.605,9.507,1.292,14.063c0.678,4.502,3.235,6.63,5.094,10.737
	c1.326,2.93,1.765,6.424,0.42,9.346c-0.564,1.224-1.418,2.31-1.877,3.578c-0.459,1.267-0.416,2.871,0.607,3.752
	c1.487,1.281,4.043,0.309,5.573,1.54c3.562,2.864-2.231,12.603-3.375,15.734c-2.47,6.762-5.028,13.493-7.671,20.189
	c-6.187,15.668-12.803,30.967-20.553,45.902c-7.868,15.161-14.856,30.779-20.917,46.75c-0.645,1.702-1.311,3.457-2.563,4.779
	c-2.03,2.142-5.254,2.789-7.345,4.871c-2.184,2.174-2.729,5.525-2.51,8.599c0.125,1.763,0.713,3.821,2.389,4.381
	c1.319,0.441,2.711-0.255,4.068-0.563c4.717-1.067,9.375,2.949,10.792,7.573c1.561,5.093-0.129,10.131-0.229,15.204
	c-0.116,5.939,0.001,11.892,0.001,17.833v17.638c0,3.823,0.573,7.982,0.266,11.73c-0.154,1.877-0.957,3.796-2.52,4.847
	c-0.493,0.333-1.032,0.557-1.592,0.73c0.992,11.481,0.604,23.132-1.396,34.491c0.006,0.962,0.009,1.925,0.035,2.886
	c0.093,3.488,0.128,7.446-2.534,9.774c-0.169,4.257-0.294,8.516-0.391,12.775c0.098,0.335,0.093,0.699,0.08,1.052
	c-0.346,9.469-0.106,18.924-0.61,28.381c-0.296,5.563-0.379,11.142-0.211,16.69c0.14,4.651,3.954,7.861,8.187,9.491
	c4.013,1.544,8.398,1.75,12.695,1.936c29,1.261,58.048,2.521,87.041,1.147c15.213-0.72,30.38-2.166,45.565-3.329
	c2.495-0.191,4.76,0.384,7.185,0.231c3.125-0.196,6.026-1.91,8.877-3.043c6.543-2.599,13.827-2.598,20.83-1.876
	c8.614,0.889,17.202,2.247,25.822,2.638c9.657,0.438,19.835-1.283,29.509-1.731c13.469-0.625,26.964-0.929,40.443-0.479
	c5.839,0.195,12.376,1.595,18.092,0.984c6.831-0.729,12.538-1.212,19.381,0.424c7.002,1.673,13.743,4.34,20.775,5.878
	c10.371,2.27,21.106,2.035,31.721,1.788c30.742-0.712,61.483-1.424,92.225-2.136c4.99-0.115,10.163-0.274,14.641-2.479
	c14.694-7.235,7.759-32.015,5.729-44.092c-0.364-2.165-0.393-4.525,0.281-6.573c-0.035-0.874-0.066-1.748-0.101-2.623
	c-0.296-4.732-0.8-9.447-1.352-14.158c-0.47,0.046-0.915-0.027-1.299-0.329c-0.805-0.63-0.745-1.846-0.608-2.859
	c0.717-5.308-0.578-10.574-0.793-15.9c-0.06-1.514,0.011-3.077,0.266-4.589c-0.189-3.248-0.281-6.503-0.219-9.771
	c0.016-0.822,0.336-1.498,0.817-2.02c0.021-0.405,0.066-0.805,0.099-1.208c-0.01-0.204-0.023-0.406-0.033-0.609
	c-0.47-3.918-0.892-7.843-1.112-11.791c-1.416-0.927-2.335-2.631-2.58-4.348c-0.555-3.879,1.414-7.469,0.859-11.302
	c-0.664-4.591-0.797-9.277-1.072-13.923c-0.582-9.802-1.162-19.606-1.743-29.409c-0.233-3.936-0.111-8.628,3.174-10.807
	c3.571-2.367,12.069,0.13,12.885-5.498C507.596,271.742,507.244,268.942,507.334,266.783z"/>
<g>
	<path style="fill:#F4E9E6;" d="M93.795,43.696c-8.481,8.374-14.954,19.356-24.238,26.687c-5.159,4.071-13.322,5.099-13.787,12.899
		c-0.351,5.884,3.582,11.858,5.787,17.072c1.177,2.784,5.485,7.798,5.69,10.64c0.211,2.928-2.255,3.656-3.142,6.012
		c-0.503,1.334-1.057,4.375-0.488,5.727c0.82,1.95,2.364,1.286,3.27,2.663c2.036,3.09,0.111,5.45-1.287,9.732
		c-5.27,16.146-9.849,32.49-16.084,48.303c-6.381,16.178-14.766,31.396-22.914,46.752c-3.748,7.065-15.956,23.396-3.848,28.179
		c9.722,3.842,24.322-0.004,34.629,0.803c10.549,0.825,21.149,1.183,31.688,1.701c22.765,1.119,45.527-5.234,68.577-3.302
		c6.896,0.578,18.184,2.563,17.254-6.483c-0.654-6.357-4.217-14.535-6.821-20.163c-4.126-8.918-8.463-18.003-12.558-27.075
		c-8.253-18.289-17.599-36.091-25.413-54.469c-2.543-5.982-6.633-12.73-7.1-19.363c-0.414-5.892,2.375-4.83,4.801-8.706
		c2.29-3.657-0.562-6.548-0.984-9.85c-1.367-10.685,12.531-16.197,10.595-27.285c-1.108-6.349-10.015-11.172-14.61-14.931
		c-5.638-4.612-10.668-9.436-16.251-13.941c-2.523-2.036-4.287-3.727-5.923-6.394C99.194,46.545,98.739,42.983,93.795,43.696z"/>
	<path style="fill:#F4E9E6;" d="M413.39,43.696c-8.481,8.374-14.954,19.356-24.238,26.687c-5.159,4.071-13.322,5.099-13.787,12.899
		c-0.351,5.884,3.582,11.858,5.787,17.072c1.177,2.784,5.485,7.798,5.69,10.64c0.211,2.928-2.255,3.656-3.142,6.012
		c-0.503,1.334-1.057,4.375-0.488,5.727c0.82,1.95,2.364,1.286,3.27,2.663c2.036,3.09,0.111,5.45-1.287,9.732
		c-5.271,16.146-9.849,32.49-16.084,48.303c-6.381,16.178-14.766,31.396-22.914,46.752c-3.748,7.065-15.956,23.396-3.848,28.179
		c9.722,3.842,24.322-0.004,34.629,0.803c10.549,0.825,21.149,1.183,31.688,1.701c22.765,1.119,45.527-5.234,68.577-3.302
		c6.896,0.578,18.184,2.563,17.254-6.483c-0.654-6.357-4.217-14.535-6.821-20.163c-4.126-8.918-8.463-18.003-12.556-27.075
		c-8.254-18.289-17.599-36.091-25.413-54.469c-2.543-5.982-6.633-12.73-7.1-19.363c-0.414-5.892,2.375-4.83,4.801-8.706
		c2.29-3.657-0.562-6.548-0.983-9.85c-1.367-10.685,12.531-16.197,10.595-27.285c-1.108-6.349-10.015-11.172-14.61-14.931
		c-5.638-4.612-10.668-9.436-16.251-13.941c-2.523-2.036-4.287-3.727-5.923-6.394C418.789,46.545,418.333,42.983,413.39,43.696z"/>
</g>
<path style="fill:#D6C9C5;" d="M94.479,45.315c2.751,3.189-3.019,16.498-3.468,19.245c-1.029,6.293,0.13,11.965,0.48,17.886
	c0.38,6.412,1.707,11.521,3.23,17.953c0.62,2.621,1.606,6.701,0.952,9.391c-0.63,2.591-3.577,4.153-3.744,6.776
	c-0.628,9.867,16.598,4.909,21.59,5.608c5.069,0.71,10.356,4.659,6.061,9.457c-1.446,1.613-4.09,2.2-6.001,3.118
	c-4.39,2.11-8.434,4.694-12.047,7.987c-8.452,7.705-13.917,18.192-18.317,28.589c-10.216,24.143-3.887,46.545,19.496,59.31
	c17.184,9.381,36.66,10.745,55.369,15.189c3.077,0.73,20.668,6.034,14.185,11.765c-2.312,2.045-14.637,0.984-17.804,0.998
	c-8.931,0.038-17.79-0.133-26.685,0.593c-20.629,1.68-41.536,0.752-62.241,0.799c-13.873,0.033-32.045,1.96-45.482-2.259
	c-11.506-3.612,3.2-19.837,5.991-26.298c7.29-16.883,12.129-34.745,19.689-51.512c5.445-12.079,11.795-23.794,17.146-35.943
	c2.454-5.569,7.147-13.242,5.394-19.322c-0.563-1.955-2.295-3.729-2.915-5.747c-0.838-2.725-0.311-5.674-0.804-8.482
	C63,101.557,54.089,92.818,56.191,83.129c1.038-4.784,6.63-8.962,10.171-12.499c5.144-5.135,11.291-8.942,16.328-14.205
	c1.857-1.941,8.015-12.85,11.054-11.632C94.039,44.908,94.282,45.085,94.479,45.315z"/>
<path style="fill:#4C4442;" d="M97.972,87.323c-4.867,1.508-10.184-0.033-15.068-0.336c-5.991-0.371-11.982-0.305-17.854-1.747
	c-0.428-0.105-12.066-2.714-11.588-1.535c2.933,7.236,7.821,15.942,12.82,21.833c5.609,6.61,17.516,4.527,25.615,4.527
	c9.64,0,19.437,0.93,28.813-0.463c4.377-0.65,5.051-1.023,7.639-4.896c2.277-3.409,8.746-13.264,7.11-17.848
	c-1.347-3.774-7.432-1.57-11.351-1.403C114.837,85.85,104.249,85.378,97.972,87.323z"/>
<path style="fill:#776A67;" d="M83.121,259.513c-6.362,1.256-13.546-0.46-20.03-0.473c-7.838-0.015-15.983,0.058-23.829,0.457
	c-8.617,0.438-17.192,0.128-25.747,0.458c-6.653,0.256-11.981,3.159-9.769,11.433c2.583,9.66,26.269,5.299,33.873,5.299
	c22.861,0,45.718-0.395,68.562-0.463c13.566-0.04,26.937,1.858,40.36,1.865c6.526,0.003,13.072-0.732,19.655-0.471
	c4.242,0.168,8.802,1.068,12.989,0.011c5.03-1.269,10.813-8.168,7.92-13.983c-1.65-3.315-6.087-2.919-9.178-3.19
	c-8.284-0.727-16.567-0.573-24.879-0.98C132.33,258.456,111.379,261.735,83.121,259.513z"/>
<path style="fill:#AD604E;" d="M175.016,457.231c-3.532-3.911-9.741-2.779-14.37-2.768c-19.687,0.043-38.177-1.379-56.775-8.737
	c-5.976-2.364-12.116-5.587-16.465-10.431c-5.071-5.652-4.541-10.981-5.204-18.039c-1.277-13.579-2.404-27.205-2.177-40.857
	c0.445-26.848,6.561-55.489,28.958-72.737c13.517-10.409,30.164-7.34,45.811-10.834c7.177-1.602,12.701-3.313,15.214-10.812
	c3.472-10.36-12.126-5.992-18.619-5.947c-17.415,0.123-34.777,0.93-52.196-0.03c-17.838-0.983-35.709,0.627-53.519-0.24
	c-7.906-0.385-24.143-3.044-26.221,6.316c-2.127,9.585-0.271,21.723-0.271,31.546c0,10.206-0.383,20.348-0.81,30.527
	c-1.152,27.393-6.685,54.855-6.737,82.169c-0.001,1.119-0.471,1.931-1.151,2.454c0.426,7.52,1.775,15.224,2.569,22.307
	c1.053,9.401,3.058,13.857,12.745,14.936c6.449,0.718,12.791,0.15,19.266-0.004c7.644-0.181,15.295,0.943,22.913,0.694
	c19.16-0.628,38.097,0.719,57.173,0.697c9.047-0.01,18.11-0.484,27.126-1.154c5.474-0.408,16.922,0.059,21.756-2.546
	C177.29,461.982,177.511,459.994,175.016,457.231z"/>
<path style="fill:#D6C9C5;" d="M414.018,45.315c2.751,3.189-3.019,16.498-3.468,19.245c-1.029,6.293,0.13,11.965,0.48,17.886
	c0.38,6.412,1.707,11.521,3.23,17.953c0.62,2.621,1.606,6.701,0.952,9.391c-0.63,2.591-3.577,4.153-3.744,6.776
	c-0.628,9.867,16.598,4.909,21.59,5.608c5.068,0.71,10.356,4.659,6.061,9.457c-1.446,1.613-4.09,2.2-5.999,3.118
	c-4.39,2.11-8.434,4.694-12.047,7.987c-8.452,7.705-13.917,18.192-18.317,28.589c-10.216,24.143-3.887,46.545,19.496,59.31
	c17.184,9.381,36.66,10.745,55.369,15.189c3.077,0.73,20.668,6.034,14.185,11.765c-2.312,2.045-14.637,0.984-17.804,0.998
	c-8.931,0.038-17.79-0.133-26.685,0.593c-20.629,1.68-41.536,0.752-62.241,0.799c-13.873,0.033-32.045,1.96-45.482-2.259
	c-11.506-3.612,3.2-19.837,5.991-26.298c4.504-10.43,8.521-19.961,14.088-30.009c4.376-7.898,7.855-16.82,11.227-25.245
	c3.581-8.948,7.791-17.63,11.329-26.596c2.789-7.067,7.82-17.167,5.584-24.929c-0.563-1.955-2.295-3.729-2.915-5.747
	c-0.838-2.725-0.311-5.674-0.804-8.482c-1.553-8.858-10.464-17.598-8.362-27.286c1.038-4.784,6.63-8.962,10.171-12.499
	c5.144-5.135,11.291-8.942,16.328-14.205c1.857-1.941,8.015-12.85,11.054-11.632C413.577,44.908,413.82,45.085,414.018,45.315z"/>
<path style="fill:#4C4442;" d="M417.511,87.323c-4.867,1.508-10.184-0.033-15.068-0.336c-5.991-0.371-11.982-0.305-17.854-1.747
	c-0.428-0.105-12.066-2.714-11.588-1.535c2.933,7.236,7.821,15.942,12.82,21.833c5.609,6.61,17.516,4.527,25.617,4.527
	c9.64,0,19.437,0.93,28.813-0.463c4.377-0.65,5.051-1.023,7.639-4.896c2.277-3.409,8.746-13.264,7.11-17.848
	c-1.347-3.774-7.432-1.57-11.351-1.403C434.375,85.85,423.787,85.378,417.511,87.323z"/>
<path style="fill:#776A67;" d="M402.659,259.513c-6.362,1.256-13.546-0.46-20.03-0.473c-7.838-0.015-15.983,0.058-23.829,0.457
	c-8.617,0.438-17.192,0.128-25.747,0.458c-6.653,0.256-11.98,3.159-9.769,11.433c2.583,9.66,26.269,5.299,33.873,5.299
	c22.862,0,45.718-0.395,68.562-0.463c13.566-0.04,26.937,1.858,40.36,1.865c6.525,0.003,13.072-0.732,19.655-0.471
	c4.242,0.168,8.802,1.068,12.989,0.011c5.03-1.269,10.813-8.168,7.92-13.983c-1.65-3.315-6.087-2.919-9.177-3.19
	c-8.284-0.727-16.567-0.573-24.879-0.98C451.868,258.456,430.917,261.735,402.659,259.513z"/>
<path style="fill:#AD604E;" d="M494.554,457.231c-3.532-3.911-9.741-2.779-14.37-2.768c-19.687,0.043-38.177-1.379-56.775-8.737
	c-5.976-2.364-12.116-5.587-16.465-10.431c-5.071-5.652-4.541-10.981-5.204-18.039c-1.277-13.579-2.404-27.205-2.177-40.857
	c0.445-26.848,6.561-55.489,28.96-72.738c9.18-7.069,20.633-7.94,31.746-8.936c8.821-0.79,23.527-1.636,29.863-8.909
	c10.888-12.501-14.216-9.782-19.203-9.747c-17.415,0.123-34.777,0.93-52.196-0.03c-16.008-0.882-32.041,0.263-48.059-0.046
	c-5.624-0.109-10.588,0.964-16.097,1.403c-3.953,0.315-12.127-1.881-13.453,3.681c-0.568,2.384,1.159,4.716,1.324,7.04
	c0.443,6.199-1.877,13.082-2.067,19.381c-0.21,6.971,0.135,13.943,0.135,20.914c0,15.827-0.717,31.501-2.075,47.237
	c-1.429,16.555-0.273,33.054-1.036,49.625c-0.334,7.245-0.655,14.556-1.279,21.785c-0.238,2.754-1.099,6.5-0.47,9.231
	c0.949,4.123,5.515,9.301,9.682,9.765c6.45,0.718,12.791,0.15,19.266-0.004c7.644-0.181,15.295,0.943,22.913,0.694
	c19.16-0.628,38.097,0.719,57.172,0.697c9.047-0.01,18.112-0.484,27.126-1.154c5.474-0.408,16.922,0.059,21.756-2.546
	C496.828,461.982,497.049,459.994,494.554,457.231z"/>
<path style="fill:#798793;" d="M197.747,428.393c-4.8,8.864-13.444,17.301-15.289,27.574c-0.692,3.857,1.136,3.975,5.154,4.586
	c8.405,1.278,17.85,0.932,26.377,1.121c20.539,0.453,41.016,0.354,61.56,0.354c15.679,0,31.611,1.111,47.176-0.371
	c3.694-0.351,10.18,0.917,9.561-4.251c-0.4-3.344-4.537-8.298-6.379-11.123c-5.501-8.44-11.598-16.66-16.411-25.584
	c-4.635-8.594-10.739-15.738-16.044-23.784c-1.974-2.993-3.507-8.601-6.378-10.84c-2.896-2.259-8.382-1.024-11.932-0.625
	c-10.642,1.196-20.525-0.02-31.126-0.463c-5.522-0.23-11.98-2.071-16.688,1.088c-5.041,3.382-7.71,9.282-11.088,14.133
	C208.729,410.998,201.084,421.703,197.747,428.393z"/>
<path style="fill:#63707A;" d="M245.848,387.165c-5.324,9.766-9.317,21.244-12.568,31.877c-2.725,8.916-6.66,17.155-9.864,25.926
	c-1.162,3.18-4.641,9.268-4.268,12.765c0.311,2.914,1.891,2.613,4.825,2.769c6.049,0.321,12.144-0.073,18.204,0.068
	c6.806,0.158,13.519,1.638,20.321,2.002c10.512,0.562,20.887,0.664,31.022-2.052c0.899-13.654-8.481-27.835-12.761-40.578
	c-2.615-7.783-5.943-15.42-8.872-23.118c-2.199-5.778-1.033-11.445-7.77-12.154C257.954,384.018,247.631,382.561,245.848,387.165z"
	/>
<g>
	<path style="fill:#4C4442;" d="M99.776,467.909c0-19.829-0.263-39.386,0.555-59.192c0.574-13.876,4.023-31.986,14.993-41.395
		c8.884-7.621,18.442-7.437,27.942-1.558c14.382,8.899,12.23,32.564,12.09,46.995c-0.13,13.361-0.071,26.345,0.682,39.629
		c0.286,5.061,1.407,11.119-0.22,16.009c-8.324,1.184-18.248-1.817-27.007-1.597C118.868,467.049,108.987,470.384,99.776,467.909z"
		/>
	<path style="fill:#4C4442;" d="M37.179,406.483c-3.823-5.679-1.895-17.004-1.728-22.85c0.289-10.165,3.128-19.576,12.206-25.219
		c11.605-7.212,31.171-1.005,34.456,12.446c1.935,7.92,6.422,30.76-1.456,36.615c-4.135,3.073-14.135,1.958-19.138,2.515
		c-6.722,0.749-13.531,1.434-20.145-0.441C39.514,409.022,38.158,407.938,37.179,406.483z"/>
	<path style="fill:#4C4442;" d="M357.116,468.466c-4.26-21.397,0.47-45.128,1.681-66.605c0.877-15.55,0.807-31.313,16.538-38.597
		c15.629-7.235,26.586,5.869,30.978,19.545c7.509,23.379,8.004,44.657,6.936,68.736c-0.365,8.238,1.056,13.283-7.819,15.53
		C390.751,470.792,374.729,465.09,357.116,468.466z"/>
	<path style="fill:#4C4442;" d="M428.816,401.768c0.065-12.596-2.481-29.956,6.339-40.019c6.516-7.432,17.295-10.817,26.453-6.266
		c8.229,4.091,14.297,12.828,15.532,21.939c1.028,7.585,0.567,15.409,0.587,23.109c0.018,6.875-1.162,8.467-7.891,9.574
		c-9.123,1.5-19.367,0.44-28.544,0c-2.62-0.125-6.911,0.188-9.14-1.543C429.171,406.247,430.753,405.345,428.816,401.768z"/>
</g>
<path d="M511.298,266.369c-0.079-2.14,0.264-4.168-0.923-6.068c-1.996-3.192-6.753-3.133-10.063-3.31
	c-0.26-0.014-0.524-0.018-0.785-0.029c1.037-2.306,1.011-5.266-0.209-8.764c-2.55-7.321-5.458-14.869-9.127-21.678
	c-8.942-16.596-16.847-33.878-25.105-50.827c-4.12-8.454-7.33-17.081-10.715-25.827c-2.944-7.604-5.907-14.989-9.101-22.404
	c2.459-0.363,4.674-1.122,5.74-2.784c1.616-2.518,0.678-10.809-1.187-13.14c-0.084-0.105-0.189-0.195-0.285-0.291
	c4.436-2.76,5.381-9.2,7.254-13.697c1.966-4.724,4.978-9.526,4.47-14.869c-0.388-4.081-3.419-5.798-6.588-7.854
	c-4.58-2.971-8.452-6.625-12.708-10.014c-4.745-3.779-9.013-7.087-13.049-11.611c-1.685-1.89-3.347-3.864-5.039-5.82
	c-0.802-1.287-1.538-2.568-2.281-3.898c-1.279-2.294-3.303-5.121-6.349-4.335c-1.521,0.393-2.494,1.688-3.349,2.891
	c-1.521,2.139-3.03,4.147-4.772,6.122c-1.422,1.611-3.35,3.731-4.261,5.897c-3.802,4.087-7.818,7.22-12.251,10.753
	c-4.255,3.389-8.128,7.042-12.708,10.014c-3.168,2.056-6.199,3.773-6.588,7.854c-0.508,5.343,2.505,10.146,4.47,14.869
	c1.872,4.499,2.819,10.937,7.25,13.694c-0.091,0.099-0.196,0.189-0.281,0.294c-1.863,2.331-2.801,10.623-1.187,13.14
	c1.068,1.662,3.282,2.421,5.742,2.784c-3.195,7.415-6.157,14.799-9.101,22.404c-3.385,8.746-6.595,17.374-10.714,25.827
	c-8.258,16.949-16.164,34.231-25.105,50.827c-3.671,6.81-6.578,14.357-9.128,21.678c-1.219,3.498-1.246,6.458-0.209,8.764
	c-0.261,0.011-0.525,0.014-0.785,0.029c-3.309,0.176-8.067,0.118-10.063,3.31c-1.187,1.898-0.845,3.928-0.923,6.068
	c-0.085,2.332-0.897,4.641-0.655,6.994c0.416,4.091,2.934,6.463,6.948,6.771c3.619,0.276,7.275,0.545,10.946,0.78
	c-0.842,4.731-1.209,9.465-1.369,14.207c-3.688,8.318-7.59,16.641-12.894,24.071c-3.784,5.3-8.653,11.021-14.196,14.484
	c-4.015,2.508-7.69,4.473-12.464,4.979c-2.636,0.279-5.078-0.593-7.518-0.56c-10.049,0.133-7.036,19.697-6.961,25.991
	c0.07,5.822,0.773,11.572,0.493,17.357c-1.502-0.161-3.087,0.139-4.545,0.281c-2.824,0.276-5.293-0.034-8.073-0.095
	c-0.615-0.014-1.168,0.016-1.666,0.084c-8.709,1.163-17.962-1.732-26.661,0c-0.498-0.066-1.051-0.098-1.666-0.084
	c-2.779,0.063-5.248,0.373-8.073,0.095c-1.457-0.143-3.043-0.443-4.545-0.281c-0.279-5.785,0.424-11.536,0.494-17.357
	c0.075-6.293,3.088-25.857-6.961-25.991c-2.44-0.033-4.881,0.839-7.518,0.56c-4.774-0.505-8.449-2.471-12.464-4.979
	c-5.543-3.462-10.411-9.183-14.196-14.484c-5.304-7.429-9.206-15.753-12.894-24.071c-0.16-4.742-0.528-9.476-1.369-14.207
	c3.671-0.235,7.326-0.504,10.945-0.78c4.015-0.308,6.532-2.68,6.949-6.771c0.24-2.352-0.57-4.662-0.655-6.994
	c-0.079-2.14,0.264-4.168-0.923-6.068c-1.996-3.192-6.753-3.133-10.063-3.31c-0.26-0.014-0.524-0.018-0.785-0.029
	c1.037-2.306,1.011-5.266-0.209-8.764c-2.55-7.321-5.458-14.869-9.128-21.678c-8.941-16.596-16.847-33.878-25.105-50.827
	c-4.12-8.454-7.329-17.081-10.714-25.827c-2.944-7.604-5.907-14.989-9.101-22.404c2.46-0.363,4.674-1.122,5.742-2.784
	c1.615-2.518,0.677-10.809-1.187-13.14c-0.084-0.105-0.189-0.195-0.281-0.294c4.431-2.758,5.378-9.197,7.25-13.694
	c1.965-4.724,4.978-9.526,4.47-14.869c-0.389-4.081-3.419-5.798-6.588-7.854c-4.58-2.971-8.453-6.625-12.708-10.014
	c-4.433-3.533-8.449-6.666-12.251-10.753c-0.912-2.166-2.84-4.286-4.261-5.897c-1.742-1.975-3.252-3.983-4.772-6.122
	c-0.855-1.203-1.827-2.499-3.349-2.891c-3.047-0.787-5.07,2.04-6.349,4.335c-0.743,1.331-1.479,2.611-2.281,3.898
	c-1.692,1.955-3.354,3.931-5.039,5.82c-4.036,4.525-8.304,7.831-13.049,11.611c-4.255,3.389-8.128,7.042-12.708,10.014
	c-3.169,2.056-6.201,3.773-6.588,7.854c-0.508,5.343,2.504,10.146,4.47,14.869c1.872,4.499,2.818,10.937,7.254,13.697
	c-0.096,0.096-0.201,0.186-0.285,0.291c-1.865,2.331-2.803,10.623-1.187,13.14c1.067,1.662,3.282,2.421,5.74,2.784
	c-3.194,7.415-6.157,14.799-9.101,22.404c-3.385,8.746-6.596,17.374-10.715,25.827c-8.258,16.949-16.163,34.231-25.105,50.827
	c-3.669,6.81-6.577,14.357-9.127,21.678c-1.219,3.498-1.246,6.458-0.209,8.764c-0.263,0.011-0.525,0.014-0.785,0.029
	c-3.309,0.176-8.067,0.118-10.063,3.31c-1.187,1.898-0.845,3.928-0.923,6.068c-0.085,2.332-0.895,4.641-0.655,6.993
	c0.416,4.091,2.934,6.463,6.948,6.771c3.619,0.276,7.275,0.545,10.946,0.78c-1.935,10.879-1.438,21.766-1.413,32.765
	c0.015,6.512-0.784,12.929-0.78,19.439c0.004,5.752-0.098,11.868-0.804,17.618c-0.316,2.58-0.14,5.218-0.623,7.779
	c-0.326,1.735-0.842,3.312-0.763,5.123c0.295,6.833-0.366,13.919-1.221,20.755c-1.002,8.009-2.407,16.093-2.86,24.135
	c-0.204,3.611-0.632,7.2-0.805,10.809c-0.145,3-0.47,5.996-0.619,8.997c-0.253,5.068-0.453,9.988-0.466,15.105
	c-0.015,5.947-0.211,11.812,0.889,17.674c0.863,4.591,2.976,6.146,7.231,7.509c4.742,1.521,9.802,2.226,14.782,2.675
	c3.124,0.281,6.316,0.193,9.418,0.49c2.167,0.209,4.333,1.098,6.5,1.168c5.848,0.188,12.09-0.69,17.998-0.947
	c1.052-0.046,2.12-0.078,3.195-0.115c2.415,0.145,4.815,0.261,7.134,0.415c7.972,0.53,16.715,0.547,24.687,0.109
	c7.266-0.4,14.6-0.171,21.867-0.63c1.925,0.101,3.849,0.141,5.723,0.223c5.908,0.256,12.15,1.134,17.998,0.947
	c2.166-0.07,4.333-0.958,6.5-1.168c3.102-0.299,6.294-0.21,9.419-0.49c4.979-0.449,10.039-1.154,14.781-2.675
	c3.175-1.018,5.158-2.144,6.318-4.559c3.796,1.053,8.029,0.882,11.871,1.139c5.6,0.375,11.246,0.574,16.803,0.818
	c1.573,0.069,0.694-0.039,2.799,0.06c2.913,0.136,6.139-0.325,9.055-0.469c1.387-0.069,2.813-0.114,4.247-0.188
	c9.928,1.288,21.237,1.632,31.212,0.72c4.165-0.38,8.175-0.253,12.404-0.151c4.889,0.118,9.959-0.818,14.781-0.569
	c1.433,0.074,2.86,0.119,4.246,0.188c2.915,0.144,6.142,0.605,9.055,0.469c2.105-0.099,1.226,0.009,2.799-0.06
	c5.558-0.245,11.202-0.443,16.803-0.818c3.842-0.258,8.075-0.085,11.871-1.139c1.161,2.415,3.143,3.541,6.318,4.559
	c4.742,1.521,9.802,2.226,14.781,2.675c3.124,0.281,6.317,0.193,9.418,0.49c2.166,0.209,4.333,1.098,6.5,1.168
	c5.848,0.188,12.09-0.69,17.998-0.947c1.875-0.081,3.798-0.12,5.723-0.223c7.269,0.459,14.602,0.231,21.867,0.63
	c7.973,0.439,16.716,0.421,24.687-0.109c2.319-0.154,4.719-0.27,7.134-0.415c1.074,0.038,2.142,0.069,3.195,0.115
	c5.908,0.256,12.15,1.134,17.998,0.947c2.166-0.07,4.332-0.958,6.499-1.168c3.102-0.299,6.294-0.21,9.419-0.49
	c4.98-0.449,10.039-1.154,14.782-2.675c4.253-1.363,6.368-2.918,7.231-7.509c1.101-5.86,0.905-11.727,0.889-17.674
	c-0.013-5.118-0.213-10.039-0.465-15.105c-0.149-3.001-0.474-5.997-0.619-8.997c-0.174-3.609-0.602-7.199-0.805-10.809
	c-0.453-8.04-1.858-16.126-2.86-24.135c-0.854-6.836-1.516-13.922-1.221-20.755c0.079-1.811-0.436-3.388-0.763-5.123
	c-0.482-2.561-0.305-5.199-0.622-7.779c-0.705-5.749-0.807-11.866-0.804-17.618c0.004-6.509-0.795-12.926-0.78-19.439
	c0.025-11.001,0.522-21.887-1.413-32.765c3.671-0.235,7.326-0.504,10.946-0.78c4.014-0.308,6.532-2.68,6.948-6.771
	C512.193,271.011,511.384,268.701,511.298,266.369z M130.149,92.343c-2.151,3.997-3.35,9.616-6.441,12.934
	c-0.038,0.04-0.083,0.075-0.121,0.114c0.243-2.321,0.291-4.604,0.253-7.05c-0.044-2.773,0.074-5.759-0.42-8.551
	c1.988-0.424,3.972-0.884,5.957-1.252c1.091-0.201,2.132-0.395,3.132-0.644C131.782,89.559,130.79,91.152,130.149,92.343z
	 M62.958,79.015c11.069-9.153,21.663-18.303,28.975-30.319c0.414-0.475,0.817-0.96,1.178-1.479c0.405-0.58,1.318-2.506,1.887-2.751
	c1.224-0.528,1.268,0.894,2.029,2.049c1.477,2.244,3.432,4.037,5.005,6.182c0.203,0.278,0.405,0.525,0.608,0.76
	c7.046,9.749,16.252,17.653,25.813,25.559c1.138,0.942,3.412,1.827,4.322,3.065c-6.006,1.331-12.04,2.93-18.185,3.522
	c-3.824,0.368-7.673,0.201-11.487,0.179c-1.541-0.009-3.232,0.158-4.91,0.245c-0.139-0.12-0.33-0.19-0.562-0.149
	c-0.618,0.11-1.267,0.16-1.927,0.184c-0.66-0.024-1.309-0.074-1.927-0.184c-0.231-0.041-0.421,0.029-0.562,0.149
	c-1.678-0.088-3.368-0.255-4.91-0.245c-3.813,0.023-7.663,0.19-11.487-0.179c-6.146-0.592-12.18-2.191-18.185-3.522
	C59.548,80.842,61.82,79.957,62.958,79.015z M119.189,107.63c-2.606,0.694-5.597,0.89-7.879,1.079
	c0.518-3.452,0.604-7.024,0.614-10.504c0.007-2.513,0.164-5.026-0.815-7.31c0.004-0.001,0.007-0.001,0.007-0.001
	c1.886,0.126,3.768,0.151,5.612-0.009c1.108-0.096,2.212-0.251,3.313-0.438c-0.37,2.6-0.27,5.341-0.318,7.893
	C119.668,101.365,118.863,104.635,119.189,107.63z M107.725,108.797c0.009,0.073,0.029,0.14,0.048,0.209
	c-2.284,0.176-4.556,0.334-6.815,0.609c-0.358-0.014-0.717-0.006-1.076-0.007c0.004-0.255-0.039-0.515-0.153-0.767
	c-0.565-1.247-0.141-3.113-0.136-4.468c0.007-2.287,0.206-4.403,0.358-6.671c0.173-2.59-0.13-4.378-0.91-6.475
	c3.045,0.244,6.278,0.414,9.405,0.084C109.152,97.099,106.999,103.042,107.725,108.797z M96.258,109.674
	c-0.989,0.024-1.98,0.036-2.971-0.024c-0.97-0.059-1.943-0.056-2.915-0.046c-0.828-0.1-1.657-0.183-2.489-0.258
	c0.538-2.911,0.113-13.946-0.196-18.988c3.029,0.325,6.088,0.49,9.107,0.703c-0.135,1.126,0.066,2.292,0.01,3.454
	c-0.113,2.356-0.62,4.595-0.775,6.93C95.876,103.771,95.298,107.26,96.258,109.674z M84.774,109.092
	c-1.298-0.099-2.6-0.196-3.906-0.316c-1.349-0.125-3.045-0.229-4.794-0.441c0.209-2.571-0.281-5.278-0.509-7.785
	c-0.286-3.144,0.061-6.454-0.266-9.626c3.367,0.221,6.841-0.125,10.21-0.614c-0.361,3.372-0.445,6.762-0.491,10.156
	C84.981,103.257,84.593,106.241,84.774,109.092z M61.263,92.343c-0.64-1.191-1.633-2.784-2.357-4.447
	c0.998,0.249,2.041,0.443,3.132,0.644c3.422,0.633,6.836,1.538,10.288,2.056c-0.451,3.119-0.275,6.516-0.074,9.474
	c0.159,2.336,0.029,5.095,0.289,7.644c-1.947-0.483-3.708-1.226-4.836-2.435C64.614,101.959,63.414,96.34,61.263,92.343z
	 M66.073,121.146c-0.443-2.576-0.454-6.542,0.594-6.966c0.445-0.18,1.955,0.149,2.716-0.025c0.565-0.129,1.159-0.339,1.76-0.584
	c1.793,0.149,3.581,0.218,5.251,0.375c4.177,0.394,8.455,0.385,12.668-0.104c1.518,0.133,3.047,0.229,4.581,0.331
	c3.417,0.228,7.505,0.709,11.007-0.114c3.463,0.258,6.95,0.21,10.369-0.114c1.671-0.158,3.458-0.226,5.251-0.375
	c0.6,0.245,1.194,0.456,1.76,0.584c0.762,0.173,2.27-0.156,2.716,0.025c1.048,0.424,1.036,4.391,0.594,6.966
	c-9.292,2.162-19.077-0.253-28.518,0.858c-0.416-0.016-0.835-0.043-1.252-0.055c-0.698-0.02-1.414-0.044-2.125-0.066
	C84.359,121.078,74.988,123.222,66.073,121.146z M21.425,248.957c1.458-4.097,3.039-8.225,4.589-12.267
	c2.744-7.154,6.737-14.198,9.981-21.189c6.817-14.691,13.731-29.327,20.039-44.247c3.259-7.708,6.117-15.603,8.819-23.527
	c1.528-4.481,2.81-8.963,4.547-13.377c0.78-1.982,1.803-4.272,2.257-6.543c1.382,0.031,2.649,0.041,3.622,0.124
	c4.473,0.38,9.141-0.351,13.684-1.441c1.872,0.125,3.748,0.224,5.602,0.363c4.532,0.339,10.376,2.127,15.071,0.929
	c2.186,0.24,4.363,0.33,6.496,0.149c0.972-0.083,2.239-0.093,3.622-0.124c0.453,2.271,1.477,4.561,2.257,6.543
	c1.737,4.413,3.018,8.896,4.547,13.377c2.703,7.924,5.559,15.819,8.819,23.527c6.308,14.92,13.22,29.555,20.038,44.247
	c3.245,6.991,7.237,14.036,9.981,21.189c1.551,4.042,3.132,8.17,4.59,12.267c0.552,1.551,1.875,3.469,0.286,4.942
	c-0.588,0.544-7.031,0.824-6.721,0.805c-9.445,0.545-18.826,0.663-28.295,0.807c-6.908,0.105-14.767,0.255-21.618,1.867
	c-6.791,0.233-13.733,0.118-20.325-0.476c-6.486-0.585-13.104-0.369-19.681-0.321c-5.763-0.872-11.93-0.983-17.479-1.068
	c-9.47-0.144-18.851-0.261-28.295-0.807c0.31,0.018-6.133-0.261-6.721-0.805C19.55,252.426,20.874,250.507,21.425,248.957z
	 M12.801,272.252c-0.814-0.046-4.584,0.549-5.139,0.126c-0.927-0.705-0.134-4.086-0.176-5.21c-0.12-3.132-0.759-2.669,1.925-3.696
	c2.014-0.77,4.84-0.525,6.965-0.592c1.825-0.058,3.576-0.25,5.301-0.497c9.877,1.149,20.045,0.925,30,0.875
	c6.605-0.033,12.972,0.441,19.29-0.329c8.921,0.594,18.239,0.888,27.129,0.887c9.302-0.003,18.538-0.028,27.813-0.49
	c4.535,0.141,9.121-0.09,13.828-0.068c9.955,0.049,20.123,0.273,30-0.875c1.726,0.246,3.477,0.44,5.301,0.497
	c2.125,0.066,4.951-0.178,6.965,0.592c2.683,1.027,2.044,0.564,1.923,3.696c-0.043,1.124,0.75,4.505-0.176,5.21
	c-0.555,0.423-4.326-0.171-5.139-0.126c-4.202,0.238-8.35,0.885-12.539,1.218c-8.182,0.65-16.435,0.003-24.629,0.149
	c-3.763-0.624-7.891,0.099-12.534-0.233c-8.459-0.605-17.135-0.238-25.619,0.471c-8.195,0.684-16.852,0.559-24.996,0.264
	c-4.755-0.173-9.621-0.428-14.38-0.293c-2.482,0.071-5.174-0.133-7.723,0.105c-1.109-0.1-2.221-0.185-3.337-0.234
	c-9.138-0.406-18.373,0.498-27.516-0.23C21.151,273.137,17.003,272.488,12.801,272.252z M149.963,464.211
	c-2.823,0.269-5.443,0.668-8.393,0.346c-5.001-0.545-10.041-0.44-15.063-0.477c-4.008-0.029-7.748,0.783-11.761,0.708
	c-4.13-0.078-8.259-0.153-12.389-0.23c1.983-7.22,0.972-15.095,0.84-22.5c-0.146-8.214-0.331-16.72,0.299-24.903
	c0.655-8.503,1.376-16.536,3.636-24.821c2.311-8.471,5.669-19.896,13.704-24.817c8.827-5.408,21.802-0.912,25.549,8.533
	c3.502,8.824,4.035,19.794,4.041,29.206C150.439,424.923,150.157,444.527,149.963,464.211z M171.756,454.065
	c-0.135,2.279-0.133,4.428-1.064,6.553c-0.263,0.597-0.535,1.127-0.787,1.656c-0.54,0.065-1.014,0.12-1.336,0.171
	c-2.961,0.47-5.927,0.828-8.899,1.101c0.011-8.586,0.346-17.231,0.118-25.773c-0.243-8.998-1.499-17.935-1.477-26.941
	c0.024-9.171-0.485-18.404-1.767-27.486c-1.048-7.43-3.347-14.57-9.232-19.386c-11.78-9.642-29.341-9.405-38.454,3.869
	c-9.015,13.13-11.929,29.621-12.874,45.225c-1.038,17.152-0.033,34.346,1.727,51.421c-4.582-0.085-9.165-0.17-13.746-0.255
	c-11.301-0.21-22.864-0.889-34.123,0.338c-3.804,0.414-7.055-0.371-10.903-0.529c-5.113-0.209-10.171-0.755-15.238-1.451
	c-3.455-0.474-5.094-0.658-5.869-4.361c-1.951-9.321-0.702-19.185-0.081-28.579c0.344-5.2,0.264-10.415,0.435-15.622
	c0.155-4.744,1.144-9.466,1.179-14.182c0.084-11.308,0.56-22.7,1.473-33.973c0.515-6.359,1.987-12.745,2.045-19.053
	c0.065-7.144,0.29-14.287,0.793-21.413c0.371-5.26,0.72-10.565,0.223-15.834c-0.899-9.509,0.174-18.956-1.259-28.367
	c6.611,0.354,13.239,0.544,19.766,0.36c6.079-0.171,11.999-0.428,18.069-0.431c3.208-0.003,6.047-0.384,8.846-0.952
	c2.366,0.086,4.721,0.128,7.014,0.183c7.948,0.193,15.815,0.261,23.844,0.186c6.097-0.056,12.434-0.93,18.647-1.106
	c3.913,0.954,7.661,1.685,12.116,1.688c6.071,0.004,11.99,0.26,18.068,0.431c6.527,0.184,13.157-0.006,19.766-0.36
	c-1.433,9.411-0.36,18.858-1.259,28.367c-0.498,5.27-0.149,10.575,0.223,15.834c0.075,1.066,0.189,2.326,0.296,3.668
	c-0.514,6.725-0.453,13.596-0.393,20.038c0.105,11.413-0.065,22.887,0.87,34.259c0.952,11.571,0.804,23.213,1.77,34.777
	c0.433,5.178,0.8,10.289,1.016,15.489c0.163,3.929,0.567,7.826,0.914,11.721C171.836,448.243,171.92,451.296,171.756,454.065z
	 M317.597,334.661c4.098-3.644,7.645-8.095,10.715-12.729c-0.08,1.509-0.079,3.042-0.055,4.577
	c-1.597,20.639-2.666,41.535-3.486,62.203c-0.395,9.986-0.239,19.894-0.319,29.884c-0.046,5.753-0.404,11.478-0.465,17.219
	c-0.015,1.408-0.13,2.915-0.104,4.391c-1.044-1.737-2.046-3.504-3.068-5.254c-0.725-1.243-3.355-4.313-3.328-5.702
	C318.128,397.713,319.47,366.196,317.597,334.661z M307.358,395.435c0.001-6.121,0.381-12.194,0.356-18.305
	c-0.048-11.63,0.587-23.731-1.041-35.348c2.075-0.923,4.076-2.067,6.129-3.417c0.75-0.493,1.478-1.023,2.197-1.57
	c-0.787,17.45,0.113,34.837-0.09,52.303c-0.103,8.751-0.694,17.459-1.133,26.202c-0.115,2.289-0.285,4.616-0.399,6.942
	c-0.104-0.175-0.205-0.353-0.31-0.528c-2.052-3.454-4.277-6.887-6.562-10.273C307.665,406.444,307.356,400.563,307.358,395.435z
	 M298.695,344.036c1.756-0.223,3.382-0.603,4.942-1.098c-0.128,4.216,0.356,8.412,0.57,12.686c0.359,7.144-0.063,14.357-0.08,21.506
	c-0.016,6.266-0.134,12.643-0.46,18.901c-0.18,3.448-0.64,6.971-0.564,10.459c-0.664-0.948-1.327-1.901-1.991-2.836
	c-1.293-1.822-2.481-3.682-3.656-5.55c1.842-8.318,0.336-17.974,0.825-26.493c0.296-5.154-0.055-10.38-0.12-15.535
	c-0.004-0.349-0.504-8.474-0.785-11.863C297.819,344.151,298.264,344.089,298.695,344.036z M288.837,349.556
	c0.07-0.922-0.003-4.796,0.644-5.291c0.767-0.587,1.109-0.02,2.613,0.171c0.869,0.111,1.775,0.094,2.681,0.036
	c-1.587,8.278,0.141,17.668-0.319,25.946c-0.376,6.766-1.368,14.449-0.914,21.582c-0.111-0.168-0.216-0.336-0.33-0.503
	c-1.226-1.8-3.212-3.519-3.758-5.64c-0.608-2.357-0.35-5.061-0.024-7.44c0.386-2.815-0.351-5.864-0.523-8.693
	C288.506,363.109,288.332,356.174,288.837,349.556z M219.904,344.437c1.503-0.193,1.846-0.759,2.613-0.171
	c0.647,0.495,0.574,4.37,0.644,5.291c0.504,6.618,0.331,13.553-0.07,20.168c-0.188,3.105-0.705,6.322-0.622,9.43
	c0.031,1.158,0.562,2.102,0.528,3.278c-0.043,1.488-0.27,3.509-1.028,4.794c-0.892,1.516-2.191,2.816-3.183,4.272
	c-0.114,0.166-0.218,0.336-0.33,0.503c0.454-7.134-0.538-14.816-0.914-21.582c-0.46-8.278,1.267-17.668-0.319-25.946
	C218.129,344.531,219.034,344.547,219.904,344.437z M207.79,355.623c0.214-4.273,0.698-8.469,0.57-12.686
	c1.561,0.495,3.185,0.875,4.942,1.098c0.429,0.055,0.874,0.115,1.321,0.174c-0.283,3.389-0.782,11.516-0.785,11.863
	c-0.065,5.156-0.416,10.381-0.12,15.535c0.489,8.519-1.017,18.175,0.825,26.493c-1.174,1.867-2.362,3.728-3.656,5.55
	c-0.664,0.935-1.327,1.887-1.991,2.836c0.076-3.488-0.385-7.011-0.564-10.459c-0.325-6.258-0.443-12.635-0.46-18.901
	C207.853,369.98,207.431,362.768,207.79,355.623z M199.194,338.365c2.054,1.349,4.055,2.494,6.129,3.417
	c-1.627,11.616-0.993,23.717-1.041,35.348c-0.025,6.112,0.354,12.185,0.356,18.305c0.001,5.128-0.309,11.009,0.852,16.006
	c-2.284,3.385-4.509,6.818-6.562,10.273c-0.104,0.175-0.206,0.353-0.31,0.528c-0.114-2.325-0.285-4.654-0.399-6.942
	c-0.439-8.743-1.032-17.451-1.133-26.202c-0.203-17.465,0.697-34.853-0.09-52.303C197.715,337.342,198.444,337.873,199.194,338.365z
	 M194.4,334.661c-1.873,31.535-0.53,63.05,0.109,94.588c0.028,1.388-2.603,4.458-3.328,5.702c-1.022,1.75-2.024,3.517-3.068,5.254
	c0.028-1.476-0.088-2.983-0.104-4.391c-0.061-5.739-0.42-11.466-0.465-17.219c-0.08-9.99,0.076-19.898-0.319-29.884
	c-0.819-20.668-1.888-41.565-3.486-62.203c0.024-1.536,0.025-3.068-0.055-4.577C186.754,326.567,190.3,331.017,194.4,334.661z
	 M181.619,449.696c-3.324,2.192-2.973-6.328-3.068-8.342c-0.175-3.744,0.143-7.471-0.223-11.207c-0.28-2.86-0.365-5.772-0.378-8.696
	c-0.019-4.347,0.125-8.723,0.028-13.003c-0.18-7.999-0.281-16.004-0.885-23.986c-0.834-11.008-1.201-22.099-1.259-33.142
	c-0.029-5.265,0.033-10.803-0.149-16.331c-0.008-0.634-0.015-1.261-0.015-1.872c0-5.329-0.141-10.893-0.725-16.191
	c-0.178-1.615-1.051-3.532-0.878-5.129c0.718-6.636,4.396,1.391,5.326,3.064c0.423,0.762,0.864,1.528,1.313,2.294
	c0.693,1.184-0.687,6.248-0.802,7.746c-0.213,2.776-0.502,5.642-0.413,8.428c0.291,9.086-0.273,18.172,0.522,27.234
	c0.779,8.889,1.698,17.783,2.202,26.677c0.523,9.208,0.977,18.229,0.588,27.471c-0.233,5.535-0.145,11.197,0.121,16.727
	c0.206,4.287,2.989,14.082-0.484,17.564C182.143,449.302,181.871,449.53,181.619,449.696z M215.059,457.798
	c-1.7,0.12-3.362,0.184-4.97,0.134c0.434-0.026-0.429-0.229-0.743-0.238c-1.736-0.045-3.404-0.28-5.16-0.261
	c-3.104,0.033-6.163,0.033-9.268-0.084c-3.457-0.129-7.565-0.682-11.271-0.17c2.489-3.454,4.522-7.45,6.721-10.905
	c4.752-7.469,9.356-15.058,14.018-22.588c4.13-6.67,9.212-12.765,13.407-19.407c2.416-3.827,4.462-8.494,6.527-12.549
	c0.625-1.228,1.406-2.703,1.912-4.193c2.915-1.203,5.932-0.488,9.21-0.119c4.92,0.554,6.429-0.942,4.27,4.906
	c-2.748,7.442-5.364,14.902-8.014,22.334c-3.147,8.822-6.485,17.44-10.346,25.973C219.022,445.773,215.854,451.955,215.059,457.798z
	 M280.764,457.55c-3.104-0.495-6.234-0.842-9.454-0.774c-10.244,0.214-20.355,0.214-30.625,0c-3.218-0.068-6.348,0.279-9.454,0.774
	c-3.018-0.574-6.208-0.521-9.408-0.301c2.905-9.31,6.822-18.22,10.01-27.476c3.884-11.279,7.049-22.493,11.607-33.532
	c1.032-2.497,2.691-6.04,3.073-9.013c0.975,1.588,18.868-0.775,18.968,0c0.381,2.973,2.041,6.517,3.073,9.013
	c4.559,11.041,7.723,22.254,11.607,33.532c3.188,9.257,7.105,18.167,10.01,27.476C286.972,457.029,283.781,456.976,280.764,457.55z
	 M317.079,457.35c-3.105,0.115-6.164,0.116-9.268,0.084c-1.756-0.019-3.424,0.216-5.16,0.261c-0.314,0.009-1.177,0.21-0.743,0.238
	c-1.608,0.05-3.27-0.014-4.97-0.134c-0.795-5.843-3.963-12.025-6.292-17.17c-3.862-8.533-7.201-17.151-10.346-25.973
	c-2.65-7.431-5.266-14.891-8.014-22.334c-2.159-5.847-0.65-4.352,4.271-4.906c3.279-0.369,6.294-1.084,9.21,0.119
	c0.507,1.491,1.287,2.965,1.912,4.193c2.065,4.056,4.111,8.723,6.527,12.549c4.195,6.642,9.276,12.739,13.407,19.407
	c4.662,7.53,9.266,15.119,14.018,22.588c2.199,3.455,4.232,7.451,6.721,10.905C324.645,456.669,320.535,457.221,317.079,457.35z
	 M337.051,316.929c-0.584,5.296-0.725,10.862-0.725,16.191c0,0.613-0.008,1.238-0.015,1.872c-0.181,5.528-0.119,11.064-0.149,16.331
	c-0.06,11.042-0.426,22.134-1.259,33.142c-0.604,7.982-0.707,15.987-0.885,23.986c-0.096,4.28,0.046,8.656,0.028,13.003
	c-0.013,2.925-0.098,5.835-0.378,8.696c-0.365,3.736-0.048,7.463-0.223,11.207c-0.094,2.013,0.256,10.534-3.068,8.342
	c-0.251-0.166-0.524-0.393-0.82-0.689c-3.472-3.482-0.689-13.277-0.484-17.564c0.265-5.532,0.354-11.193,0.121-16.727
	c-0.389-9.242,0.065-18.264,0.588-27.471c0.504-8.894,1.424-17.788,2.202-26.677c0.793-9.062,0.23-18.148,0.522-27.234
	c0.089-2.785-0.2-5.652-0.413-8.428c-0.115-1.498-1.495-6.562-0.802-7.746c0.448-0.765,0.889-1.532,1.313-2.294
	c0.93-1.673,4.609-9.7,5.326-3.064C338.102,313.398,337.229,315.315,337.051,316.929z M450.732,92.343
	c-2.151,3.997-3.35,9.616-6.441,12.934c-1.128,1.211-2.89,1.952-4.836,2.435c0.26-2.548,0.13-5.308,0.289-7.644
	c0.201-2.958,0.378-6.353-0.074-9.474c3.453-0.518,6.867-1.423,10.289-2.056c1.091-0.201,2.134-0.395,3.132-0.644
	C452.366,89.559,451.374,91.152,450.732,92.343z M383.542,79.015c9.561-7.906,18.767-15.81,25.813-25.559
	c0.203-0.235,0.405-0.483,0.608-0.76c1.573-2.146,3.528-3.938,5.005-6.182c0.759-1.154,0.803-2.576,2.029-2.049
	c0.569,0.245,1.482,2.171,1.887,2.751c0.361,0.519,0.764,1.004,1.178,1.479c7.312,12.017,17.905,21.166,28.975,30.319
	c1.138,0.942,3.412,1.827,4.323,3.065c-6.005,1.331-12.04,2.93-18.185,3.522c-3.824,0.368-7.673,0.201-11.487,0.179
	c-1.542-0.009-3.232,0.158-4.91,0.245c-0.14-0.12-0.33-0.19-0.562-0.149c-0.618,0.11-1.267,0.16-1.927,0.184
	c-0.66-0.024-1.308-0.074-1.926-0.184c-0.231-0.041-0.421,0.029-0.562,0.149c-1.678-0.088-3.369-0.255-4.91-0.245
	c-3.814,0.023-7.663,0.19-11.487-0.179c-6.146-0.592-12.18-2.191-18.185-3.522C380.132,80.842,382.404,79.957,383.542,79.015z
	 M435.922,108.336c-1.748,0.211-3.444,0.316-4.794,0.441c-1.306,0.121-2.608,0.218-3.907,0.316c0.181-2.851-0.206-5.835-0.243-8.626
	c-0.045-3.394-0.129-6.785-0.492-10.156c3.368,0.489,6.843,0.835,10.21,0.614c-0.328,3.172,0.02,6.482-0.266,9.626
	C436.202,103.058,435.713,105.765,435.922,108.336z M424.113,109.346c-0.83,0.075-1.661,0.159-2.489,0.258
	c-0.972-0.01-1.943-0.013-2.915,0.046c-0.992,0.059-1.982,0.048-2.971,0.024c0.96-2.414,0.383-5.903,0.229-8.228
	c-0.155-2.335-0.663-4.574-0.775-6.93c-0.055-1.162,0.145-2.33,0.01-3.454c3.019-0.213,6.078-0.378,9.107-0.703
	C423.999,95.401,423.575,106.435,424.113,109.346z M412.045,97.703c0.151,2.266,0.35,4.382,0.358,6.671
	c0.004,1.356,0.428,3.222-0.136,4.468c-0.114,0.251-0.156,0.512-0.153,0.767c-0.359,0.001-0.718-0.006-1.076,0.007
	c-2.259-0.275-4.531-0.433-6.815-0.609c0.018-0.069,0.038-0.138,0.048-0.209c0.725-5.755-1.427-11.697-0.719-17.485
	c3.127,0.33,6.359,0.16,9.405-0.084C412.175,93.323,411.873,95.112,412.045,97.703z M400.072,98.206
	c0.01,3.479,0.098,7.051,0.614,10.504c-2.284-0.189-5.274-0.384-7.879-1.079c0.328-2.996-0.479-6.267-0.534-9.29
	c-0.048-2.553,0.053-5.293-0.318-7.893c1.101,0.186,2.204,0.34,3.312,0.438c1.843,0.161,3.726,0.135,5.612,0.009l0.008,0.001
	C399.907,93.179,400.064,95.693,400.072,98.206z M381.848,92.343c-0.642-1.191-1.633-2.784-2.359-4.447
	c0.999,0.249,2.041,0.443,3.132,0.644c1.985,0.368,3.968,0.828,5.957,1.252c-0.495,2.791-0.376,5.778-0.42,8.551
	c-0.039,2.445,0.01,4.727,0.253,7.05c-0.039-0.039-0.084-0.074-0.121-0.114C385.198,101.959,383.999,96.34,381.848,92.343z
	 M386.656,121.146c-0.443-2.576-0.454-6.542,0.594-6.966c0.445-0.18,1.955,0.149,2.716-0.025c0.565-0.129,1.159-0.339,1.76-0.584
	c1.795,0.149,3.581,0.218,5.251,0.375c3.419,0.323,6.906,0.371,10.369,0.114c3.502,0.823,7.59,0.34,11.007,0.114
	c1.534-0.103,3.064-0.198,4.582-0.331c4.212,0.489,8.491,0.499,12.668,0.104c1.671-0.158,3.458-0.226,5.251-0.375
	c0.6,0.245,1.194,0.456,1.76,0.584c0.762,0.173,2.271-0.156,2.716,0.025c1.048,0.424,1.036,4.391,0.594,6.966
	c-8.916,2.075-18.288-0.068-27.374,0.737c-0.709,0.024-1.426,0.046-2.125,0.066c-0.416,0.013-0.834,0.039-1.252,0.055
	C405.732,120.895,395.947,123.308,386.656,121.146z M342.009,248.957c1.458-4.097,3.039-8.225,4.59-12.267
	c2.744-7.154,6.737-14.198,9.983-21.189c6.817-14.691,13.729-29.327,20.038-44.247c3.259-7.708,6.117-15.603,8.819-23.527
	c1.53-4.481,2.81-8.963,4.547-13.377c0.78-1.982,1.803-4.272,2.257-6.543c1.382,0.031,2.649,0.041,3.622,0.124
	c2.132,0.181,4.31,0.091,6.496-0.149c4.695,1.197,10.539-0.59,15.071-0.929c1.853-0.139,3.729-0.238,5.602-0.363
	c4.545,1.089,9.211,1.821,13.684,1.441c0.972-0.083,2.24-0.093,3.622-0.124c0.453,2.271,1.477,4.561,2.257,6.543
	c1.737,4.413,3.019,8.896,4.547,13.377c2.703,7.924,5.56,15.819,8.819,23.527c6.308,14.92,13.222,29.555,20.039,44.247
	c3.244,6.991,7.237,14.036,9.981,21.189c1.551,4.042,3.132,8.17,4.589,12.267c0.552,1.551,1.875,3.469,0.286,4.942
	c-0.588,0.544-7.031,0.824-6.721,0.805c-9.444,0.545-18.826,0.663-28.294,0.807c-5.549,0.085-11.716,0.196-17.479,1.068
	c-6.577-0.046-13.195-0.263-19.681,0.321c-6.592,0.594-13.534,0.709-20.325,0.477c-6.851-1.611-14.71-1.762-21.618-1.867
	c-9.47-0.144-18.851-0.261-28.296-0.807c0.31,0.018-6.133-0.261-6.721-0.805C340.134,252.426,341.457,250.507,342.009,248.957z
	 M397.249,464.79c-4.012,0.075-7.753-0.738-11.761-0.708c-5.021,0.036-10.061-0.069-15.063,0.477
	c-2.95,0.321-5.572-0.078-8.393-0.346c-0.193-19.684-0.475-39.289-0.463-58.953c0.005-9.412,0.539-20.381,4.041-29.206
	c3.748-9.445,16.723-13.941,25.549-8.533c8.035,4.922,11.393,16.347,13.703,24.817c2.26,8.285,2.98,16.318,3.636,24.821
	c0.63,8.183,0.444,16.688,0.299,24.903c-0.131,7.405-1.143,15.28,0.84,22.5C405.508,464.636,401.379,464.713,397.249,464.79z
	 M494.245,429.637c0.62,9.395,1.87,19.258-0.081,28.579c-0.775,3.704-2.414,3.887-5.869,4.361
	c-5.066,0.695-10.125,1.243-15.238,1.451c-3.848,0.156-7.1,0.943-10.903,0.529c-11.259-1.227-22.823-0.548-34.123-0.338
	c-4.582,0.085-9.163,0.17-13.746,0.255c1.761-17.075,2.765-34.268,1.727-51.421c-0.944-15.604-3.859-32.095-12.873-45.225
	c-9.113-13.274-26.675-13.512-38.454-3.869c-5.885,4.817-8.183,11.957-9.232,19.386c-1.282,9.082-1.791,18.315-1.767,27.486
	c0.024,9.007-1.234,17.944-1.477,26.941c-0.23,8.542,0.106,17.187,0.118,25.773c-2.973-0.273-5.938-0.63-8.899-1.101
	c-0.321-0.051-0.795-0.105-1.336-0.171c-0.251-0.529-0.524-1.059-0.787-1.656c-0.932-2.124-0.929-4.275-1.064-6.553
	c-0.164-2.769-0.08-5.822-0.455-8.721c0.348-3.893,0.752-7.791,0.914-11.721c0.214-5.2,0.583-10.311,1.016-15.489
	c0.967-11.565,0.818-23.207,1.77-34.778c0.935-11.372,0.765-22.845,0.87-34.258c0.059-6.443,0.12-13.313-0.393-20.038
	c0.108-1.342,0.221-2.603,0.296-3.668c0.371-5.26,0.72-10.565,0.223-15.834c-0.899-9.509,0.174-18.956-1.259-28.367
	c6.61,0.354,13.239,0.544,19.766,0.36c6.078-0.171,11.999-0.428,18.068-0.431c4.455-0.004,8.204-0.734,12.117-1.688
	c6.213,0.175,12.549,1.048,18.647,1.106c8.028,0.075,15.896,0.006,23.845-0.186c2.294-0.055,4.649-0.095,7.014-0.183
	c2.8,0.567,5.638,0.949,8.846,0.952c6.071,0.004,11.99,0.26,18.069,0.431c6.526,0.184,13.155-0.006,19.766-0.36
	c-1.433,9.411-0.36,18.858-1.259,28.367c-0.498,5.27-0.149,10.575,0.223,15.834c0.503,7.127,0.729,14.27,0.793,21.413
	c0.058,6.308,1.53,12.694,2.045,19.053c0.913,11.273,1.388,22.666,1.473,33.973c0.035,4.716,1.024,9.439,1.179,14.182
	C493.981,419.222,493.901,424.436,494.245,429.637z M504.334,272.377c-0.555,0.423-4.325-0.171-5.139-0.126
	c-4.202,0.238-8.35,0.885-12.539,1.218c-9.143,0.728-18.378-0.176-27.516,0.23c-1.117,0.05-2.227,0.134-3.337,0.234
	c-2.549-0.236-5.24-0.034-7.723-0.105c-4.759-0.136-9.625,0.12-14.38,0.293c-8.144,0.295-16.801,0.42-24.996-0.264
	c-8.484-0.709-17.16-1.077-25.619-0.471c-4.641,0.333-8.771-0.391-12.534,0.233c-8.194-0.146-16.447,0.503-24.629-0.149
	c-4.19-0.333-8.337-0.982-12.539-1.218c-0.813-0.046-4.584,0.549-5.139,0.126c-0.925-0.705-0.133-4.086-0.176-5.21
	c-0.12-3.132-0.759-2.669,1.923-3.696c2.013-0.77,4.84-0.525,6.965-0.592c1.825-0.058,3.576-0.25,5.301-0.496
	c9.877,1.149,20.045,0.925,30,0.875c4.707-0.023,9.295,0.209,13.828,0.068c9.276,0.461,18.512,0.488,27.813,0.49
	c8.889,0.003,18.208-0.291,27.129-0.887c6.318,0.77,12.685,0.296,19.29,0.329c9.955,0.049,20.123,0.273,30-0.875
	c1.726,0.246,3.477,0.44,5.301,0.496c2.125,0.066,4.952-0.178,6.965,0.592c2.684,1.027,2.044,0.564,1.923,3.696
	C504.468,268.291,505.261,271.673,504.334,272.377z"/>
<path d="M470.461,357.086c-11.501-11.106-26.655-9.267-37.954,1.021c-5.497,5.004-7.309,14.696-8.032,21.783
	c-0.855,8.387-0.449,17.51,0.369,25.882c0.76,7.771,6.349,7.644,12.978,8.762c5.416,0.914,10.859,0.87,16.331,0.747
	c4.566-0.104,9.217,0.604,13.752,0.339c5.687-0.331,11.376-1.147,11.907-7.756c0.288-3.589,0.512-7.251,0.484-10.903
	c0.414-4.56,0.795-9.312,0.492-13.781C480.131,373.528,477.569,363.949,470.461,357.086z M473.459,393.794
	c-0.174,1.845-0.339,3.699-0.573,5.573c-0.225,1.801-0.386,4.507-1.111,6.557c-0.271,0.128-0.753,0.338-1.374,0.315
	c-0.814-0.029-1.69,0.264-2.506,0.316c-6.381,0.408-13.187-0.166-19.619-0.235c-3.537-0.038-6.783-0.565-10.243-1.128
	c-1.352-0.22-3.07-0.125-4.535-0.443c-0.425-3.073-0.136-6.291-0.368-9.343c-0.438-5.757-1.162-11.628-0.484-17.405
	c0.607-5.178,2.032-12.006,6.029-15.499c3.275-2.864,7.46-5.598,11.897-5.96c13.2-1.079,20.364,10.669,22.459,22.032
	C473.961,383.616,473.724,388.703,473.459,393.794z"/>
<path d="M79.488,358.106c-11.299-10.288-26.452-12.127-37.954-1.021c-7.109,6.865-9.669,16.443-10.326,26.094
	c-0.304,4.468,0.078,9.221,0.491,13.781c-0.028,3.652,0.196,7.314,0.484,10.903c0.532,6.608,6.221,7.425,11.907,7.756
	c4.534,0.264,9.185-0.443,13.752-0.339c5.472,0.124,10.914,0.168,16.331-0.747c6.628-1.119,12.217-0.99,12.978-8.762
	c0.818-8.37,1.226-17.495,0.369-25.882C86.797,372.803,84.985,363.11,79.488,358.106z M78.865,395.406
	c-0.231,3.053,0.056,6.269-0.368,9.343c-1.464,0.318-3.184,0.223-4.535,0.443c-3.459,0.563-6.706,1.091-10.243,1.128
	c-6.432,0.069-13.237,0.643-19.619,0.235c-0.817-0.053-1.692-0.345-2.506-0.316c-0.622,0.023-1.102-0.188-1.374-0.315
	c-0.724-2.05-0.885-4.756-1.111-6.557c-0.234-1.872-0.399-3.728-0.573-5.573c-0.265-5.091-0.502-10.179,0.428-15.219
	c2.095-11.363,9.258-23.112,22.459-22.032c4.437,0.363,8.622,3.097,11.897,5.96c3.996,3.493,5.421,10.321,6.029,15.499
	C80.027,383.779,79.303,389.651,78.865,395.406z"/>
<g>
</g>
<g>
</g>
<g>
</g>
<g>
</g>
<g>
</g>
<g>
</g>
<g>
</g>
<g>
</g>
<g>
</g>
<g>
</g>
<g>
</g>
<g>
</g>
<g>
</g>
<g>
</g>
<g>
</g>
</svg>
