<?xml version="1.0" encoding="iso-8859-1"?>
<!-- Generator: Adobe Illustrator 19.0.0, SVG Export Plug-In . SVG Version: 6.00 Build 0)  -->
<svg version="1.1" id="Layer_1" xmlns="http://www.w3.org/2000/svg" xmlns:xlink="http://www.w3.org/1999/xlink" x="0px" y="0px"
	 viewBox="0 0 511.999 511.999" style="enable-background:new 0 0 511.999 511.999;" xml:space="preserve">
<g>
	<path style="fill:#DCEFE3;" d="M362.676,64.128c-0.924-0.521-0.639-4.067-0.618-5.109c0.049-2.389,0.144-5.155,1.077-7.363
		c1.666-3.935,4.972-6.098,8.411-8.257c1.021-0.641,1.212-0.547,1.17-1.628c-0.047-1.2-0.833-2.303-1.3-3.358
		c-1.147-2.588-1.634-7.05-0.021-9.492c1.688-2.554,5.056-2.414,7.446-0.989c3.365,2.007,4.126,5.812,1.919,9.129
		c-0.889,1.335-3.468,2.001-2.262,3.593c1.28,1.692,4.138,2.699,5.765,4.102c4.472,3.853,6.905,9.764,6.228,15.583
		c-0.097,0.83-0.174,3.455-0.799,4.018c-0.513,0.461-1.182-0.173-1.863,0.556c-1.03,1.101-0.402,3.354-1.301,4.621
		c-1.339,1.883-5.298,1.657-7.252,1.6c-3.173-0.092-6.295-0.606-9.479-0.6c-1.322,0.002-2.511,0.32-3.333-0.819
		c-1.014-1.403-0.826-3.389-1.594-4.86C364.152,63.485,363.343,63.811,362.676,64.128z"/>
	<path style="fill:#DCEFE3;" d="M374.749,6.471c-2.093,1.713-2.919,3.894-2.712,6.596c0.119,1.551,0.823,4.361,2.336,5.207
		c4.485,2.509,5.191-6.003,4.691-8.439C378.474,6.964,376.292,5.293,374.749,6.471z"/>
</g>
<g>
	<path style="fill:#ABC9B5;" d="M362.306,63.759c-0.52-0.728-0.313-2.156-0.363-3.074c-0.112-2.074-0.22-4.007,0.357-6.042
		c0.946-3.337,2.087-6.121,4.807-8.411c1.597-1.344,3.159-2.245,4.959-3.192c1.614-0.849,1.24-2.019,0.121-3.274
		c-1.339-1.5-1.184-3.301-1.383-5.189c-0.231-2.203-0.343-4.399,0.755-6.444c0.812-1.514,2.636-2.301,3.906-0.75
		c1.108,1.354-0.008,3.382,0.649,4.951c0.269,0.641,0.797,1.154,1.084,1.743c0.249,0.508,0.204,0.917,0.605,1.423
		c0.697,0.881,1.866,1.277,1.626,2.634c-0.328,1.85-3.573,1.652-3.372,3.627c0.128,1.266,1.863,1.446,2.589,2.257
		c1.326,1.479,0.042,3.774-0.552,5.351c-0.932,2.469-1.903,4.987-0.985,7.621c1.347,3.864,5.368,4.107,8.225,6.267
		c1.965,1.486,2.595,4.716,0.495,6.432c-2.432,1.987-7.308,0.851-10.182,0.849c-2.915-0.002-7.231,1.04-9.16-1.838
		c-0.766-1.143-1.221-2.529-1.746-3.762C364.061,63.332,363.329,63.779,362.306,63.759z"/>
	<path style="fill:#ABC9B5;" d="M379.431,14.356c-1.133,1.261-2.936-0.623-3.455-1.688c-0.729-1.495,0.11-4.125-2.028-4.415
		c-5.533-0.748,0.43,15.559,3.757,8.443C379.19,16.184,378.908,15.761,379.431,14.356z"/>
</g>
<path style="fill:#EAC892;" d="M12.419,506.019c-2.575-11.493-1.267-21.994,0.929-32.33c9.677-8.218,21.789-1.009,32.646-6.605
	c4.547-16.641-3.171-34.959,3.878-52.948c0.512-1.307,12.948-2.556,14.711-2.904c3.645-0.719,10.158,0.332,13.101-1.968
	c1.32-1.03,2.019-2.697,2.231-4.358c0.394-3.101,1.552-6.717,1.473-9.812c-0.06-2.35-1.176-4.503-0.988-7.002
	c0.363-4.841,3.484-9.635,8.165-11.266c-1.84-6.118,2.41-12.298,6.768-16.969c12.184-13.058,26.312-28.985,45.709-26.414
	c9.57,1.268,18.268-0.694,24.875-9.205c5.669-7.303,14.169-8.837,23.137-8.593c22.532,0.613,45.07,0.941,67.603,1.516
	c18.65,0.475,37.294,1.341,55.947,1.618c6.947,0.104,16.714,3.326,21.692-3.128c3.849-4.988,0.765-9.28,0.967-14.534
	c0.99-25.636,1.538-51.292,2.762-76.915c0.59-12.343,2.984-24.609,3.374-36.948c0.328-10.373-0.148-20.745-0.467-31.111
	c-0.305-9.892-2.438-19.549-2.104-29.524c0.035-1.027,0.093-2.085,0.537-3.012c0.444-0.926,1.369-1.698,2.394-1.649
	c0.93,0.044,1.696,0.719,2.348,1.384c2.387,2.435,4.379,5.258,5.873,8.324c0.561,1.149,1.342,2.528,2.62,2.49
	c1.278-0.039,1.984-1.474,2.332-2.704c1.484-5.243,0.799-9.877,0.724-15.165c-0.075-5.291,0.128-10.649-0.111-15.999
	c-0.223-4.986-0.576-10.001-0.503-14.996c0.072-4.962-1.687-10.125-0.495-15.02c0.925-3.798,4.197-7.331,8.103-7.177
	c-2.533-5.987-0.436-13.587,4.81-17.426c1.944-1.421,4.469-2.685,4.848-5.062c0.363-2.273-1.487-4.268-2.018-6.507
	c-0.896-3.775,2.977-7.811,6.786-7.073c3.809,0.739,5.891,5.931,3.649,9.097c-0.753,1.064-1.899,1.952-2.107,3.239
	c-0.398,2.459,2.612,3.833,4.8,5.025c7.009,3.815,6.606,10.965,6.767,17.876c0.014,0.582,0.037,1.198,0.357,1.685
	c0.554,0.843,1.741,0.953,2.742,0.835c1.001-0.119,2.063-0.37,2.982,0.043c1.508,0.68,1.765,2.675,1.808,4.329
	c0.256,9.706,1.854,18.795,1.556,28.514c-0.359,11.66-2.428,23.813-0.945,35.355c0.085,0.662,0.189,1.348,0.552,1.908
	s1.059,0.962,1.702,0.777c0.592-0.172,0.947-0.758,1.246-1.298c1.682-3.033,3.364-6.068,5.046-9.101
	c0.635-1.147,1.476-2.433,2.784-2.537c0.941-0.075,1.833,0.542,2.339,1.339s0.697,1.75,0.841,2.683
	c0.649,4.206,0.773,8.401,0.931,12.643c0.16,4.32-0.541,6.575-1.834,10.709c-0.748,2.391-0.63,4.955-0.503,7.456
	c0.348,6.906,0.673,13.814,0.993,20.722c0.227,4.896,2.494,14.107,0.287,18.594c-0.618,1.257-1.583,2.331-2.087,3.637
	c-0.506,1.306-0.38,3.043,0.808,3.784c0.708,0.442,1.627,0.427,2.342,0.856c1.094,0.656,1.372,2.095,1.502,3.365
	c0.887,8.669-0.557,17.145-0.025,25.881c0.624,10.221,1.341,20.437,2.21,30.641c3.115,36.543,2.07,73.047,0.955,109.574
	c-0.306,10.026-1.153,19.949-2.12,29.928c-0.1,1.042-0.174,2.193,0.453,3.033c0.62,0.83,1.724,1.087,2.675,1.502
	c7.366,3.21,6.48,16.747,5.237,23.022c-0.66,3.331-0.858,7.258,1.574,9.625c2.085,2.029,5.318,2.133,8.226,2.113
	c6.006-0.041,12.012-0.082,18.016-0.124c3.351-0.023,6.928,0.019,9.716,1.879c3.625,2.42,4.832,7.249,4.674,11.605
	c-0.159,4.357-1.376,8.638-1.346,12.999c9.156,0.161,18.313,0.322,27.469,0.484c1.973,0.035,4.027,0.089,5.78,0.994
	c2.869,1.481,3.616,5.859,3.522,8.795c-0.246,7.612-1.333,15.196-2.177,24.084c-7.188,0.849-13.108,2.126-19.037,2.162
	c-83.198,0.509-166.397,0.933-249.596,1.198c-47.437,0.152-94.876-0.005-142.312-0.055c-22.551-0.025-45.104-0.069-67.656-0.262
	C18.934,507.625,15.999,506.663,12.419,506.019z"/>
<path style="fill:#D3AF79;" d="M79.374,406.8c0-4.931,0.213-9.817,0.34-14.718c0.077-2.977-0.8-6.997,0.839-9.673
	c1.736-2.835,3.658-2.676,6.38-1.656c2.517,0.943,4.615,2.657,7.053,3.731c4.255,1.872,8.939,2.213,13.407,3.273
	c26.425,6.269,54.213,4.927,81.214,6.674c31.598,2.045,63.307,2.675,94.941,3.847c12.559,0.465,40.51,5.847,46.121-9.756
	c1.126-3.131,1.479-9.271,6.353-8.345c5.084,0.966,2.779,9.794,2.447,13.504c-0.262,2.927,0.312,11.582-2.115,13.66
	c-1.2,1.028-2.183-0.151-3.655,0.197c-3.123,0.738-4.492,2.999-6.515,5.252c-5.487,6.112-16.281,0.955-23.444,0.213
	c-17.029-1.764-34.596-2.004-51.707-2.62c-41.372-1.487-83.875-4.272-125.179-0.521c-12.774,1.161-25.484,1.372-38.309,1.374
	c-1.612,0-6.585,0.937-7.851,0.054C77.942,410.065,79.089,408.252,79.374,406.8z"/>
<g>
	<path style="fill:#5B4B36;" d="M102.562,408.844c0.121-3.613-1.47-8.727,0.419-12.095c1.282-2.286,6.015-3.742,8.571-3.698
		c5.805,0.102,8.376,15.458,2.796,16.886C110.513,410.918,105.951,410.136,102.562,408.844z"/>
	<path style="fill:#5B4B36;" d="M150.428,408.844c-1.703-2.446-0.793-9.595,0.716-12.216c1.823-3.169,4.177-4.287,7.667-3.364
		c3.242,0.857,4.708,1.953,5.003,5.337c0.179,2.05,1.649,9.012-0.083,10.681c-1.033,0.994-4.664,0.283-6.006,0.171
		C154.858,409.212,152.323,409.906,150.428,408.844z"/>
	<path style="fill:#5B4B36;" d="M198.538,408.844c-1.565-5.683-0.352-13.442,6.014-15.064c3.329-0.848,6-0.662,7.41,2.684
		c1.058,2.512,2.028,7.767,0.493,10.247C209.524,411.443,200.696,408.186,198.538,408.844z"/>
	<path style="fill:#5B4B36;" d="M248.348,410.059c0-4.793-2.136-13.344,3.523-15.674c1.821-0.75,6.319-1.097,8.139-0.125
		c3.201,1.709,2.737,8.641,2.431,11.64c-0.223,2.182,0.387,4.074-1.641,4.651C256.626,411.738,251.947,407.518,248.348,410.059z"/>
</g>
<path style="fill:#D3AF79;" d="M387.98,204.027c-14.309,21.053-16.212,54.411-16.936,78.848c-0.498,16.804-1.755,34.38,2.04,50.859
	c3.094,13.432,8.289,26.272,14.782,38.415c2.624,4.908,6.444,9.142,8.748,14.202c2.134,4.686,4.281,7.555,8.765,10.553
	c2.667,1.782,10.964,5.729,7.227,9.384c-4.01,3.922-14.838,1.617-19.884,2.202c-5.963,0.691-8.747,4.881-5.724,10.539
	c2.04,3.818,5.794,4.319,9.62,5.412c3.739,1.069,25.884,8.445,20.768,15.095c-6.368,8.279-26.446,3.533-34.93,3.176
	c-12.87-0.541-25.782-0.071-38.625-0.683c-4.347-0.208-14.637,2.087-16.64-3.059c-1.278-3.282,0.395-9.164,0.715-12.549
	c0.363-3.831,0.498-7.893,2.488-11.293c1.556-2.658,4.197-3.321,6.043-5.579c2.612-3.194,3.234-7.37,2.552-11.255
	c-0.834-4.756-1.124-9.505-1.286-14.447c-0.345-10.5-0.548-21.007-0.531-31.513c0.028-18.858-2.705-37.64-2.803-56.443
	c-0.103-19.564,1.676-39.158,1.635-58.819c-0.016-8.079,0.85-15.86,1.719-23.826c0.652-5.973,0.227-6.758,5.148-8.603
	C357.012,199.338,374.953,203.941,387.98,204.027z"/>
<g>
	<path style="fill:#5B4B36;" d="M349.183,407.385c-1.214-3.757,0.22-11.522,4.496-12.877c5.704-1.809,8.061,7.504,6.019,11.56
		C358.387,408.667,352.038,409.031,349.183,407.385z"/>
	<path style="fill:#5B4B36;" d="M367.649,410.059c-0.05-7.303-2.702-22.022,7.651-23.802c9.133-1.57,9.629,10.519,9.843,17.108
		c0.07,2.139,0.853,4.693-1.466,5.741C379.617,410.941,373.645,407.263,367.649,410.059z"/>
	<path style="fill:#5B4B36;" d="M393.648,408.358c0-3.429-0.957-8.673,1.264-11.662c1.459-1.963,4.784-2.462,6.707-0.906
		c1.944,1.573,1.898,5.654,1.993,8.005c0.091,2.265,0.176,2.22-1.44,3.158C400.803,407.747,395.246,408.855,393.648,408.358z"/>
	<path style="fill:#5B4B36;" d="M367.163,366.079c-0.901-2.584-0.625-6.909-0.499-9.659c0.103-2.246,0.733-4.454,1.781-6.377
		c1.849-3.396,4.567-6.083,8.685-6.075c3.942,0.008,6.543,1.468,6.987,5.589c0.272,2.529,0.159,5.269,0.277,7.787
		c0.098,2.099,0.457,5.028-0.222,7.034c-0.788,2.331-2.279,2.181-4.909,2.188C375.472,366.577,371.706,366.808,367.163,366.079z"/>
</g>
<path style="fill:#D3AF79;" d="M288.236,468.23c-1.41-5.012-1.961-13.411-0.425-18.529c1.51-5.034,7.382-5.956,12.293-6.724
	c3.047-0.477,5.276,0.224,8.252,1.014c6.875,1.824,13.844,3.427,20.782,5.045c25.94,6.047,53.801,4.216,80.247,6.142
	c11.735,0.855,23.399,2.139,35.142,2.815c5.875,0.338,13.405-0.21,18.941,2.181c6.326,2.731,2.549,8.255-2.651,9.456
	c-12.958,2.991-27.789,0.498-41.031,1.162c-15.092,0.757-30.219-0.007-45.328,0.499c-15.06,0.505-30.118,1.378-45.202,1.378
	C315.582,472.666,300.532,474.722,288.236,468.23z"/>
<g>
	<path style="fill:#5B4B36;" d="M298.401,470.802c0.022-4.792,0.54-14.017,7.291-12.878c2.963,0.5,3.743,2.24,4.433,5.103
		c0.436,1.812,1.488,6.234-0.179,7.402C307.34,472.252,302,468.647,298.401,470.802z"/>
	<path style="fill:#5B4B36;" d="M320.026,471.774c0.026-4.364-0.265-14.013,5.224-15.065c6.29-1.204,6.495,10.515,5.916,14.311
		C328.053,469.959,323.619,471.885,320.026,471.774z"/>
	<path style="fill:#5B4B36;" d="M342.623,471.288c0-4.543-0.427-16.751,7.411-14.551c4.818,1.353,5.205,10.159,4.458,14.218
		C350.807,470.093,346.398,471.515,342.623,471.288z"/>
	<path style="fill:#5B4B36;" d="M366.678,471.531c1.242-4.005,0.015-8.412,2.087-12.362c1.743-3.323,4.195-5.104,7.626-4.101
		c2.658,0.778,5.026,1.232,6.209,3.949c1.071,2.46,2.149,8.259,1.093,10.812C381.829,474.332,372.159,470.187,366.678,471.531z"/>
	<path style="fill:#5B4B36;" d="M398.265,470.316c-0.515-3.703-0.793-10.671,2.911-12.817c2.936-1.702,6.119-0.737,8.136,1.52
		c2.449,2.739,1.877,6.641,1.586,10.186c-0.139,1.69,0.331,1.892-1.02,2.57C407.422,473.006,402.541,471.279,398.265,470.316z"/>
	<path style="fill:#5B4B36;" d="M422.076,471.531c-0.009-3.872-1.673-10.763,1.513-13.788c2.345-2.227,6.299-1.173,7.903,1.167
		c1.615,2.356,1.901,6.123,1.761,9.097c-0.06,1.275,0.125,3.047-0.96,3.78C430.423,473.048,424.908,471.432,422.076,471.531z"/>
	<path style="fill:#5B4B36;" d="M442,471.045c0-5.876-0.534-14.115,7.236-14.281c4.812-0.103,7.018,9.885,5.601,13.758
		C450.689,470.756,445.99,469.123,442,471.045z"/>
</g>
<path style="fill:#D3AF79;" d="M11.46,507.136c-1.444-3.039-3.172-11.704-1.709-14.858c2.898-6.244,16.095-1.264,20.814-0.593
	c20.697,2.941,41.378,2.324,62.213,3.204c24.515,1.035,49.219,3.87,73.774,2.957c27.427-1.02,54.706,0.363,82.072,0.416
	c16.748,0.032,33.464-1.664,50.211-1.713c22.563-0.065,45.139,0.103,67.677,1.268c21.851,1.129,43.826,0.463,65.714,0.091
	c12.279-0.208,24.559-0.396,36.835-0.792c6.131-0.199,12.258-0.472,18.385-0.778c4.896-0.245,16.602-3.847,11.723,5.863
	c-3.265,6.497-13.991,3.282-19.931,3.599c-10.624,0.568-21.205,1.877-31.817,2.606c-19.351,1.33-38.496-0.25-57.785-0.246
	c-24.14,0.004-48.22,0.277-72.353,0.345c-22.036,0.062-44.066-0.555-66.098-0.86c-5.338-0.074-10.772-0.413-16.104-0.155
	c-3.571,0.173-6.798,1.504-10.357,1.656c-10.415,0.444-21.195-0.903-31.619-1.295c-21.735-0.816-43.448-0.536-65.19-0.374
	c-25.948,0.193-52.14-0.933-78.065,0.029c-8.086,0.3-16.182,0.701-24.242,1.013C21.572,508.674,18.613,507.394,11.46,507.136z"/>
<g>
	<path style="fill:#5B4B36;" d="M354.285,507.249c-1.467-4.234-0.765-13.42,5.346-13.855c6.037-0.43,6.936,6.777,5.885,11.181
		C364.379,509.347,358.885,507.36,354.285,507.249z"/>
	<path style="fill:#5B4B36;" d="M373.724,507.735c0.001-5.237-1.556-11.261,4.486-13.486c7.201-2.651,7.473,4.518,7.168,9.734
		c-0.082,1.39,0.338,2.67-0.828,3.539C382.684,508.911,377.017,507.69,373.724,507.735z"/>
	<path style="fill:#5B4B36;" d="M393.537,506.367c-0.158-0.161-0.289-0.34-0.389-0.536c-1.983-3.885,1.562-10.066,5.238-11.227
		c5.936-1.873,7.855,4.691,6.195,9.607C403.489,507.444,395.79,508.671,393.537,506.367z"/>
	<path style="fill:#5B4B36;" d="M413.086,506.278c-0.779-2.051-0.901-6.452-0.054-8.504c0.861-2.086,2.821-2.913,5.034-3.401
		c2.199-0.485,4.304-0.644,5.589,1.214c1.257,1.816,1.04,4.791,0.607,6.925C423.25,507.516,417.75,508.017,413.086,506.278z"/>
	<path style="fill:#5B4B36;" d="M432.524,506.52c0.28-5.411-1.675-10.671,4.981-12.128c6.392-1.399,8.572,4.114,7.168,9.886
		c-0.485,1.99-0.354,1.542-2.435,1.994C438.955,506.985,435.634,507.002,432.524,506.52z"/>
	<path style="fill:#5B4B36;" d="M452.448,506.278c-0.403-4.865-1.111-10.133,4.486-12.034c5.64-1.916,6.982,4.583,6.934,8.821
		C463.799,509.101,458.276,505.334,452.448,506.278z"/>
	<path style="fill:#5B4B36;" d="M473.344,506.035c-0.833-4.99-0.258-10.549,5.589-11.662c5.555-1.058,5.963,6.478,6.28,10.654
		C481.405,505.002,477.618,506.369,473.344,506.035z"/>
</g>
<path style="fill:#D3AF79;" d="M46.953,468.571c0.99-7.225-0.673-16.451-0.682-24.188c-0.006-4.958,0.434-9.899,0.653-14.835
	c0.161-3.631-0.406-7.472,0.537-10.979c2.139-7.95,15.477-6.668,22.055-6.652c8.758,0.022,17.454-1.101,26.18-1.639
	c7.783-0.479,11.957,1.129,18.55,4.842c11.788,6.638,25.648,9.903,38.653,13.081c18.225,4.454,36.653,8.858,55.227,11.63
	c23.381,3.489,46.769,7.759,70.275,10.051c2.913,0.284,7.192,0.148,8.795,3.11c1.368,2.528,0.447,9.969-0.755,12.349
	c-2.546,5.041-11.286,3.576-16.311,3.566c-14.343-0.028-28.604-1.277-42.924-1.37c-16.96-0.112-33.966,0.899-50.931,1.021
	c-18.506,0.133-37.023,0.009-55.554,0.009c-18,0-35.746,1.078-53.685,2.231c-4.712,0.303-10.786,1.002-15.484,0.161
	C49.488,470.593,47.804,468.331,46.953,468.571z"/>
<g>
	<path style="fill:#B27D4D;" d="M60.527,468.859c-1.295-8.113-1.99-16.521,4.739-22.457c2.269-2.002,4.589-3.27,6.044-6.209
		c1.364-2.755,1.856-6.133,4.235-8.241c1.01,7.713,9.968,9.04,13.357,14.805c2.494,4.242,4.247,8.958,4.657,13.849
		c0.161,1.924,0.76,4.194-0.342,5.609c-0.975,1.252-3.766,1.813-5.22,1.926c-4.769,0.373-9.618,0.242-14.398,0.498
		c-2.174,0.117-4.269,0.651-6.461,0.423C64.581,468.794,63.233,468.163,60.527,468.859z"/>
	<path style="fill:#B27D4D;" d="M120.542,466.672c-1.814-6.335,0.167-13.588,4.562-18.169c4.504-4.693,7.859-9.447,9.82-15.581
		c2.572,1.538,2.802,4.226,4.943,6.42c2.377,2.438,5.702,3.864,8.13,6.306c3.408,3.427,4.534,7.584,5.529,12.277
		c1.021,4.818,2.21,8.564-3.455,8.982c-5.073,0.375-10.156-0.297-15.217-0.495c-3.232-0.127-6.545,0.246-9.791,0.26
		C123.878,466.677,122.397,466.455,120.542,466.672z"/>
	<path style="fill:#B27D4D;" d="M176.426,465.943c-0.002-6.577-0.088-14.144,4.744-19.104c4.226-4.338,10.056-7.671,11.528-14.109
		c1.622,5.831,6.778,9.125,11.328,12.803c5.473,4.424,5.25,15.1,4.921,21.605C198.123,466.513,186.998,465.919,176.426,465.943z"/>
</g>
<path style="fill:#D3AF79;" d="M356.938,123.911c0.45-6.746-0.84-13.486-1.128-20.233c-0.342-8.014-0.131-16.184,0.264-24.118
	c0.192-3.85-1.883-10.809,1.433-13.629c3.242-2.759,8.058-2.231,9.998,1.204c1.273,2.253,1.216,4.499,3.045,6.654
	c2.747,3.236,3.93,5.133,4.294,9.634c0.456,5.643,0.854,11.794,2.79,17.182c1.716,4.775,5.116,6.36,9.155,8.698
	c4.443,2.572,9.088,6.412,8.941,11.932c-0.085,3.201-0.086,3.632-2.551,1.537c-2.335-1.984-2.174-3.184-4.892-1.465
	c-1.669,1.056-3.753,4.159-5.094,5.761c-2.829,3.379-7.474,10.369-2.271,13.752c6.728,4.372,14.927,2.28,22.442,2.001
	c2.7-0.1,9.54-0.545,7.326,4.209c-0.957,2.055-4.17,2.697-6.081,2.961c-5.827,0.804-12.475,0.702-18.472,1.023
	c-9.197,0.494-18.154-0.43-27.327-0.513c-5.284-0.048-18.162,1.246-19.725-5.17c-0.733-3.012-0.158-20.881,2.456-22.062
	c3.893-1.759,5.491,7.099,6.74,8.812c2.975,4.074,6.896,1.396,7.864-2.746C356.571,127.526,356.816,125.718,356.938,123.911z"/>
<g>
	<path style="fill:#B27D4D;" d="M225.508,468.373c1.726-17.883,0.256-44.351,24.061-47.388c7.826-0.999,18.744,0.171,24.346,6.58
		c6.105,6.987,5.669,18.225,4.865,26.849c-0.318,3.407-0.477,6.879-1.031,10.246c-0.578,3.506-2.559,3.339-6.075,3.476
		c-8.093,0.314-16.145,0.232-24.231-0.127c-3.5-0.155-6.989-0.174-10.487-0.114C235.03,467.925,229.792,468.811,225.508,468.373z"/>
	<path style="fill:#B27D4D;" d="M366.678,120.674c0.408-6.436,0.569-13.091,0.242-19.681c-0.286-5.769-3.241-14.248,3.789-16.393
		c4.566-1.392,13.691-3.465,16.386,2.169c1.086,2.272,0.513,5.605,0.297,8.023c-0.325,3.636-0.303,7.236-0.303,10.889
		c0,4.339-0.074,8.749-0.486,13.049c-0.304,3.166-2.104,5.88-3.771,8.584c-1.361,2.205-2.758,4.334-4.062,6.557
		c-0.415,0.707-1.017,2.245-1.882,2.37c-2.359,0.341-4.668-6.884-5.38-8.4C370.139,124.926,368.696,122.445,366.678,120.674z"/>
</g>
<g>
	<path style="fill:#5B4B36;" d="M26.268,507.978c0-3.119-0.989-7.901,0.433-10.691c1.281-2.514,4.026-2.293,6.364-2.412
		c2.776-0.141,4.535-0.42,5.547,2.899c0.94,3.087-0.505,6.853-0.474,9.924C34.18,507.913,29.607,508.608,26.268,507.978z"/>
	<path style="fill:#5B4B36;" d="M46.434,507.006c0.25-3.253-1.852-7.258,0.635-10.083c2.608-2.963,6.193-2.118,9.284-2.266
		c0.464,1.635,1.017,2.215,1.245,4.014c0.243,1.925,0.654,4.28,0.065,6.148C55.579,511.449,48.596,505.111,46.434,507.006z"/>
	<path style="fill:#5B4B36;" d="M66.359,507.735c-1.243-6.155-1.522-12.77,6.206-13.829c5.947-0.815,6.013,8.776,4.936,12.814
		C74.122,507.801,70.865,506.467,66.359,507.735z"/>
	<path style="fill:#5B4B36;" d="M84.339,507.978c1.329-5.516-0.498-12.555,7.052-13.795c7.705-1.266,6.023,8.392,5.789,12.786
		C93.529,506.906,88,506.853,84.339,507.978z"/>
	<path style="fill:#5B4B36;" d="M105.235,506.035c-0.412-3.086-1.264-7.101,0.972-9.665c1.712-1.965,5.78-3.169,8.163-2.03
		c3.13,1.496,2.775,5.479,2.549,8.397c-0.176,2.272,0.006,2.546-1.515,3.644C112.619,508.39,108.155,508.018,105.235,506.035z"/>
	<path style="fill:#5B4B36;" d="M124.916,506.52c-0.207-2.834-1.077-6.715,0.717-9.233c1.458-2.046,5.444-3.936,7.908-3.282
		c3.738,0.99,2.76,5.543,2.795,8.527c0.015,1.324,0.589,3.187-0.87,4.09c-0.814,0.505-2.397-0.077-3.301-0.161
		C129.325,506.196,126.972,506.857,124.916,506.52z"/>
	<path style="fill:#5B4B36;" d="M144.596,505.792c1.772-5.081-0.088-9.929,6.561-11.169c2.127-0.397,4.285,0.193,5.713,1.938
		c1.298,1.587,1.766,6.974,0.457,8.616c-0.89,1.114-1.917,0.96-3.114,0.983C150.369,506.235,146.281,506.892,144.596,505.792z"/>
	<path style="fill:#5B4B36;" d="M239.115,468.373c-1.3-3.465-1.077-9.81,0.548-13.175c1.757-3.639,5.408-3.252,5.284-7.52
		c-0.148-5.116,0.573-11.771,6.082-13.82c3.624-1.349,9.095-1.346,11.661,1.956c3.423,4.404,1.451,10.065,0.032,14.76
		c3.801,2.273,5.105,9.197,5.303,13.106c0.255,5.036-1.662,5.062-6.533,4.944c-4.145-0.099-8.169-0.814-12.291-1.113
		C246.123,467.289,241.712,468.513,239.115,468.373z"/>
</g>
<g>
	<path style="fill:#488C60;" d="M331.932,318.456c-3.576,0.37-7.527-0.463-11.143-0.485c-4.514-0.029-9.029,0.012-13.543,0
		c-6.985-0.019-13.95,0.081-20.842,0.244c-3.853,0.091-7.708,0.215-11.561,0.234c-3.488,0.018-7.077,0.667-10.434-0.148
		c-3.43-0.834-6.767-0.827-10.282-1.249c-7.6-0.911-15.434-1.128-23.081-1.27c-9.428-0.174-18.838-1.047-28.272-0.899
		c-4.263,0.067-8.274,0.578-12.423,1.258c-4.142,0.679-8.367-0.59-12.576,0.348c-8.775,1.955-13.718,11.015-21.256,15.092
		c-5.734,3.1-11.339,3.287-17.673,3.155c-5.546-0.116-10.789-1.435-16.084,0.98c-6.68,3.046-12.14,9.833-17.901,14.349
		c-5.013,3.929-10.226,8.205-14.71,12.722c-2.866,2.887-3.227,5.231-1.036,8.456c1.07,1.576,0.794,0.94,1.045,2.856
		c0.494,3.774,4.129,3.243,7.35,2.788c5.355-0.757,10.457-0.119,15.853-0.114c12.337,0.011,24.732,0.597,37.067,0.993
		c19.917,0.64,39.818,1.743,59.744,2.051c8.846,0.137,17.853,0.707,26.479-1.147c4.334-0.931,9.287-0.225,13.707-0.251
		c4.962-0.028,9.922-0.126,14.88-0.314c1.191-0.046,2.382-0.095,3.572-0.151c8.16-0.38,16.366-1.587,24.466-1.175
		c8.944,0.456,18.007,0.454,26.964,0.48c3.235,0.009,10.43,0.433,12.899-2.176c1.794-1.897,1.437-6.022,1.695-8.391
		c0.642-5.878,0.918-11.787,1.167-17.699c0.269-6.362-0.033-12.759-0.007-19.118C336.018,325.744,335.741,320.175,331.932,318.456z"
		/>
	<path style="fill:#488C60;" d="M347.03,216.647c-0.022,7.195-1.383,14.24-1.103,21.44c0.065,1.69-0.018,9.638,2.976,5.643
		c4.271-5.703,8.652-11.329,12.84-17.12c2.178-3.013,8.387-9.134,1.641-10.677c-2.891-0.661-5.989-0.672-8.934-0.791
		c-1.195-0.049-2.429-0.174-3.635-0.123C348.986,215.096,348.688,216.334,347.03,216.647z"/>
</g>
<path style="fill:#5B4B36;" d="M369.452,233.895c-3.532,2.129-4.452,5.887-5.123,9.666c-0.799,4.503-1.439,8.794-1.098,13.371
	c0.187,2.503-0.373,5.821,1.94,7.392c2.517,1.709,6.443,0.98,9.302,0.986c3.486,0.007,6.988-0.001,10.436-0.465
	c0.69-0.093,1.689,0.025,2.324-0.277c0.915-0.433,0.815-1.003,0.973-2.074c1.031-7.014,0.398-15.066-1.257-21.944
	c-0.854-3.55-2.325-7.398-5.91-8.999C377.668,230.043,372.596,231.331,369.452,233.895z"/>
<g>
	<path style="fill:#488C60;" d="M387.561,218.864c2.179,6.357,6.541,11.807,11.094,16.659c1.699,1.81,3.214,4.156,4.682,6.16
		c0.645,0.88,1.648,3.498,3.08,3.301c3.106-0.427,0.63-11.979,0.514-13.821c-0.2-3.178-0.521-6.345-0.76-9.517
		c-0.123-1.626,0.417-5.166-1.143-6.235c-0.854-0.584-2.746-0.362-3.732-0.367c-2.14-0.011-4.253-0.241-6.396-0.246
		c-1.444-0.004-3.102-0.078-4.538,0.117C388.427,215.179,387.964,216.969,387.561,218.864z"/>
	<path style="fill:#488C60;" d="M341.855,151.229c-0.013,3.988-0.501,7.953-0.494,11.946c0.009,5.898,0.078,11.794,0.13,17.689
		c0.036,4.192,0.256,8.401,0.125,12.594c-0.083,2.661-0.769,5.825-0.186,8.462c0.443,2.005,2.617,2.281,4.388,2.44
		c3.86,0.346,7.778-0.67,11.679-0.499c9.106,0.402,18.23,0.306,27.345,0.459c6.236,0.105,12.469-0.176,18.68,0.006
		c1.367,0.04,3.655,0.46,4.835-0.41c1.907-1.405,2.631-6.029,2.914-8.087c0.628-4.563,0.293-9.234,0.098-13.814
		c-0.208-4.856-0.051-9.502,0.474-14.327c0.394-3.622,0.688-7.81,0.29-11.435c-0.164-1.492-0.065-4.359-1.157-5.532
		c-0.531-0.571-1.201-0.661-1.934-0.729c-2.321-0.213-4.821,0.238-7.146,0.367c-8.217,0.457-16.435,0.826-24.655,1.209
		c-7.1,0.332-14.198,0.451-21.308,0.283c-2.577-0.061-5.084-0.683-7.672-0.632C346.234,151.262,344.33,151.755,341.855,151.229z"/>
</g>
<g>
	<path style="fill:#376D49;" d="M410.353,157.142c-3.93,1.482-8.676,1.523-12.8,2.116c-7.453,1.073-14.11,2.824-20.601,6.749
		c-5.386,3.256-10.272,8.879-11.408,15.225c-0.792,4.424,0.489,8.782,2.179,12.844c0.763,1.834,2.435,4.339,1.969,6.436
		c-0.44,1.98-2.307,1.96-3.947,2.283c-3.011,0.594-6.042,1.017-9.107,1.274c-3.464,0.29-6.804-0.486-10.254-0.616
		c-1.445-0.055-3.053-0.199-3.92-1.467c-1.313-1.923-0.85-5.332-0.981-7.509c-0.51-8.525-0.346-17.108-0.612-25.644
		c-0.124-3.966-0.62-7.862-0.896-11.803c-0.192-2.738,0.371-6.058,3.583-6.647c3.643-0.668,7.859,0.702,11.435,1.191
		c5.349,0.731,10.827,1.022,16.223,1.011c10.571-0.021,21.083,0.028,31.617-0.895c2.088-0.183,4.646-0.741,6.714-0.133
		C411.846,152.234,411.087,153.814,410.353,157.142z"/>
	<path style="fill:#376D49;" d="M305.345,318.491c0.459,6.858-10.664,7.766-15.644,8.16c-14.455,1.146-28.252-0.781-42.586-2.181
		c-21.765-2.125-43.248,1.066-65.015,1.028c-1.62-0.004-24.795,0.655-21.838,5.782c1.357,2.353,15.386,1.405,17.572,1.523
		c14.68,0.786,29.33-0.068,44.017,0.348c11.269,0.319,22.491,1.463,33.742,2.107c5.177,0.297,11.165,1.243,16.293,0.318
		c1.784-0.322,9.866-2.704,10.042,0.896c0.195,3.986-12.819,5.974-15.346,6.549c-8.3,1.887-16.428,2.037-24.782,3.503
		c-16.281,2.856-32.741,4.682-49.247,5.556c-25.176,1.333-50.441,2.782-75.44,6.116c-5.859,0.781-11.818,1.674-17.535,3.149
		c-2.092,0.54-8.297,2.011-9.096,4.443c-1.872,5.699,21.896,3.303,24.988,3.156c10.708-0.51,21.401,0.221,32.123-0.164
		c12.823-0.459,25.652-0.709,38.484-0.755c11.603-0.042,22.875,0.99,34.409,0.983c22.939-0.014,46.042,0.34,68.949,1.395
		c13.037,0.6,26.205-0.251,39.268-0.227c1.299,0.002,5.737,0.475,6.745-0.635c1.293-1.424,0.056-6.305-0.107-7.963
		c-1.162-11.796,0.967-23.764-0.432-35.593c-0.316-2.676-0.786-6.013-3.381-7.285c-1.892-0.927-5.391-0.454-7.452-0.562
		C318.118,317.823,312.117,317.621,305.345,318.491z"/>
</g>
<path style="fill:#23422D;" d="M90.728,369.881c-0.485,1.439-1.263,4.306-0.202,5.547c2.33,2.727,11.032,0.64,14.171,0.635
	c18.973-0.027,38.075,0.595,57.037,1.482c39.83,1.865,79.432,2.232,119.273,0.367c15.444-0.723,30.884,0.465,46.29,0.438
	c3.349-0.006,7.328,0.085,8.963-3.478c1.361-2.963-0.725-5.973-3.931-6.596c-5.612-1.089-11.493,0.387-17.072,0.816
	c-5.87,0.452-11.905-0.091-17.806-0.086c-16.467,0.012-33.09-0.289-49.464,0.877c-16.455,1.171-33.578-1.099-50.047-1.678
	c-4.303-0.151-8.71-0.52-13.013-0.331c-2.73,0.12-5.215,1.077-7.934,1.198c-7.91,0.356-16.159-0.804-24.073-1.17
	c-12.048-0.557-24.159,0.227-36.212,0.227c-4.775,0-9.542-0.27-14.296-0.314C98.401,367.779,94.435,368.906,90.728,369.881z"/>
<path style="fill:#D3AF79;" d="M10.777,480.174c43.45,0,86.892-2.244,130.368-2.397c13.53-0.048,27.02-0.785,40.543-1.034
	c12.175-0.223,24.356,0.694,36.543,0.7c7.321,0.004,14.851-0.058,22.095-0.612c7.85-0.599,15.547,0.988,23.327,1.722
	c16.164,1.522,32.192,2.999,48.454,2.985c19.14-0.016,38.233-0.172,57.35-0.7c16.423-0.454,32.76-0.009,49.126-1.782
	c10.976-1.189,21.951-2.914,33.027-2.95c12.726-0.042,25.422,1.92,38.152,0.983c3.419-0.251,11.374-3.203,12.128,2.061
	c0.875,6.11-8.559,6.125-12.343,6.141c-7.57,0.033-15.135,0.359-22.693,0.342c-10.793-0.023-21.507,1.995-32.243,1.663
	c-12.056-0.373-24.111-0.453-36.181-0.971c-18.523-0.794-36.954-0.325-55.483-0.353c-18.107-0.027-36.138,0.45-54.221-0.264
	c-12.77-0.505-25.371,2.029-38.104,1.979c-4.143-0.016-7.498-1.51-11.498-2.147c-5.841-0.93-12.086-0.908-17.996-1.263
	c-14.872-0.894-29.684-1.016-44.596-1.034c-15.232-0.018-30.845-0.302-46.049,0.673c-16.865,1.083-33.536,1.12-50.423,1.703
	c-16.499,0.57-33.091,1.719-49.582,1.719c-5.48,0-11.44,0.616-16.826-0.341C11.609,486.638,5.372,483.427,10.777,480.174z"/>
<path d="M347.925,247.022c3.015-1.577,5.754-6.232,7.587-8.995c2.203-3.321,4.415-6.649,6.593-9.982
	c2.146-3.281,9.806-10.479,4.021-13.523c-2.711-1.426-6.063-0.94-9.001-1.105c-2.657-0.148-6.877-1.243-9.371,0.061
	c-2.058,1.075-2.227,3.208-2.257,5.318c-0.034,2.467-0.509,5.778-0.074,8.599c-0.304,2.791-0.544,5.589-0.63,8.411
	c-0.103,3.386-1.244,8.245,1.219,10.971C346.497,247.31,347.325,247.336,347.925,247.022z M347.723,230.412
	c0.02-0.861,0.056-1.719,0.095-2.578c0.232-1.879,0.649-3.743,0.742-5.638c0.168-3.446-0.354-5.054,3.952-5.657
	c2.085-0.292,4.921,0.057,7.065,0.116c2.478,0.068,4.889,0.203,4.31,2.795c-0.371,1.662-3.253,4.479-4.152,5.846
	c-0.96,1.456-1.898,2.969-2.858,4.435c-1.432,2.19-2.838,4.411-4.309,6.576c-1.334,1.961-3.006,5.13-4.941,6.98
	C346.689,239.969,347.673,232.532,347.723,230.412z"/>
<path d="M502.638,470.969c-4.91-5.251-13.571-4.178-20.103-3.747c-4.076,0.269-8.052,0.62-12.152,0.616
	c-0.435-0.001-0.868-0.001-1.3,0.001c1.278-6.61-0.527-14.905-1.935-21.354c-1.425-6.527-7.521-5.654-13.153-5.53
	c-7.643,0.168-15.151-0.832-22.772-0.681c-0.793,0.015-1.629-0.02-2.488-0.074c0.652-2.638-0.467-5.746-0.596-8.746
	c-0.232-5.425-0.362-10.944-0.974-16.335c-0.474-4.181-2.318-7.098-6.551-8.261c-0.556-0.153-1.099-0.269-1.639-0.371
	c0.118-0.605,0.165-1.228,0.137-1.859c0.409-1.906,0.577-3.838,0.634-5.092c0.196-4.28-0.31-8.648-0.603-12.982
	c2.494-15.064,1.757-30.375,2.017-45.719c0.145-8.539,1.226-16.959,1.108-25.507c-0.042-3.033-0.353-5.734-0.705-8.68
	c0.121-3.221-0.147-6.521-0.151-9.575c-0.005-5.507-0.461-10.98-0.858-16.46c-0.776-10.705-1.919-21.491-2.031-32.229
	c-0.128-12.332,0.651-24.716-0.252-37.022c-0.263-3.594,0.436-7.202-3.329-9.106c-0.384-0.194-0.774-0.359-1.167-0.5
	c0.341-0.842,0.591-1.801,0.707-2.927c0.842-8.199-0.069-16.299-0.155-24.539c-0.075-7.156,1.284-14.943-0.549-21.985
	c0.849-0.449,1.55-1.045,1.994-1.849c1.235-2.24,1.056-5.655,0.499-8.781c-0.145-2.276-0.243-4.498-0.26-6.807
	c-0.033-4.358,0.596-10.249-1.321-14.296c-0.29-0.611-1.132-1.084-1.801-1.033c-5.057,0.385-10.709,7.489-12.28,11.887
	c-0.012,0.016-0.021,0.034-0.033,0.05c-0.374-0.689-0.861-1.485-1.17-1.972c1.414-3.149,0.888-7.531,0.94-10.909
	c0.092-5.929-0.119-11.971,0.373-17.88c0.846-10.154,1.177-20.358,0.426-30.536c-0.21-2.856-0.121-5.785-3.018-7.031
	c-1.685-0.725-3.949-0.625-5.779-0.919c0.099-0.231,0.168-0.491,0.188-0.788c0.385-5.836-0.514-11.342-4.981-15.511
	c-2.156-2.012-5.04-3.674-8.06-4.491c0.468-0.234,0.901-0.488,1.249-0.717c1.893-1.247,3.037-3.832,3.087-6.051
	c0.104-4.536-2.71-7.996-6.962-8.777c0.531-1.801,0.978-4.608,0.533-6.381c3.059-0.014,4.521-5,3.956-7.461
	c-0.435-1.891-1.485-4.614-3.231-5.871c1.317-1.183,1.831-3.296,1.059-5.05c-0.202-0.458-1.003-0.457-1.205,0
	c-0.245,0.554-0.306,1.399-0.599,1.879c-0.368,0.603-1.666,0.926-2.279,0.721c-1.483-0.499-1.84-2.328-2.477-3.574
	c-0.107-0.209-0.434-0.201-0.543,0c-0.783,1.435-0.848,2.426-0.331,4.013c0.285,0.872,0.887,1.635,1.643,2.164
	c-2.504,1.597-3.28,5.118-2.804,8.037c0.412,2.535,1.85,2.872,3.228,4.59c1.155,1.439,0.246,4.563,0.64,6.77
	c-8.199,0.464-6.848,12.089-2.516,15.751c-7.685,2.54-14.647,13.058-10.737,20.7c-1.873,0.356-4.29,0.203-6.062,0.965
	c-2.895,1.245-2.807,4.176-3.018,7.031c-0.75,10.178-0.419,20.383,0.426,30.536c0.492,5.908,0.28,11.951,0.373,17.88
	c0.053,3.378-0.474,7.76,0.94,10.909c-0.308,0.487-0.795,1.282-1.17,1.972c-0.012-0.016-0.02-0.034-0.032-0.05
	c-1.571-4.397-7.223-11.501-12.28-11.887c-0.669-0.051-1.511,0.422-1.801,1.033c-1.917,4.047-1.288,9.938-1.321,14.296
	c-0.018,2.309-0.116,4.531-0.26,6.807c-0.557,3.126-0.737,6.541,0.498,8.781c0.444,0.804,1.145,1.399,1.994,1.849
	c-1.833,7.042-0.474,14.829-0.549,21.985c-0.086,8.24-0.997,16.34-0.155,24.539c0.116,1.127,0.366,2.085,0.707,2.927
	c-0.392,0.141-0.783,0.306-1.167,0.5c-3.764,1.904-3.066,5.512-3.329,9.106c-0.902,12.307-0.123,24.69-0.252,37.022
	c-0.112,10.738-1.256,21.524-2.031,32.229c-0.397,5.48-0.853,10.953-0.858,16.46c-0.003,3.055-0.271,6.355-0.151,9.575
	c-0.353,2.947-0.663,5.647-0.705,8.68c-0.001,0.079,0.002,0.159,0.001,0.238c-7.127-0.215-14.394,0.826-21.512,0.822
	c-8.652-0.005-17.301-0.43-25.968-0.387c-14.263,0.071-28.623-0.944-42.846-2.112c-16.853-1.384-33.658-1.238-50.545-0.359
	c-7.799,0.405-16.807-1.138-22.749,4.617c-3.594,3.481-8.989,7.423-10.921,12.356c-6.907,0.413-13.868,0.833-20.712,0.279
	c-5.853-0.473-13.074-1.062-17.669,3.131c-7.504,6.848-14.826,14.08-22.106,21.162c-2.753,2.678-5.185,5.72-8.094,8.242
	c-1.734,1.503-3.759,2.535-3.886,5.031c-0.037,0.735,0.456,1.72,1.16,2.022c0.467,0.2,0.981,0.347,1.521,0.464
	c-0.348,1.136-0.389,2.452-0.176,3.791c-3.913,0.14-7.413,1.1-8.397,5.332c-1.122,4.833-0.528,10.489-0.563,15.424
	c-0.029,4.143-0.561,8.463-0.375,12.615c-8.862,0.213-17.694,0.755-26.439,2.05c-3.636,0.538-6.127,3.566-6.661,7.058
	c-0.885,5.784-0.153,12.591-0.162,18.459c-0.018,10.663,0.752,21.284,0.766,31.926c-7.41-0.095-14.819-0.579-22.219-0.252
	c-4.635,0.206-10.93-0.665-13.198,4.562c-1.222,2.815-1.108,7.025-1.285,10.041c-0.23,3.915-0.007,7.871-0.124,11.793
	c-0.14,4.707-2.912,14.03,2.795,16.54c5.929,2.608,14.965,0.206,21.233,0.341c17.588,0.377,35.17,0.923,52.772,0.604
	c22.15-0.401,44.33,0.564,66.482,0.099c11.119-0.234,22.274-0.288,33.415-0.619c10.68,0.388,21.442-0.287,32.116,0.176
	c20.255,0.879,40.639,0.257,60.922,0.711c20.37,0.457,40.748,0.547,61.132,0.506c9.894-0.02,19.728-0.832,29.638-0.595
	c7.85,0.188,17.171,1.082,25.211-0.44c1.757,0.002,3.503-0.037,5.223-0.103c8.445-0.32,16.91-0.201,25.375-0.257
	c14.922-0.099,29.919,0.788,44.818-0.37c6.445-0.501,12.921-0.473,19.375-0.773c4.097-0.19,11.079,0.444,13.892-3.367
	c1.695-2.296,1.229-5.75,1.277-8.405c0.06-3.336,0.196-6.618,0.412-9.94C504.273,482.399,506.685,475.297,502.638,470.969z
	 M426.308,445.196c6.367,0.333,12.753,0.668,19.112,0.911c4.476,0.171,15.062-2.192,17.34,2.682
	c1.502,3.213,1.035,7.737,0.844,11.189c-0.089,1.606,0.097,4.244-0.316,5.791c-0.458,1.712-0.12,1.833-2.399,2.483
	c-1.55,0.443-3.218,0.697-4.935,0.862c0.753-5.168-0.445-12.719-6.726-13.517c-2.828-0.359-5.658,1.238-7.083,3.67
	c-1.827,3.119-0.938,6.19-1.499,9.478c-0.064,0.378-0.02,0.716,0.09,1.011c-2.204,0.096-4.421,0.098-6.639,0.077
	c1.216-2.418,0.638-5.912,0.217-8.358c-0.597-3.468-2.61-6.854-6.462-7.253c-3.458-0.359-6.042,3.033-6.756,6.127
	c-0.431,1.868-0.82,3.922-0.902,5.833c-0.044,1.034-0.206,2.285-0.202,3.481c-2.6,0.027-5.175,0.078-7.757,0.062
	c1.051-5.935-1.393-14.568-8.157-15.205c-6.668-0.627-7.324,9.305-7.416,14.484c-0.12,0-0.239,0.005-0.36,0.005
	c-3.462-0.605-7.256-0.566-11.044-0.364c0.265-3.635-0.04-8.119-1.418-11.319c-1.453-3.374-4.769-4.246-8.216-4.02
	c-3.966,0.259-6.587,2.417-8.057,5.977c-1.122,2.72-2.142,6.876-1.531,10.182c-0.548,0.019-1.096,0.033-1.643,0.051
	c-2.47-0.388-5.129-0.526-7.793-0.513c-0.091-5.179-0.746-15.111-7.416-14.484c-6.763,0.635-9.207,9.269-8.157,15.205
	c-2.581,0.016-5.157-0.034-7.757-0.062c0.003-1.196-0.158-2.447-0.202-3.481c-0.082-1.91-0.472-3.965-0.902-5.833
	c-0.714-3.093-3.297-6.485-6.756-6.127c-3.852,0.398-5.866,3.785-6.462,7.253c-0.422,2.446-0.999,5.939,0.217,8.358
	c-2.218,0.022-4.435,0.02-6.639-0.077c0.111-0.296,0.155-0.634,0.09-1.011c-0.561-3.288,0.328-6.36-1.499-9.478
	c-1.424-2.432-4.255-4.028-7.083-3.67c-6.281,0.797-7.48,8.349-6.726,13.517c-1.716-0.165-3.385-0.419-4.935-0.862
	c-2.279-0.651-1.942-0.771-2.399-2.483c-0.413-1.546-0.228-4.185-0.317-5.791c-0.192-3.453-0.658-7.975,0.844-11.189
	c2.278-4.874,12.864-2.511,17.34-2.682c6.359-0.243,12.745-0.578,19.112-0.911c2.002-0.105,3.889-0.287,5.696-0.755
	c3.78,0.853,7.781,1.122,9.434,1.166c6.352,0.164,12.691-0.599,19.069-0.346c0.481,0.019,0.972,0.049,1.467,0.083
	c0.009-0.049,0.021-0.096,0.029-0.145c4.609,0.245,9.276,0.396,13.796,0.329c7.729-0.113,15.554-0.258,23.313,0.022
	c2.321,0.084,5.315,0.283,8.198,0.061c1.073,0.016,2.147,0.021,3.22-0.007c1.652-0.043,5.654-0.312,9.434-1.166
	C422.419,444.909,424.306,445.091,426.308,445.196z M447.972,458.891c4.987-0.792,4.825,7.337,5.152,10.415
	c-3.051,0.133-6.152,0.1-9.018,0.258C444.996,466.178,442.747,459.722,447.972,458.891z M432.039,469.815
	c-2.572-0.046-5.14-0.114-7.696-0.147c-0.026-1.182-0.224-2.407-0.211-3.486c0.022-1.994,0.134-5.75,1.555-7.265
	c3.249-3.462,5.028,1.868,5.422,4.294c0.223,1.376,0.224,2.761,0.461,4.132C431.675,467.954,432.168,469.127,432.039,469.815z
	 M409.575,469.679c-1.303-0.041-2.61-0.105-3.927-0.217c-1.495-0.127-3.081-0.246-4.709-0.332c-0.195-3.7-0.489-12.232,3.992-10.45
	C408.917,460.263,408.879,465.696,409.575,469.679z M381.121,468.907c-2.682,0.189-5.302,0.377-7.724,0.391
	c-1.419,0.008-2.838,0.036-4.258,0.072c0.092-0.648,0.137-1.292,0.144-1.42c0.09-1.52,0.197-2.918,0.506-4.415
	c0.848-4.132,2.566-7.371,7.322-7.094C383.424,456.809,380.667,464.376,381.121,468.907z M352.325,469.13
	c-1.628,0.086-3.214,0.206-4.709,0.332c-1.316,0.112-2.623,0.176-3.927,0.217c0.696-3.983,0.659-9.415,4.644-11
	C352.815,456.897,352.52,465.43,352.325,469.13z M329.133,466.183c0.012,1.079-0.186,2.303-0.211,3.486
	c-2.556,0.033-5.124,0.102-7.696,0.147c-0.128-0.688,0.364-1.862,0.47-2.471c0.236-1.371,0.237-2.758,0.461-4.132
	c0.394-2.426,2.172-7.755,5.422-4.293C328.998,460.432,329.109,464.188,329.133,466.183z M309.159,469.565
	c-2.866-0.158-5.966-0.126-9.018-0.258c0.327-3.078,0.165-11.207,5.152-10.415C310.517,459.722,308.269,466.178,309.159,469.565z
	 M372.639,13.396c-0.206-1.791,0.34-4.832,2.433-5.335c2.123-0.512,2.399,1.264,2.86,2.69c0.871,2.696,0.659,4.833-1.829,6.785
	C374.766,16.498,372.953,16.135,372.639,13.396z M371.604,34.439c-0.585-1.68-1.2-3.72,0.234-5.143
	c1.351-1.341,3.302-1.051,4.922-0.44c2.482,0.936,3.879,3.658,3.489,6.336c-0.367,2.519-2.579,3.069-4.148,4.519
	c-0.401-0.03-0.828-0.083-1.225-0.196C373.298,38.175,372.37,36.635,371.604,34.439z M363.971,53.555
	c1.354-5.064,5.666-9.335,11.005-9.775c4.561-0.376,9.414,2.356,11.745,6.179c2.257,3.7,1.354,7.386,1.652,11.481
	c0.005,0.062,0.02,0.114,0.028,0.173c-0.173,0.026-0.348,0.065-0.523,0.121c-3.809,1.217-0.676,4.895-2.782,6.923
	c-0.509,0.489-2.98,0.317-5.006,0.384c-2.147-0.215-4.441-0.1-6.287-0.147c-1.423-0.036-3.219-0.279-4.756,0.042
	c-0.416-0.053-0.731-0.137-0.878-0.279c-2.106-2.028,1.027-5.706-2.782-6.923c-0.681-0.217-1.342-0.185-2.002-0.062
	C363.622,58.968,363.25,56.257,363.971,53.555z M357.907,67.322c1.398-0.427,3.973-1.085,4.525-1.007
	c0.589,0.083,0.923,0.047,1.114-0.027c0.009,0.231,0.089,0.599,0.325,1.187c0.746,1.861-0.297,3.561,1.395,5.148
	c1.475,1.384,4.065,1.106,6.424,0.466c0.78,0.063,1.529,0.097,2.134,0.159c2.713,0.276,5.388,0.547,7.94-0.111
	c2.308,0.604,4.8,0.835,6.237-0.513c1.691-1.587,0.648-3.288,1.395-5.148c0.236-0.588,0.315-0.955,0.325-1.187
	c0.192,0.074,0.527,0.11,1.114,0.027c0.551-0.077,3.127,0.579,4.525,1.007c-1.058,10.297,0.872,20.585,0.422,30.956
	c-0.266,6.123-0.157,12.221-0.062,18.356c0.029,1.868-0.018,3.59,0.034,5.244c-0.273-0.461-0.561-0.916-0.885-1.35
	c-2.372-3.171-4.831-4.344-7.299-2.946c0.406-5.965,0.637-11.946,0.897-17.918c0.182-4.172,0.892-9.308-0.329-13.394
	c-0.624-2.088-1.509-2.893-3.721-3.196c-2.238-0.306-5.272-0.544-7.781,0.012c-2.509-0.555-5.542-0.318-7.781-0.012
	c-2.212,0.303-3.098,1.107-3.721,3.196c-1.222,4.088-0.51,9.222-0.329,13.394c0.26,5.972,0.491,11.953,0.897,17.918
	c-2.468-1.399-4.928-0.225-7.299,2.946c-0.325,0.433-0.612,0.888-0.885,1.35c0.051-1.654,0.005-3.377,0.034-5.244
	c0.096-6.135,0.204-12.233-0.062-18.356C357.035,87.907,358.965,77.619,357.907,67.322z M368.348,95.498
	c-0.037-1.806-0.751-6.627,0.371-8.178c1.202-1.663,5.186-1.982,7.913-1.997c2.727,0.015,6.711,0.334,7.913,1.997
	c1.121,1.551,0.409,6.373,0.371,8.178c-0.161,7.836-0.238,15.541,0.332,23.369c0.018,0.234,0.097,0.415,0.197,0.572
	c-0.074,0.086-0.147,0.164-0.221,0.255c-2.21,2.766-3.609,5.925-5.294,9.001c-1.147,2.095-2.869,3.887-3.3,6.196
	c-0.431-2.309-2.151-4.101-3.3-6.196c-1.684-3.075-3.085-6.235-5.294-9.001c-0.074-0.092-0.147-0.168-0.22-0.255
	c0.102-0.158,0.181-0.339,0.197-0.572C368.586,111.039,368.509,103.334,368.348,95.498z M341.147,141.927
	c0.419-4.063,0.002-8.202,0.117-12.293c0.041-1.463,0.281-2.859,0.39-4.309c0.036-0.485,0.075-0.837,0.111-1.108
	c0.763,1.383,3.386,5.492,3.63,5.885c1.553,2.512,2.796,7.382,5.588,8.912c5.459,2.994,7.556-6.732,8.753-9.999
	c0.491-1.34,1.641-6.1,3.005-6.592c1.857-0.668,3.13,3.101,3.949,4.651c1.803,3.414,3.561,6.807,5.5,10.154
	c0.086,0.149,0.186,0.281,0.292,0.398c0.004,0.006,0.006,0.012,0.009,0.018c0.75,1.28,1.23,2.147,2.763,2.414
	c0.29,0.05,0.559,0.079,0.822,0.095c1.085,0.173,2.22-0.164,3.074-0.916c0.361-0.319,0.665-0.691,0.937-1.089
	c0.387-0.189,0.736-0.482,0.99-0.92c1.94-3.349,3.697-6.74,5.5-10.154c0.819-1.55,2.091-5.319,3.949-4.651
	c1.363,0.491,2.514,5.252,3.005,6.592c1.197,3.267,3.294,12.992,8.753,9.999c2.792-1.53,4.034-6.399,5.588-8.912
	c0.243-0.394,2.866-4.503,3.63-5.885c0.036,0.271,0.074,0.624,0.11,1.108c0.11,1.451,0.349,2.845,0.39,4.309
	c0.114,4.091-0.302,8.23,0.117,12.293c0.047,0.453,0.075,0.932,0.103,1.42c-0.18,1.865-0.466,3.539-1.084,4.209
	c-1.266,1.374-9.342,1.008-11.492,1.202c-5.435,0.491-10.744,0.482-16.091,0.973c-4.455-0.259-8.982-0.221-13.463,0.033
	c-5.474-0.527-10.906-0.505-16.469-1.006c-2.151-0.194-10.226,0.173-11.492-1.202c-0.618-0.672-0.904-2.344-1.084-4.209
	C341.072,142.859,341.1,142.379,341.147,141.927z M409.061,188.334c0.224,2.329,0.576,8.392-0.334,10.693
	c-1.616,4.088-10.747,2.303-13.789,2.413c-1.236,0.046-2.469,0.202-3.703,0.37c-5.758-0.543-11.653-0.557-17.242-0.614
	c-3.193-0.033-6.346,0.569-9.519,0.932c-2.051-0.23-4.096-0.613-6.149-0.688c-3.043-0.11-12.173,1.675-13.789-2.413
	c-0.91-2.301-0.558-8.364-0.334-10.693c0.609-6.314,0.661-12.973,0.143-19.315c-0.44-5.384-0.617-10.574-1.931-15.746
	c2.094,0.423,4.348,0.487,5.874,0.676c4.86,0.602,9.799,1.011,14.699,0.625c0.091-0.007,0.189-0.013,0.284-0.019
	c3.896,0.698,8.939,0.125,11.808,0.147c3.528,0.027,8.327,0.357,12.607-0.255c0.941,0.042,1.83,0.065,2.589,0.125
	c4.9,0.387,9.839-0.023,14.699-0.625c1.527-0.189,3.78-0.253,5.874-0.676c-1.314,5.172-1.49,10.361-1.931,15.746
	C408.4,175.361,408.453,182.019,409.061,188.334z M338.217,312.16c0.904-3.506,0.628-7.204,0.641-10.904
	c0.02-5.515,0.05-11.023,0.324-16.528c0.444-8.93,0.599-17.923,1.178-26.839c0.683-10.501-0.22-20.986-0.331-31.51
	c-0.054-5.109-0.009-10.176,0.216-15.249c0.093-2.111-0.51-3.642,1.573-4.729c0.496-0.259,1.117-0.429,1.773-0.563
	c2.253,0.931,5.054,1.083,7.924,0.969c3.183-0.126,6.316-0.176,9.41-0.359c0.106,0.006,0.209,0.016,0.317,0.021
	c4.269,0.167,8.498-0.552,12.752-0.473c6.185,0.116,12.306,0.759,18.416,0.458c3.071,0.178,6.18,0.229,9.338,0.354
	c2.869,0.113,5.671-0.039,7.924-0.969c0.656,0.134,1.277,0.305,1.773,0.563c2.084,1.087,1.48,2.617,1.573,4.729
	c0.224,5.074,0.27,10.14,0.216,15.249c-0.111,10.524-1.014,21.01-0.332,31.51c0.581,8.916,0.735,17.909,1.178,26.839
	c0.273,5.505,0.304,11.013,0.324,16.528c0.013,3.7-0.263,7.398,0.641,10.904c-0.104,4.228-0.083,8.558,0.356,12.751
	c-0.34,4.64-0.773,9.277-1.041,13.927c-0.28,4.88,0.311,9.803,0.152,14.691c-0.139,4.258-0.554,8.288-0.38,12.594
	c0.168,4.164-0.228,8.331-0.32,12.506c-0.009,0.396-0.008,0.77-0.009,1.148c-0.423,3.632-0.431,7.361-0.371,10.839
	c0.063,3.699-0.189,7.643,0.018,11.264c0.141,2.475,0.473,2.155-0.992,2.943c-0.961,0.048-2.04,0.061-2.325,0.093
	c-1.717,0.196-3.472,0.23-5.224,0.278c0.013-0.195,0.023-0.391,0.035-0.589c0.111-1.856,0.357-4.019-0.053-5.86
	c-0.557-2.503-2.538-5.465-5.223-5.896c-2.37-0.38-5.873,0.573-6.829,2.98c-0.55,1.383-0.463,3.191-0.683,4.666
	c-0.285,1.9-0.193,3.82-0.135,5.735c-1.691,0.088-3.399,0.287-5.008,0.417c-0.218,0.006-0.427,0.011-0.645,0.018
	c0.208-2.283-0.312-4.746-0.478-6.987c-0.209-2.85-0.391-5.699-1.396-8.414c-1.455-3.937-4.354-7.491-8.941-6.855
	c-4.946,0.686-7.676,4.841-8.863,9.282c-1.336,4.998-1.631,8.727-0.536,13.328c-0.738,0.009-1.474,0.027-2.213,0.035
	c-0.889-0.238-1.791-0.449-2.705-0.621c0.056-1.981,0.165-3.969-0.13-5.936c-0.221-1.475-0.133-3.283-0.683-4.666
	c-0.957-2.406-4.461-3.359-6.829-2.98c-2.685,0.431-4.666,3.393-5.223,5.896c-0.41,1.84-0.164,4.003-0.053,5.86
	c0.012,0.197,0.023,0.394,0.035,0.589c-1.753-0.048-3.507-0.082-5.224-0.278c-0.285-0.033-1.364-0.046-2.325-0.093
	c-1.465-0.788-1.133-0.468-0.992-2.943c0.207-3.62-0.046-7.565,0.018-11.264c0.06-3.478,0.05-7.207-0.371-10.839
	c-0.001-0.378,0-0.752-0.009-1.148c-0.092-4.174-0.489-8.343-0.32-12.506c0.175-4.306-0.241-8.335-0.38-12.594
	c-0.159-4.888,0.432-9.811,0.152-14.691c-0.266-4.65-0.701-9.287-1.041-13.927C338.3,320.719,338.322,316.39,338.217,312.16z
	 M401.939,405.327c-0.039,0.002-0.077,0.004-0.116,0.006c-2.065,0.155-4.211,0.313-6.352,0.571c0.01-2.215,0.117-4.336,0.354-6.585
	c0.093-0.881,0.183-2.139,1.002-2.727c1.235-0.89,2.911-0.349,3.735,0.703C402.35,399.573,401.711,402.62,401.939,405.327z
	 M368.371,401.813c0.429-4.298,1.133-10.955,5.137-13.322c9.052-5.349,10.194,12.187,9.277,18.249
	c-3.833,0.063-7.669,0.103-11.495,0.199c-1,0.025-2.004,0.032-3.006,0.048C368.426,405.278,368.201,403.515,368.371,401.813z
	 M357.792,405.903c-2.141-0.258-4.285-0.416-6.352-0.571c-0.039-0.002-0.077-0.003-0.116-0.006c0.228-2.707-0.411-5.754,1.376-8.033
	c0.825-1.052,2.5-1.592,3.735-0.703c0.819,0.59,0.909,1.847,1.002,2.727C357.676,401.569,357.781,403.689,357.792,405.903z
	 M337.735,411.749c0.884-0.158,1.744-0.362,2.594-0.587c1.289,0.179,2.592,0.242,3.706,0.332c3.687,0.298,7.281,0.606,10.814,0.558
	c2.3,0.338,4.795,0.328,6.405,0.301c4.134-0.07,8.095,0.193,12.235,0.28c4.172,0.089,8.302-0.385,12.468-0.408
	c2.93-0.015,6.204,0.214,9.206-0.329c4.576,0.406,9.243-0.013,14.067-0.403c1.113-0.09,2.417-0.153,3.706-0.332
	c0.849,0.225,1.71,0.43,2.594,0.587c2.419,0.432,4.593,0.204,5.894,3.003c0.729,1.567,0.169,4.137,0.311,5.84
	c0.347,4.158,0.486,8.224,0.722,12.377c0.1,1.754-0.053,3.689-0.009,5.548c-0.029,0.007-0.054,0.014-0.084,0.021
	c-2.268,0.514-4.746,0.21-7.045,0.419c-1.612,0.147-3.221,0.199-4.832,0.221c-4.047-0.732-8.793-0.158-12.387-0.246
	c-0.745-0.019-1.493-0.012-2.239-0.02c-0.605-0.014-1.212-0.012-1.819-0.016c-5.873-0.009-11.764,0.196-17.595,0.092
	c-4.673-0.083-9.307-0.07-13.969-0.039c-2.571-0.099-5.119-0.047-7.676,0.033c-1.51,0.006-3.032,0.032-4.547,0.118
	c-4.114,0.092-8.207,0.231-12.311-0.143c-2.301-0.209-4.777,0.095-7.045-0.419c-0.03-0.007-0.055-0.014-0.084-0.021
	c0.042-1.859-0.11-3.792-0.009-5.548c0.237-4.153,0.375-8.219,0.722-12.377c0.143-1.703-0.418-4.272,0.311-5.84
	C333.141,411.953,335.316,412.18,337.735,411.749z M332.788,375.191c-0.898-0.089-1.897-0.368-2.595-0.439
	c-2.311-0.235-4.621-0.206-6.941-0.211c-4.955-0.011-9.887-0.015-14.826-0.277c-9.201-0.487-18.381-1.127-27.614-0.844
	c-20.738,0.635-41.501,0.208-62.234,0.756c-21.162,0.559-42.333,0.927-63.495,0.784c-10.446-0.071-20.802,0.496-31.265,0.15
	c-9.83-0.326-19.648-0.774-29.473-0.392c-0.78,0.03-1.612,0.02-2.468-0.005c0.009-1.037,0.353-2.082,0.16-3.082
	c1.136-0.081,2.976-0.714,4.302-1.107c2.314,0.041,4.653-0.137,6.918-0.204c5.568-0.165,11.137-0.05,16.706-0.147
	c4.176,0.033,8.351,0.109,12.529,0.376c16.772,1.076,34.075,1.066,50.885,0.263c16.734-0.8,33.716-1.014,50.458-0.222
	c17.736,0.84,35.333,0.09,53.053,0.072c8.762-0.009,17.595,0.805,26.351,0.188c6.361-0.447,12.938,0.123,19.247-0.863
	C332.564,371.724,332.659,373.46,332.788,375.191z M165.75,326.378c2.485-2.543,4.818-5.731,8.047-7.081
	c4.271-1.785,9.672-0.861,14.211-1.02c4.716-0.165,9.433-0.239,14.155-0.385c14.797-0.459,29.401,0.013,44.134,1.587
	c13.505,1.442,27.276,1.822,40.854,1.927c8.009,0.062,15.993,0.694,23.993,0.766c6.3,0.057,13.522,0.439,19.962-0.541
	c0.12,2.99,0.314,5.973,0.508,8.957c-7.146-0.186-14.534,0.701-21.659,0.857c-10.007,0.22-20.018,0.36-30.031,0.528
	c-19.156,0.322-38.608-0.185-57.751-0.976c-19.363-0.801-38.903-1.697-58.286-0.894c-0.682,0.028-1.368,0.065-2.052,0.1
	C163.15,328.929,164.485,327.672,165.75,326.378z M94.663,361.209c6.1-6.9,13.301-12.357,20.647-17.873
	c3.553-2.669,6.665-6.246,11.139-7.014c3.324-0.57,6.758-0.366,10.097-0.169c8.724,0.513,17.514-0.596,26.232-0.833
	c19.094-0.516,38.113,0.545,57.186,0.871c18.633,0.319,37.432,0.348,56.044,1.342c10.024,0.536,20.422,0.429,30.449,0.051
	c8.468-0.319,17.028-0.944,25.5-1.065c0.068,1.435,0.125,2.872,0.148,4.313c0.139,8.248-0.002,16.486,0.218,24.683
	c-5.793-0.693-12.201,0.257-17.752,0.515c-8.473,0.395-16.915-0.054-25.385-0.035c-19.007,0.041-37.867,0.778-56.884-0.102
	c-18.585-0.86-37.19,0.461-55.764,0.488c-10.347,0.015-20.706-0.006-31.059,0.016c-2.245-0.141-4.497-0.195-6.732-0.237
	c-5.567-0.105-11.254-0.509-16.791-0.376c-5.53,0.132-11.088-0.12-16.613,0.13c-2.387,0.107-4.768,0.35-7.145,0.576
	c-0.653,0.062-1.41,0.201-2.203,0.36c-1.663-0.104-3.595-0.551-5.188-0.355C92.241,364.977,93.416,362.619,94.663,361.209z
	 M84.315,380.052c0.889-0.602,5.659-0.589,7.108-0.669c4.145-0.23,8.353-0.492,12.5-0.194c20.01,1.44,40.141,2.04,60.2,2.115
	c39.189,0.147,78.511-0.117,117.689-1.063c9.601-0.232,19.192,0.426,28.762,0.93c5.219,0.274,10.442,0.216,15.673,0.206
	c2.199-0.005,4.816,0.488,7.166,0.179c0.202,1.668,0.432,3.335,0.708,4.997c-0.292,4.334-0.799,8.702-0.603,12.982
	c0.057,1.254,0.225,3.186,0.634,5.092c-0.029,0.632,0.019,1.254,0.137,1.859c-0.54,0.103-1.084,0.218-1.639,0.371
	c-2.853,0.784-4.602,2.38-5.597,4.609c-21.113-0.862-42.213-1.695-63.327-2.777c0.114-0.236,0.186-0.488,0.189-0.735
	c0.029-1.784-0.215-3.326,0.016-5.145c0.228-1.787-0.197-3.569-0.502-5.332c-0.617-3.558-3.286-6.187-7.06-6.077
	c-3.137,0.091-8.271,2.077-9.706,5.134c-1.507,3.21-1.157,7.996,0.202,11.217c-10.8-0.667-21.626-1.389-32.456-1.703
	c-0.044-1.056-0.088-2.094,0.058-3.239c0.227-1.787-0.197-3.569-0.502-5.332c-0.616-3.558-3.286-6.187-7.06-6.077
	c-3.137,0.091-8.269,2.077-9.706,5.134c-1.247,2.657-1.218,6.397-0.404,9.437c-2.8,0.068-5.599,0.179-8.398,0.342
	c-7.384,0.433-14.79,0.465-22.194,0.534c-0.042-1.342-0.15-2.607,0.032-4.039c0.228-1.787-0.197-3.569-0.502-5.332
	c-0.616-3.558-3.286-6.187-7.06-6.077c-3.137,0.091-8.269,2.077-9.706,5.134c-1.427,3.04-1.191,7.5-0.007,10.7
	c-10.208,0.341-20.402,0.536-30.618,0.655c0.022-1.755-0.21-3.284,0.018-5.081c0.228-1.787-0.197-3.569-0.502-5.332
	c-0.617-3.558-3.286-6.187-7.06-6.077c-3.137,0.091-8.269,2.077-9.706,5.134c-1.535,3.268-1.147,8.177,0.276,11.396
	c-6.199-0.039-12.406-0.095-18.607-0.032c0.422-7.723,0.392-15.399,0.585-23.173C83.389,383.044,83.091,380.88,84.315,380.052z
	 M249.514,399.247c0.814-3.205,8.276-6.352,10.083-2.343c1.075,2.384,0.589,5.486,0.317,7.96c-0.15,1.356-0.245,2.668,0.342,3.651
	c-0.91-0.048-1.819-0.089-2.727-0.138c-2.866-0.154-5.736-0.324-8.607-0.499C249.77,405.175,248.809,402.026,249.514,399.247z
	 M200.051,399.247c0.814-3.205,8.276-6.352,10.083-2.343c1.075,2.384,0.589,5.486,0.317,7.96c-0.041,0.369-0.074,0.731-0.095,1.089
	c-3.518-0.067-7.035-0.078-10.552-0.032C199.951,403.724,199.511,401.376,200.051,399.247z M151.819,399.247
	c0.814-3.205,8.276-6.352,10.083-2.343c1.075,2.384,0.589,5.486,0.317,7.96c-0.077,0.701-0.139,1.39-0.105,2.03
	c-3.113,0.041-6.225,0.102-9.336,0.217c-0.458,0.018-0.915,0.028-1.372,0.044C151.913,404.624,151.176,401.782,151.819,399.247z
	 M103.945,399.247c0.814-3.205,8.276-6.352,10.083-2.343c1.075,2.384,0.589,5.486,0.317,7.96c-0.121,1.104-0.204,2.178,0.081,3.073
	c-3.688,0.035-7.386,0.026-11.088,0.006C104.219,405.226,103.233,402.048,103.945,399.247z M49.895,444.03
	c0.053-5.004,0.284-9.95,0.456-14.939c0.088-2.556-0.229-5.167-0.034-7.713c0.287-3.732,1.108-5.152,4.52-5.854
	c20.872-4.298,43.109-2.147,64.29-2.114c45.05,0.068,89.94-2.818,134.926,0.854c12.211,0.996,24.496,0.709,36.706,1.537
	c11.784,0.8,23.306,1.986,35.123,1.677c-0.413,4.637-0.556,9.339-0.755,13.977c-0.128,2.999-1.247,6.109-0.596,8.746
	c-0.858,0.054-1.695,0.089-2.488,0.074c-7.62-0.151-15.129,0.849-22.772,0.681c-5.632-0.124-11.727-0.996-13.153,5.53
	c-1.36,6.227-3.085,14.171-2.052,20.661c-1.121-0.183-2.247-0.332-3.375-0.465c0-0.012-0.002-0.022-0.002-0.033
	c-0.111-6.383,0.002-12.988,0.432-19.354c0.35-5.187,0.875-12.012-1.514-16.874c-5.224-10.638-16.417-13.021-27.112-11.919
	c-9.388,0.967-18.91,5.223-23.206,14.012c-4.818,9.857-6.273,22.39-4.455,33.281c-4.317-0.05-8.634-0.084-12.952-0.124
	c0.559-7.064-0.576-15.127-4.851-20.888c-2.407-3.243-5.91-4.513-8.992-6.957c-2.401-1.905-2.926-3.095-4.011-6.037
	c-0.287-0.78-0.249-1.355-0.718-2.055c-0.369-0.551-1.339-0.87-1.83-0.236c-2.015,2.599-2.112,6.455-4.044,9.248
	c-2.37,3.427-6.475,4.687-8.794,8.245c-2.755,4.228-4.645,12.041-3.432,17.833c-6.534-0.089-13.069-0.064-19.606,0.028
	c0.411-6.862-0.792-14.529-4.903-20.07c-2.407-3.243-5.91-4.513-8.991-6.957c-2.403-1.905-2.927-3.095-4.012-6.037
	c-0.287-0.78-0.249-1.355-0.718-2.054c-0.369-0.551-1.339-0.87-1.83-0.236c-2.015,2.599-2.112,6.455-4.044,9.248
	c-2.37,3.427-6.475,4.687-8.794,8.245c-2.926,4.491-4.872,13.023-3.162,18.884c-8.032,0.285-16.061,0.569-24.084,0.792
	c0.752-7.292-0.279-15.85-4.756-21.885c-2.407-3.243-5.91-4.513-8.992-6.957c-2.401-1.905-2.927-3.095-4.012-6.037
	c-0.287-0.78-0.249-1.355-0.718-2.054c-0.369-0.551-1.339-0.87-1.83-0.236c-2.015,2.599-2.112,6.455-4.044,9.248
	c-2.37,3.427-6.475,4.687-8.794,8.245c-3.177,4.875-5.203,14.515-2.645,20.325c-3.263,0.058-6.529,0.116-9.789,0.175
	c-0.112,0.002-0.224,0-0.336,0.002C51.075,460.091,49.815,451.481,49.895,444.03z M247.65,449.81
	c-1.489-6.389-2.22-15.208,6.898-15.438c5.661-0.144,9.887,4.664,8.883,10.213c-0.363,2.003-1.489,3.913-2.231,5.805
	c-0.243,0.62,0.056,1.384,0.485,1.836c4.082,4.293,4.447,8.504,5.449,13.755c-8.411-0.014-16.89,0.494-25.227,0.186
	c-0.343-0.013-0.688-0.019-1.033-0.03c-0.189-1.459-0.484-2.892-0.514-4.441c-0.096-4.84,2.315-7.592,6.404-9.712
	C247.539,451.583,247.837,450.612,247.65,449.81z M266.11,451.575c-0.244-0.568-0.43-0.905-0.575-1.117
	c0.125-0.199,0.27-0.589,0.423-1.308c1.26-5.942,2.574-10.89-2.996-15.326c-4.415-3.517-11.521-3.287-15.875,0.037
	c-5.027,3.837-4.914,9.987-3.518,15.59c-3.528,2.302-6.481,5.042-6.921,9.565c-0.229,2.348-0.363,4.976,0.484,7.013
	c-3.347-0.09-6.695-0.162-10.045-0.207c1.609-9.735,0.296-19.414,4.496-28.74c4.011-8.905,10.679-12.507,20.159-13.877
	c11-1.588,23.895,1.887,24.713,15.01c0.575,9.222-0.392,18.763-0.661,28.021c-1.614-0.104-3.235-0.164-4.859-0.202
	c-0.731-3.593-0.638-7.049-2.303-10.437C267.944,454.201,266.715,452.979,266.11,451.575z M207.836,465.629
	c-6.202-0.072-12.401-0.186-18.593-0.437c-3.581-0.145-7.163-0.238-10.745-0.307c0.197-2.829,0.39-5.664,0.668-8.471
	c0.547-5.515,2.947-8.438,7.226-11.616c2.195-1.63,3.667-3.129,4.885-5.672c0.487-1.017,0.702-2.162,0.869-3.319
	c0.086,0.853,0.246,1.664,0.656,2.32c1.428,2.286,4.382,3.753,6.577,5.15C207.512,448.451,207.502,457.04,207.836,465.629z
	 M151.478,464.921c-9.791,0.182-19.585,0.505-29.374,0.849c0.221-3.122,0.425-6.255,0.732-9.357
	c0.545-5.515,2.947-8.438,7.226-11.616c2.195-1.631,3.667-3.129,4.885-5.672c0.487-1.017,0.702-2.162,0.87-3.319
	c0.086,0.853,0.246,1.664,0.656,2.32c1.428,2.286,4.382,3.753,6.577,5.15C150.96,448.308,151.166,456.572,151.478,464.921z
	 M91.162,466.769c-4.177,0.104-8.352,0.19-12.525,0.242c-5.676,0.071-11.355,0.165-17.032,0.263c0.27-3.617,0.484-7.261,0.84-10.86
	c0.545-5.515,2.947-8.438,7.226-11.616c2.195-1.631,3.667-3.129,4.885-5.672c0.487-1.017,0.702-2.162,0.869-3.319
	c0.086,0.853,0.246,1.664,0.656,2.32c1.428,2.286,4.382,3.753,6.577,5.15C91.153,448.679,90.765,457.807,91.162,466.769z
	 M27.828,505.175c0.331-2.011-0.218-4.243,0.29-6.241c0.666-2.62,6.765-5.191,8.241-1.915c0.878,1.948,0.481,4.484,0.259,6.506
	c-0.074,0.67-0.13,1.327-0.062,1.921c-1.254-0.044-2.512-0.077-3.759-0.145C31.144,505.211,29.487,505.19,27.828,505.175z
	 M47.682,498.934c0.666-2.62,6.765-5.191,8.241-1.916c0.878,1.948,0.481,4.484,0.259,6.506c-0.058,0.528-0.103,1.045-0.089,1.534
	c-2.908,0.231-5.838,0.377-8.776,0.448C47.776,503.411,47.145,501.044,47.682,498.934z M67.03,504.515
	c0.145-1.831-0.237-3.798,0.215-5.579c0.666-2.62,6.765-5.191,8.241-1.916c0.878,1.948,0.481,4.484,0.258,6.506
	c-0.034,0.305-0.061,0.606-0.078,0.902C72.789,504.467,69.907,504.468,67.03,504.515z M86.913,504.03
	c0.056-1.691-0.224-3.47,0.188-5.095c0.666-2.62,6.765-5.191,8.241-1.916c0.878,1.948,0.481,4.484,0.258,6.506
	c-0.015,0.134-0.027,0.266-0.04,0.398C92.675,503.919,89.791,503.946,86.913,504.03z M106.478,503.981
	c0.049-1.676-0.222-3.436,0.187-5.046c0.666-2.62,6.765-5.191,8.241-1.916c0.878,1.948,0.481,4.484,0.258,6.506
	c-0.015,0.14-0.028,0.278-0.042,0.417c-2.218,0.023-4.433,0.04-6.642,0.042C107.814,503.986,107.146,503.982,106.478,503.981z
	 M126.046,503.787c0.025-1.618-0.211-3.305,0.182-4.853c0.666-2.62,6.765-5.191,8.241-1.916c0.878,1.948,0.481,4.484,0.258,6.506
	c-0.005,0.047-0.009,0.095-0.014,0.141C131.825,503.699,128.935,503.742,126.046,503.787z M146.913,503.643
	c0.009-1.573-0.203-3.206,0.179-4.708c0.666-2.62,6.765-5.191,8.241-1.916c0.878,1.948,0.481,4.484,0.258,6.506
	c-0.011,0.095-0.019,0.187-0.028,0.28C152.685,503.713,149.801,503.667,146.913,503.643z M355.446,498.934
	c0.666-2.62,6.765-5.191,8.241-1.916c0.878,1.948,0.481,4.484,0.258,6.506c-0.072,0.658-0.128,1.302-0.067,1.889
	c-2.907-0.103-5.814-0.187-8.721-0.249C355.485,503.156,354.939,500.928,355.446,498.934z M382.061,506.156
	c-2.505-0.089-5.004-0.194-7.501-0.304c0.62-2.178-0.116-4.692,0.45-6.918c0.666-2.62,6.765-5.191,8.241-1.916
	c0.878,1.948,0.481,4.484,0.258,6.506c-0.103,0.929-0.172,1.831,0.088,2.575c-0.347,0.025-0.691,0.04-1.04,0.063
	C382.393,506.16,382.225,506.162,382.061,506.156z M394.223,505.449c0.435-2.081-0.18-4.426,0.35-6.515
	c0.666-2.62,6.765-5.191,8.241-1.916c0.878,1.948,0.481,4.484,0.258,6.506c-0.06,0.536-0.104,1.063-0.089,1.557
	C400.064,505.191,397.144,505.299,394.223,505.449z M414.43,498.934c0.666-2.62,6.765-5.191,8.241-1.916
	c0.878,1.948,0.481,4.484,0.258,6.506c-0.043,0.392-0.082,0.78-0.093,1.154c-2.888,0.012-5.775,0.042-8.651,0.095
	C414.393,502.869,413.955,500.801,414.43,498.934z M433.993,498.934c0.666-2.62,6.765-5.191,8.241-1.916
	c0.878,1.948,0.481,4.484,0.258,6.506c-0.05,0.453-0.09,0.899-0.093,1.327c-2.88-0.055-5.762-0.105-8.643-0.145
	C433.948,502.821,433.525,500.78,433.993,498.934z M453.285,505.018c0.279-1.97-0.223-4.137,0.272-6.083
	c0.666-2.62,6.765-5.191,8.241-1.916c0.878,1.948,0.481,4.484,0.258,6.506c-0.056,0.509-0.099,1.009-0.09,1.483
	C459.072,505.044,456.179,505.044,453.285,505.018z M474.198,504.573c0.159-1.848-0.236-3.838,0.222-5.639
	c0.666-2.62,6.765-5.191,8.241-1.916c0.878,1.948,0.481,4.484,0.258,6.506c-0.032,0.283-0.056,0.562-0.075,0.837
	c-2.705,0.046-5.404,0.006-8.113,0.183C474.553,504.557,474.375,504.563,474.198,504.573z M498.652,493.161
	c-0.346,3.575,0.836,8.445-2.608,10.08c-2.49,1.183-6.816,0.988-9.898,1.034c-0.032-0.787-0.053-1.571,0.056-2.428
	c0.186-1.46-0.161-2.918-0.41-4.358c-0.503-2.907-2.685-5.056-5.77-4.967c-2.564,0.075-6.759,1.697-7.933,4.197
	c-1.057,2.251-0.993,5.45-0.253,7.979c-2.176,0.112-4.351,0.195-6.526,0.248c-0.037-1.023-0.11-1.998,0.03-3.098
	c0.186-1.46-0.161-2.918-0.411-4.358c-0.503-2.907-2.685-5.056-5.77-4.967c-2.564,0.075-6.759,1.697-7.933,4.197
	c-1.098,2.339-0.99,5.707-0.168,8.278c-1.772-0.022-3.542-0.049-5.313-0.082c-0.037-1.011-0.107-1.98,0.032-3.067
	c0.186-1.46-0.161-2.918-0.411-4.358c-0.503-2.907-2.685-5.056-5.77-4.967c-2.564,0.075-6.759,1.697-7.933,4.197
	c-1.055,2.246-0.992,5.436-0.258,7.962c-0.576-0.006-1.152-0.016-1.727-0.02c-1.174-0.008-2.335,0.01-3.505,0.009
	c-0.039-0.924-0.086-1.823,0.041-2.824c0.186-1.46-0.161-2.918-0.411-4.358c-0.503-2.907-2.685-5.056-5.77-4.967
	c-2.564,0.075-6.759,1.697-7.933,4.197c-1.075,2.289-0.992,5.56-0.217,8.107c-1.851,0.041-3.707,0.064-5.556,0.123
	c-0.037-1.024-0.11-2.002,0.03-3.102c0.186-1.46-0.161-2.918-0.411-4.358c-0.503-2.907-2.685-5.056-5.77-4.967
	c-2.564,0.075-6.759,1.697-7.933,4.197c-1.183,2.519-0.966,6.228,0.037,8.85c-1.833,0.1-3.669,0.22-5.504,0.338
	c0.009-1.395-0.167-2.623,0.016-4.059c0.186-1.46-0.161-2.918-0.411-4.358c-0.503-2.907-2.685-5.056-5.77-4.967
	c-2.564,0.075-6.759,1.697-7.933,4.197c-1.215,2.587-0.953,6.426,0.12,9.057c-1.486-0.065-2.97-0.132-4.457-0.197
	c-0.378-0.016-0.757-0.026-1.134-0.042c-0.019-1.244-0.145-2.383,0.021-3.689c0.186-1.46-0.161-2.918-0.411-4.358
	c-0.503-2.907-2.685-5.056-5.77-4.967c-2.564,0.075-6.759,1.697-7.933,4.197c-1.115,2.376-0.992,5.815-0.133,8.399
	c-4.758-0.085-9.518-0.127-14.277-0.137c-20.386-0.041-40.757,0.137-61.132-0.152c-20.279-0.287-40.672,0.508-60.922-0.291
	c-8.454-0.334-16.971-0.633-25.414,0.143c-0.206,0.019-0.41,0.028-0.616,0.046c-9.521-0.153-19.05-0.119-28.593-0.644
	c-1.072-0.06-2.149-0.092-3.222-0.138c-0.022-0.679-0.025-1.36,0.069-2.098c0.186-1.46-0.161-2.918-0.41-4.358
	c-0.503-2.907-2.685-5.056-5.77-4.967c-2.564,0.075-6.759,1.697-7.933,4.197c-0.912,1.942-0.986,4.593-0.517,6.911
	c-2.1-0.006-4.201-0.002-6.304,0.014c-0.013-0.58-0.008-1.167,0.071-1.795c0.186-1.46-0.161-2.918-0.411-4.358
	c-0.503-2.907-2.685-5.056-5.77-4.967c-2.564,0.075-6.759,1.697-7.932,4.197c-0.938,1.998-0.994,4.748-0.48,7.111
	c-1.682,0.026-3.361,0.048-5.04,0.071c-0.021-0.663-0.022-1.332,0.07-2.053c0.186-1.46-0.161-2.918-0.411-4.358
	c-0.503-2.907-2.685-5.056-5.77-4.967c-2.564,0.075-6.759,1.697-7.932,4.197c-0.957,2.037-1,4.859-0.453,7.252
	c-1.688-0.011-3.377-0.023-5.067-0.034c-0.022-0.675-0.025-1.355,0.069-2.09c0.186-1.46-0.161-2.918-0.411-4.358
	c-0.503-2.907-2.685-5.056-5.77-4.967c-2.564,0.075-6.759,1.697-7.932,4.197c-0.976,2.081-1.003,4.98-0.418,7.404
	c-0.679,0.029-1.358,0.055-2.036,0.093c-1.113,0.062-2.226,0.105-3.342,0.139c-0.034-0.815-0.06-1.622,0.054-2.508
	c0.186-1.46-0.161-2.918-0.411-4.358c-0.503-2.907-2.685-5.056-5.77-4.967c-2.564,0.075-6.759,1.697-7.933,4.197
	c-1.04,2.213-0.994,5.344-0.29,7.852c-1.734,0.048-3.467,0.128-5.195,0.25c-0.039-0.978-0.099-1.919,0.035-2.974
	c0.186-1.46-0.161-2.918-0.411-4.358c-0.503-2.907-2.685-5.056-5.77-4.967c-2.564,0.075-6.759,1.697-7.933,4.197
	c-1.183,2.519-0.966,6.225,0.036,8.849c-1.837,0.025-3.674,0.011-5.507-0.022c-0.019-1.247-0.146-2.389,0.021-3.698
	c0.186-1.46-0.161-2.918-0.411-4.358c-0.503-2.907-2.685-5.056-5.77-4.967c-2.564,0.075-6.759,1.697-7.933,4.197
	c-1.12,2.385-0.99,5.845-0.124,8.432c-1.437-0.015-2.872-0.037-4.305-0.111c-1.856-0.096-3.63-0.31-5.47-0.558
	c-0.473-0.064-0.958-0.103-1.427-0.185c-0.587-0.102-0.899-0.245-1.051-0.34c-1.635-2.737-0.868-9.329-0.918-12.37
	c-0.021-1.299-0.097-2.638-0.159-3.987c16.759,2.023,34.305,0.085,51.139,0.224c9.082,0.075,18.064,1.093,27.169,0.704
	c8.115-0.347,16.181-1.204,24.285-1.55c17.94-0.766,35.931-2.657,53.92-2.308c8.902,0.173,17.767,1.025,26.658,1.279
	c9.648,0.274,19.321,0.333,28.958,0.842c21.174,1.117,42.753,2.115,63.961,0.952c5.711,0.333,11.443,0.665,17.173,0.772
	c8.784,0.166,17.477-0.037,26.255,0.377c19.872,0.938,39.629-1.302,59.512-1.252c19.797,0.049,39.532,0.467,59.301-0.211
	c8.49-0.292,16.967-0.088,25.445-0.554c4.557-0.251,9.131-0.388,13.697-0.45c2.859-0.039,6.438,0.238,9.449-0.371
	C499.062,488.423,498.882,490.784,498.652,493.161z M499.571,481.385c-4.148,0.733-9.221-0.013-13.387,0.102
	c-4.479,0.124-8.95,0.502-13.422,0.612c-8.093,0.199-16.212,0.086-24.298,0.502c-9.558,0.491-19.196-0.11-28.763,0.438
	c-10.585,0.606-21.1,1.353-31.73,1.305c-19.317-0.089-38.694,0.538-57.977-0.023c-8.944-0.26-17.755,0.215-26.705,0.384
	c-3.379,0.064-6.857-0.002-10.351-0.033c-0.197-0.106-0.423-0.182-0.695-0.201c-10.46-0.709-20.663-0.444-31.096-0.562
	c-9.345-0.105-18.69-0.566-28.047-0.459c-18.954,0.217-37.8-2.327-56.736-2.646c-17.881-0.301-35.735,2.301-53.607,1.931
	c-17.029-0.353-33.999,2.737-51.028,1.91c-10.741-0.521-22.005-0.31-32.775-0.021c-8.845,0.237-17.822-0.461-26.7-0.025
	c0-1.133,0.042-2.255,0.181-3.344c0.488-3.852,1.751-7.028,5.585-7.268c3.671-0.231,7.329-0.531,11.007-0.608
	c17.613-0.371,35.217-0.994,52.835-1.068c16.393-0.069,32.746-1.452,49.144-1.479c18.012-0.029,36.045-0.14,54.068-0.286
	c18.005-0.146,36.079,0.846,54.073,0.892c8.079,0.021,16.116,0.002,24.19-0.016c7.357-0.018,15.435,0.878,22.853-0.288
	c2.385,1.751,6.304,1.75,9.241,1.809c8.074,0.164,15.919-0.181,23.986,0.427c7.917,0.597,16.265,0.799,24.201,0.697
	c3.687-0.047,7.479,0,11.254-0.145c6.36,0.376,12.862-0.002,19.113-0.02c4.344-0.012,8.673-0.093,13.006-0.118
	c2.584-0.015,5.198,0.211,7.708-0.084c4.977,0.403,10.051,0.305,14.943,0.367c7.935,0.102,16.284-0.1,24.201-0.697
	c8.068-0.609,15.911-0.264,23.986-0.427c2.003-0.041,4.465-0.054,6.586-0.61c1.614,0.144,3.259,0.176,5.006,0.327
	c4.073,0.348,7.94,0.718,12.037,0.579c3.536-0.12,7.23-0.077,10.765,0.182C498.536,473.883,499.698,476.567,499.571,481.385z"/>
<path d="M397.752,238.027c1.833,2.762,4.573,7.419,7.587,8.995c0.6,0.314,1.428,0.287,1.911-0.246
	c2.462-2.726,1.322-7.584,1.219-10.971c-0.085-2.822-0.326-5.619-0.63-8.411c0.436-2.821-0.04-6.133-0.074-8.599
	c-0.029-2.108-0.199-4.243-2.257-5.318c-2.494-1.302-6.714-0.209-9.371-0.061c-2.936,0.165-6.288-0.322-9.001,1.105
	c-5.785,3.045,1.876,10.242,4.021,13.523C393.337,231.378,395.549,234.707,397.752,238.027z M393.686,216.655
	c2.144-0.058,4.98-0.408,7.065-0.116c4.306,0.603,3.785,2.211,3.952,5.657c0.092,1.893,0.509,3.757,0.742,5.638
	c0.04,0.858,0.075,1.717,0.095,2.578c0.05,2.119,1.035,9.558,0.096,12.874c-1.934-1.85-3.607-5.019-4.941-6.98
	c-1.47-2.163-2.877-4.386-4.309-6.576c-0.959-1.466-1.898-2.978-2.858-4.435c-0.901-1.367-3.781-4.184-4.152-5.846
	C388.797,216.859,391.208,216.723,393.686,216.655z"/>
<path d="M361.419,254.305c-0.099,5.93-1.87,10.73,4.96,11.867c5.349,0.89,11.068,0.79,16.487,1.089
	c5.221,0.29,6.703-1.201,7.097-6.658c0.46-6.359-0.125-13.615-1.218-19.88c-0.871-4.988-2.781-9.199-7.903-10.931
	c-4.786-1.619-9.367,0.329-12.663,3.531C362.082,237.239,361.55,246.548,361.419,254.305z M374.877,233.265
	c2.078-0.422,4.152-0.485,5.756,0.249c4.737,2.165,5.362,8.811,5.702,13.327c0.293,3.898,0.709,7.994,0.631,11.895
	c-0.134,6.775-3.878,4.93-8.626,4.56c-3.664-0.285-7.326-0.178-10.974-0.701c-3.231-0.464-2.299-1.863-2.335-4.889
	c-0.021-1.701-0.05-3.4-0.081-5.099c-0.064-3.58-0.127-7.66,0.931-11.115C367.39,236.568,370.78,235.279,374.877,233.265z"/>
<path d="M376.568,342.388c-11.584,0.222-12.013,13.079-11.038,22.025c-0.09,2.267,0.363,4.322,3.176,4.507
	c5.07,0.334,10.713,0.19,15.737-0.825c0.585-0.118,1.016-0.647,1.188-1.188c1.676-5.273,1.235-12.208-0.113-17.53
	C384.376,344.87,381.555,342.292,376.568,342.388z M382.854,362.723c-0.05,2.456,0.036,2.504-2.44,2.692
	c-1.054,0.079-2.322,0.178-3.399,0.21c-1.341,0.041-2.717,0.03-4.054-0.029c-0.719-0.032-3.045,0.266-3.627-0.085
	c-0.825-0.499-1.094-1.828-1.467-3.046c0.074-3.66-0.084-7.406,0.93-10.814c1.159-3.899,5.874-7.461,10.083-5.745
	c3.607,1.47,3.997,5.309,4.226,8.774C383.284,357.379,382.909,360.032,382.854,362.723z"/>
<g>
</g>
<g>
</g>
<g>
</g>
<g>
</g>
<g>
</g>
<g>
</g>
<g>
</g>
<g>
</g>
<g>
</g>
<g>
</g>
<g>
</g>
<g>
</g>
<g>
</g>
<g>
</g>
<g>
</g>
</svg>
