<?xml version="1.0" encoding="iso-8859-1"?>
<!-- Generator: Adobe Illustrator 19.0.0, SVG Export Plug-In . SVG Version: 6.00 Build 0)  -->
<svg version="1.1" id="Layer_1" xmlns="http://www.w3.org/2000/svg" xmlns:xlink="http://www.w3.org/1999/xlink" x="0px" y="0px"
	 viewBox="0 0 512 512" style="enable-background:new 0 0 512 512;" xml:space="preserve">
<path style="fill:#FCF2E8;" d="M326.239,485.932c0.582,0.179,1.168,0.344,1.718,0.525c3.423,1.123,6.349,3.685,7.914,6.932
	c1.902,3.945,1.731,9.043-0.361,12.871c-16.468,5.646-34.082,1.324-51.446,1.585c-16.881,0.254-33.767,0.114-50.65,0.128
	c-17.619,0.014-35.239,0.003-53.327,0.001c-3.503-4.588-6.204-10.972-4.399-16.755c0.66-2.112,2.118-4.097,4.212-4.815
	c2.279-0.781,5.108-0.044,6.942-1.605c2.313-1.968,1.124-5.684-0.157-8.438c-1.977-4.252-0.347-8.206,0.121-12.584
	c0.695-6.505,0.194-13.375,0.3-19.921c0.223-13.747,0.474-27.493,0.715-41.24c0.483-27.492,0.933-54.985,1.061-82.48
	c0.105-22.322-0.165-44.643-0.481-66.962c-0.291-20.547-2.644-42.321-0.79-62.576c0.302-3.307-0.666-7.343-3.821-8.379
	c-1.098-0.36-2.288-0.281-3.422-0.498c-3.924-0.747-6.407-4.96-6.545-8.952c-0.137-3.992,1.505-7.805,3.114-11.459
	c3.202,2.092,7.772-0.507,9.119-4.086c1.982-5.267,1.832-12.514-1.771-16.966c-2.008-2.481-4.374-5.402-3.547-8.485
	c0.573-2.139,2.626-3.622,4.775-4.158c2.148-0.536,4.404-0.296,6.604-0.053c3.988,0.44,7.975,0.882,11.963,1.322
	c1.743,0.193,3.628,0.356,5.135-0.54c2.239-1.332,2.676-4.406,2.344-6.989c-0.603-4.693-0.94-9.28-0.854-14.01
	c0.063-3.539,0.474-8.185-0.713-11.538c-0.744-2.101-2.032-3.956-3.195-5.856c-0.902-1.474-1.758-3.069-1.784-4.796
	c-0.025-1.727,1.054-3.588,2.757-3.875c0.792-0.134,1.615,0.078,2.4-0.088c2.707-0.571,3.085-5.816,3.593-8.066
	c0.988-4.388-0.64-8.492-0.874-12.875c-0.914-17.094,6.678-29.478,21.418-37.53c6.077-3.319,13.686-2.962,15.905-10.711
	c0.692-2.414,1.042-4.982,2.332-7.137c1.289-2.156,3.926-3.806,6.29-2.954c2.88,1.039,3.491,4.806,3.383,7.867
	c-0.108,3.06-0.234,6.661,2.177,8.549c1.638,1.283,3.897,1.279,5.97,1.47c9.215,0.852,18.354,7.805,23.735,15.08
	c6.103,8.252,7.68,18.617,6.212,28.611c-0.223,1.517-0.641,3.012-0.768,4.535c-0.303,3.662-0.058,8.651,2.208,11.634
	c1.471,1.936,3.329,3.849,3.472,6.276c0.129,2.195-1.192,4.169-2.087,6.179c-2.308,5.19-1.706,10.791-1.335,16.279
	c0.365,5.42-1.908,15.073,3.869,18.147c2.79,1.484,6.142,1.35,9.277,0.955c3.135-0.395,6.33-1.012,9.424-0.372
	c3.095,0.64,6.119,2.947,6.414,6.094c0.28,2.982-1.847,5.564-3.371,8.142c-2.088,3.532-3.187,7.642-3.136,11.744
	c0.022,1.834,0.357,3.839,1.738,5.048c1.347,1.179,3.296,1.273,4.988,1.859c8.325,2.881,7.965,15.561,0.535,19.056
	c-1.812,0.853-3.822,1.5-5.152,2.999c-1.727,1.946-1.855,4.794-1.892,7.396c-0.707,49.512-0.184,99.121,0.472,148.744
	c0.315,23.829,0.768,47.656,1.237,71.483c0.239,12.103,0.481,24.206,0.713,36.309c0.173,9.694,2.13,22.557-3.045,31.338
	c-1.047,1.777-2.432,3.767-1.738,5.71C322.732,484.706,324.468,485.385,326.239,485.932z"/>
<g>
	<path style="fill:#C67560;" d="M218.703,188.627c0,17.506-0.255,34.717,0.783,52.206c1.167,19.685-0.115,39.462-1.509,59.021
		c-1.441,20.215,1.081,40.478-0.191,60.698c-1.244,19.778,0.71,39.703-0.074,59.55c-0.449,11.343-0.534,22.7-0.287,34.05
		c0.152,7.014-3.06,21.367,0.758,27.494c2.678,4.299,8.282,1.184,12.151,1.133c6.624-0.085,13.473,1.001,20.181,1.001
		c9.562,0,18.948-0.42,28.505-0.508c10.283-0.096,13.401,1.336,14.306-9.876c0.672-8.326,0.217-16.689,0.179-25.029
		c-0.062-13.465,0.005-26.932,0.005-40.398c0-28.378-0.398-56.286,1.386-84.637c0.98-15.58-1.332-29.914-1.536-45.204
		c-0.174-12.956-0.437-25.912-0.357-38.87c0.044-7.174,1.806-14.251,1.46-21.462c-0.375-7.808-1.362-14.549-0.964-22.557
		c0.175-3.536,2.354-12.033-0.487-14.68c-1.964-1.829-7.988-0.137-10.076,0.065c-5.036,0.488-10.144,0.369-15.239,0.369
		c-11.2,0-22.273-0.508-33.478-0.508C226.506,180.485,220.785,179.918,218.703,188.627z"/>
	<path style="fill:#C67560;" d="M219.234,156.638c-1.801-1.804-0.653-7.963-0.657-10.538c-0.01-4.638,0.376-9.55,4.129-12.751
		c2.21-1.885,3.344-1.168,3.145-4.181c-0.146-2.225-2.181-4.989-2.597-7.388c-1.343-7.766-0.906-17.925,0.419-25.687
		c0.512-3.001,2.379-4.905,3.066-7.522c1.05-4.001-1.159-7.266,4.623-8.025c3.152-0.414,6.473,0.287,7.604-3.965
		c0.7-2.63-1.591-9.056,0.146-11.208c0.98-1.214,5.036-0.478,6.555-0.478c4.908,0,9.816,0,14.725,0
		c3.382,0,14.104-2.711,15.342,1.635c1.041,3.657-2.199,6.266-2.381,9.686c-0.297,5.583,4.793,4.03,8.697,5.111
		c3.428,0.95,3.211,2.825,4.099,6.009c1.28,4.587,3.597,8.969,3.808,13.876c0.389,9.042-4.929,20.561-1.972,29.293
		c0.475,1.403,1.894,2.745,2.607,4.086c1.597,3.007,2.262,5.977,2.628,9.367c0.641,5.953,0.662,13.655-6.277,14
		c-12.18,0.604-24.502-0.772-36.696-0.669C241.285,157.364,228.531,160.992,219.234,156.638z"/>
</g>
<g>
	<path style="fill:#3F2520;" d="M249.158,127.372c0-6.54-1.719-18.816,4.604-22.853c7.907-5.05,9.227,4.339,9.825,10.538
		c0.429,4.456,0.898,9.107-0.674,13.244C258.164,128.57,253.002,126.392,249.158,127.372z"/>
	<path style="fill:#3F2520;" d="M226.468,199.386c0.001,7.64-0.796,15.357,0.001,22.97c0.574,5.493,3.662,4.921,8.708,5.32
		c14.619,1.153,29.196-0.13,43.736,0.648c3.262,0.174,5.527,0.718,7.311-2.263c3.221-5.384,1.025-15.518,0.492-21.38
		c-0.334-3.672,0.058-5.992-3.264-7.506c-5.467-2.492-14.307-0.484-20.126-0.255C258.451,197.113,226.494,194.097,226.468,199.386z"
		/>
</g>
<path style="fill:#91D5ED;" d="M244.225,249.04c-12.303,5.316-20.592,20.464-17.096,33.688c3.462,13.098,18.168,15.968,30.088,16.64
	c12.005,0.677,22.633-3.354,26.542-15.363c3.006-9.234,0.198-19.632-5.736-27.079c-3.108-3.901-6.846-7.022-11.74-8.304
	C260.817,247.188,251.234,244.84,244.225,249.04z"/>
<path style="fill:#3D7584;" d="M256.392,266.467c-5.91-0.871-6.53,8.82-4.652,12.397c1.528,2.911,3.937,3.661,7.076,2.858
	c4.519-1.156,5.065-5.507,4.527-9.792c-0.21-1.668-0.869-4.009-2.216-5.123C259.076,265.114,258.341,266.755,256.392,266.467z"/>
<path style="fill:#935447;" d="M227.784,74.43c0.905-2.273,1.812-7.408,1.242-10.121c-0.806-3.834-5.648-2.487-9.141-1.798
	c-7.065,1.393-6.519,4.489-6.906,11.34c-0.061,1.077-1.064,5.029-0.673,5.848c0.847,1.774,4.228,1.204,5.869,1.309
	c2.255,0.144,6.249,0.758,8.31-0.324C229.661,79.018,228.547,74.669,227.784,74.43z"/>
<path style="fill:#C67560;" d="M284.014,79.034c0-3.274,0.164-6.595,0-9.865c-0.196-3.937-1.184-4.967,2.952-5.59
	c2.465-0.371,8.642-1.777,10.628,0.232c1.616,1.635,2.753,11.383,2.191,13.759C298.788,81.785,288.473,80.02,284.014,79.034z"/>
<g>
	<path style="fill:#935447;" d="M238.298,78.77c0.077-0.112,0.148-0.228,0.21-0.353c1.783-3.494-3.779-10.205,0.037-13.612
		c2.276-2.028,4.061,0.689,5.253,2.135c2.422,2.939,4.445,4.288,8.285,5.261c4.768,1.208,9.057,1.592,13.959,1.57
		c2.154-0.009,4.945-0.904,6.388,0.65c5.879,6.337-10.41,5.473-12.942,5.728c-7.935,0.797-17.047,4.679-20.152,12.599
		c-1.863,4.754-0.738,9.58,0.383,14.349c0.73,3.107-0.107,9.942,2.351,12.042c2.143,1.831,5.155-0.327,6.884,1.199
		c1.166,1.028,0.71,5.048-0.123,6.213c-2.1,2.932-5.956,0.502-8.031,2.418c-2.058,1.902-0.205,7.602,1.095,9.489
		c5.545,8.042,17.087,7.658,25.484,8.059c7.387,0.353,18.711,0.45,25.024,5.039c2.354,1.711,2.508,1.974,0.515,4.578
		c-1.554,2.033-3.604,3.362-6.136,3.778c-3.587,0.589-7.552-0.469-11.129-0.643c-5.218-0.255-10.434-0.366-15.645-0.586
		c-6.354-0.269-12.906-0.421-19.231-0.338c-5.459,0.071-12.384,0.485-17.434-2.038c-7.332-3.664-4.022-13.872-2.548-20.223
		c0.784-3.378,2.471-6.135,3.369-9.362c0.733-2.637-0.042-5.161-0.337-7.808c-0.948-8.512-2.936-18.465-0.513-26.869
		c1.06-3.675,1.929-8.364,5.464-10.134C231.244,80.677,236.528,81.327,238.298,78.77z"/>
	<path style="fill:#935447;" d="M264.612,128.687c-0.001-3.326-0.776-8.705,1.94-9.865c2.292-0.979,7.406-0.654,9.933-1.068
		c2.53-0.414,7.385-1.68,9.828-1.25c3.666,0.646,4.084,8.286,1.669,10.881c-2.412,2.592-8.766,1.146-11.846,1.284
		C272.49,128.834,267.265,128.222,264.612,128.687z"/>
	<path style="fill:#935447;" d="M292.564,190.508c-4.389,0.363-9.367-0.469-13.745-0.889c-9.306-0.894-18.323-1.854-27.705-1.175
		c-5.789,0.42-15.893-2.565-18.982,4.037c-0.799,1.709-0.348,3.588-2.04,4.611c-2.202,1.333-2.569-0.781-3.789,2.289
		c-2.206,5.55-1.467,11.915-0.819,17.694c0.594,5.298-0.344,10.654,5.901,11.465c4.419,0.574,8.797-0.913,13.195-0.873
		c7.544,0.07,15.117,0.794,22.65,1.343c3.588,0.262,7.015,0.93,10.626,0.958c1.771,0.014,3.626-0.316,5.119,0.725
		c-1.696,4.127-4.207,4.936-8.729,4.882c-6.837-0.082-13.822-1.022-20.673-1.358c-6.641-0.327-23.871-0.789-20.077,9.39
		c1.449,3.888,3.167,7.878,1.438,12.021c-2.402,5.752-6.697,8.993-7.478,15.8c-0.435,3.779-0.259,8.345,0.639,12.106
		c0.859,3.598,1.193,6.291,3.836,8.707c3.121,2.856,7.114,5.59,10.817,7.647c2.067,1.148,4.231,2.025,5.357,4.306
		c2.119,4.298,0.297,11.012,0.174,15.664c-0.179,6.792-0.24,13.598,0.868,20.325c3.185,19.339,5.799,38.685,10.122,57.825
		c3.672,16.26,14.476,29.535,23.424,43.225c5.232,8.006,7.642,16.203,8.718,25.656c0.557,4.899,1.756,11.944-3.181,13.722
		c-3.355,1.208-7.596,0.613-11.089,0.581c-7.492-0.068-14.845-0.306-22.349-0.017c-7.238,0.279-14.38,0.603-21.583,0.661
		c-2.763,0.022-9.144,1.612-11.681-0.052c-2.917-1.913-1.638-8.592-1.637-11.674c0.001-7.57,0.909-15.08,0.67-22.65
		c-1.712-54.254,0.683-108.572-1.422-162.796c-0.252-6.503-0.495-13.008-0.571-19.515c-0.098-8.207,0.008-16.423,0.008-24.631
		c0-11.481-1.762-22.853-0.748-34.392c0.447-5.085,1.099-10.604,1.054-15.686c-0.035-3.86-1.256-7.274,3.52-8.464
		c7.426-1.851,16.557-1.572,24.16-1.668c9.324-0.12,18.608,0.342,27.914,0.337c4.346-0.003,12.543-1.613,16.619,0.325
		C294.036,182.368,293.38,186.425,292.564,190.508z"/>
</g>
<path style="fill:#5BA0B2;" d="M227.354,275.794c-0.34-4.71,1.651-10.863,3.567-15.104c1.558-3.446,8.903-10.108,12.793-6.111
	c3.708,3.811-3.099,15.176-2.35,20.267c0.909,6.18,4.253,11.585,10,14.268c9.504,4.438,18.548,0.435,25.072-6.705
	c3.316-3.628,7.368-7.03,7.344,0.444c-0.02,6.294-6.183,9.489-11.342,12.08c-5.497,2.76-13.744,3.928-19.867,3.91
	C239.657,298.804,222.343,292.745,227.354,275.794z"/>
<g>
	<path style="fill:#D3C8BE;" d="M174.719,168.375c4.15,1.674,11.069,0.836,15.669,1.024c9.783,0.399,19.631,0.128,29.425,0.128
		c22.888,0,45.928,1.463,68.788,0.598c13.048-0.493,25.673-0.368,38.617,0.576c6.537,0.476,9.2-0.344,8.239,7.372
		c-10.217,5.585-27.035-3.052-29.3,13.647c-1.365,10.062-0.555,22.106-0.022,32.218c2.477,46.991,1.885,94.008,4.776,140.997
		c1.401,22.779,1.87,45.687,2.758,68.51c0.469,12.081,1.011,24.273,0.558,36.38c-0.161,4.302,0.062,10.292-3.603,13.51
		c-3.996,3.509-11.255,1.168-14.406-2.504c-3.265-3.806-2.178-10.141-2.166-14.816c0.024-9.458-0.577-18.919-0.577-28.436
		c0-20.889,0-41.648,0-62.628c0-15.866,2.625-31.622,2.375-47.495c-0.238-15.096-1.024-30.263-1.671-45.416
		c-0.912-21.389,1.947-43.296,1.055-64.716c-0.385-9.23,1.794-18.452,0.623-27.706c-0.543-4.29-0.997-8.025-5.183-9.466
		c-5.457-1.879-16.808,0.503-22.984,0.201c-11.578-0.566-23.105,0.046-34.677-0.073c-6.271-0.065-12.927-1.909-18.658,1.346
		c-17.951,10.197-7.506,37.384-7.343,53.359c0.428,42.125-0.018,84.374-0.014,126.509c0.003,23.911-0.754,47.962,0.128,71.854
		c0.369,9.974,2.025,20.248,1.833,30.197c-0.12,6.258-1.622,11.424,2.175,17.167c6.376,9.642,20.334,11.709,30.932,12.285
		c16.176,0.879,32.25-0.841,48.452,0.219c8.982,0.587,17.966,1.553,26.903,2.592c3.005,0.349,15.189-0.41,17.585,1.699
		c10.045,8.85-16.73,9.671-21.048,9.997c-17.281,1.306-34.519-2.11-51.808-1.352c-9.219,0.405-18.338,1.512-27.63,1.2
		c-8.289-0.278-14.998-1.174-22.962,0.619c-5.425,1.221-11.087,1.891-16.674,2.002c-9.584,0.191-20.765-2.041-19.015-14.145
		c0.974-6.736,7.072-7.617,10.613-12.667c4.593-6.552-0.815-19.253-0.955-26.689c-0.22-11.721,1.42-23.353,2.517-34.995
		c1.841-19.543,2.414-38.973,3.375-58.524c1.683-34.269-0.816-68.096-1.718-102.338c-0.46-17.48-1.049-35.044-1.679-52.461
		c-0.27-7.486,3.964-18.131-0.322-25.012c-2.937-4.717-6.156-1.631-9.911-4.199C175.264,177.214,175.152,168.549,174.719,168.375z"
		/>
	<path style="fill:#D3C8BE;" d="M183.941,140.126c-1.588-4.804-6.271-7.513-0.028-11.109c2.78-1.601,13.658-2.789,16.197-0.303
		c2.216,2.17,0.791,6.317,2.364,9.09c2.226,3.925,6.468,4.764,10.161,6.501c6.341,2.98,7.323,5.819,6.948,13.016
		c-7.049,2.646-19.892,3.291-27.571,1.83C183.005,157.437,186.852,146.823,183.941,140.126z"/>
	<path style="fill:#D3C8BE;" d="M294.05,159.15c0.315-5.051,0.782-11.647-1.025-17.295c-1.302-4.068-7.539-8.809-3.008-11.4
		c1.559-0.891,8.376-0.459,9.828,0.012c5.203,1.687,3.271,4.424,5.711,9.517c4.438,9.265,16.139,3.831,17.303,13.543
		c0.718,5.994-0.472,5.72-6.605,5.495C309.833,158.786,301.855,157.563,294.05,159.15z"/>
	<path style="fill:#D3C8BE;" d="M212.189,61.723c-0.897-10.235,4.13-25.027,11.522-32.317c6.564-6.473,15.992-6.899,22.677-12.303
		c4.422-3.574,4.072-13.836,10.684-14.093c1.822,4.757-3.662,8.808-1.729,13.601c-0.244-0.608-3.957,8.872-3.833,10.761
		c0.244,3.717,1.46,9.163,3.288,12.416c4.284,7.626,13.249,8.793,21.109,9.971c5.844,0.876,19.955-0.568,23.824,4.47
		c6.109,7.954-7.148,8.469-12.021,8.474c-8.944,0.012-17.595,2.032-26.496,1.9c-3.498-0.052-6.314-0.871-9.577-1.175
		C248.758,63.162,212.302,62.988,212.189,61.723z"/>
	<path style="fill:#D3C8BE;" d="M216.801,83.63c-2.862,9.566-0.482,20.493,0,30.336c0.146,2.983,1.548,19.859-6.225,12.209
		c-3.017-2.969,0.46-17.138,0.46-21.791c0-2.441,0.778-6.376,0.014-8.661c-0.657-1.961-2.639-3.137-3.601-5.034
		C203.15,82.215,214.269,79.967,216.801,83.63z"/>
	<path style="fill:#D3C8BE;" d="M295.203,81.9c2.771,10.466,1.704,24.015,1.175,34.84c-0.429,8.762-0.841,9.257-8.582,11.206
		c-1.284-10.644,3.336-22.292,0.361-32.786c-0.854-3.014-4.366-6.596-3.905-9.798C285.22,78.636,292.709,84.119,295.203,81.9z"/>
	<path style="fill:#D3C8BE;" d="M232.366,64.029c0,2.346,1.228,15.961-1.759,15.621c-2.918-0.332-0.821-14.792,0.03-16.774"/>
</g>
<path d="M330.355,481.913c-1.204-0.24-2.494-0.379-3.827-0.45c1.962-2.395,2.745-5.52,3.181-8.772
	c1.395-10.416-1.331-21.198-1.195-31.625c0.159-12.164-0.619-24.237-0.635-36.419c-0.018-13.606-0.41-27.172-0.631-40.771
	c-0.193-11.899,0.278-24.229-0.661-36.066c-0.997-12.572-0.492-25.323-0.564-37.957c-0.073-12.906-0.137-25.812-0.158-38.718
	c-0.017-11.047,0.625-21.995,0.881-33.009c0.265-11.415,1.563-22.666,0.623-34.082c4.208-0.309,8.623-1.102,10.635-3.779
	c2.358-3.136,1.479-9.313,1.761-13.099c0.423-5.693-2.353-8.469-7.763-9.744c-1.444-0.34-2.984-0.671-4.538-0.919
	c0.119-0.897,0.122-1.831,0.075-2.767c0.625-3.836,0.769-7.814,1.583-11.594c0.236-1.096,0.217-2.072,0.826-2.916
	c0.248-0.344,1.033-0.431,1.352-0.813c1.087-1.301,1.808-2.567,2.044-4.278c1.405-10.149-13.355-8.602-19.574-8.663
	c-3.291-0.032-6.705-0.119-10.098-0.097c0.024-0.182,0.033-0.374,0.017-0.579c-0.017-0.216-0.046-0.432-0.068-0.648
	c0.739-3.627,0.45-7.711,0.815-11.356c0.336-3.349,0.138-6.758,0.092-10.125c-0.033-2.443-1.208-6.708-0.072-8.8
	c1.092-2.01,2.948-2.58,3.513-5.027c0.663-2.869,0.097-6.819-2.776-8.358c-0.511-0.274-1.816-0.264-2.165-0.56
	c-0.701-0.597-0.741-2.236-0.897-3.142c-0.505-2.923-1.241-6.678-0.934-9.656c0.333-3.233,2.445-5.826,2.407-9.235
	c-0.04-3.617-0.668-7.217-1.704-10.678c-2.074-6.929-5.778-13.433-10.606-18.813c-3.193-3.557-8.245-7.184-13.681-9.43
	c-1.676-1.426-4.614-2.219-6.051-2.594c-1.777-0.463-3.475-0.733-5.146-0.902c-0.053-0.265-0.152-0.54-0.319-0.822
	c-1.92-3.243-0.851-7.516-2.412-10.841c-1.477-3.146-4.715-4.297-7.98-3.619c-3.342,0.694-4.636,2.251-5.127,5.472
	c-0.374,2.449-1.096,4.638-2.128,6.902c-0.186,0.406-0.79,2.12-1.424,3.397c-1.484,0.238-2.972,0.517-4.429,0.872
	c-8.17,0.753-17.116,6.239-21.897,11.566c-4.829,5.38-8.532,11.884-10.606,18.813c-1.035,3.461-1.664,7.061-1.703,10.678
	c-0.038,3.409,2.074,6.002,2.407,9.235c0.307,2.978-0.429,6.732-0.934,9.656c-0.157,0.905-0.196,2.545-0.897,3.142
	c-0.349,0.297-1.653,0.287-2.165,0.56c-2.873,1.539-3.44,5.489-2.776,8.358c0.566,2.447,2.421,3.017,3.514,5.027
	c1.137,2.093-0.037,6.356-0.071,8.8c-0.046,3.367-0.243,6.775,0.092,10.125c0.365,3.645,0.076,7.728,0.815,11.356
	c-0.022,0.216-0.051,0.431-0.068,0.648c-0.016,0.205-0.007,0.397,0.017,0.579c-3.393-0.022-6.807,0.065-10.098,0.097
	c-6.219,0.061-20.98-1.485-19.574,8.664c0.238,1.711,0.957,2.977,2.044,4.278c0.319,0.383,1.105,0.47,1.352,0.813
	c0.609,0.844,0.59,1.819,0.827,2.916c0.814,3.782,0.959,7.758,1.583,11.594c-0.048,0.937-0.044,1.87,0.075,2.767
	c-1.554,0.249-3.095,0.579-4.538,0.919c-5.411,1.275-8.187,4.05-7.763,9.744c0.281,3.786-0.597,9.963,1.761,13.099
	c2.013,2.677,6.427,3.47,10.636,3.779c-0.941,11.416,0.357,22.669,0.623,34.082c0.256,11.013,0.899,21.961,0.881,33.009
	c-0.021,12.906-0.085,25.812-0.158,38.718c-0.071,12.634,0.434,25.386-0.564,37.957c-0.939,11.838-0.469,24.168-0.661,36.066
	c-0.219,13.598-0.612,27.165-0.631,40.771c-0.016,12.182-0.793,24.255-0.635,36.419c0.136,10.428-2.59,21.21-1.194,31.625
	c0.436,3.251,1.219,6.377,3.181,8.772c-1.333,0.07-2.623,0.209-3.827,0.45c-10.769,2.149-10.627,15.857-8.723,24.586
	c1.226,5.622,5.985,4.768,10.727,5.135c6.986,0.543,14.106,0.35,21.119,0.244c7.237-0.108,14.362-1.188,21.568-1.258
	c10.357-0.101,20.713-0.265,31.069-0.409c5.184-0.073,10.368-0.141,15.551-0.194c4.334-0.045,8.428,0.562,12.704,0.604
	c7.207,0.07,14.33,1.15,21.568,1.258c7.015,0.106,14.133,0.297,21.119-0.244c4.742-0.368,9.502,0.487,10.727-5.135
	C340.981,497.769,341.123,484.062,330.355,481.913z M306.407,130.602c5.329-0.483,10.878-1.361,16.237-1.208
	c2.236,0.063,4.426,0.145,5.467,2.41c1.107,2.407,0.194,4.614-1.952,5.801c-1.845,1.02-3.391,1.11-4.11,3.371
	c-1.108,3.479-0.038,7.24-0.126,10.72c-0.009,0.386-0.032,0.773-0.035,1.16c-0.007,0.915,0.311,2.312,0.092,3.309
	c-1.979,0.156-3.741,0.813-5.789,0.708c-1.769-0.091-3.485-0.61-5.268-0.643c-5.035-0.092-10.129,0.15-15.214,0.379
	c1.754-4.166-0.709-10.816-0.944-14.858c-0.112-1.932-0.039-3.242-0.935-5.033c-0.454-0.909-1.227-1.703-1.796-2.542
	c-1.063-1.569-1.626-1.575-0.317-2.389c1.032-0.642,4.889-0.683,6.132-0.804C300.689,130.708,303.558,130.861,306.407,130.602z
	 M304.183,85.578c1.264,2.297-2.686,4.237-3.777,5.793c-2.16,3.081-0.847,6.83-0.715,10.315c0.19,5.014-0.339,9.909-0.417,14.891
	c-0.001,0.088,0.003,0.163,0.002,0.249c-0.066,0.262-0.135,0.519-0.169,0.808c-0.285,2.379-0.673,4.788-0.862,7.159
	c-0.021,0.267,0.005,0.507,0.051,0.733c-0.88,0.051-1.751,0.115-2.613,0.199c-1.177,0.115-2.632,0.159-4.092,0.329
	c0.915-3.56,0.71-8.119,0.574-11.334c-0.213-5.01-0.753-10.003-0.95-15.029c-0.174-4.44,0.371-8.743-2.322-12.565
	c-0.764-1.084-2.481-2.188-1.252-3.474c0.062-0.066,0.156-0.105,0.235-0.156c1.723,0.01,3.473-0.015,5.221-0.101
	c0.042,0.001,0.093,0.007,0.133,0.007C296.223,83.404,302.33,82.211,304.183,85.578z M228.873,83.375
	c0.5-0.022,1.012-0.04,1.498-0.067c2.214-0.119,4.519-0.104,6.853-0.08c0.86,0.115,1.734,0.164,2.623,0.123
	c3.954-0.178,7.702,0.074,11.682,0.193c4.022,0.12,7.662-0.262,11.611-0.557c0.263-0.02,0.521-0.031,0.777-0.039
	c5.842,0.618,12.072,0.058,17.716,0.36c0.485,0.025,0.996,0.045,1.498,0.067c-0.326,1.533,0.053,3.167,0.967,4.563
	c4.343,6.626,1.841,15.488,2.382,23.106c0.194,2.716-0.333,5.434-0.595,8.127c-0.187,1.923,0.679,5.986-0.77,7.423
	c-1.299,1.288-2.695,0.412-4.163,0.205c-2.543-0.357-5.188,0.027-7.757-0.312c-2.364-0.312-4.901-0.327-7.449-0.137
	c0.001-0.008,0.005-0.016,0.006-0.025c0.766-6.028,1.327-28.247-10.185-24.911c-4.243,1.229-6.414,5.412-7.251,9.454
	c-0.994,4.791-1.673,10.543-0.859,15.601c-2.443-0.24-4.896-0.31-7.223-0.119c-2.148-0.057-4.475-0.142-6.566,0.288
	c-0.877,0.008-1.751,0.042-2.613,0.163c-1.469,0.206-2.864,1.083-4.163-0.205c-1.449-1.437-0.583-5.5-0.77-7.423
	c-0.262-2.695-0.789-5.411-0.595-8.127c0.541-7.618-1.961-16.48,2.382-23.106C228.82,86.544,229.2,84.909,228.873,83.375z
	 M236.139,77.606c-1.716,0.137-3.377,0.33-4.905,0.583c-0.37,0.061-0.744,0.1-1.116,0.15c-0.77-1.621-0.123-4.793-0.099-6.385
	c0.035-2.27,0.127-4.855-0.457-7.15c2.098,0.212,4.218,0.503,6.34,0.782c-0.013,1.378,0.146,2.892,0.084,4.088
	C235.88,71.72,235.432,75.102,236.139,77.606z M240.11,66.097c1.296,0.138,2.591,0.248,3.88,0.314
	c3.583,0.854,7.531,1.07,10.935,0.785c3.835-0.321,7.591,0.096,11.197-0.726c1.913-0.023,3.839-0.167,5.771-0.372
	c-0.308,1.551-0.183,3.235-0.22,4.8c-0.045,1.93-0.135,3.807-0.498,5.706c-0.058,0.3-0.107,0.559-0.149,0.802
	c-2.624-0.013-5.271,0.138-7.773,0.487c-0.924-0.022-1.852-0.006-2.789,0.106c-2.813,0.334-5.663,0.469-8.522,0.475
	c-3.361-0.77-7.188-1.085-10.965-1.067c-0.042-0.243-0.092-0.504-0.149-0.802c-0.362-1.899-0.453-3.777-0.498-5.706
	C240.294,69.332,240.418,67.647,240.11,66.097z M276.017,69.674c-0.063-1.197,0.097-2.711,0.084-4.088
	c2.123-0.279,4.241-0.57,6.34-0.782c-0.583,2.294-0.491,4.878-0.457,7.15c0.024,1.593,0.671,4.765-0.099,6.385
	c-0.372-0.05-0.746-0.089-1.116-0.15c-1.528-0.254-3.189-0.446-4.905-0.583C276.571,75.102,276.124,71.72,276.017,69.674z
	 M260.986,126.711c-0.093,0.055-0.198,0.106-0.316,0.153c-1.486,0.593-4.735-0.219-6.394-0.186
	c-1.206,0.024-2.402,0.005-3.596-0.027c0.882-5.659-0.307-11.804,1.89-17.232c1.086-2.684,3.126-5.786,6.959-2.712
	c1.258,1.009,1.727,3.773,2.111,5.356c0.962,3.967,0.163,7.934,0.029,11.936C261.628,125.183,261.932,126.15,260.986,126.711z
	 M225.491,134.863c2.145-3.876,7.29-2.507,11.153-2.599c4.215-0.101,8.538,0.029,12.793-0.342c1.598,0.101,3.202,0.182,4.839,0.209
	c6.761,0.106,14.328,1.953,20.996,0.133c0.03,0,0.06,0,0.089,0.001c3.863,0.093,9.008-1.277,11.153,2.599
	c0.831,1.503,1.977,2.885,2.771,4.427c1.42,2.761,1.257,7.55,0.782,10.503c-0.53,3.288-1.755,5.285-4.734,6.247
	c-3.911,1.263-7.886,1.009-12.056,1.114c-0.363,0.009-0.719,0.035-1.075,0.065c-5.835-0.006-11.615,0.074-17.417-0.158
	c-3.83-0.153-7.784,0.469-11.679,0.656c-1.424-0.294-2.863-0.525-4.376-0.563c-4.169-0.105-8.145,0.149-12.056-1.114
	c-2.98-0.962-4.205-2.959-4.734-6.247c-0.476-2.953-0.639-7.741,0.782-10.503C223.513,137.746,224.658,136.366,225.491,134.863z
	 M285.669,78.689c0.329-1.724-0.003-3.813-0.114-5.229c-0.223-2.843,0.068-6.059-0.711-8.863c1.385-0.092,2.758-0.136,4.115-0.101
	c0.811,0.021,5.944-0.077,7.032,1.037c1.34,1.37-0.139,4.151-0.08,5.934c0.107,3.176,1.136,5.492,2.839,7.717
	C294.435,78.736,290.013,78.922,285.669,78.689z M254.349,7.752c0.372-1.701,0.303-3.238,2.425-3.711
	c1.894-0.423,3.242,0.82,3.5,2.494c0.136,0.884-0.051,1.81-0.005,2.706c0.091,1.751,0.066,4.1,0.704,5.99
	c-2.184,0.005-4.401,0.082-6.759,0.088c-0.879,0.002-1.787,0.039-2.713,0.104C253.011,12.768,253.992,9.376,254.349,7.752z
	 M225.547,30.725c4.542-4.426,10.234-6.675,16.099-8.495c4.095-0.841,8.585-1.471,12.569-1.468
	c4.039,0.003,8.036-0.285,12.037,0.244c7.264,2.113,14.607,4.264,20.205,9.718c7.17,6.988,11.903,19.189,11.086,29.402
	c-2.121,0.483-4.336,0.604-6.52,1.033c-5.018-0.819-9.857-0.924-14.974-0.733c-5.296,0.197-10.591-0.092-15.784,0.864
	c-1.671,0.127-3.277,0.319-4.621,0.49c-0.422,0.053-0.844,0.091-1.267,0.123c-6.03-1.683-12.225-1.245-18.421-1.477
	c-5.117-0.191-9.956-0.085-14.974,0.733c-2.184-0.429-4.397-0.55-6.52-1.033C213.644,49.914,218.377,37.714,225.547,30.725z
	 M216.093,71.467c0.06-1.784-1.419-4.566-0.08-5.934c1.09-1.114,6.221-1.016,7.032-1.037c1.358-0.033,2.731,0.009,4.115,0.101
	c-0.779,2.804-0.49,6.02-0.711,8.863c-0.111,1.417-0.443,3.505-0.114,5.229c-4.342,0.232-8.766,0.046-13.081,0.495
	C214.957,76.959,215.985,74.644,216.093,71.467z M207.821,85.578c1.853-3.368,7.96-2.175,10.956-2.178
	c0.039,0,0.091-0.006,0.133-0.007c1.749,0.086,3.499,0.112,5.221,0.101c0.078,0.052,0.173,0.09,0.235,0.156
	c1.228,1.286-0.489,2.39-1.252,3.474c-2.693,3.822-2.148,8.125-2.322,12.565c-0.197,5.026-0.738,10.019-0.951,15.029
	c-0.136,3.215-0.341,7.773,0.574,11.334c-1.46-0.168-2.915-0.212-4.092-0.329c-0.861-0.084-1.733-0.15-2.613-0.199
	c0.046-0.226,0.071-0.466,0.051-0.733c-0.189-2.371-0.578-4.78-0.862-7.159c-0.035-0.289-0.104-0.547-0.169-0.808
	c-0.001-0.086,0.003-0.161,0.002-0.249c-0.078-4.981-0.608-9.875-0.417-14.891c0.133-3.484,1.444-7.233-0.715-10.315
	C210.508,89.816,206.557,87.876,207.821,85.578z M183.892,131.805c1.041-2.264,3.232-2.346,5.467-2.41
	c5.359-0.152,10.908,0.725,16.237,1.208c2.848,0.258,5.718,0.106,8.556,0.382c1.244,0.12,5.1,0.161,6.132,0.804
	c1.307,0.814,0.746,0.82-0.317,2.389c-0.568,0.839-1.342,1.634-1.796,2.542c-0.896,1.791-0.823,3.099-0.935,5.033
	c-0.234,4.044-2.698,10.694-0.944,14.858c-5.085-0.229-10.179-0.473-15.214-0.379c-1.783,0.032-3.499,0.552-5.268,0.643
	c-2.048,0.105-3.812-0.552-5.789-0.708c-0.219-0.997,0.099-2.392,0.092-3.309c-0.002-0.386-0.025-0.772-0.035-1.16
	c-0.088-3.481,0.982-7.242-0.126-10.72c-0.719-2.26-2.264-2.35-4.11-3.371C183.697,136.419,182.785,134.212,183.892,131.805z
	 M183.882,177.055c-2.967-0.118-5.379,0.768-6.115-2.937c-0.294-1.476-0.538-4.834-0.33-6.309c0.883-6.21,12.089-4.424,16.459-4.519
	c2.71-0.058,5.319-1,8.009-1.132c3.183-0.158,6.439-0.018,9.631-0.096c6.766-0.164,13.535-0.197,20.301-0.336
	c0.601-0.013,1.207-0.02,1.815-0.027c0.645,0.06,1.279,0.113,1.886,0.174c5.425,0.548,10.942,0.372,16.344,0.119
	c9.241-0.435,21.085,3.129,30.202-0.238c6.129,0.11,12.26,0.157,18.388,0.306c3.191,0.077,6.446-0.061,9.631,0.096
	c2.689,0.133,5.298,1.075,8.009,1.132c4.369,0.093,15.576-1.693,16.459,4.519c0.21,1.475-0.036,4.834-0.33,6.309
	c-0.737,3.705-3.149,2.819-6.115,2.937c-6.884,0.273-13.641,0.737-20.553,0.717c-11.042-0.03-22.683-1.331-33.661,0.466
	c-7.953,0.036-16.115,0.7-24.009-0.136c-4.839-0.513-9.729-0.498-14.598-0.249c-10.146-1.194-20.755-0.108-30.865-0.081
	C197.523,177.79,190.766,177.327,183.882,177.055z M290.528,231.506c0.218,5.949,0.123,11.905,0.114,17.857
	c-0.018,10.991-0.197,21.992,0.238,32.978c0.42,10.595-0.354,20.96-0.339,31.499c0.031,22.112-0.852,44.346-1.309,66.473
	c-0.217,10.536,0.551,20.964,0.551,31.475c0,4.854-0.656,9.593-0.583,14.481c0.078,5.283-0.003,10.574-0.006,15.858
	c-0.003,9.739,0.18,19.502-0.043,29.237c-0.051,2.243-0.458,5.183-0.143,7.807c-0.119,0.003-0.238,0.005-0.356,0.006
	c-2.82-0.218-5.953-0.65-8.75-0.12c-2.294,0.436-4.099,0.64-6.476,0.422c-6.472-0.596-12.963-0.959-19.461-1.066
	c-7.86-0.131-15.691,0.538-23.504,0.657c-2.068,0.031-4.612-0.084-7.11,0.108c-0.118-0.001-0.236-0.003-0.356-0.006
	c0.315-2.624-0.092-5.565-0.143-7.807c-0.223-9.737-0.039-19.498-0.043-29.237c-0.001-5.284-0.084-10.575-0.006-15.858
	c0.073-4.889-0.583-9.627-0.583-14.481c0-10.512,0.768-20.938,0.551-31.475c-0.457-22.126-1.34-44.36-1.309-66.473
	c0.015-10.539-0.759-20.905-0.339-31.499c0.435-10.986,0.256-21.986,0.238-32.978c-0.009-5.953-0.104-11.908,0.114-17.857
	c0.191-5.228-0.777-10.188-0.82-15.363c-0.089-10.622,0.069-21.15-0.627-31.734c1.286-0.106,2.57-0.238,3.853-0.37
	c7.098-0.025,14.174-0.679,21.3-0.323c8.434,0.422,16.701,0.608,25.168,0.621c4.801,0.008,9.602,0.016,14.403,0.024
	c1.975,0.003,3.897,0.068,5.774-0.092c0.483,0.044,0.964,0.099,1.447,0.14c-0.696,10.583-0.538,21.111-0.627,31.734
	C291.305,221.318,290.337,226.278,290.528,231.506z M214.204,505.474c-10.117,0.854-20.946,0.148-30.924-1.184
	c-0.783-0.105-1.993-0.522-2.788-0.38c-0.368,0.066-0.616,0.091-0.807,0.105c-0.444-1.51-0.375-3.636-0.394-4.917
	c-0.032-2.186-0.334-6.077,0.671-8.089c1.28-2.558,4.092-2.652,6.761-2.663c3.884-0.017,7.798-0.143,11.59-0.771
	c0.661-0.11,1.31-0.256,1.955-0.412c1.495,0.158,2.957,0.261,4.32,0.327c2.73,0.135,8.019-1.424,9.713,1.416
	c1.331,2.23,1.009,5.606,0.402,8.007C214.468,497.844,213.574,505.527,214.204,505.474z M215.518,422.725
	c0.014,12.024-0.116,24.059-0.12,36.087c-0.001,4.333-0.059,8.669,0.045,13.002c0.04,1.713,0.99,5.576-0.371,7.022
	c-0.066,0.069-0.136,0.134-0.212,0.191c-1.444,1.092-5.684,0.417-7.393,0.45c-3.931,0.073-11.948-0.005-15.184-2.592
	c-3.494-2.795-2.18-10.447-2.153-14.299c0.039-5.42,0.654-11.019,1.129-16.415c0.491-5.58-0.382-11.249-0.002-16.849
	c0.762-11.246,0.575-22.464,0.56-33.763c-0.016-12.406,0.285-24.801,0.619-37.201c0.294-10.908-0.113-22.005,0.85-32.84
	c1.04-11.702-0.016-23.907-0.031-35.666c-0.015-11.905,0.04-23.81,0.024-35.715c-0.008-5.745,0.339-11.624-0.181-17.344
	c-0.504-5.541-1.012-11.19-0.925-16.755c0.098-6.265-0.499-12.791-0.936-19.053c-0.387-5.556-0.557-11.132-1.053-16.679
	c0.567,0.027,1.105,0.056,1.581,0.098c8.031,0.713,16.075,0.789,24.085,0.318c-1.179,17.92-0.046,35.714-0.134,53.617
	c-0.051,10.288-0.022,20.577-0.05,30.865c-0.029,10.584-1.027,21.162-0.778,31.745c0.491,20.832,1.033,41.594,0.827,62.486
	c-0.107,10.873,0.485,21.797-0.091,32.659c-0.246,4.622-0.741,9.125-0.774,13.767C214.82,414.193,215.514,418.422,215.518,422.725z
	 M295.244,498.002c-0.023,1.509-0.219,2.993-0.668,4.363c-1.622,4.959-4.708,1.138-8.31,1.754c-3.774,0.646-7.82-0.263-11.616-0.459
	c-8.612-0.446-17.231-0.809-25.857-0.764c-5.843,0.03-11.627,0.645-17.475,0.813c-2.91,0.084-5.629,0.64-8.361,1.244
	c-0.877,0.02-4.238,0.666-4.876,0.167c-0.692-0.542-0.278-1.705-0.259-2.561c0.063-3.064-0.369-6.091-0.053-9.159
	c0.466-4.528,1.631-6.789,6.296-7.008c2.464-0.115,4.906-0.446,7.306-1.015c0.037,0,0.078,0,0.115,0
	c5.012,0.069,11.336,0.76,16.356-0.715c0.993,0.02,1.988,0.035,2.991,0.036c4.591,0.008,9.182,0.05,13.773,0.086
	c4.944,1.31,11.043,0.659,15.908,0.593c0.037,0,0.077,0,0.114,0c1.467-0.01,3.148,0.642,4.63,0.808
	c1.59,0.179,3.198-0.136,4.727,0.059c2.692,0.342,3.972,2.804,4.501,5.207C294.939,493.495,295.279,495.775,295.244,498.002z
	 M296.56,471.814c0.103-4.332,0.046-8.668,0.045-13.001c-0.003-12.028-0.134-24.063-0.121-36.087
	c0.005-4.304,0.699-8.533,0.668-12.864c-0.033-4.643-0.529-9.144-0.774-13.767c-0.577-10.862,0.016-21.787-0.091-32.659
	c-0.206-20.892,0.335-41.653,0.827-62.486c0.249-10.583-0.749-21.161-0.778-31.745c-0.028-10.288,0.001-20.577-0.05-30.865
	c-0.088-17.904,1.046-35.697-0.134-53.617c8.01,0.47,16.054,0.394,24.085-0.318c0.476-0.043,1.015-0.073,1.581-0.098
	c-0.496,5.547-0.665,11.123-1.053,16.679c-0.437,6.261-1.034,12.787-0.936,19.053c0.088,5.567-0.422,11.214-0.925,16.755
	c-0.52,5.72-0.173,11.599-0.181,17.344c-0.016,11.905,0.039,23.81,0.024,35.715c-0.015,11.759-1.071,23.965-0.031,35.666
	c0.963,10.836,0.556,21.932,0.85,32.84c0.334,12.401,0.636,24.795,0.62,37.201c-0.015,11.299-0.202,22.515,0.56,33.763
	c0.379,5.601-0.493,11.269-0.002,16.849c0.475,5.395,1.09,10.995,1.129,16.415c0.028,3.852,1.341,11.506-2.153,14.299
	c-3.234,2.587-11.253,2.666-15.184,2.592c-1.879-0.036-6.145,0.846-7.607-0.627c-0.103-0.104-0.191-0.218-0.265-0.346
	C295.573,476.598,296.512,473.859,296.56,471.814z M332.713,499.097c-0.02,1.281,0.05,3.407-0.394,4.917
	c-0.193-0.015-0.439-0.039-0.807-0.105c-0.794-0.142-2.005,0.276-2.788,0.38c-8.868,1.184-18.835,2.61-27.765,1.439
	c-4.507-0.591-2.671-7.867-2.299-11.137c0.224-1.972,0.091-4.491,1.612-6.005c1.809-1.801,4.851-0.987,7.145-1.1
	c1.363-0.067,2.826-0.169,4.32-0.327c0.646,0.156,1.295,0.302,1.955,0.412c3.792,0.63,7.705,0.754,11.59,0.771
	c2.669,0.012,5.481,0.105,6.761,2.663C333.049,493.019,332.746,496.91,332.713,499.097z"/>
<path d="M283.074,195.19c-4.546-0.955-8.992-0.556-13.569-0.368c-1.517,0.062-3.063,0.096-4.608,0.173
	c-4.987-0.309-10.036-0.242-14.701,0.062c-0.374,0.024-0.749,0.046-1.125,0.07c-2.19-0.183-4.41-0.217-6.57-0.304
	c-4.578-0.188-9.024-0.587-13.569,0.368c-6.784,1.425-5.027,12.26-5.186,17.657c-0.129,4.374-0.445,9.26,0.138,13.591
	c0.344,2.55,0.896,4.492,3.577,5.229c2.88,0.791,7.147,0.165,10.122,0.16c0.533-0.001,1.06-0.009,1.584-0.023
	c3.807,0.211,7.602-0.264,11.54-0.195c5.064,0.09,10.678,0.28,15.987-0.379c2.509,0.43,5.055,0.591,7.731,0.596
	c2.975,0.005,7.241,0.631,10.122-0.16c2.682-0.737,3.233-2.678,3.577-5.229c0.583-4.332,0.267-9.217,0.138-13.591
	C288.101,207.45,289.858,196.615,283.074,195.19z M241.838,227.045c-3.017-0.179-6.04-0.289-9.009-0.449
	c-3.907-0.209-3.948,0.093-4.084-4.234c-0.111-3.519-0.391-7.024-0.52-10.549c-0.11-2.978,0.053-5.891,0.145-8.863
	c0.068-2.201-0.19-2.912,1.636-3.858c0.008-0.005,0.033-0.01,0.068-0.016c2.32,1.143,4.151,0.658,6.706,0.719
	c2.608,0.063,5.096,0.249,7.612,0.272c-0.759,2.97-0.336,6.632-0.12,9.393c0.235,3.006,0.619,5.907,0.55,8.947
	c-0.066,2.946-0.488,5.609,0.352,8.416C244.064,226.878,242.95,226.944,241.838,227.045z M263.987,213.988
	c-0.055,3.848-0.598,8.035-0.259,11.936c-4.381,0.054-8.858,0.679-13.023,0.743c-0.763,0.012-1.542,0.025-2.328,0.044
	c0.558-3.71,0.243-21.984-0.55-26.742c0.181-0.013,0.36-0.021,0.541-0.037c5.364-0.476,10.794-0.267,16.198-0.392
	C263.864,204.286,264.057,209.216,263.987,213.988z M283.778,211.815c-0.129,3.525-0.41,7.03-0.52,10.549
	c-0.136,4.327-0.175,4.025-4.084,4.234c-2.275,0.121-4.581,0.216-6.893,0.333c-1.019-0.308-2.064-0.523-3.122-0.681
	c-0.092-0.203-0.204-0.397-0.349-0.567c-0.634-4.301,0.005-9.265-0.069-13.551c-0.073-4.231,0.052-8.542-0.575-12.737
	c2.616-0.158,5.223-0.443,7.807-0.983c0.149,0.015,0.296,0.022,0.445,0.038c1.016,0.108,5.437,0.575,5.577,0.647
	c1.826,0.945,1.568,1.656,1.636,3.858C283.725,205.923,283.888,208.836,283.778,211.815z"/>
<path d="M265.748,246.079c-4.472-1.241-9.343-1.46-13.651-0.887c-1.334,0.178-2.603,0.417-3.824,0.711
	c-14.066,0.318-23.18,17.415-23.796,29.852c-0.378,7.618,2.396,15.197,8.146,20.317c6.759,6.019,14.938,6.309,23.38,5.455
	c8.443,0.854,16.621,0.564,23.38-5.455c5.749-5.119,8.524-12.699,8.146-20.317C286.94,263.926,278.661,247.891,265.748,246.079z
	 M282.557,278.114c-0.45,6.398-3.397,11.959-8.813,15.465c-4.309,2.789-11.056,3.22-16.074,3.104
	c-1.922-0.045-3.736-0.44-5.676-0.482c-2.203-0.047-4.412-0.09-6.611,0.11c-2.477-0.573-4.919-1.302-7.127-2.731
	c-5.416-3.506-8.363-9.067-8.812-15.465c-0.547-7.763,2.078-16.292,7.278-22.318c5.353-3.462,11.244-5.703,17.824-5.987
	c7.047-0.304,12.704,2.014,18.98,4.145C279.884,259.991,283.162,269.522,282.557,278.114z"/>
<path d="M267.796,256.313c-2.24,0.9-3.257,2.968-4.302,5.011c-0.792,1.548-1.772,3.004-2.571,4.553
	c-3.014-1.427-5.84-1.679-8.61,0.549c-1.278,1.026-2.226,2.41-2.872,3.906c-0.547,1.266-0.377,2.764-0.872,3.934
	c-1.126,2.669-5.394,3.34-7.681,4.524c-1.6,0.829-3.739,1.35-4.996,2.862c-1.031,1.241-0.737,3.488,1.386,3.331
	c2.41-0.178,3.776-1.515,5.87-2.512c2.134-1.016,4.346-1.951,6.59-2.71c0.462,0.641,1.019,1.242,1.637,1.703
	c0.179,0.231,0.368,0.444,0.575,0.624c2.338,2.027,6.858,2.041,9.506,0.64c3.097-1.637,4.636-5.11,4.336-8.503
	c-0.103-1.156-0.402-2.292-0.857-3.36c-0.63-1.479-1.138-1.606-0.49-3.055c0.738-1.65,1.848-3.097,2.921-4.538
	c0.857-1.153,2.18-2.096,2.925-3.217C271.423,258.356,270.016,255.422,267.796,256.313z M255.371,279.608
	c-2.615-0.588-2.706-3.326-2.662-5.571c0.043-2.223,1.95-4.781,4.092-5.411c2.818-0.828,4.809,2.335,5.374,4.736
	C263.23,277.849,259.605,280.56,255.371,279.608z"/>
<g>
</g>
<g>
</g>
<g>
</g>
<g>
</g>
<g>
</g>
<g>
</g>
<g>
</g>
<g>
</g>
<g>
</g>
<g>
</g>
<g>
</g>
<g>
</g>
<g>
</g>
<g>
</g>
<g>
</g>
</svg>
