<?xml version="1.0" encoding="iso-8859-1"?>
<!-- Generator: Adobe Illustrator 19.0.0, SVG Export Plug-In . SVG Version: 6.00 Build 0)  -->
<svg version="1.1" id="Layer_1" xmlns="http://www.w3.org/2000/svg" xmlns:xlink="http://www.w3.org/1999/xlink" x="0px" y="0px"
	 viewBox="0 0 511.999 511.999" style="enable-background:new 0 0 511.999 511.999;" xml:space="preserve">
<path style="fill:#D8C1A3;" d="M210.437,126.658c1.047,0.581,2.279,0.859,3.471,1.09c3.577,0.693,7.197,1.163,10.831,1.407
	c0.991,0.067,2.06,0.097,2.889-0.451c1.094-0.723,1.385-2.176,1.547-3.477c0.544-4.384,0.181-8.702,0.454-13.068
	c0.222-3.553,0.995-7.123,1.264-10.737c0.66-8.853,1.272-17.711,2.215-26.54c0.374-3.509,1.719-7.428,3.9-10.124
	c4.394-5.433,6.684-11.153,7.113-18.157c0.282-4.597,2.234-7.595,5.556-10.478c3.749-3.253,2.631-9.054,2.355-13.661
	c-0.353-5.879-0.002-11.8,1.044-17.596c0.158-0.876,0.394-1.845,1.143-2.326c0.883-0.568,2.129-0.152,2.81,0.648
	s0.927,1.872,1.121,2.904c1.819,9.723-1.303,23.393,7.009,30.75c2.019,1.787,3.952,5.056,3.871,7.584
	c-0.281,8.815,4.039,15.256,8.595,22.189c2.335,3.552,4.566,11.103,3.069,15.322c-0.534,1.505-1.336,3.057-0.982,4.614
	c0.233,1.024,0.935,1.865,1.486,2.759c2.476,4.019,1.381,10.408,1.674,15.008c0.208,3.261,0.431,6.522,0.612,9.785
	c0.171,3.088-1.009,5.932-0.744,9.013c0.171,1.994,1.074,4.03,2.786,5.065c1.444,0.874,3.225,0.924,4.912,0.891
	c2.629-0.052,5.256-0.247,7.865-0.582c1.31-0.169,2.667-0.393,3.75-1.15c2.925-2.044,5.275-12.38,3.065-15.241
	c-0.529-0.685-1.233-1.312-1.37-2.166c-0.127-0.792,0.272-1.562,0.659-2.264c1.398-2.544,2.798-5.087,4.197-7.631
	c0.804-1.463,2.176-3.169,3.758-2.636c0.866,0.292,1.37,1.172,1.795,1.982c0.943,1.799,1.887,3.599,2.83,5.398
	c0.81,1.544,1.633,3.132,1.835,4.863c0.538,4.599-1.187,9.395-0.986,14.09c0.204,4.765,1.124,9.213,0,13.997
	c-0.382,1.627-0.925,3.277-0.705,4.935c0.215,1.628,1.14,3.058,1.861,4.534c3.699,7.57,0.896,13.608-1.265,20.874
	c-0.656,2.208-0.514,4.564-0.365,6.863c0.696,10.775,0.01,21.502-0.373,32.301c-0.084,2.378-0.13,4.913,1.113,6.943
	c1.206,1.972,3.638,3.816,2.842,5.986c-0.339,0.923-1.197,1.531-1.956,2.156c-2.992,2.469-4.872,6.14-5.395,9.961
	c-0.603,4.399,1.475,8.142,1.46,12.464c-0.053,14.042,0.273,28.086,0.437,42.129c0.087,7.393,0.213,14.786,0.24,22.179
	c0.149,40.667,0.148,81.334,0.458,122c0.147,19.22,0.954,38.434,1.28,57.654c0.099,5.846,0.708,11.984-4.291,16.685
	c-20.873,4.129-88.331,4.293-113.563,0.007c-0.901-3.506-2.557-7.54-2.868-11.678c-0.61-8.104-0.65-16.266-0.611-24.401
	c0.177-36.238,0.377-72.476,0.738-108.713c0.382-38.471,1.054-76.938,1.363-115.408c0.028-3.536,0.781-7.131,0.513-10.66
	c-0.164-2.16-0.03-6.045-1.844-7.447c-1.13-0.873-2.72-0.81-4.01-1.418c-1.726-0.814-2.716-2.938-2.23-4.783
	c0.322-1.223,1.181-2.225,2.037-3.156c0.856-0.931,1.759-1.872,2.212-3.053c0.703-1.841-0.503-2.312-0.824-3.794
	c-0.47-2.167-0.053-4.842-0.016-7.056c0.081-4.844,0.255-9.686,0.372-14.529c0.151-6.25,0.711-12.942-0.116-19.155
	c-0.796-5.985-3.319-11.309-2.405-17.546c0.457-3.113,1.624-6.073,2.391-9.125c1.341-5.335-1.127-8.692-1.007-13.668
	c0.117-4.85,1.484-10.576,0.37-15.36c-0.394-1.691-1.019-3.369-0.931-5.103c0.109-2.145,1.287-4.069,2.435-5.885
	c1.206-1.911,2.415-3.82,3.628-5.727c0.59-0.929,1.415-1.978,2.51-1.861c1.105,0.119,1.686,1.341,2.058,2.388
	c1.07,3.009,2.947,6.131,3.672,9.205c0.819,3.466,0.223,7.804,0.289,11.368c0.047,2.547,0.224,5.398,2.107,7.112
	C209.746,126.228,210.08,126.46,210.437,126.658z"/>
<path style="fill:#BAA285;" d="M312.648,229.341c-17.203,0-34.916,1.345-47.999,13.859c-18.981,18.157-21.518,49.834-18.674,74.496
	c1.955,16.956,7.677,32.779,7.271,50.013c-0.353,15.007-2.534,29.167,2.613,43.734c6.661,18.858,20.838,36.52,31.41,53.44
	c6.49,10.388,13.01,19.462,21.489,28.27c5.407,5.617,5.329,11.407-4.14,13.196c-6.976,1.317-15.53-0.072-22.769,0.119
	c-9.415,0.248-18.701,1.644-28.216,1.143c-12.014-0.633-23.834,1.093-35.804,0.563c-5.382-0.239-15.719-0.598-18.44-5.908
	c-1.59-3.102-0.721-9.896-0.875-13.328c-0.279-6.207-0.832-12.295-0.833-18.561c-0.003-25.448,1.636-50.859,0.542-76.389
	c-0.997-23.277,1.171-46.67,0-69.963c-1.143-22.734-2.635-46.423-0.527-69.178c0.724-7.817,0.322-16.366,1.651-24.115
	c0.796-4.647-0.094-3.208,4.158-4.701c7.256-2.548,15.951-1.687,23.515-1.687c15.32,0,30.594-0.669,45.827,0.048
	c12.243,0.575,24.097,1.593,36.299,0.076C313.228,223.96,317.639,224.17,312.648,229.341z"/>
<g>
	<path style="fill:#AA7E49;" d="M239.932,257.348c0.233,0.33,0.427,0.693,0.575,1.094c0.624,1.676-0.438,5.825-0.492,7.664
		c-0.102,3.426-0.253,6.849-0.401,10.272c-0.318,7.389-0.491,14.296,0.463,21.532c0.498,3.777,1.304,11.831-2.024,14.631
		c-1.189,0.999-3.969,0.342-5.417,0.621c-4.883,0.936-8.381-0.105-13.133-0.111c-3.724-0.004-5.685,1.327-8.271-2.427
		c-3.911-5.679-1.645-14.4-1.426-20.758c0.262-7.581,1.103-15.128,1.413-22.705c0.338-8.26-0.632-10.404,8.294-11.544
		C224.114,255.029,236.444,252.408,239.932,257.348z"/>
	<path style="fill:#AA7E49;" d="M303.656,257.348c0.233,0.33,0.427,0.693,0.575,1.094c0.624,1.676-0.438,5.825-0.492,7.664
		c-0.102,3.426-0.253,6.849-0.401,10.272c-0.318,7.389-0.491,14.296,0.463,21.532c0.498,3.777,1.304,11.831-2.024,14.631
		c-1.189,0.999-3.969,0.342-5.418,0.621c-4.883,0.936-8.381-0.105-13.133-0.111c-3.723-0.004-5.685,1.327-8.271-2.427
		c-3.911-5.679-1.645-14.4-1.426-20.758c0.262-7.581,1.103-15.128,1.413-22.705c0.338-8.26-0.632-10.404,8.294-11.544
		C287.839,255.029,300.169,252.408,303.656,257.348z"/>
	<path style="fill:#AA7E49;" d="M239.932,330.779c0.233,0.33,0.427,0.693,0.575,1.094c0.624,1.676-0.438,5.825-0.492,7.664
		c-0.102,3.426-0.253,6.849-0.401,10.272c-0.318,7.39-0.491,14.296,0.463,21.532c0.498,3.777,1.304,11.831-2.024,14.632
		c-1.189,0.999-3.969,0.342-5.417,0.621c-4.883,0.936-8.381-0.106-13.133-0.111c-3.724-0.004-5.685,1.327-8.271-2.427
		c-3.911-5.679-1.645-14.4-1.426-20.758c0.262-7.581,1.103-15.128,1.413-22.705c0.338-8.26-0.632-10.404,8.294-11.544
		C224.114,328.46,236.444,325.839,239.932,330.779z"/>
	<path style="fill:#AA7E49;" d="M303.656,330.779c0.233,0.33,0.427,0.693,0.575,1.094c0.624,1.676-0.438,5.825-0.492,7.664
		c-0.102,3.426-0.253,6.849-0.401,10.272c-0.318,7.39-0.491,14.296,0.463,21.532c0.498,3.777,1.304,11.831-2.024,14.632
		c-1.189,0.999-3.969,0.342-5.418,0.621c-4.883,0.936-8.381-0.106-13.133-0.111c-3.723-0.004-5.685,1.327-8.271-2.427
		c-3.911-5.679-1.645-14.4-1.426-20.758c0.262-7.581,1.103-15.128,1.413-22.705c0.338-8.26-0.632-10.404,8.294-11.544
		C287.839,328.46,300.169,325.839,303.656,330.779z"/>
</g>
<g>
	<path style="fill:#9E8567;" d="M195.391,144.087c5.415,2.859,13.864,2.2,19.733,1.621c5.421-0.535,10.951-0.178,16.343-0.882
		c4.652-0.606,5.988-3.008,9.468-5.777c4.69-3.731,11.444-4.439,17.27-4.224c6.235,0.23,10.131,2.163,14.955,5.988
		c5.431,4.305,8.863,4.051,16.013,4.047c7.829-0.003,15.499,0.22,23.342,0.02c2.372-0.06,4.288-0.685,6.186,1.186
		c2.105,2.075,0.969,3.594,0.984,6.716c0.017,3.456,0.899,7.657-0.596,10.989c-1.597,3.561-4.311,2.463-8.586,2.687
		c-13.395,0.704-27.128,2.128-40.555,1.105c-2.156-3.325-4.162-8.046-7.112-10.738c-2.223-2.027-4.972-3.081-7.975-3.441
		c-4.792-0.574-6.256,1.661-8.522,5.561c-1.211,2.084-2.148,5.367-4.241,6.378c-3.562,1.723-11.332,1.099-15.301,1.157
		c-7.627,0.113-15.603,0.635-23.202,0.292c-2.766-0.124-8.413,0.623-10.68-1.247C189.624,162.809,191.376,145.346,195.391,144.087z"
		/>
	<path style="fill:#9E8567;" d="M206.198,215.102c-4.112-0.012-8.875-1.224-12.736,0.464c-1.757,0.769-4.571,2.666-4.263,4.844
		c0.419,2.966,3.411,2.228,5.665,2.599c24.949,4.108,50.133,0.27,75.263,1.341c11.425,0.487,22.965-0.133,34.302,0.414
		c3.991,0.193,14.794,2.124,17.555-1.454c3.86-5.002-4.821-7.838-8.19-8.605c-7.809-1.781-17.81,0.397-25.881,0.397
		c-14.259,0-28.275,1.181-42.473,1.844C233.183,217.519,221.155,216.646,206.198,215.102z"/>
</g>
<g>
	<path style="fill:#E5D9CC;" d="M250.697,34.037c-0.156,0.06-0.315,0.127-0.477,0.203c-1.437,0.689-2.558,2.761-3.761,3.931
		c-5.104,4.963-0.883,11.21-3.252,17.324c-1.933,4.985-7.388,7.148-9.798,11.992c-1.922,3.862-4.315,15.201-0.502,18.61
		c2.105,1.882,7.065,1.142,9.585,1.061c4.802-0.156,9.576-0.59,14.382-0.579c5.998,0.013,13.709,1.902,19.577,0.394
		c10.606-2.724-2.945-22.95-5.609-28.372c-2.617-5.326-0.758-11.123-1.937-16.692c-0.513-2.426-1.831-5.586-4.225-6.679
		c-2.119-0.967-4.388-1.684-4.529-4.509c-0.14-2.794,0.292-5.542,0.067-8.333c-0.231-2.847-0.203-5.709-0.338-8.561
		c-0.14-2.958-0.894-13.408-6.143-11.32c-1.657,3.296-0.408,5.977-0.924,9.497c-0.471,3.212-1.246,6.129-1.072,9.735
		c0.161,3.333,0.542,6.599,0.892,9.92C252.823,33.461,251.863,33.584,250.697,34.037z"/>
	<path style="fill:#E5D9CC;" d="M199.261,96.769c-1.452,3.242-3.422,6.288-5.253,9.328c-0.924,1.535-3.15,5.06-2.308,7.058
		c0.701,1.664,3.802,0.745,5.197,0.548c2.448-0.348,5.01-0.481,7.409-1.086c0.951-0.24,3.286-0.548,4.027-1.275
		c0.882-0.869,0.082-2.293-0.312-3.321c-0.983-2.559-2.393-4.825-3.667-7.247C203.554,99.256,202.018,96.78,199.261,96.769z"/>
	<path style="fill:#E5D9CC;" d="M310.355,97.763c-1.277,1.995-2.762,3.882-3.91,5.966c-0.724,1.317-1.352,2.616-1.808,4.042
		c-0.26,0.811-1.074,2.285-0.864,3.165c0.285,1.194,1.664,0.949,2.727,1.084c1.865,0.238,3.659,0.696,5.455,1.217
		c1.859,0.54,3.693,0.855,5.588,1.207c0.788,0.147,2.138,0.734,2.877,0.192c2.419-1.776-2.127-8.353-2.978-10.006
		c-1.181-2.296-2.386-4.004-4.094-5.876C312.08,97.369,311.313,96.446,310.355,97.763z"/>
</g>
<path style="fill:#BAA285;" d="M239.379,140.723c-1.946,1.641-3.928,3.209-6.474,3.918c-5.21,1.448-12.907,0.755-18.308,0.282
	c-8.582-0.751-19.159,2.878-20.247-7.22c-0.541-5.015,0.006-10.377,0-15.428c-0.004-4.123-0.024-9.409,5.447-9.374
	c1.583,0.01,2.128,15.068,2.54,16.742c1.671,6.783,5.87,9.089,12.853,8.567c19.052-1.425,13.935-22.848,16.211-36.503
	c1.016-6.095-0.311-10.341,5.16-13.156c9.414-4.844,18.131-2.017,20.67,7.774c1.573,6.065,2.655,10.757,6.966,15.571
	c4.555,5.087,14.567,4.67,17.797,10.858c2.383,4.572-3.87,6.355,0.967,10.415c2.657,2.23,8.357,2.006,11.636,2.326
	c7.901,0.77,13.979,0.515,20.786,5.122c-4.693,6.367-16.737,3.313-23.547,3.626c-6.88,0.315-13.603,1.482-19.439-1.883
	c-5.496-3.169-8.022-6.997-14.734-7.434c-3.824-0.25-7.955-0.052-11.536,1.251C243.492,137.135,241.456,138.97,239.379,140.723z"/>
<path style="fill:#B5A799;" d="M256.258,33.226c-2.735,6.67-6.654,11.207-2.574,18.269c1.902,3.292,2.825,6.496,2.25,10.307
	c-0.535,3.559-2.539,6.559-3.165,10.024c-1.639,9.085,8.56,7.587,14.413,8.361c2.82,0.373,9.249,0.54,9.388,3.988
	c0.173,4.301-7.603,1.474-10.446,1.094c-7.24-0.969-15.351,0.874-22.688,1.2c-2.206,0.098-8.728,0.182-10.346-1.382
	c-1.661-1.606-1.056-6.103-0.895-8.053c0.312-3.78,1.934-7.337,4.42-10.212c2.414-2.791,4.8-4.35,5.487-8.115
	c0.615-3.369,0.879-6.535,0.76-9.911c-0.112-3.157,0.05-6.077,1.169-9.049C245.809,35.024,249.027,34.177,256.258,33.226z"/>
<g>
	<path style="fill:#473F37;" d="M245.613,116.901c-0.895-2.888-0.143-7.432,0.37-10.319c0.528-2.972,1.017-6.568,3.358-8.697
		c3.299-3.004,7.614-4.122,11.219-1.239c2.892,2.314,3.474,5.733,3.701,9.314c0.181,2.861,0.006,5.768,0.12,8.644
		c0.077,1.915,0.402,3.843-1.721,4.192c-1.803,0.297-3.684-0.167-5.504-0.157c-2.256,0.012-4.483,0.569-6.744,0.505
		C248.927,119.101,245.057,118.894,245.613,116.901z"/>
	<path style="fill:#473F37;" d="M240.766,79.248c-1.312-1.807-0.962-6.399-0.254-8.453c0.87-2.526,2.507-3.514,4.753-2.23
		c2.252,1.288,1.44,4.381,1.563,6.676c0.071,1.313,0.585,3.554-0.159,4.755c-0.562,0.908-1.739,1.035-2.781,0.999
		C241.929,80.925,241.065,80.418,240.766,79.248z"/>
	<path style="fill:#473F37;" d="M265.122,78.999c-0.259-2.768-0.763-9.433,2.796-10.252c4.215-0.971,3.831,6.371,3.327,8.885
		c-0.211,1.054-0.447,2.386-1.436,2.957C268.802,81.171,267.076,81.077,265.122,78.999z"/>
</g>
<path style="fill:#BAA285;" d="M315.425,171.026c-10.683,2.671-22.374,4.895-33.122,8.317c-15.593,4.966-25.749,15.98-39.66,23.634
	c-8.735,4.806-18.94,6.809-28.58,8.644c-4.927,0.937-13.428,4.938-17.962,3.198c-0.438-8.266-0.996-16.223-1.795-24.424
	c-0.534-5.488-1.26-18.521,3.937-21.756c4.332-2.698,17.307-1.41,22.488-1.621c8.285-0.339,16.747,1.014,25.26,0.681
	c17.338-0.68,34.882,0.082,52.359-0.561C301.279,167.03,325.497,165.632,315.425,171.026z"/>
<g>
	<path style="fill:#473F37;" d="M251.204,154.802c-1.21-0.012-2.239,1.765-2.892,2.609c-1.066,1.38-1.576,2.686-2.078,4.325
		c-1.075,3.502-1.504,7.037-1.492,10.711c0.019,5.626,0.116,11.262,0.124,16.9c0.007,4.047-1.04,9.035,1.646,12.426
		c2.507,3.163,6.619,4.153,10.545,4.228c3.1,0.059,6.649,0.119,8.37-2.87c2.659-4.621,1.531-11.414,1.321-16.481
		c-0.211-5.063-0.429-10.181-0.071-15.235c0.324-4.588-0.052-9.899-2.95-13.671C260.834,153.976,255.765,151.769,251.204,154.802z"
		/>
	<path style="fill:#473F37;" d="M231.074,178.412c0.431,3.852,0.307,7.78,0.59,11.65c0.219,2.978,0.764,6.002,0.776,8.977
		c0.01,2.465-0.828,3.978-3.166,4.915c-1.522,0.61-3.61,1.179-5.257,1.022c-4.414-0.419-3.383-6.15-3.383-9.262
		c0-2.898,0.254-5.728,0.118-8.618c-0.123-2.615-0.557-5.184,0.38-7.692c0.99-2.655,2.783-4.204,5.727-4.226
		C230.054,175.156,229.635,177.766,231.074,178.412z"/>
	<path style="fill:#473F37;" d="M211.191,176.175c-0.017,2.58,0.66,5.205,0.752,7.801c0.106,2.958-0.056,6.018-0.13,8.987
		c-0.073,2.944,0.573,9.462-2.86,10.976c-1.645,0.725-3.286,0.444-4.973,0.221c-2.2-0.292-2.865-0.519-2.982-3.029
		c-0.291-6.231,1.256-12.618,1.497-18.856c0.094-2.451-0.383-4.827,1.745-6.606C206.257,173.984,209.094,173.648,211.191,176.175z"
		/>
	<path style="fill:#473F37;" d="M285.502,175.181c-1.879-0.171-3.798,3.157-4.233,4.626c-0.813,2.738-0.513,6.065-0.641,8.892
		c-0.128,2.826-0.49,5.591-0.829,8.4c-0.272,2.255-0.422,4.789,1.23,6.574c1.283,1.386,3.272,1.374,5.064,1.464
		c2.068,0.103,3.961-0.855,5.156-2.588c0.91-1.32,0.722-3.423,0.653-5.003c-0.121-2.761-0.062-5.551-0.214-8.313
		C291.454,184.993,291.916,173.071,285.502,175.181z"/>
	<path style="fill:#473F37;" d="M303.396,174.187c-4.506,3.259-2.779,10.712-2.734,15.335c0.041,4.195-1.842,10.41,0.994,13.967
		c1.333,1.671,2.729,2.115,4.873,1.613c1.921-0.45,2.925-2.262,3.742-3.952c0.6-1.241,0.972-2.418,0.907-3.786
		C310.953,192.585,313.419,170.748,303.396,174.187z"/>
	<path style="fill:#473F37;" d="M246.607,278.322c-0.791-2.849-0.108-6.333,0.252-9.196c0.418-3.317,1.176-6.818,3.382-9.456
		c2.398-2.868,7.094-3.299,10.17-1.2c3.229,2.205,4.653,5.925,5.409,9.61c0.485,2.368,0.682,4.849,0.55,7.274
		c-0.087,1.587,0.086,2.831-1.41,3.347c-3.333,1.15-7.535,0.908-11.016,1.201C252.078,280.06,247.334,280.621,246.607,278.322z"/>
	<path style="fill:#473F37;" d="M251.825,291.991c-5.055,4.681-5.095,11.405-5.095,17.776c0,1.826-0.424,2.52,1.302,2.988
		c2.235,0.605,4.662,0.806,6.979,0.912c1.326,0.06,2.628-0.136,3.953,0.038c1.037,0.136,2.023,0.401,3.085,0.257
		c1.05-0.142,3.082-0.484,3.571-1.461c0.28-0.558-0.002-1.846-0.002-2.471c0-1.903-0.087-3.79-0.121-5.688
		c-0.043-2.384-0.383-5.648-1.241-7.874C262.268,291.3,256.262,288.176,251.825,291.991z"/>
	<path style="fill:#473F37;" d="M252.819,326.164c-2.501,0.431-4.402,5.586-5.097,7.55c-1.171,3.309-1.843,7.132-1.868,10.646
		c-0.01,1.392-0.361,3.783,1.025,4.3c0.62,0.231,1.761-0.004,2.426,0.024c1.183,0.052,2.394,0.138,3.58,0.232
		c2.369,0.19,4.772,0.142,7.14-0.04c1.333-0.102,4.179-0.205,5.222-1.122c1.165-1.023,0.744-4.323,0.743-5.699
		c-0.002-3.03,0.389-6.669-0.556-9.578c-0.382-1.174-1.079-2.594-1.743-3.621c-0.781-1.209-2.012-1.624-3.21-2.322
		C258.199,325.205,255.442,324.347,252.819,326.164z"/>
	<path style="fill:#473F37;" d="M253.317,362.699c-6.547,2.551-8.061,13.192-7.587,19.27c0.149,1.904,0.624,2.384,2.378,2.611
		c2.419,0.314,4.75,0.545,7.197,0.424c2.158-0.108,4.305-0.329,6.461-0.435c0.702-0.034,2.688-0.028,3.237-0.488
		c1.232-1.033,0.618-5.077,0.615-6.38c-0.007-3.07-0.067-5.859-0.655-8.887c-0.422-2.167-1.187-4.225-3.068-5.561
		C259.071,361.249,256.285,361.532,253.317,362.699z"/>
	<path style="fill:#473F37;" d="M237.784,398.984c-1.076,0.044-2.012,1.14-2.698,1.875c-2.037,2.182-3.832,4.82-4.925,7.598
		c-1.856,4.722-1.448,9.944-1.448,14.911c0,3.399-0.668,7.641,0.28,10.948c0.605,2.11,2.314,2.185,4.222,2.197
		c3.027,0.02,5.889-0.011,8.92-0.187c1.742-0.1,5.833-0.086,7.089-1.395c1.744-1.817,1.175-6.507,1.24-8.728
		c0.137-4.757-0.434-9.534-0.631-14.28c-0.148-3.561,0.17-8.2-2.724-10.793C244.674,398.948,241.671,397.981,237.784,398.984z"/>
	<path style="fill:#473F37;" d="M274.07,399.854c-3.385,2.62-5.165,5.328-6.371,9.442c-1.252,4.269-1.25,9.012-1.331,13.43
		c-0.08,4.379-1.921,12.019,3.747,13.263c3.309,0.726,6.145,0.395,9.446-0.228c1.153-0.218,2.315-0.339,3.459-0.584
		c0.502-0.108,1.877-0.158,2.237-0.394c1.702-1.122,2.1-6.04,2.277-7.778c0.455-4.474,0.565-9.053,0.079-13.519
		c-0.41-3.757-0.467-8.044-2.454-11.433C283.316,398.91,278.229,397.243,274.07,399.854z"/>
	<path style="fill:#473F37;" d="M222.374,460.744c-2.264,0.724-4.422,4.159-5.134,6.214c-0.869,2.508-1.482,5.684-1.265,8.331
		c0.056,0.681-0.047,2.958,0.457,3.449c0.6,0.586,3.161,0.402,3.955,0.398c3.151-0.016,6.369,0.933,9.383-0.188
		c1.245-0.463,1.372-0.652,1.545-2.062c0.288-2.336,0.435-5.216,0.103-7.557C230.725,464.455,227.884,460.241,222.374,460.744z"/>
	<path style="fill:#473F37;" d="M254.311,451.673c-3.519,2.296-5.908,4.926-7.12,9.072c-1.271,4.348-1.315,9.172-1.215,13.671
		c0.071,3.24-0.357,6.989,0.348,10.156c0.492,2.213,1.267,3.11,3.39,3.76c3.027,0.926,6.191,0.531,9.319,0.191
		c1.925-0.21,4.656-0.693,6.338-1.654c1.811-1.035,1.902-3.93,2.088-5.816c0.461-4.663,0.576-9.398,0.403-14.087
		c-0.146-3.93-0.412-8.232-2.109-11.846C263.806,450.974,258.107,450.199,254.311,451.673z"/>
	<path style="fill:#473F37;" d="M285.502,461.365c-2.525-0.898-5.06,2.565-5.536,4.612c-0.555,2.386-0.669,5.202-0.959,7.669
		c-0.249,2.116-1.432,5.663,1.488,5.986c2.117,0.234,4.362-0.087,6.477-0.22c1.534-0.097,3.427,0.121,4.87-0.162
		c3.504-0.688,2.477-5.939,1.955-8.269c-0.487-2.174-0.8-4.416-1.858-6.413C290.926,462.659,288.753,460.081,285.502,461.365z"/>
</g>
<path d="M211.282,174.23c-1.879-1.917-6.862-2.384-8.723-0.249c-0.873,1.002-1.251,2.574-1.38,4.328
	c-0.911,4.144-0.458,8.755-0.895,12.851c-0.369,3.449-1.818,10.197,0.179,13.338c1.646,2.589,6.083,2.37,8.706,1.751
	c3.848-0.908,3.556-3.051,3.817-6.532c0.343-4.58-0.261-8.812-0.505-13.391C212.306,183.049,213.927,176.927,211.282,174.23z
	 M209.691,199.268c-0.121,2.389,0.139,3.067-2.563,3.004c-3.98-0.092-3.178-3.432-3.193-6.661c-0.013-2.659-0.068-5.332-0.121-8.005
	c0.73-2.958-0.255-8.044,1.24-10.317c0.603-0.918,2.897-1.325,3.947-0.328c0.798,0.759,0.19,4.291,0.173,5.217
	C209.076,187.931,209.98,193.547,209.691,199.268z"/>
<path d="M227.88,173.777c-2.801-0.662-6.354-0.909-7.683,2.193c-1.639,3.826-1.157,9.587-0.689,14.297
	c-0.038,0.405-0.074,0.813-0.116,1.212c-0.37,3.576-1.805,9.968,0.836,13.067c2.053,2.407,7.467,2.408,10.187,1.594
	c3.147-0.943,3.3-5.12,3.451-7.898c0.295-5.399-1.241-10.677-1.222-16.028C232.663,177.548,232.996,174.986,227.88,173.777z
	 M229.145,202.492c-0.209,0.159-3.661,0.053-4.003-0.03c-3.178-0.765-2.647-2.974-2.716-6.049
	c-0.131-5.899,1.18-11.874,1.004-17.765c0.502-1.21,1.482-1.887,3.45-1.242c3.305,1.084,1.858,5.469,2.136,8.335
	c0.302,3.117,0.915,6.147,1.05,9.291C230.145,196.884,230.615,201.373,229.145,202.492z"/>
<path d="M245.579,82.024c1.679-0.602,2.074-1.873,2.24-3.508c0.25-2.456-0.151-4.804-0.227-7.236
	c-0.062-2.028-0.134-2.869-1.976-3.898c-1.821-1.016-2.718-1.047-4.423,0.321c-1.043,0.836-1.25,1.872-1.193,3.014
	c-0.786,1.684-0.826,3.848-1.025,5.654c-0.179,1.637-0.031,3.511,1.3,4.661C241.586,82.164,243.95,82.609,245.579,82.024z
	 M241.748,76.372c0.143-1.705-0.418-4.963,1.225-6.047c1.981-1.306,2.298,0.479,2.708,1.934c0.532,1.889,1.142,4.003,0.665,5.966
	c-0.408,1.675-2.164,1.847-3.507,1.081C241.573,78.584,241.644,77.614,241.748,76.372z"/>
<path d="M322.928,215.926c-0.728-1.176-1.631-1.845-2.673-2.23c-0.079-4.555,0.129-9.318,0.373-13.874
	c0.18-3.335-0.228-6.347-0.315-9.677c-0.104-3.957-0.65-7.855-0.693-11.791c-0.033-3.045,0.133-6.346-0.841-9.266
	c1.438-0.317,2.651-0.922,3.592-2.465c1.659-2.724,0.828-6.879,0.454-9.858c-0.352-2.809-0.309-8.329-1.822-10.85
	c-0.493-0.822-1.197-1.408-2.019-1.817c0.373-0.512,0.673-1.1,0.883-1.776c0.728-2.344,0.412-5.356,0.3-7.791
	c-0.148-3.197-0.068-6.381-0.619-9.464c0.137-0.49,0.26-0.939,0.315-1.256c0.391-2.25,0.497-4.495,0.464-6.77
	c-0.004-0.277-0.006-0.551-0.009-0.823c0.149,0.016,0.281,0.047,0.435,0.058c1.054,0.076,2.108-0.996,2.044-2.044
	c-0.258-4.189-3.41-8.379-4.944-12.226c-1.11-2.782-2.487-6.2-5.547-7.342c-3.066-1.144-4.081,1.336-5.343,3.569
	c-1.171,2.072-2.446,4.118-3.438,6.304c-0.852,1.878-2.082,3.763-2.728,5.694c-0.353,1.056,0.273,2.042,1.077,2.647
	c0.507,0.381,0.964,0.69,1.417,0.931c-0.612,1.525-0.595,3.316-0.683,4.914c-0.126,2.293,0.4,6.026-1.701,6.766
	c0,0-5.764,0.369-5.145,0.308c-3.574,0.352-7.164,0.505-10.741,0.761c0.7-5.598-0.18-11.238-0.28-16.884
	c-0.111-6.236,1.814-15.211-1.006-20.957c-0.468-0.953-1.124-1.702-1.898-2.294c1.782-5.111,1.595-11.182,0.421-16.361
	c-1.545-6.816-8.55-9.483-10.569-15.639c-1.934-5.895,1.412-11.471-2.387-17.198c-1.055-1.591-2.292-2.649-3.955-3.538
	c-1.306-0.699-3.253-1.404-3.756-2.952c-1.065-3.289-0.594-5.938-0.079-9.248c0.464-2.981-0.464-5.357-0.972-8.195
	c-0.433-2.426,0.44-4.987-0.574-7.271c-0.856-1.931-3.125-4.33-4.717-5.717c-0.463-0.403-1.055-0.402-1.522,0
	c-3.587,3.088-1.946,8.459-2.614,12.528c-0.544,3.325-1.698,5.697-1.394,9.209c0.098,1.127,1.822,8.218,2.074,9.414
	c-0.662,0.164-1.267,0.332-1.767,0.479c-1.855,0.548-4.09,1.302-5.288,2.927c-0.684,0.564-1.355,1.323-2.046,2.365
	c-3.799,5.726-0.453,11.302-2.387,17.198c-2.019,6.156-9.024,8.824-10.569,15.639c-1.174,5.18-1.36,11.251,0.421,16.361
	c-0.774,0.592-1.431,1.34-1.898,2.294c-2.82,5.746-0.896,14.721-1.006,20.957c-0.1,5.646-0.98,11.285-0.28,16.884
	c-3.577-0.254-7.167-0.409-10.741-0.761c0.619,0.061-5.145-0.308-5.145-0.308c-2.1-0.74-1.575-4.473-1.701-6.766
	c-0.088-1.6-0.072-3.389-0.683-4.914c0.453-0.241,0.911-0.55,1.417-0.931c0.804-0.604,1.431-1.591,1.077-2.647
	c-0.646-1.932-1.876-3.817-2.728-5.694c-0.992-2.186-2.267-4.232-3.438-6.304c-1.262-2.233-2.277-4.713-5.343-3.569
	c-3.059,1.142-4.438,4.559-5.547,7.342c-1.534,3.848-4.685,8.038-4.944,12.226c-0.064,1.047,0.99,2.119,2.044,2.044
	c0.154-0.011,0.288-0.042,0.435-0.058c-0.003,0.273-0.004,0.548-0.009,0.823c-0.032,2.275,0.073,4.52,0.464,6.77
	c0.056,0.318,0.179,0.765,0.315,1.256c-0.551,3.082-0.471,6.267-0.619,9.464c-0.112,2.435-0.428,5.447,0.3,7.791
	c0.21,0.676,0.51,1.264,0.883,1.776c-0.822,0.41-1.526,0.995-2.019,1.817c-1.513,2.521-1.471,8.042-1.822,10.85
	c-0.373,2.979-1.205,7.135,0.454,9.858c0.94,1.544,2.154,2.149,3.592,2.465c-0.974,2.92-0.808,6.221-0.841,9.266
	c-0.043,3.935-0.589,7.834-0.693,11.791c-0.088,3.33-0.494,6.343-0.314,9.677c0.244,4.555,0.452,9.318,0.373,13.874
	c-1.042,0.384-1.945,1.054-2.673,2.23c-3.296,5.334-0.499,10.812,5.395,11.16c0.602,0.036,1.194,0.051,1.788,0.071
	c-1.404,5.045-0.565,10.536-1.054,15.685c-0.679,7.153-1.022,14.117-1.015,21.339c0.008,7.801,0.328,15.605,0.48,23.404
	c0.053,2.71,0.109,5.473,0.302,8.222c-0.664,10.436-0.293,20.885-1.296,31.382c-0.778,8.132-0.171,16.501-0.227,24.665
	c-0.051,7.54-0.363,15.134,0.188,22.635c1.16,15.782-0.904,31.552,0.039,47.351c0.314,5.266,0.603,10.503,0.947,15.726
	c-1.049,9.79-1.374,19.587-1.702,29.517c-0.201,6.095-0.139,12.395,0.245,18.472c0.393,6.21-0.895,13.056,0.774,19.136
	c1.27,4.624,4.607,5.218,8.954,5.442c5.982,0.309,11.801,0.547,17.778,1.228c8.145,0.929,17.61,0.929,26.246-0.613
	c3.964,0.013,7.913,0.674,11.914,0.621c3.943-0.053,8.043,0.144,12.15,0.193c6.91,0.684,14.031,0.521,20.354-0.2
	c5.976-0.682,11.796-0.92,17.778-1.229c4.345-0.224,7.683-0.818,8.954-5.442c1.669-6.08,0.381-12.926,0.774-19.136
	c0.384-6.077,0.447-12.378,0.245-18.472c-0.328-9.929-0.653-19.725-1.702-29.517c0.344-5.223,0.633-10.46,0.948-15.726
	c0.943-15.8-1.121-31.569,0.039-47.351c0.551-7.5,0.239-15.095,0.188-22.635c-0.056-8.164,0.551-16.533-0.227-24.665
	c-1.003-10.497-0.632-20.947-1.296-31.382c0.193-2.75,0.249-5.513,0.302-8.222c0.153-7.8,0.473-15.604,0.48-23.404
	c0.007-7.222-0.337-14.186-1.015-21.339c-0.489-5.151,0.35-10.64-1.054-15.685c0.594-0.02,1.186-0.037,1.788-0.071
	C323.427,226.739,326.224,221.26,322.928,215.926z M308.651,103.765c0.571-1.342,0.902-2.957,1.803-4.13
	c0.784-1.023,0.744-1.207,1.719,0.127c1.374,1.881,1.976,4.714,2.942,6.841c0.772,1.699,1.938,3.534,2.768,5.391
	c-2.479-1.037-6.539-1.075-8.905-1.211c-2.088-0.119-3.664,0.163-2.696-2.564C306.85,106.626,308.003,105.29,308.651,103.765z
	 M253.551,15.816c0.349-1.488,0.701-2.531,0.703-4.113c0.001-1.047-1.114-7.906,0.208-8.499c2.85-1.276,2.511,9.9,2.62,11.039
	c0.219,2.294,0.636,4.048,0.333,6.359c-0.138,1.054-0.475,2.069-0.562,3.136c-0.188,2.333,0.38,4.559,0.512,6.872
	c-1.106,0.028-2.239,0.169-3.315,0.36c0.197-1.291-0.008-2.461-0.263-3.993C253.105,22.862,252.566,20.025,253.551,15.816z
	 M245.383,44.072c0.217-3.81,2.349-5.704,4.697-7.818c0.363-0.14,0.716-0.267,1.043-0.345c3.456-0.842,6.488-0.89,9.814-0.549
	c2.703,2.521,5.429,4.378,5.676,8.712c0.157,2.758-0.391,5.523-0.505,8.262c-1.311-0.515-2.655-0.819-4.021-0.845
	c-1.553-0.623-3.822-0.345-5.192-0.347c-1.967-0.001-4.017,0.047-5.993,0.382c-1.708-0.148-3.386,0.17-5.014,0.81
	C245.774,49.595,245.226,46.83,245.383,44.072z M245.016,57.362c0.251-0.592,0.561-1.003,0.915-1.285
	c1.134-0.903,2.723-0.492,4.295-0.542c0.852-0.027,1.687-0.06,2.543-0.047c2.671,0.04,5.246,0.098,7.873-0.277
	c1.36-0.242,2.544-0.086,3.899,0.147c0.759,0.13,2.233,0.279,2.388,1.257c0.172,1.076-1.064,1.288-1.857,1.261
	c-4.433-0.154-8.648-1.37-13.09-0.943c-1.323,0.128-2.762,0.238-4.018,0.685c-0.621,0.221-2.571,1.185-2.998,0.239
	C244.895,57.702,244.949,57.52,245.016,57.362z M235.375,81.61c0.157-3.602-0.2-7.055,0.752-10.606
	c0.646-2.41,2.085-4.232,3.661-5.952c1.372-0.909,2.799-1.717,4.323-2.305c2.469-0.951,5.113-1.199,7.669-1.715
	c2.219-0.034,4.442,0.014,6.64,0.288c1.11,0.139,2.03,0.166,2.957-0.066c2.189,0.388,4.412,0.685,6.509,1.493
	c1.524,0.586,2.951,1.396,4.323,2.305c1.576,1.719,3.015,3.541,3.661,5.952c0.952,3.551,0.595,7.005,0.752,10.606
	c0.014,0.324,0.122,1.694,0.273,2.942c-1.086-0.163-2.182-0.23-3.205-0.243c-5.689-0.077-11.962-0.855-17.692,0.153
	c-5.73-1.009-12.003-0.23-17.692-0.153c-1.024,0.013-2.119,0.08-3.205,0.243C235.251,83.303,235.36,81.935,235.375,81.61z
	 M232.471,116.521c0.487-6.253,0.173-12.508,0.551-18.755c0.133-2.199,0.092-6.641,1.746-7.892c1.446-1.094,4.534-0.61,6.248-0.576
	c4.951,0.097,10.079,0.754,14.982-0.047c4.903,0.802,10.031,0.143,14.982,0.047c1.714-0.033,4.802-0.518,6.248,0.576
	c1.654,1.25,1.613,5.693,1.746,7.892c0.378,6.247,0.064,12.503,0.551,18.755c0.267,3.425,0.038,7.13,0.995,10.441
	c-1.079,0.12-2.154,0.268-3.228,0.437c-3.764-1.046-7.955,0.039-11.855-0.079c-5.548-0.169-11.084,0.379-16.672,0.019
	c-3.99-0.257-8.225,0.183-12.282,0.373c-1.663-0.32-3.332-0.563-5.01-0.75C232.432,123.651,232.204,119.946,232.471,116.521z
	 M219.753,131.258c3.82,0.279,7.593,0.586,11.311,0.328c5.779,1.662,12.831,0.182,18.633,0.493
	c5.15,0.277,10.339-0.454,15.434-0.198c3.787,0.19,7.685,0.098,11.374-0.915c5.136,1.133,10.393,0.682,15.739,0.291
	c4.119-0.301,12.112,1.043,14.111-3.58c1.18-2.728,0.694-6.707,0.768-9.528c0.114-4.346,3.878-2.975,7.19-2.175
	c2.289,0.553,1.868-0.066,1.809,2.638c-0.038,1.744-0.21,3.457-0.323,5.197c-0.093,1.411-0.267,2.766-0.013,4.051
	c-0.077,1.089-0.119,2.199-0.165,3.361c-0.093,2.298,0.589,6.809-0.568,8.966c-2.078,3.877-14.87,2.17-18.911,2.174
	c-3.88,0.003-7.764-0.039-11.643,0.01c-1.701,0.021-4.344,0.665-5.879,0.043c-1.196-0.485-1.347-1.044-2.272-1.913
	c-2.14-2.008-4.684-3.853-7.479-4.707c-3.819-2.384-10.219-3.024-13.393-3.007c-3.458,0.019-11.154,1.101-14.994,4.129
	c-1.762,0.953-3.388,2.232-4.83,3.584c-0.925,0.869-1.075,1.427-2.272,1.913c-1.536,0.623-4.179-0.022-5.879-0.043
	c-3.88-0.049-7.763-0.007-11.643-0.01c-4.041-0.003-16.833,1.703-18.911-2.174c-1.156-2.156-0.475-6.667-0.568-8.966
	c-0.047-1.162-0.089-2.273-0.166-3.361c0.253-1.285,0.08-2.64-0.013-4.051c-0.114-1.741-0.285-3.453-0.324-5.197
	c-0.059-2.704-0.48-2.086,1.809-2.638c3.312-0.8,7.076-2.172,7.19,2.175c0.074,2.821-0.412,6.8,0.768,9.528
	C207.641,132.301,215.633,130.957,219.753,131.258z M196.881,106.604c0.966-2.127,1.568-4.961,2.942-6.841
	c0.975-1.334,0.935-1.15,1.719-0.127c1.24,1.616,1.621,3.855,2.587,5.647c0.674,1.247,2.289,3.25,1.019,4.586
	c-0.964,1.014-3.169,0.923-4.431,1.021c-2.24,0.172-4.405,0.389-6.555,1.051C194.852,110.081,196.059,108.412,196.881,106.604z
	 M194.46,148.728c0.935-1.749,0.024-0.991,2.856-1.526c0.292-0.056,0.583-0.123,0.876-0.183c2.525,0.555,5.328,0.551,7.491,0.623
	c8.471,0.283,17.278,0.401,25.746-0.052c2.646-0.141,4.963-0.26,6.823-2.227c2.336-2.47,4.248-4.473,6.79-6.141
	c0.129-0.046,0.254-0.087,0.375-0.12c3.02-0.852,6.569-1.415,9.711-1.56c3.47-0.159,6.682,0.682,10.055,1.49
	c1.124,0.269,2.135,0.765,3.162,1.182c1.893,1.46,3.508,3.15,5.399,5.151c1.859,1.966,4.177,2.085,6.823,2.227
	c8.467,0.453,17.275,0.334,25.746,0.052c2.163-0.072,4.966-0.068,7.491-0.623c0.292,0.06,0.583,0.128,0.876,0.183
	c2.83,0.535,1.921-0.223,2.855,1.526c0.638,1.194,0.303,4.131,0.354,5.342c0.087,2.053,0.246,4.221-0.191,6.25
	c-0.626,2.911-1.772,3.022-4.371,3.236c-11.634,0.951-23.582-0.249-35.114,1.01c-0.041,0.004-0.077,0.017-0.117,0.023
	c-1.223,0.02-2.145,0.06-2.204,0.057c-2.727-0.151-5.374-0.007-6.743-2.547c-0.425-0.791-0.808-1.634-1.184-2.487
	c-0.535-5.064-5.98-9.239-10.909-9.302c-1.982-0.024-3.791,0.194-5.411,1.011c-0.064,0.027-0.137,0.043-0.2,0.072
	c-5.335,0.996-6.369,6.567-8.6,10.705c-1.37,2.54-4.018,2.395-6.743,2.547c-0.059,0.003-0.981-0.037-2.204-0.057
	c-0.04-0.007-0.076-0.019-0.117-0.023c-11.533-1.259-23.48-0.059-35.115-1.01c-2.599-0.212-3.744-0.324-4.371-3.236
	c-0.437-2.029-0.277-4.198-0.191-6.25C194.157,152.859,193.823,149.923,194.46,148.728z M314.571,191.909
	c0.081,6.764-0.564,13.553-0.601,20.336c-1.518,0.718-3.424,0.21-5.072,0.19c-4.324-0.052-8.821,0.024-13.145,0.332
	c-4.886,0.349-10.58,0.077-15.822,0.936c-3.494-0.553-7.472,0.02-10.806,0.2c-4.631,0.251-9.197,0.616-13.818,0.505
	c-5.569-0.133-11.278,0.337-16.877,0.448c-0.135,0.002-0.735,0.017-1.617,0.042c-6.347-2.293-14.156-1.675-20.572-2.132
	c-4.324-0.309-8.821-0.384-13.145-0.332c-1.647,0.02-3.553,0.528-5.072-0.19c-0.037-6.783-0.681-13.573-0.6-20.336
	c0.09-7.477,0.15-14.89-0.544-22.342c3.166,0.333,6.357,0.612,9.537,0.572c8.094-0.103,16.388,0.473,24.33-1.012
	c4.406,0.967,9.873,1.066,13.037,0.051c-0.046,1.123-0.087,2.259-0.195,3.415c-0.472,5.015-1.009,10.159-0.659,15.266
	c0.321,4.682-1.192,11.822,0.933,16.21c1.851,3.82,7.259,3.613,10.763,3.992c3.566,0.385,9.286,0.696,12.094-2.084
	c2.606-2.579,2.521-7.883,2.332-11.261c-0.318-5.646-0.752-11.355-0.795-17.017c-0.021-2.701,0.304-5.601,0.274-8.436
	c3.202,0.915,8.445,0.803,12.712-0.134c7.943,1.485,16.236,0.909,24.33,1.012c3.181,0.041,6.373-0.238,9.537-0.572
	C314.422,177.019,314.482,184.434,314.571,191.909z M264.808,185.829c-0.042,3.858,0.57,7.818,0.333,11.636
	c-0.467,7.512-7.171,7.648-13.304,5.947c-2.185-0.606-3.676-0.478-4.39-2.962c-0.703-2.444-0.106-5.692-0.181-8.225
	c-0.134-4.522-0.545-9.005-0.505-13.551c0.033-3.82,0.203-7.591-0.1-11.443c-0.004-0.063-0.004-0.131-0.008-0.195
	c0.689-0.994,1.137-2.199,1.553-3.46c0.86-2.614,1.318-5.004,2.317-7.287c0.955-0.578,1.927-1.047,3.008-1.372
	c1.331-0.267,2.81-0.364,4.043-0.214c0.272,0.033,0.507,0.091,0.751,0.142c0.271,0.082,0.55,0.174,0.853,0.278
	c0.134,0.046,0.255,0.064,0.38,0.091c0.928,0.391,1.615,0.969,2.179,1.714c0.823,2.09,1.276,4.278,2.056,6.648
	c0.367,1.116,0.768,2.182,1.331,3.104c-0.29,2.608-0.158,5.346-0.389,7.87C264.386,178.368,264.85,182.016,264.808,185.829z
	 M310.882,502.092c-0.178-0.1-1.016,0.299-1.612,0.313c-2.566,0.061-5.152,0.076-7.723,0.248
	c-5.486,0.369-10.867,1.428-16.376,1.432c-5.856,0.004-11.68-0.272-17.512-0.755c-3.77-0.312-7.904-1.262-11.661-0.464
	c-3.757-0.798-7.891,0.152-11.661,0.464c-5.833,0.483-11.656,0.759-17.512,0.755c-5.509-0.003-10.889-1.064-16.376-1.432
	c-2.57-0.172-5.157-0.187-7.723-0.248c-0.594-0.014-1.434-0.413-1.612-0.313c-0.331-1.063-0.091-2.844-0.123-3.737
	c-0.39-10.809-0.963-21.665-1.394-32.523c1.746-15.064,1.463-30.766,1.064-45.89c-0.401-15.204,1.061-30.422-0.14-45.593
	c-0.616-7.791-0.403-15.676-0.457-23.51c-0.053-7.834-0.736-15.836-0.1-23.648c0.599-7.352,0.122-14.773,0.014-22.155
	c-0.027-1.865-0.018-3.788-0.02-5.732c0.308-3.934,0.3-7.979,0.373-11.716c0.16-8.164,0.491-16.333,0.479-24.498
	c-0.007-4.68,0.076-9.394,0.076-14.089c1.982,0.444,4.117,0.461,6.071,0.558c5.874,0.29,11.873,0.154,17.739-0.211
	c2.776-0.173,5.527-0.28,8.25-0.605c1.997,0.066,3.99,0.154,5.954,0.355c6.068,0.623,12.256,0.765,18.339,0.461
	c6.93-0.348,13.868-0.397,20.811-0.711c0.492-0.022,0.98-0.039,1.464-0.051c2.571,0.284,5.167,0.389,7.785,0.552
	c5.866,0.365,11.865,0.501,17.739,0.211c1.955-0.097,4.09-0.113,6.073-0.558c0,4.695,0.082,9.408,0.076,14.089
	c-0.012,8.165,0.319,16.334,0.479,24.498c0.073,3.738,0.066,7.782,0.373,11.716c-0.002,1.944,0.007,3.867-0.02,5.732
	c-0.108,7.382-0.584,14.803,0.014,22.156c0.635,7.812-0.048,15.814-0.1,23.648c-0.053,7.833,0.16,15.719-0.457,23.51
	c-1.201,15.17,0.261,30.389-0.14,45.593c-0.399,15.124-0.682,30.826,1.064,45.891c-0.431,10.859-1.004,21.715-1.394,32.523
	C310.973,499.248,311.213,501.029,310.882,502.092z M311.198,241.927c-0.019,0.615-0.019,1.236-0.031,1.854
	c-1.829-0.495-3.711-0.523-5.766-0.468c-5.065,0.136-10.134-0.093-15.204,0.1c-11.61-0.798-23.37,0.124-34.937,1.061
	c-8.726,0.705-17.375-0.507-26.039-0.282c-2.147-0.329-4.305-0.645-6.505-0.753c-5.376-0.263-10.749,0.019-16.117-0.124
	c-2.055-0.056-3.937-0.028-5.766,0.468c-0.012-0.618-0.013-1.239-0.031-1.854c-0.139-4.606,0.631-10.159-0.568-14.732
	c1.621-0.027,3.242-0.091,4.895-0.19c5.066-0.302,10.021,0.369,15.071,0.528c4.556,0.143,9.084,0.35,13.648,0.284
	c3.383-0.048,6.932,0.28,10.211-0.489c3.128,0.023,6.26,0.092,9.392,0.119c6.155,0.053,12.668,0.608,19.04,0.384
	c1.889,0.044,3.8-0.041,5.662-0.014c4.565,0.064,9.093-0.141,13.648-0.284c5.05-0.159,10.006-0.831,15.071-0.528
	c1.653,0.099,3.275,0.164,4.895,0.19C310.566,231.768,311.337,237.321,311.198,241.927z M301.095,221.503
	c-5.923,0.418-11.833,1.042-17.75,1.345c-4.279-0.943-8.399-0.533-12.918-0.502c-5.994,0.041-11.99,0.096-17.983,0.165
	c-4.632,0.053-9.796-0.171-14.77,0.203c-3,0.018-6.041,0.285-8.836,0.146c-5.979-0.299-11.95-0.934-17.935-1.356
	c-5.052-0.357-10.896,1.053-15.817,0.056c-2-0.405-4.032-2.192,0.12-4.058c0.24-0.108,0.524-0.168,0.826-0.203
	c2.977,1.268,7.019,1.062,9.799,1.326c5.505,0.524,11.593,0.937,17.111,0.626c1.3-0.073,2.59-0.24,3.879-0.419
	c2.779,0.513,5.785,0.5,8.444,0.632c6.384,0.317,12.784-0.264,19.131-0.123c4.656,0.103,9.269,0.151,13.93-0.197
	c4.071-0.303,8.492,0.139,12.525-0.845c2.738,0.255,5.454,0.796,8.206,0.952c5.517,0.311,11.606-0.102,17.111-0.626
	c2.78-0.264,6.823-0.058,9.799-1.326c0.302,0.037,0.587,0.096,0.826,0.203c4.152,1.866,2.119,3.652,0.12,4.058
	C311.99,222.556,306.146,221.146,301.095,221.503z"/>
<path d="M310.817,178.31c-0.129-1.754-0.507-3.326-1.38-4.328c-1.861-2.135-6.844-1.668-8.723,0.249
	c-2.645,2.696-1.024,8.817-1.199,12.094c-0.243,4.58-0.849,8.812-0.505,13.391c0.261,3.482-0.031,5.625,3.817,6.532
	c2.624,0.619,7.06,0.839,8.706-1.751c1.997-3.141,0.548-9.889,0.179-13.338C311.275,187.065,311.728,182.454,310.817,178.31z
	 M304.868,202.272c-2.701,0.063-2.441-0.614-2.563-3.004c-0.289-5.722,0.615-11.338,0.518-17.09
	c-0.016-0.925-0.624-4.459,0.173-5.217c1.05-0.997,3.343-0.59,3.947,0.328c1.495,2.273,0.51,7.36,1.24,10.317
	c-0.053,2.674-0.108,5.347-0.121,8.005C308.046,198.839,308.848,202.18,304.868,202.272z"/>
<path d="M292.487,190.265c0.47-4.71,0.951-10.471-0.689-14.297c-1.328-3.101-4.882-2.855-7.683-2.193
	c-5.115,1.209-4.783,3.771-4.766,8.435c0.019,5.351-1.517,10.629-1.222,16.028c0.152,2.778,0.304,6.956,3.451,7.898
	c2.72,0.814,8.134,0.813,10.187-1.594c2.643-3.099,1.206-9.49,0.836-13.067C292.562,191.078,292.525,190.671,292.487,190.265z
	 M286.855,202.462c-0.343,0.082-3.794,0.189-4.003,0.03c-1.47-1.119-1-5.607-0.921-7.459c0.134-3.143,0.748-6.174,1.05-9.291
	c0.278-2.866-1.167-7.251,2.136-8.335c1.968-0.645,2.949,0.032,3.45,1.242c-0.177,5.889,1.135,11.864,1.004,17.765
	C289.503,199.489,290.034,201.696,286.855,202.462z"/>
<path d="M266.417,82.024c1.63,0.584,3.993,0.14,5.303-0.992c1.331-1.15,1.478-3.022,1.3-4.661c-0.198-1.806-0.239-3.97-1.025-5.654
	c0.057-1.142-0.15-2.177-1.193-3.014c-1.705-1.368-2.601-1.337-4.423-0.321c-1.843,1.029-1.914,1.869-1.976,3.898
	c-0.076,2.431-0.475,4.78-0.227,7.236C264.344,80.151,264.738,81.422,266.417,82.024z M266.231,72.543
	c0.031-0.19,0.093-0.414,0.182-0.654c0.46-1.237,1.639-2.862,2.957-1.978c1.192,0.801,0.765,5.117,0.879,6.461
	c0.104,1.243,0.176,2.212-1.091,2.934c-1.343,0.766-3.099,0.594-3.507-1.081C265.169,76.246,265.919,74.463,266.231,72.543z"/>
<path d="M243.878,118.62c1.773,2.836,8.139,2.329,10.979,2.336c3.181,0.008,9.208,1.668,11.172-1.747
	c1.49-2.589,0.625-7.701,0.254-10.511c-0.622-4.707-0.403-9.157-4.44-12.496c-2.467-2.04-6.457-3.617-9.534-2.55
	c-4.125,1.43-6.782,4.623-7.624,8.807c-0.43,2.138-0.284,4.243-0.254,6.373C243.672,111.953,242.379,116.223,243.878,118.62z
	 M247.621,108.512c-0.003-4.129,0.148-9.637,4.831-11.348c3.727-1.361,8.35,1.212,9.56,4.799c0.791,2.342,0.424,5.82,0.564,8.302
	c0.067,1.185,0.598,5.232,0.03,6.143c-1.042,1.669-7.349,0.916-9.079,0.853c-1.305-0.048-2.798-0.26-4.12-0.393
	c-1.691-0.171-1.948,0.092-2.332-0.81C247.179,113.544,247.623,111.039,247.621,108.512z"/>
<path d="M248.252,281.804c2.908,0.131,5.963,0.238,8.872,0.066c2.218-0.132,5.364,0.139,7.548-0.434
	c3.493-0.916,3.129-6.515,2.896-9.355c-0.364-4.436-0.618-9.716-3.328-13.415c-2.811-3.837-7.017-4.897-11.444-2.959
	c-4.158,1.821-6.56,5.988-7.23,10.349c-0.255,1.661-0.553,3.621-0.669,5.612c-0.186,1.553-0.254,3.041-0.332,4.023
	C244.283,279.229,244.236,281.623,248.252,281.804z M248.392,274.738c0.078-1.855,0.13-3.614,0.348-5.464
	c0.559-4.736,1.758-10.465,7.574-11.061c6.395-0.655,6.396,6.115,6.938,10.659c0.288,2.405,0.959,5.992,0.079,8.56
	c-1.464,0.037-2.92-0.003-4.404,0.158c-2.053,0.223-8.452,1.29-10.315,0.231c-0.163-0.038-0.267-0.022-0.334,0.027
	c0.014-0.411,0.009-0.823-0.037-1.234c-0.009-0.191-0.02-0.38-0.03-0.571C248.3,275.536,248.378,275.071,248.392,274.738z"/>
<path d="M248.252,315.62c2.908,0.131,5.963,0.238,8.872,0.066c2.218-0.132,5.364,0.139,7.548-0.434
	c3.493-0.916,3.129-6.515,2.896-9.355c-0.364-4.436-0.618-9.716-3.328-13.415c-2.811-3.837-7.017-4.897-11.444-2.959
	c-4.158,1.821-6.56,5.988-7.23,10.349c-0.255,1.661-0.553,3.621-0.669,5.612c-0.186,1.553-0.254,3.041-0.332,4.023
	C244.283,313.045,244.236,315.437,248.252,315.62z M248.392,308.552c0.078-1.854,0.13-3.613,0.348-5.464
	c0.559-4.736,1.758-10.465,7.574-11.06c6.395-0.655,6.396,6.115,6.938,10.658c0.288,2.405,0.959,5.993,0.079,8.56
	c-1.464,0.037-2.92-0.003-4.404,0.158c-2.053,0.223-8.452,1.29-10.315,0.231c-0.163-0.038-0.267-0.022-0.334,0.027
	c0.014-0.412,0.009-0.823-0.037-1.234c-0.009-0.191-0.02-0.38-0.03-0.571C248.3,309.351,248.378,308.886,248.392,308.552z"/>
<path d="M248.252,350.544c2.908,0.131,5.963,0.238,8.872,0.066c2.218-0.132,5.364,0.139,7.548-0.434
	c3.493-0.916,3.129-6.515,2.896-9.355c-0.364-4.436-0.618-9.716-3.328-13.415c-2.811-3.837-7.017-4.897-11.444-2.959
	c-4.158,1.821-6.56,5.988-7.23,10.349c-0.255,1.661-0.553,3.621-0.669,5.612c-0.186,1.553-0.254,3.041-0.332,4.023
	C244.283,347.971,244.236,350.363,248.252,350.544z M248.392,343.478c0.078-1.855,0.13-3.614,0.348-5.464
	c0.559-4.736,1.758-10.465,7.574-11.061c6.395-0.655,6.396,6.115,6.938,10.658c0.288,2.405,0.959,5.992,0.079,8.56
	c-1.464,0.037-2.92-0.003-4.404,0.158c-2.053,0.223-8.452,1.29-10.315,0.231c-0.163-0.038-0.267-0.022-0.334,0.027
	c0.014-0.411,0.009-0.823-0.037-1.234c-0.009-0.191-0.02-0.38-0.03-0.571C248.3,344.277,248.378,343.812,248.392,343.478z"/>
<path d="M248.252,386.83c2.908,0.131,5.963,0.238,8.872,0.066c2.218-0.132,5.364,0.139,7.548-0.434
	c3.493-0.917,3.129-6.515,2.896-9.355c-0.364-4.436-0.618-9.716-3.328-13.415c-2.811-3.837-7.017-4.897-11.444-2.959
	c-4.158,1.821-6.56,5.988-7.23,10.349c-0.255,1.661-0.553,3.621-0.669,5.612c-0.186,1.553-0.254,3.041-0.332,4.023
	C244.283,384.256,244.236,386.649,248.252,386.83z M248.392,379.763c0.078-1.855,0.13-3.614,0.348-5.464
	c0.559-4.736,1.758-10.465,7.574-11.061c6.395-0.655,6.396,6.115,6.938,10.659c0.288,2.405,0.959,5.992,0.079,8.56
	c-1.464,0.037-2.92-0.003-4.404,0.158c-2.053,0.223-8.452,1.29-10.315,0.231c-0.163-0.038-0.267-0.022-0.334,0.027
	c0.014-0.411,0.009-0.823-0.037-1.234c-0.009-0.191-0.02-0.38-0.03-0.571C248.3,380.562,248.378,380.098,248.392,379.763z"/>
<path d="M230.165,462.779c-2.203-3.006-5.498-3.838-8.967-2.318c-3.258,1.426-5.14,4.692-5.665,8.109
	c-0.2,1.301-0.433,2.837-0.524,4.396c-0.146,1.217-0.199,2.383-0.26,3.152c-0.219,2.774-0.255,4.649,2.89,4.791
	c2.278,0.103,4.672,0.187,6.951,0.051c1.738-0.103,4.203,0.109,5.914-0.34c2.737-0.719,2.451-5.104,2.269-7.33
	C232.489,469.814,232.289,465.677,230.165,462.779z M229.455,477.481c-1.147,0.029-2.288-0.003-3.451,0.123
	c-1.608,0.176-6.622,1.01-8.082,0.181c-0.128-0.03-0.209-0.018-0.262,0.021c0.011-0.322,0.007-0.644-0.029-0.966
	c-0.007-0.15-0.016-0.298-0.023-0.447c0.07-0.395,0.131-0.76,0.142-1.022c0.061-1.453,0.101-2.831,0.272-4.281
	c0.438-3.711,1.377-8.2,5.935-8.666c5.011-0.513,5.011,4.792,5.436,8.351C229.619,472.66,230.144,475.47,229.455,477.481z"/>
<path d="M292.1,462.779c-2.203-3.006-5.498-3.838-8.967-2.318c-3.258,1.426-5.14,4.692-5.665,8.109
	c-0.2,1.301-0.433,2.837-0.524,4.396c-0.146,1.217-0.199,2.383-0.26,3.152c-0.22,2.774-0.257,4.649,2.89,4.791
	c2.278,0.103,4.672,0.187,6.951,0.051c1.738-0.103,4.203,0.109,5.914-0.34c2.738-0.719,2.451-5.104,2.269-7.33
	C294.423,469.814,294.225,465.677,292.1,462.779z M291.39,477.481c-1.147,0.029-2.288-0.003-3.451,0.123
	c-1.608,0.176-6.622,1.01-8.082,0.181c-0.128-0.03-0.21-0.018-0.262,0.021c0.011-0.322,0.007-0.644-0.029-0.966
	c-0.007-0.15-0.016-0.298-0.023-0.447c0.07-0.395,0.131-0.76,0.142-1.022c0.06-1.453,0.101-2.831,0.272-4.281
	c0.438-3.711,1.377-8.2,5.935-8.666c5.011-0.513,5.012,4.792,5.436,8.351C291.553,472.66,292.079,475.47,291.39,477.481z"/>
<path d="M268.753,462.42c-0.414-5.134-1.813-12.006-7.611-13.677c-4.502-1.296-9.91,1.01-13.012,4.271
	c-4.003,4.209-4.35,10.38-4.565,15.821c-0.136,3.43-0.545,7.323-0.282,11.037c0.016,2.656,0.231,5.599,0.846,7.651
	c1.275,4.258,7.309,3.508,10.984,3.313c3.861-0.203,12.492,0.403,13.784-4.174c1.012-3.584-0.059-9.192-0.094-12.885
	C268.767,470.01,269.056,466.166,268.753,462.42z M264.556,484.147c-1.438,2.202-7.309,2.14-10.057,2.147
	c1.227-0.003-5.764-0.234-5.866,0.138c-0.44-0.712-0.564-4.894-0.624-5.263c-0.368-2.254-0.692-4.504-0.96-6.762
	c0.009-4.264,0.203-8.514,1.239-12.574c1.207-4.739,3.871-8.605,9.082-9.036c8.161-0.675,7.454,9.864,7.349,15.45
	c-0.046,2.457-0.043,4.916-0.067,7.374C264.635,477.403,265.505,482.692,264.556,484.147z"/>
<path d="M289.23,434.649c1.012-3.584-0.059-9.192-0.094-12.885c-0.036-3.766,0.253-7.611-0.049-11.357
	c-0.414-5.134-1.813-12.006-7.611-13.677c-4.502-1.296-9.91,1.01-13.012,4.271c-4.003,4.209-4.35,10.38-4.565,15.821
	c-0.135,3.43-0.545,7.323-0.282,11.037c0.016,2.656,0.231,5.599,0.846,7.651c1.275,4.258,7.309,3.508,10.984,3.313
	C279.308,438.62,287.939,439.226,289.23,434.649z M284.89,432.133c-1.438,2.202-7.309,2.14-10.057,2.147
	c1.227-0.003-5.764-0.234-5.866,0.138c-0.44-0.712-0.564-4.894-0.624-5.263c-0.368-2.254-0.692-4.504-0.96-6.762
	c0.009-4.264,0.203-8.514,1.239-12.574c1.207-4.739,3.871-8.605,9.082-9.036c8.161-0.675,7.454,9.864,7.35,15.45
	c-0.047,2.457-0.043,4.916-0.067,7.374C284.968,425.39,285.839,430.678,284.89,432.133z"/>
<path d="M251.991,434.649c1.012-3.584-0.059-9.192-0.094-12.885c-0.036-3.766,0.253-7.611-0.049-11.357
	c-0.414-5.134-1.813-12.006-7.611-13.677c-4.502-1.296-9.91,1.01-13.012,4.271c-4.003,4.209-4.35,10.38-4.565,15.821
	c-0.135,3.43-0.545,7.323-0.282,11.037c0.016,2.656,0.231,5.599,0.846,7.651c1.275,4.258,7.31,3.508,10.984,3.313
	C242.067,438.62,250.698,439.226,251.991,434.649z M247.649,432.133c-1.437,2.202-7.309,2.14-10.057,2.147
	c1.227-0.003-5.764-0.234-5.866,0.138c-0.44-0.712-0.564-4.894-0.624-5.263c-0.369-2.254-0.693-4.504-0.96-6.762
	c0.009-4.264,0.204-8.514,1.239-12.574c1.207-4.739,3.871-8.605,9.082-9.036c8.161-0.675,7.454,9.864,7.35,15.45
	c-0.047,2.457-0.044,4.916-0.067,7.374C247.729,425.39,248.598,430.678,247.649,432.133z"/>
<g>
</g>
<g>
</g>
<g>
</g>
<g>
</g>
<g>
</g>
<g>
</g>
<g>
</g>
<g>
</g>
<g>
</g>
<g>
</g>
<g>
</g>
<g>
</g>
<g>
</g>
<g>
</g>
<g>
</g>
</svg>
