<?xml version="1.0" encoding="iso-8859-1"?>
<!-- Generator: Adobe Illustrator 19.0.0, SVG Export Plug-In . SVG Version: 6.00 Build 0)  -->
<svg version="1.1" id="Layer_1" xmlns="http://www.w3.org/2000/svg" xmlns:xlink="http://www.w3.org/1999/xlink" x="0px" y="0px"
	 viewBox="0 0 511.995 511.995" style="enable-background:new 0 0 511.995 511.995;" xml:space="preserve">
<path style="fill:#E5D0BE;" d="M415.081,410.769c-0.257-10.804-1.201-20.873-0.341-31.657c0.915-11.463,1.841-22.996,1.019-34.494
	c-0.422-5.898-0.051-12.47-1.24-18.251c-0.915-4.447-2.178-7.801,0.127-12.303c0.562-1.098,1.284-2.375,0.725-3.475
	c-0.305-0.599-0.921-0.96-1.421-1.411c-1.275-1.153-1.795-2.962-1.76-4.681c0.093-4.752,0.343-9.088,0.016-13.983
	c-0.372-5.573-0.759-11.146-1.169-16.717c-0.823-11.141-1.745-22.275-2.858-33.391c-1.245-12.443-2.092-25.335-4.619-37.595
	c-1.03-5.003-2.643-9.741-3.511-14.891c-1.037-6.148-2.075-12.298-3.113-18.446c-0.4-2.372-0.802-4.77-0.648-7.172
	c0.143-2.239,0.767-4.425,0.935-6.661c0.256-3.399-1.429-6.775-1.891-10.17c-0.578-4.251-1.377-8.478-2.323-12.663
	c-0.949-4.196-2.065-8.354-3.321-12.47c-0.952-3.122-3.703-7.791-3.703-10.987c0-4.958-3.483-9.92-3.234-15.229
	c0.199-4.25-0.302-9.19,0.635-13.367c0.933-4.159,5.463-9.079,8.158-12.349c0.82-0.996,0.543-2.894,0.982-5.686
	c0.116-0.738-2.891-4.83-3.41-5.865c-1.383-2.748-2.829-5.446-4.474-8.049c-0.537-0.849-1.154-1.741-2.1-2.079
	c-1.473-0.528-3.019,0.489-4.209,1.504c-2.623,2.241-5.007,4.763-7.095,7.509c-1.548,2.035-2.433,4.72-4.17,6.51
	c5.033,7.408,8.396,14.39,8.396,23.566c0,8.225-2.186,16.299-4.245,24.199c-2.163,8.302-3.501,16.796-4.437,25.316
	c-0.398,3.627,0.321,6.842,0.176,10.222c-0.145,3.367-3.101,6.045-3.601,9.368c-0.318,2.116,0.343,4.24,0.887,6.309
	c1.861,7.071,2.41,14.48,1.641,21.75c-0.651,6.152-0.421,11.698-0.468,17.912c-0.103,13.752-1.433,27.472-1.257,41.229
	c0.172,13.372,2.217,26.583,1.66,40.039c-0.051,1.219-0.147,2.528-0.919,3.471s-2.479,1.185-3.129,0.154
	c-2.786,8.394-1.197,18.064-1.161,26.766c-3.444-0.049-6.826,2.049-8.312,5.157c-0.859,1.798-2.124,4.394-3.951,3.595
	c-1.001-0.437-1.278-1.698-1.427-2.78c-1.634-11.879-3.254-24.084-0.484-35.75c0.511-2.152,1.067-4.725-0.46-6.326
	c-0.562-0.59-1.336-0.94-1.914-1.515c-2.358-2.345-0.272-5.977,0.348-8.59c0.861-3.63-0.405-6.631-0.762-10.311
	c-1.058-10.899-2.122-21.798-3.197-32.694c-2.152-21.794-4.357-43.583-6.706-65.356c-0.895-8.306-4.722-16.473-4.626-24.674
	c0.159-13.514-2.06-26.202-6.48-38.767c-4.432-12.598-7.321-26.133-6.839-39.536c0.157-4.372,1.146-7.021,3.644-10.478
	c2.465-3.411,5.829-7.891,5.696-12.313c-0.102-3.379-2.529-5.888-4.309-8.53c-1.831-2.721-2.41-5.639-4.611-8.04
	c-0.528-0.575-1.119-1.185-1.891-1.294c-1.007-0.142-1.899,0.609-2.638,1.309c-2.71,2.565-5.421,5.13-8.131,7.695
	c-1.239,1.173-2.504,2.379-3.268,3.905c-1.967,3.927,2.515,7.414,4.052,10.901c1.899,4.309,3.103,8.899,3.515,13.591
	c0.808,9.204-1.441,18.362-4.88,26.843c-1.386,3.421-1.429,7.516-1.515,11.313c-0.133,5.889-1.187,11.622-1.693,17.467
	c-0.176,2.021,0.283,4.156-0.243,6.079c-0.648,2.365-2.821,4.229-3.798,6.471c-1.843,4.233-0.353,9.096,1.114,13.474
	c3.098,9.245,1.648,19.554,1.386,29.165c-0.31,11.357-0.575,22.715-0.882,34.071c-0.403,14.849,0.241,29.849-1.429,44.625
	c-4.755-2.928-9.22-6.649-14.212-8.997c-1.916-0.901-14.431-6.522-14.53-8.448c-0.443-8.676-3.338-16.748-4.954-25.202
	c-1.372-7.183-4.335-13.477-2.287-20.992c0.986-3.615,2.825-7.374,1.618-10.921c-0.848-2.49-3.261-4.368-5.883-4.578
	c-2.622-0.21-5.304,1.26-6.537,3.584c-1.612,3.039-0.714,6.784,0.621,9.954c1.335,3.171,3.102,6.308,3.158,9.747
	c0.045,2.716-0.991,5.315-1.917,7.868c-2.788,7.689-4.714,15.691-5.735,23.807c-0.474,3.767,0.061,6.834-2.858,9.526
	c-2.381,2.195-5.399,3.644-8.299,5.017c-2.029,0.96-18.422,7.17-18.48,8.729c0.524-13.914,1.39-27.808,0.885-41.722
	c-0.515-14.194-0.988-28.39-1.463-42.586c-0.185-5.534-2.037-11.594-1.305-16.967c0.661-4.848,3.246-9.458,2.481-14.464
	c-0.441-2.882-2.007-5.46-2.865-8.247c-2.257-7.331,0.353-15.05-0.703-22.51c-0.916-6.471-1.867-12.728-3.913-19.014
	c-1.268-3.897-2.642-7.869-2.978-11.983c-0.279-3.411,0.172-6.425-0.575-9.828c-1.134-5.167-0.758-8.081,2.55-12.686
	c2.456-3.418,5.254-7.277,4.465-11.411c-0.54-2.831-2.671-5.05-4.705-7.091l-7.879-7.91c-0.569-0.571-1.253-1.187-2.056-1.108
	c-0.848,0.083-1.407,0.895-1.845,1.626c-1.83,3.059-3.66,6.118-5.491,9.178c-1.85,3.092-3.767,6.449-3.487,10.043
	c0.353,4.538,4.028,7.975,7.025,11.4c9.427,10.775,1.836,27.988-1.699,39.787c-2.166,7.228-2.344,14.53-4.279,21.753
	c-1.816,6.781-6.215,13.255-5.319,20.544c0.831,6.755,1.411,11.177,0.022,17.964c-1.267,6.188-2.403,12.403-3.43,18.636
	c-4.038,24.525-6.354,49.293-8.272,74.062c-0.731,9.431-2.777,18.333-2.044,27.749c0.925,11.873-3.001,23.315-3.5,35.099
	c-0.17,4-0.429,7.851-1.222,11.793c-0.108,0.538-0.241,1.096-0.387,1.668c-0.842,3.315-2.106,7.098-1.44,10.278
	c-2.894-3.041-5.662-6.265-8.474-9.4c-1.147-1.279-2.319-2.598-2.908-4.209c-0.639-1.75-0.529-3.68-0.277-5.525
	c0.719-5.252,2.506-10.669,0.871-15.711c-0.718-2.214-2.062-4.189-2.72-6.423c-1.387-4.704,0.388-9.474,0.695-14.188
	c0.299-4.582-0.241-9.108,0.101-13.756c1.172-15.946,0.114-32.087-0.49-48.123c-0.628-16.696-5.234-33.375,0.252-50.056
	c0.451-1.371,0.49-3.16,0.016-4.508c-3.191-9.081-3.815-18.899-4.736-28.395c-0.88-9.073-2.428-17.099-5.047-25.923
	c-2.487-8.38-4.144-17.817-0.067-25.55c1.69-3.206,4.346-6.085,4.735-9.688c0.548-5.083-3.539-9.357-7.3-12.82
	c-5.446-5.013-8.042-3.494-11.95,1.898c-3.261,4.499-6.554,10.365-4.505,16.058c2.697,7.484,9.312,10.239,9.165,19.094
	c-0.16,9.574-0.299,19.398-3.942,28.407c-2.792,6.906-5.454,14.253-5.872,21.602c-0.337,5.95-4.634,11.089-4.897,16.975
	c-0.118,2.623,1.13,5.19,1.224,7.867c0.103,2.924-0.38,5.863-1.002,8.709c-1.538,7.038-1.71,13.952-2.975,20.938
	c-1.289,7.117-2.42,14.261-3.432,21.423c-0.918,6.495-1.733,13.003-2.464,19.521c-1.445,12.883-2.561,25.8-3.499,38.729
	c-0.758,10.464,0.186,21.161,0.036,31.764c-0.018,1.31-0.077,2.733-0.918,3.739c-0.649,0.776-1.648,1.151-2.598,1.5
	c-0.95,0.349-1.946,0.736-2.58,1.525c-2.015,2.512,2.967,11.909,2.791,15.413c-0.345,6.842-0.767,13.684-1.195,20.521
	c-0.715,11.591-2.012,22.408-1.308,34.144c0.846,14.114,1.88,28.089,1.509,42.21c-0.421,16.043-1.531,32.086-1.385,48.12
	c0.102,11.203-0.221,22.752,5.004,33.453c3.502,0.862,6.413,2.14,9.357,2.216c37.419,0.967,74.842,1.765,112.265,2.593
	c0.761,0.017,1.524-0.145,2.287-0.162c15.279-0.332,30.558-0.825,45.838-0.946c38.945-0.309,77.889-0.429,116.834-0.687
	c4.581-0.031,9.19-0.204,13.733-0.755c9.209-1.117,12.328-4.015,13.186-12.727c0.674-6.836,1.021-13.742,0.918-20.609
	C416.168,452.027,415.572,431.399,415.081,410.769z M232.991,309.43c-3.802,1.545-9.555,6.596-13.874,4.49
	c-2.877-1.402-3.485-4.76-3.384-7.658c0.134-3.867,1.425-7.55,2.374-11.259c0.933-3.644,1.872-7.401,2.414-11.123
	c0.458-3.141,0.148-6.254,0.313-9.357c-0.01-0.011-0.021-0.017-0.031-0.029c-0.069-0.079-0.138-0.158-0.207-0.238
	c-0.815-0.94-1.053-2.18-0.427-3.308c1.297-2.333,5.226-2.745,7.431-3.862c3.051-1.548,5.783-3.495,9.018-4.65
	c1.353-0.483,3.039,0.546,3.358,1.907c1.285,5.469-0.045,10.735-0.84,16.169c-0.457,3.125-0.971,6.815,0.584,9.709
	c1.198,2.23,3.314,2.981,5.171,4.546C254.621,302.967,238.59,307.155,232.991,309.43z M296.544,311.314
	c-0.111,1.621-1.625,3.154-3.369,2.567c-3.932-1.325-7.623-3.024-11.42-4.679c-4.382-1.913-7.983-2.523-12.599-2.989
	c-3.81-0.384-6.498-3.332-5.461-7.265c1.346-5.103,7.254-6.729,10.027-10.667c3.968-5.633,0.983-17.223-0.799-23.279
	c-0.122-0.413,0.009-0.796,0.26-1.072c0.382-1.151,1.448-1.99,2.964-1.478c4.224,1.425,9.493,3.008,13.163,5.555
	c3.096,2.15,2.971,5.308,2.93,8.735C292.098,288.475,297.343,299.613,296.544,311.314z"/>
<g>
	<path style="fill:#C6AB97;" d="M141.247,160.757c-13.55,32.664-16.286,66.544-19.348,101.543c-0.857,9.796-1.64,19.573-0.45,29.367
		c1.041,8.561,4.658,16.587,5.35,25.189c1.102,13.706-4.877,25.728-0.484,39.101c4.986,15.176-2.086,30.54-3.406,45.609
		c-0.252,2.882-1.453,15.963,2.59,14.964c2.956-0.73,4.858-7.836,5.875-10.277c3.72-8.931,5.944-18.134,10.77-26.599
		c2.557-4.484,4.862-9.076,7.296-13.61c1.138-2.123,2.256-5.804,4.933-6.486c5.153-1.313,7.892,7.716,10.066,10.978
		c4.546,6.823,8.541,13.135,11.247,20.976c2.413,6.995,4.222,14.376,8.018,20.744c1.057,1.772,3.034,3.81,2.146,6.021
		c-1.152,2.866-4.167,1.869-6.252,0.419c-3.227-2.244-4.878-7.334-5.802-11.017c-1.357-5.413-2.762-9.602-6.163-14.147
		c-3.353-4.48-6.986-6.859-12.548-4.255c-8.662,4.054-9.391,11.872-11.445,20.194c-2.279,9.238-5.242,17.281-4.089,26.943
		c2.17,18.191,8.267,35.496,15.272,52.211c1.644,3.923,6.084,10.213,4.871,14.585c-2.059,7.417-15.366,3.875-20.724,3.344
		c-8.613-0.854-17.316-1.666-25.961-1.43c-5.044,0.138-11.423-0.482-12.447-6.65c-4.856-29.252-2.442-60.163-1.167-89.73
		c0.381-8.847-0.475-17.935-0.968-26.828c-0.199-3.577-1.247-7.276-1.261-10.812c-0.015-3.467,1.349-6.805,1.284-10.301
		c-0.078-4.137-0.223-8.269-0.229-12.407c-0.009-6.109,0.414-12.371,1.053-18.403c0.462-4.359,2.172-9.781,0.138-13.999
		c-1.022-2.117-3.521-1.839-2.145-4.879c0.837-1.849,3.095-1.796,4.069-3.437c1.401-2.359,1.423-8.446,1.628-11.195
		c0.386-5.148,0.692-10.302,1.005-15.454c0.612-10.041,1.18-20.085,1.973-30.114c0.837-10.581,1.741-21.373,3.187-31.811
		c1.712-12.354,1.804-24.86,3.235-37.243c0.725-6.274-0.703-16.108,5.196-20.384C123.984,156.823,133.93,162.26,141.247,160.757z"/>
	<path style="fill:#C6AB97;" d="M241.303,306.177c-3.004,1.39-6.318,2.444-8.311,3.254c-2.755,1.119-6.534,4.068-10.051,4.813
		c-0.484,0.312-0.958,0.623-1.41,0.931c-2.624,1.781-5.033,3.697-7.559,5.492c-5.021,3.569-9.835,4.982-15.558,7.13
		c-1.728,0.648-7.907,3.609-9.318,1.576c-0.623-0.898,0.733-1.574,0.637-2.254c-0.223-1.558-0.386-2.697-1.152-4.171
		c-1.481-2.848-4.036-5-5.56-7.829c-2.328-4.325-3.058-8.934-2.524-13.803c0.7-6.385,4.067-12.381,4.358-18.704
		c0.28-6.091-2.466-10.63-0.647-16.982c3.119-10.893,7.824-19.2,6.537-30.971c-1.29-11.81-2.94-23.713-3.549-35.588
		c-0.725-14.13,0.132-29.18,5.384-42.451c2.515-6.356,5.387-12.5,8.646-18.507c1.011-1.864,2.013-4.833,3.912-5.854
		c-3.887-1.211-16.97-5.765-20.952-1.511c-1.631,1.741-1.003,5.578-1.229,7.756c-0.511,4.924-1.515,9.801-2.339,14.673
		c-1.963,11.613-3.718,23.358-5.189,35.048c-1.771,14.064-5.639,28.001-5.635,42.177c0.003,11.873-0.663,23.747-0.982,35.619
		c-0.138,5.096,0.078,7.469-3.08,11.022c-3.319,3.734,0.003,3.978,0.956,7.907c0.488,2.013-0.473,4.701-0.656,6.799
		c-0.304,3.461-0.329,7.032-0.504,10.503c-0.412,8.197-0.633,17.049-0.33,25.24c0.268,7.266,3.93,14.874,6.635,21.486
		c2.43,5.942,4.248,12.014,6.335,18.081c3.607,10.482,6.479,21.483,9.599,32.158c1.037,3.55,1.703,8.225,3.619,11.42
		c2.855,4.76,5.625-0.109,7.726-3.66c3.405-5.754,7.389-12.976,9.554-19.297c2.218-6.481,1.939-10.109-0.89-16.189
		c-2.367-5.085-5.34-11.351-9.411-15.264c-3.672-3.531-4.728-5.305-3.075-10.875c1.511-5.094,5.346-7.803,9.346-10.832
		c2.877-2.179,4.857-3.734,7.027-6.513c1.051-1.346,2.1-3.792,4.355-2.116c2.656,1.975-0.403,8.884-0.979,11.37
		c-1.862,8.048-2.139,16.678-1.472,24.833c0.164,2.002,0.047,7.313,3.026,6.466c1.859-0.529,4.187-6.335,4.889-7.891
		c1.789-3.962,2.288-8.316,3.615-12.424c1.939-6.001,5.607-11.489,8.35-17.17c2.965-6.143,6.799-11.873,9.693-18.006
		c1.05-2.225,1.869-4.827,1.547-7.314C243.594,305.799,242.459,305.953,241.303,306.177z"/>
	<path style="fill:#C6AB97;" d="M296.77,329.246c-0.062-5.989,0.514-12.515-5.309-15.535c-3.823-1.983-8.416-2.94-12.451-4.492
		c-1.539-0.592-3.938-1.931-5.952-2.516c-0.633-0.1-1.277-0.192-1.939-0.272c-3.176,0.189-2.055,1.862-2.491,3.524
		c1.786,5.966,5.317,11.951,7.845,17.671c2.617,5.922,5.501,11.733,8.132,17.639c2.006,4.502,3.049,9.289,5.366,13.676
		c0.62,1.173,1.939,4.367,3.322,4.861c2.031,0.723,1.36-0.021,2.241-1.88C299.774,352.973,296.871,338.963,296.77,329.246z"/>
	<path style="fill:#C6AB97;" d="M334.427,366.974c-0.443-5.012-4.908-8.319-7.876-11.913c-6.044-7.315-9.561-16.961-10.637-26.321
		c-0.979-8.516,3.741-15.769,3.364-24.129c-0.103-2.29-0.752-4.285,0.539-6.31c1.563-2.45,4.4-2.697,6.542-4.297
		c2.091-1.564,3.219-3.844,4.121-6.362c2.026-5.653,1.67-12.097,0.848-17.944c-2.887-20.562-9.333-40.388-10.92-61.193
		c-1.582-20.744-0.932-41.504-2.03-62.243c-0.415-7.847-0.319-15.038-8.955-16.551c-3.429-0.6-10.202-2.183-12.406,1.188
		c-2.876,4.399-1.004,15.017-0.592,19.872c0.775,9.151,0.345,18.44,0.345,27.629l-0.327,46.798c0,6.925-0.676,14.17,0.132,21.06
		c0.282,2.411,1.094,4.09-0.063,6.364c-0.893,1.756-2.827,2.514-3.423,4.529c-1.065,3.599,0.244,8.079,0.099,11.826
		c-0.233,5.992-0.31,11.785-0.017,17.663c1.086,6.235,2.783,12.394,3.298,18.658c0.18,0.729,0.345,1.461,0.466,2.204
		c0.755,4.666-2.415,8.838-2.133,13.452c0.439,7.183,2.294,14.083,2.297,21.489c0.006,12.159-0.459,23.458,2.451,35.418
		c1.602,6.584,4.666,12.306,7.367,18.471c1.876,4.285,4.3,9.57,7.201,13.259c1.637,2.083,4.303,4.525,6.402,2.452
		c1.227-1.212,1.419-5.899,1.771-7.518c0.886-4.09,1.358-8.268,2.298-12.339c1.106-4.788,2.628-8.869,5.301-12.998
		C332.178,375.652,334.823,371.453,334.427,366.974z"/>
	<path style="fill:#C6AB97;" d="M392.273,349.27c-2.341-7.357-5.366-14.339-7.166-21.896c-1.99-8.353,1.833-11.54,6.27-17.824
		c5.547-7.857-1.273-18.732-0.684-27.388c0.472-6.942-0.247-13.462-0.918-20.348c-0.9-9.237-1.222-18.346-3.817-27.322
		c-2.636-9.118-5.025-18.728-6.022-28.193c-1.476-14.018,1.665-30.185,7.483-42.953c-6.839,3.076-12.541-0.065-16.897-1.379
		c-2.24-0.676-4.374-2.304-6.297-0.184c5.476,14.612,0.839,32.779-0.122,47.943c-0.859,13.564-0.137,27.162,0.645,40.712
		c0.662,11.475,3.605,26.011,0.36,37.217c-4.775-1.516-4.953,4.578-4.779,7.822c0.305,5.686-0.093,11.1-0.072,16.765
		c0.026,7.032,3.568,12.268,5.58,18.809c2.244,7.293,3.464,14.713,6.853,21.639c3.268,6.68,5.6,13.651,8.255,20.889
		c1.602,4.367,3.389,9.014,4.709,13.403c1.546,5.136,0.793,10.665,2.747,15.773c1.333,3.487,3.75,7.23,4.66,10.609
		c0.901,3.348-0.568,4.583-1.952,6.946c-2.904,4.957-0.691,12.033,0.317,17.697c3.454,19.41,0.837,39.518,2.936,59.058
		c0.591,5.505,3.05,8.975,9.155,8.944c9.731-0.049,9.238-15.846,7.74-22.14c-1.628-6.836-6.429-12.983-8.7-19.706
		c-3.512-10.397-2.767-20.093-2.386-30.833c0.299-8.431,1.525-17.23,0.489-25.648c-0.886-7.19-4.099-13.524-5.922-20.242
		c-1.483-5.459,4.25-7.673,9.008-8.028c4.015-0.301,9.165,2.463,10.648-2.381c1.499-4.897-2.985-3.748-6.353-4.199
		c-4.619-0.618-10.683-2.324-13.457-6.413c-1.868-2.754-0.983-4.382-0.579-7.257C394.498,355.645,393.36,352.683,392.273,349.27z"/>
	<path style="fill:#C6AB97;" d="M299.062,477.14c0.012-4.924,0.119-9.85-1.048-14.663c-6.572,7.285-2.871,20.546-6.987,29.08
		c-2.333,4.836-7.536,6.289-12.122,3.631c-5.145-2.982-10.504-5.822-15.834-8.715c-12.389-6.724-21.091-13.514-20.238-28.872
		c0.43-7.74,2.265-15.037,1.286-22.841c-0.909-7.241-3.934-14.022-5.059-21.229c-1.212-7.758,0.388-14.644,1.275-22.266
		c0.771-6.63,1.464-11.299,6.052-16.808c2.17-2.606,10.137-10.416,12.371-4.622c1.582,4.1-2.113,11.045,1.714,14.596
		c2.939,2.728,3.561-1.324,6.627-1.129c8.903,0.567,2.383,21.286,7.555,25.275c3.226,2.488,6.522-1.951,9.438,0.189
		c3.184,2.337,2.022,10.738,3.596,14.289c2.082,4.693,6.536,5.768,8.456,0.028c1.473-4.406-0.18-11.36-1.096-15.802
		c-0.464-2.246-1.111-6.989-3.669-7.676c-2.911-0.781-4.982,3.175-7.868,0.789c-5.214-4.311,2.007-15.33-3.426-19.383
		c-2.476-1.846-3.944,0.615-5.651-3.454c-1.473-3.511-1.385-7.602-2.857-11.094c-1.253-2.973-3.674-4.636-6.09-6.563
		c-2.733-2.183-3.883-5.718-6.558-7.894c-4.116-3.347-3.261,0.38-6.599,2.096c-1.376,0.708,1.51-10.316,1.713-11.17
		c1.276-5.373,0.934-11.828,0.2-17.254c-0.601-4.44-1.229-8.309-0.678-12.805c0.723-5.895,2.661-10.862,1.888-16.822
		c-0.809-6.239-3.323-11.785-3.604-18.158c-0.434-9.827,0.493-19.864,2.043-29.579c3.001-18.813,7.648-39.213,4.341-58.278
		c-0.434-2.502-0.989-7.794-4.342-6.102c-1.268,0.64-3.227,4.909-4.017,6.24c-4.154,6.995-3.421,14.686-4.566,22.445
		c-1.314,8.896-1.822,17.266-2.2,26.216c-0.358,8.48-2.107,16.743-3.263,25.142c0.051,0.118,0.103,0.235,0.132,0.36
		c1.285,5.469-0.045,10.735-0.84,16.169c-0.258,1.764-0.521,3.706-0.433,5.586c0.334,0.857,0.764,1.682,1.323,2.462
		c2.565,3.579,6.611,5.695,7.972,9.967c0.367,1.152,0.512,2.228,0.481,3.243c-0.184,5.918-6.357,9.754-9.269,14.58
		c-4.514,7.483-7.987,15.516-11.801,23.361c-6.183,12.716-10.547,25.937-15.397,39.183c-3.153,8.611-6.462,16.617-10.885,24.66
		c-3.362,6.114-8.108,11.344-10.063,18.184c-1.954,6.839-1.301,14.769-1.306,21.822c-0.009,11.646,0.784,23.247,0.662,34.912
		c-0.064,6.204-5.904,29.153,4.909,29.154c19.224,0.002,38.829-2.302,58.571-2.298c8.113,0.001,17.203-0.809,25.207,0.6
		c5.046,0.888,11.677,5.431,16.631,1.682c2.381-1.804,2.589-6.902,3.096-9.805C300.049,490.841,299.045,484.148,299.062,477.14z"/>
	<path style="fill:#C6AB97;" d="M348.477,363.952c-5.762,11.088-8.627,23.477-12.78,35.343c-1.706,4.875-2.705,8.424-5.692,12.61
		c-1.853,2.598-2.949,6.341-6.678,5.767c-0.181,7.876-1.421,15.772-1.048,23.814c0.641,13.826,1.562,27.661,1.652,41.512
		c0.033,4.996-0.326,9.963-0.326,14.976c0,2.508-0.705,5.858,0.977,7.945c2.779,3.451,11.725,1.844,15.516,1.718
		c7.61-0.254,14.661-0.081,22.218,0.717c3.615,0.382,8.154,1.712,11.512-0.055c4.638-2.441,3.506-8.602,1.688-12.719
		c-3.364-7.618-12.988-8.761-18.051-15.071c-8.12-10.12-11.661-21.106-11.606-33.91c0.046-10.723-2.166-20.444-0.355-31.162
		c1.686-9.976,0.114-20.186,1.804-30.078c1.139-6.674,8.506-15.64,13.849-7.571c3.555,5.368,5.057,14.236,10.022,18.35
		c5.933,4.915,4.52-4.91,3.42-8.292c-2.03-6.238-5.354-12.778-8.205-18.66c-1.816-3.748-3.327-8.719-8.12-9.101
		C353.178,359.675,351.284,362.862,348.477,363.952z"/>
</g>
<g>
	<path style="fill:#F7E8DF;" d="M130.197,47.169c-3.644,3.768-12.23,11.718-11.035,17.272c1.053,4.9,5.926,10.164,8.498,14.464
		c3.425,5.724,0.809,10.642,1.483,17.032c0.434,4.119-1.298,5.911-2.946,9.867c-2.141,5.142-2.946,10.728-4.582,16.061
		c-1.43,4.66-1.872,9.11-2.29,13.927c-0.472,5.423-2.577,9.711-4.091,14.925c-3.516,12.112,9.746,13.119,18.807,12.3
		c3.258-0.295,11.266,0.196,13.842-2.202c3.96-3.687-2.029-10.761-3.247-14.489c-1.207-3.693-0.771-8.89-0.95-12.745
		c-0.248-5.35-0.227-10.701-0.472-16.051c-0.149-3.25,0.218-6.957-0.82-10.082c-0.839-2.524-2.855-3.945-4.022-6.274
		c-2.16-4.311-0.411-10.334-0.64-15.076c-0.125-2.584-1.056-5.304-0.596-7.905c0.705-3.979,4.394-6.416,6.403-9.672
		c3.51-5.686,0.723-10.776-3.779-15.132c-1.724-1.668-4.004-3.95-5.964-5.182C131.127,46.527,131.108,48.178,130.197,47.169z"/>
	<path style="fill:#F7E8DF;" d="M196.958,15.097c-2.631,5.262-11.3,11.548-10.798,17.998c0.462,5.938,7.417,10.193,9.734,15.391
		c1.985,4.452,1.26,12.549,1.064,17.59c-0.403,10.4-7.055,20.074-8.917,30.439c-0.903,5.028-1.176,10.142-2.211,15.112
		c-0.792,3.803-3.498,8.139-3.269,12.027c0.644,10.962,18.736,6.956,25.769,6.636c4.457-0.203,7.766-0.558,7.951-5.817
		c0.177-5.017-3.866-10.061-4.3-15.38c-0.732-8.986-0.651-18.003-1.262-26.982c-0.409-5.99-3.52-9.953-5.02-15.301
		c-1.183-4.217,0.008-9.569-0.559-14.009c-0.85-6.666,1.411-9.541,4.515-15.459c2.466-4.701,2.794-8.004-0.515-12.175
		C206.696,22.092,202.913,15.336,196.958,15.097z"/>
	<path style="fill:#F7E8DF;" d="M313.788,15.097c-3.496,2.373-16.782,11.315-16.466,15.781c0.161,2.273,4.733,7.511,5.986,9.4
		c1.516,2.284,4.063,5.273,4.58,7.881c0.437,2.208-0.943,4.266-1.283,6.536c-0.438,2.934,0.453,5.824,0.31,8.836
		c-0.16,3.347-2.204,6.067-3.526,9.055c-2.349,5.312-1.945,10.218-1.702,15.892c0.247,5.763,0.148,11.734-0.363,17.445
		c-0.501,5.609-3.024,8.089-5.223,12.842c-1.777,3.84-2.533,10.584,1.891,12.434c1.807,0.756,5.075,0.513,7.017,0.418
		c3.717-0.18,7.283,0,10.988-0.017c2.533-0.011,9.108,0.628,11.126-1.04c3.261-2.693,2.018-11.722,0.734-15.031
		c-1.068-2.753-2.959-4.546-3.687-7.556c-0.932-3.852-0.705-7.896-0.886-11.816c-0.296-6.423-2.098-11.944-4.517-17.818
		c-2.076-5.042-4.909-11.637-4.679-17.172c0.094-2.262,1.099-4.408,0.933-6.709c-0.199-2.748-1.012-3.008,0.06-5.375
		c2.424-5.359,9.591-9.29,10.174-15.643C325.861,26.857,318.754,23.547,313.788,15.097z"/>
	<path style="fill:#F7E8DF;" d="M380.548,47.169c-3.294,5.059-15.895,9.873-15.353,16.526c0.216,2.65,3.74,5.521,5.281,7.699
		c1.768,2.497,3.691,4.808,4.525,7.847c0.74,2.702,0.249,4.336-0.343,6.872c-0.856,3.671-0.411,7.479-0.654,11.374
		c-0.258,4.141-2.982,6.864-4.016,10.954c-1.567,6.2-1.852,13.095-1.564,19.472c0.219,4.845,1.469,11.073,0.016,15.795
		c-1.416,4.603-6.942,7.556-6.224,13.1c1.091,8.416,20.961,5.454,27.089,5.229c3.617-0.133,7.204-0.003,7.952-4.062
		c1.18-6.395-3.243-10.457-4.853-15.87c-2.123-7.139-1.66-14.858-2.978-22.12c-0.983-5.423-3.584-10.635-5.366-15.889
		c-1.683-4.966-1.82-7.351-1.201-12.477c0.375-3.113-0.487-6.34-0.024-9.359c0.495-3.229,3.319-5.704,5.168-8.272
		c2.988-4.149,6.58-7.988,4.08-13.064C390.289,57.283,385.986,48.022,380.548,47.169z"/>
</g>
<g>
	<path style="fill:#D8C7BF;" d="M136.088,52.405c-4.655,2.102-6.043,9.038-6.222,13.688c-0.172,4.495,1.814,7.696,2.621,11.846
		c1.003,5.16,0.407,11.157,0.662,16.454c0.491,10.206-3.329,19.016-4.35,29.11c-0.364,3.6-0.57,7.701,0.889,11.139
		c1.002,2.358,2.792,3.59,2.803,6.279c0.017,4.025-5.519,8.836-2.475,12.774c2.266,2.93,7.759,1.332,9.674,4.823
		c2.633,4.801-4.714,3.749-7.46,3.27c-4.417-0.77-9.164-0.562-13.516-1.39c-7.125-1.354-2.804-7.268-0.923-11.535
		c2.648-6.006,1.841-12.383,2.323-18.693c0.484-6.336,2.309-12.015,4.984-17.702c1.904-4.047,3.989-8.368,4.449-12.928
		c0.403-3.991-0.231-8.029-0.009-12.06c0.485-8.826-9.18-14.429-9.414-23.302c-0.137-5.145,4.709-10.516,7.166-14.759
		c1.175-2.029,0.882-3.162,3.297-2.839C132.103,46.783,134.859,49.33,136.088,52.405z"/>
	<path style="fill:#D8C7BF;" d="M201.867,18.37c-3.592,4.039-4.709,9.859-4.27,15.117c0.363,4.341,3.143,7.64,3.924,11.772
		c0.724,3.831-0.398,7.884-0.62,11.788c-0.203,3.585-0.344,7.142-0.344,10.763c0,2.864,0.43,5.97,0.343,8.736
		c-0.138,4.377-2.506,8.866-4.105,12.892c-5.236,13.188-3.999,23.408,7.689,31.362c2.187,1.488,6.809,4.278,5.578,7.72
		c-1.096,3.064-8.581,2.52-11.568,2.422c-4.054-0.132-10.002,0.209-13.645-1.807c-3.818-2.113-2.116-5.856-0.728-9.475
		c2.203-5.743,4.173-11.068,4.646-17.234c0.493-6.442,1.234-13.358,3.2-19.548c1.285-4.043,3.59-7.787,4.752-11.902
		c0.933-3.307,0.228-6.365,0.238-9.755c0.01-4.031,0.655-8.459-1.22-11.839c-2.287-4.122-5.257-7.536-7.362-11.796
		c-2.878-5.826-2.224-6.497,1.512-12.167c2.152-3.265,4.942-8.885,7.66-11.263C199.017,16.054,201.64,16.796,201.867,18.37z"/>
	<path style="fill:#D8C7BF;" d="M317.061,18.043c-1.94,4.16-4.489,7.54-5.39,12.233c-0.854,4.444-0.498,7.634,0.123,11.974
		c0.949,6.646-1.293,12.042-1.277,18.654c0.016,6.437-0.98,11.154-2.863,17.318c-2.168,7.094-2.572,15.433-0.545,22.617
		c1.352,4.791,3.331,9.447,4.075,14.4c0.325,2.165-0.332,5.54,0.708,7.525c1.531,2.92,5.272,3.838,6.512,7.197
		c-1.672,2.559-8.675,0.433-11.387,0.312c-3.44-0.153-10.055,1.619-11.561-2.316c-1.798-4.699,3.192-10.138,4.522-14.194
		c2.133-6.505,0.66-15.033,0.376-21.699c-0.293-6.883-1.785-14.324,2.891-19.967c3.372-4.069,3.084-4.455,2.682-9.556
		c-0.286-3.625,0.242-7.056,0.908-10.479c0.71-3.657,0.005-5.453-1.954-9.057c-1.904-3.504-7.386-10.738-5.758-14.808
		c1.173-2.932,6.269-5.585,8.432-7.837c2.099-2.185,4.63-4.723,5.9-7.276C314.566,14.705,315.484,17.383,317.061,18.043z"/>
	<path style="fill:#D8C7BF;" d="M381.574,46.088c-1.557,2.218-2.41,4.007-4.928,5.913c-2.967,2.246-6.31,4.139-8.462,7.276
		c-3.341,4.873,1.865,8.948,4.084,13.4c1.183,2.374,2.717,4.915,3.061,7.544c0.372,2.838-1.048,5.494-1.344,8.401
		c-0.348,3.413,0.711,6.985,0.344,10.26c-0.356,3.173-2.603,6.07-3.681,9.174c-2.995,8.617-0.955,18.686-1.481,27.708
		c-0.258,4.432-0.734,7.524-3.018,11.372c-1.714,2.888-4.226,6.817-3.616,10.387c0.756,4.42,5.111,5.536,9.073,5.915
		c3.506,0.336,12.784-0.22,15.496-2.788c4.092-3.875-3.055-6.161-4.358-8.726c-1.812-3.563-1.47-8.232-1.374-12.036
		c0.124-4.871-0.69-9.435-1.403-14.259c-0.811-5.488-2.523-11.986-1.724-17.503c0.733-5.055,0.476-8.729-0.248-13.797
		c-1.125-7.865,2.138-15.305,1.08-23.079c-0.549-4.03-1.37-7.318,0.484-11.206c1.117-2.341,3.384-3.451,4.684-5.267
		c1.975-2.76,0.589-7.716-2.074-9.509C381.958,45.549,381.761,45.821,381.574,46.088z"/>
</g>
<g>
	<path style="fill:#2D3738;" d="M254.227,385.224c-16.4,3.029-22.476,35.234-4.844,40.915c16.932,5.456,25.339-13.998,21.452-27.687
		c-0.837-2.944-2.46-6.215-4.675-8.327C262.532,386.665,258.489,387.116,254.227,385.224z"/>
	<path style="fill:#2D3738;" d="M109.907,320.427c-4.115,0.843-3.72,8.289-4,11.525c-0.545,6.314-0.837,12.799-0.582,19.254
		c0.115,2.891,1.741,10.815,5.273,6.037c3.126-4.229,1.15-13.474,1.593-18.564C112.525,334.829,114.77,322.741,109.907,320.427z"/>
	<path style="fill:#2D3738;" d="M122.67,315.191c-4.848,3.048-2.794,12.885-3.254,17.6c-0.477,4.892-1.852,11.206-0.998,16.107
		c0.882,5.073,4.87,5.981,6.548,0.691c1.937-6.108,1.53-14.142,1.636-20.53C126.674,324.678,127.307,317.314,122.67,315.191z"/>
	<path style="fill:#2D3738;" d="M134.124,309.955c-3.756,6.825-2.585,17.305-2.973,24.904c-0.149,2.917-0.764,10.754,2.72,12.664
		c6.898,3.78,6.567-26.978,6.308-29.891C139.951,315.082,138.573,305.445,134.124,309.955z"/>
	<path style="fill:#2D3738;" d="M175.358,288.683c-2.354,7.346-2.621,15.317-2.619,23.091c0.002,5.22-0.604,12.809,3.6,16.539
		c4.799-3.508,3.273-16.881,3.273-22.12C179.613,303.822,181.413,287.279,175.358,288.683z"/>
	<path style="fill:#2D3738;" d="M188.776,284.756c-2.528,7.109-2.627,16.349-2.962,23.808c-0.127,2.823-1.195,10.995,1.842,12.859
		c6.31,3.874,6.343-22.401,6.357-25.623C194.022,293.407,194.45,282.385,188.776,284.756z"/>
	<path style="fill:#2D3738;" d="M202.194,277.884c-2.845,2.111-2.035,9.103-2.3,12.341c-0.371,4.519-0.646,8.996-0.646,13.546
		c0,3.02-1.192,11.139,2.356,12.736c7.537,3.392,7.315-24.587,7.151-28.224c-0.106-2.34-1.846-14.294-6.423-9.819
		C202.06,278.232,201.904,277.929,202.194,277.884z"/>
	<path style="fill:#2D3738;" d="M306.588,277.556c-4.904,5.412-4.933,15.881-4.589,22.845c0.207,4.188,0.218,12.486,3.938,15.291
		c9.985,7.531,7.651-24.824,6.869-29.309C312.295,283.459,311.221,273.272,306.588,277.556z"/>
	<path style="fill:#2D3738;" d="M320.005,283.12c-4.728,5.47-3.138,15.979-2.545,22.526c0.319,3.529,0.1,10.934,2.255,13.939
		c3.531,4.92,6.63-0.788,6.844-4.295c0.357-5.9-0.589-11.846-1.33-17.569c-0.483-3.739,0.329-13.789-4.505-14.567
		C320.526,283.809,319.974,283.751,320.005,283.12z"/>
	<path style="fill:#2D3738;" d="M333.605,289.601c-3.639,2.433-1.783,21.054-1.285,23.781c0.886,4.844-0.234,12.349,6.278,13.558
		c3.249,0.602,0.757-20.86,0.515-23.288c-0.334-3.347-0.1-12.155-3.597-14.01C334.753,289.236,334.123,289.255,333.605,289.601z"/>
	<path style="fill:#2D3738;" d="M370.73,333.19c0.017-6.557-0.244-15.942,2.273-21.943c2.469-5.887,4.802-1.162,5.591,2.627
		c1.056,5.073,1.628,10.365,1.882,15.643c0.192,3.977,1.531,12.827-1.309,16.036C373.063,352.449,371.11,335.403,370.73,333.19z"/>
	<path style="fill:#2D3738;" d="M386.438,315.191c-3.011,6.094-0.66,15.866-0.001,22.343c0.328,3.223-0.66,15.129,3.274,15.954
		c9.117,1.913,2.461-24.419,2.292-28.226c-0.114-2.545,0.38-5.433-0.584-7.779C389.725,313.361,388.272,315.243,386.438,315.191z"/>
	<path style="fill:#2D3738;" d="M401.819,320.427c-4.264,3.411-1.802,16.483-1.317,21.343c0.427,4.293-1.074,11.481,0.99,15.326
		c3.136,5.84,5.946-2.008,6.234-5.277c0.526-5.966-0.676-11.847-1.253-17.647C406.158,331.003,406.069,321.872,401.819,320.427z"/>
	<path style="fill:#2D3738;" d="M126.597,163.017c-6.727,16.756-7.22,37.313-7.199,55.325c0.023,20.435-2.794,40.379-3.612,60.716
		c-0.114,2.823-2.238,19.458,0.701,20.574c1.042,0.396,6.487-1.906,7.328-2.928c2.115-2.568,0.827-8.707,0.819-11.949
		c-0.053-19.71,2.015-39.789,3.2-59.46c0.734-12.2,2.513-24.559,1.963-36.823c-0.239-5.322-0.361-10.732-0.254-16.1
		C129.583,170.422,131.994,161.911,126.597,163.017z"/>
	<path style="fill:#2D3738;" d="M136.415,163.344c5.709,36.015,1.091,73.42-0.33,109.495c-0.151,3.857-2.306,15.61,0.333,18.517
		c2.092-1.87,5.339-2.515,7.702-4.078c2.928-1.937,2.612-3.232,3.097-7.071c0.793-6.265,0.106-12.636,0.053-18.912
		c-0.061-7.315,0.599-14.663,0.599-22.008c0-24.003-1.65-47.807-1.309-71.712c0.056-3.911,0.234-3.696-3.026-4.631
		C141.099,162.245,138.205,161.065,136.415,163.344z"/>
	<path style="fill:#2D3738;" d="M194.012,130.946c-2.046,2.802-2.545,8.155-3.282,11.66c-0.847,4.032-1.646,7.993-2.209,12.084
		c-1.41,10.245-1.835,21.159-2.356,31.508c-0.978,19.408-1.383,38.918-2.371,58.387c-0.2,3.928-4.776,21.49-1.738,23.521
		c1.652,1.105,7.175-1.17,8.683-1.947c1.074-0.553,1.939-0.156,2.635-1.323c1.135-1.906-0.378-6.939-0.367-8.98
		c0.033-6.355,1.454-12.815,1.689-19.206c0.199-5.402,0.299-10.831,0.299-16.27c0-12.147-0.559-24.272,1.309-36.262
		c1.74-11.162-0.127-21.986,0.001-33.206c0.055-4.83,0.857-9.639,1.313-14.412C197.809,134.471,198.128,127.852,194.012,130.946z"/>
	<path style="fill:#2D3738;" d="M215.938,192.798c-1.388-2.816-1.169-6.672-1.546-9.769c-0.62-5.099-0.946-10.253-1.391-15.365
		c-0.613-7.04-1.232-14.278-0.676-21.332c0.249-3.161,4.386-13.632,2.654-16.057c-1.548-2.166-9.036-1.017-11.093-0.255
		c-0.465,4.747,0.604,9.757,0.598,14.58c-0.007,5.671-0.322,11.282-0.327,16.973c-0.011,12.932,1.344,25.77,0.647,38.662
		c-0.783,14.478-0.941,28.94-2.211,43.375c-0.288,3.273-2.971,12.426-1.315,15.293c1.64,2.84,8.275-0.57,10.349-2.202
		c5.254-4.134,3.164-16.71,3.402-22.08C215.63,221.082,215.284,207.644,215.938,192.798z"/>
	<path style="fill:#2D3738;" d="M308.552,131.6c0.375,5.5-0.89,11.816-1.328,17.341c-0.399,5.049-0.761,10.17-0.967,15.209
		c-0.428,10.441-0.506,20.949-0.986,31.338c-0.88,19.055,0.8,38.522,2.616,57.368c0.273,2.832,0.107,5.12,2.125,6.865
		c2.2,1.904,7.129,3.975,9.943,4.381c0.61-12.653-0.381-25.61-1.507-38.205c-0.872-9.763-0.577-19.627-1.135-29.429
		c-0.476-8.367-1.442-16.679-1.898-25.031c-0.476-8.73,0.837-17.692-0.411-26.339c-0.523-3.627-0.528-7.501-1.219-11.048
		C312.902,129.503,312.03,132.668,308.552,131.6z"/>
	<path style="fill:#2D3738;" d="M325.241,176.107c1.282,3.506,0.465,8.838,0.659,12.627c0.231,4.518,0.783,9.067,0.995,13.535
		c0.365,7.697-0.017,15.514-0.017,23.219c0,8.014,0.622,15.841,1.313,23.774c0.328,3.771,0.411,7.545,0.633,11.33
		c0.115,1.959-0.122,6.567,1.178,8.102c1.235,1.458,6.563,2.767,8.318,3.305c4.966,1.519,5.429-0.123,5.173-5.223
		c-0.931-18.547-2.495-37.213-3.845-55.729c-1.25-17.134-3.296-34.445-6.146-51.386c-1.122-6.666-2.475-13.343-3.77-19.969
		c-0.433-2.212-0.32-8.977-1.875-10.558c-1.025-1.043-6.066,0.055-7.46,1.221c-2.603,2.174-0.653,5.406-0.057,8.302
		C323.227,152.717,325.241,166.495,325.241,176.107z"/>
	<path style="fill:#2D3738;" d="M376.621,162.69c-1.907,6.349-2.459,15.913-2.782,23.265c-0.574,13.094-1.113,26.536-0.498,39.693
		c0.928,19.876,1.108,39.567,2.966,59.287c0.174,1.853-0.186,7.11,1.2,8.425c1.292,1.227,7.211,1.66,9.226,2.161
		c1.794-7.93,0.508-17.715,0.107-25.908c-0.535-10.911-1.217-21.807-1.782-32.73c-0.487-9.428-1.455-18.767-1.883-28.232
		c-0.415-9.176-0.243-18.475-0.99-27.627c-0.356-4.358-0.796-8.744-0.98-13.116C381.029,163.733,381.16,161.965,376.621,162.69z"/>
	<path style="fill:#2D3738;" d="M394.293,225.85c0,13.475,0.702,26.846,0.981,40.26c0.123,5.867,0.41,11.81,0.986,17.636
		c0.28,2.835,0.367,5.688,0.651,8.51c0.157,1.559-0.203,5.852,0.803,7.077c0.853,1.037,3.713,1.635,5.079,2.349
		c2.265,1.184,4.608,2.536,7.158,2.664c1.314-20.589-2.694-42.017-4.534-62.535c-1.504-16.79-4.242-33.712-6.471-50.432
		c-0.708-5.315-0.89-10.581-1.382-15.873c-0.322-3.469,0.003-8.684-1.564-11.851c-1.227-2.479-3.877-2.681-6.878-1.367
		c-3.202,1.401-1.88,3.9-1.385,7.739c1.036,8.034,2.363,15.986,3.543,23.975C393.077,206.137,392.74,218.566,394.293,225.85z"/>
	<path style="fill:#2D3738;" d="M129.336,505.683c0-11.328-0.512-22.826,0.016-34.108c0.287-6.122,0.865-12.244,0.555-18.366
		c-0.197-3.911-0.22-8.94,2.133-12.269c1.26-1.781,5.077-4.164,7.342-4.256c2.197-0.09,4.257,2.876,4.933,4.74
		c2.108,5.814,2.931,11.832,3.282,18.027c0.543,9.577,0.538,19.257,0.295,28.846c-0.11,4.349-0.219,8.656-0.017,13.002
		c0.102,2.2,0.669,2.662-1.077,3.696c-2.495,1.476-6.582,0.907-9.375,0.884C134.647,505.857,132.133,505.682,129.336,505.683z"/>
	<path style="fill:#2D3738;" d="M156.39,506.456c0.395-10.348-1.157-20.735-0.676-31.112c0.274-5.933,0.853-11.85,1.214-17.778
		c0.279-4.583,0.371-9.333,1.514-13.817c1.649-6.47,9.966-11.309,13.408-3.472c2.656,6.047,2.259,12.878,2.808,19.417
		c0.679,8.101,0.907,16.235,0.521,24.36c-0.2,4.201-0.045,8.443-0.044,12.651c0.001,1.619,0.503,6.085-0.962,7.365
		c-1.213,1.06-5.328,0.996-6.829,1.04C164.37,505.194,161.473,505.395,156.39,506.456z"/>
	<path style="fill:#2D3738;" d="M228.084,506.649c-1.909-11.079-0.17-22.662-0.193-33.818c-0.023-10.605-0.534-23.409,4.102-33.245
		c1.547-3.283,4.215-5.807,7.642-4.337c2.895,1.242,4.507,3.018,5.314,6.121c1.584,6.097,1.106,12.986,1.106,19.239
		c0,8.389,0.474,16.795,0.203,25.19c-0.174,5.426,0.592,12.828-1.401,18.003C242.552,509.793,232.462,505.795,228.084,506.649z"/>
	<path style="fill:#2D3738;" d="M268.859,505.103c-0.923-1.926-0.913-4.782-1.117-6.909c-0.367-3.831-0.746-7.68-0.912-11.524
		c-0.312-7.181-0.275-14.391-0.488-21.573c-0.179-6.047-0.212-12.101-0.189-18.162c0.015-3.732,0.526-8.315,3.768-10.727
		c1.958-1.457,4.002-1.584,5.895-0.234c3.3,2.353,3.47,5.51,4.321,9.269c1.309,5.781,3.169,11.459,4.373,17.288
		c1.416,6.853,1.606,13.796,1.361,20.759c-0.235,6.652-0.09,13.461-0.588,20.096c-0.107,1.416-0.254,2.803-1.555,3.266
		c-1.405,0.498-3.939-0.783-5.246-1.12C275.304,504.711,271.726,504.096,268.859,505.103z"/>
	<path style="fill:#2D3738;" d="M342.678,437.661c-4.814,4.357-5.109,12.649-5.393,18.655c-0.351,7.394,0.949,14.972,0.949,22.409
		c0,6.559,0.127,13.088,0.391,19.624c0.141,3.483-1.024,6.216,2.88,7.098c4.371,0.988,9.809,1.231,14.285,0.98
		c0.528-8.979,1.014-18.199,0.995-27.191c-0.014-6.541-0.129-13.073-0.382-19.621c-0.195-5.05-0.252-10.836-1.64-15.73
		C353.488,439.387,349.249,434.882,342.678,437.661z"/>
	<path style="fill:#2D3738;" d="M369.927,437.854c-3.445,7.047-4.259,15.31-4.251,23.091c0.009,8.316,0.077,16.573-0.197,24.881
		c-0.162,4.884-0.176,9.77-0.188,14.642c-0.002,0.926-0.344,4.936,0.426,5.619c0.434,0.386,3.621,0.305,4.35,0.355
		c3.11,0.208,6.793-0.131,9.911-0.414c1.177-0.107,2.561-0.005,3.591-0.34c-0.341-1.236-0.055-3.027-0.121-4.38
		c-0.127-2.627,0.007-5.297,0.01-7.928c0.006-5.07-0.017-10.145,0.21-15.242c0.304-6.832,0.252-13.721-0.033-20.553
		c-0.195-4.661-0.212-10.72-2.497-14.899c-0.923-1.688-2.249-3.649-3.869-4.749C375.459,436.712,373.455,437.199,369.927,437.854z"
		/>
</g>
<g>
	<path style="fill:#99775F;" d="M153.688,312.595c-11.225,23.973-16.726,49.541-25.875,74.256
		c-1.648,4.451-13.56,27.808-7.291,30.818c4.368,2.098,8.185-7.013,9.608-9.773c3.815-7.405,7.143-15.641,10.13-23.426
		c2.305-6.007,9.88-26.774,17.917-24.758c4.817,1.208,6.965,6.114,8.417,10.35c2.036,5.939,4.375,11.956,6.153,17.971
		c2.56,8.659,3.859,23.162,12.083,28.823c4.542,3.127,7.002-0.369,7.656-4.705c0.877-5.81,0.27-10.576-2.026-15.971
		c-6.704-15.748-13.703-31.376-19.372-47.597c-2.736-7.827-4.946-15.783-7.494-23.675
		C162.288,320.874,159.572,311.652,153.688,312.595z"/>
	<path style="fill:#99775F;" d="M355.955,316.496c-2.876,3.662-4.673,8.868-6.584,13.109c-2.855,6.333-6.164,12.517-8.67,18.985
		c-2.725,7.034-4.124,14.574-6.737,21.683c-2.833,7.709-5.819,15.36-8.635,23.091c-2.014,5.529-5.29,11.374-5.659,17.289
		c-0.353,5.662,2.311,7.97,7.27,4.476c6.676-4.704,7.616-15.496,10.176-22.649c2.613-7.298,4.83-14.764,8.502-21.622
		c3.181-5.941,10.83-19.17,15.733-7.71c4.832,11.296,9.577,22.54,14.536,33.775c2.135,4.837,4.815,9.244,7.119,13.988
		c1.184,2.437,2.482,7.957,6.26,7.334c7.842-1.293-2.536-28.007-3.75-32.793c-4.573-18.027-11.784-34.992-16.954-52.806
		C366.979,327.193,364.798,311.041,355.955,316.496z"/>
	<path style="fill:#99775F;" d="M216.409,237.87c0.373,4.401-3.703,9.285-1.515,13.435c1.444,2.737,4.235,2.456,4.823,5.817
		c0.552,3.153-1.783,7.879-0.306,10.607c1.517,2.803,6.725,0.046,9.235-0.859c2.885-1.042,8.356-3.283,10.395-5.592
		c2.265-2.565,1.895-7.984,2.39-11.404c0.887-6.117,1.942-11.979,2.288-18.136c0.231-4.105,0.996-6.248-3.302-4.422
		c-5.422,2.303-10.747,4.691-15.91,7.611C221.932,236.382,217.744,238.288,216.409,237.87z"/>
	<path style="fill:#99775F;" d="M268.326,227.366c2.795,9.953-1.019,21.731,3.594,31.445c1.665,3.507,5.527,5.376,8.792,7.117
		c3.482,1.857,6.801,1.767,10.068,3.115c1.367-3.825-0.448-11.071,2.753-13.489c1.76-1.331,2.318,0.045,3.285-2.57
		c1.056-2.853,1.62-10.668,0.022-13.556c-1.038-1.875-3.829-2.189-5.835-2.752c-4.005-1.122-7.662-3.045-11.206-5.181
		c-2.254-1.357-4.413-2.935-6.746-4.119C269.027,225.333,268.779,226.496,268.326,227.366z"/>
</g>
<path d="M175.853,286.759c-2.791,1.433-3.003,5.866-2.624,9.105c-0.57,3.602-1.079,7.199-1.588,10.825
	c-0.685,4.865-1.54,10.552-1.003,15.46c0.303,2.772,2.067,7.646,5.656,7.584c3.945-0.068,4.179-5.138,4.399-7.982
	c0.448-5.767,0.648-11.673,0.691-17.471c0.031-4.349,1.585-10.949-0.34-15.221C180.108,286.979,178.148,285.58,175.853,286.759z
	 M177.99,300.921c0.02,6.929-0.398,13.926-0.783,20.83c-0.141,2.521-1.36,7.293-3.003,0.398c-0.375-1.572-0.018-3.362,0.111-4.912
	c0.2-2.391-0.029-4.766,0.083-7.163c0.185-3.991,0.406-8.001,0.635-12.01c0.016-0.034,0.04-0.064,0.05-0.103
	c0.475-1.631,2.044-10.561,3.276-4.916C178.841,295.246,177.984,298.673,177.99,300.921z"/>
<path d="M188.781,281.496c-3.18,1.986-2.639,6.708-2.482,10.026c-0.605,4.468-1.41,8.915-1.627,13.435
	c-0.225,4.669-1.562,11.849,0.472,16.223c1.177,2.533,4.101,3.865,6.746,2.39c3.193-1.781,2.668-6.35,2.892-9.393
	c0.42-5.711,0.686-11.198,0.643-16.936c-0.033-4.333,1.052-9.699-1.16-13.665C193.096,281.488,191.132,280.027,188.781,281.496z
	 M192.264,294.475c-0.002,6.198-0.273,12.261-0.761,18.431c-0.115,1.444,0.418,4.414-1.477,5.042
	c-1.623,0.538-2.469-1.31-2.74-2.544c-0.685-3.121,0.491-6.315,0.449-9.439c-0.072-5.307,1.156-10.807,1.069-16.133
	c0.173-1.532,0.312-3.052,0.645-3.364C192.99,283.14,192.264,292.901,192.264,294.475z"/>
<path d="M202.763,274.477c-2.754,0.826-3.524,3.988-3.226,6.546c-2.091,9.769-3.408,21.611-1.867,31.322
	c0.473,2.975,1.636,6.059,4.988,6.624c4.07,0.687,5.319-4.222,6.024-7.35c2.236-9.926,2.843-22.398-0.397-32.122
	C207.405,276.858,206.064,273.487,202.763,274.477z M206.341,302.559c-0.186,1.829-0.257,12.817-3.915,10.245
	c-2.8-1.969-1.377-6.153-1.445-8.966c-0.071-2.947-0.024-5.826,0.094-8.758c0.12-2.977,0.059-5.96,0.254-8.933
	c0.119-1.816-0.033-6.33,2.062-7.251c1.984-0.873,1.838,2.409,2.278,4.164c0.912,3.647,1.146,7.211,1.06,10.946
	C206.661,296.887,206.632,299.685,206.341,302.559z"/>
<path d="M108.151,318.315c-2.791,1.433-3.003,5.866-2.624,9.105c-0.57,3.602-1.079,7.199-1.588,10.825
	c-0.684,4.865-1.54,10.552-1.003,15.46c0.303,2.772,2.067,7.646,5.657,7.584c3.945-0.068,4.179-5.138,4.399-7.982
	c0.448-5.767,0.648-11.673,0.691-17.471c0.031-4.349,1.585-10.949-0.34-15.221C112.406,318.535,110.446,317.136,108.151,318.315z
	 M110.288,332.477c0.02,6.929-0.398,13.926-0.783,20.83c-0.141,2.521-1.36,7.293-3.003,0.398c-0.375-1.572-0.018-3.362,0.111-4.912
	c0.2-2.391-0.029-4.766,0.084-7.163c0.185-3.991,0.406-8.001,0.635-12.01c0.016-0.034,0.04-0.064,0.05-0.103
	c0.475-1.631,2.044-10.561,3.275-4.916C111.139,326.802,110.282,330.229,110.288,332.477z"/>
<path d="M121.079,313.052c-3.18,1.986-2.639,6.708-2.482,10.026c-0.605,4.468-1.41,8.915-1.627,13.435
	c-0.225,4.669-1.562,11.849,0.472,16.223c1.177,2.533,4.101,3.865,6.746,2.39c3.193-1.781,2.668-6.35,2.892-9.393
	c0.42-5.711,0.686-11.198,0.643-16.936c-0.033-4.333,1.052-9.699-1.16-13.665C125.394,313.044,123.43,311.582,121.079,313.052z
	 M124.562,326.031c-0.002,6.198-0.273,12.261-0.761,18.431c-0.115,1.444,0.418,4.414-1.477,5.042
	c-1.623,0.538-2.469-1.31-2.74-2.544c-0.685-3.121,0.491-6.315,0.449-9.439c-0.072-5.307,1.156-10.807,1.069-16.133
	c0.173-1.532,0.312-3.052,0.645-3.364C125.288,314.696,124.562,324.457,124.562,326.031z"/>
<path d="M331.299,321.752c0.221,2.843,0.456,7.914,4.4,7.982c3.589,0.062,5.354-4.811,5.657-7.584
	c0.536-4.908-0.319-10.596-1.003-15.46c-0.511-3.627-1.019-7.225-1.588-10.825c0.379-3.241,0.166-7.673-2.624-9.105
	c-2.295-1.178-4.255,0.22-5.191,2.301c-1.924,4.272-0.371,10.872-0.34,15.221C330.649,310.078,330.851,315.984,331.299,321.752z
	 M333.632,293.047c1.232-5.646,2.8,3.286,3.275,4.916c0.011,0.039,0.034,0.068,0.05,0.103c0.228,4.008,0.45,8.019,0.635,12.01
	c0.111,2.397-0.117,4.771,0.084,7.163c0.13,1.551,0.487,3.34,0.111,4.912c-1.643,6.895-2.862,2.123-3.003-0.398
	c-0.384-6.904-0.802-13.901-0.783-20.83C334.008,298.673,333.152,295.246,333.632,293.047z"/>
<path d="M317.213,314.176c0.224,3.043-0.302,7.614,2.892,9.393c2.645,1.475,5.569,0.143,6.746-2.39
	c2.033-4.374,0.697-11.554,0.472-16.223c-0.217-4.52-1.022-8.966-1.627-13.435c0.157-3.317,0.698-8.038-2.482-10.026
	c-2.351-1.469-4.316-0.008-5.48,2.078c-2.214,3.966-1.127,9.331-1.16,13.665C316.527,302.976,316.793,308.465,317.213,314.176z
	 M322.543,286.467c0.333,0.312,0.472,1.833,0.645,3.364c-0.087,5.326,1.142,10.827,1.069,16.133
	c-0.042,3.125,1.134,6.318,0.449,9.439c-0.271,1.234-1.118,3.082-2.74,2.544c-1.893-0.629-1.362-3.6-1.477-5.042
	c-0.489-6.17-0.76-12.233-0.761-18.431C319.728,292.901,319.004,283.14,322.543,286.467z"/>
<path d="M309.335,318.97c3.353-0.567,4.517-3.649,4.988-6.624c1.541-9.711,0.224-21.553-1.867-31.322
	c0.297-2.559-0.472-5.72-3.227-6.546c-3.301-0.99-4.643,2.381-5.523,5.021c-3.241,9.723-2.634,22.196-0.397,32.122
	C304.016,314.748,305.265,319.657,309.335,318.97z M306.325,283.058c0.439-1.756,0.293-5.037,2.278-4.164
	c2.095,0.921,1.943,5.436,2.062,7.251c0.195,2.974,0.133,5.957,0.254,8.933c0.118,2.932,0.165,5.811,0.094,8.758
	c-0.068,2.814,1.354,6.999-1.445,8.966c-3.657,2.573-3.729-8.417-3.915-10.245c-0.291-2.873-0.32-5.672-0.387-8.555
	C305.18,290.268,305.414,286.705,306.325,283.058z"/>
<path d="M399.001,353.308c0.221,2.843,0.456,7.914,4.4,7.982c3.589,0.062,5.354-4.811,5.657-7.584
	c0.536-4.908-0.319-10.596-1.003-15.46c-0.511-3.627-1.019-7.225-1.588-10.825c0.379-3.241,0.166-7.673-2.624-9.105
	c-2.295-1.178-4.255,0.22-5.191,2.301c-1.924,4.272-0.371,10.872-0.34,15.221C398.351,341.634,398.553,347.54,399.001,353.308z
	 M401.334,324.603c1.232-5.646,2.8,3.286,3.275,4.916c0.012,0.039,0.034,0.068,0.051,0.103c0.228,4.008,0.45,8.019,0.635,12.01
	c0.111,2.397-0.117,4.771,0.084,7.163c0.13,1.551,0.487,3.34,0.111,4.912c-1.643,6.895-2.862,2.123-3.003-0.398
	c-0.384-6.904-0.802-13.901-0.783-20.83C401.71,330.229,400.854,326.802,401.334,324.603z"/>
<path d="M384.915,345.732c0.224,3.043-0.302,7.614,2.892,9.393c2.645,1.475,5.569,0.143,6.746-2.39
	c2.033-4.374,0.697-11.554,0.472-16.223c-0.217-4.52-1.022-8.966-1.627-13.435c0.157-3.317,0.698-8.038-2.482-10.026
	c-2.351-1.469-4.316-0.008-5.48,2.078c-2.214,3.966-1.127,9.331-1.16,13.665C384.229,334.532,384.495,340.021,384.915,345.732z
	 M390.245,318.023c0.333,0.312,0.472,1.833,0.645,3.364c-0.087,5.326,1.142,10.827,1.069,16.133
	c-0.042,3.125,1.134,6.318,0.449,9.439c-0.271,1.234-1.118,3.082-2.74,2.544c-1.893-0.629-1.362-3.6-1.477-5.042
	c-0.489-6.17-0.76-12.233-0.761-18.431C387.43,324.457,386.705,314.696,390.245,318.023z"/>
<path d="M416.272,406.264c-0.31-5.175-0.244-10.395-0.339-15.577c-0.09-4.906,0.487-10.209-0.726-14.991
	c1.313-0.522,2.253-1.516,2.624-3.151c1.086-1.467,1.324-2.821,0.97-5.094c-0.631-4.046-1.134-8.065-1.137-12.217
	c-0.008-7.655-0.223-15.473-1.276-23.005c-0.515-3.68-0.275-7.399-0.756-11.097c-0.433-3.333-0.258-4.082,0.896-6.745
	c1.895-4.371-0.072-7.031-3.336-8.592c0.345-0.334,0.632-0.756,0.784-1.317c1.037-3.836,0.189-7.914-0.026-11.836
	c-0.227-4.136-0.155-8.297-0.469-12.426c-0.63-8.256-1.619-16.485-2.39-24.73c-1.344-14.365-1.93-29.178-4.474-43.369
	c-2.555-14.256-3.115-29.831-7.984-43.508c-0.941-2.642-1.6-4.8-0.999-7.368c0.368-0.467,0.682-1.006,0.908-1.658
	c0.202-0.582,0.339-1.312,0.397-2.075c0.267-0.802,0.448-1.625,0.43-2.694c-0.053-3.189-1.042-6.543-1.994-9.555
	c-1.243-3.928-1.418-7.509-1.952-11.558c-1.029-7.814-3.557-14.524-6.558-21.738c-0.856-2.057-1.588-4.302-2.36-6.543
	c-0.208-1.425-0.741-2.583-1.27-3.989c-0.421-1.121-0.711-2.222-1.17-3.196c0.831-3.743,1.685-10.866-0.309-15.112
	c0.137-0.072,0.27-0.174,0.397-0.316c2.843-3.146,5.02-6.82,7.662-10.091c2.56-3.169,4.986-6.542,3.017-10.642
	c-2.153-4.482-5.86-8.411-8.218-12.842c-0.429-0.806-0.803-1.867-1.297-2.824c0.001-0.005,0.005-0.008,0.007-0.014
	c0.923-3.216,1.209-6.886,0.442-10.086c-0.439-1.83-0.294-5.404-3.431-4.65c-2.041,0.49-2.691,3.269-2.818,5.041
	c-0.202,2.823-0.032,5.568-0.015,8.361c-0.068,0.146-0.129,0.293-0.16,0.452c-0.305,0.291-0.593,0.59-0.867,0.859
	c-2.06,2.023-4.224,3.701-6.411,5.549c-2.547,2.152-7.297,5.906-7.949,9.419c-0.658,3.543,3.017,8.518,4.643,11.457
	c1.336,2.414,2.757,4.95,4.175,7.296c0.369,0.61,0.715,1.177,1.199,1.641c-0.779,0.802-1.361,1.772-1.582,2.811
	c-0.344,1.619-0.047,3.446-0.068,5.098c-0.031,2.562-0.356,5.041-0.515,7.573c-0.132,0.347-0.147,0.675-0.075,0.977
	c-1.543,1.644-2.721,3.671-3.333,5.523c-2.183,6.598-2.666,13.567-3.42,20.44c-0.483,4.401-0.559,8.755-0.585,13.177
	c-0.01,1.811,0.194,3.797-0.108,5.588c-0.391,2.313-1.634,3.507-2.785,5.414c-2.718,4.504-1.489,9.194,0.29,13.874
	c3.051,8.022,1.297,18.613,0.654,27.104c-1.331,17.609-2.079,34.966-2.064,52.632c0.007,7.378,0.387,14.705,0.413,22.075
	c0.023,6.17-0.238,13.672,1.935,19.608c-2.429-0.271-4.738,0.64-5.383,3.562c-0.823,3.724,0.367,9.147,0.379,12.968
	c0.01,3.436-0.027,6.88,0.04,10.318c-2.029-0.893-4.175-0.53-5.935,2.468c-0.744,1.266-1.418,2.627-2.074,4.012
	c-0.063-0.345-0.126-0.692-0.189-1.041c0.045-0.053,0.081-0.115,0.127-0.165c-0.148-5.063-0.474-10.129-1.166-15.072
	c-0.515-3.68-0.275-7.398-0.756-11.097c-0.433-3.333-0.258-4.082,0.896-6.745c1.895-4.371-0.072-7.031-3.336-8.592
	c0.345-0.334,0.632-0.756,0.784-1.317c1.037-3.836,0.189-7.914-0.026-11.836c-0.227-4.136-0.155-8.298-0.469-12.426
	c-0.63-8.256-1.619-16.485-2.39-24.73c-1.344-14.365-1.93-29.178-4.474-43.369c-2.555-14.256-3.115-29.831-7.984-43.508
	c-0.941-2.642-1.6-4.8-0.999-7.368c0.368-0.467,0.682-1.006,0.908-1.658c0.202-0.582,0.339-1.312,0.397-2.075
	c0.267-0.802,0.448-1.625,0.43-2.694c-0.053-3.189-1.042-6.543-1.994-9.555c-1.243-3.928-1.418-7.509-1.952-11.558
	c-1.029-7.814-3.557-14.524-6.558-21.738c-0.856-2.057-1.588-4.302-2.36-6.543c-0.208-1.425-0.741-2.583-1.27-3.989
	c-0.421-1.121-0.711-2.222-1.17-3.196c0.831-3.743,1.685-10.866-0.309-15.112c0.137-0.072,0.27-0.176,0.397-0.316
	c2.844-3.146,5.02-6.82,7.662-10.091c2.56-3.169,4.986-6.542,3.017-10.642c-2.153-4.482-5.86-8.411-8.218-12.842
	c-0.429-0.806-0.803-1.867-1.297-2.824c0.001-0.005,0.005-0.008,0.007-0.014c0.923-3.216,1.209-6.887,0.442-10.086
	c-0.439-1.83-0.294-5.404-3.431-4.65c-2.041,0.49-2.691,3.269-2.818,5.041c-0.202,2.823-0.032,5.568-0.015,8.361
	c-0.068,0.146-0.129,0.293-0.16,0.452c-0.305,0.291-0.593,0.59-0.868,0.859c-2.06,2.023-4.224,3.701-6.411,5.549
	c-2.547,2.152-7.297,5.906-7.949,9.419c-0.658,3.543,3.017,8.518,4.643,11.457c1.336,2.414,2.757,4.95,4.175,7.296
	c0.369,0.61,0.715,1.177,1.199,1.641c-0.779,0.801-1.361,1.772-1.582,2.811c-0.344,1.619-0.047,3.446-0.068,5.098
	c-0.031,2.562-0.356,5.041-0.515,7.573c-0.132,0.347-0.147,0.675-0.075,0.977c-1.543,1.644-2.721,3.671-3.333,5.523
	c-2.183,6.598-2.666,13.567-3.42,20.439c-0.483,4.401-0.559,8.755-0.585,13.177c-0.01,1.811,0.194,3.797-0.108,5.588
	c-0.391,2.313-1.634,3.507-2.785,5.414c-2.718,4.504-1.489,9.194,0.29,13.874c3.051,8.022,1.297,18.613,0.654,27.104
	c-1.331,17.609-2.079,34.966-2.064,52.632c0.007,7.378,0.388,14.705,0.413,22.075c0.005,1.259,0,2.582,0.005,3.927
	c-2.796-2.059-6.198-3.329-9.21-5.098c-4.729-2.777-9.285-5.968-14.773-6.806c-0.021-0.117-0.034-0.235-0.056-0.352
	c-1.826-9.918-3.071-20.698-6.082-30.521c-0.491-2.588-1.09-5.163-1.72-7.771c-0.243-1.01-0.682-1.927-1.259-2.687
	c2.251-2.134,4.278-6.403,4.478-7.811c0.823-5.796-0.528-12.586-6.732-14.612c-5.184-1.693-11.576,3.286-12.347,8.358
	c-0.508,3.341,1.129,7.166,2.801,9.973c0.737,1.237,1.566,2.425,2.715,3.311c0.173,0.134,0.597,0.332,1.066,0.531
	c-2.647,2.764-3.476,8.207-4.18,11.479c-0.521,2.426-2.056,5.97-1.466,8.651c-1.469,7.046-2.449,14.276-3.704,21.097
	c-0.022,0.117-0.036,0.235-0.056,0.352c-5.487,0.838-10.044,4.029-14.773,6.806c-3.012,1.769-6.414,3.04-9.21,5.098
	c0.005-1.345,0-2.668,0.005-3.927c0.026-7.37,0.406-14.696,0.413-22.075c0.016-17.666-0.732-35.023-2.064-52.632
	c-0.643-8.49-2.397-19.082,0.654-27.104c1.78-4.681,3.01-9.37,0.291-13.874c-1.151-1.906-2.394-3.099-2.785-5.414
	c-0.303-1.791-0.098-3.778-0.108-5.588c-0.026-4.421-0.103-8.776-0.585-13.177c-0.754-6.872-1.237-13.842-3.42-20.439
	c-0.613-1.852-1.789-3.879-3.333-5.523c0.072-0.301,0.059-0.63-0.075-0.977c-0.16-2.533-0.484-5.012-0.515-7.573
	c-0.02-1.652,0.277-3.479-0.068-5.098c-0.221-1.04-0.803-2.009-1.582-2.811c0.484-0.464,0.831-1.03,1.199-1.641
	c1.418-2.345,2.839-4.881,4.176-7.296c1.626-2.939,5.3-7.913,4.643-11.457c-0.652-3.512-5.401-7.267-7.949-9.419
	c-2.187-1.849-4.351-3.525-6.411-5.549c-0.275-0.27-0.562-0.568-0.867-0.859c-0.032-0.16-0.092-0.306-0.16-0.452
	c0.016-2.793,0.187-5.538-0.015-8.361c-0.127-1.772-0.778-4.551-2.818-5.041c-3.137-0.754-2.992,2.819-3.431,4.65
	c-0.768,3.199-0.481,6.869,0.442,10.086c0.001,0.005,0.005,0.008,0.007,0.014c-0.493,0.956-0.867,2.017-1.297,2.824
	c-2.358,4.43-6.066,8.359-8.218,12.842c-1.969,4.1,0.458,7.472,3.017,10.642c2.642,3.271,4.818,6.945,7.662,10.091
	c0.127,0.141,0.26,0.244,0.397,0.316c-1.994,4.247-1.139,11.369-0.309,15.112c-0.458,0.975-0.749,2.075-1.17,3.196
	c-0.528,1.407-1.063,2.565-1.27,3.989c-0.772,2.242-1.506,4.486-2.36,6.543c-3.001,7.214-5.529,13.924-6.558,21.738
	c-0.534,4.048-0.708,7.63-1.952,11.558c-0.954,3.012-1.942,6.366-1.994,9.555c-0.017,1.069,0.163,1.892,0.429,2.694
	c0.057,0.763,0.195,1.493,0.397,2.075c0.226,0.652,0.538,1.191,0.908,1.658c0.6,2.568-0.059,4.727-0.999,7.368
	c-4.869,13.677-5.429,29.252-7.984,43.508c-2.544,14.191-3.13,29.004-4.474,43.369c-0.771,8.245-1.76,16.472-2.39,24.73
	c-0.314,4.129-0.242,8.291-0.469,12.426c-0.216,3.921-1.065,8-0.026,11.836c0.151,0.561,0.438,0.983,0.784,1.317
	c-3.265,1.562-5.23,4.222-3.336,8.592c1.154,2.663,1.329,3.411,0.896,6.745c-0.481,3.698-0.241,7.417-0.756,11.097
	c-0.692,4.943-1.019,10.01-1.166,15.072c0.046,0.05,0.083,0.112,0.127,0.165c-0.063,0.35-0.126,0.697-0.189,1.041
	c-0.655-1.384-1.331-2.745-2.074-4.012c-1.76-2.997-3.906-3.361-5.935-2.468c0.067-3.439,0.029-6.883,0.04-10.318
	c0.011-3.822,1.201-9.244,0.379-12.968c-0.646-2.922-2.955-3.833-5.383-3.562c2.172-5.936,1.913-13.438,1.935-19.608
	c0.026-7.37,0.406-14.696,0.413-22.075c0.016-17.666-0.732-35.023-2.064-52.632c-0.643-8.49-2.397-19.082,0.654-27.104
	c1.78-4.681,3.01-9.372,0.291-13.874c-1.151-1.906-2.394-3.099-2.785-5.414c-0.303-1.791-0.098-3.778-0.108-5.588
	c-0.026-4.421-0.103-8.776-0.585-13.177c-0.754-6.872-1.237-13.842-3.42-20.44c-0.613-1.852-1.789-3.879-3.333-5.523
	c0.072-0.301,0.059-0.63-0.075-0.977c-0.16-2.533-0.484-5.012-0.515-7.573c-0.02-1.652,0.277-3.479-0.068-5.098
	c-0.221-1.04-0.803-2.009-1.582-2.811c0.484-0.464,0.831-1.03,1.199-1.641c1.418-2.345,2.839-4.881,4.175-7.296
	c1.626-2.939,5.3-7.913,4.643-11.457c-0.652-3.512-5.401-7.267-7.949-9.419c-2.187-1.849-4.35-3.525-6.411-5.549
	c-0.274-0.27-0.563-0.568-0.867-0.859c-0.032-0.16-0.092-0.306-0.16-0.452c0.016-2.793,0.187-5.538-0.015-8.361
	c-0.127-1.772-0.777-4.551-2.818-5.041c-3.137-0.754-2.992,2.819-3.431,4.65c-0.768,3.199-0.481,6.869,0.442,10.086
	c0.001,0.005,0.005,0.008,0.007,0.014c-0.493,0.956-0.868,2.017-1.297,2.824c-2.358,4.43-6.066,8.359-8.218,12.842
	c-1.969,4.1,0.458,7.472,3.017,10.642c2.642,3.271,4.817,6.945,7.662,10.091c0.127,0.141,0.26,0.244,0.397,0.316
	c-1.994,4.247-1.139,11.369-0.309,15.112c-0.458,0.975-0.749,2.075-1.17,3.196c-0.528,1.407-1.063,2.565-1.27,3.989
	c-0.772,2.242-1.506,4.486-2.36,6.543c-3.001,7.214-5.529,13.924-6.558,21.738c-0.534,4.048-0.708,7.63-1.952,11.558
	c-0.954,3.012-1.942,6.366-1.994,9.555c-0.017,1.069,0.163,1.892,0.429,2.694c0.057,0.763,0.195,1.493,0.397,2.075
	c0.226,0.652,0.538,1.191,0.908,1.658c0.6,2.568-0.059,4.727-0.999,7.368c-4.869,13.677-5.429,29.252-7.984,43.508
	c-2.544,14.191-3.13,29.004-4.474,43.369c-0.771,8.245-1.76,16.472-2.39,24.73c-0.314,4.129-0.242,8.291-0.469,12.426
	c-0.216,3.921-1.065,8-0.026,11.836c0.151,0.561,0.438,0.983,0.784,1.317c-3.265,1.562-5.23,4.222-3.336,8.592
	c1.154,2.663,1.329,3.411,0.896,6.745c-0.48,3.698-0.241,7.417-0.756,11.097c-1.053,7.532-1.269,15.35-1.276,23.005
	c-0.003,4.153-0.506,8.171-1.137,12.217c-0.355,2.272-0.116,3.627,0.97,5.094c0.372,1.636,1.31,2.629,2.624,3.151
	c-1.214,4.782-0.637,10.084-0.726,14.991c-0.094,5.183-0.029,10.402-0.339,15.577c-0.656,10.961-1.332,21.753-1.582,32.745
	c-0.254,11.152-0.231,22.3-0.36,33.454c-0.095,8.14,1.122,16.206,1.243,24.347c0.045,3.024,0.031,6.777,2.445,9.022
	c2.492,2.317,6.136,2.24,9.277,2.582c8.729,0.952,17.43,0.724,26.164,1.405c9.459,0.737,18.675,0.458,28.123-0.071
	c4.472-0.25,8.949-0.194,13.436-0.207c3.82-0.01,7.637,0.678,11.481,0.755c1.851,0.423,3.86,0.524,5.347,0.701
	c6.919,0.822,13.67,0.889,20.605,0.988c6.474,0.093,13.041-0.33,19.492-0.902c1.722-0.153,3.437-0.361,5.151-0.573
	c2.771,0.131,5.532,0.129,8.293,0.052c1.118,0.022,2.227-0.005,3.329-0.11c0.417-0.016,0.834-0.029,1.251-0.046
	c4.075-0.164,8.255-0.151,12.445-0.232c3.522,0.671,7.116,0.368,10.827,0.005c2.637,0.297,5.265,0.669,7.91,0.904
	c6.451,0.571,13.018,0.994,19.492,0.902c6.937-0.099,13.687-0.168,20.605-0.988c1.487-0.177,3.496-0.278,5.347-0.701
	c3.845-0.077,7.662-0.765,11.481-0.755c4.487,0.013,8.964-0.044,13.437,0.207c9.447,0.529,18.663,0.808,28.123,0.071
	c8.734-0.68,17.435-0.453,26.164-1.405c3.141-0.342,6.785-0.265,9.277-2.582c2.414-2.244,2.399-5.999,2.445-9.022
	c0.122-8.141,1.338-16.207,1.243-24.347c-0.13-11.154-0.107-22.301-0.36-33.454C417.604,428.018,416.928,417.225,416.272,406.264z
	 M397.305,194.742c1.999,18.702,3.914,37.404,5.972,56.094c0.983,8.931,2.033,17.911,2.703,26.869
	c0.588,7.869-0.303,16.463,1.547,24.257c-1.645-0.591-4.451-1.938-5.008-2.152c-0.815-0.312-1.636-0.615-2.453-0.924
	c-1.565-22.618-3.541-45.491-3.66-68.144c-0.064-12.025-1.464-24.24-2.538-36.219c-0.448-4.998-1.08-9.781-2.179-14.689
	c-1.138-5.075-2.463-10.245-3.501-15.342c0.178-0.029,0.356-0.049,0.534-0.08c1.689-0.296,3.581-0.467,5.276-0.956
	c0.112,1.135,0.371,2.269,0.663,3.437C396.934,175.981,396.31,185.429,397.305,194.742z M387.898,260.868
	c-0.092-9.906-0.74-19.903-1.846-29.745c-1.306-11.614-1.06-23.853-1.13-35.54c-0.062-10.29-1.273-20.449-2.334-30.618
	c1.211-0.029,2.419-0.087,3.628-0.213c0.252,5.027,1.308,10.268,2.277,15.163c1.082,5.467,1.17,10.991,1.586,16.532
	c0.9,11.975,2.232,24.071,2.195,36.073c-0.037,11.996,0.539,24.494,1.688,36.47c0.889,9.256,0.554,18.841,1.401,28.127
	c-1.954-0.729-3.911-1.458-5.861-2.199c0.025-0.132,0.045-0.266,0.047-0.413C389.707,283.2,388.002,272.144,387.898,260.868z
	 M377.006,164.874c1.246,0.063,2.485,0.099,3.724,0.108c-0.839,10.449,0.764,21.221,0.677,31.695
	c-0.093,11.115-0.364,22.725,0.714,33.794c1.017,10.447,1.667,20.875,1.737,31.378c0.07,10.503,1.466,20.863,1.366,31.375
	c-1.787-0.732-3.569-1.483-5.338-2.259c-0.536-9.186-2.072-18.381-2.519-27.574c-0.55-11.317-1.185-22.603-1.32-33.962
	c-0.139-11.748,0.387-23.587,0.596-35.36C376.812,184.513,378.232,174.421,377.006,164.874z M370.247,65.474
	c-1.589-3.266-1.465-3.794,0.853-6.371c0.78-0.868,2.127-2.601,2.854-3.313c1.307-1.282,3.02-2.217,4.373-3.49
	c0.302-0.283,2.628-3.239,3.135-4.028c0.129,0.007,0.258,0.005,0.388-0.01c0.368,0.551,0.703,1.121,0.988,1.722
	c0.783,1.271,1.586,2.604,2.45,3.834c2.44,3.471,7.004,8.004,5.394,12.757c-0.818,2.414-3.459,4.294-4.872,6.439
	c-1.573,2.387-3.234,4.959-3.821,7.793c-0.869-0.686-1.961-1.099-3.337-1.12c-0.301-0.005-0.605,0.029-0.908,0.079
	C377.395,75.123,372.142,69.368,370.247,65.474z M380.743,95.289c-1.572-0.561-3.106-0.5-4.536-0.02
	c0.112-2.303,0.173-4.597,0.053-6.921c-0.083-1.592-0.592-6.456,2.817-5.277c2.098,0.725,1.873,7.291,1.734,9.028
	C380.709,93.364,380.658,94.337,380.743,95.289z M370.418,147.418c1.263-3.456,0.802-7.423,0.781-11.03
	c-0.052-8.629-0.291-17.765,1.376-26.258c0.707-3.599,2.186-11.709,7.155-8.576c1.099,0.693,1.882,1.853,2.547,3.158
	c0.396,1.66,0.771,3.314,1.245,4.834c1.255,4.029,2.776,8.092,3.812,12.188c2.239,8.846-0.507,19.27,3.846,27.375
	c-2.987-0.738-6.375-0.748-9.151-0.812c-4.109-0.094-8.078,0.209-12.155,0.248C370.082,148.186,370.272,147.816,370.418,147.418z
	 M366.267,153.619c0.091-0.192,0.2-0.374,0.308-0.557c3.336,0.656,7.958-0.545,10.846-0.687c4.199-0.207,11.872-0.868,16.584,0.974
	c1.3,1.955,1.497,2.785,1.263,3.672c-0.919,1.419-2.273,2.413-4.282,2.653c-2.689,0.32-5.295,0.972-7.993,0.882
	c-3.26-0.108-6.715-0.243-9.942-0.721c-2.366-0.351-4.848-1.15-7.244-1.052C365.446,157.098,365.431,155.388,366.267,153.619z
	 M368.33,272.461c-0.119-4.005-0.382-7.937-0.364-11.957c0.038-8.351-0.4-16.733-0.392-25.108
	c0.017-18.918,2.054-37.855,1.321-56.745c-0.165-4.248,0.023-8.851-0.941-13.029c-0.135-0.588-0.313-1.172-0.507-1.756
	c2.345,0.736,5.189,0.775,7.355,0.888c-1.582,9.917-1.896,20.336-1.913,30.305c-0.02,11.492-0.866,22.909-0.942,34.366
	c-0.132,19.867,0.911,39.697,3.161,59.404c-1.704-0.737-3.892-1.277-5.319-2.334c-1.042-0.771-1.715-1.813-2.207-2.967
	C368.857,280.02,368.441,276.226,368.33,272.461z M364.862,288.006c1.338,2.093,3.436,3.837,6.285,5.277
	c6.169,3.119,12.665,5.571,19.14,7.949c4.097,1.504,7.992,3.519,12.147,4.872c1.992,0.648,3.947,0.806,5.952,1.207
	c1.83,0.366,3.224,1.814,4.5,3.188c0.283,0.305,0.576,0.738,0.376,1.104c-0.122,0.224-0.386,0.325-0.633,0.384
	c-1.816,0.438-3.683-0.476-5.407-0.926c-1.975-0.515-3.975-0.925-5.975-1.328c-5.14-1.035-10.107-2.724-14.844-5.002
	c-5.242-2.52-10.26-5.044-15.309-7.923c-2.041-1.164-5.143-3.74-7.713-4.256c-0.013-0.396-0.021-0.791-0.047-1.185
	C363.096,287.904,362.46,288.759,364.862,288.006z M377.268,344.359c-3.658,2.573-3.729-8.417-3.915-10.245
	c-0.291-2.873-0.32-5.672-0.387-8.555c-0.086-3.735,0.148-7.299,1.06-10.946c0.439-1.756,0.293-5.038,2.278-4.164
	c2.095,0.921,1.943,5.436,2.062,7.251c0.195,2.974,0.133,5.957,0.254,8.933c0.118,2.932,0.165,5.811,0.094,8.758
	C378.647,338.207,380.068,342.39,377.268,344.359z M377.037,350.526c3.353-0.567,4.517-3.649,4.988-6.624
	c1.541-9.711,0.224-21.553-1.867-31.322c0.297-2.559-0.472-5.72-3.227-6.546c-3.301-0.99-4.643,2.381-5.523,5.021
	c-1.866,5.599-2.448,12.107-2.185,18.517c-0.504-1.324-1.02-2.647-1.573-3.975c-1.309-3.146-2.863-6.342-4.309-9.459
	c-0.157-5.689-0.018-11.396-0.001-17.092c0.002-0.91,0.024-1.822,0.044-2.734c3.806,1.785,7.508,4.451,11.241,6.344
	c4.849,2.46,9.921,4.484,14.789,6.947c4.481,2.266,8.197,3.973,13.058,5.159c2.892,0.706,5.565,1.827,8.293,1.851
	c-0.082,0.472-0.129,1.007-0.116,1.696c0.1,5.499,0.616,11.245,1.079,16.733c0.559,6.626,0.49,13.522,0.469,20.191
	c-0.009,3.06,0.042,6.23,0.327,9.268c0.266,2.845,1.292,4.398,0.445,6.991c-3.481,0.616-8.859-2.962-11.875-4.23
	c-5.698-2.394-11.235-5.204-16.821-7.844c-1.96-0.927-3.96-1.835-5.955-2.757c-0.703-2.021-1.397-4.046-2.079-6.076
	C376.494,350.589,376.758,350.573,377.037,350.526z M329.603,163.186c1.999,18.702,3.914,37.404,5.972,56.094
	c0.983,8.931,2.033,17.911,2.703,26.868c0.588,7.869-0.303,16.463,1.547,24.257c-1.646-0.591-4.451-1.938-5.008-2.152
	c-0.815-0.312-1.636-0.615-2.453-0.924c-1.565-22.618-3.541-45.491-3.66-68.144c-0.064-12.025-1.464-24.24-2.538-36.219
	c-0.448-4.998-1.08-9.781-2.179-14.689c-1.138-5.075-2.462-10.245-3.501-15.342c0.178-0.029,0.356-0.049,0.534-0.08
	c1.689-0.296,3.581-0.467,5.276-0.956c0.112,1.136,0.371,2.269,0.663,3.437C329.232,144.425,328.608,153.873,329.603,163.186z
	 M320.196,229.312c-0.092-9.906-0.74-19.903-1.846-29.745c-1.306-11.614-1.06-23.853-1.13-35.54
	c-0.062-10.29-1.273-20.449-2.334-30.618c1.211-0.029,2.419-0.087,3.628-0.215c0.252,5.027,1.308,10.268,2.277,15.163
	c1.082,5.467,1.17,10.991,1.586,16.532c0.9,11.975,2.232,24.071,2.195,36.073c-0.037,11.996,0.539,24.494,1.688,36.47
	c0.889,9.256,0.554,18.841,1.401,28.127c-1.954-0.729-3.911-1.458-5.861-2.199c0.025-0.132,0.045-0.266,0.047-0.413
	C322.005,251.644,320.3,240.588,320.196,229.312z M309.304,133.318c1.246,0.063,2.485,0.099,3.724,0.109
	c-0.839,10.449,0.764,21.221,0.677,31.695c-0.093,11.115-0.364,22.725,0.714,33.794c1.017,10.447,1.667,20.875,1.737,31.378
	c0.07,10.503,1.467,20.863,1.366,31.375c-1.787-0.732-3.569-1.483-5.338-2.259c-0.536-9.186-2.072-18.381-2.519-27.574
	c-0.55-11.317-1.185-22.603-1.32-33.962c-0.139-11.748,0.387-23.587,0.596-35.36C309.11,152.957,310.53,142.865,309.304,133.318z
	 M302.545,33.918c-1.589-3.266-1.465-3.794,0.853-6.371c0.78-0.868,2.127-2.601,2.854-3.313c1.307-1.282,3.02-2.217,4.373-3.49
	c0.302-0.283,2.628-3.239,3.135-4.028c0.129,0.007,0.258,0.005,0.388-0.01c0.368,0.551,0.703,1.121,0.988,1.722
	c0.783,1.271,1.586,2.604,2.45,3.834c2.44,3.471,7.004,8.004,5.394,12.757c-0.818,2.414-3.459,4.294-4.872,6.439
	c-1.573,2.387-3.234,4.959-3.821,7.793c-0.869-0.686-1.961-1.099-3.337-1.12c-0.301-0.005-0.605,0.029-0.908,0.079
	C309.693,43.567,304.44,37.812,302.545,33.918z M313.041,63.733c-1.572-0.561-3.106-0.5-4.536-0.02
	c0.112-2.303,0.173-4.597,0.053-6.921c-0.083-1.592-0.592-6.456,2.817-5.277c2.098,0.725,1.873,7.291,1.734,9.028
	C313.007,61.808,312.956,62.781,313.041,63.733z M302.716,115.862c1.263-3.456,0.802-7.423,0.781-11.03
	c-0.052-8.629-0.291-17.765,1.376-26.258c0.707-3.599,2.186-11.709,7.155-8.576c1.099,0.693,1.882,1.853,2.547,3.158
	c0.396,1.66,0.771,3.314,1.245,4.834c1.255,4.029,2.776,8.092,3.812,12.188c2.239,8.846-0.507,19.27,3.846,27.375
	c-2.987-0.738-6.375-0.748-9.151-0.812c-4.109-0.094-8.078,0.209-12.155,0.248C302.38,116.63,302.57,116.26,302.716,115.862z
	 M298.566,122.063c0.091-0.192,0.2-0.374,0.308-0.557c3.336,0.656,7.958-0.545,10.846-0.687c4.199-0.207,11.872-0.868,16.584,0.974
	c1.3,1.955,1.497,2.785,1.263,3.672c-0.919,1.419-2.273,2.413-4.282,2.653c-2.689,0.32-5.295,0.972-7.993,0.882
	c-3.26-0.107-6.715-0.242-9.942-0.721c-2.366-0.351-4.848-1.15-7.244-1.052C297.744,125.542,297.729,123.832,298.566,122.063z
	 M300.628,240.905c-0.119-4.005-0.382-7.937-0.364-11.957c0.038-8.351-0.4-16.733-0.392-25.108
	c0.017-18.918,2.054-37.855,1.321-56.745c-0.165-4.248,0.023-8.851-0.941-13.029c-0.135-0.588-0.313-1.172-0.507-1.756
	c2.345,0.736,5.189,0.775,7.355,0.888c-1.582,9.917-1.896,20.336-1.913,30.305c-0.02,11.492-0.866,22.909-0.942,34.366
	c-0.132,19.867,0.911,39.697,3.161,59.404c-1.704-0.737-3.892-1.277-5.319-2.334c-1.042-0.771-1.715-1.813-2.207-2.967
	C301.155,248.464,300.739,244.67,300.628,240.905z M297.16,256.45c1.338,2.093,3.436,3.837,6.285,5.277
	c6.169,3.119,12.665,5.571,19.14,7.949c4.097,1.504,7.992,3.519,12.147,4.872c1.992,0.648,3.947,0.806,5.952,1.207
	c1.83,0.366,3.224,1.814,4.5,3.188c0.283,0.305,0.576,0.738,0.376,1.104c-0.122,0.224-0.386,0.325-0.633,0.384
	c-1.816,0.438-3.683-0.476-5.407-0.926c-1.975-0.515-3.975-0.925-5.975-1.328c-5.14-1.035-10.107-2.724-14.844-5.002
	c-5.242-2.52-10.26-5.044-15.309-7.922c-2.041-1.164-5.143-3.74-7.713-4.256c-0.013-0.396-0.021-0.791-0.047-1.185
	C295.394,256.348,294.758,257.203,297.16,256.45z M297.16,300.748c-0.993-5.047-1.324-10.037-1.5-15.157
	c-0.207-6.023-0.04-12.067-0.021-18.099c0.002-0.91,0.024-1.822,0.044-2.734c3.806,1.785,7.508,4.451,11.241,6.344
	c4.849,2.46,9.921,4.484,14.789,6.947c4.481,2.266,8.197,3.973,13.058,5.159c2.892,0.706,5.565,1.827,8.293,1.851
	c-0.081,0.472-0.129,1.008-0.116,1.696c0.1,5.499,0.616,11.245,1.079,16.733c0.559,6.626,0.49,13.522,0.469,20.191
	c-0.006,1.719,0.032,3.464,0.099,5.207c-0.037,0.106-0.077,0.212-0.114,0.319c-1.158,3.375-2.48,6.667-3.798,9.957
	c-2.662-1.012-5.426-2.67-7.29-3.454c-5.698-2.394-11.235-5.204-16.821-7.844c-4.218-1.994-8.656-3.835-12.731-6.13
	c-1.626-0.916-4.046-1.978-5.3-3.28c-2.026-2.103-0.841-3.109-0.254-5.283C299.438,308.918,297.983,304.933,297.16,300.748z
	 M274.263,264.561c2.158,1.278,4.577,2.251,6.019,2.925c2.795,1.307,5.692,2.495,8.535,3.698c0.477,0.202,0.923,0.404,1.36,0.568
	c-0.008,3.377-0.021,6.76,0.12,10.13c0.286,6.792,1.624,13.293,3.118,19.896c0.411,1.819,1.463,4.614,1.347,6.397
	c-0.151,2.339-1.074,2.926-1.874,4.265c-2.747-1.704-6.797-2.738-8.838-3.685c-5.3-2.459-11.614-6.031-17.536-6.086
	c-0.117-0.001-0.226,0.021-0.335,0.045c-0.332-1.248-0.62-2.561-0.523-3.214c0.322-2.204,2.846-2.41,4.519-3.461
	c3.752-2.356,5.802-6.675,6.059-10.998C276.638,278.264,275.523,271.365,274.263,264.561z M280.188,313.026
	c3.47,1.554,7.281,3.502,11.14,4.25c0.016,0.434,0.079,0.888,0.217,1.385c0.398,1.438,1.34,2.687,2.559,3.783
	c-0.528,1.655,0,3.706,0.048,5.423c0.125,4.572,0.274,9.182,0.515,13.741c0.153,2.884,0.406,5.848,0.716,8.768
	c0.009,2.117,0.072,4.223,0.18,6.302c0.056,1.077,0.023,2.226-0.05,3.41c-4.63-10.866-11.05-20.928-16.086-31.634
	c-3.065-6.518-6.074-13.327-9.913-19.551C272.861,310.699,277.042,311.617,280.188,313.026z M281.459,235.707
	c3.265,1.906,7.841,4.787,11.897,5.428c0.168,3.797,0.61,7.61,1.827,10.934c-2.429-0.271-4.738,0.64-5.383,3.562
	c-0.711,3.216,0.077,7.696,0.314,11.321c-2.437-1.634-5.106-2.799-7.864-4.27c-2.391-1.275-4.636-2.779-7.041-4.032
	c-0.907-0.473-1.533-0.607-2.168-0.663c-0.236-1.317-0.464-2.628-0.667-3.93c-1.302-8.32-1.371-16.705-2.425-25.041
	C273.347,231.776,277.787,233.562,281.459,235.707z M250.487,167.233c1.707-6.333,9.189-3.939,9.517,1.312
	c0.301,4.807-0.787,8.109-3.845,11.742c-0.129,0.153-0.238,0.32-0.333,0.495c-0.658-0.952-1.676-1.811-2.234-2.612
	C251.497,175.153,249.486,170.944,250.487,167.233z M218.637,241.135c4.056-0.64,8.633-3.522,11.897-5.428
	c3.672-2.145,8.112-3.931,11.51-6.692c-1.053,8.335-1.122,16.72-2.425,25.041c-0.204,1.302-0.43,2.614-0.667,3.93
	c-0.635,0.056-1.26,0.19-2.168,0.663c-2.406,1.253-4.65,2.757-7.041,4.032c-2.757,1.47-5.428,2.636-7.864,4.27
	c0.236-3.625,1.025-8.105,0.313-11.321c-0.646-2.922-2.955-3.833-5.383-3.562C218.027,248.745,218.47,244.931,218.637,241.135z
	 M213.704,313.169c0.588,2.174,1.774,3.18-0.254,5.283c-1.254,1.301-3.674,2.364-5.3,3.28c-4.076,2.296-8.513,4.137-12.731,6.13
	c-5.586,2.64-11.123,5.451-16.821,7.844c-1.864,0.783-4.628,2.442-7.29,3.454c-1.318-3.29-2.64-6.583-3.798-9.957
	c-0.037-0.107-0.077-0.212-0.114-0.319c0.067-1.743,0.103-3.49,0.099-5.207c-0.021-6.669-0.091-13.566,0.469-20.191
	c0.464-5.487,0.979-11.234,1.079-16.733c0.013-0.688-0.034-1.224-0.116-1.696c2.728-0.024,5.402-1.146,8.293-1.851
	c4.862-1.185,8.577-2.893,13.058-5.159c4.868-2.463,9.94-4.487,14.789-6.947c3.733-1.893,7.433-4.56,11.241-6.344
	c0.02,0.912,0.041,1.825,0.044,2.734c0.018,6.032,0.185,12.076-0.021,18.099c-0.174,5.12-0.507,10.111-1.5,15.157
	C214.009,304.933,212.554,308.918,213.704,313.169z M216.429,356.679c0.108-2.079,0.171-4.185,0.18-6.302
	c0.309-2.92,0.563-5.885,0.716-8.768c0.147-2.788,0.255-5.594,0.349-8.401c0.802-3.42,0.694-6.94,1.845-10.327
	c0.677-1.992,1.296-3.969,2.208-5.849c3.494-0.868,6.926-2.593,10.078-4.005c3.146-1.409,7.328-2.327,10.674-4.122
	c-3.84,6.224-6.848,13.033-9.913,19.551c-5.035,10.706-11.455,20.77-16.086,31.634C216.406,358.905,216.373,357.758,216.429,356.679
	z M227.942,308.759c-2.041,0.947-6.091,1.981-8.838,3.685c-0.799-1.34-1.721-1.928-1.874-4.265
	c-0.116-1.783,0.936-4.578,1.347-6.397c1.493-6.605,2.831-13.104,3.118-19.896c0.142-3.371,0.13-6.753,0.12-10.13
	c0.437-0.165,0.882-0.367,1.36-0.568c2.843-1.204,5.739-2.391,8.535-3.698c1.441-0.674,3.86-1.647,6.019-2.925
	c-1.26,6.803-2.375,13.703-1.971,20.483c0.257,4.323,2.306,8.641,6.059,10.998c1.674,1.051,4.196,1.257,4.519,3.461
	c0.091,0.62-0.166,1.834-0.475,3.022c-0.037,0.06-0.072,0.122-0.108,0.184c-0.09-0.018-0.179-0.038-0.274-0.037
	C239.555,302.727,233.242,306.298,227.942,308.759z M193.888,41.456c-1.414-2.144-4.054-4.023-4.872-6.439
	c-1.611-4.753,2.954-9.285,5.394-12.757c0.864-1.229,1.667-2.561,2.45-3.834c0.283-0.601,0.62-1.172,0.988-1.722
	c0.13,0.015,0.259,0.017,0.388,0.01c0.506,0.788,2.833,3.745,3.135,4.028c1.353,1.273,3.066,2.208,4.373,3.49
	c0.725,0.711,2.074,2.445,2.854,3.313c2.318,2.578,2.442,3.105,0.853,6.371c-1.895,3.893-7.148,9.648-7.494,14.29
	c-0.303-0.05-0.607-0.084-0.908-0.079c-1.376,0.021-2.468,0.434-3.337,1.12C197.122,46.416,195.461,43.843,193.888,41.456z
	 M203.488,63.714c-1.43-0.481-2.964-0.542-4.536,0.02c0.085-0.951,0.033-1.924-0.068-3.189c-0.139-1.737-0.364-8.303,1.734-9.028
	c3.409-1.178,2.9,3.686,2.817,5.277C203.315,59.117,203.375,61.411,203.488,63.714z M192.358,90.178
	c1.036-4.095,2.557-8.159,3.812-12.188c0.474-1.522,0.85-3.174,1.245-4.834c0.667-1.305,1.448-2.465,2.547-3.158
	c4.969-3.133,6.449,4.978,7.155,8.576c1.667,8.493,1.427,17.63,1.376,26.258c-0.022,3.607-0.483,7.573,0.781,11.03
	c0.146,0.398,0.335,0.768,0.542,1.126c-4.076-0.039-8.046-0.342-12.155-0.248c-2.776,0.063-6.164,0.075-9.151,0.812
	C192.866,109.446,190.12,99.022,192.358,90.178z M185.69,121.793c4.712-1.841,12.385-1.181,16.584-0.974
	c2.888,0.142,7.51,1.344,10.846,0.687c0.107,0.182,0.217,0.365,0.308,0.557c0.837,1.768,0.822,3.479,0.462,5.166
	c-2.397-0.099-4.878,0.701-7.244,1.052c-3.227,0.479-6.682,0.614-9.942,0.721c-2.698,0.088-5.305-0.562-7.993-0.882
	c-2.009-0.24-3.363-1.234-4.282-2.653C184.193,124.579,184.39,123.749,185.69,121.793z M212.122,203.84
	c0.007,8.376-0.43,16.758-0.392,25.108c0.018,4.02-0.246,7.951-0.364,11.957c-0.111,3.765-0.528,7.559,0.747,11.07
	c-0.491,1.154-1.165,2.195-2.207,2.967c-1.426,1.056-3.615,1.597-5.319,2.334c2.25-19.706,3.293-39.537,3.161-59.404
	c-0.076-11.458-0.923-22.874-0.942-34.366c-0.017-9.969-0.33-20.389-1.913-30.305c2.166-0.114,5.011-0.153,7.355-0.888
	c-0.194,0.583-0.372,1.168-0.507,1.756c-0.964,4.178-0.776,8.781-0.941,13.029C210.068,165.985,212.104,184.923,212.122,203.84z
	 M190.192,263.362c-1.951,0.74-3.907,1.47-5.861,2.199c0.847-9.288,0.513-18.872,1.401-28.127c1.15-11.975,1.725-24.475,1.688-36.47
	c-0.037-12.002,1.296-24.097,2.195-36.073c0.417-5.542,0.505-11.065,1.586-16.532c0.968-4.895,2.024-10.136,2.277-15.163
	c1.209,0.127,2.418,0.186,3.628,0.215c-1.063,10.169-2.272,20.329-2.334,30.618c-0.07,11.687,0.176,23.926-1.13,35.54
	c-1.106,9.842-1.755,19.839-1.846,29.745c-0.104,11.276-1.81,22.331-1.651,33.636C190.147,263.095,190.168,263.231,190.192,263.362z
	 M195.838,230.292c0.07-10.504,0.721-20.931,1.737-31.378c1.077-11.069,0.806-22.679,0.714-33.794
	c-0.087-10.473,1.517-21.245,0.677-31.695c1.237-0.01,2.476-0.045,3.724-0.109c-1.227,9.548,0.194,19.64,0.364,29.194
	c0.209,11.773,0.734,23.612,0.596,35.36c-0.134,11.359-0.77,22.646-1.32,33.962c-0.446,9.193-1.983,18.387-2.519,27.574
	c-1.769,0.777-3.55,1.527-5.338,2.259C194.372,251.154,195.768,240.795,195.838,230.292z M173.714,246.148
	c0.669-8.957,1.72-17.938,2.703-26.868c2.059-18.69,3.973-37.392,5.972-56.094c0.995-9.313,0.371-18.76,2.646-27.851
	c0.293-1.168,0.551-2.301,0.663-3.437c1.696,0.489,3.587,0.66,5.276,0.956c0.178,0.031,0.356,0.052,0.534,0.08
	c-1.038,5.097-2.363,10.267-3.501,15.342c-1.099,4.907-1.732,9.691-2.179,14.689c-1.074,11.98-2.474,24.196-2.538,36.219
	c-0.12,22.653-2.095,45.526-3.66,68.144c-0.817,0.308-1.639,0.612-2.453,0.924c-0.557,0.213-3.362,1.561-5.008,2.152
	C174.017,262.611,173.125,254.017,173.714,246.148z M166.807,278.943c1.276-1.374,2.67-2.822,4.5-3.188
	c2.006-0.402,3.96-0.559,5.952-1.207c4.155-1.353,8.051-3.368,12.147-4.872c6.475-2.378,12.972-4.83,19.14-7.949
	c2.849-1.44,4.948-3.185,6.285-5.277c2.403,0.753,1.766-0.101,1.526,3.361c-0.028,0.395-0.034,0.789-0.047,1.185
	c-2.57,0.516-5.672,3.092-7.713,4.256c-5.049,2.879-10.067,5.402-15.309,7.922c-4.738,2.278-9.705,3.967-14.845,5.002
	c-2,0.403-4,0.812-5.975,1.328c-1.724,0.45-3.589,1.364-5.407,0.926c-0.248-0.06-0.512-0.161-0.632-0.384
	C166.231,279.682,166.524,279.25,166.807,278.943z M126.186,73.012c-1.414-2.144-4.054-4.023-4.872-6.439
	c-1.611-4.753,2.954-9.285,5.394-12.757c0.864-1.229,1.667-2.561,2.45-3.834c0.283-0.601,0.62-1.172,0.988-1.722
	c0.13,0.015,0.259,0.017,0.388,0.01c0.506,0.788,2.833,3.745,3.134,4.028c1.353,1.273,3.066,2.208,4.373,3.49
	c0.725,0.711,2.074,2.445,2.853,3.313c2.318,2.577,2.442,3.105,0.853,6.371c-1.895,3.893-7.148,9.648-7.494,14.29
	c-0.303-0.05-0.607-0.085-0.908-0.079c-1.376,0.021-2.468,0.435-3.337,1.12C129.42,77.972,127.759,75.399,126.186,73.012z
	 M135.786,95.27c-1.43-0.481-2.964-0.542-4.536,0.02c0.085-0.951,0.033-1.924-0.068-3.189c-0.139-1.737-0.364-8.303,1.734-9.028
	c3.409-1.178,2.9,3.686,2.817,5.277C135.613,90.673,135.674,92.967,135.786,95.27z M124.656,121.734
	c1.036-4.095,2.557-8.159,3.812-12.188c0.474-1.522,0.85-3.174,1.246-4.834c0.667-1.305,1.448-2.465,2.547-3.158
	c4.969-3.133,6.449,4.978,7.155,8.576c1.667,8.493,1.427,17.63,1.376,26.258c-0.022,3.607-0.483,7.573,0.781,11.03
	c0.146,0.398,0.335,0.768,0.542,1.126c-4.077-0.039-8.046-0.342-12.155-0.248c-2.776,0.063-6.164,0.075-9.151,0.812
	C125.164,141.002,122.418,130.578,124.656,121.734z M117.988,153.349c4.712-1.841,12.385-1.181,16.584-0.974
	c2.888,0.142,7.51,1.344,10.846,0.687c0.107,0.182,0.217,0.365,0.308,0.557c0.837,1.769,0.822,3.479,0.462,5.166
	c-2.397-0.099-4.878,0.701-7.244,1.052c-3.227,0.479-6.682,0.614-9.942,0.721c-2.698,0.088-5.305-0.562-7.993-0.882
	c-2.009-0.24-3.363-1.234-4.282-2.653C116.491,156.135,116.688,155.305,117.988,153.349z M144.42,235.396
	c0.007,8.376-0.431,16.758-0.392,25.108c0.018,4.02-0.246,7.951-0.364,11.957c-0.111,3.765-0.528,7.559,0.747,11.07
	c-0.491,1.154-1.165,2.195-2.207,2.967c-1.426,1.056-3.615,1.597-5.319,2.334c2.25-19.706,3.293-39.537,3.161-59.404
	c-0.076-11.458-0.923-22.874-0.942-34.366c-0.017-9.969-0.33-20.389-1.913-30.305c2.166-0.114,5.011-0.153,7.355-0.888
	c-0.194,0.583-0.371,1.168-0.507,1.756c-0.964,4.178-0.776,8.781-0.941,13.029C142.366,197.541,144.402,216.478,144.42,235.396z
	 M122.49,294.917c-1.951,0.74-3.907,1.47-5.861,2.199c0.847-9.288,0.513-18.872,1.401-28.127c1.15-11.975,1.725-24.475,1.688-36.47
	c-0.037-12.002,1.296-24.097,2.195-36.073c0.417-5.542,0.505-11.065,1.586-16.532c0.968-4.895,2.024-10.136,2.277-15.163
	c1.209,0.127,2.418,0.186,3.628,0.213c-1.063,10.169-2.272,20.329-2.334,30.618c-0.07,11.687,0.176,23.926-1.13,35.54
	c-1.106,9.842-1.755,19.839-1.846,29.745c-0.104,11.276-1.81,22.331-1.651,33.636C122.445,294.651,122.466,294.787,122.49,294.917z
	 M128.136,261.848c0.07-10.504,0.721-20.931,1.737-31.378c1.077-11.069,0.806-22.679,0.714-33.794
	c-0.087-10.473,1.516-21.245,0.677-31.695c1.237-0.01,2.476-0.045,3.724-0.108c-1.227,9.548,0.194,19.64,0.364,29.194
	c0.209,11.773,0.734,23.612,0.596,35.36c-0.134,11.359-0.77,22.646-1.32,33.962c-0.446,9.193-1.983,18.387-2.519,27.574
	c-1.769,0.777-3.55,1.527-5.338,2.259C126.67,282.71,128.066,272.351,128.136,261.848z M106.012,277.704
	c0.669-8.957,1.72-17.938,2.703-26.868c2.059-18.69,3.973-37.392,5.972-56.094c0.995-9.313,0.371-18.76,2.646-27.851
	c0.293-1.168,0.551-2.301,0.663-3.437c1.696,0.489,3.587,0.66,5.276,0.956c0.178,0.031,0.356,0.052,0.534,0.08
	c-1.038,5.097-2.363,10.267-3.501,15.342c-1.099,4.907-1.732,9.691-2.179,14.689c-1.074,11.98-2.474,24.196-2.538,36.219
	c-0.12,22.653-2.095,45.526-3.66,68.144c-0.817,0.309-1.639,0.612-2.453,0.924c-0.557,0.213-3.362,1.561-5.008,2.152
	C106.315,294.167,105.423,285.573,106.012,277.704z M99.105,310.499c1.276-1.374,2.67-2.822,4.5-3.188
	c2.005-0.402,3.96-0.559,5.952-1.207c4.155-1.353,8.051-3.368,12.147-4.872c6.475-2.378,12.972-4.83,19.14-7.949
	c2.849-1.44,4.948-3.185,6.285-5.277c2.403,0.753,1.766-0.101,1.526,3.361c-0.028,0.395-0.034,0.789-0.047,1.185
	c-2.57,0.516-5.672,3.092-7.713,4.256c-5.049,2.879-10.067,5.402-15.309,7.923c-4.738,2.278-9.705,3.967-14.845,5.002
	c-2,0.403-4,0.812-5.975,1.328c-1.724,0.45-3.589,1.364-5.407,0.926c-0.248-0.06-0.512-0.161-0.633-0.384
	C98.529,311.238,98.822,310.806,99.105,310.499z M140.584,311.055c-0.88-2.64-2.222-6.012-5.523-5.021
	c-2.754,0.826-3.524,3.988-3.227,6.546c-2.091,9.769-3.408,21.611-1.867,31.322c0.473,2.975,1.636,6.059,4.988,6.624
	c0.279,0.047,0.543,0.063,0.796,0.06c-0.683,2.03-1.376,4.055-2.079,6.076c-1.995,0.923-3.996,1.831-5.955,2.757
	c-5.586,2.64-11.123,5.451-16.821,7.844c-3.017,1.267-8.394,4.846-11.875,4.23c-0.847-2.592,0.18-4.146,0.445-6.991
	c0.285-3.039,0.336-6.208,0.327-9.268c-0.021-6.669-0.091-13.566,0.469-20.191c0.464-5.487,0.979-11.234,1.079-16.733
	c0.013-0.689-0.034-1.224-0.116-1.696c2.728-0.024,5.402-1.146,8.293-1.851c4.862-1.185,8.577-2.893,13.058-5.159
	c4.868-2.462,9.94-4.487,14.789-6.947c3.733-1.893,7.433-4.56,11.241-6.344c0.02,0.912,0.041,1.824,0.044,2.734
	c0.018,5.696,0.156,11.401-0.001,17.092c-1.446,3.117-3,6.311-4.309,9.459c-0.552,1.329-1.069,2.652-1.573,3.975
	C143.031,323.162,142.448,316.653,140.584,311.055z M133.373,326.634c0.12-2.977,0.059-5.96,0.254-8.933
	c0.119-1.816-0.033-6.33,2.062-7.251c1.984-0.873,1.838,2.409,2.278,4.164c0.912,3.647,1.145,7.211,1.06,10.946
	c-0.067,2.884-0.095,5.681-0.387,8.555c-0.186,1.829-0.257,12.818-3.915,10.245c-2.8-1.969-1.377-6.153-1.445-8.966
	C133.208,332.445,133.255,329.567,133.373,326.634z M117.349,455.529c0.009,0.075,0.014,0.149,0.023,0.223
	c-0.095,1.515-0.169,3.034-0.203,4.565c-0.327,14.573-0.625,29.128-0.682,43.706c-1.261-0.08-2.521-0.182-3.779-0.317
	c-4.093-0.436-9.731-0.367-10.69-5.257c-0.666-3.393,0.125-7.38-0.317-10.893c-2.286-18.199-1.531-36.863-1.814-55.236
	c-0.145-9.345-0.079-18.619-0.032-27.961c0.045-8.9,1.047-19.647-1.59-28.282c6.32,0.881,17.834-5.177,21.829-7.016
	c3.697-1.702,7.374-3.415,11.048-5.133c-2.516,7.251-4.953,14.531-6.856,22.019c-1.802,7.087-3.963,14.053-5.84,21.129
	c-1.094,4.123-4.218,11.665,1.816,13.595c0.66,0.211,1.281,0.301,1.873,0.309c-2.691,5.752-3.87,11.155-4.45,17.529
	C117.177,444.112,116.675,449.931,117.349,455.529z M143.946,477.246c-0.075,7.119-0.111,14.238-0.153,21.357
	c-0.008,1.453-0.348,3.683-0.201,5.695c-1.936,0.095-3.866,0.142-5.788,0.09c-2.351-0.064-4.707-0.076-7.063-0.079
	c0.396-3.791,0.04-7.756-0.101-11.506c-0.22-5.854,0.596-11.59,0.698-17.414c0.12-6.853-0.443-13.722-0.11-20.571
	c0.145-2.966,0.071-6.037,0.826-8.927c0.855-3.274,5.517-11.514,9.559-5.409c3.422,5.169,2.053,12.253,2.284,17.988
	C144.149,464.722,144.011,470.98,143.946,477.246z M172.291,473.248c-0.29,6.118-0.513,12.279-0.894,18.386
	c-0.207,3.314-0.846,7.052-0.677,10.559c-2.464,0.145-4.926,0.293-7.384,0.43c-1.819,0.102-3.65,0.258-5.486,0.429
	c0.425-1.807,0.267-13.216,0.267-14.072c0.001-5.734,0.061-11.468,0.04-17.202c-0.023-6.209,0.11-12.461,0.859-18.623
	c0.45-3.69,0.894-17.398,7.451-14.336c5.188,2.423,5.605,12.341,5.867,17.23C172.648,461.851,172.566,467.463,172.291,473.248z
	 M188.288,426.356c-0.431,10.771-0.675,21.624-0.951,32.404c-0.247,9.568-1.135,19.063-1.17,28.641
	c-0.017,4.489,0.046,8.911,0.252,13.385c0.031,0.67,0.041,1.327,0.06,1.969c-3.558-0.397-7.112-0.949-10.654-0.835
	c-0.811-5.983,0.847-13.344,0.948-19c0.13-7.251,0.666-14.413,0.194-21.651c-0.523-8.037-0.35-28.353-13.066-27.557
	c-4.819,0.302-7.085,5.355-7.828,9.377c-1.169,6.327-1.72,12.638-1.992,19.045c-0.332,7.853-0.332,15.729-0.285,23.607
	c0.033,5.645-0.001,12.004,1.468,17.554c-2.153,0.215-4.31,0.439-6.468,0.631c-0.064-0.053-0.125-0.109-0.193-0.155
	c0.516-1.067,0.407-8.572,0.4-9.728c-0.026-4.483-0.048-8.965-0.091-13.449c-0.067-6.97,0.223-14.083-0.433-21.023
	c-0.343-3.641,0.143-7.423-0.473-11.031c-0.567-3.321-2.068-6.825-3.485-9.853c-1.445-3.087-3.805-4.806-7.338-3.678
	c-3.781,1.207-7.749,7.187-9.175,10.643c-2.533,6.133-1.615,14.05-1.486,20.515c0.252,12.786-1.143,25.493,1.035,38.135
	c-2.1-0.005-4.199-0.026-6.295-0.08c-0.029-11.437-0.047-22.884-0.364-34.319c0.157-3.822,0.08-7.663,0.094-11.461
	c0.021-5.514,1.138-11.191,1.587-16.687c0.643-7.883,2.082-15.85,4.744-23.389c0.903-0.974,1.696-2.108,2.407-3.208
	c4.543-7.021,6.281-14.728,9.749-22.187c2.67-5.743,5.094-11.703,8.004-17.301c1.554-2.988,2.794-6.079,4.217-9.131
	c0.491-1.053,1.486-4.411,2.461-4.978c2.667-1.55,5.179,1.166,6.885,2.931c5.034,5.203,5.62,11.444,7.965,17.9
	c2.53,6.969,4.511,14.129,6.965,21.14c1.869,5.339,3.298,12.542,8.152,16.06c1.556,1.128,3.193,1.458,4.69,1.189
	C188.474,422.849,188.348,424.885,188.288,426.356z M189.013,412.807c-1.174,3.518-2.321-0.353-3.235-2.092
	c-0.853-1.621-1.282-3.343-1.89-5.062c-1.139-3.223-2.495-6.362-3.658-9.575c-1.791-4.95-3.61-9.913-5.692-14.725
	c-3.781-8.738-6.164-19.375-15.515-24.105c-3.251-1.644-6.161-2.437-9.05,0.232c-4.061,3.75-5.907,9.984-8.345,14.765
	c-5.553,10.891-7.405,23.408-12.964,34.242c-0.959,1.87-2.911,7.484-4.741,7.933c-1.608,0.395,1.19-6.178,1.299-6.538
	c1.907-6.316,3.739-12.689,5.283-19.095c3.196-13.251,7.609-26.055,11.873-38.961c1.984-6.004,3.378-11.998,5.744-17.873
	c1.262-3.134,2.629-6.108,3.99-9.188c0.289-0.654,0.877-2.792,1.504-4.659c0.026-0.021,0.056-0.034,0.083-0.056
	c1.665-1.391,0.336-1.456,1.494,0.201c0.417,0.598,0.592,1.509,0.907,2.166c1.277,2.662,2.939,5.039,4.154,7.748
	c2.036,4.539,3.243,9.437,5.286,14.02c5.221,11.709,8.864,24.18,13.719,36.104c2.016,4.95,4.25,9.65,5.905,14.759
	C186.909,398.428,190.905,407.14,189.013,412.807z M184.435,376.862c-3.224-8.218-5.88-16.526-8.447-24.967
	c-0.855-2.81-1.858-5.552-2.912-8.271c5.711-1.627,11.981-4.858,14.722-6.12c7.016-3.229,14.001-6.427,20.934-9.787
	c1.325-0.643,3-1.39,4.67-2.278c0.002,0.387,0.009,0.783,0.013,1.196c0.02,2.226,0.217,4.461,0.407,6.696
	c-1.361,7.707-1.082,15.596-1.937,23.349c-0.458,4.149-0.282,8.347,0.026,12.481c0.025,0.332,0.037,0.662,0.05,0.993
	c-0.514,1.12-1.026,2.24-1.524,3.366c-2.66,6.003-4.363,12.409-7.184,18.359c-2.154,4.544-4.639,8.771-6.456,13.488
	c-0.52,1.351-1.345,2.637-2.207,3.918C194.371,398.266,188.167,386.374,184.435,376.862z M244.13,469.706
	c-0.216,10.942-1.819,21.793-2.31,32.71c-2.3,0.122-4.637,0.507-6.883,0.731c-1.053,0.106-2.118,0.194-3.18,0.287
	c-0.741-0.031-1.487-0.042-2.232-0.061c0.449-4.077-0.011-8.607-0.023-12.484c-0.02-6.442,0.071-12.896-0.079-19.336
	c-0.14-5.998,0.412-11.868,1.366-17.798c0.758-4.722,1.798-13.771,6.821-16.166c6.814-3.249,6.663,10.083,6.794,14.072
	C244.598,457.641,244.247,463.721,244.13,469.706z M282.49,490.888c-0.011,3.876-0.472,8.408-0.023,12.484
	c-0.745,0.018-1.491,0.03-2.232,0.061c-1.063-0.093-2.126-0.181-3.18-0.287c-0.908-0.091-1.831-0.207-2.761-0.322
	c-0.644-0.107-1.293-0.177-1.946-0.225c-0.726-0.077-1.453-0.146-2.176-0.184c-0.491-10.917-2.094-21.768-2.31-32.71
	c-0.117-5.983-0.468-12.065-0.273-18.045c0.131-3.989-0.021-17.32,6.794-14.072c5.023,2.395,6.062,11.444,6.821,16.166
	c0.952,5.929,1.506,11.8,1.366,17.798C282.418,477.992,282.509,484.445,282.49,490.888z M295.295,503.226
	c-3.064,0.083-6.177,0.068-9.291,0.088c1.242-6.402,0.488-13.293,0.468-19.733c-0.023-7.632,0.293-15.236-0.466-22.828
	c-0.814-8.133-1.567-25.627-12.228-27.529c-12.088-2.158-9.857,19.21-10.003,26.023c-0.177,8.265-0.177,16.34,0.272,24.583
	c0.339,6.23,0.764,12.458,0.931,18.691c-4.459-0.005-8.949-0.082-13.395,0.107c-1.479,0.063-3.024,0.056-4.577,0.094
	c0.162-6.3,0.594-12.595,0.938-18.892c0.448-8.242,0.448-16.316,0.272-24.583c-0.146-6.812,2.085-28.18-10.003-26.023
	c-10.659,1.903-11.414,19.396-12.228,27.529c-0.76,7.591-0.444,15.195-0.466,22.828c-0.018,6.441-0.773,13.332,0.468,19.733
	c-3.113-0.021-6.227-0.006-9.29-0.088c-0.264-0.007-0.528-0.006-0.792-0.01c0.851-5.023,0.306-10.571,0.693-15.42
	c0.617-7.728,0.848-15.631,0.841-23.393c-0.009-9.58,0.861-19.181,0.885-28.805c0.023-9.067-0.048-18.564,1.916-27.455
	c0.336-1.522,0.378-5.392,1.869-5.733c0.374-0.086,2.862,1.515,3.673,1.509c1.623-0.01,2.951-0.902,3.945-2.1
	c1.401-1.691,1.889-4.211,2.196-6.333c0.47-3.252-0.737-8.973,1.293-11.803c1.462-2.039,4.764-1.364,6.624-3.167
	c2.574-2.497,2.382-5.571,2.95-8.805c0.374-2.126,1.043-3.938,2.637-5.359c1.064-0.948,2.46-1.32,3.449-2.437
	c1.893-2.139,2.593-5.149,4.814-7.072c0.575-0.498,0.76-1.195,0.676-1.877c0.193-0.468,0.334-0.924,0.411-1.349
	c0.079-0.443,0.226-0.949,0.353-1.445c0.148,0.462,0.269,0.933,0.433,1.39c0.53,1.484,1.425,3.095,2.943,3.49
	c2.049,1.927,2.778,4.798,4.607,6.864c0.989,1.118,2.386,1.489,3.449,2.437c1.594,1.421,2.263,3.232,2.637,5.359
	c0.568,3.234,0.376,6.309,2.95,8.805c1.86,1.804,5.163,1.129,6.624,3.167c2.03,2.831,0.824,8.552,1.293,11.803
	c0.308,2.123,0.795,4.643,2.196,6.333c0.994,1.198,2.323,2.09,3.945,2.1c0.811,0.005,3.299-1.595,3.673-1.509
	c1.492,0.341,1.533,4.212,1.869,5.733c1.963,8.891,1.893,18.387,1.916,27.455c0.024,9.624,0.893,19.225,0.885,28.805
	c-0.007,7.762,0.224,15.664,0.841,23.393c0.387,4.848-0.158,10.397,0.693,15.42C295.823,503.22,295.559,503.218,295.295,503.226z
	 M320.138,438.914c-0.227,9.047-1.315,18.181-1.059,27.227c0.241,8.521,0.529,17.015,0.559,25.56
	c0.013,3.387-0.912,8.023-0.617,12.061c-1.533,0.038-3.003,0.092-4.312,0.064c-4.675-0.101-9.325-0.457-13.991-0.583
	c0.311-3.257,0.215-8.039,0.204-8.27c-0.176-3.945-0.211-7.988-0.266-11.941c-0.129-9.074,1.102-18.035,0.552-27.103
	c-1.081-17.831,2.944-36.971-5.266-53.717c-1.064-2.17-2.374-4.683-4.94-5.128c-2.942-0.509-3.854,2.715-5.463-0.282
	c-1.534-2.856-0.334-7.695-0.89-10.982c-0.392-2.316-0.839-4.95-2.511-6.742c-0.911-0.977-1.867-1.273-3.024-1.846
	c-3.322-1.649-3.501-1.425-3.91-4.739c-0.342-2.776-0.865-6.245-2.537-8.582c-1.759-2.458-4.575-3.638-6.41-6.118
	c-1.62-2.192-2.847-3.819-5.347-4.883c-0.294-1.567-0.92-3.157-1.518-4.289c-1.223-2.319-4.183-3.529-6.631-2.253
	c-1.846,0.963-2.763,3.529-2.954,5.477c-0.079,0.812-0.016,1.269-0.124,1.79c-1.623,1.03-2.659,2.415-3.946,4.156
	c-1.835,2.48-4.651,3.66-6.41,6.118c-1.673,2.336-2.196,5.806-2.537,8.582c-0.407,3.314-0.588,3.09-3.91,4.739
	c-1.157,0.574-2.113,0.87-3.024,1.846c-1.672,1.792-2.118,4.426-2.511,6.741c-0.557,3.286,0.643,8.125-0.89,10.982
	c-1.609,2.997-2.522-0.227-5.463,0.282c-2.566,0.444-3.876,2.958-4.94,5.128c-8.209,16.748-4.185,35.887-5.266,53.717
	c-0.55,9.066,0.68,18.028,0.552,27.103c-0.056,3.954-0.091,7.997-0.266,11.941c-0.01,0.232-0.107,5.013,0.204,8.27
	c-4.667,0.126-9.316,0.482-13.991,0.583c-1.309,0.029-2.779-0.025-4.312-0.064c0.295-4.038-0.629-8.674-0.617-12.061
	c0.03-8.545,0.318-17.039,0.559-25.56c0.256-9.047-0.832-18.18-1.059-27.227c-0.104-4.173-0.233-8.384-0.088-12.558
	c0.041-1.197,0.383-5.788,1.396-8.651c0.224-0.06,0.437-0.149,0.61-0.297c3.26-2.804,6.343-5.251,8.478-9.063
	c2.383-4.259,4.495-8.775,6.692-13.141c5.002-9.934,9.417-20.513,13.446-30.839c4.082-10.463,9.685-20.051,13.213-30.806
	c0.661-2.013,1.374-4.045,2.124-6.081c1.576-1.906,2.573-4.296,3.94-6.35c1.704-2.559,3.512-4.903,4.73-7.759
	c0.716-1.681,2.661-5.485,3.395-8.727c1.199-1.721,2.006-3.757,2.06-5.806c0.114-4.329-2.378-5.159-5.728-6.961
	c-6.327-3.403-4.502-11.586-3.89-17.538c0.61-5.939,1.588-11.837,2.622-17.729c1.679-9.562,1.181-19.285,1.854-28.933
	c0.613-8.752,1.945-17.661,3.543-26.45c1.755-4.097,2.36-8.854,4.233-12.804c0.687-1.45,1.083-3.143,2.574-1.384
	c0.708,0.834,1.2,3.432,1.564,4.474c0.871,2.491,1.783,4.967,2.698,7.445c1.784,9.52,3.298,19.211,3.962,28.717
	c0.675,9.647,0.176,19.371,1.854,28.933c1.035,5.891,2.013,11.789,2.622,17.729c0.612,5.952,2.437,14.136-3.89,17.538
	c-3.351,1.802-5.842,2.631-5.728,6.961c0.08,3.064,1.824,6.117,4.084,8.094c0.382,0.334,0.837,0.441,1.268,0.403
	c4.259,8.386,8.026,17.475,10.897,26.227c3.529,10.753,9.132,20.343,13.213,30.806c4.029,10.326,8.446,20.906,13.446,30.839
	c2.197,4.365,4.309,8.882,6.692,13.141c2.134,3.813,5.218,6.258,8.478,9.063c0.172,0.148,0.386,0.238,0.609,0.297
	c1.013,2.863,1.355,7.454,1.397,8.651C320.371,430.53,320.244,434.74,320.138,438.914z M317.402,409.283
	c-0.861-1.281-1.687-2.567-2.207-3.918c-1.815-4.716-4.301-8.944-6.456-13.488c-2.822-5.951-4.525-12.356-7.184-18.359
	c-0.499-1.126-1.01-2.246-1.524-3.366c0.014-0.33,0.025-0.661,0.051-0.993c0.309-4.134,0.483-8.333,0.026-12.481
	c-0.855-7.754-0.576-15.644-1.937-23.349c0.19-2.234,0.388-4.469,0.407-6.696c0.003-0.413,0.01-0.809,0.013-1.196
	c1.671,0.889,3.345,1.636,4.67,2.278c6.933,3.36,13.917,6.559,20.934,9.787c2.741,1.261,9.011,4.492,14.722,6.12
	c-1.055,2.72-2.057,5.461-2.912,8.271c-2.567,8.441-5.222,16.749-8.447,24.967C323.826,386.374,317.622,398.266,317.402,409.283z
	 M326.827,393.047c1.656-5.11,3.89-9.809,5.906-14.759c4.854-11.924,8.498-24.395,13.718-36.104
	c2.044-4.583,3.251-9.481,5.286-14.02c1.214-2.709,2.877-5.085,4.154-7.748c0.316-0.659,0.49-1.569,0.907-2.166
	c1.157-1.657-0.171-1.592,1.494-0.201c0.026,0.022,0.056,0.036,0.083,0.056c0.628,1.867,1.215,4.005,1.504,4.659
	c1.361,3.08,2.728,6.053,3.99,9.188c2.366,5.875,3.761,11.87,5.744,17.873c4.264,12.906,8.677,25.71,11.873,38.961
	c1.545,6.406,3.376,12.78,5.283,19.095c0.109,0.361,2.907,6.933,1.299,6.538c-1.83-0.449-3.782-6.062-4.741-7.933
	c-5.56-10.835-7.412-23.351-12.964-34.242c-2.437-4.78-4.284-11.015-8.345-14.765c-2.889-2.668-5.798-1.876-9.05-0.232
	c-9.351,4.73-11.735,15.367-15.516,24.105c-2.082,4.81-3.9,9.774-5.692,14.725c-1.162,3.214-2.518,6.353-3.658,9.575
	c-0.608,1.719-1.037,3.44-1.89,5.062c-0.915,1.738-2.061,5.61-3.235,2.092C321.089,407.14,325.084,398.428,326.827,393.047z
	 M348.655,502.624c-2.457-0.138-4.92-0.286-7.384-0.43c0.169-3.507-0.47-7.245-0.677-10.559c-0.381-6.107-0.602-12.267-0.894-18.386
	c-0.275-5.786-0.357-11.397-0.046-17.199c0.262-4.888,0.678-14.806,5.867-17.23c6.558-3.063,7.002,10.646,7.451,14.336
	c0.75,6.162,0.882,12.414,0.859,18.623c-0.021,5.734,0.039,11.469,0.04,17.202c0,0.856-0.157,12.264,0.267,14.072
	C352.305,502.882,350.473,502.726,348.655,502.624z M381.351,492.801c-0.141,3.75-0.497,7.715-0.101,11.506
	c-2.357,0.003-4.713,0.015-7.063,0.079c-1.921,0.053-3.852,0.007-5.788-0.09c0.147-2.013-0.193-4.242-0.201-5.695
	c-0.041-7.119-0.078-14.238-0.153-21.357c-0.065-6.265-0.204-12.524,0.048-18.776c0.232-5.735-1.138-12.819,2.284-17.988
	c4.041-6.105,8.704,2.135,9.559,5.409c0.755,2.889,0.682,5.96,0.826,8.927c0.334,6.849-0.231,13.717-0.11,20.571
	C380.756,481.211,381.572,486.947,381.351,492.801z M390.731,504.222c-2.096,0.054-4.195,0.076-6.295,0.08
	c2.178-12.643,0.783-25.348,1.035-38.135c0.127-6.465,1.046-14.382-1.486-20.515c-1.426-3.455-5.394-9.436-9.175-10.643
	c-3.533-1.127-5.892,0.591-7.338,3.678c-1.417,3.029-2.918,6.534-3.485,9.854c-0.616,3.609-0.129,7.391-0.473,11.031
	c-0.655,6.94-0.366,14.053-0.433,21.023c-0.042,4.483-0.064,8.965-0.091,13.449c-0.007,1.156-0.116,8.66,0.4,9.728
	c-0.068,0.047-0.129,0.103-0.193,0.155c-2.158-0.192-4.316-0.417-6.468-0.631c1.468-5.55,1.433-11.909,1.468-17.554
	c0.047-7.879,0.047-15.754-0.285-23.607c-0.271-6.406-0.823-12.718-1.992-19.045c-0.742-4.022-3.009-9.076-7.828-9.377
	c-12.718-0.796-12.544,19.52-13.066,27.557c-0.472,7.238,0.064,14.4,0.194,21.651c0.101,5.656,1.759,13.017,0.948,19
	c-3.542-0.114-7.096,0.437-10.654,0.835c0.018-0.643,0.029-1.299,0.06-1.969c0.207-4.474,0.27-8.896,0.252-13.385
	c-0.036-9.579-0.925-19.075-1.17-28.641c-0.278-10.78-0.521-21.633-0.951-32.404c-0.059-1.471-0.186-3.507-0.53-5.576
	c1.496,0.27,3.133-0.06,4.69-1.189c4.854-3.518,6.281-10.721,8.152-16.06c2.454-7.011,4.435-14.172,6.965-21.14
	c2.344-6.456,2.931-12.697,7.965-17.9c1.706-1.765,4.218-4.481,6.885-2.931c0.975,0.567,1.97,3.924,2.463,4.978
	c1.423,3.051,2.663,6.143,4.217,9.131c2.909,5.597,5.332,11.558,8.004,17.301c3.468,7.46,5.206,15.165,9.75,22.187
	c0.713,1.1,1.506,2.234,2.407,3.208c2.662,7.539,4.101,15.505,4.744,23.389c0.448,5.495,1.565,11.173,1.587,16.687
	c0.014,3.798-0.063,7.64,0.094,11.461C390.777,481.338,390.76,492.785,390.731,504.222z M412.136,404.357
	c0.047,9.342,0.112,18.616-0.032,27.961c-0.283,18.374,0.472,37.038-1.814,55.236c-0.441,3.515,0.349,7.501-0.317,10.893
	c-0.959,4.889-6.597,4.821-10.69,5.257c-1.258,0.134-2.516,0.236-3.779,0.317c-0.056-14.578-0.355-29.132-0.682-43.706
	c-0.034-1.53-0.108-3.05-0.203-4.565c0.009-0.073,0.014-0.149,0.023-0.223c0.675-5.599,0.172-11.419-0.337-17.021
	c-0.581-6.374-1.76-11.777-4.451-17.529c0.592-0.008,1.213-0.098,1.873-0.309c6.035-1.93,2.91-9.473,1.816-13.595
	c-1.876-7.075-4.039-14.043-5.84-21.129c-1.904-7.489-4.339-14.768-6.856-22.019c3.675,1.718,7.351,3.431,11.048,5.133
	c3.996,1.838,15.509,7.898,21.829,7.016C411.09,384.71,412.093,395.457,412.136,404.357z"/>
<path d="M270.439,392.209c-0.441-1.239-0.885-2.373-1.481-3.416c0.098-0.189,0.129-0.411,0.034-0.646
	c-2.132-5.351-7.619-6.473-12.999-6.201c-3.091,0.156-8.031,1.779-10.031,4.791c-5.293,4.508-8.545,13.516-8.823,19.03
	c-0.184,3.631,0.481,9.787,2.481,14.758c0.332,1.971,1.473,3.673,3.008,5.088c0.893,0.99,1.914,1.756,3.068,2.226
	c1.721,0.995,3.55,1.733,5.138,2.188c5.167,1.479,12.15,1.643,15.783-2.321c6.53-3.047,8.542-15.939,8.24-21.939
	C274.666,402.019,273.083,396.675,270.439,392.209z M268.048,417.615c-1.767,3.791-4.875,4.901-8.215,6.663
	c-0.221,0.117-0.392,0.298-0.537,0.504c-2.327,0.298-5.016,0.095-7.228-0.55c-3.306-1.735-6.374-2.861-8.125-6.618
	c-2.132-4.577-2.367-12.045-0.931-16.849c1.119-3.741,3.638-7.623,6-10.724c0.114-0.15,0.24-0.293,0.363-0.436
	c2.697-1.398,5.205-2.507,8.587-2.343c0.975,0.047,1.942,0.272,2.903,0.554c0.747,0.711,1.503,1.422,2.115,2.225
	c2.363,3.102,4.88,6.984,6,10.724C270.416,405.569,270.181,413.037,268.048,417.615z"/>
<g>
</g>
<g>
</g>
<g>
</g>
<g>
</g>
<g>
</g>
<g>
</g>
<g>
</g>
<g>
</g>
<g>
</g>
<g>
</g>
<g>
</g>
<g>
</g>
<g>
</g>
<g>
</g>
<g>
</g>
</svg>
