<?xml version="1.0" encoding="iso-8859-1"?>
<!-- Generator: Adobe Illustrator 19.0.0, SVG Export Plug-In . SVG Version: 6.00 Build 0)  -->
<svg version="1.1" id="Layer_1" xmlns="http://www.w3.org/2000/svg" xmlns:xlink="http://www.w3.org/1999/xlink" x="0px" y="0px"
	 viewBox="0 0 512.001 512.001" style="enable-background:new 0 0 512.001 512.001;" xml:space="preserve">
<path style="fill:#A1BBE5;" d="M487.311,382.154c7.274,1.657,16.802-2.337,20.677,3.3c2.188,3.183,4.461,25.155-0.878,26.523
	c-2.981,0.764-5.114,1.718-7.282,1.806c-32.788,1.342-65.573,3.132-98.375,3.648c-26.685,0.421-53.392-0.887-80.093-1.086
	c-12.159-0.091-24.323,0.868-36.487,0.957c-26.704,0.198-53.409,0.138-80.113,0.202c-10.664,0.025-21.329,0.061-31.993,0.175
	c-4.579,0.049-9.164,0.578-13.733,0.436c-50.29-1.559-100.577-3.207-151.113-4.839c-5.614-0.181-6.772-27.537-1.017-29.149
	c2.103-0.589,4.332-0.064,6.506,0.152c5.795,0.576,11.789-1.178,16.358-4.788c6.164-4.871,7.057-11.862,10.504-18.283
	c4.285-7.981,10.269-15.465,15.485-22.861c10.612-15.045,21.754-29.709,33.141-44.174c22.553-28.649,46.087-56.51,68.64-85.157
	c28.322-35.976,58.42-70.554,87.757-105.73c2.885-3.459,6.02-6.707,10.121-11.252c3.796,3.116,7.588,5.368,10.267,8.558
	c33.384,39.749,66.84,79.441,99.785,119.553c22.284,27.134,44.23,54.571,65.504,82.498c10.308,13.532,20.275,27.318,30.174,41.151
	c4.727,6.604,10.036,12.792,12.777,20.363c2.309,6.381,3.921,13.125,10.271,16.806C485.164,381.522,486.212,381.903,487.311,382.154
	z"/>
<path style="fill:#4A5566;" d="M23.849,383.352c-3.976-1.493-14.504-0.724-16.938,3.18c-3.721,5.969-1.701,20.428-1.292,27.401
	c20.24,1.019,40.658,0.982,60.96,0.984c25.227,0.003,50.444,0.703,75.663,1.264c24.645,0.549,49.118-0.293,73.741-0.347
	c13.633-0.03,27.286,0.455,40.939,0.456c33.874,0.003,67.569,0.877,101.456-0.013c29.872-0.784,59.717-1.96,89.596-2.285
	c13.828-0.15,27.786-0.4,41.609-0.007c3.909,0.111,13.267,2.388,16.702,0.382c-1.122-6.307,3.894-13.04,2.39-19.842
	c-0.861-3.889-3.64-8.8-7.328-10.599c-4.396-2.144-10.31-1.301-15.059-1.056c-11.173,0.579-22.402,0.509-33.591,0.962
	c-32.242,1.305-64.58,1.311-96.782,3.547c-35.124,2.439-71.236,3.147-106.437,2.399c-14.976-0.319-29.914-2.379-44.859-3.121
	c-10.076-0.5-20.058-0.267-30.071-1.248c-14.737-1.444-29.435-1.143-44.235-1.143c-16.585,0-33.154-0.034-49.712,0.001
	C61.519,384.31,42.377,382.571,23.849,383.352z"/>
<path style="fill:#5B7499;" d="M192.598,384.259c-0.213-6.251,13.635-21.824,16.638-25.387c4.467-5.302,9.656-4.062,16.555-4.345
	c10.836-0.445,21.7,1.468,32.608,0.943c10.949-0.527,22.555-2.079,33.549-0.962c5.637,0.572,8.331,1.329,11.061,6.074
	c2.366,4.111,20.789,21.053,13.605,25.959c-1.553,1.06-7.951,0.013-10.062,0.013c-13.094,0.001-26.242-0.445-39.381,0.102
	c-18.56,0.771-37.074,1.429-55.716,1.269c-4.07-0.034-15.734,1.727-18.426-2.202C192.755,385.325,192.617,384.831,192.598,384.259z"
	/>
<path style="fill:#3A4351;" d="M2.805,398.906c2.821-0.97,6.098-0.382,9.077-0.447c12.559-0.277,25.004-0.51,37.589-0.102
	c39.138,1.271,78.492-2.783,117.694-1.648c18.9,0.547,39.448-0.825,57.991,2.816c17.776,3.49,35.559,2.353,53.624,2.983
	c31.975,1.116,63.798,1.428,95.805,1.428c28.58,0,57.774,1.395,86.253-1.261c7.875-0.735,15.272-1.987,22.847-4.151
	c4.21-1.202,9.217-3.411,13.617-3.634c3.731-0.189,7.678,1.007,10.184,3.875c3.232,3.698,1.103,8.471-1.818,12.385
	c-3.994,5.353-12.416,4.667-19.346,5.046c-25.524,1.398-51.698,0.874-77.254,0.559c-29.355-0.361-58.772,2.05-88.144,1.006
	c-13.286-0.472-26.59,0.222-39.867-0.447c-11.342-0.572-22.72-1.104-34.07-0.437c-10.733,0.63-21.429-0.739-32.251-0.603
	c-22.796,0.288-45.648,0.785-68.44,0.938c-36.384,0.243-72.759-4.586-109.187-4.586c-9.389,0-20.195,0.998-29.27-0.468
	C0.021,410.899,3.636,404.959,2.805,398.906z"/>
<path style="fill:#7B9AC6;" d="M445.074,367.909c-6.336-8.408-12.183-17.177-18.793-25.377
	c-13.273-16.468-24.08-34.656-37.131-51.268c-10.65-13.556-23.054-25.696-32.96-39.885c-10.656-15.267-22.222-29.718-34.781-43.474
	c-13.734-15.043-27.877-29.746-41.572-44.9c-6.194-6.854-12.137-13.844-18.107-20.875c-0.934-1.1-3.876-4.98-6.781-7.732
	c-0.03-5.062,0.039-10.133,0.322-15.228c0.464-8.367,1.221-17.025,0.971-25.395c-8.748,0.444-12.19,11.13-17.842,17.63
	c-7.969,9.164-15.182,18.967-23.145,28.16c-9.302,10.737-19.411,20.673-28.301,31.752c-9.689,12.074-18.584,24.784-28.134,37.006
	c-20.21,25.863-40.767,51.553-60.977,77.476c-17.808,22.843-33.722,46.453-49.752,70.524c-4.084,6.133-13.131,15.172-13.965,22.627
	c-0.632,5.646,2.413,4.166,6.901,4.402c16.987,0.896,33.976,0.43,51.052,0.464c27.36,0.054,54.749,2.561,82.11,3.214
	c5.839,0.139,14.2,1.851,18.697-2.743c5.007-5.113,8.245-13.555,12.478-19.485c7.36-10.313,13.668-11.474,25.594-10.283
	c5.73,0.572,11.306-0.697,16.995-1.049c5.76-0.356,20.085,6.198,23.382-0.978c1.49-3.243-1.213-6.72-3.051-9.095
	c-1.315-1.699-9.034-7.482-9.077-9.138c-0.1-3.752-0.171-7.504-0.217-11.221c-0.079-6.371-0.264-12.734-0.491-19.094
	c15.35,16.812,27.552,36.446,41.749,53.432c4.385,5.247,8.02,11.186,12.607,16.281c2.135,2.371,7.683,11.526,11.36,11.099
	c7.438-0.864-10.512-22.695-12.286-25.205c-9.827-13.9-19.678-27.734-29.953-41.312c-7.094-9.374-14.413-21.934-24.055-28.971
	c-0.497-11.775-1.015-23.545-1.218-35.33c-0.036-2.076-0.052-4.153-0.081-6.229c6.977,7.32,12.669,16.389,19.622,23.676
	c7.018,7.355,14.072,14.497,20.59,22.288c14.698,17.569,29.238,35.071,43.83,52.755c6.513,7.894,12.509,16.205,19.146,23.958
	c1.913,2.235,9.456,13.257,13.091,12.886c4.283-0.438,0.299-5.837-1.203-7.895c-7.255-9.934-14.866-19.68-22.178-29.597
	c-14.436-19.58-30.698-37.602-46.974-55.659c-13.576-15.061-23.916-32.644-37.962-47.325c-1.799-1.881-4.916-5.724-8.122-7.614
	c-0.139-13.625-0.217-27.259-0.332-40.893c4.175,3.138,8.47,9.699,11.085,12.581c4.905,5.404,9.511,11.013,14.309,16.472
	c12.505,14.23,26.153,27.486,38.487,41.852c4.92,5.732,9.529,11.342,14.445,16.896c5.122,5.787,7.886,13.278,12.644,19.338
	c8.261,10.526,17.014,20.487,25.49,30.858c9.641,11.794,19.127,23.717,29.032,35.295c2.395,2.8,12.611,18.824,17.791,14.898
	c4.299-3.258-46.677-64.794-52.191-71.852c-25.754-32.973-50.88-66.402-78.72-97.681c-8.788-9.874-18.096-20.914-28.851-28.799
	c-0.69-0.505-2.137-1.642-3.661-2.568c-0.053-4.514-0.097-9.03-0.175-13.543c-0.132-7.662-0.454-15.276-0.669-22.89
	c8.971,11.648,19.848,21.328,28.859,32.898c8.653,11.11,18.897,21.288,28.16,31.904c10.452,11.979,19.531,25.345,30.001,37.334
	c11.571,13.249,24.936,25.682,35.412,39.669c18.158,24.242,35.92,48.749,54.201,72.934c2.113,2.795,18.968,27.308,22.137,23.05
	C455.67,380.571,446.619,369.959,445.074,367.909z"/>
<path d="M511.871,393.336c0.157-3.076,0.546-7.301-1.641-9.803c-3.48-3.982-10.281-4.198-15.862-3.127
	c-3.078-0.015-6.163,0.202-9.026,0.407c0.154-0.786,0.072-1.652-0.369-2.541c-4.543-9.163-10.494-18.206-16.213-26.697
	c-3.606-5.352-6.956-10.757-10.757-15.965c-3.655-5.008-7.733-9.71-11.341-14.701c-15.663-21.669-33.365-41.886-49.767-62.956
	c-13.893-17.847-27.634-35.703-42.199-53.007c-16.829-19.994-33.346-40.227-49.782-60.589c-8.09-10.023-16.716-19.589-24.914-29.524
	c-3.953-4.79-8.337-9.358-12.561-14.032c-1.504-2.152-3.148-4.216-4.88-6.336c-3.209-3.927-6.05-6.877-10.623-2.766
	c-4.171,3.749-8.104,8.638-11.252,13.346c-2.971,3.229-5.933,6.454-8.684,9.788c-8.198,9.934-16.824,19.502-24.914,29.523
	c-16.437,20.363-32.954,40.596-49.782,60.589c-14.566,17.304-28.306,35.16-42.199,53.007C98.703,279.024,81,299.241,65.338,320.911
	c-3.608,4.991-7.686,9.693-11.341,14.701c-3.802,5.209-7.152,10.613-10.757,15.965c-5.72,8.491-11.671,17.534-16.213,26.697
	c-0.441,0.889-0.523,1.755-0.369,2.541c-2.862-0.205-5.946-0.422-9.024-0.407c-5.58-1.072-12.382-0.855-15.862,3.127
	c-2.187,2.502-1.798,6.728-1.641,9.803c0.236,4.627-0.202,9.209-0.036,13.857c0.103,2.894,0.904,6.8,2.826,9.06
	c2.747,3.229,8.966,1.763,12.624,1.643c11.067-0.36,22.224-0.276,33.333,0.23c43.72,1.993,87.969,5.748,131.749,2.692
	c3.954-0.276,7.908-0.471,11.862-0.637c6.799,1.611,14.977,0.928,21.495,0.758c7.604-0.199,15.02,0.56,22.61,0.872
	c20.449,0.84,41.428,0.852,61.667-2.479c11.034,0.544,22.072,0.717,33.112,1.488c43.78,3.055,88.028-0.699,131.749-2.692
	c11.109-0.507,22.266-0.59,33.333-0.23c3.658,0.119,9.877,1.585,12.624-1.643c1.922-2.26,2.723-6.166,2.826-9.06
	C512.073,402.546,511.636,397.963,511.871,393.336z M463.873,359.124c4.642,7.32,9.879,14.759,13.772,22.057
	c-6.12,0.15-12.262,0.027-18.374,0.1c-2.584,0.03-5.171-0.014-7.757-0.082c-2.057-3.073-4.576-5.666-6.869-8.612
	c1.248-0.871,2.492-1.747,3.71-2.651c2.524-1.874,5.016-3.871,7.349-5.988c2.321-2.105,5.212-3.905,7.131-6.403
	C463.176,358.073,463.533,358.589,463.873,359.124z M77.071,373.616c-1.158-0.809-2.306-1.632-3.455-2.452
	c5.155-6.174,10.211-12.436,15.189-18.764c2.164,1.87,4.346,3.721,6.604,5.496c4.152,3.263,8.044,6.806,12.015,10.283
	c-3.418,3.866-6.747,7.89-9.307,12.144c-0.687-0.025-1.372-0.042-2.06-0.069c-3.508-0.134-7.015-0.127-10.522-0.053
	C83.39,377.432,79.902,375.596,77.071,373.616z M78.057,380.453c-4.283,0.186-8.566,0.416-12.845,0.59
	c1.797-2.06,3.574-4.139,5.342-6.224c0.933,0.656,1.862,1.316,2.779,1.992C74.854,377.934,76.415,379.261,78.057,380.453z
	 M393.935,319.406c-5.741,5.144-11.42,10.372-17.171,15.512c-6.558-8.725-13.211-17.377-19.905-25.996
	c5.654-5.122,11.417-10.161,17.212-15.005c0.839-0.701,1.656-1.43,2.477-2.155c1.771,2.306,3.546,4.607,5.337,6.9
	c4.824,6.174,9.594,12.404,14.354,18.648C395.47,318.018,394.702,318.719,393.935,319.406z M397.51,322.98
	c0.597-0.55,1.201-1.095,1.802-1.64c6.893,9.054,13.784,18.12,20.786,27.095c-3.493,2.865-6.99,5.725-10.511,8.573
	c-2.913,2.358-5.428,5.053-8.358,7.424c-1.327-1.469-2.638-2.919-3.886-4.348c-5.96-6.83-11.861-13.86-17.428-21.071
	C385.834,333.731,391.68,328.346,397.51,322.98z M167.376,313.731c-1.922-1.759-3.857-3.523-5.8-5.284
	c0.934-1.246,1.865-2.494,2.803-3.736c6.348-8.393,13.204-16.388,19.913-24.48c2.904,2.746,5.807,5.492,8.718,8.236
	c4.36,4.111,8.701,8.226,13.06,12.324c-7.431,9.141-14.693,18.433-21.994,27.678C178.477,323.62,172.883,318.773,167.376,313.731z
	 M181.028,332.313c-3.231,4.072-6.471,8.134-9.751,12.156c-3.651,4.479-7.257,9-10.86,13.523
	c-5.67-5.413-11.227-10.949-17.165-16.035c-1.43-1.225-2.841-2.473-4.257-3.717c6.759-8.544,13.239-17.305,19.759-26.032
	c1.966,1.812,3.921,3.63,5.846,5.454C169.953,322.736,175.482,327.542,181.028,332.313z M245.041,292.028
	c1.79,1.783,3.388,3.766,5.241,5.488c4.161,3.867,0.21,6.784-2.283,9.97c-3.741,4.782-7.641,9.443-11.428,14.189
	c-3.907-3.53-7.748-7.121-11.665-10.65c-3.974-3.578-7.897-7.192-11.806-10.816c6.151-7.413,12.502-14.668,18.956-21.823
	c0.711,0.736,1.421,1.472,2.151,2.184C237.955,284.232,241.313,288.313,245.041,292.028z M235.82,274.235
	c6.19-6.784,12.463-13.479,18.744-20.134c0.313-0.278,0.626-0.557,0.94-0.836c0.345,0.328,0.687,0.659,1.037,0.982
	c1.506,1.391,3.262,3.284,5.226,4.459c4.83,5.141,9.649,10.303,14.416,15.526c-1.281,1.383-2.572,2.758-3.888,4.104
	c-3.625,3.712-7.012,7.672-10.661,11.376c-1.611,1.634-3.971,3.298-5.633,5.25c-1.662-1.952-4.022-3.616-5.633-5.25
	c-3.649-3.703-7.037-7.664-10.661-11.376C238.392,276.991,237.101,275.618,235.82,274.235z M254.023,307.862
	c0.636-0.808,1.309-1.6,1.978-2.394c0.669,0.794,1.342,1.586,1.978,2.394c4.532,5.747,9.047,11.511,13.566,17.273
	c-3.288,2.878-6.219,6.574-10.157,8.604c-0.652,0.336-6.375,4.541-6.324,4.581c-0.866-0.692-1.756-1.372-2.69-2.035
	c-1.304-0.926-12.401-10.244-11.829-11.164C244.319,319.047,249.587,313.491,254.023,307.862z M261.07,304.087
	c-0.823-0.991-1.527-2.065-1.599-3.12c-0.144-2.113,1.845-3.028,3.159-4.357c1.477-1.496,2.842-3.099,4.331-4.582
	c3.728-3.713,7.086-7.796,10.834-11.456c0.729-0.713,1.439-1.449,2.151-2.184c6.454,7.155,12.805,14.41,18.956,21.823
	c-3.909,3.624-7.832,7.236-11.806,10.816c-3.917,3.528-7.757,7.118-11.665,10.65c0.132-0.119-11.152-13.841-12.166-15.109
	C262.708,305.865,261.837,305.012,261.07,304.087z M287.456,279.042c-1.329-1.478-2.673-2.937-4.01-4.404
	c5.484-6.113,10.596-12.694,16.106-18.708c1.401-1.529,2.814-3.042,4.226-4.558c4.677,5.105,9.276,10.325,13.462,15.808
	c2.363,3.096,4.798,6.141,7.266,9.163c-2.801,2.621-5.598,5.242-8.412,7.858c-4.498,4.181-8.973,8.371-13.46,12.55
	C297.686,290.746,292.65,284.822,287.456,279.042z M295.802,252.179c-5.504,5.979-10.755,12.22-16.177,18.273
	c0.155-0.172-9.008-9.65-9.844-10.534c-1.673-1.772-3.35-3.54-5.03-5.305c-0.848-0.892-1.656-1.919-2.589-2.719
	c-0.689-0.59-1.272-0.986-0.999-2.061c0.182-0.719,0.683-1.308,1.176-1.86c3.802-4.254,8.182-7.884,12.248-11.852
	c2.567-2.505,5.043-5.093,7.502-7.696c0.282,0.275,0.552,0.558,0.84,0.83c5.869,5.53,11.141,11.652,16.633,17.557
	c0.194,0.209,0.389,0.419,0.583,0.628C298.697,249.024,297.251,250.605,295.802,252.179z M273.809,229.73
	c-1.419,1.394-2.815,2.808-4.2,4.235c-1.137,1.169-2.096,2.609-3.311,3.654c-3.045,2.62-6.215,5.109-9.319,7.661
	c-2.448,2.013-4.181-1.914-5.818-3.21c-1.407-1.114-2.808-2.233-4.205-3.358c-2.895-3.027-5.765-6.038-8.762-8.981
	c-1.63-1.601-3.231-3.233-4.82-4.878c2.253-2.47,4.369-5.031,6.475-7.609c2.721-2.478,5.447-4.918,8.049-7.553
	c2.251-2.28,4.692-5.964,7.39-7.648c0.509-0.317,1.115-0.544,1.703-0.423c0.468,0.097,0.862,0.401,1.238,0.698
	c7.96,6.302,13.579,15.06,20.401,22.535C277.04,226.497,275.439,228.129,273.809,229.73z M237.417,236.122
	c1.976,1.929,3.631,4.145,5.481,6.188c0.729,0.805,1.576,1.162,2.398,1.828c1.625,1.319,3.917,3.138,4.871,5.029
	c0.879,1.746,0.073,2.764-1.312,3.821c-3.907,2.976-6.635,6.952-9.956,10.491c-2.176,2.32-4.359,4.634-6.519,6.974
	c-5.423-6.054-10.675-12.294-16.177-18.273c-1.449-1.574-2.895-3.156-4.344-4.739c0.194-0.209,0.389-0.419,0.582-0.628
	c5.493-5.904,10.764-12.027,16.634-17.557c0.288-0.272,0.557-0.555,0.84-0.83C232.374,231.028,234.85,233.617,237.417,236.122z
	 M212.451,255.93c5.51,6.014,10.622,12.594,16.106,18.708c-1.337,1.467-2.681,2.926-4.009,4.404
	c-5.194,5.779-10.23,11.704-15.177,17.708c-4.488-4.179-8.963-8.37-13.46-12.55c-2.814-2.614-5.611-5.237-8.412-7.858
	c2.468-3.022,4.902-6.067,7.266-9.163c4.186-5.483,8.785-10.703,13.462-15.808C209.637,252.888,211.05,254.401,212.451,255.93z
	 M199.36,317.517c3.387-4.482,6.885-8.883,10.433-13.245c3.765,3.516,7.546,7.019,11.383,10.482
	c4.022,3.629,7.902,7.569,11.947,11.294c-1.219,1.56-2.442,3.115-3.64,4.696c-5.4,7.123-10.946,14.181-16.422,21.227
	c-2.057-2.135-4.914-4.021-6.714-5.379c-4.222-3.188-8.647-6.216-12.593-9.693c-1.919-1.689-3.842-3.363-5.766-5.034
	C191.848,327.144,195.675,322.394,199.36,317.517z M232.591,335.151c1.48-1.883,2.96-3.767,4.439-5.651
	c1.026,0.868,2.069,1.71,3.13,2.524c2.744,3.378,6.014,6.414,9.387,9.011c0.305,0.235,0.593,0.484,0.893,0.723
	c-4.026,2.863-8.436,5.99-11.514,9.636c-6.553,0.083-13.133,0.581-19.692,0.901C223.809,346.689,228.142,340.81,232.591,335.151z
	 M254.989,345.624c1.533,1.368,3.054,2.753,4.633,4.111c0.747,0.643,1.503,1.394,2.286,2.104c-1.971,0.206-3.94,0.455-5.907,0.691
	c-2.92-0.35-5.84-0.732-8.775-0.948C249.968,349.738,252.556,347.546,254.989,345.624z M259.586,342.196
	c0.738,0.599,15.216-12.917,15.388-12.696c1.478,1.884,2.959,3.768,4.439,5.651c4.449,5.661,8.783,11.539,13.358,17.142
	c-7.8-0.38-15.63-1.013-23.411-0.894c-1.263-3.042-4.87-4.749-7.235-6.902C261.262,343.715,260.422,342.949,259.586,342.196z
	 M282.52,330.742c-1.198-1.58-2.421-3.136-3.64-4.696c4.045-3.724,7.925-7.664,11.947-11.294c3.837-3.464,7.619-6.966,11.383-10.482
	c3.548,4.362,7.046,8.763,10.433,13.245c3.685,4.878,7.512,9.627,11.373,14.347c-1.924,1.671-3.847,3.344-5.766,5.034
	c-3.946,3.476-8.371,6.505-12.593,9.693c-1.799,1.359-4.657,3.243-6.714,5.379C293.466,344.923,287.92,337.866,282.52,330.742z
	 M305.932,300.792c4.36-4.098,8.7-8.213,13.061-12.324c2.91-2.744,5.814-5.49,8.718-8.236c6.709,8.09,13.565,16.085,19.913,24.48
	c0.94,1.241,1.869,2.49,2.803,3.736c-1.944,1.76-3.878,3.524-5.8,5.284c-5.507,5.042-11.102,9.889-16.701,14.738
	C320.626,319.226,313.365,309.933,305.932,300.792z M347.403,317.661c1.925-1.825,3.881-3.642,5.846-5.454
	c6.521,8.729,13.001,17.488,19.76,26.032c-1.415,1.243-2.827,2.493-4.257,3.717c-5.938,5.086-11.495,10.621-17.165,16.035
	c-3.603-4.523-7.209-9.044-10.86-13.523c-3.28-4.022-6.52-8.083-9.751-12.156C336.522,327.542,342.049,322.736,347.403,317.661z
	 M372.408,289.516c-6.268,5.008-12.397,10.327-18.421,15.726c-7.457-9.556-14.993-19.047-22.599-28.481
	c4.482-4.237,8.961-8.471,13.441-12.687c1.964-1.849,4.006-3.648,6.079-5.43c7.875,9.73,15.39,19.715,22.985,29.656
	C373.398,288.703,372.908,289.116,372.408,289.516z M341.939,260.157c-4.592,4.198-9.149,8.443-13.702,12.701
	c-4.165-5.141-8.344-10.27-12.555-15.371c-2.746-3.326-5.59-6.571-8.49-9.765c5.593-5.945,11.244-11.822,16.903-17.707
	c0.469-0.488,0.959-0.959,1.44-1.438c6.271,7.807,12.985,15.212,19.442,22.866c0.948,1.123,1.883,2.256,2.818,3.388
	C345.829,256.605,343.876,258.385,341.939,260.157z M321.162,225.72c-6.153,5.697-11.935,11.837-17.633,18.032
	c-5.946-6.371-12.068-12.586-18.09-18.865c2.368-2.516,4.74-5.028,7.179-7.478c4.161-4.18,8.352-8.355,12.415-12.644
	c5.618,6.732,11.729,13.075,17.313,19.887C321.955,225.011,321.551,225.359,321.162,225.72z M291.496,211.416
	c-3.202,3.245-6.329,6.575-9.473,9.887c-0.338-0.356-0.681-0.711-1.018-1.068c-6.785-7.211-12.708-15.253-18.985-22.972
	c2.59-2.108,4.725-4.945,6.927-7.301c3.825-4.089,7.369-8.402,11.487-12.201c0.284-0.262,0.563-0.531,0.846-0.794
	c0.279,0.313,0.559,0.625,0.837,0.939c6.563,7.447,13.303,15.179,19.7,22.97C298.393,204.404,294.951,207.914,291.496,211.416z
	 M265.206,186.221c-0.346,0.362-0.717,0.731-1.092,1.103c-2.63,1.478-6.817,7.29-9.5,6.425c-3.127-1.007-5.651-5.263-7.816-7.528
	c-4.22-4.416-8.082-9.005-12.607-13.118c2.215-2.446,4.447-4.887,6.652-7.35c4.348-3.952,8.348-8.621,12.573-12.075
	c0.85-0.696,1.732-1.399,2.63-2.113c1.062-0.845,9.655,8.163,10.58,9.242c3.571,4.17,7.477,8.2,11.187,12.298
	C273.289,177.216,269.426,181.805,265.206,186.221z M245.647,193.939c1.412,1.193,2.813,2.341,4.205,3.485
	c-3.931,4.84-7.727,9.803-11.686,14.606c-2.299,2.201-4.519,4.519-6.153,7.094c-0.339,0.369-0.673,0.746-1.017,1.111
	c-0.337,0.358-0.68,0.711-1.018,1.068c-3.144-3.312-6.27-6.642-9.473-9.887c-3.455-3.501-6.896-7.012-10.321-10.541
	c6.396-7.792,13.138-15.523,19.699-22.97c0.171-0.194,0.344-0.386,0.516-0.579c1.041,1.497,2.056,3.01,3.169,4.458
	C236.969,186.206,241.41,190.359,245.647,193.939z M219.385,217.409c2.439,2.45,4.812,4.963,7.179,7.478
	c-6.022,6.279-12.144,12.494-18.09,18.865c-5.697-6.195-11.48-12.334-17.633-18.032c-0.39-0.361-0.793-0.709-1.185-1.068
	c5.585-6.811,11.695-13.155,17.313-19.887C211.034,209.054,215.223,213.229,219.385,217.409z M204.813,247.722
	c-2.902,3.194-5.744,6.439-8.49,9.765c-4.213,5.101-8.392,10.23-12.556,15.371c-4.553-4.257-9.109-8.503-13.702-12.701
	c-1.937-1.772-3.89-3.552-5.854-5.327c0.935-1.132,1.87-2.265,2.818-3.388c6.458-7.654,13.172-15.059,19.442-22.866
	c0.48,0.479,0.971,0.95,1.439,1.438C193.569,235.899,199.22,241.777,204.813,247.722z M167.173,264.072
	c4.48,4.218,8.96,8.45,13.441,12.687c-7.606,9.435-15.143,18.926-22.6,28.481c-6.024-5.397-12.153-10.717-18.421-15.726
	c-0.5-0.399-0.989-0.813-1.485-1.218c7.595-9.941,15.11-19.926,22.985-29.656C163.167,260.424,165.21,262.222,167.173,264.072z
	 M155.143,308.924c-6.694,8.619-13.347,17.271-19.905,25.996c-5.75-5.14-11.43-10.37-17.17-15.512
	c-0.766-0.687-1.533-1.388-2.303-2.094c4.761-6.244,9.53-12.474,14.354-18.648c1.791-2.292,3.567-4.594,5.337-6.9
	c0.821,0.724,1.638,1.453,2.477,2.155C143.726,298.762,149.49,303.802,155.143,308.924z M132.091,339.012
	c-5.567,7.211-11.468,14.241-17.428,21.071c-1.248,1.429-2.558,2.88-3.886,4.348c-2.931-2.371-5.445-5.067-8.36-7.424
	c-3.521-2.848-7.019-5.708-10.511-8.573c7-8.975,13.893-18.041,20.786-27.095c0.602,0.546,1.205,1.09,1.802,1.64
	C120.324,328.346,126.17,333.731,132.091,339.012z M111.492,371.646c0.551,0.46,1.089,0.933,1.648,1.384
	c2.925,2.362,5.902,4.524,8.678,7.079c0.295,0.272,0.672,0.567,1.092,0.877c-6.614-0.112-13.225-0.279-19.844-0.496
	C105.969,377.66,108.765,374.692,111.492,371.646z M120.649,372.289c-1.898-1.524-3.815-3.035-5.729-4.549
	c6.456-7.509,12.566-15.375,18.754-22.888c0.707-0.858,1.399-1.726,2.099-2.589c1.273,1.119,2.542,2.244,3.825,3.349
	c6.049,5.214,11.815,10.834,17.616,16.393c-0.928,1.162-1.854,2.329-2.786,3.489c-2.951,3.674-5.748,7.325-8.403,11.211
	c-1.009,1.477-2.329,2.895-3.305,4.457c-3.847-0.002-7.689-0.029-11.529-0.068c-0.462-0.319-0.964-0.637-1.515-1.001
	C126.359,377.905,123.745,374.775,120.649,372.289z M149.46,379.523c3.006-4.151,6.175-8.157,9.451-12.099
	c0.588-0.708,1.174-1.417,1.763-2.124c1.304,1.234,2.613,2.464,3.931,3.678c4.293,3.953,9.054,7.285,13.28,11.327
	c0.88,0.841,1.814,1.752,2.791,2.677c-10.866-0.705-21.691-1.676-32.628-1.787C148.555,380.653,149.042,380.102,149.46,379.523z
	 M169.89,366.659c-2.015-1.731-3.98-3.516-5.925-5.325c3.25-3.92,6.488-7.848,9.655-11.841c3.702-4.668,7.49-9.256,11.27-13.852
	c1.333,1.145,2.667,2.289,3.995,3.438c3.919,3.389,7.813,6.635,11.988,9.709c2.52,1.855,4.948,4.359,7.547,6.444
	c-3.406,2.881-5.827,7.446-8.518,10.867c-3.755,4.773-8.428,10.277-11.33,16.052c-1.601-1.375-3.37-2.61-4.914-3.924
	C179.099,374.346,174.428,370.555,169.89,366.659z M205.688,370.642c2.586-3.215,4.812-6.199,6.697-9.87
	c0.595-1.159,1.264-1.982,2-2.575c0.277-0.1,0.515-0.272,0.706-0.492c2.351-1.364,5.322-0.766,8.84-0.463
	c21.383,1.837,42.809,1.833,64.145,0c3.517-0.303,6.489-0.901,8.84,0.463c0.191,0.22,0.429,0.392,0.706,0.492
	c0.736,0.594,1.405,1.418,2,2.575c1.884,3.671,4.111,6.655,6.697,9.87c3.255,4.047,6.377,9.007,10.121,13.063
	c-13.896,0.441-27.795,0.563-41.647,1.735c-0.555-0.027-1.114-0.055-1.669-0.082c-7.516-0.379-15.072,0.391-22.621,0.421
	c-5.626,0.023-11.197-0.295-16.753-0.601c-12.703-0.923-25.443-1.068-38.181-1.473C199.311,379.649,202.433,374.689,205.688,370.642
	z M312.101,366.1c-2.691-3.422-5.113-7.986-8.518-10.867c2.6-2.086,5.027-4.589,7.547-6.444c4.175-3.074,8.07-6.32,11.988-9.709
	c1.328-1.15,2.662-2.293,3.995-3.438c3.78,4.596,7.568,9.184,11.27,13.852c3.167,3.993,6.404,7.923,9.655,11.841
	c-1.945,1.809-3.91,3.595-5.925,5.325c-4.537,3.897-9.209,7.687-13.768,11.569c-1.545,1.315-3.312,2.549-4.914,3.924
	C320.529,376.378,315.854,370.874,312.101,366.1z M334.119,380.306c4.227-4.042,8.987-7.374,13.28-11.327
	c1.318-1.214,2.626-2.443,3.931-3.678c0.588,0.707,1.174,1.415,1.763,2.124c3.276,3.941,6.444,7.947,9.451,12.099
	c0.419,0.579,0.907,1.13,1.413,1.673c-10.937,0.111-21.762,1.081-32.628,1.787C332.305,382.058,333.239,381.147,334.119,380.306z
	 M357.577,365.493c-0.932-1.16-1.857-2.327-2.786-3.489c5.799-5.559,11.566-11.18,17.616-16.393
	c1.282-1.105,2.551-2.229,3.825-3.349c0.699,0.863,1.392,1.732,2.098,2.589c6.188,7.513,12.298,15.378,18.754,22.888
	c-1.913,1.515-3.831,3.025-5.729,4.549c-3.096,2.487-5.71,5.616-9.027,7.805c-0.55,0.363-1.052,0.682-1.515,1.001
	c-3.839,0.039-7.68,0.065-11.529,0.068c-0.978-1.563-2.297-2.98-3.305-4.457C363.324,372.817,360.528,369.167,357.577,365.493z
	 M390.185,380.11c2.776-2.556,5.753-4.717,8.678-7.079c0.559-0.452,1.097-0.925,1.648-1.384c2.727,3.046,5.523,6.014,8.425,8.844
	c-6.619,0.218-13.229,0.384-19.844,0.496C389.513,380.677,389.891,380.382,390.185,380.11z M404.58,368.179
	c3.97-3.477,7.862-7.02,12.015-10.283c2.258-1.774,4.44-3.625,6.604-5.496c4.979,6.328,10.034,12.59,15.189,18.764
	c-1.15,0.819-2.298,1.642-3.456,2.452c-2.831,1.979-6.318,3.816-8.463,6.587c-3.507-0.076-7.014-0.083-10.522,0.053
	c-0.688,0.026-1.373,0.044-2.06,0.069C411.327,376.069,407.997,372.045,404.58,368.179z M438.671,376.81
	c0.917-0.676,1.846-1.337,2.779-1.992c1.768,2.086,3.545,4.165,5.342,6.224c-4.28-0.173-8.563-0.405-12.845-0.59
	C435.589,379.261,437.15,377.934,438.671,376.81z M461.459,355.448c-4.236,0.93-14.794,9.974-16.918,11.408
	c-0.93,0.627-1.84,1.278-2.755,1.921c-2.11-2.774-4.344-5.436-6.63-8.081c-3.074-3.555-5.957-7.282-8.788-11.052
	c1.956-1.717,3.91-3.438,5.894-5.135c3.857-3.297,9.869-7.354,12.543-12.162C450.646,339.906,456.22,347.494,461.459,355.448z
	 M421.558,302.244c6.831,9.231,14.082,18.324,21.132,27.376c-1.601,1.994-4.487,3.755-6.409,5.506
	c-3.179,2.897-6.669,5.487-9.993,8.224c-0.955,0.786-1.909,1.568-2.864,2.353c-2.315-3.12-4.622-6.238-6.996-9.287
	c-4.655-5.979-9.219-12.036-13.742-18.129c2.319-2.092,4.631-4.19,6.879-6.357c3.701-3.568,7.988-6.52,11.678-10.097
	C421.344,301.97,421.454,302.105,421.558,302.244z M397.142,271.831c6.657,9.224,14.535,17.714,21.582,26.711
	c-6.854,4.266-13.072,10.027-19.087,15.622c-6.379-8.646-12.7-17.345-19.095-25.989c2.626-2.405,5.247-4.816,7.994-7.069
	C391.753,278.467,394.121,274.669,397.142,271.831z M395.46,269.477c0.123,0.179,0.254,0.352,0.378,0.53
	c-3.467,2.238-6.401,5.803-9.56,8.173c-2.816,2.113-5.518,4.384-8.218,6.657c-7.479-10.054-15.096-20.003-23.058-29.681
	c5.97-5.053,11.97-10.138,16.992-15.989C380.125,249.043,388.227,258.951,395.46,269.477z M352.96,215.351
	c5.421,7.235,11.164,14.251,16.929,21.256c-6.285,4.487-12.286,9.495-18.114,14.659c-2.622-3.123-5.279-6.219-7.991-9.271
	c-4.958-5.581-9.74-11.307-14.492-17.061c2.395-2.249,4.825-4.47,7.168-6.755c3.461-3.375,6.694-7.038,10.144-10.428
	C348.794,210.23,350.982,212.711,352.96,215.351z M328.172,185.002c4.396,5.296,8.573,10.748,12.811,16.143
	c1.044,1.328,2.136,2.621,3.245,3.9c-3.593,2.088-6.912,6.113-9.576,8.548c-2.796,2.557-5.635,5.07-8.462,7.592
	c-1.605-1.948-3.209-3.897-4.818-5.843c-4.11-4.966-8.372-9.775-12.627-14.598c0.618-0.682,1.248-1.351,1.855-2.042
	c3.278-3.727,6.745-7.254,10.065-10.937c1.593-1.768,3.017-4.183,4.712-6.101C326.314,182.774,327.246,183.885,328.172,185.002z
	 M304.571,156.547c5.923,7.756,12.353,15.154,18.679,22.605c-0.97,0.782-1.853,1.719-2.745,2.61
	c-3.491,3.489-7.066,6.92-10.448,10.514c-1.508,1.603-3.043,3.176-4.565,4.763c-1.438-1.642-2.876-3.287-4.297-4.951
	c-5.352-6.266-10.868-12.357-16.336-18.498c3.481-3.329,6.917-6.706,10.419-10.009c2.768-2.611,5.602-5.663,7.813-8.937
	C303.582,155.281,304.084,155.91,304.571,156.547z M281.707,128.163c6.467,7.679,12.829,15.495,18.999,23.413
	c-2.723,1.763-5.014,5.195-6.993,7.172c-3.829,3.825-8.065,7.451-12.199,11.069c-4.374-4.951-8.91-10.072-13.763-14.646
	c-2.264-2.133-6.226-7.393-3.097-10.221c1.367-1.236,3.195-1.731,4.576-3.122c1.666-1.68,3.094-3.577,4.653-5.355
	C275.878,134.199,279.533,131.292,281.707,128.163z M235.997,121.456c3.749-4.362,7.54-8.692,11.097-13.213
	c2.049-2.606,3.452-5.667,5.579-8.22c0.771-0.925,2.328-3.015,3.712-2.804c1.441,0.219,2.799,3.164,3.516,4.216
	c4.835,7.082,10.523,13.527,16.104,20.021c0.857,0.998,1.707,2.01,2.562,3.013c-3.08,2.756-5.874,5.926-8.673,8.924
	c-0.988,1.058-1.985,2.089-2.994,3.107c-3.598,2.46-7.019,5.132-10.418,7.892c-2.63-2.054-5.247-4.047-7.514-6.122
	c-2.7-2.473-5.781-4.459-8.611-6.768c-2.225-2.41-4.484-4.85-6.921-7.034C234.291,123.465,235.14,122.453,235.997,121.456z
	 M230.295,128.163c2.175,3.128,5.829,6.034,7.826,8.312c1.309,1.493,2.468,3.288,3.953,4.607c1.426,1.266,3.067,2.163,4.508,3.478
	c0.88,0.805,1.773,1.623,2.398,2.638c2.205,3.584-3.066,5.947-5.394,8.13c-3.196,2.999-5.82,6.349-8.734,9.585
	c-1.475,1.637-2.928,3.279-4.363,4.903c-4.134-3.618-8.37-7.246-12.199-11.069c-1.979-1.977-4.27-5.41-6.993-7.172
	C217.466,143.658,223.828,135.842,230.295,128.163z M207.433,156.547c0.486-0.637,0.989-1.266,1.478-1.901
	c2.211,3.274,5.044,6.326,7.813,8.937c3.502,3.303,6.938,6.679,10.419,10.009c-5.467,6.141-10.983,12.232-16.336,18.498
	c-1.421,1.663-2.857,3.308-4.297,4.951c-1.522-1.587-3.057-3.16-4.565-4.763c-3.382-3.595-6.956-7.026-10.448-10.514
	c-0.892-0.891-1.775-1.827-2.745-2.61C195.08,171.701,201.509,164.302,207.433,156.547z M171.019,201.144
	c4.239-5.395,8.416-10.848,12.812-16.143c0.926-1.115,1.859-2.227,2.794-3.337c1.695,1.917,3.117,4.332,4.712,6.101
	c3.32,3.684,6.787,7.211,10.065,10.937c0.607,0.69,1.238,1.36,1.856,2.042c-4.254,4.823-8.517,9.632-12.627,14.598
	c-1.609,1.945-3.214,3.894-4.818,5.843c-2.827-2.521-5.665-5.035-8.462-7.592c-2.664-2.434-5.983-6.459-9.576-8.548
	C168.883,203.766,169.975,202.473,171.019,201.144z M159.044,215.351c1.978-2.641,4.165-5.122,6.355-7.601
	c3.45,3.39,6.684,7.053,10.144,10.428c2.344,2.285,4.773,4.505,7.168,6.755c-4.753,5.753-9.534,11.479-14.492,17.061
	c-2.712,3.052-5.368,6.149-7.991,9.271c-5.829-5.163-11.829-10.173-18.114-14.659C147.88,229.602,153.623,222.587,159.044,215.351z
	 M116.544,269.477c7.233-10.526,15.335-20.434,23.464-30.311c5.022,5.851,11.022,10.936,16.992,15.989
	c-7.962,9.678-15.579,19.628-23.058,29.681c-2.699-2.273-5.402-4.543-8.218-6.657c-3.159-2.37-6.092-5.935-9.56-8.173
	C116.29,269.829,116.421,269.656,116.544,269.477z M114.862,271.831c3.021,2.837,5.389,6.636,8.606,9.274
	c2.747,2.254,5.368,4.665,7.994,7.069c-6.395,8.644-12.716,17.343-19.095,25.989c-6.014-5.595-12.232-11.356-19.087-15.622
	C100.327,289.546,108.204,281.056,114.862,271.831z M90.446,302.244c0.103-0.139,0.212-0.274,0.315-0.411
	c3.689,3.577,7.977,6.529,11.678,10.097c2.247,2.167,4.56,4.266,6.879,6.357c-4.522,6.093-9.085,12.15-13.742,18.129
	c-2.374,3.049-4.682,6.168-6.996,9.287c-0.954-0.785-1.908-1.566-2.863-2.353c-3.324-2.737-6.814-5.327-9.993-8.224
	c-1.922-1.751-4.808-3.512-6.409-5.506C76.364,320.568,83.615,311.475,90.446,302.244z M67.199,332.35
	c2.674,4.808,8.685,8.864,12.543,12.162c1.985,1.696,3.939,3.418,5.894,5.135c-2.831,3.77-5.714,7.497-8.788,11.052
	c-2.286,2.645-4.521,5.308-6.63,8.081c-0.916-0.643-1.827-1.294-2.755-1.921c-2.124-1.434-12.682-10.48-16.918-11.408
	C55.784,347.494,61.358,339.906,67.199,332.35z M48.13,359.124c0.339-0.535,0.697-1.051,1.04-1.583
	c1.917,2.498,4.81,4.298,7.131,6.403c2.332,2.117,4.825,4.114,7.349,5.988c1.218,0.904,2.462,1.78,3.709,2.651
	c-2.292,2.945-4.811,5.54-6.869,8.612c-2.587,0.069-5.172,0.112-7.757,0.083c-6.113-0.072-12.255,0.052-18.374-0.1
	C38.252,373.883,43.489,366.444,48.13,359.124z M504.093,409.909c-0.838,1.161-2.845,0.711-5.439,0.758
	c-2.778,0.049-5.529-0.398-8.286-0.344c-39.709,0.771-79.333,3.571-119.12,3.394c-18.89-0.084-37.667-1.478-56.51-2.438
	c-9.501-0.484-19.215-0.943-28.733-0.735c-8.761,0.191-16.793-0.101-25.26,2.1c-3.303-0.022-6.606-0.056-9.908-0.112
	c-8.313-2.085-16.222-1.799-24.838-1.988c-9.517-0.207-19.23,0.251-28.733,0.735c-18.844,0.96-37.62,2.354-56.51,2.438
	c-39.787,0.178-79.411-2.622-119.12-3.394c-2.758-0.054-5.507,0.393-8.286,0.344c-2.596-0.046-4.602,0.403-5.441-0.758
	c-2.345-3.248-0.383-9.768-0.486-13.454c-0.058-2.1-0.62-4.141-0.301-6.271c0.402-2.692,1.423-2.641,4.131-3.178
	c2.022-0.401,3.829-0.186,5.756-0.315c10.164,0.77,20.356,1.537,30.531,1.662c6.686,0.082,13.253,0.196,19.925,0.16
	c7.478-0.04,14.892-0.701,22.39-0.652c16.469,0.11,32.959,1.13,49.448,1.349c8.19,0.109,16.59,0.657,24.74,0.384
	c22.044-0.739,43.837,1.974,65.879,1.138c7.58,0.674,15.15,1.138,22.779,1.178c8.231,0.042,16.419-0.16,24.633-0.177
	c6.816-0.014,13.844,0.603,20.477-0.905c9.439-0.193,18.962-0.743,28.39-1.23c7.146-0.369,14.612-0.244,21.759-0.005
	c8.15,0.274,16.549-0.274,24.74-0.384c16.489-0.22,32.979-1.239,49.448-1.349c7.497-0.05,14.911,0.612,22.39,0.652
	c6.671,0.036,13.239-0.078,19.925-0.16c10.175-0.126,20.366-0.892,30.531-1.662c1.927,0.13,3.734-0.086,5.756,0.315
	c2.706,0.538,3.728,0.486,4.131,3.178c0.319,2.132-0.243,4.172-0.301,6.271C504.474,400.14,506.438,406.661,504.093,409.909z"/>
<g>
</g>
<g>
</g>
<g>
</g>
<g>
</g>
<g>
</g>
<g>
</g>
<g>
</g>
<g>
</g>
<g>
</g>
<g>
</g>
<g>
</g>
<g>
</g>
<g>
</g>
<g>
</g>
<g>
</g>
</svg>
