<?xml version="1.0" encoding="iso-8859-1"?>
<!-- Generator: Adobe Illustrator 19.0.0, SVG Export Plug-In . SVG Version: 6.00 Build 0)  -->
<svg version="1.1" id="Layer_1" xmlns="http://www.w3.org/2000/svg" xmlns:xlink="http://www.w3.org/1999/xlink" x="0px" y="0px"
	 viewBox="0 0 512.004 512.004" style="enable-background:new 0 0 512.004 512.004;" xml:space="preserve">
<path style="fill:#8CCBEA;" d="M482.383,484.899c-4.393-5.389-9.416-10.558-12.507-16.663
	c-15.153-29.937-29.753-60.154-44.954-91.096c15.682-26.048,3.612-47.185-13.764-66.407c2.618-9.326,5.2-17.511,7.204-25.837
	c7.301-30.358,14.314-60.786,21.659-91.133c1.796-7.422,3.252-14.526,11.321-19.305c21.774-12.893,28.198-34.498,28.679-58.023
	c0.399-19.502-8.441-34.766-25.887-44.058c-17.917-9.544-34.759-5.456-50.606,5.532c-4.338,3.007-8.477,6.302-12.477,9.293
	c-32.52-12.11-63.886-23.792-95.709-35.642c-0.577-5.862-0.576-11.331-1.721-16.547c-5.366-24.426-30.473-38.49-51.385-28.231
	c-5.975,2.931-10.892,8.579-15.438,13.736c-7.591,8.613-7.797,19.929-8.558,31.217c-32.782,12.12-64.773,23.948-96.054,35.513
	c-7.025-5.223-12.246-10.035-18.269-13.424c-25.944-14.597-58.968-2.788-67.176,24.718c-9.332,31.269,5.181,65.301,24.233,75.246
	c7.935,4.142,10.515,10.235,12.421,18.307c8.612,36.465,17.873,72.775,26.782,109.171c0.902,3.684,1.013,7.561,1.5,11.414
	c-19.899,19.192-25.388,41.121-13.196,66.245c-20.463,36.606-33.485,76.285-59.171,109.259c-0.917,1.177-1.402,2.815-1.709,4.317
	c-0.855,4.175,0.256,7.716,4.118,9.921c1.332,0.761,2.901,1.172,4.41,1.544c23.855,5.901,48.183,2.786,72.298,3.551
	c5.202,0.165,9.185-6.797,7.758-12.302c-0.757-2.925-1.897-6.055-3.786-8.325c-5.592-6.721-5.636-13.717-3.778-21.944
	c3.955-17.504,6.873-35.242,10.215-52.884c0.99-5.225,1.976-10.449,2.575-13.621c11.167-4.627,20.395-8.45,30.648-12.697
	c19.458,10.161,36.715,24.754,56.099,39.971c-4.758,17.002,6.113,29.961,14.902,42.094c-2.385,9.549-9.438,11.926-14.894,16.184
	c-3.385,2.642-6.177,6.817-7.71,10.878c-2.237,5.932,1.376,10.863,7.579,11.826c2.306,0.358,4.659,0.566,6.991,0.57
	c28.131,0.028,56.263,0.128,84.393-0.134c4.322-0.04,8.627-1.806,13.017-2.789c1.534-9.694,1.069-16.702-7.65-21.13
	c-6.277-3.188-12.347-7-13.985-14.983c4.11-6.395,9.406-12.479,12.189-19.551c2.331-5.922,3.337-12.366,4.526-19.073
	c-0.183-0.178-0.34-0.408-0.446-0.709c-0.93-2.642-0.302-7.136,2.986-7.832c0.427-0.09,0.847-0.022,1.218,0.141
	c16.553-12.708,32.636-26.814,50.375-35.114c11.597,4.526,20.886,8.15,30.99,12.093c0.759,3.123,1.871,6.818,2.538,10.593
	c2.985,16.906,5.434,33.918,8.894,50.725c2.279,11.073,3.367,20.706-4.75,30.762c-6.463,8.008-0.544,17.836,9.598,17.788
	c17.959-0.086,35.929-0.542,53.867-1.405c7.704-0.371,15.579-1.357,22.257-6.426C486.716,494.656,486.23,489.619,482.383,484.899z
	 M99.535,419.358c-0.665,4.968-1.596,9.871-2.082,14.865c-0.919,9.437-2.046,18.941-2.597,28.401
	c-0.348,5.978,0.055,12.459-1.86,18.225c-1.636,4.927-5.096,6.016-9.991,6.062c-5.121,0.048-11.548,0.628-16.33-1.342
	c-7.559-3.115-3.591-10.508-0.98-15.737c4.79-9.59,9.747-19.1,14.7-28.605c4.41-8.463,8.677-17.293,14.043-25.253
	c0.045-0.279,0.09-0.533,0.137-0.742c-0.074-0.355-0.052-0.742,0.109-1.151c0.074-0.184,0.147-0.368,0.219-0.552
	c0.488-1.231,1.507-1.826,2.544-1.774c0.072-0.093,0.135-0.191,0.206-0.283c0.483-0.626,1.598-0.3,1.357,0.572
	c-0.025,0.089-0.054,0.177-0.08,0.267c0.217,0.169,0.423,0.368,0.609,0.612C100.718,414.477,99.762,417.673,99.535,419.358z
	 M150.78,313.004c-0.774,0.793-2.363,1.135-3.305,0.427c-4.598-3.458-11.08-6.273-17.013-6.606c-0.229,0.026-0.47,0.015-0.718-0.022
	c-0.192-0.005-0.387-0.014-0.578-0.013c-0.585,0.005-0.997-0.288-1.248-0.684c-4.607-2.665-6.413-11.325-7.779-15.582
	c-3.263-10.179-6.402-20.4-9.706-30.568c-4.285-13.193-8.414-26.32-11.835-39.77c-3.367-13.24-7.837-26.232-10.875-39.539
	c-0.339-1.483,0.454-2.85,1.885-3.32c6.497-2.133,13.57-2.799,19.607-6.175c4.081-2.283,6.579-6.131,10.075-8.926
	c0.504-1.29,1.763-2.241,3.501-1.731c13.021,3.822,23.6,13.384,35.446,19.683c6.561,3.489,13.249,6.894,20.079,9.83
	c3.54,1.522,7.527,2.885,9.157,6.714c1.694,3.982-0.566,8.59-1.884,12.351c-2.091,5.964-3.017,12.293-3.085,18.619
	c-0.157,14.669,8.291,28.204,16.671,39.659c0.74,1.012,0.354,2.599-0.442,3.429c-7.122,7.418-15.913,13.118-23.479,20.086
	C167.158,298.323,158.479,305.113,150.78,313.004z M244.2,303.49c-1.182,10.681-0.537,21.479-0.397,32.212
	c0.162,12.397,0.186,24.787-0.437,37.172c-0.406,8.04-0.983,12.312-8.348,16.533c-4.127,2.365-7.919,4.661-11.773,7.463
	c-2.592,1.884-6.019,4.114-9.411,3.497c-3.901-0.708-8.031-4.571-11.183-6.804c-4.19-2.968-8.398-5.926-12.459-9.071
	c-8.293-6.425-16.161-13.356-25.47-18.315c-1.348-0.719-1.752-2.577-1.011-3.854c2.943-5.07,4.427-10.457,4.771-16.3
	c0.217-3.679-1.462-7.147-1.214-10.72c0.382-5.505,8.277-9.497,11.924-12.655c13.204-11.429,24.974-25.664,39.491-35.588
	c0.131-1.367,1.058-2.714,2.792-2.869c5.614-0.502,12.772,1.175,17.756,3.709C245.41,291.042,244.879,297.357,244.2,303.49z
	 M245.534,146.108c-11.763,3.454-22.405,6.776-32.034,14.761c-6.23,5.166-9.661,10.437-18.023,6.263
	c-5.907-2.949-11.265-7.104-16.893-10.538c-5.674-3.462-11.593-6.599-17.473-9.696c-9.461-4.982-19.841-12.194-30.421-14.251
	c-0.929-0.181-1.733-1.271-1.673-2.198c0.349-5.456,3.918-11.887,0.537-16.85c-0.652-0.956,0.145-1.919,1.063-2.051
	c0.121-0.369,0.328-0.732,0.666-1.065c4.458-4.386,12.384-6.041,18.037-8.39c8.219-3.415,16.511-6.719,24.893-9.716
	c16.766-5.996,33.615-11.654,49.254-20.303c1.283-0.709,3.288-0.397,3.977,1.042c3.619,7.571,7.873,13.153,16.909,13.264
	c1.539,0.019,2.828,1.287,2.834,2.834c0.03,9.102-0.807,18.165-1.493,27.233c-0.621,8.211,0.122,16.673-0.596,24.853
	C247.732,141.237,247.999,145.384,245.534,146.108z M267.156,124.996c0.854-12.184,1.5-24.657,0.419-36.844
	c-0.133-1.494,2.02-1.575,2.456-0.333c0.012,0.035,0.022,0.072,0.034,0.107c6.274-3.788,12.11-7.731,16.138-14.046
	c0.954-1.497,2.549-1.721,4.077-1.069c14.076,6.012,27.942,12.259,42.188,17.873c6.786,2.674,13.452,5.684,20.304,8.187
	c5.261,1.922,10.784,3.004,16.036,4.949c3.657,1.354,8.319,3.222,10.795,6.419c1.908,2.463,0.694,4.971,0.87,7.818
	c0.183,2.956,1.157,5.962,0.973,8.86c0.457,0.11,0.89,0.333,1.228,0.643c0.822,0.754,0.881,2.047,0.385,2.983
	c-0.678,1.278-2.229,2.196-3.683,2.073c-0.156-0.013-0.302-0.04-0.449-0.069c-1.772,1.854-4.212,3.223-6.376,4.351
	c-9.309,4.853-18.748,9.336-27.967,14.426c-6.313,3.485-12.62,6.977-18.974,10.386c-4.188,2.246-9.386,6.226-14.015,7.415
	c-2.868,0.736-5.202-0.423-6.909-2.468c-0.539,0.088-1.12-0.006-1.677-0.367c-1.521-0.986-2.633-2.407-4.049-3.539
	c-1.27-1.017-2.62-1.922-3.868-2.968c-2.746-2.299-5.627-4.961-7.764-7.873c-2.516-0.911-5.092-1.647-7.722-2.177
	c-3.358-0.677-7.142-1.111-10.125-2.939C262.569,142.56,266.707,131.41,267.156,124.996z M348.005,366.313
	c-5.861,7.047-14.254,10.783-21.865,15.551c-9.768,6.117-19.667,12.581-28.435,20.073c-1.092,0.933-2.973,1.233-4.024,0
	c-6.036-7.086-12.171-15.012-22.196-15.661c-1.448-0.094-2.953-1.239-2.843-2.843c1.056-15.494,1.325-30.643,1.183-46.159
	c-0.07-7.668,0.039-15.332-0.192-22.999c-0.179-5.984-0.953-11.986-1.149-17.972c-0.51-0.939-0.572-2.127-0.043-3.045
	c0.001-0.179-0.005-0.359-0.002-0.538c0.011-0.77,1.061-1.222,1.565-0.673c0.056-0.018,0.103-0.045,0.162-0.06
	c8.862-2.337,17.051-11.875,26.28-5.071c5.2,3.834,8.876,9.696,13.421,14.227c4.826,4.811,10.011,9.414,15.284,13.73
	c5.356,4.383,20.21,11.207,19.084,19.652c-1.048,7.867-5.167,21.672,3.189,27.271C349.063,362.894,349.235,364.834,348.005,366.313z
	 M404.67,244.945c-3.131,10.817-6.506,21.561-9.875,32.306c-1.69,5.389-3.38,10.777-5.036,16.178
	c-1.055,3.44-1.755,7.702-3.88,10.701c-1.94,2.74-4.868,3.621-8.021,4.272c-2.086,0.431-4.129,0.503-6.092,1.375
	c-1.316,0.585-2.468,1.631-3.847,2.08c-5.119,1.671-8.176-3.939-11.483-6.994c-7.897-7.289-16.504-13.972-24.569-21.105
	c-5.249-4.643-11.924-9.512-16.092-15.45c-1.954,0.165-4.106-1.384-3.39-3.818c2.392-8.123,7.995-14.786,11.602-22.371
	c4.172-8.775,5.488-17.659,4.447-27.288c-0.431-3.992-1.409-7.395-2.534-11.211c-0.741-2.515-1.512-5.518-0.505-8.101
	c0.763-1.957,2.249-2.766,4.031-3.726c4.203-2.265,8.604-4.215,12.887-6.334c8.805-4.356,17.539-8.837,26.234-13.411
	c6.365-3.347,12.72-7.544,19.314-10.369c6.066-2.601,7.36,1.603,10.975,5.437c5.561,5.896,14.636,7.839,22.144,9.945
	c1.684,0.473,2.324,2.06,2.073,3.651c-0.856,5.412-3.058,10.259-5.08,15.308c-2.059,5.142-3.353,10.435-4.692,15.801
	C410.515,222.898,407.843,233.982,404.67,244.945z M449.282,484.476c-7.394-0.021-17.016,4.301-24.203,1.136
	c-5.466-2.407-5.665-8.173-5.966-13.378c-0.569-9.831-1.659-19.68-2.734-29.469c-1.143-10.419-3.462-20.405-2.345-30.917
	c0.142-1.331,1.98-1.354,2.088,0c0.004,0.04,0.009,0.08,0.013,0.12c0.8-0.151,1.64,0.123,2.085,1.029
	c2.809,5.738,4.342,11.942,7.466,17.63c2.991,5.448,6.477,10.582,9.705,15.886c6.595,10.837,13.098,22.325,16.421,34.643
	C452.253,482.796,450.992,484.48,449.282,484.476z"/>
<g>
	<path style="fill:#66ABC6;" d="M202.506,265.445c-5.426-3.146-9.396-12.861-12.146-18.204c-6.191-12.031-7.743-27.792-3.52-40.704
		c5.637-17.237,17.763-41.107,38.179-43.211c9.188-0.947,13.133,4.015,15.376,12.286c3,11.07-0.526,21.034-2.205,31.972
		c-1.62,10.558-2.197,21.241,3.954,30.426c5.518,8.241,13.706,11.249,23.448,11.464c11.059,0.244,21.904-6.136,31.989-10.082
		c6.383-2.497,15.031-8.294,22.314-6.581c10.723,2.522-0.473,21.897-3.898,26.153c-8.903,11.056-19.625,20.08-32.745,25.855
		c-15.107,6.649-31.549,8.92-47.329,3.417c-6.129-2.137-11.909-4.556-17.237-8.24c-3.561-2.462-6.784-4.859-9.94-7.838
		C205.719,269.305,201.695,267.269,202.506,265.445z"/>
	<path style="fill:#66ABC6;" d="M124.828,105.935c-4.71,10.422-21.435,15.178-32.347,16.098
		c-17.369,1.466-33.551-4.974-36.707-23.469c-0.613-3.595-0.712-9.297-3.682-11.838c-3.523-3.016-7.527-0.012-9.837,3.211
		c-5.509,7.689-6.324,19.04-5.988,28.15c0.734,19.883,7.02,46.451,26.086,56.36c14.78,7.681,33.668,5.357,47.146-3.541
		c9.702-6.405,15.447-20.136,17.892-31.029C129.975,128.369,131.368,116.502,124.828,105.935z"/>
	<path style="fill:#66ABC6;" d="M97.657,318.828c-13.414,14.576-18.084,35.468-9.209,53.683
		c6.905,14.168,20.61,21.457,35.995,21.436c6.694-0.009,13.529-0.834,19.467-4.068c8.683-4.73,13.128-15.789,16.639-24.547
		c1.394-3.479,7.355-17.448-0.616-16.413c-4.543,0.589-8.757,6.37-12.141,9.061c-5.745,4.569-12.235,7.3-19.693,5.57
		c-8.443-1.958-13.904-11.398-14.503-19.512c-0.516-6.988,2.812-13.951,1.753-20.9C113.677,312.17,99.173,307.645,97.657,318.828z"
		/>
	<path style="fill:#66ABC6;" d="M240.545,386.275c-3.759,0.246-7.582,3.425-10.443,5.633c-4.94,3.809-9.927,7.731-13.342,13.033
		c-6.416,9.965-8.785,21.154-6.838,32.809c1.52,9.094,5.14,19.23,11.5,26.041c6.6,7.07,15.712,9.452,24.885,10.951
		c20.208,3.302,42.874-3.154,54.182-21.169c4.125-6.572,10.417-23.954-4.284-19.551c-7.661,2.295-13.513,8.105-20.813,11.189
		c-7.38,3.118-17.469,4.189-25.024,0.961c-9.408-4.019-13.929-14.425-11.217-24.084c1.857-6.613,6.291-12.112,7.251-19.056
		C247.421,395.642,244.706,385.507,240.545,386.275z"/>
	<path style="fill:#66ABC6;" d="M384.391,308.598c-8.742,2.232-16.677,1.768-24.08,8.272c-8.558,7.519-10.924,17.874-11.414,28.74
		c-0.594,13.186,6.639,27.153,15.263,36.909c12.609,14.262,31.612,12.699,47.162,4.332c8.898-4.787,14.644-11.467,16.838-21.555
		c0.762-3.502,2.357-10.11-1.786-12.068c-5.49-2.595-13.446,6.141-18.008,8.083c-9.298,3.958-20.094,0.616-25.889-7.655
		c-5.339-7.621-3.736-15.898,0.067-23.665c2.357-4.813,7.412-10.828,6.18-16.49c-0.36-1.652-1.167-3.403-2.579-4.438
		C383.592,307.197,382.253,309.046,384.391,308.598z"/>
	<path style="fill:#66ABC6;" d="M396.857,84.837c-11.55,14.161-14.287,31.183-11.765,48.558
		c2.125,14.637,7.636,32.703,22.474,38.558c15.133,5.971,31.908,7.024,46.527-1.613c10.23-6.044,18.405-18.286,18.848-30.324
		c0.188-5.12-1.078-13.265-7.841-12.148c-3.704,0.612-6.476,3.358-9.474,5.335c-4.03,2.656-8.852,4.821-13.651,5.532
		c-11.857,1.754-22.394-8.614-24.872-19.605c-2.731-12.119,2.567-23.018,6.787-33.971c2.291-5.947,3.703-12.822-4.562-13.128
		C409.496,71.663,399.894,78.875,396.857,84.837z"/>
	<path style="fill:#66ABC6;" d="M293.288,37.528c-3.166,16.037-2.597,33.556-18.043,43.48c-10.631,6.83-25.345,5.546-36.875,1.981
		c-12.443-3.847-17.861-20.28-19.001-31.915c-1.038-10.579,0.711-23.502,8.553-31.327c3.002-2.996,8.376-6.707,11.287-1.853
		c2.991,4.988,2.317,13.812,2.848,19.365c0.661,6.92,2.611,13.854,10.069,16.057c6.911,2.042,13.256-2.814,17.367-7.947
		c3.454-4.312,6.505-11.641,12.697-12.346C286.96,32.482,294.514,35.354,293.288,37.528z"/>
</g>
<g>
	<path style="fill:#CECECE;" d="M201.546,171.784c-16.384-10.321-34.247-18.201-50.592-28.394
		c-9.683-6.038-22.399-13.361-33.86-15.006c-6.606-0.949-9.685,4.564-10.848,10.317c-1.575,7.791,5.495,12.076,10.893,16.214
		c16.304,12.499,34.308,21.868,52.128,31.823c5.161,2.883,12.191,7.39,18.22,8.027c4.94,0.522,6.109-3.615,8.151-7.803
		C198.136,181.844,200.842,176.825,201.546,171.784z"/>
	<path style="fill:#CECECE;" d="M120.993,88.674c1.096,3.529,1.957,7.394,3.173,10.902c0.693,1.998,2.686,7.857,4.26,9.253
		c2.269,2.013,3.431,0,6.396-1.224c6.079-2.508,12.398-4.189,18.449-6.839c24.235-10.61,48.941-20.311,73.482-30.321
		c5.128-2.092,10.757-2.686,13.798-7.6c2.008-3.247,3.943-8.436,0.703-11.579c-3.904-3.786-13.071-2.692-17.949-1.273
		c-11.463,3.332-22.697,7.837-33.852,12.054c-14.324,5.414-28.764,10.571-43.21,15.592
		C138.253,80.413,127.363,82.837,120.993,88.674z"/>
	<path style="fill:#CECECE;" d="M246.938,85.157c0,9.531-1.022,19.144-0.311,28.624c0.514,6.837,0.644,13.895,0.631,20.756
		c-0.006,2.957-0.864,9.336,1.918,10.733c2.5,1.255,8.367-0.346,11.258-0.337c4.917,0.016,5.05-0.442,5.044-5.623
		c-0.008-7.802-0.532-15.576-0.32-23.384c0.258-9.461,2.103-20.038-0.711-29.241c-0.865-2.83-2.484-6.759-5.429-7.688
		C255.073,77.752,248.466,82.507,246.938,85.157z"/>
	<path style="fill:#CECECE;" d="M280.502,48.077c-4.186,0.946-14.63,2.49-12.17,9.206c2.116,5.778,10.531,10.208,15.742,12.37
		c18.68,7.752,37.937,14.635,56.833,21.902c10.338,3.976,20.034,8.513,30.089,13.104c3.214,1.467,12.297,7.534,15.066,5.302
		c2.628-2.119,2.985-8.988,4.074-12.025c0.551-1.535,3.842-8.061,2.836-9.613c-0.825-1.274-7.611-1.701-8.975-2.12
		c-6.164-1.89-12.103-4.417-18.07-6.879c-14.685-6.059-29.076-12.526-44.031-18.062c-7.228-2.677-14.548-5.005-21.896-7.31
		C294.212,52.136,285.657,48.516,280.502,48.077z"/>
	<path style="fill:#CECECE;" d="M309.957,173.463c0.476-4.148,4.643-5.311,7.776-7.04c8.45-4.659,16.531-9.953,24.956-14.657
		c10.793-6.025,21.321-11.578,32.723-16.417c6.962-2.955,14.057-5.618,21.446-7.11c3.737-0.754,5.486,0.406,7.683,3.578
		c2.462,3.555,4.679,7.432,3.272,11.827c-1.796,5.609-7.574,10.519-12.515,13.346c-11.16,6.385-23.517,10.427-34.781,16.612
		c-8.635,4.743-16.862,10.008-25.744,14.323c-3.459,1.68-6.436,4.203-9.757,5.848c-2.523,1.249-3.01,1.119-4.759-0.42
		c-3.344-2.941-3.829-7.97-6.102-11.517c-1.538-2.401-4.529-4.983-4.21-8.264C309.949,173.538,309.952,173.501,309.957,173.463z"/>
	<path style="fill:#CECECE;" d="M425.307,178.498c0.89,2.059-2.9,10.53-3.662,12.944c-2.51,7.948-5.879,15.608-7.221,23.881
		c-1.758,10.829-3.638,21.592-7.355,31.951c-3.717,10.356-6.742,20.874-10.22,31.303c-3.108,9.316-7.171,18.275-9.481,27.826
		c-1.242,5.133-3.298,13.542,2.169,17.105c5.747,3.746,14.28,0.163,16.671-5.548c8.693-20.755,14.27-43,20.224-64.703
		c3.895-14.199,7.228-28.64,10.542-43.038c1.547-6.721,3.155-13.35,4.559-20.087c0.7-3.361,2.528-7.785,1.94-11.257
		c-2.783-1.352-6.5-0.618-9.55-0.767C429.677,177.899,427.957,177.298,425.307,178.498z"/>
	<path style="fill:#CECECE;" d="M308.952,267.682c-1.384,3.417-5.758,6.608-8.627,8.803c-1.707,1.306-8.23,4.893-8.169,7.009
		c0.066,2.289,3.916,2.586,5.366,3.495c2.968,1.858,6.265,4.926,8.716,7.408c9.355,9.47,19.502,17.609,29.253,26.685
		c2.993,2.786,6.963,7.987,10.788,9.445c2.625-2.987,5.016-6.096,7.885-8.965c2.229-2.229,6.35-4.835,7.705-7.53
		c-0.008-3.425-6.673-6.871-8.983-9.253c-4.345-4.479-8.571-9.032-13.118-13.391c-5.155-4.943-11.027-8.871-16.124-13.956
		C321.49,275.282,314.54,265.87,308.952,267.682z"/>
	<path style="fill:#CECECE;" d="M245.66,291.657c-1.478,21.949-1.134,43.623-0.632,65.579c0.209,9.141-0.076,18.403-0.007,27.562
		c0.039,5.237-0.258,12.5,2.861,17.051c2.885,4.212,8.203,4.697,12.649,2.885c6.488-2.643,5.908-7.616,5.908-13.898
		c0-11.932,1.036-23.684,1.917-35.565c0.844-11.382-0.018-22.718-0.326-34.066c-0.144-5.288-0.361-10.585-0.617-15.868
		c-0.152-3.143,0.366-9.812-0.897-12.595C263.983,287.167,250.823,291.93,245.66,291.657z"/>
	<path style="fill:#CECECE;" d="M201.546,269.28c-5.423,5.423-11.002,10.696-16.579,15.956c-5.501,5.189-11.834,9.433-17.055,14.946
		c-4.605,4.862-16.343,10.753-12.851,18.234c1.248,2.674,3.127,5.107,5.001,7.364c0.858,1.034,3.555,5.47,4.895,5.835
		c3.227,0.882,9.97-7.15,12.374-9.032c13.077-10.232,23.033-23.8,36.246-33.786c4.753-3.592,7.792-4.903,3.506-10.303
		C214.724,275.523,205.275,266.827,201.546,269.28z"/>
	<path style="fill:#CECECE;" d="M68.569,177.858c10.447,28.591,12.496,60.015,21.121,89.163
		c3.717,12.562,7.088,25.206,10.932,37.728c2.012,6.554,4.124,14.58,10.471,18.251c4.968,2.873,12.472,3.235,14.373-3.247
		c1.313-4.473-0.991-10.437-1.76-14.761c-0.94-5.284-1.95-10.573-3.354-15.749c-2.731-10.061-6.205-19.785-10.619-29.218
		c-6.219-13.289-8.063-27.899-12.786-41.656c-3.867-11.264-5.584-22.746-8.64-34.189c-0.909-3.401-1.255-4.665-4.399-5.753
		C78.422,176.527,72.938,175.567,68.569,177.858z"/>
	<path style="fill:#CECECE;" d="M87.715,378.876c-2.144,1.135-3.978,3.456-5.225,6.052c-1.23,2.562-1.242,5.098-2.057,7.742
		c-1.191,3.868-3.306,7.544-4.673,11.373c-3.181,8.908-8.93,16.566-12.946,25.085c-9.817,20.822-19.941,42.9-34.202,61.03
		c-4.584,5.828,0.199,11.974,6.616,13.601c7.35,1.863,15.744,1.047,23.283,1.917c11.012,1.272,22.489,0.491,33.573,0.47
		c4.607-0.008,10.597,2.332,14.874,0.627c3.882-1.546,7.343-6.009,7.641-10.209c0.209-2.951-0.344-5.679-2.224-8.003
		c-2.514-3.104-4.112-4.561-5.832-8.28c-1.494-3.23-2.628-5.084-2.585-8.853c0.1-8.794,3.279-17.224,5.341-25.67
		c3.176-13.017,6.517-27.688,6.581-41.114c0.015-3.35-2.89-18.911-8.855-12.288c-3.187,3.54-3.608,11.181-4.251,15.613
		c-1.028,7.079-1.592,14.235-2.273,21.352c-1.324,13.832-4.412,27.442-5.95,41.26c-0.539,4.846-1.223,10.099-3.921,14.292
		c-3.184,4.951-7.077,4.43-12.484,3.703c-3.793-0.51-10.827-2.055-14.081-4.178c-2.052-1.338-1.564-0.234-1.892-3.145
		c-0.366-3.255,0.986-7.12,1.78-10.247c3.889-15.332,13.868-28.772,21.328-42.541c5.826-10.752,10.858-22.019,16.854-32.631
		c1.481-2.622,3.378-4.406,1.932-6.991c-1.565-2.8-6.342-6.053-8.642-8.346C92.718,377.808,90.034,377.648,87.715,378.876z"/>
	<path style="fill:#CECECE;" d="M223.603,467.788c-2.288,7.482-6.643,11.629-13.55,14.784c-3.097,1.414-7.38,2.467-9.713,5.108
		c-2.64,2.989-1.952,6.605-1.742,10.218c0.197,3.38-0.175,4.834,2.683,6.402c4.212,2.31,10.091,1.498,14.649,1.837
		c19.354,1.44,39.361,0.675,58.756-0.382c7.061-0.385,14.253-0.593,21.324-0.256c3.979,0.19,7.996,1.055,11.98,0.327
		c5.835-1.066,5.895-7.194,5.133-12.482c-0.825-5.732-6.588-7.375-11.103-10.057c-3.045-1.81-6.501-3.356-8.572-6.396
		c-1.407-2.066-2.162-6.99-4.503-8.282c-3.33-1.837-8.635,3.023-11.957,3.826c-8.844,2.139-17.507,2.298-26.515,2.054
		c-7.191-0.195-11.575-1.138-17.573-4.915C229.408,467.373,225.837,465.376,223.603,467.788z"/>
	<path style="fill:#CECECE;" d="M296.165,403.856c2.703-4.059,8.033-6.056,11.952-8.703c7.483-5.055,14.863-10.442,22.279-15.603
		c7.601-5.29,15.434-10.301,22.961-15.696c3.909-2.802,8.405-6.902,13.694-6.045c7.343,1.189,9.741,12.103,5.991,17.351
		c-5.834,8.166-17.176,13.336-24.935,19.402c-8.857,6.923-18.602,13.113-28.064,19.123c-2.742,1.741-11.831,10.387-15.325,8.822
		c-1.677-0.752-2.901-5.213-3.434-6.699C299.747,411.535,297.925,408.129,296.165,403.856z"/>
	<path style="fill:#CECECE;" d="M216.889,404.175c-3.073-2.14-5.948-4.685-8.951-6.912c-4.181-3.101-9.449-4.894-13.798-7.705
		c-12.537-8.105-22.687-19-35.912-26.299c-4.827-2.664-10.711-8.579-16.555-4.649c-4.791,3.221-5.456,11.938-2.946,16.608
		c1.773,3.299,5.67,5.8,8.636,8.028c4.299,3.229,8.64,6.451,13.143,9.399c8.532,5.585,17.164,10.92,25.873,16.265
		c3.916,2.402,7.523,5.11,11.173,7.868c1.59,1.202,3.829,3.578,5.671,4.258c3.347,1.236,4.365-1.611,6.065-4.155
		c1.781-2.666,3.161-5.729,5.058-8.282C215.543,406.989,217.841,405.875,216.889,404.175z"/>
	<path style="fill:#CECECE;" d="M393.022,395.226c1.541,3.603,1.353,8.553,1.83,12.475c0.723,5.939,1.754,11.821,2.325,17.769
		c0.997,10.382,4.128,20.376,6.395,30.562c1.607,7.221,3.467,14.438,3.195,21.912c-0.293,8.094-10.851,11.046-9.535,19.538
		c1.45,9.348,12.619,7.946,19.761,8.026c12.137,0.136,24.335,1.191,36.428,0c5.603-0.552,11.205-1.194,16.819-1.613
		c3.358-0.251,7.812,0.315,11.022-0.607c5.592-1.607,4.516-11.13,2.714-15.354c-1.361-3.19-3.664-3.625-6.565-4.957
		c-4.032-1.852-6.457-5.628-8.318-9.576c-5.047-10.708-9.258-21.793-14.122-32.598c-6.798-15.103-14.272-29.726-20.197-45.201
		c-1.991-5.201-4.514-9.722-7.587-14.357c-1.857-2.801-2.563-5.874-5.464-4.715c-2.099,0.838-4.702,3.714-6.596,5.092
		c-2.239,1.629-5.362,3.478-7.11,5.622c-3.084,3.782,0.719,8.159,2.737,11.963c6.368,12,13.672,23.654,19.329,36.03
		c5.262,11.511,12.57,22.076,17.426,33.808c1.085,2.62,5.389,10.128,4.031,13.091c-1.562,3.407-11.591,3.094-14.729,3.565
		c-2.917,0.439-11.826,3.093-14.733,0.895c-2.078-1.571-2.727-8.4-3.173-10.718c-2.83-14.724-1.748-29.994-4.338-44.808
		c-1.668-9.539-2.314-19.524-5.165-28.809c-1.194-3.89-3.486-9.964-7.566-10.868C396.34,390.173,393.114,393.426,393.022,395.226z"
		/>
</g>
<g>
	<path style="fill:#999999;" d="M260.364,79.404c-1.906,2.84-1.731,8.02-2.157,11.262c-0.838,6.372-1.169,12.792-1.607,19.19
		c-0.538,7.867-1.387,17.459,4.226,23.773c2.526,2.841,5.039,5.791,2.025,9.689c-2.579,3.336-11.78,4.258-15.559,2.917
		c1.828-5.09,1.229-10.495,0.997-15.91c-0.344-8.017-0.802-16.099-1.42-24.09c-0.509-6.58-1.427-14.091,0.952-20.453
		C249.197,82.097,254.311,77.068,260.364,79.404z"/>
	<path style="fill:#999999;" d="M123.23,96.345c13.262-3.03,26.651-8.193,39.315-13.034c16.171-6.182,32.488-11.864,48.569-18.284
		c8.573-3.422,17.533-6.799,26.389-9.41c3.105-0.916,8.349-3.371,6.885,0.774c-1.29,3.649-6.025,6.538-9.093,8.442
		c-9.627,5.975-20.609,10.375-30.903,15.087c-19.558,8.954-39.723,15.111-59.759,22.738c-4.413,1.68-10.04,5.147-14.763,5.445
		C124.493,108.44,124.645,100.765,123.23,96.345z"/>
	<path style="fill:#999999;" d="M106.608,133.106c6.275,8.755,17.307,15.604,26.537,21.047
		c13.068,7.707,26.994,15.138,41.264,20.374c4.106,1.507,8.022,3.612,12.182,4.928c1.966,0.621,5.294,0.532,6.973,1.585
		c2.372,1.488,1.838,2.54,1.042,4.766c-1.102,3.081-3.043,6.671-4.55,9.607c-2.535-1.853-6.089-2.475-9.123-3.657
		c-4.876-1.899-9.6-4.638-14.131-7.31c-10.327-6.092-20.27-12.495-31.097-17.775c-9.009-4.393-18.084-9.295-26.148-15.263
		c-2.626-1.943-3.696-3.326-4.536-6.443C103.63,139.811,103.958,137.513,106.608,133.106z"/>
	<path style="fill:#999999;" d="M87.428,182.973c-7.282,8.993-3.827,23.787-0.991,33.809c4.994,17.64,8.74,35.561,13.617,53.204
		c3.235,11.702,6.632,24.333,11.652,35.392c1.505,3.316,9.992,14.142,6.728,17.035c-4.515,4-11.189-4.727-13.353-7.671
		c-6.418-8.731-8.173-19.159-10.801-29.422c-2.972-11.606-5.982-23.206-8.609-34.895c-4.961-22.078-12.51-43.407-17.038-65.559
		c-0.816-3.992-1.464-6.994,2.951-8.373C76.738,174.884,83.441,175.493,87.428,182.973z"/>
	<path style="fill:#999999;" d="M99.029,403.961c-6.179-5.085-23.045,24.337-25.024,27.946
		c-7.69,14.017-17.112,27.131-23.671,41.748c-1.731,3.856-4.894,9.475-3.284,13.854c1.731,4.71,9.231,5.886,13.533,6.418
		c10.031,1.24,20.314,2.095,30.414,2.558c6.132,0.281,12.827-0.401,18.176,2.877c2.295,1.407,4.785,3.619,2.253,6.071
		c-2.978,2.884-14.595,2.207-18.271,2.007c-6.95-0.375-13.951-0.806-20.891-0.328c-6.343,0.436-12.371-1.459-18.574-2.502
		c-5.085-0.855-10.477-1.028-15.622-1.339c-2.466-0.149-7.038-0.552-8.982-2.35c-2.62-2.422-1.624-7.588-0.329-10.463
		c2.408-5.348,7.736-8.708,11.403-13.154c5.186-6.286,8.046-14.811,11.327-22.183c4.644-10.435,9.071-20.932,13.257-31.559
		c5.839-14.826,12.652-30.698,22.031-43.65c4.139,1.384,9.437,2.313,13.107,4.908c2.62,1.854,2.501,2.714,5.767,3.528
		c2.256,0.562,4.604,1.276,6.725,2.231c4.382,1.974,7.48,5.196,5.595,10.25c-1.162,3.115-5.051,4.668-7.126,7.143
		c-3.207,3.825-5.003,8.381-4.705,13.229c0.337,5.486-0.762,11.039-1.557,16.517c-1.353,9.307-3.095,18.629-4.684,27.895
		c-0.501,2.919-1.171,15.771-4.482,17.211c-3.236,1.408-2.098-3.918-1.83-5.716c0.688-4.622,1.668-9.27,2.449-13.901
		c2.229-13.201,2.897-26.871,3.793-40.179c0.315-4.678,2.359-13.01,0.319-17.511C99.829,404.824,99.453,404.31,99.029,403.961z"/>
	<path style="fill:#999999;" d="M137.615,367.096c-0.495,14.779,14.081,18.614,24.764,25.084
		c11.626,7.042,21.987,15.687,33.053,23.503c2.269,1.603,6.594,6.746,9.479,5.9c4.199-1.232,6.105-9.368,7.822-12.698
		c1.195-2.32,4.119-6.329,0.32-7.265c-2.764-0.681-7.184,2.198-10.087,2.572c-5.2,0.671-9.399-0.212-13.744-3.215
		c-11.532-7.972-22.772-16.649-33.908-25.187C152.364,373.528,138.038,357.859,137.615,367.096z"/>
	<path style="fill:#999999;" d="M202.185,268.961c-3.134,1.001-7.724,6.144-5.76,9.275c1.889,3.012,6.778,3.87,7.198,7.876
		c0.437,4.179-4.846,7.564-7.496,10.002c-4.861,4.477-9.479,8.654-15.063,12.215c-3.509,2.238-7.446,5.791-11.835,5.914
		c-4.321,0.121-5.695-4.564-10.426-4.052c-2.408,0.261-4.956,1.803-5.505,4.328c-0.741,3.407,2.386,5.318,4.631,7.115
		c1.654,1.324,4.67,2.423,5.756,4.179c1.094,1.769,0.342,4.336,1.563,6.133c2.298,3.386,7.912-4.212,9.499-5.752
		c4.727-4.591,9.894-8.679,14.638-13.25c6.33-6.102,12.945-11.879,19.165-18.101c2.367-2.367,4.503-4.926,6.773-7.388
		c0.777-0.843,3.026-2.473,3.318-3.642c0.705-2.816-2.692-5.042-4.462-6.888C209.608,272.154,206.821,269.012,202.185,268.961z"/>
	<path style="fill:#999999;" d="M266.757,296.132c-3.999,4.937-8.55,8.666-10.317,15.415c-3.227,12.32-0.871,26.036-0.871,38.629
		c0,10.815-1.085,22.166,0.392,32.849c0.677,4.894,4.901,13.48,2.092,18.316c-1.616,2.781-6.416,1.577-8.327-0.507
		c-1.937-2.114-2.914-7.034-3.442-9.615c-2.091-10.22-0.954-21.911-0.945-32.562c0.015-17.052-0.607-34.058-0.639-51.102
		c-0.008-4.579-1.969-15.493,4.054-16.24c2.049-0.254,4.552,0.633,6.695,0.597c2.079-0.035,4.319-0.762,6.391-0.592
		C266.014,291.664,264.828,294.417,266.757,296.132z"/>
	<path style="fill:#999999;" d="M317.262,271.837c-11.207,14.421,6.622,26.87,16.922,34.244c5.046,3.614,9.79,7.415,15.12,10.577
		c3.482,2.066,6.039,4.9,2.549,8.258c-6.573,6.324-17.769-5.427-22.875-9.516c-6.046-4.84-10.646-11.086-16.999-15.611
		c-4.52-3.221-8.613-7.076-12.857-10.681c-3.449-2.931-8.918-5.54-4.426-9.443C298.551,276.318,311.853,265.579,317.262,271.837z"/>
	<path style="fill:#999999;" d="M295.526,402.897c3.777-1.983,6.873-6.222,11.49-6.087c2.517,0.074,4.887,1.781,7.383,2.185
		c5.392,0.876,10.516-1.321,15.117-3.923c9.442-5.341,18.37-11.421,27.4-17.433c2.676-1.782,12.073-10.009,15.344-8.879
		c3.387,1.171-0.402,6.954-1.762,8.738c-4.122,5.41-12.095,9.596-17.797,13.077c-14.178,8.658-26.913,19.434-40.301,29.023
		c-1.965,1.408-6.102,3.039-8.567,1.544C299.272,418.376,301.48,406.907,295.526,402.897z"/>
	<path style="fill:#999999;" d="M410.603,401.299c-9.789,1.667-5.478,29.062-4.474,35.179c2.017,12.29,4.076,24.643,5.913,36.892
		c0.678,4.516,0.8,7.757-0.359,12.377c-0.746,2.973-2.942,7.038-0.515,9.467c2.942,2.945,11.748,2.4,15.487,2.31
		c11.449-0.274,22.221-3.275,33.405-4.897c4.682-0.679,9.456-0.988,14.176-1.167c2.28-0.087,6.45-0.828,8.553,0.529
		c1.603,1.034,2.905,4.119,2.931,6.01c0.053,3.924-2.948,4.079-6.125,4.856c-13.856,3.391-27.973,4.377-42.25,5.183
		c-10.548,0.596-46.057,4.657-37.77-15.184c2.585-6.191,7.054-12.035,7.528-18.898c0.338-4.878-1.396-9.913-2.175-14.691
		c-1.115-6.848-2.757-13.631-4.564-20.332c-2.969-11.005-4.958-21.122-5.736-32.519c-0.206-3.013-1.855-8.293-0.974-11.195
		c0.83-2.733,4.586-3.61,7.007-4.795c7.382-3.612,22.467-18.858,28.165-5.424c1.613,3.803,0.875,4.666-1.644,7.666
		c-5.085,6.056-3.065,13.978-0.478,20.723c3.833,9.998,9.224,19.286,13.537,29.068c3.954,8.967,9.624,17.355,13.218,26.397
		c0.942,2.367,4.821,12.816-1.005,12.284c-1.753-6.799-5.804-12.492-8.457-18.953c-3.464-8.435-7.197-16.143-11.309-24.232
		c-4.068-8.004-8.669-15.525-13.139-23.264C418.223,412.389,413.945,401.875,410.603,401.299z"/>
	<path style="fill:#999999;" d="M440.011,190.325c-4.182,2.999-7.548,5.108-10.073,9.92c-4.325,8.246-6.705,17.849-8.947,26.841
		c-4.794,19.23-11.311,37.878-15.895,57.146c-2.688,11.3-5.936,23.503-10.278,34.282c-3.519,8.733-9.559,1.84-7.902-4.816
		c2.481-9.972,4.935-19.981,7.552-29.911c2.575-9.768,6.299-19.081,9.102-28.763c5.228-18.054,9.696-36.329,14.625-54.468
		c1.531-5.635,3.281-11.183,4.889-16.783c1.293-4.505,0.691-6.365,5.614-7.475c2.295-0.517,11.081-2.193,13.097-0.211
		C445.296,179.528,438.514,190.639,440.011,190.325z"/>
	<path style="fill:#999999;" d="M307.993,172.424c3.328-4.881,8.33-2.917,12.786-0.873c10.315,4.732,25.903-1.847,35.437-6.121
		c11.581-5.194,23.378-10.395,33.639-17.906c3.502-2.563,10.915-8.983,15.703-8.679c3.7,0.236-0.28,7.12-1.79,9.192
		c-4.235,5.811-11.915,10.047-17.982,13.59c-17.684,10.327-35.098,21.414-54.232,28.69c-2.965,1.128-7.793,5.036-11.102,4.169
		c-3.132-0.82-3.815-4.651-4.464-7.346C314.808,182.24,312.584,178.542,307.993,172.424z"/>
	<path style="fill:#999999;" d="M393.022,88.353c-3.907-4.214-13.442-2.307-18.239-1.83c-13.48,1.34-26.089,0.37-39.332-2.577
		c-13.329-2.968-26.093-9.19-37.702-16.316c-7.474-4.588-14.804-9.335-23.55-10.93c-5.212-0.95-8.41,1.855-3.086,5.513
		c8.247,5.668,18.015,9.03,27.056,13.182c13.41,6.158,27.093,11.963,41.162,16.469c9.183,2.941,19.83,6.349,28.271,11.097
		c3.112,1.751,11.516,9.219,15.448,7.71c2.336-0.897,3.595-7.748,4.537-9.859C388.868,97.942,393.908,91.341,393.022,88.353z"/>
	<path style="fill:#999999;" d="M290.215,473.019c-4.174,7.042-21.232,3.203-24.711,12.187c-2.447,6.318,15.739,5.131,19.538,5.288
		c7.784,0.322,18.563-1.919,24.307,4.678c10.212,11.728-11.658,12.461-18.557,12.665c-19.308,0.572-38.619-1.789-57.901-0.877
		c-7.667,0.363-20.426,2.173-27.887-0.638c-6.811-2.565-4.958-13.434-0.586-18.462c2.493-2.867,5.835-3.7,8.742-6.152
		c3.519-2.968,4.508-6.804,7.395-9.97c7.842-8.599,22.533,3.274,32.146,4.936c3.071,0.531,38.162-10.913,38.391-8.366
		C291.269,470.281,290.931,471.811,290.215,473.019z"/>
</g>
<path d="M257.265,501.186c-0.005-0.054-0.001-0.108-0.005-0.163C257.251,500.966,257.249,501.002,257.265,501.186z"/>
<path d="M481.107,480.529c-1.121-0.585-1.808-1.015-2.923-1.452c-0.293-0.115-0.49-0.203-0.639-0.273
	c-1.81-2.169-2.739-5.417-4.09-7.838c-1.339-2.399-2.793-4.672-3.974-7.173c-3.013-6.386-5.5-13.01-8.652-19.333
	c-5.973-11.985-12.439-23.656-18.51-35.595c-3.027-5.954-6.31-12.262-8.669-18.495c-1.175-3.105-2.197-4.995-3.8-7.878
	c-1.02-1.834-2.364-3.622-3.474-5.447c7.557-10.182,9.961-23.687,5.947-35.763c-2.221-6.681-4.802-13.135-8.802-18.995
	c-2.516-3.686-6.403-8.847-11.144-9.605c0.641-1.66,1.172-3.364,1.59-5.079c1.342-5.507,3.29-10.782,4.798-16.226
	c1.548-5.586,2.501-11.352,3.962-16.966c2.658-10.21,5.453-20.383,7.881-30.636c2.554-10.784,5.8-21.379,7.982-32.255
	c1.313-6.544,2.506-13.107,3.9-19.634c0.68-3.18,1.495-6.329,2.191-9.502c0.105-0.482,0.177-1.255,0.277-2.089
	c3.234-0.802,6.34-1.993,9.207-3.716c9.513-5.716,14.589-13.333,19.373-23.214c5.155-10.645,8.393-20.471,8.226-32.455
	c-0.149-10.689-0.392-21.597-6.083-30.997c-5.358-8.849-13.596-16.73-23.063-21.177c-18.23-8.564-44.931-2.949-57.81,12.762
	c-1.192,1.455-2.265,2.949-3.245,4.478c-0.926-0.562-1.849-1.127-2.917-1.534c-2.509-0.958-4.774-2.311-7.256-3.325
	c-5.194-2.122-10.415-4.21-15.77-5.898c-11.131-3.507-22.01-8.237-32.935-12.334c-9.006-3.378-18.185-6.9-27.389-9.707
	c-3.319-1.012-6.759-2.377-10.256-3.667c1.015-2.003,1.324-5.28,1.408-6.1c0.736-7.096-1.14-13.047-4.459-19.293
	c-3.169-5.962-7.46-11.192-13.041-15.025c-0.641-0.441-1.292-0.856-1.953-1.249c-4.873-6.59-16.338-8.669-23.467-7.565
	c-8.559,1.325-21.221,4.885-25.832,13.31c-3.065,3.079-5.616,6.644-7.681,10.529c-3.319,6.246-5.196,12.197-4.459,19.293
	c0.086,0.821,0.393,4.098,1.408,6.1c-3.496,1.291-6.936,2.656-10.256,3.667c-9.205,2.807-18.384,6.329-27.389,9.707
	c-10.924,4.098-21.802,8.828-32.935,12.334c-5.356,1.686-10.576,3.775-15.771,5.898c-2.482,1.014-4.747,2.367-7.255,3.325
	c-1.068,0.408-1.99,0.973-2.917,1.534c-0.979-1.529-2.052-3.024-3.244-4.478c-12.88-15.711-39.58-21.327-57.81-12.762
	c-9.467,4.447-17.704,12.329-23.063,21.177c-5.691,9.4-5.934,20.307-6.083,30.997c-0.168,11.984,3.071,21.81,8.226,32.455
	c4.785,9.88,9.86,17.499,19.373,23.214c2.868,1.722,5.974,2.914,9.207,3.716c0.1,0.835,0.171,1.607,0.277,2.089
	c0.696,3.173,1.512,6.322,2.191,9.502c1.394,6.527,2.588,13.091,3.9,19.634c2.182,10.875,5.429,21.47,7.982,32.255
	c2.428,10.252,5.223,20.426,7.881,30.636c1.462,5.615,2.414,11.38,3.962,16.966c1.508,5.443,3.455,10.719,4.798,16.226
	c0.419,1.715,0.949,3.419,1.59,5.079c-4.741,0.759-8.628,5.919-11.144,9.605c-3.999,5.86-6.58,12.314-8.802,18.995
	c-4.015,12.075-1.609,25.581,5.947,35.763c-1.11,1.824-2.455,3.614-3.474,5.447c-1.603,2.883-2.625,4.773-3.8,7.878
	c-2.359,6.233-5.642,12.541-8.669,18.495c-6.071,11.94-12.536,23.611-18.51,35.595c-3.152,6.323-5.638,12.946-8.652,19.333
	c-1.181,2.501-2.635,4.774-3.974,7.173c-1.351,2.421-2.279,5.669-4.09,7.838c-0.149,0.07-0.346,0.158-0.64,0.273
	c-1.114,0.436-1.802,0.868-2.923,1.452c-6.358,3.316-8.507,12.904-7.316,19.503c0.196,1.083,0.485,2.176,1.104,3.087
	c1.056,1.555,2.9,2.355,4.682,2.952c4.665,1.562,9.57,2.264,14.459,2.809c14.759,1.644,29.234,1.246,44.025,0.841
	c8.457-0.232,21.133,6.449,27.758-2.028c2.737-3.476,3.669-7.732,3.704-12.098c0.045-5.45-2.854-8.253-6.73-11.523
	c-6.884-5.806-2.921-14.367-1.109-21.823c0.829-3.411,0.923-6.862,1.991-10.238c1.198-3.788,1.781-7.703,2.534-11.596
	c1.489-7.705,2.801-15.363,3.841-23.143c0.816-6.103,0.816-12.919,2.011-19.104c8.927,0.557,23.738-2.126,26.634-11.432
	c0.631,0.458,1.262,0.918,1.903,1.362c6.989,4.847,14.283,9.152,21.293,13.97c6.721,4.618,13.097,10.028,19.578,14.94
	c3.284,2.488,8.144,7.403,12.809,8.079c-0.161,1.584-0.238,3.201-0.202,4.862c0.143,6.395-0.138,12.635,2.034,18.778
	c1.749,4.943,5.389,9.368,8.622,13.422c1.835,2.3,3.835,4.321,5.977,6.066c0.069,0.156,0.162,0.304,0.314,0.424
	c-0.054-0.043-3.638,5.189-4.09,5.706c-1.8,2.059-4.587,3.857-7.031,5.208c-3.447,1.904-7.977,2.3-10.276,5.777
	c-2.737,4.14-5.425,17.173-1.985,21.644c1.789,2.325,5.364,2.436,8.083,2.71c5.813,0.583,11.219,0.077,17.057,0.032
	c6.016-0.047,11.906,0.531,17.899,0.698c1.877,0.052,3.76-0.09,5.64-0.347c2.17,0.195,4.33,0.334,6.669,0.3
	c4.423-0.064,9.041-0.38,13.437-0.063c2.442,0.176,4.208,0.613,6.034,0.08c5.743-0.19,11.401-0.712,17.173-0.667
	c5.838,0.046,11.244,0.551,17.057-0.032c2.719-0.273,6.293-0.383,8.083-2.71c3.44-4.471,0.752-17.504-1.985-21.644
	c-2.298-3.476-6.828-3.873-10.276-5.777c-2.443-1.35-5.232-3.149-7.031-5.208c-0.453-0.518-4.036-5.75-4.09-5.706
	c0.151-0.121,0.245-0.267,0.313-0.424c2.142-1.745,4.142-3.765,5.977-6.066c3.234-4.054,6.873-8.478,8.622-13.422
	c2.174-6.144,1.891-12.382,2.034-18.778c0.036-1.661-0.04-3.277-0.202-4.862c4.665-0.677,9.525-5.59,12.809-8.079
	c6.481-4.911,12.859-10.32,19.578-14.94c7.01-4.818,14.304-9.124,21.293-13.97c0.64-0.444,1.271-0.904,1.903-1.362
	c2.896,9.306,17.707,11.989,26.634,11.432c1.195,6.185,1.195,13.002,2.011,19.104c1.04,7.781,2.352,15.438,3.841,23.143
	c0.753,3.894,1.335,7.809,2.534,11.596c1.068,3.376,1.162,6.826,1.991,10.238c1.813,7.456,5.776,16.018-1.109,21.823
	c-3.876,3.269-6.775,6.072-6.73,11.523c0.036,4.365,0.968,8.622,3.704,12.098c6.626,8.477,19.301,1.796,27.758,2.028
	c14.791,0.406,29.266,0.803,44.025-0.841c4.888-0.544,9.794-1.247,14.459-2.809c1.782-0.597,3.625-1.398,4.682-2.952
	c0.619-0.911,0.909-2.003,1.104-3.087C489.615,493.435,487.464,483.846,481.107,480.529z M439.215,183.129
	c-1.892,6.245-3.191,12.631-4.484,19.021c-2.307,11.407-5.432,22.386-8.405,33.607c-2.45,9.247-5.196,18.444-7.324,27.73
	c-2.333,10.181-4.478,20.773-7.873,30.636c-3.156,9.17-3.678,20.768-12.46,26.66c-2.522,1.692-5.446,3.71-8.397-0.416
	c-0.707-0.987-0.823-3.129-0.898-4.314c-0.149-2.352,0.434-5.531,0.759-7.913c0.698-5.114,2.196-10.288,3.604-15.254
	c1.313-4.631,3.901-8.978,5.491-13.598c1.752-5.089,2.856-10.464,4.312-15.652c1.544-5.499,3.578-10.854,5.147-16.348
	c1.358-4.753,2.068-9.588,3.646-14.289c3.301-9.829,6.323-19.59,8.937-29.618c1.834-7.031,4.988-14.518,6.266-21.914
	c4.066,0.287,8.199,0.278,12.225-0.218C439.567,181.916,439.388,182.553,439.215,183.129z M270.611,316.927
	c-0.052-5.446-0.412-10.886-1.038-16.3c-0.254-2.19-0.305-4.39-0.435-6.583c3.35-0.431,6.695-1.047,9.899-2.106
	c4.278-1.413,8.591-3.263,12.739-5.412c2.714,3.233,6.62,6.221,9.219,8.357c4.566,3.752,8.442,8.271,12.789,12.297
	c4.723,4.373,9.38,8.584,14.34,12.718c2.442,2.035,4.822,4.086,7.105,6.3c2.121,2.055,5.751,4.329,7.21,6.893
	c0.162,0.286,0.353,0.511,0.553,0.706c-1.163,3.821-1.816,7.812-1.704,11.405c0.13,4.142,1.034,8.702,1.928,12.74
	c0.525,2.374,1.344,4.822,3.18,6.399c-5.752,4.685-11.959,8.824-17.981,13.139c-5.932,4.25-11.471,9.329-17.571,13.224
	c-2.909,1.858-5.404,3.479-8.121,5.611c-2.15,1.688-4.306,2.538-6.159,4.228c-0.015-0.018-0.029-0.035-0.045-0.054
	c-6.573-7.674-15.146-15.348-25.785-16.059c0.025-10.786,0.523-21.536,0.508-32.326C271.226,340.362,270.72,328.634,270.611,316.927
	z M263.927,392.384c-0.446,3.67-1.811,6.034-3.55,8.495c-2.119,1.197-4.391,1.856-7.066,0.808c-0.665-0.26-1.265-0.609-1.822-1.014
	c-1.67-2.388-2.971-4.719-3.405-8.287c-0.689-5.675,0.054-11.686-0.063-17.404c-0.215-10.492-0.616-20.945-0.63-31.455
	c-0.014-10.339,0.109-20.639,0.544-30.954c0.197-4.675,1.862-11.925,1.488-17.963c2.405,0.855,5.325,0.515,7.735,0.298
	c2.13-0.191,3.832,0.038,5.425-0.094c-0.326,5.997,1.299,13.138,1.494,17.759c0.434,10.314,0.558,20.616,0.544,30.954
	c-0.014,10.51-0.415,20.963-0.63,31.455C263.874,380.698,264.617,386.709,263.927,392.384z M256.005,285.445
	c-3.594-0.361-7.153,0.162-10.802-0.529c-3.961-0.749-7.955-1.576-11.68-3.152c-8.866-3.753-17.416-7.836-24.605-14.389
	c-13.264-12.091-20.307-31.379-18.707-49.204c0.815-9.076,2.9-17.199,6.734-25.454c1.762-3.794,3.453-7.528,5.709-11.073
	c2.211-3.474,4.193-7.727,7.287-10.519c6.083-5.491,12.025-10.353,18.917-14.564c1.176-0.594,2.358-1.157,3.571-1.563
	c5.379-1.799,11.319-3.676,16.945-4.319c4.88-0.558,9.28-0.933,14.148,0.158c3.978,0.892,7.03,2.429,10.936,1.72
	c2.051,0.598,4.045,1.319,5.71,2.252c8.2,4.597,14.96,10.047,21.904,16.315c3.094,2.793,5.076,7.045,7.287,10.519
	c2.255,3.544,3.947,7.279,5.709,11.073c3.834,8.255,5.919,16.378,6.734,25.454c1.6,17.825-5.443,37.113-18.707,49.204
	c-7.19,6.553-15.739,10.635-24.607,14.389c-3.724,1.576-7.72,2.402-11.679,3.152C263.159,285.608,259.599,285.084,256.005,285.445z
	 M241.276,384.431c-10.639,0.712-19.212,8.386-25.785,16.059c-0.015,0.018-0.029,0.035-0.045,0.054
	c-1.853-1.69-4.008-2.541-6.159-4.228c-2.717-2.133-5.212-3.753-8.121-5.611c-6.099-3.895-11.64-8.974-17.571-13.224
	c-6.022-4.316-12.228-8.455-17.981-13.139c1.837-1.577,2.654-4.024,3.18-6.399c0.893-4.038,1.797-8.598,1.928-12.74
	c0.11-3.512-0.508-7.404-1.623-11.147c1.326-0.862,2.411-1.964,3.689-3.107c1.205-0.912,2.382-1.891,3.526-2.912
	c1.885-1.491,3.786-2.972,5.497-4.628c4.473-4.328,9.116-8.587,13.711-12.862c4.976-4.629,10.028-9.064,14.616-14.026
	c2.973-3.215,7.993-5.97,10.693-9.689c3.964,2.019,8.07,3.761,12.143,5.106c3.204,1.059,6.549,1.673,9.899,2.106
	c-0.131,2.195-0.182,4.393-0.435,6.583c-0.626,5.412-0.987,10.854-1.039,16.3c-0.11,11.707-0.617,23.435-0.632,35.178
	C240.753,362.895,241.251,373.645,241.276,384.431z M131.033,113.088c2.828-0.646,5.524-1.986,8.164-3.153
	c4.652-2.057,9.478-3.573,14.156-5.545c8.621-3.636,17.238-7.036,25.921-10.509c15.451-6.178,30.998-12.424,46.206-19.211
	c0.788,3.921,4.066,7.904,6.847,10.124c2.107,1.684,4.664,2.279,7.074,3.391c1.622,0.748,2.98,1.43,4.485,1.622
	c-1.175,7.267-0.424,15.861-0.467,20.484c-0.067,7.39,0.057,14.775,0.621,22.127c0.249,3.234-0.54,8.268,0.62,11.835
	c-2.42,0.526-4.907,1.31-7.333,2.184c-0.61,0.14-1.221,0.28-1.833,0.444c-6.989,1.877-13.664,5.723-19.352,10.201
	c-4.204,3.31-7.992,6.867-11.437,10.667c-0.216-0.084-0.446-0.156-0.702-0.202c-6.239-1.119-12.527-6.296-18.029-9.288
	c-6.422-3.492-13.447-5.882-19.633-9.792c-5.912-3.738-12.513-6.484-18.274-10.341c-2.209-1.479-4.193-2.509-6.755-3.225
	c-3.782-1.056-6.824-2.998-10.386-4.618c-0.318-0.144-0.638-0.277-0.957-0.417C132.828,125.076,132.328,118.773,131.033,113.088z
	 M136.336,139.786c2.164,0.924,4.563,1.191,6.628,2.377c2.173,1.246,3.882,2.756,6.189,3.881
	c9.282,4.523,17.645,10.313,27.084,14.59c4.922,2.23,9.736,5.125,14.284,8.028c2.943,1.878,5.891,3.9,9.173,5.1
	c-4.106,5.362-7.666,11.158-10.806,17.415c-13.937-5.099-26.599-13.215-39.686-19.835c-8.264-4.18-16.282-8.706-24.215-13.483
	c-5.584-3.364-10.8-8.987-16.956-11.497c-1.715-3.181-1.203-9.666-0.132-11.321c1.352-2.092,4.288-5.173,6.864-5.528
	c2.771-0.381,5.786,1.7,8.153,2.864C127.475,134.62,131.682,137.8,136.336,139.786z M121.946,163.062
	c8.378,5.179,16.988,9.658,25.688,14.254c6.552,3.461,12.629,7.663,19.389,10.822c4.808,2.245,9.851,3.963,14.651,6.25
	c1.436,0.686,3.011,1.6,4.635,2.329c-5.525,13.384-6.138,30.484-2.528,44.176c2.632,9.979,7.193,19.601,13.673,27.675
	c-0.53,0.578-1.048,1.182-1.622,1.758c-2.177,2.189-4.736,3.898-7.043,5.934c-5.529,4.877-10.811,10.087-16.222,15.097
	c-4.515,4.181-9.131,8.208-13.617,12.424c-2.361,2.218-5.827,5.329-7.081,8.612c-2.054-1.176-4.179-2.201-6.311-3.054
	c-5.691-2.278-11.679-4.729-17.691-3.521c-1.163-7.14-3.332-14.468-6.302-20.254c-5.464-10.641-7.581-23.53-11.055-34.97
	c-3.737-12.303-6.739-24.758-10.771-36.999c-2.046-6.209-3.311-12.658-5.135-18.95c-1.249-4.31-3.116-9.127-4.037-13.808
	c1.293-0.172,2.574-0.36,3.825-0.565c5.222-0.856,10.688-2.848,15.393-5.235c5.689-2.884,7.557-7.585,10.9-12.787
	C121.108,162.521,121.517,162.797,121.946,163.062z M158.723,310.505c2.454-2.069,4.899-4.155,7.331-6.259
	c4.888-3.879,9.931-7.595,14.237-11.93c4.277-4.304,9.211-7.842,13.959-11.619c2.715-2.16,5.878-4.04,8.074-6.677
	c2.079,2.04,4.311,3.935,6.701,5.651c2.053,1.476,4.233,2.883,6.48,4.217c-0.096,0.102-0.202,0.2-0.3,0.301
	c-3.419,2.795-6.831,5.62-10.167,8.497c-4.573,3.945-8.534,8.432-13.043,12.336c-6.198,5.366-12.282,11.184-17.842,17.388
	c-2.419,2.154-4.851,4.444-6.695,7.084c-0.855-2.023-1.836-3.927-2.91-5.604c-2.422-3.78-5.776-6.962-9.545-9.547
	C156.176,313.003,157.427,311.733,158.723,310.505z M261.211,143.107c-0.04,0.067-0.055,0.132-0.089,0.199
	c-3.561-0.431-6.791-0.36-10.232,0.007c-0.034-0.069-0.052-0.137-0.093-0.206c-0.977-1.645-0.04-4.46-0.055-6.232
	c-0.023-2.631-0.572-5.234-0.609-7.878c-0.074-5.236-0.632-10.414-0.667-15.678c-0.045-6.621-0.822-13.594-0.331-20.175
	c0.231-3.101,1.066-7.83,2.875-10.753c1.044-0.488,2.125-0.767,3.398-0.977c2.005-0.331,2.816-0.176,4.477,0.922
	c0.045,0.029,0.083,0.053,0.127,0.081c1.799,2.924,2.629,7.635,2.86,10.726c0.491,6.581-0.286,13.554-0.331,20.175
	c-0.035,5.264-0.594,10.442-0.667,15.678c-0.038,2.644-0.585,5.247-0.608,7.878C261.251,138.647,262.189,141.462,261.211,143.107z
	 M267.968,132.416c0.564-7.351,0.689-14.736,0.621-22.127c-0.042-4.623,0.708-13.217-0.467-20.484
	c1.504-0.191,2.863-0.873,4.485-1.622c2.409-1.112,4.968-1.707,7.074-3.391c2.781-2.222,6.059-6.204,6.847-10.124
	c15.208,6.787,30.755,13.034,46.206,19.211c8.685,3.472,17.3,6.872,25.921,10.509c4.678,1.973,9.503,3.489,14.156,5.545
	c2.64,1.167,5.336,2.508,8.164,3.153c-1.296,5.685-1.795,11.989,1.062,16.775c-0.319,0.141-0.64,0.272-0.957,0.417
	c-3.562,1.622-6.603,3.562-10.386,4.618c-2.562,0.716-4.546,1.747-6.755,3.225c-5.762,3.859-12.363,6.603-18.274,10.341
	c-6.186,3.911-13.211,6.301-19.633,9.792c-5.501,2.992-11.79,8.17-18.029,9.288c-0.257,0.046-0.487,0.118-0.702,0.202
	c-3.446-3.8-7.233-7.357-11.438-10.667c-5.688-4.478-12.363-8.323-19.352-10.201c-2.781-0.747-5.526-1.208-8.3-1.617
	c-0.348-0.157-0.703-0.304-1.06-0.449C268.607,141.235,267.707,135.823,267.968,132.416z M389.096,132.377
	c2.368-1.164,5.384-3.247,8.153-2.864c2.575,0.354,5.511,3.437,6.864,5.528c1.07,1.656,1.582,8.14-0.133,11.321
	c-6.158,2.51-11.372,8.133-16.957,11.497c-7.933,4.778-15.952,9.304-24.215,13.483c-13.088,6.62-25.75,14.736-39.686,19.835
	c-3.14-6.256-6.699-12.052-10.806-17.415c3.283-1.201,6.231-3.222,9.173-5.1c4.548-2.903,9.362-5.798,14.284-8.028
	c9.44-4.276,17.802-10.067,27.084-14.59c2.307-1.124,4.017-2.636,6.189-3.881c2.065-1.184,4.464-1.453,6.628-2.377
	C380.329,137.8,384.535,134.62,389.096,132.377z M321.836,305.669c-3.319-2.928-6.791-5.652-10.25-8.395
	c-5.118-4.43-10.3-8.771-15.426-13.182c2.371-1.394,4.668-2.869,6.826-4.42c3.631-2.61,6.888-5.635,9.803-8.957
	c2.64,2.53,5.67,4.836,8.103,7.396c4.669,4.91,9.566,9.674,14.596,14.212c4.432,3.998,9.035,7.72,13.36,11.848
	c2.674,2.552,6.164,7.103,9.933,9.021c-4.485,2.772-8.524,6.335-11.32,10.699c-0.354,0.552-0.699,1.129-1.032,1.727
	C339.79,317.715,329.378,312.32,321.836,305.669z M333.905,282.631c-1.48-1.32-11.121-11.267-17.811-16.007
	c5.676-7.654,9.714-16.549,12.135-25.731c3.611-13.691,2.997-30.793-2.528-44.176c1.624-0.728,3.199-1.643,4.635-2.329
	c4.8-2.288,9.843-4.005,14.651-6.25c6.762-3.157,12.837-7.361,19.389-10.822c8.7-4.596,17.309-9.075,25.688-14.254
	c0.429-0.265,0.838-0.543,1.259-0.813c3.344,5.202,5.213,9.902,10.9,12.787c4.706,2.386,10.171,4.379,15.393,5.235
	c1.252,0.205,2.533,0.393,3.826,0.565c-0.922,4.681-2.788,9.498-4.037,13.808c-1.823,6.291-3.089,12.739-5.135,18.95
	c-4.032,12.241-7.035,24.696-10.772,36.999c-3.474,11.439-5.592,24.329-11.055,34.97c-2.971,5.785-5.14,13.114-6.302,20.254
	c-6.012-1.208-12,1.243-17.691,3.521c-0.832,0.333-1.664,0.694-2.492,1.078c-0.096-0.137-0.205-0.273-0.339-0.405
	C353.996,300.55,343.992,291.63,333.905,282.631z M394.428,93.851c2.446-3.621,5.21-7.512,8.578-10.32
	c14.183-11.827,36.252-14.465,51.593-3.92c7.368,5.064,14.513,11.364,17.164,20.279c2.596,8.73,3.105,19.498,1.664,28.466
	c-1.524,9.49-5.112,17.314-9.483,25.82c-4.099,7.978-10.333,14.371-18.998,17.165c-8.885,2.866-19.131,2.083-28.129-0.045
	c-3.806-0.9-8.082-2.229-11.618-3.921c-3.861-1.847-6.608-5.151-9.889-7.806c2.375-1.679,4.684-3.432,7-5.298
	c2.33-1.878,5.057-3.827,6.542-6.473c0.321-0.572,0.251-1.158-0.033-1.617c0.093-0.203,0.181-0.402,0.26-0.596
	c1.758-4.306,2.089-9.665-0.637-13.66c-2.46-3.605-6.954-7.377-11.5-7.731c-2.055-0.161-3.039,0.45-4.825,1.312
	c-1.945,0.939-3.924,1.765-5.905,2.584c-1.668-7.285,1.273-15.157,3.594-21.91C391.267,101.938,391.856,97.656,394.428,93.851z
	 M302.842,58.438c16.499,4.774,32.345,11.809,48.566,17.465c8.502,2.965,16.832,6.321,25.283,9.375
	c4.053,1.464,8.178,3.913,12.469,4.874c-2.69,5.178-4.568,10.692-6.372,16.418c-4.23-0.511-8.66-3.595-12.56-5.115
	c-4.553-1.775-9.051-3.503-13.55-5.393c-7.891-3.316-15.9-6.14-23.852-9.349c-14.853-5.995-29.421-12.864-44.528-18.143
	c-4.774-1.667-9.148-3.74-13.438-6.431c-2.934-1.841-4.962-2.844-3.9-6.476c1.074-3.675,4.102-4.399,7.81-4.319
	C286.853,51.517,295.165,56.217,302.842,58.438z M222.361,41.47c0.42-6.075,2.687-12.363,5.546-17.778
	c1.502-2.846,3.129-5.305,5.106-7.451c1.489-0.959,2.956-1.967,4.468-2.685c4.892-2.324,9.263-3.927,14.577-5.044
	c5.366-1.128,9.727-0.675,14.838,1.167c3.493,1.258,6.395,3.83,10.033,4.571c2.958,2.579,5.182,5.668,7.174,9.442
	c2.858,5.416,5.126,11.704,5.546,17.778c0.102,1.47,0.054,4.193,0.611,6.376c-3.821-1.228-7.677-2.147-11.49-2.21
	c-6.975-0.115-14.738,3.595-14.291,11.619c0.423,7.605,10.1,11.977,16.127,14.738c-1.754,1.932-3.024,4.501-4.955,6.193
	c-2.333,2.045-6.722,3.305-9.861,4.193c-0.167-0.301-0.354-0.58-0.539-0.862c0.036-0.543-0.127-1.092-0.555-1.464
	c-1.518-1.324-3.081-3.126-4.942-3.928c-2.252-0.971-5.202-0.145-7.471,0.465c-2.73,0.735-5.389,2.951-6.389,5.695
	c-3.112-0.883-7.279-2.122-9.536-4.099c-1.931-1.692-3.201-4.26-4.955-6.193c6.028-2.762,15.704-7.133,16.127-14.738
	c0.447-8.024-7.317-11.734-14.291-11.619c-3.813,0.063-7.669,0.981-11.49,2.21C222.307,45.663,222.259,42.94,222.361,41.47z
	 M135.319,85.278c8.452-3.054,16.782-6.41,25.283-9.375c16.221-5.655,32.067-12.691,48.566-17.465
	c7.677-2.222,15.989-6.921,24.071-7.095c3.707-0.08,6.735,0.644,7.81,4.319c1.062,3.632-0.966,4.636-3.9,6.476
	c-4.289,2.691-8.663,4.763-13.438,6.431c-15.107,5.278-29.675,12.148-44.528,18.143c-7.951,3.209-15.961,6.032-23.852,9.349
	c-4.5,1.891-8.998,3.618-13.55,5.393c-3.9,1.521-8.329,4.604-12.56,5.115c-1.804-5.725-3.683-11.24-6.372-16.418
	C127.141,89.191,131.266,86.742,135.319,85.278z M67.064,171.341c-8.663-2.793-14.897-9.186-18.996-17.165
	c-4.371-8.506-7.959-16.331-9.483-25.82c-1.441-8.968-0.931-19.736,1.664-28.466c2.651-8.917,9.795-15.215,17.164-20.279
	c15.342-10.544,37.41-7.907,51.593,3.92c3.367,2.808,6.132,6.7,8.578,10.32c2.571,3.805,3.161,8.087,4.618,12.33
	c2.32,6.753,5.262,14.625,3.594,21.91c-1.98-0.82-3.959-1.645-5.905-2.584c-1.785-0.862-2.768-1.473-4.824-1.312
	c-4.546,0.355-9.04,4.126-11.5,7.731c-2.725,3.995-2.393,9.354-0.635,13.66c0.08,0.193,0.168,0.394,0.26,0.596
	c-0.284,0.457-0.355,1.044-0.033,1.617c1.486,2.646,4.212,4.594,6.542,6.473c2.316,1.867,4.624,3.621,7,5.298
	c-3.281,2.657-6.027,5.96-9.889,7.806c-3.536,1.692-7.812,3.02-11.618,3.921C86.195,173.425,75.948,174.207,67.064,171.341z
	 M93.012,263.487c-2.128-9.286-4.875-18.484-7.326-27.73c-2.973-11.221-6.099-22.201-8.405-33.607
	c-1.292-6.389-2.591-12.775-4.484-19.021c-0.175-0.576-0.352-1.215-0.545-1.882c4.026,0.496,8.159,0.505,12.225,0.218
	c1.278,7.396,4.433,14.882,6.266,21.914c2.613,10.028,5.637,19.789,8.938,29.618c1.578,4.7,2.289,9.536,3.646,14.289
	c1.569,5.494,3.603,10.849,5.147,16.348c1.457,5.188,2.561,10.564,4.312,15.653c1.591,4.62,4.178,8.967,5.491,13.598
	c1.408,4.965,2.905,10.14,3.603,15.254c0.325,2.382,0.909,5.561,0.759,7.913c-0.075,1.184-0.191,3.326-0.898,4.314
	c-2.951,4.126-5.875,2.108-8.397,0.416c-8.782-5.892-9.304-17.49-12.46-26.66C97.489,284.26,95.345,273.667,93.012,263.487z
	 M113.877,407.879c-0.499,6.491-1.523,13.114-2.565,19.533c-1.087,6.691-2.276,13.537-3.849,20.134
	c-1.297,5.433-2.003,10.872-3.262,16.29c-2.363,10.165-4.079,18.009,4.27,25.573c3.404,3.084,5.354,10.169,0.727,13.357
	c-4.709,3.245-12.806,0.828-18.207,0.911c-11.153,0.17-22.453-0.846-33.543-1.992c-5.235-0.54-10.329-1.62-15.594-1.986
	c-3.257-0.226-7.013,0.84-10.13,0.367c-7.806-1.183-1.115-11.657,3.492-13.125c4.593-1.463,5.655-3.404,8.055-7.79
	c5.662-10.347,9.703-21.267,14.785-31.905c5.78-12.101,11.842-23.991,17.623-36.099c2.644-5.539,5.247-11.3,7.572-16.947
	c1.693-4.113,4.052-8.806,5.535-13.364c3.882,4.23,8.642,8.083,13.857,11.083c-1.602,2.909-3.697,5.579-5.18,8.638
	c-1.935,3.989-3.944,7.963-5.868,11.929c-3.467,7.146-7.993,13.807-12.073,20.591c-7.902,13.138-13.569,27.704-20.396,41.531
	c-2.053,4.159-4.536,9.717,0.87,12.357c3.37,1.646,7.377,1.354,10.952,2.123c4.28,0.92,8.002,1.616,12.363,1.482
	c7.894-0.243,11.79-2.693,13.016-10.829c1.289-8.56,1.384-17.292,2.678-25.841c1.501-9.909,1.871-19.966,3.172-29.943
	c1.249-9.576,3.346-18.93,5.356-28.343c0.094-0.44,0.081-0.836,0.002-1.194c2.386,1.065,4.834,1.938,7.309,2.578
	C114.27,400.597,114.146,404.386,113.877,407.879z M78.361,474.058c4.156-3.059,9.558-5.4,13.573-8.778
	c-0.367,2.874-0.718,5.744-0.987,8.599c-0.226,2.386,0.101,6.174-1.221,8.32c-1.67,2.711-6.956,2.701-9.8,2.547
	c-3.283-0.177-6.392-1.381-9.603-1.94c-1.026-0.178-2.633-0.083-3.986-0.212C70.545,480.068,74.389,476.981,78.361,474.058z
	 M63.297,480.285c0.097-0.688,0.687-1.436,1.206-2.534c0.883-1.867,1.782-3.72,2.635-5.604c1.89-4.175,3.651-8.383,5.669-12.494
	c1.163-2.371,2.284-4.664,3.316-7.035c3.49,3.563,9.879,6.508,12.957,9.357c-4.059,3.598-9.811,6.188-14.024,9.433
	c-2.484,1.913-4.991,3.795-7.479,5.703C67.664,477.042,65.193,478.781,63.297,480.285z M86.481,453.514
	c-1.523-1.281-5.995-3.25-6.454-5.069c-0.279-1.104-0.824-0.34,1.248-1.782c1.96-1.366,3.999-2.434,6.029-3.667
	c2.441-1.483,4.753-3.508,7.219-5.064c-0.212,2.537-0.39,5.07-0.508,7.585c-0.213,4.569-0.737,9.183-1.319,13.799
	C90.866,457.183,88.535,455.244,86.481,453.514z M82.403,440.073c-0.026,0.014-0.057,0.029-0.083,0.043
	c0.429-0.739,0.857-1.482,1.276-2.239c3.791-6.868,8.497-13.438,11.942-20.492c0.891-1.826,1.753-3.667,2.615-5.507
	c-0.354,2.306-0.696,4.618-1.116,6.913c-0.842,4.611-1.509,9.312-2.021,14.024C90.585,433.833,86.391,437.948,82.403,440.073z
	 M116.934,389.278c-10.193-2.994-19.075-8.309-25.672-16.77c-6.67-8.553-7.824-20.133-5.008-30.291
	c2.847-10.269,8.601-18.056,14.745-26.433c2.714,5.453,6.836,10.109,12.659,12.545c8.524,3.565,15.312-3.985,15.173-12.275
	c-0.028-1.643-0.132-3.354-0.298-5.101c4.214,1.267,8.546,1.99,12.653,4.027c4.883,2.423,10.177,4.929,13.993,9.027
	c4.352,4.671,6.318,11.619,7.126,17.785c0.437,3.339-0.125,6.001-0.728,9.284c-0.387,2.108-0.157,6.003-1.845,7.599
	c-0.244,0.231-0.437,0.476-0.604,0.728c-3.847-2.486-8.143-4.398-12.601-4.927c-9.88-1.172-15.359,12.767-11.943,20.618
	c1.025,2.357,3.531,3.828,5.497,5.298c1.29,0.965,2.569,1.946,3.849,2.926C136.387,389.405,126.298,392.029,116.934,389.278z
	 M205.39,418.307c-5.635-2.596-10.569-7.777-15.794-10.869c-6.605-3.907-12.557-9.173-19.022-13.4
	c-7.494-4.9-15.16-9.193-22.348-14.597c-3.617-2.719-7.972-4.746-8.688-9.489c-0.591-3.913,0.777-6.851,4.291-8.503
	c2.024-0.952,4.423-0.375,7.86,1.242c3.725,1.752,6.783,4.142,9.912,6.757c5.906,4.935,12.454,9.196,18.72,13.638
	c6.192,4.39,11.916,9.608,18.556,13.283c4.84,2.679,9.023,5.879,14.363,6.912C209.681,407.933,206.961,412.9,205.39,418.307z
	 M298.063,483.408c4.071,2.651,8.894,3.194,10.53,8.183c0.519,1.584,2.183,9.578,0.865,11.245c0.48-0.607-3.225,0.059-4,0.147
	c-2.04,0.232-4.192,0.587-6.254,0.639c0.145-0.652,0.217-1.342,0.271-2.06c0.141-1.878,0.311-3.898,0.14-5.772
	c-0.419-4.568-6.682-4.56-7.099,0c-0.171,1.874-0.001,3.894,0.14,5.772c0.048,0.639,0.115,1.253,0.229,1.842
	c-3.208-0.193-6.42-0.424-9.648-0.455c0.335-1.442,0.368-2.999,0.236-4.382c-0.181-1.877-0.73-4.389-2.578-5.275
	c-1.994-0.958-3.903-0.406-5.171,1.355c-1.199,1.667-0.304,3.052,0.035,4.709c0.217,1.06,0.074,2.219,0.265,3.304
	c0.026,0.147,0.061,0.291,0.095,0.435c-1.104,0.004-2.212,0.055-3.305,0.089c-0.305,0.009-0.624,0.011-0.937,0.016
	c-1.905-0.686-3.993-0.824-6.098-0.87c-0.178-1.243-0.684-2.42-1.142-3.601c-0.399-1.026-1.527-3.116-2.395-4.542
	c-0.823-1.35-2.637-1.25-3.48,0c-0.861,1.276-1.337,2.497-1.369,4.039c-0.019,0.874-0.185,1.83-0.13,2.8
	c0.027,0.142,0.115,0.868,0.168,1.325c-2.159,0.043-4.316,0.097-6.473,0.117c-0.421-3.02-0.495-6.051-3.003-8.199
	c-1.457-1.247-3.533-0.389-3.675,1.522c-0.122,1.64-0.771,3.319-0.93,4.996c-0.047,0.495-0.081,0.975-0.098,1.452
	c-2.372-0.165-4.725-0.324-7.198-0.148c0.08-0.915,0.022-1.857,0.202-2.734c0.339-1.656,1.235-3.041,0.035-4.709
	c-1.267-1.762-3.176-2.313-5.171-1.355c-1.847,0.888-2.398,3.398-2.578,5.275c-0.132,1.382-0.1,2.939,0.236,4.382
	c-3.229,0.03-6.442,0.261-9.649,0.455c0.115-0.587,0.181-1.203,0.229-1.842c0.141-1.878,0.311-3.898,0.14-5.772
	c-0.417-4.56-6.681-4.568-7.099,0c-0.171,1.874-0.001,3.894,0.14,5.772c0.054,0.718,0.125,1.408,0.271,2.06
	c-2.064-0.052-4.214-0.407-6.254-0.639c-0.774-0.088-4.48-0.754-4-0.147c-1.318-1.666,0.346-9.66,0.865-11.245
	c1.637-4.989,6.459-5.532,10.531-8.183c4.06-2.643,10.006-7.186,10.528-12.385c2.531,1.542,5.235,2.718,8.072,3.558
	c6.564,2.905,12.523,4.182,19.733,4.783c5.844,0.487,12.114,0.692,18-0.714c2.965-0.708,7.185-2.146,10.305-4.4
	c2.431-0.811,4.752-1.888,6.949-3.225C288.057,476.221,294.003,480.765,298.063,483.408z M300.484,429.946
	c-0.192,5.3,0.189,10.675-1.659,15.771c-1.661,4.582-5.488,9.227-8.73,12.766c-3.48,3.799-7.749,6.072-12.238,7.98
	c-3.418,0.735-6.82,2.394-10.125,2.935c-5.452,0.892-10.977,0.644-16.418,0.56c-6.839-0.105-12.976-2.189-19.168-4.997
	c-2.53-1.147-5.539-3.37-8.55-4.829c-0.576-0.521-1.141-1.061-1.68-1.65c-3.242-3.539-7.068-8.184-8.729-12.766
	c-1.848-5.097-1.467-10.473-1.659-15.771c-0.692-19.097,14.405-33.16,29.777-42.067c0.042,2.353,0.243,4.719,0.694,6.977
	c-0.875,5.915,3.93,12.093,9.278,14.212c3.697,1.466,8.137,1.415,11.692-0.455c3.732-1.963,4.539-4.78,5.303-8.411
	c1.768-3.638,2.359-8.004,2.438-12.323C286.078,396.788,301.176,410.85,300.484,429.946z M363.786,379.442
	c-7.188,5.403-14.854,9.698-22.348,14.597c-6.465,4.227-12.418,9.494-19.022,13.4c-5.226,3.091-10.159,8.272-15.794,10.869
	c-1.571-5.407-4.29-10.373-7.847-15.026c5.339-1.033,9.523-4.233,14.362-6.912c6.64-3.676,12.364-8.893,18.557-13.283
	c6.267-4.443,12.814-8.703,18.72-13.638c3.129-2.615,6.187-5.004,9.912-6.757c3.438-1.617,5.837-2.194,7.86-1.242
	c3.513,1.653,4.882,4.59,4.29,8.503C371.757,374.696,367.403,376.722,363.786,379.442z M395.077,389.278
	c-9.366,2.751-19.454,0.127-26.996-5.961c1.28-0.98,2.56-1.962,3.849-2.926c1.965-1.47,4.472-2.942,5.497-5.298
	c3.417-7.851-2.064-21.79-11.943-20.618c-4.458,0.529-8.755,2.442-12.601,4.927c-0.166-0.251-0.36-0.497-0.604-0.728
	c-1.688-1.596-1.457-5.491-1.845-7.599c-0.603-3.283-1.165-5.944-0.728-9.284c0.808-6.166,2.774-13.113,7.126-17.785
	c3.816-4.098,9.111-6.605,13.993-9.027c4.106-2.038,8.438-2.759,12.653-4.027c-0.166,1.747-0.27,3.459-0.298,5.101
	c-0.14,8.289,6.649,15.84,15.173,12.275c5.824-2.435,9.944-7.092,12.659-12.545c6.144,8.377,11.898,16.165,14.745,26.433
	c2.815,10.158,1.664,21.738-5.008,30.291C414.152,380.969,405.271,386.283,395.077,389.278z M480.288,500.066
	c-3.118,0.473-6.873-0.593-10.13-0.367c-5.264,0.366-10.359,1.446-15.594,1.986c-11.089,1.146-22.39,2.162-33.543,1.992
	c-5.402-0.082-13.499,2.334-18.207-0.911c-4.627-3.189-2.678-10.273,0.727-13.357c8.35-7.564,6.634-15.407,4.271-25.573
	c-1.259-5.418-1.966-10.857-3.262-16.29c-1.573-6.595-2.764-13.442-3.849-20.134c-1.042-6.419-2.066-13.044-2.565-19.533
	c-0.268-3.493-0.393-7.283-0.966-10.882c2.475-0.64,4.924-1.514,7.309-2.578c-0.079,0.358-0.093,0.754,0.001,1.194
	c2.01,9.414,4.107,18.768,5.356,28.343c1.3,9.977,1.672,20.034,3.173,29.943c1.294,8.548,1.389,17.28,2.678,25.841
	c1.225,8.136,5.121,10.587,13.016,10.829c4.36,0.134,8.083-0.562,12.363-1.482c3.575-0.769,7.582-0.477,10.952-2.123
	c5.406-2.64,2.924-8.199,0.87-12.357c-6.827-13.827-12.494-28.394-20.396-41.531c-4.08-6.783-8.606-13.444-12.072-20.591
	c-1.924-3.966-3.934-7.941-5.868-11.929c-1.483-3.059-3.577-5.729-5.179-8.638c5.214-3,9.975-6.852,13.856-11.083
	c1.484,4.557,3.842,9.251,5.535,13.364c2.325,5.647,4.928,11.408,7.572,16.947c5.781,12.108,11.843,23.999,17.623,36.099
	c5.082,10.638,9.123,21.558,14.784,31.905c2.399,4.385,3.462,6.325,8.055,7.79C481.403,488.409,488.095,498.883,480.288,500.066z
	 M444.434,477.109c-2.488-1.908-4.996-3.789-7.479-5.703c-4.213-3.244-9.965-5.834-14.024-9.433
	c3.078-2.848,9.467-5.794,12.958-9.357c1.032,2.371,2.153,4.664,3.316,7.035c2.018,4.111,3.78,8.319,5.669,12.494
	c0.852,1.884,1.752,3.739,2.635,5.604c0.519,1.097,1.109,1.845,1.206,2.534C446.818,478.781,444.348,477.042,444.434,477.109z
	 M445.675,482.593c-1.353,0.129-2.962,0.034-3.986,0.212c-3.21,0.559-6.32,1.762-9.603,1.94c-2.843,0.154-8.13,0.164-9.8-2.547
	c-1.323-2.146-0.995-5.934-1.221-8.32c-0.271-2.855-0.621-5.725-0.987-8.599c4.015,3.379,9.415,5.719,13.573,8.778
	C437.621,476.981,441.466,480.068,445.675,482.593z M431.984,448.447c-0.46,1.817-4.931,3.786-6.454,5.069
	c-2.054,1.729-4.385,3.669-6.214,5.803c-0.583-4.617-1.106-9.23-1.32-13.799c-0.117-2.516-0.295-5.049-0.508-7.585
	c2.466,1.556,4.778,3.581,7.219,5.064c2.031,1.233,4.07,2.302,6.03,3.667C432.808,448.107,432.263,447.341,431.984,448.447z
	 M429.608,440.073c-3.988-2.126-8.183-6.241-12.61-7.259c-0.514-4.712-1.18-9.413-2.021-14.024
	c-0.419-2.295-0.761-4.607-1.116-6.913c0.862,1.841,1.724,3.682,2.615,5.507c3.445,7.055,8.151,13.624,11.942,20.492
	c0.419,0.759,0.846,1.501,1.276,2.239C429.665,440.102,429.635,440.087,429.608,440.073z"/>
<g>
</g>
<g>
</g>
<g>
</g>
<g>
</g>
<g>
</g>
<g>
</g>
<g>
</g>
<g>
</g>
<g>
</g>
<g>
</g>
<g>
</g>
<g>
</g>
<g>
</g>
<g>
</g>
<g>
</g>
</svg>
