<?xml version="1.0" encoding="iso-8859-1"?>
<!-- Generator: Adobe Illustrator 19.0.0, SVG Export Plug-In . SVG Version: 6.00 Build 0)  -->
<svg version="1.1" id="Layer_1" xmlns="http://www.w3.org/2000/svg" xmlns:xlink="http://www.w3.org/1999/xlink" x="0px" y="0px"
	 viewBox="0 0 512.002 512.002" style="enable-background:new 0 0 512.002 512.002;" xml:space="preserve">
<path style="fill:#E2BF7F;" d="M504.789,348.678c-1.957-1.422-4.264-2.421-5.859-4.241c-1.467-1.674-2.182-3.901-2.399-6.115
	c-0.233-2.38,0.27-4.698-0.206-7.03c-0.546-2.679-0.227-5.629-0.135-8.35c0.011-0.3,0.021-0.599,0.033-0.899
	c0.338-9.005-0.258-18.013-0.015-27.02c0.123-4.588,0.571-9.099,1.232-13.636c0.224-1.536-0.137-2.872-0.118-4.397
	c0.028-2.277,0.314-4.579,0.471-6.85c0.203-2.932,0.406-5.864,0.61-8.797c0.168-2.428,0.326-4.936-0.48-7.233
	c-1.026-2.926-3.525-5.148-6.31-6.515c-1.745-0.857-3.592-1.253-5.407-1.879c-2.044-0.705-4.032-1.641-6.048-2.426
	c-4.045-1.571-8.121-3.058-12.23-4.458c-8.214-2.8-16.546-5.254-24.965-7.356c-16.839-4.205-34.029-7.006-51.333-8.358
	c-2.167-0.169-4.334-0.325-6.503-0.461c-2.114-0.132-3.88-0.59-5.935-1.07c-4.338-1.016-8.702-1.924-13.085-2.722
	c-8.767-1.597-17.613-2.759-26.496-3.482c-4.533-0.369-9.074-0.625-13.619-0.767c-2.319-0.072-4.639-0.115-6.958-0.127
	c-2.078-0.012-4.467,0.351-6.5-0.073c-8.532-1.772-17.507-2.242-26.222-2.743c-18.321-1.055-36.725-0.688-54.989,1.104
	c-0.639,0.063-1.278,0.128-1.917,0.193c-2.028,0.21-5.033,0.555-7.732,0.198c-2.408-0.319-4.572-1.196-5.583-3.224
	c-0.796-1.6-0.722-3.476-1.045-5.235c-0.426-2.327-1.59-4.514-3.282-6.167c-2.002-1.957-4.584-3.13-6.806-4.733
	c-2.141-1.544-2.77-4.734-3.174-7.156c-0.475-2.854-0.947-5.971-3.074-7.931c-1.593-1.469-3.824-1.992-5.692-3.089
	c-2.797-1.644-4.035-4.159-4.934-7.131c-1.028-3.4-2.627-6.583-3.474-10.079c-0.51-2.109-1.284-4.178-1.449-6.353
	c-0.184-2.422,0.128-4.85,0.305-7.262c0.287-3.899,0.019-8.283-2.808-10.984c-2.24-2.141-5.539-2.678-8.236-4.203
	c-4.993-2.823-5.691-7.672-6.961-12.717c-2.864-11.383-6.288-22.418-8.776-33.879c-1.237-5.696-3.513-11.62-8.361-14.857
	c-4.024-2.686-9.186-3.059-13.989-2.482c-6.458,0.775-12.337,3.101-18.578,4.382c-7.479,1.536-15.039,2.468-22.486,4.243
	c-14.193,3.382-28.083,8.047-41.431,13.94c-5.996,2.646-12.074,5.684-16.259,10.726c-7.342,8.846-6.283,19.758-6.631,30.43
	c-0.284,8.682-1.417,17.572-2.985,26.105c-1.178,6.413-1.393,14.309-6.471,19.156c-2.442,2.331-5.945,3.957-6.891,7.197
	c-0.835,2.858,0.701,5.832,2.313,8.336c4.419,6.866,2.603,16.31,3.291,24.42c0.626,7.392,0.8,14.945,1.772,22.295
	c0.423,3.203,0.992,6.689,0.114,9.866c-1.084,3.922-4.941,5.256-6.301,8.584c-1.879,4.601,1.376,14.717,1.415,19.725
	c0.109,14.343-0.366,29.714,1.426,43.906c1.433,11.349,1.335,22.238-9.471,29.441c-1.582,1.054-3.346,1.985-4.378,3.581
	c-1.032,1.597-0.911,4.142,0.795,4.98c1.351,0.664,3.093,0.007,4.409,0.735c2.15,1.188,1.219,4.371,1.034,6.82
	c-0.267,3.542,1.688,6.813,2.822,10.179c1.983,5.893,1.223,13.34,1.348,19.542c0.169,8.355-0.578,16.713-0.719,25.064
	c-0.091,5.461-0.395,10.935-0.125,16.38c0.182,3.674,0.268,7.46,4.25,9.153c2.624,1.116,5.917,0.392,7.831-1.722
	c1.345-1.485,2.054-3.559,3.714-4.681c1.544-1.043,3.547-1.019,5.41-0.956c3.657,0.123,7.314,0.247,10.97,0.371
	c1.31,0.045,2.697,0.113,3.782,0.846c1.05,0.712,1.627,1.917,2.376,2.942c1.372,1.878,3.45,3.228,5.725,3.717
	c3.419,0.735,6.958-0.442,10.098-1.981c3.14-1.539,6.128-3.472,9.498-4.405c2.459-0.681,5.023-0.796,7.56-0.757
	c1.018,0.015,2.107,0.226,3.106,0.195c1.216-0.039,2.428-0.402,3.66-0.446c5.065-0.177,10.003,1.491,14.697,3.208
	c5.958,2.18,12.192,4.551,18.469,3.629c3.677-0.54,7.057-2.168,10.445-3.604c3.584-1.518,6.877-2.345,10.752-2.672
	c8.515-0.72,17.1-0.64,25.6,0.24c2.637,0.273,5.327,0.641,7.684,1.855c3.017,1.553,5.271,4.386,8.402,5.696
	c3.772,1.578,8.108,0.662,11.955-0.721c3.62-1.301,7.379-3.189,11.178-3.806c4.474-0.726,9.289-0.591,13.815-0.78
	c9.218-0.385,18.446-0.497,27.67-0.339c9.22,0.157,18.435,0.586,27.63,1.285c2.224,0.169,3.964,0.163,6.148-0.25
	c2.128-0.402,4.264-0.769,6.417-1.009c4.217-0.471,8.557-0.474,12.656,0.748c0.327,0.097,0.653,0.203,0.975,0.314
	c3.285,1.144,6.251,3.071,9.526,4.245c4.16,1.494,8.766,1.716,13.05,0.632c1.661-0.421,2.705-1.247,3.447-2.814
	c0.53-1.118,0.965-2.357,1.937-3.122c0.99-0.78,2.328-0.904,3.586-0.988c6.459-0.429,12.959-0.6,19.414-0.509
	c5.866,0.083,12.137-2.392,17.8,0.06c2.359,1.021,4.284,2.828,6.521,4.092c5.895,3.33,13.251,2.545,19.756,0.672
	c10.457-3.012,21.141-4.891,32.039-5.527c2.947-0.172,6.046-0.226,8.679,1.109c2.35,1.191,4.079,3.372,6.421,4.577
	c3.441,1.77,7.645,1.151,11.266-0.217c3.51-1.326,6.75-3.299,10.268-4.601c3.518-1.303,7.535-1.886,10.971-0.38
	c2.366,1.038,4.007,3.568,6.284,4.445c2.515,0.97,6.335,0.634,8.842-0.144c3.044-0.945,5.793-3.286,6.535-6.385
	c0.442-1.847,0.157-3.779-0.095-5.66c-1.218-9.059-1.654-18.221-1.311-27.354c0.345-9.182-0.082-18.271-0.403-27.465
	c-0.054-1.55-0.069-3.234,0.857-4.476c0.994-1.333,2.935-1.952,3.409-3.544c0.583-1.956-1.478-3.836-1.297-5.869
	c0.304-3.381,5.046-4.493,5.699-7.834C508.487,352.361,506.746,350.1,504.789,348.678z M85.016,213.259
	c-2.656-11.931-3.353-24.206-1.795-36.34c0.154-1.196,1.077-1.87,2.032-2.014c1.063-0.642,2.651-0.016,2.483,1.358
	c0.855,0.181,1.631,0.759,1.979,1.84c0.43,1.331,0.712,2.686,0.964,4.047c0.013,0.066,0.029,0.131,0.042,0.197
	c1.936,6.012,2.368,12.398,3.053,18.714c0.635,5.857,1.226,12.068-5.63,13.976C86.871,215.39,85.314,214.598,85.016,213.259z
	 M96.454,420.168c-9.827,2.94-6.357-14.19-6.258-18.373c0.298-12.668-1.194-28.187,6.406-39.192
	c0.006-0.293,0.005-0.586,0.013-0.879c0.084-3.208,4.868-3.196,4.973,0c0.456,13.772,0.156,27.512,0.111,41.277
	C101.686,407.55,102.256,418.431,96.454,420.168z M102.129,291.804c0.064,4.155,2.072,18.768-5.875,18.008
	c-7.945-0.76-4.542-16.331-4.696-21.058c-0.321-9.852-2.395-24.208,3.842-32.719c0.438-0.599,1.393-0.691,1.898-0.251
	c1.225-0.325,2.809,0.496,3.222,1.727C104.291,268.749,101.951,280.252,102.129,291.804z M135.577,182.255
	c-0.354-8.569-0.654-21.563,5.938-28.097c0.63-1.385,2.311-2.328,3.759-1.294c1.592,1.137,2.516,2.223,2.746,3.672
	c3.124,4.548,6.352,8.448,8.16,14.1c2.279,7.125,4.3,14.425,5.703,21.779c0.613,3.216,1.062,6.181-1.883,8.281
	c-3.069,2.188-8.405,3.64-12.116,3.905C136.374,205.422,135.923,190.656,135.577,182.255z M174.362,412.307
	c-1.83,6.323-5.556,6.176-11.335,6.809c-4.676,0.512-10.685,1.733-12.817-3.729c-0.93-2.381-0.672-5.143-0.797-7.636
	c-0.193-3.824-0.61-7.632-0.734-11.464c-0.505-15.523,1.708-33.372,11.436-46.1c0.252-0.644,0.768-1.191,1.619-1.444
	c4.551-1.354,8.48,5.379,9.463,8.858c2.561,9.062,2.627,19.255,3.439,28.582C175.379,394.74,176.8,403.88,174.362,412.307z
	 M178.085,299.467c-3.2,5.594-11.337,4.59-16.803,5.319c-5.291,0.706-11.036,0.715-12.358-5.44c-0.59-2.746-0.27-5.621-0.274-8.403
	c-0.007-3.834-0.457-7.663-0.594-11.497c-0.467-12.968,0.551-29.973,11.599-38.601c0.229-1.367,1.494-2.66,3.283-2.405
	c6.673,0.953,10.058,7.995,12.184,13.654c3.475,9.253,4.211,19.351,4.164,29.15C179.257,286.878,181.043,294.296,178.085,299.467z
	 M244.218,383.999c-0.22,4.855-0.551,9.709-0.72,14.566c-0.138,4.005,0.707,7.866,0.626,11.823
	c-0.138,6.725-5.814,7.155-11.328,7.703c-6.996,0.695-11.449-0.404-11.744-8.45c-0.374-10.195-0.93-20.576,0.324-30.737
	c1.12-9.082,4.747-17.181,8.362-25.441c-0.488-0.399-0.855-1.011-0.953-1.847c-0.03-0.254-0.061-0.509-0.09-0.763
	c-0.122-1.026,0.895-2.32,1.892-2.486c11.355-1.872,13.514,12.271,13.917,20.477C244.75,373.903,244.448,378.948,244.218,383.999z
	 M253.655,298.99c-5.512,2.436-7.338-6.578-8.453-9.894c-0.721-2.143-1.568-4.23-2.455-6.302c-1.072-1.532-1.761-3.289-2.237-5.132
	c-0.21-0.481-0.422-0.959-0.628-1.442c-2.906-6.806-6.357-13.781-8.528-20.918c-2.259-0.885-2.436-4.771,0.304-5.418
	c4.882-1.151,9.637-1.619,13.859,1.548c0.721,0.54,1.396,1.15,2.035,1.806c1.333-0.73,3.176-0.62,3.976,0.974
	c1.358,2.709,2.416,5.166,2.824,7.86c0.818,5.394,3,10.173,2.959,15.792c-0.016,2.199-0.572,4.25-0.783,6.366
	c-0.028,0.28-0.05,0.563-0.063,0.845C256.265,289.143,258.561,296.821,253.655,298.99z M292.559,300.268
	c-3.489,2.78-8.589-0.454-12.429-0.49c-3.812-0.036-8.417,0.617-9.961-3.918c-0.888-2.604-0.261-6.073-0.245-8.762
	c0.022-3.717,0.06-7.433,0.286-11.144c0.545-8.962,2.581-22.782,13.419-24.335c0.299-0.294,0.771-0.428,1.133-0.175
	c0.027,0.019,0.052,0.038,0.079,0.056c0.198-0.012,0.392-0.029,0.594-0.032c1.507-0.025,2.211,1.012,2.205,2.121
	c3.284,2.622,5.939,5.603,6.947,10.016c1.556,6.816,0.121,13.944,0.419,20.844C295.202,289.002,296.783,296.902,292.559,300.268z
	 M357.807,417.889c-4.302,2.139-11.314,2.528-15.846,1.014c-9.926-3.313-5.751-20.48-4.749-27.753
	c1.095-7.95,1.647-15.931,3.099-23.841c1.181-6.428,1.902-13.004,7.309-16.93c0.061-2.527,3.935-3.482,4.517-0.714
	c0.675,3.209,3.996,5.733,5.744,8.426c2.237,3.445,3.364,7.484,3.945,11.517c1.389,9.64,0.58,19.48,1.036,29.173
	C363.167,405.278,364.842,414.389,357.807,417.889z M364.063,288.233c-0.008,4.181,0.647,12.415-3.447,15.245
	c-4.629,3.202-13.332,0.277-18.364-0.43c-5.177-0.727-8.08-2.08-8.983-7.617c-1.293-7.929-0.423-16.419,0.11-24.385
	c0.653-9.76,2.609-28.045,14.347-31.093c0.327-1.21,1.711-2.191,2.992-1.817c6.32,1.845,8.689,9.687,10.47,15.306
	c1.694,5.347,1.903,10.909,2.447,16.455c0.393,4.012,1.189,8.151,0.284,12.03C364.013,284.028,364.067,286.131,364.063,288.233z
	 M412.644,260.55c0.03-0.605,0.049-1.21,0.104-1.814c0-0.006,0.002-0.012,0.004-0.018c0.001-0.249,0.011-0.497,0.011-0.746
	c-0.007-2.844,3.35-3.137,4.63-1.262c0.178,0.178,0.347,0.382,0.49,0.634c2.432,4.262,2.434,9.501,2.031,14.361
	c1.929,12.172,3.593,24.885-0.215,36.293c-0.382,1.147-1.665,2.101-2.919,1.658c-1.542-0.544-2.851-1.103-3.924-1.825
	c-0.174-0.096-0.341-0.212-0.496-0.361c-1.523-1.191-2.493-2.822-2.883-5.436c-0.821-5.507,0.587-11.213,0.586-16.745
	C410.062,277.133,408.864,267.953,412.644,260.55z M416.076,419.526c-10.688,0.068-7.67-15.61-7.644-21.922
	c0.043-10.26-0.701-24.488,4.53-33.91c-0.346-1.807,2.307-3.001,3.589-1.677c7.173,7.416,5.839,23.156,6.097,32.517
	C422.796,399.934,425.409,419.467,416.076,419.526z"/>
<g>
	<path style="fill:#A0774A;" d="M36.466,194.451c-3.846,4.299-3.833,9.253-3.29,14.67c0.577,5.769-1.598,14.767,1.238,19.915
		c1.478,2.682,6.786,1.178,9.101-0.578c2.345-1.779,1.749-5.349,1.743-8.085c-0.008-4.551,0.156-9.133,0.163-13.661
		c0.005-3.234-0.471-7.628-2.142-10.51C40.952,192.185,39.15,194.803,36.466,194.451z"/>
	<path style="fill:#A0774A;" d="M80.725,173.348c-7.455,3.243-9.751,14.958-10.559,22.033c-0.48,4.196-0.177,8.384,0.022,12.574
		c0.08,1.668-0.494,5.754,0.491,7.1c1.764,2.409,10.315,1.939,11.874-0.301c1.798-2.584,0.004-7.901-0.373-10.762
		c-0.537-4.093-0.892-8.145-1.229-12.274c-0.388-4.765,0.059-8.54,1.741-13.02c0.394-1.05,2.112-4.184,1.796-5.276
		C83.66,170.552,81.48,173.943,80.725,173.348z"/>
	<path style="fill:#A0774A;" d="M135.536,157.227c-3.167,5.666-7.74,8.913-8.793,15.812c-1.202,7.876-1.246,17.081,0.229,24.871
		c0.941,4.973,2.069,7.247,7.392,7.094c3.02-0.087,3.401-0.689,3.239-4.264c-0.189-4.173-1.156-8.473-1.469-12.686
		c-0.499-6.729-1.111-13.635-0.268-20.411c0.339-2.728,1.968-5.508,2.164-8.083C138.169,157.731,137.436,155.416,135.536,157.227z"
		/>
	<path style="fill:#A0774A;" d="M51.708,117.951c-5.119,0.509-11.229,5.95-7.926,11.588c2.623,4.475,10.957-1.572,12.037-5.288
		C57.329,119.058,55.877,117.071,51.708,117.951z"/>
	<path style="fill:#A0774A;" d="M74.57,107.399c-6.267,0.013-11.874,7.632-7.071,13.054c2.019,2.278,5.76,0.514,8.273-0.537
		c2.89-1.209,3.902-2.277,4.073-5.768C80.024,110.514,78.689,106.591,74.57,107.399z"/>
	<path style="fill:#A0774A;" d="M95.674,101.244c-2.998,0.368-6.07,2.042-7.035,4.983c-0.746,2.272-0.08,7.153,2.053,8.213
		c1.641,0.816,7.58-0.107,9.028-0.945c2.357-1.362,2.677-4.952,2.711-7.496C102.492,101.344,100.468,100.95,95.674,101.244z"/>
	<path style="fill:#A0774A;" d="M121.174,94.21c-2.641-0.035-5.781,1.296-6.807,3.438c-0.911,1.902-1.161,7.173,0.44,8.792
		c3.701,3.745,13.636-1.551,13.416-6.954C128.011,94.285,123.186,93.564,121.174,94.21z"/>
	<path style="fill:#A0774A;" d="M35.587,278.572c-4.751,5.793-3.545,19.385-2.865,26.386c0.353,3.636-0.78,15.098,2.794,17.066
		c3.867,2.128,10.411-3.509,11.274-6.808c2.021-7.722,0.681-17.616,0.236-25.549c-0.184-3.277-0.043-8.562-2.131-11.322
		C42.069,274.611,36.88,276.029,35.587,278.572z"/>
	<path style="fill:#A0774A;" d="M87.467,251.607c-3.461-0.236-8.085,8.114-9.347,11.282c-1.856,4.662-2.149,10.215-2.956,15.107
		c-0.88,5.346-1.262,10.24-0.888,15.672c0.339,4.934-0.417,10.94,0.872,15.695c1.305,4.81,13.105,4.221,15.614,0.645
		c2.056-2.931,0.217-10.41,0.22-13.829c0.007-6.901-0.322-13.727-0.015-20.608c0.258-5.767,1.168-11.304,3.012-16.782
		c0.638-1.893,1.946-3.393,0.702-5.14C93.039,251.337,88.714,251.25,87.467,251.607z"/>
	<path style="fill:#A0774A;" d="M154.881,239.003c-9.692,2.965-16.06,14.699-17.881,23.963c-1.871,9.527-2.183,20.058-0.893,29.675
		c0.382,2.847-0.041,7.319,0.96,9.966c0.925,2.448,4.951,3.25,7.555,2.946c4.52-0.526,3.509-5.496,3.239-9.23
		c-0.511-7.064-0.961-14.264-0.612-21.4c0.379-7.74,0.249-15.884,3.229-23.178c1.327-3.248,3.221-5.943,5.161-8.805
		C156.343,241.898,158.482,236.642,154.881,239.003z"/>
	<path style="fill:#A0774A;" d="M287.657,253.072c6.638,2.641,7.035,13.755,7.035,19.483c0,4.616,0.211,9.085,0,13.619
		c-0.177,3.829-1.994,10.255-0.579,13.795c1.077,2.695,5.338,2.165,7.621,0.302c4.168-3.404,3.536-11.022,3.015-15.615
		c-0.855-7.548,1.704-15.203-1.735-22.425c-2.466-5.179-6.863-11.576-13.496-10.143C289.913,253.161,290.145,254.28,287.657,253.072
		z"/>
	<path style="fill:#A0774A;" d="M353.606,238.71c2.53,0.866,4.921,8.305,6.229,10.852c2.015,3.923,3.107,7.709,4.03,12.098
		c2.301,10.954,1.107,21.317,0.585,32.39c-0.2,4.249-2.321,9.671,2.639,11.56c3.865,1.471,6.574,0.297,7.598-3.705
		c1.463-5.713,0.712-13.16,0.966-19.076c0.24-5.582,0.618-11.362-0.331-16.873c-1.142-6.638-4.075-11.935-7.576-17.582
		C366.486,246.344,359.079,236.374,353.606,238.71z"/>
	<path style="fill:#A0774A;" d="M416.037,253.952c3.636,6.184,5.862,12.557,5.862,20.078c0,10.27,0.329,20.672-0.586,30.857
		c-0.426,4.732-0.778,5.799,3.985,7.139c2.826,0.795,8.356,2.453,10.313-0.1c1.638-2.137,1.621-7.478,1.973-10.051
		c0.469-3.433,0.612-6.938,0.795-10.408c0.338-6.391,0.001-12.456-1.393-18.721c-1.135-5.104-1.905-11.239-5.05-15.57
		c-1.475-2.031-3.8-3.483-6.227-4.184c-1.285-0.372-3.093-0.909-4.425-0.63C419.599,252.717,418.75,254.192,416.037,253.952z"/>
	<path style="fill:#A0774A;" d="M470.848,276.228c-6.537,1.773-5.582,17.152-5.569,22.049c0.011,4.074,0.41,8.117,0.586,12.181
		c0.101,2.323-0.453,6.469,0.578,8.58c1.525,3.125,9.841,4.843,11.952,1.471c2.031-3.243,1.122-10.17,1.246-13.935
		c0.141-4.288,0.171-8.497-0.015-12.757c-0.168-3.84,0.58-8.106-0.637-11.804C478.133,279.408,474.225,276.094,470.848,276.228z"/>
	<path style="fill:#A0774A;" d="M225.812,351.849c-8.951,4.391-11.452,17.128-13.23,26.109c-1.334,6.741-2.069,13.968-1.73,20.863
		c0.217,4.398,0.543,12.082,2.724,16.06c1.424,2.598,5.63,4.072,7.487,1.143c1.587-2.503,0.083-8.845-0.218-11.643
		c-0.899-8.329-1.366-16.642-0.052-24.977c0.836-5.297,1.14-10.681,3.106-15.706C224.966,360.974,229.741,354.17,225.812,351.849z"
		/>
	<path style="fill:#A0774A;" d="M351.554,348.331c5.636,5.047,9.436,12.978,10.869,20.33c1.138,5.834,0.836,11.623,0.562,17.556
		c-0.295,6.371,0.231,12.734,0,19.032c-0.095,2.604-1.606,9.98,0.88,11.668c2.416,1.641,8.004-0.142,9.223-2.242
		c1.136-1.957,0.923-6.109,1.046-8.312c0.222-3.987,0.312-7.971,0.796-11.933c0.814-6.649,0.659-12.877,0.658-19.565
		c-0.001-6.63-1.344-12.938-5.636-18.106C368.508,355.019,355.829,342.776,351.554,348.331z"/>
	<path style="fill:#A0774A;" d="M413.106,358.59c12.116,13.346,10.698,38.007,9.071,54.808c-0.114,1.174-1.23,4.693-0.549,5.696
		c0.898,1.321,4.49,0.604,5.904,0.749c4.79,0.491,8.045,0.953,9.038-4.435c2.191-11.892,0.328-26.683-2.133-38.365
		c-1.301-6.181-3.544-12.197-7.264-17.27c-1.422-1.939-2.928-3.633-5.503-3.754C419.449,355.915,415.241,357.352,413.106,358.59z"/>
	<path style="fill:#A0774A;" d="M469.785,369.016c-4.863,1.349-4.577,11.996-4.806,15.601c-0.326,5.119-0.586,10.168-0.352,15.298
		c0.205,4.486-0.48,8.861-0.239,13.349c0.179,3.339,0.507,4.833,3.821,5.852c1.932,0.593,6.425,2.12,8.364,1.061
		c2.42-1.32,2.633-6.411,2.774-8.818c0.474-8.108,0.279-16.175,0-24.324c-0.125-3.658-0.143-7.586-1.485-11.047
		c-0.974-2.513-4.357-7.446-7.489-7.086C470.17,368.926,469.973,368.964,469.785,369.016z"/>
	<path style="fill:#A0774A;" d="M151.364,349.504c-11.266,6.283-13.628,16.124-14.355,28.49c-0.348,5.92,0.583,11.681,0.879,17.586
		c0.259,5.161-1.341,11.97,0.359,16.884c1.571,4.54,7.206,4.901,11.306,4.99c1.76-4.809,0.313-11.936,0.059-17.079
		c-0.363-7.359-0.902-14.835-0.592-22.296c0.223-5.364,1.14-11.61,3.395-16.56c1.593-3.496,7.024-8.418,6.818-12.262
		C155.196,349.055,152.211,349.858,151.364,349.504z"/>
	<path style="fill:#A0774A;" d="M88.346,357.418c-10.045,6.805-11.379,23.968-12.164,34.826c-0.427,5.92-0.281,12.036-0.44,17.954
		c-0.124,4.639-0.188,7.908,4.507,9.39c2.106,0.665,7.922,2.43,9.934,0.633c2.707-2.418-0.773-9.631-1.186-12.601
		c-1.659-11.884-1.031-24.465,2.939-35.84c1.252-3.588,4.943-7.474,5.51-11.124C98.283,355.285,91.623,355.089,88.346,357.418z"/>
	<path style="fill:#A0774A;" d="M37.346,370.314c-1.576,4.637-3.748,8.737-4.038,13.783c-0.267,4.655-0.416,9.241-0.648,13.914
		c-0.232,4.655-0.226,9.283,0.008,13.947c0.152,3.033-0.499,6.141,2.399,8.118c2.326,1.586,6,0.829,8.45-0.007
		c3.401-1.162,3.873-3.151,4.088-6.489c0.597-9.23,1.009-18.477-0.301-27.651c-0.58-4.061-0.502-8.869-2.045-12.683
		c-0.465-1.151-1.489-3.536-2.773-3.971C40.5,368.601,39.51,371.089,37.346,370.314z"/>
</g>
<path style="fill:#F7DCB0;" d="M141.196,66.538c-1.128,2.371,1.523,6.713,2.15,9.148c0.685,2.663,1.3,5.298,1.882,8.001
	c1.028,4.779,2.311,9.723,3.427,14.635c1.306,5.753,2.671,11.469,3.576,17.27c0.481,3.079,0.202,9.119,3.066,10.348
	c3.984,1.709,5.97-1.133,8.424,3.514c2.339,4.429,2.597,10.07,3.236,14.939c0.793,6.034,1.564,12.072,2.215,18.124
	c0.48,4.465,0.302,11.403,3.95,14.288c3.155,2.497,6.639,2.984,8.332,7.045c2.266,5.439,1.584,12.177,2.674,17.953
	c1.145,6.07,1.682,11.803,8.309,13.136c3.831,0.771,7.093,0.038,10.798,0.327c2.263,0.177,5.696,1.019,5.433,3.946
	c-0.294,3.279-4.143,5.002-4.038,8.998c0.141,5.359,3.617,11.025,5.485,16.001c3.776,10.061,8.005,19.99,12.183,29.879
	c3.524,8.341,7.257,16.597,10.525,25.044c2.491,6.441,3.721,14.213,10.247,17.774c2.139,1.167,4.326,3.163,5.304,5.496
	c1.708,4.077,0.499,9.286,0.626,13.529c0.138,4.647,1.107,10.333,2.936,14.633c3.781,8.887,13.881,6.936,19.771,13.507
	c8.766,9.784,7.349,24.283,14.647,34.887c2.889,4.197,6.289,7.903,9.012,12.221c2.562,4.061,4.359,8.588,5.83,13.171
	c1.045,3.255,0.667,10.535,3.552,12.573c3.23,2.282,2.399-3.891,4.364-5.658c0.97-0.871,2.165-0.837,2.821-1.788
	c1.494-2.169,0.001-5.89-0.338-8.184c-0.361-2.446,0.033-5.888-1.089-8.142c-0.736-1.478-2.149-2.146-3.276-3.314
	c-3.007-3.12-4.242-8.186-6.483-11.888c-3.073-5.075-6.351-10.113-8.487-15.659c-2.498-6.487-3.661-13.267-5.809-19.815
	c-1.852-5.648-5.542-8.751-10.199-12.163c-3.598-2.636-8.221-4.425-10.211-8.676c-1.157-2.471-1.868-5.942-1.473-8.733
	c0.154-1.083,0.102-1.891,1.027-2.467c0.116-0.469,0.075-1.046,0.006-1.519c-3.816-1.695-8.916,2.76-12.927-0.256
	c-1.501-1.129-1.888-2.773-2.357-4.492c-0.402-1.477-1.923-4.316-0.822-5.52c0.895-0.979,4.897-0.172,5.761-1.523
	c1.811-2.853-4.643-11.392-5.742-13.867c-5.019-11.296-9.886-22.694-14.26-34.294c-2.789-7.399-6.129-14.659-9.392-21.863
	c-2.505-5.531-5.998-11.565-6.515-17.701c-0.332-3.946,1.645-7.734,0.077-11.598c-0.896-2.208-2.277-4.044-2.848-6.399
	c-0.546-2.258,0.087-4.869-0.789-7.043c-0.702-1.741-2.136-2.462-3.325-3.833c-3.234-3.727-6.619-8.134-9.243-12.321
	c-2.476-3.951-3.462-9.276-7.406-11.873c-3.994-2.63-6.547-4.848-8.056-9.6c-1.809-5.696-3.256-11.922-4.576-17.752
	c-0.621-2.742-0.805-5.569-1.458-8.311c-0.803-3.377-0.898-6.072-3.761-8.172c-2.844-2.087-6.656-2.86-9.2-5.357
	c-3.536-3.47-5.288-12.358-6.611-16.993c-1.631-5.711-2.04-11.773-3.108-17.599c-1.244-6.779-3.17-13.734-7.085-19.506
	C151.066,71.733,144.544,64.144,141.196,66.538z"/>
<path d="M47.99,379.6c-1.092-4.157-1.018-11.952-6.918-12.788c-5.087-0.72-8.042,7.656-8.743,11.362
	c-1.497,7.914-1.776,16.256-1.786,24.277c-0.004,2.799-0.012,5.856,0.174,8.916c-0.22,3.173-0.645,7.061,0.472,9.389
	c0.573,1.194,1.155,1.992,2.591,2.006c1.199,0.012,2.285,0.409,3.447,0.297c2.278-0.223,7.466-0.294,9.429-1.447
	c4.223-2.48,3.076-12.052,3.027-16.29C49.58,396.77,50.164,387.872,47.99,379.6z M44.935,416.397
	c-1.428,1.934-3.842,1.349-6.07,1.51c-0.788,0.057-2.726,0.753-3.317,0.396c-0.423-0.256-0.456-4.361-0.524-5.093
	c-0.402-4.352-0.87-8.723-1.229-13.091c0.015-2.374,0.097-4.758,0.273-7.156c0.444-6.067,0.04-13.825,3.048-19.256
	c5.058-9.128,6.928,3.32,7.77,7.681c1.25,6.473,0.413,13.253,0.688,19.824C45.718,404.578,47.137,413.415,44.935,416.397z"/>
<path d="M102.621,363.511c-1.618-4.989-5.041-10.447-10.839-9.684c-6.433,0.846-10.238,7.054-12.741,12.491
	c-3.762,8.174-4.33,16.869-4.945,25.669c-0.217,3.108-0.299,6.224-0.247,9.338c-0.905,5.846-2.586,16.913,2.051,20.069
	c1.943,1.322,5.701,0.843,7.908,0.956c3.881,0.197,7.754,0.218,11.607-0.38c2.437-0.379,6.005-0.471,7.826-2.26
	c2.266-2.226,1.296-6.289,1.46-9.103c0.483-8.25,0.721-16.449,0.297-24.717C104.627,378.652,104.879,370.476,102.621,363.511z
	 M87.237,405.368c0.298,3.908-0.394,8.855,0.836,12.672c-1.029-0.009-2.059-0.048-3.081-0.135c-1.563-0.133-5.286-0.039-6.496-0.557
	c-0.237-0.101-0.393-0.261-0.519-0.535c-0.104-2.813,0.111-5.664-0.074-8.468c-0.292-4.414-0.143-8.758,0.093-13.171
	c0.089-1.677,0.19-3.338,0.306-4.991c0.177-1.726,0.329-3.459,0.454-5.193c0.553-5.105,1.47-10.123,3.252-15.108
	c1.242-3.474,3.371-7.405,6.134-9.868c2.911-2.596,5.875-1.795,8.002,0.413c-6.804,5.557-8.108,19.503-8.983,27.417
	C86.525,393.566,86.802,399.649,87.237,405.368z M100.339,415.819c-0.757,1.174-3.058,1.402-4.254,1.597
	c-1.271,0.208-2.558,0.348-3.85,0.455c0.029-0.353-0.019-0.727-0.193-1.113c-1.31-2.882-0.431-8.275-0.729-11.456
	c-0.474-5.074-0.994-10.456-0.755-15.551c0.45-9.56,3.178-19,6.766-27.827c0.532,0.823,0.974,1.735,1.291,2.691
	c2.208,6.668,1.752,14.608,2.136,21.563c0.419,7.575,0.257,15.176-0.183,22.746C100.491,410.235,100.953,414.866,100.339,415.819z"
	/>
<path d="M178.139,384.735c-0.196-8.295-0.443-18.228-3.042-26.132c-2.561-7.788-9.521-13.067-17.869-12.681
	c-9.062,0.419-14.674,6.996-18.739,14.293c-5.098,9.151-3.71,20.51-3.32,30.602c0.222,5.746-0.314,11.459-0.42,17.197
	c-0.077,4.241,0.178,7.713,3.924,10.341c3.155,2.212,6.428,1.883,10.061,2.136c6.146,0.427,12.129,1.749,18.32,1.534
	c2.977-0.104,6.067-0.012,8.037-2.488c2.368-2.978,2.702-8.166,2.822-11.778c0.127-3.794,0.055-7.572-0.123-11.342
	C178.109,392.479,178.23,388.552,178.139,384.735z M147.068,415.779c-0.905,0.004-1.808-0.015-2.697-0.186
	c-4.368-0.848-4.849-3.765-5.044-7.578c-0.209-4.098,0.273-8.205,0.247-12.302c-0.06-9.581-1.743-19.296,0.66-28.763
	c1.943-7.652,8.574-16.238,16.994-16.761c0.042-0.002,0.081,0,0.123-0.001c-7.577,6.393-9.569,17.304-10.424,26.914
	C145.789,389.887,146.536,402.986,147.068,415.779z M173.247,402.773c-0.109,1.43-0.045,3.294-0.07,5.211
	c-0.061,1.022-0.107,2.045-0.162,3.067c-0.192,1.782-0.598,3.428-1.455,4.603c-1.858,2.549-6.755,1.648-9.682,1.448
	c-3.32-0.227-6.627-0.712-9.94-1.056c-0.011-0.247-0.073-0.475-0.176-0.679c-0.415-10.906-0.624-21.803-0.832-32.743
	c-0.234-12.259,2.361-22.272,9.305-32.327c2.829,0.404,5.081,1.67,6.847,3.475c2.582,4.466,3.225,9.767,4.239,14.819
	c1.531,7.635,1.495,16.222,2.069,24.002C173.644,396.038,173.509,399.334,173.247,402.773z"/>
<path d="M48.41,297.101c-0.379-6.376,0.389-15.141-4.088-20.501c-3.025-3.622-7.71-2.279-10.245,1.202
	c-4.076,5.598-3.684,15.162-3.622,21.705c0.018,1.874,0.053,3.794,0.128,5.728c0.009,3.654,0.362,7.345,0.374,10.599
	c0.019,5.444,0.055,9.3,6.383,8.977c3.477-0.177,9.815-2.36,10.984-5.89c0.828-2.5,0.156-6.228,0.172-8.897
	C48.522,305.697,48.667,301.43,48.41,297.101z M44.862,314.373c-0.08,1.759,0.149,2.891-0.858,3.82
	c-1.118,1.032-5.653,2.46-7.289,2.079c-1.406-0.327-0.81,0.483-1.101-1.145c-0.067-8.989-1.598-17.937-0.861-27.034
	c0.242-2.985,0.212-6.059,1.293-8.9c1.043-2.741,1.407-4.254,4.394-3.74c2.786,0.48,3.224,2.287,3.846,4.916
	c1.154,4.874,0.744,10.381,0.922,15.352C45.383,304.574,45.084,309.527,44.862,314.373z"/>
<path d="M88.049,249.933c-5.902,0.96-9.589,6.908-11.742,11.899c-2.875,6.668-3.744,14.402-4.053,21.682
	c-1.633,5.822-0.947,13.014-0.372,18.758c0.394,3.936-0.686,12.973,4.849,13.694c2.889,0.376,6.655-1.262,9.464-1.874
	c3.754-0.817,7.605-1.066,11.357-1.875c7.609-1.639,7.947-3.718,7.608-10.987c-0.389-8.357,0.44-16.9,0.572-25.268
	c0.108-6.838,0.009-14.714-4.554-20.291C98.16,251.978,92.9,249.145,88.049,249.933z M88.989,299.404
	c0.089,2.115-0.101,6.105,0.665,9.085c-0.427,0.048-0.839,0.102-1.229,0.169c-2.167,0.373-4.495,0.619-6.61,1.32
	c-0.746,0.247-1.464,0.551-2.141,0.937c-2.817,1.609-2.57-3.761-2.903-5.479c-0.427-2.206-0.708-4.404-0.917-6.611
	c-0.31-10.357,0.049-20.68,2.742-30.901c1.723-6.541,6.726-17.076,14.969-12.365c-1.871,2.099-2.5,5.551-3.134,8.037
	c-1.591,6.242-1.824,12.041-2.082,18.433C88.119,287.824,88.747,293.625,88.989,299.404z M100.721,276.932
	c-0.137,7.269-0.707,14.537-0.679,21.807c0.007,1.897,0.94,4.855,0.236,6.651c-0.877,2.232-4.375,2.557-6.399,2.632
	c-0.846-3.127-0.762-6.33-0.954-9.535c-0.28-4.663-0.787-9.334-0.872-14.01c-0.158-8.703,0.32-18.843,4.02-27.048
	C101.066,262.239,100.846,270.254,100.721,276.932z"/>
<path d="M134.441,290.395c-0.168,2.869-0.268,5.738-0.325,8.589c-0.103,5.275,0.183,8.516,5.964,9.135
	c6.186,0.664,12.669-0.979,18.877-1.249c2.984-0.13,5.891,0.155,8.858-0.233c3.489-0.456,7.419-1.507,10.885-1.722
	c0.836-0.052,1.821-0.431,2.196-1.259c1.054-2.323,0.661-4.82,0.65-7.339c-0.016-3.844,0.254-7.705,0.372-11.553
	c0.25-8.118-0.297-15.984-0.696-24.064c-0.314-6.351-1.43-12.661-5.991-17.419c-3.391-3.538-8.987-7.092-13.959-7.6
	c-14.788-1.509-24.587,16.246-26.547,28.342c-1.209,7.46-0.937,14.69-0.546,22.208C134.251,287.623,134.346,289.009,134.441,290.395
	z M161.12,240.586c0.498,0.054,0.999,0.137,1.503,0.261c3.846,0.952,8.484,4.312,10.667,7.594
	c3.474,5.221,2.913,11.581,3.416,17.543c0.529,6.269,0.376,12.501,0.184,18.782c-0.096,3.139-0.315,6.26-0.44,9.395
	c-0.056,1.432,0.461,4.092,0.287,5.861c-4.041,0.516-8.018,1.741-12.137,1.828c-4.579,0.096-9.109,0.192-13.658,0.434
	c-1.408-4.282-1.232-9.302-1.462-13.743c-0.294-5.703-0.403-11.492-0.196-17.195c0.22-6.059,0.682-12.071,2.534-17.876
	C153.468,248.305,157.176,244.197,161.12,240.586z M138.542,269.719c0.801-6.58,2.212-13.105,5.948-18.709
	c2.418-3.627,6.032-7.48,10.269-9.347c-6.808,5.993-8.769,15.53-9.596,24.824c-0.597,6.7-0.709,13.56-0.598,20.29
	c0.082,4.944-0.318,10.954,1.095,15.885c-1.763,0.208-3.902,0.504-5.345-0.079c-2.011-0.811-1.301-5.237-1.28-7.559
	c0.049-5.401-0.266-10.725-0.974-16.061C138.048,275.871,138.169,272.781,138.542,269.719z"/>
<path d="M509.834,349.222c-2.437-3.232-6.294-5.611-10.269-7.521c0.143-3.878,0.12-6.846-0.762-10.661
	c-1.147-4.968-0.679-10.419-0.68-15.508c-0.002-8.454,0.368-16.81,0.386-25.25c0.008-3.819-1.307-9.402,0.412-12.362
	c1.246-2.143,2.148-2.862,2.169-5.592c0.018-2.337,0.172-6.699-1.602-8.791c0.863-0.97,1.575-2.326,2.082-4.196
	c2.127-7.843-6.148-11.351-11.986-14.07c-8.686-4.045-17.77-6.883-26.83-9.903c-20.896-6.968-42.42-10.527-63.968-14.801
	c-9.43-1.87-19.076-2.958-28.637-4.128c-10.585-2.909-22.003-3.011-32.865-3.586c-14.128-0.749-28.203-1.121-42.335-2.233
	c-13.804-1.087-27.702-0.953-41.551-1.076c-7.309-0.064-14.588-0.008-21.859,0.475c-3.942,0.261-8.221,0.175-12.205,1.007
	c-0.001-0.006,0-0.012-0.001-0.018c-0.639-3.701-0.917-7.716-2.695-11.104c-2.086-3.971-5.937-5.223-8.81-8.308
	c-2.974-3.194-3.242-7.8-4.984-11.654c-1.672-3.699-3.862-5.173-7.437-6.893c-4.041-1.944-5.597-6.068-6.483-10.359
	c-0.882-4.269-1.957-8.648-2.646-12.941c-1.072-6.685,0.871-18.01-6.333-21.539c-3.078-1.508-6.228-2.562-9.426-3.251
	c-0.008-0.279-0.043-0.57-0.125-0.875c-2.439-9.123-4.35-18.877-7.417-27.771c-1.417-4.109-2.353-8.319-3.736-12.409
	c-1.095-3.237-1.678-7.412-3.729-10.235c-5.018-6.904-10.766-10.634-19.203-10.518c-8.675,0.121-17.346,1.775-25.883,3.198
	c-19.49,3.25-37.798,8.115-55.839,16.256c-8.323,3.755-15.428,8.115-22.609,13.761c-2.478,1.949-5.012,3.846-6.084,6.933
	c-1.364,3.93,0.64,8.443,0.76,12.498c0.302,10.345-1.899,21.683-3.554,31.886c-1.229,7.577-3.704,16.544-1.959,24.155
	c-0.166,0.118-0.342,0.229-0.505,0.349c-4.477,1.43-8.924,5.174-10.503,9.112c-0.878,2.192-0.869,5.706,0.472,7.736
	c0.571,0.864,1.587,1.791,2.599,2.092c0.565,0.168,1.126,0.006,1.689,0.066c0.045,0.005,0.068-0.001,0.109,0.001
	c-0.468,0.135-0.645,0.518-0.53,1.152c-0.061,0.392-0.117,0.784-0.169,1.177c-0.223,0.883-0.141,2.045-0.15,2.958
	c-0.025,2.217-0.074,4.463-0.008,6.684c0.15,5.06,1.815,9.645,1.929,14.729c0.127,5.643,0.412,11.241,0.775,16.865
	c0.283,4.364-0.76,8.689,0.946,12.745c-4.696,2.502-8.96,5.947-7.363,11.834c0.506,1.87,1.219,3.225,2.082,4.196
	c-1.774,2.093-1.619,6.454-1.602,8.791c0.02,2.731,0.923,3.448,2.169,5.592c1.72,2.96,0.404,8.542,0.412,12.362
	c0.018,8.44,0.389,16.796,0.387,25.25c-0.001,5.088,0.467,10.54-0.68,15.508c-0.88,3.815-0.905,6.782-0.762,10.661
	c-3.976,1.911-7.832,4.29-10.269,7.521c-2.527,3.35-3.583,8.663,0.98,10.811c0.689,0.325,1.416,0.553,2.163,0.73
	c-0.632,3.038-1.171,6.237-0.101,9.263c0.419,1.183,1.048,2.129,2.014,2.902c0.631,0.505,2.51,0.823,2.861,1.267
	c1.402,1.78,0.096,9.59,0.13,11.996c0.049,3.513-0.469,6.92-0.465,10.426c0.008,8.798-0.739,17.441-0.988,26.214
	c-0.169,5.897-1.841,16.838,3.463,21.161c3.766,3.068,12.417,4.578,16.016,0.28c0.124-0.149,1.239-2.055,0.885-2.264
	c1.015-0.018,3.805,0.676,4.21,0.714c2.527,0.231,4.751-0.073,7.262-0.195c0.578-0.028,4.599-0.324,4.628-0.306
	c0.501,0.306,0.842,1.878,1.283,2.454c0.737,0.965,1.8,1.892,2.909,2.423c2.478,1.188,5.65,1.092,8.336,1.093
	c6.965,0.001,13.321,0.185,16.939-6.328c3.61,1.259,7.76,0.889,11.494,1.202c2.996,0.251,5.852,0.682,8.859,0.707
	c2.555,0.021,5.861-0.795,8.353-0.331c1.848,0.345,1.068,1.055,2.849,2.316c1.516,1.073,3.66,1.186,5.444,1.318
	c4.812,0.355,9.655,0.556,14.459,0.606c3.475,0.036,9.824,0.403,12.365-2.65c1.619-1.945,0.748-2.884,3.681-3.257
	c2.667-0.339,5.784,0.103,8.487,0.138c4.713,0.061,9.315,1.376,14.027,1.147c0.956-0.047,1.904-0.073,2.851-0.088
	c1.686,0.075,3.37,0.171,5.057,0.22c0.306,0.009,0.737-0.032,1.204-0.084c0.236,0.014,0.471,0.021,0.708,0.038
	c1.532,0.104,2.652,0.243,3.693-0.133c0.108-0.018,0.215-0.035,0.319-0.063c0.09,1.618,0.55,3.126,1.863,4.045
	c1.531,1.072,3.916,0.95,5.656,1.204c2.561,0.373,4.994,0.644,7.594,0.63c3.214-0.018,7.799,0.438,10.388-1.837
	c0.924-0.812,1.564-1.94,2.033-3.195c6.514,1.637,13.34,0.708,20.064,0.856c7.455,0.164,15.01,0.143,22.417,0.528
	c8.464,0.438,17.256,0.135,25.762,0.237c4.792,0.057,9.58,0.288,14.371,0.306c4.472,0.016,8.822-1.176,13.23-0.832
	c0.631,0.049,1.301,0.139,1.777,0.555c0.408,0.355,0.606,0.893,0.959,1.304c0.579,0.674,1.498,0.931,2.367,1.12
	c3.68,0.797,7.574,0.94,11.319,0.961c2.599,0.014,5.034-0.257,7.594-0.63c1.74-0.253,4.125-0.132,5.656-1.204
	c1.313-0.918,1.772-2.426,1.863-4.045c0.103,0.028,0.211,0.046,0.319,0.063c1.041,0.375,2.161,0.237,3.693,0.132
	c0.237-0.016,0.471-0.023,0.708-0.038c0.467,0.053,0.898,0.094,1.204,0.084c1.687-0.049,3.371-0.145,5.057-0.22
	c0.947,0.015,1.896,0.042,2.851,0.088c4.712,0.229,9.314-1.086,14.027-1.147c2.704-0.035,5.82-0.477,8.487-0.138
	c2.933,0.373,2.061,1.311,3.681,3.257c2.542,3.053,8.89,2.686,12.365,2.65c4.805-0.05,9.648-0.25,14.459-0.606
	c1.783-0.131,3.928-0.245,5.444-1.318c1.781-1.26,1.001-1.971,2.849-2.316c2.493-0.465,5.8,0.351,8.353,0.331
	c3.007-0.025,5.864-0.456,8.859-0.707c3.734-0.313,7.885,0.057,11.494-1.202c3.618,6.513,9.974,6.329,16.939,6.328
	c2.685,0,5.857,0.095,8.336-1.093c1.109-0.531,2.171-1.46,2.909-2.423c0.441-0.576,0.782-2.148,1.283-2.454
	c0.028-0.018,4.05,0.278,4.628,0.306c2.513,0.123,4.737,0.426,7.263,0.195c0.406-0.036,3.194-0.732,4.21-0.714
	c-0.354,0.209,0.761,2.115,0.885,2.264c3.599,4.298,12.251,2.788,16.016-0.28c5.305-4.323,3.632-15.264,3.464-21.161
	c-0.25-8.773-0.998-17.416-0.99-26.214c0.004-3.507-0.515-6.914-0.465-10.426c0.034-2.407-1.272-10.216,0.13-11.996
	c0.351-0.444,2.23-0.763,2.861-1.267c0.966-0.774,1.596-1.719,2.014-2.902c1.07-3.026,0.531-6.226-0.101-9.263
	c0.747-0.176,1.474-0.406,2.163-0.73C513.416,357.884,512.361,352.572,509.834,349.222z M495.155,268.416
	c0.052,1.156,0.429,2.799-0.287,3.783c-0.869,1.194-2.874,0.333-4.183,0.173c-1.349-0.165-2.882,0.14-4.115-0.583
	c-1.039-0.608-1.005-1.655-0.986-2.76c0.03-1.838,0.872-3.517,1.286-5.27c2.904,1.07,5.848,2.017,8.384,1.822
	c-0.006,0.056-0.013,0.101-0.019,0.162C495.143,266.642,495.114,267.494,495.155,268.416z M492.77,338.77
	c-0.125-0.05-0.256-0.103-0.38-0.154c-2.638-1.061-5.406-1.92-8.213-2.693c0.464-0.929,0.582-1.998,0.598-3.236
	c0.009-0.713-0.284-2.222,0.278-2.414c0.477-0.163,2.033,0.708,2.483,0.838c1.305,0.376,2.736,0.444,4.001,0.968
	c1.474,0.612,1.346,1.123,1.213,2.626C492.631,336.054,492.586,337.422,492.77,338.77z M462.267,321.502
	c-1.005-1.487-2.767-2.318-4.624-2.854c0.975-8.324,1.007-16.685,1.175-25.057c0.115-5.713,0.651-11.391,1.032-17.093
	c0.215-3.21,0.757-6.646,0.21-9.864c1.3-0.246,2.463-0.777,3.293-1.784c1.768-2.148,2.042-5.592,1.375-8.397
	c2.342,0.832,4.699,1.606,7.092,2.232c0.163,0.042,0.325,0.082,0.489,0.124c2.977,1.362,6.23,2.255,9.384,3.205
	c-0.095,1.992-1.016,3.746-0.913,5.829c0.068,1.373,0.227,3.049,0.808,4.324c0.766,1.681,2.127,2.728,3.705,3.432
	c-1.251,2.98-0.535,7.25-0.571,10.18c-0.07,5.734-0.182,11.47-0.518,17.19c-0.232,3.951-0.618,7.892-0.849,11.843
	c-0.217,3.705,0.181,8.09-0.574,11.693c-0.016,0.08-0.016,0.152-0.026,0.229c-0.239,0.116-0.473,0.253-0.696,0.434
	c-2.198,1.775-1.539,5.153-2.341,7.591c-2.427-0.604-4.85-1.181-7.217-1.794c-3.497-0.907-7.005-1.848-10.52-2.787
	c0.033-0.073,0.079-0.135,0.102-0.215C462.861,327.286,463.969,324.024,462.267,321.502z M458.589,329.277
	c-2.896-0.771-5.795-1.531-8.699-2.269c-1.864-0.474-5.601-0.45-4.421-3.146c0.204-0.467,0.408-0.876,0.631-1.225
	c0.72-1.134,1.626-1.646,3.317-1.484c1.638,0.156,3.182,0.733,4.774,1.104c1.216,0.284,2.746,0.578,3.781,1.346
	c1.22,0.905,0.849,1.097,0.701,2.69C458.581,327.273,458.452,328.303,458.589,329.277z M400.038,307.579
	c-0.729-1.273-2.161-1.986-3.813-2.401c0.766-9.702,0.594-19.47,1.738-29.158c0.672-5.697,1.303-11.351,1.546-17.09
	c0.089-2.085,0.374-4.758-0.055-7.043c1.354,0.014,2.679-0.198,3.823-1.079c2.738-2.106,2.964-7.465,1.918-10.772
	c0.49,0.096,0.987,0.184,1.477,0.28c12.773,2.511,25.703,5.531,38.248,9.315c-1.403,3.045-1.293,8.588-0.748,11.037
	c0.631,2.834,2.256,3.979,4.344,4.624c-1.4,8.643-1.695,17.432-2.34,26.154c-0.611,8.26,0.28,17.331-1.44,25.449
	c-0.026,0.124-0.032,0.242-0.04,0.36c-0.341,0.097-0.671,0.213-0.972,0.369c-2.267,1.172-2.646,4.71-2.779,7.208
	c-5.285-1.22-10.589-2.318-15.916-3.163c-7.881-1.251-15.732-2.61-23.628-3.738C402.188,314.573,401.752,310.572,400.038,307.579z
	 M378.406,316.058c-0.766-0.067-1.532-0.135-2.298-0.219c-14.352-1.577-28.832-2.099-43.256-2.705
	c-2.367-0.1-4.74-0.176-7.115-0.232c-0.222-1.985,0.079-5.119,0.061-6.636c-0.034-2.956-0.213-5.882-0.334-8.833
	c-0.327-7.994-0.059-16.046-0.079-24.046c-0.018-6.909,0.217-13.755-0.032-20.671c-0.151-4.19,0.579-9.869-0.601-14.24
	c1.266-0.114,2.407-0.368,3.302-0.835c3.085-1.609,3.702-4.888,3.472-8.017c2.617,0.23,5.24,0.399,7.869,0.462
	c6.685,0.831,13.346,1.606,20.039,2.46c6.901,0.88,13.836,1.915,20.76,3.032c-0.178,0.832-0.312,1.653-0.469,2.33
	c-0.556,2.405-0.974,4.964-0.335,7.407c0.78,2.979,3.391,4.616,6.213,5.376c-1.582,8.533-1.197,17.367-2.296,25.984
	c-1.204,9.443-1.789,19.142-1.768,28.662c-0.783,0.533-1.41,1.334-1.79,2.549C379.099,309.964,378.159,313.343,378.406,316.058z
	 M321.086,256.22c0.256,7.039-0.012,14-0.026,21.044c-0.016,7.865-0.036,15.723,0.186,23.598c0.095,3.352-0.8,8.047-0.382,11.961
	c-1.827-0.013-3.653-0.014-5.48,0.014c-0.164-0.019-0.331-0.028-0.496-0.047c0.863-5.488-0.097-11.882-0.348-17.19
	c-0.326-6.881-1.152-13.73-1.46-20.61c-0.301-6.771-0.591-13.47-0.628-20.259c-0.03-5.564,0.782-11.823-0.094-17.46
	c0.118,0.019,0.242,0.039,0.355,0.056c2.135,0.341,5.483,0.986,8.671,1.169c-0.344,1.866-0.507,5.476-0.514,5.863
	C320.798,248.302,320.943,252.283,321.086,256.22z M316.765,233.324c-2.816-0.166-5.811-0.372-8.482-1.388
	c-2.099-0.798-3.046-2.491-4.087-3.83c-0.682-0.877,0.694-1.531-0.918-1.237c0.091-0.016,0.165-0.069,0.243-0.114
	c2.476,0.152,4.959,0.342,7.462,0.584c2.821,0.273,5.636,0.607,8.448,0.947c2.212,0.497,4.55,0.763,6.921,0.937
	c0.114,1.844,0.189,3.638-1.603,4.31C322.772,234.277,318.84,233.447,316.765,233.324z M257.595,301.415
	c0.766-0.136,1.544-0.939,1.694-1.694c1.488-7.518,1.175-15.667,0.328-23.248c-0.484-4.334-1.492-8.58-2.033-12.907
	c-0.325-2.597-0.454-4.493-1.723-6.784c-3.293-5.943-8.494-9.309-15.334-9.817c-3.171-0.236-6.567,0.188-9.494,1.456
	c-0.348,0.151-0.633,0.317-0.89,0.487c-1.232-3.748-2.581-7.466-4.175-11.065c6.744,0.687,13.808,0.283,20.515,0.286
	c7.199,0.004,14.346,0.64,21.535,0.65c7.611,0.011,15.139,1.339,22.694,2.224c2.79,0.327,5.588,0.569,8.379,0.891
	c2.323,0.268,5.38-0.424,7.557,0.824c2.718,1.558,1.573,7.247,1.557,10.027c-0.04,7.137,0.213,14.166,0.499,21.276
	c0.29,7.203,1.251,14.382,1.503,21.581c0.183,5.201-0.61,11.397,0.167,16.773c-1.413-0.11-2.826-0.212-4.231-0.329
	c-7.725-0.642-15.601-0.849-23.341-0.719c-7.713,0.129-15.573,0.797-23.268,1.39c-0.408,0.032-0.848,0.048-1.3,0.057
	c-0.14-0.433-0.382-0.821-0.733-1.134c-1.306-3.146-3.174-6.235-4.808-9.29C254.327,302.075,255.947,301.708,257.595,301.415z
	 M250.394,297.716c-1.691-3.562-3.214-7.018-4.684-10.773c-4.612-11.783-10.711-22.755-14.53-34.826
	c3.285-0.984,7.511-1.247,10.497-0.694c7.174,1.33,10.807,6.176,11.632,13.081c1.272,10.655,3.373,21.738,1.559,32.489
	C253.491,297.237,251.764,297.541,250.394,297.716z M300.921,231.921c1.287,2.844,4.897,4.084,8.205,4.779
	c-0.236,0.719-0.409,1.477-0.555,2.251c-3.273-1.782-9.88-1.389-12.641-1.664c-7.627-0.757-15.206-1.922-22.845-2.546
	c-7.6-0.621-15.493-0.708-23.125-0.682c-4.466,0.015-8.931,0.049-13.396,0.13c-3.868,0.07-8.215-0.412-12.033,0.631
	c-1.008-2.007-2.054-4.136-2.34-6.265c-0.154-1.136,0.049-2.243,0.274-3.348c3.225,0.896,7.178,0.494,10.3,0.584
	c5.836,0.17,11.691,0.261,17.515,0.419c10.646,0.287,21.361-0.313,32.028-0.135c6.187,0.103,12.247,0.213,18.334,0.522
	C300.129,228.337,300.33,230.615,300.921,231.921z M388.782,251.213c2.623,0.245,5.231,0.254,7.858,0.476
	c-0.857,2.911-0.735,6.036-1.025,9.148c-0.496,5.35-1.414,10.588-2.062,15.91c-1.129,9.264-1.232,18.582-2.02,27.86
	c-0.922-0.039-1.784-0.056-2.498-0.091c-0.837-0.041-1.706-0.107-2.564-0.137c0.081-10.668,1.803-21.255,1.992-31.88
	c0.106-5.929,0.572-11.824,0.458-17.761C388.898,253.605,388.933,252.378,388.782,251.213z M395.781,246.801
	c-1.903-0.158-3.803-0.097-5.712-0.256c-4.118-0.342-6.741-1.364-5.739-5.918c0.32-1.453,0.838-2.787,1.242-4.163
	c5.752,0.974,11.478,2.015,17.17,3.108c-1.013,2.181-1.537,6.868-3.441,7.65C398.364,247.606,396.809,246.885,395.781,246.801z
	 M384.009,309.301c1.274-1.672,7.226-0.538,8.941-0.265c0.768,0.123,2.563,0.141,3.216,0.635c0.721,0.548,0.846,1.84,1.116,2.799
	c0.455,1.619,0.55,3.361,0.863,5.01c-4.807-0.606-9.633-0.784-14.457-1.055C383.619,314.546,383.078,310.522,384.009,309.301z
	 M451.595,265.974c0.21,0.038,0.422,0.076,0.635,0.115c1.386,0.253,3.139,0.6,4.888,0.698c-0.743,3.508-0.611,7.326-0.94,10.817
	c-0.503,5.331-1.04,10.637-1.235,15.986c-0.294,8.098-0.844,16.127-1.412,24.202c-1.215-0.205-2.734-0.517-4.279-0.698
	c1.371-7.618,0.885-16.133,1.195-23.791c0.236-5.847,0.426-11.717,0.791-17.562C451.444,272.456,451.846,269.216,451.595,265.974z
	 M450.73,261.803c-4.662-0.922-1.6-6.747-1.637-10.88c1.256,0.4,2.515,0.795,3.76,1.211c3.049,1.019,6.064,2.183,9.089,3.305
	c-0.215,2.142,0.286,5.398-1.345,6.852C458.489,264.17,453.176,262.287,450.73,261.803z M487.516,316.691
	c0.273-3.945,0.543-7.887,0.836-11.826c0.693-9.328,0.937-19.035-0.091-28.322c0.699,0.162,1.396,0.301,2.067,0.423
	c0.637,0.117,1.344,0.217,2.073,0.274c-0.65,2.892-0.029,6.591-0.064,9.107c-0.07,5-0.406,9.963-0.422,14.974
	c-0.016,5.366-0.31,10.732-0.479,16.093c-0.067,2.113-0.087,4.204-0.264,6.325c-0.074,0.885,0.297,3.129-0.478,3.729
	c-0.858,0.666-2.8-0.419-3.652-0.672C487.7,323.576,487.292,319.939,487.516,316.691z M222.212,215.55
	c2.561-0.884,6.608-0.104,9.329-0.216c7.268-0.295,14.568-0.286,21.859-0.145c14.549,0.281,29.026,0.655,43.528,1.694
	c7.095,0.509,14.146,1.121,21.237,1.789c6.369,0.601,12.744,0.329,19.12,0.85c3.497,0.286,7.005,0.637,10.513,0.957
	c13.48,2.196,27.238,3.416,40.709,5.309c9.187,1.291,18.443,2.509,27.534,4.414c9.084,1.904,18.666,3.388,27.566,5.968
	c15.426,4.469,32.285,7.76,46.34,15.944c1.745,1.015,9.339,6.432,2.398,7.511c-0.549,0.086-1.312-0.036-2.171-0.268
	c-4.951-2.671-10.391-4.788-15.688-6.318c-6.476-1.871-12.673-4.785-19.083-6.947c-15.309-5.163-31.109-9.067-46.917-12.349
	c-15.389-3.195-31.336-5.752-46.96-7.734c-7.475-0.949-14.987-1.728-22.428-2.828c-7.036-1.039-14.203-0.646-21.206-1.501
	c-0.467-0.057-0.875-0.009-1.23,0.11c-0.77-0.084-1.541-0.172-2.31-0.242c-10.116-0.911-19.915-1.243-30.062-1.203
	c-11.161,0.043-22.295,0.288-33.451,0.313c-5.787,0.012-11.553-0.734-17.345-0.542c-3.014,0.101-5.917,2.21-8.988,1.715
	c-1.775-0.286-2.359-1.127-3.054-2.69C220.675,217.394,220.458,216.155,222.212,215.55z M216.101,218.128
	c0.253,0.345,0.456,0.774,0.644,1.266c1.469,3.871-0.686,8.042,0.449,11.941c1.294,4.445,3.892,8.494,5.538,12.804
	c2.149,5.626,3.421,11.56,5.609,17.163c3.937,10.082,8.808,19.787,12.756,29.864c1.281,3.271,2.566,6.342,4.213,9.491
	c1.301,2.489,2.387,5.003,3.445,7.61c0.626,1.544,1.564,3.02,2.301,4.543c-3.225,0.157-5.905,1.31-8.934-0.45
	c-3.463-2.013-4.635-9.703-6.118-13.194c-1.732-4.075-3.642-7.989-5.036-12.185c-2.624-7.903-5.588-15.798-8.693-23.53
	c-3.299-8.216-6.936-16.291-10.095-24.55c-1.211-3.167-2.323-6.242-3.725-9.335c-2.233-4.926,2.332-4.937,3.048-9.286
	c0.27-1.638,0.101-2.818,2.276-3.055C214.916,217.1,215.604,217.452,216.101,218.128z M196.837,237.486
	c0.929-0.057,1.868-0.129,2.849-0.121c1.512,0.013,3.078,0.313,4.408,0.005c-0.653,5.166,0.696,11.43,1.148,16.261
	c0.718,7.679,0.93,15.392,1.419,23.079c0.492,7.749,0.99,15.472,1.335,23.216c0.164,3.691-0.284,8.973,0.604,13.132
	c-0.608,0.06-1.24,0.125-1.881,0.204c-1.904-0.135-3.813-0.227-5.723-0.3c-0.123-1.1-0.329-2.196-0.392-3.168
	c-0.208-3.215-0.114-6.453-0.313-9.661c-0.41-6.588-1.623-13.151-1.93-19.758c-0.379-8.126-0.482-16.266-0.885-24.397
	C197.17,249.799,197.841,243.577,196.837,237.486z M132.258,307.886c-0.379-1.215-1.007-2.015-1.789-2.549
	c0.021-9.52-0.564-19.219-1.768-28.662c-1.099-8.618-0.715-17.451-2.296-25.984c2.823-0.76,5.433-2.398,6.213-5.376
	c0.64-2.443,0.22-5.003-0.335-7.407c-0.156-0.676-0.291-1.497-0.469-2.33c6.924-1.118,13.859-2.151,20.759-3.032
	c6.794-0.868,13.554-1.652,20.34-2.496c4.613-0.574,9.789-0.514,14.707-1.016c-0.106,1.337,0.007,2.756,0.176,3.758
	c0.387,2.291,2.094,3.851,4.285,4.419c0.851,0.22,1.667,0.306,2.47,0.331c-2.569,13.192-0.702,27.426-0.348,40.712
	c0.165,6.211,0.591,12.424,1.216,18.618c0.503,4.99-0.184,10.839,0.639,15.967c-5.642-0.076-11.29,0.062-16.906,0.299
	c-14.423,0.606-28.905,1.128-43.256,2.705c-0.766,0.084-1.532,0.152-2.299,0.219C133.845,313.343,132.905,309.964,132.258,307.886z
	 M110.6,317.932c-7.897,1.128-15.747,2.487-23.628,3.738c-5.326,0.845-10.63,1.944-15.916,3.163
	c-0.132-2.498-0.51-6.037-2.779-7.208c-0.301-0.156-0.632-0.272-0.972-0.369c-0.008-0.118-0.013-0.236-0.04-0.36
	c-1.72-8.118-0.83-17.188-1.44-25.449c-0.645-8.723-0.94-17.512-2.34-26.154c2.089-0.645,3.713-1.79,4.344-4.624
	c0.545-2.449,0.655-7.992-0.748-11.037c12.545-3.785,25.474-6.804,38.248-9.315c0.49-0.096,0.987-0.184,1.477-0.28
	c-1.046,3.307-0.82,8.668,1.918,10.772c1.145,0.88,2.47,1.093,3.823,1.079c-0.429,2.285-0.144,4.957-0.055,7.043
	c0.244,5.739,0.875,11.394,1.546,17.09c1.143,9.688,0.971,19.456,1.738,29.158c-1.652,0.414-3.083,1.127-3.813,2.401
	C110.253,310.572,109.815,314.573,110.6,317.932z M53.333,326.293c-0.147-1.592-0.518-1.784,0.701-2.69
	c1.035-0.768,2.565-1.062,3.781-1.346c1.591-0.372,3.136-0.948,4.774-1.104c1.691-0.161,2.597,0.351,3.317,1.484
	c0.222,0.349,0.427,0.759,0.631,1.225c1.179,2.695-2.557,2.672-4.421,3.146c-2.904,0.737-5.803,1.497-8.699,2.269
	C53.552,328.303,53.423,327.273,53.333,326.293z M49.926,329.964c0.023,0.08,0.07,0.141,0.102,0.215
	c-3.515,0.94-7.023,1.879-10.52,2.787c-2.367,0.614-4.792,1.191-7.217,1.794c-0.802-2.437-0.143-5.815-2.341-7.591
	c-0.224-0.181-0.457-0.318-0.696-0.434c-0.009-0.076-0.009-0.15-0.026-0.229c-0.755-3.602-0.358-7.988-0.574-11.693
	c-0.231-3.951-0.618-7.893-0.849-11.843c-0.336-5.72-0.448-11.456-0.518-17.19c-0.036-2.93,0.68-7.2-0.571-10.18
	c1.578-0.702,2.939-1.75,3.705-3.432c0.58-1.274,0.74-2.951,0.808-4.324c0.103-2.083-0.818-3.837-0.913-5.829
	c3.153-0.951,6.407-1.844,9.384-3.205c0.163-0.042,0.326-0.082,0.489-0.124c2.393-0.626,4.749-1.4,7.092-2.232
	c-0.667,2.804-0.394,6.248,1.375,8.397c0.829,1.007,1.993,1.537,3.293,1.784c-0.546,3.216-0.005,6.652,0.211,9.864
	c0.381,5.701,0.917,11.379,1.032,17.093c0.168,8.372,0.199,16.733,1.175,25.057c-1.857,0.536-3.619,1.367-4.624,2.854
	C48.035,324.024,49.143,327.286,49.926,329.964z M19.254,334.707c-0.132-1.502-0.26-2.014,1.213-2.626
	c1.265-0.525,2.697-0.592,4.001-0.968c0.451-0.13,2.006-1.001,2.483-0.838c0.562,0.192,0.267,1.701,0.277,2.414
	c0.016,1.238,0.135,2.307,0.598,3.236c-2.808,0.773-5.576,1.631-8.213,2.693c-0.124,0.05-0.254,0.102-0.38,0.154
	C19.418,337.422,19.373,336.054,19.254,334.707z M23.652,304.865c0.293,3.939,0.563,7.88,0.836,11.826
	c0.225,3.248-0.183,6.886,0.474,10.106c-0.851,0.252-2.793,1.338-3.652,0.672c-0.774-0.6-0.404-2.844-0.478-3.729
	c-0.177-2.121-0.196-4.212-0.264-6.325c-0.17-5.359-0.463-10.726-0.48-16.093c-0.015-5.011-0.352-9.974-0.422-14.974
	c-0.035-2.516,0.585-6.215-0.064-9.107c0.73-0.056,1.437-0.157,2.074-0.274c0.671-0.123,1.368-0.263,2.067-0.423
	C22.715,285.828,22.959,295.537,23.652,304.865z M60.766,275.742c0.366,5.845,0.555,11.715,0.791,17.562
	c0.31,7.658-0.176,16.172,1.195,23.791c-1.545,0.181-3.065,0.494-4.279,0.698c-0.569-8.076-1.117-16.104-1.412-24.202
	c-0.195-5.35-0.732-10.656-1.235-15.986c-0.329-3.49-0.196-7.31-0.939-10.817c1.749-0.097,3.502-0.444,4.888-0.698
	c0.213-0.039,0.424-0.077,0.635-0.115C60.158,269.216,60.56,272.456,60.766,275.742z M61.274,261.803
	c-2.447,0.484-7.759,2.367-9.868,0.488c-1.632-1.454-1.13-4.711-1.345-6.852c3.025-1.123,6.039-2.287,9.089-3.305
	c1.246-0.416,2.504-0.811,3.761-1.211C62.874,255.056,65.935,260.881,61.274,261.803z M123.543,272.499
	c0.189,10.626,1.911,21.213,1.992,31.88c-0.858,0.029-1.727,0.095-2.564,0.137c-0.715,0.035-1.577,0.053-2.498,0.091
	c-0.787-9.279-0.891-18.596-2.019-27.86c-0.648-5.322-1.566-10.561-2.062-15.91c-0.288-3.113-0.168-6.238-1.025-9.148
	c2.625-0.222,5.234-0.231,7.858-0.476c-0.151,1.165-0.116,2.392-0.137,3.525C122.971,260.675,123.438,266.57,123.543,272.499z
	 M121.935,246.544c-1.909,0.159-3.808,0.098-5.711,0.256c-1.028,0.086-2.583,0.807-3.52,0.421c-1.904-0.783-2.428-5.469-3.442-7.65
	c5.692-1.092,11.418-2.134,17.17-3.108c0.403,1.376,0.922,2.712,1.242,4.163C128.676,245.182,126.052,246.202,121.935,246.544z
	 M114.723,312.471c0.27-0.959,0.395-2.251,1.116-2.799c0.653-0.495,2.448-0.512,3.216-0.635c1.715-0.273,7.665-1.407,8.94,0.265
	c0.931,1.222,0.39,5.244,0.322,7.124c-4.825,0.271-9.65,0.449-14.457,1.055C114.173,315.832,114.268,314.09,114.723,312.471z
	 M195.572,233.559c-0.689-0.008-1.783,0.086-2.43-0.195c-2.189-0.95-1.604-1.844-1.772-3.445c-0.048-0.46-0.132-0.918-0.238-1.371
	c1.056-0.19,2.097-0.41,3.099-0.701c2.439,0.013,4.863-0.205,7.193-0.693c0.444,1.681,1.307,3.384,1.803,4.615
	c0.164,0.408,0.312,0.824,0.47,1.236C201.013,232.82,198.188,233.588,195.572,233.559z M208.297,245.264
	c3.052,7.447,5.487,14.809,7.874,22.564c2.548,8.28,5.555,16.503,8.44,24.669c1.644,4.651,4.071,9.065,5.909,13.656
	c0.889,2.218,1.645,4.611,2.65,6.85c-1.209,0.067-2.364,0.142-3.402,0.171c-5.388,0.151-10.934-0.591-16.347-0.456
	c-0.079-0.171-0.176-0.317-0.292-0.442c-0.446-2.167-0.325-5.653-0.431-7.304c-0.196-3.06-0.375-6.099-0.559-9.16
	c-0.443-7.414-1.073-14.842-1.474-22.256c-0.327-6.067-0.646-12.289-1.355-18.326C209.235,254.593,208.823,249.882,208.297,245.264z
	 M194.63,181.537c0.532-0.032,1.047-0.025,1.552-0.041c2.038,2.695,2.62,6.419,4.062,9.519c1.592,3.42,4.093,5.601,7.154,7.666
	c4.959,3.347,5.304,7.563,6.156,12.852c-3.032-1.019-6.356-1.347-9.269-0.959c-3.325-0.423-7.001,0.171-10.207,0.436
	c-1.79,0.148-3.582,0.277-5.372,0.407c-0.135-0.821-0.471-1.624-0.708-2.476c-0.497-1.783-0.964-3.538-1.549-5.299
	c-0.106-0.317-0.208-0.7-0.312-1.103c-0.12-2.068,0.008-4.268-0.213-5.932c-0.505-3.814-1.13-7.869-1.993-11.601
	c-0.191-0.829-0.383-1.763-0.624-2.693c1.874,0.211,3.952-0.014,5.469-0.084C190.739,182.135,192.67,181.654,194.63,181.537z
	 M180.873,151.825c1.488,6.863,2.592,14.73,5.58,21.161c1.062,2.285,2.518,3.464,4.248,4.527c-1.262,0.218-2.515,0.435-3.736,0.516
	c-1.522,0.101-3.488,0.189-5.114,0.741c-3.083-4.326-7.502-0.93-9.742-8.137c-2.06-6.63-2.017-14.117-2.699-20.963
	c-0.266-2.673-0.627-5.356-1.092-8.019c3.69,0.708,7.378,1.675,11.085,1.549C179.869,146.074,180.253,148.965,180.873,151.825z
	 M170.371,131.903c3.953,1.304,6.785,1.239,7.843,5.345c0.032,0.124,0.057,0.25,0.088,0.374c-3.612-1.084-7.521-1.936-11.321-2.319
	c-0.381-1.532-0.804-3.049-1.274-4.549C167.271,131.022,168.827,131.394,170.371,131.903z M166.334,151.511
	c0.467,7.27,0.029,15.593,1.953,22.645c0.782,2.869,2.742,4.357,5.415,5.524c2.536,1.108,4.363,1.004,5.701,3.47
	c1.04,1.916,0.829,4.426,1.007,6.528c0.345,4.065,0.918,8.073,1.155,12.152c0.152,2.626-0.168,5.399,1.369,7.559
	c0.114,0.832,0.259,1.655,0.455,2.461c-1.522,0.142-3.042,0.3-4.562,0.505c-6.568,0.884-13.611,0.651-20.216,1.951
	c-4.931,0.572-9.869,1.28-14.801,1.892c-8.066,1.001-16.206,1.908-24.242,3.229c-1.019-9.46-2.236-18.882-3.017-28.377
	c-0.34-4.14-0.776-8.259-1.142-12.395c-0.551-6.226-0.213-12.782-2.205-18.753c1.492-0.37,3.17-0.369,4.316-1.521
	c2.774-2.788,0.871-6.957,0.848-10.205c-0.001-0.132-0.022-0.251-0.038-0.373c6.956-1.695,13.979-3.072,21.191-4.154
	c7.303-1.095,14.659-2.494,22.059-2.705c1.154-0.033,2.306,0.06,3.459,0.196C165.592,144.582,166.116,148.117,166.334,151.511z
	 M104.073,163.951c-0.045-0.154-0.263-0.598-0.504-1.036c1.074-0.215,2.06-0.456,2.81-0.631c1.428-0.332,2.76-0.845,4.089-1.374
	c-1.644,9.885,0.632,21.011,1.356,30.894c0.361,4.932,1.029,9.828,1.243,14.764c0.19,4.397,0.524,9.368,1.824,13.686
	c-0.558,0.106-1.117,0.203-1.674,0.313c-1.345,0.267-2.69,0.529-4.033,0.79c-0.008-0.052-0.009-0.103-0.022-0.155
	c-2.215-9.472-1.869-19.608-2.865-29.26c-0.674-6.536-1.347-13.037-1.738-19.596C104.405,169.764,104.802,166.456,104.073,163.951z
	 M66.207,229.296c-1.202-4.574-1.025-9.577-1.568-14.254c-0.472-4.078-1.135-8.101-1.511-12.2
	c-0.404-4.411-0.923-8.754-1.474-13.148c-0.34-2.708-0.189-5.914-1.022-8.614c1.943-0.734,3.712-1.722,4.417-3.371
	c1.163-2.721-0.041-6.44-1.225-9.15c-0.013-0.083-0.038-0.161-0.066-0.242c10.061-4.554,20.073-9.286,30.414-13.155
	c-0.393,2.665-0.227,5.935,1.854,7.428c1.008,0.723,2.551,0.885,4.19,0.788c-1.433,10.47,0.879,21.698,1.488,32.117
	c0.304,5.202,0.537,10.357,1.014,15.556c0.278,3.03,0.004,8.178,1.569,11.256c-12.758,2.467-25.478,4.894-38.036,8.113
	C66.319,230.082,66.315,229.706,66.207,229.296z M27.748,184.522c-0.006-0.1-0.028-0.193-0.047-0.288
	c4.888-2.297,9.842-4.509,14.802-6.661c-0.076,2.457-0.414,5.027,2.113,6.502c1.076,0.628,2.565,0.735,4.135,0.571
	c-0.739,8.369,0.961,17.361,1.784,25.608c0.79,7.921,0.491,15.974,1.591,23.856c0.015,0.11,0.048,0.206,0.077,0.305
	c-0.985,0.313-1.971,0.626-2.953,0.953c-6.35,2.117-12.708,4.156-18.937,6.576c0.015-7.567-1.3-15.359-1.885-22.867
	c-0.539-6.924-0.686-14.556-2.422-21.23c0.075-0.061,0.151-0.111,0.227-0.175C29.962,194.517,28.006,188.608,27.748,184.522z
	 M44.984,176.499c3.237-1.395,6.466-2.774,9.667-4.145c1.583-0.678,3.158-1.374,4.734-2.073c0.389,1.272,1.223,2.36,1.332,3.799
	c0.132,1.755-0.375,2.099-1.919,2.911c-1.068,0.562-2.347,0.835-3.459,1.319c-2.32,1.011-4.598,1.793-7.093,2.325
	C45.437,181.232,45.432,178.678,44.984,176.499z M51.619,184.102c1.43-0.378,2.761-0.862,3.728-1.266
	c0.661-0.277,1.466-0.526,2.324-0.788c-0.185,0.899-0.329,1.779-0.335,1.888c-0.106,2.054,0.236,4.239,0.393,6.289
	c0.39,5.093,0.786,10.171,1.102,15.272c0.502,8.087,0.589,17.259,2.607,25.113c0.1,0.388,0.264,0.707,0.471,0.96
	c-1.701,0.464-3.404,0.926-5.098,1.427c-0.627-8.361-1.184-16.66-2.182-24.997c-0.635-5.311-1.212-10.614-1.899-15.918
	C52.386,189.409,52.502,186.563,51.619,184.102z M97.637,153.913c0.845-0.297,1.687-0.604,2.537-0.888
	c4.31-1.436,8.609-2.716,12.922-3.877c0.246,1.789,1.063,4.78,0.591,5.441c-0.737,1.035-5.564,2.341-6.704,2.667
	c-1.967,0.563-5.401,1.563-7.425,1.361c-1.543-0.154-0.635,0.007-1.27-1.188C97.8,156.51,97.773,155.114,97.637,153.913z
	 M146.817,74.608c3.905,3.525,4.856,6.915,6.56,11.855c1.402,4.068,2.297,8.35,3.659,12.471c1.433,4.336,1.918,8.957,2.936,13.409
	c0.897,3.925,2.081,7.753,3.107,11.634c-2.273-0.128-4.561-0.108-6.854,0.023c-1.053-9.703-4.278-19.476-6.428-28.946
	c-1.247-5.492-3.049-10.947-4.679-16.328c-0.733-2.419-1.64-5.132-2.803-7.615C143.975,71.968,145.363,73.295,146.817,74.608z
	 M38.869,98.185c3.311-2.704,6.965-5.067,10.732-7.091c7.304-3.924,15.576-7.18,23.465-9.675c8.436-2.668,17.6-5.364,26.369-6.629
	c7.712-1.111,15.422-2.248,23.147-3.262c3.933-0.517,7.835-1.118,11.806-1.244c1.455-0.046,3.072-0.193,4.582-0.084
	c0.127,1.114,0.278,2.317,0.328,2.521c0.284,1.164,0.645,2.303,0.995,3.445c-9.521-1.698-20.054,0.963-29.284,3.298
	c-10.722,2.713-21.346,5.71-31.864,9.155c-9.375,3.072-18.236,7.352-27.213,11.405c-4.998,2.256-10.134,4.336-14.753,7.348
	c-1.183,0.771-2.619,1.552-3.932,2.462c-0.021-0.243-0.027-0.482-0.053-0.726C32.596,103.493,34.82,101.489,38.869,98.185z
	 M28.281,153.243c0.979-7.971,2.6-15.89,3.566-23.87c0.646-5.332,1.536-10.473,1.557-15.743c3.042-2.171,7.474-3.888,10.385-5.404
	c4.207-2.192,8.59-3.976,12.883-5.985c8.861-4.149,17.723-8.251,27.102-11.102c9.384-2.85,18.849-5.265,28.397-7.465
	c9.48-2.183,19.11-2.482,28.591-4.252c0.147-0.027,0.265-0.091,0.383-0.155c1.233,4.966,2.289,10.072,3.407,15.06
	c1.507,6.718,3.556,13.734,5.007,20.721c-10.851,0.455-22.124,3.547-32.688,5.925c-12.303,2.772-24.181,7.008-35.943,11.489
	c-10.694,4.074-21.583,7.82-31.823,13.003c-6.823,3.454-15.213,7.369-21.466,12.686C27.866,156.512,28.08,154.873,28.281,153.243z
	 M26.922,162.845c7.328-4.56,14.906-8.933,22.562-12.905c10.751-5.577,22.275-9.467,33.559-13.765
	c10.765-4.1,21.747-7.709,32.966-10.356c10.695-2.524,22.656-5.766,33.694-6.056c0.261-0.007,0.492-0.059,0.708-0.129
	c0.263,1.621,0.494,3.239,0.646,4.846c-7.846,0.975-15.688,3.014-23.195,4.931c-19.691,5.03-39.219,10.56-58.103,18.229
	c-10.535,4.278-21.051,9.008-30.968,14.57c-3.863,2.165-8.614,4.229-13.04,6.723C26.208,166.926,26.581,164.889,26.922,162.845z
	 M15.677,185.102c-0.237,0.007-0.47,0.032-0.691,0.09c1.163-0.305,0.421-0.83,0.992-2.008c0.958-1.976,2.631-3.321,4.235-4.718
	c0.601-0.524,1.3-1.093,1.971-1.714c1.801-0.941,3.63-1.815,5.207-2.674c4.046-2.203,8.249-4.101,12.322-6.255
	c8.685-4.592,17.529-8.321,26.442-12.428c7.604-3.503,15.686-6.721,23.746-8.997c9.196-2.596,18.183-6.483,27.51-8.507
	c9.942-2.156,19.727-4.697,29.751-6.459c5.225-0.918,10.464-1.508,15.622-1.055c0.129,1.559,0.606,3.153,1.05,4.715
	c-0.761-0.019-1.515-0.021-2.252,0.009c-7.273,0.293-14.585,1.415-21.772,2.493c-14.306,2.146-28.222,5.292-41.854,10.172
	c-16.193,5.796-31.503,13.647-47.313,20.323c-6.642,2.804-13.17,6.04-19.884,8.839C25.898,178.954,19.689,181.237,15.677,185.102z
	 M22.62,229.627c-0.492-6.075,0.386-12.922-1.038-18.851c-0.832-3.466-1.752-6.808-2.405-10.257
	c1.277-0.249,2.443-0.497,3.549-0.879c-0.897,6.49,1.28,14.16,1.67,20.337c0.492,7.819,1.944,15.985,1.4,23.811
	c-0.794,0.34-1.587,0.68-2.375,1.038C23.6,239.735,23.033,234.699,22.62,229.627z M18.839,188.546
	c1.443-0.735,2.906-1.449,4.371-2.163c0.365,2.62,1.446,5.48,0.304,7.695c-0.898,1.742-2.95,2.115-4.918,2.618
	c-0.039-0.342-0.084-0.681-0.115-1.027C18.298,193.615,19.07,190.844,18.839,188.546z M22.057,252.113
	c14.054-8.183,30.914-11.474,46.34-15.944c8.901-2.579,18.482-4.064,27.566-5.968c9.091-1.906,18.347-3.124,27.534-4.414
	c16.533-2.323,33.495-3.643,49.848-6.993c5.991-0.25,11.966-1.111,17.971-1.21c3.093-0.05,6.161-0.414,9.257-0.499
	c4.051-0.113,6.577,1.821,1.393,3.305c-6.908,1.978-14.11-0.086-21.071,2.024c-0.053,0.016-0.089,0.049-0.138,0.068
	c-2.624,0.128-5.245,0.315-7.849,0.7c-7.443,1.1-14.953,1.879-22.428,2.828c-15.624,1.983-31.571,4.54-46.96,7.734
	c-15.808,3.282-31.606,7.186-46.917,12.349c-6.411,2.162-12.607,5.075-19.083,6.947c-5.297,1.53-10.737,3.647-15.688,6.318
	c-0.859,0.231-1.623,0.353-2.171,0.268C12.718,258.546,20.313,253.13,22.057,252.113z M16.77,265.744
	c-0.006-0.061-0.013-0.105-0.02-0.162c2.536,0.195,5.48-0.752,8.384-1.822c0.413,1.753,1.256,3.43,1.286,5.27
	c0.019,1.104,0.053,2.153-0.986,2.76c-1.232,0.722-2.765,0.417-4.115,0.583c-1.311,0.161-3.314,1.021-4.183-0.173
	c-0.716-0.985-0.339-2.627-0.287-3.783C16.889,267.494,16.861,266.642,16.77,265.744z M9.208,355.115
	c-4.377-1.263,0.741-3.877,3.042-5.337c2.6-1.648,5.379-3.045,8.192-4.289c6.541-2.894,13.891-4.409,20.788-6.272
	c14.357-3.877,28.768-8.001,43.398-10.86c15.312-2.992,30.545-4.82,46.06-5.957c15.171-1.113,30.278-3.066,45.45-4.111
	c15.27-1.053,30.571,0.374,45.769-0.419c3.006,0.34,5.939,0.571,8.974,0.647c2.943,0.074,6.785-0.438,9.551,0.609
	c3.333,1.262,4.167,3.889,4.677,6.76c-1.272-0.176-2.69-0.244-4.286-0.238c-3.534,0.014-8.124-0.783-12.271-0.573
	c-14.238-2.884-29.443-1.101-43.877-1.277c-14.036-0.171-28.138,1.307-42.075,2.881c-14.894,1.681-29.767,3.113-44.383,6.41
	c-7.377,1.664-14.688,3.603-22.078,5.257c-7.133,1.597-13.768,4.115-20.741,6.207c-7.199,2.16-14.411,4.583-21.686,6.471
	c-3.396,0.88-6.891,1.489-10.317,2.252C19.32,354.183,13.387,356.323,9.208,355.115z M189.318,386.496
	c-0.022-7.425-0.341-14.805-0.404-22.237c-0.05-5.927,0.815-12.206-0.315-18.081c0.295,0.012,0.582,0.02,0.85,0.027
	c2.16,0.056,5.441,0.199,8.652-0.042c-0.122,5.357,0.797,10.942,0.798,16.246c0.001,6.663,0.299,13.302,0.297,19.982
	c-0.002,8.108-0.57,16.158-0.563,24.269c0.005,4.69-0.151,9.24-0.501,13.906c-0.125,1.674,0.128,5.87-0.97,6.693
	c-2.507,1.879-7.12-0.21-7.866-2.53c-1.087-3.381,0.118-8.284,0.108-11.814C189.379,404.108,189.345,395.302,189.318,386.496z
	 M187.828,341.147c-3.171-0.251-6.978-0.334-8.083-3.664c-0.808-2.439,0.032-4.628-0.708-6.88c7.949-0.261,15.9-0.329,23.832-0.2
	c0.449,1.691,0.199,4.149,0.132,5.841c-0.115,2.93-0.072,3.481-2.91,4.092C196.318,341.149,191.729,341.455,187.828,341.147z
	 M126.195,401.571c0.145,3.948,0.209,8.022,0.143,11.972c-0.039,2.289-0.376,4.549-0.449,6.838c-0.048,1.529,0.764,4.93,0.043,6.106
	c-0.326,0.531-4.827,2.116-6.537,1.775c-0.256-0.052-0.438-0.079-0.574-0.093c-1.353-2.515-0.215-9.74-0.335-12.36
	c-0.334-7.262-0.038-14.554-0.38-21.811c-0.363-7.711-0.923-15.361-0.574-23.112c0.335-7.478,0.698-14.851,0.118-22.291
	c1.217-0.155,2.354-0.302,3.317-0.358c1.698-0.096,3.767-0.172,5.9-0.378c-0.57,4.272,0.176,9.215-0.016,13.301
	c-0.322,6.88-0.533,13.842-1.082,20.701C125.249,388.353,125.956,395.062,126.195,401.571z M121.704,343.456
	c-2.079,0.208-8.81,1.491-10.691,0.646c-2.217-0.998-0.897,0.105-1.444-2.239c-0.346-1.48-0.128-2.822-0.267-4.247
	c3.262-0.509,6.521-1.005,9.772-1.497c4.814-0.728,9.651-1.385,14.506-1.98c0.546,2.565,1.252,5.522-0.113,7.012
	C131.25,343.571,124.739,343.152,121.704,343.456z M63.529,390.728c0.008,6.195-0.162,12.323-0.413,18.507
	c-0.165,4.067,1.156,14.192-2.769,16.184c-4.109,2.086-3.685-4.062-3.672-6.641c0.016-2.945-0.082-5.916,0.108-8.848
	c0.409-6.305,0.386-12.587,0.376-18.918c-0.009-5.766,0.199-11.469,0.28-17.215c0.063-4.522,0.929-9.15,0.32-13.638
	c0.671-0.1,1.281-0.176,1.784-0.195c1.164-0.045,2.561-0.027,4.013-0.07C63.151,370.219,63.515,380.398,63.529,390.728z
	 M58.113,355.339c-2.196,0.176-6.774,1.817-8.712,1.02c-0.861-0.354-0.524,0.281-0.601-1.51c-0.047-1.074-0.213-2.096-0.43-3.125
	c6.853-2.039,13.694-4.123,20.617-6.02c0.125,2.858,0.638,7.703-1.229,8.888C66.262,355.544,59.746,355.209,58.113,355.339z
	 M22.009,438.014c-0.198,0.855-0.502,1.719-0.952,2.602c-0.102,0.199-0.21,0.4-0.374,0.552c-0.018,0.016-0.04,0.023-0.059,0.039
	c-0.905-0.004-1.817-0.143-2.494-0.351c-0.875-0.268-1.525-0.687-2.036-1.199c-0.076-0.117-0.157-0.233-0.222-0.356
	c-1.123-2.142-0.438-4.072-0.565-6.272c-0.165-2.851-0.603-5.642-0.601-8.513c0.004-5.087,0.079-10.173,0.098-15.26
	c0.395-6.25,0.147-12.55,0.462-18.792c0.15-2.97-0.249-5.982-0.022-8.946c0.23-3.019,1.29-6.295,0.593-9.328
	c-0.038-0.164-0.082-0.293-0.124-0.435c0.54-0.041,1.114-0.103,1.813-0.197c1.015-0.137,2.17-0.348,3.333-0.649
	c-0.327,3.892-0.022,7.743,0.222,11.68c0.402,6.488-0.285,13.056,0.045,19.557c0.286,5.645,0.876,11.165,0.878,16.832
	c0.002,3.154,0.025,6.308,0.039,9.46C22.059,431.872,22.736,434.884,22.009,438.014z M22.028,365.797
	c-1.201,0.75-2.487,1.371-3.872,1.618c-1.719,0.306-4.655,1.327-6.304,0.212c-1.421-1.888-0.965-4.094-1.095-6.529
	c0.005-0.001,0.008-0.009,0.014-0.011c4.099-0.332,8.356-1.636,11.777-2.396c0.224-0.05,0.446-0.108,0.671-0.158
	c-0.276,1.402,0.161,2.919,0.286,4.567C23.63,364.758,23.476,364.892,22.028,365.797z M47.068,434.307
	c-1.123-0.216-2.242-0.213-3.36-0.117c-3.045-0.014-6.109,0.09-9.131,0.276c-1.38,0.084-2.963,0.157-4.519,0.376
	c-0.947-0.04-1.889-0.102-2.822-0.195c-0.165-0.016-0.315,0.009-0.47,0.022c0.141-7.181,0.21-14.409,0.091-21.576
	c-0.127-7.702-0.985-15.329-0.994-23.066c-0.008-6.8,0.183-14.04-0.864-20.809c0.933-0.584,1.752-1.286,2.318-2.175
	c1.366-2.14,1.29-6.937-0.129-9.45c6.078-1.483,12.075-3.185,18.053-4.946c-0.593,2.606-1.083,6.072,0.977,7.543
	c1.795,1.283,5.097,0.986,8.135,0.519c-2.583,13.418-2.008,27.617-2.025,41.175c-0.009,7.244-1.062,14.543-0.509,21.825
	c0.093,1.222,0.345,2.28,0.737,3.187c-0.726,0.156-1.429,0.365-2.072,0.624C47.786,428.613,47.255,431.591,47.068,434.307z
	 M67.518,439.346c-1.035,1.014-7.072,0.771-8.507,0.817c-1.763,0.056-5.358,0.707-6.782-0.346c-1.432-1.058-1.12-3.416-0.995-5.088
	c0.226-3.058,1.04-3.402,3.759-4.099c0.462-0.118,0.904-0.218,1.333-0.321c1.127,0.376,2.429,0.546,3.945,0.451
	c0.523-0.033,0.992-0.11,1.43-0.212c2.67,0.218,5.587-1.222,6.006,3.185C67.802,434.742,68.309,438.572,67.518,439.346z
	 M107.97,433.805c-0.081,0.291-0.145,0.604-0.204,0.925c-2.327-0.597-4.915-0.224-7.296-0.096
	c-4.141,0.223-8.358,0.335-12.491,0.204c-3.93-0.125-7.904,0.182-11.819,0.043c-1.319-0.047-2.694-0.29-3.955-0.09
	c-0.045-0.531-0.091-1.041-0.127-1.483c-0.216-2.751-1.027-5.805-3.76-7.039c-0.605-0.273-1.318-0.483-2.074-0.621
	c0.272-0.994,0.455-2.078,0.613-3.208c0.948-6.797,1.056-13.912,1.19-20.768c0.154-7.847-0.005-15.679-0.465-23.494
	c-0.367-6.228,0.591-12.475,0.412-18.748c1.468-0.321,2.801-0.854,3.785-1.756c3.168-2.91,2.16-9.27,1.881-13.178
	c10.612-2.667,21.418-4.61,32.219-6.336c-0.936,3.298-1.417,8.018,1.315,9.739c1.87,1.177,4.565,1.258,7.25,1.046
	c-1.705,7.643-1.233,16.393-1.565,24.093c-0.373,8.665,0.582,17.239,0.421,25.855c-0.171,9.189-0.098,18.807,0.612,27.972
	c0.07,0.905,0.186,1.673,0.342,2.34C111.306,429.852,108.665,431.306,107.97,433.805z M130.732,438.552
	c-0.537,1.155-1.318,0.836-2.852,1.039c-3.054,0.406-6.04-0.026-9.118-0.016c-1.08,0.004-6.031,0.723-6.768,0.132
	c-0.495-0.396-0.142-5.146,0.294-5.685c0.846-1.046,3.476-1.046,5.003-1.208c1.381,0.367,3.191,0.258,5.489,0.117
	c1.203-0.074,2.206-0.253,3.048-0.523c0.498,0.066,0.997,0.131,1.498,0.19c1.972,0.23,2.338-0.294,3.099,1.648
	C130.806,435.218,131.185,437.578,130.732,438.552z M179.266,436.184c-2.202-1.272-5.024-0.373-7.536-0.446
	c-5.002-0.145-10.071-0.177-15.046-0.603c-4.468-0.382-8.703-0.332-13.18-0.291c-2.611,0.023-5.517-0.387-8.117,0.281
	c-0.467-3.304-1.446-6.744-5.278-7.249c-0.1-0.013-0.192-0.013-0.291-0.023c0.521-2.652,0.047-6.051,0.264-9.505
	c0.574-9.164,0.032-18.29,0.075-27.471c0.07-14.51,2.151-29.23,1.365-43.739c2.153-0.503,4.127-1.273,5.568-2.488
	c2.842-2.398,2.123-7.29,1.158-11.063c12.523-1.421,25.151-2.387,37.794-2.878c-1.274,3.4-1.692,8.03,0.143,11.115
	c1.59,2.674,5.535,3.7,9.106,4.111c-0.488,3.01-0.239,6.376-0.492,9.28c-0.428,4.894-0.441,9.767-0.485,14.686
	c-0.079,8.745,0.222,17.494,0.195,26.257c-0.016,5.272-0.052,10.546-0.048,15.819c0.004,4.979-1.019,10.519,0.106,15.414
	c0.186,0.81,0.463,1.489,0.808,2.067c-0.739,0.193-1.455,0.436-2.112,0.768C181.001,431.367,179.842,433.744,179.266,436.184z
	 M202.229,436.592c-0.125,2.58-0.351,5.753-3.047,6.819c-1.961,0.776-5,0.383-7.063,0.367c-2.127-0.018-5.888,0.233-7.777-0.814
	c-1.58-0.876-1.182-3.915-0.888-5.877c1.022-6.813,10.862-4.392,15.367-4.186C201.916,433.043,202.375,433.579,202.229,436.592z
	 M253.467,400.5c-0.291,7.013-0.592,14.056-0.78,21.089c-0.108,4.051-0.042,8.12-0.265,12.163c-0.076,1.395-0.195,2.644-0.189,3.844
	c-1.526-0.026-3.053-0.05-4.569-0.102c-7.124-0.244-14.36-0.12-21.521-0.183c-6.084-0.054-12.871-0.388-18.972,0.603
	c0.041-0.675,0.069-1.334,0.08-1.936c0.084-4.72-2.192-6.873-5.254-7.348c0.489-1.543,0.549-3.495,0.737-5.662
	c0.861-9.865,0.434-19.742,0.995-29.622c0.889-15.663,0.839-32.264-0.94-47.924c1.564-0.421,2.929-1.028,3.882-1.916
	c2.787-2.596,2.405-8.719,1.718-12.982c6.453,0.181,12.891,0.487,19.299,0.938c0.515,0.036,0.966-0.06,1.361-0.242
	c1.677,0.284,3.377,0.416,4.868,0.593c3.008,0.358,7.817,1.542,11.554,1.203c0.272,0.362,0.536,0.88,0.816,1.623
	c0.43,1.141,0.566,3.072,0.756,4.273c0.55,3.48,0.571,7.049,1.075,10.534c0.74,5.116,2.992,7.549,6.514,9.226
	c-0.496,3.522-1.4,15.479-1.395,17.181C253.258,384.069,253.808,392.29,253.467,400.5z M265.163,384.415
	c-0.117,7.919-0.407,15.869-0.249,23.787c0.138,6.904,0.376,13.802,0.436,20.707c0.025,2.773-0.114,5.874,0.297,8.727
	c-2.789,0.014-5.584,0.025-8.375,0.014c0.836-5.199-0.029-11.241-0.107-16.061c-0.12-7.413,0.313-14.824,0.423-22.215
	c0.117-7.856-0.319-15.662-0.387-23.519c-0.043-5.011,1.031-10.766,0.545-15.952c0.59,0.198,1.196,0.392,1.832,0.585
	c2.43,0.737,4.619,1.638,6.548,2.758C264.286,369.856,265.262,377.755,265.163,384.415z M299.8,437.051
	c-8.479,1.205-17.961,0.528-26.526,0.55c-0.898,0.002-1.806,0.008-2.706,0.013c0.052-3.123-0.331-6.276-0.352-9.409
	c-0.048-7.056-0.531-14.103-0.648-21.156c-0.127-7.543-0.142-15.09-0.254-22.634c-0.089-6.019,0.706-13.146-0.529-19.35
	c3.204,2.627,5.343,6.229,6.159,11.316c1.205,7.505,1.81,15.353,5.99,21.903c3.516,5.509,8.078,10.175,11.449,15.879
	c3.277,5.544,5.597,12.562,6.97,18.802c0.28,1.271,0.594,2.646,0.98,4.044C300.153,437.02,299.973,437.026,299.8,437.051z
	 M306.652,430.254c-0.34-1.324-0.708-2.64-1.19-3.933c-2.447-6.573-4.347-12.776-8.256-18.707c-1.824-2.768-3.5-5.643-5.565-8.25
	c-2.988-3.772-5.947-6.464-7.455-11.276c-2.348-7.494-2.658-15.281-7.018-22.034c-3.698-5.73-8.805-9.035-14.979-11.746
	c-4.647-2.041-6.208-3.061-6.826-8.409c-0.436-3.779-0.91-7.563-1.725-11.272c-0.206-0.944-0.456-1.768-0.732-2.528
	c2.903,0.66,6.139,0.858,9.391,0.855c-1.066,6.421,1.5,13.983,7.158,17.068c4.86,2.65,10.172,4.282,12.8,9.643
	c2.497,5.094,3.022,11.149,4.497,16.574c2.489,9.158,7.325,17.347,12.356,25.274c2.09,3.296,3.572,6.94,5.269,10.405
	c0.888,1.814,2.463,4.42,4.524,5.213c0.087,1.947,0.197,3.895,0.367,5.841c0.189,2.167,0.25,4.119,0.737,5.662
	C308.699,428.834,307.55,429.368,306.652,430.254z M305.333,343.508c0.953,0.888,2.318,1.495,3.882,1.916
	c-1.779,15.659-1.829,32.26-0.94,47.924c0.245,4.319,0.302,8.638,0.36,12.956c-0.079-0.158-0.151-0.308-0.234-0.474
	c-1.45-2.874-2.871-5.68-4.761-8.24c-5.625-7.615-10.235-16.567-12.346-25.83c-1.97-8.65-3.592-17.42-11.66-22.384
	c-3.141-1.932-8.523-3.051-10.639-6.247c-1.791-2.707-1.998-6.839-2.672-10.273c3.334-0.143,6.556-0.4,9.297-0.517
	c3.944-0.169,7.829-0.417,11.756-0.856c2.271-0.253,4.417-0.3,6.488-0.587c3.245-0.157,6.498-0.281,9.752-0.373
	C302.928,334.789,302.546,340.912,305.333,343.508z M332.258,337.483c-1.104,3.33-4.911,3.414-8.083,3.664
	c-3.901,0.308-8.488,0.002-12.265-0.811c-2.838-0.612-2.794-1.162-2.91-4.092c-0.067-1.692-0.317-4.149,0.132-5.841
	c7.933-0.129,15.883-0.061,23.832,0.2C332.227,332.855,333.066,335.043,332.258,337.483z M323.09,364.26
	c-0.062,7.432-0.382,14.812-0.404,22.237c-0.027,8.806-0.061,17.612-0.086,26.418c-0.011,3.529,1.196,8.433,0.108,11.814
	c-0.746,2.32-5.36,4.411-7.866,2.53c-1.097-0.823-0.844-5.018-0.97-6.693c-0.349-4.667-0.504-9.216-0.501-13.906
	c0.007-8.111-0.56-16.161-0.563-24.269c-0.002-6.679,0.295-13.319,0.297-19.982c0.001-5.304,0.92-10.889,0.798-16.246
	c3.212,0.243,6.493,0.099,8.652,0.042c0.268-0.007,0.555-0.016,0.85-0.027C322.275,352.054,323.141,358.333,323.09,364.26z
	 M327.663,442.964c-1.89,1.047-5.65,0.796-7.778,0.814c-2.062,0.018-5.101,0.409-7.063-0.367c-2.697-1.067-2.922-4.239-3.047-6.819
	c-0.147-3.013,0.313-3.549,3.407-3.691c4.503-0.206,14.343-2.627,15.367,4.186C328.844,439.05,329.243,442.088,327.663,442.964z
	 M376.618,435.128c-2.599-0.668-5.506-0.258-8.117-0.281c-4.477-0.041-8.712-0.091-13.18,0.291
	c-4.976,0.426-10.044,0.456-15.046,0.603c-2.514,0.074-5.335-0.827-7.536,0.446c-0.577-2.44-1.735-4.817-3.996-5.958
	c-0.657-0.332-1.372-0.574-2.11-0.768c0.344-0.578,0.621-1.256,0.808-2.067c1.124-4.895,0.102-10.436,0.106-15.414
	c0.004-5.272-0.032-10.546-0.048-15.819c-0.027-8.764,0.273-17.511,0.195-26.257c-0.045-4.918-0.057-9.792-0.485-14.686
	c-0.254-2.905-0.006-6.27-0.494-9.28c3.571-0.41,7.516-1.436,9.106-4.111c1.835-3.085,1.417-7.715,0.143-11.115
	c12.642,0.491,25.271,1.457,37.794,2.878c-0.965,3.774-1.682,8.667,1.158,11.063c1.441,1.216,3.415,1.986,5.569,2.488
	c-0.787,14.51,1.296,29.23,1.365,43.739c0.045,9.181-0.499,18.306,0.075,27.471c0.216,3.454-0.257,6.853,0.264,9.505
	c-0.098,0.011-0.191,0.011-0.29,0.023C378.064,428.384,377.085,431.824,376.618,435.128z M400.991,344.101
	c-1.881,0.846-8.613-0.437-10.69-0.646c-3.035-0.304-9.547,0.115-11.763-2.304c-1.365-1.49-0.659-4.447-0.113-7.012
	c4.855,0.596,9.692,1.252,14.506,1.98c3.251,0.491,6.51,0.988,9.772,1.497c-0.139,1.424,0.079,2.767-0.267,4.247
	C401.887,344.208,403.208,343.105,400.991,344.101z M393.183,428.167c-0.136,0.014-0.318,0.041-0.574,0.093
	c-1.709,0.342-6.211-1.243-6.537-1.775c-0.721-1.176,0.093-4.577,0.043-6.106c-0.072-2.29-0.41-4.55-0.449-6.838
	c-0.066-3.949-0.002-8.024,0.143-11.972c0.239-6.509,0.946-13.218,0.427-19.707c-0.549-6.86-0.76-13.822-1.082-20.701
	c-0.192-4.086,0.553-9.029-0.015-13.301c2.131,0.205,4.202,0.281,5.898,0.378c0.964,0.055,2.101,0.203,3.317,0.358
	c-0.58,7.44-0.217,14.814,0.118,22.291c0.347,7.751-0.211,15.401-0.576,23.112c-0.342,7.256-0.046,14.549-0.379,21.81
	C393.398,418.428,394.536,425.652,393.183,428.167z M400.01,439.708c-0.737,0.591-5.689-0.129-6.768-0.132
	c-3.078-0.011-6.064,0.421-9.118,0.016c-1.534-0.204-2.314,0.116-2.853-1.039c-0.454-0.974-0.074-3.334,0.306-4.304
	c0.761-1.944,1.127-1.42,3.099-1.648c0.502-0.059,1-0.124,1.498-0.19c0.842,0.27,1.845,0.449,3.048,0.523
	c2.297,0.141,4.108,0.25,5.489-0.117c1.526,0.162,4.156,0.162,5.003,1.208C400.152,434.562,400.505,439.312,400.01,439.708z
	 M439.925,433.307c-0.035,0.442-0.081,0.952-0.127,1.483c-1.259-0.2-2.634,0.043-3.955,0.09c-3.915,0.138-7.888-0.169-11.818-0.043
	c-4.133,0.133-8.35,0.02-12.491-0.204c-2.381-0.128-4.969-0.501-7.296,0.096c-0.057-0.321-0.123-0.635-0.204-0.925
	c-0.695-2.498-3.336-3.953-6.286-4.601c0.156-0.667,0.272-1.434,0.342-2.34c0.71-9.165,0.783-18.782,0.612-27.972
	c-0.161-8.616,0.794-17.19,0.422-25.855c-0.332-7.7,0.141-16.45-1.565-24.093c2.685,0.212,5.381,0.13,7.25-1.046
	c2.734-1.721,2.251-6.441,1.315-9.739c10.801,1.726,21.608,3.67,32.219,6.336c-0.279,3.909-1.287,10.269,1.881,13.178
	c0.984,0.904,2.317,1.435,3.785,1.756c-0.179,6.274,0.779,12.52,0.412,18.748c-0.461,7.815-0.618,15.647-0.465,23.494
	c0.134,6.855,0.242,13.972,1.19,20.768c0.158,1.129,0.341,2.212,0.613,3.208c-0.756,0.138-1.469,0.348-2.074,0.621
	C440.951,427.502,440.141,430.557,439.925,433.307z M462.603,356.359c-1.938,0.797-6.516-0.844-8.712-1.02
	c-1.632-0.13-8.148,0.205-9.644-0.746c-1.865-1.186-1.354-6.03-1.229-8.888c6.923,1.897,13.764,3.982,20.617,6.02
	c-0.217,1.028-0.385,2.051-0.43,3.125C463.127,356.641,463.464,356.006,462.603,356.359z M448.887,409.236
	c-0.251-6.185-0.421-12.312-0.413-18.507c0.014-10.331,0.38-20.51-0.028-30.831c1.453,0.043,2.849,0.025,4.013,0.07
	c0.503,0.019,1.114,0.095,1.784,0.195c-0.609,4.487,0.257,9.114,0.32,13.638c0.081,5.746,0.288,11.449,0.279,17.215
	c-0.009,6.331-0.033,12.613,0.376,18.918c0.19,2.932,0.093,5.903,0.108,8.848c0.014,2.578,0.437,8.726-3.672,6.641
	C447.73,423.428,449.051,413.303,448.887,409.236z M459.775,439.819c-1.424,1.052-5.019,0.402-6.782,0.346
	c-1.435-0.047-7.471,0.197-8.507-0.817c-0.79-0.774-0.283-4.604-0.188-5.61c0.419-4.407,3.337-2.967,6.006-3.185
	c0.438,0.102,0.907,0.179,1.43,0.212c1.516,0.095,2.818-0.075,3.945-0.451c0.428,0.103,0.871,0.203,1.333,0.321
	c2.719,0.696,3.533,1.041,3.759,4.099C460.895,436.402,461.207,438.761,459.775,439.819z M486.142,390.028
	c-0.009,7.736-0.868,15.363-0.994,23.066c-0.117,7.167-0.049,14.395,0.091,21.576c-0.155-0.013-0.305-0.039-0.47-0.022
	c-0.933,0.093-1.876,0.154-2.823,0.195c-1.556-0.219-3.139-0.292-4.519-0.376c-3.021-0.184-6.087-0.29-9.131-0.276
	c-1.12-0.096-2.237-0.099-3.36,0.117c-0.188-2.718-0.719-5.696-3.419-6.786c-0.642-0.259-1.346-0.468-2.072-0.624
	c0.393-0.906,0.645-1.964,0.737-3.187c0.553-7.282-0.499-14.581-0.509-21.825c-0.016-13.558,0.558-27.757-2.025-41.175
	c3.039,0.467,6.34,0.763,8.135-0.519c2.06-1.471,1.571-4.937,0.977-7.543c5.978,1.761,11.975,3.463,18.053,4.946
	c-1.42,2.512-1.495,7.31-0.129,9.45c0.567,0.889,1.386,1.591,2.319,2.175C485.959,375.989,486.15,383.228,486.142,390.028z
	 M496.13,439.3c-0.064,0.123-0.145,0.239-0.222,0.356c-0.511,0.514-1.163,0.932-2.036,1.199c-0.675,0.208-1.587,0.347-2.494,0.351
	c-0.018-0.015-0.041-0.022-0.059-0.039c-0.163-0.152-0.272-0.354-0.374-0.552c-0.45-0.884-0.754-1.747-0.952-2.602
	c-0.727-3.13-0.049-6.142-0.034-9.577c0.014-3.154,0.036-6.306,0.039-9.46c0.004-5.667,0.592-11.187,0.878-16.832
	c0.329-6.501-0.358-13.068,0.045-19.557c0.244-3.937,0.549-7.787,0.222-11.68c1.164,0.301,2.318,0.512,3.333,0.65
	c0.699,0.094,1.272,0.157,1.813,0.197c-0.042,0.142-0.087,0.271-0.124,0.435c-0.696,3.032,0.363,6.308,0.593,9.328
	c0.225,2.964-0.172,5.976-0.022,8.946c0.314,6.242,0.066,12.541,0.461,18.792c0.02,5.087,0.096,10.174,0.099,15.26
	c0.001,2.87-0.436,5.662-0.6,8.513C496.568,435.229,497.254,437.157,496.13,439.3z M500.152,367.627
	c-1.648,1.114-4.585,0.093-6.304-0.212c-1.386-0.246-2.672-0.868-3.874-1.618c-1.448-0.905-1.602-1.039-1.475-2.698
	c0.124-1.647,0.56-3.164,0.286-4.567c0.224,0.05,0.446,0.108,0.671,0.158c3.421,0.761,7.678,2.066,11.777,2.396
	c0.006,0,0.009,0.009,0.014,0.011C501.118,363.533,501.573,365.739,500.152,367.627z M502.797,355.115
	c-4.181,1.206-10.112-0.932-14.189-1.84c-3.426-0.763-6.922-1.372-10.317-2.252c-7.275-1.886-14.488-4.311-21.686-6.471
	c-6.974-2.092-13.608-4.611-20.741-6.207c-7.39-1.654-14.7-3.593-22.078-5.257c-14.618-3.296-29.489-4.727-44.383-6.41
	c-13.937-1.573-28.037-3.051-42.075-2.881c-12.485,0.151-25.546-1.156-38.06,0.353c-4.704,0.164-9.615,1.13-13.65,1.407
	c-4.943,0.339-9.905,0.506-14.864,0.647c-3.387,0.096-6.432-0.55-9.46,0.157c-0.281-2.514-0.857-4.922-2.035-7.113
	c4.33,0.365,8.664,0.075,13.126-0.198c7.352-0.449,14.749-0.814,22.108-1.062c7.332-0.247,14.688,0.392,22.03,0.668
	c5.172,0.195,11.362,0.521,16.61-0.762c4.244,0.007,8.489,0.101,12.732,0.394c15.172,1.046,30.279,2.999,45.45,4.111
	c15.515,1.137,30.748,2.965,46.06,5.957c14.631,2.86,29.041,6.982,43.398,10.86c6.897,1.863,14.247,3.379,20.788,6.272
	c2.814,1.245,5.591,2.64,8.192,4.289C502.056,351.238,507.173,353.852,502.797,355.115z"/>
<path d="M481.46,402.451c-0.009-8.021-0.29-16.363-1.786-24.277c-0.701-3.705-3.656-12.082-8.743-11.362
	c-5.901,0.836-5.826,8.629-6.918,12.788c-2.174,8.273-1.59,17.17-1.692,25.722c-0.05,4.236-1.196,13.81,3.026,16.29
	c1.963,1.152,7.151,1.225,9.429,1.447c1.161,0.114,2.247-0.285,3.446-0.297c1.436-0.014,2.018-0.812,2.591-2.006
	c1.117-2.326,0.692-6.216,0.473-9.389C481.472,408.308,481.464,405.25,481.46,402.451z M476.978,413.211
	c-0.068,0.73-0.101,4.837-0.524,5.093c-0.59,0.356-2.528-0.339-3.317-0.396c-2.228-0.161-4.642,0.423-6.07-1.51
	c-2.202-2.983-0.782-11.818-0.641-15.184c0.275-6.571-0.562-13.352,0.688-19.824c0.842-4.36,2.713-16.81,7.77-7.681
	c3.008,5.431,2.604,13.189,3.048,19.256c0.176,2.399,0.258,4.782,0.273,7.156C477.848,404.489,477.382,408.859,476.978,413.211z"/>
<path d="M437.907,391.985c-0.616-8.799-1.182-17.495-4.945-25.669c-2.503-5.438-6.306-11.646-12.741-12.491
	c-5.798-0.762-9.222,4.696-10.839,9.684c-2.258,6.965-2.006,15.143-2.376,22.378c-0.424,8.269-0.185,16.468,0.297,24.717
	c0.164,2.814-0.807,6.876,1.46,9.103c1.822,1.789,5.388,1.883,7.826,2.26c3.853,0.598,7.726,0.578,11.607,0.38
	c2.206-0.113,5.965,0.367,7.908-0.956c4.637-3.156,2.954-14.224,2.051-20.069C438.206,398.21,438.124,395.093,437.907,391.985z
	 M419.962,416.758c-0.176,0.386-0.224,0.76-0.193,1.113c-1.291-0.108-2.578-0.249-3.85-0.455c-1.196-0.195-3.496-0.423-4.254-1.597
	c-0.616-0.953-0.154-5.584-0.23-6.895c-0.44-7.57-0.601-15.171-0.183-22.746c0.385-6.955-0.072-14.896,2.136-21.563
	c0.317-0.956,0.759-1.868,1.291-2.691c3.588,8.827,6.316,18.269,6.766,27.827c0.24,5.096-0.281,10.477-0.755,15.551
	C420.395,408.485,421.273,413.877,419.962,416.758z M434.102,408.344c-0.185,2.806,0.029,5.656-0.075,8.468
	c-0.127,0.273-0.283,0.434-0.519,0.535c-1.21,0.518-4.934,0.424-6.496,0.557c-1.022,0.087-2.051,0.125-3.081,0.135
	c1.229-3.816,0.538-8.764,0.836-12.672c0.435-5.719,0.712-11.803,0.08-17.525c-0.875-7.914-2.18-21.86-8.983-27.417
	c2.127-2.208,5.089-3.008,8.001-0.413c2.763,2.463,4.893,6.394,6.134,9.868c1.782,4.985,2.699,10.004,3.252,15.108
	c0.123,1.734,0.277,3.466,0.454,5.193c0.115,1.653,0.216,3.314,0.305,4.991C434.246,399.586,434.394,403.93,434.102,408.344z"/>
<path d="M373.513,360.214c-4.065-7.297-9.677-13.876-18.739-14.293c-8.346-0.385-15.307,4.892-17.869,12.681
	c-2.599,7.904-2.847,17.837-3.042,26.132c-0.09,3.817,0.03,7.744,0.349,11.681c-0.178,3.771-0.25,7.548-0.123,11.342
	c0.12,3.612,0.454,8.8,2.822,11.778c1.97,2.476,5.06,2.385,8.037,2.488c6.192,0.216,12.176-1.107,18.32-1.534
	c3.632-0.252,6.904,0.077,10.061-2.136c3.746-2.627,4.001-6.1,3.925-10.341c-0.106-5.738-0.641-11.451-0.42-17.197
	C377.223,380.725,378.611,369.364,373.513,360.214z M361.075,382.623c-0.209,10.94-0.417,21.837-0.832,32.743
	c-0.103,0.205-0.165,0.431-0.176,0.679c-3.313,0.345-6.619,0.829-9.94,1.056c-2.928,0.2-7.824,1.101-9.683-1.448
	c-0.857-1.175-1.263-2.821-1.455-4.603c-0.055-1.022-0.101-2.046-0.162-3.067c-0.026-1.917,0.04-3.781-0.07-5.211
	c-0.263-3.439-0.397-6.734-0.143-10.179c0.574-7.78,0.538-16.367,2.069-24.002c1.014-5.053,1.658-10.354,4.239-14.819
	c1.766-1.806,4.018-3.069,6.847-3.475C358.714,360.351,361.31,370.365,361.075,382.623z M372.678,408.013
	c-0.195,3.814-0.675,6.732-5.044,7.578c-0.889,0.172-1.791,0.19-2.697,0.186c0.532-12.793,1.278-25.893,0.141-38.678
	c-0.856-9.61-2.847-20.521-10.424-26.914c0.042,0.002,0.081-0.001,0.123,0.001c8.42,0.523,15.052,9.109,16.994,16.761
	c2.403,9.467,0.721,19.182,0.661,28.763C372.404,399.81,372.887,403.916,372.678,408.013z"/>
<path d="M474.664,324.811c6.328,0.324,6.363-3.533,6.383-8.977c0.012-3.253,0.365-6.944,0.374-10.599
	c0.075-1.936,0.11-3.855,0.128-5.728c0.062-6.542,0.455-16.107-3.622-21.705c-2.535-3.481-7.22-4.823-10.245-1.202
	c-4.477,5.361-3.71,14.125-4.088,20.501c-0.257,4.327-0.113,8.595-0.087,12.922c0.016,2.67-0.655,6.398,0.172,8.897
	C464.848,322.451,471.186,324.634,474.664,324.811z M466.795,299.72c0.177-4.971-0.232-10.479,0.922-15.352
	c0.623-2.629,1.061-4.436,3.846-4.916c2.988-0.515,3.351,0.999,4.394,3.74c1.081,2.841,1.052,5.915,1.293,8.9
	c0.737,9.097-0.793,18.046-0.861,27.034c-0.292,1.628,0.305,0.818-1.101,1.145c-1.635,0.38-6.169-1.047-7.289-2.079
	c-1.007-0.929-0.777-2.061-0.858-3.82C466.92,309.527,466.621,304.574,466.795,299.72z"/>
<path d="M406.842,301.231c-0.339,7.27,0,9.348,7.609,10.987c3.752,0.808,7.604,1.056,11.357,1.875
	c2.809,0.612,6.575,2.25,9.464,1.874c5.536-0.721,4.456-9.759,4.85-13.694c0.574-5.744,1.26-12.935-0.373-18.758
	c-0.31-7.28-1.178-15.014-4.053-21.682c-2.153-4.992-5.84-10.94-11.742-11.899c-4.851-0.789-10.111,2.046-13.132,5.739
	c-4.563,5.577-4.662,13.453-4.554,20.291C406.402,284.33,407.231,292.874,406.842,301.231z M433.406,267.924
	c2.693,10.221,3.052,20.544,2.742,30.901c-0.208,2.208-0.489,4.405-0.917,6.611c-0.333,1.716-0.086,7.087-2.903,5.479
	c-0.676-0.386-1.395-0.689-2.141-0.937c-2.115-0.701-4.443-0.947-6.61-1.32c-0.388-0.067-0.801-0.121-1.229-0.169
	c0.766-2.98,0.577-6.97,0.665-9.085c0.242-5.779,0.87-11.58,0.637-17.375c-0.257-6.392-0.49-12.191-2.082-18.433
	c-0.633-2.487-1.263-5.938-3.134-8.037C426.68,250.848,431.683,261.384,433.406,267.924z M415.933,257.428
	c3.7,8.205,4.178,18.346,4.02,27.048c-0.084,4.677-0.592,9.348-0.872,14.01c-0.159,2.65-0.064,6.881-1,9.574
	c-1.587-0.202-3.123-0.515-4.337-1.165c-2.518-1.352-2.151,0.654-2.012-3.337c0.046-1.307,0.237-2.58,0.234-3.897
	c-0.019-7.563-0.542-15.161-0.684-22.729C411.158,270.254,410.938,262.239,415.933,257.428z"/>
<path d="M377.279,264.026c-1.96-12.097-11.759-29.851-26.547-28.342c-4.972,0.508-10.568,4.061-13.959,7.6
	c-4.561,4.759-5.676,11.069-5.991,17.419c-0.4,8.082-0.946,15.946-0.696,24.064c0.118,3.848,0.389,7.709,0.372,11.553
	c-0.011,2.518-0.403,5.016,0.65,7.339c0.375,0.828,1.36,1.208,2.196,1.259c3.466,0.215,7.397,1.265,10.885,1.722
	c2.966,0.388,5.874,0.104,8.858,0.233c6.209,0.27,12.693,1.911,18.877,1.249c5.78-0.62,6.067-3.862,5.964-9.135
	c-0.056-2.851-0.157-5.72-0.325-8.589c0.096-1.386,0.19-2.773,0.263-4.162C378.216,278.717,378.488,271.486,377.279,264.026z
	 M362.521,288.539c-0.23,4.441-0.054,9.463-1.462,13.743c-4.55-0.242-9.078-0.338-13.658-0.434
	c-4.119-0.087-8.096-1.311-12.137-1.828c-0.174-1.769,0.344-4.428,0.287-5.861c-0.123-3.135-0.344-6.256-0.44-9.395
	c-0.192-6.279-0.345-12.513,0.184-18.782c0.503-5.962-0.057-12.322,3.416-17.543c2.183-3.282,6.821-6.642,10.667-7.594
	c0.505-0.125,1.006-0.208,1.504-0.261c3.943,3.611,7.652,7.719,9.3,12.883c1.851,5.806,2.313,11.817,2.534,17.876
	C362.924,277.048,362.815,282.838,362.521,288.539z M371.689,302.585c-1.442,0.583-3.581,0.286-5.345,0.079
	c1.413-4.931,1.013-10.941,1.095-15.885c0.111-6.73-0.001-13.59-0.598-20.29c-0.828-9.294-2.788-18.83-9.596-24.824
	c4.238,1.866,7.852,5.719,10.269,9.347c3.735,5.604,5.146,12.129,5.948,18.709c0.373,3.061,0.494,6.152,0.482,9.245
	c-0.708,5.336-1.024,10.66-0.974,16.061C372.991,297.348,373.7,301.773,371.689,302.585z"/>
<path d="M225.493,348.867c-7.179,3.609-10.793,11.025-13.355,18.335c-2.542,7.256-3.041,16.336-2.882,24.25
	c-0.519,4.461-0.302,9.082-0.063,13.505c0.348,6.437-1.408,14.648,6.687,15.884c3.943,0.601,8.165,0.108,12.124-0.055
	c4.645-0.191,9.366,0.07,13.816-1.573c6.414-2.369,4.514-10.63,4.869-16.143c0.62-9.637,0.808-19.338,0.802-29.01
	c-0.005-7.836,0.251-15.426-4.631-21.98C238.115,345.709,232.265,345.462,225.493,348.867z M219.311,414.851
	c-0.318-0.023-0.637-0.045-0.954-0.076c-1.449-0.145-2.341-0.714-2.904-1.538c0.218-5.383-0.607-11.301-0.866-16.193
	c-0.386-7.267-0.073-14.299,0.841-21.516c0.982-7.765,4.275-16.441,10.783-21.114c-1.355,2.195-2.053,4.796-3.169,7.473
	c-2.283,5.475-3.221,11.104-3.882,16.978C217.82,390.783,218.56,402.91,219.311,414.851z M241.806,398.545
	c-0.136,4.154-0.209,8.342-0.524,12.494c-0.205,2.698-0.109,2.304-2.073,3.373c-2.134,1.162-6.017,0.558-8.391,0.526
	c-2.415-0.033-4.828,0.055-7.239,0.055c-1.484-11.059-1.97-23.024-1.062-34.135c0.536-6.557,1.666-12.64,4.103-18.752
	c1.129-2.83,3.086-6.568,3.388-9.777c11.757-4.59,12.426,13.564,12.422,20.834C242.428,381.642,242.082,390.087,241.806,398.545z"/>
<path d="M30.627,218.845c-0.639,6.187-0.021,15.018,6.381,13.575c2.944-0.664,9.67-1.927,10.563-5.588
	c0.648-2.657-0.351-6.595-0.36-9.396c-0.014-4.018-0.15-7.989-0.346-11.997c-0.197-4.024-0.246-10.376-4.164-12.759
	c-3.638-2.212-7.791-0.169-9.899,3.078c-3.155,4.859-2.611,11.642-2.456,17.131C30.4,214.829,30.474,216.834,30.627,218.845z
	 M36.49,196.736c7.201-4.88,7.006,12.2,7.035,13.993c0.063,3.977-0.004,7.968-0.036,11.946c0-0.059,0.123,3.109-0.041,3.305
	c-0.623,0.742-4.968,1.596-5.866,1.521c-2.228-0.184-1.195,0.907-2.052-1.891c-0.366-1.196-0.38-2.541-0.576-3.767
	c-0.134-0.839-0.27-1.685-0.412-2.529c-0.283-2.932-0.699-5.849-0.716-8.386C33.8,207.497,32.909,199.163,36.49,196.736z"/>
<path d="M67.735,210.735c0.093,2.093-0.014,4.867,1.381,6.561c3.3,4.006,10.945,1.183,15.053,0.514
	c4.842-0.789,13.027-2.068,13.276-8.071c0.157-3.794-0.87-7.988-1.417-11.764c-0.525-3.62-0.494-7.206-0.899-10.835
	c-0.673-6.007-2.712-13.265-8.882-15.717c-5.607-2.228-10.811,2.365-13.94,6.665c-4.698,6.454-4.633,15.639-4.275,23.31
	c0.002,0.043,0.004,0.096,0.006,0.141C67.745,204.621,67.601,207.728,67.735,210.735z M85.183,175.615
	c0.155,0.043,0.307,0.081,0.464,0.135c5.541,1.874,5.077,12.823,5.229,17.224c0.138,4.007,1.019,8.024,1.408,12.023
	c0.124,1.279,0.878,4.202,0.013,5.374c-0.812,1.102-4.454,1.878-6.351,2.256c-1.749-5.502-2.305-12.036-2.919-17.695
	C82.505,190.112,81.668,179.944,85.183,175.615z M72.245,190.654c0.453-5.037,3.639-14.126,9.645-15.23
	c-2.894,3.945-3.004,11.345-3.062,15.37c-0.055,3.824,0.492,7.812,1.121,11.579c0.601,3.613,0.705,7.611,1.659,11.184
	c-3.406,0.715-7.723,1.436-8.706,0.352c-0.056-0.062-0.104-0.144-0.154-0.223C72.43,206.058,71.553,198.346,72.245,190.654z"/>
<path d="M141.362,151.409c-6.118,1.548-11.422,7.059-14.287,12.429c-2.376,4.453-3.439,9.109-3.719,13.894
	c-0.046,0.102-0.086,0.211-0.101,0.341c-0.991,7.978,0.004,15.526,1.51,23.414c1.182,6.187,2.875,7.899,9.52,6.915
	c7.301-1.08,14.878-1.854,22.063-3.446c6.56-1.454,8.933-1.858,8.568-8.963c-0.32-6.235-0.789-13.054-2.777-18.993
	c-2.345-7.003-3.848-13.816-8.584-19.608C150.857,154.093,145.919,150.257,141.362,151.409z M133.959,203.285
	c-4.448,0.861-3.435,0.66-4.341-3.134c-0.26-1.086-0.519-2.174-0.778-3.263c-0.215-1.961-0.419-3.925-0.653-5.882
	c-0.843-7.035-1.361-14.719,1.216-21.456c1.048-2.741,3.088-6.321,5.676-9.06c-2.529,5.413-2.998,13.015-2.802,17.616
	c0.216,5.066,1.048,10.303,1.956,15.291c0.522,2.862,0.809,6.541,1.829,9.506C135.359,203.03,134.658,203.151,133.959,203.285z
	 M159.422,192.911c0.063,1.273,0.743,4.003,0.274,5.047c-0.559,1.246-1.049,1.029-2.933,1.497c-3.071,0.761-6.081,1.061-9.211,1.455
	c-2.266,0.285-4.52,0.718-6.771,1.137c-1.617-7.049-2.858-14.108-3.85-21.281c-1.167-8.434,1.201-16.113,3.651-24.056
	c1.734-0.548,3.55-0.502,5.374,0.434c6.815,3.496,8.386,11.648,10.551,18.277C158.386,181.174,159.123,186.886,159.422,192.911z"/>
<path d="M57.483,125.973c0.525-2.687,0.83-7.526-1.328-9.616c-2.12-2.054-5.138-0.909-7.487,0.151
	c-1.225,0.552-2.715,0.817-3.785,1.659c-0.31,0.244-0.587,0.537-0.841,0.862c-2.734,1.494-2.627,3.638-2.536,6.636
	c0.072,2.335-0.918,5.519,1.134,7.322c2.402,2.112,5.862-0.234,8.241-1.126C53.776,130.778,56.842,129.252,57.483,125.973z
	 M45.163,126.745c-0.002-0.835-0.478-2.448-0.311-3.212c0.124-0.569,0.366-0.982,0.668-1.318c1.07-0.55,2.18-1.02,3.306-1.443
	c0.791-0.297,1.51-0.742,2.3-1.034c0.22-0.081,2.063-0.672,2.049-0.68c0.803,0.485,0.545,3.536,0.477,4.34
	c-0.158,1.906-0.501,2.821-2.14,3.72c-1.531,0.841-3.394,1.776-5.06,2.333C44.421,130.134,45.169,128.248,45.163,126.745z"/>
<path d="M65.874,122.736c1.668,2.048,5.03,1.124,7.165,0.559c2.81-0.743,5.526-1.46,7.394-3.816
	c1.786-2.251,2.007-5.999,1.096-8.647c-0.828-2.406-2.086-5.118-4.917-5.418c-1.466-0.155-2.774,0.295-4.108,0.831
	c-0.688,0.277-1.476,0.455-2.13,0.795c-0.644,0.334-1.28,1.036-1.99,1.216c-0.365,0.093-0.612,0.285-0.797,0.512
	c-0.068,0.033-0.144,0.064-0.211,0.097c-2.265,1.111-3.051,2.245-3.195,4.731c-0.102,1.775,0.138,3.333,0.495,5.059
	C64.959,120.007,64.972,121.627,65.874,122.736z M67.504,113.597c0.098-1.372,0.89-1.779,1.99-2.27
	c1.021-0.101,1.979-0.511,2.963-0.851c1.743-0.601,3.4-1.94,4.579-0.036c1.088,1.757,1.313,4.948-0.02,6.658
	c-1.024,1.314-3.128,1.566-4.645,1.979c-0.856,0.232-1.91,0.681-2.783,0.668c-0.287-0.005-0.426,0.045-0.491,0.1
	c-0.019-0.087-0.06-0.206-0.169-0.409C68.108,117.91,67.381,115.314,67.504,113.597z"/>
<path d="M89.454,116.666c1.641,0.646,3.135,0.252,4.786-0.095c1.834-0.385,3.889-0.491,5.664-1.067
	c2.67-0.866,3.836-2.452,3.867-5.146c0.034-3.022,0.668-6.305-0.822-9.131c-1.568-2.972-5.311-2.643-8.195-2.278
	c-2.531,0.319-5.152,1.665-6.726,3.762c-2.407,1.664-2.286,4.116-2.102,7.019C86.084,112.289,86.79,115.617,89.454,116.666z
	 M89.731,106.947c0.237-1.857,1.769-2.557,3.47-3.429c0.542-0.278,1.094-0.53,1.648-0.777c1.638-0.386,3.571-0.584,4.531,0.089
	c1.403,0.984,0.855,4.116,0.725,5.565c-0.069,0.766,0.202,1.896,0.03,2.668c-0.621,0.502-1.355,0.794-2.211,0.858
	c-1.648,0.37-3.521,0.8-5.202,0.93c-2.33,0.181-2.489-0.662-2.841-2.565C89.698,109.289,89.598,107.984,89.731,106.947z"/>
<path d="M122.905,109.125c5.218-0.789,7.731-7.983,6.269-12.545c-0.812-2.537-2.215-4.767-5.165-4.774
	c-2.595-0.006-5.078,0.244-7.185,1.62c-0.801,0.211-1.551,0.48-2.17,0.798c-2.787,1.44-3.102,3.401-3.106,6.319
	c-0.002,2.449-0.005,6.399,2.136,8.133C115.817,110.402,120.442,109.498,122.905,109.125z M117.699,96.407
	c1.036-0.012,2.015-0.213,3.15-0.352c1.719-0.208,3.549-0.718,4.217,1.103c0.98,2.673,0.048,7.302-3.122,7.929
	c-0.787,0.156-2.283,0.259-3.024,0.312c-0.34,0.025-2.702,0.268-2.962,0.05c-0.027-0.022-0.484-2.27-0.488-2.287
	c-0.225-1.086-0.295-2.209-0.361-3.314C114.983,97.722,115.914,97.257,117.699,96.407z"/>
<path d="M280.898,302.943c4.538,0.25,9.28,0.516,13.84,0.302c2.84-0.133,7.777-0.013,9.835-2.396
	c1.696-1.963,1.376-6.257,1.502-8.654c0.28-5.345,0.818-10.676,0.79-16.029c-0.04-7.587-1.31-16.446-6.61-22.321
	c-1.376-1.525-2.996-2.634-4.748-3.389c-0.161-0.164-0.346-0.307-0.574-0.402c-2.753-1.141-4.072-1.844-7.345-1.504
	c-3.728,0.387-7.543,1.719-10.799,3.585c-7.493,4.295-9.961,13.017-10.701,21.072c-0.673,7.331-0.721,15.764,0.618,23.026
	C268.177,304.2,274.097,302.568,280.898,302.943z M296.965,255.931c2.775,2.762,4.895,8.608,5.451,12.554
	c0.599,4.252,0.413,9.024,0.009,13.287c-0.383,4.047,0.252,10.017-1.228,13.686c-0.693,1.718-0.19,1.886-2.405,2.507
	c-0.828,0.231-1.67,0.341-2.516,0.389c0.095-0.217,0.167-0.451,0.197-0.709c1.072-9.159,1.388-19.105,0.571-28.317
	c-0.484-5.456-2.104-12.101-6.154-16.157C293.159,253.433,295.312,254.286,296.965,255.931z M284.737,253.772
	c0.584-0.177,1.185-0.32,1.795-0.433c2.167,2.882,4.503,5.418,5.671,9.091c1.482,4.665,1.376,9.552,1.279,14.376
	c-0.081,3.99-0.485,7.995-0.834,11.97c-0.251,2.863-1.307,6.661-0.501,9.453c0.013,0.043,0.032,0.079,0.046,0.121
	c-0.1,0-0.199-0.002-0.298-0.001c-3.896,0.034-7.886,0.006-11.742-0.333c-2.109-0.185-6.896-0.108-8.026-1.356
	c-0.172-0.19-0.314-0.45-0.43-0.762C273.766,281.597,266.465,259.327,284.737,253.772z"/>
<g>
</g>
<g>
</g>
<g>
</g>
<g>
</g>
<g>
</g>
<g>
</g>
<g>
</g>
<g>
</g>
<g>
</g>
<g>
</g>
<g>
</g>
<g>
</g>
<g>
</g>
<g>
</g>
<g>
</g>
</svg>
