<?xml version="1.0" encoding="iso-8859-1"?>
<!-- Generator: Adobe Illustrator 19.0.0, SVG Export Plug-In . SVG Version: 6.00 Build 0)  -->
<svg version="1.1" id="Layer_1" xmlns="http://www.w3.org/2000/svg" xmlns:xlink="http://www.w3.org/1999/xlink" x="0px" y="0px"
	 viewBox="0 0 512.001 512.001" style="enable-background:new 0 0 512.001 512.001;" xml:space="preserve">
<path style="fill:#F4F4F4;" d="M201.753,177.481c0.016-1.54,0.033-3.08,0.049-4.62c0.01-1.004,0.025-2.03,0.364-2.975
	c0.339-0.945,1.071-1.811,2.05-2.034c1.633-0.371,3.215,1.101,4.875,0.892c1.595-0.201,2.62-1.949,2.592-3.556
	c-0.035-2.094-1.263-4.038-2.398-5.707c-0.844-1.241-4.443-4.464-4.443-5.876c0-1.207-0.38-2.788,0.07-4.078
	c1.473-4.222,4.953-8.494,4.591-12.466c-1.168-12.819,6.739-17.48,17.804-20.999c1.598-24.053,4.263-47.969-3.86-72.754
	c4.747-3.487,9.447-7.103,14.312-10.478c3.672-2.547,7.603-4.796,10.826-7.93c1.689-1.642,2.629-3.013,3.277-5.192
	c0.633-2.127,1.26-4.812,4.006-5.093c1.116-0.114,2.223,0.394,3.07,1.131c0.847,0.736,1.475,1.685,2.092,2.622
	c2.94,4.462,6.397,7.344,10.14,11.087c4.448,4.448,21.083,8.725,17.635,17.516c-0.615,1.566-1.657,2.924-2.476,4.394
	c-2.386,4.285-2.797,9.376-2.764,14.28c0.029,4.23-0.377,8.799,0.163,12.984c0.836,6.491,0.377,13.351,0.475,19.917
	c0.057,3.857,0.115,7.716,0.174,11.573c0.035,2.398,0.159,5.028,1.776,6.799c2.517,2.759,7.002,1.893,10.564,3.019
	c5.022,1.585,7.848,8.002,5.628,12.777c-0.721,1.552-1.89,2.965-2.042,4.668c-0.24,2.698,2.079,4.843,4.078,6.67
	c1.394,1.275,2.765,2.668,3.46,4.425c0.695,1.757,0.556,3.967-0.796,5.285c-0.793,0.773-1.882,1.147-2.827,1.725
	c-3.926,2.405-4.686,7.687-5.043,12.277c2.484-1.219,5.66-0.865,7.815,0.871c3.887,3.132,4.77,10.793-0.348,13.252
	c-1.832,0.881-4.083,0.896-5.648,2.194c-1.696,1.406-2.028,3.838-2.202,6.034c-0.666,8.433-0.753,16.912-0.259,25.357
	c0.104,1.778,0.494,3.922,2.162,4.545c1.211,0.451,2.531-0.149,3.81-0.334c3.55-0.514,6.997,2.599,7.443,6.157
	c0.446,3.559-1.675,7.123-4.703,9.044c-1.754,1.113-3.839,1.804-5.197,3.375c-1.213,1.404-1.658,3.305-1.931,5.14
	c-0.532,3.577-0.504,7.101-0.23,10.695c0.282,3.706-0.045,7.512,0.165,11.27c0.057,1.023,0.171,2.135,0.881,2.875
	c1.255,1.309,3.406,0.672,5.217,0.78c2.834,0.171,5.197,2.474,6.221,5.121c1.024,2.647,0.947,5.584,0.68,8.409
	c-0.142,1.499-0.348,3.04-1.105,4.342c-0.758,1.301-2.198,2.315-3.693,2.133c-1.184-0.144-2.475-0.97-3.451-0.284
	c-0.683,0.48-0.764,1.444-0.776,2.279c-0.106,7.856,0.459,15.756,0.219,23.571c-0.263,8.55-0.346,17.104-0.253,25.657
	c0.095,8.544,0.271,17.088,0.68,25.623c0.204,4.271,0.467,8.539,0.809,12.801c0.246,3.069,1.264,6.068,1.313,9.09
	c0.134,8.119-0.479,16.163,0.045,24.303c0.52,8.09,1.542,16.149,3.059,24.114c1.508,7.922,2.989,16.835,6.348,24.215
	c1.105,2.428,3.022,4.313,4.065,6.781c1.722,4.073,2.75,8.609,3.941,12.863c2.011,7.188,6.537,13.74,4.846,23.333
	c-11.881,6.299-25.242,6.63-38.831,5.685c-11.374-0.792-22.741-2.251-34.115-2.287c-10.612-0.034-21.231,1.394-31.843,2.217
	c-13.724,1.064-27.206,0.628-39.332-5.115c-3.558-8.383,1.018-14.524,3.458-20.502c11.088-27.164,15.782-55.507,17.031-84.566
	c1.339-31.171,2.454-62.354,3.605-93.533c0.177-4.806,1.356-14.53-4.737-16.287c-1.217-0.351-2.571-0.347-3.632-1.039
	c-1.606-1.045-1.929-3.221-2.098-5.129c-0.205-2.295-0.403-4.651,0.217-6.87c0.62-2.22,2.246-4.31,4.498-4.8
	c0.973-0.213,1.993-0.118,2.968-0.321c2.367-0.495,4.071-2.709,4.688-5.048c0.502-1.902,0.111-3.786,0.41-5.685
	c0.215-1.364,0.81-2.606,1.008-3.984c0.377-2.631,0.386-5.421,0.151-8.068c-0.197-2.207,0.283-4.369,0.032-6.571
	c-0.201-1.763-1.074-3.546-2.637-4.386c-1.874-1.008-4.266-0.468-6.193-1.372c-1.696-0.796-2.733-2.606-3.079-4.447
	c-0.346-1.841-0.106-3.734,0.135-5.592c0.176-1.356,0.359-2.738,0.941-3.975c0.583-1.237,1.641-2.33,2.981-2.598
	c2.055-0.411,4.154,1.159,6.187,0.648c1.53-0.385,2.567-1.897,2.87-3.445c0.418-2.135-0.25-4.409-0.271-6.572
	c-0.024-2.443,0-4.888,0-7.331c0-2.527,0-5.055,0-7.581c0-2.788,1.064-6.821-0.35-9.355c-0.814-1.459-2.405-2.452-4.072-2.543
	c-1.151-0.063-2.282,0.273-3.43,0.378c-1.147,0.105-2.432-0.082-3.184-0.955c-0.723-0.84-0.748-2.055-0.737-3.164
	C201.74,178.612,201.746,178.047,201.753,177.481z"/>
<path style="fill:#CCCCCC;" d="M254.13,152.601c-2.02,21.819-3.373,43.831-4.587,65.715c-1.678,30.247-1.467,60.769,0.715,90.98
	c1.686,23.353,6.574,46.008,10.451,69.031c4.931,29.284,9.187,60.06,17.713,88.548c2.35,7.853,4.872,18.66,10.301,25.004
	c3.879,4.533,10.081,7.413,13.617,12.084c-4.142,3.903-20.281,2.992-26.097,3.271c-14.611,0.7-30.039,0.641-44.649-0.574
	c-7.697-0.64-15.773-2.049-23.516-1.547c-5.924,0.384-11.175,1.472-17.078,0.117c-13.135-3.015-4.449-10.682-0.626-19.244
	c15.53-34.768,16.449-76.563,17.656-114.016c0.79-24.497-0.691-48.781,0.835-73.32c1.381-22.201,2.779-44.337,3.84-66.518
	c0.566-11.823,1.325-23.651,1.217-35.494c-0.046-5.047-0.991-10.162-0.655-15.116c0.385-5.674,0.328-11.156-1.071-16.713
	c-0.622-2.469-1.05-5.77-2.787-7.645c-1.646-1.778-3.4-0.875-5.086-1.838c-3.239-1.852-0.924-7.414,0.739-10.074
	c1.713-2.739,5.127-5.555,5.621-8.935c0.577-3.943-1.461-6.407,1.677-10.032c4.486-5.178,11.909-6.88,18.322-7.817
	c4.618-0.674,9.316-1.027,13.985-1.04c3.886-0.01,8.728-1.045,12.344,0.591c6.271,2.838,1.675,9.304,0.258,13.575
	C255.143,138.022,254.757,145.846,254.13,152.601z"/>
<g>
	<path style="fill:#CC4848;" d="M269.714,154.603c-11.724,0-23.477-1.538-35.176-0.992c-4.783,0.223-9.656,0.463-14.428,0.85
		c-2.417,0.197-6.989-0.072-9.058,1.355c-3.777,2.605,0.863,8.832,1.658,12.356c2.277,10.089,0.837,21.094,0.837,31.345
		c0,4.383-0.574,9.291,0.276,13.598c0.8,4.05,3.123,3.326,6.839,3.638c6.11,0.512,12.26,0.155,18.418,0.548
		c11.453,0.731,22.456,0.355,33.866,0.279c5.051-0.034,10.074-0.592,15.118-0.704c2.79-0.062,6.968,2.282,9.53,1.191
		c4.451-1.897,0.882-11.019,0.76-14.746c-0.205-6.228,0.578-12.527,0.574-18.787c-0.005-6.734,0.361-13.43,2.546-19.863
		c1.646-4.85,4.357-7.535-2.196-8.727c-4.037-0.734-8.162-1.157-12.234-1.624C281.222,153.653,275.77,154.437,269.714,154.603z"/>
	<path style="fill:#CC4848;" d="M297.513,289.06c-18.516,0-37.066-1.458-55.529-0.592c-8.486,0.399-17.09,0.042-25.59,0.024
		c-3.32-0.007-4.407-0.223-5.393,3.055c-1.706,5.675-1.964,12.311-1.995,18.22c-0.042,7.993,0.432,16.094,0.024,24.074
		c-0.328,6.404-1.245,12.805-1.446,19.22c-0.103,3.288-0.751,6.202,2.271,7.624c3.533,1.662,8.414,1.015,12.19,1.347
		c15.105,1.332,30.921,0.428,46.096,0.518c6.495,0.038,13.041-0.305,19.556-0.305c3.672,0,7.817,0.86,11.382,0.511
		c3.668-0.359,4.256-2.988,4.76-6.39c1.031-6.972,0.443-14.9,0.136-21.907c-0.431-9.828-0.069-19.692-0.802-29.512
		C302.789,299.817,302.442,294.221,297.513,289.06z"/>
	<path style="fill:#CC4848;" d="M308.86,435.999c-5.324-0.331-11.286,2.127-16.671,2.63c-6.449,0.602-13.174,0.551-19.637,0.568
		c-14.097,0.038-28.36-2.438-42.457-3.212c-6.182-0.339-12.389,0.002-18.582-0.264c-3.183-0.136-6.072-1.285-7.823,1.469
		c-2.708,4.261-3.494,10.622-4.886,15.402c-1.448,4.969-3.089,9.892-4.475,14.878c-2.868,10.316-9.835,20.04-11.359,30.713
		c-0.756,5.3,3.645,5.543,8.142,6.405c9.011,1.728,18.46,1.25,27.574,1.697c21.625,1.058,43.395-1.656,64.962-0.158
		c7.553,0.524,15.17,1.392,22.755,1.087c5.271-0.213,11.461,0.488,16.586-0.847c11.149-2.903,2.294-22.886-0.874-29.202
		c-3.753-7.481-5.386-15.227-7.439-23.26C313.623,449.789,313.66,437.297,308.86,435.999z"/>
</g>
<g>
	<path style="fill:#AA3333;" d="M253.829,154.035c-1.881,3.185-2.636,8.385-3.107,11.944c-1.088,8.221-1.98,16.668-1.73,24.968
		c0.176,5.837,0.428,11.665,1.219,17.46c0.213,1.56,1.566,6.398,0.58,7.82c-0.997,1.438-4.27,0.864-5.833,0.995
		c-4.184,0.35-8.322,0.07-12.544,0.07c-6.605,0-12.889-0.832-19.39-1.178c-0.19-1.53,0.568-3.028,0.812-4.537
		c0.418-2.575,0.393-5.213,0.625-7.823c0.538-6.078,0.67-12.365,0.454-18.442c-0.304-8.587-1.347-17.166-3.638-25.465
		c-0.648-2.345-2.014-4.002,0.183-5.236c3.276-1.841,9.693-0.193,13.273-0.299c6.019-0.178,12.008-0.329,18.012-0.57
		C246.582,153.587,250.39,155.26,253.829,154.035z"/>
	<path style="fill:#AA3333;" d="M249.006,289.628c-3.87,18.397-0.596,39.458,4.759,57.244c0.868,2.886,1.586,5.843,2.262,8.783
		c0.326,1.416,1.597,4.41,0.943,5.897c-1.975,4.483-10.462,1.853-13.897,1.414c-8.907-1.137-17.868-1.332-26.835-1.3
		c-2.099,0.007-5.899,1.558-7.815,0.869c-2.003-0.72-1.234-1.404-0.969-3.741c1.133-9.985,1.504-20.084,1.052-30.122
		c-0.441-9.818,0.221-19.552,0.221-29.381c0-2.236-0.678-5.742,0.689-7.756c1.547-2.282,5.536-2.282,7.953-2.762
		c4.69-0.932,9.295-0.206,14.036,0.01C237.297,289.053,244.575,287.608,249.006,289.628z"/>
	<path style="fill:#AA3333;" d="M269.714,437.134c0.038,8.653,4.03,18.032,6.347,26.26c2.956,10.498,4.363,21.579,10.674,30.76
		c1.965,2.859,11.293,9.541,5.899,12.485c-2.963,1.617-8.938,0.711-12.209,0.536c-5.44-0.29-10.915-0.511-16.364-0.897
		c-13.651-0.969-27.384-0.504-41.058-1.127c-7.079-0.322-13.819-0.46-20.885,0.275c-4.056,0.423-8.968,1.036-12.951-0.213
		c-9.252-2.901-3.409-14.641-1.1-20.876c4.359-11.769,9.24-24.007,11.652-36.302c0.824-4.2,1.297-8.377,5.196-10.77
		c4.145-2.543,9.7-0.823,14.111-0.181c7.485,1.09,15.646,1.508,23.212,1.766C251.578,439.171,262.263,440.27,269.714,437.134z"/>
</g>
<path style="fill:#3A2828;" d="M257.83,472.071c-2.854-0.346-5.83-0.055-7.976,0.675c-4.043,1.373-3.139,4.719-3.457,8.066
	c-0.524,5.501-1.721,10.78-1.929,16.341c-0.055,1.456-1.205,8.706-0.242,9.705c1.229,1.275,7.685,0.711,9.317,0.635
	c2.439-0.113,6.156,0.366,8.511-0.288c2.462-0.683,2.718-2.196,3.12-4.588c0.928-5.521,1.122-11.204,1.355-16.764
	c0.127-3.033,0.833-7.929-1.285-10.441C263.603,473.469,260.782,472.429,257.83,472.071z"/>
<path style="fill:#446BAA;" d="M227.447,51.916c2.239,9.257,0.774,19.401,1.418,28.849c0.242,3.549,0.562,7.08,0.866,10.615
	c0.126,1.457-0.226,4.319,0.546,5.65c1.969,3.392,10.459,1.98,13.783,1.973c8.702-0.017,17.264-0.851,25.967-0.851
	c2.638,0,9.627,1.584,11.896,0.069c1.309-0.874,1.152-3.297,1.335-4.907c0.644-5.664,0.071-11.407,0.071-17.106
	c0-6.77,0.602-13.403,0.85-20.12c0.197-5.323-1.737-5.031-6.952-5.024c-10.855,0.015-21.646-0.263-32.491-0.283
	C239.755,50.771,230.607,48.87,227.447,51.916z"/>
<path style="fill:#AA3333;" d="M211.562,166.8c-3.062-0.045-6.806,0.211-8.594,3.116c-1.011,1.642-1.732,11.806-0.282,13.406
	c0.824,0.909,9.281,1.625,10.601,0.519C216.129,181.456,213.87,168.552,211.562,166.8z"/>
<path style="fill:#CC4848;" d="M303.186,167.084c-5.957-2.046-5.854,4.224-5.955,8.625c-0.037,1.576-0.631,6.249,0.695,7.248
	c0.947,0.715,5.095,0.17,6.316,0.288c5.085,0.49,5.072-1.451,5.532-6.362C310.261,171.689,309.256,166.66,303.186,167.084z"/>
<g>
	<path style="fill:#CCCCCC;" d="M212.129,219.846c-2.677,0-6.673-0.4-8.856,1.348c-2.283,1.827-3.076,9.918-1.994,12.563
		c0.924,2.259,6.339,4.255,8.87,3.681C214.625,236.425,213.98,223.08,212.129,219.846z"/>
	<path style="fill:#CCCCCC;" d="M208.726,269.204c-3.574,0.697-8.078,2.001-9.369,5.604c-1.025,2.86-2.491,11.58,0.711,13.379
		c0.864,0.486,5.175,0.703,6.165,0.594c2.456-0.268,2.816-1.283,3.421-3.682C210.245,282.757,212.71,268.509,208.726,269.204z"/>
</g>
<g>
	<path style="fill:#F4F4F4;" d="M309.994,219.846c-1.688-0.892-6.594-2.13-8.297-0.594c-2.023,1.825-3.655,15.229-1.063,16.99
		c1.414,0.961,8.523-0.698,9.715-2.185C312.317,231.599,312.649,215.804,309.994,219.846z"/>
	<path style="fill:#F4F4F4;" d="M309.994,271.19c-2.61-0.614-5.969-3.227-7.382-0.51c-1.221,2.349-2.426,14.626,0.214,16.473
		c1.173,0.821,3.51-0.008,4.959-0.054c2.579-0.081,3.231,0.566,4.417-2.006C313.803,281.622,315.227,270.391,309.994,271.19z"/>
</g>
<path style="fill:#305282;" d="M269.146,50.213c-6.108,2.125-12.415,12.324-14.657,18.024c-2.803,7.127-4.218,14.993,3.24,19.122
	c2.874,1.59,5.652,3.486,8.721,4.706c1.821,0.724,5.899,1.035,7.204,2.532c4.042,4.639-11.782,2.744-13.586,2.692
	c-6.105-0.176-12.237,0.706-18.378,0.588c-3.327-0.064-8.581,1.155-11.648-0.057c-0.722-13.487-1.738-26.994-1.745-40.518
	c-0.001-1.057-0.495-4.288,0.332-5.121c0.912-0.917,5.637-0.768,6.887-0.901C244.723,50.293,254.5,50.24,269.146,50.213z"/>
<g>
	<path style="fill:#CCCCCC;" d="M258.65,16.457c-6.052,7.198,0.687,18.357,6.303,23.196c2.822,2.43,11.02,3.758,11.352,8.214
		c0.309,4.133-10.296,2.203-13.32,2.357c-8.081,0.414-16.044-0.53-24.099-0.003c-4.03,0.264-8.503,1.571-12.511,1.064
		c-3.223-0.408-4.525-2.691-3.976-6.052c0.748-4.587,4.739-6.739,8.223-8.905c5.498-3.419,11.799-6.66,15.988-11.779
		C247.915,22.956,255.7,13.154,258.65,16.457z"/>
	<path style="fill:#CCCCCC;" d="M258.367,99.572c-1.562,1.63-2.48,6.517-1.857,8.799c1.104,4.035,4.535,3.152,7.898,3.392
		c2.725,0.194,6.158,0.967,3.6,3.922c-2.045,2.363-6.796,2.084-9.556,2.076c-4.926-0.014-9.881-0.211-14.818-0.318
		c-3.757-0.081-9.722,1.506-13.27,0.258c-3.365-1.183-3.43-12.271-1.924-15.304c1.013-2.042,3.135-2.589,5.383-2.847
		c2.724-0.313,5.612,0.136,8.354,0.035C246.342,99.434,250.51,98.544,258.367,99.572z"/>
	<path style="fill:#CCCCCC;" d="M255.972,2.386c1.233-0.242,2.445-0.074,3.366,0.726c10.072,8.752-12.866,17.666-8.795,3.714
		C251.112,4.875,253.581,2.857,255.972,2.386z"/>
</g>
<path d="M330.74,492.345c-0.345-0.78-0.75-1.649-1.2-2.531c-0.177-1.211-0.332-2.419-0.658-3.47
	c-0.858-2.775-2.267-5.365-3.494-7.988c-2.852-6.1-4.242-12.525-6.18-18.932c-3.586-11.861-5.569-23.385-7.099-35.629
	c-2.727-21.82-2.956-44.078-3.848-66.015c-0.9-22.151-0.76-44.368-2.418-66.502c3.083,0.251,6.965-0.286,8.842-1.795
	c2.871-2.308,0.847-6.596,0.778-9.585c-0.081-3.543,0.624-7.816-2.754-10.051c-1.522-1.008-3.572-1.832-5.264-2.429
	c-1.296-0.457-2.338-0.142-3.461-0.049c-0.698-9.386-1.312-18.781-1.684-28.181c0.411,0.141,0.9,0.146,1.462-0.063
	c1.98-0.736,3.365-1.111,5.449-1.218c1.523-0.079,2.851-0.435,3.82-1.678c1.09-1.398,0.916-3.075,0.845-4.732
	c-0.097-2.271-0.026-4.566-0.302-6.826c-0.127-1.045-0.211-2.002-0.372-2.859c0.072-0.297,0.095-0.602,0-0.873
	c-0.855-2.436-3.41-4.186-5.881-4.529c-1.347-0.187-3.631-0.287-5.472,0.208c-0.134-10.28-0.458-20.548-0.662-30.827
	c3.492,0.078,8.371,0.229,10.511-2.115c1.973-2.161,0.836-5.389,0.444-7.933c-0.442-2.872,0.304-6.385-2.478-8.172
	c-2.191-1.408-4.882-2.327-7.432-2.014c0.752-2.276,1.892-4.425,3.642-6.361c1.56,0.2,3.116,0.315,4.654,0.014
	c1.675-0.328,2.511-2.006,2.68-3.521c0.544-4.859-4.026-12.437-9.242-16.053c0.192-0.113,0.378-0.234,0.556-0.376
	c3.103-2.456,1.298-7.48,1.171-10.883c-0.348-9.399-8.672-11.629-16.818-12.478c-0.494-0.051-0.986-0.083-1.48-0.123
	c0.417-1.105,0.476-2.422,0.449-3.815c-0.061-2.928,0.003-6.076-0.659-8.948c-0.346-1.501-1.074-2.898-2.052-4.023
	c0.197-0.312,0.378-0.643,0.523-1.019c0.818-2.124,0.827-5.167,0.868-7.448c0.081-4.445,0.446-8.851,0.369-13.298
	c-0.083-4.875-0.254-9.751-0.344-14.627c-0.05-2.686,0.275-5.378-0.123-7.94c0.256-0.002,0.505-0.008,0.764-0.009
	c2.334-0.015,3.885-0.08,5.693-1.66c0.959-0.837,1.281-2.375,0.941-3.564c-0.919-3.225-1.361-6.396-3.437-9.203
	c-2.239-3.029-5.933-5.208-9.249-6.852c-0.728-0.361-1.425-0.743-2.11-1.132c-1.456-0.897-2.902-1.803-4.322-2.744
	c-0.977-0.678-1.947-1.376-2.926-2.092c-3.904-3.071-6.909-6.597-10.22-10.541c-0.383-0.456-0.803-0.946-1.256-1.421
	c1.749-1.482,3.416-3.017,3.981-5.328c0.977-4-2.343-8.801-6.147-9.898c-4.091-1.18-8.671,2.746-9.258,6.758
	c-0.403,2.751,0.949,6.239,3.473,7.558c-1.491,1.595-2.51,4.051-3.525,6.062c-2.161,2.042-4.601,3.877-6.662,5.381
	c-3.761,2.746-7.134,5.327-11.314,7.399c-3.316,1.644-7.01,3.823-9.249,6.852c-2.076,2.807-2.518,5.978-3.437,9.203
	c-0.338,1.188-0.017,2.726,0.941,3.564c1.809,1.58,3.359,1.645,5.693,1.66c0.259,0.001,0.508,0.007,0.764,0.009
	c-0.4,2.56-0.074,5.253-0.123,7.94c-0.091,4.875-0.26,9.752-0.344,14.627c-0.077,4.447,0.288,8.854,0.369,13.298
	c0.042,2.282,0.05,5.324,0.868,7.448c0.145,0.376,0.327,0.708,0.523,1.019c-0.979,1.125-1.707,2.522-2.052,4.023
	c-0.663,2.872-0.599,6.02-0.659,8.948c-0.029,1.393,0.032,2.71,0.449,3.815c-0.494,0.04-0.986,0.072-1.48,0.123
	c-8.146,0.849-16.47,3.079-16.818,12.478c-0.126,3.403-1.931,8.425,1.171,10.883c0.178,0.142,0.364,0.264,0.556,0.376
	c-5.216,3.616-9.785,11.194-9.242,16.053c0.169,1.514,1.005,3.193,2.68,3.521c1.537,0.3,3.094,0.185,4.654-0.014
	c1.75,1.937,2.891,4.085,3.642,6.361c-2.55-0.312-5.241,0.608-7.432,2.014c-2.782,1.787-2.036,5.299-2.478,8.172
	c-0.392,2.543-1.528,5.772,0.444,7.933c2.14,2.343,7.02,2.193,10.511,2.115c-0.207,10.449-0.54,20.885-0.67,31.333
	c-0.561-0.029-1.12-0.031-1.675-0.001c-2.134-0.272-4.574,0.015-6.297,0.623c-3.374,1.192-3.343,3.61-3.746,6.926
	c-0.274,2.26-0.205,4.554-0.302,6.826c-0.071,1.658-0.243,3.334,0.845,4.732c0.969,1.243,2.295,1.6,3.82,1.678
	c2.083,0.107,3.468,0.482,5.448,1.218c0.563,0.209,1.051,0.203,1.462,0.063c-0.372,9.401-0.985,18.795-1.684,28.181
	c-1.122-0.093-2.165-0.408-3.461,0.049c-1.692,0.598-3.742,1.421-5.264,2.429c-3.377,2.235-2.671,6.509-2.754,10.051
	c-0.069,2.989-2.094,7.276,0.778,9.585c1.878,1.509,5.76,2.046,8.842,1.795c-1.658,22.135-1.517,44.353-2.418,66.502
	c-0.892,21.937-1.121,44.196-3.848,66.015c-1.531,12.244-3.513,23.767-7.099,35.629c-1.938,6.409-3.328,12.833-6.18,18.932
	c-1.226,2.622-2.635,5.212-3.494,7.988c-0.326,1.051-0.481,2.26-0.658,3.47c-0.451,0.882-0.856,1.75-1.2,2.531
	c-1.25,2.828-2.587,6.283-2.249,9.455c0.756,7.098,10.096,8.248,15.706,8.986c7.975,1.048,16.764,1.453,24.805,1.069
	c4.642-0.222,9.098-0.516,13.728-1.145c3.267-0.443,6.625-0.249,9.877-0.657c3.398,0.122,6.766,0.096,10.139-0.287
	c4.472-0.507,9.163-0.146,13.717-0.037c3.829,0.834,7.863,0.451,11.769,0.98c4.628,0.628,9.084,0.924,13.728,1.145
	c8.041,0.384,16.83-0.022,24.805-1.069c5.61-0.737,14.949-1.888,15.706-8.986C333.326,498.628,331.99,495.173,330.74,492.345z
	 M308.174,272.461c3.446,1.608,2.704,3.989,2.582,7.437c-0.04,1.138,0.434,3.294,0.117,4.342c-0.104,0.344-0.16,0.585-0.185,0.759
	c-0.125,0.053-0.297,0.154-0.545,0.344c-1.212,0.921-3.211,0.31-4.715,0.489c-0.391-4.884-0.783-9.771-1.157-14.66
	C305.572,271.526,306.834,271.836,308.174,272.461z M305.088,220.62c0.752,0.27,1.517,0.513,2.317,0.731
	c0.204,0.056,1.805,0.905,1.384,0.256c0.548,0.848,0.287,3.645,0.312,4.599c0.042,1.582,0.255,3.75-0.066,5.29
	c-0.206,0.988,0.085,1.145,0.122,1.159c-0.035-0.009-0.24-0.04-0.859,0.13c-2.22,0.61-4.159,0.448-6.145,1.808
	c-0.125-4.03-0.218-8.061-0.235-12.093c-0.002-0.567-0.011-1.132-0.019-1.698C302.922,220.858,304.035,220.688,305.088,220.62z
	 M306.518,170.379c1.21,0.598,0.948,0.529,1.219,1.654c0.21,0.871,0.077,2.007,0.198,2.939c0.145,1.112,0.302,2.215,0.427,3.329
	c0.17,1.521,0.567,1.653-0.936,2.33c-1.605,0.723-4.246,0.518-6.38,0.388c-0.157-4.07-0.304-8.198,0.355-12.074
	C303.095,169.38,304.849,169.555,306.518,170.379z M257.408,3.709c2.414,0.751,3.243,4.902,1.811,6.636
	c-0.795,0.964-1.816,1.818-2.901,2.58c-0.138-0.021-0.276-0.04-0.417-0.046c-0.715-1.037-2.105-1.588-2.714-2.845
	C251.929,7.435,254.005,2.65,257.408,3.709z M225.846,47.503c0.305-2.503,0.684-4.907,2.684-7.014
	c3.275-3.449,8.1-4.576,11.643-7.759c3.554-3.195,10.49-7.294,13.103-12.4c0.705-0.508,1.508-0.84,2.598-0.748
	c1.229,0.103,2.385,0.824,3.487,1.85c0.84,1.3,1.937,2.531,3.155,3.695c1.324,1.761,2.588,3.535,3.832,4.651
	c3.783,3.391,9.655,8.124,15.24,9.09c0.662,0.489,1.303,1.01,1.882,1.621c1.999,2.107,2.379,4.511,2.684,7.014
	c-2.122-0.007-5.571,0.265-5.401,0.251c-2.974,0.226-6.022-0.067-9.031,0.102c-5,0.281-10.618-0.043-15.723,0.82
	c-5.105-0.864-10.723-0.539-15.723-0.82c-3.007-0.169-6.057,0.125-9.031-0.102C231.417,47.768,227.968,47.496,225.846,47.503z
	 M238.954,72.765c0.066,7.318-0.318,14.566,0.422,21.833c-1.386,0.096-2.772,0.205-4.157,0.267
	c-0.361,0.016-1.464-0.189-1.993-0.103c-0.125-0.863-0.393-2.27-0.399-2.332c-0.574-7.114-0.874-14.33-0.964-21.471
	c-0.062-4.921,0.611-11.252-0.956-16.311c1.272-0.041,2.548-0.121,3.868-0.32c1.427-0.216,2.891-0.342,4.375-0.423
	C238.382,60.174,238.897,66.436,238.954,72.765z M230.924,102.447c0.155-0.263,0.348-0.499,0.555-0.724
	c2.419,0.41,5.165,0.083,7.287-0.181c2.587-0.322,4.92-0.314,7.11-0.551c2.298,0.05,4.577,0.01,6.723,0.057
	c3.66,0.079,8.002,0.281,11.994-0.276c2.631,0.474,5.439,0.372,8.637,0.77c2.122,0.264,4.868,0.591,7.287,0.181
	c0.208,0.225,0.401,0.462,0.555,0.724c0.935,1.588,0.458,3.344,0.359,5.076c-0.113,1.995-0.051,4.013-0.331,5.985
	c-0.046,0.329-0.075,0.625-0.095,0.912c-3.174-0.782-6.358-0.182-9.572,0.202c-0.031,0.003-0.062,0.006-0.093,0.009
	c-3.16-0.221-6.393-0.195-9.61-0.081c-0.444-0.162-0.86-0.123-1.207,0.046c-0.235,0.009-0.466,0.023-0.7,0.033
	c-1.282-0.105-2.566-0.23-3.858-0.355c-4.879-0.478-9.349-0.714-14.273-0.473c-2.447,0.12-4.976-0.002-7.405,0.351
	c-1.127,0.165-2.204,0.63-3.302,0.969c0.024-0.484-0.007-1-0.094-1.611c-0.28-1.972-0.218-3.99-0.331-5.985
	C230.466,105.792,229.99,104.036,230.924,102.447z M254.446,71.011c0.166,4.449,0.181,8.929,0.434,13.376
	c0.194,3.398-0.011,7.34,1.042,10.562c-1.603,0.169-3.188,0.348-4.712,0.458c-2.309-0.662-5.079-0.948-7.347-0.984
	c-0.755-13.415,0.24-27.304-1.835-40.622c4.053-0.091,8.189-0.023,12.135-0.521C253.655,57.701,254.399,69.748,254.446,71.011z
	 M259.407,84.387c-0.427-4.727-0.35-9.522-0.75-14.251c-0.351-4.143-0.488-8.305-0.891-12.439c-0.144-1.48-0.207-3.04-0.534-4.504
	c4.126,0.587,8.475,0.511,12.736,0.607c-2.074,13.319-1.08,27.209-1.834,40.622c-1.026,0.016-2.158,0.089-3.302,0.218
	c-1.705-0.169-3.469-0.138-5.242-0.022C260.545,91.239,259.721,87.847,259.407,84.387z M273.044,72.765
	c0.057-6.327,0.572-12.591-0.197-18.859c1.483,0.08,2.948,0.207,4.375,0.423c1.319,0.2,2.596,0.279,3.868,0.32
	c-1.568,5.06-0.895,11.391-0.955,16.311c-0.09,7.141-0.391,14.356-0.964,21.471c-0.005,0.062-0.274,1.469-0.399,2.332
	c-0.529-0.086-1.632,0.119-1.993,0.103c-1.384-0.063-2.771-0.171-4.157-0.267C273.363,87.331,272.978,80.082,273.044,72.765z
	 M212.806,133.156c0.17-2.242-0.135-5.02,0.914-6.995c2.485-4.678,13.921-5.223,18.806-5.8c2.097-0.248,4.526-0.299,7.013-0.419
	c3.256,0.056,6.522,0.223,9.762,0.295c8.64,0.193,18.265,1.377,26.981-0.123c1.119,0.058,2.194,0.13,3.19,0.248
	c4.886,0.577,16.321,1.122,18.806,5.8c1.048,1.973,0.744,4.753,0.914,6.995c0.15,0.654,0.21,1.313,0.23,1.973
	c-4.07,0.571-8.713,0.494-12.819,0.598c-7.657,0.194-14.757-1.436-22.235,0.507c-1.945-0.031-3.894-0.047-5.853-0.021
	c-4.43,0.058-8.947-0.217-13.495-0.528c-2.103-0.335-4.186-0.434-6.268-0.417c-6.557-0.4-13.121-0.58-19.52,0.339
	c-2.269-0.063-4.538-0.183-6.654-0.479C212.595,134.467,212.656,133.809,212.806,133.156z M206.424,152.162
	c0.811-2.166,2.405-4.867,3.311-6.314c1.258-2.007,2.902-3.476,3.9-5.443c1.063-0.091,2.1-0.229,3.033-0.283
	c1.784-0.105,3.56-0.2,5.333-0.299c4.915,0.283,9.9,0.021,14.79,0.254c6.917,0.33,13.863,1.474,20.805,1.547
	c7.267,0.075,14.419,0.66,21.703,0.179c2.859-0.189,5.971,0.11,8.785-0.386c1.363-0.24,2.515-0.856,3.681-1.492
	c1.187,0.064,2.374,0.128,3.566,0.198c0.932,0.055,1.971,0.192,3.033,0.283c0.997,1.967,2.64,3.436,3.9,5.443
	c0.906,1.446,2.5,4.149,3.311,6.314c-4.84-0.008-9.848-0.51-14.629-0.465c-3.545,0.033-6.951-0.398-10.519-0.157
	c-2.855,0.193-6.143-0.264-8.823,0.692c-0.121,0.043-0.23,0.107-0.334,0.175c-5.52,0.039-11.042,0.031-16.572-0.495
	c-5.699-0.542-11.448-0.387-17.182-0.238c-1.97-0.158-4.051-0.008-5.944-0.135c-3.568-0.241-6.974,0.19-10.519,0.157
	C216.271,151.652,211.264,152.154,206.424,152.162z M217.367,221.426c-0.002-0.585-0.013-1.169-0.017-1.754
	c4.402,0.134,8.963-0.754,13.288-0.865c1.289-0.033,2.596-0.046,3.91-0.061c0.43,0.078,0.852,0.159,1.288,0.234
	c3.928,0.672,8.041,0.415,12.012,0.454c5.677,0.057,11.355,0.136,17.032,0.046c5.538-0.088,10.976-0.815,16.484-0.673
	c4.325,0.112,8.886,0.999,13.288,0.865c-0.005,0.585-0.015,1.169-0.017,1.754c-0.05,12.182,0.015,24.576,0.988,36.708
	c0.781,9.743,1.739,19.508,2.409,29.286c-1.012-0.3-2.044-0.585-3.191-0.802c-4.067-0.77-8.299-0.37-12.439-0.398
	c-4.441-0.029-8.881-0.281-13.287,0.342c-1.119,0.158-2.173,0.427-3.209,0.731c-4.474-0.624-8.988,0.403-13.647,0.353
	c-1.835-0.019-3.7-0.097-5.573-0.176c-1.227-0.374-2.467-0.72-3.798-0.908c-4.405-0.622-8.846-0.37-13.287-0.342
	c-4.139,0.027-8.371-0.372-12.439,0.398c-1.147,0.217-2.179,0.502-3.191,0.802c0.67-9.778,1.627-19.543,2.408-29.286
	C217.352,246.002,217.417,233.607,217.367,221.426z M295.443,177.777c-0.006,12.468-0.55,24.927-0.744,37.395
	c-4.726-0.8-9.801-0.932-14.377-0.971c-4.151-0.035-8.189-0.125-12.07,0.869c-6.856-1.528-14.256-0.436-21.385-0.363
	c-1.654,0.017-3.27,0.013-4.879-0.011c-3.337-0.588-6.783-0.526-10.31-0.495c-0.17,0.001-0.351,0.007-0.521,0.008
	c-0.518-0.006-1.034,0.003-1.552,0.024c-4.011,0.067-8.277,0.257-12.304,0.938c-0.194-12.466-0.738-24.927-0.744-37.395
	c-0.003-6.553-0.071-14.658-4.671-19.249c3.056-0.275,6.053-0.48,9.168-0.57c3.529-0.103,6.987-0.816,10.519-1.049
	c0.495-0.033,0.979-0.064,1.459-0.098c1.185,0,2.327-0.019,3.367-0.016c6.506,0.021,12.899,0.258,19.364,0.724
	c9.544,0.688,19.134,0.544,28.668-0.193c2.167,0.273,4.328,0.568,6.515,0.631c3.115,0.09,6.112,0.295,9.168,0.57
	C295.514,163.12,295.446,171.224,295.443,177.777z M204.572,180.631c-1.501-0.676-1.106-0.809-0.936-2.33
	c0.126-1.114,0.282-2.217,0.427-3.329c0.121-0.93-0.013-2.068,0.198-2.939c0.272-1.127,0.01-1.057,1.219-1.654
	c1.667-0.824,3.423-0.999,5.116-1.434c0.659,3.877,0.512,8.005,0.355,12.074C208.819,181.149,206.179,181.354,204.572,180.631z
	 M213.605,292.975c0.011-0.211,0.03-0.423,0.041-0.634c0.843-0.011,1.683-0.075,2.492-0.114c4.166-0.202,8.243-0.377,12.458-0.359
	c3.348,0.014,6.689,0.051,10.027,0.11c4.499,0.682,9.203,0.634,13.632,0.817c3.075,0.128,5.722-0.457,8.742-0.582
	c0.736-0.031,1.43-0.055,2.107-0.083c2.027,0.215,4.022-0.016,6.169-0.073c4.702-0.127,9.409-0.169,14.126-0.189
	c4.215-0.017,8.293,0.158,12.458,0.359c0.809,0.039,1.649,0.103,2.492,0.114c0.011,0.211,0.03,0.423,0.041,0.634
	c1.224,22.364,1.667,44.685,2.948,67.028c-5.336-0.752-10.902-0.53-16.175-0.55c-6.869-0.025-13.961-0.576-20.718,0.72
	c-1.98-0.064-3.913,0.192-6.025,0.276c-3.432,0.138-7.11-0.249-10.579-0.241c-0.035,0-0.07,0.003-0.105,0.003
	c-6.814-1.342-13.972-0.785-20.905-0.76c-5.273,0.019-10.839-0.201-16.175,0.55C211.938,337.66,212.382,315.339,213.605,292.975z
	 M203.699,232.784c-0.619-0.17-0.825-0.139-0.86-0.13c0.038-0.014,0.329-0.169,0.122-1.159c-0.32-1.54-0.109-3.708-0.066-5.29
	c0.025-0.955-0.235-3.752,0.312-4.599c-0.42,0.649,1.179-0.2,1.384-0.256c0.125-0.034,0.242-0.072,0.364-0.107
	c0.726-0.009,1.429,0.102,2.173,0.139c1.04,0.054,1.955-0.018,2.959,0.093c-0.003,0.34-0.01,0.682-0.011,1.023
	c-0.017,4.032-0.11,8.063-0.235,12.093C207.858,233.232,205.921,233.394,203.699,232.784z M201.857,285.341
	c-0.248-0.189-0.42-0.29-0.545-0.344c-0.026-0.174-0.081-0.415-0.185-0.759c-0.318-1.048,0.157-3.204,0.117-4.342
	c-0.122-3.448-0.864-5.829,2.582-7.437c1.34-0.625,2.602-0.936,3.905-1.291c-0.375,4.89-0.767,9.777-1.157,14.66
	C205.067,285.651,203.069,286.262,201.857,285.341z M205.805,433.476c1.203-11.239,1.265-22.572,2.414-33.844
	c1.093-10.719,1.296-21.73,2.009-32.499c0.048-0.724,0.086-1.448,0.131-2.172c0.978,0.003,1.975-0.034,3.032-0.079
	c4.47-0.189,8.963-0.008,13.442,0.003c2.774,0.007,5.585,0.099,8.398,0.125c4.091,0.414,8.062,0.144,12.614,0.262
	c6.648,0.171,13.92,1.472,20.374-0.572c5.597,0.564,11.35,0.199,16.947,0.185c4.479-0.01,8.972-0.192,13.442-0.003
	c1.057,0.045,2.054,0.083,3.032,0.079c0.046,0.724,0.083,1.448,0.131,2.172c0.713,10.769,0.915,21.78,2.009,32.499
	c1.149,11.272,1.212,22.604,2.414,33.844c0.023,0.211,0.057,0.418,0.081,0.63c-1.588-0.013-3.192,0.136-4.86,0.274
	c-4.346,0.362-8.689,0.259-13.01,0.763c-4.449,0.519-8.998-0.197-13.449,0.368c-0.468,0.059-0.933,0.122-1.396,0.185
	c-1.752-0.409-3.582-0.386-5.54-0.161c-4.486,0.514-8.23,1.049-12.747,0.686c-5.403-0.434-11.475-0.979-17.249-0.58
	c-0.326-0.045-0.65-0.088-0.978-0.13c-4.451-0.564-9.001,0.151-13.449-0.368c-4.321-0.504-8.664-0.401-13.01-0.763
	c-1.667-0.139-3.272-0.287-4.86-0.274C205.748,433.895,205.782,433.688,205.805,433.476z M264.555,481.895
	c-0.264,2.792-0.746,5.585-1,8.367c-0.378,4.151-0.729,8.816-0.222,13.164c-3.641,0.014-7.267,0.181-10.799,0.582
	c-1.833,0.208-3.732,0.241-5.648,0.249c1.287-3.703,1.307-8.494,1.416-11.845c0.12-3.696-0.159-7.398,0.067-11.094
	c0.245-4.006,0.078-5.158,3.801-6.114c1.854-0.476,3.968-0.353,5.878-0.402C263.266,474.667,265.091,476.225,264.555,481.895z
	 M326.454,499.404c-0.922,5.361-15.278,4.232-19.912,4.538c-6.709,0.444-13.351-0.422-20.004-0.01
	c-2.958,0.183-6.067,0.11-9.182,0.117c-2.747-0.234-5.537-0.424-8.344-0.531c0.016-2.498-0.423-4.962-0.415-7.477
	c0.011-3.896,0.625-8.117,0.882-12.061c0.465-7.144-1.005-13.904-9.345-14.152c-7.271-0.216-15.456-0.707-16.591,7.934
	c-0.723,5.507-0.061,11.016-0.351,16.532c-0.178,3.38-0.825,6.674-0.76,10.011c-0.328,0.01-0.656,0.022-0.981,0.039
	c-5.285-0.54-10.861-0.094-15.99-0.41c-6.652-0.411-13.295,0.455-20.004,0.01c-4.635-0.306-18.99,0.821-19.912-4.538
	c-0.032-0.189-0.041-0.376-0.057-0.564c0.29-0.169,0.569-0.391,0.819-0.705c2.66-3.321,2.975-7.636,4.632-11.477
	c2.539-5.886,5.168-11.349,6.88-17.563c2.765-10.032,5.6-19.749,7.213-29.934c1.796,0.27,3.657,0.354,5.336,0.555
	c5.192,0.623,10.487,0.975,15.723,1.215c4.564,0.209,9.279,0.361,13.823,0.379c0.802,0.003,1.627-0.061,2.45-0.191
	c3.975,0.193,7.974,0.209,11.878,0.561c3.828,0.345,7.147,0.663,10.955,0.059c2.242-0.355,4.817-0.246,7.24-0.435
	c4.438-0.025,9.024-0.169,13.473-0.374c5.235-0.24,10.532-0.592,15.723-1.215c1.678-0.201,3.54-0.286,5.336-0.555
	c1.613,10.185,4.448,19.902,7.213,29.934c1.713,6.214,4.342,11.677,6.88,17.563c1.657,3.841,1.972,8.156,4.632,11.477
	c0.25,0.313,0.529,0.536,0.819,0.705C326.495,499.028,326.487,499.215,326.454,499.404z"/>
<path d="M272.179,167.224c0.003-1.104,0.319-2.157-0.039-3.254c-0.441-1.353-1.373-2.19-2.732-2.448
	c-0.923-0.176-1.72,0.117-2.615,0.298c-1.371,0.279-2.55,0.246-3.94,0.292c-2.169,0.073-4.381,0.598-6.506,1.016
	c-2.701,0.532-4.177,2.083-4.214,4.411c-0.003,0.011-0.01,0.021-0.014,0.033c-0.567,2.095-0.729,4.852-0.807,7.053
	c-0.127,3.602,0.289,5.634,4.182,6.285c2.816,0.472,5.868,0.68,8.729,0.769c1.753,0.055,3.964,0.447,5.552-0.476
	c1.424-0.827,2.035-2.44,2.186-3.991c0.217-2.238,0.867-4.839,0.617-7.074C272.466,169.135,272.176,168.262,272.179,167.224z
	 M268.583,173.96c-0.226,1.959,0.043,3.879-2.279,4.267c-2.726,0.455-5.925-0.504-8.657-0.744c-0.585-0.051-1.943,0.024-2.586-0.327
	c-0.014-0.066-0.058-0.214-0.117-0.514c-0.267-1.394-0.003-3.164,0.198-4.542c0.137-0.937-0.066-2.538,0.229-3.348
	c0.845-2.329,3.526-1.973,5.472-2.316c0.786-0.138,1.562-0.287,2.342-0.43c1.186-0.049,2.364-0.122,3.504-0.334
	c1.592-0.295,1.901-0.865,1.861,1.071c-0.024,1.164,0.081,2.074,0.254,3.212C269.028,171.441,268.751,172.506,268.583,173.96z"/>
<path d="M253.655,239.196c0.776,3.593,4.642,3.299,7.558,3.139c3.061-0.168,6.95-0.67,8.587-3.669
	c1.993-3.65,0.147-9.163-0.736-12.858c-0.197-0.826-0.943-1.213-1.71-1.303c-2.541-0.297-5.074-0.404-7.611-0.856
	c-1.473-0.262-3.392-0.691-4.609,0.497c-0.999,0.976-1.077,3.341-1.212,4.642c-0.225,2.175-0.567,3.927-0.393,5.802
	C253.362,236.18,253.358,237.823,253.655,239.196z M257.183,232.961c0.13-1.765,0.301-3.383,0.057-5.001
	c0.008-0.065,0.009-0.133,0.018-0.198c0.005-0.034,0.219-0.7,0.287-1.144c0.448,0.168,1.319,0.302,1.613,0.374
	c0.602,0.149,1.17,0.279,1.785,0.366c1.666,0.236,3.32,0.359,4.975,0.53c0.641,2.548,1.473,5.431,1.007,7.937
	c-0.531,2.862-4.341,2.701-6.671,2.739c-0.7,0.011-2.463,0.273-2.883-0.198C256.764,237.685,257.116,233.878,257.183,232.961z"/>
<g>
</g>
<g>
</g>
<g>
</g>
<g>
</g>
<g>
</g>
<g>
</g>
<g>
</g>
<g>
</g>
<g>
</g>
<g>
</g>
<g>
</g>
<g>
</g>
<g>
</g>
<g>
</g>
<g>
</g>
</svg>
