<?xml version="1.0" encoding="iso-8859-1"?>
<!-- Generator: Adobe Illustrator 19.0.0, SVG Export Plug-In . SVG Version: 6.00 Build 0)  -->
<svg version="1.1" id="Layer_1" xmlns="http://www.w3.org/2000/svg" xmlns:xlink="http://www.w3.org/1999/xlink" x="0px" y="0px"
	 viewBox="0 0 512.001 512.001" style="enable-background:new 0 0 512.001 512.001;" xml:space="preserve">
<path style="fill:#E2773B;" d="M52.854,266.782c0.112-0.7,0.102-1.434-0.06-2.205c-0.473-2.253-1.675-4.303-2.132-6.559
	c-0.457-2.256,0.134-5.031,2.226-5.993c1.541-0.708,3.455-0.152,4.675,1.025s1.837,2.858,2.111,4.532
	c0.204,1.248,0.242,2.531,0.626,3.736s1.206,2.366,2.419,2.721c1.49,0.436,3.109-0.51,3.937-1.823
	c0.83-1.313,1.046-2.909,1.218-4.453c0.314-2.813,0.545-5.635,0.692-8.461c0.075-1.454,0.117-2.974-0.498-4.294
	c-1.043-2.236-3.665-3.268-6.11-3.595c-6.379-0.856-11.766-2.701-17.831-5.046c-3.913-1.513-8.535-5.152-12.677-5.26
	c-2.546-0.067-5.099,0.524-7.628,0.209s-5.197-1.941-5.496-4.47c-0.199-1.687,0.693-3.292,1.009-4.96
	c0.451-2.38-0.279-4.805-0.94-7.135c-0.66-2.33-1.257-4.824-0.554-7.142c0.703-2.317,3.208-4.259,5.5-3.476
	c4.127,1.41,2.973,8.931,7.09,10.373c1.728,0.605,3.598-0.231,5.222-1.076c7.874-4.098,16.938-8.832,23.39-15.026
	c2.429-2.331,4.21-4.897,6.876-7.093c3.024-2.492,5.995-5.048,8.924-7.652c12.68-11.267,24.649-23.367,35.889-36.069
	c4.882-5.515,9.647-11.137,14.174-16.948c2.769-3.555,11.165-11.469,9.076-16.455c-0.798-1.905-2.353-3.389-3.349-5.199
	c-0.995-1.81-1.269-4.364,0.294-5.713c1.927-1.664,5.091-0.341,7.352-1.512c1.577-0.818,2.322-2.639,2.818-4.346
	c0.822-2.828,1.367-5.879,3.271-8.127c1.904-2.248,5.803-3.145,7.708-0.898c5.362,6.325-2.909,18.03,3.818,23.769
	c2.14,1.826,5.248,1.798,8.06,1.681c20.34-0.844,40.695-1.279,61.052-1.302c40.509-0.046,80.954,2.252,121.522,1.586
	c1.849-0.03,3.699-0.064,5.548-0.1c1.287-0.025,2.657-0.078,3.716-0.809c1.198-0.827,1.717-2.338,1.929-3.777
	c0.467-3.174-0.199-6.387-0.491-9.581c-0.293-3.195-0.144-6.64,1.701-9.264c1.846-2.623,5.89-3.882,8.366-1.842
	c3.509,2.889,1.744,9.84,5.809,11.872c1.758,0.879,3.901,0.353,5.79,0.898c1.977,0.57,3.524,2.405,3.751,4.451
	c0.227,2.045-0.879,4.175-2.682,5.165c-1.621,0.891-3.943,1.162-4.499,2.927c-0.433,1.375,0.561,2.753,1.492,3.854
	c11.375,13.435,22.371,27.336,34.598,40.098c12.305,12.844,25.564,24.765,39.585,35.706c2.685,2.095,5.398,4.155,8.139,6.179
	c2.491,1.841,4.542,4.142,7.263,5.687c1.195,0.678,2.773,1.022,3.843,1.965c1.674,1.475,2.539,3.569,4.444,4.893
	c1.984,1.378,4.765,1.897,6.81,0.612c3.003-1.886,3.515-6.873,6.959-7.725c2.381-0.589,4.816,1.513,5.272,3.922
	c0.458,2.41-0.607,4.875-2.082,6.834c-0.977,1.299-2.203,2.608-2.23,4.234c-0.046,2.678,3.203,4.736,2.738,7.373
	c-0.328,1.863-2.418,2.901-4.307,3.003s-3.77-0.425-5.658-0.305c-3.358,0.216-6.205,2.403-9.052,4.197
	c-6.316,3.979-13.64,6.343-21.09,6.808c-11.532,0.721-9.249,11.354-9.238,20.196c0.001,1.328,0.168,2.935,1.364,3.511
	c1.196,0.576,2.59-0.317,3.433-1.343c1.305-1.589,2.05-3.549,2.978-5.383s2.152-3.652,4.006-4.541
	c1.854-0.889,4.454-0.477,5.417,1.339c0.721,1.358,0.351,3.046-0.32,4.43c-1.524,3.138-3.079,6.404-1.752,9.896
	c1.098,2.89,4.623,4.898,6.961,6.781c6.116,4.923,12.934,8.972,20.189,11.972c2.153,0.89,4.581,1.693,6.76,0.868
	c2.787-1.056,3.978-4.247,5.084-7.014c1.107-2.767,3.006-5.834,5.983-5.935c2.667-0.09,4.839,2.504,5.146,5.155
	c0.307,2.651-0.79,5.258-2.076,7.598c-1.132,2.059-2.475,4.42-1.627,6.613c0.521,1.346,1.771,2.273,2.49,3.525
	c1.752,3.051-0.28,7.15-3.35,8.871c-3.069,1.719-6.776,1.707-10.294,1.65c-7.26-0.119-14.521-0.239-21.78-0.358
	c-1.548-0.026-3.248,0.001-4.424,1.008c-1.47,1.261-1.502,3.483-1.416,5.418c0.292,6.572-0.297,13.943,1.263,20.352
	c1.35,5.551,1.956,10.081,1.956,15.926c0,7.77,0,15.539,0,23.309c0,7.341-2.005,14.193-1.889,21.543
	c0.023,1.504,0.165,3.134,1.164,4.258c1.706,1.916,4.482,1.285,6.718,1.75c2.985,0.621,5.623,2.927,7.109,5.592
	c3.558,6.383-4.038,10.563-9.515,10.758c-30.82,1.102-61.647,2.141-92.48,2.73c-11.55,0.22-23.123-1.205-34.685-1.222
	c-62.5-0.097-125.015-0.813-187.493,0.379c-33.959,0.648-67.853,1.998-101.766-0.497c-2.68-0.197-5.296-0.724-7.881-1.024
	c-2.926-0.341-5.851,0.673-8.745,0.979c-3.157,0.334-6.842-0.33-8.477-3.052c-1.249-2.079-0.917-4.703-0.542-7.1
	c0.371-2.381,1.014-5.136,3.21-6.128c1.888-0.853,4.161,0.006,6.136-0.618c3.878-1.225,3.527-5.438,3.38-8.603
	c-0.14-3.01,0.516-6.025,0.603-9.063c0.234-8.165,0.467-16.331,0.701-24.496c0.487-17.001,0.972-34.003,1.459-51.004
	c0.022-0.752-29.587-1.219-31.994-1.488c-2.177-0.242-4.395-0.557-6.352-1.542s-3.637-2.765-3.955-4.933
	c-0.375-2.571,1.174-5.016,1.499-7.594c0.345-2.736-0.698-5.426-1.319-8.113c-0.621-2.686-0.714-5.825,1.147-7.861
	c1.688-1.846,4.675-2.175,6.909-1.049c2.233,1.126,3.696,3.482,4.111,5.949c0.289,1.716,0.284,3.794,1.748,4.732
	c1.375,0.882,3.179,0.166,4.632-0.582c6.335-3.261,12.64-6.605,18.658-10.427C44.846,275.093,52.044,271.808,52.854,266.782z"/>
<path style="fill:#88AA7D;" d="M67.664,245.519c0.979-0.569,0.728,11.309,0.783,11.851c0.393,3.803,0.844,5.455,4.759,7.318
	c6.135,2.92,13.934,1.217,20.462,1.49c24.132,1.01,48.339,0.238,72.464,0c24.14-0.238,48.279-0.657,72.417-1.059
	c22.855-0.381,46.242-2.374,69.01-1.598c5.104,0.174,9.923,1.342,14.963,2.056c11.521,1.633,23.024,1.137,34.647,1.118
	c15.375-0.024,30.723,1.021,46.089,1.365c7.693,0.173,15.393,0.195,23.08-0.189c4.233-0.211,13.74,1.591,16.791-2.102
	c1.98-2.398,2.127-15.056,0.951-17.963c-2.816-6.961-13.451-2.995-19.31-2.66c-8.384,0.48-16.787-0.136-25.175-0.155
	c-8.235-0.02-16.402,0.918-24.602,1.321c-12.662,0.622-25.183-1.37-37.867-0.409c-12.142,0.92-24.46,1.646-36.691,1.745
	c-28.394,0.228-56.712-2.716-85.101-2.658c-28.589,0.059-57.201,1.357-85.749,1.063c-12.744-0.131-25.763,0.1-38.503-0.508
	C86.354,245.32,74.068,241.799,67.664,245.519z"/>
<path style="fill:#6B8960;" d="M67.664,244.623c0.979-0.285,0.728,5.678,0.783,5.95c0.393,1.91,0.844,2.739,4.759,3.674
	c6.135,1.466,13.934,0.611,20.462,0.749c24.132,0.508,48.339,0.119,72.464,0c24.14-0.119,48.279-0.329,72.417-0.532
	c22.855-0.191,46.242-1.192,69.01-0.802c5.104,0.088,9.923,0.673,14.963,1.032c11.521,0.82,23.024,0.571,34.647,0.562
	c15.375-0.012,30.723,0.512,46.089,0.686c7.693,0.087,15.393,0.097,23.08-0.095c4.233-0.105,13.74,0.798,16.791-1.056
	c1.98-1.204,2.127-7.559,0.951-9.018c-2.816-3.495-13.451-1.504-19.31-1.336c-8.384,0.241-16.787-0.068-25.175-0.078
	c-8.235-0.01-16.402,0.461-24.602,0.663c-12.662,0.313-25.183-0.687-37.867-0.205c-12.142,0.461-24.46,0.827-36.691,0.876
	c-28.394,0.115-56.712-1.364-85.101-1.334c-28.589,0.03-57.201,0.681-85.749,0.533c-12.744-0.066-25.763,0.05-38.503-0.255
	C86.354,244.523,74.068,242.755,67.664,244.623z"/>
<path style="fill:#88AA7D;" d="M47.105,327.318c0.094,6.129-0.51,12.123-0.335,18.26c0.082,2.883-1.719,11.477,0.328,13.769
	c1.334,1.494,12.177,1.379,14.456,0.664c1.717-0.54,3.969-3.484,5.627-4.81c3.678-2.938,7.19-6.301,10.996-9.034
	c4.748-3.409,7.686-4.149,11.936,0.567c3.47,3.85,6.605,8.615,11.436,11.046c2.729,1.373,9.003,2.31,12.225,1.054
	c2.606-1.016,5.192-3.965,7.468-5.601c3.366-2.421,12.705-9.9,16.882-8.344c3.641,1.357,7.807,5.792,11.154,8.188
	c3.301,2.364,6.156,5.687,10.424,5.924c5.683,0.316,9.413-0.745,13.472-4.461c4.235-3.878,9.252-8.731,14.883-10.434
	c3.748-1.134,7.195,2.38,9.689,5.065c6.354,6.841,12.915,9.517,22.651,6.282c1.512-4.561,7.626-6.226,10.748-9.392
	c4.248-4.309,7.017-5.853,13.508-5.514c11.446,0.598,28.944-3.006,38.171,5.221c3.096,2.76,6.184,5.642,9.373,8.275
	c2.431,2.007,3.368,2.291,6.841,2.168c2.962-0.104,6.216-0.083,9.113-0.715c6.361-1.388,8.27-14.608,17.077-10.339
	c3.609,1.75,6.241,5.476,9.229,8.064c2.447,2.119,6.447,5.51,9.723,5.785c4.54,0.382,9.398-1.898,14.012-0.414
	c5.42-5.647,9.768-11.17,16.552-15.211c4.6,2.43,8.68,5.282,12.688,8.651c4.372,3.672,6.185,6.278,11.941,6.265
	c3.157-0.007,9.009,1.524,11.728,0.258c2.974-1.383,6.145-6.651,8.746-8.978c2.835-2.535,7.102-6.511,11.174-5.212
	c2.361,0.753,3.945,2.517,5.725,4.155c4.109,3.78,8.698,6.567,13.009,9.995c4.905-1.037,10.764-0.684,15.689-2.368
	c0.234-5.306,1.13-10.571,1.097-15.909c-0.029-4.741-1.342-8.716-2.139-13.218c-1.864-0.776-4.222-0.002-6.275,0.123
	c-4.512,0.275-9.085,0.174-13.626,0.174c-5.127,0-10.206,0.36-15.319,0.348c-8.142-0.02-16.169-0.625-24.346-0.704
	c-9.134-0.089-18.168,0.495-27.285,0.717c-9.791,0.239-19.471-0.917-29.234-1.327c-16.063-0.674-32.125,1.336-48.154,1.315
	c-15.728-0.021-31.469-0.524-47.189,0.196c-12.698,0.582-25.161-2.368-37.954-1.944c-16.583,0.55-32.864,1.871-49.486,1.747
	c-6.063-0.045-12.107-0.693-18.172-0.669c-5.116,0.021-10.111,1.713-15.116,1.73c-3.551,0.013-7.106-0.292-10.668-0.352
	c-10.228-0.17-20.435-1.716-30.679-1.757C76.748,326.562,62.234,326.328,47.105,327.318z"/>
<g>
	<path style="fill:#5E483A;" d="M81.105,345.08c-4.802,1.409-10.758,6.572-14.098,9.117c-3.394,2.586-6.183,4.017-6.44,7.785
		c-0.198,2.899,1.047,6.25,1.156,9.231c0.11,3.032,0.001,6.087,0.001,9.121c0,5.603-0.939,11.61-0.386,17.14
		c0.218,2.182-0.437,2.666,1.132,3.755c1.645,1.144,7.845,0.731,9.694,0.764c7.668,0.136,15.248,1.625,22.89,1.264
		c5.439-0.256,4.349-3.507,4.519-8.761c0.278-8.556-0.314-17.152,0.087-25.699c0.18-3.814,1.154-9.584-0.55-13.039
		c-2.036-4.124-10.021-9.513-14.329-10.843C83.701,344.585,82.448,344.686,81.105,345.08z"/>
	<path style="fill:#5E483A;" d="M135.881,343.288c-4.511,2.544-8.841,5.769-12.864,9.183c-2.298,1.95-6.68,4.571-8.002,7.435
		c-1.437,3.109-0.253,8.504-0.386,12.239c-0.241,6.76,0.074,13.531,0.009,20.32c-0.015,1.523-1.475,8.187-0.404,9.549
		c0.941,1.196,8.078,1.161,9.86,1.182c9.688,0.114,19.512-2.207,29.111-2.031c3.249-11.911,0.802-27.503,0.83-39.941
		c0.013-5.811-0.503-6.455-5.408-9.544C145.722,349.849,138.038,346.036,135.881,343.288z"/>
	<path style="fill:#5E483A;" d="M188.794,343.288c-6.183,5.501-19.978,11.187-20.556,20.057c-0.487,7.467,0.366,14.895-0.312,22.401
		c-0.514,5.698-0.621,11.639-0.316,17.369c3.755,1,7.873-0.1,11.797,0.031c6.519,0.218,12.901-0.197,19.402,0.013
		c1.433,0.046,6.956,0.484,8.146-0.363c1.956-1.393,1.175-5.303,1.151-7.559c-0.092-8.636-0.775-17.091-0.773-25.754
		c0.001-3.861,0.36-8.625-0.859-12.319c-0.927-2.811-1.214-2.415-3.661-4.178C198.788,350.082,191.24,339.722,188.794,343.288z"/>
	<path style="fill:#5E483A;" d="M235.142,342.902c-4.777,5.241-15.018,6.858-15.836,14.093c-1.299,11.502-0.956,23.168-1.525,34.722
		c-0.104,2.12-1.524,7.003-0.377,8.937c1.613,2.717,6.382,1.886,9.169,2.027c11.247,0.57,22.663,0.086,33.965,0.086
		c9.122,0,18.222-0.476,27.248-0.386c8.418,0.085,7.733-2.892,6.739-10.612c-1.273-9.887-1.295-19.709-2.116-29.603
		c-0.144-1.739,0.663-5.857-0.136-7.454c-0.708-1.417-4.471-3.025-5.755-3.989c-4.346-3.268-8.619-7.943-13.577-8.572
		c-6.795-0.862-14.815-0.685-21.67-0.422C247.883,341.858,237.022,339.89,235.142,342.902z"/>
	<path style="fill:#5E483A;" d="M320.498,343.673c-4.219,2.937-8.591,5.476-12.264,9.184c-4.42,4.462-3.203,9.439-3.185,15.558
		c0.025,8.767,0.832,17.335,0.375,26.106c-0.202,3.884-0.472,6.026,3.36,7.087c6.354,1.759,14.516,0.41,20.943,0.166
		c3.342-0.127,11.458,1.703,13.952-0.918c2.733-2.874,0.959-13.333,0.783-17.038c-0.348-7.325-0.53-14.695-1.177-21.976
		c-0.507-5.698-2.512-6.501-7.34-10.055C332.82,349.483,325.801,343.425,320.498,343.673z"/>
	<path style="fill:#5E483A;" d="M372.981,345.043c-5.017,1.229-10.331,5.559-13.119,9.044c-2.401,3.003-1.551,6.964-1.512,11.138
		c0.115,12.097-0.256,24.563,0.445,36.633c7.697-1.716,17.134-0.424,25.015-0.255c3.772,0.081,10.362,2.091,13.867,0.709
		c1.469-12.662,0.196-25.488-0.404-38.438c-0.309-6.664-1.769-7.902-7.234-11.61c-3.799-2.578-8.566-6.825-13.244-7.48
		C375.577,344.613,374.289,344.723,372.981,345.043z"/>
	<path style="fill:#5E483A;" d="M427.484,343.673c-5.471,6.076-15.92,9.513-15.47,19.082c0.399,8.455,0.994,16.854,0.599,25.332
		c-0.19,4.084-1.448,10.101-0.126,13.857c3.083-0.846,6.675,0.178,9.947,0.349c5.919,0.308,11.91,0.169,17.794-0.337
		c2.582-0.222,8.867,0.579,10.433-1.116c1.754-1.899,0.506-6.501,0.286-8.686c-0.739-7.345-0.401-14.861-0.681-22.227
		c-0.18-4.72,0.658-10.245-2.372-13.982c-2.531-3.12-7.142-5.682-10.36-8.004C434.47,345.732,430.408,342.172,427.484,343.673z"/>
</g>
<path style="fill:#D8B07C;" d="M169.618,403.405c-12.816,0.353-25.622,0.871-38.324,1.228c-16.083,0.452-32.148-0.643-48.225-0.831
	c-13.627-0.159-27.036,0.081-40.795,0.435c-4.783,0.123-8.556-0.93-10.31,4.006c-1.265,3.559-1.236,7.434,1.615,9.526
	c2.188,1.605,6.508,1.525,9.024,1.641c7.201,0.331,14.567,0.6,21.768,0.321c17.858-0.692,35.981-0.596,53.828,0.317
	c10.336,0.528,20.021,1.277,30.286,0.598c11.393-0.754,22.796-1.394,34.204-1.882c22.956-0.98,46.808-2.995,69.25,1.466
	c11.775,2.341,25.441,0.68,37.404,0.538c12.798-0.152,25.599-0.381,38.395-0.038c18.894,0.506,37.774,1.51,56.663,2.09
	c17.26,0.53,34.009-1.234,51.433-1.271c6.898-0.015,14.203,0.755,21.043-0.228c6.734-0.969,13.494-1.942,19.771-4.53
	c4.393-1.811,9.93-8.022,4.278-12.352c-2.707-2.074-8.652-1.777-11.895-2.259c-8.387-1.249-17.716-0.058-26.288,0.337
	c-17.607,0.81-35.384,0.758-52.998,0.447c-28.525-0.504-56.77-2.373-85.308-0.837c-28.635,1.542-56.392,2.879-85.091,1.459
	C202.883,402.769,186.241,402.947,169.618,403.405z"/>
<g>
	<path style="fill:#BC5724;" d="M143.247,93.858c2.81-5.021,5.956-9.348,9.227-3.971c3.532,5.806-2.207,15,1.549,20.525
		c2.958,4.35,11.566,2.388,16.03,2.265c7.74-0.213,15.473-0.654,23.218-0.73c9.234-0.093,20.674-0.169,26.073,8.301
		c4.152,6.514,3.509,13.019,3.921,20.585c1.002,18.383-0.97,36.325,9.111,52.573c12.299,19.824,34.952,26.335,56.775,29.368
		c31.112,4.324,64.246,2.975,95.551,1.877c15.277-0.536,30.558-1.042,45.846-1.162c12.356-0.098,26.959,1.175,38.986-1.987
		c5.879-1.546,8.772-5.435,14.664-3.897c3.977,1.038,10.578,3.551,10.575,8.434c-0.002,7.85-10.181,3.769-14.721,4.22
		c-4.419,0.439-3.848,2.323-6.716,5.101c-7.105,6.879-22.607,8.608-32.027,9.06c-5.194,0.249-10.764-0.268-15.88,0.714
		c-3.408,0.654-6.464,2.169-9.94,2.626c-11.675,1.532-24.195,0.561-35.943,0.348c-23.805-0.431-47.61-1.682-71.424-1.039
		c-32.424,0.875-64.779-2.828-97.194-1.948c-16.463,0.447-32.906,1.41-49.366,1.894c-11.609,0.342-23.379,0.015-34.981-0.373
		c-16.344-0.547-32.988-0.229-49.234-2.284c-9.516-1.203-19.891-1.788-29.172-4.002c-3.135-0.749-6.981-2.37-9.726-4.13
		c-1.612-1.034-2.991-3.431-4.536-4.242c-4.513-2.367-17.2,2.978-14.404-7.008c0.473-1.689,2.196-2.711,1.93-4.519
		c-0.187-1.272-2.571-3.094-3.127-4.475c-1.095-2.718-1.212-7.684,1.322-9.742c4.19-3.402,10.261,5.345,9.699,9.568
		c3.43,0.803,7.815-2.899,10.726-4.578c5.24-3.023,8.72-7.467,13.406-11.049c3.886-2.971,8.348-5.273,12.265-8.307
		c17.071-13.221,32.285-28.628,46.364-44.957c4.892-5.674,9.497-11.589,14.363-17.28c3.076-3.597,8.65-7.525,8.479-12.917
		c-0.143-4.308-5.47-4.622-4.789-9.32c0.74-5.098,4.804-3.349,7.592-4.959C139.345,101.512,141.208,97.503,143.247,93.858z"/>
	<path style="fill:#BC5724;" d="M63.479,264.803c-1.598-3.712-2.375-11.476-7.46-12.459c-8.668-1.677-3.262,11.563-1.256,14.962
		c-5.745,5.169-11.902,10.059-18.945,13.524c-5.956,2.93-14.493,4.827-19.452,9.045c0.745-5.097-1.319-13.705-8.209-11.775
		c-10.491,2.94-1.489,10.842-1.856,16.368c-0.277,4.156-5.03,7.056-0.856,11.472c3.851,4.074,11.655,2.423,16.536,2.145
		c5.453-0.311,15.74-2.103,20.812,0.013c4.631,1.933,3.383,6.954,2.13,11.18c4.134,1.868,10.588,0.716,15.132,0.543
		c14.822-0.565,29.6-1.582,44.438-2.091c41.589-1.427,82.981,1.626,124.565,1.636c16.11,0.003,32.216,0.399,48.277,0.431
		c10.624,0.022,21.301-0.608,31.922-0.961c21.883-0.725,43.716-0.163,65.566-0.41c17.353-0.196,34.911-2.842,52.253-2.112
		c9.783,0.411,22.015,4.613,31.677,2.109c4.51-1.169,5.834-5.716,9.6-7.505c2.598-1.235,6.592-0.901,9.543-1.068
		c6.513-0.367,29.18,1.85,29.009-8.311c-0.133-7.884-14.933-8.699-20.384-7.631c-15.389,3.016-30.731,6.376-46.244,4.098
		c-8.355-1.227-17.544-0.182-26.006-0.425c-9.251-0.267-18.495-0.694-27.738-1.166c-49.613-2.531-99.246-3.693-148.842-6.282
		c-25.94-1.354-52.129-2.912-73.052-19.659c-10.991-8.798-29.803-3.606-42.778-3.082c-10.632,0.429-21.286,0.721-31.922,0.257
		C87.052,267.521,64.683,267.597,63.479,264.803z"/>
	<path style="fill:#BC5724;" d="M48.323,360.934c0.631,1.297-0.504,9.015-0.759,11.66c-0.657,6.808-6.382,28.229,5.459,27.707
		c0.664-9.972,1.71-19.914,1.803-29.916c0.02-2.163,0.67-6.19-0.499-8.171C53.139,360.201,47.988,360.247,48.323,360.934z"/>
	<path style="fill:#BC5724;" d="M108.513,360.069c-3.045,0.118-7.345,0.422-8.702,3.244c-1.288,2.681,0.244,7.396,0.378,10.29
		c0.236,5.109-0.173,10.26,0.08,15.37c0.226,4.563-1.175,11.822,3.037,13.099c7.779,2.357,4.603-9.06,4.34-13.294
		C107.066,379.437,107.158,370.083,108.513,360.069z"/>
	<path style="fill:#BC5724;" d="M163.136,358.91c-3.045,0.118-7.345,0.422-8.702,3.244c-1.288,2.681,0.244,7.396,0.378,10.29
		c0.236,5.109-0.173,10.26,0.08,15.37c0.226,4.563-1.175,11.822,3.037,13.099c7.779,2.357,4.603-9.06,4.34-13.294
		C161.69,378.279,161.781,368.925,163.136,358.91z"/>
	<path style="fill:#BC5724;" d="M208.289,357.587c-1.531,9.52-1.623,19.807-1.624,29.46c0,2.902-1.283,12.447,1.277,14.053
		c4.155,2.608,3.385-7.71,3.539-9.157c0.896-8.419,1.292-17.256,0.968-25.728C212.337,363.322,213.62,354.942,208.289,357.587z"/>
	<path style="fill:#BC5724;" d="M298.266,358.16c0.193,0.114,0.395,0.255,0.606,0.424c2.314,1.861,1.029,8.077,0.846,10.579
		c-0.511,6.995-0.467,14.094-0.463,21.11c0.001,1.771,0.904,14.618-3.123,11.681c-2.591-1.89-1.399-9.12-1.527-11.889
		c-0.313-6.694-0.647-13.398-0.428-20.1C294.235,368.211,293.675,355.458,298.266,358.16z"/>
	<path style="fill:#BC5724;" d="M346.362,360.603c-1.256,4.403-0.879,9.648-1.044,14.181c-0.217,5.953-0.429,11.833-0.123,17.779
		c0.082,1.592-0.174,10.723,3.492,8.844c1.98-1.014,1.768-5.828,1.811-7.505c0.21-8.299-0.183-16.588,0.214-24.905
		c0.107-2.239,1.249-6.601,0.126-8.69C349.462,357.742,348.097,359.925,346.362,360.603z"/>
	<path style="fill:#BC5724;" d="M397.877,360.603c-0.393,12.237-1.811,24.898-0.295,37.148c0.392,3.166,1.584,8.143,5.519,4.276
		c2.354-2.315,1.239-8.405,1.326-11.388c0.213-7.348,0.709-14.902,0.418-22.243c-0.086-2.154,0.644-6.063-0.939-7.503
		C402.477,359.596,400.388,360.308,397.877,360.603z"/>
	<path style="fill:#BC5724;" d="M450.322,359.443c2.813,4.952,0.451,12.16,0.453,17.531c0.002,4.967-0.254,10.019,0.006,14.969
		c0.08,1.534-0.227,10.663,1.388,11.381c0.693,0.307,4.535-1.996,4.847-2.551c0.431-0.769,0.037-2.531,0.037-3.379
		c-0.001-3.315,0.134-6.589,0.244-9.899c0.229-6.927-0.384-13.766-0.065-20.703c0.127-2.76,0.463-5.724,0.244-8.467
		C455.462,357.129,452.917,358.581,450.322,359.443z"/>
</g>
<path style="fill:#6B8960;" d="M47.434,327.839c0.001,9.498-3.76,22.549-0.32,31.604c1.846,0.54,7.221,1.872,9.127,0.761
	c4.641-2.704,2.972-13.242,6.328-17.408c8.07-10.021,28.887-7.279,40.003-7.64c23.348-0.759,46.456-2.482,69.872-1.447
	c27.599,1.22,54.855,0.236,82.49-0.086c22.368-0.261,44.612,1.907,66.95,1.944c30.02,0.05,60.029,0.768,90.06,0.768
	c11.624,0,23.385,0.501,34.995-0.086c4.028-0.204,9.92,0.871,13.778-0.301c2.876-0.874,6.402-7.025,3.381-9.568
	c-1.724-1.452-6.735-0.21-8.571-0.09c-5.65,0.366-11.251,0.584-16.93,0.768c-14.671,0.476-29.412-0.272-44.051,0.363
	c-14.93,0.648-29.686-1.078-44.525-1.126c-16.687-0.054-33.715,0.251-50.415,0.962c-20.804,0.885-42.656,2.734-63.408,0.506
	c-7.027-0.754-13.813-0.682-20.794-0.694c-34.805-0.06-69.533,1.139-104.36-0.021c-15.156-0.505-30.317-0.229-45.479-0.761
	c-4.372-0.153-8.754-0.119-13.123-0.378C47.801,325.634,47.62,325.017,47.434,327.839z"/>
<path d="M506.407,276.074c-2.85-1.787-6.021-2.337-8.766,0.045c-1.335,1.16-2.174,2.845-3.04,4.352
	c-0.652,1.137-1.329,3.291-2.207,4.528c-0.217,0.081-0.433,0.177-0.656,0.314c-0.176,0.109-0.336,0.256-0.483,0.418
	c-6.142-2.466-12.059-5.335-17.795-8.782c-3.663-2.2-7.131-4.725-10.568-7.264c-1.357-1.001-2.66-2.133-3.974-3.256
	c0.899-0.66,1.536-1.739,2.174-2.598c1.029-1.385,2.106-3.381,2.474-5.072c0.583-2.681-1.169-6.275-3.464-7.689
	c-3.166-1.95-6.191,0.314-8.68,2.309c-1.587,1.273-2.278,3.013-2.835,4.922c-0.32,1.096-0.671,1.838-1.152,2.708
	c-0.188,0.012-0.374,0.021-0.564,0.038c0.097-2.039-0.085-4.164-0.218-5.899c-0.009-0.119-0.492-6.132-1.213-8.048
	c7.168-0.897,15.662-1.801,21.828-5.148c3.78-2.052,10.218-4.704,12.897-8.886c0.653,0.146,1.306,0.293,1.988,0.416
	c4.277,0.766,9.561,2.188,12.484-2.046c2.407-3.488,1.641-7.12-0.71-10.32c-0.114-0.154-0.235-0.295-0.352-0.445
	c3.96-4.705,5.483-11.313,0.313-15.919c-2.335-2.08-5.264-2.313-7.785-0.341c-1.556,1.217-2.181,2.916-3.17,4.576
	c-0.738,1.237-1.658,2.083-2.173,3.178c-1.05-0.503-2.095-1.014-3.117-1.564c-6.602-3.553-12.849-7.998-19.088-12.136
	c-12.124-8.039-21.767-19.026-32.594-28.661c-3.5-3.115-6.62-6.161-9.798-9.584c-2.087-2.247-4.657-3.547-6.898-5.579
	c-2.484-2.252-4.309-5.577-6.549-8.12c-2.27-2.578-4.587-5.111-6.783-7.753c-4.834-5.818-8.952-12.162-13.936-17.811
	c-1.352-1.533-2.679-3.241-4.058-4.926c5.711,0.024,8.344-7.27,5.966-12.254c-1.549-3.247-3.738-3.923-7.025-4.197
	c-0.582-0.049-1.418,0.564-1.919,0.402c-1.361-0.441-1.685-2.109-2.06-3.22c-0.528-1.56-0.563-3.248-1.167-4.793
	c-1.664-4.26-8.724-8.692-13.133-5.49c-2.177,1.582-2.633,5.051-2.852,7.497c-0.406,4.515-1.174,10.113-0.377,14.839
	c-0.547,0.685-0.908,1.518-0.976,2.548c-0.041,0.068-0.063,0.156-0.098,0.231c-1.409-0.253-2.82-0.638-4.201-0.82
	c-3.349-0.438-6.747-0.473-10.12-0.521c-7.58-0.109-15.178-0.233-22.759-0.112c-10.612,0.168-21.548-1.22-32.172,0.015
	c-1.02-0.041-2.031-0.07-3.016-0.086c-8.448-0.137-16.838,0.426-25.262,0.446c-8.732,0.021-17.421-0.001-26.108,0.183
	c-11.773-2.13-24.03-0.37-35.882-0.557c-7.581-0.12-15.179,0.003-22.759,0.112c-3.373,0.049-6.771,0.082-10.12,0.521
	c-1.382,0.181-2.792,0.567-4.203,0.82c-0.036-0.074-0.058-0.162-0.098-0.231c-0.068-1.03-0.429-1.863-0.976-2.548
	c0.797-4.727,0.029-10.324-0.377-14.839c-0.22-2.446-0.676-5.915-2.852-7.497c-4.41-3.204-11.469,1.229-13.133,5.49
	c-0.604,1.546-0.638,3.234-1.167,4.793c-0.377,1.111-0.699,2.779-2.06,3.22c-0.501,0.162-1.338-0.451-1.919-0.402
	c-3.287,0.273-5.477,0.95-7.025,4.197c-2.376,4.985,0.255,12.279,5.966,12.254c-1.379,1.686-2.707,3.394-4.058,4.926
	c-4.984,5.651-9.102,11.994-13.936,17.811c-2.196,2.642-4.514,5.175-6.783,7.753c-2.24,2.543-4.065,5.868-6.549,8.12
	c-2.242,2.033-4.812,3.332-6.898,5.579c-3.178,3.424-6.297,6.469-9.798,9.583c-10.826,9.635-20.469,20.622-32.594,28.661
	c-6.24,4.137-12.486,8.584-19.088,12.136c-1.022,0.55-2.067,1.063-3.117,1.564c-0.514-1.095-1.436-1.941-2.173-3.178
	c-0.99-1.66-1.614-3.359-3.17-4.576c-2.521-1.971-5.45-1.739-7.785,0.341c-5.169,4.606-3.646,11.215,0.313,15.919
	c-0.117,0.148-0.239,0.29-0.352,0.445c-2.351,3.2-3.117,6.833-0.71,10.32c2.922,4.234,8.207,2.812,12.484,2.046
	c0.682-0.122,1.335-0.269,1.988-0.416c2.68,4.181,9.119,6.834,12.897,8.886c6.167,3.349,14.662,4.251,21.829,5.148
	c-0.721,1.918-1.204,7.93-1.213,8.048c-0.133,1.736-0.315,3.861-0.218,5.899c-0.19-0.017-0.377-0.027-0.564-0.038
	c-0.48-0.87-0.832-1.612-1.152-2.708c-0.556-1.91-1.248-3.649-2.835-4.922c-2.489-1.995-5.514-4.259-8.68-2.309
	c-2.295,1.414-4.047,5.008-3.464,7.689c0.367,1.691,1.445,3.687,2.474,5.072c0.638,0.859,1.276,1.936,2.174,2.598
	c-1.314,1.123-2.617,2.254-3.974,3.256c-3.438,2.539-6.906,5.063-10.568,7.264c-5.737,3.447-11.653,6.316-17.794,8.782
	c-0.147-0.162-0.307-0.309-0.483-0.418c-0.222-0.137-0.439-0.234-0.656-0.314c-0.878-1.237-1.555-3.391-2.207-4.528
	c-0.866-1.507-1.704-3.193-3.04-4.352c-2.745-2.382-5.915-1.832-8.765-0.045c-2.957,1.853-5.994,4.634-5.547,8.442
	c0.311,2.649,1.83,5.607,3.777,7.859c-0.501,0.413-0.97,0.861-1.355,1.399c-1.638,2.294-1.232,4.806-1.06,7.489
	c0.554,8.68,5.861,10.707,12.265,9.964c1.713,0.543,3.412,0.72,5.719,0.582c4.276-0.257,8.85,0.643,13.219,0.736
	c3.827,0.082,7.654,0.136,11.483,0.193c-1.776,6.3-2.017,12.56-2.069,19.13c-0.068,8.647-0.314,17.293-0.384,25.941
	c-0.06,7.49-0.089,14.799-0.923,22.212c-0.472,4.191,0.832,8.112,0.857,12.26c0.01,1.649-0.216,3.185-0.283,4.714
	c-0.195,0.998-0.204,2.024,0.095,3.11c-0.702,0.012-1.409,0.041-2.125,0.115c-3.294,0.34-7.012-0.489-9.831,1.718
	c-2.443,1.912-3.197,5.227-3.321,8.178c-0.114,2.708,0.053,6.544,1.374,8.982c1.512,2.79,3.982,2.958,6.824,3.35
	c9.239,1.272,18.39,2.091,27.642,3.061c4.835,0.506,9.679,0.111,14.525,0.209c5.439,0.109,10.763,0.76,16.232,0.747
	c10.837-0.024,21.701,0.27,32.535,0.094c10.557-0.173,21.121-1.607,31.692-1.611c10.415-0.002,20.768-0.612,31.173-0.73
	c12.64-0.144,25.235-0.861,37.878-0.527c5.753,0.152,11.345-0.94,17.083-0.949c0.813-0.001,1.599,0.009,2.363,0.002
	c3.605,0.401,7.207,0.787,10.797,0.841c7.018,0.107,14.926,0.81,22.007-0.243c2.582,0.227,5.168,0.418,7.788,0.349
	c12.642-0.334,25.237,0.385,37.878,0.527c10.405,0.118,20.758,0.728,31.173,0.73c10.572,0.002,21.136,1.438,31.692,1.611
	c10.834,0.176,21.696-0.118,32.535-0.094c5.468,0.012,10.793-0.638,16.232-0.747c4.847-0.097,9.689,0.298,14.524-0.209
	c9.252-0.97,18.402-1.789,27.642-3.061c2.841-0.39,5.31-0.558,6.824-3.35c1.322-2.437,1.488-6.274,1.374-8.982
	c-0.124-2.951-0.878-6.265-3.321-8.178c-2.819-2.207-6.537-1.378-9.831-1.718c-0.716-0.074-1.422-0.102-2.125-0.115
	c0.299-1.085,0.29-2.111,0.095-3.11c-0.067-1.527-0.293-3.065-0.283-4.714c0.025-4.148,1.329-8.068,0.857-12.26
	c-0.834-7.413-0.863-14.722-0.923-22.212c-0.07-8.647-0.315-17.293-0.384-25.941c-0.052-6.57-0.293-12.83-2.069-19.13
	c3.827-0.058,7.655-0.112,11.483-0.193c4.369-0.094,8.945-0.993,13.219-0.736c2.307,0.139,4.007-0.038,5.719-0.582
	c6.403,0.745,11.711-1.284,12.265-9.964c0.172-2.682,0.577-5.194-1.06-7.489c-0.385-0.538-0.854-0.986-1.354-1.399
	c1.948-2.252,3.467-5.211,3.777-7.859C512.401,280.708,509.364,277.927,506.407,276.074z M453.971,259.995
	c0.267-1.103,0.415-2.096,1.137-2.991c0.552-0.682,1.707-2.402,2.458-2.803c1.176-0.628,1.788,1.193,1.774,2.262
	c-0.015,1.214-0.786,2.453-1.308,3.496c-0.73,1.456-1.453,2.626-1.996,4.115c-0.765-0.581-1.547-1.127-2.359-1.613
	c-0.123-0.074-0.243-0.131-0.365-0.198C453.584,261.548,453.782,260.782,453.971,259.995z M487.627,210.673
	c0.475-1.098,0.765-3.237,1.837-3.907c2.986-1.864,3.704,1.357,3.595,3.318c-0.16,2.877-0.832,4.832-2.176,7.347
	c-0.061,0.115-0.121,0.227-0.181,0.341c-1.619-1.314-3.411-2.378-5.279-3.342C486.4,213.382,487.045,212.021,487.627,210.673z
	 M363.937,89.478c1.597,0.112,2.996,1.637,3.616,2.996c0.735,1.614,0.74,3.724,1.158,5.445c0.688,2.834,1.915,6.025,5.152,6.605
	c2.067,0.37,4.542-0.94,5.293,2.256c0.677,2.879-1.484,4.74-3.411,6.456c-0.041,0.036-0.065,0.083-0.101,0.123
	c-1.502-1.646-3.101-3.157-4.895-4.305c-2.538-1.622-6.062-2.565-9.194-2.539c0.235-4.425-0.673-9.104-0.636-13.405
	C360.934,91.224,361.419,89.302,363.937,89.478z M360.478,111.77c1.692-0.907,5.273-0.11,6.708,0.545
	c2.459,1.122,4.278,3.496,5.977,5.523c3.705,4.423,6.71,9.333,10.368,13.683c4.842,5.756,8.975,12.126,13.852,17.904
	c3.717,4.404,6.332,8.709,10.889,12.268c2.754,2.152,4.467,4.912,6.821,7.442c2.308,2.48,5.045,4.593,7.49,6.937
	c4.286,4.11,8.307,8.358,12.854,12.186c3.795,3.196,6.822,6.672,10.87,9.537c4.533,3.21,8.733,6.639,13.377,9.732
	c5.736,3.818,11.361,7.84,17.598,10.82c2.398,1.146,4.885,2.125,7.198,3.444c1.516,0.863,9.346,5.153,3.022,7.146
	c-2.081,0.656-7.178-1.1-9.359-1.697c-3.418-0.939-6.499-2.834-9.568-4.564c-5.641-3.178-11.426-6.104-17.028-9.345
	c-10.907-6.311-18.881-15.489-28.775-23.045c-9.077-6.931-17.541-15.041-24.412-24.03c-7.47-9.774-17.371-17.349-23.645-28.097
	c-2.865-4.909-6.118-9.594-9.008-14.459c-1.098-1.85-1.831-3.965-2.758-5.91c-0.358-0.751-3.131-4.254-3.219-4.913
	c-0.01-0.076-0.032-0.144-0.049-0.216C360.006,112.45,360.269,112.143,360.478,111.77z M155.172,119.665
	c0.702-1.331,1.532-2.43,2.116-3.629c1.863,0.598,4.14,0.514,6.004,0.594c8.599,0.366,17.188,0.475,25.797,0.465
	c7.834-0.008,15.312-0.488,23.094-0.917c1.583-0.087,3.167-0.141,4.751-0.192c4.594,0.495,9.275,0.092,14.002,0.156
	c7.885,0.109,15.81,0.457,23.726,0.483c8.046,0.029,16.042-0.419,24.096-0.433c4.805-0.008,10.661,0.39,15.859-0.221
	c1.732,0.056,3.466,0.112,5.198,0.207c7.782,0.429,15.26,0.908,23.094,0.917c8.609,0.009,17.198-0.098,25.797-0.465
	c1.864-0.08,4.141,0.003,6.004-0.594c0.584,1.199,1.412,2.297,2.116,3.629c0.679,1.286,1.278,2.589,1.886,3.884
	c-11.721-1.663-24.286-0.531-35.943-0.539c-7.171-0.005-14.34-0.03-21.511,0.094c-3.083,0.053-6.296-0.065-9.491-0.003
	c-4.143-0.28-8.455-0.071-12.265-0.071c-8.105,0-16.186-0.463-24.3-0.445c-8.044,0.019-16.043,0.399-24.072,0.552
	c-6.131,0.117-12.759-1.127-18.887-0.025c-0.503-0.001-1.008,0.001-1.505-0.007c-7.17-0.124-14.339-0.1-21.511-0.094
	c-11.656,0.008-24.22-1.124-35.941,0.539C153.894,122.254,154.493,120.95,155.172,119.665z M132.841,106.78
	c0.751-3.196,3.226-1.886,5.293-2.256c3.236-0.579,4.463-3.769,5.152-6.605c0.417-1.719,0.423-3.831,1.158-5.445
	c0.62-1.36,2.02-2.885,3.616-2.996c2.518-0.176,3.002,1.745,3.018,3.634c0.037,4.301-0.871,8.98-0.636,13.405
	c-3.132-0.027-6.656,0.917-9.194,2.539c-1.794,1.147-3.394,2.658-4.895,4.305c-0.035-0.041-0.059-0.087-0.101-0.123
	C134.324,111.521,132.163,109.659,132.841,106.78z M21.112,217.432c-1.344-2.516-2.015-4.47-2.176-7.347
	c-0.109-1.962,0.609-5.184,3.595-3.318c1.072,0.67,1.363,2.809,1.837,3.907c0.582,1.348,1.227,2.708,2.203,3.758
	c-1.867,0.964-3.66,2.028-5.279,3.342C21.233,217.66,21.174,217.548,21.112,217.432z M24.494,228.935
	c-6.324-1.993,1.506-6.282,3.022-7.146c2.313-1.319,4.799-2.297,7.198-3.444c6.236-2.98,11.861-7.002,17.598-10.82
	c4.644-3.091,8.844-6.522,13.377-9.732c4.047-2.865,7.075-6.343,10.87-9.537c4.547-3.828,8.567-8.076,12.853-12.186
	c2.444-2.344,5.18-4.457,7.49-6.937c2.354-2.531,4.067-5.291,6.821-7.442c4.557-3.559,7.172-7.864,10.889-12.268
	c4.877-5.778,9.011-12.148,13.852-17.904c3.658-4.349,6.662-9.259,10.368-13.683c1.699-2.028,3.518-4.401,5.977-5.523
	c1.436-0.655,5.016-1.452,6.708-0.545c0.21,0.374,0.474,0.681,0.797,0.89c-0.016,0.072-0.038,0.139-0.049,0.216
	c-0.088,0.658-2.861,4.161-3.219,4.913c-0.927,1.944-1.659,4.06-2.758,5.91c-2.889,4.864-6.141,9.549-9.008,14.459
	c-6.274,10.748-16.175,18.324-23.645,28.097c-6.871,8.989-15.335,17.099-24.412,24.03c-9.894,7.555-17.868,16.733-28.775,23.045
	c-5.602,3.242-11.388,6.167-17.028,9.345c-3.069,1.73-6.15,3.626-9.568,4.564C31.67,227.836,26.575,229.591,24.494,228.935z
	 M58.466,237.791c-4.942-0.765-8.944-1.478-13.555-3.461c-2.169-0.933-5.06-1.721-7.617-2.835c4.008-1.437,7.706-3.353,11.791-5.614
	c7.825-4.33,15.961-8.09,23.237-13.347c5.821-4.205,10.6-9.488,16.049-14.12c6.084-5.17,12.476-9.984,18.465-15.282
	c5.803-5.131,9.64-11.274,14.888-16.893c5.833-6.244,12.018-12.171,17.263-18.95c4.475-5.783,7.738-12.608,11.662-18.753
	c0.016-0.024,0.028-0.051,0.044-0.076c12.448,2.255,26.01,0.947,38.533,0.955c6.793,0.005,13.587,0.044,20.379-0.074
	c5.404-0.094,11.216,0.339,16.67-0.462c1.613,0.129,3.227,0.24,4.854,0.234c8.4-0.03,16.803-0.353,25.219-0.338
	c7.73,0.013,15.431,0.448,23.153,0.448c4.318,0,9.076,0.58,13.564,0.153c3.147,0.024,6.301-0.086,9.324-0.034
	c6.792,0.118,13.586,0.079,20.379,0.074c12.523-0.008,26.086,1.3,38.533-0.955c0.016,0.025,0.028,0.051,0.044,0.076
	c3.924,6.145,7.186,12.97,11.661,18.753c5.245,6.778,11.43,12.705,17.263,18.95c5.248,5.618,9.086,11.762,14.888,16.893
	c5.99,5.298,12.381,10.112,18.465,15.282c5.448,4.63,10.228,9.915,16.049,14.12c7.277,5.256,15.413,9.017,23.237,13.347
	c4.084,2.261,7.783,4.177,11.791,5.614c-2.557,1.115-5.449,1.904-7.617,2.835c-4.61,1.983-8.613,2.696-13.555,3.461
	c-9.484,1.467-18.69,2.801-28.285,3.19c-19.507,0.793-39.1,0.929-58.518,2.189c-8.907,0.577-17.73,1.393-26.673,1.228
	c-9.071-0.167-18.012-0.936-27.076-0.798c-10.687,0.162-21.279,0.19-31.955-0.038c-2.159-0.046-4.725-0.393-7.121-0.229
	c-2.081-0.326-4.165-0.256-6.77-0.118c-5.373,0.284-10.816,0.024-16.197,0.1c-3.526,0.049-7.063,0.243-10.595,0.37
	c-2.945-0.761-6.505-0.182-9.359-0.12c-10.676,0.228-21.27,0.2-31.955,0.038c-9.064-0.138-18.005,0.633-27.076,0.798
	c-8.943,0.165-17.766-0.651-26.673-1.228c-19.418-1.258-39.012-1.395-58.518-2.189C77.157,240.591,67.951,239.258,58.466,237.791z
	 M439.736,260.6c-0.634,0.275-1.319,0.511-1.969,0.714c-0.64,0.005-1.139,0.037-1.117,0.031c-1.855,0.173-3.658,0.425-5.522,0.552
	c-4.09,0.276-8.21,0.415-12.309,0.565c-16.516,0.605-33.119-0.611-49.59,0.766c-16.84,1.407-34.327,0.33-51.233,0.333
	c-3.828,0.001-7.318-0.557-11.089-1.139c-3.637-0.561-7.148-0.134-10.798-0.153c-2.17-0.012-4.315-0.207-6.463-0.386
	c0.071-1.818,0.008-3.658,0.202-5.223c0.305-2.466,0.685-4.698,0.319-6.821c1.481,0.101,2.964,0.184,4.451,0.219
	c10.347,0.244,21.051-0.448,31.296,0.831c8.337,1.04,18.158,0.855,26.506-0.307c4.716-0.656,9.538-1.014,14.304-1.286
	c4.519-0.258,9.155-0.886,13.676-0.761c20.367,0.562,40.598,1.549,60.865-0.904c-0.359,1.251-0.436,2.473-0.535,4.191
	c-0.141,2.448-0.246,5.054-0.669,7.476C440.091,259.132,439.923,259.799,439.736,260.6z M276.023,248.487
	c0.094-0.023,0.187-0.049,0.28-0.073c1.377,0.213,2.694,0.463,3.672,0.548c1.716,0.147,3.429,0.308,5.141,0.465
	c-0.015,0.222-0.035,0.445-0.072,0.669c-0.458,2.755-0.828,5.535-1.19,8.34c-0.101,0.782-0.26,1.916-0.353,3.152
	c-0.835,0.01-1.665,0.044-2.495,0.075c-1.411-0.226-2.855-0.371-4.324-0.444c0.038-0.84,0.043-1.686,0.17-2.526
	c0.232-1.534,0.501-2.984,0.492-4.546C277.334,252.037,276.914,250.203,276.023,248.487z M272.235,249.207
	c-0.06,0.925-0.013,1.876-0.088,2.872c-0.175,2.315-0.715,4.507-1.08,6.783c-0.101,0.626-0.228,1.47-0.289,2.354
	c-5.332,0.21-10.72,0.853-15.57,0.915c-4.464,0.058-9.22-0.148-13.963-0.168c-0.016-1.146-0.188-2.3-0.316-3.102
	c-0.365-2.276-0.905-4.468-1.08-6.783c-0.074-0.977-0.031-1.91-0.086-2.818c3.855,0.072,7.695-0.068,11.167-0.02
	C257.535,249.334,265.261,250.137,272.235,249.207z M235.144,258.693c0.16,1.06,0.124,2.131,0.207,3.185
	c-2.276-0.14-4.552-0.261-6.856-0.291c-0.094-1.235-0.253-2.37-0.353-3.152c-0.361-2.805-0.733-5.584-1.19-8.34
	c-0.037-0.224-0.057-0.446-0.072-0.669c1.713-0.156,3.425-0.319,5.141-0.465c0.309-0.027,0.659-0.073,1.027-0.126
	c0.876,0.107,1.762,0.188,2.653,0.25c-0.693,1.546-1.04,3.193-1.05,5.062C234.644,255.709,234.912,257.16,235.144,258.693z
	 M71.934,259.295c-0.422-2.422-0.527-5.028-0.669-7.476c-0.1-1.718-0.176-2.94-0.535-4.191c20.265,2.453,40.497,1.466,60.865,0.904
	c4.521-0.125,9.157,0.504,13.676,0.761c4.766,0.272,9.588,0.63,14.304,1.286c8.35,1.162,18.169,1.348,26.506,0.307
	c10.245-1.279,20.949-0.586,31.296-0.831c1.488-0.035,2.97-0.119,4.452-0.219c-0.366,2.123,0.013,4.356,0.319,6.821
	c0.194,1.565,0.131,3.405,0.202,5.223c-2.148,0.18-4.293,0.375-6.463,0.386c-3.65,0.02-7.161-0.408-10.798,0.153
	c-3.772,0.582-7.26,1.14-11.089,1.139c-16.905-0.002-34.392,1.074-51.233-0.333c-16.471-1.377-33.074-0.161-49.59-0.766
	c-4.098-0.149-8.219-0.29-12.309-0.565c-1.864-0.126-3.666-0.379-5.522-0.552c0.022,0.005-0.477-0.028-1.117-0.031
	c-0.65-0.202-1.335-0.439-1.969-0.714C72.073,259.799,71.905,259.132,71.934,259.295z M52.655,256.464
	c-0.014-1.067,0.598-2.89,1.774-2.262c0.751,0.401,1.906,2.122,2.458,2.803c0.722,0.893,0.87,1.886,1.137,2.991
	c0.19,0.786,0.387,1.551,0.659,2.269c-0.122,0.067-0.242,0.124-0.365,0.198c-0.812,0.485-1.594,1.032-2.359,1.613
	c-0.543-1.489-1.266-2.658-1.995-4.115C53.442,258.917,52.672,257.678,52.655,256.464z M6.994,280.371
	c0.466-0.404,1.421-1.215,2.057-1.35c1.345-0.284,2.06,0.63,2.672,1.483c1.069,1.491,1.779,5.065,3.152,7.44
	c-0.725,0.256-1.45,0.516-2.182,0.762c-1.575,0.531-3.376,0.986-5.087,1.618c-0.682-1.527-1.456-3.022-2.13-4.543
	C4.52,283.623,5.213,281.92,6.994,280.371z M18.136,304.453c-3.981,1.557-10.456,3.601-11.67-2.432
	c-0.89-4.423,3.314-4.556,6.506-5.394c12.44-3.262,24.27-9.711,34.695-17.065c2.833-1.999,5.719-3.885,8.496-5.966
	c2.489-1.866,4.332-4.549,7.469-5.154c0.861-0.167,1.788-0.264,2.743-0.342c-4.284,4.574-7.409,10.217-12.128,14.363
	c-6.125,5.38-13.707,10.482-20.699,14.675C28.554,300.133,23.492,302.358,18.136,304.453z M472.749,407.625
	c4.551,0.326,6.314,1.709,5.23,6.455c-0.056,0.243-0.058,0.404-0.034,0.514c-0.086,0.021-0.183,0.047-0.302,0.088
	c-0.707,0.241-1.636,0.211-2.382,0.313c-1.97,0.269-3.89,0.707-5.847,1.042c-7.865,1.349-16.496,1.875-24.459,1.993
	c-8.58,0.127-17.099,0.724-25.663,0.716c-9.549-0.009-19.103-0.063-28.651,0.058c-4.251,0.053-8.327-0.465-12.549-0.71
	c-4.437-0.258-8.867,0.176-13.293-0.335c-8.369-0.967-16.804-0.174-25.21-0.562c-9.053-0.418-18.086-0.638-27.146-0.922
	c-9.507-0.297-18.946-0.269-28.448-0.199c-4.376,0.032-8.638-0.863-13-0.951c-0.134-0.002-0.278,0.009-0.417,0.012
	c-4.624-0.423-9.366-0.145-14.013-0.096c-1.808,0.02-3.673-0.031-5.557-0.068c-0.035-0.002-0.07-0.002-0.104-0.002
	c-2.788-0.052-5.615-0.066-8.36,0.229c-0.533-0.049-1.056-0.085-1.548-0.075c-4.364,0.089-8.625,0.984-13,0.951
	c-9.502-0.07-18.941-0.098-28.448,0.199c-9.06,0.284-18.093,0.504-27.146,0.922c-8.405,0.388-16.839-0.404-25.21,0.562
	c-4.425,0.511-8.856,0.076-13.292,0.335c-4.221,0.246-8.299,0.765-12.549,0.71c-9.548-0.121-19.103-0.067-28.651-0.058
	c-8.564,0.008-17.083-0.589-25.663-0.716c-7.963-0.118-16.594-0.645-24.459-1.993c-1.957-0.336-3.877-0.773-5.847-1.042
	c-0.747-0.102-1.675-0.072-2.382-0.313c-0.121-0.041-0.217-0.067-0.302-0.088c0.024-0.111,0.022-0.271-0.034-0.514
	c-1.083-4.746,0.679-6.131,5.23-6.455c6.123-0.438,12.342,0.005,18.51-0.346c5.067,0.364,10.227,0.233,15.181,0.749
	c10.618,1.104,21.169-0.191,31.774-0.428c4.74-0.105,9.516-0.052,14.258,0.059c5.579,0.132,10.877-0.606,16.409-0.759
	c11.027-0.305,22.114,0.021,33.147,0.021c5.92,0,11.838,0.02,17.758,0c3.763-0.013,7.326,1.009,11.017,0.374
	c9.784-1.684,19.834,0.357,29.699,0.35c5.686-0.003,11.381,0.118,17.064-0.044c3.026,0.483,6.076,0.788,9.104,0.822
	c4.681,0.053,9.253-0.273,13.909-0.492c2.192-0.103,4.05-0.023,5.906-0.25c4.006,0.019,8.015-0.038,12.018-0.036
	c9.865,0.006,19.914-2.034,29.699-0.35c3.69,0.635,7.253-0.386,11.017-0.374c5.92,0.02,11.838,0,17.758,0
	c11.032,0.001,22.119-0.324,33.145-0.021c5.534,0.152,10.831,0.891,16.409,0.759c4.741-0.111,9.516-0.165,14.258-0.059
	c10.604,0.236,21.155,1.532,31.774,0.428c4.955-0.516,10.114-0.384,15.181-0.749C460.408,407.631,466.628,407.188,472.749,407.625z
	 M452.49,384.265c-1.009-6.963-0.078-13.666,0.564-20.571c0.101-1.078,0.096-2.023-0.005-2.87c0.53,0.012,1.031-0.019,1.422-0.06
	c2.68-0.284,5.417-0.236,8.118-0.17c-0.213,5.84-0.532,11.826,0.24,17.493c0.589,4.327,0.117,7.856-0.249,12.188
	c-0.093,1.091-0.34,6.697,0.899,7.034c-0.703,0.568-1.657,0.963-2.988,1.177c-2.444,0.394-5.052,0.6-7.614,0.669
	C453.669,394.266,453.185,389.062,452.49,384.265z M414.412,384.88c-0.051-6.651,0.17-13.299,0.121-19.948
	c-0.014-1.92-0.695-4.843,0.108-6.58c0.759-1.643,3.242-3.193,4.574-4.562c2.056-2.112,4.474-3.651,6.654-5.605
	c2.159-1.935,2.901-3.113,5.5-1.164c4.171,3.126,7.854,6.971,12.131,10.042c3.381,2.427,4.291,4.036,3.648,8.265
	c-0.333,2.189-0.735,4.248-0.739,6.478c-0.014,5.588,0.959,11.003,1.295,16.488c0.227,3.722,0.452,7.301,1.219,10.875
	c-9.948-0.161-19.837,1.043-29.843,0.71c-1.672-0.056-3.343-0.115-5.014-0.174C414.645,394.783,414.45,389.869,414.412,384.88z
	 M446.795,353.369c-3.746-2.159-7.275-5.041-10.507-7.909c-1.578-1.4-2.948-3.252-4.862-4.222
	c-4.378-2.221-8.256,2.309-11.558,4.723c-2.657,1.941-4.778,4.339-7.206,6.529c-1.439,1.299-2.719,2.067-3.425,3.803
	c-2.117,0.125-4.364-0.524-6.447-0.272c-1.43,0.173-3.183,0.27-4.43,1.003c-1.071-1.367-2.659-2.46-4.733-3.654
	c-3.746-2.159-7.275-5.041-10.507-7.909c-1.578-1.4-2.948-3.252-4.862-4.222c-4.378-2.221-8.256,2.309-11.558,4.723
	c-2.657,1.941-4.78,4.339-7.206,6.529c-1.388,1.253-2.63,2.007-3.35,3.616c-2.073,0.082-4.117,0.29-6.192,0.353
	c-1.545,0.047-3.298-0.015-4.734,0.598c-1.071-1.382-2.668-2.483-4.758-3.687c-3.746-2.159-7.275-5.041-10.507-7.909
	c-1.578-1.4-2.948-3.252-4.862-4.222c-4.378-2.221-8.256,2.309-11.558,4.723c-2.657,1.941-4.778,4.339-7.206,6.529
	c-0.662,0.598-1.287,1.083-1.842,1.599c-1.93-0.802-4.011-0.577-6.104-0.565c-0.906,0.005-1.786,0.093-2.621,0.305
	c-0.476-0.635-1.087-1.227-1.886-1.795c-3.827-2.723-7.908-4.413-11.383-7.825c-2.533-2.485-4.286-5.368-8.023-5.961
	c-4.359-0.692-9.169,0.746-13.527,0.805c-1.731,0.023-3.361,0.03-4.944,0.169c-1.584-0.139-3.214-0.146-4.944-0.169
	c-4.358-0.059-9.168-1.497-13.527-0.805c-3.736,0.593-5.49,3.476-8.023,5.961c-3.476,3.41-7.557,5.102-11.383,7.825
	c-1.082,0.771-1.834,1.58-2.336,2.492c-0.71-0.09-1.431-0.222-2.134-0.234c-0.881-0.015-1.703,0.268-2.563,0.359
	c-0.922,0.097-1.878-0.058-2.788,0.193c-0.019,0.005-0.034,0.015-0.051,0.02c-0.701-0.857-1.604-1.494-2.58-2.374
	c-2.427-2.19-4.55-4.588-7.206-6.529c-3.303-2.414-7.182-6.944-11.559-4.723c-1.914,0.971-3.284,2.823-4.862,4.222
	c-3.232,2.868-6.761,5.749-10.507,7.909c-1.614,0.93-2.933,1.799-3.945,2.782c-0.317-0.143-0.678-0.24-1.091-0.268
	c-2.293-0.154-4.751-0.273-7.044-0.239c-1.277,0.02-2.514,0.041-3.709,0.254c-0.731-1.463-1.918-2.214-3.243-3.41
	c-2.427-2.19-4.55-4.588-7.206-6.529c-3.303-2.414-7.182-6.944-11.559-4.723c-1.914,0.971-3.284,2.823-4.862,4.222
	c-3.232,2.868-6.761,5.749-10.507,7.909c-2.225,1.281-3.894,2.444-4.96,3.956c-1.546-0.576-3.518-0.251-5.2-0.225
	c-1.602,0.026-3.368,0.246-5.033,0.693c-0.048-0.295-0.109-0.586-0.19-0.869c-0.631-2.21-2.045-2.987-3.65-4.435
	c-2.427-2.19-4.55-4.588-7.206-6.529c-3.303-2.414-7.182-6.944-11.558-4.723c-1.914,0.971-3.284,2.823-4.862,4.222
	c-3.232,2.868-6.761,5.749-10.507,7.909c-2.386,1.374-4.131,2.614-5.179,4.293c-1.842-0.724-4.474-0.439-6.157-0.312
	c-1.525,0.116-3.042-0.013-4.554-0.028c-0.013-0.591-0.029-1.183-0.035-1.769c-0.072-8.26-0.05-16.559-0.385-24.812
	c-0.038-0.95-0.103-1.884-0.162-2.821c6.348,1.399,13.361,1.752,19.688,1.556c0.479-0.015,0.955-0.046,1.432-0.068
	c0.484,0.027,0.968,0.063,1.452,0.079c3.623,0.13,7.075-0.594,10.666-0.652c3.975-0.064,7.871,0.732,11.833,0.83
	c8.871,0.216,17.473-0.684,26.311,0.561c8.082,1.137,16.579-0.637,24.726-0.565c4.425,0.039,8.841-0.313,13.254,0.068
	c3.896,0.336,7.694,0.798,11.62,0.609c9.028-0.432,17.957-0.707,27.012-0.729c9.256-0.022,18.514-0.068,27.769-0.044
	c4.973,0.014,9.679,0.156,14.353-0.24c5.702,0.345,11.41,0.769,17.077,0.526c9.981-0.429,21.026,1.922,30.929-0.284
	c0.217-0.001,0.431-0.002,0.649-0.003c9.256-0.025,18.514,0.022,27.769,0.044c9.055,0.021,17.983,0.295,27.012,0.729
	c3.927,0.189,7.725-0.272,11.62-0.609c4.412-0.381,8.828-0.029,13.253-0.068c8.148-0.072,16.645,1.703,24.726,0.565
	c8.838-1.244,17.439-0.344,26.311-0.561c3.962-0.096,7.857-0.893,11.833-0.83c3.591,0.058,7.043,0.782,10.667,0.652
	c0.483-0.017,0.967-0.052,1.452-0.079c0.477,0.022,0.954,0.053,1.432,0.068c6.328,0.196,13.34-0.159,19.688-1.556
	c-0.059,0.937-0.124,1.871-0.162,2.821c-0.321,7.937-0.315,15.917-0.378,23.863c-1.469,0.028-2.891,0.149-4.343,0.446
	c-1.561,0.319-3.055,0.241-4.576,0.81c-0.612,0.228-1.626,0.483-2.506,0.885C450.237,355.506,448.725,354.483,446.795,353.369z
	 M399.322,384.265c-1.009-6.963-0.078-13.666,0.564-20.571c0.075-0.811,0.086-1.542,0.046-2.219
	c1.409,0.197,2.877-0.015,4.425,0.102c1.462,0.11,2.94,0.311,4.412,0.363c0.041,0.679,0.081,1.349,0.087,1.984
	c0.035,3.803,0.036,7.606,0.085,11.41c0.101,7.902,0.767,16.3-0.425,24.175c-2.938-0.108-5.877-0.216-8.814-0.322
	C400.504,394.288,400.02,389.072,399.322,384.265z M361.244,384.88c-0.051-6.651,0.169-13.299,0.12-19.948
	c-0.014-1.92-0.695-4.843,0.108-6.58c0.759-1.643,3.242-3.193,4.574-4.562c2.056-2.112,4.474-3.651,6.654-5.605
	c2.159-1.935,2.901-3.113,5.5-1.164c4.171,3.126,7.854,6.971,12.131,10.042c3.381,2.427,4.291,4.036,3.648,8.265
	c-0.333,2.189-0.735,4.248-0.739,6.478c-0.014,5.588,0.959,11.003,1.295,16.488c0.225,3.678,0.45,7.217,1.195,10.75
	c-10.996-0.386-21.99-0.704-33.005-0.718c-0.558,0-1.118,0-1.677,0C361.449,393.863,361.279,389.402,361.244,384.88z
	 M346.156,384.265c-1.009-6.963-0.078-13.666,0.564-20.571c0.08-0.857,0.087-1.625,0.038-2.332c1.204,0.2,2.491,0.17,3.62,0.169
	c1.329-0.001,2.628-0.292,3.953-0.293c0.425,0,0.831,0.016,1.233,0.027c0.049,0.913,0.118,1.813,0.126,2.659
	c0.035,3.803,0.036,7.606,0.085,11.41c0.095,7.506,0.715,15.465-0.243,22.993c-2.949-0.001-5.897-0.002-8.845-0.001
	C347.298,393.681,346.812,388.789,346.156,384.265z M308.077,384.88c-0.051-6.651,0.17-13.299,0.121-19.948
	c-0.014-1.92-0.695-4.843,0.108-6.58c0.759-1.643,3.242-3.193,4.575-4.562c2.055-2.112,4.474-3.651,6.654-5.605
	c2.159-1.935,2.901-3.113,5.501-1.164c4.171,3.126,7.854,6.971,12.131,10.042c3.381,2.427,4.291,4.036,3.648,8.265
	c-0.333,2.189-0.735,4.248-0.739,6.478c-0.014,5.588,0.959,11.003,1.294,16.488c0.21,3.427,0.425,6.735,1.056,10.028
	c-3.351,0-6.701-0.002-10.052-0.002c-4.598,0-9.141,0.107-13.714,0.316c-3.205,0.147-6.51-0.616-9.884-0.593
	c-0.29,0.002-0.579,0.012-0.869,0.015C308.276,393.686,308.111,389.313,308.077,384.88z M297.017,389.747
	c-1.134-5.411-0.826-10.674-0.85-16.204c-0.01-2.43-0.149-4.848-0.187-7.275c-0.039-2.621,0.73-4.879,0.949-7.42
	c0.384-0.012,0.771-0.021,1.155,0.001c1.05,0.058,2.105,0.031,3.154,0.096c0.399,0.024,0.769,0.078,1.131,0.124
	c-0.068,1.624,0.141,3.328,0.155,4.853c0.035,3.803,0.036,7.606,0.085,11.41c0.095,7.467,0.711,15.38-0.226,22.872
	c-1.605,0.063-3.206,0.14-4.809,0.22C298.066,395.652,297.558,392.328,297.017,389.747z M223.446,355.842
	c2.651-1.998,5.598-3.643,8.177-5.826c3.226-2.73,4.609-5.993,9.086-6.168c3.033-0.119,6.296,0.264,9.46,0.47
	c1.991,0.623,3.85,0.482,5.829,0.305c1.978,0.178,3.839,0.319,5.829-0.305c3.163-0.206,6.426-0.59,9.46-0.47
	c4.477,0.175,5.862,3.438,9.086,6.168c2.579,2.183,5.526,3.828,8.177,5.826c3.205,2.414,1.275,6.686,1.338,10.427
	c0.064,3.818,0.199,7.628,0.203,11.449c0.007,7.221,0.701,14.175,3.052,20.927c-4.196,0.212-8.392,0.401-12.611,0.409
	c-16.417,0.03-32.625,0.031-49.065,0c-4.219-0.008-8.416-0.197-12.611-0.409c2.351-6.753,3.045-13.707,3.052-20.927
	c0.003-3.821,0.138-7.631,0.203-11.449C222.172,362.526,220.242,358.255,223.446,355.842z M214.978,389.747
	c-0.541,2.58-1.049,5.906-0.557,8.676c-1.602-0.08-3.204-0.158-4.809-0.22c-0.936-7.492-0.321-15.406-0.226-22.872
	c0.049-3.803,0.05-7.607,0.083-11.41c0.012-1.272,0.159-2.671,0.169-4.044c0.508,0.016,1.001,0.013,1.446,0.003
	c0.773-0.017,1.541-0.275,2.3-0.283c0.593-0.006,1.188,0.13,1.789,0.228c0.295,2.155,0.874,4.161,0.839,6.441
	c-0.036,2.427-0.176,4.846-0.187,7.275C215.806,379.072,216.113,384.335,214.978,389.747z M171.181,365.327
	c-0.643-4.229,0.266-5.837,3.648-8.265c4.278-3.072,7.96-6.916,12.131-10.042c2.6-1.949,3.342-0.771,5.5,1.164
	c2.179,1.954,4.599,3.493,6.654,5.605c1.331,1.368,3.814,2.919,4.575,4.562c0.803,1.738,0.122,4.66,0.108,6.58
	c-0.049,6.65,0.173,13.298,0.121,19.948c-0.034,4.433-0.198,8.806,0.17,13.179c-0.29-0.003-0.578-0.013-0.869-0.015
	c-3.374-0.024-6.679,0.74-9.884,0.593c-4.574-0.21-9.117-0.316-13.714-0.316c-3.351,0-6.702,0.002-10.052,0.002
	c0.63-3.293,0.846-6.601,1.056-10.028c0.335-5.486,1.308-10.901,1.294-16.488C171.916,369.575,171.515,367.516,171.181,365.327z
	 M165.31,398.323c-2.949,0-5.897,0-8.845,0.001c-0.958-7.528-0.34-15.486-0.243-22.993c0.049-3.803,0.05-7.607,0.085-11.41
	c0.009-0.998,0.102-2.073,0.148-3.152c0.959,0.1,1.948,0.115,3.001,0.189c1.963,0.139,3.828,0.454,5.78,0.468
	c-0.043,0.689-0.034,1.436,0.044,2.266c0.642,6.906,1.575,13.609,0.564,20.571C165.184,388.789,164.698,393.681,165.31,398.323z
	 M118.015,365.327c-0.643-4.229,0.267-5.837,3.648-8.265c4.278-3.072,7.96-6.916,12.131-10.042c2.6-1.949,3.342-0.771,5.501,1.164
	c2.179,1.954,4.599,3.493,6.654,5.605c1.331,1.368,3.814,2.919,4.574,4.562c0.803,1.738,0.122,4.66,0.108,6.58
	c-0.049,6.65,0.173,13.298,0.121,19.948c-0.035,4.523-0.205,8.983,0.194,13.445c-0.558,0-1.118,0-1.677,0
	c-11.016,0.014-22.009,0.333-33.005,0.718c0.746-3.532,0.971-7.073,1.196-10.75c0.335-5.486,1.308-10.901,1.295-16.488
	C118.748,369.575,118.347,367.516,118.015,365.327z M112.292,399.184c-2.937,0.107-5.876,0.214-8.814,0.322
	c-1.191-7.873-0.525-16.273-0.425-24.175c0.049-3.803,0.05-7.607,0.085-11.41c0.006-0.581,0.039-1.188,0.076-1.806
	c1.584,0.19,3.159-0.014,4.993,0.039c1.236,0.036,2.595,0.262,3.836,0.174c0.005,0.433,0.021,0.881,0.066,1.364
	c0.642,6.906,1.573,13.609,0.564,20.571C111.976,389.072,111.491,394.288,112.292,399.184z M64.847,365.327
	c-0.643-4.229,0.267-5.837,3.648-8.265c4.278-3.072,7.96-6.916,12.131-10.042c2.6-1.949,3.342-0.771,5.501,1.164
	c2.179,1.954,4.599,3.493,6.654,5.605c1.331,1.368,3.814,2.919,4.574,4.562c0.803,1.738,0.122,4.66,0.108,6.58
	c-0.049,6.65,0.173,13.298,0.12,19.948c-0.038,4.99-0.234,9.903,0.345,14.825c-1.671,0.059-3.342,0.119-5.014,0.174
	c-10.008,0.333-19.895-0.871-29.843-0.71c0.767-3.573,0.992-7.154,1.219-10.875c0.335-5.486,1.308-10.901,1.295-16.488
	C65.582,369.575,65.18,367.516,64.847,365.327z M59.119,399.154c-2.562-0.07-5.169-0.275-7.614-0.669
	c-1.331-0.214-2.285-0.609-2.988-1.177c1.239-0.336,0.992-5.943,0.899-7.034c-0.366-4.331-0.838-7.861-0.249-12.188
	c0.694-5.104,0.503-10.466,0.302-15.748c1.838,0.08,3.699-0.196,5.547-0.292c0.494-0.025,2.236,0.029,3.858-0.19
	c-0.015,0.57,0.005,1.178,0.066,1.838c0.642,6.906,1.575,13.609,0.564,20.571C58.81,389.062,58.326,394.266,59.119,399.154z
	 M463.319,320.173c0.147,1.416,0.161,2.81,0.122,4.201c-4.592-0.678-9.44,0.098-14.193,0.474c-3.46,0.008-6.917-0.039-10.341-0.202
	c-3.814-0.181-7.238-1.101-11.11-0.957c-3.913,0.146-7.74,0.771-11.666,0.715c-7.73-0.11-15.605-0.919-23.283,0.312
	c-8.425,1.351-17.179-0.433-25.69-0.351c-4.428,0.043-8.84-0.29-13.253,0.105c-3.908,0.35-7.686,0.822-11.62,0.644
	c-8.647-0.388-17.189-0.653-25.862-0.649c-11.052,0.006-22.08,0.137-33.106,0.358c-3.831-0.326-7.764-0.111-11.536-0.097
	c-5.182,0.019-10.493-0.535-15.62-0.195c-5.613,0.372-11.196-0.129-16.826,0.051c-2.025,0.065-4.359,0.03-6.591,0.324
	c-12.379-0.277-24.76-0.433-37.168-0.44c-8.673-0.005-17.215,0.26-25.862,0.649c-3.935,0.177-7.712-0.294-11.62-0.644
	c-4.415-0.395-8.826-0.063-13.254-0.105c-8.513-0.082-17.266,1.702-25.69,0.351c-7.676-1.231-15.553-0.422-23.283-0.312
	c-3.926,0.056-7.754-0.569-11.666-0.715c-3.871-0.144-7.295,0.776-11.11,0.957c-3.424,0.162-6.881,0.21-10.341,0.202
	c-4.752-0.375-9.6-1.153-14.193-0.474c-0.039-1.392-0.025-2.785,0.122-4.201c0.273-2.645,0.212-4.914-0.364-7.363
	c5.987,0.078,11.975,0.132,17.963,0.154c10.784,0.041,21.74-0.542,32.449,0.581c5.066,0.531,10.113-0.497,15.214-0.49
	c5.281,0.008,10.57,0.086,15.851,0.015c9.864-0.13,19.678-1.166,29.609-0.641c9.427,0.499,18.786,0.483,28.244,0.702
	c13.917,0.322,27.826,0.97,41.633-0.103c1.39,0.117,2.788,0.229,4.226,0.253c7.11,0.114,14.135-0.014,21.218-0.443
	c6.033-0.366,12.086-0.581,18.115-0.899c17.042,2.5,34.274,1.591,51.519,1.191c9.458-0.218,18.817-0.203,28.244-0.702
	c9.931-0.525,19.745,0.511,29.608,0.641c5.28,0.071,10.57-0.007,15.851-0.015c5.101-0.007,10.149,1.021,15.214,0.49
	c10.71-1.124,21.665-0.541,32.449-0.581c5.988-0.023,11.976-0.076,17.963-0.154C463.107,315.259,463.044,317.528,463.319,320.173z
	 M477.125,305.834c-11.207-0.226-22.425-0.279-33.636-0.305c-10.771-0.024-21.425-0.049-32.128,0.714
	c-4.295,0.306-8.956-0.777-13.306-0.787c-5.281-0.01-10.571,0.049-15.851-0.041c-9.524-0.16-19.019-1.123-28.613-0.783
	c-9.462,0.335-18.881,0.567-28.374,0.735c-9.439,0.168-18.916,0.933-28.397,1.126c-0.06-0.026-0.108-0.063-0.175-0.08
	c-5.829-1.56-12.858-1.52-18.825-0.993c-3.899,0.344-7.83,0.558-11.765,0.762c-8.664-1.045-17.632-1.18-26.216-0.174
	c-3.402-0.115-6.81-0.204-10.191-0.236c-4.576-0.044-9.045,0.823-13.602,0.749c-9.772-0.162-19.54-0.98-29.267-1.153
	c-9.494-0.169-18.912-0.401-28.374-0.735c-9.594-0.34-19.088,0.623-28.613,0.783c-5.28,0.088-10.57,0.029-15.851,0.041
	c-4.351,0.009-9.011,1.093-13.306,0.787c-10.703-0.762-21.357-0.738-32.128-0.714c-11.209,0.025-22.428,0.079-33.634,0.305
	c-1.615,0.032-3.23-0.021-4.844-0.09c1.664-0.786,3.162-1.528,4.387-2.129c8.515-4.168,17.47-10.137,24.597-16.387
	c3.911-3.429,6.57-7.686,9.914-11.595c1.86-2.175,3.57-4.126,3.461-6.766c2.162,0.261,4.44,0.21,6.224,0.371
	c18.605,1.68,37.513,0.492,56.165,0.663c8.708,0.079,17.393,0.71,26.134,0.698c9.191-0.013,18.383,0.014,27.573-0.079
	c8.519-0.087,16.877-2.008,25.316-1.801c7.525,0.185,15.229-0.55,22.813-1.087c6.16,0.465,12.377,0.367,18.596,0.448
	c5.134,0.067,10.221-0.322,15.348-0.374c2.036-0.021,4.147,0.049,6.257,0.029c7.121,0.521,14.331,1.158,21.384,0.985
	c8.439-0.209,16.797,1.714,25.316,1.801c9.191,0.094,18.383,0.066,27.573,0.079c8.741,0.013,17.428-0.619,26.134-0.698
	c18.653-0.169,37.561,1.017,56.165-0.663c1.784-0.161,4.062-0.11,6.224-0.371c-0.109,2.639,1.6,4.591,3.461,6.766
	c3.344,3.911,6.003,8.166,9.914,11.595c7.127,6.249,16.083,12.218,24.597,16.387c1.225,0.6,2.723,1.343,4.387,2.129
	C480.356,305.813,478.74,305.868,477.125,305.834z M505.53,302.021c-1.213,6.033-7.689,3.989-11.67,2.432
	c-5.357-2.095-10.418-4.32-15.411-7.315c-6.992-4.193-14.574-9.295-20.699-14.675c-4.719-4.145-7.844-9.789-12.128-14.363
	c0.955,0.078,1.882,0.175,2.743,0.342c3.137,0.605,4.98,3.287,7.469,5.154c2.776,2.081,5.663,3.969,8.496,5.966
	c10.424,7.354,22.255,13.803,34.695,17.065C502.216,297.465,506.42,297.598,505.53,302.021z M506.522,285.78
	c-0.673,1.521-1.447,3.016-2.13,4.543c-1.71-0.631-3.512-1.087-5.087-1.618c-0.732-0.247-1.456-0.506-2.182-0.762
	c1.373-2.375,2.082-5.949,3.152-7.44c0.612-0.853,1.327-1.766,2.672-1.483c0.635,0.134,1.591,0.945,2.057,1.35
	C506.784,281.92,507.475,283.623,506.522,285.78z"/>
<g>
</g>
<g>
</g>
<g>
</g>
<g>
</g>
<g>
</g>
<g>
</g>
<g>
</g>
<g>
</g>
<g>
</g>
<g>
</g>
<g>
</g>
<g>
</g>
<g>
</g>
<g>
</g>
<g>
</g>
</svg>
