<?xml version="1.0" encoding="iso-8859-1"?>
<!-- Generator: Adobe Illustrator 19.0.0, SVG Export Plug-In . SVG Version: 6.00 Build 0)  -->
<svg version="1.1" id="Layer_1" xmlns="http://www.w3.org/2000/svg" xmlns:xlink="http://www.w3.org/1999/xlink" x="0px" y="0px"
	 viewBox="0 0 511.994 511.994" style="enable-background:new 0 0 511.994 511.994;" xml:space="preserve">
<path style="fill:#EAB15E;" d="M167.209,331.154c-0.32,0.365-0.64,0.73-0.96,1.097c-0.585,0.668-1.514,1.394-2.252,0.901
	c-0.423-0.283-0.539-0.85-0.549-1.358c-0.032-1.767,0.784-3.446,0.915-5.209c0.131-1.763-0.893-3.903-2.66-3.885
	c-1.558,0.016-2.541,1.632-3.212,3.039c-1.696,3.552-3.393,7.105-5.088,10.657c-0.321,0.671-0.68,1.384-1.333,1.74
	c-1.108,0.603-2.548-0.158-3.178-1.25c-0.631-1.092-0.698-2.405-0.873-3.654s-0.532-2.582-1.531-3.354
	c-1.711-1.322-4.368-0.178-5.504,1.662c-1.137,1.84-1.253,4.103-1.624,6.234c-0.238,1.359-0.619,2.753-1.53,3.791
	s-2.476,1.61-3.72,1.011c-0.945-0.455-1.493-1.442-2.003-2.359c-1.076-1.937-2.293-3.877-4.097-5.161
	c-1.806-1.284-4.34-1.771-6.252-0.65c-2.416,1.417-2.918,4.601-3.925,7.216c-0.42,1.089-1.121,2.252-2.27,2.453
	c-1.294,0.226-2.464-0.935-2.883-2.18s-0.34-2.6-0.586-3.89c-0.247-1.29-0.986-2.652-2.265-2.956
	c-1.488-0.354-2.909,0.913-3.552,2.3c-0.644,1.387-0.823,2.965-1.547,4.312c-0.724,1.347-2.339,2.453-3.742,1.843
	c-0.873-0.38-1.377-1.296-1.719-2.185c-0.662-1.722-0.978-3.609-2.003-5.143c-1.025-1.534-3.133-2.601-4.734-1.684
	c-2.298,1.317-2.119,5.686-4.753,5.964c-2.461,0.259-2.654-2.484-3.32-4.073c-0.546-1.302-1.606-3.187-2.693-4.061
	c-1.388-1.116-3.507-0.915-4.996,0.061c-1.49,0.976-2.457,2.569-3.216,4.181c-0.757,1.612-1.361,3.311-2.358,4.787
	c-0.666,0.986-1.822,1.944-2.932,1.513c-1.434-0.557-1.268-2.731-2.335-3.839c-0.757-0.787-2.031-0.871-3.055-0.493
	c-1.025,0.377-1.859,1.13-2.668,1.865c-1.199,1.092-2.398,2.185-3.597,3.277c-0.418,0.38-0.875,0.778-1.435,0.836
	c-0.793,0.081-1.512-0.588-1.739-1.352c-0.227-0.764-0.075-1.586,0.134-2.355c0.436-1.608,1.113-3.187,1.113-4.852
	c-0.001-1.666-0.948-3.502-2.585-3.81c-1.645-0.311-3.118,0.979-4.297,2.168c-1.256,1.268-2.513,2.536-3.769,3.805
	c-0.611,0.617-1.387,1.287-2.236,1.097c-1.076-0.242-1.374-1.692-1.048-2.745c0.326-1.053,1.039-1.985,1.174-3.079
	c0.343-2.794-2.941-4.095-5.203-3.24c-2.328,0.88-4.438,3.897-5.637,5.948c-0.366,0.626-0.722,1.302-1.335,1.688
	c-0.613,0.386-1.579,0.323-1.901-0.326c-0.158-0.32-0.127-0.696-0.092-1.05c0.242-2.463,0.483-4.925,0.725-7.388
	c-2.365,0.171-4.503,1.59-6.037,3.397c-1.534,1.808-2.55,3.989-3.514,6.157c-0.526,1.182-1.426,2.589-2.699,2.355
	c-1.011-0.186-1.52-1.364-1.537-2.392c-0.017-1.028,0.282-2.06,0.114-3.074c-0.169-1.014-1.093-2.038-2.085-1.767
	c-0.591,0.161-0.978,0.713-1.313,1.226c-0.969,1.483-1.937,2.966-2.907,4.45c-0.433,0.662-1.059,1.415-1.837,1.267
	c-0.929-0.176-1.119-1.406-1.096-2.352c0.096-3.819,0.384-7.545-0.01-11.33c-0.403-3.861-0.745-7.734-0.793-11.619
	c-0.228-18.533-0.412-37.066-0.516-55.599c-0.061-11.032-0.095-22.064-0.091-33.095c0.002-9.404-1.115-19.851,3.495-28.463
	c0.745-1.392,1.731-2.784,3.209-3.341c1.847-0.697,3.97,0.13,5.446,1.443c1.931,1.719,3.067,4.203,3.518,6.748
	c0.45,2.545,0.262,5.163-0.127,7.719c-0.197,1.297-0.353,2.858,0.659,3.694c0.609,0.502,1.469,0.561,2.254,0.48
	c2.167-0.225,4.22-1.388,5.526-3.133c1.457-1.945,1.563-4.414,2.137-6.694c0.673-2.672,0.828-5.353,2.004-7.898
	c0.788-1.706,1.943-3.374,3.677-4.101c2.326-0.975,5.065,0.03,6.999,1.65c3.258,2.729,4.929,7.232,4.239,11.425
	c-0.227,1.38-0.688,2.716-0.876,4.101c-0.188,1.385-0.069,2.893,0.757,4.021c1.328,1.816,4.161,2.01,6.089,0.85
	c1.928-1.16,3.047-3.327,3.584-5.513c0.537-2.185,0.586-4.457,0.913-6.684c0.364-2.476,1.078-4.9,2.113-7.178
	c0.596-1.312,1.444-2.697,2.837-3.065c1.292-0.342,2.628,0.31,3.741,1.048c6.488,4.306,9.515,11.832,9.926,19.325
	c0.335,6.119,0.405,12.25,0.563,18.376c0.071,2.751-0.698,5.451-0.76,8.233c-0.063,2.829,0.217,5.666,0.838,8.426
	c0.34,1.509,0.958,3.196,2.407,3.736c0.909,0.338,1.945,0.119,2.806-0.327c2.562-1.329,3.738-4.351,4.235-7.194
	c0.497-2.843,0.551-5.829,1.789-8.435c1.239-2.607,4.208-4.731,6.934-3.788c1.435,0.497,2.494,1.727,3.285,3.023
	c1.781,2.921,2.541,6.452,2.117,9.847c-0.148,1.186-0.436,2.362-0.426,3.556c0.01,1.196,0.37,2.46,1.287,3.227
	c1.225,1.023,3.158,0.84,4.437-0.116s1.986-2.509,2.324-4.068c0.337-1.56,0.354-3.169,0.54-4.754
	c0.352-3.001,1.322-5.929,2.83-8.547c0.588-1.021,1.354-2.069,2.493-2.375c1.178-0.317,2.409,0.253,3.415,0.944
	c3.937,2.703,6.247,7.608,5.823,12.366c-0.163,1.822-0.58,3.976,0.764,5.215c1.234,1.138,3.278,0.716,4.633-0.273
	c2.811-2.05,2.759-5.017,3.173-8.117c0.425-3.182,1.287-6.411,3.543-8.812c0.799-0.85,1.838-1.597,3.005-1.59
	c0.953,0.006,1.829,0.513,2.584,1.093c3.042,2.342,4.855,6.198,4.716,10.035c-0.061,1.701-0.481,3.387-0.379,5.086
	c0.102,1.699,0.893,3.522,2.474,4.154c1.683,0.673,3.681-0.303,4.692-1.809c1.011-1.505,1.238-3.397,1.283-5.21
	c0.045-1.813-0.062-3.655,0.387-5.412c0.597-2.33,2.127-4.313,3.821-6.02c0.941-0.948,2.103-1.892,3.435-1.8
	c1.319,0.09,2.333,1.158,3.204,2.152c1.444,1.648,2.942,3.397,3.392,5.542c0.305,1.45,0.099,2.952-0.057,4.425
	c-0.157,1.473-0.257,3.004,0.24,4.4c0.498,1.396,1.744,2.627,3.226,2.656c1.138,0.022,2.197-0.664,2.907-1.553
	c1.47-1.842,1.734-3.648,1.979-5.871c0.281-2.545,0.887-5.057,1.798-7.45c0.651-1.711,1.726-3.576,3.535-3.856
	c1.254-0.194,2.482,0.459,3.495,1.223c3.701,2.789,5.917,7.447,5.744,12.078c-0.056,1.51-0.285,3.224,0.728,4.346
	c1.089,1.205,2.991,1.039,4.593,0.777c1.618-0.265,3.263-0.538,4.733-1.264c5.418-2.673,3.31-9.178,4.337-13.948
	c0.952-4.421,1.288-9.028,0.453-13.48c-0.635-3.383-0.285-9.545-5.13-9.849c-1.312-0.082-2.868,0.431-3.788-0.507
	c-0.576-0.587-0.609-1.501-0.606-2.323c0.004-1.471,0.011-2.961,0.38-4.385c0.369-1.424,1.143-2.8,2.384-3.591
	c1.489-0.949,3.417-0.94,4.959-1.799c2.244-1.251,2.505-3.705,2.652-6.009c0.18-2.823,0.007-5.566,0.475-8.386
	c0.364-2.19-0.301-4.404,0.114-6.649c0.415-2.256,1.371-4.417,2.814-6.204c1.082-1.339,2.543-2.531,4.261-2.656
	c2.002-0.146,3.826,1.188,5.107,2.733c2.495,3.011,3.646,7.095,3.092,10.965c-0.279,1.946-0.945,4.036-0.053,5.789
	c1.101,2.166,4.27,2.612,6.348,1.353c2.078-1.258,3.164-3.704,3.545-6.104c0.381-2.399,0.179-4.85,0.337-7.274
	c0.157-2.424,0.739-4.951,2.392-6.732c2.221-2.391,6.086-2.853,9.03-1.446s4.944,4.409,5.597,7.606
	c0.717,3.507-0.032,7.121-0.383,10.683c-0.138,1.408-0.127,3.044,0.951,3.962c0.704,0.599,1.689,0.721,2.613,0.743
	c3.348,0.077,9.323-0.758,10.303-4.527c1.015-3.908-1.373-7.794-0.626-11.727c0.548-2.884,3.07-4.909,5.418-6.669
	c1.196-0.896,2.55-1.839,4.036-1.682c1.49,0.157,2.625,1.373,3.521,2.574c2.978,3.999,5.467,9.011,4.947,14.098
	c-0.215,2.099-0.225,4.505,1.305,5.958c1.288,1.224,3.395,1.326,4.967,0.499s2.631-2.434,3.119-4.143
	c0.488-1.708,0.462-3.522,0.296-5.29c-0.19-2.032-0.541-4.186,0.33-6.033c0.669-1.419,1.962-2.425,3.209-3.377
	c1.259-0.961,2.693-1.973,4.267-1.794c0.945,0.108,1.786,0.639,2.541,1.218c8.728,6.684,6.71,17.646,6.746,27.286
	c0.003,0.929,0.033,1.936,0.618,2.658c0.922,1.139,2.656,0.985,4.085,1.312c3.257,0.744,5.692,5.532,4.688,8.754
	c-1.171,3.754-6.587,1.27-8.954,3.365c-1.345,1.191-1.343,3.253-1.235,5.047c0.509,8.493,1.019,16.988,1.528,25.481
	c0.075,1.24,0.163,2.53,0.777,3.61c0.932,1.639,2.919,2.444,4.804,2.47c1.545,0.021,5.203-0.294,6.482-1.339
	c1.719-1.405,1.355-5.039,1.48-6.993c0.143-2.247,0.109-4.546,0.818-6.684c0.709-2.137,2.365-4.14,4.59-4.488
	c2.816-0.441,5.343,1.847,6.8,4.297c2.075,3.493,2.949,7.672,2.515,11.711c-0.125,1.162-0.286,2.526,0.571,3.32
	c0.697,0.647,1.789,0.607,2.704,0.347c2.405-0.681,4.779-2.919,5.18-5.471c0.467-2.97-1.155-5.932,0.067-8.883
	c0.938-2.265,3.231-3.611,5.376-4.797c0.567-0.313,1.165-0.635,1.813-0.638c1.187-0.004,2.091,1.035,2.738,2.031
	c2.592,3.988,3.884,8.807,3.633,13.557c-0.069,1.316-0.13,2.907,0.966,3.64c0.52,0.347,1.185,0.394,1.806,0.328
	c1.979-0.209,3.665-1.503,4.626-3.211c1.047-1.861,0.422-3.928,0.467-6.006c0.082-3.787,2.349-7.449,5.702-9.21
	c0.876-0.461,1.875-0.804,2.847-0.616c1.237,0.239,2.152,1.273,2.866,2.31c2.197,3.193,3.424,7.045,3.481,10.92
	c0.029,1.945-0.063,4.264,1.522,5.391c1.666,1.184,4.16,0.023,5.098-1.792c1.847-3.569-0.493-7.893,1.322-11.484
	c0.783-1.548,2.256-2.609,3.673-3.606c1.035-0.729,2.144-1.485,3.409-1.557c1.808-0.102,3.397,1.234,4.42,2.728
	c2.493,3.639,2.754,8.357,2.334,12.748c-0.135,1.416-0.255,3.057,0.776,4.038c0.733,0.697,1.854,0.822,2.853,0.661
	c1.814-0.291,3.473-1.432,4.392-3.022c2.289-3.957-1.38-8.681,0.981-12.734c0.838-1.439,2.313-2.367,3.731-3.24
	c1.185-0.728,2.541-1.488,3.89-1.15c1.148,0.287,1.956,1.298,2.586,2.299c1.828,2.909,2.902,6.288,3.09,9.718
	c0.121,2.221,0.048,4.834,1.823,6.176c1.072,0.811,2.551,0.874,3.86,0.576c2.265-0.517,4.278-2.051,5.376-4.097
	c1.194-2.227,0.791-4.601,1.07-7c0.304-2.612,0.039-5.245,0.293-7.866c0.541-5.577-0.184-11.124,0.354-16.635
	c0.516-5.289-1.072-11.283,1.893-16.078c1.186-1.917,2.992-3.355,4.76-4.752c1.028-0.812,2.188-1.667,3.493-1.577
	c1.135,0.078,2.09,0.862,2.866,1.692c4.099,4.381,5.332,10.769,5.13,16.765c-0.043,1.292-0.098,2.73,0.749,3.705
	c0.88,1.012,2.437,1.129,3.732,0.778c3.575-0.968,5.268-4.245,4.677-7.718c-0.42-2.475-1.259-5.026-0.548-7.433
	c0.835-2.826,3.544-4.608,6.057-6.146c1.1-0.673,2.343-1.373,3.605-1.107c1.048,0.222,1.841,1.062,2.517,1.894
	c1.875,2.303,3.89,5.166,4.829,8.012c1.022,3.1,0.663,7.042,0.904,10.304c0.031,0.42,0.072,0.867,0.332,1.199
	c0.451,0.576,1.317,0.542,2.044,0.455c1.993-0.239,4.169-0.569,5.516-2.059c1.522-1.684,1.442-4.213,1.447-6.483
	c0.006-2.309,0.205-4.667,1.119-6.787c0.914-2.121,2.643-3.989,4.872-4.593c3.014-0.816,6.279,0.883,8.138,3.392
	c1.338,1.805,1.899,3.81,2.168,6.004c0.222,1.807,1.064,3.435,1.059,5.32c-0.059,20.549-0.205,41.099-0.395,61.648
	c-0.102,11.049-0.218,22.096-0.341,33.143c-0.061,5.524-0.125,11.047-0.188,16.571c-0.055,4.754,0.014,9.75-1.108,14.411
	c-0.21,0.873-0.469,1.76-1.018,2.47c-0.549,0.709-1.455,1.209-2.336,1.04c-1.318-0.254-1.934-1.733-2.453-2.97
	c-0.519-1.238-1.531-2.625-2.849-2.375c-1.41,0.267-1.763,2.084-1.889,3.514c-0.128,1.43-0.789,3.251-2.222,3.173
	c-1.193-0.063-1.795-1.423-2.217-2.54c-1.031-2.73-2.541-5.279-4.441-7.494c-0.885-1.032-2.293-2.071-3.479-1.407
	c-1.116,0.624-1.073,2.238-0.735,3.469c0.338,1.233,0.799,2.643,0.088,3.704c-0.87,1.297-2.968,1.067-4.124,0.017
	c-1.156-1.05-1.672-2.605-2.353-4.012c-0.68-1.405-1.736-2.831-3.276-3.09c-1.518-0.255-3.039,0.787-3.731,2.162
	s-0.699,2.997-0.472,4.519c0.161,1.081,0.394,2.317-0.302,3.16c-1.384,1.678-2.975-1.52-3.865-2.462
	c-1.339-1.418-2.864-2.791-4.727-3.469c-1.253-0.455-2.84-0.168-3.602,0.926c-0.708,1.018-0.548,2.399-0.193,3.587
	c0.355,1.188,0.88,2.369,0.811,3.607c-0.069,1.238-1.019,2.552-2.256,2.46c-0.86-0.065-1.52-0.752-2.126-1.364
	c-1.03-1.039-2.177-2.002-3.533-2.55c-1.356-0.549-2.952-0.64-4.253,0.027c-1.561,0.801-2.942,2.663-4.604,2.104
	c-1.099-0.37-1.574-1.646-1.785-2.786c-0.426-2.315-2.177-6.244-4.423-7.395c-2.026-1.039-4.557,0.155-6.048,1.877
	c-1.491,1.721-2.343,3.908-3.728,5.716c-0.727,0.948-1.973,1.852-3.02,1.277c-1.444-0.793-0.568-3.065-1.187-4.592
	c-0.581-1.434-2.529-1.916-3.959-1.325c-1.431,0.591-2.398,1.948-3.073,3.341c-0.617,1.275-1.074,2.662-2.015,3.72
	c-0.941,1.058-2.579,1.687-3.795,0.961c-2.154-1.287-0.99-5.143-2.993-6.656c-1.155-0.872-2.89-0.473-3.982,0.477
	c-1.091,0.951-1.708,2.316-2.363,3.606c-0.464,0.915-0.991,1.844-1.827,2.438s-2.065,0.757-2.863,0.111
	c-0.875-0.708-0.899-2.042-0.613-3.131c0.285-1.089,0.803-2.15,0.747-3.275c-0.087-1.739-1.606-3.169-3.294-3.596
	c-1.688-0.429-3.483-0.032-5.101,0.61c-2.877,1.142-5.435,3.078-7.316,5.535c-0.75,0.98-1.498,2.117-2.688,2.443
	c-1.807,0.495-3.553-1.244-3.987-3.066c-0.434-1.823-0.023-3.728-0.055-5.602c-0.031-1.873-0.726-3.989-2.463-4.691
	c-1.312-0.53-2.873-0.053-3.926,0.892c-1.052,0.945-1.671,2.281-2.099,3.63c-0.352,1.109-0.601,2.274-1.223,3.258
	c-0.621,0.984-1.737,1.771-2.886,1.59c-4.146-0.654-2.988-9.794-4.389-12.679c-0.74-1.524-2.524-2.754-4.099-2.127
	c-1.368,0.544-1.936,2.208-1.924,3.681c0.012,1.473,0.431,2.934,0.307,4.401c-0.124,1.467-1.046,3.053-2.511,3.203
	c-1.802,0.186-3.029-1.776-3.572-3.505c-0.691-2.198-1.08-4.574-2.47-6.411c-1.39-1.838-4.274-2.838-6.013-1.325
	c-1.543,1.344-1.343,3.734-1.286,5.78c0.057,2.045-0.598,4.61-2.612,4.974c-1.7,0.307-3.168-1.245-3.915-2.802
	s-1.211-3.356-2.542-4.457c-2.006-1.66-5.573-0.601-6.349,1.885c-0.492,1.578,0.029,3.269,0.139,4.918
	c0.11,1.649-0.478,3.643-2.077,4.066c-1.889,0.5-3.432-1.513-4.259-3.285c-0.827-1.771-1.99-3.898-3.944-3.864
	c-1.555,0.027-2.702,1.516-3.174,3c-0.473,1.483-0.531,3.094-1.186,4.506c-0.655,1.412-2.249,2.608-3.707,2.06
	c-2.725-1.023-1.302-5.988-3.832-7.424c-1.444-0.819-3.309,0.13-4.333,1.436c-1.023,1.307-1.571,2.943-2.631,4.221
	c-1.06,1.278-3.003,2.126-4.375,1.19c-1.345-0.917-1.316-2.869-1.187-4.493c0.128-1.623,0.018-3.613-1.423-4.371
	c-2.455-1.292-5.038,2.603-7.746,2.003c-3.286-0.729-4.197-7.039-5.959-9.387c-1.386-1.846-3.567-3.259-5.871-3.112
	c-2.856,0.183-5.057,2.633-6.34,5.192c-0.679,1.355-1.72,3.073-3.189,2.699c-0.949-0.242-1.441-1.304-1.563-2.275
	c-0.124-0.971-0.014-1.985-0.351-2.905c-0.73-1.993-3.403-2.719-5.371-1.924c-1.969,0.795-3.294,2.669-4.185,4.595
	c-0.892,1.926-1.467,4.002-2.54,5.834c-0.774,1.324-2.366,2.621-3.691,1.848c-0.514-0.301-0.834-0.852-1.316-1.2
	c-1.214-0.875-2.996-0.144-3.934,1.023c-0.936,1.167-1.349,2.662-2.117,3.947c-0.767,1.285-2.161,2.434-3.624,2.122
	c-2.743-0.583-2.575-5.146-5.127-6.311c-1.125-0.513-2.501-0.161-3.474,0.6s-1.611,1.869-2.137,2.988
	c-0.585,1.244-1.334,2.743-2.706,2.826c-1.538,0.091-2.466-1.702-2.658-3.231c-0.192-1.528-0.14-3.271-1.247-4.342
	c-1.374-1.333-3.752-0.756-5.2,0.497c-1.447,1.253-2.363,3.016-3.733,4.351c-0.646,0.629-1.489,1.185-2.383,1.068
	c-1.659-0.218-2.154-2.435-1.806-4.072c0.349-1.637,1.115-3.364,0.458-4.902c-0.589-1.383-2.248-2.108-3.74-1.913
	c-1.491,0.195-2.795,1.151-3.742,2.319c-0.695,0.856-1.235,1.836-1.99,2.641c-0.755,0.804-1.813,1.437-2.908,1.307
	c-1.803-0.214-1.679-1.741-1.63-3.064c0.056-1.472,0.518-2.915,0.48-4.387c-0.038-1.473-0.785-3.104-2.214-3.464
	c-1.638-0.413-3.125,0.985-4.239,2.257C171.643,326.089,169.425,328.622,167.209,331.154z"/>
<path style="fill:#EE2A7B;" d="M166.477,333.868c-0.312,0.905-0.624,1.809-0.935,2.715c0.03-0.4-0.084-0.911,0.121-1.172
	c0.346-0.442,0.894-0.725,1.344-1.089C166.993,334.306,166.477,333.868,166.477,333.868z"/>
<g>
	<path style="fill:#C48A3D;" d="M76.547,250.983c-0.815,1.464,0.001,5.143,0,6.986c-0.001,5.311-0.346,10.604-0.375,15.91
		c-0.045,8.294-0.284,16.602-0.723,24.874c-0.359,6.76,0.081,13.553-0.243,20.313c-0.225,4.688-1.275,9.436-1.043,14.118
		c1.374-0.225,2.136-1.754,3.764-1.908c1.781-0.168,3.438,0.776,4.466,2.092c1.744,2.232,2.254,6.322,4.498,7.972
		c2.132-2.982,5.935-10.099,10.148-5.648c2.226,2.35,3.82,5.97,5.476,8.677c2.081-2.344,2.451-10.554,7.327-8.873
		c3.204,1.105,2.74,5.917,5.069,7.699c2.267-5.496,4.803-11.781,11.809-8.417c3.714,1.784,7.498,5.076,10.455,7.862
		c1.557-2.214,2.004-5.95,3.02-8.523c0.595-1.506,2.558-6.104,4.816-5.77c1.623,0.239,2.058,4.011,2.877,5.214
		c0.846,1.241,1.993,3.052,3.015,4.078c3.369-4.512,5.302-11.781,10.554-14.588c5.928-3.169,2.885,11.531,2.656,13.83
		c1.778-2.925,3.625-5.629,5.938-8.185c1.609-1.778,4.979-6.676,7.901-6.164c5.027,0.882-0.33,11.994,0.442,14.894
		c1.395,0.061,3.268-3.437,4.052-4.407c2.056-2.548,5.28-6.306,8.799-6.89c2.031-0.336,1.768,0.255,1.97,1.844
		c0.251,1.974,0.891,3.425,0.485,5.464c-0.22,1.11-1.475,4.537-0.377,5.5c1.58,1.386,3.312-1.348,4.099-2.329
		c1.532-1.911,2.824-4.006,4.436-5.84c1.201-1.365,2.792-2.555,3.54-4.237c0.985-2.216,0.925-4.957,0.873-7.321
		c-0.119-5.396-0.317-10.794-0.638-16.181c-0.611-10.282-0.373-20.78-0.1-31.067c0.125-4.682,0.194-9.349,0.176-14.035
		c-0.009-2.405,0.631-6.83-1.848-8.061c-1.83-0.909-4.76-0.289-6.686-0.128c-1.081,0.09-4.755,0.976-5.688,0.219
		c-0.671-0.546-0.595-2.902-0.716-3.71c-0.366-2.441-1.034-4.867-1.499-7.293c-0.602-3.142-3.76-6.362-6.544-7.827
		c-1.102,2.188-3.212,3.751-4.554,5.812c-1.512,2.322-1.339,3.827-1.617,6.586c-0.129,1.286-0.198,5.873-1.272,6.873
		c-1.174,1.093-5.95,0.881-7.07,0.035c-1.5-1.133-0.451-1.965-0.357-4.083c0.11-2.483,0.773-5.422,0.562-7.876
		c-0.158-1.835-0.772-2.27-2.274-3.248c-1.59-1.034-3.417-3.196-5.176-3.778c-2.32-0.767-3.609,2.205-5.052,4.055
		c-1.687,2.165-2.352,2.711-1.887,5.179c0.395,2.103,0.825,6.247-0.055,8.276c-0.696,1.607-1.403,1.162-3.374,1.473
		c-1.688,0.265-3.367,1.238-4.372-0.307c-1.191-1.832-0.766-6.717-0.659-8.853c0.076-1.53,0.333-2.359-0.521-3.591
		c-1.174-1.692-3.808-3.877-5.425-5.23c-3.056-2.558-4.14,0.676-6.25,3.144c-0.685,0.802-2.04,1.513-2.285,2.602
		c-0.302,1.341,0.575,3.456,0.595,4.82c0.021,1.45,0.47,7.383-0.917,8.326c-1.501,1.02-5.673-1.02-7.454-0.945
		c0.401-2.628,0.346-5.291,0.224-7.932c-0.07-1.518,0.238-3.555-0.51-4.941c-1.491-2.761-5.584-4.596-7.719-6.941
		c-1.461,0.953-3.044,2.976-4.233,4.292c-0.807,0.894-1.975,2.497-2.227,3.769c-0.325,1.646,0.619,3.991,0.549,5.763
		c-0.06,1.52-0.017,3.886-0.573,5.372c-0.83,2.209-4.14,2.782-6.29,1.571c-2.441-1.375-1.545-5.134-1.725-7.635
		c-0.188-2.621,0.346-5.353-1.372-7.379c-1.225-1.444-4.794-5.486-6.775-5.408c-1.947,0.077-5.083,4.418-5.883,6.163
		c-0.917,2-0.3,5.279-0.226,7.346c0.082,2.328,0.132,4.758-0.01,7.084c-1.577-0.296-3.074-0.424-4.797-0.528
		C78.588,250.803,78.245,249.807,76.547,250.983z"/>
	<path style="fill:#C48A3D;" d="M435.442,250.983c0.815,1.464-0.001,5.143,0,6.986c0.001,5.311,0.346,10.604,0.375,15.91
		c0.045,8.294,0.284,16.602,0.723,24.874c0.359,6.76-0.081,13.553,0.243,20.313c0.225,4.688,1.275,9.436,1.043,14.118
		c-1.374-0.225-2.136-1.754-3.764-1.908c-1.781-0.168-3.438,0.776-4.466,2.092c-1.744,2.232-2.254,6.322-4.498,7.972
		c-2.132-2.982-5.935-10.099-10.148-5.648c-2.226,2.35-3.82,5.97-5.476,8.677c-2.081-2.344-2.451-10.554-7.327-8.873
		c-3.204,1.105-2.74,5.917-5.069,7.699c-2.267-5.496-4.803-11.781-11.809-8.417c-3.714,1.784-7.498,5.076-10.455,7.862
		c-1.557-2.214-2.004-5.95-3.02-8.523c-0.595-1.506-2.556-6.104-4.816-5.77c-1.623,0.239-2.058,4.011-2.877,5.214
		c-0.846,1.241-1.993,3.052-3.015,4.078c-3.369-4.512-5.302-11.781-10.554-14.588c-5.928-3.169-2.885,11.531-2.656,13.83
		c-1.778-2.925-3.625-5.629-5.938-8.185c-1.609-1.778-4.979-6.676-7.901-6.164c-5.027,0.882,0.33,11.994-0.442,14.894
		c-1.395,0.061-3.268-3.437-4.051-4.407c-2.056-2.548-5.28-6.306-8.799-6.89c-2.031-0.336-1.768,0.255-1.97,1.844
		c-0.251,1.974-0.891,3.425-0.485,5.464c0.22,1.11,1.474,4.537,0.377,5.5c-1.58,1.386-3.311-1.348-4.099-2.329
		c-1.532-1.911-2.824-4.006-4.436-5.84c-1.2-1.365-2.792-2.555-3.54-4.237c-0.985-2.216-0.925-4.957-0.873-7.321
		c0.119-5.396,0.317-10.794,0.638-16.181c0.61-10.282,0.373-20.78,0.1-31.067c-0.125-4.682-0.194-9.349-0.176-14.035
		c0.009-2.405-0.631-6.83,1.848-8.061c1.83-0.909,4.76-0.289,6.686-0.128c1.081,0.09,4.755,0.976,5.688,0.219
		c0.671-0.546,0.595-2.902,0.716-3.71c0.366-2.441,1.034-4.867,1.499-7.293c0.602-3.142,3.76-6.362,6.544-7.827
		c1.102,2.188,3.212,3.751,4.554,5.812c1.512,2.322,1.339,3.827,1.617,6.586c0.129,1.286,0.197,5.873,1.272,6.873
		c1.174,1.093,5.95,0.881,7.07,0.035c1.5-1.133,0.451-1.965,0.357-4.083c-0.11-2.483-0.773-5.422-0.562-7.876
		c0.158-1.835,0.772-2.27,2.274-3.248c1.59-1.034,3.417-3.196,5.176-3.778c2.32-0.767,3.609,2.205,5.051,4.055
		c1.688,2.165,2.352,2.711,1.887,5.179c-0.395,2.103-0.825,6.247,0.055,8.276c0.696,1.607,1.403,1.162,3.374,1.473
		c1.688,0.265,3.367,1.238,4.372-0.307c1.191-1.832,0.766-6.717,0.659-8.853c-0.077-1.53-0.333-2.359,0.521-3.591
		c1.174-1.692,3.808-3.877,5.425-5.23c3.056-2.558,4.14,0.676,6.25,3.144c0.685,0.802,2.04,1.513,2.285,2.602
		c0.302,1.341-0.574,3.456-0.595,4.82c-0.021,1.45-0.47,7.383,0.916,8.326c1.501,1.02,5.673-1.02,7.454-0.945
		c-0.401-2.628-0.346-5.291-0.224-7.932c0.07-1.518-0.238-3.555,0.51-4.941c1.491-2.761,5.585-4.596,7.72-6.941
		c1.461,0.953,3.044,2.976,4.233,4.292c0.807,0.894,1.976,2.497,2.227,3.769c0.325,1.646-0.619,3.991-0.549,5.763
		c0.06,1.52,0.017,3.886,0.573,5.372c0.829,2.209,4.14,2.782,6.29,1.571c2.441-1.375,1.545-5.134,1.725-7.635
		c0.188-2.621-0.346-5.353,1.372-7.379c1.225-1.444,4.794-5.486,6.775-5.408c1.947,0.077,5.083,4.418,5.883,6.163
		c0.917,2,0.3,5.279,0.226,7.346c-0.082,2.328-0.133,4.758,0.01,7.084c1.577-0.296,3.074-0.424,4.797-0.528
		C433.401,250.803,433.744,249.807,435.442,250.983z"/>
</g>
<g>
	<path style="fill:#D69A4C;" d="M51.254,214.183c-12.402,12.043-16.412,33.248-18.043,49.692
		c-1.851,18.664,4.653,34.861,17.12,48.275c8.475,9.119,9.038,19.85,4.21,30.54c0.177-3.16,2.847-11.478-2.641-10.192
		c-3.61,0.846-6.823,5.341-9.627,7.333c-0.333-2.899,2.104-10.92-2.799-10.679c-3.726,0.184-8.823,6.901-11.522,8.836
		c0.051-2.345,2.984-9.372-1.577-8.477c-3.915,0.769-7.356,8.469-9.715,11.213c0.032-1.807,0.835-6.622-1.427-7.178
		c-1.661-0.409-7.035,4.882-8.222,5.919c1.021-9.803-2.314-19.878-2.455-29.892c-0.111-7.891,0.87-15.748,0.567-23.646
		c-0.304-7.921-1.004-15.896-1.049-23.812c-0.092-16.33-1.424-32.689-1.866-49.012c-0.246-9.108,2.633-14.066,10.28-19.315
		c2.065,1.516,4.483,2.929,6.47,4.561c3.018,2.478,2.107,3.914,1.681,8.026c-0.297,2.876-1.493,6.726,1.171,8.138
		c2.142,1.135,6.661,0.501,9.037,0.273c0.286-4.613,0.097-9.308,0.709-13.881c0.17-1.27-0.059-2.648,0.675-3.768
		c0.637-0.972,5.509-4.606,6.718-4.647c1.891-0.063,7.585,5.379,8.369,7.486c0.991,2.664-0.889,5.915-0.533,8.776
		C47.128,211.503,49.007,212.207,51.254,214.183z"/>
	<path style="fill:#D69A4C;" d="M209.888,200.613c-4.495,0-11.825-1.068-14.168,3.904c-1.122,2.382-0.347,6.516,1.891,8.03
		c2.159,1.461,5.261,0.125,7.28,2.149c2.191,2.198,0.93,6.312,0.756,8.979c-0.261,4.021,0.137,8.052,0.027,12.076
		c-0.273,9.878,0.34,19.848,0.34,29.746c0,14.156,0,28.248,0,42.381c0,4.201,0.163,8.442-0.253,12.601
		c-0.253,2.543-1.221,5.506-0.717,8.085c0.416,2.13,1.209,2.165,2.18,3.864c1.306,2.287,1.302,5.061,2.414,7.419
		c2.147-2.108,3.312-9.374,8.21-8.567c3.289,0.542,4.451,6.07,5.369,8.56c1.925-3.022,1.985-6.932,5.979-8.461
		c2.817-1.079,6.08,0.159,6.29,3.621c2.154-3.142,2.419-7.59,5.402-10.591c1.617-1.626,4.13-2.965,6.319-3.448
		c5.951-1.314,4.733,5.155,5.073,9.442c2.612-5.479,5.692-12.159,12.883-9.671c5.278,1.826,6.594,9.554,8.925,14.202
		c2.621-2.743,3.328-7.542,7.795-4.008c2.907,2.3,3.098,5.884,4.005,9.171c2.118-3.25,2.896-7.899,7.502-7.668
		c4.171,0.208,4.84,3.897,7.199,6.454c2.083-4.046,4.691-8.105,5.328-12.651c0.906-6.472-3.87-10.698-9.275-14.045
		c-7.525-4.661-16.038-7.991-23.874-12.1c-10.247-5.371-19.59-13.114-26.238-22.605c-5.974-8.528-12.6-18.87-11.295-29.751
		c1.321-11.02,9.415-17.375,19.085-21.534c5.794-2.492,13.908-0.971,20.115-0.953c7.952,0.022,15.906-0.023,23.851-0.396
		c6.089-0.286,8.596-3.083,6.634-8.978c0.039,0.116,8.508-1.895,9.457-2.692c2.612-2.193,3.02-5.78,1.413-8.775
		c-2.671-4.979-13.338-3.381-18.177-3.474c-16.124-0.307-32.219,0.742-48.335,0.657
		C235.537,201.513,222.035,200.921,209.888,200.613z"/>
	<path style="fill:#D69A4C;" d="M445.421,193.182c-1.822,3.699-7.68,6.923-8.108,11.997c-0.242,2.863,0.645,5.889,0.433,8.856
		c-0.369,5.151-0.373,10.295-0.735,15.443c-1.117,15.884-0.637,31.949-0.637,47.867c0,14.4,1.293,28.729,1.293,43.14
		c0,4.346-1.901,19.841,3.546,21.647c2.427,0.805,4.968-2.054,7.769-1.629c2.278,0.346,4.908,2.336,6.714,3.537
		c0.966-3.368,0.026-10.796,4.82-10.976c3.016-0.114,6.075,4.576,8.585,5.964c0.55-3.71,1.024-11.061,6.633-8.482
		c2.527,1.162,5.401,5.705,7.433,7.344c0.989-5.533,1.086-12.09,6.501-5.294c2.234,2.801,2.731,5.978,5.508,8.448
		c2.646-5.961,4.332-8.733,10.006-3.202c4.456-3.595,1.116-11.353-2.788-13.839c-3.084-1.964-6.757-2.955-10.141-4.207
		c-5.471-2.024-11.075-6.005-15.744-9.443c-11.251-8.288-15.906-22.949-17.389-36.219c-1.401-12.537,3.082-23.276,6.075-35.163
		c1.138-4.522,0.701-8.91,1.961-13.351c1.528-5.385,3.722-10.729,3.454-16.431c-0.288-6.126,1.38-10.82,2.556-16.529
		c-2.446,0.782-5.929,3.485-7.658,5.46c-2.186,2.497-1.162,3.592-1.019,6.372c0.272,5.275-5.946,19.144-9.794,8.1
		c-1.294-3.716,0.344-7.831-1.27-11.669C451.937,197.382,448.786,194.229,445.421,193.182z"/>
	<path style="fill:#D69A4C;" d="M497.761,196.089c-4.748,1.785-4.84,5.194-4.847,9.371c-0.004,2.633-1.227,8.306,0.396,10.338
		c3.13,3.916,5.174-1.838,5.751-4.507C499.968,207.094,501.293,198.592,497.761,196.089z"/>
	<path style="fill:#D69A4C;" d="M214.413,169.919c-8.376,5.857-7.92,11.756-8.384,21.242c-0.102,2.097-0.743,4.554-0.017,6.544
		c0.998,2.735,2.127,2.353,5.396,2.585c26.967,1.921,54.278,2.26,81.37,2.26c1.535,0,15.305,0.786,14.401-4.209
		c-0.541-2.986-14.11-2.602-16.375-2.504c-11.398,0.491-22.843-0.189-34.258-0.096c-8.935,0.072-16.569-1.415-17.754-12.037
		c-0.356-3.192,3.454-11.707,0.416-14.358c-3.369-2.942-6.535,5.863-6.937,8.321c-0.485,2.963,0.056,10.082-2.077,12.291
		c-1.814,1.879-6.377,2.426-8.633,1.233C222.255,183.866,225.415,172.072,214.413,169.919z"/>
	<path style="fill:#D69A4C;" d="M271.276,168.951c-4.502,3.364-7.372,5.569-7.919,11.666c-0.243,2.708-1.009,8.145,1.119,10.295
		c3.662,3.7,5.988-2.369,6.162-5.185C270.899,181.505,273.925,171.945,271.276,168.951z"/>
	<path style="fill:#D69A4C;" d="M296.8,171.535c-5.5,4.608-8.871,11.302-6.147,18.588c1.643,4.396,3.87,0.744,5.354-2.766
		C298.233,182.092,297.048,176.708,296.8,171.535z"/>
	<path style="fill:#D69A4C;" d="M64.501,191.89c-2.896,3.516-6.881,6.751-7.777,11.496c-0.649,3.434-1.108,9.268-0.072,12.548
		c1.602,5.075,6.174,2.781,7.526-1.12C66.523,208.04,64.85,198.656,64.501,191.89z"/>
</g>
<g>
	<path style="fill:#AA7433;" d="M77.424,252.953c-0.001,16.171-0.997,32.344-0.97,48.57c0.01,5.848-0.453,11.67-0.647,17.509
		c-0.144,4.315-1.331,8.753-0.911,13.046c3.76,1.244,6.313-4.335,9.352,0.544c1.707,2.741,0.198,6.646,2.143,9.074
		c1.951-3.606,6.583-8.804,10.337-5.692c2.249,1.864,3.423,5.585,5.494,7.703c1.444-2.406,3.852-9.364,7.833-8.826
		c3.112,0.42,5.113,6.937,5.557,9.477c3.537-3.58,1.859-11.587,9.282-9.671c2.409,0.622,5.462,2.463,7.235,4.205
		c1.315,1.292,2.021,3.394,3.772,4.063c2.949-2.438,2.966-13.813,8.077-14.681c3.58-0.608,6.151,6.814,6.771,9.211
		c2.91-2.946,5.185-14.618,10.33-14.611c5.304,0.007,0.886,13.592,0.723,16.665c3.826-4.208,9.473-22.765,18.372-16.424
		c-0.611,2.589-0.356,5.225-0.97,7.854c-0.582,2.495-1.516,4.944-1.257,7.54c2.81-2.988,9.946-15.734,15.906-11.827
		c3.346,2.193,1.433,8.593,1.868,11.876c4.866-2.438,10.935-10.547,10.218-16.126c-0.925-7.199-3.787-13.957-3.802-21.406
		c-0.028-12.752,1.91-25.532,1.941-38.189c0.016-6.315-1.229-12.043-8.395-10.059c-4.71,1.304-4.735,5.21-4.535,9.381
		c0.449,9.355-3.691,17.578-5.425,26.776c-1.133,6.016-1.761,9.439-7.658,12.497c-9.322,4.836-21.037,0.107-29.695-4.138
		c-8.615-4.223-16.328-10.289-20.784-18.955c-4.676-9.094-7.281-19.325-9.793-29.184c-1.154-4.527-0.282-9.257-1.342-13.611
		c-0.298-1.225-1.539-2.217-1.863-3.329c-2.428,3.074-4.877,5.501-5.416,9.453c-0.512,3.758,0.83,7.736-2.078,9.981
		c-2.133,1.648-6.408,2.144-7.692-0.02c-1.637-2.759,0.759-9.024,0.028-12.457c-0.577-2.706-1.757-4.121-4.243-5.615
		c-3.751-2.255-5.083,0.191-7.469,4.194c-1.966,3.299-0.026,8.098-1.895,11.334C84.334,251.672,76.855,250.484,77.424,252.953z"/>
	<path style="fill:#AA7433;" d="M181.458,232.599c-1.233,3.695-4.166,4.984-4.535,9.568c-0.306,3.801-0.127,7.919,0.061,11.722
		C185.847,255.051,184.293,238.069,181.458,232.599z"/>
	<path style="fill:#AA7433;" d="M159.811,231.953c-3.308,3.76-4.907,5.464-5.173,10.662c-0.133,2.6-1.449,9.756,0.808,10.668
		C162.717,256.223,164.022,234.033,159.811,231.953z"/>
	<path style="fill:#AA7433;" d="M138.165,232.921c-2.879,2.121-4.777,3.815-5.48,7.276c-0.493,2.422-2.202,11.07-0.592,13.117
		c1.76,2.239,4.508-0.511,5.67-2.198C141.001,246.407,140.597,237.876,138.165,232.921z"/>
	<path style="fill:#AA7433;" d="M327.817,232.599c-7.084,3.031-6.705,9.027-7.108,15.716c-0.219,3.634-0.286,2.956-3.628,3.347
		c-1.528,0.178-6.742,0.475-7.768,1.512c-1.096,1.107-0.463,3.377-0.542,4.758c-0.197,3.435-0.717,6.859-0.954,10.296
		c-0.478,6.904-0.21,13.818-0.039,20.744c0.179,7.229,0.331,14.448,0.331,21.698c0,5.006-0.788,10.776,0,15.727
		c0.678,4.258,5.849,8.955,8.668,12.163c0.322-3.071,0.121-8.654,2.073-11.238c1.642-2.174,0.769-1.47,3.14-0.245
		c2.506,1.295,3.935,2.898,5.585,5.294c1.314,1.908,2.456,5.668,4.7,6.495c1.857-4.865-0.12-10.271,0.373-15.243
		c0.305-3.073,0.991-4.691,3.57-2.829c4.93,3.561,9.142,11.214,11.575,16.414c0.34-4.857-0.91-11.675,3.029-15.396
		c4.852,2.311,7.092,11.915,8.644,16.35c2.071-2.883,5.044-9.764,8.715-9.597c5.405,0.246,3.988,9.472,4.925,13.194
		c5.871-2.044,9.121-7.898,16.185-7.389c5.23,0.377,4.424,5.112,5.391,9.575c2.232-2.267,5.116-8.253,8.887-7.938
		c3.437,0.287,4.307,5.242,5.666,7.697c3.246-2.251,4.081-8.442,8.651-8.696c3.309-0.184,5.348,3.562,6.858,6.044
		c1.426-2.469,2.833-7.664,5.484-8.909c2.325-1.092,5.715,0.897,7.997,0.992c-1.256-2.398-0.09-5.583,0.036-8.194
		c0.306-6.392-1.792-8.68-7.96-10.575c-3.729-1.146-7.531-1.279-11.391-1.331c-7.31-0.097-14.284-0.913-21.516-1.956
		c-12.573-1.813-24.364-5.017-34.032-13.743c-18.605-16.793-9.683-42.94-12.007-64.628c-6.512,1.422-7.362,4.121-7.343,10.111
		c0.008,2.231,0.735,5.44-1.051,7.054c-1.007,0.909-5.206,1.59-6.436,0.829c-3.464-2.141,0.514-7.898-0.696-11.109
		c-0.579-1.535-2.847-3.958-4.11-5.035C328.473,231.795,327.569,234.025,327.817,232.599z"/>
	<path style="fill:#AA7433;" d="M374.664,231.306c-7.81,1.714-10.816,11.96-8.117,18.609c1.663,4.096,4.252,3.218,5.549-0.583
		C373.617,244.877,374.65,238.231,374.664,231.306z"/>
	<path style="fill:#AA7433;" d="M396.957,232.599c-2.978,1.894-6.724,4.603-7.865,8.157c-0.833,2.592-1.145,8.915,0.798,11.061
		c2.978,3.289,4.947-1.118,5.743-3.962C397.118,242.55,396.323,237.95,396.957,232.599z"/>
	<path style="fill:#AA7433;" d="M418.604,232.921c-4.646,3.094-10.807,10.031-6.111,16.689
		C418.666,258.36,419.373,233.957,418.604,232.921z"/>
</g>
<path style="fill:#B7803D;" d="M195.86,207.915c21.35-1.403,42.52-2.175,63.934-1.447c10.642,0.362,21.288,0.458,31.926,0.843
	c3.97,0.144,7.933,0.235,11.906,0.232c2.915-0.002,6.482-0.408,9.332,0.279c1.662,0.401,1.977,1.079,1.718,3.067
	c-0.411,3.144-4.816,1.681-7.351,1.681c-21.272,0-42.535,0.092-63.808,0.007c-15.488-0.062-31.086,0.01-46.511-0.036
	C196.769,211.412,195.905,209.999,195.86,207.915z"/>
<path d="M511.819,239.583c-0.327-9.092-0.197-18.529-0.954-27.703c0.117-3.145,0.362-6.501,0.007-9.43
	c-0.328-2.713-1.787-3.395-3.54-5.234c-2.059-2.163-3.81-4.192-6.201-6.006c-0.829-0.629-2.255-0.313-2.925,0.377
	c-2.69,2.774-7.548,5.113-8.985,8.792c-0.784,2.005-0.037,5.099,0.048,7.152c0.07,1.685,0.076,3.345,0.075,5.009
	c-1.613,0.085-3.229,0.106-4.841,0.154c0.007-0.306,0.013-0.609,0.025-0.896c0.124-3.042,0.77-7.337,0.16-10.323
	c-0.489-2.386-2.62-4.215-4.07-6.096c-1.599-2.073-3.08-5.023-5.344-6.452c-0.669-0.422-1.745-0.468-2.409,0
	c-1.735,1.224-3.03,3.004-4.699,4.356c-1.69,1.37-4.611,2.84-5.799,4.769c-1.28,2.079-0.405,5.067-0.125,7.353
	c0.19,1.555,0.303,3.125,0.347,4.698c-0.626,2.441-1.476,5.754-3.811,3.828c-1.452-1.198-0.745-8.049-0.966-9.921
	c-0.701-5.936-5.045-10.185-9.118-14.353c-0.631-0.646-1.598-0.699-2.372-0.306c-2.438,1.238-5.027,4.279-7.182,6.122
	c-2.049,1.751-3.785,3.812-4.189,6.559c-0.72,4.902-1.46,11.929-0.523,17.467c-0.1,3.936-0.256,7.827-0.491,11.796
	c-0.338,5.712-0.477,11.481-0.554,17.251c-0.906,0.004-1.795-0.147-2.698-0.186c-0.51-0.022-1.029,0.117-1.534,0.072
	c-0.508-0.045-0.831-0.297-1.112-0.717c-0.516-0.767-0.262-1.335-0.261-2.171c0.001-0.5-0.029-1-0.05-1.499
	c-0.085-1.96,0.2-4.369-0.618-6.136c-1.056-2.276-2.958-4.704-4.328-6.849c-0.843-1.319-1.739-3.082-3.587-2.869
	c-1.231,0.141-2.293,1.196-3.183,1.9c-2.236,1.768-4.816,3.763-6.553,6.036c-1.583,2.071-1.013,4.427-0.779,6.905
	c0.122,1.295,0.271,2.619,0.297,3.919c0.02,0.962-0.485,1.825-1.533,1.888c-2.561,0.155-2.218-3.299-2.287-4.899
	c-0.085-1.96,0.2-4.369-0.618-6.136c-1.056-2.276-2.958-4.704-4.328-6.849c-0.843-1.319-1.739-3.082-3.587-2.869
	c-1.231,0.141-2.293,1.196-3.183,1.899c-2.236,1.768-4.816,3.763-6.553,6.036c-1.583,2.071-1.013,4.427-0.779,6.905
	c0.128,1.354,0.373,2.841,0.288,4.2c-0.05,0.803-0.598,1.342-1.405,1.364c-2.553,0.07-2.186-2.857-2.258-4.551
	c-0.085-1.96,0.202-4.369-0.618-6.136c-1.056-2.276-2.958-4.704-4.328-6.849c-0.843-1.319-1.739-3.082-3.587-2.869
	c-1.231,0.141-2.293,1.196-3.183,1.899c-2.236,1.768-4.816,3.763-6.553,6.036c-1.583,2.071-1.013,4.427-0.779,6.905
	c0.096,1.015,0.166,2.033,0.219,3.051c0.04,0.745,0.179,1.661-0.577,2.101c-0.436,0.254-0.968,0.308-1.47,0.246
	c-0.384-0.047-1.009-0.133-1.342-0.327c-0.259-0.151-0.114,0.071-0.244-0.239c-0.075-0.18,0.037-0.627,0.043-0.829
	c0.031-0.997-0.007-1.994-0.049-2.99c-0.085-1.96,0.2-4.369-0.618-6.136c-1.056-2.276-2.958-4.704-4.328-6.849
	c-0.843-1.319-1.739-3.082-3.587-2.869c-1.231,0.141-2.293,1.196-3.183,1.9c-2.236,1.768-4.816,3.763-6.553,6.036
	c-1.583,2.071-1.013,4.427-0.779,6.905c0.089,0.94,0.155,1.881,0.207,2.823c0.032,0.582,0.415,1.931-0.046,2.362
	c-0.733,0.684-2.608,0.763-3.213-0.153c-0.694-1.048-0.168-2.759-0.218-3.914c-0.085-1.96,0.2-4.369-0.619-6.136
	c-1.056-2.276-2.958-4.704-4.328-6.849c-0.843-1.319-1.739-3.082-3.587-2.869c-1.231,0.141-2.293,1.196-3.183,1.899
	c-2.236,1.768-4.816,3.763-6.553,6.036c-1.583,2.071-1.013,4.427-0.779,6.905c0.085,0.894,0.149,1.79,0.2,2.688
	c0.036,0.635,0.416,1.613-0.096,2.11c-0.244,0.236-0.573,0.359-0.897,0.458c-1.29,0.396-2.764,0.59-4.107,0.383
	c-0.467-0.072-0.807-0.288-1.238-0.446c-0.628-0.23-1.357-0.22-2.018-0.23c-0.09-2.083-0.173-4.166-0.224-6.25
	c-0.212-8.612-1.049-17.126-2.228-25.633c2.185,0.33,4.38,0.478,6.497,0.323c5.781-0.422,3.766-6.331,3.633-10.223
	c-0.141-4.174-1.158-6.215-5.476-7.257c-1.47-0.355-2.986-0.577-4.517-0.699c0.786-2.766,0.491-6.057,0.499-8.779
	c0.011-3.74,0.503-8.056,0.061-11.704c-0.328-2.713-1.787-3.395-3.54-5.234c-2.059-2.163-3.81-4.192-6.202-6.006
	c-0.829-0.63-2.255-0.313-2.925,0.377c-2.69,2.774-7.548,5.113-8.985,8.792c-0.783,2.005-0.037,5.1,0.048,7.152
	c0.069,1.685,0.076,3.345,0.075,5.009c-1.613,0.085-3.229,0.106-4.841,0.154c0.007-0.306,0.013-0.609,0.026-0.896
	c0.124-3.042,0.772-7.337,0.159-10.323c-0.489-2.386-2.62-4.215-4.07-6.096c-1.599-2.073-3.08-5.023-5.344-6.452
	c-0.669-0.422-1.745-0.468-2.408,0c-1.735,1.224-3.029,3.004-4.699,4.356c-1.69,1.37-4.611,2.84-5.8,4.769
	c-1.28,2.079-0.405,5.067-0.125,7.353c0.327,2.664,0.424,5.371,0.332,8.063c-0.089,0.057-0.183,0.122-0.232,0.169
	c-0.155,0.004-0.343,0.014-0.37,0.037c-0.053,0.006-0.096,0.01-0.143,0.014c-0.043-0.004-0.082-0.009-0.133-0.013
	c-0.659-0.019-1.344,0.039-2.005,0.076c-0.925,0.051-1.849,0.147-2.776,0.202c-1.14,0.067-2.291,0.157-3.435,0.121
	c-0.085-0.002-0.173-0.016-0.261-0.031c-0.13-2.879-0.045-5.781,0.305-8.635c0.281-2.286,1.156-5.274-0.125-7.353
	c-1.188-1.93-4.11-3.399-5.799-4.769c-1.669-1.353-2.964-3.132-4.699-4.356c-0.664-0.468-1.74-0.422-2.408,0
	c-2.265,1.43-3.744,4.379-5.344,6.452c-1.451,1.881-3.582,3.71-4.07,6.096c-0.611,2.985,0.036,7.282,0.16,10.323
	c0.012,0.288,0.018,0.59,0.024,0.896c-1.612-0.048-3.228-0.069-4.841-0.154c-0.001-1.666,0.004-3.326,0.075-5.009
	c0.085-2.053,0.831-5.146,0.048-7.152c-1.436-3.679-6.295-6.018-8.985-8.792c-0.67-0.69-2.095-1.007-2.925-0.377
	c-2.392,1.814-4.142,3.842-6.202,6.006c-1.753,1.84-3.211,2.521-3.54,5.234c-0.442,3.649,0.05,7.964,0.061,11.704
	c0.008,2.723-0.287,6.015,0.499,8.779c-1.531,0.122-3.047,0.345-4.517,0.699c-4.318,1.042-5.334,3.083-5.476,7.257
	c-0.131,3.893-2.148,9.801,3.633,10.223c2.117,0.155,4.312,0.007,6.497-0.323c-1.179,8.508-2.016,17.021-2.228,25.633
	c-0.051,2.083-0.134,4.166-0.224,6.25c-0.661,0.01-1.391,0-2.018,0.23c-0.431,0.158-0.77,0.375-1.238,0.446
	c-1.344,0.207-2.816,0.013-4.107-0.383c-0.324-0.099-0.655-0.222-0.897-0.458c-0.512-0.495-0.132-1.474-0.096-2.11
	c0.051-0.896,0.116-1.793,0.2-2.688c0.234-2.478,0.804-4.834-0.779-6.905c-1.738-2.273-4.318-4.268-6.553-6.036
	c-0.891-0.704-1.952-1.758-3.183-1.9c-1.848-0.213-2.745,1.549-3.587,2.869c-1.37,2.144-3.272,4.573-4.328,6.849
	c-0.819,1.767-0.534,4.176-0.619,6.136c-0.05,1.155,0.475,2.866-0.218,3.914c-0.606,0.915-2.482,0.836-3.213,0.153
	c-0.461-0.431-0.078-1.779-0.046-2.362c0.052-0.942,0.119-1.883,0.207-2.823c0.234-2.478,0.804-4.834-0.779-6.905
	c-1.738-2.273-4.317-4.267-6.553-6.036c-0.891-0.704-1.952-1.758-3.183-1.9c-1.848-0.213-2.745,1.549-3.587,2.869
	c-1.37,2.144-3.272,4.573-4.328,6.849c-0.819,1.767-0.534,4.176-0.618,6.136c-0.042,0.995-0.08,1.993-0.049,2.99
	c0.007,0.203,0.118,0.649,0.043,0.829c-0.129,0.311,0.017,0.088-0.244,0.239c-0.333,0.195-0.958,0.279-1.342,0.327
	c-0.502,0.061-1.032,0.008-1.47-0.246c-0.756-0.44-0.616-1.356-0.577-2.101c0.053-1.018,0.124-2.035,0.219-3.051
	c0.234-2.478,0.804-4.835-0.779-6.905c-1.738-2.273-4.318-4.267-6.554-6.036c-0.891-0.704-1.952-1.758-3.183-1.899
	c-1.848-0.213-2.745,1.549-3.587,2.869c-1.37,2.144-3.272,4.573-4.328,6.849c-0.819,1.767-0.534,4.176-0.618,6.136
	c-0.072,1.694,0.295,4.621-2.258,4.551c-0.806-0.022-1.355-0.561-1.405-1.364c-0.086-1.358,0.16-2.846,0.288-4.2
	c0.234-2.478,0.804-4.835-0.779-6.905c-1.738-2.273-4.317-4.267-6.554-6.036c-0.891-0.704-1.952-1.758-3.183-1.899
	c-1.848-0.213-2.745,1.549-3.587,2.869c-1.37,2.144-3.272,4.573-4.328,6.849c-0.819,1.767-0.534,4.176-0.618,6.136
	c-0.069,1.601,0.274,5.055-2.287,4.899c-1.048-0.063-1.554-0.926-1.533-1.888c0.027-1.3,0.175-2.624,0.297-3.919
	c0.234-2.478,0.804-4.834-0.779-6.905c-1.738-2.273-4.317-4.268-6.554-6.036c-0.891-0.704-1.952-1.758-3.183-1.899
	c-1.848-0.213-2.745,1.549-3.587,2.869c-1.37,2.144-3.272,4.573-4.328,6.849c-0.819,1.767-0.534,4.176-0.618,6.136
	c-0.021,0.499-0.051,1-0.05,1.499c0.001,0.836,0.255,1.405-0.261,2.171c-0.283,0.42-0.605,0.673-1.112,0.717
	c-0.506,0.045-1.024-0.095-1.534-0.072c-0.902,0.039-1.79,0.19-2.698,0.186c-0.078-5.771-0.216-11.538-0.554-17.251
	c-0.235-3.968-0.392-7.86-0.491-11.796c0.936-5.539,0.198-12.565-0.523-17.467c-0.404-2.747-2.14-4.808-4.189-6.559
	c-2.156-1.842-4.744-4.883-7.182-6.122c-0.774-0.392-1.74-0.34-2.372,0.306c-4.073,4.168-8.416,8.416-9.118,14.353
	c-0.222,1.873,0.485,8.724-0.966,9.921c-2.335,1.926-3.186-1.386-3.811-3.828c0.046-1.572,0.157-3.142,0.347-4.698
	c0.281-2.286,1.156-5.274-0.125-7.353c-1.188-1.93-4.109-3.399-5.799-4.769c-1.669-1.353-2.964-3.132-4.699-4.356
	c-0.664-0.468-1.74-0.422-2.409,0c-2.265,1.43-3.744,4.379-5.344,6.452c-1.451,1.881-3.582,3.71-4.07,6.096
	c-0.611,2.985,0.036,7.282,0.16,10.323c0.012,0.288,0.018,0.59,0.024,0.896c-1.612-0.048-3.228-0.069-4.841-0.154
	c-0.002-1.666,0.004-3.326,0.075-5.009c0.085-2.053,0.831-5.146,0.047-7.152c-1.437-3.679-6.295-6.018-8.985-8.792
	c-0.67-0.69-2.095-1.007-2.925-0.377c-2.392,1.814-4.142,3.844-6.201,6.006c-1.753,1.84-3.211,2.521-3.54,5.234
	c-0.355,2.929-0.11,6.284,0.007,9.43c-0.757,9.176-0.627,18.611-0.954,27.703c-0.425,11.812,0.058,23.449,0.078,35.251
	c0.019,11.823,0.352,23.84,0.965,35.661c0.284,5.462,0.42,10.931,0.621,16.392c0.136,3.693,0.408,7.398,0.582,11.096
	c0.057,1.198,0.126,2.442,0.689,3.502c0.583,1.097,1.694,1.897,2.917,2.105c2.64,0.449,4.186-1.691,5.403-3.677
	c0.45-0.733,0.77-1.651,1.405-2.251c0.639-0.603,0.952,0.277,1.11,0.828c0.499,1.739,0.818,3.408,2.058,4.814
	c0.84,0.953,2.387,0.599,3.001-0.386c1.145-1.843,4.582-12.106,7.494-10.929c1.021,0.412-0.665,6.109-0.147,7.86
	c0.403,1.362,2.103,2.203,3.376,1.374c2.88-1.877,5.764-9.69,9.235-7.433c2.789,1.813-0.63,5.527,1.05,8.445
	c0.395,0.687,1.421,1.209,2.213,0.901c1.586-0.617,2.212-1.632,3.364-2.923c0.789-0.885,1.473-1.867,2.352-2.671
	c0.912-0.834,2.085-1.24,3.314-1.251c0.4-0.003,1.003-0.019,1.276,0.337c0.289,0.379,0.166,1.106,0.059,1.523
	c-0.644,2.522-2.834,6.289-0.23,8.386c0.99,0.798,2.015,0.952,3.168,0.409c2.417-1.138,5.9-5.14,8.74-4.773
	c2.552,0.33,3.08,3.74,5.625,4.189c4.149,0.732,4.178-4.625,5.288-8.303c0.146-0.482,0.907-1.156,1.27-1.501
	c0.292-0.278,0.607-0.425,0.966-0.592c0.59-0.275,1.195-0.622,1.837-0.76c0.56-0.119,1.142,0.02,1.691,0.146
	c0.812,0.187,1.308,0.491,1.53,1.315c0.452,1.679,1.011,3.339,1.705,4.94c0.785,1.81,2.04,3.547,4.243,3.304
	c1.314-0.145,2.181-0.769,2.642-2.012c0.401-1.081,0.159-2.289,0.308-3.39c0.155-1.146,1.341-2.252,2.32-2.727
	c0.855-0.414,2.187-0.213,2.83,0.538c0.229,0.268,0.327,0.671,0.5,0.98c0.298,0.533,0.582,1.072,0.848,1.622
	c0.313,0.647,0.745,1.226,0.986,1.896c0.531,1.474,1.017,3.001,2.021,4.235c0.434,0.533,1.466,0.816,2.109,0.558
	c2.468-0.997,2.868-3.357,3.829-5.665c2.828-6.797,5.116,3.135,6.958,5.562c0.916,1.208,2.104,1.822,3.636,1.48
	c5.321-1.188,1.853-8.204,4.594-10.993c3.089-3.141,9.509,3.081,10.885,4.906c1.351,1.792,2.039,3.566,4.347,4.201
	c0.789,0.217,1.92,0.035,2.458-0.649c2.965-3.767,0.549-9.68,3.371-13.505c2.642-3.58,3.599,2.006,4.655,4.618
	c0.736,1.819,1.12,2.992,2.678,4.173c0.654,0.495,1.902,0.468,2.56,0c3.859-2.743,5.009-9.146,7.232-13.117
	c0.864-1.543,1.874-4.564,1.609,0.126c-0.116,2.053-0.624,4.153-1.077,6.149c-0.509,2.244-1.698,4.597-0.856,6.86
	c0.835,2.242,3.155,2.76,4.983,1.315c3.253-2.572,4.64-6.708,6.51-10.257c1.044-1.981,2.249-4.003,4.051-5.39
	c0.346-0.267,1.001-0.878,1.472-0.618c0.372,0.206,0.186,0.582,0.07,0.902c-0.441,1.204-0.514,2.512-0.738,3.769
	c-0.253,1.421-0.543,2.835-0.792,4.257c-0.396,2.271-0.819,3.988,0.295,6.107c0.976,1.857,3.751,2.15,5.169,0.666
	c2.391-2.504,7.176-13.173,11.057-12.614c1.462,0.212,0.569,1.563,0.204,3.236c-0.289,1.323-0.784,2.646-0.978,3.988
	c-0.223,1.535-0.163,2.613,0.129,4.154c0.13,0.686,0.443,1.498,1.037,1.903c0.886,0.606,2.061,1.063,2.975,0.274
	c2.725-2.353,4.114-6.352,7.003-8.518c2.481-1.859,3.631-2.024,4.72,1.558c0.718,2.362,1.126,5,1.542,7.432
	c0.301,1.75,2.983,1.987,3.764,0.492c1.446-2.764,1.514-7.954,5.056-8.056c3.305-0.095,4.081,4.783,4.993,7.552
	c0.823,2.5,3.733,2.603,5.199,0.679c1.539-2.021,1.475-4.718,2.396-7.03c1.854-4.657,3.777-0.718,5.664,1.5
	c1.108,1.303,3.749,1.364,4.84,0c1.817-2.27,1.905-5.351,2.698-8.083c0.934-3.221,2.398-5.621,4.232-8.147
	c0.886,0.158,1.299,1.197,1.727,2.859c0.894,3.478,0.478,7.399,1.623,10.76c0.777,2.284,4.125,2.471,4.827,0
	c1.002-3.533,2.48-13.614,7.575-13.598c0.656,0.002,1.23,0.174,1.75,0.46c1.672,2.354,3.014,4.65,3.889,7.666
	c0.793,2.732,0.881,5.813,2.698,8.083c1.091,1.364,3.732,1.303,4.84,0c1.887-2.218,3.811-6.157,5.664-1.5
	c0.921,2.311,0.857,5.008,2.396,7.03c1.465,1.924,4.376,1.82,5.199-0.679c0.912-2.769,1.688-7.647,4.993-7.552
	c3.542,0.101,3.61,5.291,5.055,8.056c0.783,1.495,3.465,1.258,3.764-0.492c0.416-2.432,0.825-5.071,1.542-7.432
	c1.089-3.582,2.239-3.417,4.72-1.558c2.889,2.166,4.279,6.165,7.003,8.518c0.914,0.789,2.089,0.332,2.975-0.274
	c0.592-0.405,0.906-1.216,1.037-1.903c0.293-1.541,0.352-2.619,0.129-4.154c-0.195-1.343-0.689-2.666-0.978-3.988
	c-0.365-1.672-1.258-3.024,0.204-3.236c3.881-0.56,8.668,10.11,11.057,12.614c1.416,1.484,4.192,1.191,5.169-0.666
	c1.115-2.119,0.691-3.836,0.295-6.107c-0.248-1.422-0.539-2.836-0.792-4.257c-0.224-1.258-0.297-2.565-0.738-3.769
	c-0.117-0.32-0.302-0.697,0.07-0.902c0.471-0.261,1.126,0.352,1.472,0.618c1.802,1.386,3.007,3.408,4.051,5.39
	c1.871,3.548,3.257,7.685,6.51,10.257c1.827,1.444,4.148,0.927,4.983-1.315c0.843-2.261-0.346-4.615-0.856-6.86
	c-0.453-1.996-0.961-4.095-1.077-6.149c-0.265-4.69,0.746-1.669,1.609-0.126c2.222,3.972,3.374,10.373,7.232,13.117
	c0.658,0.468,1.906,0.495,2.56,0c1.558-1.181,1.943-2.354,2.678-4.173c1.057-2.612,2.013-8.198,4.655-4.618
	c2.823,3.825,0.406,9.738,3.371,13.505c0.539,0.685,1.669,0.867,2.458,0.649c2.308-0.635,2.997-2.409,4.347-4.201
	c1.376-1.825,7.797-8.047,10.885-4.906c2.742,2.789-0.726,9.805,4.594,10.993c1.531,0.342,2.719-0.272,3.636-1.48
	c1.842-2.426,4.129-12.359,6.958-5.562c0.96,2.307,1.36,4.669,3.829,5.665c0.642,0.258,1.673-0.023,2.109-0.558
	c1.004-1.235,1.491-2.76,2.021-4.235c0.242-0.67,0.674-1.249,0.986-1.896c0.266-0.55,0.549-1.089,0.848-1.622
	c0.173-0.308,0.271-0.711,0.5-0.98c0.642-0.75,1.974-0.952,2.83-0.538c0.98,0.474,2.167,1.581,2.321,2.727
	c0.148,1.102-0.094,2.31,0.308,3.39c0.461,1.243,1.328,1.867,2.642,2.012c2.203,0.244,3.458-1.493,4.243-3.304
	c0.694-1.601,1.253-3.261,1.705-4.94c0.222-0.824,0.718-1.128,1.53-1.315c0.548-0.126,1.13-0.265,1.69-0.146
	c0.642,0.137,1.248,0.484,1.837,0.76c0.36,0.168,0.674,0.315,0.965,0.592c0.363,0.346,1.125,1.019,1.27,1.501
	c1.11,3.679,1.139,9.035,5.288,8.303c2.545-0.449,3.073-3.859,5.625-4.189c2.84-0.366,6.323,3.635,8.74,4.773
	c1.152,0.542,2.178,0.39,3.168-0.409c2.604-2.098,0.413-5.864-0.23-8.386c-0.107-0.418-0.23-1.145,0.059-1.523
	c0.273-0.357,0.876-0.342,1.276-0.337c1.228,0.011,2.402,0.418,3.314,1.251c0.879,0.804,1.562,1.786,2.352,2.671
	c1.151,1.29,1.778,2.306,3.364,2.923c0.792,0.308,1.818-0.214,2.214-0.901c1.68-2.918-1.739-6.633,1.05-8.445
	c3.471-2.257,6.354,5.556,9.235,7.433c1.274,0.829,2.973-0.012,3.376-1.374c0.518-1.749-1.167-7.447-0.147-7.86
	c2.913-1.177,6.35,9.088,7.494,10.929c0.612,0.986,2.161,1.339,3,0.386c1.239-1.406,1.558-3.075,2.058-4.814
	c0.158-0.552,0.472-1.432,1.11-0.828c0.635,0.6,0.956,1.519,1.405,2.251c1.218,1.985,2.764,4.126,5.403,3.677
	c1.225-0.208,2.334-1.009,2.917-2.105c0.563-1.06,0.632-2.304,0.689-3.502c0.176-3.699,0.446-7.403,0.582-11.096
	c0.202-5.461,0.337-10.929,0.621-16.392c0.613-11.822,0.945-23.837,0.965-35.661C511.761,263.032,512.245,251.395,511.819,239.583z
	 M72.685,264.458c-0.164,11.887-0.306,23.71-0.62,35.588c-0.141,5.375-0.281,10.741-0.575,16.114
	c-0.141,2.582-0.408,5.157-0.45,7.744c-0.042,2.554,0.412,5.069,0.198,7.616c-0.068,0.801-0.193,1.594-0.374,2.377
	c-0.178,0.765-0.474,1.39-0.758,2.104c-0.31,0.781-0.763,1.887-1.077,2.996c-3.407-3.97-8.168-1.353-12.174,1.12
	c0.441-2.045,0.876-4.593,0.812-5.204c-0.226-2.167-1.326-3.721-3.43-4.307c-2.148-0.598-4.409,0.508-6.204,1.589
	c-1.746,1.052-3.035,3.07-4.404,4.775c0.563-1.916,1.43-4.109,1.257-5.417c-0.277-2.098-1.317-3.613-3.422-4.166
	c-2.725-0.717-5.611,0.926-7.704,2.455c-1.189,0.868-2.068,2.054-2.899,3.263c0.184-1.442,0.259-2.887-0.305-4.257
	c-0.361-0.875-0.935-1.353-1.887-1.436c-6.087-0.533-8.132,6.266-10.865,10.779c-0.349-2.69,0.294-5.976-3.045-6.558
	c-2.486-0.434-4.35,1.257-5.881,3.299c0.128-2.56-0.327-5.154-0.4-8.047c-0.128-5.138-0.082-10.284-0.361-15.423
	c-0.659-12.143-0.753-24.485-0.865-36.631c-0.106-11.459-0.697-22.846-0.581-34.32c0.075-7.368,0.24-14.855-0.175-22.273
	c0.346-4.003-0.125-8.338-0.08-11.889c0.047-3.699-0.213-2.808,2.303-5.558c1.199-1.312,2.475-2.693,3.663-4.086
	c2.205,1.663,4.98,3.504,5.652,5.48c0.541,1.596-0.259,4.551-0.344,6.225c-0.109,2.162,0.019,4.221,0.068,6.373
	c0.032,1.437,1.102,2.287,2.445,2.445c3.02,0.355,5.979,0.744,9.003,0.568c1.349-0.078,2.13-0.935,2.357-1.92
	c1.888-2.933,0.921-7.663,1.035-10.817c0.101-2.794,0.889-3.793,2.454-5.971c0.944-1.314,1.975-3.297,3.129-4.845
	c0.813,0.821,1.658,1.814,2.425,2.408c1.286,0.997,4.751,3.161,5.039,3.697c0.163,0.302-1.032,5.647-1.148,7.143
	c-0.174,2.238-0.423,4.685-0.011,6.91c0.34,1.837,2.011,3.171,3.711,3.713c1.583,0.505,3.257,0.471,4.897,0.393
	c1.403-0.066,2.682-0.528,3.693-1.574c2.886-2.987,2.051-8.681,2.337-12.386c0.316-4.092,2.897-7.748,5.701-10.816
	c1.125,1.27,2.424,3.288,3.334,4.134c0.978,0.91,2.18,1.659,2.847,2.859c1.011,1.816,0.513,3.916,0.519,5.935
	c0.014,4.669-0.63,10.258,0.588,14.852c0.098,3.415,0.479,6.822,0.673,9.783C73.5,242.199,72.836,253.518,72.685,264.458z
	 M196.771,332.941c0.843-3.85,1.401-7.832-2.877-9.115c-4.378-1.314-8.008,1.457-11.101,4.942c0.269-1.78,0.528-3.634,0.243-5.373
	c-0.501-3.049-2.716-5.203-5.98-4.759c-3.687,0.501-6.634,3.733-8.796,6.462c-0.393,0.497-0.766,1.003-1.126,1.516
	c-0.018-0.271-0.019-0.546-0.059-0.811c-0.415-2.78-1.815-5.617-4.823-5.894c-2.754-0.254-4.752,1.768-6.191,3.913
	c-1.218,1.815-2.055,4.082-2.916,6.089c-0.387,0.903-0.934,3.029-1.613,4.632c-1.167-2.26-1.812-5.609-3.455-7.226
	c-1.454-1.43-3.337-1.922-5.351-1.348c-2.335,0.665-3.541,2.588-4.462,4.652c-0.874,1.961-1.498,4.158-1.901,6.265
	c-0.094,0.487-0.108,1.175-0.121,1.905c-0.269-0.392-0.51-0.74-0.696-0.944c-1.221-1.335-2.317-2.387-3.866-3.305
	c-2.572-1.523-6.761-4.054-9.943-3.708c-3.768,0.41-5.256,3.495-6.202,6.836c-1.658-2.476-3.652-4.536-7.382-4.2
	c-1.431,0.129-2.592,0.834-3.55,1.85c-0.84,0.892-1.502,3.556-2.183,5.424c-1.817-3.201-3.251-7.195-7.185-8.028
	c-2.095-0.443-3.806,0.579-5.18,2.033c-0.512,0.542-1.24,1.721-1.684,2.568c-0.176-0.411-0.356-0.821-0.529-1.233
	c-2.166-5.077-3.967-9.294-10.212-6.536c-0.046,0.02-0.087,0.045-0.132,0.066c0.978-3.723,0.072-8.286,0.272-11.996
	c0.286-5.307,0.636-10.654,0.621-15.965c-0.036-12.414,0.551-24.766,0.38-37.197c-0.05-3.644-0.076-7.307-0.109-10.974
	c1.13,0.069,2.211-0.148,3.355-0.235c2.107-0.159,5.652,0.243,6.33-2.427c0.156-0.615,0.16-1.257,0.163-1.892
	c0.007-1.437,0.014-2.875,0.021-4.312c0.006-1.323-0.088-2.663,0.108-3.978c0.188-1.262,1.307-2.589,2.262-4.081
	c0.56-0.875,1.074-1.78,1.62-2.666c0.061-0.099,0.169-0.238,0.289-0.389c0.11,0.096,0.219,0.19,0.316,0.284
	c1.621,1.569,3.911,3.177,5.042,5.142c1.557,2.709-0.993,8.563,0.181,12.199c0.019,0.057,0.043,0.099,0.063,0.154
	c0.031,0.111,0.087,0.216,0.134,0.323c0.021,0.043,0.04,0.094,0.061,0.135c0.068,0.131,0.153,0.258,0.249,0.382
	c0.033,0.042,0.069,0.08,0.104,0.119c0.076,0.086,0.131,0.176,0.224,0.256c1.639,1.431,3.91,1.302,5.825,1.074
	c1.543-0.184,3.92,0.401,5.196-0.772c0.581-0.534,0.685-1.421,0.804-2.154c0.195-1.19,0.315-2.396,0.315-3.602
	c0.001-2.176-0.44-4.336-0.116-6.509c0.188-1.262,1.307-2.589,2.262-4.081c0.56-0.875,1.074-1.78,1.62-2.666
	c0.061-0.099,0.169-0.238,0.289-0.389c0.11,0.096,0.219,0.19,0.316,0.284c1.621,1.569,3.911,3.177,5.042,5.142
	c1.557,2.709-0.993,8.562,0.181,12.199c0.019,0.057,0.043,0.099,0.063,0.154c0.031,0.111,0.087,0.216,0.134,0.323
	c0.021,0.043,0.04,0.094,0.061,0.135c0.068,0.131,0.153,0.258,0.249,0.382c0.033,0.042,0.069,0.08,0.104,0.119
	c0.076,0.086,0.131,0.176,0.224,0.256c1.639,1.431,3.91,1.302,5.825,1.074c1.402-0.167,2.925,0.198,4.26-0.392
	c0.531-0.235,1.034-0.57,1.199-1.133c0.254-0.865,0.245-1.913,0.326-2.809c0.072-0.801,0.306-1.574,0.372-2.357
	c0.175-2.079-0.418-4.142-0.105-6.242c0.188-1.262,1.307-2.589,2.262-4.081c0.56-0.875,1.074-1.78,1.62-2.666
	c0.061-0.099,0.169-0.238,0.289-0.389c0.11,0.096,0.219,0.19,0.316,0.284c1.62,1.569,3.911,3.177,5.042,5.142
	c1.557,2.709-0.993,8.562,0.181,12.199c0.019,0.057,0.043,0.099,0.063,0.154c0.031,0.111,0.087,0.216,0.134,0.323
	c0.021,0.043,0.04,0.094,0.061,0.135c0.068,0.131,0.153,0.258,0.249,0.382c0.033,0.042,0.069,0.08,0.104,0.119
	c0.076,0.086,0.131,0.176,0.224,0.256c1.639,1.431,3.91,1.302,5.825,1.074c1.548-0.184,3.856,0.37,5.161-0.753
	c0.606-0.521,0.69-1.561,0.812-2.29c0.195-1.168,0.266-2.356,0.24-3.541c-0.046-2.117-0.431-4.237-0.116-6.349
	c0.188-1.262,1.307-2.589,2.262-4.081c0.56-0.875,1.074-1.78,1.62-2.666c0.061-0.099,0.169-0.238,0.289-0.389
	c0.11,0.096,0.219,0.19,0.316,0.284c1.621,1.569,3.911,3.177,5.042,5.142c1.557,2.709-0.993,8.562,0.181,12.199
	c0.019,0.057,0.043,0.099,0.063,0.154c0.031,0.111,0.087,0.216,0.134,0.323c0.021,0.043,0.04,0.094,0.061,0.135
	c0.068,0.131,0.153,0.258,0.249,0.382c0.033,0.042,0.069,0.08,0.104,0.119c0.076,0.086,0.131,0.176,0.224,0.256
	c1.639,1.431,3.91,1.302,5.825,1.074c1.392-0.166,2.827,0.08,4.21-0.229c1.15-0.257,1.484-1.66,1.621-2.687
	c0.069-0.519-0.022-1.044,0.043-1.557c0.055-0.42,0.173-0.794,0.185-1.229c0.069-2.379-0.464-4.753-0.111-7.127
	c0.188-1.262,1.307-2.589,2.262-4.081c0.56-0.875,1.074-1.78,1.62-2.666c0.061-0.099,0.169-0.238,0.289-0.389
	c0.111,0.096,0.219,0.19,0.316,0.284c1.621,1.569,3.911,3.177,5.04,5.142c1.557,2.709-0.993,8.563,0.181,12.199
	c0.019,0.057,0.043,0.099,0.063,0.154c0.03,0.111,0.087,0.216,0.134,0.323c0.021,0.043,0.04,0.094,0.061,0.135
	c0.068,0.131,0.153,0.258,0.249,0.382c0.033,0.042,0.069,0.08,0.104,0.119c0.076,0.086,0.131,0.176,0.224,0.256
	c1.254,1.093,2.948,1.283,4.546,1.194c1.624-0.091,3.532-0.063,5.098,0.431c1.064,0.335,2.693,1.076,2.372,2.414
	c-0.529,2.197-0.245,4.4-0.264,6.609c-0.021,2.443,0.01,4.887,0.128,7.327c0.473,9.856-0.159,19.793,0.028,29.674
	c0.178,9.394,0.969,18.869,0.969,28.254c0,0.189,0.031,0.357,0.052,0.531C200.056,329.747,198.284,331.209,196.771,332.941z
	 M208.306,181.667c0.047-3.699-0.213-2.809,2.303-5.559c1.199-1.312,2.475-2.693,3.663-4.086c2.205,1.663,4.98,3.504,5.651,5.48
	c0.542,1.596-0.259,4.551-0.344,6.225c-0.109,2.162,0.018,4.221,0.068,6.373c0.032,1.437,1.102,2.287,2.445,2.445
	c3.02,0.355,5.979,0.744,9.003,0.568c1.349-0.078,2.13-0.935,2.357-1.92c1.888-2.933,0.921-7.663,1.035-10.817
	c0.101-2.794,0.889-3.793,2.453-5.971c0.944-1.314,1.975-3.297,3.129-4.845c0.813,0.821,1.658,1.814,2.425,2.408
	c1.286,0.997,4.751,3.161,5.039,3.697c0.164,0.302-1.031,5.647-1.148,7.143c-0.186,2.395-0.311,4.829,0.036,7.215
	c0.157,1.08,0.622,1.798,1.532,2.435c0.827,0.579,1.843,0.792,2.772,1.157c0.919,0.361,1.915,0.334,2.888,0.343
	c2.412,0.021,5.498-0.092,7.061-0.278c1.269-0.151,2.241-0.86,3.412-1.267c0.318-0.111,0.661-0.157,0.905-0.412
	c0.355-0.373,0.411-1.012,0.495-1.494c0.445-2.535,0.312-5.144,0.114-7.697c-0.116-1.495-1.312-6.841-1.148-7.143
	c0.289-0.534,3.753-2.7,5.039-3.697c0.767-0.595,1.611-1.588,2.425-2.408c1.152,1.549,2.185,3.531,3.129,4.845
	c1.564,2.178,2.352,3.178,2.453,5.971c0.115,3.154-0.853,7.884,1.035,10.817c0.227,0.984,1.008,1.842,2.357,1.92
	c3.023,0.175,5.984-0.214,9.003-0.568c1.342-0.158,2.412-1.008,2.445-2.445c0.049-2.152,0.177-4.212,0.067-6.373
	c-0.085-1.675-0.885-4.63-0.344-6.225c0.671-1.975,3.447-3.817,5.651-5.48c1.189,1.394,2.465,2.776,3.663,4.086
	c2.515,2.75,2.256,1.861,2.303,5.559c0.062,4.984-0.89,11.508,0.828,16.493c-0.946,0.032-1.887,0.108-2.821,0.212
	c-0.856,0.039-1.711,0.096-2.553,0.135c-3.877,0.177-7.776-0.196-11.672-0.11c-7.209,0.159-14.803-0.261-22.171,0.278
	c-3.872-0.09-7.763-0.04-11.713-0.038c-2.893,0.002-6.764-0.33-10.183-0.147c-6.319-0.244-12.736,0.042-18.874-0.094
	c-3.896-0.086-7.795,0.288-11.672,0.11c-0.841-0.039-1.696-0.095-2.553-0.135c-0.933-0.104-1.875-0.179-2.821-0.212
	C209.196,193.176,208.244,186.651,208.306,181.667z M304.15,224.702c0.056,5.688-0.217,11.357-0.36,17.04
	c-0.233,9.331,0.429,18.663,0.007,27.983c-0.458,10.113,0.058,20.288-0.189,30.422c-0.14,5.765-0.494,11.522-0.748,17.283
	c-0.118,2.678-0.215,5.356-0.258,8.036c-0.01,0.649-0.057,1.315-0.019,1.963c0.023,0.4,0.189,0.756,0.232,1.149
	c0.115,1.056,0.121,2.579-0.376,3.544c-0.177,0.344-0.434,0.634-0.597,0.988c-0.13,0.284-0.223,0.587-0.32,0.884
	c-0.056,0.171-0.356,0.796-0.288,0.954c-1.21-2.809-3.052-5.171-6.446-5.468c-3.576-0.313-5.278,2.22-6.704,5.052
	c-0.804-2.704-2.144-5.062-5.209-6.383c-3.11-1.341-5.2-0.637-7.059,0.833c-0.032-0.116-0.062-0.234-0.096-0.35
	c-0.596-2.065-1.366-3.809-2.62-5.591c-1.462-2.078-2.766-3.436-4.496-4.181c-1.969-1.264-4.221-1.992-6.086-1.787
	c-4.183,0.459-6.688,3.555-8.42,7.271c-0.645-3.364-1.902-6.334-5.094-7.127c-2.123-0.527-4.337,0.391-6.132,1.911
	c-1.481,0.783-2.676,2.049-3.988,3.915c-1.254,1.781-2.023,3.525-2.62,5.591c-0.033,0.116-0.063,0.234-0.096,0.35
	c-1.861-1.47-3.949-2.175-7.059-0.833c-3.064,1.321-4.405,3.679-5.209,6.383c-1.426-2.831-3.128-5.364-6.704-5.052
	c-3.393,0.297-5.235,2.658-6.446,5.468c0.068-0.158-0.233-0.783-0.288-0.954c-0.097-0.297-0.189-0.599-0.32-0.884
	c-0.163-0.355-0.42-0.645-0.597-0.988c-0.498-0.965-0.491-2.488-0.376-3.544c0.043-0.393,0.208-0.749,0.232-1.149
	c0.038-0.648-0.008-1.314-0.019-1.963c-0.043-2.68-0.14-5.358-0.258-8.036c-0.254-5.761-0.608-11.517-0.748-17.283
	c-0.247-10.134,0.267-20.309-0.189-30.422c-0.421-9.319,0.24-18.652,0.007-27.983c-0.143-5.684-0.415-11.352-0.36-17.04
	c0.028-2.836,0.55-6.361-0.265-9.284c0.305,0.013,0.61,0.026,0.919,0.046c3.862,0.247,7.599,0.42,11.468,0.328
	c7.414-0.176,15.188,0.517,22.688-0.145c3.297-0.11,6.535,0.14,9.824,0.089c5.747-0.09,11.918,0.464,17.837-0.004
	c7.198,0.524,14.623-0.108,21.717,0.061c3.869,0.092,7.606-0.081,11.468-0.328c0.31-0.02,0.613-0.032,0.919-0.046
	C303.601,218.34,304.122,221.866,304.15,224.702z M301.788,210.597c-3.061,0.136-6.128,0.465-9.195,0.366
	c-4.981-0.161-9.982,0.272-14.949,0.124c-0.571-0.017-1.136-0.049-1.695-0.087c-6.844-1.359-14.93-0.871-21.675-0.534
	c-2.937,0.146-5.76,0.196-8.556,0.372c-3.749-0.63-7.402,0.13-11.375,0.249c-4.967,0.148-9.966-0.285-14.949-0.124
	c-3.066,0.099-6.134-0.23-9.195-0.366c-1.823-0.08-3.652-0.114-5.472,0.02c-1.302,0.095-2.486,0.603-3.763,0.75
	c-1.819,0.209-2.348-1.454-2.407-2.955c-0.029-0.74-0.097-1.767,0.14-2.478c0.347-1.044,1.601-1.731,2.598-1.972
	c0.932-0.226,1.892-0.159,2.84-0.158c0.872,0.001,1.596-0.222,2.433-0.327c1.549-0.196,3.11-0.293,4.671-0.318
	c1.364-0.023,2.674,0.226,4.056,0.216c3.076-0.023,6.152-0.194,9.228-0.129c5.73,0.121,12.012,0.806,18.108,0.676
	c3.536,0.316,7.79-0.185,9.705-0.176c4.222,0.019,8.257,0.029,12.26-0.119c7.512,0.833,15.63-0.227,22.869-0.381
	c3.076-0.065,6.153,0.107,9.228,0.129c1.381,0.01,2.692-0.239,4.056-0.216c1.561,0.027,3.121,0.122,4.671,0.318
	c0.838,0.106,1.562,0.327,2.433,0.327c0.95-0.001,1.908-0.068,2.84,0.158c0.996,0.24,2.25,0.927,2.598,1.972
	c0.236,0.711,0.169,1.738,0.14,2.478c-0.059,1.501-0.587,3.164-2.407,2.955c-1.277-0.147-2.462-0.656-3.763-0.75
	C305.439,210.484,303.61,210.516,301.788,210.597z M434.358,329.551c-6.245-2.758-8.047,1.459-10.212,6.536
	c-0.174,0.412-0.353,0.822-0.529,1.233c-0.444-0.846-1.171-2.025-1.684-2.568c-1.374-1.454-3.084-2.476-5.18-2.033
	c-3.934,0.833-5.368,4.827-7.185,8.028c-0.681-1.866-1.344-4.532-2.183-5.423c-0.958-1.017-2.12-1.721-3.55-1.85
	c-3.731-0.336-5.724,1.724-7.382,4.2c-0.945-3.341-2.434-6.427-6.202-6.836c-3.182-0.346-7.371,2.183-9.943,3.708
	c-1.549,0.917-2.644,1.969-3.866,3.305c-0.186,0.204-0.426,0.551-0.696,0.944c-0.013-0.73-0.028-1.418-0.121-1.905
	c-0.403-2.108-1.025-4.305-1.901-6.265c-0.921-2.064-2.127-3.987-4.461-4.652c-2.015-0.573-3.898-0.081-5.351,1.348
	c-1.643,1.617-2.288,4.966-3.455,7.226c-0.679-1.603-1.226-3.729-1.613-4.632c-0.861-2.008-1.699-4.274-2.916-6.089
	c-1.44-2.144-3.437-4.166-6.191-3.913c-3.007,0.277-4.408,3.115-4.822,5.895c-0.04,0.265-0.041,0.54-0.059,0.811
	c-0.36-0.514-0.733-1.021-1.126-1.517c-2.162-2.728-5.109-5.961-8.796-6.462c-3.265-0.443-5.479,1.711-5.98,4.759
	c-0.285,1.739-0.027,3.593,0.243,5.373c-3.093-3.486-6.723-6.256-11.101-4.943c-4.277,1.283-3.72,5.264-2.877,9.115
	c-1.513-1.731-3.285-3.193-5.125-4.009c0.022-0.174,0.052-0.343,0.052-0.531c0-9.385,0.791-18.86,0.969-28.254
	c0.187-9.881-0.445-19.818,0.028-29.674c0.117-2.441,0.149-4.885,0.128-7.327c-0.02-2.209,0.265-4.413-0.264-6.609
	c-0.323-1.339,1.307-2.079,2.372-2.414c1.567-0.494,3.474-0.522,5.098-0.431c1.599,0.09,3.294-0.099,4.546-1.194
	c0.092-0.08,0.148-0.171,0.224-0.256c0.035-0.039,0.07-0.076,0.104-0.119c0.097-0.124,0.181-0.251,0.249-0.382
	c0.022-0.041,0.04-0.091,0.061-0.135c0.047-0.107,0.102-0.212,0.134-0.323c0.02-0.053,0.045-0.097,0.063-0.154
	c1.175-3.636-1.375-9.49,0.181-12.199c1.129-1.965,3.42-3.574,5.04-5.142c0.097-0.094,0.206-0.188,0.316-0.284
	c0.12,0.15,0.228,0.291,0.289,0.389c0.546,0.885,1.06,1.79,1.62,2.666c0.955,1.492,2.074,2.82,2.262,4.081
	c0.354,2.374-0.18,4.749-0.111,7.127c0.012,0.435,0.13,0.809,0.185,1.229c0.066,0.512-0.026,1.038,0.043,1.557
	c0.137,1.027,0.472,2.43,1.622,2.687c1.383,0.31,2.818,0.063,4.209,0.229c1.916,0.227,4.186,0.356,5.825-1.074
	c0.092-0.08,0.148-0.171,0.224-0.256c0.035-0.039,0.07-0.076,0.104-0.119c0.097-0.124,0.181-0.251,0.249-0.382
	c0.022-0.041,0.04-0.091,0.061-0.135c0.047-0.107,0.102-0.212,0.134-0.323c0.02-0.053,0.045-0.096,0.063-0.154
	c1.175-3.636-1.375-9.49,0.181-12.199c1.129-1.965,3.42-3.574,5.042-5.142c0.097-0.095,0.206-0.188,0.316-0.284
	c0.12,0.15,0.228,0.291,0.29,0.389c0.547,0.885,1.06,1.79,1.62,2.666c0.955,1.492,2.074,2.82,2.263,4.081
	c0.315,2.113-0.07,4.233-0.116,6.349c-0.026,1.184,0.047,2.372,0.241,3.541c0.121,0.729,0.206,1.769,0.811,2.29
	c1.304,1.122,3.613,0.569,5.16,0.753c1.916,0.227,4.186,0.356,5.825-1.074c0.092-0.08,0.148-0.171,0.224-0.256
	c0.035-0.039,0.07-0.076,0.104-0.119c0.097-0.124,0.181-0.251,0.249-0.382c0.022-0.041,0.04-0.091,0.061-0.135
	c0.047-0.107,0.102-0.212,0.134-0.323c0.02-0.053,0.045-0.096,0.063-0.154c1.175-3.636-1.375-9.49,0.181-12.199
	c1.129-1.965,3.42-3.574,5.04-5.142c0.097-0.095,0.206-0.188,0.316-0.284c0.12,0.15,0.228,0.291,0.289,0.389
	c0.546,0.885,1.06,1.79,1.62,2.666c0.955,1.492,2.074,2.82,2.262,4.081c0.313,2.1-0.279,4.163-0.105,6.242
	c0.066,0.783,0.3,1.557,0.373,2.357c0.081,0.896,0.072,1.944,0.326,2.809c0.166,0.563,0.668,0.899,1.199,1.133
	c1.335,0.59,2.858,0.225,4.26,0.392c1.916,0.227,4.186,0.356,5.825-1.074c0.092-0.08,0.148-0.171,0.224-0.256
	c0.035-0.039,0.07-0.076,0.104-0.119c0.097-0.124,0.181-0.251,0.249-0.382c0.022-0.041,0.04-0.091,0.061-0.135
	c0.047-0.107,0.102-0.212,0.134-0.323c0.02-0.053,0.045-0.096,0.063-0.154c1.175-3.636-1.375-9.49,0.181-12.199
	c1.129-1.965,3.42-3.574,5.042-5.142c0.097-0.095,0.206-0.188,0.316-0.284c0.12,0.15,0.228,0.291,0.29,0.389
	c0.547,0.885,1.06,1.79,1.62,2.666c0.955,1.492,2.074,2.82,2.262,4.081c0.324,2.172-0.117,4.333-0.116,6.509
	c0.001,1.206,0.121,2.412,0.315,3.602c0.12,0.734,0.223,1.621,0.804,2.154c1.277,1.172,3.653,0.588,5.196,0.772
	c1.916,0.227,4.186,0.356,5.825-1.074c0.092-0.08,0.148-0.171,0.224-0.256c0.035-0.039,0.07-0.076,0.104-0.119
	c0.097-0.124,0.181-0.251,0.249-0.382c0.022-0.041,0.04-0.091,0.061-0.135c0.047-0.107,0.102-0.212,0.134-0.323
	c0.02-0.053,0.045-0.097,0.063-0.154c1.175-3.636-1.375-9.49,0.181-12.199c1.129-1.965,3.42-3.574,5.042-5.142
	c0.097-0.094,0.205-0.188,0.316-0.284c0.12,0.15,0.228,0.291,0.289,0.389c0.546,0.885,1.06,1.79,1.62,2.666
	c0.955,1.492,2.074,2.82,2.262,4.081c0.196,1.315,0.101,2.656,0.108,3.978c0.007,1.437,0.013,2.875,0.021,4.312
	c0.003,0.635,0.007,1.276,0.163,1.892c0.678,2.671,4.224,2.268,6.33,2.427c1.142,0.087,2.225,0.304,3.355,0.235
	c-0.033,3.668-0.059,7.33-0.109,10.974c-0.171,12.431,0.415,24.784,0.38,37.197c-0.014,5.311,0.335,10.659,0.621,15.965
	c0.199,3.71-0.706,8.273,0.272,11.996C434.445,329.596,434.404,329.571,434.358,329.551z M505.49,218.24
	c-0.415,7.418-0.248,14.907-0.175,22.273c0.116,11.474-0.475,22.862-0.581,34.32c-0.112,12.145-0.206,24.488-0.865,36.631
	c-0.278,5.14-0.234,10.284-0.361,15.423c-0.072,2.893-0.528,5.486-0.4,8.047c-1.532-2.042-3.395-3.733-5.881-3.299
	c-3.338,0.582-2.697,3.868-3.045,6.558c-2.732-4.513-4.778-11.314-10.865-10.779c-0.952,0.084-1.527,0.561-1.887,1.436
	c-0.565,1.37-0.489,2.816-0.305,4.257c-0.832-1.21-1.711-2.395-2.899-3.263c-2.093-1.529-4.979-3.172-7.704-2.455
	c-2.104,0.553-3.144,2.069-3.422,4.166c-0.173,1.308,0.694,3.501,1.257,5.417c-1.368-1.707-2.658-3.723-4.404-4.776
	c-1.795-1.081-4.056-2.187-6.204-1.589c-2.104,0.586-3.204,2.14-3.43,4.307c-0.063,0.611,0.371,3.159,0.812,5.204
	c-4.006-2.473-8.767-5.091-12.174-1.12c-0.314-1.109-0.767-2.216-1.077-2.996c-0.284-0.714-0.58-1.339-0.758-2.104
	c-0.183-0.782-0.307-1.577-0.374-2.377c-0.214-2.546,0.24-5.063,0.198-7.616c-0.043-2.588-0.31-5.162-0.451-7.744
	c-0.294-5.372-0.432-10.74-0.575-16.114c-0.314-11.878-0.457-23.701-0.62-35.588c-0.15-10.941-0.815-22.26-0.101-33.165
	c0.194-2.961,0.574-6.368,0.673-9.783c1.218-4.594,0.573-10.183,0.588-14.852c0.007-2.019-0.491-4.119,0.519-5.935
	c0.668-1.2,1.869-1.949,2.847-2.859c0.91-0.846,2.209-2.864,3.334-4.134c2.804,3.066,5.385,6.724,5.701,10.816
	c0.286,3.704-0.549,9.398,2.337,12.386c1.011,1.047,2.29,1.509,3.693,1.574c1.64,0.078,3.314,0.111,4.897-0.393
	c1.7-0.543,3.371-1.877,3.711-3.713c0.412-2.225,0.164-4.672-0.011-6.91c-0.116-1.495-1.31-6.84-1.148-7.143
	c0.29-0.534,3.753-2.7,5.039-3.697c0.766-0.595,1.611-1.588,2.425-2.408c1.152,1.549,2.185,3.531,3.128,4.845
	c1.564,2.178,2.352,3.179,2.454,5.971c0.115,3.154-0.853,7.884,1.035,10.817c0.227,0.984,1.008,1.842,2.357,1.92
	c3.023,0.175,5.984-0.214,9.003-0.568c1.343-0.158,2.413-1.008,2.445-2.445c0.049-2.152,0.177-4.212,0.067-6.373
	c-0.085-1.675-0.885-4.63-0.344-6.225c0.671-1.975,3.447-3.817,5.652-5.48c1.188,1.394,2.464,2.776,3.663,4.086
	c2.515,2.75,2.256,1.859,2.303,5.558C505.615,209.901,505.144,214.236,505.49,218.24z"/>
<g>
</g>
<g>
</g>
<g>
</g>
<g>
</g>
<g>
</g>
<g>
</g>
<g>
</g>
<g>
</g>
<g>
</g>
<g>
</g>
<g>
</g>
<g>
</g>
<g>
</g>
<g>
</g>
<g>
</g>
</svg>
