<?xml version="1.0" encoding="iso-8859-1"?>
<!-- Generator: Adobe Illustrator 19.0.0, SVG Export Plug-In . SVG Version: 6.00 Build 0)  -->
<svg version="1.1" id="Layer_1" xmlns="http://www.w3.org/2000/svg" xmlns:xlink="http://www.w3.org/1999/xlink" x="0px" y="0px"
	 viewBox="0 0 512.002 512.002" style="enable-background:new 0 0 512.002 512.002;" xml:space="preserve">
<g>
	<path style="fill:#EDEDED;" d="M60.345,223.383c-0.755-1.903-2.175-2.872-3.79-4.362c-0.405-0.373-0.784-0.769-1.137-1.178
		c-0.03,0-0.059,0.01-0.09,0.007c-0.256-0.017-0.536-0.011-0.825,0.002c-0.782,0.57-1.951,0.536-2.824,0.024
		c-0.048-0.007-0.092-0.018-0.139-0.026c-0.044,0.079-0.08,0.162-0.128,0.238c-1.802,2.871-3.91,4.717-4.554,8.245
		c-0.3,1.646-0.341,3.33-0.43,5.012c2.15,2.637,6.584,3.23,9.955,2.471c2.343-0.527,3.628-1.739,4.246-3.291
		c-0.001-0.254,0.001-0.506-0.002-0.761C60.601,227.642,60.539,225.504,60.345,223.383z"/>
	<path style="fill:#EDEDED;" d="M134.715,154.51c-0.099,0.018-0.2,0.004-0.3,0c-1.711,1.982-2.95,4.618-3.698,6.972
		c-0.485,1.524-1.003,3.314-0.723,4.925c0.444,2.543,2.808,2.115,4.973,2.045c2.229-0.073,5.925,0.596,8.025-0.19
		c2.358-0.882,2.371-4.177,2.185-6.269c-0.213-2.389-1.039-4.451-2.784-6.152C140.009,153.517,137.705,153.973,134.715,154.51z"/>
	<path style="fill:#EDEDED;" d="M88.258,158.415c-0.56-1.623-1.56-3.043-3.172-3.955c-2.114-1.195-4.148-0.388-6.359-0.792
		c-0.045-0.008-0.083-0.031-0.124-0.044c-2.897,2.729-3.897,6.244-4.542,10.211c-0.326,2.003-0.862,4.755,1.536,5.567
		c2.077,0.703,5.194,0.178,7.317-0.096c2.478-0.321,4.652-0.4,5.519-3.055c0.352-1.08,0.445-2.3,0.435-3.493
		C88.47,161.354,88.357,159.888,88.258,158.415z"/>
	<path style="fill:#EDEDED;" d="M489.94,332.621c-0.034-4.848-0.362-9.142-1.352-13.836c-0.874-4.143-0.025-9.457-4.826-11.519
		c-1.012-0.433-2.143-0.579-3.093-1.131c-2.312-1.343-2.722-4.452-2.877-7.122c-0.318-5.492-0.614-11.151,1.194-16.347
		c1.024-2.945,2.721-5.654,4.911-7.872c2.234-2.264,3.74-3.458,3.585-6.977c-0.136-3.095-2.034-6.218-4.98-7.172
		c-4.815-1.56-10.699,2.74-14.818-0.2c-2.691-1.921-2.843-5.792-2.731-9.097c0.133-3.91,0.265-7.821,0.397-11.731
		c0.073-2.149,0.111-4.439-1.008-6.275c-1.939-3.181-6.31-3.593-10.035-3.654c-5.185-0.086-10.369-0.171-15.554-0.257
		c-2.265-0.037-4.73-0.146-6.457-1.611c-2.395-2.034-2.325-5.741-1.599-8.799c1.495-6.294,2.228-14.259-3.481-18.864
		c-2.276-1.836-5.367-2.735-7.033-5.138c-1.517-2.187-1.458-5.06-1.342-7.718c0.882-20.127,1.474-40.251,2.152-60.31
		c0.062-1.854,0.224-3.928,1.614-5.156c1.518-1.342,3.906-1.124,5.598-2.241c2.119-1.399,2.437-4.581,1.261-6.831
		c-1.177-2.249-3.452-3.707-5.759-4.765c-2.308-1.057-4.766-1.83-6.888-3.224c-8.136-5.342-8.537-16.533-14.248-23.75
		c-7.116-8.988-18.238-15.045-28.311-20.109c-3.664-1.842-7.626-3.668-9.832-7.125c-2.555-4.001-1.52-8.211-2.055-12.588
		c-0.559-4.568-1.243-9.218-1.759-13.839c-0.29-2.591-0.312-5.358,0.968-7.628c0.827-1.465,2.143-2.617,2.919-4.11
		c1.334-2.565-0.281-6.051-2.455-7.647c-1.437-1.055-3.174-1.608-4.889-2.091c-19.365-5.471-44.74-6.309-63.111,3.107
		c-1.891,0.97-3.91,2.307-4.287,4.398c-0.405,2.247,1.247,4.276,2.609,6.109c2.763,3.719,1.67,9.765,1.505,14.199
		c-0.214,5.775-0.87,11.523-1.566,17.258c-3.402,2.324-6.487,4.866-9.943,6.716c-8.295,4.441-16.04,9.946-22.739,16.568
		c-3.218,3.182-6.31,6.597-8.841,10.355c-2.334,3.467-5.145,6.138-6.845,10.088c-1.499,3.482-2.838,7.221-5.664,9.749
		c-2.124,1.901-4.871,2.911-7.469,4.085c-2.598,1.172-5.23,2.658-6.687,5.107c-1.457,2.449-1.247,6.093,1.136,7.657
		c1.75,1.148,4.082,0.895,5.995,1.748c4.877,2.173,3.036,11.192,3.041,15.422c0.007,7.233,0.017,14.465,0.012,21.698
		c-0.006,9.901-0.972,20.076,0.006,29.839c0.359,3.594-0.344,7.973-3.644,9.44c-1.319,0.587-2.872,0.594-4.099,1.356
		c-2.246,1.397-2.407,4.547-2.316,7.19c0.135,3.887,0.269,7.773,0.403,11.66c0.084,2.416,0.065,5.118-1.61,6.862
		c-1.484,1.547-3.818,1.844-5.957,1.97c-3.728,0.22-7.47,0.195-11.194-0.074c-2.198-0.159-4.711-0.599-5.832-2.496
		c-0.753-1.274-0.646-2.86-0.517-4.335c0.368-4.165,0.733-8.33,1.101-12.494c0.15-1.692,1.1-9.296-0.389-10.308
		c-6.554-4.456-16.912-4.824-24.501-3.643c-2.088,0.324-4.267,0.803-6.273,0.14c-3.718-1.228-5.193-5.823-4.894-9.727
		c0.236-3.077,1.355-6.018,1.601-9.081c0.204-2.541-0.373-5.121-0.327-7.731c0.119-6.632,0.481-13.271,0.051-19.9
		c-0.23-3.555-0.679-7.102-1.489-10.575c-0.521-2.231-1.122-6.881-3.087-8.351c-1.911-1.429-6.089-0.589-8.318-0.6l-10.873-0.054
		c-1.46-0.007-3.077-0.074-4.129-1.087c-1.213-1.167-1.176-3.085-1.052-4.763c0.335-4.577,1.32-9.585,1.037-14.158
		c-0.239-3.857-1.037-7.83-1.377-11.732c-0.69-7.933-0.679-15.928-1.341-23.865c-0.554-6.642-3.652-12.03-9.039-16.169
		c-15.048-11.564-36.98-3.755-41.137,15.431c-1.828,8.44-0.894,17.453-1.548,26.18c-0.597,7.987-0.182,16.38,0.375,24.25
		c0.154,2.186-0.292,4.614-1.986,6.004c-1.466,1.202-3.506,1.352-5.401,1.385c-5.356,0.095-11.668-1.665-16.489,0.882
		c-2.368,1.251-4.378,2.569-5.783,4.925c-3.836,6.427-3.142,15.803-3.482,22.958c-0.503,10.551,0.042,20.976-0.15,31.511
		c-0.028,1.525-0.164,3.239-1.322,4.234c-0.951,0.816-2.308,0.893-3.56,0.93c-4.441,0.133-8.913,0.418-13.337,0.527
		c-2.892,0.071-6.784-0.723-9.134,1.468c-0.379,0.353-0.679,0.784-0.876,1.31c-0.966,2.58,0.345,7.664,0.397,10.377
		c0.19,9.625,0.364,19.25,0.569,28.874c0.133,6.413-0.083,12.967,0.649,19.337c0.618,5.371-3.159,10.178-1.129,15.637
		c0.576,1.55,1.537,2.934,2.131,4.477c1.803,4.686-0.383,9.575,0.492,14.369c1.064,5.837,1.018,12.199,0.977,18.118
		c-0.391,57.373-1.343,114.743-1.833,172.117c-0.059,6.917,1.458,13.848,2.2,20.383c9.697,5.149,18.597,3.839,27.19,3.863
		c41.454,0.115,82.909,0.02,124.364,0.006c94.875-0.034,189.75-0.061,284.625-0.102c4.782-0.002,9.588,0.16,14.341-0.236
		c9.279-0.775,12.384-4.16,12.509-13.889c0.163-12.752-0.068-25.508-0.048-38.261C489.913,413.89,490.219,373.254,489.94,332.621z
		 M65.961,243.601c-0.096,1.737-0.271,3.31-1.003,4.579c-0.238,0.832-0.498,1.653-0.8,2.449c-0.605,1.593-2.065,2.128-3.33,1.871
		c-0.821,0.117-1.683,0.107-2.49,0.051c-4.268-0.291-10.262,0.213-13.932-2.312c-0.138-0.069-0.263-0.17-0.381-0.302
		c-1.17-0.947-1.708-2.127-1.927-3.455c-0.189-0.784-0.278-1.617-0.302-2.467c-1.006-4.611-0.921-9.789-0.591-14.595
		c-0.549-7.823,0.478-16.507,6.839-21.44c0.411-0.318,0.891-0.473,1.379-0.518c1.276-0.922,3.033-1.24,4.617-0.907
		c0.188,0.002,0.376,0.01,0.565,0.026c0.676-0.815,1.821-1.482,2.898-1.04c2.531,1.038,4.287,3.288,5.534,5.975
		c1.96,2.951,2.462,6.842,2.931,10.331c0.373,2.782,0.505,5.522,0.516,8.255C66.721,234.56,66.658,239.205,65.961,243.601z
		 M96.364,113.436c0.012-5.54-0.005-10.277,0.955-14.976c0.818-5.72,2.862-11.227,7.579-12.91c0.055-0.055,0.095-0.119,0.159-0.169
		c3.91-2.999,9.008-1.255,11.763,2.537c2.99,4.116,3.214,10.114,3.82,14.987c0.523,4.211,0.59,8.425,0.682,12.66
		c0,0.005,0.002,0.007,0.002,0.012c0,0.018,0,0.037-0.001,0.055c0.002,0.09,0.004,0.18,0.006,0.269
		c0.071,3.165,0.5,6.861-0.696,9.893c-1.609,4.08-4.833,3.237-8.51,3.22c-3.794-0.017-9.48,0.939-12.557-2.067
		c-0.093-0.06-0.196-0.113-0.286-0.176C95.092,123.833,96.354,117.853,96.364,113.436z M92.126,184.719
		c-1.771,3.461-6.062,3.411-9.572,3.11c-3.735,0.184-8.138,0.262-10.944-1.844c-1.744-1.31-2.461-3.251-2.725-5.389
		c-0.974-4.155-0.363-9.482-0.097-13.553c-0.178-5.995-0.024-12.885,2.735-17.914c1.256-2.887,3.136-5.17,5.972-6.005
		c0.178-0.322,0.466-0.605,0.894-0.783c9.816-4.067,13.596,8.525,14.353,15.791c0.601,5.755,1.056,11.48,0.694,17.192
		C93.562,178.735,93.399,182.233,92.126,184.719z M121.441,247.373c-1.601,4.653-6.254,4.618-10.53,4.362
		c-3.63-0.218-9.458,1.014-12.094-2.117c-0.212-0.253-0.406-0.53-0.589-0.821c-0.962-1.115-1.431-2.641-1.599-4.331
		c-1.052-5.022-0.578-11.495-0.607-15.308c-0.029-3.733,2.982-22.811,9.978-22.096c3.062-2.331,6.669-1.222,9.443,1.634
		c4.44,4.571,5.059,11.216,5.699,17.23C121.814,232.213,123.566,241.192,121.441,247.373z M149.782,179.38
		c-0.709,3.838-1.956,6.466-5.843,7.468c-4.274,1.1-11.939,1.694-15.759-1.129c-3.413-2.522-2.707-7.075-2.703-10.815
		c0.007-9.859-2.144-23.23,6.312-29.951c0.006-0.336,0.116-0.668,0.383-0.929c3.087-3.007,7.633-2.943,11.067-0.296
		c4.125,3.178,5.017,9.417,5.613,14.215C149.686,164.653,151.017,172.686,149.782,179.38z M174.494,249.176
		c0.005,0.605-0.291,1.189-1.028,1.538c-1.991,0.941-4.249,0.848-6.46,0.694c-0.911,0.002-1.85-0.047-2.802-0.158
		c-2.27-0.077-4.399-0.187-6.47-0.766c-0.352,0.49-0.946,0.777-1.683,0.533c-3.463-1.149-3.699-5.796-3.491-9.62
		c-0.567-2.758-0.739-5.716-0.992-8.075c-0.833-7.723-0.711-17.873,5.128-23.086c3.095-3.66,7.915-5.601,12.727-3.394
		c4.656,2.136,4.961,7.022,5.485,11.552c0.886,7.648,2.119,15.583,2.02,23.304C176.888,244.743,176.299,247.42,174.494,249.176z"/>
	<path style="fill:#EDEDED;" d="M113.455,97.26c-2.461-1.987-4.735-1.067-7.514-1.347c-0.017-0.001-0.031-0.01-0.047-0.011
		c-2.759,1.683-4.038,5.483-4.486,8.491c-0.22,1.48-0.453,3.839,0.463,5.143c1.364,1.942,4.741,1.397,6.827,1.378
		c1.672-0.016,6.154,0.533,7.196-1.081c0.923-1.428,0.376-4.465,0.212-6.111C115.86,101.268,115.495,98.906,113.455,97.26z"/>
	<path style="fill:#EDEDED;" d="M168.494,219.699c-1.958-1.98-4.118-1.551-6.594-1.93c-0.019-0.002-0.032-0.013-0.05-0.018
		c-2.471,1.844-4.092,5.337-4.848,8.102c-0.435,1.587-0.909,3.8,0.018,5.33c1.086,1.793,3.874,1.771,5.726,1.919
		c2.13,0.171,5.191,0.498,7.106-0.658c2.352-1.421,2.128-4.76,1.624-7.045C171.025,223.356,169.983,221.204,168.494,219.699z"/>
	<path style="fill:#EDEDED;" d="M106.316,218.649c-0.123,0.006-0.242-0.004-0.356-0.023c-2.719,2.348-3.977,5.643-4.21,9.439
		c-0.111,1.806-0.147,3.541,1.751,4.246c1.656,0.614,3.606,0.557,5.339,0.552c1.365-0.004,3.01,0.138,4.349-0.163
		c2.689-0.603,2.959-2.919,2.938-5.332c-0.025-2.571-0.546-5.054-2.5-6.894C111.482,218.454,109.076,218.52,106.316,218.649z"/>
</g>
<g>
	<path style="fill:#CECECE;" d="M23.567,272.004c1.026-0.831,3.918-0.45,8.673-0.448c7.872,0.004,15.746-0.012,23.619-0.02
		c98.747-0.116,197.492-0.573,296.239-0.573c29.547,0,59.089-0.103,88.583-1.228c4.765-0.182,43.691-4.232,44.43,3.622
		c0.722,7.671-79.758,3.053-86.079,2.999c-42.986-0.37-86.024-1.207-129.076-1.203c-16.803,0.001-33.688,1.146-50.473,0.747
		c-12.701-0.302-28.592,0.796-39.86,7.575c-9.127,5.491-16.8,16.141-21.802,25.324c-10.149,18.634-14.825,43.169-5.383,63.046
		c11.499,24.212,47.47,38.684,71.055,46.99c32.858,11.574,64.938,23.533,98.89,31.718c35.265,8.501,71.457,16.016,107.438,20.648
		c7.987,1.028,73.122,11.717,54.128,30.801c-7.973,8.01-23.842,6.525-34.491,5.872c-21.402-1.314-43.056-1.077-64.583-1.077
		c-47.351,0-94.425-1.263-141.757,0.567c-37.846,1.464-75.351-1.342-113.086-3.618c-31.228-1.883-63.033,5.508-94.046,1.401
		c-3.474-0.46-8.211-0.582-9.863-3.71c-1.943-3.679-0.564-14.77-0.567-18.9c-0.022-25.851,0-51.821,0-77.704
		c0-28.195,0.625-56.22,0.599-84.403c-0.011-11.54,1.864-23.12,1.197-34.618c-0.247-4.256-0.584-4.745-2.38-8.132
		C23.166,274.277,22.699,272.708,23.567,272.004z"/>
	<path style="fill:#CECECE;" d="M224.876,117.531c15.169-5.523,30.287-10.693,45.886-15.053c14.148-3.954,27.834-5.454,42.377-6.894
		c19.275-1.909,37.87-0.194,56.691,4.002c15.997,3.566,32.56,6.772,47.711,13.216c7.864,3.345,4.683,6.215,3.263,13.076
		c-1.024,4.946-0.676,8.183-6.836,6.536c-6.788-1.815-13.342-4.393-20.253-5.824c-13.815-2.86-29.061-2.966-42.805,0.166
		c-12.017,2.739-31.272,10.379-31.795,25.207c-0.444,12.595,15.689,15.974,24.901,18.857c14.082,4.408,29.223,6.007,43.707,8.776
		c7.414,1.417,20.792,1.654,27.389,6.121c2.788,1.888,7.695,7.332,4.162,10.392c-1.918,1.66-8.775-0.061-11.46-0.257
		c-14.904-1.094-29.396-3.528-44.172-5.626c-12.976-1.844-25.732-1.52-38.765-1.818c-4.967-0.114-18.606-1.341-21.05,4.611
		c-1.814,4.432,5.603,9.542,8.569,11.211c8.965,5.046,19.408,6.977,29.459,7.981c16.636,1.663,33.512,1.577,50.225,2.395
		c10.885,0.534,22.475,0.569,33.058,3.563c5.371,1.52,9.276,4.871,3.356,9.026c-7.035,4.937-18.776,2.302-26.677,2.057
		c-18.118-0.565-36.254,1.805-54.432,1.116c-20.472-0.776-40.926-2.126-61.418-2.288c-7.012-0.055-31.568-2.787-32.39,8.813
		c-0.727,10.286,24.018,11.188,29.774,11.544c22.724,1.402,45.929,0.813,68.694,0.779c27.226-0.038,54.404,0.237,81.61,1.392
		c7.397,0.314,14.869,0.344,22.238,1.101c2.631,0.271,6.915,0.223,9.049,2.152c3.931,3.555,0.481,7.086-3.23,8.886
		c-8.446,4.1-20.086,1.66-28.971,1.129c-10.123-0.606-20.224-0.437-30.342-0.898c-25.803-1.177-51.792,0.109-77.602,0.207
		c-26.131,0.099-52.235-1.222-78.335-1.246c-10.646-0.01-21.086,0.56-31.744-0.304c-4.701-0.381-12.851,0.368-15.697-4.347
		c-2.885-4.779-0.178-21.561,3.102-26.264c3.754-5.381,12.598,0.198,18.164-2.345c11.504-5.257,0.466-20.362,9.389-27.374
		c2.697-2.12,5.829-3.15,6.06-6.833c0.081-1.305-1.234-4.056-1.246-5.854c-0.014-2.227,0.363-4.512,0.093-6.734
		c-1.158-9.525-1.732-18.65-0.54-28.233c0.849-6.821,2.158-13.943,1.627-20.849c-0.356-4.611-1.632-7.713-5.672-9.795
		C227.799,121.88,218.493,119.407,224.876,117.531z"/>
</g>
<g>
	<path style="fill:#44332B;" d="M260.789,129.502c-12.828,10.867-8.161,29.83-4.719,44.641c8.598,0.401,16.246-1.012,24.211-3.199
		C280.022,165.916,275.783,115.386,260.789,129.502z"/>
	<path style="fill:#44332B;" d="M327.029,117.133c-1.336,1.229-5.296,1.043-7.193,2.622c-2.115,1.76-3.127,4.184-4.377,6.546
		c-3.259,6.158-3.302,11.656-3.681,18.524c-0.287,5.205-2.334,18.16,1.177,22.485c3.894,4.797,17.241,2.37,22.469,1.712
		c2.757-0.347,6.833,0.213,8.185-1.408c1.876-2.251,1.804-12.783,1.743-15.788c-0.123-5.981-0.558-12.713-1.64-18.631
		c-0.693-3.792-2.172-10.253-4.692-13.29C336.545,116.923,329.464,114.89,327.029,117.133z"/>
	<path style="fill:#44332B;" d="M386.088,128.305c-8.668,2.041-8.085,24.64-8.794,31.742c-0.564,5.644-2.113,11.879,4.365,14.047
		c5.514,1.846,16.697,4.003,19.314-2.365c3.763-9.156,2.756-25.015,0.317-34.514C399.721,131.111,387.867,122.026,386.088,128.305z"
		/>
</g>
<g>
	<path style="fill:#495489;" d="M311.467,30.142c0.542-3.628-2.106-7.658-5.598-5.886c-4.262,2.162-3.172,8.533-3.182,12.47
		c-0.008,3.788,1.396,8.015,6.195,5.796c3.634-1.68,5.119-12.266,2.185-14.376"/>
	<path style="fill:#495489;" d="M324.635,21.762c-5.909,2.24-3.213,14.577-2.733,19.094c2.033,0.481,7.183,1.385,9.106,0.867
		c3.955-1.067,3.203-4.622,3.203-8.392C334.212,27.097,330.964,12.903,324.635,21.762z"/>
	<path style="fill:#495489;" d="M346.583,24.556c-4.605,0.831-3.502,9.881-2.993,13.333c0.832,5.648,3.225,3.285,8.12,3.365
		C351.9,39.139,351.896,21.253,346.583,24.556z"/>
</g>
<g>
	<path style="fill:#4A84D8;" d="M26.953,277.148c2.879,6.443-2.338,16.575-0.399,23.751c1.735,6.419,15.662,4.99,21.135,4.98
		c32.497-0.057,64.885,1.938,97.381,1.607c9.557-0.098,19.15-0.862,28.7-1.296c23.946-1.089,47.883-0.297,71.923-1.196
		c24.431-0.913,48.835,0.148,73.346,0.467c19.833,0.257,39.628,0.819,59.472,0.819c18.551,0,37.1,0.139,55.649,0.255
		c9.08,0.056,19.074,1.287,28.059-0.012c4.488-0.649,14.381-0.153,16.757-4.547c1.686-3.115,0.524-8.419,0.575-11.977
		c0.043-3.053,0.256-8.77-1.264-11.592c-2.418-4.492-9.737-3.341-14.213-3.642c-15.559-1.041-31.204-1.182-46.823-1.207
		c-19.338-0.031-38.729,1.111-58.037,1.96c-22.178,0.974-44.486,0.03-66.679,0.798c-20.249,0.702-40.682,0.247-60.951,0.443
		c-8.343,0.08-16.611,1.575-24.961,1.529c-8.168-0.046-15.84-1.961-24.082-1.939c-18.855,0.05-37.319-1.433-56.2-0.109
		C94.142,278.496,61.486,278.345,26.953,277.148z"/>
	<path style="fill:#4A84D8;" d="M301.491,52.09c-18.53,3.395-36.649,16.999-49.199,30.623c-3.498,3.797-10.065,11.104-10.774,16.482
		c-0.794,6.024,5.418,1.429,9.065,0.39c20.153-5.741,40.217-8.424,61.104-9.499c9.539-0.491,19.132-2.081,28.688-0.994
		c9.288,1.057,18.586,2.108,27.875,3.19c9.146,1.067,18.05,3.718,27.085,5.406c6.206,1.159,12.17,1.925,17.787,4.618
		c0.47-0.45,0.642-0.854,0.857-1.419c-5.375-5.795-9.062-13.132-14.314-19.26c-7.007-8.176-15.816-15.383-25.353-20.376
		c-11.267-5.901-23.227-9.095-35.673-11.406c-6.63-1.232-12.913-1.542-19.641-0.997c-3.555,0.289-7.274,0.433-10.776,1.198
		C303.446,51.089,298.871,54.201,301.491,52.09z"/>
</g>
<g>
	<path style="fill:#326AAD;" d="M477.866,278.345c6.268,5.92-4.76,7.424-8.47,7.153c-6.462-0.473-12.873-0.937-19.405-0.789
		c-6.254,0.142-12.462,0.411-18.725,0.418c-10.957,0.013-21.985-0.809-32.927-1.484c-25.404-1.566-51.2,0.294-76.619,1.173
		c-28.36,0.982-56.889-0.224-85.259-0.472c-55.825-0.487-111.696,4.835-167.521,1.086c-4.824-0.324-30.865-2.849-23.941,7.688
		c1.694,2.577,11.094,8.613,8.127,12.399c-2.236,2.854-19.559-1.355-23.611-1.654c-3.851-0.285-2.599,1.277-4.159-2.362
		c-1.677-3.916-0.511-11.561,0.194-15.584c0.193-1.1,0.362-7.244,1.38-8.154c2.146-1.918,10.8-0.517,13.657-0.596
		c22.33-0.613,44.315-1.838,66.659-0.528c38.377,2.251,76.554-0.721,114.879-0.688c48.313,0.041,96.601-0.798,144.916-0.798
		c22.24,0,44.576-0.68,66.796,0.089c9.994,0.346,20,0.335,29.99,0.688C469.174,276.119,475.944,276.528,477.866,278.345z"/>
	<path style="fill:#326AAD;" d="M298.698,52.887c-4.372,0.889-8.814,3.417-12.563,5.768c-5.577,3.498-11.617,6.195-17.261,9.625
		c-9.47,5.755-17.8,14.107-23.655,23.413c-1.14,1.811-4.495,6.502-3.901,8.679c1.045,3.833,5.364,0.986,7.974,0.194
		c11.251-3.412,22.561-5.462,34.257-6.539c24.998-2.301,50.93-8.022,75.982-3.245c12.451,2.374,24.665,6.059,37.151,8.494
		c2.21,0.431,13.283,4.171,15.23,2.235c3.499-3.482-6.26-6.976-7.748-7.778c-13.811-7.454-30.428-8.939-45.783-11.228
		c-11.205-1.67-36.826-3.486-41.518-16.573c-1.75-4.881,2.425-11.297-1.799-14.259c-6.071-4.256-18.613,1.501-23.55,4.806"/>
</g>
<g>
	<path style="fill:#44332B;" d="M76.433,340.195c-9.53,0.479-14.984,17.811-15.65,25.308c-0.546,6.145-0.711,12.176-0.711,18.385
		c0,4.483-1.136,6.984,2.394,8.66c7.791,3.7,20.56,0.364,29.12,0.32c6.019-0.031,5.332-2.676,5.617-8.593
		c0.346-7.167,0.037-15.069-0.898-22.163c-0.831-6.298-2.751-12.096-6.724-17.025C85.479,339.996,82.546,340.931,76.433,340.195z"/>
	<path style="fill:#44332B;" d="M165.818,339.796c-10.015,2.161-14.344,11.884-15.563,21.318
		c-0.861,6.666-1.197,13.266-1.197,20.029c0,2.441-1.141,8.891,0.769,10.646c2.425,2.229,12.006,1.477,15.191,1.499
		c5.308,0.036,10.736-0.787,15.984-1.216c5.255-0.431,5.302-1.914,5.884-7.928c0.688-7.113-0.388-14.41-1.154-21.437
		c-0.627-5.761-1.577-12.121-5.334-16.76C177.648,342.555,170.986,339.345,165.818,339.796z"/>
	<path style="fill:#44332B;" d="M254.005,340.195c-4.013-1.566-9.261,4.446-11.181,7.584c-2.769,4.522-3.194,10.839-3.183,16.023
		c0.014,7.046,0.324,14.186-0.001,21.224c-0.199,4.286-1.644,6.87,1.823,8.676c4.76,2.477,13.444,1.255,18.709,1.273
		c3.15,0.011,10.677,0.721,13.375-1.299c3.564-2.667,2.047-10.178,2.008-14.243c-0.122-12.753,0.247-22.884-7.721-33.553
		c-1.414-1.894-2.983-4.199-5.095-5.306C259.847,339.06,256.299,341.091,254.005,340.195z"/>
	<path style="fill:#44332B;" d="M337.803,340.994c-13.167,4.738-13.159,18.25-13.187,29.796c-0.014,5.866-1.182,11.946-0.49,17.697
		c0.522,4.336,2.071,4.693,6.559,5.194c7.423,0.83,14.754,0.051,22.204-0.393c5.412-0.323,8.364,0.378,8.775-6.107
		c0.648-10.225,0.217-21.953-2.623-31.801C356.608,346.941,347.853,337.8,337.803,340.994z"/>
	<path style="fill:#44332B;" d="M427.987,340.595c-5.495-0.621-11.248,9.949-13.178,14.155c-2.856,6.229-1.744,11.583-1.222,18.066
		c0.546,6.786-3.82,21.421,5.719,21.96c6.182,0.35,13.084-0.402,19.377-0.709c4.221-0.206,9.268-0.415,10.841-4.172
		c3.551-8.478,0.117-23.467-1.188-32.241C446.693,346.612,438.27,335.992,427.987,340.595z"/>
	<path style="fill:#44332B;" d="M182.574,435.748c-2.99-0.06-6.387,1.877-8.387,3.893c-3.115,3.141-4.487,7.624-5.247,11.868
		c-0.871,4.87-0.856,9.883-0.678,14.81c0.055,1.522-0.373,11.883,0.748,12.583c0.03,0.019-0.028-0.093-0.029-0.048
		c2.729,1.812,7.701,0.055,10.964-0.207c4.259-0.342,8.289,0.186,12.548-0.047c1.948-8.696,1.462-19.52-0.63-28.168
		c-0.922-3.813-2.794-10.351-5.662-13.21C185.187,436.208,183.921,435.775,182.574,435.748z"/>
	<path style="fill:#44332B;" d="M233.654,447.537c-2.615,1.035-4.12,1.475-4.808,3.964c-0.848,3.069,0.536,8.741,0.384,12.122
		c-0.391,8.678-0.764,17.266-0.764,25.991c0,3.379-1.42,15.665,1.028,17.747c1.249,1.062,7.69,0.032,9.122,0.031
		c7.244-0.001,14.374,0.022,21.603,0c7.883-0.023,15.992,1.354,23.246-1.668c2.009-9.154,1.481-18.717,0.845-27.972
		c-0.532-7.748,0.399-18.196-2.009-25.562c-1.951-5.972-13.875-3.622-19.429-3.848C253.915,447.981,241.263,445.801,233.654,447.537
		z"/>
	<path style="fill:#44332B;" d="M328.028,436.889c-5.33,4.003-6.947,14.146-7.693,20.56c-0.767,6.599-0.697,13.621-0.358,20.274
		c3.735,0.955,8.061,1.731,11.92,2.006c3.867,0.277,8.845-1.475,12.351-0.606C346.872,469.75,347.176,427.331,328.028,436.889z"/>
</g>
<g>
	<path style="fill:#C69E66;" d="M268.336,411.096c-4.076-1.299-10.207-0.2-14.411-0.031c-3.354,0.134-6.197-0.85-9.531-0.705
		c-3.382,0.147-7.173,0.247-8.85,3.208c-1.695,2.992-2.279,11.453-1.475,14.854c1.799,7.612,23.219,4.026,29.753,4.038
		c4.68,0.008,11.745,0.5,14.114-4.405c1.451-3.006,0.918-10.938-0.306-14.025C275.929,409.743,270.883,411.096,268.336,411.096z"/>
	<path style="fill:#C69E66;" d="M106.44,96.425c-2.023,1.488-3.226,3.583-3.973,5.971c-0.476,1.523-1.445,4.687-0.745,6.25
		c0.797,1.779,6.882,0.792,8.654,0.713c1.92-0.086,5.263,1.074,5.576-1.408c0.335-2.659,0.212-6.196-1.317-8.465
		c-0.813-1.205-1.873-2.431-3.257-2.99C109.082,95.568,107.581,96.596,106.44,96.425z"/>
	<path style="fill:#C69E66;" d="M80.198,154.534c-3.074,1.174-5.225,4.828-5.565,8.06c-0.102,0.967-0.727,3.94-0.111,4.744
		c0.456,0.596,1.984,0.401,2.733,0.472c1.828,0.175,3.7,0.138,5.532,0.223c0.782,0.036,2.717,0.309,3.412-0.119
		c1.863-1.147,1.293-6.298,1.246-8.163C87.352,156.009,83.021,152.776,80.198,154.534z"/>
	<path style="fill:#C69E66;" d="M131.242,162.596c-0.102,0.967-0.727,3.94-0.111,4.744c0.456,0.596,1.984,0.401,2.733,0.472
		c1.828,0.175,3.7,0.138,5.533,0.223c0.782,0.036,2.717,0.309,3.412-0.119c1.863-1.147,1.293-6.298,1.246-8.163
		c-0.049-1.945-1.246-3.746-2.777-4.787c-1.042-0.667-2.093-0.889-3.214-0.877c-0.438,0.063-0.862,0.202-1.257,0.448
		C133.733,155.71,131.582,159.362,131.242,162.596z"/>
	<path style="fill:#C69E66;" d="M102.811,226.953c-0.102,0.967-0.727,3.94-0.111,4.744c0.456,0.596,1.984,0.401,2.733,0.473
		c1.828,0.175,3.7,0.138,5.533,0.223c0.7,0.032,2.32,0.25,3.151-0.011c0.221-0.108,0.413-0.237,0.589-0.376
		c1.463-1.525,0.962-6.148,0.918-7.895c-0.005-0.18-0.028-0.356-0.05-0.532c-0.379-1.144-0.99-2.202-1.947-3.103
		c-1.441-1.358-3.004-1.766-4.708-1.853c-0.186,0.072-0.368,0.162-0.542,0.271C105.302,220.067,103.151,223.719,102.811,226.953z"/>
	<path style="fill:#C69E66;" d="M169.106,232.273c1.863-1.147,1.293-6.298,1.246-8.163c-0.093-3.742-4.425-6.976-7.247-5.217
		c-3.074,1.174-5.225,4.827-5.565,8.06c-0.102,0.959-0.713,3.888-0.122,4.719c0.016,0.016,0.026,0.037,0.042,0.053
		c0.042,0.048,0.091,0.09,0.147,0.127c0.018,0.016,0.04,0.026,0.057,0.042c0.614,0.351,1.847,0.214,2.497,0.275
		c1.828,0.175,3.7,0.138,5.532,0.223C166.476,232.428,168.41,232.7,169.106,232.273z"/>
	<path style="fill:#C69E66;" d="M50.066,232.17c1.828,0.175,3.7,0.138,5.533,0.223c0.782,0.036,2.717,0.309,3.412-0.118
		c1.863-1.147,1.293-6.298,1.246-8.163c-0.012-0.491-0.101-0.972-0.247-1.435c-0.801-1.459-2.053-2.361-3.455-3.654
		c-0.125-0.115-0.242-0.236-0.362-0.353c-1.086-0.383-2.223-0.375-3.186,0.225c-3.074,1.174-5.225,4.827-5.565,8.06
		c-0.102,0.967-0.727,3.94-0.111,4.744C47.789,232.293,49.316,232.098,50.066,232.17z"/>
</g>
<g>
	<path style="fill:#CECECE;" d="M158.339,186.552c-7.913-2.138-16.76-0.008-24.735,0.327c-8.015,0.338-16.736-0.031-23.219-5.331
		c-4.883-3.99-8.112-9.364-11.38-14.685c-3.163-5.15-6.834-13.026-6.437-19.214c0.571-8.885,12.861-12.224,20.199-12.055
		c3.686,0.085,7.119,1.375,10.854,1.228c6.363-0.251,12.677-1.623,19.049-1.979c4.13-0.231,15.609,1.483,17.561-3.943
		c-2.847-0.223-6.451-1.341-9.94-1.504c-6.316-0.294-12.699-0.788-19.026-0.524c-6.703,0.278-13.386,0.16-20.06,0.032
		c-1.847,0.122-3.8,0.114-5.658-0.101c-9.894-0.154-19.775-0.097-29.675,1.433c-7.732,1.195-21.616,1.966-24.457,10.976
		c-1.529,4.845-0.764,11.962-0.49,16.989c0.321,5.873-0.19,11.673,0.292,17.569c0.357,4.352-1.19,17.745,3.354,19.548
		c2.192,0.869,7.44,0.153,9.831,0.232c6.869,0.227,13.772-0.506,20.654-0.393c11.12,0.183,22.147,1.668,33.301,1.219
		c7.129-0.287,14.228-0.931,21.353-0.614c7.093,0.316,14.549,0.656,21.006-2.822C165.754,190.226,162.47,187.668,158.339,186.552z
		 M92.126,184.719c-1.986,3.882-7.148,3.347-10.816,2.995c-3.743-0.36-9.383-0.563-11.426-4.362
		c-2.539-4.721-1.204-12.768-1.012-17.835c0.254-6.703,0.758-20.832,9.298-22.564c0.263-0.377,0.681-0.667,1.29-0.712
		c12.014-0.899,13.305,17.872,13.56,25.926C93.168,172.813,94.37,180.336,92.126,184.719z"/>
	<path style="fill:#CECECE;" d="M137.556,124.518c-1.621-3.561-10.381-2.746-13.569-3.631c-0.901-0.25-1.804-0.549-2.704-0.874
		c-0.153,3.735-0.965,7.347-5.138,8.229c-4.676,0.988-12.748,1.414-16.861-1.47c-4.192-2.939-2.928-8.919-2.919-13.336
		c0.02-8.893-0.041-15.718,4.009-23.636c-0.006-1.56,0.01-3.129,0.001-4.712c-0.008-1.496,0.306-3.309-0.285-4.729
		c-0.344-0.824-1.061-1.353-1.523-2.095c-1.214-1.951-0.973-5.259,1.35-6.285c1.259-0.555,2.848-0.54,4.19-0.745
		c1.865-0.286,3.679-0.584,5.563-0.729c4.431-0.341,8.869-0.42,13.311-0.455c1.76-0.013,6.676,0.515,7.924-1.262
		c0.555-0.791-0.09-1.958-0.663-2.586c-1.342-1.47-4.599-1.277-6.401-1.421c-3.303-0.262-6.557,0.087-9.852,0.336
		c-2.333,0.176-5.676,1.065-7.926,0.241c-2.326-0.851,0.727-3.473,1.586-4.243c1.316-1.179,5.55-3.593,4.182-5.757
		c-0.684-1.08-2.622-0.807-3.667-0.836c-1.788-0.049-3.593-0.059-5.336,0.409c-2.26,0.607-4.458,1.494-6.554,2.534
		c-3.047,1.513-5.464,4.112-7.499,6.791c-2.941,3.869-4.809,8.431-6.063,13.099c-1.292,4.802,0.294,9.876,0.073,14.768
		c-0.324,7.179-0.067,14.424-0.067,21.613c0,3.327-1.355,10.226-0.006,13.342c1.283,2.962,5.321,2.354,8.229,2.643
		c13.021,1.298,26.795,1.561,39.863,0.837C133.61,130.406,139.567,128.937,137.556,124.518z"/>
	<path style="fill:#CECECE;" d="M197.942,258.419c-0.843-4.012-6.809-4.398-10.063-5.085c-4.771-1.007-9.557-1.863-14.351-2.656
		c-0.023,0.012-0.04,0.026-0.063,0.037c-2.711,1.281-5.919,0.646-8.83,0.551c-3.498-0.115-6.65-0.215-9.765-1.935
		c-0.664-0.366-0.48-1.276,0.113-1.542c-4.762-0.729-9.524-1.478-14.278-2.326c-6.388-1.138-12.727-2.603-19.028-4.197
		c0.174,3.439-0.363,7.499-2.427,9.047c-3.075,2.308-7.962,0.808-11.391,0.488c-3.011-0.281-7.092,0.651-9.454-1.787
		c-3.134-3.236-1.513-10.526-0.836-14.431c0.016-0.092,0.055-0.158,0.087-0.231c-3.869-1.472-7.601-3.267-11.072-5.661
		c-5.136-3.541-11.011-9.115-13.265-15.081c-1.407-3.723-1.516-8.2-3.166-11.838c-1.905-4.197-7.24-4.517-11.4-4.891
		c-7.064-0.637-14.177,0.385-17.039-0.737c-3.639,0-7.16-0.212-10.695,0.753c-1.745,0.476-5.887,0.921-7.283,2.298
		c-1.648,1.626-1.48,6.595-1.475,8.653c0.016,6.583,0.33,13.032,0.672,19.599c0.304,5.872,0.605,11.737,0.977,17.602
		c0.225,3.563-0.498,8.332,1.037,11.705c1.255,2.758,2.545,2.15,5.698,2.383c6.959,0.515,13.797,1.512,20.815,1.875
		c16.883,0.87,34.142,0.099,51.082,0.075c17.669-0.026,35.912,0.589,53.51,2.169c7.275,0.654,14.623,0.893,21.922,1.275
		c4.905,0.256,11.942,1.742,16.531-0.558C196.639,262.904,198.482,260.99,197.942,258.419z M66.045,241.914
		c-0.2,3.861-0.072,7.177-4.144,8.653c-4.261,1.544-13.021,1.788-17.101-0.384c-3.843-2.046-2.96-7.148-2.86-10.833
		c0.278-10.172-2.629-25.056,7.792-31.065c0.081-0.136,0.186-0.269,0.334-0.395c3.018-2.552,7.547-1.043,10.5,1.055
		c4.094,2.907,4.777,8.258,5.399,12.901C66.874,228.617,66.397,235.138,66.045,241.914z"/>
</g>
<path d="M279.05,150.168c-1.501-6.603-0.803-18.78-7.518-22.816c-3.81-2.29-7.682-1.709-11.064,0.291
	c-11.007,3.634-10.843,20.273-10.113,29.779c0.225,2.939,0.157,5.983,0.875,8.867c0.667,2.674,0.596,7.018,2.008,9.375
	c2.425,4.051,9.176,2.103,12.843,1.477c4.197-0.716,12.257,0.06,14.31-4.439c1.142-2.501,0.632-5.914,0.341-8.514
	C280.207,159.484,280.104,154.8,279.05,150.168z M261.515,172.903c-0.007,0.001-2.367-0.073-2.579-0.136
	c-0.425-0.002-0.796,0.12-1.115,0.368c-0.151-0.94-0.302-1.878-0.453-2.818c-0.321-2.034-0.901-3.874-1.341-5.863
	c-0.03-0.133-0.059-0.269-0.087-0.403c-0.053-2.576-0.087-5.144-0.312-7.583c-0.59-6.408-1.311-13.593,1.517-19.629
	c1.621-3.458,5.223-6.974,8.825-6.802c-3.163,3.184-4.098,11.75-3.866,14.571c0.508,6.18,1.698,12.217,2.476,18.354
	c0.357,2.819,0.444,6.265,1.276,9.094C264.402,172.405,262.919,172.799,261.515,172.903z M276.261,170.711
	c-0.648,0.876-3.923,0.779-6.318,0.798c-0.031-0.063-0.068-0.122-0.105-0.182c-2.027-5.084-2.181-12.62-2.877-17.93
	c-0.881-6.73-2.975-16.33,2.138-22.135c0.172,0.134,0.346,0.256,0.515,0.415c3.868,3.639,3.638,9.537,4.243,14.456
	c0.551,4.484,1.789,8.775,2.055,13.316C276.067,162.106,277.79,168.639,276.261,170.711z"/>
<path d="M312.616,27.557c-0.439-1.761-0.39-3.223-2.122-4.094c-0.995-0.5-2.796-1.305-3.886-1.239
	c-3.56,0.215-4.513,5.043-5.182,7.604c-0.924,3.534-0.56,6.912-0.188,10.532c0.099,0.964,0.289,2.006,1.01,2.652
	c0.82,0.731,2.042,0.715,3.14,0.656c1.268-0.068,2.534-0.135,3.801-0.204c1.018-0.054,2.076-0.12,2.962-0.621
	c2.069-1.17,1.271-4.669,1.259-6.622C313.392,33.313,313.324,30.393,312.616,27.557z M310.129,37.844
	c-0.169,2.344-1.192,3.602-3.602,2.27c-0.445-0.247-0.815-0.534-1.123-0.856c-1.765-1.85-1.423-4.815-1.059-7.322
	c0.214-1.476,0.658-6.191,2.813-6.293c0.133-0.006,0.268-0.004,0.4,0.013C311.581,26.172,310.313,35.281,310.129,37.844z"/>
<path d="M394.225,127.644c-3.382-2.002-7.253-2.582-11.064-0.291c-6.715,4.035-6.017,16.213-7.518,22.816
	c-1.053,4.632-1.156,9.316-1.683,14.022c-0.291,2.6-0.801,6.013,0.341,8.514c2.053,4.499,10.114,3.723,14.31,4.439
	c3.666,0.626,10.417,2.574,12.843-1.477c1.411-2.358,1.342-6.7,2.008-9.375c0.718-2.884,0.65-5.928,0.875-8.867
	C405.067,147.916,405.231,131.279,394.225,127.644z M387.733,153.397c-0.695,5.31-0.85,12.846-2.877,17.93
	c-0.037,0.059-0.073,0.117-0.105,0.182c-2.395-0.019-5.671,0.079-6.318-0.798c-1.53-2.072,0.193-8.605,0.348-11.26
	c0.267-4.541,1.505-8.831,2.055-13.316c0.605-4.919,0.375-10.817,4.243-14.456c0.169-0.159,0.342-0.28,0.515-0.415
	C390.709,137.067,388.614,146.667,387.733,153.397z M399.065,156.466c-0.225,2.439-0.26,5.006-0.312,7.583
	c-0.029,0.134-0.059,0.272-0.087,0.403c-0.439,1.99-1.02,3.831-1.341,5.863c-0.151,0.94-0.302,1.878-0.451,2.818
	c-0.318-0.248-0.691-0.37-1.115-0.368c-0.212,0.063-2.573,0.138-2.58,0.136c-1.404-0.105-2.886-0.498-4.34-0.849
	c0.832-2.829,0.919-6.274,1.276-9.094c0.777-6.138,1.967-12.175,2.476-18.354c0.232-2.822-0.703-11.386-3.866-14.571
	c3.602-0.172,7.204,3.344,8.825,6.802C400.377,142.873,399.655,150.058,399.065,156.466z"/>
<path d="M348.086,22.223c-1.091-0.066-2.891,0.739-3.886,1.239c-1.732,0.872-1.683,2.333-2.122,4.094
	c-0.707,2.836-0.776,5.756-0.794,8.662c-0.012,1.954-0.81,5.453,1.259,6.622c0.887,0.502,1.945,0.567,2.962,0.621
	c1.267,0.068,2.534,0.135,3.801,0.204c1.098,0.059,2.321,0.075,3.14-0.656c0.723-0.645,0.912-1.688,1.01-2.652
	c0.372-3.62,0.736-6.998-0.188-10.532C352.6,27.267,351.647,22.438,348.086,22.223z M349.29,39.258
	c-0.306,0.322-0.678,0.609-1.123,0.856c-2.41,1.331-3.433,0.073-3.602-2.27c-0.184-2.562-1.452-11.672,2.57-12.187
	c0.132-0.017,0.267-0.02,0.4-0.013c2.155,0.102,2.599,4.816,2.813,6.293C350.713,34.443,351.056,37.408,349.29,39.258z"/>
<path d="M327.385,17.899c-5.315,1.383-7.216,5.831-7.585,10.803c-0.099,0.125-0.182,0.275-0.22,0.482
	c-0.462,2.509-0.265,4.702-0.277,7.215c-0.008,1.669-0.692,3.657,0.47,5.091c0.906,1.119,2.459,1.353,3.794,1.465
	c3.195,0.269,6.593-0.176,9.792-0.224c1.17-0.018,1.938-0.922,2.034-2.034C335.877,35.055,337.562,15.253,327.385,17.899z
	 M331.778,38.531c-0.842-0.028-1.683-0.017-2.574-0.045c-0.821-0.026-5.473,0.345-5.746,0.129c-0.286-0.226-0.599-1.635-0.877-3.297
	c-0.321-4.927-0.301-10.331,3.383-13.099c5.932-4.458,5.685,4.191,5.88,7.893C331.992,32.912,332.273,35.763,331.778,38.531z"/>
<path d="M344.731,128.348c-0.97-3.983-1.787-8.288-5.224-10.952c-3.813-2.957-9.365-2.966-13.912-2.201
	c-9.588,1.611-13.889,10.967-15.853,19.424c-1.306,5.623-1.012,11.194-0.936,16.908c0.028,2.054-0.019,4.409,0.062,6.794
	c-0.801,3.812-0.718,8.456,1.176,10.942c3.741,4.909,14.507,3.182,19.653,3.359c4.334,0.148,13.292,2.248,16.379-1.993
	c1.69-2.322,1.019-6.989,1.164-9.689c0.213-3.979,0.369-7.974,0.006-11.948C346.598,141.899,346.418,135.28,344.731,128.348z
	 M342.222,155.454c-0.211,3.59-1.49,7.604-0.87,11.142c-0.259,0.433-1.043,0.316-3.061,0.481c-3.095,0.254-6.147,0.293-9.233,0.073
	c-4.015-0.286-13.163,1.925-15.624-2.212c-0.087-0.148-0.164-0.302-0.238-0.457c-0.193-7.755-0.405-15.826,0.326-23.462
	c0.836-8.735,4.087-20.321,14.399-21.199c4.805-0.409,9.037-0.048,10.968,5.027c1.648,4.329,2.631,9.578,2.77,14.185
	C341.826,144.498,342.542,149.992,342.222,155.454z"/>
<path d="M94.419,245.282c0.615,5.901,2.113,7.544,8.373,8.398c5.051,0.688,11.448,2.009,16.435,0.424
	c3.206-1.019,4.109-3.401,4.261-6.112c0.288-0.545,0.399-1.184,0.278-1.767c0.667-10.177-0.201-20.729-2.095-30.74
	c-1.554-8.218-7.701-13.448-16.093-11.087c-8.228,2.315-10.128,11.35-10.936,18.77c-0.379,3.492-0.226,6.913-0.032,10.362
	C94.163,237.46,94.021,241.483,94.419,245.282z M107.345,220.329c0.943-0.193,1.86-0.119,2.847,0.101
	c3.315,0.737,3.922,3.843,4.034,6.838c0.023,0.612,0.192,1.429,0.066,2.041c-0.124,0.605-0.589,1.088-0.517,1.183
	c-0.737,0.139-1.579,0.044-2.167,0.043c-1.523-0.002-3.042-0.168-4.557-0.186c-1.022-0.012-2.193,0.475-3.261,0.488
	c-0.256-1.84-0.279-3.791,0.25-5.561c0.444-1.484,1.36-2.95,2.298-4.326C106.78,220.729,107.55,220.34,107.345,220.329z
	 M104.249,209.221c0.696-0.444,1.411-0.788,2.134-1.049c-0.071,1.674-0.105,3.354-0.111,5.027c-0.005,1.161-0.041,2.658,0.363,3.879
	c-1.091,0.399-2.052,1.135-2.516,2.148c-0.846,0.633-1.494,1.526-1.901,2.637c-0.241,0.657-0.524,1.334-0.741,2.022
	c-1.001,2.472-1.137,5.386-0.733,7.97c0.431,2.749,3.147,2.284,5.34,2.037c0.151-0.017,0.304-0.016,0.456-0.025
	c-0.059,0.233-0.101,0.479-0.132,0.74c-0.012,0.102-0.023,0.205-0.035,0.306c0.056-0.509-0.006,0.023-0.036,0.231
	c-0.108,0.769-0.18,1.354,0.013,2.124c0.292,1.173,1.675,1.992,2.843,1.614c1.241-0.401,1.894-1.577,1.614-2.843
	c-0.148-0.673-0.233-1.344-0.397-1.986c1.482,0.126,2.959,0.18,4.36-0.283c4.715-1.555,2.692-10.774,0.713-13.797
	c-1.195-1.824-3.433-2.789-5.597-3.12c0.419-1.182,0.405-2.488,0.528-3.791c0.169-1.792,0.193-3.585,0.286-5.379
	c3.006,0.413,5.624,2.449,6.719,6.006c0.921,2.987,0.814,6.615,1.192,9.699c0.707,5.75,0.928,11.577,0.73,17.394
	c-0.03,0.068-0.063,0.132-0.089,0.206c-0.808,2.452,0.105,5.105-0.675,7.505c-0.354,1.089,0.278,0.596-1.162,1.028
	c-4.347,1.302-9.992,0.231-14.407-0.449c-0.822-0.127-2.577-0.229-3.57-0.743c0.165-0.117-0.151-1.021-0.199-1.232
	c-0.535-2.328-0.742-4.705-0.929-7.08c-0.045-4.744-0.269-9.973-0.272-10.962C98.028,222.976,98.56,212.854,104.249,209.221z"/>
<path d="M39.052,245.282c0.615,5.901,2.113,7.544,8.373,8.398c5.051,0.688,11.448,2.009,16.435,0.424
	c3.206-1.019,4.109-3.401,4.261-6.112c0.289-0.545,0.397-1.184,0.278-1.767c0.667-10.177-0.201-20.729-2.095-30.74
	c-1.554-8.218-7.701-13.448-16.093-11.087c-8.228,2.315-10.128,11.35-10.936,18.77c-0.379,3.492-0.226,6.913-0.032,10.362
	C38.796,237.46,38.655,241.483,39.052,245.282z M51.979,220.329c0.943-0.193,1.86-0.119,2.847,0.101
	c3.315,0.737,3.922,3.843,4.034,6.838c0.023,0.612,0.192,1.429,0.066,2.041c-0.125,0.605-0.589,1.088-0.517,1.183
	c-0.737,0.139-1.579,0.044-2.167,0.043c-1.523-0.002-3.042-0.168-4.557-0.186c-1.022-0.012-2.193,0.475-3.261,0.488
	c-0.256-1.84-0.279-3.791,0.25-5.561c0.444-1.484,1.36-2.95,2.298-4.326C51.413,220.729,52.183,220.34,51.979,220.329z
	 M48.883,209.221c0.696-0.444,1.411-0.788,2.134-1.049c-0.071,1.674-0.105,3.354-0.111,5.027c-0.004,1.161-0.041,2.658,0.363,3.879
	c-1.091,0.399-2.052,1.135-2.516,2.148c-0.846,0.633-1.494,1.526-1.901,2.637c-0.241,0.657-0.524,1.334-0.741,2.022
	c-1,2.472-1.137,5.386-0.733,7.97c0.431,2.749,3.147,2.284,5.34,2.037c0.151-0.017,0.304-0.016,0.456-0.025
	c-0.059,0.233-0.101,0.479-0.132,0.74c-0.012,0.102-0.023,0.205-0.035,0.306c0.056-0.509-0.006,0.023-0.036,0.231
	c-0.108,0.769-0.18,1.354,0.012,2.124c0.292,1.173,1.676,1.992,2.843,1.614c1.241-0.401,1.895-1.577,1.614-2.843
	c-0.15-0.673-0.233-1.344-0.399-1.986c1.482,0.126,2.959,0.18,4.36-0.283c4.715-1.555,2.692-10.774,0.713-13.797
	c-1.195-1.824-3.433-2.789-5.597-3.12c0.419-1.182,0.405-2.488,0.528-3.791c0.169-1.792,0.193-3.585,0.286-5.379
	c3.006,0.413,5.624,2.449,6.719,6.006c0.921,2.987,0.814,6.615,1.192,9.699c0.707,5.75,0.928,11.577,0.73,17.394
	c-0.03,0.068-0.063,0.132-0.089,0.206c-0.808,2.452,0.105,5.105-0.675,7.505c-0.354,1.089,0.278,0.596-1.164,1.028
	c-4.347,1.302-9.992,0.231-14.407-0.449c-0.822-0.127-2.577-0.229-3.57-0.743c0.165-0.117-0.151-1.021-0.2-1.232
	c-0.535-2.328-0.742-4.705-0.929-7.08c-0.045-4.744-0.269-9.973-0.272-10.962C42.661,222.976,43.193,212.854,48.883,209.221z"/>
<path d="M149.785,245.282c0.615,5.901,2.113,7.544,8.373,8.398c5.051,0.688,11.448,2.009,16.435,0.424
	c3.206-1.019,4.109-3.401,4.261-6.112c0.288-0.545,0.397-1.184,0.278-1.767c0.667-10.177-0.201-20.729-2.094-30.74
	c-1.554-8.218-7.701-13.448-16.093-11.087c-8.228,2.315-10.128,11.35-10.936,18.77c-0.379,3.492-0.226,6.913-0.032,10.362
	C149.529,237.46,149.388,241.483,149.785,245.282z M162.712,220.329c0.943-0.193,1.86-0.119,2.847,0.101
	c3.314,0.737,3.922,3.843,4.034,6.838c0.023,0.612,0.192,1.429,0.066,2.041c-0.125,0.605-0.589,1.088-0.517,1.183
	c-0.736,0.139-1.579,0.044-2.167,0.043c-1.523-0.002-3.042-0.168-4.557-0.186c-1.022-0.012-2.193,0.475-3.261,0.488
	c-0.256-1.84-0.279-3.791,0.25-5.561c0.444-1.484,1.36-2.95,2.298-4.326C162.147,220.729,162.917,220.34,162.712,220.329z
	 M159.616,209.221c0.696-0.444,1.411-0.788,2.134-1.049c-0.071,1.674-0.105,3.354-0.111,5.027c-0.004,1.161-0.041,2.658,0.363,3.879
	c-1.091,0.399-2.052,1.135-2.516,2.148c-0.846,0.633-1.494,1.526-1.901,2.637c-0.241,0.657-0.524,1.334-0.741,2.022
	c-1.001,2.472-1.137,5.386-0.733,7.97c0.431,2.749,3.147,2.284,5.34,2.037c0.151-0.017,0.304-0.016,0.456-0.025
	c-0.059,0.233-0.102,0.479-0.132,0.74c-0.012,0.102-0.023,0.205-0.035,0.306c0.056-0.509-0.006,0.023-0.036,0.231
	c-0.108,0.769-0.18,1.354,0.012,2.124c0.292,1.173,1.675,1.992,2.843,1.614c1.241-0.401,1.894-1.577,1.614-2.843
	c-0.148-0.673-0.233-1.344-0.397-1.986c1.482,0.126,2.959,0.18,4.36-0.283c4.715-1.555,2.692-10.774,0.713-13.797
	c-1.195-1.824-3.433-2.789-5.597-3.12c0.419-1.182,0.405-2.488,0.528-3.791c0.169-1.792,0.193-3.585,0.286-5.379
	c3.006,0.413,5.624,2.449,6.719,6.006c0.921,2.987,0.813,6.615,1.192,9.699c0.707,5.75,0.928,11.577,0.73,17.394
	c-0.03,0.068-0.063,0.132-0.089,0.206c-0.808,2.452,0.105,5.105-0.675,7.505c-0.354,1.089,0.278,0.596-1.162,1.028
	c-4.347,1.302-9.992,0.231-14.407-0.449c-0.822-0.127-2.577-0.229-3.57-0.743c0.165-0.117-0.151-1.021-0.2-1.232
	c-0.535-2.328-0.742-4.705-0.929-7.08c-0.045-4.744-0.269-9.973-0.272-10.962C153.395,222.976,153.926,212.854,159.616,209.221z"/>
<path d="M66.436,181.086c0.615,5.901,2.113,7.544,8.373,8.398c5.051,0.688,11.448,2.009,16.435,0.424
	c3.206-1.019,4.109-3.401,4.261-6.112c0.288-0.545,0.399-1.184,0.278-1.767c0.667-10.177-0.201-20.729-2.095-30.74
	c-1.554-8.218-7.701-13.448-16.093-11.087c-8.228,2.315-10.128,11.35-10.936,18.77c-0.379,3.492-0.226,6.913-0.032,10.362
	C66.18,173.264,66.039,177.288,66.436,181.086z M79.363,156.133c0.943-0.193,1.86-0.119,2.847,0.101
	c3.315,0.737,3.922,3.843,4.034,6.838c0.023,0.612,0.192,1.429,0.066,2.041c-0.124,0.605-0.589,1.088-0.517,1.183
	c-0.737,0.139-1.579,0.044-2.167,0.043c-1.523-0.002-3.042-0.168-4.557-0.186c-1.022-0.012-2.193,0.475-3.261,0.488
	c-0.256-1.84-0.279-3.791,0.25-5.561c0.444-1.484,1.36-2.95,2.298-4.326C78.798,156.533,79.567,156.144,79.363,156.133z
	 M76.267,145.025c0.696-0.444,1.411-0.788,2.134-1.049c-0.071,1.674-0.105,3.354-0.111,5.027c-0.005,1.162-0.041,2.658,0.363,3.88
	c-0.907,0.333-1.707,0.91-2.224,1.674c-0.217,0.248-0.415,0.499-0.594,0.739c-0.696,0.611-1.244,1.402-1.599,2.373
	c-0.241,0.657-0.524,1.334-0.741,2.022c-1,2.472-1.137,5.386-0.733,7.97c0.431,2.749,3.147,2.284,5.34,2.037
	c0.151-0.017,0.304-0.016,0.456-0.025c-0.059,0.233-0.101,0.479-0.132,0.74c-0.012,0.102-0.023,0.205-0.035,0.306
	c0.056-0.509-0.006,0.023-0.036,0.231c-0.108,0.769-0.18,1.354,0.013,2.124c0.292,1.173,1.675,1.992,2.843,1.614
	c1.241-0.401,1.894-1.577,1.614-2.843c-0.148-0.673-0.233-1.344-0.397-1.986c1.482,0.126,2.959,0.18,4.36-0.283
	c4.715-1.555,2.692-10.774,0.713-13.797c-1.195-1.824-3.433-2.789-5.597-3.12c0.419-1.182,0.405-2.488,0.528-3.791
	c0.169-1.792,0.193-3.585,0.286-5.379c3.006,0.414,5.624,2.449,6.719,6.006c0.921,2.987,0.814,6.615,1.192,9.699
	c0.708,5.75,0.928,11.577,0.73,17.394c-0.03,0.068-0.063,0.132-0.089,0.206c-0.808,2.452,0.105,5.105-0.675,7.505
	c-0.354,1.089,0.278,0.596-1.162,1.028c-4.347,1.302-9.992,0.231-14.407-0.449c-0.822-0.127-2.577-0.229-3.57-0.743
	c0.165-0.117-0.151-1.021-0.2-1.232c-0.535-2.328-0.742-4.705-0.929-7.08c-0.045-4.744-0.269-9.973-0.272-10.962
	C70.045,158.78,70.577,148.659,76.267,145.025z"/>
<path d="M122.85,181.086c0.615,5.901,2.113,7.544,8.373,8.398c5.051,0.688,11.448,2.009,16.435,0.424
	c3.206-1.019,4.109-3.401,4.261-6.112c0.289-0.545,0.399-1.184,0.278-1.767c0.667-10.177-0.201-20.729-2.095-30.74
	c-1.554-8.218-7.701-13.448-16.093-11.087c-8.228,2.315-10.128,11.35-10.936,18.77c-0.379,3.492-0.226,6.913-0.032,10.362
	C122.594,173.264,122.453,177.288,122.85,181.086z M135.777,156.133c0.943-0.193,1.86-0.119,2.847,0.101
	c3.315,0.737,3.922,3.843,4.034,6.838c0.023,0.612,0.192,1.429,0.066,2.041c-0.124,0.605-0.589,1.088-0.517,1.183
	c-0.737,0.139-1.579,0.044-2.167,0.043c-1.523-0.002-3.042-0.168-4.557-0.186c-1.022-0.012-2.193,0.475-3.261,0.488
	c-0.256-1.84-0.279-3.791,0.25-5.561c0.444-1.484,1.36-2.95,2.298-4.326C135.212,156.533,135.981,156.144,135.777,156.133z
	 M132.681,145.025c0.696-0.444,1.411-0.788,2.134-1.049c-0.071,1.674-0.105,3.354-0.111,5.027c-0.005,1.162-0.041,2.658,0.363,3.88
	c-1.091,0.399-2.052,1.135-2.516,2.148c-0.846,0.633-1.494,1.526-1.901,2.637c-0.241,0.657-0.524,1.334-0.741,2.022
	c-1.001,2.472-1.137,5.386-0.733,7.97c0.431,2.749,3.147,2.284,5.34,2.037c0.151-0.017,0.304-0.016,0.456-0.025
	c-0.059,0.233-0.101,0.479-0.132,0.74c-0.012,0.102-0.023,0.205-0.035,0.306c0.056-0.509-0.006,0.023-0.036,0.231
	c-0.108,0.769-0.18,1.354,0.013,2.124c0.292,1.173,1.675,1.992,2.843,1.614c1.241-0.401,1.894-1.577,1.614-2.843
	c-0.148-0.673-0.233-1.344-0.397-1.986c1.482,0.126,2.959,0.18,4.36-0.283c4.715-1.555,2.692-10.774,0.713-13.797
	c-1.195-1.824-3.433-2.789-5.597-3.12c0.419-1.182,0.405-2.488,0.528-3.791c0.169-1.792,0.193-3.585,0.286-5.379
	c3.006,0.414,5.624,2.449,6.719,6.006c0.921,2.987,0.814,6.615,1.192,9.699c0.708,5.75,0.928,11.577,0.73,17.394
	c-0.03,0.068-0.063,0.132-0.089,0.206c-0.808,2.452,0.105,5.105-0.675,7.505c-0.354,1.089,0.278,0.596-1.162,1.028
	c-4.347,1.302-9.992,0.231-14.407-0.449c-0.822-0.127-2.577-0.229-3.57-0.743c0.165-0.117-0.151-1.021-0.199-1.232
	c-0.535-2.328-0.742-4.705-0.929-7.08c-0.045-4.744-0.269-9.973-0.272-10.962C126.46,158.78,126.991,148.659,132.681,145.025z"/>
<path d="M492.203,349.446c-0.273-3.831-0.555-7.686-0.806-11.538c1.34-3.925,0.047-9.456-0.23-13.081
	c-0.474-6.22-0.591-12.841-1.512-18.948c-0.206-1.364-1.561-2.374-2.768-2.768c-1.215-0.396-2.539-0.582-3.905-0.666
	c-0.006-0.138-0.014-0.274-0.035-0.408c-0.042-5.923-0.294-11.727-0.674-17.674c-0.056-0.877-0.038-2.07-0.19-3.215
	c6.304-0.617,7.371-3.163,7.948-9.6c0.352-3.924,2.344-10.239-1.622-12.929c-2.308-1.566-5.946-1.025-8.519-0.964
	c-2.952,0.069-5.953-0.034-8.904,0.13c-0.7,0.04-1.403,0.057-2.105,0.081c0.093-2.528-0.263-5.207-0.188-7.675
	c0.122-3.958,0.035-7.557-0.338-11.533c-0.627-6.686-2.576-11.681-9.919-12.615c-8.326-1.058-16.706-0.291-25.034,0.104
	c0.249-1.109,0.403-2.389,0.497-3.892c0.394-6.278,1.718-13.909-0.672-19.969c-1.683-4.269-5.889-5.643-10.077-6.473
	c0.302-0.504,0.481-1.08,0.442-1.729c-0.342-5.603,0.572-11.494,0.448-17.161c-0.141-6.488-0.115-13.031,0.06-19.515
	c0.17-6.336,0.566-12.929,0.002-19.242c-0.359-4.019-0.442-8.386-1.524-12.36c3.442,0.735,7.372,0.942,9.765-1.596
	c5.053-5.359-0.576-13.331-5.003-16.988c-2.717-2.245-5.767-3.745-8.954-4.915c-0.911-3.863-4.161-7.782-6.233-11.063
	c-2.295-3.631-4.654-6.751-7.42-10.046c-6.757-8.052-13.678-14.95-22.748-20.319c-5.51-3.262-11.158-6.672-17.113-9.238
	c1.018-4.342,0.336-9.697,0-13.694c-0.424-5.043,0.243-10.966-1.99-15.685c3.126-1.264,6.08-4.097,6.329-7.623
	c0.299-4.244-3.806-6.857-7.172-8.459c-6.188-2.945-14.79-5.886-22.673-5.756c-4.803-0.899-10.628-0.144-14.619,0.148
	c-1.704,0.125-3.431,0.193-5.166,0.26c-8.893-1.622-19.604,1.862-26.93,5.349c-3.366,1.603-7.472,4.215-7.172,8.459
	c0.249,3.526,3.203,6.358,6.329,7.623c-2.234,4.718-1.566,10.641-1.99,15.685c-0.336,3.996-1.016,9.352,0,13.694
	c-5.953,2.565-11.602,5.976-17.113,9.238c-9.069,5.37-15.991,12.268-22.748,20.319c-2.765,3.294-5.125,6.414-7.42,10.046
	c-2.073,3.281-5.322,7.201-6.233,11.063c-3.188,1.171-6.238,2.672-8.954,4.915c-4.428,3.657-10.056,11.629-5.004,16.988
	c2.394,2.539,6.323,2.332,9.765,1.596c-1.083,3.973-1.165,8.34-1.524,12.36c-0.564,6.314-0.168,12.906,0.002,19.242
	c0.174,6.484,0.201,13.026,0.059,19.515c-0.124,5.667,0.791,11.558,0.449,17.161c-0.04,0.649,0.14,1.225,0.442,1.729
	c-4.19,0.83-8.395,2.204-10.077,6.473c-2.389,6.06-1.065,13.691-0.672,19.969c0.078,1.235,0.194,2.322,0.371,3.288
	c-0.315,0-0.63-0.001-0.937-0.01c-4.848-0.13-12.121-1.178-17.668,0.403c0.536-3.031,0.509-6.352,0.66-8.322
	c0.387-5.043,0.321-9.988,0.257-15.039c-0.049-3.81-0.991-6.286-3.736-7.385c-0.479-0.752-1.285-1.311-2.376-1.361
	c-9.587-0.441-19.204-0.795-28.835-1.051c0.104-0.637,0.066-1.269-0.128-1.844c-0.827-12.199,0.097-24.477-0.401-36.687
	c-0.257-6.318-0.105-13.42-1.683-19.566c-1.004-3.91-3.418-7.041-7.469-7.802c-4.839-0.907-10.338-0.047-15.232,0.081
	c-0.983,0.025-1.969,0.044-2.954,0.065c0.676-2.846-0.346-6.467-0.579-9.17c-0.312-3.609-0.874-7.197-1.149-10.805
	c-0.684-8.97-0.445-18.045-1.276-26.985c-0.221-2.38-0.342-4.583-0.943-6.35c1.487-12.312-12.852-22.282-24.128-23.337
	c0.192-2.685,0.189-5.409,0.123-8.143c1.481,0.038,2.963,0.047,4.448-0.034c3.53-0.192,3.518-5.757,0-5.495
	c-1.545,0.116-3.089,0.142-4.632,0.145c-0.005-0.111-0.008-0.223-0.013-0.334c0.109-2.921,0.11-5.843-0.165-8.766
	c0.066-3.267-4.876-3.229-5.051,0c-0.159,2.951-0.443,6.017-0.644,9.089c-1.684,0.022-3.369,0.108-5.053,0.306
	c-0.284,0.019-0.578,0.05-0.898,0.103c-2.759,0.454-2.145,5.167,0.666,4.917c1.694-0.151,3.382-0.166,5.069-0.134
	c-0.022,1.774,0.022,3.531,0.183,5.247c0.092,0.98,0.121,2.176,0.417,3.237C94.224,52.12,81.72,61.942,81.046,75.346
	c-0.012,0.242,0.042,0.472,0.121,0.692c-0.356,0.893-0.627,1.873-0.758,3.006c-0.854,7.419-0.122,15.25-0.259,22.731
	c-0.09,4.845-0.394,9.627-0.241,14.476c0.111,3.534-0.224,7.271,1.002,10.6c-5.57,0.378-11.139,0.7-16.707,1.112
	c-4.636,0.342-9.736,0.69-12.223,5.132c-5.765,10.298-3.693,24.31-4.908,35.653c-0.589,5.502-0.771,10.973-0.706,16.502
	c0.032,2.757-0.183,6.16,0.74,8.932c-1.275,0.034-2.552,0.053-3.827,0.092c-1.501,0.048-2.994,0.154-4.483,0.286
	c-2.7-0.824-6.141,0.007-8.77,0.114c-3.405,0.138-7.791-0.218-10.264,2.61c-2.755,3.148-1.237,8.18-1.019,11.913
	c0.182,3.108,0.406,6.217,0.702,9.318c0.229,7.634,0.864,15.235,1.025,22.87c0.12,5.691-1.545,13.808,1.481,19.22
	c-0.454,0.497-0.846,1.093-1.148,1.816c-1.711,4.099-3.588,13.568,1.296,16.24c0.669,0.366,1.417,0.611,2.201,0.784
	c-1.938,5.288-1.598,11.351-1.769,16.881c-0.114,3.678-0.534,8.182,2.027,10.642c-1.353,2.203-1.44,5.049-1.802,7.778
	c-1.556,11.762-1.03,23.496-1.015,35.328c0.014,11.889,0.52,23.78,0.147,35.673c-0.274,8.74-0.56,17.258,1.307,25.57
	c0.081,3.054,0.201,6.096-0.075,9.23c-0.807,9.158-1.73,18.225-1.729,27.431c0.001,9.488-0.198,19.027-0.448,28.506
	c-0.164,6.213-0.743,13.276,0.382,19.733c-0.47,3.897,0.006,8.177,1.715,10.541c3.561,4.921,13.92,4.052,19.315,4.305
	c17.31,0.812,34.569-0.192,51.866-0.52c17.058-0.324,34.078-0.922,51.137-0.532c10.535,0.241,21.019,1.217,31.567,1.171
	c4.245-0.019,8.368-0.119,12.458-0.314c3.997,0.187,8.005,0.279,11.968,0.436c17.01,0.673,34.252,0.493,51.275,0.117
	c15.347-0.339,30.937-0.761,46.267-0.309c11.855,0.35,23.701,0.771,35.511,0.229c1.003-0.02,1.985-0.043,2.934-0.061
	c7.468-0.133,15.031,0.333,22.517,0.514c17.868,0.43,35.642,0.154,53.491-0.429c18.419-0.601,36.842-0.353,55.249-0.505
	c6.706-0.055,17.458,1.93,21.719-4.926c2.52-4.053,2.101-10.221,0.723-15.345c0.066-1.982-0.036-3.989-0.101-5.916
	c-0.178-5.273-0.164-10.53-0.011-15.803c0.321-11.052,0.64-22.084,0.561-33.147c-0.079-11.06,0.536-22.104,0.388-33.159
	c-0.022-1.574-0.019-3.208-0.018-4.871c0.608-1.68,0.923-3.563,1.057-4.496C494.969,378.916,493.221,363.762,492.203,349.446z
	 M303.652,7.125c2.04-0.555,4.165-1.044,6.306-1.342c3.334-0.002,6.676,0.23,10.003,0.171c4.056-0.072,8.071-0.323,12.124-0.36
	c1.95,0.356,3.952,0.188,6.054,0.02c0.933-0.012,1.873-0.049,2.8-0.126c3.4,0.028,6.857,0.753,10.102,1.636
	c3.522,0.958,12.663,3.297,11.525,8.224c-0.133,0.577-1.156,2.133-2.102,3.354c-4.482-5.006-11.953-7.018-19.22-7.324
	c-5.625-2.246-13.478-0.955-18.858-0.521c-1.605,0.129-3.172,0.312-4.721,0.529c-8.446-0.371-18.078,1.331-23.437,7.317
	c-0.946-1.222-1.969-2.779-2.102-3.354C290.989,10.422,300.13,8.082,303.652,7.125z M358.965,49.454
	c-0.789-0.242-1.575-0.49-2.377-0.691c-10.142-2.539-19.124-2.921-29.241-1.561c-10.118-1.36-19.099-0.978-29.241,1.561
	c-0.801,0.201-1.589,0.449-2.377,0.691c0.273-2.096,0.273-4.264,0.388-6.354c0.247-4.483,0.494-9.102,1.036-13.56
	c0.698-5.751,4.366-8.879,9.512-11.187c1.262-0.565,2.661-1.099,4.131-1.593c3.863-0.333,7.73-0.681,11.591-0.968
	c4.279-0.318,8.468-0.293,12.761-0.328c1.662-0.013,3.8,0.358,5.796,0.388c2.552,0.719,5,1.568,7.083,2.502
	c5.146,2.307,8.814,5.436,9.512,11.187c0.541,4.458,0.789,9.077,1.035,13.56C358.692,45.189,358.692,47.357,358.965,49.454z
	 M245.628,99.47c2.352-3.14,4.615-6.401,7.085-9.414c6.419-7.829,13.241-16.248,22.034-21.466
	c7.438-4.414,15.057-9.579,23.309-12.345c5.273-1.766,10.612-3.169,16.134-3.819c4.362-0.514,8.81-0.511,13.158-1.11
	c4.347,0.6,8.795,0.597,13.158,1.11c5.521,0.649,10.86,2.053,16.134,3.819c8.252,2.764,15.871,7.931,23.309,12.345
	c8.792,5.217,15.615,13.636,22.034,21.466c2.47,3.013,4.732,6.274,7.085,9.414c0.014,0.018,0.028,0.039,0.042,0.057
	c-0.844-0.232-1.686-0.467-2.521-0.712c-6.306-1.854-12.28-4.599-18.859-5.901c-8.713-1.724-17.608-3.019-26.43-4.071
	c-2.558-0.305-4.987-1.131-7.518-1.462c-1.28-0.166-2.558-0.104-3.838-0.016c-8.263-1.433-17.182-1.2-25.015-1.323
	c-6.655-0.104-13.319,0.345-19.901,1.342c-1.372-0.098-2.743-0.182-4.113-0.004c-2.531,0.329-4.96,1.156-7.517,1.462
	c-8.822,1.052-17.717,2.348-26.43,4.071c-6.579,1.301-12.552,4.046-18.859,5.901c-0.836,0.245-1.677,0.48-2.521,0.712
	C245.6,99.51,245.615,99.488,245.628,99.47z M227.742,118.312c-0.983-3.257,6.02-7.89,8.142-9.09
	c3.016-1.706,6.436-2.86,9.749-3.857c5.247-1.579,10.166-3.421,15.44-5.091c6.17-1.954,12.524-2.616,18.873-3.751
	c7.834-1.401,16.037-4.204,23.94-4.68c3.809-0.229,9.129,0.195,13.3-1.034c2.597-0.031,5.184-0.012,7.741,0.104
	c5.26,0.239,10.541,0.549,15.78,1.055c6.985,0.673,14.109,2.164,21.106,1.719c0.055-0.004,0.103-0.025,0.154-0.036
	c4.296,0.98,8.591,2.125,12.779,2.873c6.348,1.135,12.703,1.797,18.873,3.751c5.276,1.67,10.195,3.512,15.44,5.091
	c3.314,0.997,6.734,2.151,9.749,3.857c2.121,1.2,9.124,5.832,8.142,9.09c-0.296,0.978-7.812-1.519-12.13-3.01
	c-2.634-1.334-5.519-2.727-8.15-3.703c-3.504-1.299-7.72-1.749-11.377-2.896c-4.216-1.323-8.388-2.677-12.591-3.991
	c-4.146-1.296-8.465-1.792-12.693-2.865c-5.004-1.27-10.259-1.993-15.391-2.588c-8.075-0.936-16.122-0.634-24.22-0.742
	c-0.226-0.093-0.478-0.154-0.776-0.141c-0.76,0.035-1.518,0.051-2.277,0.074c-0.759-0.023-1.517-0.039-2.277-0.074
	c-0.298-0.014-0.549,0.048-0.776,0.141c-8.097,0.108-16.146-0.194-24.22,0.742c-5.132,0.595-10.386,1.318-15.391,2.588
	c-4.227,1.073-8.546,1.568-12.692,2.865c-4.204,1.314-8.376,2.668-12.592,3.991c-3.656,1.147-7.872,1.597-11.377,2.896
	c-2.631,0.976-5.516,2.369-8.15,3.703C235.554,116.793,228.037,119.291,227.742,118.312z M418.033,138.99
	c0.011,6.727-0.854,13.497-1.172,20.21c-0.316,6.662-0.407,13.327-0.482,20.003c-0.053,4.599-1.348,10.715-0.096,15.323
	c-0.607-0.11-1.237-0.214-1.872-0.293c-2.401-0.482-4.79-0.861-7.033-1.238c-9.129-1.532-18.323-3.312-27.556-4.02
	c-13.781-1.056-28.274-4.154-42.092-2.158c-5.674-0.158-11.332-0.353-17.016-0.417c-2.142-0.024-4.262,0.012-6.376,0.084
	c-13.02-1.29-26.557,1.501-39.467,2.49c-9.233,0.708-18.427,2.488-27.556,4.02c-2.243,0.376-4.632,0.755-7.033,1.238
	c-0.636,0.079-1.265,0.182-1.872,0.293c1.252-4.608-0.043-10.725-0.096-15.323c-0.075-6.675-0.166-13.341-0.482-20.003
	c-0.318-6.712-1.183-13.483-1.172-20.21c0.007-4.525,0.973-9.838-0.243-14.334c0.235-0.069,0.458-0.135,0.667-0.194
	c7.762-2.191,15.632-4.89,23.274-7.488c4.75-1.615,9.448-3.724,14.364-4.817c3.794-0.843,6.636-1.608,9.779-3.041
	c0.37-0.08,0.74-0.158,1.109-0.25c3.33-0.83,6.843-1.403,10.344-1.858c6.79,0.88,14.608-0.05,20.95-0.148
	c4.494-0.069,8.958-0.625,13.445-0.643c3.511-0.013,6.936,0.05,10.365-0.286c3.986,0.101,7.986-0.006,11.689,0.354
	c5.494,0.535,11.324,1.246,16.679,2.581c0.369,0.092,0.739,0.17,1.109,0.25c3.144,1.433,5.986,2.197,9.779,3.041
	c4.918,1.093,9.615,3.202,14.365,4.817c7.642,2.598,15.512,5.297,23.274,7.488c0.208,0.059,0.432,0.124,0.667,0.194
	C417.06,129.152,418.026,134.464,418.033,138.99z M227.344,208.145c0.215-2.468,1.375-3.986,3.022-4.979
	c1.487-0.117,2.984-0.447,4.338-0.719c4.543-0.918,8.963-1.821,13.538-2.568c9.128-1.49,18.47-2.905,27.685-3.646
	c8.594-0.692,17.071-2.122,25.69-2.569c8.549-0.444,17.265,0.656,25.728-0.168c8.464,0.824,17.18-0.275,25.728,0.168
	c8.619,0.448,17.097,1.877,25.69,2.569c9.214,0.742,18.557,2.156,27.685,3.646c4.575,0.747,8.995,1.65,13.538,2.568
	c1.353,0.274,2.852,0.602,4.338,0.719c1.646,0.992,2.806,2.51,3.022,4.979c0.28,3.219,0.059,6.293-0.32,9.496
	c-0.097,0.821-0.077,2.695-0.195,4.415c-0.943,0.854-1.78,1.963-2.518,2.859c-0.52,0.169-0.991,0.334-1.203,0.368
	c-2.014,0.32-3.992,0.311-6.025,0.335c-3.772,0.044-7.645-0.193-11.404,0.079c-9.515,0.687-18.916,1.191-28.384,1.241
	c-6.757-0.967-13.707-0.705-20.527-0.694c-9.965,0.016-19.949-0.4-29.89,0.3c-6.154,0.433-12.375,0.172-18.576,0.123
	c-6.504-0.236-13.035-0.147-19.452,0.098c-13.392,0.514-26.509-0.107-39.848-1.07c-3.759-0.272-7.632-0.035-11.404-0.079
	c-2.032-0.024-4.012-0.014-6.025-0.335c-0.093-0.014-0.249-0.06-0.426-0.116c-0.311-0.171-0.619-0.35-0.919-0.548
	c-0.866-0.573-1.689-1.342-2.344-2.222c-0.147-1.808-0.121-3.877-0.225-4.754C227.287,214.437,227.064,211.363,227.344,208.145z
	 M201.69,241.636c0.084-2.521,0.39-5.313,0.621-8.163c0.122-0.096,0.235-0.2,0.365-0.287c2.767-1.847,7.796-0.911,10.976-1.049
	c3.617-0.157,7.208,0.054,10.828-0.074c1.082-0.038,2.36,0.034,3.723,0.115c0.595,0.111,1.222,0.211,1.917,0.291
	c8.348,0.962,17.49,0.441,25.902,0.611c8.087,0.163,16.11,0.752,24.225,0.49c6.861-0.221,13.642-1.104,20.503-1.319
	c7.865,0.281,16.063,0.543,23.891,0.324c9.336-0.262,18.653,0.342,27.974,0.002c2.034-0.074,4.074-0.086,6.116-0.081
	c5.24,0.35,10.456,0.904,15.716,1.074c8.114,0.262,16.137-0.327,24.225-0.49c8.412-0.17,17.555,0.352,25.902-0.611
	c0.472-0.054,0.918-0.116,1.343-0.184c0.595,0,1.155,0.004,1.662,0.019c6.669,0.211,13.353,0.59,20.019,0.936
	c3.25,0.169,9.509-0.675,12.344,0.991c2.456,1.444,1.84,7.45,1.99,10.056c0.253,4.397-1.083,9.351-0.591,13.83
	c-1.432,0.069-2.861,0.163-4.287,0.333c-1.282,0.153-2.569,0.289-3.86,0.411c-1.398-0.042-2.739-0.083-3.931-0.05
	c-7.287,0.198-14.617-0.114-21.922-0.085c-14.192,0.057-28.422,0.201-42.631,0.673c-14.283,0.475-28.574,0.599-42.866,0.736
	c-6.265,0.06-12.546-0.369-18.792-0.266c-2.343,0.04-4.687,0.286-7.033,0.488c-5.522-0.449-11.101-0.225-16.664-0.564
	c-8.417-0.514-16.842-0.687-25.277-0.582c-17.938,0.226-35.831,0.133-53.757-0.243c-4.353-0.091-8.708-0.183-13.062-0.214
	c-1.584-0.012-5.035,0.496-6.476-0.157c-0.019-0.008-0.032-0.017-0.051-0.026C201.554,253.021,201.507,247.201,201.69,241.636z
	 M90.231,65.575c4.07-5.285,11.972-9.128,18.452-9.627c5.914-0.455,10.31,1.73,15.037,4.84c3.584,2.358,5.237,4.296,6.476,8.245
	c0.061,0.196,0.111,0.387,0.165,0.579c-5.722-0.482-12.396-0.104-18.361-0.116c-4.319-0.008-8.68,0.921-12.998,0.709
	c-3.388-0.166-6.02-0.431-9.433,0.074c-0.565,0.084-1.097,0.199-1.616,0.324C88.646,68.665,89.309,66.772,90.231,65.575z
	 M85.317,107.679c0.174-6.563,0.441-13.096,0.371-19.653c-0.032-3.12-0.846-6.921,0.016-9.99c0.899-3.201,4.038-3.35,7.076-3.582
	c3.127-0.239,6.187,0.347,9.316,0.232c3.663-0.134,7.392-0.401,11.046-0.139c5.382,0.385,10.828,0.736,16.202,0.549
	c3.087-0.107,2.136,0.012,2.474,3.633c0.315,3.37,0.144,6.704,0.213,10.085c0.148,7.219,0.287,14.49,0.887,21.686
	c0.43,5.156,1.635,12.814,1.616,16.621c-3.527,0.022-7.053-0.011-10.549-0.142c-0.223-0.008-0.444-0.007-0.666-0.013
	c0.08-0.448,0.141-0.906,0.168-1.379c0.289-0.545,0.399-1.184,0.278-1.767c0.667-10.177-0.201-20.729-2.095-30.74
	c-1.554-8.218-7.701-13.448-16.093-11.087c-8.228,2.315-10.128,11.35-10.936,18.77c-0.379,3.492-0.226,6.913-0.032,10.362
	c-0.448,3.93-0.588,7.952-0.19,11.752c0.158,1.518,0.377,2.75,0.718,3.763c-3.595-0.159-7.189-0.186-10.782,0.004
	C86.526,120.895,85.159,113.626,85.317,107.679z M118.583,126.087c-0.318,0.98,0.148,0.685-0.803,0.929
	c-3.068,0.12-6.13,0.34-9.2,0.455c-1.943-0.22-3.849-0.541-5.568-0.806c-0.822-0.127-2.577-0.229-3.57-0.743
	c0.165-0.117-0.151-1.021-0.199-1.232c-0.535-2.328-0.742-4.705-0.929-7.08c-0.045-4.744-0.269-9.973-0.272-10.962
	c-0.014-6.078,0.517-16.199,6.207-19.834c0.696-0.444,1.411-0.788,2.134-1.049c-0.071,1.674-0.105,3.354-0.111,5.027
	c-0.005,1.162-0.041,2.658,0.363,3.88c-1.091,0.4-2.052,1.135-2.516,2.148c-0.846,0.633-1.494,1.526-1.901,2.637
	c-0.241,0.657-0.524,1.334-0.741,2.021c-1.001,2.472-1.137,5.386-0.733,7.97c0.431,2.749,3.147,2.284,5.34,2.037
	c0.151-0.017,0.304-0.016,0.456-0.025c-0.059,0.233-0.101,0.479-0.132,0.74c-0.012,0.102-0.023,0.204-0.035,0.306
	c0.056-0.509-0.006,0.023-0.036,0.231c-0.108,0.769-0.18,1.354,0.013,2.124c0.292,1.173,1.675,1.992,2.843,1.614
	c1.241-0.401,1.894-1.577,1.614-2.843c-0.148-0.673-0.233-1.344-0.397-1.986c1.482,0.126,2.959,0.18,4.36-0.283
	c4.715-1.555,2.692-10.774,0.713-13.797c-1.195-1.824-3.433-2.789-5.597-3.12c0.419-1.182,0.405-2.488,0.528-3.791
	c0.169-1.792,0.193-3.585,0.286-5.379c3.006,0.414,5.624,2.449,6.719,6.006c0.921,2.987,0.814,6.615,1.192,9.699
	c0.707,5.75,0.928,11.577,0.73,17.394c-0.03,0.068-0.063,0.132-0.089,0.206C118.45,121.034,119.364,123.687,118.583,126.087z
	 M107.345,97.924c0.943-0.193,1.86-0.119,2.847,0.101c3.315,0.737,3.922,3.843,4.034,6.838c0.023,0.612,0.192,1.429,0.066,2.041
	c-0.124,0.605-0.589,1.088-0.517,1.184c-0.737,0.139-1.579,0.044-2.167,0.043c-1.523-0.002-3.042-0.168-4.557-0.186
	c-1.022-0.012-2.193,0.475-3.261,0.488c-0.256-1.84-0.279-3.791,0.25-5.561c0.444-1.483,1.36-2.95,2.298-4.325
	C106.78,98.323,107.55,97.934,107.345,97.924z M54.239,167.813c0.415-6.132,0.253-12.276,0.193-18.42
	c-0.055-5.588-1.015-12.642,5.523-14.701c4.413-1.39,9.905-1.057,14.491-1.324c4.368-0.254,8.716-0.686,13.07-1.089
	c3.636-0.336,7.924,0.032,12.083-0.026c1.301,0.189,2.644,0.255,3.906,0.375c5.308,0.506,10.646,0.132,15.97,0.198
	c10.913,0.133,21.958,0.698,32.848,0.4c1.89-0.051,4.549-0.735,6.378-0.037c3.16,1.207,2.944,4.348,3.004,7.29
	c0.117,5.745,0.028,11.573-0.357,17.313c-0.776,11.571-1.589,23.222-0.934,34.799c-17.778-0.354-35.584-0.311-53.311,0.369
	c-13.454,0.516-27.033,0.595-40.507,0.832c-3.754,0.066-7.511,0.125-11.266,0.193c-0.048-0.468-0.178-0.934-0.429-1.374
	c0.512,0.901,0.065-0.382-0.008-0.891c-0.169-1.168-0.2-2.334-0.274-3.505c-0.134-2.089-0.136-4.184-0.237-6.281
	C54.155,177.184,53.915,172.582,54.239,167.813z M28.432,200.986c1.435-0.271,3.059-0.415,4.524-0.831
	c11.205,0.317,22.532-0.256,33.64-0.406c13.857-0.187,27.777-0.298,41.621-0.685c15.662-0.437,31.35,0.287,47.016-0.05
	c7.51-0.162,15.076-0.104,22.579,0.256c3.694,0.177,7.365,0.202,11.063,0.291c1.648,0.04,3.329,0.292,4.994,0.391
	c0.254,0.243,0.488,0.488,0.687,0.74c2.163,2.739,1.783,5.759,1.732,9.071c-0.099,6.681-0.947,13.113-1.608,19.745
	c-0.371,3.727-0.668,7.462-0.996,11.193c-0.668,2.847-1.215,5.637-1.492,8.698c-0.305,3.381-1.216,8.163-0.298,11.63
	c-4.817-0.498-9.818-0.418-14.513-0.469c-6.864-0.075-13.745-0.302-20.598-0.615c-13.895-0.636-27.943-0.839-41.839-1.201
	c-14.385-0.373-28.775-0.281-43.163-0.699c-8.55-0.249-17.231-0.437-25.781-0.22c-2.383,0.06-13.149,1.544-17.978,0.509
	c-0.711-5.652-0.437-11.249-0.684-16.951c-0.254-5.877-0.949-11.689-1.449-17.545c-0.564-6.602-0.287-12.943-0.415-19.497
	c0.016,0.809,0.233-2.442-0.13-2.862C26.114,201.316,28.454,200.982,28.432,200.986z M26.782,264.437
	c0.261-0.207,0.578-0.368,0.923-0.506c0.79,0.181,1.629,0.315,2.497,0.415c8.008,0.933,16.314,0.023,24.379,0.174
	c17.623,0.33,35.384-0.527,52.972,0.472c15.293,0.868,30.57,1.05,45.894,1.347c6.883,0.133,13.762,0.634,20.651,0.735
	c6.995,0.103,15.207,1.676,22.156-0.071c3.9,0.316,7.79,0.126,11.703,0.09c8.413-0.078,16.988,0.414,25.258-1.498
	c0.208-0.048,0.347-0.169,0.454-0.315c2.65-0.02,5.298,0,7.943,0.182c2.424,0.166,5.581,0.354,8.316-0.176
	c3.494,0.086,6.989,0.159,10.483,0.156c11.054-0.01,22.098-0.637,33.155-0.134c4.603,0.21,9.144,0.536,13.657,0.577
	c4.073,0.927,9.316,0.59,12.369,0.528c6.53-0.132,13.213,0.274,19.746,0.472c14.866,0.45,29.817,0.005,44.679-0.33
	c15.079-0.341,30.155-0.242,45.216-0.236c7.211,0.002,14.42,0.162,21.612-0.044c4.209-0.121,9.701,0.581,13.981-0.579
	c4.107,0.293,8.191,0.372,12.322,0.318c1.13-0.014,2.248-0.121,3.369-0.152c0.747,0.007,1.494,0.012,2.241,0.013
	c0.33,1.55-0.317,4.123-0.462,5.673c-0.022,0.224-0.272,1.431-0.254,2.076c-1.32,0.217-2.649,0.368-3.988,0.444
	c-3.54,0.135-7.258-0.113-10.793-0.308c-5.861-0.323-11.57-0.855-17.456-0.706c-6.546,0.164-13.202-0.037-19.845-0.056
	c-5.975-1.756-13.176-0.727-19.259-0.722c-7.641,0.005-15.224,0.008-22.854-0.136c-16.132-0.305-32.216,1.639-48.349,1.227
	c-35.28-0.901-70.78,0.31-106.011,1.698c-9.572,0.377-19.211,0.358-28.784,0.169c-3.814-0.075-7.616-0.22-11.43-0.294
	c-0.74-0.014-1.486,0.014-2.233,0.057c-8.343-0.722-16.797-0.785-25.165-0.719c-6.455,0.051-12.818-0.582-19.27-0.569
	c-16.815,0.034-33.495-0.267-50.3,0.218c-16.062,0.463-32.22,0.399-48.287,0.412c-4.669,0.004-9.369,0.056-14.035-0.029
	c-2.254-0.041-6.393,0.202-7.809-1.344C24.553,271.193,25.066,265.797,26.782,264.437z M475.354,302.619
	c-0.685,0.031-1.36,0.055-2.008,0.056c-4.768,0.01-9.522,0.316-14.289,0.326c-9.803,0.018-19.678-1.034-29.467-0.559
	c-3.759,0.182-7.52,0.455-11.282,0.73c-9.023-0.578-18.003-0.593-27.237-0.017c-15.397,0.961-30.894,0.936-46.318,0.372
	c-18.625-0.681-37.667-0.464-56.3,0.124c-17.343,0.548-34.481-0.169-51.786-0.909c-9.02-0.385-17.974,0.067-26.966-0.485
	c-2.069-0.127-4.092,0.025-6.116,0.23c-2.598,0.089-5.145,0.248-7.506,0.322c-10.786,0.341-21.641,0.12-32.429-0.122
	c-17.723-0.397-35.292-0.426-53.017,0.419c-18.069,0.862-35.987,0.747-54.031-0.006c-5.105-0.213-10.243-0.078-15.353-0.211
	c-3.165-0.083-9.449,1.194-11.112-1.692c-1.117-1.938-0.164-7.818-0.412-10.08c-0.396-3.603-0.101-7.723-0.921-11.322
	c1.298-0.018,2.568-0.087,3.699-0.095c4.794-0.031,9.573-0.403,14.374-0.387c10.306,0.037,20.606,0.132,30.919,0.328
	c19.128,0.363,38.21,1.231,57.341,1.538c9.249,0.148,18.018-1.672,27.182-2.221c6.472-0.387,12.931-0.164,19.397-0.217
	c4.911,1.591,10.812,1.439,15.718,1.744c8.183,0.509,16.355,0.603,24.561,0.619c18.63,0.037,37.238-1.703,55.834-1.589
	c17.909,0.11,35.855-0.478,53.758,0.113c16.527,0.545,32.892-0.818,49.389-0.797c8.846,0.011,17.649,0.16,26.49,0.166
	c3.086,0.002,6.456,0.177,9.842,0.16c13.106,0.907,26.378-0.35,39.477,0.594c6.387,0.46,12.859,1.435,19.31,1.562
	c-0.567,2.229-0.524,4.608-0.624,6.903C475.27,292.945,475.195,297.902,475.354,302.619z M254.141,480.249
	c0.166,4.349,0.238,8.72,0.346,13.07c0.073,2.947-0.603,6.604,0.12,9.65c-7.94,0.026-15.882,0.159-23.823,0.314
	c-0.024-1.311-0.198-2.71-0.221-3.328c-0.116-3.029-0.247-6.048-0.346-9.071c-0.187-5.723,0.177-11.501,0.499-17.211
	c0.182-3.235,0.347-6.492,0.441-9.731c0.092-3.207-1.404-10.299,0.575-13.027c1.48-2.039,7.846-1.399,10.354-1.348
	c3.136,0.065,6.39,0.344,9.523,0.565c1.034,0.073,2.065,0.118,3.096,0.153C252.51,459.718,253.778,470.743,254.141,480.249z
	 M279.873,502.783c-6.615,0.069-13.215,0.139-19.788,0.153c0.623-3.335,0.257-7.056,0.159-10.344
	c-0.132-4.417-0.134-8.861-0.321-13.27c-0.229-5.399-0.463-10.769-0.564-16.175c-0.073-3.915,0.345-8.849-0.892-12.788
	c3.676,0.023,7.348-0.049,11.053,0.095c1.484,0.057,8.179-0.265,9.247,0.546c1.99,1.508,0.97,8.836,1.143,11.339
	C280.84,475.778,279.928,489.331,279.873,502.783z M484.944,384.937c-0.243,5.865-0.108,11.751-0.311,17.623
	c-0.393,11.365-1.024,22.731-1.111,34.112c-0.085,11.003-0.576,21.985-0.927,32.977c-0.182,5.704-0.054,11.379-0.013,17.079
	c0.022,3.109-0.709,7.714,1.281,10.5c0.04,0.894,0.023,1.779-0.164,2.404c-1.086,3.645-3.78,2.823-6.773,2.898
	c-7.8,0.195-15.595,0.184-23.404,0.248c-16.239,0.132-32.436-0.044-48.676,0.785c-16.198,0.827-32.387,0.375-48.603,0.42
	c-6.306,0.018-12.612-0.648-18.901-0.382c-3.363,0.142-7.104-0.108-10.841-0.164c-13.623-0.818-27.351-0.828-41.041-0.709
	c-0.13-16.434,0.695-33.008-0.974-49.395c-0.861-8.452-5.021-6.721-11.89-7.294c-7.249-0.606-14.519-0.031-21.771-0.327
	c-4.031-0.164-8.033-0.376-12.056-0.195c-2.738,0.123-6.539-0.499-9.021,0.966c-5.383,3.178-2.944,15.513-3.025,20.437
	c-0.204,12.245-0.777,24.269,0.614,36.426c-4.952,0.095-9.905,0.186-14.855,0.239c-7.185,0.078-14.365,0.017-21.546,0.042
	c-12.383-0.887-24.82-1.174-37.236-1.859c-15.644-0.862-31.299-0.504-46.947-0.137c-15.829,0.372-31.736,1.704-47.571,1.286
	c-7.468-0.198-14.928,0.083-22.381-0.534c-3.306-0.274-5.986,0.396-7.304-2.071c0.942-7.78-0.139-15.888,0.122-23.685
	c0.328-9.81,0.439-19.694,0.436-29.516c-0.004-8.913,1.025-17.742,1.239-26.644c0.105-4.386-0.291-8.562-1.141-12.858
	c-0.024-0.118-0.038-0.254-0.059-0.377c0.162-5.677,0.014-11.385,0.139-17.029c0.201-9.171,0.412-18.431-0.113-27.595
	c-0.294-5.138-3.57-54.098,0.992-53.383c0.339,0.053,0.649,0.031,0.941-0.023c5.167,0.348,10.719-0.508,15.679-0.492
	c7.707,0.025,15.325,0.605,23.023,0.746c8.115,0.15,16.154,0.86,24.278,0.796c8.172-0.063,16.339-0.381,24.506-0.458
	c15.015-0.142,30.015,0.273,45.024-0.177c13.658-0.411,27.368-0.391,41-1.244c2.995,0.114,5.916,0.669,8.907,0.955
	c4.204,0.403,8.433,0.038,12.648,0.22c8.428,0.364,16.858,1.092,25.272,1.689c9.452,0.67,18.924,0.304,28.391,0.281
	c19.04-0.047,38.231,0.382,57.258-0.226c15.98-0.51,32.134,1.384,48.1,0.007c3.066-0.265,6.148-0.439,9.241-0.571
	c0.242,0.008,0.484,0.019,0.725,0.028c10.417,0.354,21.031-0.382,31.447-0.927c9.479-0.497,19.007,0.815,28.484,0.991
	c4.35,0.081,8.678-0.163,13.023-0.275c3.628-0.095,9.063-0.818,13.233-0.298c0.554,5.486,0.356,11.349,0.746,16.8
	c0.219,3.055-0.315,7.221,0.807,10.308c0.039,1.468,0.078,2.937,0.105,4.411c0.244,12.821,1.203,25.614,1.208,38.415
	C485.049,381.795,485.007,383.401,484.944,384.937z"/>
<path d="M279.214,410.92c-0.288-0.563-1.025-0.995-1.659-0.952c-5.978,0.408-12.163-0.684-18.148-0.976
	c-5.234-0.255-10.486-0.186-15.729-0.139c-2.863,0.026-7.164-0.76-9.604,1.149c-2.881,2.255-2.978,9.929-3.247,13.258
	c-0.223,2.773-0.666,7.033,1.635,9.133c2.752,2.51,9.007,2.193,12.4,2.211c7.547,0.038,15.516,0.178,23.132-0.69
	c0.194-0.002,0.387,0.004,0.581-0.001c4.247-0.093,9.231-0.16,10.992-4.749c1.136-2.958,0.748-6.897,0.745-9.948
	C280.308,416.643,280.389,413.207,279.214,410.92z M276.474,413.93c-0.347-0.474-0.211,3.508-0.214,4.463
	c-0.012,3.314,0.654,9.247-2.667,10.911c-1.987,0.996-5.138,0.45-7.183,0.402c-6.322-0.148-12.904-1.104-19.209-0.763
	c-3.494,0.19-7.62-0.645-11.239-0.085c-0.04-0.032-0.089-0.061-0.123-0.097c-1.895-1.924,0.146-8.868,0.389-10.867
	c0.506-4.154,0.215-4.882,4.25-5.006c6.618-0.204,13.383-0.397,19.992,0.017c3.977,0.249,7.951,0.449,11.915,0.761
	c0.985,0.146,1.978,0.218,2.976,0.214C277.149,413.774,277.52,413.789,276.474,413.93z"/>
<path d="M235.601,393.704c2.902,5.35,13.069,2.977,18.032,3.092c4.56,0.107,9.196,0.266,13.752,0.069
	c2.009-0.086,4.937,0.154,6.842-0.658c2.926-1.249,3.699-4.44,3.548-7.852c0.743-4.173,0.018-9.622-0.012-13.073
	c-0.054-6.461-0.236-13.063-2.161-19.258c-2.659-8.564-10.099-20.319-20.732-18.39c-18.219,3.304-21.057,25.907-19.752,43.645
	C234.242,385.627,234.118,390.967,235.601,393.704z M239.954,370.517c0.478-9.888,2.061-22.717,12.175-26.956
	c5.549-2.325,9.71-0.711,13.718,3.83c2.817,3.191,4.525,7.421,5.498,11.513c1.252,5.26,1.267,10.98,1.223,16.381
	c-0.018,2.204,0.036,4.543,0.006,6.88c-0.357,1.317-0.551,2.653-0.67,4.19c-0.067,0.863-0.059,1.894-0.15,2.805
	c-0.092,0.192-0.178,0.381-0.266,0.549c-0.219,0.419-0.364,0.863-0.543,1.294c-1.575,0.449-4.349,0.123-5.749,0.139
	c-3.576,0.039-7.142,0.051-10.725,0.049c-2.355-0.002-4.657,0.171-6.997,0.263c-1.676,0.066-4.636,0.435-6.121-0.279
	c-1.835-0.881-0.874-0.129-1.182-1.238C240.697,383.588,239.652,376.771,239.954,370.517z"/>
<path d="M178.577,396.867c2.009-0.086,4.937,0.154,6.842-0.658c2.926-1.249,3.699-4.44,3.548-7.852
	c0.743-4.173,0.018-9.622-0.012-13.073c-0.055-6.461-0.237-13.063-2.161-19.258c-2.659-8.564-10.099-20.319-20.732-18.39
	c-18.218,3.304-21.057,25.907-19.752,43.645c-0.877,4.346-1.002,9.686,0.481,12.423c2.902,5.35,13.069,2.977,18.033,3.092
	C169.383,396.903,174.02,397.062,178.577,396.867z M158.664,391.452c-1.676,0.066-4.636,0.435-6.121-0.279
	c-1.835-0.881-0.874-0.129-1.182-1.238c0.526-6.348-0.521-13.166-0.219-19.42c0.478-9.888,2.061-22.717,12.175-26.955
	c5.549-2.325,9.71-0.711,13.718,3.83c2.817,3.191,4.525,7.421,5.498,11.513c1.252,5.26,1.267,10.98,1.223,16.381
	c-0.018,2.204,0.036,4.543,0.006,6.88c-0.357,1.317-0.551,2.653-0.67,4.19c-0.067,0.863-0.059,1.894-0.15,2.805
	c-0.092,0.192-0.178,0.381-0.266,0.549c-0.219,0.419-0.364,0.863-0.543,1.294c-1.575,0.449-4.35,0.123-5.749,0.139
	c-3.576,0.039-7.142,0.051-10.725,0.049C163.306,391.188,161.005,391.36,158.664,391.452z"/>
<path d="M100.145,375.284c-0.054-6.461-0.237-13.063-2.161-19.258c-2.659-8.564-10.099-20.319-20.732-18.39
	C59.034,340.94,56.195,363.542,57.5,381.28c-0.877,4.346-1.002,9.686,0.481,12.423c2.902,5.35,13.069,2.977,18.032,3.092
	c4.56,0.107,9.196,0.266,13.752,0.069c2.009-0.086,4.937,0.154,6.842-0.658c2.926-1.249,3.699-4.44,3.548-7.852
	C100.899,384.183,100.173,378.734,100.145,375.284z M94.955,382.164c-0.357,1.317-0.551,2.653-0.67,4.19
	c-0.067,0.863-0.059,1.894-0.15,2.805c-0.092,0.192-0.178,0.381-0.266,0.549c-0.219,0.419-0.364,0.863-0.543,1.294
	c-1.575,0.449-4.349,0.123-5.749,0.139c-3.576,0.039-7.142,0.051-10.725,0.049c-2.355-0.002-4.657,0.171-6.997,0.263
	c-1.676,0.066-4.636,0.435-6.121-0.279c-1.835-0.881-0.874-0.129-1.182-1.238c0.526-6.348-0.521-13.166-0.219-19.42
	c0.478-9.888,2.061-22.716,12.175-26.955c5.549-2.325,9.71-0.711,13.718,3.83c2.817,3.191,4.525,7.421,5.498,11.513
	c1.252,5.26,1.267,10.98,1.223,16.381C94.931,377.488,94.985,379.827,94.955,382.164z"/>
<path d="M452.32,375.284c-0.055-6.461-0.237-13.063-2.161-19.258c-2.659-8.564-10.098-20.319-20.732-18.39
	c-18.219,3.304-21.057,25.907-19.752,43.645c-0.878,4.346-1.002,9.686,0.481,12.423c2.902,5.35,13.069,2.977,18.033,3.092
	c4.56,0.107,9.196,0.266,13.753,0.069c2.01-0.086,4.937,0.154,6.842-0.658c2.926-1.249,3.699-4.44,3.548-7.852
	C453.074,384.183,452.35,378.734,452.32,375.284z M447.13,382.164c-0.357,1.317-0.552,2.653-0.67,4.19
	c-0.067,0.863-0.059,1.894-0.15,2.805c-0.092,0.192-0.178,0.381-0.266,0.549c-0.219,0.419-0.364,0.863-0.544,1.294
	c-1.575,0.449-4.35,0.123-5.749,0.139c-3.576,0.039-7.142,0.051-10.725,0.049c-2.355-0.002-4.657,0.171-6.997,0.263
	c-1.676,0.066-4.636,0.435-6.121-0.279c-1.835-0.881-0.874-0.129-1.182-1.238c0.526-6.348-0.521-13.166-0.219-19.42
	c0.478-9.888,2.061-22.716,12.175-26.955c5.549-2.325,9.71-0.711,13.718,3.83c2.817,3.191,4.525,7.421,5.498,11.513
	c1.252,5.26,1.267,10.98,1.223,16.381C447.106,377.488,447.16,379.827,447.13,382.164z"/>
<path d="M363.51,375.284c-0.054-6.461-0.237-13.063-2.161-19.258c-2.659-8.564-10.098-20.319-20.732-18.39
	c-18.219,3.304-21.057,25.907-19.752,43.645c-0.878,4.346-1.002,9.686,0.481,12.423c2.902,5.35,13.069,2.977,18.032,3.092
	c4.56,0.107,9.196,0.266,13.753,0.069c2.009-0.086,4.937,0.154,6.842-0.658c2.926-1.249,3.699-4.44,3.548-7.852
	C364.265,384.183,363.539,378.734,363.51,375.284z M358.321,382.164c-0.357,1.317-0.551,2.653-0.67,4.19
	c-0.067,0.863-0.059,1.894-0.15,2.805c-0.092,0.192-0.178,0.381-0.266,0.549c-0.219,0.419-0.364,0.863-0.543,1.294
	c-1.575,0.449-4.349,0.123-5.749,0.139c-3.576,0.039-7.142,0.051-10.725,0.049c-2.355-0.002-4.657,0.171-6.997,0.263
	c-1.676,0.066-4.636,0.435-6.121-0.279c-1.835-0.881-0.874-0.129-1.182-1.238c0.524-6.348-0.521-13.166-0.219-19.42
	c0.478-9.888,2.061-22.716,12.175-26.955c5.549-2.325,9.71-0.711,13.718,3.83c2.817,3.191,4.525,7.421,5.498,11.513
	c1.252,5.26,1.267,10.98,1.223,16.381C358.297,377.488,358.351,379.827,358.321,382.164z"/>
<path d="M195.266,464.84c-0.174-4.559-0.663-9.025-1.312-13.535c-1.006-6.98-3.619-18.032-12.819-16.855
	c-8.191,1.046-11.737,8.795-13.102,15.976c-0.828,4.36-1.304,9.069-1.331,13.781c-0.196,0.98-0.248,2.014-0.306,2.914
	c-0.18,2.773-0.559,5.958-0.318,8.699c0.534,6.081,7.441,5.198,12.123,5.461c4.409,0.249,9.83,1.265,14.183,0.468
	c4.195-0.767,3.63-4.502,2.787-7.774C195.136,470.935,195.379,467.822,195.266,464.84z M190.965,476.997
	c-0.144,0.006-0.326,0.032-0.566,0.093c-0.67,0.172-1.471-0.018-2.161-0.035c-3.34-0.083-6.709-0.194-10.038-0.432
	c-1.765-0.127-4.766,0.212-6.457-0.468c-1.161-0.467-0.491,0.269-1.121-0.96c0.559-5.644-0.375-11.851-0.062-17.398
	c0.395-7.022,1.994-18.748,10.843-19.864c9.05-1.141,9.285,15.96,9.39,21.822c0.065,3.563,0.287,7.155,0.235,10.713
	C191,472.522,190.489,474.914,190.965,476.997z"/>
<path d="M346.702,464.84c-0.174-4.559-0.662-9.025-1.312-13.535c-1.006-6.98-3.619-18.032-12.82-16.855
	c-8.189,1.046-11.737,8.795-13.102,15.976c-0.828,4.36-1.304,9.069-1.331,13.781c-0.196,0.98-0.248,2.014-0.306,2.914
	c-0.18,2.773-0.559,5.958-0.318,8.699c0.534,6.081,7.441,5.198,12.123,5.461c4.409,0.249,9.83,1.265,14.183,0.468
	c4.195-0.767,3.63-4.502,2.787-7.774C346.571,470.935,346.814,467.822,346.702,464.84z M342.4,476.997
	c-0.144,0.006-0.326,0.032-0.566,0.093c-0.67,0.172-1.471-0.018-2.161-0.035c-3.339-0.083-6.709-0.194-10.038-0.432
	c-1.765-0.127-4.766,0.212-6.456-0.468c-1.161-0.467-0.491,0.269-1.121-0.96c0.559-5.644-0.375-11.851-0.062-17.398
	c0.395-7.022,1.994-18.748,10.844-19.864c9.05-1.141,9.285,15.96,9.39,21.822c0.065,3.563,0.287,7.155,0.235,10.713
	C342.435,472.522,341.924,474.914,342.4,476.997z"/>
<g>
</g>
<g>
</g>
<g>
</g>
<g>
</g>
<g>
</g>
<g>
</g>
<g>
</g>
<g>
</g>
<g>
</g>
<g>
</g>
<g>
</g>
<g>
</g>
<g>
</g>
<g>
</g>
<g>
</g>
</svg>
