<?xml version="1.0" encoding="iso-8859-1"?>
<!-- Generator: Adobe Illustrator 19.0.0, SVG Export Plug-In . SVG Version: 6.00 Build 0)  -->
<svg version="1.1" id="Layer_1" xmlns="http://www.w3.org/2000/svg" xmlns:xlink="http://www.w3.org/1999/xlink" x="0px" y="0px"
	 viewBox="0 0 512.001 512.001" style="enable-background:new 0 0 512.001 512.001;" xml:space="preserve">
<path style="fill:#8C4646;" d="M368.794,53.247c1.68-1.218,2.905-2.991,3.428-5.531c0.289-1.408,0.253-2.88,0.666-4.258
	c0.413-1.377,1.457-2.725,2.889-2.855c1.455-0.133,2.728,0.997,4.174,1.205c2.232,0.32,4.121-1.555,5.54-3.307
	c1.42-1.752,3.126-3.72,5.379-3.681c1.655,0.03,3.118,1.22,3.911,2.673c0.791,1.453,1.027,3.138,1.18,4.786
	c0.435,4.691-0.764,9.369-0.798,14.111c-0.039,5.317,0.404,10.628,1.155,15.889c1.539,10.779,4.361,21.319,7.193,31.815
	c0.955,3.537,1.973,7.199,4.341,9.995c2.912,3.436,7.406,5.035,11.74,6.262c11.283,3.193,22.938,4.838,34.551,6.476
	c2.427,0.342,5.034,0.656,7.213-0.464c4.239-2.18,4.44-8.229,7.507-11.877c1.239-1.473,3.646-2.475,4.995-1.103
	c1.094,1.113,0.784,3.152,1.957,4.182c1.188,1.043,3.142,0.332,4.153-0.882s1.469-2.797,2.372-4.093
	c0.902-1.296,2.617-2.318,4.032-1.614c1.23,0.612,1.592,2.175,1.726,3.542c0.445,4.514-0.313,8.55-1.406,12.864
	c-0.525,2.07-0.658,4.299-0.943,6.42c-0.165,1.221-0.049,5.678-0.875,6.486c-7.995,7.815-18.001,12.917-28.497,16.506
	c-5.025,1.717-10.047,3.076-15.236,4.037c-4.664,0.864-11.536,1.699-15.315,4.734c-2.657,2.134-3.951,5.526-4.749,8.841
	c-1.438,5.975-1.636,12.17-1.828,18.313c-0.052,1.688-0.027,3.582,1.165,4.776c1.022,1.023,2.59,1.205,4.031,1.331
	c5.42,0.471,10.929-0.287,15.77,2.571c4.458,2.631,7.982,6.525,11.745,10.013c12.855,11.918,29.391,19.809,46.741,22.309
	c1.645,0.237,3.32,0.432,4.855,1.073c1.534,0.639,2.94,1.803,3.44,3.389c0.586,1.86-0.207,3.944-1.559,5.348
	c-1.352,1.405-3.181,2.242-5.007,2.923c-5.347,1.993-10.548,2.052-16.078,2.9c-4.089,0.628-6.187,2.534-5.47,6.636
	c0.826,4.723,0.885,9.091,1.092,13.89c0.132,3.069,0.784,6.484,0.567,9.512c-0.241,3.376-1.956,7.14-2.872,10.403
	c-0.467,1.663-0.81,3.759,0.532,4.846c0.897,0.728,2.209,0.651,3.31,0.305c1.103-0.345,2.141-0.92,3.284-1.086
	c6.208-0.901,7.455,7.709,8.534,11.956c1.42,5.591,0.966,11.536,0.993,17.254c0.075,15.232,0.079,30.464,0.101,45.696
	c0.015,10.511,0.037,21.02,0.097,31.531c0.037,6.578-1.691,13.771-3.834,19.988c-0.692,2.004-1.433,4.386-0.179,6.096
	c1.751,2.389,5.895,1.427,7.933,3.577c1.233,1.3,1.264,3.383,0.619,5.053s-1.843,3.056-2.907,4.498
	c-1.908,2.59-3.48,5.661-3.252,8.869c0.216,3.037,1.994,5.713,3.77,8.187c1.776,2.473,3.664,5.032,4.158,8.037
	c1.283,7.81-7.54,8.237-12.985,9.209c-8.023,1.433-16.133,2.626-24.3,2.654c-45.622,0.152-91.248-0.085-136.865-0.72
	c-8.075-0.112-16.326-2.095-24.102-4.496c-5.702-1.76-9.882-10.106-6.755-14.21c14.536-19.079,6.747-39.825,4.317-59.517
	c-1.786-14.475-7.167-29.032-13.578-42.277c-8.009-16.547-19.888-20.034-37.524-14.548c-13.466,4.189-22.85,12.122-27.747,26.029
	c-4.041,11.477-6.755,23.382-8.485,35.418c-0.882,6.132-1.487,12.294-1.959,18.47c-0.442,5.769-1.618,10.761-3.389,16.29
	c-1.436,4.482-2.149,9.793,0.683,13.551c1.651,2.192,4.291,3.511,5.814,5.793c1.646,2.465,1.717,5.735,0.806,8.555
	c-0.684,2.12-1.948,4.7-3.555,6.285c-1.377,1.359-3.272,1.633-5.157,2.16c-4.78,1.335-9.709,2.091-14.646,2.538
	c-8.242,0.747-16.582,0.489-24.879,0.52c-37.325,0.136-74.65,0.186-111.975,0.344c-14.124,0.06-28.043-0.875-40.634-6.151
	c-2.116-0.886-1.617-6.975-1.164-8.626c0.752-2.747,2.42-5.138,3.826-7.575c1.371-2.377,3.254-5.526,3.11-8.389
	c-0.17-3.373-4.503-4.609-6.244-7.246c-1.041-1.577-1.573-3.607-0.934-5.386c0.573-1.597,1.961-2.73,3.093-3.993
	c2.797-3.121,4.172-7.309,4.597-11.478c0.371-3.646-0.393-7.184-0.264-10.792c0.101-2.813,0.551-5.485,0.497-8.369
	c-0.142-7.618-0.229-15.237-0.28-22.856c-0.101-15.203-0.056-30.408,0.001-45.612c0.021-5.602,0.044-11.206,0.061-16.809
	c0-3.332,0.485-6.972-0.514-10.132c-0.9-2.848-0.752-5.662,1.785-7.794c2.169-1.822,5.49-2.124,7.952-0.722
	c1.16,0.661,2.336,1.699,3.636,1.393c1.398-0.328,1.962-1.988,2.201-3.404c1.197-7.083,0.246-14.29-0.98-21.299
	c-0.538-3.081-1.19-5.533-1.19-8.707c0-0.956,0.319-10.588,0-10.655c-5.16-1.081-10.43-1.691-15.514-3.113
	c-1.921-0.537-3.732-1.35-5.676-1.766c-2.298-0.491-4.288-0.856-5.569-3.111c-1.397-2.459-1.017-5.693,0.577-8.029
	c2.722-3.992,8.114-5.975,12.535-7.218c6.121-1.72,12.08-3.987,17.827-6.702c11.52-5.44,22.118-12.639,32.068-20.558
	c3.694-2.94,6.875-3.892,11.434-2.523c2.469,0.742,5.408,1.364,7.411-0.26c1.893-1.534,2.014-4.329,1.977-6.765
	c-0.071-4.689-0.142-9.378-0.213-14.067c-0.065-4.288-0.836-8.191-1.23-12.444c-0.1-1.078-15.784-4.178-17.519-4.639
	c-5.892-1.569-11.763-3.263-17.459-5.453c-5.717-2.197-11.251-4.902-16.331-8.341c-2.647-1.792-5.161-3.777-7.521-5.934
	c-2.326-2.126-2.819-4.727-3.48-7.774c-1.305-6.014-1.568-12.254-0.755-18.354c0.117-0.874,0.267-1.777,0.758-2.509
	c0.491-0.733,1.418-1.245,2.262-0.988c1.982,0.604,1.192,4.021,2.877,5.227c1.423,1.02,3.355-0.307,4.403-1.709
	c1.048-1.402,2.2-3.148,3.951-3.13c1.865,0.02,3,2.058,3.469,3.864c0.54,2.074,0.739,4.233,1.388,6.274
	c0.649,2.043,1.856,4.043,3.786,4.974c1.789,0.864,3.884,0.678,5.857,0.449c9.408-1.098,18.744-2.797,27.935-5.081
	c4.69-1.165,9.43-2.524,13.452-5.202c5.601-3.729,9.354-9.759,11.555-16.118c1.557-4.496,2.407-9.193,3.052-13.896
	c0.612-4.462,2.048-8.255,3.237-12.6c2.217-8.1,2.211-15.899,1.376-24.242c-0.476-4.762-0.55-9.915,2.071-13.919
	c1.005-1.534,2.919-2.928,4.552-2.093c2.189,1.119,1.512,4.968,3.669,6.147c2.538,1.386,5.298-2.546,8.124-1.932
	c1.66,0.36,2.577,2.159,2.928,3.821c0.798,3.789-0.007,8.165,2.396,11.201c2.356,2.975,6.694,3.252,10.489,3.234
	c7.374-0.034,14.874-0.027,22.213-0.819c2.364-0.256,4.331-1.071,6.563-1.766c2.859-0.89,5.804-0.659,8.762-0.608
	c15.237,0.265,30.475,0.486,45.712,0.661c7.481,0,14.965,0.161,22.446,0.226c7.113,0.061,14.049,0.784,21.146,0.497
	c7.58-0.307,15.166-0.525,22.751-0.654c15.172-0.259,30.349-0.165,45.517,0.283C350.668,54.774,362.715,57.65,368.794,53.247z"/>
<g>
	<path style="fill:#EFE1E1;" d="M195.762,423.846c3.824,0.208,9.767-1.592,11.844,3.267c1.466,3.426-1.109,9.117-1.412,12.562
		c-0.381,4.342,2.044,5.67,4.68,8.668c3.896,4.431,7.072,9.798,4.21,15.551c-1.937,3.894-4.542,7.534-9.021,8.576
		c-2.966,0.689-6.282,0.457-9.308,0.862c-4.058,0.542-8.025,1.401-11.994,2.368c-9.965,2.428-19.693,1.911-29.819,1.487
		c-10.921-0.457-21.79-0.762-32.727-0.785c-4.669-0.01-9.342-0.049-14.004-0.334c-3.528-0.217-7.249-1.481-10.724-1.32
		c-4.569,0.212-8.945,0.793-13.561,0.59c-4.383-0.193-8.761-0.598-13.152-0.598c-9.11,0-18.187-0.414-27.292-0.415
		c-6.464-0.001-13.739,0.277-20.077-1.086c-4.049-0.87-9.997-1.656-11.71-6.102c-3.6-9.344,11.954-15.709,5.336-25.028
		c-0.881-1.24-1.431-2.41-2.529-3.425c-1.828-1.69-5.438-3.697-4.528-6.729c1.124-3.745,9.333-6.128,12.697-6.607
		c11.601-1.649,23.601-1.35,35.341-1.87c8.453-0.374,16.87-1.337,25.339-1.716c4.808-0.214,9.553-0.476,14.372-0.211
		c1.908,0.106,3.801,1.076,5.71,0.996c1.391-0.059,2.585-0.664,3.991-0.788c3.92-0.344,8.157,0.499,12.055,0.894
		c7.322,0.742,14.728,1.144,22.082,1.412c7.823,0.285,15.631,0.252,23.452,0.664C175.3,425.272,185.686,425.804,195.762,423.846z"/>
	<path style="fill:#EFE1E1;" d="M391.234,424.054c-3.036,0.631-6.425,0.213-9.608,0.369c-6.075,0.298-12.161,0.452-18.237,0.664
		c-9.389,0.328-18.894,1.408-28.301,1.043c-7.239-0.28-14.331-2.388-21.583-2.7c-2.316-0.1-7.286-0.4-9.193,1.036
		c-1.592,1.199-1.032,3.318-0.935,4.999c0.302,5.167,1.315,11.58-1.512,16.203c-1.784,2.915-4.704,4.833-6.062,8.059
		c-1.842,4.372,0.016,8.949,2.064,12.869c6.892,13.194,25.486,10.132,37.861,9.126c24.495-1.99,48.955-3.826,73.436-0.785
		c6.133,0.762,12.12,0.958,18.284,1.548c6.946,0.664,13.934,0.748,20.908,0.748c7.772,0,15.563-0.122,23.297-0.967
		c7.263-0.794,15.489-1.818,22.401-4.215c2.981-1.033,6.925-4.235,6.198-7.703c-0.839-3.998-3.991-7.511-6.51-10.538
		c-2.776-3.337-5.534-6.757-1.279-10.032c3.179-2.448,8.055-5.477,6.816-10.279c-1.243-4.813-10.351-5.563-14.217-6.328
		c-8.723-1.727-17.587-1.425-26.419-1.654c-12.036-0.313-23.984-2.096-36.05-2.085c-4.543,0.004-9.182,0.451-13.708,0.189
		C402.974,423.278,397.169,423.163,391.234,424.054z"/>
	<path style="fill:#EFE1E1;" d="M158.098,294.898c1.896-0.059,3.793-0.071,5.69-0.116c3.445-0.082,7.005-0.682,10.411-0.045
		c3.28,0.613,6.303,0.739,9.667,0.708c8.616-0.077,17.231-0.293,25.845-0.501c17.044-0.413,34.107-0.806,51.148-0.071
		c3.457,0.15,7.855,1.145,11.24,0.395c1.179-0.262,2.119-0.977,3.34-1.193c1.857-0.328,3.867,0.051,5.731,0.16
		c4.804,0.279,9.684-0.667,14.483-0.853c16.175-0.628,32.397,0.485,48.572,0.424c14.09-0.052,27.773,1.796,41.725,3.437
		c9.95,1.169,20.085,3.158,29.748,0.081c5.081-1.619,10.74-1.481,16.018-1.936c6.021-0.518,12.061-0.985,18.108-0.76
		c4.908,0.182,9.755,0.733,14.642,1.099c2.432,0.182,5.707,0.674,7.978-0.562c2.544-1.386,3.6-4.655,4.168-7.331
		c0.991-4.666,1.294-9.464,1.083-14.206c-0.216-4.861-0.044-9.686-0.046-14.516c-0.001-1.531,0.733-5.432-0.616-6.543
		c-2.187-1.801-8.536,0.698-10.794,1.102c-9.305,1.665-19.037,0.046-28.417,0.046c-9.72,0-19.566,0.454-29.252,1.221
		c-3.355,0.265-6.841,0.165-10.16,0.672c-10.811,1.653-21.962,1.197-32.962,1.221c-12.816,0.029-25.415-1.787-38.17-2.646
		c-10.801-0.727-21.662-0.712-32.451,0.223c-5.296,0.459-10.573,1.14-15.806,2.073c-4.299,0.767-7.99,0.351-12.337,0.351
		c-9.896,0-19.785,0.111-29.654-0.676c-9.228-0.735-18.313-2.224-27.577-2.602c-10.097-0.414-20.26-0.775-30.36-0.212
		c-5.894,0.329-12.022,0.548-17.665,2.462c-5.103,1.73-11.418,0.648-16.815,0.379c-12.125-0.604-24.238-1.628-36.385-1.635
		c-8.101-0.005-16.172,0.83-24.271,0.829c-7.695-0.001-15.303-0.735-22.963-1.401c-6.097-0.53-12.197-0.677-18.314-0.676
		c-2.359,0-5.659-0.439-7.862,0.669c-2.706,1.361-1.726,3.97-1.491,6.446c0.708,7.451,1.797,15.419,0.591,22.872
		c-0.466,2.88-2.111,4.183-0.435,7.051c1.342,2.297,3.709,4.443,6.011,5.762c8.19,4.695,17.882,2.114,26.647,1.377
		c12.768-1.072,25.435,0.069,38.2,0.066c6.454-0.001,13.003-0.131,19.447-0.46c5.945-0.304,11.882,1.371,17.606-0.783
		C146.832,294.259,152.362,295.076,158.098,294.898z"/>
	<path style="fill:#EFE1E1;" d="M420.94,200.123c0-9.365,0.951-20.05,0.83-29.913c-0.062-5.103-4.624-7.293-9.461-7.696
		c-5.052-0.421-10.669,0.384-15.713,0.785c-5.11,0.406-10.254,1.015-15.347,1.614c-9.841,1.158-19.362,0.867-29.236,0.733
		c-3.931-0.054-7.865-0.116-11.796-0.024c-3.479,0.082-6.368,1.098-9.96,0.855c-4.078-0.275-8.161-0.211-12.258-0.213
		c-11.367-0.009-22.561,0.845-33.942,0.375c-11.037-0.456-21.94-2.174-33.001-2.444c-9.745-0.238-19.86-2.25-29.554-0.481
		c-9.298,1.696-19.129,1.372-28.582,2.555c-13.946,1.746-27.814,1.62-41.819,0.851c-11.25-0.617-22.452-1.344-33.663-2.397
		c-6.509-0.612-13.032,0.418-19.518,0.085c-2.644-0.136-6.056-0.953-7.213,2.068c-0.633,1.654-0.226,3.74-0.057,5.453
		c0.319,3.257,0.535,6.747,0.423,10.017c-0.107,3.115-0.209,6.485-0.885,9.536c-0.244,1.104-1.634,3.758-1.192,4.816
		c0.891,2.129,8.352,2.353,10.158,2.594c7.102,0.95,14.24,1.503,21.399,1.828c20.69,0.942,41.605,0.607,62.169-1.6
		c10.463-1.123,21.295-2.444,31.831-2.086c10.558,0.359,20.922,5.398,31.445,4.936c3.298-0.145,6.332-1.458,9.672-1.405
		c5.494,0.089,11.039,0.722,16.534,0.986c7.309,0.353,14.564-0.904,21.861-0.754c8.288,0.17,16.553,0.596,24.853,0.588
		c7.57-0.007,15.598,1.614,23.099,0.14c2.283-0.449,4.172-1.711,6.376-2.343c3.385-0.97,7.374-0.604,10.85-0.451
		c7.741,0.342,15.654,0.464,23.387,0.179c7.157-0.263,14.352,0.112,21.492,0.444c3.103,0.145,6.192,0.162,9.303,0.162
		C415.178,199.915,417.823,200.441,420.94,200.123z"/>
</g>
<path style="fill:#CE4D4D;" d="M215.496,381.107c3.072-7.609,5.305-15.691,8.822-23.113c3.968-8.372,11.216-11.21,19.17-14.701
	c3.793-1.664,7.079-4.13,11.44-3.79c4.57,0.358,9.227,1.546,13.786,2.238c2.344,0.356,5.03,0.734,7.129,1.929
	c2.86,1.629,4.447,4.83,6.123,7.522c7.772,12.479,11.728,26.861,16.006,40.787c1.876,6.106,1.966,11.751,2.263,18.055
	c0.239,5.059,1.896,9.325,6.247,12.152c5.101,3.314,11.713,1.081,17.499,2.226c5.349,1.058,10.69,2.433,16.16,1.902
	c11.998-1.165,24.16-1.373,36.21-1.206c5.379,0.075,10.357,1.13,15.841,0.855c6.279-0.315,12.524-1.142,18.813-1.297
	c13.386-0.33,26.698,1.847,40.124,1.209c9.725-0.462,19.246,0.019,28.924,0.841c2.384,0.203,6.342,1.051,8.499-0.194
	c2.214-1.279,2.028-4.496,2.131-6.677c0.294-6.217,1.071-12.516,1.084-18.727c0.01-4.315-0.922-8.528-1.048-12.84
	c-0.127-4.347,0.222-8.683,0.218-13.031c-0.009-9.747,1.089-19.243,1.459-28.937c0.343-8.984-0.683-17.801-0.841-26.776
	c-0.095-5.338-0.684-10.385-1.448-15.647c-0.36-2.483-0.188-5.263-2.24-6.971c-2.413-2.008-5.675-1.352-8.546-0.877
	c-6.165,1.018-12.253,0.58-18.47,0.265c-8.584-0.435-17.401,0.516-25.967,1.235c-9.161,0.769-18.343,0.358-27.525,0.647
	c-16.173,0.509-32.286-0.713-48.417-1.705c-16.669-1.026-33.467,0.419-50.008-1.013c-23.483-2.033-47.009,0.744-70.532,0.052
	c-9.856-0.29-19.705-0.292-29.556-0.719c-8.428-0.366-16.898,0.365-25.491-0.069c-9.322-0.47-19.074-0.511-28.352,0.405
	c-18.425,1.817-36.469,2.418-54.941,1.984c-13.185-0.309-26.354-1.694-39.539-1.653c-10.47,0.032-22.614-3.416-32.92-1.578
	c-3.647,0.651-5.998,2.319-6.784,5.902c-1.679,7.655-1.578,17.772-1.643,25.59c-0.173,20.57,2.179,40.627,2.938,61.109
	c0.29,7.838,0.135,15.772-0.747,23.556c-0.436,3.859-2.224,12.42,1.314,14.652c2.989,1.886,12.082,1.689,15.693,1.961
	c10.565,0.795,20.803,0.495,31.367-0.001c15.653-0.735,31.268-2.116,46.915-2.951c7.352-0.393,15.61-1.636,22.928-0.73
	c6.414,0.794,12.156,2.058,18.813,1.492c11.397-0.971,22.921,1.989,34.199,0.947c9.686-0.894,14.868-4.331,17.429-13.89
	c1.183-4.413-0.612-12.01,1.102-15.725C213.212,391.296,213.588,385.834,215.496,381.107z"/>
<path style="fill:#492E2E;" d="M297.781,273.378c-1.426,2.231-4.477,3.659-7.29,4.357c-2.85,0.708-5.357,0.239-8.199,0.41
	c-4.093,0.247-8.156,0.505-12.262,0.497c-3.924-0.007-7.6-0.211-11.484,0.37c-3.585,0.536-7.239,1.234-10.847,1.395
	c-7.255,0.324-15.157-0.789-22.4-1.563c-3.093-0.33-8.15-0.178-10.791-2.019c-2.349-1.639-1.188-6.04-0.055-8.388
	c2.063-4.28,10.897-2.88,14.741-2.88c10.288,0,20.444-0.967,30.735-0.208c6.009,0.444,11.92,0.204,17.927,0.208
	c4.68,0.003,9.29,0.676,13.941,0.41c1.837-0.105,5.167-0.163,6.122,1.875C298.959,270.057,298.73,271.895,297.781,273.378z"/>
<path style="fill:#CEBCBC;" d="M91.067,164.186c0.036,10.195-2.311,21.177,0.831,31.158c1.668,5.297,6.939,5.054,12.434,5.31
	c18.936,0.884,38.852,0.563,57.591-2.308c8.454-1.296,15.85-3.51,23.686-6.972c12.365-5.463,25.045-8.878,38.453-10.58
	c45.765-5.811,92.671-1.243,138.656-1.236c13.846,0.002,27.693-0.877,41.515-0.874c5.438,0.001,12.151,1.931,16.394-2.513
	c2.124-2.225,4.427-8.584,1.669-10.666c-3.425-2.586-16.62-0.489-19.986-0.487c-41.245,0.016-82.657-3.011-123.89-1.569
	c-42.814,1.497-85.583,0.385-128.405,2.308c-14.281,0.642-28.866,1.245-43.106-0.415c-2.794-0.325-5.565-1.173-8.366-1.366
	C94.281,163.68,93.502,165.1,91.067,164.186z"/>
<g>
	<path style="fill:#492E2E;" d="M303.573,185.166c3.492-3.975,2.059-8.439-2.799-10.117c-3.7-1.279-7.265-0.203-11.009-0.5
		c-3.33-0.264-6.487-0.768-9.917-0.571c-3.853,0.222-7.45,0.415-11.288,0.385c-2.433-0.019-4.794-0.211-7.224-0.208
		c-4.026,0.004-7.942,0.492-11.919,0.831c-6.344,0.541-12.723,1.043-19.093,0.73c-3.184-0.157-6.434-1.142-9.576-1.188
		c-2.53-0.037-5.465,0.747-7.952,1.236c-1.792,0.354-5.742,0.045-6.719,1.71c-0.595,1.013-0.414,4.81-0.034,5.924
		c1.908,5.597,11.024,3.489,15.282,3.682c14.875,0.672,29.68-0.395,44.603,0.634c7.013,0.484,14.253,1.012,21.259,0.561
		C291.719,187.984,297.371,188.69,303.573,185.166z"/>
	<path style="fill:#492E2E;" d="M399.543,186.828c0.072-2.661-0.51-6.258-2.597-8.111c-2.524-2.24-6.203-2.034-9.355-2.068
		c-10.296-0.107-20.509-1.725-30.839-1.258c-3.793,0.172-7.867-0.131-11.634,0.38c-2.812,0.381-6.198,0.929-6.808,4.2
		c-1.646,8.837,10.85,9.717,16.665,9.763c4.209,0.034,8.343-0.385,12.541,0c4.229,0.388,8.511,1.259,12.753,1.464
		c3.251,0.158,6.646-0.429,9.821-1.025C393.757,189.491,395.682,188.948,399.543,186.828z"/>
	<path style="fill:#492E2E;" d="M172.289,183.92c1.838-1.118-0.978-4.79-2.55-5.354c-8.302-2.98-16.129-3.823-24.932-3.366
		c-4.694,0.243-9.405,1.736-14.177,2.179c-2.978,0.277-5.752-0.829-8.523,0.299c-2.454,1-6.037,1.472-8.088,3.208
		c-3.062,2.594-2.027,6.929,1.607,8.487c5.023,2.154,10.347,1.605,15.672,1.61c4.13,0.004,8.212,0.471,12.318,0.466
		c3.512-0.004,6.89-0.866,10.392-1.355C159.16,189.377,173.187,192.087,172.289,183.92z"/>
</g>
<path style="fill:#CEBCBC;" d="M479.103,257.664c-29.622,2.59-59.446,1.895-89.282,1.674c-60.114-0.444-120.16,1.54-180.143,5.804
	c-22.215,1.579-45.623,1.413-67.12,8.063c-9.955,3.08-16.235,8.251-23.647,14.693c-4.891,4.251-11.641,4.194-17.786,4.78
	c-12.044,1.147-24.067,2.393-36.206,1.87c-8.339-0.359-17.272,0.206-25.503-1.154c-5.561-0.919-5.296-7.18-5.705-12.502
	c-0.598-7.786-1.471-16.266-0.394-24.074c0.845-6.123,5.569-4.377,11.347-3.836c33.964,3.176,68.811-0.449,102.919,0.623
	c47.109,1.481,94.713,4.501,141.808,1.245c41.502-2.869,82.579,0.465,124.033,0.288c16.928-0.072,33.787-1.958,50.722-2.038
	C465.774,253.09,486.898,250.438,479.103,257.664z"/>
<path style="fill:#492E2E;" d="M72.371,270.751c0.694-0.692,2.408-0.502,3.442-0.649c2.626-0.371,5.216-0.879,7.832-1.215
	c6.057-0.778,12.244-1.14,18.378-0.844c6.369,0.308,12.337-0.543,18.586-1.81c4.846-0.982,11.321-1.391,14.458,3.258
	c2.177,3.227,3.228,8.307-1.21,10.157c-4.208,1.754-10.441,1.172-14.937,1.235c-5.549,0.077-11.12-0.054-16.632,0.723
	c-5.095,0.718-10.83,0.237-15.922-0.369c-3.216-0.383-6.292-0.506-9.487-0.727c-1.251-0.086-2.737,0.294-3.932,0.12
	C69.265,280.092,69.102,274.226,72.371,270.751z"/>
<g>
	<path style="fill:#B23D3D;" d="M489.905,297.132c3.587,2.774-7.172,6.202-8.963,6.651c-17.023,4.259-35.089,3.705-52.49,4.359
		c-46.787,1.755-93.544,0.855-140.328,0.608c-31.369-0.166-64.031-4.648-95.309-1.695c-25.946,2.449-60.362,15.087-69.642,42.378
		c-15.025,44.188,44.489,42.779,70.83,53.528c5.702,2.327,12.639,6.254,13.43,13.052c1.334,11.468-14.053,7.603-21.172,8.241
		c-20.475,1.833-39.896-0.298-60.23-1.143c-18.932-0.786-37.564,2.049-56.502,1.062c-7.99-0.416-15.952-0.586-23.919,0.394
		c-4.881,0.601-14.611,4.081-19.081,0.889c-8.776-6.267-5.676-27.627-5.676-36.483c0-17.262,0.12-34.639-0.738-51.83
		c-0.378-7.559-0.353-15.258-0.528-22.82c-0.081-3.506-0.494-11.781,1.549-15.037c2.008-3.199,7.34-2.722,10.812-2.89
		c7.766-0.378,15.593-0.019,23.371-0.082c23.143-0.192,46.265-0.361,69.398-0.426c32.497-0.091,64.946-1.776,97.456-2.605
		c37.648-0.96,75.542,0.025,113.198,1.037c36.208,0.973,72.505,0.646,108.681,2.078c11.781,0.466,23.413,0.793,35.2,0.346
		C484.061,296.558,490.856,293.563,489.905,297.132z"/>
	<path style="fill:#B23D3D;" d="M268.883,339.924c24.155,4.396,29.641,33.289,30.956,54.001c0.496,7.823-1.524,22.423,4.866,28.29
		c3.864,3.547,9.375,2.872,14.181,2.877c10.461,0.012,20.978-1.113,31.43-0.862c26.556,0.637,53.23-0.135,79.764-1.423
		c16.609-0.806,33.03,1.259,49.427,2.192c3.538,0.202,6.491-0.434,9.232-2.869c8.941-7.941-2.791-12.945-9.712-15.342
		c-20.675-7.159-43.359-6.57-64.695-10.524c-19.842-3.678-37.836-9.931-54.074-22.053c-6.875-5.133-12.758-11.403-19.519-16.628
		c-6.333-4.895-13.866-8.536-21.003-12.094c-8.047-4.011-16.644-7.868-25.29-10.345c-6.601-1.891-16.13-4.59-22.973-2.407
		C266.993,334.169,267.765,340.899,268.883,339.924z"/>
</g>
<path style="fill:#492E2E;" d="M397.674,266.804c-4.519-1.494-13.548-2.049-18.438-1.214c-4.67,0.798-6.674,4.838-6.075,9.327
	c0.76,5.695,6.197,4.3,11.397,4.744c10.629,0.907,20.861,1.476,31.5,1.654c5.976,0.1,11.822,1.255,17.767,0.446
	c3.358-0.457,5.736-0.206,7.574-3.209c1.519-2.483,1.138-5.955-0.722-7.851c-3.319-3.383-9.743-2.19-14.136-2.233
	C416.846,268.368,406.908,268.057,397.674,266.804z"/>
<g>
	<path style="fill:#6B3434;" d="M115.724,61.037c0.011,0.252,0.017,0.505,0.02,0.759c0.097,9.919-2.585,18.697-4.942,28.281
		c-1.711,6.955-2.19,16.65-6.684,22.593c-8.27,10.937-33.713,13.037-46.599,15.441c-7.633,1.425-36.934,0.264-28.853,13.969
		c9.733,16.508,39.393,18.649,56.103,20.6c37.801,4.413,76.821,1.091,114.894,1.091c50.768,0,101.473,1.802,152.278,1.87
		c21.381,0.027,42.727-1.052,64.112-1.246c13.578-0.123,26.899-4.29,39.996-7.476c9.738-2.369,18.218-4.62,23.679-13.574
		c12.838-21.051-29.829-12.243-39.789-11.366c-38.352,3.379-76.127,9.981-114.705,11.725c-31.174,1.408-65.458,3.517-95.428-7.097
		c-22.229-7.873-33.024-21.323-35.011-43.897c-0.84-9.552-2.118-20.187-7.205-28.523c-5.048-8.27-14.362-10.415-23.455-10.134
		c-7.734,0.238-19.936,5.084-25.092-3.482c-1.443-2.398-1.447-5.756-2.705-8.246c-2.472-4.897-4.329-0.546-8.155-2.996
		c-2.968-1.901-4.883-6.966-9.07-4.873c-4.572,2.285-4.574,11.378-4.577,15.532C114.535,53.709,115.562,57.256,115.724,61.037z"/>
	<path style="fill:#6B3434;" d="M74.695,199.827c-2.014,0.775-3.926,1.934-5.706,3.616c-6.008,5.675-12.904,9.259-20.265,13.126
		c-10.988,5.772-21.787,9.73-33.315,14.119c-5.16,1.964-12.773,6.566-9.287,13.081c2.121,3.965,8.027,3.687,11.773,4.193
		c8.296,1.123,16.551,2.536,24.894,3.285c21.707,1.949,43.003,0.678,64.763,0.034c27.152-0.805,54.215,1.101,81.368,1.091
		c13.321-0.005,26.29,0.257,39.424-1.036c7.296-0.718,15.337,1.025,22.629,1.618c7.865,0.641,15.74,1.189,23.632,1.307
		c18.446,0.279,36.831-1.113,55.276-0.476c33.592,1.162,67.32,0.586,100.907-0.302c19.234-0.509,39.582,0.627,58.645-2.226
		c6.147-0.92,23.818-2.756,17.874-13.225c-3.795-6.684-16.589-5.701-23.004-5.42c-19.28,0.841-38.423,4.096-57.764,4.876
		c-21.317,0.86-42.647,1.376-63.979,1.686c-15.467,0.224-30.937,0.342-46.406,0.401c-7.732,0.03-15.465,0.046-23.196,0.055
		c-6.218,0.007-12.278,1.092-18.415,0.815c-27.932-1.255-56.7-2.857-83.139-12.76c-9.815-3.677-18.486-8.917-26.819-15.197
		c-6.041-4.553-12.805-9.128-20.207-11.138c-9.121-2.475-18.873-0.292-28.175-0.629c-9.152-0.333-18.289-1.138-27.403-1.993
		C83.817,198.261,79.018,198.162,74.695,199.827z"/>
</g>
<g>
	<path style="fill:#CEBCBC;" d="M16.522,435.838c4.781,1.138,9.939,0.363,15.004,0.375c10.218,0.025,20.352-1.037,30.583-0.657
		c24.552,0.911,49.766-2.25,74.327-3.37c18.004-0.82,35.938,0.543,53.892,0.695c5.639,0.049,12.89-2.428,14.893,3.613
		c0.955,2.879,0.881,5.756,1.316,8.707c0.345,2.343,2.908,4.808,3.11,6.354c0.87,6.633-31.895,4.127-35.995,4.127
		c-13.986,0-28.037-0.148-42.009,0.404c-13.178,0.521-26.17,3.169-39.39,3.173c-19.19,0.005-38.109,0.38-57.242,1.216
		c-4.929,0.216-9.803-0.322-14.753-0.3c-3.229,0.014-5.741,0.735-5.635-2.584c0.15-4.661,6.17-6.668,5.095-12.032
		C19.118,442.56,14.681,438.027,16.522,435.838z"/>
	<path style="fill:#CEBCBC;" d="M11.281,468.411c7.8,0.441,15.801-1.494,23.599-1.843c13.489-0.606,27.202-0.162,40.704-0.037
		c17.687,0.163,35.144,0.077,52.837-0.841c18.627-0.967,37.31-0.38,55.918-1.305c6.998-0.348,13.938-0.664,20.908-1.412
		c2.241-0.241,6.632-1.542,8.6,0.025c5.733,4.562-6.464,8.624-9.246,9.636c-12.891,4.689-28.41,2.976-41.868,2.883
		c-22.613-0.158-45.217-0.73-67.825-0.737c-21.487-0.005-42.972,0.747-64.473,0.747C28.719,475.526,7.282,474.738,11.281,468.411z"
		/>
	<path style="fill:#CEBCBC;" d="M307.072,433.966c3.021,1.193,8.06,0.163,11.348,0.02c7.132-0.312,14.305-0.944,21.459-1.157
		c20.303-0.606,40.49,0.497,60.778,0.763c21.15,0.277,42.173,0.199,63.297-0.717c6.834-0.297,13.711-0.639,20.508-0.385
		c2.656,0.098,8.626-0.768,10.324,2.209c1.149,2.017-0.582,7.01-0.502,9.47c0.081,2.51,0.654,4.786,0.748,7.223
		c0.138,3.603,2.211,5.831-1.605,7.845c-2.189,1.155-5.581,0.562-7.972,0.714c-8.91,0.57-17.281,1.183-26.246,0.347
		c-10.038-0.935-19.334-1.655-29.345-1.549c-22.366,0.236-44.728,0.894-67.097,0.689c-11.849-0.108-23.894-1.291-35.71-2.258
		c-5.907-0.484-17.114,1.608-22.374-1.873c-2.501-1.656-1.828-2.978-0.424-5.884c0.945-1.954,3.153-4.001,3.522-6.187
		C308.117,441.241,306.871,439.302,307.072,433.966z"/>
	<path style="fill:#CEBCBC;" d="M311.191,466.539c-2.282-0.966-10.235-0.967-10.441,3.287c-0.173,3.578,12.052,6.431,14.544,6.745
		c16.314,2.061,33.743,0.308,50.114-0.297c16.458-0.608,32.935-0.591,49.391-1.15c10.349-0.353,20.674-1.503,31.021-1.927
		c8.02-0.329,15.926,0.666,23.975,0.036c7.379-0.578,14.741,0.469,22.058,0.052c3.955-0.226,9.856-0.753,10.533-5.545
		c-6.115-2.291-15.547-1.331-22.117-1.612c-16.393-0.699-32.742-0.672-49.162-0.358c-21.273,0.408-42.521,1.857-63.804,1.891
		C348.335,467.691,329.418,467.094,311.191,466.539z"/>
</g>
<path d="M147.948,174.167c-5.134-0.312-10.275-0.693-15.388-0.188c-6.101,0.603-14.657,0.577-19.627,4.816
	c-2.96,2.525-3.535,7.622-0.906,10.705c4.462,5.234,16.205,3.307,21.957,3.3c4.639-0.005,9.16-0.667,13.784-0.839
	c5.342-0.198,10.817,0.52,16.131,0.019c4.896-0.462,9.684-2.705,10.961-7.922C177.735,172.311,157.592,172.642,147.948,174.167z
	 M166.735,187.628c-5.449,2.076-13.209,0.289-18.967,0.49c-5.406,0.188-10.698,0.786-16.123,0.804
	c-4.355,0.015-16.751,1.968-17.302-4.289c-0.53-6.011,11.312-5.666,14.94-6.042c5.556-0.577,10.701-0.921,16.306-0.909
	c1.193,0.002,2.323-0.06,3.423-0.163c2.657,0.026,5.321-0.398,8.057-0.436c3.571-0.05,7.582,0.025,10.75,1.902
	C172.439,181.721,171.57,185.786,166.735,187.628z"/>
<path d="M130.534,263.977c-4.118,0.207-8.004,0.284-12.076,0.866c-5.635,0.805-11.32,1.369-17.008,1.867
	c-7.379-0.232-14.594-0.651-21.946-0.163c-5.848,0.388-11.175,0.654-11.258,7.599c-0.052,4.354,2.096,8.333,6.462,8.792
	c9.611,1.007,20.263,0.272,29.917,0.145c4.109-0.055,7.805,0.966,11.929,0.606c4.372-0.383,8.74-0.684,13.114-1.028
	c4.324-0.34,8.232,0.208,9.902-4.741c1.231-3.649,0.588-9.295-2.189-12.156C135.498,263.821,133.093,263.848,130.534,263.977z
	 M133.386,277.086c-0.647,0.267-2.241-0.213-3.019-0.132c-1.4,0.145-2.954,0.511-4.39,0.669c-3.138,0.344-6.27,0.666-9.406,1.015
	c-4.159,0.464-8.096-0.262-12.241,0.06c-8.949,0.697-18.155-0.37-27.162-0.186c-2.146,0.044-2.292,0.401-3.543-1.021
	c-2.587-2.939,0.464-5.008,3.162-6.004c2.995-1.105,6.487-0.581,9.606-0.755c7.279-0.406,14.695,0.041,22.038-0.182
	c3.848-0.117,7.436-0.851,11.247-1.244c1.555-0.16,2.826-0.251,4.081-0.596c2.624-0.317,5.569-0.572,7.69-0.142
	C134.868,269.26,137.499,275.386,133.386,277.086z"/>
<path d="M494.142,227.309c-4.867-0.828-9.454-3.278-14.111-4.842c-4.909-1.649-9.825-4.531-14.318-7.15
	c-4.258-2.483-7.648-5.344-11.358-8.479c-2.177-1.84-4.823-2.747-6.91-4.724c-1.423-1.349-2.473-3.017-4.092-4.182
	c-2.984-2.144-8.205-2.404-11.811-2.504c-2.16-0.06-4.562,0.019-6.906,0.27c0.004-0.032,0.012-0.055,0.015-0.087
	c0.066-0.885,0.128-1.772,0.191-2.66c1.735-3.374,0.834-7.892,1.125-11.748c0.081-1.062,0.697-4.194,0.528-6.092
	c-0.211-2.377-0.588-4.74-0.946-7.103c6.175-0.653,12.38-1.632,18.343-2.884c9.081-1.907,17.46-5.533,25.886-9.348
	c4.347-1.968,8.397-4.899,12.287-7.632c2.499-1.755,5.263-3.744,6.044-6.907c0.439-1.78,0.335-3.262-0.138-4.514
	c0.221-1.24,0.06-2.297-0.374-3.212c1.388-3.504,2.135-7.836,2.753-11.356c0.724-4.119,0.203-8.492-1.274-12.409
	c-2.12-5.624-6.884-3.26-9.031,0.851c-0.558,1.068-0.845,2.339-1.446,3.375c-1.01,1.742-0.508,1.029-1.467-0.609
	c-1.295-2.214-3.575-4.083-6.266-4.101c-2.994-0.02-4.564,2.094-5.646,4.6c-0.811,1.881-2.063,3.754-2.635,5.702
	c-0.284,0.967,0.01,3.533-1.015,4.023c-0.365,0.174-0.647,0.403-0.859,0.663c-6.859-1.573-13.737-3.079-20.636-4.189
	c-4.797-0.773-9.376-2.612-14.136-3.637c-3.263-0.702-11.239-1.268-13.319-4.359c-1.225-1.82-1.491-5.49-2.078-7.633
	c-0.669-2.448-1.542-4.841-2.138-7.31c-1.028-4.263-1.923-8.479-3.098-12.712c-1.067-3.843-2.941-7.411-3.97-11.347
	c-0.906-3.465-1.826-7.24-3.514-10.477c1.894-4.246,0.738-8.573,1.388-13.103c0.531-3.698,0.441-7.749-0.695-11.358
	c-1.354-4.301-7.71-8.958-12.016-5.711c-1.537,1.159-1.972,5.641-3.046,6.167c-2.227,1.091-5.313-2.95-8.402-1.216
	c-2.791,1.567-4.238,5.705-4.799,8.63c-0.376,1.963-1.209,4.23-1.496,6.378c-4.159,0.1-8.32,0.259-12.423,0.072
	c-8.924-0.406-17.752-1.441-26.791-1.396c-7.433,0.036-14.839,0.302-22.251,0.646c-5.731-0.04-11.367,0.707-17.146,0.611
	c-5.869-0.097-11.639,0.971-17.519,0.892c-5.508-0.074-10.962-1.194-16.514-1.016c-5.672,0.182-10.928,1.221-16.651,0.565
	c-6.147-0.704-12.461-0.197-18.648-0.095c-1.403,0.024-2.799,0.03-4.193,0.032c-2.008-0.333-4.021-0.604-5.979-0.703
	c-9.396-0.477-18.768-0.886-28.183-0.932c-9.04-0.044-17.867,0.99-26.791,1.396c-4.103,0.187-8.263,0.027-12.423-0.072
	c-0.287-2.147-1.119-4.415-1.496-6.378c-0.561-2.925-2.008-7.063-4.799-8.63c-3.09-1.734-6.175,2.307-8.402,1.216
	c-1.074-0.526-1.509-5.008-3.046-6.167c-4.305-3.247-10.661,1.41-12.016,5.711c-1.137,3.609-1.225,7.66-0.695,11.358
	c0.651,4.529-0.505,8.857,1.388,13.103c-1.688,3.237-2.607,7.012-3.514,10.477c-1.028,3.936-2.903,7.504-3.97,11.347
	c-1.175,4.233-2.07,8.449-3.098,12.712c-0.596,2.468-1.468,4.861-2.138,7.31c-0.586,2.143-0.853,5.813-2.078,7.633
	c-2.08,3.091-10.054,3.656-13.319,4.359c-4.76,1.025-9.339,2.864-14.136,3.637c-6.9,1.111-13.777,2.616-20.636,4.189
	c-0.212-0.26-0.494-0.487-0.859-0.663c-1.025-0.491-0.73-3.057-1.015-4.023c-0.573-1.948-1.825-3.821-2.636-5.702
	c-1.082-2.506-2.652-4.619-5.646-4.6c-2.692,0.017-4.972,1.887-6.266,4.101c-0.958,1.638-0.457,2.351-1.467,0.609
	c-0.601-1.034-0.887-2.307-1.446-3.375c-2.147-4.112-6.911-6.475-9.031-0.851c-1.477,3.917-1.998,8.29-1.274,12.409
	c0.618,3.52,1.365,7.853,2.753,11.356c-0.432,0.914-0.595,1.971-0.374,3.212c-0.474,1.253-0.577,2.735-0.138,4.514
	c0.78,3.163,3.545,5.152,6.044,6.907c3.89,2.732,7.939,5.663,12.287,7.632c8.425,3.815,16.805,7.44,25.886,9.348
	c5.963,1.253,12.168,2.23,18.343,2.884c-0.356,2.364-0.735,4.727-0.946,7.103c-0.168,1.898,0.449,5.029,0.528,6.092
	c0.292,3.856-0.609,8.373,1.125,11.748c0.062,0.887,0.125,1.775,0.191,2.66c0.002,0.032,0.012,0.055,0.015,0.087
	c-2.344-0.252-4.746-0.329-6.906-0.27c-3.607,0.1-8.828,0.36-11.811,2.504c-1.619,1.164-2.668,2.833-4.092,4.182
	c-2.086,1.977-4.731,2.884-6.91,4.724c-3.71,3.135-7.101,5.998-11.358,8.479c-4.493,2.621-9.408,5.503-14.318,7.15
	c-4.658,1.564-9.244,4.015-14.111,4.842c-7.846,1.335-18.573,2.554-17.824,13.063c0.763,10.676,11.202,13.26,20.564,13.504
	c3.694,0.096,7.251,0.546,10.826,1.072c-2.164,5.214-0.921,11.725-1.044,17.245c-0.126,5.682-1.67,12.829,0.839,18.151
	c0.161,0.34,0.37,0.623,0.598,0.88c-0.41,0.014-0.82,0.037-1.231,0.052c-2.387-0.462-4.541-1.443-7.059-1.211
	c-2.179,0.202-3.785,1.006-4.942,2.207c-0.528,0.318-0.864,0.796-1.011,1.33c-1.108,1.848-1.543,4.238-1.538,6.76
	c0.032,16.688,0.788,33.258,0.74,49.92c-0.022,7.741-0.783,15.433-0.82,23.226c-0.04,8.349-0.106,16.699-0.177,25.048
	c-0.035,4.121,0.695,8.104,0.724,12.217c0.024,3.328-0.285,6.753,0.06,10.066c0.093,0.896,0.273,1.845,0.54,2.759
	c-4.155,1.722-8.978,4.717-9.521,9.339c-0.97,8.261,11.386,8.728,8.767,16.488c-1.833,5.434-7.635,9.091-9.287,14.88
	c-1.407,4.937,0.487,9.275,5.039,11.586c5.479,2.782,12.552,2.681,18.499,3.614c8.133,1.277,17.055,1.231,25.3,1.104
	c7.461-0.115,14.827-0.734,22.322-0.722c9.163,0.015,18.38,0.308,27.537-0.003c8.678-0.294,17.281-0.698,25.977-0.636
	c5.443,0.039,10.853,0.744,16.29,0.734c4.385-0.009,8.364-0.248,12.74,0.355c3.836,0.528,7.15-0.125,10.956-0.361
	c4.837-0.302,9.855-0.15,14.702-0.176c4.208-0.022,8.419,0.416,12.632,0.237c1.838-0.078,3.244-0.436,4.555-0.942
	c9.91-1.241,19.618-9.314,17.821-20.063c-0.839-5.015-3.911-10.274-8.227-13.015c-1.209-0.768-2.351-0.897-2.687-2.408
	c-0.187-0.841,1.568-5.069,1.744-6.017c0.487-2.636,0.719-5.515,0.621-8.195c-0.07-1.889-0.545-3.413-1.319-4.644
	c1.607-4.345,1.648-10.504,2.245-13.733c0.786-4.251,0.581-8.561,1.356-12.85c0.899-4.974,2.119-9.98,3.689-14.766
	c3.31-10.093,5.651-20.942,12.295-29.439c0.005-0.006,0.01-0.012,0.015-0.02c0.59-0.442,1.192-0.853,1.82-1.188
	c4.929-2.629,9.512-5.904,14.892-7.602c7.284-2.297,15.049-2.696,22.423-1.18c0.811,0.441,1.605,0.894,2.327,1.4
	c3.393,2.378,5.697,5.363,8.22,8.59c6.644,8.498,8.985,19.346,12.295,29.439c1.57,4.787,2.791,9.791,3.689,14.766
	c0.775,4.289,0.57,8.599,1.356,12.85c0.597,3.228,0.638,9.389,2.245,13.733c-0.774,1.231-1.249,2.754-1.319,4.644
	c-0.1,2.68,0.133,5.559,0.621,8.195c0.176,0.948,1.931,5.176,1.744,6.017c-0.337,1.511-1.478,1.64-2.687,2.408
	c-4.316,2.741-7.388,7.999-8.227,13.015c-1.798,10.749,7.909,18.821,17.821,20.063c1.311,0.506,2.717,0.864,4.555,0.942
	c4.213,0.18,8.424-0.259,12.632-0.237c4.847,0.025,9.865-0.126,14.702,0.176c3.804,0.237,7.119,0.89,10.956,0.361
	c4.376-0.603,8.356-0.364,12.74-0.355c5.437,0.01,10.848-0.694,16.29-0.734c8.696-0.062,17.298,0.343,25.977,0.636
	c9.158,0.31,18.374,0.016,27.537,0.003c7.496-0.011,14.863,0.608,22.322,0.722c8.246,0.126,17.167,0.172,25.3-1.104
	c5.946-0.934,13.02-0.834,18.499-3.614c4.552-2.311,6.446-6.649,5.039-11.586c-1.651-5.789-7.452-9.445-9.287-14.88
	c-2.619-7.761,9.737-8.227,8.767-16.488c-0.543-4.622-5.366-7.617-9.521-9.339c0.267-0.915,0.446-1.863,0.54-2.759
	c0.345-3.313,0.036-6.738,0.06-10.066c0.03-4.113,0.76-8.098,0.724-12.217c-0.071-8.349-0.137-16.698-0.177-25.048
	c-0.037-7.794-0.799-15.485-0.82-23.226c-0.047-16.661,0.708-33.233,0.74-49.92c0.005-2.523-0.43-4.912-1.538-6.76
	c-0.146-0.533-0.482-1.011-1.011-1.33c-1.157-1.202-2.762-2.005-4.942-2.207c-2.519-0.233-4.673,0.749-7.059,1.211
	c-0.41-0.015-0.821-0.039-1.23-0.052c0.228-0.257,0.437-0.538,0.598-0.88c2.509-5.321,0.966-12.467,0.839-18.151
	c-0.123-5.519,1.118-12.031-1.044-17.245c3.575-0.526,7.132-0.976,10.826-1.072c9.361-0.244,19.801-2.829,20.564-13.504
	C512.716,229.862,501.989,228.644,494.142,227.309z M468.865,118.087c3.484-6.343,3.381-1.248,5.811,1.173
	c1.38,1.375,3.461,1.943,5.285,1.185c1.919-0.798,2.54-2.575,3.275-4.347c0.254-0.614,0.499-1.23,0.759-1.84
	c0.401,1.643,1.135,3.577,1.127,4.564c-0.02,2.21-0.658,4.337-1,6.501c-0.217,1.372-0.611,2.995-0.632,4.407
	c0,0.042,0.004,0.14,0.012,0.272c-2.728-1.263-6.177-1.959-8.918-2.569c-2.586-0.575-5.176-1.173-7.769-1.774
	C467.764,123.348,467.668,120.269,468.865,118.087z M400.75,103.754c1.828,6.253,2.037,14.868,8.68,17.907
	c7.216,3.3,15.895,4.246,23.56,6.206c9.445,2.414,19.472,3.476,29.113,5.058c4.822,0.791,9.557,2.042,14.371,2.879
	c2.743,0.477,3.557,0.784,4.379,2.063c-0.111,1.056-1.018,2.124-2.955,3.147c-0.661,0.349-1.314,0.722-1.968,1.092
	c-1.324-0.295-2.647-0.591-3.985-0.846c-2.948-0.563-5.814-0.162-8.789-0.423c-8.047-0.703-16.113-2.728-23.973-4.393
	c-7.41-1.569-14.786-2.751-21.917-5.333c-5.409-1.959-12.003-3.017-15.905-7.799c-6.703-8.212-8.135-19.36-10.537-29.04
	c-2.754-11.101-6.59-21.829-9.626-32.806c0.89,0.173,1.771,0.39,2.642,0.667c8.869,2.824,7.857,13.628,11.037,20.797
	C397.817,89.556,398.71,96.778,400.75,103.754z M376.054,48.548c0.248-2.048-0.518-3.874,1.411-5.352
	c1.994-1.528,0.987-0.337,2.938-0.146c3.323,0.324,5.69,1.254,7.686-2.24c0.712-1.245,0.611-3.546,1.939-3.862
	c2.745-0.654,3.6,6.72,3.669,8.215c0.145,3.135-0.886,6.054-0.474,9.192c0.138,1.051,0.334,2.12,0.563,3.184
	c-3.451-2.895-7.99-4.383-12.497-4.863c-2.05-0.218-4.114-0.318-6.188-0.351C375.471,51.076,375.899,49.842,376.054,48.548z
	 M118.309,45.164c0.069-1.494,0.925-8.869,3.669-8.215c1.329,0.317,1.226,2.617,1.939,3.862c1.997,3.494,4.364,2.563,7.686,2.24
	c1.951-0.191,0.943-1.382,2.938,0.146c1.929,1.478,1.164,3.304,1.411,5.352c0.156,1.294,0.585,2.528,0.953,3.778
	c-2.073,0.034-4.138,0.133-6.188,0.351c-4.508,0.48-9.046,1.968-12.497,4.863c0.229-1.064,0.425-2.134,0.563-3.184
	C119.195,51.218,118.164,48.298,118.309,45.164z M28.504,130.002c0.009-0.132,0.014-0.229,0.012-0.272
	c-0.02-1.412-0.415-3.035-0.632-4.407c-0.342-2.164-0.98-4.29-1-6.501c-0.009-0.987,0.725-2.921,1.127-4.564
	c0.259,0.609,0.504,1.224,0.759,1.84c0.735,1.772,1.356,3.55,3.275,4.347c1.823,0.758,3.905,0.189,5.285-1.185
	c2.428-2.419,2.327-7.516,5.811-1.173c1.198,2.181,1.102,5.261,2.049,7.573c-2.592,0.601-5.182,1.198-7.769,1.774
	C34.68,128.043,31.231,128.739,28.504,130.002z M40.062,141.257c-1.336,0.256-2.661,0.551-3.983,0.846
	c-0.653-0.37-1.306-0.742-1.968-1.092c-1.937-1.023-2.843-2.091-2.955-3.147c0.82-1.279,1.635-1.585,4.378-2.063
	c4.813-0.838,9.548-2.088,14.371-2.879c9.642-1.58,19.668-2.642,29.113-5.058c7.665-1.959,16.344-2.905,23.56-6.206
	c6.643-3.037,6.851-11.652,8.68-17.907c2.04-6.976,2.931-14.197,5.873-20.827c3.179-7.169,2.169-17.973,11.037-20.797
	c0.871-0.277,1.752-0.494,2.642-0.667c-3.037,10.977-6.872,21.704-9.626,32.806c-2.402,9.681-3.834,20.829-10.537,29.04
	c-3.902,4.781-10.494,5.84-15.905,7.799c-7.133,2.582-14.508,3.763-21.917,5.333c-7.86,1.664-15.925,3.691-23.973,4.393
	C45.876,141.094,43.009,140.693,40.062,141.257z M67.309,155.185c-7.574-1.755-15.315-4.795-22.362-8.16
	c-0.844-0.403-1.673-0.84-2.498-1.289c2.852-0.125,5.721-0.162,8.553-0.492c7.507-0.875,14.762-2.215,22.146-3.699
	c7.583-1.523,15.254-2.514,22.571-5.068c5.897-2.058,11.741-2.898,16.509-7.388c4.013-3.78,6.024-9.791,8.165-14.661
	c2.022-4.597,4.122-10.096,5.425-14.852c2.155-7.868,3.772-15.76,6.587-23.507c1.801-4.956,3.26-10.077,4.567-15.209
	c4.59-0.121,9.259,0.241,13.724-0.399c7.377-1.057,14.95-1.903,22.447-2.26c9.568-0.455,19.112,0.507,28.633,0.511
	c4.052,0.317,8.096,0.663,12.192,0.723c7.138,0.106,14.352-0.194,21.479,0.155c5.936,0.29,11.273,1.017,17.265,0.333
	c5.774-0.661,11.271,0.13,17.008,0.56c6.121,0.459,12.137-0.783,18.221-0.87c9.175-0.13,18.451-0.127,27.593-0.978
	c7.762-0.229,15.54-0.804,23.335-0.434c7.497,0.356,15.07,1.202,22.447,2.26c4.465,0.639,9.133,0.278,13.724,0.399
	c1.306,5.133,2.766,10.254,4.567,15.209c2.816,7.747,4.431,15.638,6.587,23.507c1.302,4.755,3.403,10.255,5.425,14.852
	c2.142,4.87,4.152,10.881,8.165,14.661c4.769,4.491,10.613,5.331,16.509,7.388c7.317,2.554,14.988,3.545,22.571,5.068
	c7.384,1.483,14.639,2.824,22.146,3.699c2.832,0.33,5.701,0.368,8.553,0.492c-0.825,0.449-1.654,0.885-2.498,1.289
	c-7.047,3.365-14.788,6.405-22.362,8.16c-15.325,3.551-31.986,4.374-47.655,4.233c-8.288-0.075-16.644,0.578-24.966,0.718
	c-9.482,0.16-18.98,0.507-28.452,0.967c-6.244,0.303-12.484,0.682-18.722,1.072c-3.162-0.319-6.349-0.538-9.718-0.528
	c-6.931,0.02-13.749,0.674-20.622-0.449c-6.678-1.089-13.77-0.298-20.528-0.304c-7.375-0.006-14.75,0.016-22.126,0.036
	c-22.523,0.062-45.186-0.542-67.665,1.066c-5.286-0.325-10.572-0.637-15.861-0.894c-9.472-0.46-18.97-0.808-28.452-0.967
	c-8.322-0.14-16.678-0.793-24.966-0.718C99.295,159.558,82.634,158.736,67.309,155.185z M417.401,194.863
	c0.233,0.385,0.536,0.707,0.881,0.957c-5.341,0.198-10.7,0.699-15.906,0.799c-6.519,0.125-12.615,0.603-19.218,0.015
	c-6.085-0.541-12.492-0.963-18.611-0.99c-7.182-0.03-14.389-0.039-21.57,0.07c-6.619,0.1-12.93,1.179-19.557,0.349
	c-6.077-0.762-12.317-0.275-18.434-0.183c-0.596,0.009-1.185,0.01-1.776,0.01c-1.172-0.295-2.356-0.56-3.588-0.723
	c-3.809-0.504-7.43,0.506-11.243,0.53c-8.346,0.05-16.862-0.727-25.139,0.333c-9.77,1.25-19.943-0.01-29.777,0.354
	c-2.057,0.076-4.066,0.371-6.089,0.634c-0.378-0.348-0.853-0.602-1.407-0.673c-6.444-0.828-12.526-0.368-18.95-0.465
	c-6.117-0.092-12.357-0.578-18.434,0.183c-6.627,0.831-12.936-0.249-19.557-0.349c-7.18-0.108-14.388-0.1-21.57-0.07
	c-6.118,0.025-12.526,0.449-18.611,0.99c-6.603,0.587-12.699,0.11-19.218-0.015c-5.206-0.1-10.565-0.601-15.906-0.799
	c0.346-0.252,0.649-0.572,0.881-0.957c1.31-2.169,1.086-3.846,0.795-6.287c-0.353-2.974-0.025-6.091-0.49-9.024
	c-0.3-1.894-0.708-3.768-1.168-5.632c0.021-1.781-0.007-3.59-0.214-5.315c0.536,0.036,1.074,0.075,1.608,0.102
	c40.26,2.149,80.575,0.872,120.873-0.828c11.966,0.102,23.933,0.088,35.899,0.122c14.195,0.039,29.115-1.285,43.156,0.499
	c8.978,1.14,18.424,0.861,27.728,0.415c31.37,1.062,62.741,1.464,94.078-0.208c0.533-0.029,1.071-0.067,1.608-0.102
	c-0.207,1.725-0.236,3.533-0.214,5.315c-0.46,1.865-0.867,3.738-1.168,5.632c-0.465,2.931-0.137,6.05-0.49,9.024
	C416.316,191.017,416.092,192.694,417.401,194.863z M15.642,245.981c-3.939-0.69-10.32-2.812-6.313-6.687
	c3.177-3.071,7.867-1.473,11.812-2.429c8.543-2.069,16.492-6.143,24.297-10.04c8.428-4.208,15.864-10.128,22.838-16.314
	c3.308-2.934,4.366-6.443,8.86-7.643c0.06-0.016,0.12-0.025,0.178-0.04c2.413,0.231,4.835,0.117,7.331,0.179
	c-2.324,4.236-4.943,8.339-8.646,11.368c-6.097,4.987-12.143,9.633-19.185,13.209C43.388,234.4,30.202,241.976,15.642,245.981z
	 M17.01,433.407c0.757-1.81,6.366-2.752,7.747-2.88c6.611-0.617,13.417,0.354,20.044,0.05c6.292-0.288,12.562-1.216,18.851-1.537
	c13.345-0.679,26.666-1.717,40.011-2.276c14.468-0.606,29.001,1.85,43.481,2.24c8.245,1.069,16.837,0.358,25.147,0.517
	c3.951,0.076,7.858-0.093,11.781-0.249c2.953-0.022,5.893-0.148,8.808-0.538c4.042-0.371,9.266-0.702,10.532,0.641
	c1.168,1.239,0.886,3.593,0.221,6.091c-1.638,0.138-3.216,0.421-4.861,0.773c-0.075,0.016-0.148,0.027-0.223,0.041
	c-7.052-0.667-14.862-0.56-21.762-0.101c-7.87,0.522-15.516,0.162-23.318,0.818c-6.905,0.58-13.818-0.192-20.735,0.636
	c-9.044,1.083-18.572,1.572-27.679,1.787c-8.786,0.208-17.585-0.005-26.369-0.203c-8.408-0.189-16.593-1.472-25.001-0.861
	c-6.861,0.499-13.983,0.935-20.804,0.617c-3.872-0.181-7.811-0.229-11.654-0.528h-0.002c-0.828-0.91-1.772-1.719-2.771-2.496
	C17.061,434.863,16.307,435.087,17.01,433.407z M23.704,443.066c2.928,0.317,5.868,0.416,8.808,0.681
	c7.008,0.629,14.116,0.012,21.17-0.515c8.348-0.624,16.608,0.441,25.001,0.143c9.199-0.327,18.379-0.34,27.582-0.272
	c8.251,0.061,16.716,0.263,24.952-0.105c8.063-0.36,16.291,0.193,24.317-0.533c3.849-0.348,6.998,0.156,10.794,0.334
	c3.922,0.183,7.664-0.668,11.561-0.823c6.238-0.247,12.127-0.029,18.131-0.796c0.176,0.107,0.406,0.115,0.6,0.08
	c1.483-0.261,3.136,0.501,4.683,0.328c0.146-0.016,0.295-0.026,0.445-0.036c-0.167,0.608-0.292,1.159-0.34,1.62
	c-0.361,3.424,0.925,6.224,3.641,8.368c0.389,0.307,0.799,0.614,1.218,0.925c-6.312-0.88-13.154,0.334-19.366,0.603
	c-8.433,0.365-16.983,0.346-25.395,0.953c-16.486,1.19-32.991,1.18-49.493,1.388c-7.735,0.098-15.455,0.988-23.255,1.018
	c-8.806,0.034-17.622-0.06-26.424,0.172c-7.893,0.207-15.99-1.287-23.76-0.287c-4.408,0.568-8.798,0.456-13.234,0.527
	c-2.068,0.034-3.912,0.486-5.784,0.934c1.24-1.615,2.373-3.071,2.857-4.098C23.904,450.495,24.576,446.544,23.704,443.066z
	 M210.858,456.885c0.197,0.05,0.393,0.098,0.588,0.146c1.339,1.757,2.038,3.848,1.25,6.552c-0.945,3.246-4.265,5.285-7.625,7.006
	c-4.625-0.516-9.758,0.457-14.28,0.304c-7.599-0.258-15.59-0.475-23.15,0.43c-3.345,0.401-5.878-0.193-9.231-0.499
	c-3.461-0.317-6.914,0.151-10.376,0.167c-7.64,0.035-15.282-0.689-22.943-0.678c-29.999,0.042-60.068,2.252-90.009,0.864
	c-3.067-0.142-5.993-0.882-9.032-1.239c-2.994-0.352-6.582,0.112-9.395-1.245c-2.868-1.383-1.649-4.422,0.418-7.524
	c2.055,0.081,3.997-0.172,6.158-0.168c3.986,0.006,7.951,0.694,11.955,0.497c4.234-0.209,7.918-0.654,12.18-0.137
	c4.276,0.52,8.518,0.495,12.82,0.408c8.743-0.178,17.489-0.069,26.234-0.036c8.262,0.031,16.354-0.494,24.547-0.815
	c16.441-0.644,33,0.601,49.431-0.853c8.73-0.773,17.738-0.608,26.502-0.951c3.734-0.146,7.346-0.755,11.101-0.652
	c3.819,0.105,7.805,0.486,11.506-0.55C210.134,457.735,210.57,457.352,210.858,456.885z M495.351,468.692
	c-2.813,1.357-6.403,0.894-9.395,1.245c-3.039,0.356-5.965,1.097-9.032,1.239c-29.942,1.387-60.01-0.821-90.009-0.864
	c-7.66-0.011-15.302,0.714-22.943,0.678c-3.462-0.016-6.915-0.482-10.376-0.167c-3.353,0.305-5.885,0.9-9.231,0.499
	c-7.56-0.906-15.551-0.688-23.15-0.43c-4.522,0.155-9.654-0.819-14.28-0.304c-3.36-1.721-6.681-3.76-7.625-7.006
	c-0.864-2.964,0.051-5.196,1.646-7.054c0.264,0.628,0.762,1.163,1.542,1.381c3.702,1.037,7.688,0.654,11.506,0.55
	c3.754-0.103,7.367,0.506,11.101,0.652c8.764,0.343,17.772,0.178,26.502,0.951c16.431,1.453,32.99,0.208,49.431,0.853
	c8.194,0.322,16.284,0.846,24.547,0.815c8.745-0.032,17.492-0.142,26.234,0.036c4.301,0.087,8.543,0.112,12.82-0.408
	c4.261-0.517,7.946-0.072,12.18,0.137c4.005,0.197,7.971-0.491,11.955-0.497c2.161-0.004,4.103,0.249,6.158,0.168
	C496.998,464.27,498.219,467.308,495.351,468.692z M310.599,443.17c-0.032-0.307-0.103-0.661-0.193-1.037
	c1.62,0.012,3.237,0.064,4.861,0.01c1.997-0.066,4.3-0.042,6.346-0.505c4.104,0.204,8.222,0.167,12.504,0.337
	c3.897,0.155,7.639,1.007,11.561,0.823c3.795-0.178,6.946-0.682,10.794-0.334c8.025,0.725,16.254,0.173,24.317,0.533
	c8.236,0.368,16.701,0.167,24.952,0.105c9.203-0.069,18.383-0.055,27.582,0.272c8.393,0.298,16.653-0.767,25.001-0.143
	c7.053,0.527,14.161,1.145,21.17,0.515c2.939-0.264,5.88-0.364,8.808-0.68c-0.871,3.477-0.199,7.428,1.292,10.607
	c0.482,1.028,1.615,2.483,2.857,4.098c-1.872-0.447-3.717-0.9-5.784-0.934c-4.435-0.072-8.826,0.041-13.234-0.527
	c-7.77-1.001-15.866,0.494-23.76,0.287c-8.802-0.232-17.619-0.138-26.424-0.172c-7.8-0.029-15.52-0.92-23.255-1.018
	c-16.502-0.208-33.008-0.197-49.493-1.388c-8.412-0.607-16.962-0.588-25.395-0.953c-6.211-0.269-13.054-1.483-19.366-0.603
	c0.419-0.31,0.829-0.618,1.218-0.925C309.675,449.394,310.96,446.594,310.599,443.17z M494.997,433.407
	c0.703,1.68-0.051,1.457-1.441,2.539c-1,0.778-1.943,1.587-2.771,2.496h-0.001c-3.843,0.299-7.781,0.348-11.654,0.528
	c-6.821,0.318-13.943-0.118-20.804-0.617c-8.408-0.611-16.593,0.672-25.001,0.861c-8.784,0.198-17.584,0.413-26.369,0.203
	c-9.107-0.216-18.636-0.704-27.679-1.787c-6.915-0.828-13.828-0.056-20.735-0.636c-7.802-0.654-15.449-0.295-23.318-0.818
	c-5.303-0.352-11.143-0.49-16.765-0.238c-1.993-0.865-4.508-0.859-6.597-0.477c-1.122,0.204-2.222,0.381-3.305,0.631
	c-0.784-2.725-1.223-5.377,0.044-6.719c1.266-1.344,6.49-1.013,10.532-0.641c2.915,0.39,5.855,0.516,8.808,0.538
	c3.922,0.156,7.83,0.325,11.781,0.249c8.31-0.16,16.902,0.551,25.147-0.517c14.479-0.39,29.012-2.845,43.48-2.24
	c13.345,0.558,26.665,1.597,40.011,2.276c6.289,0.32,12.56,1.248,18.851,1.537c6.627,0.304,13.433-0.667,20.044-0.05
	C488.63,430.655,494.24,431.597,494.997,433.407z M481.997,298.525c0.474,0.009,0.946,0.016,1.427-0.015
	c3.526-0.223,3.833,0.064,3.707,3.639c-0.108,3.091-0.087,6.191-0.106,9.284c-0.078,12.992-0.624,25.842-0.694,38.848
	c-0.034,6.228,0.648,12.317,0.621,18.557c-0.03,6.614-0.065,13.228-0.096,19.842c-0.052,11.025-0.634,21.965-1.096,32.973
	c-5.584-0.266-11.573,0.555-16.704,0.447c-6.318-0.133-12.619-1.23-18.93-1.457c-7.134-0.257-14.255-1.15-21.388-1.339
	c-4.192-0.11-8.391,0.283-12.58,0.243c-2.993-0.029-5.973-0.77-8.954-0.641c-15.141,0.658-30.142,2.453-45.259,3.176
	c-2.746,0.131-5.528,0.217-8.331,0.29c-9.221-0.698-18.457-0.823-27.79-1.531c-4.543-0.345-12.175-1.547-18.121-0.368
	c-0.283-4.359-1.453-9.103-1.764-11.586c-0.632-5.057-0.408-10.033-1.452-15.096c-1.182-5.723-2.644-11.22-4.435-16.78
	c-2.559-7.942-5.986-15.506-8.513-23.392c-2.364-7.38-10.3-12.598-17.254-15.123c-8.945-3.248-16.422-2.969-25.843-1.043
	c-7.666,1.568-14.894,5.237-20.706,10.474c-8.55,7.706-12.34,18.401-15.782,29.083c-1.791,5.56-3.253,11.057-4.435,16.78
	c-1.044,5.064-0.82,10.039-1.452,15.096c-0.31,2.483-1.482,7.228-1.764,11.586c-5.948-1.178-13.579,0.024-18.121,0.368
	c-9.333,0.709-18.57,0.833-27.79,1.531c-2.802-0.074-5.585-0.16-8.331-0.29c-15.117-0.723-30.12-2.518-45.259-3.176
	c-2.981-0.13-5.96,0.612-8.954,0.641c-4.189,0.04-8.388-0.354-12.58-0.243c-7.133,0.187-14.253,1.082-21.388,1.339
	c-6.31,0.227-12.613,1.324-18.93,1.457c-5.131,0.108-11.12-0.713-16.704-0.447c-0.461-11.008-1.043-21.947-1.096-32.973
	c-0.031-6.615-0.066-13.228-0.096-19.842c-0.027-6.241,0.654-12.329,0.621-18.557c-0.07-13.005-0.616-25.855-0.694-38.848
	c-0.019-3.093,0.004-6.193-0.106-9.284c-0.126-3.575,0.181-3.862,3.707-3.639c0.48,0.03,0.953,0.022,1.426,0.015
	c1.522,0.262,3.055,0.482,4.622,0.592c4.784,0.337,9.5,0.246,14.255,0.791c8.597,0.987,17.745,1.022,26.409,1.25
	c9.257,0.244,18.396-0.718,27.657-0.692c5.624,0.015,11.302-0.192,16.921,0.001c4.094,0.141,7.989,0.965,12.099,0.44
	c8.505-1.086,17.459-1.144,26.054-1.142c4.12,0.001,8.222,0.168,12.338,0.251c4.7,0.093,9.275-0.927,13.979-0.978
	c8.579-0.093,16.995-0.702,25.584-0.763c6.378-0.046,14.088,0.86,21.091,0.183c2.68,0.07,5.359,0.137,8.038,0.166
	c4.735,0.049,9.361-0.872,14.09-0.442c8.54,0.777,17.094,0.121,25.696,0.017c7.541,1.138,16.199,0.026,23.235,0.076
	c8.589,0.061,17.007,0.669,25.584,0.763c4.704,0.051,9.278,1.072,13.979,0.978c4.116-0.082,8.217-0.249,12.338-0.251
	c8.595-0.004,17.55,0.056,26.054,1.142c4.109,0.525,8.004-0.3,12.099-0.44c5.619-0.193,11.297,0.014,16.921-0.001
	c9.261-0.025,18.4,0.936,27.657,0.692c8.666-0.228,17.813-0.264,26.411-1.25c4.755-0.546,9.471-0.455,14.255-0.791
	C478.942,299.007,480.475,298.787,481.997,298.525z M472.895,273.185c0.062,5.005-0.005,9.916-0.466,14.897
	c-0.113,1.224,0.359,2.24,1.123,2.995c-12.253-0.138-24.443,0.363-36.841,0.637c-9.254,0.204-18.385-0.732-27.657-0.714
	c-5.62,0.011-11.305-0.221-16.921-0.011c-4.4,0.165-8.307,0.815-12.728,0.256c-8.278-1.048-17.058-0.983-25.426-0.987
	c-4.441-0.001-8.879,0.257-13.312,0.258c-4.347,0.001-8.631-0.962-13.003-1.008c-8.574-0.09-16.986-0.657-25.584-0.607
	c-7.074,0.041-15.794-1.084-23.369,0.091c-0.916,0.002-1.832,0.006-2.748,0.009c-3.967,0.01-7.947-0.145-11.889,0.345
	c-4.837,0.602-9.17-0.445-13.99-0.415c-4.159,0.025-8.28,0.917-12.461,1.066c-8.399-2.657-19.223-1.047-27.693-1.096
	c-8.599-0.05-17.01,0.517-25.584,0.607c-4.374,0.046-8.656,1.008-13.003,1.008c-4.435-0.001-8.872-0.26-13.312-0.258
	c-8.368,0.004-17.148-0.061-25.426,0.987c-4.42,0.56-8.328-0.092-12.728-0.256c-5.616-0.209-11.3,0.022-16.921,0.011
	c-9.272-0.017-18.404,0.919-27.657,0.714c-12.4-0.274-24.588-0.775-36.841-0.637c0.764-0.755,1.236-1.771,1.123-2.995
	c-0.461-4.98-0.528-9.891-0.466-14.897c0.026-2.124-0.035-3.973-0.371-6.085c-0.451-2.832-1.767-7.625-1.817-11.328
	c0.363,0.054,0.724,0.107,1.089,0.16c6.449,0.911,12.995,0.663,19.465,1.26c12.904,1.189,25.652,0.492,38.623,0.826
	c6.461,0.166,12.659,1.749,19.138,1.661c6.937-0.092,13.828,1.116,20.737,0.78c7.79-0.379,15.79,0.082,23.538-0.664
	c7.472-0.72,14.864-1.801,22.389-2.044c7.223-0.233,14.47-0.202,21.697-0.335c5.13-0.095,10.61,0.222,15.82-0.499
	c4.46,0.041,8.914,0.05,13.379,0.005c5.859-0.059,11.575,0.958,17.439,0.983c11.757,0.05,23.928,1.003,35.655,0.181
	c6.136-0.431,13.177-0.021,19.8-0.689c0.916-0.001,1.825,0.002,2.722,0.019c7.226,0.133,14.474,0.102,21.697,0.335
	c7.524,0.243,14.917,1.324,22.389,2.044c7.746,0.747,15.748,0.285,23.538,0.664c6.909,0.337,13.8-0.872,20.737-0.78
	c6.479,0.086,12.677-1.496,19.138-1.661c12.971-0.334,25.719,0.363,38.623-0.826c6.47-0.597,13.016-0.349,19.465-1.26
	c0.365-0.051,0.725-0.106,1.089-0.16c-0.049,3.703-1.366,8.496-1.817,11.328C472.931,269.212,472.869,271.061,472.895,273.185z
	 M477.621,247.415c-5.01,0.704-10.064,1.078-15.118,1.315c-11.214,0.526-22.41,0.694-33.661,0.342
	c-11.946-0.374-23.558,1.29-35.416,1.194c-5.824-0.047-11.573,1.008-17.393,0.654c-6.342-0.386-12.563-0.506-18.915-0.632
	c-11.799-0.233-23.386-2.318-35.281-2.103c-5.083,0.092-10.162,0.226-15.241,0.363c-6.298-0.689-12.983-0.11-18.955,0.499
	c-0.297,0.007-0.595,0.016-0.891,0.024c-0.35,0.009-0.661,0.07-0.95,0.155c-11.998,1.175-24.673,0.096-36.722,0.147
	c-5.472,0.024-10.797-0.977-16.286-0.839c-4.777,0.121-9.552,0.252-14.328,0.356c-9.43-0.252-18.859-0.532-28.296-0.703
	c-11.895-0.216-23.482,1.87-35.281,2.103c-6.35,0.126-12.573,0.246-18.915,0.632c-5.821,0.354-11.569-0.702-17.393-0.654
	c-11.858,0.096-23.469-1.568-35.416-1.194c-11.251,0.353-22.447,0.183-33.661-0.342c-5.054-0.237-10.108-0.611-15.118-1.315
	c-2.229-0.313-4.452-0.467-6.671-0.577c3.384-1.208,6.712-2.645,9.954-3.804c8.206-2.934,15.772-7.883,23.581-11.735
	c7.437-3.667,14.777-8.898,20.818-14.574c2.855-2.683,4.341-5.367,6.145-8.693c0.858-1.582,1.88-2.971,2.673-4.445
	c5.587,0.687,11.184,1.274,16.836,1.378c6.424,0.118,12.55,1.154,19.088,0.567c6.75-0.606,13.87-1.044,20.649-1.067
	c7.182-0.022,14.388-0.025,21.57,0.09c6.381,0.102,12.652,1.351,19.053,0.54c6.697-0.849,13.357-0.373,20.101-0.573
	c1.963-0.059,3.897-0.304,5.816-0.638c1.259,0.015,2.515,0.03,3.765,0.06c11.449,0.274,22.908-0.039,34.273,1.14
	c10.522,1.092,20.919-1.117,31.407-0.526c9.615,0.54,19.558,1.445,29.163,0.01c3.775-0.005,7.541,0.05,11.317,0.528
	c6.403,0.811,12.673-0.437,19.053-0.54c7.182-0.116,14.388-0.113,21.57-0.09c6.78,0.022,13.898,0.461,20.649,1.067
	c6.538,0.586,12.664-0.449,19.088-0.567c5.652-0.105,11.248-0.692,16.836-1.378c0.794,1.473,1.816,2.863,2.673,4.445
	c1.803,3.327,3.289,6.01,6.145,8.693c6.04,5.675,13.381,10.906,20.818,14.574c7.81,3.851,15.375,8.801,23.581,11.735
	c3.243,1.159,6.57,2.596,9.953,3.804C482.073,246.948,479.85,247.102,477.621,247.415z M496.365,245.981
	c-14.56-4.003-27.747-11.58-41.173-18.396c-7.042-3.576-13.088-8.222-19.185-13.209c-3.703-3.029-6.323-7.132-8.646-11.368
	c2.496-0.061,4.918,0.051,7.331-0.179c0.06,0.015,0.118,0.024,0.178,0.04c4.493,1.2,5.553,4.709,8.86,7.643
	c6.975,6.187,14.411,12.107,22.839,16.314c7.805,3.896,15.754,7.971,24.297,10.04c3.945,0.956,8.635-0.642,11.812,2.429
	C506.685,243.169,500.304,245.29,496.365,245.981z"/>
<path d="M399.074,178.795c-4.969-4.239-13.526-4.213-19.627-4.816c-5.113-0.505-10.254-0.123-15.388,0.188
	c-9.644-1.526-29.787-1.856-26.913,9.89c1.277,5.217,6.065,7.46,10.961,7.922c5.313,0.501,10.789-0.217,16.13-0.019
	c4.624,0.172,9.145,0.834,13.784,0.839c5.752,0.006,17.495,1.933,21.957-3.3C402.608,186.416,402.034,181.32,399.074,178.795z
	 M397.664,184.633c-0.551,6.257-12.949,4.304-17.302,4.289c-5.425-0.019-10.718-0.616-16.122-0.804
	c-5.758-0.201-13.518,1.587-18.967-0.49c-4.835-1.842-5.705-5.908-1.083-8.645c3.168-1.877,7.18-1.952,10.75-1.902
	c2.736,0.039,5.399,0.462,8.057,0.436c1.098,0.103,2.23,0.166,3.423,0.163c5.605-0.012,10.75,0.332,16.306,0.909
	C386.352,178.968,398.194,178.623,397.664,184.633z"/>
<path d="M432.502,266.546c-7.352-0.487-14.568-0.069-21.946,0.163c-5.688-0.499-11.373-1.062-17.008-1.867
	c-4.072-0.582-7.958-0.659-12.076-0.866c-2.559-0.128-4.963-0.157-6.848,1.785c-2.776,2.859-3.419,8.506-2.189,12.156
	c1.669,4.949,5.579,4.401,9.902,4.741c4.375,0.344,8.742,0.647,13.114,1.028c4.124,0.36,7.818-0.661,11.929-0.606
	c9.654,0.128,20.306,0.863,29.917-0.145c4.366-0.457,6.515-4.438,6.462-8.792C443.677,267.201,438.35,266.933,432.502,266.546z
	 M438.382,277.49c-1.251,1.422-1.398,1.064-3.545,1.021c-9.008-0.183-18.213,0.882-27.162,0.186
	c-4.144-0.323-8.08,0.403-12.241-0.06c-3.136-0.349-6.268-0.671-9.406-1.015c-1.436-0.157-2.99-0.523-4.39-0.669
	c-0.778-0.081-2.372,0.4-3.019,0.132c-4.113-1.7-1.482-7.826,1.936-8.518c2.121-0.43,5.066-0.174,7.69,0.142
	c1.255,0.345,2.525,0.435,4.081,0.596c3.811,0.393,7.4,1.127,11.247,1.244c7.345,0.223,14.761-0.224,22.038,0.182
	c3.118,0.174,6.611-0.35,9.605,0.755C437.918,272.483,440.969,274.552,438.382,277.49z"/>
<path d="M281.208,172.475c-8.733-1.605-18.568-0.449-27-0.435c-8.407,0.014-17.667-0.912-26.161,0.307
	c-13.184-0.47-30.056,1.059-23.17,12.754c2.84,4.823,9.668,4.375,14.47,4.317c2.869-0.034,5.738-0.062,8.607-0.106
	c10.079,0.526,20.381-1.046,30.408-0.659c5.976,0.231,11.983,0.334,17.955,0.628c3.914,0.192,9.467,1.128,13.705,0.111
	c0.877,0.009,1.756,0.016,2.634,0.026c4.803,0.057,11.63,0.506,14.47-4.317C314.506,172.574,294.619,171.711,281.208,172.475z
	 M300.483,184.809c-3.821,1.406-9.56,0.38-13.561,0.423c-0.029,0-0.062,0.004-0.091,0.004c-3.161-0.4-6.413-0.302-9.626-0.489
	c-6.247-0.363-12.596-0.592-18.844-0.692c-5.922-0.093-11.852,0.319-17.776,0.333c-4.572,0.01-9.273,0.16-13.821,0.957
	c-0.622-0.064-1.195-0.108-1.683-0.113c-4.001-0.042-9.739,0.983-13.561-0.423c-4.183-1.538-4.013-5.698,0.161-7.367
	c2.776-1.111,6.673-0.929,9.562-0.986c3.504-0.07,7-0.082,10.489-0.214c1.246,0.026,2.475,0.044,3.639,0.103
	c5.519,0.283,10.952,0.09,16.489,0.095c10.651,0.011,21.474,0.845,32.093-0.095c2.265,0.045,4.532,0.066,6.803,0.111
	c2.89,0.057,6.786-0.123,9.562,0.986C304.497,179.11,304.666,183.271,300.483,184.809z"/>
<path d="M290.482,263.43c-3.467-0.572-6.682-0.021-10.152-0.193c-2.171-0.107-3.934-0.299-5.73-0.173
	c-7.263-0.639-14.879-0.117-21.917,0.001c-4.536,0.076-9.087,0.05-13.622,0.207c-2.422-0.474-4.558-0.176-7.387-0.035
	c-3.469,0.172-6.683-0.38-10.152,0.193c-4.871,0.804-8.779,1.483-10.169,6.958c-1.14,4.492,1.03,8.316,5.391,9.628
	c3.595,1.082,7.575,0.806,11.256,0.764c2.386-0.027,4.729-0.041,7.057-0.211c2.01,0.115,4.046,0.059,6.103,0.067
	c4.248,0.017,8.558,0.223,12.785,0.066c4.529-0.168,9.232-0.663,13.771-0.521c2.25,0.07,4.379,0.162,6.48,0.102
	c3.238,0.455,6.481,0.459,9.808,0.496c3.681,0.041,7.661,0.318,11.256-0.764c4.361-1.312,6.531-5.138,5.391-9.628
	C299.263,264.913,295.353,264.234,290.482,263.43z M292.597,276.1c-2.063,0.626-4.322,0.349-6.435,0.33
	c-2.086-0.019-4.168-0.04-6.239,0.021c-7.756-1.6-17.094-0.851-24.748-0.227c-6.193,0.506-12.601-0.157-18.825,0.511
	c-3.472-0.378-6.981-0.338-10.506-0.305c-2.113,0.019-4.372,0.295-6.435-0.33c-3.926-1.19-5.549-6.274-1.023-8.019
	c3.29-1.269,7.306-0.942,10.855-1.094c2.389,0.123,4.789-0.03,7.234,0.046c5.404,0.17,10.804,0.299,16.21,0.338
	c8.635,0.061,18.294,0.884,26.954-0.661c0.774,0.095,1.548,0.186,2.298,0.238c3.739,0.258,8.138-0.234,11.683,1.133
	C298.146,269.826,296.524,274.91,292.597,276.1z"/>
<g>
</g>
<g>
</g>
<g>
</g>
<g>
</g>
<g>
</g>
<g>
</g>
<g>
</g>
<g>
</g>
<g>
</g>
<g>
</g>
<g>
</g>
<g>
</g>
<g>
</g>
<g>
</g>
<g>
</g>
</svg>
