<?xml version="1.0" encoding="iso-8859-1"?>
<!-- Generator: Adobe Illustrator 19.0.0, SVG Export Plug-In . SVG Version: 6.00 Build 0)  -->
<svg version="1.1" id="Layer_1" xmlns="http://www.w3.org/2000/svg" xmlns:xlink="http://www.w3.org/1999/xlink" x="0px" y="0px"
	 viewBox="0 0 512.001 512.001" style="enable-background:new 0 0 512.001 512.001;" xml:space="preserve">
<path style="fill:#E0E0E0;" d="M6.214,439.723c-1.427-0.088-2.324-21.444-2.403-23.601c-0.296-7.957-0.148-15.922,0.159-23.877
	c0.307-7.923,1.178-15.925,1.128-23.85c-0.016-2.553-1.067-4.653-1.315-7.14c-0.363-3.637,0.457-7.681,1.405-11.174
	c0.231-0.852,0.502-1.72,1.059-2.406c1.215-1.496,5.424-1.439,7.282-1.856c2.68-0.602,5.397-1.15,8.158-1.087
	c14.406,0.326,28.796,1.405,43.187,2.25c8.327,0.488,16.662,1.692,24.968,1.493c5.479-0.131,10.888-0.815,16.332-1.359
	c4.183-0.418,8.729,0.64,12.349-2.257c3.904-3.125,1.539-7.874,5.886-10.658c3.206-2.054,7.096-2.663,10.862-3.227
	c6.485-0.97,13.076-1.941,19.571-1.043c2.12,0.294,4.651,0.647,6.064-0.962c1.036-1.181,0.981-2.934,1.495-4.419
	c0.926-2.673,3.581-4.257,5.789-6.023c4.398-3.517,3.511-7.555,3.511-12.511c0-3.449,0-6.896,0-10.345
	c0-6.584-1.617-12.564-2.359-19.115c-0.227-1.995-0.381-4.059,0.229-5.972c1.243-3.899,4.764-5.562,7.924-7.564
	c3.507-2.222,6.556-5.572,9.659-8.361c-1.18-6.975-2.413-14.261-3.701-21.871c6.863-16.426,18.086-30.997,23.54-48.537
	c2.715-8.734,9.452-15.449,17.36-20.505c4.463-2.853,7.173-7.112,10.443-11.171c3.976-4.937,8.087-10.263,9.361-16.624
	c0.587-2.934,0.93-7.232-0.359-10.036c-1.506-3.277-3.054-4.842-1.018-8.729c1.236-2.36,3.069-4.46,3.706-7.048
	c0.405-1.645,0.294-3.378,0.647-5.035c0.531-2.49,2.062-4.628,3.165-6.923c2.047-4.259,3.157-10.04,2.643-14.771
	c-0.511-4.696-2.323-9.01-0.326-13.725c0.857-2.024,2.83-3.954,4.974-3.467c1.292,0.294,2.265,1.422,2.734,2.661
	c0.469,1.239,0.519,2.591,0.564,3.914c0.22,6.537-0.417,13.842,1.31,20.117c1.863,6.769,3.231,13.448,5.948,19.985
	c1.654,3.983,2.696,9.101,1.715,13.143c-1.331,5.488-1.086,11.202,1.003,16.468c0.912,2.3,2.146,5,3.825,6.852
	c1.833,2.022,4.403,3.164,4.957,6.155c0.165,0.887,0.112,1.85,0.573,2.625c0.409,0.688,1.15,1.098,1.855,1.476
	c3.594,1.924,8.522,3.576,11.258,6.687c2.374,2.698,4.602,5.827,6.806,8.69c5.507,7.155,9.567,15.283,12.306,23.873
	c2.92,9.162,8.702,17.492,13.744,25.867c1.701,2.827,4.27,6.453,4.133,9.857c-0.172,4.307-2.037,9.027-3.879,12.863
	c-0.824,1.716-1.765,3.393-2.295,5.221c-0.531,1.828-0.614,3.874,0.253,5.57c1.191,2.331,3.85,3.482,6.37,4.19
	c6.005,1.687,11.988,3.515,11.447,11.202c-0.17,2.41-1.28,4.637-2.07,6.921c-1.885,5.45-1.938,11.297-1.476,16.984
	c0.212,2.609,0.925,5.234,1.137,7.791c0.194,2.331-0.484,4.813-0.75,7.139c-0.285,2.487-0.386,5.448,1.586,6.991
	c1.906,1.49,4.923,0.893,6.716,2.516c1.076,0.973,1.425,2.505,2.234,3.71c1.881,2.802,5.778,3.311,9.146,3.091
	c6.905-0.451,12.771,1.431,19.585,2.558c3.22,0.533,11.249,1.003,12.281,4.572c0.548,1.891,0.015,3.902-0.117,5.866
	c-0.132,1.964,0.355,4.266,2.117,5.146c0.74,0.37,1.593,0.422,2.419,0.469c15.995,0.899,31.895,2.029,47.859,0.176
	c13.549-1.571,27.239-2.029,40.881-2.663c7.47-0.347,15.169-1.74,23.732,3.404c3.099,28.96,3.521,58.891,2.211,87.681
	c-2.902,2.082-4.045,3.6-5.306,3.705c-36.226,3.023-72.257,7.377-108.895,3.172c-23.24-2.666-46.996-1.869-70.479-1.169
	c-45.514,1.357-90.992,1.205-136.494-0.101c-28.822-0.828-57.605-0.771-86.386,2.464C70.34,447.631,38.892,441.735,6.214,439.723z"
	/>
<g>
	<path style="fill:#C1C1C1;" d="M161.89,438.488c0.238,0.011,0.475,0.023,0.712,0.035c2.604,0.135,6.257,1.821,8.772,0.845
		c6.185-2.4,3.533-11.804,2.246-16.503c-2.402-8.771-14.145-10.842-19.535-17.352c-12.146-14.667-10.854-33.707-9.624-51.541
		c0.398-5.785,3.241-15.966-0.076-21.318c-2.232-3.599-7.081-2.332-10.628-1.485c-8.544,2.04-12.088,4.781-12.928,13.734
		c-0.885,9.424-0.611,19.331-0.009,28.763c0.675,10.582,0.474,20.625,0.386,31.205c-0.046,5.518,1.083,11.994-5.028,12.689
		c-8.232,0.936-18.212-7.461-25.249-10.999c-8.852-4.451-17.423-9.386-24.449-16.481c-9.547-9.641-16.133-20.395-19.2-33.526
		c-1.453-6.222-2.426-8.118-8.46-9.988c-5.812-1.802-11.589-1.347-17.571-1.086c-5.951,0.26-11.59-1.372-16.266,2.934
		c-1.464,4.472-0.396,10.566-0.771,15.278c-0.453,5.705-0.7,11.339-0.7,17.089c0,10.545,0.776,21.259,0.286,31.739
		c-0.253,5.4-2.709,19.28,1.094,23.899c4.563,5.544,17.894,4.058,24.031,4.3c29.593,1.168,61.339,5.503,90.661,0.746
		C133.062,439.277,148.209,437.851,161.89,438.488z"/>
	<path style="fill:#C1C1C1;" d="M336.739,331.862c1.783,15.546-0.513,32.414-1.123,48.069c-0.347,8.927,0.385,17.828,0.774,26.705
		c0.345,7.856-0.405,15.544-0.395,23.335c0.007,5.536,0.55,7.835,6.091,9.208c5.303,1.315,10.462,0.404,15.863,0.608
		c6.565,0.248,13.116,0.771,19.661,1.313c13.394,1.109,26.824,2.364,40.277,1.754c21.35-0.965,42.77-0.485,64.111-1.408
		c6.534-0.282,18.629,0.899,23.745-4.605c2.272-2.444,2.51-7.357,2.731-10.48c0.389-5.501-1.576-8.39-7.018-9.88
		c-11.546-3.164-24.829-0.754-36.57-0.815c-12.448-0.066-24.402-4.042-34.945-10.538c-17.655-10.88-19.904-30.517-21.851-49.383
		c-0.603-5.846-6.377-13.182-12.656-7.882c-3.983,3.361-2.649,12.317-2.827,16.875c-0.437,11.205-0.593,22.438-1.15,33.633
		c-0.375,7.52,1.655,15.785-0.176,23.177c-0.937,3.779-5.671,7.107-9.591,5.895c-2.811-0.869-2.645-2.52-3.526-4.735
		c-1.228-3.091-2.752-5.893-4.437-8.842c-7.103-12.436-13.32-25.451-17.004-39.339c-1.982-7.471-3.981-15.865-4.098-23.63
		c-0.072-4.744,1.798-10.221,0.585-14.81C351.867,330.988,341.881,326.517,336.739,331.862z"/>
	<path style="fill:#C1C1C1;" d="M169.388,268.6c2.13-4.591,10.878-4.18,14.491-6.056c2.98-1.546,3.186-5.26,3.207-8.242
		c0.055-7.479-3.566-14.749-3.354-22.115c0.109-3.798,2.69-4.744,4.596-7.338c2.283-3.108,0.707-6.851,2.925-9.949
		c3.04-4.246,7.441-4.334,9.021-9.922c2.902-10.272,5.655-22.198,12.334-30.734c4.751-6.071,9.432-9.275,16.011-13.051
		c4.242-2.435,2.449-3.433,3.844-7.534c1.694-4.985,6.516-4.461,9.308-8.01c3.647-4.636,1.538-17.481,1.259-23.039
		c-0.163-3.258-0.446-7.427,2.594-9.499c3.108-2.119,7.993-0.791,9.99,2.477c4.741,7.765-4.58,17.491,1.305,25.387
		c2.926,3.927,7.552,5.441,11.776,7.423c3.494,1.641,8.464,2.977,10.36,6.558c-3.051,3.718-9.122,1.975-13.322,1.465
		c-7.298-0.888-6.181,0.996-7.993,7.275c-1.772,6.142-6.724,12.02-2.919,18.654c2.887,5.035,9.785,6.496,15.009,7.115
		c6.696,0.792,13.307,1.194,19.954,2.529c6.923,1.389,18.246,3.78,21.96,10.758c4.6,8.646-7.168,5.389-11.265,4.414
		c-11.037-2.628-22.677-3.599-33.928-5.057c-8.035-1.042-17.081-2.002-23.709,3.917c-4.112,3.672-0.953,6.777-2.893,10.657
		c-0.911,1.823-3.049,1.6-4.1,2.899c-2.788,3.447-4.318,10.765-4.66,15.079c-0.359,4.534,0.19,9.132,3.358,12.728
		c1.937,2.199,5.096,3.317,6.458,6.046c3.075,6.167,1.148,15.478,2.791,22.236c1.768,7.27,5.197,14.525,9.525,20.62
		c6.852,9.651,19.846,13.807,30.271,18.459c5.003,2.233,9.972,3.679,15.354,4.792c6.131,1.269,12.366,2.118,18.472,3.474
		c2.076,0.461,11.315,1.877,12.367,4.423c2.339,5.659-14.638,4.915-17.415,4.881c-9.186-0.115-18.387-0.077-27.554-0.54
		c-17.883-0.902-35.766,0.107-53.652,0.283c-3.085,0.03-26.946-1.287-24.368,4.966c0.958,2.322,7.396,1.456,9.244,1.452
		c12.671-0.03,25.351-0.408,38.018-0.755c24.504-0.671,48.999,2.127,73.429,1.124c1.949-0.08,8.408-0.771,6.952,2.5
		c-1.514,3.401-12.29,1.733-14.714,1.545c-23.151-1.795-46.785,2.005-70.031,1.123c-9.555-0.363-19.166-0.287-28.673-1.141
		c-5.495-0.494-7.714,2.398-1.248,3.959c6.368,1.537,13.385,0.786,19.871,0.839c16.478,0.139,32.879,0.887,49.324,0.733
		c11.727-0.11,23.711-0.805,35.364-0.562c2.982,0.063,12.602,0.856,9.272,5.121c-2.394,3.067-11.175,1.636-14.525,1.546
		c-6.068-0.163-12.119-0.694-18.182-0.961c-25.11-1.104-50.488-0.663-75.685,0.017c-12.248,0.33-24.882,0.598-37.034-0.023
		c-3.583-0.182-10.191-0.12-12.279-3.951c-2.098-3.849,0.328-9.466-0.534-13.64c-1.523-7.372-7.092-2.111-10.868-6.582
		c-3.501-4.144,3.882-12.269,5.752-15.722c3.968-7.326,3.948-15.606,3.572-23.803C173.541,283.735,167.367,272.956,169.388,268.6z"
		/>
	<path style="fill:#C1C1C1;" d="M177.112,409.837c-1.009,4.025-0.808,8.697-1.47,12.887c-0.665,4.214-1.465,9.125-0.458,13.328
		c0.915,3.82,2.184,4.174,6.057,4.312c6.685,0.237,13.212,0.13,19.871-0.294c32.34-2.053,64.838,0.656,97.219,0.663
		c9.67,0.002,20.97,1.25,30.344-0.582c4.431-0.865,9.79-7.017,9.148-11.8c-0.597-4.443-5.213-3.789-8.729-3.802
		c-9.788-0.036-19.529,0.77-29.302,0.739c-26.631-0.082-54.758,2.82-80.921-3.305c-7.985-1.869-17.303-3.699-24.506-7.815
		c-3.479-1.988-5.46-5.532-8.611-7.756C178.05,400.971,177.153,411.019,177.112,409.837z"/>
</g>
<g>
	<path style="fill:#939393;" d="M392.645,361.286c3.146,0.857,7.005-0.868,10.3-1.019c5.786-0.266,11.788,0.114,17.619,0.08
		c11.451-0.067,22.743,0.902,34.195-0.073c15.105-1.285,29.94-1.94,44.955-1.194c3.126,0.156,6.29,0.551,8.154-2.125
		c2.421-3.475,0.632-8.853-3.099-10.685c-7.353-3.611-20.946-0.798-28.74-0.798c-10.563,0-21.017,1.643-31.527,2.474
		c-4.416,0.35-8.457,1.839-12.799,2.052c-5.207,0.255-10.462-0.71-15.628-1.216c-5.127-0.501-10.322-0.73-15.431-0.735
		c-1.815-0.002-5.125-0.543-6.638,0.626C391.701,350.455,391.343,357.384,392.645,361.286z"/>
	<path style="fill:#939393;" d="M387.496,343.264c-14.129,3.329-30.713,1.685-45.055,0.368c-28.356-2.604-56.675,1.17-85.136,0.032
		c-14.508-0.581-29.143-1.148-43.659-1.135c-8.067,0.008-16.077,0.368-24.128,0.368c-7.675,0-15.139-0.937-22.898-0.796
		c-9.545,0.173-19.098,0.229-28.638-0.225c-9.801-0.467-14.753-0.128-23.387,4.608c-5.811,3.186-13.584,2.275-19.963,2.299
		c-18.184,0.069-36.051-0.613-54.218-1.471c-7.577-0.359-36.906-7.88-36.564,6.547c0.164,6.91,15.294,4.441,19.914,4.49
		c15.918,0.169,31.863,0.324,47.776,0.742c14.06,0.369,28.106,2.307,42.008,2.9c2.776,0.118,6.116-0.334,7.797-2.517
		c1.054-1.37,0.605-3.34,2.038-4.456c2.696-2.094,8.677-0.503,11.876-0.539c5.343-0.059,10.693-0.091,16.029-0.362
		c5.505-0.28,11.075-0.496,16.585-0.56c13.267-0.154,26.479-0.384,39.782-0.357c18.577,0.036,37.249,0.47,55.803-0.287
		c21.124-0.862,42.549,0.517,63.596,1.471c17.491,0.794,34.993-0.635,52.349-0.082c3.715,0.118,10.646,1.909,12.514-1.463
		c0.614-1.108,0.26-4.066-0.08-5.159C390.327,342.796,386.54,344.24,387.496,343.264z"/>
	<path style="fill:#939393;" d="M170.124,274.116c9.035-4.117,21.123-4.916,30.913-5.894c8.1-0.809,16.105-2.099,24.168-2.924
		c20.498-2.095,41.919-2.193,62.536-0.775c11.525,0.792,22.861,2.595,34.205,4.913c3.051,0.624,21.149,7.016,22.101,1.351
		c1.22-7.257-23.46-11.35-27.432-11.842c-19.853-2.459-39.511-3.219-59.504-3.219c-21.825,0-43.906-0.54-65.512,2.76
		c-5.605,0.856-11.122,2.2-15.884,5.341C173.275,265.437,163.573,272.365,170.124,274.116z"/>
</g>
<g>
	<path style="fill:#606060;" d="M255.455,66.308c-7.2,2.752-2.943,16.693-2.942,22.252c0.001,4.596-0.35,7.183-2.492,11.218
		c-1.757,3.309-4.371,7.437-3.706,11.346c5.841-1.534,13.664-3.562,19.751-2.574c0.625-4.15-2.175-7.615-3.347-11.345
		c-1.265-4.024-1.387-7.588-0.997-11.586C262.095,81.778,262.885,63.369,255.455,66.308z"/>
	<path style="fill:#606060;" d="M188.515,278.531c1.317,1.39,1.661,4.026,1.021,5.885c-0.377,1.095-1.749,1.484-2.052,2.566
		c-0.499,1.781,0.319,4.109,0.478,5.868c0.656,7.237-0.197,15.789,1.71,22.772c3.435-0.468,7.321,0.248,8.405-2.762
		c1.6-4.439-1.115-11.938-1.103-16.765c0.007-2.983,0.963-8.188-0.269-10.962c-0.585-1.318-2.155-1.115-2.691-2.171
		c-0.517-1.018-0.482-3.57-0.405-4.743C192.277,278.094,190.908,278.108,188.515,278.531z"/>
	<path style="fill:#606060;" d="M179.534,281.281c-0.398,1.173,0.038,3.154,0.494,4.26c0.491,1.193,1.618,1.387,1.814,2.682
		c0.853,5.63,0.767,11.383,1.44,17.036c0.222,1.871,0.281,3.715,0.365,5.594c0.061,1.383,0.197,2.861-0.162,4.223
		c-0.677,2.579-3.632,2.813-5.837,3.239c-0.973,0.188-2.365,0.802-3.219,0.082c-1.175-0.989-0.86-3.856-0.808-5.179
		c0.202-5.196,0.936-10.354,1.053-15.564c0.056-2.476,0.005-4.788-0.277-7.251c-0.212-1.857-0.377-3.708-0.298-5.581
		c0.061-1.478,0.409-3.149,1.625-4.119C176.98,279.702,178.646,279.728,179.534,281.281z"/>
	<path style="fill:#606060;" d="M203.812,275.684c-0.131,1.688,1.148,4.022-0.348,5.435c-0.649,0.614-1.103,0.672-1.222,1.72
		c-0.182,1.624,0.401,3.51,0.48,5.135c0.24,4.876,0.224,9.746,0.355,14.623c0.055,2.02,0.31,4.004,0.504,6.013
		c0.074,0.765,0.155,1.529,0.229,2.292c0.059,0.603-0.022,1.775,0.324,2.308c0.49,0.756,2.043,0.68,2.85,0.823
		c1.767,0.312,3.52-0.145,5.307-0.164c3.344-0.036,3.156-2.029,3.034-4.81c-0.328-7.506-0.371-15.033-0.897-22.528
		c-0.104-1.469-0.028-3.197-0.406-4.618c-0.384-1.443-1.371-1.397-2.425-2.109c-1.58-1.066-0.681-2.696-0.924-4.189
		c-0.36-2.203-2.732-0.803-4.062-0.51C205.314,275.394,204.672,274.592,203.812,275.684z"/>
	<path style="fill:#606060;" d="M221.094,273.463c0.087,1.195,0.724,2.3,0.419,3.52c-0.269,1.075-1.161,1.732-1.597,2.684
		c-0.463,1.01-0.138,2.302-0.041,3.363c0.204,2.233,0.317,4.464,0.313,6.708c-0.009,4.768,0.412,9.512,0.412,14.283
		c0,1.777,0.073,3.545,0.083,5.32c0.007,1.282,0.024,2.175,1.146,2.882c1.201,0.756,2.611,0.57,3.97,0.594
		c1.51,0.027,3.022,0.283,4.44-0.348c1.032-0.459,1.217-0.788,1.224-1.888c0.013-1.98-0.093-3.96-0.162-5.939
		c-0.15-4.402,0.166-8.83-0.044-13.237c-0.18-3.772,0.171-7.531-0.038-11.3c-0.056-1.017-0.09-2.11-0.924-2.758
		c-0.83-0.644-2.084-0.483-2.443-1.62c-0.334-1.052,0.674-2.491-0.492-3.174C225.871,271.681,223.273,272.845,221.094,273.463z"/>
	<path style="fill:#606060;" d="M243.222,270.045c0.756-0.027,1.518,0.001,2.298-0.061c1.301-0.104,2.981-0.196,3.999,0.792
		c1.144,1.111,0.283,3.496,0.373,4.852c0.104,1.559,1.024,1.7,1.962,2.645c0.942,0.951,1.16,1.913,1.173,3.21
		c0.039,3.984-0.428,7.979-0.264,11.959c0.097,2.367-0.132,4.666-0.29,7.022c-0.171,2.548,0.204,5.234-0.262,7.745
		c-0.174,0.942-0.569,2.951-1.296,3.693c-0.605,0.618-1.857,0.517-2.644,0.566c-2.11,0.131-4.227,0.068-6.337,0.227
		c-1.529,0.115-3.076,0.224-3.995-1.22c-0.787-1.238-0.605-2.983-0.733-4.408c-0.154-1.691-0.167-3.38-0.224-5.076
		c-0.146-4.41-0.351-8.823-0.331-13.239c0.01-2.409-0.087-4.831-0.161-7.239c-0.038-1.248-0.412-2.702-0.028-3.928
		c0.391-1.247,1.655-2.11,2.332-3.216c0.924-1.513,0.178-3.112,2.032-3.874C241.626,270.166,242.421,270.075,243.222,270.045z"/>
	<path style="fill:#606060;" d="M263.149,271.159c-0.023,1.58,0.088,3.097-0.598,4.593c-0.5,1.091-1.312,1.392-2.206,2.065
		c-1.09,0.82-1.055,2.138-1.063,3.377c-0.014,1.998,0.11,3.988,0.265,5.98c0.38,4.905,0.461,9.848,0.564,14.764
		c0.039,1.867-0.147,3.732-0.069,5.603c0.05,1.227-0.118,3.416,1,4.226c0.94,0.682,2.96,0.559,4.074,0.607
		c1.818,0.077,3.64,0.08,5.457,0.163c0.748,0.034,2.333,0.343,3.055,0.088c1.16-0.41,0.942-2.021,1.025-3.043
		c0.734-9.037,0.184-18.112,0.866-27.152c0.12-1.588,0.256-3.393-0.206-4.941c-0.158-0.529-0.384-1.137-0.728-1.575
		c-0.441-0.56-1.066-0.747-1.345-1.44c-0.483-1.198,0.287-2.315-0.976-3.19C270.329,269.941,266.403,270.571,263.149,271.159z"/>
	<path style="fill:#606060;" d="M283.97,272.804c1.208,1.884,0.627,3.452-1.225,4.399c-1.236,0.632-2.005,1.207-2.217,2.658
		c-0.278,1.902-0.046,4.042-0.017,5.958c0.072,4.776,0.246,9.536,0.25,14.318c0.001,1.825-0.024,3.63,0.002,5.454
		c0.021,1.455-0.288,2.941-0.15,4.387c0.106,1.115,0.444,1.868,1.547,2.186c1.605,0.462,3.121,0.51,4.778,0.552
		c0.963,0.025,2.467,0.492,3.271-0.175c0.938-0.779,0.716-2.359,0.772-3.401c0.478-8.975,1.394-17.888,1.383-26.872
		c-0.001-1.154,0.269-2.439,0.088-3.576c-0.186-1.164-1.228-1.733-1.679-2.803c-0.406-0.964,0.202-2.852-0.608-3.429
		c-0.429-0.305-1.78-0.249-2.294-0.299C286.616,272.041,285.378,272.028,283.97,272.804z"/>
	<path style="fill:#606060;" d="M301.664,275.026c-0.001,0.969,0.006,1.887-0.377,2.804c-0.487,1.17-1.431,1.595-2.405,2.278
		c-1.057,0.741-1.076,1.89-1.128,3.109c-0.085,2.01-0.154,4.012-0.27,6.023c-0.241,4.203-0.548,8.397-0.841,12.597
		c-0.126,1.81-0.339,3.607-0.505,5.411c-0.105,1.146-0.42,2.895-0.096,3.993c0.292,0.986,1.518,1.392,2.423,1.693
		c0.917,0.305,1.912,0.33,2.855,0.493c0.939,0.162,1.839,0.51,2.778,0.69c0.919,0.176,3.251,0.541,4.158-0.013
		c0.912-0.557,0.474-2.546,0.482-3.434c0.043-4.946,0.511-9.952,1.121-14.86c0.26-2.088,0.505-4.15,0.592-6.253
		c0.064-1.548-0.221-3.081-0.228-4.628c-0.005-0.954,0.328-2.169-0.128-3.043c-0.496-0.953-1.466-1.446-1.762-2.572
		c-0.299-1.137,0.625-2.134,0.368-3.154c-0.4-1.589-3.656-1.25-4.815-1.219C302.826,274.973,302.371,274.153,301.664,275.026z"/>
	<path style="fill:#606060;" d="M319.029,276.919c0.238,1.714,0.452,4.229-1.499,5.024c-0.959,0.391-1.66,0.537-1.936,1.659
		c-0.322,1.312-0.104,2.883-0.104,4.221c0,3.865-0.157,7.774-0.471,11.626c-0.315,3.869-0.914,7.685-1.275,11.537
		c-0.112,1.189-0.526,2.594,0.017,3.709c0.607,1.246,1.715,1.428,2.95,1.645c1.254,0.221,2.41,0.862,3.582,0.101
		c0.803-0.521,1.1-1.184,1.447-2.038c1.569-3.853,1.649-8.207,1.961-12.317c0.306-4.043,0.419-8.077,0.595-12.12
		c0.055-1.255,0.68-2.69,0.295-3.911c-0.391-1.238-1.68-1.81-1.699-3.175c-0.018-1.39,0.879-2.617,0.991-3.971
		c0.146-1.77-1.743-1.56-3.042-1.743C319.525,277.165,318.804,275.297,319.029,276.919z"/>
	<path style="fill:#606060;" d="M332.938,280.293c0.321,1.142-0.036,3.098-0.525,4.16c-0.618,1.343-2.058,1.636-2.339,3.142
		c-0.381,2.047-0.329,4.363-0.347,6.44c-0.028,3.129-0.372,6.246-0.574,9.367c-0.195,3.018-0.299,6.015-0.419,9.033
		c-0.041,1.033-0.32,2.382,0.087,3.383c0.409,1.008,1.62,1.356,2.574,1.761c1.362,0.577,3.047,1.063,4.525,0.83
		c1.791-0.282,2.319-1.609,2.532-3.254c0.332-2.57,0.264-5.082,0-7.656c-0.304-2.97-0.375-5.961-0.775-8.922
		c-0.402-2.968-0.716-5.779-0.708-8.784c0.006-2.163,0.327-4.357,0.108-6.517c-0.101-1.006-0.213-2.57-1.107-3.236
		C335.115,279.404,334.05,279.851,332.938,280.293z"/>
	<path style="fill:#606060;" d="M183.855,355.074c-0.457,1.838-1.372,5.866,1.216,6.516c0.82,0.206,1.38-0.064,1.892,0.767
		c0.381,0.619,0.478,1.66,0.569,2.366c0.51,3.939-0.622,7.936-0.646,11.871c-0.028,4.781-0.056,9.564-0.254,14.339
		c-0.159,3.843,0.936,7.949,0.379,11.738c-0.545,3.705-3.899,2.746-6.374,1.466c-0.761-0.394-1.257-0.586-2.092-0.696
		c-0.367-0.048-0.886,0.076-1.207-0.172c-0.951-0.736-0.551-3.553-0.587-4.51c-0.268-6.983-0.281-13.972-0.549-20.952
		c-0.239-6.218-1.189-12.591-0.794-18.813c0.105-1.66,0.272-3.625,1.805-4.587c1.392-0.873,3.453-1.039,4.985-0.529
		C183.027,354.154,184.081,354.161,183.855,355.074z"/>
	<path style="fill:#606060;" d="M199.764,353.879c0.552,1.35-0.032,3.763-0.575,5.041c-0.332,0.783-0.743,1.413-1.491,1.854
		c-0.651,0.384-1.411,0.412-1.874,1.095c-1.003,1.48-0.244,3.862-0.151,5.48c0.166,2.898,0.197,5.891-0.067,8.785
		c-0.6,6.547-0.361,13.031-0.618,19.583c-0.064,1.627-0.171,3.252-0.257,4.876c-0.065,1.22-0.277,2.359,0.533,3.377
		c1.117,1.405,3.442,2.057,5.14,2.334c2.687,0.437,5.471,0.246,8.182,0.339c2.9,0.1,5.919,0.197,8.809-0.113
		c2.354-0.253,2.217-2.508,2.319-4.498c0.145-2.8-0.252-5.507-0.353-8.297c-0.11-3.049-0.1-6.115-0.1-9.166
		c0-3.255-0.031-6.54,0.25-9.782c0.244-2.808,0.673-5.663,0.763-8.472c0.055-1.7,0.327-3.332-1.502-4.084
		c-0.708-0.291-1.612-0.176-2.118-0.82c-0.546-0.696-0.295-1.94-0.331-2.747c-0.046-1.008,0.009-2.23-0.29-3.196
		c-0.372-1.203-1.489-1.565-2.616-1.888c-1.84-0.526-3.808-0.454-5.706-0.443C205.684,353.15,203.317,354.193,199.764,353.879z"/>
	<path style="fill:#606060;" d="M227.536,405.837c-0.843-1.429-0.616-4.722-0.533-6.343c0.182-3.567,0.589-7.102,0.625-10.678
		c0.057-5.7-0.075-11.449,0.176-17.146c0.131-2.962-1.833-8.13,1.324-9.886c1.731-0.962,2.323-1.745,2.225-3.765
		c-0.082-1.687-0.205-2.514,1.53-3.126c1.979-0.698,4.396-0.765,6.471-0.92c1.936-0.143,4.017-0.372,5.964-0.189
		c0.847,0.08,2.066,0.13,2.821,0.441c1.448,0.597,1.394,1.691,1.464,3.052c0.11,2.123,0.764,2.78,2.751,2.944
		c1.362,0.113,1.468,0.398,1.622,1.724c0.833,7.132,0.644,14.429,0.51,21.604c-0.081,4.336-0.227,8.628-0.05,12.966
		c0.073,1.805-0.03,3.591-0.048,5.393c-0.014,1.305,0.266,2.989-0.085,4.262c-0.329,1.189-1.35,1.116-2.497,1.145
		c-2.841,0.073-5.649,0.109-8.487-0.101c-3.276-0.243-6.479,0.409-9.748,0.468C231.762,407.713,229.744,407.852,227.536,405.837z"/>
	<path style="fill:#606060;" d="M266.159,354.614c0.569,3.11-2.885,4.258-3.244,7.079c-0.227,1.777,0.2,3.562,0.109,5.351
		c-0.113,2.203,0.071,4.392-0.039,6.597c-0.447,9.072,0.509,18.144,0.965,27.169c0.06,1.201-0.034,2.563,0.183,3.743
		c0.188,1.024,0.746,1.545,1.827,1.844c3.348,0.927,6.984,0.468,10.395,0.609c1.548,0.064,3.089,0.207,4.636,0.28
		c0.628,0.03,2.169,0.281,2.718-0.184c0.397-0.338,0.34-0.854,0.401-1.323c0.195-1.523,0.283-3.087,0.339-4.621
		c0.312-8.566-0.236-17.127,0.121-25.691c0.084-2.03,0.356-4.055,0.348-6.085c-0.006-1.487,0.25-3.264-0.132-4.714
		c-0.593-2.247-3.033-2.351-3.646-4.466c-0.535-1.851,1.169-4.469-1.132-5.384c-1.495-0.594-3.204-0.679-4.786-0.779
		C272.597,353.874,269.947,353.665,266.159,354.614z"/>
	<path style="fill:#606060;" d="M296.598,354.339c0.669,1.538,1.029,3.315,0.26,4.876c-0.705,1.429-1.819,1.688-3.042,2.5
		c-1.224,0.812-2.006,1.491-1.999,2.939c0.01,2.3,0.014,4.6,0.002,6.9c-0.035,7.213,0.376,14.423,0.365,21.633
		c-0.003,2.668-0.025,5.429,0.502,8.049c0.356,1.773,0.477,3.624,1.904,4.847c1.446,1.24,3.709,1.153,5.528,1.354
		c3.066,0.337,6.327,0.22,9.409,0.153c1.53-0.033,3.758,0.175,4.967-0.937c1.325-1.217,1.496-3.37,1.6-5.033
		c0.353-5.64,0.297-11.391,0.364-17.044c0.08-6.63,0.614-13.409-0.039-20.019c-0.075-0.757-0.068-2.242-0.736-2.737
		c-0.687-0.509-1.618-0.276-2.332-0.984c-1.427-1.414-0.722-3.952-0.852-5.775c-0.157-2.184-2.636-1.969-4.408-2.056
		C304.407,352.82,300.143,352.854,296.598,354.339z"/>
	<path style="fill:#606060;" d="M329.337,354.799c-0.453,2.306-0.709,4.316-3.033,5.356c-0.815,0.365-2.195,0.516-2.678,1.353
		c-0.52,0.901,0.006,2.383,0.101,3.322c0.847,8.303-0.157,16.74,0.087,25.065c0.106,3.634,0.077,7.263,0.187,10.892
		c0.028,0.959-0.11,2.521,0.362,3.394c0.519,0.96,2.183,0.865,3.142,0.928c1.579,0.102,2.985-0.289,4.482-0.724
		c1.296-0.377,1.594-0.516,1.832-1.869c0.493-2.799,0.508-5.694,0.733-8.521c0.32-4.014,0.51-8.014,0.648-12.039
		c0.262-7.665-0.124-15.343-0.165-23.003c-0.009-1.616,0.171-3.381-1.054-4.591C332.479,352.879,331.106,353.792,329.337,354.799z"
		/>
</g>
<g>
	<path style="fill:#30353F;" d="M24.949,373.867c-4.197,2.953-3.444,8.723-3.444,13.296c0,1.732-1.021,6.101,1.571,6.458
		c1.457,0.2,3.334,0.09,4.832,0.109c0.864,0.011,2.479-0.03,3.058-0.748c0.594-0.737,0.394-2.687,0.414-3.514
		c0.068-2.738-0.105-5.469-0.118-8.201C31.248,378.332,30.83,371.176,24.949,373.867z"/>
	<path style="fill:#30353F;" d="M46.019,373.867c-4.197,2.953-3.444,8.723-3.444,13.296c0,1.732-1.021,6.101,1.571,6.458
		c1.457,0.2,3.334,0.09,4.832,0.109c0.864,0.011,2.479-0.03,3.058-0.748c0.595-0.737,0.394-2.687,0.414-3.514
		c0.068-2.738-0.105-5.469-0.118-8.201C52.317,378.332,51.9,371.176,46.019,373.867z"/>
	<path style="fill:#30353F;" d="M74.551,373.867c-4.197,2.953-3.444,8.723-3.444,13.296c0,1.732-1.021,6.101,1.571,6.458
		c1.457,0.2,3.334,0.09,4.832,0.109c0.864,0.011,2.479-0.03,3.058-0.748c0.595-0.737,0.394-2.687,0.414-3.514
		c0.068-2.738-0.105-5.469-0.118-8.201C80.849,378.332,80.431,371.176,74.551,373.867z"/>
	<path style="fill:#30353F;" d="M94.921,373.867c-4.197,2.953-3.444,8.723-3.444,13.296c0,1.732-1.021,6.101,1.571,6.458
		c1.457,0.2,3.334,0.09,4.832,0.109c0.864,0.011,2.479-0.03,3.058-0.748c0.594-0.737,0.394-2.687,0.414-3.514
		c0.068-2.738-0.105-5.469-0.118-8.201C101.22,378.332,100.802,371.176,94.921,373.867z"/>
	<path style="fill:#30353F;" d="M24.949,405.907c-4.197,2.953-3.444,8.723-3.444,13.296c0,1.732-1.021,6.101,1.571,6.458
		c1.457,0.2,3.334,0.09,4.832,0.109c0.864,0.011,2.479-0.03,3.058-0.748c0.594-0.737,0.394-2.687,0.414-3.514
		c0.068-2.739-0.105-5.47-0.118-8.201C31.248,410.372,30.83,403.217,24.949,405.907z"/>
	<path style="fill:#30353F;" d="M46.019,405.907c-4.197,2.953-3.444,8.723-3.444,13.296c0,1.732-1.021,6.101,1.571,6.458
		c1.457,0.2,3.334,0.09,4.832,0.109c0.864,0.011,2.479-0.03,3.058-0.748c0.595-0.737,0.394-2.687,0.414-3.514
		c0.068-2.739-0.105-5.47-0.118-8.201C52.317,410.372,51.9,403.217,46.019,405.907z"/>
	<path style="fill:#30353F;" d="M74.551,405.907c-4.197,2.953-3.444,8.723-3.444,13.296c0,1.732-1.021,6.101,1.571,6.458
		c1.457,0.2,3.334,0.09,4.832,0.109c0.864,0.011,2.479-0.03,3.058-0.748c0.595-0.737,0.394-2.687,0.414-3.514
		c0.068-2.739-0.105-5.47-0.118-8.201C80.849,410.372,80.431,403.217,74.551,405.907z"/>
	<path style="fill:#30353F;" d="M94.921,405.907c-4.197,2.953-3.444,8.723-3.444,13.296c0,1.732-1.021,6.101,1.571,6.458
		c1.457,0.2,3.334,0.09,4.832,0.109c0.864,0.011,2.479-0.03,3.058-0.748c0.594-0.737,0.394-2.687,0.414-3.514
		c0.068-2.739-0.105-5.47-0.118-8.201C101.22,410.372,100.802,403.217,94.921,405.907z"/>
	<path style="fill:#30353F;" d="M487.592,373.867c4.197,2.953,3.444,8.723,3.444,13.296c0,1.732,1.021,6.101-1.571,6.458
		c-1.457,0.2-3.334,0.09-4.832,0.109c-0.864,0.011-2.479-0.03-3.058-0.748c-0.595-0.737-0.394-2.687-0.414-3.514
		c-0.068-2.738,0.105-5.469,0.118-8.201C481.293,378.332,481.711,371.176,487.592,373.867z"/>
	<path style="fill:#30353F;" d="M466.522,373.867c4.197,2.953,3.444,8.723,3.444,13.296c0,1.732,1.021,6.101-1.571,6.458
		c-1.457,0.2-3.334,0.09-4.832,0.109c-0.864,0.011-2.479-0.03-3.058-0.748c-0.594-0.737-0.394-2.687-0.414-3.514
		c-0.068-2.738,0.105-5.469,0.118-8.201C460.224,378.332,460.641,371.176,466.522,373.867z"/>
	<path style="fill:#30353F;" d="M437.989,373.867c4.197,2.953,3.444,8.723,3.444,13.296c0,1.732,1.021,6.101-1.571,6.458
		c-1.457,0.2-3.334,0.09-4.832,0.109c-0.864,0.011-2.479-0.03-3.058-0.748c-0.594-0.737-0.394-2.687-0.414-3.514
		c-0.068-2.738,0.105-5.469,0.118-8.201C431.691,378.332,432.109,371.176,437.989,373.867z"/>
	<path style="fill:#30353F;" d="M417.62,373.867c4.197,2.953,3.444,8.723,3.444,13.296c0,1.732,1.021,6.101-1.571,6.458
		c-1.457,0.2-3.334,0.09-4.832,0.109c-0.864,0.011-2.479-0.03-3.058-0.748c-0.595-0.737-0.394-2.687-0.414-3.514
		c-0.068-2.738,0.105-5.469,0.118-8.201C411.321,378.332,411.739,371.176,417.62,373.867z"/>
	<path style="fill:#30353F;" d="M487.592,405.907c4.197,2.953,3.444,8.723,3.444,13.296c0,1.732,1.021,6.101-1.571,6.458
		c-1.457,0.2-3.334,0.09-4.832,0.109c-0.864,0.011-2.479-0.03-3.058-0.748c-0.595-0.737-0.394-2.687-0.414-3.514
		c-0.068-2.739,0.105-5.47,0.118-8.201C481.293,410.372,481.711,403.217,487.592,405.907z"/>
	<path style="fill:#30353F;" d="M466.522,405.907c4.197,2.953,3.444,8.723,3.444,13.296c0,1.732,1.021,6.101-1.571,6.458
		c-1.457,0.2-3.334,0.09-4.832,0.109c-0.864,0.011-2.479-0.03-3.058-0.748c-0.594-0.737-0.394-2.687-0.414-3.514
		c-0.068-2.739,0.105-5.47,0.118-8.201C460.224,410.372,460.641,403.217,466.522,405.907z"/>
	<path style="fill:#30353F;" d="M437.989,405.907c4.197,2.953,3.444,8.723,3.444,13.296c0,1.732,1.021,6.101-1.571,6.458
		c-1.457,0.2-3.334,0.09-4.832,0.109c-0.864,0.011-2.479-0.03-3.058-0.748c-0.594-0.737-0.394-2.687-0.414-3.514
		c-0.068-2.739,0.105-5.47,0.118-8.201C431.691,410.372,432.109,403.217,437.989,405.907z"/>
	<path style="fill:#30353F;" d="M417.62,405.907c4.197,2.953,3.444,8.723,3.444,13.296c0,1.732,1.021,6.101-1.571,6.458
		c-1.457,0.2-3.334,0.09-4.832,0.109c-0.864,0.011-2.479-0.03-3.058-0.748c-0.595-0.737-0.394-2.687-0.414-3.514
		c-0.068-2.739,0.105-5.47,0.118-8.201C411.321,410.372,411.739,403.217,417.62,405.907z"/>
	<path style="fill:#30353F;" d="M362.105,369.348c-6.319-0.91-5.098,8.949-5.281,12.714c-0.091,1.885-0.633,3.921-0.003,5.758
		c0.436,1.271,0.802,1.193,2.164,1.318c1.926,0.176,3.778-0.273,5.697-0.165c0.895,0.05,1.955,0.381,2.512-0.574
		c0.654-1.121,0.074-4.131,0.06-5.385c-0.024-2.234-0.438-4.383-0.543-6.581C366.596,373.987,365.404,367.798,362.105,369.348z"/>
	<path style="fill:#30353F;" d="M362.105,405.755c-6.319-0.91-5.098,8.949-5.281,12.714c-0.091,1.885-0.633,3.921-0.003,5.758
		c0.436,1.271,0.802,1.193,2.164,1.318c1.926,0.176,3.778-0.273,5.697-0.165c0.895,0.05,1.955,0.381,2.512-0.574
		c0.654-1.121,0.074-4.131,0.06-5.385c-0.024-2.234-0.438-4.383-0.543-6.581C366.596,410.394,365.404,404.205,362.105,405.755z"/>
	<path style="fill:#30353F;" d="M306.529,418.592c0.633-2.784,2.148-4.79,5.41-4.228c1.515,0.261,2.895,1.21,3.767,2.54
		c1.667,2.542,1.734,7.018,1.66,9.918c-0.022,0.863,0.286,3.935-0.437,4.601c-0.498,0.458-3.198,0.5-3.86,0.533
		c-2.57,0.128-6.068,0.872-6.41-2.275C306.42,427.466,305.68,422.327,306.529,418.592z"/>
	<path style="fill:#30353F;" d="M287.944,419.376c0.373,3.676,1.296,7.961,0.208,11.591c-0.387,1.291-0.885,1.62-2.239,1.565
		c-2.165-0.087-4.365-0.884-6.547-1.061c-1.691-0.138-1.97,0.104-1.794-1.514c0.288-2.657,0.34-5.261,0.34-7.971
		c0-3.081-0.088-6.352,3.412-7.238c1.496-0.379,2.488,0.196,3.68,1.068C286.949,417.242,287.432,418.176,287.944,419.376z"/>
	<path style="fill:#30353F;" d="M257.71,415.173c-1.609-0.142-3.204,1.356-4.345,2.304c-1.673,1.39-2.066,2.671-2.167,4.841
		c-0.096,2.096,0.205,4.176,0.108,6.276c-0.051,1.115-0.388,2.325,0.488,3.136c0.921,0.852,2.458,0.508,3.562,0.394
		c1.84-0.189,4.131,0.12,5.808-0.734c2.718-1.382,1.055-7.338,0.713-9.798c-0.207-1.481-0.055-3.45-0.871-4.78
		C260.069,415.282,257.796,414.659,257.71,415.173z"/>
	<path style="fill:#30353F;" d="M229.51,413.546c-4.121-0.035-5.561,4.933-5.558,8.138c0.001,2.713-0.921,6.717,0.117,9.286
		c0.432,1.068,0.769,0.958,1.86,1.014c1.803,0.093,3.609,0.146,5.414,0.194c1.199,0.031,2.775-0.022,3.292-1.255
		c0.311-0.739,0.028-2.381,0.027-3.136c-0.003-1.542,0.14-3.058,0.134-4.599c-0.007-1.867,0.008-4.905-1.07-6.558
		C233.18,415.794,231.051,413.778,229.51,413.546z"/>
	<path style="fill:#30353F;" d="M201.582,413.681c-3.238,0.624-5.589,3.907-6.134,6.942c-0.467,2.599-0.98,6.725,0.302,9.198
		c1.158,2.235,4.883,1.523,6.929,1.594c3.589,0.122,2.976-4.299,2.842-6.978c-0.124-2.475-0.059-4.848-0.658-7.255
		C204.208,414.559,203.568,414.801,201.582,413.681z"/>
	<path style="fill:#30353F;" d="M203.361,232.778c-4.485-0.27-4.519,9.379-4.587,12.113c-0.046,1.825-0.268,3.595,1.356,4.661
		c1.578,1.036,3.404,0.375,5.158,0.445c4.374,0.179,2.74-4.922,2.589-8.088C207.816,240.663,207.596,230.344,203.361,232.778z"/>
	<path style="fill:#30353F;" d="M219.335,229.723c-6.358,1.613-5.334,11.651-5.005,16.508c0.196,2.888,1.679,2.144,4.004,1.794
		c2.318-0.348,4.725-0.112,7.008-0.549c1.632-0.313,1.86-0.411,2.078-1.973c0.409-2.939,0.33-5.952-0.093-8.894
		c-0.269-1.868-0.438-4.289-1.595-5.874C224.269,228.728,221.734,228.795,219.335,229.723z"/>
	<path style="fill:#30353F;" d="M239.755,227.222c-5.065,2.468-6.182,9.039-5.805,14.12c0.089,1.205,0.359,2.359,0.632,3.525
		c0.158,0.676,0.121,2.246,0.479,2.753c0.822,1.162,2.684,0.296,3.962,0.143c2.227-0.265,4.386-0.166,6.578-0.681
		c0.754-0.178,1.578-0.207,2.15-0.895c0.667-0.804,0.854-2.232,0.904-3.238c0.134-2.698,0.273-5.733-0.035-8.413
		c-0.202-1.754-0.38-3.979-1.213-5.575C245.883,226.042,241.867,226.263,239.755,227.222z"/>
	<path style="fill:#30353F;" d="M269.343,226.945c-5.917,0.754-5.811,7-6.251,11.708c-0.194,2.074-0.401,4.729,0.166,6.763
		c0.426,1.527,1.476,1.714,3.002,1.926c2.473,0.344,8.998,1.542,10.891-0.421c1.197-1.24,0.73-3.621,0.797-5.142
		c0.088-2.019,0.118-4.109,0.01-6.15C277.672,230.228,273.694,227.786,269.343,226.945z"/>
	<path style="fill:#30353F;" d="M288.373,228.75c-1.693,0.25-2.45,3.261-2.866,4.596c-0.91,2.92-0.544,5.561-0.846,8.49
		c-0.102,0.995-0.917,3.581-0.049,4.427c0.602,0.586,2.533,0.488,3.348,0.627c1.994,0.339,4.073,0.439,6.098,0.649
		c0.972,0.101,2.336,0.223,3.052-0.518c1.148-1.188,0.887-4.577,0.854-6.044c-0.054-2.342-0.667-4.578-1.009-6.886
		c-0.269-1.809-0.901-2.994-2.426-4.046C292.03,228.325,290.105,228.836,288.373,228.75z"/>
	<path style="fill:#30353F;" d="M307.959,232.501c-1.316,0.451-1.749,2.71-2.08,3.873c-0.641,2.252-1.288,4.504-1.618,6.822
		c-0.403,2.828-1.113,5.817,2.229,6.667c0.87,0.222,3.37,1.038,4.254,0.839c0.915-0.206,1.032-0.998,1.368-1.783
		c1.312-3.062,1.47-6.691,1.194-10.028c-0.13-1.572-0.523-2.693-1.428-3.966C310.677,233.237,309.483,233.127,307.959,232.501z"/>
	<path style="fill:#30353F;" d="M151.507,369.745c-1.353-0.476-3.606,1-4.482,1.955c-1.999,2.179-2.564,5.505-2.49,8.348
		c0.057,2.216-0.08,4.75,0.361,6.935c0.34,1.682,1.879,1.48,3.296,1.621c1.947,0.194,3.89,0.302,5.83-0.043
		c1.81-0.321,1.63-2.148,1.726-3.757c0.202-3.373-0.266-6.774-0.528-10.131C155.055,372.576,154.192,369.31,151.507,369.745z"/>
	<path style="fill:#30353F;" d="M148.936,405.495c-1.407,0.01-2.891,2.653-3.379,3.706c-1.199,2.588-1.019,5.888-1.121,8.686
		c-0.053,1.46-0.735,4.829,0.479,5.996c0.412,0.396,1.225,0.445,1.749,0.553c1.025,0.211,2.049,0.502,3.093,0.61
		c1.358,0.14,3.557,0.453,4.649-0.611c0.543-0.529,0.592-1.175,0.713-1.892c0.253-1.495,0.496-2.984,0.59-4.499
		C155.887,415.142,156.36,403.104,148.936,405.495z"/>
</g>
<path d="M32.02,373.602c-2.528-3.072-8.495-2.048-10.55,0.979c-2.575,3.794-2.408,9.397-1.435,14.131
	c-0.106,1.523-0.09,3.048,0.138,4.552c0.14,0.93,1.115,1.356,1.914,1.457c2.012,0.254,3.976,0.102,5.997,0.058
	c1.006-0.022,2.605,0.393,3.582,0.122c1.926-0.534,2.102-2.213,2.084-3.972c-0.035-3.364-0.055-6.739-0.095-10.107
	C33.627,378.552,33.562,375.476,32.02,373.602z M30.118,391.017c-2.088-0.175-4.173-0.04-6.273-0.13
	c-0.22-2.335-0.161-4.641-0.549-6.985c-0.114-4.293,0.219-8.479,3.729-8.561c4.018-0.095,3.024,5.512,2.993,8.148
	c-0.02,1.734-0.04,3.471-0.032,5.205C29.987,388.745,30.092,390.133,30.118,391.017z"/>
<path d="M52.878,373.602c-2.528-3.072-8.495-2.048-10.55,0.979c-2.577,3.794-2.408,9.397-1.435,14.131
	c-0.106,1.523-0.09,3.048,0.138,4.552c0.141,0.93,1.113,1.356,1.914,1.457c2.012,0.254,3.976,0.102,5.996,0.058
	c1.006-0.022,2.605,0.393,3.582,0.122c1.926-0.534,2.102-2.213,2.084-3.972c-0.035-3.364-0.055-6.739-0.094-10.107
	C54.485,378.552,54.42,375.476,52.878,373.602z M50.976,391.017c-2.088-0.175-4.173-0.04-6.273-0.13
	c-0.22-2.335-0.161-4.641-0.549-6.985c-0.115-4.293,0.219-8.479,3.729-8.561c4.018-0.095,3.024,5.512,2.994,8.148
	c-0.02,1.734-0.04,3.471-0.033,5.205C50.845,388.745,50.95,390.133,50.976,391.017z"/>
<path d="M80.922,373.602c-2.528-3.072-8.495-2.048-10.55,0.979c-2.575,3.794-2.408,9.397-1.435,14.131
	c-0.106,1.523-0.09,3.048,0.138,4.552c0.141,0.93,1.115,1.356,1.914,1.457c2.012,0.254,3.976,0.102,5.997,0.058
	c1.006-0.022,2.605,0.393,3.582,0.122c1.926-0.534,2.102-2.213,2.084-3.972c-0.035-3.364-0.055-6.739-0.094-10.107
	C82.53,378.552,82.464,375.476,80.922,373.602z M79.02,391.017c-2.088-0.175-4.173-0.04-6.273-0.13
	c-0.22-2.335-0.161-4.641-0.548-6.985c-0.115-4.293,0.219-8.479,3.729-8.561c4.018-0.095,3.024,5.512,2.993,8.148
	c-0.02,1.734-0.04,3.471-0.033,5.205C78.889,388.745,78.994,390.133,79.02,391.017z"/>
<path d="M101.78,373.602c-2.528-3.072-8.495-2.048-10.55,0.979c-2.575,3.794-2.408,9.397-1.435,14.131
	c-0.106,1.523-0.09,3.048,0.138,4.552c0.14,0.93,1.113,1.356,1.914,1.457c2.012,0.254,3.976,0.102,5.997,0.058
	c1.006-0.022,2.605,0.393,3.582,0.122c1.926-0.534,2.102-2.213,2.084-3.972c-0.035-3.364-0.055-6.739-0.094-10.107
	C103.388,378.552,103.322,375.476,101.78,373.602z M99.877,391.017c-2.088-0.175-4.173-0.04-6.273-0.13
	c-0.22-2.335-0.161-4.641-0.549-6.985c-0.114-4.293,0.22-8.479,3.729-8.561c4.018-0.095,3.024,5.512,2.993,8.148
	c-0.02,1.734-0.04,3.471-0.033,5.205C99.747,388.745,99.852,390.133,99.877,391.017z"/>
<path d="M144.692,370.591c-2.575,3.794-2.408,9.397-1.435,14.132c-0.106,1.523-0.09,3.048,0.138,4.552
	c0.14,0.93,1.115,1.356,1.914,1.457c2.012,0.254,3.976,0.102,5.997,0.058c1.006-0.022,2.605,0.393,3.582,0.123
	c1.926-0.534,2.102-2.213,2.084-3.972c-0.035-3.365-0.055-6.739-0.094-10.107c-0.027-2.271-0.092-5.348-1.635-7.222
	C152.716,366.54,146.749,367.564,144.692,370.591z M153.341,387.027c-2.088-0.175-4.173-0.04-6.273-0.13
	c-0.22-2.335-0.161-4.641-0.549-6.985c-0.114-4.293,0.22-8.479,3.729-8.562c4.018-0.095,3.024,5.512,2.993,8.148
	c-0.02,1.734-0.04,3.471-0.033,5.205C153.21,384.755,153.316,386.144,153.341,387.027z"/>
<path d="M155.242,405.782c-2.528-3.072-8.495-2.048-10.55,0.979c-2.575,3.794-2.408,9.397-1.435,14.131
	c-0.106,1.523-0.09,3.048,0.138,4.552c0.14,0.93,1.115,1.356,1.914,1.457c2.012,0.254,3.976,0.102,5.997,0.058
	c1.006-0.022,2.605,0.393,3.582,0.123c1.926-0.534,2.102-2.213,2.084-3.972c-0.035-3.366-0.055-6.739-0.094-10.107
	C156.85,410.731,156.785,407.655,155.242,405.782z M153.341,423.196c-2.088-0.175-4.173-0.04-6.273-0.13
	c-0.22-2.336-0.161-4.641-0.549-6.985c-0.114-4.293,0.22-8.479,3.729-8.562c4.018-0.095,3.024,5.512,2.993,8.148
	c-0.02,1.734-0.04,3.471-0.033,5.205C153.21,420.925,153.316,422.313,153.341,423.196z"/>
<path d="M32.02,405.782c-2.528-3.072-8.495-2.048-10.55,0.979c-2.575,3.794-2.408,9.397-1.435,14.131
	c-0.106,1.523-0.09,3.048,0.138,4.552c0.14,0.93,1.115,1.356,1.914,1.457c2.012,0.254,3.976,0.102,5.997,0.058
	c1.006-0.022,2.605,0.393,3.582,0.123c1.926-0.534,2.102-2.213,2.084-3.972c-0.035-3.366-0.055-6.739-0.095-10.107
	C33.627,410.731,33.562,407.655,32.02,405.782z M30.118,423.196c-2.088-0.175-4.173-0.04-6.273-0.13
	c-0.22-2.336-0.161-4.641-0.549-6.985c-0.114-4.293,0.219-8.479,3.729-8.562c4.018-0.095,3.024,5.512,2.993,8.148
	c-0.02,1.734-0.04,3.471-0.032,5.205C29.987,420.925,30.092,422.313,30.118,423.196z"/>
<path d="M52.878,405.782c-2.528-3.072-8.495-2.048-10.55,0.979c-2.577,3.794-2.408,9.397-1.435,14.131
	c-0.106,1.523-0.09,3.048,0.138,4.552c0.141,0.93,1.113,1.356,1.914,1.457c2.012,0.254,3.976,0.102,5.996,0.058
	c1.006-0.022,2.605,0.393,3.582,0.123c1.926-0.534,2.102-2.213,2.084-3.972c-0.035-3.366-0.055-6.739-0.094-10.107
	C54.485,410.731,54.42,407.655,52.878,405.782z M50.976,423.196c-2.088-0.175-4.173-0.04-6.273-0.13
	c-0.22-2.336-0.161-4.641-0.549-6.985c-0.115-4.293,0.219-8.479,3.729-8.562c4.018-0.095,3.024,5.512,2.994,8.148
	c-0.02,1.734-0.04,3.471-0.033,5.205C50.845,420.925,50.95,422.313,50.976,423.196z"/>
<path d="M80.922,405.782c-2.528-3.072-8.495-2.048-10.55,0.979c-2.575,3.794-2.408,9.397-1.435,14.131
	c-0.106,1.523-0.09,3.048,0.138,4.552c0.141,0.93,1.115,1.356,1.914,1.457c2.012,0.254,3.976,0.102,5.997,0.058
	c1.006-0.022,2.605,0.393,3.582,0.123c1.926-0.534,2.102-2.213,2.084-3.972c-0.035-3.366-0.055-6.739-0.094-10.107
	C82.53,410.731,82.464,407.655,80.922,405.782z M79.02,423.196c-2.088-0.175-4.173-0.04-6.273-0.13
	c-0.22-2.336-0.161-4.641-0.548-6.985c-0.115-4.293,0.219-8.479,3.729-8.562c4.018-0.095,3.024,5.512,2.993,8.148
	c-0.02,1.734-0.04,3.471-0.033,5.205C78.889,420.925,78.994,422.313,79.02,423.196z"/>
<path d="M101.78,405.782c-2.528-3.072-8.495-2.048-10.55,0.979c-2.575,3.794-2.408,9.397-1.435,14.131
	c-0.106,1.523-0.09,3.048,0.138,4.552c0.14,0.93,1.113,1.356,1.914,1.457c2.012,0.254,3.976,0.102,5.997,0.058
	c1.006-0.022,2.605,0.393,3.582,0.123c1.926-0.534,2.102-2.213,2.084-3.972c-0.035-3.366-0.055-6.739-0.094-10.107
	C103.388,410.731,103.322,407.655,101.78,405.782z M99.877,423.196c-2.088-0.175-4.173-0.04-6.273-0.13
	c-0.22-2.336-0.161-4.641-0.549-6.985c-0.114-4.293,0.22-8.479,3.729-8.562c4.018-0.095,3.024,5.512,2.993,8.148
	c-0.02,1.734-0.04,3.471-0.033,5.205C99.747,420.925,99.852,422.313,99.877,423.196z"/>
<path d="M199.04,413.3c-3.416,1.339-5.123,4.666-5.532,8.122c-0.347,2.932-0.726,7.171,0.073,10.04
	c0.668,2.399,3.016,2.446,5.216,2.162c2.233-0.287,4.197-0.224,6.426-0.268c1.026-0.021,1.832-0.837,1.86-1.86
	C207.21,426.73,208.492,409.594,199.04,413.3z M203.797,422.557c-0.13,2.306-0.148,4.649-0.286,6.963
	c-1.005-0.072-1.992-0.122-3.06-0.01c-1.852,0.195-2.709,1.289-3.722-0.465c-0.676-1.17-0.68-3.21-0.707-4.52
	c-0.059-2.812,0.439-6.478,2.966-8.203C203.688,413.119,203.963,419.61,203.797,422.557z"/>
<path d="M227.801,413.3c-3.416,1.339-5.123,4.666-5.532,8.122c-0.347,2.932-0.726,7.171,0.073,10.04
	c0.668,2.399,3.016,2.446,5.216,2.162c2.233-0.287,4.197-0.224,6.426-0.268c1.026-0.021,1.833-0.837,1.86-1.86
	C235.971,426.73,237.253,409.594,227.801,413.3z M232.558,422.557c-0.13,2.306-0.148,4.649-0.286,6.963
	c-1.005-0.072-1.992-0.122-3.06-0.01c-1.854,0.195-2.709,1.289-3.722-0.465c-0.676-1.17-0.68-3.21-0.707-4.52
	c-0.059-2.812,0.439-6.478,2.967-8.203C232.448,413.119,232.723,419.61,232.558,422.557z"/>
<path d="M197.626,248.629c0.039,0.364,0.077,0.73,0.118,1.077c0.098,0.829,0.618,1.675,1.494,1.799
	c0.183,0.068,0.392,0.072,0.586,0.006c3.309-0.161,9.755,0.243,9.683-4.009c-0.059-3.494-0.608-7.136-1.067-10.589
	c-0.212-1.587-0.368-3.869-1.651-5.006c-3.903-3.458-7.726,2.506-8.669,5.562c-0.904,2.927-1.096,5.792-0.74,8.833
	C197.461,246.99,197.501,247.821,197.626,248.629z M201.298,235.791c0.796-1.189,2.177-1.678,3.443-0.909
	c1.53,0.929,1.242,3.055,1.291,4.636c0.08,2.597,0.15,5.13,0.055,7.706c-0.771,0.084-1.791,0.049-2.299,0.116
	c-0.971,0.13-1.936,0.276-2.904,0.397c0.071-0.009-0.691-6.857-0.666-7.504C200.276,238.742,200.445,237.066,201.298,235.791z"/>
<path d="M218.468,249.44c1.617-0.175,3.2-0.381,4.83-0.379c1.201,0.001,2.595-0.648,3.753-0.426
	c1.145,0.219,2.382-0.504,2.352-1.791c-0.125-5.246-0.056-11.098-2.364-15.995c-2.113-4.48-5.988-3.77-9.727-1.503
	c-3.789,2.299-4.457,7.318-4.511,11.413c-0.025,1.902-0.122,6.384,1.147,7.916C214.957,249.895,217.096,249.589,218.468,249.44z
	 M216.459,234.408c0.528-2.013,2.476-3.751,4.612-3.985c2.801-0.307,3.594,1.379,4.079,3.703c0.166,0.796,0.311,1.576,0.424,2.381
	c0.405,2.886,0.353,5.599,0.214,8.405c-1.715,0.044-3.535,0.352-5.082,0.51c-1.263,0.129-2.997,0.602-4.304,0.229
	c-0.022-0.257-0.042-0.509-0.055-0.738C216.18,241.516,215.578,237.765,216.459,234.408z"/>
<path d="M233.968,247.893c0.014,0.027,0.026,0.056,0.04,0.083c0.114,0.215,0.359,0.401,0.614,0.465
	c0.591,0.392,1.371,0.673,2.41,0.8c3.802,0.468,8.301,0.632,11.952-0.823c0.78-0.311,1.217-0.844,1.285-1.687
	c0.573-7.143,2.765-21.403-8.235-21c-9.511,0.348-11.486,12.745-8.851,20.313C233.277,246.752,233.517,247.381,233.968,247.893z
	 M242.43,228.533c7.451-0.224,5.38,11.372,4.54,16.806c-2.324,0.541-5.396,0.699-7.469,0.558c-0.454-0.031-3.097,0.014-3.132-0.011
	c-0.084-0.06-0.171-0.184-0.258-0.35c-0.033-0.767-0.195-1.649-0.216-1.883c-0.179-1.914-0.356-3.701-0.32-5.625
	C235.652,233.856,237.39,228.685,242.43,228.533z"/>
<path d="M511.666,424.956c-0.129-9.002,0.299-17.973,0.258-26.97c-0.036-8.013-1.072-16.04-1.266-24.094
	c-0.121-4.982-0.198-9.859-0.492-14.735c1.479-3.254,0.728-10.093-0.309-12.376c-2.504-5.517-12.502-4.961-17.366-4.904
	c-7.983,0.092-16.438,0.638-24.352,1.614c-7.053,0.871-14.297,1.095-21.384,1.536c-9.904,0.616-20.681,1.683-30.582,0.781
	c-7.106-0.647-14.32-1.926-21.399-0.716c-0.181-2.105-0.422-4.207-0.743-6.302c-1.003-6.537-3.47-8.048-9.999-9.152
	c-7.017-1.186-14.276-1.491-21.228-2.8c-2.795-0.526-7.215-0.232-9.687-1.181c-0.741-0.285-0.978-0.315-1.033-0.315
	c0.059-0.015,0.232-0.138-0.314-0.958c-0.632-0.947-0.438-1.932-1.228-2.985c-1.644-2.188-4.443-3.299-7.381-3.743
	c0.556-4.881,0.507-10.04,0.356-14.902c-0.186-5.975-2.272-11.844-1-17.861c0.872-4.123,3.681-7.383,3.808-11.746
	c0.107-3.631-2.38-6.942-4.946-9.32c-1.794-1.661-3.881-3.122-5.996-4.33c-2.087-1.193-5.537-1.703-6.567-4.009
	c-0.714-1.596-0.465-6.257-0.262-8.041c0.313-2.761,2.202-4.637,3.219-7.092c3.017-7.285,0.313-12.39-4.889-16.709
	c-0.363-1.752-0.887-3.484-1.644-5.1c0.41-7.452-8.861-10.623-10.585-17.436c-2.288-9.041-4.344-16.352-9.336-24.179
	c-5.592-8.769-14.348-16.35-24.337-20.258c1.834-3.992,1.526-8.736-2.967-10.812c-3.685-1.703-6.515-1.41-7.395-6.588
	c-0.513-3.015,0.257-7.394,0.971-10.275c0.881-3.56,2.543-8.447,1.167-12.076c-0.22-0.58-0.498-1.149-0.815-1.701
	c-0.32-2.695-2.278-4.841-4.759-6.318c0.472-2.904,0.151-6.089-1.224-8.605c-1.998-3.654-2.537-5.352-2.292-9.754
	c0.188-3.37,0.227-6.731,0.076-10.112c-0.202-4.552-1.563-18.205-8.961-15.844c-7.117,2.273-4.652,14.846-4.143,20.125
	c0.294,3.05,0.751,8.023-0.084,11.048c-0.809,2.927-3.411,4.745-4.893,7.242c-1.458,2.458-1.589,5.004-0.32,7.274
	c-2.758,1.273-5.043,3.846-6.104,6.643c-1.376,3.63,0.286,8.516,1.167,12.076c0.714,2.883,1.484,7.26,0.971,10.275
	c-0.881,5.178-3.71,4.884-7.396,6.588c-4.493,2.076-4.801,6.82-2.967,10.812c-9.991,3.907-18.745,11.489-24.337,20.258
	c-4.991,7.827-7.048,15.137-9.336,24.179c-1.725,6.813-10.995,9.984-10.585,17.436c-0.757,1.616-1.281,3.348-1.644,5.1
	c-5.201,4.32-7.906,9.424-4.889,16.709c1.017,2.455,2.907,4.331,3.219,7.092c0.203,1.784,0.451,6.445-0.262,8.041
	c-1.03,2.306-4.48,2.817-6.567,4.009c-2.114,1.208-4.201,2.668-5.996,4.33c-2.567,2.378-5.053,5.689-4.946,9.32
	c0.128,4.363,2.936,7.622,3.808,11.746c1.273,6.017-0.815,11.886-1,17.861c-0.15,4.863-0.199,10.021,0.356,14.902
	c-2.939,0.444-5.737,1.555-7.381,3.743c-0.791,1.053-0.597,2.038-1.228,2.985c-0.546,0.82-0.373,0.944-0.314,0.958
	c-0.055,0-0.291,0.031-1.033,0.315c-2.472,0.948-6.892,0.655-9.687,1.181c-6.952,1.309-14.211,1.613-21.228,2.8
	c-6.527,1.104-8.996,2.614-9.999,9.152c-0.321,2.095-0.562,4.197-0.743,6.302c-7.078-1.21-14.292,0.069-21.398,0.716
	c-9.901,0.902-20.678-0.165-30.582-0.781c-7.086-0.441-14.331-0.665-21.384-1.536c-7.914-0.977-16.37-1.522-24.352-1.614
	c-4.864-0.057-14.862-0.615-17.366,4.904c-1.036,2.284-1.787,9.123-0.309,12.376c-0.294,4.877-0.372,9.753-0.492,14.735
	c-0.194,8.054-1.231,16.081-1.266,24.094c-0.041,8.997,0.387,17.967,0.258,26.97c-0.066,4.625-1.605,13.847,2.516,17.219
	c2.044,1.672,4.316,1.014,6.755,1.053c3.991,0.063,8.068,0.573,12.029,0.973c6.591,0.667,13.283,0.771,19.888,1.337
	c16.517,1.415,33.34,2.762,49.963,1.844c8.204-0.453,16.394-0.86,24.564-1.734c6.011-0.644,13.291-0.22,19.471-1.869
	c4.39,0.28,8.755,0.483,13.164,0.249c10.391-0.551,21.133-0.123,31.58,0.146c20.285,0.521,40.471,2.586,60.735,1.085
	c0.08-0.006,0.15-0.027,0.227-0.04c5.96,0.31,11.763,1.365,17.768,1.077c5.397-0.258,10.785-0.532,16.181-0.78
	c18.863,0.964,37.67-0.856,56.561-1.342c10.446-0.269,21.187-0.698,31.58-0.146c4.408,0.233,8.774,0.031,13.164-0.249
	c6.18,1.65,13.459,1.225,19.471,1.869c8.169,0.876,16.358,1.282,24.564,1.734c16.624,0.918,33.446-0.429,49.962-1.844
	c6.605-0.566,13.298-0.669,19.888-1.337c3.961-0.401,8.038-0.912,12.029-0.973c2.44-0.038,4.711,0.619,6.755-1.053
	C513.271,438.804,511.732,429.581,511.666,424.956z M5.831,355.959c-0.008-0.263-0.019-0.527-0.026-0.79
	c0.025-0.369,0.074-0.861,0.13-1.536c0.156-1.879,0.269-2.82,1.678-3.748c1.616-1.062,5.197-0.8,7.058-0.85
	c2.448-0.065,4.918-0.019,7.369,0.024c4.955,0.087,9.853,0.937,14.815,0.644c8.111-0.478,16.403,0.373,24.468,1.095
	c18.384,1.646,37.441,2.72,55.619-1.251c-0.14,2.976-0.182,5.958-0.159,8.944c-20.316,0.165-40.486-2.02-60.783-1.786
	c-10.354,0.12-20.652,0.03-30.992,0.1c-2.888,0.019-5.768-0.106-8.655-0.159c-2.415-0.044-6.015,0.673-8.32-0.009
	C6.529,356.191,5.976,356.432,5.831,355.959z M114.776,438.431c-9.362,0.289-18.689,1.045-28.05,1.342
	c-9.169,0.291-18.326-0.14-27.468-0.165c-9.099-0.025-18.047-1.115-27.102-1.408c-3.937-0.128-7.728,0.194-11.642-0.233
	c-2.502-0.273-5.005-0.253-7.502-0.648c-1.382-0.089-2.689-0.434-3.921-1.035c-1.786-0.173-1.932-0.411-0.434-0.713
	c-1.103-3.654-0.607-8.021-0.656-11.783c-0.064-4.923-0.031-9.843-0.299-14.76c-0.539-9.857-0.337-19.571-0.56-29.416
	c-0.139-6.105-0.701-12.207-1.066-18.295c1.784,0.035,3.717-0.261,4.939-0.236c5.015,0.102,10.007,0.623,15.021,0.747
	c9.271,0.23,18.464,0.842,27.755,0.946c21.083,0.236,42.086,3.589,63.079,0.93c0.217,8.217,0.704,16.442,0.569,24.594
	c-0.158,9.597-0.362,19.231-0.269,28.828c0.067,6.887,0.031,14.305,1.11,21.187C117.103,438.355,115.932,438.396,114.776,438.431z
	 M366.526,332.331c4.526,0.431,9.007,1.066,13.53,1.752c3.971,0.603,7.51,0.087,8.554,4.709c0.235,1.036,0.369,2.168,0.447,3.329
	c-0.027-0.01-0.049-0.025-0.077-0.035c-3.453-1.174-7.72-0.241-11.315-0.295c-5.397-0.081-10.765-0.421-16.182-0.419
	c-7.357,0.002-14.718-0.302-22.076-0.488c0.178-2.245,0.244-4.499,0.056-6.779c1.433-0.108,2.863-0.235,4.281-0.395
	C351.401,332.837,359.148,333.976,366.526,332.331z M287.607,165.052c6.141,3.804,9.987,9.775,13.053,16.076
	c1.622,3.334,3.112,6.286,4.073,9.848c1.229,4.551,1.438,9.783,3.167,14.142c0.312,0.787,0.701,1.471,1.147,2.094
	c-1.731-0.68-3.484-1.297-5.29-1.767c-1.468-0.383-2.957-0.751-4.454-1.112c0.932-3.515-0.383-8.137-0.986-11.375
	c-0.848-4.551-1.955-9.243-3.667-13.549c-2.942-7.399-7.446-13.396-13.962-17.52C283.082,162.714,285.419,163.697,287.607,165.052z
	 M278.097,161.284c3.108,3.553,6.12,6.261,8.6,10.421c1.502,2.518,2.978,4.987,4.111,7.704c2.927,7.026,5.552,16.343,5.524,24.228
	c-3.047-0.683-6.138-1.284-9.24-1.761c1.423-9.368-1.786-20.281-5.016-28.947c-1.337-3.585-3.392-8.854-6.451-12.593
	c0.79,0.224,1.579,0.451,2.365,0.687C277.994,161.111,278.026,161.202,278.097,161.284z M273.995,189.491
	c-0.314-3.69-0.52-7.381-1.106-11.038c-0.909-5.68-2.12-13.75-6.279-18.576c-0.158-0.952-0.613-1.663-1.353-2.489
	c-0.107-0.12-0.223-0.236-0.336-0.354c0.303,0.019,0.605,0.041,0.905,0.048c1.043,0.459,2.103,0.881,3.186,1.255
	c12.018,10.827,12.846,28.276,15.499,43.172c-0.757-0.097-1.513-0.179-2.27-0.258c-2.481-0.827-5.013-1.498-7.546-1.803
	C274.981,196.195,274.259,192.595,273.995,189.491z M256.502,191.331c-0.126-3.626,0.109-7.127,0.194-10.76
	c0.098-4.259-0.03-8.539-0.046-12.799c-0.014-3.697,0.29-7.521-0.577-11.109c1.388-0.031,2.777-0.035,4.165,0.003
	c0.055,0.001,0.11,0.008,0.165,0.01c0.277,0.435,0.566,0.839,0.924,1.258c0.377,0.439,0.666,0.93,1.029,1.379
	c1.367,3.613,3.993,6.758,5.27,10.505c1.182,3.469,1.729,7.141,2.246,10.777c0.881,6.202,0.54,12.558,1.874,18.679
	c-0.838,0.005-1.673,0.079-2.504,0.189c-4.243-0.914-8.723-0.994-13.009-0.809C256.793,196.257,256.589,193.802,256.502,191.331z
	 M252.655,99.374c1.241-2.435,1.37-4.471,1.371-7.207c0.002-3.739-0.274-7.292-0.492-10.995c-0.146-2.481-0.685-9.279,0.575-11.484
	c4.087-7.143,5.384,2.712,5.471,3.854c0.143,1.902,0.153,3.827,0.128,5.733c-0.059,4.419-0.443,8.854-0.517,13.255
	c-0.044,2.662,0.592,5.137,1.805,7.511c1.243,2.434,1.399,4.694,1.683,7.029c-1.08-0.269-2.145-0.425-3.122-0.45
	c-4.164-0.106-8.053,0.872-11.579,2.633C248.101,105.25,250.791,103.029,252.655,99.374z M235.281,155.015
	c0.843-2.318,1.085-2.899,3.428-4.34c1.241-0.763,2.709-1.041,3.914-2.069c3.552-3.027,3.393-7.017,3.442-11.281
	c0.055-4.701,1.473-8.752,0.632-13.522c-0.69-3.905-2.276-6.95-0.929-9.788c4.053-1.6,7.595-3.087,12.469-3.294
	c2.267-0.097,3.996,0.15,5.779,1.057c0.171,0.135,0.356,0.245,0.56,0.306c0.173,0.101,0.345,0.197,0.52,0.311
	c3.128,3.319,1.033,6.752,0.211,11.408c-0.842,4.77,0.576,8.821,0.631,13.522c0.05,4.264-0.11,8.254,3.442,11.281
	c1.206,1.028,2.673,1.306,3.914,2.069c2.344,1.441,2.586,2.022,3.428,4.34c0.031,0.087,0.052,0.181,0.081,0.269
	c-1.925-0.533-3.885-0.919-5.865-1.156c-1.2-0.355-2.422-0.669-3.68-0.959c-0.03-0.007-0.06-0.014-0.091-0.021
	c-4.56-2.121-11.382-0.988-15.87-0.705c-0.666,0.042-1.387,0.065-2.136,0.084c-0.31-0.008-0.624,0-0.939,0.024
	c-3.923,0.094-8.484,0.248-11.376,2.343c-0.55,0.128-1.102,0.239-1.646,0.389C235.228,155.195,235.249,155.101,235.281,155.015z
	 M252.893,182.179c-0.212,4.617-2.048,12.429,0.62,16.611c-3.393,0.182-6.893,0.378-10.371,0.728
	c-0.958-0.148-1.921-0.239-2.886-0.244c1.334-6.121,0.993-12.477,1.874-18.679c0.517-3.636,1.065-7.308,2.246-10.777
	c0.594-1.744,1.486-3.355,2.405-4.946c1.888-2.436,3.292-5.18,4.484-8.007c0.75-0.044,1.502-0.084,2.253-0.118
	C251.392,164.547,253.255,174.3,252.893,182.179z M237.307,199.447c-2.533,0.306-5.065,0.977-7.546,1.803
	c-0.757,0.08-1.514,0.161-2.27,0.258c2.653-14.895,3.481-32.343,15.499-43.172c0.696-0.24,1.383-0.498,2.064-0.771
	c0.888-0.162,1.723-0.319,2.45-0.418c-0.343,0.534-0.674,1.075-1.009,1.604c-5.054,4.601-6.396,13.55-7.38,19.701
	c-0.585,3.657-0.791,7.348-1.106,11.038C237.745,192.595,237.022,196.195,237.307,199.447z M233.906,161.284
	c0.072-0.082,0.102-0.173,0.107-0.262c0.787-0.236,1.576-0.462,2.365-0.687c-3.059,3.739-5.114,9.008-6.451,12.593
	c-3.231,8.667-6.44,19.579-5.016,28.947c-3.103,0.477-6.192,1.078-9.24,1.761c-0.028-7.884,2.597-17.201,5.524-24.228
	c1.133-2.718,2.608-5.186,4.111-7.704C227.786,167.545,230.798,164.838,233.906,161.284z M204.102,205.119
	c1.729-4.357,1.939-9.591,3.167-14.142c0.962-3.562,2.451-6.516,4.073-9.848c3.066-6.302,6.911-12.273,13.053-16.076
	c2.189-1.356,4.525-2.337,6.919-3.162c-6.516,4.124-11.02,10.12-13.962,17.52c-1.712,4.305-2.819,8.998-3.667,13.549
	c-0.603,3.237-1.92,7.859-0.986,11.375c-1.497,0.361-2.986,0.73-4.454,1.112c-1.806,0.47-3.559,1.087-5.29,1.767
	C203.401,206.59,203.79,205.906,204.102,205.119z M192.996,216.66c0.217-0.494,0.451-0.915,0.699-1.301
	c5.563-2.509,11.278-5.574,17.104-6.906c7.753-1.773,16.126-2.11,23.901-4.04c5.805,1.31,13.584-0.305,18.88-0.586
	c3.995-0.212,8.234-0.008,12.385-0.195c3.444,1.062,7.174,0.64,10.805,0.658c7.923,2.05,16.503,2.35,24.433,4.162
	c5.826,1.332,11.541,4.398,17.104,6.906c0.249,0.386,0.482,0.807,0.699,1.301c0.494,2.238-0.069,4.511-0.163,6.728
	c-0.166-0.048-0.33-0.093-0.498-0.142c-1.731-0.51-3.479-1.066-5.24-1.612c-0.008-0.187-0.016-0.373-0.033-0.567
	c-0.165-1.842-0.221-3.736-1.462-5.192c-0.447-0.526-1.464-0.525-1.914,0c-0.861,1.005-1.463,2.369-1.677,3.672
	c-0.032,0.191-0.041,0.383-0.063,0.574c-1.93-0.516-3.868-0.944-5.809-1.243c-0.016-0.197-0.031-0.394-0.057-0.591
	c-0.052-0.385-0.106-0.771-0.162-1.157c0.145-1.481-0.118-2.957-0.219-4.44c-0.221-3.252-5.062-3.312-5.103,0
	c-0.019,1.575,0.328,3.157,0.59,4.711c-0.047,0.244-0.092,0.48-0.139,0.733c-3.126-0.438-6.36-0.852-9.6-1.101
	c0.141-0.796,0.199-1.609,0.241-2.342c0.096-1.658,0.331-3.701-0.96-4.958c-1.276-1.243-3.713-0.767-4.128,1.09
	c-0.34,1.525-0.529,3.899-0.131,5.981c-1.773-0.022-3.531,0.035-5.26,0.182c0.098-0.577,0.148-1.167,0.19-1.743
	c0.134-1.842,0.025-3.609-1.236-5.048c-0.681-0.776-2.155-0.779-2.837,0c-1.285,1.466-1.608,3.918-1.151,6.104
	c-2.835-0.32-5.748-0.387-8.636-0.35c0.149-0.64,0.239-1.297,0.289-1.987c0.081-1.12,0.231-2.9-0.461-3.806
	c-0.636-0.835-1.765-1.618-2.893-1.177c-2.148,0.839-2.399,2.677-2.139,4.717c0.102,0.8,0.219,1.594,0.416,2.39
	c-1.633,0.067-3.237,0.143-4.789,0.205c-0.92,0.036-1.841,0.067-2.763,0.099c0.019-0.134,0.039-0.27,0.057-0.404
	c0.209-1.504,0.451-3.268,0.014-4.734c-0.705-2.364-4.63-2.709-5.14,0c-0.28,1.488-0.151,3.128,0.018,4.633
	c0.026,0.235,0.061,0.466,0.102,0.693c-1.825,0.079-3.648,0.173-5.46,0.321c-0.377,0.031-0.766,0.056-1.157,0.082
	c0.689-2.339,0.439-5.162-0.981-6.785c-0.682-0.779-2.156-0.776-2.837,0c-1.261,1.439-1.371,3.206-1.236,5.048
	c0.042,0.576,0.092,1.166,0.19,1.743c-1.729-0.148-3.487-0.205-5.26-0.182c0.397-2.08,0.209-4.455-0.131-5.981
	c-0.416-1.858-2.852-2.333-4.128-1.09c-1.291,1.258-1.055,3.301-0.96,4.958c0.042,0.733,0.1,1.546,0.241,2.342
	c-3.239,0.249-6.473,0.661-9.599,1.101c-0.047-0.252-0.092-0.49-0.139-0.733c0.262-1.554,0.609-3.137,0.59-4.711
	c-0.041-3.312-4.882-3.252-5.103,0c-0.1,1.482-0.363,2.959-0.219,4.44c-0.056,0.386-0.109,0.772-0.162,1.157
	c-0.026,0.197-0.041,0.394-0.057,0.591c-1.941,0.299-3.88,0.726-5.809,1.243c-0.022-0.191-0.031-0.384-0.063-0.574
	c-0.214-1.302-0.817-2.666-1.677-3.672c-0.45-0.525-1.466-0.526-1.914,0c-1.241,1.456-1.297,3.348-1.462,5.192
	c-0.017,0.194-0.025,0.38-0.033,0.567c-1.76,0.546-3.509,1.101-5.24,1.612c-0.167,0.049-0.331,0.094-0.498,0.142
	C193.065,221.17,192.502,218.899,192.996,216.66z M185.161,235.974c0.29-3.265,2.541-4.358,4.583-5.778
	c0.915-0.094,1.818-0.168,2.615-0.321c2.699-0.516,5.32-1.314,7.971-2.027c4.864-1.309,9.331-2.318,14.323-2.756
	c7.028-0.617,14.108-1.917,21.058-3.425c1.068,0.009,2.145-0.013,3.235-0.025c5.013-0.055,10.015,0.067,15.031-0.041
	c3.939-0.084,7.808-0.04,11.743,0.064c3.943,0.105,8.125,0.829,12.07,0.321c6.47,1.37,13.04,2.533,19.563,3.106
	c4.991,0.438,9.459,1.447,14.323,2.756c2.651,0.713,5.271,1.511,7.971,2.027c0.797,0.153,1.7,0.227,2.615,0.321
	c2.043,1.42,4.293,2.512,4.583,5.778c0.334,3.765-2.391,5.529-4.123,8.301c-1.162,1.86-1.337,3.872-1.474,6.01
	c-0.126,1.967-0.409,4.213-0.183,6.27c-2.883-0.7-5.801-1.273-8.705-1.761c-11.2-1.88-24.11-3.451-35.675-1.58
	c-8.556-1.661-17.722-0.855-26.325-0.303c-4.985,0.32-10.26,0.105-15.477,0.235c-11.453-1.761-24.178-0.207-35.237,1.649
	c-2.904,0.487-5.821,1.06-8.705,1.761c0.227-2.057-0.057-4.303-0.183-6.27c-0.137-2.139-0.311-4.15-1.474-6.01
	C187.55,241.503,184.826,239.739,185.161,235.974z M171.852,270.667c0.383-1.024,1.19-1.999,2.187-2.885
	c3.048-0.862,5.977-2.015,9.027-3.194c6.203-2.397,13.365-3.648,19.963-4.527c8.182-1.09,16.876-0.899,25.296-1.613
	c2.632,0.09,5.292-0.013,7.823,0.049c4.74,0.115,9.485,0.027,14.21-0.28c8.877-0.576,17.939,0.165,26.808-0.556
	c10.365,1.683,21.492,1.027,31.806,2.401c6.598,0.879,13.761,2.13,19.963,4.527c3.05,1.178,5.978,2.332,9.027,3.194
	c0.997,0.886,1.805,1.861,2.187,2.885c0.133,0.354,0.206,0.685,0.244,1.003c-1.677-0.313-3.759-1.191-4.476-1.435
	c-3.095-1.047-6.047-1.967-9.273-2.571c-7.247-1.356-14.689-2.039-22.032-2.719c-11.15-1.032-23.319-3.55-34.773-2.721
	c-5.027-1.162-10.782-1.065-15.605-0.958c-4.291,0.095-8.857,0.172-13.217,0.881c-11.117-0.591-22.85,1.8-33.63,2.796
	c-7.342,0.68-14.785,1.363-22.032,2.719c-3.225,0.603-6.178,1.523-9.273,2.571c-0.717,0.242-2.799,1.121-4.476,1.435
	C171.646,271.352,171.72,271.021,171.852,270.667z M331.203,303.912c0.013-5.303,0.14-10.664-0.175-15.97
	c0.541-0.035,1.055-0.204,1.555-0.658c1.246-1.131,1.446-3.358,1.03-5.209c0.521,0.18,1.046,0.347,1.562,0.476
	c-0.195,0.857-0.361,1.719-0.485,2.57c-0.844,5.746,0.386,10.797,1.025,16.43c0.523,4.612,0.056,9.106,0.639,13.577
	c-1.61-0.517-3.32-0.872-5.074-1.128C331.475,310.651,331.196,307.293,331.203,303.912z M325.463,286.988
	c1.14,0.411,2.279,0.567,3.478,0.742c-0.367,5.394-0.595,10.781-0.888,16.183c-0.159,2.941-0.75,6.403-0.885,9.656
	c-0.791-0.059-1.579-0.102-2.366-0.146c0.008-4.724,0.428-9.568,0.654-14.252C325.65,295.137,325.314,291.013,325.463,286.988z
	 M327.723,284.203c-1.014-0.09-3.042-0.067-3.457-1.247c-0.297-0.846,0.541-2.685,0.876-3.421c1.299,0.142,2.628,0.54,3.902,0.849
	c0.549,0.133,1.316,0.436,2.184,0.782c-0.372,0.874-0.624,1.851-0.782,2.707c-0.148,0.805,0.183,0.674-0.641,0.477
	C329.129,284.188,328.41,284.263,327.723,284.203z M307.58,273.852c-9.633-1.236-18.803-3.081-28.139-3.718
	c-6.757-2.343-15.864-1.654-22.356-1.383c-5.863,0.245-12.807-0.281-18.731,1.162c-11.373,0.076-22.314,2.448-33.929,3.938
	c-6.676,0.857-22.165,0.312-29.058,4.546c-0.102-0.198-0.182-0.409-0.296-0.601c-0.638-1.083-1.601-1.99-2.356-2.954
	c1.264-0.032,2.561-0.255,3.665-0.371c8.709-0.922,16.945-4.199,25.5-5.83c8.209-1.564,16.775-1.956,25.1-2.631
	c3.774-0.306,7.652-0.216,11.503-0.276c4.922,0.657,10.251,0.055,15.09,0.141c6.271,0.114,12.957,1.538,19.099-0.157
	c4.127,0.091,8.298-0.036,12.35,0.291c8.324,0.675,16.89,1.067,25.1,2.631c8.555,1.63,16.791,4.908,25.5,5.83
	c1.104,0.116,2.401,0.339,3.665,0.371c-0.754,0.965-1.717,1.872-2.356,2.954c-0.114,0.192-0.192,0.403-0.295,0.601
	C329.745,274.164,314.257,274.71,307.58,273.852z M313.571,297.083c-0.258,4.199-2.279,11.063-0.962,15.374
	c-0.885-0.112-1.786-0.227-2.687-0.34c0.706-5.226,0.755-10.802,0.952-16.002c0.148-3.921,0.901-8.53,0.041-12.515
	c1.184,0.255,2.409,0.371,3.398,0.473c0.024,0.002,0.049,0.006,0.073,0.009C312.815,287.796,313.788,293.553,313.571,297.083z
	 M311.474,280.604c-0.324-0.08-1.567-0.364-1.747-0.689c-0.124-0.225,0.359-1.282,0.408-1.503c0.117-0.527,0.147-0.94,0.088-1.359
	c2.334,0.273,4.652,0.585,6.952,0.955c-0.076,0.369-0.134,0.745-0.167,1.14c-0.058,0.687,0.079,1.521-0.077,2.227
	c-0.827-0.019-1.862-0.301-2.515-0.37C313.435,280.899,312.44,280.842,311.474,280.604z M316.644,284.426
	c1.284,0.143,2.506,0.017,3.179-1.326c0.591-1.177,0.587-2.994,0.258-4.588c0.652,0.118,1.305,0.254,1.957,0.378
	c-0.346,1.182-0.45,2.599-0.486,3.229c-0.051,0.874-0.134,2.147,0.35,2.936c0.334,0.544,0.886,0.876,1.481,1.134
	c-1.195,3.822-0.716,8.524-1.045,12.408c-0.409,4.833-1.144,9.763-1.384,14.628c-1.896-0.093-3.717-0.202-5.382-0.4
	c-0.225-0.027-0.463-0.058-0.691-0.087c2.218-4.028,1.616-10.621,1.915-15.01C317.064,293.798,317.671,288.566,316.644,284.426z
	 M307.617,294.239c-0.324,5.81-0.821,11.619-1.366,17.422c-2.711-0.327-5.462-0.632-8.225-0.853
	c1.685-3.923,0.419-9.627,0.595-13.684c0.227-5.222,1.018-10.414,0.967-15.641c1.247,0.018,2.433-0.258,3.133-1.437
	c0.652-1.099,0.599-2.53,0.198-3.795c1.44,0.15,2.882,0.313,4.322,0.457c-0.694,1.686-1.013,4.127,0.34,5.399
	c0.271,0.254,0.595,0.462,0.939,0.65C307.102,285.991,307.793,291.077,307.617,294.239z M296.328,285.33
	c-0.192,2.45-0.253,4.883-0.231,7.336c0.051,5.805-1.102,11.862-0.83,17.587c0.006,0.123,0.025,0.25,0.058,0.375
	c-0.909-0.051-1.815-0.091-2.719-0.122c0.977-2.829,0.372-7.752,0.535-9.335c0.712-6.918-0.176-13.767,0.081-20.617
	c1.15,0.158,2.273,0.422,3.413,0.592C296.207,282.136,296.395,284.471,296.328,285.33z M296.254,277.944
	c-0.816-0.134-2.533-0.113-3.245-0.532c-0.853-0.501-0.373-1.414-0.334-2.288c2.348,0.272,4.694,0.535,7.042,0.788
	c0.043,0.795,0.145,2.09-0.055,2.276C299.383,278.446,296.486,277.983,296.254,277.944z M288.776,310.19
	c-2.138-0.279-4.317-0.413-6.458-0.505c1.11-5.505,0.419-11.505,0.465-17.062c0.038-4.523,0.451-9.384-0.331-13.92
	c1.391,0.067,2.786-0.085,3.474-1.262c0.611-1.046,0.327-2.139-0.217-3.133c1.221,0.15,2.443,0.285,3.665,0.43
	c-0.478,1.563-0.118,3.726,1.053,4.887c0.178,0.175,0.37,0.307,0.57,0.414c-1.021,6.862-0.764,14.094-1.52,20.98
	C289.225,303.308,288.19,307.363,288.776,310.19z M279.397,292.397c-0.063,5.3-0.977,11.845-0.002,17.167
	c-0.388-0.015-0.788-0.028-1.169-0.044c-0.728-0.03-1.452-0.056-2.175-0.08c1.461-3.208,0.525-9.327,0.608-12.147
	c0.116-3.911-0.032-7.817-0.058-11.731c-0.016-2.381,0.247-4.732-0.187-7.027c1.102,0.059,2.237-0.028,3.265-0.024
	C278.939,282.943,279.447,288.02,279.397,292.397z M278.222,275.22c-0.874,0.033-2.423,0.25-2.997-0.55
	c-0.24-0.336-0.206-0.987-0.164-1.543c0.635,0.034,1.272,0.058,1.906,0.059c1.983,0.261,3.968,0.521,5.953,0.772
	c-0.065,0.365-0.044,0.8-0.076,1.197C281.391,275.384,279.547,275.17,278.222,275.22z M272.873,309.39
	c-0.36,0.002-0.718,0.019-1.077,0.028c-3.042-0.617-6.292-0.872-9.509-0.943c0.425-5.355-0.59-10.953-0.679-16.295
	c-0.056-3.368,0.853-8.967-0.494-12.5c0.386-0.133,0.753-0.288,1.063-0.496c1.81-1.216,2.093-4.367,1.83-6.591
	c2.425,0.071,4.849,0.159,7.278,0.29c0.125,0.007,0.255,0.017,0.381,0.024c0.071,1.69,0.211,3.798,1.725,4.788
	c0.249,0.163,0.513,0.29,0.786,0.398c-0.261,0.964-0.181,2.127-0.262,3.072c-0.403,4.676-0.282,9.385-0.606,14.064
	C273.109,298.135,271.412,305.713,272.873,309.39z M253.638,296.441c-0.101-5.14,1.032-11.145-0.223-16.221
	c0.314-0.008,0.617-0.018,0.897-0.023c1.191-0.024,2.799,0.055,4.337-0.06c-0.549,4.288,0.002,9.051-0.031,13.29
	c-0.039,4.915-0.268,10.111,0.199,15.04c-1.743,0.026-3.454,0.087-5.084,0.163C254.408,304.884,253.703,299.744,253.638,296.441z
	 M257.242,276.647c-0.977,0.034-1.954,0.128-2.932,0.147c-0.661,0.013-1.712,0.113-2.341-0.118
	c-0.889-0.327-0.672-0.266-0.743-1.425c-0.056-0.904-0.178-1.78-0.412-2.633c1.949-0.13,3.852-0.238,5.629-0.202
	c1.403,0.028,2.801,0.065,4.201,0.097c-0.102,1.471,0.178,3.526-0.794,4.04C259.263,276.863,257.911,276.625,257.242,276.647z
	 M250.59,298.124c-0.082,2.22-1.283,7.378-0.862,10.664c-3.244,0.099-6.576,0.179-9.81,0.623c-0.263-0.005-0.525-0.019-0.788-0.021
	c1.46-3.676-0.236-11.256-0.436-14.16c-0.323-4.68-0.203-9.388-0.606-14.064c-0.081-0.945-0.001-2.107-0.262-3.072
	c0.272-0.108,0.536-0.236,0.786-0.398c1.527-0.997,1.658-3.132,1.727-4.829c2.671,0.228,5.496,0.083,8.276-0.1
	c-0.631,1.744-0.763,4.052-0.233,5.477c0.471,1.272,1.629,1.735,2.904,1.899C249.781,285.704,250.797,292.508,250.59,298.124z
	 M232.607,292.397c-0.051-4.377,0.458-9.453-0.282-13.887c1.027-0.005,2.162,0.084,3.265,0.024
	c-0.434,2.295-0.171,4.646-0.187,7.027c-0.026,3.914-0.174,7.821-0.058,11.731c0.083,2.82-0.853,8.939,0.608,12.147
	c-0.723,0.023-1.447,0.05-2.175,0.08c-0.381,0.016-0.781,0.03-1.169,0.044C233.584,304.242,232.669,297.697,232.607,292.397z
	 M233.782,275.22c-1.326-0.049-3.169,0.164-4.622-0.067c-0.031-0.396-0.011-0.831-0.076-1.197c2.617-0.329,5.234-0.666,7.847-1.017
	c0.044,0.586,0.116,1.357-0.151,1.729C236.204,275.47,234.656,275.252,233.782,275.22z M222.527,301.019
	c-0.756-6.886-0.499-14.118-1.52-20.98c0.2-0.107,0.393-0.239,0.57-0.414c1.172-1.16,1.531-3.323,1.053-4.887
	c1.222-0.146,2.444-0.28,3.665-0.43c-0.545,0.994-0.83,2.087-0.217,3.133c0.688,1.176,2.082,1.329,3.474,1.262
	c-0.782,4.536-0.369,9.396-0.331,13.92c0.046,5.558-0.646,11.558,0.465,17.062c-2.14,0.092-4.32,0.227-6.458,0.505
	C223.813,307.363,222.779,303.308,222.527,301.019z M215.907,292.665c0.022-2.452-0.038-4.885-0.231-7.336
	c-0.067-0.858,0.12-3.194-0.309-4.184c1.141-0.17,2.265-0.435,3.413-0.592c0.257,6.849-0.631,13.698,0.081,20.617
	c0.163,1.584-0.442,6.506,0.535,9.335c-0.904,0.031-1.81,0.069-2.719,0.122c0.033-0.124,0.052-0.25,0.058-0.375
	C217.009,304.528,215.855,298.47,215.907,292.665z M218.994,277.414c-0.713,0.419-2.428,0.397-3.245,0.532
	c-0.232,0.039-3.129,0.501-3.408,0.244c-0.2-0.184-0.099-1.481-0.056-2.276c2.348-0.254,4.694-0.517,7.042-0.788
	C219.369,275.998,219.847,276.913,218.994,277.414z M203.482,282.757c0.344-0.188,0.668-0.396,0.939-0.65
	c1.354-1.272,1.035-3.713,0.34-5.399c1.44-0.143,2.882-0.306,4.322-0.457c-0.401,1.265-0.454,2.696,0.198,3.795
	c0.7,1.178,1.887,1.455,3.133,1.437c-0.051,5.227,0.74,10.419,0.967,15.641c0.176,4.057-1.091,9.761,0.595,13.684
	c-2.762,0.221-5.514,0.525-8.225,0.853c-0.545-5.802-1.041-11.612-1.366-17.422C204.21,291.077,204.902,285.991,203.482,282.757z
	 M198.432,297.083c-0.217-3.529,0.755-9.287-0.815-13.002c0.024-0.003,0.049-0.007,0.073-0.009c0.991-0.102,2.216-0.217,3.399-0.472
	c-0.86,3.985-0.107,8.594,0.041,12.515c0.197,5.2,0.247,10.775,0.952,16.002c-0.901,0.114-1.802,0.229-2.687,0.34
	C200.712,308.146,198.691,301.282,198.432,297.083z M200.53,280.604c-0.965,0.238-1.961,0.295-2.941,0.4
	c-0.654,0.069-1.688,0.352-2.515,0.37c-0.156-0.706-0.019-1.54-0.077-2.227c-0.033-0.395-0.091-0.771-0.167-1.14
	c2.3-0.37,4.617-0.683,6.952-0.955c-0.059,0.419-0.03,0.832,0.088,1.359c0.049,0.221,0.532,1.277,0.408,1.503
	C202.096,280.239,200.854,280.524,200.53,280.604z M190.451,282.119c-0.036-0.63-0.14-2.047-0.486-3.229
	c0.652-0.124,1.305-0.261,1.957-0.378c-0.329,1.593-0.332,3.41,0.258,4.588c0.674,1.343,1.895,1.47,3.179,1.326
	c-1.027,4.14-0.42,9.371-0.153,13.303c0.299,4.39-0.303,10.983,1.915,15.01c-0.228,0.027-0.465,0.059-0.691,0.087
	c-1.665,0.199-3.486,0.306-5.382,0.4c-0.24-4.864-0.976-9.795-1.384-14.628c-0.329-3.884,0.15-8.586-1.045-12.408
	c0.597-0.26,1.148-0.591,1.481-1.134C190.586,284.266,190.501,282.994,190.451,282.119z M186.547,299.17
	c0.225,4.684,0.646,9.53,0.654,14.252c-0.787,0.043-1.575,0.087-2.366,0.146c-0.134-3.252-0.725-6.714-0.885-9.656
	c-0.293-5.401-0.521-10.789-0.888-16.183c1.198-0.174,2.339-0.33,3.478-0.742C186.688,291.013,186.354,295.137,186.547,299.17z
	 M184.28,284.203c-0.687,0.061-1.406-0.014-2.081,0.148c-0.824,0.197-0.493,0.328-0.641-0.477c-0.157-0.856-0.41-1.832-0.782-2.707
	c0.868-0.346,1.634-0.649,2.184-0.782c1.274-0.31,2.603-0.707,3.902-0.849c0.335,0.735,1.173,2.575,0.876,3.421
	C187.321,284.135,185.294,284.113,184.28,284.203z M180.801,303.912c0.008,3.381-0.271,6.738-0.076,10.085
	c-1.753,0.256-3.465,0.611-5.074,1.128c0.584-4.471,0.116-8.965,0.639-13.577c0.639-5.633,1.868-10.684,1.025-16.43
	c-0.125-0.85-0.291-1.711-0.485-2.57c0.515-0.129,1.041-0.296,1.562-0.476c-0.416,1.851-0.215,4.078,1.03,5.209
	c0.501,0.454,1.014,0.623,1.555,0.658C180.66,293.248,180.789,298.609,180.801,303.912z M166.711,325.691
	c0.862-2.191,4.088-3.03,6.777-3.618c8.274-0.542,16.641-2.345,24.868-3.555c5.585-0.821,11.117-1.929,16.701-2.734
	c2.054-0.296,4.132-0.505,6.214-0.708c4.12,0.356,8.432-0.393,12.509-0.592c3.289-0.161,6.855-0.285,10.259-0.786
	c3.2-0.021,6.394-0.038,9.604-0.166c6.103-0.244,12.951,1.318,19.14,0.667c1.849,0.125,3.687,0.199,5.443,0.285
	c4.077,0.199,8.388,0.948,12.509,0.592c2.082,0.204,4.16,0.412,6.214,0.708c5.585,0.805,11.118,1.913,16.701,2.734
	c8.227,1.209,16.594,3.013,24.868,3.555c2.688,0.59,5.915,1.429,6.777,3.618c0.238,0.606,0.272,1.161,0.268,1.699
	c-0.888,0.024-1.777,0.049-2.661,0.073c-9.733,0.265-19.492-0.36-29.243-0.314c-0.421-2.542-0.878-5.378-2.846-6.616
	c-1.83-1.149-4.876-0.471-6.88-0.454c-3.438,0.028-6.877,0.055-10.315,0.075c-14.35,0.083-28.739-0.28-43.112-0.268
	c-12.154,0.01-24.269,0.019-36.41,0.019c-4.018,0-7.962,0.222-11.955-0.006c-1.004-0.058-2.296-0.523-3.236,0.065
	c-2.156,1.348-1.168,4.621-0.516,7.185c-9.765-0.047-19.537,0.579-29.285,0.315c-0.884-0.024-1.772-0.049-2.661-0.073
	C166.438,326.852,166.473,326.297,166.711,325.691z M201.68,325.734c-0.222-1.987-1.288-1.997,0.009-2.501
	c1.856-0.722,6.849-0.069,8.899-0.122c3.113-0.08,6.219,0.009,9.326-0.145c10.825-0.536,21.763,0.156,32.638,0.166
	c12.468,0.011,24.962,0.343,37.404,0.351c3.244,0.002,6.489,0.039,9.732,0.067c1.721,0.015,7.752-0.733,8.546-0.314
	c-0.269-0.141,0.36,2.318,0.528,3.366c0.034,0.216,0.063,0.422,0.093,0.634c-10.339,0.329-20.466,1.78-30.8,2.219
	c-5.582,0.238-11.179,0.202-16.757,0.549c-1.626,0.101-3.494,0.048-5.296,0.216c-1.802-0.169-3.671-0.115-5.296-0.216
	c-5.578-0.347-11.175-0.311-16.757-0.549c-10.484-0.446-20.755-1.938-31.252-2.237c-0.35-0.01-0.699-0.009-1.049-0.017
	C201.711,326.749,201.741,326.278,201.68,325.734z M123.393,338.792c1.044-4.622,4.583-4.106,8.554-4.709
	c4.523-0.687,9.006-1.321,13.53-1.752c7.379,1.645,15.124,0.508,22.78,1.376c1.419,0.161,2.847,0.288,4.281,0.395
	c-0.207,2.516-0.1,5,0.121,7.477c-5.912-0.073-11.829-0.163-17.745-0.153c-10.55,0.019-21.398-0.589-31.936,0.253
	C123.061,340.674,123.189,339.697,123.393,338.792z M122.94,349.117c-0.052-1.62-0.117-3.441-0.076-5.251
	c16.562,1.356,33.429,1.328,50.176,1.341c0.263,2.224,0.549,4.449,0.721,6.695c-1.211,0.085-2.417,0.184-3.613,0.298
	c-6.697,0.641-13.628-0.31-20.314-0.837c-4.741-0.373-9.519-0.773-14.266-0.268c-2.974,0.318-6,0.446-8.96,0.849
	c-1.372,0.187-2.409,0.673-3.523,1.099C123.034,351.736,122.982,350.428,122.94,349.117z M173.899,356.816
	c-0.229,7.551-0.95,15.067-0.822,22.652c0.159,9.497-0.951,18.975-0.682,28.525c0.274,9.75,0.396,19.574,0.097,29.326
	c-6.388-0.064-12.788-0.098-19.09,0.02c-4.737,0.089-9.368,0.659-14.118,0.315c-3.105-0.224-9.343,0.108-13.013-1.035
	c-0.718-13.818-1.474-27.558-1.589-41.465c-0.109-13.234-0.948-26.372-1.499-39.574c4.019,0.691,8.167,0.715,12.216,0.512
	c5.181-0.258,10.33,0.452,15.495,0.79c7.637,0.502,15.334-0.224,23.01-0.814C173.904,356.32,173.907,356.567,173.899,356.816z
	 M183.28,362.107c0.763,0.649,1.864,0.981,3.067,1.148c-1.847,9.445-1.18,20.148-1.539,29.659c-0.09,2.381-0.975,7.346,0.137,10.186
	c-1.691-0.21-3.376-0.447-5.088-0.332c-0.074,0.005-0.174,0.017-0.288,0.033c0.339-7.773,0.766-15.772-0.039-23.332
	c-0.784-7.369-1.099-14.235-0.751-21.63c0.033-0.696,0.035-1.402,0.044-2.105c1.214-0.074,2.426-0.137,3.638-0.187
	C182.036,357.765,181.568,360.651,183.28,362.107z M197.45,356.804c0.059,0.547,0.581,1.865,0.305,2.282
	c-0.786,1.192-4.49,0.569-5.672,0.581c-1.515,0.015-4.75,0.675-6.147-0.133c-0.971-0.562-1.192-2.581-1.336-4.05
	c0.307-0.007,0.617-0.023,0.924-0.027c3.921-0.05,7.896-0.163,11.884-0.254C197.372,355.717,197.388,356.235,197.45,356.804z
	 M201.328,355.129c4.198-0.069,8.396-0.065,12.559,0.083c-0.687,2.565-1.382,6.263,0.435,7.796c1.198,1.011,3.03,1.192,4.843,1.157
	c-1.201,8.33-1.586,16.644-2.205,25.069c-0.236,3.206-0.204,6.421-0.33,9.634c-0.072,1.835-0.355,3.722-0.183,5.537
	c-3.158-0.044-6.31-0.153-9.419-0.413c-3.304-0.277-6.604-0.344-9.9-0.392c2.107-5.795,0.445-14.43,0.492-20.316
	c0.049-6.287,0.863-13.596-0.049-19.944c1.213-0.157,2.312-0.501,3.014-1.221C202.152,360.511,201.596,357.346,201.328,355.129z
	 M217.249,357.068c-0.038-0.573-0.11-1.144-0.213-1.71c1.161,0.066,2.323,0.131,3.476,0.229c2.81,0.24,5.644,0.37,8.48,0.403
	c0.007,0.108,0.008,0.214,0.017,0.324c0.067,0.74,0.656,2.402,0.321,3.117c-0.299,0.638-5.473,0.69-6.781,0.73
	c-0.986,0.031-4.98,0.584-5.712-0.26C217.152,360.267,217.263,357.266,217.249,357.068z M233.339,355.951
	c1.834-0.051,3.665-0.134,5.485-0.283c2.803-0.23,5.811-0.068,8.83,0.044c-0.654,1.803-0.091,3.68,0.591,5.62
	c0.362,1.03,1.228,1.46,2.284,1.297c0.894-0.138,1.794-0.285,2.699-0.426c-1.313,6.693-0.858,14.124-0.929,20.856
	c-0.067,6.422-1.004,14.93,0.829,21.081c-0.146,0.006-0.294,0.014-0.438,0.019c-4.346,0.171-8.862,0.133-13.337,0.404
	c-3.129-0.197-6.292-0.172-9.296-0.165c-0.299-6.489,0.237-13.026,0.149-19.505c-0.096-7.077-0.61-14.121-0.923-21.171
	c1.325-0.24,2.504-0.698,3.224-1.561C233.703,360.726,233.624,358.206,233.339,355.951z M268.241,355.58
	c1.687-0.042,3.347-0.043,4.938,0.088c1.821,0.149,3.651,0.232,5.485,0.283c-0.286,2.255-0.364,4.775,0.832,6.208
	c0.721,0.863,1.898,1.321,3.223,1.561c-0.313,7.05-0.828,14.094-0.923,21.171c-0.087,6.315,0.417,12.687,0.164,19.012
	c-5.328-0.487-10.766-0.475-16.176-0.303c-0.471-6.432-0.725-12.86-1.167-19.288c-0.291-4.243-0.312-8.597-0.474-12.853
	c-0.12-3.126,0.36-6.58-0.368-9.66c0.786-0.049,1.543-0.184,2.221-0.509C267.71,360.472,268.821,357.589,268.241,355.58z
	 M295.168,359.902c-0.732,0.845-4.726,0.29-5.712,0.26c-1.308-0.041-6.482-0.092-6.781-0.73c-0.335-0.714,0.253-2.376,0.321-3.117
	c0.01-0.11,0.01-0.215,0.017-0.324c2.836-0.034,5.67-0.163,8.48-0.403c1.152-0.098,2.315-0.163,3.476-0.229
	c-0.104,0.566-0.175,1.137-0.213,1.71C294.741,357.266,294.85,360.267,295.168,359.902z M298.117,355.212
	c4.164-0.148,8.361-0.153,12.559-0.083c-0.27,2.217-0.824,5.382,0.745,6.991c0.7,0.72,1.801,1.063,3.014,1.221
	c-0.912,6.347-0.098,13.657-0.049,19.944c0.046,5.886-1.616,14.521,0.491,20.316c-3.297,0.047-6.596,0.114-9.9,0.392
	c-3.11,0.261-6.261,0.37-9.419,0.413c0.172-1.815-0.112-3.7-0.183-5.537c-0.125-3.213-0.093-6.428-0.329-9.634
	c-0.619-8.425-1.005-16.74-2.205-25.069c1.814,0.035,3.646-0.146,4.843-1.157C299.499,361.475,298.803,357.777,298.117,355.212z
	 M314.595,355.204c3.988,0.09,7.962,0.204,11.884,0.254c0.307,0.003,0.617,0.02,0.924,0.027c-0.143,1.469-0.364,3.486-1.336,4.05
	c-1.397,0.808-4.632,0.148-6.147,0.133c-1.183-0.013-4.888,0.611-5.673-0.581c-0.274-0.417,0.246-1.735,0.305-2.282
	C314.615,356.235,314.631,355.717,314.595,355.204z M318.066,392.928c-0.137-3.525,0.027-6.975,0.005-10.502
	c-0.03-4.622-0.129-9.3,0.091-13.909c0.085-1.8,0.313-3.434,0.052-5.102c0.634-0.027,1.226-0.057,1.707-0.06
	c0.825-0.005,1.881,0.044,2.985,0.048c-0.446,3.191-0.224,6.342-0.172,9.6c0.057,3.665-0.365,7.344-0.228,11.01
	c0.112,2.96,0.383,5.931,0.491,8.901c0.085,2.345,1.446,11.191-3.846,9.015c-1.627-0.668-1.117-0.952-1.071-3.453
	C318.114,396.636,318.138,394.767,318.066,392.928z M286,384.891c-0.033-6.954-0.21-13.973-0.551-20.925
	c1.309,0.032,2.57-0.02,3.525-0.002c0.419,0.008,0.894,0.039,1.389,0.073c-0.937,7.346-0.036,15.943,0.536,23.217
	c0.45,5.715,0.485,11.448,0.659,17.177c-1.789,0-3.562-0.01-5.342-0.019C286.554,397.934,286.031,391.347,286,384.891z
	 M264.581,357.038c-0.207,0.912,0.039,0.904-0.767,1.291c-0.855,0.411-3.121-0.09-4.121-0.092c-2.674-0.006-5.537,0.816-8.24,0.82
	c-0.29-1.095-0.566-2.244-1.002-3.276c1.884,0.025,3.751-0.016,5.55-0.247c2.699,0.346,5.547,0.281,8.384,0.175
	c0.04,0.298,0.147,0.593,0.391,0.86C264.234,355.975,264.689,356.563,264.581,357.038z M261.217,385.996
	c0.436,5.925,0.022,11.854,0.631,17.754c-2.038,0.088-4.069,0.184-6.082,0.276c1.89-6.516,0.2-14.276,0.155-20.967
	c-0.047-6.877,0.962-14.363-0.351-21.178c1.216-0.146,2.433-0.255,3.647-0.249c0.877,0.005,1.847,0.106,2.822,0.162
	c0.11,1.562-0.823,10.126-0.798,11.602C261.311,377.545,260.912,381.867,261.217,385.996z M225.787,404.413
	c-1.78,0.009-3.553,0.019-5.342,0.019c0.174-5.73,0.21-11.462,0.659-17.177c0.573-7.274,1.473-15.871,0.536-23.217
	c0.494-0.034,0.97-0.065,1.389-0.073c0.954-0.018,2.216,0.034,3.525,0.002c-0.342,6.952-0.518,13.971-0.551,20.925
	C225.972,391.347,225.45,397.934,225.787,404.413z M189.269,373.003c0.051-3.258,0.274-6.409-0.173-9.6
	c1.105-0.003,2.16-0.053,2.985-0.048c0.479,0.003,1.072,0.033,1.707,0.06c-0.261,1.669-0.033,3.302,0.052,5.102
	c0.22,4.61,0.121,9.287,0.091,13.909c-0.023,3.527,0.142,6.977,0.005,10.502c-0.072,1.838-0.048,3.707-0.014,5.548
	c0.047,2.501,0.556,2.785-1.071,3.453c-5.292,2.176-3.932-6.67-3.846-9.015c0.108-2.97,0.379-5.942,0.491-8.901
	C189.635,380.346,189.213,376.668,189.269,373.003z M332.724,437.391c-1.865,0.022-3.731,0.044-5.585,0.061
	c-9.43,0.09-18.908,0.199-28.335,0.49c-5.06,0.156-10.158,0.11-15.221,0.394c-2.814-0.723-6.475-0.249-8.774-0.204
	c-6.367,0.124-12.76,0.256-19.138,0.4c-6.663,0.15-13.781-0.229-20.666,0.411c-7.197-0.981-14.544-0.778-21.806-1.001
	c-9.427-0.289-18.904-0.398-28.335-0.49c-1.854-0.018-3.72-0.04-5.585-0.061c-0.29-9.408-0.182-18.884,0.056-28.291
	c0.023-0.887,0.056-1.784,0.089-2.68c9.693,1.191,19.548,1.913,29.423,2.376c6.755,0.318,13.549,0.248,20.316,0.25
	c3.934,0.001,8.317,0.29,12.526,0.014c3.983,0.049,7.952,0.091,11.935,0c4.811-0.11,9.592-0.191,14.397-0.221
	c4.88,0.608,10.163,0.21,14.817,0.207c6.767-0.002,13.561,0.067,20.316-0.25c9.876-0.463,19.73-1.185,29.423-2.376
	c0.033,0.897,0.066,1.794,0.089,2.68C332.905,418.508,333.014,427.982,332.724,437.391z M332.473,379.468
	c-0.805,7.56-0.378,15.559-0.039,23.332c-0.114-0.016-0.214-0.028-0.288-0.033c-1.712-0.115-3.396,0.123-5.088,0.332
	c1.111-2.841,0.227-7.806,0.137-10.186c-0.36-9.512,0.307-20.214-1.539-29.659c1.203-0.165,2.304-0.499,3.067-1.148
	c1.712-1.456,1.244-4.344,0.82-6.561c1.211,0.05,2.424,0.113,3.638,0.187c0.009,0.704,0.011,1.41,0.044,2.105
	C333.572,365.233,333.258,372.101,332.473,379.468z M333.649,344.986c-0.181,2.183-0.338,4.415-0.424,6.648
	c-1.89-0.076-3.779-0.132-5.647-0.154c-11.908-0.139-24.189-0.855-36.087,0.163c-6.61,0.565-13.288,0.231-19.897-0.109
	c-4.757-0.246-10.535-0.803-15.595-0.073c-5.058-0.73-10.837-0.173-15.594,0.073c-6.609,0.34-13.287,0.675-19.897,0.109
	c-11.898-1.018-24.179-0.301-36.087-0.163c-1.868,0.022-3.757,0.077-5.647,0.154c-0.082-2.155-0.232-4.308-0.406-6.418
	c2.945,0.008,5.886,0.022,8.819,0.051c22.798,0.231,45.53,0.163,68.317,0.17c22.651,0.007,45.404,0.356,68.039-0.454
	c3.368-0.121,6.738-0.117,10.109-0.065C333.653,344.939,333.65,344.964,333.649,344.986z M333.97,340.775
	c-2.013-0.027-4.026-0.044-6.038-0.03c-23.401,0.173-46.786,0.649-70.196,0.657c-23.519,0.007-47.023,0.063-70.547,0.248
	c-3.029,0.024-6.058,0.011-9.089-0.013c-0.18-2.425-0.411-4.946-0.976-7.272c7.414,0.314,14.936,0.121,22.254,0.007
	c9.974-0.155,19.956,0.018,29.912-0.324c5.315-0.183,10.619-0.378,15.936-0.509c3.31-0.082,7.178-0.87,10.775-1.006
	c3.595,0.137,7.465,0.926,10.775,1.006c5.318,0.131,10.621,0.326,15.936,0.509c9.956,0.343,19.938,0.169,29.912,0.324
	c7.316,0.114,14.839,0.307,22.254-0.007C334.379,336.417,334.145,338.619,333.97,340.775z M387.321,395.156
	c-0.116,13.907-0.871,27.648-1.589,41.465c-3.669,1.144-9.908,0.812-13.013,1.035c-4.749,0.343-9.38-0.227-14.118-0.315
	c-6.302-0.118-12.702-0.085-19.09-0.021c-0.299-9.753-0.178-19.576,0.097-29.326c0.269-9.55-0.841-19.028-0.682-28.525
	c0.128-7.585-0.593-15.103-0.822-22.652c-0.008-0.249-0.005-0.496-0.007-0.745c7.676,0.59,15.372,1.316,23.01,0.814
	c5.167-0.339,10.314-1.049,15.495-0.79c4.051,0.202,8.199,0.179,12.216-0.512C388.268,368.783,387.43,381.921,387.321,395.156z
	 M389.064,349.117c-0.042,1.31-0.096,2.619-0.146,3.927c-1.113-0.426-2.151-0.912-3.523-1.099c-2.96-0.403-5.986-0.532-8.96-0.849
	c-4.748-0.507-9.526-0.106-14.266,0.268c-6.685,0.527-13.617,1.477-20.314,0.837c-1.197-0.114-2.402-0.213-3.613-0.298
	c0.176-2.302,0.471-4.585,0.74-6.867c6.065,0.174,12.132,0.429,18.194,0.431c5.635,0.001,11.242-0.014,16.857,0.295
	c4.083,0.225,10.046-0.992,13.862,0.261c0.473,0.155,0.894,0.141,1.249,0.011C389.129,347.103,389.095,348.147,389.064,349.117z
	 M504.86,379.614c-0.223,9.845-0.022,19.559-0.56,29.416c-0.269,4.917-0.236,9.836-0.299,14.76
	c-0.049,3.762,0.447,8.129-0.656,11.783c1.498,0.302,1.353,0.539-0.434,0.713c-1.232,0.602-2.538,0.947-3.92,1.035
	c-2.497,0.395-4.999,0.375-7.502,0.648c-3.913,0.427-7.704,0.106-11.642,0.233c-9.055,0.294-18.004,1.383-27.102,1.408
	c-9.141,0.025-18.299,0.457-27.467,0.165c-9.362-0.298-18.689-1.054-28.051-1.342c-1.156-0.035-2.327-0.076-3.506-0.117
	c1.079-6.882,1.043-14.3,1.11-21.187c0.095-9.597-0.11-19.231-0.269-28.828c-0.134-8.152,0.351-16.377,0.568-24.593
	c20.995,2.658,41.997-0.694,63.08-0.93c9.29-0.104,18.484-0.716,27.754-0.946c5.014-0.124,10.005-0.644,15.021-0.747
	c1.222-0.025,3.154,0.271,4.938,0.236C505.561,367.407,504.999,373.509,504.86,379.614z M506.173,355.959
	c-0.145,0.474-0.697,0.233-2.199,0.677c-2.306,0.682-5.906-0.035-8.32,0.009c-2.888,0.054-5.767,0.179-8.656,0.159
	c-10.34-0.069-20.638,0.019-30.992-0.1c-20.295-0.235-40.466,1.951-60.782,1.786c0.023-2.986-0.019-5.968-0.159-8.944
	c18.178,3.971,37.235,2.898,55.619,1.251c8.065-0.722,16.356-1.573,24.468-1.095c4.961,0.293,9.859-0.557,14.815-0.644
	c2.45-0.043,4.921-0.089,7.369-0.024c1.86,0.05,5.443-0.213,7.058,0.85c1.41,0.928,1.522,1.869,1.678,3.748
	c0.056,0.675,0.105,1.167,0.13,1.536C506.191,355.432,506.181,355.695,506.173,355.959z"/>
<path d="M479.983,373.602c-1.542,1.874-1.608,4.949-1.634,7.222c-0.04,3.367-0.058,6.741-0.095,10.107
	c-0.018,1.759,0.157,3.437,2.084,3.972c0.977,0.271,2.574-0.145,3.581-0.122c2.021,0.044,3.985,0.196,5.997-0.058
	c0.8-0.101,1.774-0.527,1.914-1.457c0.228-1.503,0.244-3.029,0.138-4.552c0.973-4.734,1.142-10.337-1.435-14.131
	C488.477,371.553,482.51,370.53,479.983,373.602z M488.707,383.902c-0.388,2.344-0.328,4.649-0.549,6.985
	c-2.099,0.09-4.185-0.046-6.273,0.13c0.025-0.884,0.131-2.271,0.131-2.321c0.008-1.734-0.013-3.471-0.033-5.205
	c-0.03-2.637-1.025-8.243,2.994-8.149C488.488,375.423,488.821,379.608,488.707,383.902z"/>
<path d="M459.125,373.602c-1.542,1.874-1.608,4.949-1.634,7.222c-0.04,3.367-0.059,6.741-0.095,10.107
	c-0.018,1.759,0.156,3.437,2.083,3.972c0.977,0.271,2.575-0.145,3.582-0.122c2.02,0.044,3.984,0.196,5.996-0.058
	c0.8-0.101,1.774-0.527,1.914-1.457c0.228-1.503,0.244-3.029,0.138-4.552c0.973-4.734,1.142-10.337-1.435-14.131
	C467.619,371.553,461.652,370.53,459.125,373.602z M467.848,383.902c-0.388,2.344-0.329,4.649-0.549,6.985
	c-2.099,0.09-4.184-0.046-6.273,0.13c0.025-0.884,0.131-2.271,0.131-2.321c0.008-1.734-0.013-3.471-0.033-5.205
	c-0.03-2.637-1.025-8.243,2.994-8.149C467.63,375.423,467.963,379.608,467.848,383.902z"/>
<path d="M431.082,373.602c-1.542,1.874-1.608,4.949-1.634,7.222c-0.04,3.367-0.058,6.741-0.094,10.107
	c-0.018,1.759,0.157,3.437,2.083,3.972c0.977,0.271,2.574-0.145,3.581-0.122c2.02,0.044,3.985,0.196,5.997-0.058
	c0.8-0.101,1.774-0.527,1.914-1.457c0.228-1.503,0.244-3.029,0.137-4.552c0.973-4.734,1.142-10.337-1.433-14.131
	C439.576,371.553,433.609,370.53,431.082,373.602z M439.805,383.902c-0.388,2.344-0.328,4.649-0.549,6.985
	c-2.099,0.09-4.185-0.046-6.273,0.13c0.025-0.884,0.131-2.271,0.131-2.321c0.008-1.734-0.012-3.471-0.033-5.205
	c-0.031-2.637-1.025-8.243,2.993-8.149C439.586,375.423,439.919,379.608,439.805,383.902z"/>
<path d="M410.224,373.602c-1.542,1.874-1.608,4.949-1.634,7.222c-0.04,3.367-0.059,6.741-0.095,10.107
	c-0.018,1.759,0.156,3.437,2.083,3.972c0.977,0.271,2.575-0.145,3.582-0.122c2.02,0.044,3.984,0.196,5.995-0.058
	c0.8-0.101,1.774-0.527,1.914-1.457c0.228-1.503,0.244-3.029,0.137-4.552c0.973-4.734,1.142-10.337-1.435-14.131
	C418.717,371.553,412.75,370.53,410.224,373.602z M418.947,383.902c-0.388,2.344-0.329,4.649-0.549,6.985
	c-2.099,0.09-4.184-0.046-6.273,0.13c0.025-0.884,0.131-2.271,0.131-2.321c0.008-1.734-0.013-3.471-0.033-5.205
	c-0.031-2.637-1.025-8.243,2.993-8.149C418.727,375.423,419.061,379.608,418.947,383.902z"/>
<path d="M356.76,369.612c-1.542,1.874-1.608,4.949-1.634,7.222c-0.04,3.367-0.059,6.741-0.094,10.107
	c-0.018,1.759,0.157,3.437,2.083,3.972c0.977,0.271,2.574-0.145,3.582-0.123c2.02,0.044,3.985,0.196,5.997-0.058
	c0.8-0.101,1.774-0.527,1.915-1.457c0.228-1.503,0.244-3.029,0.138-4.552c0.973-4.734,1.142-10.337-1.435-14.131
	C365.255,367.564,359.288,366.54,356.76,369.612z M365.485,379.912c-0.388,2.344-0.329,4.649-0.549,6.985
	c-2.099,0.09-4.185-0.046-6.273,0.13c0.025-0.884,0.131-2.271,0.131-2.321c0.008-1.734-0.013-3.471-0.033-5.205
	c-0.031-2.637-1.025-8.243,2.993-8.148C365.265,371.434,365.599,375.619,365.485,379.912z"/>
<path d="M356.76,405.782c-1.542,1.874-1.608,4.949-1.634,7.222c-0.04,3.367-0.059,6.741-0.094,10.107
	c-0.018,1.759,0.157,3.437,2.083,3.972c0.977,0.271,2.574-0.145,3.582-0.123c2.02,0.044,3.985,0.196,5.997-0.058
	c0.8-0.101,1.774-0.527,1.915-1.457c0.228-1.503,0.244-3.029,0.138-4.552c0.973-4.734,1.142-10.337-1.435-14.131
	C365.255,403.733,359.288,402.709,356.76,405.782z M365.485,416.083c-0.388,2.344-0.329,4.649-0.549,6.985
	c-2.099,0.09-4.185-0.046-6.273,0.13c0.025-0.884,0.131-2.271,0.131-2.321c0.008-1.734-0.013-3.471-0.033-5.205
	c-0.031-2.637-1.025-8.243,2.993-8.148C365.265,407.603,365.599,411.788,365.485,416.083z"/>
<path d="M490.534,406.76c-2.055-3.027-8.022-4.051-10.551-0.979c-1.542,1.874-1.608,4.949-1.634,7.222
	c-0.04,3.367-0.058,6.741-0.095,10.107c-0.018,1.759,0.157,3.437,2.084,3.972c0.977,0.271,2.574-0.145,3.581-0.123
	c2.021,0.044,3.985,0.196,5.997-0.058c0.8-0.101,1.774-0.527,1.914-1.457c0.228-1.503,0.244-3.029,0.138-4.552
	C492.942,416.158,493.109,410.555,490.534,406.76z M488.707,416.083c-0.388,2.344-0.328,4.649-0.549,6.985
	c-2.099,0.09-4.185-0.046-6.273,0.13c0.025-0.884,0.131-2.271,0.131-2.321c0.008-1.734-0.013-3.471-0.033-5.205
	c-0.03-2.637-1.025-8.243,2.994-8.148C488.488,407.603,488.821,411.788,488.707,416.083z"/>
<path d="M469.675,406.76c-2.055-3.027-8.022-4.051-10.55-0.979c-1.542,1.874-1.608,4.949-1.634,7.222
	c-0.04,3.367-0.059,6.741-0.095,10.107c-0.018,1.759,0.156,3.437,2.083,3.972c0.977,0.271,2.575-0.145,3.582-0.123
	c2.02,0.044,3.984,0.196,5.996-0.058c0.8-0.101,1.774-0.527,1.914-1.457c0.228-1.503,0.244-3.029,0.138-4.552
	C472.084,416.158,472.251,410.555,469.675,406.76z M467.848,416.083c-0.388,2.344-0.329,4.649-0.549,6.985
	c-2.099,0.09-4.184-0.046-6.273,0.13c0.025-0.884,0.131-2.271,0.131-2.321c0.008-1.734-0.013-3.471-0.033-5.205
	c-0.03-2.637-1.025-8.243,2.994-8.148C467.63,407.603,467.963,411.788,467.848,416.083z"/>
<path d="M441.631,406.76c-2.055-3.027-8.022-4.051-10.551-0.979c-1.542,1.874-1.608,4.949-1.634,7.222
	c-0.04,3.367-0.058,6.741-0.095,10.107c-0.018,1.759,0.157,3.437,2.083,3.972c0.977,0.271,2.574-0.145,3.581-0.123
	c2.02,0.044,3.985,0.196,5.997-0.058c0.8-0.101,1.774-0.527,1.914-1.457c0.228-1.503,0.244-3.029,0.137-4.552
	C444.039,416.158,444.207,410.555,441.631,406.76z M439.805,416.083c-0.388,2.344-0.328,4.649-0.549,6.985
	c-2.099,0.09-4.185-0.046-6.273,0.13c0.025-0.884,0.131-2.271,0.131-2.321c0.008-1.734-0.012-3.471-0.033-5.205
	c-0.031-2.637-1.025-8.243,2.993-8.148C439.586,407.603,439.919,411.788,439.805,416.083z"/>
<path d="M420.773,406.76c-2.055-3.027-8.022-4.051-10.55-0.979c-1.542,1.874-1.608,4.949-1.634,7.222
	c-0.04,3.367-0.059,6.741-0.095,10.107c-0.018,1.759,0.156,3.437,2.083,3.972c0.977,0.271,2.575-0.145,3.582-0.123
	c2.02,0.044,3.984,0.196,5.995-0.058c0.8-0.101,1.774-0.527,1.914-1.457c0.228-1.503,0.244-3.029,0.137-4.552
	C423.181,416.158,423.349,410.555,420.773,406.76z M418.947,416.083c-0.388,2.344-0.329,4.649-0.549,6.985
	c-2.099,0.09-4.184-0.046-6.273,0.13c0.025-0.884,0.131-2.271,0.131-2.321c0.008-1.734-0.013-3.471-0.033-5.205
	c-0.031-2.637-1.025-8.243,2.993-8.148C418.727,407.603,419.061,411.788,418.947,416.083z"/>
<path d="M312.963,413.3c-9.453-3.706-8.17,13.43-8.041,18.196c0.027,1.024,0.835,1.84,1.86,1.86c2.23,0.043,4.193-0.019,6.426,0.268
	c2.2,0.282,4.547,0.237,5.216-2.162c0.799-2.869,0.419-7.107,0.073-10.04C318.087,417.966,316.379,414.639,312.963,413.3z
	 M315.273,429.047c-1.013,1.752-1.869,0.659-3.722,0.465c-1.067-0.113-2.054-0.063-3.059,0.01c-0.138-2.315-0.156-4.658-0.286-6.963
	c-0.166-2.948,0.108-9.438,4.808-6.233c2.528,1.724,3.026,5.39,2.966,8.203C315.953,425.837,315.95,427.875,315.273,429.047z"/>
<path d="M284.203,413.3c-9.453-3.706-8.17,13.43-8.041,18.196c0.027,1.024,0.835,1.84,1.86,1.86c2.23,0.043,4.193-0.019,6.426,0.268
	c2.2,0.282,4.547,0.237,5.216-2.162c0.798-2.869,0.419-7.107,0.073-10.04C289.326,417.966,287.618,414.639,284.203,413.3z
	 M286.513,429.047c-1.012,1.752-1.868,0.659-3.722,0.465c-1.067-0.113-2.054-0.063-3.06,0.01c-0.138-2.315-0.155-4.658-0.286-6.963
	c-0.166-2.948,0.109-9.438,4.808-6.233c2.528,1.724,3.026,5.39,2.967,8.203C287.193,425.837,287.189,427.875,286.513,429.047z"/>
<path d="M312.179,251.511c0.195,0.066,0.402,0.063,0.585-0.006c0.874-0.124,1.396-0.97,1.494-1.799
	c0.041-0.348,0.081-0.713,0.118-1.077c0.126-0.808,0.166-1.638,0.247-2.329c0.355-3.041,0.163-5.906-0.74-8.833
	c-0.943-3.055-4.766-9.019-8.669-5.562c-1.283,1.137-1.44,3.419-1.651,5.006c-0.46,3.454-1.009,7.095-1.067,10.59
	C302.424,251.753,308.87,251.351,312.179,251.511z M305.971,239.519c0.049-1.581-0.239-3.706,1.291-4.636
	c1.266-0.769,2.648-0.279,3.443,0.909c0.853,1.275,1.024,2.951,1.08,4.443c0.025,0.647-0.737,7.495-0.666,7.504
	c-0.969-0.122-1.933-0.268-2.904-0.397c-0.508-0.068-1.528-0.033-2.299-0.116C305.82,244.648,305.892,242.116,305.971,239.519z"/>
<path d="M285.917,248.534c2.406-0.016,4.798,0.487,7.168,0.823c1.468,0.207,3.868,0.652,4.971-0.682
	c1.267-1.532,1.17-6.014,1.145-7.916c-0.052-4.094-0.721-9.114-4.511-11.413c-3.739-2.267-7.613-2.977-9.727,1.503
	c-2.309,4.897-2.238,10.749-2.364,15.995C282.552,248.874,284.614,248.543,285.917,248.534z M286.429,236.506
	c0.113-0.805,0.257-1.585,0.424-2.381c0.485-2.324,1.279-4.01,4.079-3.703c2.136,0.235,4.085,1.973,4.613,3.985
	c0.881,3.359,0.279,7.109,0.11,10.505c-0.011,0.229-0.033,0.48-0.055,0.738c-1.307,0.373-3.041-0.1-4.304-0.229
	c-1.547-0.157-3.368-0.465-5.082-0.51C286.077,242.105,286.024,239.392,286.429,236.506z"/>
<path d="M263.019,248.419c3.651,1.455,8.151,1.291,11.952,0.823c1.039-0.129,1.819-0.41,2.41-0.8c0.254-0.065,0.5-0.249,0.614-0.465
	c0.014-0.027,0.026-0.056,0.04-0.083c0.451-0.511,0.691-1.142,0.786-1.85c2.635-7.568,0.66-19.964-8.851-20.313
	c-11.001-0.403-8.808,13.857-8.235,21C261.802,247.575,262.238,248.108,263.019,248.419z M269.574,228.533
	c5.04,0.153,6.778,5.323,6.855,9.495c0.035,1.923-0.142,3.71-0.32,5.625c-0.022,0.235-0.184,1.116-0.216,1.883
	c-0.088,0.164-0.174,0.288-0.258,0.35c-0.035,0.025-2.678-0.021-3.132,0.011c-2.072,0.142-5.145-0.016-7.469-0.558
	C264.195,239.906,262.124,228.309,269.574,228.533z"/>
<path d="M261.932,415.14c-2.797-4.205-8.302-1.096-10.537,1.902c-3.113,4.176-2.171,8.828-1.768,13.533
	c0.071,0.824,0.335,1.702,1.008,2.183c0.994,0.71,2.879,0.475,4.038,0.616c1.609,0.197,3.202-0.113,4.826-0.135
	c1.792-0.025,3.874-0.082,4.543-1.998c0.776-2.228,0.121-5.283-0.364-7.478C263.086,421.076,263.519,417.524,261.932,415.14z
	 M258.998,429.852c-1.071-0.011-2.259,0.139-3.318,0.29c-0.96,0.138-2.131,0.753-3.023,0.068c-1.358-1.043-0.616-5.55-0.435-7.066
	c0.24-2.008,1.123-4.246,2.679-5.653c0.778-0.704,2.725-1.775,3.825-1.308c0.986,0.419,1.201,1.857,1.338,2.742
	c0.458,2.953,1.203,6.34,1.159,9.276C261.194,430.203,261.294,429.876,258.998,429.852z"/>
<g>
</g>
<g>
</g>
<g>
</g>
<g>
</g>
<g>
</g>
<g>
</g>
<g>
</g>
<g>
</g>
<g>
</g>
<g>
</g>
<g>
</g>
<g>
</g>
<g>
</g>
<g>
</g>
<g>
</g>
</svg>
