<?xml version="1.0" encoding="iso-8859-1"?>
<!-- Generator: Adobe Illustrator 19.0.0, SVG Export Plug-In . SVG Version: 6.00 Build 0)  -->
<svg version="1.1" id="Layer_1" xmlns="http://www.w3.org/2000/svg" xmlns:xlink="http://www.w3.org/1999/xlink" x="0px" y="0px"
	 viewBox="0 0 511.991 511.991" style="enable-background:new 0 0 511.991 511.991;" xml:space="preserve">
<path style="fill:#D8CEB6;" d="M503.821,434.258c-1.324-0.318-2.756-0.325-3.94-0.997c-2.341-1.331-2.661-4.57-2.297-7.238
	c0.218-1.591,0.418-3.573-0.927-4.45c-0.619-0.403-1.403-0.43-2.108-0.65c-1.553-0.485-2.661-1.919-3.181-3.461
	c-1.305-3.873-1.518-8.314-2.301-12.345c-0.133-0.684-0.3-1.426-0.846-1.857c-0.825-0.65-2.021-0.259-3.069-0.339
	c-1.985-0.15-3.432-2.132-3.675-4.108c-0.325-2.654,0.523-5.039,0.105-7.755c-2.215-14.401-2.693-29.306-4.003-43.82
	c-1.319-14.626-2.622-29.254-3.899-43.884c-0.863-9.895-1.328-19.576-1.328-29.535c-0.012-1.67,0.214-3.721,1.754-4.364
	c0.816-0.34,1.825-0.164,2.545-0.679c1.428-1.02,0.35-3.448,1.271-4.942c1.059-1.721,4.199-1.369,4.892-3.267
	c0.669-1.829-1.753-3.82-0.928-5.585c0.524-1.12,1.989-1.325,3.084-1.9c1.564-0.821,2.473-2.566,2.735-4.313
	c0.512-3.418-0.864-7.344-2.703-10.205c-0.383-0.595-0.826-1.182-1.45-1.518c-1.064-0.573-2.4-0.29-3.533-0.708
	c-4.797-1.769-3.163-13.091-2.976-16.823c0.1-1.993,0.236-4.097,1.353-5.75c1.12-1.659,3.029-2.57,4.553-3.867
	c2.967-2.524,2.293-7.394,3.523-10.84c0.48-1.344,1.085-2.742,2.262-3.547c1.304-0.893,3.03-0.861,4.584-0.571
	c1.554,0.29,3.089,0.805,4.67,0.763c1.489-0.04,2.793-0.571,3.865-1.413c2.001-1.571,3.188-4.227,3.237-6.795
	c0.013-0.67-0.08-1.4-0.551-1.879c-0.572-0.581-1.488-0.597-2.24-0.91c-2.062-0.855-2.06-2.975-2.262-4.833
	c-0.17-1.552-0.715-2.98-0.897-4.537c-0.494-4.211,0.15-8.875,2.364-12.54c1.39-2.301,3.38-4.175,4.987-6.33
	c1.551-2.081,4.175-6.369,0.823-7.878c-2.853-1.284-6.698,0.281-8.527,2.609c-1.236,1.573-0.996,3.568-3.141,4.45
	c-0.355,0.146-0.82,0.217-1.076-0.069c-0.368-0.412,0.062-1.023,0.379-1.476c0.88-1.252,0.84-3.076-0.094-4.288
	c-2.215-2.876-6.176-1.031-6.93,1.999c-0.335,1.346-0.218,2.761-0.023,4.134c0.093,0.66,0.205,1.329,0.113,1.99
	c-0.092,0.66-0.425,1.324-1.015,1.636c-1.524,0.808-3.647-2.394-6.02-1.557c-1.215,0.429-2.175,1.626-2.14,2.914
	c0.042,1.558,1.389,3.182,0.566,4.504c-0.276,0.443-0.753,0.732-1.034,1.172c-0.625,0.984-0.071,2.26-0.059,3.426
	c0.063,6.214-8.184,2.637-11.025,1.376c-8.185-3.634-16.43-7.133-24.729-10.497c-13.174-5.339-26.485-10.338-39.918-14.987
	c-13.269-4.593-26.347-9.554-39.627-14.155c-13.199-4.573-26.502-8.85-39.894-12.824c-6.696-1.986-13.414-3.899-20.154-5.733
	c-3.088-0.841-6.768-1.291-9.631-2.727c-0.781-0.392-7.027-3.294-7.027-3.153c-3.131-1.102-7.357-1.831-10.156-3.601
	c-1.767-1.117-2.789-3.829-3.427-5.748c-0.743-2.236-1.134-4.806-2.961-6.295c-0.737-0.599-1.663-0.974-2.273-1.702
	c-0.812-0.966-0.892-2.385-0.521-3.592c0.619-2.015,2.023-3.37,3.643-4.613c1.386-1.065,2.907-1.976,4.105-3.249
	c1.603-1.704,2.959-5.374,0.123-6.706c-1.11-0.521-2.419-0.213-3.584,0.166c-1.167,0.379-2.392,0.828-3.587,0.556
	c-3.806-0.864-0.496-5.093-1.386-7.185c-0.448-1.051-1.608-1.565-2.488-2.294c-1.325-1.096-2.052-2.736-3.103-4.097
	c-1.051-1.36-2.767-2.518-4.405-1.994c-2.723,0.872-2.467,5.112-4.718,6.874c-1.417,1.109-3.754,1.174-4.448,2.834
	c-0.442,1.056,0.041,2.24,0.225,3.369c0.183,1.129-0.238,2.62-1.378,2.72c-0.812,0.071-1.456-0.62-2.145-1.056
	c-2.262-1.429-5.607,0.245-6.297,2.831c-0.69,2.586,0.884,5.415,3.214,6.732c1.541,0.871,3.489,1.306,4.409,2.817
	c1.643,2.698-0.803,6.562-2.478,8.601c-2.255,2.744-3.895,5.899-5.774,8.896c-2.034,3.245-4.437,4.295-7.878,5.435
	c-3.804,1.261-7.558,2.792-11.385,4.04c-7.938,2.59-15.954,4.933-23.99,7.198c-25.542,7.195-51.482,13.593-75.786,24.463
	c-2.565,1.147-4.917,2.479-7.731,2.796c-2.953,0.332-5.621,1.214-8.449,2.147c-6.614,2.184-13.174,4.533-19.669,7.048
	c-12.991,5.03-25.727,10.718-38.141,17.039c-1.469,0.748-2.968,1.517-4.599,1.759c-1.631,0.243-3.449-0.133-4.542-1.368
	c-1.538-1.739-0.076-2.641-0.012-4.247c0.055-1.395-1.473-3.375-3.052-2.705c2.16-1.777,2.039-5.632-0.23-7.269
	c-2.269-1.637-5.966-0.537-6.971,2.073c-0.797-2.17,0.021-4.553,0.257-6.852c0.236-2.3-0.596-5.177-2.866-5.608
	c-1.57-0.298-3.134,0.818-3.879,2.232c-0.744,1.415-0.855,3.066-0.951,4.661c-1.919-3.298-5.107-5.835-8.752-6.964
	c-1.532-0.475-3.378-0.645-4.58,0.417c-1.513,1.336-1.147,3.782-0.386,5.652c2.209,5.425,6.467,9.665,8.981,14.921
	c1.827,3.819,2.216,9.724,0.081,13.525c-1.426,2.54-4.573,3.288-3.873,6.511c0.483,2.221,2.27,6.185,4.905,6.466
	c1.68,0.178,3.205-1.113,4.894-1.142c1.442-0.024,2.722,0.864,3.886,1.715c1.49,1.088,3.03,2.234,3.886,3.868
	c1.496,2.857,0.575,6.248,1.615,9.188c0.4,1.131,1.294,2.164,2.473,2.386c1.278,0.242,2.736-0.466,3.834,0.23
	c1.007,0.639,1.077,2.055,1.036,3.247c-0.144,4.161-0.405,8.283,0.047,12.374c0.366,3.306-1.162,6.728-3.889,8.657
	c-1.505,1.064-3.434,1.55-4.652,2.933c-1.197,1.359-1.448,3.305-1.404,5.115c0.058,2.359,0.292,5.929,2.083,7.647
	c1.589,1.524,3.224,1.592,3.233,4.346c0.004,1.288-0.324,2.559-0.35,3.848c-0.105,5.093,5.97,7.467,8.617,10.977
	c1.356,1.798,1.892,4.108,1.914,6.36c0.022,2.258-0.666,4.444-0.48,6.673c0.194,2.323,0.275,4.501,0.063,6.861
	c-2.833,31.584-4.988,63.228-7.534,94.838c-0.383,4.756,1.507,15.816-4.648,17.644c-1.351,0.401-2.848,0.288-4.109,0.916
	c-1.857,0.925-2.649,3.196-2.684,5.27c-0.035,2.074,0.497,4.126,0.481,6.2c-0.017,2.047-0.933,4.742-2.801,5.872
	c-1.938,1.172-4.59,0.462-6.155,2.454c-1.212,1.543-0.801,3.747-0.48,5.682c0.322,1.935,0.317,4.302-1.308,5.4
	c-1.458,0.985-3.441,0.398-5.152,0.808c-2.842,0.68-4.315,4.077-3.886,6.967c0.403,2.72,2.322,6.373,3.906,8.614
	c2.015,2.851,6.785,2.842,9.871,2.884c1.153,0.016,2.306,0.025,3.458,0.03c28.879,0.109,57.613-3.264,86.444-4.397
	c14.335-0.564,28.716-0.573,43.017,0.698c3.582,0.318,7.156,0.717,10.719,1.202c3.225,0.439,6.54,0.104,9.82,0.038
	c7.263-0.147,14.528-0.099,21.791-0.049l60.129,0.411c14.224,0.098,28.652,0.955,42.782-0.188
	c14.594-1.181,29.223-1.944,43.861-2.29c28.693-0.677,57.257,1.26,85.884,1.856c26.218,0.546,52.701,6.558,78.415,1.408
	c2.475-0.495,5.036-1.147,6.934-2.811C513.937,445.349,509.585,435.643,503.821,434.258z M96.986,289.374
	c-1.026,8.569-1.372,17.199-2.108,25.798c-0.845,9.878-1.562,19.812-2.8,29.649c-1.209,9.606-3.225,19.1-4.288,28.725
	c-0.522,4.727-0.973,9.605-0.723,14.363c0.14,2.674,1.016,5.689,0.119,8.306c-2.193,6.389-10.889,3.99-15.806,5.038
	c-1.526,0.326-3.226-0.704-3.166-2.412c0.476-13.572-1.436-27.32-1.685-40.921c-0.251-13.685-1.041-27.353-1.974-41.005
	c-0.465-6.806-0.978-13.609-1.444-20.416c-0.414-6.048-1.565-11.764-2.321-17.733c-0.61-4.822,0.875-5.929,3.676-9.374
	c1.272-1.564,1.919-3.321,3.362-4.764c1.827-1.826,4.266-2.898,4.635-5.491c-0.897-1.311-0.686-3.492,1.298-4.094
	c3.841-1.165,9.903-3.513,12.55,1.039c1.447,2.487,1.211,5.741,3.043,8.317c1.911,2.688,4.878,4.378,6.455,7.319
	C98.651,277.019,97.666,283.689,96.986,289.374z M449.417,290.995c-0.299,9.179-0.455,18.36-0.805,27.538
	c-0.737,19.28-2.889,38.665-3.069,57.936c-0.042,4.48,0.113,8.966-0.266,13.436c-0.185,2.177-0.1,5.516-1.382,7.436
	c-2.548,3.818-11.708,2.669-15.386,2.46c-1.024-0.059-2.307-0.739-2.469-1.88c-1.906-13.341-1.36-26.886-2.875-40.282
	c-1.588-14.046-3.409-28.068-4.711-42.145c-0.666-7.201-1.195-14.417-1.477-21.644c-0.205-5.268-1.469-10.404-1.668-15.657
	c-0.161-4.231,1.109-7.217,3.915-10.351c2.859-3.194,5.346-5.774,7.352-9.219c-0.251-0.993,0.021-2.112,1.142-2.821
	c4.293-2.714,8.603-2.351,12.207,1.3c3.325,3.369,6.81,8.542,9.087,12.663C452.237,275.605,449.624,284.656,449.417,290.995z"/>
<g>
	<path style="fill:#9E8C69;" d="M127.496,255.463c-0.007,2.187,0.941,4.984-0.862,6.822c-0.788,0.803-2.453,0.728-3.131,1.624
		c-0.641,0.848-0.082,2.28-0.798,3.196c-0.803,1.027-2.492,0.946-3.429,1.809c-1.095,1.009-1.36,2.477-1.486,3.871
		c-0.466,5.209,0.261,10.965,0.494,16.205c1.153,25.973,4.234,51.811,4.234,77.904c0,5.534,0.249,11.005,0.249,16.555
		c0,2.676,0.029,5.353,0,8.029c-0.02,1.801-0.762,4.373-0.251,6.129c1.067,3.663,7.192,2.628,10.339,2.944
		c1.995,0.199,3.997,0.188,6.02,0.187c1.206,0,4.767,0.721,5.641,0.105c1.028-0.725,0.783-4.197,0.832-5.208
		c0.187-3.878,0.088-7.801,0.248-11.668c0.373-8.934,1.801-17.796,2.574-26.709c1.692-19.515,3.898-39.002,5.566-58.512
		c0.647-7.569,0.766-15.081,1.113-22.648c0.07-1.51,0.797-3.842,0.142-5.316c-0.728-1.639-2.45-1.862-3.734-2.758
		c-2.694-1.879-4.977-4.705-5.847-7.822c-1.573-5.626-4.41-5.722-10.032-5.71C131.541,254.502,129.028,253.457,127.496,255.463z"/>
	<path style="fill:#9E8C69;" d="M185.209,254.717c0.965,2.656-0.555,6.677-2.487,8.257c-1.01,0.827-2.914,1.184-3.668,2.24
		c-0.783,1.096-0.42,2.68-1.294,3.931c-0.924,1.323-2.784,1.916-3.453,3.483c-0.71,1.663,0.177,3.972,0.431,5.704
		c1.05,7.175,0.917,14.856,1.246,22.1c0.716,15.735,2.462,31.427,3.234,47.164c0.728,14.827,0.518,29.73,0.518,44.609
		c0,1.686-0.805,6.17,0.437,7.556c1.219,1.359,5.245,0.801,6.912,0.726c3.993-0.181,10.399,2.257,14.004,0.455
		c0.699-5.549,0.264-11.184,1.038-16.76c0.994-7.16,1.787-14.344,2.804-21.503c1.845-12.979,2.005-26.11,3.359-39.16
		c1.315-12.671,2-25.571,2.487-38.275c0.136-3.56,1.554-8.899,0.813-12.3c-0.629-2.888-3.92-5.154-5.588-7.539
		c-2.348-3.357-4.369-5.719-5.618-9.57c-0.718-2.215-0.247-1.92-3.116-2.114C193.013,253.434,188.602,253.877,185.209,254.717z"/>
	<path style="fill:#9E8C69;" d="M241.678,253.473c1.491,1.441,1.559,5.983,0.248,7.566c-1.389,1.677-3.901,1.266-5.423,2.951
		c-1.172,1.297-0.659,2.751-1.349,4.221c-0.942,2.003-2.543,1.883-4.067,3.173c-2.909,2.463-0.022,8.358,0.399,11.748
		c1.625,13.085,1.294,26.486,2.481,39.627c1.315,14.56,1.876,29.387,1.99,44.025c0.055,7.072,0.747,14.101,0.747,21.195
		c0,2.857-1.225,10.271,0.797,12.504c2.307,2.547,11.308,1.642,14.496,1.77c6.082,0.246,13.561,2.076,19.595,0.681
		c4.219-0.975,3.099-7.501,3.171-10.878c0.178-8.408,1.269-16.761,1.246-25.186c-0.052-20.173,2.504-40.023,3.475-60.106
		c0.391-8.089,0.8-16.091,1.568-24.132c0.421-4.408,1.512-8.961-1.736-12.198c-2.532-2.523-4.479-5.611-6.79-8.237
		c-1.818-2.065-1.16-3.442-1.733-5.875c-0.846-3.601-4.771-3.505-7.926-3.731c-3.327-0.239-6.596,0.188-9.916,0.081
		C250.026,252.578,246.744,253.49,241.678,253.473z"/>
	<path style="fill:#9E8C69;" d="M311.33,253.721c1.159,2.492,0.758,6.446-1.189,8.475c-0.809,0.844-1.961,1.077-2.741,1.973
		c-0.827,0.949-0.829,2.091-1.917,3.108c-2.489,2.329-4.101,2.26-4.114,6.065c-0.016,4.918,0.812,10.03,1.001,15.007
		c0.51,13.349,2.262,26.772,2.989,40.144c0.663,12.193,1.301,24.465,2.456,36.601c0.973,10.212,1.795,20.393,2.76,30.551
		c0.475,4.997,2.587,5.565,7.396,6.156c2.455,0.302,5.202,0.62,7.663,0.666c1.276,0.024,4.244,0.373,5.24-0.469
		c1.674-1.416,0.579-5.042,0.48-6.789c-0.198-3.487-0.268-7.031-0.117-10.516c0.302-6.981,0.327-13.972,1.016-20.946
		c1.68-17.017,1.005-34.103,2.21-51.126c0.605-8.536,1.17-17.069,2.301-25.57c0.516-3.883,3.026-12.294,0.993-15.932
		c-0.875-1.568-2.859-1.922-3.924-3.366c-1.046-1.417-0.883-3.408-2.288-4.595c-1.67-1.41-3.28-0.607-4.233-3.011
		c-0.816-2.063,0.805-4.536-0.807-6.068C324.154,251.846,316.992,253.465,311.33,253.721z"/>
	<path style="fill:#9E8C69;" d="M369.541,254.468c0,2.892,0.175,5.729-2.246,7.649c-0.966,0.767-2.063,0.861-2.854,1.919
		c-0.913,1.223-1.004,2.852-1.872,4.114c-1.983,2.882-4.557,2.268-4.476,6.399c0.099,5.082,1.076,10.553,1.56,15.679
		c1.157,12.271,1.028,24.646,2.178,36.89c0.59,6.286,1.619,12.412,2.246,18.7c1.238,12.408,2.907,24.675,3.481,37.133
		c0.212,4.594-0.699,10.615,0.685,15.01c1.138,3.613,7.751,2.559,11.182,2.723c2.098,0.101,5.009,0.559,7.032,0.123
		c2.715-0.587,2.745-2.428,2.936-5.162c0.258-3.707-0.526-7.47-0.701-11.17c-0.22-4.67-0.124-9.389,0.011-14.034
		c0.59-20.239,2.661-40.417,3.487-60.666c0.381-9.369,0.577-18.605,2.575-27.803c0.975-4.488,2.061-8.674-1.704-11.708
		c-2.831-2.281-4.293-5.214-6.726-7.58c-3.327-3.237-0.78-7.792-6.599-8.443C376.965,253.931,374.281,254.875,369.541,254.468z"/>
</g>
<path style="fill:#776951;" d="M234.463,400.74c3.069-6.339,2.938-14.368,2.294-21.339c-0.892-9.664-0.701-19.477-1.797-29.126
	c-2.066-18.204-1.169-36.475-2.978-54.706c-0.328-3.304-1.686-6.801,2.102-7.213c3.709-0.404,8.13-0.176,11.879,0.187
	c9.493,0.917,19.372,1.187,28.861,0.261c3.174-0.31,6.07-1.18,6.425,2.875c0.286,3.278-0.706,7.147-1.076,10.434
	c-0.5,4.432-0.964,8.855-1.491,13.285c-1.879,15.761-2.924,31.36-2.924,47.225c0,7.027-0.324,14.134-0.013,21.153
	c0.137,3.114-0.147,6.183,0.007,9.308c0.073,1.481,0.913,4.35,0.079,5.687c-1.088,1.744-4.48,1.486-6.293,1.729
	c-4.925,0.66-9.755,0.963-14.709,1.287C249.619,402.126,241.98,403.144,234.463,400.74z"/>
<path style="fill:#BAAC91;" d="M249.014,125.801c-0.937,0.258-1.899,0.544-2.916,0.825c-3.283,0.91-6.713,0.972-10.051,1.855
	c-9.847,2.605-19.73,5.061-29.667,7.302c-15.816,3.568-31.14,9.242-46.478,14.409c-8.331,2.806-16.919,5.092-25.425,7.341
	c-7.873,2.082-15.373,5.128-23.067,7.762c-13.341,4.567-26.749,9.233-39.78,14.672c-6.654,2.776-13.326,5.467-20.053,8.033
	c-3.5,1.335-6.87,2.818-10.417,4.023c-1.752,0.595-4.331,0.863-5.398,2.493c2.144,2.101,7.888,2.4,10.722,2.493
	c11.384,0.373,22.825-1.728,34.195-2.222c25.042-1.088,50.358-2.539,75.438-1.6c17.97,0.672,35.901-1.147,53.86-0.616
	c10.441,0.309,20.796,0.244,31.205,0.564c8.791,0.271,17.539-0.29,26.311-0.541c15.358-0.439,30.762,0.558,46.106,1.3
	c10.095,0.487,20.203,0.288,30.306,0.27c9.328-0.017,19.17,1.587,28.417,0.897c2.736-0.204,5.302-1.231,8.029-1.51
	c4.653-0.478,9.529,0.035,14.204,0.065c9.76,0.063,19.548,0.044,29.258,1.17c11.175,1.295,22.101,0.797,33.292,0.832
	c5.381,0.017,11.1,0.037,16.423-0.264c2.896-0.164,3.939-0.933,1.619-2.845c-2.175-1.794-5.601-2.359-8.175-3.33
	c-3.873-1.462-7.639-3.023-11.556-4.362c-4.307-1.471-8.691-2.758-13.019-4.147c-5.373-1.725-10.414-4.612-15.857-6.04
	c-9.513-2.495-19.181-4.52-28.446-7.877c-4.157-1.506-7.602-3.75-11.457-5.649c-4.098-2.019-9.393-2.299-13.751-3.769
	c-10.124-3.413-20.589-5.317-30.886-8.127c-11.902-3.249-23.438-7.699-35.334-10.984c-12.239-3.38-24.459-6.813-36.719-10.087
	c-4.032-1.076-7.941-2.2-12.043-3.008C254.57,124.47,251.908,125.004,249.014,125.801z"/>
<path style="fill:#9E8F77;" d="M251.343,137.327c-0.629,0.163-1.274,0.345-1.957,0.523c-2.202,0.576-4.504,0.615-6.744,1.174
	c-6.606,1.649-13.238,3.204-19.905,4.623c-10.611,2.259-20.894,5.852-31.185,9.122c-5.59,1.777-11.351,3.224-17.059,4.648
	c-5.282,1.318-10.314,3.247-15.477,4.915c-8.952,2.892-17.948,5.846-26.69,9.288c-4.465,1.758-8.941,3.461-13.454,5.086
	c-2.348,0.845-4.609,1.784-6.99,2.547c-1.175,0.377-2.906,0.546-3.622,1.578c1.438,1.329,5.293,1.519,7.194,1.578
	c7.638,0.236,15.314-1.095,22.943-1.407c16.801-0.689,33.787-1.608,50.616-1.014c12.057,0.427,24.088-0.726,36.137-0.39
	c7.005,0.195,13.953,0.154,20.937,0.357c5.898,0.172,11.768-0.184,17.653-0.342c10.304-0.278,20.64,0.353,30.935,0.823
	c6.774,0.309,13.556,0.183,20.334,0.171c8.94-0.016,17.634,2.687,26.519,1.526c9.263-1.211,17.541-2.177,27.096-1.132
	c7.498,0.82,14.829,0.504,22.337,0.526c3.611,0.011,7.447,0.023,11.019-0.167c1.943-0.103,2.642-0.591,1.087-1.801
	c-1.459-1.136-3.758-1.493-5.485-2.108c-2.599-0.926-5.125-1.914-7.754-2.762c-2.89-0.932-5.831-1.746-8.735-2.626
	c-3.605-1.092-6.987-2.92-10.639-3.824c-19.113-4.73-37.596-11.167-56.723-16.095c-7.986-2.057-15.726-4.874-23.708-6.954
	c-8.212-2.14-16.411-4.314-24.636-6.386c-2.704-0.681-5.329-1.393-8.08-1.904C255.07,136.485,253.284,136.823,251.343,137.327z"/>
<g>
	<path style="fill:#BAAC91;" d="M51.73,211.631c0,6.558-1.318,14.284,0.001,20.692c0.86,4.176,9.534,2.526,13.114,2.701
		c1.647,0.081,3.701,0.242,4.619-0.865c0.986-1.19,0.71-4.46,0.853-5.894c0.34-3.4,0.615-6.818,0.615-10.282
		c0-1.901,0.826-5.734-0.733-7.042c-1.553-1.302-7.105-0.855-9.061-0.788C59.137,210.224,53.125,209.705,51.73,211.631z"/>
	<path style="fill:#BAAC91;" d="M93.827,210.646c1.409,3.433,0.246,8.289,0.246,11.942c0,2.951-0.31,6.564,0.492,9.42
		c0.648,2.307,0.824,1.664,3.38,1.774c3.122,0.133,6.266,0.14,9.421-0.117c4.045-0.329,6.226,0.353,7.386-3.812
		c1.417-5.093,0.691-11.7,0.246-16.935c-0.176-2.072,0.148-2.705-1.645-3.502C109.162,207.553,101.822,209.548,93.827,210.646z"/>
	<path style="fill:#BAAC91;" d="M135.187,208.923c0,6.691,0.358,13.52,0,20.137c-0.095,1.759-0.527,2.753,0.616,3.865
		c1.642,1.598,5.015,0.654,7.006,0.832c2.967,0.265,10.472,1.473,12.385-1.379c1.373-2.047,0.577-6.397,0.481-8.71
		c-0.15-3.581,0.169-7.237-0.178-10.795c-0.186-1.908-0.248-4.401-1.96-5.192c-0.99-0.458-4.726-0.05-5.875,0.022
		C143.338,207.974,139.197,209.511,135.187,208.923z"/>
	<path style="fill:#BAAC91;" d="M175.807,207.938c0,4.712-0.261,9.37-0.438,14.057c-0.089,2.361-0.668,5.855,0.131,8.1
		c1.503,4.227,9.546,3.501,13.196,3.145c4.979-0.484,7.811,0.047,8.528-5.623c0.686-5.41-0.238-10.8,0.001-16.235
		c0.09-2.047,1-5.02-0.976-5.906c-1.746-0.784-5.471,0.435-7.309,0.497C184.52,206.124,180.449,205.508,175.807,207.938z"/>
	<path style="fill:#BAAC91;" d="M216.92,206.953c-0.143,5.003,0.246,10.108,0.246,15.143c0,2.046-1.03,7.381,0.254,9.229
		c1.043,1.5,5.121,0.745,7.137,0.739c3.686-0.009,7.453-0.104,11.089,0.007c3.995,0.122,7.509,0.832,7.424-3.995
		c-0.045-2.579-0.835-4.944-1.093-7.535c-0.259-2.61-0.059-5.272-0.192-7.918c-0.062-1.228,0.442-5.228-0.05-6.161
		c-0.812-1.539-3.827-1.231-5.306-1.243C231.205,205.176,225.524,205.361,216.92,206.953z"/>
	<path style="fill:#BAAC91;" d="M267.142,207.199c-0.92,2.913-0.199,7.418-0.256,10.432c-0.04,2.12,0.012,4.248,0.009,6.369
		c-0.002,1.758-0.623,6.867,0.853,8.075c1.152,0.944,5.645,0.864,7.118,0.953c3.677,0.219,8.062,0.465,11.724-0.028
		c3.377-0.455,6.907-0.166,7.932-3.674c1.537-5.256,0.008-11.533,0.451-16.951c0.175-2.138,0.692-5.124-0.969-6.215
		c-1.775-1.165-6.005-0.468-7.946-0.383C281.104,205.994,275.979,207.266,267.142,207.199z"/>
	<path style="fill:#BAAC91;" d="M315.148,206.707c-0.017,5.052-0.328,10.098-0.49,15.149c-0.064,2.006-1.282,6.948-0.227,8.832
		c0.978,1.748,4.129,1.335,5.942,1.562c3.539,0.442,7.364,1.034,10.913,1.003c1.46-0.012,3.888,0.135,4.794-0.931
		c0.997-1.173,1.044-5.168,0.98-6.617c-0.195-4.492-0.237-8.781-0.248-13.269c-0.004-1.681,0.711-5.221-0.784-5.987
		c-1.325-0.679-6.755,0.502-8.301,0.503C323.293,206.955,318.83,206.298,315.148,206.707z"/>
	<path style="fill:#BAAC91;" d="M358.23,209.169c-0.032,7.34-1.418,14.613-1.477,21.89c-0.017,2.013,0.038,3.444,1.958,3.911
		c0.622,0.151,3.044-0.626,3.731-0.696c1.816-0.186,3.613-0.429,5.433-0.684c2.866-0.401,8.596,0.156,9.79-2.263
		c0.996-2.017,0.115-5.309,0.004-7.433c-0.183-3.482-0.103-7.037-0.243-10.492c-0.08-1.978,0.555-4.863-1.189-5.714
		c-1.657-0.81-6.071,0.259-7.9,0.253C363.844,207.923,359.257,208.671,358.23,209.169z"/>
	<path style="fill:#BAAC91;" d="M402.791,208.923c2.724-0.001,5.277,0.617,7.98,0.499c2.478-0.109,4.918-0.536,7.253,0.284
		c-0.556,3.294,0.544,7.572,0.532,11.038c-0.014,4.322,0.502,8.807-0.047,13.009c-6.434,1.128-12.305-0.575-18.741-1.208
		c-1.156-0.113-2.702,0.448-3.397-0.475c-0.516-0.686,0.184-3.153,0.243-3.932c0.431-5.709-1.14-12.743,0.513-18.228
		c0.329,0.859,0.384-0.575,1.448-0.746C400.809,208.804,400.506,208.924,402.791,208.923z"/>
	<path style="fill:#BAAC91;" d="M441.441,210.4c1.69,4.762,0.29,10.263,0.246,15.25c-0.021,2.359-1.232,6.665,0.86,8.141
		c2.332,1.645,6.84,0.388,9.452,0.481c2.526,0.091,5.642,1.253,8.109,0.212c-0.284-6.26-0.511-13.496,0.283-19.666
		c0.387-3.009,1.067-4.967-2.376-5.156C451.643,209.311,445.353,211.323,441.441,210.4z"/>
</g>
<g>
	<path style="fill:#BAAF99;" d="M51.98,271.903c1.165,24.837-3.624,52.406-4.001,77.985c-0.251,17.106,1.444,34.043,0.572,51.048
		c-3.841,0.171-7.49,0.016-11.215-0.599c-5.57-0.92-5.666-0.03-6.025-7.62c-0.513-10.848-0.269-22.193,0.666-32.915
		c2.152-24.67,6.089-49.375,7.3-74.196C39.739,276.107,41.61,269.32,51.98,271.903z"/>
	<path style="fill:#BAAF99;" d="M107.823,272.815c0.219,7.893-0.536,16.313-1.144,24.195c-1.016,13.163-1.066,26.249-1.729,39.406
		c-0.699,13.859-2.077,28.335-0.905,42.167c0.39,4.602,3.648,17.656,0.302,21.397c-2.467,2.76-8.451,0.986-11.484,0.289
		c-9.846-2.259-4.189-17.758-3.644-24.318c0.536-6.47,1.017-12.966,1.591-19.454c1.059-11.97,2.058-23.947,3.303-35.904
		c1.198-11.506,0.831-23.446,2.585-34.875c0.389-2.536,0.328-9.995,1.55-12.072C99.581,271.378,106.252,270.568,107.823,272.815z"/>
	<path style="fill:#BAAF99;" d="M165.762,272.815c0.219,7.893-0.536,16.313-1.144,24.195c-1.016,13.163-1.066,26.249-1.729,39.406
		c-0.699,13.859-2.077,28.335-0.905,42.167c1.019,12.029,6.006,28.239-12.407,23.238c-9.038-2.454-2.919-19.818-2.417-25.869
		c0.536-6.469,1.017-12.966,1.591-19.454c1.059-11.97,2.058-23.947,3.303-35.904c1.198-11.507,0.831-23.446,2.585-34.875
		c0.389-2.536,0.328-9.995,1.55-12.072C157.522,271.378,164.191,270.568,165.762,272.815z"/>
	<path style="fill:#BAAF99;" d="M222.328,272.815c0.219,7.893-0.536,16.313-1.144,24.195c-1.016,13.163-1.065,26.249-1.729,39.406
		c-0.699,13.859-2.077,28.335-0.905,42.167c1.019,12.029,6.006,28.239-12.408,23.238c-9.038-2.454-2.919-19.818-2.417-25.869
		c0.536-6.469,1.017-12.966,1.591-19.454c1.059-11.97,2.058-23.947,3.303-35.904c1.198-11.507,0.831-23.446,2.585-34.875
		c0.389-2.536,0.328-9.995,1.55-12.072C214.088,271.378,220.759,270.568,222.328,272.815z"/>
	<path style="fill:#BAAF99;" d="M460.032,271.903c-1.165,24.837,3.624,52.406,4.001,77.985c0.251,17.106-1.444,34.043-0.572,51.048
		c3.841,0.171,7.49,0.016,11.215-0.599c5.57-0.92,5.666-0.03,6.025-7.62c0.513-10.848,0.269-22.193-0.666-32.915
		c-2.15-24.67-6.089-49.375-7.3-74.196C472.272,276.107,470.402,269.32,460.032,271.903z"/>
	<path style="fill:#BAAF99;" d="M404.189,272.815c-0.219,7.893,0.536,16.313,1.144,24.195c1.016,13.163,1.066,26.249,1.729,39.406
		c0.699,13.859,2.077,28.335,0.905,42.167c-0.39,4.602-3.648,17.656-0.304,21.397c2.467,2.76,8.451,0.986,11.484,0.289
		c9.846-2.259,4.189-17.758,3.644-24.318c-0.536-6.47-1.017-12.966-1.591-19.454c-1.059-11.97-2.058-23.947-3.303-35.904
		c-1.198-11.506-0.831-23.446-2.585-34.875c-0.389-2.536-0.328-9.995-1.549-12.072C412.429,271.378,405.76,270.568,404.189,272.815z
		"/>
	<path style="fill:#BAAF99;" d="M346.25,272.815c-0.219,7.893,0.536,16.313,1.144,24.195c1.016,13.163,1.065,26.249,1.729,39.406
		c0.699,13.859,2.077,28.335,0.905,42.167c-1.019,12.029-6.006,28.239,12.407,23.238c9.038-2.454,2.919-19.818,2.417-25.869
		c-0.536-6.469-1.017-12.966-1.591-19.454c-1.059-11.97-2.058-23.947-3.303-35.904c-1.198-11.507-0.831-23.446-2.586-34.875
		c-0.389-2.536-0.328-9.995-1.55-12.072C354.49,271.378,347.821,270.568,346.25,272.815z"/>
	<path style="fill:#BAAF99;" d="M289.682,272.815c-0.219,7.893,0.536,16.313,1.144,24.195c1.016,13.163,1.066,26.249,1.729,39.406
		c0.699,13.859,2.077,28.335,0.905,42.167c-1.019,12.029-6.006,28.239,12.407,23.238c9.038-2.454,2.919-19.818,2.417-25.869
		c-0.536-6.469-1.017-12.966-1.591-19.454c-1.059-11.97-2.058-23.947-3.303-35.904c-1.198-11.507-0.831-23.446-2.585-34.875
		c-0.389-2.536-0.328-9.995-1.549-12.072C297.924,271.378,291.253,270.568,289.682,272.815z"/>
</g>
<path d="M511.428,441.16c-0.178-2.161-0.268-5.63-2.053-7.198c-1.847-1.621-5.422-1.839-8.297-1.836
	c1.517-4.274-0.069-11.319-3.812-13.256c-1.337-0.692-3.061-1.067-4.855-1.275c0.656-0.953,1.099-2.183,1.254-3.794
	c0.554-5.75-0.301-12.204-6.715-13.233c-1.174-0.188-2.297-0.309-3.4-0.402c0.865-2.545,0.283-5.444,0.051-8.022
	c-0.351-3.899-0.575-7.839-0.959-11.746c-0.681-6.923-1.091-13.999-1.469-20.97c-0.812-14.975-3.688-29.819-4.145-44.824
	c-0.236-7.778-1.963-15.51-1.985-23.294c-0.017-5.697-0.355-12.488-1.552-18.277c3.139-1.637,5.477-5.069,7.278-7.965
	c0.107-0.173,0.171-0.369,0.218-0.568c0.602-0.195,1.172-0.445,1.674-0.812c2.381-1.74,2.654-5.301,1.537-8.124
	c0.281-0.089,0.564-0.189,0.844-0.307c6.731-2.825,4.59-14.118,1.024-18.916c-1.403-1.887-3.642-2.749-6.159-3.149
	c0.623-3.411,0.316-6.741,0.163-10.228c-0.126-2.867,0.489-6.122-0.01-9.024c1.112,0.019,2.178-0.053,3.099-0.307
	c5.409-1.486,6.047-8.875,4.407-13.343c0.774-0.164,1.354-0.541,1.948-1.175c0.412-0.441,0.719-1.928,1.078-2.26
	c0.217-0.202,0.34-0.333,0.408-0.42c0.039,0.074,0.217,0.137,0.77,0.069c4.225-0.523,6.664,3.091,10.45-0.513
	c2.032-1.934,5.695-7.782,4.438-10.722c-0.786-1.838-3.557-2.738-5.569-3.397c-0.02-3.924-1.557-7.582-0.648-11.72
	c0.825-3.759,3.019-6.297,5.226-9.343c2.129-2.938,7.242-8.035,4.776-11.932c-3.39-5.36-10.558-2.149-14.52,2.717
	c-0.002-0.28-0.022-0.558-0.082-0.829c-0.295-1.331-0.867-2.489-1.964-3.339c-1.777-1.378-4.31-1.414-6.047,0.058
	c-2.149,1.821-2.677,5.533-2.671,8.153c0.001,0.49,0.023,0.988,0.057,1.49c-1.903-1.481-4.29-2.109-6.601-0.549
	c-1.565,1.057-2.099,2.658-1.916,4.482c0.117,1.162,0.501,2.407,0.777,3.536c0.031,0.127,0.073,0.366,0.129,0.604
	c-1.666,1.259-1.749,3.883-0.957,6.089c-7.081-2.929-14.204-5.72-21.388-8.437c-21.379-8.086-42.63-16.499-64.022-24.598
	c-21.059-7.973-42.824-14.179-64.123-21.552c-5.785-2.003-11.687-3.608-17.417-5.763c-4.764-1.791-9.752-2.363-14.55-3.947
	c-5.646-1.865-11.046-3.662-16.865-4.901c-0.291-0.062-0.598-0.122-0.897-0.183c-0.014-0.03-0.021-0.06-0.038-0.09
	c-2.421-4.562-3.879-10.481-8.789-13.308c0.596-1.871,1.555-3.381,3.413-4.553c1.296-0.818,2.315-1.229,3.321-2.514
	c1.973-2.522,3.4-5.814,1.699-8.915c-1.187-2.163-3.568-2.99-5.966-2.532c-0.9,0.172-1.886,0.534-2.802,0.995
	c0.065-0.309,0.124-0.594,0.183-0.84c0.425-1.795,0.371-3.834-0.366-5.546c-0.737-1.713-1.769-1.951-3.264-2.808
	c-1.603-0.92-0.568,0.666-1.171-1.31c-0.201-0.656-0.145-1.347-0.432-1.996c-0.612-1.387-2.056-2.467-3.463-2.921
	c-1.284-0.414-2.391-0.349-3.323,0.08c-2.132-0.025-3.923,1.787-4.917,3.628c-0.943,1.746-0.718,3.642-2.605,4.33
	c-0.972,0.355-1.615,0.186-2.407,1.058c-0.759,0.835-0.873,3.502-0.489,5.943c-0.421-0.251-0.865-0.495-1.347-0.727
	c-2.52-1.212-6.57-1.112-8.257,1.46c-1.686,2.57-1.367,7.003,0.609,9.303c1.624,1.89,4.062,1.984,5.956,3.283
	c2.291,1.569,1.464,3.684,0.489,5.661c-1.203,0.748-2.297,1.87-3.342,3.632c-1.562,2.63-3.345,5.599-4.557,8.51
	c-0.608,0.12-1.226,0.238-1.808,0.361c-5.82,1.24-11.22,3.037-16.865,4.901c-4.798,1.584-9.786,2.156-14.55,3.947
	c-5.73,2.155-11.632,3.76-17.417,5.763c-21.299,7.373-43.066,13.578-64.123,21.552c-21.392,8.1-42.644,16.512-64.022,24.598
	c-7.184,2.717-14.307,5.507-21.388,8.437c0.792-2.206,0.709-4.83-0.957-6.089c0.054-0.237,0.097-0.475,0.129-0.604
	c0.275-1.129,0.659-2.373,0.777-3.536c0.184-1.824-0.35-3.426-1.916-4.483c-2.311-1.559-4.699-0.932-6.601,0.55
	c0.033-0.501,0.055-1,0.057-1.49c0.004-2.62-0.523-6.332-2.671-8.153c-1.737-1.472-4.27-1.436-6.047-0.058
	c-1.097,0.85-1.67,2.009-1.964,3.339c-0.06,0.27-0.08,0.548-0.082,0.829c-3.962-4.866-11.13-8.076-14.52-2.717
	c-2.465,3.898,2.648,8.994,4.777,11.932c2.207,3.046,4.401,5.584,5.226,9.343c0.908,4.138-0.628,7.795-0.648,11.72
	c-2.012,0.659-4.784,1.559-5.569,3.397c-1.256,2.94,2.405,8.787,4.438,10.722c3.786,3.604,6.224-0.01,10.45,0.513
	c0.553,0.069,0.73,0.004,0.77-0.069c0.068,0.086,0.191,0.218,0.408,0.42c0.359,0.331,0.665,1.819,1.078,2.26
	c0.594,0.635,1.172,1.011,1.948,1.175c-1.64,4.468-1.002,11.857,4.407,13.343c0.921,0.253,1.986,0.325,3.099,0.307
	c-0.499,2.902,0.115,6.158-0.01,9.024c-0.153,3.487-0.46,6.818,0.163,10.228c-2.517,0.399-4.756,1.262-6.159,3.149
	c-3.566,4.798-5.708,16.091,1.024,18.916c0.281,0.117,0.563,0.218,0.844,0.307c-1.118,2.824-0.844,6.384,1.537,8.124
	c0.502,0.367,1.072,0.617,1.674,0.812c0.047,0.199,0.111,0.396,0.218,0.568c1.8,2.896,4.139,6.327,7.278,7.965
	c-1.198,5.789-1.537,12.58-1.552,18.277c-0.022,7.784-1.749,15.515-1.985,23.294c-0.456,15.005-3.333,29.848-4.145,44.824
	c-0.378,6.971-0.788,14.047-1.469,20.97c-0.384,3.906-0.608,7.847-0.959,11.746c-0.233,2.578-0.814,5.477,0.051,8.022
	c-1.103,0.093-2.226,0.214-3.4,0.402c-6.414,1.028-7.269,7.483-6.715,13.233c0.155,1.612,0.598,2.842,1.254,3.794
	c-1.794,0.208-3.516,0.583-4.855,1.275c-3.744,1.937-5.33,8.982-3.812,13.256c-2.875-0.003-6.45,0.215-8.297,1.836
	c-1.786,1.568-1.875,5.036-2.054,7.198c-0.281,3.405-1.384,7.47,0.584,10.54c3.531,5.511,15.159,4.271,20.818,4.573
	c10.413,0.557,20.956-0.05,31.372-0.23c18.751-0.325,37.561-1.657,56.299-2.176c10.342-0.286,20.713-0.045,31.056-0.306
	c10.893-0.275,22.171-0.275,33.039,0.425c10.769,0.694,21.578,0.346,32.365,0.738c4.189,0.153,8.389,0.349,12.587,0.28
	c3.886,0.779,8.246,0.376,11.992,0.546c8.64,0.393,17.306,0.534,25.95,1.02c7.756,0.437,15.779-0.335,23.557-0.802
	c3.678-0.222,7.272-0.477,10.846-0.846c4.961,0.211,9.927-0.019,14.877-0.199c10.786-0.392,21.597-0.045,32.365-0.738
	c10.868-0.699,22.147-0.7,33.039-0.425c10.342,0.26,20.714,0.02,31.056,0.306c18.739,0.518,37.548,1.85,56.299,2.176
	c10.416,0.181,20.959,0.788,31.372,0.23c5.659-0.302,17.289,0.937,20.818-4.573C512.81,448.63,511.709,444.565,511.428,441.16z
	 M475.24,350.063c1.637,13.342,1.912,26.989,2.967,40.399c0.193,2.457,1.358,7.28-1.295,8.424c-1.043,0.45-2.965,0.304-4.532,0.233
	c-3.653-0.434-7.428-0.572-10.679-0.546c-3.439,0.028-6.887,0.125-10.334,0.198c-0.135-0.029-0.281-0.053-0.396-0.093
	c-3.916-1.367-2.268-5.831-2.299-9.277c-0.03-3.458-0.018-6.919-0.091-10.375c-0.123-5.776,0.782-11.569,0.7-17.355
	c-0.082-5.811,0.153-11.816,0.471-17.632c0.695-12.713,0.515-25.375,1.747-38.072c0.586-6.039,1.328-12.015,1.906-18.055
	c0.397-4.15,0.963-8.71,0.577-13.011c2.784,0.342,5.888,0.101,9.191-0.12c1.897-0.126,4.046-0.174,6.089-0.478
	c0.105,5.373,1.088,10.586,1.322,16.014c0.301,6.979,0.814,13.973,1.367,20.942C472.976,324.185,473.658,337.175,475.24,350.063z
	 M443.33,398.849c-2.116-0.017-4.231-0.071-6.342-0.188c-3.295-0.184-6.597-0.326-9.906-0.437c0.194-2.017-0.181-4.141-0.356-6.082
	c-0.351-3.899-0.574-7.839-0.959-11.746c-0.681-6.923-1.091-13.999-1.469-20.97c-0.812-14.975-3.688-29.819-4.145-44.824
	c-0.236-7.778-1.963-15.51-1.985-23.294c-0.017-5.697-0.355-12.488-1.552-18.277c3.139-1.637,5.477-5.069,7.278-7.965
	c0.107-0.173,0.171-0.369,0.218-0.568c0.602-0.195,1.172-0.445,1.674-0.812c2.061-1.507,2.536-4.375,1.904-6.951
	c3.647,0.06,7.274,0.008,10.935-0.133c-0.843,3.508,0.623,7.822,4.053,9.188c0.388,0.154,0.8,0.255,1.222,0.333
	c0.006,0.394,0.076,0.801,0.27,1.249c1.431,3.304,3.333,5.241,5.586,6.35c-1.518,4.764-1.09,10.416-1.52,15.246
	c-0.609,6.843-1.77,13.642-2.322,20.5c-1.103,13.715-1.615,27.589-1.663,41.348c-0.048,14.2-1.209,28.287-1.344,42.538
	C442.889,395.245,442.926,397.159,443.33,398.849z M370.151,394.998c1.957,0.263,4.345-0.137,5.796-0.284
	c1.209-0.122,2.477-0.145,3.76-0.162c1.817,0.076,3.662,0.069,5.425-0.299c0.304-0.044,0.607-0.088,0.904-0.148
	c0.001,1.685,0.073,3.364,0.449,4.86c-5.438,0.148-10.898,0.033-16.361-0.141C370.322,397.577,370.268,396.278,370.151,394.998z
	 M386.094,390.287c-0.474-0.023-0.954,0.055-1.594,0.079c-0.332,0.012-0.667,0.006-1,0.006c-0.573-0.032-1.15-0.043-1.731-0.04
	c-1.332-0.063-2.663-0.177-3.973-0.293c-1.649-0.145-4.336-0.429-6.229,0.3c-0.635-0.027-1.26-0.016-1.846,0.091
	c-0.274-3.339-0.494-6.696-0.823-10.033c-0.681-6.923-1.091-13.999-1.469-20.97c-0.812-14.975-3.688-29.819-4.143-44.824
	c-0.236-7.778-1.963-15.51-1.985-23.294c-0.017-5.697-0.355-12.488-1.552-18.277c3.139-1.637,5.477-5.069,7.278-7.965
	c0.107-0.173,0.171-0.369,0.218-0.568c0.602-0.195,1.172-0.445,1.674-0.812c2.001-1.462,2.51-4.21,1.961-6.726
	c2.332-0.145,4.661-0.276,6.982-0.322c1.301-0.027,2.604-0.052,3.906-0.078c-0.864,3.515,0.599,7.857,4.042,9.229
	c0.388,0.154,0.8,0.255,1.222,0.333c0.006,0.394,0.076,0.801,0.27,1.249c1.431,3.304,3.333,5.241,5.586,6.35
	c-1.518,4.764-1.09,10.416-1.521,15.246c-0.609,6.843-1.77,13.642-2.322,20.5c-1.103,13.715-1.615,27.589-1.662,41.348
	C387.336,363.996,386.346,377.08,386.094,390.287z M313.193,394.115c2.46,0.386,5.162,0.003,7.555-0.178
	c2.777-0.211,5.636,0.009,8.418-0.311c-0.011,1.686,0.03,3.383,0.351,4.915c-2.78,0.045-5.56,0.088-8.335,0.154
	c-2.492,0.06-5.174-0.02-7.9-0.048C313.486,397.165,313.356,395.617,313.193,394.115z M329.238,389.206
	c-2.623-0.401-5.81-0.052-7.883,0.061c-2.673,0.146-5.835-0.185-8.568,0.381c-0.244-3.082-0.458-6.174-0.76-9.251
	c-0.681-6.923-1.091-13.999-1.469-20.97c-0.812-14.975-3.688-29.819-4.145-44.824c-0.236-7.778-1.963-15.51-1.985-23.294
	c-0.017-5.697-0.355-12.488-1.552-18.277c3.139-1.637,5.477-5.069,7.278-7.965c0.107-0.173,0.171-0.369,0.218-0.568
	c0.602-0.195,1.172-0.445,1.674-0.812c2.052-1.5,2.533-4.35,1.913-6.915c1.481,0.065,2.968,0.109,4.471,0.12
	c2.124,0.014,4.233,0.138,6.34,0.27c-0.569,3.395,0.916,7.335,4.166,8.629c0.388,0.154,0.8,0.255,1.222,0.333
	c0.006,0.394,0.076,0.801,0.27,1.249c1.431,3.304,3.333,5.241,5.586,6.35c-1.518,4.764-1.09,10.416-1.521,15.246
	c-0.609,6.843-1.77,13.642-2.322,20.5c-1.103,13.715-1.615,27.589-1.662,41.348C330.466,363.637,329.523,376.365,329.238,389.206z
	 M253.812,308.212c0.195,3.388,0.283,6.813,0.332,10.245c-0.448,0-0.897-0.007-1.344-0.002c-3.327,0.034-6.594-0.296-9.912-0.462
	c-0.476-0.024-3.917,0.075-5.586,0.434c-0.185-2.991-0.384-5.979-0.625-8.957c-0.472-5.864-1.37-11.685-2.007-17.527
	c0.828,0.025,1.702-0.047,2.673-0.071c5.028-0.123,9.977,0.594,14.966,0.36c0.403-0.019,0.81-0.03,1.216-0.04
	c-0.002,1.668,0.194,3.395,0.284,4.823C254.044,300.757,253.594,304.441,253.812,308.212z M242.287,322.442
	c2.923,0.28,5.844,0.655,8.795,0.766c1.037,0.039,2.073,0.047,3.11,0.068c0.011,3.33,0.002,6.657-0.002,9.953
	c-0.006,3.922-0.016,7.845-0.023,11.767c-5.214,0.05-10.878,0.12-15.87,1.235c-0.092-8.048-0.347-16.121-0.787-24.172
	C239.049,322.371,240.702,322.291,242.287,322.442z M254.326,391.17c-2.36,0.062-4.716,0.121-7.093,0.259
	c-2.64,0.154-5.166-0.099-7.572,0.551c-0.072-5.133-0.267-10.246-0.486-15.351c0.789,0.074,1.594,0.093,2.52,0.105
	c4.069,0.053,8.189,0.531,12.237,0.449c0.058-0.001,0.116-0.001,0.174-0.002c-0.001,0.338-0.001,0.676-0.002,1.014
	C254.096,382.44,253.511,386.974,254.326,391.17z M254.157,349.912c-0.009,4.522-0.017,9.045-0.027,13.567
	c-0.006,2.833-0.011,5.667-0.016,8.5c-0.317,0.008-0.634,0.01-0.949,0.02c-4.903,0.157-9.533-0.107-14.155,0.828
	c-0.322-7.332-0.643-14.655-0.668-22.008c-0.001-0.474-0.011-0.951-0.014-1.425C243.51,350.486,248.878,350.009,254.157,349.912z
	 M239.676,395.228c2.402,0.682,5.03,0.576,7.558,0.503c3.872-0.112,7.651,0.073,11.49-0.258c3.043-0.263,9.618,1.286,13.592,0.102
	c0.04,1.213,0.151,2.432,0.482,3.556c-1.861,0.028-3.718,0.093-5.543,0.103c-6.584,0.035-13.169,0.072-19.754,0.107
	c-2.796,0.016-5.595,0.032-8.393,0.034C239.531,398.08,239.646,396.644,239.676,395.228z M272.335,390.993
	c-1.169-0.153-2.412-0.083-3.495-0.074c-3.244,0.023-6.492,0.021-9.731,0.117c0.548-4.537,0.626-9.222,0.559-13.922
	c2.354-0.02,4.711-0.042,7.058-0.098c2.083-0.049,4.184,0.072,6.082-0.461C272.604,381.359,272.417,386.167,272.335,390.993z
	 M271.25,371.495c-1.472-0.068-3.043,0.309-4.523,0.346c-2.393,0.058-4.783,0.06-7.172,0.069c-0.103-3.569-0.226-7.119-0.233-10.59
	c-0.007-3.786-0.014-7.57-0.021-11.356c4.779,0.136,9.639,0.359,14.346-0.222c-0.001,0.359-0.009,0.718-0.01,1.076
	c-0.023,6.932-0.309,13.836-0.612,20.747C272.342,371.49,271.435,371.503,271.25,371.495z M267.827,344.966
	c-2.802,0.175-5.687,0.052-8.534,0.009c-0.009-4.995-0.016-9.991-0.028-14.987c-0.006-2.202-0.012-4.43-0.034-6.666
	c5.077-0.02,10.147-0.206,15.201-0.525c-0.394,7.397-0.637,14.812-0.739,22.209C271.597,344.391,270.128,344.822,267.827,344.966z
	 M266.701,318.401c-2.502,0.126-5.024,0.116-7.547,0.09c-0.095-3.891-0.28-7.776-0.646-11.574
	c-0.427-4.437,0.705-10.045-0.442-14.696c6.407,0.198,13.026,0.881,19.221-0.086c-0.636,5.778-1.52,11.535-1.986,17.335
	c-0.234,2.897-0.425,5.804-0.607,8.714C271.975,317.92,269.432,318.263,266.701,318.401z M276.706,286.753
	c-3.213,0.517-6.95,0.002-10.205-0.014c-4.096-0.021-8.13,0.152-12.196,0.082c-4.059-0.07-8.242,0.069-12.321,0.137
	c-2.436,0.04-5.199,0.645-7.711,0.803c-0.284-4.548-0.044-9.664-1.438-14.038c2.255-1.108,4.156-3.046,5.586-6.35
	c0.194-0.448,0.265-0.854,0.27-1.249c0.422-0.079,0.834-0.179,1.222-0.333c3.791-1.51,5.185-6.623,3.706-10.266
	c2.523,0.025,5.045,0.05,7.567,0.053c5.708,0.008,11.438,0.109,17.15-0.001c-1.445,3.639-0.049,8.711,3.726,10.215
	c0.388,0.154,0.8,0.255,1.222,0.333c0.006,0.394,0.076,0.801,0.27,1.249c1.431,3.304,3.331,5.241,5.586,6.35
	c-1.293,4.06-1.177,8.762-1.379,13.054C277.436,286.711,277.085,286.692,276.706,286.753z M198.698,398.645
	c-2.727,0.028-5.409,0.109-7.9,0.048c-2.774-0.066-5.555-0.109-8.335-0.154c0.321-1.531,0.362-3.228,0.351-4.915
	c2.782,0.32,5.64,0.101,8.418,0.311c2.392,0.182,5.094,0.564,7.555,0.178C198.624,395.617,198.492,397.165,198.698,398.645z
	 M190.623,389.267c-2.073-0.113-5.259-0.462-7.883-0.061c-0.284-12.84-1.226-25.569-1.271-38.389
	c-0.048-13.76-0.559-27.635-1.663-41.348c-0.552-6.859-1.713-13.657-2.322-20.5c-0.43-4.829-0.003-10.482-1.521-15.246
	c2.255-1.108,4.156-3.046,5.587-6.35c0.194-0.448,0.265-0.854,0.27-1.249c0.422-0.079,0.834-0.179,1.222-0.333
	c3.249-1.294,4.735-5.235,4.166-8.629c2.107-0.132,4.217-0.255,6.34-0.27c1.503-0.01,2.99-0.054,4.471-0.12
	c-0.619,2.567-0.138,5.416,1.913,6.915c0.502,0.367,1.072,0.617,1.674,0.812c0.048,0.199,0.111,0.396,0.218,0.568
	c1.8,2.896,4.139,6.327,7.278,7.965c-1.198,5.789-1.537,12.58-1.552,18.277c-0.022,7.784-1.749,15.515-1.985,23.294
	c-0.456,15.005-3.333,29.848-4.145,44.824c-0.378,6.971-0.788,14.047-1.469,20.97c-0.302,3.077-0.516,6.17-0.76,9.251
	C196.458,389.082,193.296,389.413,190.623,389.267z M141.854,398.823c-5.463,0.174-10.924,0.289-16.361,0.141
	c0.374-1.496,0.446-3.175,0.449-4.86c0.297,0.061,0.6,0.104,0.904,0.148c1.764,0.368,3.608,0.376,5.425,0.299
	c1.284,0.017,2.551,0.04,3.76,0.162c1.45,0.146,3.839,0.546,5.796,0.284C141.711,396.278,141.657,397.577,141.854,398.823z
	 M140.413,390.339c-1.892-0.73-4.58-0.446-6.229-0.3c-1.31,0.115-2.641,0.229-3.973,0.293c-0.579-0.002-1.158,0.008-1.731,0.04
	c-0.333,0-0.668,0.006-1-0.006c-0.641-0.023-1.12-0.102-1.594-0.079c-0.253-13.207-1.242-26.29-1.287-39.47
	c-0.047-13.76-0.559-27.635-1.662-41.348c-0.552-6.859-1.713-13.657-2.322-20.5c-0.43-4.829-0.003-10.482-1.521-15.246
	c2.255-1.108,4.156-3.046,5.586-6.35c0.194-0.448,0.265-0.854,0.27-1.249c0.422-0.079,0.834-0.179,1.222-0.333
	c3.443-1.372,4.906-5.713,4.042-9.229c1.303,0.025,2.607,0.051,3.906,0.078c2.32,0.047,4.65,0.178,6.982,0.322
	c-0.55,2.516-0.04,5.264,1.961,6.726c0.502,0.367,1.072,0.617,1.674,0.812c0.047,0.199,0.111,0.396,0.218,0.568
	c1.8,2.896,4.139,6.327,7.278,7.965c-1.198,5.789-1.537,12.58-1.552,18.277c-0.022,7.784-1.749,15.515-1.985,23.294
	c-0.456,15.005-3.333,29.848-4.143,44.824c-0.378,6.971-0.788,14.047-1.469,20.97c-0.329,3.337-0.55,6.694-0.823,10.033
	C141.672,390.324,141.047,390.313,140.413,390.339z M84.895,398.224c-3.308,0.11-6.611,0.253-9.906,0.437
	c-2.111,0.117-4.224,0.172-6.342,0.188c0.403-1.691,0.441-3.605,0.423-5.493c-0.136-14.252-1.296-28.339-1.344-42.538
	c-0.047-13.76-0.559-27.635-1.662-41.348c-0.552-6.859-1.713-13.657-2.322-20.5c-0.43-4.829-0.003-10.482-1.521-15.246
	c2.255-1.108,4.156-3.046,5.586-6.35c0.194-0.448,0.265-0.854,0.27-1.249c0.422-0.079,0.834-0.179,1.222-0.333
	c3.429-1.366,4.895-5.679,4.053-9.188c3.659,0.141,7.287,0.193,10.935,0.133c-0.633,2.576-0.157,5.445,1.903,6.951
	c0.502,0.367,1.072,0.617,1.674,0.812c0.047,0.199,0.111,0.396,0.218,0.568c1.8,2.896,4.139,6.327,7.278,7.965
	c-1.198,5.789-1.537,12.58-1.552,18.277c-0.022,7.784-1.749,15.515-1.985,23.294c-0.456,15.005-3.333,29.848-4.145,44.824
	c-0.378,6.971-0.788,14.047-1.469,20.97c-0.384,3.906-0.608,7.847-0.959,11.746C85.076,394.084,84.701,396.206,84.895,398.224z
	 M116.183,261.121c-4.519,0.006-9.043-0.098-13.543-0.401c-1.815-0.122-3.617-0.212-5.431-0.306
	c-0.908-0.048-5.646,0.069-6.36-0.363c-2.859-1.726-2.074-2.82-0.431-3.484c10.805-0.36,21.688-0.31,32.515-0.135
	c2.411,0.951,4.561,2.733,0.733,4.755C122.249,261.934,117.853,261.119,116.183,261.121z M119.599,266.143
	c-0.201,0.299-0.417,0.602-0.669,0.902c-2.204,2.618-4.617,2.881-7.67,2.69c-3.103-0.194-6.401-0.039-9.47-0.591
	c-2.803-0.504-5.046-1.517-7.16-3.406c-0.208-0.186-0.409-0.407-0.608-0.638c0.347,0.012,0.687,0.028,1.011,0.055
	c3.345,0.28,6.757,0.439,10.111,0.569c4.382,0.171,8.71,0.358,13.11,0.368C118.686,266.094,119.139,266.116,119.599,266.143z
	 M90.643,390.462c1.055-13.41,1.329-27.057,2.967-40.399c1.582-12.889,2.263-25.878,3.289-38.803
	c0.553-6.97,1.066-13.965,1.367-20.942c0.235-5.429,1.216-10.641,1.322-16.014c2.043,0.304,4.192,0.351,6.089,0.478
	c3.303,0.22,6.407,0.462,9.191,0.12c-0.386,4.301,0.182,8.861,0.577,13.011c0.577,6.04,1.319,12.016,1.906,18.055
	c1.232,12.697,1.052,25.359,1.747,38.072c0.318,5.818,0.553,11.821,0.471,17.632c-0.082,5.786,0.823,11.578,0.7,17.355
	c-0.073,3.457-0.061,6.918-0.091,10.375c-0.03,3.391,1.553,7.76-2.126,9.202c-9.006-0.552-18.065-0.704-27.109-0.538
	C89.644,396.244,90.481,392.525,90.643,390.462z M173.054,261.121c-4.519,0.006-9.043-0.098-13.543-0.401
	c-1.815-0.122-3.617-0.212-5.431-0.306c-0.908-0.048-5.646,0.069-6.36-0.363c-2.019-1.219-2.217-2.12-1.585-2.781
	c2.715,0.154,5.428,0.265,8.125,0.223c6.995-0.111,14.026-0.715,21.007-0.133c2.155,0.179,4.297,0.175,6.437,0.099
	c1.256,0.982,1.547,2.294-1.165,3.727C179.121,261.934,174.724,261.119,173.054,261.121z M176.471,266.143
	c-0.201,0.299-0.417,0.602-0.669,0.902c-2.204,2.618-4.617,2.881-7.67,2.69c-3.103-0.194-6.401-0.039-9.47-0.591
	c-2.803-0.504-5.046-1.517-7.16-3.406c-0.208-0.186-0.409-0.407-0.608-0.638c0.347,0.012,0.687,0.028,1.011,0.055
	c3.345,0.28,6.757,0.439,10.111,0.569c4.382,0.171,8.71,0.358,13.11,0.368C175.557,266.094,176.01,266.116,176.471,266.143z
	 M147.515,390.462c1.055-13.41,1.329-27.057,2.967-40.399c1.582-12.889,2.263-25.878,3.289-38.803
	c0.553-6.97,1.066-13.965,1.367-20.942c0.235-5.429,1.216-10.641,1.322-16.014c2.043,0.304,4.192,0.351,6.089,0.478
	c3.303,0.22,6.407,0.462,9.191,0.12c-0.386,4.301,0.182,8.861,0.577,13.011c0.576,6.04,1.319,12.016,1.906,18.055
	c1.232,12.697,1.052,25.359,1.747,38.072c0.318,5.818,0.553,11.821,0.471,17.632c-0.082,5.786,0.823,11.578,0.7,17.355
	c-0.073,3.457-0.061,6.918-0.091,10.375c-0.029,3.257,1.436,7.419-1.709,9.021c-3.084-0.042-6.17-0.082-9.246-0.127
	c-5.901-0.086-11.83,0.102-17.766,0.309C146.312,397.103,147.335,392.755,147.515,390.462z M229.926,261.121
	c-4.519,0.006-9.043-0.098-13.543-0.401c-1.815-0.122-3.617-0.212-5.431-0.306c-0.908-0.048-5.646,0.069-6.36-0.363
	c-3.436-2.074-1.612-3.234,0.64-3.837c1.479-0.157,2.962-0.341,4.446-0.555c2.129,0.018,4.22,0.384,6.337,0.394
	c1.709,0.009,3.478-0.064,5.252-0.163c4.19-0.009,8.403-0.479,12.584-0.179c2.231,0.16,9.051,2.573,3.557,5.474
	C235.992,261.934,231.596,261.119,229.926,261.121z M233.342,266.143c-0.201,0.299-0.417,0.602-0.669,0.902
	c-2.204,2.618-4.617,2.881-7.67,2.69c-3.103-0.194-6.401-0.039-9.47-0.591c-2.803-0.504-5.046-1.517-7.16-3.406
	c-0.208-0.186-0.409-0.407-0.608-0.638c0.348,0.012,0.687,0.028,1.011,0.055c3.345,0.28,6.757,0.439,10.111,0.569
	c4.382,0.171,8.71,0.358,13.11,0.368C232.429,266.094,232.882,266.116,233.342,266.143z M204.386,390.462
	c1.055-13.41,1.329-27.057,2.967-40.399c1.582-12.889,2.263-25.878,3.289-38.803c0.553-6.97,1.066-13.965,1.367-20.942
	c0.234-5.429,1.216-10.641,1.322-16.014c2.043,0.304,4.192,0.351,6.089,0.478c3.303,0.22,6.407,0.462,9.191,0.12
	c-0.386,4.301,0.182,8.861,0.577,13.011c0.577,6.04,1.319,12.016,1.906,18.055c1.231,12.697,1.052,25.359,1.747,38.072
	c0.318,5.818,0.553,11.821,0.471,17.632c-0.082,5.786,0.823,11.578,0.7,17.355c-0.073,3.457-0.061,6.918-0.091,10.375
	c-0.031,3.447,1.618,7.91-2.299,9.277c-1.552,0.542-5.173,0.027-6.996,0.23c-2.495,0.278-4.994,0.481-7.506,0.464
	c-1.852-0.012-3.59-0.168-5.431-0.273c-0.732-0.041-1.781,0.04-2.835,0.079c-1.086-0.172-2.196-0.292-3.318-0.376
	C203.084,397.541,204.197,392.871,204.386,390.462z M301.027,260.413c-1.815,0.094-3.617,0.184-5.431,0.306
	c-4.501,0.304-9.024,0.407-13.543,0.401c-1.67-0.002-6.066,0.813-7.484,0.064c-5.494-2.902,1.326-5.315,3.557-5.474
	c4.181-0.299,8.394,0.171,12.584,0.179c1.775,0.1,3.543,0.172,5.252,0.163c2.117-0.01,4.208-0.378,6.337-0.394
	c1.483,0.214,2.966,0.399,4.446,0.555c2.252,0.603,4.075,1.763,0.64,3.837C306.673,260.482,301.935,260.366,301.027,260.413z
	 M304.213,265.102c-0.199,0.232-0.4,0.452-0.608,0.638c-2.113,1.889-4.357,2.902-7.16,3.406c-3.069,0.552-6.367,0.396-9.47,0.59
	c-3.053,0.192-5.466-0.072-7.67-2.69c-0.253-0.3-0.468-0.603-0.669-0.902c0.46-0.027,0.913-0.049,1.345-0.05
	c4.399-0.01,8.729-0.198,13.11-0.368c3.354-0.131,6.766-0.289,10.111-0.569C303.526,265.129,303.867,265.113,304.213,265.102z
	 M278.057,389.402c-0.03-3.458-0.018-6.919-0.091-10.375c-0.123-5.777,0.782-11.569,0.7-17.355
	c-0.082-5.811,0.153-11.816,0.471-17.632c0.695-12.713,0.515-25.375,1.747-38.072c0.586-6.039,1.328-12.015,1.906-18.055
	c0.397-4.15,0.963-8.71,0.577-13.011c2.784,0.342,5.888,0.101,9.191-0.12c1.897-0.126,4.046-0.174,6.089-0.477
	c0.105,5.373,1.088,10.586,1.322,16.014c0.301,6.979,0.814,13.973,1.367,20.942c1.026,12.925,1.707,25.915,3.289,38.803
	c1.637,13.342,1.912,26.989,2.967,40.399c0.189,2.409,1.302,7.078-1.15,8.342c-1.122,0.083-2.232,0.203-3.318,0.376
	c-1.054-0.039-2.103-0.12-2.835-0.079c-1.841,0.104-3.578,0.259-5.431,0.273c-2.513,0.017-5.012-0.186-7.506-0.464
	c-1.825-0.204-5.445,0.311-6.996-0.23C276.44,397.312,278.088,392.848,278.057,389.402z M357.898,260.413
	c-1.815,0.094-3.617,0.184-5.431,0.306c-4.501,0.304-9.024,0.407-13.543,0.401c-1.67-0.002-6.066,0.813-7.484,0.064
	c-2.712-1.432-2.422-2.745-1.165-3.727c2.139,0.076,4.282,0.081,6.437-0.099c6.982-0.583,14.011,0.022,21.007,0.133
	c2.698,0.042,5.41-0.069,8.125-0.223c0.632,0.66,0.433,1.562-1.585,2.781C363.545,260.482,358.807,260.366,357.898,260.413z
	 M361.084,265.102c-0.199,0.232-0.4,0.452-0.608,0.638c-2.113,1.889-4.357,2.902-7.16,3.406c-3.069,0.552-6.367,0.396-9.47,0.59
	c-3.053,0.192-5.466-0.072-7.67-2.69c-0.253-0.3-0.468-0.603-0.669-0.902c0.46-0.027,0.913-0.049,1.345-0.05
	c4.399-0.01,8.729-0.198,13.11-0.368c3.354-0.131,6.766-0.289,10.111-0.569C360.399,265.129,360.738,265.113,361.084,265.102z
	 M334.837,379.026c-0.123-5.777,0.782-11.569,0.7-17.355c-0.082-5.811,0.153-11.816,0.471-17.632
	c0.695-12.713,0.515-25.375,1.747-38.072c0.586-6.039,1.328-12.015,1.906-18.055c0.397-4.15,0.963-8.71,0.578-13.011
	c2.784,0.342,5.888,0.101,9.191-0.12c1.897-0.126,4.046-0.174,6.089-0.477c0.105,5.373,1.088,10.586,1.322,16.014
	c0.301,6.979,0.814,13.973,1.367,20.942c1.026,12.925,1.707,25.915,3.289,38.803c1.637,13.342,1.912,26.989,2.967,40.399
	c0.181,2.292,1.203,6.641-0.814,8.143c-5.935-0.208-11.865-0.396-17.766-0.309c-3.077,0.045-6.162,0.085-9.246,0.127
	c-3.144-1.602-1.681-5.763-1.709-9.022C334.898,385.944,334.912,382.483,334.837,379.026z M414.77,260.413
	c-1.815,0.094-3.617,0.184-5.431,0.306c-4.501,0.304-9.024,0.407-13.543,0.401c-1.67-0.002-6.066,0.813-7.484,0.064
	c-3.828-2.022-1.677-3.804,0.733-4.755c10.827-0.175,21.71-0.225,32.515,0.135c1.643,0.666,2.43,1.758-0.431,3.484
	C420.416,260.482,415.678,260.366,414.77,260.413z M417.956,265.102c-0.199,0.232-0.4,0.452-0.608,0.638
	c-2.113,1.889-4.357,2.902-7.16,3.406c-3.069,0.552-6.367,0.396-9.47,0.59c-3.053,0.192-5.466-0.072-7.67-2.69
	c-0.253-0.3-0.468-0.603-0.669-0.902c0.46-0.027,0.913-0.049,1.345-0.05c4.399-0.01,8.729-0.198,13.111-0.368
	c3.354-0.131,6.766-0.289,10.111-0.569C417.27,265.129,417.609,265.113,417.956,265.102z M391.71,379.026
	c-0.123-5.777,0.782-11.569,0.7-17.355c-0.082-5.811,0.153-11.816,0.471-17.632c0.695-12.713,0.515-25.375,1.747-38.072
	c0.586-6.039,1.328-12.015,1.906-18.055c0.397-4.15,0.963-8.71,0.578-13.011c2.784,0.342,5.888,0.101,9.191-0.12
	c1.897-0.126,4.046-0.174,6.089-0.477c0.105,5.373,1.088,10.586,1.322,16.014c0.301,6.979,0.814,13.973,1.367,20.942
	c1.026,12.925,1.707,25.915,3.289,38.803c1.637,13.342,1.912,26.989,2.967,40.399c0.162,2.063,0.999,5.782-0.3,7.603
	c-9.044-0.166-18.104-0.013-27.109,0.538c-3.679-1.442-2.096-5.811-2.126-9.202C391.769,385.944,391.783,382.483,391.71,379.026z
	 M474.219,265.739c-2.113,1.889-4.357,2.902-7.16,3.406c-3.069,0.552-6.367,0.396-9.47,0.59c-3.053,0.192-5.466-0.072-7.67-2.69
	c-0.253-0.3-0.468-0.603-0.669-0.902c0.46-0.027,0.913-0.049,1.345-0.05c4.399-0.01,8.729-0.198,13.11-0.368
	c3.354-0.131,6.766-0.289,10.111-0.569c0.325-0.027,0.664-0.043,1.011-0.055C474.628,265.333,474.428,265.553,474.219,265.739z
	 M478.002,260.051c-0.715,0.431-5.452,0.316-6.36,0.363c-1.815,0.094-3.617,0.184-5.431,0.306
	c-4.501,0.304-9.024,0.407-13.543,0.401c-1.67-0.002-6.066,0.813-7.484,0.064c-3.913-2.067-1.579-3.885,0.895-4.818
	c2.914-0.025,6.117-0.075,8.951-0.682c2.101,0.081,4.202,0.201,6.297,0.205c1.775,0.1,3.543,0.172,5.252,0.163
	c2.42-0.012,4.8-0.52,7.25-0.4C475.346,255.728,483.562,256.694,478.002,260.051z M486.384,195.768
	c-0.636,0.324-4.511-1.393-5.334-1.64c-0.101-0.03-0.195-0.054-0.294-0.083c-4.849-2.456-9.849-4.562-14.92-6.507
	c0.007-0.035,0.012-0.069,0.019-0.104c0.09-0.473,0.33-0.893,0.424-1.368c0.035-0.179,0.039-0.357,0.049-0.535
	c2.108,0.859,4.219,1.697,6.33,2.497c4.254,1.612,8.271,3.509,12.456,5.231c0.636,0.263,1.298,0.521,1.975,0.763
	C486.82,194.765,486.537,195.69,486.384,195.768z M64.827,185.68c15.371-3.987,29.553-11.723,44.762-16.324
	c7.244-2.191,14.508-4.376,21.664-6.83c7.418-2.544,14.857-4.578,22.312-6.969c15.067-4.833,30.255-9.188,45.388-13.718
	c15.107-4.522,30.634-7.976,45.585-12.896c2.212-0.381,4.426-0.774,6.683-1.148c3.654-0.605,6.464-0.266,10.003,0.622
	c2.488,0.624,4.886,1.358,7.431,0.926c14.578,4.711,29.674,8.094,44.372,12.495c15.133,4.53,30.321,8.885,45.388,13.718
	c7.455,2.391,14.893,4.425,22.312,6.969c7.156,2.455,14.419,4.639,21.664,6.83c15.21,4.601,29.391,12.336,44.763,16.324
	c7.498,1.945,14.904,5.436,22.195,8.109c0.497,0.182,0.985,0.369,1.478,0.553c-7.555-0.676-14.939-1.181-22.584-1.436
	c-17.091-0.569-34.199-1.395-51.307-2.087c-17.496-0.708-35.025-0.961-52.543-1.343c-8.905-0.195-17.82-0.479-26.722-0.615
	c-2.802-0.043-5.629-0.101-8.458-0.09c-18.046-0.751-36.015-1.819-54.158-1.603c-9.05,0.107-18.236,0.571-27.253,1.229
	c-5.718,0.418-11.458,0.031-17.189,0.454c-0.682,0.051-1.36,0.075-2.035,0.088c-4.751-0.268-9.544-0.15-14.266-0.078
	c-8.902,0.136-17.817,0.42-26.722,0.615c-17.518,0.382-35.046,0.635-52.541,1.343c-17.108,0.692-34.216,1.518-51.307,2.087
	c-7.647,0.255-15.03,0.76-22.584,1.436c0.493-0.184,0.98-0.37,1.478-0.553C49.923,191.116,57.329,187.625,64.827,185.68z
	 M48.225,184.462c4.489-1.871,8.955-3.828,13.346-5.815c2.255-1.02,4.522-2.036,6.798-3.047c0.506,1.061,0.485,2.546,0.819,3.754
	c-0.17,0.06-0.337,0.124-0.505,0.183c-6.503,2.299-13.059,4.473-19.521,6.861c-0.071-0.232-0.157-0.458-0.27-0.679
	C48.655,185.256,48.284,184.965,48.225,184.462z M70.86,174.5c6.821-3.007,13.726-5.939,20.674-8.708
	c0.029,0.205,0.065,0.41,0.092,0.605c0.104,0.768,0.186,1.519,0.443,2.253c0.206,0.587,0.419,1.206,0.709,1.763
	c-6.604,2.544-13.186,5.141-19.842,7.582c-0.158-0.528-0.364-1.045-0.573-1.479C71.983,175.726,71.46,175.086,70.86,174.5z
	 M94.036,164.799c5.04-1.974,10.098-3.858,15.166-5.603c3.037-1.046,6.071-2.086,9.107-3.128c0.085,0.559,0.138,1.133,0.246,1.647
	c0.227,1.09,0.687,2.009,1.075,3.043c0.016,0.042,0.034,0.088,0.052,0.132c-1.678,0.553-3.358,1.1-5.04,1.641
	c-6.073,1.954-12.042,4.139-17.978,6.396c-0.174-0.637-0.485-1.246-0.853-1.857c-0.347-0.576-0.667-1.225-1.139-1.714
	C94.476,165.154,94.256,164.978,94.036,164.799z M121.546,154.957c6.422-2.202,12.841-4.405,19.257-6.622
	c0.13,1.332,0.5,2.639,0.696,3.966c0.039,0.261,0.095,0.538,0.162,0.819c-1.916,0.602-3.812,1.247-5.676,1.975
	c-4.012,1.568-8.07,3.012-12.148,4.399c-0.104-0.25-0.209-0.487-0.307-0.691C122.931,157.557,122.353,156.152,121.546,154.957z
	 M143.92,147.247c4.733-1.641,9.465-3.282,14.193-4.953c2.238-0.791,4.478-1.559,6.719-2.314c0.279,1.637,0.877,3.259,1.245,4.853
	c0.052,0.224,0.119,0.474,0.197,0.735c-2.585,0.823-5.165,1.66-7.727,2.534c-3.999,1.364-8.103,2.458-12.178,3.621
	c-0.142-0.542-0.318-1.058-0.484-1.486c-0.286-0.738-0.595-1.411-1.107-2.021C144.507,147.887,144.194,147.579,143.92,147.247z
	 M168.202,138.863c7.562-2.489,15.157-4.792,22.79-7.016c0.014,0.022,0.022,0.044,0.038,0.065c1.174,1.649,0.823,4.032,1.388,5.924
	c-7.271,2.057-14.551,4.132-21.77,6.357c0-0.001,0-0.002-0.001-0.002c-0.187-1.005-0.579-1.942-0.985-2.876
	C169.322,140.532,168.612,139.7,168.202,138.863z M194.75,130.754c3.763-1.082,7.536-2.153,11.326-3.211
	c3.105-0.866,6.217-1.768,9.333-2.668c-0.019,1.372,0.041,2.731,0.404,4.093c0.179,0.674,0.296,1.32,0.493,1.916
	c-3.696,1.121-7.362,2.248-10.98,3.287c-2.895,0.831-5.799,1.653-8.706,2.475c-0.05-0.651-0.152-1.291-0.232-1.842
	C196.161,133.232,195.624,131.945,194.75,130.754z M239.566,124.841c-6.44,1.18-12.88,2.944-19.249,4.837
	c-0.093-1.976-0.751-3.933-0.965-5.932c3.864-1.101,7.735-2.175,11.618-3.136c2.7-0.669,5.411-1.403,8.123-2.115
	c0.023,0.358,0.08,0.716,0.122,1.112c0.088,0.838-0.08,1.676-0.156,2.512C238.97,123.101,239.143,124.026,239.566,124.841z
	 M269.62,124.374c-0.823-0.127-1.647-0.253-2.471-0.359c-1.933-0.761-4.217-1.044-6.042-1.495
	c-3.597-0.886-7.391-0.612-11.016,0.066c-1.814,0.339-3.935,0.741-6.061,1.313c-0.209-0.396-0.492-0.738-0.648-1.138
	c-0.212-0.538-0.074-1.45-0.126-2.034c-0.104-1.178-0.451-2.136-1.066-3.025c0.526-0.132,1.052-0.268,1.578-0.394
	c1.517-0.064,3.177-0.489,4.727-0.892c0.59-0.096,1.168-0.219,1.696-0.423c0.544-0.125,1.061-0.228,1.529-0.281
	c3.273-0.373,6.492,0.073,9.741,0.12c1.417,0.67,3.243,0.664,4.799,1.01c1.605,0.358,3.213,0.76,4.822,1.173
	c0.001,0.111,0.007,0.219,0.033,0.329C270.339,120.257,269.411,122.368,269.62,124.374z M274.179,118.826
	c2.28,0.606,4.559,1.221,6.829,1.784c3.883,0.962,7.755,2.035,11.618,3.136c-0.214,1.999-0.872,3.955-0.965,5.932
	c-5.884-1.749-11.832-3.385-17.782-4.553c0.074-0.505,0.071-1.029,0.069-1.565c-0.006-1.038,0.114-1.966,0.237-2.99
	C274.254,120.006,274.269,119.393,274.179,118.826z M295.674,130.884c0.196-0.596,0.314-1.242,0.493-1.916
	c0.363-1.362,0.423-2.721,0.404-4.093c3.115,0.9,6.227,1.8,9.333,2.668c3.789,1.057,7.561,2.128,11.326,3.211
	c-0.875,1.192-1.411,2.478-1.639,4.05c-0.08,0.552-0.182,1.19-0.232,1.842c-2.907-0.822-5.811-1.644-8.706-2.475
	C303.034,133.131,299.37,132.005,295.674,130.884z M319.561,137.836c0.565-1.893,0.214-4.275,1.388-5.924
	c0.016-0.022,0.023-0.043,0.038-0.065c7.633,2.226,15.228,4.528,22.79,7.016c-0.41,0.838-1.12,1.67-1.46,2.451
	c-0.405,0.934-0.799,1.871-0.985,2.876c0,0.001,0,0.002-0.001,0.002C334.112,141.968,326.832,139.893,319.561,137.836z
	 M345.702,145.567c0.079-0.26,0.145-0.511,0.197-0.735c0.368-1.593,0.966-3.214,1.245-4.853c2.241,0.754,4.482,1.522,6.719,2.314
	c4.728,1.672,9.46,3.313,14.193,4.953c-0.274,0.332-0.586,0.639-0.861,0.966c-0.511,0.609-0.82,1.283-1.107,2.021
	c-0.166,0.429-0.342,0.944-0.484,1.486c-4.075-1.162-8.178-2.257-12.178-3.621C350.867,147.227,348.288,146.39,345.702,145.567z
	 M370.317,153.119c0.066-0.28,0.123-0.557,0.161-0.819c0.196-1.327,0.566-2.635,0.696-3.966c6.416,2.217,12.835,4.419,19.257,6.622
	c-0.807,1.195-1.385,2.601-1.983,3.847c-0.098,0.204-0.203,0.441-0.307,0.691c-4.078-1.387-8.136-2.831-12.148-4.399
	C374.131,154.366,372.233,153.72,370.317,153.119z M392.297,160.891c0.017-0.044,0.035-0.09,0.052-0.132
	c0.388-1.035,0.849-1.953,1.075-3.043c0.107-0.514,0.161-1.088,0.246-1.647c3.034,1.041,6.07,2.082,9.106,3.128
	c5.067,1.746,10.127,3.628,15.166,5.603c-0.219,0.178-0.44,0.356-0.636,0.558c-0.472,0.489-0.792,1.138-1.139,1.714
	c-0.368,0.61-0.679,1.22-0.853,1.857c-5.936-2.257-11.904-4.442-17.978-6.396C395.655,161.991,393.975,161.443,392.297,160.891z
	 M419.202,170.412c0.29-0.556,0.503-1.175,0.709-1.763c0.258-0.733,0.339-1.486,0.443-2.253c0.027-0.194,0.063-0.399,0.092-0.605
	c6.949,2.769,13.853,5.701,20.674,8.708c-0.6,0.586-1.123,1.225-1.502,2.015c-0.208,0.434-0.414,0.951-0.573,1.479
	C432.388,175.552,425.806,172.957,419.202,170.412z M442.791,179.354c0.333-1.208,0.311-2.692,0.819-3.754
	c2.276,1.011,4.545,2.026,6.798,3.047c4.391,1.988,8.856,3.944,13.346,5.815c-0.059,0.503-0.43,0.794-0.666,1.256
	c-0.113,0.222-0.199,0.448-0.27,0.679c-6.462-2.389-13.018-4.562-19.521-6.861C443.128,179.477,442.96,179.413,442.791,179.354z
	 M479.872,167.919c0.607-0.792,1.616-0.553,1.849-1.964c0.284-1.722-1.143-3.471-1.157-5.143c-0.027-3.233,3.232-1.329,5.271,0.084
	c0.43,1.54,1.085,3.003,2.056,4.247c1.003,1.282,2.587-0.185,2.405-1.4c-0.555-3.724-1.172-7.745-0.793-11.52
	c0.063-0.338,0.091-0.679,0.083-1.024c-0.199-2.813,3.645-0.152,4.061,1.281c0.627,2.157-0.811,4.371-0.434,6.585
	c0.173,1.018,1.589,1.002,2.064,0.266c1.086-1.682,1.532-3.633,2.574-5.306c0.637-1.024,1.753-2.341,2.845-2.888
	c1.244-0.623,5.022-1.084,5.744,0.588c0.399,0.923-6.133,8.913-6.948,10.448c-2.473,4.663-4.341,13.157-1.602,18.518
	c-0.897-0.362-1.778-0.752-2.658-1.144c0.017-1.015-0.388-1.902-0.635-3.007c-0.34-1.523-0.373-3.166-0.47-4.724
	c-0.096-1.574-0.686-4.146-0.028-5.733c0.102-0.245-0.32-0.419-0.427-0.179c-0.85,1.89-1.801,3.881-2.181,5.922
	c-0.3,1.612-0.434,4.045,0.123,6.06c-0.748-0.355-1.498-0.709-2.247-1.064c-0.135-0.606-0.358-1.219-0.436-1.612
	c-0.243-1.212-0.259-2.447-0.423-3.669c-0.113-0.843-0.062-1.763-0.524-2.492c-0.112-0.176-0.399-0.251-0.551-0.071
	c-1.385,1.646-1.462,4.215-1.005,6.491c-0.533-0.242-1.061-0.491-1.601-0.725c-1.016-0.44-2.036-0.862-3.053-1.294
	C481.222,171.756,478.937,169.139,479.872,167.919z M241.165,79.302c-3.392-2.139-3.17-7.801,1.508-6.35
	c3.952,1.225,3.755,5.002,6.38,7.311c1.139,1,3.11,0.058,2.648-1.541c-0.517-1.787-1.141-3.275-1.982-4.561
	c0.027-0.153,0.035-0.311,0.007-0.479c-0.268-1.532-0.398-3.317-0.557-4.876c-0.253-2.465,0.741-1.293,2.423-2.212
	c1.056-0.577,1.465-1.445,1.75-2.568c0.607-2.386,0.648-4.003,2.185-5.351c1.178-0.131,2.553-0.316,3.348,0.434
	c1.506,1.421-0.107,4.098,1.66,5.69c0.629,0.567,1.335,0.595,2.017,0.999c1.966,1.164,1.895,1.988,1.43,4.28
	c-0.157,0.777-0.131,3.285-0.356,4.381c-0.388,0.682-0.739,1.385-0.98,2.143c-0.438,1.369,1.319,2.879,2.565,1.972
	c2.086-1.519,3.043-4.068,5.737-4.829c5.083-1.436,2.584,5.021,0.05,6.698c-2.8,1.852-5.133,3.786-6.171,6.82
	c-1.447-0.235-3.001-0.279-4.562-0.226c0.1-0.12,0.203-0.239,0.294-0.361c0.688-0.924,0.92-2.061,1.744-2.883
	c0.853-0.851-0.274-2.427-1.322-1.713c-0.943,0.643-1.691,1.454-2.528,2.188c-0.147-2.237-0.32-4.478-0.581-6.691
	c-0.178-1.513-0.007-3.044-0.288-4.543c-0.274-1.461-0.821-2.791-1.029-4.294c-0.078-0.557-1.051-0.559-1.127,0
	c-0.401,2.975-0.771,6.006-0.641,9.017c0.102,2.358-0.044,4.735,0.025,7.094c-0.105-0.062-0.212-0.125-0.314-0.183
	c-1.021-0.574-2.006-1.468-3.184-1.675c-0.573-0.101-1.19,0.358-0.993,0.993c0.373,1.202,0.816,2.12,1.713,3.044
	c0.235,0.243,0.502,0.461,0.764,0.682c-0.115,0.012-0.238,0.027-0.35,0.038c-1.898,0.186-3.551,0.274-5.034,0.496
	c0.863-2.456,0.242-5.332-2.311-7.147C243.911,80.253,242.386,80.072,241.165,79.302z M240.904,98.691
	c0.966-1.552,1.789-3.608,3.029-4.931c2.054-2.192,4.614-2.133,7.346-2.298c4.364-0.264,9.657-0.87,13.845,0.623
	c3.821,1.362,5.115,5.166,6.633,8.717c-0.398-0.081-0.795-0.16-1.193-0.245c-5.836-2.873-12.06-5.184-18.657-3.865
	c-4.273,0.854-8.287,2.874-12.432,4.263c-0.13,0.025-0.256,0.049-0.386,0.074C239.736,100.313,240.356,99.57,240.904,98.691z
	 M5.54,151.724c0.721-1.672,4.5-1.211,5.744-0.588c1.092,0.546,2.208,1.863,2.845,2.888c1.04,1.673,1.488,3.624,2.574,5.306
	c0.475,0.737,1.89,0.753,2.064-0.266c0.377-2.215-1.061-4.428-0.434-6.585c0.417-1.431,4.26-4.094,4.062-1.281
	c-0.008,0.345,0.02,0.686,0.083,1.024c0.379,3.775-0.239,7.796-0.793,11.52c-0.182,1.216,1.403,2.682,2.405,1.4
	c0.972-1.243,1.626-2.707,2.056-4.247c2.04-1.414,5.298-3.317,5.271-0.084c-0.013,1.672-1.441,3.422-1.157,5.143
	c0.233,1.413,1.242,1.172,1.849,1.964c0.935,1.22-1.351,3.837-1.902,5.531c-1.017,0.433-2.037,0.855-3.053,1.294
	c-0.54,0.234-1.067,0.483-1.601,0.725c0.458-2.277,0.38-4.846-1.005-6.491c-0.152-0.181-0.44-0.105-0.551,0.071
	c-0.462,0.729-0.411,1.649-0.524,2.492c-0.164,1.222-0.181,2.457-0.423,3.669c-0.079,0.393-0.301,1.006-0.437,1.612
	c-0.749,0.355-1.499,0.709-2.247,1.064c0.558-2.014,0.424-4.447,0.123-6.06c-0.381-2.041-1.333-4.032-2.181-5.922
	c-0.107-0.238-0.528-0.065-0.427,0.179c0.658,1.588,0.069,4.159-0.028,5.733c-0.095,1.558-0.129,3.2-0.47,4.724
	c-0.247,1.105-0.65,1.992-0.635,3.007c-0.88,0.392-1.762,0.782-2.658,1.144c2.739-5.361,0.871-13.855-1.602-18.518
	C11.672,160.638,5.141,152.648,5.54,151.724z M20.75,191.52c-3.682,0.183-6.15,3.152-9.435-1.09
	c-0.397-0.513-1.329-2.775-1.514-3.489c1.538-1.328,4.923-1.842,6.695-2.509c9.041-3.4,17.848-7.619,26.799-11.289
	c9.294-3.812,19.089-6.393,28.301-10.41c18.948-8.263,38.995-14.144,58.307-21.481c19.202-7.295,38.943-13.077,58.366-19.797
	c11.022-3.813,22.358-6.522,33.345-10.275c5.165-1.764,10.32-2.871,15.616-4.111c3.792-0.889,8.44-1.436,11.981-3.422
	c0.366-0.084,0.731-0.171,1.1-0.25c7.09-1.528,13.72,2.219,20.567,2.861c1.336,0.273,2.651,0.525,3.873,0.812
	c5.295,1.241,10.451,2.348,15.616,4.111c10.987,3.752,22.323,6.461,33.345,10.275c19.422,6.719,39.164,12.501,58.366,19.797
	c19.312,7.336,39.359,13.218,58.307,21.481c9.211,4.017,19.007,6.597,28.301,10.41c8.951,3.672,17.758,7.889,26.799,11.289
	c1.772,0.666,5.157,1.181,6.695,2.509c-0.185,0.715-1.118,2.977-1.514,3.489c-3.284,4.242-5.753,1.273-9.435,1.09
	c-14.827-7.457-30.339-13.434-45.704-19.89c-15.304-6.431-30.586-12.968-46.291-18.463c-15.849-5.547-31.935-10.464-47.569-16.632
	c-15.11-5.96-31.204-10.179-46.943-14.153c-6.99-1.765-13.932-3.799-20.896-5.749c-4.766-1.335-9.62-2.358-14.388-3.731
	c-0.637-0.184-3.151-0.573-4.856-0.815c-5.429-3.529-13.414-2.818-19.304,0.316c-1.209,0.189-2.342,0.384-2.74,0.5
	c-4.768,1.374-9.622,2.396-14.388,3.731c-6.963,1.95-13.905,3.984-20.896,5.749c-15.74,3.974-31.833,8.193-46.943,14.153
	c-15.634,6.168-31.72,11.084-47.569,16.632c-15.704,5.495-30.986,12.032-46.291,18.463C51.089,178.086,35.577,184.063,20.75,191.52z
	 M25.595,195.768c-0.153-0.078-0.437-1.003-0.706-1.745c0.676-0.243,1.338-0.501,1.975-0.763c4.184-1.724,8.201-3.619,12.456-5.231
	c2.112-0.8,4.222-1.64,6.33-2.497c0.01,0.178,0.013,0.357,0.049,0.535c0.094,0.475,0.336,0.896,0.424,1.368
	c0.007,0.035,0.013,0.069,0.019,0.104c-5.071,1.944-10.071,4.052-14.92,6.507c-0.099,0.029-0.193,0.053-0.294,0.083
	C30.106,194.375,26.231,196.091,25.595,195.768z M30.223,204.393c-0.068-1.265-0.934-3.716,0.079-4.822
	c1.496-1.634,5.991-0.664,7.905-0.648c4.036,0.033,8.085-0.484,12.121-0.613c10.132-0.322,20.254,0.41,30.393-0.179
	c8.845-0.514,17.751-0.694,26.622-0.906c18.755-0.448,37.506-0.428,56.254-1.071c9.368-0.321,18.691-0.92,28.041-1.562
	c3.224-0.222,6.45-0.342,9.672-0.494c3.368,0.71,7.012,0.915,10.253,0.807c5.638-0.188,11.396,0.43,17.014-0.085
	c9.312-0.852,19.08-1.27,28.447-1.204c10.337,0.072,20.674,0.476,30.985,0.483c6.138,0.003,12.186,0.254,18.211-0.246
	c4.696,0.308,9.411,0.417,14.12,0.74c9.351,0.643,18.673,1.241,28.041,1.562c18.749,0.644,37.499,0.623,56.254,1.071
	c8.871,0.212,17.777,0.391,26.622,0.906c10.138,0.589,20.261-0.143,30.393,0.179c4.036,0.129,8.085,0.646,12.121,0.613
	c1.914-0.017,6.41-0.986,7.905,0.648c1.013,1.107,0.146,3.556,0.079,4.822c-0.132,2.478-0.419,3.381-2.895,3.58
	c-4.517,0.362-9.157,0.073-13.667,0.095c-9.601,0.045-19.028-0.822-28.586-1.606c-9.294-0.763-18.61-0.697-27.919-1.126
	c-18.696-0.862-37.481-1.445-56.182-1.831c-15.402-0.319-31.065-1.164-46.554-0.658c-8.124-2.245-16.991-0.782-25.276-0.863
	c-9.158-0.09-18.245-0.384-27.406-0.383c-9.426,0.001-18.76,0.434-28.16,0.471c-6.694,0.027-13.454-0.138-20.075,0.747
	c-15.167-0.44-30.492,0.374-45.567,0.686c-18.702,0.387-37.486,0.971-56.182,1.831c-9.307,0.429-18.624,0.362-27.918,1.126
	c-9.558,0.784-18.985,1.653-28.586,1.606c-4.51-0.021-9.15,0.267-13.667-0.095C30.642,207.774,30.354,206.871,30.223,204.393z
	 M461.947,222.787c-0.124-3.092-0.104-6.174-0.493-9.228c0.574,0,1.146,0.007,1.719-0.001c1.702-0.023,9.637-0.825,10.969,0.718
	c1.204,1.396,0.081,7.701,0.187,9.62c0.162,2.912,0.278,6.03,0.826,8.961c-2.485-0.028-4.927,0.065-6.873-0.164
	c-2.112-0.249-4.24-0.435-6.379-0.578C462.307,228.98,462.076,225.995,461.947,222.787z M443.336,224.104
	c-0.086-3.676,0.007-7.414-0.578-11.053c2.297,0.072,4.594,0.14,6.892,0.218c3.105,0.106,6.209,0.227,9.315,0.275
	c-0.353,2.783-0.362,5.588-0.466,8.412c-0.122,3.299-0.568,6.631-0.615,9.918c-0.003,0.009-0.006,0.017-0.01,0.025
	c-4.847-0.208-9.716-0.247-14.524-0.306C443.759,229.157,443.394,226.536,443.336,224.104z M419.626,212.393
	c6.795,0.179,13.588,0.364,20.382,0.572c-0.563,3.451-0.495,6.979-0.577,10.47c-0.061,2.574-0.523,5.46-0.445,8.088
	c-6.185-0.111-12.375-0.309-18.566-0.527C420.321,224.88,421.062,218.437,419.626,212.393z M416.463,220.929
	c-0.145,3.327-0.577,6.575-0.653,9.903c-5.65-0.209-11.298-0.421-16.946-0.62c0.366-3.621,0.275-7.211,0.164-10.856
	c-0.071-2.325,0.153-5.097-0.329-7.517c0.32,0.009,0.641,0.02,0.961,0.029c5.677,0.153,11.351,0.299,17.025,0.448
	C416.212,215.137,416.588,218.048,416.463,220.929z M378.38,211.169c5.832,0.225,11.664,0.422,17.487,0.587
	c-0.828,2.383-0.685,5.113-0.772,7.6c-0.122,3.489-0.636,7.209-0.541,10.713c-2.099-0.07-4.199-0.148-6.296-0.208
	c-3.165-0.089-6.328-0.126-9.491-0.145c0.383-0.347,0.634-0.886,0.627-1.665C379.357,222.869,379.868,216.367,378.38,211.169z
	 M358.742,219.858c-0.08-3.207,0.316-6.527-0.357-9.646c5.607,0.329,11.222,0.604,16.84,0.835c-0.463,2.271-0.079,4.608-0.093,6.95
	c-0.019,3.217-0.382,6.425-0.278,9.643c-0.223,0.882,0.218,1.608,0.895,2.063c-5.758-0.008-11.512,0.058-17.263,0.107
	C358.968,226.513,358.824,223.195,358.742,219.858z M338.682,221.345c-0.032-4.022-0.041-8.295-0.552-12.332
	c3.625,0.157,7.248,0.329,10.861,0.591c2.132,0.155,4.265,0.298,6.4,0.432c-0.557,3.198-0.483,6.643-0.518,9.823
	c-0.034,3.093-0.305,6.119-0.475,9.184c-0.151,0.246-0.257,0.514-0.267,0.801c-5.007,0.031-10.011,0.029-15.012-0.058
	C339.313,226.935,338.699,223.565,338.682,221.345z M334.353,219.736c-0.13,3.277,0.093,6.634-0.019,9.934
	c-0.429-0.013-0.857-0.019-1.287-0.033c-5.305-0.178-10.643-0.201-15.979-0.212c-0.373-7.102,0.198-14.367-0.638-21.467
	c2.056,0.079,4.11,0.172,6.161,0.305c4.032,0.261,8.074,0.43,12.118,0.599C334.028,212.418,334.498,216.087,334.353,219.736z
	 M312.972,217.042c0.095,3.977-0.594,7.886-0.634,11.822c-0.072,0.173-0.122,0.355-0.144,0.546
	c-1.953-0.007-3.906-0.014-5.853-0.038c-2.925-0.033-5.88-0.15-8.841-0.244c0.051-0.186,0.088-0.384,0.095-0.602
	c0.155-4.364,0.167-8.682,0.02-13.068c-0.063-1.873,0.239-4.655-0.055-7.063c2.06-0.173,4.083-0.452,6.038-0.867
	c3.266,0.13,6.535,0.22,9.804,0.322C312.668,210.84,312.897,213.921,312.972,217.042z M292.849,229.017
	c-1.524-0.02-3.047-0.007-4.567,0.03c-3.948-1.158-8.761-0.676-12.574-0.954c-2.205-0.161-4.422-0.161-6.644-0.106
	c0.458-6.245,0.391-13.327-0.526-19.555c3.376,0.057,6.754,0.103,10.137,0.102c4.68-0.002,9.854,0.25,14.969,0.085
	c-0.368,2.523-0.196,5.216-0.278,7.649c-0.137,4.1-0.319,8.185-0.538,12.261C292.816,228.701,292.828,228.862,292.849,229.017z
	 M264.354,228.156c-3.339,0.147-6.675,0.294-9.975,0.13c-3.412-0.169-6.822-0.225-10.227-0.169
	c-0.001-0.043,0.006-0.082,0.002-0.126c-0.541-6.533,0.945-13.339-0.774-19.778c2.291-0.025,4.584-0.044,6.882-0.039
	c5.024,0.012,10.031,0.112,15.037,0.204c-0.619,2.184-0.661,4.273-0.75,6.788C264.395,219.457,264.089,223.856,264.354,228.156z
	 M239.925,219.686c-0.193,2.683-0.746,5.905-0.08,8.577c-2.262,0.104-4.521,0.244-6.776,0.46c-3.054,0.294-6.618,0.37-9.681,0.312
	c-1.642-0.031-2.94-0.194-4.212-0.019c-0.016,0-0.03,0-0.045,0c0.021-0.154,0.032-0.315,0.023-0.489
	c-0.219-4.077-0.401-8.161-0.538-12.261c-0.084-2.507,0.103-5.292-0.311-7.879c0.61,0.009,1.222,0.03,1.831,0.037
	c6.815,0.068,13.592-0.079,20.38-0.175C239.587,212.001,240.203,215.82,239.925,219.686z M198.575,207.852
	c0.708-0.022,1.417-0.043,2.125-0.064c0.972,0.151,2.024,0.141,3.009,0.181c3.562,0.147,7.14,0.256,10.717,0.341
	c-0.312,2.426,0,5.254-0.063,7.15c-0.147,4.385-0.135,8.704,0.02,13.068c0.008,0.217,0.044,0.414,0.096,0.602
	c-2.961,0.094-5.915,0.21-8.841,0.244c-1.948,0.022-3.9,0.031-5.853,0.038c-0.022-0.192-0.071-0.373-0.144-0.546
	c-0.04-3.936-0.729-7.845-0.634-11.822C199.082,213.921,199.311,210.84,198.575,207.852z M194.91,229.424
	c-5.336,0.011-10.674,0.033-15.979,0.212c-0.429,0.014-0.858,0.021-1.287,0.033c-0.112-3.3,0.111-6.657-0.019-9.934
	c-0.145-3.649,0.326-7.318-0.356-10.875c4.043-0.169,8.085-0.338,12.118-0.599c2.051-0.133,4.105-0.226,6.161-0.305
	C194.712,215.057,195.284,222.323,194.91,229.424z M172.861,229.786c-5.002,0.086-10.005,0.089-15.012,0.058
	c-0.01-0.287-0.116-0.555-0.267-0.801c-0.171-3.066-0.441-6.091-0.475-9.184c-0.035-3.18,0.04-6.623-0.518-9.822
	c2.135-0.134,4.269-0.277,6.4-0.432c3.613-0.261,7.236-0.433,10.859-0.59c-0.511,4.037-0.521,8.31-0.552,12.332
	C173.279,223.565,172.666,226.935,172.861,229.786z M153.236,219.858c-0.083,3.337-0.227,6.655,0.255,9.951
	c-5.751-0.05-11.505-0.114-17.263-0.107c0.677-0.455,1.118-1.181,0.895-2.063c0.104-3.217-0.259-6.426-0.278-9.643
	c-0.013-2.343,0.371-4.68-0.093-6.95c5.618-0.23,11.233-0.506,16.84-0.835C152.922,213.331,153.316,216.652,153.236,219.858z
	 M132.584,228.052c-0.006,0.778,0.245,1.317,0.627,1.665c-3.163,0.02-6.327,0.057-9.491,0.145c-2.097,0.059-4.198,0.138-6.296,0.208
	c0.095-3.504-0.419-7.225-0.541-10.713c-0.088-2.487,0.057-5.217-0.771-7.6c5.824-0.165,11.656-0.362,17.487-0.587
	C132.11,216.367,132.622,222.869,132.584,228.052z M112.95,219.356c-0.111,3.644-0.201,7.236,0.164,10.856
	c-5.647,0.199-11.296,0.412-16.946,0.62c-0.076-3.328-0.509-6.576-0.653-9.903c-0.125-2.882,0.251-5.792-0.223-8.614
	c5.675-0.148,11.349-0.295,17.025-0.448c0.32-0.009,0.641-0.02,0.962-0.029C112.797,214.259,113.021,217.03,112.95,219.356z
	 M91.559,230.994c-6.191,0.218-12.381,0.417-18.566,0.527c0.079-2.628-0.384-5.514-0.445-8.088
	c-0.082-3.491-0.014-7.018-0.577-10.469c6.794-0.207,13.587-0.392,20.382-0.572C90.917,218.437,91.658,224.88,91.559,230.994z
	 M68.629,231.594c-4.807,0.059-9.677,0.098-14.524,0.306c-0.003-0.009-0.006-0.017-0.009-0.025c-0.047-3.287-0.493-6.62-0.615-9.918
	c-0.105-2.824-0.113-5.628-0.466-8.412c3.107-0.048,6.21-0.168,9.315-0.275c2.298-0.079,4.594-0.146,6.892-0.218
	c-0.585,3.639-0.493,7.376-0.578,11.053C68.585,226.536,68.219,229.157,68.629,231.594z M50.075,232.114
	c-2.138,0.142-4.268,0.328-6.379,0.578c-1.947,0.23-4.388,0.136-6.873,0.164c0.547-2.93,0.665-6.049,0.826-8.961
	c0.106-1.919-1.016-8.224,0.187-9.62c1.332-1.543,9.267-0.741,10.969-0.718c0.574,0.008,1.147,0.001,1.719,0.001
	c-0.389,3.053-0.369,6.135-0.493,9.228C49.903,225.995,49.671,228.98,50.075,232.114z M30.003,249.356
	c-0.795-1.115-0.984-2.538-1.134-3.9c-0.222-2-0.371-4.188,0.752-5.856c2.324-3.454,5.723-2.197,8.966-1.742
	c5.061,0.71,10.542,0.29,15.644,0.285c10.361-0.013,20.719-0.301,31.079-0.269c15.652,0.049,31.369-0.821,47.012-1.374
	c15.846-0.561,31.676,0.181,47.488-0.284c8.612-0.253,17.217-1.002,25.827-1.16c5.455-0.1,11.035,0.008,16.564-0.208
	c3.105,0.422,6.421,0.229,9.263,0.286c7.288,0.144,14.603-0.685,21.913-0.235c6.971,0.43,13.956-0.345,20.939-0.147
	c4.395,0.124,10.229,1.311,14.788,0.062c5.75,0.254,11.56,0.137,17.235,0.242c8.611,0.158,17.215,0.906,25.827,1.16
	c15.813,0.464,31.643-0.277,47.488,0.284c15.643,0.553,31.361,1.423,47.012,1.374c10.361-0.032,20.719,0.256,31.079,0.269
	c5.103,0.007,10.584,0.427,15.644-0.285c3.243-0.455,6.642-1.713,8.965,1.742c1.123,1.67,0.973,3.857,0.752,5.856
	c-0.151,1.362-0.339,2.785-1.134,3.9c-1.832,2.566-6.56,1.124-9.177,1.163c-3.267,0.049-6.538,0.575-9.806,0.411
	c-2.427-0.121-5.178-0.215-7.936-0.061c-2.448-0.191-5.444-0.47-8.24-0.167c-2.194,0.013-4.388,0.085-6.576,0.134
	c-6.263,0.138-12.343-0.23-18.583-0.317c-1.314-0.019-2.621-0.003-3.93,0.003c-0.73-0.021-1.469-0.02-2.214,0.002
	c-3.903,0.051-7.795,0.182-11.694,0.314c-1.806-0.059-3.716-0.074-5.635,0.032c-3.566-0.277-8.297-0.749-11.873,0.678
	c-3.509,0.124-7.001,0.094-10.164-0.433c-3.8-0.634-7.593-0.391-11.384-0.137c-4.32-1.007-9.95-0.091-14.096-0.03
	c-3.499-0.151-7.008-0.249-10.499-0.166c-2.867-0.224-6.26-0.431-9.18,0.281c-8.709-0.066-17.389-1.229-26.08-0.497
	c-4.292-0.267-9.154,0.535-12.532,0.367c-1.865-0.093-3.922-0.167-6.025-0.127c-4.752-1.178-9.729-0.852-14.598-0.658
	c-6.842,0.273-13.72,0.06-20.568,0.069c-5.912,0.008-11.823,0.103-17.735,0.162c-3.709,0.037-7.824-0.629-11.441,0.46
	c-0.826,0.025-1.64,0.058-2.411,0.096c-3.378,0.168-8.242-0.634-12.532-0.367c-8.69-0.731-17.371,0.431-26.08,0.497
	c-2.92-0.712-6.313-0.506-9.18-0.281c-3.491-0.082-7.001,0.017-10.499,0.166c-4.146-0.06-9.776-0.977-14.096,0.03
	c-3.791-0.254-7.583-0.496-11.384,0.137c-3.163,0.527-6.655,0.557-10.164,0.433c-3.576-1.427-8.308-0.955-11.873-0.678
	c-1.919-0.106-3.829-0.091-5.635-0.032c-3.899-0.132-7.791-0.261-11.694-0.314c-0.744-0.022-1.483-0.022-2.214-0.002
	c-1.31-0.006-2.617-0.021-3.93-0.003c-6.241,0.086-12.321,0.455-18.583,0.317c-2.188-0.049-4.383-0.121-6.576-0.134
	c-2.796-0.302-5.793-0.023-8.24,0.167c-2.758-0.154-5.508-0.06-7.936,0.061c-3.268,0.163-6.54-0.363-9.806-0.411
	C36.564,250.481,31.837,251.922,30.003,249.356z M33.977,260.051c-5.56-3.357,2.656-4.323,4.172-4.397
	c2.451-0.12,4.83,0.388,7.25,0.4c1.709,0.009,3.478-0.064,5.252-0.163c2.095-0.004,4.197-0.124,6.297-0.205
	c2.834,0.607,6.037,0.657,8.951,0.682c2.474,0.933,4.808,2.751,0.895,4.818c-1.417,0.749-5.814-0.066-7.484-0.064
	c-4.519,0.006-9.043-0.098-13.543-0.401c-1.815-0.122-3.617-0.212-5.431-0.306C39.429,260.366,34.692,260.482,33.977,260.051z
	 M37.759,265.739c-0.208-0.186-0.409-0.407-0.608-0.638c0.348,0.012,0.687,0.028,1.011,0.055c3.345,0.28,6.757,0.439,10.111,0.569
	c4.382,0.171,8.71,0.358,13.11,0.368c0.432,0.001,0.885,0.023,1.345,0.05c-0.201,0.299-0.417,0.602-0.669,0.902
	c-2.204,2.618-4.617,2.88-7.67,2.69c-3.103-0.194-6.401-0.039-9.47-0.591C42.117,268.64,39.872,267.629,37.759,265.739z
	 M33.772,390.462c1.055-13.41,1.329-27.057,2.967-40.399c1.582-12.889,2.263-25.878,3.289-38.803
	c0.553-6.97,1.066-13.965,1.367-20.942c0.234-5.429,1.216-10.641,1.322-16.014c2.043,0.304,4.192,0.351,6.089,0.478
	c3.303,0.22,6.407,0.462,9.191,0.12c-0.386,4.301,0.182,8.861,0.577,13.011c0.577,6.04,1.319,12.016,1.906,18.055
	c1.231,12.697,1.052,25.359,1.747,38.072c0.318,5.818,0.553,11.821,0.471,17.632c-0.082,5.786,0.823,11.578,0.7,17.355
	c-0.073,3.457-0.061,6.918-0.091,10.375c-0.031,3.447,1.618,7.91-2.299,9.277c-0.114,0.04-0.26,0.063-0.396,0.093
	c-3.448-0.073-6.895-0.171-10.334-0.198c-3.251-0.025-7.026,0.112-10.679,0.546c-1.568,0.071-3.489,0.217-4.532-0.233
	C32.414,397.742,33.579,392.92,33.772,390.462z M27.283,406.103c0.626-0.017,1.251-0.032,1.877-0.049
	c2.22-0.337,4.323-0.887,6.574-1.051c1.811-0.132,3.581-0.207,5.341-0.478c5.486,0.258,10.739,0.401,16.06-0.215
	c5.946,0.332,11.882,0.606,17.855,0.598c15.199-0.019,30.369,0.309,45.543,0.677c15.848,0.383,31.717-1.147,47.558-0.475
	c8.189,0.347,16.392,0.092,24.581,0.434c5.328,0.223,10.405-0.544,15.722-0.549c6.404-0.008,12.806-0.014,19.21-0.022
	c1.633-0.002,3.3-0.104,4.896-0.462c4.617,0.131,9.271,0.298,13.895,0.323l19.765,0.107c4.697,0.026,9.642,0.449,14.348-0.241
	c1.277,0.202,2.585,0.271,3.871,0.273c6.404,0.008,12.806,0.014,19.21,0.022c5.317,0.007,10.394,0.772,15.722,0.549
	c8.188-0.342,16.391-0.088,24.581-0.434c15.842-0.671,31.71,0.86,47.558,0.475c15.174-0.368,30.344-0.696,45.543-0.677
	c5.973,0.008,11.909-0.266,17.855-0.598c5.321,0.617,10.574,0.474,16.06,0.215c1.76,0.27,3.53,0.346,5.341,0.478
	c2.251,0.164,4.354,0.715,6.574,1.051c0.626,0.017,1.251,0.032,1.877,0.049c4.167-0.989,3.7,7.133,1.721,8.805
	c-1.702,1.438-6.324,0.891-8.538,0.988c-3.893,0.172-7.7,0.342-11.615,0.294c-19.495-0.24-38.848-1.346-58.359-1.32
	c-19.955,0.028-39.955,0.75-59.877,0.846c-10.046,0.049-20.09,0.53-30.125,0.86c-6.427,0.212-13.411,0.191-20.017,1.044
	c-14.622-1.066-29.362-0.505-43.971-0.346c-9.644,0.105-19.257,0.916-28.925,0.781c-4.248-0.06-8.688-0.617-13.06-0.675
	c-5.954-0.603-12.124-0.616-17.852-0.804c-10.034-0.33-20.078-0.81-30.124-0.86c-19.922-0.098-39.922-0.819-59.877-0.846
	c-19.511-0.027-38.865,1.078-58.359,1.32c-3.915,0.049-7.722-0.122-11.615-0.294c-2.215-0.098-6.837,0.45-8.538-0.988
	C23.584,413.236,23.116,405.114,27.283,406.103z M16.46,424.932c0.907-1.661,1.419-1.493,3.153-1.902
	c1.616-0.381,3.467-0.319,5.117-0.52c2.468-0.3,4.683-0.649,6.943-1.08c7.334,0.657,14.763,0.548,22.124,0.634
	c17.836,0.207,35.615-1.002,53.49-0.998c18.368,0.003,36.776,0.489,55.114,0.634c10.253,0.081,20.491,0.558,30.74,0.482
	c3.356-0.024,6.767,0.185,10.185,0.348c1.867,0.273,3.791,0.299,5.692,0.342c5.064,0.116,10.041,0.579,15.09,0.864
	c9.981,0.564,19.828-0.11,29.803-0.144c9.349-0.032,18.579-0.26,27.945-0.263c5.042-0.001,10.164,0.463,15.178,0.127
	c2.164-0.145,4.273-0.42,6.368-0.754c5.159-0.061,10.359-0.56,15.432-0.522c10.248,0.076,20.487-0.401,30.741-0.482
	c18.339-0.144,36.746-0.63,55.114-0.634c17.875-0.003,35.653,1.205,53.49,0.998c7.362-0.085,14.79,0.023,22.124-0.634
	c2.26,0.43,4.475,0.78,6.943,1.08c1.651,0.201,3.501,0.138,5.117,0.52c1.734,0.409,2.247,0.241,3.153,1.902
	c0.227,0.417,0.741,3.468,0.509,4.124c-1.017,2.873-8.673,1.89-11.244,1.961c-4.426,0.122-8.684,0.551-13.136,0.34
	c-17.043-0.804-34.096,0.071-51.148,0.079c-17.259,0.008-34.504,0.225-51.756,0.392c-16.756,0.162-33.481,0.753-50.238,0.76
	c-7.133,0.003-14.355-0.15-21.579-0.121c-5.948-0.731-11.868-0.517-18.032-0.306c-8.655,0.296-17.338,0.695-25.994,0.764
	c-7.26,0.059-14.359,0.349-21.616,0.055c-12.562-0.862-25.325-0.387-37.81-0.392c-16.758-0.008-33.482-0.598-50.238-0.76
	c-17.252-0.167-34.497-0.384-51.756-0.392c-17.051-0.008-34.105-0.882-51.148-0.079c-4.453,0.211-8.71-0.218-13.136-0.34
	c-2.571-0.071-10.227,0.913-11.244-1.961C15.719,428.399,16.233,425.347,16.46,424.932z M506.378,443.139
	c0.089,1.837-0.084,4.982-1.747,6.052c-1.703,1.096-5.664,1.015-7.622,1.061c-4.581,0.11-9.137,0.296-13.724,0.281
	c-17.589-0.059-35.367-0.28-52.864-1.847c-16.974-1.519-34.134-0.763-51.174-0.941c-18.002-0.187-36.088-0.505-54.08,0.333
	c-8.011,0.373-16.062,0.637-24.08,0.829c-14.426-2.038-29.207,2.169-43.647,1.67c-7.319-0.254-14.568-0.1-21.895-0.422
	c-3.481-0.153-6.634-1.311-10.122-1.202c-4.367,0.135-8.762,0.094-13.136-0.006c-8.478-0.193-16.999-0.473-25.475-0.867
	c-17.992-0.838-36.077-0.521-54.08-0.333c-17.041,0.177-34.202-0.578-51.174,0.941c-17.497,1.565-35.274,1.788-52.864,1.847
	c-4.588,0.016-9.142-0.172-13.723-0.281c-1.959-0.047-5.919,0.034-7.622-1.061c-1.663-1.07-1.836-4.215-1.747-6.052
	c0.064-1.335-0.468-4.042,0.743-5.171c1.111-1.036,4.273-0.959,5.745-1.088c3.145-0.275,6.295-0.274,9.42-0.538
	c3.31,0.193,6.621,0.321,9.921,0.606c9.471,0.814,19.405-0.258,28.939-0.309c39.225-0.211,78.884-0.472,118.061,1.398
	c11.007,0.525,22.149,0.019,33.169,0.024c2.639,0.001,5.271,0.042,7.898,0.079c3.863,0.194,7.714,0.447,11.562,0.787
	c7.342,0.647,14.51,0.233,21.84,0.258c8.654,0.03,17.337-0.472,25.994-0.69c3.05-0.076,6.081-0.226,9.129-0.307
	c4.107-0.025,8.223-0.123,12.356-0.125c11.02-0.006,22.162,0.502,33.169-0.024c39.177-1.87,78.837-1.609,118.061-1.398
	c9.534,0.051,19.468,1.123,28.939,0.309c3.302-0.284,6.611-0.413,9.921-0.606c3.125,0.264,6.275,0.264,9.42,0.538
	c1.472,0.129,4.634,0.052,5.746,1.088C506.845,439.096,506.314,441.804,506.378,443.139z"/>
<g>
</g>
<g>
</g>
<g>
</g>
<g>
</g>
<g>
</g>
<g>
</g>
<g>
</g>
<g>
</g>
<g>
</g>
<g>
</g>
<g>
</g>
<g>
</g>
<g>
</g>
<g>
</g>
<g>
</g>
</svg>
