<?xml version="1.0" encoding="iso-8859-1"?>
<!-- Generator: Adobe Illustrator 19.0.0, SVG Export Plug-In . SVG Version: 6.00 Build 0)  -->
<svg version="1.1" id="Layer_1" xmlns="http://www.w3.org/2000/svg" xmlns:xlink="http://www.w3.org/1999/xlink" x="0px" y="0px"
	 viewBox="0 0 511.999 511.999" style="enable-background:new 0 0 511.999 511.999;" xml:space="preserve">
<path style="fill:#E2CFB5;" d="M257.076,6.154c15.301,28.662,20.763,56.502,20.365,85.603
	c-1.009,73.633,5.386,147.016,7.223,220.547c1.047,41.909,0.856,83.848,1.184,125.774c0.057,7.356-0.323,14.722-0.067,22.068
	c0.377,10.793,0.422,21.561,0.573,32.351c0.018,1.272,0.12,2.723,1.12,3.509c0.861,0.676,2.13,0.623,2.993,1.297
	c1.045,0.816,1.113,2.383,0.803,3.673c-0.517,2.161-0.644,3.581-2.415,4.906c-1.635,1.223-3.741,1.932-5.712,2.371
	c-3.689,0.821-7.493,0.53-11.238,0.682c-10.988,0.446-22.015,1.264-32.987,0.092c-2.761-0.295-5.589-1.129-8.347-1.254
	c-1.693-0.076-2.874,0.673-4.468,0.92c-4.074,0.632-7.819-3.161-6.351-7.261c0.568-1.585,1.82-2.809,2.825-4.159
	c1.772-2.379,2.138-6.214,2.918-9.059c0.987-3.6,1.928-7.232,2.251-10.961c0.823-9.51,1.153-19.123,0.839-28.663
	c-3.237-97.926,3.708-195.605,6.833-293.377c0.868-27.187,2.219-54.394,1.896-81.573C237.033,49.844,246.266,29.524,257.076,6.154z"
	/>
<path style="fill:#BFAC94;" d="M257.729,5.336c0.886,10.419-0.769,23.144-1.817,33.613c-2.68,26.758-3.313,55.484-2.416,82.393
	c1.513,45.338,3.033,90.682,3.033,136.086c0,51.688,3.273,103.2,3.015,154.932c-0.102,20.383-2.244,41.228,1.323,61.471
	c1.304,7.402,4.511,15.552,3.375,23.129c-10.315-6.866-24.68-0.441-35.838-1.247c-0.548-10.158,1.215-20.372,0.81-30.681
	c-0.956-24.277-0.826-48.641-1.953-72.915c-2.438-52.53,2.898-105.104,6.338-157.462c1.285-19.552,3.148-39.431,3.099-58.991
	c-0.052-21.061-1.234-42.106-0.281-63.165c0.608-13.423,1.703-26.825,2.01-40.259c0.259-11.325-0.613-22.857,2.462-33.899
	C243.312,29.636,248.295,11.39,257.729,5.336z"/>
<path style="fill:#B29879;" d="M261.353,494.614c-5.397,0.064-10.793,0.159-16.195,0.154c-5.02-0.004-10.145-0.014-15.141,0.565
	c-3.261,0.379-6.024,0.526-7.99,3.418c-0.508,0.747-2.767,8.391-1.427,8.369c17.432-0.293,35.776-0.031,53.276,0.691
	c10.86,0.447,18.339,2.938,17.381-11.299c-8.811-2.273-17.956-2.01-27.053-1.928C263.253,494.591,262.303,494.603,261.353,494.614z"
	/>
<path style="fill:#917A61;" d="M221.228,501.608c1.593,0.479,3.362,0.053,4.987-0.009c3.018-0.115,6.114-0.065,9.126,0.098
	c7.071,0.386,14.64,0.233,21.72-0.217c9.814-0.624,19.7-0.446,29.513-0.399c1.405,0.007,4.023-0.468,4.786,1.05
	c0.908,1.809-1.025,3.412-2.4,3.863c-6.53,2.139-14.749,1.37-21.509,1.666c-8.497,0.371-17.05,0.778-25.545,0.215
	c-5.291-0.35-10.812,0.297-16.06-0.338C222.813,507.169,219.929,505.738,221.228,501.608z"/>
<path d="M291.224,492.815c-0.699-0.284-1.393-0.396-2.089-0.401c0.002-0.045,0.01-0.089,0.011-0.136
	c0.022-1.032-0.372-1.813-0.766-2.607c0.053-0.244,0.086-0.499,0.067-0.778c-1.189-17.896-2.405-36.322-1.129-54.295
	c1.307-18.418,0.479-37.094,0.479-55.557c0-16.091-1.436-32.201-1.477-48.3c-0.02-8.194,0.531-16.569-0.455-24.701
	c-0.868-7.155,0.21-14.408-0.64-21.58c-0.86-7.249-0.387-14.668-0.993-21.954c-0.703-8.426-0.376-17.005-0.96-25.466
	c-1.107-16.026-1.645-31.943-2.042-48.021c-0.21-8.522-1.473-16.995-1.465-25.535c0.003-3.912,0.046-7.829-0.01-11.741
	c-0.049-3.44-0.891-6.744-0.942-10.177c-0.266-17.69-0.042-35.499,0.086-53.198c0.023-3.286-0.915-6.228-0.834-9.486
	c0.082-3.296,0.152-6.615-0.318-9.882c-1.019-7.068-0.403-14.298-2.146-21.31c-1.738-6.991-4.732-14.297-7.753-20.833
	c-0.302-0.652-0.601-1.305-0.902-1.957c-0.084-0.276-0.182-0.55-0.263-0.826c-1.545-5.355-3.078-10.702-5.034-15.93
	c-1.088-2.909-1.636-7.007-4.882-8.062c-0.658-0.214-1.545,0.008-2.006,0.53c-2.405,2.722-3.164,6.906-4.335,10.267
	c-1.178,3.378-2.467,6.702-3.593,10.089c-0.875,1.97-1.779,3.929-2.685,5.888c-3.021,6.536-6.015,13.841-7.753,20.833
	c-1.743,7.012-1.127,14.243-2.146,21.31c-0.471,3.268-0.4,6.586-0.318,9.882c0.081,3.258-0.858,6.199-0.834,9.486
	c0.128,17.7,0.352,35.509,0.086,53.198c-0.052,3.434-0.894,6.737-0.942,10.177c-0.055,3.912-0.013,7.829-0.01,11.741
	c0.008,8.54-1.255,17.013-1.465,25.535c-0.397,16.078-0.935,31.995-2.042,48.021c-0.584,8.461-0.257,17.04-0.96,25.466
	c-0.608,7.286-0.135,14.705-0.993,21.954c-0.851,7.172,0.229,14.424-0.64,21.58c-0.987,8.132-0.435,16.507-0.455,24.701
	c-0.042,16.1-1.477,32.21-1.477,48.3c0,18.464-0.828,37.139,0.48,55.557c1.276,17.973,0.06,36.398-1.129,54.295
	c-0.019,0.278,0.014,0.534,0.067,0.778c-0.392,0.794-0.788,1.574-0.766,2.607c0.001,0.045,0.009,0.089,0.011,0.136
	c-0.696,0.006-1.389,0.117-2.089,0.401c-6.079,2.47-3.287,10.42-2.561,15.122c0.129,0.839,1.099,1.83,1.947,1.947
	c2.382,0.33,4.891,0.639,7.373,0.807c2.801,0.842,6.106,0.727,8.845,0.932c6.259,0.467,12.638,0.004,18.915,0.161
	c5.147,0.129,10.155,0.425,15.282-0.028c3.447-0.305,7.404,0.081,10.795-0.949c3.449-0.019,7.09-0.455,10.472-0.925
	c0.847-0.117,1.817-1.108,1.947-1.947C294.511,503.234,297.303,495.284,291.224,492.815z M249.556,25.517
	c1.731-3.906,3.434-7.861,4.745-11.929c0.504-1.562,1.152-3.144,1.696-4.749c0.545,1.604,1.193,3.186,1.697,4.749
	c1.313,4.068,3.015,8.023,4.745,11.929c0.185,0.418,0.365,0.837,0.547,1.257c0.889,2.743,1.799,5.481,2.751,8.242
	c1.032,2.99,2.083,6.667,3.545,9.863c0.257,1.124,0.496,2.254,0.694,3.393c-4.034-0.396-9.187,0.905-12.802,1.072
	c-5.096,0.234-10.279-0.162-15.371,0.294C243.062,41.238,246.113,33.286,249.556,25.517z M229.575,490.785
	c-0.012-0.105-0.002-0.211-0.01-0.315c0.097-0.222,0.176-0.461,0.213-0.734c2.094-15.257,1.741-30.783,1.724-46.215
	c-0.01-8.105-0.756-16.154-0.765-24.266c-0.01-8.784-0.022-17.567-0.022-26.349c0-8.042-0.363-16.173,0.37-24.186
	c0.742-8.114-0.023-16.27,0.578-24.388c0.624-8.428,0.58-16.839,0.572-25.29c-0.007-7.685,0.767-15.246,0.687-22.929
	c-0.076-7.331,0.851-14.514,0.768-21.845c-0.039-3.452,0.042-6.649,0.443-10.083c0.502-4.288-0.043-8.571,0.453-12.865
	c0.955-8.253,1.435-16.998,1.403-25.309c-0.029-7.513,1.191-15.057,1.408-22.579c0.482-16.663,1.477-33.31,1.487-49.986
	c0.001-3.434,0.735-6.689,0.911-10.097c0.211-4.061-0.179-8.182-0.177-12.251c0.003-9.13,0.052-18.263-0.004-27.393
	c-0.032-5.11-0.19-10.231-0.12-15.34c0.051-3.78,0.771-7.253,0.653-11.13c-0.242-7.95,0.436-16.248,1.231-24.186
	c1.403,0.277,2.865,0.181,4.567,0.209c4.025,0.069,8.076,0.178,12.098,0.033c3.055-0.11,8.808,0.593,12.548-0.555
	c0.807,8.032,1.506,16.444,1.262,24.499c-0.118,3.877,0.601,7.351,0.653,11.13c0.07,5.109-0.088,10.231-0.12,15.34
	c-0.056,9.13-0.008,18.262-0.004,27.393c0.001,4.068-0.389,8.189-0.177,12.251c0.177,3.407,0.91,6.663,0.911,10.097
	c0.009,16.677,1.005,33.323,1.487,49.986c0.218,7.522,1.437,15.066,1.408,22.579c-0.032,8.311,0.449,17.055,1.403,25.309
	c0.496,4.293-0.049,8.577,0.453,12.865c0.402,3.435,0.482,6.631,0.443,10.083c-0.083,7.331,0.844,14.514,0.768,21.845
	c-0.081,7.683,0.694,15.244,0.687,22.929c-0.008,8.45-0.052,16.862,0.572,25.29c0.601,8.118-0.165,16.274,0.578,24.388
	c0.734,8.013,0.37,16.144,0.37,24.186c0,8.784-0.011,17.567-0.022,26.349c-0.009,8.112-0.756,16.161-0.765,24.266
	c-0.018,15.431-0.37,30.958,1.724,46.215c0.038,0.273,0.116,0.512,0.213,0.734c-0.008,0.105,0.002,0.21-0.01,0.315
	c-0.083,0.7,0.489,0.707,0.049,1.225c-0.408,0.478-1.866,0.367-2.439,0.394c-2.128,0.101-4.82-0.271-7.515-0.424
	c-2.368-0.574-5.168-0.541-7.127-0.547c-4.021-0.011-8.053,0.154-12.117,0.309c-3.52,0.135-7.273,0.074-11.02,0.192
	c-3.539-0.115-7.421,0.604-10.286,0.47c-0.573-0.028-2.032,0.085-2.439-0.394C229.086,491.492,229.658,491.486,229.575,490.785z
	 M288.71,502.777c-0.064,0.66-0.141,1.32-0.212,1.981c-3.092,0.396-6.404,0.626-9.401,0.586c-0.277-0.003-0.552,0.003-0.829,0.006
	c-2.419-0.338-4.952-0.351-7.035-0.307c-5.337,0.113-10.568,0.2-15.943,0.061c-6.166-0.16-12.382,0.397-18.533-0.013
	c-2.734-0.182-5.829-0.504-8.572,0.122c-1.572-0.102-3.155-0.256-4.686-0.452c-0.071-0.661-0.148-1.321-0.212-1.981
	c-0.076-0.791-0.381-1.92-0.243-2.715c0.282-1.621-0.249-0.992,0.706-1.338c0.006-0.002,4.531-0.078,3.348-0.023
	c0.558-0.027,0.998-0.027,1.383-0.031c2.001,0.562,4.208,0.533,6.294,0.444c2.375,0.386,4.951,0.313,7.13,0.39
	c5.374,0.192,10.904,0.177,16.27-0.18c2.567-0.17,6.271-0.013,9.722-0.451c2.949,0.211,6.03,0.092,8.807,0.219
	c2.235,0.103,4.646,0.188,6.812-0.422c0.386,0.004,0.825,0.004,1.383,0.031c-1.183-0.056,3.342,0.021,3.348,0.023
	c0.955,0.346,0.424-0.282,0.706,1.338C289.091,500.857,288.786,501.986,288.71,502.777z"/>
<g>
</g>
<g>
</g>
<g>
</g>
<g>
</g>
<g>
</g>
<g>
</g>
<g>
</g>
<g>
</g>
<g>
</g>
<g>
</g>
<g>
</g>
<g>
</g>
<g>
</g>
<g>
</g>
<g>
</g>
</svg>
