<?xml version="1.0" encoding="iso-8859-1"?>
<!-- Generator: Adobe Illustrator 19.0.0, SVG Export Plug-In . SVG Version: 6.00 Build 0)  -->
<svg version="1.1" id="Layer_1" xmlns="http://www.w3.org/2000/svg" xmlns:xlink="http://www.w3.org/1999/xlink" x="0px" y="0px"
	 viewBox="0 0 511.993 511.993" style="enable-background:new 0 0 511.993 511.993;" xml:space="preserve">
<path style="fill:#5EBC8D;" d="M506.976,286.876c-2.094-0.446-4.101-0.96-5.832-1.29c-9.042-1.723-18.239-2.642-27.313-4.206
	c-7.648-1.317-15.182-3.187-22.809-4.603c-5.178-0.962-10.423-0.761-15.583-1.492c0.127-2.532,0.893-4.868,0.441-7.452
	c-0.375-2.143-1.418-4.11-1.719-6.281c-0.813-5.853-0.706-11.784-0.775-17.677c-0.116-10.092-1.128-20.122-1.591-30.199
	c-0.457-9.961-0.66-19.979-0.008-29.935c0.685-10.452,1.891-20.733,1.421-31.231c-0.052-1.15,1.242-1.638,2.098-1.249
	c-1.903-10.448-2.923-21.08-4.36-31.62c-1.28-9.393-6.646-12.651-13.368-7.031c-5.149,4.305-10.893,7.875-17.026,10.6
	c-2.776,1.233-5.901,1.904-8.602,3.236c-2.228,1.1-3.857,2.84-6.377,3.578c-1.936,0.568-4.121,0.579-5.873-0.42
	c-1.633-0.931-3.046-2.741-4.907-2.476c-1.605,0.229-2.528,1.896-3.203,3.369c-0.77,1.68-1.502,3.368-2.218,5.058
	c1.556,8.884,0.644,19.024,0.518,27.675c-0.164,11.344-0.7,22.68-1.146,34.015c-0.385,9.777-0.426,19.524-0.455,29.305
	c-0.028,9.439-1.004,18.741-0.356,28.169c0.287,4.164,1.904,13.317-2.325,16.262c-3.334,2.321-11.427-0.769-14.774-0.977
	c-19.545-1.214-39.421-0.115-58.966,0.641c-15.148,0.586-31.467,2.669-46.562-0.252c-0.865,0.24-1.75,0.432-2.658,0.563
	c-9.701,1.392-20.18-0.1-29.937-0.382c-11.263-0.325-22.531-0.492-33.798-0.434c-8.393,0.044-17.41,1.43-25.755,0.537
	c-5.557-0.595-9.17-3.242-10.052-8.883c-1.163-7.436-0.03-15.459-0.105-22.972c-0.111-11.101,0.222-22.199,0.623-33.292
	c0.767-21.228,1.136-42.479,1.983-63.7c0.006-0.151,0.042-0.288,0.101-0.411c-0.967-1.749-1.865-3.501-2.464-5.427
	c-0.7-2.255-0.85-4.122-2.555-6.03c-4.027-4.507-8.282-1.108-13.148-1.485c-5.704-0.443-11.803-3.817-16.754-6.455
	c-2.059-1.098-4.278-2.896-6.523-3.536c-1.448-0.412-3.192,0.285-4.519-0.184c-4.176-1.476-2.321-6.705-5.526-8.985
	c-1.526-1.085-3.665-0.694-5.341,0.144c-7.628,3.815-5.784,11.217-6.643,18.043c-0.735,5.846-2.056,11.687-2.861,17.445
	c-0.89,6.36,1.815,13,1.409,19.449c-0.597,9.46,0.998,19.362-0.231,28.732c-1.07,8.159-0.808,16.134-0.736,24.456
	c0.169,19.41-0.699,38.784-3.848,57.96c-0.206,1.253-1.839,2.081-2.993,1.699c-9.458-3.134-20.122,0.663-29.746,1.412
	c-6.651,0.518-13.013,2.011-19.537,3.323c-4.423,0.89-9.348,2.041-13.881,1.314c-7.417,6.737-7.206,8.532-1.83,19.587
	c0.914,1.88,2.59,3.392,4.502,5.818c20.473-2.599,41.029-5.208,62.948-7.99c0.314,8.098,0.817,14.701,0.78,21.299
	c-0.101,18-0.47,35.998-0.649,53.997c-0.052,5.246-0.021,10.509,0.332,15.74c0.413,6.118,3.732,10.495,7.103,9.557
	c4.167-1.16,5.586-4.574,5.785-8.593c0.186-3.745,0.221-7.5,0.497-11.239c0.436-5.913,1.018-11.814,1.528-17.606
	c0.225-2.546,17.221-5.172,19.547-5.54c3.478-0.551,6.979-0.93,10.481-1.299c2.174-0.23,6.489-2.284,8.249-0.93
	c1.53,1.176,1.183,3.515,0.872,5.419c-0.783,4.784-1.001,15.034,3.716,17.993c5.922,3.715,9.258-2.798,9.797-7.519
	c0.424-3.719,0.696-7.471,0.765-11.214c0.286-15.745,0.379-31.493,0.744-47.235c0.117-5.065,0.85-10.115,1.397-16.249
	c74.111-8.171,146.943-8.156,220.718-0.01c0.51,5.761,1.15,10.102,1.235,14.453c0.31,15.746,0.241,31.501,0.725,47.24
	c0.181,5.91,1.19,11.851,2.474,17.634c0.339,1.527,3.099,3.482,4.752,3.487c1.75,0.006,4.729-1.816,5.049-3.297
	c1.328-6.151,0.126-12.601,0.815-18.951c0.133-1.221,0.402-2.617,1.473-3.218c0.821-0.461,1.838-0.283,2.76-0.092
	c3.878,0.801,36.397,6.079,36.397,9.51c0.665,9.246,1.148,18.18,2.041,27.074c0.287,2.856,1.396,5.728,2.66,8.336
	c0.493,1.019,2.458,1.846,3.733,1.82c1.288-0.027,3.438-0.994,3.677-1.938c1.269-4.993,2.872-10.109,2.867-15.181
	c-0.027-23.247-0.65-46.494-0.805-69.741c-0.028-4.248,1.119-8.505,1.853-13.664c21.692,2.751,42.334,5.368,62.238,7.892
	C509.273,295.44,511.094,292.039,506.976,286.876z M96.544,171.24c0.037-9.523-0.104-19.117,0.223-28.641
	c-0.084-0.391-0.072-0.811,0.036-1.214c0.016-0.397,0.018-0.797,0.036-1.195c0.045-1.045,1.145-1.221,1.71-0.655
	c0.355-0.098,0.747-0.123,1.18-0.03c6.244,1.335,12.519,2.831,18.499,5.094c4.343,1.643,9.565,3.72,11.089,8.532
	c2.307,7.287-0.899,15.705-0.803,23.161c0.133,10.395,1.476,20.6,0.039,30.972c-0.158,1.135-1.527,1.612-2.486,1.412
	c-5.369-1.126-10.852-1.752-16.302-2.374c-2.344-0.268-4.975-0.239-7.241-0.999c-3.332-1.116-4.663-3.626-5.173-6.97
	C96.009,189.543,96.509,180.107,96.544,171.24z M128.232,328.688c-2.715,3.45-7.888,3.452-11.889,3.975
	c-7.7,1.004-15.319,3.612-22.866,5.436c-1.329,0.321-2.597-0.625-2.627-2.001c-0.231-10.356,0.061-21.216,2.147-31.448
	c-1.453-1.013-1.643-3.559,0.554-4.021c11.209-2.357,22.881-2.421,34.286-2.848c1.192-0.045,2.156,1.033,2.174,2.174
	C130.141,308.366,133.991,321.371,128.232,328.688z M129.344,269.391c-3.101,3.631-8.944,4.328-13.39,4.802
	c-6.418,0.685-12.894,0.341-19.332,0.292c-1.127-0.009-2.025-0.935-2.047-2.047c-0.247-12.268,0.677-25.067,2.209-37.29
	c-0.266-0.226-0.52-0.465-0.749-0.73c-1.289-1.486-0.065-3.813,1.939-3.331c4.996,1.203,9.571,2.497,14.779,2.903
	c5.025,0.391,10.055,0.341,15.085,0.564c1.123,0.051,2.201,0.953,2.151,2.151c-0.309,7.31,0.977,14.574,1.442,21.858
	C131.668,262.303,131.934,266.359,129.344,269.391z M384.106,179.786c-0.195-10.243-1.65-20.296-0.739-30.56
	c0.064-0.718,0.566-1.08,1.088-1.108c0.204-0.258,0.483-0.486,0.849-0.669c8.419-4.2,17.734-6.181,26.901-8.019
	c1.695-0.34,2.997,0.72,3.155,2.403c0.937,10.059,0.526,20.107,0.348,30.188c-0.145,8.236,0.886,16.438,0.794,24.635
	c-0.043,3.813-1.565,6.368-5.118,7.892c-7.826,3.357-17.158,4.572-25.442,6.38c-1.517,0.331-2.677-0.664-2.819-2.148
	C382.181,199.052,384.291,189.499,384.106,179.786z M382.441,236.707c-0.079-0.745,0.418-1.138,0.994-1.199
	c0.4-0.539,1.033-0.911,1.915-0.897c9.854,0.149,19.327-3.05,29.16-3.286c1.384-0.033,2.476,1.177,2.508,2.508
	c0.267,11.362,5.91,24.547,2.323,35.765c-1.614,5.044-5.783,4.825-10.368,4.219c-8.713-1.15-17.304-2.01-26.086-2.741
	c-1.383-0.115-2.182-0.995-2.334-2.333C379.325,257.954,383.586,247.483,382.441,236.707z M419.261,337.152
	c-2.053,2.014-5.002,1.702-7.566,1.096c-4.032-0.954-7.827-2.288-11.924-3.03c-6.63-1.201-16.143-2.315-18.401-9.879
	c-2.343-7.852-0.056-17.392,1.167-25.294c0.18-1.164,1.456-1.044,2.064-0.348c0.131-0.144,0.278-0.284,0.458-0.411
	c3.993-2.803,10.962-1.714,15.47-1.389c5.979,0.43,11.992,1.16,17.88,2.297c0.942,0.182,1.752,1.287,1.695,2.226
	c-0.44,7.268,0.854,14.365,1.254,21.6C421.568,327.787,422.354,334.117,419.261,337.152z"/>
<g>
	<path style="fill:#529973;" d="M106.081,230.251c5.868,0.488,11.928,0.957,17.812,1.003c3.121,0.025,3.973-0.273,5.275,2.761
		c1.832,4.264,1.788,9.436,2.228,13.973c0.563,5.8-3.137,18.337,1.951,22.814c2.511,2.209,7.338,1.51,8.683-1.509
		c1.199-2.692,0.087-6.711-0.265-9.498c-0.573-4.54-2.735-8.63-3.715-13.154c-1.491-6.882-1.83-13.907-2.476-20.89
		c-0.42-4.546-0.443-8.629-0.634-13.144c-0.486-11.438,0.534-23.065,0.513-34.536c-0.026-14.46,1.861-29.194,1.173-43.612
		c-0.133-2.786,0.798-7.2-2.634-6.663c-1.977,0.31-2.783,2.172-3.321,3.968c-1.319,4.413-0.354,9.893-0.124,14.409
		c0.777,15.293,2.515,31.044,0.926,46.408c-0.536,5.183-0.063,10.495-1.159,15.606c-0.779,3.637-2.253,3.417-5.449,2.881
		c-4.816-0.807-9.673-1.773-14.499-2.647c-4.844-0.877-10.225-2.058-15.142-3.064c-0.021,4.228-0.592,8.361-0.579,12.586
		c0.009,2.929-0.867,7.28,0.289,10.016c1.02,2.414,0.874,1.398,3.037,1.589C100.592,229.784,103.39,230.027,106.081,230.251z"/>
	<path style="fill:#529973;" d="M131.315,299.498c-0.42,0.616-0.6,1.525-0.686,3.101c-0.152,2.795-0.109,5.606-0.099,8.404
		c0.019,5.383,0.135,10.774-0.281,16.146c-0.345,4.427-2.76,4.255-6.882,5.274c-2.894,0.716-5.859,0.602-8.886,1.087
		c-3.541,0.566-7.103,1.311-10.61,1.793c-3.336,0.458-10.506,0.935-12.692,3.751c-1.859,2.394-0.649,9.733-0.583,12.613
		c0.055,2.442-0.555,7.513,0.93,9.57c4.632-1.004,9.551-1.019,14.27-2.058c5.757-1.269,11.27-3.164,16.938-4.764
		c9.789-2.763,7.829,5.918,7.517,13.172c-0.158,3.664-0.911,9.356,1.278,12.458c1.134,1.607,4.011,2.888,6.007,2.119
		c2.349-0.905,2.297-3.653,2.468-6.03c0.452-6.293-1.135-12.506-1.351-18.774c-0.319-9.213,1.4-19.069,0.234-28.182
		c-0.903-7.06-4.29-14.761-1.299-21.846c1.289-3.053,6.808-5.953,5.692-9.75c-1.267-4.308-5.816-0.99-8.31-0.017
		C132.987,298.337,131.909,298.624,131.315,299.498z"/>
	<path style="fill:#529973;" d="M410.987,118.823c-9.305,1.7-18.403,6.415-27.254,9.55c-1.148,0.406-2.234,0.531-3.215,0.659
		c-1.584,0.205-0.512-1.853-2.541,0.136c-1.947,1.91-0.86,7.821-0.855,10.231c0.016,6.064-0.465,12.193-0.867,18.241
		c-0.903,13.568-1.228,27.182-0.864,40.777c0.158,5.872,0.578,11.039,0.18,16.941c-0.462,6.876-0.465,13.775-0.475,20.664
		c-0.007,4.55-0.689,8.502-2.433,12.704c-2.065,4.976-3.816,11.42-3.169,16.863c0.566,4.765,4.94,9.561,8.858,4.476
		c7.021-9.112,2.031-24.085,4.032-34.566c1.207-0.381,2.005-1.333,3.138-1.938c2.529-1.352,4.105-0.795,6.827-0.972
		c4.368-0.283,8.901-1.37,13.326-1.902c1.695-0.203,8.511,0.546,9.598-0.473c1.901-1.782,1.25-9.607,1.153-11.876
		c-0.132-3.104,0.797-8.266-0.366-11.093c-1.176-2.857-2.618-1.739-5.388-1.224c-6.053,1.125-12.478,1.897-18.301,4.02
		c-3.073,1.12-6.053,2.583-9.417,2.223c-0.752-3.137-1.916-5.24-2.053-8.626c-0.29-7.245,0.584-14.486,0.562-21.763
		c-0.015-4.604,0.374-9.193,0.593-13.778c0.261-5.425-0.802-10.884-0.281-16.321c0.601-6.285,4.597-6.502,10.355-7.755
		c6.202-1.35,15.427-1.599,20.914-5.239c3.461-2.297,3.126-6.147,2.706-10.051C415.517,126.54,415.572,114.33,410.987,118.823z"/>
	<path style="fill:#529973;" d="M367.863,302.896c4.533,1.518,5.892,0.396,6.642,5.484c1.347,9.146,0.65,18.983,0.311,28.249
		c-0.32,8.765,0.89,18.516-1.376,27.048c-1.565,5.896-7.409,18.354,3.178,17.426c2.719-0.239,3.107-0.572,3.857-3.747
		c0.682-2.889,0.561-5.921,0.695-8.863c0.199-4.406,0.614-8.829,0.92-13.181c11.439-1.472,22.652,3.035,33.674,5.35
		c5.592,1.174,8.492,2.981,7.964-4.521c-0.276-3.927-1.026-7.826-1.394-11.749c-0.19-2.028,0.155-4.09-0.977-5.857
		c-2.761,1.54-7.113-0.343-10.024-0.921c-5.973-1.187-11.976-1.837-17.962-2.872c-8.039-1.391-12.026-3.414-13.279-11.787
		c-0.754-5.039-0.545-10.048-0.372-15.139c0.08-2.365,1.295-8.493-0.49-10.5c-1.136-1.278-5.449-1.092-7.04-1.081
		C367.623,296.266,366.103,300.573,367.863,302.896z"/>
	<path style="fill:#529973;" d="M424.011,110.141c-1.921,6.279-1.158,14.061-1.158,20.529c-0.001,8.868,0.188,17.737,0.515,26.588
		c0.704,19.112-0.29,38.288,1.301,57.277c0.712,8.493,1.116,17.083,1.626,25.602c0.888,14.867,1.906,29.882,2.052,44.761
		c0.078,7.943,0.214,15.909,0.297,23.867c0.102,9.786,2.062,19.103,2.538,28.861c0.309,6.309-0.171,12.649,0.09,18.958
		c0.387,9.348,0.458,18.715-0.33,28.022c-0.384,4.539-1.716,9.89-1.141,14.429c0.261,2.065,2.729,5.123,5.34,3.558
		c2.706-1.623,1.85-12.798,1.961-15.332c0.534-12.136,0.725-24.291,0.376-36.435c-0.178-6.193-0.497-12.384-0.976-18.561
		c-0.447-5.754,0.07-11.27-0.044-17.066c-0.171-8.715-0.549-17.471-0.893-26.186c-0.414-10.508-2.792-21.254-2.459-31.753
		c0.29-9.151,1.174-17.987,0.233-27.309c-1.924-19.046-2.341-37.963-2.38-57.007c-0.009-4.065-0.329-8.023-0.513-12.047
		c-0.507-11.029-1.526-22.18-0.869-33.25C429.666,126.081,430.637,107.366,424.011,110.141z"/>
	<path style="fill:#529973;" d="M83.07,115.354c-0.166,5.048-0.936,10.144-1.136,15.218c-0.591,15.04,0.225,30.099-0.573,45.281
		c-0.283,5.38-0.313,10.777-0.542,16.155c-0.763,17.966-0.499,36.113-1.287,54.193c-0.385,8.839-1.236,17.688-1.961,26.506
		c-1.147,13.935-0.743,27.696-1.143,41.681c-0.236,8.269-0.323,16.554-0.848,24.805c-0.983,15.443-0.615,30.733-0.615,46.185
		c0,4.313-0.924,10.869,1.593,14.733c3.215,4.934,4.903-3.181,5.041-5.95c0.439-8.733-0.268-17.407-0.267-26.149
		c0.001-7.737,0.599-15.441,0.578-23.167c-0.042-15.164-0.312-30.331,0.115-45.493c0.392-13.931,2.504-27.265,3.28-41.122
		c0.587-10.471,1.212-20.914,1.752-31.389c0.279-5.425,0.483-10.865,0.676-16.294c0.292-8.206,1.243-16.277,1.133-24.488
		c-0.135-10.046-0.663-20.08-1.04-30.118c-0.334-8.88,0.506-17.222,0.753-25.977c0.09-3.17,0.31-6.336,0.656-9.487
		c0.238-2.161,1.704-6.172,0.881-8.167C88.195,107.653,83.186,111.97,83.07,115.354z"/>
</g>
<g>
	<path style="fill:#939086;" d="M73.811,276.311c-8.893,2.049-18.274,2.628-27.282,4.164c-8.219,1.401-16.641,2.366-24.942,3.125
		c-4.86,0.444-12.645,0.079-16.651,3.274c-2.598,2.073-1.617,5.656-1.296,8.547c0.155,1.401,0.14,2.334,1.036,3.325
		c0.806,0.892,1.56,0.564,2.092,1.918c0.51,1.298,0.146,3.145,0.57,4.543c0.789,2.612,2.966,3.224,5.567,3.655
		c3.778,0.625,8.44,0.107,12.236-0.267c6.623-0.652,13.17-1.552,19.711-2.727c9.089-1.633,18.048-3.759,27.115-5.46
		c4.612-0.865,4.359-4.494,4.806-8.766C77.031,289.167,79.591,276.074,73.811,276.311z"/>
	<path style="fill:#939086;" d="M97.965,274.021c6.586-1.311,13.47-1.284,20.153-1.874c6.763-0.596,13.505-0.679,20.284-0.984
		c12.544-0.565,25.095-0.221,37.638-0.652c13.187-0.454,26.356-1.43,39.555-1.494c11.329-0.055,22.657-0.072,33.985,0.128
		c11.2,0.198,22.3,1.224,33.44,1.763c5.987,0.289,12.066-0.401,18.048-0.588c13.126-0.409,26.285-0.256,39.42-0.256
		c8.83,0,17.659-0.034,26.489,0.053c4.305,0.043,8.694-0.099,12.987,0.23c3.592,0.276,7.027,1.311,10.59,1.799
		c3.805,0.521,7.596,0.869,11.395,1.463c6.756,1.055,15.928-1.109,18.347,6.815c1.176,3.852,3.938,15.256-0.197,18.401
		c-1.4,1.064-5.454,0.411-7.031,0.396c-4.306-0.038-8.651-0.411-12.957-0.605c-18.282-0.822-36.709-1.509-54.904-3.441
		c-15.346-1.63-30.752-2.796-46.184-3.144c-14.193-0.321-28.365-1.352-42.651-1.352c-15.083,0-30.059-0.081-45.132,0.569
		c-7.227,0.312-14.373,1.333-21.616,1.31c-9.818-0.032-20.078-0.375-29.426,2.808c-4.652,1.583-9.85,1.389-14.709,1.598
		c-5.949,0.254-11.901,0.401-17.85,0.634c-8.138,0.32-16.363,0.345-24.448,1.417c-2.609,0.346-5.166,0.446-7.783,0.437
		c-0.766-0.003-2.911,0.364-3.557-0.136c-1.803-1.392-0.891-7.004-0.763-8.799c0.33-4.648,1.987-9.821,1.672-14.412
		C92.54,272.907,95.277,274.556,97.965,274.021z"/>
	<path style="fill:#939086;" d="M435.498,276.103c-1.673,5.332-1.114,11.861-0.211,17.371c0.947,5.774,2.329,6.44,8.1,7.448
		c17.828,3.116,35.951,4.675,53.786,7.874c2.264,0.406,4.587,1.398,6.053-0.67c1.648-2.326,0.502-5.307,1.442-7.848
		c4.293-0.083,5.096-3.408,4.547-7.366c-0.173-1.246-0.022-3.348-0.419-4.523c-0.615-1.821-1.35-1.24-3.224-1.448
		c-3.238-0.36-6.522-1.464-9.688-2.214c-5.601-1.325-11.124-2.298-16.845-3.002C465.366,280.04,451.583,276.865,435.498,276.103z"/>
</g>
<g>
	<path style="fill:#B7B6B3;" d="M13.009,284.848c-4.204-0.147-9.01,1.112-10.258,5.415c-0.638,2.202-0.779,7.21,1.95,8.129
		c1.237,0.417,4.111-0.658,5.381-0.883c4.031-0.715,7.923-1.811,11.992-2.356c7.363-0.986,14.947-1.709,22.225-3.124
		c6.11-1.187,12.365-1.886,18.527-2.814c3.27-0.492,8.891-0.502,11.821-2.182c2.103-1.206,2.117-4.319,1.974-6.792
		c-0.186-3.227-0.647-2.888-3.629-2.669C51.923,279.118,31.013,282.4,13.009,284.848z"/>
	<path style="fill:#B7B6B3;" d="M94.216,275.687c-0.944,2.226-2.483,6.445-1.624,8.83c0.881,2.442,3.327,1.387,5.376,1.114
		c13.998-1.867,28.386-2.795,42.506-2.871c8.916-0.048,17.521,0.244,26.406-0.644c9.52-0.953,19.02-2.175,28.581-2.649
		c10.881-0.539,21.955-0.45,32.857-0.446c12.504,0.006,24.94,1.096,37.427,1.439c7.829,0.215,15.675-0.097,23.508,0.008
		c16.558,0.221,33.158,1.319,49.669,2.52c6.83,0.497,13.725,0.588,20.57,0.807c18.411,0.59,36.858,2.278,55.28,2.517
		c2.151,0.028,4.491,0.25,5.506-1.892c0.671-1.414,1.127-4.878,1.057-6.397c-0.196-4.327-5.159-3.881-8.499-4.156
		c-9.302-0.766-18.626-1.046-27.936-1.717c-3.344-0.241-6.786-0.562-10.14-0.476c-2.028,0.052-3.887,0.671-5.922,0.622
		c-6.285-0.154-12.611-0.913-18.898-1.233c-4.613-0.235-8.86-0.9-13.327-1.602c-5.355-0.842-11.608,0.084-17.038,0.142
		c-11.021,0.117-22.044,0.258-33.066,0.258c-10.307,0-20.571-0.001-30.866-0.375c-5.614-0.204-11.218,0.485-16.834,0.314
		c-2.55-0.078-4.76-0.572-7.187-1.102c-2.458-0.537-5.193-0.163-7.706-0.086c-11.959,0.37-23.899,1.158-35.844,1.816
		c-8.607,0.474-17.286,0.406-25.916,0.691c-4.715,0.157-9.458,0.093-14.129,0.218C130.27,271.807,112.352,270.587,94.216,275.687z"
		/>
	<path style="fill:#B7B6B3;" d="M434.249,277.561c-0.108,2.859-1.432,7.48,1.026,9.793c1.618,1.522,4.603,1.314,6.659,1.701
		c4.631,0.871,9.22,1.44,13.894,2.049c11.386,1.482,22.758,3.092,34.055,5.145c6.289,1.143,12.645,2.929,18.89,3.144
		c0.281-3.116,0.378-6.143,0.02-9.297c-0.461-4.063-3.644-3.11-7.414-3.582c-11.715-1.467-23.537-3.393-35.144-5.565
		C456.714,279.168,446.495,276.421,434.249,277.561z"/>
</g>
<path d="M509.27,285.935c0.071-0.634-0.106-1.28-0.625-1.727c-2.434-2.095-5.135-3.567-7.595-5.672
	c-2.557-2.188-4.617-4.757-6.88-7.238c-4.787-5.248-9.146-10.982-13.424-16.651c-4.604-6.103-10.036-13.478-13.12-20.495
	c-2.811-6.396-6.891-12.118-9.779-18.514c-7.135-15.802-13.927-31.665-17.775-48.697c-1.626-7.199-2.751-14.476-4.413-21.66
	c-0.974-4.212-1.564-8.469-2.093-12.756c-0.187-1.517-0.547-3.108-0.904-4.699c-0.059-1.178-0.12-2.357-0.211-3.53
	c0.176-3.521,0.056-7.122-0.23-10.467c-0.323-3.783-2.67-6.672-6.375-7.456c-2.999-0.635-8.048,0.134-10.446,2.145
	c-0.766,0.642-1.23,1.444-1.505,2.332c-0.578,1.241-1.181,2.473-1.796,3.702c-4.653,1.215-9.396,4.841-13.634,6.724
	c-3.565,1.585-7.226,2.67-10.858,4.042c-1.816,0.686-3.793,2.037-5.783,1.558c-0.011-0.002-0.023-0.001-0.033-0.003
	c-2.647-2.479-7.409-2.17-10.363-0.444c-2.589,1.513-3.709,4.11-4.207,6.987c-3.297,4.508-4.868,11.227-7.078,16.214
	c-3.152,7.107-6.543,13.366-11.065,19.658c-8.52,11.852-14.7,25.2-22.502,37.536c-8.425,13.321-17.116,25.888-28.142,37.265
	c-5.933,6.122-12.952,10.706-20.679,14.132c-6.098,2.705-13.108,6.53-19.807,6.547c-8.089,0.019-16.423-3.312-23.716-6.547
	c-7.727-3.426-14.746-8.01-20.679-14.132c-11.025-11.376-19.716-23.944-28.141-37.265c-7.802-12.336-13.983-25.684-22.502-37.536
	c-4.523-6.291-7.914-12.55-11.065-19.658c-2.211-4.987-3.781-11.706-7.078-16.214c-0.497-2.877-1.618-5.473-4.206-6.987
	c-2.954-1.726-7.715-2.037-10.363,0.444c-0.011,0.002-0.023,0.001-0.033,0.003c-1.991,0.48-3.968-0.872-5.783-1.558
	c-3.632-1.373-7.293-2.457-10.858-4.042c-4.237-1.884-8.981-5.511-13.634-6.724c-0.614-1.228-1.217-2.461-1.795-3.702
	c-0.276-0.89-0.74-1.69-1.505-2.332c-2.398-2.011-7.447-2.78-10.446-2.145c-3.706,0.785-6.053,3.674-6.375,7.456
	c-0.286,3.345-0.405,6.946-0.23,10.467c-0.091,1.173-0.152,2.352-0.211,3.53c-0.357,1.592-0.717,3.182-0.904,4.699
	c-0.529,4.288-1.118,8.544-2.093,12.756c-1.662,7.184-2.787,14.461-4.413,21.66c-3.848,17.031-10.64,32.895-17.775,48.697
	c-2.888,6.396-6.969,12.118-9.779,18.514c-3.084,7.016-8.516,14.391-13.12,20.495c-4.278,5.669-8.638,11.403-13.424,16.651
	c-2.263,2.482-4.322,5.05-6.879,7.238c-2.46,2.104-5.16,3.576-7.595,5.672c-0.519,0.447-0.696,1.093-0.625,1.727
	c-4.457,3.019-2.223,9.006-1.697,14.085c0.167,1.61,1.155,2.746,2.807,2.851c0.415,0.026,0.84,0.017,1.27-0.009
	c-0.538,3.452,0.551,7.138,4.06,8.746c2.608,1.196,5.866-0.064,8.5-0.497c4.316-0.709,8.677-1.114,12.997-1.82
	c7.829-1.278,15.848-1.745,23.608-3.246c4.462-0.864,9.029-1.432,13.546-1.955c2.208-0.256,4.366-0.25,6.068-1.543
	c-0.072,0.962-0.127,1.931-0.214,2.888c-0.767,8.464-0.298,16.965-0.814,25.454c-1.317,21.675-0.703,43.532-0.669,65.255
	c0.001,0.629,0.265,1.185,0.665,1.62c0.847,4.061,3.033,7.262,7.719,7.932c6.149,0.881,9.156-2.411,9.947-8.267
	c0.462-3.416-0.276-6.559-0.24-9.974c0.001-0.091,0.002-0.175,0.003-0.263c1.183-7.519,1.078-15.437,1.127-23.05
	c0.305,0.061,0.602,0.111,0.877,0.122c1.276,0.047,3.031-0.271,4.359-0.447c4.43-0.584,8.824-1.695,13.244-2.407
	c4.647-0.75,9.212-1.724,13.808-2.735c1.458-0.321,2.852-0.524,4.084-0.894c-0.467,6.565-0.811,13.294-0.073,19.634
	c0.579,4.974,5.973,9.663,11.165,8.098c5.909-1.781,6.234-9.652,6.854-14.67c0.956-7.733,0.52-15.058,0.444-22.817
	c-0.086-8.659,1.161-17.267,1.064-25.966c-0.087-7.767-0.376-15.486-0.446-23.227c0.239,0.007,0.477,0.004,0.716,0.013
	c8.801,0.337,17.588-1.302,26.336-2.109c0.842,0.197,1.742,0.258,2.796,0.252c2.273-0.012,4.915,0.109,7.318-0.033
	c3.889-0.229,7.918-0.757,11.823-1.067c3.596-0.287,7.16-0.071,10.739-0.391c8.002-0.716,15.871-0.484,23.884-0.978
	c5.354-0.33,10.723-0.251,16.077-0.577c5.662-0.345,11.365-0.992,16.952-0.149c5.945,0.899,12.182,0.355,18.178,0.725
	c8.013,0.494,15.882,0.262,23.884,0.978c3.578,0.32,7.142,0.104,10.739,0.391c3.905,0.311,7.934,0.839,11.823,1.067
	c2.404,0.141,5.046,0.019,7.318,0.033c1.054,0.006,1.953-0.055,2.796-0.252c8.749,0.808,17.535,2.446,26.336,2.109
	c0.239-0.009,0.477-0.007,0.716-0.013c-0.071,7.741-0.359,15.46-0.446,23.227c-0.097,8.698,1.15,17.305,1.064,25.966
	c-0.077,7.759-0.512,15.084,0.444,22.817c0.62,5.017,0.945,12.888,6.854,14.67c5.192,1.566,10.588-3.125,11.165-8.098
	c0.738-6.341,0.394-13.069-0.073-19.634c1.232,0.37,2.626,0.573,4.084,0.894c4.596,1.011,9.161,1.985,13.808,2.735
	c4.42,0.713,8.814,1.822,13.244,2.407c1.328,0.176,3.082,0.494,4.359,0.447c0.274-0.01,0.572-0.061,0.877-0.122
	c0.05,7.613-0.056,15.532,1.127,23.05c0.001,0.089,0.003,0.173,0.003,0.263c0.037,3.415-0.7,6.558-0.239,9.974
	c0.792,5.855,3.797,9.146,9.947,8.267c4.685-0.67,6.872-3.871,7.719-7.932c0.401-0.436,0.664-0.991,0.665-1.62
	c0.034-21.723,0.647-43.58-0.669-65.255c-0.516-8.489-0.048-16.99-0.814-25.454c-0.087-0.956-0.141-1.925-0.213-2.888
	c1.703,1.293,3.86,1.288,6.068,1.543c4.517,0.522,9.085,1.091,13.546,1.955c7.759,1.501,15.78,1.968,23.608,3.246
	c4.32,0.705,8.681,1.109,12.997,1.82c2.634,0.434,5.892,1.692,8.5,0.497c3.51-1.608,4.599-5.293,4.06-8.746
	c0.429,0.026,0.855,0.035,1.27,0.009c1.652-0.105,2.64-1.241,2.807-2.851C511.493,294.942,513.726,288.954,509.27,285.935z
	 M483.021,272.283c0.088-1.888,0.25-3.81,0.357-5.735c3.062,3.863,6.131,7.713,9.396,11.46c1.395,1.601,2.964,3.377,4.693,4.987
	c-3.904-0.912-7.831-1.798-11.732-2.78c-1.03-0.259-2.064-0.483-3.099-0.693C483.038,277.109,482.922,274.424,483.021,272.283z
	 M467.419,244.444c3.179,5.296,6.724,10.587,10.473,15.22c0.846,1.045,1.677,2.093,2.511,3.142
	c-0.647,2.897-0.935,5.882-1.083,8.858c-0.113,2.246-0.67,4.716-0.873,7.11c-4.061-0.627-8.144-1.034-12.219-1.551
	C466.238,266.412,467.972,255.319,467.419,244.444z M451.252,260.172c0.035-5.185,0.563-10.348,0.556-15.574
	c-0.012-9.642,0.686-19.366,0.566-29.036c0.387,0.878,0.775,1.755,1.163,2.634c1.755,3.961,3.87,7.709,6.047,11.445
	c1.759,3.019,2.938,6.21,4.619,9.238c0.244,0.44,0.501,0.886,0.752,1.33c-0.516,5.354-0.363,10.849-0.932,16.156
	c-0.717,6.688-1.58,13.565-1.646,20.32c-0.893-0.136-1.786-0.275-2.678-0.436c-2.896-0.52-5.798-0.856-8.702-1.195
	C451.44,270.1,451.219,265.184,451.252,260.172z M417.928,297.463c-3.473-0.521-6.962-1.062-10.464-1.589
	c0.556-0.33,1.1-0.62,1.623-0.829c0.726-0.288,6.05-1.916,8.506-3.466C417.708,293.541,417.822,295.503,417.928,297.463z
	 M406.769,291.459c-1.919,0.717-3.574,2.351-5.476,2.925c-2.2,0.664-3.857-0.595-5.817-1.907c-1.438-0.963-2.85-2.151-4.298-3.315
	c2.266,0.178,4.532,0.338,6.8,0.454c4.345,0.222,8.727,0.204,13.071,0.195C409.555,290.374,408.104,290.96,406.769,291.459z
	 M415.654,260.467c0.243,4.175,0.506,8.339,0.772,12.501c-2.396-0.768-4.869-1.203-7.39-1.502c-2.654-0.315-5.257-0.748-7.864-1.154
	c0.223-3.139,0.048-6.453-0.189-9.467c-0.447-5.69-0.548-11.227-0.557-16.94c-0.006-3.151-0.016-6.3-0.025-9.451
	c1.34-0.197,2.671-0.351,3.97-0.418c3.29-0.17,7.094-0.204,10.316-1.398C414.787,241.917,415.12,251.267,415.654,260.467z
	 M414.656,227.068c-1.13-0.01-2.279,0.142-3.464,0.289c-3.041,0.376-6.106,0.172-9.183,0.385c-0.537,0.037-1.082,0.098-1.625,0.151
	c-0.015-5.227-0.02-10.453-0.02-15.68c4.566-0.909,9.453-1.942,13.506-4.119c0.358,5.913,0.793,11.824,0.777,17.763
	C414.648,226.259,414.656,226.666,414.656,227.068z M413.46,192.685c-0.104,3.462-0.015,6.916,0.144,10.366
	c-1.135-0.081-2.296,0.018-3.379,0.164c-3.415,0.459-6.634,1.41-9.932,2.243c-0.168-3.783-0.614-7.486-0.634-11.314
	c-0.029-5.615-0.111-11.231-0.115-16.847c-0.003-4.994-0.382-9.738-0.652-14.711c-0.129-2.391-0.897-5.467-1.154-8.345
	c0.858-1.736,1.736-3.462,2.63-5.164c0.716-1.365,1.404-2.744,2.082-4.129c0.083-0.028,0.167-0.059,0.25-0.086
	c3.486-1.127,7.773-1.838,11.045-3.848c-0.153,5.388-0.299,10.779-0.364,16.165C413.239,169.043,413.811,180.886,413.46,192.685z
	 M414.226,121.287c-0.069,4.765-0.197,9.537-0.332,14.313c-2.649,0.896-5.374,1.663-8.125,2.397
	c1.626-3.443,3.272-6.881,5.095-10.231C411.908,125.846,413.155,123.623,414.226,121.287z M390.833,130.103
	c3.915-1.185,7.68-2.561,11.422-4.215c1.714-0.758,3.556-1.846,5.434-2.896c-1.999,3.723-4.015,7.441-5.888,11.205
	c-0.919,1.85-1.814,3.712-2.702,5.579c-5.011,1.379-9.953,2.952-14.497,5.356c-0.078-1.377-0.158-2.754-0.257-4.129
	c0.395-2.913,0.377-6.115-0.162-8.871C386.489,131.824,389.06,130.64,390.833,130.103z M384.878,151.038
	c3.52-0.431,6.99-1.802,10.413-3.245c-1.761,3.699-3.55,7.384-5.478,10.994c-1.293,2.421-3.042,4.661-4.764,6.917
	c0.024-1.428,0.041-2.856,0.033-4.282C385.064,157.975,385,154.508,384.878,151.038z M384.174,200.26
	c-0.267-8.264,0.203-16.536,0.561-24.813c1.218-1.923,2.437-3.849,3.661-5.779c2.178-3.435,5.004-6.192,6.711-9.911
	c0.146-0.32,0.307-0.638,0.456-0.958c0.413,4.869,0.832,9.976,0.701,14.817c-0.256,9.471-0.906,19.398,0.171,28.769
	c0.146,1.271,0.224,2.564,0.273,3.866c-4.068,0.694-8.739,0.718-12.749,2.038C384.14,205.653,384.262,203.007,384.174,200.26z
	 M383.356,216.898c0.019-0.379,0.044-0.754,0.066-1.13c0.82-0.151,1.696-0.465,2.708-0.805c3.455-1.159,7.01-1.413,10.565-2.034
	c-0.084,2.885-0.218,5.764-0.223,8.565l-0.011,6.885c-1.708,0.258-3.411,0.56-5.068,0.872c-2.566,0.483-5.537,0.749-8.014,1.816
	C383.39,226.337,383.122,221.615,383.356,216.898z M382.735,252.047c0.54-4.898,0.316-9.845,0.463-14.778
	c2.645,0.702,5.454-0.566,8.258-1.12c1.619-0.32,3.298-0.677,4.994-1.008c-0.002,1.428-0.004,2.854-0.007,4.282
	c-0.01,6.142-0.448,12.428,0.105,18.546c0.334,3.7,0.875,7.887,0.611,11.761c-1.535-0.199-3.078-0.368-4.645-0.47
	c-3.457-0.225-6.924-0.422-10.394-0.606c0.092-2.258,0.419-4.505,0.435-6.774C382.578,258.593,382.373,255.321,382.735,252.047z
	 M374.648,129.991c5.615-3.721,5.488,8.707,5.539,9.658c0.028,0.536,0.051,1.027,0.073,1.5c-0.153,6.014,0.054,12.161,0.001,18.224
	c-0.041,4.708-0.239,9.413-0.466,14.117c-1.984,3.03-4.122,5.914-6.121,8.971c-0.656,1.003-1.326,2.005-2.007,3.003
	c-0.402-11.902-1.009-23.792-0.559-35.726C371.302,144.606,369.552,133.369,374.648,129.991z M378.986,198.447
	c0.064,5.964-0.426,11.56-0.803,17.481c-0.411,6.455,0.19,12.947-0.185,19.427c-0.36,6.223-0.536,12.483-0.848,18.683
	c-0.131,2.606,0.095,5.233-0.022,7.843c-0.099,2.213-0.448,4.325-0.606,6.494c-1.41-0.064-2.82-0.114-4.229-0.169
	c-0.127-5.315,0.561-10.409,0.569-15.737c0.011-7.515-0.056-15.029-0.099-22.544c-0.068-11.705-0.465-23.406-0.812-35.111
	c1.138-1.557,2.245-3.13,3.309-4.72c1.365-2.04,2.702-4.089,4.031-6.139C379.081,188.785,378.933,193.615,378.986,198.447z
	 M365.999,267.984c-2.257-0.066-4.513-0.129-6.765-0.169c-1.851-0.033-3.69-0.089-5.524-0.151c1.271-9.999,1.189-20.033,1.759-30.09
	c0.31-5.458,0.669-10.948,0.826-16.402c0.068-2.338,0.178-5.156-0.119-7.745c3.584-3.748,7.068-7.621,10.349-11.623
	c0.107,5.828,0.197,11.655,0.212,17.479c0.021,8.775-0.123,17.552-0.157,26.327C366.552,253.128,365.812,260.512,365.999,267.984z
	 M362.829,154.357c1.454-3.218,2.537-6.548,3.835-9.828c0.007-0.016,0.014-0.033,0.02-0.048c-0.275,7.868-0.526,15.708-0.572,23.591
	c-0.047,8.249,0.087,16.502,0.243,24.751c-1.993,2.618-4.074,5.168-6.222,7.641c-0.168-6.002,0.37-11.914,0.163-17.996
	c-0.122-3.585-0.736-7.024-0.676-10.644c0.051-3.02-0.048-5.98-0.502-8.934C360.506,160.116,361.529,157.239,362.829,154.357z
	 M351.44,174.781c1.491-2.412,3.174-4.663,4.755-6.998c-0.195,5.135,0.366,10.242,0.447,15.419
	c0.113,7.231-1.293,14.338-0.378,21.52c-0.35,0.368-0.692,0.749-1.047,1.111c-4.113,4.216-8.269,8.332-12.495,12.343
	c0.312-9.315,0.097-18.739-0.502-27.955C345.236,185.03,348.295,179.869,351.44,174.781z M341.999,230.42
	c0.1-1.133,0.176-2.276,0.257-3.415c0.141-0.13,0.281-0.256,0.422-0.385c3.456-3.179,6.911-6.489,10.302-9.91
	c-0.233,2.585-0.34,5.192-0.628,7.782c-0.515,4.609-0.592,9.351-0.878,13.987c-0.596,9.662-1.529,19.371-1.742,29.041
	c-2.778-0.11-5.546-0.225-8.316-0.324c0.091-5.273,0.324-10.479,0.661-15.776C342.519,244.453,341.384,237.404,341.999,230.42z
	 M321.341,226.532c-0.017-0.023-0.035-0.046-0.052-0.069c2.706-3.93,5.192-7.955,7.374-12.008
	c3.553-6.599,7.186-13.169,10.909-19.679c-0.372,9.038-0.354,18.111-0.83,27.13c-5.501,5.052-11.16,9.887-17.085,14.431
	c-0.357-2.991-0.635-5.972-0.559-8.892C321.422,227.267,321.625,226.909,321.341,226.532z M337.218,267.083
	c-1.051-0.026-2.098-0.069-3.151-0.083c0.092-5.234,0.445-10.39,0.404-15.671c-0.043-5.562,0.375-11.486-0.191-17.137
	c1.278-1.122,2.548-2.258,3.816-3.401c-0.673,7.429,0.757,15.087-0.287,22.442C337.16,257.812,337.168,262.449,337.218,267.083z
	 M322.647,246.521c-0.026-0.875-0.08-1.757-0.151-2.642c2.762-2.094,5.459-4.274,8.113-6.522c-0.202,4.67,0.074,9.446,0.041,13.973
	c-0.039,5.271-0.529,10.419-0.665,15.659c-1.625,0.01-3.254,0.035-4.894,0.095c-0.883,0.032-1.748,0.089-2.62,0.134
	c0.051-0.129,0.093-0.269,0.123-0.423C323.779,260.43,322.835,252.991,322.647,246.521z M318.689,265.701
	c-0.117,0.689,0.077,1.269,0.426,1.706c-1.417,0.097-2.83,0.198-4.243,0.31c-1.43-0.089-2.859-0.212-4.287-0.399
	c-0.751-0.098-1.509-0.17-2.27-0.229c0.193-3.234,0.342-6.347,0.25-9.645c-0.044-1.561,0.318-2.957,0.385-4.481
	c3.413-1.974,6.685-4.119,9.865-6.383c0.006,2.543-0.03,5.086-0.047,7.629C318.743,257.973,319.323,261.979,318.689,265.701z
	 M318.458,230.436c-0.293,2.672-0.105,5.543,0.083,8.238c-2.606,1.921-5.261,3.789-7.981,5.588c-2.742,1.813-5.575,3.451-8.463,4.98
	C307.878,243.582,313.469,237.189,318.458,230.436z M281.524,265.909c7.87-3.185,15.689-6.691,23.256-10.658
	c-0.041,0.583-0.071,1.159-0.081,1.714c-0.064,3.36-0.351,6.633-0.6,9.957c-3.378-0.033-6.785,0.117-10.089,0.09
	c-5.467-0.046-10.897,0.369-16.328,0.434C278.985,266.936,280.27,266.417,281.524,265.909z M230.459,265.909
	c1.255,0.508,2.539,1.027,3.842,1.537c-5.431-0.063-10.861-0.48-16.328-0.434c-3.304,0.028-6.712-0.123-10.089-0.09
	c-0.249-3.324-0.535-6.597-0.6-9.957c-0.01-0.555-0.041-1.132-0.081-1.714C214.77,259.218,222.589,262.723,230.459,265.909z
	 M193.526,230.436c4.988,6.755,10.58,13.146,16.361,18.806c-2.887-1.529-5.721-3.167-8.463-4.98
	c-2.722-1.799-5.376-3.667-7.981-5.588C193.631,235.978,193.819,233.108,193.526,230.436z M193.294,265.701
	c-0.634-3.721-0.054-7.729-0.078-11.493c-0.016-2.542-0.053-5.086-0.047-7.629c3.18,2.264,6.452,4.408,9.865,6.383
	c0.068,1.525,0.429,2.922,0.385,4.481c-0.092,3.298,0.057,6.411,0.25,9.645c-0.761,0.059-1.519,0.129-2.27,0.229
	c-1.428,0.187-2.858,0.31-4.287,0.399c-1.413-0.111-2.826-0.213-4.243-0.31C193.218,266.97,193.411,266.39,193.294,265.701z
	 M183.32,214.455c2.182,4.052,4.668,8.078,7.374,12.008c-0.017,0.023-0.035,0.046-0.052,0.069c-0.284,0.376-0.082,0.735,0.242,0.913
	c0.077,2.92-0.2,5.901-0.557,8.892c-5.925-4.543-11.584-9.38-17.085-14.431c-0.477-9.019-0.458-18.09-0.83-27.13
	C176.134,201.287,179.768,207.856,183.32,214.455z M181.374,237.357c2.654,2.247,5.351,4.427,8.113,6.522
	c-0.071,0.885-0.125,1.766-0.151,2.642c-0.188,6.47-1.132,13.909,0.055,20.274c0.029,0.154,0.071,0.294,0.123,0.423
	c-0.873-0.045-1.737-0.102-2.62-0.134c-1.639-0.059-3.269-0.084-4.894-0.095c-0.136-5.24-0.625-10.387-0.665-15.659
	C181.3,246.803,181.576,242.027,181.374,237.357z M174.175,253.236c-1.044-7.356,0.386-15.013-0.287-22.442
	c1.268,1.143,2.538,2.279,3.816,3.401c-0.566,5.65-0.149,11.574-0.191,17.137c-0.041,5.281,0.312,10.436,0.404,15.671
	c-1.053,0.015-2.1,0.057-3.151,0.083C174.816,262.449,174.825,257.812,174.175,253.236z M169.908,251.419
	c0.337,5.298,0.57,10.503,0.66,15.776c-2.77,0.098-5.538,0.213-8.316,0.324c-0.213-9.669-1.146-19.378-1.742-29.041
	c-0.286-4.636-0.365-9.378-0.878-13.987c-0.289-2.59-0.395-5.197-0.628-7.782c3.39,3.42,6.846,6.73,10.302,9.91
	c0.141,0.129,0.282,0.256,0.422,0.385c0.082,1.139,0.158,2.282,0.257,3.415C170.6,237.404,169.466,244.453,169.908,251.419z
	 M155.788,167.782c1.581,2.335,3.265,4.586,4.755,6.998c3.145,5.088,6.203,10.249,9.22,15.441c-0.6,9.216-0.814,18.64-0.502,27.955
	c-4.226-4.011-8.381-8.126-12.495-12.343c-0.355-0.363-0.697-0.743-1.047-1.111c0.915-7.182-0.491-14.289-0.378-21.52
	C155.422,178.024,155.983,172.916,155.788,167.782z M145.319,144.53c1.298,3.28,2.383,6.61,3.835,9.828
	c1.302,2.881,2.323,5.759,3.709,8.534c-0.454,2.952-0.553,5.914-0.502,8.934c0.061,3.62-0.554,7.059-0.676,10.644
	c-0.206,6.082,0.332,11.994,0.163,17.996c-2.148-2.473-4.229-5.024-6.222-7.641c0.157-8.25,0.29-16.502,0.243-24.751
	c-0.045-7.883-0.297-15.723-0.572-23.591C145.304,144.498,145.312,144.514,145.319,144.53z M145.458,201.805
	c3.281,4.002,6.765,7.874,10.349,11.623c-0.297,2.59-0.187,5.407-0.119,7.745c0.158,5.453,0.517,10.945,0.826,16.402
	c0.57,10.057,0.488,20.091,1.759,30.09c-1.834,0.062-3.673,0.118-5.524,0.151c-2.252,0.039-4.508,0.102-6.765,0.169
	c0.187-7.472-0.553-14.856-0.581-22.374c-0.033-8.775-0.178-17.552-0.157-26.327C145.261,213.46,145.351,207.633,145.458,201.805z
	 M131.724,141.149c0.023-0.474,0.044-0.964,0.073-1.5c0.051-0.95-0.077-13.379,5.54-9.658c5.096,3.377,3.345,14.615,3.539,19.747
	c0.449,11.933-0.157,23.824-0.558,35.726c-0.68-0.998-1.35-1.999-2.007-3.003c-2-3.057-4.137-5.941-6.121-8.971
	c-0.227-4.703-0.426-9.409-0.466-14.117C131.669,153.31,131.876,147.163,131.724,141.149z M139.69,268.205
	c-1.41,0.055-2.819,0.106-4.229,0.169c-0.157-2.169-0.507-4.281-0.606-6.494c-0.117-2.61,0.109-5.237-0.023-7.843
	c-0.312-6.2-0.489-12.459-0.848-18.683c-0.375-6.481,0.226-12.972-0.185-19.427c-0.377-5.922-0.867-11.517-0.803-17.481
	c0.052-4.832-0.096-9.662-0.306-14.493c1.329,2.05,2.666,4.099,4.031,6.139c1.064,1.59,2.17,3.163,3.309,4.72
	c-0.346,11.705-0.744,23.406-0.812,35.111c-0.043,7.515-0.11,15.029-0.099,22.544C139.129,257.796,139.817,262.89,139.69,268.205z
	 M129.25,252.047c0.361,3.274,0.157,6.545,0.179,9.833c0.016,2.269,0.342,4.516,0.435,6.774c-3.47,0.184-6.937,0.381-10.394,0.606
	c-1.566,0.101-3.11,0.27-4.645,0.47c-0.263-3.875,0.277-8.061,0.611-11.761c0.553-6.119,0.116-12.403,0.106-18.546
	c-0.002-1.428-0.005-2.856-0.008-4.282c1.696,0.331,3.375,0.688,4.994,1.008c2.805,0.554,5.613,1.821,8.258,1.12
	C128.933,242.203,128.709,247.149,129.25,252.047z M128.627,216.898c0.234,4.718-0.034,9.439-0.023,14.17
	c-2.477-1.067-5.448-1.333-8.014-1.816c-1.656-0.312-3.359-0.614-5.068-0.872l-0.011-6.885c-0.005-2.801-0.138-5.682-0.223-8.565
	c3.555,0.62,7.111,0.875,10.565,2.034c1.012,0.34,1.888,0.654,2.708,0.805C128.583,216.143,128.608,216.517,128.627,216.898z
	 M128.025,208.289c-4.009-1.32-8.68-1.344-12.749-2.038c0.048-1.301,0.126-2.593,0.272-3.866c1.079-9.372,0.428-19.299,0.171-28.769
	c-0.131-4.841,0.288-9.948,0.701-14.817c0.149,0.32,0.31,0.638,0.457,0.958c1.707,3.719,4.533,6.476,6.711,9.911
	c1.224,1.93,2.442,3.855,3.661,5.779c0.358,8.276,0.828,16.548,0.561,24.813C127.722,203.007,127.844,205.653,128.025,208.289z
	 M126.935,165.705c-1.722-2.257-3.471-4.496-4.764-6.917c-1.928-3.611-3.717-7.295-5.478-10.994
	c3.423,1.444,6.893,2.813,10.413,3.245c-0.123,3.47-0.187,6.937-0.205,10.384C126.895,162.85,126.911,164.277,126.935,165.705z
	 M109.728,125.889c3.743,1.655,7.508,3.031,11.422,4.215c1.773,0.537,4.344,1.721,6.65,2.03c-0.539,2.755-0.557,5.958-0.162,8.871
	c-0.099,1.374-0.18,2.752-0.257,4.129c-4.546-2.405-9.487-3.978-14.497-5.356c-0.89-1.866-1.784-3.729-2.702-5.579
	c-1.871-3.765-3.888-7.482-5.888-11.205C106.172,124.042,108.014,125.131,109.728,125.889z M98.525,192.685
	c-0.352-11.799,0.22-23.643,0.079-35.504c-0.064-5.387-0.211-10.777-0.364-16.165c3.272,2.01,7.558,2.72,11.045,3.848
	c0.083,0.027,0.167,0.057,0.25,0.086c0.678,1.385,1.365,2.764,2.082,4.129c0.893,1.701,1.772,3.428,2.63,5.164
	c-0.257,2.878-1.025,5.954-1.154,8.345c-0.27,4.974-0.649,9.719-0.652,14.711c-0.005,5.616-0.087,11.232-0.115,16.847
	c-0.019,3.828-0.465,7.531-0.634,11.314c-3.298-0.832-6.517-1.784-9.932-2.243c-1.083-0.146-2.244-0.245-3.378-0.164
	C98.538,199.601,98.628,196.148,98.525,192.685z M101.12,127.766c1.824,3.35,3.469,6.788,5.095,10.231
	c-2.751-0.734-5.476-1.501-8.125-2.397c-0.135-4.775-0.265-9.548-0.332-14.313C98.83,123.623,100.075,125.846,101.12,127.766z
	 M97.335,225.857c-0.016-5.939,0.419-11.85,0.777-17.763c4.054,2.177,8.942,3.21,13.506,4.119c0,5.227-0.006,10.454-0.02,15.68
	c-0.543-0.053-1.088-0.114-1.625-0.151c-3.076-0.213-6.14-0.009-9.183-0.385c-1.185-0.146-2.334-0.3-3.464-0.289
	C97.328,226.666,97.335,226.259,97.335,225.857z M96.329,260.467c0.535-9.201,0.867-18.549,0.966-27.828
	c3.223,1.195,7.025,1.228,10.316,1.398c1.299,0.068,2.63,0.221,3.97,0.418c-0.009,3.151-0.019,6.3-0.025,9.451
	c-0.01,5.712-0.11,11.25-0.557,16.94c-0.236,3.014-0.412,6.328-0.189,9.467c-2.607,0.406-5.21,0.839-7.864,1.154
	c-2.521,0.3-4.994,0.734-7.39,1.502C95.823,268.806,96.087,264.641,96.329,260.467z M94.39,291.581
	c2.456,1.549,7.78,3.178,8.506,3.466c0.522,0.207,1.066,0.499,1.623,0.829c-3.502,0.527-6.991,1.067-10.464,1.589
	C94.162,295.503,94.276,293.541,94.39,291.581z M100.934,289.81c4.343,0.009,8.724,0.027,13.069-0.195
	c2.268-0.116,4.534-0.276,6.8-0.454c-1.448,1.164-2.86,2.351-4.298,3.315c-1.96,1.313-3.617,2.572-5.817,1.907
	c-1.901-0.574-3.557-2.207-5.476-2.925C103.88,290.96,102.428,290.374,100.934,289.81z M47.779,238.878
	c1.681-3.028,2.861-6.22,4.619-9.238c2.177-3.736,4.291-7.483,6.047-11.445c0.39-0.878,0.777-1.755,1.163-2.634
	c-0.119,9.671,0.579,19.394,0.566,29.036c-0.007,5.225,0.521,10.388,0.556,15.574c0.034,5.012-0.188,9.929,0.253,14.882
	c-2.904,0.338-5.806,0.673-8.702,1.195c-0.891,0.16-1.784,0.3-2.678,0.436c-0.066-6.755-0.929-13.631-1.646-20.32
	c-0.57-5.308-0.417-10.802-0.932-16.156C47.278,239.765,47.535,239.319,47.779,238.878z M34.093,259.664
	c3.748-4.634,7.294-9.925,10.473-15.22c-0.553,10.875,1.181,21.968,1.191,32.779c-4.075,0.517-8.158,0.923-12.219,1.551
	c-0.203-2.395-0.76-4.864-0.873-7.11c-0.149-2.975-0.436-5.961-1.083-8.858C32.416,261.759,33.247,260.709,34.093,259.664z
	 M19.208,278.009c3.265-3.747,6.335-7.597,9.396-11.46c0.107,1.924,0.269,3.846,0.357,5.735c0.099,2.141-0.017,4.827,0.384,7.24
	c-1.035,0.209-2.068,0.434-3.1,0.693c-3.9,0.981-7.827,1.867-11.732,2.78C16.245,281.386,17.814,279.609,19.208,278.009z
	 M12.855,306.466c-2.191-0.205-3.053-1.942-3.683-3.831c2.843,1.261,5.922,2.208,9.06,2.928
	C16.36,306.041,14.341,306.606,12.855,306.466z M27.072,303.279c-3.361-0.582-6.811-0.972-10.102-1.837
	c-0.866-0.227-1.744-0.437-2.628-0.591c0.716-0.223,1.384-0.48,2.018-0.774c1.734-0.397,3.355-0.795,4.642-0.931
	c4.593-0.485,9.143-1.203,13.724-1.818C31.925,299.177,29.289,300.854,27.072,303.279z M39.31,302.084
	c-2.2,0.359-4.398,0.729-6.596,1.097c1.442-0.998,2.822-2.049,4.081-2.866c2.847-1.844,4.895-2.858,8.372-1.582
	c1.293,0.474,2.511,1.231,3.744,1.955C45.702,301.111,42.499,301.564,39.31,302.084z M56.14,298.464
	c-2.923,0.797-5.855-1.232-8.511-2.809c2.982-0.434,5.958-0.892,8.933-1.323c2.233-0.324,4.858-0.429,7.491-0.682
	c-0.268,0.2-0.534,0.395-0.795,0.578C61.396,295.534,58.262,297.885,56.14,298.464z M74.179,298.105
	c-0.499-0.295-1.118-0.441-1.794-0.349c-2.978,0.409-5.962,0.781-8.949,1.144c3.647-2.111,7.101-4.375,10.727-6.495
	c0.093,0.003,0.188,0.003,0.28,0.008C74.376,294.314,74.284,296.211,74.179,298.105z M74.629,284.975
	c-0.804-0.03-1.637,0.075-2.581,0.286c-2.361,0.528-4.73,0.647-7.12,1.121c-0.821,0.163-1.83,0.332-2.871,0.568
	c-1.592,0.193-3.184,0.39-4.764,0.689c-6.318,1.199-12.689,2.393-19.059,3.367c-6.034,0.922-11.996,2.376-18.027,3.142
	c-2.731,0.347-6.2,0.765-9.258,1.807c-0.757,0.035-1.51,0.056-2.251,0.152c-0.851,0.109-1.662,0.421-2.481,0.681
	c-0.296-1.952-0.618-3.949-0.608-5.75c0.011-2.177-0.856-2.038,1.843-2.398c1.144-0.153,2.312-0.104,3.466-0.185
	c6.969-0.495,13.692-2.477,20.563-3.578c7.193-1.153,14.445-1.155,21.647-2.289c4.175-0.656,8.365-0.966,12.541-1.537
	c2.949-0.403,6.074-1.278,9.023-1.602C74.688,281.279,74.658,283.128,74.629,284.975z M74.738,273.793
	c-2.764-0.318-5.356,0.157-8.204,0.565c-0.744,0.107-1.487,0.196-2.231,0.289c-0.533-5.376-0.035-10.717-0.296-16.118
	c-0.258-5.332-0.652-10.566-0.672-15.931c-0.041-11.15,0.026-22.633-0.784-33.798c5.641-13.165,10.73-26.471,13.823-40.613
	c0.729-3.332,1.421-6.681,2.097-10.034c-0.149,4.186-0.271,8.372-0.258,12.565c0.03,9.217,0.406,18.58-0.124,27.781
	c-0.557,9.676-1.259,19.4-1.647,29.087C75.82,243.028,74.938,258.34,74.738,273.793z M89.675,268.347
	c-0.243,9.69-1.259,19.582-2.243,29.192c-0.946,9.231-0.688,18.741-0.708,28.033c-0.024,10.94-1.672,21.821-1.764,32.734
	c-0.05,5.865-0.586,11.703-0.586,17.589c0,5.752-0.008,11.644-0.197,17.392c-0.015,0.44,0.083,0.814,0.248,1.132
	c-0.354,2.975-1.293,5.89-4.213,4.868c-1.701-0.596-2.218-2.577-2.385-4.599c1.9-7.132,0.544-15.87,0.544-22.996
	c0-10.006-0.025-20.009-0.113-30.014c-0.081-9.237,0.379-18.6,0.983-27.792c0.552-8.395,0.041-16.928,0.935-25.281
	c1-9.339-0.495-18.89,0.148-28.257c0.547-7.978,0.886-15.946,1.565-23.919c0.366-4.29,0.166-8.589,0.512-12.886
	c0.412-5.111,0.816-10.392,0.741-15.516c-0.139-9.543,0.474-19.151,0.459-28.725c-0.016-10.65,0.622-21.234,0.429-31.864
	c-0.159-8.797,0.789-18.097,0.002-26.997c0.072-0.831,0.138-1.663,0.172-2.488c0.154-3.755,1.995-7.305,6.208-6.477
	c3.478,0.683,3.063,1.49,2.907,4.882c-0.229,5.005,0.515,9.984,0.512,14.992c-0.002,5.418-0.054,10.835-0.119,16.253
	c-0.128,10.753,0.857,22.225-0.508,32.88c-0.522,4.083-0.45,8.059-0.36,12.204c0.122,5.595-0.757,10.994-0.863,16.548
	C91.605,228.923,90.168,248.682,89.675,268.347z M128.34,349.816c-0.018,0.281-0.041,0.57-0.06,0.852
	c-2.706-0.195-5.552,1.067-8.259,1.698c-4.593,1.069-9.175,1.942-13.806,2.817c-4.789,0.905-10.188,1.687-14.742,3.829
	c0.146-5.549,0.575-11.1,0.954-16.656c5.709,0.774,13.355-2.258,18.3-3.278c5.672-1.171,11.264-1.761,16.804-3.52
	c0.356-0.113,0.698-0.229,1.033-0.349C128.653,340.085,128.656,344.957,128.34,349.816z M128.411,328.546
	c-1.698-0.004-3.301,0.388-5.118,0.926c-5.05,1.491-10.168,2.101-15.291,3.304c-4.869,1.143-10.59,1.696-15.224,3.918
	c0.169-3.084,0.294-6.169,0.303-9.256c0.026-8.703,0.337-17.354,0.77-25.991c11.77,1.228,23.774-0.642,35.766-1.821
	C127.977,309.212,128.165,318.875,128.411,328.546z M122.378,293.494c1.306-1.063,2.642-2.039,4.089-2.714
	c3.866-1.803,7.427-0.305,11.002,1.627C132.435,292.558,127.401,292.952,122.378,293.494z M141.124,336.714
	c-0.982,12.813,0.017,25.664-2.324,38.359c-0.221,1.199-0.672,4.203-2.649,3.762c-2.418-0.54-1.856-5.133-1.853-6.813
	c0.005-3.571-0.007-7.141-0.009-10.712c-0.007-7.623,0.397-15.248,0.489-22.889c0.084-7.085-1.42-14.095-0.654-21.186
	c0.632-5.85,0.342-12.111-0.66-17.96c2.583-0.213,5.164-0.373,7.741-0.445C141.388,311.497,142.098,324.011,141.124,336.714z
	 M142.619,290.527c-1.473-0.655-3.072-1.734-4.734-2.798c2.222-0.161,4.444-0.302,6.668-0.394c4.613-0.19,9.229-0.622,13.845-1.079
	c-1.861,0.98-3.661,2.031-5.481,3.112C148.848,291.786,146.868,292.417,142.619,290.527z M156.68,292.101
	c2.571-1.68,5.69-3.399,8.531-4.443c3.535-1.298,5.025,0.65,8.233,2.202c0.231,0.111,0.47,0.236,0.713,0.369
	C168.344,290.768,162.518,291.619,156.68,292.101z M180.148,288.203c-2.359-0.973-4.568-2.077-6.763-3.255
	c5.475-0.324,10.964-0.613,16.444-0.98c0.718,0.045,1.383,0.092,1.95,0.168c-1.912,1.046-3.89,1.934-5.703,3.245
	C183.293,289.393,183.295,289.5,180.148,288.203z M202.567,289.521c-3.528-0.56-7.665-0.569-10.911-0.453
	c0.114-0.066,0.225-0.138,0.34-0.202c1.554-0.839,3.404-2.278,5.144-3.332c0.597,0.602,1.199,1.18,2.004,1.61
	c1.686,0.9,4.104,1.098,5.921,1.716c0.388,0.133,0.771,0.275,1.15,0.423C204.999,289.364,203.786,289.429,202.567,289.521z
	 M224.43,284.718c-1.454,0.944-3.078,1.976-4.708,2.54c-2.706,0.938-4.485,0.298-7.307-0.637c-2.589-0.859-5.156-2.001-7.782-2.76
	c2.391,0.072,4.784,0.154,7.166-0.008c4.781-0.327,9.574-0.368,14.367-0.377C225.57,283.927,224.988,284.355,224.43,284.718z
	 M232.005,288.115c-1.554,0.188-3.099,0.227-4.64,0.214c0.826-0.551,1.653-1.107,2.499-1.67c3.613-2.405,4.822-2.758,8.478-0.566
	c0.93,0.557,1.905,0.956,2.859,1.419C238.12,287.62,235.023,287.749,232.005,288.115z M266.982,284.025
	c-1.26,0.896-2.252,2.133-3.327,3.265c-0.28,0.295-2.492,0.063-2.967,0.099c-0.864,0.064-1.556,0.259-2.374,0.471
	c-1.717,0.444-3.657,0.468-5.39,0.003c-1.558-0.418-2.96-0.569-4.595-0.572c-1.075-1.133-2.067-2.37-3.327-3.265
	c-0.423-0.302-0.877-0.597-1.342-0.89c0.357,0.225,1.767-0.123,2.204-0.159c0.779-0.064,1.565-0.114,2.34-0.217
	c0.515-0.069,0.92-0.286,1.412-0.408c0.75-0.187,1.61-0.138,2.38-0.175c2.832-0.131,5.674-0.125,8.506,0.035
	c1.151,0.065,2.251,0.441,3.416,0.562c1.467,0.152,2.938,0.27,4.409,0.361C267.86,283.429,267.406,283.725,266.982,284.025z
	 M279.978,288.115c-3.018-0.366-6.115-0.495-9.195-0.604c0.954-0.463,1.93-0.861,2.859-1.419c3.656-2.191,4.864-1.839,8.478,0.566
	c0.845,0.562,1.672,1.119,2.499,1.67C283.077,288.342,281.533,288.303,279.978,288.115z M274.513,277.223
	c-3.841-0.482-7.551-0.306-11.188,0.392c-1.513-0.071-3.044-0.131-4.64-0.179c-3.444-0.104-7.239-0.377-10.826,0.043
	c-3.381-0.574-6.828-0.702-10.387-0.256c-6.996,0.878-14.116,0.287-21.214,0.58c-5.914,0.244-12.24,0.31-18.115,1.056
	c-0.412,0.053-0.812,0.093-1.204,0.127c-16.119-1.283-32.317-0.396-48.466,0.526c-9.948,0.569-19.904,1.031-29.858,1.833
	c-7.932,0.638-16.137,0.477-23.774,2.785c0.131-2.067,0.266-4.138,0.399-6.208c1.947,0.447,3.958,0.238,6.033,0.217
	c4.795-0.048,9.446-1.135,14.201-1.53c10.743-0.894,21.571-0.138,32.267-1.093c7.925-0.707,16.026-1.139,24.038-1.373
	c0.635,0.277,1.405,0.261,2.003-0.044c1.822-0.045,3.646-0.093,5.453-0.119c4.48-0.064,8.623-0.52,12.94-1.075
	c2.311,0.234,4.644,0.272,6.971,0.065c5.978-0.533,11.87-0.486,17.887-0.436c6.402,0.053,12.767,0.798,19.13,0.714
	c6.286-0.084,13.604,1.329,19.83,0.08c6.227,1.248,13.544-0.164,19.83-0.08c6.363,0.084,12.727-0.66,19.13-0.714
	c6.016-0.05,11.909-0.096,17.887,0.436c2.327,0.207,4.661,0.168,6.971-0.065c4.317,0.555,8.461,1.011,12.94,1.075
	c1.807,0.026,3.631,0.074,5.453,0.119c0.599,0.305,1.368,0.321,2.003,0.044c8.011,0.233,16.113,0.665,24.038,1.373
	c10.696,0.955,21.523,0.2,32.267,1.093c4.755,0.395,9.407,1.483,14.201,1.53c2.076,0.021,4.086,0.231,6.033-0.217
	c0.134,2.068,0.268,4.139,0.399,6.208c-7.638-2.307-15.842-2.146-23.773-2.785c-9.954-0.802-19.91-1.264-29.858-1.833
	c-16.149-0.922-32.348-1.808-48.466-0.526c-0.392-0.034-0.792-0.075-1.204-0.127c-5.874-0.747-12.2-0.812-18.115-1.056
	C288.628,277.509,281.509,278.101,274.513,277.223z M299.567,286.621c-2.822,0.936-4.6,1.575-7.305,0.637
	c-1.629-0.564-3.253-1.597-4.708-2.54c-0.559-0.363-1.14-0.79-1.736-1.242c4.792,0.009,9.586,0.051,14.367,0.377
	c2.381,0.162,4.774,0.08,7.166,0.008C304.723,284.619,302.156,285.762,299.567,286.621z M309.416,289.521
	c-1.219-0.091-2.432-0.157-3.648-0.236c0.379-0.149,0.762-0.29,1.151-0.423c1.816-0.618,4.236-0.816,5.921-1.716
	c0.805-0.43,1.408-1.008,2.005-1.61c1.74,1.054,3.59,2.494,5.144,3.332c0.116,0.062,0.226,0.135,0.34,0.202
	C317.081,288.953,312.944,288.961,309.416,289.521z M331.836,288.203c-3.147,1.298-3.146,1.19-5.928-0.822
	c-1.813-1.311-3.791-2.199-5.703-3.245c0.568-0.074,1.232-0.123,1.95-0.168c5.48,0.366,10.968,0.654,16.444,0.98
	C336.404,286.124,334.194,287.23,331.836,288.203z M337.827,290.23c0.242-0.132,0.481-0.257,0.713-0.369
	c3.208-1.554,4.699-3.501,8.233-2.202c2.841,1.044,5.96,2.763,8.531,4.443C349.465,291.619,343.639,290.768,337.827,290.23z
	 M369.365,290.527c-4.25,1.891-6.229,1.259-10.297-1.159c-1.821-1.082-3.621-2.134-5.481-3.112
	c4.617,0.457,9.232,0.888,13.845,1.079c2.224,0.092,4.447,0.232,6.668,0.394C372.438,288.793,370.837,289.871,369.365,290.527z
	 M377.861,317.237c0.766,7.09-0.739,14.1-0.654,21.186c0.091,7.64,0.495,15.265,0.489,22.889c-0.003,3.571-0.014,7.141-0.009,10.712
	c0.002,1.68,0.564,6.273-1.853,6.813c-1.977,0.441-2.429-2.563-2.649-3.762c-2.341-12.696-1.342-25.546-2.324-38.359
	c-0.973-12.704-0.263-25.217-0.079-37.882c2.577,0.072,5.158,0.232,7.741,0.445C377.519,305.125,377.23,311.387,377.861,317.237z
	 M374.516,292.407c3.575-1.931,7.137-3.43,11.002-1.627c1.447,0.674,2.782,1.651,4.089,2.714
	C384.583,292.952,379.548,292.558,374.516,292.407z M418.133,301.447c0.432,8.638,0.743,17.289,0.77,25.991
	c0.009,3.086,0.133,6.172,0.303,9.256c-4.633-2.224-10.354-2.776-15.224-3.918c-5.123-1.203-10.241-1.813-15.291-3.304
	c-1.816-0.536-3.42-0.93-5.118-0.926c0.244-9.671,0.434-19.336-1.207-28.92C394.358,300.805,406.362,302.676,418.133,301.447z
	 M405.768,355.184c-4.631-0.875-9.213-1.749-13.806-2.817c-2.707-0.629-5.552-1.892-8.259-1.698
	c-0.019-0.283-0.042-0.571-0.06-0.852c-0.315-4.86-0.312-9.731-0.223-14.604c0.334,0.12,0.677,0.236,1.033,0.349
	c5.54,1.759,11.133,2.349,16.804,3.52c4.944,1.02,12.591,4.051,18.3,3.278c0.379,5.555,0.807,11.107,0.954,16.656
	C415.955,356.871,410.556,356.089,405.768,355.184z M431.773,399.286c-2.921,1.024-3.86-1.893-4.214-4.868
	c0.164-0.319,0.262-0.691,0.248-1.132c-0.189-5.748-0.197-11.641-0.197-17.392c0-5.887-0.536-11.725-0.586-17.589
	c-0.092-10.913-1.741-21.794-1.766-32.734c-0.02-9.291,0.238-18.802-0.708-28.033c-0.984-9.609-2-19.501-2.243-29.192
	c-0.493-19.664-1.93-39.424-2.306-59.114c-0.106-5.553-0.984-10.953-0.863-16.548c0.09-4.145,0.162-8.122-0.36-12.204
	c-1.364-10.655-0.379-22.127-0.508-32.88c-0.064-5.417-0.117-10.834-0.119-16.253c-0.002-5.006,0.74-9.985,0.512-14.992
	c-0.154-3.392-0.571-4.198,2.907-4.882c4.212-0.828,6.055,2.723,6.208,6.477c0.034,0.825,0.1,1.656,0.172,2.488
	c-0.786,8.9,0.162,18.201,0.002,26.997c-0.193,10.629,0.445,21.214,0.429,31.864c-0.015,9.574,0.598,19.183,0.459,28.725
	c-0.074,5.124,0.329,10.405,0.741,15.516c0.347,4.296,0.146,8.596,0.512,12.886c0.679,7.972,1.018,15.941,1.565,23.919
	c0.643,9.367-0.852,18.919,0.148,28.257c0.894,8.353,0.383,16.884,0.935,25.281c0.604,9.19,1.064,18.555,0.983,27.792
	c-0.088,10.006-0.113,20.008-0.113,30.014c0,7.126-1.356,15.864,0.544,22.996C433.991,396.709,433.475,398.69,431.773,399.286z
	 M435.544,227.588c-0.39-9.687-1.09-19.411-1.647-29.087c-0.53-9.201-0.154-18.563-0.124-27.781
	c0.014-4.193-0.11-8.379-0.258-12.565c0.676,3.353,1.368,6.702,2.097,10.034c3.092,14.141,8.181,27.447,13.823,40.613
	c-0.811,11.165-0.744,22.648-0.785,33.798c-0.019,5.364-0.413,10.599-0.671,15.931c-0.261,5.4,0.236,10.742-0.296,16.118
	c-0.743-0.093-1.486-0.184-2.231-0.289c-2.848-0.409-5.44-0.883-8.204-0.565C437.045,258.34,436.165,243.028,435.544,227.588z
	 M439.598,297.756c-0.676-0.092-1.295,0.054-1.794,0.349c-0.105-1.894-0.197-3.791-0.266-5.692c0.092-0.005,0.188-0.005,0.28-0.008
	c3.627,2.12,7.08,4.384,10.727,6.495C445.561,298.537,442.576,298.164,439.598,297.756z M455.845,298.464
	c-2.123-0.579-5.256-2.93-7.116-4.236c-0.261-0.184-0.526-0.378-0.795-0.578c2.634,0.252,5.258,0.358,7.491,0.682
	c2.975,0.431,5.951,0.89,8.933,1.323C461.7,297.233,458.767,299.262,455.845,298.464z M472.673,302.084
	c-3.189-0.521-6.391-0.974-9.599-1.396c1.233-0.724,2.451-1.481,3.744-1.955c3.477-1.276,5.524-0.262,8.372,1.582
	c1.259,0.815,2.638,1.868,4.081,2.866C477.071,302.813,474.873,302.443,472.673,302.084z M477.259,297.327
	c4.582,0.616,9.131,1.333,13.724,1.818c1.287,0.136,2.908,0.534,4.642,0.931c0.634,0.294,1.301,0.551,2.018,0.774
	c-0.884,0.154-1.763,0.364-2.628,0.591c-3.291,0.865-6.741,1.255-10.102,1.837C482.695,300.854,480.059,299.177,477.259,297.327z
	 M499.129,306.466c-1.487,0.14-3.505-0.426-5.378-0.903c3.138-0.72,6.217-1.666,9.06-2.928
	C502.182,304.524,501.321,306.263,499.129,306.466z M506.376,291.039c0.009,1.8-0.312,3.797-0.608,5.75
	c-0.817-0.26-1.629-0.572-2.481-0.681c-0.741-0.096-1.495-0.117-2.251-0.152c-3.058-1.044-6.527-1.46-9.258-1.807
	c-6.031-0.767-11.993-2.219-18.027-3.142c-6.371-0.974-12.741-2.166-19.059-3.367c-1.58-0.3-3.173-0.497-4.764-0.689
	c-1.042-0.235-2.05-0.404-2.871-0.568c-2.389-0.474-4.758-0.593-7.12-1.121c-0.944-0.211-1.777-0.316-2.581-0.286
	c-0.029-1.847-0.06-3.696-0.063-5.526c2.949,0.325,6.074,1.2,9.023,1.602c4.177,0.571,8.366,0.879,12.541,1.537
	c7.202,1.134,14.454,1.136,21.646,2.289c6.871,1.101,13.594,3.083,20.563,3.578c1.154,0.082,2.323,0.033,3.466,0.185
	C507.232,289.002,506.365,288.863,506.376,291.039z"/>
<g>
</g>
<g>
</g>
<g>
</g>
<g>
</g>
<g>
</g>
<g>
</g>
<g>
</g>
<g>
</g>
<g>
</g>
<g>
</g>
<g>
</g>
<g>
</g>
<g>
</g>
<g>
</g>
<g>
</g>
</svg>
