<?xml version="1.0" encoding="iso-8859-1"?>
<!-- Generator: Adobe Illustrator 19.0.0, SVG Export Plug-In . SVG Version: 6.00 Build 0)  -->
<svg version="1.1" id="Layer_1" xmlns="http://www.w3.org/2000/svg" xmlns:xlink="http://www.w3.org/1999/xlink" x="0px" y="0px"
	 viewBox="0 0 511.998 511.998" style="enable-background:new 0 0 511.998 511.998;" xml:space="preserve">
<path style="fill:#EACCBE;" d="M348.87,413.152c2.281,12.164,3.858,20.573,5.261,28.056c-3.357,6.995-8.737,8.021-14.471,8.083
	c-19.894,0.217-39.787,0.472-59.682,0.472c-32.625,0.001-65.251-0.129-97.875-0.337c-7.02-0.044-14.378,0.857-20.381-4.191
	c-5.019-9.815,2.968-18.547,1.831-29.346c-26.241-6.431-53.098-0.928-79.563-2.718c-26.039-1.763-52.319,3.304-80.416-1.503
	c1.549-4.225,1.579-9.956,5.151-12.983c4.102-3.475,8.98-2.874,11.989-8.248c2.454-4.381,2.752-9.559,4.36-14.241
	c2.093-6.098,4.553-12.096,6.846-18.121c4.483-11.779,9.019-23.537,13.588-35.283c9.136-23.494,18.4-46.936,27.622-70.395
	c3.487-8.871,7.618-17.491,11.542-26.185c3.025-6.7,6.882-12.873,14.731-14.396c6.47-1.254,9.018-5.801,11.199-11.1
	c4.232-10.282,8.105-20.744,12.939-30.738c5.911-12.225,12.717-23.986,28.3-26.577c0-5.12-0.099-9.017,0.017-12.908
	c0.515-17.203-4.255-15.453,18.239-26.543c0.301-3.299,0.316-7.246,1.116-11.03c0.517-2.445,1.896-10.516,4.81-11.073
	c1.318-0.252,2.672,0.195,4.012,0.124c2.479-0.13,4.579-2.05,5.65-4.29c0.869-1.819,1.727-12.922,4.114-13.43
	c22.226-4.723,44.437-0.47,66.494-0.995c22.148-0.525,44.385-2.61,66.316,0.283c2.594,0.343,3.557,6.307,3.489,8.132
	c-0.135,3.629-1.901,6.111,0.965,9.544c4.289,5.138,11.541,0.026,14.648,6.373c1.509,3.083-0.733,15.204,2.346,16.736
	c4.705,2.339,10.218,5.081,16.568,8.239c1.115,0.554,0.783,15.011,0.738,16.807c-0.111,4.491-2.713,10.084-1.122,14.385
	c0.859,2.322,3.205,3.835,5.624,4.369c2.533,0.56,5.31-0.345,7.618,0.524c2.383,0.897,5.135,4.01,6.86,5.832
	c4.799,5.065,7.805,11.938,11.127,18.265c2.951,5.619,5.37,11.531,7.807,17.405c1.267,3.054,3.257,6.573,3.869,9.821
	c0.555,2.951-0.543,5.949,1.009,8.811c1.22,2.251,3.6,3.69,6.076,4.349c3.445,0.917,6.56,0.109,9.66,1.844
	c1.828,1.023,3.459,2.818,4.768,4.422c3.827,4.692,6.093,10.744,8.575,16.193c3.615,7.938,6.584,16.174,9.753,24.312
	c9.032,23.187,18.088,46.365,27.1,69.559c4.561,11.74,9.112,23.485,13.644,35.238c2.081,5.398,4.946,10.965,6.496,16.513
	c1.231,4.404-1.31,9.457,1.877,13.488c3.634,4.596,8.286,1.983,12.662,3.494c5.037,1.737,4.417,8.415,3.117,12.371
	c-6.48,4.407-14.608,3.292-22.257,3.292c-30.227-0.004-60.453-0.472-90.68-0.685C380.721,413.068,366.495,413.152,348.87,413.152z"
	/>
<path style="fill:#D1B2A6;" d="M154.378,113.57c-0.598,9.537-5.069,22.696-1.469,31.973c10.315,1.348,21.34-0.314,31.957-1.021
	c11.921-0.794,24.295-0.922,36.082-0.473c31.634,1.206,63.237-1.657,94.941-0.565c11.779,0.406,25.336,3.73,36.909,1.575
	c3.032-0.565,6.493-0.81,6.848-5.225c0.621-7.716-13.687-7.998-18.853-8.571c-29.209-3.242-59.355,2.674-88.681-0.727
	c-10.845-1.257-27.821-1.803-34.55-12.368c-6.797-10.672,8.882-8.312,14.462-8.811c23.564-2.108,46.58-0.992,70.237-1.042
	c10.649-0.023,21.716,0.448,32.33-0.533c3.586-0.331,9.027-1.559,6.265-6.313c-4.038-6.953-24.466-2.065-30.182-2.087
	c-25.268-0.099-50.565,1.022-75.862,1.048c-8.386,0.008-32.111,2.603-34.269-9.835c-2.418-13.941,42.709-7.75,50.496-7.379
	c17.872,0.85,36.153,0.622,54.042-0.234c4.4-0.21,23.072,2.974,20.988-5.923c-1.345-5.738-11.031-4.554-15.393-4.464
	c-13.671,0.287-27.314,1.718-40.992,2.112c-8.251,0.238-16.487,0.517-24.749,0.513c-4.829-0.002-11.81,1.557-16.437,0.405
	c-6.175-1.538-5.047-6.423-8.581-9.83c-5.59-5.39-31.482-1.959-34.712,6.249c-1.493,3.792,1.948,8.675-1.118,11.592
	c-4.468,4.253-8.184-2.552-10.805,3.926c-2.449,6.055,0.634,14.964-4.022,20.112C166.313,110.938,154.657,109.434,154.378,113.57z"
	/>
<path style="fill:#C49C8C;" d="M220.208,211.049c-4.307,5.539-4.631,7.975-5.89,14.97c-1.095,6.076-2.613,12.104-3.877,18.148
	c-1.811,8.655-3.588,17.318-5.338,25.988c-3.86,19.133-5.506,38.398-11.058,57.16c-4.524,15.289-8.452,30.92-13.51,46.027
	c-2.077,6.201-3.216,17.276-8.759,21.151c-4.085,2.855-11.787,2.671-16.505,3.031c-12.094,0.922-24.198,0.136-36.286,0.719
	c-28.188,1.359-55.988-2.471-84.038-2.125c-6.454,0.079-20.653-2.295-26.584,1.021c-3.259,1.822-5.424,8.638-4.229,12.107
	c2.445,7.101,23.558,2.781,29.531,3.034c19.855,0.842,39.965,0.441,59.799-0.436c19.08-0.843,38.316-0.498,57.428-0.498
	c4.086,0,10.793-1.885,13.898,1.823c3.625,4.331-2.182,14.36-3.727,19.282c-4.436,14.125,1.217,17.376,15.437,15.16
	c13.374-2.085,29.111-0.547,42.803,0c9.716,0.388,19.343,1.447,28.855,2.594c10.077,1.214,20.211-2.097,30.207-2.801
	c8.226-0.58,16.575-0.734,24.819-0.888c13.125-0.245,26.328,1.023,39.394,0.544c8.408-0.308,9.727-2.927,8.774-11.132
	c-1.107-9.542-8.787-19.639,3.097-23.827c8.636-3.043,18.341-0.036,27.17,0.31c30.535,1.2,60.845-0.352,91.435,0.539
	c6.476,0.189,12.987-0.027,19.467-0.027c2.388,0,11.111,1.491,13.23,0.565c4.235-1.851,2.522-13.529-1.057-15.807
	c-4.356-2.774-14.482-1.629-19.361-1.408c-6.535,0.296-13.573,0.91-19.804,0.894c-28.766-0.072-57.408-0.74-86.053-0.519
	c-10.27,0.079-20.409,3.192-30.744,1.831c-14.74-1.94-16.095-19.312-19.976-31.366c-9.473-29.418-15.329-59.294-21.957-89.327
	c-2.899-13.141-4.975-26.644-6.797-39.986c-0.995-7.285-0.806-17.539-6.184-23.168c-4.859-5.087-8.713-5.21-8.833-13.573
	c-0.174-12.236,10.286-29.51,2.397-40.766c-4.301-6.136-19.246-5.022-25.982-5.241c-8.914-0.289-29.172-4.809-35.725,2.614
	c-3.849,4.36-2.98,14.803-3.05,20.274c-0.085,6.784,1.063,13.641,1.083,20.417c0.014,4.916-0.235,8.569-3.142,12.236
	C220.446,210.746,220.325,210.898,220.208,211.049z"/>
<g>
	<path style="fill:#664E46;" d="M259.288,107.962c-7.067,1.103-15.826,3.845-19.222,4.1c-0.531,7.904-2.232,20.351,0.445,27.754
		c1.955,5.407,8.593,3.97,14.463,3.94c7.726-0.039,13.105,1.933,14.395-6.215c0.79-4.998,3.163-25.791-0.857-29.035
		C266.931,107.232,263.396,107.321,259.288,107.962z"/>
	<path style="fill:#664E46;" d="M247.864,173.432c1.882,6.733,0.363,17.105,0,24.426c-0.198,4.011-2.283,11.344,1.315,13.425
		c1.661,0.961,9.901,0.256,11.967-0.167c4.764-0.976,3.6-0.365,4.563-4.597c1.256-5.523,0.041-11.281-0.513-16.807
		c-0.576-5.742-0.793-11.455-1.13-17.252C260.071,172.253,248.861,170.876,247.864,173.432z"/>
</g>
<g>
	<path style="fill:#D1B2A6;" d="M88.729,219.649c-11.486,19.876-16.985,42.347-24.657,63.687
		c-7.765,21.598-17.46,41.982-26.837,62.88c-3.679,8.199-23.606,39.062-14.182,46.904c3.818,3.176,13.865,4.204,18.777,4.583
		c11.608,0.893,23.407,0.511,35.084,0.513c20.686,0.004,41.349,3.206,61.997,1.079c4.055-0.418,8.091-1.308,12.159-1.488
		c3.648-0.162,9.335,1.598,12.761,0.436c7.418-2.517,12.619-22.036,15.36-28.878c12.636-31.542,16.832-64.732,25.185-97.415
		c3.693-14.454,7.806-28.832,11.055-43.366c0.99-4.43,6.415-24.369-3.335-15.689c-11.678,10.397-17.657,29.727-22.825,43.762
		c-7.889,21.427-16.512,42.917-26.022,63.689c-4.656,10.171-30.656,54.464-45.778,38.025c-6.202-6.743-6.892-20.504-8.166-29.023
		c-1.594-10.657-2.018-21.522-2.724-32.259c-1.484-22.579,4.026-41.712,9.378-63.226c1.497-6.019,5.184-15.336-1.073-19.895
		C104.439,206.356,91.066,218.699,88.729,219.649z"/>
	<path style="fill:#D1B2A6;" d="M156.479,146.122c-6.546-2.429-15.936,1.574-21.583,4.99c-9.709,5.873-14.519,21.33-17.948,31.548
		c-2.121,6.318-8.262,17.375-7.691,24.117c0.61,7.209,16.358,5.141,22.265,5.494c24.666,1.472,49.173-2.001,73.583-1.955
		c6.578,0.013,13.168,2.27,16.105-4.81c1.724-4.158,3.538-21.426,0.632-23.168c-2.112-1.267-7.827,0.535-10.078,0.811
		c-5.283,0.647-10.428,0.775-15.74,0.787c-9.298,0.02-21.649-1.997-27.396-10.452C163.907,166.535,167.558,137.953,156.479,146.122z
		"/>
	<path style="fill:#D1B2A6;" d="M289.355,183.936c-1.299,0.167-2.047,21.336-1.072,23.107c3.957,7.184,20.04,3.17,26.506,3.642
		c13.955,1.019,27.917-1.027,41.988-1.014c8.729,0.007,17.305,0.589,25.981,1.005c3.469,0.167,12.454,2.557,15.338,0.463
		c5.519-4.006,0.622-15.148-2.33-19.023c-6.847-8.988-23.647-5.702-33.992-6.095c-15.895-0.603-31.752-1.311-47.6-2.114
		C304.674,183.427,295.905,183.154,289.355,183.936z"/>
	<path style="fill:#D1B2A6;" d="M318.766,317.336c6.466,11.573,5.197,25.907,8.814,38.366c2.745,9.456,5.481,18.633,9.567,27.517
		c2.653,5.769,1.831,9.937,7.973,12.229c10.654,3.974,26.254,1.173,37.359,1.103c29.099-0.184,58.151,0.469,87.149,0.195
		c10.892-0.104,17.379,0.202,17.202-12.914c-0.073-5.422-0.067-10.764-4.944-14.027c-8.39-5.615-23.641-5.599-33.258-6.393
		c-33.03-2.726-67.276-3.332-92.073-28.246C348.014,326.584,329.601,299.306,318.766,317.336z"/>
</g>
<g>
	<path style="fill:#AA7F71;" d="M165.203,420.534c16.915-0.472,33.85-2.223,50.85-1.749c24.798,0.691,49.559-0.224,74.331,1.078
		c17.01,0.896,34.021,1.435,51.007,2.345c5.954,0.319,9.033,0.725,8.648,7.135c-0.112,1.874,0.25,2.588-1.583,3.041
		c-1.042,0.258-3.16-0.507-4.308-0.556c-2.494-0.106-5.074,0.135-7.563,0.258c-11.224,0.56-22.532,0.038-33.805,0.017
		c-28.801-0.054-57.676,0.321-86.459,1.554c-13.244,0.567-26.431,0.173-39.65-0.418c-3.587-0.16-7.332-0.029-10.873-0.652
		C160.18,431.601,163.089,427.793,165.203,420.534z"/>
	<path style="fill:#AA7F71;" d="M160.36,440.981c4.536,1.458,10.49,0.529,15.173,0.336c9.523-0.393,19.04-0.351,28.57-0.328
		c17.138,0.039,34.282-1.774,51.428-1.9c16.346-0.119,32.632,1.085,48.971,1.087c7.87,0,15.793-0.094,23.652-0.472
		c6.926-0.333,14.482-1.874,21.346-0.623c2.777,0.506,4.554,1.397,5.235,4.281c0.793,3.359-0.358,3.429-2.977,3.54
		c-15.453,0.656-30.908,1.558-46.37,2.213c-18.85,0.798-37.312,1.116-56.11-0.619c-7.714-0.712-15.09,0.426-22.746,0.773
		c-6.424,0.29-12.918,0.055-19.349,0.055c-13.216,0-26.487,0.58-39.652-0.861C164.328,448.111,155.389,446.697,160.36,440.981z"/>
	<path style="fill:#AA7F71;" d="M174.62,392.015c-2.278,3.187-4.798,10.416-4.801,14.433c2.272-1.478,7.698,0.196,10.298,0.306
		c8.421,0.355,17.05,0.148,25.475,0.054c25.292-0.283,50.518-1.903,75.803-0.262c12.669,0.823,25.274,1.894,37.982,1.882
		c4.78-0.005,9.374-0.382,14.128-0.755c1.889-0.148,6.372,0.193,7.948-1.318c4.266-4.091-2.086-10.808-5.981-11.589
		c-7.323-1.468-15.06-0.878-22.472-0.869c-12.61,0.014-25.186-0.578-37.785-1.015c-22.74-0.789-45.498-0.431-68.231-1.195
		c-6.576-0.221-13.154-0.472-19.734-0.479C181.589,391.202,176.639,392.388,174.62,392.015z"/>
	<path style="fill:#AA7F71;" d="M225.935,366.26c-8.193,0.435-16.377,1.029-24.559,1.635c-6.55,0.485-15.686-0.46-21.057,4.129
		c-0.843,0.72-4.041,8.632-2.7,8.67c13.327,0.382,26.707,0.038,40.046,0.02c10.427-0.014,20.793,1.181,31.209,1.346
		c9.961,0.158,19.898-0.269,29.887-0.269c9.146,0,18.249-0.31,27.374-0.544c7.738-0.198,15.838,0.915,23.479,0.02
		c5.394-0.632,4.559-7.815,0.93-10.65c-2.861-2.235-7.413-2.26-10.883-2.487c-8.935-0.583-17.893-0.764-26.836-1.211
		C270.719,365.815,248.052,365.088,225.935,366.26z"/>
	<path style="fill:#AA7F71;" d="M321.789,341.165c-17.337-0.902-34.764-1.405-52.14-1.942c-10.286-0.318-20.666-1.13-30.957-0.695
		c-7.83,0.331-15.588,1.218-23.393,1.778c-5.612,0.402-11.226,0.891-16.844,1.187c-2.028,0.106-6.75-0.628-8.572,0.468
		c-1.537,0.924-1.559,4.016-2.205,5.795c-0.87,2.394-1.937,4.787-2.807,7.141c2.846,0.632,7.077-0.064,10.165-0.272
		c7-0.47,14.334-0.665,21.346-0.223c17.136,1.082,34.149,1.791,51.328,1.833c16.446,0.039,33.401,0.596,49.791-0.81
		c1.256-0.107,8.248,0.547,8.879-0.782c0.353-0.742-1.009-4.006-1.155-4.733C324.485,346.204,323.83,343.955,321.789,341.165z"/>
	<path style="fill:#AA7F71;" d="M315.063,314.798c-5.013,1.013-10.711,0.406-15.816,0.598c-9.574,0.359-18.999,0.375-28.57,0.196
		c-14.79-0.278-29.698,1.089-44.448,0.491c-8.09-0.328-16.659-1.402-24.715-1.015c-4.922,0.236-5.147,2.689-6.638,6.819
		c-0.374,1.035-2.551,5.075-1.711,6.32c0.756,1.121,3.476,0.593,4.731,0.64c9.02,0.34,18.239-0.06,27.317-0.06
		c22.612,0,45.18,0.498,67.767,1.087c5.23,0.136,10.506,0.159,15.707-0.025c2.082-0.074,7.471,1.011,9.194-0.491
		C320.571,327.014,318.508,317.744,315.063,314.798z"/>
	<path style="fill:#AA7F71;" d="M310.758,288.432c-4.294-0.185-8.845,0.749-13.14,0.942c-9.793,0.441-19.573,0.084-29.363,0.389
		c-14.391,0.45-28.807,0.804-43.207,0.822c-4.256,0.005-8.409-0.547-12.636-0.814c-1.944-0.123-5.414-0.965-7.149,0.277
		c-1.493,1.069-1.663,3.508-2.389,5.111c-1.053,2.325-2.423,4.542-3.207,6.953c21.582,1.245,43.405,0.796,65.02,0.574
		c13.112-0.135,26.252,1.442,39.377,0.872c2.518-0.11,9.583,1.239,10.756-1.643C315.706,299.752,313.78,292.085,310.758,288.432z"/>
	<path style="fill:#AA7F71;" d="M305.109,262.872c-10.932,2.614-23.36,1.124-34.49,1.07c-12.725-0.062-25.513-0.252-38.192,0.252
		c-4.784,0.19-9.661-0.241-14.432-0.507c-2.491-0.14-5.751-1.083-7.75,0.679c-1.791,1.58-1.745,4.582-2.394,6.729
		c-0.636,2.1-1.798,4.224-2.254,6.28c2.816-0.869,6.667-0.285,9.616-0.248c5.746,0.072,11.487,0.556,17.239,0.543
		c13.387-0.03,26.774,0.002,40.161,0.001c9.501-0.001,18.961-0.548,28.46-0.539c2.388,0.002,4.007,0.439,5.366-1.589
		C309,271.716,304.811,267.988,305.109,262.872z"/>
	<path style="fill:#AA7F71;" d="M299.727,238.389c-8.983-2.142-19.277-0.765-28.452-1.099c-10.711-0.389-21.384,0.042-32.101,0.023
		c-7.239-0.013-14.502,0.133-21.738,0.269c-4.996,0.093-4.245,3.502-5.681,7.668c-1.136,3.29-2.25,5.161,1.81,5.789
		c3.118,0.482,6.773-0.192,9.963-0.064c4.475,0.178,8.914,0.179,13.381,0.049c17.155-0.497,34.168,1.103,51.273,1.087
		c2.832-0.002,11.253,1.158,13.7-1.011C303.786,249.413,302.977,241.466,299.727,238.389z"/>
	<path style="fill:#AA7F71;" d="M292.732,217.403c-18.837,0-38.022,2.37-56.796,0.203c-4.367-0.504-12.205-2.276-16.422-0.136
		c-2.007,1.019-2.627,3.305-3.163,5.556c6.883,0.036,14.053,1.416,20.987,1.844c11.426,0.705,23.102,1.68,34.555,1.12
		c6.19-0.303,12.419-1.275,18.532-1.605c1.164-0.063,4.122,0.579,5.082-0.312C296.925,222.757,294.945,219.562,292.732,217.403z"/>
	<path style="fill:#AA7F71;" d="M7.835,399.216c8.162-4.449,19.965-3.126,28.873-3.157c15.311-0.051,31.123-1.724,45.575,3.804
		c7.153,2.736,15.023,2.721,22.581,2.887c9.371,0.207,18.756,0.048,28.112,0.706c8.848,0.623,17.742,0.743,26.595,1.156
		c2.831,0.133,11.087,0.691,6.628,5.413c-2.558,2.708-10.186,1.919-13.374,1.975c-12.183,0.211-24.333-0.03-36.514-0.005
		c-18.725,0.037-37.389-0.67-56.125-0.504c-15.284,0.135-31.045,3.355-46.233,0.816c-2.414-0.404-7.794-0.656-9.659-2.311
		C0.543,406.666,6.792,401.556,7.835,399.216z"/>
	<path style="fill:#AA7F71;" d="M343.924,404.625c7.178,0.788,14.591,0.246,21.882,0.246c10.028,0,20.014,0.112,30.049-0.233
		c24.616-0.847,49.34-0.5,74.016-0.504c10.975-0.001,22.152-1.062,33.104-0.504c4.385,0.223,7.126,3.294,4.741,7.334
		c-0.915,1.548-0.886,2.111-2.958,2.703c-6.055,1.73-14.089,0.66-20.266,0.375c-20.383-0.941-40.921-2.905-61.334-2.543
		c-20.408,0.361-40.816,0.801-61.217,0.018c-4.881-0.187-10.11-0.124-14.829-1.433C345.981,409.769,342.074,407.908,343.924,404.625
		z"/>
</g>
<path d="M511.686,405.073c-0.706-6.891-3.25-10.538-10.311-11.757c-2.174-0.375-4.409-0.749-6.662-1.059
	c0.207-0.921,0.273-1.961,0.162-3.155c-0.693-7.465-4.88-15.05-8.061-21.735c-3.134-6.587-5.274-14.041-7.932-20.848
	c-12.221-31.297-26.367-61.999-36.06-94.205c-2.285-7.594-5.939-13.978-9.31-21.098c-3.167-6.69-5.637-15.176-12.201-19.385
	c-3.749-2.405-8.559-3.097-13.258-3.438c-0.607-3.262-2.337-5.807-3.545-9.033c-1.362-3.637-2.006-7.438-3.57-11.012
	c-3.023-6.908-5.879-13.792-9.339-20.48c-2.013-3.89-4.635-7.555-6.973-11.254c-1.92-3.038-3.336-6.732-6.095-9.144
	c-3.982-3.481-11.001-4.21-16.412-4.579c0.767-4.495,1.28-9.017,1.427-13.585c0.156-4.889,0.602-10.304-0.269-15.117
	c-1.606-8.877-11.284-8.94-19.271-8.991c1.09-4.508,0.386-11.007,0.258-13.183c-0.196-3.364-0.367-8.514-3.283-10.799
	c-2.957-2.317-8.079-2.155-12.065-2.048c0.29-4.927,0.356-10.705-1.138-14.839c-2.004-5.545-9.456-4.388-14.219-4.72
	c-8.404-0.584-17.109,0.039-25.526,0.38c-3.354,0.135-6.609,0.142-9.825,0.207c-7.463-0.63-15.235,0.055-22.448,0.356
	c-3.698,0.154-7.428,0.284-11.148,0.355c-6.824-0.919-13.511-0.628-20.648-0.916c-8.417-0.339-17.122-0.964-25.526-0.38
	c-4.763,0.332-12.216-0.825-14.219,4.72c-1.494,4.135-1.429,9.912-1.138,14.839c-3.986-0.109-9.109-0.27-12.065,2.048
	c-2.916,2.285-3.087,7.436-3.283,10.799c-0.127,2.176-0.832,8.676,0.258,13.183c-7.987,0.051-17.667,0.115-19.271,8.991
	c-0.87,4.815-0.425,10.229-0.269,15.117c0.147,4.57,0.66,9.092,1.427,13.585c-5.412,0.369-12.429,1.099-16.412,4.579
	c-2.758,2.411-4.176,6.105-6.095,9.144c-2.338,3.699-4.96,7.363-6.973,11.254c-3.46,6.688-6.316,13.572-9.339,20.48
	c-1.564,3.574-2.208,7.375-3.57,11.012c-1.208,3.226-2.939,5.771-3.545,9.033c-4.698,0.34-9.509,1.033-13.258,3.438
	c-6.564,4.209-9.033,12.694-12.201,19.385c-3.371,7.12-7.024,13.504-9.31,21.098c-9.695,32.206-23.839,62.908-36.06,94.205
	c-2.658,6.806-4.797,14.261-7.931,20.848c-3.181,6.685-7.369,14.269-8.061,21.735c-0.111,1.194-0.044,2.233,0.162,3.155
	c-2.253,0.31-4.489,0.684-6.662,1.059c-7.061,1.219-9.605,4.866-10.31,11.757c-0.278,2.714-0.838,6.83,0.899,9.193
	c1.853,2.52,4.6,2.185,7.335,2.278c9.562,0.322,19.199,0.805,28.856,0.537c10.143-0.281,20.285-0.287,30.398-0.859
	c9.973-0.564,20.086,0.675,30.084,0.663c10.362-0.012,20.599-0.536,30.95-0.737c4.675-0.091,9.185,0.02,13.839,0.215
	c0.272,0.012,0.55,0.025,0.828,0.037c2.96,0.822,6.019,1.009,9.339,0.682c3.022-0.297,6.113-0.844,9.149-1.031
	c-2.066,6.725-4.311,13.423-5.864,20.258c-1.687,7.424-1.688,13.129,7.076,14.911c5.693,1.157,11.774,0.817,17.558,0.868
	c6.755,0.06,13.479,0.496,20.276,0.5c11.482,0.01,22.948,0.215,34.383-0.412c5.243,0.063,10.538-0.123,15.713,0.054
	c8.135,0.277,16.416,0.074,24.595,0.059c3.471-0.007,7.45,0.328,11.346,0.262c7.953,0.144,15.917,0.045,23.89,0.038
	c6.797-0.006,13.521-0.441,20.276-0.5c5.784-0.051,11.864,0.29,17.558-0.868c8.765-1.782,8.763-7.487,7.076-14.911
	c-1.553-6.835-3.798-13.533-5.864-20.258c3.037,0.187,6.127,0.734,9.149,1.03c3.32,0.326,6.379,0.14,9.339-0.682
	c0.277-0.013,0.555-0.026,0.827-0.037c4.653-0.196,9.163-0.306,13.839-0.215c10.352,0.201,20.587,0.725,30.95,0.737
	c9.998,0.012,20.111-1.226,30.084-0.663c10.113,0.572,20.255,0.578,30.398,0.859c9.659,0.267,19.294-0.215,28.856-0.537
	c2.737-0.092,5.482,0.242,7.335-2.278C512.524,411.904,511.964,407.788,511.686,405.073z M403.944,216.993
	c7.783,1.082,12.79,1.015,17.432,8.185c8.209,12.679,13.168,27.078,17.644,41.363c4.661,14.876,9.659,29.266,15.681,43.676
	c5.951,14.241,10.645,29.063,16.767,43.213c2.652,6.13,4.389,12.589,7.291,18.645c1.297,2.706,2.459,5.378,3.573,8.172
	c0.645,1.617,4.369,8.453,3.632,10.132c-1.748,3.966-18.26,2.958-21.676,3.203c-7.284,0.523-14.61,0.085-21.91-0.288
	c-16.096-0.823-32.078,1.022-48.136,0.425c-16.765-0.623-33.391-0.738-50.192,0.068c-0.135,0.006-0.252,0.037-0.38,0.054
	c-1.802-5.93-3.644-11.85-5.123-17.883c-2.754-11.239-6.124-22.524-9.82-33.483c-3.721-11.035-6.644-21.957-9.118-33.345
	c-2.3-10.584-5.467-20.966-7.694-31.574c-1.254-5.973-3-11.768-4-17.796c-0.931-5.604-1.962-11.031-3.394-16.535
	c-1.648-6.331-2.88-12.747-4.462-19.083c-0.94-3.76-1.764-7.664-3.237-11.266c9.466,0.518,18.893,0.659,28.399,0.721
	c9.135,0.06,18.218-0.699,27.358-0.352c9.057,0.344,18.069,1.351,27.122,1.378C387.706,214.651,396.012,215.891,403.944,216.993z
	 M226.883,191.535c0.259-6.576,1.236-13.13,1.415-19.696c0.08-2.918-0.893-6.052-0.351-8.919c0.688-3.634,4.171-4.047,7.522-4.281
	c1.728,0.049,3.472-0.017,5.115,0.037c4.181,0.137,8.453,0.122,12.627-0.116c5.049-0.287,10.055-0.259,15.062-0.398
	c1.85-0.005,3.689,0.023,5.478,0.247c3.903,0.49,9.409-0.162,10.294,4.51c0.543,2.867-0.43,6-0.35,8.919
	c0.179,6.566,1.156,13.121,1.415,19.696c0.201,5.087-0.607,9.962,0.521,14.821c-2.103-0.165-4.213-0.295-6.341-0.356
	c-3.931-0.112-7.865,0.018-11.796,0.245c-0.026-0.272-0.091-0.553-0.227-0.838c-0.411-0.867,0.031-3.069,0.025-4.102
	c-0.018-2.725,0.008-5.463-0.074-8.185c-0.135-4.462-0.253-8.959-0.552-13.411c-0.158-2.36,0.346-6.498-1.413-8.353
	c-2.317-2.442-8.141-0.977-10.864-0.919c-2.116,0.044-5.81-0.672-7.415,1.102c-1.893,2.093-0.925,7.301-1.068,9.93
	c-0.299,5.564-0.01,11.118-0.209,16.677c-0.106,2.951-0.794,6.421-0.399,9.506c-1.45,0.054-2.899,0.111-4.349,0.148
	c-4.799-0.817-9.721-1.146-14.636-1.22C227.523,201.648,226.679,196.701,226.883,191.535z M249.196,189.585
	c-0.007-4.123,0.258-8.226,0.304-12.341c0.017-1.538-0.351-2.604,0.707-3.451c1.1-0.881,4.59,0.494,6.208,0.515
	c1.639,0.02,4.56-0.873,5.705,0.794c0.262,0.381,0.216,3.425,0.256,3.949c0.248,3.348,0.246,6.719,0.299,10.076
	c0.069,4.428,0.215,8.806,0.09,13.244c-0.041,1.438-0.198,2.819,0.073,4.181c-2.867,0.208-5.73,0.439-8.589,0.644
	c-1.894,0.135-3.788,0.234-5.681,0.325C249.963,201.901,249.205,195.012,249.196,189.585z M230.143,213.791
	c8.028,0.32,16.093,0.142,24.103-0.3c10.766-0.596,21.508-0.586,32.232-0.921c1.411,0.019,2.823,0.037,4.24,0.069
	c0.789,3.371,1.549,6.747,2.297,10.125c-24.672-0.097-49.347-0.158-74.018-0.069c0.696-3.132,1.401-6.263,2.129-9.39
	C224.156,213.601,227.224,213.675,230.143,213.791z M218.11,226.719c25.251,0.094,50.508,0.031,75.761-0.069
	c1.628,7.397,3.236,14.798,4.996,22.174c-28.575-0.115-57.153-0.196-85.725-0.062C214.891,241.429,216.492,234.072,218.11,226.719z
	 M212.252,252.727c29.156,0.141,58.319,0.057,87.478-0.06c1.575,7.326,2.694,14.797,3.995,22.215
	c-31.815-0.127-63.634-0.232-95.446-0.053C209.573,267.449,210.689,260.017,212.252,252.727z M200.111,314.679
	c0.632-3.31,1.3-6.616,1.981-9.922c35.928,0.246,71.867,0.094,107.8-0.05c0.684,3.322,1.356,6.645,1.992,9.972
	c0.798,4.183,1.811,8.274,2.943,12.324c-39.213-0.154-78.437-0.353-117.645-0.042C198.308,322.924,199.316,318.846,200.111,314.679z
	 M206.429,284.436c0.41-1.889,0.781-3.79,1.138-5.696c32.28,0.186,64.568,0.078,96.851-0.053c0.361,1.922,0.734,3.841,1.147,5.747
	c1.191,5.49,2.387,10.994,3.544,16.506c-35.405-0.142-70.817-0.288-106.217-0.051C204.05,295.397,205.241,289.909,206.429,284.436z
	 M196.083,330.766c39.932,0.326,79.88,0.116,119.817-0.041c1.479,4.97,3.105,9.898,4.717,14.874c0.805,2.485,1.591,4.976,2.36,7.471
	c-42.422-0.156-84.861-0.413-127.279-0.062c-2.222,0.001-4.444,0.017-6.667,0.024c0.765-2.483,1.548-4.961,2.349-7.433
	C192.986,340.636,194.607,335.721,196.083,330.766z M187.9,356.772c2.6,0.011,5.198,0.03,7.797,0.031
	c42.788,0.355,85.596,0.09,128.388-0.066c2.25,7.444,4.389,14.92,6.513,22.4c-44.961-0.149-89.942-0.462-134.901-0.09
	c-4.767,0.002-9.532,0.048-14.298,0.085C183.518,371.666,185.655,364.203,187.9,356.772z M172.797,408.728
	c7.631,0.092,15.265,0.15,22.9,0.155c47.829,0.395,95.685,0.018,143.514-0.113c2.157,7.502,4.049,15.083,6.607,22.484
	c-50.029-0.111-100.087-0.54-150.12-0.125c-9.858,0.006-19.713,0.099-29.564,0.263C168.719,423.931,170.622,416.29,172.797,408.728z
	 M195.697,405.087c-7.29,0.005-14.579,0.053-21.866,0.133c0.008-0.03,0.017-0.059,0.026-0.088
	c2.258-7.433,4.392-14.906,6.515-22.383c5.108,0.042,10.215,0.091,15.325,0.094c45.3,0.375,90.623,0.054,135.927-0.093
	c2.123,7.477,4.257,14.95,6.515,22.382c0.007,0.023,0.013,0.044,0.02,0.067C290.679,405.064,243.176,404.694,195.697,405.087z
	 M345.613,111.487c5.982,0.303,10.291,0.358,10.496,7.044c0.247,8.072,0.154,16.15,1.304,24.128
	c-7.319-0.171-14.66,0.497-21.945-0.159c-7.511-0.676-15.165-0.503-22.709-0.712c1.735-4.897,0.459-11.484,0.345-16.388
	c-0.096-4.13-0.838-8.708-0.775-12.99c5.412-0.233,10.82-0.491,16.261-0.652C334.334,111.589,339.845,111.196,345.613,111.487z
	 M305.18,76.96c0.117-1.891,0.353-3.727,0.357-5.631c0.002-1.698,0.284-3.856-0.032-5.738c0.02,0,0.042-0.001,0.062-0.002
	c3.589-0.105,7.089,0.176,10.66,0.358c3.886,0.199,5.42-0.197,6.05,4.159c0.441,3.047,0.342,6.194,0.982,9.153
	c-6.035,0.125-12.069,0.503-18.101,0.87C305.183,79.088,305.115,78.043,305.18,76.96z M301.119,65.771
	c-0.236,1.857-0.191,3.898-0.306,5.557c-0.125,1.826-0.423,3.619-0.572,5.438c-0.099,1.207,0.093,2.448-0.029,3.653
	c-2.08,0.118-4.16,0.223-6.242,0.31c0.417-2.287,0.362-4.908,0.32-7.059c-0.049-2.461-0.048-5.013-0.388-7.491
	C296.324,66.036,298.734,65.89,301.119,65.771z M282.881,66.698c2.28-0.059,4.564-0.158,6.843-0.279
	c-0.264,2.141-0.287,4.326-0.346,6.478c-0.073,2.615-0.363,5.219-0.65,7.822c-0.032,0.061-0.059,0.123-0.082,0.186
	c-0.049,0.001-0.098,0.004-0.148,0.005c-1.97,0.041-3.937,0.088-5.904,0.144c-0.024-0.961-0.027-1.926,0.106-2.909
	c0.242-1.773,0.341-3.246,0.279-5.105c-0.068-2.006,0.084-4.344-0.554-6.287C282.578,66.735,282.73,66.719,282.881,66.698z
	 M237.405,66.663c6.107,0.856,12.717,0.448,18.354,0.364c7.209-0.105,15.163,0.614,22.734,0.116
	c-0.347,2.336-0.431,4.806-0.556,7.058c-0.082,1.465-0.418,2.385-0.679,3.784c-0.202,1.078-0.116,2.171-0.045,3.265
	c-2.721,0.123-5.437,0.29-8.147,0.525c-3.503-0.187-7.006-0.376-10.522-0.356c-7.649,0.045-15.526-0.565-23.242-0.143
	c-0.173-0.008-0.345-0.018-0.518-0.026c0.07-1.094,0.155-2.185-0.045-3.265c-0.262-1.399-0.597-2.319-0.679-3.784
	c-0.134-2.377-0.208-5.003-0.609-7.452C234.772,66.745,236.091,66.715,237.405,66.663z M229.58,66.713
	c-0.654,1.951-0.498,4.308-0.566,6.327c-0.063,1.859,0.037,3.332,0.279,5.105c0.135,0.983,0.13,1.948,0.106,2.909
	c-1.967-0.056-3.935-0.104-5.904-0.144c-0.049-0.001-0.098-0.004-0.148-0.005c-0.024-0.063-0.05-0.125-0.082-0.186
	c-0.287-2.602-0.577-5.207-0.65-7.822c-0.06-2.152-0.082-4.337-0.346-6.478C224.705,66.55,227.146,66.657,229.58,66.713z
	 M218.093,66.181c-0.339,2.478-0.339,5.03-0.388,7.491c-0.043,2.152-0.097,4.773,0.32,7.059c-2.08-0.088-4.16-0.193-6.242-0.31
	c-0.122-1.206,0.069-2.447-0.029-3.653c-0.148-1.819-0.445-3.612-0.572-5.438c-0.115-1.66-0.069-3.7-0.306-5.557
	C213.262,65.89,215.67,66.036,218.093,66.181z M189.717,70.106c0.63-4.355,2.165-3.96,6.05-4.159c3.57-0.183,7.07-0.463,10.66-0.358
	c0.02,0,0.042,0.001,0.062,0.002c-0.315,1.883-0.035,4.04-0.032,5.738c0.004,1.905,0.24,3.739,0.357,5.631
	c0.067,1.083-0.002,2.127,0.021,3.169c-6.034-0.368-12.066-0.745-18.101-0.87C189.375,76.301,189.275,73.153,189.717,70.106z
	 M175.215,94.656c0.039-1.752,0.113-3.429,0.355-5.169c0.767-1.513,0.894-2.289,0.414-2.361c0.262-0.079,0.523-0.158,0.786-0.238
	c8.97-1.628,18.539-0.216,27.577,0.061c13.878,0.426,28.497,2.729,42.393,0.89c3.606,0.072,7.213,0.128,10.827,0.127
	c7.266-0.002,16.301,1.628,24.177,0.498c8.689-0.293,17.436-1.254,25.906-1.514c9.038-0.278,18.607-1.688,27.577-0.061
	c0.261,0.079,0.523,0.158,0.786,0.238c-0.48,0.072-0.352,0.848,0.414,2.361c0.241,1.74,0.315,3.417,0.355,5.169
	c0.078,3.437,0.1,6.862,0.228,10.294c-12.853-0.792-26.008,0.193-38.884,0.161c-5.333-0.013-10.599,0.478-15.889,0.929
	c-6.748-0.278-13.536,0.006-20.288,0.304c-4.607,0.203-9.253,0.517-13.882,0.608c-4.573-0.541-9.231-0.221-13.849-0.554
	c-6.798-0.492-13.517-1.303-20.345-1.286c-12.877,0.032-26.032-0.953-38.884-0.161C175.114,101.519,175.137,98.092,175.215,94.656z
	 M308.772,124.418c-0.139,5.521-0.934,11.64-0.345,17.195c-7.832-0.422-15.645-1.415-23.539-1.629
	c-0.621-0.017-1.243-0.007-1.865-0.014c-2.886-0.174-5.813-0.076-8.572-0.011c0.7-5.192-0.246-11.626-0.591-16.5
	c-0.235-3.316-0.205-7.057-0.841-10.503c0.764,0.007,1.53,0.007,2.296,0.004c6.159,0.37,12.432-0.02,18.542-0.037
	c5.008-0.013,9.979-0.17,14.94-0.367C308.313,116.42,308.861,120.864,308.772,124.418z M245.541,112.978
	c5.467,0.201,10.941-0.016,16.407-0.115c1.476-0.026,2.99-0.019,4.526,0c-0.416,3.238,0.233,6.925,0.352,9.836
	c0.234,5.711,0.216,11.574-0.078,17.308c-3.68-0.019-7.358-0.072-11.042-0.048c-3.538,0.023-6.966,0.239-10.442,0.426
	c-0.312-5.855-0.333-11.851-0.093-17.687C245.289,119.823,245.926,116.189,245.541,112.978z M237.551,140.031
	c-3.481-0.074-6.965-0.14-10.444-0.045c-7.894,0.214-15.707,1.207-23.539,1.629c0.589-5.555-0.207-11.673-0.345-17.195
	c-0.09-3.554,0.459-7.998-0.026-11.862c4.963,0.197,9.932,0.353,14.94,0.367c6.879,0.019,13.966,0.517,20.862-0.136
	c-0.668,3.493-0.626,7.304-0.865,10.673C237.789,128.355,236.833,134.827,237.551,140.031z M155.886,118.531
	c0.205-6.686,4.514-6.741,10.496-7.044c5.769-0.293,11.279,0.102,17.023,0.272c5.441,0.161,10.851,0.42,16.261,0.652
	c0.062,4.281-0.679,8.859-0.775,12.99c-0.113,4.904-1.39,11.491,0.345,16.388c-7.544,0.208-15.198,0.036-22.709,0.712
	c-7.285,0.656-14.626-0.012-21.945,0.159C155.731,134.681,155.638,126.603,155.886,118.531z M114.979,202.222
	c1.365-3.533,1.999-7.279,3.252-10.851c2.374-6.77,4.653-13.751,7.904-20.15c1.663-3.273,3.942-6.386,5.957-9.45
	c2.062-3.136,4.422-7.794,7.994-9.352c5.883-2.566,14.245-2.897,20.605-3.002c7.777-0.129,15.412-0.759,23.155-1.068
	c6.916-0.275,13.862-0.116,20.731-0.872c10.205-1.124,20.408-1.47,30.631-1.764c2.131,0.142,4.283,0.104,6.09,0.13
	c4.799,0.069,9.606,0.19,14.41,0.22c5.893,0.037,11.885,0.232,17.758-0.23c0.71-0.056,1.442-0.105,2.188-0.153
	c10.603,0.301,21.186,0.632,31.769,1.797c6.868,0.756,13.814,0.596,20.731,0.872c7.742,0.308,15.377,0.939,23.155,1.068
	c6.36,0.105,14.722,0.436,20.605,3.002c3.573,1.558,5.932,6.216,7.994,9.352c2.016,3.064,4.294,6.176,5.957,9.45
	c3.251,6.399,5.53,13.38,7.904,20.15c1.253,3.57,1.887,7.317,3.251,10.851c0.689,1.783,1.983,3.733,2.689,5.658
	c-8.012-0.559-15.958-0.75-23.981-0.732c-8.741,0.02-17.499-1.026-26.258-0.921c-9.279,0.111-18.489,0.817-27.776,0.878
	c-9.023,0.059-17.947-0.171-26.939-0.441c-1.238-0.037-2.485-0.066-3.734-0.085c1.74-6.257,1.477-14.139,0.935-20.171
	c-0.37-4.12-0.353-8.258-0.718-12.373c-0.331-3.734,0.214-7.409-0.145-11.116c-0.69-7.155-4.655-8.654-11.201-9.664
	c-4.542-0.7-9.024-0.945-13.611-0.956c-0.39-0.001-0.755,0.012-1.116,0.027c-4.287-0.374-8.783-0.056-13.061,0.242
	c-0.699,0.049-1.442,0.074-2.209,0.09c-1.265-0.227-2.594-0.363-4.181-0.359c-4.588,0.011-9.069,0.256-13.611,0.956
	c-6.546,1.009-10.51,2.509-11.201,9.664c-0.357,3.706,0.186,7.382-0.144,11.116c-0.364,4.115-0.347,8.254-0.718,12.373
	c-0.542,6.031-0.804,13.913,0.935,20.171c-1.249,0.019-2.494,0.048-3.734,0.085c-8.991,0.27-17.916,0.499-26.939,0.441
	c-9.288-0.061-18.498-0.767-27.776-0.878c-8.759-0.105-17.517,0.94-26.258,0.921c-8.022-0.018-15.967,0.173-23.981,0.732
	C112.994,205.955,114.29,204.005,114.979,202.222z M29.663,380.249c1.115-2.794,2.276-5.467,3.573-8.172
	c2.902-6.055,4.639-12.514,7.291-18.645c6.122-14.15,10.816-28.972,16.767-43.213c6.022-14.409,11.02-28.8,15.681-43.676
	c4.475-14.285,9.434-28.684,17.644-41.363c4.643-7.172,9.651-7.105,17.432-8.185c7.931-1.102,16.237-2.342,24.242-2.365
	c9.054-0.027,18.065-1.034,27.123-1.378c9.14-0.346,18.224,0.413,27.358,0.352c9.506-0.062,18.932-0.203,28.399-0.721
	c-1.473,3.601-2.297,7.505-3.237,11.266c-1.582,6.335-2.814,12.75-4.462,19.083c-1.432,5.504-2.462,10.931-3.394,16.535
	c-1.002,6.028-2.746,11.821-4,17.796c-2.227,10.607-5.393,20.988-7.693,31.574c-1.356,6.244-2.855,12.347-4.54,18.407
	c-0.087,0.158-0.162,0.332-0.258,0.479c-0.222,0.905-0.448,1.81-0.671,2.715c0.008,0,0.017,0,0.025,0
	c-1.136,3.918-2.352,7.824-3.674,11.744c-3.696,10.959-7.067,22.243-9.821,33.483c-1.478,6.033-3.321,11.953-5.123,17.883
	c-0.128-0.017-0.245-0.048-0.38-0.054c-16.801-0.806-33.427-0.691-50.192-0.068c-16.058,0.597-32.041-1.248-48.136-0.425
	c-7.301,0.373-14.626,0.811-21.91,0.288c-3.415-0.246-19.928,0.763-21.676-3.203C25.293,388.702,29.018,381.866,29.663,380.249z
	 M151.85,408.574c-2.643,0.035-5.255-0.156-7.867-0.227c-3.377-0.319-6.733-0.675-10.164-0.696
	c-7.871-0.05-15.663,0.427-23.49,0.534c-9.426,0.128-19.031,0.275-28.429-0.406c-7.862-0.571-15.484,0.41-23.297,0.443
	c-8.618,0.037-17.127,0.739-25.718,0.96c-4.318,0.111-8.724-0.142-13.01,0.41c-3.312,0.426-6.138,0.039-9.444,0.002
	c0.116,0.001-4.367-0.215-3.443,0.817c-0.855-0.955,0.387-4.92,0.608-6.145c0.591-3.28,1.226-3.767,4.835-4.376
	c3.673-0.621,7.268-1.171,10.836-1.906c0.583,0.203,1.198,0.384,1.839,0.552c7.45,1.931,15.992,1.515,23.653,2.182
	c9.62,0.837,19.308-0.614,28.964-0.74c9.835-0.129,20.063,0.164,29.843,1.108c9.301,0.898,18.624-0.01,27.948-0.044
	c10.203-0.038,20.323,0.79,30.552,0.46c-0.512,1.804-1.011,3.613-1.472,5.432c-0.102,0.398-0.214,0.794-0.32,1.192
	c-0.096-0.016-0.193-0.017-0.29-0.029C160.077,407.445,155.771,408.522,151.85,408.574z M336.635,444.06
	c-22.55-1.236-45.318,0.856-67.852,0.984c-0.578,0.004-1.048,0.146-1.463,0.343c-3.551-0.072-7.104-0.107-10.67-0.167
	c-4.229-0.072-8.448-0.121-12.675-0.091c-0.239-0.049-0.488-0.084-0.763-0.085c-22.534-0.128-45.301-2.221-67.852-0.984
	c-2.311,0.127-13.204,2.118-13.697,0.189c-0.185-0.725,1.268-3.316,1.483-3.987c0.604-1.888,1.23-3.755,1.87-5.621
	c10.224,0.178,20.45,0.276,30.681,0.282c50.437,0.418,100.902-0.023,151.335-0.128c0.621,1.815,1.229,3.631,1.816,5.468
	c0.215,0.671,1.668,3.262,1.483,3.987C349.839,446.178,338.946,444.186,336.635,444.06z M505.006,410.409
	c0.924-1.033-3.558-0.816-3.443-0.817c-3.306,0.037-6.132,0.424-9.444-0.002c-4.286-0.55-8.692-0.297-13.01-0.41
	c-8.591-0.221-17.101-0.923-25.718-0.96c-7.813-0.033-15.435-1.014-23.297-0.443c-9.399,0.682-19.003,0.535-28.429,0.406
	c-7.827-0.106-15.619-0.584-23.49-0.534c-3.431,0.023-6.786,0.377-10.164,0.696c-2.611,0.07-5.223,0.261-7.867,0.227
	c-3.921-0.051-8.227-1.13-12.132-0.48c-0.096,0.012-0.195,0.013-0.29,0.029c-0.106-0.398-0.219-0.793-0.32-1.192
	c-0.461-1.82-0.961-3.628-1.472-5.432c10.229,0.33,20.348-0.498,30.552-0.46c9.323,0.035,18.647,0.942,27.948,0.044
	c9.78-0.944,20.008-1.237,29.843-1.108c9.654,0.127,19.344,1.577,28.964,0.74c7.66-0.666,16.203-0.251,23.653-2.182
	c0.641-0.166,1.255-0.349,1.839-0.552c3.568,0.734,7.163,1.286,10.836,1.906c3.609,0.609,4.244,1.097,4.835,4.376
	C504.62,405.49,505.861,409.454,505.006,410.409z"/>
<g>
</g>
<g>
</g>
<g>
</g>
<g>
</g>
<g>
</g>
<g>
</g>
<g>
</g>
<g>
</g>
<g>
</g>
<g>
</g>
<g>
</g>
<g>
</g>
<g>
</g>
<g>
</g>
<g>
</g>
</svg>
