<?xml version="1.0" encoding="iso-8859-1"?>
<!-- Generator: Adobe Illustrator 19.0.0, SVG Export Plug-In . SVG Version: 6.00 Build 0)  -->
<svg version="1.1" id="Layer_1" xmlns="http://www.w3.org/2000/svg" xmlns:xlink="http://www.w3.org/1999/xlink" x="0px" y="0px"
	 viewBox="0 0 512.001 512.001" style="enable-background:new 0 0 512.001 512.001;" xml:space="preserve">
<path style="fill:#E2E2E2;" d="M508.98,387.848c-1.326-7.134-9.22-6.533-14.726-6.86c-7.937-0.473-15.884-0.787-23.833-0.96
	c-16.63-0.363-33.118,0.415-49.761,0.319c-0.928-0.006-2.086-0.17-2.369-1.054c-0.316-0.989,0.768-1.82,1.693-2.291
	c14.291-7.273,32.956-12.558,42.07-26.881c7.729-12.145,14.019-24.66,13.249-39.588c-7.877-5.018-16.335-3.657-24.41-3.922
	c-25.974-0.853-51.462,1.337-77.483,1.212c-26.632-0.127-53.257-1.075-79.889-0.438c-5.991,0.144-12.013,0.141-17.956,0.801
	c-5.571,0.618-9.311,5.415-8.547,11.179c0,11.128,5.213,24.675,11.606,33.611c8.056,11.26,20.102,16.487,32.369,21.901
	c1.067,0.471,2.208,1.009,2.764,2.033c0.88,1.626-0.22,3.755-1.841,4.642c-1.622,0.887-3.569,0.869-5.418,0.83
	c-14.939-0.325-29.878-0.65-44.818-0.974c-2.554-0.055-5.3-0.176-7.324-1.734c-3.148-2.423-3.157-7.153-2.299-11.032
	c4.517-20.419,2.111-43.218,2.299-64.085c0.207-23.108,0.385-46.217,0.347-69.327c-0.075-45.754-0.731-91.508-1.441-137.258
	c-0.1-6.456,1.271-13.687-6.184-20.498c-5.834,0-13.284-0.235-20.712,0.073c-6.149,0.256-9.816,3.648-10.411,9.618
	c-0.593,5.96-0.815,11.987-0.723,17.977c0.301,19.55,0.698,39.098,1.062,58.645c0.171,9.184-0.277,18.619,0.724,27.751
	c0.62,5.664,3.009,15.504-2.09,19.78c-2.408,2.02-5.892,1.914-9.029,1.7c-3.503-0.238-7.446-0.698-9.592-3.477
	c-3.395-4.393-0.163-12.515-0.036-17.596c0.694-27.745,1.621-55.485,2.077-83.233c0.157-9.568,1.698-19.488-3.546-28.987
	c-12.22-5.145-24.073-6.695-36.894,2.934c0,19.157,0.078,38.588-0.021,58.019c-0.104,20.255-0.502,40.51-0.54,60.765
	c-0.037,19.499,0.218,39,0.352,58.5c0.139,20.255,0.71,40.519,0.307,60.762c-0.223,11.212,0.806,22.394,1.005,33.599
	c0.09,5.014,0.172,9.206,1.267,13.901c0.944,4.046,1.102,8.112-1.776,11.511c-2.938,3.468-8.647,4.473-12.225,1.669
	c-5.013-3.931-3.238-11.075-6.32-16.026c-3.373-5.419-8.186-9.942-13.231-13.783c-27.204-20.716-73.712-15.944-98.681,10.421
	c-4.071,4.299-6.415,10.265-10.585,14.431c-1.881,1.879-4.12,3.662-6.509,4.722c-2.763,1.226-5.36,0.994-7.161,3.984
	c-1.66,2.754-0.68,7.052,2.375,8.058c2.179,0.717,4.491-0.323,6.743-0.753c12.357-2.359,6.694,20.328,6.909,26.05
	c0.025,0.652,0.032,1.362-0.368,1.878c-0.867,1.121-2.635,0.401-4.044,0.543c-2.31,0.233-3.522,2.869-3.873,5.165
	c-0.394,2.575-0.224,5.407,1.348,7.483c2.273,3.002,4.244,1.469,6.964,1.209c3.42-0.328,7.005,0.191,10.539,0.133
	c65.236-1.065,130.521,0.287,195.696-4.066c10.453-0.698,20.997-0.257,31.493-0.066c74.24,1.35,148.478,2.779,222.718,4.155
	c6.036,0.111,12.37,0.489,18.358-0.093c0.643-3.036,1.159-6.999,0.298-10.113c-1.442-5.219-4.044-2.325-7.374-4.979
	c-1.324-1.055-1.3-3.038-1.158-4.726c0.401-4.74,0.802-9.481,1.203-14.222c0.179-2.119,0.394-4.341,1.505-6.135
	c0.061-0.098,0.125-0.196,0.191-0.29c2.545-3.666,6.831-1.586,10.292-1.083c1.474,0.215,3.111,0.036,4.211-0.968
	C509.002,391.231,509.274,389.428,508.98,387.848z M214.834,375.689c-1.941,4.55-7.8,4.54-12.061,4.641
	c-3.488,0.083-7.324,0.831-8.725-3.025c-0.877-2.414-0.247-5.07-0.097-7.552c0.287-4.745,0.084-9.557,0.123-14.311
	c0.086-10.798,0.225-21.595,0.375-32.392c0.287-20.673-0.169-41.561,1.18-62.201c-0.071-0.116-0.124-0.243-0.175-0.372
	c-1.359-0.981-0.974-3.685,1.154-3.685c0.272,0,0.509,0.053,0.724,0.132c4.891-1.788,10.683-0.241,15.647,0.53
	c0.982,0.152,1.665,1.294,1.675,2.201c0.286,23.725-3.383,47.359-2.384,71.086c0.404,9.603,1.209,19.279,2.319,28.827
	C215.175,364.609,216.917,370.805,214.834,375.689z"/>
<g>
	<path style="fill:#C4C4C4;" d="M178.685,77.72c0.464,8.842-1.302,17.998-1.782,26.841c-1.082,19.889-1.177,39.839-0.554,59.747
		c1.155,36.911,0.02,74.224,0.089,111.177c0.065,35.253-2.035,70.457,3.014,105.36c-3.618-2.735-10.019,0.556-13.816,1.194
		c-4.728,0.794-5.117-0.592-5.34-4.761c-2.567-48.031-0.986-95.995-2.918-144.092c-0.437-10.86-0.47-21.627,0.334-32.476
		c0.537-7.252,1.171-14.485,1.738-21.737c1.527-19.499,0.051-39.932-0.938-59.483c-0.569-11.246-1.223-23.039-0.101-34.243
		C159.323,76.124,168.233,79.292,178.685,77.72z"/>
	<path style="fill:#C4C4C4;" d="M236.109,77.72c0.464,8.842-1.302,17.998-1.782,26.841c-1.082,19.889-1.177,39.839-0.554,59.747
		c1.155,36.911,0.02,74.224,0.089,111.177c0,0.309,0.001,0.618,0.001,0.927c0.011,15.43-0.378,30.857-0.379,46.287
		c-0.001,14.925,1.374,29.734,1.691,44.619c0.083,3.909-0.129,8.185-3.591,10.661c-3.558,2.546-10.359,2.824-13.615-0.224
		c-5.551-5.193-3.576-16.49-3.948-23.252c-1.911-34.716,2.228-69.354,2.949-103.996c0.213-10.234,0.771-20.336,0.39-30.571
		c-1.246-33.492,0.269-66.973-1.423-100.444c-0.569-11.246-1.223-23.039-0.101-34.243C216.747,76.124,225.657,79.292,236.109,77.72z
		"/>
	<path style="fill:#C4C4C4;" d="M267.636,314.171c0,11.332,1.135,22.573,5.662,33.067c4.153,9.626,13.517,16.027,22.575,20.594
		c8.787,4.43,18.217,8.098,27.878,10.05c12.464,2.52,25.16,2.006,37.758,3.05c19.428,1.61,39.574,2.027,58.296-4.219
		c9.866-3.291,17.222-9.089,26.05-14.172c3.236-1.863,5.98-2.596,8.641-5.423c3.234-3.434,5.755-7.539,8.669-11.237
		c2.218-2.815,6.464-6.041,6.828-9.881c0.422-4.459-2.148-6.935-6.344-5.82c-5.051,1.341-8.448,6.685-12.194,9.985
		c-6.661,5.866-13.868,10.227-22.5,12.39c-12.032,3.015-24.226,1.799-36.475,0.932c-13.6-0.963-27.781-1.951-40.956-5.592
		c-11.013-3.042-21.578-7.375-29.24-16.208c-5.063-5.838-3.183-11.452-5.498-17.872c-1.893-5.249-8.408-5.852-13.192-6.326
		c-8.572-0.849-16.709-0.142-25.224,0.969c-2.467,0.322-5.455,0.087-7.812,0.91c-5.392,1.883-4.339,7.647-4.423,12.685"/>
	<path style="fill:#C4C4C4;" d="M75.097,340.068c-9.304,3.144-18.722,2.607-27.822,7.152c-5.303,2.648-10.751,6.338-15.338,10.012
		c-4.83,3.869-9.753,8.48-12.668,14.071c-2.276,4.364-5.874,8.751,0.15,10.039c4.897,1.047,10.635,0.017,15.635,0.02
		c7.425,0.006,14.854-0.385,22.297-0.385c14.572,0,29.132,0.769,43.693,0.751c11.068-0.014,22.095-0.448,33.09-0.749
		c5.075-0.14,12.819-0.917,5.768-7.619c-5.257-4.998-17.508-4.893-24.241-5.424c-9.365-0.739-20.143-1.752-28.722-5.907
		c-5.301-2.567-12.07-8.149-10.891-14.755C76.482,344.838,80.706,337.108,75.097,340.068z"/>
	<path style="fill:#C4C4C4;" d="M14.295,428.268c22.811,0,45.443-2.252,68.257-2.252c55.997,0,111.999-1.877,168.006-1.877
		c9.276,0,18.54-0.677,27.812-0.689c3.78-0.006,6.92,1.187,10.674,1.477c4.645,0.359,9.321-0.037,13.97-0.037
		c14.103,0,28.177-0.394,42.289-0.377c11.131,0.014,22.289-1.373,33.423-0.983c15.363,0.538,30.792,1.914,46.2,2.465
		c17.877,0.64,36.309-1.576,54.092,0.241c4.455,0.456,8.878,1.635,13.305,2.046c2.11,0.196,4.109-0.62,5.579,1.257
		c5.268,6.722-15.39,5.308-17.501,5.401c-13.371,0.589-26.741,0.481-40.113,0.063c-6.956-0.217-13.911-0.352-20.867-0.646
		c-9.924-0.419-19.829,0.88-29.746,0.554c-3.599-0.118-6.815-1.276-10.369-1.463c-5.032-0.265-10.162,0.258-15.216,0.093
		c-19.739-0.641-39.492-0.694-59.233-1.271c-9.38-0.275-19.355-1.842-28.68-1.099c-9.264,0.739-18.498,0.72-27.872,0.456
		c-16.364-0.459-32.879,0.526-49.263,0.385c-11.665-0.1-23.33,0.106-34.994,0.252c-10.984,0.137-22.064,1.189-33.014,0.911
		c-29.5-0.75-59.149,0.381-88.682-0.024c-8.245-0.113-16.19,1.143-24.317,1.511C11.81,434.944,10.778,431.848,14.295,428.268z"/>
	<path style="fill:#C4C4C4;" d="M2.285,388.11c1.1-0.982,9.11,0.374,10.82,0.394c4.23,0.051,8.463-0.016,12.692-0.142
		c8.504-0.253,16.999-0.783,25.495-1.213c14.731-0.745,29.321-0.287,43.909-0.167c8.162,0.068,16.297-0.338,24.44-0.373
		c19.846-0.087,39.593-1.137,59.421-1.127c22.139,0.011,44.252,0.322,66.394,0.374c17.295,0.041,34.589-1.125,51.928-1.125
		c3.709,0,7.148-0.885,10.842-0.673c5.278,0.302,10.476,1.44,15.75,1.8c10.819,0.741,21.619,1.48,32.453,1.884
		c15.361,0.573,31.276-0.555,46.656-1.12c27.483-1.01,55.002-0.69,82.506,0.755c3.815,0.2,21.712-1.905,23.035,2.982
		c-2.745,4.309-15.62,2.886-19.722,2.993c-14.815,0.384-29.628-1.115-44.476-1.115c-19.01,0-38.035,0.215-57.024-0.395
		c-9.688-0.311-19.634-0.73-29.318-0.272c-9.64,0.456-20.281,2.693-29.882,1.411c-6.794-0.908-13.402-1.191-20.351-1.11
		c-17.592,0.204-35.088-0.177-52.668-0.403c-10.164-0.131-20.391-0.238-30.549-0.083c-6.85,0.105-12.337,0.449-18.93-0.877
		c-8.886-1.787-19.19,0.891-28.197,0.989c-15.088,0.164-30.19,0.007-45.279-0.009c-32.371-0.034-64.415,1.507-96.814,1.501
		c-8.641-0.001-17.217-0.396-25.817-0.742C7.605,392.165-1.828,391.853,2.285,388.11z"/>
</g>
<g>
	<path style="fill:#54576D;" d="M215.092,217.339c-3.337,1.163-7.5,0.387-10.967,0.367c-1.961-0.011-7.702-0.329-9.226,0.835
		c-3.046,2.328-2.104,12.383-1.96,15.611c0.175,3.925-0.021,8.239,0.44,12.029c5.534,1.347,13.043,0.892,18.709,0.056
		c5.215-0.768,4.954-7.034,5.199-12.036C217.504,229.791,217.646,221.317,215.092,217.339z"/>
	<path style="fill:#54576D;" d="M19.925,395.24c0,5.736-0.338,11.569,0.421,17.249c0.146,1.092,0.114,4.357,0.696,5.184
		c1.218,1.729,1.026,0.788,3.2,0.835c15.214,0.334,30.6-2.006,45.926-1.416c10.882,0.419,21.772,0.667,32.681,0.667
		c20.864,0,41.843-1.13,62.756-1.126c16.82,0.003,33.631,0.781,50.452,0.691c19.323-0.104,38.415-0.111,57.858-0.89
		c21.172-0.847,42.38-0.497,63.561-1.009c8.567-0.207,17.281,1.477,25.999,1.625c30.19,0.51,60.761-1.653,90.888,0.332
		c11.336,0.746,24.978,3.094,36.156,0.32c1.36-5.719,2.2-12.425,1.913-18.23c-0.267-5.387-1.583-5.647-6.989-6.1
		c-12.816-1.076-26.19,1.102-39.147,1.118c-21.386,0.026-43.229,0.1-64.508-0.669c-29.973-1.084-59.991,0.826-89.944-0.47
		c-31.804-1.376-63.791-2.781-95.543-1.574c-13.533,0.515-27.06,1.522-40.573,2.44c-21.12,1.434-42.004-0.643-63.045-0.471
		c-16.618,0.136-33.51,1.3-50.089,0.665C37.549,394.22,24.002,391.067,19.925,395.24z"/>
</g>
<g>
	<path style="fill:#3A3F51;" d="M19.925,393.042c0,2.521-0.338,5.085,0.421,7.582c0.146,0.48,0.114,1.915,0.696,2.279
		c1.218,0.76,1.026,0.347,3.2,0.367c15.214,0.146,30.6-0.882,45.926-0.623c10.882,0.185,21.772,0.293,32.681,0.293
		c20.864,0,41.843-0.497,62.756-0.495c16.82,0.001,33.631,0.343,50.452,0.304c19.323-0.045,38.415-0.048,57.858-0.391
		c21.172-0.373,42.38-0.218,63.561-0.444c8.567-0.091,17.281,0.65,25.999,0.714c30.19,0.224,60.761-0.726,90.888,0.146
		c11.336,0.329,24.978,1.36,36.156,0.141c1.36-2.514,2.2-5.462,1.913-8.013c-0.267-2.368-1.583-2.482-6.989-2.682
		c-12.816-0.473-26.19,0.484-39.147,0.492c-21.386,0.011-43.229,0.044-64.508-0.294c-29.973-0.476-59.991,0.364-89.944-0.206
		c-31.804-0.605-63.791-1.223-95.543-0.692c-13.533,0.226-27.06,0.669-40.573,1.072c-21.12,0.631-42.004-0.283-63.045-0.207
		c-16.618,0.06-33.51,0.572-50.089,0.293C37.549,392.594,24.002,391.209,19.925,393.042z"/>
	<path style="fill:#3A3F51;" d="M192.973,231.959c-0.024,1.619-0.001,3.072-0.021,4.132c-0.056,2.966,0.105,6.784,2.24,9.107
		c2.648,2.88,18.476,3.716,20.659-0.057c0.703-1.215,0.363-6.662-0.946-7.552c-2.166-1.472-5.711,2.336-8.554,1.168
		c-4.962-2.041-1.393-9.247-1.392-12.986c0.001-5,0.036-7.627-5.762-6.669C193.032,220.121,193.058,226.288,192.973,231.959z"/>
</g>
<path d="M511.748,383.759c-1.216-5.965-9.207-5.116-13.749-5.299c-7.837-0.314-15.414-1.499-23.292-1.132
	c-16.895,0.786-33.724,0.356-50.616,0.155c4.193-1.397,8.296-3.058,12.324-5c8.049-3.882,15.906-7.723,22.043-14.3
	c5.489-5.882,9.717-12.503,12.947-19.884c3.349-7.651,5.97-16.004,6.375-24.381c0.108-2.246,0.267-5.45-1.314-7.266
	c-2.428-2.79-7.449-1.808-10.72-2.014c-19.543-1.226-39.11,0.814-58.66-0.605c-11.445-0.83-23.019-0.581-34.503-0.447
	c-6.362,0.074-12.612,0.369-18.945,0.864c-1.967,0.153-4.067,0.098-5.997,0.578c-0.424,0.105-0.892,0.321-1.375,0.551
	c-12.46-0.595-24.968-0.865-37.346-0.455c-8.888,0.294-17.859-0.781-26.713-0.301c-5.487,0.297-14.882-0.744-17.55,5.606
	c-2.636,6.273-0.475,15.467,0.885,21.745c1.696,7.823,5.057,15.619,9.698,22.166c4.026,5.678,8.039,10.491,14.172,13.934
	c6.509,3.655,13.313,6.551,20.417,8.864c0.269,0.088,0.543,0.163,0.813,0.248c-2.464-0.123-4.926-0.16-7.394-0.155
	c-0.07,0-0.14,0-0.208,0c-4.067,0.011-8.149,0.099-12.27-0.025c-5.496-0.166-11.02-0.5-16.511-0.595
	c-5.942-0.102-11.982,0.737-17.952,0.296c-0.258-0.019-0.519-0.032-0.777-0.048c-0.404-9.422,0.233-18.941,0.266-28.381
	c0.017-4.933,0.802-9.823,0.558-14.756c-0.296-6.022-0.463-11.985-0.461-18.018c0.009-22.794-0.187-45.546,0.101-68.336
	c0.289-22.84,0.722-45.633,0.602-68.498c-0.114-21.952-0.967-43.892-1.174-65.856c-0.055-5.885,0.134-11.85-0.262-17.723
	c-0.331-4.902,0.141-10.067-0.69-14.911c-1.35-7.872-13.226-5.143-19.13-5.178c-6.597-0.039-17.586-3.368-21.547,4.319
	c-1.588,3.081-1.437,8.082-1.692,11.477c-0.454,6.025-0.396,12.043-0.372,18.09c0.05,11.746-0.348,23.468,0.383,35.192
	c0.62,9.942,0.821,19.989,0.93,29.964c0.105,9.557,1.171,19.062,1.222,28.626c0.009,1.69,0.029,3.377,0.047,5.065
	c-2.669-0.232-5.495,0.331-8.109,0.343c-3.195,0.015-6.256-0.209-9.308,0.188c0.384-9.925,1.145-19.83,1.215-29.751
	c0.045-6.343,0.747-12.679,1.003-19.012c0.29-7.133-0.824-14.156,0.127-21.272c0.779-5.826,0.195-11.732,0.66-17.604
	c0.595-7.508,0.697-15.23,0.563-22.76c-0.134-7.583,0.381-22.839-10.119-23.49c-5.969-0.37-12.654-1.291-18.623-0.924
	c-4.788,0.295-12.631,1.009-15.428,5.553c-2.593,4.214-0.95,9.983-1.367,14.595c-0.403,4.459-0.286,9.059,0.172,13.593
	c-0.003,0.655-0.014,1.308-0.007,1.966c0.098,10.306-0.101,20.625-0.127,30.933c-0.048,19.831-0.394,39.658-0.722,59.438
	c-0.082,5-0.712,9.979-0.894,14.977c-0.151,4.167,0.476,8.19,0.314,12.382c-0.373,9.645,0.378,19.6,0.892,29.231
	c0.552,10.351-0.12,20.808,0.065,31.176c0.166,9.243,0.569,18.431,0.572,27.708c0.007,21.158,0.584,42.303,0.919,63.497
	c-3.125,0.021-6.249,0.025-9.37,0.023c0.059-0.329,0.089-0.679,0.051-1.071c-1.445-14.723-14.601-25.68-26.374-33.06
	c-13.46-8.438-30.245-11.073-45.766-8.071c-13.253,2.563-26.221,7.164-37.721,14.196c-5.99,3.663-11.36,8.335-15.623,13.891
	c-3.066,3.995-6.701,8.643-7.115,13.846c-0.063,0.002-0.126,0.008-0.189,0.01c-4.543,0.182-12.534-0.667-13.749,5.299
	c-0.636,3.126-0.212,9.003,2.925,10.686c2.252,1.209,5.412,0.781,7.825,0.781c2.309,0,4.56,0.109,6.806,0.278
	c0.252,2.912-0.547,6.081-0.365,9.027c0.236,3.832-0.276,7.966,0.395,11.744c0.086,0.485,0.221,0.911,0.377,1.312
	c-0.269,0.032-0.549,0.06-0.814,0.093c-6.564,0.825-8.718,5.993-8.284,12.199c0.152,2.171,1.084,5.168,2.536,6.832
	c2.026,2.322,5.275,1.657,8.002,1.539c10.085-0.44,20.071-0.584,30.191-0.45c20.771,0.277,41.399-0.944,62.156-1.308
	c10.251-0.18,20.549-0.322,30.797-0.654c8.696-0.281,17.402,0.638,26.163,0.652c5.616,0.009,11.26-0.462,16.857-0.921
	c4.845-0.397,9.67,0.015,14.499-0.531c5.834-0.659,11.611-0.06,17.442-0.404c2.433-0.144,4.83-0.516,7.211-0.985
	c0.81-0.025,1.617-0.043,2.42-0.033c8.441,0.105,17.403-0.834,25.796,0.006c8.53,0.853,17.079,0.649,25.614,1.071
	c3.999,0.198,8.124,0.145,12.151,0.08c3.34-0.055,6.617,0.312,9.886-0.034c3.609-0.034,7.213-0.11,10.838,0.299
	c4.829,0.546,9.655,0.133,14.499,0.531c5.597,0.461,11.239,0.93,16.856,0.921c8.761-0.014,17.467-0.933,26.163-0.652
	c10.248,0.332,20.546,0.474,30.797,0.654c20.758,0.365,41.386,1.585,62.156,1.308c10.12-0.134,20.107,0.009,30.193,0.45
	c2.727,0.119,5.977,0.783,8.002-1.539c1.451-1.664,2.384-4.661,2.536-6.832c0.435-6.205-1.719-11.373-8.284-12.199
	c-0.265-0.034-0.545-0.062-0.814-0.093c0.155-0.401,0.29-0.826,0.377-1.312c0.671-3.778,0.159-7.913,0.395-11.744
	c0.181-2.945-0.617-6.115-0.365-9.027c2.246-0.169,4.497-0.278,6.806-0.278c2.412,0,5.572,0.428,7.825-0.781
	C511.96,392.762,512.385,386.884,511.748,383.759z M288.163,359.042c-6.672-5.299-11.953-14.625-15.047-22.445
	c-1.838-4.642-2.889-9.352-3.489-14.295c-0.564-4.639-1.482-9.454,4.246-10.138c9.433-1.128,19.326-0.843,28.835-0.955
	c10.708-0.125,21.326-0.572,32.024-0.218c10.644,0.352,21.265,0.135,31.923-0.598c0.027-0.002,0.051-0.01,0.078-0.012
	c7.101,0.083,14.212,0.35,21.306,0.348c17.097-0.007,34.365,2.584,51.465,1.588c8.133-0.474,16.44-0.661,24.593-0.274
	c1.765,0.083,4.153-0.157,5.84,0.301c1.918,0.519,1.607,0.329,1.439,2.617c-0.341,4.649-1.2,9.76-3.054,14.088
	c-2.97,6.936-6.125,13.584-10.693,19.646c-4.846,6.431-10.094,10.119-17.012,14.105c-8.514,4.906-17.47,7.695-26.682,10.807
	c-4.544,1.536-9.826,3.308-14.978,4.434c-7.771,0.319-15.54,0.653-23.344,0.665c-4.781,0.008-9.575,0.022-14.373,0.015
	c-16.106-3.15-32.918-3.333-48.707-8.145C304.152,368.017,295.081,364.535,288.163,359.042z M219.528,199.7
	c0.078-9.152-1.005-18.288-1.001-27.449c0.005-9.55-0.149-19.23-0.713-28.754c-0.636-10.736-0.266-21.493-0.25-32.25
	c0.008-5.36-0.159-10.706,0.204-16.052c0.172-2.542,0.288-5.052,0.582-7.587c0.406-3.504-0.1-5.773,3.847-6.919
	c3.789-1.1,9.174,0.368,13.141,0.395c2.955,0.02,12.086-1.26,13.412,1.049c0.758,1.318,0.1,4.178,0.087,5.642
	c-0.025,2.542,0.227,4.982,0.384,7.51c0.364,5.877-0.202,11.839-0.28,17.723c-0.279,20.898,0.453,41.78,0.343,62.66
	c-0.11,21.096-0.714,42.3-0.312,63.359c0.462,24.207-0.524,48.366-0.504,72.578c0.009,11.68,0.18,23.258-0.059,34.907
	c-0.203,9.903-0.516,20.077,0.177,29.977c-8.153-0.287-16.419-0.15-24.486,0.054c-2.246,0.057-4.588,0.008-6.967-0.044
	c0.578-9.361-0.03-19.073-0.591-28.405c-0.619-10.316-0.815-20.608-0.909-30.967c-0.179-19.672,1.117-39.691,2.846-59.287
	C220.181,238.561,219.365,219.021,219.528,199.7z M196.677,217.188c0.007-1.01,0.032-2.019,0.052-3.028
	c1.963,0.137,3.943-0.003,6.122,0.149c3.818,0.266,7.707,0.249,11.531,0.235c0.01,0.834,0.018,1.668,0.027,2.502
	c-3.12-0.403-6.472-0.525-9.513-0.447c-2.541,0.065-5.499,0.19-8.219,0.701C196.676,217.262,196.677,217.225,196.677,217.188z
	 M196.624,220.953c2.715,0.111,5.4-0.605,8.271-0.572c3.231,0.037,6.346,0.547,9.547,0.306c0.038,4.66,0.044,9.323-0.05,14.005
	c-0.068,3.35-0.159,6.703-0.263,10.056c-1.329-0.119-2.678-0.08-4.038-0.2c-2.014-0.178-4.075-0.392-6.103-0.091
	c-2.451,0.363-4.824,0.761-7.306,0.946c-0.268,0.02-0.512,0.042-0.745,0.065C196.05,237.292,196.471,229.102,196.624,220.953z
	 M205.611,248.142c2.831-0.096,5.622,0.762,8.385,0.535c-0.042,1.213-0.078,2.426-0.124,3.639c-1.163-0.008-2.312,0.184-3.654,0.373
	c-2.553,0.36-5.071,0.336-7.66,0.419c-2.065,0.068-4.432,0.029-6.608,0.45c-0.033-1.7-0.038-3.403-0.033-5.105
	C199.163,248.691,202.148,248.259,205.611,248.142z M212.9,376.429c-4.712-0.042-9.454,0.131-13.822,1.282
	c-0.652,0.002-1.305-0.008-1.959-0.022c0.096-6.454-0.844-12.806-0.428-19.278c0.44-6.846,0.491-13.551,0.543-20.429
	c0.047-6.184-0.364-12.183-0.544-18.342c-0.211-7.173,0.476-14.23,0.582-21.367c0.084-5.721,0.203-11.469-0.445-17.152
	c-0.727-6.383-0.098-12.959-0.546-19.384c-0.07-1.008-0.105-2.018-0.154-3.027c2.031,0.356,4.178,0.186,6.43,0.24
	c3.586,0.086,7.452,0.408,11.051-0.286c-0.685,15.913-1.646,31.836-2.572,47.69C209.673,329.724,211.27,353.129,212.9,376.429z
	 M160.057,208.274c0.562-19.734,0.627-39.431,0.579-59.205c-0.029-11.832,0.064-23.671-0.141-35.5
	c-0.178-10.292,0.345-20.584-0.24-30.842c1.946-2.252,7.303-2.554,9.893-2.819c3.118-0.321,5.952,0.28,9.018,0.653
	c2.182,0.265,4.445,0.491,6.635,0.649c3.808,0.275,6.165,0.842,6.944,5.09c2.179,11.875,1.763,24.573,1.203,36.592
	c-0.538,11.557-0.518,23.081-0.9,34.666c-0.383,11.592-1.151,23.429-2.352,34.968c-1.2,11.535-0.77,23.188-1.201,34.779
	c-0.48,12.887-0.345,25.772,0.319,38.62c0.262,5.071-0.51,10.137,0.071,15.196c0.651,5.671,0.572,11.443,0.465,17.155
	c-0.122,6.482-0.645,12.897-0.59,19.409c0.057,6.785,0.655,13.495,0.647,20.3c-0.008,6.531,0.176,12.919-0.333,19.421
	c-0.531,6.783,0.495,13.371,0.447,20.105c-1.383-0.013-2.763,0.008-4.139,0.113c-7.814,0.597-15.68,0.871-23.556,0.999
	c0.471-37.885-0.769-75.623-0.759-113.5c0.002-9.892-0.339-19.911-0.909-29.794C160.64,226.353,159.803,217.226,160.057,208.274z
	 M71.491,343.443c14.13-2.716,29.761-1.785,42.443,5.613c9.907,5.78,24.115,16.212,25.205,28.593
	c0.034,0.388,0.128,0.734,0.247,1.061c-0.999-0.002-2-0.003-2.996-0.006c-16.055-0.025-31.965-1.413-48.037-1.226
	c-17.04,0.198-34.015,0.643-51.057-0.15c-6.42-0.298-12.642,0.428-18.967,0.878C27.058,358.316,51.539,347.277,71.491,343.443z
	 M496.703,426.444c0.386,1.44,0.557,5.038-0.819,6.084c-1.464,1.112-7.775-0.314-10.029-0.473
	c-9.237-0.649-18.689-0.194-27.954-0.316c-9.023-0.12-18.01-0.716-27.015-0.876c-18.63-0.33-37.196-1.777-55.841-1.797
	c-16.038-0.017-31.817,1.011-47.887-0.162c-8.162-0.596-16.612-1.102-24.794-1.011c-15.606,0.175-31.275,1.121-46.927-0.354
	c-6.92-0.652-13.857,0.279-20.785,0.338c-0.171-0.097-0.364-0.17-0.589-0.203c-7.99-1.167-16.347,0.308-24.428,0.218
	c-8.181-0.091-16.632,0.415-24.794,1.011c-16.07,1.173-31.849,0.145-47.887,0.162c-18.645,0.019-37.211,1.466-55.841,1.797
	c-9.005,0.16-17.992,0.756-27.015,0.876c-9.266,0.123-18.716-0.331-27.954,0.316c-2.253,0.158-8.564,1.585-10.029,0.473
	c-1.376-1.046-1.205-4.643-0.817-6.084c0.927-3.452,3.126-2.916,6.138-3.223c4.139-0.421,8.726-0.683,12.897-1.847
	c2.125-0.212,4.25-0.448,6.403-0.377c3.852,0.126,7.247,0.27,11.091-0.039c7.911-0.636,16.251,0,24.12,0.67
	c7.754,0.661,16.602,0.766,24.36,0c8.257-0.815,16.454-0.453,24.768-0.432c17.404,0.044,34.56-0.56,51.934-0.767
	c10.266-0.123,20.544-0.113,30.807-0.37c3.805-0.096,7.581-0.424,11.361-0.823c1.035-0.01,2.051-0.004,3.033,0.038
	c9.679,0.419,19.383-0.642,29.09,0.092c10.748,0.813,21.823-0.247,32.614-0.247c5.264,0.001,11.047,0.837,16.637,0.779
	c1.208,0.072,2.419,0.129,3.631,0.16c10.264,0.258,20.541,0.248,30.807,0.37c17.375,0.207,34.531,0.81,51.935,0.767
	c8.313-0.02,16.511-0.383,24.768,0.432c7.758,0.766,16.606,0.661,24.36,0c7.868-0.67,16.209-1.306,24.12-0.67
	c3.845,0.31,7.239,0.167,11.091,0.039c2.153-0.071,4.279,0.166,6.403,0.377c4.171,1.162,8.758,1.425,12.897,1.847
	C493.576,423.528,495.775,422.992,496.703,426.444z M46.02,404.644c-0.052,2.885-0.835,6.665,0.223,9.467
	c-2.469-0.008-4.917-0.119-7.483-0.093c-3.928,0.039-9.74,2.095-13.423,0.766c-1.806-0.652-1.329-0.466-1.708-2.557
	c-0.427-2.352-0.641-4.507-0.865-6.868c-0.312-3.275-0.992-6.428-1.823-9.581c1.195,0.114,2.395,0.235,3.61,0.363
	c7.145,0.747,14.294,0.268,21.429,0.032C45.679,398.904,46.068,401.997,46.02,404.644z M73.773,414.409
	c-7.463-0.463-15-1.227-22.44-0.503c-0.602,0.059-1.197,0.099-1.788,0.131c1.096-2.97,0.244-7.059,0.178-10.062
	c-0.062-2.793-0.104-5.311-0.832-7.872c6.653-0.123,13.269,0.104,19.924-0.206c1.809-0.084,3.624-0.131,5.44-0.17
	C73.04,401.56,73.606,408.456,73.773,414.409z M111.632,413.692c-1.45,0.001-2.902-0.009-4.351,0.011
	c-9.388,0.131-18.717,1.234-28.177,0.964c-0.266-0.008-0.533-0.025-0.798-0.034c0.158-6.025,0.754-13.044-0.485-18.955
	c11.207-0.093,22.498,0.464,33.724,0.737C111.328,402.173,110.44,408.049,111.632,413.692z M145.251,407.703
	c-0.072,1.957-0.158,4.055,0.129,6.041c-2.433,0.053-4.871,0.098-7.319,0.122c-7.16,0.07-14.333-0.101-21.498-0.166
	c-1.114-4.545-0.853-9.073-0.887-13.715c-0.009-1.185-0.047-2.379-0.286-3.489c2.161,0.038,4.318,0.065,6.471,0.068
	c7.939,0.007,15.879,0.044,23.82,0.029C145.023,400.202,145.385,404.083,145.251,407.703z M175.311,404.623
	c-0.135,2.893-0.006,5.934,0.259,8.9c-2.519-0.028-5.038-0.056-7.556-0.086c-5.787-0.068-11.524,0.054-17.27,0.187
	c-0.25-2.253-0.261-4.421-0.289-6.734c-0.042-3.316-0.033-6.908-0.544-10.296c8.54-0.026,16.808,0.822,25.414,0.18
	C175.186,399.395,175.426,402.173,175.311,404.623z M209.29,413.799c-0.534,0.026-1.07,0.044-1.601,0.078
	c-0.247,0.016-0.506,0.02-0.763,0.027c-2.455-0.053-4.91-0.079-7.363-0.109c-6.227-0.075-12.452-0.143-18.679-0.213
	c-0.086-2.685-0.524-5.277-0.651-8.108c-0.144-3.226-0.178-6.058-0.729-8.977c8.09-0.431,16.297-0.198,24.389-0.495
	c2.014-0.074,3.999-0.203,5.97-0.366c-0.097,0.597-0.223,1.192-0.285,1.772c-0.241,2.228-0.279,4.498-0.358,6.735
	C209.113,407.211,208.513,410.753,209.29,413.799z M252.24,399.633c-0.144,4.353-0.697,9.091-0.212,13.464
	c-1.023-0.032-2.048-0.064-3.072-0.115c-9.257-0.449-18.441,0.342-27.692,0.534c-2.365,0.048-4.754,0.069-7.142,0.117
	c1.065-4.097,0.072-9.372-0.138-13.284c-0.086-1.585,0.036-3.424-0.243-5.085c1.036-0.115,2.067-0.248,3.1-0.383
	c2.374,0.034,4.747,0.061,7.132,0.22c9.524,0.634,18.935-0.175,28.438-0.506C252.157,396.315,252.286,398.219,252.24,399.633z
	 M297.88,413.635c-5.641-0.367-11.283-0.645-16.964-0.646c-6.603-0.001-14.038,1.192-20.559,0.223
	c-3.235-0.481-3.475-0.823-3.876-4.441c-0.287-2.594,0.141-5.23,0.072-7.831c-0.055-2.074-0.434-4.287-0.602-6.437
	c9.952-0.168,19.878,0.721,29.802,0.727c3.963,0.003,8.181,0.415,12.431,0.715c-0.159,1.473-0.092,3.03-0.167,4.402
	C297.807,404.261,296.814,409.538,297.88,413.635z M302.782,404.144c-0.079-2.238-0.117-4.507-0.358-6.735
	c-0.044-0.404-0.117-0.816-0.191-1.232c2.625,0.107,5.232,0.101,7.774-0.131c7.476,0.204,15.032,0.053,22.49,0.45
	c-0.549,2.92-0.584,5.751-0.727,8.977c-0.126,2.831-0.565,5.423-0.651,8.108c-6.227,0.069-12.452,0.137-18.678,0.213
	c-3.252,0.039-6.509,0.05-9.761,0.162C303.518,410.875,302.891,407.264,302.782,404.144z M336.691,404.623
	c-0.114-2.45,0.125-5.228-0.012-7.85c8.606,0.642,16.874-0.206,25.414-0.18c-0.511,3.388-0.502,6.981-0.544,10.296
	c-0.028,2.314-0.039,4.48-0.289,6.734c-5.746-0.133-11.483-0.254-17.27-0.187c-2.519,0.029-5.038,0.057-7.556,0.086
	C336.698,410.557,336.826,407.515,336.691,404.623z M395.438,413.701c-7.164,0.064-14.337,0.235-21.497,0.166
	c-2.448-0.024-4.885-0.07-7.319-0.122c0.287-1.987,0.203-4.084,0.129-6.041c-0.134-3.62,0.227-7.501-0.43-11.11
	c7.939,0.015,15.881-0.023,23.82-0.029c2.153-0.002,4.311-0.029,6.471-0.068c-0.239,1.109-0.278,2.304-0.286,3.489
	C396.292,404.628,396.551,409.156,395.438,413.701z M400.46,396.417c11.225-0.274,22.516-0.831,33.724-0.738
	c-1.241,5.911-0.643,12.931-0.485,18.956c-0.266,0.009-0.533,0.026-0.799,0.034c-9.46,0.271-18.79-0.833-28.177-0.964
	c-1.449-0.02-2.9-0.011-4.351-0.011C401.563,408.049,400.675,402.173,400.46,396.417z M462.458,414.037
	c-0.591-0.032-1.186-0.072-1.788-0.131c-7.44-0.725-14.977,0.041-22.44,0.503c0.166-5.953,0.732-12.848-0.481-18.681
	c1.815,0.039,3.63,0.086,5.439,0.17c6.656,0.31,13.271,0.082,19.924,0.206c-0.728,2.56-0.77,5.078-0.832,7.872
	C462.214,406.978,461.363,411.067,462.458,414.037z M465.982,404.644c-0.047-2.647,0.341-5.74,0.041-8.475
	c7.135,0.236,14.284,0.715,21.429-0.032c1.215-0.127,2.415-0.249,3.61-0.363c-0.831,3.153-1.511,6.305-1.823,9.581
	c-0.225,2.362-0.439,4.517-0.866,6.868c-0.379,2.091,0.098,1.905-1.708,2.557c-3.683,1.33-9.494-0.726-13.423-0.766
	c-2.566-0.026-5.015,0.086-7.483,0.093C466.818,411.309,466.033,407.529,465.982,404.644z M505.225,390.502
	c-1.498,1.003-6.634-0.055-8.456-0.01c-1.573,0.037-3.112,0.152-4.674,0.328c-3.528,0.396-6.907,0.756-10.464,0.717
	c-7.048-0.077-14.009-0.802-21.04-0.909c-13.991-0.214-27.925-1.065-41.944-1.243c-16.677-0.212-33.349-0.274-50.027-0.287
	c-3.999-0.003-8.196-0.419-12.165-0.041c-2.866,0.272-5.452,0.783-8.348,0.708c-7.316-0.189-14.574-1.021-21.893-0.79
	c-6.091,0.191-12.184,0.585-18.275,0.853c-6.824-0.764-14.116-0.515-20.46-0.609c-10.509-0.155-21.004-0.871-31.538-0.71
	c-10.298,0.158-20.569,1.633-30.883,1.201c-5.679-0.238-11.419-0.355-17.075,0.257c-7.396-0.24-14.795-0.76-22.193-0.992
	c-7.318-0.23-14.576,0.602-21.893,0.79c-2.896,0.074-5.482-0.436-8.348-0.708c-3.97-0.378-8.165,0.037-12.165,0.041
	c-16.678,0.012-33.35,0.075-50.027,0.287c-14.019,0.178-27.953,1.028-41.944,1.243c-7.03,0.107-13.991,0.833-21.04,0.909
	c-3.558,0.038-6.936-0.321-10.464-0.717c-1.562-0.176-3.102-0.29-4.674-0.328c-1.822-0.044-6.958,1.014-8.456,0.01
	c-1.5-1.005-1.671-1.575-1.281-3.211c0.508-2.127,0.664-1.785,3.305-1.901c3.061-0.133,6.063-0.088,9.118-0.368
	c7.811-0.717,15.449-1.061,23.301-1.044c16.427,0.036,32.85-0.801,49.271-1.091c13.951-0.247,27.767,1.127,41.703,1.105
	c9.019-0.015,18.07,0.068,27.086-0.175c8.143-0.22,16.489,0.27,24.585-0.704c4.704-0.566,9.389-0.373,14.126-0.419
	c3.485-0.035,6.8-0.647,10.254-0.808c1.622-0.075,3.236-0.153,4.845-0.238c3.377,0.06,6.75,0.104,10.144,0.173
	c10.971,0.225,22.136,0.143,33.074,0.965c5.65,0.424,11.359-0.287,16.987-0.35c5.557-0.063,11.226,0.49,16.789,0.652
	c5.319,0.154,10.482-0.053,15.82-0.509c1.151-0.098,2.303-0.154,3.456-0.198c1.536,0.156,3.076,0.296,4.654,0.312
	c4.737,0.047,9.422-0.146,14.126,0.419c7.587,0.913,15.405,0.124,23.046,0.628c9.487,0.627,19.118,0.235,28.625,0.25
	c13.936,0.022,27.753-1.351,41.703-1.105c16.421,0.289,32.844,1.127,49.271,1.091c7.851-0.017,15.49,0.325,23.301,1.044
	c3.055,0.28,6.057,0.235,9.118,0.368c2.64,0.115,2.797-0.227,3.305,1.901C506.896,388.926,506.724,389.497,505.225,390.502z"/>
<g>
</g>
<g>
</g>
<g>
</g>
<g>
</g>
<g>
</g>
<g>
</g>
<g>
</g>
<g>
</g>
<g>
</g>
<g>
</g>
<g>
</g>
<g>
</g>
<g>
</g>
<g>
</g>
<g>
</g>
</svg>
