<?xml version="1.0" encoding="iso-8859-1"?>
<!-- Generator: Adobe Illustrator 19.0.0, SVG Export Plug-In . SVG Version: 6.00 Build 0)  -->
<svg version="1.1" id="Layer_1" xmlns="http://www.w3.org/2000/svg" xmlns:xlink="http://www.w3.org/1999/xlink" x="0px" y="0px"
	 viewBox="0 0 512.001 512.001" style="enable-background:new 0 0 512.001 512.001;" xml:space="preserve">
<path style="fill:#EFBC4B;" d="M253.181,16.666c-1.207,5.946-4.616,11.455-6.625,17.155c-1.964,5.574-3.829,11.125-5.413,16.816
	c-3.103,11.138-6.665,22.305-10.255,33.304c-1.579,4.838-2.111,12.372-5.044,16.625c-1.456,2.111-3.601,3.094-4.818,5.816
	c-1.888,4.225-3.721,8.466-5.631,12.683c-1.451,3.203-2.577,5.351-4.97,7.895c-2.826,3.005-3.971,4.921-2.473,9.001
	c1.091,2.973,3.006,4.61,4.363,7.174c1.435,2.709,0.891,6.885,0.75,9.817c-0.279,5.826-0.023,11.664-0.33,17.49
	c-0.183,3.478,1.139,10.626-0.915,13.447c-2.021,2.777-5.864,2.373-8.683,3.077c-3.545,0.884-5.26,3.408-4.657,7.234
	c0.589,3.739,3.381,2.164,4.963,5.012c1.641,2.954,1.054,9.654,1.123,12.933c0.2,9.482-0.403,18.913-0.519,28.379
	c-0.144,11.861-1.105,23.62-1.768,35.429c-0.149,2.648-0.229,4.206-2.055,6.226c-2.413,2.667-6.726,4.488-8.012,8.137
	c-0.982,2.786,0.977,5.953-0.761,8.44c-1.772,2.534-5.735,2.927-6.785,6.13c-0.933,2.85,0.812,2.594-2.257,3.608
	c-4.295,1.418-8.28,2.948-12.036,5.756c-2.596,1.941-5.862,6.866-3.725,10.28c1.013,1.618,3.107,1.327,4.523,2.262
	c3.864,2.553,2.859,11.538,2.901,15.559c0.079,7.587,0.044,15.185-0.006,22.771c-0.009,1.396,0.239,2.833-0.695,3.788
	c-0.296,0.303-2.244,0.556-2.839,0.868c-1.404,0.737-2.959,2.097-4.025,3.263c-3.518,3.85-6.266,12.164-3.728,17.027
	c1.982,3.799,6.059,2.96,7.752,6.667c0.93,2.033,0.957,4.295,1.897,6.301c1.418,3.025,3.1,4.598,3.667,8.101
	c1.538,9.5,1.62,18.13,1.216,27.815c-0.371,8.889-1.013,17.8-1.522,26.683c-0.452,7.865,0.001,15.736-0.449,23.568
	c-0.127,2.208-0.306,3.742-1.575,5.346c-2.66,3.362-6.188,3.074-6.251,8.252c-0.075,6.286,8.475,4.37,12.723,4.428
	c11.457,0.157,22.895,2.348,34.306,2.028c3.176-0.09,4.267-2.229,7.356-2.603c6.969-0.845,14.295-0.617,21.319-0.684
	c14.775-0.142,30.912-3.3,45.476-0.129c12.513,2.725,24.792,3.261,37.596,3.148c5.023-0.044,23.025,1.15,17.592-8.898
	c-1.244-2.301-3.8-2.976-5.303-5.016c-1.263-1.715-1.361-3.693-1.498-5.709c-0.303-4.424-0.608-8.86-0.734-13.302
	c-0.36-12.663-0.228-25.265-1.085-37.908c-0.495-7.293-0.949-14.668-0.951-21.984c-0.001-4.071-0.544-9.909,2.037-13.254
	c0.982-1.272,3.263-1.871,4.005-3.294c0.807-1.545,0.108-2.033,0.035-3.604c-0.077-1.666,0.03-4.839,1.472-6.077
	c1.187-1.018,2.712-0.453,4.134-0.867c3.879-1.13,4.12-4.566,3.21-8.072c-1.911-7.365-11.992-7.187-11.692-16.181
	c0.295-8.848,1.245-17.574,0.577-26.499c-0.22-2.939-1.052-6.979-0.036-9.802c1.245-3.457,4.709-2.252,6.799-4.455
	c5.77-6.084-5.648-12.312-9.887-13.875c-3.437-1.269-7.095-2.195-9.289-5.336c-0.916-1.311-1.006-2.716-1.691-4.087
	c-0.771-1.545-1.363-1.395-2.586-2.4c-2.85-2.342-0.96-5.095-1.906-8.473c-1.28-4.574-6.357-6.07-8.193-10.099
	c-2.059-4.516-1.828-10.17-2.429-15.006c-0.894-7.203-0.005-14.396,0.306-21.638c0.557-13.014-0.51-26.068-0.068-39.059
	c0.151-4.449,2.273-5.46,5.076-8.479c2.215-2.386,1.744-5.124-0.513-7.245c-2.244-2.109-4.602-1.692-7.159-2.78
	c-4.813-2.049-6.519-7.417-7.17-12.162c-1.043-7.606-1.476-16.02-1.029-23.696c0.328-5.637,7.031-8.119,6.797-13.588
	c-0.129-3.006-3.494-6.338-4.861-9.098c-2.379-4.803-5.255-9.409-7.766-14.148c-2.068-3.904-4.851-7.296-6.883-11.148
	c-1.861-3.527-2.689-7.694-3.482-11.562c-0.842-4.104-2.022-8.123-2.937-12.205c-1.164-5.195-1.741-10.366-3.158-15.528
	c-1.516-5.517-3.369-10.934-5.237-16.339c-2.487-7.195-5.203-14.296-8.178-21.3C261.601,22.443,256.182,11.293,253.181,16.666z"/>
<path style="fill:#CC9B3A;" d="M295.823,140.945c-16.405,4.07-35.249,2.55-51.981,1.492c-7.452-0.471-14.67-1.007-22.115-0.642
	c-1.677,0.083-5.144-0.628-6.69-0.017c-2.823,1.116-2.386,7.228-2.777,10.091c-0.759,5.553-1.088,10.746-0.41,16.322
	c0.527,4.336,0.849,8.79,0.064,13.084c-0.226,1.237-1.625,4.592-0.537,5.692c0.811,0.819,8.298,0.3,9.641,0.42
	c3.073,0.274,6.411,0.614,9.483,0.497c2.785-0.106,2.215-0.236,3.642-2.332c3.384-4.977,9.928-7.298,11.061-13.495
	c1.168-6.397,0.613-14.769,5.542-19.744c5.638-5.69,15.518-5.021,22.756-4.143C277.125,148.612,301.951,151.457,295.823,140.945z"/>
<g>
	<path style="fill:#FCF2E0;" d="M225.557,102.498c-4.837,4.572-8.069,10.97-11.127,16.788c-1.134,2.158-3.686,5.715-2.875,8.267
		c0.737,2.32,3.913,1.685,5.774,1.683c10.54-0.01,21.024-0.573,31.54-0.569c12.139,0.005,24.434-0.071,36.535,0.947
		c3.816,0.321,8.753,1.9,12.298-0.242c5.416-3.271,0.457-9.895-1.501-13.812c-2.023-4.046-4.781-14.167-10.49-14.353
		c-5.927-0.192-9.077,8.251-12.899,11.64c-1.389,1.231-4.669,4.264-6.832,3.851c-2.225-0.424-3.186-5.047-4.11-7.028
		c-0.961-2.062-1.574-6.825-4.461-7.16c-3.687-0.428-4.559,3.941-5.522,6.409c-0.915,2.346-3.51,6.722-6.034,7.781
		c-2.477,1.04-3.893-0.836-5.357-2.487C237.726,111.09,231.785,100.265,225.557,102.498z"/>
	<path style="fill:#FCF2E0;" d="M226.506,153.698c-6.756,0.907-6.258,10.519-6.258,15.38c0,1.234-0.72,5.475,0.088,6.529
		c0.504,0.659,2.595,0.598,3.511,0.639c1.949,0.089,6.219,1.281,7.692-0.435c0.976-1.135,0.655-3.474,0.654-4.923
		c-0.001-2.591,0.162-5.14,0.042-7.708c-0.092-1.983-0.117-3.741-0.873-5.608C230.698,155.926,228.315,153.333,226.506,153.698z"/>
	<path style="fill:#FCF2E0;" d="M283.772,153.698c-4.936,1.76-3.808,11.631-3.619,15.587c0.057,1.192-0.592,4.688,0.192,5.654
		c0.647,0.799,3.74,0.507,4.77,0.568c2.191,0.127,5.757,1.244,7.001-0.942c0.973-1.711,0.853-5.246,0.974-7.121
		c0.163-2.519-0.038-4.979-0.688-7.418c-0.509-1.902-1.161-3.201-2.629-4.495C288.297,154.23,285.354,152.509,283.772,153.698z"/>
	<path style="fill:#FCF2E0;" d="M253.243,168.868c-1.919,2.435-5.768,4.119-8.265,6.075c-3.319,2.601-6.662,5.258-8.994,8.814
		c-1.146,1.748-2.016,2.849,0.445,3.714c3.775,1.327,8.954,0.171,12.831,0.151c8.004-0.04,16.19-0.386,24.175,0.018
		c4.8,0.242,2.716-3.873,0.396-6.489c-2.716-3.062-6.193-5.499-9.496-7.879C261.624,171.317,258.539,168.346,253.243,168.868z"/>
</g>
<g>
	<path style="fill:#EFBC4B;" d="M254.551,175.341c-0.851,1.08-2.559,1.826-3.665,2.694c-1.472,1.154-2.955,2.331-3.989,3.909
		c-0.509,0.775-0.894,1.264,0.198,1.647c1.674,0.588,3.971,0.075,5.691,0.067c3.55-0.018,7.18-0.171,10.722,0.008
		c2.129,0.108,1.205-1.718,0.175-2.877c-1.205-1.357-2.747-2.438-4.212-3.494C258.269,176.428,256.9,175.111,254.551,175.341z"/>
	<path style="fill:#EFBC4B;" d="M227.557,111.932c-1.354,1.981-2.293,4.408-3.34,6.565c-0.53,1.091-1.587,2.549-1.472,3.797
		c2.328,0.259,4.676,0.51,7.039,0.733c1.201,0.114,6.534,0.701,7.138-0.711c0.695-1.626-2.983-5.572-3.884-6.681
		c-0.889-1.093-1.69-2.572-2.749-3.501C229.048,111.045,228.992,111.602,227.557,111.932z"/>
	<path style="fill:#EFBC4B;" d="M284.019,111.363c-1.299,1.768-2.632,3.566-3.889,5.385c-0.47,0.68-3.825,4.653-3.314,5.547
		c0.404,0.705,2.576,0.544,3.26,0.587c1.922,0.123,3.84,0.289,5.77,0.284c0.974-0.002,2.825,0.393,3.552-0.413
		c0.842-0.932,0.2-3.536-0.078-4.565C288.748,116.08,287.061,111.003,284.019,111.363z"/>
</g>
<path style="fill:#CC9B3A;" d="M304.641,197.548c-28.423-0.04-56.682-2.699-85.06-0.638c-2.794,0.203-13.586-0.567-15.437,2.064
	c-0.976,1.387-0.195,6.024-0.195,7.655c0,4.135-0.056,8.274-0.01,12.408c0.085,7.84,0.879,15.653,0.862,23.493
	c-0.015,7.152-0.684,14.162-0.994,21.281c-0.167,3.822-1.834,9.455-0.447,13.08c3.676-1.158,7.122-3.984,10.875-5.342
	c4.823-1.745,10.134-2.357,15.146-3.34c12.643-2.48,24.712-4.023,37.629-3.254c2.173,0.13,4.285,0.876,6.445,0.999
	c1.562,0.089,2.973-0.502,4.516-0.441c4.311,0.171,8.614,3.19,12.54,4.727c3.848,1.506,7.878,2.051,11.708,3.644
	c1.096,0.455,6.507,3.615,7.781,2.233c1.013-1.097-0.779-4.071-1.418-4.944c-2.24-3.066-6.317-5.113-9.828-6.295
	c-5.039-1.698-10.131-3.051-15.287-4.316c-3.398-0.833-5.648-1.535-7.88-4.152c-1.921-2.252-4.195-4.086-5.931-6.525
	c-3.378-4.746-4.749-10.272-4.867-16.045c-0.21-10.264,4.024-21.743,13.493-27.024c4.647-2.592,10.695-2.852,15.867-2.396
	c3.106,0.273,6.298,1.716,9.373,1.112C307.823,204.687,307.405,200.163,304.641,197.548z"/>
<path style="fill:#EFBC4B;" d="M255.912,115.428c-2.022,0.498-3.3,3.825-4.003,5.502c-0.382,0.912-1.06,1.836-0.941,2.858
	c1.328,0.024,2.681,0.287,4.013,0.39c1.348,0.106,5.303,0.809,6.424-0.241c1.586-1.487-2.433-7.555-3.777-8.254
	C257.004,115.358,256.433,115.299,255.912,115.428z"/>
<path style="fill:#FCF2E0;" d="M250.692,206.65c-4.719,1.782-9.817,2.958-12.501,7.762c-2.538,4.543-4.186,10.508-4.189,15.69
	c-0.003,5.332,1.76,9.789,4.807,14.166c2.279,3.273,5.408,4.429,9.239,5.247c7.459,1.592,15.445,1.369,20.724-4.721
	c5.27-6.079,10.604-14.595,9.577-22.978c-0.597-4.869-2.648-8.448-6.85-10.982C265.44,207.183,258.352,205.183,250.692,206.65z"/>
<path style="fill:#AF9269;" d="M230.686,268.09c-11.82,3.928-24.079,7.737-34.322,15.229c-3.477,2.543-8.893,7.55-5.733,12.146
	c0.694,1.01,2.679,1.55,2.5,2.918c-0.182,1.384-3.216,2.128-4.133,2.7c-11.607,7.242,11.77,7.464,14.603,8.614
	c7.322,2.973,1.566,10.81-1.634,15.606c-6.905,10.35-9.844,22.627-16.178,33.331c-3.783,6.393-6.284,9.762-13.553,12.453
	c-5.733,2.122-13.376,10.662-7.779,16.354c0.84,0.854,2.147,1.139,3.023,2.05c1.728,1.8,2.207,4.369,3.268,6.547
	c1.047,2.15,2.508,3.394,4.062,5.143c1.462,1.645,2.124,3.913,2.584,6.031c1.866,8.582,0.676,18.337,0.397,27.039
	c-0.517,16.091-2.236,32.22-2.262,48.288c-0.005,2.603,1.43,7.736-0.294,9.982c-1.7,2.215-5.91,2.984-7.712,5.72
	c-7.122,10.813,18.16,9.203,22.246,9.414c6.158,0.319,12.424,1.789,18.582,1.663c5.327-0.108,10.211-2.336,15.495-2.569
	c19.037-0.842,38.237-1.775,57.312-1.085c15.496,0.561,31.036,1.691,46.566,2.197c3.378,0.11,23.722,2.063,18.009-7.705
	c-2.404-4.11-6.682-2.537-7.928-7.79c-2.091-8.815-1.815-19.094-1.374-28.083c0.608-12.397,1.319-25.51,0.305-37.89
	c-0.378-4.61-0.943-9.223-1.337-13.834c-0.872-10.218,7.385-15.773,11.757-24.134c6.622-12.667-8.156-18.279-16.641-23.493
	c-4.368-2.684-5.695-8.806-7.661-13.254c-3.842-8.689-9.156-17.37-13.939-25.579c-1.413-2.426-8.25-12.46-6.469-15.716
	c0.986-1.804,9.727-1.393,11.625-1.358c3.095,0.056,6.746,0.614,9.391-1.692c2.429-2.119,2.478-4.939,0.224-7.107
	c-2.496-2.402-3.657-1.991-4.114-5.682c-0.981-7.93-3.978-12.185-11.188-16.415c-10.804-6.337-23.182-9.876-35.307-12.6
	c-6.081-1.366-12.118-2.266-18.344-2.642C246.189,262.368,238.623,264.225,230.686,268.09z"/>
<g>
	<path style="fill:#876250;" d="M239.504,265.814c-7.646,2.734-16.105,3.971-23.801,6.905c-6.449,2.459-14.554,4.866-19.944,9.228
		c-4.11,3.326-8.358,7.168-5.107,12.379c1.027,1.647,2.258,2.052,1.353,3.991c-1.07,2.29-4.862,2.743-6.229,4.907
		c-4.673,7.394,23.103,7.307,26.904,7.515c5.458,0.299,12.812,2.737,17.457-1.358c2.145-1.892,3.083-5.244,0.638-7.673
		c-1.723-1.71-6.354-3.066-8.669-3.433c-2.485-0.394-11.711,2.179-13.26,0.295c-4.669-5.683,22.314-14.677,25.088-15.517
		c11.989-3.626,23.615-5.98,36.05-3.587c8.27,1.592,15.818,4.765,22.961,9.1c2.053,1.246,10.056,5.055,10.514,7.681
		c0.495,2.834-3.9,2.057-5.807,2.198c-5.077,0.373-9.297,0.396-13.551,3.278c-2,1.355-4.909,2.923-3.868,5.923
		c1.059,3.053,6.172,2.23,8.856,2.257c5.164,0.052,10.384-0.243,15.542,0.018c4.469,0.228,8.989,1.102,13.453,0.284
		c6.637-1.217,12.17-5.074,5.603-10.685c-3.103-2.65-2.851-3.929-3.604-7.716c-0.887-4.468-3.889-6.794-7.607-9.195
		C291.124,268.817,264.179,262.043,239.504,265.814z"/>
	<path style="fill:#876250;" d="M206.509,377.6c-6.432-2.189-13.201-1.326-19.919-1.415c-5.486-0.073-11.094-0.763-16.559-0.014
		c-4.196,0.576-6.617,2.742-7.625,7.037c-1.229,5.235,3.05,3.494,5.841,6.462c1.782,1.894,0.644,4.353,2.354,6.156
		c2.046,2.156,6.638,2.273,9.292,2.483c19.074,1.503,38.769,0.256,57.85-0.455c31.51-1.175,63.363,0.201,94.918,0.228
		c2.641,0.002,6.265,0.568,8.115-1.757c0.835-1.05,0.696-2.732,1.386-3.929c0.938-1.628,1.494-1.534,3.037-2.565
		c5.182-3.461,5.516-11.689-1.312-13.335c-3.016-0.727-6.332-0.238-9.376-0.096c-5.789,0.27-11.554-0.105-17.335-0.236
		c-12.849-0.291-25.731,0.069-38.568,0.455c-12.636,0.38-25.494-0.619-38.134-1.071C228.63,375.123,217.165,375.915,206.509,377.6z"
		/>
	<path style="fill:#876250;" d="M218.74,446.435c-4.356-0.546-11.711-0.25-16.08,1.849c-3.171,1.523-3.798,2.396-3.829,5.974
		c-0.016,1.814-0.143,5.139,1.61,6.192c2.363,1.42,8.496,1.187,11.28,1.566c1.567,0.213,6.067,1.22,7.585,0.321
		c2.218-1.313,2.134-5.789,2.263-7.873C221.906,448.994,220.691,447.134,218.74,446.435z"/>
	<path style="fill:#876250;" d="M303.788,447.003c-3.218,0.273-6.404-1.401-9.62-0.225c-3.099,1.132-4.498,5.655-4.684,8.919
		c-0.335,5.841,7.252,5.398,11.952,5.969c5.434,0.661,10.266,0.922,11.744-5.484C314.766,449.306,307.202,447.321,303.788,447.003z"
		/>
	<path style="fill:#876250;" d="M215.611,494.79c-3.657-1.373-9.803,0.288-13.756,0.284c-6.853-0.006-13.659,0.602-20.495,0.569
		c-4.515-0.022-11.333,0.464-14.691,4.025c-4.016,4.259,2.103,6.059,5.483,6.712c7.591,1.465,15.809,0.709,23.496,0.634
		c6.296-0.061,12.652,0.379,18.906,0.306c3.813-0.044,6.245-1.397,7.24-5.167C223.004,497.571,218.868,494.826,215.611,494.79z"/>
	<path style="fill:#876250;" d="M310.614,496.212c-7.174-0.381-17.492-5.519-21.137,3.825c-2.349,6.021,6.162,6.394,10.148,6.642
		c7.788,0.484,15.602,0.371,23.39,0.988c4.988,0.396,22.165,1.456,23.105-5.737C347.404,492.087,314.69,496.263,310.614,496.212z"/>
</g>
<path style="fill:#D8CBB6;" d="M216.18,213.193c-4.137,3.86-4.919,11.889-5.383,17.237c-0.493,5.672-0.619,12.185-0.284,17.844
	c0.339,5.732,1.098,6.394,6.379,6.675c3.073,0.164,6.044,0.298,8.91-0.559c0.339-9.454,0.429-18.726,0.05-28.171
	C225.719,222.934,223.714,204.939,216.18,213.193z"/>
<g>
	<path style="fill:#FCF2E0;" d="M288.712,215.468c-2.507,10.648-1.578,21.769-1.991,32.591c-0.042,1.115-0.664,5.289,0.044,6.113
		c0.794,0.924,6.318,0.768,7.521,0.986c1.99,0.36,6.427,1.108,8.044-0.717c1.757-1.982,0.803-7.522,0.912-9.945
		c0.315-7.009,0.501-13.793-1.51-20.561c-0.884-2.975-1.922-6.225-3.62-8.823C295.301,210.815,293.572,211.433,288.712,215.468z"/>
	<path style="fill:#FCF2E0;" d="M237.797,187.024c-6.903-0.011-13.808-0.621-20.699-0.86c-4.46-0.155-12.579-0.043-16.685,1.886
		c-1.563,0.735-4.437,3.758-3.896,5.774c0.546,2.037,4.955,3.127,6.693,3.467c5.365,1.049,11.553,0.257,17.005,0.257
		c6.276,0.001,12.517,0.048,18.788-0.085c18.893-0.4,37.88,1.213,56.737,0.346c3.23-0.149,6.474-0.214,9.715,0.01
		c2.83,0.196,5.071,1.261,7.653-0.578c5.815-4.141-0.009-8.731-4.562-10.009c-4.779-1.34-10.203-0.785-15.122-0.999
		c-5.6-0.243-11.161,0.18-16.749,0.228C263.148,186.579,248.541,185.605,237.797,187.024z"/>
	<path style="fill:#FCF2E0;" d="M253.442,1.568c-7.249,1.314-2.248,17.52,6.334,12.245C266.97,9.392,259.667-4.278,253.442,1.568z"
		/>
	<path style="fill:#FCF2E0;" d="M193.993,336.64c-4.913,0.055-10.836-0.548-15.509,0.513c-4.139,0.94-6.61,4.863-4.665,9.564
		c1.649,3.983,8.893,1.066,12.215,1.3c1.684,0.118,3.319,0.699,4.823-0.266C193.801,345.864,193.79,339.995,193.993,336.64z"/>
	<path style="fill:#FCF2E0;" d="M337.067,337.778c-4.78,0.002-9.548-1.164-14.222-1.151c-5.071,0.015-5.195,5.957-3.018,9.707
		c1.686,2.905,10.034,2.797,13.607,2.253C337.144,348.022,339.599,342.177,337.067,337.778z"/>
	<path style="fill:#FCF2E0;" d="M260.268,318.72c-7.083-0.099-16.006-1.116-17.144,7.403c-0.598,4.481,0.581,8.473,0.945,12.878
		c0.281,3.409-0.835,6.832-0.527,10.174c0.73,7.935,14.27,9.348,20.446,8.59c7.161-0.878,6.465-10.087,6.519-15.772
		c0.052-5.411,1.649-12.782-0.056-17.968C269.166,320.112,262.822,318.495,260.268,318.72z"/>
</g>
<path style="fill:#443B31;" d="M242.348,415.999c-4.835,2.572-9.129,4.709-13.382,8.328c-4.585,3.903-5.971,8.118-6.89,13.977
	c-0.556,3.545-1.195,7.45-0.72,11.051c0.367,2.783,1.71,5.826,1.386,8.686c-0.385,3.392-3.728,4.913-4.583,8.204
	c-1.332,5.132-0.776,11.458-1.244,16.783c-0.168,1.922-0.779,5.186,0.233,6.961c0.832,1.457,2.298,1.437,3.353,2.539
	c2.637,2.755,1.216,6.532,1.391,9.837c0.225,4.265,3.32,3.874,7.284,4.242c9.313,0.861,19.063,0.99,28.421,0.982
	c7.086-0.007,14.14-0.296,21.199-0.43c2.373-0.046,7.642,0.818,9.508-0.856c2.113-1.895,0.205-5.978,1.247-8.424
	c1.056-2.479,3.254-2.371,3.923-5.319c1.176-5.179-0.754-10.455,0.05-15.677c0.466-3.025,1.461-5.82,1.163-8.936
	c-0.272-2.842-0.562-2.061-2.579-3.517c-4.486-3.24-2.173-9.724-1.287-14.681c1.18-6.599,0.363-13.807-3.713-19.302
	c-4.635-6.25-9.974-10.821-17.095-13.958C260.531,412.314,251.446,413.435,242.348,415.999z"/>
<g>
	<path style="fill:#967957;" d="M334.792,403.484c-9.458-0.239-19.199,0.725-28.673,0.999c-14.699,0.426-29.475,0.032-44.148,1.049
		c-20.259,1.404-51.326,5.061-61.841,25.624c-7.818,15.289-13.891,33.116-7.493,49.946c1.345,3.537,6.023,5.923,6.709,9.316
		c0.932,4.61-5.31,5.044-8.376,4.947c-2.537-0.08-4.8-0.801-7.295-1.093c-1.797-0.21-4.562,0.637-6.206-0.05
		c-3.239-1.353-1.105-7.215-1.11-10.737c-0.026-16.159-0.61-32.344,0.142-48.478c0.294-6.292,0.753-13.596-0.184-19.841
		c-0.666-4.429-3.898-9.289-3.345-13.824c0.556-4.569,6.767-3.999,10.595-4.127c9.905-0.329,19.604,2.108,29.526,1.79
		c27.775-0.892,55.429-2.345,83.237-2.345c9.595,0,19.188,0.005,28.783,0C327.36,396.656,338.546,397.465,334.792,403.484z"/>
	<path style="fill:#967957;" d="M282.17,423.11c2.715,2.381,5.039,6.276,5.973,9.641c0.837,3.02,0.74,6.802,1.906,9.63
		c1.553,3.765,7.124,3.647,10.673,4.353c1.473,0.294,3.542,1.002,4.785-0.074c2.355-2.04,1.351-8.562,0.713-11.065
		C303.711,425.737,294.306,416.68,282.17,423.11z"/>
	<path style="fill:#967957;" d="M296.677,464.923c0.118,7.606-2.351,15.915,0.064,23.353c1.724,5.31,8.597,7.147,13.737,6.014
		c4.305-0.949,3.22-3.119,2.69-6.93c-0.757-5.437-1.423-11.084-1.636-16.564c-0.117-3.028,0.09-6.048-2.814-7.871
		C305.902,461.159,299.471,461.592,296.677,464.923z"/>
	<path style="fill:#967957;" d="M209.069,311.894c-5.375,11.141-9.967,23.213-16.639,33.636c-4.941,7.72-8.358,15.775-15.642,21.681
		c-1.559,1.264-6.85,4.709-5.411,7.381c1.456,2.7,14.31,2.375,17.061,2.431c3.587,0.074,7.993-0.369,11.311-1.849
		c4.883-2.18,5.976-6.673,6.787-11.569c1.849-11.156,1.121-22.993,4.213-33.962c1.964-6.967,7.269-8.842,12.794-12.193
		c1.989-1.206,3.14-2.133,3.131-4.949C221.315,310.698,214.394,311.293,209.069,311.894z"/>
	<path style="fill:#967957;" d="M231.54,284.019c-6.712,2.351-14.159,5.162-19.681,9.679c-7.427,6.076,7.473,4.449,10.78,5.002
		c5.262,0.881,7.475,0.966,8.554,6.354c0.874,4.364-1.017,4.597-4.743,6.038c0.183,4.735-1.01,9.778-1.671,14.475
		c-1.075,7.637-1.42,15.343-2.268,22.997c-0.781,7.042-1.134,14.13-2.125,21.147c-0.499,3.532-1.572,5.01,2.204,6.361
		c8.206,2.938,19.325,1.124,27.847,1.253c8.606,0.131,17.392,0.345,25.954-0.284c3.838-0.282,13.877,1.025,16.567-2.477
		c4.242-5.524-8.479-10.149-11.697-11.198c-5.599-1.824-10.863-4.668-16.738-5.603c-4.651-0.741-9.364-1.14-13.946-2.095
		c-8.581-1.787-7.647-10.637-7.357-17.728c0.182-4.458-2.078-10.714-0.546-14.957c0.807-2.236,3.383-3.193,4.181-5.433
		c1.212-3.396-1.748-6.382-3.573-8.906c-9.907-13.711,8.227-19.05,19.525-19.977c6.126-0.503,19.002-1.502,24.057,3.483
		c3.169,3.124,3.644,5.446,8.688,5.813c1.214,0.088,4.677,0.526,5.404-0.428c1.593-2.09-1.564-4.733-2.863-5.822
		c-4.432-3.718-9.493-5.052-14.802-6.956c-4.835-1.735-9.376-4.054-14.306-5.578C256.494,275.309,243.087,277.258,231.54,284.019z"
		/>
	<path style="fill:#967957;" d="M290.329,310.345c-1.8-0.354-3.494-0.821-5.063-1.858c-1.467-0.968-2.395-2.739-4.338-2.853
		c-4.032-0.238-5.041,5.216-4.468,8.245c0.536,2.834,2.018,3.332,3.925,4.822c2.979,2.326,1.753,5.203,1.908,8.492
		c0.179,3.805,2.249,6.452,4.127,9.63c2.1,3.556,2.918,8.024,3.824,12.033c0.947,4.194,1.563,8.653,1.817,12.943
		c0.189,3.207-0.243,10.05,2.112,12.74c1.848,2.111,8.264,1.105,9.57-1.762c0.798-1.751-0.023-5.309-0.164-7.16
		c-0.452-5.904-2.196-11.703-3.763-17.404c-1.875-6.82-3.201-13.659-5.131-20.309c-0.719-2.477-2.718-5.889-1.388-8.448
		c1.892-3.64,10.829-0.666,10.49-5.918c-0.255-3.963-9.715-2.508-12.744-3.058C290.802,310.436,290.565,310.392,290.329,310.345z"/>
</g>
<path style="fill:#CC9B3A;" d="M252.873,17.213c-8.374,21.916-15.963,43.929-21.112,66.788c-0.89,3.948-1.771,7.959-2.846,11.86
	c-0.416,1.513-2.15,4.126-1.601,5.775c0.287,0.861,3.092,2.626,3.783,3.306c2.106,2.073,4.189,4.145,6.06,6.422
	c3.309,4.028,4.504,9.177,8.969,3.278c1.892-2.5,6.391-13.799,11.014-12.357c5.097,1.589,3.589,10.868,7.028,13.432
	c3.157,2.353,6.924-1.48,8.979-3.623c2.907-3.029,5.883-5.212,4.656-9.322c-2.579-8.633-8.437-16.987-12.073-25.252
	c-4.724-10.738-5.453-22.315-7.451-33.748c-1.154-6.604-1.766-13.068-1.209-19.753C257.197,22.477,258.161,14.208,252.873,17.213z"
	/>
<path style="fill:#FCF2E0;" d="M222.438,129.282c-3.296-0.023-9.934-0.71-12.68,1.39c-4.06,3.105-2.155,8.236,1.701,9.978
	c6.485,2.93,15.319,1.657,22.345,2.505c8.678,1.048,17.806-0.132,26.545-0.214c8.578-0.08,17.06-0.074,25.616-0.009
	c4.3,0.033,10.949,1.195,14.666-1.508c2.17-1.578,4.541-5.448,3.535-8.092c-1.695-4.454-8.522-3.494-12.179-3.485
	c-10.114,0.026-20.178-0.961-30.294-0.845c-5.129,0.059-10.269-0.152-15.396-0.023C239.828,129.148,232.829,130.501,222.438,129.282
	z"/>
<g>
	<path style="fill:#D8CBB6;" d="M197.635,192.615c2.336,0.695,5.195,0.275,7.598,0.199c4.909-0.157,9.802-0.18,14.716-0.195
		c9.263-0.028,18.66-0.026,27.905-0.604c8.592-0.537,17.224-0.081,25.815,0.007c8.268,0.084,16.561-0.207,24.837-0.207
		c2.665,0,12.707-1.621,13.992,1.394c1.996,4.68-14.291,3.8-16.549,3.799c-9.673-0.003-19.337-0.002-29.006-0.196
		c-11.226-0.224-22.244-1.079-33.5-0.404c-7.841,0.47-15.535,0.652-23.372,0.597C208.478,196.995,196.616,196.924,197.635,192.615z"
		/>
	<path style="fill:#D8CBB6;" d="M248.169,207.995c-2.095,1.6-4.419,2.373-6.34,4.32c-2.355,2.386-3.68,5.004-4.899,8.075
		c-1.941,4.887-2.792,9.715-2.553,14.984c0.323,7.146,5.814,11.914,12.187,13.967c6.128,1.975,13.04,2.329,18.806-0.945
		c2.297-1.304,8.719-6.914,4.923-9.736c-2.115-1.572-6.273,0.964-8.277,1.612c-3.406,1.102-7.175,1.617-10.365-0.325
		c-7.861-4.784-6.854-20.069-0.699-25.847c1.686-1.583,5.222-2.95,5.526-5.606C256.972,204.187,249.872,206.553,248.169,207.995z"/>
	<path style="fill:#D8CBB6;" d="M192.842,340.223c-3.628-0.251-7.592,1.326-11.295,1.399c-2.435,0.049-10.272,0.11-8.492,4.665
		c1.298,3.323,7.175,2.032,9.689,1.79c2.288-0.221,7.398-0.228,9.184-1.615C193.721,345.073,194.148,341.164,192.842,340.223z"/>
</g>
<g>
	<path style="fill:#CC9B3A;" d="M195.238,308.465c3.956,1.942,0.494,7.549-1.789,9.146c-2.736,1.914-5.465,2.117-8.507,3.021
		c-3.856,1.146-8.464,1.043-9.921,5.508c-0.687,2.105-0.759,4.131-0.755,6.315c0.002,1.042-0.507,3.507-0.003,4.391
		c0.883,1.55,4.711,0.782,6.412,0.782c4.85,0,12.018,1.093,15.719-2.741c2.211-2.29,3.451-5.7,5.022-8.425
		c1.976-3.428,4.908-7.507,5.64-11.487c0.395-2.148-0.365-3.536-2.141-4.822C202.24,308.217,199.686,309.608,195.238,308.465z"/>
	<path style="fill:#CC9B3A;" d="M182.654,349.211c-0.472,3.87-3.409,7.453-5.396,10.681c-1.12,1.818-4.281,6.197-0.499,6.614
		c4.036,0.445,8.317-6.733,9.598-9.668c0.712-1.632,1.878-4.483,1.285-6.283C186.709,347.736,184.544,348.158,182.654,349.211z"/>
	<path style="fill:#CC9B3A;" d="M306.894,316.654c1.632,0.622,3.884-0.001,5.58-0.109c3.755-0.239,7.453,0.239,11.201,0.315
		c5.243,0.106,11.469,0.164,16.565,1.534c2.301,0.619,6.41,1.929,4.264,4.467c-1.695,2.006-4.688,2.45-6.063,4.864
		c-1.576,2.766-0.554,3.814-4.198,2.91c-2.671-0.662-10.695-2.379-12.854,0.449c-2.401,3.147,4.102,6.879-3.5,6.525
		c-2.007-0.093-1.914-0.375-2.405-2.302c-0.692-2.708-1.062-5.569-2.44-8.058C311.514,324.495,302.684,318.063,306.894,316.654z"/>
	<path style="fill:#CC9B3A;" d="M324.072,350.411c2.274,5.171,2.534,12.192,8.505,14.69c2.899,1.212,5.406,0.602,5.446-3.429
		c0.023-2.245-1.324-1.89-2.844-3.274c-1.847-1.684-3.21-4.453-4.581-6.552C328.782,349.062,324.756,346.568,324.072,350.411z"/>
</g>
<path style="fill:#D8CBB6;" d="M211.386,140.885c2.199,0.807,4.733,0.613,7.028,0.826c3.296,0.305,6.556,0.804,9.843,1.184
	c7.857,0.907,15.658,0.81,23.457,0.055c8.152-0.79,16.482,0.258,24.664-0.096c6.731-0.29,13.607-0.41,20.29-1.299
	c1.372-0.182,6.246-1.2,5.41-3.587c-0.634-1.809-4.531-1.253-5.862-1.253c-6.857,0.003-13.686,0.265-20.539,0.33
	c-5.004,0.047-10.003,0.522-15.015,0.323c-2.384-0.094-4.756-0.36-7.135-0.521c-1.624-0.11-3.734,0.258-5.112-0.671
	c-2.56-1.726-2.918-5.715-6.312-6.514c-4.4-1.035-9.569-0.806-14.055-0.961c-2.724-0.094-5.44,0.035-8.162-0.117
	c-2.414-0.135-5.159-0.693-7.431,0.387C207.713,131.223,207.074,139.368,211.386,140.885z"/>
<g>
	<path style="fill:#6D4C3E;" d="M230.293,304.15c-4.686,1.194-10.461,0.279-15.27,0.288c-5.748,0.011-11.457-0.893-17.211-0.592
		c-2.111,0.11-9.198-0.349-10.748,1.44c-2.442,2.818,1.426,3.311,3.575,3.486c8.731,0.708,18.317,2.656,27.006,2.178
		c3.191-0.175,6.901,0.016,9.907-1.155C229.04,309.215,233.811,305.289,230.293,304.15z"/>
	<path style="fill:#6D4C3E;" d="M324.354,303.282c-10.219,0.027-20.394,1.236-30.639,0.843c-3.847-0.147-10.419-1.503-12.542,2.919
		c1.988,2.645,6.246,2.115,9.214,2.387c5.177,0.474,10.373,0.844,15.575,0.798C312.57,310.171,320.817,310.502,324.354,303.282z"/>
	<path style="fill:#6D4C3E;" d="M304.509,295.725c-1.969-0.634-3.664-1.326-4.572-1.785c-4.514-2.282-7.253-6.252-11.749-8.301
		c-11.527-5.254-23.718-8.495-36.46-8.136c-10.392,0.292-20.303,5.047-29.592,9.356c-6.956,3.227-13.026,8.53-20.391,10.874
		c-2.728,0.868-10.296,1.476-10.29-3.334c0.002-2.153,4.569-3.769,5.971-4.506c5.861-3.081,11.944-5.979,18.17-8.261
		c14.281-5.238,28.834-8.893,44.063-9.764c14.406-0.824,28.585,2.951,41.664,8.776c4.765,2.122,11.751,5.484,14.175,10.395
		C319.481,299.101,310.653,297.7,304.509,295.725z"/>
	<path style="fill:#6D4C3E;" d="M176.462,388.661c-5.019-0.402-11.022,5.412-3.953,7.626c3.662,1.147,9.139,1.31,12.999,1.366
		c6.367,0.093,12.859,0.1,19.22-0.309c14.503-0.933,29.328,0.878,43.887,0.868c14.737-0.01,29.443,0.812,44.166,0.875
		c11.405,0.049,22.868-0.168,34.255-0.601c3.277-0.124,15.88,1.289,15.231-4.608c-0.804-7.316-18.739-4.63-22.886-4.638
		c-15.176-0.031-30.257,1.328-45.457,0.649c-15.476-0.691-30.978-0.374-46.446-1.084c-8.654-0.397-17.283-0.094-25.937-0.37
		C194.072,388.197,187.087,387.536,176.462,388.661z"/>
	<path style="fill:#6D4C3E;" d="M166.91,501.823c5.238,0.397,10.974,0.04,16.242-0.145c6.886-0.24,13.783,0.345,20.645,0.002
		c2.749-0.138,17.096-4.18,16.618,2.444c-0.254,3.515-5.979,2.62-8.07,2.619c-7.956-0.008-15.81,0.225-23.753,0.663
		c-5.024,0.278-10.257-0.201-15.303-0.439C171.319,506.876,162.784,505.895,166.91,501.823z"/>
	<path style="fill:#6D4C3E;" d="M301.78,500.666c-2.411-0.713-12.094-1.742-11.82,2.364c0.302,4.525,13.833,4.711,16.491,4.872
		c8.91,0.536,18.26,1.363,27.157,0.092c3.421-0.488,10.119-1.426,12.627-4.202c-0.985-2.005-3.929-1.555-5.878-1.742
		c-5.518-0.531-11.004-0.37-16.529-0.734c-4.805-0.316-9.591-0.157-14.39-0.386C306.048,500.77,301.801,501.299,301.78,500.666z"/>
</g>
<path style="fill:#D8CBB6;" d="M243.586,323.153c-1.864,6.94-0.43,17.104,0.366,24.33c0.433,3.931,1.076,6.905,5.238,8.125
	c4.154,1.217,13.37,2.786,16.98-0.446c2.719-2.435,1.99-5.91-0.416-8.409c-1.685-1.751-4.229-2.357-5.784-4.314
	c-2.097-2.637-2.806-6.73-3.363-9.961C255.218,324.416,252.429,313.842,243.586,323.153z"/>
<path d="M226.696,227.482c-0.362-4.111,0.043-11.017-2.249-14.702c-5.028-8.08-11.514,0.621-13.329,6.126
	c-2.747,8.335-3.989,16.986-3.114,25.511c-0.366,3.363-0.432,6.752,0.042,10.074c0.09,0.633,0.801,1.297,1.414,1.414
	c3.133,0.596,5.873,1.242,9.09,1.031c2.066-0.137,5.221,0.154,7.062-0.891c3.239-1.837,1.803-7.41,1.771-10.421
	C227.321,239.667,227.22,233.423,226.696,227.482z M223.897,251.315c-1.166,2.022-4.202,1.807-6.399,1.807
	c-4.187-0.002-5.204-0.022-5.573-3.766c-1.006-10.225-2.278-24.723,4.527-33.391c6.386-8.134,6.265,5.929,6.657,10.012
	c0.443,4.606-0.017,9.178,0.241,13.783c0.079,1.407,0.503,2.505,0.548,4.04C223.944,245.305,224.594,250.107,223.897,251.315z"/>
<path d="M232.936,160.137c-0.493-3.393-0.936-8.373-5.392-8.109c-0.536,0.032-1.035,0.124-1.505,0.262
	c-2.814,0.42-5.275,3.07-6.219,5.625c-1.919,5.192-1.873,12.278-1.296,17.679c0.08,0.743,0.461,1.382,1.216,1.597
	c3.347,0.955,8.397,0.36,11.821-0.007c0.759-0.081,1.323-0.456,1.57-1.196c0.661-1.98,0.046-4.413,0.119-6.513
	C233.363,166.331,233.391,163.269,232.936,160.137z M230.261,173.997c-1.305,0.019-2.625-0.084-3.924-0.039
	c-1.411,0.05-3.081,0.358-4.589,0.23c-0.025-0.367-0.053-0.733-0.069-1.106c0.204-3.694,0.034-9.443,1.048-13.537
	c0.346-1.254,0.914-2.401,2.046-3.312c0.793-0.638,1.592-1.041,2.377-1.531C231.716,155.255,231.154,169.25,230.261,173.997z"/>
<path d="M350.528,374.951c-2.166-2.578-4.508-4.042-7.143-5.106c-0.126-0.069-0.247-0.145-0.377-0.213
	c-0.704-0.367-1.371-0.751-2.024-1.142c0.066-0.933,0.116-1.877,0.151-2.827c1.092-7.021-0.135-14.917-0.214-21.855
	c-0.05-4.488-0.18-9.159-0.687-13.719c0.232-0.678,0.567-1.246,1.047-1.636c1.882-1.531,5.679-0.454,7.812-2.301
	c4.019-3.478,1.849-11.141-1.877-14.02c-2.669-2.063-5.781-3.578-8.988-4.584c-2.22-0.696-4.551-1.34-6.825-1.812
	c-0.169-0.035-0.915-0.099-1.634-0.166c0.142-1.525,0.322-2.819-0.734-4.711c-1.203-2.155-2.838-3.831-4.784-5.18
	c0.171-3.956-0.866-7.574-3.389-10.867c-1.7-2.217-4.071-3.394-5.949-5.398c-0.55-0.586-0.966-1.225-1.335-1.882
	c0.141-12.298-0.839-24.754-1.643-37.041c-0.181-6.649-0.422-13.287-0.455-19.994c-0.026-5.337-0.748-11.215-0.059-16.503
	c0.753-5.782,3.13-3.542,6.228-6.889c3.657-3.95-0.887-10.948-4.595-13.077c-1.832-1.052-9.107-0.924-9.439-1.417
	c-0.543-0.803,0.099-3.488,0.122-4.467c0.055-2.334-0.076-4.625-0.221-6.952c-0.299-4.807-0.934-9.587-1.293-14.369
	c-0.168-2.246-0.559-4.444-0.57-6.705c-0.015-2.736,0.085-3.883,1.761-5.672c1.987-2.119,3.783-4.701,4.376-7.591
	c0.478-2.33-0.069-6.804-2.02-8.41c-0.556-0.459-1.591-0.402-2.013-0.774c-1.058-0.932-1.555-3.801-2.14-5.15
	c-1.657-3.822-3.634-7.493-5.522-11.204c-1.304-2.565-2.777-5.015-4.074-7.58c-0.985-1.95-1.545-4.163-3.446-5.465
	c-0.75-0.513-1.451-0.779-2.113-0.868c-0.177-6.35-2.406-12.839-4.26-18.799c-2.15-6.916-4.232-13.798-6.104-20.817
	c-2.175-8.155-5.292-16.063-7.772-24.133c-0.444-1.443-0.869-3.084-1.386-4.726c-0.46-2.634-2.239-5.365-3.34-7.471
	c-0.944-1.804-2.073-4.433-3.624-6.435c2.992-2.289,4.936-6.406,3.809-9.718c-2.158-6.348-11.636-7.265-14.876-1.31
	c-1.55,2.847-1.303,6.486,0.305,9.235c0.468,0.799,1.016,1.591,1.649,2.203c-1.151,1.976-1.91,4.4-2.521,5.935
	c-0.266,0.669-0.537,1.33-0.807,1.988c-1.998,2.982-2.884,7.122-3.86,10.3c-2.48,8.069-5.597,15.978-7.772,24.133
	c-1.872,7.019-3.954,13.9-6.104,20.817c-1.853,5.961-4.082,12.449-4.26,18.799c-0.661,0.089-1.362,0.355-2.113,0.868
	c-1.901,1.302-2.461,3.515-3.445,5.465c-1.296,2.565-2.769,5.015-4.074,7.58c-1.835,3.608-3.755,7.177-5.382,10.886
	c-0.656,1.496-1.077,3.978-2.165,5.181c-0.983,1.09-2.72,1.253-3.698,2.504c-3.323,4.254,0.967,11.402,3.926,14.558
	c1.676,1.787,1.776,2.935,1.761,5.672c-0.013,2.261-0.403,4.459-0.571,6.705c-0.358,4.782-0.993,9.562-1.292,14.369
	c-0.145,2.327-0.275,4.618-0.221,6.952c0.023,0.977,0.664,3.662,0.122,4.467c-0.332,0.493-7.607,0.365-9.439,1.417
	c-3.709,2.13-8.252,9.127-4.595,13.077c3.098,3.347,5.475,1.107,6.228,6.889c0.688,5.287-0.033,11.166-0.059,16.503
	c-0.033,6.707-0.274,13.345-0.455,19.994c-0.804,12.287-1.784,24.743-1.643,37.041c-0.369,0.658-0.784,1.296-1.335,1.882
	c-1.878,2.004-4.25,3.18-5.949,5.398c-2.525,3.294-3.561,6.911-3.389,10.867c-1.947,1.349-3.582,3.025-4.784,5.18
	c-1.056,1.892-0.876,3.187-0.734,4.711c-0.719,0.067-1.464,0.131-1.634,0.166c-2.274,0.472-4.606,1.116-6.825,1.812
	c-3.207,1.006-6.319,2.522-8.988,4.584c-3.726,2.879-5.896,10.543-1.877,14.02c2.133,1.847,5.931,0.769,7.812,2.301
	c0.479,0.39,0.813,0.958,1.047,1.636c-0.507,4.56-0.637,9.23-0.687,13.719c-0.079,6.938-1.306,14.834-0.214,21.855
	c0.035,0.95,0.085,1.894,0.151,2.827c-0.653,0.39-1.32,0.775-2.024,1.142c-0.13,0.067-0.249,0.143-0.375,0.213
	c-2.635,1.064-4.978,2.528-7.143,5.106c-3.028,3.604-3.657,9.177-1.98,13.528c0.653,1.693,1.533,2.86,3.181,3.632
	c0.788,0.369,1.865,0.25,2.569,0.622c2.38,1.256,1.297,0.865,1.492,3.148c0.175,2.068-0.413,3.144,1.095,4.87
	c1.811,2.074,4.264,1.521,5.58,4.547c0.958,2.203,0.241,5.634,0.207,7.979c-0.055,3.699,0.008,7.402,0.013,11.101
	c0.008,7.061-0.451,14.09-0.53,21.145c-0.088,7.686-0.065,15.375-0.092,23.06c-0.176,2.648-0.316,5.295-0.324,7.935
	c-0.013,3.592-0.246,7.268-0.191,10.894c0,1.076,0.01,2.155,0.048,3.237c0.013,0.366,0.089,0.686,0.193,0.983
	c0.031,0.246,0.069,0.478,0.11,0.708c-1.826,2.33-4.775,1.405-7.067,3.021c-2.635,1.857-2.514,5.867-2.126,8.741
	c0.692,5.126,4.187,5.283,8.51,5.511c6.064,0.32,12.183,1.476,18.233,2.086c6.914,0.697,14.711,0.001,21.696-0.313
	c3.122-0.141,6.011,0,8.319-1.156c3.658,1.005,8.083,0.082,11.716,0.017c5.59-0.099,11.106,1.014,16.684,1.002
	c12.583-0.027,25.125-0.832,37.684-0.891c0.364,0.027,0.707,0.049,1.009,0.068c1.944,0.123,4.374,0.745,6.517,0.569
	c1.79,0.322,3.788,0.295,5.896,0.39c6.985,0.315,14.782,1.01,21.696,0.313c6.049-0.61,12.168-1.766,18.233-2.086
	c4.325-0.228,7.819-0.386,8.51-5.511c0.388-2.874,0.507-6.885-2.126-8.741c-2.293-1.616-5.241-0.691-7.067-3.021
	c0.041-0.23,0.08-0.463,0.11-0.708c0.104-0.297,0.18-0.617,0.193-0.983c0.038-1.083,0.048-2.161,0.048-3.237
	c0.055-3.625-0.18-7.302-0.191-10.894c-0.009-2.64-0.149-5.287-0.324-7.935c-0.027-7.686-0.005-15.375-0.092-23.06
	c-0.08-7.055-0.538-14.086-0.53-21.145c0.003-3.699,0.067-7.402,0.012-11.101c-0.034-2.345-0.751-5.776,0.207-7.979
	c1.315-3.025,3.768-2.472,5.58-4.547c1.508-1.727,0.919-2.801,1.095-4.87c0.195-2.283-0.889-1.893,1.492-3.148
	c0.704-0.372,1.779-0.253,2.569-0.622c1.649-0.771,2.529-1.939,3.181-3.632C354.185,384.128,353.556,378.555,350.528,374.951z
	 M329.468,313.765c3.224,0.418,6.358,1.341,9.489,2.196c2.36,0.644,7.31,4.287,2.701,4.834c-4.884,0.58-10.898-0.634-15.763-1.048
	c-4.851-0.413-10.384-0.722-15.125,0.53c-0.064,0.017-0.11,0.055-0.17,0.078c-0.581-0.897-1.19-1.781-1.844-2.648
	c-0.958-1.273-1.785-2.923-2.774-4.375c2.39-0.137,4.767-0.311,7.104-0.499c1.836-0.148,3.535-0.562,5.231-0.99
	c1.934,0.435,3.941,0.823,3.883,0.811C324.695,313.176,326.925,313.437,329.468,313.765z M182.196,346.06
	c-1.835,0.279-3.83,0.477-5.759,0.824c-0.019-2.274-0.041-4.549-0.047-6.825c-0.001-0.256,0.005-0.521,0.009-0.785
	c5.15,0.709,10.239-0.051,15.436,0.025c-0.976,2.089-1.959,4.165-2.939,6.247C186.709,345.419,184.198,345.756,182.196,346.06z
	 M186.773,350.054c-2.826,5.894-5.935,10.635-10.306,14.493c-0.067-0.43-0.107-0.876-0.165-1.312
	c0.168-4.306,0.184-8.615,0.158-12.927C179.845,350.826,183.321,350.371,186.773,350.054z M186.89,335.656
	c-3.445,0.337-6.973,0.402-10.411,0.934c0.035-1.006,0.059-2.031,0.048-3.049c0.22-2.819,0.229-5.78-0.704-7.87
	c7.862-0.519,15.871-0.429,23.626-2.033c-0.85,1.529-1.654,3.088-2.428,4.693c-1.158,2.401-2.286,4.82-3.42,7.235
	C191.449,335.118,189.037,335.447,186.89,335.656z M181.522,368.903c4.826-3.806,7.951-10.678,10.499-16.114
	c3.067-6.541,6.069-13.072,8.974-19.72c1.616-3.698,3.312-7.403,5.286-10.925c0.808-1.44,1.863-2.786,2.552-4.293
	c0.556-1.216,0.788-3.284,1.643-4.318c4.079,0.117,8.161,0.048,12.139-0.387c0.91-0.099,1.911-0.246,2.938-0.454
	c-1.023,3.195-1.296,6.737-1.868,9.97c-1.124,6.36-2.171,12.711-3.162,19.093c-1.671,10.771-2.662,21.423-3.48,32.274
	c-4.126-0.017-8.25-0.038-12.38-0.031c-9.134,0.015-18.174,0.109-27.262-0.377c-1.082-0.058-2.39-0.134-3.768-0.143
	C176.509,371.873,179.547,370.46,181.522,368.903z M221.905,360.203c0.081-6.618,1.508-13.125,2.448-19.656
	c0.828-5.743,1.723-11.485,2.503-17.234c0.484-3.567,1.313-7.52,1.006-11.206c2.827-0.877,5.478-2.378,6.59-4.98
	c2.109-4.94-1.453-7.87-5.604-9.613c-5.202-2.186-11.304-1.958-16.965-1.891c0.184-0.093,0.355-0.182,0.509-0.262
	c5.925-3.097,11.7-6.166,17.78-8.904c3.441-1.55,6.823-3.326,10.436-4.451c1.385-0.431,2.841-0.71,4.252-1.088
	c1.369-0.248,2.734-0.484,4.083-0.694c5.635-0.877,11.097-0.414,16.58,0.182c1.885,0.691,3.946,1,5.871,1.6
	c3.612,1.124,6.995,2.901,10.436,4.451c6.08,2.739,11.856,5.807,17.78,8.904c0.152,0.08,0.323,0.167,0.509,0.262
	c-5.662-0.068-11.763-0.295-16.965,1.891c-4.151,1.744-7.712,4.673-5.604,9.613c1.11,2.602,3.763,4.103,6.59,4.98
	c-0.307,3.686,0.521,7.639,1.006,11.206c0.78,5.749,1.675,11.49,2.503,17.234c0.941,6.531,2.368,13.038,2.448,19.656
	c0.056,4.63,0.287,9.24,0.927,13.833c-4.402,0.016-8.805,0.031-13.214,0.006c-4.981-0.028-9.934-0.329-14.918-0.245
	c-2.286,0.039-4.595,0.279-6.891,0.427c-2.295-0.148-4.605-0.389-6.891-0.427c-4.985-0.084-9.937,0.216-14.918,0.245
	c-4.409,0.025-8.812,0.01-13.214-0.006C221.618,369.443,221.849,364.832,221.905,360.203z M288.318,322.664
	c-0.572-3.234-0.845-6.775-1.868-9.97c1.026,0.208,2.029,0.354,2.938,0.454c3.978,0.435,8.061,0.504,12.139,0.387
	c0.853,1.034,1.087,3.102,1.643,4.318c0.688,1.506,1.744,2.852,2.552,4.293c1.974,3.521,3.67,7.227,5.286,10.925
	c2.905,6.648,5.907,13.178,8.974,19.72c2.549,5.435,5.673,12.308,10.499,16.114c1.975,1.558,5.014,2.972,7.89,4.577
	c-1.378,0.009-2.686,0.085-3.768,0.143c-9.088,0.486-18.127,0.391-27.262,0.377c-4.13-0.007-8.256,0.014-12.38,0.031
	c-0.818-10.851-1.809-21.503-3.48-32.274C290.488,335.374,289.442,329.023,288.318,322.664z M335.54,350.309
	c-0.026,4.312-0.009,8.621,0.158,12.927c-0.058,0.436-0.097,0.882-0.165,1.312c-4.371-3.859-7.48-8.6-10.306-14.493
	C328.682,350.371,332.158,350.826,335.54,350.309z M323.106,345.545c-0.98-2.082-1.963-4.159-2.939-6.247
	c5.198-0.076,10.287,0.684,15.436-0.025c0.005,0.264,0.01,0.529,0.009,0.785c-0.006,2.277-0.027,4.551-0.047,6.825
	c-1.929-0.346-3.924-0.545-5.759-0.824C327.805,345.756,325.294,345.419,323.106,345.545z M335.476,333.541
	c-0.012,1.018,0.011,2.043,0.048,3.049c-3.437-0.532-6.965-0.597-10.411-0.934c-2.147-0.209-4.559-0.538-6.709-0.09
	c-1.134-2.415-2.262-4.834-3.42-7.235c-0.774-1.605-1.578-3.164-2.428-4.693c7.755,1.604,15.764,1.514,23.626,2.033
	C335.246,327.761,335.255,330.722,335.476,333.541z M320.759,302.268c4.969,2.876,1.612,3.146-1.062,3.81
	c-8.168,2.031-16.421,2.048-24.848,1.954c-3.179-0.035-11.39,0.356-11.924-3.425c-0.589-4.168,7.551-4.04,10.967-4.256
	c5.572-0.353,11.933-0.612,17.879-0.119c2.246,0.603,4.462,0.975,6.368,0.898C319.066,301.449,319.96,301.806,320.759,302.268z
	 M260.64,28.591c1.065,2.902,2.213,5.646,3.111,8.622c2.328,7.717,5.411,15.148,7.546,22.927c1.995,7.265,4.339,14.355,6.458,21.564
	c1.479,5.031,2.086,12.298,5.112,17.056c-0.961,0.861-1.815,2.004-2.593,3.091c-1.775,2.478-4.044,4.393-6.049,6.678
	c-0.709,0.807-1.382,1.856-2.097,2.901c-1.034,0.952-2.079,1.894-3.152,2.77c-0.011-0.089-0.02-0.171-0.024-0.231
	c-0.121-2.047-0.107-4.112-0.306-6.15c-0.407-4.172-1.164-8.349-1.874-12.476c-1.389-8.066-2.508-16.079-3.393-24.217
	c-0.939-8.62-1.454-17.286-2.534-25.894c-0.866-6.898-1.093-15.005-2.628-22.166c0.421,0.745,0.831,1.497,1.214,2.255
	C259.737,26.403,260.227,27.465,260.64,28.591z M264.965,110.592c-0.385-0.843-0.737-1.614-1.044-2.161
	c-1.462-2.6-3.707-5.353-4.526-8.216c-0.304-1.06-1.173-1.547-2.194-1.67c-4.082-0.494-7.465,9.085-9.111,11.75
	c-0.65,1.051-1.261,2.163-1.939,3.218c1.578-16.649,3.59-33.313,6.319-49.792c1.333-8.051,2.5-16.231,3.272-24.354
	c0.196-2.059,0.455-4.174,0.712-6.316c0.299,3.463,0.598,6.921,1.084,10.371c1.402,9.942,1.885,20.058,2.653,30.054
	c0.62,8.066,1.99,15.972,3.177,23.961c0.611,4.114,1.397,8.204,1.591,12.365C264.968,110.031,264.968,110.301,264.965,110.592z
	 M252.181,5.952c0.214-0.956,0.994-1.496,1.312-2.319c2.922-1.576,7.824,0.086,6.843,4.088c-0.899,3.664-6.559,6.939-7.961,1.74
	C252.134,8.572,251.973,6.884,252.181,5.952z M234.248,81.705c2.119-7.209,4.465-14.299,6.458-21.564
	c2.134-7.779,5.219-15.21,7.546-22.927c0.898-2.978,2.046-5.72,3.111-8.622c0.592-1.61,1.328-3.092,1.471-4.678
	c0.793-1.911,1.514-3.615,2.037-4.631c-2.537,15.137-3.363,30.558-5.914,45.712c-1.463,8.689-2.576,17.329-3.706,26.072
	c-0.986,7.629-2.544,15.563-2.847,23.317c-0.2-0.158-0.4-0.316-0.603-0.486c-1.538-1.592-2.722-3.885-4.023-5.367
	c-2.006-2.285-4.275-4.199-6.049-6.678c-0.778-1.088-1.632-2.23-2.593-3.091C232.161,94.003,232.768,86.736,234.248,81.705z
	 M218.865,117.897c1.176-2.166,2.369-4.312,3.525-6.488c1.15-2.161,1.979-4.763,3.549-6.667c1.512-1.833,2.083-0.638,3.42,0.779
	c1.847,1.958,3.859,3.767,5.619,5.808c0.57,0.661,1.082,1.361,1.583,2.062c0.474,3.288,6.601,8.08,9.06,7.514
	c3.003-0.692,5.028-5.592,6.41-7.808c1.274-2.041,1.754-4.494,3.033-6.527c1.682-2.676,3.215-0.644,4.215,1.485
	c1.942,4.138,2.984,9.217,6.848,12.102c0.628,0.469,1.63,0.366,2.269,0c0.854-0.489,1.8-1.135,2.759-1.884
	c0.482-0.338,0.936-0.705,1.348-1.12c2.238-1.967,4.359-4.412,5.403-6.79c1.448-1.563,3.251-2.956,4.54-4.649
	c1.496-1.967,2.426-2.801,3.954-0.453c1.265,1.942,2.128,4.107,3.213,6.148c1.157,2.174,2.348,4.321,3.525,6.488
	c1.736,3.195,3.153,6.728,5.311,9.653c-0.651-0.03-1.292-0.043-1.878-0.019c-0.66,0.027-1.412,0.207-2.163,0.374
	c-0.35-0.023-0.7-0.046-1.049-0.084c-3.429-0.386-6.691-0.773-10.16-0.827c-4.601-0.072-9.202-0.134-13.803-0.16
	c-2.093-0.011-3.949-0.137-5.76,0.093c-2.39-0.053-4.744,0.102-6.377,0.043c-2.674-0.097-5.371-0.015-8.059,0.093
	c-2.078-0.407-4.177-0.242-6.59-0.23c-4.601,0.025-9.202,0.088-13.803,0.16c-3.469,0.053-6.731,0.441-10.16,0.827
	c-0.348,0.039-0.699,0.063-1.049,0.084c-0.751-0.167-1.503-0.347-2.163-0.374c-0.586-0.024-1.228-0.01-1.878,0.019
	C215.711,124.624,217.129,121.092,218.865,117.897z M210.108,132.679c0.693-0.41,1.609-0.707,2.615-0.963
	c2.264,0.119,4.808,0.603,6.245,0.584c3.601-0.048,7.176-0.072,10.781-0.017c3.447,0.052,6.894,0.089,10.341,0.118
	c5.152,0.468,10.682,0.008,15.41,0.132c4.644,0.122,9.711,0.827,14.344-0.109c4.137-0.025,8.273-0.079,12.408-0.141
	c3.606-0.055,7.18-0.032,10.781,0.017c1.437,0.019,3.981-0.464,6.245-0.584c1.006,0.257,1.922,0.553,2.615,0.963
	c-0.13,0.853-0.356,1.726-0.654,2.53c-6.139-0.675-12.993,0.027-18.894,0.043c-8.325,0.02-16.638-0.114-24.965-0.093
	c-7.818,0.019-15.608-0.006-23.415-0.246c-7.692-0.236-15.45,0.58-23.132,0.489C210.498,134.547,210.247,133.6,210.108,132.679z
	 M275.625,161.039c-0.124-5.409-0.741-10.698-1.19-16.035c1.975,0.034,3.986,0.074,5.988,0.017c2.43,0.064,4.849,0.084,7.224,0.043
	c1.434-0.025,5.69-1.141,7.129-0.669c-0.11,0.075,0.185,0.715,0.164,1.5c-0.035,1.316,0.002,2.645,0.032,3.963
	c0.141,6.339,0.776,12.645,1.228,18.942c0.305,4.25,0.391,8.508,0.968,12.703c-0.028,1.142,0.01,2.348,0.344,3.428
	c-1.134,0.024-2.268,0.058-3.397,0.117c-4.252-0.555-8.682-0.199-13.015,0.017c-1.305-2.241-3.352-4.154-5.461-5.923
	C276.717,173.572,275.753,166.64,275.625,161.039z M236.364,179.14c-2.109,1.769-4.155,3.682-5.461,5.923
	c-4.334-0.216-8.763-0.572-13.015-0.017c-1.13-0.059-2.263-0.093-3.397-0.117c0.333-1.079,0.373-2.285,0.345-3.428
	c0.577-4.195,0.663-8.454,0.968-12.703c0.452-6.295,1.087-12.603,1.228-18.942c0.03-1.318,0.067-2.646,0.032-3.963
	c-0.02-0.784,0.275-1.423,0.164-1.5c1.439-0.472,5.697,0.644,7.129,0.669c4.329,0.075,8.805-0.038,13.232-0.291
	c-0.451,5.415-1.084,10.778-1.211,16.265C236.249,166.64,235.285,173.572,236.364,179.14z M245.07,177.822
	c2.095-1.818,4.232-3.183,6.534-4.659c0.352-0.225,0.666-0.454,0.938-0.695c0.36-0.177,0.721-0.352,1.092-0.512
	c2.355-1.022,4.063-0.556,5.754,0.439c0.29,0.268,0.626,0.52,1.011,0.768c2.302,1.476,4.44,2.841,6.534,4.659
	c2.485,2.157,5.156,5.053,8.043,7.352c-6.316-0.094-12.763-0.485-18.949,0.874c-0.018,0-0.036,0-0.053-0.001
	c-6.185-1.357-12.631-0.967-18.946-0.873C239.914,182.875,242.585,179.979,245.07,177.822z M240.304,144.607
	c0.507-0.036,1.004-0.086,1.509-0.126c4.173,0.147,8.352,0.273,12.523,0.354c5.758,0.111,11.524,0.13,17.292,0.138
	c-0.157,0.824-0.104,1.699-0.099,2.689c0.016,3.777,0.314,7.538,0.205,11.33c-0.15,5.195-1.304,10.706-1.035,15.998
	c-0.051-0.047-0.102-0.096-0.154-0.142c-1.178-2.17-4.777-4.033-6.286-4.997c-2.668-1.703-6.189-4.62-9.615-3.874
	c-2.303,0.502-4.705,2.274-6.879,4.069c-0.272,0.118-0.545,0.231-0.809,0.375c-2.113,1.161-3.873,2.941-5.65,4.568
	c0.27-5.292-0.885-10.803-1.035-15.998c-0.109-3.792,0.189-7.552,0.205-11.33C240.479,146.524,240.567,145.535,240.304,144.607z
	 M297.169,139.576c-1.612-0.342-3.668,0.081-5.731,0.363c-4.148,0.567-8.325,0.751-12.507,0.884
	c-8.189-0.302-16.412-0.074-24.595-0.217c-5.284-0.092-10.536-0.191-15.815-0.215c-2.694-0.011-5.464,0.033-8.148,0.222
	c-0.251,0.017-0.504,0.048-0.758,0.083c-3.026-0.135-6.047-0.346-9.053-0.757c-2.063-0.282-4.118-0.705-5.731-0.363
	c-0.908-0.556-1.832-1.049-2.636-1.877c-0.218-0.225-0.422-0.501-0.614-0.801c6.747,0.587,13.636,0.126,20.386,0.266
	c8.121,0.167,16.209,0.4,24.34,0.42c8.348,0.022,16.682,0.201,25.024,0.223c5.483,0.014,11.871,0.806,17.762,0.52
	C298.478,138.807,297.82,139.176,297.169,139.576z M205.347,190.111c3.424-0.356,7.013-0.844,10.472-0.837
	c6.989,0.014,14.005,0.39,21.029,0.415c0.182,0.176,0.427,0.304,0.757,0.311c3.155,0.066,6.381-0.239,9.516,0.011
	c1.897,0.152,3.896,0.447,5.768,0.132c1.344,0.055,2.694,0.065,4.041,0.065c2.565,0,5.797,0.415,8.471-0.217
	c2.972-0.182,6.014,0.073,8.996,0.009c0.33-0.007,0.575-0.134,0.757-0.311c7.025-0.024,14.041-0.402,21.029-0.415
	c3.459-0.007,7.048,0.481,10.472,0.837c2.365,0.246,9.821,0.032,2.111,4.599c-0.672,0.399-4.1,0.658-4.136,0.66
	c-4.187,0.207-8.44-0.916-12.675-0.762c-3.792,0.138-7.541,0.422-11.347,0.473c-1.673,0.023-3.393-0.005-5.13-0.042
	c-3.234-0.328-6.535-0.166-9.786-0.289c-4.371-0.165-8.723-0.342-13.114-0.339c-6.092,0.005-12.52-0.224-18.666,0.668
	c-0.846,0.008-1.691,0.013-2.519,0.001c-3.805-0.05-7.554-0.336-11.347-0.473c-4.235-0.154-8.488,0.969-12.675,0.762
	c-0.035-0.002-3.463-0.261-4.136-0.66C195.526,190.143,202.982,190.357,205.347,190.111z M281.762,227.666
	c-0.046-5.484-0.472-10.857-0.769-16.311c-0.049-0.902-0.967-8.111-1.452-11.493c3.736-0.063,7.431-0.279,10.978-0.555
	c5.119-0.398,10.3-0.023,15.4-0.685c-1.312,6.589-0.601,13.255-0.726,19.956c-0.073,3.906,0.246,7.852,0.606,11.785
	c0.014,8.846,0.486,17.543,0.399,26.431c-0.041,4.255,0.354,8.499,0.671,12.746c0.152,2.051,0.162,3.874,0.534,5.605
	c-1.991-1.281-4.089-2.382-6.27-3.212c-6.433-2.445-12.796-4.565-19.251-6.081C282.314,253.159,281.868,240.366,281.762,227.666z
	 M276.742,264.785c-2.026-0.365-4.068-0.659-6.125-0.883c-6.489-1.496-13.599-1.248-19.945-1.036
	c-4.448,0.148-8.804,0.652-13.065,1.529c-0.784,0.121-1.567,0.249-2.346,0.39c0.229-7.546,0.173-15.125,0.064-22.7
	c0.634,1.09,1.42,2.15,2.409,3.181c3.557,3.708,8.341,6.518,13.459,7.366c11.923,1.976,21.22-5.675,25.569-15.949
	C276.61,246.051,276.457,255.445,276.742,264.785z M235.512,199.874c3.767-0.03,7.546-0.254,11.235-0.751
	c1.77-0.102,3.47-0.192,5.019-0.197c5.45-0.014,11.364,0.655,17.114,0.602c2.521,0.218,5.069,0.325,7.609,0.346
	c-0.678,3.359,0.097,7.076,0.152,10.453c0.022,1.318,0.052,2.631,0.084,3.943c-0.21-0.269-0.428-0.53-0.651-0.787
	c-0.605-0.84-1.291-1.66-2.087-2.454c-2.435-2.43-5.908-4.202-9.599-5.134c-3.55-1.17-7.325-1.644-11.07-1.254
	c-9.362,0.975-15.269,6.681-18.154,14.352c0.061-2.887,0.146-5.77,0.193-8.666C235.415,206.95,236.191,203.232,235.512,199.874z
	 M272.101,235.681c-3.092,6.392-7.161,11.851-14.704,12.925c-5.516,0.785-11.607-0.761-15.883-4.403
	c-5.799-4.939-6.214-11.531-5.022-18.788c0.91-5.543,3.362-11.627,8.472-14.477c2.756-1.537,5.647-2.438,8.529-2.768
	c5.377,0.555,11.666,1.275,16.104,4.425c0.568,0.429,1.115,0.887,1.643,1.371c1.418,1.391,2.551,3.133,3.246,5.358
	C276.145,224.633,274.422,230.883,272.101,235.681z M230.119,265.854c-6.455,1.517-12.817,3.636-19.251,6.081
	c-2.181,0.829-4.279,1.931-6.27,3.212c0.372-1.731,0.381-3.552,0.534-5.605c0.317-4.247,0.712-8.491,0.671-12.746
	c-0.086-8.888,0.386-17.585,0.399-26.431c0.361-3.934,0.679-7.88,0.606-11.785c-0.124-6.701,0.586-13.368-0.726-19.956
	c5.098,0.662,10.281,0.286,15.4,0.685c3.548,0.276,7.242,0.493,10.978,0.555c-0.485,3.381-1.403,10.59-1.452,11.493
	c-0.297,5.454-0.724,10.826-0.769,16.311C230.134,240.366,229.688,253.159,230.119,265.854z M194.745,291.645
	c1.842-4.188,6.55-8.411,10.188-11.089c4.509-3.319,9.435-5.107,14.69-6.957c4.045-1.424,8.25-2.809,12.528-4.013
	c6.505-1.327,12.95-2.769,19.761-2.947c4.954-0.13,9.942-0.207,14.846,0.572c3.686,0.586,7.697,2.109,11.486,1.933
	c4.833,1.3,9.587,2.851,14.137,4.454c5.254,1.85,10.181,3.639,14.69,6.957c3.637,2.677,8.345,6.901,10.188,11.089
	c4.147,9.429-10.211,2.066-13.242,0.043c-4.471-2.983-8.912-6.028-13.721-8.457c-4.634-2.34-9.608-3.798-14.657-4.942
	c-3.05-1.995-6.862-2.452-10.497-2.98c-4.979-0.724-10.134-0.93-15.12-0.182c-4.477,0.671-9.413,1.693-14.122,3.271
	c-4.887,1.129-9.697,2.566-14.188,4.834c-4.809,2.429-9.25,5.474-13.721,8.457C204.957,293.711,190.598,301.074,194.745,291.645z
	 M191.243,302.268c0.799-0.463,1.693-0.819,2.619-1.139c1.906,0.077,4.123-0.295,6.368-0.898c5.947-0.493,12.307-0.232,17.879,0.119
	c3.417,0.216,11.556,0.089,10.967,4.256c-0.534,3.781-8.746,3.388-11.924,3.425c-8.427,0.094-16.68,0.077-24.848-1.954
	C189.631,305.414,186.275,305.145,191.243,302.268z M170.344,320.796c-4.608-0.547,0.342-4.19,2.701-4.834
	c3.131-0.854,6.265-1.778,9.489-2.196c2.543-0.329,4.773-0.589,7.265-1.109c-0.058,0.012,1.949-0.377,3.883-0.811
	c1.696,0.428,3.396,0.842,5.231,0.99c2.337,0.188,4.714,0.363,7.104,0.499c-0.989,1.453-1.815,3.102-2.774,4.375
	c-0.653,0.868-1.263,1.751-1.844,2.648c-0.059-0.024-0.105-0.063-0.17-0.078c-4.74-1.253-10.274-0.943-15.125-0.53
	C181.241,320.163,175.229,321.377,170.344,320.796z M219.133,502.423c-0.263,0.449-0.404,0.773-0.503,1.022
	c-1.863,1.24-4.667,0.729-7.055,0.737c-3.728,0.014-7.522-0.171-11.239,0.165c-5.607,0.506-10.868-0.133-16.452-0.098
	c-3.262,0.02-6.451-0.331-9.731-0.236c-0.506,0.015-1.339,0.102-2.181,0.115c-1.498-0.375-2.708-0.983-3.024-1.985
	c-0.03-0.279-0.044-0.576-0.046-0.885c0.046-0.282,0.142-0.585,0.308-0.916c0.511-1.017,3.359-1.34,5.406-2.186
	c0.967-0.229,1.934-0.451,2.908-0.647c2.128,0.719,4.719,0.915,6.75,0.917c4.156,0.005,8.366,0.156,12.496,0.125
	c4.155-0.031,8.459-0.663,12.613-1.005c2.188-0.18,4.039-0.438,5.616-1.701c0.354,0.002,0.707,0.009,1.054,0.021
	C218.741,497.963,222.196,497.199,219.133,502.423z M332.429,410.432c0.055,2.681,0.093,5.362,0.13,8.044
	c-0.035,1.946-0.058,3.871-0.09,5.748c-0.166,9.74,0.137,19.405,0.094,29.115c-0.013,2.856,0.134,5.726,0.322,8.6
	c0.09,9.578,0.245,19.151,0.578,28.709c0.001,0.055,0.011,0.104,0.021,0.154c-0.001,0.024,0,0.047,0,0.071
	c-1.939,2.643-7.49,1.543-10.14,1.487c-4.07-0.085-8.022,0.292-12.085,0.072c-3.329-0.181-9.432,0.834-11.68-2.133
	c-2.682-3.541-1.324-10.483-1.057-14.595c0.238-3.653,0.487-7.423,0.307-11.085c-0.003-0.076-0.013-0.138-0.017-0.212
	c2.98,0.225,6.28-0.257,8.592-0.498c4.441-0.465,8.247-1.779,8.083-7.003c-0.113-3.619-1.271-9.662-5.384-10.68
	c-4.905-1.214-10.656-1.974-15.789-1.605c0.002-0.344-0.003-0.689-0.04-1.042c-0.316-3.115-1.025-6.633-2.263-9.491
	c-4.029-9.302-11.017-17.246-20.236-20.814c-5.878-2.905-14.22-2.758-19.722-2.105c-0.217,0.026-0.433,0.059-0.651,0.088
	c-0.006,0-0.011-0.003-0.018-0.003c-14.793-0.166-25.867,10.077-31.392,22.836c-1.238,2.858-1.947,6.376-2.263,9.491
	c-0.035,0.352-0.042,0.697-0.04,1.042c-5.132-0.367-10.885,0.391-15.789,1.605c-4.114,1.019-5.271,7.061-5.384,10.68
	c-0.164,5.224,3.642,6.538,8.083,7.003c2.311,0.242,5.613,0.725,8.592,0.498c-0.005,0.074-0.013,0.135-0.017,0.212
	c-0.18,3.661,0.069,7.432,0.307,11.085c0.267,4.112,1.625,11.055-1.057,14.595c-2.248,2.967-8.351,1.952-11.68,2.133
	c-4.063,0.221-8.017-0.158-12.085-0.072c-2.65,0.056-8.201,1.156-10.14-1.487c0-0.024,0.001-0.047,0-0.071
	c0.008-0.05,0.018-0.099,0.02-0.154c0.333-9.558,0.488-19.132,0.578-28.709c0.189-2.874,0.335-5.745,0.322-8.6
	c-0.042-9.71,0.261-19.375,0.094-29.115c-0.032-1.877-0.055-3.802-0.09-5.748c0.038-2.682,0.075-5.363,0.13-8.044
	c0.059-2.926-0.007-6.131-1.304-8.776c-0.127-0.815-0.258-1.628-0.415-2.428c5.965,0.829,12.097,1.133,18.044,1.588
	c8.961,0.685,18.235,0.222,27.231,0.163c4.278-0.028,8.513-0.617,12.793-0.542c1.955,0.034,3.749,0.053,5.518-0.032
	c3.362,0.073,6.722,0.101,10.104,0.116c8.033,0.034,17.935,2.393,25.822-0.064c3.843,0.041,7.658,0.496,11.507,0.521
	c8.996,0.059,18.269,0.522,27.231-0.163c5.947-0.455,12.079-0.759,18.044-1.588c-0.158,0.799-0.288,1.612-0.415,2.428
	C332.436,404.301,332.37,407.506,332.429,410.432z M295.278,459.305c-1.377-0.854-2.315-1.568-2.825-2.476
	c0.121-0.568,0.303-1.151,0.44-1.637c0.517-1.808,0.873-3.102,1.099-5.048c0.093-0.806,0.14-1.611,0.164-2.414
	c1.554,0.267,3.02,0.808,4.63,0.92c2.2,0.156,4.166,0.693,6.323,1.173c1.938,0.431,3.982,0.319,4.956,2.29
	c0.408,0.827,1.106,3.901,0.957,4.792C310.396,460.627,300.095,458.242,295.278,459.305z M219.55,456.829
	c-0.51,0.908-1.448,1.621-2.825,2.476c-4.816-1.063-15.117,1.322-15.742-2.398c-0.15-0.891,0.548-3.965,0.957-4.792
	c0.973-1.972,3.018-1.859,4.956-2.29c2.156-0.48,4.122-1.018,6.323-1.173c1.61-0.114,3.074-0.654,4.63-0.92
	c0.024,0.803,0.071,1.609,0.164,2.414c0.226,1.947,0.583,3.24,1.099,5.048C219.247,455.678,219.429,456.261,219.55,456.829z
	 M288.567,491.465c-1.385,0.856-1.948,2.357-2.179,3.963c-0.819,1.946-0.63,4.306-0.007,6.563c0.09,0.655,0.234,1.236,0.403,1.784
	c-11.802-0.032-23.526-0.129-35.29-1.039c-6.11-0.472-12.313-0.082-18.447-0.001c-2.411,0.032-5.021-0.163-7.559-0.046
	c0.046-0.232,0.1-0.451,0.134-0.697c0.624-2.256,0.812-4.618-0.007-6.563c-0.232-1.607-0.794-3.107-2.179-3.963
	c-1.081-0.668-2.477-0.842-3.963-0.748c1.287-3.573,1.635-8.297,1.696-11.115c0.058-2.716,0.189-5.457,0.201-8.173
	c0.008-1.842-0.799-4.44,0.073-5.712c0.844-1.231,2.659-1.579,3.535-3.147c0.801-1.432,0.952-2.962,0.77-4.56
	c-0.104-0.911-0.292-1.798-0.513-2.674c-0.093-1.949-0.803-3.822-1.423-5.688c-0.038-0.226-0.08-0.451-0.108-0.678
	c-0.768-6.199,1.264-11.04,4.141-16.49c2.238-4.242,5.881-8.804,10.104-11.266c1.211-0.705,2.52-1.272,3.849-1.81
	c3.425-1.253,7.027-2.006,10.638-2.503c4.44-0.611,8.888-0.602,13.191,0.584c2.767,1.31,5.815,2.208,8.425,3.73
	c4.222,2.462,7.865,7.023,10.104,11.266c2.876,5.45,4.908,10.292,4.141,16.49c-0.028,0.229-0.071,0.453-0.108,0.678
	c-0.62,1.866-1.329,3.739-1.423,5.688c-0.22,0.876-0.41,1.761-0.513,2.674c-0.182,1.597-0.03,3.128,0.771,4.56
	c0.876,1.568,2.691,1.917,3.535,3.147c0.872,1.271,0.065,3.87,0.073,5.712c0.013,2.716,0.142,5.457,0.201,8.173
	c0.06,2.818,0.41,7.542,1.695,11.115C291.044,490.624,289.648,490.797,288.567,491.465z M342.793,500.343
	c0.166,0.331,0.262,0.634,0.308,0.916c-0.001,0.309-0.017,0.606-0.046,0.885c-0.316,1.002-1.526,1.61-3.024,1.985
	c-0.842-0.013-1.675-0.1-2.181-0.115c-3.28-0.097-6.469,0.256-9.731,0.236c-5.584-0.035-10.845,0.604-16.452,0.098
	c-3.718-0.336-7.51-0.151-11.239-0.165c-2.388-0.008-5.193,0.503-7.055-0.737c-0.099-0.248-0.24-0.572-0.503-1.022
	c-3.063-5.223,0.393-4.461,3.081-6.554c0.348-0.011,0.7-0.018,1.055-0.02c1.578,1.263,3.428,1.521,5.616,1.701
	c4.154,0.341,8.459,0.974,12.613,1.005c4.13,0.031,8.34-0.121,12.496-0.125c2.03-0.002,4.623-0.198,6.75-0.917
	c0.973,0.197,1.941,0.419,2.908,0.647C339.435,499.004,342.282,499.327,342.793,500.343z M336.476,393.656
	c-0.917,0.461-2.744,0.19-3.791,0.284c-2.555,0.23-5.112,0.49-7.671,0.693c-6.453,0.51-12.844,0.688-19.316,0.655
	c-7.576-0.039-15.239,0.281-22.793-0.306c-5.022-0.39-10.023-0.067-14.938,0.911c-0.778-0.007-1.553-0.024-2.319-0.076
	c-3.672-0.254-7.325-0.634-11.012-0.629c-5.004,0.006-10.012-0.055-15.015,0.012c-3.483-0.406-6.997-0.492-10.521-0.217
	c-7.555,0.587-15.218,0.267-22.793,0.306c-6.472,0.033-12.862-0.145-19.316-0.655c-2.559-0.203-5.115-0.463-7.671-0.693
	c-1.047-0.094-2.874,0.177-3.791-0.284c-0.732-0.367-1.312-1.331-1.776-2.394c0.297,0.016,0.586,0.034,0.865,0.058
	c4.419,0.369,8.921-0.282,13.386-0.064c5.084,0.249,10.061-0.528,15.096-0.328c4.422,0.176,8.905,0.868,13.313,1.262
	c5.193,0.464,10.186,0.127,15.37-0.069c4.573-0.174,8.902,0.543,13.522-0.055c3.561-0.46,7.129-0.909,10.698-1.337
	c3.569,0.428,7.137,0.877,10.698,1.337c4.622,0.596,8.951-0.121,13.522,0.055c5.183,0.198,10.176,0.534,15.37,0.069
	c4.408-0.394,8.891-1.085,13.313-1.262c5.035-0.2,10.012,0.577,15.096,0.328c4.466-0.218,8.967,0.432,13.386,0.064
	c0.279-0.024,0.568-0.042,0.865-0.058C337.788,392.326,337.207,393.288,336.476,393.656z M342.493,386.218
	c-1.958,0.08-3.97,0.196-5.929,0.217c-4.171,0.047-8.35-0.708-12.563-0.667c-8.002,0.078-15.6-0.63-23.606,0.015
	c-4.272,0.345-8.409,0.774-12.705,0.732c-3.716-0.036-7.405-0.613-11.113-0.375c-6.926,0.445-13.684-0.88-20.576-0.679
	c-6.893-0.2-13.65,1.124-20.576,0.679c-3.707-0.238-7.395,0.339-11.113,0.375c-4.296,0.043-8.433-0.387-12.705-0.732
	c-8.006-0.645-15.604,0.064-23.606-0.015c-4.213-0.042-8.392,0.713-12.563,0.667c-1.959-0.022-3.972-0.138-5.929-0.217
	c-2.981-0.122-3.8,0.561-3.611-4.165c0.051-1.294,0.515-2.44,1.247-3.482c6.238-1.382,14.147,0.939,20.173,1.169
	c8.881,0.339,17.763,0.146,26.637,0.561c8.877,0.415,17.915-0.325,26.774-0.889c5.047-0.321,10.415-0.152,15.273-1.552
	c4.859,1.399,10.226,1.231,15.273,1.552c8.859,0.563,17.897,1.304,26.774,0.889c8.875-0.415,17.755-0.222,26.637-0.561
	c6.026-0.23,13.933-2.551,20.173-1.169c0.732,1.041,1.195,2.188,1.247,3.482C346.293,386.779,345.474,386.097,342.493,386.218z"/>
<path d="M286.391,256.044c1.841,1.046,4.996,0.755,7.062,0.891c3.216,0.212,5.956-0.435,9.09-1.031
	c0.613-0.116,1.324-0.781,1.414-1.414c0.474-3.322,0.408-6.711,0.042-10.074c0.875-8.525-0.367-17.176-3.114-25.511
	c-1.815-5.506-8.302-14.207-13.329-6.126c-2.293,3.685-1.888,10.591-2.249,14.702c-0.523,5.941-0.625,12.185-0.687,18.142
	C284.588,248.634,283.152,254.207,286.391,256.044z M288.104,243.797c0.046-1.535,0.47-2.633,0.548-4.04
	c0.258-4.605-0.201-9.177,0.241-13.783c0.393-4.083,0.271-18.146,6.657-10.012c6.805,8.669,5.534,23.167,4.527,33.391
	c-0.369,3.744-1.387,3.764-5.573,3.766c-2.197,0.001-5.233,0.215-6.4-1.807C287.408,250.107,288.058,245.305,288.104,243.797z"/>
<path d="M278.871,175.988c0.247,0.74,0.811,1.115,1.57,1.196c3.426,0.366,8.474,0.961,11.821,0.007
	c0.755-0.215,1.138-0.854,1.216-1.597c0.577-5.401,0.624-12.488-1.296-17.679c-0.944-2.554-3.405-5.205-6.219-5.625
	c-0.47-0.137-0.969-0.23-1.505-0.262c-4.457-0.263-4.899,4.716-5.392,8.109c-0.455,3.132-0.428,6.194-0.316,9.338
	C278.826,171.574,278.21,174.008,278.871,175.988z M284.854,154.701c0.784,0.49,1.584,0.893,2.377,1.531
	c1.132,0.911,1.701,2.058,2.046,3.312c1.014,4.094,0.843,9.843,1.048,13.537c-0.016,0.373-0.046,0.737-0.069,1.106
	c-1.508,0.129-3.179-0.18-4.589-0.23c-1.299-0.046-2.619,0.058-3.924,0.039C280.849,169.25,280.286,155.255,284.854,154.701z"/>
<path d="M262.614,216.294c-2.409,2.685-4.561,5.683-6.857,8.475c-0.34-0.119-0.699-0.185-1.06-0.173
	c-1.275,0.047-2.306,0.801-2.979,1.845c-0.181,0.281-0.313,0.587-0.414,0.903c-3.372,0.713-6.897,0.955-10.033,2.583
	c-2.266,1.176,0.031,4.286,1.791,3.31c2.353-0.688,4.746-1.25,7.12-1.864c0.614-0.159,1.311-0.257,2.014-0.37
	c0.849,0.833,2.076,1.247,3.299,0.877c1.746-0.528,2.917-2.348,2.676-4.151c-0.019-0.142-0.05-0.279-0.085-0.413
	c2.751-2.38,5.187-6.369,7.034-8.517C266.494,217.054,264.172,214.559,262.614,216.294z"/>
<path d="M246.288,356.69c5.542,1.667,12.913,2.353,18.674,2.052c7.35-0.382,6.494-6.629,6.949-12.63
	c0.336-4.424,0.507-8.826,0.505-13.261c-0.002-3.272,0.769-7.63-0.38-10.759c-2.294-6.247-11.642-4.865-16.886-4.9
	c-4.773-0.031-10.466-0.21-11.935,4.166c-2.769,3.856-0.952,13.371-0.922,17.313C242.337,344.38,239.032,354.509,246.288,356.69z
	 M245.02,324.636c0.066-0.085,0.107-0.197,0.147-0.313c1.244-2.512,4.452-3.174,7.518-3.568c0.14-0.018,0.288-0.026,0.43-0.041
	c3.625-0.174,7.49,0.236,9.211,0.46c3.78,0.494,6.2,0.953,6.43,5.004c0.145,2.561-0.031,5.19-0.033,7.761
	c-0.003,5.428-0.381,10.837-0.836,16.246c-0.264,3.145-0.393,4.617-3.643,5.043c-2.39,0.313-5.324-0.303-7.691-0.554
	c-3.166-0.337-10.015-0.171-11.339-3.626c-0.872-2.276-0.035-5.847,0.014-8.26c0.066-3.23-0.072-6.559-0.275-9.78
	c-0.133-2.087-0.347-4.141-0.328-6.241C244.632,325.943,244.775,325.242,245.02,324.636z"/>
<g>
</g>
<g>
</g>
<g>
</g>
<g>
</g>
<g>
</g>
<g>
</g>
<g>
</g>
<g>
</g>
<g>
</g>
<g>
</g>
<g>
</g>
<g>
</g>
<g>
</g>
<g>
</g>
<g>
</g>
</svg>
