<?xml version="1.0" encoding="iso-8859-1"?>
<!-- Generator: Adobe Illustrator 19.0.0, SVG Export Plug-In . SVG Version: 6.00 Build 0)  -->
<svg version="1.1" id="Layer_1" xmlns="http://www.w3.org/2000/svg" xmlns:xlink="http://www.w3.org/1999/xlink" x="0px" y="0px"
	 viewBox="0 0 511.999 511.999" style="enable-background:new 0 0 511.999 511.999;" xml:space="preserve">
<path style="fill:#DDDDC7;" d="M120.802,110.249c0.098-1.071,0.394-2.143,0.8-3.132c0.906-2.208,2.304-4.188,3.2-6.399
	c1.333-3.288,1.08-6.483,1.413-9.912c0.247-2.54,1.229-4.81,1.683-7.316c1.344-7.431,2.14-14.594,6.068-21.253
	c26.813-4.322,53.708-0.659,80.474-1.098c27.752-0.455,55.528-1.038,83.266-0.365c26.888,0.653,53.869-2.516,80.129,0.887
	c3.699,0.48,6.516,11.484,7.097,14.341c1.067,5.257,0.734,10.239-0.419,15.455c-0.609,2.756-0.836,5.969,1.044,8.074
	c1.621,1.815,4.5,2.394,5.584,4.573c1.077,2.164-0.231,4.809-2.009,6.445c-1.78,1.636-4.031,2.737-5.631,4.549
	c-4.483,5.084-6.294,18.589-1.53,24.063c0.63,0.725,1.505,1.184,2.27,1.766c3.993,3.044,4.117,9.917,0.236,13.103
	c-1.165,0.957-2.598,1.608-3.557,2.772c-1.427,1.733-1.489,4.18-1.482,6.425c0,6.785-0.755,13.575-0.285,20.359
	c0.388,5.593-1.719,12.863,1.49,17.854c1.057,1.645,2.662,3.014,3.132,4.913c0.758,3.063-1.685,5.873-2.958,8.761
	c-1.429,3.241-1.399,6.912-1.344,10.454c0.104,6.712,0.207,13.425,0.31,20.136c0.044,2.818,0.238,5.982,2.338,7.86
	c1.45,1.297,3.488,1.658,5.417,1.91c6.416,0.84,13.247,1.337,19.701,0.617c5.284-0.59,9.561-2.094,15.08-2.08
	c14.233,0.035,28.467,0.034,42.697,0.339c20.427,0.437,23.848,4.331,22.647,24.019c-0.181,2.965-0.206,6.121-0.808,9.036
	c-0.536,2.599-1.825,4.761-2.736,7.289c-2.014,5.588-2.646,11.677-1.761,17.554c0.266,1.767,0.705,3.598,1.888,4.939
	c1.45,1.645,3.793,2.293,5.221,3.957c2.106,2.453,1.512,6.294-0.131,9.079c-1.642,2.785-4.135,4.978-5.89,7.694
	c-6.344,9.815-1.512,18.7-0.91,28.899c0.429,7.263,0.833,14.528,1.237,21.793c0.384,6.915-1.362,13.06-2.074,19.973
	c-0.133,1.297-0.223,2.683,0.399,3.829c0.825,1.52,2.7,2.184,4.429,2.197c1.729,0.013,3.419-0.485,5.138-0.684
	c3.997-0.464,8.165,0.777,11.26,3.35c6.186,5.146,7.657,13.402,6.367,20.852c-0.847,4.886-3.904,8.279-8.748,9.066
	c-5.145,0.835-10.428,1.054-15.655,1.112c-46.52,0.52-93.044,0.797-139.561,1.456c-27.002,0.383-54.004,2.12-80.993,1.877
	c-70.519-0.636-141.031-2.026-211.547-3.113c-12.002-0.185-24.029,0.068-35.998-0.659c-9.563-0.58-13.128-5.22-12.984-14.726
	c0.066-4.422,0.165-11.235,2.506-15.166c2.975-4.998,11.34-6.21,16.331-4.435c1.518,0.539,3.143,1.333,4.657,0.786
	c1.552-0.561,2.298-2.293,2.785-3.869c1.295-4.192,2.482-9.116,1.701-13.509c-0.699-3.933-1.53-6.912-1.368-11.056
	c0.279-7.145,0.559-14.29,0.742-21.44c0.16-6.257,1.109-13.556,0.26-19.711c-0.361-2.616-1.682-5.239-4-6.507
	c-1.044-0.571-2.239-0.844-3.242-1.484c-3.142-1.999-3.202-6.482-2.903-10.194c0.177-2.2,0.596-4.779,2.566-5.774
	c1.174-0.592,2.656-0.449,3.731-1.207c3.376-2.381,0.741-10.17,0.607-13.481c-0.153-3.776,0.42-7.367-0.173-11.145
	c-1.882-11.977-4.032-23.608,0.422-35.363c8.523-6.562,17.787-5.174,26.654-5.299c14.328-0.2,28.659-0.211,42.989-0.284
	c6.911-0.035,13.861-0.355,20.765-0.263c4,0.053,8.613,1.899,11.873-1.302c3.878-3.808,1.925-8.17,1.663-12.653
	c-0.245-4.183,0.054-8.417-0.32-12.589c-0.301-3.36,0.818-7.415-0.301-10.579c-0.804-2.274-2.751-3.972-3.719-6.18
	c-1.233-2.812-0.621-6.336,1.487-8.568c1.08-1.144,2.488-1.95,3.504-3.15c3.372-3.98,1.358-8.398,0.262-12.644
	c-1.289-4.996-1.04-10.03-1.26-15.126c-0.163-3.775,1.349-9.536-0.818-12.727c-1.636-2.408-4.99-3.33-6.32-5.919
	c-1.139-2.219-0.387-4.976,0.956-7.078c1.343-2.101,3.222-3.814,4.602-5.891c2.728-4.104,2.669-7.86,1.817-12.408
	c-0.72-3.841-0.042-10.749-5.662-11.139c-1.065-0.074-2.17,0.235-3.186-0.095c-0.817-0.266-1.461-0.921-1.889-1.666
	C120.865,112.884,120.681,111.569,120.802,110.249z"/>
<g>
	<path style="fill:#848972;" d="M149.523,61.205c-3.996-0.137-8.61,0.816-12.564,1.425c-2.483,0.382-4.713,1.275-6.454,3.155
		c-5.275,5.701-5.451,19.656-3.825,26.739c0.387,1.686,2.119,4.825,1.344,6.6c-0.643,1.476-3.492,1.93-4.643,2.8
		c-2.241,1.693-3.691,4.625-3.023,7.515c0.941,4.072,4.84,4.433,8.354,4.775c16.175,1.575,33.121,1.284,49.401,1.117
		c15.073-0.155,30.142-0.742,45.181-1.429c3.16-0.144,9.487,0.11,12.219-1.557c3.647-2.224,3.906-8.318,3.581-12.02
		c-0.451-5.137-1.099-10.916,0.716-15.872c2.665-7.277,9.196-5.542,15.658-5.791c3.676-0.141,9.338-1.263,12.848,0.001
		c5.276,1.901,4.509,11.284,4.339,15.754c-0.209,5.553-3.074,14.195,2.206,18.326c3.414,2.67,9.37,2.3,13.558,2.614
		c7.886,0.592,15.898,0.827,23.811,0.824c19.017-0.007,37.989-0.832,57.001-0.278c5.581,0.162,13.318,1.605,18.821,0.263
		c3.635-0.886,3.475-3.599,3.026-6.887c-0.245-1.793-0.757-4.168-1.844-5.704c-1.217-1.72-3.464-2.054-4.646-3.571
		c-2.081-2.669-0.594-7.069-0.529-10.168c0.093-4.458-0.583-8.926-0.848-13.36c-0.184-3.077,0.46-6.529-0.731-9.491
		c-1.575-3.915-5.563-4.974-9.506-5.616c-10.274-1.674-21.17-1.441-31.55-1.328c-14.298,0.155-28.601,0.585-42.902,0.588
		c-10.943,0.002-21.887-0.555-32.83-0.206c-9.685,0.308-19.184,1.496-28.839,1.653c-7.083,0.115-14.121-0.186-21.192-0.466
		c-6.985-0.277-13.943,0.39-20.932-0.115C180.574,60.475,165.825,59.445,149.523,61.205z"/>
	<path style="fill:#848972;" d="M138.069,139.667c-2.361-1.462-7.813-0.167-10.23,0.86c-3.186,1.354-4.8,5.626-4.673,9.095
		c0.325,8.866,21.441,6.06,27.046,6.078c10.645,0.034,21.444-0.27,32.075,0.035c14.496,0.417,29.079-0.91,43.601-1.004
		c14.87-0.096,29.74,0.113,44.611,0.113c22.738,0,45.509-0.769,68.237,0.064c13.727,0.503,28.424,1.734,42.06-0.272
		c4.189-0.616,6.917-4.059,5.628-8.318c-1.04-3.437-3.966-4.936-7.311-5.575c-7.111-1.36-15.077-1.012-22.328-1.298
		c-25.524-1.005-51.181-0.776-76.721-0.074c-15.455,0.424-31.018,1.305-46.477,0.726c-6.736-0.252-13.591,0.31-20.31-0.272
		c-13.61-1.18-27.139-1.181-40.814-0.229c-14.138,0.985-27.975,0.97-42.125,0.645"/>
</g>
<path style="fill:#686D55;" d="M138.069,147.888c-2.361-0.731-7.813-0.083-10.23,0.43c-3.186,0.678-4.8,2.813-4.673,4.548
	c0.325,4.433,21.441,3.029,27.046,3.038c10.645,0.017,21.444-0.135,32.075,0.018c14.496,0.208,29.079-0.455,43.601-0.502
	c14.87-0.048,29.74,0.056,44.611,0.056c22.738,0,45.509-0.385,68.237,0.032c13.727,0.251,28.424,0.867,42.06-0.136
	c4.189-0.308,6.917-2.03,5.628-4.158c-1.04-1.719-3.966-2.468-7.311-2.787c-7.111-0.68-15.077-0.505-22.328-0.648
	c-25.524-0.502-51.181-0.388-76.721-0.037c-15.455,0.212-31.018,0.652-46.477,0.364c-6.736-0.126-13.591,0.154-20.31-0.136
	c-13.61-0.59-27.139-0.59-40.814-0.115c-14.138,0.492-27.975,0.485-42.125,0.322"/>
<g>
	<path style="fill:#848972;" d="M229.129,202.664c3.175,2.374,2.605,12.929-1.628,13.823c-3.074,0.648-7.309,0.176-10.489,0.215
		c-5.83,0.072-11.619,0.385-17.447,0.574c-15.286,0.495-30.565,1.886-45.87,1.323c-6.856-0.252-13.772-1.024-20.552-1.733
		c-5.598-0.584-6.454-6.892-4.086-11.442c3.463-6.654,11.188-3.76,17.356-4.122c8.194-0.482,16.409-0.459,24.603-0.866
		c8.046-0.4,15.754,0.319,23.766,0.522c9.444,0.24,18.917-0.129,28.334,0.272C227.265,201.41,225.811,200.183,229.129,202.664z"/>
	<path style="fill:#848972;" d="M376.119,201.527c-13.548-1.317-27.203-1.411-40.791-1.638c-14.682-0.245-29.388-0.534-44.05,0.457
		c-4.38,0.296-9.318,1.113-11.235,5.598c-1.664,3.895-1.334,10.077,3.617,10.758c7.73,1.064,15.885-0.082,23.678,0.567
		c14.996,1.248,30.296,1.157,45.344,1.445c7.195,0.137,37.306,2.08,29.956-13.766C381.407,202.3,378.717,201.781,376.119,201.527z"
		/>
</g>
<g>
	<path style="fill:#686D55;" d="M229.129,208.944c3.175,1.454,2.605,7.916-1.628,8.463c-3.074,0.397-7.309,0.108-10.489,0.132
		c-5.83,0.044-11.619,0.236-17.447,0.351c-15.286,0.303-30.565,1.155-45.87,0.811c-6.856-0.154-13.772-0.627-20.552-1.06
		c-5.598-0.358-6.454-4.219-4.086-7.007c3.463-4.074,11.188-2.302,17.356-2.524c8.194-0.295,16.409-0.281,24.603-0.53
		c8.046-0.244,15.754,0.196,23.766,0.32c9.444,0.147,18.917-0.079,28.334,0.167C227.265,208.176,225.811,207.424,229.129,208.944z"
		/>
	<path style="fill:#686D55;" d="M376.119,208.247c-13.548-0.806-27.203-0.865-40.791-1.003c-14.682-0.15-29.388-0.326-44.05,0.28
		c-4.38,0.181-9.318,0.681-11.235,3.428c-1.664,2.384-1.334,6.169,3.617,6.587c7.73,0.651,15.885-0.051,23.678,0.348
		c14.996,0.764,30.296,0.709,45.344,0.885c7.195,0.084,37.306,1.273,29.956-8.428C381.407,208.72,378.717,208.402,376.119,208.247z"
		/>
</g>
<g>
	<path style="fill:#848972;" d="M58.461,256.786c-6.427-3.055-17.943-0.817-24.453,1.003c-7.214,2.017-6.743,9.336-7.273,15.892
		c-0.554,6.847-1.238,13.777-0.072,20.582c0.977,5.699,7.017,4.565,11.609,4.614c8.945,0.097,17.828,0.367,26.777,0.289
		c1.789-0.016,4.985,0.592,6.655-0.346c2.151-1.208,2.519-4.553,2.802-6.938c0.312-2.632-0.15-7.224,1.695-9.437
		c1.534-1.841,4.618-1.342,6.779-1.663c5.449-0.808,11.139-0.493,16.46-1.467c4.94-0.905,9.719-2.215,14.455,0.372
		c2.742,1.498,4.084,4.267,4.662,7.32c0.753,3.984-0.298,12.251,3.177,15.101c2.192,1.798,7.361,2.324,9.926,2.721
		c14.995,2.32,31.194-1.068,46.302-1.081c7.284-0.006,14.446,0.341,21.728,0.552c3.041,0.088,6.046,0.391,9.095,0.32
		c5.568-0.131,11.253-1.235,16.593-2.811c4.289-1.266,5.524-1.899,6.259-6.278c0.79-4.708,0.275-10.641,2.077-15.06
		c1.244-3.051,3.788-3.109,7.029-3.367c8.566-0.681,16.616-0.546,25.046-0.122c5.425,0.274,12.088-0.453,13.384,6.382
		c0.848,4.473,1.187,8.858,1.781,13.393c0.591,4.509,2.346,4.564,6.693,5.25c9.541,1.507,18.994,1.717,28.602,2.315
		c5.66,0.352,11.32,0.244,16.984,0.43c4.54,0.149,8.607,0.555,13.248,0.125c4.503-0.417,9.007-0.915,13.536-0.777
		c6.503,0.199,13.019-0.073,19.537-0.065c4.879,0.007,12.15,1.452,13.387-4.692c1.108-5.501-0.421-12.284,1.126-17.662
		c1.283-4.461,10.2-2.84,14.181-2.844c6.068-0.006,12.097,0.817,18.108,1.6c3.135,0.408,7.47-0.123,8.91,3.25
		c2.548,5.965-0.571,16.105,8.235,16.888c8.399,0.747,17.493,0.379,25.9,0.038c2.84-0.115,12.31,0.196,14.43-2.295
		c1.819-2.137,1.806-9.373,2.155-12.181c0.689-5.552,1.041-10.679,0.373-16.258c-0.332-2.773-0.66-8.325-2.07-10.634
		c-1.325-2.169-3.647-1.825-6.18-2.174c-14.756-2.03-29.637-1.513-44.489-0.883c-15.218,0.646-30.415-1.078-45.649-0.324
		c-14.24,0.705-28.905,2.347-43.157,1.416c-8.968-0.586-18.042-0.206-27.027-0.207c-23.664-0.003-47.288-1.148-70.878-1.146
		c-25.343,0.002-50.825-0.118-76.122-1.137c-6.809-0.275-13.446,0.027-20.25,0.25c-14.337,0.472-28.6,0.495-42.931,0.364
		c-6.84-0.063-13.724,0.547-20.577,0.244C77.288,255.217,68.087,254.184,58.461,256.786z"/>
	<path style="fill:#848972;" d="M45.862,317.493c-6.414,0.757-22.882-3.074-24.283,6.282c-0.394,2.63-0.779,10.608,1.644,12.265
		c1.398,0.957,4.986,0.645,6.639,0.653c5.117,0.026,10.296-0.523,15.434-0.58c19.381-0.213,38.719,0.85,58.111-0.03
		c22.175-1.008,44.626-0.856,66.87-0.039c18.503,0.679,36.652,0.865,55.176,0.042c18.695-0.831,37.404-1.89,56.126-1.436
		c13.692,0.331,27.531,1.536,41.212,0.823c6.476-0.338,13.112,0.303,19.687-0.064c7.461-0.417,14.928-0.96,22.407-0.745
		c8.387,0.241,16.771,0.901,25.164,0.874c15.247-0.047,30.481,0.859,45.739,0.859c8.833,0,17.493,1.381,26.346,1.43
		c6.482,0.036,13.151,0.051,19.629-0.274c3.098-0.155,4.942-0.151,6.375-2.707c1.763-3.145,2.624-11.902,0.125-14.916
		c-2.302-2.776-8.852-1.399-12.165-1.566c-20.921-1.049-42.446-2.925-63.401-1.296c-17.385,1.352-34.824,2.157-52.255,2.448
		c-9.42,0.158-18.761-0.57-28.177,0.055c-5.831,0.387-10.888-0.65-16.606-0.636c-6.608,0.016-13.217,0.044-19.826,0.087
		c-13.217,0.086-26.434,0.218-39.65,0.351c-11.14,0.111-22.28,0.224-33.42,0.307c-5.285,0.039-10.99,0.689-16.237,0.082
		c-3.833-0.444-7.227-1.135-11.198-1.12c-11.742,0.043-23.463-1.148-35.189-1.655c-14.613-0.632-29.38-0.23-43.893-0.341
		c-7.298-0.056-14.585,0.119-21.868-0.503C77.511,314.698,59.447,314.669,45.862,317.493z"/>
</g>
<path style="fill:#686D55;" d="M45.862,326.29c-6.414,0.429-22.882-1.745-24.283,3.565c-0.394,1.493-0.779,6.022,1.644,6.962
	c1.398,0.543,4.986,0.366,6.639,0.37c5.117,0.015,10.296-0.297,15.434-0.329c19.381-0.12,38.719,0.483,58.111-0.017
	c22.175-0.572,44.626-0.485,66.87-0.022c18.503,0.385,36.652,0.491,55.176,0.024c18.695-0.472,37.404-1.073,56.126-0.815
	c13.692,0.188,27.531,0.871,41.212,0.467c6.476-0.191,13.112,0.172,19.687-0.037c7.461-0.236,14.928-0.545,22.407-0.423
	c8.387,0.137,16.771,0.511,25.164,0.496c15.247-0.027,30.481,0.487,45.739,0.487c8.833,0,17.493,0.784,26.346,0.812
	c6.482,0.02,13.151,0.028,19.629-0.155c3.098-0.088,4.942-0.086,6.375-1.537c1.763-1.785,2.624-6.756,0.125-8.467
	c-2.302-1.575-8.852-0.795-12.165-0.889c-20.921-0.595-42.446-1.66-63.401-0.735c-17.385,0.768-34.824,1.225-52.255,1.39
	c-9.42,0.089-18.761-0.323-28.177,0.032c-5.831,0.22-10.888-0.369-16.606-0.361c-6.608,0.009-13.217,0.025-19.826,0.05
	c-13.217,0.048-26.434,0.124-39.65,0.199c-11.14,0.063-22.28,0.127-33.42,0.174c-5.285,0.023-10.99,0.392-16.237,0.047
	c-3.833-0.252-7.227-0.644-11.198-0.636c-11.742,0.025-23.463-0.652-35.189-0.939c-14.613-0.358-29.38-0.131-43.893-0.194
	c-7.298-0.032-14.585,0.068-21.868-0.286C77.511,324.705,59.447,324.688,45.862,326.29z"/>
<g>
	<path style="fill:#4C4C4C;" d="M74.212,378.772c0.356,8.503,1.37,17.117,1.725,25.652c0.07,1.682-1.218,6.105-0.091,7.363
		c1.157,1.293,4.818,0.287,6.196,0.198c8.781-0.562,17.998-1.467,26.763-0.353c3.462,0.439,7.782,2.021,11.181,0.879
		c0.373-9.138,0.674-18.365,1.126-27.522c0.256-5.182-0.27-10.364,0.119-15.518c0.233-3.079,1.409-7.522,0.815-10.572
		c-0.698-3.583-4.894-3.479-6.205-7.076c-1.721-4.721-0.442-9.427-0.731-14.235c-4.183-1.342-9.54-1.081-14.011-1.559
		c-5.799-0.62-11.954-0.922-17.752-0.054c-5.918,0.886-6.657,1.054-7.218,7.554c-0.578,6.682-0.454,13.409-1.058,20.088
		C74.474,370.215,75.231,377.164,74.212,378.772z"/>
	<path style="fill:#4C4C4C;" d="M162.388,338.187c-1.489,1.223-2.471,3.054-2.655,5.737c-0.263,3.837,1.192,5.622-2.192,8.219
		c-4.385,3.365-2.381,11.45-2.829,16.632c-0.997,11.556-1.782,23.161-2.64,34.73c-0.214,2.88-1.104,6.032,1.154,8.136
		c2.927,2.727,10.5,2.901,14.226,2.868c9.813-0.087,19.854,0.019,29.561-0.558c0.966-4.181,0.625-8.854,0.616-13.144
		c-0.015-7.159,0.924-14.147,0.86-21.304c-0.045-4.935-0.462-9.894-0.224-14.816c0.114-2.357,0.817-4.723-0.624-6.317
		c-0.671-0.742-2.328-0.722-3.176-1.704c-1.063-1.233-1.203-3.098-1.353-4.638c-0.331-3.395,1.53-8.983,0.226-11.933
		c-1.556-3.517-6.98-2.552-10.004-2.837C177.7,336.728,167.29,334.163,162.388,338.187z"/>
	<path style="fill:#4C4C4C;" d="M232.566,337.538c0.014,4.176,1.272,11.906-1.146,15.461c-1.062,1.561-3.136,1.483-4.294,2.859
		c-1.611,1.917-0.666,4.582-0.559,6.948c0.481,10.552,0.271,21.167,0.271,31.747c0,4.856,0.017,9.704,0.014,14.494
		c-0.002,3.063-0.796,4.491,2.544,5.248c5.062,1.147,11.214,0.578,16.533,1.051c6.201,0.552,12.438,0.339,18.645,0.653
		c4.721,0.239,17.852,2.515,20.975-1.756c1.103-1.51,1.009-5.792,1.129-7.575c0.224-3.32-0.063-6.148-0.297-9.397
		c-0.44-6.078,0.845-12.356,0.594-18.499c-0.206-5.035-0.973-9.994-1.425-15.002c-0.222-2.452,0.713-6.142-1.316-7.601
		c-1.7-1.223-2.646,0.113-3.925-2.298c-1.147-2.163-0.852-5.108-0.779-7.468c0.12-3.948,2.29-8.468-2.139-9.725
		c-3.591-1.02-8.663-0.225-12.372-0.294c-5.005-0.093-9.955-0.215-14.948-0.574C245.993,335.518,237.52,333.91,232.566,337.538z"/>
	<path style="fill:#4C4C4C;" d="M319.33,337.252c1.257,3.839,2.203,16.282-2.068,18.549c-2.079,1.103-3.251-0.501-4.232,1.638
		c-1.075,2.345,0.297,7.382,0.51,9.827c0.99,11.377,1.495,22.675,1.495,34.127c0,2.952-1.976,10.4,0.42,12.756
		c1.8,1.77,7.947,0.526,10.455,0.642c9.159,0.424,18.416,0.281,27.58,0.016c9.972-0.288,5.193-7.055,5.137-13.852
		c-0.083-9.993,0.633-20.225-0.359-30.149c-0.46-4.609,1.385-14.532-2.277-17.603c-1.138-0.955-2.009-0.519-2.803-2.121
		c-0.752-1.516-0.124-3.338-0.115-4.882c0.014-2.453,0.668-7.621-1.577-8.969c-3.217-1.931-11.069-0.939-14.744-1.139
		C330.704,335.763,324.682,337.194,319.33,337.252z"/>
	<path style="fill:#4C4C4C;" d="M396.932,337.252c1.116,2.188,0.964,10.521-0.787,12.899c-2.051,2.785-4.08,3.032-4.861,7.194
		c-1.156,6.153-0.878,12.289-0.636,18.505c0.349,8.95,0.192,18.024,0.271,26.962c0.059,6.582-0.195,10.234,7.221,11.414
		c9.544,1.517,19.366,0.78,28.961,0.328c5.069-0.239,8.439,1.171,9.286-4.691c1.166-8.068,0.546-16.553,0.915-24.711
		c0.432-9.578,0.134-19.491-0.272-29.109c-0.181-4.286-0.696-8.408-1.373-12.631c-0.42-2.614-0.015-5.348-0.974-7.833
		c-4.406,0.816-9.173,0.518-13.771,0.528C413.873,336.121,403.882,333.364,396.932,337.252z"/>
</g>
<path style="fill:#848972;" d="M26.676,412.563c-5.843-0.082-17.916,1.854-21.119,7.49c-2.576,4.533-2.19,10.82-1.536,15.717
	c0.421,3.15,0.203,7.803,3.282,9.803c2.12,1.377,5.3,0.848,7.676,1.133c3.975,0.477,7.679,1.037,11.72,1.081
	c6.159,0.069,12.411,1.489,18.557,1.048c3.909-0.28,7.533-1.879,11.449-2.166c6.619-0.485,13.368,0.011,20.02-0.326
	c6.854-0.348,13.706-0.844,20.572-0.852c7.786-0.009,15.56,0.521,23.306,1.263c6.987,0.67,14.558,2.548,21.573,1.898
	c4.544-0.421,8.594-2.513,13.229-2.602c7.513-0.144,15.068,1.087,22.591,1.192c11.14,0.154,22.308,0.402,33.432,1.01
	c10.564,0.578,21.148,0.899,31.729,0.726c9.197-0.151,18.613-0.449,27.837-0.289c11.924,0.207,23.671,0.561,35.61,0.069
	c22.957-0.946,45.942-1.404,68.918-1.005c10.746,0.187,22.122,1.78,32.755,0.668c9.993-1.045,20.22,2.284,30.061,1.022
	c9.017-1.157,18.269-2.148,27.448-2.24c6.142-0.062,12.285,0.055,18.427,0.02c4.333-0.025,8.731-0.333,13.046-0.747
	c2.367-0.227,6.491-0.035,8.725-1.119c4.331-2.101,3.259-10.259,3.471-14.317c0.283-5.433,1.227-12.686-4.433-15.763
	c-7.597-4.129-17.979-2.558-26.235-2.161c-7.689,0.369-15.469,0.751-23.167,0.897c-10.351,0.197-20.349-0.642-30.754-0.011
	c-13.502,0.818-27.188,0.573-40.717,0.871c-14.041,0.31-28.065,1.174-42.107,1.403c-7.545,0.123-14.997,1.351-22.522,1.69
	c-6.585,0.296-13.184,0.082-19.775,0.399c-4.775,0.23-9.613,0.326-14.282-0.93c-12.989-3.492-26.743-1.432-40.088-1.431
	c-13.316,0.001-26.609-0.289-39.927-0.286c-19.224,0.003-38.363,1.185-57.655,0.548c-4.376-0.144-8.746,0.324-13.122,0.194
	c-4.134-0.123-8.034-1.122-12.157-1.228c-9.367-0.242-18.73-0.499-28.097-0.052c-10.358,0.494-20.75-0.14-31.101,0.394
	c-6.363,0.328-11.301-1.525-17.311-2.479C39.713,412.091,33.022,412.528,26.676,412.563z"/>
<g>
	<path style="fill:#686D55;" d="M26.676,429.333c-5.843-0.045-17.916,1.018-21.119,4.11c-2.576,2.488-2.19,5.937-1.536,8.624
		c0.421,1.728,0.203,4.282,3.282,5.379c2.12,0.755,5.3,0.465,7.676,0.621c3.975,0.262,7.679,0.568,11.72,0.593
		c6.159,0.037,12.411,0.817,18.557,0.575c3.909-0.154,7.533-1.031,11.449-1.189c6.619-0.267,13.368,0.006,20.02-0.179
		c6.854-0.191,13.706-0.464,20.572-0.467c7.786-0.004,15.56,0.286,23.306,0.693c6.987,0.367,14.558,1.398,21.573,1.041
		c4.544-0.231,8.594-1.379,13.229-1.427c7.513-0.079,15.068,0.597,22.591,0.654c11.14,0.084,22.308,0.221,33.432,0.554
		c10.564,0.316,21.148,0.494,31.729,0.399c9.197-0.083,18.613-0.247,27.837-0.159c11.924,0.114,23.671,0.307,35.61,0.037
		c22.957-0.519,45.942-0.77,68.918-0.552c10.746,0.102,22.122,0.976,32.755,0.366c9.993-0.573,20.22,1.254,30.061,0.561
		c9.017-0.635,18.269-1.179,27.448-1.229c6.142-0.034,12.285,0.03,18.427,0.011c4.333-0.014,8.731-0.182,13.046-0.41
		c2.367-0.125,6.491-0.019,8.725-0.614c4.331-1.153,3.259-5.63,3.471-7.857c0.283-2.982,1.227-6.962-4.433-8.65
		c-7.597-2.266-17.979-1.404-26.235-1.187c-7.689,0.203-15.469,0.412-23.167,0.492c-10.351,0.108-20.349-0.352-30.754-0.006
		c-13.502,0.449-27.188,0.314-40.717,0.478c-14.041,0.17-28.065,0.644-42.107,0.77c-7.545,0.068-14.997,0.742-22.522,0.928
		c-6.585,0.162-13.184,0.045-19.775,0.218c-4.775,0.126-9.613,0.179-14.282-0.51c-12.989-1.916-26.743-0.786-40.088-0.786
		c-13.316,0.001-26.609-0.159-39.927-0.158c-19.224,0.002-38.363,0.651-57.655,0.301c-4.376-0.079-8.746,0.178-13.122,0.107
		c-4.134-0.068-8.034-0.616-12.157-0.674c-9.367-0.133-18.73-0.274-28.097-0.028c-10.358,0.271-20.75-0.077-31.101,0.216
		c-6.363,0.18-11.301-0.838-17.311-1.361C39.713,429.074,33.022,429.314,26.676,429.333z"/>
	<path style="fill:#686D55;" d="M127.296,76.814c-2.852-6.699,7.231-15.981,13.616-15.02c3.949,0.594,5.91,3.821,7.295,7.179
		c2.563,6.22,4.836,10.925,11.251,13.919c15.572,7.269,35.16,8.127,52.09,8.923c5.396,0.253,10.97-0.388,16.354-0.805
		c2.494-0.192,5.166-1.183,7.147-0.021c4.738,2.781,4.157,9.401,3.397,13.812c-0.305,1.769-0.06,4.458-1.235,5.626
		c-1.973,1.962-7.598,1.148-10.043,1.537c-8.135,1.295-16.559,1.317-24.8,1.499c-8.352,0.185-16.443,0.333-24.788,0.805
		c-13.524,0.766-26.74,2.387-40.344,1.608c-4.438-0.254-18.932,1.081-16.169-6.936c1.353-3.927,6.532-4.827,7.43-8.827
		c0.522-2.329-0.356-5.651-0.674-7.978C127.077,86.679,128.027,82.259,127.296,76.814z"/>
	<path style="fill:#686D55;" d="M272.059,104.584c-1.03-2.944-1.339-5.785-0.672-8.843c0.861-3.951,2.454-4.011,6.292-4.444
		c14.04-1.583,28.316-2.402,42.451-2.682c17.251-0.341,34.537-0.444,51.797-0.279c3.875,0.037,9.654-0.433,11.223,3.848
		c1.278,3.485-0.595,5.818,3.354,7.887c2.024,1.06,2.535,0.535,3.656,2.438c0.691,1.173,1.203,3.526,1.261,4.876
		c0.299,7.054-5.538,7.252-10.89,7.842c-16.096,1.774-32.945-0.304-49.087-0.966c-16.073-0.659-32.264,0.605-48.323-0.289
		c-2.335-0.131-5.785-0.368-7.458-2.282C273.514,109.233,274.508,105.573,272.059,104.584z"/>
	<path style="fill:#686D55;" d="M24.487,270.027c0.221-4.752,4.09-10.357,8.711-11.791c10.314-3.201,8.283,9.827,8.721,15.606
		c0.814,10.763,7.378,11.89,16.496,13.549c5.781,1.051,9.276-0.49,12.021-5.793c1.877-3.627,1.86-5.861,6.241-7.153
		c5.798-1.711,13.527-1.181,19.546-1.169c6.78,0.013,15.894-2.734,22.195,0.575c6.106,3.207,6.7,10.042,11.637,14.292
		c8.636,7.438,24.126,4.316,34.645,4.334c17.574,0.03,35.445-0.361,52.996-1.246c4.849-0.244,16.399-1.047,11.51,7.652
		c-2.712,4.824-10.967,3.629-15.52,3.87c-12.497,0.663-25.03,1.006-37.546,1.506c-12.059,0.481-24.091,0.868-36.14,0.621
		c-4.272-0.088-8.578,0.285-12.792-0.569c-1.603-0.324-5.163-0.575-6.505-1.47c-4.835-3.226-1.435-9.99-1.603-14.554
		c-0.29-7.921-9.398-8.596-15.719-8.815c-7.1-0.245-14.094,1.185-21.154,1.495c-1.998,0.088-4.062-0.435-5.595,1.108
		c-4.034,4.057,1.288,11.009-3.077,15.07c-2.21,2.057-8.753,1.534-11.444,1.537c-6.443,0.006-12.685,1.304-19.103,1.736
		c-5.249,0.353-12.542,0.886-15.416-3.95C22.637,288.133,25.688,275.766,24.487,270.027z"/>
	<path style="fill:#686D55;" d="M279.74,288.344c2.045-0.661,4.926,0.207,7.071,0.376c7.832,0.618,15.781,0.256,23.634,0.511
		c18.015,0.587,35.941,0.352,53.948,0.292c6.66-0.022,13.329-1.012,19.945-0.884c3.778,0.073,5.057,0.42,6.962,3.405
		c1.703,2.67,1.746,5.783-0.24,8.639c-2.743,3.946-12.057,2.992-16.261,3.399c-23.601,2.28-46.678,1.651-70.232,0.155
		c-5.499-0.349-13.744,0.251-18.857-2.003C281.029,300.174,280.715,294.983,279.74,288.344z"/>
	<path style="fill:#686D55;" d="M485.066,283.026c-7.03,0.018-13.993,0.698-21.004,1.126c-5.148,0.314-10.306,0.695-15.463,0.876
		c-2.891,0.101-6.893-0.74-9.638,0.297c-5.192,1.962-4.396,10.194,0.35,12.634c4.897,2.517,12.157,1.612,17.41,1.611
		c6.321-0.001,13.052,0.436,19.317-0.355c3.152-0.397,5.035-0.698,6.658-3.32C485.482,291.39,483.796,288.023,485.066,283.026z"/>
</g>
<g>
	<path style="fill:#BCBBAC;" d="M132.314,117.175c-1.352,4.265-0.702,10.444-0.328,14.931c0.319,3.817-0.893,5.669,2.728,6.897
		c2.399,0.814,5.843,0.259,8.364,0.424c5.401,0.356,10.767,0.324,16.177,0.597c10.316,0.519,20.376-0.01,30.679-0.502
		c24.754-1.181,49.956-3.096,74.774-1.212c23.857,1.81,47.915-0.492,71.871,0.651c7.943,0.378,15.887,0.331,23.828,0.736
		c5.137,0.262,11.153,1.651,16.246,1.074c3.229-0.367,4.817-2.539,3.41-5.787c-1.121-2.588-3.665-3.77-6.516-4.295
		c-5.708-1.05-12.217-0.001-18.067-0.001c-10.235,0-20.518,0.251-30.728-0.269c-20.266-1.032-40.765-0.272-61.082-0.415
		c-8.748-0.062-17.606-0.267-26.339-0.777c-5.735-0.335-12.441,1.041-17.861-1.272c-2.013-0.859-3.985-2.486-4.732-4.593
		c-0.296-0.838,0.262-7.583,1.045-7.139c-4.693-2.659-11.798-1.42-16.944-1.465c-8.803-0.077-17.584-0.701-26.417-0.701
		c-8.182,0-16.389,0.078-24.54,0.761C143.518,115.183,135.98,114.476,132.314,117.175z"/>
	<path style="fill:#BCBBAC;" d="M239.651,88.29c-0.781,2.497-1.077,5.157-0.964,7.479c0.118,2.429,1.066,5.016,0.632,7.442
		c-0.505,2.818-2.32,4.771-2.022,7.871c0.276,2.857,1.116,4.351,4.237,3.528c3.991-1.051,4.721-6.655,5.484-9.992
		c1.174-5.141-2.892-15.289,2.604-17.736c5.715-2.544,10.566,4.611,11.247,9.524c0.977,7.056-1.53,15.284,5.727,19.158
		c15.27,8.154,33.175,7.849,50.037,7.849c16.203,0,32.34,0.349,48.504,0.347c3.437-0.001,9.015,1.376,12.148-0.17
		c2.747-1.355,4.432-5.051,1.323-6.428c-1.758-0.779-5.357,0.498-7.288,0.386c-3.633-0.209-6.982-1.2-10.683-1.033
		c-8.603,0.386-17.089-0.321-25.7-0.386c-17.68-0.133-36.12-0.2-53.699-2.053c-9.435-0.994-9.307-7.613-8.622-15.219
		c0.429-4.766-0.648-9.326-1.453-13.977c-1.077-6.228-2.637-4.792-8.607-5.105c-5.424-0.284-13.172-2.173-17.989,1.185
		C242.168,82.63,240.572,85.346,239.651,88.29z"/>
	<path style="fill:#BCBBAC;" d="M133.007,157.714c0.011,3.466,0.436,6.646,0.787,10.077c0.482,4.715-0.625,9.403-0.786,14.149
		c-0.083,2.473-2.107,12.961-0.373,15.28c1.955,2.614,14.905,1.28,18.002,1.398c10.903,0.415,21.739,0.689,32.651,1.194
		c10.467,0.485,21.197,0.546,31.708,0.52c2.928-0.007,12.299,1.586,14.371-0.765c1.191-1.352,0.878-4.869,1.4-6.596
		c0.689-2.282,2.409-4.605,1.36-7.214c-0.782-1.946-2.795-1.612-5.091-1.717c-6.989-0.317-14.07-0.144-21.094-0.341
		c-13.443-0.376-33.807-0.289-43.758-11.206c-5.669-6.22,4.018-8.211,8.992-8.779c17.026-1.944,33.954-1.136,51.036-2.013
		c18.822-0.966,37.64,0.817,56.466,0.504c17.912-0.297,36.354,1.261,54.327,2.444c11.018,0.726,22.438,0.995,33.451,0.422
		c3.605-0.188,9.203,0.304,11.976-2.577c5.166-5.366-2.29-5.991-6.082-6.186c-9.335-0.478-18.746,0.305-28.072,0.366
		c-15.879,0.104-31.447-0.411-47.323-1.481c-19.096-1.287-38.272,0.758-57.37,0.064c-17.595-0.639-35.18,0.029-52.786,0.029
		c-9.984,0-19.938,0.156-29.9,0.52C148.837,156.102,140.982,156.219,133.007,157.714z"/>
	<path style="fill:#BCBBAC;" d="M278.879,185.434c26.009-0.086,52.282-0.151,78.321,0.706c5.56,0.182,11.962-1.031,17.388,0.304
		c3.373,0.831,3.757,2.203,3.394,5.919c-0.26,2.67-0.054,6.498-2.428,7.648c-1.21,0.587-6.213-0.374-7.633-0.373
		c-5.039,0.005-10.124-0.213-15.157-0.018c-19.654,0.759-39.305,1.057-58.995,1.057c-2.542,0-9.483,1.208-11.332-0.088
		C279.431,198.482,279.422,189.706,278.879,185.434z"/>
	<path style="fill:#BCBBAC;" d="M132.66,221.122c-0.617,7.007-7.727,27.853,0.194,31.83c5.593,2.809,15.467,1.261,21.512,1.445
		c13.007,0.397,26.051-0.687,39.08-0.371c9.174,0.222,18.485,1.497,27.671,1.069c5.082-0.236,10.69-1.109,8.686-8.204
		c-1.149-4.071-5.346-4.062-8.963-4.505c-8.871-1.089-17.753-1.281-26.667-1.59c-13.485-0.466-29.176,1.678-41.38-5.21
		c-3.77-2.128-9.349-7.164-3.996-10.341c3.536-2.097,9.303-1.904,13.247-2.102c8.898-0.446,17.769,0.081,26.659,0.385
		c9.112,0.311,18.154,1.498,27.242,2.02c3.732,0.214,9.135,0.963,11.659-2.554c1.763-2.456,1.539-4.546-1.053-5.7
		c-2.005-0.893-6.535,0.016-8.765,0.016c-4.879,0-9.756,0.084-14.627-0.173c-10.711-0.567-21.422-0.442-32.11-1.192
		c-4.54-0.319-9.12-0.356-13.674-0.365c-3.509-0.007-6.928,0.689-10.388,1.167c-3.486,0.482-5.896-0.406-9.268-0.451
		C133.285,216.236,132.748,219.34,132.66,221.122z"/>
	<path style="fill:#BCBBAC;" d="M291.352,216.964c24.715-0.412,49.447-0.406,74.154-1.065c3.051-0.081,14.125-0.675,14.569,2.428
		c0.645,4.5-5.523,6.523-8.763,6.615c-18.135,0.518-36.027-2.594-54.24-1.125c-6.521,0.526-38.47-3.136-27.262,12.558
		c7.515,10.523,18.928,8.772,30.627,8.664c6.014-0.055,60.016-4.842,59.066,4.502c-0.754,7.411-21.376,5.633-25.74,5.545
		c-10.72-0.216-21.417-0.833-32.146-0.43c-10.586,0.399-21.234,1.003-31.826,0.392c-5.571-0.321-7.794-1.703-7.796-7.062
		c-0.003-9.278,1.045-18.657,1.039-27.904C283.034,216.749,288.584,216.886,291.352,216.964z"/>
	<path style="fill:#BCBBAC;" d="M28.714,302.2c1.709,4.377-3.167,14.104,2.74,15.601c3.475,0.88,9.536-0.652,13.026-1.051
		c5.853-0.669,11.917-0.472,17.799-0.702c15.58-0.61,31.181-0.481,46.762-0.019c13.409,0.396,26.551,2.176,39.977,2.476
		c7.873,0.176,15.644,0.144,23.518-0.036c11.039-0.252,23.833,2.56,34.585-0.1c10.424-2.579,20.982-2.832,31.784-2.678
		c7.687,0.109,15.351,1.403,23.029,1.445c13.68,0.075,27.336,0.94,41.013,1.002c10.874,0.05,21.659-0.132,32.55-0.353
		c31.807-0.648,63.574-0.688,95.376-0.683c9.587,0.001,19.318,0.446,28.896,0.018c4.098-0.184,8.194-0.441,12.29-0.635
		c2.127-0.101,5.732,0.486,7.726-0.422c3.783-1.722,4.192-9.944,1.404-12.967c-1.543-1.673-4.198-1.52-6.223-1.585
		c-5.111-0.167-10.182-0.347-15.317-0.347c-11.475-0.001-22.67-0.323-34.139,0.887c-17.872,1.884-35.442,0.849-53.321,1.712
		c-14.476,0.699-28.95,1.293-43.455,1.211c-14.703-0.083-30.495-2.942-45.079-0.358c-12.331,2.185-23.329,1.514-35.64,0.455
		c-23.09-1.986-46.043-1.764-69.14-0.807c-16.815,0.697-33.617,1.561-50.384,0.378c-5.137-0.362-7.251,0.585-12.106,2.221
		c-5.668,1.91-14.972,2.552-19.577-2.087c-7.252-7.307-3.065-15.025,6.086-16.272c4.611-0.628,12.241,4.33,15.229-0.527
		c3.806-6.186-1.712-6.893-6.247-7.241c-3.493-0.268-6.991-0.722-10.462-1.038c-6-0.547-11.046,1.775-16.863,2.047
		c-6.282,0.293-6.687,4.098-8.006,9.292c-1.103,4.341-2.589,7.427-6.754,8.991c-5.907,2.218-12.853-0.078-19.012-0.2
		C44.363,299.698,33.722,297.238,28.714,302.2z"/>
	<path style="fill:#BCBBAC;" d="M232.103,286.609c12.16,0,24.012-1.128,36.147-0.329c3.74,0.247,12.191,1.187,10.963-5.046
		c-1.608-8.153-22.791-4.491-27.907-3.981C245.389,277.842,226.513,276.021,232.103,286.609z"/>
	<path style="fill:#BCBBAC;" d="M392.874,288.341c0.507,1.842,23.594,0.137,26.951,0.018c5.314-0.188,10.597,0.263,15.883-0.072
		c2.012-9.161-9.929-7.287-16.467-7.556c-6.661-0.275-14.023-1.645-20.628-0.502C393.725,281.074,393.631,285.338,392.874,288.341z"
		/>
	<path style="fill:#BCBBAC;" d="M32.525,338.582c0,13.943-1.241,27.808-1.387,41.737c-0.074,7.047-0.346,14.102-0.346,21.178
		c0,3.642-1.421,9.39,1.715,11.225c3.937,2.303,11.031-0.899,15.001-1.382c4.431-0.54,6.717,0.331,7.192-4.195
		c1.119-10.648-1.059-22.838-2.04-33.463c-0.89-9.649,0.305-19.28,0.307-28.938c0.001-4.118,0.422-5.477-3.323-6.501
		C43.99,336.691,37.272,337.137,32.525,338.582z"/>
	<path style="fill:#BCBBAC;" d="M137.858,336.85c-0.218,5.818,0.394,11.919,0.346,17.841c-0.064,7.933-0.969,15.79-1.039,23.777
		c-0.098,11.257-2.443,22.528-2.496,33.536c-3.925-1.148-9.326-0.894-13.735-1.05c0.755-11.308-0.825-22.696-0.409-34.089
		c0.215-5.884,2.89-16.874-0.153-21.697c-0.287-0.456-1.808-0.714-2.349-1.317c-0.614-0.684-1.25-2.609-1.559-3.546
		c-0.935-2.827-1.096-6.293-0.781-9.263c0.319-3.006,0.205-2.561,2.759-3.483C124.75,335.284,131.348,336.855,137.858,336.85z"/>
	<path style="fill:#BCBBAC;" d="M212.006,338.928c3.721,14.598,0.988,31.774-1.048,46.445c-1.049,7.563-1.335,15.229-1.809,22.836
		c-0.15,2.398,0.405,4.909,0.015,7.273c-3.464-1.995-7.053-1.537-10.955-1.774c-1.17-2.604-0.445-7.441-0.413-10.242
		c0.064-5.596-0.181-11.241,0.081-16.827c0.382-8.136,0.795-16.293,0.347-24.402c-0.162-2.935-0.197-3.688-2.148-5.656
		c-2.676-2.698-2.884-2.68-3.108-7.266c-0.136-2.79-1.323-6.861,0.052-9.52C195.352,335.28,203.489,336.511,212.006,338.928z"/>
	<path style="fill:#BCBBAC;" d="M300.708,339.275c-0.346,11.058-2.078,22.018-2.079,33.194c-0.001,10.206,0.043,20.365,1.021,30.509
		c0.232,2.399,2.792,9.764,0.204,11.165c-0.512,0.277-1.478-0.788-2.093-0.695c-1.483,0.226-2.859,0.588-4.33,0.856
		c-2.541,0.464-4.609,0.355-7.155,0.106c3.501-17.718-2.119-36.102-1.238-53.936c0.102-2.078,0.054-3.087-0.787-4.554
		c-1.335-2.331-3.18-2.978-3.665-6.09c-0.394-2.532-1.075-8.033,0.525-10.156C284.59,335.054,294.653,336.919,300.708,339.275z"/>
	<path style="fill:#BCBBAC;" d="M375.203,337.195c-0.317,6.749,0.956,13.587,0.711,20.389c-0.331,9.182-1.042,18.28-1.057,27.481
		c-0.011,6.851,0.347,13.661,0.347,20.525c0,2.963,0.547,6.7-0.262,9.452c-2.723-2.401-10.041-1.08-13.891-1.671
		c-1.279-16.715-0.366-33.991-2.823-50.715c-0.369-2.516-0.364-5.44-1.302-7.79c-0.935-2.343-2.567-3.699-3.703-6.064
		c-1.363-2.84-2.651-8.173,0.06-10.934c1.456-1.483,4.188-1.08,6.259-1.261C365.412,336.092,371.392,334.346,375.203,337.195z"/>
	<path style="fill:#BCBBAC;" d="M459.4,337.195c-1.244,1.773-0.642,9.327-0.77,12.441c-0.445,10.755-1.19,21.493-2,32.236
		c-0.541,7.174-0.943,14.614-0.279,21.769c0.323,3.474,1.135,6.879,0.294,10.355c-2.65-0.709-6.72-0.816-9.587-0.941
		c-2.637-0.115-6.806,1.693-9.159,0.397c-2.499-1.377-1.754-3.793-1.772-6.072c-0.038-4.733-0.164-9.134,0.483-13.885
		c1.113-8.171,1.702-16.03,0.7-24.237c-1.069-8.756-2.4-17.224-1.989-26.096c0.079-1.695-0.663-6.108,1.181-7.036
		c0.722-0.364,5.192,1.028,6.211,1.08C447.617,337.45,452.791,337.418,459.4,337.195z"/>
</g>
<path style="fill:#4C4C4C;" d="M250.467,175.732c-4.849,0.014-11.165,0.455-15.263,3.101c-4.844,3.13-3.614,12.476-3.456,17.454
	c0.589,18.641-0.46,37.851,2.086,56.296c0.496,3.595-0.257,1.991,2.23,2.817c4.541,1.506,9.646,0.459,14.319,0.701
	c5.699,0.294,11.367,0.466,17.076,0.701c2.803,0.116,9.368,1.364,11.882-0.33c3.859-2.6,0.477-17.303,0.221-21.559
	c-0.67-11.107,0.36-21.945,0.716-33.006c0.196-6.072,3.081-18.851-2.939-23.23c-2.668-1.94-7.769-1.919-11.015-2.469
	C259.073,174.981,252.222,176.054,250.467,175.732z"/>
<path d="M511.099,425.942c-0.615-7.054-3.044-12.526-10.018-15.328c-5.088-2.043-10.935-1.866-16.641-1.547
	c2.17-12.081,0.629-25.284,0.545-37.421c-0.044-6.389-0.902-12.622-1.509-18.962c-0.324-3.391,0.278-7.815-0.696-11.407
	c4.808-0.239,9.525-1.605,10.321-6.846c0.683-4.496,1.327-13.293-2.604-16.676c-1.269-1.091-2.929-1.546-4.659-1.767
	c0.569-2.28,0.523-5.249,0.421-7.257c-0.129-2.532-0.729-5.18-1.275-7.712c1.766-1.136,2.904-2.955,3.153-5.942
	c0.315-3.787,0.637-7.667,0.905-11.478c0.185-2.631,0.781-5.298,0.708-7.942c-0.101-3.608-0.065-7.666-0.501-11.228
	c-0.297-2.425-0.85-5.754-2.391-7.732c-1.87-2.399-4.505-2.623-7.308-3.076c-3.928-0.634-7.81-1.444-11.789-1.736
	c-8.643-0.635-17.434,0.459-26.105,0.279c-8.157-0.17-16.401-0.07-24.559-0.383c-9.106-0.35-18.166-0.328-27.285-0.243
	c-2.152,0.02-4.395-0.088-6.631-0.12c1.198-5.069-0.097-11.937-0.178-16.27c-0.101-5.437-0.023-11.311-1.389-16.681
	c5.679-2.007,5.919-8.541,4.381-13.663c-0.896-2.983-2.688-4.63-4.93-5.589c1.994-2.581,0.893-5.921,1.075-9.196
	c0.173-3.11,0.357-6.095,0.42-9.238c0.137-6.859,1.504-15.294-0.242-22.206c1.655-0.14,3.239-0.489,4.541-1.308
	c4.602-2.895,3.736-11.47,1.77-15.67c-1.169-2.494-3.323-3.57-5.814-3.951c0.835-2.993,0.322-5.909,0.342-8.985
	c0.021-3.265,0.174-6.421,0.057-9.706c-0.003-0.086-0.019-0.16-0.028-0.241c0.441-0.055,0.876-0.108,1.292-0.146
	c0.799-0.074,1.708-0.198,2.613-0.409c5.029-0.044,8.398-2.227,7.501-8.359c-0.371-2.535-0.762-5.728-2.384-7.804
	c-2.419-3.095-4.429-2.727-4.292-7.282c0.258-8.567,0.221-16.189-2.329-24.417c-2.13-6.872-3.145-12.107-11.39-12.168
	c-9.477-0.07-18.872-0.885-28.342-0.293c-9.765,0.611-19.549,0.601-29.34,0.659c-3.14,0.018-6.269,0.126-9.395,0.263
	c-6.263-1.02-12.639-0.605-19.117-0.677c-10.209-0.114-20.328,1.057-30.526,0.899c-4.468-0.069-9.043-0.705-13.497-1.103
	c-5.077-0.454-10.052,0.39-15.111,0.574c-4.89,0.179-9.918-0.382-14.738,0.505c-0.4,0.073-0.805,0.132-1.21,0.188
	c-5.802-0.288-11.605-0.618-17.438-0.652c-9.792-0.057-19.576-0.047-29.34-0.659c-9.469-0.593-18.865,0.223-28.342,0.293
	c-8.245,0.061-9.26,5.297-11.39,12.168c-2.551,8.228-2.588,15.85-2.329,24.417c0.136,4.556-1.873,4.188-4.292,7.282
	c-1.622,2.076-2.014,5.268-2.384,7.804c-0.897,6.132,2.472,8.315,7.501,8.359c0.905,0.211,1.814,0.334,2.613,0.409
	c0.417,0.038,0.851,0.091,1.292,0.146c-0.009,0.08-0.026,0.155-0.028,0.241c-0.118,3.285,0.036,6.442,0.057,9.706
	c0.02,3.076-0.493,5.991,0.342,8.985c-2.492,0.383-4.647,1.459-5.816,3.951c-1.967,4.2-2.832,12.775,1.77,15.67
	c1.302,0.82,2.888,1.169,4.541,1.308c-1.746,6.912-0.379,15.346-0.242,22.206c0.063,3.143,0.248,6.127,0.42,9.238
	c0.182,3.275-0.919,6.615,1.075,9.196c-2.241,0.959-4.034,2.605-4.93,5.589c-1.539,5.123-1.299,11.657,4.381,13.663
	c-1.367,5.37-1.288,11.244-1.389,16.681c-0.081,4.333-1.376,11.201-0.178,16.27c-2.236,0.032-4.479,0.14-6.631,0.12
	c-9.119-0.084-18.179-0.106-27.285,0.243c-8.158,0.313-16.402,0.213-24.559,0.383c-8.67,0.18-17.46-0.915-26.104-0.279
	c-3.978,0.293-7.861,1.103-11.789,1.736c-2.803,0.451-5.438,0.677-7.308,3.076c-1.541,1.978-2.094,5.307-2.391,7.732
	c-0.436,3.562-0.4,7.62-0.501,11.228c-0.074,2.644,0.523,5.311,0.708,7.942c0.268,3.811,0.59,7.691,0.905,11.478
	c0.249,2.986,1.387,4.806,3.153,5.942c-0.546,2.533-1.146,5.181-1.275,7.712c-0.102,2.007-0.146,4.977,0.422,7.257
	c-1.73,0.223-3.391,0.677-4.659,1.767c-3.93,3.382-3.286,12.179-2.604,16.676c0.796,5.24,5.513,6.606,10.321,6.846
	c-0.974,3.592-0.371,8.018-0.696,11.407c-0.607,6.34-1.463,12.575-1.508,18.962c-0.084,12.137-1.626,25.338,0.545,37.421
	c-5.705-0.32-11.552-0.498-16.641,1.547c-6.974,2.801-9.404,8.274-10.018,15.328c-0.538,6.184-2.696,16.196,2.522,21.001
	c5.148,4.741,15.062,4.381,21.594,4.271c18.247-0.308,36.461,0.809,54.722,0.946c19.064,0.143,38.069,0.195,57.076,0.448
	c22.29,0.297,44.639-0.334,66.896,0.718c10.923,0.517,21.925,0.884,32.859,1.032c4.906,0.066,9.84-0.028,14.745-0.124
	c1.637-0.032,3.212-0.178,4.684-0.592c1.472,0.414,3.047,0.561,4.684,0.592c4.905,0.096,9.839,0.19,14.745,0.124
	c10.934-0.149,21.937-0.516,32.859-1.032c22.258-1.053,44.607-0.421,66.896-0.718c19.007-0.253,38.012-0.306,57.076-0.448
	c18.262-0.136,36.475-1.254,54.722-0.946c6.533,0.11,16.446,0.469,21.594-4.271C513.795,442.138,511.637,432.125,511.099,425.942z
	 M379.21,211.899c-1.451,0.793-4.3,0.06-5.924,0.147c-3.652,0.198-7.141,0.724-10.826,0.8c-9.652,0.202-19.317,0.963-29.009,0.83
	c-9.183-0.125-18.367,0.356-27.567,0.38c-4.798,0.014-9.596,0.009-14.393,0.039c-2.414,0.016-5.052,0.505-7.493,0.563
	c-0.006-3.775-0.033-7.551-0.092-11.337c0.835,0.234,1.91,0.684,2.416,0.736c1.663,0.171,3.548-0.001,5.232-0.09
	c4.155-0.222,8.314-0.213,12.462-0.475c9.408-0.596,18.867-0.958,28.278-0.6c7.842,0.298,15.669-0.476,23.49-0.378
	c4.04,0.051,8.054-0.241,12.089-0.321c3.009-0.06,9.134-0.268,11.578,1.569C381.845,205.563,382.541,210.081,379.21,211.899z
	 M376.32,248.574c-2.398,5.173-12.295,4.052-17.091,4.029c-5.261-0.024-10.734,0.679-15.945,0.254
	c-11.778-0.96-23.529-0.064-35.325-0.082c-5.673-0.009-11.345-0.018-17.018-0.029c-2.561-0.005-5.465,0.25-7.232-1.684
	c0.215-0.687,0.229-1.425-0.037-2.096c0.06-0.075,0.02-0.399-0.129-1.005c-0.053-0.912-0.075-1.825-0.068-2.738
	c-0.051-2.185-0.115-4.357,0.016-6.538c0.252-4.227,0.523-8.507,0.516-12.748c-0.003-1.898-0.003-3.79-0.003-5.682
	c0.831,0.176,1.757,0.198,2.862,0.177c4.96-0.098,9.941,0.059,14.904,0.072c9.833,0.026,19.77-0.566,29.569-0.27
	c9.403,0.284,19.021,0.555,28.394-0.14c3.806-0.283,7.531,0.196,11.316-0.389c2.154-0.333,4.443-0.29,6.672-0.481
	c-0.747,3.497-1.065,6.809-1.203,10.695c-0.111,3.13-0.135,6.272-0.172,9.402C376.313,241.756,377.337,246.379,376.32,248.574z
	 M275.71,247.577c-0.339,1.282-0.427,2.626-0.279,3.937c-2.939-0.044-5.88,0.2-8.672,0.744c-4.792-0.589-9.935-0.289-14.326-0.111
	c-1.678,0.068-3.358,0.313-5.033,0.608c-3.411-0.893-7.125-1.296-10.836-1.241c0.147-1.31,0.061-2.655-0.279-3.937
	c0.606-4.372-0.46-9.372-0.652-13.45c-0.334-7.092-0.659-14.271-1.286-21.35c-0.744-8.389-0.464-17.067,0.106-25.442
	c0.206-3.035,0.171-5.867,2.591-7.625c4.37,1.022,9.692,0.34,13.649-0.163c5.692-0.725,14.03,1.456,19.353-1.167
	c0.977-0.007,1.954,0.024,2.725,0.27c4.635,1.479,4.515,4.929,4.771,8.685c0.57,8.374,0.85,17.053,0.106,25.442
	c-0.627,7.079-0.952,14.258-1.286,21.35C276.17,238.204,275.104,243.205,275.71,247.577z M269.342,173.293
	c-0.431,0.024-0.861,0.047-1.29,0.072c-4.975-2.006-11.904-1.256-16.625-0.695c-2.327,0.277-5.135,0.366-7.926,0.67
	c-0.281-0.016-0.562-0.032-0.844-0.047c-3.253-0.181-7.114-0.495-9.747,1.823c-5.539,4.876-4.719,16.299-4.743,23.361
	c-1.078,0-2.19,0.147-3.366,0.134c-4.098-0.05-8.145-0.803-12.237-0.7c-9.175,0.23-18.418,0.066-27.624,0.234
	c-7.993,0.146-15.721,0.325-23.727,0.057c-7.173-0.24-14.885-0.983-22.029-0.462c-0.929,0.068-1.856,0.14-2.77,0.236
	c1.591-5.089-0.248-13.096-0.45-18.028c-0.152-3.698-0.518-7.334-0.578-11.053c-0.055-3.388,0.155-6.974-0.556-10.317
	c0.626-0.025,1.237-0.046,1.806-0.047c5.772-0.019,11.546,0.043,17.317,0.064c10.894,0.041,21.807-0.17,32.698,0.048
	c10.903,0.217,21.749,0.832,32.693,0.832c6.384,0,12.775,0.086,19.158-0.001c5.751-0.079,11.343-1.191,17.072-1.569
	c0.152-0.01,0.288-0.039,0.426-0.066c0.138,0.027,0.275,0.056,0.426,0.066c5.729,0.378,11.32,1.49,17.072,1.569
	c6.383,0.087,12.774,0.001,19.157,0.001c10.943,0,21.789-0.615,32.693-0.832c10.892-0.217,21.805-0.008,32.698-0.048
	c5.772-0.021,11.546-0.082,17.317-0.064c0.57,0.002,1.181,0.024,1.806,0.047c-0.711,3.343-0.501,6.929-0.556,10.317
	c-0.061,3.718-0.427,7.355-0.577,11.053c-0.203,4.931-2.04,12.937-0.45,18.028c-0.914-0.096-1.843-0.168-2.77-0.236
	c-7.144-0.521-14.856,0.223-22.029,0.462c-8.006,0.267-15.735,0.088-23.727-0.057c-9.205-0.168-18.449-0.005-27.624-0.234
	c-4.092-0.102-8.139,0.652-12.237,0.7c-1.176,0.014-2.289-0.134-3.366-0.134c-0.024-7.063,0.796-18.486-4.743-23.361
	C276.454,172.797,272.594,173.11,269.342,173.293z M228.324,248.965c-0.266,0.672-0.252,1.409-0.037,2.096
	c-1.766,1.934-4.67,1.68-7.232,1.684c-5.673,0.011-11.345,0.02-17.018,0.029c-11.796,0.019-23.546-0.878-35.324,0.082
	c-5.211,0.424-10.684-0.278-15.945-0.254c-4.797,0.023-14.693,1.144-17.091-4.029c-1.018-2.195,0.007-6.818-0.023-9.255
	c-0.037-3.131-0.06-6.273-0.172-9.402c-0.138-3.886-0.456-7.198-1.203-10.695c2.229,0.191,4.52,0.149,6.672,0.481
	c3.785,0.585,7.51,0.107,11.316,0.389c9.373,0.695,18.99,0.423,28.394,0.14c9.798-0.296,19.735,0.296,29.569,0.27
	c4.961-0.014,9.944-0.17,14.904-0.072c1.103,0.021,2.03-0.001,2.861-0.177c0,1.891,0.001,3.785-0.003,5.682
	c-0.009,4.241,0.262,8.521,0.516,12.748c0.131,2.182,0.065,4.353,0.016,6.538c0.008,0.913-0.015,1.826-0.068,2.738
	C228.304,248.567,228.264,248.891,228.324,248.965z M388.241,106.629c2.087,3.992-1.678,5.478-5.315,6.005
	c-1.534,0.223-3.046,0.274-4.085,0.271c-7.917-0.024-15.767-0.258-23.787-0.52c-14.918-0.487-29.794-1.453-44.77-1.474
	c-8.628-0.012-17.255,0.009-25.882,0.009c-4.516,0-8.037-0.541-8.619-5.687c-0.091-0.802-0.129-1.595-0.142-2.385
	c8.419,1.943,17.589,0.187,26.151,0.147c8.765-0.041,17.406,0.917,26.151,0.981c10.099,0.072,20.107-0.251,30.201,0.108
	c6.248,0.223,12.501,0.569,18.755,0.383C380.244,104.365,386.286,102.893,388.241,106.629z M376.475,137.699
	c-1.233,0.126-2.427,0.276-3.508,0.377c-4.913,0.457-10.206-0.313-15.183-0.314c-4.841-0.001-9.724,0.215-14.557-0.083
	c-8.997-0.555-18.041-1.375-27.066-1.468c-0.969-0.01-1.942,0.016-2.913,0.02c-0.002-0.001-0.004-0.003-0.008-0.003
	c-8.248-2.251-17.433-0.812-25.881-0.896c-3.929-0.039-7.742,0.61-11.671,0.563c-4.833-0.057-9.705-0.236-14.538-0.123
	c-4.367,0.104-8.643,0.952-13.018,0.921c-4.231-0.03-8.45-0.102-12.682-0.051c-5.855,0.071-11.864-0.054-17.781,0.392
	c-7.26-0.556-14.572-0.899-21.833-0.824c-9.025,0.093-18.069,0.913-27.066,1.468c-4.832,0.298-9.716,0.081-14.557,0.083
	c-4.978,0.001-10.27,0.771-15.183,0.314c-1.082-0.101-2.275-0.251-3.509-0.377c0.084-0.505,0.035-1.019-0.015-1.581
	c-0.181-2.063-0.468-4.031-0.517-6.132c-0.079-3.376-0.252-7.294-1.244-10.614c2.301,0.259,4.639,0.369,6.733-0.075
	c6.263-0.056,12.595-0.652,18.533-0.61c6.873,0.048,13.761-0.679,20.653-0.825c8.415-0.179,16.81-0.25,25.23-0.239
	c8.162,0.011,16.347,0.227,24.506,0.086c4.861-0.084,10.652-1.185,12.657-6.281c2.437-6.196,0.498-12.808,0.906-19.18
	c0.134-2.093,0.037-8.454,1.494-10.196c2.827,0.294,5.993,0.045,8.289,0.074c3.565,0.045,7.711,0.332,11.048-1.16
	c1.375,0.131,2.674,0.325,3.414,0.786c1.803,1.119,1.681,8.255,1.825,10.495c0.409,6.373-1.532,12.984,0.906,19.18
	c2.005,5.095,7.796,6.196,12.656,6.281c8.158,0.142,16.345-0.075,24.506-0.086c8.421-0.011,16.815,0.059,25.23,0.239
	c6.892,0.146,13.781,0.874,20.653,0.825c5.938-0.042,12.271,0.554,18.533,0.61c2.094,0.444,4.432,0.334,6.732,0.075
	c-0.992,3.32-1.165,7.237-1.244,10.614c-0.048,2.101-0.335,4.068-0.517,6.132C376.441,136.68,376.391,137.193,376.475,137.699z
	 M132.349,67.453c1.712-3.68,5.814-2.408,9.238-2.674c4.461-0.344,8.913,0.138,13.356-0.227c7.344-0.606,14.607-0.281,21.982,0.018
	c8.981,0.365,18.066-0.131,27.053-0.195c0.738-0.006,1.477,0.006,2.214,0.016c2.401,0.581,4.986,0.621,7.413,0.508
	c1.04-0.048,2.08-0.07,3.119-0.088c3.81,0.196,7.621,0.37,11.456,0.296c5.825-0.113,11.567-0.078,17.348-0.304
	c3.638,0.392,7.351,0.876,11.004,0.967c9.855,0.244,19.684-0.439,29.533-0.522c1.657-0.015,3.304-0.114,4.947-0.243
	c5.67-0.22,11.319-0.67,17.005-0.629c8.987,0.064,18.072,0.558,27.053,0.195c7.377-0.299,14.639-0.624,21.982-0.018
	c4.443,0.366,8.896-0.117,13.356,0.227c3.423,0.265,7.526-1.006,9.238,2.674c2.994,6.434,2.177,15.662,1.638,22.534
	c-0.247,3.144-0.865,6.263-0.406,8.92c-7.541-0.58-15.244-0.316-22.734-0.573c-9.794-0.337-19.484-0.061-29.281,0.036
	c-8.401,0.083-16.745-0.645-25.164-0.68c-9.113-0.038-18.346-0.083-27.433,0.047c-0.152,0.002-0.294,0.023-0.432,0.047
	c0.074-1.128,0.147-2.264,0.176-3.421c0.083-3.493-0.09-7.1-0.297-10.582c-0.127-2.133-0.5-4.571-2.057-6.183
	c-3.009-3.115-8.138-2.218-12.197-2.242c-3.076-0.682-6.524-0.42-9.502-0.383c-2.312,0.029-5.186-0.158-7.741,0.34
	c-2.229,0.152-4.333,0.688-5.876,2.285c-1.558,1.612-1.931,4.049-2.057,6.183c-0.207,3.482-0.381,7.09-0.297,10.582
	c0.027,1.157,0.1,2.293,0.176,3.421c-0.14-0.025-0.281-0.045-0.432-0.047c-9.087-0.131-18.32-0.086-27.433-0.047
	c-8.418,0.036-16.762,0.763-25.164,0.68c-9.795-0.097-19.487-0.373-29.281-0.036c-7.491,0.258-15.193-0.007-22.734,0.573
	c0.459-2.658-0.16-5.776-0.406-8.92C130.17,83.116,129.354,73.887,132.349,67.453z M129.072,112.633
	c-3.636-0.527-7.403-2.013-5.316-6.005c1.954-3.736,7.996-2.264,11.34-2.164c6.255,0.186,12.507-0.16,18.755-0.383
	c10.096-0.359,20.104-0.036,30.201-0.108c8.745-0.062,17.386-1.021,26.151-0.981c8.562,0.039,17.733,1.797,26.151-0.147
	c-0.013,0.79-0.051,1.584-0.142,2.385c-0.582,5.146-4.102,5.687-8.619,5.687c-8.627,0-17.254-0.02-25.883-0.009
	c-14.975,0.02-29.851,0.986-44.77,1.474c-8.02,0.262-15.87,0.496-23.787,0.52C132.118,112.906,130.606,112.856,129.072,112.633z
	 M127.321,151.052c-0.505-0.915-0.002-3.757,0.149-4.724c0.426-2.741,0.465-3.175,3.043-3.354c1.604-0.111,3.381,0.02,4.992,0.096
	c3.707,0.171,7.018,0.19,10.738,0.032c8.69-0.371,17.439-0.126,26.133-0.428c7.822-0.272,15.616-1.259,23.462-1.382
	c7.192-0.114,14.362,0.088,21.528,0.317c4.451,0.351,8.953,0.376,13.408,0.391c2.533,0.054,5.067,0.089,7.602,0.093
	c2.92,0.065,5.837,0.155,8.757,0.26c4.186,0.15,8.23-0.427,12.367-0.647c18.945,1.164,37.726-0.715,56.662-0.415
	c7.845,0.124,15.64,1.11,23.462,1.382c8.694,0.302,17.443,0.056,26.133,0.428c3.721,0.159,7.031,0.14,10.738-0.032
	c1.611-0.074,3.387-0.206,4.992-0.096c2.578,0.179,2.617,0.612,3.043,3.354c0.15,0.967,0.653,3.808,0.149,4.724
	c-1.011,1.83-3.777,1.04-5.521,0.967c-4.518-0.19-9.048-0.127-13.569-0.144c-9.618-0.036-19.237-0.063-28.856-0.063
	c-8.674,0-17.293,0.86-25.932,0.856c-9.223-0.006-18.446-0.009-27.67-0.014c-8.851-0.003-17.895-0.749-26.704-0.116
	c-0.152,0.01-0.288,0.042-0.426,0.069c-0.138-0.028-0.275-0.059-0.426-0.069c-8.81-0.633-17.853,0.113-26.704,0.116
	c-9.223,0.005-18.446,0.008-27.67,0.014c-8.639,0.006-17.258-0.856-25.932-0.856c-9.618,0-19.237,0.027-28.856,0.063
	c-4.522,0.017-9.051-0.046-13.569,0.144C131.098,152.092,128.332,152.883,127.321,151.052z M132.547,203.762
	c2.443-1.838,8.568-1.63,11.578-1.569c4.036,0.081,8.049,0.371,12.089,0.321c7.821-0.098,15.648,0.678,23.49,0.378
	c9.409-0.358,18.87,0.005,28.278,0.6c4.148,0.262,8.306,0.254,12.462,0.475c1.683,0.09,3.569,0.261,5.232,0.09
	c0.507-0.052,1.581-0.502,2.416-0.736c-0.06,3.786-0.087,7.563-0.092,11.337c-2.441-0.057-5.079-0.547-7.493-0.563
	c-4.798-0.03-9.596-0.026-14.393-0.039c-9.201-0.025-18.385-0.507-27.567-0.381c-9.693,0.132-19.357-0.628-29.009-0.83
	c-3.686-0.077-7.174-0.602-10.826-0.8c-1.623-0.088-4.471,0.645-5.923-0.147C129.455,210.081,130.151,205.563,132.547,203.762z
	 M29.382,272.716c0.335-2.713-0.052-7.448,1.743-9.633c1.546-1.881-0.251-0.432,2.327-1.424c2.246-0.863,5.163-1.111,7.539-1.479
	c8.902-1.378,18.218-0.463,27.199-0.636c8.208-0.159,16.493-0.507,24.715-0.794c9.072-0.316,18.102-0.74,27.193-0.823
	c4.746-0.044,9.439,0.098,14.118-0.026c3.887,1.65,9.015,1.532,12.796,1.735c6.734,0.361,13.972,0.729,20.686,0.477
	c15.263-0.574,30.459,0.204,45.756,0.229c4.733,0.008,10.663,0.736,15.536-0.518c2.258,0.01,4.524-0.147,6.543-0.126
	c0.572,0.006,1.147,0.007,1.724,0.007c4.957,0.884,10.48,0.059,15.177-0.108c4.151-0.147,7.863,0.648,11.953-0.513
	c0.213-0.061,0.43-0.114,0.645-0.17c3.735,0.763,7.636,0.825,11.431,0.786c2.017-0.021,4.283,0.136,6.542,0.126
	c4.873,1.254,10.804,0.525,15.536,0.518c15.298-0.024,30.493-0.803,45.757-0.229c6.714,0.252,13.951-0.116,20.686-0.477
	c3.781-0.203,8.908-0.086,12.795-1.735c4.679,0.124,9.371-0.017,14.118,0.026c9.092,0.083,18.121,0.507,27.194,0.823
	c8.221,0.287,16.507,0.635,24.715,0.794c8.981,0.173,18.297-0.742,27.199,0.636c2.376,0.368,5.293,0.615,7.539,1.479
	c2.578,0.992,0.781-0.457,2.327,1.424c1.794,2.185,1.407,6.92,1.743,9.633c0.716,5.783-0.833,11.622-1.461,17.385
	c-0.181,1.041-0.23,2.091-0.147,3.148c0.678,1.331,0.384,1.917-0.88,1.757c-0.624,0.439-2.925,0.469-3.355,0.496
	c-3.463,0.22-6.856,0.34-10.325,0.671c-3.792,0.362-7.511,0.653-11.325,0.705c-3.09,0.043-7.425,0.709-10.432-0.104
	c-5.389-1.458-3.483-7.504-5.107-11.78c-0.661-1.74-1.49-4.169-2.845-5.517c-0.993-0.988-2.593-1.637-3.955-1.802
	c-3.088-0.374-6.744,0.143-9.939-0.056c-8.032-0.5-30.316-6.406-32.935,5.455c-0.645,2.921-0.115,6.472-0.234,9.459
	c-0.051,1.279,0.341,4.768-0.313,5.829c-1.112,1.806,0.34,0.501-2.302,1.129c-7.827,1.86-15.808,1.68-23.785,1.618
	c-16.32-0.129-32.657-0.925-48.965-0.959c-7.412-0.016-14.772-0.263-22.173-0.689c-1.489-0.086-6.95,0.511-8.11-0.838
	c-0.439-0.511-0.193-2.947-0.286-3.731c-0.243-2.049-0.799-4.079-0.942-6.151c-0.28-4.052,1.242-9.624-1.913-12.944
	c-0.988-1.04-2.264-1.647-3.682-1.979c-5.217-3.997-18.428-1.558-23.107-1.335c-4.734,0.225-9.447,0.408-14.197,0.603
	c-1.065,0.044-2.276,0.178-3.448,0.467c-2.078,0.188-3.975,0.813-5.335,2.245c-3.153,3.32-1.631,8.891-1.912,12.944
	c-0.144,2.073-0.7,4.102-0.942,6.151c-0.092,0.784,0.154,3.22-0.286,3.731c-1.158,1.349-6.621,0.752-8.11,0.838
	c-7.401,0.426-14.761,0.673-22.173,0.689c-16.31,0.034-32.645,0.831-48.965,0.959c-7.977,0.063-15.957,0.243-23.785-1.618
	c-2.642-0.628-1.19,0.677-2.302-1.129c-0.654-1.062-0.261-4.55-0.313-5.829c-0.119-2.987,0.411-6.537-0.234-9.459
	c-2.618-11.862-24.903-5.955-32.935-5.455c-3.196,0.199-6.852-0.317-9.94,0.056c-1.362,0.165-2.962,0.814-3.955,1.802
	c-1.354,1.348-2.184,3.777-2.845,5.517c-1.624,4.276,0.283,10.322-5.108,11.78c-3.007,0.813-7.342,0.146-10.432,0.104
	c-3.814-0.053-7.533-0.343-11.325-0.705c-3.468-0.331-6.863-0.451-10.325-0.671c-0.431-0.027-2.732-0.057-3.355-0.496
	c-1.265,0.159-1.558-0.427-0.88-1.757c0.082-1.057,0.034-2.106-0.147-3.148C30.217,284.338,28.668,278.5,29.382,272.716z
	 M80.558,283.008c1.609-2.205,7.785-0.514,10.392-0.432c4.169,0.133,8.272-0.352,12.424-0.592
	c3.357-0.194,11.698-0.968,13.116,3.118c0.893,2.572-0.459,7.496-0.575,10.195c-0.243,5.643,0.538,9.311,6.389,10.768
	c16.953,4.222,35.537,2.585,52.886,2.907c9.441,0.176,19.018,0.096,28.43-0.7c8.095-0.686,16.901-0.96,24.787-3.044
	c6.36-1.68,5.686-6.959,6.47-12.678c0.468-3.421-0.072-6.869,0.339-10.224c0.144-1.176,0.463-1.827,0.951-2.194
	c6.158,0.481,12.594,0.064,18.708-0.412c4.303-0.335,8.722-0.853,13.069-0.579c1.064,0.144,2.137,0.261,3.215,0.356
	c1.762,0.316,3.32,0.923,4.833,0.775c0.399,0.385,0.666,1.012,0.794,2.055c0.411,3.354-0.129,6.802,0.339,10.224
	c0.784,5.719,0.109,10.999,6.47,12.678c7.886,2.083,16.691,2.358,24.787,3.044c9.411,0.797,18.989,0.876,28.43,0.7
	c17.349-0.322,35.934,1.315,52.888-2.907c5.85-1.457,6.631-5.124,6.389-10.768c-0.116-2.698-1.468-7.622-0.575-10.195
	c1.417-4.085,9.759-3.312,13.116-3.118c4.152,0.24,8.255,0.725,12.424,0.592c2.607-0.082,8.783-1.773,10.392,0.432
	c1.584,2.169,0.33,7.251,0.597,9.758c0.314,2.953,1.381,5.775,3.405,8.004c4.605,5.075,14.684,2.92,20.74,2.989
	c4.037,0.046,8.087-0.204,12.111-0.538c3.559-0.295,7.171-0.11,10.705-0.478c0.541-0.056,1.062-0.127,1.568-0.209
	c-0.25,2.868-0.09,5.694-0.433,8.602c-0.16,1.35-0.093,2.638-1.3,3.294c-1.319,0.718-5.245,0.011-6.788,0.011
	c-4.458-0.002-8.907-0.28-13.361-0.39c-3.775-0.092-7.166-1.012-10.912-1.086c-7.347-0.146-14.775-0.951-22.084-0.763
	c-7.511,0.194-14.961,0.845-22.409,1.23c-16.446,0.852-33.01,0.544-49.49,0.164c-16.637-0.384-33.295,0.953-49.929,1.472
	c-8.106,0.252-16.138,0.402-24.241,0.551c-0.786,0.015-1.581,0.044-2.371,0.065c-8.757-1.245-18.078-0.654-26.731-0.584
	c-5.72,0.046-11.458,0.062-17.168,0.432c-0.321,0.02-0.632,0.056-0.947,0.087c-0.006,0-0.011-0.001-0.017-0.001
	c-8.104-0.149-16.134-0.298-24.241-0.551c-16.634-0.518-33.292-1.856-49.929-1.472c-16.481,0.379-33.044,0.688-49.49-0.164
	c-7.448-0.385-14.898-1.038-22.409-1.23c-7.309-0.188-14.738,0.617-22.084,0.763c-3.745,0.074-7.137,0.994-10.912,1.086
	c-4.455,0.109-8.904,0.387-13.361,0.39c-1.543,0.001-5.469,0.707-6.788-0.011c-1.207-0.656-1.14-1.944-1.3-3.294
	c-0.343-2.908-0.183-5.732-0.433-8.602c0.507,0.082,1.027,0.153,1.568,0.209c3.534,0.368,7.146,0.183,10.705,0.478
	c4.023,0.334,8.073,0.583,12.111,0.538c6.054-0.069,16.134,2.085,20.74-2.989c2.024-2.229,3.091-5.051,3.405-8.004
	C80.228,290.259,78.974,285.177,80.558,283.008z M28.934,333.264c-2.741-0.31-2.492-0.509-3.143-3.207
	c-0.377-1.567-1.349-3.78-1.172-5.437c-1.02-2.346,0.108-3.647,3.386-3.903c0.749-0.063,1.494-0.146,2.237-0.253
	c0.356-0.064,0.713-0.102,1.068-0.156c0.093,0.006,0.183,0.019,0.278,0.021c4.372,0.132,8.838-0.404,13.252-0.276
	c4.091,0.119,8.182,0.755,12.26,0.809c3.297,0.043,6.439-0.561,9.793-0.485c8.055,0.18,15.855-0.314,23.907-0.556
	c8.204-0.247,16.193,0.129,24.373,0.043c3.821-0.041,7.562,0.484,11.373,0.538c4.746,0.068,9.397-0.773,14.137-0.491
	c17.987,1.073,36.022,1.805,53.992,2.294c9.75,0.266,19.753,1.739,29.454,0.498c2.59-0.331,5.178-0.495,7.767-0.494
	c2.061,0.169,4.134,0.272,6.208,0.333c0.705,0.06,1.394,0.073,2.071,0.051c2.414,0.044,4.825,0.051,7.216,0.07
	c7.478,0.061,14.939,0.403,22.285-0.242c1.521,0.199,3.072,0.281,4.716,0.09c4.486-0.521,8.976-0.382,13.468,0.194
	c9.701,1.242,19.704-0.232,29.454-0.498c17.97-0.49,36.004-1.221,53.992-2.294c4.741-0.283,9.391,0.56,14.137,0.491
	c3.811-0.054,7.552-0.579,11.373-0.538c8.181,0.087,16.169-0.289,24.374-0.043c8.052,0.242,15.853,0.737,23.907,0.556
	c3.354-0.075,6.497,0.529,9.793,0.485c4.08-0.054,8.17-0.69,12.26-0.809c4.414-0.128,8.88,0.408,13.252,0.276
	c0.093-0.002,0.185-0.016,0.278-0.021c0.356,0.054,0.713,0.092,1.068,0.156c0.743,0.106,1.488,0.19,2.237,0.253
	c3.277,0.256,4.406,1.557,3.386,3.903c0.178,1.657-0.794,3.871-1.171,5.437c-0.651,2.7-0.402,2.898-3.144,3.207
	c-2.907,0.329-5.79,0.499-8.709,0.663c-4.868,0.274-9.684,0.118-14.556,0.484c-10.547,0.791-21.574-0.52-32.164-0.87
	c-4.267-0.141-8.529-0.302-12.79-0.456c-0.124-0.041-0.251-0.045-0.375-0.013c-7.455-0.27-14.908-0.516-22.378-0.565
	c-21.247-0.141-42.296-0.802-63.496-0.532c-5.373,0.069-10.655,0.796-16.063,0.754c-5.585-0.043-11.17,0.191-16.754,0.231
	c-9.429,0.066-18.888-0.156-28.298-0.041c-4.003-0.177-8.011-0.205-11.934-0.337c-7.263-0.242-14.509-0.365-21.718,0.306
	c-5.867,0.038-11.743,0.113-17.604,0.071c-5.585-0.039-11.17-0.274-16.754-0.231c-5.409,0.041-10.69-0.687-16.063-0.754
	c-21.2-0.269-42.249,0.392-63.497,0.532c-11.865,0.079-23.687,0.642-35.542,1.035c-10.59,0.35-21.617,1.662-32.164,0.87
	c-4.873-0.366-9.688-0.211-14.556-0.484C34.724,333.764,31.842,333.593,28.934,333.264z M476.453,354.072
	c0.397,6.219,1.017,12.317,0.91,18.559c-0.127,7.416-0.183,14.833-0.216,22.25c-0.021,4.693-1.077,9.824-0.378,14.509
	c-0.285,0.001-0.571,0.004-0.852,0.001c-8.924-0.131-17.669,0.991-26.546,0.87c-3.237-0.044-6.458-0.138-9.678-0.233
	c0.251-0.456,0.413-0.995,0.419-1.639c0.128-13.486,0.66-26.831,0.358-40.343c-0.115-5.14-1.023-10.338-1.61-15.449
	c-0.455-3.965-1.376-7.962-1.563-11.966c-0.05-1.06-0.015-1.88-0.078-2.639c3.785,0.071,7.567,0.207,11.349,0.457
	c9.182,0.609,18.336,2.192,27.541,2.689c0.522,0.028,1.083,0.059,1.658,0.088c-0.373,1.315-0.704,3.429-0.785,4.054
	C476.603,348.208,476.264,351.125,476.453,354.072z M415.692,402.902c0.078-2.345,0.59-4.558,0.666-6.917
	c0.026-0.799,0.037-1.597,0.036-2.398c5.661,0.097,11.351,0.285,16.969-0.167c-0.104,4.988-0.16,9.976-0.113,14.969
	c0.006,0.565,0.124,1.056,0.321,1.477c-4.168-0.096-8.341-0.141-12.542-0.02c-1.864,0.053-3.73,0.095-5.594,0.133
	C415.813,407.652,415.611,405.334,415.692,402.902z M433.489,388.067c-5.656,0.575-11.484,0.37-17.204,0.294
	c-0.126-3.781-0.281-7.56-0.009-11.313c0.212-2.913,0.298-5.829,0.346-8.747c3.911,0.047,7.81,0.093,11.709-0.266
	c1.91-0.176,3.877-0.046,5.651-0.467c0.011,0.737,0.012,1.475-0.004,2.213C433.843,375.88,433.646,381.974,433.489,388.067z
	 M433.087,353.713c0.18,2.933,0.462,5.855,0.663,8.78c-1.394-0.253-2.895-0.141-4.458-0.028c-4.231,0.305-8.382,0.424-12.607,0.463
	c0.028-2.688,0.065-5.377,0.178-8.066c0.238-5.664,0.839-11.243-0.205-16.675c5.611-0.162,11.22-0.274,16.827-0.238
	c-0.313,2.2-0.904,4.31-0.892,6.657C432.608,347.665,432.9,350.672,433.087,353.713z M411.01,383.636
	c0.092,1.611,0.104,3.154,0.086,4.695c-5.336-0.075-11.592-0.731-16.909,0.191c-0.106-1.448-0.188-2.886-0.216-4.307
	c-0.116-5.9-0.172-11.825-0.492-17.727c5.722,1.587,12.242,1.726,18.217,1.77c-0.173,4.081-0.31,7.159-0.405,8.116
	C411.049,378.771,410.871,381.222,411.01,383.636z M410.048,410.073c-5.253,0.079-10.503,0.126-15.753,0.176
	c1.266-5.674,0.755-11.651,0.235-17.547c5.153,1.477,11.048,1.001,16.434,0.875c-0.002,0.074-0.005,0.146-0.007,0.222
	c-0.059,2.244-0.367,4.207-0.592,6.41C410.029,403.501,410.681,406.792,410.048,410.073z M402.019,362.642
	c-3.011-0.195-5.915-0.511-8.791,0.034c-0.127-1.657-0.272-3.313-0.46-4.963c1.941-0.377,3.79-1.175,5.017-2.738
	c3.253-4.143,1.988-11.066,0.5-16.174c5.023-0.161,10.046-0.349,15.069-0.511c-0.578,5.565-1.064,16.046-1.433,24.654
	C408.614,362.93,405.342,362.857,402.019,362.642z M387.457,395.952c-0.053,4.732-0.607,9.731,0.437,14.367
	c-7.893,0.096-15.781,0.248-23.661,0.611c-0.633,0.029-1.266,0.055-1.899,0.083c0.025-0.052,0.053-0.098,0.075-0.153
	c1.755-4.276,0.978-9.982,0.785-14.554c-0.231-5.443-1.042-10.856-1.314-16.294c-0.201-4.036-0.548-8.126-1.181-12.114
	c-0.527-3.323-0.838-7.029-1.68-10.42c2.075,0.075,4.195-0.156,6.227-0.182c4.234-0.054,8.368,0.851,12.605,0.523
	c2.208-0.171,4.388-0.625,6.619-0.492c1.293,0.078,2.536,0.359,3.798,0.531c-0.987,8.735-1.02,17.577-1.247,26.356
	C386.918,388.166,387.501,392.002,387.457,395.952z M384.469,351.379c-2.219-0.063-4.326,0.35-6.51,0.6
	c-5.32,0.607-10.883-0.523-16.261-0.393c-1.886,0.046-2.676,0.194-4.316-1.05c-2.04-1.547-1.576-1.991-1.496-4.379
	c0.078-2.369,0.147-4.739,0.093-7.108c9.8,0.043,19.603,0.158,29.448,0.051c3.069-0.034,6.139-0.102,9.21-0.188
	c-0.012,4.431,0.167,11.628-3.313,12.853C389.366,352.454,386.549,351.437,384.469,351.379z M354.697,356.65
	c0.321,0.132,0.648,0.23,0.976,0.325c-0.678,2.326-0.979,4.727-1.083,7.159c-5.431,0.242-10.856-0.272-16.202-0.632
	c-0.207-0.014-0.422-0.009-0.632-0.019c0.016-8.119,0.01-16.326-0.84-24.341c4.24-0.077,8.476-0.108,12.711-0.109
	C349.385,345.024,347.979,353.887,354.697,356.65z M337.779,372.97c-0.016-1.353-0.023-2.712-0.025-4.075
	c0.738,0.056,1.469,0.131,2.176,0.253c3.731,0.643,7.52,0.151,11.307,0.266c1.253,0.038,2.372,0.134,3.376,0.019
	c0.132,3.295,0.404,6.591,0.403,9.786c-0.001,4.375,0.492,8.748,0.761,13.123c-1.626-0.115-3.293-0.071-5.11-0.118
	c-4.261-0.11-8.498-0.777-12.731-1.005C338.005,385.141,337.85,379.039,337.779,372.97z M337.799,396.515
	c0.118,0.016,0.244,0.025,0.361,0.042c5.343,0.749,11.99,1.933,17.769,1.075c-0.101,4.381-0.857,9.212,0.797,13.23
	c0.057,0.138,0.124,0.265,0.191,0.39c-6.385,0.267-12.773,0.513-19.156,0.789c0.047-0.531-0.134-1.051-0.458-1.486
	C337.011,405.907,337.552,401.175,337.799,396.515z M332.873,390.972c-1.999-0.096-3.999-0.196-6.002-0.283
	c-0.867-0.038-6.207,0.343-8.768,0.802c-0.54-5.852-0.224-11.852-0.421-17.734c-0.02-0.593-0.331-3.023-0.76-5.75
	c4.802,1.708,10.573,1.011,16.036,0.827c0.002,1.761,0,3.516-0.017,5.259C332.885,379.709,332.993,385.35,332.873,390.972z
	 M332.413,412.285c-4.536,0.209-9.07,0.432-13.6,0.702c0.186-1.707-0.037-3.495-0.132-5.426c-0.2-4.079-0.114-8.108-0.303-12.155
	c2.532,0.386,5.253,0.131,7.754,0.259c2.115,0.109,4.345,0.211,6.56,0.36C332.374,401.297,331.396,407.094,332.413,412.285z
	 M332.946,363.471c-1.875,0.064-3.753,0.167-5.572,0.202c-1.458,0.028-9.571,1.582-10.516,0.856
	c-0.163-0.125-0.359-0.174-0.56-0.178c-0.324-1.744-0.668-3.332-0.983-4.346c2.696-0.464,5.083-1.5,6.518-3.672
	c1.986-3.006,1.323-6.815,0.645-10.098c-0.38-1.843-0.494-3.983-1.089-5.755c-0.068-0.199-0.147-0.467-0.235-0.738
	c2.159-0.129,4.324-0.268,6.52-0.35c2.044-0.078,4.086-0.136,6.129-0.186C332.953,347.191,332.924,355.372,332.946,363.471z
	 M289.611,384.872c-0.238-8.273,0.113-16.66-1.74-24.837c0.308-0.005,0.615-0.009,0.915-0.011c4.659-0.03,9.32,0.011,13.979,0.018
	c2.334,0.003,5.467,0.338,8.58,0.295c-0.566,3.695-0.038,7.92,0.086,11.438c0.178,5.066-0.265,10.205-0.33,15.276
	c-0.06,4.654,0.527,9.212,0.472,13.874c-0.029,2.49-0.096,4.989-0.033,7.478c0.032,1.244,0.53,3.21-0.174,4.326
	c-0.156,0.248-0.265,0.499-0.349,0.751c-0.115,0.008-0.23,0.013-0.344,0.021c-4.789,0.346-9.586,0.27-14.381,0.048
	c-2.194-0.878-4.563-1.314-6.98-1.537C289.45,402.946,289.872,393.967,289.611,384.872z M309.504,353.161
	c-2.995,0.006-5.99,0.007-8.985,0.01c-4.296,0.006-8.607,0.106-12.902,0.036c-2.985-0.05-3.307-0.259-3.509-3.322
	c-0.1-1.52,0.241-3.126,0.288-4.647c0.045-1.494,0.464-3.587,0.518-5.561c2.92,0.011,5.84,0.014,8.759,0.033
	c5.593,0.037,11.187,0.1,16.776,0.298c1.927,0.069,3.823,0.044,5.709-0.021c-0.573,4.359,2.047,11.39-1.825,13.115
	C313.512,353.468,310.141,353.16,309.504,353.161z M273.094,392.278c-2.048-0.037-4.102-0.037-6.157-0.042
	c-0.005-0.717-0.007-1.434-0.011-2.151c-0.041-6.864,0.455-13.679,0.411-20.505c-0.001-0.227,0.004-0.458,0.004-0.687
	c0.899,0.005,1.798,0.015,2.697,0.017c4.013,0.008,8.398,0.693,12.45,0.355c-0.389,5.216-0.337,10.503-0.439,15.606
	c-0.051,2.478-0.126,4.948-0.211,7.413C278.961,391.972,275.89,392.33,273.094,392.278z M281.646,397.751
	c-0.167,4.653-0.323,9.303-0.36,13.976c-0.742-0.012-1.476-0.028-2.196-0.056c-4.018-0.158-8.036-0.073-12.055,0.059
	c-0.017-4.759-0.045-9.518-0.071-14.277c1.176,0.007,2.353,0.011,3.528,0.009c2.533-0.004,5.046,0.51,7.539,0.537
	C279.255,398.014,280.446,397.853,281.646,397.751z M271.844,363.434c-1.476,0.002-2.952,0.015-4.428,0.023
	c0.095-3.551,0.256-7.119,0.411-10.63c0.163-3.707,1.024-8.603-0.008-12.534c2.631-0.08,5.238-0.288,7.85-0.71
	c0.129,0.002,0.262,0.007,0.391,0.009c0.38,0.007,0.762,0.006,1.144,0.011c-0.027,0.402-0.05,0.79-0.073,1.134
	c-0.368,5.428-1.879,14.952,3.937,18.21c0.86,0.482,1.797,0.755,2.764,0.911c-0.317,1.381-0.555,2.784-0.762,4.195
	C279.423,363.224,275.563,363.427,271.844,363.434z M255.716,392.315c-2.491,0.043-4.958-0.065-7.423-0.186
	c0.033-5.732-0.075-11.478-0.098-17.204c-0.008-2.009-0.054-4.029-0.097-6.05c1.635-0.06,3.274-0.113,4.919-0.099
	c3.242,0.028,6.484,0.061,9.726,0.089c-0.035,0.829-0.083,1.655-0.114,2.485c-0.224,6.272-0.637,12.427-0.675,18.735
	c-0.004,0.72-0.007,1.441-0.01,2.161C259.867,392.263,257.787,392.279,255.716,392.315z M261.92,397.428
	c-0.026,4.827-0.055,9.656-0.072,14.483c-2.437,0.084-4.876,0.156-7.315,0.173c-2.229,0.015-4.468,0.071-6.707,0.106
	c-0.019-0.037-0.035-0.074-0.056-0.109c0.305-4.899,0.366-9.934,0.46-14.808c2.167,0.142,4.337,0.245,6.529,0.199
	C257.144,397.419,259.532,397.418,261.92,397.428z M254.978,363.553c-2.286,0.024-4.623,0.202-6.957,0.37
	c-0.016-2.567,0.021-5.129,0.199-7.67c0.185-2.633,0.31-5.289,0.496-7.949c0.197-2.817-0.502-5.755-0.315-8.559
	c2.406,0.08,4.796,0.15,7.143,0.27c3.061,0.158,6.032,0.29,8.961,0.31c0.078,4.768-0.785,9.592-1.037,14.334
	c-0.158,2.948-0.323,5.884-0.477,8.819C260.32,363.501,257.65,363.525,254.978,363.553z M239.49,391.871
	c-3.168,0.051-6.311-0.531-9.352-0.134c-0.077-2.284-0.145-4.572-0.191-6.866c-0.113-5.556-0.053-11.328-0.567-16.991
	c2.512,0.594,5.187,0.498,7.818,0.833c2.131,0.271,4.262,0.322,6.396,0.293c-0.016,1.012-0.035,2.02-0.043,3.041
	c-0.048,6.633-0.2,13.249-0.342,19.862C241.975,391.872,240.735,391.851,239.49,391.871z M243.115,396.923
	c-0.098,5.091-0.181,10.181-0.179,15.276c-0.693-0.008-1.387-0.01-2.078-0.034c-3.037-0.1-5.749-0.599-8.748-0.143
	c-0.466,0.071-0.93,0.132-1.393,0.186c-0.033-5.459-0.234-10.885-0.432-16.321c2.698,0.611,5.506,0.839,8.248,0.856
	C240.071,396.755,241.595,396.828,243.115,396.923z M239.531,364.202c-3.578-0.161-7.026-0.06-10.564,0.141
	c-0.215-1.51-0.465-3.011-0.804-4.487c0.967-0.154,1.904-0.428,2.764-0.911c5.817-3.259,4.305-12.782,3.937-18.21
	c-0.024-0.344-0.046-0.733-0.073-1.134c0.382-0.007,0.763-0.004,1.144-0.011c1.605-0.03,3.269-0.074,4.93-0.204
	c1.733,0.125,3.471,0.204,5.207,0.271c-1.487,4.115-1.235,8.848-1.651,13.151c-0.369,3.812-0.578,7.583-0.705,11.378
	C242.302,364.244,240.903,364.264,239.531,364.202z M222.699,412.839c-1.388,0.123-2.765,0.29-4.129,0.562
	c-5.75,0.325-11.503,0.512-17.245,0.099c-0.115-0.008-0.23-0.013-0.344-0.021c-0.083-0.252-0.193-0.503-0.349-0.751
	c-0.706-1.117-0.207-3.082-0.174-4.326c0.063-2.489-0.003-4.988-0.033-7.478c-0.054-4.662,0.531-9.22,0.472-13.874
	c-0.065-5.07-0.508-10.211-0.329-15.276c0.124-3.518,0.652-7.743,0.086-11.438c3.113,0.043,6.246-0.292,8.58-0.295
	c4.659-0.006,9.32-0.048,13.979-0.018c0.301,0.002,0.607,0.007,0.915,0.011c-1.853,8.177-1.503,16.563-1.74,24.837
	C222.117,394.244,222.576,403.492,222.699,412.839z M211.477,353.172c-2.994-0.003-5.99-0.006-8.985-0.01
	c-0.637-0.001-4.009,0.306-4.828-0.059c-3.873-1.726-1.253-8.756-1.825-13.115c1.886,0.065,3.781,0.09,5.709,0.021
	c5.589-0.198,11.184-0.262,16.777-0.298c2.919-0.019,5.839-0.021,8.759-0.033c0.054,1.975,0.472,4.066,0.518,5.561
	c0.047,1.522,0.388,3.127,0.288,4.647c-0.202,3.062-0.523,3.273-3.509,3.322C220.084,353.278,215.773,353.176,211.477,353.172z
	 M193.184,412.986c-5.075-0.302-10.155-0.548-15.238-0.777c-0.032-5.067-0.077-10.134-0.12-15.201
	c3.241,0.124,6.533-0.01,9.76,0.016c2.114,0.017,4.154,0.25,5.978-0.19c-0.116,3.567-0.071,7.127-0.248,10.726
	C193.221,409.492,192.998,411.279,193.184,412.986z M177.781,391.385c-0.069-7.098-0.15-14.195-0.245-21.292
	c-0.006-0.433,0-0.866,0.001-1.299c0.149,0.012,0.301,0.02,0.448,0.033c4.583,0.393,9.125,0.662,13.712,1.133
	c1.044,0.107,2.074,0.2,3.056,0.187c-0.254,1.776-0.423,3.182-0.438,3.613c-0.199,5.983,0.136,12.09-0.445,18.039
	C188.705,390.917,183.103,391.449,177.781,391.385z M188.583,364.274c-3.515-0.402-7.32-0.638-10.908-0.708
	c0.173-3.868,0.436-7.737,0.391-11.626c-0.051-4.42,0.34-8.713-1.092-12.76c2.449,0.053,4.897,0.116,7.349,0.209
	c2.196,0.083,4.361,0.222,6.52,0.35c-0.089,0.272-0.169,0.539-0.235,0.738c-0.596,1.772-0.708,3.911-1.089,5.755
	c-0.678,3.283-1.341,7.092,0.645,10.098c1.435,2.173,3.822,3.208,6.518,3.672c-0.325,1.048-0.681,2.707-1.014,4.518
	C193.314,364.366,190.784,364.525,188.583,364.274z M174.064,353.044c-0.039,3.512-0.341,7.004-0.582,10.498
	c-5.371,0.007-10.725,0.124-16.095,0.151c-0.12-2.28-0.427-4.53-1.064-6.715c0.328-0.097,0.655-0.194,0.976-0.325
	c6.717-2.764,5.311-11.627,5.069-17.617c4.038,0.001,8.077,0.029,12.119,0.098C173.746,343.582,174.113,348.691,174.064,353.044z
	 M149.588,410.861c0.023,0.054,0.051,0.1,0.075,0.153c-0.634-0.028-1.266-0.054-1.899-0.083c-7.881-0.365-15.768-0.516-23.662-0.611
	c1.042-4.635,0.49-9.634,0.437-14.367c-0.044-3.95,0.539-7.787,0.437-11.737c-0.227-8.779-0.26-17.621-1.247-26.356
	c1.261-0.172,2.505-0.454,3.798-0.531c2.231-0.133,4.412,0.321,6.619,0.492c4.237,0.328,8.37-0.578,12.604-0.523
	c2.032,0.026,4.152,0.259,6.227,0.182c-0.841,3.391-1.152,7.096-1.68,10.42c-0.633,3.987-0.979,8.078-1.181,12.114
	c-0.271,5.438-1.083,10.851-1.314,16.294C148.61,400.879,147.834,406.585,149.588,410.861z M150.298,351.586
	c-5.379-0.131-10.941,1-16.261,0.393c-2.184-0.249-4.29-0.662-6.51-0.6c-2.079,0.06-4.896,1.075-6.856,0.385
	c-3.479-1.226-3.3-8.422-3.313-12.853c3.07,0.086,6.14,0.155,9.21,0.188c9.846,0.107,19.649-0.008,29.448-0.051
	c-0.054,2.37,0.016,4.739,0.093,7.108c0.079,2.388,0.544,2.831-1.496,4.379C152.973,351.779,152.183,351.631,150.298,351.586z
	 M117.699,410.248c-5.612-0.054-11.226-0.104-16.841-0.192c-0.064-0.209-0.154-0.408-0.266-0.591
	c-0.46-3.787-0.05-7.681,0.042-11.538c5.479,0.061,11.442-0.075,16.494-1.135C116.804,401.339,116.726,405.884,117.699,410.248z
	 M117.532,391.937c-3.385-0.592-6.698,0.142-10.137,0.326c-2.273,0.122-4.627,0.217-6.958,0.288
	c-0.782-6.707-0.585-13.466-0.603-20.239c-0.005-1.569,0.024-3.14,0.065-4.712c3.34,0.106,6.666,0.335,10.015-0.041
	c2.827-0.317,5.791-0.101,8.578-0.58c-0.297,5.739-0.351,11.498-0.464,17.233C117.976,386.747,117.76,389.333,117.532,391.937z
	 M111.472,361.975c-3.871,0.419-7.57,0.491-11.397,0.543c0.324-8.105,0.711-16.215-0.63-24.201
	c4.756,0.156,9.511,0.332,14.268,0.484c-1.488,5.107-2.754,12.032,0.5,16.174c1.227,1.563,3.077,2.361,5.017,2.738
	c-0.164,1.436-0.294,2.877-0.411,4.32C116.437,361.565,113.931,361.708,111.472,361.975z M155.271,410.861
	c1.821-4.426,0.717-9.841,0.787-14.554c0.005-0.284,0.018-0.567,0.026-0.851c5.613,0.992,11.378,0.943,17.064,1.268
	c-0.024,5.088-0.05,10.177-0.08,15.266c-5.995-0.256-11.991-0.489-17.987-0.74C155.147,411.125,155.214,410.999,155.271,410.861z
	 M161.154,391.362c-1.64,0.057-3.261-0.034-4.869-0.012c0.276-4.044,0.697-8.085,0.696-12.13c-0.001-3.783,0.377-7.707,0.456-11.603
	c1.605,0.26,3.268,0.27,5.095,0.356c3.513,0.165,7.118,0.307,10.684,0.519c-0.027,0.859-0.045,1.718-0.041,2.579
	c0.029,6.694,0.023,13.387-0.001,20.082C169.209,390.887,165.111,391.224,161.154,391.362z M95.992,409.965
	c-1.675-0.036-3.349-0.072-5.024-0.119c-4.201-0.12-8.374-0.075-12.542,0.02c0.198-0.421,0.315-0.912,0.321-1.477
	c0.037-3.945,0.006-7.886-0.057-11.828c1.304,0.088,2.629,0.077,3.966,0.1c4.334,0.077,8.606,1.095,12.864,1.176
	c0.23,0.005,0.477,0.009,0.71,0.015C96.035,401.91,95.453,406.019,95.992,409.965z M96.115,392.411
	c0.009,0.077,0.009,0.154,0.017,0.231c-3.333-0.016-6.541-0.859-9.921-0.79c-0.579,0.011-4.752,0.304-7.6,0.642
	c-0.164-7.567-0.427-15.134-0.593-22.712c-0.023-1.042-0.009-2.083,0.02-3.122c2.326,0.355,4.864,0.113,7.111,0.155
	c3.596,0.069,7.031,0.67,10.616,0.736c0.027,2.219,0.064,4.437,0.059,6.643C95.809,380.228,95.394,386.417,96.115,392.411z
	 M95.756,362.528c-3.009-0.069-5.951-0.358-8.98-0.395c-0.528-0.007-5.383,0.249-8.548,0.637c0.203-3.017,0.495-6.032,0.682-9.057
	c0.187-3.042,0.478-6.05,0.494-9.107c0.012-2.346-0.579-4.456-0.892-6.657c5.924-0.038,11.851,0.084,17.779,0.262
	c-0.566,5.187,0.555,10.627-0.06,15.862C95.903,356.873,95.787,359.697,95.756,362.528z M71.886,408.389
	c0.006,0.644,0.168,1.183,0.419,1.639c-3.22,0.095-6.442,0.189-9.678,0.233c-8.879,0.12-17.622-1-26.546-0.87
	c-0.281,0.004-0.567,0-0.852-0.001c0.699-4.683-0.358-9.815-0.378-14.509c-0.034-7.418-0.089-14.834-0.216-22.25
	c-0.107-6.242,0.512-12.34,0.91-18.559c0.188-2.947-0.15-5.864-0.529-8.791c-0.081-0.625-0.413-2.738-0.785-4.054
	c0.575-0.029,1.136-0.06,1.658-0.088c9.205-0.499,18.359-2.082,27.541-2.689c3.78-0.251,7.564-0.386,11.349-0.457
	c-0.063,0.759-0.029,1.578-0.078,2.639c-0.186,4.003-1.107,8.001-1.563,11.966c-0.587,5.11-1.495,10.308-1.61,15.449
	C71.226,381.558,71.758,394.902,71.886,408.389z M504.829,436.649c-0.277,2.961-0.438,4.349-3.443,5.415
	c-2.163,0.768-4.389,0.663-6.65,0.854c-3.488,0.295-6.827,0.794-10.346,0.71c-8.15-0.194-16.309,0.54-24.493,0.487
	c-8.542-0.055-17.048,0.52-25.62,0.447c-9.168-0.079-18.336-0.187-27.505-0.208c-4.723-0.011-9.363,0.12-14.067,0.414
	c-3.34,0.208-6.594-0.526-9.928-0.614c-8.472-0.222-16.967-0.149-25.442-0.183c-18.142-0.075-36.221,0.061-54.341,0.526
	c-8.849,0.227-17.703,0.627-26.544,1.067c-4.645,0.231-9.296,0.127-13.941,0.308c-0.803,0.032-1.926,0.242-3.081,0.421
	c-0.798-0.35-1.763-0.406-2.712,0.001c-0.212,0.091-0.455,0.153-0.72,0.194c-0.266-0.041-0.508-0.104-0.72-0.194
	c-0.949-0.408-1.914-0.351-2.712-0.001c-1.155-0.179-2.277-0.39-3.081-0.421c-4.645-0.182-9.298-0.078-13.941-0.308
	c-8.84-0.44-17.696-0.841-26.544-1.067c-18.12-0.465-36.198-0.602-54.341-0.526c-8.476,0.035-16.969-0.038-25.442,0.183
	c-3.334,0.088-6.588,0.822-9.928,0.614c-4.704-0.293-9.345-0.426-14.067-0.414c-9.169,0.022-18.337,0.131-27.505,0.208
	c-8.57,0.073-17.078-0.502-25.62-0.447c-8.183,0.053-16.342-0.681-24.493-0.487c-3.519,0.084-6.858-0.415-10.344-0.71
	c-2.26-0.191-4.487-0.087-6.65-0.854c-3.005-1.066-3.166-2.454-3.443-5.415c-0.411-4.407-1.421-11.506,0.866-15.434
	c2.38-4.088,7.379-3.44,11.549-3.592c8.539-0.311,17.198-0.536,25.739-0.503c7.863,0.03,15.535,0.877,23.455,0.611
	c8.444-0.283,16.784-0.841,25.277-0.802c17.287,0.079,34.501-0.107,51.739,0.32c27.655,0.684,55.294,3.372,82.869,2.007
	c1.017,0.038,2.026,0.03,3.02-0.064c7.411-0.705,15.31,0.087,22.849,0.136c7.185,0.047,14.267-0.225,21.408-0.541
	c30.027,2.333,60.136-0.791,90.264-1.538c17.239-0.427,34.452-0.241,51.739-0.32c8.494-0.039,16.833,0.519,25.277,0.802
	c7.92,0.266,15.592-0.582,23.455-0.611c8.541-0.033,17.2,0.191,25.739,0.503c4.17,0.152,9.169-0.495,11.549,3.592
	C506.25,425.143,505.24,432.242,504.829,436.649z"/>
<g>
</g>
<g>
</g>
<g>
</g>
<g>
</g>
<g>
</g>
<g>
</g>
<g>
</g>
<g>
</g>
<g>
</g>
<g>
</g>
<g>
</g>
<g>
</g>
<g>
</g>
<g>
</g>
<g>
</g>
</svg>
