<?xml version="1.0" encoding="iso-8859-1"?>
<!-- Generator: Adobe Illustrator 19.0.0, SVG Export Plug-In . SVG Version: 6.00 Build 0)  -->
<svg version="1.1" id="Layer_1" xmlns="http://www.w3.org/2000/svg" xmlns:xlink="http://www.w3.org/1999/xlink" x="0px" y="0px"
	 viewBox="0 0 511.999 511.999" style="enable-background:new 0 0 511.999 511.999;" xml:space="preserve">
<path style="fill:#D3D3D3;" d="M506.869,337.843c-7.077-5.799-14.782-11.094-22.885-15.324
	c-11.471-5.989-22.357-12.723-32.788-20.219c-0.203-0.006-0.406-0.014-0.608-0.02c-4.703-0.157-9.386-0.249-14.04,0.512
	c-2.756,0.451-5.597,1.053-8.404,0.906c-5.687-0.3-7.552-4.418-9.019-9.425c-2.099-7.164-3.485-14.498-5.932-21.563
	c-5.418-3.969-7.942-9.406-8.329-16.054c-0.397-6.819-4.065-13.541-6.421-20.021c-3.697-10.165-5.584-20.263-4.992-31.198
	c1.38-25.505,2.009-51.052,2.782-76.587c0.128-4.221-0.205-8.533-0.978-12.681c-0.676-3.62-2.917-7.097-7.087-6.304
	c-3.09,0.587-7.328,2.38-8.406,4.811c-2.234,5.034-3.382,10.804-3.763,16.354c-0.826,12.035-0.904,24.122-1.26,36.189
	c-0.19,6.411-0.19,12.358-0.998,18.686c-0.91,7.126,0.824,14.815,0.666,22.045c-0.356,16.245-3.288,32.293-6.219,48.229
	c-2.371,12.886-4.74,25.771-7.111,38.657c-0.675,3.669-1.465,7.569-4.062,10.245c-3.759,3.872-9.868,3.863-15.256,3.588
	c-14.615-0.746-29.228-1.492-43.843-2.239c-13.906-0.71-27.83-0.247-41.793-0.247c-5.668,0-11.337,0.01-17.005,0.002
	c-3.911-0.005-7.033-1.016-10.788-1.505c-10.519-1.37-22.413,0.554-33.022,0.888c-11.222,0.354-22.442,0.708-33.664,1.061
	c-2.613,0.082-5.423,0.111-7.586-1.357c-2.491-1.691-3.414-4.865-4.163-7.782c-4.527-17.639-9.062-35.321-11.593-53.355
	c-1.821-12.975-2.591-26.15-1.551-39.228c0.996-12.513,3.084-24.429,2.417-37.095c-0.859-16.297-1.777-32.602-3.321-48.842
	c-0.285-2.986-3.096-6.701-5.788-8.206c-2.505-1.4-6.407-0.298-10.55-0.298c-0.826,6.801-2.165,12.359-2.055,17.889
	c0.42,21.271,0.301,42.626,2.283,63.771c2.204,23.511-3.902,44.811-12.497,66.068c-2.284,5.648-5.026,10.635-8.814,14.976
	c0.313,0.222,0.53,0.592,0.423,1.017c-1.455,5.836-3.892,11.326-5.076,17.235c-0.659,3.289-1.237,7.816-4.05,10.11
	c-3.074,2.507-7.66,0.49-11.101,0.236c-5.04-0.373-10.066,0.172-15.084-0.309c-11.087,8.297-22.622,15.964-35.447,21.846
	c-6.831,3.133-16.111,8.287-20.901,14.228c-2.155,2.672-3.251,13.153,0.676,14.616c1.018,0.378,2.149,0.166,3.213-0.05
	c1.742-0.354,3.483-0.709,5.224-1.063c1.309-0.267,2.761-0.511,3.907,0.176c1.521,0.91,1.778,3.03,1.463,4.775
	c-0.317,1.745-1.034,3.467-0.825,5.228c0.771,6.491,12.377,4.48,16.843,4.662c4.529,0.185,9.061,0.059,13.59,0.1
	c5.806,0.053,19.032-1.066,22.514,4.83c1.557,2.637,1.235,8.326,0.151,11.219c-1.394,3.717-4.803,5.61-8.481,6.591
	c-4.12,1.098-5.59,8.451-3.156,11.408c2.795,3.396,10.526,2.358,14.583,2.548c7.103,0.333,14.222,0.291,21.323-0.065
	c5.639-0.283,10.3-4.84,8.454-10.63c-1.92-6.027-10.05-5.096-9.811-12.057c0.098-2.874,0.197-5.748,0.296-8.622
	c0.043-1.233,0.153-2.616,1.087-3.422c0.768-0.662,1.865-0.728,2.878-0.763c19.571-0.669,39.101-0.558,58.753-1.144
	c20.659-0.616,41.324-1.098,61.992-1.053c62.466,0.136,124.93,1.481,187.392,2.494c2.269,0.037,4.36-0.306,6.612-0.562
	c1.673-0.19,3.554,0.014,4.701,1.245c3.34,3.587-0.686,17.061-5.641,17.967c-1.311,0.24-2.715,0.058-3.939,0.584
	c-1.962,0.845-2.777,3.183-3.058,5.301c-0.271,2.039-0.199,4.277,1.027,5.929c1.896,2.554,5.034,1.105,7.578,0.98
	c4.603-0.227,9.4,0.519,14.021,0.6c4.569,0.079,11.198,1.027,15.434-1.035c4.578-2.23,7.017-15.061,0.175-15.962
	c-1.084-0.143-2.227,0.157-3.259-0.205c-1.069-0.375-1.8-1.41-2.107-2.502c-0.308-1.091-0.26-2.246-0.209-3.379
	c0.131-2.933,0.376-6.145,2.414-8.257c4.25-4.405,10.724-1.126,15.862-1.448l13.218-0.827c4.392-0.275,8.944-0.23,13.301-0.831
	c4.094-0.565,4.527-3.289,4.486-7.459c-0.016-1.625-0.108-3.601,1.266-4.469c0.322-0.204,0.688-0.312,1.065-0.382
	c0.248-0.046,0.502-0.075,0.751-0.102c4.835-0.53,11.975,0.458,15.34-3.671C511.202,345.257,510.336,340.684,506.869,337.843z
	 M133.654,304.623c-7.743-0.284-15.512,0.846-23.225-0.172c-1.321-0.175-2.11-1.091-1.867-2.451
	c1.426-7.985,5.363-15.141,8.144-22.688c2.379-6.457,4.796-12.875,7.121-19.343c-0.258-1.071-0.445-2.161-0.462-3.307
	c-0.039-2.769,4.297-2.765,4.297,0c0.001,3.418,1.593,7.124,2.276,10.47c0.842,4.129,1.515,8.268,2.128,12.436
	c1.117,7.599,3.111,15.484,3.495,23.146C135.613,303.719,134.649,304.659,133.654,304.623z M396.547,306.561
	c-3.435,0.18-6.98-0.597-10.389-0.914c-2.283-0.212-5.365-0.036-7.526-0.868c-3.026-1.164-2.852-4.874-2.566-7.672
	c0.61-5.988,2.972-11.933,4.355-17.779c1.836-7.766,3.542-15.562,5.284-23.349c0.31-1.386,2.255-0.754,2.072,0.571
	c-0.011,0.077-0.022,0.154-0.033,0.23c1.133,0.023,2.08,1.126,1.809,2.368c0.321-1.475,0.278,0.24,0.452,0.844
	c0.2,0.698,0.274,1.459,0.429,2.174c0.473,2.181,1.059,4.341,1.636,6.496c1.337,4.991,2.398,10.061,4.138,14.932
	c1.974,5.527,6.311,12.26,6.496,18.224C402.815,305.401,399.692,306.395,396.547,306.561z"/>
<g>
	<path style="fill:#B2B2B2;" d="M125.513,110.704c-0.398,10.628,0.564,21.719,0.564,32.441c0,11.334,0.651,22.441,1.142,33.719
		c0.639,14.704,0.483,29.396-0.311,44.044c-0.821,15.159-7.936,29.217-13.107,43.155c-3.231,8.709-7.106,17.157-10.599,25.761
		c-3.385,8.338-5.996,16.703-9.949,24.925c-1.815,3.778-7.438,21.152-12.827,20.685c-1.943-5.939,3.925-15.266,6.407-20.251
		c3.886-7.803,6.613-16.017,9.598-24.191c5.377-14.724,11.574-29.411,16.003-44.422c3.51-11.902,8.937-23.421,8.859-36.058
		c-0.051-8.355-1.495-16.718-1.7-25.109c-0.29-11.828-0.241-23.672-1.109-35.483c-0.738-10.032-1.94-20.158-2.271-30.199
		c-0.095-2.896-0.066-6.122,2.172-8.369C120.647,109.082,124.479,109.153,125.513,110.704z"/>
	<path style="fill:#B2B2B2;" d="M129.457,257.185c0.669,11.211,1.138,23.504,3.538,34.486c0.883,4.041,2.069,11.629,6.04,13.418
		c1.174,0.529,5.126,1.216,6.072-0.007c0.595-0.77-0.136-3.887-0.22-4.749c-0.344-3.572-1.128-6.966-1.767-10.482
		c-1.278-7.025-2.976-13.846-4.092-20.887c-0.769-4.846-1.233-10.401-3.153-14.943c-0.798-1.89-2.831-6.076-5.433-5.862
		C126.44,248.486,129.355,256.991,129.457,257.185z"/>
	<path style="fill:#B2B2B2;" d="M377.629,116.62c1.1,3.857,0.383,8.136,0.069,12.045c-0.415,5.18-0.645,10.37-1.056,15.55
		c-0.711,8.954-0.917,17.918-1.583,26.879c-0.631,8.479-0.689,16.996-0.309,25.483c0.208,4.641-0.017,8.754,1.153,13.099
		c0.969,3.597,0.348,7.283,0.034,10.932c-0.511,5.935-1.329,11.827-2.183,17.723c-1.933,13.348-5.387,26.478-7.675,39.8
		c-0.812,4.733-2,9.405-3.381,13.995c-0.756,2.51-3.224,7.421-2.829,10.166c0.567,3.94,5.384,2.194,8.131,2.751
		c1.581-4.964,1.66-10.675,2.594-15.809c1.515-8.329,2.517-16.693,4.25-24.999c2.057-9.862,4.421-19.674,5.917-29.644
		c1.467-9.773,0.822-19.476,1.664-29.182c0.652-7.521,0.431-14.97,0.393-22.498c-0.075-14.978,1.482-30.243,2.369-45.186
		c0.318-5.35,0.052-10.426,0.916-15.736c0.389-2.393,1.194-6.011,0.547-8.434c-0.247-0.927-0.83-2.284-1.826-2.72
		C381.423,109.346,380.641,114.388,377.629,116.62z"/>
	<path style="fill:#B2B2B2;" d="M390.869,258.312c1.683,2.845,2.041,6.726,3.099,9.859c1.383,4.098,2.587,8.219,3.654,12.402
		c1.885,7.389,4.682,15.148,7.614,22.198c4.431,10.652,8.837,21.49,13.85,31.858c1.205,2.491,5.541,6.469,7.007,1.998
		c0.611-1.864-1.141-6.053-1.563-7.768c-0.988-4.009-2.536-7.442-4.168-11.21c-7.304-16.868-15.064-33.892-20.41-51.473
		c-1.529-5.027-3.384-13.103-7.447-16.812C385.793,243.235,389.786,258.787,390.869,258.312z"/>
</g>
<path style="fill:#7C7C7C;" d="M22.696,353.525c-0.239,2.959-1.325,7.628,0.53,10.249c2.03,2.866,6.56,1.715,9.554,1.92
	c7.557,0.515,15.112,0.498,22.674,1.141c7.929,0.675,15.551,0.866,23.493,0.071c7.008-0.701,13.938,0.072,20.954-0.281
	c14.502-0.731,29.009-0.491,43.51-0.423c7.141,0.033,14.244,0.283,21.383,0.283c3.042,0,6.111,0.471,9.153,0.278
	c2.538-0.161,4.025-1.215,6.333-1.915c6.004-1.817,13.699-0.268,19.887-0.079c5.626,0.172,11.225-0.271,16.847-0.26
	c12.897,0.025,25.801-0.305,38.694-0.584c9.116-0.198,17.982-1.975,27.196-1.77c9.24,0.207,18.442,1.158,27.674,1.538
	c16.053,0.661,32.088,1.921,48.135,2.642c19.383,0.871,38.324-1.144,57.689-1.271c19.559-0.128,39.126,0.62,58.676-0.208
	c6.627-0.281,19.047,2.76,16.51-8.102c-1.361-5.831-8.661-4.523-13.222-4.919c-14.585-1.266-29.897,0.116-44.538,0.536
	c-10.712,0.308-21.425,0.927-32.138,1.164c-12.061,0.267-24.167-0.01-36.249-0.512c-19.972-0.829-39.96-1.219-59.942-1.661
	c-19.014-0.42-38.006-1.75-56.917-0.304c-13.39,1.023-27.037,1.705-40.437,1.387c-12.469-0.296-24.877,1.274-37.328,1.597
	c-11.306,0.293-22.846-1.813-34.272-1.919c-5.75-0.052-11.473-0.479-17.234-0.279c-7.374,0.256-15.271,2.366-22.504,1.121
	c-7.963-1.371-15.871-0.565-23.936-0.451c-8.818,0.125-17.641,0.657-26.456,0.15C44.255,352.542,23.057,349.045,22.696,353.525z"/>
<g>
	<path style="fill:#E5E5E5;" d="M61.288,304.791c-12.679,5.161-23.6,14.175-36.073,19.727c-4.279,1.904-8.241,4.676-12.181,7.175
		c-1.893,1.201-6.531,3.688-6.923,5.998c2.605,1.003,5.832,0.535,8.617,0.617c5.577,0.166,11.246,0.567,16.85,0.08
		c12.298-1.068,24.695-2.047,37.047-2.049c2.436,0,5.085,0.501,7.45,0.271c2.796-0.272,2.702-1.594,3.24-4.632
		c0.823-4.656,0.836-8.986,2.547-13.429c1.435-3.725,5.955-7.489,6.473-11.23c0.543-3.916-4.405-2.545-7.529-2.53
		C74.059,304.824,67.645,302.889,61.288,304.791z"/>
	<path style="fill:#E5E5E5;" d="M106.077,306.763c-3.608,4.549-5.335,11.655-7.839,16.932c-0.865,1.82-5.945,9.455-5.068,11.468
		c1.046,2.397,9.124,2.218,10.923,2.36c7.237,0.569,14.512,0.616,21.677,1.57c19.774,2.632,39.287-0.397,59.166-0.238
		c15.246,0.122,30.422,1.012,45.67,0.164c6.762-0.376,13.035,0.75,19.672,0.637c8.122-0.138,16.237-0.555,24.346-1.018
		c8.962-0.512,18.2-0.534,27.207-0.618c9.133-0.086,18.284-0.078,27.41,0.23c13.536,0.458,27.085,0.652,40.631,0.626
		c8.999-0.018,17.945,0.979,26.923,1.147c6.059,0.114,14.745,1.747,20.2-1.602c6.943-4.263-3.416-16.866-5.843-21.525
		c-1.523-2.924-2.887-7.615-5.632-9.69c-3.084-2.331-7.184-1.872-10.802-1.535c-12.703,1.182-25.197,1.471-37.942,1.367
		c-14.139-0.116-28.23,0.852-42.376,0.852c-15.619,0-31.232-0.416-46.846-0.742c-7.922-0.165-15.846-0.308-23.77-0.362
		c-6.802-0.046-13.443,1.006-20.318,0.814c-10.458-0.293-20.942-0.56-31.405-0.555c-10.713,0.004-21.409,0.268-32.116,0.28
		c-13.604,0.017-27.587,0.062-41.157-1.069C114.626,305.908,109.333,304.124,106.077,306.763z"/>
	<path style="fill:#E5E5E5;" d="M442.419,303.101c-3.597,0.007-15.499-0.798-17.184,2.536c-1.837,3.638,2.442,10.245,3.528,13.678
		c1.574,4.974,1.049,11.149,2.937,15.85c1.245,3.101,4.45,2.607,7.461,3.038c8.579,1.229,17.461,0.937,26.119,1.212
		c9.421,0.298,18.857-0.272,28.285-0.258c3.001,0.004,7.04,0.378,9.937-0.613c0.758-2.991-4.545-5.537-6.577-6.855
		c-4.848-3.146-9.729-6.103-14.835-8.863c-6.92-3.741-14.226-6.806-20.999-10.837C454.738,308.21,449.327,304.23,442.419,303.101z"
		/>
</g>
<g>
	<path style="fill:#B2B2B2;" d="M85.795,368.735c-0.39,4.882,0.217,11.823-1.388,16.317c-1.81-0.82-3.615,0.828-5.53,0.893
		c-1.867,0.064-3.512-0.875-5.417-0.429c-0.12-0.036-0.217-0.108-0.289-0.213c0.629-4.802-0.361-10.516,0.506-15.167
		c0.185-0.991-0.288-1.598,0.552-2.261C75.661,366.746,81.217,368.411,85.795,368.735z"/>
	<path style="fill:#B2B2B2;" d="M430.587,367.608c0.124,2.553,0.246,5.09,0.281,7.662c0.017,1.246,0.636,6.28,0.02,7.293
		c-1.52,2.499-8.124,2.118-10.681,1.903c-0.365-3.577-0.033-8.607,0.512-12.198C421.308,368.399,422.78,367.255,430.587,367.608z"/>
</g>
<g>
	<path style="fill:#7C7C7C;" d="M83.823,385.919c-4.776,0.506-9.45,0.842-14.222,1.56c-2.443,0.368-8.693,0.246-10.317,2.349
		c-1.481,1.918,0.014,6.363,0.454,8.499c0.68,3.299,1.012,3.862,4.307,4.493c10.362,1.986,22.382,0.344,32.868-0.281
		c6.347-0.378,9.331-4.376,8.294-11.158c-0.485-3.173-2.573-3.266-5.635-3.483C92.429,387.392,86.278,386.469,83.823,385.919z"/>
	<path style="fill:#7C7C7C;" d="M429.742,384.228c-4.363,0.727-8.764,1.367-13.12,2.144c-2.287,0.408-6.213,0.021-7.655,1.779
		c-1.167,1.423-1.683,6.302-1.2,7.944c0.811,2.759,3.243,2.621,6.162,2.788c6.277,0.357,12.633-0.569,18.926-0.57
		c3.311,0,7.123,0.533,10.351,0.226c4.263-0.405,6.848-3.321,6.837-7.745C450.018,380.091,435.043,383.723,429.742,384.228z"/>
</g>
<g>
	<path style="fill:#606060;" d="M82.246,387.826c-0.224,3.412,2.568,8.258,4.591,10.658c-3.624,2.615-10.132,3.252-14.479,3.583
		c-2.265,0.172-10.511,0.711-11.821-1.779c-0.411-0.781,0.398-9.626,1.134-10.491c1.001-1.175,4.424-1.745,5.96-2.199
		C73.403,385.889,79.476,386.405,82.246,387.826z"/>
	<path style="fill:#606060;" d="M425.137,386.05c1.392,0.273,2.456,9.44,2.432,11.67c-5.922,1.249-13.837,1.551-19.806,0.712
		c0.795-2.762-0.358-7.59,1.045-9.764C411.744,384.117,425.437,385.318,425.137,386.05z"/>
	<path style="fill:#606060;" d="M23.261,352.648c1.192,3.109-2.751,9.189-0.285,11.653c1.306,1.305,7.735,1.072,9.497,1.146
		c17.916,0.75,35.887-0.364,53.8-0.069c15.111,0.248,29.926,0.044,44.998,1.214c8.938,0.694,17.982,1.037,26.932,0.178
		c6.158-0.592,17.143-0.423,22.002-4.54c-3.459-2.67-11.289-1.619-15.458-1.854c-7.711-0.434-15.419-1.038-23.133-1.323
		c-9.325-0.343-18.816,0.23-28.103-0.419c-6.391-0.447-10.914-3.123-16.723-4.927c-5.386-1.673-11.117-1.419-16.677-1.415
		c-9.009,0.006-17.996-0.108-26.994-0.342C43.876,351.71,33.122,348.846,23.261,352.648z"/>
</g>
<path d="M502.01,330.832c-2.808-2.537-6.301-4.134-9.523-6.087c-7.709-4.672-15.742-8.626-23.759-12.748
	c-3.118-1.603-5.976-3.739-9.105-5.25c-1.873-1.399-3.746-2.799-5.602-4.226c-4.318-3.321-8.529-6.87-12.714-10.349
	c-4.255-3.538-8.791-6.628-13.054-10.155c-3.216-2.661-6.415-5.329-9.7-7.877c-1.858-1.44-3.855-3.502-5.999-4.916
	c-0.795-2.24-1.614-4.474-2.499-6.69c-3.303-8.273-6.398-16.653-9.273-25.082c-1.371-4.019-3.268-7.797-4.413-11.889
	c-1.263-4.514-1.804-7.588-1.355-12.26c0.807-8.405,0.745-16.425,0.685-24.868c-0.053-7.58,0.63-14.978,0.44-22.525
	c-0.107-4.238,0.589-8.316,0.629-12.52c0.036-3.904-0.355-7.787-0.367-11.685c-0.006-1.835,0.155-3.654,0.343-5.472
	c2.259-6.41,1.117-14.777,0.362-20.942c-0.903-7.374-3.863-9.435-11.165-8.73c-7.193,0.694-10.049,3.836-11.647,10.887
	c-1.885,8.315-1.299,17.235-1.98,25.706c-1.574,19.618-0.833,39.589-0.826,59.264c-1.487,2.244-2.909,4.408-4.347,6.134
	c-4.847,5.817-9.806,11.472-14.147,17.689c-8.658,12.401-18.924,23.761-28.219,35.626c-10.135,12.939-21.873,24.699-31.978,37.711
	c-1.027,1.322-2.068,2.621-3.102,3.932c-5.031,0.015-10.062,0.035-15.093,0.071c-5.063,0.035-10.064,1.082-15.119,0.904
	c-5.157-0.181-10.044-1.098-15.276-0.554c-3.863,0.401-7.708,0.722-11.582,0.802c-3.277-0.974-6.818-1.202-10.186-1.141
	c-0.023,0.001-0.047,0-0.071,0.001c-1.055-1.339-2.12-2.666-3.167-4.014c-10.107-13.011-21.843-24.771-31.978-37.711
	c-9.294-11.865-19.561-23.226-28.219-35.626c-4.341-6.217-9.3-11.872-14.147-17.689c-1.438-1.726-2.86-3.889-4.347-6.134
	c0.006-19.676,0.748-39.646-0.826-59.265c-0.68-8.471-0.095-17.392-1.98-25.706c-1.598-7.05-4.454-10.192-11.647-10.887
	c-7.302-0.705-10.262,1.356-11.165,8.73c-0.755,6.166-1.896,14.532,0.362,20.942c0.188,1.818,0.35,3.637,0.343,5.472
	c-0.012,3.898-0.404,7.782-0.367,11.685c0.039,4.204,0.736,8.283,0.629,12.52c-0.19,7.547,0.495,14.944,0.44,22.525
	c-0.06,8.445-0.122,16.464,0.685,24.868c0.449,4.671-0.091,7.744-1.355,12.26c-1.145,4.092-3.042,7.871-4.413,11.889
	c-2.875,8.429-5.971,16.808-9.273,25.082c-0.885,2.216-1.703,4.45-2.499,6.69c-2.145,1.415-4.141,3.476-5.999,4.916
	c-3.286,2.549-6.484,5.217-9.7,7.877c-4.263,3.526-8.798,6.617-13.054,10.155c-4.185,3.478-8.396,7.028-12.714,10.349
	c-1.856,1.426-3.729,2.827-5.602,4.226c-3.129,1.51-5.987,3.647-9.105,5.25c-8.016,4.122-16.049,8.076-23.759,12.748
	c-3.222,1.953-6.716,3.55-9.524,6.087c-3.266,2.951-10.302,6.798-9.981,12.042c0.136,2.178-0.016,5.239,0.608,7.317
	c1.873,6.239,12.102,5.108,17.01,5.059c0.558-0.005,1.114-0.02,1.671-0.029c0.018,0.055,0.036,0.111,0.054,0.166
	c0.049,0.152,0.111,0.288,0.179,0.413c0.401,1.43-0.512,4.087-0.436,5.484c0.103,1.902,0.522,4.134,1.927,5.518
	c1.367,1.345,3.059,1.451,4.899,1.419c3.213-0.054,6.113,0.096,9.315,0.455c3.281,0.368,6.573-0.199,9.861-0.064
	c3.951,0.163,7.744,0.871,11.733,0.891c5.003,0.025,10.009,0.075,15.013,0.098c0.011,0.354,0.027,0.73,0.013,1.173
	c-0.048,1.506-0.632,2.9-0.58,4.424c0.064,1.843,0.68,3.551,0.561,5.438c-0.081,1.282-0.549,2.547-0.669,3.828
	c-3.005,0.235-5.968,0.861-8.13,1.453c-5.819,1.59-4.92,4.934-5.082,10.156c-0.169,5.451,0.54,7.838,6.263,8.643
	c6.901,0.97,14.143,0.637,21.004,0.841c3.238,0.096,6.403-0.548,9.68-0.524c2.712,0.02,6.445,0.633,9.088-0.132
	c4.404-1.275,4.773-6.371,4.993-10.253c0.236-4.161,0.285-9.335-4.665-10.253c-1.616-0.3-3.364-0.267-5.095-0.168
	c1.148-4.06,1.28-10.143,0.2-14.301c0.694-0.056,1.399-0.111,2.128-0.143c3.512-0.156,7.113,0.76,10.724,0.66
	c4.064-0.114,8.045-0.7,12.122-0.679c15.65,0.082,31.332,0.443,46.912-0.581c3.989-0.262,8.008,0.337,11.998-0.083
	c3.539-0.372,7.083-1.167,10.646-1.297c7.005-0.255,14.265,0.797,21.081-1.111c3.593,0.065,7.179,0.098,10.728,0.433
	c10.41,0.982,20.967-0.295,31.331-0.324c4.823-0.014,9.598,0.796,14.453,0.792c5.518-0.004,11.036,0.01,16.554,0
	c4.013-0.007,8.027-0.095,12.039-0.207c5.866,0.924,11.973,0.2,17.897,0.417c3.563,0.13,7.107,0.925,10.646,1.297
	c3.99,0.42,8.009-0.179,11.998,0.083c15.579,1.024,31.262,0.663,46.913,0.581c4.077-0.021,8.059,0.566,12.122,0.679
	c3.61,0.101,7.211-0.815,10.724-0.66c2.947,0.131,5.516,0.588,8.426,0.262c-0.375,1.295-0.477,2.707-0.545,4.083
	c-0.132,2.653-0.594,5.992,0.002,8.744c-2.254,0.253-4.44,0.673-6.267,1.021c-5.911,1.128-7.759,2.96-7.631,9.013
	c0.148,7.06,2.582,8.369,9.238,8.936c4.398,0.374,8.81,0.007,13.224,0.424c3.006,0.284,6.005,0.434,9.012,0.125
	c4.347-0.447,11.38,0.468,14.809-3.015c2.837-2.882,3.213-11.609,1.989-15.115c-1.288-3.688-5.015-4.318-8.741-4.21
	c0.211-2.121-0.043-4.329,0.27-6.415c0.222-1.488,0.408-2.808,0.216-4.059c3.575-0.026,7.15-0.058,10.724-0.075
	c3.989-0.02,7.783-0.728,11.733-0.891c3.289-0.135,6.581,0.432,9.861,0.064c3.201-0.359,6.102-0.51,9.315-0.455
	c1.84,0.032,3.533-0.074,4.899-1.419c1.406-1.384,1.825-3.615,1.927-5.518c0.076-1.399-0.837-4.055-0.436-5.484
	c0.068-0.125,0.13-0.26,0.179-0.413c0.018-0.055,0.036-0.111,0.054-0.166c0.557,0.009,1.114,0.023,1.671,0.029
	c4.908,0.049,15.136,1.18,17.01-5.059c0.624-2.079,0.471-5.139,0.608-7.317C512.311,337.63,505.276,333.783,502.01,330.832z
	 M486.133,327.646c3.614,2.178,7.829,4.06,11.151,6.624c0.497,0.383,1.404,1.012,2.38,1.715c-1.757,0.197-3.51,0.349-5.213,0.36
	c-0.209,0.001-0.422,0-0.633,0c-0.044-0.108-0.095-0.215-0.163-0.325c-1.012-1.622-2.438-2.168-3.848-3.452
	c-1.566-1.424-2.899-3.102-4.466-4.539c-0.917-0.84-1.858-1.644-2.807-2.438C483.748,326.256,484.953,326.934,486.133,327.646z
	 M455.53,311.666c3.515,1.486,6.719,3.787,10.169,5.511c1.319,0.659,2.649,1.306,3.983,1.953c0.996,0.841,1.978,1.694,2.937,2.569
	c2.91,2.659,5.899,5.195,8.932,7.673c1.706,1.394,3.223,2.942,4.761,4.524c0.838,0.862,1.997,1.68,2.986,2.553
	c-3.067-0.19-6.284,0.566-9.372,0.44c-2.554-0.103-5.11-0.128-7.665-0.135c-0.859-2.299-2.681-3.512-4.585-5.09
	c-2.404-1.991-4.588-4.156-6.928-6.219c-4.525-3.989-8.875-8.06-13.648-11.757c-2.833-2.195-5.569-4.56-8.285-6.966
	c2.615,0.012,5.325,0.141,7.831,0.662C449.659,308.009,452.65,310.448,455.53,311.666z M436.507,331.715
	c-0.941-4.481-2.102-8.741-3.572-12.907c0.575,0.565,1.113,1.083,1.583,1.489c2.188,1.89,4.217,3.928,6.539,5.652
	c4.368,3.243,8.876,6.586,12.744,10.486c-1.496-0.102-2.99-0.227-4.481-0.404c-4.11-0.488-8.531-1.373-12.679-1.035
	C436.793,334.038,436.766,332.949,436.507,331.715z M443.343,323.446c-3.185-2.269-6.001-4.975-9.194-7.234
	c-0.986-0.698-2.014-1.548-3.097-2.261c-0.576-1.36-1.178-2.716-1.837-4.07c-0.433-0.89-0.895-1.765-1.367-2.636
	c1.937,0.139,3.958-0.112,5.957-0.311c2.385,2.104,4.76,4.216,7.237,6.23c5.029,4.089,9.909,8.138,14.769,12.409
	c2.164,1.902,4.232,3.86,6.336,5.814c1.879,1.746,4.603,3.285,6.323,5.358c-3.241,0.005-6.48,0.013-9.713-0.079
	c-0.036-0.05-0.064-0.102-0.107-0.151C454.291,331.461,448.733,327.286,443.343,323.446z M427.947,286.435
	c6.001,4.766,11.959,9.569,17.962,14.331c-4.531-0.788-9.611-0.989-14.255-0.382c-3.516-3.049-7.115-5.973-10.956-8.512
	c-0.762-2.196-1.505-4.399-2.361-6.55c-1.339-3.363-2.535-6.772-3.718-10.189C418.807,279.154,423.383,282.809,427.947,286.435z
	 M427.189,301.296c-0.308,0.085-0.634,0.149-0.934,0.243c-0.455,0.143-0.837,0.395-1.146,0.713c-0.641-1.192-1.264-2.393-1.82-3.63
	c-0.142-0.314-0.273-0.633-0.407-0.951c1.437,1.313,2.925,2.519,4.266,3.59C427.162,301.273,427.175,301.284,427.189,301.296z
	 M373.012,252.418c0.324-1.454,0.626-2.909,0.935-4.364c0.965-1.324,1.918-2.653,2.843-3.986c2.599-3.745,6.012-7.903,7.257-12.356
	c0.205-0.73-0.876-1.202-1.232-0.52c-0.92,1.76-3.04,3.387-4.279,4.965c-1.004,1.279-1.951,2.592-2.898,3.903
	c0.162-0.774,0.321-1.546,0.487-2.32c0.914-4.26,2.575-8.307,2.97-12.676c0.213-2.362,0.189-4.726,0.077-7.088
	c1.4-1.856,2.894-3.565,4.577-4.911c0.86-0.689-0.07-2.135-1.057-1.816c-1.39,0.448-2.64,1.323-3.792,2.425
	c-0.124-1.667-0.252-3.334-0.337-4.999c-0.161-3.139-0.177-6.286-0.172-9.433c1.792-2.395,3.695-4.764,5.127-7.368
	c0.032-0.037,0.065-0.074,0.087-0.12c0.033-0.07,0.067-0.141,0.1-0.212c0.356-0.749-0.359-1.445-1.101-1.101
	c-1.514,0.702-2.903,1.757-4.206,3.012c0-0.061,0-0.123,0-0.183c-0.06-21.505-1.241-43.316,0.944-64.707
	c0.424-4.15-0.473-8.916,1.522-12.801c1.475-2.871,9.032-6.31,10.89-2.142c1.002,2.248,1.352,5.059,1.512,7.837
	c-1.112,7.574-2.279,15.287-2.099,22.927c0.2,8.502-0.765,16.837-0.909,25.338c-0.057,3.361-0.866,6.528-0.83,9.904
	c0.041,3.857-0.037,7.713-0.04,11.57c-0.007,8.043-0.24,15.659-1.386,23.634c-1.019,7.089,1.993,14.075,4.764,20.467
	c3.345,7.72,6.08,15.983,8.947,23.894c2.645,7.301,5.835,14.393,7.955,21.852c2.068,7.274,4.971,15.007,8.213,21.835
	c2.829,5.956,6.895,12.014,8.705,18.12c0.597,2.015,1.185,4.03,1.757,6.052c0.406,1.437,2.131,3.922,1.605,5.361
	c-0.648,1.775-2.814,1.419-4.342,1.538c-3.767,0.301-4.269-1.052-5.643-4.191c-0.733-1.677-1.536-3.246-2.459-4.827
	c-2.095-3.585-3.434-7.318-4.981-11.16c-0.11-0.272-0.212-0.547-0.32-0.819c1.002-1.732,2.039-3.451,3.379-4.907
	c0.937-1.018-0.239-2.358-1.408-1.825c-1.31,0.598-2.386,2.098-3.265,3.388c-1.469-3.897-2.843-7.832-4.268-11.749
	c1.119-1.849,2.194-3.707,3.182-5.573c0.502-0.948-0.505-1.957-1.453-1.453c-1.219,0.649-2.304,1.642-3.299,2.806
	c-0.88-2.314-1.793-4.617-2.778-6.893c-0.665-1.536-1.279-3.076-1.872-4.619c1.359-2.018,2.612-4.094,3.583-6.33
	c0.043-0.053,0.079-0.113,0.104-0.179c0.029-0.079,0.059-0.157,0.087-0.236c0.226-0.605-0.562-1.146-1.073-0.825
	c-1.616,1.012-2.809,2.587-3.953,4.178c-1.782-5.042-3.263-10.149-4.645-15.366c1.116-1.805,2.359-3.507,3.752-4.828
	c0.811-0.769-0.224-1.925-1.135-1.471c-1.311,0.652-2.44,1.816-3.453,3.115c-0.006-0.025-0.013-0.048-0.019-0.072
	c-0.749-2.93-1.996-9.42-5.17-11.424c0.508-0.824,1.019-1.647,1.548-2.461c0.276-0.425,1.153-2.741,1.361-2.917
	c0.393-0.334,0.175-1.036-0.303-1.148c-0.099-0.023-0.197-0.047-0.295-0.069c-0.289-0.068-0.611-0.006-0.821,0.216
	c-1.8,1.917-3.508,3.969-5.15,6.09c-0.15,0.054-0.301,0.111-0.456,0.181c-1.864,0.847-2.342,2.341-2.711,4.106
	c-2.073,2.936-4.042,5.943-5.926,8.91c-2.121,3.339-4.227,6.688-6.333,10.035C370.692,265.257,371.597,258.759,373.012,252.418z
	 M384.485,280.207c1.884-3.058,4.25-6.039,5.982-9.204c0.524,2.023,1.07,4.041,1.697,6.025c0.786,2.486,1.74,4.911,2.751,7.315
	c-0.932,1.27-1.826,2.565-2.686,3.926c-2.959,4.683-5.922,9.412-9.192,13.893c-0.5-0.009-0.995,0.001-1.498-0.016
	c-1.023-0.034-2.048-0.037-3.073-0.027c0.9-2.772,1.165-5.899,1.456-8.645c0.253-2.379,0.518-4.735,0.821-7.086
	C381.989,284.316,383.229,282.247,384.485,280.207z M382.127,277.571c1.367-7.362,2.99-14.802,4.113-22.206
	c0.084,0.23,0.188,0.454,0.259,0.689c0.365,1.046,0.659,2.11,0.944,3.18c0.511,1.915,0.957,3.845,1.471,5.76
	c0.133,0.498,0.261,1,0.391,1.5c-2.016,2.958-3.936,6.008-5.877,9.017C382.989,276.192,382.562,276.886,382.127,277.571z
	 M396.426,287.849c1.664,3.776,3.375,7.535,4.758,11.411c-0.526,0.834-1.04,1.634-1.554,2.362c-0.481,0.006-0.963,0.014-1.437,0.037
	c-3.673,0.188-7.279,0.405-10.916,0.488c2.508-3.792,4.918-7.632,7.315-11.517C395.173,289.687,395.794,288.765,396.426,287.849z
	 M378.446,268.385c-0.852,4.508-1.798,9.005-2.606,13.52c-0.419,2.341-0.65,4.716-0.88,7.09c-1.731,2.73-3.486,5.44-5.338,8.065
	c-1.374,1.948-2.694,3.927-3.995,5.916c-0.247,0.025-0.495,0.047-0.742,0.072c-0.826,0.083-1.647,0.129-2.469,0.19
	c0.312-4.854,1.861-8.851,2.976-13.511c0.549-2.294,0.962-4.579,1.426-6.849c4.242-6.726,8.499-13.468,12.776-20.184
	C379.196,264.588,378.805,266.485,378.446,268.385z M373.826,297.378c-0.021,0.102-0.037,0.206-0.06,0.308
	c-0.189,0.879-0.415,1.749-0.677,2.611c-0.345,1.033-0.833,1.742-1.457,2.137c-0.492,0.037-0.983,0.084-1.474,0.126
	c0.387-0.552,0.775-1.104,1.176-1.646C372.189,299.759,373.013,298.574,373.826,297.378z M349.342,303.613
	c-0.661,0.001-1.319,0.003-1.983,0.003c-5.04-0.007-10.081,0-15.122,0.006c5.03-6.803,9.583-13.96,15.253-20.263
	c6.46-7.184,11.533-15.502,17.265-23.268c-1.614,6.784-3.459,13.526-4.933,20.274c-0.739,3.381-1.208,6.562-2.087,9.811
	C354.932,294.654,352.174,299.152,349.342,303.613z M355.428,301.267c-0.063,0.769-0.116,1.535-0.162,2.29
	c-0.423,0.01-0.849,0.011-1.272,0.017C354.474,302.805,354.954,302.038,355.428,301.267z M366.486,252.003
	c-1.098,1.408-2.192,2.818-3.305,4.216c-6.832,8.579-12.652,17.86-19.799,26.227c-5.749,6.732-11.057,13.877-16.183,21.178
	c-4.618,0.007-9.235,0.012-13.852,0.016c3.427-4.861,7.512-9.273,10.834-14.276c3.818-5.751,8.44-10.648,12.598-16.138
	c7.796-10.294,16.975-19.968,24.019-30.715c3.089-4.713,7.008-8.979,10.548-13.372c-0.211,1.159-0.47,2.32-0.798,3.485
	C368.766,238.962,367.724,245.516,366.486,252.003z M322.26,310.775c-5.54,8.128-10.955,16.346-16.57,24.33
	c-1.49-0.191-3.002-0.316-4.559-0.287c-3.794,0.069-7.574,0.251-11.361,0.401c4.333-4.675,7.652-10.936,11.726-15.618
	c2.392-2.749,4.541-5.578,6.619-8.472c0.682-0.086,1.363-0.201,2.043-0.335C314.193,310.79,318.226,310.783,322.26,310.775z
	 M326.839,310.768c5.955-0.012,11.908-0.022,17.863-0.021c-0.75,1.12-1.51,2.235-2.281,3.345c-3.021,4.348-5.821,8.839-8.987,13.079
	c-2.186,2.928-4.857,5.876-6.773,9.097c-4.994-0.088-9.975-0.25-14.924-0.562c-0.563-0.035-1.115-0.077-1.662-0.119
	C315.668,327.354,320.949,318.82,326.839,310.768z M337.771,327.782c3.071-4.283,5.81-8.814,8.876-13.102
	c0.917-1.281,1.807-2.58,2.685-3.885c3.752,0.07,7.533,0.167,11.256-0.084c-1.438,2.18-2.902,4.344-4.442,6.46
	c-2.19,3.009-4.032,6.286-6.21,9.324c-2.292,3.195-5.063,6.336-6.863,9.875c-3.986,0.003-7.977-0.01-11.966-0.049
	C333.197,333.375,335.752,330.596,337.771,327.782z M359.998,318.462c1.804-2.672,3.485-5.442,5.181-8.2
	c4.3-0.498,8.704-1.052,13.004-1.131c-2.649,4.094-5.134,8.293-8.092,12.207c-2.298,3.041-4.348,6.266-6.725,9.246
	c-1.547,1.94-3.316,3.753-4.743,5.789c-2.445-0.001-4.891,0.001-7.336-0.004c-1.273-0.003-2.549-0.002-3.824-0.002
	C351.721,330.434,355.917,324.509,359.998,318.462z M382.512,309.174c3.971,0.102,7.984,0.268,11.918-0.131
	c-1.016,1.513-2.026,3.031-3.051,4.547c-5.399,7.993-12.121,15.048-17.729,22.871c-2.154-0.046-4.302-0.081-6.439-0.081
	c-1.127,0-2.254-0.002-3.38-0.002C371.004,328.06,376.422,318.261,382.512,309.174z M393.315,317.227
	c2.11-2.859,4.27-5.811,6.387-8.822c1.131-0.128,2.264-0.235,3.407-0.268c0.139-0.004,0.431-0.006,0.79-0.009
	c0.774,2.591,1.621,5.205,2.553,7.783c-1.088,1.508-2.182,3.012-3.3,4.529c-3.91,5.303-7.78,10.788-12.096,15.769
	c-0.123,0.141-0.21,0.289-0.279,0.438c-3.972,0.095-7.974,0.025-11.971-0.068C384.035,330.516,388.647,323.555,393.315,317.227z
	 M397.331,333.228c1.973-2.511,4.085-4.929,5.928-7.54c1.465-2.074,3.064-4.064,4.594-6.094c0.918,2.268,1.914,4.479,3.005,6.585
	c1.459,2.817,2.635,6.556,4.504,9.494c-6.497,0.029-12.932,0.317-19.445,0.759c-0.231,0.016-0.465,0.021-0.696,0.036
	C395.987,335.346,396.649,334.096,397.331,333.228z M298.87,298.372c10.058-11.431,19.932-23.132,29.521-34.9
	c3.965-4.866,8.101-9.487,11.902-14.51c4.867-6.433,10.391-12.626,14.897-19.284c4.713-6.964,10.336-13.178,15.54-19.766
	c0.321-0.406,0.627-0.825,0.939-1.239c0.234,4.818,0.591,9.549,0.365,14.287c-0.279,0.39-0.556,0.769-0.831,1.113
	c-3.721,4.651-7.631,9.123-11.249,13.842c-7.794,10.167-16.019,20.198-23.947,30.326c-4.188,5.349-9.002,10.339-12.81,15.933
	c-3.812,5.6-7.825,10.798-12.085,16.015c-0.921,1.128-1.794,2.287-2.65,3.457h-0.064c-4.279,0-8.561,0.023-12.841,0.005
	c-0.333-0.028-0.668-0.048-1.003-0.069C295.949,301.815,297.377,300.069,298.87,298.372z M288.716,311.176
	c0.824-0.003,1.649,0.006,2.474-0.002c3.98-0.038,7.874,0.283,11.721,0.261c-1.335,1.829-2.718,3.628-4.236,5.343
	c-2.808,3.172-5.278,6.897-7.87,10.35c-2.393,3.189-5.521,8.305-9.805,8.305c-3.72,0-7.438,0.019-11.158,0.028
	c1.288-3.067,5.293-6.248,7.094-8.73c2.345-3.231,4.571-6.447,7.098-9.554C285.634,315.207,287.179,313.195,288.716,311.176z
	 M242.639,311.364c5.807-0.666,11.098,0.228,16.846,0.471c4.729,0.2,9.353-0.745,14.071-0.716c3.36,0.02,6.721,0.047,10.081,0.062
	c-2.033,2.552-4.069,5.102-6.093,7.675c-2.602,3.308-4.904,6.786-7.581,10.055c-1.286,1.569-3.194,3.399-4.076,5.375
	c-0.155,0.217-0.27,0.489-0.325,0.822l-0.03,0.174c-0.011,0.065-0.007,0.126-0.014,0.19c-6.342,0.021-12.683,0.067-19.024,0.125
	c-0.004-0.103-0.004-0.206-0.022-0.313l-0.03-0.174c-0.056-0.334-0.171-0.605-0.325-0.822c-0.883-1.975-2.791-3.806-4.076-5.375
	c-2.678-3.269-4.979-6.748-7.581-10.055c-1.96-2.492-3.931-4.961-5.9-7.432C233.195,311.757,238.052,311.889,242.639,311.364z
	 M219.586,310.795c1.194,0.07,2.388,0.146,3.585,0.23c1.574,2.07,3.157,4.133,4.798,6.151c2.527,3.107,4.753,6.323,7.097,9.554
	c1.836,2.53,5.963,5.785,7.168,8.904c-2.305,0.025-4.608,0.032-6.913,0.063c-2.824,0.038-5.591,0.473-7.759-0.849
	c-2.058-1.256-3.762-3.59-5.206-5.47c-3.149-4.098-5.592-8.721-9.028-12.602c-1.69-1.908-3.217-3.919-4.69-5.963
	C212.288,310.835,215.939,310.844,219.586,310.795z M108.85,320.442c-1.118-1.517-2.213-3.021-3.3-4.529
	c0.932-2.578,1.779-5.192,2.553-7.783c0.36,0.002,0.651,0.004,0.79,0.009c1.142,0.033,2.275,0.14,3.407,0.268
	c2.117,3.011,4.278,5.962,6.387,8.822c4.669,6.328,9.282,13.29,14.509,19.354c-3.997,0.093-7.999,0.163-11.971,0.068
	c-0.069-0.149-0.157-0.296-0.278-0.438C116.629,331.23,112.76,325.745,108.85,320.442z M116.781,336.466
	c-0.231-0.014-0.465-0.02-0.696-0.036c-6.512-0.442-12.947-0.73-19.445-0.759c1.869-2.938,3.044-6.676,4.504-9.494
	c1.091-2.105,2.086-4.316,3.005-6.585c1.531,2.032,3.13,4.021,4.594,6.094c1.843,2.611,3.955,5.029,5.928,7.54
	C115.353,334.096,116.015,335.346,116.781,336.466z M127.517,280.207c1.256,2.039,2.495,4.108,3.742,6.181
	c0.303,2.35,0.569,4.706,0.821,7.086c0.291,2.746,0.556,5.874,1.456,8.645c-1.024-0.011-2.049-0.007-3.073,0.027
	c-0.503,0.017-0.998,0.007-1.498,0.016c-3.272-4.481-6.234-9.209-9.192-13.893c-0.86-1.361-1.755-2.656-2.686-3.926
	c1.012-2.404,1.966-4.829,2.751-7.315c0.627-1.984,1.174-4.001,1.697-6.025C123.268,274.168,125.635,277.149,127.517,280.207z
	 M122.698,266.494c0.13-0.5,0.257-1.002,0.391-1.5c0.514-1.915,0.96-3.845,1.471-5.76c0.285-1.069,0.58-2.133,0.944-3.18
	c0.071-0.236,0.174-0.458,0.259-0.689c1.124,7.403,2.746,14.845,4.113,22.206c-0.435-0.686-0.862-1.379-1.302-2.061
	C126.633,272.502,124.713,269.453,122.698,266.494z M154.268,290.175c-0.879-3.248-1.348-6.429-2.087-9.811
	c-1.474-6.748-3.319-13.49-4.933-20.274c5.732,7.766,10.805,16.085,17.265,23.268c5.669,6.304,10.223,13.461,15.253,20.263
	c-5.041-0.006-10.081-0.014-15.122-0.006c-0.664,0.001-1.322-0.002-1.983-0.003C159.829,299.152,157.071,294.654,154.268,290.175z
	 M158.008,303.573c-0.423-0.007-0.849-0.007-1.272-0.017c-0.046-0.755-0.099-1.52-0.162-2.29
	C157.048,302.038,157.529,302.805,158.008,303.573z M168.62,282.447c-7.146-8.368-12.967-17.648-19.799-26.228
	c-1.113-1.396-2.207-2.808-3.305-4.216c-1.239-6.488-2.28-13.041-4.062-19.379c-0.328-1.166-0.586-2.327-0.798-3.485
	c3.54,4.393,7.459,8.659,10.548,13.372c7.044,10.746,16.222,20.42,24.018,30.715c4.157,5.49,8.779,10.386,12.598,16.138
	c3.322,5.003,7.408,9.416,10.834,14.276c-4.618-0.003-9.235-0.009-13.852-0.016C179.677,296.323,174.368,289.179,168.62,282.447z
	 M146.611,289.728c1.115,4.66,2.664,8.658,2.976,13.511c-0.823-0.061-1.643-0.108-2.469-0.19c-0.247-0.025-0.495-0.048-0.742-0.072
	c-1.302-1.989-2.621-3.97-3.995-5.916c-1.853-2.626-3.607-5.335-5.338-8.065c-0.23-2.374-0.462-4.749-0.88-7.09
	c-0.808-4.514-1.755-9.013-2.606-13.52c-0.359-1.901-0.75-3.797-1.148-5.691c4.277,6.717,8.534,13.459,12.776,20.184
	C145.65,285.149,146.062,287.434,146.611,289.728z M141.845,302.56c-0.491-0.042-0.983-0.088-1.474-0.126
	c-0.626-0.395-1.113-1.105-1.457-2.137c-0.262-0.86-0.488-1.73-0.677-2.611c-0.022-0.102-0.038-0.206-0.06-0.308
	c0.812,1.196,1.637,2.38,2.493,3.535C141.071,301.454,141.458,302.007,141.845,302.56z M117.412,290.632
	c2.396,3.886,4.807,7.725,7.315,11.517c-3.637-0.083-7.242-0.301-10.916-0.488c-0.474-0.025-0.956-0.032-1.437-0.037
	c-0.514-0.728-1.029-1.528-1.554-2.362c1.383-3.877,3.093-7.636,4.757-11.411C116.208,288.765,116.83,289.687,117.412,290.632z
	 M120.624,313.591c-1.024-1.516-2.035-3.034-3.051-4.547c3.935,0.399,7.947,0.233,11.918,0.131
	c6.09,9.086,11.507,18.885,18.68,27.203c-1.127,0-2.253,0.002-3.38,0.002c-2.135,0-4.284,0.035-6.439,0.081
	C132.746,328.639,126.023,321.583,120.624,313.591z M141.911,321.339c-2.958-3.913-5.442-8.112-8.092-12.207
	c4.3,0.079,8.704,0.633,13.004,1.131c1.696,2.758,3.377,5.527,5.181,8.2c4.081,6.045,8.277,11.972,12.534,17.906
	c-1.275,0-2.551-0.001-3.824,0.002c-2.445,0.005-4.891,0.003-7.336,0.004c-1.425-2.036-3.196-3.849-4.743-5.789
	C146.259,327.605,144.211,324.381,141.911,321.339z M162.068,326.496c-2.18-3.038-4.021-6.316-6.21-9.324
	c-1.54-2.116-3.004-4.28-4.442-6.46c3.722,0.252,7.503,0.155,11.256,0.084c0.878,1.306,1.768,2.604,2.684,3.886
	c3.067,4.288,5.805,8.819,8.876,13.102c1.994,2.781,4.509,5.527,6.587,8.435c-0.922,0.029-1.843,0.065-2.764,0.116
	c-3.041,0.02-6.085,0.039-9.123,0.037C167.131,332.832,164.36,329.689,162.068,326.496z M178.568,327.171
	c-3.166-4.239-5.965-8.732-8.987-13.079c-0.771-1.11-1.531-2.225-2.281-3.345c5.955-0.001,11.908,0.01,17.863,0.021
	c5.891,8.052,11.172,16.586,16.765,24.819c-0.547,0.043-1.099,0.083-1.662,0.119c-3.249,0.205-6.516,0.329-9.789,0.426
	c-1.742,0.001-3.48-0.002-5.216,0.007C183.35,332.969,180.726,330.06,178.568,327.171z M189.742,310.775
	c4.621,0.01,9.243,0.019,13.864,0.021h0.039c2.151,3.01,4.376,5.949,6.86,8.804c4.133,4.748,7.483,11.129,11.907,15.823
	c-2.765-0.122-5.538-0.159-8.301-0.342c-2.729-0.181-5.222-0.059-7.723,0.135C200.748,327.199,195.308,318.941,189.742,310.775z
	 M140.333,208.673c0.311,0.414,0.618,0.833,0.939,1.239c5.204,6.588,10.827,12.801,15.54,19.765
	c4.506,6.658,10.03,12.85,14.897,19.284c3.8,5.023,7.936,9.643,11.902,14.51c9.591,11.768,19.465,23.471,29.521,34.9
	c1.513,1.719,2.957,3.488,4.373,5.279c-4.633,0.029-9.267-0.004-13.898-0.004h-0.064c-0.856-1.17-1.729-2.329-2.65-3.457
	c-4.26-5.217-8.272-10.416-12.085-16.015c-3.809-5.594-8.622-10.583-12.81-15.933c-7.929-10.129-16.153-20.159-23.947-30.326
	c-3.618-4.719-7.528-9.191-11.249-13.842c-0.275-0.344-0.553-0.722-0.831-1.113C139.742,218.222,140.099,213.492,140.333,208.673z
	 M102.335,281.043c2.12-7.459,5.311-14.551,7.955-21.852c2.865-7.911,5.601-16.174,8.947-23.894
	c2.77-6.392,5.783-13.377,4.764-20.467c-1.146-7.975-1.378-15.591-1.386-23.634c-0.003-3.857-0.081-7.713-0.041-11.57
	c0.035-3.377-0.773-6.544-0.829-9.904c-0.144-8.501-1.11-16.835-0.909-25.338c0.18-7.64-0.987-15.353-2.099-22.927
	c0.159-2.778,0.508-5.589,1.511-7.837c1.857-4.168,9.415-0.73,10.89,2.142c1.996,3.886,1.098,8.65,1.522,12.801
	c2.185,21.392,1.004,43.203,0.944,64.707c0,0.061,0,0.123,0,0.183c-1.303-1.256-2.692-2.31-4.206-3.012
	c-0.743-0.344-1.457,0.352-1.101,1.101c0.034,0.07,0.067,0.141,0.1,0.212c0.022,0.047,0.057,0.083,0.087,0.12
	c1.433,2.604,3.335,4.973,5.127,7.368c0.005,3.147-0.012,6.294-0.172,9.433c-0.085,1.665-0.213,3.332-0.337,4.999
	c-1.151-1.102-2.402-1.977-3.792-2.425c-0.987-0.318-1.918,1.128-1.057,1.816c1.683,1.346,3.178,3.055,4.577,4.911
	c-0.112,2.362-0.136,4.726,0.077,7.088c0.394,4.369,2.055,8.416,2.97,12.676c0.166,0.774,0.324,1.547,0.487,2.32
	c-0.948-1.31-1.894-2.623-2.898-3.903c-1.24-1.578-3.359-3.204-4.279-4.965c-0.357-0.683-1.437-0.21-1.233,0.52
	c1.245,4.452,4.658,8.611,7.257,12.356c0.925,1.332,1.878,2.662,2.843,3.986c0.308,1.455,0.61,2.91,0.935,4.364
	c1.415,6.342,2.32,12.84,3.597,19.211c-2.106-3.347-4.212-6.695-6.333-10.035c-1.884-2.966-3.852-5.973-5.926-8.91
	c-0.369-1.765-0.846-3.259-2.711-4.106c-0.156-0.07-0.306-0.127-0.456-0.181c-1.642-2.121-3.35-4.172-5.15-6.09
	c-0.21-0.224-0.532-0.285-0.821-0.216c-0.099,0.022-0.197,0.047-0.295,0.069c-0.479,0.113-0.697,0.815-0.303,1.148
	c0.208,0.176,1.085,2.491,1.361,2.917c0.529,0.814,1.039,1.638,1.548,2.461c-3.176,2.004-4.421,8.494-5.17,11.424
	c-0.006,0.025-0.013,0.048-0.019,0.072c-1.014-1.298-2.142-2.462-3.453-3.115c-0.911-0.453-1.946,0.704-1.135,1.471
	c1.394,1.321,2.637,3.023,3.752,4.828c-1.383,5.217-2.863,10.324-4.645,15.366c-1.143-1.59-2.337-3.165-3.953-4.178
	c-0.512-0.321-1.299,0.22-1.073,0.825c0.03,0.079,0.059,0.157,0.087,0.236c0.025,0.066,0.061,0.126,0.104,0.179
	c0.972,2.235,2.224,4.312,3.583,6.33c-0.593,1.544-1.207,3.084-1.872,4.619c-0.985,2.276-1.897,4.578-2.778,6.893
	c-0.996-1.163-2.081-2.157-3.299-2.806c-0.948-0.504-1.955,0.505-1.453,1.453c0.988,1.865,2.063,3.723,3.182,5.573
	c-1.425,3.916-2.799,7.851-4.268,11.749c-0.878-1.29-1.954-2.79-3.265-3.388c-1.169-0.534-2.345,0.807-1.408,1.825
	c1.34,1.456,2.377,3.174,3.379,4.907c-0.108,0.272-0.211,0.547-0.32,0.819c-1.549,3.843-2.888,7.575-4.981,11.16
	c-0.923,1.581-1.726,3.15-2.459,4.827c-1.373,3.139-1.876,4.492-5.643,4.191c-1.529-0.119-3.695,0.237-4.343-1.538
	c-0.526-1.44,1.199-3.925,1.605-5.361c0.571-2.022,1.16-4.038,1.757-6.052c1.81-6.106,5.877-12.163,8.705-18.12
	C97.364,296.05,100.266,288.317,102.335,281.043z M75.361,334.996c-4.147-0.338-8.568,0.547-12.679,1.035
	c-1.491,0.177-2.986,0.303-4.481,0.404c3.868-3.899,8.375-7.242,12.744-10.486c2.322-1.724,4.35-3.762,6.539-5.652
	c0.47-0.406,1.008-0.924,1.583-1.489c-1.47,4.166-2.631,8.426-3.572,12.907C75.236,332.949,75.211,334.038,75.361,334.996z
	 M77.854,316.212c-3.193,2.259-6.009,4.964-9.194,7.234c-5.39,3.841-10.948,8.015-15.309,13.068
	c-0.043,0.049-0.07,0.101-0.107,0.151c-3.233,0.092-6.473,0.084-9.713,0.079c1.72-2.072,4.444-3.613,6.323-5.358
	c2.104-1.954,4.173-3.912,6.336-5.814c4.86-4.271,9.74-8.319,14.769-12.409c2.476-2.014,4.852-4.125,7.237-6.23
	c1.999,0.199,4.02,0.45,5.957,0.311c-0.471,0.871-0.934,1.746-1.367,2.636c-0.659,1.354-1.261,2.71-1.837,4.07
	C79.867,314.664,78.84,315.514,77.854,316.212z M84.814,301.296c0.014-0.011,0.027-0.022,0.041-0.033
	c1.341-1.072,2.829-2.278,4.266-3.59c-0.134,0.318-0.265,0.636-0.407,0.951c-0.556,1.237-1.18,2.438-1.821,3.63
	c-0.309-0.318-0.691-0.57-1.146-0.713C85.447,301.444,85.122,301.38,84.814,301.296z M84.056,286.435
	c4.565-3.625,9.139-7.281,13.329-11.302c-1.183,3.416-2.379,6.824-3.718,10.189c-0.856,2.151-1.598,4.356-2.361,6.55
	c-3.841,2.539-7.441,5.463-10.956,8.512c-4.645-0.607-9.724-0.405-14.256,0.382C72.097,296.004,78.055,291.202,84.056,286.435z
	 M39.384,321.699c0.958-0.875,1.941-1.728,2.937-2.569c1.334-0.646,2.665-1.294,3.983-1.953c3.451-1.723,6.655-4.025,10.169-5.511
	c2.88-1.217,5.871-3.656,8.885-4.283c2.506-0.52,5.216-0.65,7.831-0.662c-2.716,2.406-5.451,4.771-8.285,6.966
	c-4.772,3.697-9.124,7.768-13.648,11.757c-2.34,2.063-4.524,4.228-6.928,6.219c-1.904,1.578-3.726,2.792-4.585,5.09
	c-2.556,0.007-5.111,0.032-7.665,0.135c-3.087,0.126-6.304-0.63-9.371-0.44c0.989-0.873,2.148-1.692,2.986-2.553
	c1.538-1.582,3.055-3.131,4.761-4.524C33.484,326.892,36.473,324.357,39.384,321.699z M14.719,334.269
	c3.323-2.564,7.538-4.446,11.151-6.624c1.18-0.711,2.385-1.39,3.598-2.055c-0.949,0.794-1.89,1.598-2.807,2.438
	c-1.567,1.437-2.901,3.115-4.466,4.539c-1.41,1.283-2.836,1.829-3.848,3.452c-0.068,0.11-0.119,0.219-0.163,0.325
	c-0.211,0-0.424,0.001-0.633,0c-1.701-0.012-3.456-0.164-5.213-0.36C13.315,335.28,14.222,334.652,14.719,334.269z M102.434,390.665
	c0.849,0.891,0.139,4.543,0.006,5.627c-0.32,2.638-0.014,1.888-2.068,2.432c-1.297,0.344-3.295-0.054-4.621-0.062
	c-4.268-0.025-8.42,0.227-12.634,0.1c-3.458-0.104-6.804-0.048-10.298-0.108c-2.003-0.034-4.02,0.157-6.023,0.042
	c-0.957-0.088-1.91-0.208-2.863-0.333c-0.012-0.185-0.037-0.409-0.085-0.696c-0.115-1.109-0.688-5.087-0.147-5.999
	c-0.152,0.257,3.5-0.76,3.662-0.792c2.369-0.459,4.78-0.576,7.17-0.873c-0.015,0.002,0.376-0.074,0.949-0.18
	c3.235,0.748,7.493,0.132,9.952,0.196c0.334,0.009,0.655,0.009,0.98,0.011c3.629,0.558,7.425,0.504,11.036,0.591
	C97.752,390.627,102.15,390.366,102.434,390.665z M77.424,377.569c-0.43-2.852-0.093-5.39-0.689-7.958
	c1.522-0.001,3.044-0.002,4.566-0.015c3.765-0.031,7.383-0.217,11.117,0.366c0.254,0.039,0.499,0.063,0.747,0.09
	c-0.025,2.273,0.504,4.488,0.532,6.768c0.016,1.305,0.251,5.909-1.018,6.855c-0.375,0.28-3.356-0.094-4.12-0.002
	c-2.526,0.306-5.085,0.135-7.644,0.179c-1.294,0.022-2.61,0.011-3.899,0.087c-0.153,0.01-0.271,0.02-0.366,0.031
	c0.223-0.084,0.512-0.264,0.646-0.617C77.909,381.732,77.673,379.228,77.424,377.569z M437.935,377.058
	c0.026,1.842,0.337,2.799-0.861,3.614c-1.31,0.181-2.621,0.445-3.912,0.768c-0.657-0.022-1.307-0.057-1.915-0.019
	c-1.781,0.111-3.613,1.003-5.411,0.698c-2.199-0.373-1.647-2.015-1.667-4.048c-0.023-2.353,0.486-5.787-0.116-8.496
	c2.202-0.068,4.4,0.003,6.651,0.021c2.597,0.021,5.193,0.021,7.792,0.013C437.868,371.995,437.908,375.021,437.935,377.058z
	 M446.854,387.075c0.811,1.192-0.439,4.267-0.566,5.663c-0.222,2.447-0.096,2.599-2.739,2.967c-3.299,0.459-7.035,0.721-10.35,0.835
	c-4.069,0.14-8.082-0.594-12.141-0.656c-2.718-0.042-5.68,0.311-8.358-0.221c-2.506-0.498-1.59,0.064-2.325-2.18
	c-1.138-3.478,0.271-3.595,3.141-4.298c2.568-0.63,5.121-0.543,7.708-0.83c0.69-0.077,1.382-0.201,2.071-0.353
	c2.63,0.511,5.787-0.143,8.396-0.376c2.725-0.243,5.981-0.335,8.46-1.561C442.941,385.818,445.967,385.771,446.854,387.075z
	 M486.843,362.711c0.026-0.02-2.945-0.447-3.39-0.462c-4.344-0.151-8.535,0.783-12.912,0.673c-4.598-0.117-9.004,0.808-13.577,0.793
	c-9.912-0.032-19.831,0.042-29.738-0.193c-4.632-0.11-9.345,1.099-13.914,0.537c-4.014-0.495-7.332,0.171-11.32,0.213
	c-4.514,0.048-8.956-0.745-13.469-0.798c-5.155-0.061-10.313-0.046-15.47-0.065c-10.318-0.038-20.731,0.384-30.972-0.781
	c-3.812-0.434-7.666,0.192-11.484-0.123c-3.923-0.322-7.802-1.291-11.737-1.554c-5.168-0.345-10.419,0.559-15.575-0.047
	c-2.788-0.327-4.753-0.57-7.065,0.015c-2.015-0.046-4.029-0.097-6.044-0.112c-5.518-0.042-11.037,0-16.554,0
	c-5.234,0-10.393-0.583-15.599-0.63c-4.957-0.045-9.836,0.775-14.81,0.833c-10.237,0.118-20.452-0.136-30.732-0.158
	c-6.385-0.014-12.961-0.327-19.34,0.099c-3.936,0.263-7.815,1.232-11.736,1.554c-3.817,0.314-7.672-0.311-11.484,0.123
	c-10.242,1.165-20.655,0.744-30.972,0.781c-5.156,0.019-10.313,0.004-15.47,0.065c-4.512,0.053-8.954,0.845-13.469,0.798
	c-3.989-0.043-7.305-0.707-11.32-0.213c-4.569,0.562-9.283-0.647-13.913-0.537c-9.907,0.234-19.826,0.161-29.738,0.193
	c-4.572,0.015-8.98-0.91-13.577-0.793c-4.376,0.111-8.567-0.824-12.911-0.673c-0.445,0.016-3.415,0.441-3.39,0.462
	c-0.847-0.68-0.263-3.413-0.344-4.337c-0.109-1.248-0.262-2.303-0.651-3.235c2.133-0.046,4.266-0.094,6.399-0.128
	c4.323-0.069,8.564,1.182,12.849,0.679c8.587-1.006,17.395-0.479,26.049-0.431c17.22,0.096,34.36,1.54,51.584,1.535
	c8.343-0.003,16.503-0.392,24.81-0.825c8.383-0.437,16.752,0.817,25.141,0.81c8.73-0.006,17.501,0.002,26.167-1.161
	c4.493-0.603,8.786-0.36,13.297-0.357c2.019,0.002,4.012-0.108,6-0.183c0.625,0.044,1.25,0.08,1.876,0.101
	c4.943,0.172,10.017-0.191,14.939,0.273c8.61,0.811,16.85-0.337,25.47-0.962c14.283-1.036,28.557,0.781,42.794,0.77
	c4.511-0.003,8.804-0.246,13.297,0.357c8.665,1.163,17.436,1.154,26.167,1.161c8.389,0.006,16.758-1.247,25.142-0.81
	c8.307,0.433,16.466,0.822,24.81,0.825c17.224,0.005,34.364-1.44,51.584-1.535c8.655-0.048,17.463-0.576,26.049,0.431
	c4.286,0.502,8.527-0.748,12.849-0.679c2.133,0.034,4.266,0.082,6.399,0.128c-0.389,0.933-0.543,1.987-0.651,3.235
	C487.106,359.298,487.689,362.032,486.843,362.711z M503.863,348.439c-2.133,0.795-5.229,0.483-7.478,0.496
	c-4.648,0.029-9.305-0.147-13.952-0.231c-4.441-0.081-9.054,1.076-13.406,0.678c-8.123-0.743-16.259-0.66-24.436-0.73
	c-7.647-0.066-15.248-0.297-22.847,0.508c-4.145,0.44-8.33,0.085-12.49,0.133c-4.214,0.048-8.397,0.609-12.607,0.716
	c-7.506,0.192-15.228,0.404-22.725-0.028c-7.313-0.421-14.388-1.237-21.714-0.224c-7.875,1.088-17.148,0.883-25.101,0.201
	c-7.095-0.608-14.223-1.787-21.356-1.533c-2.523,0.09-5.124,0.04-7.712,0.117c-0.85-0.142-1.7-0.296-2.552-0.485
	c-3.739-0.828-7.437-0.727-11.256-0.769c-8.721-0.096-17.685-0.216-26.367,0.539c-4.835,0.421-9.703,0.722-14.53,1.212
	c-4.134,0.42-7.888-0.182-12.016-0.213c-3.923-0.03-7.887,0.04-11.823,0.182c-4.33-0.69-8.903-0.43-13.244-0.584
	c-7.133-0.255-14.261,0.925-21.357,1.533c-7.952,0.681-17.226,0.886-25.101-0.201c-7.327-1.013-14.401-0.197-21.714,0.224
	c-7.497,0.432-15.219,0.22-22.725,0.028c-4.211-0.108-8.393-0.668-12.607-0.716c-4.161-0.047-8.347,0.307-12.49-0.133
	c-7.599-0.806-15.2-0.575-22.847-0.508c-8.176,0.07-16.312-0.013-24.436,0.73c-4.351,0.398-8.966-0.759-13.406-0.678
	c-4.647,0.084-9.304,0.26-13.952,0.231c-2.249-0.014-5.346,0.3-7.478-0.496c-2.207-0.823-1.283-1.032-1.493-3.33
	c-0.133-1.459-0.438-2.998-0.777-4.513c0.09,0.016,0.173,0.047,0.265,0.057c4.638,0.459,9.011,0.779,13.7,0.443
	c0.285-0.02,0.571-0.03,0.857-0.036c3.83,0.618,7.444,1.092,11.385,1.016c9.511-0.18,19.351,1.153,28.808,0.139
	c4.953-0.532,10.463-1.673,15.421-1.056c4.589,0.57,8.835,0.765,13.474,0.666c8.859-0.19,17.508,0.277,26.305,0.804
	c9.488,0.568,19.193-0.043,28.707-0.043c5.264,0,10.56,0.167,15.82-0.007c1.23-0.04,2.422-0.197,3.603-0.388
	c1.032-0.029,2.051-0.155,2.927-0.26c4.514-0.544,9.089-0.751,13.673-0.817c3.653-0.027,7.172,0.152,10.777-0.007
	c4.482-0.2,9.032,0.037,13.519,0.066c9.009,0.058,18.017,0.15,27.025,0.312c15.932,0.287,31.869,0.321,47.802,0.32
	c7.133,0,14.096-0.496,21.194-0.807c0.679-0.03,1.357-0.058,2.034-0.088c7.746,0.057,15.497,0.122,23.256,0.176
	c0.064,0.025,0.128,0.054,0.194,0.068c0.085,0.018,0.169,0.035,0.254,0.053c0.452,0.096,0.851,0.039,1.185-0.112
	c3.941,0.026,7.881,0.062,11.821,0.069c4.022,0.009,7.575,1.282,11.516,1.413c5.261,0.175,10.556,0.007,15.82,0.007
	c9.514,0,19.219,0.611,28.707,0.043c8.798-0.528,17.446-0.993,26.305-0.804c4.64,0.099,8.885-0.096,13.474-0.666
	c4.958-0.615,10.467,0.524,15.421,1.056c9.457,1.016,19.298-0.319,28.808-0.139c3.941,0.075,7.555-0.398,11.385-1.016
	c0.287,0.006,0.572,0.016,0.857,0.036c4.689,0.336,9.062,0.017,13.7-0.443c0.093-0.01,0.176-0.04,0.265-0.057
	c-0.339,1.516-0.644,3.054-0.777,4.513C505.147,347.406,506.07,347.615,503.863,348.439z"/>
<g>
</g>
<g>
</g>
<g>
</g>
<g>
</g>
<g>
</g>
<g>
</g>
<g>
</g>
<g>
</g>
<g>
</g>
<g>
</g>
<g>
</g>
<g>
</g>
<g>
</g>
<g>
</g>
<g>
</g>
</svg>
