<?xml version="1.0" encoding="iso-8859-1"?>
<!-- Generator: Adobe Illustrator 19.0.0, SVG Export Plug-In . SVG Version: 6.00 Build 0)  -->
<svg version="1.1" id="Layer_1" xmlns="http://www.w3.org/2000/svg" xmlns:xlink="http://www.w3.org/1999/xlink" x="0px" y="0px"
	 viewBox="0 0 512.001 512.001" style="enable-background:new 0 0 512.001 512.001;" xml:space="preserve">
<path style="fill:#E8956B;" d="M510.035,414.372c-15.604,3.484-28.262,1.926-39.392-5.628c-14.436-9.8-30.162-11.712-47.078-11.656
	c-46.001,0.154-92.018-0.017-138.004-1.108c-48.851-1.16-97.634,2.071-146.468,1.147c-17.964-0.34-35.957,0.559-53.908-0.01
	c-14.095-0.447-26.979,2.045-38.871,9.874c-11.79,7.761-24.687,11.013-40.34,7.939c0.227-3.406-0.328-6.935,0.771-9.836
	c17.587-46.435,30.664-94.182,42.529-142.338c4.632-18.795,11.498-37.03,16.659-55.71c8.796-31.841,17.085-63.822,25.517-95.763
	c3.686-13.96,7.377-17.494,20.728-15.484c8.017,1.207,15.642,0.526,23.497,0.05c10.752-0.653,21.555-1.134,32.316-0.879
	c56.772,1.34,113.53,1.742,170.31,0.131c15.759-0.448,31.569,1.073,47.36,1.535c4.244,0.125,8.523-0.142,12.756-0.541
	c17.467-1.649,20.113,0.145,24.33,16.35c7.776,29.881,14.513,60.091,23.73,89.523c13.106,41.852,23.247,84.466,35.154,126.612
	c6.826,24.159,15.585,47.771,23.495,71.622C506.458,404.21,507.89,408.188,510.035,414.372z"/>
<g>
	<path style="fill:#A56346;" d="M111.1,107.145c-3.722,8.357-6.201,17.311-8.807,26.138c-6.561,22.235-11.724,44.749-18.913,66.863
		c-3.104,9.548-6.515,18.63-7.507,28.585c-1.084,10.878-4.543,22.036-7.064,32.659c-1.871,7.884-4.171,15.373-5.38,23.478
		c-0.875,5.866-2.116,11.275-3.816,16.945c-1.919,6.402-4.028,12.837-6.113,19.167c-3.975,12.069-6.732,24.841-9.837,37.235
		c-2.301,9.179-3.51,18.571-6.985,27.428c-1.687,4.298-2.721,8.763-4.312,13.161c-0.395,1.091-3.873,13.975-3.549,13.911
		c8.869-1.737,16.669-9.238,24.7-13.247c6.368-3.18,7.968-2.027,8.343-9.893c0.643-13.481-8.219-44.873,15.389-40.864
		c2.122-7.103,2.906-15.725,2.583-23.247c-0.217-5.047-5.434-30.47,7.843-24.916c0.145-2.618,0.172-5.306,0.357-7.84
		c-7.976-0.554-10.577-0.437-10.021-9.098c0.608-9.454-0.072-18.894,0.361-28.348c0.242-5.263,1.21-9.056,5.123-12.548
		c3.034-2.708,1.465-4.527,1.349-8.279c-0.122-3.983,0.484-7.977,1.101-11.889c0.606-3.846,2.688-7.006,5.118-9.956
		c2.259-2.743,6.429-3.77,7.743-7.288c1.746-4.678,0.052-8.697,0.43-13.222c0.416-4.963,4.608-5.337,6.92-8.971
		c1.709-2.687,2.063-5.97,2.33-9.038c0.489-5.647-0.742-11.332,0.594-16.915c1.785-7.458,2.543-14.813,3.128-22.528
		c0.479-6.324,2.284-12.527,2.487-18.737c0.122-3.715,1.218-10.05-1.053-13.305C112.629,102.7,111.629,103.558,111.1,107.145z"/>
	<path style="fill:#A56346;" d="M400.178,107.145c3.722,8.357,6.201,17.311,8.806,26.138c6.561,22.235,11.724,44.749,18.913,66.863
		c3.104,9.548,6.515,18.63,7.507,28.585c1.084,10.878,4.543,22.036,7.064,32.659c1.87,7.884,4.171,15.373,5.379,23.478
		c0.875,5.866,2.116,11.275,3.816,16.945c1.919,6.402,4.028,12.837,6.113,19.167c3.975,12.069,6.732,24.841,9.837,37.235
		c2.301,9.179,3.51,18.571,6.985,27.428c1.687,4.298,2.721,8.763,4.311,13.161c0.395,1.091,3.873,13.975,3.549,13.911
		c-8.869-1.737-16.669-9.238-24.7-13.247c-6.368-3.18-7.968-2.027-8.343-9.893c-0.643-13.481,8.219-44.873-15.389-40.864
		c-2.122-7.103-2.906-15.725-2.583-23.247c0.217-5.047,5.435-30.47-7.842-24.916c-0.145-2.618-0.172-5.306-0.357-7.84
		c7.976-0.554,10.577-0.437,10.021-9.098c-0.608-9.454,0.072-18.894-0.361-28.348c-0.242-5.263-1.21-9.056-5.122-12.548
		c-3.034-2.708-1.465-4.527-1.349-8.279c0.122-3.983-0.484-7.977-1.101-11.889c-0.606-3.846-2.688-7.006-5.118-9.956
		c-2.259-2.743-6.429-3.77-7.743-7.288c-1.746-4.678-0.051-8.697-0.43-13.222c-0.416-4.963-4.608-5.337-6.92-8.971
		c-1.709-2.687-2.063-5.97-2.33-9.038c-0.489-5.647,0.742-11.332-0.594-16.915c-1.785-7.458-2.543-14.813-3.128-22.528
		c-0.479-6.324-2.284-12.527-2.487-18.737c-0.122-3.715-1.218-10.05,1.053-13.305C398.649,102.7,399.648,103.558,400.178,107.145z"
		/>
</g>
<path style="fill:#C67754;" d="M153.724,97.214c-2.329,0.043-4.655,0.122-6.981,0.248c-3.192,0.174-6.772,1.029-9.939,0.494
	c-2.309-0.39-4.232-1.281-6.649-1.325c-3.043-0.054-6.164,0.304-9.019,1.401c-1.467,0.564-2.857,1.32-4.103,2.281
	c1.172,1.789-0.047,7.941-0.285,9.896c-0.676,5.551-1.317,11.111-1.985,16.665c-0.581,4.832-1.216,9.576-0.98,14.395
	c0.272,5.568-1.349,11.26-2.102,16.742c-0.759,5.532-1.539,11.188-1.882,16.76c-0.172,2.794-1.317,6.03,1.479,7.656
	c1.952,1.137,4.298,1.709,6.349,2.7c4.134,2,4.012,6.693,3.221,10.559c-0.98,4.799,0.002,9.195,3.99,12.381
	c2.908,2.322,5.883,4.511,7.615,7.933c3.554,7.022,1.369,14.292,2.221,21.667c0.368,3.174,3.782,4.863,5.375,7.297
	c1.778,2.716,2.549,6.117,2.93,9.299c0.668,5.586,0.621,11.52,0.661,17.142c0.033,4.865-0.111,9.679-0.451,14.522
	c-0.194,2.765-0.726,6.694-3.613,8.018c-1.737,0.797-4.359-0.693-5.746,0.619c-1.02,0.964-0.333,2.962,0.28,4.103
	c1.568,2.916,5.801,1.268,7.058,4.912c1.389,4.028,0.727,8.39,0.894,12.539c0.234,5.802,0.178,11.641,0.139,17.455
	c-0.024,3.634-1.46,9.824,0.173,13.265c1.451,3.058,6.969,2.444,9.809,2.33c1.01-0.041,2.426,0.152,2.979-0.791
	c0.306-0.521-0.198-2.39-0.205-2.982c-0.017-1.655,0.184-3.291,0.192-4.949c0.017-3.599,0.154-7.25-0.135-10.838
	c-0.21-2.606-0.78-5.204-0.732-7.814c0.088-4.934,0.335-10.13,1.761-14.875c0.407-1.352,0.785-2.518,1.605-3.626
	c1.294-1.75,2.278-1.733,4.017-2.368c3.21-1.171,3.76-6.601,0.233-7.352c-1.726-0.368-4.003,0.248-5.333-1.27
	c-1.532-1.749-1.77-5.926-1.784-8.054c-0.049-7.365-0.488-14.728-0.293-22.094c0.171-6.547,0.234-13.073,4.471-18.434
	c2.537-3.208,2.794-6.166,3.193-10.111c0.435-4.304,0.887-8.639,1.619-12.903c0.461-2.679,1.591-7.441,3.811-9.346
	c1.981-1.702,4.829-2.198,6.789-4.211c2.071-2.126,1.76-5.137,1.637-8.061c-0.139-3.314-0.702-8.062,0.724-11.185
	c2.426-5.312,7.65-4.374,12.449-3.828c2.76,0.314,4.924,0.053,7.04,2.249c1.844,1.914,2.721,4.674,3.018,7.263
	c0.34,2.967-0.148,5.907-0.662,8.818c-0.242,1.368-0.373,1.873,0.427,3.009c1.852,2.625,5.581,3.631,7.696,6.126
	c3.13,3.692,4.131,8.189,4.694,12.958c0.552,4.675-1.375,10.975,1.37,14.877c1.33,1.89,3.058,3.747,4.232,5.73
	c0.978,1.654,1.155,3.401,1.768,5.164c0.431,1.239,1.203,2.198,1.567,3.51c0.742,2.674,0.239,5.593,0.251,8.322
	c0.023,5.124-0.138,10.201,0.14,15.301c0.271,4.986,0.417,13.126-4.694,15.807c-2.152,1.128-8.398,0.935-5.336,5.51
	c0.908,1.357,2.563,1.4,3.949,2.177c2.035,1.141,2.547,2.277,3.155,4.633c1.548,5.994,0.804,12.216,0.81,18.323
	c0.004,4.325,0,8.65,0,12.975c0,2.653-0.723,6.615,0.531,9.012c1.056,2.018,3.892,2.986,5.946,2.931
	c1.335-0.037,2.553-0.184,3.241-1.202c0.506-0.749,0.162-2.688,0.188-3.457c0.067-2.061,0.171-4.1,0.163-6.164
	c-0.024-5.759-0.47-12.273,0.486-17.989c0.77-4.598,3.572-8.988,8.799-8.252c4.687,0.66,9.464,1.128,14.195,0.705
	c1.857-0.166,3.205-0.771,4.923-1.277c2.173-0.64,4.748-0.305,6.978-0.125c3.781,0.305,7.306-0.132,11.004,0.902
	c4.435,1.24,7.682,3.718,8.399,8.437c0.691,4.553,0.317,9.565-0.039,14.136c-0.28,3.597-1.048,8.58,0.891,11.861
	c1.153,1.95,4.095,3.432,6.407,2.603c1.972-0.708,1.442-2.368,1.61-4.35c0.688-8.106,0.705-16.309,0.705-24.472
	c0-5.097-0.582-11.902,2.117-16.49c1.308-2.223,2.424-2.568,4.714-3.213c1.964-0.552,4.106-2.995,2.594-5.237
	c-1.291-1.915-4.626-1.096-6.539-2.179c-4.175-2.365-3.362-8.982-3.206-13.03c0.284-7.396-0.525-14.721-0.408-22.083
	c0.049-3.029,0.022-6.771,1.275-9.59c1.046-2.355,3.604-3.278,5.252-5.102c1.905-2.108,1.498-5.538,1.562-8.16
	c0.142-5.867-0.209-12.211,0.949-18.043c0.699-3.519,3.115-5.466,6.21-6.841c2.322-1.031,4.597-1.788,5.48-4.301
	c1.818-5.179,0.323-11.153,1.677-16.446c1.339-5.233,8.269-6.621,12.793-6.574c7.739,0.078,8.823,7.394,8.842,13.684
	c0.008,2.659-1.106,5.865-0.483,8.472c0.556,2.329,2.857,3.548,4.878,4.547c2.412,1.193,4.283,2.04,5.699,4.538
	c1.622,2.865,2.132,6.471,2.51,9.688c0.805,6.865,0.826,12.602,3.813,18.98c1.719,3.672,2.879,6.824,3.726,10.823
	c2.173,10.264,2.177,21.286,0.769,31.668c-0.275,2.025-0.396,6.894-2.742,7.96c-2.014,0.916-4.881-1.285-6.785,0.741
	c-1.112,1.184-0.177,4.649,0.858,5.981c1.187,1.527,3.125,1.064,4.718,2.1c2.495,1.622,2.961,5.652,3.176,8.36
	c0.419,5.248,0.375,10.556,0.375,15.825c0,5.891-0.175,11.756-0.18,17.643c-0.001,1.462-0.399,3.078,0.935,4.041
	c1.201,0.865,3.622,0.813,4.96,0.705c1.884-0.152,4.111,0.065,5.924-0.484c2.514-0.763,1.862-2.245,1.844-4.579
	c-0.045-5.865-0.759-11.648-1.038-17.491c-0.271-5.684-0.167-11.804,0.675-17.437c0.426-2.852,1.027-5.376,3.599-7.085
	c1.032-0.686,2.744-0.781,3.608-1.734c0.767-0.846,1.423-3.517,0.898-4.576c-0.563-1.137-2.416-1.263-3.487-1.629
	c-2.131-0.727-3.971-1.497-5.113-3.565c-1.575-2.849-1.302-6.9-1.3-10.029c0.003-5.176-0.186-10.388,0.041-15.56
	c0.218-4.994,0.464-9.88,1.934-14.699c0.882-2.89,2.012-5.728,3.382-8.421c1.439-2.827,3.112-4.739,3.438-7.981
	c0.609-6.081-1.393-12.878,1.809-18.487c2.093-3.664,4.858-4.636,8.048-7.006c2.789-2.072,3.79-4.208,3.511-7.731
	c-0.323-4.062-0.698-9.176,1.233-12.957c1.407-2.755,4.447-2.603,7.043-3.454c3.269-1.071,3.649-2.972,3.731-6.279
	c0.131-5.234-1.051-10.387-1.45-15.582c-0.423-5.503-0.753-11.023-1.21-16.52c-0.423-5.083-0.419-10.125-0.603-15.217
	c-0.165-4.57-0.92-9.029-1.425-13.578c-0.389-3.5-1.023-6.911-1.751-10.358c-0.444-2.104-0.439-5.812-2.492-7.066
	c-1.511-0.923-4.295-0.888-5.999-1.111c-4.545-0.595-9.164-0.71-13.742-0.856c-4.018-0.128-8.047-0.039-12.051,0.338
	c-3.56,0.335-7.294,1.548-10.829,1.458c-8.037-0.203-16.075-1.627-24.102-2.196c-17.017-1.207-33.67,0.245-50.638,0.995
	c-7.62,0.337-15.305,0.083-22.93,0.083c-17.126,0-34.229,0.51-51.348,0.538c-14.66,0.024-29.291-1.182-43.951-1.162
	C156.458,97.176,155.09,97.189,153.724,97.214z"/>
<g>
	<path style="fill:#CE7852;" d="M135.166,283.976c-4.393-0.544-8.82,1.084-13.287,0.279c-2.993-0.539-5.261-3.708-8.224-4.669
		c-3.291-1.067-6.445-0.958-9.022-3.661c-1.829-1.919-6.723-7.655-4.452-10.487c1.606-2.002,6.12-1.775,8.353-1.864
		c1.889-0.074,15.908,1.002,14.339-3.132c-1.326-3.489-11.963-1.819-14.648-1.575c-4.223,0.382-7.384,0.478-10.198-2.718
		c-2.303-2.616-4.079-2.329-4.498,2.017c-0.5,5.204,0.294,10.943,0.294,16.246c0,1.664,0.708,5.993-0.587,7.21
		c-1.13,1.064-3.849,0.287-4.877-0.607c-3.003-2.61-2.142-7.677-1.994-11.067c0.243-5.583,0.358-10.921,1.32-16.451
		c0.828-4.76,2.547-7.812,6.21-10.884c1.821-1.526,8.121-4.136,3.441-7.962c0.036-0.265,0.031-0.571,0.002-0.905
		c0.128,0.294,0.276,0.57,0.475,0.794c2,2.257,4.886,0.652,6.423,3.805c1.547,3.174-0.841,9.955,3.196,11.273
		c4.403,1.438,2.936-5.678,2.936-8.408c0-1.952,0.411-4.396,0.013-6.33c-0.246-1.192-1.021-1.951-1.026-3.204
		c-0.011-2.933,1.442-3.906,0.02-6.744c-0.8-1.597-2.164-3.068-2.223-5.057c-0.076-2.57,1.358-5.018,1.935-7.482
		c0.099-0.423,0.169-0.796,0.214-1.139c0.201-1.54-0.106-2.452-0.513-4.4c-0.32-1.528-0.197-3.705,1.179-4.537
		c2.782-1.682,6.615,2.292,9.167-0.043c-1.21-5.738-8.995-1.891-11.732-5.594c-2.411-3.261,3.835-11.068-0.763-11.986
		c-5.03-1.003-5.981,5.519-5.876,8.682c0.127,3.878-0.565,9.112-2.237,12.652c-0.028,0.058-0.068,0.104-0.096,0.161l0.008-0.192
		c-0.038,0.122-0.076,0.245-0.113,0.367c-1.665,3.039-5.181,3.932-7.316,6.595c-2.47,3.081-3.329,9.281-4.183,13.047
		c-0.614,2.704-3.281,12.393,0.234,13.692c0.134,0.05,0.291,0.072,0.458,0.085c-2.154,1.539-4.119,3.142-5.488,4.407
		c-4.321,3.995-3.348,13.574-3.142,18.852c0.27,6.925,0.443,13.854,1.065,20.737c0.216,2.39-0.355,5.614,1.441,7.525
		c2.232,2.373,7.94,0.791,7.318,5.65c-0.439,3.425-4.548,3.573-6.971,5.111c-2.711,1.72-2.028,5.319-2.263,8.481
		c-0.307,4.138-0.41,8.262-0.601,12.398c-0.193,4.174-3.26,32.105,7.467,25.195c0.009-0.005,3.919,1.178,4.547,1.147
		c1.59-0.081,3.697-0.638,4.846-1.824c2.041-2.104,1.28-5.999,1.29-8.772c0.017-4.466-0.001-9.025-0.415-13.468
		c-0.707-7.576-2.294-15.021-2.729-22.623c-0.211-3.702,0.262-7.787,3.492-10.132c1.852-1.344,4.191-1.698,5.854,0.311
		c1.501,1.814-0.029,4.086,0.962,5.987c2.107,4.04,6.404-0.979,7.996,3.428c1.138,3.151,0.124,7.392-0.283,10.611
		c-0.768,6.076,0.387,12.123,1.017,18.154c0.276,2.641,0.873,5.745,0.102,8.341c-0.439,1.48-1.82,2.658-2.061,4.182
		c-0.702,4.442,4.703,5.401,8.092,5.003c3.612-0.425,4.411-3.032,4.737-6.379c0.924-9.46,0.451-19.54,0.195-29.037
		c-0.078-2.88,0.612-5.988,0.138-8.835c-0.349-2.101-1.47-3.076-2.486-4.803c-2.282-3.877,0.506-6.566,4.805-6.373
		c3.742,0.168,11.013,1.669,12.695-2.728C140.385,287.075,138.401,284.376,135.166,283.976z"/>
	<path style="fill:#CE7852;" d="M129.587,254.363c0.002,7.258-1.877,15.468-0.467,22.55c0.877,4.406,3.412,4.312,4.467,0.042
		c1.664-6.734,1.381-14.101,0.47-20.918c-0.201-1.505-0.11-3.994-1.662-4.877C129.846,249.713,128.667,253.318,129.587,254.363z"/>
	<path style="fill:#CE7852;" d="M125.873,231.15c-0.863,4.037,0.292,3.26,3.171,5.571c3.071-4.007,2.415-13.256,1.683-18.067
		c-0.384-2.525-2.543-10.959-5.144-8.06C127.824,216.959,127.247,224.717,125.873,231.15z"/>
	<path style="fill:#CE7852;" d="M210.763,283.976c-4.394-0.544-8.82,1.084-13.287,0.279c-2.993-0.539-5.261-3.708-8.224-4.669
		c-3.291-1.067-6.445-0.958-9.022-3.661c-1.829-1.919-6.723-7.655-4.452-10.487c1.606-2.002,6.12-1.775,8.353-1.864
		c1.889-0.074,15.908,1.002,14.339-3.132c-1.325-3.489-11.963-1.819-14.648-1.575c-4.223,0.382-7.384,0.478-10.198-2.718
		c-2.303-2.616-4.079-2.329-4.498,2.017c-0.5,5.204,0.294,10.943,0.294,16.246c0,1.664,0.708,5.993-0.587,7.21
		c-1.13,1.064-3.849,0.287-4.877-0.607c-3.003-2.61-2.142-7.677-1.994-11.067c0.243-5.583,0.358-10.921,1.32-16.451
		c0.828-4.76,2.547-7.812,6.21-10.884c1.821-1.526,8.121-4.136,3.441-7.962c0.036-0.265,0.031-0.571,0.002-0.905
		c0.128,0.294,0.276,0.57,0.475,0.794c2,2.257,4.887,0.652,6.423,3.805c1.547,3.174-0.841,9.955,3.196,11.273
		c4.403,1.438,2.936-5.678,2.936-8.408c0-1.952,0.411-4.396,0.013-6.33c-0.246-1.192-1.021-1.951-1.027-3.204
		c-0.011-2.933,1.442-3.906,0.02-6.744c-0.8-1.597-2.164-3.068-2.223-5.057c-0.076-2.57,1.358-5.018,1.935-7.482
		c0.099-0.423,0.168-0.796,0.214-1.139c0.201-1.54-0.106-2.452-0.513-4.4c-0.32-1.528-0.197-3.705,1.179-4.537
		c2.782-1.682,6.615,2.292,9.167-0.043c-1.21-5.738-8.995-1.891-11.732-5.594c-2.411-3.261,3.835-11.068-0.763-11.986
		c-5.03-1.003-5.981,5.519-5.876,8.682c0.127,3.878-0.565,9.112-2.237,12.652c-0.028,0.058-0.068,0.104-0.096,0.161l0.008-0.192
		c-0.038,0.122-0.076,0.245-0.113,0.367c-1.665,3.039-5.181,3.932-7.316,6.595c-2.47,3.081-3.329,9.281-4.183,13.047
		c-0.614,2.704-3.281,12.393,0.234,13.692c0.133,0.05,0.291,0.072,0.458,0.085c-2.154,1.539-4.119,3.142-5.488,4.407
		c-4.321,3.995-3.348,13.574-3.142,18.852c0.27,6.925,0.443,13.854,1.065,20.737c0.216,2.39-0.355,5.614,1.441,7.525
		c2.232,2.373,7.94,0.791,7.318,5.65c-0.439,3.425-4.548,3.573-6.971,5.111c-2.711,1.72-2.028,5.319-2.263,8.481
		c-0.307,4.138-0.41,8.262-0.601,12.398c-0.193,4.174-3.26,32.105,7.467,25.195c0.009-0.005,3.919,1.178,4.547,1.147
		c1.59-0.081,3.697-0.638,4.846-1.824c2.041-2.104,1.28-5.999,1.29-8.772c0.017-4.466-0.001-9.025-0.415-13.468
		c-0.707-7.576-2.294-15.021-2.729-22.623c-0.211-3.702,0.262-7.787,3.492-10.132c1.852-1.344,4.191-1.698,5.854,0.311
		c1.501,1.814-0.029,4.086,0.962,5.987c2.107,4.04,6.404-0.979,7.996,3.428c1.138,3.151,0.124,7.392-0.283,10.611
		c-0.768,6.076,0.387,12.123,1.017,18.154c0.276,2.641,0.873,5.745,0.102,8.341c-0.439,1.48-1.82,2.658-2.061,4.182
		c-0.702,4.442,4.703,5.401,8.092,5.003c3.612-0.425,4.411-3.032,4.737-6.379c0.924-9.46,0.451-19.54,0.195-29.037
		c-0.078-2.88,0.612-5.988,0.138-8.835c-0.349-2.101-1.47-3.076-2.486-4.803c-2.282-3.877,0.506-6.566,4.805-6.373
		c3.742,0.168,11.014,1.669,12.695-2.728C215.981,287.075,213.998,284.376,210.763,283.976z"/>
	<path style="fill:#CE7852;" d="M205.182,254.363c0.002,7.258-1.877,15.468-0.467,22.55c0.877,4.406,3.412,4.312,4.467,0.042
		c1.664-6.734,1.381-14.101,0.47-20.918c-0.201-1.505-0.11-3.994-1.662-4.877C205.442,249.713,204.263,253.318,205.182,254.363z"/>
	<path style="fill:#CE7852;" d="M201.468,231.15c-0.863,4.037,0.292,3.26,3.171,5.571c3.071-4.007,2.415-13.256,1.683-18.067
		c-0.384-2.525-2.543-10.959-5.144-8.06C203.419,216.959,202.842,224.717,201.468,231.15z"/>
	<path style="fill:#CE7852;" d="M376.491,283.976c4.393-0.544,8.82,1.084,13.287,0.279c2.993-0.539,5.261-3.708,8.225-4.669
		c3.291-1.067,6.445-0.958,9.022-3.661c1.829-1.919,6.723-7.655,4.452-10.487c-1.606-2.002-6.12-1.775-8.353-1.864
		c-1.889-0.074-15.908,1.002-14.339-3.132c1.326-3.489,11.963-1.819,14.648-1.575c4.223,0.382,7.384,0.478,10.198-2.718
		c2.303-2.616,4.079-2.329,4.498,2.017c0.5,5.204-0.294,10.943-0.294,16.246c0,1.664-0.708,5.993,0.587,7.21
		c1.13,1.064,3.849,0.287,4.877-0.607c3.003-2.61,2.142-7.677,1.994-11.067c-0.243-5.583-0.358-10.921-1.32-16.451
		c-0.828-4.76-2.547-7.812-6.21-10.884c-1.821-1.526-8.121-4.136-3.441-7.962c-0.036-0.265-0.031-0.571-0.002-0.905
		c-0.128,0.294-0.276,0.57-0.475,0.794c-2,2.257-4.887,0.652-6.423,3.805c-1.547,3.174,0.841,9.955-3.196,11.273
		c-4.403,1.438-2.936-5.678-2.936-8.408c0-1.952-0.411-4.396-0.013-6.33c0.246-1.192,1.021-1.951,1.027-3.204
		c0.011-2.933-1.442-3.906-0.021-6.744c0.8-1.597,2.164-3.068,2.223-5.057c0.076-2.57-1.358-5.018-1.935-7.482
		c-0.099-0.423-0.168-0.796-0.214-1.139c-0.201-1.54,0.106-2.452,0.513-4.4c0.32-1.528,0.197-3.705-1.179-4.537
		c-2.782-1.682-6.615,2.292-9.169-0.043c1.21-5.738,8.995-1.891,11.734-5.594c2.411-3.261-3.835-11.068,0.763-11.986
		c5.03-1.003,5.981,5.519,5.876,8.682c-0.127,3.878,0.565,9.112,2.237,12.652c0.028,0.058,0.068,0.104,0.096,0.161l-0.008-0.192
		c0.038,0.122,0.076,0.245,0.113,0.367c1.664,3.039,5.181,3.932,7.315,6.595c2.47,3.081,3.329,9.281,4.183,13.047
		c0.614,2.704,3.281,12.393-0.234,13.692c-0.134,0.05-0.291,0.072-0.458,0.085c2.154,1.539,4.119,3.142,5.488,4.407
		c4.321,3.995,3.348,13.574,3.142,18.852c-0.27,6.925-0.443,13.854-1.065,20.737c-0.216,2.39,0.355,5.614-1.441,7.525
		c-2.232,2.373-7.94,0.791-7.318,5.65c0.439,3.425,4.548,3.573,6.971,5.111c2.711,1.72,2.028,5.319,2.263,8.481
		c0.307,4.138,0.41,8.262,0.601,12.398c0.193,4.174,3.26,32.105-7.467,25.195c-0.009-0.005-3.919,1.178-4.547,1.147
		c-1.59-0.081-3.697-0.638-4.846-1.824c-2.041-2.104-1.28-5.999-1.29-8.772c-0.017-4.466,0.001-9.025,0.415-13.468
		c0.707-7.576,2.294-15.021,2.729-22.623c0.211-3.702-0.262-7.787-3.492-10.132c-1.852-1.344-4.191-1.698-5.854,0.311
		c-1.501,1.814,0.029,4.086-0.962,5.987c-2.107,4.04-6.404-0.979-7.996,3.428c-1.138,3.151-0.124,7.392,0.283,10.611
		c0.768,6.076-0.387,12.123-1.017,18.154c-0.276,2.641-0.873,5.745-0.102,8.341c0.439,1.48,1.82,2.658,2.061,4.182
		c0.702,4.442-4.703,5.401-8.092,5.003c-3.612-0.425-4.411-3.032-4.737-6.379c-0.924-9.46-0.451-19.54-0.195-29.037
		c0.078-2.88-0.612-5.988-0.138-8.835c0.349-2.101,1.47-3.076,2.486-4.803c2.282-3.877-0.506-6.566-4.805-6.373
		c-3.742,0.168-11.014,1.669-12.695-2.728C371.272,287.075,373.256,284.376,376.491,283.976z"/>
	<path style="fill:#CE7852;" d="M382.072,254.363c-0.002,7.258,1.877,15.468,0.467,22.55c-0.878,4.406-3.412,4.312-4.467,0.042
		c-1.664-6.734-1.381-14.101-0.47-20.918c0.201-1.505,0.11-3.994,1.662-4.877C381.812,249.713,382.991,253.318,382.072,254.363z"/>
	<path style="fill:#CE7852;" d="M385.786,231.15c0.863,4.037-0.292,3.26-3.171,5.571c-3.071-4.007-2.415-13.256-1.683-18.067
		c0.384-2.525,2.543-10.959,5.144-8.06C383.834,216.959,384.41,224.717,385.786,231.15z"/>
	<path style="fill:#CE7852;" d="M300.896,283.976c4.393-0.544,8.819,1.084,13.287,0.279c2.993-0.539,5.261-3.708,8.224-4.669
		c3.291-1.067,6.445-0.958,9.022-3.661c1.829-1.919,6.723-7.655,4.452-10.487c-1.606-2.002-6.12-1.775-8.353-1.864
		c-1.889-0.074-15.908,1.002-14.339-3.132c1.326-3.489,11.963-1.819,14.648-1.575c4.223,0.382,7.384,0.478,10.198-2.718
		c2.303-2.616,4.081-2.329,4.498,2.017c0.5,5.204-0.294,10.943-0.294,16.246c0,1.664-0.708,5.993,0.587,7.21
		c1.13,1.064,3.849,0.287,4.877-0.607c3.002-2.61,2.142-7.677,1.994-11.067c-0.243-5.583-0.358-10.921-1.32-16.451
		c-0.828-4.76-2.547-7.812-6.21-10.884c-1.821-1.526-8.121-4.136-3.441-7.962c-0.036-0.265-0.031-0.571-0.002-0.905
		c-0.128,0.294-0.276,0.57-0.475,0.794c-2,2.257-4.886,0.652-6.423,3.805c-1.547,3.174,0.841,9.955-3.196,11.273
		c-4.403,1.438-2.936-5.678-2.936-8.408c0-1.952-0.411-4.396-0.013-6.33c0.246-1.192,1.021-1.951,1.026-3.204
		c0.011-2.933-1.442-3.906-0.021-6.744c0.8-1.597,2.164-3.068,2.223-5.057c0.076-2.57-1.358-5.018-1.935-7.482
		c-0.099-0.423-0.168-0.796-0.214-1.139c-0.201-1.54,0.106-2.452,0.513-4.4c0.32-1.528,0.197-3.705-1.179-4.537
		c-2.782-1.682-6.615,2.292-9.169-0.043c1.21-5.738,8.995-1.891,11.733-5.594c2.411-3.261-3.835-11.068,0.763-11.986
		c5.03-1.003,5.981,5.519,5.876,8.682c-0.127,3.878,0.565,9.112,2.237,12.652c0.028,0.058,0.068,0.104,0.096,0.161l-0.008-0.192
		c0.038,0.122,0.076,0.245,0.113,0.367c1.664,3.039,5.181,3.932,7.315,6.595c2.47,3.081,3.329,9.281,4.183,13.047
		c0.614,2.704,3.281,12.393-0.234,13.692c-0.134,0.05-0.291,0.072-0.458,0.085c2.154,1.539,4.119,3.142,5.488,4.407
		c4.321,3.995,3.347,13.574,3.142,18.852c-0.27,6.925-0.443,13.854-1.065,20.737c-0.216,2.39,0.355,5.614-1.441,7.525
		c-2.232,2.373-7.94,0.791-7.318,5.65c0.439,3.425,4.548,3.573,6.971,5.111c2.711,1.72,2.028,5.319,2.263,8.481
		c0.307,4.138,0.41,8.262,0.601,12.398c0.193,4.174,3.26,32.105-7.467,25.195c-0.009-0.005-3.919,1.178-4.547,1.147
		c-1.59-0.081-3.697-0.638-4.846-1.824c-2.041-2.104-1.279-5.999-1.29-8.772c-0.017-4.466,0-9.025,0.414-13.468
		c0.707-7.576,2.294-15.021,2.729-22.623c0.211-3.702-0.262-7.787-3.492-10.132c-1.852-1.344-4.191-1.698-5.854,0.311
		c-1.501,1.814,0.029,4.086-0.962,5.987c-2.107,4.04-6.404-0.979-7.996,3.428c-1.138,3.151-0.124,7.392,0.283,10.611
		c0.768,6.076-0.387,12.123-1.017,18.154c-0.276,2.641-0.873,5.745-0.102,8.341c0.439,1.48,1.82,2.658,2.061,4.182
		c0.702,4.442-4.703,5.401-8.092,5.003c-3.612-0.425-4.411-3.032-4.737-6.379c-0.924-9.46-0.451-19.54-0.195-29.037
		c0.078-2.88-0.612-5.988-0.138-8.835c0.349-2.101,1.47-3.076,2.486-4.803c2.282-3.877-0.506-6.566-4.805-6.373
		c-3.742,0.168-11.014,1.669-12.695-2.728C295.676,287.075,297.66,284.376,300.896,283.976z"/>
	<path style="fill:#CE7852;" d="M306.476,254.363c-0.002,7.258,1.877,15.468,0.467,22.55c-0.877,4.406-3.412,4.312-4.467,0.042
		c-1.664-6.734-1.381-14.101-0.47-20.918c0.201-1.505,0.11-3.994,1.662-4.877C306.216,249.713,307.395,253.318,306.476,254.363z"/>
	<path style="fill:#CE7852;" d="M310.189,231.15c0.863,4.037-0.292,3.26-3.171,5.571c-3.071-4.007-2.415-13.256-1.683-18.067
		c0.384-2.525,2.543-10.959,5.144-8.06C308.238,216.959,308.815,224.717,310.189,231.15z"/>
</g>
<g>
	<path style="fill:#7F4B36;" d="M241.674,219.936c0,5.128,0.117,10.231,0.531,15.315c0.21,2.575-0.311,6.679,1.277,8.677
		c0.77-3.612,3.413-5.388,5.077-8.326c1.458-2.575-0.21-6.632-0.203-9.562c0.006-2.619-0.154-3.668,1.59-5.815
		c0.822-1.012,2.533-1.916,2.404-3.354c-0.132-1.476-2.341-2.505-3.728-2.52C245.351,214.313,242.969,217.682,241.674,219.936z"/>
	<path style="fill:#7F4B36;" d="M259.287,216.2c5.48,1.704,2.077,13.424,4.471,17.153c0.831,1.295,2.231,2.098,3.135,3.496
		c0.649,1.005,1.765,3.973,3.143,3.458c1.977-0.738,1.385-9.945,1.271-11.71c-0.207-3.197-0.573-6.414-0.81-9.614
		c-0.156-2.111-0.127-2.463-2.021-3.344C265.85,214.42,262.714,214.501,259.287,216.2z"/>
	<path style="fill:#7F4B36;" d="M242.74,258.366c1.477-2.086,4.552-3.285,5.864-1.1c1.091,1.815,0.951,6.537,1.053,8.675
		c0.14,2.935,0.778,6.497,0.289,9.451c-0.417,2.524-2.47,3.892-4.863,1.942C240.626,273.701,242.026,263.747,242.74,258.366z"/>
	<path style="fill:#7F4B36;" d="M264.09,256.232c0.001,5.185-0.086,10.39-0.267,15.572c-0.071,2.022-1.495,7.014,1.082,7.951
		c2.493-2.881,2.905-6.736,3.716-10.419c1.028-4.666,1.626-9.599,1.294-14.398C267.916,253.493,265.094,254.946,264.09,256.232z"/>
	<path style="fill:#7F4B36;" d="M229.93,320.815c0.945,2.609-0.709,6.798-1,9.646c-0.496,4.867-0.208,9.761-0.595,14.642
		c-0.618,7.804-1.566,15.437-0.873,23.287c0.574,6.49,0.517,12.811,0.318,19.305c-0.168,5.516,0.645,8.154,6.301,8.93
		c1.328,0.182,5.939,0.251,7.127-0.386c1.565-0.839,1.492-2.668,1.725-4.287c0.766-5.316,0.34-11.093,0.34-16.507
		c0-12.387-0.005-24.758-1.134-37.108c-0.382-4.18-1.083-9.116,3.869-10.613c4.745-1.435,10.579-0.183,15.413,0.041
		c3.816,0.177,6.873-0.646,8.005,3.434c0.866,3.125-0.096,6.626-0.287,9.766c-0.305,5.015-0.615,10.151-0.794,15.177
		c-0.272,7.62-0.493,15.227-0.81,22.835c-0.164,3.935-1.833,11.78,1.144,14.965c2.411,2.579,13.079,2.828,14.624,0.298
		c1.539-2.521-0.165-8.517-0.331-11.305c-0.331-5.549,0.399-11.003,0.613-16.547c0.345-8.964,0.972-18.669-0.214-27.555
		c-0.617-4.625-0.305-9.364-0.543-14.014c-0.135-2.65,0.49-7.239-1.439-9.348c-1.685-1.841-6.45-2.726-8.694-3.144
		c-6.395-1.192-13.185-0.299-19.637-0.321c-5.28-0.018-11.468-0.495-16.683,0.543C232.546,313.312,231.667,315.946,229.93,320.815z"
		/>
</g>
<g>
	<path style="fill:#CE7852;" d="M63.134,373.656c21.842,1.945,44.106-2.047,65.974-2.152c19.677-0.094,39.361,0.384,58.995,1.353
		c6.561,0.324,13.468-0.603,20.162-1.069c4.758-0.331,15.183-3.185,19.123,0.267c4.047,3.547,1.675,11.038,0.347,15.292
		c-0.718,2.301-1.752,6.095-3.676,7.805c-2.28,2.027-6.789,1.648-9.697,1.864c-14.51,1.078-29.494-0.507-44.015-0.931
		c-9.355-0.273-18.744,0.834-28.096,0.815c-9.385-0.018-18.791-0.292-28.188-0.294c-9.053-0.001-18.025-0.93-27.067-0.557
		c-5.554,0.229-11.879,1.115-17.372,0.283C59.873,394.854,62.714,383.858,63.134,373.656z"/>
	<path style="fill:#CE7852;" d="M285.122,368.178c5.542-0.265,11.233,0.93,16.789,1.096c11.99,0.358,24.009-0.29,36.001,0.063
		c22.246,0.655,44.36,0.838,66.592,1.998c12.44,0.649,24.957,1.294,37.373,0.781c4.331-0.179,9.141-1.58,9.356,3.498
		c0.2,4.724-2.688,10.662-3.591,15.401c-1.168,6.133-3.994,6.476-10.033,7.104c-12.293,1.279-24.298,0.379-36.593-0.368
		c-16.213-0.985-32.199-0.792-48.404-0.808c-14.821-0.015-29.421-0.165-44.19-1.168c-5.374-0.365-10.728-0.444-16.096-0.71
		c-2.303-0.113-5.542,0.195-7.51-1.065c0.89-2.508-0.755-8.013-1.12-10.735C283.057,378.49,282.506,373.745,285.122,368.178z"/>
	<path style="fill:#CE7852;" d="M91.325,104.269c1.518-2.126,6.546-6.341,9.427-5.427c3.831,1.216,1.586,6.255,0.748,9.269
		c-1.859,6.682-4.991,12.89-6.858,19.569c-2.15,7.692-4.119,15.234-5.896,23.007c-3.891,17.023-8.801,33.956-13.609,50.728
		c-2.299,8.018-4,15.116-4.211,23.403c-0.225,8.834-3.999,17.768-6.263,26.249c-5.155,19.313-9.942,38.759-16.645,57.614
		c-5.059,14.23-8.246,28.831-12.566,43.287c-4.031,13.49-9.381,26.554-13.293,40.087c-1.788,6.186-2.299,18.987-7.581,23.496
		c-1.998,1.705-6.778,2.678-9.371,1.483c-5.857-2.701,2.3-18.723,3.961-23.146c3.593-9.561,7.897-18.918,11.343-28.51
		c2.924-8.138,4.632-16.986,6.834-25.349c4.504-17.11,8.737-34.116,14.381-51.017c3.592-10.755,7.363-21.274,10.312-32.231
		c2.131-7.919,5.172-15.571,7.143-23.549c3.483-14.101,6.054-28.251,10.397-42.296c4.715-15.248,9.756-30.433,13.108-46.057
		c1.646-7.674,3.454-15.215,5.771-22.711C90.416,115.827,90.058,107.47,91.325,104.269z"/>
	<path style="fill:#CE7852;" d="M397.301,96.358c3.002,2.513,4.02,11.804,5.963,15.657c3.226,6.402,5.44,13.472,8.254,20.133
		c1.539,3.644,3.297,6.324,3.727,10.432c0.511,4.886,1.537,9.344,2.561,14.144c1.662,7.793,2.985,15.605,4.669,23.409
		c1.827,8.467,3.869,17.152,7.039,25.232c1.258,3.207,3.36,4.438,5.031,7.186c1.852,3.047,1.649,7.245,2.306,10.646
		c0.915,4.742,1.553,9.531,2.339,14.285c1.661,10.054,2.683,20.124,4.935,30.105c1.421,6.293,3.047,12.523,4.864,18.716
		c2.347,8,6.209,15.007,8.266,23.009c2.435,9.474,3.821,19.18,6.205,28.664c2.843,11.31,6.067,22.552,8.639,33.917
		c2.692,11.902,5.115,23.754,9.709,35.054c1.383,3.401,2.635,7.57,6.983,7.9c7.736,0.587,4.48-9.114,3.693-13.325
		c-4.024-21.534-10.065-42.642-17.097-63.374c-3.567-10.517-7.394-20.944-11.358-31.318c-3.345-8.754-3.996-18.046-6.129-27.241
		c-4.401-18.972-11.698-37.081-16.939-55.809c-1.105-3.946-2.731-8.226-3.027-12.327c-0.219-3.031,0.53-5.835,0.038-8.893
		c-1.552-9.639-5.116-19.487-8.288-28.694c-2.047-5.943-4.282-11.827-6.393-17.747c-2.388-6.698-4.019-13.674-4.309-20.736
		c-0.323-7.877-4.047-15.336-6.249-22.856c-1.231-4.205-2.36-9.783-5.003-13.318C406.288,97.281,402.459,93.948,397.301,96.358z"/>
</g>
<path style="fill:#4C291F;" d="M249.167,327.55c-10.49,3.386-8.454,13.469-7.561,23.192c0.676,7.349,1.126,14.745,1.452,22.125
	c0.148,3.352,0.187,6.872,0.004,10.223c-0.124,2.296-1.319,6.582-0.367,8.765c1.473,3.378,9.464,2.642,13.113,2.948
	c4.994,0.42,10.558,2.027,11.667-3.451c1.313-6.482,0.471-14.283,1.106-20.936c0.71-7.441,1.05-14.994,1.079-22.491
	c0.016-4.211,1.972-14.811-0.719-18.199c-1.311-1.65-3.06-1.818-5.431-1.844C258.401,327.825,253.148,327.63,249.167,327.55z"/>
<g>
	<path style="fill:#AF6345;" d="M177.656,186.489c-5.151-0.872-8.964,3.45-14.005,0.43c-4.432-2.653-7.127-8.44-8.834-13.094
		c-2.995-8.163-4.138-16.815-6.763-25.079c-2.392-7.533-4.517-14.998-6.141-22.749c-1.671-7.978-2.718-18.023-7.811-24.704
		c-2.588-3.396-5.039-3.295-9.088-3.857c-4.375-0.608-6.462-0.557-7.9,4.22c-1.971,6.55-1.231,14.669-2.06,21.5
		c-1.657,13.649-4.524,27.258-5.752,40.964c-0.395,4.401-2.255,11.945-0.739,16.293c1.115,3.197,3.558,3.237,6.51,3.684
		c9.51,1.441,5.043,10.922,6.174,18.267c1.19,7.723,11.361,9.287,13.043,17.681c1.135,5.66-0.32,11.246,0.163,16.836
		c0.396,4.578,3.54,4.706,5.699,7.954c5.422,8.16,3.333,24.118,2.948,33.465c-0.163,3.958-0.127,8.845-1.69,12.558
		c-2.059,4.888-4.092,1.729-7.963,2.949c-0.634,5.928,2.711,4.693,5.636,7.585c3.932,3.885,2.579,13.47,2.579,18.431
		c0,7.052-1.579,16.346,0.343,23.107c1.013,3.562,5.034,5.824,8.466,6.433c4.71,0.837,4.66-0.893,5.018-4.905
		c0.238-2.662,0.257-5.315,0.357-7.985c0.14-3.739-0.425-7.446-0.605-11.174c-0.272-5.637-0.443-11.389,0.421-16.98
		c0.436-2.821,1.033-5.744,3.589-7.258c2.085-1.235,3.083-0.419,4.105-2.648c0.622-1.358,1.198-4.606-0.045-5.524
		c-1.848-1.365-4.374,0.854-6.347-1.279c-1.993-2.156-1.298-6.714-1.6-9.491c-0.827-7.623-0.582-15.342-0.582-23.01
		c0-3.193-0.476-7.116,0.599-10.198c1.003-2.879,4.435-4.093,5.288-6.968c0.782-2.639,0.412-6.555,0.618-9.35
		c0.236-3.198,0.636-6.316,1.309-9.45c1.154-5.377,1.098-10.621,6.601-13.285c2.031-0.983,5.019-2.02,6.161-4.081
		c1.366-2.464,0.817-6.922,1.064-9.749C176.697,192.834,177.409,189.673,177.656,186.489z"/>
	<path style="fill:#AF6345;" d="M333.865,186.403c4.319-0.349,9.879,3.3,11.192,7.39c1.742,5.427-0.988,9.883,3.246,14.488
		c1.922,2.09,4.679,3.27,6.607,5.354c2.206,2.385,2.747,4.801,3.442,7.872c1.719,7.588,3.74,14.478,4.237,22.35
		c0.849,13.414,0.971,27.362,0.363,40.834c-0.661,14.692,1.671,29.222,1.642,43.945c-0.008,4.042,0.237,8.07,0.236,12.097
		c0,1.77,0.261,4.731-0.824,6.28c-1.14,1.628-6.304,2.906-7.575,1.434c-0.511-0.591-0.276-3.208-0.346-3.989
		c-0.238-2.662-0.257-5.315-0.357-7.985c-0.14-3.739,0.425-7.446,0.605-11.174c0.272-5.637,0.443-11.389-0.421-16.98
		c-0.436-2.821-1.033-5.744-3.589-7.258c-2.084-1.235-3.083-0.419-4.105-2.648c-0.622-1.358-1.198-4.606,0.045-5.524
		c1.848-1.365,4.374,0.854,6.347-1.279c1.993-2.156,1.298-6.714,1.6-9.491c0.827-7.623,0.582-15.342,0.582-23.01
		c0-3.193,0.476-7.116-0.599-10.198c-1.003-2.879-4.435-4.093-5.288-6.968c-0.782-2.639-0.412-6.555-0.618-9.35
		c-0.236-3.198-0.636-6.316-1.309-9.45c-1.154-5.377-1.098-10.621-6.601-13.285c-2.031-0.983-5.019-2.02-6.161-4.081
		c-1.366-2.465-0.817-6.924-1.064-9.751C334.919,193.315,334.182,189.202,333.865,186.403z"/>
	<path style="fill:#AF6345;" d="M251.466,217.844c-3.032,1.596-3.804,7.275-3.291,10.337c0.454,2.707,2.265,4.222,1.105,6.909
		c-1.294,2.996-4.081,4.473-4.886,7.917c-0.577,2.464-1.926,9.75-0.444,12.188c2.677,4.401,4.808-6.568,6.053-7.776
		c0.725,2.454,0.16,5.311,0.271,7.878c0.179,4.158,0.396,8.323,0.196,12.494c-0.166,3.468-1.743,10.573,2.458,11.752
		c6.479,1.819,4.072-12.176,3.925-15.266c-0.207-4.364-0.984-8.951-0.909-13.282c0.088-5.152,0.736-10.329,0.541-15.46
		c-0.184-4.866-0.005-9.724-0.472-14.562C255.618,216.93,254.641,215.452,251.466,217.844z"/>
	<path style="fill:#AF6345;" d="M198.47,193.437c-0.82,2.541-1.403,7.578-0.639,10.346c0.915,3.315,3.177,3.16,5.942,4.845
		c6.619,4.033,7.222,13.024,7.56,20.025c0.155,3.204-1.267,8.199,0.162,11.093c1.383,2.801,4.983,3.733,6.3,6.886
		c1.871,4.479,1.212,10.345,1.449,15.099c0.283,5.689,0.592,11.32,0.799,16.966c0.14,3.839,0.283,8.964-1.527,12.465
		c-2.053,3.969-5.254,2.075-8.845,4.088c-0.936,6.049,3.264,2.99,6.346,5.412c2.849,2.238,1.724,8.264,1.87,11.525
		c0.347,7.702,0.187,15.55,0.538,23.271c0.162,3.552-0.384,12.329,3.803,13.814c8.626,3.061,6.085-20.553,6.085-24.388
		c0-2.497-0.894-7.581,0.717-9.712c1.782-2.358,6.828-1.971,9.436-2.216c9.91-0.93,20.38-0.496,30.125-0.428
		c1.389,0.01,3.81,0.549,5.025,0.259c4.068-0.973,2.711-5.294-0.697-7.448c-8.86-5.601-19.87-4.374-28.632-10.867
		c-15.376-11.395-16.128-28.971-17.037-46.559c-0.79-15.263-4.898-30.626-13.686-43.253
		C210.696,200.538,201.945,186.892,198.47,193.437z"/>
</g>
<path d="M176.893,220.688c-0.088,0.738,0.344,1.535,1.321,1.576c1.014,0.042,2.039,0.027,3.06-0.012
	c0.394,0.082,0.784,0.097,1.198-0.055c0.094-0.006,0.189-0.006,0.282-0.013c2.212-0.161,2.261-3.643,0-3.56
	c-0.732,0.027-1.439,0.184-2.143,0.354c-0.21-0.051-0.425-0.087-0.661-0.102c-0.461-0.028-0.928,0.042-1.377,0.139
	c-0.366,0.08-0.89,0.398-1.052,0.456C176.977,219.666,176.757,220.224,176.893,220.688z"/>
<path d="M190.851,221.771c1.348,0.559,2.829,0.208,4.249,0.134c1.903-0.101,1.904-2.916,0-3.021
	c-1.536-0.086-3.127,0.445-4.472,1.138C189.829,220.432,190.173,221.49,190.851,221.771z"/>
<path d="M187.238,226.091c0.924,0.056,2.034,0.076,2.831-0.398c0.518-0.307,0.601-1.232,0-1.516
	c-1.286-0.607-2.897,0.375-4.124-0.472c-0.746-0.517-1.533,0.47-1.163,1.189C185.269,225.838,186.277,226.033,187.238,226.091z"/>
<path d="M188.382,228.96c-1.387,0.264-2.962-0.227-4.232,0.47c-0.37,0.204-0.362,0.787,0,0.992c1.129,0.64,2.795,0.493,4.048,0.353
	c0.987-0.11,2.551-0.195,3.285-0.911c0.223-0.219,0.187-0.559,0-0.782C190.69,228.128,189.402,228.766,188.382,228.96z"/>
<path d="M173.129,264.249c4.036,0.639,8.296,1.023,12.36,0.503c4.179-0.535,8.291,0.384,12.5-0.4c0.807-0.15,0.804-1.509,0-1.662
	c-3.717-0.707-7.916-1.222-11.673-0.826c-4.401,0.464-8.797,0.234-13.189,0.929C172.423,262.903,172.423,264.137,173.129,264.249z"
	/>
<path d="M106.283,218.623c-0.732,0.027-1.439,0.184-2.143,0.354c-0.21-0.051-0.425-0.087-0.661-0.102
	c-0.461-0.028-0.928,0.042-1.379,0.139c-0.365,0.08-0.89,0.398-1.051,0.456c-0.544,0.196-0.763,0.754-0.628,1.217
	c-0.088,0.738,0.344,1.535,1.321,1.576c1.014,0.042,2.039,0.027,3.061-0.012c0.394,0.082,0.784,0.097,1.197-0.055
	c0.094-0.006,0.189-0.006,0.282-0.013C108.496,222.021,108.544,218.54,106.283,218.623z"/>
<path d="M118.629,218.883c-1.536-0.086-3.127,0.445-4.472,1.138c-0.798,0.411-0.453,1.469,0.224,1.751
	c1.348,0.559,2.829,0.208,4.249,0.134C120.531,221.804,120.532,218.989,118.629,218.883z"/>
<path d="M110.767,226.091c0.924,0.056,2.034,0.076,2.831-0.398c0.518-0.307,0.601-1.232,0-1.516
	c-1.286-0.607-2.897,0.375-4.124-0.472c-0.746-0.517-1.533,0.47-1.164,1.189C108.798,225.838,109.806,226.033,110.767,226.091z"/>
<path d="M111.912,228.96c-1.387,0.264-2.962-0.227-4.232,0.47c-0.369,0.204-0.361,0.787,0,0.992c1.129,0.64,2.795,0.493,4.048,0.353
	c0.987-0.11,2.551-0.195,3.284-0.911c0.223-0.219,0.187-0.559,0-0.782C114.22,228.128,112.931,228.766,111.912,228.96z"/>
<path d="M121.519,262.69c-3.717-0.707-7.917-1.222-11.673-0.826c-4.401,0.464-8.797,0.234-13.188,0.929
	c-0.707,0.112-0.707,1.345,0,1.457c4.035,0.639,8.296,1.023,12.359,0.503c4.179-0.535,8.291,0.384,12.502-0.4
	C122.326,264.201,122.323,262.842,121.519,262.69z"/>
<path d="M329.243,222.182c0.093,0.006,0.189,0.006,0.281,0.013c0.414,0.153,0.804,0.137,1.198,0.055
	c1.021,0.04,2.046,0.055,3.06,0.012c0.977-0.041,1.41-0.837,1.321-1.576c0.135-0.463-0.084-1.02-0.628-1.217
	c-0.162-0.058-0.686-0.376-1.052-0.456c-0.451-0.098-0.918-0.168-1.377-0.139c-0.236,0.015-0.451,0.052-0.661,0.102
	c-0.704-0.17-1.411-0.327-2.143-0.354C326.982,218.54,327.03,222.021,329.243,222.182z"/>
<path d="M316.898,221.905c1.42,0.074,2.901,0.425,4.249-0.134c0.677-0.28,1.023-1.34,0.223-1.751
	c-1.345-0.692-2.936-1.224-4.472-1.138C314.994,218.989,314.994,221.804,316.898,221.905z"/>
<path d="M321.927,225.694c0.797,0.472,1.907,0.454,2.831,0.398c0.961-0.059,1.97-0.252,2.455-1.197
	c0.369-0.718-0.417-1.704-1.164-1.189c-1.226,0.849-2.838-0.135-4.124,0.472C321.327,224.462,321.409,225.387,321.927,225.694z"/>
<path d="M323.614,228.96c-1.019-0.194-2.308-0.832-3.101,0.121c-0.186,0.224-0.223,0.564,0,0.782c0.732,0.716,2.298,0.8,3.285,0.911
	c1.253,0.14,2.919,0.287,4.048-0.353c0.362-0.205,0.37-0.788,0-0.992C326.577,228.734,325.001,229.225,323.614,228.96z"/>
<path d="M338.868,262.792c-4.39-0.696-8.788-0.465-13.189-0.929c-3.756-0.396-7.956,0.12-11.673,0.826
	c-0.804,0.153-0.806,1.512,0,1.662c4.211,0.784,8.323-0.135,12.502,0.4c4.064,0.52,8.324,0.136,12.36-0.503
	C339.574,264.137,339.574,262.903,338.868,262.792z"/>
<path d="M410.947,219.47c-0.162-0.058-0.686-0.376-1.051-0.456c-0.451-0.098-0.918-0.168-1.379-0.139
	c-0.236,0.015-0.451,0.052-0.661,0.102c-0.703-0.17-1.411-0.327-2.143-0.354c-2.261-0.083-2.212,3.398,0,3.56
	c0.094,0.006,0.188,0.006,0.281,0.013c0.413,0.153,0.804,0.137,1.198,0.055c1.021,0.04,2.046,0.055,3.06,0.012
	c0.977-0.041,1.41-0.837,1.321-1.576C411.71,220.224,411.491,219.666,410.947,219.47z"/>
<path d="M397.841,220.021c-1.345-0.692-2.936-1.224-4.472-1.138c-1.904,0.107-1.903,2.921,0,3.021
	c1.42,0.074,2.901,0.425,4.249-0.134C398.294,221.49,398.639,220.432,397.841,220.021z"/>
<path d="M398.397,225.694c0.797,0.472,1.906,0.454,2.831,0.398c0.961-0.059,1.97-0.252,2.455-1.197
	c0.37-0.718-0.417-1.704-1.163-1.189c-1.226,0.849-2.838-0.135-4.124,0.472C397.798,224.462,397.879,225.387,398.397,225.694z"/>
<path d="M400.085,228.96c-1.019-0.194-2.308-0.832-3.101,0.121c-0.187,0.224-0.223,0.564,0,0.782c0.732,0.716,2.296,0.8,3.285,0.911
	c1.253,0.14,2.919,0.287,4.048-0.353c0.362-0.205,0.369-0.788,0-0.992C403.047,228.734,401.472,229.225,400.085,228.96z"/>
<path d="M390.477,262.69c-0.804,0.153-0.806,1.512,0,1.662c4.211,0.784,8.323-0.135,12.502,0.4c4.064,0.52,8.324,0.136,12.36-0.503
	c0.707-0.112,0.705-1.345,0-1.457c-4.39-0.696-8.788-0.465-13.189-0.929C398.394,261.467,394.195,261.983,390.477,262.69z"/>
<path d="M508.251,403.412c-2.285-5.802-4.844-11.221-6.466-17.304c-3.201-12.003-8.1-23.522-11.885-35.355
	c-6.335-19.801-11.25-39.955-16.701-60.031c-5.557-20.47-9.438-41.824-16.745-61.771c-1.716-4.687-3.164-9.466-4.879-14.164
	c-1.759-4.819-2.486-9.858-3.993-14.761c-3-9.757-6.092-19.814-8.352-29.786c-2.386-10.537-6.003-20.627-8.643-31.076
	c-1.381-5.463-2.636-10.966-4.019-16.431c-0.662-2.62-1.019-5.257-1.565-7.892c-0.211-1.019-0.631-2.038-0.987-3.06
	c-0.142-0.866-0.293-1.742-0.463-2.65c-0.715-3.832-1.437-9.668-4.521-12.37c-3.321-2.91-8.844-3.31-13.016-3.649
	c-3.151-0.257-8.381-0.827-10.79,1.821c-0.187,0.205-0.342,0.413-0.483,0.621c-3.089-0.413-6.25-0.325-9.398-0.805
	c-5.425-0.827-10.682-0.977-16.11-1.563c-11.353-1.223-23.228-0.272-34.639-0.265c-5.428,0.003-10.939-0.286-16.339,0.283
	c-4.763,0.502-9.449-0.21-14.234,0.364c-5.8,0.695-11.7,0.456-17.46,1.037c-2.752-0.064-5.519-0.071-8.323-0.072
	c-8.653-0.002-17.346-0.252-25.984-0.14c-8.145,0.106-16.376-0.105-24.48,0.495c-6.495-0.949-13.213-0.53-19.801-1.318
	c-4.785-0.573-9.471,0.138-14.234-0.364c-5.401-0.568-10.912-0.279-16.339-0.283c-11.412-0.006-23.287-0.958-34.639,0.265
	c-5.427,0.585-10.685,0.735-16.11,1.563c-3.149,0.48-6.309,0.392-9.398,0.805c-0.141-0.208-0.297-0.416-0.483-0.621
	c-2.409-2.648-7.638-2.077-10.79-1.821c-4.172,0.34-9.695,0.74-13.017,3.649c-3.085,2.702-3.805,8.538-4.521,12.37
	c-0.169,0.908-0.32,1.784-0.463,2.65c-0.356,1.023-0.776,2.041-0.987,3.06c-0.547,2.635-0.903,5.272-1.565,7.892
	c-1.382,5.467-2.638,10.968-4.019,16.431c-2.639,10.449-6.256,20.539-8.643,31.076c-2.259,9.972-5.351,20.028-8.352,29.786
	c-1.508,4.904-2.235,9.942-3.993,14.761c-1.715,4.698-3.162,9.477-4.879,14.164c-7.307,19.947-11.187,41.3-16.745,61.771
	c-5.45,20.077-10.366,40.23-16.701,60.031c-3.785,11.833-8.684,23.352-11.886,35.355c-1.622,6.083-4.182,11.502-6.467,17.304
	c-1.418,3.601-3.609,8.335-3.745,12.233c-0.052,1.461,1.029,2.707,2.332,3.129c4.5,1.457,9.22,0.083,13.796-0.074
	c3.698-0.126,9.603,1.114,13.193-1.033c5.791-0.889,11.483-4.92,16.483-7.425c3.359-1.683,6.438-3.74,9.849-5.349
	c2.968-1.4,5.995-2.717,8.615-4.691c4.457,1.237,10.819-0.096,14.41-0.123c10.016-0.073,20.038-0.049,30.053,0.14
	c17.037,0.323,34.012-0.822,51.031-0.745c11.286,0.05,22.573,0.131,33.859,0.137c4.221,0.003,8.368-0.568,12.601-0.595
	c0.465-0.003,0.934-0.011,1.403-0.022c2.87,0.284,5.793,0.167,8.637-0.01c2.602-0.162,6.25-0.164,9.279-0.976
	c3.789,1.512,9.773,0.579,13.069,0.42c3.041-0.148,5.949-0.68,8.984-0.93c2.839-0.234,5.703,0.126,8.406-0.633
	c2.703,0.76,5.567,0.399,8.406,0.633c3.035,0.25,5.944,0.782,8.984,0.93c3.296,0.16,9.281,1.093,13.069-0.42
	c3.029,0.812,6.677,0.814,9.279,0.976c2.843,0.177,5.766,0.294,8.637,0.01c0.469,0.011,0.937,0.018,1.403,0.022
	c4.232,0.027,8.38,0.598,12.601,0.595c11.286-0.007,22.572-0.087,33.858-0.137c17.018-0.076,33.993,1.069,51.031,0.745
	c10.014-0.19,20.037-0.215,30.053-0.14c3.591,0.026,9.953,1.36,14.41,0.123c2.62,1.974,5.647,3.291,8.615,4.691
	c3.411,1.609,6.49,3.666,9.849,5.349c5,2.505,10.691,6.537,16.483,7.425c3.59,2.148,9.495,0.907,13.193,1.033
	c4.576,0.156,9.296,1.532,13.796,0.074c1.302-0.422,2.383-1.669,2.332-3.129C511.859,411.746,509.669,407.013,508.251,403.412z
	 M28.847,401.289c-0.822,3.04-2.147,5.798-3.14,8.76c-0.263,0.784-0.735,1.429-0.745,1.65c-1.833,0.37-4.513-0.063-6.005-0.087
	c-4.221-0.071-8.387,0.701-12.587,0.831c0.29-1.394,0.823-2.878,1.048-3.926c0.496-2.306,1.1-4.461,1.952-6.664
	c1.974-5.105,3.871-10.187,5.357-15.47c3-10.67,7.679-20.844,11.374-31.283c6.863-19.384,11.559-39.226,17.17-58.995
	c5.915-20.84,11.068-41.902,17.046-62.749c2.633-9.183,6.239-17.969,8.529-27.289c2.545-10.355,5.957-20.485,8.762-30.77
	c1.605-5.885,2.646-11.896,4.487-17.725c1.76-5.571,3.66-11.112,5.113-16.773c1.4-5.454,2.608-10.979,3.953-16.449
	c1.135-4.613,2.715-9.984,2.833-14.755c0.525-1.671,1.123-3.304,1.916-4.835c2.368-4.573,7.016-4.604,11.739-4.884
	c0.903-0.054,2.51-0.338,3.744-0.29c-0.238,1.273-0.689,2.454-1.364,3.538c-2.923,6.52-5.708,12.859-7.68,19.775
	c-0.244,0.855-0.508,1.716-0.782,2.581c-6.225,16.661-8.954,34.373-13.253,51.716c-4.435,17.887-13.471,35.139-15.928,53.473
	c-1.294,9.656-3.627,19.498-5.703,29.017c-2.413,11.064-3.752,22.423-7.498,33.18c-3.749,10.767-6.642,22.229-9.507,33.281
	c-1.374,5.302-3.425,10.344-4.678,15.691c-1.524,6.499-2.737,13.064-4.393,19.531C37.164,374.809,32.469,387.887,28.847,401.289z
	 M61.332,353.76c-1.828,6.993-2.314,14.137-2.539,21.336c-0.131,4.142-0.442,8.277-0.064,12.407
	c0.277,3.017-0.174,6.495,1.203,9.312c-2.292,0.674-4.469,1.792-6.68,2.809c-4.241,1.951-8.464,4.209-12.527,6.482
	c-2.597,1.453-5.48,3.1-8.059,4.875c0.576-1.468,1.267-2.902,1.77-4.393c2.139-6.346,3.41-13.041,5.317-19.47
	c3.734-12.585,7.119-24.984,9.77-37.866c2.443-11.874,6.443-23.253,9.518-34.94c5.713-21.709,11.964-43.264,15.085-65.52
	c2.768-19.737,9.261-38.367,14.653-57.437c3.138-11.099,6.326-22.209,9.039-33.408c1.94-8.009,3.289-16.211,5.162-24.255
	c0.131-0.395,0.261-0.79,0.395-1.183c1.854-5.431,4.576-10.377,6.769-15.644c1.383-3.32,2.72-6.506,4.199-9.699
	c-0.781,4.537-1.385,9.107-2.117,13.649c-0.941,5.834-1.919,11.621-2.266,17.526c-0.86,14.616-3.981,28.844-3.969,43.498
	c-1.264,0.385-2.51,0.902-3.597,1.615c-2.589,0.475-4.013,3.484-4.497,6.635c-0.415,2.698-0.064,5.456,0.094,8.145
	c0.119,2.034,0.156,4.394,0.093,6.588c-3.122,1.907-6.312,3.98-9.07,6.248c-2.608,2.144-2.543,4.644-3.072,7.847
	c-1.126,6.829-3.407,14.008-3.352,20.945c-3.953,2.755-5.213,6.376-5.307,11.93c-0.113,6.775-0.867,13.567-1.652,20.293
	c-0.373,3.198,0.328,6.067,0.349,9.224c0.023,3.241-0.675,6.448,0.217,9.651c1.464,5.255,6.047,5.508,10.58,5.315
	c-0.299,0.714-0.525,1.479-0.709,2.264c-1.907,0.375-3.862,0.166-5.532,1.685c-1.534,1.395-2.018,3.403-2.252,5.402
	c-0.897,7.642-2.165,15.499-1.772,23.254c0.169,3.33,0.451,6.536,0.429,9.914c-0.017,2.648-0.788,5.454-0.728,8.133
	c-0.635,0.007-1.271,0.001-1.904,0.033C68.802,347.241,62.967,347.506,61.332,353.76z M125.778,209.471
	c2.416,2.127,4.817,4.541,6.091,7.47c1.171,2.691,0.703,6.363,0.924,9.404c0.252,3.469,0.297,7.052,0.286,10.569
	c-1.603-0.758-3.199-1.494-4.855-2.208c-0.769-0.331-1.46-0.747-2.144-1.113c0.73-2.032,0.649-4.412,1.07-6.487
	C128.244,221.705,127.96,214.938,125.778,209.471z M139.094,249.747c0.963,4.237,0.845,8.815,1.24,13.127
	c0.354,3.858,0.527,8.045,0.321,11.934c-0.118,2.216-0.848,4.259-0.882,6.499c-0.032,2.101,0.563,4.482,0.082,6.546
	c-0.688,2.951-2.425,2.524-5.025,2.588c-2.178,0.053-4.113-0.159-6.205-0.806c-1.936-0.6-3.541-0.853-5.565-0.812
	c-2.368,0.049-4.175,0.732-3.995-2.74c0.292-5.627,7.826-3.639,11.21-3.933c1.663-0.143,2.233-2.715,0.415-3.135
	c-0.003,0-0.006-0.001-0.009-0.002c-0.148-5.43-0.102-10.863-0.203-16.31c-0.05-2.687-0.245-5.375-0.237-8.051
	c0.004-1.358,0.186-2.026-0.566-3.218c-0.162-0.256-0.567-0.296-0.719,0c-1.898,3.698-1.686,7.121-1.763,11.269
	c-0.054,2.949,0.282,6.099-0.312,8.978c-0.463,2.247-0.713,4.356-0.814,6.639c-3.136-0.157-6.171,0.485-8.85,2.798
	c-1.795,1.549-1.85,3.803-1.771,6.056c0.001,0.04,0.001,0.083,0.002,0.123c-0.95-0.157-1.892-0.085-2.978-0.068
	c-1.66,0.027-3.336-0.091-4.99-0.041c-0.756,0.023-1.196,0.245-1.675,0.496c0.002-0.171,0.003-0.351,0.009-0.511
	c0.078-2.251,0.023-4.506-1.772-6.056c-2.679-2.313-5.715-2.954-8.85-2.798c-0.102-2.284-0.352-4.392-0.814-6.639
	c-0.592-2.879-0.257-6.029-0.312-8.978c-0.077-4.147,0.136-7.571-1.763-11.269c-0.152-0.296-0.558-0.256-0.719,0
	c-0.752,1.192-0.571,1.86-0.566,3.218c0.008,2.676-0.188,5.364-0.237,8.051c-0.1,5.447-0.055,10.881-0.203,16.31
	c-0.003,0.001-0.006,0.001-0.009,0.002c-1.818,0.42-1.248,2.991,0.415,3.135c3.385,0.293,10.918-1.695,11.21,3.933
	c0.181,3.473-1.628,2.788-3.994,2.74c-2.024-0.042-3.629,0.212-5.565,0.812c-2.093,0.648-4.029,0.86-6.207,0.806
	c-2.6-0.064-4.337,0.364-5.024-2.588c-0.481-2.065,0.114-4.445,0.082-6.546c-0.035-2.24-0.765-4.284-0.882-6.499
	c-0.206-3.891-0.031-8.077,0.323-11.934c0.395-4.312,0.276-8.89,1.24-13.127c1.576-6.929,9.454-9.601,15.141-13.315
	c1.907,1.285,4.544,1.643,5.801,3.452c1.797,2.588,0.009,6.509,1.245,9.279c1.058,2.374,3.428,3.222,5.737,2.506
	c0.217-0.067,0.39-0.171,0.54-0.291c0.15,0.121,0.323,0.224,0.54,0.291c2.309,0.716,4.678-0.132,5.737-2.506
	c1.235-2.77-0.552-6.691,1.245-9.279c1.257-1.809,3.893-2.168,5.8-3.452C129.639,240.146,137.518,242.818,139.094,249.747z
	 M130.404,341.179c0.348,1.07,1.124,2.529,1.626,3.931c-2.38,0.057-4.689,0.037-7.165-0.06c-2.347-0.092-5.404-0.093-7.962-0.584
	c0.003-3.375,2.466-5.425,2.864-8.782c0.498-4.207,0.323-9.013,0.123-13.242c-0.216-4.569-0.194-9.288-0.803-13.836
	c-0.571-4.265-0.376-11.192,2.309-14.587c0.033-0.043,0.058-0.087,0.087-0.131c0.547-0.046,1.082-0.09,1.577-0.077
	c1.843,0.047,3.561,0.619,5.286,1.196c1.581,0.828,2.839,1.878,3.452,4.225c0.641,2.456,0.455,5.037,0.491,7.541
	c0.066,4.539-0.823,8.879-1.219,13.427c-0.397,4.553-1.546,9.107-1.751,13.661C129.205,336.406,129.621,338.779,130.404,341.179z
	 M105.803,295.08c0.057,0.013,0.155,0.03,0.328,0.055c0.625,0.091,1.15,0.327,1.835,0.352c2.387,0.087,5.283,0.338,7.848-0.186
	c-0.297,0.916-0.437,1.911-0.533,2.963c-0.005-0.002-0.009-0.005-0.014-0.008c-1.743-0.684-3.629,0.28-5.451,0.08
	c-1.399-0.153-2.575-0.239-3.821,0.07c-0.1-1.192-0.255-2.313-0.617-3.33C105.587,295.082,105.72,295.082,105.803,295.08z
	 M105.501,291.353c0.126-0.465,0.187-0.97,0.227-1.479c0.581-0.083,1.237-0.329,1.753-0.325c2.528,0.017,5.494,0.708,8.034,0.146
	c0.05,0.723,0.15,1.438,0.38,2.061c-3.159-0.326-6.367-0.282-9.476-0.463C106.093,291.275,105.793,291.305,105.501,291.353z
	 M105.469,328.062c0.02-3.076,0.263-5.999,0.548-9.049c0.313-3.336-0.126-6.614,0.271-9.979c0.283-2.39,0.251-4.616-0.01-7.021
	c-0.024-0.216-0.041-0.428-0.06-0.642c1.298,0.417,2.728,0.724,3.967,0.838c1.469,0.136,3.393,0.036,4.832-0.586
	c-0.013,0.131-0.023,0.259-0.037,0.389c-0.261,2.405-0.292,4.631-0.01,7.021c0.398,3.363-0.041,6.642,0.272,9.979
	c0.285,3.049,0.529,5.972,0.548,9.049c0.018,2.728,0.635,6.623-0.684,8.967c-1.654,2.937-3.173,5.321-3.204,8.62
	c-0.769-0.016-1.542-0.044-2.321-0.091c-0.077-0.004-0.154-0.001-0.231-0.005c-0.06-3.248-1.562-5.615-3.198-8.523
	C104.834,334.685,105.452,330.79,105.469,328.062z M90.191,320.202c-0.396-4.548-1.285-8.888-1.219-13.427
	c0.036-2.505-0.15-5.086,0.491-7.541c0.613-2.348,1.87-3.397,3.452-4.225c1.726-0.577,3.443-1.149,5.286-1.196
	c0.496-0.013,1.03,0.029,1.577,0.077c0.029,0.043,0.054,0.087,0.087,0.131c2.686,3.395,2.88,10.322,2.309,14.587
	c-0.608,4.548-0.587,9.267-0.804,13.836c-0.2,4.228-0.375,9.034,0.123,13.242c0.397,3.357,2.861,5.407,2.864,8.782
	c-2.557,0.491-5.615,0.492-7.962,0.584c-2.477,0.096-4.787,0.118-7.165,0.06c0.5-1.4,1.276-2.861,1.626-3.931
	c0.783-2.399,1.199-4.773,1.085-7.314C91.737,329.309,90.588,324.756,90.191,320.202z M94.111,227.105
	c0.421,2.075,0.339,4.455,1.07,6.487c-0.684,0.366-1.376,0.782-2.144,1.113c-1.95,0.84-3.817,1.709-5.708,2.611
	c0.673-4.778,0.423-9.737,1.266-14.527c0.677-3.85,1.243-7.359,3.908-10.313c0.906-1.004,1.895-1.91,2.902-2.797
	C93.297,215.109,93.031,221.773,94.111,227.105z M113.702,243.205c-0.225,1.058-0.44,1.917-0.547,2.259
	c-0.341,1.101-0.729,2.102-1.812,2.48c-0.727,0.253-1.816,0.09-2.68-0.263c-1.969-2.276-0.515-6.712-1.387-9.756
	c0.099-0.868,0.333-1.655,1.011-2.173c1.54-1.178,3.307-0.62,5.016-0.161c0.167,0.205,0.397,0.361,0.644,0.453
	c0.239,0.09,0.379,0.412,0.448,0.876c-0.018,0.031-0.041,0.059-0.057,0.091C113.455,238.679,113.693,241.022,113.702,243.205z
	 M122.456,227.452c-0.667,3.194-0.402,4.71-3.498,6.091c-0.774,0.345-1.626,0.749-2.412,1.25c-0.015-0.139-0.05-0.278-0.129-0.41
	c-1.708-2.824-7.06-2.73-9.487-1c-0.667,0.476-1.155,1.148-1.494,1.918c-0.957-0.754-2.115-1.304-3.135-1.758
	c-3.096-1.38-2.831-2.896-3.498-6.091c-1.182-5.666-2.29-12.56,0.317-18.048c1.251-2.633,3.276-3.909,5.541-4.854
	c-0.551,3.094,0.017,7.676,3.142,7.793c1.897,0.071,4.411,0.987,6.204,0.014c1.525-0.828,1.937-2.593,2.029-4.22
	c0.072-1.27-0.074-2.552-0.288-3.801c-0.008-0.043-0.013-0.087-0.019-0.131c2.609,0.988,4.998,2.235,6.407,5.199
	C124.746,214.892,123.638,221.786,122.456,227.452z M107.461,204.418c0.255-1.032,0.785-1.217,1.746-1.395
	c0.572-0.107,1.425-0.321,2.134-0.308c0.058,0.08,0.132,0.154,0.223,0.219c0.265,0.188,0.596,0.187,0.829,0.341
	c0.355,0.235,0.236-0.023,0.475,0.518c0.438,0.99,0.397,2.559,0.392,3.635c-0.005,1.074,0.068,2.267-1.163,2.446
	c-1.046,0.152-2.273-0.437-3.342-0.482c-0.41-0.017-0.75,0.099-0.98-0.146c-0.176-0.187-0.196-0.854-0.243-1.151
	C107.363,207.003,107.195,205.496,107.461,204.418z M119.702,202.015c-0.672-0.366-1.38-0.686-2.129-0.961
	c-1.478-0.54-3.27-1.11-4.859-1.16c-0.138-0.004-2.134,0.045-2.066,0.417c-0.005,0.005-0.012,0.012-0.017,0.018
	c-0.005-0.006-0.012-0.012-0.017-0.018c0.068-0.373-1.929-0.422-2.066-0.417c-1.588,0.049-3.382,0.619-4.859,1.16
	c-0.75,0.274-1.457,0.595-2.129,0.961c0.224-1.295,0.291-2.611,0.216-3.75c-0.271-4.07-1.376-8.856,2.103-11.32
	c1.916-0.723,3.842-1.737,5.83-1.949c2.158-0.232,4.088,0.452,6.052,1.031c0.091,0.071,0.188,0.132,0.29,0.174
	c5.092,2.117,3.739,7.54,3.438,12.065C119.411,199.403,119.479,200.72,119.702,202.015z M80.465,327.56
	c-0.149-5.956-0.182-12.094,0.225-18.015c0.259-3.756-0.184-6.147,4.325-8.121c0.2-0.087,0.393-0.156,0.588-0.228
	c-0.113,0.892-0.196,1.781-0.274,2.631c-0.255,2.792-0.781,5.289-0.603,8.076c0.407,6.334,0.654,12.705,1.382,19.041
	c0.428,3.721,0.299,6.961-0.968,10.548c-0.672,1.905-1.37,3.287-1.468,5.034c-0.543,0.033-1.088,0.043-1.649-0.014
	c-1.662-0.171-1.061,0.984-1.503-0.662c-0.191-0.712,0.427-2.659,0.485-3.355C81.428,337.45,80.589,332.515,80.465,327.56z
	 M226.029,370.492c-0.013,4.307-0.545,8.474-0.7,12.749c-0.064,1.76,0.299,3.844-0.077,5.56c-0.703,3.213-1.664,2.632-4.798,3.075
	c-1.343,0.19-2.671,0.367-3.993,0.556c-7.844-0.719-15.885,0.663-23.703,0.627c-10.295-0.049-20.59,0.03-30.885,0.079
	c-19.086,0.09-38.046,1.766-57.165,1.576c-10.758-0.107-21.584,0.44-32.333-0.058c-1.706-0.08-3.844,0.108-5.3-1.029
	c-1.458-1.139-1.189-1.338-1.405-3.672c-0.434-4.665-0.839-9.202-0.987-13.898c-0.134-4.242-0.488-8.533-0.369-12.763
	c0.059-2.145-0.038-4.583,0.7-6.615c1.41-3.882,3.747-3.867,7.167-4.337c2.635-0.362,5.283-0.494,7.936-0.613
	c1.358,0.181,2.907,0.027,4.385-0.228c0.222-0.014,0.444-0.022,0.667-0.038c0.752-0.053,1.455-0.15,2.142-0.264
	c1.945,0.015,3.936-0.305,6.001-0.228c5.149,0.192,10.253-1.012,15.355-0.778c3.097,0.141,6.129,0.778,9.245,0.658
	c1.989-0.076,3.95-0.286,5.923-0.427c2.301,0.169,4.538,0.095,6.785-0.016c0.177,0.011,0.353,0.021,0.53,0.031
	c0.488,0.115,1.009,0.186,1.632,0.201c0.095,0.038,0.186,0.08,0.293,0.101c2.617,0.534,7.124,1.791,9.793,0.489
	c3.467,0.022,6.924,0.019,10.392,0.16c0.949,0.038,1.824,0.159,2.648,0.218c2.371,0.564,5.576-0.174,7.877-0.678
	c5.014,0.033,10.026,0.079,15.034,0.09c5.962,0.013,11.968,0.26,17.926,0.065c3.253-0.107,6.752,0.505,9.897-0.387
	c1.412,0.121,2.829,0.233,4.248,0.334c2.417,0.53,5.614,1.18,7.869,0.434c0.91,0.037,1.827,0.083,2.729,0.108
	c2.427,0.068,2.543-0.456,3.22,2.054c0.37,1.372,0.594,2.914,0.844,4.33C226.236,361.871,226.041,366.5,226.029,370.492z
	 M135.932,303.828c-0.078-0.851-0.161-1.739-0.274-2.631c0.194,0.071,0.387,0.141,0.587,0.228c4.51,1.974,4.067,4.365,4.325,8.121
	c0.408,5.921,0.373,12.058,0.225,18.015c-0.123,4.955-0.963,9.889-0.541,14.936c0.056,0.674,0.633,2.517,0.494,3.277
	c-1.095-0.009-2.193-0.051-3.292-0.11c-0.235-1.363-0.779-2.595-1.335-4.17c-1.266-3.588-1.396-6.827-0.968-10.548
	c0.729-6.335,0.975-12.708,1.382-19.041C136.713,309.116,136.186,306.62,135.932,303.828z M161.197,311.903
	c0.407,6.334,0.653,12.705,1.382,19.041c0.427,3.721,0.299,6.961-0.968,10.548c-0.545,1.541-1.087,2.748-1.333,4.075
	c-1.106,0-2.21,0.009-3.316,0.012c-0.031-0.845,0.464-2.461,0.516-3.084c0.422-5.047-0.417-9.981-0.54-14.936
	c-0.149-5.956-0.182-12.094,0.224-18.015c0.259-3.756-0.184-6.147,4.325-8.121c0.2-0.087,0.394-0.156,0.588-0.228
	c-0.113,0.892-0.196,1.781-0.274,2.631C161.545,306.62,161.019,309.116,161.197,311.903z M157.076,274.808
	c-0.206-3.891-0.031-8.077,0.321-11.934c0.395-4.312,0.276-8.89,1.24-13.127c1.576-6.929,9.454-9.601,15.141-13.315
	c1.907,1.285,4.544,1.643,5.801,3.452c1.797,2.588,0.009,6.509,1.245,9.279c1.059,2.374,3.428,3.222,5.737,2.506
	c0.218-0.067,0.39-0.171,0.54-0.291c0.15,0.121,0.323,0.224,0.54,0.291c2.309,0.716,4.678-0.132,5.737-2.506
	c1.235-2.77-0.552-6.691,1.245-9.279c1.257-1.809,3.894-2.168,5.801-3.452c5.687,3.715,13.565,6.387,15.141,13.315
	c0.963,4.237,0.845,8.815,1.24,13.127c0.354,3.858,0.527,8.045,0.321,11.934c-0.118,2.216-0.848,4.259-0.882,6.499
	c-0.032,2.101,0.563,4.482,0.082,6.546c-0.688,2.951-2.425,2.524-5.025,2.588c-2.178,0.053-4.114-0.159-6.205-0.806
	c-1.936-0.6-3.541-0.853-5.565-0.812c-2.368,0.049-4.175,0.732-3.995-2.74c0.292-5.627,7.826-3.639,11.21-3.933
	c1.663-0.143,2.233-2.715,0.415-3.135c-0.003,0-0.006-0.001-0.009-0.002c-0.148-5.43-0.102-10.863-0.203-16.31
	c-0.05-2.687-0.245-5.375-0.237-8.051c0.003-1.358,0.186-2.026-0.566-3.218c-0.161-0.256-0.567-0.296-0.719,0
	c-1.898,3.698-1.686,7.121-1.763,11.269c-0.054,2.949,0.282,6.099-0.312,8.978c-0.463,2.247-0.713,4.356-0.814,6.639
	c-3.136-0.157-6.171,0.485-8.85,2.798c-1.795,1.549-1.85,3.803-1.772,6.056c0.001,0.04,0.002,0.083,0.003,0.123
	c-0.95-0.157-1.892-0.085-2.978-0.068c-1.66,0.027-3.336-0.091-4.99-0.041c-0.756,0.023-1.196,0.245-1.675,0.496
	c0.002-0.171,0.003-0.351,0.009-0.511c0.078-2.251,0.023-4.506-1.772-6.056c-2.679-2.313-5.715-2.954-8.85-2.798
	c-0.102-2.284-0.352-4.392-0.814-6.639c-0.593-2.879-0.257-6.029-0.312-8.978c-0.077-4.147,0.136-7.571-1.763-11.269
	c-0.152-0.296-0.558-0.256-0.719,0c-0.752,1.192-0.57,1.86-0.566,3.218c0.008,2.676-0.188,5.364-0.237,8.051
	c-0.1,5.447-0.055,10.881-0.203,16.31c-0.003,0.001-0.006,0.001-0.009,0.002c-1.818,0.42-1.248,2.991,0.415,3.135
	c3.385,0.293,10.918-1.695,11.21,3.933c0.181,3.473-1.628,2.788-3.994,2.74c-2.024-0.042-3.629,0.212-5.565,0.812
	c-2.093,0.648-4.028,0.86-6.205,0.806c-2.6-0.064-4.337,0.364-5.025-2.588c-0.481-2.065,0.114-4.445,0.082-6.546
	C157.924,279.068,157.194,277.024,157.076,274.808z M170.582,227.105c0.421,2.075,0.339,4.455,1.07,6.487
	c-0.684,0.366-1.376,0.782-2.144,1.113c-1.95,0.84-3.816,1.709-5.708,2.611c0.673-4.778,0.423-9.737,1.266-14.527
	c0.677-3.85,1.244-7.359,3.908-10.313c0.906-1.004,1.895-1.91,2.903-2.797C169.767,215.109,169.502,221.773,170.582,227.105z
	 M196.173,202.015c-0.672-0.366-1.38-0.686-2.129-0.961c-1.478-0.54-3.27-1.11-4.859-1.16c-0.138-0.004-2.134,0.045-2.066,0.417
	c-0.005,0.005-0.012,0.012-0.017,0.018c-0.005-0.006-0.012-0.012-0.017-0.018c0.068-0.373-1.929-0.422-2.066-0.417
	c-1.588,0.049-3.382,0.619-4.859,1.16c-0.75,0.274-1.457,0.595-2.129,0.961c0.223-1.295,0.291-2.611,0.215-3.75
	c-0.271-4.07-1.376-8.856,2.103-11.32c1.916-0.723,3.842-1.737,5.83-1.949c2.158-0.232,4.088,0.452,6.052,1.031
	c0.091,0.071,0.188,0.132,0.29,0.174c5.092,2.117,3.739,7.54,3.438,12.065C195.882,199.403,195.948,200.72,196.173,202.015z
	 M189.73,207.428c-0.005,1.074,0.068,2.267-1.164,2.446c-1.045,0.152-2.273-0.437-3.342-0.482c-0.41-0.017-0.75,0.099-0.98-0.146
	c-0.176-0.187-0.197-0.854-0.243-1.151c-0.168-1.092-0.337-2.598-0.07-3.677c0.255-1.032,0.785-1.217,1.746-1.395
	c0.572-0.107,1.425-0.321,2.134-0.308c0.058,0.08,0.132,0.154,0.223,0.219c0.264,0.188,0.596,0.187,0.829,0.341
	c0.355,0.235,0.236-0.023,0.476,0.518C189.777,204.783,189.735,206.352,189.73,207.428z M181.134,204.55
	c-0.551,3.094,0.017,7.676,3.142,7.793c1.897,0.071,4.411,0.987,6.204,0.014c1.525-0.828,1.937-2.593,2.029-4.22
	c0.072-1.27-0.074-2.552-0.288-3.801c-0.008-0.043-0.013-0.087-0.019-0.131c2.61,0.988,5,2.235,6.407,5.199
	c2.607,5.489,1.499,12.382,0.317,18.048c-0.667,3.194-0.402,4.71-3.498,6.091c-0.773,0.345-1.627,0.749-2.411,1.25
	c-0.015-0.139-0.05-0.278-0.129-0.41c-1.708-2.824-7.061-2.73-9.487-1c-0.667,0.476-1.155,1.148-1.494,1.918
	c-0.956-0.754-2.114-1.304-3.135-1.758c-3.096-1.38-2.831-2.896-3.498-6.091c-1.182-5.666-2.29-12.56,0.317-18.048
	C176.843,206.771,178.869,205.495,181.134,204.55z M190.172,243.205c-0.225,1.058-0.44,1.917-0.547,2.259
	c-0.342,1.101-0.729,2.102-1.812,2.48c-0.727,0.253-1.816,0.09-2.68-0.263c-1.967-2.276-0.515-6.712-1.387-9.756
	c0.099-0.868,0.333-1.655,1.011-2.173c1.54-1.178,3.307-0.62,5.016-0.161c0.166,0.205,0.397,0.361,0.644,0.453
	c0.241,0.09,0.379,0.412,0.448,0.876c-0.017,0.031-0.041,0.059-0.057,0.091C189.926,238.679,190.164,241.022,190.172,243.205z
	 M202.249,209.471c2.416,2.127,4.817,4.541,6.091,7.47c1.171,2.691,0.703,6.363,0.924,9.404c0.252,3.469,0.297,7.052,0.286,10.569
	c-1.603-0.758-3.199-1.494-4.855-2.208c-0.768-0.331-1.46-0.747-2.144-1.113c0.73-2.032,0.649-4.412,1.07-6.487
	C204.715,221.705,204.43,214.938,202.249,209.471z M206.874,341.179c0.348,1.07,1.124,2.529,1.626,3.931
	c-2.378,0.057-4.689,0.037-7.165-0.06c-2.347-0.092-5.404-0.093-7.962-0.584c0.003-3.375,2.467-5.425,2.864-8.782
	c0.498-4.207,0.323-9.013,0.123-13.242c-0.216-4.569-0.194-9.288-0.803-13.836c-0.571-4.265-0.376-11.192,2.309-14.587
	c0.033-0.043,0.058-0.087,0.087-0.131c0.547-0.046,1.082-0.09,1.577-0.077c1.843,0.047,3.561,0.619,5.286,1.196
	c1.581,0.828,2.839,1.878,3.452,4.225c0.641,2.456,0.455,5.037,0.491,7.541c0.066,4.539-0.823,8.879-1.219,13.427
	c-0.397,4.553-1.546,9.107-1.751,13.661C205.676,336.406,206.092,338.779,206.874,341.179z M182.274,295.08
	c0.057,0.013,0.155,0.03,0.328,0.055c0.625,0.091,1.151,0.327,1.836,0.352c2.386,0.087,5.283,0.338,7.848-0.186
	c-0.297,0.916-0.437,1.911-0.533,2.963c-0.005-0.002-0.009-0.005-0.013-0.008c-1.743-0.684-3.629,0.28-5.452,0.08
	c-1.399-0.153-2.575-0.239-3.821,0.07c-0.101-1.192-0.255-2.313-0.617-3.33C182.058,295.082,182.191,295.082,182.274,295.08z
	 M181.971,291.353c0.126-0.465,0.187-0.97,0.227-1.479c0.581-0.083,1.237-0.329,1.753-0.325c2.528,0.017,5.494,0.708,8.034,0.146
	c0.05,0.723,0.15,1.438,0.38,2.061c-3.159-0.326-6.367-0.282-9.477-0.463C182.562,291.275,182.264,291.305,181.971,291.353z
	 M181.94,328.062c0.02-3.076,0.263-5.999,0.548-9.049c0.312-3.336-0.126-6.614,0.271-9.979c0.283-2.39,0.251-4.616-0.01-7.021
	c-0.024-0.216-0.041-0.428-0.06-0.642c1.298,0.417,2.728,0.724,3.967,0.838c1.47,0.136,3.393,0.036,4.832-0.586
	c-0.012,0.131-0.023,0.259-0.037,0.389c-0.261,2.405-0.292,4.631-0.01,7.021c0.398,3.363-0.041,6.642,0.271,9.979
	c0.286,3.049,0.529,5.972,0.549,9.049c0.018,2.728,0.635,6.623-0.684,8.967c-1.591,2.826-3.046,5.147-3.183,8.256
	c-0.865,0.04-1.726,0.082-2.582,0.124c-0.102-3.172-1.578-5.516-3.19-8.38C181.305,334.685,181.922,330.79,181.94,328.062z
	 M166.662,320.202c-0.396-4.548-1.285-8.888-1.219-13.427c0.036-2.505-0.15-5.086,0.491-7.541c0.613-2.348,1.87-3.397,3.452-4.225
	c1.726-0.577,3.443-1.149,5.286-1.196c0.496-0.013,1.03,0.029,1.577,0.077c0.029,0.043,0.054,0.087,0.087,0.131
	c2.686,3.395,2.88,10.322,2.309,14.587c-0.608,4.548-0.587,9.267-0.803,13.836c-0.2,4.228-0.375,9.034,0.123,13.242
	c0.397,3.357,2.861,5.407,2.864,8.782c-2.557,0.491-5.614,0.492-7.962,0.584c-2.477,0.096-4.787,0.118-7.165,0.06
	c0.501-1.4,1.276-2.861,1.624-3.931c0.783-2.399,1.199-4.773,1.085-7.314C168.208,329.309,167.059,324.756,166.662,320.202z
	 M212.403,303.828c-0.078-0.851-0.162-1.739-0.274-2.631c0.194,0.071,0.388,0.141,0.587,0.228c4.51,1.974,4.067,4.365,4.325,8.121
	c0.408,5.921,0.373,12.058,0.225,18.015c-0.124,4.955-0.962,9.889-0.54,14.936c0.057,0.687,0.658,2.593,0.489,3.324
	c-1.082-0.094-2.17-0.159-3.276-0.163c-0.237-1.362-0.79-2.59-1.346-4.165c-1.266-3.588-1.396-6.827-0.968-10.548
	c0.729-6.335,0.975-12.708,1.382-19.041C213.184,309.116,212.657,306.62,212.403,303.828z M267.747,338.066
	c-0.027,3.098-0.177,6.131-0.598,9.203c-1.28,9.35-1.947,18.73-1.073,28.187c0.375,4.056-1.294,10.702-0.469,15.772
	c-6.404-0.27-12.784-0.271-19.217,0c0.825-5.071-0.844-11.717-0.469-15.772c0.875-9.458,0.207-18.838-1.073-28.187
	c-0.421-3.071-0.571-6.105-0.598-9.203c-0.013-1.564-0.631-6.346,0.239-7.141c1.865-1.702,8.174-0.707,11.508-0.89
	c3.334,0.182,9.643-0.812,11.508,0.89C268.378,331.72,267.761,336.502,267.747,338.066z M280.2,385.744
	c-0.017,2.141-0.086,4.747,0.539,6.999c-1.094-0.155-2.192-0.279-3.294-0.341c-2.516-0.139-5.625,0.517-6.886-2.171
	c-1.001-2.134-0.366-6.152-0.046-8.381c0.585-4.078-0.015-7.995-0.059-12.115c-0.053-4.925,0.413-9.564,0.951-14.446
	c0.52-4.72,1.128-9.558,1.3-14.328c0.123-3.444,1.136-9.003-0.153-12.25c-1.902-4.79-11.821-4.029-16.552-3.195
	c-4.732-0.834-14.651-1.595-16.552,3.195c-1.288,3.247-0.276,8.806-0.152,12.25c0.171,4.77,0.779,9.609,1.299,14.328
	c0.537,4.882,1.003,9.521,0.951,14.446c-0.044,4.12-0.644,8.038-0.059,12.115c0.319,2.229,0.954,6.248-0.046,8.381
	c-1.262,2.688-4.37,2.032-6.886,2.171c-1.102,0.061-2.199,0.186-3.294,0.341c0.626-2.252,0.557-4.858,0.539-6.999
	c-0.047-5.801,0.666-11.492,0.317-17.324c-0.263-4.416-0.798-8.842-1.679-13.172c2.288-10.61-0.45-21.899,1.107-32.509
	c0.198-1.354,0.312-5.243,1.509-6.349c1.335-1.233,6.169-0.875,7.775-0.98c3.321-0.218,6.6-1.191,9.935-1.179
	c3.621,0.013,7.254,0.215,10.86,0.178c3.195-0.033,6.34,0.791,9.55,1.001c1.606,0.106,6.44-0.252,7.775,0.98
	c1.197,1.106,1.311,4.995,1.509,6.349c1.556,10.612-1.181,21.9,1.107,32.509c-0.88,4.331-1.416,8.757-1.679,13.172
	C279.534,374.251,280.247,379.943,280.2,385.744z M285.975,333.526c0.557-5.95,0.905-13.546-1.943-19.017
	c-2.622-5.038-9.647-4.378-14.507-4.696c-1.918-0.126-5.185-0.675-8.145-0.544c-3.119-0.177-6.369,0.098-9.316,0.004
	c-2.349-0.076-5.707-0.353-8.37,0.428c-0.445,0.046-0.861,0.087-1.222,0.111c-4.859,0.318-11.885-0.341-14.507,4.696
	c-2.848,5.471-2.498,13.067-1.943,19.017c0.372,3.982,0.044,7.846,0.174,11.85c0.01,0.321,0.012,0.643,0.009,0.964
	c-1.536-0.523-3.119-0.176-4.698-0.214c-0.08-2.436-0.7-4.949-0.716-7.337c-0.023-3.378,0.26-6.585,0.429-9.914
	c0.393-7.753-0.875-15.61-1.772-23.254c-0.234-2-0.717-4.007-2.252-5.402c-1.671-1.52-3.625-1.309-5.532-1.685
	c-0.183-0.785-0.41-1.55-0.709-2.264c4.534,0.194,9.117-0.059,10.58-5.315c0.892-3.203,0.194-6.408,0.217-9.651
	c0.023-3.156,0.724-6.024,0.351-9.224c-0.785-6.725-1.539-13.518-1.652-20.293c-0.105-6.252-1.673-10.06-6.914-12.934
	c-0.191-4.235-0.344-8.53-0.668-12.751c-0.209-2.739-0.07-6.456-0.939-9.089c-1.906-5.777-7.968-8.891-12.283-12.374
	c-0.057-2.143-0.019-4.43,0.096-6.41c0.157-2.689,0.509-5.447,0.094-8.145c-0.33-2.145-1.096-4.224-2.368-5.485
	c-0.092-0.395-0.326-0.752-0.743-0.969c-3.402-1.771-7.212-3.07-11.06-2.512c-2.218,0.321-4.782,1.009-6.8,2.331
	c-2.589,0.475-4.013,3.484-4.497,6.635c-0.415,2.698-0.064,5.456,0.094,8.145c0.119,2.034,0.156,4.394,0.093,6.588
	c-3.122,1.907-6.312,3.98-9.069,6.248c-2.608,2.144-2.543,4.644-3.072,7.847c-1.126,6.829-3.407,14.008-3.352,20.945
	c-3.953,2.755-5.213,6.376-5.306,11.93c-0.113,6.775-0.867,13.567-1.652,20.293c-0.373,3.198,0.328,6.067,0.351,9.224
	c0.023,3.241-0.675,6.448,0.217,9.651c1.464,5.255,6.048,5.508,10.581,5.315c-0.3,0.714-0.525,1.479-0.709,2.264
	c-1.907,0.375-3.862,0.166-5.532,1.685c-1.535,1.395-2.018,3.403-2.252,5.402c-0.897,7.642-2.165,15.499-1.772,23.254
	c0.168,3.33,0.451,6.536,0.429,9.914c-0.014,2.214-0.537,4.536-0.678,6.805c-2.575,0.019-5.147,0.067-7.721,0.121
	c-0.127-2.306-0.676-4.672-0.691-6.926c-0.023-3.378,0.26-6.585,0.429-9.914c0.394-7.753-0.875-15.61-1.771-23.254
	c-0.234-2-0.718-4.007-2.252-5.402c-1.672-1.52-3.625-1.309-5.532-1.685c-0.183-0.785-0.41-1.55-0.709-2.264
	c4.534,0.194,9.117-0.059,10.58-5.315c0.892-3.203,0.194-6.408,0.217-9.651c0.023-3.156,0.724-6.024,0.351-9.224
	c-0.786-6.725-1.539-13.518-1.652-20.293c-0.105-6.252-1.673-10.06-6.915-12.934c-0.191-4.235-0.344-8.53-0.667-12.751
	c-0.209-2.739-0.071-6.456-0.939-9.089c-1.906-5.777-7.968-8.891-12.283-12.374c-0.057-2.143-0.019-4.43,0.096-6.41
	c0.157-2.689,0.509-5.447,0.094-8.145c-0.33-2.145-1.096-4.224-2.368-5.485c-0.092-0.395-0.326-0.752-0.743-0.969
	c-2.734-1.424-5.734-2.524-8.804-2.618c0.184-14.319,2.528-28.345,3.423-42.676c0.367-5.879,1.413-11.675,2.001-17.526
	c0.478-4.755,0.855-9.533,1.565-14.258c0.284-1.888,0.567-3.739,0.634-5.597c2.109,0.253,4.238,0.328,6.234,0.298
	c5.002-0.077,10.207-0.526,15.204-0.838c11.917-0.742,23.903-0.441,35.858-0.448c5.257-0.002,10.601-0.297,15.846,0.077
	c4.783,0.34,9.317-0.505,14.085-0.276c7.588,0.364,15.509,0.705,23.208,0.05c7.299-0.234,14.675,0.086,21.988,0.157
	c12.658,0.123,25.372,0.731,38.031,0.189c5.428,0.095,10.883-0.142,16.174-0.396c4.768-0.229,9.302,0.616,14.085,0.276
	c5.245-0.373,10.589-0.079,15.846-0.077c11.955,0.006,23.94-0.294,35.858,0.448c4.996,0.311,10.201,0.762,15.204,0.838
	c1.996,0.03,4.125-0.045,6.234-0.298c0.066,1.859,0.349,3.711,0.633,5.597c0.71,4.724,1.087,9.503,1.566,14.258
	c0.588,5.851,1.633,11.647,2,17.526c0.894,14.33,3.239,28.356,3.424,42.676c-3.07,0.094-6.07,1.195-8.804,2.618
	c-0.417,0.217-0.653,0.574-0.743,0.969c-1.272,1.26-2.038,3.338-2.368,5.485c-0.415,2.698-0.064,5.456,0.094,8.145
	c0.115,1.979,0.153,4.267,0.096,6.41c-4.315,3.483-10.377,6.598-12.283,12.374c-0.868,2.633-0.73,6.35-0.94,9.089
	c-0.323,4.22-0.476,8.516-0.667,12.751c-5.241,2.875-6.81,6.682-6.915,12.934c-0.113,6.775-0.867,13.567-1.652,20.293
	c-0.374,3.198,0.328,6.067,0.349,9.224c0.023,3.241-0.675,6.448,0.217,9.651c1.464,5.255,6.047,5.508,10.58,5.315
	c-0.3,0.714-0.525,1.479-0.709,2.264c-1.907,0.375-3.862,0.166-5.532,1.685c-1.534,1.395-2.018,3.403-2.252,5.402
	c-0.897,7.642-2.165,15.499-1.771,23.254c0.168,3.33,0.451,6.536,0.429,9.914c-0.015,2.254-0.563,4.62-0.691,6.926
	c-2.573-0.055-5.146-0.101-7.721-0.121c-0.141-2.268-0.664-4.591-0.678-6.805c-0.023-3.378,0.26-6.585,0.429-9.914
	c0.393-7.753-0.875-15.61-1.772-23.254c-0.234-2-0.718-4.007-2.252-5.402c-1.671-1.52-3.625-1.309-5.532-1.685
	c-0.183-0.785-0.41-1.55-0.709-2.264c4.534,0.194,9.117-0.059,10.58-5.315c0.892-3.203,0.194-6.408,0.217-9.651
	c0.022-3.156,0.724-6.024,0.349-9.224c-0.785-6.725-1.539-13.518-1.652-20.293c-0.093-5.554-1.354-9.175-5.306-11.93
	c0.055-6.937-2.226-14.116-3.352-20.945c-0.529-3.204-0.464-5.703-3.072-7.847c-2.758-2.267-5.948-4.342-9.069-6.248
	c-0.064-2.193-0.026-4.554,0.093-6.588c0.157-2.689,0.509-5.447,0.094-8.145c-0.484-3.152-1.908-6.16-4.497-6.635
	c-2.019-1.322-4.582-2.01-6.8-2.331c-3.849-0.558-7.658,0.741-11.06,2.512c-0.417,0.217-0.652,0.574-0.743,0.969
	c-1.272,1.26-2.038,3.338-2.368,5.485c-0.415,2.698-0.064,5.456,0.094,8.145c0.115,1.979,0.153,4.267,0.096,6.41
	c-4.315,3.483-10.377,6.598-12.283,12.374c-0.868,2.633-0.73,6.35-0.94,9.089c-0.323,4.22-0.476,8.516-0.668,12.751
	c-5.241,2.875-6.81,6.682-6.914,12.934c-0.113,6.775-0.867,13.567-1.652,20.293c-0.373,3.198,0.328,6.067,0.351,9.224
	c0.023,3.241-0.675,6.448,0.217,9.651c1.464,5.255,6.047,5.508,10.58,5.315c-0.3,0.714-0.525,1.479-0.709,2.264
	c-1.907,0.375-3.862,0.166-5.532,1.685c-1.535,1.395-2.018,3.403-2.252,5.402c-0.897,7.642-2.165,15.499-1.772,23.254
	c0.168,3.33,0.451,6.536,0.429,9.914c-0.015,2.387-0.636,4.901-0.716,7.337c-1.578,0.038-3.162-0.31-4.698,0.214
	c-0.003-0.321-0.001-0.643,0.009-0.964C285.931,341.372,285.602,337.508,285.975,333.526z M416.594,209.679
	c1.006,0.887,1.997,1.793,2.902,2.797c2.665,2.954,3.231,6.462,3.908,10.313c0.844,4.79,0.593,9.749,1.266,14.527
	c-1.892-0.903-3.759-1.771-5.708-2.611c-0.769-0.331-1.46-0.747-2.144-1.113c0.73-2.032,0.649-4.412,1.069-6.487
	C418.966,221.773,418.7,215.109,416.594,209.679z M429.83,249.747c0.963,4.237,0.845,8.815,1.24,13.127
	c0.354,3.858,0.527,8.045,0.321,11.934c-0.118,2.216-0.848,4.259-0.882,6.499c-0.032,2.101,0.563,4.482,0.082,6.546
	c-0.688,2.951-2.425,2.524-5.025,2.588c-2.178,0.053-4.114-0.159-6.205-0.806c-1.936-0.6-3.542-0.853-5.565-0.812
	c-2.368,0.049-4.175,0.732-3.995-2.74c0.292-5.627,7.826-3.639,11.21-3.933c1.663-0.143,2.233-2.715,0.415-3.135
	c-0.003,0-0.006-0.001-0.01-0.002c-0.148-5.43-0.102-10.863-0.203-16.31c-0.05-2.687-0.245-5.375-0.236-8.051
	c0.003-1.358,0.186-2.026-0.566-3.218c-0.162-0.256-0.567-0.296-0.719,0c-1.898,3.698-1.686,7.121-1.763,11.269
	c-0.055,2.949,0.282,6.099-0.312,8.978c-0.463,2.247-0.712,4.356-0.814,6.639c-3.136-0.157-6.171,0.485-8.85,2.798
	c-1.795,1.549-1.85,3.803-1.772,6.056c0.005,0.16,0.006,0.34,0.009,0.511c-0.479-0.251-0.919-0.474-1.675-0.496
	c-1.654-0.051-3.33,0.068-4.99,0.041c-1.086-0.017-2.028-0.09-2.978,0.068c0.001-0.04,0.001-0.083,0.002-0.123
	c0.079-2.251,0.023-4.506-1.771-6.056c-2.679-2.313-5.715-2.954-8.85-2.798c-0.102-2.284-0.352-4.392-0.814-6.639
	c-0.593-2.879-0.257-6.029-0.312-8.978c-0.077-4.147,0.136-7.571-1.763-11.269c-0.152-0.296-0.559-0.256-0.719,0
	c-0.752,1.192-0.571,1.86-0.566,3.218c0.008,2.676-0.188,5.364-0.237,8.051c-0.1,5.447-0.055,10.881-0.203,16.31
	c-0.002,0.001-0.005,0.001-0.009,0.002c-1.818,0.42-1.249,2.991,0.415,3.135c3.385,0.293,10.918-1.695,11.21,3.933
	c0.181,3.473-1.628,2.788-3.994,2.74c-2.024-0.042-3.629,0.212-5.565,0.812c-2.093,0.648-4.029,0.86-6.205,0.806
	c-2.601-0.064-4.337,0.364-5.025-2.588c-0.481-2.065,0.114-4.445,0.082-6.546c-0.035-2.24-0.765-4.284-0.882-6.499
	c-0.206-3.891-0.031-8.077,0.321-11.934c0.395-4.312,0.277-8.89,1.24-13.127c1.576-6.929,9.454-9.601,15.141-13.315
	c1.907,1.285,4.544,1.643,5.801,3.452c1.797,2.588,0.01,6.509,1.245,9.279c1.059,2.374,3.428,3.222,5.737,2.506
	c0.218-0.067,0.39-0.171,0.54-0.291c0.15,0.121,0.323,0.224,0.54,0.291c2.308,0.716,4.678-0.132,5.737-2.506
	c1.235-2.77-0.552-6.691,1.244-9.279c1.257-1.809,3.893-2.168,5.801-3.452C420.376,240.146,428.254,242.818,429.83,249.747z
	 M421.141,341.179c0.348,1.07,1.124,2.529,1.626,3.931c-2.378,0.057-4.69,0.037-7.165-0.06c-2.347-0.092-5.404-0.093-7.962-0.584
	c0.003-3.375,2.467-5.425,2.864-8.782c0.498-4.207,0.323-9.013,0.123-13.242c-0.216-4.569-0.194-9.288-0.804-13.836
	c-0.571-4.265-0.376-11.192,2.309-14.587c0.033-0.043,0.058-0.087,0.087-0.131c0.548-0.046,1.082-0.09,1.578-0.077
	c1.843,0.047,3.561,0.619,5.286,1.196c1.581,0.828,2.84,1.878,3.452,4.225c0.641,2.456,0.455,5.037,0.491,7.541
	c0.066,4.539-0.823,8.879-1.219,13.427c-0.397,4.553-1.546,9.107-1.751,13.661C419.941,336.406,420.357,338.779,421.141,341.179z
	 M405.579,291.294c-3.11,0.181-6.317,0.136-9.476,0.463c0.23-0.623,0.33-1.339,0.38-2.061c2.54,0.562,5.505-0.128,8.034-0.146
	c0.516-0.003,1.173,0.242,1.753,0.325c0.041,0.509,0.101,1.014,0.228,1.479C406.205,291.305,405.905,291.275,405.579,291.294z
	 M406.617,295.079c-0.362,1.017-0.517,2.138-0.617,3.33c-1.246-0.31-2.422-0.223-3.821-0.07c-1.823,0.2-3.708-0.764-5.451-0.08
	c-0.005,0.002-0.009,0.005-0.013,0.008c-0.096-1.052-0.237-2.047-0.533-2.963c2.564,0.523,5.462,0.273,7.848,0.186
	c0.685-0.025,1.211-0.261,1.836-0.352c0.174-0.025,0.271-0.043,0.329-0.055C406.276,295.082,406.409,295.082,406.617,295.079z
	 M396.205,328.062c0.021-3.076,0.263-5.999,0.548-9.049c0.313-3.336-0.126-6.614,0.272-9.979c0.283-2.39,0.251-4.616-0.01-7.021
	c-0.014-0.131-0.025-0.26-0.037-0.389c1.44,0.621,3.363,0.722,4.832,0.586c1.239-0.114,2.67-0.42,3.966-0.838
	c-0.018,0.214-0.036,0.426-0.059,0.642c-0.261,2.405-0.292,4.631-0.01,7.021c0.397,3.363-0.041,6.642,0.271,9.979
	c0.285,3.049,0.529,5.972,0.549,9.049c0.017,2.728,0.634,6.623-0.684,8.967c-1.636,2.908-3.138,5.277-3.198,8.524
	c-0.078,0.004-0.154,0.001-0.231,0.005c-0.779,0.046-1.552,0.074-2.321,0.091c-0.031-3.299-1.551-5.682-3.204-8.62
	C395.57,334.685,396.187,330.79,396.205,328.062z M380.927,320.202c-0.397-4.548-1.285-8.888-1.219-13.427
	c0.036-2.505-0.15-5.086,0.491-7.541c0.613-2.348,1.87-3.397,3.452-4.225c1.726-0.577,3.443-1.149,5.286-1.196
	c0.495-0.013,1.03,0.029,1.577,0.077c0.029,0.043,0.054,0.087,0.087,0.131c2.686,3.395,2.88,10.322,2.309,14.587
	c-0.609,4.548-0.587,9.267-0.803,13.836c-0.201,4.228-0.375,9.034,0.123,13.242c0.398,3.357,2.862,5.407,2.865,8.782
	c-2.557,0.491-5.615,0.492-7.963,0.584c-2.477,0.096-4.786,0.118-7.165,0.06c0.5-1.4,1.276-2.861,1.625-3.931
	c0.782-2.399,1.199-4.773,1.085-7.314C382.474,329.309,381.324,324.756,380.927,320.202z M384.847,227.105
	c0.421,2.075,0.339,4.455,1.07,6.487c-0.684,0.366-1.376,0.782-2.144,1.113c-1.656,0.713-3.252,1.45-4.855,2.208
	c-0.011-3.516,0.033-7.1,0.286-10.569c0.221-3.041-0.246-6.712,0.924-9.404c1.275-2.929,3.675-5.343,6.092-7.47
	C384.037,214.938,383.753,221.705,384.847,227.105z M403.334,247.681c-0.864,0.353-1.953,0.517-2.68,0.263
	c-1.083-0.378-1.471-1.38-1.812-2.48c-0.106-0.343-0.321-1.201-0.547-2.259c0.009-2.183,0.246-4.525-0.633-6.194
	c-0.017-0.031-0.04-0.059-0.058-0.091c0.069-0.464,0.208-0.786,0.448-0.876c0.247-0.092,0.478-0.248,0.645-0.453
	c1.709-0.459,3.474-1.017,5.016,0.161c0.677,0.518,0.911,1.304,1.011,2.173C403.849,240.969,405.303,245.405,403.334,247.681z
	 M413.192,227.452c-0.667,3.194-0.402,4.71-3.498,6.091c-1.019,0.454-2.178,1.005-3.135,1.758c-0.339-0.77-0.827-1.442-1.494-1.918
	c-2.427-1.73-7.779-1.824-9.487,1c-0.08,0.131-0.114,0.271-0.129,0.41c-0.785-0.502-1.637-0.905-2.412-1.25
	c-3.096-1.38-2.831-2.896-3.497-6.091c-1.182-5.666-2.29-12.56,0.317-18.048c1.409-2.965,3.798-4.211,6.407-5.199
	c-0.008,0.043-0.012,0.087-0.019,0.131c-0.212,1.249-0.36,2.532-0.288,3.801c0.092,1.627,0.504,3.392,2.029,4.22
	c1.794,0.974,4.307,0.057,6.204-0.014c3.125-0.117,3.692-4.699,3.142-7.793c2.265,0.945,4.291,2.221,5.541,4.854
	C415.482,214.892,414.374,221.786,413.192,227.452z M399.129,203.793c0.238-0.54,0.121-0.283,0.475-0.518
	c0.233-0.154,0.564-0.153,0.829-0.341c0.092-0.065,0.164-0.139,0.223-0.219c0.709-0.013,1.562,0.203,2.134,0.308
	c0.961,0.178,1.492,0.362,1.746,1.395c0.266,1.078,0.097,2.586-0.071,3.677c-0.045,0.297-0.067,0.963-0.243,1.151
	c-0.23,0.245-0.571,0.128-0.98,0.146c-1.069,0.046-2.295,0.634-3.342,0.482c-1.232-0.179-1.158-1.372-1.164-2.446
	C398.733,206.352,398.691,204.783,399.129,203.793z M410.438,202.015c-0.672-0.366-1.38-0.686-2.129-0.961
	c-1.478-0.54-3.272-1.11-4.859-1.16c-0.138-0.004-2.134,0.045-2.066,0.417c-0.007,0.005-0.012,0.012-0.017,0.018
	c-0.005-0.006-0.012-0.012-0.017-0.018c0.068-0.373-1.929-0.422-2.067-0.417c-1.588,0.049-3.382,0.619-4.858,1.16
	c-0.75,0.274-1.457,0.595-2.129,0.961c0.223-1.295,0.291-2.611,0.215-3.75c-0.301-4.525-1.655-9.947,3.438-12.065
	c0.102-0.042,0.2-0.101,0.29-0.174c1.965-0.579,3.895-1.263,6.052-1.031c1.987,0.214,3.913,1.226,5.83,1.949
	c3.479,2.465,2.374,7.251,2.102,11.32C410.148,199.403,410.215,200.72,410.438,202.015z M371.201,327.56
	c-0.148-5.956-0.182-12.094,0.225-18.015c0.259-3.756-0.184-6.147,4.325-8.121c0.2-0.087,0.394-0.156,0.587-0.228
	c-0.112,0.892-0.196,1.781-0.274,2.631c-0.255,2.792-0.781,5.289-0.603,8.076c0.407,6.334,0.653,12.705,1.382,19.041
	c0.428,3.721,0.299,6.961-0.968,10.548c-0.556,1.576-1.1,2.807-1.335,4.17c-1.099,0.06-2.197,0.102-3.292,0.11
	c-0.139-0.76,0.438-2.603,0.494-3.277C372.164,337.45,371.325,332.515,371.201,327.56z M354.52,342.496
	c0.052,0.622,0.547,2.239,0.516,3.084c-1.106-0.003-2.21-0.012-3.316-0.012c-0.246-1.327-0.79-2.534-1.333-4.075
	c-1.266-3.588-1.396-6.827-0.968-10.548c0.729-6.335,0.975-12.708,1.382-19.041c0.179-2.787-0.348-5.284-0.603-8.076
	c-0.078-0.851-0.161-1.739-0.274-2.631c0.194,0.071,0.388,0.141,0.588,0.228c4.51,1.974,4.066,4.365,4.325,8.121
	c0.408,5.921,0.373,12.058,0.224,18.015C354.937,332.515,354.098,337.45,354.52,342.496z M344.67,341.179
	c0.348,1.07,1.124,2.529,1.624,3.931c-2.378,0.057-4.689,0.037-7.165-0.06c-2.347-0.092-5.404-0.093-7.962-0.584
	c0.003-3.375,2.467-5.425,2.864-8.782c0.498-4.207,0.323-9.013,0.123-13.242c-0.216-4.569-0.194-9.288-0.802-13.836
	c-0.571-4.265-0.376-11.192,2.309-14.587c0.033-0.043,0.058-0.087,0.087-0.131c0.547-0.046,1.082-0.09,1.577-0.077
	c1.843,0.047,3.561,0.619,5.286,1.196c1.581,0.828,2.839,1.878,3.452,4.225c0.641,2.456,0.455,5.037,0.491,7.541
	c0.065,4.539-0.823,8.879-1.219,13.427c-0.397,4.553-1.546,9.107-1.751,13.661C343.47,336.406,343.887,338.779,344.67,341.179z
	 M342.89,289.635c-1.936-0.6-3.541-0.853-5.565-0.812c-2.368,0.049-4.175,0.732-3.995-2.74c0.292-5.627,7.826-3.639,11.21-3.933
	c1.663-0.143,2.233-2.715,0.415-3.135c-0.003,0-0.006-0.001-0.009-0.002c-0.148-5.43-0.102-10.863-0.203-16.31
	c-0.05-2.687-0.244-5.375-0.237-8.051c0.003-1.358,0.186-2.026-0.566-3.218c-0.161-0.256-0.567-0.296-0.719,0
	c-1.898,3.698-1.686,7.121-1.763,11.269c-0.054,2.949,0.282,6.099-0.312,8.978c-0.463,2.247-0.712,4.356-0.814,6.639
	c-3.136-0.157-6.171,0.485-8.85,2.798c-1.795,1.549-1.85,3.803-1.772,6.056c0.005,0.16,0.005,0.34,0.009,0.511
	c-0.479-0.251-0.919-0.474-1.675-0.496c-1.654-0.051-3.33,0.068-4.99,0.041c-1.086-0.017-2.028-0.09-2.978,0.068
	c0.001-0.04,0.001-0.083,0.003-0.123c0.078-2.251,0.023-4.506-1.771-6.056c-2.679-2.313-5.715-2.954-8.85-2.798
	c-0.102-2.284-0.352-4.392-0.814-6.639c-0.593-2.879-0.257-6.029-0.312-8.978c-0.077-4.147,0.136-7.571-1.763-11.269
	c-0.152-0.296-0.559-0.256-0.719,0c-0.752,1.192-0.57,1.86-0.566,3.218c0.008,2.676-0.188,5.364-0.237,8.051
	c-0.1,5.447-0.055,10.881-0.203,16.31c-0.003,0.001-0.005,0.001-0.009,0.002c-1.818,0.42-1.248,2.991,0.415,3.135
	c3.385,0.293,10.918-1.695,11.21,3.933c0.181,3.473-1.628,2.788-3.994,2.74c-2.024-0.042-3.629,0.212-5.565,0.812
	c-2.093,0.648-4.028,0.86-6.205,0.806c-2.6-0.064-4.337,0.364-5.024-2.588c-0.481-2.065,0.113-4.445,0.082-6.546
	c-0.033-2.24-0.765-4.284-0.882-6.499c-0.206-3.891-0.031-8.077,0.321-11.934c0.395-4.312,0.277-8.89,1.24-13.127
	c1.576-6.929,9.454-9.601,15.141-13.315c1.907,1.285,4.544,1.643,5.801,3.452c1.797,2.588,0.009,6.509,1.245,9.279
	c1.059,2.374,3.428,3.222,5.737,2.506c0.218-0.067,0.39-0.172,0.54-0.291c0.15,0.121,0.323,0.224,0.54,0.291
	c2.309,0.716,4.678-0.132,5.737-2.506c1.235-2.77-0.552-6.691,1.245-9.279c1.257-1.809,3.893-2.168,5.801-3.452
	c5.687,3.715,13.565,6.387,15.141,13.315c0.963,4.237,0.845,8.815,1.239,13.127c0.354,3.858,0.529,8.045,0.323,11.934
	c-0.118,2.216-0.849,4.259-0.882,6.499c-0.032,2.101,0.563,4.482,0.082,6.546c-0.688,2.951-2.425,2.524-5.025,2.588
	C346.918,290.495,344.982,290.284,342.89,289.635z M329.108,291.294c-3.11,0.181-6.318,0.136-9.477,0.463
	c0.23-0.623,0.33-1.339,0.38-2.061c2.54,0.562,5.505-0.128,8.034-0.146c0.516-0.003,1.173,0.242,1.753,0.325
	c0.041,0.509,0.1,1.014,0.227,1.479C329.734,291.305,329.435,291.275,329.108,291.294z M330.146,295.079
	c-0.362,1.017-0.516,2.138-0.617,3.33c-1.245-0.31-2.422-0.223-3.821-0.07c-1.823,0.2-3.708-0.764-5.451-0.08
	c-0.005,0.002-0.009,0.005-0.013,0.008c-0.096-1.052-0.237-2.047-0.533-2.963c2.565,0.523,5.462,0.273,7.848,0.186
	c0.685-0.025,1.21-0.261,1.836-0.352c0.173-0.025,0.271-0.043,0.328-0.055C329.806,295.082,329.94,295.082,330.146,295.079z
	 M319.734,328.062c0.021-3.076,0.263-5.999,0.549-9.049c0.312-3.336-0.126-6.614,0.271-9.979c0.283-2.39,0.251-4.616-0.01-7.021
	c-0.014-0.131-0.025-0.26-0.037-0.389c1.44,0.621,3.363,0.722,4.832,0.586c1.239-0.114,2.67-0.42,3.967-0.838
	c-0.019,0.214-0.037,0.426-0.06,0.642c-0.261,2.405-0.293,4.631-0.01,7.021c0.398,3.363-0.041,6.642,0.271,9.979
	c0.286,3.049,0.529,5.972,0.548,9.049c0.018,2.728,0.635,6.623-0.684,8.967c-1.611,2.864-3.087,5.208-3.19,8.38
	c-0.855-0.042-1.716-0.084-2.582-0.124c-0.137-3.109-1.592-5.43-3.183-8.256C319.099,334.685,319.717,330.79,319.734,328.062z
	 M304.458,320.202c-0.397-4.548-1.285-8.888-1.219-13.427c0.036-2.505-0.15-5.086,0.491-7.541c0.613-2.348,1.87-3.397,3.452-4.225
	c1.726-0.577,3.443-1.149,5.286-1.196c0.495-0.013,1.03,0.029,1.577,0.077c0.029,0.043,0.054,0.087,0.087,0.131
	c2.686,3.395,2.88,10.322,2.309,14.587c-0.608,4.548-0.587,9.267-0.802,13.836c-0.2,4.228-0.375,9.034,0.123,13.242
	c0.397,3.357,2.861,5.407,2.864,8.782c-2.557,0.491-5.615,0.492-7.962,0.584c-2.477,0.096-4.787,0.118-7.165,0.06
	c0.5-1.4,1.276-2.861,1.626-3.931c0.782-2.399,1.199-4.773,1.085-7.314C306.003,329.309,304.853,324.756,304.458,320.202z
	 M308.376,227.105c0.421,2.075,0.339,4.455,1.07,6.487c-0.684,0.366-1.376,0.782-2.144,1.113c-1.656,0.713-3.252,1.45-4.855,2.208
	c-0.011-3.516,0.033-7.1,0.286-10.569c0.221-3.041-0.246-6.712,0.924-9.404c1.274-2.929,3.675-5.343,6.091-7.47
	C307.566,214.938,307.283,221.705,308.376,227.105z M333.967,202.015c-0.672-0.366-1.38-0.686-2.129-0.961
	c-1.478-0.54-3.271-1.11-4.859-1.16c-0.137-0.004-2.134,0.045-2.066,0.417c-0.005,0.005-0.012,0.012-0.017,0.018
	c-0.005-0.006-0.012-0.012-0.017-0.018c0.068-0.373-1.929-0.422-2.066-0.417c-1.588,0.049-3.382,0.619-4.859,1.16
	c-0.75,0.274-1.457,0.595-2.129,0.961c0.223-1.295,0.291-2.611,0.215-3.75c-0.301-4.525-1.655-9.947,3.438-12.065
	c0.102-0.042,0.2-0.101,0.29-0.174c1.964-0.579,3.894-1.263,6.052-1.031c1.987,0.214,3.913,1.226,5.83,1.949
	c3.479,2.465,2.374,7.251,2.103,11.32C333.677,199.403,333.744,200.72,333.967,202.015z M327.995,208.095
	c-0.045,0.297-0.067,0.963-0.243,1.151c-0.23,0.245-0.571,0.128-0.98,0.146c-1.069,0.046-2.296,0.634-3.342,0.482
	c-1.232-0.179-1.158-1.372-1.163-2.446c-0.005-1.075-0.047-2.645,0.39-3.635c0.238-0.54,0.121-0.283,0.476-0.518
	c0.233-0.154,0.564-0.153,0.829-0.341c0.092-0.065,0.165-0.139,0.223-0.219c0.709-0.013,1.562,0.203,2.134,0.308
	c0.961,0.178,1.492,0.362,1.746,1.395C328.331,205.496,328.163,207.003,327.995,208.095z M319.795,204.205
	c-0.008,0.043-0.013,0.087-0.019,0.131c-0.212,1.249-0.359,2.532-0.288,3.801c0.092,1.627,0.504,3.392,2.029,4.22
	c1.794,0.974,4.307,0.057,6.204-0.014c3.125-0.117,3.693-4.699,3.142-7.793c2.265,0.945,4.291,2.221,5.541,4.854
	c2.607,5.489,1.499,12.382,0.317,18.048c-0.667,3.194-0.401,4.71-3.498,6.091c-1.019,0.454-2.178,1.005-3.135,1.758
	c-0.339-0.77-0.827-1.442-1.494-1.918c-2.427-1.73-7.779-1.824-9.487,1c-0.079,0.131-0.114,0.271-0.129,0.41
	c-0.785-0.502-1.637-0.905-2.411-1.25c-3.096-1.38-2.831-2.896-3.498-6.091c-1.182-5.666-2.29-12.56,0.317-18.048
	C314.796,206.439,317.186,205.193,319.795,204.205z M326.863,247.681c-0.864,0.353-1.953,0.517-2.68,0.263
	c-1.083-0.378-1.47-1.38-1.812-2.48c-0.106-0.343-0.321-1.201-0.547-2.259c0.009-2.183,0.247-4.525-0.633-6.194
	c-0.017-0.031-0.04-0.059-0.057-0.091c0.069-0.464,0.207-0.786,0.448-0.876c0.247-0.092,0.478-0.248,0.644-0.453
	c1.709-0.459,3.475-1.017,5.016,0.161c0.677,0.518,0.911,1.304,1.011,2.173C327.379,240.969,328.832,245.405,326.863,247.681z
	 M340.123,209.679c1.006,0.887,1.997,1.793,2.903,2.797c2.664,2.954,3.231,6.462,3.908,10.313c0.844,4.79,0.593,9.749,1.266,14.527
	c-1.892-0.903-3.759-1.771-5.708-2.611c-0.768-0.331-1.461-0.747-2.144-1.113c0.73-2.032,0.649-4.412,1.07-6.487
	C342.495,221.773,342.23,215.109,340.123,209.679z M294.731,327.56c-0.149-5.956-0.182-12.094,0.225-18.015
	c0.259-3.756-0.184-6.147,4.325-8.121c0.2-0.087,0.393-0.156,0.587-0.228c-0.113,0.892-0.196,1.781-0.274,2.631
	c-0.255,2.792-0.781,5.289-0.602,8.076c0.407,6.334,0.653,12.705,1.382,19.041c0.428,3.721,0.299,6.961-0.968,10.548
	c-0.557,1.576-1.109,2.802-1.346,4.165c-1.106,0.004-2.194,0.069-3.276,0.163c-0.17-0.731,0.43-2.637,0.489-3.324
	C295.693,337.45,294.854,332.515,294.731,327.56z M447.316,376.055c-0.148,4.695-0.553,9.232-0.987,13.898
	c-0.217,2.334,0.053,2.533-1.405,3.672c-1.455,1.137-3.593,0.95-5.299,1.029c-10.749,0.498-21.574-0.049-32.333,0.058
	c-19.12,0.191-38.081-1.486-57.165-1.576c-10.295-0.049-20.59-0.127-30.885-0.079c-7.818,0.037-15.859-1.346-23.703-0.627
	c-1.323-0.189-2.651-0.366-3.994-0.556c-3.133-0.443-4.095,0.138-4.798-3.075c-0.375-1.716-0.013-3.8-0.077-5.56
	c-0.155-4.275-0.687-8.442-0.7-12.749c-0.012-3.993-0.207-8.622,0.482-12.537c0.249-1.415,0.474-2.957,0.844-4.33
	c0.676-2.509,0.793-1.986,3.22-2.054c0.902-0.025,1.819-0.071,2.729-0.108c2.254,0.745,5.451,0.096,7.869-0.434
	c1.418-0.101,2.836-0.214,4.248-0.334c3.144,0.893,6.642,0.28,9.897,0.387c5.958,0.195,11.964-0.053,17.926-0.065
	c5.008-0.011,10.022-0.056,15.034-0.09c2.303,0.505,5.508,1.243,7.877,0.678c0.824-0.059,1.699-0.18,2.648-0.218
	c3.469-0.14,6.926-0.139,10.393-0.16c2.668,1.302,7.176,0.045,9.793-0.489c0.107-0.022,0.198-0.065,0.292-0.101
	c0.623-0.015,1.146-0.085,1.632-0.201c0.176-0.011,0.353-0.022,0.529-0.031c2.247,0.112,4.484,0.186,6.785,0.016
	c1.973,0.142,3.934,0.352,5.923,0.427c3.116,0.119,6.149-0.517,9.246-0.658c5.102-0.234,10.205,0.97,15.355,0.778
	c2.063-0.077,4.056,0.243,6.001,0.228c0.688,0.113,1.39,0.21,2.142,0.264c0.223,0.015,0.444,0.024,0.667,0.038
	c1.478,0.255,3.027,0.409,4.385,0.228c2.652,0.119,5.299,0.25,7.936,0.613c3.418,0.47,5.757,0.455,7.167,4.337
	c0.738,2.032,0.641,4.47,0.7,6.615C447.803,367.523,447.449,371.813,447.316,376.055z M426.668,303.828
	c-0.078-0.851-0.161-1.739-0.274-2.631c0.194,0.071,0.388,0.141,0.587,0.228c4.51,1.974,4.066,4.365,4.325,8.121
	c0.408,5.921,0.373,12.058,0.224,18.015c-0.124,4.955-0.963,9.889-0.542,14.936c0.059,0.696,0.676,2.643,0.485,3.355
	c-0.441,1.646,0.16,0.491-1.503,0.662c-0.561,0.058-1.107,0.047-1.649,0.014c-0.097-1.747-0.795-3.129-1.468-5.034
	c-1.266-3.588-1.396-6.827-0.968-10.548c0.728-6.335,0.975-12.708,1.382-19.041C427.45,309.116,426.922,306.62,426.668,303.828z
	 M471.273,406.106c-4.063-2.273-8.285-4.53-12.527-6.482c-2.212-1.017-4.388-2.134-6.68-2.809c1.376-2.817,0.925-6.295,1.203-9.312
	c0.379-4.131,0.067-8.265-0.064-12.407c-0.227-7.199-0.712-14.343-2.54-21.336c-1.634-6.255-7.471-6.52-12.976-6.803
	c-0.633-0.032-1.268-0.027-1.904-0.033c0.06-2.679-0.711-5.485-0.727-8.133c-0.023-3.378,0.26-6.585,0.429-9.914
	c0.393-7.753-0.875-15.61-1.772-23.254c-0.234-2-0.718-4.007-2.252-5.402c-1.672-1.52-3.625-1.309-5.532-1.685
	c-0.184-0.785-0.41-1.55-0.709-2.264c4.534,0.194,9.117-0.059,10.58-5.315c0.892-3.203,0.193-6.408,0.217-9.651
	c0.023-3.156,0.724-6.024,0.349-9.224c-0.785-6.725-1.539-13.518-1.652-20.293c-0.094-5.554-1.354-9.175-5.307-11.93
	c0.055-6.937-2.226-14.116-3.352-20.945c-0.529-3.204-0.464-5.703-3.071-7.847c-2.758-2.267-5.948-4.342-9.07-6.248
	c-0.064-2.193-0.026-4.554,0.093-6.588c0.157-2.689,0.509-5.447,0.094-8.145c-0.484-3.152-1.907-6.16-4.497-6.635
	c-1.087-0.712-2.333-1.229-3.597-1.615c0.012-14.653-3.11-28.882-3.969-43.498c-0.347-5.905-1.327-11.691-2.267-17.526
	c-0.732-4.542-1.336-9.114-2.116-13.649c1.479,3.193,2.816,6.379,4.198,9.699c2.194,5.268,4.914,10.214,6.77,15.644
	c0.134,0.394,0.264,0.788,0.395,1.183c1.873,8.043,3.221,16.246,5.161,24.255c2.714,11.199,5.901,22.309,9.04,33.408
	c5.392,19.071,11.886,37.7,14.653,57.437c3.121,22.257,9.373,43.813,15.086,65.521c3.075,11.687,7.075,23.065,9.518,34.94
	c2.651,12.883,6.035,25.281,9.77,37.866c1.907,6.429,3.178,13.124,5.317,19.47c0.503,1.492,1.195,2.924,1.77,4.393
	C476.753,409.206,473.869,407.559,471.273,406.106z M493.039,411.611c-1.491,0.025-4.172,0.457-6.005,0.087
	c-0.01-0.221-0.482-0.866-0.745-1.65c-0.993-2.961-2.318-5.72-3.14-8.76c-3.622-13.401-8.316-26.48-11.761-39.922
	c-1.657-6.468-2.869-13.032-4.393-19.531c-1.253-5.347-3.304-10.39-4.678-15.691c-2.866-11.052-5.759-22.515-9.507-33.281
	c-3.745-10.757-5.085-22.116-7.498-33.18c-2.075-9.519-4.408-19.361-5.703-29.017c-2.457-18.334-11.494-35.586-15.928-53.473
	c-4.299-17.343-7.028-35.055-13.253-51.716c-0.274-0.864-0.538-1.725-0.782-2.581c-1.972-6.916-4.757-13.253-7.68-19.775
	c-0.675-1.084-1.125-2.265-1.365-3.538c1.234-0.047,2.841,0.236,3.744,0.29c4.723,0.28,9.371,0.311,11.739,4.884
	c0.792,1.531,1.39,3.164,1.916,4.835c0.118,4.771,1.698,10.14,2.833,14.755c1.345,5.471,2.553,10.996,3.953,16.449
	c1.452,5.661,3.352,11.202,5.113,16.773c1.841,5.829,2.883,11.84,4.487,17.725c2.805,10.285,6.217,20.415,8.763,30.77
	c2.29,9.32,5.895,18.107,8.529,27.289c5.978,20.846,11.132,41.91,17.046,62.749c5.611,19.77,10.307,39.61,17.17,58.995
	c3.695,10.438,8.375,20.613,11.374,31.283c1.486,5.282,3.383,10.365,5.357,15.47c0.852,2.203,1.456,4.358,1.952,6.664
	c0.225,1.048,0.758,2.533,1.048,3.926C501.426,412.312,497.26,411.54,493.039,411.611z"/>
<path d="M262.654,212.388c-4.164,0.035-8.311-0.531-12.467-0.429c-3.32,0.082-6.561,0.357-8.695,3.262
	c-1.26,1.716-1.853,3.748-2.094,5.854c-1.128,6.034,0.204,13.357,0.565,18.888c0.567,8.7,0.036,17.524,0.338,26.243
	c0.18,5.184-0.743,13.938,5.656,15.272c5.75,1.197,12.858,1.467,18.68,0.957c6.995-0.613,6.642-7.835,7.244-13.492
	c0.995-9.359,1.383-18.948,1.409-28.373c0.015-5.483,0.049-10.967,0.073-16.451c0.014-3.013,1.04-7.555-1.505-9.871
	C269.405,212.013,265.638,212.363,262.654,212.388z M243.709,239.905c-0.079-1.856-0.168-3.713-0.321-5.573
	c-0.277-3.387-0.906-6.877-0.795-10.283c0.146-4.453,1.485-7.192,6.268-7.4c0.689-0.03,1.395,0.006,2.101,0.045
	c-2.8,2.411-4.638,6.747-4.759,10.145c-0.078,2.188,1.29,3.823,1.61,5.875c0.588,3.763-1.865,3.718-3.484,6.094
	C244.096,239.152,243.898,239.525,243.709,239.905z M245.698,276.162c-0.576-0.759-0.56-3.624-0.644-4.637
	c-0.38-4.561-0.464-9.147-0.574-13.732c1.16,0.22,2.452,0.174,3.548-0.216c-0.132,2.621-0.195,5.268-0.142,7.88
	c0.067,3.328-0.69,8.183,0.413,11.708C247.295,277.069,246.217,276.847,245.698,276.162z M268.249,262.512
	c-0.206,3.93-0.071,8.372-1.423,12.154c-0.48,1.343-0.561,2.166-1.596,2.72c0.04-1.445,0.275-2.924,0.287-4.336
	c0.024-2.746-0.046-5.498-0.069-8.244c-0.022-2.632-0.024-5.267-0.084-7.899c0.32-0.035,0.636-0.077,0.931-0.1
	c0.744-0.06,1.566-0.096,2.286-0.306C268.467,258.499,268.355,260.502,268.249,262.512z M268.724,253.754
	c-1.004-0.172-2.145-0.098-3.204-0.092c-0.06-1.013-0.122-2.027-0.234-3.031c-0.097-0.877-0.155-1.692-0.14-2.577
	c0.01-0.576-0.146-1.194-0.208-1.783c0.339-0.922-0.07-2.232-1.098-2.373c-0.069-0.01-0.139-0.019-0.208-0.029
	c-1.204-0.166-2.104,0.456-2.224,1.73c-0.079,0.842,0.2,1.614,0.225,2.454c0.031,1.047,0.126,2.012,0.242,3.048
	c0.083,0.739,0.133,1.475,0.208,2.211c-0.005,0.032-0.018,0.082-0.02,0.108c-0.327,3.448-0.165,7.003-0.194,10.466
	c-0.039,4.598-0.784,9.57-0.568,14.212c-0.784,0.019-1.562,0.008-2.131-0.014c-0.478-0.018-0.955-0.053-1.432-0.086
	c0.711-2.293,0.631-4.576,0.591-7.16c-0.053-3.453,0.334-7.727-1.03-10.899c-0.257-0.596-1.283-0.596-1.538,0
	c-1.454,3.38-0.52,7.287-0.502,10.899c0.011,2.066-0.299,4.735,0.116,6.956c-1.212-0.124-2.426-0.262-3.638-0.376
	c0.875-3.503,0.046-7.891-0.179-11.327c-0.292-4.448,0.427-9.724-0.602-14.2c0.008-0.05,0.015-0.098,0.023-0.148
	c0.08-0.485,0.161-0.964,0.252-1.418c0.305-1.514,0.094-3.392,0.67-4.816c0.861-2.129-2.597-3.133-3.413-0.961
	c-0.368,0.98-0.349,2.103-0.498,3.135c-0.179,1.239-0.26,2.45-0.48,3.697c-0.111,0.631-0.06,1.422-0.306,2.005
	c-0.33,0.784,0.142,0.467-0.653,0.785c-0.508,0.203-1.15,0.318-1.779,0.414c0.145-0.976,0.082-2.01,0.153-3.002
	c0.035-0.482,0.037-0.964,0.029-1.446c0.305-1.339,0.53-2.657,0.708-4.022c0.48-3.672,0.441-3.717,3.219-7.045
	c1.138-1.363,1.965-2,2.301-3.898c0.617-3.499-1.567-6.457-1.649-9.878c-0.115-4.851,2.962-5.958,6.194-7.064
	c1.975,0.078,3.817,0.841,5.089,2.954c1.198,1.989,1.509,4.809,1.352,7.114c-0.071,1.04-0.815,3.351-0.51,4.573
	c0.617,2.471,2.774,3.397,4.287,5.269c2.519,3.119,2.3,7.854,2.981,11.849C268.862,251.243,268.792,252.498,268.724,253.754z
	 M269.303,235.619c0.001,0.316-0.004,0.631-0.004,0.947c-1.864-2.17-4.216-3.021-3.858-6.286c0.271-2.467,0.307-4.797-0.299-7.231
	c-0.607-2.443-1.88-4.84-3.803-6.33c3.269-0.063,7.159-1.06,7.958,2.824C270.292,224.37,269.281,230.655,269.303,235.619z"/>
<g>
</g>
<g>
</g>
<g>
</g>
<g>
</g>
<g>
</g>
<g>
</g>
<g>
</g>
<g>
</g>
<g>
</g>
<g>
</g>
<g>
</g>
<g>
</g>
<g>
</g>
<g>
</g>
<g>
</g>
</svg>
