<?xml version="1.0" encoding="iso-8859-1"?>
<!-- Generator: Adobe Illustrator 19.0.0, SVG Export Plug-In . SVG Version: 6.00 Build 0)  -->
<svg version="1.1" id="Layer_1" xmlns="http://www.w3.org/2000/svg" xmlns:xlink="http://www.w3.org/1999/xlink" x="0px" y="0px"
	 viewBox="0 0 512.005 512.005" style="enable-background:new 0 0 512.005 512.005;" xml:space="preserve">
<path style="fill:#EFC97B;" d="M13.36,409.275c-5.453-20.326-3.951-38.285-3.993-56.161c-0.007-3.117,0.262-6.187,0.284-9.305
	c0.012-1.685-0.519-3.618-2.058-4.306c-1.176-0.526-2.712-0.205-3.66-1.078c-0.643-0.591-0.786-1.582-0.567-2.427
	c0.219-0.845,0.739-1.576,1.274-2.267c2.479-3.208,6.067-5.391,8.488-8.496c2.151-2.757,3.523-6.469,4.499-9.786
	c1.076-3.662,1.631-7.464,1.817-11.273c0.163-3.34-2.043-6.188-1.45-9.665c0.387-2.269,1.816-4.254,3.565-5.751
	c1.817-1.554,3.875-2.437,5.952-3.506c2.139-1.101,4.032-2.873,5.946-4.352c1.239-0.957,12.283-10.422,12.925-9.984
	c6.869,4.69,12.779,9.11,19.063,12.913c7.143,4.324,15.798-0.08,16.533-8.478c0.718-8.22,0.587-16.51,0.989-24.763
	c0.249-5.129,0.56-10.254,0.881-15.379c0.125-1.99,0.272-3.716-0.218-5.638c-0.489-1.923-1.197-4.106-0.19-6.008
	c1.025-1.934,3.525-2.524,5.714-2.488c7.14,0.115,14.087-0.707,21.302-0.181c4.826,0.352,9.667,0.691,14.502,0.317
	c3.335-0.258,7.717,0.564,9.006-3.657c0.839-2.744-1.465-6.082-4.331-5.928c-1.21,0.065-2.404,0.665-3.587,0.401
	c-1.829-0.408-2.608-2.613-2.631-4.487c-0.051-4.172,2.125-8.171,5.325-10.767c3.233-2.623,7.405-2.9,10.834-5.077
	c4.034-2.561,6.087-11.325,2.874-15.162c-0.841-1.004-1.914-1.887-2.325-3.13c-0.619-1.868,0.449-3.838,1.507-5.497
	c2.577-4.042,5.335-7.968,8.262-11.765c2.732-3.543,5.526-7.581,9.12-10.262c3.697-2.757,6.511-7.024,9.495-10.547
	c3.445-4.069,6.876-8.152,10.166-12.348c10.501,1.504,15.046,8.87,20.537,14.605c5.586,5.837,10.624,12.201,17.413,20.091
	c3.297-6.252,6.359-10.317,7.681-14.888c4.104-14.178,13.681-18.528,27.436-17.205c7.46,0.718,15.01,0.549,22.521,0.68
	c36.054,0.627,72.109,1.196,108.161,1.853c4.458,0.081,8.908,0.56,14.734,0.947c2.632,4.981,6.08,9.872,7.916,15.309
	c4.317,12.791,7.949,25.818,11.689,38.796c1.322,4.589,4.287,12.201,0.257,16.143c-1.19,1.164-2.637,2.072-3.678,3.37
	c-1.769,2.205-2.128,5.214-2.102,8.04c0.082,8.898-0.22,17.558-0.832,26.466c-0.329,4.79-0.655,9.579-0.981,14.369
	c-0.156,2.285-0.31,4.571-0.466,6.856c-0.266,3.907-1.65,8.039-2.2,11.978c-0.091,0.655-0.145,1.417,0.327,1.88
	c0.635,0.622,1.694,0.249,2.465-0.191c2.262-1.29,4.691-2.96,7.23-2.381c2.197,0.502,3.043,2.469,4.767,3.624
	c1.855,1.244,4.082,2.174,6.018,3.34c4.881,2.935,9.762,5.872,14.643,8.807c10.948,0.328,15.666-9.456,24.005-12.566
	c1.398-0.521,6.58,2.194,8.072,2.803c2.158,0.882,4.201,1.958,6.103,3.31c2.469,1.754,4.695,3.844,6.883,5.929
	c1.323,1.261,2.588,2.841,4.131,3.798c1.765,1.095,3.657,1.48,5.042,3.19c1.356,1.674,1.659,4.412,0.061,5.857
	c-1.025,0.927-2.588,1.143-3.485,2.194c-0.842,0.986-0.856,2.443-0.566,3.707c0.29,1.265,0.833,2.475,0.96,3.766
	c0.167,1.693-0.395,3.362-0.904,4.986c-0.649,2.073-1.292,4.539,0.014,6.501c1.173,1.763,2.528,1.306,4.195,1.979
	c2.839,1.146,5.98,4.855,8.199,6.995c2.111,2.037,4.52,6.319,0.845,8.194c-0.868,0.443-1.916,0.535-2.669,1.154
	c-1.039,0.854-1.15,2.377-1.179,3.723c-0.189,8.807-0.382,17.659,0.691,26.422c1.045,8.535,0.814,17.227,0.233,25.858
	c-0.755,11.251-3.392,14.106-15.064,15.948c-9.604,1.516-19.408,2.385-29.129,2.436c-46.566,0.246-93.136,0.122-139.704,0.117
	c-88.605-0.007-177.209,0.072-265.815-0.138C40.46,411.613,27.789,410.172,13.36,409.275z"/>
<g>
	<path style="fill:#C17874;" d="M33.662,279.111c-5.162,2.96-12.052,7.147-14.667,12.695c-1.256,2.664-2.226,7.34,1.553,8.188
		c4.7,1.055,11.15-6.389,14.543-9.004c2.163-1.667,5.945-5.556,8.714-5.895c5.53-0.679,10.613,7.777,15.029,10.356
		c3.078,1.798,7.005,3.922,10.606,4.238c2.049,0.18,5.353-0.839,7.202-1.823c3.526-1.877,6.339-5.501,9.501-7.968
		c3.67-2.865,7.806-4.481,12.52-3.928c3.786,0.444,6.689,2.878,9.748,5.098c6.724,4.883,12.976,8.563,21.381,5.15
		c7.748-3.146,18.605-14.933,27.173-8.996c3.657,2.534,5.398,7.844,9.258,9.936c6.237,3.381,13.3,0.94,19.198-1.908
		c3.521-1.701,5.186-5.166,7.86-7.754c4.264-4.126,11.315-6.049,16.616-3.146c5.238,2.869,8.764,8.322,14.262,10.754
		c3.846,1.7,7.076,2.161,11.119,0.923c2.894-0.886,5.938-2.162,8.324-4.077c2.063-1.655,3.693-3.96,6.421-4.608
		c8.375-1.988,14.431,4.086,21.228,7.733c7.445,3.996,16.022,2.679,23.101-1.594c3.019-1.822,6.183-3.944,8.903-6.175
		c1.756-1.441,3.055-3.076,5.302-3.403c6.224-0.904,12.204,4.245,16.21,8.337c3.725,3.804,8.728,5.189,14.228,5.21
		c5.809,0.023,12.991-3.341,16.763-7.718c4.353-5.052,7.363-6.469,13.511-2.752c4.696,2.839,10.205,2.723,15.477,3.387
		c5.845,0.736,11.768,1.611,17.66,0.861c5.248-0.668,8.943-5.577,14.294-4.823c8.622,1.216,14.682,10.117,22.632,13.232
		c7.467,2.926,18.042-4.813,23.515-9.318c4.283-3.525,4.893-8.064,10.812-3.736c3.67,2.684,6.009,6.72,9.477,9.576
		c2.325,1.915,7.467,5.096,10.654,4.085c2.942-0.933,3.171-4.801,2.108-7.103c-1.705-3.69-6.202-5.264-9.161-7.679
		c-4.92-4.016-16.234-14.106-23.03-10.861c-3.968,1.894-8.234,4.317-11.223,7.6c-2.228,2.448-6.914,6.162-10.481,5.609
		c-2.137-0.331-4.161-2.402-6.041-3.467c-2.743-1.552-5.501-3.077-8.134-4.812c-3.997-2.632-9.767-8.48-14.856-8.027
		c-5.778,0.515-9.736,5.926-14.411,8.731c-6.089,3.653-13.022,1.809-18.963-1.131c-5.339-2.642-10.657-6.513-16.439-8.105
		c-3.935-1.083-7.327,1.21-10.149,3.688c-3.121,2.741-5.961,5.124-9.688,7.107c-3.922,2.086-8.341,4.101-12.863,2.891
		c-4.68-1.252-8.379-4.499-11.184-8.296c-2.635-3.568-5.049-7.387-10.051-7.151c-5.134,0.241-8.184,4.678-11.85,7.621
		c-3.441,2.763-8.931,7.4-13.44,8.073c-3.727,0.557-10.188-3.49-13.497-5.319c-4.324-2.39-7.656-6.443-12.248-8.488
		c-12.659-5.637-18.903,12.57-30.284,12.805c-4.974,0.103-8.027-3.75-10.953-7.07c-2.835-3.216-7.582-6.789-12.056-7.06
		c-4.973-0.301-9.373,6.095-12.918,8.756c-4.341,3.26-9.793,5.749-15.344,5.069c-3.722-0.455-8.746-3.758-11.808-5.874
		c-2.979-2.059-5.771-5.222-9.076-6.467c-8.176-3.076-14.984,5.8-21.841,8.266c-5.234,1.882-10.71,2.383-16.165,2.115
		c-2.372-0.117-4.916,0.232-7.024-1.14c-3.503-2.279-5.332-8.224-10.134-8.623c-7.742-0.643-16.174,8.56-22.557,11.95
		c-3.076,1.633-7.176,3.603-10.665,2.044c-1.735-0.776-3.12-2.493-4.564-3.687c-2.809-2.321-5.797-4.343-8.89-6.264
		C46.708,271.475,42.738,274.461,33.662,279.111z"/>
	<path style="fill:#C17874;" d="M232.615,127.502c-4.474,4.424-7.79,10.577-10.155,16.363c-1.391,3.403-3.653,6.636-4.495,10.232
		c-0.468,2,0.25,4.032-2.702,3.95c-3.693-0.103-7.168-5.894-9.411-8.29c-2.675-2.857-4.07-6.529-6.144-9.949
		c-2.475-4.081-5.778-7.491-8.94-11.044c-1.942-2.182-4.723-5.93-7.728-6.621c-3.227-0.742-4.655,2.243-6.947,4.264
		c-3.741,3.3-7.062,5.791-9.757,9.98c-3.242,5.04-7.067,9.588-10.59,14.426c-3.303,4.535-7.243,8.656-10.498,13.167
		c-1.553,2.153-7.059,6.753-5.579,9.695c3.743,0.219,7.317-0.381,11.062-0.177c8.161,0.445,16.203,1.039,24.347,1.371
		c4.511,0.184,9.031,0.346,13.538,0.519c4.247,0.162,8.283-1.088,12.505-1.105c4.471-0.018,9.028-1.212,13.4-1.099
		c0.581,0.122,3.214,13.372,3.596,14.667c1.962,6.649-4.323,5.872-9.231,5.875c-11.677,0.007-23.35-0.707-35.027-0.55
		c-5.319,0.071-10.571-0.865-15.91-0.859c-5.505,0.006-11.011-0.001-16.516,0c-5.118,0.001-9.496,0.278-12.714,4.499
		c-1.448,1.899-7.029,10.958-5.113,13.55c0.923,1.248,5.506,1.066,6.78,1.058c4.819-0.032,9.679,0.566,14.508,0.353
		c10.822-0.478,21.662-1.135,32.489-1.774c11.327-0.67,22.799,0.766,34.091-0.143c3.826-0.308,7.686-1.033,11.501-1.211
		c1.465-0.069,5.881,0.771,6.902-0.249c3.045-3.049-4.539-9.138,3.096-8.472c7.653,0.667,14.808,0.982,22.335-0.449
		c7.096-1.348,15.221-0.265,22.503-0.411c11.368-0.229,22.728-1.444,34.115-1.416c10.645,0.027,21.282,1.154,31.917,1.423
		c21.401,0.539,42.737,3.286,64.12,2.559c3.617-0.123,7.796-0.026,9.338-3.701c2.027-4.83-1.886-11.339-3.016-15.976
		c-2.449-10.046-6.328-19.763-8.589-29.949c-1.182-5.328-3.072-10.41-4.908-15.552c-1.953-5.469-5.088-6.488-10.937-6.709
		c-12.079-0.457-24.202,0.241-36.282,0.028c-13.47-0.238-26.833-2.24-40.307-2.575c-15.542-0.387-31.001-0.975-46.552-0.47
		C257.322,127.03,245.853,124.465,232.615,127.502z"/>
</g>
<g>
	<path style="fill:#443D33;" d="M46.906,369.852c-3.376,1.512-8.197,4.079-10.122,7.327c-1.795,3.027-1.84,7.921-2.005,11.347
		c-0.327,6.786,0.284,13.373,1.488,19.997c0.533,2.93,0.094,2.589,2.373,3.062c3.751,0.777,8.904,0.112,12.705-0.011
		c7.495-0.243,15.102-1.433,22.566-1.746c1.058-2.631,1.676-6.063,1.745-8.916c0.036-1.504,0.885-6.514,0.016-7.686
		c-0.521-0.702-3.067-0.652-3.964-1.376c-1.905-1.54-2.684-5.025-1.767-7.141c0.976-2.252,3.225-2.606,3.408-5.32
		c0.169-2.506-1.393-6.463-3.326-8.073C63.906,366.221,52.819,367.467,46.906,369.852z"/>
	<path style="fill:#443D33;" d="M116.326,367.876c-11.711,4.124-15.264,20.692-17.223,33.63c-0.418,2.765-1.162,5.862,1.596,7.546
		c3.202,1.957,10.524,2.323,14.115,2.302c6.19-0.037,11.986,0.188,18.132-0.309c1.942-0.157,5.118-0.565,6.876-0.091
		c2.967-2.926,2.635-7.645,2.347-11.667c-0.106-1.478-0.144-4.322-1.128-5.426c-0.894-1.004-2.799-0.973-3.676-2.013
		c-1.434-1.701-1.107-4.384-0.91-6.383c0.066-0.67-0.192-1.922,0.192-2.509c0.62-0.953,1.292-0.47,1.851-0.969
		c2.96-2.647,2.812-6.264-0.457-9.481c-2.093-2.059-5.577-3.606-8.35-4.419C124.331,366.515,119.941,366.603,116.326,367.876z"/>
	<path style="fill:#443D33;" d="M183.863,367.316c-16.718,3.269-17.538,20.133-18.609,33.749c-0.223,2.838-0.521,5.828,1.89,7.402
		c3.464,2.261,9.992,1.495,13.876,1.851c6.338,0.582,12.628-0.029,18.978,0.255c2.667,0.119,7.41,0.75,9.763-0.683
		c-0.592-1.614-0.079-3.65-0.177-5.354c-0.116-2.039-0.534-4.224-0.898-6.224c-0.211-1.158-0.024-3.113-0.859-4.059
		c-0.951-1.075-2.408-0.72-3.546-1.713c-3.048-2.66-3.232-8.428,0.223-10.652c1.477-0.95,2.067-0.108,2.754-1.884
		c0.641-1.657-0.885-4.734-1.685-6.068C201.818,367.686,191.84,363.962,183.863,367.316z"/>
	<path style="fill:#443D33;" d="M251.496,367.034c-4.324,0.585-11.552,5.41-13.986,9.064c-3.277,4.917-4.313,12.192-4.867,17.918
		c-0.357,3.69-2.232,11.661,0.877,14.231c1.291,1.067,4.598,1.412,6.137,1.628c4.414,0.617,8.863,1.086,13.327,1.122
		c3.807,0.03,7.534,0.727,11.326,0.227c2.312-0.305,6.841,0.078,8.899-1.073c2.674-1.495,2.208-7.338,1.889-9.997
		c-0.424-3.53-0.99-5.562-3.587-7.913c-2.81-2.544-4.082-5.449-1.483-9.02c2.165-2.977,4.155-4.395,2.267-8.906
		C269.601,367.884,260.327,367.044,251.496,367.034z"/>
	<path style="fill:#443D33;" d="M318.847,366.752c-5.509,1.193-12.607,5.558-14.604,11.061c-2.429,6.692-3.048,14.393-4.228,21.375
		c-0.671,3.969-2.198,9.735,2.586,11.249c2.635,0.834,6.297,0.436,9.071,0.565c4.192,0.194,8.578,0.63,12.75,0.578
		c3.785-0.047,7.727-0.009,11.467-0.227c1.223-0.071,5.311,0.16,6.368-0.697c2.341-1.899,1.478-10.455,0.825-12.983
		c-1.224-4.743-11.248-11.029-5.078-16.499c1.443-1.279,2.431-0.189,2.825-2.367c0.326-1.802-1.557-4.177-2.599-5.573
		C333.53,366.947,327.825,363.769,318.847,366.752z"/>
	<path style="fill:#443D33;" d="M381.407,349.562c-5.745,3.266-11.305,8.509-14.387,14.434c-1.713,3.293-6.418,12.103-4.223,15.586
		c0.73,1.159,2.706,1.399,3.459,2.938c0.865,1.764,1.074,4.99,0.78,6.943c-0.287,1.908-1.428,3.307-2.195,4.977
		c-0.994,2.167-1.208,3.81-1.19,6.43c0.015,2.164-0.585,7.823,1.409,9.154c1.035,0.691,4.318,0.316,5.544,0.473
		c10.248,1.318,20.139,1.425,30.395,1.205c5.665-0.122,9.247-0.143,10.385-5.929c1.099-5.588-0.506-8.839-2.927-13.531
		c-1.466-2.843-1.647-6.847-0.26-9.888c0.715-1.567,2.272-2.442,3.032-3.993c0.991-2.022,1.011-4.849,0.896-7.112
		c-0.263-5.152-1.322-11.948-4.705-16.048C401.831,348.421,391.798,345.725,381.407,349.562z"/>
	<path style="fill:#443D33;" d="M441.431,367.597c-3.37,1.919-9.662,7.748-9.314,12.124c0.249,3.13,3.523,1.824,4.97,4.077
		c1.362,2.118,1.177,7.92-0.61,9.842c-1.066,1.147-3.694,0.924-4.712,2.407c-1.18,1.72-0.932,5.677-0.769,7.644
		c0.497,5.942,2.263,6.329,7.644,7.236c8.923,1.501,19.541,1.099,28.524,0.105c2.189-0.242,5.087-0.334,6.36-2.115
		c1.875-2.624,1.353-7.824,1.437-10.889c0.154-5.563-1.089-12.291-3.374-17.422c-2.35-5.278-6.872-8.916-11.856-11.526
		c-2.334-1.223-4.77-2.301-7.369-2.903C447.599,365.069,444.545,366.884,441.431,367.597z"/>
	<path style="fill:#443D33;" d="M222.996,248.185c1.538,9.759-4.38,22.571,2.152,31.444c3.078,4.181,9.619,2.524,13.41,0.317
		c4.407-2.567,7.291-7.843,12.432-9.021c2.47-0.566,5.289,0.407,6.205-2.492c0.888-2.812,1.117-6.736,1.332-9.684
		c0.638-8.742-0.402-16.399-6.107-22.987c-2.834-3.272-7.056-6.835-11.678-6.194c-3.423,0.475-6.151,2.288-8.735,4.5
		c-1.643,1.406-3.352,2.922-4.778,4.548C225.069,241.077,224.594,243.769,222.996,248.185z"/>
	<path style="fill:#443D33;" d="M278.611,230.695c-4.794,5.025-7.966,10.046-8.498,17.111c-0.42,5.58,0.141,11.212,0.256,16.772
		c0.082,3.969-0.654,9.187,0.675,12.989c1.556,4.449,7.729,6.439,12.061,6.202c6.316-0.345,11.732-6.481,16.588-9.991
		c2.841-2.054,6.026-4.201,6.831-7.807c0.94-4.216,0.559-9.089,0.011-13.372c-0.482-3.771-3.152-5.619-4.298-9.07
		c-1.392-4.189-3.206-8.286-6.142-11.663c-1.561-1.796-3.472-3.025-5.789-3.635C286.257,227.166,284.229,229.021,278.611,230.695z"
		/>
	<path style="fill:#443D33;" d="M332.85,225.781c-5.088,3.147-10.048,7.152-12.676,12.668c-2.853,5.991-2.975,13.124-3.051,19.655
		c-0.036,3.119,0.029,6.23,0.196,9.336c0.103,1.912-0.122,4.348,0.725,6.112c2.31,4.817,9.429,7.469,13.968,9.613
		c2.242,1.058,4.462,2.275,7.051,1.978c3.403-0.389,7.771-3.636,10.231-5.885c3.162-2.891,5.473-5.218,7.284-9.067
		c1.749-3.716,2.418-7.349,2.409-11.502c-0.011-5.209,0.543-9.463-1.693-14.276c-1.897-4.083-2.516-8.853-5.009-12.634
		c-1.415-2.146-3.888-4.159-6.107-5.46C341.597,223.633,338.039,225.356,332.85,225.781z"/>
	<path style="fill:#443D33;" d="M384.731,225.192c-1.923,0.41-3.341,1.971-4.865,3.145c-2.154,1.659-4.374,3.213-6.102,5.317
		c-3.272,3.984-4.129,8.622-4.663,13.698c-0.574,5.46-0.486,11.026-0.486,16.523c0,3.211-0.631,6.697,1.328,9.422
		c1.301,1.809,3.383,3,5.092,4.415c2.223,1.842,4.87,3.633,7.468,4.863c4.581,2.17,10.186,4.821,14.027-0.059
		c3.053-3.876,3.369-10.089,3.046-14.779c-0.391-5.678-0.511-11.398-0.5-17.134c0.006-2.979-0.203-5.874-0.78-8.797
		c-0.569-2.88-0.745-6.117-2.063-8.837C394.691,229.783,387.986,223.041,384.731,225.192z"/>
	<path style="fill:#443D33;" d="M97.068,245.901c-0.999,7.011-2.56,13.696-2.883,20.796c-0.189,4.171,0.442,2.446,3.732,2.777
		c8.529,0.857,10.941,9.159,17.311,13.554c2.684,1.852,5.94,2.194,6.343-1.663c0.56-5.368-0.845-10.721-0.901-16.05
		c-0.071-6.816,1.435-16.171-2.054-22.353c-1.838-3.258-4.48-5.227-8.3-5.305C104.573,237.543,101.049,240.767,97.068,245.901z"/>
	<path style="fill:#443D33;" d="M172.321,191.131c-1.43-1.776,0.593-6.27,1.836-8.027c1.476-2.084,3.648-3.094,6.178-2.209
		c2.049,0.717,2.968,3.032,3.39,5.217c0.181,0.94,0.666,4.256-0.081,5.035C182.39,192.452,175.806,191.572,172.321,191.131z"/>
</g>
<path style="fill:#C17874;" d="M59.993,317.702c-1.858-0.716-4.421-0.116-6.404,0.063c-3.534,0.319-7.01,0.092-10.534-0.074
	c-4.623-0.22-9.157-0.251-13.735-0.694c-2.794-0.271-5.691-1.374-8.469-0.897c-4.115,0.707-7.342,6.68-10.071,9.561
	c-1.893,1.999-8.56,8.19-5.956,11.092c1.214,1.353,5.044,1.886,6.701,2.244c4.982,1.075,10.133,0.681,15.204,0.681
	c11.095,0,22.194-0.615,33.29-0.927c12.857-0.361,25.685-0.37,38.492-0.423c8.126-0.034,16.296-0.351,24.422-0.597
	c11.491-0.349,22.985-0.041,34.476,0.052c11.418,0.092,23.062-1.237,34.401-0.451c3.111,0.215,6.153,1.07,9.288,1.043
	c3.621-0.033,7.255-0.318,10.889-0.4c8.293-0.187,16.59,0.032,24.883-0.184c11.232-0.291,22.435,0.066,33.663,0.055
	c20.332-0.019,40.617-0.22,60.933-0.965c8.832-0.324,17.672-0.237,26.501-0.586c1.264-0.05,6.777,0.757,7.894-0.195
	c2.773-2.367,0.221-10.515-0.016-13.418c-0.257-3.152,1.081-6.559-2.669-6.809c-2.425-0.161-4.885-0.094-7.38-0.234
	c-8.769-0.494-17.934,0.331-26.721,0.641c-15.06,0.53-30.226,0.475-45.272-0.349c-17.727-0.971-35.503-0.724-53.238-1.253
	c-9.043-0.269-18.136-0.37-27.183-0.189c-8.931,0.178-17.392,1.973-26.322,2.281c-20.148,0.698-40.342,0.086-60.489,0.757
	c-9.392,0.313-18.8,0.178-28.198,0.178c-4.533,0-9.083-0.243-13.574-0.06c-2.573,0.105-5.184-0.055-7.763-0.035
	C65.162,317.623,61.721,318.367,59.993,317.702z"/>
<path style="fill:#A86665;" d="M59.993,328.775c-1.858-0.354-4.421-0.057-6.404,0.032c-5.893,0.263-11.016-0.37-16.692-1.437
	c-5.957-1.12-12.98-0.001-18.997,0.422c-2.633,0.185-4.634,0.008-6.875,1.452c-1.845,1.189-7.052,4.766-6.876,7.351
	c0.196,2.883,5.185,2.483,7.378,2.718c4.982,0.532,10.133,0.337,15.204,0.337c11.095,0,22.194-0.304,33.29-0.459
	c12.857-0.178,25.685-0.183,38.492-0.21c8.126-0.017,16.296-0.174,24.422-0.295c11.491-0.172,22.985-0.02,34.476,0.026
	c11.418,0.045,23.062-0.612,34.401-0.223c3.111,0.107,6.153,0.53,9.288,0.515c3.621-0.016,7.255-0.158,10.889-0.198
	c8.293-0.092,16.59,0.016,24.883-0.091c11.232-0.144,22.435,0.033,33.663,0.027c20.332-0.009,40.617-0.109,60.933-0.477
	c8.832-0.16,17.672-0.117,26.501-0.29c1.264-0.025,6.777,0.375,7.894-0.097c2.773-1.171,0.221-5.202-0.016-6.638
	c-0.257-1.559,1.081-3.245-2.669-3.369c-2.425-0.08-4.885-0.046-7.38-0.116c-8.769-0.245-17.934,0.165-26.721,0.317
	c-15.06,0.263-30.226,0.234-45.272-0.172c-17.727-0.48-35.503-0.358-53.238-0.62c-9.043-0.133-18.136-0.183-27.183-0.094
	c-8.931,0.088-17.392,0.976-26.322,1.128c-20.148,0.345-40.342,0.042-60.489,0.374c-9.392,0.156-18.8,0.088-28.198,0.088
	c-4.533,0-9.083-0.121-13.574-0.029c-2.573,0.052-5.184-0.028-7.763-0.017C65.162,328.737,61.721,329.104,59.993,328.775z"/>
<path style="fill:#F7E1BA;" d="M396.773,298.97c-0.923,0.122-1.845,0.178-2.763,0.091c-3.241-0.305-6.196-0.459-9.514-0.135
	c-2.523,0.246-5.652,0.156-7.305,2.295c-1.836,2.376-1.45,6.354-1.59,9.144c-0.23,4.545-0.582,9.404,0.038,13.928
	c0.659,4.808,4.409,4.474,8.601,4.906c7.062,0.727,13.844,1.779,21.011,1.78c3.499,0,5.929,0.647,7.304-2.869
	c1.524-3.897,1.088-8.053,1.088-12.187c0-4.442,0.787-9.658-0.401-13.962c-1.375-4.983-7.871-4.326-11.818-3.794
	C399.89,298.372,398.331,298.764,396.773,298.97z"/>
<g>
	<path style="fill:#D8A173;" d="M135.53,213.782c-2.3,6.227-0.883,14.367-1.195,20.941c-0.295,6.196-0.023,12.407-0.463,18.6
		c-0.467,6.56-0.053,12.89,0.296,19.429c0.098,1.842-0.197,3.943,0.51,5.704c0.96,2.393,1.281,1.597,3.721,0.384
		c2.829-1.406,5.287-2.905,7.771-4.907c1.297-1.045,5.112-2.997,5.833-4.406c0.577-1.127,0.06-3.687,0.019-4.951
		c-0.098-3.055-1.596-8.32-0.177-11.051c1.214-2.337,3.892-3.304,6.336-3.635c5.635-0.764,11.164,1.41,16.779,1.214
		c7.051-0.247,14.095-0.506,21.171-0.692c1.725-0.045,3.448,0.162,5.174,0.118c1.123-0.028,3.181-0.88,4.159-0.541
		c1.609,0.557,1.905,2.906,2.125,4.319c0.628,4.021-0.446,8.247,0.299,12.209c0.405,2.15,1.181,5.191,2.844,6.661
		c1.429,1.265,3.678,1.288,5.448,1.852c1.915,0.61,3.569,1.483,5.254,2.542c1.1-2.188,0.477-4.927,0.627-7.307
		c0.203-3.235,0.371-6.496,0.457-9.737c0.194-7.333,0.539-14.691,0.89-22.022c0.282-5.885,0.475-11.743,0.477-17.645
		c0.001-3.084-1.425-7.92-0.251-10.757c-1.48-0.754-3.731-0.52-5.399-0.453c-2.311,0.092-4.659,0.653-6.956,0.665
		c-0.822,0.005-2.064-0.559-2.744,0.018c-1.225,1.042-0.804,7.852-0.895,9.555c-0.271,5.031-0.482,10.064-0.87,15.123
		c-0.14,1.829,0.001,4.564-1.64,5.816c-1.645,1.255-5.545,0.857-7.525,0.88c-7.42,0.088-14.83-0.34-22.238-0.711
		c-5.866-0.293-11.475,0.567-17.357,0.888c-1.374,0.076-3.848,0.505-5.217,0.052c-2.309-0.765-1.126-5.843-1.198-7.902
		c-0.156-4.379-0.364-8.739-0.734-13.11c-0.32-3.78,0.143-8.66-4.349-9.906c-1.343-0.372-3.624-0.38-5.031-0.39
		C137.767,210.6,136.516,212.338,135.53,213.782z"/>
	<path style="fill:#D8A173;" d="M258.678,203.253c-0.321,9.824-0.229,19.691-0.229,29.538c0,6.966-0.902,13.86-0.915,20.803
		c-0.008,3.997-2.071,11.776,0.397,15.187c1.251,1.728,4.574,2.855,6.305,3.988c1.907,1.25,3.439,2.794,5.035,4.332
		c2.448-3.676,0.994-11.623,0.63-15.799c-0.638-7.308-0.283-14.662-0.459-21.999c-0.179-7.493-1.146-14.959-1.39-22.444
		c-0.163-5.019,0.689-10.195,0.892-15.173C265.53,201.515,259.08,200.411,258.678,203.253z"/>
	<path style="fill:#D8A173;" d="M306.061,200.735c0.583,1.818,0.066,3.945-0.011,5.872c-0.133,3.33,0.122,6.803,0.234,10.139
		c0.225,6.687,0.692,13.334,0.692,20.061c0,10.503-0.278,21.185,0.264,31.647c3.361-0.11,6.607,4.174,9.82,3.759
		c3.592-0.463,0.922-11.281,0.72-13.902c-1.173-15.299-0.504-30.908-0.504-46.252c0-2.072,1.11-8.89-0.286-10.557
		C315.177,199.339,309.74,203.213,306.061,200.735z"/>
	<path style="fill:#D8A173;" d="M357.792,202.108c-0.168,3.501,0.688,7.052,0.686,10.581c-0.001,4.503,0.011,8.985-0.001,13.472
		c-0.021,7.891-0.007,15.781,0.001,23.672c0.003,3.733-0.284,7.373-0.636,11.081c-0.172,1.819-1.012,5.362-0.061,6.984
		c0.813,1.388,3.517,2.037,4.938,2.365c2.098,0.485,3.995,1.385,6.031,1.885c1.098-6.871,0.523-13.61,0.245-20.483
		c-0.313-7.73,0.526-15.45,0.243-23.188c-0.25-6.834-0.133-13.61,0.207-20.432C369.801,200.907,367.728,202.144,357.792,202.108z"/>
	<path style="fill:#D8A173;" d="M401.74,202.566c-0.007,4.919-0.681,9.762-1.424,14.626c-0.762,4.989-0.321,9.85-0.391,14.841
		c-0.07,4.988-0.915,10.199-1.275,15.188c-0.363,5.032-0.123,10.136-0.338,15.177c-0.119,2.785-0.234,5.547-0.234,8.357
		c0,2.003-0.655,5.369-0.011,7.302c0.938,2.815,4.921,1.424,6.629-0.326c3.064-3.139,2.939-7.849,3.001-11.999
		c0.118-7.999,0.193-15.952,0.466-23.967c0.318-9.369,2.376-19.119,1.829-28.459c-0.148-2.517-0.363-6.533-1.368-8.829
		C407.16,201.131,405.135,200.94,401.74,202.566z"/>
</g>
<path style="fill:#C17874;" d="M423.715,315.871c0.25,3.653-1.242,7.462-1.38,11.164c-0.14,3.764-1.364,7.321-1.572,10.97
	c3.116,1.414,7.969,0.135,11.23,0.057c9.614-0.231,19.428-0.838,29.019-0.691c13.374,0.204,26.708,0.781,40.076,0.475
	c5.387-0.124,7.089-2.614,3.954-7.77c-5.35-8.801-13.917-12.736-23.883-13.967c-10.266-1.268-20.525-0.704-30.844-0.694
	c-4.336,0.005-8.647-0.222-12.982-0.228C433.574,315.179,430.158,316.039,423.715,315.871z"/>
<g>
	<path style="fill:#D3AB66;" d="M119.049,338.532c-10.767-0.839-21.762-0.809-32.557-0.914c-8.339-0.081-16.644-0.215-24.99-0.23
		c-10.41-0.018-20.817,0.685-31.246,0.686c-4.415,0-8.858,0.419-13.265,0.234c-1.507-0.063-5.573-1.016-6.902,0.042
		c-1.323,1.053-0.654,3.55-0.516,5.078c0.462,5.11,0.454,10.346,0.241,15.481c-0.468,11.247,0.41,22.421,0.748,33.652
		c0.119,3.982-1.429,13.601,2.21,16.711c1.656,1.415,3.933,0.854,5.907,0.893c3.067,0.059,6.14,0.086,9.198,0.251
		c1.365,0.074,4.729,0.345,5.757-0.694c1.318-1.334,0.602-6.167,0.506-7.923c-0.475-8.668,1.358-16.66,5.031-24.525
		c3.716-7.959,10.259-14.449,19.628-12.727c6.004,1.104,10.22,5.005,12.857,10.162c0.633,1.239,1.595,2.376,1.786,3.842
		c0.314,2.414-0.79,2.247-2.461,3.731c-2.749,2.442-2.135,4.767,0.407,6.601c2.337,1.686,2.699,2.577,2.799,5.458
		c0.114,3.28,0.375,6.527,0.062,9.809c-0.223,2.332-0.726,3.431,0.965,4.974c2.51,2.291,9.781,3.226,11.384-0.099
		c1.313-2.726,0.752-7.138,0.356-10.003c-1.58-11.455-1.166-24.925,4.489-35.315c7.125-13.095,22.266-11.73,35.01-12.766
		c19.745-1.605,39.672,0.72,59.381-0.166c12.266-0.551,24.591-0.355,36.868-0.345c14.431,0.011,28.87,0.575,43.294-0.209
		c2.839-0.154,5.992-0.692,8.817-0.37c2.812,0.32,5.425,0.924,8.346,0.87c6.477-0.119,12.88-1.344,19.359-1.428
		c13.742-0.178,27.445-1.504,41.193-1.602c9.456-0.068,18.843-0.029,28.295-0.007c7.757,0.018,15.445,0.603,23.176,0.693
		c4.362,0.051,8.673-0.215,13.036-0.033c11.915,0.5,23.807,1.663,35.718,2.067c11.715,0.398,23.563,0.702,35.277,0.26
		c5.974-0.225,12.555,0.296,18.406-1.196c3.429-0.875,5.318-2.213,5.648-5.805c0.2-2.168-0.195-3.927-2.159-4.691
		c-3.525-1.373-9.287-0.348-12.987-0.5c-9.536-0.393-19.127-0.195-28.676-0.179c-15.489,0.027-30.942-1.38-46.432-1.302
		c-7.251,0.036-15.033-0.069-22.096,1.682c-6.275,1.556-13.869-0.179-20.353-0.435c-14.007-0.553-28.034-1.332-42.054-1.315
		c-10.781,0.012-21.559-0.351-32.34-0.259c-5.336,0.045-10.804,0.755-16.12,0.576c-4.545-0.154-9.189-0.783-13.802-0.951
		c-11.625-0.424-23.328,0.415-34.964,0.406c-12.751-0.009-25.579-0.028-38.322,0.437c-4.378,0.16-8.266,1.701-12.715,1.658
		c-6.651-0.063-13.297,0.026-19.944,0.242c-6.958,0.227-13.922,0.11-20.878-0.142C133.067,338.667,125.247,336.953,119.049,338.532z
		"/>
	<path style="fill:#D3AB66;" d="M266.918,368.289c2.232,2.04,3.004,4.517,4.401,7.033c1.238,2.23,2.943,3.36,1.968,6.209
		c-4.112-0.364-4.769,4.453-4.544,7.588c0.213,2.956,1.5,2.558,3.5,4.042c2.038,1.513,2.198,4.191,2.226,6.608
		c0.03,2.573-1.515,7.577-0.106,9.8c0.949,1.497,5.504,2.464,7.231,2.117c4.971-1,4.449-8.242,4.333-11.852
		c-0.115-3.563,0.575-7.153,0.184-10.721c-0.296-2.704-0.868-5.36-1.129-8.08C284.017,371.014,276.058,363.95,266.918,368.289z"/>
	<path style="fill:#D3AB66;" d="M334.444,368.289c2.749,3.155,8.277,5.862,6.888,10.875c-0.425,1.535-1.117,1.751-2.288,2.561
		c-2.144,1.482-3.205,2.526-3.486,5.435c-0.331,3.411,1.988,3.371,4.57,4.65c3.191,1.58,3.082,4.849,2.842,8.115
		c-0.249,3.386-2.708,7.606,0.789,9.571c5.167,2.905,7.389-0.621,8.099-5.336C353.879,390.724,354.791,363.073,334.444,368.289z"/>
	<path style="fill:#D3AB66;" d="M410.21,357.53c1.646,4.137,2.7,7.666,2.925,12.163c0.129,2.579,0.88,6.474,0.118,8.951
		c-0.791,2.575-3.2,2.16-4.606,4.078c-1.616,2.206-1.03,5.056,0.282,7.181c1.33,2.154,3.298,3.293,3.582,5.955
		c0.402,3.782-2.241,7.815-1.284,11.512c0.709,2.74,3.985,3.931,6.617,3.057c4.628-1.538,5.092-11.318,5.712-15.213
		c1.274-7.996,1.331-16.793-0.916-24.64C421.18,365.484,418.783,359.091,410.21,357.53z"/>
	<path style="fill:#D3AB66;" d="M464.917,370.12c1.202,1.971,3.454,3.26,4.787,5.337c2.082,3.245,3.614,5.721,4.12,9.596
		c0.514,3.935,0.803,7.579,0.414,11.542c-0.251,2.554-1.603,7.825-0.003,10.063c1.661,2.324,4.815,3.146,7.472,2.841
		c4.586-0.528,8.488-0.677,12.732-2.779c2.82-1.396,4.228-3.901,5.068-7.035c1.643-6.134-2.373-8.659-7.259-11.02
		c-5.204-2.515-8.051-8.514-11.079-13.3c-1.574-2.486-3.015-5.226-5.599-6.855C472.16,366.36,467.555,366.833,464.917,370.12z"/>
	<path style="fill:#D3AB66;" d="M201.682,368.976c2.109,2.479,6.233,8.02,4.243,11.563c-0.79,1.407-1.93,1.099-3.101,2.152
		c-1.45,1.303-2.15,4.937-1.164,6.603c1.02,1.726,3.408,1.514,4.77,2.783c2.179,2.029,1.663,5.776,1.662,8.446
		c-0.001,3.475-0.946,7.276,2.737,8.652c3.386,1.266,7.494,0.591,8.259-3.329c0.707-3.618,0.233-8.569,0.193-12.242
		c-0.045-4.085-1.339-8.295-2.226-12.273C215.783,375.64,209.302,366.7,201.682,368.976z"/>
	<path style="fill:#D3AB66;" d="M135.072,368.061c2.495,2.866,6.875,8.247,5.267,12.501c-0.612,1.621-1.933,1.146-3.186,2.373
		c-1.309,1.282-1.214,3.674-0.947,5.448c0.505,3.356,2.371,2.486,4.235,4.38c1.952,1.984,0.901,6.131,0.799,8.539
		c-0.145,3.431-0.135,7.038,3.344,8.835c3.392,1.752,6.122-2.419,7.437-5.331c2.807-6.211,3.322-14.284,1.388-20.789
		C151.454,377.439,144.88,369.109,135.072,368.061z"/>
	<path style="fill:#D3AB66;" d="M60.169,296.546c-3.852-2.304-7.463-5.289-10.568-7.565c-0.968-0.71-1.513-1.729-2.42-2.471
		c-1.111-0.91-2.289-1.425-3.73-1.26c-2.495,0.285-4.438,2.86-6.193,4.372c-2.517,2.169-5.271,4.197-8.108,5.938
		c-2.72,1.669-5.807,2.873-7.947,5.311c-1.076,1.226-3.498,4.861-2.091,6.54c2.218,2.648,8.386,0.157,10.759-1.072
		c4.456-2.309,7.805-7.376,13.017-8.123c2.976-0.426,3.005,2.402,5.41,3.874c3.248,1.987,7.252,4.008,10.704,5.617
		c3.402,1.585,8.825,2.785,12.583,2.691c5.937-0.15,10.588-3.563,14.762-7.376c3.006-2.746,7.283-7.605,11.546-8.344
		c3.837-0.665,5.035,2.969,8.029,4.489c1.69,0.858,3.214,2.09,4.871,2.888c1.668,0.804,3.586,0.783,5.316,1.389
		c1.84,0.643,3.592,1.88,5.572,2.098c3.8,0.417,6.841-1.554,10.053-3.276c5.254-2.818,11.803-9.763,18.263-6.381
		c6.228,3.26,11.898,10.261,19.094,11.395c8.627,1.359,18.421-2.676,25.032-8.106c3.287-2.7,6.243-5.288,10.84-4.885
		c4.257,0.373,8.058,3.073,11.371,5.555c8.278,6.202,17.124,7.03,26.503,2.243c4.581-2.338,7.298-6.405,12.988-5.873
		c5.202,0.487,9.752,3.795,14.463,5.752c4.911,2.039,9.65,4.38,15.115,3.8c6.856-0.729,11.769-4.823,16.764-9.02
		c4.809-4.04,12.094-2.738,17.399-0.559c4.924,2.022,8.729,6.113,13.573,8.25c4.795,2.116,9.843,1.906,14.776,0.33
		c4.471-1.428,9.263-3.598,12.14-7.408c1.717-2.275,2.7-4.037,5.709-4.154c1.888-0.073,3.798,0.503,4.805-1.814
		c1.005-2.312-0.316-4.881-2.198-5.963c-6.359-3.657-11.626,3.147-16.074,6.525c-2.642,2.008-5.347,5.167-8.315,6.521
		c-5.543,2.529-12.323-1.967-16.391-5.218c-5.858-4.68-11.792-11.952-20.024-8.709c-4.386,1.728-7.717,5.912-11.832,8.198
		c-4.781,2.656-9.572,5.353-15.064,5.062c-5.438-0.287-9.878-2.164-14.212-5.335c-3.607-2.639-6.125-6.548-11.012-6.325
		c-5.431,0.248-8.65,4.866-13.24,7.132c-4.698,2.319-9.655,4.082-14.881,4.492c-4.757,0.373-8.125-3.483-11.61-6.179
		c-5.576-4.314-10.421-12.19-17.681-6.054c-3.175,2.684-6.824,4.501-10.286,6.754c-3.497,2.276-6.652,4.563-10.589,6.01
		c-1.627,0.597-4.017,1.577-5.815,1.06c-2.207-0.636-3.014-2.844-4.473-4.324c-2.159-2.19-5.415-3.486-7.945-5.209
		c-2.625-1.788-5.417-4.342-8.588-4.239c-9.315,0.302-15.959,10.075-24.526,12.026c-3.607,0.822-7.754-0.565-10.907-2.262
		c-3.235-1.742-4.777-4.661-7.586-6.658c-2.682-1.906-5.421-3.404-8.53-4.526c-4.791-1.729-10.138,5.13-13.298,8.022
		c-4.121,3.774-8.637,7.86-14.567,7.91C67.273,300.131,63.624,298.613,60.169,296.546z"/>
	<path style="fill:#D3AB66;" d="M423.892,298.273c0.868,1.726,2.345,2.881,4.106,4.042c2.809,1.851,6.702,4.545,9.934,5.443
		c8.661,2.407,19.067-3.59,25.879-8.406c2.225-1.574,4.263-3.79,6.981-2.23c1.007,0.578,1.747,1.894,2.697,2.59
		c1.552,1.138,3.366,1.605,5.101,2.404c2.662,1.226,8.978,6.702,12.196,4.323c5.972-4.416-11.357-14.504-13.828-16.427
		c-1.643-1.279-3.421-3.957-5.216-4.831c-1.921-0.937-4.893,0.649-6.536,1.606c-5.05,2.943-7.831,10.501-13.67,11.981
		c-4.454,1.128-10.278-0.336-14.104-2.58c-2.083-1.223-4.06-2.473-6.265-3.453c-1.607-0.714-4.043-2.472-5.857-2.054
		c-2.534,0.584-2.472,3.849-2.035,5.84C423.421,297.17,423.628,297.748,423.892,298.273z"/>
	<path style="fill:#D3AB66;" d="M225.488,239.19c1.349-2.026,2.518-3.851,4.353-5.5c1.047-0.941,2.252-2.074,3.491-2.757
		c0.942-0.52,2.544-0.496,3.319-1.123c2.224-1.801,0.422-6.72,0.302-9.277c-0.229-4.87-0.255-8.579,5.31-9.799
		c2.475-0.543,5.336-0.411,7.871-0.701c2.145-0.245,5.89,2.003,7.725,0.336c1.669-1.517,1.056-6.001-0.556-7.388
		c-1.872-1.611-5.2-1.106-7.441-1.005c-4.5,0.201-8.986,0.392-13.493,0.247c-1.4-0.045-3.672-0.583-5.043-0.118
		c-1.967,0.666-1.409,0.925-1.312,3.033c0.194,4.236-2.603,3.515-6.106,3.628c-0.301,5.868-1.057,11.719-1.377,17.598
		c-0.177,3.25-0.686,6.976-0.271,10.215C222.755,240.439,225.295,239.143,225.488,239.19z"/>
	<path style="fill:#D3AB66;" d="M270.581,203.711c-0.77,2.872-0.392,6.299-0.561,9.245c-0.269,4.704-1.009,9.366-1.046,14.087
		c-0.024,2.91,0.203,5.772,0.233,8.666c0.015,1.359-0.39,3.068,0.683,4.103c4.067-5.494,6.627-11.205,14.161-11.873
		c-0.284-5.473-3.905-14.617,2.195-18.423c3.348-2.09,8.4-1.269,12.102-0.991c1.442,0.108,6.333,1.735,7.617,0.92
		c1.414-0.897,0.127-7.526-1.371-8.714c-0.638-0.506-3.595-0.367-4.244-0.4c-3.692-0.191-7.416-0.06-11.113-0.053
		c-3.094,0.006-6.233-0.415-9.313-0.25C277.284,200.168,275.387,201.37,270.581,203.711z"/>
	<path style="fill:#D3AB66;" d="M318.65,202.108c-0.073,7.812-0.948,15.696-1.157,23.526c-0.109,4.121-0.774,10.357,0.986,14.178
		c3.095-6.184,9.212-10.308,12.575-16.258c2.059-3.643,1.234-7.742,4.437-10.973c4.251-4.289,8.826-3.893,14.229-2.865
		c1.549,0.295,7.148,1.381,8.495-0.039c1.23-1.296,1.19-5.815,0.09-7.076c-2.292-2.624-8.441-1.205-11.52-1.353
		C338.723,200.862,330.105,200.099,318.65,202.108z"/>
	<path style="fill:#D3AB66;" d="M368.321,204.626c0.021,9.277-0.587,18.884-0.011,28.126c0.122,1.96,0.434,7.143,3.081,4.281
		c2.48-2.682,2.816-9.167,3.799-12.621c1.222-4.297,3.488-8.108,6.917-10.97c3.383-2.824,6.937-2.912,11.226-3.099
		c2.203-0.096,3.792,0.245,5.326-1.716c1.335-1.705,2.897-5.033,0.806-6.415c-1.297-0.857-5.269-0.299-6.737-0.34
		c-3.063-0.087-6.122-0.184-9.182-0.334c-3.202-0.157-6.241-0.467-9.44-0.065C370.444,201.932,370.674,201.67,368.321,204.626z"/>
	<path style="fill:#D3AB66;" d="M112.87,223.625c-3.728,2.794-4.208,6.767-4.349,11.034c-0.078,2.337-0.011,2.318-2.093,3.387
		c-5.416,2.781-8.548,4.925-10.507,11.055c-1.933,6.049-0.692,12.707-0.676,18.986c0.008,3.064,0.09,2.806-2.385,3.82
		c-3.353,1.375-6.619,4.263-9.956,5.264c-0.071-14.952-1.69-30.109-1.389-45.1c0.083-4.162,0.657-8.482,4.841-10.183
		C94.318,218.654,105.078,220.782,112.87,223.625z"/>
	<path style="fill:#D3AB66;" d="M151.464,218.786c0.39,4.413-0.794,9.206-0.592,13.531c0.122,2.603-0.813,5.38,1.044,7.337
		c2.28,2.403,12.775,2.683,13.829-0.162c1.19-3.216-2.362-8.016-3.041-10.996c-1.113-4.876,1.504-9.123,6.578-9.972
		c3.092-0.519,6.657-0.105,9.857-0.263c4.159-0.205,8.322-0.375,12.487-0.36c4.09,0.015,8.109,0.32,12.172,0.717
		c1.364,0.133,2.444,0.333,3.811-0.068c-0.472-2.062,0.514-5.417-0.657-7.52c-0.85-1.526-1.919-1.179-3.799-1.144
		c-5.969,0.112-11.994,0.057-17.957,0.348c-6.32,0.309-12.651,0.248-18.977,0.181c-3.392-0.035-6.603-0.515-9.972-0.314
		c-1.73,0.104-5.863-0.63-6.895,1.296c-0.535,0.998,0.806,2.454,1.151,3.28C151.052,215.989,151.339,217.368,151.464,218.786z"/>
	<path style="fill:#D3AB66;" d="M168.44,173.166c11.198-0.221,22.407,0.098,33.61-0.127c3.161-0.063,10.282-1.43,12.11,2.123
		c2.133,4.146-3.55,5.599-6.618,5.65c-3.909,0.065-7.941-0.812-11.858-1.084c-4.58-0.319-9.141-0.147-13.722-0.275
		c-5.893-0.165-13.753-2.173-17.446,4.094c-1.491,2.529-0.999,5.1,0.067,7.774c-1.1,0.271-2.195,0.238-3.346,0.258
		c-3.523,0.063-7.176,0.757-10.685,0.47c-0.932-0.077-5.194-0.458-5.814-0.969c-0.809-0.668-0.498-3.381-0.507-4.124
		c-0.032-2.535-0.6-4.972-0.691-7.499c-0.036-0.996-0.418-3.436,0.216-4.195c0.875-1.048,4.596-0.893,5.827-1.02
		C155.864,173.583,162.15,173.289,168.44,173.166z"/>
</g>
<g>
	<path style="fill:#A86665;" d="M232.812,128.174c-1.904,2.771-3.952,5.554-5.532,8.538c-2.044,3.856-2.923,8.128-4.768,12.074
		c-1.233,2.639-5.067,8.279-4.589,11.109c0.461,2.729,3.094,5.237,3.621,8.229c0.228,1.291,0.398,1.726-0.178,2.868
		c-0.939,1.859-3.234,1.673-4.38,3.011c-1.868,2.18-0.449,8.727-0.604,11.494c-0.082,1.463-0.742,3.822-0.044,5.174
		c0.709,1.373,0.559,0.663,1.935,1.191c1.392,0.534,2.744,0.663,3.959,1.775c1.412,1.294,1.216,2.793,2.241,4.165
		c2.944,3.941,12.164,1.928,16.342,2.249c5.069,0.39,10.066-0.385,15.118-0.133c6.478,0.324,12.99,0.624,19.457,1.049
		c12.233,0.805,24.505,1.021,36.749,1.766c10.712,0.653,21.457-0.528,32.163,0.008c9.666,0.482,18.986-0.16,28.619-0.921
		c9.277-0.733,18.407-0.467,27.679-0.393c3.108,0.025,9.252,0.881,12.12-0.969c2.13-1.376,3.118-6.663,3.227-9.185
		c0.197-4.548-4.345-6.755-8.243-7.891c-8.181-2.385-17.285-1.623-25.661-2.083c-15.774-0.865-31.576-1.03-47.343-1.952
		c-13.763-0.805-29.018-1.19-42.13-5.833c-4.855-1.72-9.821-4.376-13.307-8.268c-2.959-3.305-3.857-6.882-5.298-10.95
		c-1.154-3.259-2.71-6.31-3.636-9.651c-0.755-2.724-1.359-5.231-2.72-7.732c-2.139-3.931-4.496-5.748-8.261-8.002
		C252.76,124.962,243.312,124.445,232.812,128.174z"/>
	<path style="fill:#A86665;" d="M177.876,123.138c-7.459,7.781-13.613,16.75-21.023,24.582
		c-5.883,6.219-11.076,12.946-16.249,19.762c-0.653,0.86-3.533,3.82-2.814,5.113c0.52,0.936,3.285,0.985,4.202,1.076
		c6.796,0.68,13.989,0.984,20.825,0.966c14.119-0.036,28.339,0.562,42.371-1.149c3.058-0.373,13.99,0.396,15.42-3.384
		c0.877-2.318-2.616-2.978-4.183-3.369c-5.394-1.346-10.607-2.795-15.683-5.174c-4.852-2.274-10.689-8.178-13.474-12.774
		c-2.532-4.18-3.003-10.59-2.985-15.426c0.01-2.906,0.587-6.785-0.912-9.442C181.796,121.123,179.511,121.985,177.876,123.138z"/>
	<path style="fill:#A86665;" d="M130.266,194.097c-1.494,1.959-2.352,4.342-3.42,6.573c-0.862,1.801-4.468,6.673-3.696,8.916
		c1.009,2.93,8.934,1.196,11.381,0.991c8.663-0.726,17.582-0.588,26.265-0.468c9.368,0.13,18.871-1.491,28.276-1.596
		c8.107-0.09,16.334-0.179,24.422,0.286c3.81,0.219,11.551,2.01,14.242-1.81c3.826-5.431-14.463-4.651-16.66-4.65
		c-15.026,0.002-29.958,2.987-45.013,2.764c-8.738-0.13-16.856-0.28-22.813-7.237c-1.518-1.773-2.403-2.668-4.574-3.366
		C135.353,193.43,134.094,195.244,130.266,194.097z"/>
	<path style="fill:#A86665;" d="M423.209,326.098c8.1-2.118,18.202-0.557,26.549-0.928c10.786-0.479,21.652-0.772,32.459-0.504
		c7.209,0.179,15.817-0.135,22.013,4.028c1.288,0.866,5.174,3.774,4.722,5.843c-0.569,2.604-6.47,2.453-8.276,2.696
		c-8.022,1.081-16.272,0.858-24.351,0.515c-11.818-0.502-23.6-0.507-35.433-0.507c-4.102,0-8.161,0.018-12.247,0.262
		c-1.358,0.081-6.934,1.051-7.962,0.045c-1.501-1.468,0.485-2.818,1.47-4.372C423.723,330.698,424.46,328.308,423.209,326.098z"/>
</g>
<path d="M510.57,331.061c-3.724-5.112-9.492-10.103-15.012-13.064c-0.924-0.496-1.786-0.98-2.637-1.426
	c2.883-3.72,2.88-10.269,2.088-14.257c-0.026-0.125-0.071-0.237-0.116-0.349c3.181-2.055,5.967-6.351,3.898-9.986
	c-1.229-2.158-3.387-3.865-5.708-5.296c-6.076-5.416-12.439-10.317-19.191-15.088c-3.108-2.195-6.342-4.029-9.928-1.932
	c-4.267,2.495-7.641,6.459-11.693,9.268c-3.565,2.471-6.507,6.472-11.051,4.263c-3.305-1.606-6.48-4.466-9.648-6.418
	c-5.553-3.422-12.623-12.1-20.115-9.07c-0.42,0.17-0.831,0.363-1.237,0.566c0.045-1.935-0.105-3.863-0.038-5.029
	c0.436-7.604,0.922-15.203,1.435-22.787c0.507-7.497,1.207-14.984,1.574-22.481c0.196-4.002,0.897-9.001-0.047-13.259
	c3.839-0.249,7.535-1.233,8.596-5.375c0.833-3.251-0.498-6.888-1.365-10.001c-1.159-4.162-2.584-8.284-3.66-12.465
	c-1.753-6.808-3.922-13.538-5.724-20.367c-1.878-7.115-4.052-14.021-6.914-20.788c-2.425-5.733-5.335-9.572-11.882-9.777
	c-17.351-0.543-34.992-0.143-52.351,0.008c-17.449,0.152-34.811-1.505-52.242-1.81c-9.936-0.174-19.859-0.02-29.788-0.227
	c-7.932-0.165-16.3-1.262-24.14,0.426c-6.932,1.494-8.948,8.911-11.416,14.698c-1.567,3.671-3.116,7.336-4.43,11.106
	c-0.684,1.964-1.067,4.007-1.425,6.037c-0.533-0.694-1.067-1.388-1.595-2.079c-5.032-6.607-9.947-13.44-15.609-19.503
	c-2.958-3.167-5.832-6.484-9.174-9.271c-1.9-1.585-4.87-4.476-7.684-5.341c0.709-2.114,0.256-4.998,0.273-6.986
	c0.038-4.646,0.4-10.082-1.082-14.524c-0.46-1.377-2.342-1.38-2.802,0c-1.331,3.988-1.084,8.815-1.104,12.997
	c-0.011,2.607-0.417,6.212,0.482,8.916c-5.085,2.33-9.733,10.37-12.548,13.564c-5.717,6.487-11.278,12.93-16.438,19.864
	c-2.573,3.457-5.036,6.897-7.447,10.458c-1.649,2.436-4.481,5.346-5.07,8.357c-0.639,3.263,1.613,4.529,4.154,4.491
	c-0.078,0.645-0.109,1.332-0.106,2.057c0.016,3.377-0.113,7.963,0.746,11.609c-1.911,0.098-3.82,0.213-5.725,0.365
	c-3.803,0.305-7.435,0.677-9.511,4.149c-1.415,2.365-2.004,5.177-2.93,7.739c-0.956,2.646-2.505,4.985-2.674,7.815
	c-0.051,0.858,0.519,1.837,1.279,2.231c2.883,1.49,6.769,0.735,9.899,0.704c0.32-0.003,0.618-0.012,0.924-0.019
	c-0.161,0.548-0.298,1.163-0.407,1.87c-0.192,1.229-0.293,2.466-0.364,3.709c-2.189-0.905-4.607-0.353-6.953-0.354
	c-0.313,0.002-0.617-0.002-0.922-0.003c-0.024,0-0.046,0-0.07,0c-0.195-0.001-0.398,0.002-0.588-0.003
	c-5.337-0.15-10.729-0.003-16.052-0.429c-4.935-0.396-9.901-0.382-14.854-0.292c-2.994,0.055-7.594-0.118-10.082,1.89
	c-2.754,2.224-1.752,5.793-1.863,8.938c-0.2,5.6-0.902,11.164-1.046,16.775c-0.159,6.179-0.28,12.361-0.42,18.542
	c-0.101,4.471-1.27,10.009,0.638,14.185c-2.283,1.645-4.587,3.439-6.957,4.592c-4.543,2.209-7.486-1.792-11.051-4.263
	c-4.051-2.808-7.426-6.772-11.693-9.268c-3.586-2.097-6.821-0.264-9.929,1.932c-6.752,4.769-13.116,9.672-19.191,15.088
	c-2.321,1.43-4.481,3.138-5.709,5.296c-1.405,2.467-0.567,5.238,1.107,7.409c-0.193,0.349-0.326,0.76-0.357,1.248
	c-0.273,4.378-0.151,8.721-0.095,13.088c0.008,0.59,0.054,1.107,0.134,1.581c-2.276,1.906-4.008,4.766-5.709,6.972
	c-1.726,2.237-3.659,4.297-5.359,6.557c-1.587,2.111-4.62,5.058-4.849,7.888c-0.322,3.982,3.857,4.626,7.024,4.832
	c0.193,0.012,0.387,0.017,0.581,0.028c-0.939,3.498-0.91,7.342-1.336,10.896c-0.566,4.723-0.151,9.453-0.171,14.181
	c-0.041,9.214,0.24,18.34,0.583,27.514c0.243,6.518-0.726,15.322,6.793,17.86c4.148,1.4,9.041,1.076,13.341,0.927
	c1.347-0.047,2.788,0.103,4.23,0.207c0.008,0.072,0.019,0.144,0.026,0.215c2.551,1.021,5.437,0.569,8.556,0.564
	c3.282-0.005,6.549,0.658,9.842,0.513c4.748-0.211,9.408-0.511,14.181-0.505c9.894,0.014,19.624-0.167,29.433-0.373
	c1.63-0.034,2.98,0.083,4.411-0.639c0.016,0.147,0.038,0.293,0.053,0.44c2.551,1.021,5.435,0.569,8.556,0.564
	c3.282-0.005,6.549,0.658,9.842,0.513c4.749-0.211,9.408-0.511,14.183-0.505c9.894,0.014,19.623-0.167,29.433-0.373
	c1.49-0.032,2.748,0.063,4.047-0.472c0.009,0.091,0.024,0.181,0.033,0.273c2.551,1.021,5.437,0.569,8.556,0.564
	c3.282-0.005,6.549,0.658,9.841,0.513c4.749-0.211,9.408-0.511,14.183-0.505c9.894,0.014,19.623-0.167,29.433-0.373
	c1.629-0.034,2.98,0.083,4.411-0.639c0.016,0.147,0.038,0.293,0.053,0.44c2.551,1.021,5.437,0.569,8.556,0.564
	c3.284-0.005,6.549,0.658,9.842,0.513c4.748-0.211,9.408-0.511,14.181-0.505c9.894,0.014,19.623-0.167,29.433-0.373
	c1.788-0.037,3.238,0.119,4.829-0.865c0.389-0.24,0.706-0.517,0.99-0.812c0.057,0.493,0.129,0.984,0.179,1.477
	c2.551,1.021,5.437,0.569,8.556,0.564c3.282-0.004,6.549,0.658,9.841,0.513c4.749-0.211,9.408-0.511,14.181-0.505
	c9.894,0.014,19.624-0.167,29.433-0.373c1.538-0.033,2.827,0.076,4.171-0.52c10.51,1.6,21.043,0.578,31.661,1.151
	c2.369,0.127,11.128,1.126,14.831-0.948c1.161,0.37,2.31,0.29,3.648,0.318c9.81,0.206,19.539,0.386,29.433,0.373
	c4.775-0.007,9.434,0.294,14.183,0.505c3.291,0.145,6.558-0.517,9.841-0.513c3.119,0.004,6.005,0.458,8.556-0.564
	c0.009-0.086,0.023-0.17,0.03-0.255c4.402,0.45,8.946-0.144,13.32-0.956c3.311-0.613,8.052-1.619,10.658-3.934
	c3.193-2.837,3.447-7.495,3.715-11.464c0.61-9.021,1.217-17.989,1.023-27.059c-0.129-6.014-0.308-12.025-0.45-18.038
	c-0.081-3.463,0.027-7.521-0.849-10.967c0.305-0.033,0.611-0.063,0.916-0.105C510.15,339.879,514.31,336.195,510.57,331.061z
	 M414.311,273.739c3.766-0.619,8.95,5.168,11.773,7.162c2.996,2.116,6.091,4.014,9.055,6.168c2.721,1.977,6.33,4.894,9.935,4.288
	c3.263-0.549,6.22-3.491,8.66-5.49c3.006-2.463,5.898-4.906,8.784-7.543c2.185-1.995,3.62-3.526,6.548-2.291
	c1.744,0.736,3.207,2.559,4.802,3.618c6.13,4.074,12.279,8.861,18.879,12.286c1.261,1.356,2.208,2.926,1.301,4.505
	c-1.252,2.18-2.635,1.222-4.225,0.224c-2.093-1.314-4.258-2.653-6.36-4.058c-1.478-1.434-3.034-2.78-4.578-4.026
	c-3.135-2.532-6.746-6.651-11.305-5.933c-3.65,0.575-6.07,5.384-8.686,7.655c-3.696,3.21-11.424,8.88-16.474,7.385
	c-6.247-1.85-12.166-7.568-17.172-11.442c-2.958-2.289-6.293-5.671-10.296-4.173c-3.055,1.143-5.796,3.245-8.45,5.355
	c-0.832,0.053-1.659,0.096-2.471,0.108c-1.452,0.02-2.834,0.079-4.177,0.177c-2.022-0.249-4.081-0.33-6.143-0.336
	c0.133-0.054,0.268-0.09,0.401-0.152c3.766-1.735,7.504-4.458,10.795-6.986C407.637,278.147,410.75,274.324,414.311,273.739z
	 M425.72,292.582c6.046,4.972,12.471,11.224,19.917,10.484c3.944-0.392,7.845-3.254,11.105-5.251
	c3.588-2.198,6.734-5.486,9.504-8.62c1.48-1.676,2.226-2.704,4.309-1.958c1.417,1.899,3.64,3.39,5.309,4.976
	c1.613,1.533,3.295,2.949,5.111,4.226c2.218,1.56,5.795,4.906,9.192,6.008c-0.028,0.246-0.029,0.496,0.015,0.745
	c-0.546,3.204-0.275,7.036-2.679,9.053c-2.709,2.271-7.046,1.104-10.493,1.114c-6.528,0.018-12.952,0.263-19.473,0.081
	c-6.231-0.172-12.485-0.624-18.719-0.349c-4.211,0.186-8.455-0.594-12.517,0.191c-0.325-3.449-0.7-6.55-0.801-8.791
	C425.314,300.439,426.481,295.989,425.72,292.582z M370.914,257.662c-0.194-1.483-0.348-2.965-0.347-4.441
	c0.001-1.611,0.003-3.227,0.009-4.844c1.055-2.532,1.176-5.443,2.026-8.048c1.756-5.384,6.031-11.867,11.951-13.219
	c10.171-2.323,10.568,11.764,12.297,20.041c-0.655,10.498-1.471,21.106-1.116,31.57c-1.796,1.206-3.569,2.192-4.775,2.302
	c-3.465,0.313-8.419-3.777-11.316-5.397c-2.997-1.676-5.825-3.557-8.676-5.433C372.327,266.02,371.461,261.832,370.914,257.662z
	 M399.031,211.459c-0.187,2.786-0.228,5.598-0.482,8.251c-0.399,4.156-0.666,8.302-0.893,12.453c-0.039-0.097-0.08-0.2-0.119-0.294
	c-2.12-5.12-5.269-9.295-11.375-8.941c-6.045,0.351-11.362,5.213-14.24,10.227c-0.431,0.752-0.803,1.489-1.14,2.222
	c0.044-1.363,0.088-2.724,0.153-4.082c0.42-8.668-0.154-17.687-1.036-26.31c3.743,0.08,7.488,0.139,11.235,0.15
	c4.509,0.014,9.018,0.008,13.527-0.037c0.842-0.009,1.959-0.131,3.163-0.263c0.281,0.071,0.522,0.163,0.691,0.295
	c0.618,0.481,0.345,2.155,0.369,2.88C398.918,209.11,398.889,210.309,399.031,211.459z M390.535,292.534
	c8.038,1.333,16.034,0.348,24.158,0.481c2.702,0.044,4.565-0.406,5.493,2.106c0.444,1.199-0.508,4.433-0.581,5.674
	c-0.214,3.674,0.44,7.17,0.637,10.818c0.189,3.49,0.568,7.393,0.239,10.853c-0.291,3.057,0.087,8.033-2.128,10.4
	c-2.766,2.954-7.921,1.177-11.644,1.361c-4.301,0.213-8.544,0.366-12.866,0.357c-4.643-0.009-9.24-0.285-13.872-0.395
	c-2.323-0.055-5.121-0.463-7.379-0.264c-2.55,0.225-1.978,0.959-2.703-0.795c-1.42-3.433-0.434-8.66-0.441-12.28
	c-0.01-4.988,0.01-9.912,0.515-14.877c0.284-2.799,0.15-10.276,1.822-12.375c1.747-2.194,9.549-0.73,12.264-0.799
	C386.228,292.746,388.38,292.63,390.535,292.534z M400.945,244.702c0.055-1.693,0.119-3.385,0.206-5.076
	c0.339-6.669,0.414-13.307,0.993-19.969c0.338-3.886,1.066-8.926,0.525-13.218c0.138-0.231,0.26-0.469,0.405-0.697
	c0.104-0.163,0.641-0.587,0.629-0.779c0.008-0.002,0.006-0.001,0.015-0.005c0.153-0.007,0.34-0.052,0.489-0.085
	c0.201-0.045,0.389-0.122,0.571-0.212c0.398,0.08,0.771,0.18,1.082,0.329c4.92,2.355,0.13,15.897-0.095,20.177l-1.202,22.969
	c-0.274,5.222-0.547,10.444-0.821,15.666c-0.126,2.402,0.066,5.089-0.387,7.448c-0.346,1.801,0.331,1.566-1.834,3.167
	c-0.331,0.245-0.744,0.562-1.203,0.916c0.389-9.191,0.316-18.418,0.54-27.619C400.982,246.749,401.003,245.736,400.945,244.702z
	 M222.831,164.913c-0.907-1.354-1.871-2.686-2.85-4.008c1.961-3.303,2.88-7.356,4.294-10.82c1.309-3.207,2.691-6.371,4.061-9.551
	c1.213-2.815,2.098-6.918,4.465-8.939c2.723-2.325,7.585-1.835,10.96-1.837c3.573-0.002,7.122-0.024,10.686,0.216
	c7.461,0.504,15.013,0.658,22.49,0.708c30.914,0.205,61.736,2.347,92.678,2.535c4.154,0.025,8.306,0.062,12.459,0.064
	c3.133,0.001,7.965-1.046,10.968-0.159c5.284,1.561,7.924,13.702,9.132,18.344c3.48,13.376,7.202,26.592,10.879,39.893
	c0.348,1.259,1.832,5.182,0.513,6.299c-0.266,0.224-3.909,0.37-4.09,0.382c-2.972,0.197-6,0.395-8.976,0.511
	c-9.187,0.358-18.501-0.032-27.7-0.038c-14.893-0.011-29.729-1.081-44.615-1.189c-18.182-0.133-36.624-2.088-54.807-0.853
	c-7.715,0.524-15.438,0.402-23.183,0.406c-7.154,0.003-14.429,0.82-21.521,0.73c-0.801-1.408-1.685-2.749-2.694-3.954
	c-1.763-2.106-3.795-3.071-6.033-3.511c-1.287-4.303-0.057-10.068-1.115-14.055c2.623-0.562,4.882-1.827,5.834-4.318
	C225.657,169.166,224.262,167.051,222.831,164.913z M366.486,237.506c0.225,4.969,0.417,9.966,0.42,14.943
	c0.003,4.669,0.7,10.268,0.055,15.161c-2.03-1.252-3.986-2.241-6.061-2.143c0.349-8.912-0.278-17.854-0.251-26.736
	c0.02-6.338-0.038-12.679-0.096-19.017c-0.045-4.934,0.232-10.054-0.428-14.982c2.487,0.073,4.974,0.132,7.462,0.192
	C366.362,215.793,365.989,226.534,366.486,237.506z M320.337,246.602c1.468-4.171,3.357-8.452,5.531-12.166
	c1.718-2.934,2.938-5.033,6.2-6.41c3.614-1.526,6.85-1.788,10.632-0.753c6.158,1.684,8.94,4.682,10.479,10.785
	c1.002,3.976,0.407,9.358,3.434,12.345c0.109,0.107,0.232,0.179,0.36,0.237c0.016,1.062,0.014,2.12-0.034,3.172
	c-0.204,4.534-0.592,9.014-0.482,13.54c-2.688,1.84-5.228,3.932-7.836,5.867c-3.263,2.42-6.948,5.733-10.702,7.321
	c-1.723,0.729-0.431,0.967-2.653,0.604c-0.681-0.112-3.135-2.11-3.267-2.205c-1.807-1.287-3.65-2.509-5.473-3.776
	c-1.961-1.363-3.854-2.795-5.744-4.229C320.928,262.826,320.622,254.705,320.337,246.602z M356.672,218.595
	c-0.051,5.353-0.052,10.707-0.083,16.062c-0.478-1.481-1.076-2.921-1.841-4.268c-2.792-4.918-9.169-7.46-14.627-8.01
	c-8.882-0.896-16.454,5.467-20.107,13.468c-0.236-10.791-0.165-21.314-1.225-31.985c3.134,0.074,6.266,0.13,9.396,0.14
	c9.646,0.03,19.282,0.348,28.922,0.639C356.491,209.234,356.716,213.999,356.672,218.595z M315.806,235.524
	c-0.095,10.485-0.152,21.204,0.101,31.796c-0.312-0.224-0.618-0.455-0.934-0.676c-1.761-1.231-3.598-2.528-5.595-2.805
	c-0.035-2.729-0.409-5.617-0.542-7.896c-0.323-5.532-0.518-11.135-0.715-16.688c-0.419-11.895,0.192-23.886-0.956-35.73
	c3.1,0.099,6.197,0.197,9.295,0.28C315.257,214.176,315.899,225.169,315.806,235.524z M304.359,265.408
	c-3.521,2.239-6.926,5.629-10.025,8.146c-3.145,2.553-6.788,4.776-9.669,7.62c-0.176,0.174-0.317,0.353-0.449,0.533
	c-1.151,0.186-2.334,0.293-3.63-0.241c-2.729-1.124-5.264-3.59-7.676-5.766c0.26-5.492-0.588-11.18-0.835-16.588
	c-0.139-3.056-0.248-6.149-0.325-9.243c1.275-2.306,1.42-4.439,2.201-7.143c1.843-6.386,5.667-11.992,12.887-12.823
	c12.229-1.408,11.221,13.599,15.233,20.768c0.415,0.741,1.459,0.893,2.142,0.488c0.065,1.707,0.147,3.411,0.284,5.106
	C304.713,258.892,304.052,262.378,304.359,265.408z M303.86,240.244c0.005,0.08,0.005,0.16,0.009,0.24
	c-0.613-2.07-1.411-4.039-2.261-5.681c-2.861-5.526-7.833-9.664-14.28-9.389c-6.638,0.283-12.552,5.039-15.7,11.099
	c-0.089-6.373-0.619-12.723-0.633-19.091c-0.009-4.223,1.219-9.604,0.053-13.958c1.128-0.039,2.257-0.065,3.386-0.117
	c10.124-0.466,20.263-0.211,30.399,0.107C303.554,215.68,303.266,227.957,303.86,240.244z M267.454,238.983
	c-0.073,6.406,0.16,12.884,0.342,19.292c0.126,4.483,0.154,9.041,0.387,13.564c-2.622-2.062-5.562-4.3-8.677-5.568
	c0.491-3.151,0.091-6.415,0.083-9.603c-0.012-5.192,0.185-10.285,0.218-15.494c0.079-12.387,1.311-25.077,0.68-37.469
	c2.615-0.027,5.228-0.078,7.842-0.149c-1.033,3.272-1.161,12.147-1.205,13.864C266.939,224.599,267.536,231.796,267.454,238.983z
	 M232.61,206.462c-0.277-0.75-0.568-1.51-0.868-2.274c6.407,0.169,13.066-0.44,19.413-0.437c1.864,0.001,3.727-0.002,5.585-0.011
	c-0.565,5.709-0.408,11.471-0.369,17.204c0.034,5.017-0.215,9.996-0.32,14.991c-0.553-1.067-1.23-2.116-2.067-3.145
	c-3.849-4.731-10.152-6.691-16.002-5.532c-5.367,1.063-9.544,5.042-12.138,10.019c0.251-8.604,0.667-17.417-0.852-25.839
	c0.458-0.047,0.92-0.085,1.376-0.138c1.961-0.231,4.123-0.335,5.477-1.946C232.499,208.578,232.992,207.497,232.61,206.462z
	 M225.898,262.46c-0.025-3.408-0.089-6.82-0.135-10.232c1.457-8.851,4.137-20.495,14.772-20.991
	c6.261-0.292,10.488,3.687,12.595,9.382c1.123,3.032,0.858,6.931,2.801,9.533c0.024,1.651,0.091,3.311,0.256,4.999
	c0.329,3.367,0.805,6.9,0.853,10.352c-2.052-0.435-4.157-0.36-6.285,0.569c-5.414,2.363-10.781,7.586-15.31,11.348
	c-3.214,2.67-4.972,3.709-7.605,2.442c-0.85-0.734-1.747-1.428-2.655-2.111C226.958,273.076,225.934,267.399,225.898,262.46z
	 M141.23,172.568c-0.15-0.254,3.659-5.203,4.256-6.064c3.16-4.557,6.66-8.762,10.077-13.135c3.874-4.956,8.083-9.595,12.217-14.337
	c1.873-2.15,3.824-4.308,5.556-6.572c1.743-2.277,4.476-7.247,7.569-7.257c2.661-0.008,5.98,3.702,7.667,5.459
	c2.17,2.261,4.264,4.544,6.227,6.988c3.78,4.703,7.197,9.644,10.604,14.603c3.209,4.672,6.972,9.077,10.374,13.639
	c0.002,0.003,2.701,3.095,2.491,3.536c-0.011,0.024-1.061,0.283-1.381,0.48c-1.124,0.695-2.889,1.166-4.595,1.536
	c-0.105-0.003-0.202-0.012-0.31-0.014c-11.44-0.119-22.816-0.655-34.298-0.354c-6.024,0.158-12.022,0.497-18.067,0.559
	c-2.319,0.024-4.589,0.081-6.894,0.298c-2.445,0.23-5.183-0.335-7.556,0.144c-0.773,0.157-1.414,0.4-1.955,0.716
	C142.521,172.849,141.515,173.047,141.23,172.568z M213.885,189.783c-0.509,0.003-1.022,0.008-1.543,0.008
	c-5.723,0-11.313,0.529-17.031,0.281c-2.953-0.127-5.913-0.08-8.873,0.017c-0.251-1.607-0.748-3.276-1.078-4.567
	c-0.809-3.171-0.99-5.998-4.875-6.407c-2.967-0.312-6.314,0.365-8.063,2.997c-1.473,2.215-2.036,5.544-1.531,8.335
	c-8.187-0.021-16.392-0.115-24.564,0.142c0.541-2.197,0.407-4.314,0.1-6.853c-0.175-1.455-1.1-5.788,0.256-6.988
	c0.609-0.538,4.989-0.05,5.973-0.127c9.092-0.714,18.588-0.458,27.718-0.397c8.726,0.057,17.386,0.212,26.061,0.371
	c0.965,0.018,3.361-0.37,5.045-0.333c0.329,0.037,0.664,0.069,1.008,0.097c0.214,0.046,0.395,0.11,0.528,0.198
	c1.682,1.105,0.906,4.455,0.859,6.098C213.808,184.876,213.509,187.448,213.885,189.783z M181.629,186.549
	c0.1,1.007,0.069,1.938,0.074,2.952c0.001,0.251,0.01,0.507,0.023,0.762c-2.46,0.096-4.917,0.181-7.371,0.188
	c0.285-1.887,0.021-3.891,0.886-5.692c0.8-1.668,4.281-3.441,5.872-1.908C181.863,183.573,181.526,185.511,181.629,186.549z
	 M125.945,209.025c0.672-4.03,2.763-10.724,5.016-12.203c2.974-1.951,8.941-0.866,12.468-1.038
	c4.514-0.222,8.938,0.618,13.433,0.646c6.496,0.041,12.989,0.178,19.486,0.189c5.324,0.009,10.619-0.449,15.946-0.363
	c2.612,0.042,5.208,0.517,7.814,0.519c2.6,0.001,5.113-0.661,7.726-0.603c3.576,0.079,9.891-1.311,12.895,0.685
	c1.29,0.857,2.346,2.457,3.254,4.271c0.05,0.835,0.406,1.538,0.943,2.054c0.414,0.978,0.799,1.962,1.158,2.887
	c-2.55,0.334-8.657,0.215-9.586,0.305c-4.482,0.438-8.897,0.263-13.389,0.197c-7.971-0.117-15.933,0.169-23.892,0.105
	c-13.213-0.106-26.558,0.251-39.627,2.201c-1.398-0.172-2.811-0.193-4.524-0.207C133.156,208.654,128.695,209.382,125.945,209.025z
	 M220.042,261.37c-0.028,3.849-0.657,8.299-0.213,12.355c-0.072-0.059-0.15-0.114-0.222-0.172c-2.719-2.208-5.671-5.091-8.731-7.276
	c-0.067-0.13-0.147-0.251-0.242-0.364c-0.624-4.794-0.375-9.878-0.728-14.691c-0.466-6.337-0.39-12.81-0.248-19.164
	c0.118-5.304,0.475-10.609,0.613-15.9c0.03-1.148,0.047-2.615-0.372-3.8c1.187-0.025,2.373-0.065,3.557-0.133
	c2.957-0.168,5.967-0.313,8.948-0.549c-1.877,9.935-1.879,20.193-2.231,30.265C219.945,248.403,220.088,254.903,220.042,261.37z
	 M205.642,263.797c-2.424-0.145-4.601,1.398-6.674,2.847c-3.935,2.752-7.605,5.776-11.552,8.518
	c-1.823,1.267-3.666,2.489-5.473,3.776c-0.132,0.094-2.586,2.093-3.267,2.205c-2.223,0.363-0.93,0.125-2.652-0.604
	c-3.752-1.588-7.438-4.901-10.702-7.321c-2.952-2.19-5.805-4.602-8.899-6.596c-0.857-0.551-1.678-0.876-2.481-1.037
	c0.119-1.441,0.18-4.083,0.168-4.631c-0.065-3.021-0.141-6.04-0.2-9.059c3.902,0.781,8.152-0.001,12.095,0.05
	c5.101,0.064,10.171,0.05,15.262,0.057c3.934,0.006,7.752,0.373,11.635,0.478c3.862,0.104,8.835,0.267,12.772-0.569
	c0.011,0.477,0.014,0.954,0.026,1.43C205.794,256.75,205.547,260.327,205.642,263.797z M205.212,243.329
	c0.085,0.133,0.194,0.247,0.311,0.351c0.016,1.452,0.055,2.905,0.08,4.357c-8.427,0.13-16.786-0.238-25.242-0.219
	c-8.35,0.018-18.186-1.252-26.509,0.867c-0.001-0.123-0.006-0.245-0.007-0.367c-0.014-1.486,0.03-2.974,0.094-4.46
	c0.652,0.167,1.347,0.29,2.097,0.272c5.399-0.133,10.84-0.468,16.247-0.484c6.47-0.019,12.872-0.507,19.355-0.34
	c3.066,0.079,6.114,0.287,9.177,0.436C201.516,243.772,205.966,244.529,205.212,243.329z M205.481,236.36
	c-0.002,1.215,0.016,2.426,0.021,3.639c-10.076-1.133-20.011-0.29-30.129-0.222c-6.93,0.047-14.411-0.186-21.296,1.191
	c0.179-3.634,0.335-7.268-0.065-10.884c-0.585-5.27,0.49-11.886-1.968-16.854c-0.142-0.289-0.305-0.551-0.479-0.797
	c2.404,0.041,4.809,0.107,7.213,0.256c4.468,0.276,8.973-0.549,13.443-0.6c4.662-0.053,9.32-0.021,13.979-0.094
	c6.904-0.106,13.871,0.378,20.8,0.388C205.871,220.331,205.49,228.318,205.481,236.36z M148.697,242.052
	c-0.488,6.622-0.163,13.328-0.435,19.967c-0.067,1.606-0.322,3.33-0.23,4.966c-0.7,0.396-1.405,0.838-2.124,1.296
	c-3.314,2.119-6.524,4.327-9.896,6.333c1.302-10.218,1.99-20.583,1.17-30.857c-0.446-5.609-0.452-11.518-0.521-17.148
	c-0.042-3.408-0.597-7.259,0.174-10.596c0.398-1.72,0.095-1.297,1.131-1.995c0.947-0.638,3.59-0.645,4.684-0.692
	c7.782-0.334,6.061,8.606,6.072,13.819C148.732,232.183,149.071,236.967,148.697,242.052z M85.432,224.654
	c0.927,0.02,1.854,0.038,2.781,0.056c8.361-0.243,16.711,0.097,25.073-0.029c4.519-0.069,9.09,0.014,13.595-0.387
	c1.588-0.141,3.415-0.14,4.91-0.739c0.056,4.336,0.459,8.699,0.42,12.967c-0.061,6.933,0.552,13.802,0.384,20.751
	c-0.158,6.582-0.525,12.741,0.241,19.244c-2.702,1.737-6.333,4.343-9.187,4.508c0.215-4.095-0.448-8.308-0.482-12.419
	c-0.047-5.674,0.16-11.432-0.193-17.095c-0.395-6.338-3.748-14.422-10.714-15.594c-17.31-2.913-21.354,19.657-18.682,32.793
	c-2.604,1.386-5.087,3.432-7.39,5.266c0.092-2.421-0.245-4.947-0.3-7.343c-0.125-5.494-0.249-10.989-0.374-16.483
	c-0.114-5.001-0.269-9.981-0.674-14.969c-0.16-1.976-0.599-4.091-0.466-6.082C84.086,227.498,84.439,226.016,85.432,224.654z
	 M118.657,279.016c-2.396-1.56-4.912-3.613-6.24-4.595c-3.169-2.343-6.232-5.218-9.934-6.715c-1.846-0.747-3.667-0.781-5.446-0.36
	c0.575-4.867-0.122-10.191,0.916-14.962c1.667-7.656,9.927-17.311,17.326-9.336c4.455,4.8,3.19,12.35,3.139,18.341
	C118.373,267.289,118.552,273.155,118.657,279.016z M21.192,291.938c6.6-3.424,12.749-8.212,18.879-12.286
	c1.595-1.06,3.057-2.882,4.802-3.618c2.929-1.235,4.363,0.295,6.548,2.291c2.887,2.638,5.778,5.08,8.784,7.543
	c2.44,1.997,5.397,4.939,8.66,5.49c3.605,0.606,7.215-2.311,9.935-4.288c2.963-2.154,6.059-4.052,9.055-6.168
	c2.823-1.993,8.008-7.781,11.773-7.162c3.561,0.585,6.673,4.409,9.401,6.504c3.291,2.528,7.029,5.252,10.795,6.986
	c6.461,2.977,13.492-2.54,18.981-5.599c3.767-2.099,7.216-4.628,10.84-6.954c2.333-1.497,2.111-1.796,4.189-0.765
	c1.8,0.893,3.408,2.447,4.998,3.641c3.108,2.336,6.28,4.542,9.461,6.77c2.732,1.915,5.543,4.813,9.065,5.017
	c4.245,0.246,8.161-3.595,11.48-5.792c4.105-2.718,7.888-5.691,11.698-8.765c1.603-1.293,3.528-3.359,5.508-2.823
	c1.805,0.489,4.738,3.521,6.088,4.633c3.955,3.259,8.159,6.357,12.039,9.687c0.237,0.204,0.482,0.365,0.73,0.499
	c1.669,1.469,3.756,2.302,6.819,1.722c7.189-1.359,13.378-8.238,18.991-12.546c1.877-1.441,3.387-2.766,5.866-2.092
	c2.134,0.581,4.291,2.566,6.079,3.851c4.046,2.907,7.773,6.233,11.82,9.127c4.05,2.896,11.192,4.394,14.142,0.125
	c0.393-0.153,0.782-0.366,1.153-0.685c3.88-3.329,8.082-6.428,12.039-9.687c1.35-1.111,4.283-4.144,6.088-4.633
	c1.979-0.537,3.905,1.53,5.508,2.823c3.809,3.075,7.593,6.048,11.697,8.765c3.317,2.197,7.233,6.037,11.48,5.792
	c3.523-0.204,6.334-3.102,9.065-5.017c3.18-2.228,6.352-4.436,9.461-6.77c1.591-1.195,3.198-2.749,4.998-3.641
	c2.077-1.03,1.855-0.732,4.189,0.765c3.624,2.325,7.073,4.854,10.84,6.954c3.386,1.887,7.36,4.704,11.423,5.891
	c-1.17,0.026-2.331,0.042-3.473,0.027c-2.354-0.029-5.336-0.489-8.168-0.469c-0.736-0.497-1.48-0.985-2.248-1.444
	c-4.218-2.518-8.02-5.574-12.758-2.675c-5.468,3.346-9.887,8.105-15.429,11.456c-3.996,2.417-6.953,2.692-11.195,0.444
	c-2.589-1.372-5.292-3.074-7.65-4.815c-3.59-2.651-6.873-6.952-10.893-8.873c-3.616-1.728-7.733-0.178-10.729,2.012
	c-2.736,2.001-4.902,4.693-7.72,6.583c-2.346,1.574-4.908,2.775-7.389,4.101c-0.033,0.017-0.055,0.039-0.087,0.057
	c-5.152,1.072-11.002,1.058-15.725-1.203c-5.455-2.613-10.742-7.92-16.746-9.223c-2.681-0.582-4.376,0.14-6.475,1.766
	c-3.078,2.386-6.014,4.859-9.422,6.794c-3.973,2.254-9.296,3.385-13.833,2.836c-0.176-0.021-0.385-0.055-0.584-0.085
	c-0.21-0.363-0.525-0.692-0.995-0.943c-2.481-1.326-5.043-2.527-7.389-4.101c-2.818-1.89-4.985-4.582-7.72-6.583
	c-2.996-2.19-7.113-3.74-10.729-2.012c-4.021,1.922-7.304,6.222-10.895,8.873c-2.358,1.742-5.061,3.445-7.65,4.815
	c-4.243,2.248-7.2,1.971-11.196-0.444c-5.542-3.351-9.962-8.11-15.429-11.456c-4.738-2.899-8.54,0.157-12.758,2.675
	c-4.331,2.586-8.03,5.919-12.486,8.335c-2.527,1.37-4.837,2.46-7.478,2.392c-2.761-2.376-6.837-3.677-9.736-5.733
	c-3.993-2.832-7.929-6.812-12.585-8.553c-4.004-1.498-7.338,1.884-10.296,4.173c-5.005,3.874-10.924,9.593-17.172,11.442
	c-5.05,1.495-12.779-4.175-16.474-7.385c-2.616-2.271-5.036-7.08-8.686-7.655c-4.557-0.718-8.17,3.401-11.305,5.933
	c-1.543,1.246-3.1,2.593-4.578,4.026c-2.101,1.405-4.265,2.745-6.36,4.058c-1.588,0.996-2.972,1.956-4.224-0.224
	C18.984,294.864,19.931,293.294,21.192,291.938z M368.347,288.872c-0.792,0.632-1.454,1.462-1.922,2.572
	c-1.504,3.571-1.311,7.622-1.901,11.383c-0.499,3.18-0.753,6.381-0.874,9.593c-0.122-0.016-0.241-0.02-0.364-0.017
	c-2.526-0.647-5.41-0.22-7.981-0.148c-3.539,0.099-7.072-0.007-10.647-0.001c-8.152,0.011-16.265-0.373-24.388-0.375
	c-8.459-0.002-16.917-0.008-25.375,0.151c-4.253,0.08-9.093-0.193-13.723,0.183c-17.235-0.789-34.412,0.247-51.646-0.522
	c-19.736-0.88-39.516,0.709-59.197,1.767c-9.786,0.526-19.582,0.356-29.386,1.012c-9.515,0.637-19.095,0.361-28.576,1.093
	c-17.897,1.384-35.735-0.839-53.6-0.566c-7.948,0.122-15.91-0.8-23.846-0.142c-2.746,0.228-9.57,0.655-12.121-0.989
	c-0.373-0.24-0.62-0.379-0.79-0.461c0-0.085-0.036-0.225-0.149-0.463c-0.3-0.635-0.225-2.696-0.285-3.43
	c-0.183-2.231-0.185-4.48-0.254-6.727c4.008,0.308,8.878-4.402,11.643-6.345c1.816-1.277,3.497-2.692,5.111-4.226
	c1.669-1.586,3.892-3.077,5.309-4.976c2.084-0.746,2.829,0.283,4.309,1.958c2.77,3.134,5.916,6.422,9.504,8.62
	c3.259,1.996,7.16,4.858,11.105,5.251c9.892,0.983,17.985-10.378,25.781-14.679c5.094-2.81,10.004,2.848,14.078,5.905
	c1.557,1.168,3.173,2.177,4.83,3.1c2.013,1.674,4.359,2.948,6.675,3.483c5.171,1.194,9.195-0.962,13.489-3.423
	c4.896-2.806,9.021-7.316,14.286-9.453c4.533-1.84,6.8,1.385,10.108,4.208c2.418,2.064,4.953,3.914,7.661,5.589
	c4.84,2.994,7.94,5.08,13.577,3.303c5.609-1.769,10.205-5.332,14.783-8.824c4.042-3.083,7.967-8.525,13.228-5.036
	c2.796,1.853,4.873,4.687,7.632,6.62c0.942,0.661,1.931,1.248,2.932,1.814c4.682,4.49,12.63,5.207,18.537,3.811
	c3.403-0.804,6.095-1.993,8.896-4.031c1.574-1.145,3.234-2.203,4.764-3.404c2.845-2.235,4.599-4.876,8.469-2.741
	c6.186,3.411,11.651,8.48,18.697,10.032c3.324,0.733,9.595,1.352,13.539-0.627c0.408,0.002,0.839-0.088,1.278-0.327
	c2.675-1.455,5.459-2.771,7.965-4.526c2.759-1.933,4.837-4.766,7.634-6.62c5.261-3.489,9.186,1.953,13.228,5.036
	c4.579,3.492,9.174,7.055,14.783,8.824c5.637,1.778,8.737-0.309,13.577-3.303c2.708-1.675,5.243-3.525,7.661-5.589
	c3.307-2.823,5.575-6.048,10.108-4.208C367.131,288.257,367.745,288.551,368.347,288.872z M6.266,336.198
	c1.832-3.636,5.683-7.045,7.832-10.082c1.419-2.004,2.978-5.304,4.777-7.552c0.2,0.068,0.389,0.138,0.613,0.197
	c3.054,0.8,6.851,0.406,9.972,0.635c4.278,0.313,8.561-0.001,12.824,0.238c8.021,0.45,15.991,1.559,23.996,1.966
	c4.424,0.224,8.879,0.573,13.307,0.738c5.263,0.196,10.5-0.851,15.756-0.893c19.621-0.156,39.376-1.288,58.984-2.568
	c10.404-0.679,20.952-0.216,31.386-0.532c10.576-0.319,21.113-0.22,31.693-0.138c11.471,0.089,22.888,0.747,34.368,0.552
	c10.618-0.179,21.3,0.219,31.895-0.478c2.416,0.069,4.84,0.072,7.206,0.157c9.519,0.339,19.058,0.255,28.582,0.264
	c8.711,0.008,17.423,0.392,26.166,0.375c5.255-0.009,12.756,1.39,17.918-0.912c-0.05,4.412-0.242,8.86-0.092,13.257
	c0.035,1.016,0.045,2.091,0.167,3.138c-7.989,0.092-16.01,0.764-23.983,0.078c-10.684-0.921-21.485-0.804-32.221-0.852
	c-12.052-0.055-24.149-1.513-36.178-1.277c-12.218,0.239-24.427,0.107-36.632,0.488c-26.148,0.817-52.285,0.994-78.441,1.558
	c-12.615,0.272-25.159,1.553-37.772,1.73c-12.567,0.176-25.074,0.256-37.649,0.223c-12.793-0.033-25.773-0.073-38.52-1.087
	c-5.744-0.457-12.149-0.605-17.875,0.016c-3.731,0.405-7.317,0.875-11.085,0.963C11.759,336.432,8.381,336.702,6.266,336.198z
	 M71.976,406.356c-1.37,1.82-6.289,0.929-8.305,0.931c-3.428,0.005-6.92-0.18-10.335,0.151c-4.929,0.477-9.656,0.129-14.523,0.293
	c-0.145-0.152-0.303-0.3-0.491-0.432c-0.055-0.039-0.115-0.064-0.17-0.103c0.535-4.038-1.186-9.279-0.814-12.732
	c0.495-4.591-0.184-9.365,1.567-13.742c2.071-5.182,5.777-7.776,10.618-10.093c4.062-1.944,9.706-3.162,14.163-1.507
	c4.288,1.593,6.129,6.126,8.128,9.974c-1.483,0.471-2.771,1.273-3.559,2.62c-1.65,2.825-1.496,9.452,1.136,11.702
	c0.718,0.614,1.662,0.967,2.673,1.198c-0.144,1.383,0.055,2.681,0.156,4.304C72.302,400.272,73.013,404.976,71.976,406.356z
	 M91.706,407.727c-4.354,0.931-8.925,0.608-13.361,0.933c0.683-2.469,0.939-5.918,0.871-8.123c-0.052-1.709-0.42-3.414-1.06-5.009
	c2.741,0.271,5.116-0.357,7.943-0.024c2.1,0.248,5.057,0.794,7.884,0.78c-0.32,1.519-0.275,3.058-0.087,4.774
	C94.274,404.472,95.618,406.891,91.706,407.727z M95.103,390.913c-3.099,1.514-8.145-0.141-11.642,0.004
	c-3.282,0.135-8.27,1.056-10.631-1.844c-0.998-1.225-1.778-4.156-0.419-5.575c0.183-0.191,0.478-0.33,0.834-0.433
	c3.666,0.06,7.278-0.3,10.936-0.571c1.182-0.047,2.364-0.112,3.544-0.2c1.279-0.048,2.564-0.073,3.869-0.027
	c3.208,0.114,4.937-0.667,5.607,3.367C97.652,388.369,97.443,389.769,95.103,390.913z M138.452,406.356
	c-1.37,1.82-6.288,0.929-8.305,0.931c-3.428,0.005-6.92-0.18-10.337,0.151c-5.173,0.5-10.121,0.086-15.246,0.316
	c0.786-4.1-1.142-9.679-0.752-13.288c0.495-4.591-0.183-9.365,1.567-13.742c2.071-5.182,5.777-7.776,10.618-10.093
	c4.062-1.944,9.706-3.162,14.163-1.507c4.289,1.593,6.129,6.126,8.127,9.974c-1.482,0.471-2.771,1.273-3.559,2.62
	c-1.649,2.825-1.496,9.452,1.136,11.702c0.718,0.614,1.662,0.967,2.674,1.198c-0.145,1.383,0.055,2.68,0.156,4.304
	C138.778,400.272,139.49,404.976,138.452,406.356z M158.183,407.727c-4.354,0.931-8.925,0.608-13.36,0.933
	c0.683-2.469,0.939-5.918,0.872-8.123c-0.052-1.709-0.42-3.414-1.06-5.009c2.741,0.271,5.116-0.357,7.943-0.024
	c2.1,0.248,5.057,0.794,7.884,0.78c-0.32,1.519-0.275,3.058-0.087,4.774C160.749,404.472,162.094,406.891,158.183,407.727z
	 M149.937,390.916c-3.282,0.135-8.27,1.056-10.631-1.844c-0.998-1.225-1.776-4.156-0.42-5.575c0.183-0.191,0.479-0.33,0.834-0.433
	c3.666,0.06,7.28-0.3,10.936-0.571c1.182-0.047,2.364-0.112,3.544-0.2c1.279-0.048,2.564-0.073,3.869-0.027
	c3.208,0.114,4.937-0.667,5.607,3.367c0.453,2.736,0.243,4.136-2.097,5.28C158.48,392.427,153.434,390.772,149.937,390.916z
	 M204.544,406.356c-1.37,1.82-6.288,0.929-8.305,0.931c-3.428,0.005-6.92-0.18-10.337,0.151c-5.173,0.5-10.121,0.086-15.246,0.316
	c0.786-4.1-1.142-9.679-0.752-13.288c0.495-4.591-0.183-9.365,1.567-13.742c2.071-5.182,5.777-7.776,10.618-10.093
	c4.062-1.944,9.706-3.162,14.162-1.507c4.289,1.593,6.129,6.126,8.127,9.974c-1.482,0.471-2.771,1.273-3.559,2.62
	c-1.649,2.825-1.496,9.452,1.136,11.702c0.718,0.614,1.662,0.967,2.674,1.198c-0.144,1.383,0.055,2.68,0.156,4.304
	C204.87,400.272,205.581,404.976,204.544,406.356z M224.275,407.727c-4.356,0.931-8.926,0.608-13.36,0.933
	c0.682-2.469,0.939-5.918,0.871-8.123c-0.052-1.709-0.42-3.414-1.06-5.009c2.741,0.271,5.116-0.357,7.943-0.024
	c2.1,0.248,5.057,0.794,7.884,0.78c-0.32,1.519-0.275,3.058-0.087,4.774C226.841,404.472,228.186,406.891,224.275,407.727z
	 M227.671,390.913c-3.099,1.514-8.145-0.141-11.642,0.004c-3.282,0.135-8.27,1.056-10.631-1.844
	c-0.998-1.225-1.776-4.156-0.42-5.575c0.183-0.191,0.479-0.33,0.834-0.433c3.666,0.06,7.28-0.3,10.936-0.571
	c1.182-0.047,2.364-0.112,3.544-0.2c1.279-0.048,2.564-0.073,3.869-0.027c3.208,0.114,4.937-0.667,5.607,3.367
	C230.221,388.369,230.011,389.769,227.671,390.913z M271.019,406.356c-1.37,1.82-6.288,0.929-8.305,0.931
	c-3.428,0.005-6.92-0.18-10.335,0.151c-5.174,0.5-10.122,0.086-15.246,0.316c0.785-4.1-1.142-9.679-0.752-13.288
	c0.495-4.591-0.183-9.365,1.567-13.742c2.071-5.182,5.777-7.776,10.618-10.093c4.062-1.944,9.706-3.162,14.162-1.507
	c4.289,1.593,6.129,6.126,8.128,9.974c-1.483,0.471-2.771,1.273-3.559,2.62c-1.649,2.825-1.496,9.452,1.136,11.702
	c0.718,0.614,1.661,0.967,2.674,1.198c-0.144,1.383,0.055,2.68,0.156,4.304C271.346,400.272,272.057,404.976,271.019,406.356z
	 M290.751,407.727c-4.356,0.931-8.926,0.608-13.361,0.933c0.683-2.469,0.94-5.918,0.872-8.123c-0.052-1.709-0.42-3.414-1.061-5.009
	c2.741,0.271,5.116-0.357,7.943-0.024c2.1,0.248,5.058,0.794,7.884,0.78c-0.32,1.519-0.275,3.058-0.087,4.774
	C293.318,404.472,294.661,406.891,290.751,407.727z M294.147,390.913c-3.099,1.514-8.145-0.141-11.642,0.004
	c-3.282,0.135-8.27,1.056-10.631-1.844c-0.998-1.225-1.778-4.156-0.42-5.575c0.183-0.191,0.478-0.33,0.833-0.433
	c3.666,0.06,7.28-0.3,10.936-0.571c1.182-0.047,2.364-0.112,3.544-0.2c1.279-0.048,2.564-0.073,3.869-0.027
	c3.208,0.114,4.937-0.667,5.607,3.367C296.696,388.369,296.487,389.769,294.147,390.913z M298.116,395.289
	c0.01-0.004,0.019-0.011,0.029-0.017c-0.001,0.032-0.003,0.063-0.006,0.096C298.131,395.342,298.125,395.314,298.116,395.289z
	 M339.028,406.356c-1.37,1.82-6.288,0.929-8.305,0.931c-3.428,0.005-6.92-0.18-10.335,0.151c-5.173,0.5-10.122,0.086-15.246,0.316
	c0.786-4.1-1.142-9.679-0.752-13.288c0.496-4.591-0.183-9.365,1.567-13.742c2.071-5.182,5.777-7.776,10.618-10.093
	c4.061-1.944,9.706-3.162,14.162-1.507c4.289,1.593,6.129,6.126,8.127,9.974c-1.482,0.471-2.771,1.273-3.559,2.62
	c-1.649,2.825-1.496,9.452,1.136,11.702c0.718,0.614,1.661,0.967,2.674,1.198c-0.144,1.383,0.056,2.68,0.156,4.304
	C339.354,400.272,340.067,404.976,339.028,406.356z M358.76,407.727c-4.356,0.931-8.926,0.608-13.361,0.933
	c0.682-2.469,0.939-5.918,0.871-8.123c-0.052-1.709-0.42-3.414-1.06-5.009c2.741,0.271,5.116-0.357,7.943-0.024
	c2.1,0.248,5.058,0.794,7.884,0.78c-0.32,1.519-0.275,3.058-0.087,4.774C361.326,404.472,362.671,406.891,358.76,407.727z
	 M362.155,390.913c-3.099,1.514-8.145-0.141-11.642,0.004c-3.282,0.135-8.27,1.056-10.631-1.844
	c-0.998-1.225-1.776-4.156-0.42-5.575c0.183-0.191,0.479-0.33,0.834-0.433c3.666,0.06,7.278-0.3,10.936-0.571
	c1.182-0.047,2.364-0.112,3.544-0.2c1.279-0.048,2.564-0.073,3.869-0.027c3.208,0.114,4.937-0.667,5.607,3.367
	C364.705,388.369,364.496,389.769,362.155,390.913z M407.173,405.375c-0.05,0.675-0.085,1.363-0.07,2.04
	c-0.183,0-0.362,0-0.534-0.003c-3.786-0.064-7.657,0.017-11.43-0.257c-6.563-0.477-13.053,0.056-19.624,0.153
	c-2.832,0.042-5.461,0.132-8.022,0.553c0.045-0.821,0.018-1.66-0.044-2.485c-0.239-3.229-0.273-6.955-1.326-10.086
	c0.958-0.481,1.781-1.161,2.374-2.129c2.137-3.493,1.938-11.623-1.619-14.241c-0.136-0.1-0.291-0.183-0.437-0.274
	c0.375-0.885,0.786-1.967,0.88-2.519c0.636-3.69,0.919-7.423,2.058-11.03c2.947-9.333,10.197-13.984,19.892-14.233
	c8.711-0.223,16.52,4.119,17.889,13.071c0.49,3.206,0.879,6.557,0.916,9.779c0.023,1.917-0.103,3.464,0.109,4.926
	c-0.149,0.092-0.307,0.178-0.445,0.28c-3.556,2.619-3.756,10.748-1.619,14.241c0.593,0.968,1.416,1.648,2.375,2.129
	C407.446,398.42,407.412,402.147,407.173,405.375z M429.225,408.661c-4.434-0.326-9.005-0.002-13.361-0.933
	c-3.911-0.836-2.567-3.255-2.192-6.67c0.188-1.716,0.233-3.253-0.087-4.774c2.826,0.014,5.784-0.532,7.884-0.78
	c2.827-0.334,5.203,0.295,7.943,0.024c-0.639,1.595-1.008,3.299-1.06,5.009C428.285,402.744,428.542,406.192,429.225,408.661z
	 M424.111,390.916c-3.497-0.144-8.543,1.51-11.642-0.004c-2.339-1.143-2.55-2.542-2.097-5.274c0.658-3.976,6.452-3.457,9.477-3.344
	c1.18,0.088,2.362,0.152,3.544,0.2c3.657,0.272,7.271,0.631,10.936,0.571c0.355,0.103,0.652,0.242,0.834,0.433
	c1.357,1.419,0.577,4.35-0.42,5.575C432.381,391.972,427.393,391.051,424.111,390.916z M469.483,407.752
	c-5.124-0.23-10.073,0.185-15.246-0.316c-3.417-0.33-6.908-0.147-10.335-0.151c-2.018-0.002-6.936,0.889-8.305-0.931
	c-1.038-1.38-0.326-6.084-0.243-7.435c0.099-1.623,0.3-2.922,0.156-4.304c1.012-0.232,1.955-0.584,2.674-1.198
	c2.632-2.25,2.786-8.877,1.136-11.702c-0.788-1.347-2.075-2.148-3.559-2.62c1.999-3.847,3.839-8.381,8.127-9.974
	c4.456-1.655,10.101-0.436,14.163,1.507c4.841,2.318,8.548,4.91,10.618,10.093c1.749,4.377,1.071,9.151,1.567,13.742
	C470.624,398.073,468.698,403.652,469.483,407.752z M498.444,362.979c-0.256,9.129-0.725,18.13-1.547,27.182
	c-0.271,2.986-0.374,6.069-0.858,9.023c-0.396,2.416-0.507,2.886-2.798,3.692c-2.067,0.726-4.186,1.176-6.352,1.499
	c-3.636,0.543-7.132,0.242-10.462,0.727c-0.161-0.401-0.259-0.905-0.278-1.557c-0.061-2.2,0.583-4.397,0.435-6.655
	c-0.626-9.621-1.311-19.771-9.025-26.762c-5.903-5.35-15.76-8.359-23.693-6.529c-5.193,1.199-10.84,6.563-11.733,12.154
	c-0.425,0.865-0.8,1.756-1.071,2.711c-0.023-0.001-0.047-0.002-0.07-0.002c-1.53-0.326-3.069-0.61-4.547-0.803
	c-2.634-0.344-6.593-0.859-10.36-0.779c0.246-2.288,0.042-4.699-0.236-6.891c-0.566-4.46-1.25-9.744-3.086-13.886
	c-3.996-9.019-15.903-12.156-24.824-11.064c-10.338,1.265-18.529,5.501-22.808,15.297c-1.372,3.14-4.299,11.556-3.364,16.788
	c-4.557-0.647-10.186,0.09-13.594,0.537c-1.478,0.193-3.018,0.477-4.547,0.803c-0.023,0-0.046,0.002-0.07,0.002
	c-0.271-0.955-0.646-1.846-1.071-2.711c-0.893-5.591-6.539-10.954-11.733-12.154c-7.933-1.832-17.789,1.178-23.692,6.529
	c-3.353,3.039-5.377,6.675-6.646,10.606c-0.42-0.733-0.93-1.361-1.547-1.815c-4.285-3.154-13.797-1.902-18.704-1.26
	c-1.479,0.193-3.019,0.477-4.547,0.803c-0.023,0-0.046,0.002-0.07,0.002c-0.271-0.955-0.646-1.846-1.071-2.711
	c-0.893-5.591-6.54-10.954-11.733-12.154c-7.932-1.832-17.789,1.178-23.692,6.529c-2.958,2.681-4.876,5.828-6.16,9.23
	c-0.16-0.156-0.322-0.309-0.498-0.44c-4.285-3.154-13.797-1.902-18.705-1.26c-1.478,0.193-3.018,0.477-4.547,0.803
	c-0.024,0-0.047,0.002-0.07,0.002c-0.271-0.955-0.646-1.846-1.071-2.711c-0.892-5.591-6.539-10.954-11.733-12.154
	c-7.933-1.832-17.79,1.178-23.693,6.529c-2.885,2.614-4.785,5.669-6.068,8.974c-0.071-0.059-0.134-0.129-0.207-0.183
	c-4.283-3.154-13.797-1.902-18.704-1.26c-1.478,0.193-3.018,0.477-4.547,0.803c-0.024,0-0.046,0.002-0.07,0.002
	c-0.271-0.955-0.646-1.846-1.071-2.711c-0.892-5.591-6.539-10.954-11.733-12.154c-7.933-1.832-17.79,1.178-23.693,6.529
	c-2.958,2.68-4.876,5.828-6.16,9.231c-0.16-0.156-0.322-0.309-0.498-0.44c-4.283-3.154-13.797-1.902-18.704-1.26
	c-1.478,0.193-3.018,0.477-4.547,0.803c-0.024,0-0.046,0.002-0.07,0.002c-0.271-0.955-0.646-1.846-1.071-2.711
	c-0.893-5.591-6.539-10.954-11.733-12.154c-7.932-1.832-17.789,1.178-23.693,6.529c-7.714,6.991-8.399,17.142-9.024,26.762
	c-0.147,2.258,0.497,4.455,0.435,6.655c-0.024,0.847-0.188,1.436-0.45,1.876c-4.686,0.085-9.679,1.499-13.902-0.291
	c-2.099-0.891-2.005-1.036-2.404-3.254c-0.347-1.933-0.504-3.968-0.64-5.921c-0.241-3.455-0.521-6.905-0.675-10.35
	c-0.329-7.348-0.624-14.948-1.388-22.258c-0.445-4.27-0.506-8.329-0.388-12.579c0.083-2.974-0.048-6.147-0.823-9.057
	c6.019,0.154,12.047-0.156,18.058,0.062c5.806,0.21,11.93,0.737,17.721,0.39c6.74-0.405,13.534-1.849,20.292-1.736
	c14.301,0.24,28.645,0.978,42.945,0.453c14.764-0.542,29.586,0.796,44.385,0.272c15.429-0.547,30.917-0.071,46.357-0.482
	c28.392-0.757,56.742-1.87,85.127-1.013c27.681,0.835,55.423,2.141,83.071,0.654c1.804,0.36,3.785,0.281,5.476,0.392
	c5.131,0.34,10.438,0.388,15.585,0.381c4.428-0.005,8.934,0.233,13.354-0.016c3.369-0.189,6.98,0.021,10.452-0.156
	c4.306,0.316,8.751-0.055,12.8-0.392c8.903-0.742,17.893-0.621,26.839-0.613c9.929,0.008,19.874,0.201,29.8,0.024
	c5.476-0.098,11.067,0.913,16.599,0.973C497.869,347.982,498.648,355.702,498.444,362.979z M502.978,335.002
	c-1.441,0.213-3.454-0.017-4.883-0.032c-3.492-0.035-6.957-0.364-10.438-0.605c-14.68-1.016-29.747-0.114-44.479-0.101
	c-6.188,0.006-12.421,0.241-18.596,0.742c2.217-4.401,2.44-10.729,2.101-16.758c5.633,1.297,11.998,0.411,17.599,0.601
	c7.686,0.26,15.32,1.013,23.038,0.921c0.865-0.01,1.722-0.044,2.58-0.078c6.549,0.17,14.209-1.381,19.953,1.868
	c2.9,1.64,5.673,3.473,8.017,5.875c1.864,1.911,3.546,4.885,5.867,6.259c0.159,0.426,0.329,0.723,0.508,0.918
	C503.824,334.742,503.401,334.872,502.978,335.002z"/>
<path d="M374.294,303.193c-0.848,2.505-0.753,7.268-0.763,9.906c-0.016,4.07,0.095,8.397,0.688,12.437
	c0.947,6.463,6.64,5.433,12.285,5.914c7.166,0.611,16.302,2.674,23.391,0.645c4.367-1.249,5.26-6.172,5.875-10.179
	c0.671-4.361-0.282-8.672-0.331-13.02c-0.03-2.647,1.042-6.794-0.268-9.233c-1.445-2.691-4.756-3.174-8.14-2.903
	c-6.628-1.241-14.487,0.691-20.93,0.588C380.679,297.263,376.337,297.162,374.294,303.193z M379.826,301.516
	c2.108-1.336,5.695-0.901,8.222-0.995c2.356-0.088,4.706-0.083,7.051-0.247c1.427-0.099,2.823-0.175,4.205-0.262
	c0.082,0.027,0.163,0.054,0.259,0.057c2.981,0.094,6.184,0.258,9.102,0.931c2.97,0.685,2.763,1.434,2.733,4.405
	c-0.055,5.512,1.531,11.98,0.063,17.331c-0.434,1.586-1.152,3.874-2.306,4.759c-1.867,1.43-5.852,0.951-8.196,0.94
	c-5.875-0.026-11.606-0.95-17.441-1.357c-2.827-0.197-4.528-0.162-5.375-3.109c-0.695-2.421-0.487-5.77-0.715-8.288
	C377.084,311.899,376.158,303.84,379.826,301.516z"/>
<g>
</g>
<g>
</g>
<g>
</g>
<g>
</g>
<g>
</g>
<g>
</g>
<g>
</g>
<g>
</g>
<g>
</g>
<g>
</g>
<g>
</g>
<g>
</g>
<g>
</g>
<g>
</g>
<g>
</g>
</svg>
