<?xml version="1.0" encoding="iso-8859-1"?>
<!-- Generator: Adobe Illustrator 19.0.0, SVG Export Plug-In . SVG Version: 6.00 Build 0)  -->
<svg version="1.1" id="Layer_1" xmlns="http://www.w3.org/2000/svg" xmlns:xlink="http://www.w3.org/1999/xlink" x="0px" y="0px"
	 viewBox="0 0 512.003 512.003" style="enable-background:new 0 0 512.003 512.003;" xml:space="preserve">
<path style="fill:#E0E0E0;" d="M166.241,407.132c-0.121-2.7,0.49-5.582,2.738-6.939c3.561-2.152,7.675,0.045,11.293-2.633
	c2.806-2.076,4.005-5.461,4.281-8.832c0.194-2.374-0.337-4.709-0.645-7.051c-0.442-3.356-0.052-6.41,0.02-9.76
	c0.155-7.167,0.178-14.339,0.265-21.508c0.544-44.81,1.05-89.619,1.818-134.425c0.223-13.001-4.022-27.368,8.789-37.646
	c0.941-0.754,1.349-2.853,1.169-4.216c-0.717-5.457,0.157-10.779,0.448-16.202c0.259-4.796-1.447-10.029,0.862-14.542
	c1.135-2.219,3.12-3.867,4.624-5.855c5.303-7.006,0.707-17.367,2.014-25.201c0.62-3.718,2.878-7.401,6.44-8.631
	c1.546-0.534,3.214-0.575,4.818-0.899c3.93-0.796,5.666-4.205,3.528-7.68c-1.518-2.467-5.935-5.837-0.291-7.248
	c4.294-1.073,8.984,1.334,13.17-0.102c3.325-1.141,5.472-4.525,6.136-7.976c0.621-3.228-0.337-6.294-0.076-9.481
	c0.21-2.566,0.756-5.097,0.911-7.714c0.398-6.676,1.159-13.346,2.97-19.8c0.62-2.208,1.414-4.542,3.247-5.918
	c1.415-1.064,3.278-1.411,4.665-2.511c2.547-2.019,2.686-5.838,2.049-9.025c-0.865-4.335-3.637-22.383,2.775-24.175
	c9.403-2.626,5.398,20.947,5.221,25.181c-0.113,2.733,0.035,5.666,1.791,7.844c1.756,2.178,4.495,3.351,6.202,5.595
	c1.936,2.546,3.156,5.574,3.804,8.691c0.867,4.171,2.349,8.159,2.93,12.459c0.67,4.964,0.272,9.947,0.707,14.911
	c0.346,3.944-1.201,8.323,2.972,10.629c2.703,1.494,6.054,1.251,9.008,0.352c2.054-0.626,4.373-1.521,6.222-0.429
	c2.024,1.196,2.198,4.121,1.434,6.344c-0.765,2.223-2.204,4.213-2.625,6.526c-0.422,2.312,0.77,5.229,3.113,5.421
	c1.275,0.105,2.452-0.623,3.688-0.95c4.041-1.068,8.125,2.497,9.193,6.537c1.12,4.24-0.409,8.591-0.081,12.882
	c0.306,3.997-0.414,7.87-1.285,11.779c-0.412,1.851-0.63,4.336,1.103,5.106c0.633,0.281,1.355,0.217,2.043,0.29
	c7.07,0.752,5.002,9.604,5.516,14.23c0.696,6.257,0.943,12.498,0.943,18.814c0.028,1.432,0.101,2.987,1.021,4.085
	c1.059,1.265,2.872,1.506,4.384,2.165c3.08,1.344,4.993,4.588,5.622,7.889c0.697,3.653,0.222,7.452,0.712,11.128
	c0.584,4.385-0.141,8.931-0.093,13.349c0.204,18.442,0.39,36.883,0.565,55.325c0.213,22.49,0.411,44.98,0.616,67.47
	c0.102,11.245,0.204,22.49,0.312,33.735c0.053,5.622,0.103,11.245,0.164,16.867c0.038,3.633-2.564,8.48,0.82,11.206
	c1.74,1.402,4.054,1.817,6.264,2.149s4.519,0.662,6.349,1.945c4.08,2.861,3.965,8.832,3.421,13.786
	c-0.59,5.367-1.179,10.734-1.769,16.101c-0.378,3.443-0.5,7.536,2.231,9.667c1.166,0.909,2.654,1.266,4.02,1.833
	c12.509,5.19,8.431,22.087,7.405,32.139c-0.171,1.674-0.309,3.493,0.6,4.909c0.936,1.457,2.766,2.093,4.494,2.206
	c1.728,0.112,3.46-0.195,5.191-0.145c4.694,0.14,9.185,3.162,11.081,7.46c4.075,9.235-3.51,18.922-12.145,21.42
	c-7.007,2.027-14.481,1.041-21.728,0.221c-19.58-2.216-39.311-3.097-59.011-2.639c-21.218,0.492-42.415-0.859-63.735-0.809
	c-22.333,0.053-44.664,0.774-66.953,2.161c-5.101,0.317-10.419,0.635-15.122-1.366c-3.661-1.558-7.617-5.512-7.479-9.797
	c0.05-1.532,0.93-2.681,1.264-4.129c0.567-2.452,0.133-5.028,0.569-7.518c0.381-2.17,1.153-4.539,3.101-5.567
	c2.46-1.299,5.436,0.165,8.217,0.076c2.47-0.079,4.855-1.513,6.083-3.658c1.884-3.295,0.622-9.051,0.855-12.83
	c0.359-5.837,0.183-11.698,0.714-17.546c0.148-1.632,0.417-3.441,1.694-4.467c1.587-1.273,3.918-0.734,5.891-1.233
	c2.733-0.692,4.569-3.414,5.075-6.188c0.712-3.904-0.105-8.551-0.033-12.57c0.084-4.621,0.086-9.265-0.482-13.859
	C166.294,407.948,166.259,407.542,166.241,407.132z"/>
<g>
	<path style="fill:#555D77;" d="M198.411,193.871c0,14.507-0.322,28.95-0.322,43.48c0,9.064-0.644,18.087-0.644,27.215
		c0,4.789,0.189,9.545,0.329,14.304c0.272,9.285-0.635,18.787-0.571,28.127c0.069,10.072,0.162,20.145,0.166,30.217
		c0.009,20.087-0.315,40.192-1.848,60.228c-0.197,2.572-2.463,10.892-0.654,13.013c1.616,1.894,8.373,0.479,10.713,0.576
		c4.997,0.208,10.077,0.909,15.039,1.144c3.398,0.16,6.658,0.463,7.731-2.394c1.148-3.054,0.443-8.019,0.591-11.227
		c0.156-3.391,0.585-6.882,0.41-10.276c-0.298-5.787-0.244-11.463-0.018-17.255c0.368-9.425,0.005-19.003-0.393-28.419
		c-0.331-7.837,0.073-15.703,0.072-23.59c-0.001-7.986-0.909-15.871-0.322-23.847c0.638-8.67,0.972-17.491,0.966-26.185
		c-0.008-10.638,3.122-21.555,1.163-32.034c-1.977-10.58-0.337-22.583-0.858-33.415c-0.326-6.791,1.625-12.043-6.741-12.901
		c-5.661-0.579-11.751,0.062-17.406,0.339C202.34,191.142,200.466,191.917,198.411,193.871z"/>
	<path style="fill:#555D77;" d="M189.715,424.811c-3.552,2.968-2.254,13.909-2.254,18.237c0,6.94-0.33,13.836-0.322,20.735
		c0.005,3.453-1.796,10.018-0.258,13.213c2.087,4.337,10.829,3.213,14.664,3.213c6.89,0,13.569,0.05,20.396-0.581
		c5.313-0.49,5.53-3.504,6.032-8.848c0.663-7.052-0.103-14.346,0.233-21.418c0.296-6.236,1.753-14.414,0.133-20.528
		c-1.689-6.375-12.383-4.67-17.598-4.67C204.911,424.166,191.393,421.993,189.715,424.811z"/>
	<path style="fill:#555D77;" d="M178.119,450.578c0,6.225,0.193,12.44,0.071,18.614c-0.046,2.35,1.154,6.407-0.314,8.448
		c-1.315,1.826-4.71,1.888-7.091,1.934c-1.309,0.025-5.935,0.088-6.838-0.637c-1.602-1.286-0.797-10.493-0.967-13.472
		c-0.243-4.235-1.813-11.209,2.183-14.016c1.771-1.245,5.352-2.033,7.479-2.41C176.063,448.432,178.176,448.2,178.119,450.578z"/>
	<path style="fill:#555D77;" d="M246.725,412.249c-1.761,6.489-0.323,14.492-0.322,21.218c0.001,6.707-0.321,13.312-0.322,20.001
		c-0.001,4.578-0.233,9.217-0.644,13.772c-0.354,3.914-1.62,9.976,1.932,11.674c4.121,1.97,12.064,1.513,16.692,1.24
		c1.651-4.034,0.821-10.68,1.035-15.079c0.335-6.912,0.311-13.85,0.311-20.769c0-7.449-0.029-14.912,0.33-22.312
		c0.11-2.26,0.832-6.684-0.008-8.777c-0.861-2.144-1.702-1.736-4.366-1.932C257.754,411.016,247.625,408.856,246.725,412.249z"/>
	<path style="fill:#555D77;" d="M284.409,426.422c0.939,3.7-0.454,8.568-0.322,12.561c0.107,3.241,0.322,6.389,0.322,9.662
		c0,5.916-0.065,11.889-0.334,17.72c-0.199,4.315-2.113,11.597,2.734,12.557c8.102,1.604,16.531,0.909,24.744,0.95
		c3.729,0.018,10.768,2.291,13.357-1.361c2.149-3.031,0.803-11.575,0.796-15.29c-0.01-5.706-0.029-11.869-0.321-17.7
		c-0.265-5.294,0.217-11.43-1.029-16.524c-1.489-6.088-9.2-5.173-14.551-5.154c-5.546,0.02-11.106,0.009-16.636,0.251
		C290.085,424.23,285.198,423.215,284.409,426.422z"/>
	<path style="fill:#555D77;" d="M334.012,448.968c-1.92,4.327-0.605,13.942-0.322,19.018c0.147,2.632-0.138,5.74,0.322,8.36
		c0.534,3.042,2.048,3.17,5.413,3.472c2.162,0.193,7.267,0.974,8.759-0.68c1.646-1.825,0.473-7.266,0.818-9.584
		c0.56-3.771,0.139-7.698,0.149-11.566c0.01-3.553-0.147-6.223-3.697-7.658C342.711,449.221,337.885,447.992,334.012,448.968z"/>
	<path style="fill:#555D77;" d="M282.476,192.905c-1.631,4.605-0.309,11.309-0.322,16.265c-0.011,4.394,0.274,8.631,0,13.045
		c-0.518,8.351,0.731,16.448,0.924,24.763c0.227,9.736,0.364,19.474,0.364,29.213c0,19.072,0,38.277,0,57.457
		c0,19.077-0.608,38.014,0.322,57.099c0.223,4.561-1.712,16.74,1.676,20.13c2.383,2.384,10.17,1.362,13.239,1.37
		c3.818,0.01,7.418-0.34,11.174-0.322c2.783,0.014,5.068,0.251,6.139-2.161c1.774-3.993,0.627-11.336,0.627-15.697
		c0-8.188-0.653-16.265-0.983-24.407c-1.448-35.71-1.919-71.375-1.916-107.173c0.001-7.105,0.626-14.007,0.319-21.11
		c-0.248-5.761,0.626-11.508,0.434-17.269c-0.177-5.316-1.342-9.879-1.088-15.261c0.184-3.909,1.611-9.182,0.664-13.062
		c-1.213-4.97-8.275-5.23-12.562-5.459C296.45,190.06,286.625,189.146,282.476,192.905z"/>
	<path style="fill:#555D77;" d="M205.175,178.411c1.838-4.833,0.382-13.341,0.643-18.609c0.112-2.258-0.658-7.249,0.63-9.115
		c1.431-2.071,4.88-1.138,7.102-1.249c4.938-0.246,12.212-1.882,17.07-0.339c3.976,1.263,2.254,7.996,2.254,11.934
		c0,4.502,1.377,10.381,0,14.719c-1.615,5.087-9.263,2.789-13.954,2.908C215.3,178.753,209.867,178.547,205.175,178.411z"/>
	<path style="fill:#555D77;" d="M212.583,138.472c0-5.723,0.306-11.42,0.322-17.07c0.018-6.689,2.262-8.716,8.857-9.031
		c2.998-0.143,6.15-0.096,9.13,0.061c0.417,7.58-0.225,15.257-0.595,22.818C229.831,144.781,217.481,136.456,212.583,138.472z"/>
	<path style="fill:#555D77;" d="M280.866,140.726c2.511-5.852-6.158-28.199,1.934-29.343c1.881-0.265,5.243,1.248,7.407,1.249
		c1.622,0,5.672-1.467,7.093-0.759c3.751,1.869,2.867,12.45,2.568,15.898c-0.25,2.888,0.994,8.6-0.934,10.691
		c-1.628,1.765-6.18,2.392-8.401,2.262C288.572,140.611,283.238,140.786,280.866,140.726z"/>
	<path style="fill:#555D77;" d="M279.578,152.321c0,5.154,0,10.306,0,15.46c0,2.423-0.994,8.019,0.574,10.001
		c2.024,2.559,8.274,1.918,11.025,1.919c4.375,0.002,8.03,0.068,12.309-0.968c3.053-0.74,3.517-1.013,3.65-4.652
		c0.117-3.195-0.542-6.678-0.814-9.81c-0.281-3.231-0.171-6.44-0.323-9.694c-0.165-3.513-0.541-4.592-3.857-5.225
		c-4.382-0.836-9.119-0.573-13.63-0.573c-1.478,0-3.651-0.401-5.067,0.071C281.109,149.63,281.354,151.287,279.578,152.321z"/>
	<path style="fill:#555D77;" d="M242.537,108.195c0.321,13.185-0.695,26.349-1.23,39.515c-0.481,11.855-0.035,23.712-0.059,35.627
		c-0.015,7.572,0.193,15.033-0.162,22.613c-1.173,25.136-0.867,50.329-1.119,75.502c-0.133,13.273-1.209,26.267-0.669,39.544
		c0.213,5.247,0.334,10.468,0.339,15.734c0.007,7.125-0.631,14.222-0.959,21.336c-0.349,7.598-1.295,15.085-1.295,22.761
		c0,3.733-1.585,12.906,0.831,16.135c2.167,2.898,10.526,2.242,13.725,2.387c4.702,0.213,9.291,0.586,13.952,0.339
		c3.991-0.212,6.423,0.363,7.967-3.94c1.116-3.109,0.565-7.319,0.565-10.583c0-6.098,0.325-12.154,0.322-18.245
		c-0.007-14.551-0.88-28.825-1.868-43.315c-0.61-8.938-0.448-17.956-1.031-26.919c-0.488-7.501-1.551-14.953-2.005-22.456
		c-0.387-6.401,1.353-12.579,1.362-19.081c0.043-32.825-1.965-65.716-0.573-98.43c0.361-8.475,0.573-16.908,0.573-25.431
		c0-6.387,1.559-15.056,0.017-21.264c-1.221-4.918-8.008-4.871-12.184-5.068C255.013,104.768,243.338,103.119,242.537,108.195z"/>
</g>
<path style="fill:#86A6B7;" d="M255.435,1.31c-6.62,0.814-3.953,14.165-3.953,18.628c0,3.469,0.173,6.99,0,10.455
	c-0.209,4.18-2.803,3.891-5.993,5.993c-3.812,2.513-3.553,6.289-4.942,10.095c-2.313,6.341-2.237,13.452-2.838,20.123
	c-0.487,5.4-0.409,11.005-1.193,16.323c-0.319,2.162,0.11,2.906-2.259,3.953c-1.875,0.829-4.087,0.343-6.074,0.271
	c-2.652-0.097-10.768-0.489-11.717,2.67c-0.748,2.488,1.934,4.215,2.958,6.143c1.048,1.972,0.167,3.919,1.009,5.76
	c1.486,3.254,7.182,2.365,10.094,2.365c4.677,0,9.38-0.137,14.056-0.011c6.195,0.167,12.479,0.001,18.75,0.279
	c2.115,0.094,4.337,0.569,6.508,0.297c2.305-0.289,3.689-1.525,6.059-1.991c4.239-0.834,13.739,1.483,15.315-3.071
	c0.419-1.21,0.325-2.38,0.782-3.551c0.48-1.23,1.721-2.231,2.24-3.391c0.821-1.835,1.068-3.125-0.184-4.72
	c-3.612-4.599-12.437,0.361-17.164-1.914c-2.445-1.177-1.111-3.595-1.15-6.502c-0.056-4.391-0.689-8.865-0.885-13.291
	c-0.224-5.062-0.324-10.368-1.342-15.365c-0.793-3.892-2.684-5.915-4.462-9.25c-1.239-2.323-1.721-3.872-3.734-5.553
	c-1.576-1.318-3.864-2.24-4.743-4.189c-1.135-2.518-0.34-7.071-0.34-9.782c0-4.848,0.498-9.754-0.22-14.499
	C259.631,5.054,258.309,0.905,255.435,1.31z"/>
<path style="fill:#555D77;" d="M250.917,42.817c1.002,14.109-2.964,29.732-0.239,43.723c2.507,0.618,7.096,1.253,9.514,0.565
	c0.566-10.295-1.016-20.599-0.525-30.932c0.132-2.78,1.794-10.707,0.298-13.218C258.746,40.905,253.148,41.785,250.917,42.817z"/>
<path style="fill:#CCCCCA;" d="M135.933,506.124c-1.407-2.25-2.223-6.11-0.925-8.613c2.222-4.282,9.04-3.539,13.047-3.657
	c9.35-0.277,18.754,0.707,28.125,0.59c11.882-0.149,23.757-0.351,35.632-0.802c22.442-0.852,44.98,0.027,67.435-0.342
	c24.417-0.401,48.859-0.369,73.265,0.503c6.935,0.247,13.896-0.788,20.802-0.539c1.967,0.071,6.478,0.619,7.463,2.765
	c0.858,1.87-1.183,6.565-2.529,8.008c-2.009,2.153-5.016,2.538-7.881,3.254c-6.012,1.503-11.924,1.467-18.122,1.46
	c-11.774-0.015-23.538,0.307-35.314,0.298c-23.234-0.017-46.561-1.693-69.79-0.811c-23.496,0.892-47.012-1.285-70.53-0.592
	c-7.708,0.227-15.32-0.373-23.024-0.356c-2.826,0.006-5.893,0.374-8.665-0.279C143.098,506.582,141.575,505.464,135.933,506.124z"/>
<path d="M381.42,483.691c-2.771-5.805-10.722-5.931-16.355-6.351c-1.196-0.089-2.405-0.139-3.62-0.165
	c0.215-6.482,0.382-12.833-0.156-19.363c-0.378-4.599,0.687-12.043-2.085-16.02c-2.467-3.539-7.541-4.317-11.858-4.945
	c0.865-3.157,0.49-6.308,1.032-9.877c0.835-5.491,0.686-11.564,0.483-17.114c-0.133-3.629,0.072-9.614-3.13-12.112
	c-3.187-2.487-10-2.027-13.826-2.105c-0.125-0.002-0.234,0.018-0.351,0.026c0.032-24.912-0.524-49.851-0.524-74.732
	c-0.001-23.897-1.717-47.807-1.717-71.722v-38.659c0-6.667,0.129-13.342,0.042-20.008c-0.029-2.268-0.433-4.417-0.593-6.665
	c-0.129-1.804,0.374-3.665-0.451-5.374c-1.621-3.361-5.585-3.249-8.889-3.175c0.574-3.383-0.218-7.668-0.284-10.305
	c-0.113-4.513-0.315-9.228-0.751-13.72c-0.314-3.231,0.544-7.625-0.584-10.665c-1.067-2.874-3.623-3.932-6.471-4.324
	c-0.1-9.535,0.137-19.162-1.595-28.473c-0.651-3.5-2.062-5.611-5.556-6.91c-2.751-1.023-6.481-1.362-9.811-1.377
	c0.281-3.091,1.651-3.558,3.191-6.107c0.67-1.109,1.146-2.272,0.963-3.579c-0.566-4.038-4.499-4.478-7.719-4.72
	c-4.473-0.337-8.95-0.079-13.434-0.091c-0.055-4.134,0.591-8.535,0.435-12.701c-0.199-5.336-0.919-10.711-1.596-16.012
	c-0.497-3.9-0.715-9.361-3.383-12.466c-0.509-0.593-1.118-1.118-1.776-1.572c-0.021-0.124-0.052-0.252-0.099-0.384
	c-1.251-3.473-2.401-6.724-5.877-8.469c-0.895-0.45-1.834-0.789-2.8-1.05c0.034-0.15,0.06-0.309,0.068-0.483
	c0.197-4.523-0.021-9.048-0.228-13.568c-0.206-4.501,0.372-9.53-0.52-13.943c-0.823-4.08-3.49-4.702-7.302-4.31
	c-5.279,0.541-4.93,6.232-5.105,10.459c-0.159,3.83,0.186,7.684,0.29,11.51c0.036,1.336,0.529,10.285,1.166,9.848
	c-0.095,0.066-0.175,0.147-0.245,0.237c-5.343,1.394-12.182,6.137-11.232,11.729c-2.665,3.106-2.883,8.565-3.38,12.463
	c-0.677,5.303-1.397,10.678-1.596,16.012c-0.099,2.654,0.126,5.402,0.289,8.116c-0.125,1.515-0.126,2.974-0.073,4.582
	c-4.41,0.003-8.814-0.237-13.215,0.094c-3.22,0.242-7.153,0.683-7.719,4.72c-0.183,1.307,0.294,2.47,0.962,3.579
	c1.539,2.549,2.909,3.016,3.191,6.107c-3.331,0.015-7.06,0.355-9.811,1.377c-3.493,1.299-4.905,3.41-5.556,6.91
	c-1.731,9.311-1.493,18.939-1.595,28.473c-2.847,0.392-5.403,1.448-6.471,4.324c-1.128,3.04-0.27,7.434-0.584,10.665
	c-0.436,4.492-0.638,9.207-0.751,13.72c-0.066,2.637-0.858,6.922-0.285,10.305c-3.304-0.075-7.268-0.186-8.889,3.175
	c-0.823,1.709-0.322,3.57-0.451,5.374c-0.16,2.248-0.564,4.397-0.593,6.665c-0.087,6.666,0.042,13.341,0.042,20.008v38.659
	c0,23.915-1.717,47.825-1.717,71.722c0,24.881-0.557,49.819-0.524,74.732c-0.117-0.008-0.227-0.028-0.351-0.026
	c-3.825,0.078-10.638-0.382-13.826,2.105c-3.202,2.498-2.996,8.484-3.13,12.112c-0.203,5.55-0.351,11.624,0.483,17.114
	c0.542,3.57,0.167,6.72,1.032,9.877c-4.317,0.628-9.391,1.405-11.858,4.945c-2.772,3.977-1.705,11.421-2.085,16.02
	c-0.538,6.53-0.369,12.881-0.156,19.363c-1.215,0.027-2.424,0.076-3.62,0.165c-5.634,0.42-13.585,0.546-16.355,6.351
	c-2.649,5.549-1.247,14.079-0.042,19.935c1.238,6.01,6.961,7.317,12.428,7.647c9.184,0.556,18.592,0.869,27.784,0.649
	c9.691-0.232,19.487-0.649,29.155-0.594c4.789,0.027,9.5-0.553,14.289-0.559c5.779,1.651,12.308,1.29,18.232,0.906
	c1.993-0.129,4.395,0.047,6.12-0.587c5.27-0.02,10.539,0.116,15.835,0.137c6.415,0.024,12.764,0.025,19.166,0.033
	c0.148,0,0.303,0.003,0.453,0.005c1.664,0.431,3.784,0.298,5.574,0.415c5.924,0.384,12.452,0.747,18.232-0.906
	c4.79,0.006,9.5,0.586,14.289,0.559c9.669-0.055,19.466,0.364,29.155,0.594c9.193,0.219,18.601-0.094,27.784-0.649
	c5.468-0.331,11.191-1.638,12.428-7.647C382.668,497.771,384.069,489.241,381.42,483.691z M353.837,447.936
	c0.896,2.227,0.407,5.556,0.514,7.914c0.119,2.619,0.378,5.218,0.413,7.843c0.061,4.554-0.304,9.023-0.607,13.531
	c-1.015,0.024-2.027,0.049-3.03,0.069c-0.491,0.01-0.983-0.007-1.474-0.01c0.487-2.792,0.682-5.633,0.822-8.461
	c0.245-4.967,1.154-10.569,0.267-15.497c-1.146-6.37-8.696-5.669-13.622-6.42c-0.151-0.023-0.297-0.03-0.438-0.025
	c0.02-1.354,0.037-2.708,0.06-4.063c0.006-0.343,0.001-0.686,0.001-1.029c0.614,0.119,1.227,0.232,1.827,0.349
	C343.197,443.045,351.847,442.982,353.837,447.936z M347.089,477.239c-1.498-0.052-2.994-0.121-4.488-0.163
	c0.435-1.664-0.017-4.076-0.001-5.361c0.026-2.144-0.02-4.291-0.005-6.437c1.603,0.001,3.185-0.076,4.802-0.308
	C347.035,469.039,346.445,473.361,347.089,477.239z M342.774,461.009c0.02-0.237,0.024-0.475,0.049-0.713
	c0.325-3.17,0.978-6.125,0.176-9.17c5.524,0.97,4.722,5.148,4.63,9.815C346.101,460.648,344.395,460.872,342.774,461.009z
	 M336.518,464.806c0.716,0.226,1.498,0.3,2.31,0.348c-0.003,0.532-0.006,1.063-0.007,1.567c-0.009,2.926-0.837,7.399,0.124,10.345
	c-0.114,0.003-0.228,0.001-0.342,0.005c-0.966,0.035-1.917,0.01-2.861-0.035C336.58,473.083,336.568,468.914,336.518,464.806z
	 M338.897,461.316c-0.804,0.104-1.602,0.228-2.409,0.347c-0.003-0.661-0.002-1.318,0.007-1.97c0.044-2.973,0.088-5.944,0.13-8.917
	c1.183,0.181,2.389,0.154,3.59,0.159C339.334,454.058,339.011,457.764,338.897,461.316z M331.908,402.388
	c2.917,0.25,8.815-1.047,10.27,2.534c0.154,0.379,0.261,0.841,0.335,1.349c0.234,1.597,0.145,3.638,0.187,4.944
	c0.089,2.733-0.142,5.465-0.141,8.199c0.002,4.564-0.121,9.151-0.263,13.687c-0.033,1.054-0.176,1.955-0.252,2.803
	c-1.729-0.36-3.641-0.724-5.506-0.873c-0.149-3.026-0.312-6.05-0.255-9.109c0.067-3.604,0.672-7.676-0.995-11.018
	c-0.817-1.638-2.068-2.812-3.577-3.676c-0.047-2.965-0.093-5.928-0.116-8.894C331.701,402.35,331.797,402.379,331.908,402.388z
	 M320.562,183.008c1.683,1.262,1.328,4.199,1.309,5.995c-0.033,3.155-0.006,6.336,0.007,9.495
	c0.093,23.644-0.312,47.319,0.699,70.91c0.492,11.49,0.244,23.073,0.44,34.576c0.183,10.753,1.094,21.566,1.172,32.348
	c0.176,24.263-0.709,48.621,0.09,72.872c-1.997-0.175-4.061-0.174-6.054-0.121c0.401-2.333,0.385-4.837,0.219-7.339
	c0.09-0.386,0.087-0.786-0.045-1.152c-0.357-18.949-1.367-37.94-1.412-56.897c-0.029-12.123,0.183-24.235,0.009-36.355
	c-0.113-7.829,0.368-16.289-0.625-24.244c0.21-12.847-0.356-25.716-0.461-38.556c-0.052-6.35-0.431-12.69-0.664-19.035
	c-0.209-5.703-0.136-11.458,0.133-17.185c0.204-4.374,0.37-8.768-0.072-13.133c-0.665-6.569-8.088-6.169-13.106-6.061
	c-3.661,0.079-7.31,0.479-10.973,0.509c-3.802,0.033-9.528-1.204-11.001,2.754c-1.326,3.563-1.062,8.472-0.042,12.634
	c-0.5,13.479-0.331,27.014-0.421,40.478c-0.104,15.572,0.542,31.123,1.743,46.64c0.019,5.803-0.084,11.595-0.148,17.402
	c-0.128,11.677-0.279,23.34-0.295,35.021c-0.012,9.467,0.253,19.033,0.57,28.5c0.053,1.595,0.068,3.213,0.071,4.84
	c-0.009,0.079-0.003,0.155,0.001,0.232c0.006,6.881-0.276,13.968,0.382,20.746c0.314,3.241-0.426,6.811,0.656,9.999
	c-1.813-0.091-3.626-0.171-5.442-0.176c-0.228-4.256-0.584-8.512-0.39-12.753c1.056-23.155-0.561-46.284-0.638-69.481
	c-0.087-26.358-1.346-52.631-1.391-78.996c-0.011-6.305,0.457-12.827-0.155-19.102c-0.482-4.942-0.09-9.865-0.524-14.806
	c-0.762-8.678,0.076-17.27-0.12-25.939c-0.03-1.336-0.753-2.508,0.251-3.62c0.802-0.888,2.132-1.26,3.256-1.51
	c1.948-0.434,4.542-0.796,6.508-0.332c2.016,0.475,3.728,0.905,5.856,0.957c5.347,0.13,10.688-0.243,16.034-0.294
	c2.664-0.025,5.338,0.059,8.003,0.066C315.917,182.895,318.989,181.829,320.562,183.008z M311.448,251.894
	c-2.091-0.126-4.178-0.099-6.264-0.045c0.072-2.131,0.152-4.26,0.253-6.388c0.032-0.67,0.051-1.345,0.079-2.016
	c2.005-0.075,4.002-0.2,5.937-0.383c-0.003,0.812-0.001,1.624-0.007,2.436C311.432,247.632,311.434,249.763,311.448,251.894z
	 M305.673,239.415c0.089-2.799,0.145-5.603,0.178-8.408c1.906-0.077,3.803-0.197,5.644-0.372c-0.007,2.946-0.023,5.89-0.03,8.836
	C309.531,239.354,307.602,239.37,305.673,239.415z M305.883,226.986c0.008-2.504,0.002-5.003-0.028-7.489
	c-0.003-0.3,0-0.609,0.001-0.915c1.93-0.078,3.853-0.2,5.714-0.378c-0.007,0.515-0.018,1.03-0.023,1.545
	c-0.026,2.433-0.026,4.867-0.035,7.3C309.634,226.933,307.758,226.945,305.883,226.986z M305.953,214.561
	c0.112-2.737,0.28-5.583,0.337-8.42c1.884-0.084,3.754-0.21,5.568-0.39c-0.014,0.374-0.034,0.748-0.046,1.12
	c-0.086,2.588-0.142,5.175-0.189,7.764C309.731,214.514,307.841,214.52,305.953,214.561z M306.269,202.131
	c-0.099-2.917-0.426-5.758-1.164-8.395c1.263,0.028,2.524,0.064,3.798,0.133c1.167,0.063,2.154,0.765,2.9,1.675
	c1.175,1.431,0.344,3.422,0.262,5.105c-0.026,0.532-0.041,1.064-0.064,1.596C310.088,202.105,308.178,202.093,306.269,202.131z
	 M311.486,255.485c0.04,2.952,0.103,5.902,0.192,8.853c-2.265-0.149-4.523-0.12-6.782-0.058c0.038-2.799,0.095-5.596,0.169-8.391
	C307.234,255.817,309.396,255.682,311.486,255.485z M311.796,267.877c0.11,2.977,0.245,5.954,0.401,8.929
	c-2.468-0.194-4.93-0.169-7.39-0.102c0.003-2.797,0.014-5.593,0.038-8.387C307.193,268.245,309.539,268.099,311.796,267.877z
	 M312.382,280.237c0.176,3.022,0.381,6.044,0.601,9.064c-2.723-0.271-5.438-0.249-8.152-0.173c-0.011-2.794-0.019-5.59-0.024-8.386
	C307.373,280.664,309.932,280.495,312.382,280.237z M313.187,292.576c0.007,3.056-0.017,6.11-0.052,9.164
	c-2.76-0.286-5.514-0.263-8.265-0.187c-0.005-2.793-0.012-5.589-0.025-8.385C307.681,293.078,310.51,292.88,313.187,292.576z
	 M313.096,305.008c-0.019,1.51-0.038,3.02-0.054,4.532c-0.017,1.537-0.033,3.072-0.05,4.609c-2.687-0.268-5.366-0.25-8.044-0.176
	c-0.035-2.794-0.059-5.59-0.064-8.385C307.674,305.501,310.458,305.307,313.096,305.008z M312.956,317.448
	c-0.034,3.038-0.069,6.076-0.098,9.115c-2.568-0.246-5.131-0.236-7.693-0.168c-0.061-2.794-0.119-5.589-0.165-8.383
	C307.704,317.923,310.396,317.733,312.956,317.448z M312.835,329.885c-0.026,3.03-0.041,6.063-0.054,9.094
	c-2.445-0.229-4.886-0.229-7.323-0.168c-0.068-2.795-0.136-5.592-0.201-8.387C307.831,330.334,310.392,330.153,312.835,329.885z
	 M312.76,342.316c-0.002,0.749-0.012,1.497-0.014,2.245c-0.003,2.276,0.011,4.557,0.037,6.841c-2.355-0.221-4.703-0.229-7.051-0.174
	c-0.053-2.799-0.116-5.596-0.182-8.394C308.001,342.743,310.434,342.57,312.76,342.316z M312.838,354.732
	c0.051,3.039,0.116,6.08,0.2,9.118c-2.366-0.238-4.726-0.254-7.085-0.202c-0.043-1.85-0.082-3.699-0.107-5.548
	c-0.012-0.951-0.032-1.901-0.046-2.852C308.193,355.154,310.567,354.982,312.838,354.732z M313.13,367.125
	c0.06,1.982,0.121,3.963,0.187,5.937c0.036,1.073,0.056,2.155,0.068,3.243c-2.357-0.261-4.709-0.286-7.058-0.241
	c-0.098-2.801-0.189-5.602-0.269-8.403C308.467,367.561,310.853,367.383,313.13,367.125z M313.393,379.52
	c-0.01,3.051-0.055,6.133-0.041,9.206c-2.199-0.242-4.394-0.281-6.585-0.247c-0.096-2.803-0.197-5.608-0.298-8.411
	C308.83,379.96,311.167,379.78,313.393,379.52z M313.399,391.943c0.063,2.65,0.194,5.281,0.48,7.862
	c-0.041,0.463-0.08,0.926-0.117,1.39c-0.017-0.002-0.028-0.011-0.045-0.014c-2.206-0.265-4.406-0.313-6.604-0.287
	c-0.056-2.807-0.125-5.614-0.213-8.423C309.117,392.363,311.307,392.187,313.399,391.943z M313.585,404.347
	c-0.041,1.659,0.024,3.303,0.307,4.896c-1.102,0.043-2.137,0.073-3.06,0.064c-1.207-0.012-2.415-0.011-3.622-0.019
	c-0.005-1.467-0.007-2.935-0.026-4.404C309.37,404.771,311.527,404.592,313.585,404.347z M295.973,239.466
	c-0.524-0.032-1.055-0.073-1.593-0.121c0.089-2.799,0.142-5.604,0.176-8.409c0.587,0.011,1.169,0.027,1.743,0.054
	c2.075,0.097,4.247,0.131,6.442,0.104c-0.002,2.804-0.041,5.605-0.138,8.404C300.395,239.559,298.186,239.598,295.973,239.466z
	 M302.422,243.519c-0.073,1.257-0.158,2.514-0.263,3.769c-0.13,1.545-0.235,3.097-0.331,4.651c-1.951,0.047-3.901,0.067-5.854-0.05
	c-0.681-0.041-1.377-0.101-2.079-0.164c0.071-2.089,0.149-4.178,0.249-6.264c0.034-0.699,0.053-1.405,0.082-2.106
	c0.699,0.011,1.394,0.027,2.075,0.059C298.273,243.507,300.336,243.54,302.422,243.519z M302.567,214.651
	c-2.197,0.061-4.395,0.098-6.594-0.033c-0.431-0.026-0.872-0.062-1.314-0.099c0.113-2.737,0.281-5.582,0.335-8.418
	c0.437,0.011,0.874,0.021,1.305,0.042c2.016,0.094,4.126,0.128,6.257,0.104C302.526,209.046,302.538,211.847,302.567,214.651z
	 M296.3,218.566c2.035,0.095,4.165,0.129,6.318,0.104c0.041,2.8,0.085,5.601,0.11,8.4c-2.251,0.063-4.501,0.105-6.754-0.028
	c-0.455-0.027-0.918-0.066-1.384-0.105c0.008-2.488,0.001-4.971-0.028-7.44c-0.003-0.323,0-0.656,0.001-0.985
	C295.148,218.524,295.727,218.54,296.3,218.566z M302.634,202.226c-2.219,0.062-4.439,0.101-6.66-0.032
	c-0.329-0.019-0.665-0.049-0.998-0.076c-0.096-2.806-0.404-5.538-1.085-8.088c2.017-0.133,4.022-0.316,6.063-0.334
	c1.055-0.009,2.097,0.002,3.141,0.011C302.866,196.542,302.716,199.382,302.634,202.226z M296.3,255.838
	c1.718,0.08,3.506,0.113,5.315,0.107c-0.124,2.8-0.206,5.61-0.251,8.427c-1.797,0.038-3.594,0.047-5.392-0.06
	c-0.774-0.046-1.568-0.117-2.368-0.191c0.038-2.785,0.096-5.568,0.171-8.349C294.627,255.784,295.472,255.8,296.3,255.838z
	 M296.3,268.262c1.625,0.076,3.313,0.11,5.023,0.108c-0.015,2.806-0.003,5.616,0.026,8.427c-1.791,0.038-3.583,0.047-5.375-0.06
	c-0.804-0.047-1.629-0.122-2.461-0.199c0.003-2.782,0.015-5.563,0.04-8.343C294.479,268.204,295.4,268.22,296.3,268.262z
	 M296.3,280.686c1.65,0.077,3.365,0.11,5.101,0.108c0.043,2.81,0.095,5.618,0.147,8.422c-1.858,0.043-3.715,0.055-5.574-0.055
	c-0.796-0.047-1.614-0.121-2.438-0.197c-0.011-2.781-0.019-5.564-0.023-8.345C294.453,280.628,295.387,280.643,296.3,280.686z
	 M296.3,293.11c1.719,0.08,3.509,0.113,5.32,0.107c0.05,2.815,0.093,5.622,0.116,8.419c-1.921,0.046-3.841,0.063-5.764-0.051
	c-0.784-0.046-1.587-0.119-2.398-0.193c-0.005-2.781-0.014-5.564-0.025-8.349C294.479,293.052,295.4,293.068,296.3,293.11z
	 M296.3,305.534c1.763,0.082,3.601,0.115,5.46,0.107c0.007,2.807,0.049,5.612,0.084,8.417c-1.956,0.047-3.912,0.068-5.87-0.049
	c-0.759-0.045-1.538-0.114-2.323-0.186c-0.035-2.785-0.059-5.57-0.063-8.356C294.503,305.477,295.411,305.492,296.3,305.534z
	 M296.3,317.958c1.803,0.084,3.682,0.116,5.583,0.106c0.045,2.804,0.107,5.609,0.167,8.413c-2.025,0.052-4.05,0.077-6.078-0.044
	c-0.689-0.041-1.395-0.102-2.105-0.166c-0.061-2.791-0.119-5.582-0.164-8.374C294.58,317.902,295.449,317.918,296.3,317.958z
	 M296.3,330.381c1.882,0.088,3.846,0.121,5.832,0.106c0.064,2.802,0.124,5.605,0.189,8.408c-2.115,0.056-4.23,0.088-6.347-0.038
	c-0.595-0.035-1.202-0.086-1.813-0.14c-0.068-2.799-0.136-5.598-0.201-8.396C294.748,330.331,295.532,330.345,296.3,330.381z
	 M296.3,342.805c1.97,0.091,4.03,0.125,6.113,0.105c0.061,2.8,0.104,5.602,0.152,8.403c-2.197,0.061-4.394,0.098-6.591-0.033
	c-0.505-0.031-1.019-0.071-1.536-0.116c-0.054-2.806-0.116-5.612-0.182-8.417C294.944,342.758,295.628,342.774,296.3,342.805z
	 M296.3,355.229c2.04,0.095,4.174,0.13,6.332,0.104c0.012,0.923,0.036,1.844,0.046,2.767c0.02,1.876,0.055,3.754,0.094,5.633
	c-2.266,0.064-4.531,0.107-6.799-0.027c-0.433-0.026-0.873-0.062-1.315-0.099c-0.042-1.835-0.082-3.671-0.107-5.505
	c-0.014-0.976-0.033-1.951-0.049-2.925C295.109,355.185,295.709,355.202,296.3,355.229z M296.3,367.653
	c2.113,0.098,4.328,0.133,6.565,0.102c0.071,2.797,0.15,5.593,0.238,8.391c-2.376,0.069-4.752,0.124-7.13-0.018
	c-0.309-0.018-0.627-0.046-0.941-0.071c-0.099-2.818-0.19-5.636-0.27-8.453C295.28,367.615,295.794,367.629,296.3,367.653z
	 M296.3,380.077c2.227,0.104,4.569,0.133,6.929,0.094c0.09,2.797,0.176,5.593,0.259,8.388c-2.504,0.075-5.008,0.142-7.515-0.007
	c-0.165-0.01-0.334-0.026-0.499-0.037c-0.097-2.825-0.198-5.648-0.3-8.473C295.551,380.051,295.928,380.06,296.3,380.077z
	 M296.3,392.501c2.345,0.11,4.815,0.136,7.302,0.085c0.072,2.798,0.126,5.593,0.166,8.388c-2.598,0.077-5.194,0.157-7.794,0.001
	c-0.051-0.003-0.103-0.008-0.152-0.011c-0.056-2.828-0.126-5.656-0.215-8.486C295.837,392.486,296.07,392.491,296.3,392.501z
	 M296.3,404.925c2.412,0.113,4.957,0.137,7.516,0.08c0.009,1.422,0.001,2.844-0.003,4.266c-2.633-0.007-5.265-0.008-7.898-0.003
	c-0.005-1.451-0.006-2.904-0.025-4.356C296.026,404.917,296.165,404.919,296.3,404.925z M291.265,206.057
	c-0.033,2.72-0.024,5.443,0.005,8.167c-2.672-0.208-5.365-0.23-7.835,0.573c0.075-3.068,0.245-6.158,0.348-9.246
	C286.187,205.967,288.732,206.037,291.265,206.057z M284.09,202.167c0.332-2.697,0.454-5.443,0.629-8.104
	c2.087-0.582,5.15,0.121,7.046,0.077c-0.197,2.553-0.331,5.108-0.41,7.668C288.889,201.612,286.403,201.559,284.09,202.167z
	 M291.321,218.482c0.04,2.728,0.084,5.454,0.11,8.181c-2.647-0.212-5.321-0.256-7.782,0.492c-0.124-3.081-0.23-6.163-0.251-9.248
	C285.931,218.388,288.635,218.461,291.321,218.482z M291.449,230.907c-0.001,2.726-0.036,5.45-0.125,8.17
	c-2.443-0.192-4.906-0.244-7.201,0.351c-0.091-3.011-0.211-6.021-0.342-9.029C286.243,230.824,288.855,230.888,291.449,230.907z
	 M291.137,243.327c-0.076,1.321-0.163,2.642-0.273,3.961c-0.116,1.384-0.213,2.771-0.303,4.161
	c-2.112-0.138-4.228-0.142-6.219,0.335c-0.044-2.416-0.084-4.831-0.103-7.245c-0.005-0.547-0.029-1.092-0.038-1.639
	C286.442,243.246,288.796,243.308,291.137,243.327z M290.834,330.291c0.062,2.717,0.12,5.434,0.182,8.151
	c-1.921-0.141-3.847-0.167-5.692,0.134c0.006-2.854,0.014-5.708,0.029-8.562C287.144,330.215,288.99,330.272,290.834,330.291z
	 M285.372,326.144c0.014-2.85,0.02-5.699,0.019-8.549c1.699,0.189,3.446,0.249,5.195,0.268c0.044,2.713,0.102,5.426,0.159,8.139
	C288.931,325.877,287.116,325.864,285.372,326.144z M290.331,255.74c-0.122,2.694-0.203,5.396-0.25,8.106
	c-1.864-0.102-3.719-0.071-5.485,0.316c-0.058-2.934-0.123-5.869-0.184-8.802C286.329,255.642,288.329,255.714,290.331,255.74z
	 M290.03,268.16c-0.016,2.699-0.008,5.403,0.018,8.108c-1.801-0.096-3.594-0.063-5.307,0.293c-0.003-2.915-0.033-5.83-0.08-8.746
	C286.407,268.053,288.215,268.131,290.03,268.16z M284.727,280.247c1.748,0.234,3.559,0.312,5.375,0.339
	c0.041,2.708,0.09,5.415,0.141,8.118c-1.712-0.099-3.417-0.082-5.057,0.202c-0.097-1.955-0.247-3.898-0.486-5.81
	C284.717,282.146,284.721,281.196,284.727,280.247z M290.322,293.012c0.047,2.716,0.089,5.426,0.115,8.125
	c-1.73-0.108-3.455-0.105-5.116,0.168c0.019-2.83,0.044-5.701-0.009-8.567C286.95,292.925,288.634,292.989,290.322,293.012z
	 M290.463,305.438c0.006,2.711,0.049,5.42,0.081,8.13c-1.747-0.113-3.491-0.116-5.171,0.152c-0.01-2.127-0.017-4.253-0.047-6.38
	c-0.01-0.719-0.011-1.448-0.014-2.176C286.996,305.353,288.728,305.416,290.463,305.438z M285.318,342.435
	c1.892,0.215,3.847,0.268,5.795,0.284c0.06,2.722,0.102,5.445,0.15,8.168c-1.982-0.154-3.976-0.201-5.883,0.104
	c-0.034-2.433-0.059-4.865-0.064-7.296C285.316,343.274,285.319,342.854,285.318,342.435z M291.335,355.145
	c0.014,0.985,0.038,1.97,0.05,2.956c0.019,1.742,0.053,3.485,0.087,5.228c-1.961-0.158-3.935-0.228-5.83,0.04
	c-0.077-2.832-0.14-5.663-0.193-8.495C287.371,355.084,289.357,355.13,291.335,355.145z M291.566,367.57
	c0.069,2.736,0.147,5.472,0.232,8.21c-1.936-0.164-3.895-0.269-5.781-0.047c-0.091-2.8-0.177-5.599-0.261-8.399
	C287.659,367.522,289.619,367.556,291.566,367.57z M291.93,379.996c0.088,2.747,0.174,5.494,0.255,8.239
	c-1.929-0.171-3.884-0.287-5.775-0.11c-0.082-2.775-0.171-5.551-0.261-8.327C288.047,379.965,289.997,379.984,291.93,379.996z
	 M292.304,392.422c0.072,2.755,0.125,5.508,0.166,8.261c-1.798-0.163-3.624-0.285-5.404-0.182c-0.107-1.573-0.241-3.146-0.446-4.702
	c-0.028-1.184-0.063-2.367-0.095-3.551C288.427,392.396,290.376,392.411,292.304,392.422z M287.289,404.725
	c1.731,0.102,3.491,0.112,5.232,0.123c0.01,1.473,0.003,2.946-0.001,4.417c-1.778-0.006-3.549-0.076-5.315-0.164
	c0.119-0.302,0.2-0.614,0.193-0.913C287.366,407.049,287.331,405.891,287.289,404.725z M281.735,172.138
	c-0.001-0.226-0.002-0.452-0.005-0.678c2.232,0.695,5.888-0.008,8.518-0.332c-0.04,1.836-0.03,3.682,0.021,5.538
	c-1.103,0.023-2.198,0.019-3.273-0.033c-1.974-0.095-3.647-0.376-5.244-0.627C281.93,174.79,281.742,173.471,281.735,172.138z
	 M282.247,167.272c-0.19-0.07-0.365-0.104-0.534-0.122c0-1.856,0.018-3.71,0.086-5.565c0.001-0.038,0-0.076,0.001-0.114
	c2.898,0.25,5.753,0.045,8.617-0.123c0.019,0.415,0.033,0.812,0.031,1.175c-0.009,1.532-0.047,3.049-0.09,4.562
	C287.508,167.425,284.312,168.031,282.247,167.272z M290.157,157.432c-2.853,0.012-5.741,0.081-8.521,0.395
	c-0.164-1.778-0.366-3.553-0.262-5.349c0.026-0.454,0.097-0.971,0.472-1.229c1.702-1.169,6.53-0.452,8.514-0.386
	c0.055,0.002,0.111,0,0.166,0.002C289.98,152.737,290.017,155.137,290.157,157.432z M304.037,167.445
	c-3.377-0.666-6.909-0.359-10.336-0.534c-0.047-1.903-0.097-3.805-0.131-5.708c0.607-0.015,1.213-0.021,1.822-0.011
	c2.922,0.047,5.976,0.696,8.67-0.415C304.052,162.977,304.015,165.217,304.037,167.445z M304.118,170.47
	c0.08,1.676,0.224,3.334,0.479,4.949c-0.82,0.054-1.637,0.125-2.449,0.223c-2.664,0.318-5.459,0.651-8.251,0.853
	c-0.031-1.833-0.061-3.665-0.105-5.502C297.25,171.034,300.72,171.201,304.118,170.47z M294.804,157.408
	c-0.425,0.006-0.855,0.008-1.284,0.01c-0.018-2.182-0.009-4.361,0.028-6.536c2.311-0.027,4.617-0.113,6.928-0.058
	c3.997,0.095,3.343,1.51,3.513,5.251c0.028,0.616,0.041,1.241,0.052,1.869C301.037,157.469,297.768,157.37,294.804,157.408z
	 M311.325,143.623c0.754,0.846,0.71,7.951,0.789,9.303c0.171,2.924,0.198,5.836,0.4,8.761c0.238,3.439,0.386,6.891,0.376,10.339
	c-0.001,0.364-0.019,0.688-0.054,0.975c-0.34,2.829-2.269,2.225-5.337,2.293c1.012-4.977,0.297-10.812,0.216-15.668
	c-0.045-2.763,0.734-9.027-1.264-11.466c-1.812-2.21-6.312-0.859-8.675-0.754c-5.799,0.259-11.673-0.527-17.457,0.051
	c-0.587,0.059-1.29,0.289-1.553,0.89c-1.76,4.024-0.619,9.791-0.775,14.116c-0.137,3.775-0.927,9.031-0.287,13.116
	c-1.077-0.023-2.201,0.046-3.44,0.285c0.294-0.056,0.064-8.586,0.11-9.553c0.163-3.447,0.168-6.9,0.201-10.35
	c0.021-2.25,0.027-4.499,0.006-6.748c-0.006-0.617,0.184-6.397-0.148-6.493c6.721,1.946,15.329,1.117,22.011,0.744
	c3.081-0.172,5.909-0.294,8.929,0.027C306.659,143.628,310.691,142.912,311.325,143.623z M282.583,128.221
	c1.818-0.095,3.769-0.09,5.757-0.126c0.103,2.911,0.215,5.835-0.056,8.722c-0.034,0-0.069,0.003-0.104,0.005
	c-1.918,0.026-3.88-0.027-5.838-0.014C282.616,133.99,282.646,131.102,282.583,128.221z M288.263,124.009
	c-0.001,0.062,0.001,0.124,0.001,0.186c-1.947-0.023-3.882-0.112-5.806,0.186c-0.054-1.326-0.115-2.643-0.167-3.943
	c-0.066-1.64-0.887-4.234,0.072-5.735c0.668-1.042,0.481-0.508,1.459-0.653c1.704-0.252,3.604,0.027,5.398-0.002
	C288.703,117.361,288.294,120.631,288.263,124.009z M298.37,136.095c-2.148,0.139-4.31,0.365-6.456,0.531
	c0.271-2.867,0.094-5.801-0.13-8.675c2.226-0.164,4.4-0.509,6.367-1.251c0.062,1.905,0.165,3.807,0.093,5.708
	C298.243,132.402,298.227,134.533,298.37,136.095z M298.111,123.709c-2.026-0.515-4.479,0.084-6.561,0.343
	c-0.084-3.374,0.096-6.796-0.399-10.107c0.91-0.053,1.816-0.082,2.734-0.052c3.424,0.114,3.603,0.845,4.005,3.829
	C298.154,119.667,298.121,121.724,298.111,123.709z M300.413,106.978c4.294,0.296,3.74,2.949,4.037,6.761
	c0.245,3.136-0.479,6.247-0.238,9.42c0.326,4.3,0.238,8.595,0.178,12.912c-0.306-0.008-0.602-0.019-0.884-0.036
	c-0.8-0.049-1.607-0.055-2.417-0.046c0.352-3.151-0.116-6.753-0.138-9.703c-0.027-3.674,0.675-8.517-0.422-12.079
	c-1.005-3.262-3.539-3.367-6.64-3.42c-4.452-0.077-8.867,0.207-13.334,0.091c-0.565-0.015-1.123,0.32-1.403,0.805
	c-1.726,2.992-0.182,9.406-0.077,12.801c0.124,4.026,0.186,8.403-0.224,12.466c-1.554,0.124-3.09,0.344-4.58,0.761
	c0.627-0.174-0.472-7.33-0.482-8.365c-0.033-3.288-0.023-6.574-0.076-9.862c-0.029-1.808-0.107-3.629-0.025-5.426
	c0.069-1.515-0.213-3.104-0.058-4.627c0.37-3.602,2.377-2.54,5.273-2.574c3.5-0.042,6.972,0.058,10.462-0.189
	C292.978,106.41,296.773,106.728,300.413,106.978z M270.999,477.09c0.003,0.226-0.001,0.457-0.009,0.69
	c-1.621-0.081-3.223-0.108-4.824-0.12c0.318-11.242,0.407-22.488,0.714-33.714c0.158-5.764,0.203-11.532,0.158-17.3
	c-0.023-2.913,0.111-5.819,0.193-8.727c0.069-2.394,0.648-4.616-0.189-6.884c-0.216-0.585-0.655-1.22-1.33-1.331
	c-3.331-0.547-6.768-0.658-10.135-0.793c-2.458-0.098-6.384-0.895-8.557,0.679c-2.366,1.714-1.779,6.054-1.967,8.565
	c-0.331,4.431-0.255,8.837-0.22,13.282c0.071,8.976,0.789,18.019,0.637,26.967c-0.062,3.622-0.186,7.281-0.303,10.912
	c-0.082,2.565-0.542,5.472-0.263,8.14c-1.303-0.01-2.606-0.007-3.902,0.029c-0.002-0.132-0.006-0.265-0.003-0.395
	c0.076-4.435,0.079-8.872,0.052-13.308c-0.055-9.016-0.243-18.03-0.23-27.047c0.016-10.846-0.186-21.909,0.876-32.694
	c0.08-0.818,0.124-1.622,0.152-2.423c4.464,1.356,10.238,0.732,14.594,0.91c4.037,0.165,9.65,0.905,13.716-0.544
	c0.03,0.68,0.073,1.364,0.142,2.058c1.063,10.785,0.861,21.848,0.876,32.694c0.012,9.016-0.175,18.03-0.23,27.047
	C270.921,468.217,270.923,472.653,270.999,477.09z M261.653,477.664c-1.398,0.011-2.802,0.024-4.228,0.025
	c-0.043,0-0.086-0.001-0.128-0.001c0.116-3.964,0.263-7.942,0.399-11.925c1.333-0.049,2.656-0.112,3.951-0.131
	c0.033,0,0.06-0.008,0.091-0.009C261.62,469.638,261.56,473.653,261.653,477.664z M261.647,460.734
	c-0.841-0.088-1.506-0.037-2.339,0.042c-0.291,0.028-0.715,0.199-0.172,0.201c-0.438-0.002-0.866-0.009-1.291-0.016
	c0.091-3.062,0.172-6.125,0.208-9.187c1.415,0.05,2.811,0.04,4.246-0.21c-0.131,3.073-0.268,6.148-0.39,9.223
	C261.821,460.769,261.74,460.744,261.647,460.734z M259.819,447.232c0.4-0.031-1.092-0.27-0.997-0.256
	c-0.243-0.034-0.494-0.045-0.744-0.049c-0.006-2.042-0.026-4.083-0.082-6.122c-0.028-1.042-0.021-2.1-0.015-3.159
	c1.568-0.038,3.136-0.049,4.724-0.049c-0.016,0.969-0.032,1.939-0.046,2.905c-0.036,2.216-0.105,4.435-0.185,6.654
	C261.538,447.027,260.749,447.225,259.819,447.232z M258.079,432.833c0.102-2.904,0.239-5.834,0.298-8.752
	c1.57-0.02,3.14-0.045,4.712-0.072c-0.147,2.94-0.234,5.898-0.298,8.853c-0.006,0-0.009-0.001-0.015-0.001
	C261.308,432.861,259.712,432.83,258.079,432.833z M258.392,419.673c-0.046-2.315-0.184-4.609-0.481-6.857
	c2.172,0.071,5.855,0.165,5.751,0.025c0.578,0.785,0.086,4.586-0.233,6.953C261.904,419.448,260.1,419.553,258.392,419.673z
	 M249.091,465.221c1.432,0.344,2.904,0.5,4.389,0.56c-0.209,3.958-0.529,7.923-0.461,11.85c-1.694-0.037-3.389-0.085-5.085-0.123
	C248.716,473.518,249.013,469.385,249.091,465.221z M248.574,425.366c0.012-0.52,0.042-1.032,0.064-1.547
	c1.678,0.356,3.47,0.307,5.208,0.285c-0.112,2.96-0.157,5.944-0.125,8.882c-1.792,0.136-3.551,0.385-5.174,0.852
	C248.516,431.015,248.506,428.193,248.574,425.366z M249.113,461.255c-0.033-3.361-0.162-6.72-0.258-10.019
	c1.517,0.492,3.305,0.452,4.919,0.429c-0.062,2.897-0.123,5.793-0.123,8.69c0,0.251-0.008,0.503-0.011,0.753
	C252.102,461.155,250.596,461.056,249.113,461.255z M248.77,447.621c-0.005-0.258-0.01-0.517-0.014-0.774
	c-0.037-3.056-0.105-6.111-0.16-9.168c1.705,0.343,3.455,0.274,5.237,0.158c0.091,3.066,0.068,6.135,0.019,9.205
	C252.138,447.095,250.441,447.208,248.77,447.621z M248.862,420.052c0.001-0.018,0.002-0.036,0.003-0.054
	c-0.015,0.194,0.384-6.56,0.496-6.721c0.766-1.102,3.151-0.925,5.116-0.709c-0.403,1.83-0.23,4.187-0.311,5.338
	c-0.043,0.621-0.071,1.26-0.108,1.89C252.327,419.76,250.536,419.725,248.862,420.052z M251.938,194.533
	c2.132,0.024,4.241-0.01,6.257-0.104c0.43-0.02,0.867-0.03,1.305-0.042c0.054,2.836,0.223,5.681,0.335,8.418
	c-0.44,0.037-0.881,0.073-1.312,0.099c-2.2,0.131-4.397,0.094-6.595,0.033C251.959,200.135,251.97,197.333,251.938,194.533z
	 M252.379,181.089c2.559,0.056,5.104,0.033,7.516-0.08c0.136-0.007,0.273-0.008,0.409-0.014c-0.011,0.882-0.011,1.763-0.018,2.644
	c-0.461,2.164-0.686,4.439-0.766,6.764c-0.334,0.026-0.671,0.055-0.998,0.076c-1.48,0.088-4.214,0.625-5.593-0.025
	c-1.334-0.628-0.656-2.816-0.555-4.003C252.527,184.697,252.368,182.854,252.379,181.089z M268.235,118.728
	c0.023,2.032,0.07,4.041,0.059,5.961c-0.005,0.722-0.002,1.441-0.006,2.162c-1.111-0.02-2.235,0.033-3.356,0.12
	c0.047-2.723,0.087-5.446,0.146-8.168C266.133,118.794,267.188,118.775,268.235,118.728z M265.177,114.526
	c0.045-1.984,0.089-3.97,0.136-5.954c0.89,0.07,1.783,0.157,2.66,0.129c0.129,0.897,0.309,1.795,0.452,2.693
	c-0.085,1.003-0.13,2.018-0.159,3.035C267.242,114.409,266.209,114.45,265.177,114.526z M268.289,131.15
	c0.01,2.71,0.043,5.416,0.103,8.124c-1.214-0.027-2.443,0.038-3.666,0.138c0.035-1.743,0.068-3.487,0.087-5.228
	c0.01-0.986,0.036-1.97,0.05-2.956C266.006,131.22,267.152,131.203,268.289,131.15z M268.516,143.563
	c0.027,0.778,0.045,1.556,0.078,2.335c0.081,1.949,0.069,3.879,0.019,5.802c-1.393-0.045-2.81,0.044-4.215,0.164
	c0.086-2.737,0.164-5.473,0.232-8.21C265.927,143.645,267.229,143.628,268.516,143.563z M263.382,331.005
	c2.075-0.018,4.155-0.075,6.16-0.326c0,1.188,0.009,2.375,0.006,3.563c-0.006,1.708,0.018,3.414,0.054,5.121
	c-2.053-0.402-4.217-0.357-6.369-0.19C263.28,336.45,263.322,333.727,263.382,331.005z M263.359,231.614
	c1.63-0.014,3.265-0.049,4.865-0.183c0.082,2.782,0.16,5.564,0.23,8.345c-1.476-0.171-2.999-0.141-4.519-0.042
	c-0.088-1.389-0.186-2.777-0.303-4.161C263.521,234.256,263.434,232.935,263.359,231.614z M263.479,326.729
	c0.063-2.717,0.121-5.434,0.182-8.151c1.958-0.019,3.918-0.081,5.811-0.314c0.03,2.888,0.052,5.776,0.062,8.665
	C267.581,326.555,265.527,326.577,263.479,326.729z M263.75,314.289c0.058-2.713,0.116-5.426,0.159-8.139
	c1.82-0.02,3.637-0.085,5.399-0.291c0.047,2.876,0.091,5.751,0.128,8.628C267.597,314.149,265.674,314.157,263.75,314.289z
	 M263.951,301.854c0.033-2.71,0.076-5.419,0.081-8.13c1.703-0.021,3.404-0.082,5.059-0.264c0.052,2.856,0.102,5.712,0.151,8.568
	C267.527,301.738,265.741,301.738,263.951,301.854z M264.06,289.424c0.026-2.701,0.067-5.41,0.115-8.125
	c1.585-0.021,3.166-0.079,4.709-0.238c0.044,2.835,0.09,5.67,0.14,8.505C267.408,289.317,265.736,289.319,264.06,289.424z
	 M264.253,276.989c0.051-2.703,0.101-5.41,0.141-8.118c1.458-0.023,2.912-0.077,4.335-0.218c0.025,2.817,0.054,5.635,0.094,8.451
	C267.332,276.898,265.794,276.9,264.253,276.989z M264.448,264.555c0.026-2.705,0.034-5.409,0.018-8.108
	c1.416-0.023,2.827-0.076,4.209-0.21c-0.006,2.808,0.006,5.616,0.021,8.422C267.31,264.477,265.881,264.478,264.448,264.555z
	 M264.415,252.132c-0.047-2.71-0.128-5.412-0.25-8.106c1.472-0.019,2.942-0.066,4.38-0.199c0.058,2.8,0.099,5.6,0.119,8.402
	C267.277,252.05,265.849,252.056,264.415,252.132z M268.455,155.992c-0.123,2.699-0.253,5.402-0.274,8.131
	c-1.382-0.019-2.783,0.075-4.17,0.197c0.081-2.747,0.166-5.493,0.255-8.239C265.662,156.072,267.067,156.06,268.455,155.992z
	 M268.206,168.425c0.035,2.702,0.07,5.411,0.081,8.122c-1.511-0.027-3.046,0.085-4.561,0.221c0.041-2.752,0.094-5.506,0.166-8.261
	C265.327,168.498,266.775,168.488,268.206,168.425z M268.266,180.846c-0.028,1.604-0.076,3.205-0.164,4.8
	c-0.081,1.465-0.149,2.93-0.207,4.394c-2.083-0.173-4.353,0.708-4.347-1.969c0.001-0.64,0.132-7.14,0.126-7.14
	C265.202,180.922,266.743,180.916,268.266,180.846z M267.764,194.191c-0.07,2.752-0.102,5.504-0.108,8.256
	c-1.457-0.102-2.944-0.051-4.429,0.064c0.027-2.724,0.037-5.446,0.005-8.167C264.749,194.332,266.269,194.298,267.764,194.191z
	 M267.665,206.621c0.018,2.752,0.059,5.505,0.115,8.258c-1.55-0.119-3.135-0.058-4.714,0.069c0.026-2.725,0.069-5.453,0.11-8.181
	C264.676,206.757,266.183,206.724,267.665,206.621z M267.874,219.031c0.069,2.765,0.147,5.531,0.228,8.297
	c-1.615-0.152-3.277-0.094-4.93,0.035c-0.089-2.721-0.125-5.444-0.125-8.17C264.662,219.181,266.284,219.15,267.874,219.031z
	 M263.112,346.387c0.011-0.986,0.035-1.97,0.05-2.956c2.201-0.017,4.416-0.068,6.539-0.347c0.101,2.931,0.236,5.86,0.374,8.788
	c-2.255-0.527-4.666-0.45-7.05-0.258C263.059,349.871,263.093,348.128,263.112,346.387z M270.241,355.436
	c0.137,3.001,0.259,6.002,0.33,9.005c-2.499-0.695-5.206-0.6-7.873-0.374c0.086-2.737,0.164-5.473,0.232-8.21
	C265.395,355.84,267.881,355.795,270.241,355.436z M270.622,367.79c0.003,0.444,0.016,0.888,0.017,1.332
	c0.007,2.577,0.089,5.192,0.163,7.815c-2.684-0.804-5.617-0.669-8.49-0.415c0.081-2.747,0.166-5.492,0.255-8.239
	C265.283,368.266,268.033,368.226,270.622,367.79z M270.879,380.167c0.061,3.082,0.06,6.157-0.138,9.174
	c-2.756-0.81-5.774-0.637-8.715-0.37c0.041-2.752,0.094-5.506,0.166-8.261C265.12,380.691,268.097,380.668,270.879,380.167z
	 M270.495,392.661c-0.079,1.004-0.156,2.001-0.221,2.998c-2.492-0.917-5.43-0.861-8.304-0.684c0.001-0.613,0.001-1.225,0.005-1.84
	C264.838,393.117,267.755,393.107,270.495,392.661z M262.037,114.801c-0.612,0.054-1.219,0.104-1.814,0.14
	c-2.119,0.127-4.234,0.095-6.351,0.038c0.05-2.164,0.098-4.328,0.148-6.492c0.203,0.009,0.409,0.011,0.612,0.021
	c2.49,0.131,5.036,0.07,7.555,0.014C262.137,110.615,262.088,112.708,262.037,114.801z M259.897,118.89
	c0.672-0.032,1.355-0.047,2.044-0.058c-0.065,2.804-0.112,5.61-0.166,8.416c-0.523,0.045-1.041,0.087-1.552,0.117
	c-2.199,0.131-4.395,0.094-6.591,0.033c0.047-2.801,0.088-5.603,0.149-8.403C255.864,119.015,257.926,118.981,259.897,118.89z
	 M259.897,131.313c0.594-0.027,1.196-0.044,1.803-0.055c-0.016,0.976-0.042,1.951-0.055,2.925c-0.025,1.834-0.064,3.67-0.106,5.505
	c-0.442,0.037-0.882,0.073-1.315,0.099c-2.268,0.136-4.534,0.091-6.799,0.027c0.038-1.878,0.073-3.755,0.094-5.633
	c0.01-0.923,0.034-1.844,0.046-2.767C255.722,131.443,257.857,131.408,259.897,131.313z M259.897,143.737
	c0.507-0.024,1.021-0.038,1.537-0.049c-0.08,2.817-0.171,5.635-0.27,8.453c-0.314,0.025-0.631,0.053-0.941,0.071
	c-2.379,0.142-4.755,0.087-7.13,0.018c0.088-2.798,0.167-5.594,0.238-8.391C255.568,143.871,257.783,143.836,259.897,143.737z
	 M259.897,156.161c0.372-0.017,0.75-0.026,1.127-0.036c-0.103,2.825-0.203,5.649-0.3,8.473c-0.166,0.011-0.335,0.028-0.499,0.038
	c-2.507,0.149-5.01,0.081-7.515,0.007c0.082-2.795,0.169-5.592,0.259-8.388C255.327,156.294,257.668,156.265,259.897,156.161z
	 M258.523,240.176c-1.953,0.116-3.904,0.097-5.855,0.05c-0.096-1.554-0.201-3.105-0.331-4.651c-0.105-1.255-0.19-2.512-0.263-3.769
	c2.086,0.02,4.148-0.012,6.122-0.105c0.682-0.032,1.377-0.047,2.075-0.059c0.029,0.701,0.049,1.406,0.082,2.106
	c0.099,2.086,0.176,4.174,0.248,6.264C259.9,240.076,259.203,240.135,258.523,240.176z M260.721,244.06
	c0.075,2.781,0.131,5.564,0.171,8.349c-0.801,0.073-1.595,0.145-2.368,0.191c-1.799,0.107-3.596,0.098-5.392,0.06
	c-0.045-2.817-0.125-5.627-0.251-8.427c1.809,0.006,3.597-0.027,5.315-0.107C259.023,244.086,259.869,244.07,260.721,244.06z
	 M252.083,331.197c2.083,0.02,4.143-0.012,6.113-0.105c0.672-0.032,1.356-0.047,2.044-0.059c-0.066,2.806-0.129,5.611-0.182,8.417
	c-0.517,0.045-1.031,0.086-1.535,0.116c-2.199,0.131-4.396,0.094-6.591,0.033C251.979,336.799,252.022,333.997,252.083,331.197z
	 M258.523,327.143c-2.118,0.126-4.233,0.095-6.349,0.038c0.064-2.802,0.124-5.605,0.189-8.408c1.987,0.015,3.951-0.018,5.832-0.105
	c0.768-0.036,1.552-0.052,2.341-0.062c-0.065,2.799-0.133,5.598-0.201,8.397C259.724,327.058,259.117,327.107,258.523,327.143z
	 M258.523,314.719c-2.027,0.121-4.052,0.096-6.078,0.044c0.06-2.804,0.122-5.608,0.167-8.413c1.902,0.01,3.78-0.023,5.583-0.106
	c0.85-0.04,1.72-0.055,2.597-0.066c-0.045,2.791-0.103,5.583-0.164,8.374C259.917,314.618,259.212,314.679,258.523,314.719z
	 M258.523,302.296c-1.958,0.116-3.915,0.097-5.87,0.049c0.035-2.806,0.078-5.61,0.084-8.417c1.859,0.008,3.696-0.025,5.46-0.107
	c0.889-0.042,1.798-0.056,2.713-0.067c-0.006,2.785-0.028,5.57-0.063,8.355C260.06,302.181,259.282,302.25,258.523,302.296z
	 M258.523,289.872c-1.922,0.115-3.844,0.097-5.764,0.051c0.024-2.797,0.067-5.604,0.116-8.419c1.812,0.006,3.601-0.027,5.32-0.107
	c0.9-0.042,1.822-0.058,2.75-0.067c-0.011,2.784-0.02,5.567-0.025,8.349C260.11,289.753,259.306,289.825,258.523,289.872z
	 M258.523,277.448c-1.859,0.111-3.717,0.098-5.575,0.055c0.052-2.804,0.105-5.612,0.147-8.422c1.736,0.001,3.45-0.032,5.101-0.108
	c0.913-0.043,1.847-0.058,2.787-0.068c-0.003,2.782-0.011,5.564-0.023,8.345C260.137,277.327,259.319,277.4,258.523,277.448z
	 M258.523,265.024c-1.794,0.107-3.585,0.098-5.376,0.06c0.029-2.811,0.042-5.621,0.026-8.427c1.709,0.001,3.397-0.033,5.023-0.108
	c0.9-0.042,1.821-0.058,2.749-0.067c0.025,2.78,0.036,5.561,0.04,8.343C260.152,264.902,259.326,264.975,258.523,265.024z
	 M259.897,168.585c0.229-0.01,0.463-0.015,0.695-0.023c-0.088,2.829-0.158,5.657-0.215,8.486c-0.051,0.003-0.103,0.009-0.152,0.011
	c-2.6,0.155-5.198,0.076-7.794-0.001c0.04-2.795,0.094-5.592,0.166-8.388C255.081,168.721,257.551,168.695,259.897,168.585z
	 M258.196,206.853c0.573-0.027,1.153-0.043,1.738-0.054c0.001,0.33,0.005,0.662,0.001,0.985c-0.03,2.469-0.036,4.951-0.028,7.44
	c-0.465,0.04-0.928,0.077-1.384,0.105c-2.253,0.134-4.504,0.093-6.754,0.028c0.025-2.799,0.068-5.6,0.11-8.4
	C254.03,206.983,256.16,206.948,258.196,206.853z M258.196,219.277c0.575-0.027,1.157-0.043,1.743-0.054
	c0.034,2.806,0.087,5.61,0.176,8.409c-0.536,0.046-1.068,0.089-1.591,0.121c-2.213,0.132-4.422,0.094-6.632,0.032
	c-0.097-2.798-0.136-5.6-0.138-8.404C253.949,219.409,256.121,219.374,258.196,219.277z M251.818,346.387
	c0.01-0.923,0.034-1.844,0.046-2.766c2.157,0.026,4.292-0.009,6.332-0.104c0.592-0.027,1.192-0.044,1.796-0.055
	c-0.016,0.975-0.035,1.951-0.047,2.925c-0.025,1.835-0.064,3.67-0.106,5.505c-0.442,0.037-0.882,0.073-1.315,0.099
	c-2.268,0.136-4.534,0.091-6.799,0.027C251.762,350.141,251.797,348.263,251.818,346.387z M258.196,355.94
	c0.507-0.024,1.021-0.038,1.537-0.05c-0.08,2.818-0.171,5.635-0.27,8.453c-0.314,0.025-0.631,0.053-0.941,0.071
	c-2.38,0.142-4.755,0.087-7.13,0.018c0.088-2.798,0.167-5.595,0.238-8.391C253.868,356.073,256.082,356.038,258.196,355.94z
	 M258.196,368.364c0.372-0.017,0.75-0.026,1.127-0.036c-0.103,2.825-0.203,5.65-0.3,8.473c-0.166,0.011-0.335,0.028-0.499,0.038
	c-2.507,0.149-5.011,0.081-7.515,0.007c0.082-2.795,0.169-5.592,0.259-8.388C253.627,368.498,255.968,368.467,258.196,368.364z
	 M258.196,380.787c0.229-0.011,0.463-0.015,0.695-0.023c-0.088,2.829-0.158,5.657-0.215,8.486c-0.051,0.003-0.103,0.009-0.152,0.011
	c-2.601,0.155-5.198,0.076-7.795-0.001c0.04-2.795,0.094-5.592,0.166-8.388C253.381,380.923,255.851,380.897,258.196,380.787z
	 M258.606,393.199c-0.008,0.663-0.01,1.325-0.016,1.987c-0.771,0.038-1.522,0.061-2.239,0.045c-1.744-0.038-3.688-0.213-5.675-0.332
	c0.001-0.535-0.001-1.071,0.003-1.606c2.559,0.056,5.104,0.033,7.516-0.08C258.331,393.206,258.469,393.203,258.606,393.199z
	 M250.74,114.895c-2.327-0.058-4.654-0.06-6.987,0.138c-0.026-1.221-0.076-2.438-0.177-3.641c0.176-1.115,0.424-2.227,0.539-3.34
	c2.242,0.25,4.514,0.291,6.781,0.339C250.844,110.559,250.792,112.727,250.74,114.895z M243.713,127.46
	c-0.002-0.924-0.001-1.847-0.007-2.771c-0.011-2.013,0.042-4.121,0.062-6.253c2.226,0.234,4.543,0.395,6.876,0.482
	c-0.066,2.798-0.112,5.596-0.165,8.394C248.226,127.26,245.972,127.265,243.713,127.46z M250.404,131.333
	c-0.015,0.951-0.041,1.901-0.053,2.851c-0.025,1.849-0.066,3.699-0.107,5.548c-2.213-0.049-4.426-0.035-6.646,0.163
	c0.071-3.013,0.106-6.026,0.116-9.04C245.879,131.084,248.132,131.242,250.404,131.333z M250.137,143.745
	c-0.079,2.801-0.169,5.602-0.268,8.403c-2.153-0.042-4.307-0.016-6.465,0.187c-0.066-2.134-0.089-4.274,0.001-6.438
	c0.037-0.882,0.059-1.762,0.088-2.643C245.642,143.488,247.879,143.65,250.137,143.745z M244.335,206.611
	c1.417,0.114,2.856,0.2,4.304,0.259c0.001,0.305,0.005,0.614,0.001,0.915c-0.03,2.485-0.036,4.985-0.028,7.489
	c-1.466-0.033-2.933-0.036-4.4,0.016C244.272,212.396,244.316,209.504,244.335,206.611z M244.235,194.178
	c1.308,0.107,2.635,0.19,3.972,0.248c0.055,2.837,0.224,5.683,0.335,8.42c-1.398-0.03-2.797-0.034-4.196,0.012
	C244.342,199.967,244.308,197.073,244.235,194.178z M248.645,219.294c0.034,2.806,0.089,5.61,0.178,8.408
	c-1.644-0.04-3.29-0.045-4.938,0.024c0.086-2.903,0.168-5.805,0.241-8.708C245.611,219.14,247.124,219.233,248.645,219.294z
	 M248.227,190.417c-1.369-0.027-2.739-0.024-4.11,0.027c-0.06-1.599-0.131-3.199-0.219-4.798c-0.094-1.693-0.147-3.392-0.173-5.096
	c1.72,0.182,3.491,0.324,5.287,0.418c-0.011,0.89-0.012,1.781-0.018,2.671C248.532,185.808,248.306,188.087,248.227,190.417z
	 M243.715,177.155c0.005-3.01,0.045-6.02,0.081-9.021c1.788,0.188,3.632,0.33,5.499,0.422c-0.088,2.808-0.157,5.616-0.213,8.423
	C247.295,176.959,245.506,177.002,243.715,177.155z M243.777,231.412c1.705,0.148,3.45,0.255,5.203,0.321
	c0.028,0.671,0.046,1.346,0.079,2.016c0.102,2.127,0.181,4.257,0.253,6.388c-1.923-0.051-3.848-0.069-5.776,0.026
	C243.609,237.245,243.691,234.328,243.777,231.412z M243.823,164.722c-0.005-3.038-0.158-6.039-0.294-9.039
	c2.007,0.217,4.091,0.373,6.197,0.469c-0.102,2.803-0.202,5.608-0.298,8.411C247.563,164.534,245.695,164.567,243.823,164.722z
	 M243.454,243.808c1.953,0.176,3.961,0.3,5.975,0.367c0.075,2.795,0.131,5.592,0.169,8.391c-2.086-0.058-4.174-0.085-6.265,0.028
	C243.351,249.665,243.394,246.736,243.454,243.808z M249.65,256.605c0.025,2.795,0.036,5.591,0.038,8.387
	c-2.127-0.059-4.256-0.089-6.388,0.027c0.018-2.932,0.029-5.864,0.023-8.798C245.389,256.41,247.518,256.538,249.65,256.605z
	 M249.69,269.03c-0.003,2.795-0.011,5.591-0.023,8.386c-2.163-0.06-4.326-0.093-6.494,0.033c0.042-2.935,0.073-5.871,0.099-8.807
	C245.365,268.833,247.526,268.963,249.69,269.03z M249.65,281.453c-0.011,2.797-0.02,5.592-0.025,8.385
	c-2.216-0.061-4.433-0.096-6.654,0.043c0.052-2.943,0.101-5.887,0.146-8.83C245.247,281.251,247.447,281.384,249.65,281.453z
	 M249.614,293.876c-0.006,2.795-0.029,5.59-0.064,8.385c-2.263-0.062-4.528-0.089-6.798,0.064c0.051-2.956,0.103-5.912,0.157-8.867
	C245.09,293.667,247.351,293.804,249.614,293.876z M249.495,306.297c-0.045,2.794-0.103,5.589-0.165,8.383
	c-2.254-0.06-4.511-0.077-6.771,0.086c0.037-2.969,0.084-5.939,0.132-8.907C244.902,306.076,247.197,306.223,249.495,306.297z
	 M249.24,318.711c-0.066,2.795-0.133,5.591-0.201,8.387c-2.19-0.054-4.381-0.062-6.576,0.101c0.01-2.978,0.032-5.957,0.063-8.934
	C244.706,318.483,246.969,318.631,249.24,318.711z M248.944,331.121c-0.066,2.798-0.128,5.595-0.182,8.394
	c-2.121-0.05-4.244-0.049-6.371,0.113c0.041-1.795,0.068-3.589,0.061-5.386c-0.005-1.187,0.005-2.374,0.006-3.561
	C244.564,330.893,246.748,331.04,248.944,331.121z M248.696,343.535c-0.015,0.95-0.034,1.901-0.046,2.852
	c-0.025,1.849-0.066,3.699-0.107,5.548c-2.207-0.049-4.415-0.035-6.628,0.162c0.142-3.002,0.282-6.004,0.384-9.007
	C244.375,343.301,246.527,343.449,248.696,343.535z M248.437,355.948c-0.08,2.801-0.169,5.602-0.269,8.403
	c-2.245-0.043-4.493-0.017-6.745,0.213c0.071-3.038,0.195-6.074,0.333-9.11C243.917,355.689,246.166,355.853,248.437,355.948z
	 M248.027,368.355c-0.103,2.803-0.202,5.608-0.298,8.411c-2.175-0.034-4.352,0.007-6.533,0.243c0.075-2.646,0.158-5.286,0.165-7.887
	c0.001-0.428,0.014-0.856,0.017-1.285C243.522,368.079,245.762,368.251,248.027,368.355z M247.596,380.76
	c-0.088,2.808-0.157,5.616-0.213,8.423c-2.038-0.025-4.076,0.025-6.119,0.243c-0.203-3.024-0.203-6.105-0.143-9.194
	C243.206,380.475,245.387,380.651,247.596,380.76z M247.311,393.172c-0.007,0.539-0.009,1.078-0.015,1.616
	c-1.945,0.01-3.854,0.18-5.582,0.699c-0.061-0.926-0.134-1.855-0.208-2.789C243.386,392.909,245.335,393.068,247.311,393.172z
	 M268.804,103.441c-4.851-0.475-9.753-0.896-14.629-0.879c-2.739,0.009-7.993-0.827-11.707,0.034
	c-1.176-1.105-2.867-1.738-4.8-2.078c-4.666-0.818-9.819-0.64-14.664-0.787c0.106-1.003-0.507-2.362,0.609-2.953
	c0.516-0.273,1.127-0.279,1.711-0.278c16.315,0.026,32.629,0.053,48.943,0.079c4.765,0.008,9.929,0.59,14.633-0.173
	c-0.102,1.026-0.033,2.121,0.095,3.325c-4.844,0.146-9.997-0.03-14.664,0.787C271.951,100.936,269.937,101.798,268.804,103.441z
	 M269.769,48.653c0.675,1.509,0.739,3.734,1.02,5.4c0.696,4.125,1.105,8.352,1.508,12.519c0.579,5.976,0.014,12.606,1.778,18.417
	c-0.104-0.005-0.208-0.006-0.312-0.01c-3.176-0.158-6.671-0.447-9.949,0.018c-0.61,0.003-1.221,0.014-1.831,0.024
	c0.032-0.15,0.05-0.311,0.049-0.483c-0.032-7.915,0.087-16.036-0.408-23.937c-0.265-4.231-0.42-8.457-0.585-12.704
	c-0.049-1.237,0.046-2.402-0.037-3.507c1.699,0.259,3.358,0.581,4.933,0.941C267.448,46.075,268.935,46.793,269.769,48.653z
	 M253.39,4.029c1.026-1.097,3.23-0.175,3.942,0.573c1.831,1.923,0.688,6.335,0.622,8.994c-0.147,6.012-0.094,12.14,0.164,18.15
	c-1.73-0.12-3.473-0.093-5.151-0.009c0.839-3.848-0.05-8.367-0.037-12.204c0.008-2.502-0.262-4.974-0.281-7.475
	C252.639,10.706,252.38,5.109,253.39,4.029z M253.606,35.682c2.432-0.091,5.505-0.088,7.817,0.674
	c2.698,0.889,3.528,2.154,4.167,3.659c-3.336-0.742-7.073-0.786-9.449-0.84c-2.974-0.069-7.756,0.181-11.444,1.641
	c-0.237,0.027-0.473,0.071-0.709,0.122C246.275,37.354,249.342,35.843,253.606,35.682z M257.941,85.066
	c-0.941-0.001-1.881-0.011-2.817-0.055c-0.77-0.036-1.537-0.049-2.306-0.069c0.132-0.281,0.243-0.614,0.297-1.066
	c0.056-0.472,0.082-0.958,0.119-1.439c0.486,0.061,0.979,0.096,1.502,0.112c0.656,0.019,1.341-0.042,1.998-0.062
	c0.509-0.016,0.841-0.093,1.145-0.218c-0.001,0.754-0.003,1.516-0.003,2.268C257.875,84.728,257.902,84.902,257.941,85.066z
	 M253.154,63.665c0.735,0.11,1.448,0.313,2.184,0.402c0.815,0.099,1.7,0.094,2.469-0.165c0.044,2.028,0.063,4.064,0.075,6.1
	c-1.229-0.637-3.315-0.094-4.959,0.404c-0.143-1.867-0.285-3.71-0.366-5.48c-0.02-0.456-0.009-0.932-0.014-1.397
	C252.745,63.582,252.944,63.634,253.154,63.665z M252.586,60.569c0.099-2.53,0.296-5.129,0.378-7.714
	c0.099,0.023,0.192,0.043,0.269,0.053c0.604,0.077,1.21,0.085,1.818,0.105c0.836,0.028,1.703,0.113,2.547,0.055
	c-0.01,2.426,0.045,4.846,0.128,7.286c-0.926-0.183-2,0.011-2.969-0.029C254.084,60.297,253.31,60.368,252.586,60.569z
	 M257.737,47.895c-0.034,0.601-0.047,1.198-0.07,1.797c-0.697,0.008-1.367,0.081-1.769,0.096c-0.881,0.033-1.929-0.024-2.914,0.095
	c-0.042-2.108-0.229-4.174-0.704-6.141c1.911-0.032,3.859,0.077,5.791,0.276C257.813,45.243,257.813,46.561,257.737,47.895z
	 M253.176,73.959c1.046,0.037,2.097,0.002,3.133-0.084c0.527-0.043,1.103-0.203,1.582-0.48c0,1.824-0.003,3.637-0.008,5.456
	c-0.244-0.104-0.508-0.186-0.87-0.213c-0.815-0.063-1.596,0.087-2.393,0.211c-0.437,0.068-0.85,0.15-1.257,0.244
	C253.363,77.402,253.286,75.68,253.176,73.959z M239.703,66.571c0.403-4.167,0.812-8.394,1.508-12.519
	c0.281-1.667,0.344-3.891,1.02-5.4c1.036-2.312,4.601-4.516,7.121-4.49c-0.171,3.438-1.049,6.868-1.132,10.374
	c-0.081,3.464,0.059,6.928,0.186,10.389c0.216,5.843,0.151,11.658,0.725,17.476c-0.069,0.803-0.154,1.605-0.259,2.416
	c-0.003,0.027,0.001,0.05-0.002,0.077c-0.46-0.002-0.918-0.006-1.378-0.001c-3.074-0.335-6.306-0.064-9.258,0.082
	c-0.06,0.003-0.119,0.005-0.178,0.006c0.003-0.167-0.007-0.331-0.007-0.497C239.641,78.796,239.141,72.379,239.703,66.571z
	 M223.3,89.018c21.084-0.012,42.169-0.025,63.253-0.037c1.102-0.001,6.576-0.434,6.861,1.268c0.106,0.629-1.892,1.38-2.191,1.652
	c-0.043,0.04-0.072,0.079-0.114,0.119c-1.951,0.511-3.994,0.524-5.995,0.465c-1.666-0.047-3.293,0.279-4.975,0.334
	c-4.156,0.138-8.314,0.233-12.471,0.286c-8.125,0.102-16.252,0.041-24.375-0.185c-4.046-0.112-8.142-0.12-12.175-0.461
	c-3.391-0.287-6.852,0.445-10.228-0.44c-0.042-0.04-0.071-0.079-0.115-0.119c-0.549-0.496-2.305-0.811-2.156-1.73
	c0.167-1.037,2.208-1.151,2.949-1.152C222.146,89.018,222.723,89.018,223.3,89.018z M207.55,113.739
	c0.297-3.812-0.258-6.465,4.037-6.761c3.64-0.251,7.435-0.568,11.049-0.313c3.49,0.247,6.962,0.147,10.462,0.189
	c2.896,0.035,4.903-1.028,5.273,2.574c0.132,1.283-0.193,2.869-0.177,4.2c0.01,0.838,0.024,1.674,0.038,2.511
	c-0.177,2.176-0.333,4.352-0.347,6.509c-0.03,5.02-0.023,10.042-0.155,15.06c-1.49-0.417-3.026-0.637-4.58-0.761
	c-0.41-4.063-0.348-8.438-0.224-12.466c0.105-3.395,1.649-9.809-0.077-12.801c-0.28-0.486-0.838-0.819-1.403-0.805
	c-4.467,0.115-8.882-0.168-13.334-0.091c-3.101,0.054-5.636,0.158-6.64,3.42c-1.098,3.562-0.395,8.406-0.422,12.079
	c-0.021,2.95-0.49,6.552-0.138,9.703c-0.81-0.009-1.617-0.002-2.417,0.046c-0.283,0.017-0.579,0.029-0.884,0.036
	c-0.06-4.317-0.148-8.612,0.178-12.912C208.029,119.986,207.305,116.876,207.55,113.739z M229.658,136.807
	c-1.958-0.014-3.92,0.04-5.838,0.014c-0.034-0.001-0.069-0.003-0.104-0.005c-0.271-2.887-0.159-5.811-0.056-8.722
	c1.988,0.036,3.938,0.03,5.757,0.126C229.354,131.102,229.383,133.99,229.658,136.807z M229.542,124.383
	c-1.923-0.298-3.859-0.209-5.806-0.186c0-0.062,0.001-0.124,0.001-0.186c-0.032-3.378-0.439-6.648-0.958-9.959
	c1.794,0.029,3.693-0.25,5.398,0.002c0.978,0.145,0.792-0.39,1.459,0.653c0.959,1.502,0.138,4.096,0.072,5.735
	C229.657,121.74,229.597,123.057,229.542,124.383z M220.086,136.626c-2.146-0.166-4.307-0.392-6.456-0.531
	c0.143-1.562,0.126-3.693,0.126-3.687c-0.071-1.901,0.03-3.803,0.093-5.708c1.966,0.741,4.142,1.088,6.367,1.251
	C219.992,130.825,219.815,133.76,220.086,136.626z M213.889,123.709c-0.011-1.983-0.043-4.042,0.219-5.987
	c0.402-2.984,0.581-3.715,4.005-3.829c0.918-0.03,1.825-0.001,2.734,0.052c-0.495,3.312-0.315,6.733-0.399,10.107
	C218.369,123.792,215.915,123.194,213.889,123.709z M199.486,161.686c0.203-2.925,0.23-5.837,0.4-8.761
	c0.079-1.352,0.035-8.457,0.789-9.303c0.634-0.712,4.666,0.006,5.952-0.132c3.02-0.322,5.848-0.199,8.929-0.027
	c6.683,0.373,15.29,1.202,22.012-0.744c-0.416,11.082,0.093,22.055,0.168,33.145c-1.239-0.238-2.362-0.307-3.44-0.285
	c0.64-4.085-0.15-9.341-0.287-13.116c-0.156-4.325,0.984-10.093-0.775-14.116c-0.263-0.602-0.966-0.832-1.552-0.89
	c-5.784-0.578-11.657,0.208-17.457-0.051c-2.363-0.105-6.865-1.456-8.675,0.754c-1.999,2.44-1.219,8.703-1.264,11.466
	c-0.081,4.855-0.796,10.69,0.216,15.668c-3.068-0.068-4.997,0.536-5.337-2.293c-0.035-0.288-0.053-0.612-0.054-0.975
	C199.1,168.577,199.246,165.126,199.486,161.686z M230.245,176.008c-1.597,0.251-3.27,0.532-5.244,0.627
	c-1.075,0.052-2.171,0.055-3.273,0.033c0.052-1.856,0.061-3.701,0.021-5.538c2.632,0.324,6.286,1.027,8.518,0.332
	c-0.001,0.226-0.003,0.452-0.005,0.678C230.258,173.471,230.069,174.79,230.245,176.008z M229.753,167.272
	c-2.065,0.758-5.261,0.154-8.109-0.187c-0.043-1.512-0.081-3.03-0.09-4.562c-0.002-0.363,0.011-0.761,0.03-1.175
	c2.863,0.169,5.719,0.373,8.617,0.123c0.001,0.038,0,0.076,0.001,0.114c0.069,1.855,0.086,3.709,0.086,5.565
	C230.118,167.169,229.943,167.203,229.753,167.272z M221.843,157.432c0.14-2.295,0.175-4.695-0.368-6.567
	c0.055-0.001,0.111,0,0.166-0.002c1.984-0.066,6.812-0.783,8.514,0.386c0.375,0.258,0.445,0.775,0.472,1.229
	c0.104,1.797-0.099,3.572-0.262,5.349C227.584,157.513,224.697,157.444,221.843,157.432z M207.962,167.445
	c0.023-2.23-0.015-4.468-0.024-6.668c2.694,1.111,5.747,0.463,8.67,0.415c0.609-0.01,1.216-0.003,1.822,0.011
	c-0.034,1.903-0.085,3.805-0.131,5.708C214.871,167.086,211.339,166.78,207.962,167.445z M218.209,170.992
	c-0.044,1.836-0.075,3.67-0.105,5.502c-2.792-0.202-5.587-0.534-8.251-0.853c-0.812-0.097-1.63-0.167-2.45-0.223
	c0.256-1.615,0.399-3.273,0.479-4.949C211.28,171.201,214.749,171.034,218.209,170.992z M217.196,157.408
	c-2.964-0.038-6.232,0.06-9.235,0.536c0.011-0.627,0.025-1.254,0.052-1.869c0.168-3.741-0.485-5.156,3.513-5.251
	c2.31-0.055,4.616,0.032,6.928,0.058c0.037,2.174,0.046,4.354,0.028,6.536C218.051,157.416,217.62,157.414,217.196,157.408z
	 M187.809,336.331c0.078-10.783,0.989-21.595,1.172-32.348c0.197-11.502-0.052-23.086,0.44-34.576
	c1.011-23.59,0.607-47.265,0.699-70.91c0.012-3.158,0.041-6.341,0.007-9.495c-0.019-1.796-0.373-4.734,1.31-5.995
	c1.573-1.179,4.645-0.113,6.563-0.119c2.665-0.007,5.339-0.09,8.003-0.066c5.79,0.054,11.553,0.487,17.377,0.25
	c1.284-0.052,2.564-0.25,3.836-0.369c1.277-0.121,2.541-0.582,3.838-0.662c1.949-0.121,5.848,0.267,6.654,2.441
	c0.314,0.847,0.174,1.916,0.192,2.799c0.035,1.769,0.106,3.537,0.158,5.305c0.206,6.99,0.344,14.001-0.269,20.976
	c-0.435,4.942-0.042,9.863-0.524,14.806c-0.612,6.276-0.143,12.798-0.155,19.102c-0.045,26.365-1.305,52.638-1.391,78.996
	c-0.077,23.198-1.694,46.326-0.638,69.481c0.193,4.24-0.163,8.497-0.391,12.753c-1.816,0.005-3.629,0.084-5.442,0.176
	c1.082-3.187,0.342-6.756,0.656-9.999c0.657-6.778,0.376-13.865,0.382-20.746c0.003-0.078,0.01-0.152,0.001-0.232
	c0.003-1.626,0.017-3.244,0.071-4.84c0.317-9.467,0.583-19.033,0.57-28.5c-0.015-11.681-0.167-23.343-0.295-35.021
	c-0.063-5.808-0.166-11.599-0.148-17.402c1.201-15.517,1.848-31.068,1.743-46.64c-0.09-13.463,0.079-26.998-0.421-40.478
	c1.02-4.162,1.284-9.069-0.042-12.634c-1.473-3.958-7.198-2.722-11.001-2.754c-3.663-0.032-7.311-0.43-10.973-0.509
	c-5.018-0.108-12.441-0.508-13.106,6.061c-0.45,4.441-0.27,8.912-0.061,13.361c0.097,2.063,0.007,4.272,0.378,6.281
	c0.417,2.255-0.123,4.164-0.125,6.364c-0.003,2.591-0.159,5.191-0.27,7.78c-0.22,5.188-0.482,10.374-0.525,15.567
	c-0.105,12.84-0.671,25.71-0.461,38.556c-0.993,7.955-0.512,16.414-0.625,24.244c-0.174,12.12,0.038,24.232,0.009,36.355
	c-0.045,18.957-1.055,37.948-1.412,56.897c-0.132,0.366-0.136,0.766-0.045,1.152c-0.166,2.501-0.182,5.006,0.219,7.339
	c-1.992-0.053-4.056-0.053-6.054,0.121C188.518,384.953,187.632,360.594,187.809,336.331z M224.797,409.102
	c-1.768,0.088-3.537,0.158-5.315,0.164c-0.005-1.472-0.011-2.944-0.001-4.417c1.74-0.011,3.501-0.021,5.232-0.123
	c-0.042,1.167-0.077,2.326-0.107,3.464C224.596,408.487,224.677,408.8,224.797,409.102z M219.529,400.684
	c0.041-2.752,0.094-5.506,0.166-8.261c1.928-0.011,3.876-0.027,5.779-0.174c-0.032,1.184-0.067,2.367-0.095,3.551
	c-0.206,1.556-0.339,3.13-0.447,4.702C223.153,400.399,221.328,400.521,219.529,400.684z M219.815,388.235
	c0.081-2.746,0.167-5.492,0.255-8.239c1.932-0.011,3.883-0.03,5.781-0.197c-0.09,2.776-0.178,5.552-0.261,8.327
	C223.699,387.949,221.744,388.066,219.815,388.235z M220.202,375.78c0.086-2.737,0.164-5.473,0.232-8.21
	c1.947-0.014,3.907-0.047,5.81-0.236c-0.084,2.8-0.171,5.599-0.261,8.399C224.097,375.511,222.138,375.616,220.202,375.78z
	 M220.646,201.808c-0.079-2.559-0.212-5.115-0.41-7.668c1.894,0.044,4.957-0.657,7.045-0.077c0.175,2.661,0.296,5.406,0.629,8.104
	C225.596,201.559,223.111,201.612,220.646,201.808z M228.218,205.552c0.103,3.088,0.273,6.177,0.348,9.246
	c-2.47-0.803-5.163-0.78-7.835-0.573c0.027-2.724,0.037-5.447,0.005-8.167C223.268,206.037,225.813,205.967,228.218,205.552z
	 M220.529,363.327c0.034-1.743,0.069-3.485,0.087-5.228c0.011-0.986,0.035-1.97,0.05-2.956c1.978-0.015,3.963-0.061,5.887-0.271
	c-0.054,2.832-0.116,5.663-0.193,8.495C224.464,363.099,222.489,363.169,220.529,363.327z M220.736,350.887
	c0.047-2.723,0.09-5.446,0.15-8.168c1.949-0.017,3.903-0.07,5.795-0.284c-0.001,0.42,0.003,0.839,0.002,1.259
	c-0.006,2.432-0.03,4.863-0.064,7.296C224.711,350.685,222.719,350.733,220.736,350.887z M226.647,330.014
	c0.016,2.853,0.023,5.707,0.029,8.562c-1.846-0.303-3.771-0.277-5.692-0.134c0.063-2.717,0.121-5.434,0.182-8.151
	C223.01,330.272,224.856,330.215,226.647,330.014z M221.254,326.003c0.058-2.713,0.116-5.426,0.159-8.139
	c1.749-0.02,3.497-0.08,5.195-0.268c-0.001,2.85,0.006,5.699,0.019,8.549C224.883,325.864,223.069,325.877,221.254,326.003z
	 M226.674,307.339c-0.03,2.128-0.037,4.253-0.047,6.38c-1.679-0.269-3.423-0.265-5.171-0.152c0.033-2.71,0.076-5.418,0.081-8.13
	c1.735-0.021,3.467-0.085,5.15-0.276C226.685,305.891,226.684,306.62,226.674,307.339z M226.68,301.305
	c-1.661-0.272-3.386-0.276-5.116-0.168c0.025-2.701,0.067-5.41,0.115-8.125c1.689-0.023,3.371-0.088,5.01-0.273
	C226.636,295.604,226.659,298.476,226.68,301.305z M221.756,288.703c0.051-2.703,0.101-5.41,0.141-8.118
	c1.816-0.028,3.627-0.105,5.375-0.339c0.008,0.95,0.011,1.9,0.026,2.85c-0.238,1.912-0.389,3.855-0.486,5.81
	C225.173,288.62,223.467,288.603,221.756,288.703z M227.258,276.561c-1.712-0.356-3.505-0.389-5.307-0.293
	c0.026-2.705,0.034-5.409,0.018-8.108c1.815-0.029,3.623-0.107,5.368-0.346C227.291,270.73,227.262,273.646,227.258,276.561z
	 M221.919,263.846c-0.046-2.71-0.128-5.412-0.25-8.106c2.001-0.027,4.002-0.099,5.919-0.38c-0.061,2.933-0.127,5.867-0.184,8.802
	C225.638,263.776,223.783,263.745,221.919,263.846z M221.438,251.449c-0.088-1.389-0.186-2.777-0.303-4.161
	c-0.111-1.319-0.198-2.64-0.273-3.961c2.342-0.019,4.696-0.081,6.935-0.427c-0.009,0.547-0.034,1.092-0.038,1.639
	c-0.019,2.414-0.059,4.829-0.103,7.245C225.665,251.306,223.55,251.311,221.438,251.449z M220.677,239.076
	c-0.089-2.721-0.125-5.444-0.125-8.17c2.593-0.018,5.206-0.081,7.669-0.507c-0.131,3.008-0.251,6.018-0.342,9.029
	C225.583,238.832,223.12,238.884,220.677,239.076z M220.569,226.661c0.026-2.725,0.07-5.453,0.11-8.181
	c2.686-0.02,5.39-0.094,7.923-0.576c-0.02,3.085-0.126,6.167-0.251,9.248C225.89,226.405,223.217,226.45,220.569,226.661z
	 M216.027,400.976c-2.6,0.155-5.198,0.076-7.794-0.001c0.04-2.795,0.094-5.592,0.166-8.388c2.487,0.051,4.957,0.025,7.302-0.085
	c0.229-0.01,0.463-0.015,0.695-0.023c-0.088,2.829-0.158,5.657-0.215,8.486C216.129,400.967,216.077,400.973,216.027,400.976z
	 M216.109,404.912c-0.018,1.452-0.02,2.904-0.025,4.356c-2.633-0.006-5.265-0.003-7.898,0.003c-0.005-1.422-0.012-2.843-0.003-4.266
	c2.559,0.056,5.104,0.033,7.516-0.08C215.835,404.919,215.974,404.917,216.109,404.912z M216.027,388.552
	c-2.507,0.149-5.011,0.081-7.515,0.007c0.082-2.795,0.168-5.592,0.259-8.388c2.361,0.041,4.702,0.01,6.929-0.094
	c0.372-0.017,0.75-0.026,1.127-0.036c-0.103,2.825-0.203,5.65-0.3,8.473C216.361,388.526,216.19,388.542,216.027,388.552z
	 M216.027,376.129c-2.379,0.142-4.755,0.087-7.13,0.018c0.088-2.798,0.167-5.594,0.238-8.391c2.237,0.03,4.452-0.003,6.565-0.102
	c0.507-0.024,1.021-0.038,1.537-0.049c-0.08,2.818-0.171,5.635-0.27,8.453C216.653,376.082,216.336,376.109,216.027,376.129z
	 M209.442,206.246c2.132,0.024,4.241-0.01,6.257-0.104c0.43-0.02,0.867-0.03,1.305-0.042c0.054,2.836,0.223,5.681,0.335,8.418
	c-0.442,0.037-0.881,0.073-1.314,0.099c-2.2,0.131-4.397,0.094-6.594,0.033C209.462,211.847,209.474,209.046,209.442,206.246z
	 M215.7,218.566c0.573-0.027,1.153-0.043,1.738-0.054c0.001,0.33,0.005,0.662,0.001,0.985c-0.03,2.469-0.036,4.951-0.028,7.44
	c-0.465,0.04-0.928,0.077-1.384,0.105c-2.253,0.134-4.504,0.093-6.754,0.028c0.025-2.799,0.068-5.6,0.11-8.4
	C211.534,218.695,213.665,218.661,215.7,218.566z M215.7,230.99c0.574-0.027,1.157-0.043,1.743-0.054
	c0.033,2.806,0.087,5.61,0.176,8.409c-0.536,0.046-1.068,0.089-1.593,0.121c-2.213,0.132-4.422,0.094-6.631,0.033
	c-0.098-2.798-0.136-5.6-0.138-8.404C211.452,231.122,213.625,231.087,215.7,230.99z M215.7,243.414
	c0.682-0.032,1.377-0.047,2.075-0.059c0.029,0.701,0.049,1.406,0.082,2.106c0.099,2.086,0.176,4.174,0.248,6.264
	c-0.703,0.063-1.398,0.123-2.079,0.164c-1.953,0.116-3.903,0.097-5.854,0.05c-0.096-1.554-0.201-3.105-0.331-4.651
	c-0.105-1.255-0.191-2.512-0.263-3.769C211.664,243.54,213.726,243.507,215.7,243.414z M215.7,255.838
	c0.828-0.038,1.674-0.054,2.525-0.064c0.075,2.781,0.132,5.564,0.171,8.349c-0.801,0.073-1.595,0.145-2.368,0.191
	c-1.799,0.107-3.595,0.098-5.392,0.06c-0.044-2.817-0.125-5.627-0.251-8.427C212.193,255.951,213.981,255.918,215.7,255.838z
	 M217.025,202.118c-0.334,0.026-0.671,0.055-0.998,0.076c-2.222,0.132-4.441,0.094-6.66,0.032c-0.081-2.844-0.233-5.683-0.46-8.517
	c1.045-0.009,2.087-0.02,3.142-0.011c2.041,0.018,4.045,0.201,6.063,0.334C217.429,196.581,217.122,199.313,217.025,202.118z
	 M216.027,363.705c-2.268,0.136-4.534,0.091-6.799,0.027c0.038-1.878,0.073-3.755,0.094-5.633c0.01-0.923,0.034-1.844,0.046-2.767
	c2.157,0.026,4.292-0.009,6.332-0.104c0.592-0.027,1.192-0.044,1.796-0.055c-0.016,0.975-0.035,1.951-0.049,2.925
	c-0.024,1.835-0.064,3.67-0.106,5.505C216.9,363.642,216.459,363.679,216.027,363.705z M216.027,351.281
	c-2.199,0.131-4.396,0.094-6.591,0.033c0.049-2.801,0.091-5.603,0.152-8.403c2.083,0.02,4.143-0.012,6.113-0.105
	c0.672-0.032,1.356-0.047,2.044-0.058c-0.066,2.806-0.129,5.611-0.182,8.417C217.044,351.21,216.531,351.25,216.027,351.281z
	 M216.027,338.857c-2.118,0.126-4.233,0.095-6.347,0.038c0.064-2.802,0.124-5.605,0.189-8.408c1.987,0.015,3.951-0.018,5.832-0.106
	c0.768-0.036,1.552-0.052,2.341-0.062c-0.066,2.799-0.133,5.598-0.201,8.396C217.228,338.771,216.622,338.821,216.027,338.857z
	 M216.027,326.433c-2.027,0.121-4.052,0.096-6.078,0.044c0.06-2.804,0.122-5.608,0.167-8.413c1.901,0.01,3.78-0.023,5.583-0.106
	c0.85-0.04,1.72-0.055,2.597-0.064c-0.045,2.791-0.103,5.583-0.164,8.374C217.422,326.33,216.716,326.391,216.027,326.433z
	 M216.027,314.009c-1.958,0.116-3.915,0.097-5.87,0.049c0.035-2.806,0.078-5.61,0.084-8.417c1.859,0.008,3.696-0.025,5.46-0.107
	c0.889-0.042,1.798-0.056,2.713-0.067c-0.006,2.785-0.028,5.57-0.063,8.356C217.565,313.895,216.786,313.964,216.027,314.009z
	 M216.027,301.585c-1.922,0.115-3.842,0.097-5.764,0.051c0.024-2.797,0.068-5.604,0.116-8.419c1.812,0.006,3.601-0.027,5.32-0.107
	c0.9-0.042,1.822-0.058,2.75-0.067c-0.011,2.785-0.02,5.567-0.025,8.349C217.614,301.467,216.809,301.538,216.027,301.585z
	 M216.027,289.161c-1.859,0.111-3.717,0.098-5.575,0.055c0.052-2.804,0.105-5.612,0.147-8.422c1.736,0.002,3.45-0.032,5.101-0.108
	c0.913-0.043,1.847-0.058,2.789-0.068c-0.003,2.782-0.011,5.564-0.023,8.345C217.641,289.04,216.823,289.114,216.027,289.161z
	 M216.027,276.737c-1.792,0.107-3.584,0.098-5.375,0.06c0.029-2.811,0.042-5.621,0.026-8.427c1.709,0.001,3.397-0.033,5.023-0.108
	c0.9-0.042,1.821-0.058,2.749-0.067c0.025,2.78,0.036,5.561,0.04,8.343C217.655,276.615,216.831,276.689,216.027,276.737z
	 M198.415,404.347c2.058,0.245,4.215,0.424,6.399,0.538c-0.019,1.468-0.021,2.935-0.025,4.404c-1.207,0.007-2.415,0.006-3.622,0.019
	c-0.924,0.01-1.957-0.021-3.06-0.064C198.391,407.649,198.456,406.006,198.415,404.347z M198.282,401.183
	c-0.017,0.002-0.028,0.01-0.045,0.014c-0.037-0.464-0.077-0.927-0.117-1.39c0.286-2.581,0.417-5.214,0.48-7.862
	c2.093,0.244,4.283,0.42,6.5,0.53c-0.088,2.808-0.157,5.616-0.213,8.423C202.688,400.87,200.488,400.916,198.282,401.183z
	 M198.648,388.726c0.015-3.073-0.029-6.155-0.041-9.206c2.226,0.26,4.563,0.439,6.924,0.548c-0.102,2.803-0.202,5.608-0.298,8.411
	C203.041,388.445,200.847,388.485,198.648,388.726z M198.615,376.305c0.011-1.088,0.032-2.17,0.068-3.243
	c0.067-1.975,0.128-3.956,0.188-5.937c2.277,0.259,4.663,0.436,7.071,0.536c-0.08,2.801-0.169,5.602-0.269,8.403
	C203.324,376.019,200.972,376.044,198.615,376.305z M198.961,363.85c0.084-3.038,0.15-6.079,0.2-9.118
	c2.271,0.25,4.645,0.421,7.039,0.516c-0.016,0.95-0.034,1.901-0.046,2.852c-0.025,1.849-0.066,3.699-0.107,5.548
	C203.687,363.596,201.327,363.611,198.961,363.85z M199.215,351.403c0.026-2.284,0.041-4.566,0.037-6.841
	c-0.001-0.749-0.011-1.497-0.014-2.245c2.327,0.254,4.759,0.427,7.208,0.518c-0.066,2.798-0.128,5.595-0.182,8.394
	C203.919,351.173,201.57,351.181,199.215,351.403z M199.219,338.979c-0.014-3.031-0.028-6.064-0.054-9.094
	c2.443,0.269,5.005,0.45,7.58,0.539c-0.066,2.795-0.133,5.591-0.201,8.387C204.105,338.75,201.665,338.75,199.219,338.979z
	 M199.143,326.562c-0.029-3.037-0.064-6.076-0.098-9.115c2.559,0.285,5.252,0.474,7.956,0.562c-0.046,2.794-0.103,5.589-0.165,8.383
	C204.274,326.326,201.711,326.315,199.143,326.562z M199.008,314.15c-0.017-1.536-0.033-3.072-0.05-4.609
	c-0.017-1.512-0.036-3.022-0.054-4.532c2.638,0.298,5.422,0.492,8.213,0.581c-0.006,2.795-0.029,5.59-0.064,8.385
	C204.375,313.901,201.695,313.883,199.008,314.15z M198.865,301.739c-0.035-3.054-0.059-6.108-0.052-9.164
	c2.676,0.305,5.505,0.503,8.341,0.591c-0.011,2.797-0.02,5.592-0.025,8.385C204.379,301.476,201.625,301.453,198.865,301.739z
	 M199.017,289.301c0.22-3.02,0.425-6.041,0.601-9.064c2.45,0.256,5.008,0.426,7.575,0.505c-0.003,2.795-0.011,5.591-0.024,8.386
	C204.457,289.054,201.74,289.031,199.017,289.301z M200.546,243.063c1.936,0.183,3.933,0.308,5.937,0.383
	c0.028,0.671,0.046,1.346,0.079,2.016c0.102,2.127,0.181,4.257,0.253,6.388c-2.086-0.055-4.173-0.081-6.264,0.045
	c0.014-2.131,0.016-4.263,0.002-6.395C200.549,244.687,200.55,243.875,200.546,243.063z M200.536,239.471
	c-0.008-2.946-0.024-5.89-0.03-8.836c1.84,0.174,3.737,0.295,5.644,0.372c0.034,2.806,0.089,5.61,0.178,8.408
	C204.398,239.37,202.469,239.354,200.536,239.471z M206.116,226.986c-1.875-0.042-3.75-0.053-5.628,0.063
	c-0.009-2.433-0.01-4.867-0.035-7.3c-0.006-0.515-0.017-1.03-0.024-1.545c1.862,0.178,3.784,0.3,5.714,0.378
	c0.001,0.305,0.005,0.614,0.001,0.915C206.113,221.983,206.108,224.482,206.116,226.986z M200.376,214.636
	c-0.045-2.589-0.103-5.176-0.189-7.764c-0.012-0.374-0.033-0.748-0.046-1.12c1.814,0.18,3.684,0.306,5.568,0.39
	c0.055,2.837,0.224,5.683,0.337,8.42C204.158,214.52,202.269,214.514,200.376,214.636z M200.514,255.485
	c2.091,0.198,4.253,0.333,6.42,0.404c0.075,2.795,0.131,5.592,0.169,8.391c-2.258-0.062-4.518-0.091-6.782,0.058
	C200.41,261.387,200.474,258.436,200.514,255.485z M205.731,202.131c-1.909-0.037-3.819-0.026-5.731,0.115
	c-0.024-0.532-0.038-1.064-0.064-1.596c-0.084-1.684-0.913-3.674,0.262-5.105c0.748-0.911,1.735-1.613,2.9-1.675
	c1.274-0.069,2.536-0.105,3.798-0.133C206.156,196.373,205.83,199.213,205.731,202.131z M199.803,276.807
	c0.156-2.976,0.291-5.952,0.401-8.929c2.258,0.221,4.602,0.368,6.951,0.442c0.025,2.794,0.036,5.591,0.038,8.387
	C204.732,276.637,202.27,276.613,199.803,276.807z M169.298,411.216c0.043-1.306-0.047-3.347,0.187-4.944
	c0.075-0.507,0.182-0.969,0.335-1.349c1.456-3.581,7.353-2.285,10.27-2.534c0.111-0.009,0.208-0.04,0.313-0.058
	c-0.024,2.966-0.069,5.931-0.116,8.894c-1.509,0.865-2.762,2.039-3.578,3.676c-1.667,3.343-1.062,7.415-0.995,11.018
	c0.056,3.059-0.106,6.084-0.255,9.109c-1.865,0.15-3.777,0.514-5.506,0.873c-0.076-0.847-0.219-1.75-0.252-2.803
	c-0.143-4.536-0.265-9.123-0.263-13.687C169.442,416.681,169.209,413.949,169.298,411.216z M172.234,465.522
	c1.102-0.072,2.198-0.159,3.246-0.456c-0.047,4.023-0.042,8.102,0.778,11.971c-0.944,0.045-1.894,0.07-2.861,0.035
	c-0.412-0.015-0.824-0.014-1.237-0.018C171.895,473.316,172.105,469.416,172.234,465.522z M171.095,450.945
	c1.429-0.034,2.872,0.045,4.281-0.171c0.043,2.973,0.087,5.944,0.13,8.917c0.005,0.304,0.002,0.612,0.003,0.918
	c-0.507,0.062-1.018,0.248-1.643,0.378c-0.513,0.106-1.032,0.155-1.554,0.192C172.298,457.668,172.034,454.214,171.095,450.945z
	 M158.162,447.936c1.991-4.955,10.641-4.893,15.268-5.797c0.601-0.117,1.214-0.23,1.827-0.349c0,0.343-0.005,0.686,0.001,1.029
	c0.023,1.354,0.04,2.708,0.06,4.063c-0.14-0.006-0.287,0.001-0.438,0.025c-4.927,0.75-12.476,0.05-13.622,6.42
	c-0.888,4.928,0.02,10.53,0.267,15.497c0.14,2.828,0.334,5.669,0.822,8.461c-0.491,0.003-0.983,0.019-1.474,0.01
	c-1.003-0.019-2.015-0.045-3.03-0.069c-0.304-4.509-0.668-8.977-0.607-13.531c0.035-2.625,0.294-5.223,0.413-7.843
	C157.756,453.493,157.267,450.165,158.162,447.936z M164.697,465.976c1.047,0.273,2.239,0.212,3.309,0.061
	c-0.142,3.733-0.138,7.452,0.091,11.082c-1.062,0.04-2.124,0.084-3.187,0.12C165.502,473.679,165.054,469.746,164.697,465.976z
	 M164.819,462.484c-0.136,0.029-0.256,0.067-0.382,0.101c-0.026-0.487-0.052-0.975-0.06-1.448
	c-0.071-4.755-0.981-9.043,4.656-10.017c0.03-0.006,0.062-0.008,0.094-0.012c-0.347,3.449-0.671,7.003-0.9,10.581
	C167.086,461.946,165.946,462.24,164.819,462.484z M213.514,493.969c-0.069,2.575-0.716,6.589-0.395,9.939
	c-4.395,0.157-8.788,0.395-13.212,0.382c-9.05-0.027-18.166,0.461-27.241,0.587c-5.346,0.075-10.408,0.076-15.73-0.401
	c-4.648-0.416-9.339,0.228-13.97-0.191c-1.59-0.143-4.536-0.333-5.581-1.798c-0.536-0.751-0.358-3.168-0.465-4.078
	c-0.285-2.419-0.546-4.86-0.436-7.313c0.151-3.409-0.059-4.529,3.742-5.479c9.194-2.3,18.828-0.454,28.157-1.012
	c3.679-0.22,7.411,0.253,11.072-0.062c2.451-0.211,4.417-0.762,6.933-0.448c1.858,0.232,3.586,0.405,5.463,0.416
	c7.293,0.04,14.893,0.693,22.234,0.166C213.694,487.753,213.596,490.839,213.514,493.969z M188.87,473.731
	c3.209,0.299,6.604,0.496,10.017,0.596c0.036,0.671,0.059,1.346,0.099,2.016c0.019,0.324,0.032,0.649,0.049,0.974
	c-1.044-0.008-2.091-0.015-3.139-0.016c-2.399-0.003-4.645-0.526-7.01-0.263c-0.076,0.009-0.152,0.012-0.228,0.02
	C188.79,475.979,188.85,474.861,188.87,473.731z M188.608,465.245c-0.046-1.323-0.086-2.652-0.124-3.982
	c0.027,0.003,0.044,0.014,0.071,0.016c3.168,0.303,6.528,0.501,9.91,0.609c0.043,2.804,0.112,5.61,0.225,8.408
	c-3.28-0.062-6.562-0.061-9.852,0.237C188.775,468.717,188.667,466.921,188.608,465.245z M197.939,433.012
	c-3.027-0.047-6.056-0.025-9.092,0.25c-0.055-1.539-0.026-3.074,0.382-4.246c1.499-4.302,5.996-3.034,9.685-2.816
	C198.325,428.378,198.039,430.669,197.939,433.012z M188.995,437.302c0.007-0.262,0.003-0.544-0.003-0.832
	c2.868,0.264,5.88,0.447,8.923,0.553c0.07,2.837,0.281,5.683,0.424,8.421c-3.255-0.056-6.514-0.05-9.781,0.263
	c-0.014,0.001-0.023,0.007-0.035,0.008c0.011-0.246,0.012-0.494,0.025-0.74C188.675,442.42,188.923,439.856,188.995,437.302z
	 M188.556,448.856c3.166,0.303,6.524,0.501,9.903,0.609c0.001,0.305,0.006,0.614,0.001,0.915c-0.038,2.485-0.045,4.984-0.035,7.489
	c-3.284-0.059-6.572-0.054-9.868,0.262c-0.054,0.006-0.089,0.025-0.141,0.032c-0.062-3.114-0.072-6.23,0.003-9.337
	C188.468,448.831,188.503,448.85,188.556,448.856z M202.614,437.128c2.686,0.024,5.343-0.01,7.882-0.104
	c0.542-0.02,1.092-0.031,1.643-0.042c0.069,2.836,0.28,5.681,0.422,8.418c-0.556,0.037-1.11,0.073-1.654,0.099
	c-2.772,0.131-5.539,0.094-8.307,0.033C202.639,442.728,202.654,439.927,202.614,437.128z M210.497,449.448
	c0.722-0.027,1.452-0.043,2.19-0.054c0.001,0.33,0.007,0.662,0.001,0.985c-0.037,2.469-0.045,4.952-0.036,7.44
	c-0.586,0.04-1.17,0.078-1.743,0.105c-2.838,0.134-5.673,0.093-8.508,0.029c0.03-2.799,0.086-5.6,0.138-8.4
	C205.249,449.576,207.933,449.542,210.497,449.448z M210.497,461.871c0.724-0.027,1.457-0.043,2.196-0.054
	c0.042,2.806,0.11,5.61,0.221,8.409c-0.677,0.046-1.346,0.089-2.006,0.121c-2.786,0.132-5.57,0.094-8.353,0.033
	c-0.123-2.798-0.172-5.6-0.174-8.404C205.147,462.004,207.883,461.969,210.497,461.871z M210.497,474.295
	c0.859-0.032,1.734-0.047,2.614-0.059c0.037,0.701,0.062,1.406,0.104,2.106c0.019,0.33,0.033,0.66,0.05,0.989
	c-3.405,0.071-6.806,0.053-10.221,0.02c-0.096-0.984-0.186-1.967-0.259-2.953C205.412,474.421,208.011,474.388,210.497,474.295z
	 M212.166,432.999c-0.42,0.026-0.845,0.055-1.258,0.076c-2.799,0.132-5.595,0.094-8.391,0.032c-0.084-2.318-0.217-4.633-0.419-6.945
	c1.568-0.081,3.127-0.216,4.704-0.273c2.088-0.076,4.258,0.006,6.394,0.086C212.569,428.215,212.271,430.581,212.166,432.999z
	 M215.198,422.064c-2.376-0.105-4.757-0.239-7.123-0.187c-3.408,0.075-6.611,0.792-10.008,0.547
	c-3.104-0.224-6.562-0.657-9.424,0.872c-4.099,2.191-2.731,9.331-2.881,13.081c-0.321,8-0.496,15.935-0.489,23.952
	c0.005,5.54-0.134,11.41,0.799,16.921c-1.818,0.082-3.642,0.043-5.444-0.233c-0.084-2.149,0.699-4.589,0.862-6.788
	c0.182-2.462,0.213-4.933,0.19-7.401c-0.046-4.752-0.342-9.5-0.273-14.251c0.068-4.66,0.248-9.154,0.674-13.778
	c0.387-4.216-0.576-8.771,0.082-12.913c0.41-2.584,0.605-4.133,3.516-5.373c2.119-0.902,4.954-0.508,7.192-0.434
	c4.369,0.146,8.746,0.149,13.118,0.165c5.107,0.018,10.215-0.044,15.322,0c4.422,0.038,8.771-0.515,13.151-0.566
	c-0.146,5.262-0.522,10.522-0.541,15.822c-0.052,14.94-0.134,29.879-0.206,44.819c-0.001,0.167,0.027,0.316,0.045,0.472
	c-0.365,0-0.738,0.005-1.126,0.015c-0.981,0.027-1.971,0.037-2.961,0.044c0.605-6.66-0.416-13.689-0.225-20.341
	c0.203-7.094-0.04-14.229,0.238-21.324c0.142-3.628,1.733-11.139-2.711-12.924c-2.216-0.891-5.335-0.095-7.668-0.087
	c-1.308,0.005-2.62-0.044-3.933-0.1C215.315,422.062,215.257,422.062,215.198,422.064z M223.187,426.143
	c1.842,0.436,2.176,0.194,2.573,2.654c0.208,1.286,0.056,2.791-0.001,4.106c-0.002,0.038-0.002,0.076-0.005,0.114
	c-2.879-0.579-5.967-0.52-9.027-0.328c-0.086-2.216-0.215-4.43-0.41-6.641C218.519,426.001,221.279,425.692,223.187,426.143z
	 M216.834,445.105c0.035-2.724,0.046-5.446,0.006-8.167c2.964-0.018,5.947-0.072,8.785-0.412c-0.029,1.014-0.051,2.03-0.053,3.054
	c-0.003,1.936-0.043,3.869-0.093,5.802C222.713,444.867,219.762,444.924,216.834,445.105z M225.378,448.98
	c-0.091,2.846-0.193,5.691-0.253,8.539c-0.001,0.078,0.001,0.159,0,0.238c-2.73-0.459-5.625-0.395-8.495-0.213
	c0.033-2.726,0.087-5.453,0.138-8.181C219.67,449.346,222.591,449.296,225.378,448.98z M216.608,461.788
	c2.882-0.016,5.785-0.063,8.56-0.365c0.096,2.899,0.287,5.874,0.335,8.811c-2.794-0.524-5.78-0.461-8.739-0.276
	C216.655,467.237,216.608,464.513,216.608,461.788z M221.398,503.805c-1.15-0.018-2.298-0.026-3.446-0.012
	c-0.112-3.27-0.047-6.55-0.129-9.824c-0.061-2.422,0.398-6.501-0.115-9.659c0.173-0.024,0.348-0.034,0.52-0.059
	c1.346-0.195,2.673-0.341,3.986-0.47C221.15,490.272,220.849,497.252,221.398,503.805z M220.01,477.049
	c-0.918,0.062-1.836,0.111-2.752,0.154c-0.097-0.997-0.185-1.995-0.256-2.993c2.854-0.019,5.724-0.072,8.462-0.39
	c-0.044,1.032-0.111,2.058-0.235,3.06C223.479,476.896,221.735,476.931,220.01,477.049z M286.08,492.854
	c-0.255,3.463-0.638,7.216-0.494,10.783c-0.442-0.035-0.884-0.063-1.332-0.081c-1.093-0.172-2.231-0.268-3.424-0.251
	c-2.17,0.031-5.145-0.323-7.221,0.466c-0.021,0-0.044,0.001-0.064,0.001c-6.268,0.007-11.84,0.021-18.176,0.015
	c-5.692-0.007-11.666-0.334-17.591-0.211c-2.021-0.53-4.645-0.242-6.611-0.27c-1.686-0.024-3.265,0.171-4.758,0.497
	c0.164-3.615-0.233-7.433-0.491-10.948c-0.215-2.903-0.317-5.827-0.657-8.724c1.089,0.132,2.206,0.111,3.343,0.026
	c3.269,0.558,6.732,0.538,9.882,0.576c6.288,0.076,12.62,0.081,18.94,0.086c8.235,0.007,17.543,0.944,25.881-0.668
	c1.169,0.089,2.315,0.114,3.432-0.02C286.399,487.026,286.295,489.951,286.08,492.854z M295.165,445.105
	c-2.926-0.181-5.879-0.238-8.645,0.277c-0.05-1.932-0.089-3.866-0.093-5.802c-0.002-1.024-0.024-2.039-0.053-3.054
	c2.837,0.34,5.82,0.394,8.785,0.412C295.118,439.659,295.131,442.382,295.165,445.105z M286.621,448.98
	c2.786,0.316,5.708,0.366,8.61,0.383c0.05,2.726,0.105,5.454,0.137,8.181c-2.87-0.182-5.765-0.246-8.493,0.213
	c-0.001-0.078,0.002-0.159,0-0.238C286.815,454.671,286.713,451.826,286.621,448.98z M294.176,493.969
	c-0.082,3.274-0.017,6.554-0.129,9.824c-1.147-0.014-2.296-0.006-3.446,0.012c0.55-6.553,0.248-13.533-0.815-20.024
	c1.312,0.129,2.64,0.274,3.986,0.47c0.172,0.025,0.347,0.036,0.52,0.059C293.778,487.468,294.236,491.548,294.176,493.969z
	 M294.742,477.201c-0.916-0.043-1.834-0.091-2.752-0.154c-1.725-0.116-3.47-0.152-5.217-0.169c-0.124-1.002-0.191-2.026-0.235-3.06
	c2.738,0.316,5.608,0.37,8.462,0.39C294.927,475.207,294.839,476.205,294.742,477.201z M295.233,469.957
	c-2.958-0.184-5.943-0.248-8.739,0.276c0.049-2.937,0.241-5.912,0.335-8.811c2.776,0.302,5.678,0.348,8.56,0.365
	C295.392,464.513,295.345,467.237,295.233,469.957z M295.272,432.689c-3.06-0.192-6.148-0.252-9.027,0.328
	c-0.001-0.038-0.002-0.076-0.005-0.114c-0.059-1.315-0.209-2.819-0.002-4.106c0.396-2.46,0.732-2.218,2.573-2.654
	c1.909-0.451,4.668-0.141,6.869-0.095C295.488,428.258,295.358,430.473,295.272,432.689z M296.801,422.064
	c-0.059-0.002-0.116-0.001-0.174,0.008c-1.314,0.056-2.625,0.105-3.933,0.1c-2.332-0.008-5.452-0.803-7.668,0.087
	c-4.443,1.786-2.852,9.296-2.711,12.924c0.278,7.095,0.035,14.229,0.238,21.324c0.191,6.652-0.83,13.681-0.225,20.341
	c-0.992-0.007-1.98-0.017-2.963-0.044c-0.389-0.01-0.761-0.015-1.126-0.015c0.017-0.156,0.046-0.304,0.045-0.472
	c-0.071-14.939-0.152-29.879-0.206-44.819c-0.019-5.3-0.395-10.56-0.541-15.822c4.38,0.051,8.729,0.603,13.151,0.566
	c5.107-0.044,10.215,0.018,15.322,0c4.371-0.016,8.749-0.019,13.118-0.165c2.239-0.075,5.073-0.469,7.192,0.434
	c2.911,1.24,3.106,2.789,3.516,5.373c0.658,4.143-0.306,8.698,0.082,12.913c0.426,4.623,0.606,9.118,0.674,13.778
	c0.069,4.753-0.227,9.501-0.273,14.251c-0.024,2.468,0.007,4.939,0.19,7.401c0.163,2.199,0.945,4.64,0.862,6.788
	c-1.801,0.277-3.625,0.316-5.444,0.233c0.933-5.513,0.794-11.381,0.798-16.921c0.007-8.017-0.168-15.952-0.489-23.952
	c-0.15-3.75,1.219-10.89-2.881-13.081c-2.862-1.529-6.32-1.096-9.425-0.872c-3.397,0.245-6.6-0.472-10.008-0.547
	C301.558,421.825,299.179,421.959,296.801,422.064z M323.455,444.974c0.012,0.246,0.014,0.494,0.025,0.74
	c-0.014-0.001-0.021-0.007-0.035-0.008c-3.267-0.313-6.525-0.32-9.781-0.263c0.141-2.737,0.354-5.583,0.424-8.421
	c3.042-0.106,6.055-0.288,8.923-0.553c-0.007,0.288-0.01,0.57-0.003,0.832C323.077,439.856,323.325,442.42,323.455,444.974z
	 M323.153,433.26c-3.036-0.274-6.065-0.296-9.092-0.25c-0.1-2.342-0.386-4.634-0.975-6.813c3.689-0.218,8.186-1.486,9.685,2.816
	C323.179,430.186,323.21,431.721,323.153,433.26z M313.113,474.327c3.413-0.1,6.808-0.297,10.017-0.596
	c0.021,1.131,0.08,2.249,0.213,3.327c-0.076-0.008-0.152-0.012-0.228-0.02c-2.365-0.263-4.612,0.26-7.01,0.263
	c-1.048,0.001-2.095,0.008-3.139,0.016c0.017-0.324,0.029-0.649,0.049-0.974C313.054,475.673,313.076,474.998,313.113,474.327z
	 M323.162,470.533c-3.29-0.297-6.572-0.298-9.852-0.237c0.112-2.799,0.182-5.603,0.224-8.408c3.382-0.107,6.742-0.306,9.91-0.609
	c0.027-0.002,0.045-0.014,0.071-0.016c-0.037,1.329-0.078,2.659-0.124,3.982C323.333,466.921,323.223,468.717,323.162,470.533z
	 M323.444,458.13c-3.296-0.315-6.584-0.32-9.868-0.262c0.01-2.504,0.002-5.003-0.035-7.489c-0.005-0.3,0-0.609,0.001-0.915
	c3.379-0.107,6.737-0.306,9.903-0.609c0.053-0.005,0.088-0.025,0.138-0.032c0.076,3.107,0.066,6.224,0.003,9.337
	C323.534,458.154,323.498,458.134,323.444,458.13z M301.092,470.347c-0.66-0.032-1.329-0.073-2.006-0.121
	c0.112-2.799,0.18-5.604,0.221-8.409c0.739,0.011,1.472,0.027,2.196,0.054c2.614,0.097,5.35,0.131,8.116,0.103
	c-0.003,2.804-0.051,5.605-0.174,8.404C306.661,470.441,303.878,470.479,301.092,470.347z M309.215,474.4
	c-0.072,0.985-0.161,1.969-0.258,2.953c-3.414,0.032-6.815,0.051-10.221-0.02c0.017-0.33,0.029-0.66,0.05-0.989
	c0.042-0.699,0.067-1.405,0.104-2.106c0.88,0.011,1.755,0.027,2.614,0.059C303.989,474.388,306.588,474.421,309.215,474.4z
	 M309.399,445.532c-2.768,0.061-5.535,0.098-8.307-0.033c-0.544-0.026-1.098-0.062-1.654-0.099c0.142-2.737,0.354-5.582,0.422-8.418
	c0.551,0.01,1.101,0.021,1.643,0.042c2.54,0.094,5.197,0.128,7.882,0.104C309.346,439.927,309.361,442.728,309.399,445.532z
	 M301.503,449.448c2.564,0.095,5.247,0.129,7.959,0.104c0.052,2.8,0.106,5.601,0.138,8.4c-2.835,0.063-5.67,0.105-8.508-0.029
	c-0.574-0.027-1.157-0.066-1.743-0.105c0.009-2.488,0.001-4.971-0.036-7.44c-0.005-0.324,0-0.656,0.001-0.985
	C300.051,449.405,300.781,449.422,301.503,449.448z M309.481,433.107c-2.795,0.062-5.592,0.1-8.391-0.032
	c-0.413-0.019-0.837-0.049-1.258-0.076c-0.105-2.418-0.403-4.785-1.031-7.025c2.137-0.079,4.305-0.16,6.394-0.086
	c1.577,0.056,3.136,0.191,4.704,0.273C309.699,428.474,309.566,430.789,309.481,433.107z M375.08,498.409
	c-0.107,0.91,0.071,3.327-0.465,4.078c-1.046,1.465-3.99,1.655-5.581,1.798c-4.631,0.419-9.322-0.226-13.97,0.191
	c-5.322,0.477-10.383,0.475-15.73,0.401c-9.074-0.126-18.19-0.614-27.241-0.587c-4.424,0.014-8.816-0.225-13.212-0.382
	c0.321-3.35-0.326-7.364-0.395-9.939c-0.082-3.13-0.182-6.216-0.57-9.293c7.341,0.527,14.941-0.126,22.234-0.166
	c1.877-0.01,3.605-0.184,5.463-0.416c2.515-0.314,4.482,0.237,6.933,0.448c3.662,0.315,7.393-0.157,11.072,0.062
	c9.329,0.558,18.962-1.288,28.157,1.012c3.801,0.951,3.589,2.07,3.742,5.479C375.625,493.549,375.364,495.99,375.08,498.409z"/>
<g>
</g>
<g>
</g>
<g>
</g>
<g>
</g>
<g>
</g>
<g>
</g>
<g>
</g>
<g>
</g>
<g>
</g>
<g>
</g>
<g>
</g>
<g>
</g>
<g>
</g>
<g>
</g>
<g>
</g>
</svg>
