<?xml version="1.0" encoding="iso-8859-1"?>
<!-- Generator: Adobe Illustrator 19.0.0, SVG Export Plug-In . SVG Version: 6.00 Build 0)  -->
<svg version="1.1" id="Layer_1" xmlns="http://www.w3.org/2000/svg" xmlns:xlink="http://www.w3.org/1999/xlink" x="0px" y="0px"
	 viewBox="0 0 512.004 512.004" style="enable-background:new 0 0 512.004 512.004;" xml:space="preserve">
<path style="fill:#F9CE95;" d="M23.712,286.769c-6.169-1.414-11.096-2.545-15.762-3.614c-0.176-2.304-0.933-4.271-0.288-5.004
	c6.458-7.348,13.148-14.494,20.319-22.292c0.797-0.866,0.002-6.351,0.003-7.637c0.002-2.729,0.006-5.457,0.009-8.186
	C28,234.357,28.006,228.678,28.001,223c-0.005-5.732-0.019-11.464-0.053-17.196c-0.016-2.612,0.078-5.254-0.167-7.852
	c-0.201-2.134,0.341-4.282,0.03-6.384c-0.272-1.842-1.522-3.676-3.352-4.021c-0.658-0.124-1.344-0.052-1.997-0.202
	c-1.305-0.3-2.281-1.472-2.67-2.754c-0.834-2.748,0.765-5.805,3.16-7.39s5.394-1.96,8.266-1.922
	c2.367,0.032,4.844,0.536,7.187,0.057c1.624-0.331,3.065-1.077,4.733-1.3c5.184-0.695,10.579-0.778,15.802-1.139
	c5.382-0.371,10.784-0.604,16.176-0.311c3.515,0.191,7.094,1.378,10.597,1.115c1.737-0.131,2.778-0.717,4.318,0.69
	c1.461,1.336,1.827,3.603,0.833,5.327c-1.17,2.03-3.779,2.818-5.133,4.729c-1.125,1.587-1.2,3.663-1.234,5.609
	c-0.086,4.997-0.531,9.987-0.446,14.987c0.081,4.725,0.448,8.891-0.086,13.635c-0.338,2.995-0.1,6.384,2.084,8.46
	c1.512,1.436,3.66,1.948,5.713,2.313c7.231,1.288,14.661,1.46,21.943,0.507c1.824-0.238,3.793-0.629,5.003-2.014
	c0.965-1.103,1.254-2.629,1.451-4.082c0.499-3.69,0.795-7.614,0.381-11.328c-0.27-2.429-1.397-4.267-2.132-6.53
	c-2.231-6.878-1.266-15.894-1.305-23.062c-0.089-16.328,0.854-32.636,1.553-48.943c0.091-2.119,0.178-4.239,0.258-6.359
	c0.418-11.073,1.341-22.119,2.346-33.151c0.503-5.522,1.028-11.04,1.521-16.562c0.24-2.686,0.269-4.204-0.477-6.654
	c-0.633-2.08-0.215-4.423,0.926-6.251c1.505-2.413,4.064-4.004,6.736-4.977c2.007-0.731,4.172-1.164,6.285-0.854
	c2.114,0.31,4.172,1.441,5.262,3.277c1.497,2.524,0.93,5.693,0.756,8.623c-0.175,2.93,0.456,6.432,3.126,7.652
	c2.413,1.103,5.368-0.375,6.844-2.58c1.476-2.206,1.854-4.94,2.269-7.561c0.414-2.621,0.964-5.361,2.677-7.388
	c2.821-3.335,5.604-0.917,9.078-1.147c3.205-0.212,5.672-1.554,7.653,2.335c1.073,2.106,0.992,4.633,0.412,6.923
	c-0.638,2.522-1.749,5.499-0.05,7.468c0.901,1.043,2.336,1.413,3.678,1.729c2.114,0.496,4.265,0.997,6.431,0.857
	c2.167-0.138,4.391-1.014,5.657-2.778c1.45-2.021,1.377-4.711,1.391-7.198c0.019-3.359,0.465-6.751,3.635-8.376
	c3.588-1.841,7.925-1.814,11.856-1.754c3.524,0.054,7.743,0.518,9.336,3.662c1.774,3.503-1.072,7.765-0.203,11.594
	c0.627,2.766,3.347,4.865,6.182,4.904c2.836,0.039,5.556-1.897,6.58-4.542c0.997-2.576,0.482-5.491,1.106-8.181
	c0.845-3.643,3.942-6.661,7.606-7.41c7.515-1.537,12.818,4.633,12.069,11.645c-0.257,2.395-0.456,5.215,1.36,6.799
	c1.878,1.638,4.999,0.847,6.661-1.01c1.662-1.857,2.233-4.418,2.712-6.863c0.479-2.445,0.975-5.007,2.538-6.947
	c1.823-2.264,4.848-3.291,7.756-3.331c3.178-0.043,7.229,0.369,9.11,3.081c1.078,1.555,2.293,3.382,2.577,5.258
	c0.343,2.26-0.413,4.575,0.345,6.799c1.144,3.353,5.669,4.765,8.827,3.161c3.159-1.604,4.745-5.489,4.285-9.001
	c-0.326-2.495-1.404-5.416,0.321-7.246c0.972-1.031,2.504-1.258,3.915-1.388c2.891-0.269,5.781-0.346,8.684-0.361
	c2.295-0.011,4.66-0.569,6.933-0.46c6.459,0.31,5.283,6.843,3.6,11.057c-0.821,2.055-1.396,4.473-0.319,6.404
	c1.564,2.803,5.481,2.929,8.682,2.693c1.723-0.126,3.446-0.253,5.17-0.38c1.445-0.107,2.982-0.245,4.132-1.127
	c1.565-1.2,1.94-3.423,1.746-5.385c-0.194-1.963-0.829-3.882-0.798-5.854c0.05-3.18,1.992-6.258,4.84-7.673
	c4.193-2.082,12.179,0.302,13.67,5.206c0.588,1.935,0.258,4.012,0.077,6.027c-0.181,2.015-0.163,4.196,0.983,5.862
	c1.315,1.912,3.843,2.667,6.157,2.512c1.729-0.115,3.493-0.704,4.685-1.962c3.813-4.022-0.181-11.79,3.734-15.714
	c2.688-2.694,6.904-1.568,10.184-1.056c3.278,0.512,7.073,1.977,8.146,5.524c0.432,1.429,0.566,2.97,0.683,4.471
	c2.528,32.456,5.193,64.938,5.615,97.506c0.115,8.839,0.064,17.679-0.201,26.514c-0.133,4.426-0.318,8.851-0.563,13.273
	c-0.103,1.875-0.03,3.795-0.45,5.591c-0.486,2.079-1.439,3.908-1.619,6.088c-0.21,2.543,0.43,5.281,2.272,7.048
	c1.87,1.795,4.601,2.299,7.172,2.626c4.143,0.526,8.317,0.801,12.494,0.824c2.98,0.017,6.085-0.126,8.708-1.542
	c4.829-2.605,3.366-6.485,3.651-10.821c0.274-4.157-0.391-8.277-0.721-12.409c-0.313-3.921-1.287-6.681-0.33-10.624
	c0.486-1.998,0.67-4.376-0.764-5.851c-0.594-0.611-1.391-0.975-2.086-1.466c-2.501-1.761-3.519-5.349-2.315-8.161
	c1.14-2.66,3.917-4.332,6.755-4.891c2.839-0.56,5.769-0.18,8.634,0.228c3.494,0.498,6.104,0.448,9.463-0.232
	c3.681-0.745,8.039,0.082,11.78,0.267c5.157,0.255,10.312,0.535,15.466,0.84c4.535,0.268,10.592-0.482,14.835,1.263
	c1.92,0.79,3.609,2.36,4.104,4.375c0.495,2.015-0.479,4.415-2.416,5.159c-1.846,0.709-4.512,0.146-5.369,1.93
	c-0.268,0.557-0.247,1.204-0.221,1.823c0.414,9.915,0.73,19.834,0.851,29.755c0.119,9.684,0.276,19.376-1.506,28.957
	c-0.557,2.995-1.238,6.213,0.027,8.983c1.031,2.258,3.165,3.772,5.161,5.246c6.083,4.491,11.722,9.582,16.807,15.177
	c0.77,0.847,1.572,1.821,1.555,2.965c-0.026,1.797-2.049,2.914-3.841,3.043c-3.003,0.217-5.978-1.204-8.961-0.796
	c-3.896,0.534-6.79,4.157-7.724,7.977c-1.584,6.474,1.737,11.715,1.856,17.98c0.157,8.212,0.296,16.424,0.45,24.636
	c0.306,16.424,0.628,32.846,0.964,49.27c0.268,13.139,0.545,26.277,0.83,39.415c0.081,3.695,0.913,7.374,1.467,11.598
	c3.135,1.149,5.812,2.296,8.589,3.11c4.906,1.439,8.122,4.313,7.351,9.673c-0.786,5.467-4.919,7.049-9.91,6.958
	c-27.969-0.511-55.937-1.31-83.909-1.481c-40.058-0.247-80.119-0.024-120.178-0.033c-25.679-0.006-51.359-0.086-77.038-0.099
	c-39.306-0.02-78.612-0.207-117.917,0.052c-27.214,0.179-54.423,1.049-81.636,1.445c-3.613,0.052-7.241-0.865-10.208-1.248
	c-3.806-6.258-3.977-12.851,2.11-14.066c12.381-2.471,13.015-10.558,13.05-20.172c0.1-27.978,0.412-55.954,0.568-83.932
	C23.78,318.736,23.712,303.667,23.712,286.769z"/>
<g>
	<path style="fill:#4F362F;" d="M44.826,333.01c-14.036,14.266-11.109,37.056-11.328,55.365c-0.126,10.54-0.509,21.271-1.137,31.795
		c-0.234,3.916-3.972,14.116,0.692,16.056c3.125,1.3,8.188,1.426,11.513,1.4c5.192-0.041,10.586-0.366,15.754-0.824
		c3.713-0.329,7.714-0.569,11.407-0.581c1.923-0.007,5.616,0.82,6.711-1.447c0.517-1.068-0.337-2.856-0.599-3.902
		c-0.507-2.017-0.706-3.888-0.944-5.962c-0.611-5.317-0.532-10.692-0.191-16.032c0.731-11.427,0.699-22.995,0.715-34.454
		c0.009-6.474,0.318-12.87-0.235-19.323c-0.413-4.819-0.12-10.461-2.477-14.836c-2.14-3.972-6.568-7.874-10.618-9.793
		C57.667,327.431,51.99,328.524,44.826,333.01z"/>
	<path style="fill:#4F362F;" d="M112.373,329.467c9.676-3.966,21.083,3.858,25.251,12.504c2.828,5.867,2.655,12.417,3.379,18.734
		c0.856,7.458,1.87,15.112,1.837,22.625c-0.053,12.392-0.349,25.336,1.409,37.644c0.518,3.63,3.056,8.589,2.276,12.171
		c-0.745,3.424-5.399,3.356-8.336,3.56c-10.587,0.733-21.61,0.472-32.21,0.461c-4.985-0.006-10.214,0.896-15.068-0.352
		c-3.834-0.985-4.704-1.84-4.753-5.803c-0.111-8.905,1.808-17.865,2.244-26.766c0.381-7.796,0.734-15.605,1.068-23.401
		c0.77-17.97,2.165-38.974,17.944-50.431C109.701,330.594,109.899,330.482,112.373,329.467z"/>
	<path style="fill:#4F362F;" d="M183.464,327.814c-8.223-0.303-17.302,7.315-20.432,14.405c-1.839,4.166-2.993,8.821-4.131,13.228
		c-1.165,4.508-2.652,9.213-2.844,13.883c-0.406,9.883-1.319,19.673-1.414,29.581c-0.083,8.609-0.314,17.525-1.463,26.072
		c-0.311,2.318-1.627,6.81,0.043,8.581c2.94,3.119,10.015,1.332,13.564,1.586c6.946,0.497,13.832-0.086,20.79,0.392
		c5.953,0.409,12.236,0.831,18.196,0.456c0.997-0.062,3.643,0.111,4.276-0.831c0.622-0.926-0.134-1.228-0.31-2.234
		c-0.938-5.371-2.302-11.046-3.9-16.255c-1.477-4.812-0.305-9.102,0.182-14.079c1.151-11.759,1-23.619,0.353-35.403
		c-0.295-5.363-0.99-10.695-1.881-15.988c-0.67-3.975-0.851-9.161-3.005-12.678C197.709,332.361,190.558,328.295,183.464,327.814z"
		/>
	<path style="fill:#4F362F;" d="M467.183,333.01c14.036,14.266,11.109,37.056,11.328,55.365c0.126,10.54,0.509,21.271,1.139,31.795
		c0.234,3.916,3.972,14.116-0.692,16.056c-3.124,1.3-8.188,1.426-11.513,1.4c-5.192-0.041-10.584-0.366-15.754-0.824
		c-3.713-0.329-7.714-0.569-11.407-0.581c-1.923-0.007-5.616,0.82-6.711-1.447c-0.516-1.068,0.337-2.856,0.599-3.902
		c0.507-2.017,0.706-3.888,0.944-5.962c0.611-5.317,0.532-10.692,0.191-16.032c-0.731-11.427-0.699-22.995-0.715-34.454
		c-0.009-6.474-0.318-12.87,0.235-19.323c0.413-4.819,0.12-10.461,2.477-14.836c2.14-3.972,6.568-7.874,10.618-9.793
		C454.342,327.431,460.019,328.524,467.183,333.01z"/>
	<path style="fill:#4F362F;" d="M399.635,329.467c-9.677-3.966-21.083,3.858-25.251,12.504c-2.828,5.867-2.655,12.417-3.379,18.734
		c-0.856,7.458-1.87,15.112-1.837,22.625c0.053,12.392,0.349,25.336-1.409,37.644c-0.518,3.63-3.056,8.589-2.276,12.171
		c0.745,3.424,5.4,3.356,8.336,3.56c10.587,0.733,21.61,0.472,32.21,0.461c4.985-0.006,10.214,0.896,15.068-0.352
		c3.834-0.985,4.704-1.84,4.753-5.803c0.111-8.905-1.808-17.865-2.244-26.766c-0.381-7.796-0.734-15.605-1.068-23.401
		c-0.77-17.97-2.165-38.974-17.944-50.431C402.306,330.594,402.11,330.482,399.635,329.467z"/>
	<path style="fill:#4F362F;" d="M328.544,327.814c8.223-0.303,17.301,7.315,20.432,14.405c1.839,4.166,2.993,8.821,4.131,13.228
		c1.165,4.508,2.652,9.213,2.844,13.883c0.406,9.883,1.319,19.673,1.414,29.581c0.083,8.609,0.314,17.525,1.463,26.072
		c0.311,2.318,1.627,6.81-0.043,8.581c-2.941,3.119-10.015,1.332-13.564,1.586c-6.946,0.497-13.832-0.086-20.79,0.392
		c-5.953,0.409-12.236,0.831-18.196,0.456c-0.997-0.062-3.643,0.111-4.276-0.831c-0.622-0.926,0.134-1.228,0.31-2.234
		c0.938-5.371,2.302-11.046,3.9-16.255c1.477-4.812,0.305-9.102-0.182-14.079c-1.152-11.759-1-23.619-0.353-35.403
		c0.295-5.363,0.989-10.695,1.881-15.988c0.67-3.975,0.851-9.161,3.005-12.678C314.298,332.361,321.451,328.295,328.544,327.814z"/>
	<path style="fill:#4F362F;" d="M53.499,201.176c-2.487,2.14-4.462,2.644-6.093,5.834c-1.732,3.391-2.337,6.842-2.752,10.58
		c-0.217,1.959-0.583,4.513,0.983,5.795c1.529,1.251,4.459,0.764,6.259,0.93c3.209,0.295,6.431-0.1,9.573,0.354
		c1.842,0.266,1.88,0.517,2.648-1.083c2.023-4.213,1.081-12.295,0.093-16.716c-0.375-1.677-1.174-3.695-2.595-4.815
		C58.341,199.476,56.449,201.406,53.499,201.176z"/>
</g>
<path style="fill:#D3A875;" d="M252.385,78.511c-10.942,10.591-21.593,20.218-30.62,32.717
	c-8.75,12.117-19.311,30.503-14.651,46.085c5.234,17.5,24.392,23.553,39.669,29.339c18.814,7.126,39.135,9.575,58.861,13.112
	c16.112,2.89,32.736,5.356,49.001,7.175c8.936,1,20.218,1.182,28.575,5.073c4.205,1.958,10.741,10.018,6.728,14.569
	c-32.807,1.903-65.721,2.107-98.703,1.711c-25.065-0.301-49.937,0.015-74.988,0.906c-23.889,0.85-47.91-0.68-71.806-0.582
	c-6.006,0.024-12.042-0.226-18.044-0.015c-3.006,0.106-6.757,2.132-7.566-1.218c-0.59-2.442,1.215-7.093,1.072-9.912
	c-0.328-6.463-0.445-12.872-0.8-19.324c-0.803-14.6-2.226-28.82-2.226-43.475c0-14.882-1.342-30.593,0.393-45.394
	c1.819-15.514,4.031-30.699,4.909-46.387c5.811-1.199,11.931-2.92,17.955-2.634c-0.066,2.202,0.946,4.678,1.283,6.908
	c0.406,2.687,0.778,6.078,2.061,8.474c2.065,3.853,8.079,2.446,12.411,2.245c0.188-5.516-0.254-12.284,1.085-17.626
	c4.624-0.227,9.797-1.543,14.361-0.314c0.863,2.105,0.914,5.238,1.371,7.567c0.454,2.313-0.377,7.752,1.111,9.626
	c1.403,1.767,4.004,0.993,6.231,1.125c4.281,0.254,9.031,1.16,13.253,0.278c1.137-3.092,0.44-9.123,0.195-12.419
	c-0.082-1.099-1.027-5.209,0.17-6.192c2.336-1.917,11.957,0.583,14.695,0.935c1.739,0.224,6.816-0.114,8.113,1.014
	c4.787,4.159-4.536,16.005,5.408,15.408c7.345-0.44,8.937-0.202,8.98-8.134c0.017-2.981-1.149-6.544,1.557-8.128
	c3.094-1.812,12.956-0.855,16.368,0.226c0.486,3.122,1.519,6.079,1.694,9.319c0.125,2.331,0.601,6.094,1.916,7.916
	C252.403,78.493,252.394,78.502,252.385,78.511z"/>
<g>
	<path style="fill:#4F362F;" d="M242.971,192.135c-2.097-0.632-7.407-0.873-8.695,1.002c-0.883,1.285-0.526,4.851-0.541,6.326
		c-0.03,2.712-0.267,5.476-0.207,8.173c0.052,2.294-0.848,5.095,1.715,5.34c2.278,0.218,4.86-0.317,7.217-0.203
		c1.336,0.065,2.502,0.115,3.823-0.23c1.441-3.849,0.872-8.947,1.016-13.038c0.064-1.819,0.318-5.08-0.452-6.745
		C245.705,190.289,243.137,192.381,242.971,192.135z"/>
	<path style="fill:#4F362F;" d="M273.632,191.938c-2.272-0.066-5.503-0.67-7.424,0.597c-3.415,2.254-2.472,6.224-2.201,9.565
		c0.25,3.081-0.168,7.902,3.091,9.699c2.746,1.514,8.574,1.99,9.674-1.62c1.127-3.698,0.72-8.947,0.61-12.774
		C277.299,194.535,277.62,192.605,273.632,191.938z"/>
	<path style="fill:#4F362F;" d="M455.047,200.587c-9.744-0.077-7.976,14.748-7.661,20.834c0.191,3.68,0.711,3.487,4.294,3.097
		c4.535-0.495,9.203-0.505,13.754-0.767c1.154-4.652,0.967-10.29-0.662-14.829C462.706,203.158,458.839,201.796,455.047,200.587z"/>
</g>
<path style="fill:#844638;" d="M176.937,255.184c-11.994-0.061-23.984-0.285-35.965-0.809c-9.711-0.426-18.705,1.148-28.375,1.034
	c-13.374-0.158-26.748-0.12-40.12,0.195c-12.293,0.291-24.41,1.506-36.805-0.065c-2.025-0.257-4.029-1.217-5.553-0.509
	c-4.855,2.254-7.827,8.246-11.709,11.776c-1.159,1.053-11.964,14.69-11.185,14.761c6.061,0.552,12.062,1.629,18.129,2.321
	c11.788,1.346,23.458,0.4,35.312,0.851c26.408,1.005,52.722,1.217,79.158,0.766c12.406-0.211,24.783,0.977,37.17,0.786
	c18.472-0.286,36.871-1.907,55.375-1.91c24.175-0.003,48.342,0.715,72.513,1.026c22.508,0.289,45.255-1.24,67.713,0.003
	c10.441,0.578,20.819,0.933,31.279,0.871c22.197-0.132,44.38-1.702,66.6-1.892c9.13-0.078,18.241-1.053,27.361-1.447
	c1.805-0.078,8.295,1.343,9.622,0.284c3.03-2.418-6.637-8.837-8.373-10.492c-4.604-4.39-10.052-12.175-15.665-15.037
	c-2.828-1.442-7.08-0.561-10.617-0.561c-36.706,0-73.412-0.185-110.118-0.296c-30.945-0.093-61.628-1.79-92.552-2.116
	C239.066,254.399,208.003,255.342,176.937,255.184z"/>
<path style="fill:#4F362F;" d="M245.788,306.329c-24.897,9.801-22.131,41.025-22.323,62.617c-0.115,12.86,0.591,25.896-0.361,38.71
	c-0.643,8.638-4.553,16.585-5.637,24.998c7.493,2.661,17.187,1.186,25.126,0.85c12.04-0.511,24.268,0.765,36.304,0.826
	c2.083,0.01,12.368,1.317,13.924-0.369c1.935-2.096-0.612-12.789-0.868-15.417c-0.62-6.368-2.374-12.479-2.732-18.937
	c-0.413-7.426,0.133-14.253,0.482-21.668c0.713-15.156,0.948-33.791-4.542-48.129c-2.924-7.636-6.258-16.103-12.201-21.87
	c-3.06-2.971-6.712-4.91-10.919-5.707C255.577,301.009,252.014,303.734,245.788,306.329z"/>
<path style="fill:#844638;" d="M108.996,437.632c-23.102,0-47.134-2.526-70-0.582c-11.065,0.94-40.636-5.403-33.768,13.538
	c16.577-0.124,33.464,0.666,50.201,0.666c23.688,0,47.21-1.643,70.877-1.842c19.589-0.166,39.133,1.619,58.721,1.567
	c8.297-0.023,15.931,1.338,24.091,1.487c9.22,0.168,18.4-1.147,27.614-1.233c11.175-0.104,22.358,0.022,33.534,0.022
	c30.694,0,60.499-2.491,91.149-1.344c32.307,1.208,64.589,3.236,96.923,3.658c11.284,0.146,22.689-0.05,33.908-0.044
	c3.735,0.002,12.404,0.053,14.52-3.391c1.632-2.656-0.059-8.29-2.3-10.085c-4.019-3.218-14.897-1.279-19.84-1.279
	c-28.955,0-57.714-2.27-86.687-2.27c-16.889,0-33.772,0.059-50.617-0.583c-8.464-0.322-16.992-0.63-25.423-0.993
	c-6.257-0.27-11.888,1.021-18.024,1.009c-10.788-0.022-21.563,0.568-32.386,0.568c-28.715,0-57.43-0.203-86.145-0.366
	c-14.595-0.083-29.19-0.156-43.785-0.186C130.548,435.922,119.926,437.632,108.996,437.632z"/>
<path style="fill:#63322A;" d="M108.996,443.86c-23.102,0-47.134-1.542-70-0.355c-11.065,0.574-40.636-3.299-33.768,8.264
	c16.577-0.075,33.464,0.406,50.201,0.406c23.688,0,47.21-1.002,70.877-1.125c19.589-0.101,39.133,0.989,58.721,0.956
	c8.297-0.014,15.931,0.816,24.091,0.908c9.22,0.103,18.4-0.699,27.614-0.753c11.175-0.064,22.358,0.012,33.534,0.012
	c30.694,0,60.499-1.52,91.149-0.821c32.307,0.738,64.589,1.975,96.923,2.233c11.284,0.09,22.689-0.031,33.908-0.027
	c3.735,0.001,12.404,0.033,14.52-2.069c1.632-1.621-0.059-5.061-2.3-6.156c-4.019-1.965-14.897-0.781-19.84-0.781
	c-28.955,0-57.714-1.386-86.687-1.386c-16.889,0-33.772,0.036-50.617-0.356c-8.464-0.198-16.992-0.385-25.423-0.606
	c-6.257-0.165-11.888,0.623-18.024,0.616c-10.788-0.012-21.563,0.346-32.386,0.346c-28.715,0-57.43-0.124-86.145-0.224
	c-14.595-0.05-29.19-0.095-43.785-0.114C130.548,442.817,119.926,443.86,108.996,443.86z"/>
<path style="fill:#844638;" d="M444.444,172.567c-2.516-2.407-21.215-0.669-23.527,3.669c-7.263,13.632,22.1,9.953,26.946,9.953
	c12.523,0,24.982,0.285,37.169,1.648c4.225,0.472,5.18,1.342,7.104-3.073c1.085-2.491,1.307-7.225-1.123-8.819
	c-2.741-1.799-15.958-0.918-19.182-1.137C462.533,174.178,453.095,174.754,444.444,172.567z"/>
<path style="fill:#63322A;" d="M444.444,178.895c-2.516-1.435-21.215-0.4-23.527,2.187c-7.263,8.128,22.1,5.935,26.946,5.935
	c12.523,0,24.982,0.17,37.169,0.983c4.225,0.282,5.18,0.799,7.104-1.832c1.085-1.485,1.307-4.308-1.123-5.258
	c-2.741-1.073-15.958-0.547-19.182-0.678C462.533,179.855,453.095,180.198,444.444,178.895z"/>
<path style="fill:#844638;" d="M66.271,172.098c4.573,0.89,9.324-0.116,13.947,0.86c2.306,0.487,5.425,0.534,7.542,1.489
	c2.561,1.156,4.242,5.272,3.132,7.95c-0.887,2.138-3.872,2.538-5.963,2.82c-7.233,0.976-14.632,0.529-21.904,0.87
	c-9.476,0.443-18.929,0.796-28.418,0.96c-2.944,0.051-5.713-0.177-8.625-0.549c-1.48-0.19-3.622,0.018-4.728-1.238
	c-1.422-1.618-1.534-5.924-0.187-7.469c1.668-1.913,5.495-2.702,7.895-3.091c4.738-0.769,9.751-0.938,14.544-1.371
	c4.609-0.417,11.157-1.845,15.689-0.442C61.846,173.705,63.533,172.55,66.271,172.098z"/>
<path style="fill:#63322A;" d="M66.271,178.911c4.573,0.485,9.324-0.062,13.947,0.469c2.306,0.265,5.425,0.291,7.542,0.811
	c2.561,0.629,4.242,2.871,3.132,4.328c-0.887,1.164-3.872,1.382-5.963,1.536c-7.233,0.531-14.632,0.288-21.904,0.473
	c-9.476,0.241-18.929,0.434-28.418,0.522c-2.944,0.027-5.713-0.096-8.625-0.3c-1.48-0.103-3.622,0.01-4.728-0.674
	c-1.422-0.881-1.534-3.225-0.187-4.067c1.668-1.042,5.495-1.471,7.895-1.682c4.738-0.419,9.751-0.511,14.544-0.747
	c4.609-0.227,11.157-1.004,15.689-0.241C61.846,179.786,63.533,179.157,66.271,178.911z"/>
<g>
	<path style="fill:#D3A875;" d="M271.503,60.864c0.184,3.168-0.833,6.154-0.581,9.327c0.135,1.705,1.408,4.853-0.061,6.293
		c-1.766,1.733-8.955,1.537-11.462,1.729c0.818-4.146,0.128-10.009,1.628-13.914C262.79,59.707,266.121,60.773,271.503,60.864z"/>
	<path style="fill:#D3A875;" d="M306.626,60.864c-0.457,5.512,0.703,11.166-0.05,16.692c-4.11,0.397-8.596,1.632-12.629,2.306
		c2.503-5.071-1.465-10.075-0.452-15.224c0.499-2.541,0.109-2.208,2.77-3.034C300.526,60.279,305.52,61.392,306.626,60.864z"/>
	<path style="fill:#D3A875;" d="M345.69,60.207c2.108,4.1,2.517,11.105,2.561,15.702c0.011,1.179-0.041,4.003-0.882,4.666
		c-1.216,0.959-5.482,0.46-6.916-0.099c0.484-1.413-0.443-2.776-0.68-4.33c-0.446-2.922-0.03-6.283-0.019-9.24
		c0.005-1.472-0.79-5.17,0.025-6.538C340.93,58.436,343.917,59.223,345.69,60.207z"/>
	<path style="fill:#D3A875;" d="M379.173,61.521c1.027,5.914-0.01,11.776,0.286,17.686c-3.75,0.992-7.188,1.528-11.069,1.303
		c-0.27-1.663,0.665-2.744,1.075-4.315c0.729-2.796,0.843-5.771,1.42-8.608c0.486-2.386,1.462-4.745,1.765-7.003
		C375.12,60.43,377.67,60.535,379.173,61.521z"/>
	<path style="fill:#D3A875;" d="M24.645,286.055c-0.025,22.089-2.561,44.185-1.569,66.287c0.675,15.039,0.25,30.178,0.255,45.24
		c0.003,9.68-1.875,19.84-0.163,29.456c0.69,3.873,4.257,8.43,8.506,4.904c2.085-1.73,1.899-6.27,2.089-8.74
		c0.472-6.169-0.275-11.913-0.83-18.055c-1.191-13.156-1.106-26.71-0.336-39.891c0.754-12.912,4.528-25.249,13.529-34.814
		c9.239-9.817,24.696-12.611,37.433-14.443c10.454-1.504,20.686-2.791,31.222-3.501c12.696-0.855,23.636-5.873,35.936-8.791
		c8.195-1.943,16.331-4.411,24.59-6.028c9.066-1.774,18.436-2.182,27.618-3.096c16.394-1.631,33.732-1.644,50.227-1.666
		c7.842-0.01,15.65,0.846,23.482,1.122c7.438,0.262,14.639-0.369,22.068-0.696c10.983-0.484,22.121-0.184,33.103,0.174
		c24.709,0.804,49.173,2.526,73.808,4.374c19.076,1.43,38.275,3.376,57.426,2.954c7.804-0.173,15.653-0.98,23.431-1.378
		c1.149-4.779,3.54-10.019,1.954-15.001c-8.411-0.514-17.376,0.957-25.888,0.939c-19.244-0.043-38.418-0.327-57.622-1.644
		c-17.288-1.185-34.776-0.048-52.102-0.313c-19.193-0.294-38.399-1.278-57.589-0.378c-8.96,0.42-18.046-0.885-27.075-1.042
		c-10.043-0.175-20.089,0.037-30.128,0.349c-16.15,0.499-32.309,0.414-48.47,0.4c-22.992-0.02-46.028,1.412-69.012,1.953
		c-16.222,0.381-32.392,0.303-48.611,0.345C56.627,285.11,41.251,283.656,24.645,286.055z"/>
	<path style="fill:#D3A875;" d="M26.431,193.811c0.469,1.657,1.021,3.266,1.116,4.167c1.031,9.742,0.077,20.281-0.292,30.062
		c-0.174,4.617,0.169,9.214,0.353,13.806c0.114,2.841-0.35,6.075,0.889,8.762c2.634,5.718,9.904,5.433,15.19,5.567
		c22.582,0.572,44.829-1.105,67.465-1.922c18.08-0.653,36.228-0.557,54.31-0.081c13.002,0.343,26.002,0.757,39.005,1.119
		c12.011,0.335,25.395-1.052,37.202,1.044c23.359,4.147,48.4-0.143,72.135,0.667c21.439,0.732,42.776,2.42,64.251,1.764
		c20.945-0.64,41.893-1.494,62.845-1.61c8.518-0.047,17.002-0.657,25.52-0.646c4.235,0.006,8.826,0.511,13.025,0.072
		c3.997-0.418,4.903-2.529,4.108-6.82c-1.013-5.467-3.039-4.839-8.19-4.167c-13.359,1.741-26.858,1.925-40.306,1.469
		c-27.139-0.923-54.335-0.687-81.475-1.459c-27.78-0.79-55.626,1.006-83.365,0c-26.288-0.954-52.536-0.583-78.852-0.583
		c-18.215,0-36.403-1.025-54.608-0.989c-14.859,0.031-29.805-0.51-44.611-1.836c-16.088-1.439-43.425-4.004-48.579-23.312
		c-4.675-17.518,14.601-21.031,27.227-22.201c3.849-0.356,16.126-0.3,11.715-7.376c-1.881-3.018-5.004-2.362-8.295-2.628
		c-5.518-0.446-10.789,0.053-16.335,0.247c-6.466,0.227-12.918-0.359-19.328-0.415c-2.797-0.025-10.516-0.313-12.443,2.142
		C25.383,189.584,25.843,191.735,26.431,193.811z"/>
	<path style="fill:#D3A875;" d="M420.864,228.937c6.814,4.405,15.024-2.464,17.037-9.282c2.225-7.536-2.189-21.319,7.845-23.544
		c10.721-2.377,22.488,3.97,33.215,1.479c5.004-1.161,5.739-5.48,5.536-9.966c-8.936-0.733-18.801,0.434-27.814,0.862
		c-8.077,0.384-15.932-2.317-23.94-1.897c-8.114,0.427-6.421,10.658-6.044,16.725c0.304,4.896,0.848,9.723,1.067,14.631
		c0.083,1.849,0.663,4.488,0.378,6.298C427.581,227.814,424.062,229.361,420.864,228.937z"/>
</g>
<path style="fill:#63322A;" d="M3.994,283.247c8.058-9.797,19.156-18.021,26.206-28.293c11.781,2.701,25.759-0.083,38.042,0.469
	c18.211,0.817,36.674,0.169,55.112,0.014c7.264-0.061,12.96-1.2,19.261,2.257c15.131,8.3,31.553,12.133,48.692,13.789
	c69.117,6.681,139.008-3.211,208.249-0.595c30.071,1.136,60.291-0.555,90.319,1.135c7.162,0.403,14.36,2.211,16.376,10.512
	c-8.84,3.311-21.776,2.362-31.172,1.863c-16.356-0.87-33.241-0.014-49.778-0.014c-34.833,0-69.522-0.568-104.341-0.568
	c-30.032,0-59.72-2.48-89.793-1.165c-41.17,1.802-82.781-2.089-124.062-0.523c-24.124,0.915-47.925,1.156-72.04,0.966
	c-7.232-0.057-14.418,0.327-21.591-0.397C10.484,282.394,6.688,281.478,3.994,283.247z"/>
<path d="M65.631,203.114c-1.958-3.932-6.693-5.131-10.74-4.13c-4.915,1.217-8.05,4.508-9.714,8.593
	c-0.907,1.38-0.952,2.836-1.262,4.756c-0.421,2.612-0.993,5.032-1.069,7.693c-0.152,5.313,2.592,7.08,7.674,7.089
	c3.444,0.006,6.811-0.166,10.206,0.336c1.563,0.232,2.873,0.414,4.255-0.565c3.029-2.149,2.384-6.888,2.168-10.064
	C66.842,212.322,67.722,207.314,65.631,203.114z M62.969,221.396c-0.69,2.257-1.469,1.179-3.311,1.195
	c-1.536,0.014-3.075-0.015-4.613-0.011c-1.58,0.005-4.2,0.481-5.687-0.011c-2.525-0.837-1.996-1.794-1.887-3.61
	c0.184-3.033,0.235-7.899,1.464-10.696c0.127-0.289,0.174-0.574,0.163-0.845c0.619-1.11,1.461-2.108,2.612-2.945
	c3.533-2.57,9.13-3.492,10.852,1.713c0.943,2.85,0.217,6.253,0.275,9.17C62.87,217.166,63.503,219.649,62.969,221.396z"/>
<path d="M245.634,214.466c0.663,0.066,1.424-0.422,1.729-0.991c2.883-5.388,3.501-11.714,2.134-17.628
	c-0.352-1.525-0.216-3.49-1.446-4.643c-1.618-1.515-4.806-1.052-6.755-1.327c-3.133-0.442-8.131,0.047-9.212,3.738
	c-1.27,4.339-0.471,9.856-0.749,14.382c-0.083,1.355-0.153,2.78,0.437,4.004C233.962,216.543,241.93,214.1,245.634,214.466z
	 M236.266,198.505c0.109-1.149,0.188-2.418,0.548-3.521c0.561-1.718-0.447-1.834,2.417-1.599c1.195,0.099,2.353,0.456,3.529,0.658
	c2.309,0.396,2.352,0.212,2.765,2.353c0.918,4.76,0.924,9.497-1.102,13.956c-1.374-0.112-2.715-0.156-4.114,0.015
	c-1.416,0.173-2.663,0.052-3.947-0.128c0.232-1.73,0.195-3.465,0.081-5.259c-0.041-0.631-0.135-1.253-0.255-1.869
	C236.148,201.573,236.119,200.041,236.266,198.505z"/>
<path d="M505.72,434.995c-4.31-1.417-9.816,1.543-11.935-3.364c-2.005-4.638-0.977-10.632-1.075-15.536
	c-0.034-1.719-0.089-3.441-0.138-5.162c0.187-0.411,0.295-0.891,0.293-1.441c-0.028-11.374-0.057-22.748-0.085-34.122
	c-0.014-5.385-0.052-10.769,0.036-16.154c0.085-5.188-0.837-10.093-1.025-15.211c-0.187-5.097,0.356-10.235,0.118-15.34
	c-0.261-5.576-0.774-11.027-0.798-16.633c-0.034-8.044-0.116-16.568-1.611-24.599c2.519-0.212,5.035-0.409,7.556-0.362
	c4.106,0.076,8.163,0.85,12.236,0.224c1.444-0.222,2.871-2.114,2.698-3.544c-0.796-6.6-7.037-10.71-11.293-15.334
	c-3.059-3.325-6.387-6.394-9.667-9.499c-1.555-1.471-3.566-2.814-5.35-4.259c1.755-2.644,1.227-6.469,1.193-9.691
	c-0.07-6.814,0.041-13.631-0.055-20.446c-0.16-11.423,2.517-23.519,0.037-34.857c1.41-0.051,2.931-0.079,4.234-0.484
	c0.184,0.015,0.35,0.052,0.543,0.058c1.072,0.035,1.918-0.764,2.254-1.716c1.25-3.552,2.648-10.341-1.097-12.951
	c-1.69-1.178-3.965-1.101-5.915-1.296c-3.367-0.338-6.695-1.052-10.075-1.292c-4.036-0.286-8.118,0.012-12.161-0.052
	c-3.123-0.049-5.934-0.888-8.988-1.042c-6.411-0.324-12.781-0.608-19.213-0.807c-3.2-0.099-6.17-0.096-9.335,0.351
	c-1.854,0.262-4.03,0.191-5.665,1.187c-3.391,2.069-3.312,7.515-3.287,11.037c0.03,4.315,2.525,6.064,6.675,6.039
	c0.095,0,0.19,0.005,0.285,0.005c-0.184,0.601-0.346,1.241-0.488,1.93c-1.601,7.759-1.082,17.279-0.465,25.133
	c0.325,4.14,2.27,9.078-2.778,10.167c-4.099,0.884-7.767,0.12-11.868-0.02c-3.845-0.133-11.569,1.779-12.966-2.512
	c-1.401-4.308,0.646-9.278,0.669-13.656c0.027-5.441,0.227-10.689,0.644-16.101c0.831-10.799,0.661-22.133,0.1-32.946
	c-0.547-10.551-1.07-20.856-0.999-31.454c0.066-9.686-1.195-19.444-2.116-29.078c-0.922-9.642-3.252-19.563-2.376-29.291
	c0.541-6.01,1.31-11.42-6.112-12.663c-3.753-0.629-7.753-1.097-11.565-1.311c-2.959-0.167-5.419-0.036-6.771,2.919
	c-0.817,1.786-0.283,3.685-0.456,5.557c-0.276,2.961-2.102,5.869-2.184,8.782c-0.053,0.394-0.106,0.789-0.158,1.184
	c-0.279,0.018-0.654,0.07-1.128,0.157c-1.133-0.26-2.39,0.008-3.588,0.092c-0.48-2.486-0.593-5.249-0.989-7.618
	c-0.484-2.894,0.026-5.972-1.907-8.424c-2.892-3.669-13.503-4.738-17.935-3.45c-6.082,1.767-3.855,12.471-3.729,17.044
	c-0.002-0.058,0.134,1.632,0.385,2.743c-0.991-0.12-1.983-0.111-2.975,0.052c-3.658,0.259-7.347,0.103-11.034-0.261
	c-0.216-3.853,0.733-7.313,0.507-11.244c-0.202-3.521-1.371-6.075-5.027-6.962c-5.344-1.295-11.6-0.024-16.979,0.373
	c-3.024,0.224-6.5-0.753-8.092,2.51c-1.001,2.054-0.485,5.033-0.519,7.225c-0.015,0.954,0.669,6.819,0.008,7.536
	c-0.705,0.766-6.046-0.447-7.611-0.821c0.047-0.083,0.082-0.184,0.092-0.324c0.082-1.108-0.135-2.191-0.025-3.322
	c0.166-1.698,0.342-3.395,0.199-5.008c0.04-0.254,0.041-0.521-0.014-0.799c-1.766-9.021-11.934-10.18-19.617-8.537
	c-4.089,0.875-5.669,2.558-6.129,6.634c-0.346,3.074,0.25,16.283-5.872,11.745c-2.564-1.9-0.897-9.165-1.975-12.348
	c-1.385-4.089-4.226-5.146-8.185-5.423c-3.793-0.266-7.771-0.086-11.101,1.896c-0.805,0.361-1.568,0.822-2.252,1.433
	c-3.205,2.857-2.765,6.631-2.399,10.407c0.11,1.131-0.107,2.214-0.025,3.322c0.01,0.14,0.045,0.241,0.092,0.324
	c-1.564,0.373-6.906,1.587-7.611,0.821c-0.661-0.717,0.024-6.583,0.008-7.536c-0.034-2.192,0.482-5.172-0.519-7.225
	c-1.592-3.264-5.067-2.286-8.092-2.51c-5.378-0.397-11.634-1.669-16.979-0.373c-3.655,0.885-4.823,3.441-5.027,6.962
	c-0.226,3.931,0.723,7.391,0.507,11.244c-3.687,0.364-7.376,0.519-11.034,0.261c-0.992-0.163-1.984-0.173-2.975-0.052
	c0.251-1.11,0.387-2.8,0.385-2.743c0.126-4.571,2.352-15.276-3.729-17.044c-4.432-1.288-15.042-0.219-17.935,3.45
	c-1.933,2.452-1.424,5.531-1.907,8.424c-0.396,2.369-0.509,5.131-0.989,7.618c-1.198-0.084-2.455-0.352-3.588-0.092
	c-0.475-0.086-0.849-0.138-1.128-0.157c-0.052-0.394-0.104-0.789-0.158-1.184c-0.082-2.913-1.909-5.82-2.184-8.782
	c-0.174-1.871,0.361-3.77-0.456-5.557c-1.351-2.954-3.812-3.084-6.771-2.919c-3.812,0.215-7.811,0.682-11.565,1.311
	c-7.422,1.244-6.652,6.653-6.112,12.663c0.875,9.728-1.455,19.649-2.376,29.291c-0.921,9.633-2.181,19.391-2.116,29.078
	c0.072,10.598-0.453,20.902-0.999,31.454c-0.561,10.814-0.731,22.147,0.1,32.946c0.417,5.413,0.616,10.659,0.644,16.101
	c0.023,4.378,2.069,9.348,0.669,13.656c-1.396,4.291-9.121,2.379-12.966,2.512c-4.1,0.141-7.769,0.905-11.868,0.02
	c-5.048-1.089-3.102-6.027-2.778-10.167c0.616-7.854,1.134-17.374-0.465-25.133c-0.142-0.689-0.305-1.329-0.488-1.93
	c0.095,0,0.19-0.005,0.285-0.005c4.151,0.025,6.645-1.724,6.675-6.039c0.024-3.522,0.103-8.969-3.287-11.037
	c-1.635-0.998-3.811-0.925-5.665-1.187c-3.165-0.447-6.133-0.448-9.335-0.351c-6.432,0.199-12.8,0.482-19.213,0.807
	c-3.055,0.154-5.865,0.993-8.988,1.042c-4.044,0.065-8.126-0.234-12.161,0.052c-3.379,0.24-6.708,0.954-10.075,1.292
	c-1.95,0.196-4.225,0.118-5.915,1.296c-3.745,2.61-2.346,9.399-1.097,12.951c0.335,0.952,1.182,1.752,2.254,1.716
	c0.192-0.006,0.358-0.043,0.543-0.058c1.303,0.403,2.824,0.431,4.234,0.484c-2.48,11.338,0.196,23.434,0.037,34.857
	c-0.095,6.814,0.016,13.631-0.054,20.446c-0.033,3.222-0.562,7.048,1.193,9.691c-1.786,1.445-3.796,2.788-5.35,4.259
	c-3.281,3.105-6.608,6.174-9.667,9.499c-4.256,4.625-10.498,8.734-11.293,15.334c-0.173,1.431,1.254,3.322,2.698,3.544
	c4.072,0.627,8.13-0.148,12.236-0.224c2.521-0.047,5.036,0.15,7.556,0.362c-1.494,8.031-1.576,16.555-1.61,24.599
	c-0.024,5.607-0.537,11.058-0.798,16.633c-0.24,5.106,0.304,10.244,0.118,15.34c-0.188,5.119-1.11,10.024-1.025,15.211
	c0.089,5.384,0.049,10.768,0.036,16.154c-0.028,11.375-0.057,22.748-0.085,34.122c-0.001,0.549,0.106,1.03,0.293,1.441
	c-0.049,1.721-0.103,3.444-0.138,5.162c-0.098,4.904,0.93,10.897-1.075,15.536c-2.119,4.906-7.625,1.947-11.935,3.364
	c-5.872,1.931-6.139,8.803-5.366,14.082c1.201,8.21,7.28,7.786,13.907,6.902c10.029-1.338,20.333,0.926,30.385-0.26
	c10.309-1.216,20.791,0.044,31.153-0.467c10.41-0.513,20.853-0.126,31.22-1.106c10.099-0.955,20.681-0.009,30.83,0.025
	c11.345,0.039,22.689,0.076,34.034,0.115c11.738,0.04,23.497,0.198,35.231-0.053c4.968-0.107,9.98,0.553,14.947,0.838
	c2.835,0.162,5.073,0.613,7.224,0.003c0.364,0.022,0.729,0.045,1.092,0.075c8.606,0.696,17.33,0.754,25.965,0.846
	c6.542,0.069,13.019-0.359,19.546-0.77c1.77-0.111,3.526-0.195,5.276-0.283c2.284,0.806,4.628,0.301,7.65,0.127
	c4.966-0.285,9.978-0.944,14.946-0.838c11.734,0.251,23.494,0.093,35.231,0.053c11.345-0.037,22.689-0.076,34.034-0.115
	c10.15-0.034,20.732-0.98,30.83-0.025c10.365,0.981,20.809,0.593,31.219,1.106c10.362,0.511,20.844-0.749,31.153,0.467
	c10.051,1.185,20.356-1.078,30.385,0.26c6.627,0.884,12.706,1.308,13.907-6.902C511.86,443.799,511.592,436.926,505.72,434.995z
	 M424.565,178.294c1.133-2.447,3.946-3.182,6.322-3.366c4.125-0.32,8.784-0.235,12.896,0.005c8.391,0.489,16.548,1.651,24.973,1.518
	c5.096-0.079,9.693,0.212,14.741,0.96c2.491,0.369,5.997-0.199,6.73,3.098c0.497,2.233-0.116,3.134-1.175,3.494
	c-1.085,0.369-2.64,0.17-3.954,0.255c-0.745,0.048-1.485,0.148-2.225,0.255c-7.536-0.715-15.19-0.21-22.764-0.53
	c-8.669-0.367-17.099-1.854-25.801-1.841c-1.288,0.002-2.41,0.137-3.401,0.395c-1.167-0.074-2.332-0.111-3.49-0.087
	C424.48,182.508,423.004,181.668,424.565,178.294z M121.457,157.523c0.78-11.578-0.076-23.067,0.394-34.641
	c0.413-10.153,1.521-20.389,2.72-30.47c0.548-4.61,0.923-9.55,0.971-14.204c0.025-2.428-0.061-4.93-0.408-7.334
	c-0.221-1.537-1.597-4.693-0.85-6.104c0.534-1.007,13.471-2.899,14.36-2.001c0.148,0.15-0.258,4.558-0.121,5.441
	c0.432,2.81,1.467,5.534,1.963,8.339c0.394,2.227,0.586,3.814,2.798,4.936c2.556,1.295,8.153,1.337,10.918,0.628
	c6.15-1.578,3.164-12.812,4.507-17.356c0.912-3.084,4.709-2.548,7.564-2.789c0.597-0.05,2.033-0.386,2.69-0.237
	c2.511,0.569,0.723-0.111,1.285,2.085c0.596,2.329,0.178,6.152,0.051,8.567c-0.099,1.89-1.024,3.785-0.767,5.668
	c0.462,3.392,3.15,3.614,5.978,3.77c5.846,0.321,11.328,0.781,17.187,0.249c1.358-0.124,2.99-0.948,3.244-2.47
	c0.605-3.619,0.492-7.902-0.54-11.431c-0.515-1.764-2.447-4.372,0.319-5.724c1.533-0.748,5.428-0.009,7.124-0.005
	c2.838,0.008,5.533,0.487,8.34,0.747c3.222,0.299,3.077-0.741,3.043,2.581c-0.037,3.596-1.371,9.455,0.264,12.809
	c1.336,2.74,4.358,2.517,7.054,2.394c2.673-0.123,7.791,0.18,9.959-1.634c2.148-1.796,1.315-5.222,0.85-7.573
	c-0.144-0.731-0.549-1.631-0.621-2.332c-0.064-0.627,0.1-2.427,0.406-4.026c0.697-1.394,1.976-2.453,3.872-3.157
	c1.249-0.274,2.504-0.337,3.765-0.19c1.283,0.11,4.893,0.4,5.984,1.424c1.36,1.276,1.214,4.712,1.234,6.296
	c0.084,6.718,0.988,11.206,8.768,11.42c8.339,0.229,8.32-6.095,8.627-12.754c0.257-5.553,0.524-6.599,6.434-6.483
	c3.327,0.065,6.866,0.691,9.002,3.264c0.329,1.643,0.509,3.557,0.443,4.207c-0.072,0.7-0.477,1.601-0.621,2.332
	c-0.464,2.351-1.298,5.777,0.85,7.573c2.168,1.814,7.286,1.511,9.959,1.634c2.697,0.123,5.718,0.346,7.054-2.394
	c1.636-3.354,0.302-9.213,0.265-12.809c-0.034-3.323-0.178-2.283,3.043-2.581c2.806-0.26,5.502-0.739,8.34-0.747
	c1.696-0.005,5.593-0.744,7.124,0.005c2.765,1.351,0.834,3.958,0.319,5.724c-1.032,3.529-1.145,7.811-0.54,11.431
	c0.254,1.523,1.887,2.348,3.244,2.47c5.859,0.532,11.34,0.073,17.187-0.249c2.828-0.156,5.516-0.378,5.978-3.77
	c0.257-1.883-0.668-3.777-0.767-5.668c-0.126-2.417-0.544-6.238,0.051-8.567c0.562-2.195-1.226-1.515,1.285-2.085
	c0.657-0.149,2.093,0.186,2.69,0.237c2.855,0.241,6.652-0.295,7.564,2.789c1.344,4.544-1.644,15.778,4.507,17.356
	c2.765,0.709,8.362,0.667,10.918-0.628c2.212-1.122,2.404-2.709,2.798-4.936c0.496-2.804,1.53-5.529,1.963-8.339
	c0.136-0.884-0.269-5.292-0.121-5.441c0.889-0.898,13.828,0.994,14.36,2.001c0.747,1.411-0.629,4.566-0.85,6.104
	c-0.346,2.403-0.433,4.906-0.408,7.334c0.049,4.655,0.422,9.595,0.971,14.204c1.199,10.082,2.308,20.317,2.72,30.47
	c0.471,11.574-0.385,23.063,0.394,34.641c0.756,11.222,0.218,22.843-0.278,34.076c-0.268,6.083-0.793,12.026-0.774,18.144
	c0.012,3.686,0.648,7.367,0.363,11.057c-0.309,4.021-1.076,5.036-4.96,5.048c-8.781,0.028-17.711,1.144-26.462,0.156
	c-8.063-0.912-16.385-0.444-24.465-0.98c-8.174-0.541-16.444,1.553-24.728,0.937c-1.839-0.136-3.695-0.274-5.559-0.397
	c-9.198-1.36-19.035-0.622-28.026-1.108c-11.745-0.635-23.37-1.073-35.149-0.859c-8.274,0.15-16.486,0.519-24.728,1.534
	c-0.252,0.031-0.505,0.053-0.757,0.079c-2.046,0.073-4.091,0.184-6.125,0.314c-4.98,0.048-9.986-0.235-14.919,0.303
	c-5.344-0.409-10.67-1.153-15.955-0.804c-8.08,0.535-16.402,0.068-24.465,0.98c-8.751,0.989-17.682-0.127-26.462-0.156
	c-3.883-0.012-4.65-1.027-4.96-5.048c-0.284-3.69,0.352-7.371,0.363-11.057c0.019-6.117-0.505-12.06-0.774-18.144
	C121.238,180.366,120.701,168.745,121.457,157.523z M95.166,233.547c4.206,0.198,8.573-0.648,12.855-0.648
	c5.029,0,10.057,0.003,15.084,0.007c16.42,0.009,32.69,0.294,49.044-0.011c4.735-0.089,8.983-0.669,13.76-0.153
	c4.894,0.529,9.932,0.554,14.841,0.258c0.257-0.016,0.513-0.04,0.77-0.056c12.907,1.12,26.041,0.309,38.997,0.111
	c11.418-0.174,22.798,0.225,34.201,0.262c6.22,0.02,12.447-0.337,18.666-0.481c3.287-0.076,6.771-0.104,10.204-0.411
	c2.558,0.221,5.116,0.419,7.672,0.574c4.91,0.296,9.948,0.271,14.841-0.258c4.777-0.515,9.024,0.065,13.76,0.153
	c16.355,0.305,32.624,0.02,49.044,0.011c5.028-0.002,10.055-0.007,15.084-0.007c4.281,0,8.649,0.846,12.855,0.648
	c4.713-0.221,11.676-0.431,13.925-5.44c1.456-3.247,0.765-7.119,0.404-10.509c-0.418-3.939-0.36-7.87-0.362-11.827
	c-0.003-4.447-1.3-11.529,0.943-15.5c0.445-0.787,0.535-1.126,0.722-1.277c3.071,0.16,6.136,0.249,9.272-0.187
	c0.103-0.015,0.188-0.044,0.283-0.067c5.41,0.005,10.857,0.381,16.31,0.734c8.075,1.854,16.42,1.214,24.645,0.485
	c-1.014,5.084-1.131,10.472-1.804,15.537c-0.336,2.524-0.015,5.023-0.116,7.553c-0.11,2.76-0.84,5.411-0.958,8.176
	c-0.285,6.684-0.11,13.419-0.131,20.109c-0.008,2.645,0.541,5.937,0.108,8.517c-0.137,0.814-0.345,1.455-0.53,2.063
	c-0.403,0.076-0.849,0.082-1.442,0.235c-3.919,1.009-7.914,1.452-11.95,1.69c-4.705,0.278-9.037-0.09-13.688-0.553
	c-3.744-0.373-7.512,0.322-11.233-0.246c-3.91-0.597-7.631-0.551-11.594-0.647c-3.194-0.077-6.33-0.757-9.511-0.512
	c-4.779,0.368-9.076-0.395-13.828-0.351c-4.014,0.037-7.919,0.918-11.951,0.679c-17.752-1.051-35.777,0.75-53.636,0.691
	c-9.181-0.031-18.365-0.126-27.546-0.091c-4.198,0.016-8.395,0.085-12.586,0.272c-0.689,0.031-1.342,0.09-1.982,0.158
	c-3.973-1.028-8.094-1.109-12.207-1.427c-4.968-0.384-9.919-0.517-14.9-0.396c-10.352,0.25-20.699,0.644-31.052,0.942
	c-10.682,0.308-21.39,0.295-32.072,0.625c-3.18-0.102-6.36-0.163-9.543-0.176c-9.181-0.035-18.365,0.06-27.546,0.091
	c-17.859,0.059-35.884-1.743-53.636-0.691c-4.032,0.238-7.938-0.641-11.951-0.679c-4.752-0.045-9.049,0.719-13.828,0.351
	c-3.181-0.245-6.316,0.435-9.511,0.512c-3.963,0.095-7.684,0.05-11.594,0.647c-3.722,0.568-7.489-0.127-11.234,0.246
	c-4.651,0.463-8.983,0.831-13.688,0.553c-4.036-0.238-8.031-0.682-11.95-1.69c-0.593-0.152-1.039-0.159-1.441-0.235
	c-0.185-0.607-0.393-1.249-0.53-2.063c-0.434-2.58,0.116-5.872,0.108-8.517c-0.02-6.69,0.154-13.425-0.131-20.109
	c-0.118-2.764-0.848-5.416-0.958-8.176c-0.1-2.53,0.22-5.03-0.115-7.553c-0.674-5.065-0.791-10.454-1.804-15.537
	c8.224,0.728,16.57,1.369,24.645-0.485c5.453-0.353,10.9-0.73,16.31-0.734c0.094,0.023,0.179,0.052,0.283,0.067
	c3.136,0.436,6.201,0.347,9.272,0.187c0.187,0.15,0.277,0.49,0.722,1.277c2.243,3.971,0.947,11.053,0.943,15.5
	c-0.002,3.957,0.056,7.888-0.362,11.827c-0.36,3.391-1.052,7.263,0.404,10.509C83.49,233.117,90.454,233.325,95.166,233.547z
	 M22.957,184.003c-1.059-0.36-1.672-1.261-1.175-3.494c0.733-3.297,4.24-2.729,6.73-3.098c5.048-0.748,9.646-1.04,14.741-0.96
	c8.425,0.133,16.582-1.028,24.973-1.518c4.112-0.24,8.772-0.325,12.896-0.005c2.376,0.184,5.189,0.918,6.322,3.366
	c1.561,3.374,0.085,4.214-2.852,4.155c-1.159-0.024-2.323,0.015-3.49,0.087c-0.992-0.259-2.113-0.394-3.401-0.395
	c-8.702-0.012-17.132,1.475-25.801,1.841c-7.574,0.32-15.227-0.185-22.764,0.53c-0.74-0.108-1.48-0.208-2.224-0.255
	C25.598,184.173,24.043,184.372,22.957,184.003z M18.036,280.691c-2.825-0.196-5.68,0.133-8.501,0.104
	c1.117-1.183,2.421-2.25,3.466-3.396c2.777-3.051,5.347-6.28,8.164-9.301c2.635-2.827,6.898-6.387,9.206-10.28
	c0.275,0.099,0.547,0.199,0.851,0.277c7.515,1.934,16.744,3.173,24.516,2.552c8.153-0.652,16.582-1.324,24.761-1.32
	c4.341,0.001,8.524-0.396,12.832-0.049c4.212,0.341,8.162-0.741,12.368-0.686c4.742,0.062,9.128,0.964,13.906,0.564
	c4.735-0.397,8.843-0.085,13.56,0.24c9.822,0.677,19.759,0.888,29.601,0.919c8.253,0.027,16.504,0.055,24.757,0.082
	c5.542,1.083,11.943,0.418,16.905,0.468c11.273,0.114,22.553-0.146,33.826-0.17c10.368-0.023,20.804-0.506,31.154-1.059
	c5.341-0.285,10.704-0.688,16.059-0.622c1.039,0.012,2.099,0.032,3.166,0.044c0.451,0.517,1.066,0.893,1.805,0.96
	c4.63,0.421,9.638,0.188,14.34,0.317c4.912,0.134,9.831,0.095,14.744,0.079c9.907-0.033,19.813-0.066,29.721-0.099
	c9.842-0.032,19.779-0.243,29.601-0.919c4.717-0.325,8.825-0.637,13.56-0.24c4.778,0.401,9.164-0.501,13.906-0.564
	c4.205-0.056,8.155,1.026,12.368,0.686c4.308-0.349,8.49,0.05,12.832,0.049c8.179-0.003,16.608,0.669,24.761,1.32
	c7.773,0.621,17.003-0.618,24.516-2.552c0.304-0.078,0.578-0.178,0.851-0.277c2.308,3.894,6.572,7.455,9.206,10.28
	c2.818,3.022,5.388,6.25,8.164,9.301c1.043,1.147,2.349,2.214,3.466,3.396c-2.821,0.03-5.676-0.3-8.501-0.104
	c-4.763,0.33-9.339,0.986-14.145,0.966c-10.923-0.048-21.85-0.286-32.771-0.524c-11.152-0.244-22.301-0.338-33.454-0.434
	c-10.441-0.089-21.129,0.463-31.499-0.629c-4.92-0.518-9.876,0.025-14.797-0.397c-3.601-0.309-6.811,0.184-10.419,0.149
	c-10.814-0.107-21.64-0.049-32.453,0.087c-8.626,0.109-17.25,0.302-25.875,0.45c-14.779-3.189-30.457-2.13-45.464-2.055
	c-9.397,0.048-18.728,0.074-28.093,0.806c-4.322,0.338-8.625,0.786-12.932,1.215c-0.02,0.002-0.042,0.007-0.062,0.009
	c-8.145-0.144-16.289-0.321-24.435-0.425c-10.813-0.136-21.639-0.194-32.452-0.087c-3.608,0.036-6.818-0.457-10.419-0.149
	c-4.921,0.422-9.877-0.12-14.797,0.397c-10.37,1.092-21.058,0.54-31.499,0.629c-11.153,0.095-22.302,0.19-33.454,0.434
	c-10.92,0.238-21.848,0.477-32.771,0.524C27.376,281.678,22.8,281.021,18.036,280.691z M486.247,426.633
	c-0.022,0.706-0.064,3.173-0.4,4.727c-0.377-0.377-2.056,0.115-2.795-0.386c-1.207-0.818-0.998-1.485-1.329-2.961
	c-0.628-2.793-0.842-5.919-0.875-8.76c-0.124-10.557-1.083-21.668-0.22-32.174c0.821-10.01,1.039-19.617-0.221-29.647
	c-0.992-7.888-2.206-16.476-7.312-22.897c-5.325-6.698-13.983-10.447-22.59-8.6c-7.339,1.576-13.906,6.472-16.927,13.421
	c-2.031,4.672-1.377,9.996-1.28,14.957c0.101,5.247-0.982,10.18-1.252,15.374c-0.49,9.433,1.208,18.716,1.084,28.081
	c-0.132,9.875,1.723,19.32-0.053,29.105c-0.296,1.628-1.048,3.612-2.701,3.705c-1.001,0.057-1.906-0.698-2.34-1.602
	c-0.434-0.905-0.495-1.935-0.548-2.937c0-10.444-1.34-20.927-1.688-31.366c-0.154-4.607,0.986-9.161,0.868-13.864
	c-0.133-5.317-0.83-10.601-1.428-15.88c-0.965-8.508-3.131-15.823-6.667-23.556c-2.981-6.522-8.991-13.293-16.133-15.2
	c-6.046-1.613-14.217-1.628-19.345,2.361c-5.66,4.402-10.399,10.398-12.568,17.327c-2.805,8.962-2.069,18.146-3.274,27.253
	c-1.203,9.1-0.695,18.307-1.799,27.402c-0.656,5.402-0.422,10.671-0.388,16.097c0.012,2.091-0.041,4.182-0.043,6.273
	c0,0.683,0.139,1.859,0.186,3.022c-0.127,0.426-0.25,0.85-0.35,1.267c-0.345,1.447-0.504,4.254-2.298,2.507
	c-1.06-1.033-0.468-3.686-0.671-5.203c-0.316-2.346-0.724-4.288-0.66-6.678c0.308-11.32-1.184-22.519-1.139-33.785
	c0.017-4.104-0.716-8.01-0.864-12.073c-0.142-3.907,0.328-7.672-0.218-11.586c-1.068-7.666-3.184-15.966-6.967-22.78
	c-3.469-6.247-9.753-9.923-16.486-11.724c-6.371-1.705-15.267-2.111-20.154,3.031c-5.54,5.83-8.521,11.187-10.021,19.185
	c-1.773,9.454-1.535,18.692-1.537,28.291c-0.003,10.008,1.232,21.018-0.62,30.869c-0.832,4.428-1.845,9.026-2.335,13.497
	c-0.317,2.888,0.209,7.44-2.545,8.851c-2.08-1.128-2.467-5.339-2.46-7.466c0.01-2.761-0.53-5.323-0.966-8.025
	c-1.081-6.707-1.127-13.378-1.091-20.169c0.074-13.616,1.561-27.905,0.274-41.45c-1.06-11.146-1.668-23.789-8.274-33.312
	c-3.537-5.1-8.768-12.498-15.077-16.108c-0.292-0.274-0.577-0.521-0.849-0.734c-2.798-2.199-6.585-3.27-11.396-3.158
	c-3.257,0.076-6.326,0.717-9.256,1.832c-8.993,0.994-16.466,11.529-21.072,18.169c-6.606,9.523-7.213,22.167-8.274,33.312
	c-1.287,13.544,0.199,27.833,0.274,41.45c0.037,6.791-0.01,13.462-1.091,20.169c-0.435,2.702-0.975,5.265-0.966,8.025
	c0.007,2.127-0.38,6.338-2.46,7.466c-2.753-1.411-2.227-5.963-2.545-8.851c-0.49-4.473-1.503-9.07-2.335-13.497
	c-1.85-9.852-0.616-20.862-0.62-30.869c-0.002-9.599,0.235-18.837-1.538-28.291c-1.5-7.997-4.481-13.354-10.021-19.185
	c-4.887-5.142-13.783-4.736-20.154-3.031c-6.733,1.802-13.018,5.477-16.486,11.724c-3.784,6.812-5.898,15.114-6.967,22.78
	c-0.546,3.914-0.076,7.678-0.218,11.586c-0.148,4.063-0.881,7.969-0.864,12.073c0.045,11.267-1.446,22.465-1.139,33.785
	c0.065,2.392-0.343,4.332-0.66,6.678c-0.203,1.515,0.389,4.17-0.671,5.203c-1.794,1.747-1.953-1.06-2.298-2.507
	c-0.1-0.418-0.221-0.841-0.35-1.267c0.048-1.161,0.186-2.338,0.186-3.022c-0.002-2.091-0.056-4.182-0.043-6.273
	c0.034-5.426,0.268-10.696-0.388-16.097c-1.105-9.095-0.596-18.302-1.799-27.402c-1.204-9.109-0.469-18.292-3.274-27.253
	c-2.169-6.929-6.909-12.925-12.568-17.327c-5.128-3.989-13.299-3.975-19.345-2.361c-7.143,1.907-13.152,8.678-16.133,15.2
	c-3.536,7.732-5.702,15.048-6.667,23.556c-0.598,5.279-1.295,10.563-1.428,15.88c-0.118,4.703,1.023,9.257,0.868,13.864
	c-0.348,10.439-1.688,20.922-1.688,31.366c-0.053,1.001-0.116,2.032-0.548,2.937c-0.434,0.905-1.338,1.66-2.34,1.602
	c-1.653-0.094-2.404-2.077-2.701-3.705c-1.777-9.785,0.077-19.23-0.053-29.105c-0.125-9.364,1.574-18.648,1.084-28.081
	c-0.269-5.193-1.353-10.126-1.252-15.374c0.095-4.961,0.75-10.285-1.28-14.957c-3.022-6.95-9.588-11.844-16.927-13.421
	c-8.607-1.848-17.265,1.903-22.59,8.6c-5.106,6.421-6.321,15.008-7.312,22.897c-1.26,10.03-1.041,19.637-0.221,29.647
	c0.862,10.506-0.096,21.617-0.22,32.174c-0.033,2.841-0.247,5.968-0.875,8.76c-0.333,1.477-0.123,2.142-1.329,2.961
	c-0.738,0.501-2.418,0.008-2.795,0.386c-0.336-1.554-0.378-4.021-0.4-4.727c-0.084-2.812,0.059-5.648,0.026-8.463
	c-0.028-2.42-0.074-4.847-0.137-7.275c0.177-0.403,0.279-0.868,0.278-1.401c-0.028-11.374-0.057-22.748-0.085-34.122
	c-0.014-5.385,0-10.769-0.116-16.154c-0.11-5.172,0.822-10.094,0.95-15.211c0.127-5.102-0.403-10.231-0.193-15.34
	c0.229-5.591,0.787-11.003,0.715-16.633c-0.101-8.055,1.008-16.277-0.103-24.253c0.983,0.057,1.966,0.102,2.953,0.109
	c11.641,0.081,23.262-0.028,34.904,0.226c22.201,0.486,44.891,1.657,66.985-0.261c8.955-0.776,18.005,0.045,26.956,0.057
	c11.053,0.014,22.105,0.034,33.159-0.142c11.322-0.18,22.641-0.462,33.965-0.579c4.73-0.049,13.173,1.655,18.016-0.951
	c2.656-0.027,5.316-0.04,7.985-0.027c5.247,0.023,10.513-0.05,15.773-0.078c4.811,2.755,13.409,1.008,18.2,1.057
	c11.325,0.118,22.642,0.398,33.965,0.579c11.053,0.176,22.105,0.156,33.159,0.142c8.95-0.01,18.001-0.833,26.956-0.057
	c22.094,1.917,44.784,0.746,66.985,0.261c11.642-0.254,23.263-0.146,34.905-0.226c0.986-0.007,1.97-0.051,2.953-0.109
	c-1.111,7.976-0.002,16.198-0.103,24.253c-0.072,5.629,0.486,11.042,0.715,16.633c0.21,5.108-0.32,10.238-0.193,15.34
	c0.128,5.116,1.06,10.04,0.95,15.211c-0.115,5.384-0.101,10.768-0.116,16.154c-0.028,11.375-0.057,22.748-0.085,34.122
	c-0.001,0.532,0.101,0.999,0.278,1.401c-0.064,2.428-0.108,4.856-0.137,7.275C486.188,420.985,486.331,423.822,486.247,426.633z
	 M438.196,425.77c0.621-8.916-0.436-18.304-0.322-27.05c0.138-10.691-2.126-21.531-0.706-32.215
	c0.731-5.494,0.756-10.659,0.578-16.209c-0.182-5.688,0.297-10.742,4.844-14.8c9.504-8.483,23.431-3.298,28.117,7.437
	c7.85,17.981,4.819,39.225,4.777,58.256c-0.022,9.901-0.875,20.203,0.644,30.01c0.182,1.174,0.657,2.242,1.321,3.184
	c-9.839-0.043-19.773,0.358-29.596-0.101c-3.552-0.166-7.086-0.359-10.618-0.543C438.463,431.498,438.542,428.616,438.196,425.77z
	 M371.231,422.017c-0.052-5.72-0.636-11.508-0.363-17.222c0.531-11.133,1.143-22.255,2.252-33.333
	c0.882-8.815-0.527-18.379,3.812-26.579c4.081-7.716,9.952-13.841,19.207-13.04c10.38,0.899,15.847,11.16,19.014,20.022
	c3.199,8.949,3.199,18.94,3.978,28.26c0.22,2.637,0.927,4.708,0.683,7.421c-0.156,1.729-0.457,3.401-0.535,5.148
	c-0.188,4.268,0.548,8.208,0.702,12.404c0.314,8.678-0.408,17.494,1.006,26.063c0.118,0.717,0.224,1.396,0.36,2.03
	c-0.633-0.006-1.262-0.031-1.897-0.031c-10.334-0.001-20.668,0.079-31.002-0.01c-5.008-0.043-9.801-0.602-14.762-0.933
	c-1.232-0.083-2.455-0.037-3.676,0.052C371.933,429.101,371.266,425.827,371.231,422.017z M309.821,389.549
	c-0.003-10.839-0.728-21.936-0.015-32.747c0.35-5.294,1.226-11.722,3.627-16.495c1.874-3.726,5.82-8.283,9.937-9.059
	c10.665-2.006,20.866,4.318,24.426,14.106c1.59,4.373,3.095,8.507,3.941,13.107c0.902,4.904,0.467,9.488,0.811,14.388
	c0.66,9.375,1.592,18.91,1.574,28.316c-0.01,5.846-0.276,11.703-0.422,17.545c-0.087,3.461,0.586,6.75,0.652,10.19
	c0.024,1.283,0.289,2.48,0.739,3.543c-7.032-0.473-14.124-1.099-21.146-1.147c-4.97-0.034-9.951,1.023-14.917,0.627
	c-4.297-0.342-8.172-0.863-12.515-0.713c-0.415,0.014-0.828,0.016-1.238,0.015c1.059-2.875,1.201-6.708,1.791-10.565
	c0.759-4.973,1.905-9.946,2.555-14.925C310.307,400.47,309.822,394.848,309.821,389.549z M225.55,380.357
	c0.089-14.224,0.422-28.154,2.424-42.228c1.224-8.606,5.327-18.086,11.779-24.728c5.554-2.575,10.422-6.261,16.983-6.691
	c3.038-0.2,6.063,0.509,8.919,1.462c10.275,5.921,16.782,18.7,18.382,29.956c2,14.074,2.335,28.004,2.424,42.228
	c0.048,7.566-0.077,15.149,0.048,22.713c0.101,6.156,2.223,12.108,2.506,18.226c0.148,3.18-0.252,6.997,1.253,9.875
	c-0.511,0.053-1.019,0.095-1.525,0.103c-1.741,0.026-3.09-0.045-4.535,0.212c-3.626-0.243-7.303-0.229-11.159-0.345
	c-7.686-0.23-15.323-0.487-23.038-0.375c-7.357,0.108-14.672,0.451-22.021,0.751c-1.517-0.301-2.905-0.218-4.721-0.245
	c-0.505-0.008-1.015-0.05-1.525-0.103c1.505-2.877,1.106-6.695,1.253-9.875c0.285-6.119,2.405-12.07,2.506-18.226
	C225.627,395.506,225.502,387.923,225.55,380.357z M157.886,401.165c-0.017-9.406,0.916-18.942,1.574-28.316
	c0.344-4.901-0.092-9.484,0.811-14.388c0.847-4.6,2.351-8.734,3.941-13.107c3.56-9.788,13.761-16.11,24.426-14.106
	c4.116,0.774,8.062,5.332,9.936,9.059c2.402,4.773,3.278,11.201,3.627,16.495c0.713,10.81-0.011,21.908-0.015,32.746
	c-0.001,5.299-0.487,10.922,0.201,16.187c0.65,4.979,1.796,9.952,2.555,14.925c0.59,3.858,0.732,7.691,1.791,10.565
	c-0.411,0.001-0.823-0.001-1.238-0.015c-4.343-0.15-8.219,0.371-12.515,0.713c-4.968,0.395-9.949-0.661-14.917-0.627
	c-7.022,0.048-14.114,0.673-21.146,1.147c0.45-1.061,0.714-2.26,0.739-3.543c0.066-3.441,0.738-6.729,0.652-10.19
	C158.162,412.868,157.896,407.011,157.886,401.165z M92.029,405.101c0.152-4.196,0.889-8.136,0.702-12.404
	c-0.077-1.748-0.379-3.419-0.535-5.148c-0.244-2.713,0.463-4.784,0.683-7.421c0.779-9.321,0.779-19.313,3.978-28.26
	c3.168-8.862,8.634-19.123,19.014-20.022c9.255-0.801,15.126,5.324,19.207,13.04c4.339,8.201,2.93,17.764,3.812,26.579
	c1.109,11.078,1.721,22.201,2.252,33.333c0.272,5.713-0.311,11.502-0.363,17.222c-0.035,3.809-0.703,7.082,1.221,10.254
	c-1.22-0.09-2.444-0.134-3.676-0.052c-4.962,0.331-9.753,0.89-14.762,0.933c-10.334,0.09-20.668,0.009-31.003,0.01
	c-0.635,0-1.263,0.024-1.897,0.031c0.137-0.633,0.242-1.312,0.36-2.03C92.436,422.595,91.714,413.778,92.029,405.101z
	 M73.812,425.77c-0.346,2.845-0.268,5.727,0.961,7.97c-3.533,0.183-7.066,0.377-10.618,0.543
	c-9.823,0.459-19.758,0.058-29.596,0.101c0.665-0.942,1.14-2.01,1.321-3.184c1.519-9.807,0.666-20.11,0.644-30.01
	c-0.042-19.031-3.073-40.275,4.777-58.256c4.686-10.734,18.614-15.921,28.117-7.437c4.545,4.058,5.025,9.112,4.844,14.8
	c-0.178,5.55-0.153,10.714,0.578,16.209c1.42,10.683-0.843,21.524-0.706,32.215C74.249,407.468,73.191,416.854,73.812,425.77z
	 M504.593,446.73c-0.698,3.772-3.041,3.354-6.184,2.908c-2.061-0.293-4.112-0.304-6.191-0.311
	c-5.558-0.018-11.118,0.163-16.677,0.192c-5.277,0.026-10.404-0.893-15.66-1.001c-5.648-0.116-11.298-0.076-16.946-0.144
	c-5.473-0.065-10.892-0.658-16.356-0.855c-5.642-0.203-11.328,0.219-16.96-0.176c-22.498-1.577-45.278-0.825-67.863-0.901
	c-11.567-0.039-23.144,0.132-34.71-0.016c-4.65-0.059-9.062,0.417-13.664,0.69c-12.084-1.778-25.576,0.708-37.37,0.835
	c-8.834,0.095-17.729,0.128-26.551-0.352c-2.13-0.116-4.271-0.137-6.396-0.041c-1.29-0.177-2.577-0.334-3.848-0.404
	c-4.818-0.266-9.403-0.791-14.251-0.729c-11.566,0.148-23.143-0.023-34.71,0.016c-22.586,0.076-45.365-0.675-67.863,0.901
	c-5.632,0.395-11.319-0.028-16.96,0.176c-5.464,0.196-10.883,0.79-16.356,0.855c-5.649,0.067-11.3,0.028-16.946,0.144
	c-5.256,0.108-10.382,1.027-15.66,1.001c-5.559-0.028-11.119-0.21-16.677-0.192c-2.081,0.007-4.13,0.018-6.191,0.311
	c-3.143,0.447-5.486,0.865-6.184-2.908c-1.137-6.148,3.494-6.148,8.156-6.387c0.989-0.05,1.932-0.132,2.857-0.228
	c3.731,0.61,7.59,0.41,11.359,0.452c10.723,0.12,21.454,0.162,32.178,0.133c9.461-0.026,18.895-0.443,28.381-0.373
	c11.073,0.081,22.144,0.279,33.216,0.24c5.031-0.018,9.788-0.453,14.762-0.858c4.219-0.344,8.287,0.882,12.412,0.647
	c9.689-0.553,19.801-1.54,29.541-1.131c5.223,0.219,10.236,1.034,15.461,0.355c4.182-0.543,8.123-0.431,12.333-0.329
	c3.457,0.084,6.828-0.467,10.168-0.149c1.963,0.186,3.967,0.06,5.926-0.318c0.492,0.016,0.982,0.031,1.459,0.049
	c8.155,0.32,16.235,0.162,24.387,0.281c12.049,0.176,24.042,0.597,35.928-0.776c2.547,0.721,5.226,1.011,7.833,0.764
	c3.34-0.318,6.711,0.234,10.168,0.149c4.21-0.102,8.151-0.213,12.333,0.329c5.226,0.679,10.239-0.136,15.461-0.355
	c9.74-0.41,19.852,0.577,29.541,1.131c4.124,0.235,8.191-0.991,12.412-0.647c4.974,0.405,9.731,0.84,14.762,0.858
	c11.073,0.04,22.144-0.159,33.216-0.24c9.486-0.069,18.919,0.347,28.381,0.373c10.723,0.03,21.455-0.012,32.178-0.133
	c3.77-0.042,7.628,0.158,11.359-0.452c0.925,0.096,1.868,0.178,2.857,0.228C501.1,440.581,505.73,440.581,504.593,446.73z"/>
<path d="M447.028,226.888c1.382,0.98,2.691,0.797,4.255,0.565c3.395-0.503,6.762-0.33,10.206-0.336
	c5.082-0.009,7.826-1.778,7.674-7.089c-0.076-2.662-0.648-5.081-1.069-7.693c-0.31-1.921-0.356-3.376-1.262-4.756
	c-1.664-4.087-4.798-7.378-9.714-8.593c-4.047-1.001-8.783,0.198-10.74,4.13c-2.09,4.199-1.21,9.209-1.517,13.71
	C444.645,220.001,443.999,224.74,447.028,226.888z M449.448,206.188c1.722-5.205,7.318-4.283,10.852-1.713
	c1.151,0.837,1.992,1.834,2.612,2.945c-0.01,0.27,0.035,0.555,0.163,0.845c1.229,2.798,1.28,7.662,1.464,10.696
	c0.11,1.816,0.638,2.773-1.887,3.61c-1.487,0.493-4.108,0.015-5.687,0.011c-1.538-0.003-3.077,0.024-4.613,0.011
	c-1.844-0.016-2.621,1.061-3.311-1.195c-0.535-1.747,0.098-4.231,0.134-6.038C449.231,212.44,448.504,209.038,449.448,206.188z"/>
<path d="M266.374,214.466c3.704-0.366,11.672,2.077,13.862-2.466c0.59-1.224,0.52-2.648,0.437-4.004
	c-0.277-4.526,0.522-10.043-0.749-14.382c-1.081-3.692-6.079-4.18-9.212-3.738c-1.948,0.275-5.138-0.188-6.755,1.327
	c-1.231,1.153-1.094,3.118-1.446,4.643c-1.367,5.914-0.748,12.241,2.134,17.628C264.95,214.043,265.711,214.531,266.374,214.466z
	 M266.482,196.395c0.413-2.141,0.456-1.957,2.765-2.353c1.176-0.202,2.334-0.56,3.529-0.658c2.864-0.236,1.857-0.119,2.417,1.599
	c0.36,1.103,0.439,2.373,0.548,3.521c0.146,1.537,0.118,3.07,0.079,4.605c-0.12,0.615-0.215,1.237-0.255,1.868
	c-0.116,1.795-0.151,3.529,0.081,5.259c-1.284,0.18-2.531,0.301-3.947,0.128c-1.399-0.17-2.74-0.127-4.115-0.015
	C265.558,205.89,265.563,201.153,266.482,196.395z"/>
<g>
</g>
<g>
</g>
<g>
</g>
<g>
</g>
<g>
</g>
<g>
</g>
<g>
</g>
<g>
</g>
<g>
</g>
<g>
</g>
<g>
</g>
<g>
</g>
<g>
</g>
<g>
</g>
<g>
</g>
</svg>
