<?xml version="1.0" encoding="iso-8859-1"?>
<!-- Generator: Adobe Illustrator 19.0.0, SVG Export Plug-In . SVG Version: 6.00 Build 0)  -->
<svg version="1.1" id="Layer_1" xmlns="http://www.w3.org/2000/svg" xmlns:xlink="http://www.w3.org/1999/xlink" x="0px" y="0px"
	 viewBox="0 0 511.998 511.998" style="enable-background:new 0 0 511.998 511.998;" xml:space="preserve">
<path style="fill:#C1A076;" d="M504.632,471.366c-3.145,1.024-5.28,2.304-7.433,2.337c-73.689,1.155-147.376,2.77-221.07,3.098
	c-21.301,0.096-42.603,0.101-63.904,0.024c-34.885-0.126-69.771-0.477-104.651-1.029c-17.409-0.276-34.819-0.602-52.227-0.976
	c-8.694-0.188-17.386-0.386-26.08-0.597c-3.614-0.087-5.687-0.218-8.723,1.517c-2.722,1.557-5.985,1.543-8.456-0.613
	c-2.477-2.16-3.48-5.587-3.666-8.868c-0.186-3.281,0.322-6.564,0.289-9.85c-0.031-3.286-0.687-6.741-2.837-9.227
	c-1.251-1.447-3.051-2.685-3.268-4.585c-0.256-2.23,1.773-3.951,3.247-5.644c3.559-4.086,3.958-10.373,4.243-15.565
	c0.387-7.073,0.223-14.169-0.04-21.244c-0.456-12.317-1.444-24.587,1.272-37.654c-0.07,0.336,4.676-1.327,4.83-1.385
	c1.874-0.712,3.803-1.299,5.818-1.401c3.106-0.156,6.481,1.057,8.028,3.754c1.325,2.311,1.077,5.202,0.379,7.772
	c-0.669,2.464-1.531,5.569,0.437,7.196c0.832,0.689,1.959,0.868,3.028,1.023c3.667,0.531,7.877,0.908,10.619-1.585
	c2.12-1.927,2.675-5.013,2.884-7.871c0.209-2.858,0.228-5.867,1.65-8.355c1.524-2.667,3.62-2.752,6.265-2.993
	c2.652-0.242,5.095-1.127,7.859-0.889c2.242,0.193,5.296,0.722,7.224,2.016c4.123,2.765,3.034,10.664,3.36,14.939
	c0.144,1.888,0.304,3.835,1.172,5.517c0.868,1.683,2.635,3.052,4.519,2.854c1.785-0.188,3.174-1.701,3.907-3.341
	c1.595-3.562,0.837-7.667,0.853-11.571c0.016-3.902,1.396-8.454,5.1-9.685c2.898-0.964,6.209,0.675,7.877,3.233
	c1.667,2.558,1.952,5.799,1.606,8.833c-0.285,2.504-0.848,5.404,0.868,7.249c1.401,1.504,3.929,1.556,5.664,0.454
	c1.735-1.101,2.737-3.104,3.091-5.128c1.086-6.208,1.149-12.867,1.377-19.192c0.269-7.434,0.447-14.873,0.408-22.313
	c-0.036-6.843-2.06-13.661-2.313-20.522c-0.428-11.597-1.3-22.23-8.189-32.917c-7.198-11.165-5.925-25.403-4.3-38.579
	c0.932-7.551,5.682-12.411,13.113-14.72c12.575-3.907,25.06-8.099,37.617-12.062c5.171-1.631,10.537-2.683,15.631-4.509
	c16.086-5.763,25.794-16.812,26.876-34.286c0.526-8.508,1.117-17.143,0.214-25.564c-0.209-1.946-1.269-3.099-1.205-5.245
	c0.048-1.605,0.564-3.465-0.646-4.802c-0.957-1.057-2.546-1.147-3.958-1.34c-1.412-0.195-3.039-0.792-3.373-2.178
	c-0.213-0.884,0.195-1.796,0.662-2.576c1.489-2.485,3.737-4.497,6.341-5.758c2.46-1.192,4.987-0.89,7.47-1.941
	c4.639-1.965,7.469-5.619,8.647-10.486c2.054-8.489,9.231-12.036,17.492-12.977c4.515-0.515,9.055-0.756,13.586-1.082
	c2.555-0.184,4.952-1.223,7.419-1.491c2.816-0.306,6.172,0.626,9.015,0.821c8.801,0.606,17.465-0.5,26.156,0.221
	c5.074,0.422,10.149,0.847,15.22,1.31c6.242,0.569,13.186,2.739,16.914,8.267c1.824,2.703,2.548,6.127,1.975,9.337
	c-0.351,1.966-1.048,4.328,0.4,5.701c1.834,1.741,5.171,0.254,7.419,1.035c1.803,0.626,3.274,1.564,5.211,1.994
	c3.521,0.781,7.584,1.361,7.225,5.945c-0.138,1.743-0.713,3.451-1.66,4.921c-0.308,0.478-0.673,0.947-1.186,1.191
	c-0.513,0.245-1.203,0.197-1.559-0.245c-0.227-0.282-0.296-0.683-0.579-0.909c-0.404-0.324-1.05-0.092-1.34,0.337
	c-0.289,0.429-0.319,0.976-0.334,1.494c-0.142,4.656,0.971,9.167,0.812,13.706c-0.199,5.686,0.017,11.335,0.246,17.018
	c0.807,20.096,9.089,31.58,28.041,37.986c13.205,4.464,26.686,8.106,40.017,12.204c4.438,1.364,8.774,3.053,13.186,4.509
	c7.493,2.474,11.855,7.986,12.114,15.464c0.533,15.385,2.362,31.144-8.654,44.523c-2.245,2.728-3.82,6.978-3.749,10.487
	c0.077,3.778-0.013,7.513-0.447,11.251c-0.359,3.095,0.264,6.209-0.096,9.359c-0.798,6.982-3.618,13.705-3.296,20.814
	c0.111,2.439,0.827,4.628,0.839,7.059c0.014,3.067,0.064,6.133,0.084,9.199c0.04,5.957-0.066,11.94-1.079,17.824
	c-0.461,2.682-0.94,5.91,1.101,7.713c2.147,1.896,5.786,0.64,7.384-1.738c1.598-2.378,1.748-5.404,1.938-8.263
	c0.19-2.858,0.555-5.917,2.44-8.074c1.455-1.664,3.743-2.561,5.941-2.329s4.248,1.586,5.324,3.518
	c1.24,2.226,1.162,4.939,0.811,7.463c-0.351,2.524-0.943,5.065-0.614,7.591c0.33,2.526,1.854,5.113,4.316,5.765
	c3.165,0.839,6.318-1.905,7.389-4.999c1.071-3.094,0.722-6.469,0.904-9.738c0.182-3.268,1.13-6.842,3.879-8.62
	c1.785-1.155,4.012-1.339,6.137-1.404c2.847-0.087,5.699-0.022,8.539,0.196c1.681,0.129,3.474,0.359,4.755,1.454
	c1.621,1.385,1.962,3.765,1.797,5.891c-0.167,2.127-0.725,4.248-0.458,6.364c0.438,3.482,3.336,6.509,6.796,7.101
	c3.46,0.591,7.198-1.303,8.767-4.442c1.197-2.395,1.162-5.195,1.778-7.8c0.944-3.987,3.075-5.428,6.839-5.137
	c1.325,0.103,13.099-0.708,13.338-0.001c4.21,12.443,2.672,24.802,2.047,36.951c-0.305,5.95,0.167,11.899-0.05,17.827
	c-0.2,5.479-0.861,11.029-1.247,16.513c-0.125,1.77,0.007,3.99,1.634,4.696c0.935,0.405,2.066,0.121,2.983,0.563
	c1.182,0.569,1.538,2.143,1.242,3.42c-0.543,2.332-2.522,4.078-2.088,6.611c0.352,2.055,0.996,3.126,0.782,5.432
	C505.992,459.76,504.988,465.529,504.632,471.366z"/>
<g>
	<path style="fill:#AD7E66;" d="M133.355,215.904c-1.701,0.564-3.387,1.285-5.072,2.28c-6.063,3.583-13.661,5.696-20.582,7.226
		c-9.199,2.033-14.851,6.906-14.456,17.068c0.362,9.322-1.07,22.681,3.01,31.314c1.321,2.797,4.578,6.162,7.011,8.169
		c1.89,1.559,5.022,1.664,5.611,4.291c1.945-2.027,4.589-2.374,7.372-2.776c8.226-1.189,16.409-2.73,24.58-4.365
		c19.153-3.834,38.394-7.876,57.981-8.754c30.984-1.391,62.728-2.475,93.703-0.753c18.238,1.014,36.772,3.047,54.955,4.989
		c11.311,1.208,22.486,3.725,33.399,6.858c7.018,2.016,16.061,5.786,23.391,6.112c13.343,0.592,13.554-30.995,13.317-38.994
		c-0.134-4.515-1.063-8.859-1.561-13.299c-0.326-2.898,0.237-5.137-2.16-7.045c-3.64-2.897-11.252-3.616-15.683-4.65
		c-6.804-1.588-13.371-3.308-19.847-5.934c-12.527-5.079-27.61-6.989-39.134-14.079c-3.857-2.374-6.898-5.502-9.861-8.902
		c-5.355-6.145-7.702-16.357-6.308-24.214c1.523-8.59,3.641-19.655-0.512-27.863c-3.702-7.316-15.586-5.438-22.838-5.74
		c-20.848-0.867-41.612,0.876-62.451,0.301c-11.342-0.313-22.653,0.778-33.979,1.159c-3.525,0.119-11.169-1.392-13.965,0.887
		c-2.863,2.333-1.319,6.347-0.896,9.336c1.135,8.033-0.041,16.35-0.375,24.412c-0.289,6.98-0.107,12.846-3.865,18.972
		c-8.232,13.419-23.209,16.723-37.361,20.783C142.061,214.048,137.66,214.476,133.355,215.904z"/>
	<path style="fill:#AD7E66;" d="M191.554,324.456c-19.804,1.323-39.481,3.316-59.392,5.632c-5.648,0.657-13.993,0.583-19.078,3.224
		c-2.587,1.344-2.61,1.179-2.706,4.869c-0.136,5.235-0.069,10.581-0.336,15.874c-0.394,7.819,1.538,16.336-0.543,23.836
		c-2.651,0.169-5.978-0.914-8.399,0.009c-0.776-1.064-0.563-1.907-0.876-3.109c-0.481-1.846-0.736-4.649-1.115-6.741
		c-0.431-2.377,0.042-5.098-0.089-7.511c-3.337-0.196-10.256-1.558-13.165-0.029c-5.804,3.051,1.303,15.363-2.219,19.884
		c-0.762,0.979-5.707,2.594-6.734,2.646c-2.927,0.151-2.034,0.099-3.528-2.2c-4.535-6.976-0.682-13.011-1.544-20.302
		c-5.814-0.196-20.641-5.846-24.772,0.115c-3.03,4.371,3.23,14.643-1.554,18.175c-3.282,2.423-11.874,1.298-15.502,0.234
		c-0.21-4.668,3.458-10.471,1.896-15.134c-1.191-3.554-4.875-2.924-8.774-3.416c-4.713-0.597-9.852-0.684-13.095,3.337
		c-2.03,2.516-1.777,4.999-1.563,8.13c0.435,6.342,0.252,12.504,0.125,18.853c-0.163,8.111-1.451,11.123,7.354,11.256
		c7.992,0.121,15.713-1.621,23.752-1.61c10.314,0.014,20.608,0.35,30.914,0.396c9.22,0.042,18.375,1.091,27.595,1.183
		c9.21,0.092,18.419-0.653,27.614-0.319c8.176,0.296,16.249,0.951,24.423,0.682c9.115-0.299,18.127-1.921,27.242-2.237
		c8.66-0.299,17.317-0.496,25.975-0.778c22.32-0.725,45.044-1.433,67.353-0.682c21.227,0.715,42.571,0.79,63.752,2.616
		c37.904,3.268,75.196-0.679,113.119-0.454c15.081,0.09,30.266,1.268,45.337,0.775c5.208-0.17,9.046-0.824,9.996-6.002
		c0.981-5.338,0.387-11.67,0.466-17.019c0.084-5.629,1.799-14.719-3.916-16.715c-3.195-1.116-12.411-1.97-15.37-0.268
		c-2.348,1.35-1.602,3.696-1.766,6.564c-0.12,2.097,0.98,8.655-0.175,10.144c-1.362,1.755-8.437,0.926-10.304,0.671
		c-3.6-0.493-5.729-0.449-6.997-3.485c-1.342-3.214-0.006-7.455-0.374-10.854c-0.324-2.984-0.833-3.985-3.454-4.907
		c-4.668-1.643-13.513-1.172-18.282-0.475c-3.266,0.478-2.945,0.111-3.512,3.165c-0.673,3.621,0.378,8.059,0.376,11.798
		c-0.001,2.441,0.76,5.393-1.05,6.886c-1.187,0.98-7.013,1.658-8.29,0.785c-3.863-2.639-2.464-15.811-2.767-20.234
		c-3.329-2.298-9.425-1.812-13.458-1.553c-2.774,4.585,3.207,16.066-1.981,19.274c-0.782,0.484-7.697-0.263-8.398-0.727
		c-2.265-1.498-1.459-8.205-1.34-10.643c0.494-10.118,1.378-21.015,0.387-31.154c-0.291-2.979,0.262-2.864-2.311-4.026
		c-3.019-1.364-7.859-0.746-11.2-1.241c-22.761-3.374-45.674-5.682-68.638-7.122c-31.827-1.996-63.741-2.325-95.616-1.594
		C213.801,323.183,202.657,323.713,191.554,324.456z"/>
</g>
<g>
	<path style="fill:#E2D5CF;" d="M11.301,428.062c0.224,4.467-0.665,6.99-4.078,9.521c-3.816,2.829-6.002,2.897-3,6.898
		c2.092,2.788,2.683,2.892,2.807,6.697c0.182,5.619-1.269,12.399,0.379,17.753c1.441,4.686,6.247,3.977,10.856,4.575
		c10.855,1.408,21.516,0.706,32.44,0.404c23.258-0.643,46.494,0.804,69.775,0.763c30.809-0.054,61.766,2.215,92.494,0.862
		c8.483-0.374,17.011,0.446,25.481,0.884c18.532,0.959,37.17-0.193,55.743-0.193c25.185,0,50.359-1.163,75.55-1.165
		c29.645-0.003,59.313,1.008,88.928,0.781c10.511-0.08,21.027-0.403,31.561-0.393c4.608,0.005,9.498,0.01,13.893-1.233
		c0.421-7.781-3.623-19.496,1.233-25.576c2.495-3.124,4.944-4.016,3.002-7.77c-2.125-4.106-4.811-4.987-5.339-10.135
		c-0.68-6.62-0.849-13.247-1.565-19.891c-0.877-8.156-0.879-7.118-9.028-6.853c-15.448,0.502-31.065-0.397-46.54-0.397
		c-20.113,0-40.342,0.055-60.439-0.692c-29.023-1.078-58.061-1.655-87.098-2.208c-14.513-0.276-29.026-0.546-43.537-0.87
		c-6.872-0.154-13.761-0.389-20.557-0.89c-5.154-0.38-9.971,1.142-15.116,1.466c-22.896,1.445-45.841,0.426-68.805,0.472
		c-40.263,0.079-80.684-0.933-120.946,0.388c-4.006,0.132-15.511-0.755-17.809,3.086c-1.895,3.167-0.14,10.388,0.019,13.949
		C11.747,421.514,11.859,424.563,11.301,428.062z"/>
	<path style="fill:#E2D5CF;" d="M196.182,123.941c-5.157,0.526-14.727,1.75-15.584,7.745c-1.116,7.817,4.057,6.657,10.161,6.028
		c13.441-1.384,27.256-0.21,40.773-1.346c15.073-1.267,30.506-2.549,45.641-1.854c10.158,0.466,20.307,0.643,30.447,1.112
		c4.046,0.186,8.141,0.746,12.159,1.154c2.101,0.213,5.823,1.222,7.702,0.366c3.541-1.614,3.779-6.738,1.173-9.416
		c-5.073-5.213-17.863-3.585-24.271-3.785c-19.752-0.615-39.575-1.169-59.372-1.169C228.845,122.776,211.15,122.89,196.182,123.941z
		"/>
</g>
<path style="fill:#AD7E66;" d="M254.055,97.529c-6.523,1.759-14.173,1.338-20.935,1.931c-7.453,0.654-21.788-0.658-28.247,4.197
	c-3.624,2.724-3.596,9.712-3.272,14.069c0.424,5.715,6.535,5.548,12.207,5.846c25.13,1.321,50.573-1.958,75.719-1.962
	c3.894-0.001,7.858-0.184,11.736,0.086c1.911,0.134,6.044,1.639,7.718,1.059c3.976-1.378,2.376-8.696,0.64-11.779
	c-3.461-6.144-12.814-8.33-19.077-9.559c-7.255-1.424-14.075-2.188-21.476-2.33C262.491,98.961,255.909,97.713,254.055,97.529z"/>
<path style="fill:#E2D5CF;" d="M247.264,99.266c0-6.601-1.62-20.587,8.007-20.479c2.863,0.033,4.992,1.234,6.49,3.721
	c1.561,2.591,1.254,5.306,1.255,8.245c0,1.747,0.706,5.304-0.392,6.546C259.352,101.005,251.217,98.381,247.264,99.266z"/>
<path style="fill:#75625A;" d="M252.887,34.273c-2.459,2.346-4.801,8.426-5.281,11.87c-0.357,2.558,1.041,4.987,1.223,7.551
	c0.23,3.207-1.681,6.392-2.12,9.561c-0.444,3.208,0.392,7.429,2.168,10.178c1.098,1.698,4.091,4.704,6.313,4.752
	c3.048,0.065,4.102-3.428,4.924-5.704c1.318-3.645,1.758-7.438,2.21-11.283c0.324-2.752,1.594-7.724,0.39-10.305
	c-1.511-3.24-5.325-2.819-6.037-6.734c-0.449-2.469,0.388-5.437-0.68-7.786C254.706,33.529,253.53,34.798,252.887,34.273z"/>
<path style="fill:#C4B5AE;" d="M504.184,449.725c-2.562-3.275-9.442-3.023-13.013-3.025c-6.03-0.002-12.053,0.401-18.083,0.401
	c-16.087,0-32.261,1.201-48.448,1.189c-5.446-0.003-10.891-0.097-16.336-0.121c-15.863-0.07-31.758,0.122-47.639,0.122
	c-5.842,0-11.645-0.633-17.474-0.655c-5.529-0.021-11.101,0.205-16.639,0.238c-11.967,0.069-23.943-0.042-35.887-0.563
	c-6.6-0.288-13.067-0.671-19.647-0.529c-6.361,0.139-13.142,0.292-19.519,0.066c-7.186-0.256-14.367,0.056-21.549,0.086
	c-5.909,0.024-11.691,0.244-17.571,0.635c-7.612,0.506-15.269,0.411-22.906,0.31c-6.667-0.089-13.133,0.282-19.676,0.46
	c-7.581,0.207-15.275-0.196-22.886-0.045c-6.547,0.13-13.095,0.301-19.646,0.326c9.225-8.413,20.419-14.173,32.406-18.035
	c47.746-15.382,99.642-16.316,149.307-14.838c54.259,1.616,109.204,3.235,163.425-0.043c0.91-0.055,36.545-1.284,26.97-11.625
	c1.127-0.206,4.213-0.345-0.279-3.08c-2.293-1.396-6.095-0.834-8.768-0.832c-22.402,0.012-44.734,1.344-67.147,1.105
	c-63.468-0.676-126.887-4.645-190.381-1.787c-45.99,2.069-92.164,1.974-138.167,4.078c-19.91,0.91-40.006-1.283-59.901-0.572
	c-4.71,0.168-9.393-0.771-14.061-0.41c-2.78,0.216-8.539-0.553-9.699,2.887c-0.83,2.463-0.139,5.466-0.477,8.02
	c-0.538,4.074-0.533,8.184-0.627,12.284c-0.071,3.075,0.496,7.408-1.069,10.161c-1.422,2.501-2.843,1.817-4.625,3.779
	c-4.452,4.902-2,6.86,2.266,10.905c0.223,0.212,0.419,0.375,0.602,0.52c-0.136,0.656-0.142,1.401,0.056,2.275
	c0.277,1.221,1.425,1.737,2.84,1.931c0.072,2.115-0.572,6.052-0.692,7.589c-0.526,6.705-2.65,9.169,4.458,10.883
	c6.348,1.532,13.543,0.646,20.246,1.367c14.357,1.544,28.949,0.514,43.317-0.562c9.704-0.727,22.268-1.163,30.954-6.096
	c5.41-3.073,9.093-9.091,13.022-13.691c0.033-0.038,0.068-0.075,0.1-0.112c0.802,0.008,1.602,0.021,2.404,0.021
	c6.7,0,13.422,0.213,20.108,0.546c4.205,0.211,8.363,0.734,12.575,0.898c3.385,0.132,6.646-0.249,10.002-0.258
	c15.623-0.038,31.223-0.17,46.884-0.17c16.433,0,32.805-0.34,49.228-0.34c8.386,0,16.714-0.334,25.102-0.339
	c4.275-0.003,8.604,0.061,12.852,0.378c3.372,0.252,6.594,0.889,9.975,0.868c3.409-0.021,6.89-0.042,10.328-0.052
	c22.072-0.076,44.184-0.714,66.147-1.918c5.624-0.309,11.261-0.397,16.907-0.549c12.883-0.344,25.77,0.086,38.64,0.468
	c6.433,0.191,12.867,0.373,19.306,0.439c5.369,0.056,11.308,0.828,16.551-0.143C481.635,454.65,509.401,456.392,504.184,449.725z"/>
<path style="fill:#AF958B;" d="M478.354,437.054c-5.242-1.452-11.181-0.297-16.551-0.214c-6.439,0.099-12.873,0.371-19.306,0.656
	c-12.87,0.571-25.757,1.213-38.64,0.699c-5.645-0.225-11.283-0.359-16.907-0.819c-21.963-1.798-44.075-2.75-66.147-2.864
	c-3.439-0.017-6.919-0.048-10.328-0.08c-3.381-0.031-6.603,0.921-9.975,1.297c-4.25,0.474-8.577,0.569-12.852,0.564
	c-8.388-0.008-16.716-0.507-25.102-0.507c-16.423,0-32.795-0.507-49.228-0.507c-15.659,0-31.259-0.197-46.884-0.254
	c-3.356-0.012-6.617-0.583-10.002-0.384c-4.211,0.246-8.37,1.028-12.574,1.342c-6.686,0.499-13.409,0.817-20.108,0.817
	c-11.361,0-22.686,1.298-34.093,0.767c-5.776-0.269-11.509-0.806-17.294-1.015c-5.161-0.185-10.057-0.513-15.227-0.513
	c-4.584,0-9.142-0.264-13.704-0.254c-9.225,0.022-18.431,0.254-27.665,0.254c-5.085,0-9.07-0.56-11.37,4.787
	c-2.791,6.486,8.727,7.668,12.726,7.871c13.137,0.666,26.309,0.26,39.429-0.584c9.739-0.627,19.404,0.338,29.241-0.218
	c12.729-0.72,25.47-1.875,38.219-1.965c7.637-0.054,15.268,0.275,22.9,0.501c7.612,0.226,15.306-0.376,22.886-0.068
	c6.543,0.267,13.008,0.82,19.676,0.687c7.636-0.153,15.293-0.292,22.906,0.464c5.881,0.584,11.661,0.911,17.571,0.948
	c7.181,0.045,14.362,0.512,21.549,0.129c6.376-0.339,13.156-0.107,19.519,0.099c6.58,0.213,13.047-0.359,19.647-0.789
	c11.945-0.78,23.921-0.944,35.887-0.841c5.538,0.048,11.11,0.386,16.639,0.354c5.828-0.034,11.631-0.978,17.474-0.978
	c15.881,0,31.775,0.288,47.639,0.183c5.446-0.036,10.89-0.175,16.336-0.182c16.187-0.02,32.363,1.775,48.448,1.775
	c9.107,0,19.528,1.484,28.509-0.223c3.34-0.634,7.652-2.442,7.926-6.362c0.343-4.894-5.651-4.381-9.102-4.553
	C492.897,436.702,484.862,436.824,478.354,437.054z"/>
<path style="fill:#96776E;" d="M478.354,443.043c-5.242-0.726-11.181-0.148-16.551-0.107c-6.439,0.05-12.873,0.185-19.306,0.327
	c-12.87,0.285-25.757,0.607-38.64,0.35c-5.645-0.113-11.283-0.179-16.907-0.409c-21.963-0.9-44.075-1.375-66.147-1.432
	c-3.439-0.009-6.919-0.024-10.328-0.04c-3.381-0.016-6.603,0.46-9.975,0.648c-4.25,0.237-8.577,0.284-12.852,0.282
	c-8.388-0.003-16.716-0.254-25.102-0.254c-16.423,0-32.795-0.254-49.228-0.254c-15.659,0-31.259-0.099-46.884-0.127
	c-3.356-0.006-6.617-0.291-10.002-0.192c-4.211,0.124-8.37,0.514-12.574,0.671c-6.686,0.249-13.409,0.409-20.108,0.409
	c-11.361,0-22.686,0.649-34.093,0.383c-5.776-0.134-11.509-0.403-17.294-0.507c-5.161-0.092-10.057-0.256-15.227-0.256
	c-4.584,0-9.142-0.132-13.704-0.127c-9.225,0.01-18.431,0.127-27.665,0.127c-5.085,0-9.07-0.281-11.37,2.393
	c-2.791,3.243,8.727,3.835,12.726,3.936c13.137,0.333,26.309,0.131,39.429-0.292c9.739-0.313,19.404,0.169,29.241-0.11
	c12.729-0.36,25.47-0.937,38.219-0.982c7.637-0.027,15.268,0.138,22.9,0.251c7.612,0.113,15.306-0.189,22.886-0.034
	c6.543,0.133,13.008,0.41,19.676,0.344c7.636-0.076,15.293-0.146,22.906,0.232c5.881,0.292,11.661,0.456,17.571,0.474
	c7.181,0.023,14.362,0.255,21.549,0.064c6.376-0.169,13.156-0.054,19.519,0.049c6.58,0.107,13.047-0.179,19.647-0.395
	c11.945-0.389,23.921-0.472,35.887-0.421c5.538,0.023,11.11,0.193,16.639,0.177c5.828-0.016,11.631-0.489,17.474-0.489
	c15.881,0,31.775,0.143,47.639,0.091c5.446-0.019,10.89-0.087,16.336-0.091c16.187-0.009,32.363,0.887,48.448,0.887
	c9.107,0,19.528,0.742,28.509-0.111c3.34-0.317,7.652-1.221,7.926-3.181c0.343-2.447-5.651-2.191-9.102-2.277
	C492.897,442.867,484.862,442.928,478.354,443.043z"/>
<g>
	<path style="fill:#966854;" d="M220.016,321.686c1.902-0.135,3.821-0.279,5.798-0.384c14.044-0.756,28.127-0.527,42.169,0.192
		c15.241,0.781,30.347,0.768,45.531,2.525c16.605,1.92,33.209,3.903,49.815,5.777c11.822,1.334,23.684,1.624,35.474,3.497
		c1.022,0.162,2.964,0.4,3.42,1.465c0.313,0.731-0.625,4.195-0.999,4.996c-0.89,1.912-2.323,1.953-4.323,1.753
		c-3.542-0.357-7.025-1.105-10.595-1.326c-5.196-0.323-10.417,0.158-15.603-0.373c-4.908-0.502-9.676-2.022-14.594-2.673
		c-8.499-1.126-17.054-1.916-25.505-3.356c-13.936-2.376-27.927-2.632-41.987-3.398c-15.42-0.839-30.737-1.36-46.188-1.36
		c-6.99,0-13.97-0.404-20.952-0.388c-3.141,0.007-6.194-0.247-9.202,0.805c-3.916,1.37-5.983,3.199-8.412,6.272
		c-1.258,1.594-2.892,2.995-4.446,4.29c-0.653,0.544-4.012,3.761-4.777,3.542c1.324,0.379,2.651,0.612,4.028,0.635
		c1.128,0.02,4.641-1.13,5.601-0.407c1.43,1.076,0.898,5.134,1.201,6.708c0.472,2.462,0.707,4.537-0.36,7.001
		c-0.994,2.294-2.496,1.713-4.508,1.735c-2.196,0.023-4.015,0.334-6.298,0.168c-8.049-0.587-5.192,9.565-4.958,14.298
		c0.246,4.971-6.114,3.64-9.709,4.685c-2.041,0.593-4.1,0.796-6.018-0.459c-2.344-1.535-1.824-3.905-1.923-6.345
		c-0.143-3.504,1.501-8.286-0.762-11.177c-2.203-2.816-6.998-1.186-10.448-1.255c-4.012-0.08-6.227,1.371-5.343,5.417
		c0.687,3.141-0.738,8.07-2.086,11.03c-0.592,1.298-1.01,1.105-2.788,1.226c-2.872,0.195-8.094,1.013-8.66-2.778
		c-0.628-4.201,1.972-10.106-0.38-14.104c-1.305-2.219-4.398-1.572-6.627-1.572c-3.238,0-8.717-1.128-11.703,0.224
		c-2.574,1.165-1.671,3.243-1.68,5.588c-0.015,3.701,0.418,7.009-1.075,10.556c-1.681,3.992-9.451,5.967-10.212,0.693
		c-0.999-6.927,0.848-14.198,0.616-21.193c-0.164-4.942-0.616-9.855-0.096-14.799c0.19-1.8,0.118-5.119,1.636-6.519
		c3.172-2.926,10.245-2.716,14.246-3.122c11.257-1.141,22.606-1.639,33.881-2.744c10.162-0.995,20.766-1.433,30.723-3.641
		c5.818-1.29,11.654-1.551,17.591-1.335C212.497,322.195,216.221,321.956,220.016,321.686z"/>
	<path style="fill:#966854;" d="M8.388,363.392c1.182,5.986,0.537,12.771,0.58,18.842c0.037,5.09,0.143,10.333,0.392,15.406
		c0.184,3.787,1.794,4.007,5.28,4.194c7.089,0.379,14.076-0.384,21.163-0.378c13.188,0.012,26.424-0.531,39.601,0.097
		c7.187,0.343,14.303,0.459,21.448,0.923c7.032,0.456,14.055-0.487,21.058-0.972c7.027-0.486,14.023-0.428,21.065-0.436
		c7.271-0.008,14.421,0.718,21.694,0.883c8.279,0.188,16.544-0.481,24.817-0.684c8.004-0.196,15.991-0.753,23.991-0.971
		c17.126-0.467,34.352-0.971,51.53-0.598c8.542,0.185,17.049,0.061,25.594,0.354c14.578,0.501,29.231,0.528,43.849,0.868
		c4.265,0.099,8.534,0.179,12.799,0.044c3.931-0.124,7.665-0.922,11.572-0.782c9.044,0.322,18.04,1.462,27.089,1.708
		c7.212,0.196,14.42,0.535,21.635,0.606c5.911,0.057,11.653-0.421,17.55-0.119c5.896,0.302,11.779,0.242,17.682,0.242
		c10.452,0,20.921,0.176,31.341-0.782c7.03-0.647,13.843-0.915,20.859-0.324c2.953,0.248,6.178,0.424,8.99-0.756
		c1.667-0.699,3.462-2.574,4.032-4.437c1.48-4.841-8.332-4.077-10.883-4.196c-25.002-1.168-50.005,1.525-74.985-0.47
		c-13.977-1.116-28.008-0.463-41.998-0.024c-5.632,0.176-11.19,0.884-16.531-1.109c-5.555-2.073-11.991-1.514-17.835-1.515
		c-15.73-0.003-31.417,1.57-47.149,1.451c-6.315-0.048-11.843-2.166-18.169-2.193c-7.949-0.033-15.866,0.888-23.811,0.967
		c-0.16,0.001-0.318,0.002-0.478,0.003c-4.639,0.026-9.26-0.421-13.903-0.413c-5.598,0.009-11.187,0.712-16.751,0.961
		c-5.821,0.261-11.862-0.359-17.722-0.369c-8.87-0.015-17.711,1.073-26.53,1.932c-11.301,1.099-22.645,0.795-33.931,0.341
		c-8.338-0.334-16.689-0.43-25.022-0.759c-5.197-0.205-10.182-1.761-15.263-2.704c-4.541-0.844-8.924-1.687-13.173-3.655
		c-1.396-0.647-2.413-1.333-3.94-1.751c-2.244-0.616-4.439-0.481-6.74-0.826c-3.838-0.577-6.531-2.596-6.916-6.695
		c-0.192-2.053-0.345-4.318-0.394-6.377c-0.054-2.22,0.697-4.816,0.198-7.026c-1.052-4.668-9.261-3.408-12.789-3.597
		c-2.619-0.141-5.791-0.369-8.38,0.285c-2.199,0.557-2.107,1.72-2.594,3.898c-0.806,3.604-1.536,7.255-1.55,10.969
		c-0.01,2.739,0.33,4.344-2.485,5.483c-2.771,1.121-11.486,0.973-13.729-1.331c-3.669-3.768,2.299-11.159-1.662-15.277
		C25.056,358.346,13.307,359.502,8.388,363.392z"/>
	<path style="fill:#966854;" d="M440.489,360.09c0,3.64-0.08,7.11-0.681,10.719c-0.525,3.165-1.54,6.712-1.138,9.944
		c0.381,3.069,2.088,3.781,4.968,3.961c3.355,0.209,5.184-0.264,6.479-3.545c1.31-3.321,0.821-6.454,1.038-9.892
		c0.182-2.891,1.43-5.682,1.561-8.564C453.058,355.189,443.952,359.698,440.489,360.09z"/>
	<path style="fill:#966854;" d="M484.232,362.699c-0.296,0.402-0.509,0.903-0.612,1.53c-0.338,2.06-0.251,3.982-0.565,5.987
		c-0.365,2.329-1.14,4.529-1.206,6.913c-0.058,2.068-0.297,4.725,1.561,6.151c1.903,1.46,5.594,0.919,7.101-0.842
		c3.342-3.905,2.962-11.942,2.814-16.763c-0.087-2.83-1.425-5.099-4.483-4.758C487.051,361.118,485.2,361.385,484.232,362.699z"/>
	<path style="fill:#966854;" d="M418.933,360.285c-6.322-2.243-6.074,7.772-5.675,11.135c0.372,3.131-2.389,12.097,3.016,11.017
		c6.003-1.2,7.643-6.282,7.717-11.658c0.037-2.654-0.02-6.218-0.777-8.785C422.233,358.671,419.233,359.565,418.933,360.285z"/>
	<path style="fill:#966854;" d="M379.509,360.09c1.159,4.718,1.727,11.741-0.525,16.25c-1.324,2.65-7.558,4.198-9.843,1.714
		c-1.318-1.433-0.113-2.991,0.373-4.653c0.812-2.771,0.717-5.55,0.576-8.408C369.782,358.756,373.285,359.386,379.509,360.09z"/>
	<path style="fill:#966854;" d="M349.408,358.342c-2.946,0-6.669-0.55-8.738,2.129c-1.227,1.587-0.579,3.923-0.585,5.812
		c-0.009,3.295,0.101,6.424,0.573,9.679c0.226,1.56,0.489,4.562,2.603,4.548c2.33-0.015,4.748-4.004,5.661-5.818
		c1.801-3.585,1.426-7.238,1.117-11.108C349.863,361.366,349.444,359.347,349.408,358.342z"/>
	<path style="fill:#966854;" d="M310.761,359.12c-3.073,0.378-9.452,0.367-10.959,3.641c-0.898,1.953,0.606,5.425,1.107,7.284
		c0.558,2.071,1.02,5.324,2.307,7.099c1.96,2.704,7.101,1.613,8.528-1.261C313.013,373.331,310.579,360.04,310.761,359.12z"/>
	<path style="fill:#966854;" d="M267.843,361.062c-4.774,1.122-9.056,3.472-8.757,8.958c0.157,2.896,0.263,9.634,4.074,10.095
		c4.542,0.55,9.171-4.798,10.768-8.522C276.039,366.667,272.52,360.026,267.843,361.062z"/>
	<path style="fill:#966854;" d="M235.605,360.09c-4.029,0.675-7.419,0.128-8.894,4.815c-0.844,2.679-1.106,5.891-1.559,8.684
		c-0.305,1.882-1.025,4.26,0.68,5.64c2.299,1.86,7.365-0.627,8.875-2.664C238.259,371.771,235.144,366.178,235.605,360.09z"/>
	<path style="fill:#966854;" d="M199.21,359.99c-0.749-0.877-1.728-1.495-3.042-1.639c-1.459-0.161-4.056,0.115-5.395,0.642
		c-2.485,0.979-1.415,2.085-1.481,4.176c-0.024,0.743-0.367,1.519-0.428,2.28c-0.164,2.06,0.326,4.138,0.326,6.198
		c0,2.097-0.736,6.318,0.792,8.078c3.324,3.827,9.473-1.466,10.958-4.576c1.307-2.739,1.609-5.242,0.895-8.264
		C201.322,364.711,200.753,361.797,199.21,359.99z"/>
	<path style="fill:#966854;" d="M163.556,360.479c1.01,1.904,0.884,4.654,0.937,6.737c0.063,2.475,0.385,6.822-0.74,9.226
		c-0.831,1.776-2.593,1.953-4.523,1.917c-0.835-0.016-4.252-0.07-4.819-0.583c-0.918-0.83,0.572-2.8,0.955-3.835
		c1.164-3.147,0.809-6.465,0.81-9.773c0-0.389-0.676-4.074-0.576-4.371C156.367,357.526,161.683,359.171,163.556,360.479z"/>
	<path style="fill:#966854;" d="M130.347,358.925c1.768,3.048,2.315,6.388,2.334,9.89c0.009,1.832,0.783,6.396-0.572,7.937
		c-1.108,1.261-10.756,2.572-11.689,1.009c-0.533-0.893,0.405-3.637,0.494-4.565c0.319-3.386-0.353-6.68-0.19-10.02
		c0.048-0.981-0.009-2.525,0.616-3.289C123.05,357.796,128.33,358.746,130.347,358.925z"/>
	<path style="fill:#966854;" d="M210.942,362.615c1.411,4.117-2.835,9.684-0.358,13.37c1.624,2.417,8.169,2.778,10.735,2.086
		c5.043-1.362,1.451-13.302,3.595-17.395c1.457-2.78,9.906-3.437,12.707-2.435c6.953,2.484,4.095,12.559,4.96,18.078
		c0.642,4.089,7.866,1.792,10.939,1.543c1.796-0.146,4.305-0.119,5.336-1.469c1.67-2.189,0.931-9.177,0.058-11.663
		c-0.747-2.129-1.598-3.888-1.183-6.336c0.749-4.425,7.359-5.128,10.969-5.6c7.737-1.01,15.049-0.961,22.849-0.615
		c2.798,0.125,7.507,1.479,10.15,0.566c1.359-0.468,3.458-3.533,2.999-5.07c-0.985-3.292-12.399-1.857-15.002-1.937
		c-11.983-0.364-24.012,0.216-35.987-0.398c-11.544-0.591-23.053-0.725-34.603-0.41c-3.133,0.085-6.751,0.368-9.536,1.966
		c-2.659,1.525-2.725,3.44-3.045,6.271c-0.254,2.258-0.55,3.734,1.524,4.801c1.155,0.594,2.164,0.079,2.884,1.46
		C211.559,360.627,210.746,363.004,210.942,362.615z"/>
</g>
<path style="fill:#7F4733;" d="M242.596,329.019c-6.073-1.096-12.805-0.912-18.957-0.552c-3.749,0.219-8.754,0.372-11.727,2.646
	c-5.81,4.444-12.912,7.334-16.485,14.17c1.191,0.538,3.214-0.055,4.495-0.192c3.293-0.355,6.679-0.663,9.996-0.543
	c7.795,0.281,15.605,0.329,23.401,0.635c10.709,0.422,21.52,0.037,32.229-0.334c9.647-0.336,19.261,0.022,28.912-0.09
	c5.32-0.062,10.64-0.204,15.968-0.202c1.497,0.001,4.149,0.417,4.964-1.119c1.587-2.992-4.027-6.272-5.807-7.422
	c-2.999-1.938-6.106-4.273-9.4-5.718c-5.304-2.327-12.386-0.458-17.965-0.202C269.794,330.665,257.355,330.377,242.596,329.019z"/>
<g>
	<path style="fill:#966854;" d="M185.695,191.523c-6.211,6.477-13.509,14.12-22.097,17.053c-9.951,3.398-20.191,5.888-30.299,8.757
		c-8.421,2.391-18.386,2.332-26.198,6.71c-14.499,8.127-11.212,27.437-11.129,40.837c0.027,4.435-0.121,9.213,2.325,12.977
		c2.663,4.096,7.326,8.626,12.25,8.542c7.109-0.121,14.713-3.697,21.542-5.521c6.445-1.721,13.108-2.073,19.711-2.772
		c5.967-0.632,11.087-2.22,17.044-2.643c8.57-0.607,17.174-1.431,25.708-2.442c15.626-1.852,31.258-4.614,47.035-4.596
		c26.163,0.031,53.089-0.749,79.096,1.847c18.253,1.822,36.436,6.074,54.532,9.029c6.267,1.023,12.305,2.801,18.363,4.705
		c6.731,2.116,9.858,5.257,14.103-1.643c2.215-3.6,8.821-9.466,7.131-14.353c-1.782-5.153-11.622-6.864-16.139-8.322
		c-10.26-3.309-21.356-4.525-31.964-6.399c-8.66-1.53-18.144-1.594-26.562-4.147c-7.064-2.142-13.407-3.561-20.868-4.653
		c-17.897-2.621-35.608-6.422-53.046-11.212c-17.86-4.907-38.29-7.753-49.736-24.212c-11.953-17.187,1.77-35.214,5.546-52.279
		c1.202-5.432,3.674-13.61,0.151-18.467c-3.038-4.19-8.51-2.244-13.214-1.639c-7.015,0.902-14.216,1.766-21.32,2.079
		c-0.149,1.822,0.14,3.529,0.358,5.336c0.741,6.16,0.421,11.978,0.388,18.197C188.345,173.861,186.44,183.363,185.695,191.523z"/>
	<path style="fill:#966854;" d="M208.461,103.411c-3.173,2.388-5.502,3.249-7.043,7.389c-2.259,6.072-0.587,14.302,7.425,14.173
		c9.286-0.15,18.862-1.053,28.286-1.148c17.881-0.179,35.813-0.627,53.651-0.649c4.015-0.005,7.929,0.526,11.842,0.302
		c3.689-0.211,6.755-0.165,5.967-4.921c-0.795-4.8-5.073-5.28-9.381-5.542c-7.808-0.474-16.228,0.352-24.042,0.743
		c-9.741,0.488-21.739,2.685-31.32,0.082c-2.84-0.771-5.316-2.113-5.981-5.164c-0.389-1.786,1.152-3.938,0.824-5.459
		c-0.657-3.039-2.198-2.37-5.541-2.357C225.953,100.887,219.096,101.493,208.461,103.411z"/>
</g>
<path style="fill:#967653;" d="M208.15,275.245c-6.081-3.186-10.215-1.305-16.209-0.383c-7.396,1.138-15.015,0.027-22.457,1.33
	c-8.837,1.547-17.871,2.386-26.647,4.215c-7.068,1.473-14.039,3.513-21.039,5.219c-3.063,0.747-10.74,1.427-13.119,3.464
	c-2.854,2.442-1.82,11.908-1.919,15.667c-0.176,6.72,0.375,13.542,1.13,20.204c0.381,3.359,0.057,7.088,3.59,8.307
	c2.249,0.775,6.545-0.429,8.884-0.717c4.032-0.496,7.878-1.771,11.901-2.17c50.248-4.977,100.721-11.871,151.398-8.922
	c20.084,1.169,40.086,3.388,60.146,4.533c15.127,0.863,31.265,2.412,45.887,6.623c2.764,0.796,4.931,1.974,7.845,1.249
	c4.277-1.064,8.293-5.772,8.576-10.281c0.535-8.519-12.739-10.552-18.548-12.07c-16.616-4.343-33.262-6.815-50.306-8.807
	c-22.164-2.59-44.551-3.063-66.819-4.209c-15.441-0.795-32.774-0.227-46.21-9.06C218.193,285.467,214.673,278.661,208.15,275.245z"
	/>
<g>
	<path style="fill:#443628;" d="M239.661,475.776c-0.282-9.663,7.876-32.539,20.925-23.645c4.14,2.822,6.007,6.388,7.054,11.439
		c0.682,3.286,1.863,5.902,1.886,9.342c0.019,2.689-0.043,2.386-2.541,2.247c-3.621-0.203-7.221,0.17-10.824,0.368
		C251.01,475.808,245.818,474.876,239.661,475.776z"/>
	<path style="fill:#443628;" d="M130.937,229.382c-0.764-0.572-2.482,0.015-3.323,0.221c-1.334,0.327-3.032,0.881-4.079,1.821
		c-1.009,0.907-0.781,2.327-0.77,3.569c0.014,1.692-0.041,3.885,0.753,5.435c0.459,0.897,0.996,1.326,2.005,1.269
		c1.628-0.091,3.426-0.572,5.022-0.893c1.006-0.202,2.391-0.322,3.004-1.248c0.51-0.773,0.397-2.212,0.494-3.105
		c0.115-1.067,0.098-2.15,0.037-3.223c-0.062-1.095,0.051-2.499-0.438-3.513C132.818,228.008,131.36,229.556,130.937,229.382z"/>
	<path style="fill:#443628;" d="M163.621,221.286c-0.86-0.028-1.825,0.305-2.657,0.47c-1.381,0.273-2.963,0.456-4.226,1.12
		c-1.305,0.686-1.243,1.98-1.546,3.302c-0.378,1.645-1.206,6.693,1.635,6.404c3.046-0.31,6.483-0.739,9.365-1.671
		c0.753-0.244,1.228-0.179,1.787-0.83c0.68-0.79,0.914-2.052,0.979-3.059c0.097-1.482-0.167-2.834-0.722-4.188
		c-0.169-0.41-0.268-0.852-0.611-1.136C166.581,220.834,164.261,221.115,163.621,221.286z"/>
	<path style="fill:#443628;" d="M204.174,215.99c-1.838,0.346-3.648,0.824-5.489,1.151c-1.331,0.237-3.308,0.29-4.481,1.072
		c-0.732,0.487-0.562,0.968-0.543,1.784c0.038,1.7-0.294,3.31,0.057,4.994c0.172,0.827,0.122,2.417,1.045,2.722
		c0.46,0.153,1.171-0.119,1.623-0.186c0.728-0.108,1.436-0.121,2.174-0.113c2.678,0.031,5.375,0.593,7.949-0.237
		c0.097-2.624,0.508-5.346,0.796-7.967C207.528,217.186,206.269,215.657,204.174,215.99z"/>
	<path style="fill:#443628;" d="M231.866,215.083c-1.75,0.043-5.099,0.884-5.689,2.753c-0.256,0.812-0.184,1.835-0.217,2.681
		c-0.024,0.644-0.126,1.796,0.303,2.372c0.482,0.648,1.375,0.484,2.104,0.566c1.239,0.139,2.441,0.479,3.683,0.578
		c1.712,0.136,4.001,0.38,5.628-0.326c0.94-0.408,1.36-0.993,1.772-1.948c0.729-1.688,1.24-3.618,1.427-5.442
		C241.186,213.302,233.824,214.481,231.866,215.083z"/>
	<path style="fill:#443628;" d="M280.513,215.233c-0.824-0.588-2.206-0.549-3.169-0.591c-0.894-0.038-1.786-0.058-2.68-0.11
		c-0.536-0.03-1.292-0.224-1.806-0.016c-0.862,0.348-0.855,1.424-0.898,2.235c-0.066,1.262-0.235,3.568,0.585,4.641
		c0.745,0.973,2.396,1.292,3.511,1.509c1.93,0.376,3.789,0.997,5.732,1.323c1.491,0.249,2.778-0.67,3.677-1.871
		c0.592-0.791,0.816-1.257,0.664-2.238c-0.15-0.979-0.034-2.333-0.558-3.197c-1.269-2.09-4.73-1.74-6.723-2.138"/>
	<path style="fill:#443628;" d="M313.803,216.671c-1.649-0.031-3.369-0.404-4.998-0.635c-0.84-0.119-2.783-0.632-3.414,0.197
		c-0.664,0.872-0.623,3.217-0.52,4.209c0.161,1.549,0.099,3.66,0.755,5.099c0.573,1.26,2.181,1.01,3.367,1.117
		c1.623,0.146,3.201,0.372,4.818,0.586c0.946,0.126,2.316,0.519,3.055-0.231c0.769-0.778,1.089-2.957,1.271-3.994
		c0.189-1.076,0.525-2.702-0.018-3.721C317.424,217.99,315.413,217.363,313.803,216.671z"/>
	<path style="fill:#443628;" d="M351.935,222.043c-1.169-0.746-2.461-1.103-3.863-1.121c-1.821-0.023-2.524,0.551-3.193,2.136
		c-0.643,1.525-2.081,3.648-2.021,5.376c0.04,1.136,1.51,0.992,2.418,1.384c1.441,0.622,2.835,1.305,4.182,2.104
		c0.93,0.552,1.895,1.078,2.922,1.423c1.171,0.393,1.481,0.167,2.401-0.577c1.279-1.032,2.217-2.196,2.544-3.844
		c0.285-1.44,0.715-2.685-0.171-3.951c-0.375-0.536-0.789-1.092-1.306-1.5C354.722,222.583,353.387,222.747,351.935,222.043z"/>
	<path style="fill:#443628;" d="M385.3,229.684c-1.87-0.59-4.226-0.891-6.194-0.75c-0.432,1.277-0.669,2.737-0.844,4.065
		c-0.155,1.178-0.253,2.351-0.457,3.522c-0.129,0.74-0.555,1.819-0.178,2.522c0.588,1.099,2.864,1.272,3.914,1.418
		c1.683,0.234,3.301,0.782,4.971,1.025c2.279,0.332,2.651-2.481,2.857-4.239c0.165-1.41,0.196-3.425-0.43-4.755
		C388.435,231.424,386.72,230.579,385.3,229.684z"/>
	<path style="fill:#443628;" d="M287.777,201.842c-1.635-1.482-2.908-3.295-3.964-5.222c-1.017-1.86-1.339-3.293-1.099-5.397
		c0.114-1.002-0.107-1.472-1.077-1.853c-2.127-0.834-4.377-0.489-6.558-0.31c-1.296,0.106-2.717-0.22-4.019-0.296
		c-1.306-0.076-2.614-0.125-3.919-0.198c-5.686-0.319-11.418-0.374-17.112-0.265c-4.695,0.091-9.371,0.783-14.058,1.039
		c-1.29,0.071-2.762-0.117-4.02,0.206c-1.411,0.362-2.285,1.589-2.918,2.835c-0.947,1.863-1.222,3.979-1.91,5.939
		c-0.316,0.901-1.73,3.144-1.483,4.144c0.26,1.052,1.8,1.039,2.676,1.105c2.821,0.207,5.673-0.037,8.498-0.072
		c10.383-0.126,20.785-0.178,31.168,0.026c4.478,0.089,8.951,0.164,13.43,0.137C284.054,203.645,287.009,203.392,287.777,201.842z"
		/>
	<path style="fill:#443628;" d="M216.128,153.118c-2.49-0.595-5.226-0.141-7.721,0.221c-2.673,0.389-4.707,1.048-5.327,3.863
		c-0.784,3.562,0.091,7.521,0.493,11.088c0.339,3.006,0.69,6.219,1.588,9.125c0.5,1.615,1.733,2.143,3.342,2.45
		c2.501,0.479,5.618-0.308,8.097-0.777c1.638-0.31,3.119-0.63,3.723-2.264c0.762-2.064,0.784-4.288,0.805-6.481
		c0.036-3.841-1.094-7.624-2.135-11.269C218.375,156.909,217.566,153.958,216.128,153.118z"/>
	<path style="fill:#443628;" d="M248.664,153.308c-2.576-2.21-6.299-1.187-9.234-0.537c-2.774,0.614-6.018,1.646-7.608,4.198
		c-1.371,2.201-1.135,5.261-0.921,7.727c0.21,2.427,0.28,4.925,0.706,7.322c0.387,2.175,0.541,3.587,2.558,4.74
		c1.227,0.703,2.44,1.479,3.843,1.756c1.521,0.301,3.041,0.167,4.569,0.008c2.177-0.225,4.688-0.392,6.146-2.198
		c1.483-1.836,1.896-4.878,1.987-7.18c0.127-3.197-0.868-6.333-1.11-9.508c-0.097-1.272-0.172-2.516-0.322-3.778
		C249.169,154.94,249.43,153.965,248.664,153.308z"/>
	<path style="fill:#443628;" d="M267.576,151.757c-1.025,0.028-2.518,0.121-3.412,0.672c-1.126,0.694-1.632,2.408-1.793,3.637
		c-0.468,3.584-0.318,7.368-0.325,10.975c-0.004,1.706,0.379,3.393,0.386,5.106c0.005,1.205,0.164,2.321,0.607,3.446
		c0.374,0.95,0.672,1.571,1.588,2.064c1.235,0.663,2.6,1.085,3.975,1.319c2.497,0.425,5.432,0.742,7.758-0.508
		c1.321-0.711,2.194-2.357,2.877-3.637c1.135-2.128,2.117-4.824,2.038-7.277c-0.084-2.576-0.223-5.118-0.157-7.697
		c0.069-2.681-0.611-4.314-3.194-5.499C274.829,152.937,271.222,152.403,267.576,151.757z"/>
	<path style="fill:#443628;" d="M301.925,153.421c2.046-0.065,4.564,0.969,5.304,3.044c0.414,1.161,0.509,2.436,0.67,3.644
		c0.195,1.46,0.573,2.877,0.684,4.35c0.227,3.014,0.225,5.988-0.232,8.976c-0.341,2.241-0.742,5.069-2.834,6.438
		c-1.644,1.075-5.078,0.831-6.923,0.414c-1.794-0.406-3.734-1.12-5.319-2.068c-1.785-1.07-1.925-2.738-1.946-4.689
		c-0.031-3.109,0.677-6.15,0.611-9.27c-0.038-1.808-0.205-3.613-0.234-5.423c-0.016-0.989-0.149-2.322,0.417-3.188
		c1.195-1.828,5.256-2.361,7.228-1.847C300.231,153.554,301.015,153.421,301.925,153.421z"/>
</g>
<g>
	<path style="fill:#C1ABA3;" d="M196.57,124.523c-4.818-0.163-12.358,1.86-14.726,6.419c-1.377,2.653-1.995,7.373,1.546,7.95
		c3.461,0.564,7.349-0.546,10.833-0.776c4.885-0.322,9.71-0.782,14.599-1.009c10.544-0.492,21.101-0.915,31.641-1.418
		c13.116-0.626,26.318-0.292,39.426,0.388c12.174,0.633,24.53,0.729,36.639,2.227c1.892,0.234,17.56,1.614,15.497-2.964
		c-1.027-2.279-6.919-2.309-8.833-2.566c-9.771-1.307-19.632-1.854-29.473-2.304c-23.864-1.092-47.64-1.135-71.492,0.17
		c-6.417,0.351-12.023,1.114-17.364-2.781C201.929,125.718,199.624,125.687,196.57,124.523z"/>
	<path style="fill:#C1ABA3;" d="M255.413,79.468c-0.999,0.118-0.398,11.092-0.182,12.279c0.281,1.535,1.812,5.99,0.535,7.3
		c-0.859,0.876-4.307,0.216-5.473,0.273c-2.732,0.134-3.319-0.671-3.089-3.329c0.312-3.626,0.86-7.378,1.412-10.995
		C249.296,80.55,251.05,79.984,255.413,79.468z"/>
</g>
<path style="fill:#5B4C46;" d="M254.443,34.802c-0.694,4.527-2.363,8.715-2.685,13.399c-0.318,4.628,1.173,8.852,2.49,13.188
	c1.023,3.37,0.319,6.403,0.725,9.794c0.206,1.725,1.819,4.726-0.141,5.765c-2.643,1.401-5.212-2.048-5.992-4.06
	c-0.962-2.481-1.687-5.614-1.977-8.243c-0.294-2.661,0.955-5.121,1.179-7.717c0.165-1.916-0.196-3.547-0.616-5.324
	c-0.872-3.686-0.069-7.54,1.271-10.984C250.124,36.949,251.069,35.474,254.443,34.802z"/>
<path style="fill:#603123;" d="M212.241,329.904c-3.899,1.465-7.512,4.945-10.778,7.471c-2.629,2.033-5.988,4.083-6.827,7.428
	c3.82,0.432,8.191-0.752,12.042-0.992c7.605-0.473,15.086,0.006,22.693-0.387c7.563-0.39,15.077,0.369,22.619,0.446
	c7.611,0.078,15.212-0.156,22.813,0.269c8.237,0.461,16.516,0.344,24.756,0.686c3.804,0.158,9.798,0.774,13.496-0.337
	c3.468-1.042,4.006-2.812,0.245-3.931c-11.963-3.56-25.014-2.145-37.283-2.073c-12.119,0.071-28.166,0.782-39.068-5.483
	C229.064,328.474,222.312,328.758,212.241,329.904z"/>
<path d="M213.875,182.668c2.617-0.31,6.62-0.904,7.922-3.51c2.447-4.896-0.186-12.143-0.325-17.183
	c-0.112-4.067,1.128-8.04-3.076-10.179c-2.573-1.31-4.522-0.894-6.558-0.188c-2.914-0.094-6.454,0.188-8.101,1.502
	c-2.78,2.22-2.15,7.715-2.124,10.781c0.042,5.109,0.75,10.771,2.626,15.536C205.914,183.674,209.707,183.159,213.875,182.668z
	 M207.135,172.818c-0.742-3.543-1.651-6.92-1.792-10.567c-0.104-2.702-0.566-5.177,2.076-6.441c0.357-0.17,0.742-0.317,1.14-0.453
	c2.367-0.04,5.092-1.112,7.119-0.219c3.01,1.324,1.752,6.954,2.008,9.968c0.21,2.47,2.138,9.516,0.351,11.691
	c-1.459,1.775-5.487,1.773-7.555,1.591C207.563,178.13,207.663,175.341,207.135,172.818z"/>
<path d="M232.453,179.254c3.482,2.644,9.778,1.899,13.816,1.234c8.514-1.405,5.736-15.441,5.317-21.413
	c-0.28-3.976,0.096-8.18-4.696-8.892c-3.404-0.506-9.862-0.309-12.425,2.185c-0.125,0.121-0.202,0.27-0.26,0.426
	c-1.278,0.361-2.395,0.912-3.157,1.737c-2.885,3.122-1.872,9.09-1.584,12.857C229.781,171.476,228.798,176.478,232.453,179.254z
	 M233.994,156.997c1.161-1.281,3.649-2.104,5.987-2.778c0.728-0.051,1.457-0.096,2.184-0.165c2.065-0.199,4.294-1.055,5.549,1.651
	c0.265,0.569,0.04,2.462,0.096,3.215c0.192,2.6,0.805,5.283,0.839,7.899c0.03,2.298-0.038,8.605-2.29,9.805
	c-3.055,1.628-11.068-0.396-12.432-3.023c-0.905-1.745-0.489-5.015-0.696-6.96C232.864,163.178,231.567,159.673,233.994,156.997z"/>
<path d="M124.25,243.138c0.898,0.114,1.468-0.193,2.336-0.326c0.816-0.125,1.63,0.037,2.439-0.099
	c0.99-0.168,2.02-0.571,3.019-0.788c0.543-0.119,1.121-0.224,1.621-0.486c2.202-1.157,2.371-4.808,1.945-6.944
	c-0.329-1.644-0.288-3.453-0.703-5.052c-0.233-0.9-0.661-1.519-1.531-1.895c-2.872-1.239-6.354,0.689-9.032,1.405
	c-0.256,0.069-0.446,0.217-0.573,0.406c-0.577,0.28-1.096,0.661-1.493,1.172c-2.275,2.934-0.158,8.316,0.471,11.466
	C122.895,242.726,123.596,243.055,124.25,243.138z M124.258,232.571c0.634-1.45,2.575-1.222,3.824-1.673
	c0.689-0.248,1.394-0.522,2.082-0.807c0.846-0.118,1.773-0.165,2.166,0.536c0.325,0.579,0.165,2.307,0.311,2.999
	c0.299,1.423,0.636,2.621,0.262,4.085c-0.365,1.425-0.859,1.325-2.311,1.512c-1.126,0.144-2.21,0.306-3.348,0.383
	c-0.608,0.041-1.25,0.228-1.882,0.344C124.584,237.661,123.375,234.59,124.258,232.571z"/>
<path d="M154.436,232.645c2.029,2.001,5.675,2.036,8.154,1.131c1.559-0.569,2.979-1.433,4.603-1.845
	c0.893-0.226,1.845-0.155,2.519-0.904c1.796-1.993,0.161-5.783-0.451-7.858c-1.345-4.569-4.008-4.105-8.102-3.26
	c-3.099,0.64-7.513,2.025-7.921,5.756c-0.153,1.395,0.072,3.214,0.183,4.597C153.5,231.255,153.716,231.935,154.436,232.645z
	 M156.059,225.126c0.855-0.932,3.412-1.493,4.605-1.878c0.16-0.051,0.428-0.175,0.734-0.318c0.359-0.063,0.718-0.128,1.082-0.171
	c0.814-0.096,1.537-0.397,2.32-0.527c1.29-0.212,1.149-0.013,1.624,0.936c0.313,0.625,2.142,5.245,1.481,5.858
	c-0.144,0.134-1.272-0.023-1.512,0.013c-0.701,0.106-1.394,0.429-2.041,0.697c-1.934,0.798-5.534,2.986-7.545,1.079
	C155.688,229.753,155.07,226.205,156.059,225.126z"/>
<path d="M194.039,228.836c1.722,0.986,4.345,0.097,6.236,0.21c2.153,0.128,5.017,0.44,6.7-1.251
	c1.927-1.938,2.009-5.786,1.841-8.286c-0.12-1.778-0.099-3.909-1.967-4.762c-1.056-0.482-2.273-0.232-3.362-0.004
	c-1.159,0.242-2.309,0.523-3.46,0.803c-1.778,0.055-3.596,0.489-5.093,1.063c-2.249,0.862-2.588,2.227-2.659,4.484
	C192.209,223.232,191.814,227.561,194.039,228.836z M195.33,219.138c0.835-0.735,2.7-0.667,3.74-0.877
	c0.967-0.196,1.996-0.366,2.99-0.619c0.1-0.012,0.196-0.007,0.298-0.022c0.852-0.128,2.654-1.03,3.372-0.417
	c0.519,0.443,0.251,1.354,0.21,2.005c-0.112,1.761,0.161,4.724-1.029,6.163c-0.94,1.137-3.378,0.576-4.635,0.513
	c-1.179-0.059-2.257,0.058-3.419,0.204c-1.271,0.161-0.985,0.195-1.493-0.791c-0.403-0.784-0.507-2.42-0.55-3.196
	C194.767,221.237,194.572,219.806,195.33,219.138z"/>
<path d="M225.055,222.068c0.162,0.844,0.432,1.586,1.035,2.222c1.166,1.233,2.732,1.211,4.301,1.021
	c2.434-0.296,5.196,0.237,7.562-0.289c4.12-0.915,4.216-7.628,3.758-10.85c-0.057-0.401-0.501-0.805-0.886-0.886
	c-0.903-0.188-1.829-0.268-2.713-0.125c-2.236-0.802-4.601,0.352-6.953,0.689c-1.594,0.228-4.097,0.417-5.536,1.253
	c-1.3,0.755-1.594,1.998-1.242,3.399C224.69,219.724,224.819,220.839,225.055,222.068z M227.511,218.493
	c0.466-1.241,2.288-1.708,3.397-2.019c2.594-0.727,5.642-1.086,8.338-0.876c-0.066,1.405-0.489,2.822-0.798,4.189
	c-0.421,1.86-1.32,2.153-3.173,2.323c-1.182,0.107-2.395-0.086-3.591,0.059c-0.641,0.078-1.573,0.489-2.196,0.36
	C228.059,222.231,227.029,219.779,227.511,218.493z"/>
<path d="M510.995,439.246c-1.279-2.172-3.704-3.393-5.075-5.386c-0.801-1.165-0.371-1.084-0.459-3.862
	c-0.066-2.082-0.252-4.141-0.454-6.213c-0.411-4.19-1.192-8.313-1.356-12.509c-0.089-2.268,0.262-4.791-0.069-7.099
	c1.866-1.116,2.504-3.272,2.381-7.217c-0.177-5.642-0.063-11.197-0.607-16.786c0.267-4.77,0.495-9.542,0.693-14.302
	c0.348-8.313-6.696-7.216-13.244-7.598c-4.667-0.273-12.803-1.514-14.294,4.351c-0.848,3.342,0.07,7.117,0.2,10.514
	c0.125,3.24,0.742,3.597-2.481,3.38c-2.11-0.142-4.314-0.106-6.43-0.161c-2.69-0.07-1.759,0.312-2.379-1.192
	c-0.594-1.441-0.076-4.325-0.245-5.958c-0.298-2.878,0.648-6.398-0.058-9.166c-0.514-2.012-1.441-2.741-3.317-3.335
	c-1.712-0.542-4.169-0.221-5.961-0.372c-1.74-0.147-3.584-0.564-5.323-0.585c-3.39-0.042-7.408-0.175-10.742,0.39
	c-2.165,0.367-3.976,1.084-4.909,3.212c-1.01,2.305-0.367,5.972-0.224,8.451c0.128,2.219,0.555,4.518,0.259,6.754
	c-0.191,1.44-0.653,2.644-0.752,4.004c-0.678,0.149-1.462,0.051-2.436,0.045c-1.07-0.007-2.083-0.347-2.485-0.172
	c0.02-0.332,0.047-0.654,0.045-0.814c-0.023-3.651-0.486-7.642-1.027-11.279c-0.776-5.225-0.11-8.116-5.824-8.875
	c-3.839-0.51-12.972-3.66-14.26,2.427c-0.679,3.21,0.39,7.053,0.019,10.411c-0.161,1.449-0.424,2.869-0.715,4.297
	c-0.029,0.142-0.164,0.474-0.295,0.832c-1.093-0.367-2.764-0.412-4.549-0.315c1.54-2.542,0.585-5.887,0.639-8.992
	c0.072-4.088,0.117-7.653-0.22-11.755c-0.536-6.548,0.478-14.196-1.892-20.488c2.59-1.176,4.395-3.429,4.673-7.456
	c0.438-6.367-0.811-12.87-0.53-19.266c0.154-3.513,0.803-7.016,0.778-10.534c-0.005-0.621-0.146-4.336-0.637-6.257
	c4.726-2.654,8.871-9.106,10.461-13.366c0.266-0.711,0.467-1.443,0.615-2.189c1.977-3.944,1.297-7.645,1.394-11.766
	c0.113-4.805,0.644-9.712,0.825-14.547c0.21-5.609-0.083-11.291-2.245-16.544c-2.805-6.808-9.22-8.209-15.554-10.416
	c-8.817-3.072-17.695-5.664-26.576-8.501c-4.888-1.561-9.88-2.749-14.803-4.19c-3.605-1.055-7.623-1.618-11.109-2.979
	c-8.384-3.275-16.135-10.048-20.502-17.942c-4.698-8.496-3.259-20.78-3.477-30.216c-0.083-3.56-0.121-6.995,0.079-10.518
	c0.09-1.581-0.522-3.52-0.766-5.304c4.79,0.291,8.376-0.817,7.528-6.824c-0.373-2.64-0.625-6.61-2.587-8.679
	c-2.128-2.242-6.557-3.091-9.403-3.676c-1.819-0.374-3.991-0.933-5.841-1c-0.535-0.133-1.074-0.231-1.618-0.311
	c-0.014-0.32-0.049-0.731-0.108-1.251c0.502-3.306-0.266-6.97-1.678-9.966c-3.047-6.465-7.773-9.564-14.665-10.701
	c-8.024-1.324-15.781-1.872-23.855-2.25c-2.856-0.134-5.38,0.077-8.091,0.312c-0.035-0.005-0.07-0.006-0.105-0.01
	c0.454-5.118-0.653-14.267-4.913-18.547c4.603-4.415,2.492-9.056,3.693-15.288c0.938-4.872,3.21-9.634,0.802-14.585
	c-0.923-1.897-1.856-2.273-3.606-3.232c-2.577-1.412-1.285,0.171-2.089-2.483c-0.213-0.704-0.172-1.739-0.375-2.484
	c-0.625-2.304-0.833-5.92-2.657-7.487c-2.814-2.417-4.626-0.132-5.911,2.399c-1.357,2.673-3.059,6.064-3.962,8.991
	c-0.86,2.785-0.312,5.599-0.416,8.42c-0.103,2.787-1.63,5.055-1.828,7.869c-0.169,2.393,0.104,5.176,0.512,7.538
	c0.382,2.212,1.142,4.682,2.591,6.458c1.161,1.423,2.598,1.857,3.979,2.587c-1.663,0.928-3.007,2.418-3.74,4.269
	c-1.575,3.978-3.091,11.156-1.886,15.502c-2.343-0.196-4.592-0.347-7.095-0.23c-8.075,0.378-15.832,0.926-23.855,2.25
	c-6.893,1.137-11.618,4.238-14.665,10.701c-1.412,2.997-2.181,6.66-1.678,9.966c-0.061,0.521-0.094,0.931-0.108,1.251
	c-0.543,0.082-1.084,0.179-1.618,0.311c-1.852,0.066-4.022,0.626-5.841,1c-2.847,0.585-7.276,1.434-9.403,3.676
	c-1.962,2.068-2.214,6.038-2.587,8.679c-0.847,6.007,2.738,7.115,7.528,6.824c-0.244,1.784-0.855,3.723-0.766,5.304
	c0.199,3.522,0.162,6.957,0.079,10.518c-0.219,9.436,1.221,21.722-3.477,30.216c-4.367,7.896-12.118,14.668-20.502,17.942
	c-3.486,1.362-7.504,1.925-11.109,2.979c-4.923,1.44-9.915,2.629-14.803,4.19c-8.88,2.837-17.759,5.43-26.576,8.501
	c-6.334,2.207-12.751,3.607-15.554,10.416c-2.164,5.252-2.455,10.934-2.245,16.544c0.181,4.834,0.712,9.74,0.825,14.547
	c0.097,4.121-0.584,7.821,1.394,11.766c0.148,0.747,0.35,1.479,0.615,2.189c1.591,4.261,5.735,10.713,10.461,13.366
	c-0.492,1.921-0.633,5.636-0.637,6.257c-0.024,3.518,0.623,7.02,0.778,10.534c0.281,6.396-0.968,12.899-0.53,19.266
	c0.277,4.027,2.082,6.282,4.673,7.456c-2.37,6.292-1.356,13.939-1.891,20.488c-0.336,4.102-0.291,7.668-0.22,11.755
	c0.055,3.105-0.902,6.451,0.639,8.992c-1.785-0.098-3.456-0.052-4.549,0.315c-0.131-0.358-0.266-0.69-0.295-0.832
	c-0.291-1.429-0.555-2.848-0.715-4.297c-0.372-3.358,0.698-7.201,0.019-10.411c-1.288-6.087-10.421-2.938-14.26-2.427
	c-5.713,0.76-5.048,3.649-5.824,8.875c-0.541,3.638-1.004,7.629-1.027,11.279c-0.001,0.162,0.026,0.482,0.045,0.815
	c-0.402-0.175-1.416,0.165-2.485,0.172c-0.974,0.006-1.758,0.104-2.435-0.045c-0.1-1.36-0.562-2.564-0.753-4.004
	c-0.296-2.236,0.131-4.535,0.259-6.754c0.142-2.478,0.787-6.145-0.224-8.451c-0.933-2.129-2.744-2.845-4.909-3.212
	c-3.334-0.564-7.353-0.432-10.742-0.39c-1.739,0.021-3.582,0.438-5.323,0.585c-1.792,0.151-4.248-0.17-5.961,0.372
	c-1.877,0.594-2.805,1.323-3.317,3.335c-0.706,2.769,0.24,6.289-0.058,9.166c-0.169,1.631,0.35,4.515-0.245,5.958
	c-0.62,1.504,0.311,1.122-2.379,1.192c-2.116,0.055-4.319,0.02-6.428,0.161c-3.223,0.217-2.605-0.14-2.481-3.38
	c0.132-3.397,1.049-7.171,0.2-10.514c-1.489-5.865-9.626-4.622-14.294-4.351c-6.547,0.382-13.591-0.714-13.243,7.598
	c0.199,4.76,0.426,9.531,0.694,14.302c-0.545,5.59-0.431,11.145-0.608,16.786c-0.124,3.945,0.515,6.101,2.381,7.217
	c-0.331,2.306,0.021,4.83-0.068,7.099c-0.164,4.196-0.945,8.318-1.356,12.509c-0.203,2.072-0.388,4.131-0.454,6.213
	c-0.089,2.778,0.341,2.696-0.459,3.862c-1.37,1.993-3.795,3.214-5.075,5.386c-1.149,1.952-1.426,3.743-0.212,5.785
	c2.059,3.464,4.811,2.461,4.667,7.386c-0.093,3.181-1.77,9.637-1.099,14.465c-0.423,3.67-0.128,7.283,2.337,9.004
	c2.196,1.533,5.221,0.904,7.708,1.057c3.936,0.24,7.621,0.888,11.592,0.846c17.731-0.188,35.526,0.097,53.274,0.524
	c19.498,0.47,39.049-0.024,58.563,0.315c18.055,0.313,36.136,0.927,54.166,0.88c10.848-0.029,21.803-0.698,32.637-0.199
	c10.295,0.473,21.238,0.583,31.369-1.486c10.13,2.068,21.074,1.959,31.369,1.486c10.832-0.498,21.788,0.171,32.637,0.199
	c18.031,0.047,36.111-0.566,54.166-0.88c19.513-0.338,39.065,0.155,58.563-0.315c17.746-0.426,35.543-0.712,53.274-0.524
	c3.972,0.042,7.655-0.606,11.593-0.846c2.485-0.151,5.512,0.477,7.708-1.057c2.466-1.721,2.76-5.334,2.337-9.004
	c0.67-4.827-1.006-11.284-1.1-14.465c-0.144-4.927,2.608-3.923,4.667-7.386C512.421,442.988,512.144,441.197,510.995,439.246z
	 M248.378,62.777c0.079-3.353,1.811-6.087,1.665-9.538c-0.09-2.14-0.957-4.21-0.703-6.353c0.283-2.384,1.933-4.978,2.865-7.17
	c0.444-1.044,1.006-5.432,2.476-2.89c-0.016-0.028,0.207,2.494,0.311,3.116c0.373,2.233-0.274,5.09,0.491,7.206
	c0.979,2.709,4.217,2.554,5.459,5.121c1.222,2.527-0.707,7.601-1.147,10.234c-0.795,4.773,0.619,9.367-2.711,12.971
	c-0.325,0.007-0.662,0.041-1.057,0.107c-0.495,0.083-0.964,0.062-1.431,0.015c-0.141-0.19-0.305-0.366-0.514-0.501
	C249.656,72.21,248.259,67.855,248.378,62.777z M250.185,87.205c0.282-1.771,0.246-3.971,1.319-5.475
	c1.539-2.157,4.476-2.844,6.772-0.022c3.562,4.378,1.124,10.573,2.158,15.568c-1.141,0.003-2.272,0.031-3.364,0.073
	c-2.729,0.106-5.612,0.151-8.47,0.368c-0.082-0.007-0.157-0.014-0.238-0.02C249.551,94.463,249.643,90.612,250.185,87.205z
	 M204.943,112.899c2.015-10.344,13.419-9.296,21.692-10.479c6.277-0.898,12.436-0.799,18.537-1.297
	c3.427,0.508,6.934,0.53,10.386,0.332c3.147-0.181,6.254-0.142,9.328-0.514c6.734,0.71,13.529,0.485,20.47,1.479
	c8.273,1.183,19.677,0.135,21.693,10.479c0.417,2.141-0.531,5.852-0.401,8.949c-1.645-0.17-3.308-0.284-5.063-0.273
	c-4.864,0.033-9.964-0.285-15.009-0.239c-5.045-1.043-10.474-0.926-15.511-0.944c-6.694-0.022-13.568,0.045-20.249,0.403
	c-6.544,0.351-13.047,0.69-19.609,0.802c-6.87-0.604-14.062,0.023-20.799-0.023c-1.755-0.012-3.418,0.103-5.063,0.273
	C205.475,118.752,204.526,115.04,204.943,112.899z M185.748,135.892c-0.459,0.047-3.447,0.058-2.949,0.459
	c-1.578-1.27,0.501-5.903,1.653-6.727c2.594-1.856,8.251-1.899,11.28-2.277c2.29-0.285,5.299,0.237,7.33-0.849
	c0.101-0.054,0.178-0.126,0.271-0.186c2.663-0.057,5.336,0.008,7.983,0.117c1.713,0.07,3.399,0.04,5.077-0.033
	c4.236,0.493,8.83-0.118,12.902-0.198c7.097-0.141,14.111-0.01,21.192-0.301c6.815-0.28,13.765-0.408,20.578-0.437
	c5.005-0.021,10.746,0.896,15.909,0.126c4.501,0.616,9.022,1.031,13.702,0.842c2.649-0.107,5.32-0.172,7.983-0.117
	c0.093,0.061,0.17,0.132,0.272,0.186c2.031,1.086,5.041,0.564,7.33,0.849c3.03,0.378,8.687,0.421,11.28,2.277
	c1.151,0.824,3.231,5.457,1.653,6.727c0.498-0.4-2.49-0.412-2.949-0.459c-4.039-0.408-7.309-0.56-11.335-0.246
	c-7.006,0.549-13.97-0.747-20.958-0.91c-3.15-0.073-6.246-0.23-9.39-0.29c-0.416-0.008-0.887,0.006-1.376,0.024
	c-11.37-2.364-24.168-0.778-35.619-0.853c-5.501-0.036-11.11,0.205-16.603,0.369c-2.979,0.09-6.155,0.132-9.178,0.629
	c-1.244,0.044-2.489,0.09-3.744,0.12c-6.988,0.163-13.951,1.459-20.958,0.91C193.057,135.331,189.786,135.485,185.748,135.892z
	 M191.38,181.141c1.024-9.452-0.157-19.223-0.227-28.706c-0.02-2.674,0.157-7.468-0.82-10.991
	c8.166-1.028,16.317-1.271,24.506-2.131c3.787-0.397,7.625-0.59,11.433-0.853c7.377,0.267,14.727,0.234,22.181,0.394
	c6.167,0.132,12.347,0.059,18.515,0.069c5.869,0.009,11.788,0.732,17.548-0.544c0.015,0.001,0.031,0.002,0.047,0.002
	c4.185,0.309,8.421,0.494,12.592,0.932c8.189,0.859,16.34,1.102,24.506,2.131c-0.978,3.522-0.801,8.317-0.82,10.991
	c-0.07,9.484-1.251,19.254-0.227,28.706c1.015,9.371,6.791,17.69,14.454,23.491c-10.148-1.598-20.312-2.96-30.544-3.935
	c-5.969-0.57-14.822,1.515-17.447-5.182c-0.931-2.375-0.994-5.769-3.232-7.426c-3.125-2.313-10.67-1.115-14.309-1.509
	c-4.55-0.492-8.962-1.01-13.539-0.855c-4.577-0.154-8.987,0.364-13.539,0.855c-3.639,0.394-11.184-0.805-14.309,1.509
	c-2.238,1.657-2.302,5.051-3.232,7.426c-2.625,6.696-11.477,4.612-17.447,5.182c-10.231,0.976-20.395,2.339-30.543,3.935
	C184.589,198.831,190.365,190.512,191.38,181.141z M283.943,201.276c-0.305,0.03-0.607,0.07-0.911,0.101
	c-3-0.553-6.318-0.158-9.247,0.04c-5.079,0.343-10.121-0.361-15.201-0.218c-8.376,0.237-17.986-1.058-26.516,0.526
	c-1.335-0.157-2.67-0.316-4.018-0.449c1.17-1.909,1.501-4.217,1.827-6.571c0.465-3.357-0.178-3.888,3.816-3.852
	c3.317,0.03,6.398,0.376,9.741,0.142c4.216-0.295,8.38-0.572,12.563-1.108c4.182,0.536,8.348,0.813,12.562,1.108
	c3.343,0.234,6.424-0.112,9.741-0.142c3.994-0.036,3.351,0.495,3.816,3.852C282.442,197.059,282.774,199.367,283.943,201.276z
	 M98.934,251.594c-0.124-5.118-1.39-9.401,0.126-14.545c1.536-5.211,4.09-6.463,8.809-8.529c17.007-7.447,35.031-12.159,53.076-16.3
	c2.229-0.512,4.451-1.241,6.624-2.161c1.786-0.282,3.571-0.548,5.331-0.778c11.772-1.543,23.717-3.21,35.588-3.902
	c2.659,0.531,5.495,0.39,8.17,0.273c3.733-0.164,7.281,0.17,11,0.327c3.365,0.142,6.995,0.357,10.595,0.315
	c6.928,0.418,14.166-0.288,20.718-0.14c4.584,0.104,9.241,0.516,13.83,0.252c2.808-0.162,6.052,0.08,9.035-0.313
	c0.847-0.038,1.683-0.078,2.503-0.113c3.717-0.157,7.265-0.492,11-0.327c2.675,0.118,5.51,0.259,8.169-0.273
	c11.871,0.692,23.816,2.36,35.588,3.902c1.759,0.231,3.543,0.496,5.331,0.778c2.173,0.921,4.395,1.65,6.624,2.161
	c18.044,4.141,36.068,8.853,53.076,16.3c4.719,2.066,7.273,3.32,8.809,8.529c1.516,5.143,0.249,9.428,0.126,14.545
	c-0.021,0.855-0.057,1.718-0.103,2.584c-0.509-0.157-0.985-0.306-1.395-0.454c-7.366-2.646-15.6-4.322-23.202-6.261
	c-14.376-3.667-28.788-6.798-43.311-9.712c-15.067-3.023-30.12-4.05-45.366-5.298c-11.258-0.921-22.907-1.944-34.317-1.49
	c-3.695-0.552-7.436-0.738-11.234-0.502c-3.955,0.245-7.863,0.059-11.756,0.397c-10.039-0.097-20.201,0.788-30.064,1.595
	c-15.247,1.248-30.299,2.274-45.366,5.298c-14.523,2.914-28.936,6.045-43.311,9.712c-7.602,1.939-15.835,3.615-23.202,6.261
	c-0.41,0.147-0.886,0.297-1.395,0.454C98.99,253.311,98.954,252.449,98.934,251.594z M99.984,273.324
	c-0.065-0.119-0.137-0.234-0.2-0.354c0.319-4.841-0.122-9.854-0.484-14.775c3.58-1.272,7.142-2.291,10.832-3.272
	c6.784-1.804,13.45-3.896,20.269-5.583c14.058-3.477,27.893-6.497,42.296-8.123c14.301-1.614,28.589-2.905,42.894-4.312
	c9.78-0.961,19.605-1.519,29.397-2.367c2.972,0.077,5.968-0.093,8.822-0.278c4.516-0.292,9.262,0.456,13.863,0.333
	c9.572,0.816,19.174,1.371,28.732,2.312c14.305,1.408,28.593,2.697,42.894,4.312c14.403,1.625,28.238,4.647,42.296,8.123
	c6.819,1.686,13.485,3.779,20.269,5.583c3.69,0.981,7.252,2.001,10.832,3.272c-0.362,4.921-0.804,9.933-0.484,14.775
	c-0.063,0.12-0.135,0.235-0.2,0.354c-10.664-5.577-23.563-4.854-34.772-8.604c-11.327-3.789-24.015-4.838-35.809-6.286
	c-11.766-1.445-23.521-2.896-35.344-3.388c-7.829-0.326-16.068-1.122-24.163-1.062c-1.458-0.221-2.941-0.392-4.47-0.496
	c-6.25-0.425-12.521-0.381-18.79-0.367c-6.209,0.014-12.437,0.38-18.661,0.487c-4.398,0.076-8.884-0.097-13.262,0.39
	c-7.009,0.13-14.07,0.766-20.825,1.046c-11.823,0.493-23.577,1.944-35.344,3.388c-11.794,1.448-24.482,2.497-35.809,6.286
	C123.547,268.469,110.648,267.747,99.984,273.324z M107.457,282.37c-1.515-1.069-3.006-2.671-4.152-4.147
	c-0.424-0.548-0.834-1.096-1.235-1.649c4.044-0.4,8.24-1.923,12.02-2.621c6.431-1.186,13.28-1.293,19.542-3.246
	c11.783-3.676,24.036-5.012,36.229-6.567c11.927-1.522,24.061-2.696,36.049-3.251c5.784-0.267,11.575-0.454,17.349-0.904
	c5.818-0.453,11.424,0.132,17.09-1.004c5.812,0.024,11.608-0.157,17.392-0.138c5.086,0.016,10.194,0.369,15.27,0.36
	c5.202,0.805,10.372,0.366,15.72,0.783c5.774,0.45,11.565,0.637,17.349,0.904c11.989,0.553,24.122,1.728,36.049,3.251
	c12.193,1.556,24.446,2.891,36.229,6.567c6.262,1.954,13.111,2.06,19.542,3.246c3.78,0.698,7.976,2.221,12.02,2.621
	c-0.401,0.552-0.811,1.102-1.235,1.649c-1.144,1.476-2.636,3.078-4.152,4.147c-1.51,1.065-0.959,1.127-2.847,1.256
	c-0.901,0.062-1.807-0.031-2.71-0.196c0.149-0.333,0.281-0.675,0.375-1.029c0.192-0.722,0.04-1.408,0.163-2.107
	c0.078-0.442,0.285-0.882,0.378-1.331c0.296-1.443-0.403-2.932-1.898-3.343c-1.305-0.359-3.108,0.447-3.343,1.898
	c-0.211,1.304-0.496,2.446-0.45,3.787c0.01,0.324-0.015,0.643-0.041,0.964c-2.489-0.528-4.981-1.053-7.475-1.574
	c0.02-0.035,0.041-0.07,0.061-0.105c0.704-1.214,1.213-2.972,1.249-4.357c0.04-1.512-1.309-2.79-2.79-2.79
	c-1.559,0-2.716,1.284-2.79,2.79c-0.048,1.001-0.108,1.997-0.144,2.997c-0.007,0.197,0.001,0.374,0.009,0.552
	c-2.857-0.586-5.718-1.156-8.582-1.713c0.473-1.103,0.725-2.382,0.972-3.383c0.219-0.887,0.051-2.109-0.719-2.718
	c-0.613-0.486-1.15-0.837-1.976-0.818c-1.278,0.028-2.298,0.854-2.694,2.051c-0.353,1.068-0.727,2.525-0.733,3.892
	c-2.179-0.404-4.363-0.784-6.545-1.163c0.11-0.52,0.169-1.055,0.22-1.568c0.005-0.049,0.045-0.265,0.065-0.424
	c0.077-0.121,0.162-0.266,0.188-0.31c0.393-0.694,0.58-1.489,0.548-2.283c-0.063-1.524-1.236-2.813-2.813-2.813
	c-1.406,0-2.972,1.299-2.813,2.813c0.129-0.221,0.13-0.174,0.003,0.143c-0.023,0.094-0.047,0.189-0.07,0.283
	c-0.089,0.376-0.163,0.762-0.176,1.149c-0.021,0.604,0.114,1.2,0.217,1.793c0.026,0.153,0.051,0.306,0.077,0.46
	c-2.005-0.325-4.011-0.655-6.021-0.947c-1.164-0.169-2.328-0.322-3.492-0.478c0.098-0.207,0.2-0.41,0.295-0.627
	c0.577-1.335,1.235-3.436,0.666-4.862c-0.544-1.364-1.79-2.316-3.332-1.892c-1.385,0.381-2.309,1.927-1.893,3.327
	c-0.145,0.759,0.058-0.128-0.034,0.4c-0.142,0.825-0.282,1.644-0.35,2.481c-0.018,0.209-0.026,0.398-0.028,0.576
	c-2.978-0.364-5.959-0.693-8.941-1.004c0.563-1.323,0.766-2.864,0.881-4.279c0.114-1.397-1.271-2.58-2.58-2.58
	c-1.443,0-2.511,1.189-2.58,2.58c-0.047,0.939-0.415,2.453-0.422,3.811c-3.279-0.323-6.56-0.628-9.844-0.932
	c0.093-0.44,0.179-0.884,0.341-1.299c0.459-1.172,0.65-2.499,0.597-3.628c-0.104-2.166-2.622-3.244-4.233-1.754
	c-1.183,1.094-1.034,2.667-1.271,4.025c-0.129,0.742-0.144,1.498-0.033,2.228c-2.121-0.197-4.239-0.392-6.363-0.594
	c-0.783-0.075-1.557-0.141-2.336-0.213c0.006-0.017,0.013-0.036,0.019-0.055c0.604-1.895,0.826-3.901-0.522-5.515
	c-1.186-1.42-4.105-0.745-4.384,1.157c-0.09,0.616-0.098,1.102-0.036,1.709c-0.035-0.352,0.012,0.237,0.01,0.345
	c-0.007,0.496-0.013,0.387-0.105,0.916c-0.057,0.332-0.104,0.665-0.129,0.996c-2.829-0.232-5.643-0.428-8.45-0.585
	c0.271-0.961,0.453-1.984,0.799-2.836c0.442-1.087-0.292-2.488-1.237-3.041c-1.036-0.606-2.413-0.417-3.264,0.422
	c-0.274,0.269-0.502,0.58-0.721,0.896c-0.36,0.52-0.433,1.066-0.343,1.582c-0.178,0.898-0.219,1.839-0.122,2.751
	c-1.657-0.059-3.315-0.076-4.973-0.093c-0.555-0.057-1.11-0.106-1.665-0.158c0.038-0.113,0.077-0.225,0.112-0.339
	c0.038-0.122,0.044-0.16,0.038-0.161c0.812-1.841,1.292-3.689-0.667-5.028c-1.192-0.814-2.849-0.192-3.556,0.932
	c-0.563,0.896-0.487,2.306-0.456,3.358c0.008,0.279,0.04,0.577,0.082,0.876c-1.644-0.112-3.291-0.2-4.938-0.275
	c-0.021-0.659-0.104-1.321-0.181-1.941c-0.185-1.484-0.436-3.373-2.16-3.83c-1.46-0.387-2.587,0.697-2.724,2.075
	c-0.065,0.654,0.023,1.289,0.1,1.928c-0.023,0.26-0.038,0.52-0.068,0.777c-0.03,0.275-0.063,0.546-0.089,0.815
	c-2.611-0.066-5.222-0.104-7.834-0.114c0.022-0.133,0.061-0.407,0.084-0.514c0.226-1.052,0.206-2.026,0.162-3.094
	c0.042-2.942-4.495-2.938-4.566,0c-0.021,0.859-0.079,1.469-0.282,2.258c-0.112,0.436-0.182,0.893-0.226,1.346
	c-2.547,0.006-5.104-0.04-7.654-0.024c0.091-0.992-0.009-2.011-0.042-2.995c-0.093-2.803-4.381-2.824-4.372,0
	c0.002,0.763-0.275,1.489-0.227,2.258c0.016,0.267,0.055,0.524,0.108,0.777c-0.015,0.055-0.028,0.11-0.043,0.164
	c-2.314,0.262-4.599,0.733-6.932,0.919c-0.013,0-0.026-0.001-0.038-0.001c0.101-0.46,0.157-0.962,0.17-1.406
	c0.031-1.053,0.107-2.462-0.456-3.358c-0.707-1.126-2.364-1.747-3.556-0.932c-1.959,1.339-1.479,3.186-0.667,5.028
	c-0.006,0.002,0.001,0.038,0.038,0.161c0.049,0.156,0.1,0.311,0.153,0.465c-2.229,0.005-4.453,0.045-6.679,0.125
	c0.097-0.912,0.056-1.853-0.122-2.751c0.091-0.516,0.017-1.064-0.343-1.582c-0.219-0.316-0.447-0.626-0.721-0.896
	c-0.851-0.839-2.227-1.027-3.264-0.422c-0.945,0.552-1.679,1.954-1.237,3.041c0.346,0.852,0.528,1.874,0.799,2.836
	c-2.807,0.157-5.621,0.353-8.45,0.585c-0.026-0.331-0.071-0.664-0.129-0.996c-0.092-0.528-0.099-0.418-0.105-0.916
	c-0.001-0.108,0.045-0.696,0.01-0.345c0.061-0.607,0.054-1.093-0.036-1.709c-0.278-1.902-3.197-2.577-4.384-1.157
	c-1.348,1.614-1.126,3.62-0.522,5.515c0.006,0.017,0.013,0.036,0.019,0.055c-0.78,0.071-1.553,0.139-2.336,0.213
	c-2.123,0.203-4.243,0.397-6.363,0.594c0.112-0.729,0.097-1.486-0.033-2.228c-0.238-1.357-0.087-2.931-1.271-4.025
	c-1.611-1.49-4.13-0.414-4.233,1.754c-0.055,1.13,0.136,2.456,0.595,3.628c0.163,0.415,0.248,0.859,0.341,1.299
	c-3.284,0.304-6.565,0.611-9.844,0.932c-0.007-1.359-0.375-2.873-0.422-3.811c-0.069-1.392-1.137-2.58-2.58-2.58
	c-1.309,0-2.694,1.184-2.58,2.58c0.115,1.415,0.318,2.956,0.881,4.279c-2.982,0.311-5.961,0.642-8.941,1.004
	c-0.002-0.177-0.01-0.367-0.028-0.576c-0.068-0.837-0.207-1.655-0.35-2.481c-0.091-0.528,0.112,0.359-0.034-0.4
	c0.416-1.399-0.508-2.946-1.893-3.327c-1.543-0.424-2.788,0.528-3.333,1.892c-0.569,1.426,0.089,3.527,0.667,4.862
	c0.094,0.217,0.196,0.419,0.295,0.627c-1.164,0.156-2.328,0.309-3.492,0.478c-2.01,0.291-4.015,0.621-6.021,0.947
	c0.026-0.154,0.051-0.308,0.077-0.46c0.103-0.593,0.238-1.19,0.217-1.793c-0.013-0.387-0.087-0.773-0.176-1.149
	c-0.023-0.094-0.047-0.189-0.07-0.283c-0.127-0.316-0.126-0.365,0.003-0.143c0.16-1.514-1.408-2.813-2.813-2.813
	c-1.577,0-2.75,1.289-2.813,2.813c-0.033,0.794,0.155,1.588,0.548,2.283c0.024,0.044,0.11,0.19,0.188,0.31
	c0.021,0.16,0.061,0.375,0.065,0.424c0.052,0.515,0.112,1.05,0.22,1.568c-2.184,0.378-4.366,0.757-6.545,1.163
	c-0.006-1.367-0.379-2.823-0.733-3.892c-0.396-1.198-1.416-2.024-2.694-2.051c-0.826-0.019-1.363,0.333-1.976,0.818
	c-0.77,0.611-0.938,1.832-0.719,2.718c0.247,1,0.499,2.279,0.971,3.383c-2.863,0.557-5.725,1.127-8.582,1.713
	c0.008-0.178,0.016-0.355,0.009-0.552c-0.036-1.001-0.097-1.997-0.144-2.997c-0.073-1.505-1.229-2.79-2.79-2.79
	c-1.481,0-2.829,1.277-2.79,2.79c0.036,1.385,0.545,3.143,1.249,4.357c0.021,0.035,0.041,0.07,0.061,0.105
	c-2.494,0.521-4.986,1.045-7.475,1.574c-0.026-0.319-0.052-0.64-0.041-0.964c0.047-1.342-0.239-2.484-0.45-3.787
	c-0.234-1.45-2.038-2.257-3.343-1.898c-1.495,0.41-2.193,1.9-1.898,3.343c0.092,0.449,0.299,0.889,0.378,1.331
	c0.125,0.699-0.029,1.384,0.163,2.107c0.094,0.354,0.226,0.696,0.375,1.029c-0.903,0.164-1.808,0.258-2.709,0.196
	C108.416,283.497,108.967,283.435,107.457,282.37z M399.737,340.727c-0.357,4.522-0.778,9.11-0.84,13.646
	c-0.054,3.957-0.128,7.791-0.28,11.755c-0.121,3.168-0.798,6.947,1.133,9.48c-1.272,0.163-2.32,0.305-2.878,0.329
	c-4.872,0.205-2.736-5.552-3.004-9.071c-0.185-2.434-0.104-5.052-0.46-7.442c-0.828-5.56-8.175-3.546-12.331-3.892
	c-5.12-0.428-12.922-2.608-14.129,4.294c-0.821,4.697-1.267,9.523-1.878,14.275c-1.143,0.164-2.298,0.298-3.404,0.435
	c-1.204-1.02-1.367-3.326-1.589-4.674c-0.419-2.53-0.62-4.561-0.365-7.126c0.108-1.081,0.471-2.185,0.149-3.278
	c-1.388-4.716-9.286-3.917-13.057-4.254c-5.704-0.51-9.174,0.482-10.197,6.754c-0.32,1.96,0.881,12.081-0.987,13.13
	c-0.517,0.29-2.541-0.17-3.303-0.172c-2.288-0.008-4.375-0.172-6.556-0.494c-0.358-4.332,0.459-8.771,0.683-13.028
	c0.121-2.297-0.097-4-2.362-5.007c-3.161-1.405-7.191-0.156-10.506-0.156c-2.27,0-4.491-0.076-6.708-0.006
	c0.386-1.79,0.574-3.578,0.957-5.436c0.269-1.309,0.908-2.484,0.663-3.871c-0.019-0.108-0.05-0.197-0.073-0.298
	c1.006,0.012,2.011,0.023,3.024,0.017c2.594-0.016,7.838,0.93,7.588-3.24c-0.104-1.713-1.445-2.802-2.656-3.799
	c-2.03-1.67-4.071-3.317-6.353-4.627c-0.315-0.181-0.621-0.361-0.929-0.542c-2.457-2.375-4.937-5.315-8.184-6.099
	c-4.568-1.102-9.755-0.842-14.431-1.208c-2.209-0.172-4.975-0.523-7.4-0.245c-3.331-0.189-6.71-0.08-9.943-0.054
	c-5.959,0.049-12.063-0.077-18.022-0.34c-5.449-0.241-10.811-0.683-16.255-0.242c-4.57,0.369-9.129,0.103-13.534,1.091
	c-3.455,0.12-6.998,0.218-10.233,0.999c-3.247,0.784-5.727,3.725-8.184,6.099c-0.308,0.181-0.614,0.361-0.929,0.542
	c-2.281,1.31-4.322,2.956-6.353,4.627c-1.211,0.996-2.552,2.086-2.656,3.799c-0.252,4.17,4.994,3.224,7.588,3.24
	c1.011,0.007,2.018-0.006,3.023-0.018c-0.023,0.101-0.054,0.19-0.073,0.298c-0.245,1.387,0.394,2.562,0.663,3.871
	c0.382,1.859,0.571,3.646,0.957,5.436c-2.217-0.07-4.438,0.006-6.708,0.006c-3.315,0-7.346-1.248-10.506,0.156
	c-2.265,1.007-2.482,2.71-2.362,5.007c0.224,4.257,1.041,8.696,0.683,13.028c-2.18,0.32-4.266,0.486-6.556,0.494
	c-0.761,0.003-2.785,0.464-3.303,0.172c-1.869-1.049-0.668-11.169-0.987-13.13c-1.023-6.271-4.493-7.264-10.197-6.754
	c-3.771,0.338-11.67-0.461-13.057,4.254c-0.322,1.093,0.041,2.196,0.149,3.278c0.256,2.566,0.055,4.597-0.364,7.126
	c-0.224,1.348-0.387,3.654-1.589,4.674c-1.105-0.136-2.259-0.27-3.402-0.435c-0.612-4.751-1.058-9.578-1.878-14.275
	c-1.207-6.902-9.009-4.721-14.129-4.294c-4.157,0.347-11.503-1.669-12.333,3.892c-0.357,2.39-0.275,5.008-0.46,7.442
	c-0.268,3.518,1.869,9.275-3.004,9.071c-0.558-0.023-1.606-0.167-2.878-0.329c1.931-2.534,1.254-6.312,1.133-9.48
	c-0.151-3.964-0.226-7.798-0.28-11.755c-0.061-4.536-0.484-9.124-0.84-13.646c-0.153-1.932,0.068-4.008-0.2-5.943
	c5.71,0.854,13.173-1.115,17.681-1.515c13.881-1.229,27.884-2.15,41.707-4.029c12.826-1.744,25.822-2.95,38.63-5.017
	c3.633-0.051,7.243-0.221,10.903-0.147c5.889,0.118,11.781,0.079,17.653-0.423c0.245-0.021,0.503-0.04,0.762-0.058
	c5.048,0.091,10.247-0.509,14.834-0.748c4.325-0.226,8.97,0.071,13.557,0.036c1.793,0.562,3.866,0.623,5.583,0.77
	c5.872,0.502,11.764,0.541,17.653,0.423c3.66-0.073,7.27,0.097,10.903,0.147c12.808,2.067,25.804,3.273,38.63,5.017
	c13.823,1.88,27.824,2.8,41.707,4.029c4.508,0.4,11.971,2.369,17.681,1.515C399.669,336.718,399.889,338.795,399.737,340.727z
	 M298.819,366.106c0.103,2.258,1.521,6.257,0.733,8.286c-0.662,1.706-4.735,1.86-6.737,1.488c-0.457-0.085-0.715-0.085-0.86-0.049
	c-0.042-0.078-0.094-0.165-0.175-0.281c-0.526-0.748-0.811-3.975-1.073-5.077c-0.893-3.758,0.155-10.69-3.99-12.809
	c-2.584-1.321-5.981-1.466-9.245-1.277c-5.361-1.302-12.292-0.566-16.685,1.776c-2.488,1.327-3.296,3.065-3.788,5.769
	c-0.428,2.349,0.551,10.923-1.155,12.271c-0.875,0.692-7.655-0.002-8.441-0.689c-1.23-1.074-0.36-3.915-0.406-6.054
	c-0.061-2.861-0.237-6.933-1.573-9.45c-2.327-4.382-8.254-4.5-13.429-3.686c-2.431,0.028-4.803,0.355-6.724,1.339
	c-4.145,2.12-3.097,9.051-3.99,12.809c-0.262,1.102-0.546,4.329-1.073,5.077c-0.08,0.115-0.134,0.204-0.175,0.281
	c-0.144-0.036-0.402-0.036-0.86,0.049c-2.001,0.372-6.075,0.218-6.737-1.488c-0.788-2.029,0.632-6.028,0.733-8.286
	c0.107-2.362,0.195-5.05-0.417-7.348c-0.232-0.869-0.981-1.674-1.875-1.875c-1.965-0.442-2.518-0.393-2.938-2.526
	c-0.317-1.616-0.182-3.245,0.601-4.719c1.282-2.413,2.749-1.892,5.155-1.981c2.756-0.103,5.523-0.327,8.288-0.629
	c4.185,0.109,8.372,0.106,12.56,0.205c7.812,0.185,15.614-0.163,23.409,0.498c8.095,0.686,16.243-0.594,24.36-0.086
	c3.682,0.231,6.977,0.15,10.234-0.364c1.916,0.172,3.83,0.305,5.74,0.376c2.407,0.089,3.873-0.432,5.155,1.981
	c0.783,1.474,0.919,3.103,0.601,4.719c-0.418,2.134-0.972,2.085-2.938,2.526c-0.895,0.202-1.643,1.006-1.875,1.875
	C298.624,361.056,298.712,363.744,298.819,366.106z M301.463,343.038c-3.957-0.318-8.131-0.034-12.003-0.454
	c-2.116-0.23-4.264-0.249-6.405-0.122c-0.648-0.033-1.292-0.075-1.941-0.1c-8.218-0.338-16.449-0.02-24.64-0.38
	c-8.06-0.354-16.088,0.101-24.151,0.164c-5.209,0.041-10.44,0.061-15.64,0.387c-1.507,0.094-2.922,0.134-4.285,0.416
	c-0.623,0.026-1.251,0.042-1.867,0.091c-1.758-0.366-3.499-0.612-5.43-0.558c-1.974,0.055-3.941,0.073-5.916,0.082
	c-0.364,0.001-0.728,0-1.093,0.001c0.275-0.114,0.516-0.324,0.724-0.63c1.399-0.909,2.491-2.337,3.862-3.313
	c1.274-0.905,2.603-1.679,3.836-2.643c1.452-1.134,2.819-2.319,4.126-3.574c0.112-0.036,0.213-0.079,0.332-0.113
	c2.321-0.664,4.913-0.148,7.274-0.224c3.333-0.107,6.664-0.724,9.992-0.833c1.916-0.063,3.46,0.065,4.953-0.315
	c5.694,0.047,11.31,0.1,17.027,0.53c5.865,0.442,12.035,0.559,17.919,0.477c5.774-0.082,12.468,0.936,18.081-0.534
	c2.51,0.224,5.021,0.593,7.533,0.675c2.361,0.077,4.952-0.44,7.274,0.224c0.119,0.034,0.219,0.077,0.331,0.113
	c1.307,1.255,2.674,2.44,4.126,3.574c1.233,0.964,2.562,1.736,3.836,2.643c1.37,0.975,2.462,2.404,3.862,3.313
	c0.207,0.308,0.449,0.517,0.724,0.63c-0.365-0.001-0.728,0.001-1.093-0.001c-1.976-0.008-3.942-0.027-5.916-0.082
	C304.962,342.427,303.221,342.673,301.463,343.038z M391.226,329.085c-6.003-1.331-12.012-2.007-18.028-3.136
	c-6.06-1.138-12.344-0.895-18.464-1.614c-6.229-0.732-12.433-1.064-18.676-1.357c-6.424-0.302-12.796-1.434-19.223-1.815
	c-4.397-0.26-9.048-0.854-13.616-1.018c-3.101-0.516-6.257-0.734-9.485-0.713c-5.034,0.033-10.084-0.141-15.114,0.089
	c-0.125,0.006-0.258,0.021-0.383,0.028c-7.462-1.97-16.598-1.441-24.01-1.039c-3.894,0.211-7.761,0.798-11.658,0.847
	c-2.682,0.034-5.423-0.016-8.106,0.245c-0.365-0.031-0.732-0.064-1.086-0.08c-5.031-0.231-10.08-0.057-15.114-0.089
	c-3.229-0.021-6.384,0.197-9.485,0.713c-4.568,0.164-9.218,0.757-13.616,1.018c-6.427,0.38-12.8,1.514-19.223,1.815
	c-6.243,0.292-12.447,0.626-18.676,1.357c-6.12,0.719-12.404,0.475-18.464,1.614c-6.016,1.129-12.025,1.806-18.028,3.136
	c-3.075,0.682-8.701,3.908-9.882-1.046c-0.101-0.426-0.136-0.907-0.142-1.41c2.978-0.389,8.668-1.05,9.347-1.176
	c6.181-1.148,12.399-1.708,18.587-2.864c9.183-1.715,18.258-2.799,27.555-3.589c10.094-0.858,20.397-2.041,30.525-2.201
	c5.101-0.08,10.359-0.816,15.448-1.347c2.843,0.151,5.719,0.073,8.517,0.113c2.045,0.028,4.167,0.14,6.299,0.192
	c3.146,0.454,6.476,0.094,9.619,0.144c5.927,0.094,11.78-0.175,17.681-0.502c8.295-0.46,16.578,0.51,24.855,0.226
	c4.008,0.34,8.187-0.007,12.094-0.061c2.798-0.038,5.673,0.038,8.517-0.113c5.09,0.533,10.347,1.267,15.448,1.347
	c10.128,0.16,20.431,1.344,30.525,2.201c9.297,0.79,18.373,1.872,27.555,3.589c6.188,1.156,12.407,1.718,18.587,2.864
	c0.679,0.126,6.369,0.786,9.347,1.176c-0.006,0.502-0.041,0.983-0.142,1.41C399.927,332.993,394.3,329.767,391.226,329.085z
	 M401.099,324.294c-9.584-3.252-19.253-4.669-29.365-6.23c-8.449-1.305-17.209-0.509-25.565-2.093
	c-9.399-1.782-19.355-4.077-28.95-3.892c-4.028,0.078-8.067,0.223-12.1,0.302c-4.505-0.954-9.275-0.724-13.85-0.788
	c-3.059-0.042-6.294-0.263-9.484-0.197c-3.59-0.453-7.172-0.445-10.954-0.465c-5.51-0.029-10.982-0.637-16.511-0.311
	c-5.584,0.33-11.116,0.728-16.722,0.796c-1.634,0.02-3.377,0.017-5.134,0.089c-3.903-0.29-7.957,0.036-11.742,0.089
	c-4.575,0.064-9.345-0.165-13.85,0.788c-4.033-0.079-8.071-0.224-12.1-0.302c-9.594-0.185-19.551,2.11-28.95,3.892
	c-8.356,1.584-17.116,0.788-25.565,2.093c-10.112,1.561-19.781,2.979-29.365,6.23c0.142-1.232,0.327-2.468,0.329-3.49
	c0.007-5.641-0.896-11.208-1.505-16.793c-0.376-3.447-0.799-6.839-0.811-10.314c-0.002-0.768-0.005-1.47-0.04-2.142
	c1.65-0.075,3.211-0.743,4.79-1.292c3.71-1.289,7.448-2.663,11.241-3.735c7.92-2.238,16.046-3.567,24.116-5.139
	c15.461-3.011,30.864-4.114,46.437-5.915c8.72-1.008,17.562-1.544,26.328-2.207c1.176-0.089,2.35-0.198,3.521-0.317
	c0.553,0.104,1.045,0.184,1.22,0.188c2.586,0.052,5.226-0.062,7.823-0.078c6.758-0.042,13.424-0.872,20.24-0.842
	c6.792,0.029,13.543,0.505,20.317,0.689c4.546,0.125,8.82,0.507,13.225,0.176c0.696,0.064,1.392,0.132,2.089,0.184
	c8.766,0.663,17.608,1.199,26.328,2.207c15.573,1.8,30.976,2.905,46.437,5.915c8.07,1.571,16.196,2.899,24.116,5.139
	c3.793,1.072,7.531,2.446,11.241,3.734c1.579,0.549,3.14,1.218,4.79,1.292c-0.035,0.671-0.037,1.374-0.04,2.142
	c-0.012,3.476-0.435,6.868-0.811,10.314c-0.609,5.586-1.512,11.153-1.505,16.793C400.772,321.825,400.957,323.062,401.099,324.294z
	 M11.569,365.014c0.99-1.309,2.96-1.089,4.714-1.205c2.42-0.158,9.311-1.758,11.104-0.149c0.268,0.133,0.426,0.122,0.494-0.008
	c-0.105,0.615-0.148,1.234-0.101,1.859c-0.056,2.053-0.261,4.018-0.443,6.061c-0.218,2.455-0.682,5.746,0.426,8.062
	c2.353,4.916,10.925,2.953,15.187,2.544c5.001-0.48,7.461-1.683,7.462-7.012c0.001-3.174,0.57-6.413,0.347-9.566
	c-0.073-1.038-0.859-2.829-0.728-3.755c-1.199-0.097-1.151-0.108,0.141-0.035c0.685-0.005,1.37-0.008,2.057-0.013
	c3.483-0.155,6.799-0.78,10.311-0.528c1.349,0.097,2.688,0.149,4.033,0.214c2.381,0.117,2.574-0.428,3.133,1.475
	c0.685,2.328-0.668,6.531-0.746,9.005c-0.065,2.053,0.066,3.56,0.367,5.141c-0.158,1.115-0.172,2.236,0.113,3.364
	c1.254,4.951,9.876,5.648,13.724,4.597c5.419-1.479,4.911-7.828,4.765-12.482c-0.045-1.43-1.941-9.859-0.953-10.753
	c0.157-0.142,4.656,0.059,5.182-0.001c4.114-0.475,3.185-1.121,3.95,1.514c0.837,2.879-0.251,7.427,0.121,10.534
	c0.254,2.118,0.311,5.38,1.61,7.103c1.356,1.8,3.197,1.754,5.162,1.475c2.618-0.371,5.186-0.474,7.829-0.429
	c4.198,0.072,11.177,2.1,13.28-3.166c1.384-3.467-1.034-7.619-0.887-11.172c0.055-1.329-0.121-4.875,0.186-6.861
	c2.819-0.106,5.637-0.107,8.471-0.351c1.289-0.111,5.312-0.915,6.519-0.398c0.696,0.298,1.02,0.33,1.155,0.311
	c-0.113,0.12-0.266,0.544,0.014,1.861c0.51,2.407,0.066,5.755,0.157,8.297c0.08,2.258,0.136,4.488,0.216,6.734
	c0.054,1.525,1.102,3.254,2.717,3.568c2.589,0.503,4.788,0.525,7.351,0.218c4.058,0.191,7.316-1.246,8.009-6.819
	c0.385-3.095,1.536-7.958,0.373-10.941c-0.261-0.669-0.454-1.045-0.587-1.248c0.061-0.007,0.132-0.037,0.214-0.105
	c1.348-1.119,5.538-1.058,7.171-1.123c1.904-0.077,3.599-0.593,4.555,0.997c1.117,1.863,0.044,6.84-0.161,8.674
	c-0.346,3.104-0.948,6.678,1.243,9.281c1.765,2.095,3.649,2.075,6.146,1.93c4.511-0.263,8.632-0.266,13.112-1.206
	c1.565-0.329,2.27-1.805,2.449-3.216c0.406-3.19,0.028-6.799-0.207-10.008c-0.15-2.057-0.831-4.113-1.096-6.158
	c2.709-0.458,7.064,0.31,9.344,0.273c2.288-0.037,4.864,0.024,7.244,0.38c0.424,5.478-3.24,11.823-0.951,16.84
	c2.015,4.415,9.211,3.745,13.25,3.648c6.913-0.167,6.433-5.323,7.354-11.159c0.365-2.313-0.493-7.851,0.91-8.929
	c1.228-0.943,5.821-0.696,9.021-0.583c0.048,0.014,0.099,0.016,0.146,0.031c5.912,1.828,2.794,10.06,3.475,14.471
	c1.024,6.629,10.049,6.378,15.302,5.754c6.516-0.775,5.902-9.001,6.192-14.04c0.182-3.162,0.036-3.968,2.899-4.979
	c1.75-0.619,3.666-0.727,5.49-0.874c2.405-0.193,4.559-0.078,6.699-0.463c2.563-0.057,5.135,0.012,6.007,0.682
	c1.403,1.078,0.545,6.615,0.91,8.929c0.919,5.837,0.439,10.993,7.354,11.159c4.039,0.097,11.235,0.767,13.25-3.648
	c2.29-5.016-1.375-11.362-0.951-16.84c2.382-0.355,4.956-0.417,7.244-0.38c2.28,0.037,6.635-0.731,9.344-0.273
	c-0.266,2.046-0.946,4.103-1.096,6.158c-0.234,3.208-0.612,6.818-0.206,10.008c0.179,1.411,0.883,2.887,2.449,3.216
	c4.479,0.94,8.6,0.943,13.112,1.206c2.496,0.146,4.381,0.167,6.145-1.93c2.193-2.603,1.589-6.177,1.243-9.281
	c-0.204-1.834-1.278-6.811-0.16-8.674c0.956-1.592,2.651-1.076,4.555-0.997c1.632,0.066,5.823,0.006,7.171,1.123
	c0.083,0.069,0.154,0.099,0.214,0.105c-0.134,0.203-0.326,0.579-0.587,1.248c-1.163,2.983-0.01,7.845,0.373,10.941
	c0.691,5.573,3.949,7.01,8.009,6.819c2.563,0.308,4.761,0.285,7.351-0.218c1.614-0.313,2.664-2.043,2.717-3.568
	c0.078-2.245,0.134-4.476,0.216-6.734c0.091-2.543-0.353-5.89,0.157-8.297c0.28-1.317,0.127-1.741,0.014-1.861
	c0.135,0.02,0.459-0.013,1.155-0.311c1.207-0.517,5.231,0.288,6.519,0.398c2.833,0.242,5.652,0.245,8.471,0.351
	c0.308,1.986,0.132,5.532,0.186,6.861c0.147,3.554-2.271,7.707-0.887,11.172c2.102,5.266,9.082,3.237,13.28,3.166
	c2.643-0.045,5.211,0.058,7.829,0.429c1.963,0.279,3.804,0.325,5.161-1.475c1.299-1.723,1.356-4.985,1.61-7.103
	c0.372-3.108-0.717-7.654,0.121-10.534c0.766-2.633-0.164-1.989,3.95-1.514c0.526,0.061,5.024-0.141,5.182,0.001
	c0.988,0.894-0.908,9.323-0.953,10.753c-0.147,4.654-0.655,11.002,4.765,12.482c3.848,1.05,12.47,0.354,13.724-4.597
	c0.285-1.128,0.271-2.249,0.112-3.364c0.302-1.581,0.432-3.088,0.367-5.141c-0.078-2.474-1.431-6.676-0.746-9.005
	c0.559-1.903,0.753-1.359,3.133-1.475c1.345-0.065,2.684-0.119,4.033-0.214c3.512-0.251,6.828,0.373,10.311,0.528
	c0.685,0.005,1.371,0.008,2.057,0.013c1.293-0.073,1.34-0.062,0.141,0.035c0.131,0.926-0.655,2.718-0.728,3.755
	c-0.224,3.153,0.346,6.392,0.347,9.566c0.001,5.33,2.461,6.532,7.462,7.012c4.262,0.409,12.835,2.372,15.187-2.544
	c1.109-2.318,0.646-5.608,0.426-8.062c-0.182-2.044-0.386-4.008-0.443-6.061c0.047-0.625,0.003-1.243-0.101-1.859
	c0.069,0.131,0.227,0.141,0.495,0.008c1.792-1.609,8.684-0.008,11.105,0.149c1.755,0.114,3.724-0.104,4.714,1.205
	c0.805,1.064,0.331,3.181,0.39,4.465c0.351,7.576,0.043,15.205,0.382,22.779c-0.14,2.429-0.224,5.02-0.752,7.285
	c-1.877,0.196-4.112-0.211-5.795-0.217c-1.715-0.006-3.421,0.147-5.127,0.197c0.164-0.98,0.184-2.011,0.266-2.989
	c0.181-2.158-0.168-3.894-0.713-5.98c-0.98-3.753-6.879-2.131-5.81,1.601c0.512,1.786,0.672,3.285,0.814,5.132
	c0.057,0.739,0.098,1.479,0.21,2.192c-2.935-0.071-5.88-0.177-8.822-0.193c-1.406-0.007-2.813-0.007-4.219-0.013
	c0.014-0.211,0.026-0.421,0.056-0.634c0.107-0.764,0.316-1.508,0.308-2.286c-0.005-0.442-0.057-0.886-0.105-1.328
	c0.224-1.22,0.492-2.391,0.226-3.721c-0.311-1.558-2.612-2.633-3.948-1.606c-1.726,1.329-1.878,3.102-1.822,5.162
	c0.041,1.489-0.154,2.932-0.299,4.398c-4.118-0.009-8.236-0.008-12.352-0.012c0.029-0.193,0.059-0.384,0.084-0.585
	c0.055-0.438,0.085-0.956,0.101-1.515c0.141-1.533,0.004-3.082-0.079-4.667c-0.016-0.415-0.031-0.823-0.045-1.205
	c-0.062-3.442-5.207-3.421-5.33,0c-0.065,1.821-0.041,3.663-0.151,5.48c-0.031,0.517-0.098,1.034-0.188,1.546
	c-0.024,0.141-0.213,0.694-0.271,0.94c-1.138-0.001-2.277-0.004-3.415-0.004c-3.111,0-6.222-0.027-9.332-0.062
	c-0.01-0.337-0.028-0.67-0.05-0.99c-0.038-0.555-0.038-1.1-0.026-1.645c0.072-0.912,0.113-1.825,0.139-2.739
	c0.057-0.915,0.104-1.833,0.059-2.773c-0.157-3.369-5.325-3.397-5.259,0c0.015,1.975-0.546,3.82-0.525,5.786
	c0.007,0.683,0.065,1.362,0.064,2.045c0,0.086-0.007,0.163-0.013,0.241c-3.755-0.062-7.51-0.14-11.264-0.22
	c-0.05-0.401-0.086-0.809-0.086-1.235c0.001-0.402-0.005-0.803-0.005-1.205c0.105-1.658-0.019-3.324-0.143-5.174
	c-0.227-3.372-5.233-3.432-5.289,0c-0.031,1.904-0.078,3.813-0.155,5.714c-0.024,0.6-0.04,1.186-0.016,1.777
	c-3.755-0.082-7.51-0.157-11.264-0.221c-0.001-0.171,0.002-0.346,0.007-0.522c0.142-0.827,0.326-1.657,0.386-2.482
	c0.077-1.07,0.097-2.144,0.117-3.22c0.077-0.414,0.098-0.833,0.027-1.373c-0.388-2.948-4.86-3.164-4.777,0
	c0.001,0.064,0.001,0.13,0.002,0.195c-0.036,0.008-0.091,0.084-0.169,0.291c-0.154,0.404-0.264,0.736-0.345,1.162
	c-0.158,0.842-0.059,1.697-0.27,2.523c-0.276,1.079-0.495,2.213-0.534,3.345c-3.398-0.042-6.794-0.073-10.191-0.073
	c-0.456,0-0.912,0-1.368,0c-0.027-0.214-0.055-0.425-0.086-0.627c-0.075-0.492-0.164-0.981-0.254-1.47
	c-0.024-0.136-0.14-1.036-0.148-0.921c-0.109-1.65-0.061-3.332-0.098-4.984c-0.077-3.447-5.405-3.451-5.358,0
	c-0.04,2.022-0.233,4.104-0.031,6.115c0.063,0.63,0.158,1.257,0.22,1.889c-4.699,0.001-9.402-0.001-14.107-0.023
	c-0.04-0.729-0.15-1.459-0.29-2.231c0.073-1.628,0.002-3.301,0.058-4.854c0.12-3.346-4.834-3.231-5.128,0
	c-0.124,1.361-0.599,2.647-0.588,4.031c0.007,0.965,0.389,2.027,0.386,3.021c-3.236-0.027-6.47-0.073-9.704-0.13
	c0.059-0.639,0.05-1.296,0.003-1.955c-0.157-2.23-0.158-4.48-0.417-6.701c0.212-3.442-4.88-3.279-5.261,0
	c-0.205,1.765-0.282,3.568-0.249,5.345c0.01,0.536,0.056,1.07,0.061,1.603c0.005,0.514-0.343,1.515,0.283,0.736
	c-0.219,0.273-0.368,0.558-0.486,0.845c-4.022-0.101-8.041-0.248-12.054-0.426c-0.036-0.205-0.069-0.411-0.076-0.623
	c-0.013-0.423-0.026-0.834-0.045-1.242c0.132-1.787,0.059-3.585-0.282-5.372c-0.374-1.96-2.623-2.356-4.138-1.683
	c-2.302,1.023-1.932,3.955-1.563,5.937c0.198,1.064,0.11,1.603,0.097,2.697c-4.308-0.22-8.678-0.436-13.029-0.552
	c0.003-0.282-0.029-0.577-0.09-0.88c0.008-0.52-0.03-1.067-0.087-1.7c0.044-0.355,0.09-0.69,0.134-1.023
	c0.026-0.578,0.001-1.166-0.038-1.757c-0.001-0.05,0.003-0.099,0-0.148c-0.003-0.05-0.014-0.099-0.019-0.149
	c-0.066-0.828-0.17-1.657-0.268-2.457c-0.17-1.376-1.044-2.594-2.577-2.577c-1.333,0.014-2.659,1.177-2.576,2.577
	c-0.206,1.742-0.147,3.435-0.585,5.135c-0.224,0.87-0.275,1.727-0.075,2.603c0.016,0.072,0.041,0.196,0.072,0.308
	c-0.962,0.003-1.931-0.007-2.886,0.015c-2.029,0.045-4.051,0.04-6.073,0.019c-0.021-0.445-0.072-0.901-0.183-1.361
	c-0.19-0.793-0.301-1.227-0.315-1.852c-0.013-0.602-0.043-1.222-0.162-1.815c-0.041-0.309-0.126-0.604-0.256-0.886
	c-0.064-0.16-0.111-0.273-0.154-0.376c-0.04-0.234-0.068-0.471-0.112-0.704c-0.592-3.172-5.353-2.252-5.422,0.734
	c-0.024,1.08,0.416,1.979,0.357,3.047c-0.049,0.865-0.01,1.656,0.143,2.51c0.036,0.202,0.071,0.414,0.113,0.622
	c-0.853-0.013-1.706-0.024-2.56-0.031c-1.681-0.167-3.402-0.227-5.115-0.235c0.042-0.862,0.069-1.726,0.143-2.566
	c0.177-1.98,0.299-3.547-0.648-5.37c-1.461-2.813-5.161-0.698-4.744,2c0.107,0.693,0.061,1.397,0.008,2.107
	c-0.163,0.768-0.418,1.544-0.53,2.219c-0.096,0.576-0.154,1.147-0.19,1.715c-0.708,0.02-1.409,0.036-2.087,0.048
	c-1.628,0.026-3.264,0.024-4.903,0.007c-0.03-0.811,0.094-1.563,0.073-2.475c-0.031-1.326-0.163-2.645-0.169-3.975
	c-0.015-3.512-5.027-3.371-5.36,0c-0.077,0.785-0.619,3.912-0.454,6.317c-3.244-0.106-6.488-0.253-9.705-0.402
	c-0.104-1.045-0.318-2.043-0.445-3.089c-0.24-1.973,0.594-4.726-1.215-6.201c-1.34-1.093-3.776-0.914-4.192,1.107
	c-0.339,1.648-0.14,3.351-0.073,5.027c-0.006,0.098-0.024,0.197-0.027,0.295c-0.006,0.458,0.035,0.914,0.076,1.369
	c0.013,0.43,0.035,0.861,0.065,1.29c-3.506-0.048-7.055,0.038-10.593,0.15c-0.055-1.107-0.087-2.217-0.144-3.319
	c-0.084-1.613,0.019-3.021-1.144-4.3c-1.171-1.288-3.856-0.748-4.148,1.095c-0.125,0.788-0.022,1.514,0.106,2.244
	c-0.015,0.125-0.031,0.247-0.043,0.372c-0.047,0.587-0.068,1.179-0.1,1.768c-0.043,0.763-0.117,1.543-0.168,2.321
	c-1.077,0.033-2.151,0.063-3.218,0.085c-2.3,0.049-4.79,0.041-7.236,0.125c0.019-0.106,0.038-0.213,0.057-0.315
	c0.154-0.854,0.191-1.645,0.143-2.51c-0.059-1.069,0.381-1.967,0.357-3.047c-0.069-2.986-4.83-3.906-5.422-0.734
	c-0.044,0.234-0.072,0.47-0.112,0.704c-0.043,0.104-0.089,0.218-0.154,0.376c-0.131,0.282-0.216,0.577-0.256,0.886
	c-0.119,0.592-0.149,1.213-0.162,1.815c-0.014,0.625-0.125,1.059-0.315,1.852c-0.111,0.46-0.162,0.916-0.183,1.361
	c-2.022,0.021-4.046,0.027-6.073-0.019c-0.954-0.022-1.924-0.01-2.886-0.015c0.033-0.112,0.056-0.237,0.072-0.308
	c0.202-0.876,0.15-1.733-0.075-2.603c-0.438-1.7-0.379-3.393-0.585-5.135c0.083-1.401-1.243-2.563-2.577-2.577
	c-1.533-0.016-2.407,1.201-2.577,2.577c-0.099,0.802-0.202,1.629-0.268,2.457c-0.005,0.05-0.015,0.099-0.019,0.149
	c-0.004,0.049,0.001,0.099,0,0.148c-0.04,0.59-0.064,1.179-0.038,1.757c0.044,0.334,0.089,0.668,0.134,1.023
	c-0.057,0.633-0.096,1.18-0.087,1.7c-0.061,0.303-0.093,0.598-0.09,0.88c-4.35,0.117-8.722,0.332-13.029,0.552
	c-0.013-1.094-0.101-1.634,0.097-2.697c0.369-1.982,0.74-4.914-1.563-5.937c-1.515-0.673-3.764-0.276-4.138,1.683
	c-0.34,1.787-0.414,3.585-0.282,5.372c-0.02,0.408-0.033,0.819-0.045,1.242c-0.006,0.212-0.04,0.417-0.076,0.623
	c-4.014,0.178-8.032,0.325-12.055,0.426c-0.117-0.287-0.266-0.572-0.486-0.845c0.625,0.778,0.278-0.223,0.283-0.736
	c0.005-0.535,0.051-1.068,0.061-1.603c0.034-1.777-0.044-3.58-0.249-5.345c-0.381-3.279-5.473-3.442-5.261,0
	c-0.259,2.221-0.259,4.471-0.416,6.701c-0.047,0.658-0.056,1.316,0.004,1.955c-3.233,0.057-6.468,0.104-9.704,0.13
	c-0.003-0.994,0.379-2.057,0.386-3.021c0.01-1.383-0.465-2.669-0.588-4.031c-0.294-3.231-5.248-3.346-5.128,0
	c0.056,1.552-0.015,3.227,0.058,4.854c-0.14,0.774-0.251,1.503-0.29,2.231c-4.704,0.021-9.407,0.024-14.106,0.023
	c0.062-0.632,0.157-1.257,0.22-1.889c0.202-2.011,0.009-4.093-0.031-6.115c0.047-3.451-5.282-3.447-5.358,0
	c-0.037,1.651,0.012,3.334-0.098,4.984c-0.008-0.115-0.124,0.784-0.148,0.921c-0.09,0.489-0.179,0.979-0.254,1.47
	c-0.03,0.202-0.059,0.413-0.085,0.627c-0.456,0-0.912,0-1.368,0c-3.397-0.001-6.793,0.03-10.191,0.073
	c-0.038-1.133-0.258-2.266-0.534-3.345c-0.212-0.827-0.112-1.681-0.27-2.523c-0.08-0.425-0.191-0.756-0.345-1.162
	c-0.079-0.207-0.133-0.283-0.169-0.291c0.001-0.064,0-0.13,0.002-0.195c0.082-3.164-4.391-2.948-4.777,0
	c-0.071,0.54-0.05,0.959,0.027,1.373c0.019,1.074,0.04,2.15,0.117,3.22c0.059,0.825,0.244,1.656,0.386,2.482
	c0.005,0.176,0.008,0.351,0.007,0.522c-3.754,0.064-7.51,0.14-11.265,0.221c0.023-0.592,0.008-1.177-0.016-1.777
	c-0.077-1.902-0.124-3.81-0.155-5.714c-0.056-3.432-5.062-3.372-5.289,0c-0.125,1.849-0.248,3.515-0.143,5.174
	c0,0.402-0.006,0.803-0.005,1.205c0,0.426-0.036,0.834-0.086,1.235c-3.754,0.08-7.509,0.158-11.264,0.22
	c-0.006-0.078-0.013-0.155-0.013-0.241c-0.001-0.683,0.057-1.362,0.064-2.045c0.021-1.967-0.541-3.811-0.526-5.786
	c0.066-3.397-5.101-3.369-5.259,0c-0.044,0.94,0.002,1.859,0.059,2.773c0.026,0.914,0.068,1.827,0.139,2.739
	c0.012,0.544,0.013,1.091-0.026,1.645c-0.022,0.32-0.04,0.654-0.05,0.99c-3.11,0.036-6.221,0.062-9.332,0.062
	c-1.138,0-2.277,0.002-3.415,0.003c-0.058-0.246-0.247-0.799-0.271-0.94c-0.09-0.513-0.156-1.028-0.188-1.546
	c-0.11-1.817-0.086-3.659-0.15-5.48c-0.122-3.421-5.269-3.442-5.33,0c-0.013,0.382-0.029,0.789-0.044,1.205
	c-0.082,1.586-0.22,3.133-0.079,4.667c0.016,0.559,0.047,1.077,0.101,1.515c0.024,0.2,0.055,0.392,0.084,0.585
	c-4.118,0.004-8.236,0.002-12.352,0.012c-0.144-1.466-0.339-2.91-0.299-4.398c0.056-2.06-0.097-3.832-1.822-5.162
	c-1.334-1.028-3.635,0.049-3.948,1.606c-0.266,1.329,0.002,2.501,0.226,3.721c-0.048,0.443-0.099,0.887-0.105,1.328
	c-0.008,0.778,0.2,1.522,0.308,2.286c0.03,0.214,0.043,0.424,0.056,0.634c-1.406,0.006-2.813,0.005-4.219,0.013
	c-2.942,0.016-5.887,0.122-8.822,0.193c0.112-0.713,0.153-1.453,0.21-2.192c0.142-1.847,0.303-3.347,0.814-5.132
	c1.07-3.733-4.83-5.354-5.81-1.601c-0.544,2.086-0.893,3.822-0.713,5.98c0.082,0.978,0.101,2.01,0.266,2.989
	c-1.706-0.05-3.412-0.204-5.127-0.197c-1.683,0.006-3.917,0.412-5.795,0.217c-0.528-2.265-0.611-4.855-0.752-7.285
	c0.339-7.574,0.031-15.203,0.382-22.779C11.238,368.195,10.764,366.077,11.569,365.014z M498.361,435.019
	c-4.537-0.512-9.157-0.442-13.822-0.227c-9.531,0.437-18.944-0.069-28.488,0.015c-10.564,0.093-20.84,1.002-31.347,1.716
	c-10.676,0.726-21.819-0.318-32.499-0.763c-9.587-0.4-19.134-0.686-28.71-1.011c-5.256-0.179-10.529-0.503-15.757-0.921
	c-5.757-0.459-11.54,0.284-17.3-0.005c-9.928-0.5-19.999,0.087-29.989,0.078c-11.642-0.01-23.389,0.522-35.035,0.901
	c-0.27,0.009-0.507,0.066-0.721,0.148c-4.724,0.107-9.464,0.416-13.98,0.068c-1.462-0.113-2.904-0.179-4.338-0.223
	c-11.579-0.378-23.258-0.904-34.832-0.894c-9.991,0.009-20.061-0.578-29.989-0.078c-5.758,0.29-11.543-0.454-17.3,0.005
	c-5.228,0.417-10.501,0.741-15.757,0.921c-9.576,0.325-19.124,0.612-28.71,1.011c-10.679,0.445-21.822,1.489-32.498,0.763
	c-10.507-0.714-20.784-1.623-31.347-1.716c-9.544-0.084-18.957,0.422-28.488-0.015c-4.664-0.214-9.284-0.283-13.822,0.227
	c0.249-2.396-0.107-4.998-0.256-7.319c-0.27-4.194-0.298-7.961-0.013-12.164c0.218-3.206,0.754-7.012,0.007-10.307
	c0.334,0.009,0.677,0.017,1.039,0.017c18.885,0.012,37.88,0.214,56.838,0.212c8.252-0.001,16.499-0.16,24.743-0.34
	c0.763,0.139,1.417,0.207,2.147-0.047c10.303-0.228,20.603-0.474,30.904-0.479c18.147-0.008,36.352,0.041,54.463-0.832
	c0.698,0.275,1.413,0.202,2.046-0.091c8.745-0.432,17.559-0.783,26.309-0.971c4.719-0.101,9.548-0.437,14.207-0.479
	c2.512-0.023,4.62,0.077,6.791-0.409c6.982,0.246,13.942,0.091,20.89,0.583c7.936,0.562,15.96,0.125,23.914,0.424
	c4.786,0.181,10.522,0.919,15.335-0.381c2.382,0.101,4.772,0.212,7.135,0.262c8.75,0.188,17.564,0.538,26.309,0.971
	c0.633,0.292,1.348,0.366,2.046,0.091c18.112,0.873,36.317,0.824,54.463,0.832c10.3,0.005,20.601,0.251,30.904,0.479
	c0.731,0.254,1.385,0.185,2.147,0.047c8.244,0.181,16.491,0.339,24.743,0.34c18.958,0.001,37.953-0.2,56.838-0.212
	c0.362,0,0.705-0.007,1.039-0.017c-0.747,3.295-0.21,7.102,0.007,10.307c0.285,4.202,0.258,7.97-0.013,12.164
	C498.468,430.022,498.111,432.624,498.361,435.019z M238.12,472.589c-5.134-0.122-10.278-0.124-15.367-0.447
	c-11.642-0.74-23.495-0.558-35.158-0.449c-21.9,0.206-43.835,0.935-65.783,1.137c-11.815,0.108-23.681,0.426-35.492,0.085
	c-9.819-0.285-19.45-2.043-29.312-2.051c-5.76-0.005-11.562,0.181-17.316-0.098c-5.614-0.272-11.176,0.429-16.783,0.125
	c-1.983-0.107-3.983-0.442-5.964-0.612c-1.521-0.13-3.446,0.13-5.08,0.029c0.649-2.772,0.213-5.55,0.118-8.416
	c-0.131-3.917-0.179-8.745-1.476-12.518c2.256,0.408,4.65,0.552,6.65,0.713c9.084,0.728,18.272,1.112,27.365,0.786
	c9.953-0.355,19.768-0.115,29.741-0.725c11.192-0.684,22.545-0.918,33.76-0.958c20.542-0.073,41.425-1.331,61.896,0.386
	c11,0.923,22.119-0.537,33.103,0.628c7.567,0.803,15.19,0.893,22.788,0.442c3.689,0.905,7.729,0.882,11.424,1.042
	c2.57,0.111,5.206,0.1,7.849,0.049c-1.064,1.3-2.007,2.749-2.819,4.241C239.978,460.186,237.277,467.187,238.12,472.589z
	 M255.996,474.25c-4.33-0.881-8.726-1.291-13.149-1.497c2.01-4.298,2.202-9.368,4.573-13.764c0.747-1.385,1.817-3.13,2.877-4.29
	c1.825-1.997,3.066-1.992,5.451-2.622c0.085-0.022,0.165-0.044,0.248-0.068c0.084,0.022,0.163,0.045,0.248,0.068
	c2.385,0.629,3.627,0.623,5.451,2.622c1.059,1.161,2.13,2.906,2.877,4.29c2.37,4.395,2.563,9.466,4.572,13.764
	C264.722,472.959,260.326,473.369,255.996,474.25z M500.007,461.892c-0.096,2.866-0.531,5.643,0.118,8.416
	c-1.635,0.101-3.559-0.16-5.08-0.029c-1.98,0.171-3.98,0.505-5.964,0.612c-5.606,0.304-11.169-0.396-16.781-0.125
	c-5.754,0.278-11.558,0.093-17.316,0.098c-9.862,0.008-19.492,1.765-29.312,2.051c-11.812,0.343-23.677,0.024-35.492-0.085
	c-21.948-0.203-43.883-0.931-65.783-1.137c-11.663-0.11-23.516-0.291-35.158,0.449c-5.089,0.323-10.233,0.324-15.367,0.447
	c0.844-5.402-1.857-12.405-4.146-16.614c-0.95-1.745-2.075-3.437-3.369-4.892c2.17-0.061,4.337-0.127,6.503-0.228
	c3.703-0.174,7.53-0.122,11.321-0.344c8.26,0.593,16.557,0.564,24.788-0.309c10.983-1.165,22.103,0.295,33.103-0.628
	c20.472-1.715,41.355-0.458,61.896-0.386c11.215,0.04,22.569,0.274,33.761,0.958c9.973,0.609,19.788,0.369,29.741,0.725
	c9.093,0.325,18.281-0.058,27.365-0.786c1.998-0.161,4.394-0.305,6.649-0.713C500.187,453.147,500.138,457.974,500.007,461.892z
	 M505.69,444.421c-0.366,0.543-1.556,0.943-2.23,1.502c-2.279,0.147-4.957-0.089-6.074-0.012c-4.359,0.299-8.59-0.355-12.958-0.219
	c-4.555,0.142-8.802,0.557-13.381,0.26c-4.896-0.317-9.91-0.764-14.829-0.498c-9.092,0.494-18.198-0.766-27.325-0.833
	c-10.791-0.08-21.553-0.33-32.346-0.338c-19.144-0.015-38.205-0.261-57.345,0.289c-9.812,0.281-19.925-0.901-29.682,0.308
	c-6.567,0.812-13.154,0.979-19.739,1.267c-5.005-0.894-10.38-0.722-15.285-0.508c-6.308,0.276-12.61,0.667-18.925,0.973
	c-0.479,0.023-0.967,0.043-1.45,0.065c-0.261,0-0.519,0.013-0.774,0.035c-5.107,0.231-10.328,0.409-15.38,0.438
	c-1.079,0.006-2.144-0.028-3.199-0.068c-0.087-0.023-0.16-0.063-0.258-0.075c-10.671-1.194-21.379-0.81-32.039-2.129
	c-9.756-1.207-19.869-0.027-29.682-0.308c-19.14-0.55-38.202-0.304-57.346-0.289c-10.793,0.008-21.555,0.258-32.346,0.338
	c-9.126,0.068-18.233,1.327-27.325,0.833c-4.917-0.267-9.932,0.179-14.829,0.498c-4.579,0.297-8.827-0.118-13.382-0.26
	c-4.368-0.136-8.599,0.517-12.958,0.219c-1.117-0.077-3.795,0.158-6.074,0.012c-0.675-0.559-1.864-0.959-2.23-1.502
	c-1.381-2.05,0.292-4.122,1.895-4.935c0.284-0.144,0.677-0.207,1.098-0.254c16.208,0.401,32.44,0.731,48.749,0.439
	c20.918-0.374,41.81,0.994,62.742,0.733c9.881-0.123,19.816-0.211,29.672-0.704c10.36-0.519,20.75-0.282,31.095-0.827
	c9.931-0.523,19.993,0.038,29.989,0.006c6.353-0.021,12.681,0.087,19.015,0.128c1.441,0.558,3.19,0.534,4.714,0.604
	c5.15,0.233,10.257-0.132,15.441,0.284c8.922,0.714,18.774,0.418,27.771-0.872c7.32-0.015,14.627-0.168,21.967-0.143
	c9.996,0.033,20.058-0.529,29.989-0.006c10.345,0.545,20.736,0.309,31.095,0.827c9.855,0.493,19.791,0.58,29.672,0.704
	c20.932,0.262,41.824-1.107,62.742-0.733c16.31,0.291,32.542-0.04,48.749-0.439c0.421,0.047,0.813,0.109,1.098,0.254
	C505.397,440.299,507.071,442.373,505.69,444.421z"/>
<path d="M290.195,179.157c1.303,2.607,5.305,3.201,7.922,3.51c4.168,0.493,7.962,1.007,9.635-3.243
	c1.876-4.765,2.586-10.425,2.626-15.536c0.024-3.065,0.656-8.561-2.124-10.781c-1.646-1.314-5.186-1.596-8.101-1.502
	c-2.036-0.706-3.986-1.122-6.558,0.188c-4.203,2.139-2.964,6.113-3.076,10.179C290.383,167.015,287.749,174.261,290.195,179.157z
	 M294.306,165.105c0.255-3.014-1.002-8.645,2.008-9.968c2.027-0.893,4.753,0.179,7.119,0.219c0.396,0.136,0.783,0.283,1.14,0.453
	c2.643,1.264,2.18,3.739,2.076,6.441c-0.141,3.647-1.049,7.024-1.792,10.567c-0.528,2.522-0.428,5.311-3.346,5.569
	c-2.069,0.183-6.098,0.184-7.555-1.591C292.168,174.621,294.096,167.576,294.306,165.105z"/>
<path d="M265.723,180.487c4.037,0.667,10.335,1.41,13.817-1.234c3.655-2.776,2.672-7.778,2.986-11.865
	c0.289-3.767,1.302-9.735-1.584-12.857c-0.762-0.825-1.878-1.377-3.157-1.737c-0.057-0.156-0.135-0.305-0.26-0.426
	c-2.562-2.494-9.021-2.69-12.425-2.185c-4.793,0.712-4.416,4.916-4.696,8.892C259.987,165.046,257.209,179.082,265.723,180.487z
	 M263.343,166.818c0.035-2.616,0.647-5.299,0.839-7.899c0.056-0.753-0.169-2.646,0.096-3.215c1.255-2.706,3.484-1.85,5.55-1.651
	c0.727,0.07,1.455,0.115,2.184,0.165c2.337,0.673,4.827,1.497,5.988,2.778c2.426,2.676,1.129,6.18,0.761,9.643
	c-0.207,1.945,0.21,5.215-0.696,6.96c-1.363,2.628-9.376,4.652-12.432,3.023C263.381,175.423,263.312,169.116,263.343,166.818z"/>
<path d="M378.328,241.438c0.5,0.262,1.077,0.368,1.621,0.486c0.997,0.217,2.029,0.621,3.019,0.788
	c0.809,0.136,1.623-0.026,2.439,0.099c0.867,0.133,1.438,0.442,2.336,0.326c0.654-0.084,1.355-0.412,1.501-1.143
	c0.63-3.151,2.745-8.532,0.472-11.466c-0.396-0.51-0.916-0.891-1.493-1.172c-0.127-0.188-0.317-0.337-0.573-0.406
	c-2.679-0.717-6.16-2.644-9.032-1.405c-0.872,0.375-1.298,0.995-1.531,1.895c-0.415,1.6-0.374,3.408-0.703,5.052
	C375.957,236.63,376.126,240.282,378.328,241.438z M379.35,233.626c0.146-0.692-0.013-2.42,0.312-2.999
	c0.393-0.701,1.32-0.654,2.166-0.536c0.689,0.285,1.394,0.559,2.082,0.807c1.249,0.451,3.192,0.224,3.825,1.673
	c0.883,2.019-0.327,5.091-1.108,7.379c-0.63-0.114-1.272-0.303-1.882-0.344c-1.136-0.077-2.222-0.239-3.346-0.383
	c-1.451-0.186-1.946-0.086-2.311-1.512C378.714,236.247,379.051,235.048,379.35,233.626z"/>
<path d="M344.801,231.932c1.623,0.41,3.044,1.276,4.603,1.845c2.48,0.904,6.124,0.87,8.154-1.131c0.72-0.71,0.934-1.391,1.015-2.382
	c0.111-1.383,0.336-3.202,0.183-4.597c-0.408-3.731-4.822-5.116-7.921-5.756c-4.093-0.846-6.756-1.309-8.102,3.26
	c-0.611,2.075-2.247,5.866-0.451,7.858C342.956,231.777,343.908,231.706,344.801,231.932z M345.567,223.168
	c0.475-0.948,0.334-1.148,1.624-0.936c0.783,0.129,1.505,0.431,2.321,0.527c0.365,0.043,0.724,0.108,1.082,0.171
	c0.306,0.143,0.574,0.267,0.734,0.318c1.193,0.385,3.75,0.945,4.605,1.878c0.989,1.079,0.371,4.627-0.749,5.689
	c-2.012,1.906-5.611-0.282-7.545-1.079c-0.648-0.268-1.34-0.591-2.041-0.697c-0.24-0.036-1.368,0.121-1.512-0.013
	C343.424,228.412,345.254,223.793,345.567,223.168z"/>
<path d="M311.717,229.045c1.891-0.113,4.515,0.776,6.236-0.21c2.226-1.275,1.831-5.604,1.763-7.744
	c-0.071-2.257-0.411-3.621-2.659-4.484c-1.497-0.573-3.314-1.008-5.093-1.063c-1.15-0.28-2.3-0.56-3.46-0.803
	c-1.089-0.227-2.307-0.479-3.362,0.003c-1.868,0.854-1.847,2.985-1.967,4.762c-0.169,2.498-0.086,6.348,1.841,8.286
	C306.699,229.486,309.563,229.174,311.717,229.045z M306.262,217.202c0.718-0.612,2.519,0.29,3.372,0.417
	c0.103,0.016,0.197,0.012,0.298,0.022c0.994,0.253,2.023,0.423,2.99,0.619c1.041,0.211,2.905,0.142,3.74,0.877
	c0.759,0.668,0.563,2.1,0.515,2.961c-0.043,0.776-0.146,2.412-0.549,3.196c-0.508,0.986-0.221,0.951-1.493,0.791
	c-1.163-0.147-2.24-0.263-3.419-0.204c-1.257,0.063-3.695,0.625-4.635-0.513c-1.19-1.438-0.917-4.402-1.029-6.163
	C306.012,218.555,305.744,217.644,306.262,217.202z"/>
<path d="M274.039,225.022c2.365,0.526,5.127-0.007,7.562,0.289c1.568,0.19,3.134,0.213,4.301-1.021
	c0.602-0.637,0.874-1.38,1.035-2.222c0.235-1.229,0.365-2.344,0.671-3.566c0.352-1.401,0.059-2.645-1.242-3.399
	c-1.439-0.835-3.942-1.023-5.536-1.253c-2.351-0.338-4.717-1.49-6.953-0.689c-0.882-0.143-1.808-0.063-2.713,0.125
	c-0.383,0.079-0.828,0.484-0.886,0.886C269.825,217.395,269.919,224.107,274.039,225.022z M281.084,216.474
	c1.108,0.311,2.931,0.778,3.397,2.019c0.482,1.285-0.548,3.737-1.976,4.034c-0.623,0.129-1.556-0.282-2.196-0.36
	c-1.197-0.146-2.41,0.049-3.591-0.059c-1.854-0.169-2.753-0.464-3.173-2.323c-0.309-1.367-0.733-2.784-0.798-4.189
	C275.442,215.388,278.492,215.747,281.084,216.474z"/>
<g>
</g>
<g>
</g>
<g>
</g>
<g>
</g>
<g>
</g>
<g>
</g>
<g>
</g>
<g>
</g>
<g>
</g>
<g>
</g>
<g>
</g>
<g>
</g>
<g>
</g>
<g>
</g>
<g>
</g>
</svg>
