<?xml version="1.0" encoding="iso-8859-1"?>
<!-- Generator: Adobe Illustrator 19.0.0, SVG Export Plug-In . SVG Version: 6.00 Build 0)  -->
<svg version="1.1" id="Layer_1" xmlns="http://www.w3.org/2000/svg" xmlns:xlink="http://www.w3.org/1999/xlink" x="0px" y="0px"
	 viewBox="0 0 512.001 512.001" style="enable-background:new 0 0 512.001 512.001;" xml:space="preserve">
<path style="fill:#F4EFD9;" d="M172.25,25.625c0.155-3.729,0.411-7.94,1.744-11.432c1.15-3.014,1.89-6.655,4.569-8.756
	c2.587-2.029,7.278-1.378,11.767-2.002c1.08,3.594,2.08,7.224,3.244,10.79c1.03,3.154,0.309,6.53,2.152,9.464
	c0.5,0.796,1.258,1.583,2.197,1.553c1.187-0.039,1.903-1.307,2.297-2.428c1.253-3.564,0.853-7.363,1.324-10.995
	c0.445-3.429,3.42-6.763,6.304-8.418c1.689-0.969,3.741-1.562,5.59-0.952c2.671,0.881,4.009,3.968,4.07,6.779
	c0.062,2.811-0.813,5.557-1.051,8.358c-0.189,2.215,0.042,4.515,1.03,6.506s2.808,3.638,4.989,4.071
	c3.676,0.729,7.288-2.181,8.666-5.666c2.542-6.427-1.936-15.391,6.09-19.159c3.728-1.75,8.884-0.095,10.338,3.757
	c1.526,4.047-1.103,8.618-0.186,12.845c0.526,2.419,2.272,4.539,4.546,5.517c2.274,0.978,5.015,0.789,7.132-0.493
	c2.446-1.48,3.615-3.974,4.333-6.639c0.891-3.305-0.359-6.427,0.22-9.782c0.425-2.459,1.866-4.892,4.185-5.814
	c1.647-0.655,3.493-0.48,5.25-0.251c1.955,0.254,4.015,0.609,5.511,1.894c2.007,1.723,2.46,4.674,2.186,7.305
	c-0.227,2.174-0.853,4.293-1.046,6.471c-0.193,2.177,0.11,4.529,1.51,6.207c1.967,2.359,5.714,2.679,8.422,1.229
	c2.708-1.45,4.438-4.307,5.224-7.276c0.619-2.341,0.957-5.493,0.706-7.898c-0.239-2.291-0.748-4.036,1.641-5.611
	c1.665-1.097,3.762-1.276,5.756-1.252c1.57,0.018,3.218,0.168,4.519,1.045c1.891,1.275,2.565,3.773,2.519,6.053
	c-0.046,2.28-0.661,4.519-0.712,6.798c-0.05,2.194,0.591,4.633,2.46,5.783c2.256,1.388,5.399,0.198,6.957-1.944
	c1.558-2.142,1.886-4.925,1.955-7.573c0.065-2.493-0.024-5.117,1.156-7.313c2.02-3.758,7.416-4.797,11.186-2.797
	c6.298,3.341,6.674,11.372,6.882,17.634c0.162,4.885,0.098,11.232-2.892,15.33c-1.176,1.612-2.556,3.17-3.045,5.104
	c-0.424,1.676-0.127,3.44-0.213,5.167c-0.087,1.727-0.733,3.637-2.308,4.351c-1.287,0.584-2.938,0.239-4.048,1.115
	c-1.079,0.851-1.141,2.435-1.109,3.808c0.156,6.771-0.744,14.369,1.664,20.772c1.888,5.017,1.977,10.368,1.508,15.65
	c-0.338,3.816-0.168,8.152,2.627,10.77c1.637,1.533,3.893,2.182,6.07,2.731c2.254,0.568,4.821,1.037,6.757-0.25
	c2.434-1.618,2.588-5.072,2.487-7.992c-0.118-3.403-0.238-6.807-0.358-10.21c-0.051-1.44-0.088-2.944,0.522-4.249
	c1.369-2.925,5.183-3.547,8.404-3.782c3.049-0.224,6.505-0.307,8.693,1.827c1.821,1.775,2.164,4.539,2.332,7.076
	c0.244,3.667,0.341,7.345,0.289,11.019c-0.047,3.403,0.069,7.416,2.876,9.34c2.321,1.59,5.682,0.886,7.751-1.022
	c2.069-1.907,3.055-4.727,3.524-7.502c0.469-2.774,0.5-5.614,1.049-8.374c1.597-8.044,9.221-11.144,16.777-10.573
	c5.481,0.413,9.441,3.362,9.783,8.754c0.713,11.217,1.423,22.552,0.5,33.704c-0.24,2.9-1.356,5.689-2.762,8.21
	c-1.372,2.458-2.756,3.236-4.867,4.806c-4.675,3.475-6.705,10.781-7.352,16.264c-0.766,6.496-0.376,13.624,1.462,19.871
	c0.915,3.109,0.607,6.694,0.727,9.921c0.14,3.74,0.279,7.48,0.413,11.22c0.538,14.959,1.005,29.919,1.252,44.885
	c0.123,7.504-0.682,14.843-1.394,22.31c-0.23,2.41-0.298,5.236,1.564,6.781c1.758,1.46,4.478,1.071,6.381,2.333
	c1.62,1.075,2.316,3.252,1.892,5.149s-1.831,3.484-3.537,4.417c-2.002,1.094-4.476,1.428-6.067,3.063
	c-1.401,1.439-1.79,3.562-2,5.559c-0.37,3.499-0.396,7.038-0.076,10.541c0.239,2.609,1.187,4.523,1.865,6.955
	c0.876,3.143,0.442,6.896,0.521,10.137c0.091,3.736,0.182,7.473,0.274,11.209c0.366,14.945,0.736,29.89,1.103,44.836
	c0.735,29.89,1.461,59.782,2.124,89.674c0.099,4.484,0.198,8.967,0.294,13.452c0.186,8.659,2.312,17.65-3.038,27.151
	c-2.895,0.843-6.591,2.703-10.368,2.89c-24.05,1.199-48.2,3.734-72.162,2.594c-39.435-1.874-78.699-1.9-118.136,0.034
	c-23.959,1.175-48.135-1.152-72.161-2.713c-11.294-0.735-13.434-3.967-13.782-15.487c-0.17-5.624,0.079-11.262,0.222-16.892
	c0.92-36.163,1.884-72.326,2.788-108.491c0.332-13.287,0.648-26.575,0.94-39.863c0.149-6.719,0.29-13.437,0.427-20.157
	c0.051-2.499-0.124-5.033-0.035-7.52c0.099-2.753,1.2-5.072,0.179-7.836c-0.973-2.638-3.296-4.736-6.019-5.436
	c-1.514-0.389-3.243-0.428-4.367-1.512c-1.288-1.242-1.211-3.292-1.042-5.073c0.144-1.519,0.295-3.067,0.898-4.47
	c0.602-1.402,1.739-2.661,3.224-3.014c1.23-0.291,2.631,0.036,3.702-0.634c1.069-0.669,1.38-2.064,1.561-3.313
	c1.063-7.363,0.899-14.98,1.027-22.412c0.569-28.588,1.704-57.178,2.071-85.768c0.048-3.775,0.028-7.633-0.935-11.31
	c-1.037-3.96-2.834-6.122-5.78-8.636c-5.443-4.644-7.129-13.457-6.89-20.222c0.283-8.036,0.576-16.077,1.189-24.091
	c0.62-8.123,3.422-11.503,9.191-11.925c5.37-0.394,10.959,0.559,14.072,5.389c1.929,2.993,1.282,5.712,1.405,9.158
	c0.132,3.702,0.719,7.458,2.516,10.747c0.929,1.7,2.424,3.375,4.36,3.423c2.213,0.056,3.86-1.99,4.918-3.933
	c2.24-4.112,3.559-8.723,3.829-13.399c0.237-4.089-0.115-12.485,5.801-12.945c2.06-0.161,3.913,1.241,5.971,0.858
	c2.101-0.392,3.396-1.433,5.497,0.172c0.116,0.088,0.228,0.181,0.336,0.279c1.349,1.21,2.069,3.033,2.279,4.844
	c0.227,1.956-0.071,3.933-0.37,5.88c-0.337,2.204-0.675,4.408-1.013,6.612c-0.261,1.705-0.514,3.502,0.103,5.113
	c0.665,1.735,2.263,2.98,3.997,3.647c3.063,1.178,6.707,0.706,9.369-1.213c6.978-5.032,5.557-14.986,6.171-22.478
	c0.313-3.82,0.626-7.639,0.938-11.459c0.393-4.805,3.019-12.89-0.657-16.926c-1.481-1.626-3.673-2.527-4.989-4.29
	c-3.113-4.171,0.365-9.624-1.844-13.881c-0.726-1.398-2.263-2.057-3.112-3.367C172.206,31.322,172.146,28.139,172.25,25.625z"/>
<path style="fill:#D6D0B6;" d="M393.173,147.864c-1.832,2.204-2.499,5.059-4.293,7.241c-2.113,2.568-6.019,3.817-9.08,4.789
	c-6.606,2.097-13.516,2.591-20.321,3.665c-15.925,2.512-31.747,4.593-47.476,8.366c-18.848,4.519-40.655,9.292-56.08,21.804
	c-16.927,13.732-18.045,34.828-18.045,54.981c0,6.146,2.014,14.032,0.636,20.01c-0.754,3.271-2.1,6.794-3.85,9.668
	c-1.152,1.892-4.05,4.088-2.957,6.6c2.591-0.958,5.55-0.852,8.391-1.001c7.297-0.382,14.453-1.332,21.79-1.323
	c17.361,0.018,34.809,0.993,52.181,1.416c16.426,0.4,32.679,1.732,49.127,1.028c10.759-0.46,21.809-0.889,32.554-0.288
	c3.554,6.473-5.447,9.886-9.98,10.834c-5.435,1.137-11.791-0.589-17.222-1.165c-9.163-0.974-18.405-1.067-27.598-0.683
	c-26.067,1.089-63.903-3.733-87.523,8.647c-19.277,10.103-26.198,32.086-25.938,52.433c0.44,34.386,32.144,63.481,59.881,79.694
	c24.374,14.247,52.971,18.399,79.232,27.632c9.456,3.324,24.386,6.351,30.206,15.812c4.732,7.693,1.223,16.161,1.828,24.261
	c-10.471-2.323-24.066,0.633-34.934,0.83c-20.204,0.366-40.429,1.515-60.702,1.828c-21.051,0.325-41.807-1.797-62.792-0.756
	c-20.958,1.039-41.968,1.258-62.935,1.915c-18.465,0.58-37.618,0.666-55.845-2.867c-8.506-1.649-7.667-2.025-7.998-10.996
	c-0.622-16.857-2.1-33.778-0.616-50.702c1.521-17.347,2.843-34.491,2.402-51.844c-0.54-21.253,2.252-42.524,1.234-63.754
	c-0.627-13.06,1.81-28.162-1.045-40.71c-4.252,0.996-10.202-3.05-11.098-7.462c-1.538-7.575,5.241-9.597,10.829-9.772
	c1.932-5.4,0.331-11.872,0.06-17.416c-0.453-9.296-0.991-18.738-1.191-28.003c-0.425-19.694,3.503-39.561,3.64-59.269
	c0.035-5.117,1.564-11.913,0.692-16.793c-0.859-4.812-5.886-7.737-9.093-10.914c-7.062-6.998-5.974-19.67-5.497-28.701
	c0.311-5.88-3.127-19.03,3.159-22.363c3.682-1.953,16.625-4.11,19.973-0.709c5.887,5.979-2.562,18.726,6.22,22.371
	c2.683,1.114,7.899,2.432,10.739,1.164c4.535-2.024,2.332-8.331,2.048-12.346c-0.22-3.102-1.546-10.01,0.877-12.582
	c2.095-2.223,9.843-1.401,12.654-1.481c5.949-0.17,4.123,2.569,3.922,7.827c-0.144,3.759-1.821,11.343,0.324,14.838
	c2.278,3.712,9.045,3.669,12.567,2.343c4.999-1.881,6.381-6.948,6.413-12c0.029-4.72-0.494-8.834,0.211-13.557
	c0.804-5.38,1.724-10.751,1.197-16.209c-0.324-3.353,0.798-11.093-2.463-12.968c-1.504-0.865-1.95,1.044-3.435-0.677
	c-1.351-1.566,0-4.353-0.071-6.1c-0.132-3.263-1.161-4.582-3.439-6.609c-3.989-3.549-3.493-4.038-2.61-9.497
	c0.848-5.249,1.711-10.654,2.182-15.959c0.314-3.543-0.957-6.3,2.484-7.795c3.481-1.513,12.304-1.691,13.558,2.109
	c1.437,4.35-2.264,10.291,0.434,14.54c2.562,4.035,9.382,3.118,11.495-0.755c2.443-4.478,0.576-11.298,0.825-16.172
	c4.757-0.102,10.619-2.587,11.869,2.816c1.12,4.846-1.549,10.757,1.218,15.201c1.72,2.764,5.7,3.889,8.805,4.037
	c8.588,0.412,6.792-6.18,7.465-12.99c0.182-1.846-0.398-7.389,0.727-8.783c0.794-0.982,2.643-0.957,3.904-1.009
	c3.093-0.126,3.048-0.255,3.833,2.141c1.207,3.684-2.059,9.627-2.109,13.608c-0.091,7.324,2.812,9.363,9.818,10.236
	c6.575,0.819,13.246-0.248,19.814,0.633c11.959,1.604,24.001,2.196,36.036,2.826c5.36,0.282,10.866,0.346,16.224,0.332
	c3.177-0.007,7.63-0.847,10.704-0.008c5.238,1.43,2.123,4.965,1.333,8.919c-0.427,2.138,0.25,3.688,0.06,5.816
	c-0.372,4.174-4.693,4.606-6.75,7.521c-2.442,3.461-2.214,6.443-7.387,6.911c-6.72,0.609-14.225-1.524-20.907-2.231
	c-10.167-1.075-20.134-1.674-30.406-1.365c-7.74,0.232-17.824,1.761-23.352,7.622c-8.241,8.738-8.644,19.767-9.193,30.999
	c-0.176,3.607-1.46,7.434,0.407,10.792c2.474,4.448,8.595,6.696,13.127,8.13c19.935,6.314,40.698,7.172,61.438,7.751
	c22.286,0.622,44.567,0.956,66.855,0.64c7.7-0.109,20.342-2.266,27.686,1.277c6.865,3.311,3.037,9.151-0.671,13.304
	c-2.722,3.05-6.391,4.794-9.427,7.441C393.777,147.188,393.461,147.519,393.173,147.864z"/>
<g>
	<path style="fill:#D3BE9B;" d="M259.554,270.579c-36.729,1.2-73.625-1.106-110.4-1.089c-8.23,0.004-16.479-0.454-24.7-0.807
		c-4.953-0.213-11.069-1.908-15.368,1.591c-3.272,2.664-2.947,6.959-0.829,10.124c2.726,4.073,7.317,4.556,11.916,4.709
		c27.576,0.918,55.385,0.355,82.973,0.355c30.829,0,61.623,1.63,92.443,1.822c27.923,0.174,55.796-2.959,83.706-2.911
		c6.694,0.012,15.561,1.067,22.035-0.724c3.837-1.061,6.178-4.222,5.644-8.351c-0.776-6-5.44-6.358-10.444-6.453
		c-10.218-0.192-20.656,0.338-30.89,0.733C331.494,270.898,297.033,269.321,259.554,270.579z"/>
	<path style="fill:#D3BE9B;" d="M178.238,37.884c-0.628,1.495-0.631,9.847,0.346,11.19c1.681,2.309,7.266,0.708,9.741,0.754
		c14.653,0.276,29.505,2.251,44.186,2.922c29.655,1.355,59.617,0.097,89.166-1.809c2.501-0.161,8.228,1.225,10.258-0.392
		c2.083-1.658,3.28-9.219,1.945-11.536c-2.353,1.593-7.045,0.352-9.8,0.139c-6.298-0.485-12.629-0.541-18.961-0.541
		c-14.15,0-28.657-1.741-42.702-0.715c-14.821,1.082-29.442-0.384-44.275-0.373C205.575,37.53,191.614,36.078,178.238,37.884z"/>
</g>
<g>
	<path style="fill:#726A5F;" d="M132.853,144.089c-0.365-2.609-0.163-5.617,0.056-8.032c0.222-2.458,0.383-5.714,1.347-8.022
		c2.047-4.906,8.192-7.528,12.543-3.354c1.477,1.416,2.507,4.007,2.971,6c0.864,3.712,2.2,8.731,0.707,12.427
		c-1.16,2.87-3.707,2.576-6.449,2.646c-3.617,0.093-7.233-0.117-10.849-0.022C133.039,145.211,132.933,144.66,132.853,144.089z"/>
	<path style="fill:#726A5F;" d="M163.184,144.089c-0.365-2.609-0.163-5.617,0.056-8.032c0.222-2.458,0.383-5.714,1.347-8.022
		c2.047-4.906,8.192-7.528,12.543-3.354c1.477,1.416,2.507,4.007,2.971,6c0.864,3.712,2.2,8.731,0.707,12.427
		c-1.16,2.87-3.707,2.576-6.449,2.646c-3.615,0.093-7.233-0.117-10.849-0.022C163.371,145.211,163.263,144.66,163.184,144.089z"/>
	<path style="fill:#726A5F;" d="M192.307,144.089c-0.365-2.609-0.163-5.617,0.056-8.032c0.222-2.458,0.383-5.713,1.347-8.021
		c1.5-3.594,5.499-6.288,9.441-5.18c5.276,1.484,4.848,7.435,4.716,11.901c-0.074,2.48,0.262,4.971-0.004,7.446
		c-0.363,3.375-1.166,3.467-4.38,3.55c-3.615,0.093-7.233-0.117-10.849-0.022C192.494,145.211,192.386,144.66,192.307,144.089z"/>
	<path style="fill:#726A5F;" d="M224.498,121.212c-3.512,3.323-5.335,7.693-5.875,12.527c-0.307,2.745-1.32,9.085,0.134,11.64
		c1.887-0.831,4.74-0.595,6.807-0.713c2.577-0.149,5.739-0.74,8.23-0.211c2.018-4.444,1.663-11.625,0.529-16.317
		c-0.428-1.771-0.789-3.999-2.236-5.178C230.107,121.348,226.848,120.787,224.498,121.212z"/>
	<path style="fill:#726A5F;" d="M253.602,120.336c-4.929,1.797-6.622,6.943-6.664,11.768c-0.037,4.214-0.506,9,0.557,13.1
		c2.867-0.425,6.085-0.505,9.088-0.498c2.669,0.006,6.239,0.413,8.735-0.557c0.22-5.955,0.243-11.987-1.113-17.853
		C262.806,120.252,259.145,118.305,253.602,120.336z"/>
	<path style="fill:#726A5F;" d="M284.634,121.212c-2.244-1.133-5.712,4.362-6.293,5.801c-0.908,2.246-1.065,4.966-1.04,7.37
		c0.021,2.03-0.3,5.473,0.32,7.428c0.297,0.938-0.095,0.634,0.597,1.136c0.879,0.636,3.445,0.694,4.506,0.883
		c3.389,0.608,6.931,0.341,10.295,1.033c1.181-2.373,1.065-4.732,1.216-7.343c0.203-3.504,0.302-6.838-0.651-10.245
		C292.508,123.441,289.811,121.411,284.634,121.212z"/>
	<path style="fill:#726A5F;" d="M310.583,122.09c-4.27,0.093-5.898,6.332-6.298,9.622c-0.558,4.594-0.01,9.274,0.017,13.849
		c4.247-1.386,9.772,0.454,14.284-0.139c-0.04-1.5,0.689-3.878,0.848-5.637c0.21-2.32,0.504-4.772,0.251-7.114
		C319.166,127.849,315.903,120.114,310.583,122.09z"/>
	<path style="fill:#726A5F;" d="M339.511,122.265c-2.6-0.236-4.834,3.676-5.609,5.585c-1.108,2.727-1.71,6.027-2.008,8.954
		c-0.175,1.716-0.908,5.047-0.346,6.694c0.706,2.069,3.831,1.553,5.847,1.559c4.224,0.014,8.54-0.054,12.746,0.189
		c-0.58-1.898,0.146-4.856,0.027-6.931c-0.157-2.708-0.466-5.794-1.271-8.368C347.65,125.955,344.868,122.452,339.511,122.265z"/>
	<path style="fill:#726A5F;" d="M370.193,123.316c-8.05-0.448-7.822,16.656-7.509,21.725c1.142-0.414,2.824,0.052,4.087,0.103
		c2.994,0.121,6.114,0.871,9.091,0.798c2.182-0.053,2.776-1.31,3.281-3.375c0.833-3.405-0.52-7.283-1.411-10.515
		C376.504,127.599,375.895,124.181,370.193,123.316z"/>
	<path style="fill:#726A5F;" d="M185.008,185.027c-0.337-0.297-0.61-0.667-0.804-1.125c-1.173-2.778,0.12-6.333,1.328-8.808
		c1.21-2.475,3.758-5.863,6.751-6.113c3.176-0.265,4.58,2.965,5.398,5.655c1.154,3.791,1.084,8.892,0.833,12.849
		c-1.32-0.627-3.165-0.903-4.632-1.103C191.284,186.026,187.025,186.812,185.008,185.027z"/>
	<path style="fill:#726A5F;" d="M253.777,168.375c-2.397,0.342-4.233,4.119-4.952,6.071c-1.269,3.444-1.459,7.003-0.789,10.607
		c0.402,2.169,0.597,2.036,2.639,2.122c2.068,0.087,4.11,0.427,6.187,0.276c0.504-0.036,3.138-0.014,3.551-0.342
		c1.169-0.924,1.001-4.193,1.088-5.505c0.162-2.44-0.063-4.925-0.184-7.349c-0.086-1.735,0.047-3.651-1.258-5.006
		C258.242,167.36,255.892,168.019,253.777,168.375z"/>
	<path style="fill:#726A5F;" d="M320.401,168.551c-3.635-0.334-6.357,3.67-7.115,6.727c-0.66,2.662-1.399,8.27-0.204,10.779
		c1.947-0.599,4.162,0.369,6.137,0.655c2.634,0.382,5.468,0.459,8.128,0.437C329.053,180.289,327.952,171.825,320.401,168.551z"/>
	<path style="fill:#726A5F;" d="M364.408,168.2c-6.258,0.781-6.849,13.413-5.447,17.865c2.565-0.828,6.386,0.064,9.082,0.012
		c1.48-0.028,3.843,0.291,5.101-0.551c0.086-3.361,0.574-5.609-0.672-8.946C371.229,173.249,369.292,167.938,364.408,168.2z"/>
	<path style="fill:#726A5F;" d="M344.245,227.285c-4.06-0.454-5.397,13.452-4.204,15.971c1.097,2.318,10.689,3.205,13.111,1.698
		c2.858-1.78,1.175-6.676,0.421-9.179C352.066,230.783,350.177,227.327,344.245,227.285z"/>
	<path style="fill:#726A5F;" d="M291.121,226.933c-7.476-0.256-8.015,12.177-7.363,17.225c0.279,2.162,0.692,1.467,2.744,1.359
		c3.135-0.164,6.229,0.007,9.355-0.336c1.524-0.167,1.559,0.058,2.28-1.309c0.74-1.402,0.929-3.472,0.878-5.027
		C298.853,233.909,297.078,228.312,291.121,226.933z"/>
	<path style="fill:#726A5F;" d="M220.466,226.758c-3.741-0.011-6.588,4.835-7.2,7.92c-0.23,1.155-1.479,8.379-0.215,9.318
		c0.489,0.364,1.167-0.072,1.706-0.064c1.456,0.022,2.823,0.336,4.263,0.499c2.892,0.327,6.416,0.799,9.313,0.533
		C228.469,242.153,227.57,222.763,220.466,226.758z"/>
	<path style="fill:#726A5F;" d="M164.887,226.583c-3.82,0.377-6.004,6.166-6.758,9.277c-0.552,2.28-1.2,7.668-0.035,9.806
		c2.134-0.53,4.824-0.366,7.1-0.483c1.549-0.08,5.73,0.787,6.86-0.474c1.56-1.739,0.468-7.586,0.152-9.601
		c-0.278-1.769-0.621-3.6-1.353-5.247C170.028,228.002,168.813,227.668,164.887,226.583z"/>
	<path style="fill:#726A5F;" d="M146.828,168.551c-3.799-0.493-6.715,5.673-6.984,8.619c-0.239,2.606-0.811,6.159-0.178,8.711
		c3.342,0.081,11.019,1.734,13.314-0.953C155.957,181.439,152.385,165.556,146.828,168.551z"/>
	<path style="fill:#726A5F;" d="M163.835,303.902c-2.237-0.076-4.523,2.366-5.664,4.03c-1.849,2.698-1.784,6.441-1.88,9.599
		c-0.143,4.673,0.636,4.838,5.359,4.782c2.076-0.025,7.048,0.834,8.321-1.415c1.381-2.441,0.344-6.941,0.179-9.52
		C169.956,308.357,168.497,303.078,163.835,303.902z"/>
	<path style="fill:#726A5F;" d="M224.848,303.726c-3.919,0.274-6.618,5.713-6.826,9.12c-0.189,3.098-0.367,6.336-0.16,9.437
		c3.08-0.031,6.002,0.075,9.121-0.112c1.484-0.089,3.491,0.406,4.488-0.72C235.159,317.284,231.608,301.251,224.848,303.726z"/>
	<path style="fill:#726A5F;" d="M287.79,304.078c-1.413-0.667-4.202,1.045-5.282,1.908c-3.023,2.417-3.016,6.919-3.528,10.44
		c-0.231,1.589-1.089,4.165,0.039,5.503c0.801,0.951,3.765,1.6,4.913,1.589c1.852-0.016,3.716-0.924,5.516-1.291
		c0.665-0.135,2.006-0.095,2.634-0.443c1.033-0.572,1.253-1.193,1.478-2.423C294.149,316.142,293.647,303.616,287.79,304.078z"/>
	<path style="fill:#726A5F;" d="M347.051,304.253c-4.922-0.564-6.522,14.156-5.224,17.34c3.532-0.006,7.149,1.355,10.71,0.906
		c2.184-0.274,2.664-0.515,3.178-2.814C356.844,314.624,353.569,302.427,347.051,304.253z"/>
	<path style="fill:#726A5F;" d="M302.869,396.474c1.085,3.543-0.219,7.146-0.283,10.716c-0.059,3.33-1.597,9.891,4.048,8.899
		c2.465-0.434,4.35-1.086,6.953-1.042c1.486,0.025,4.531,0.646,5.77-0.33c1.143-0.901,0.791-3.264,0.864-4.57
		c0.225-4.029-0.075-7.654-0.491-11.622c-0.135-1.288,0.354-2.561-0.555-3.281c-1.014-0.804-4.994-0.157-6.181-0.169
		c-1.67-0.016-3.38-0.318-5.035-0.085C306.941,395.131,306.002,395.599,302.869,396.474z"/>
	<path style="fill:#726A5F;" d="M203.984,394.721c-1.394-0.174-2.753-0.208-4.186-0.052c-1.256,0.137-4.859,0.196-6.003,0.929
		c-2.083,1.335-1.216,9.046-1.298,11.501c-0.046,1.364-0.486,4.97,0.399,6.174c0.608,0.828,1.433,0.56,2.616,0.56
		c4.409,0.001,8.834,0.173,13.189-0.376c1.166-6.129,0.353-12.789,0.341-19.055C207.138,393.644,205.665,394.499,203.984,394.721z"
		/>
	<path style="fill:#726A5F;" d="M237.121,503.598c0.211-0.295,0.131-1.475,0.167-2.263c0.105-2.239,0.58-4.545,0.964-6.757
		c0.878-5.061,1.653-10.926,4.385-15.372c2.013-3.275,5.395-5.277,9.104-5.904c3.78-0.638,6.599,0.175,10.233,1.039
		c3.156,0.75,5.482,1.502,7.367,4.276c2.226,3.276,1.746,6.415,2.419,10.139c0.649,3.591,0.752,7.482,1.827,10.948
		c0.603,1.943,1.758,3.478-0.501,4.03c-2.489,0.608-5.747,0.285-8.318,0.501c-4.094,0.344-8.224,0.469-12.329,0.735
		c-3.16,0.205-6.05-0.708-9.14-0.696C241.477,504.281,238.631,505.649,237.121,503.598z"/>
</g>
<g>
	<path style="fill:#D6D0B6;" d="M246.438,86.305c0.126,5.272-1.867,11.071-1.049,16.249c0.756,4.791,5.313,5.917,8.262,1.369
		c2.814-4.34,1.37-11.255,1.2-16.171c-0.065-1.874,0.625-4.98-1.274-6.166C251.68,80.399,248.363,82.149,246.438,86.305z"/>
	<path style="fill:#D6D0B6;" d="M280.801,83.849c0.683,5.931-3.347,17.398,0.874,22.237c2.65,3.039,4.488,0.601,5.614-2.284
		c1.936-4.958,2.48-13.884,1.246-18.959C286.951,78.337,284.455,81.364,280.801,83.849z"/>
	<path style="fill:#D6D0B6;" d="M312.855,81.866c-2.644,2.507-1.974,7.563-1.648,10.747c0.414,4.046-0.355,8.341,0.69,12.324
		c1.234,4.698,5.676,5.279,8.832,1.455c3.901-4.726,3.872-17.283,0.608-22.258c-1.676-2.555-5.625-4.714-8.294-2.437
		C312.979,81.752,312.916,81.808,312.855,81.866z"/>
	<path style="fill:#D6D0B6;" d="M349.527,82.097c1.701,3.118-0.514,10.471-0.69,14.068c-0.172,3.507-1.552,8.367-0.738,11.836
		c1.16,4.953,4.365,7.235,7.957,2.864C360.645,105.28,363.446,78.588,349.527,82.097z"/>
	<path style="fill:#D6D0B6;" d="M385.292,85.953c-0.689,6.183-4.75,15.744-0.99,21.653c2.401,3.774,6.554,3.067,8.292-0.915
		c2.215-5.076,2.222-15.622,1.2-21.057C392.982,81.32,390.012,81.476,385.292,85.953z"/>
	<path style="fill:#D6D0B6;" d="M264.672,4.605c-0.011,4.21-3.032,20.083,1.256,22.116c3.147,1.491,5.59-2.829,6.039-5.107
		C272.991,16.429,274.141-5.282,264.672,4.605z"/>
	<path style="fill:#D6D0B6;" d="M295.878,4.955c2.79,4.679-3.738,15.03-0.025,19.649c2.228,2.773,5.385,0.938,6.647-1.886
		c1.894-4.237,1.99-14.213-0.145-18.662C300.263-0.3,298.875,2.14,295.878,4.955z"/>
	<path style="fill:#D6D0B6;" d="M322.528,4.605c-0.736,4.378-4.809,18.428,0.238,21.026c3.457,1.78,7.488-3.296,8.488-5.949
		C333.016,15.002,331.465-4.748,322.528,4.605z"/>
</g>
<path d="M146.543,188.868c1.575,0.008,3.173-0.257,4.747-0.295c1.118-0.027,2.517,0.018,3.463-0.697
	c1.875-1.416,0.82-4.635,0.772-6.6c-0.083-3.46-0.607-7.306-1.903-10.539c-1.919-4.786-8.317-5.728-11.76-2.002
	c-2.925,3.166-4.652,8.247-4.757,12.504c-0.05,2.018,0.276,4.687,1.786,6.216C140.64,189.222,144.184,188.856,146.543,188.868z
	 M142.37,174.443c1.038-2.221,2.545-5.081,5.461-4.454c2.913,0.627,2.999,3.957,3.504,6.368c0.309,1.48,0.277,2.954,0.33,4.455
	c0.028,0.777,0.375,2.037,0.005,2.767c-0.144,0.285-0.327,0.466-0.537,0.58c-0.568,0.309-1.333,0.129-2.065,0.175
	c-1.438,0.089-2.846,0.637-4.299,0.457c-1.415-0.176-2.822-0.318-4.217-0.106C140.466,181.2,140.998,177.38,142.37,174.443z"/>
<path d="M191.799,188.868c1.575,0.008,3.173-0.257,4.747-0.295c1.118-0.027,2.517,0.018,3.463-0.697
	c1.875-1.416,0.82-4.635,0.772-6.6c-0.085-3.46-0.607-7.306-1.903-10.539c-1.919-4.786-8.317-5.728-11.76-2.002
	c-2.924,3.166-4.652,8.247-4.757,12.504c-0.05,2.018,0.276,4.687,1.786,6.216C185.896,189.222,189.44,188.856,191.799,188.868z
	 M187.627,174.443c1.038-2.221,2.545-5.081,5.461-4.454c2.913,0.627,2.999,3.957,3.504,6.368c0.309,1.48,0.277,2.954,0.33,4.455
	c0.028,0.777,0.375,2.037,0.005,2.767c-0.144,0.285-0.326,0.466-0.537,0.58c-0.568,0.309-1.333,0.129-2.065,0.175
	c-1.438,0.089-2.846,0.637-4.299,0.457c-1.415-0.176-2.822-0.318-4.217-0.106C185.721,181.2,186.254,177.38,187.627,174.443z"/>
<path d="M254.629,188.868c1.575,0.008,3.173-0.257,4.747-0.295c1.118-0.027,2.517,0.018,3.463-0.697
	c1.875-1.416,0.82-4.635,0.772-6.6c-0.083-3.46-0.608-7.306-1.903-10.539c-1.919-4.786-8.317-5.728-11.76-2.002
	c-2.925,3.166-4.653,8.247-4.757,12.504c-0.05,2.018,0.276,4.687,1.786,6.216C248.726,189.222,252.27,188.856,254.629,188.868z
	 M250.456,174.443c1.038-2.221,2.545-5.081,5.459-4.454c2.913,0.627,2.999,3.957,3.504,6.368c0.309,1.48,0.277,2.954,0.33,4.455
	c0.028,0.777,0.375,2.037,0.005,2.767c-0.144,0.285-0.326,0.466-0.537,0.58c-0.568,0.309-1.333,0.129-2.065,0.175
	c-1.438,0.089-2.845,0.637-4.299,0.457c-1.415-0.176-2.822-0.318-4.217-0.106C248.551,181.2,249.084,177.38,250.456,174.443z"/>
<path d="M165.307,247.438c1.575,0.008,3.173-0.257,4.747-0.295c1.118-0.027,2.517,0.018,3.463-0.697
	c1.875-1.416,0.82-4.635,0.772-6.6c-0.085-3.46-0.607-7.306-1.903-10.539c-1.919-4.786-8.317-5.728-11.76-2.002
	c-2.924,3.166-4.652,8.247-4.757,12.504c-0.05,2.018,0.274,4.687,1.786,6.216C159.403,247.793,162.948,247.426,165.307,247.438z
	 M161.134,233.012c1.038-2.221,2.545-5.081,5.461-4.454c2.913,0.627,2.999,3.957,3.504,6.368c0.309,1.48,0.277,2.954,0.33,4.455
	c0.028,0.776,0.375,2.037,0.005,2.767c-0.144,0.284-0.327,0.466-0.537,0.58c-0.568,0.309-1.333,0.129-2.065,0.175
	c-1.438,0.089-2.846,0.637-4.299,0.457c-1.415-0.176-2.822-0.318-4.217-0.106C159.229,239.769,159.761,235.949,161.134,233.012z"/>
<path d="M220.449,247.438c1.575,0.008,3.173-0.257,4.747-0.295c1.118-0.027,2.517,0.018,3.463-0.697
	c1.875-1.416,0.82-4.635,0.772-6.6c-0.085-3.46-0.608-7.306-1.903-10.539c-1.919-4.786-8.317-5.728-11.76-2.002
	c-2.924,3.166-4.652,8.247-4.757,12.504c-0.05,2.018,0.276,4.687,1.786,6.216C214.546,247.793,218.09,247.426,220.449,247.438z
	 M216.277,233.012c1.038-2.221,2.545-5.081,5.459-4.454c2.912,0.627,2.999,3.957,3.504,6.368c0.309,1.48,0.277,2.954,0.33,4.455
	c0.028,0.776,0.375,2.037,0.005,2.767c-0.144,0.284-0.326,0.466-0.537,0.58c-0.567,0.309-1.333,0.129-2.065,0.175
	c-1.438,0.089-2.846,0.637-4.299,0.457c-1.415-0.176-2.822-0.318-4.217-0.106C214.372,239.769,214.905,235.949,216.277,233.012z"/>
<path d="M170.735,306.642c-1.919-4.786-8.317-5.728-11.76-2.002c-2.924,3.166-4.652,8.247-4.757,12.504
	c-0.05,2.018,0.276,4.687,1.786,6.216c1.749,1.769,5.293,1.403,7.651,1.415c1.575,0.008,3.173-0.257,4.747-0.295
	c1.118-0.027,2.517,0.018,3.463-0.697c1.875-1.416,0.82-4.635,0.772-6.6C172.555,313.722,172.031,309.875,170.735,306.642z
	 M168.782,319.484c-0.144,0.285-0.326,0.466-0.537,0.58c-0.567,0.309-1.333,0.129-2.065,0.175c-1.438,0.089-2.846,0.637-4.299,0.457
	c-1.415-0.176-2.822-0.318-4.217-0.106c-0.086-3.484,0.447-7.305,1.82-10.242c1.038-2.221,2.545-5.081,5.459-4.454
	c2.912,0.627,2.999,3.957,3.504,6.368c0.309,1.48,0.277,2.954,0.33,4.454C168.805,317.493,169.152,318.755,168.782,319.484z"/>
<path d="M232.01,306.642c-1.919-4.786-8.317-5.728-11.76-2.002c-2.924,3.166-4.652,8.247-4.757,12.504
	c-0.05,2.018,0.275,4.687,1.786,6.216c1.749,1.769,5.293,1.403,7.651,1.415c1.575,0.008,3.173-0.257,4.747-0.295
	c1.118-0.027,2.517,0.018,3.463-0.697c1.875-1.416,0.82-4.635,0.772-6.6C233.829,313.722,233.306,309.875,232.01,306.642z
	 M230.056,319.484c-0.144,0.285-0.326,0.466-0.537,0.58c-0.568,0.309-1.333,0.129-2.065,0.175c-1.438,0.089-2.846,0.637-4.299,0.457
	c-1.415-0.176-2.822-0.318-4.217-0.106c-0.086-3.484,0.447-7.305,1.82-10.242c1.038-2.221,2.545-5.081,5.461-4.454
	c2.913,0.627,2.999,3.957,3.504,6.368c0.309,1.48,0.277,2.954,0.33,4.454C230.079,317.493,230.426,318.755,230.056,319.484z"/>
<path d="M293.285,306.642c-1.919-4.786-8.317-5.728-11.76-2.002c-2.924,3.166-4.652,8.247-4.757,12.504
	c-0.05,2.018,0.276,4.687,1.786,6.216c1.749,1.769,5.293,1.403,7.651,1.415c1.575,0.008,3.173-0.257,4.747-0.295
	c1.118-0.027,2.517,0.018,3.463-0.697c1.875-1.416,0.82-4.635,0.772-6.6C295.105,313.722,294.582,309.875,293.285,306.642z
	 M291.332,319.484c-0.144,0.285-0.327,0.466-0.537,0.58c-0.568,0.309-1.333,0.129-2.065,0.175c-1.438,0.089-2.845,0.637-4.299,0.457
	c-1.415-0.176-2.822-0.318-4.217-0.106c-0.086-3.484,0.447-7.305,1.82-10.242c1.038-2.221,2.545-5.081,5.461-4.454
	c2.913,0.627,2.999,3.957,3.504,6.368c0.309,1.48,0.277,2.954,0.33,4.454C291.355,317.493,291.702,318.755,291.332,319.484z"/>
<path d="M210.766,394.108c-0.266-0.911-1.037-1.401-1.939-1.477c-2.497-0.211-4.846-0.011-7.155,0.446
	c-1.962-0.127-3.953-0.336-5.887-0.156c-2.637,0.245-4.257,1.64-4.832,4.249c-0.752,3.403-0.7,7.635-0.549,11.077
	c0.117,2.68-0.952,6.523,2.111,7.938c2.463,1.137,6.468,0.273,9.147,0.576c2.402,0.272,6.395,0.338,8.352-1.326
	c2.662-2.261,1.526-6.322,1.31-9.261C211.027,402.146,211.905,398.016,210.766,394.108z M207.576,411.077
	c-1.067,1.821-4.07,1.233-5.849,1.1c-1.906-0.144-4.267,0.446-6.083,0.005c-0.569-0.138-0.798-0.109-0.877-0.074
	c0.033-0.053,0.06-0.187-0.035-0.522c-0.203-0.718,0.123-1.93,0.019-2.744c-0.354-2.783-0.042-5.406,0.06-8.209
	c0.023-0.619-0.144-2.262,0.204-2.767c0.901-1.306,3.883-0.846,5.299-0.941c0.244-0.017,1.178-0.191,2.26-0.423
	c0.659,0.097,1.312,0.221,1.981,0.273c0.841,0.065,1.749-0.12,2.613-0.192c0.301,2.109,0.089,4.38,0.062,6.464
	C207.213,404.487,208.271,409.893,207.576,411.077z"/>
<path d="M400.568,144.288c3.769-4.478,10.721-11.058,11.615-17.188c0.076-0.517-0.256-2.621-0.729-5.194
	c0.812-3.259,0.644-6.652,0.271-10.053c-0.605-5.509-0.679-11.146-0.666-16.694c0.012-4.912,1.305-11.87-3.812-14.748
	c-3.103-1.746-6.152-2.095-9.591-1.48c-3.977,0.711-7.909,0.427-11.845,0.973c-7.128,0.988-5.479,8.39-6.183,13.905
	c-0.295,2.315-0.005,4.702-0.427,6.976c-0.192,1.036-0.733,2.087-1.074,3.142c-1.26-0.114-3.242,0.338-4.106,0.32
	c-2.951-0.06-2.947-0.848-3.469-3.602c-0.343-1.813-0.494-3.657-0.767-5.482c-0.605-4.054,0.111-8.752-0.75-12.684
	c-0.553-2.524-2.196-4.029-4.713-4.511c-3.613-0.691-7.835-0.701-11.553-0.791c-7.305-0.18-9.138,1.858-8.973,9.256
	c0.1,4.53-0.094,9.054,0.085,13.585c0.046,1.153,0.269,2.745-0.283,3.07c-0.605,0.355-5.346-1.254-6.349-1.428
	c-1.533-0.267-3.049-0.074-3.803-1.241c-0.047-0.073-0.086-0.168-0.126-0.261c0.08-1.114,0.179-2.215,0.151-3.194
	c-0.062-2.182-0.457-4.275-0.689-6.441c-0.389-3.646,0.673-7.653-1.926-10.674c-0.377-0.437-0.827-0.816-1.306-1.166
	c0.483-5.898,0.081-12.004,0.114-17.899c0.011-1.966,0.445-4.632,0.217-6.983c1.385,0.057,2.818-0.1,4.245-0.418
	c0.805-0.18,1.608-0.955,1.773-1.773c1.119-5.592-0.672-12.029,5.635-15.145c0.688-0.34,1.242-1.281,1.176-2.049
	c-0.302-3.493-0.764-6.818-1.034-10.229c0.715-6.397,0.012-11.952-0.445-18.433c-0.089-1.274-0.836-2.511-2.158-2.835
	c-4.942-1.21-12.402-3.852-17.482-2.582c-6.42,1.604-3.989,10.976-4.616,15.535c-0.276,2.01,0.527,6.97-3.155,5.101
	c-2.408-1.223-1.449-6.62-1.541-8.785c-0.156-3.654,0.53-8.176-3.191-10.024c-3.237-1.607-11.88-3.289-15.298-1.079
	c-4.073,2.633-1.364,9.083-1.414,12.815c-0.03,2.215-1.045,4.516-0.985,6.634c0.012,0.412-0.095,1.624,0.091,2.1
	c-2.139,0.338-8.393,0.278-8.462,0.201c-0.133-0.149-0.005-4.125-0.014-4.267c-0.105-1.613-0.286-3.173-0.497-4.772
	c-0.469-3.582-0.359-7.167-0.959-10.728c-0.131-0.772-0.946-1.542-1.698-1.698c-4.904-1.017-9.811,0.319-14.77-0.534
	c-1.003-0.173-2.256,0.083-2.745,1.117c-1.664,3.514-1.7,5.971-1.356,9.843c0.301,3.383-0.087,6.731,0.205,10.06
	c-0.016,0.016-0.033,0.024-0.047,0.04c-0.595,0.621-4.767-0.013-5.775-0.004c-1.281,0.012-3.004,0.497-4.211,0.123
	c-0.128-0.04-0.232-0.088-0.335-0.137c0.296-3.336-0.094-6.692,0.208-10.083c0.344-3.873,0.308-6.329-1.356-9.843
	c-0.489-1.033-1.741-1.289-2.745-1.117c-4.959,0.853-9.866-0.483-14.77,0.534c-0.752,0.156-1.567,0.926-1.698,1.698
	c-0.601,3.561-0.491,7.146-0.959,10.728c-0.209,1.599-0.392,3.159-0.497,4.772c-0.01,0.141,0.12,4.118-0.014,4.267
	c-0.069,0.077-6.323,0.138-8.462-0.201c0.186-0.476,0.079-1.688,0.091-2.1c0.06-2.118-0.955-4.419-0.985-6.634
	c-0.051-3.731,2.66-10.182-1.414-12.815c-3.419-2.21-12.061-0.528-15.298,1.079c-3.722,1.849-3.035,6.369-3.191,10.024
	c-0.092,2.165,0.868,7.561-1.541,8.785c-3.682,1.871-2.878-3.091-3.155-5.101c-0.627-4.558,1.804-13.93-4.616-15.535
	c-5.08-1.269-12.539,1.373-17.482,2.582c-1.322,0.324-2.069,1.561-2.158,2.835c-0.458,6.481-1.16,12.034-0.445,18.433
	c-0.271,3.411-0.732,6.736-1.034,10.229c-0.066,0.769,0.488,1.71,1.176,2.049c6.307,3.115,4.516,9.552,5.635,15.145
	c0.164,0.818,0.968,1.593,1.773,1.773c1.427,0.319,2.86,0.476,4.245,0.418c-0.227,2.352,0.207,5.017,0.217,6.983
	c0.033,5.893-0.37,12,0.112,17.899c-0.48,0.35-0.929,0.729-1.306,1.166c-2.599,3.021-1.536,7.028-1.926,10.674
	c-0.231,2.165-0.626,4.26-0.689,6.441c-0.028,0.978,0.071,2.08,0.151,3.194c-0.04,0.093-0.08,0.189-0.126,0.261
	c-0.754,1.167-2.269,0.974-3.803,1.241c-1.003,0.174-5.742,1.784-6.349,1.428c-0.552-0.325-0.329-1.918-0.283-3.07
	c0.179-4.529-0.016-9.053,0.085-13.585c0.164-7.398-1.67-9.436-8.973-9.256c-3.718,0.092-7.94,0.1-11.553,0.791
	c-2.517,0.482-4.159,1.987-4.713,4.511c-0.862,3.933-0.144,8.631-0.75,12.684c-0.273,1.825-0.424,3.67-0.767,5.482
	c-0.522,2.754-0.518,3.543-3.469,3.602c-0.864,0.018-2.846-0.434-4.106-0.32c-0.341-1.055-0.882-2.105-1.074-3.142
	c-0.422-2.274-0.131-4.662-0.427-6.976c-0.704-5.516,0.946-12.916-6.183-13.905c-3.936-0.546-7.868-0.261-11.845-0.973
	c-3.439-0.615-6.488-0.266-9.591,1.48c-5.117,2.878-3.823,9.835-3.812,14.748c0.013,5.548-0.059,11.185-0.666,16.694
	c-0.375,3.4-0.541,6.794,0.271,10.053c-0.474,2.573-0.805,4.676-0.73,5.194c0.895,6.129,7.847,12.71,11.615,17.188
	c1.182,1.405,2.615,2.362,4.193,3.033c-1.158,9.462-2.105,19.021-2.378,28.537c-0.288,10.045-0.257,20.358-1.294,30.369
	c-1.086,10.497,0.074,21.203-0.453,31.756c-0.205,4.117-0.706,7.545-0.198,11.64c0.567,4.579-0.143,9.155,0.336,13.705
	c-0.175,0.876-0.282,1.742-0.295,2.569c-1.437,0.104-2.77,0.402-3.717,0.833c-4.952,2.246-6.078,7.722-5.665,12.694
	c0.446,5.354,4.444,6.194,9.04,6.675c0.891,0.093,1.774,0.185,2.655,0.277c-0.14,3.976-0.245,7.879-0.808,11.896
	c-0.923,6.575,0.268,13.205-0.472,19.779c-1.258,11.157-1.79,21.942-1.869,33.209c-0.035,4.919,0.593,9.593,0.306,14.504
	c-0.376,6.426-0.162,12.936-0.216,19.374c-0.118,13.768-0.042,27.539-0.042,41.308c0,6.369-0.085,12.746,0.05,19.113
	c0.137,6.523-1.111,12.789-1.503,19.268c-0.35,5.777-0.727,11.349-0.649,17.175c0.08,5.932-1.096,12.533,0.075,18.355
	c1.944,9.673,11.278,6.635,18.713,8.696c10.468,2.9,21.76,0.354,32.429,1.357c7.09,0.666,14,1.481,21.132,1.359
	c3.173-0.054,6.358,0.319,9.524,0.213c2.893-0.097,5.661-0.836,8.572-0.853c6.203-0.035,12.248,0.006,18.435-0.692
	c3.88-0.437,8.306,0.175,11.928-1.263c6.481,0.327,12.694,0.338,19.266-0.076c0.4-0.025,0.75-0.115,1.078-0.231
	c2.78,0.135,5.546,0.245,8.369,0.225c1.804-0.012,3.618-0.007,5.43-0.005c0.024,0.001,0.045,0.008,0.07,0.011
	c6.572,0.414,12.786,0.402,19.266,0.076c3.622,1.438,8.048,0.825,11.928,1.263c6.187,0.698,12.234,0.657,18.435,0.692
	c2.911,0.017,5.681,0.756,8.572,0.853c3.165,0.106,6.351-0.267,9.524-0.213c7.132,0.123,14.044-0.692,21.132-1.359
	c10.669-1.002,21.961,1.543,32.429-1.357c7.435-2.06,16.769,0.979,18.713-8.696c1.171-5.823-0.006-12.425,0.074-18.355
	c0.079-5.826-0.298-11.397-0.649-17.175c-0.393-6.478-1.641-12.745-1.503-19.268c0.133-6.368,0.05-12.745,0.05-19.113
	c0-13.769,0.077-27.54-0.042-41.308c-0.056-6.438,0.159-12.948-0.216-19.374c-0.288-4.911,0.341-9.585,0.306-14.504
	c-0.08-11.267-0.613-22.052-1.869-33.209c-0.741-6.572,0.451-13.204-0.472-19.779c-0.564-4.018-0.669-7.921-0.808-11.897
	c0.882-0.091,1.764-0.184,2.655-0.277c4.595-0.481,8.594-1.321,9.04-6.675c0.413-4.972-0.713-10.448-5.665-12.694
	c-0.947-0.43-2.28-0.729-3.717-0.833c-0.013-0.825-0.12-1.693-0.295-2.569c0.479-4.551-0.231-9.127,0.336-13.705
	c0.508-4.095,0.007-7.523-0.199-11.64c-0.528-10.553,0.633-21.259-0.453-31.756c-1.036-10.013-1.005-20.324-1.294-30.369
	c-0.273-9.517-1.219-19.075-2.378-28.537C397.954,146.65,399.387,145.693,400.568,144.288z M176.381,34.709
	c-3.223-2.376-1.048-5.404-0.962-8.812c0.099-3.918,0.749-8.947,0.518-13.414c0.214-1.459,0.365-2.88,0.501-4.365
	c3.132-0.787,6.732-1.752,9.703-1.386c2.613,0.321,2.287-0.463,2.165,2.666c-0.082,2.118-0.164,4.136,0.041,6.252
	c0.465,4.789-0.132,11.174,6.033,11.841c4.44,0.48,9.959-0.173,11.221-5.14c0.718-2.825-0.122-6.276-0.267-9.132
	c-0.182-3.593-1.842-6.441,1.984-7.404c-0.284,0.071,5.055-0.916,6.046-0.61c2.14,0.659,1.682,1.243,1.446,3.601
	c-0.355,3.549-0.738,6.645-0.535,10.266c0.382,6.826,0.288,9.472,7.606,10.194c3.796,0.373,12.402,0.559,13.678-4.378
	c0.649-2.51-0.576-5.684-0.39-8.341c0.247-3.524-0.249-7.21-0.106-10.734c3.501-0.388,7.104,0.14,10.671-0.039
	c1.013,5.743-1.943,12.591-0.534,18.482c0.234,0.98,0.976,1.595,1.836,1.838c0.435,0.442,0.932,0.814,1.477,1.067
	c2.606,1.204,5.71,0.639,8.478,0.674c3.097,0.039,6.205,0.527,8.331-1.869c0.702-0.3,1.28-0.869,1.48-1.71
	c1.41-5.891-1.547-12.739-0.534-18.482c3.567,0.179,7.171-0.349,10.671,0.039c0.143,3.524-0.353,7.212-0.106,10.734
	c0.186,2.657-1.039,5.832-0.39,8.341c1.276,4.937,9.881,4.751,13.678,4.378c7.318-0.72,7.225-3.367,7.606-10.194
	c0.203-3.622-0.18-6.717-0.535-10.266c-0.236-2.358-0.694-2.942,1.446-3.601c0.99-0.306,6.329,0.682,6.046,0.61
	c3.826,0.964,2.167,3.812,1.984,7.404c-0.145,2.857-0.984,6.307-0.267,9.132c1.262,4.968,6.781,5.62,11.221,5.14
	c6.165-0.666,5.569-7.051,6.033-11.841c0.205-2.116,0.123-4.134,0.041-6.252c-0.122-3.128-0.447-2.344,2.165-2.666
	c2.97-0.366,6.571,0.599,9.703,1.386c0.135,1.485,0.286,2.906,0.501,4.365c-0.231,4.467,0.419,9.497,0.518,13.414
	c0.086,3.409,2.262,6.436-0.962,8.812c-0.986,0.727-2.055,0.961-2.909,1.738c-11.219-2.156-23.051,0.512-34.447,0.036
	c-5.817-0.243-11.724-0.277-17.531-0.642c-3.462-0.218-7.162-0.559-10.72-0.249c-5.024-0.186-10.113,0.077-15.107-0.239
	c-5.372-0.341-11.196-0.477-16.79,0.118c-2.314,0.042-4.632,0.23-6.849,0.37c-5.807,0.365-11.714,0.399-17.531,0.642
	c-11.396,0.476-23.227-2.192-34.447-0.036C178.437,35.67,177.367,35.437,176.381,34.709z M180.769,48.836
	c-0.216-0.04-0.143-4.726-0.371-8.235c3.689,0.267,7.632-0.174,11.124,0.037c7.494,0.454,14.678,0.829,22.216,0.436
	c6.601-0.344,13.539-0.29,20.326-0.86c1.48,0.076,3-0.051,4.345-0.073c4.95-0.083,9.928-0.162,14.872,0.128
	c7.909,0.464,17.27,1.432,25.432,0.006c6.541,0.504,13.205,0.466,19.556,0.798c7.538,0.394,14.722,0.019,22.216-0.436
	c3.492-0.213,7.435,0.23,11.124-0.037c-0.228,3.509-0.156,8.195-0.371,8.235c-1.323,0.243-2.666,0.335-4.025,0.295
	c-0.239-0.122-0.493-0.232-0.773-0.323c-4.777-1.539-10.577-0.691-15.435-0.147c-4.115,0.46-8.274,0.147-12.4,0.646
	c-3.186,0.385-6.336,0.259-9.305,1.19c-2.576-0.06-5.211-0.508-7.759-0.765c-3.675-0.371-7.3-1.318-10.533-0.364
	c-4.999-0.312-10.312,0.388-14.954,0.413c-4.666,0.025-9.382-0.066-14.085-0.062c-3.469-1.506-7.457-0.396-11.504,0.012
	c-2.548,0.257-5.182,0.704-7.759,0.765c-2.969-0.932-6.118-0.805-9.305-1.19c-4.127-0.498-8.286-0.186-12.4-0.646
	c-4.858-0.544-10.658-1.392-15.435,0.147c-0.28,0.091-0.534,0.202-0.773,0.323C183.434,49.171,182.091,49.079,180.769,48.836z
	 M307.552,93.045c-0.021,2.838-0.829,5.271-0.965,8.05c0.022,1.051,0.048,2.103,0.081,3.154c-0.001,0.022-0.001,0.037-0.002,0.059
	c-1.149-0.596-5.278-1.529-6.068-1.554c-0.291-0.01-1.486-0.289-2.076-0.253c-0.185-1.379-0.761-4.51-0.754-4.246
	c-0.576-4.939,0.741-12.309-1.891-16.745c-1.684-2.838-4.67-3.228-7.567-2.579c-2.847-0.518-6.948-1.285-9.22,0.567
	c-2.654,2.162-1.801,5.778-1.518,8.757c0.431,4.547-0.231,10.048-0.955,14.827c-1.682-0.025-3.788-0.346-4.612-1.213
	c-1.019-1.072-0.611-3.496-0.807-5.203c-0.424-3.718-0.076-7.8-0.785-11.434c-0.524-2.686-2.66-4.861-5.173-5.787
	c-0.141-0.116-0.298-0.224-0.48-0.314c-3.512-1.764-10.466-1.978-15.577-0.163c-3.451,0.091-6.899,2.744-7.585,6.264
	c-0.709,3.635-0.361,7.716-0.785,11.434c-0.195,1.707,0.211,4.131-0.806,5.203c-0.824,0.868-2.93,1.187-4.612,1.213
	c-0.724-4.779-1.386-10.28-0.955-14.827c0.283-2.979,1.136-6.595-1.518-8.757c-2.272-1.851-6.373-1.085-9.22-0.567
	c-2.898-0.649-5.884-0.26-7.567,2.579c-2.632,4.437-1.315,11.807-1.891,16.745c0.007-0.263-0.568,2.867-0.754,4.246
	c-0.59-0.036-1.786,0.243-2.076,0.253c-0.79,0.025-4.919,0.958-6.068,1.554c-0.001-0.022-0.001-0.037-0.002-0.059
	c0.033-1.051,0.059-2.103,0.081-3.154c-0.137-2.78-0.946-5.212-0.965-8.05c-0.031-4.344,0.901-8.838,0.533-13.092
	c-0.116-1.33-0.915-2.845-2.374-3.119c-3.822-0.717-10.239-1.349-15.346-0.188c0.572-3.915,1.046-7.682,1.022-11.916
	c-0.016-2.806,0.133-5.617,0.007-8.421c-0.124-2.756-1.156-1.42,2.324-1.797c5.18-0.562,9.946,0.052,15.172,0.048
	c4.373-0.004,9.249,1.083,13.708,0.541c2.894,0.458,5.815,0.388,9.079,0.15c2.111-0.155,4.212-0.337,6.315-0.515
	c0.55,0.071,1.102,0.139,1.652,0.204c5.758,0.689,11.55,0.668,17.347,0.713c4.858,0.037,9.749,0.111,14.584,0.051
	c2.886-0.035,6.265,0.3,8.905-0.946c2.013,0.17,4.025,0.344,6.047,0.493c3.264,0.238,6.184,0.308,9.079-0.15
	c4.459,0.541,9.335-0.545,13.708-0.541c5.226,0.005,9.993-0.61,15.172-0.048c3.48,0.378,2.447-0.959,2.324,1.797
	c-0.126,2.805,0.023,5.614,0.007,8.421c-0.024,4.234,0.45,8.001,1.022,11.916c-5.108-1.159-11.524-0.528-15.346,0.188
	c-1.46,0.274-2.258,1.788-2.374,3.119C306.65,84.208,307.582,88.701,307.552,93.045z M259.149,502.339
	c-4.405,0.269-9.167-0.201-13.827-0.176c-1.622-0.052-3.248-0.092-4.876-0.139c1.178-4.6,1.224-9.336,1.997-14.04
	c0.603-3.666,1.952-7.075,4.621-9.81c0.626-0.64,1.32-1.119,2.023-1.565c3.396-1.271,7.247-1.581,10.543-0.958
	c2.875,0.543,4.464,2.016,6.308,3.658c2.016,2.518,3.101,5.499,3.624,8.676c0.772,4.691,0.82,9.412,1.989,14
	C267.418,502.034,263.287,502.086,259.149,502.339z M393.393,500.671c-5.137,0.406-10.185,2.29-15.284,2.43
	c-10.407,0.288-20.633-0.62-31.083-0.071c-20.431,1.074-41.23,0.092-61.606-1.602c-1.568-0.684-3.041-0.416-5.182-0.08
	c-1.352,0.213-2.724,0.357-4.106,0.457c0.104-2.709-0.394-5.327-0.51-8.143c-0.157-3.843-0.158-7.867-1.538-11.532
	c-0.972-2.58-2.703-5.047-4.906-6.825c-2.523-3.176-5.691-4.409-9.609-4.901c-5.32-0.668-12.402,0.348-16.206,4.478
	c-2.461,1.796-4.396,4.46-5.445,7.249c-1.38,3.665-1.381,7.689-1.538,11.532c-0.115,2.817-0.614,5.434-0.51,8.143
	c-1.382-0.102-2.754-0.245-4.106-0.457c-2.14-0.336-3.612-0.604-5.182,0.08c-20.374,1.694-41.174,2.675-61.606,1.602
	c-10.45-0.55-20.678,0.358-31.083,0.071c-5.099-0.141-10.147-2.024-15.284-2.43c-2.395-0.189-1.583-0.006-1.741-1.456
	c-0.384-3.528-0.214-7.019-0.23-10.572c-0.048-11.184,0.092-22.113,1.629-33.193c1.567-11.296,0.359-23.451,0.359-34.859
	c0-12.555,0.046-25.109-0.06-37.663c-0.048-5.72-0.174-11.446-0.094-17.165c0.069-4.988-1.199-9.584-1.171-14.504
	c0.065-11.811,1.198-23.161,1.955-34.896c0.425-6.6-0.23-13.101,0.427-19.72c0.353-3.567,0.054-6.595-0.662-9.74
	c5.688,0.529,11.314,0.915,17.196,0.887c17.204-0.082,34.37,0.804,51.605,0.789c8.471-0.007,17.393,0.866,25.798-0.139
	c2.838-0.34,5.718-0.395,8.606-0.389c4.487,0.788,9.741,0.047,13.873,0.274c7.468,0.412,15.143,0.423,22.614,0.377
	c6.89-0.042,13.719-0.151,20.629-0.442c4.894-0.207,10.699,0.66,15.835-0.093c1.075,0.059,2.146,0.146,3.212,0.273
	c8.404,1.005,17.328,0.132,25.798,0.139c17.234,0.014,34.401-0.871,51.605-0.789c5.882,0.028,11.509-0.358,17.196-0.887
	c-0.717,3.144-1.015,6.172-0.662,9.74c0.655,6.618,0,13.119,0.425,19.72c0.756,11.736,1.89,23.085,1.954,34.896
	c0.027,4.921-1.24,9.516-1.171,14.504c0.079,5.719-0.046,11.445-0.094,17.165c-0.108,12.554-0.06,25.109-0.06,37.663
	c0,11.407-1.208,23.562,0.359,34.859c1.538,11.08,1.677,22.009,1.629,33.193c-0.016,3.553,0.154,7.044-0.23,10.572
	C394.976,500.665,395.788,500.483,393.393,500.671z M397.635,270.915c0.875,0.175,1.704,0.373,2.371,0.569
	c3.634,1.072,6.803,7.121,1.648,8.723c-4.539,1.411-10.968,1.166-15.729,1.121c-12.429-0.117-24.798,0.563-37.188,0.533
	c-13.518-0.033-27.071-0.27-40.586,0.031c-8.479,0.189-16.99-1.165-25.361-0.511c-8.093-0.137-16.409,0.885-24.078,1.016
	c-7.164,0.122-14.434,0.056-21.615,0.021c-0.4-0.001-0.813-0.007-1.234-0.016c-10.486-2.506-21.272-0.271-32.006-0.51
	c-13.515-0.301-27.068-0.064-40.586-0.031c-12.39,0.03-24.758-0.649-37.188-0.533c-4.762,0.045-11.192,0.289-15.731-1.121
	c-5.155-1.602-1.985-7.651,1.648-8.723c0.666-0.197,1.496-0.394,2.371-0.569c1.537,0.54,3.417,0.576,5.041,0.84
	c5.262,0.851,10.978,1.45,16.307,1.666c7.064,0.288,14.134,0.839,21.225,0.63c13.33-0.392,26.442-1.005,39.802-1.065
	c7.33-0.033,14.602-0.697,21.883,0.326c3.907,0.55,8.542,0.41,12.846-0.211c1.19,0.063,2.374,0.116,3.528,0.213
	c6.002,0.498,11.802,0.454,17.818,0.337c5.92-0.116,11.893-0.509,17.803-0.412c4.609,0.076,9.28,0.676,13.864,0.294
	c3.078,0.214,6.163,0.166,8.89-0.219c7.279-1.023,14.553-0.359,21.883-0.326c13.36,0.06,26.473,0.673,39.802,1.065
	c7.092,0.209,14.161-0.342,21.225-0.63c5.328-0.216,11.043-0.816,16.307-1.666C394.217,271.491,396.097,271.454,397.635,270.915z
	 M119.19,250.189c-0.505-4.235-0.26-7.955-0.168-12.205c0.24-11.198-1.037-22.403,0.131-33.543
	c1.019-9.723,0.648-19.756,0.926-29.528c0.256-8.965,1.137-17.494,0.43-26.333c2.377,0.33,4.843,0.396,7.152,0.552
	c9.338,0.632,18.992-0.321,28.374-0.15c8.524,0.156,16.985-0.547,25.519-0.255c3.347,0.115,6.587,0.853,9.93,0.591
	c4.343-0.341,8.193,0.298,12.55,0.284c3.849-0.013,7.803,0.703,11.606,0.35c3.991-0.369,7.981-0.993,11.983-1.118
	c3.955-0.122,7.874-0.352,11.822-0.642c2.475-0.181,4.837,0.099,7.065-0.636c4.281,0.064,8.6,0.278,12.818,0.556
	c3.097,0.204,6.201,0.034,9.309-0.04c1.272,0.057,2.579,0.021,3.919,0.12c3.948,0.29,7.867,0.52,11.822,0.642
	c4.003,0.124,7.992,0.749,11.983,1.118c3.804,0.352,7.759-0.365,11.606-0.35c4.357,0.015,8.207-0.625,12.55-0.284
	c3.344,0.262,6.583-0.475,9.93-0.591c8.534-0.292,16.995,0.411,25.517,0.255c9.383-0.173,19.036,0.781,28.374,0.15
	c2.309-0.156,4.774-0.222,7.152-0.552c-0.706,8.84,0.175,17.368,0.431,26.333c0.278,9.772-0.093,19.805,0.926,29.528
	c1.167,11.14-0.109,22.345,0.13,33.543c0.092,4.25,0.337,7.968-0.168,12.205c-0.572,4.791-0.481,9.953,0.474,14.684
	c0.051,0.251,0.138,0.48,0.24,0.695c-2.975,0.297-6.143,0.184-8.998,0.396c-4.85,0.361-9.64,0.41-14.476,0.731
	c-10.805,0.717-21.333,1.388-32.131,0.414c-10.581-0.953-21.629,0.184-32.287-0.091c-5.277-0.135-10.351,0.892-15.53,0.965
	c-4.87,0.069-9.218-1.096-14.074,0.007c-1.64-0.007-3.264-0.011-4.849-0.068c-6.106-0.217-12.249,0.25-18.365,0.381
	c-5.336,0.114-10.573,0.181-15.897-0.053c-0.076-0.031-0.135-0.08-0.217-0.103c-5.16-1.413-9.691-0.092-14.807-0.166
	c-5.179-0.074-10.253-1.101-15.53-0.966c-10.658,0.274-21.706-0.863-32.287,0.091c-10.798,0.973-21.324,0.302-32.131-0.414
	c-4.836-0.321-9.626-0.37-14.476-0.731c-2.854-0.213-6.024-0.099-8.998-0.396c0.103-0.215,0.19-0.442,0.24-0.695
	C119.671,260.142,119.762,254.98,119.19,250.189z M147.13,142.767c-2.46-0.029-4.916-0.069-7.352-0.087
	c-1.797-0.014-3.68,0.062-5.568,0.091c0.115-2.157,0.033-4.339,0.343-6.499c0.458-3.174,2.278-12.497,7.258-11.619
	C149.046,125.93,145.529,137.097,147.13,142.767z M173.938,124.526c5.345,3.385,2.954,10.781,2.801,16.974
	c-3.955,0.094-7.909,0.39-11.848,0.77c-0.217,0.021-0.436,0.033-0.654,0.052C162.566,135.649,165.553,119.217,173.938,124.526z
	 M205.354,142.015c-3.319-0.133-6.56-0.57-9.88-0.696c-0.529-0.019-1.051-0.008-1.571,0.013c-0.729-2.649,0.32-6.814,0.626-8.857
	c0.726-4.856,7.091-13.18,10.376-5.417c1.631,3.856,0.637,8.85,0.45,12.873C205.323,140.624,205.31,141.329,205.354,142.015z
	 M220.271,132.41c0.12-1.131,0.216-1.996,0.277-2.242c1.23-5.081,6.495-10.674,10.684-4.356c3.149,4.749-0.163,10.578-0.116,15.624
	c-1.162-0.044-2.326-0.074-3.49-0.064c-2.264,0.017-4.5,0.267-6.738,0.52c-0.082-1.218-0.246-2.435-0.296-3.55
	C220.507,136.439,220.634,134.341,220.271,132.41z M255.556,121.803c5.089-0.97,6.605,2.383,6.947,6.611
	c0.347,4.296,0.868,9.058,0.242,13.348c-0.029,0.126-0.05,0.261-0.063,0.4c-1.952,0-3.914,0.006-5.902-0.006
	c-2.748-0.017-5.607-0.058-8.495-0.034C248.784,134.415,245.701,123.684,255.556,121.803z M280.775,125.811
	c4.189-6.316,9.453-0.725,10.684,4.356c0.117,0.483,0.377,3.336,0.677,5.965c-0.075,0.59-0.14,1.173-0.217,1.738
	c-0.176,1.282-0.492,2.667-0.673,4.036c-2.28-0.257-4.557-0.516-6.864-0.534c-1.165-0.008-2.327,0.021-3.49,0.064
	C280.938,136.39,277.626,130.56,280.775,125.811z M306.65,139.931c-0.187-4.024-1.182-9.018,0.449-12.873
	c3.286-7.763,9.649,0.561,10.375,5.417c0.306,2.043,1.355,6.209,0.626,8.857c-0.52-0.022-1.042-0.033-1.571-0.013
	c-3.318,0.126-6.559,0.562-9.88,0.696C306.695,141.329,306.682,140.624,306.65,139.931z M338.067,124.526
	c8.385-5.31,11.372,11.123,9.701,17.796c-0.217-0.019-0.436-0.031-0.654-0.052c-3.941-0.381-7.893-0.677-11.848-0.77
	C335.113,135.307,332.722,127.91,338.067,124.526z M370.195,124.654c4.979-0.878,6.8,8.444,7.258,11.619
	c0.312,2.161,0.228,4.342,0.343,6.499c-1.889-0.029-3.771-0.105-5.568-0.091c-2.436,0.019-4.89,0.058-7.351,0.087
	C366.475,137.097,362.959,125.93,370.195,124.654z M393.508,140.423c-2.251,0.958-5.89,1.363-8.298,1.856
	c-1.286,0.263-2.625,0.389-3.983,0.452c0.859-3.388,0.031-7.375-0.756-10.753c-1.063-4.559-3.667-9.9-8.642-11.034
	c-5.733-1.306-8.109,2.258-9.427,7.161c-1.198,4.457-2.651,9.967-2.269,14.694c-2.928-0.001-5.853-0.062-8.762-0.22
	c0.865-2.457,0.598-6.076,0.407-7.778c-0.599-5.359-1.555-12.404-7.278-14.714c-4.786-1.932-11.173,0.986-13.275,5.635
	c-1.057,2.336-1.3,5.246-1.547,7.778c-0.247,2.532,0.059,5.36-0.013,8.025c-1.254,0.042-2.509,0.103-3.763,0.205
	c-1.596,0.129-3.125,0.002-4.646-0.145c1.069-3.374,0.323-8.193-0.122-10.747c-0.894-5.133-4.384-10.805-10.079-11.21
	c-5.748-0.408-7.94,4.471-9.092,9.243c-0.749,3.103-0.998,6.291-1.067,9.474c-0.027,1.216-0.225,2.592-0.21,3.912
	c-1.675,0.103-3.35,0.191-5.049,0.079c-0.076-0.005-0.151-0.015-0.226-0.021c2.465-4.26,1.37-11.677-0.3-15.989
	c-1.686-4.355-5.649-8.688-10.805-8.294c-10.543,0.805-10.973,14.894-9.939,23.824c-0.905,0.087-1.873,0.269-2.858,0.47
	c-1.344-0.065-2.689-0.102-4.036-0.124c0.802-5.285,0.349-12.277-0.904-17.267c-1.066-4.247-4.931-8.277-9.491-7.609
	c-4.993,0.731-10.642,3.794-12.235,8.828c-1.439,4.55-1.124,10.937,0.162,16.032c-1.384,0.044-2.768,0.111-4.145,0.216
	c-1.113-0.23-2.208-0.447-3.225-0.545c1.034-8.929,0.604-23.02-9.939-23.824c-5.156-0.394-9.12,3.941-10.805,8.294
	c-1.649,4.262-2.732,11.548-0.381,15.831c0.004,0.056,0.005,0.11,0.008,0.166c-0.051,0.005-0.103,0.01-0.153,0.013
	c-1.7,0.112-3.374,0.024-5.049-0.079c0.013-1.318-0.185-2.695-0.21-3.912c-0.069-3.184-0.318-6.371-1.067-9.474
	c-1.153-4.771-3.344-9.651-9.092-9.243c-5.695,0.405-9.185,6.077-10.079,11.21c-0.445,2.555-1.191,7.374-0.122,10.747
	c-1.521,0.147-3.051,0.276-4.646,0.145c-1.254-0.102-2.509-0.162-3.763-0.205c-0.072-2.664,0.233-5.493-0.013-8.025
	c-0.247-2.533-0.489-5.443-1.547-7.778c-2.103-4.649-8.49-7.567-13.275-5.635c-5.724,2.31-6.679,9.356-7.278,14.714
	c-0.191,1.703-0.458,5.32,0.407,7.778c-2.907,0.158-5.833,0.217-8.762,0.22c0.382-4.726-1.072-10.236-2.269-14.694
	c-1.317-4.902-3.693-8.467-9.427-7.161c-4.975,1.133-7.579,6.474-8.642,11.034c-0.788,3.379-1.614,7.365-0.755,10.753
	c-1.358-0.062-2.697-0.189-3.983-0.452c-2.408-0.493-6.047-0.898-8.298-1.856c-2.629-1.12-5.218-5.64-7.219-7.824
	c-2.884-3.149-4.84-5.377-5.07-9.156c2.652-7.086,1.677-16.643,1.536-23.977c-0.065-3.352-0.557-6.698-0.592-10.038
	c-0.045-4.345,3.319-4.129,7.175-3.652c1.773,0.219,3.503,0.679,5.288,0.822c0.988,0.079,5.416-0.489,5.99,0.081
	c-0.649-0.645-0.818,3.334-0.81,3.607c0.08,2.586,0.487,5.114,0.498,7.702c0.019,4.618,0.085,13.026,5.89,13.977
	c4.736,0.776,12.872,0.912,16.038-3.336c1.889-2.535,1.52-6.725,1.747-9.712c0.302-3.979-0.458-9.086,0.465-12.904
	c0.492-2.03,0.123-1.425,2.585-1.59c2.424-0.163,4.776-0.468,7.216-0.501c0.65-0.008,1.49-0.111,2.221-0.079
	c-0.021,2.335-0.227,4.687-0.24,7.027c-0.025,4.541-2.019,14.252,1.684,17.921c2.574,2.55,6.423,1.196,9.471,0.568
	c2.35-0.485,5.395-0.604,7.917-1.475c0.958,0.414,2.092,0.324,2.913-0.634c1.146-1.335,1.767-2.924,2.094-4.639
	c0.965-3.097,0.791-7.033,0.269-10.703c0.012-0.32,0.028-0.638,0.053-0.949c0.344-4.354-0.625-7.375,4.626-7.812
	c2.64-0.22,5.606-0.498,8.363-0.331c-0.058,3.978-0.8,8.189-0.805,12.103c-0.005,3.522,0.22,7.023,0.436,10.514
	c0.476,7.668,9.23,5.546,14.434,4.582c2.961-0.549,6.042-0.619,7.475-3.751c1.289-2.818,0.95-6.613,0.984-9.642
	c0.033-2.82-0.236-7.179,0.338-10.062c0.102-0.509,0.163-0.869,0.217-1.13c0.604-0.218,1.212-0.508,1.952-0.697
	c0.141-0.016,0.294-0.037,0.458-0.065c0.936-0.117,3.027-0.352,3.166-0.32c2.379,0.526,2.14-1.219,1.933,2.464
	c-0.353,6.292-0.185,12.694,0.634,19.049c0.163,1.266,0.807,2.575,2.192,2.88c5.33,1.17,13.626,0.164,14.666-6.258
	c0.593-3.665,0.765-8.013,0.514-11.719c-0.195-2.863-0.276-4.518,1.689-6.171c1.108-0.295,2.155-0.632,2.919-0.737
	c3.353-0.463,6.976-0.922,10.269-0.011c3.017,1.932,2.942,3.628,2.719,6.919c-0.251,3.706-0.081,8.054,0.514,11.719
	c1.04,6.423,9.336,7.428,14.666,6.258c1.385-0.305,2.03-1.613,2.192-2.88c0.819-6.355,0.987-12.756,0.634-19.049
	c-0.205-3.682-0.445-1.938,1.933-2.464c0.139-0.03,2.229,0.204,3.166,0.32c0.164,0.028,0.317,0.048,0.458,0.065
	c0.741,0.191,1.349,0.48,1.952,0.697c0.054,0.26,0.117,0.62,0.217,1.13c0.574,2.883,0.306,7.243,0.338,10.062
	c0.035,3.028-0.306,6.824,0.984,9.642c1.432,3.131,4.513,3.202,7.475,3.751c5.204,0.963,13.958,3.086,14.434-4.582
	c0.216-3.491,0.441-6.992,0.436-10.514c-0.005-3.914-0.747-8.125-0.805-12.103c2.758-0.167,5.723,0.111,8.363,0.331
	c5.25,0.437,4.281,3.458,4.626,7.812c0.024,0.311,0.041,0.627,0.053,0.949c-0.522,3.669-0.696,7.606,0.269,10.703
	c0.327,1.713,0.949,3.303,2.094,4.639c0.822,0.958,1.955,1.05,2.913,0.634c2.522,0.871,5.567,0.991,7.917,1.475
	c3.049,0.628,6.897,1.983,9.471-0.568c3.704-3.67,1.71-13.38,1.685-17.921c-0.013-2.339-0.22-4.692-0.24-7.027
	c0.731-0.033,1.571,0.07,2.221,0.079c2.441,0.034,4.792,0.338,7.216,0.501c2.461,0.166,2.094-0.441,2.585,1.59
	c0.923,3.818,0.163,8.925,0.465,12.904c0.227,2.987-0.14,7.177,1.749,9.712c3.166,4.249,11.302,4.112,16.038,3.336
	c5.805-0.951,5.869-9.36,5.89-13.977c0.011-2.59,0.418-5.117,0.498-7.702c0.008-0.273-0.161-4.252-0.81-3.607
	c0.574-0.57,5.001-0.002,5.99-0.081c1.785-0.143,3.515-0.602,5.288-0.822c3.857-0.477,7.22-0.694,7.175,3.652
	c-0.035,3.341-0.527,6.686-0.592,10.038c-0.141,7.334-1.117,16.892,1.536,23.977c-0.231,3.779-2.186,6.007-5.07,9.156
	C398.726,134.784,396.137,139.303,393.508,140.423z"/>
<path d="M357.252,187.876c0.946,0.715,2.345,0.671,3.463,0.697c1.573,0.037,3.172,0.303,4.747,0.295
	c2.359-0.012,5.903,0.354,7.651-1.414c1.51-1.529,1.836-4.198,1.786-6.216c-0.104-4.257-1.832-9.338-4.757-12.504
	c-3.443-3.725-9.841-2.784-11.76,2.002c-1.295,3.232-1.819,7.08-1.903,10.539C356.431,183.24,355.376,186.46,357.252,187.876z
	 M360.34,180.812c0.053-1.501,0.021-2.974,0.33-4.455c0.504-2.411,0.591-5.741,3.504-6.368c2.915-0.627,4.421,2.233,5.461,4.454
	c1.373,2.938,1.906,6.757,1.82,10.242c-1.396-0.211-2.801-0.07-4.217,0.106c-1.454,0.181-2.861-0.367-4.299-0.457
	c-0.732-0.046-1.498,0.135-2.065-0.175c-0.21-0.115-0.393-0.296-0.536-0.58C359.966,182.848,360.313,181.588,360.34,180.812z"/>
<path d="M311.995,187.876c0.946,0.715,2.345,0.671,3.463,0.697c1.573,0.037,3.172,0.303,4.747,0.295
	c2.359-0.012,5.903,0.354,7.651-1.414c1.512-1.529,1.836-4.198,1.786-6.216c-0.104-4.257-1.832-9.338-4.757-12.504
	c-3.443-3.725-9.841-2.784-11.76,2.002c-1.295,3.232-1.819,7.08-1.903,10.539C311.175,183.24,310.12,186.46,311.995,187.876z
	 M315.084,180.812c0.053-1.501,0.021-2.974,0.33-4.455c0.504-2.411,0.591-5.741,3.504-6.368c2.915-0.627,4.421,2.233,5.461,4.454
	c1.373,2.938,1.906,6.757,1.82,10.242c-1.396-0.211-2.801-0.07-4.217,0.106c-1.454,0.181-2.861-0.367-4.299-0.457
	c-0.732-0.046-1.498,0.135-2.065-0.175c-0.21-0.115-0.393-0.296-0.537-0.58C314.71,182.848,315.056,181.588,315.084,180.812z"/>
<path d="M338.488,246.445c0.946,0.715,2.345,0.671,3.463,0.697c1.573,0.037,3.172,0.303,4.747,0.295
	c2.359-0.012,5.903,0.354,7.651-1.415c1.51-1.529,1.836-4.198,1.786-6.216c-0.104-4.257-1.832-9.338-4.757-12.504
	c-3.443-3.727-9.841-2.785-11.76,2.002c-1.297,3.232-1.819,7.08-1.903,10.539C337.669,241.81,336.614,245.03,338.488,246.445z
	 M341.577,239.381c0.053-1.501,0.021-2.974,0.33-4.455c0.505-2.411,0.591-5.741,3.504-6.368c2.915-0.627,4.423,2.233,5.461,4.454
	c1.373,2.938,1.906,6.757,1.82,10.242c-1.396-0.211-2.801-0.07-4.217,0.106c-1.454,0.181-2.861-0.367-4.299-0.457
	c-0.732-0.046-1.498,0.134-2.065-0.175c-0.21-0.115-0.393-0.296-0.536-0.58C341.202,241.418,341.549,240.157,341.577,239.381z"/>
<path d="M283.346,246.445c0.947,0.715,2.345,0.671,3.463,0.697c1.573,0.037,3.172,0.303,4.746,0.295
	c2.359-0.012,5.904,0.354,7.651-1.415c1.51-1.529,1.836-4.198,1.786-6.216c-0.105-4.257-1.833-9.338-4.757-12.504
	c-3.443-3.727-9.841-2.785-11.76,2.002c-1.297,3.232-1.819,7.08-1.903,10.539C282.525,241.81,281.471,245.03,283.346,246.445z
	 M286.435,239.381c0.053-1.501,0.021-2.974,0.33-4.455c0.504-2.411,0.591-5.741,3.504-6.368c2.915-0.627,4.421,2.233,5.459,4.454
	c1.373,2.938,1.906,6.757,1.82,10.242c-1.396-0.211-2.801-0.07-4.217,0.106c-1.454,0.181-2.861-0.367-4.299-0.457
	c-0.732-0.046-1.498,0.134-2.065-0.175c-0.21-0.115-0.393-0.296-0.537-0.58C286.06,241.418,286.407,240.157,286.435,239.381z"/>
<path d="M341.27,306.642c-1.295,3.232-1.819,7.08-1.903,10.539c-0.047,1.965-1.102,5.185,0.772,6.6
	c0.946,0.715,2.345,0.671,3.463,0.697c1.573,0.037,3.172,0.303,4.747,0.295c2.359-0.012,5.903,0.354,7.651-1.415
	c1.51-1.529,1.836-4.198,1.786-6.216c-0.105-4.257-1.833-9.338-4.757-12.504C349.587,300.914,343.189,301.855,341.27,306.642z
	 M354.342,320.59c-1.396-0.211-2.801-0.07-4.217,0.106c-1.454,0.181-2.861-0.367-4.299-0.457c-0.732-0.046-1.498,0.134-2.065-0.175
	c-0.21-0.115-0.393-0.296-0.536-0.58c-0.37-0.73-0.023-1.991,0.005-2.767c0.053-1.501,0.021-2.974,0.33-4.454
	c0.504-2.411,0.591-5.741,3.504-6.368c2.915-0.627,4.421,2.233,5.459,4.454C353.895,313.285,354.428,317.105,354.342,320.59z"/>
<path d="M321.053,397.171c-0.576-2.61-2.196-4.005-4.833-4.249c-1.935-0.18-3.925,0.028-5.887,0.156
	c-2.309-0.458-4.657-0.657-7.155-0.446c-0.903,0.077-1.674,0.565-1.939,1.477c-1.139,3.908-0.261,8.038-0.558,12.067
	c-0.217,2.939-1.352,7,1.31,9.261c1.958,1.663,5.95,1.597,8.352,1.326c2.679-0.303,6.685,0.562,9.147-0.576
	c3.063-1.415,1.993-5.258,2.111-7.938C321.752,404.805,321.804,400.573,321.053,397.171z M317.272,411.585
	c-0.094,0.335-0.066,0.469-0.035,0.522c-0.08-0.035-0.308-0.064-0.877,0.074c-1.816,0.441-4.177-0.147-6.083-0.005
	c-1.779,0.134-4.782,0.723-5.849-1.1c-0.694-1.184,0.364-6.591,0.344-8.031c-0.028-2.084-0.239-4.355,0.062-6.464
	c0.864,0.073,1.771,0.256,2.613,0.192c0.668-0.052,1.322-0.176,1.981-0.273c1.081,0.232,2.016,0.406,2.26,0.423
	c1.416,0.095,4.397-0.365,5.299,0.941c0.348,0.504,0.182,2.147,0.204,2.767c0.103,2.802,0.414,5.426,0.06,8.209
	C317.148,409.655,317.475,410.868,317.272,411.585z"/>
<g>
</g>
<g>
</g>
<g>
</g>
<g>
</g>
<g>
</g>
<g>
</g>
<g>
</g>
<g>
</g>
<g>
</g>
<g>
</g>
<g>
</g>
<g>
</g>
<g>
</g>
<g>
</g>
<g>
</g>
</svg>
