<?xml version="1.0" encoding="iso-8859-1"?>
<!-- Generator: Adobe Illustrator 19.0.0, SVG Export Plug-In . SVG Version: 6.00 Build 0)  -->
<svg version="1.1" id="Layer_1" xmlns="http://www.w3.org/2000/svg" xmlns:xlink="http://www.w3.org/1999/xlink" x="0px" y="0px"
	 viewBox="0 0 512.002 512.002" style="enable-background:new 0 0 512.002 512.002;" xml:space="preserve">
<path style="fill:#F2C186;" d="M256.733,6.96c15.57,15.275,18.374,32.395,17.676,51.048c-0.376,10.044,1.406,20.17,2.234,30.26
	c2.899,35.339,5.99,70.662,8.651,106.019c1.956,25.988,3.757,52.001,4.916,78.035c2.094,47.008,3.616,94.04,5.47,141.059
	c0.484,12.29,1.364,24.564,1.966,36.849c0.389,7.945-0.014,15.82,7.849,21.406c2.287,1.626,2.736,6.402,3.233,9.848
	c0.711,4.933,0.693,9.971,0.961,14.563c5.708,2.575,10.622,4.79,16.916,7.629c-3.369,2.235-5.028,4.292-6.704,4.306
	c-41.234,0.345-82.47,0.527-123.704,0.511c-2.599-0.001-5.197-1.862-10.469-3.881c7.182-3.396,12.029-5.688,17.806-8.421
	c0.245-4.331,0.206-9.366,0.917-14.292c0.496-3.433,0.981-8.156,3.271-9.812c8.435-6.098,8.288-14.755,8.592-23.415
	c1.443-41.233,2.463-82.483,4.3-123.697c1.418-31.816,3.794-63.589,5.795-95.377c2.318-36.845,4.228-73.724,7.195-110.516
	c2.209-27.382,6.551-54.587,6.158-82.183c-0.048-3.408,0.962-7.303,2.76-10.173C246.654,20.13,251.573,14.03,256.733,6.96z"/>
<path style="fill:#D8A46C;" d="M257.813,25.468c-8.141,24.838-5.858,48.815-6.825,74.029c-0.369,9.62-0.725,19.267-1.09,28.898
	c-0.814,21.567,1.181,42.976,1.196,64.504c0.017,23.266-0.749,46.526,0.571,69.774c0.953,16.777,2.125,33.543,3.697,50.275
	c1.592,16.943,5.484,34.195,6.21,51.14c0.783,18.283,3.959,37.144,10.046,54.441c4.231,12.026,12.113,22.005,19.451,32.256
	c3.124,4.364,12.181,14.152,5.77,18.796c-4.171,3.022-12.896,0.013-17.309-0.398c-9.598-0.895-19.503-0.309-29.108,0.199
	c-5.345,0.283-10.652,0.176-15.903-0.662c-4.766-0.761-9.713,0.34-14.534-0.375c-7.298-1.083-3.693-11.222-3.19-16.542
	c2.45-25.91,1.725-52.156,2.802-78.157c0.473-11.416,0.975-22.799,1.547-34.199c0.34-6.777,0.643-13.539,1.012-20.323
	c0.645-11.848,1.229-23.82,2.306-35.635c1.394-15.278,1.78-30.592,2.637-45.91c0.468-8.362,0.645-16.619,1.539-24.956
	c0.974-9.084,2.425-18.058,3.184-27.169c1.274-15.306,0.425-30.678,1.338-46.005c0.459-7.71,1.155-15.414,1.421-23.136
	c0.245-7.096,0.775-14.23,1.526-21.274c1.466-13.766,2.149-27.447,2.135-41.301c-0.008-7.338-0.553-15.256,0.177-22.564
	c0.635-6.348,9.018-7.655,13.959-5.886C254.687,26.115,255.274,25.468,257.813,25.468z"/>
<g>
	<path style="fill:#C18C68;" d="M261.711,322.546c-6.532-0.01-14.918-1.865-21.128,0.812c-4.343,1.874-5.417,9.111-4.753,13.383
		c0.864,5.558,13.967,3.773,18.587,4.03c3.523,0.196,11.954,1.665,15.062,0.024c1.762-0.93,2.304-4.069,2.774-5.858
		c0.644-2.451,1.765-7.564,0.269-9.962C270.174,321.212,261.928,323.394,261.711,322.546z"/>
	<path style="fill:#C18C68;" d="M268.057,306.592c-4.643-0.007-10.604-1.326-15.019,0.577c-3.087,1.331-3.851,6.477-3.379,9.514
		c0.614,3.951,9.928,2.683,13.212,2.865c2.504,0.139,8.497,1.183,10.707,0.016c1.252-0.661,1.638-2.893,1.971-4.164
		c0.458-1.742,1.255-5.377,0.191-7.081C274.072,305.644,268.21,307.196,268.057,306.592z"/>
	<path style="fill:#C18C68;" d="M274.821,343.815c-4.643-0.007-10.604-1.326-15.018,0.577c-3.087,1.331-3.851,6.477-3.379,9.514
		c0.614,3.951,9.928,2.683,13.212,2.865c2.504,0.139,8.497,1.183,10.707,0.016c1.252-0.661,1.638-2.893,1.971-4.164
		c0.458-1.742,1.255-5.377,0.191-7.081C280.837,342.866,274.976,344.418,274.821,343.815z"/>
	<path style="fill:#C18C68;" d="M245.026,343.815c-4.643-0.007-10.604-1.326-15.018,0.577c-3.087,1.331-3.851,6.477-3.379,9.514
		c0.614,3.951,9.928,2.683,13.212,2.865c2.504,0.139,8.497,1.183,10.707,0.016c1.252-0.661,1.638-2.893,1.971-4.164
		c0.458-1.742,1.255-5.377,0.191-7.081C251.042,342.866,245.181,344.418,245.026,343.815z"/>
	<path style="fill:#C18C68;" d="M270.759,413.606c-6.532,0.062-14.938-1.701-21.118,1.045c-4.322,1.92-5.316,9.17-4.605,13.435
		c0.925,5.548,14.007,3.62,18.63,3.826c3.524,0.158,11.971,1.533,15.062-0.142c1.751-0.949,2.259-4.095,2.709-5.888
		c0.617-2.458,1.681-7.583,0.16-9.964C279.205,412.179,270.984,414.451,270.759,413.606z"/>
	<path style="fill:#C18C68;" d="M263.159,375.977c-6.532,0.062-14.938-1.701-21.118,1.045c-4.322,1.92-5.317,9.17-4.605,13.435
		c0.925,5.548,14.007,3.62,18.63,3.826c3.524,0.158,11.971,1.533,15.062-0.142c1.751-0.949,2.259-4.095,2.709-5.888
		c0.617-2.458,1.681-7.583,0.16-9.964C271.605,374.551,263.384,376.822,263.159,375.977z"/>
	<path style="fill:#C18C68;" d="M276.928,397.584c-4.643,0.045-10.619-1.209-15.012,0.743c-3.073,1.366-3.78,6.519-3.274,9.55
		c0.658,3.944,9.957,2.573,13.244,2.72c2.505,0.112,8.51,1.09,10.707-0.101c1.245-0.674,1.606-2.911,1.926-4.185
		c0.438-1.747,1.195-5.39,0.113-7.083C282.932,396.57,277.089,398.184,276.928,397.584z"/>
	<path style="fill:#C18C68;" d="M247.91,397.584c-4.643,0.045-10.619-1.209-15.012,0.743c-3.073,1.366-3.78,6.519-3.274,9.55
		c0.658,3.944,9.957,2.573,13.244,2.72c2.505,0.112,8.51,1.09,10.707-0.101c1.245-0.674,1.606-2.911,1.926-4.185
		c0.438-1.747,1.195-5.39,0.113-7.083C253.914,396.57,248.07,398.184,247.91,397.584z"/>
	<path style="fill:#C18C68;" d="M254.308,435.057c-4.643,0.045-10.619-1.209-15.012,0.743c-3.073,1.366-3.78,6.519-3.274,9.55
		c0.658,3.944,9.957,2.573,13.244,2.72c2.505,0.112,8.51,1.09,10.707-0.101c1.245-0.674,1.606-2.911,1.926-4.185
		c0.438-1.747,1.195-5.39,0.113-7.083C260.313,434.043,254.469,435.658,254.308,435.057z"/>
	<path style="fill:#C18C68;" d="M270.724,202.304c-4.643,0.045-10.619-1.209-15.012,0.743c-3.073,1.366-3.78,6.519-3.274,9.55
		c0.658,3.944,9.957,2.573,13.244,2.72c2.505,0.112,8.51,1.09,10.707-0.101c1.245-0.674,1.606-2.911,1.926-4.185
		c0.438-1.747,1.195-5.39,0.113-7.083C276.729,201.289,270.885,202.905,270.724,202.304z"/>
	<path style="fill:#C18C68;" d="M257.378,218.393c-4.643,0.045-10.619-1.209-15.012,0.743c-3.073,1.366-3.78,6.519-3.274,9.55
		c0.658,3.944,9.957,2.573,13.243,2.72c2.505,0.112,8.51,1.09,10.707-0.101c1.245-0.674,1.606-2.911,1.926-4.185
		c0.438-1.747,1.195-5.39,0.113-7.083C263.382,217.379,257.538,218.995,257.378,218.393z"/>
	<path style="fill:#C18C68;" d="M254.618,186.214c-4.643,0.045-10.619-1.209-15.012,0.743c-3.073,1.366-3.78,6.519-3.274,9.55
		c0.658,3.944,9.957,2.573,13.244,2.72c2.505,0.112,8.51,1.09,10.707-0.101c1.245-0.674,1.606-2.911,1.926-4.185
		c0.438-1.747,1.195-5.39,0.113-7.083C260.623,185.2,254.779,186.816,254.618,186.214z"/>
	<path style="fill:#C18C68;" d="M261.088,101.036c-4.643,0.045-10.619-1.209-15.012,0.743c-3.073,1.366-3.78,6.519-3.274,9.55
		c0.658,3.944,9.956,2.573,13.243,2.72c2.505,0.112,8.51,1.09,10.707-0.101c1.245-0.674,1.606-2.911,1.926-4.185
		c0.438-1.747,1.195-5.39,0.113-7.083C267.093,100.021,261.249,101.637,261.088,101.036z"/>
	<path style="fill:#C18C68;" d="M253.058,87.648c-3.219,0.03-7.362-0.838-10.408,0.515c-2.13,0.946-2.621,4.519-2.269,6.621
		c0.457,2.734,6.903,1.783,9.181,1.886c1.737,0.077,5.899,0.756,7.423-0.07c0.863-0.468,1.114-2.018,1.335-2.902
		c0.303-1.211,0.829-3.737,0.078-4.911C257.22,86.944,253.169,88.064,253.058,87.648z"/>
	<path style="fill:#C18C68;" d="M262.311,75.659c-3.219,0.03-7.362-0.838-10.407,0.515c-2.13,0.946-2.621,4.519-2.269,6.621
		c0.457,2.734,6.903,1.783,9.181,1.886c1.737,0.077,5.899,0.756,7.423-0.07c0.862-0.468,1.114-2.018,1.335-2.901
		c0.303-1.211,0.829-3.737,0.078-4.911C266.473,74.957,262.422,76.077,262.311,75.659z"/>
</g>
<path style="fill:#EAD9CE;" d="M265.012,468.612c-3.118,1.057-7.842,0-11.157,0c-5.852-0.001-11.661-0.277-17.497-0.549
	c-7.544-0.351-15.265-0.792-22.756,0.304c-4.369,0.639-8.035,1.318-8.841,5.929c-1.153,6.597-0.313,12.853-0.668,19.418
	c-0.054,1.008-0.39,3.306,0.188,4.094c1.099,1.496,5.566,1.608,7.157,1.744c11.989,1.027,25.062-0.113,37.071-0.814
	c14.291-0.834,29.154-0.192,43.469,0.347c3.727,0.14,12.679,2.223,15.261-1.49c2.4-3.45,1.307-9.188,1.321-13.129
	c0.014-3.762,0.377-7.993-1.003-11.59c-1.306-3.406-3.695-3.376-7.09-3.457C289.467,469.159,278.455,468.349,265.012,468.612z"/>
<path style="fill:#B5A399;" d="M186.994,508.957c2.313-0.84,5.308,0.242,7.729,0.267c5.823,0.059,11.594-0.22,17.392-0.475
	c9.667-0.425,19.204-0.004,28.838,0.485c23.929,1.215,48.02-1.932,71.911-0.544c2.642,0.153,9.509,1.647,10.926-0.537
	c0.779-1.201,0.415-5.377-0.258-6.53c-1.086-1.862-2.147-1.534-4.475-1.751c-26.737-2.485-53.864-0.734-80.712-0.803
	c-13.968-0.036-28.051,1.518-41.875,0.796c-2.312-0.121-6.181-0.526-8.277,0.515C184.65,502.14,187.504,505.497,186.994,508.957z"/>
<path style="fill:#917D73;" d="M186.994,509.19c2.313-0.492,5.308,0.142,7.729,0.157c5.823,0.035,11.594-0.128,17.392-0.278
	c9.667-0.249,19.204-0.002,28.838,0.284c23.929,0.71,48.02-1.131,71.911-0.318c2.642,0.09,9.509,0.963,10.926-0.314
	c0.779-0.702,0.415-3.147-0.258-3.821c-1.086-1.09-2.147-0.898-4.475-1.024c-26.737-1.454-53.864-0.43-80.712-0.47
	c-13.968-0.021-28.051,0.888-41.875,0.465c-2.312-0.071-6.181-0.308-8.277,0.301C184.65,505.201,187.504,507.165,186.994,509.19z"/>
<path style="fill:#C4AEA1;" d="M256.461,469.213c1.129,2.335,0.398,5.122,1.815,7.515c2.301,3.885,6.376,5.991,10.714,6.679
	c6.118,0.97,12.233,2.26,18.419,2.709c4.717,0.343,9.416,0.178,14.105,0.821c2.657,0.364,5.609,0.406,6.682,3.148
	c0.83,2.122-0.095,4.011-0.687,6.061c-1.189,4.116-6.132,2.864-9.854,2.53c-23.184-2.079-46.487,0.876-69.687,0.304
	c-5.217-0.128-10.343,0.065-15.555,0.085c-1.463,0.005-7.083,1.105-8.335,0.195c-1.182-0.86-0.481-4.059-0.354-5.355
	c0.343-3.524,0.455-7.237,0.275-10.765c-0.158-3.087-0.366-6.559,0.725-9.525c1.146-3.11,3.947-3.734,6.933-4.221
	c5.521-0.903,11.484-0.883,17.059-0.916C237.873,468.422,246.946,467.726,256.461,469.213z"/>
<path style="fill:#BF8A55;" d="M254.905,4.811c-1.464,3.039-2.943,6.023-4.515,9.026c-1.232,2.351-2.876,4.888-3.657,7.447
	c-0.704,2.307,0.951,2.726,3.008,3.036c4.948,0.745,10.575,1.78,15.562,0.97c1.457-0.237,1.5-0.426,1.193-1.738
	c-0.597-2.552-1.965-4.995-3.21-7.272c-1.424-2.608-2.853-5.308-4.152-7.975C257.963,5.897,258.057,3.928,254.905,4.811z"/>
<path d="M327.936,501.097c-0.448-1.77-1.576-2.927-3.382-3.441c-2.115-0.6-4.465,0.07-6.607,0.002
	c-2.26-0.071-4.88-0.324-7.25-0.672c-0.059-1.566-0.136-3.133-0.304-4.685c0.772-3.736,0.686-7.573,0.306-11.39
	c-0.281-2.816,0.321-7.674-1.49-10.108c-1.926-2.589-5.443-3.493-8.144-4.875c-1.692-0.866-0.924,0.517-1.319-1.762
	c-0.35-2.019-0.376-3.991-0.388-6.036c-0.009-1.351-0.132-2.676-0.294-3.994c0.256-5.346-0.076-10.655-0.81-16.131
	c-0.583-4.342-0.476-8.791-0.701-13.16c0.556-2.717,0.134-5.559,0.013-8.399c-0.204-4.826-0.493-9.631-0.49-14.459
	c0.003-8.135-0.285-16.851-1.256-24.909c-1.144-9.494-0.345-19.557-0.444-29.131c-0.036-3.417-0.266-6.791-0.593-10.148
	c1.006-23.525-1.406-46.865-3.469-70.304c-1.662-18.871-2.651-37.729-4.014-56.593c-0.766-10.602-0.892-21.478-0.874-32.105
	c0.009-5.004-0.625-9.947-1.11-14.935c-0.468-4.816-0.346-9.769-0.984-14.552c-2.491-18.682-1.414-38.113-5.425-56.609
	c-2.33-10.748-2.79-22.414-2.826-33.395c-0.017-5.242-0.464-10.439-0.532-15.673c-0.049-3.746-0.09-7.464-0.645-11.131
	c0.713-4.388,0.396-9.153-4.894-9.787c-0.536-0.064-1.077-0.115-1.62-0.157c0.171-1.615-0.842-3.169-1.514-4.614
	c-1.199-2.577-2.538-5.061-3.783-7.614c-1.109-2.277-2.271-4.382-3.516-6.579c-0.861-1.52-1.261-3.101-3.068-3.67
	c-0.723-0.227-1.656,0.009-2.169,0.573c-1.219,1.343-1.615,3.14-2.409,4.76c-1.322,2.697-2.73,5.358-4.163,7.995
	c-1.045,1.925-3.97,6.088-3.91,9.134c-0.626,0.045-1.248,0.098-1.865,0.172c-5.29,0.635-5.608,5.399-4.894,9.787
	c-0.556,3.667-0.597,7.385-0.645,11.131c-0.067,5.234-0.515,10.432-0.532,15.673c-0.036,10.981-0.496,22.647-2.826,33.395
	c-4.011,18.495-2.934,37.927-5.425,56.609c-0.637,4.782-0.515,9.736-0.984,14.552c-0.485,4.988-1.119,9.93-1.11,14.935
	c0.017,10.627-0.109,21.501-0.874,32.105c-1.363,18.864-2.352,37.722-4.014,56.593c-2.063,23.438-4.475,46.778-3.469,70.304
	c-0.326,3.357-0.558,6.731-0.593,10.148c-0.099,9.575,0.701,19.637-0.444,29.131c-0.971,8.059-1.259,16.774-1.256,24.909
	c0.002,4.828-0.286,9.633-0.49,14.459c-0.092,2.188-0.363,4.376-0.233,6.508c-0.501,3.969-0.197,8.318-0.456,12.008
	c-0.48,6.839-0.843,13.697-1.187,20.54c-0.08,1.6-0.895,6.282-0.855,10.125c-0.172,0.038-0.414,0.119-0.77,0.3
	c-2.701,1.382-6.218,2.286-8.144,4.875c-1.809,2.434-1.209,7.291-1.49,10.108c-0.381,3.817-0.465,7.653,0.306,11.39
	c-0.169,1.552-0.246,3.12-0.304,4.685c-2.371,0.348-4.99,0.602-7.25,0.672c-2.143,0.067-4.492-0.602-6.607-0.002
	c-1.806,0.513-2.934,1.67-3.382,3.441c-0.483,1.91,0.096,5.439,0.597,7.289c0.535,1.976,1.212,3.072,3.485,3.306
	c0.957,0.099,1.758-0.385,2.716-0.426c1.505-0.063,3.438,0.375,5.004,0.407c3.572,0.071,7.231-0.034,10.768,0.132
	c3.314,0.154,6.191,0.027,9.388-0.263c2.361,0.308,4.593,0.592,7.039,0.398c7.829-0.62,15.645-0.592,23.489-0.888
	c7.425-0.281,14.796-0.083,22.205,0.064c6,0.117,13.297,1.254,19.416-0.059c2.098,0.108,4.21,0.134,6.314,0.35
	c3.837,0.395,7.053,0.577,10.882,0.399c3.536-0.165,7.195-0.06,10.768-0.132c1.565-0.032,3.499-0.47,5.004-0.407
	c0.958,0.04,1.758,0.524,2.716,0.426c2.272-0.234,2.949-1.329,3.485-3.306C327.84,506.537,328.42,503.007,327.936,501.097z
	 M252.562,13.916c1.129-2.036,2.166-4.167,3.201-6.256c0.121-0.245,0.25-0.57,0.386-0.929c0.279,0.399,0.531,0.751,0.658,0.956
	c1.086,1.749,1.857,3.582,2.802,5.409c1.508,2.914,2.591,6.356,4.177,9.284c-0.325,0.002-0.649-0.002-0.975,0.004
	c-2.279,0.009-4.566,0.079-6.81,0.111c-2.244-0.032-4.531-0.102-6.81-0.111c-0.435-0.01-0.869-0.007-1.303-0.007
	C249.682,19.723,251.058,16.63,252.562,13.916z M217.712,456.692c0.059-3.687,0.842-7.345,0.934-11.039
	c0.101-4.006,0.25-8.056,0.68-12.034c0.328-3.04,0.451-6.093,0.654-9.143c0.363-1.395,0.416-2.945,0.586-4.661
	c0.458-4.617,0.981-9.362,1.059-13.994c0.159-9.39,0.074-19.079,1.154-28.407c1.042-8.997,0.141-18.514,0.05-27.565
	c-0.045-4.464,0.06-8.935,0.024-13.392c2.026-8.896,1.396-18.438,1.994-27.451c0.7-10.551,0.337-21.35,1.618-31.871
	c0.618-5.067,0.884-10.233,0.828-15.342c-0.048-4.32,0.602-8.559,0.803-12.865c0.482-10.371,0.303-20.842,1.467-31.179
	c1.136-10.089,1.727-20.251,2.638-30.376c0.891-9.893,1.905-19.971,1.906-29.937c0.001-9.298,0.942-18.572,0.908-27.851
	c-0.037-10.201,0.736-20.911,2.036-31.045c0.686-5.351,1.939-10.438,2.337-15.836c0.486-6.594,1.082-13.239,1.278-19.849
	c0.161-5.441,0.253-10.871,0.449-16.31c0.194-5.357,0.735-11.483-0.252-16.867c0.308-0.869,0.921-1.618,1.845-2.244
	c0.505,0.063,1.008,0.126,1.513,0.189c0.298-0.076,0.598-0.135,0.898-0.184c3.367,0.512,7.239,0.313,10.884,0.095
	c3.645,0.219,7.517,0.418,10.884-0.095c0.301,0.049,0.6,0.108,0.898,0.184c0.505-0.063,1.008-0.126,1.513-0.189
	c0.924,0.627,1.536,1.377,1.845,2.244c-0.987,5.383-0.445,11.51-0.252,16.867c0.196,5.438,0.288,10.868,0.449,16.31
	c0.196,6.609,0.793,13.255,1.278,19.849c0.398,5.398,1.651,10.485,2.337,15.836c1.299,10.133,2.073,20.844,2.036,31.045
	c-0.034,9.279,0.907,18.552,0.908,27.851c0.001,9.965,1.016,20.043,1.906,29.937c0.911,10.125,1.502,20.288,2.638,30.376
	c1.164,10.337,0.986,20.808,1.467,31.179c0.2,4.306,0.851,8.545,0.803,12.865c-0.058,5.11,0.21,10.275,0.828,15.342
	c1.281,10.521,0.918,21.32,1.618,31.871c0.599,9.014-0.032,18.556,1.994,27.451c-0.035,4.456,0.07,8.929,0.024,13.392
	c-0.091,9.051-0.992,18.568,0.05,27.565c1.08,9.327,0.995,19.016,1.154,28.407c0.078,4.632,0.6,9.377,1.059,13.994
	c0.17,1.716,0.223,3.266,0.586,4.661c0.201,3.05,0.325,6.101,0.654,9.143c0.43,3.979,0.579,8.028,0.68,12.034
	c0.094,3.694,0.875,7.352,0.934,11.039c0.044,2.688-0.446,6.161,0.086,9.017c-1.194-0.044-2.395-0.036-3.591,0.001
	c-2.766,0.086-5.429,0.002-8.176-0.015c-0.774-0.004-1.714,0.209-2.661,0.399c-1.151,0.043-2.302,0.078-3.454,0.102
	c-0.216-0.048-0.436-0.046-0.647,0.015c-6.658,0.119-13.337-0.036-19.986,0.001c-11.354,0.063-23.39-2.452-34.633-0.502h-0.008
	c-1.196-0.037-2.397-0.044-3.592-0.001C218.159,462.853,217.67,459.38,217.712,456.692z M206.367,492.942
	c0.39-4.353-0.425-8.884-0.091-13.273c0.15-1.969-0.372-5.147,1.041-6.737c1.659-1.866,4.493-2.111,6.827-2.199
	c2.666-0.101,5.429-0.2,8.089-0.039c3.26,0.197,7.218,0.62,10.734,0.089c7.623,0.407,15.214,1.125,22.891,1.168
	c8.678,0.048,17.407,0.314,26.077-0.057c3.598-0.154,9.464,0.714,13.146-1.149c1.242,0.042,2.486,0.073,3.703,0.004
	c1.817,0.464,4.57,0.691,5.898,2.182c1.413,1.589,0.891,4.767,1.041,6.735c0.334,4.388-0.481,8.92-0.09,13.273
	c-0.082,1.509,0.202,3.005,0.333,4.51c-0.916-0.022-1.819-0.058-2.684-0.151c-3.2-0.345-6.467-0.4-9.717-0.388
	c-3.148-0.88-5.815-0.048-9.046-0.391c-2.983-0.318-5.838-0.399-8.844-0.38c-6.897,0.045-13.723,0.351-20.618,0.358
	c-7.633,0.008-15.352-0.185-22.98,0.222c-2.565,0.137-5.193,0.153-7.795,0.27c-0.505-0.026-1.037-0.035-1.62-0.042
	c-4.618-0.054-9.351-0.144-13.943,0.351c-0.866,0.092-1.769,0.129-2.685,0.151C206.166,495.946,206.449,494.451,206.367,492.942z
	 M322.63,505.003c-0.495,0.686-1.276,1.253-1.951,1.435c-0.737,0.198-1.726-0.022-2.508,0.071c-1.181,0.139-2.353,0.391-3.545,0.44
	c-5.234,0.213-11.063,0.872-16.253,0.22c-2.34-0.295-4.855-0.684-7.39-0.923c-0.058-0.024-0.099-0.061-0.16-0.082
	c-3.693-1.215-7.576-0.32-11.408-0.532c-3.562-0.197-7.089-0.206-10.66-0.26c-7.64-0.115-15.267-0.333-22.921,0.088
	c-5.683,0.312-11.41,0.36-17.093,0.817c-3.929-0.563-8.225-0.034-12.227,0.508c-1.495,0.038-2.959,0.169-4.215,0.51
	c-4.843,0.407-10.131-0.15-14.925-0.345c-2.04-0.084-4.039-0.512-6.081-0.571c-1.403-0.04-2.807-0.818-2.67-2.542
	c0.194-2.442,3.839-1.357,5.429-1.403c2.197-0.065,4.44-0.272,6.646-0.606c2.28,0.215,4.811-0.002,6.211-0.053
	c3.016-0.109,6.096-0.004,9.178,0.071c0.254,0.025,0.515,0.046,0.792,0.057c3.608,0.15,7.424,0.002,11.051-0.018
	c8.152-0.046,16.317,0.086,24.457-0.054c7.248-0.125,14.404-0.373,21.624-0.381c4.187-0.004,8.309,0.408,12.409,0.263
	c6.149,0.506,12.538-0.158,18.667,0.062c1.402,0.05,3.931,0.269,6.211,0.053c2.207,0.334,4.451,0.54,6.646,0.606
	c1.255,0.037,3.596-0.736,4.572,0.047C323.407,503.191,323.222,504.184,322.63,505.003z"/>
<g>
</g>
<g>
</g>
<g>
</g>
<g>
</g>
<g>
</g>
<g>
</g>
<g>
</g>
<g>
</g>
<g>
</g>
<g>
</g>
<g>
</g>
<g>
</g>
<g>
</g>
<g>
</g>
<g>
</g>
</svg>
