<?xml version="1.0" encoding="iso-8859-1"?>
<!-- Generator: Adobe Illustrator 19.0.0, SVG Export Plug-In . SVG Version: 6.00 Build 0)  -->
<svg version="1.1" id="Layer_1" xmlns="http://www.w3.org/2000/svg" xmlns:xlink="http://www.w3.org/1999/xlink" x="0px" y="0px"
	 viewBox="0 0 511.998 511.998" style="enable-background:new 0 0 511.998 511.998;" xml:space="preserve">
<path style="fill:#92A2AD;" d="M37.796,382.437c0.628-0.275,1.194-0.654,1.663-1.181c1.577-1.773,1.366-4.454,1.061-6.808
	c-1.33-10.262-1.826-19.917-1.279-30.277c0.33-6.25,3.809-12.931,10.958-12.841c4.854,0.062,10.122,3.455,13.795-2.06
	c1.137-1.707,1.301-3.862,1.43-5.91c0.334-5.284,1.052-10.08,0.391-15.358c-0.641-5.121-1.259-10.192,1.425-14.885
	c2.992-5.234,8.763-8.767,14.784-9.054c1.784-0.085,3.581,0.095,5.352-0.124c8.732-1.079,5.478-13.646,5.617-19.646
	c0.149-6.421-1.073-13.625,0.207-19.895c0.59-2.889,2.01-5.722,4.426-7.412c2.014-1.408,4.513-1.904,6.946-2.246
	c4.119-0.581,8.286-0.819,12.444-0.714c2.929,0.075,6.034,0.281,8.606-1.121c5.381-2.933,3.041-15.245,4.106-20.36
	c0.581-2.789,1.512-4.923,1.502-7.908c-0.009-2.809-0.529-6.027,1.577-8.284c1.325-1.419,3.332-1.951,5.247-2.273
	c4.141-0.697,8.398-0.715,12.544-0.053c1.531,0.244,3.067,0.582,4.616,0.498c1.548-0.084,3.156-0.66,4.08-1.905
	c1.663-2.238,0.936-7.53,1.368-10.383c0.704-4.645-0.498-9.369,0.325-14.098c0.795-4.566,3.172-9.085,7.215-11.352
	c5.082-2.851,11.36-1.586,17.172-2.024c1.721-0.13,3.484-0.436,4.94-1.364c2.253-1.435,3.415-4.165,3.612-6.829
	c0.408-5.493-1.209-11.425,0.797-16.885c1.797-4.89,6.48-9.133,11.668-8.65c1.663,0.155,3.253,0.773,4.911,0.975
	c1.658,0.202,3.545-0.119,4.564-1.442c0.791-1.026,0.885-2.41,0.947-3.704c0.308-6.385,0.777-12.789,0.825-19.181
	c0.064-8.879-1.302-17.808-1.899-26.691c-0.082-1.232-0.24-2.611-1.2-3.386c-0.702-0.566-1.66-0.659-2.517-0.937
	c-1.724-0.559-3.141-1.989-3.685-3.717c-1.01-3.21,0.795-5.752,3.658-6.947c2.099-0.876,4.443-0.898,6.719-0.907
	c23.39-0.09,46.779-0.181,70.169-0.27c4.614-0.018,9.882,0.258,12.794,3.836c1.228,1.51,1.859,3.545,1.484,5.454
	c-0.376,1.91-1.832,3.619-3.717,4.098c-1.267,0.322-2.754,0.153-3.727,1.026c-0.957,0.86-0.965,2.331-0.901,3.616
	c0.518,10.256,1.757,20.401,1.817,30.657c0.023,3.966,0.204,7.947-0.418,11.825c-0.436,2.716-0.524,4.886,2.773,6.154
	c2.184,0.84,4.619,0.534,6.937,0.209s4.747-0.65,6.942,0.158c3.23,1.189,5.19,4.635,5.616,8.051
	c0.433,3.475-0.748,6.795-0.646,10.225c0.104,3.504-0.006,6.946-0.165,10.48c-0.033,0.712-0.06,1.452,0.224,2.105
	c0.773,1.784,3.203,1.916,5.146,1.833c4.896-0.212,9.81-0.014,14.673,0.592c3.381,0.421,6.934,1.132,9.448,3.43
	c3.784,3.46,3.531,8.443,3.661,13.114c0.137,4.938-0.047,9.895,0.016,14.882c0.026,2.127,0.129,4.458,1.551,6.039
	c1.292,1.435,3.386,1.877,5.313,1.757c1.927-0.12,3.792-0.711,5.702-0.995c6.132-0.914,12.663,1.6,16.601,6.389
	c4.333,5.271,3.867,11.913,4.958,18.248c0.912,5.288-3.034,13.234,3.188,16.106c2.485,1.147,5.358,1.055,8.065,0.651
	c2.706-0.405,5.39-1.099,8.125-1.085c4.797,0.025,9.528,2.377,12.443,6.186c3.477,4.542,3.271,10.211,3.516,15.62
	c0.298,6.556-0.972,13.331-1.332,19.878c-0.133,2.415-0.139,5.167,1.624,6.824c2.133,2.005,5.508,1.267,8.434,1.193
	c5.156-0.13,10.306,2.424,13.324,6.606c3.512,4.864,2.819,10.819,3.528,16.459c0.861,6.853,0.882,14.167,0.882,21.074
	c0.037,1.06,0.093,2.18,0.673,3.068c1.517,2.319,5.004,1.428,7.733,0.94c5.904-1.055,12.305,1.45,15.924,6.232
	c4.084,5.395,2.687,11.081,3.037,17.271c0.365,6.46-0.734,12.819-2.323,19.082c-0.92,3.626-0.66,8.228,2.567,10.122
	c1.565,0.919,3.473,0.96,5.287,0.977c5.041,0.049,10.081,0.096,15.122,0.145c4.127,0.04,8.644,0.221,11.734,2.956
	c2.408,2.13,3.454,5.476,3.491,8.69c0.033,2.879-1.068,5.652-0.889,8.51c0.136,2.176,0.681,4.184,0.666,6.413
	c-0.05,6.656-1.009,13.274-1.18,19.927c-0.097,3.78,1.059,7.133-2.608,9.411c-4.668,2.901-11.398,2.791-16.681,2.847
	c-38.828,0.414-77.71,0.825-116.434-2.043c-4.81-0.356-9.667-0.762-14.436-0.042c-6.298,0.95-9.881,3.541-13.446,8.397
	c-3.07,4.182-9.08,6.33-14.118,5.633c-1.844-0.255-3.415-1.298-5.183-1.633c-1.033-0.195-2.383,0.235-3.333-0.088
	c-3.214-1.092-2.403-4.859-4.637-6.789c-1.355-1.171-3.389-1.012-5.132-0.608c-4.689,1.088-9.366,0.423-14.143,0.307
	c-17.696-0.429-35.4-0.548-53.099-0.355c-8.738,0.095-17.476,0.266-26.21,0.513c-7.18,0.202-16.802-1.154-23.542,1.4
	c-5.046,1.912-8.725,6.575-13.859,8.242c-5.114,1.661-11.376-0.441-14.556-4.775c-1.567-2.137-1.141-4.712-3.163-6.526
	c-2.131-1.913-5.368-1.938-8.06-1.947c-9.904-0.035-19.809-0.07-29.713-0.105c-34.664-0.123-69.328-0.246-103.991-0.369
	c-4.477-0.016-9.158-0.08-13.112-2.181c-4.38-2.328-5.833-6.247-5.258-10.829c0.645-5.141-0.103-10.722-0.229-15.994
	c-0.154-6.39-1.628-13.33-0.562-19.652c0.615-3.643,2.397-7.254,5.505-9.25c3.145-2.018,7.106-2.115,10.843-2.148
	c4.516-0.04,9.033-0.08,13.548-0.12C34.608,383.14,36.36,383.065,37.796,382.437z"/>
<g>
	<path style="fill:#61717A;" d="M305.194,326.929c-1.913-15.987-5.598-31.465-7.532-47.406c-2.482-20.459-7.972-40.339-9.906-60.934
		c-1.72-18.315-4.746-36.186-7.853-54.308c-1.427-8.324-1.861-16.604-3.112-24.959c-0.738-4.924-1.227-9.767-6.21-11.775
		c-3.449-1.39-9.234-0.99-13.062-1.379c-4.516-0.459-8.601-1.245-13.253-0.528c-5.093,0.785-6.865,1.129-7.999,5.971
		c-0.988,4.217-0.995,9.156-1.43,13.349c-0.88,8.484-2.063,16.911-3.379,25.331c-3.03,19.41-4.916,38.708-8.051,57.86
		c-1.634,9.985-2.783,20.085-4.363,30.231c-3.781,24.287-9.046,48.089-12.474,72.504c-3.693,26.296-6.168,52.799-11.687,78.807
		c-1.806,8.511-4.137,19.609-2.954,28.463c1.224,9.166,9.965,9.32,17.88,9.667c11.769,0.518,23.592-0.464,35.348,0.583
		c10.08,0.898,20.263,0.423,30.33,0.025c8.123-0.321,16.446-0.942,24.57-1.349c4.65-0.233,9.914,0.505,14.393-0.584
		c9.307-2.264,4.655-21.428,3.828-29.2c-1.257-11.806-3.035-23.088-5.39-34.765c-3.228-16.009-4.617-32.297-6.801-48.462
		C305.774,331.726,305.483,329.339,305.194,326.929z"/>
	<path style="fill:#61717A;" d="M243.897,79.884c-5.21-1.419-21.146-1.995-23.795,2.623c-0.993,1.731-1.445,12.053-0.064,13.504
		c2.707,2.843,14.323,1.21,17.795,1.038c14.137-0.697,28.234,2.171,42.496,0.951c3.054-0.261,9.392,0.557,11.732-1.419
		c2.009-1.698,3.563-11.08,2.391-13.616c-1.897-4.103-11.185-2.684-15.477-3.081C268.379,78.902,255.298,78.291,243.897,79.884z"/>
</g>
<path style="fill:#475A63;" d="M250.571,126.129c0-5.097-1.121-11.824,0.559-16.613c1.802-0.354,7.522-0.933,8.95-0.573
	c4.363,1.099,2.66,4.763,2.868,8.902c0.217,4.317,1.79,6.029-2.366,7.571C258.145,126.318,253.277,125.869,250.571,126.129z"/>
<g>
	<path style="fill:#798891;" d="M175.018,406.28c-10.951,4.049-23.762,2.858-35.27,2.845c-15.019-0.016-30.078-0.209-45.112-0.209
		c-13.695,0-27.393,0.376-41.11,0.376c-10.608,0-21.57-0.68-32.072,0.376c-5.884,0.592-11.863-0.144-17.368,1.571
		c-1.112,3.488,0.13,7.799-0.063,11.517c-0.199,3.842-0.256,8.045,0.292,11.771c1.175,7.989,7.593,8.667,15.067,8.663
		c22.592-0.012,45.379,0.375,67.96-0.671c24.697-1.145,49.399-2.116,73.977,0.266c3.924,0.381,3.722,1.507,5.782-2.298
		c2-3.696,2.959-8.001,4.162-12.004C172.261,425.156,177.41,410.393,175.018,406.28z"/>
	<path style="fill:#798891;" d="M178.408,382.174c-21.063,0-42.389,1.13-63.63,1.13c-13.883,0-27.735,0.782-41.61,0.375
		c-6.678-0.195-13.407-0.406-20.1-0.732c-2.63-0.129-7.156,0.269-9.498-0.773c-3.025-1.346-2.771-3.86-2.635-7.158
		c0.202-4.932,0.446-9.08-0.345-13.924c-0.623-3.815-0.54-4.61,2.972-5.679c4.133-1.259,9.502-1.435,13.821-1.487
		c13.098-0.158,26.052,1.733,39.088,2.292c14.192,0.608,28.454,0.96,42.685,0.364c12.342-0.516,25.368-1.574,37.746-0.773
		c4.69,0.304,6.338,3.197,6.053,8.336C182.809,366.767,179.977,380.931,178.408,382.174z"/>
	<path style="fill:#798891;" d="M73.701,305.716c-7.079,0.049-6.559,2.688-7.45,9.73c-0.662,5.242-2.304,14.496,4.411,15.9
		c5.168,1.081,12.531,0.115,17.831-0.019c6.948-0.177,13.864,0.68,20.822,0.346c14.8-0.711,29.707-1.011,44.522-0.376
		c9.859,0.423,19.732,1.615,29.644,1.163c3.521-0.16,4.183-0.04,5.844-3.175c2.06-3.888,2.776-9.709,3.366-14.036
		c0.238-1.754,1.475-6.71,0.451-8.226c-1.381-2.044-3.691-1.011-6.081-0.929c-9.312,0.325-18.734-0.79-28.045-0.754
		c-14.759,0.059-29.723,2.678-44.464,1.897C101.214,306.529,87.72,304.849,73.701,305.716z"/>
	<path style="fill:#798891;" d="M99.689,252.232c-12.729-4.025-6.145,20.149-5.611,25.612c0.14,1.432-0.959,3.339,0.311,4.821
		c1.235,1.442,5.121,1.708,6.768,1.958c14.956,2.267,31.203-0.392,46.345,0.014c11.998,0.322,23.895-0.797,35.823-0.767
		c3.046,0.008,8.285,1.172,11.077,0.38c3.095-0.878,3.703-4.184,4.765-7.271c1.838-5.341,1.811-10.685,2.591-16.215
		c0.25-1.768,2.208-6.204,0.677-7.723c-0.846-0.84-6.765-0.399-7.799-0.435c-6.12-0.211-12.177-0.747-18.308-0.751
		c-12.843-0.009-25.577,1.623-38.481,1.133C127.092,252.581,116.462,252.044,99.689,252.232z"/>
	<path style="fill:#798891;" d="M143.757,210.424c-2.748-0.809-9.048-0.866-11.864,0.001c-4.701,1.445-3.432,9.664-3.221,14.112
		c0.219,4.647-0.591,8.908,4.105,10.371c6.224,1.938,13.952,0.745,20.395,1.045c7.281,0.34,14.657,0.042,21.927-0.279
		c10.611-0.469,21.762-1.336,32.244-1.21c1.92-4.444,1.209-10.628,1.906-15.526c0.407-2.858,2.07-7.232,1.493-9.963
		C190.284,207.755,168.962,213.396,143.757,210.424z"/>
	<path style="fill:#798891;" d="M169.369,172.006c-4.108-0.562-8.333-0.219-9.228,3.828c-0.785,3.554,0.345,7.138,0.192,10.672
		c-0.096,2.234-1.026,4.207-0.699,6.534c3.866-0.253,8.175,0.953,12.122,1.179c6.479,0.369,12.917,1.276,19.425,1.519
		c7.661,0.287,15.498-1.715,22.953-1.191c1.158-3.645,0.887-7.445,1.779-11.226c0.563-2.39,4.141-9.191,2.438-11.712
		c-1.554-2.301-9.471-0.704-12.071-0.819c-4.065-0.18-8.182-0.506-12.287-0.218C187.59,171.025,181.286,170.165,169.369,172.006z"/>
	<path style="fill:#798891;" d="M204.397,133.966c-3.352-0.05-6.469,0.894-9.735,1.186c0.047,4.762-0.992,9.436-1.186,14.181
		c-0.318,7.748,6.152,5.543,12.382,6.102c4.792,0.429,12.311,2.151,14.829-2.619c1.763-3.339,2.385-11.037,2.166-14.726
		c-0.141-2.375,0.371-2.42-2.104-3.338C215.956,132.974,209.799,136.805,204.397,133.966z"/>
	<path style="fill:#798891;" d="M338.858,406.28c10.951,4.049,23.762,2.858,35.27,2.845c15.019-0.016,30.078-0.209,45.112-0.209
		c13.695,0,27.393,0.376,41.11,0.376c10.608,0,21.57-0.68,32.072,0.376c5.884,0.592,11.863-0.144,17.368,1.571
		c1.112,3.488-0.13,7.799,0.063,11.517c0.199,3.842,0.257,8.045-0.292,11.771c-1.175,7.989-7.593,8.667-15.068,8.663
		c-22.592-0.012-45.379,0.375-67.96-0.671c-24.697-1.145-49.399-2.116-73.977,0.266c-3.924,0.381-3.722,1.507-5.782-2.298
		c-2-3.696-2.959-8.001-4.162-12.004C341.615,425.156,336.466,410.393,338.858,406.28z"/>
	<path style="fill:#798891;" d="M335.469,382.174c21.063,0,42.389,1.13,63.63,1.13c13.883,0,27.735,0.782,41.61,0.375
		c6.678-0.195,13.407-0.406,20.1-0.732c2.63-0.129,7.155,0.269,9.498-0.773c3.025-1.346,2.771-3.86,2.635-7.158
		c-0.202-4.932-0.446-9.08,0.345-13.924c0.624-3.815,0.54-4.61-2.972-5.679c-4.133-1.259-9.502-1.435-13.821-1.487
		c-13.098-0.158-26.052,1.733-39.088,2.292c-14.192,0.608-28.454,0.96-42.685,0.364c-12.342-0.516-25.368-1.574-37.746-0.773
		c-4.69,0.304-6.338,3.197-6.053,8.336C331.068,366.767,333.9,380.931,335.469,382.174z"/>
	<path style="fill:#798891;" d="M440.176,305.716c7.079,0.049,6.559,2.688,7.449,9.73c0.662,5.242,2.304,14.496-4.411,15.9
		c-5.168,1.081-12.531,0.115-17.831-0.019c-6.948-0.177-13.864,0.68-20.822,0.346c-14.8-0.711-29.707-1.011-44.522-0.376
		c-9.859,0.423-19.732,1.615-29.644,1.163c-3.521-0.16-4.183-0.04-5.844-3.175c-2.06-3.888-2.776-9.709-3.366-14.036
		c-0.238-1.754-1.475-6.71-0.451-8.226c1.381-2.044,3.691-1.011,6.081-0.929c9.312,0.325,18.734-0.79,28.045-0.754
		c14.759,0.059,29.723,2.678,44.464,1.897C412.663,306.529,426.157,304.849,440.176,305.716z"/>
	<path style="fill:#798891;" d="M414.188,252.232c12.729-4.025,6.145,20.149,5.611,25.612c-0.14,1.432,0.959,3.339-0.311,4.821
		c-1.235,1.442-5.121,1.708-6.768,1.958c-14.956,2.267-31.203-0.392-46.345,0.014c-11.998,0.322-23.895-0.797-35.823-0.767
		c-3.046,0.008-8.285,1.172-11.077,0.38c-3.095-0.878-3.703-4.184-4.765-7.271c-1.838-5.341-1.811-10.685-2.591-16.215
		c-0.25-1.768-2.208-6.204-0.677-7.723c0.846-0.84,6.765-0.399,7.799-0.435c6.12-0.211,12.177-0.747,18.308-0.751
		c12.843-0.009,25.578,1.623,38.481,1.133C386.784,252.581,397.415,252.044,414.188,252.232z"/>
	<path style="fill:#798891;" d="M370.12,210.424c2.748-0.809,9.048-0.866,11.864,0.001c4.701,1.445,3.432,9.664,3.221,14.112
		c-0.219,4.647,0.591,8.908-4.105,10.371c-6.224,1.938-13.952,0.745-20.396,1.045c-7.281,0.34-14.657,0.042-21.927-0.279
		c-10.611-0.469-21.762-1.336-32.244-1.21c-1.92-4.444-1.208-10.628-1.906-15.526c-0.407-2.858-2.07-7.232-1.493-9.963
		C323.593,207.755,344.915,213.396,370.12,210.424z"/>
	<path style="fill:#798891;" d="M344.508,172.006c4.108-0.562,8.333-0.219,9.228,3.828c0.785,3.554-0.345,7.138-0.192,10.672
		c0.096,2.234,1.026,4.207,0.701,6.534c-3.865-0.253-8.176,0.953-12.122,1.179c-6.479,0.369-12.917,1.276-19.425,1.519
		c-7.661,0.287-15.498-1.715-22.953-1.191c-1.158-3.645-0.888-7.445-1.779-11.226c-0.563-2.39-4.141-9.191-2.438-11.712
		c1.554-2.301,9.471-0.704,12.071-0.819c4.065-0.18,8.182-0.506,12.287-0.218C326.288,171.025,332.591,170.165,344.508,172.006z"/>
	<path style="fill:#798891;" d="M309.48,133.966c3.353-0.05,6.469,0.894,9.735,1.186c-0.047,4.762,0.992,9.436,1.186,14.181
		c0.318,7.748-6.152,5.543-12.382,6.102c-4.792,0.429-12.311,2.151-14.83-2.619c-1.763-3.339-2.385-11.037-2.166-14.726
		c0.141-2.375-0.371-2.42,2.104-3.338C297.921,132.974,304.078,136.805,309.48,133.966z"/>
</g>
<path d="M511.567,406.858c0.67-4.931,0.641-12.712-0.684-17.567c-2.01-7.371-13.887-8.741-20.132-8.719
	c-5.637,0.019-11.269-0.085-16.897-0.191c0.941-3.214,0.826-6.818,0.906-10.126c0.096-3.902,0.753-7.706,0.723-11.594
	c-0.054-7.129,2.666-16.897-0.426-23.629c-2.802-6.103-11.207-6.21-16.938-6.654c-3.058-0.237-6.088-0.273-9.113-0.232
	c1.654-6.488,0.798-13.564,0.365-20.153c-0.242-3.695-0.644-7.174-0.287-10.869c0.244-2.525,0.505-4.794-0.585-7.167
	c-2.229-4.849-8.922-7.317-13.751-8.478c-4.337-1.043-8.886-1.298-13.422-1.31c0.344-1.929,0.293-3.859,0.262-5.914
	c-0.051-3.487,0.636-6.811,1.002-10.273c0.66-6.236,1.035-14.112,0.117-20.315c-2.012-13.603-18.35-11.302-28.274-12.307
	c-2.882-0.292-5.817-0.562-8.76-0.731c1.293-3.762,0.56-7.882,0.985-11.909c0.481-4.572,0.397-9.566-0.538-14.085
	c-0.736-3.555-0.878-8.454-4.137-10.697c-3.278-2.256-7.437-2.078-11.204-2.069c-5.26,0.011-10.571-0.527-15.887-0.626
	c0.433-6.958,0.093-13.981-0.468-20.909c-0.633-7.826-1.867-13.759-9.931-16.259c-7.147-2.215-15.356-2.051-23.063-2.016
	c0.194-1.202-0.08-2.373-0.175-4.035c-0.166-2.889,0.753-5.764,0.798-8.667c0.067-4.394,0.086-10.968-2.567-14.702
	c-2.824-3.974-7.703-4.748-12.259-4.791c-3.278-0.031-6.721-0.201-10.14-0.189c1.899-7.209,1.214-15.683,1.125-23.014
	c-0.05-4.181-0.575-8.328-0.663-12.515c-0.078-3.721,0.927-7.348,0.806-11.03c-0.034-1.026-0.207-1.908-0.473-2.691
	c0.658,0.049,1.307,0.097,1.941,0.145c2.714,0.207,4.913-0.652,5.984-3.315c1.681-4.183-1.064-10.392-5.112-11.69
	c-3.916-1.255-8.372-1.111-12.494-1.36c-5.072-0.307-10.268-0.516-15.348-0.458c-5.15,0.059-10.295,0.471-15.473,0.539
	c-0.457,0.006-0.919,0.008-1.383,0.008c-0.464-0.001-0.927-0.002-1.383-0.008c-5.178-0.067-10.323-0.48-15.473-0.539
	c-5.081-0.058-10.277,0.151-15.348,0.458c-4.122,0.25-8.578,0.105-12.494,1.36c-4.047,1.298-6.792,7.507-5.112,11.69
	c1.07,2.664,3.269,3.523,5.984,3.315c0.634-0.049,1.284-0.096,1.941-0.145c-0.267,0.783-0.44,1.666-0.473,2.691
	c-0.121,3.682,0.884,7.31,0.806,11.03c-0.087,4.188-0.614,8.334-0.663,12.515c-0.087,7.331-0.774,15.804,1.125,23.014
	c-3.42-0.012-6.862,0.157-10.14,0.189c-4.556,0.043-9.435,0.816-12.259,4.791c-2.653,3.733-2.634,10.307-2.567,14.702
	c0.044,2.903,0.963,5.776,0.798,8.667c-0.095,1.662-0.369,2.833-0.175,4.035c-7.708-0.035-15.916-0.199-23.063,2.016
	c-8.064,2.499-9.298,8.433-9.931,16.259c-0.56,6.929-0.901,13.951-0.468,20.909c-5.316,0.099-10.627,0.637-15.887,0.626
	c-3.768-0.008-7.928-0.186-11.204,2.069c-3.259,2.243-3.401,7.143-4.137,10.697c-0.936,4.519-1.02,9.513-0.538,14.085
	c0.424,4.026-0.307,8.148,0.985,11.909c-2.942,0.169-5.878,0.44-8.759,0.731c-9.924,1.005-26.263-1.296-28.274,12.307
	c-0.918,6.203-0.542,14.079,0.118,20.315c0.366,3.462,1.052,6.785,1.002,10.273c-0.029,2.056-0.08,3.986,0.262,5.914
	c-4.537,0.01-9.086,0.267-13.422,1.31c-4.829,1.162-11.522,3.629-13.751,8.478c-1.09,2.372-0.829,4.642-0.585,7.167
	c0.357,3.696-0.045,7.174-0.287,10.869c-0.433,6.59-1.289,13.665,0.365,20.153c-3.025-0.042-6.055-0.006-9.113,0.232
	c-5.73,0.444-14.134,0.551-16.938,6.654c-3.091,6.731-0.372,16.5-0.426,23.629c-0.029,3.888,0.627,7.691,0.723,11.594
	c0.08,3.308-0.035,6.913,0.906,10.126c-5.629,0.106-11.26,0.211-16.897,0.191c-6.245-0.023-18.122,1.348-20.132,8.719
	c-1.324,4.855-1.354,12.636-0.684,17.567c0.159,1.172,0.443,2.186,0.846,3.068c0.06,3.27,0.165,6.53,0.181,9.743
	c0.034,6.925-1.759,16.499,2.742,22.377c4.645,6.064,14.054,4.528,20.691,4.438c3.757-0.05,6.995,1.072,10.717,0.599
	c5.22-0.664,10.645-0.158,15.907-0.11c17.921,0.166,35.909-1.077,53.81-0.628c10.398,0.261,20.819,0.233,31.22,0.27
	c5.084,0.018,10.363-0.529,15.412,0.035c3.433,0.383,6.876,0.998,10.288,0.467c0.249,0.021,0.498,0.02,0.749,0.001
	c-0.003,0.906,0.09,1.808,0.367,2.697c1.423,4.563,6.626,7.254,11.068,7.973c5.19,0.84,9.393,0.694,13.876-1.517
	c0.116-0.046,0.233-0.103,0.348-0.177c0.001-0.001,0.002-0.001,0.002-0.002c0.279-0.143,0.555-0.267,0.836-0.427
	c1.233-0.703,2.139-1.479,2.809-2.348c0.971-0.977,1.689-2.069,2.201-3.491c2.843,0.767,6.247,0.585,8.925,0.715
	c5.55,0.27,11.14,0.759,16.682,0.894c11.191,0.273,22.549-0.606,33.709,0.24c10.12,0.766,20.002-0.443,30.093-0.027
	c10.281,0.424,21.898,1.642,32.018-0.376c0.75-0.15,1.346-0.444,1.82-0.824c0.488,1.124,1.127,2.041,1.949,2.869
	c0.671,0.869,1.577,1.645,2.809,2.348c0.281,0.16,0.557,0.284,0.836,0.427c0.001,0.001,0.002,0.001,0.002,0.002
	c0.115,0.073,0.232,0.131,0.348,0.177c4.482,2.211,8.686,2.357,13.876,1.517c4.442-0.719,9.645-3.41,11.068-7.973
	c0.277-0.888,0.369-1.791,0.367-2.697c0.25,0.019,0.499,0.019,0.749-0.001c3.414,0.531,6.855-0.084,10.288-0.467
	c5.051-0.564,10.329-0.017,15.412-0.035c10.401-0.037,20.822-0.009,31.22-0.27c17.9-0.449,35.889,0.794,53.81,0.628
	c5.262-0.049,10.687-0.555,15.907,0.11c3.722,0.473,6.96-0.649,10.717-0.599c6.637,0.088,16.046,1.626,20.69-4.438
	c4.502-5.878,2.71-15.452,2.742-22.377c0.016-3.215,0.121-6.473,0.181-9.743C511.124,409.045,511.408,408.03,511.567,406.858z
	 M464.854,335.935c4.699,1.077,4.296,7.136,3.995,11.068c-0.179,2.328-0.342,4.599-0.458,6.885
	c-11.37-1.136-22.947-1.98-34.328-0.817c-6.652,0.679-13.343,0.063-20.027,0.577c-5.948,0.458-11.987,0.942-17.924,0.783
	c-7.041-0.189-14.113-0.078-21.157-0.072c-6.467,0.005-12.761-0.455-19.187-0.69c-4.56-0.166-8.513-0.129-13.037,0.155
	c-1.517,0.095-9.628,0.969-10.454-0.036c-0.193-0.235-0.401-0.399-0.616-0.529c-0.765-5.43-1.853-10.837-2.994-16.234
	c4.18,0.52,8.843-0.954,12.876-0.617c7.213,0.603,14.765-0.19,22.08-0.266c17.174-0.176,34.24-1,51.42-1.04
	c8.932-0.02,18.124,0.589,27.017-0.182C449.294,334.293,457.689,334.293,464.854,335.935z M468.499,379.309
	c-0.139,0.311-0.227,0.64-0.255,0.973c-6.061-0.101-12.121-0.159-18.185-0.014c-12.738,0.304-25.418,1.052-38.1,1.367
	c-6.768,0.167-13.738-0.423-20.549-0.536c-6.582-0.11-13.115-0.781-19.732-0.549c-7.181,0.252-14.68,0.031-21.819,0.731
	c-4.554,0.446-9.017,0.313-13.518,0.775c-0.199-1.276-0.396-2.55-0.597-3.815c-1.017-6.397-2.814-12.8-3.406-19.235
	c-0.011-0.116-0.025-0.232-0.036-0.348c1.967,0.243,4.191,0.042,5.541,0.036c4.081-0.019,8.338-0.846,12.359-0.574
	c13.164,0.893,26.307,0.757,39.554,0.711c6.897-0.024,13.603-0.366,20.445-0.636c7.09-0.279,14.417-0.047,21.472-0.602
	c12.16-0.955,24.474,0.023,36.608-0.633c-0.014,0.566-0.033,1.128-0.036,1.701c-0.02,3.519-0.532,6.931-0.489,10.472
	C467.796,372.541,468.393,375.932,468.499,379.309z M443.947,328.27c-3.302,0.102-6.609,0.216-9.951,0.19
	c-18.934-0.148-37.92,0.481-56.807,0.19c-9.145-0.141-18.543-0.776-27.673-0.214c-3.988,0.246-8.045-0.286-11.964,0.131
	c-2.415,0.256-6.768,1.758-8.973,0.405c-0.593-0.364-1.176-0.534-1.733-0.574c-0.602-2.891-1.183-5.783-1.69-8.676
	c-0.661-3.762-1.401-7.503-2.168-11.237c0.081,0.008,0.156,0.024,0.243,0.024c19.7,0,39.29,1.099,58.927-0.014
	c9.75-0.553,19.672-0.024,29.438-0.06c10.169-0.038,20.287-0.475,30.43-0.825c0.07,0.747,0.137,1.495,0.192,2.243
	C442.663,315.988,443.484,322.172,443.947,328.27z M420.247,286.905c3.707,0.035,7.55,0.463,11.213,1.046
	c2.762,0.44,8.432,1.69,10.183,4.278c1.331,1.967-0.059,6.337-0.06,8.658c-0.001,1.394,0.093,2.783,0.21,4.171
	c-19.799-0.694-39.841-1.803-59.638-0.872c-19.628,0.923-39.23-0.018-58.927-0.018c-0.426,0-0.78,0.11-1.076,0.28
	c-1.124-5.288-2.307-10.563-3.476-15.843c6.024,0.003,12.083-0.595,18.143-0.611c7.06-0.018,14.036-0.33,21.073-0.571
	c6.748-0.23,13.638,0.453,20.42,0.427c7.322-0.027,14.646,0.005,21.968-0.091C406.94,287.671,413.569,286.84,420.247,286.905z
	 M415.99,280.237c-1.208,0.028-2.41,0.058-3.599,0.081c-16.253,0.327-32.888,1.523-49.12,0.077
	c-7.618-0.678-15.48,0.193-23.143,0.203c-4.719,0.007-9.477-0.188-14.192-0.053c-3.004,0.086-5.884,0.628-8.881,0.618
	c-0.162-0.753-0.327-1.504-0.486-2.256c-1.66-7.849-3.254-15.713-4.829-23.584c9.23,0.438,18.566,0.072,27.803,0.069
	c9.063-0.003,18.182,0.287,27.235-0.177c8.751-0.45,17.492-0.492,26.239-0.957c4.467-0.237,8.965-0.087,13.436-0.174
	c2.905-0.056,6.299-0.733,9.332-0.601c0.009,4.634,0.09,9.227-0.472,13.859C414.8,271.553,414.852,276.061,415.99,280.237z
	 M383.697,237.294c6.478,0.354,13.006,0.99,19.49,0.835c3.554-0.085,9.221-0.76,11.643,2.716c1.777,2.551,1.009,6.403,0.967,9.316
	c-0.003,0.236-0.003,0.471-0.006,0.706c-5.99-1.96-13.586-0.876-19.644-0.846c-9.06,0.044-18.289,0.275-27.341,0.776
	c-19.268,1.069-38.64-0.649-57.901,0.375c-0.811-4.067-1.62-8.134-2.432-12.203c0.021-0.002,0.04,0.002,0.062,0
	c13.077-1.35,26.677-1.181,39.844-1.207c5.899-0.011,11.869-0.463,17.737,0.104C372.033,238.438,377.764,236.971,383.697,237.294z
	 M379.794,218.248c-0.201,4.067,0.582,8.18,0.475,12.211c-2.056-0.003-4.105,0.063-6.128,0.251
	c-6.741,0.625-13.763-0.382-20.579-0.419c-14.878-0.08-30.244-0.425-45.023,1.044c-0.567,0.056-1.063,0.218-1.498,0.446
	c-1.373-6.845-2.779-13.687-4.217-20.523c5.998,0.367,12.027,0.2,18.021,0.599c6.981,0.464,14.318,1.515,21.304,1.107
	c6.999-0.409,13.957-0.693,21.005-0.625c5.849,0.057,11.064,0.412,16.656-0.713C379.912,213.829,379.903,216.038,379.794,218.248z
	 M358.361,197.711c4.194-0.049,8.242,0.576,12.419,0.56c1.803-0.007,5.571-0.488,6.934,1.045c1.134,1.275,1.289,4.895,1.543,6.549
	c0.157,1.026,0.281,2.055,0.379,3.087c-1.601-0.15-3.106,0.067-4.995,0.13c-3.841,0.129-7.644-0.746-11.486-0.81
	c-6.377-0.106-13.007-0.541-19.337,0.116c-13.891,1.444-27.875-2.193-41.861-1.254c-0.116-0.548-0.227-1.096-0.345-1.643
	c-0.546-2.54-1.054-5.088-1.545-7.639c3.853,0.73,8.023,0.271,11.899,0.257c4.847-0.018,9.697-0.02,14.544-0.054
	C337.127,197.978,347.745,197.834,358.361,197.711z M348.353,176.722c0.381,4.851,0.253,9.742,1.22,14.442
	c-4.888-0.054-9.776-0.115-14.664-0.172c-11.469-0.134-22.932,0.014-34.385,0.092c-0.564-0.211-1.164-0.276-1.733-0.202
	c-1.068-6.147-1.985-12.321-2.806-18.511c5.113,1.278,10.745,0.371,15.99,0.559c5.168,0.185,10.35,0.421,15.505,0.782
	c5.797,0.405,11.696,0.055,17.499-0.147c1.15-0.041,2.208-0.061,3.211-0.259C348.223,174.445,348.264,175.585,348.353,176.722z
	 M336.695,158.037c4.445-0.092,9.155,0.641,10.461,5.297c0.678,2.416,0.863,4.87,0.954,7.333c-1.076-0.084-2.263-0.394-3.13-0.477
	c-2.432-0.232-4.908-0.177-7.348-0.209c-4.781-0.062-9.476-0.423-14.239-0.677c-8.615-0.459-19.32-2.366-27.712-0.116
	c-0.042,0.011-0.07,0.036-0.108,0.051c0.201-0.075-0.825-7.088-0.932-7.758c-0.272-1.703-0.545-3.366,1.888-3.173
	c1.808,0.144,3.246,1.106,5.218,1.086c2.347-0.025,4.68-0.359,7.026-0.368C318.104,158.985,327.387,158.228,336.695,158.037z
	 M317.085,152.044c-0.202-0.003-0.408-0.003-0.61-0.008c-5.455-0.104-11-0.345-16.452-0.112c-2.069,0.086-3.861,0.476-5.894,0.089
	c-0.278-0.053-0.568-0.112-0.786-0.293c-0.558-0.463-0.438-3.777-0.555-4.619c-0.271-1.96-0.547-3.921-0.821-5.881
	c-0.25-1.78-0.627-3.513-1.063-5.223c5.338,0.706,10.851,0.307,16.226,0.224c2.792-0.043,6.054,0.286,9.022-0.082
	C316.208,141.505,315.346,147.103,317.085,152.044z M302.907,125.496c5.244-0.024,11.465-1.072,12.783,5.533
	c0.18,0.904,0.293,1.824,0.364,2.755c-3.376-0.137-8.748-0.824-9.776-0.84c-5.188-0.08-10.487-0.45-15.633,0.267
	c-0.174,0.024-0.324,0.085-0.454,0.171c-0.684-2.367-1.435-4.708-2.098-7.079c-0.029-0.429-0.087-0.859-0.16-1.284
	C292.804,125.953,297.963,125.518,302.907,125.496z M239.113,128.172c5.703,1.583,11.702,1.251,17.6,1.359
	c5.41,0.099,10.947,1.694,16.143,0.04c0.01,2.005,0.201,4.094,0.458,6.122c-5.681,0.072-11.361,0.16-17.021,0.162
	c-5.912,0.001-11.807,0.253-17.699,0.528C238.957,133.67,239.221,130.807,239.113,128.172z M253.839,111.549
	c0.257-0.32,0.654-0.547,1.261-0.626c0.751-0.097,1.557,0.128,2.299,0.212c0.849,0.096,2.007-0.04,2.667,0.619
	c1.258,1.256,0.154,4.324,0.128,5.876c-0.029,1.715-0.112,3.444-0.085,5.164c-1.124-0.078-2.251-0.139-3.397-0.121
	c-1.371,0.021-2.788-0.005-4.226-0.04c0.407,0.01,1.007-6.925,1-7.577C253.474,113.928,253.153,112.406,253.839,111.549z
	 M231.804,184.627c6.825-0.25,13.647-0.524,20.498-0.571c9.271-0.061,18.548,0.046,27.821,0.055
	c0.434,3.369,0.858,6.745,1.235,10.125c-8.361,0.043-16.734,0.22-25.066,0.223c-8.613,0.002-17.194,0.52-25.783,0.88
	C230.896,191.761,231.345,188.192,231.804,184.627z M230.071,199.718c0.011-0.125,0.026-0.251,0.037-0.376
	c7.391-0.264,14.776-0.584,22.194-0.634c9.839-0.066,19.682,0.049,29.524,0.04c0.03,0.323,0.068,0.646,0.097,0.971
	c0.28,3.067,0.579,6.122,0.897,9.172c-8.848,0.024-17.711,0.22-26.529,0.221c-9.104,0.002-18.17,0.592-27.248,0.95
	C229.408,206.624,229.755,203.179,230.071,199.718z M217.693,287.569c11.554-0.134,23.043-0.876,34.61-0.953
	c13.947-0.093,27.905,0.218,41.849-0.044c0.519,3.451,1.033,6.9,1.546,10.351c-13.099-0.38-26.304,0.093-39.405,0.096
	c-12.587,0.003-25.101,1.141-37.676,1.221c-0.84,0.006-1.68,0.024-2.52,0.035C216.626,294.707,217.156,291.138,217.693,287.569z
	 M196.486,429.108c0.355-3.276,0.707-6.555,1.073-9.834c4.591,0.06,9.184,0.125,13.778,0.179
	c13.704,0.158,27.279-0.882,40.966-0.973c14.191-0.094,28.394,0.236,42.583-0.052c6.439-0.131,13.051,0.377,19.525,0.61
	c0.375,3.358,0.736,6.716,1.099,10.07c0.01,0.095,0.014,0.191,0.024,0.285c-6.065-0.358-12.19-0.353-18.062-0.559
	c-13.68-0.48-27.486,0.046-41.178,0.05c-12.587,0.003-25.101,1.141-37.676,1.221c-6.592,0.042-13.193,0.273-19.785,0.209
	c-0.819-0.008-1.634,0.015-2.449,0.044C196.419,429.941,196.441,429.521,196.486,429.108z M297.47,414.182
	c-13.68-0.48-27.486,0.046-41.178,0.05c-12.587,0.003-25.101,1.141-37.676,1.221c-6.592,0.042-13.193,0.273-19.785,0.209
	c-0.288-0.003-0.574,0.014-0.861,0.017c0.426-3.684,0.879-7.363,1.385-11.033c3.993,0.053,7.986,0.11,11.981,0.155
	c13.704,0.158,27.279-0.882,40.966-0.973c14.191-0.094,28.394,0.236,42.583-0.052c5.838-0.119,11.82,0.29,17.711,0.54
	c0.477,3.438,0.907,6.885,1.312,10.335C308.375,414.381,302.818,414.37,297.47,414.182z M297.47,399.53
	c-13.68-0.48-27.486,0.046-41.178,0.05c-12.587,0.003-25.101,1.141-37.676,1.221c-6.242,0.04-12.491,0.242-18.733,0.209
	c0.546-3.677,1.154-7.34,1.851-10.984c3.201,0.043,6.402,0.088,9.603,0.124c13.704,0.157,27.279-0.882,40.966-0.973
	c14.191-0.094,28.394,0.236,42.583-0.052c5.041-0.102,10.186,0.189,15.29,0.431c0.666,3.437,1.249,6.893,1.776,10.36
	C307.069,399.726,302.188,399.697,297.47,399.53z M297.47,384.879c-13.68-0.48-27.486,0.046-41.178,0.05
	c-12.587,0.003-25.101,1.141-37.676,1.221c-5.401,0.034-10.809,0.188-16.212,0.209c0.656-3.638,1.223-7.291,1.73-10.954
	c2.401,0.032,4.802,0.066,7.203,0.094c13.704,0.158,27.279-0.882,40.966-0.973c14.191-0.094,28.394,0.236,42.583-0.052
	c4.251-0.086,8.576,0.108,12.888,0.315c0.476,3.473,1,6.938,1.603,10.391C305.357,385.063,301.357,385.015,297.47,384.879z
	 M297.47,370.228c-13.68-0.48-27.486,0.046-41.178,0.05c-12.587,0.003-25.101,1.141-37.676,1.221
	c-4.659,0.029-9.322,0.15-13.984,0.198c0.476-3.636,0.927-7.277,1.386-10.919c1.773,0.024,3.545,0.049,5.317,0.069
	c13.704,0.158,27.279-0.882,40.966-0.973c14.191-0.094,28.394,0.236,42.583-0.052c3.629-0.073,7.315,0.061,10.999,0.229
	c0.443,3.473,0.87,6.948,1.317,10.419C303.916,370.392,300.654,370.34,297.47,370.228z M297.47,355.576
	c-13.68-0.48-27.486,0.046-41.178,0.05c-12.587,0.003-25.101,1.141-37.676,1.221c-4.034,0.025-8.071,0.114-12.108,0.167
	c0.319-2.42,0.646-4.839,1.009-7.254c0.181-1.203,0.375-2.404,0.568-3.607c1.084,0.014,2.167,0.029,3.252,0.042
	c13.704,0.158,27.279-0.882,40.966-0.973c14.191-0.094,28.394,0.236,42.583-0.052c2.938-0.06,5.912,0.019,8.893,0.139
	c0.24,1.482,0.477,2.965,0.701,4.451c0.301,2.003,0.579,4.01,0.847,6.018C302.677,355.721,300.046,355.667,297.47,355.576z
	 M297.47,340.924c-13.68-0.48-27.486,0.046-41.178,0.05c-12.587,0.003-25.101,1.141-37.676,1.221
	c-3.301,0.02-6.603,0.081-9.905,0.137c0.606-3.603,1.243-7.201,1.891-10.797c0.245,0.003,0.49,0.007,0.736,0.009
	c13.704,0.158,27.279-0.882,40.966-0.973c14.191-0.094,28.394,0.236,42.583-0.052c2.096-0.043,4.211-0.015,6.333,0.047
	c0.633,3.501,1.256,7.003,1.854,10.511C301.185,341.035,299.314,340.99,297.47,340.924z M297.47,326.274
	c-13.68-0.48-27.486,0.046-41.178,0.05c-12.587,0.003-25.101,1.141-37.676,1.221c-2.436,0.016-4.873,0.054-7.312,0.095
	c0.647-3.58,1.289-7.16,1.902-10.743c13.069,0.051,26.032-0.889,39.096-0.975c14.191-0.094,28.394,0.236,42.583-0.052
	c1.237-0.025,2.482-0.02,3.731-0.003c0.592,3.501,1.212,6.998,1.844,10.494C299.459,326.331,298.455,326.308,297.47,326.274z
	 M297.47,311.622c-13.68-0.48-27.486,0.046-41.178,0.05c-12.587,0.003-25.101,1.141-37.676,1.221
	c-1.582,0.01-3.165,0.032-4.748,0.055c0.32-1.96,0.631-3.921,0.92-5.885c0.237-1.606,0.479-3.211,0.716-4.816
	c12.291-0.056,24.5-0.897,36.797-0.979c14.191-0.094,28.394,0.236,42.583-0.052c0.481-0.01,0.968,0.001,1.452-0.001
	c0.289,1.949,0.582,3.899,0.87,5.849c0.225,1.524,0.466,3.047,0.71,4.571C297.768,311.629,297.616,311.628,297.47,311.622z
	 M256.292,282.368c-12.587,0.003-25.101,1.141-37.676,1.221c-0.107,0.001-0.215,0.003-0.322,0.003
	c0.537-3.567,1.075-7.134,1.617-10.702c10.807-0.195,21.565-0.855,32.392-0.927c13.21-0.087,26.429,0.173,39.638-0.02
	c0.521,3.423,1.036,6.846,1.553,10.269C281.117,281.943,268.658,282.366,256.292,282.368z M256.292,267.717
	c-11.952,0.003-23.838,1.019-35.774,1.191c0.547-3.579,1.099-7.157,1.653-10.734c10.046-0.238,20.06-0.792,30.131-0.859
	c12.46-0.082,24.929,0.137,37.388,0.001c0.527,3.402,1.051,6.803,1.572,10.206C279.621,267.34,267.916,267.714,256.292,267.717z
	 M256.292,253.065c-11.198,0.002-22.336,0.899-33.512,1.155c0.557-3.586,1.123-7.173,1.688-10.758
	c9.277-0.262,18.531-0.738,27.834-0.8c11.697-0.078,23.401,0.099,35.1,0.01c0.534,3.392,1.072,6.783,1.6,10.175
	C278.107,252.741,267.164,253.063,256.292,253.065z M256.292,238.414c-10.425,0.002-20.8,0.774-31.201,1.085
	c0.232-1.468,0.459-2.936,0.693-4.403c0.337-2.114,0.636-4.226,0.939-6.338c8.522-0.273,17.029-0.69,25.579-0.747
	c10.951-0.072,21.908,0.071,32.862,0.018c0.333,2.355,0.672,4.708,1.046,7.067c0.165,1.034,0.324,2.069,0.488,3.104
	C276.564,238.154,266.399,238.411,256.292,238.414z M256.292,223.763c-9.693,0.002-19.341,0.663-29.009,1.007
	c0.48-3.573,0.913-7.149,1.317-10.73c7.894-0.27,15.779-0.627,23.701-0.68c10.337-0.069,20.679,0.057,31.018,0.028
	c0.379,3.39,0.789,6.776,1.234,10.159C275.13,223.544,265.686,223.761,256.292,223.763z M256.292,179.809
	c-8.009,0.002-15.99,0.455-23.974,0.81c0.46-3.569,0.91-7.137,1.299-10.706c6.22-0.232,12.441-0.467,18.685-0.508
	c8.671-0.058,17.348,0.033,26.022,0.052c0.364,3.378,0.785,6.755,1.219,10.133C271.785,179.648,264.021,179.806,256.292,179.809z
	 M256.292,165.157c-7.438,0.002-14.851,0.391-22.266,0.731c0.025-0.26,0.054-0.519,0.078-0.779c0.299-3.286,0.806-6.601,1.371-9.916
	c5.602-0.208,11.206-0.403,16.828-0.441c8.048-0.053,16.1,0.017,24.151,0.045c0.582,3.392,1.107,6.786,1.419,10.149
	C270.672,165.017,263.466,165.156,256.292,165.157z M256.292,150.505c-6.717,0.001-13.415,0.32-20.111,0.633
	c0.475-2.658,0.95-5.307,1.354-7.932c0.129-0.84,0.284-1.774,0.443-2.753c4.767-0.172,9.539-0.32,14.324-0.351
	c7.219-0.047,14.442,0.007,21.663,0.04c0.177,1.099,0.35,2.133,0.493,3.064c0.362,2.355,0.783,4.731,1.208,7.113
	C269.199,150.393,262.733,150.504,256.292,150.505z M273.929,122.633c-0.18,0.43-0.325,0.89-0.455,1.365
	c-2.743-1.034-4.917-0.79-8.047-0.869c0.081-2.581-0.067-5.185-0.106-7.76c-0.027-1.749,0.073-3.682-0.573-5.347
	c-1.783-4.59-6.972-2.537-10.63-3.053c-1.537-0.217-3.821-0.532-4.71,1.188c-0.218,0.423-0.269,0.908-0.304,1.382
	c-0.098,1.357-0.086,2.72-0.073,4.081c0.025,2.772-0.529,6.278,0.249,8.942c-3.743-0.076-7.531-0.046-10.991,0.705
	c-0.073-0.212-0.14-0.431-0.225-0.633c-1.267-3.035-4.951-4.301-8.02-3.901c-1.793,0.234-2.889,1.467-4.698,1.611
	c-0.66,0.053-5.895-0.678-5.965-0.515c2.017-4.687,0.788-10.404,0.827-15.442c0.017-2.184,0.143-4.386,0.299-6.594
	c5.79,1.099,11.906,0.05,17.757,0.472c6.218,0.449,12.389,0.716,18.668,0.799c0.284,0.066,0.567,0.069,0.842,0.015
	c0.129,0.001,0.255,0.006,0.384,0.007c6.745,0.061,13.442,0.835,20.222,0.646c4.191-0.116,8.904,0.026,13.186-0.75
	c0.116,1.81,0.204,3.615,0.219,5.407c0.04,5.037-1.189,10.755,0.828,15.443c-1.712,0.122-3.398,0.324-5.03,0.661
	c-0.511,0.105-0.898,0.38-1.173,0.74c-0.676-0.916-1.571-1.661-2.762-2.093C280.213,117.893,275.4,119.109,273.929,122.633z
	 M287.26,89.631c-0.111-2.373-0.217-4.743-0.52-7.097c1.36,0.001,2.72,0.009,4.082-0.011c-0.156,3.832,0.096,7.72,0.393,11.611
	c-1.287,0.032-2.575,0.108-3.864,0.197C287.657,92.841,287.328,91.069,287.26,89.631z M272.411,78.22
	c-5.606,0.075-11.113-0.563-16.718-0.53c-11.341,0.067-23.801-1.162-35.089,0.811c-0.44-1.925-0.939-4.009-0.637-5.384
	c0.801-3.643,7.716-2.498,10.593-2.562c5.207-0.116,10.577-0.008,15.872-0.314c0.499,0.096,1.007,0.179,1.54,0.219
	c3.715,0.289,7.398,0.131,11.113,0.144c3.463,0.01,7.593,0.795,11.024-0.192c3.8,0.087,7.604,0.061,11.324,0.145
	c2.877,0.064,9.792-1.081,10.593,2.562c0.286,1.301-0.147,3.236-0.566,5.071C285.117,78.07,278.754,78.135,272.411,78.22z
	 M283.473,94.611c-1.499,0.112-2.999,0.218-4.495,0.272c-0.05-0.086-0.102-0.171-0.167-0.25c-0.565-0.69-0.047-3.733-0.026-4.99
	c0.04-2.317-0.003-4.863-0.48-7.206c1.901,0.043,3.803,0.075,5.706,0.094c-0.304,2.355-0.409,4.725-0.52,7.1
	C283.418,91.169,283.056,93.071,283.473,94.611z M274.909,94.9c-0.892-0.018-1.784-0.059-2.676-0.071
	c-0.487-0.007-1.146,0.164-1.617,0.07c-1.234-0.245-1.143-1.907-1.07-2.894c0.111-1.496,0.261-3.177,0.03-4.669
	c-0.257-1.666-1.261-4.399,1.05-5.253c1.41-0.521,3.427,0.245,4.89,0.285c-0.597,2.928-0.463,6.076-0.678,9.024
	C274.751,92.585,274.681,93.799,274.909,94.9z M258.624,82.776c-0.063-0.298-0.189-0.579-0.321-0.854
	c2.556,0.038,5.112,0.103,7.668,0.174c-0.191,2.24,0.228,4.314,0.058,6.629c-0.147,1.982-0.383,4.02,0.276,5.878
	c-2.517-0.102-5.034-0.192-7.554-0.192c-0.141-2.419,0.184-4.928,0.103-7.314C258.807,85.701,258.918,84.144,258.624,82.776z
	 M255.336,88.952c-0.082,1.817-0.321,3.647-0.308,5.462c-1.771,0.009-3.533,0.001-5.287-0.029c-0.118-0.693-0.277-1.384-0.35-2.121
	c-0.157-1.582-0.119-3.198-0.197-4.786c-0.098-1.99-0.235-3.758-0.901-5.508c2.389-0.054,4.754-0.095,7.073-0.082
	c0.07,0.388,0.174,0.774,0.236,1.298C255.812,84.933,255.416,87.169,255.336,88.952z M238.913,90.629
	c-0.127-1.227,0.007-2.494-0.017-3.725c-0.028-1.46-0.027-3.162-0.331-4.73c2.502-0.027,4.999-0.093,7.479-0.155
	c-0.501,4.045-0.394,8.221,0.028,12.273c-2.225-0.072-4.449-0.163-6.685-0.284c0.024-0.095,0.049-0.191,0.054-0.292
	C239.505,92.627,239.023,91.703,238.913,90.629z M236.072,93.838c-2.067-0.101-4.252-0.173-6.455-0.15
	c0.171-0.235,0.276-0.536,0.272-0.905c-0.025-2.895-0.107-5.797-0.057-8.69c0.011-0.672,0.045-1.36,0.043-2.043
	c2.075,0.102,4.167,0.14,6.263,0.142c-0.395,2.009-0.295,4.242-0.48,6.145C235.487,90.094,235.177,92.293,236.072,93.838z
	 M221.139,81.479c-0.007-0.101-0.027-0.219-0.038-0.325c1.954,0.324,3.942,0.55,5.95,0.711c-0.235,3.633-0.281,7.264-0.312,10.917
	c-0.003,0.412,0.13,0.737,0.337,0.982c-2.168,0.104-4.312,0.322-6.323,0.727C221.086,90.128,221.404,85.762,221.139,81.479z
	 M210.94,60.289c2.21-3.967,13.704-1.201,17.766-1.082c6.441,0.188,12.873,0.811,19.285,0.859c1.117,0.008,2.306,0.056,3.532,0.108
	c1.47,0.133,2.974,0.167,4.475,0.148c1.499,0.019,3.005-0.015,4.475-0.148c1.226-0.053,2.415-0.101,3.532-0.108
	c6.411-0.047,12.844-0.671,19.285-0.859c4.062-0.119,15.556-2.885,17.766,1.082c2.687,4.823-3.012,5.91-6.421,5.903
	c-0.339-0.001-0.677,0.002-1.015,0.007c-1.919-0.734-4.221-0.967-6.547-0.99c-5.537-0.053-11.077-0.172-16.612,0.027
	c-2.287,0.081-4.362,0.66-6.642,0.543c-2.731-0.139-5.463-0.235-8.198-0.267c-3.534-0.042-7.295,0.486-10.799,0.154
	c-6.601-0.626-13.23-0.52-19.896-0.456c-2.327,0.023-4.629,0.255-6.547,0.99c-0.338-0.005-0.677-0.007-1.015-0.007
	C213.952,66.199,208.252,65.112,210.94,60.289z M196.304,131.028c1.316-6.606,7.539-5.556,12.783-5.533
	c4.945,0.023,10.104,0.456,14.975-0.478c-0.073,0.426-0.131,0.854-0.16,1.284c-0.663,2.371-1.415,4.712-2.098,7.079
	c-0.13-0.086-0.28-0.147-0.454-0.171c-5.147-0.715-10.445-0.346-15.633-0.267c-1.028,0.016-6.4,0.703-9.776,0.84
	C196.01,132.853,196.123,131.932,196.304,131.028z M195.842,136.138c2.968,0.368,6.232,0.04,9.022,0.082
	c5.375,0.082,10.888,0.481,16.226-0.224c-0.437,1.71-0.814,3.443-1.063,5.223c-0.258,1.841-0.516,3.68-0.772,5.521
	c-0.185,1.336-0.061,3.169-0.488,4.433c-0.838,2.479-4.852,0.834-6.797,0.751c-5.452-0.233-10.996,0.009-16.452,0.112
	c-0.201,0.003-0.407,0.005-0.61,0.008C196.649,147.103,195.785,141.505,195.842,136.138z M164.838,163.334
	c1.306-4.656,6.015-5.388,10.461-5.297c9.307,0.191,18.591,0.948,27.923,0.988c2.446,0.01,4.879,0.367,7.326,0.372
	c1.619,0.002,3.125-0.615,4.713-0.817c2.701-0.346,2.362,0.524,2.101,2.836c-0.294,2.611-0.608,5.219-0.938,7.825
	c-0.04-0.014-0.069-0.041-0.111-0.052c-8.391-2.251-19.097-0.342-27.712,0.116c-4.764,0.254-9.459,0.615-14.239,0.677
	c-2.44,0.032-4.916-0.023-7.348,0.209c-0.868,0.082-2.054,0.393-3.13,0.477C163.976,168.205,164.161,165.75,164.838,163.334z
	 M163.64,176.722c0.089-1.137,0.131-2.277,0.164-3.417c1.002,0.198,2.061,0.218,3.211,0.259c5.802,0.202,11.703,0.553,17.499,0.147
	c5.156-0.36,10.337-0.597,15.505-0.782c5.246-0.188,10.878,0.719,15.99-0.559c-0.82,6.19-1.738,12.364-2.806,18.511
	c-0.569-0.073-1.171-0.009-1.733,0.202c-11.453-0.077-22.916-0.226-34.385-0.092c-4.888,0.058-9.776,0.119-14.664,0.172
	C163.387,186.464,163.259,181.572,163.64,176.722z M132.738,205.865c0.253-1.654,0.409-5.275,1.542-6.549
	c1.364-1.532,5.131-1.052,6.934-1.045c4.177,0.016,8.225-0.609,12.419-0.56c10.616,0.123,21.234,0.267,31.85,0.342
	c4.849,0.034,9.697,0.036,14.544,0.054c3.877,0.015,8.046,0.472,11.899-0.257c-0.49,2.551-0.999,5.098-1.545,7.639
	c-0.118,0.547-0.228,1.096-0.345,1.643c-13.986-0.939-27.97,2.698-41.861,1.254c-6.329-0.658-12.959-0.223-19.337-0.116
	c-3.842,0.064-7.645,0.939-11.486,0.81c-1.889-0.063-3.394-0.28-4.995-0.13C132.455,207.92,132.58,206.892,132.738,205.865z
	 M132.2,218.248c-0.11-2.21-0.119-4.419-0.017-6.621c5.593,1.124,10.809,0.769,16.656,0.713c7.05-0.068,14.007,0.216,21.005,0.625
	c6.985,0.408,14.323-0.643,21.304-1.107c5.994-0.399,12.024-0.23,18.021-0.599c-1.438,6.837-2.844,13.679-4.217,20.523
	c-0.435-0.228-0.931-0.39-1.498-0.446c-14.78-1.469-30.145-1.123-45.023-1.044c-6.817,0.037-13.838,1.044-20.579,0.419
	c-2.024-0.188-4.072-0.254-6.128-0.251C131.619,226.427,132.402,222.314,132.2,218.248z M97.163,240.846
	c2.423-3.477,8.089-2.801,11.643-2.716c6.485,0.155,13.013-0.481,19.49-0.835c5.933-0.324,11.665,1.145,17.578,0.574
	c5.868-0.566,11.838-0.115,17.737-0.104c13.167,0.025,26.767-0.143,39.844,1.207c0.023,0.002,0.04-0.001,0.062,0
	c-0.81,4.069-1.62,8.137-2.432,12.203c-19.261-1.024-38.633,0.694-57.901-0.375c-9.052-0.503-18.281-0.732-27.341-0.776
	c-6.056-0.029-13.654-1.114-19.644,0.846c-0.002-0.236-0.002-0.47-0.006-0.706C96.154,247.25,95.385,243.397,97.163,240.846z
	 M96.683,267.343c-0.563-4.632-0.481-9.225-0.472-13.859c3.033-0.132,6.427,0.545,9.332,0.601c4.471,0.087,8.969-0.064,13.436,0.174
	c8.747,0.466,17.488,0.507,26.239,0.957c9.053,0.464,18.172,0.174,27.235,0.177c9.237,0.003,18.573,0.369,27.803-0.069
	c-1.576,7.871-3.169,15.735-4.83,23.584c-0.159,0.753-0.324,1.505-0.486,2.256c-2.998,0.01-5.877-0.532-8.881-0.618
	c-4.716-0.136-9.473,0.059-14.192,0.053c-7.664-0.01-15.525-0.881-23.143-0.203c-16.233,1.445-32.867,0.25-49.12-0.077
	c-1.189-0.024-2.392-0.053-3.599-0.081C97.141,276.061,97.194,271.553,96.683,267.343z M70.351,292.229
	c1.75-2.589,7.421-3.84,10.183-4.278c3.663-0.583,7.506-1.011,11.213-1.046c6.677-0.063,13.306,0.766,19.965,0.853
	c7.321,0.096,14.646,0.064,21.968,0.092c6.782,0.026,13.672-0.658,20.42-0.427c7.037,0.24,14.013,0.553,21.073,0.571
	c6.06,0.016,12.121,0.615,18.143,0.611c-1.168,5.28-2.351,10.555-3.476,15.843c-0.296-0.171-0.65-0.28-1.076-0.28
	c-19.698,0-39.3,0.94-58.927,0.018c-19.796-0.931-39.839,0.18-59.638,0.872c0.118-1.388,0.211-2.776,0.21-4.171
	C70.409,298.567,69.02,294.196,70.351,292.229z M69.779,309.854c0.054-0.748,0.122-1.496,0.192-2.243
	c10.143,0.351,20.261,0.788,30.43,0.825c9.766,0.037,19.688-0.493,29.438,0.06c19.637,1.113,39.228,0.014,58.927,0.014
	c0.086,0,0.162-0.016,0.243-0.024c-0.767,3.734-1.508,7.476-2.168,11.237c-0.507,2.893-1.088,5.784-1.69,8.676
	c-0.558,0.041-1.14,0.21-1.733,0.574c-2.204,1.354-6.558-0.148-8.973-0.405c-3.919-0.417-7.975,0.115-11.964-0.131
	c-9.13-0.563-18.529,0.071-27.673,0.214c-18.887,0.293-37.873-0.337-56.807-0.19c-3.341,0.026-6.649-0.088-9.951-0.19
	C68.509,322.172,69.33,315.988,69.779,309.854z M47.14,335.935c7.166-1.642,15.56-1.642,22.795-1.014
	c8.893,0.771,18.085,0.162,27.017,0.182c17.179,0.04,34.247,0.863,51.42,1.04c7.315,0.075,14.867,0.868,22.08,0.266
	c4.033-0.337,8.696,1.137,12.876,0.617c-1.141,5.397-2.229,10.803-2.994,16.234c-0.214,0.13-0.423,0.294-0.616,0.529
	c-0.826,1.006-8.937,0.132-10.454,0.036c-4.524-0.284-8.477-0.321-13.037-0.155c-6.427,0.235-12.721,0.695-19.187,0.69
	c-7.044-0.005-14.116-0.116-21.157,0.072c-5.937,0.159-11.976-0.325-17.924-0.783c-6.684-0.514-13.375,0.102-20.027-0.577
	c-11.382-1.163-22.958-0.319-34.328,0.817c-0.115-2.287-0.279-4.557-0.458-6.885C42.844,343.07,42.44,337.011,47.14,335.935z
	 M43.75,358.661c-0.003-0.573-0.023-1.134-0.036-1.701c12.133,0.656,24.448-0.322,36.608,0.633
	c7.055,0.554,14.381,0.322,21.472,0.602c6.842,0.27,13.547,0.612,20.445,0.636c13.247,0.045,26.391,0.182,39.554-0.711
	c4.021-0.272,8.277,0.555,12.359,0.574c1.35,0.007,3.574,0.207,5.541-0.036c-0.011,0.116-0.026,0.232-0.036,0.348
	c-0.592,6.436-2.388,12.839-3.406,19.235c-0.201,1.264-0.398,2.539-0.597,3.815c-4.502-0.462-8.965-0.328-13.519-0.775
	c-7.139-0.701-14.638-0.479-21.819-0.731c-6.617-0.232-13.15,0.441-19.732,0.549c-6.812,0.113-13.781,0.703-20.549,0.536
	c-12.682-0.314-25.362-1.063-38.1-1.367c-6.063-0.145-12.124-0.087-18.185,0.014c-0.028-0.333-0.116-0.662-0.255-0.973
	c0.105-3.377,0.703-6.767,0.743-10.176C44.282,365.592,43.77,362.178,43.75,358.661z M5.287,397.295
	c0.054-1.84-0.24-6.29,1.106-7.746c1.892-2.046,5.734-1.201,8.102-1.279c5.391-0.177,10.885-0.044,16.314-0.233
	c12.119-0.423,24.147-1.855,36.285-2.044c11.043-0.171,21.943,0.814,32.941,1.035c13.39,0.27,26.848-1.655,40.281-1.232
	c11.538,0.364,23.308,1.268,34.776-0.233c-0.582,3.591-1.219,7.186-2.067,10.702c-0.717,2.978-1.371,5.966-1.991,8.957
	c-23.164-0.601-46.483-1.948-69.601,0.661c-12.724,1.436-25.547,0.046-38.31,0.156c-11.507,0.099-22.915,1.934-34.43,1.785
	c-5.819-0.076-11.652-0.81-17.471,0.027c-1.664,0.24-4.524,1.559-5.769-0.247C4.298,405.929,5.226,399.355,5.287,397.295z
	 M164.382,438.922c-0.86-0.395-1.843-0.524-2.821-0.254c-3.799,1.047-8.006-0.437-11.852-0.56
	c-4.354-0.139-8.804,0.252-13.167,0.268c-9.013,0.032-18.027,0.145-27.04,0.23c-16.064,0.153-32.147,1.055-48.18,1.574
	c-8.711,0.283-17.503-0.33-26.176,0.493c-3.408,0.323-6.765-0.454-10.259-0.334c-3.828,0.131-7.795,0.704-11.607,0.107
	c-8.963-1.402-7.217-16.361-7.942-23.339c-0.137-1.316-0.233-2.646-0.314-3.98c0.59,0.162,1.223,0.283,1.95,0.312
	c6.133,0.255,12.14-0.534,18.337,0.218c6.058,0.736,12.346,0.766,18.429,0.368c14.098-0.922,27.992,0.011,42.099,0.082
	c15.713,0.079,31.278-2.288,46.997-1.965c7.081,0.146,14.18,0.301,21.271,0.307c4.689,0.005,10.567,0.877,15.52-0.163
	c-1.082,5.608-2.11,11.22-3.246,16.815C165.716,432.374,165.055,435.649,164.382,438.922z M189.343,435.574
	c-0.267,3.279-0.304,6.441-0.383,9.73c-0.085,3.551-1.331,5.045-3.003,7.949c-1.895,0.624-3.581,0.158-5.703-0.419
	c-2.601-0.708-5.307-0.667-7.728-1.99c-4.363-2.385-2.896-6.046-2.058-10.069c2.224-10.665,3.938-21.143,7.123-31.531
	c6.566-21.414,7.061-44.437,11.633-66.285c2.482-11.862,4.399-23.853,6.843-35.732c2.423-11.774,5.516-23.538,7.411-35.398
	c3.517-22.016,6.91-44.195,10.987-66.172c2.52-13.574,4.571-27.228,6.242-40.95c0.859-7.056,1.777-14.087,2.777-21.113
	c0.825-5.808,3.115-12.048,3.663-17.998c1.337-2.138,3.415-3.266,5.521-0.646c2.178,2.71,0.939,6.08,0.64,9.333
	c-0.597,6.476-1.21,12.874-2.162,19.331c-1.486,10.085-3.392,19.987-4.304,30.101c-0.484,5.356-1.314,10.69-1.992,16.016
	c-0.708,5.557-0.817,11.373-1.98,16.839c-2.132,10.025-3.066,20.273-5.223,30.305c-4.411,20.513-7.002,41.455-10.577,62.128
	c-2.176,12.59-4.342,25.165-6.383,37.785c-1.903,11.765-3.207,23.612-5.565,35.265c-1.05,5.184-1.656,10.497-2.195,15.766
	c-0.704,6.885-1.462,13.717-2.177,20.625C190.163,424.132,189.808,429.859,189.343,435.574z M313.58,442.758
	c-5.133,1.072-10.822,0.485-16.056,0.525c-5.215,0.041-10.416-0.04-15.627-0.081c-9.752-0.078-19.288,0.908-29.038,0.425
	c-10.59-0.525-21.3,0.114-31.904,0.08c-5.13-0.016-10.145-0.511-15.298-0.313c-2.528,0.097-5.09,0.131-7.601,0.428
	c-0.377,0.044-1.507,0.094-2.52,0.243c0.322-3.348,0.406-6.768,0.589-10.158c5.067,0.063,10.141,0.139,15.212,0.198
	c13.704,0.158,27.279-0.882,40.966-0.973c14.191-0.094,28.394,0.236,42.583-0.052c6.665-0.136,13.518,0.417,20.209,0.636
	c0.25,0.008,0.514,0.028,0.767,0.04c0.169,3.094,0.254,6.211,0.504,9.28C315.573,442.671,314.636,442.538,313.58,442.758z
	 M339.469,450.844c-2.42,1.323-5.128,1.283-7.728,1.99c-2.122,0.577-3.808,1.043-5.703,0.419c-1.672-2.904-2.919-4.398-3.003-7.949
	c-0.079-3.289-0.115-6.451-0.383-9.73c-0.466-5.714-0.82-11.442-1.409-17.13c-0.715-6.908-1.472-13.741-2.177-20.625
	c-0.539-5.269-1.146-10.583-2.195-15.766c-2.358-11.652-3.662-23.5-5.565-35.265c-2.041-12.619-4.206-25.195-6.383-37.785
	c-3.575-20.674-6.166-41.616-10.577-62.128c-2.157-10.032-3.09-20.28-5.223-30.305c-1.163-5.468-1.271-11.282-1.98-16.839
	c-0.678-5.325-1.508-10.66-1.992-16.016c-0.913-10.114-2.819-20.017-4.304-30.101c-0.951-6.455-1.565-12.855-2.162-19.331
	c-0.299-3.253-1.538-6.624,0.64-9.333c2.106-2.619,4.184-1.492,5.521,0.646c0.548,5.949,2.838,12.19,3.663,17.998
	c0.999,7.026,1.917,14.056,2.777,21.113c1.671,13.722,3.722,27.376,6.242,40.95c4.078,21.977,7.47,44.157,10.987,66.172
	c1.895,11.861,4.99,23.625,7.411,35.398c2.444,11.879,4.362,23.87,6.843,35.732c4.572,21.848,5.067,44.871,11.633,66.285
	c3.185,10.387,4.899,20.864,7.123,31.531C342.365,444.797,343.831,448.459,339.469,450.844z M506.657,417.104
	c-0.727,6.978,1.02,21.936-7.942,23.339c-3.811,0.597-7.778,0.024-11.607-0.107c-3.494-0.12-6.851,0.658-10.259,0.334
	c-8.672-0.823-17.464-0.21-26.176-0.493c-16.034-0.52-32.116-1.421-48.18-1.574c-9.013-0.086-18.027-0.198-27.04-0.231
	c-4.363-0.016-8.813-0.407-13.167-0.268c-3.847,0.123-8.054,1.608-11.852,0.56c-0.979-0.27-1.963-0.14-2.821,0.254
	c-0.672-3.272-1.333-6.548-1.999-9.821c-1.137-5.594-2.164-11.208-3.246-16.815c4.954,1.04,10.83,0.167,15.52,0.163
	c7.091-0.007,14.19-0.162,21.271-0.307c15.72-0.324,31.284,2.044,46.997,1.965c14.107-0.071,28.001-1.005,42.099-0.082
	c6.084,0.398,12.372,0.367,18.429-0.368c6.197-0.751,12.203,0.037,18.337-0.218c0.729-0.031,1.36-0.151,1.95-0.312
	C506.889,414.459,506.794,415.788,506.657,417.104z M506.54,407.606c-1.246,1.807-4.106,0.487-5.769,0.247
	c-5.818-0.837-11.651-0.103-17.47-0.027c-11.515,0.149-22.922-1.687-34.43-1.785c-12.764-0.11-25.586,1.28-38.31-0.156
	c-23.118-2.61-46.437-1.262-69.601-0.661c-0.619-2.992-1.272-5.978-1.991-8.957c-0.847-3.515-1.485-7.111-2.067-10.702
	c11.468,1.501,23.238,0.597,34.776,0.233c13.433-0.424,26.891,1.502,40.281,1.232c10.998-0.223,21.898-1.206,32.941-1.035
	c12.14,0.188,24.168,1.62,36.285,2.044c5.429,0.19,10.923,0.055,16.314,0.233c2.368,0.078,6.21-0.767,8.102,1.279
	c1.345,1.455,1.051,5.907,1.106,7.746C506.768,399.355,507.696,405.929,506.54,407.606z"/>
<g>
</g>
<g>
</g>
<g>
</g>
<g>
</g>
<g>
</g>
<g>
</g>
<g>
</g>
<g>
</g>
<g>
</g>
<g>
</g>
<g>
</g>
<g>
</g>
<g>
</g>
<g>
</g>
<g>
</g>
</svg>
