<?xml version="1.0" encoding="iso-8859-1"?>
<!-- Generator: Adobe Illustrator 19.0.0, SVG Export Plug-In . SVG Version: 6.00 Build 0)  -->
<svg version="1.1" id="Layer_1" xmlns="http://www.w3.org/2000/svg" xmlns:xlink="http://www.w3.org/1999/xlink" x="0px" y="0px"
	 viewBox="0 0 512 512" style="enable-background:new 0 0 512 512;" xml:space="preserve">
<path style="fill:#D1C8B6;" d="M503.42,378.402c-3.632-1.092-8.149-3.406-11.956-2.692c-3.299,0.618-7.925,1.498-9.769-2.337
	c-0.547-1.138-0.559-2.449-0.56-3.71c-0.031-27.301-1.409-54.608-1.778-81.913c-0.615-45.578,0.262-91.184-3.957-136.675
	c-0.618-6.677-1.301-13.381-2.872-19.913c-1.621-6.744-4.432-13.206-6.646-19.774c-0.205-0.609-0.511-1.311-1.141-1.438
	c-0.922-0.185-1.484,0.963-1.706,1.876c-2.2,8.998-3.927,17.949-7.856,26.399c-3.843-8.376-5.269-17.508-9.029-25.925
	c-1.508-3.378-1.659-7.095-2.67-10.611c-1.096-3.814-2.58-7.583-3.846-11.358c-0.221-0.659-0.539-1.411-1.211-1.587
	c-0.847-0.221-1.569,0.616-2.012,1.37c-4.668,7.966-4.258,16.67-5.097,25.492c-0.315,3.315-0.939,6.914-1.677,10.173
	c-0.402,1.774-0.972,3.512-1.86,5.106c-0.259,0.464-3.608,4.657-3.725,4.454c-2.028-3.527-4.418-6.719-5.975-10.451
	c-1.982-4.748-3.964-9.495-5.944-14.242c-4.955,9.286-8.021,19.792-8.571,30.321c-0.103,1.978,0.278,3.446,0.689,5.325
	c0.558,2.546,0.29,5.264,0.334,7.858c0.1,5.747,0.366,11.496,0.197,17.245c-0.119,4.274-1.436,8.514-2.054,11.909
	c-0.114,0.622-19.39,0.395-21.262,0.434c-7.169,0.146-14.336,0.292-21.505,0.438c-14.202,0.29-28.403,0.58-42.604,0.868
	c-7.203,0.147-14.406,0.294-21.609,0.44c-3.527,0.072-7.055,0.144-10.583,0.216c-3.154,0.064-6.773,1.039-9.865,0.43
	c-1.71-0.337-3.384-1.401-3.958-3.048c-0.558-1.603-0.046-3.571-1.087-4.912c-1.103-1.419-3.255-1.29-4.902-2.01
	c-2.467-1.077-2.688-3.187-3.434-5.453c-0.839-2.551-2.308-5.01-3.32-7.579c-0.815-2.072-2.232-4.198-4.398-4.651
	c-0.031-0.007-0.062-0.013-0.092-0.018c-2.54-0.469-4.929,1.633-5.927,4.014c-0.998,2.381-1.036,5.039-1.548,7.568
	c-0.512,2.531-1.729,5.188-4.097,6.214c-1.237,0.535-2.627,0.551-3.957,0.772c-1.33,0.221-2.737,0.743-3.415,1.909
	c-0.565,0.972-0.499,2.178-0.833,3.253c-0.873,2.809-3.237,2.811-5.591,2.976c-3.189,0.223-6.286,0.995-9.524,1.052
	c-6.836,0.12-13.817,0.686-20.492-0.413c-25.762-4.244-51.532-2.317-77.334-1.176c-2.682,0.119-5.24,0.404-7.918,0.683
	c-1.602,0.168-3.426-0.063-4.44-1.314c-0.899-1.11-0.893-2.676-0.841-4.103c0.411-11.312,1.798-22.388,1.325-33.756
	c-0.229-6.117-1.031-12.247-3.131-18.024c-1.011-2.783-1.755-5.699-2.698-8.534c-0.269-0.809-3.471-8.342-3.252-8.531
	c-4.024,3.482-5.933,8.779-7.302,13.921c-1.37,5.142-2.417,10.505-5.277,14.992c-1.74-4.586-2.032-9.414-3.349-14.015
	c-1.405-4.905-2.056-9.979-3.164-14.952c-0.804-3.608-1.578-7.269-2.453-10.903c-0.294-1.224-3.221-12.075-4.432-11.927
	c-2.295,0.281-3.312,2.976-3.855,5.222c-1.83,7.574-3.397,15.275-5.503,22.776c-0.898,3.195-2.425,6.297-3.451,9.5
	c-1.05,3.277-1.983,6.593-3.173,9.823c-0.283,0.767-0.709,1.65-1.517,1.765c-1.1,0.156-1.742-1.182-2.016-2.258
	c-1.96-7.69-3.717-15.433-5.268-23.216c-0.167-0.834-0.545-1.865-1.395-1.897c-0.719-0.027-1.201,0.709-1.522,1.353
	c-4.799,9.641-7.678,20.225-8.453,30.966c-0.213,2.956,0.24,5.765,0.075,8.74c-0.201,3.635-0.399,7.27-0.593,10.905
	c-0.389,7.271-0.762,14.543-1.109,21.817c-0.302,6.329-0.249,12.765-0.842,19.071c-0.534,5.684-1.82,11.328-2.114,17.125
	c-0.366,7.2-0.193,14.414,0.207,21.608c0.2,3.599,0.456,7.194,0.733,10.788c0.217,2.836-0.342,5.091-0.485,7.848
	c-0.75,14.541-0.646,29.179-0.947,43.737c-0.455,22.018-0.569,44.131-1.596,66.092c-0.054,1.151-0.147,2.322-0.566,3.396
	s-1.209,2.055-2.293,2.447c-1.373,0.496-2.875-0.017-4.291-0.372c-1.978-0.495-4.726,0.024-6.763,0.189
	c-2.565,0.209-4.962,1.598-6.609,3.548c-2.296,2.719-3.327,6.264-4.135,9.729c-1.673,7.172-2.645,14.51-2.898,21.87
	c-0.129,3.747,0.238,7.485,0.161,11.218c-0.073,3.493-0.743,7.017-0.479,10.531c0.367,4.897,3.636,9.646,8.997,9.294
	c4.242-0.277,8.059-0.151,12.318,0.237c9.307,0.85,18.642,1.394,27.977,1.812c19.517,0.873,39.127,1.319,58.656,0.559
	c5.025-0.195,10.073-0.444,15.061-1.109c9.824-8.739,1.8-22.309,8.973-32.782c29.05-6.745,59.026-11.29,89.107-15.043
	c14.28-1.78,28.991-4.425,43.052-2.785c33.152,3.867,66.041,10.018,99.012,15.389c4.352,0.71,8.566,2.264,12.375,3.3
	c5.028,10.584-0.17,22.443,7.866,32.44c19.719,2.754,40.094,0.099,60.44,0.057c20.292-0.042,40.57,0.64,60.993-4.036
	C513.035,417.942,507.483,398.44,503.42,378.402z M405.981,221.323c-4.931,20.704-3.391,41.978-2.151,63.017
	c1.082,18.341,0.772,36.612,0.804,54.972c0.016,8.738,1.005,17.645,0.649,26.356c-0.173,4.239-0.803,8.698-5.361,10.134
	c-6.752,2.128-15.32,1.199-22.266,0.823c-9.388-0.508-18.728-1.646-28.119-2.109c-15.377-0.758-31.225,0.586-46.666-0.461
	c-12.797,2.802-26.477,0.22-39.435-0.055c-16.77-0.357-33.606,0.543-50.373,0.896c-17.323,0.364-34.648,1.281-51.975,1.196
	c-16.009-0.079-32.632,0.508-48.6-1.116c-0.002,0.066,0,0.131-0.002,0.197c-0.068,2.582-3.878,3.18-4.543,0.615
	c-3.033-11.698-1.025-25.473-0.348-37.402c0.735-12.951,1.276-25.897,1.464-38.868c0.389-26.76-1.205-53.8,0.602-80.507
	c0.099-1.478,2.185-1.476,2.298-0.009c6.448-2.871,13.138-2.097,20.148-2.242c9.176-0.189,18.347-0.399,27.526-0.423
	c19.931-0.051,39.851,0.753,59.781,0.835c20.47,0.083,40.938-0.138,61.407-0.178c9.856-0.019,19.711,0.005,29.567,0.126
	c9.993,0.123,20.195-0.152,30.05,1.733c0.497,0.095,0.832,0.323,1.043,0.615c20.757-2.377,42.122-4.412,62.613-1.464
	C405.582,218.216,406.287,220.042,405.981,221.323z"/>
<g>
	<path style="fill:#AD8971;" d="M46.824,109.579c-0.742,4.879-4.017,9.411-5.307,14.211c-1.246,4.636-2.354,9.564-3.021,14.32
		c-0.154,1.096-1.213,4.487-0.015,5.433c0.588,0.464,3.301,0.066,4.095,0.035c3.588-0.137,7.589-0.149,11.101-0.477
		c2.269-0.211,2.059-1.047,1.926-3.477c-0.178-3.206-0.802-6.453-1.823-9.493c-1.24-3.692-2.284-7.18-3.17-10.975
		C50.173,117.294,49.925,109.063,46.824,109.579z"/>
	<path style="fill:#AD8971;" d="M73.002,89.127c-1.908,10.532-5.903,21.155-9.418,31.272c-1.131,3.254-2.174,6.718-2.904,10.086
		c-0.541,2.491-1.282,3.989,1.324,4.51c3.389,0.678,7.125,0.234,10.594,0.398c2.957,0.14,6.043,0.458,8.966-0.251
		c3.132-0.759,3.092-1.163,3.455-4.543c0.6-5.594-1.53-9.656-2.249-15.017C82.435,113.091,77.613,86.304,73.002,89.127z"/>
	<path style="fill:#AD8971;" d="M98.363,111.827c-0.181,3.802-3.111,8.335-4.499,11.857c-1.387,3.519-2.714,7.107-3.875,10.692
		c-0.746,2.306-2.045,4.984-2.266,7.396c-0.201,2.19,0.583,2.142,2.692,2.166c5.259,0.059,10.803,0.865,15.925-0.204
		c4.877-1.018,1.579-9.487,0.819-12.924c-0.872-3.941-1.9-7.873-3.069-11.731C103.682,117.733,100.792,109.596,98.363,111.827z"/>
	<path style="fill:#AD8971;" d="M33.939,212.861c5.118-1.96,11.534-3.062,16.776-1.279c5.061,1.722,10.645,0.381,15.947,0.655
		c3.999,0.207,8.061,0.367,12.084,0.197c3.328-0.14,6.963,0.319,10.193-0.589c4.599-1.294,9.243-1.774,14.037-0.671
		c2.301,0.529,2.992,1.512,3.562,3.648c0.569,2.132,1.211,5.845-0.032,7.768c-5.136-0.626-10.023-2.499-15.313-1.753
		c-2.216,0.313-3.472,1.289-5.407,2.054c-2.103,0.829-4.489,0.272-6.692,0.191c-7.08-0.261-14.229-0.786-21.307-0.814
		c-2.301-0.009-4.135-0.002-6.307-0.665c-2.296-0.701-4.428-1.288-6.868-1.16c-2.03,0.106-4.019,0.535-5.963,1.109
		c-1.014,0.299-2.726,1.311-3.805,0.914C31.603,221.274,32.665,215.37,33.939,212.861z"/>
	<path style="fill:#AD8971;" d="M55.823,255.809c9.583,0.019,19.182,0.144,28.746,0.204c3.928,0.025,4.749-2.824,7.996-4.195
		c3.087-1.304,6.912-0.276,10.085,0.105c1.85,0.223,4.068-0.153,4.978,1.869c0.892,1.981,0.197,7.163-0.782,9.073
		c-1.038,2.025-1.779,1.386-3.98,1.136c-3.164-0.359-6.369-0.61-9.568-0.424c-2.285,0.132-3.584,1.094-5.458,2.17
		c-2.048,1.176-3.657,1.216-5.974,1.306c-6.838,0.267-13.735,0.131-20.595,0.419c-2.309,0.097-5.307,0.41-7.508-0.363
		c-1.572-0.551-2.898-1.753-4.509-2.255c-4.477-1.392-9.202-0.043-13.679-0.864c-3.93-0.72-1.304-7.249,0.812-9.212
		c3.754-3.483,10.944-1.816,15.142,0.009C54.205,255.951,52.658,255.957,55.823,255.809z"/>
	<path style="fill:#AD8971;" d="M49.892,301.009c-2.989-2.64-8.848-0.751-12.219,0c-3.694,0.823-6.283,5.665-5.582,9.512
		c0.667,3.659,7.294,1.555,10.006,1.311c1.944-0.175,4.313-0.543,6.203,0.064c1.769,0.567,2.943,2.031,4.76,2.512
		c6.339,1.677,13.774-1.274,20.268-1.33c5.639-0.048,10.71,1.28,15.825-1.633c2.606-1.484,4.764-2.267,7.885-1.7
		c2.138,0.389,5.642,2.512,7.832,1.7c2.301-0.853,2.916-5.489,3.005-7.68c0.105-2.566-0.114-4.388-2.556-5.464
		c-3.351-1.478-8.075-1.407-11.528-0.463c-2.522,0.688-3.526,2.072-5.543,3.464c-1.544,1.066-3.415,1.253-5.243,1.401
		c-5.715,0.463-11.753-0.062-17.521-0.056c-3.336,0.003-7.351,0.518-10.627,0.003C53.679,302.462,53.072,302.191,49.892,301.009z"/>
</g>
<path style="fill:#998E87;" d="M47.642,376.476c-4.421-1.596-10.104-1.746-14.771-1.999c-4.167-0.226-8.297-0.278-12.44,0.159
	c-8.901,0.938-11.984,6.02-13.693,14.15c-1.352,6.431-1.512,13.044-2.047,19.593c-0.577,7.057-1.268,14.535-1.03,21.618
	c0.138,4.115,0.681,8.015,4.695,9.98c2.216,1.085,4.64,0.965,7.038,1.326c3.205,0.482,6.35,1.057,9.597,1.288
	c17.862,1.276,35.73,1.057,53.589,1.939c12.702,0.628,25.667,1.637,38.301-0.01c2.864-0.373,6.351,0.286,8.991-0.857
	c3.459-1.497,4.101-6.669,4.397-9.947c0.591-6.521,0.16-13.003-0.743-19.487c-0.847-6.087,0.102-12.289-0.791-18.374
	c-0.644-4.386-0.157-9.75-2.759-13.549c-3.348-4.889-9.525-5.944-15.063-6.033c-8.949-0.145-17.869,0.622-26.832,0.613
	c-5.841-0.006-11.672,0.444-17.507,0.424C60.886,377.29,54.255,377.908,47.642,376.476z"/>
<g>
	<path style="fill:#3A3330;" d="M69.546,142.662c-2.472,0.882-3.576,4.166-4.354,6.371c-1.103,3.125-0.885,6.294-0.874,9.543
		c0.003,0.994-0.454,3.496,0.113,4.419c0.558,0.908,1.703,0.058,2.632,0.098c1.095,0.047,2.099,0.618,3.187,0.78
		c1.517,0.226,3.13,0.106,4.655,0.002c1.48-0.1,3.202-0.253,3.489-1.902c0.165-0.945-0.216-2.191-0.27-3.159
		c-0.084-1.489-0.107-2.982-0.188-4.474c-0.128-2.354-0.431-4.578-0.79-6.894c-0.216-1.393-1.079-3.399-2.154-4.387
		C73.791,141.956,70.602,141.586,69.546,142.662z"/>
	<path style="fill:#3A3330;" d="M70.402,184.593c-2.961,0.681-5.007,5.01-5.474,7.655c-0.46,2.603-1.106,7.137,2.047,8.054
		c1.519,0.442,3.024,0.359,4.595,0.359c1.03,0,2.623,0.333,3.445-0.424c2.046-1.887,1.035-6.71,0.923-9.074
		C75.779,187.797,74.602,183.301,70.402,184.593z"/>
	<path style="fill:#3A3330;" d="M67.644,232.324c-1.547,0.701-2.164,3.975-2.474,5.413c-0.537,2.492-0.924,5.542-0.406,8.076
		c0.345,1.684,1.596,1.766,3.116,1.824c1.88,0.071,4.021,0.209,5.894-0.013c3.671-0.432,1.762-8.797,1.505-11.111
		c-0.199-1.797-0.289-3.438-1.698-4.647C71.64,230.201,69.99,231.047,67.644,232.324z"/>
	<path style="fill:#3A3330;" d="M67.359,276.537c-1.511,1.271-2.654,2.552-3.052,4.562c-0.364,1.834-0.541,3.847-0.557,5.712
		c-0.008,0.873-0.213,2.849,0.191,3.659c0.353,0.71,1.284,0.876,1.994,1.141c1.742,0.647,4.685,0.69,6.435,0.048
		c2.67-0.979,1.967-6.42,1.823-8.563c-0.126-1.891,0.153-4.163-0.629-5.952C72.55,274.821,70.267,275.729,67.359,276.537z"/>
	<path style="fill:#3A3330;" d="M65.268,322.556c-1.324-0.578-2.701,1.521-3.214,2.411c-1.66,2.879-1.432,6.056-1.548,9.232
		c-0.123,3.369-0.288,6.774-0.562,10.133c-0.143,1.743-0.218,3.959,1.127,5.324c1.075,1.09,4.153,1.33,5.627,1.507
		c1.343,0.161,4.414,0.119,5.327-1.123c0.493-0.67,0.363-1.747,0.474-2.53c0.229-1.611,0.602-3.163,0.756-4.791
		c0.332-3.512,0.175-6.962,0.332-10.467c0.111-2.468,0.339-5.543-1.28-7.594C70.671,322.587,68.042,321.582,65.268,322.556z"/>
</g>
<g>
	<path style="fill:#AD8971;" d="M465.557,109.579c0.742,4.879,4.017,9.411,5.307,14.211c1.246,4.636,2.354,9.564,3.021,14.32
		c0.154,1.096,1.213,4.487,0.015,5.433c-0.588,0.464-3.301,0.066-4.095,0.035c-3.588-0.137-7.589-0.149-11.101-0.477
		c-2.269-0.211-2.061-1.047-1.926-3.477c0.178-3.206,0.802-6.453,1.823-9.493c1.24-3.692,2.284-7.18,3.17-10.975
		C462.209,117.294,462.456,109.063,465.557,109.579z"/>
	<path style="fill:#AD8971;" d="M439.379,89.127c1.908,10.532,5.903,21.155,9.418,31.272c1.131,3.254,2.172,6.718,2.904,10.086
		c0.541,2.491,1.282,3.989-1.324,4.51c-3.389,0.678-7.125,0.234-10.594,0.398c-2.957,0.14-6.043,0.458-8.966-0.251
		c-3.132-0.759-3.092-1.163-3.455-4.543c-0.6-5.594,1.53-9.656,2.249-15.017C429.946,113.091,434.767,86.304,439.379,89.127z"/>
	<path style="fill:#AD8971;" d="M414.018,111.827c0.181,3.802,3.111,8.335,4.499,11.857c1.387,3.519,2.714,7.107,3.875,10.692
		c0.746,2.306,2.045,4.984,2.266,7.396c0.201,2.19-0.584,2.142-2.692,2.166c-5.259,0.059-10.803,0.865-15.925-0.204
		c-4.876-1.018-1.579-9.487-0.819-12.924c0.872-3.941,1.9-7.873,3.069-11.731C408.699,117.733,411.589,109.596,414.018,111.827z"/>
	<path style="fill:#AD8971;" d="M478.441,212.861c-5.118-1.96-11.534-3.062-16.776-1.279c-5.061,1.722-10.645,0.381-15.947,0.655
		c-3.999,0.207-8.061,0.367-12.084,0.197c-3.328-0.14-6.963,0.319-10.193-0.589c-4.599-1.294-9.243-1.774-14.037-0.671
		c-2.301,0.529-2.992,1.512-3.562,3.648c-0.569,2.132-1.211,5.845,0.032,7.768c5.136-0.626,10.023-2.499,15.313-1.753
		c2.216,0.313,3.472,1.289,5.407,2.054c2.103,0.829,4.489,0.272,6.692,0.191c7.08-0.261,14.229-0.786,21.307-0.814
		c2.301-0.009,4.135-0.002,6.307-0.665c2.296-0.701,4.428-1.288,6.868-1.16c2.03,0.106,4.018,0.535,5.963,1.109
		c1.014,0.299,2.726,1.311,3.805,0.914C480.778,221.274,479.716,215.37,478.441,212.861z"/>
	<path style="fill:#AD8971;" d="M456.558,255.809c-9.583,0.019-19.182,0.144-28.746,0.204c-3.928,0.025-4.749-2.824-7.996-4.195
		c-3.087-1.304-6.912-0.276-10.085,0.105c-1.85,0.223-4.068-0.153-4.978,1.869c-0.892,1.981-0.197,7.163,0.782,9.073
		c1.038,2.025,1.779,1.386,3.98,1.136c3.164-0.359,6.369-0.61,9.567-0.424c2.285,0.132,3.584,1.094,5.458,2.17
		c2.048,1.176,3.657,1.216,5.974,1.306c6.838,0.267,13.735,0.131,20.595,0.419c2.309,0.097,5.307,0.41,7.508-0.363
		c1.572-0.551,2.898-1.753,4.509-2.255c4.477-1.392,9.202-0.043,13.678-0.864c3.93-0.72,1.304-7.249-0.812-9.212
		c-3.754-3.483-10.944-1.816-15.142,0.009C458.176,255.951,459.723,255.957,456.558,255.809z"/>
	<path style="fill:#AD8971;" d="M462.489,301.009c2.989-2.64,8.848-0.751,12.219,0c3.694,0.823,6.283,5.665,5.582,9.512
		c-0.667,3.659-7.293,1.555-10.006,1.311c-1.944-0.175-4.313-0.543-6.205,0.064c-1.768,0.567-2.943,2.031-4.76,2.512
		c-6.339,1.677-13.774-1.274-20.268-1.33c-5.638-0.048-10.71,1.28-15.825-1.633c-2.606-1.484-4.764-2.267-7.885-1.7
		c-2.138,0.389-5.642,2.512-7.832,1.7c-2.302-0.853-2.916-5.489-3.005-7.68c-0.105-2.566,0.114-4.388,2.556-5.464
		c3.351-1.478,8.075-1.407,11.528-0.463c2.522,0.688,3.526,2.072,5.543,3.464c1.544,1.066,3.415,1.253,5.243,1.401
		c5.715,0.463,11.753-0.062,17.521-0.056c3.335,0.003,7.351,0.518,10.627,0.003C458.702,302.462,459.309,302.191,462.489,301.009z"
		/>
</g>
<path style="fill:#998E87;" d="M464.739,376.476c4.421-1.596,10.106-1.746,14.771-1.999c4.167-0.226,8.297-0.278,12.44,0.159
	c8.901,0.938,11.984,6.02,13.693,14.15c1.352,6.431,1.512,13.044,2.047,19.593c0.577,7.058,1.268,14.535,1.03,21.619
	c-0.138,4.115-0.681,8.015-4.695,9.98c-2.215,1.085-4.64,0.965-7.038,1.326c-3.205,0.481-6.35,1.057-9.597,1.288
	c-17.862,1.276-35.73,1.057-53.589,1.939c-12.702,0.628-25.667,1.637-38.301-0.01c-2.864-0.373-6.351,0.286-8.991-0.857
	c-3.458-1.497-4.101-6.669-4.397-9.947c-0.591-6.521-0.16-13.003,0.743-19.487c0.847-6.087-0.102-12.289,0.791-18.374
	c0.644-4.386,0.157-9.75,2.759-13.549c3.348-4.889,9.525-5.944,15.063-6.033c8.948-0.145,17.869,0.622,26.832,0.613
	c5.841-0.006,11.672,0.444,17.507,0.424C451.495,377.29,458.126,377.908,464.739,376.476z"/>
<g>
	<path style="fill:#3A3330;" d="M442.835,142.662c2.473,0.882,3.576,4.166,4.354,6.371c1.103,3.125,0.885,6.294,0.874,9.543
		c-0.003,0.994,0.454,3.496-0.113,4.419c-0.558,0.908-1.703,0.058-2.632,0.098c-1.095,0.047-2.099,0.618-3.187,0.78
		c-1.517,0.226-3.13,0.106-4.654,0.002c-1.48-0.1-3.202-0.253-3.489-1.902c-0.165-0.945,0.216-2.191,0.27-3.159
		c0.084-1.489,0.107-2.982,0.188-4.474c0.128-2.354,0.431-4.578,0.79-6.894c0.216-1.393,1.079-3.399,2.154-4.387
		C438.59,141.956,441.779,141.586,442.835,142.662z"/>
	<path style="fill:#3A3330;" d="M441.979,184.593c2.961,0.681,5.007,5.01,5.474,7.655c0.461,2.603,1.106,7.137-2.047,8.054
		c-1.519,0.442-3.024,0.359-4.595,0.359c-1.03,0-2.623,0.333-3.446-0.424c-2.046-1.887-1.035-6.71-0.923-9.074
		C436.602,187.797,437.778,183.301,441.979,184.593z"/>
	<path style="fill:#3A3330;" d="M444.736,232.324c1.547,0.701,2.164,3.975,2.474,5.413c0.536,2.492,0.924,5.542,0.406,8.076
		c-0.343,1.684-1.596,1.766-3.116,1.824c-1.88,0.071-4.021,0.209-5.894-0.013c-3.671-0.432-1.762-8.797-1.505-11.111
		c0.199-1.797,0.289-3.438,1.698-4.647C440.74,230.201,442.391,231.047,444.736,232.324z"/>
	<path style="fill:#3A3330;" d="M445.021,276.537c1.511,1.271,2.653,2.552,3.052,4.562c0.364,1.834,0.541,3.847,0.557,5.712
		c0.008,0.873,0.213,2.849-0.191,3.659c-0.353,0.71-1.284,0.876-1.994,1.141c-1.742,0.647-4.685,0.69-6.435,0.048
		c-2.67-0.979-1.966-6.42-1.823-8.563c0.125-1.891-0.153-4.163,0.629-5.952C439.831,274.821,442.113,275.729,445.021,276.537z"/>
	<path style="fill:#3A3330;" d="M447.113,322.556c1.325-0.578,2.701,1.521,3.214,2.411c1.66,2.879,1.432,6.056,1.548,9.232
		c0.123,3.369,0.288,6.774,0.563,10.133c0.143,1.743,0.218,3.959-1.127,5.324c-1.075,1.09-4.153,1.33-5.627,1.507
		c-1.343,0.161-4.414,0.119-5.327-1.123c-0.493-0.67-0.362-1.747-0.474-2.53c-0.229-1.611-0.602-3.163-0.756-4.791
		c-0.333-3.512-0.176-6.962-0.332-10.467c-0.111-2.468-0.339-5.543,1.28-7.594C441.71,322.587,444.339,321.582,447.113,322.556z"/>
</g>
<g>
	<path style="fill:#84B0CE;" d="M126.295,378.62c-2.313,2.85-0.18,7.816,1.062,12.044c1.43,4.861,2.258,9.524,2.724,14.641
		c0.499,5.48,1.225,6.512,6.809,5.421c10.405-2.033,20.709-5.418,31.263-6.883c21.659-3.009,43.444-5.69,65.126-8.929
		c24.687-3.688,48.879-3.022,73.399,1.407c15.109,2.729,30.076,5.983,44.974,9.718c8.956,2.245,20.58,7.893,29.791,6.968
		c1.23-5.72,1.872-11.943,3.165-17.627c0.525-2.31,1.427-4.892,2.207-7.091c0.672-1.9,4.088-6.067,3.806-8.096
		c-0.463-3.324-5.86-2.533-8.724-2.859c-8.088-0.921-16.548-1.656-24.69-1.909c-29.56-0.922-59.138,0.649-88.641,0.104
		c-30.326-0.56-60.663-1.132-90.994-0.503c-11.599,0.241-23.351,0.027-34.938,0.826c-4.436,0.306-9.216-0.317-13.526,1.022
		C127.804,377.276,126.898,377.876,126.295,378.62z"/>
	<path style="fill:#84B0CE;" d="M172.328,184.118c-6.774-1.957-15.959-1.245-22.895-0.752c-7.67,0.545-15.192,0.003-22.817,0.404
		c-3.421,0.18-6.721,0.71-10.183,0.709c-1.211,0-4.533-0.701-5.527-0.326c-4.996,1.881-0.946,15.684-0.942,20.037
		c0.005,4.673-0.969,9.251-0.712,14.016c5.413-2.534,13.413-0.406,19.225-0.703c12.238-0.626,24.385-1.036,36.667-1.055
		c31.764-0.049,63.568,1.851,95.375,1.9c45.464,0.072,90.862-0.828,136.234-0.394c3.228,0.031,5.703,0.957,7.283-2.243
		c1.758-3.56,0.649-12.159,0.321-16.142c-0.3-3.631,0.44-9.572-1.089-12.814c-1.585-3.36-5.774-1.442-9.622-1.495
		c-17.631-0.24-35.342-0.631-52.897-1.488c-15.728-0.768-30.53,3.493-46.149,2.996c-24.144-0.768-48.492-1.789-72.624-0.56
		c-8.738,0.445-19.812,2.461-28.352-0.169c-3.135-0.965-5.336-2.13-8.836-2.308C179.422,183.454,172.856,185.215,172.328,184.118z"
		/>
</g>
<path style="fill:#5A89A3;" d="M108.054,194.006c2.882-1.39,8.644-0.306,12.101-0.463c11.394-0.52,23.156,0.331,34.576,0.93
	c29.05,1.523,57.57,2.825,86.687,2.16c29.306-0.67,58.447-2.457,87.745-0.72c22.076,1.309,44.17,1.893,66.28,1.897
	c7.303,0.001,8.224,1.316,8.066,8.319c-13.244,2.388-28.701,0.067-42.361,0.414c-24.182,0.616-48.333,0.385-72.508,0.395
	c-51.755,0.023-103.742,2.429-155.471,0.4c-2.653-0.104-13.785-0.875-14.19,1.915c-0.524,3.609,5.353,3.747,7.569,3.77
	c11.678,0.121,23.258,0.001,34.931,0.001c47.09,0,94.442,2.302,141.489-0.084c15.643-0.794,31.336-0.675,47.053-0.675
	c9.569,0,19.141-0.064,28.709,0.001c7.406,0.05,16.289-0.056,23.274,2.737c0.03,4.332-10.341,3.348-13.055,3.348
	c-10.643,0-21.262-0.38-31.934-0.38c-31.021,0-61.999-1.206-93.014-1.52c-26.722-0.27-53.382,1.206-80.134,1.141
	c-22.277-0.055-44.712,0.763-66.988,1.055c-4.664,0.06-8.424,0.908-9.215-4.185c-0.614-3.958,0.952-7.823,0.523-11.726
	C107.827,199.464,106.43,197.533,108.054,194.006z"/>
<g>
	<path style="fill:#2B4B59;" d="M128.479,389.777c1.117,3.292,0.713,7.67,0.922,11.121c0.151,2.483-0.253,6.34,1.022,8.606
		c1.023,1.819,3.089,1.23,4.875,1.213c3.026-0.03,5.61-0.652,8.569-1.157c1.539-0.262,2.757-0.612,4.208-1.184
		c0.404-0.16,2.194-0.556,2.377-0.978c0.321-0.737-1.525-2.177-1.957-2.626c-1.383-1.441-3.167-2.423-4.629-3.827
		c-1.443-1.386-3.073-2.577-4.576-3.902c-2.242-1.975-4.579-3.844-6.776-5.886c-1.258-1.169-2.271-2.751-3.618-3.742
		c-0.186,1.651-0.421,3.335-0.547,4.996"/>
	<path style="fill:#2B4B59;" d="M138.751,385.959c0.593,1.644,3.196,3.345,4.471,4.47c2.19,1.933,4.211,3.988,6.36,5.966
		c1.571,1.447,2.856,3.118,4.412,4.548c0.777,0.713,1.821,2.286,2.798,2.637c1.152,0.413,1.246-0.373,1.861-1.245
		c1.35-1.915,2.955-3.653,4.317-5.568c2.781-3.908,6.862-7.488,8.691-11.967c-1.213-0.746-3.157-0.557-4.507-0.553
		c-3.924,0.01-7.851-0.254-11.771-0.139c-3.874,0.114-7.748,0.475-11.624,0.536C142.642,384.663,138.146,383.938,138.751,385.959z"
		/>
	<path style="fill:#2B4B59;" d="M179.446,385.432c-0.041,1.073-1.086,2.471-1.601,3.382c-1.141,2.023-2.517,3.927-3.835,5.836
		c-1.504,2.178-4.624,5.578-4.958,8.273c0.939,0.385,2.434-0.039,3.437-0.108c3.092-0.215,6.12-0.749,9.163-1.345
		c2.857-0.56,5.713-1.173,8.58-1.69c0.816-0.147,3.415-0.062,3.745-1.047c0.614-1.838-4.529-4.623-5.503-5.487
		c-1.427-1.264-3.017-2.447-4.293-3.861C182.987,388.065,182.167,385.688,179.446,385.432z"/>
	<path style="fill:#2B4B59;" d="M191.562,384.904c2.014,2.729,5.573,4.7,8.006,7.079c1.256,1.228,2.395,4.524,4.436,4.764
		c0.898,0.105,1.442-0.596,2.008-1.198c1.249-1.328,2.582-2.538,3.888-3.823c1.249-1.229,2.414-2.563,3.482-3.947
		c0.666-0.864,2.064-2.281,2.134-3.374c-2.63-1.01-6.619-0.297-9.381-0.291C201.087,384.124,196.523,383.679,191.562,384.904z"/>
	<path style="fill:#2B4B59;" d="M223.959,383.851c0.115,3.432-4.833,7.181-6.963,9.356c-0.934,0.954-1.644,1.496-0.427,2.075
		c1.697,0.808,5.299,0.092,7.069-0.035c2.849-0.204,5.987-0.379,8.775-1.059c1.395-0.34,1.749-0.437,1.492-1.772
		c-0.321-1.668-1.94-2.901-3.178-3.92C228.744,386.863,226.364,385.15,223.959,383.851z"/>
	<path style="fill:#2B4B59;" d="M243.846,384.115c6.457-0.989,13.206-0.289,19.707-0.033c1.981,0.078,3.966,0.147,5.926,0.44
		c0.452,0.067,2.113,0.076,2.442,0.485c0.874,1.086-3.875,6.062-4.905,7.022c-2.56,2.38-7.446,1.074-10.527,0.763
		c-2.739-0.276-6.758,0.22-8.889-1.632c-2.726-2.369-5.306-4.544-8.362-6.518C240.929,384.392,242.15,384.374,243.846,384.115z"/>
	<path style="fill:#2B4B59;" d="M284.408,385.826c-1.49,2.007-3.272,3.98-5.143,5.636c-0.874,0.774-2.386,1.587-1.293,2.5
		c0.446,0.372,2.368,0.509,2.914,0.626c1.316,0.282,2.632,0.552,3.947,0.852c2.713,0.618,5.544,0.954,8.334,0.796
		c1.527-0.086,2.035-0.082,1.685-1.584c-0.405-1.735-1.83-3.344-2.776-4.818c-1.11-1.73-1.878-3.718-3.303-5.211
		C286.953,382.717,286.172,383.435,284.408,385.826z"/>
	<path style="fill:#2B4B59;" d="M296.449,384.794c-0.025,0.071-0.042,0.145-0.054,0.223c-0.099,0.691,1.187,1.6,1.617,2.083
		c1.66,1.86,3.485,3.639,4.969,5.646c1.168,1.579,2.172,3.6,4.29,2.751c2.848-1.142,5.415-3.95,7.834-5.836
		c1.269-0.989,3.086-2.16,3.977-3.536c0.777-1.201,0.403-1.349-0.909-1.709c-3.463-0.952-7.656-0.332-11.244-0.665
		C305.313,383.599,297.267,382.426,296.449,384.794z"/>
	<path style="fill:#2B4B59;" d="M331.425,385.563c-1.786,2.684-4.914,4.194-7.414,6.091c-1.245,0.945-2.409,1.983-3.677,2.897
		c-1.093,0.786-2.679,1.48-3.522,2.542c-1.405,1.766,1.158,1.997,2.628,2.364c3.61,0.905,7.134,1.889,10.806,2.561
		c3.3,0.604,6.598,1.233,9.888,1.824c1.245,0.224,1.548,0.364,1.83-0.814c0.624-2.603-1.614-7.044-3.085-9.038
		C336.477,390.739,334.248,387.02,331.425,385.563z"/>
	<path style="fill:#2B4B59;" d="M341.564,385.037c2.137,4.088,5.228,8.099,7.773,11.983c0.842,1.285,1.735,2.32,2.766,3.423
		c0.709,0.758,1.296,2.064,2.338,2.34c1.601,0.423,3.105-1.743,4.151-2.777c2.499-2.47,5.433-4.649,8.089-6.965
		c2.097-1.828,4.337-3.547,6.336-5.479c1.172-1.132,1.292-1.674-0.419-2.13c-4.693-1.254-10.393-1.187-15.221-1.32
		c-3.086-0.086-6.248-0.316-9.334-0.21C345.347,383.994,343.318,385.369,341.564,385.037z"/>
	<path style="fill:#2B4B59;" d="M381.469,387.934c-2.316,1.644-4.274,3.966-6.387,5.861c-2.577,2.31-5.413,4.231-8.105,6.391
		c-1.701,1.365-3.116,2.856-4.406,4.598c-1.134,1.532-0.882,1.486,0.98,1.754c4.813,0.695,9.421,2.832,14.203,3.756
		c3.309,0.639,4.144-4.388,4.9-6.806C383.364,401.208,387.716,386.616,381.469,387.934z"/>
</g>
<path style="fill:#D1C8B6;" d="M235.106,185.137c-0.238,5.503-0.88,11.498-0.428,16.999c0.165,2.01,0.164,2.427,2.276,2.64
	c8.028,0.814,16.9,0.243,24.982-0.123c2.059-0.094,5.018,0.543,6.985-0.048c1.885-0.567,1.635-1.482,2.021-3.632
	c0.529-2.952,2.611-15.351-1.367-16.678c-1.564-0.523-4.264,0.326-5.889,0.395c-3.352,0.141-6.719,0.321-10.074,0.428
	C247.561,185.311,241.501,184.632,235.106,185.137z"/>
<g>
	<path style="fill:#A89B85;" d="M55.649,147.665c-9.664,4.417-9.29,19.166-9.68,28.005c-0.39,8.823-1.213,17.799-0.76,26.593
		c0.112,2.177,1.27,7.247-0.707,8.735c-2.954,2.224-8.254-1.301-11.131-1.172c-0.254-4.96,0.923-10.355,1.099-15.375
		c0.237-6.757,1.212-13.444,1.665-20.184c0.375-5.59-0.131-11.233,0.28-16.868c0.235-3.228-0.43-7.079,0.244-10.222
		c0.855-3.981,6.5-4.011,10.102-4.209C48.838,142.855,55.852,142.451,55.649,147.665z"/>
	<path style="fill:#A89B85;" d="M44.493,219.591c-1.834,6.102-1.661,13.761-1.661,20.112c0,3.441,0.801,6.853,0.75,10.288
		c-0.055,3.644-2.881,3.135-6.037,4.009c-0.718,0.199-2.905,1.698-3.507,1.329c-1.167-0.715-0.881-10.01-0.958-11.364
		c-0.313-5.469-0.536-11.004,0.258-16.444c0.139-0.957,0.232-2.565,0.737-3.357C36.093,220.998,40.262,221.612,44.493,219.591z"/>
	<path style="fill:#A89B85;" d="M43.306,265.168c-0.003,7.52,0,15.025,0,22.557c0,3.741-0.383,7.986,0.444,11.59
		c-1.505-0.083-3.839,1.107-5.407,1.482c-1.71,0.408-3.675,1.212-5.203,1.853c-0.42-9.93,0.434-20.145,0.434-30.146
		c0-1.303-0.456-3.701-0.006-4.961C34.45,265.074,38.797,264.174,43.306,265.168z"/>
	<path style="fill:#A89B85;" d="M34.286,315.731c0.383,7.292-0.945,14.978-1.207,22.293c-0.256,7.13-0.479,14.269-0.698,21.391
		c-0.11,3.571-2.285,14.571,2.345,15.812c4.223,1.131,4.194-3.214,4.29-6.275c0.325-10.418,0.995-20.976,1.632-31.395
		c0.365-5.98-1.238-12.927,0.653-18.698c0.484-1.476,3.323-4.521,2.724-6.217c-0.623-1.765-3.571-1.408-5.11-0.961
		C35.032,312.804,33.162,315.069,34.286,315.731z"/>
	<path style="fill:#A89B85;" d="M82.015,314.776c-1.152-1.564-6.13-1.205-7.908-1.413c-4.242-0.495-19.584-4.048-20.595,1.893
		c-4.079,12.447-2.203,27.138-2.619,40.097c-0.159,4.963-0.468,9.884-0.468,14.861c0,2.339-0.645,3.391,1.169,4.15
		c1.865,0.78,5.707,0.495,7.791,0.833c3.643,0.59,7.291,0.826,10.946,1.251c3.076,0.357,6.626,1.355,9.655,0.2
		c4.223-1.61,3.432-8.602,0.823-11.279c-4.233-4.34-11.334-4.155-14.97-9.232c-5.816-8.119-7.454-18.146-6.035-27.818
		c0.768-5.232,5.423-9.736,10.915-9.598c2.361,0.059,4.127,1.285,6.569,0.84C79.206,319.213,83.998,317.466,82.015,314.776z"/>
	<path style="fill:#A89B85;" d="M53.751,267.543c-1.273,7.495-0.972,15.71-1.189,23.352c-0.071,2.475-1.495,9.071,0.056,11.305
		c1.023,1.474,3.284,0.495,5.165,0.476c4.074-0.043,8.123-0.181,12.194-0.24c2.856-0.04,5.421-0.013,8.224,0.242
		c2.077,0.188,2.657,0.115,3.681-1.535c3.804-6.13-6.855-4.538-10.088-5.814c-2.948-1.164-7.886-2.649-8.968-5.871
		c-0.984-2.93,0.269-8.428,1.837-11.116c3.108-5.331,9.503-5.584,14.879-6.282c1.506-0.195,4.131-0.945,3.366-3.102
		c-0.881-2.482-5.933-1.968-7.786-1.947C68.202,267.089,60.835,264.538,53.751,267.543z"/>
	<path style="fill:#A89B85;" d="M54.7,223.864c0.242,6.753-1.196,14.151-1.656,20.929c-0.176,2.601-1.061,10.314,1.816,12.077
		c1.447,0.887,4.888,0.292,6.542,0.233c3.316-0.12,6.668-0.105,9.988-0.264c2.579-0.123,9.84,0.841,11.446-1.51
		c3.199-4.683-8.237-5.318-10.537-5.777c-3.558-0.707-7.712-0.515-8.322-4.791c-0.458-3.207-0.031-8.97,1.57-11.831
		c3.123-5.579,11.271-1.756,15.966-3.381c1.74-0.602,4.353-3.229,3.048-5.225c-1.124-1.717-5.234-1.158-6.943-1.175
		c-4.162-0.043-8.299-0.798-12.469-0.722C61.469,222.495,57.471,221.977,54.7,223.864z"/>
	<path style="fill:#A89B85;" d="M68.236,187.123c-0.944,1.279-2.455,1.859-3.328,3.208c-1.175,1.816-1.342,4.433-1.193,6.546
		c0.22,3.138,0.837,4.881,3.969,5.617c3.091,0.726,6.201-0.102,7.439,3.693c1.487,4.557-1.488,6.259-5.545,6.284
		c-3.62,0.022-9.068,1.41-12.508,0.064c-3.016-1.18-2.506-5.069-2.612-7.932c-0.26-6.986,0.436-14.291,0.961-21.263
		c0.803-10.675,0.682-21.591,0.723-32.325c0.018-4.809-0.453-13.586,5.971-14.518c4.532-0.658,9.74-0.225,14.326-0.226
		c1.732,0,8.74-0.515,5.45,2.677c-1.4,1.359-3.55,0.695-5.226,0.873c-1.887,0.201-4.234,0.845-5.905,1.779
		c-2.427,1.355-4.363,3.747-5.317,6.292c-1.237,3.301-2.493,10.193-0.788,13.482c0.988,1.905,2.596,2.187,4.081,3.263
		c3.105,2.248,1.741,7.599,1.253,10.714C69.396,179.122,70.669,183.825,68.236,187.123z"/>
	<path style="fill:#A89B85;" d="M87.458,145.528c0,13.952-1.237,27.925-1.912,41.846c-0.261,5.39-0.258,10.725,0.258,16.092
		c0.143,1.487-0.434,5.979,0.933,6.936c0.914,0.64,6.926,0.483,7.978-0.248c2.81-1.949,1.847-10.014,1.746-13.228
		c-0.472-14.981-2.895-29.817-1.277-44.722c0.27-2.485,0.44-5.384-1.609-7.15c-1.104-0.952-2.273-1.322-3.738-1.144
		C86.7,144.294,86.773,145.692,87.458,145.528z"/>
	<path style="fill:#A89B85;" d="M87.458,222.44c-0.438,8.754-1.034,17.671-0.712,26.458c0.057,1.554-0.309,3.607,1.175,4.348
		c1.294,0.647,4.564-0.648,5.511-1.353c2.488-1.852,1.804-6.033,1.865-9.434c0.094-5.196,0.779-10.685-0.033-15.857
		c-0.363-2.309-0.423-3.924-2.455-4.437C91.119,221.737,88.371,222.227,87.458,222.44z"/>
	<path style="fill:#A89B85;" d="M87.696,266.355c0.099,9.437-1.742,18.918-1.424,28.408c0.055,1.625-0.123,4.498,1.661,5.013
		c0.461,0.133,4.287-1.094,4.649-1.393c2.106-1.727,2.043-9.722,2.205-12.086c0.351-5.096-0.171-10.246,0.253-15.326
		c0.136-1.626,0.633-4.677-0.8-6.051C91.025,261.836,87.817,267.558,87.696,266.355z"/>
	<path style="fill:#A89B85;" d="M85.797,315.256c-0.035,13.068-0.209,26.368-0.831,39.432c-0.215,4.511-0.281,9.049-0.475,13.55
		c-0.047,1.068-0.737,4.732-0.035,5.655c0.713,0.939,4.873,1.055,5.919,0.672c3.238-1.184,2.794-6.514,3.027-9.202
		c1.325-15.308,0.845-31.211,0.471-46.582c-0.047-1.931,0.485-6.161-1.546-7.315C89.56,309.895,86.664,313.931,85.797,315.256z"/>
	<path style="fill:#A89B85;" d="M412.205,143.802c2.245,2.059,1.654,6.013,1.652,8.711c-0.005,6.952,0.204,13.932,0.777,20.86
		c0.529,6.42,0.149,12.906,0.556,19.345c0.284,4.499,1.374,9.632,0.998,14.129c-0.386,4.623-3.707,4.979-7.761,5.093
		c-2.666,0.075-3.417-0.162-3.956-2.893c-1.382-6.999-0.212-14.833-0.593-21.987c-0.517-9.712-0.075-19.376-0.675-28.983
		c-0.219-3.508-0.607-7.1-0.049-10.598C403.834,143.21,408.108,140.045,412.205,143.802z"/>
	<path style="fill:#A89B85;" d="M405.786,223.627c0.401,5.921-0.712,12.313-0.712,18.316c0,2.797-0.75,7.034,0.278,9.653
		c1.934,0.248,3.891,0.858,5.903,0.041c3.846-1.563,3.192-9.227,3.556-12.675c0.381-3.608,0.264-7.006,0.229-10.606
		c-0.015-1.608,0.402-3.842-0.235-5.347c-0.663-1.568-0.421-1.442-2.215-1.529C410.728,221.389,407.597,222.4,405.786,223.627z"/>
	<path style="fill:#A89B85;" d="M414.332,264.219c0,5.4,0.186,10.726,0.481,16.116c0.29,5.276-0.178,11.494,1.157,16.613
		c-1.68,0.209-3.27-0.396-4.951-0.076c-1.4,0.266-3.172,1.031-4.473,1.507c0.027-2.702-1.047-5.701-1.295-8.468
		c-0.442-4.943-0.977-9.969-1.6-14.889c-0.317-2.503-1.099-4.897,0.372-7.123C405.913,265.043,410.538,263.39,414.332,264.219z"/>
	<path style="fill:#A89B85;" d="M404.837,315.493c0,12.278,0.851,24.522,0.721,36.793c-0.054,5.075-0.229,10.059,0.003,15.135
		c0.121,2.652-0.764,6.41,0.208,8.823c4.602-1.403,11.397,1.717,11.417-5.303c0.022-7.984-1.152-15.984-1.489-23.965
		c-0.325-7.721-0.682-15.464-1.192-23.175c-0.18-2.727-0.262-5.381,0.066-8.104c0.127-1.045,0.863-2.911,0.476-3.879
		c-0.509-1.276-1.134-1.203-2.713-1.077c-1.776,0.14-4.43,0.748-5.852,1.917C404.217,314.517,405.192,316.205,404.837,315.493z"/>
	<path style="fill:#A89B85;" d="M429.05,315.968c0.006,16.405-0.745,32.721,0.119,49.12c0.122,2.312-0.531,9.032,1.723,10.711
		c1.149,0.857,2.276,0.114,3.639,0.268c1.839,0.209,3.674,1.716,5.561,0.568c3.286-2,0.738-10.683,0.057-13.782
		c-1.095-4.986-1.142-9.923-1.61-14.971c-0.493-5.316-0.064-10.695-0.482-16.02c-0.244-3.116-0.259-6.045,0.251-9.121
		c0.329-1.981,1.578-5.399,0.191-7.271C436.818,313.203,431.036,313.728,429.05,315.968z"/>
	<path style="fill:#A89B85;" d="M427.626,270.153c-1.394,4.834-0.695,11.441-0.711,16.44c-0.015,4.292-0.329,8.725,0.602,12.894
		c0.396,1.774,0.592,2.405,2.374,2.972c2.172,0.693,6.363,1.229,7.77-0.711c1.395-1.926,1.228-7.314,1.135-9.502
		c-0.121-2.841-0.501-5.729-0.737-8.564c-0.216-2.588-0.351-5.255,0.013-7.787c0.324-2.248,0.618-3.368-0.528-5.518
		c-0.822-1.539-1.77-3.075-3.503-3.56c-1.108-0.31-2.956-0.022-4.046,0.261C427.599,267.701,427.532,268.779,427.626,270.153z"/>
	<path style="fill:#A89B85;" d="M427.151,224.813c-0.474,6.259-1.127,12.495-1.192,18.802c-0.026,2.51,0.103,4.972,0.223,7.459
		c0.039,0.806-0.338,2.782,0.139,3.532c0.984,1.546,9.057,2.725,11.198,1.605c3.114-1.627,0.434-12.191,0.072-15.28
		c-0.321-2.739-0.575-5.449-0.209-8.171c0.238-1.772,0.842-3.611,0.698-5.438c-0.122-1.555-0.559-3.312-1.789-4.151
		C433.321,221.15,430.754,223.121,427.151,224.813z"/>
	<path style="fill:#A89B85;" d="M426.52,174.032c0.106,8.143,0.145,16.289-0.094,24.452c-0.097,3.309-0.905,7.763,0.033,11.021
		c0.493,1.714,0.893,1.99,2.49,2.63c1.357,0.543,5.012,1.141,6.342,0.347c1.879-1.122,0.656-4.984,0.471-6.833
		c-0.347-3.481-0.17-6.507-0.087-9.971c0.083-3.454-0.388-6.865,0.989-10.201c0.649-1.572,2.121-2.322,3.156-3.562
		c1.511-1.811,1.236-1.665,0.6-3.823c-0.962-3.267-1.111-7.408-3.413-10.09c-1.444-1.683-2.919-2.574-3.685-4.847
		c-1.577-4.679,0.331-10.794,1.613-15.38c0.921-3.294,1.798-6.563,5.745-7.002c2.71-0.302,7.805,1.198,10.217-0.631
		c3.402-2.58-1.401-3.916-3.446-4.105c-4.412-0.407-8.958-0.18-13.339-0.256c-2.995-0.051-6.437-0.256-7.74,2.873
		c-0.892,2.142-0.16,4.419-0.167,6.628C426.178,154.881,426.396,164.456,426.52,174.032z"/>
	<path style="fill:#A89B85;" d="M456.823,149.089c-2.373,13.489,0.634,28.039,1.199,41.592c0.204,4.887,0.71,9.767,0.699,14.666
		c-0.003,1.557-0.557,4.374,0.475,5.699c0.95,1.221,4.087,0.696,5.416-0.699c0.933-0.98,0.788-2.957,0.933-4.215
		c0.502-4.386,0.532-8.921,0.533-13.331c0.001-5.782-0.461-11.544-0.478-17.325c-0.014-4.587,0.342-9.319-0.169-13.882
		c-0.318-2.842-1.16-5.506-1.255-8.38c-0.059-1.811,0.339-3.68,0.248-5.441c-0.105-2.034-0.657-3.616-2.663-4.393
		C456.406,141.306,456.829,148.373,456.823,149.089z"/>
	<path style="fill:#A89B85;" d="M458.248,224.576c-0.365,7.265-0.063,14.567-0.497,21.829c-0.146,2.446-1.622,8.573,0.261,10.478
		c8.472-1.674,8.548-10.97,9.499-18.465c0.357-2.817,2.017-13.605-1.007-15.717C463.888,220.877,460.123,224.098,458.248,224.576z"
		/>
	<path style="fill:#A89B85;" d="M458.723,267.78c0,9.879-0.826,19.637,0.243,29.469c0.068,0.631-0.106,2.906,0.22,3.312
		c0.467,0.58,0.827,0.049,1.188,0.264c1.515,0.9,3.974,1.093,5.363-0.196c2.316-2.151,1.609-7.16,1.832-10.091
		c0.487-6.372-0.054-13.133-0.567-19.504c-0.137-1.689,0.202-4.518-1.444-5.632C463.11,263.745,460.633,267.081,458.723,267.78z"/>
	<path style="fill:#A89B85;" d="M461.333,317.155c-0.373,13.044-0.719,26.866,1.246,39.806c0.569,3.749,0.73,7.49,0.902,11.266
		c0.08,1.746-0.503,3.582,0.008,5.235c0.807,2.609,2.103,1.816,4.482,0.842c3.912-1.603,2.58-4.872,2.737-8.879
		c0.37-9.4-0.739-19.141-1.602-28.514c-0.589-6.396-1.074-12.716-2.029-19.05c-0.243-1.612,0.402-6.312-2.066-6.868
		C460.56,309.994,460.863,317.694,461.333,317.155z"/>
</g>
<g>
	<path style="fill:#77675E;" d="M424.777,376.975c-7.504,0-14.835-0.583-22.274,0.29c-5.926,0.695-14.404,1.083-16.222,7.729
		c-2.92,10.667-4.11,20.969-4.469,32.023c-0.155,4.776-0.583,9.536-0.71,14.319c-0.074,2.819-0.776,6.207,0.8,8.801
		c2.591,4.267,8.445,3.874,12.841,4.024c6.141,0.21,12.265-0.548,18.406-0.484c5.285,0.056,10.53,0.788,15.826,0.722
		c20.106-0.25,40.087-1.017,60.193-1.788c4.147-0.16,8.91,0.615,12.974-0.244c3.915-0.827,8.329-6.546,5.622-10.303
		c-2.194-3.046-8.199-3.243-11.441-3.817c-7.491-1.325-15.005-1.888-22.592-2.346c-14.3-0.861-34.469-0.962-44.023-13.479
		c-3.728-4.883-5.752-10.378-3.919-16.488c1.293-4.312,4.484-7.236,6.695-11.001C436.488,378.119,430.259,377.632,424.777,376.975z"
		/>
	<path style="fill:#77675E;" d="M58.024,375.313c-4.038,0.953-8.837-0.008-12.955,0.002c-5.583,0.014-11.139-0.476-16.728-0.477
		c-5.139-0.001-12.328-1.045-16.257,3.077c-3.531,3.706-4.918,10.996-5.982,15.858c-2.204,10.076-3.168,21.513-2.649,31.814
		c0.332,6.569,2.753,13.155,9.154,15.926c4.849,2.098,9.613,2.07,14.698,2.656c4.952,0.57,9.685,0.966,14.699,1.173
		c5.873,0.242,11.751,0.196,17.625,0.06c8.126-0.188,15.968-1.11,24.064-0.509c7.139,0.531,14.255,0.547,21.407,0.315
		c5.518-0.179,10.232,1.674,15.83,0.015c3.188-0.945,7.791-4,5.898-8.068c-1.554-3.34-8.294-4.126-11.404-4.597
		c-7.613-1.154-15.331-1.207-22.995-1.837c-14.399-1.182-33.581-3.173-36.523-20.618c-0.977-5.789,2.002-10.651,4.85-15.446
		c1.941-3.268,5.412-6.514,6.408-10.272c0.583-2.201-0.361-5.102-1.929-6.788C63.417,375.648,60.02,375.893,58.024,375.313z"/>
</g>
<g>
	<path style="fill:#846C5B;" d="M45.913,111.446c-0.832,6.692-5.941,14.123-7.173,21.251c-0.443,2.563-2.069,9.25,1.228,10.455
		c0.866,0.317,5.355-0.226,6.15-0.67c2.616-1.459,1.387-9.852,1.387-12.714c-0.002-4.913,0.358-9.756,0.529-14.641
		c0.059-1.684,0.261-3.586-0.748-5.02C46.855,110.137,46.486,110.318,45.913,111.446z"/>
	<path style="fill:#846C5B;" d="M72.966,90.759c-3.989,14.666-9.712,28.919-13.692,43.441c2.744,1.116,6.221,0.497,9.181,0.778
		c1.473,0.139,3.475,0.945,4.727-0.175c1.591-1.421,1.185-6.413,1.301-8.153c0.581-8.744,1.857-17.968,1.269-26.709
		c-0.248-3.666-0.629-8.8-1.967-12.162C73.113,88.06,72.333,88.565,72.966,90.759z"/>
	<path style="fill:#846C5B;" d="M97.101,111.977c-1.56,8.862-7.123,16.537-9.222,25.189c-1.037,4.274-2.896,7.884,2.876,7.435
		c1.67-0.13,5.999-0.361,7.359-1.389c1.411-1.067,1.711-4.562,2.04-6.258c1.065-5.48,1.209-11.128,1.449-16.68
		C101.719,117.557,102.687,113.525,97.101,111.977z"/>
	<path style="fill:#846C5B;" d="M45.383,210.107c-0.162,3.364-0.195,7.072-1.107,10.304c-1.894,0.492-9.926,1.466-10.814-0.329
		c-0.387-0.78,0.677-6.238,1.41-6.946C36.411,211.652,43.174,211.177,45.383,210.107z"/>
	<path style="fill:#846C5B;" d="M66.6,213.025c0.106,1.944,0.389,5.865-0.311,7.675c-1.08,2.791-3.051,1.764-5.604,1.63
		c-1.832-0.096-4.568,0.694-5.501-1.065c-0.788-1.487,0.411-6.027,0.582-7.668C59.098,212.797,62.902,213.291,66.6,213.025z"/>
	<path style="fill:#846C5B;" d="M96.04,211.169c0.666,1.792,0.73,7.157-0.532,8.757c-1.619,2.054-5.569,1.419-7.902,2.62
		c-1.066-2.226-1.231-7.502-0.087-9.718C89.063,209.842,93.801,209.889,96.04,211.169z"/>
	<path style="fill:#846C5B;" d="M43.526,253.604c1.705,2.573,0.273,7.134,0.225,10.057c-2.783,0.186-6.687-1.853-9.056,0.458
		c-0.723-1.782-1.695-6.935-0.729-8.671C35.019,253.556,42.106,252.694,43.526,253.604z"/>
	<path style="fill:#846C5B;" d="M68.457,257.317c0.195,3.491,1.061,8.863-2.634,9.274c-2.735,0.305-5.832-0.462-8.649-0.316
		c-1.468,0.076-2.802,0.232-4.053-0.518c-0.146-1.328,0.246-7.365,1.221-8.466c0.703-0.794,0.382-0.512,1.52-0.73
		c1.156-0.221,3.188,0.736,4.5,0.78C62.832,257.425,65.253,257.016,68.457,257.317z"/>
	<path style="fill:#846C5B;" d="M96.305,253.339c0,2.409,0.962,6.903-1.085,8.467c-0.889,0.68-3.577,0.982-4.727,1.621
		c-1.038,0.577-1.892,1.302-3.025,1.747c-0.06-3.435,0.662-7.459,1.187-11.006C91.445,253.897,94.272,252.878,96.305,253.339z"/>
	<path style="fill:#846C5B;" d="M43.262,300.548c1.122,1.49,1.067,9.034-0.266,10.368c-1.35,1.352-6.483,1.41-8.458,2.07
		c0.435-2.726,0.139-6.101,0.768-8.772C36.181,300.5,40.624,300.851,43.262,300.548z"/>
	<path style="fill:#846C5B;" d="M66.336,303.73c1.131,2.754,1.196,8.823-2.22,10.337c-4.006,1.776-7.732-1.204-11.532-0.823
		c-0.122-2.174-0.955-7.504,0.72-9.107c1.01-0.966,2.007-0.265,3.529-0.156C60.991,304.278,65.338,303.28,66.336,303.73z"/>
	<path style="fill:#846C5B;" d="M96.04,298.691c1.468,2.142,1.273,10.254-0.332,12.704c-2.457-1.77-6.59,0.251-9.183,1.061
		c-0.116-2.613-0.769-6.465-0.167-8.927c0.257-1.047-0.413-1.19,0.373-1.92c0.363-0.337,2.29-0.369,2.949-0.508
		C92.2,300.571,94.657,299.748,96.04,298.691z"/>
	<path style="fill:#846C5B;" d="M412.446,112.507c2.12,4.675,0.189,13.665-0.065,18.855c-0.213,4.361,0.499,8.48,0.556,12.686
		c-3.442-2.579-10.344,2.027-10.573-4.749c-0.071-2.077,1.337-4.73,1.949-6.678c0.955-3.038,1.395-6.187,2.285-9.237
		C407.651,119.777,408.908,114.747,412.446,112.507z"/>
	<path style="fill:#846C5B;" d="M438.968,88.637c1.292,3.082-0.356,8.233-0.609,11.47c-0.389,4.973-0.187,10.01-0.186,14.997
		c0,5.559,0.769,10.943,1.06,16.438c0.133,2.515,0.145,3.707-1.994,3.908c-3.477,0.326-7.161-1.614-10.43-2.031
		c0.474-7.712,2.67-16.295,4.468-23.862C432.977,102.402,433.65,94.498,438.968,88.637z"/>
	<path style="fill:#846C5B;" d="M465.755,111.711c0,8.864-1.376,17.696-0.523,26.541c0.181,1.875,1.09,4.244-0.803,5.085
		c-0.898,0.399-4.094-0.076-5.152-0.197c-4.457-0.51-2.933-7.106-2.277-10.783c0.652-3.649,1.313-7.586,2.391-11.118
		C460.398,117.945,462.1,112.226,465.755,111.711z"/>
	<path style="fill:#846C5B;" d="M416.425,210.638c0.119,2.148-0.156,4.816-0.531,6.914c-0.348,1.95,0.021,1.677-1.722,2.635
		c-2.776,1.525-6.321,1.867-9.119,3.426c0.79-3.562,0.04-7.645,0.273-11.337C408.927,211.399,412.157,209.872,416.425,210.638z"/>
	<path style="fill:#846C5B;" d="M441.355,213.555c1.125,1.579,0.899,4.171,0.537,6.046c-0.429,2.224-0.183,1.946-1.904,2.706
		c-1.479,0.653-10.5,2.453-11.642,1.603c-1.451-1.081-0.636-6.775-0.188-8.439c0.233-0.866,0.063-1.858,0.884-2.43
		c0.624-0.436,2.976,0.245,3.825,0.259C436.221,213.36,439.583,213.011,441.355,213.555z"/>
	<path style="fill:#846C5B;" d="M466.285,212.23c1.326,1.494,0.806,6.788-0.79,8.156c-1.901,1.63-5.099,1.112-6.921,3.429
		c0.071-2.801-0.742-6.451,0.018-9.095C459.429,211.812,463.372,211.278,466.285,212.23z"/>
	<path style="fill:#846C5B;" d="M414.568,252.013c0.107,3.229,0.463,7.775-0.305,10.832c-3.108,0.624-6.994,2.658-10.005,2.652
		c0.542-3.432-0.364-7.611,0.768-10.909c0.442-1.286-0.059-1.279,1.164-2.147C408.078,251.098,413.884,250.966,414.568,252.013z"/>
	<path style="fill:#846C5B;" d="M439.233,256.256c2.214,1.366,1.746,7.623,0.107,9.292c-1.781,1.814-5.723,1.346-7.989,1.635
		c-1.302,0.165-3.051,1.187-4.053,0.091c-0.216-0.236-0.099-5.224-0.193-5.776c-0.373-2.188-1.131-3.318,0.569-4.911
		C430.778,253.679,438.545,256.021,439.233,256.256z"/>
	<path style="fill:#846C5B;" d="M467.612,253.604c0,3.261,0.204,6.561,0.225,9.767c-2.472,0.962-5.471,2.427-8.083,1.981
		c0.902-2.333-0.074-4.721,0.184-7.079C460.316,254.812,463.25,254.29,467.612,253.604z"/>
	<path style="fill:#846C5B;" d="M414.302,298.956c0.937-0.536,0.753,4.069,0.802,5.264c0.082,2.008,0.063,4.097-0.046,6.094
		c-2.84,0.677-6.033,2.071-8.937,2.128c-0.18-3.276-1.292-6.726-1.041-9.926C405.475,297.469,411.189,297.602,414.302,298.956z"/>
	<path style="fill:#846C5B;" d="M442.15,303.465c-2.01,1.544,0.923,7.164-0.995,9.566c-1.12,1.403-5.186,1.236-7.104,1.309
		c-1.326,0.05-5.28,0.547-6.202-0.685c-1.175-1.568-0.809-8.594-0.24-10.421C430.946,303.126,434.282,302.58,442.15,303.465z"/>
	<path style="fill:#846C5B;" d="M467.612,300.812c0.456,1.155,2.006,8.39,0.808,9.67c-0.371,0.396-5.541,1.505-6.337,1.7
		c-0.536-2.339,0.129-4.581,0.237-6.984c0.045-0.994-0.593-1.764-0.034-2.603C462.925,301.637,467.556,300.919,467.612,300.812z"/>
</g>
<path style="fill:#A89B85;" d="M250.161,160.287c-0.694,2.844-1.954,5.539-2.678,8.403c-0.452,1.786-0.714,4.314-1.948,5.792
	c-1.285,1.539-4.36,2.551-6.195,3.392c-3.087,1.415-4.529,0.412-5.148,4.244c-0.96,5.935-0.953,11.622-0.16,17.573
	c0.11,0.823-0.161,3.224,0.518,3.903c0.825,0.823,3.542,0.276,4.493,0.251c5.246-0.133,10.818-0.073,16.023,0.386
	c3.188,0.281,9.252,0.588,10.897-2.986c2.64-5.738-12.134-5.617-14.886-7.737c-6.524-5.026,0.034-14.631,1.238-20.571
	c0.638-3.147,1.53-6.423,1.757-9.63C254.215,161.301,252.969,157.897,250.161,160.287z"/>
<path d="M75.702,165.594c7.336-0.99,4.222-14.317,3.218-18.742c-1.52-6.695-8.128-8.679-12.733-3.267
	c-2.128,2.502-2.917,6.053-3.147,9.261c-0.124,1.734-0.332,3.884-0.096,5.871c-0.334,2.388-0.374,5.023,1.62,6.111
	c1.324,0.722,3.068,0.39,4.508,0.394C71.206,165.225,73.588,165.879,75.702,165.594z M65.91,159.972
	c-0.111-0.379-0.157-0.82-0.187-1.277c0.167-2.329,0.218-4.653,0.549-6.992c0.347-2.459,0.834-5.129,2.767-6.876
	c4.51-4.076,6.259-0.17,7.003,3.858c0.608,3.289,1.742,9.678-1.031,11.923c-1.551,1.255-4.543,1.073-6.668,0.837
	C66.914,161.287,66.415,161.718,65.91,159.972z"/>
<path d="M73.116,202.559c1.206,0.031,2.63,0.267,3.746-0.362c0.962-0.541,1.337-1.462,1.417-2.522
	c0.127-1.688,0.379-3.514,0.354-5.218c-0.031-2.145-0.697-4.199-1.306-6.235c-0.451-1.505-0.751-3.269-2.004-4.341
	c-1.821-1.559-4.964-1.402-6.873-0.144c-3.082,2.032-4.532,5.222-5.061,8.704c-1.029,1.677-0.456,4.584-0.47,6.297
	c-0.023,2.952,1.306,3.684,4.22,4.023C69.114,202.992,71.121,202.509,73.116,202.559z M67.498,199.122
	c-2.863-1.134-1.282-6.259-0.675-8.379c0.594-2.077,3.486-6.287,6.079-4.579c1.562,1.029,2.103,5.909,2.087,7.845
	c-0.007,0.848-0.08,4.351-0.52,4.887C74.382,198.999,67.932,199.293,67.498,199.122z"/>
<path d="M69.32,249.636c2.164-0.225,5.779,1.269,6.998-1.29c1.423-2.988,0.484-7.823,0.527-11.063
	c0.035-2.67-0.286-5.501-2.881-6.875c-2.239-1.187-5.495-1.282-7.473,0.419c-2.93,2.52-2.967,6.043-3.352,9.529
	c-0.111,0.999-0.156,1.884-0.121,2.719c-0.331,1.544-0.403,3.116,0.13,4.713C64.154,250.805,66.909,249.886,69.32,249.636z
	 M66.326,239.911c0.244-2.755,0.118-7.135,4.049-7.331c4.327-0.216,3.369,3.9,3.202,6.434c-0.161,2.422,0.856,6.305-2.11,7.135
	c-1.555,0.436-4.843,0.419-5.406-1.255c-0.055-0.165-0.096-0.337-0.14-0.508C65.984,242.881,66.192,241.427,66.326,239.911z"/>
<path d="M67.702,294.019c1.71,0.005,3.496,0.402,5.199,0.103c2.381-0.418,2.33-1.798,2.502-3.86c0.264-3.164,0.794-6.57,0.671-9.75
	c-0.078-1.993-0.811-4.506-2.64-5.619c-1.769-1.077-4.572-0.59-6.338,0.288c-3.765,1.871-4.885,6.582-4.834,10.442
	c0.026,2.03,0.31,4.265,1.133,6.141C64.378,294.008,65.306,294.012,67.702,294.019z M65.957,283.043
	c0.61-2.391,0.942-4.705,3.616-5.384c3.054-0.776,3.628,1.757,3.457,4.28c-0.114,1.683-0.521,3.313-0.616,5.002
	c-0.066,1.182-0.202,2.22-0.436,3.386c-0.017,0.087-0.031,0.162-0.044,0.233c-0.007-0.005-0.014-0.011-0.023-0.014
	c-1.583-0.296-3.346-0.339-4.946-0.362c-0.278-0.005-0.731-0.019-1.229,0c-0.055-1.136-0.472-2.248-0.455-3.412
	C65.3,285.504,65.646,284.259,65.957,283.043z"/>
<path d="M63.506,353.845c2.441,0.308,7.946,0.343,10.045-1.157c2.58-1.844,2.02-5.431,2.034-8.176
	c0.018-3.54,0.108-7.072,0.133-10.61c0.03-4.329,0.442-9.709-3.753-12.27c-2.801-1.71-7.172-1.725-9.948,0.165
	c-3.124,2.129-3.236,7.178-3.514,10.508c-0.167,1.998-0.27,4.06-0.309,6.14c-0.592,3.116-1.978,8.557-0.636,11.524
	C58.58,352.22,61.053,353.536,63.506,353.845z M62.396,330.876c0.373-3.352,0.85-6.386,4.865-6.88
	c5.351-0.658,5.28,5.935,5.05,9.905c-0.207,3.545-0.426,7.06-0.586,10.61c-0.203,4.47-0.327,5.123-4.201,4.774
	c-2.196-0.197-4.23,0.137-5.61-1.058C62.343,342.473,61.753,336.653,62.396,330.876z"/>
<path d="M510.809,407.904c-0.585-7.933-2.736-15.248-3.843-23.063c-1.069-7.549-3.156-10.593-11.113-11.785
	c-4.462-0.669-8.906-0.508-13.355-0.226c0.08-0.207,0.151-0.422,0.177-0.672c0.616-5.889,0.015-11.47,0.049-17.38
	c0.029-4.96-0.013-9.901-0.265-14.853c-0.511-10.058-0.772-20.065-1.449-30.108c-0.628-9.314,0.025-18.718-0.081-28.072
	c-0.106-9.316-0.517-18.663-0.782-27.971c-0.268-9.412,0.324-18.591,0.647-27.993c0.29-8.428-0.464-17.135-1.158-25.549
	c-0.647-7.844-0.164-15.675-0.908-23.536c-0.85-8.989-1.253-18.154-1.731-27.163c-0.429-8.088-1.044-15.133-3.6-22.858
	c-1.441-4.357-2.945-9.236-4.992-13.641c-0.621-1.645-1.169-3.293-1.512-4.953c-0.026-0.127-0.07-0.246-0.122-0.359
	c0.044-0.442,0.049-0.91,0.046-1.438c-0.01-1.551,0.185-3.081,0.208-4.629c0.047-3.139-0.512-6.219-0.375-9.412
	c0.079-1.852-2.871-2.258-3.238-0.438c-1.053,5.206-0.767,10.538-0.735,15.83c-1.508,1.454-1.945,4-2.619,5.967
	c-1.182,3.456-1.754,7.016-2.66,10.54c-0.918,3.576-2.249,6.194-2.724,9.562c-0.507-1.824-1.029-3.583-1.417-5.162
	c-1.377-5.601-3.545-10.806-5.329-16.254c-1.895-5.787-2.664-11.878-4.4-17.706c-0.802-2.693-1.182-6.561-3.343-8.517
	c0.183-0.767,0.267-1.579,0.3-2.407c0.169-1.107,0.346-2.178,0.366-2.532c0.099-1.727-0.065-3.478-0.123-5.206
	c-0.001-0.018-0.001-0.037-0.002-0.056c0.332-3.248,0.796-6.554,0.524-9.746c-0.121-1.418-1.628-2.598-3-1.722
	c-2.572,1.644-1.627,7.25-1.584,9.769c0,0.035,0.002,0.071,0.003,0.106c-0.389,3.15-0.718,6.354-0.233,9.278
	c-0.095,0.897-0.149,1.787-0.079,2.663c-2.232,2.793-3.464,7.001-4.32,10.347c-1.497,5.855-2.673,11.67-3.779,17.598
	c-1.261,6.761-2.847,14.714-4.025,21.629c-1.487-4.105-2.822-8.267-4.578-12.272c-1.945-4.435-3.231-9.391-5.333-13.797
	c0.541-2.426,0.193-4.952,0.159-7.424c-0.006-0.41-0.006-0.82-0.007-1.23c0.01-0.091,0.017-0.18,0.027-0.273
	c0.246-2.152,0.446-4.743,0.022-6.876c-0.338-1.698-2.582-1.657-3.415-0.446c-1.006,1.464-0.556,3.632-0.553,5.304
	c0.003,2.927,0.25,6.023-0.006,8.979c-1.363,1.499-1.411,4.336-2.113,6.144c-1.094,2.82-2.247,5.628-3.224,8.495
	c-2.272,6.655-4.252,13.368-4.766,20.43c-0.048,0.67,0.154,1.167,0.491,1.511c-0.046,2.803,0.106,5.625,0.078,8.42
	c-0.057,5.438,0.251,10.819,0.195,16.245c-0.049,4.733,0.062,9.456,0.183,14.178c-3.294,0.008-7.193-0.993-10.159-1.203
	c-4.063-0.288-8.177-0.219-12.254-0.273c-9.704-0.129-19.352-0.493-29.064-0.563c-4.502-0.032-9.22-0.414-13.703-0.098
	c-1.035,0.073-1.967,0.201-2.738,0.537c-2.242-0.343-5.051,0.333-7.016,0.278c-2.637-0.074-6.291-0.654-8.327,1.541
	c-0.217,0.234-0.396,0.502-0.557,0.786c-3.186-0.653-6.5-0.314-9.791-0.159c-4.478,0.211-8.989,0.292-13.479,0.201
	c-6.354-0.13-13.899-1.351-20.614-0.617c0.414-2.875,0.094-6.574-1.543-8.647c-2.597-3.292-6.622,0.102-9.059-3.911
	c-2.987-4.918-1.64-16.356-10.628-15.089c-9.639,1.359-3.841,16.977-11.282,20.075c-2.511,1.045-5.604-1.177-7.784,0.891
	c-1.512,1.434-1.513,4.096-1.154,6.465c-4.97,0.11-10.058,0.743-14.551,0.834c-4.491,0.091-9.001,0.01-13.479-0.201
	c-3.289-0.155-6.604-0.494-9.791,0.159c-0.161-0.283-0.339-0.551-0.557-0.786c-2.037-2.195-5.69-1.614-8.327-1.541
	c-1.965,0.055-4.774-0.622-7.016-0.278c-0.771-0.335-1.705-0.464-2.738-0.537c-4.483-0.316-9.201,0.066-13.703,0.098
	c-9.712,0.07-19.359,0.435-29.064,0.563c-4.077,0.054-8.19-0.015-12.254,0.273c-2.967,0.21-6.865,1.211-10.159,1.203
	c0.121-4.721,0.232-9.445,0.183-14.178c-0.056-5.426,0.252-10.808,0.195-16.245c-0.029-2.795,0.123-5.617,0.078-8.42
	c0.335-0.343,0.539-0.841,0.491-1.511c-0.513-7.063-2.495-13.775-4.766-20.43c-0.978-2.866-2.131-5.673-3.224-8.495
	c-0.702-1.808-0.75-4.645-2.113-6.144c-0.257-2.956-0.01-6.053-0.006-8.979c0.002-1.673,0.453-3.841-0.553-5.304
	c-0.832-1.211-3.076-1.251-3.415,0.446c-0.424,2.132-0.225,4.724,0.022,6.875c0.01,0.091,0.017,0.181,0.027,0.273
	c-0.001,0.41-0.001,0.82-0.007,1.23c-0.034,2.474-0.382,5,0.159,7.424c-2.102,4.405-3.388,9.362-5.333,13.797
	c-1.757,4.004-3.091,8.166-4.578,12.272c-1.179-6.915-2.765-14.868-4.025-21.629c-1.106-5.928-2.283-11.743-3.779-17.598
	c-0.856-3.346-2.088-7.554-4.32-10.347c0.072-0.876,0.016-1.766-0.079-2.663c0.485-2.923,0.156-6.128-0.233-9.278
	c0.001-0.035,0.002-0.071,0.003-0.106c0.043-2.52,0.988-8.126-1.584-9.769c-1.371-0.876-2.879,0.303-3,1.722
	c-0.273,3.192,0.192,6.498,0.524,9.746c0,0.018-0.001,0.038-0.001,0.056c-0.058,1.729-0.222,3.479-0.123,5.206
	c0.021,0.354,0.197,1.425,0.366,2.532c0.033,0.827,0.118,1.64,0.3,2.407c-2.161,1.958-2.541,5.826-3.343,8.517
	c-1.735,5.828-2.504,11.919-4.4,17.706c-1.784,5.448-3.952,10.653-5.329,16.254c-0.388,1.579-0.91,3.337-1.417,5.162
	c-0.476-3.368-1.805-5.987-2.724-9.562c-0.906-3.524-1.478-7.084-2.66-10.54c-0.673-1.967-1.11-4.514-2.619-5.967
	c0.033-5.292,0.318-10.624-0.735-15.83c-0.367-1.819-3.318-1.414-3.238,0.438c0.137,3.194-0.422,6.273-0.375,9.412
	c0.024,1.549,0.218,3.078,0.208,4.629c-0.003,0.527,0,0.996,0.046,1.438c-0.052,0.113-0.096,0.233-0.122,0.359
	c-0.342,1.66-0.891,3.308-1.512,4.953c-2.047,4.405-3.551,9.284-4.992,13.641c-2.556,7.726-3.171,14.77-3.6,22.858
	c-0.478,9.009-0.881,18.175-1.731,27.163c-0.744,7.861-0.261,15.692-0.908,23.536c-0.694,8.414-1.448,17.119-1.158,25.549
	c0.323,9.402,0.916,18.58,0.647,27.993c-0.265,9.308-0.675,18.655-0.782,27.971c-0.106,9.356,0.547,18.759-0.081,28.072
	c-0.677,10.043-0.938,20.05-1.449,30.108c-0.252,4.952-0.293,9.895-0.265,14.853c0.034,5.91-0.567,11.492,0.049,17.38
	c0.026,0.251,0.098,0.467,0.177,0.672c-4.449-0.283-8.892-0.443-13.355,0.226c-7.957,1.192-10.044,4.236-11.113,11.785
	c-1.107,7.815-3.257,15.129-3.843,23.063c-0.666,9.014-1.601,17.975-0.995,27.023c0.207,3.079,0.359,6.085,2.741,8.331
	c2.41,2.274,5.416,1.846,8.487,2.062c7.929,0.558,15.585,1.059,23.561,0.839c0.786-0.022,1.603-0.024,2.437-0.018
	c6.707,1.694,14.703,0.954,21.394,0.469c9.243-0.672,18.442,1.044,27.705,0.605c9.467-0.448,18.836,0.406,28.329,0.384
	c6.111-0.014,14.946,2.206,17.116-5.1c1.795-6.043,1.632-13.352,1.934-19.634c0.148-3.082-0.031-6.243-0.371-9.422
	c18.796-4.251,38.035-7.082,57.045-10.192c10.041-1.643,20.062-3.348,30.121-4.838c6.098-0.904,12.795-1.205,19.175-2.244
	c4.39-0.201,8.912-0.864,12.887-0.864c4.014,0,8.878,0.261,13.191-0.456c8.075,2.231,17.247,2.362,25.359,3.564
	c10.059,1.49,20.08,3.195,30.121,4.838c19.01,3.11,38.249,5.941,57.045,10.192c-0.34,3.179-0.52,6.34-0.371,9.422
	c0.303,6.282,0.139,13.591,1.934,19.634c2.17,7.306,11.005,5.086,17.116,5.1c9.492,0.023,18.863-0.833,28.329-0.384
	c9.264,0.439,18.462-1.277,27.705-0.605c6.692,0.486,14.688,1.227,21.394-0.469c0.834-0.006,1.651-0.003,2.437,0.018
	c7.975,0.22,15.631-0.281,23.561-0.839c3.07-0.216,6.078,0.212,8.487-2.062c2.381-2.247,2.534-5.252,2.741-8.331
	C512.41,425.879,511.476,416.919,510.809,407.904z M478.777,373.077c-1.423,0.095-2.846,0.184-4.271,0.24
	c-2.849,0.112-5.787,0.265-8.695,0.309c0.148-2.41-0.075-4.866-0.102-7.262c-0.052-4.699-0.748-9.406-0.802-14.109
	c-0.112-9.872-1.195-19.729-1.503-29.6c-0.087-2.79-0.195-5.582-0.296-8.372c1.245-0.758,2.328-1.667,4.257-1.618
	c2.744,0.07,6.225,0.75,8.89,1.888c0.072,1.702,0.14,3.406,0.179,5.114c0.196,8.576,0.364,17.183,0.492,25.769
	c0.078,5.246-0.391,10.585-0.005,15.816c0.28,3.773,0.213,7.925,1.64,11.463C478.619,372.856,478.705,372.957,478.777,373.077z
	 M469.632,265.572c1.661,0.155,3.326,0.702,4.993,1.133c-0.217,4.306,0.219,8.618,0.297,12.92c0.088,4.895-0.225,9.848,0.103,14.736
	c0.138,2.063,0.278,4.122,0.418,6.182c-3.157-2.373-7.946-3.093-11.541-2.315c-0.504,0.11-0.966,0.298-1.413,0.518
	c-0.44-10.47-0.906-20.943-1.327-31.42C463.909,266.052,466.464,265.275,469.632,265.572z M460.985,262.895
	c-0.062-1.612-0.115-3.226-0.173-4.839c2.86-1.272,4.984-3.78,8.557-3.627c2.357,0.102,4.346,1.063,6.387,1.862
	c-0.262,2.146-0.528,4.293-0.766,6.449C470.761,260.95,465.233,261.176,460.985,262.895z M468.031,301.692
	c2.38,0.034,5.298,0.871,7.621,2.047c0.171,2.629,0.335,5.258,0.469,7.89c-1.972-0.977-4.429-1.718-4.751-1.781
	c-2.73-0.54-5.722-1.191-8.423-0.132c-0.081-2.108-0.178-4.217-0.264-6.326C464.215,302.438,465.617,301.658,468.031,301.692z
	 M477.158,238.173c0.031,5.028-0.443,9.98-1.02,14.925c-3.809-2.148-8.461-2.994-12.611-1.335c-1.212,0.485-2.081,1.037-2.884,1.535
	c-0.316-9.585-0.544-19.174-0.604-28.763c0.337,0.005,0.674-0.078,0.973-0.257c4.943-2.978,10.233-1.457,15.428-0.072
	C476.802,228.855,477.129,233.506,477.158,238.173z M476.144,220.422c-4.894-2.365-11.504-2.382-16.116,0.076
	c-0.002-1.881-0.025-3.764-0.014-5.646c1.434-0.63,2.704-1.557,4.295-1.956c2.342-0.588,4.615-0.369,6.942,0.096
	c1.033,0.207,2.783,0.86,4.46,1.3C475.834,216.336,475.986,218.379,476.144,220.422z M475.457,210.182
	c-4.748-1.69-11.67-2.135-15.389,0.234c0.011-0.913,0.017-1.827,0.032-2.739c0.185-10.718-0.647-21.36-1.241-32.013
	c0.488-0.199,0.889-0.54,1.535-0.897c1.348-0.745,3.048-1.172,4.567-1.312c2.099-0.194,4.377-0.034,6.319,0.81
	c0.362,0.157,0.705,0.34,1.043,0.531c-0.042,4.063-0.013,8.131,0.422,12.245C473.565,194.825,474.904,202.388,475.457,210.182z
	 M458.168,140.484c0.193-4.061,1.114-7.366,2.462-11.113c1.057-2.935,1.64-6.205,2.337-9.244c0.143-0.62,0.736-4.646,1.449-7.267
	c0.73,2.832,1.245,5.763,2.429,8.451c1.845,4.191,3.891,9.057,4.886,13.497c0.471,2.103,0.533,4.664,0.477,7.212
	c-2.081-0.455-4.281-0.432-6.401-0.694c-2.518-0.31-5.136,0.215-7.682,0.576C458.136,141.43,458.147,140.958,458.168,140.484z
	 M464.576,145.106c2.606,0.087,5.065,0.521,7.52,0.06c-0.048,1.082-0.098,2.126-0.124,3.084c-0.12,4.323,0.122,8.704,0.323,13.032
	c0.164,3.543,0.115,7.056,0.064,10.565c-3.975-2.244-9.744-2.091-13.681,0.157c-0.258-5.24-0.434-10.487-0.357-15.749
	c0.052-3.632-0.155-7.267-0.209-10.901C460.114,145.839,462.398,145.033,464.576,145.106z M458.298,324.149
	c0.485,9.083,1.363,18.251,1.435,27.343c0.055,7.009,1.851,14.93,1.084,22.065c-6.969-0.387-13.882-0.003-20.834,0.42
	c-2.878,0.176-5.764,0.285-8.655,0.363c0.896-6.136-0.1-12.926-0.389-18.945c-0.395-8.226-0.824-16.473-0.844-24.735
	c-0.013-4.929-0.107-9.855-0.235-14.779c3.603,0.242,7.571-0.197,10.66-0.351c3.717-0.185,7.457-0.581,11.192-0.677
	c1.925-0.05,4.159,0.38,6.279,0.488C458.055,318.278,458.142,321.214,458.298,324.149z M457.916,311.528
	c-1.423-0.193-2.947-0.623-3.995-0.657c-7.171-0.237-16.654,2.298-24.175,0.835c-0.07-2.353-0.144-4.705-0.221-7.057
	c5.055,0.237,10.172,0.262,15.233,0.264c3.548,0.001,7.006,0.266,10.535,0.453c0.844,0.044,1.685,0.094,2.508,0.042
	C457.844,307.448,457.881,309.488,457.916,311.528z M457.448,295.575c0.111,1.945,0.185,3.89,0.245,5.836
	c-0.079,0.023-0.153,0.057-0.234,0.076c-1.716,0.405-3.71-0.342-5.469-0.447c-2.404-0.145-4.823-0.075-7.233-0.074
	c-4.203,0.001-8.321-0.364-12.495-0.479c-1.034-0.029-1.967,0.041-2.871,0.065c-0.191-5.832-0.374-11.663-0.484-17.497
	c-0.088-4.667-0.156-9.334-0.21-14.001c3.419,0.305,7.271-0.12,10.255-0.197c5.283-0.138,10.575-0.074,15.871-0.179
	c0.558-0.011,1.156-0.007,1.758-0.027C456.558,277.632,456.938,286.628,457.448,295.575z M428.662,264.711
	c-0.022-2.243-0.027-4.486-0.043-6.729c4.449,0.936,9.843-0.104,14.219,0.204c3.598,0.253,7.16-0.038,10.762,0.128
	c0.867,0.04,1.921,0.163,2.996,0.23c0,2.218,0.005,4.436-0.013,6.653c-0.464-0.098-0.925-0.183-1.378-0.225
	c-2.656-0.244-5.374-0.065-8.039-0.117c-5.782-0.114-11.587,0.343-17.371-0.023C429.408,264.807,429.031,264.766,428.662,264.711z
	 M456.597,254.745c-0.28,0.015-0.57,0.021-0.889,0.008c-4.305-0.168-8.582-0.047-12.872-0.284
	c-4.081-0.227-9.691,0.884-13.568-0.066c-0.225-0.056-0.451-0.136-0.674-0.215c-0.051-8.637-0.081-17.277-0.087-25.918
	c0-1.174-0.01-2.347-0.014-3.521c5.381,0.873,11.054,0.24,16.488,0.159c3.514-0.052,7.569,0.451,11.143-0.31
	C456.375,234.647,456.56,244.697,456.597,254.745z M456.051,221.529c-3.552-0.738-7.565-0.242-11.07-0.293
	c-5.433-0.081-11.119-0.715-16.501,0.161c-0.011-2.427-0.046-4.849-0.066-7.274c0.025,0.009,0.043,0.026,0.071,0.034
	c5.482,1.603,12.122,0.633,17.806,0.567c2.931-0.034,6.514,0.398,9.554-0.364C455.913,216.749,455.988,219.138,456.051,221.529z
	 M455.764,211.539c-3.765-0.304-7.478-0.634-11.313-0.679c-5.14-0.059-10.999-0.864-15.968,0.589
	c-0.037,0.01-0.06,0.033-0.095,0.046c-0.089-9.505-0.214-19.005-0.381-28.516c-0.047-2.684-0.023-5.363,0.018-8.039
	c0.123,0.084,0.252,0.165,0.408,0.224c4.381,1.646,10.919,1.041,15.621,0.99c3.163-0.033,7.235,0.084,10.715-0.492
	C455.048,187.614,455.42,199.576,455.764,211.539z M432.115,117.224c0.966-4.786,1.585-9.599,2.679-14.364
	c0.851-3.705,1.131-8.993,3.332-12.548c0.519,1.498,0.833,3.626,1.079,4.419c0.875,2.82,1.523,5.624,2.192,8.49
	c0.945,4.05,2.053,8.214,3.545,12.092c2.323,6.036,4.009,12.281,5.881,18.439c-2.55-0.636-5.285-0.476-7.943-0.526
	c-4.445-0.083-8.952-0.416-13.382-0.367C430.423,127.634,431.091,122.304,432.115,117.224z M428.733,136.812
	c7.243,1.458,15.634,0.729,23.02-0.072c0.808,2.53,1.667,5.036,2.643,7.496c-0.015,2.603-0.016,5.207-0.001,7.815
	c0.04,6.779,0.16,13.562,0.305,20.347c-3.538-0.606-6.726-0.473-10.644-0.527c-5.031-0.07-10.778-1.596-15.621,0.224
	c-0.006,0.002-0.009,0.006-0.015,0.008c-0.112-0.108-0.22-0.218-0.338-0.323c0.089-4.23,0.203-8.458,0.213-12.694
	c0.009-3.456-0.388-6.818-0.51-10.263c-0.037-1.023-0.34-2.71-0.581-4.433c0.191-0.3,0.14-0.739-0.127-0.971
	c-0.007-0.063-0.016-0.127-0.024-0.189C427.724,141.145,428.266,138.996,428.733,136.812z M424.569,334.896
	c-0.04,13.086,2.148,26.48,0.956,39.56c-5.464,0.076-10.934,0.087-16.376,0.2c-0.201,0.005-0.408,0.005-0.613,0.006
	c-1.316-5.606-0.37-12.277-0.297-17.926c0.075-5.794-0.484-11.763-0.826-17.554c-0.494-8.328-0.451-16.746-0.331-25.155
	c1.921-0.196,3.769-1.22,5.657-1.646c2.024-0.458,3.717-0.468,5.828-0.282c2.733,0.241,3.041,1.288,5.737,2.531
	C424.389,321.384,424.588,328.12,424.569,334.896z M407.044,266.502c1.99-1.478,6.136-1.926,8.262-1.913
	c3.31,0.019,5.179,1.482,7.586,2.761c0.066,6.064,0.246,12.117,0.677,18.137c0.322,4.503,0.477,9.1,0.565,13.696
	c-0.75-0.551-1.365-1.204-2.309-1.676c-3.958-1.978-10.462-2.915-14.544-0.361c0.001-0.469,0.009-0.939,0.009-1.407
	C407.282,285.99,407.173,276.246,407.044,266.502z M423.178,220.126c-2.873-1.274-6.771-1.295-9.451-1.093
	c-2.447,0.185-4.908,0.52-6.923,1.686c-0.006-2.366-0.01-4.733-0.029-7.1c0.926,0.031,2.021-0.387,2.724-0.633
	c4.441-1.553,9.272-1.844,13.748-0.235C423.219,215.208,423.199,217.666,423.178,220.126z M423.595,184.968
	c-0.097,8.111-0.217,16.201-0.313,24.296c-2.354-0.911-5.167-1.23-7.283-1.33c-3.286-0.156-6.203,1.237-9.253,2.114
	c-0.034-3.775-0.074-7.551-0.116-11.325c-0.084-7.622-0.569-15.21-0.879-22.819c0.956-0.321,1.488-0.9,2.515-1.64
	c2.147-1.546,4.477-2.609,7.164-2.753c3.078-0.165,5.719,0.981,8.409,1.944C423.738,177.288,423.64,181.126,423.595,184.968z
	 M406.755,233.626c0.034-2.737,0.043-5.477,0.049-8.215c0.041-0.021,0.09-0.025,0.129-0.05c2.945-1.862,5.278-2.663,8.936-2.692
	c2.393-0.019,4.891,0.478,7.283,1.017c-0.016,2.595-0.03,5.19-0.032,7.791c-0.003,6.527-0.107,13.087-0.184,19.653
	c-0.392-0.212-0.784-0.412-1.172-0.575c-4.344-1.822-10.782-2.362-14.794,0.487C406.932,245.231,406.682,239.398,406.755,233.626z
	 M406.971,254.205c3.863-0.993,7.613-1.81,11.658-0.775c1.539,0.395,2.914,1.143,4.264,1.937c-0.022,2.517-0.035,5.035-0.031,7.551
	c-2.889-1.173-5.736-2.378-9.308-2.01c-2.032,0.209-4.491,0.548-6.565,1.431c-0.024-1.781-0.043-3.561-0.068-5.342
	C406.947,256.067,406.963,255.136,406.971,254.205z M424.255,309.737c-6.057-2.598-11.112-1.741-17.119,0.56
	c0.046-2.933,0.087-5.862,0.116-8.785c0.407-0.089,0.799-0.306,1.106-0.704c3.345-4.348,11.251,0.249,14.347,2.15
	c0.558,0.342,1.038,0.609,1.504,0.827C424.23,305.777,424.244,307.764,424.255,309.737z M408.328,124.272
	c0.728-2.841,1.723-5.73,2.753-8.471c0.122-0.324,0.529-1.859,0.962-3.305c1.645,3.854,2.773,8.056,4.435,11.851
	c2.532,5.78,4.279,11.833,6.232,17.816c-2.528-0.355-5.146-0.281-7.698-0.31c-3.243-0.038-6.788-0.743-10.051-0.313
	C405.729,135.73,406.872,129.959,408.328,124.272z M415.012,146.083c2.979-0.068,6.027,0.052,8.929-0.534
	c0.05,4.224,0.227,8.457,0.201,12.672c-0.024,3.672-0.106,7.339-0.199,11.006c-5.847-2.496-13.875-2.389-18.364,1.621
	c-0.031-1.201-0.057-2.402-0.072-3.605c-0.08-6.991,0.049-14.42-0.68-21.576C408.141,146.32,411.663,146.159,415.012,146.083z
	 M423.894,379.849c7.05-0.018,14.109-0.829,21.147-0.904c3.165-0.033,6.441-0.057,9.718-0.196
	c9.936,2.195,21.835-1.306,31.524-0.283c3.385,0.358,6.688-0.014,10.075,0.673c4.013,0.814,5.373,2.196,6.249,5.385
	c-7.36-0.85-15.215,0.436-22.498,0.59c-9.833,0.209-19.6-0.043-29.434-0.082c-11.815-0.046-23.647-0.46-35.423,0.099
	c-5.719,0.272-11.423,0.45-17.137,0.702c-3.234,0.143-6.62-0.073-9.885,0.112c0.803-2.097,2.196-3.81,5.004-4.848
	c3.044-1.126,7.694-0.655,10.923-0.519C410.669,380.852,417.334,379.866,423.894,379.849z M337.105,195.903
	c-0.121-2.026-0.229-4.017-0.282-6.043c-0.014-0.518-0.418-2.979-0.209-3.539c-0.022-0.215-0.044-0.382-0.067-0.523
	c1.085,0.076,2.171,0.107,3.26,0.075c1.956,0.022,3.914,0.003,5.87,0.005c4.948,0.003,9.898-0.003,14.846-0.059
	c9.005-0.102,18.089-0.006,27.115,0.041c3.894,0.021,9.641,1.142,13.822-0.098c0.119,4.647,0.224,9.293,0.172,13.948
	c-0.017,1.541-0.031,3.084-0.047,4.626c-2.393-0.345-4.776-0.298-7.252-0.349c-3.911-0.081-7.755-0.718-11.669-0.72
	c-6.789-0.005-13.5,0.507-20.271,0.905c-8.707,0.513-17.472,0.285-26.229,0.184C337.25,201.657,337.283,198.859,337.105,195.903z
	 M320.663,195.923c0.083-1.41,0.358-2.778,0.42-4.19c0.054-1.233-0.454-3.814,0.217-4.871c1.146-1.807,5.625-0.736,7.651-0.946
	c0.796-0.082,1.628-0.187,2.454-0.309c-0.021,2.314,0.638,5.247,0.736,7.241c0.179,3.649-0.597,8.048,0.575,11.478
	c-3.892-0.024-7.78,0-11.661,0.145C320.807,201.646,320.494,198.766,320.663,195.923z M272.688,188.661
	c3.301,0.313,6.727,0.015,9.995,0.013c3.896-0.002,7.746,0.371,11.624,0.359c6.856-0.021,15.328,0.673,22.361-1.051
	c-0.122,2.119,0.09,4.378-0.078,5.964c-0.378,3.584-0.26,7.113,0.169,10.672c-12.718,0.381-25.362-0.552-38.087-0.819
	c-1.471-0.031-2.952-0.082-4.437-0.14c-0.284-0.039-0.569-0.07-0.853-0.105c0.317-3.568-0.685-6.937-0.747-10.499
	C272.612,191.702,272.799,190.137,272.688,188.661z M235.623,181.008c1.173-2.067,1.648-0.937,3.472-1.176
	c2.096-0.276,3.312-0.534,5.153-1.888c1.745-1.284,2.663-2.734,3.376-4.759c1.076-3.057,0.64-10.541,3.324-12.681
	c7.223-5.762,5.974,12.21,9.058,14.963c1.025,0.914,2.373,1.422,3.663,1.843c4.129,1.346,7.115,0.694,5.341,5.895
	c-6.138-0.256-12.223-0.063-18.359,0.241c-3.529,0.175-7.057,0.282-10.589,0.395c-1.532-0.258-3.127-0.377-4.745-0.429
	C235.324,182.401,235.369,181.454,235.623,181.008z M268.196,195.318c0.108,1.83,0.399,3.567,0.227,5.4
	c-0.083,0.883-0.132,1.607-0.084,2.346c-4.078-0.276-8.202-0.302-12.34-0.201c-6.143-0.152-12.263-0.034-18.235,0.793
	c-0.268,0.01-0.534,0.016-0.803,0.025c0.256-1.446,0.27-2.984,0.324-4.235c0.151-3.496-0.228-7.12-0.543-10.666
	c0.373-0.007,0.748-0.005,1.12-0.022c4.271,0.026,8.508,0.113,12.785-0.08c5.031-0.227,10.044-0.544,15.076-0.288
	c1.004,0.051,2.132,0.105,3.311,0.14c-0.104,0.333-0.201,0.649-0.253,0.917C268.393,191.429,268.077,193.293,268.196,195.318z
	 M195.41,193.946c-0.167-1.586,0.046-3.845-0.078-5.964c7.034,1.724,15.505,1.03,22.361,1.051c3.527,0.01,7.033-0.285,10.571-0.339
	c1.289,0.062,2.585,0.071,3.884,0.068c0.2,3.368,0.822,6.724,0.974,10.092c0.071,1.557-0.212,3.291-0.167,4.953
	c-12.601,0.277-25.121,1.187-37.715,0.809C195.669,201.058,195.788,197.529,195.41,193.946z M179.86,192.849
	c0.098-1.993,0.756-4.928,0.736-7.241c0.826,0.121,1.658,0.226,2.454,0.309c2.026,0.21,6.506-0.861,7.651,0.946
	c0.67,1.057,0.163,3.637,0.217,4.871c0.062,1.411,0.337,2.779,0.42,4.19c0.169,2.844-0.144,5.723-0.392,8.55
	c-3.879-0.145-7.769-0.17-11.661-0.145C180.457,200.897,179.681,196.498,179.86,192.849z M190.794,210.623
	c13.911,0.369,27.649-0.443,41.555-0.671c7.945-0.131,15.806-0.395,23.65-0.908c7.844,0.513,15.705,0.777,23.651,0.908
	c13.906,0.229,27.645,1.039,41.555,0.671c14.935-0.396,30.059,0.495,44.939-0.751c6.638-0.556,13.418-1.176,20.092-0.979
	c4.542,0.135,10.684,0.985,15.308-0.731c-0.025,2.805-0.033,5.609-0.046,8.412c-11.127-2.41-22.864-0.9-34.158-1.028
	c-13.444-0.152-26.849,1.017-40.291,1.011c-13.625-0.005-27.088,0.172-40.709-0.357c-9.916-0.386-20.243-1.276-30.343-1.132
	c-10.1-0.144-20.427,0.746-30.343,1.132c-13.621,0.529-27.083,0.353-40.709,0.357c-13.442,0.005-26.846-1.163-40.29-1.011
	c-11.293,0.127-23.032-1.383-34.158,1.028c-0.014-2.805-0.022-5.609-0.047-8.412c4.623,1.716,10.766,0.865,15.308,0.731
	c6.675-0.197,13.454,0.423,20.093,0.979C160.735,211.118,175.859,210.227,190.794,210.623z M110.54,185.76
	c4.179,1.241,9.928,0.119,13.822,0.098c9.027-0.047,18.112-0.143,27.115-0.041c4.948,0.056,9.898,0.063,14.846,0.059
	c1.956-0.001,3.915,0.017,5.87-0.005c1.088,0.032,2.175,0.001,3.26-0.075c-0.024,0.141-0.046,0.309-0.067,0.523
	c0.209,0.56-0.195,3.021-0.209,3.539c-0.054,2.025-0.161,4.016-0.282,6.043c-0.177,2.955-0.144,5.754,0.94,8.45
	c-8.757,0.103-17.521,0.33-26.229-0.184c-6.771-0.398-13.482-0.909-20.271-0.905c-3.914,0.002-7.757,0.639-11.669,0.72
	c-2.475,0.051-4.859,0.005-7.252,0.349c-0.016-1.541-0.03-3.084-0.047-4.626C110.317,195.055,110.422,190.407,110.54,185.76z
	 M109.526,360.567c-0.16-6.735,0.204-13.523,0.573-20.248c0.771-14.055,0.17-28.304,0.16-42.388
	c-0.011-14.947-0.187-29.885-0.428-44.83c0.589-5.828,0.56-11.844,0.628-17.426c0.066-5.374,0.072-10.75,0.057-16.125
	c3.438,0.812,7.576,0.047,10.925,0.16c7.08,0.238,14.097,0.515,21.186,0.524c14.129,0.018,28.203,1.055,42.322,1.06
	c13.942,0.005,27.729,0.113,41.668-0.342c7.372-0.241,14.743-0.669,22.12-0.667c1.564,0,3.149,0.038,4.737,0.067
	c0.613,0.016,1.225,0.026,1.839,0.027c0.229,0.002,0.458,0,0.687,0.001c0.229-0.001,0.459,0.001,0.687-0.001
	c0.614-0.001,1.227-0.011,1.839-0.027c1.589-0.03,3.172-0.066,4.737-0.067c7.378-0.002,14.748,0.426,22.12,0.667
	c13.939,0.455,27.727,0.347,41.668,0.342c14.12-0.005,28.193-1.042,42.322-1.06c7.088-0.009,14.105-0.285,21.186-0.524
	c3.349-0.113,7.486,0.653,10.925-0.16c-0.015,5.376-0.008,10.751,0.057,16.125c0.068,5.582,0.039,11.598,0.628,17.426
	c-0.241,14.944-0.416,29.883-0.428,44.83c-0.011,14.084-0.612,28.334,0.16,42.388c0.369,6.724,0.732,13.513,0.573,20.248
	c-0.097,4.104-0.727,9.632,0.208,14.02c-4.198-0.057-8.539,0.064-12.236,1.504c-3.26-0.577-7.98-1.321-8.774-1.402
	c-5.723-0.585-11.511-0.566-17.255-0.825c-11.904-0.536-24.043,0.218-35.892-0.956c-11.937-1.182-24.168,0.21-36.074-0.55
	c-6.025-0.384-12.064,0.365-18.081,0.385c-6.112,0.019-12.304-0.171-18.372,0.639c-6.068-0.81-12.259-0.621-18.372-0.639
	c-6.017-0.018-12.056-0.769-18.081-0.385c-11.905,0.76-24.137-0.633-36.074,0.55c-11.848,1.174-23.987,0.419-35.89,0.956
	c-5.744,0.259-11.532,0.238-17.255,0.825c-0.794,0.081-5.514,0.826-8.774,1.402c-3.696-1.44-8.037-1.561-12.236-1.504
	C110.253,370.2,109.623,364.672,109.526,360.567z M386.045,379.205c-0.972,1.214-1.705,2.656-2.263,4.217
	c-2.998,0.011-6.709-1.418-9.527-1.709c-4.177-0.43-8.49-0.64-12.692-0.675c-11.048-0.094-22.284-0.701-33.31,0.052
	c-9.669,0.659-19.405-0.385-29.104-0.064c-5.733,0.189-11.47,0.195-17.205,0.34c-1.708,0.043-3.412,0.269-5.114,0.505
	c-2.889-0.654-5.887-0.265-8.977-0.333c-4.373-0.097-8.684-0.652-13.068-0.599c-4.176,0.049-8.302,0.6-12.483,0.646
	c-2.547,0.027-5.189-0.03-7.777,0.197c-1.487-0.201-2.976-0.379-4.469-0.416c-5.735-0.144-11.471-0.151-17.205-0.34
	c-9.699-0.321-19.436,0.723-29.104,0.064c-11.025-0.752-22.263-0.146-33.31-0.052c-4.203,0.035-8.516,0.244-12.692,0.675
	c-2.818,0.291-6.529,1.721-9.527,1.709c-0.558-1.561-1.29-3.003-2.263-4.217c1.003-0.081,2.002-0.176,2.988-0.228
	c5.604-0.299,11.199-0.144,16.797-0.448c12.236-0.666,24.703,0.251,36.891-0.853c11.931-1.082,24.136,0.497,36.008-0.483
	c12.414-1.025,24.947,1.272,37.36-0.414c12.413,1.686,24.946-0.61,37.36,0.414c11.871,0.98,24.077-0.599,36.008,0.483
	c12.188,1.104,24.655,0.188,36.891,0.853c5.599,0.305,11.193,0.149,16.797,0.448C384.042,379.031,385.042,379.124,386.045,379.205z
	 M95.523,124.347c1.661-3.796,2.789-7.998,4.435-11.851c0.431,1.448,0.84,2.981,0.962,3.305c1.03,2.742,2.025,5.63,2.753,8.471
	c1.456,5.687,2.599,11.458,3.367,17.269c-3.263-0.43-6.808,0.275-10.051,0.313c-2.552,0.03-5.17-0.044-7.698,0.31
	C91.244,136.182,92.991,130.129,95.523,124.347z M88.06,145.549c2.903,0.586,5.949,0.467,8.929,0.534
	c3.349,0.076,6.871,0.237,10.184-0.416c-0.73,7.156-0.6,14.585-0.68,21.576c-0.014,1.203-0.04,2.404-0.072,3.605
	c-4.489-4.011-12.516-4.118-18.364-1.621c-0.092-3.667-0.175-7.334-0.199-11.006C87.831,154.006,88.008,149.772,88.06,145.549z
	 M104.72,297.145c-4.081-2.555-10.585-1.618-14.544,0.361c-0.945,0.472-1.561,1.125-2.309,1.676
	c0.088-4.596,0.243-9.193,0.565-13.696c0.43-6.02,0.612-12.073,0.677-18.137c2.407-1.279,4.276-2.741,7.586-2.761
	c2.126-0.013,6.272,0.437,8.262,1.913c-0.129,9.744-0.238,19.488-0.246,29.236C104.71,296.206,104.719,296.676,104.72,297.145z
	 M88.755,212.75c4.476-1.609,9.307-1.318,13.748,0.235c0.703,0.246,1.797,0.664,2.724,0.633c-0.018,2.366-0.023,4.734-0.029,7.1
	c-2.015-1.166-4.477-1.503-6.923-1.686c-2.68-0.202-6.578-0.181-9.451,1.093C88.802,217.666,88.781,215.208,88.755,212.75z
	 M98.446,260.908c-3.571-0.367-6.419,0.837-9.308,2.01c0.005-2.516-0.009-5.034-0.031-7.551c1.351-0.794,2.725-1.543,4.264-1.937
	c4.046-1.036,7.795-0.218,11.658,0.775c0.008,0.931,0.024,1.862,0.05,2.791c-0.025,1.781-0.045,3.562-0.07,5.342
	C102.937,261.456,100.478,261.117,98.446,260.908z M105.028,251.043c-4.012-2.85-10.45-2.31-14.794-0.487
	c-0.388,0.163-0.779,0.363-1.172,0.575c-0.075-6.565-0.179-13.126-0.184-19.653c-0.002-2.6-0.016-5.196-0.032-7.791
	c2.393-0.539,4.891-1.036,7.283-1.017c3.658,0.029,5.992,0.829,8.936,2.692c0.039,0.025,0.088,0.029,0.129,0.05
	c0.006,2.738,0.015,5.477,0.049,8.215C105.318,239.398,105.069,245.231,105.028,251.043z M96.002,207.934
	c-2.115,0.1-4.929,0.42-7.283,1.33c-0.096-8.095-0.217-16.184-0.313-24.296c-0.046-3.843-0.144-7.68-0.245-11.515
	c2.69-0.962,5.329-2.109,8.409-1.944c2.687,0.144,5.017,1.207,7.164,2.753c1.026,0.739,1.559,1.319,2.515,1.64
	c-0.308,7.609-0.793,15.199-0.877,22.819c-0.042,3.774-0.081,7.55-0.116,11.325C102.204,209.171,99.287,207.778,96.002,207.934z
	 M87.792,303.784c0.467-0.218,0.947-0.485,1.504-0.827c3.095-1.901,11.002-6.498,14.347-2.15c0.307,0.398,0.697,0.615,1.106,0.704
	c0.03,2.924,0.071,5.852,0.116,8.786c-6.007-2.302-11.062-3.159-17.119-0.56C87.757,307.764,87.77,305.777,87.792,303.784z
	 M87.432,334.896c-0.019-6.775,0.179-13.511,0.265-20.266c2.696-1.244,3.004-2.291,5.737-2.531c2.111-0.186,3.804-0.176,5.828,0.282
	c1.888,0.427,3.736,1.45,5.657,1.646c0.119,8.409,0.163,16.827-0.331,25.155c-0.342,5.79-0.901,11.759-0.826,17.554
	c0.073,5.649,1.019,12.32-0.297,17.926c-0.204-0.002-0.411-0.002-0.613-0.006c-5.442-0.113-10.912-0.124-16.376-0.2
	C85.284,361.375,87.471,347.981,87.432,334.896z M67.058,115.312c1.492-3.877,2.601-8.04,3.545-12.092
	c0.669-2.867,1.317-5.669,2.192-8.49c0.245-0.793,0.56-2.922,1.079-4.419c2.201,3.555,2.48,8.844,3.332,12.548
	c1.094,4.765,1.713,9.577,2.679,14.364c1.025,5.08,1.692,10.41,2.619,15.635c-4.43-0.049-8.938,0.284-13.384,0.367
	c-2.658,0.05-5.393-0.11-7.943,0.526C63.05,127.595,64.736,121.348,67.058,115.312z M57.605,152.05c0.016-2.607,0.014-5.212,0-7.815
	c0.976-2.46,1.835-4.967,2.642-7.496c7.387,0.802,15.777,1.531,23.02,0.072c0.468,2.184,1.01,4.332,1.678,6.417
	c-0.007,0.063-0.016,0.127-0.024,0.189c-0.266,0.232-0.317,0.671-0.127,0.971c-0.241,1.724-0.544,3.41-0.581,4.433
	c-0.121,3.446-0.519,6.808-0.51,10.263c0.01,4.238,0.124,8.465,0.213,12.694c-0.118,0.105-0.226,0.215-0.338,0.323
	c-0.006-0.002-0.009-0.006-0.015-0.008c-4.845-1.82-10.591-0.293-15.621-0.224c-3.918,0.054-7.106-0.08-10.644,0.527
	C57.446,165.612,57.565,158.829,57.605,152.05z M57.229,175.663c3.48,0.575,7.552,0.459,10.715,0.492
	c4.703,0.049,11.24,0.656,15.621-0.99c0.155-0.058,0.285-0.139,0.407-0.224c0.041,2.677,0.065,5.356,0.018,8.039
	c-0.167,9.51-0.292,19.01-0.381,28.516c-0.034-0.013-0.058-0.035-0.095-0.046c-4.968-1.452-10.828-0.648-15.968-0.589
	c-3.834,0.045-7.548,0.375-11.313,0.679C56.581,199.576,56.953,187.614,57.229,175.663z M56.156,214.36
	c3.041,0.762,6.623,0.33,9.555,0.364c5.684,0.066,12.324,1.036,17.806-0.567c0.027-0.008,0.046-0.025,0.071-0.034
	c-0.021,2.425-0.055,4.847-0.066,7.274c-5.383-0.876-11.067-0.242-16.501-0.161c-3.505,0.051-7.518-0.445-11.07,0.293
	C56.012,219.138,56.088,216.749,56.156,214.36z M55.877,224.598c3.574,0.761,7.629,0.258,11.143,0.31
	c5.434,0.081,11.107,0.714,16.488-0.159c-0.003,1.174-0.014,2.347-0.014,3.521c-0.006,8.643-0.035,17.281-0.087,25.918
	c-0.225,0.078-0.45,0.159-0.674,0.215c-3.877,0.95-9.487-0.16-13.568,0.066c-4.289,0.237-8.568,0.116-12.872,0.284
	c-0.318,0.013-0.609,0.006-0.889-0.008C55.442,244.697,55.625,234.647,55.877,224.598z M83.383,257.981
	c-0.016,2.243-0.023,4.487-0.043,6.729c-0.37,0.054-0.746,0.096-1.132,0.12c-5.785,0.366-11.588-0.091-17.371,0.023
	c-2.665,0.052-5.383-0.127-8.039,0.118c-0.452,0.041-0.914,0.127-1.378,0.225c-0.017-2.217-0.013-4.435-0.013-6.653
	c1.074-0.067,2.129-0.191,2.995-0.23c3.602-0.165,7.164,0.125,10.762-0.128C73.54,257.878,78.934,258.917,83.383,257.981z
	 M54.552,295.575c0.51-8.948,0.89-17.943,0.866-26.927c0.602,0.021,1.2,0.016,1.758,0.027c5.296,0.106,10.587,0.042,15.871,0.179
	c2.983,0.078,6.836,0.502,10.255,0.197c-0.054,4.668-0.121,9.334-0.21,14.001c-0.111,5.834-0.294,11.665-0.484,17.497
	c-0.904-0.024-1.837-0.094-2.871-0.065c-4.175,0.115-8.293,0.482-12.495,0.479c-2.41-0.001-4.829-0.071-7.233,0.074
	c-1.759,0.106-3.753,0.853-5.47,0.447c-0.081-0.019-0.155-0.054-0.234-0.076C54.368,299.466,54.441,297.521,54.552,295.575z
	 M54.199,305.408c0.823,0.052,1.664,0.003,2.508-0.042c3.53-0.187,6.986-0.452,10.535-0.453c5.061-0.001,10.179-0.026,15.233-0.264
	c-0.076,2.352-0.152,4.704-0.221,7.057c-7.522,1.462-17.005-1.074-24.175-0.835c-1.046,0.035-2.572,0.464-3.993,0.657
	C54.119,309.488,54.156,307.448,54.199,305.408z M60.288,314.853c3.734,0.097,7.475,0.492,11.192,0.677
	c3.089,0.153,7.057,0.593,10.66,0.351c-0.128,4.924-0.221,9.85-0.234,14.779c-0.022,8.263-0.45,16.509-0.844,24.735
	c-0.289,6.019-1.285,12.809-0.389,18.945c-2.892-0.078-5.779-0.187-8.655-0.363c-6.952-0.423-13.865-0.807-20.834-0.42
	c-0.767-7.136,1.029-15.056,1.084-22.065c0.072-9.092,0.95-18.26,1.435-27.343c0.156-2.935,0.243-5.87,0.308-8.807
	C56.13,315.233,58.364,314.803,60.288,314.853z M48.099,298.227c-3.594-0.778-8.384-0.058-11.541,2.315
	c0.139-2.059,0.28-4.118,0.418-6.182c0.327-4.888,0.015-9.841,0.103-14.736c0.078-4.301,0.515-8.614,0.297-12.92
	c1.667-0.431,3.333-0.978,4.993-1.133c3.167-0.297,5.723,0.479,8.469,1.754c-0.421,10.478-0.885,20.951-1.327,31.42
	C49.065,298.526,48.604,298.337,48.099,298.227z M49.318,303.389c-0.086,2.108-0.183,4.218-0.264,6.326
	c-2.702-1.059-5.693-0.407-8.423,0.132c-0.322,0.064-2.779,0.804-4.751,1.781c0.133-2.631,0.298-5.26,0.469-7.89
	c2.323-1.176,5.24-2.014,7.621-2.047C46.385,301.658,47.784,302.438,49.318,303.389z M37.01,262.739
	c-0.237-2.155-0.503-4.303-0.766-6.449c2.041-0.799,4.03-1.761,6.387-1.862c3.574-0.153,5.697,2.355,8.557,3.627
	c-0.058,1.613-0.112,3.226-0.173,4.839C46.768,261.176,41.24,260.95,37.01,262.739z M40.269,134.809
	c0.995-4.438,3.04-9.305,4.886-13.497c1.184-2.688,1.699-5.619,2.429-8.451c0.713,2.621,1.306,6.646,1.449,7.267
	c0.698,3.04,1.28,6.31,2.337,9.244c1.349,3.746,2.269,7.052,2.462,11.113c0.022,0.473,0.033,0.946,0.045,1.419
	c-2.547-0.362-5.164-0.887-7.682-0.576c-2.12,0.261-4.32,0.238-6.401,0.694C39.736,139.473,39.798,136.912,40.269,134.809z
	 M39.706,161.284c0.201-4.328,0.443-8.709,0.323-13.032c-0.026-0.958-0.076-2.002-0.124-3.084c2.455,0.461,4.914,0.026,7.52-0.06
	c2.178-0.073,4.462,0.732,6.465,0.25c-0.054,3.635-0.261,7.269-0.209,10.901c0.076,5.262-0.099,10.508-0.357,15.749
	c-3.937-2.249-9.706-2.401-13.681-0.157C39.591,168.34,39.542,164.827,39.706,161.284z M39.258,187.039
	c0.435-4.114,0.464-8.182,0.422-12.245c0.338-0.189,0.681-0.373,1.043-0.531c1.942-0.844,4.219-1.004,6.319-0.81
	c1.52,0.14,3.22,0.567,4.567,1.312c0.646,0.357,1.047,0.698,1.535,0.897c-0.594,10.653-1.426,21.295-1.241,32.013
	c0.016,0.913,0.021,1.827,0.032,2.739c-3.72-2.369-10.643-1.924-15.389-0.234C37.096,202.388,38.435,194.825,39.258,187.039z
	 M36.288,214.292c1.677-0.439,3.427-1.094,4.46-1.3c2.326-0.463,4.599-0.683,6.942-0.096c1.591,0.399,2.86,1.326,4.295,1.956
	c0.013,1.881-0.011,3.764-0.014,5.646c-4.612-2.459-11.223-2.443-16.116-0.076C36.014,218.379,36.166,216.336,36.288,214.292z
	 M35.56,224.206c5.196-1.385,10.487-2.906,15.428,0.072c0.299,0.18,0.636,0.261,0.973,0.257c-0.059,9.589-0.286,19.177-0.604,28.763
	c-0.803-0.497-1.673-1.05-2.884-1.535c-4.15-1.659-8.803-0.815-12.611,1.335c-0.577-4.945-1.05-9.897-1.02-14.925
	C34.871,233.506,35.2,228.855,35.56,224.206z M33.439,372.715c1.426-3.538,1.36-7.69,1.64-11.463
	c0.387-5.231-0.083-10.57-0.005-15.816c0.128-8.586,0.296-17.193,0.492-25.769c0.039-1.708,0.107-3.41,0.179-5.114
	c2.666-1.138,6.146-1.819,8.89-1.888c1.929-0.049,3.012,0.859,4.257,1.618c-0.1,2.791-0.209,5.582-0.296,8.372
	c-0.308,9.872-1.392,19.729-1.503,29.6c-0.054,4.702-0.75,9.411-0.802,14.109c-0.026,2.396-0.25,4.853-0.102,7.262
	c-2.908-0.044-5.846-0.196-8.695-0.309c-1.426-0.056-2.849-0.145-4.271-0.24C33.296,372.957,33.382,372.856,33.439,372.715z
	 M15.644,379.139c3.386-0.687,6.688-0.315,10.075-0.673c9.689-1.023,21.587,2.478,31.524,0.283c3.278,0.138,6.553,0.163,9.718,0.196
	c7.036,0.074,14.097,0.885,21.147,0.904c6.559,0.017,13.225,1.004,19.739,0.729c3.229-0.136,7.878-0.607,10.923,0.519
	c2.807,1.038,4.201,2.752,5.004,4.848c-3.265-0.185-6.652,0.031-9.885-0.112c-5.713-0.252-11.419-0.43-17.137-0.702
	c-11.777-0.559-23.608-0.146-35.423-0.099c-9.835,0.039-19.601,0.291-29.434,0.082c-7.283-0.155-15.138-1.441-22.498-0.59
	C10.272,381.334,11.632,379.953,15.644,379.139z M127.159,435.376c-0.16,1.737,0.296,4.049-0.634,5.62
	c-0.914,1.544-2.47,0.971-4.507,0.964c-4.437-0.015-8.876,0.018-13.313,0.03c-8.095,0.019-16.133-0.486-24.243-0.385
	c-8.554,0.106-17.111-1.297-25.646-0.633c-2.398,0.186-4.826,0.262-7.26,0.346c-4.833-0.343-9.67-0.754-14.538-0.871
	c-7.174-0.171-14.149-0.11-21.272-1.164c-2.591-0.383-5.884-0.131-7.74-1.991c-2.193-2.196-2.097-6.217-2.234-9.208
	c-0.364-8.005,0.047-16.066,0.636-24.051c0.407-5.519,1.253-11.002,2.326-16.44c7.32,1.235,14.996,1.367,22.426,1.522
	c10.069,0.212,20.105,0.002,30.168,0.076c11.482,0.084,23.089-0.28,34.517,0.511c5.693,0.394,11.419,0.493,17.112,0.77
	c3.971,0.194,7.932,0.648,11.854-0.023c0.099,0.672,0.195,1.357,0.301,2.054c1.188,7.818,2.236,15.826,2.993,23.708
	C128.711,422.577,127.739,429.05,127.159,435.376z M142.041,406.702c-2.84,0.788-6.132,1.423-9.035,2.605
	c-0.715-4.864-1.701-9.709-2.486-14.319c-0.311-1.828-0.567-4-0.961-6.218c2.107,2.723,4.803,5.198,7.222,7.427
	c3.433,3.162,6.901,6.19,10.409,9.229C145.467,405.816,143.746,406.228,142.041,406.702z M151.24,404.541
	c-3.988-3.959-8.54-7.236-12.674-11.038c-2.086-1.918-4.028-4.677-6.378-6.611c0.337,0.005,0.666,0.003,0.988-0.003
	c1.007-0.021,2.017-0.057,3.028-0.098c2.839,3.218,6.674,5.907,9.751,8.822c2.897,2.744,5.666,5.625,8.682,8.228
	C153.504,404.074,152.372,404.305,151.24,404.541z M157.557,401.584c-3.443-3.046-6.915-6.062-10.313-9.176
	c-1.814-1.662-4.077-4.057-6.517-5.833c2.102-0.111,4.204-0.226,6.298-0.302c7.046-0.257,14.278-0.324,21.477-0.213
	c-0.014,0.016-0.026,0.034-0.039,0.049c-1.893,2.215-3.141,4.841-5.028,7.052c-1.497,1.756-2.674,3.327-3.859,5.315
	C158.951,399.526,158.17,400.525,157.557,401.584z M159.995,402.713c2.248-2.672,4.108-5.634,6.33-8.368
	c1.575-1.937,2.673-4.166,4.317-6.055c0.636-0.731,1.301-1.423,1.907-2.156c1.64,0.043,3.273,0.095,4.903,0.156
	c-3.222,5.041-7.273,9.596-9.786,14.935C165.098,401.686,162.538,402.174,159.995,402.713z M189.051,397.727
	c-5.805,0.953-11.655,1.843-17.483,2.828c0.565-0.807,1.071-1.6,1.536-2.211c2.536-3.344,5.053-6.664,7.281-10.222
	c1.358,2.257,4.328,4.062,6.048,5.388c1.181,0.909,2.81,2.536,4.59,3.886C190.364,397.505,189.707,397.618,189.051,397.727z
	 M197.529,396.273c-1.115-0.712-2.371-1.158-3.439-1.957c-1.734-1.297-3.472-2.638-5.255-3.922
	c-1.587-1.142-3.223-2.115-4.737-3.356c-0.196-0.161-0.435-0.319-0.687-0.479c2.383,0.121,4.76,0.153,7.133,0.137
	c0.931,1.346,2.65,2.828,3.939,3.882c2.074,1.693,4.16,3.59,6.446,5.096C199.795,395.874,198.662,396.075,197.529,396.273z
	 M205.647,394.069c-1.106-0.751-2.368-1.329-3.477-2.078c-1.915-1.294-3.819-2.663-5.594-4.141c-0.526-0.438-1.02-0.842-1.511-1.237
	c5.858-0.163,11.706-0.488,17.594-0.438c-0.618,0.688-1.231,1.383-1.83,2.082c-1.131,1.324-2.422,2.444-3.574,3.747
	C206.714,392.617,206.194,393.362,205.647,394.069z M214.875,393.343c-1.806,0.274-3.612,0.561-5.417,0.86
	c0.767-0.743,1.48-1.481,2.11-2.015c1.407-1.192,2.591-2.744,3.853-4.097c0.599-0.643,1.247-1.277,1.867-1.928
	c1.133-0.014,2.265-0.035,3.399-0.058c-0.658,0.728-1.312,1.46-1.952,2.234C217.449,389.896,215.938,391.555,214.875,393.343z
	 M219.674,392.66c0.531-0.598,1.027-1.235,1.563-1.819c1.26-1.374,2.522-2.686,3.829-3.964c1.118,1.742,3.271,2.634,5.085,3.55
	c0.672,0.339,1.353,0.671,2.031,1.01C228.002,391.692,223.834,392.107,219.674,392.66z M239.047,391.173
	c-0.01,0-0.022,0-0.032,0.001c-1.286-1.536-4.023-2.592-5.28-3.189c-1.336-0.634-2.708-1.203-4.042-1.831
	c-0.121-0.057-0.228-0.123-0.345-0.184c0.647-0.005,1.293-0.021,1.94-0.017c1.209,0.006,2.35,0.056,3.463,0.079
	c1.093,0.123,2.205,0.177,3.321,0.204c1.658,1.246,3.691,2.241,4.91,2.976c0.555,0.334,1.224,0.835,1.961,1.374
	C242.974,390.707,240.999,390.888,239.047,391.173z M265.229,390.629c-4.413-0.467-8.812-0.248-13.341-0.245
	c-1.831-1.753-4.317-3.117-6.464-4.319c-0.031-0.017-0.064-0.033-0.096-0.05c3.23-0.223,6.429-0.515,9.456-0.527
	c4.644-0.019,10.303,1.047,15.574,1.063c-0.702,0.548-1.407,1.09-2.125,1.61C267.168,388.933,266.226,389.776,265.229,390.629z
	 M276.041,391.247c-2.073-0.068-4.15-0.083-6.23-0.047c0.33-0.308,0.661-0.617,0.988-0.923c1.358-1.268,2.64-2.629,3.888-4.009
	c0.428-0.065,0.851-0.141,1.266-0.233c1.519,0.022,3.076-0.074,4.759-0.082c0.966-0.005,1.932,0.015,2.898,0.025
	c-1.732,1.041-3.376,2.223-5.017,3.466C278.092,389.825,277.007,390.475,276.041,391.247z M281.208,391.512
	c0.454-0.423,0.903-0.842,1.345-1.24c1.104-0.993,1.996-2.209,3.002-3.294c0.236-0.256,0.483-0.499,0.731-0.739
	c1.552,1.471,3.008,3.003,4.477,4.604c0.536,0.584,1.031,1.22,1.563,1.819C288.628,392.169,284.922,391.773,281.208,391.512z
	 M297.125,393.343c-1.062-1.789-2.574-3.448-3.859-5.004c-0.64-0.774-1.293-1.507-1.951-2.234c1.133,0.023,2.266,0.044,3.399,0.058
	c0.62,0.652,1.266,1.285,1.867,1.928c1.261,1.354,2.445,2.905,3.853,4.097c0.63,0.534,1.343,1.272,2.11,2.015
	C300.737,393.904,298.932,393.617,297.125,393.343z M306.353,394.069c-0.547-0.706-1.067-1.451-1.609-2.064
	c-1.152-1.302-2.444-2.423-3.574-3.747c-0.599-0.699-1.211-1.394-1.83-2.082c5.887-0.05,11.737,0.275,17.594,0.438
	c-0.492,0.395-0.985,0.799-1.511,1.237c-1.775,1.476-3.68,2.847-5.594,4.141C308.721,392.741,307.46,393.319,306.353,394.069z
	 M314.472,396.273c-1.133-0.2-2.266-0.401-3.4-0.599c2.286-1.506,4.372-3.401,6.446-5.096c1.288-1.053,3.008-2.535,3.939-3.882
	c2.373,0.016,4.751-0.016,7.133-0.137c-0.253,0.16-0.492,0.318-0.688,0.479c-1.514,1.24-3.15,2.214-4.737,3.356
	c-1.783,1.284-3.522,2.623-5.255,3.922C316.843,395.116,315.586,395.561,314.472,396.273z M322.951,397.727
	c-0.657-0.108-1.313-0.22-1.97-0.331c1.78-1.351,3.408-2.977,4.589-3.886c1.721-1.326,4.689-3.131,6.048-5.388
	c2.228,3.559,4.744,6.878,7.281,10.222c0.463,0.612,0.971,1.405,1.536,2.211C334.606,399.569,328.756,398.679,322.951,397.727z
	 M344.336,401.225c-2.514-5.34-6.564-9.893-9.786-14.935c1.629-0.062,3.263-0.114,4.903-0.156c0.606,0.734,1.271,1.426,1.907,2.156
	c1.644,1.889,2.742,4.118,4.317,6.055c2.224,2.734,4.084,5.696,6.33,8.368C349.462,402.174,346.902,401.686,344.336,401.225z
	 M352.425,398.477c-1.185-1.988-2.362-3.56-3.859-5.315c-1.886-2.211-3.135-4.838-5.028-7.052c-0.013-0.016-0.025-0.034-0.039-0.049
	c7.198-0.11,14.43-0.043,21.477,0.213c2.094,0.076,4.197,0.191,6.298,0.302c-2.441,1.777-4.703,4.17-6.517,5.833
	c-3.398,3.114-6.87,6.129-10.313,9.176C353.83,400.525,353.051,399.526,352.425,398.477z M357.363,403.84
	c3.016-2.603,5.785-5.484,8.682-8.228c3.077-2.915,6.912-5.604,9.751-8.822c1.011,0.041,2.022,0.078,3.028,0.098
	c0.322,0.007,0.653,0.009,0.988,0.003c-2.35,1.934-4.292,4.693-6.378,6.611c-4.134,3.801-8.686,7.079-12.674,11.038
	C359.629,404.305,358.496,404.074,357.363,403.84z M381.481,394.986c-0.785,4.611-1.77,9.456-2.486,14.319
	c-2.904-1.182-6.197-1.815-9.035-2.605c-1.705-0.474-3.425-0.885-5.15-1.278c3.51-3.04,6.977-6.068,10.41-9.229
	c2.419-2.228,5.115-4.703,7.222-7.427C382.048,390.987,381.792,393.159,381.481,394.986z M506.23,428.086
	c-0.136,2.99-0.04,7.011-2.234,9.208c-1.856,1.86-5.149,1.608-7.74,1.991c-7.122,1.054-14.098,0.993-21.272,1.164
	c-4.87,0.116-9.705,0.527-14.538,0.871c-2.434-0.082-4.862-0.16-7.26-0.346c-8.534-0.664-17.092,0.739-25.647,0.633
	c-8.11-0.1-16.147,0.404-24.243,0.385c-4.437-0.011-8.876-0.043-13.313-0.03c-2.037,0.007-3.593,0.58-4.507-0.964
	c-0.93-1.571-0.476-3.884-0.634-5.62c-0.582-6.327-1.554-12.801-0.944-19.161c0.756-7.883,1.805-15.89,2.993-23.708
	c0.106-0.696,0.201-1.382,0.301-2.054c3.922,0.671,7.883,0.217,11.854,0.023c5.693-0.277,11.418-0.377,17.112-0.77
	c11.428-0.792,23.035-0.427,34.516-0.511c10.063-0.074,20.099,0.135,30.168-0.076c7.431-0.156,15.106-0.288,22.426-1.522
	c1.075,5.438,1.92,10.921,2.326,16.44C506.183,412.02,506.593,420.081,506.23,428.086z"/>
<path d="M436.298,165.594c2.114,0.285,4.497-0.367,6.63-0.372c1.44-0.002,3.184,0.329,4.508-0.394
	c1.994-1.088,1.954-3.723,1.619-6.111c0.236-1.988,0.029-4.137-0.096-5.871c-0.23-3.208-1.019-6.759-3.147-9.261
	c-4.605-5.412-11.213-3.429-12.733,3.267C432.077,151.277,428.962,164.602,436.298,165.594z M435.959,148.685
	c0.744-4.029,2.494-7.933,7.003-3.858c1.933,1.747,2.42,4.417,2.767,6.876c0.33,2.34,0.381,4.663,0.549,6.992
	c-0.03,0.456-0.076,0.898-0.187,1.277c-0.505,1.746-1.005,1.316-2.433,1.473c-2.125,0.235-5.116,0.419-6.668-0.837
	C434.216,158.364,435.351,151.975,435.959,148.685z"/>
<path d="M436.678,183.88c-1.253,1.073-1.553,2.836-2.004,4.341c-0.609,2.037-1.276,4.09-1.306,6.235
	c-0.025,1.703,0.227,3.531,0.354,5.218c0.08,1.061,0.456,1.981,1.417,2.522c1.116,0.628,2.54,0.391,3.746,0.362
	c1.996-0.05,4.003,0.434,5.978,0.204c2.914-0.339,4.242-1.071,4.22-4.023c-0.013-1.713,0.56-4.621-0.47-6.297
	c-0.529-3.483-1.98-6.672-5.061-8.704C441.642,182.478,438.499,182.321,436.678,183.88z M444.502,199.122
	c-0.434,0.172-6.883-0.122-6.969-0.227c-0.44-0.536-0.513-4.039-0.52-4.887c-0.016-1.935,0.525-6.816,2.087-7.845
	c2.592-1.708,5.483,2.503,6.079,4.579C445.784,192.863,447.364,197.987,444.502,199.122z"/>
<path d="M448.863,240.355c-0.385-3.487-0.421-7.009-3.352-9.529c-1.978-1.701-5.235-1.605-7.473-0.419
	c-2.595,1.376-2.916,4.206-2.881,6.876c0.043,3.24-0.896,8.075,0.527,11.063c1.219,2.559,4.833,1.066,6.998,1.29
	c2.41,0.25,5.166,1.169,6.173-1.848c0.533-1.597,0.461-3.171,0.13-4.713C449.018,242.238,448.972,241.355,448.863,240.355z
	 M445.939,244.895c-0.563,1.674-3.851,1.69-5.406,1.255c-2.964-0.831-1.949-4.713-2.11-7.135c-0.168-2.534-1.126-6.65,3.202-6.434
	c3.932,0.196,3.805,4.575,4.049,7.331c0.135,1.516,0.342,2.97,0.404,4.476C446.035,244.558,445.994,244.729,445.939,244.895z"/>
<path d="M444.905,275.182c-1.766-0.877-4.568-1.365-6.338-0.288c-1.829,1.112-2.563,3.626-2.64,5.619
	c-0.123,3.18,0.406,6.585,0.671,9.75c0.172,2.061,0.121,3.441,2.502,3.86c1.703,0.299,3.489-0.098,5.199-0.103
	c2.396-0.007,3.324-0.011,4.307-2.255c0.823-1.876,1.106-4.112,1.133-6.141C449.789,281.765,448.67,277.053,444.905,275.182z
	 M446.263,290.184c-0.497-0.019-0.95-0.005-1.229,0c-1.6,0.024-3.364,0.066-4.946,0.362c-0.009,0.001-0.016,0.008-0.023,0.014
	c-0.013-0.071-0.026-0.146-0.044-0.233c-0.234-1.166-0.37-2.204-0.436-3.386c-0.095-1.689-0.502-3.319-0.616-5.002
	c-0.17-2.524,0.403-5.056,3.457-4.28c2.674,0.679,3.006,2.993,3.616,5.384c0.31,1.217,0.657,2.462,0.674,3.73
	C446.735,287.937,446.318,289.048,446.263,290.184z"/>
<path d="M449.982,321.797c-2.777-1.892-7.148-1.877-9.948-0.165c-4.194,2.561-3.782,7.941-3.753,12.27
	c0.025,3.538,0.115,7.069,0.133,10.61c0.014,2.745-0.545,6.334,2.033,8.176c2.101,1.5,7.605,1.465,10.046,1.157
	c2.453-0.309,4.926-1.624,5.946-3.876c1.344-2.967-0.043-8.408-0.634-11.524c-0.04-2.08-0.144-4.141-0.31-6.14
	C453.218,328.975,453.106,323.926,449.982,321.797z M444.477,349.286c-3.874,0.348-3.998-0.303-4.201-4.774
	c-0.161-3.55-0.38-7.064-0.586-10.61c-0.23-3.969-0.301-10.563,5.05-9.905c4.015,0.494,4.491,3.527,4.865,6.88
	c0.642,5.777,0.054,11.597,0.482,17.351C448.706,349.422,446.673,349.087,444.477,349.286z"/>
<g>
</g>
<g>
</g>
<g>
</g>
<g>
</g>
<g>
</g>
<g>
</g>
<g>
</g>
<g>
</g>
<g>
</g>
<g>
</g>
<g>
</g>
<g>
</g>
<g>
</g>
<g>
</g>
<g>
</g>
</svg>
