<?xml version="1.0" encoding="iso-8859-1"?>
<!-- Generator: Adobe Illustrator 19.0.0, SVG Export Plug-In . SVG Version: 6.00 Build 0)  -->
<svg version="1.1" id="Layer_1" xmlns="http://www.w3.org/2000/svg" xmlns:xlink="http://www.w3.org/1999/xlink" x="0px" y="0px"
	 viewBox="0 0 511.999 511.999" style="enable-background:new 0 0 511.999 511.999;" xml:space="preserve">
<path style="fill:#3E4D68;" d="M416.174,183.492c0.54,0.569-4.008,5.054-4.56,5.515c-1.786,1.49-3.806,2.402-5.821,3.512
	c-4.457,2.456-10.217,2.505-15.099,4.202c-1.167,0.405-2.374,0.883-3.17,1.827c-1.06,1.258-1.153,3.054-1.046,4.695
	c0.23,3.527,1.47,6.788,1.827,10.276c0.354,3.461,1.08,6.889,1.716,10.306c29.712,23.341,43.738,38.886,52.497,58.61
	c-3.586,3.302-8.126,5.087-12.765,6.35c-4.577,1.246-8.77,2.579-13.546,2.82c-3.087,0.157-6.498,0.729-8.409,3.16
	c-2.219,2.822-1.469,6.582-1.654,9.862c-0.232,4.105,0.247,8.014,1.969,11.792c3.7,8.116,7.205,16.105,15.938,21.224
	c18.237,10.688,35.757,22.603,53.504,34.121c3.087,2.003,5.838,4.522,8.074,6.276c1.12,7.417-2.461,11.652-7.156,14.011
	c-5.213,2.618-10.511,5.062-15.834,7.447c-5.025,2.252-9.688,4.961-15.305,4.527c-2.432-0.187-5.353,0.047-6.582,2.154
	c-0.614,1.052-0.637,2.335-0.642,3.552c-0.078,16.02-2.38,31.848-1.902,47.968c0.507,17.136-7.398,27.172-23.514,31.05
	c-22.004,5.295-43.868,11.94-66.203,14.935c-60.931,8.173-122.172,8.351-183.095,0.03c-23.065-3.151-45.627-10.102-68.347-15.617
	c-14.327-3.478-21.606-12.672-21.639-27.731c-0.023-10.573-0.821-21.147-1.296-31.718c-0.302-6.708-0.649-13.413-1.031-21.247
	c-6.862-1.929-13.369-3.289-19.504-5.623c-5.619-2.138-10.937-5.152-16.207-8.1c-5.439-3.043-9.926-6.97-9.608-16.565
	c0.982-0.688,3.391-2.496,5.918-4.123c17.149-11.044,34.047-22.517,51.57-32.936c16.946-10.075,24.24-23.826,20.133-44.778
	c-11.076-3.495-22.414-7.073-33.681-10.628c3.47-17.517,18.595-35.114,52.837-61.501c0.456-7.108,0.978-15.249,1.555-24.217
	c-5.91-2.024-10.905-3.303-15.509-5.431c-4.605-2.127-8.818-5.101-15.036-8.791c4.967-4.606,8.095-8.866,12.295-11.169
	c20.528-11.257,41.231-22.211,62.091-32.845c17.812-9.08,33.074-21.115,45.325-36.894c5.064-6.524,10.258-12.866,12.06-21.467
	c0.863-4.119,3.283-8.745,6.458-11.387c9.241-7.688,10.319-15.871,4.328-25.918c-2.273-3.813-4.304-8.129-5.012-12.451
	c-1.344-8.192-0.642-18.607,6.368-24.285c3.655-2.961,9.761-4.958,14.377-5.675c5.956-0.925,11.934,0.431,17.039,3.602
	c8.251,5.127,12.386,17.682,9.207,28.337c-1.489,4.99-4.197,9.646-6.596,14.33c-3.572,6.971-2.899,13.951,2.859,18.584
	c4.808,3.869,7.258,9.352,9.524,14.928c1.932,4.756,2.327,10.42,6.122,14.225c3.935,3.944,6.862,8.85,10.546,13.137
	c7.723,8.987,16.987,16.575,27.117,22.697c12.914,7.805,26.509,14.484,39.825,21.621c12.648,6.778,25.474,13.242,37.9,20.403
	C410.928,176.533,413.359,180.528,416.174,183.492z"/>
<g>
	<path style="fill:#314056;" d="M222.865,94.547c-5.698,10.96-15.98,19.802-24.879,28.058
		c-11.607,10.77-26.399,17.668-40.182,25.182c-13.581,7.402-28.095,12.613-41.808,19.681c-5.826,3.003-15.066,6.89-18.558,12.664
		c2.957,0.283,6.256-1.621,9.082-2.496c7.612-2.357,15.311-4.431,22.947-6.691c19.578-5.793,39.92-8.251,59.965-11.711
		c37.748-6.516,75.929-3.964,113.779-0.365c28.591,2.718,59.818,4.278,86.984,14.236c3.547,1.3,12.398,6.068,15.983,4.271
		c4.673-2.341-7.885-6.962-9.921-7.984c-28.825-14.486-61.998-16.398-91.739-28.943c-7.866-3.319-16.842-6.688-22.039-13.885
		c-3.498-4.844-5.631-11.137-7.671-16.717c-2.59-7.08-5.061-15.109-13.044-17.416c-6.694-1.935-14.433-1.122-21.265-0.639
		C233.074,92.317,226.525,92.386,222.865,94.547z"/>
	<path style="fill:#314056;" d="M224.286,91.349c2.248-4.14,2.129-9.654,3.198-14.215c0.986-4.212,0.847-4.758,4.891-5.59
		c5.829-1.2,11.926-2.22,17.902-1.887c2.059,0.115,4.943-0.09,5.995,1.736c1.007,1.749-0.434,3.911,1.223,5.864
		c3.827,4.511,13.836,2.78,19.062,3.826c3.958,0.793,8.327,1.277,9.55,5.707c2.537,9.197-17.395,4.222-21.539,3.752
		c-8.204-0.931-16.857-0.024-25.064,0.531C237.476,91.209,222.561,95.314,224.286,91.349z"/>
	<path style="fill:#314056;" d="M125.834,226.409c-17.14,9.959-32.562,21.451-44.959,36.968c-3.883,4.86-9.135,9.79-11.116,15.831
		c-2.159,6.583,6.835,1.8,10.496,0.772c20.831-5.853,41.951-10.117,63.105-13.752c5.734-0.985,11.472-1.759,17.264-2.418
		c11.596-1.319,23.288-1.519,34.89-2.657c33.406-3.28,67.444-3.685,100.949-1.869c15.886,0.861,31.78,1.665,47.636,3.007
		c8.066,0.682,16.121,1.5,24.149,2.541c6.247,0.81,12.124,2.836,18.392,3.894c17.057,2.878,33.704,8.381,50.733,11.002
		c1.614,0.249,5.775,1.085,5.895-1.439c0.155-3.248-13.791-9.15-15.531-9.87c-35.342-14.601-74.709-17.206-112.346-20.604
		c-22.216-2.007-45.096-2.769-67.051-6.797c-12.075-2.215-26.84-4.697-27.599-19.456c-0.185-3.6,3.028-9.18-0.673-11.897
		c-2.688-1.973-9.082-0.373-12.037,0.033C179.966,213.557,150.082,214.369,125.834,226.409z"/>
	<path style="fill:#314056;" d="M102.022,332.68c-5.115,2.105-10.259,5.639-15.151,8.332c-7.136,3.928-14.623,7.541-21.507,11.856
		c-10.471,6.566-21.088,12.979-31.217,20.051c-4.458,3.113-13.433,11.493-2.57,11.309c11.906-0.202,23.374-3.238,35.024-5.305
		c11.499-2.04,23.459-1.532,35.1-2.004c31.167-1.262,62.399-3.235,93.486-3.918c9.353-0.205,17.726-2.488,27.168-2.262
		c13.731,0.328,27.288,2.102,40.834,2.102c9.275,0,18.545,0.4,27.808,0.365c16.641-0.064,33.315,0.923,49.939,1.393
		c15.276,0.431,30.557,0.134,45.836,0.098c14.127-0.034,27.905,1.259,41.971,2.606c14.597,1.398,29.249,3.014,43.532,5.926
		c4.922,1.003,17.467,1.06,8.165-5.74c-7.167-5.239-18.075-6.918-26.482-9.097c-14.141-3.665-28.38-6.248-42.904-7.919
		c-30.224-3.476-60.697-4.668-91.041-6.556c-11.394-0.708-22.774-1.634-34.157-2.48c-11.372-0.844-24.716,0.437-35.569-3.585
		c-11.116-4.119-23.034-5.94-34.388-9.744c-9.202-3.081-17.805-8.959-27.197-11.125c-8.755-2.019-17.85-2.47-26.789-2.48
		c-9.344-0.01-18.416,1.371-27.648,2.7c-13.666,1.967-27.437,3.509-40.771,7.252"/>
</g>
<g>
	<path style="fill:#182635;" d="M124.057,196.553c-5.659-0.91-30.902-5.195-25.874-14.928c1.133-2.193,5.922-3.584,8.046-4.221
		c6.188-1.855,12.365-3.464,18.713-4.684c13.432-2.581,26.649-6.154,40.068-8.787c12.696-2.491,25.343-4.107,38.2-5.366
		c8.255-0.808,17.089-2.632,25.347-2.536c3.877,0.045,4.115,0.54,2.853,3.985c-1.27,3.467-3.411,6.463-4.459,10.057
		c-0.805,2.758-0.257,3.318-3.004,4.009c-4.593,1.155-11.462-0.084-16.262,0.069c-19.795,0.634-39.203,3.079-58.361,8.255
		c-5.265,1.422-11.108,3.636-16.014,6.041C129.095,190.514,127.633,193.878,124.057,196.553z"/>
	<path style="fill:#182635;" d="M281.509,156.747c1.479,4.199-0.079,10.38,3.12,13.959c2.874,3.214,10.168,2.858,14.487,3.12
		c24.709,1.502,50.625,2.846,73.916,11.986c5.589,2.193,9.505,3.38,13.06,8.253c1.984,2.721,0.97,2.554,4.201,1.954
		c3.531-0.656,7.198-1.594,10.725-2.483c4.487-1.132,15.642-4.036,13.389-10.676c-0.932-2.744-4.245-4.112-6.912-5.154
		c-6.413-2.505-13.479-3.793-20.129-5.53c-18.309-4.782-36.775-9.42-55.616-11.887c-10.909-1.428-21.867-3.179-32.866-3.563
		C293.903,156.555,286.692,154.753,281.509,156.747z"/>
	<path style="fill:#182635;" d="M71.099,283.276c20.916-8.359,43.88-11.125,65.931-15.195c12.774-2.357,25.874-3.298,38.81-4.433
		c13.428-1.177,26.835-3.027,40.288-3.652c11.868-0.553,23.428,0.718,35.426,0.185c14.158-0.63,28.345-1.662,42.513-0.708
		c12.575,0.847,25.057,2.496,37.638,3.455c12.203,0.931,24.713,1.557,36.662,4.356c16.707,3.912,34.043,4.909,50.827,8.529
		c3.329,0.718,25.695,5.198,16.373,10.663c-4.122,2.416-9.743,4.018-14.277,5.464c-3.867,1.234-9.712,3.148-13.791,1.822
		c-3.651-1.188-7.457-4.468-10.999-6.406c-22.151-12.114-47.739-13.598-72.391-14.731c-18.915-0.869-37.991-3.02-56.946-2.506
		c-17.789,0.481-35.611,1.89-53.325,2.526c-20.888,0.751-41.832,2.381-62.581,4.938c-7.87,0.969-15.406,2.677-23.069,4.568
		c-4.367,1.077-9.81,1.575-13.594,4.176c-3.21,2.206-4.694,9.394-7.6,10.48c-2.579,0.964-6.838-2.463-9.04-3.403
		C93.388,291.453,72.585,289.782,71.099,283.276z"/>
	<path style="fill:#182635;" d="M74.299,382.083c0.002,5.069-0.448,9.762-1.254,14.776c-0.23,1.438-0.468,8.789-1.84,9.862
		c-1.654,1.293-5.353-1.163-7.021-1.793c-4.067-1.537-8.1-2.604-12.232-3.773c-5.66-1.601-11.024-4.32-16.305-6.71
		c-3.579-1.62-6.767-4.33-6.433-8.755c8.1-1.195,16.349-1.082,24.569-2.079C57.791,383.124,72.187,377.516,74.299,382.083z"/>
	<path style="fill:#182635;" d="M438.606,378.885c-1.01,3.021-0.376,6.03-0.355,9.217c0.02,3.336-0.901,7-0.368,10.296
		c1.082,6.686,7.027,6.621,12.896,6.006c8.885-0.931,16.657-5.179,24.445-8.999c2.876-1.411,13.936-6.863,8.475-10.762
		c-1.691-1.206-6.595-0.697-8.653-0.881c-3.744-0.335-7.479-0.599-11.204-1.103C456.496,381.668,448.147,378.403,438.606,378.885z"
		/>
</g>
<g>
	<path style="fill:#3E7393;" d="M107.353,290.029c0.277,6.398-3.466,14.571-0.799,20.717c1.1,2.536,0.392,2.118,3.195,2.126
		c3.392,0.01,7.246-1.05,10.77-1.193c27.462-1.12,54.945-4.491,82.432-5.27c26.645-0.755,53.375,0.151,79.96,1.035
		c18.648,0.62,37.334-1,55.901-0.356c16.968,0.587,35.37,0.632,51.937,4.711c4.21,1.036,8.57,3.506,12.704,0.811
		c3.801-2.478,4.357-7.402,4.153-11.662c-0.645-13.482-19.058-17.032-29.681-19.458c-29.77-6.8-60.411-10.372-90.955-10.99
		c-18.248-0.369-36.602-1.429-54.864-0.65c-16.678,0.712-33.058,2.865-49.631,4.506c-14.866,1.471-29.709,3.102-44.398,5.898
		C129.662,281.858,116.435,282.957,107.353,290.029z"/>
	<path style="fill:#3E7393;" d="M211.847,174.162c3.405,0.222,11.857-2.32,14.404,0.343c2.955,3.089-0.057,16.701-1.315,20.582
		c-18.951-2.725-41.036,3.575-59.618,7.691c-12.453,2.758-28.012,3.387-39.411,9.379c-0.022-4.566-0.414-9.706-0.072-14.311
		c0.335-4.505,1.598-5.349,5.805-7.335c11.42-5.39,25.23-8.588,37.495-11.224c7.046-1.514,14.312-2.93,21.485-3.621
		C198.147,174.94,206.224,175.49,211.847,174.162z"/>
	<path style="fill:#3E7393;" d="M297.859,174.162c-2.967-0.523-6.396-0.713-9.377-0.031c-3.482,0.797-2.857,0.564-3.094,4.398
		c-0.27,4.368-0.15,8.631,0.464,12.975c0.558,3.947,0.531,3.922,4.702,3.806c14.058-0.392,28.606,2.846,42.513,4.799
		c10.579,1.485,21.36,3.066,31.6,6.12c6.888,2.055,13.477,5.141,20.199,7.331c2.852-2.175,1.343-9.37,1.129-12.456
		c-0.17-2.462,0.159-5.893-0.981-8.122c-1.393-2.724-4.479-3.262-7.621-4.215C350.782,180.7,325.185,174.873,297.859,174.162z"/>
	<path style="fill:#3E7393;" d="M88.16,380.662c0.717,7.336-0.943,15.03-0.355,22.214c0.464,5.678-0.733,14.049,6.878,12.566
		c12.748-2.483,26.304-2.547,39.327-3.129c8.308-0.371,16.506-2.13,24.79-2.782c2.994-0.235,9.424,0.71,11.971-1.13
		c4-2.892,2.296-12.151,2.337-16.34c0.053-5.466,2.051-11.277,1.368-16.668c-4.802-1.68-9.474-1.782-14.565-1.83
		c-9.552-0.089-18.976-0.158-28.538,0.168c-7.614,0.26-15.184,1.036-22.774,1.596C104.019,375.665,92.699,376.118,88.16,380.662z"/>
	<path style="fill:#3E7393;" d="M200.829,374.62c0.403,8.81-1.781,17.603-1.343,26.378c0.069,1.395-0.212,4.48,0.97,5.272
		c1.439,0.965,7.124-1.012,8.845-1.087c9.292-0.402,18.503,1.075,27.811,0.536c8.684-0.503,17.396-0.444,26.065-0.178
		c10.385,0.318,20.624-1.487,30.962-1.084c6.905,0.269,18.292,5.232,19.567-4.137c1.046-7.696,1.101-17.442-1.586-24.793
		c-1.191-3.257-1.884-3-5.981-3.367c-10.979-0.984-22.495-1.093-33.525-1.093c-11.318,0-22.854-0.397-34.143,0.174
		C227.562,371.792,215.875,371.208,200.829,374.62z"/>
	<path style="fill:#3E7393;" d="M338.376,375.33c1.658,6.491,1.004,14.33,1.066,21.046c0.019,2.074-1.212,10.156,0.428,11.581
		c1.018,0.885,5.595-0.001,6.847,0.064c4.832,0.253,9.693,0.775,14.542,1.065c8.814,0.527,17.648,2.147,26.457,2.843
		c7.16,0.565,14.252,1.494,21.387,2.418c2.889,0.375,8.281,1.824,11.018,1.423c5.105-0.747,3.893-8.462,3.89-12.734
		c-0.006-6.468,2.659-15.069,1.086-21.392c-0.773-3.105-1.545-2.866-5.102-3.547c-8.679-1.664-18.057-1.537-26.895-2.331
		c-10.486-0.943-21.013-1.439-31.511-2.211C356.2,373.159,344.32,371.016,338.376,375.33z"/>
</g>
<g>
	<path style="fill:#2B607A;" d="M225.353,177.716c-14.474,0.015-29.46,2.694-43.537,6.005c-4.391,1.033-9.01,2.037-12.979,4.267
		c-1.523,0.856-4.546,2.529-5.188,4.29c-0.882,2.414,1.919,4.588,1.12,6.94c-1.101,3.243-8.755,4.959-11.565,5.864
		c-5.4,1.74-10.783,3.549-16.262,5.064c-3.994,1.104-8.471,1.014-12.195,2.267c-1.183,0.397,1.28-5.585,1.31-5.704
		c0.59-2.376,0.556-5.385,0.528-7.827c-0.039-3.331-1.045-4.294,1.377-6.684c3.369-3.324,9.705-5.124,14.108-6.317
		c8.171-2.214,16.136-3.984,24.463-5.491c16.017-2.9,32.487-6.596,48.808-6.584C222.104,173.812,225.42,171.355,225.353,177.716z"/>
	<path style="fill:#2B607A;" d="M286.129,182.337c-0.418-3.092-2.696-7.246,1.068-8.903c5.045-2.222,10.282,0.667,13.22,4.094
		c8.271,9.643,26.31,10.431,37.88,13.259c11.252,2.75,23.109,2.7,34.295,5.413c3.42,0.83,11.128,2.278,13.053,5.659
		c0.925,1.626,0.996,9.703-0.692,10.378c-0.953,0.381-8.482-2.399-9.594-2.69c-5.763-1.504-11.32-3.417-16.971-5.191
		c-8.478-2.662-18.338-4.531-27.177-5.59c-12.065-1.446-24.223-1.542-36.205-3.377c-1.763-0.27-5.984,0.012-7.482-0.958
		C284.517,192.485,287.539,188.585,286.129,182.337z"/>
	<path style="fill:#2B607A;" d="M404.13,290.029c3.642,6.957-23.116,2.06-25.681,1.777c-27.403-3.029-55.137-5.297-82.642-7.188
		c-12.815-0.881-25.622-1.876-38.445-2.631c-12.877-0.757-28.46-0.031-40.733,4.101c-12.235,4.119,3.737,5.702,8.448,6.611
		c10.414,2.01,21.101,2.114,31.633,3.363c11.074,1.313,24.106,5.415,35.19,4.118c10.353-1.213,20.05-0.842,30.536-0.11
		c3.918,0.274,11.62-0.639,13.21,4.255c0.884,2.722,0.201,2.794-1.674,3.732c-3.932,1.966-10.722,0.681-14.784,0.488
		c-8.595-0.409-17.174-1.163-25.779-1.542c-17.884-0.79-35.897-0.533-53.801-0.615c-14.924-0.068-30.063-0.734-44.958-1.611
		c-12.279-0.722-25.028,1.149-37.194,2.668c-12.628,1.578-25.169,4.608-37.906,5.251c-1.97,0.1-9.916,1.956-11.583,0.54
		c-1.548-1.314-0.514-5.358-0.437-7.019c0.169-3.666-0.38-7.748,0.791-11.287c0.848-2.563,1.692-3.244,4.101-4.607
		c7.616-4.313,18.489-6.113,26.937-7.843c23.067-4.723,46.579-9.455,70.139-10.584c28.206-1.352,56.526-0.27,84.739,0.344
		c21.949,0.478,44.725,1.791,66.287,5.981c7.761,1.508,15.44,3.227,23.133,5.056C391.836,285.223,399.294,289.068,404.13,290.029z"
		/>
	<path style="fill:#2B607A;" d="M89.226,387.771c0.398,7.687-0.883,15.58,0,23.307c0.484,4.231,5.292,5.358,9.613,3.375
		c4.895-2.246,3.466-9.883,5.467-14.135c3.105-6.598,10.89-6.835,17.32-7.136c9.267-0.434,18.551-0.514,27.816-0.966
		c6.487-0.316,13.942,0.21,20.104-2.141c8.093-3.088,4.321-8.784,4.218-15.047c-19.436-1.449-38.908,0.457-58.337,1.016
		c-7.143,0.205-13.735,1.113-20.746,2.488c-1.231,0.242-4.105,0.185-5.026,1.153C87.945,381.484,89.207,388.102,89.226,387.771z"/>
	<path style="fill:#2B607A;" d="M200.829,374.264c-0.015,3.84-3.658,21.058,0.323,23.039c1.689,0.84,8.324-1.907,10.265-2.328
		c5.066-1.099,10.241-2.254,15.253-3.624c13.897-3.8,27.365-6.59,41.684-8.557c10.955-1.505,22.397-3.447,33.43-2.043
		c2.926,0.372,7.292,2.294,9.676-0.355c3.137-3.484,0.69-6.556-2.979-7.208c-10.848-1.928-23.103-1.681-34.094-1.509
		c-17.005,0.267-33.942,0.577-50.929,1.134c-4.87,0.16-10.082-0.583-14.915,0.11C205.19,373.404,204.667,374.592,200.829,374.264z"
		/>
	<path style="fill:#2B607A;" d="M338.378,376.042c0.125-0.014-0.614,21.452-0.71,23.38c-0.187,3.752-0.469,8.169,3.235,9.5
		c8.073,2.899,10.923-6.146,13.121-11.838c0.893-2.312,1.187-5.98,2.91-7.84c4.842-5.225,15.537-2.326,21.729-2.178
		c11.64,0.277,23.302,0.415,34.909,1.406c5.654,0.482,11.882,2.711,10.837-4.964c-0.311-2.28-0.903-3.836-2.671-4.8
		c-1.727-0.941-4.892-0.436-6.777-0.56c-5.263-0.347-10.496-1.356-15.753-1.848C379.128,374.423,359.422,373.797,338.378,376.042z"
		/>
</g>
<g>
	<path style="fill:#314056;" d="M123.702,226.053c1.744-3.585,0.036-10.522,2.56-13.427c2.566-2.954,12.424-4.266,16.189-5.59
		c5.245-1.843,11.797-4.698,17.335-5.152c4.348-0.356,8.802,2.491,13.855,2.764c15.846,0.852,31.789-2.235,47.621-1.975
		c3.416,0.057,6.918,1.797,3.742,5.589c-1.505,1.797-4.11,1.612-6.524,1.717c-7.454,0.326-14.772,1.325-22.204,1.776
		c-14.692,0.891-29.267,2.351-43.534,6.113C149.451,218.737,124.449,228.493,123.702,226.053z"/>
	<path style="fill:#314056;" d="M286.841,201.174c21.976-0.008,45.02,3.252,66.564,7.395c9.654,1.857,19.246,4.117,28.625,7.176
		c5.531,1.803,7.011,3.619,6.763,9.553c-2.523,0.965-6.369-0.93-8.939-1.446c-6.963-1.401-13.985-2.707-20.83-4.632
		c-11.297-3.176-22.429-6.051-34.097-7.604c-10.93-1.455-22.115-0.77-32.916-2.302C286.71,208.563,283.026,205.765,286.841,201.174z
		"/>
	<path style="fill:#314056;" d="M98.467,332.325c0.186-3.489,3.297-8.15,4.996-11.102c1.89-3.281,4.019-6.43,7.697-7.393
		c4.661-1.221,10.208-0.834,15-1.124c8.452-0.51,16.959-0.971,25.402-1.702c16.521-1.43,32.726-3.555,49.277-1.431
		c8.953,1.149,17.541,5.066,26.585,6.491c10.089,1.589,20.412,1.69,30.602,1.255c12.032-0.513,23.996,0.032,36.023,0.523
		c13.572,0.555,27.194,0.109,40.745,0.8c18.273,0.932,36.249,2.088,54.439,3.919c3.484,0.351,21.805,0.328,18.761,7.587
		c-13.791,0.498-28.064-2.071-41.854-3.064c-16.26-1.171-32.622-1.513-48.921-1.511c-21.393,0.003-42.613-0.647-63.984-1.82
		c-9.707-0.532-19.434-0.414-29.147-0.117c-12.92,0.395-25.457-0.945-38.29-0.388c-13.875,0.603-27.753,1.29-41.576,2.681
		c-10.275,1.034-20.639,0.693-30.86,2.221c-3.372,0.504-10.227,4.701-13.105,3.442C100.36,330.33,100.865,329.079,98.467,332.325z"
		/>
</g>
<g>
	<path style="fill:#E2AA60;" d="M244.901,154.614c-3.921,0.034-12.802,0.615-15.379,3.891c-1.621,2.061-1.05,7.131-1.365,9.655
		c-0.681,5.431-1.026,10.567-1.026,16.06c0,4.678,0.245,9.438-0.031,14.105c-0.141,2.388-1.664,6.476-0.698,8.827
		c1.885,4.589,11.409,3.097,15.547,3.618c11.847,1.491,25.786,2.686,37.419,0.546c6.812-1.253,6.225-6.522,6.91-12.872
		c0.897-8.32,0.061-16.514-0.325-24.822c-0.262-5.646-0.236-12.38-5.686-15.604c-2.391-1.414-5.241-1.834-7.972-1.999
		C265.413,155.606,258.546,155.108,244.901,154.614z"/>
	<path style="fill:#E2AA60;" d="M248.1,3.56c-4.606-2.728-14.265,7.641-16.01,11.621c-2.672,6.094-0.97,14.66,1.052,20.579
		c1.618,4.734,5.565,8.249,6.783,13.073c1.202,4.761,0.322,10.469-1.314,15.042c-0.742,2.071-2.713,3.736-0.969,5.398
		c1.769,1.687,11.132,0.721,13.553,0.75c4.664,0.057,9.286,0.152,13.939,0.353c2.111,0.091,5.547,0.885,7.579,0.011
		c5.782-2.484-2.471-13.252-2.588-18.123c-0.169-7.078,6.813-13.34,8.768-20.342c2.01-7.201,2.064-15.681-2.975-21.619
		C270.966,4.47,258.604,0.199,248.1,3.56z"/>
</g>
<g>
	<path style="fill:#C68A42;" d="M243.48,156.39c-3.083-0.525-9.949-1.322-12.527,1.326c-4.038,4.148-3.399,16.532-3.644,21.954
		c-0.348,7.686-0.856,15.949-0.196,23.635c0.625,7.297,5.801,6.703,11.757,7.981c8.113,1.74,15.003,1.977,23.262,1.616
		c5.004-0.219,11.554,0.548,16.16-1.856c2.074-1.083,4.424-2.903,2.31-5.308c-2.323-2.642-12.856-0.284-16.124,0.012
		c-8.937,0.811-20.204,3.89-28.556-0.419c-3.876-1.999-4.333-4.142-3.911-8.424c0.56-5.67,0.251-11.336,0.439-17.062
		c0.145-4.432-0.935-12.689,2.398-16.304C236.83,161.392,244.5,161.2,243.48,156.39z"/>
	<path style="fill:#C68A42;" d="M269.07,162.433c-4.763-0.712-11.161-2.878-16.013-1.776c-4.765,1.083-10.715,4.992-2.444,4.975
		c6.926-0.015,22.503-0.867,24.941,7.448c1.433,4.888-1.999,14.921,1.318,18.549C284.687,186.492,281.629,164.862,269.07,162.433z"
		/>
	<path style="fill:#C68A42;" d="M258.407,2.138c-9.101,3.993-14.5,24.002-11.033,32.643c3.077,7.668,12.093,8.342,18.158,12.15
		c4.691,2.945,5.429,4.975,5.669,10.366c0.183,4.102,2.805,7.836,2.79,11.614c-2.535-0.822-6.019,0.346-8.785,0.401
		c-4.168,0.083-8.215-0.405-12.331-0.382c-4.119,0.024-8.209,1.182-12.418,0.75c-3.657-0.375-3.834-0.406-2.991-3.37
		c1.834-6.451,8.41-10.48,4.381-17.559c-4.323-7.596-9.615-12.866-10.105-22.335C231.161,15.099,242.141-0.991,258.407,2.138z"/>
</g>
<path style="fill:#3970EA;" d="M257.341,166.343c-7.444,0.375-16.931-3.465-20.009,6.15c-1.617,5.052-0.666,10.564-0.605,15.718
	c0.039,3.283-1.066,9.008,1.847,11.47c5.464,4.618,21.147,2.584,27.92,2.212c4.941-0.272,6.97-0.455,8.609-5.241
	c1.599-4.67,1.936-9.73,1.344-14.599c-0.385-3.161-0.132-10.302-2.402-12.431C270.591,166.38,259.912,164.589,257.341,166.343z"/>
<path style="fill:#C94F4F;" d="M73.944,382.083c0,21.81,0.92,43.413,1.759,65.154c0.298,7.758,0.377,16.726,1.875,24.33
	c2.089,10.61,10.384,12.54,19.353,15.083c11.28,3.197,22.076,7.983,33.536,10.57c7.518,1.697,15.332,2.697,22.765,4.72
	c4.868,1.326,9.529,3.342,14.429,4.556c3.884,0.962,7.347,0.384,11.242,0.682c9.931,0.759,19.512-0.354,29.439-0.489
	c9.23-0.126,18.442,0.691,27.634,1.32c8.126,0.555,16.321,1.57,24.46,1.054c8.569-0.543,17.012-1.177,25.6-1.162
	c5.644,0.009,11.288-0.486,16.909-0.504c5.094-0.016,10.438,0.654,15.527,0.104c3.34-0.36,6.594-2.03,9.9-2.226
	c2.711-0.16,5.365,0.514,8.19,0.099c5.964-0.878,11.546-3.37,17.426-4.612c5.36-1.134,10.721-1.869,16.079-3.097
	c10.417-2.387,20.961-4.222,31.369-6.649c9.945-2.318,24.751-3.602,30.514-13.343c2.851-4.819,3.706-11.608,4.611-17.061
	c1.591-9.57,5.531-20.4,3.23-30.077c-2.077-8.737-1.546-18.3-1.107-27.332c0.22-4.523,0.561-9.004,0.258-13.471
	c-0.452-6.671,0.216-10.345-6.978-10.849c-1.842-0.128-6.87-0.605-7.948,1.049c-0.557,0.855-0.012,4.272-0.014,5.348
	c-0.005,4.887,0.124,10.407,0.118,15.362c-0.005,3.593,0.75,12.461-1.865,14.884c-2.038-1.541-6.929-1.986-9.427-2.355
	c-4.297-0.633-8.609-1.167-12.926-1.637c-8.638-0.939-17.307-1.591-25.983-2.067c-8.041-0.44-16.269-0.339-24.271-1.075
	c-3.017-0.277-8.519,0.999-10.275-2.389c-1.105-2.133-0.121-7.366-0.373-9.883c-0.573-5.729-0.016-11.157,0.026-16.802
	c0.025-3.286-1.056-6.784-4.204-7.82c-4.808-1.581-15.201-0.27-19.752,1.335c-4.582,1.615-3.169,4.258-2.977,8.264
	c0.261,5.436-0.126,10.871,0.338,16.25c0.261,3.022,1.283,7.086-1.967,8.37c-1.757,0.695-7.395-0.571-9.518-0.586
	c-3.817-0.026-7.633-0.055-11.45-0.082c-15.571-0.112-31.141-0.22-46.713-0.22c-13.559,0-28.299-1.521-41.609,0.561
	c-1.62-1.987-1.179-7.723-1.423-10.335c-0.438-4.689,0.462-8.207,1.359-12.818c0.387-1.991,1.084-5.909-0.541-7.645
	c-1.443-1.541-6.377-1.279-8.486-1.403c-4.724-0.279-14.532-0.598-18.587,2.229c2.231,6.229-0.011,15.303-0.035,21.996
	c-0.008,2.39,0.499,7.569-1.479,9.356c-1.911,1.726-8.654,1.046-11.45,1.25c-14.852,1.078-29.401,2.891-44.206,4.452
	c-7.357,0.776-14.747,1.701-22.134,2.311c-6.923,0.571-4.472-5.359-4.613-10.209c-0.126-4.324-0.609-8.684-0.977-12.991
	c-0.305-3.56,0.26-7.098-0.01-10.581C88.064,374.202,77.199,377.851,73.944,382.083z"/>
<path style="fill:#AD3A3A;" d="M433.841,466.284c-1.593-1.236-3.24,0.355-4.733-0.547c-2.16-1.305-1.574-3.699-1.44-5.959
	c0.532-8.993,1.017-18.02,0.986-27.051c-0.053-15.929,0.885-31.812,0.798-47.691c-0.022-4.018-2.018-8.056-4.889-3.089
	c-2.121,3.669-1.398,7.874-1.224,11.856c0.325,7.416-0.032,15.039-0.386,22.506c-0.175-0.186-0.389-0.352-0.697-0.461
	c-10.745-1.155-21.715-1.944-32.58-2.932c-13.563-1.233-27.18-3.415-40.711-4.177c-2.976-0.168-6.688-1.177-8.73,1.404
	c-1.522,1.924-1.645,5.711,0.25,7.134c1.373,1.031,5.051,0.86,6.685,1.138c4.946,0.84,9.803,2.113,14.731,3.039
	c13.167,2.474,26.933,2.488,40.269,3.198c4.733,0.253,11.305,1.287,15.833-0.267c1.368-0.47,3.737-2.874,4.81-5.042
	c-0.007,0.151-0.015,0.304-0.022,0.455c-0.406,8.921-1.825,17.985-2.676,26.82c-0.821,8.524,1.48,20.292-5.147,27
	c-8.812,8.92-25.065,8.996-36.553,10.26c-12.387,1.363-25.066,2.289-37.53,2.339c-4.225,0.017-10.227,0.937-13.832-1.867
	c-3.891-3.026-3.291-10.085-3.644-14.612c-1.996-25.667-4.844-52.428-1.392-78.096c0.759-5.649,5.175-19.458-4.886-18.116
	c-4.499,0.599-5.443,2.406-5.413,6.314c0.057,7.311,2.22,15.979,0.711,23.217c-0.488,2.343-1.531,2.816-2.793,2.836
	c-1.948-2.108-5.215-1.623-7.924-1.531c-5.068,0.174-10.149-1.103-15.204-1.398c-4.935-0.288-9.15,1.228-13.895,1.429
	c-9.306,0.394-18.591-0.53-27.894-0.099c-13.319,0.617-26.512-0.53-39.85,0.855c-2.912,0.303-5.06,0.72-5.478,4.006
	c-1.094,8.585,8.434,7.584,13.99,7.775c29.669,1.018,59.245-2.501,88.839-2.837c0.05,3.279,0.729,6.77,0.892,9.307
	c0.493,7.647,1.228,15.416,2.202,23.023c1.898,14.824,5.456,32.005-2.744,45.912c-4.199,7.121-15.803,6.92-23.038,6.404
	c-11.413-0.815-22.683-2.61-34.133-3.038c-11.577-0.431-23.2-0.348-34.718-1.751c-8.152-0.992-19.071-0.733-23.826-9.024
	c-2.036-3.55-4.321-8.367-5.166-12.36c-2.892-13.653-0.754-28.935,0.124-42.688c1.036-16.246,1.965-32.644,2.647-48.909
	c0.367-8.714-2.799-7.894-9.879-7.006c-0.376,7.38-0.857,14.685-1.2,22.079c-0.214,4.619,0.911,10.435-2.633,13.553
	c-1.707-2.87-4.869-1.944-4.752-1.21c-14.556,3.158-30.342,2.112-45.117,3.653c-5.473,0.571-10.934,0.451-16.39,0.968
	c-3.8,0.359-9.206,0.098-12.774,1.403c-1.406,0.514-2.722,1.626-3.614,3.01c-0.087-0.885-0.173-1.772-0.218-2.661
	c-0.35-6.873,0.188-13.802-0.081-20.687c-0.126-3.237,0.567-8.19-0.268-11.225c-1.657-6.02-9.833-5.885-12.527-3.606
	c-2.542,6.083-0.776,16.075-1.085,22.747c-0.362,7.84-0.338,15.812-0.337,23.653c0.002,14.499,0.092,29.896,2.843,44.153
	c2.135,11.061,14.977,17.233,24.881,20.351c13.643,4.295,27.618,6.935,41.609,9.861c21.566,4.509,41.536,9.098,64.011,7.88
	c13.138-0.712,26.412,0.375,39.553,0.375c10.311,0,20.273-0.902,30.516-0.532c12.612,0.455,25.032,0.163,37.498-1.894
	c10.807-1.784,21.774-3.623,32.816-3.98c6.355-0.205,12.464-1.391,18.721-2.47c15.541-2.68,31.837-5.566,46.987-9.96
	c6.882-1.995,16.131-5.169,19.585-11.759C433.952,475.095,437.129,468.836,433.841,466.284z M164.94,470.009
	c-0.121,4.987-0.649,15.399-6.83,16.891c-3.184,0.768-8.958-1.471-12.085-2.178c-5.76-1.303-11.467-2.911-16.942-5.14
	c-18.062-7.353-30.32-19.284-35.52-38.161c-1.504-5.458-3.167-10.958-4.314-16.539c3.725,1.704,11.043-0.594,14.299-0.937
	c13.25-1.398,26.455-1.848,39.743-2.488c6.627-0.319,13.488-0.205,20.079-1.38c-0.073,1.559,0.032,3.17,0.11,4.971
	C164.132,439.978,165.303,455.04,164.94,470.009z"/>
<path style="fill:#313B44;" d="M108.067,491.594c0-9.28-0.118-18.51-0.598-27.713c-0.236-4.517-0.066-13.562,2.991-17.132
	c3.927-4.588,15.574-2.477,20.717-2.428c5.241,0.05,10.596,2.222,11.402,7.948c2.193,15.58,0.25,31.832,1.327,47.448
	c-1.514,0.259-2.742-0.239-4.172-0.678c-3.303-1.012-6.52-1.477-9.903-2.22c-3.844-0.844-7.676-1.847-11.559-2.607
	C113.915,493.359,109.747,493.485,108.067,491.594z"/>
<path style="fill:#20282D;" d="M240.796,435.001c-4.48,1.002-11.033-1.688-13.859,3.426c-1.889,3.417-1.48,9.605-1.666,13.384
	c-0.285,5.757,0.072,11.444,0.065,17.203c-0.011,9.554,0.44,19.341-0.015,28.762c-0.075,1.563-0.962,5.749-0.289,7.09
	c1.18,2.354,6.066,1.638,8.433,1.894c11.654,1.259,23.266,2.639,35.044,2.06c3.851-0.19,7.652-0.314,11.522-0.305
	c1.712,0.003,4.432,0.371,5.91-0.65c4.825-3.336,1.399-16.13,1.241-21.158c-0.288-9.123,1.246-18.259,1.238-27.325
	c-0.006-6.586,1.94-20.566-6.191-23.292c-4.33-1.452-10.032-0.498-14.55-0.771C259.004,434.795,250.353,435.263,240.796,435.001z"/>
<path style="fill:#313B44;" d="M383.152,443.753c-3.523,1.184-9.575,0.149-12.362,2.794c-4.162,3.95-2.408,13.422-1.998,18.306
	c0.582,6.924,0.279,13.832,0.001,20.744c-0.123,3.041-2.93,12.782,1.112,13.885c1.851,0.505,6.528-1.458,8.515-1.771
	c3.991-0.627,7.947-0.896,11.96-1.378c3.744-0.451,10.682-1.289,12.901-4.619c2.175-3.264,1.125-8.845,0.94-12.52
	c-0.253-5.039,0.003-9.858,0.238-14.885c0.226-4.843,0.371-12.198-1.605-16.618C399.994,441.294,388.247,443.284,383.152,443.753z"
	/>
<g>
	<path style="fill:#20282D;" d="M119.152,444.336c1.426,5.359,0,12.422,0,18.021c0,5.593,0.146,11.142-0.015,16.677
		c-0.12,4.134,0.295,8.899,0.915,12.972c0.623,4.094,3.308,3.986,7.081,4.766c4.447,0.919,7.316,2.449,11.926,2.106
		c4.342-0.322,4.737-0.907,4.837-5.86c0.158-7.821-0.933-15.765-1.117-23.583c-0.127-5.396,0.348-10.708,0.292-16.113
		c-0.054-5.097-1.298-7.056-6.484-8.191C132.917,444.327,125.806,442.911,119.152,444.336z"/>
	<path style="fill:#20282D;" d="M386.07,444.336c-4.071,0.943-11.431-0.684-14.884,2.248c-2.843,2.416-1.733,9.595-1.89,12.885
		c-0.524,11.013,0.436,22.259,0.438,33.299c0,2.685-0.444,4.914,2.669,5.612c2.596,0.581,6.735-0.962,9.614-0.953
		c2.585,0.008,5.143-0.037,7.423-1.386c2.972-1.757,2.71-5.459,3.411-9.181c1.043-5.547,1.029-11.08,0.802-16.639
		C393.427,464.633,397.191,443.243,386.07,444.336z"/>
</g>
<path style="fill:#2964CC;" d="M250.438,165.806c-2.104-0.657-6.887,0.785-8.868,1.832c-3.86,2.038-3.991,6.31-4.333,10.254
	c-0.339,3.916,0.393,7.692,0.602,11.603c0.129,2.429-0.605,6.667,0.305,8.804c2.333,5.478,16.756,2.634,21.514,2.634
	c3.12,0,8.567,1.345,11.063-0.852c6.712-5.909-5.441-8.815-8.987-9.379c-6.464-1.029-14.058-7.334-13.609-14.652
	C248.231,174.341,255.225,162.846,250.438,165.806z"/>
<path d="M479.176,370.033c-9.74-5.373-18.569-11.42-27.58-17.902c-3.7-2.661-7.797-4.752-11.591-7.325
	c-3.993-2.708-8.093-5.582-12.303-7.923c-2.875-1.599-5.778-3.019-8.727-4.287c-2.895-3.415-4.622-7.501-6.533-11.7
	c-1.243-2.732-2.554-5.995-4.819-8.011c0.703-4.034,1.035-8.318,1.109-12.333c0.03-1.572,0.089-3.059,0.049-4.467
	c2.206-0.561,4.794-0.069,7.064-0.536c3.139-0.645,6.272-2.117,9.354-2.99c6.551-1.855,14.122-2.411,19.928-6.232
	c0.624-0.411,1.066-0.923,1.338-1.494c0.28-0.329,0.432-0.773,0.318-1.223c0-0.001,0-0.001,0-0.001
	c0.045-0.664-0.09-1.362-0.405-2.05c-0.119-0.259-0.27-0.491-0.435-0.711c-2.243-6.31-6.245-11.053-10.714-16.245
	c-2.77-3.216-5.914-6.17-8.448-9.581c-2.114-2.846-3.932-5.687-6.569-8.126c-5.329-4.927-10.119-10.194-15.874-14.716
	c-4.212-3.31-8.457-5.887-13.138-8.029c-0.062-2.557-1.185-5.082-1.672-7.607c-0.739-3.832-0.821-7.542-0.799-11.421
	c0.011-2.049,0.258-3.967,0.337-5.86c7.921,0.31,38.494-7.899,28.036-20.049c-4.011-4.659-8.653-7.091-14.046-9.699
	c-3.517-1.7-6.573-4.166-10.068-5.908c-3.391-1.689-7.07-3.256-10.229-5.298c-6.231-4.027-13.175-6.25-19.681-9.782
	c-3.508-1.904-7.037-3.85-10.488-5.854c-3.148-1.828-6.609-2.968-9.72-4.799c-7.347-4.322-14.843-8.137-21.668-13.312
	c-6.339-4.805-11.498-11.2-17.324-16.652c-4.531-4.24-6.864-11.175-11.842-14.883c-0.327-0.243-0.665-0.471-1.012-0.686
	c-0.691-1.862-1.373-3.74-1.811-5.593c-1.057-4.475-1.145-9.735-3.324-13.872c-1.616-3.068-4.434-4.509-7.706-5.099
	c-2.067-2.083-3.535-4.255-4.526-7.392c-1.759-5.572,0.175-8.295,3.029-12.97c1.659-2.717,3.814-5.21,4.938-8.219
	c1.435-3.837,1.74-8.166,1.734-12.225c-0.011-8.277-3.768-17.37-10.298-21.975c-4.51-5.66-16.24-5.454-22.224-4.432
	c-2.232,0.381-4.726,1.068-7.12,2.084c-9.44,2.86-15.055,14.2-15.07,24.322c-0.006,4.06,0.3,8.387,1.734,12.225
	c1.125,3.01,3.279,5.502,4.938,8.219c2.856,4.675,4.79,7.399,3.029,12.97c-0.991,3.137-2.459,5.309-4.526,7.392
	c-3.272,0.59-6.09,2.032-7.706,5.099c-2.18,4.138-2.268,9.396-3.324,13.872c-0.438,1.853-1.119,3.731-1.811,5.593
	c-0.346,0.215-0.686,0.441-1.012,0.686c-4.977,3.708-7.311,10.643-11.842,14.883c-5.826,5.452-10.985,11.847-17.324,16.652
	c-6.825,5.175-14.321,8.99-21.668,13.312c-3.112,1.831-6.573,2.97-9.72,4.799c-3.451,2.004-6.98,3.951-10.488,5.854
	c-6.507,3.531-13.451,5.755-19.681,9.782c-3.16,2.042-6.839,3.609-10.229,5.298c-3.496,1.741-6.551,4.207-10.068,5.908
	c-5.395,2.608-10.035,5.039-14.046,9.699c-10.456,12.15,20.116,20.358,28.036,20.049c0.079,1.893,0.326,3.81,0.337,5.86
	c0.022,3.879-0.06,7.59-0.799,11.421c-0.487,2.524-1.609,5.049-1.672,7.607c-4.682,2.142-8.927,4.719-13.138,8.029
	c-5.754,4.522-10.545,9.789-15.874,14.716c-2.638,2.439-4.455,5.28-6.569,8.126c-2.534,3.412-5.677,6.364-8.448,9.581
	c-4.47,5.19-8.471,9.933-10.714,16.245c-0.165,0.22-0.316,0.452-0.435,0.711c-0.316,0.687-0.451,1.386-0.405,2.049c0,0,0,0,0,0.001
	c-0.115,0.451,0.037,0.894,0.318,1.223c0.272,0.57,0.714,1.083,1.338,1.494c5.805,3.821,13.377,4.376,19.928,6.232
	c3.081,0.873,6.215,2.345,9.354,2.99c2.27,0.466,4.858-0.025,7.064,0.536c-0.04,1.407,0.019,2.894,0.049,4.467
	c0.075,4.016,0.407,8.299,1.109,12.333c-2.265,2.016-3.576,5.279-4.819,8.011c-1.911,4.199-3.639,8.285-6.533,11.7
	c-2.949,1.268-5.852,2.688-8.727,4.287c-4.21,2.343-8.31,5.216-12.303,7.923c-3.795,2.573-7.891,4.664-11.591,7.325
	c-9.011,6.482-17.839,12.529-27.58,17.902c-6.904,3.809-12.562,7.698-8.494,16.119c3.79,7.846,12.271,11.476,19.76,14.752
	c2.018,0.883,3.256,2.235,5.107,3.173c1.674,0.85,4.102,1.258,5.871,1.84c4.863,1.6,10.239,2.963,15.278,1.733
	c0.015,9.455,0.259,18.943,0.407,28.406c0.134,8.57,0.638,17.119,1.751,25.588c0.93,7.064,0.099,15.39,5.749,20.756
	c4.717,4.481,12.014,6.789,17.939,9.081c3.232,1.25,6.945,1.652,10.417,2.609c4.487,1.236,8.739,3.113,13.281,4.189
	c19.549,4.634,39.311,8.552,59.29,10.665c10.706,1.133,21.542,2.013,32.282,2.808c5.409,0.401,10.974,0.036,16.401,0.028
	c0.199,0,0.4,0.005,0.598,0.006c0.276,0.006,0.55,0.01,0.818,0.018c8.605,0.246,17.13,0.23,25.739,0.117
	c6.254-0.083,12.478-0.303,18.699-0.558c0.087-0.003,0.171-0.006,0.259-0.008c3.279,0.695,6.772,0.422,10.157,0.427
	c5.427,0.008,10.991,0.372,16.401-0.028c10.74-0.794,21.576-1.674,32.282-2.808c19.979-2.113,39.741-6.031,59.29-10.665
	c4.542-1.077,8.795-2.953,13.281-4.189c3.472-0.957,7.184-1.36,10.417-2.609c5.926-2.292,13.222-4.6,17.939-9.081
	c5.65-5.366,4.82-13.692,5.749-20.756c1.115-8.468,1.617-17.018,1.752-25.588c0.148-9.463,0.393-18.951,0.407-28.406
	c5.04,1.229,10.416-0.134,15.278-1.733c1.769-0.582,4.197-0.99,5.871-1.84c1.85-0.94,3.088-2.29,5.107-3.173
	c7.487-3.277,15.969-6.906,19.76-14.752C491.739,377.732,486.08,373.842,479.176,370.033z M412.114,182.647
	c-0.222,0.624-0.776,1.273-1.741,2.027c-3.053,2.388-7.245,4.197-10.649,6.038c-3.559,1.925-7.491,2.546-10.874,4.725
	c-0.144-0.81-0.346-1.626-0.683-2.461c-1.637-4.051-6.292-5.44-10.055-6.649c-6.116-1.966-12.344-4.136-18.367-6.373
	c-12.62-4.687-26.531-5.78-39.616-8.234c-5.099-0.957-10.294-1.182-15.49-1.18c-6.212,0.001-11.744-0.54-17.716,1.733
	c-0.05,0.019-0.085,0.049-0.129,0.072c-0.255-3.928-0.637-8.639-2.386-12.192c-0.429-0.872-0.984-1.649-1.62-2.343
	c18.728,1.306,37.479,2.715,56.023,5.581c12.965,2.004,25.482,4.792,38.204,8.075C388.967,174.553,401.154,177.023,412.114,182.647z
	 M384.025,210.386c-1.813-0.941-3.769-1.53-6.047-2.236c-4.854-1.504-9.636-3.28-14.533-4.631
	c-8.294-2.287-17.351-4.788-25.932-5.569c-9.388-0.855-18.81-2.361-28.121-3.985c-4.491-0.783-9.208-1.252-13.759-1.414
	c-2.32-0.083-4.911-0.575-7.363-0.532c-0.12-1.362-0.239-2.621-0.309-3.705c-0.294-4.586-0.682-9.174-1.008-13.764
	c10.101,3.832,21.573,2.096,32.033,3.882c11.814,2.017,24.04,2.764,35.759,5.747c5.973,1.521,12.09,3.153,17.871,5.294
	c4.837,1.791,11.277,2.707,11.49,8.914C384.242,202.276,383.939,206.371,384.025,210.386z M288.624,197.022
	c6.983,1.188,14.447,0.674,21.425,1.88c8.289,1.432,17.002,2.904,25.377,3.45c8.309,0.543,16.781,2.417,24.849,4.493
	c7.978,2.053,15.854,5.441,23.958,7.102c0.285,2.865,0.901,5.642,2.177,8.218c-0.11-0.041-0.216-0.086-0.326-0.127
	c-15.379-5.708-31.167-8.92-47.113-12.409c-11.169-2.444-22.68-2.304-34.051-2.209c-4.272-0.524-8.507-0.74-12.814-1.219
	c-1.354-0.15-2.713-0.308-4.046-0.308C288.69,203.169,288.755,200.038,288.624,197.022z M283.325,201.59
	c-0.263,4.484-2.173,6.961-6.624,8.048c-1.325,0.323-3.152,0.894-4.857,1.166c-1.8-0.202-3.606-0.42-5.39-0.4
	c-4.773,0.054-9.463-0.375-14.218-0.554c-4.857-0.183-9.344-0.042-14.181-0.748c-1.751-0.255-3.357-0.302-5.014-0.267
	c-2.834-1.328-4.149-3.623-4.363-7.246c-0.329-5.615,0.073-11.386,0.452-16.976c0.421-6.208-0.077-12.614,0.848-18.771
	c0.428-2.851,1.283-5.025,3.064-6.465c3.127-1.017,6.934-0.968,10.063-1.102c5.977-0.258,12.107-0.202,18.088-0.125
	c4.485,0.058,8.917-0.375,13.364-0.466c0.188-0.003,0.375,0.003,0.562,0.002c4.559,0.96,6.243,3.747,6.905,8.156
	c0.925,6.157,0.427,12.563,0.848,18.771C283.252,190.204,283.654,195.976,283.325,201.59z M235.917,34.7
	c-1.193-4.308-2.184-10.128-1.486-14.647c0.382-2.475,1.12-5.379,2.387-7.874c5.169-4.144,10.294-6.661,17.595-7.101
	c6.262-0.377,11.562,2.105,17.475,2.916c3.426,2.626,5.046,7.936,5.683,12.06c0.698,4.518-0.293,10.338-1.486,14.647
	c-0.922,3.328-3.066,5.736-4.656,8.748c-0.579,1.096-1.281,2.167-1.958,3.253c-0.664,0.412-1.337,0.757-2.005,0.997
	c-3.24,1.167-6.87,1.251-10.285,2.017c-0.969-0.14-1.949-0.215-2.93-0.16c-0.053,0.002-0.103,0.006-0.157,0.009
	c-3.201-0.63-6.547-0.781-9.56-1.866c-0.669-0.241-1.342-0.586-2.005-0.997c-0.675-1.087-1.379-2.156-1.958-3.253
	C238.983,40.435,236.839,38.027,235.917,34.7z M244.926,52.293c3.192,0.998,6.641,1.243,9.81,0.626
	c0.979,0.078,1.945,0.253,2.924,0.257c0.262,0.001,0.523-0.035,0.784-0.074c2.835,0.358,5.834,0.068,8.637-0.808
	c-0.486,3.118,0.177,6.654,1.22,9.572c0.836,2.341,1.75,4.197,2.921,5.646c-1.278,0.074-2.548,0.192-3.778,0.317
	c-5.01-0.916-10.093-0.286-15.458-0.18c-2.787,0.054-6.512-0.272-10.037-0.057c-0.386-0.03-0.774-0.057-1.162-0.079
	c1.171-1.449,2.085-3.305,2.921-5.646C244.748,58.946,245.411,55.411,244.926,52.293z M228.457,84.802
	c0.589-2.391,1.1-5.331,2.063-7.579c1.695-3.952,4.936-4.265,8.714-4.51c2.462-0.16,4.572-0.173,6.562-0.585
	c2.668,0.142,5.353,0.195,8.014,0.217c3.904,0.032,8.684,0.342,13.063-0.093c1.796,0.293,3.705,0.319,5.894,0.461
	c3.777,0.245,7.02,0.558,8.714,4.51c0.964,2.247,1.474,5.188,2.063,7.579c0.288,1.17,0.782,3.179,1.532,5.229
	c-1.395-0.317-2.831-0.527-4.267-0.668c-7.923-3.286-17.525-1.62-25.895-1.26c-5.506,0.236-11.178,0.278-16.693,0.984
	c-3.53,0.002-7.561,0.095-11.296,0.944C227.676,87.98,228.169,85.972,228.457,84.802z M114.007,171.586
	c14.486-7.936,30.091-13.41,44.868-20.778c15.301-7.629,32.147-14.944,43.784-27.878c5.592-6.216,11.59-11.349,16.411-18.177
	c2.263-3.206,4.261-7.637,7.982-9.171c0.346-0.143,0.706-0.28,1.067-0.418c3.521-0.219,7.229-1.166,10.528-1.614
	c5.385-0.732,10.846-0.624,16.27-0.787c6.021-0.18,12.406-0.772,18.652-0.591c3.711,0.826,7.93,1.985,11.386,3.408
	c3.722,1.533,5.719,5.964,7.982,9.171c4.82,6.828,10.819,11.96,16.41,18.177c11.637,12.934,28.483,20.249,43.784,27.878
	c14.776,7.368,30.382,12.842,44.868,20.778c1.607,0.881,3.229,1.715,4.853,2.546c-6.627-2.432-13.583-4.046-20.389-5.855
	c-13.806-3.67-27.377-6.996-41.439-9.344c-6.019-1.006-11.85-1.822-17.925-2.554c-6.164-0.742-12.487-0.567-18.579-1.549
	c-5.668-0.913-11.645-1.025-17.4-1.398c-2.095-0.136-4.19-0.127-6.281-0.023c-8.155-1.313-16.295-0.716-24.896-0.203
	c-4.666,0.279-12.607-0.639-18.762,0.782c-4.067-0.577-8.182-0.822-12.294-0.555c-5.755,0.372-11.733,0.486-17.4,1.398
	c-6.093,0.982-12.415,0.807-18.579,1.549c-6.074,0.731-11.906,1.548-17.925,2.554c-14.061,2.348-27.633,5.674-41.439,9.344
	c-6.805,1.809-13.761,3.423-20.389,5.855C110.778,173.3,112.399,172.466,114.007,171.586z M123.154,195.437
	c-3.382-2.179-7.314-2.8-10.874-4.725c-3.406-1.842-7.597-3.651-10.649-6.038c-0.965-0.755-1.519-1.403-1.741-2.027
	c10.96-5.624,23.147-8.092,35.1-11.178c12.722-3.283,25.239-6.071,38.204-8.075c18.544-2.867,37.296-4.274,56.023-5.581
	c-0.636,0.693-1.191,1.471-1.62,2.343c-1.749,3.552-2.13,8.264-2.386,12.192c-0.045-0.023-0.081-0.053-0.129-0.072
	c-5.972-2.273-11.505-1.733-17.716-1.733c-5.196-0.001-10.392,0.224-15.49,1.18c-13.086,2.454-26.997,3.548-39.616,8.234
	c-6.023,2.237-12.252,4.407-18.367,6.373c-3.761,1.209-8.418,2.598-10.055,6.649C123.5,193.811,123.298,194.626,123.154,195.437z
	 M223.943,205.895c-1.334,0-2.692,0.158-4.046,0.308c-4.307,0.479-8.543,0.695-12.814,1.219
	c-11.371-0.095-22.882-0.236-34.051,2.209c-15.945,3.489-31.734,6.701-47.113,12.409c-0.11,0.041-0.216,0.086-0.326,0.127
	c1.276-2.576,1.892-5.354,2.177-8.218c8.104-1.66,15.979-5.049,23.958-7.102c8.068-2.076,16.54-3.951,24.849-4.493
	c8.376-0.546,17.089-2.019,25.377-3.45c6.978-1.205,14.441-0.691,21.425-1.88C223.249,200.038,223.315,203.169,223.943,205.895z
	 M223.733,192.019c-2.452-0.043-5.043,0.449-7.363,0.532c-4.551,0.162-9.268,0.63-13.759,1.414
	c-9.311,1.625-18.733,3.13-28.121,3.985c-8.58,0.781-17.637,3.283-25.932,5.569c-4.899,1.351-9.68,3.127-14.533,4.631
	c-2.278,0.706-4.235,1.295-6.047,2.236c0.086-4.016-0.216-8.11-0.082-11.999c0.215-6.206,6.653-7.123,11.49-8.914
	c5.78-2.141,11.898-3.771,17.871-5.294c11.72-2.985,23.946-3.732,35.759-5.747c10.46-1.786,21.932-0.05,32.033-3.882
	c-0.326,4.59-0.713,9.177-1.008,13.764C223.973,189.4,223.855,190.658,223.733,192.019z M73.234,278.042
	c2.486-3.162,5.214-6.069,7.937-9.04c2.617-2.856,5.61-5.429,8.125-8.367c2.343-2.739,4.068-5.806,6.761-8.272
	c5.191-4.751,10.21-9.635,15.749-14.017c5.866-4.641,11.942-7.743,19.069-10.082c14.542-4.77,29.073-8.606,43.896-12.33
	c6.904-1.735,14.799-2.632,21.976-2.932c2.29-0.044,4.583-0.118,6.904-0.423c5.126-0.673,10.093-0.741,15.209-1.176
	c2.804-0.238,4.721-0.512,6.882-1.211c0.411,0.594,0.866,1.145,1.414,1.607c2.959,2.491,10.832,4.637,15.113,2.65
	c3.791,0.452,7.637,0.609,11.392,0.869c5.614,0.39,12.062,1.027,17.749-0.319c4.421,0.923,10.834-1.008,13.438-3.199
	c0.548-0.462,1.004-1.014,1.414-1.607c2.161,0.699,4.077,0.973,6.881,1.211c5.115,0.435,10.083,0.502,15.209,1.176
	c2.321,0.305,4.614,0.38,6.904,0.423c7.178,0.3,15.072,1.196,21.976,2.932c14.823,3.724,29.354,7.56,43.896,12.33
	c7.128,2.339,13.204,5.441,19.069,10.082c5.538,4.382,10.556,9.266,15.749,14.017c2.693,2.464,4.418,5.533,6.761,8.272
	c2.514,2.938,5.508,5.511,8.125,8.367c2.723,2.971,5.451,5.878,7.937,9.04c-0.75-0.101-1.462-0.192-2.078-0.301
	c-6.506-1.149-12.844-3.055-19.419-4.186c-7.58-1.303-15.104-2.82-22.628-4.48c-7.569-1.67-15.029-2.411-22.646-3.643
	c-14.135-2.289-28.529-4.462-42.784-5.496c-8.359-0.606-16.793-1.508-25.192-1.541c-2.992-0.012-6.004-0.14-9.016-0.229
	c-3.954-0.297-7.927-0.464-11.946-0.495c-9.592-0.075-19.168-0.597-28.731-0.11c-8.202,0.417-16.502,0.664-24.716,0.813
	c-0.317,0.006-0.631,0.003-0.947,0.002c-6.856-0.639-13.819-0.008-20.686,0.019c-8.4,0.034-16.834,0.935-25.192,1.541
	c-14.255,1.034-28.648,3.206-42.784,5.496c-7.618,1.234-15.077,1.975-22.646,3.643c-7.524,1.659-15.049,3.177-22.628,4.48
	c-6.575,1.13-12.914,3.037-19.419,4.186C74.696,277.85,73.985,277.941,73.234,278.042z M103.703,292.405
	c-1.367-0.792-2.845-1.25-4.412-1.741c-3.092-0.972-5.956-2.487-9.013-3.621c-4.393-1.631-9.125-2.456-13.587-3.929
	c1.987-0.466,3.813-0.928,5.737-1.639c6.929-2.557,14.168-3.747,21.293-5.538c14.053-3.531,28.416-5.147,42.688-7.484
	c13.813-2.261,27.878-3.594,41.792-4.77c9.559-0.807,19.09-1.027,28.569-1.834c12.279,0.445,24.608,0.244,36.881-0.364
	c9.21-0.456,18.323,0.203,27.549,0.258c4.672,0.028,9.284,0.083,13.893,0.094c9.525,0.817,19.1,1.035,28.706,1.847
	c13.914,1.175,27.979,2.508,41.792,4.77c14.272,2.337,28.635,3.952,42.688,7.484c7.125,1.791,14.364,2.98,21.293,5.538
	c1.924,0.71,3.75,1.172,5.737,1.639c-4.462,1.472-9.193,2.298-13.587,3.929c-3.056,1.134-5.921,2.649-9.013,3.621
	c-1.565,0.493-3.045,0.949-4.412,1.741c-0.541-1.968-1.639-3.736-3.829-5.3c-4.711-3.365-11.287-4.526-16.762-6.105
	c-6.855-1.977-13.367-4.252-20.457-5.355c-6.803-1.059-13.65-2.312-20.427-3.481c-7.073-1.22-14.19-1.203-21.266-2.022
	c-6.819-0.789-13.739-0.571-20.587-1.231c-5.839-0.563-11.562-0.739-17.338-0.056c-3.205-0.069-6.398-0.081-9.495-0.251
	c-9.195-0.504-18.453-0.352-27.68-0.346c-8.614,0.005-17.199,0.347-25.794,0.63c-5.877-0.725-11.696-0.55-17.635,0.023
	c-6.848,0.662-13.769,0.443-20.587,1.231c-7.075,0.819-14.193,0.802-21.266,2.023c-6.777,1.169-13.623,2.422-20.427,3.481
	c-7.09,1.103-13.601,3.378-20.457,5.355c-5.475,1.579-12.051,2.74-16.762,6.105C105.341,288.669,104.244,290.437,103.703,292.405z
	 M402.608,310.892c-5.165-0.797-10.576-1.183-15.775-1.78c-5.721-0.657-11.329-1.426-17.095-1.709
	c-12.948-0.639-25.869-1.956-38.799-2.957c-5.408-0.419-10.837-0.699-16.282-0.651c-5.541,0.049-12.026-0.469-17.611,0.804
	c-13.554-0.175-27.148,0.452-40.666-0.343c-10.014-0.589-20.051-0.067-30.054,0.199c-4.711,0.125-9.359-0.208-14.049-0.328
	c-4.911-0.649-10.256-0.291-14.929-0.331c-5.446-0.048-10.874,0.233-16.282,0.651c-12.93,1.001-25.851,2.318-38.799,2.957
	c-5.766,0.284-11.374,1.052-17.095,1.709c-5.199,0.597-10.61,0.983-15.775,1.78c0.35-2.111,0.291-4.309,0.15-6.809
	c-0.151-2.666-0.712-6.172-0.132-8.785c0.888-3.996,4.801-4.572,8.031-5.481c5.726-1.611,11.375-3.478,17.013-5.353
	c6.451-2.145,13.278-2.791,19.87-4.365c21.474-5.128,44.272-2.49,65.871-6.148c1.364-0.006,2.726-0.002,4.097-0.022
	c8.726-0.121,17.422-0.382,26.163-0.379c9.377,0.005,18.809-0.19,28.146,0.468c4.86,0.342,9.703-0.052,14.565,0.511
	c2.961,0.343,5.948,0.867,8.883,0.749c18.474,1.706,37.52,0.498,55.621,4.821c6.592,1.574,13.419,2.22,19.87,4.365
	c5.638,1.875,11.287,3.742,17.013,5.353c3.229,0.908,7.142,1.485,8.031,5.481c0.58,2.612,0.019,6.119-0.132,8.785
	C402.316,306.583,402.258,308.781,402.608,310.892z M108.441,320.1c3.379-4.941,11.593-4.906,17.097-5.498
	c6.216-0.667,12.285-1.418,18.539-1.81c12.005-0.755,24.093-1.511,36.065-2.708c5.694-0.57,11.463-0.909,17.207-0.865
	c5.926,0.048,12.673,1.368,18.526-0.037c2.271,0.166,4.544,0.343,6.826,0.37c10.926,0.128,21.88-0.515,32.809,0.23
	c11.08,0.755,22.361,0.706,33.468,0.754c5.234,0.023,10.55,0.555,15.756,0.068c2.202-0.207,4.415-0.322,6.613-0.557
	c1.252-0.134,2.416-0.462,3.571-0.824c5.658-0.033,11.338,0.301,16.947,0.863c11.97,1.197,24.059,1.953,36.065,2.708
	c6.253,0.393,12.322,1.143,18.539,1.81c5.505,0.59,13.718,0.557,17.097,5.498c1.722,2.516,3.405,5.816,5.398,8.898
	c-2.64-0.767-5.331-1.428-8.105-1.951c-10.999-2.078-22.58-2.462-33.687-3.98c-9.508-1.301-19.131-0.682-28.623-1.704
	c-11.105-1.194-22.467,0.74-33.56-0.487c-5.559-0.615-11.235-0.566-16.908-0.247c-5.194-0.306-10.477-0.078-15.614-0.434
	c-6.644-0.46-13.2-0.612-19.848-0.385c-8.446,0.289-17.067,0.311-25.573,1.025c-6.708-0.48-13.449-0.687-20.03,0.041
	c-11.093,1.228-22.455-0.707-33.56,0.487c-9.492,1.02-19.115,0.403-28.623,1.704c-11.107,1.519-22.688,1.903-33.687,3.98
	c-2.773,0.523-5.464,1.184-8.105,1.951C105.035,325.916,106.719,322.617,108.441,320.1z M70.403,401.345
	c-7.347-1.931-15.138-2.142-22.317-4.427c-4.249-1.353-13.802-4.652-16.951-9.825c5.621,0.312,11.774-0.978,17.073-1.86
	c8.017-1.334,15.994-2.158,24.092-2.631C71.384,388.924,70.622,394.966,70.403,401.345z M88.984,481.244
	c-3.69-1.827-7.45-3.875-8.66-8.044c-1.063-3.666-0.923-7.543-1.305-11.286c-0.816-7.99-1.708-15.802-2.012-23.887
	c-0.406-10.808-0.597-21.752-0.658-32.551c-0.044-7.768,0.257-15.459-0.928-23.068c3.762-0.201,7.511-0.55,11.254-0.975
	c-1.561,9.197-0.814,19.069-0.289,28.278c0.519,9.112,0.566,18.207,1.049,27.32c0.792,14.962,2.138,29.851,2.765,44.778
	C89.792,481.622,89.386,481.444,88.984,481.244z M116.925,466.533c-0.062,5.27,0.228,10.561,0.365,15.826
	c0.069,2.669-0.003,5.654,0.663,8.323c-2.499-0.763-5-1.54-7.528-2.293c0.451-4.534,0.017-9.007-0.2-13.554
	c-0.222-4.634,0.334-9.317-0.126-13.94c-0.423-4.249-1.7-11.168,2.741-14c1.33-0.848,3.232-1.13,5.299-1.136
	c-0.582,2.277-0.414,4.944-0.723,7.107C116.775,457.37,116.979,461.976,116.925,466.533z M133.263,494.719
	c-3.76-0.742-7.397-1.705-11-2.751c0.2-3.714-0.563-7.376-0.679-11.08c-0.141-4.505-0.516-8.997-0.648-13.502
	c-0.112-3.838-0.516-7.906-0.305-11.741c0.111-2.019,0.518-3.756,0.431-5.78c-0.049-1.138-0.379-2.656-0.438-3.997
	c2.724,0.216,5.456,0.7,7.35,0.866c3.004,0.262,10.409,0.135,12.133,2.768c1.328,2.028,0.646,6.392,0.64,8.704
	c-0.007,2.694-0.006,5.388-0.023,8.081c-0.065,10.036,0.529,19.938,0.461,29.95C138.545,495.742,135.906,495.241,133.263,494.719z
	 M170.88,492.382c-0.008,2.808-0.572,5.695-0.437,8.475c-8.224-0.999-16.395-2.305-24.57-3.772c0.019-0.121,0.042-0.242,0.045-0.375
	c0.152-6.978-0.859-13.791-0.785-20.718c0.078-7.277,0.277-14.547,0.167-21.828c-0.061-4.028-0.712-8.294-4.785-10.194
	c-3.942-1.839-10.443-1.75-14.785-1.956c-4.793-0.227-10.746-1.735-15.228,0.88c-3.718,2.17-5.046,6.553-5.452,10.587
	c-0.563,5.581,0.562,11.429,0.604,17.055c0.043,5.663,0.7,11.338,1.621,16.935c-4.119-1.168-8.175-2.237-12.145-3.657
	c0.219-15.363-1.993-30.865-3.144-46.18c-0.533-7.094-0.725-14.183-1.019-21.278c6.402,0.708,13.529-0.489,19.771-1.004
	c6.72-0.555,13.36-1.161,20.063-2.029c13.27-1.721,26.638-2.085,40-2.853c0.064-0.003,0.123-0.02,0.184-0.03
	c-0.344,10.217-0.447,20.444,0.034,30.702c0.552,11.748-0.582,23.458-0.598,35.187C170.411,481.704,170.895,487.02,170.88,492.382z
	 M171.151,405.896c-3.451-0.445-6.324,0.068-9.774,0.301c-3.366,0.227-6.693-0.026-10.049,0.351
	c-6.593,0.739-13.152,0.757-19.741,1.785c-13.497,2.108-27.467,1.744-40.767,5.002c-0.057-1.208-0.104-2.415-0.173-3.623
	c-0.191-3.374-0.21-6.839-0.234-10.324c26.857-3.785,54.286-4.832,81.315-5.904C171.519,397.62,171.318,401.757,171.151,405.896z
	 M171.938,389.324c-5.824-0.173-11.458,0.17-17.246,0.772c-8.158,0.849-16.255,0.865-24.396,1.477
	c-7.924,0.595-15.963,1.345-23.904,2.017c-4.931,0.418-11.191,0.511-16.01,2.62c-0.062-5.096-0.244-10.192-1.099-15.08
	c13.432-1.642,26.79-4.103,40.359-4.345c9.114-0.162,18.343,0.498,27.482,0.471c5.162-0.016,10.304-0.316,15.456-0.56
	C172.377,380.905,172.156,385.115,171.938,389.324z M196.709,439.313c-0.06,10.653,0.413,21.193,0.377,31.829
	c-0.018,5.261-0.023,10.52-0.034,15.781c-0.007,2.988-0.141,6.011,0.032,8.996c0.145,2.501,0.672,4.923,0.624,7.401
	c-2.972-0.308-5.945-0.595-8.92-0.771c-4.393-0.258-8.759-0.634-13.107-1.091c1.789-7.458-0.253-17.072-0.278-24.053
	c-0.042-12.07,1.146-24.178,0.333-36.262c-0.788-11.697-1.229-23.675-0.886-35.414c0.138-4.717,0.491-9.472,0.903-14.168
	c0.452-5.152,0.163-9.974-0.306-14.991c2.673-0.11,5.348-0.191,8.032-0.188c5.086,0.005,10.16-0.158,15.237-0.329
	C195.611,396.821,196.827,418.387,196.709,439.313z M284.136,504.717c-1.246,0.002-2.453,0.096-3.644,0.229
	c-2.461-0.024-4.931,0.076-7.328,0.11c-6.721,0.094-13.473,0.393-20.224,0.615c-4.963,0.163-9.911,0.196-14.862,0.167
	c-3.407-0.407-6.661-1.115-10.21-1.12c-0.657-0.001-1.315,0.002-1.973,0.003c0.811-7.773,1.81-15.576,1.902-23.41
	c0.092-7.863-0.54-15.84-0.609-23.74c-0.049-5.601-0.91-16.792,4.583-19.981c2.072,0.124,4.185,0.128,6.127,0.335
	c4.866,0.518,9.942,0.525,14.812,0.095c5.54-0.489,14.605,1.559,19.868-1.261c1.651-0.137,3.321-0.18,5.069,0.005
	c8.333,0.884,7.225,14.449,7.17,20.806c-0.069,7.899-0.701,15.877-0.609,23.74c0.092,7.835,1.091,15.638,1.902,23.41
	C285.452,504.719,284.794,504.715,284.136,504.717z M310.512,441.526c-0.064,11.206-0.644,22.288-0.667,33.499
	c-0.011,5.652-0.022,11.305-0.034,16.958c-0.009,3.983-0.76,7.921-0.629,11.864c-4.003,0.406-8.008,0.76-12.02,0.838
	c-2.596,0.05-5.194,0.05-7.793,0.043c0.662-9.686-0.9-19.499,0.09-29.14c0.969-9.45,0.614-19.658-0.306-29.098
	c-0.683-7.012-1.573-13.101-9.606-14.298c-4.539-0.675-9.592-0.738-14.003,0.79c-1.363-0.01-2.682-0.003-3.85-0.096
	c-3.6-0.287-7.006-0.232-10.614,0.085c-1.3,0.114-2.604,0.201-3.911,0.268c-4.572-1.794-9.926-1.759-14.708-1.046
	c-8.034,1.196-8.923,7.287-9.606,14.298c-0.92,9.441-1.276,19.65-0.306,29.098c0.989,9.643-0.573,19.456,0.09,29.14
	c-2.598,0.007-5.197,0.007-7.793-0.043c-4.012-0.077-8.017-0.431-12.02-0.838c0.132-3.943-0.62-7.881-0.629-11.864
	c-0.012-5.652-0.023-11.305-0.035-16.958c-0.024-11.21-0.604-22.293-0.667-33.499c-0.065-11.417-0.118-22.833-0.195-34.25
	c0.953,0.06,2.001-0.086,3.079-0.107c5.018-0.093,10.046-0.273,15.054-0.537c5.698-0.3,11.376,0.264,17.049,0.234
	c5.646,0.296,11.452-0.051,17.123,0.035c4.499,0.068,8.933,0.444,13.439,0.32c3.257-0.09,6.893,0.006,10.368-0.363
	c5.046-0.074,10.098-0.491,15.163-0.225c5.009,0.263,10.037,0.444,15.054,0.537c1.079,0.02,2.126,0.168,3.079,0.107
	C310.629,418.693,310.575,430.109,310.512,441.526z M308.455,402.871c-2.095-0.449-4.439-0.717-6.588-0.898
	c-4.131-0.345-8.713-0.788-12.836-0.502c-4.652,0.321-9.087,0.751-13.724,0.133c-3.314-0.443-6.693-0.246-9.954,0.472
	c-3.92-0.032-7.815-0.249-11.749-0.196c-2.298,0.031-4.601,0.117-6.904,0.208c-3.276-0.728-6.671-0.928-10.002-0.483
	c-4.639,0.619-9.072,0.19-13.724-0.133c-4.123-0.285-8.705,0.157-12.836,0.502c-2.148,0.18-4.492,0.448-6.588,0.898
	c-0.68,0.145-1.474,0.464-2.256,0.75c0.015-4.224,0.277-8.483,0.46-12.739c6.684,0.606,13.716,0.19,20.385,0.209
	c1.016,0.002,2.012-0.082,3.004-0.19c7.21,0.497,14.413,0.465,21.773,0.085c6.516-0.337,12.992-0.213,19.533-0.187
	c5.375,0.022,10.77,0.418,16.051-0.342c2.452,0.131,4.859,0.64,7.369,0.632c6.669-0.019,13.7,0.397,20.385-0.209
	c0.183,4.256,0.445,8.515,0.46,12.739C309.93,403.335,309.135,403.018,308.455,402.871z M310.123,387.075
	c-5.837-1.54-12.762-0.709-18.549-0.631c-4.543,0.061-8.536-0.779-12.688-0.191c-10.302-1.37-21.512-0.326-31.435,0.522
	c-3.605,0.308-7.254,0.346-10.913,0.314c-5.451-1.949-10.335-0.569-16.109-0.647c-5.787-0.078-12.711-0.909-18.549,0.631
	c0.09-3.722,0.044-7.434-0.375-11.114c3.089-0.102,6.18-0.199,9.276-0.249c5.695-0.093,12.035-0.086,18.044-0.873
	c0.102,0,0.207-0.001,0.308-0.001c8.241,0.126,16.489-0.706,24.751-0.689c8.934,0.018,17.854,0.363,26.788,0.31
	c6.722,1.171,14.055,1.147,20.549,1.253c3.096,0.05,6.187,0.146,9.276,0.249C310.078,379.641,310.033,383.354,310.123,387.075z
	 M336.6,477.405c-0.025,6.981-2.067,16.596-0.278,24.053c-4.348,0.456-8.713,0.832-13.107,1.091
	c-2.976,0.175-5.947,0.463-8.92,0.771c-0.047-2.478,0.48-4.9,0.624-7.401c0.174-2.985,0.039-6.007,0.032-8.996
	c-0.011-5.261-0.016-10.52-0.034-15.781c-0.036-10.636,0.437-21.176,0.377-31.829c-0.118-20.925,1.098-42.492-2.007-63.26
	c5.077,0.17,10.152,0.333,15.237,0.329c2.684-0.002,5.36,0.078,8.032,0.188c-0.47,5.017-0.758,9.839-0.306,14.991
	c0.412,4.695,0.765,9.451,0.903,14.168c0.343,11.739-0.099,23.717-0.886,35.414C335.455,453.226,336.643,465.334,336.6,477.405z
	 M391.067,467.386c-0.132,4.505-0.507,8.997-0.648,13.502c-0.116,3.703-0.878,7.366-0.679,11.08c-3.603,1.046-7.24,2.009-11,2.751
	c-2.643,0.522-5.282,1.024-7.921,1.516c-0.068-10.01,0.526-19.912,0.461-29.95c-0.017-2.693-0.017-5.388-0.023-8.081
	c-0.006-2.312-0.688-6.676,0.64-8.704c1.724-2.633,9.129-2.506,12.133-2.768c1.893-0.166,4.626-0.649,7.35-0.866
	c-0.06,1.343-0.389,2.86-0.438,3.997c-0.087,2.026,0.319,3.761,0.43,5.78C391.584,459.48,391.18,463.548,391.067,467.386z
	 M401.905,460.894c-0.46,4.623,0.096,9.306-0.126,13.94c-0.218,4.548-0.65,9.02-0.2,13.554c-2.53,0.752-5.029,1.53-7.528,2.293
	c0.666-2.668,0.592-5.653,0.663-8.323c0.137-5.265,0.429-10.557,0.365-15.826c-0.055-4.557,0.15-9.163-0.491-13.666
	c-0.309-2.163-0.141-4.83-0.723-7.107c2.067,0.006,3.969,0.288,5.299,1.136C403.605,449.727,402.329,456.645,401.905,460.894z
	 M420.02,437.637c-1.151,15.314-3.363,30.817-3.144,46.18c-3.97,1.42-8.026,2.489-12.145,3.657
	c0.92-5.597,1.579-11.271,1.621-16.935c0.042-5.627,1.167-11.476,0.604-17.055c-0.406-4.034-1.734-8.418-5.452-10.587
	c-4.482-2.615-10.435-1.107-15.228-0.88c-4.342,0.205-10.845,0.117-14.785,1.956c-4.073,1.901-4.724,6.166-4.785,10.194
	c-0.111,7.281,0.089,14.55,0.167,21.828c0.075,6.927-0.936,13.74-0.784,20.718c0.003,0.133,0.025,0.253,0.045,0.375
	c-8.175,1.466-16.346,2.773-24.57,3.771c0.134-2.78-0.43-5.667-0.437-8.475c-0.015-5.362,0.469-10.678,0.461-16.051
	c-0.016-11.73-1.149-23.44-0.598-35.187c0.481-10.258,0.378-20.485,0.034-30.702c0.061,0.009,0.12,0.025,0.184,0.03
	c13.363,0.768,26.73,1.133,40,2.853c6.702,0.869,13.343,1.475,20.063,2.029c6.242,0.515,13.37,1.713,19.771,1.004
	C420.746,423.454,420.554,430.543,420.02,437.637z M421.356,409.711c-0.068,1.208-0.116,2.415-0.173,3.623
	c-13.3-3.257-27.269-2.894-40.767-5.002c-6.59-1.028-13.147-1.046-19.74-1.785c-3.357-0.377-6.683-0.124-10.049-0.351
	c-3.451-0.233-6.324-0.745-9.774-0.301c-0.167-4.139-0.368-8.276-0.577-12.413c27.028,1.073,54.458,2.118,81.315,5.904
	C421.566,402.871,421.547,406.336,421.356,409.711z M405.612,393.59c-7.94-0.672-15.98-1.421-23.904-2.017
	c-8.141-0.612-16.239-0.628-24.396-1.477c-5.788-0.602-11.422-0.944-17.246-0.772c-0.218-4.208-0.439-8.418-0.645-12.629
	c5.153,0.244,10.295,0.545,15.456,0.56c9.139,0.027,18.368-0.633,27.482-0.471c13.57,0.242,26.927,2.702,40.359,4.345
	c-0.854,4.888-1.036,9.984-1.099,15.08C416.803,394.1,410.543,394.006,405.612,393.59z M435.655,405.477
	c-0.061,10.799-0.252,21.743-0.658,32.551c-0.304,8.084-1.196,15.896-2.012,23.887c-0.382,3.743-0.242,7.62-1.305,11.286
	c-1.21,4.17-4.969,6.217-8.66,8.044c-0.403,0.2-0.809,0.378-1.213,0.564c0.626-14.927,1.973-29.816,2.765-44.778
	c0.482-9.113,0.53-18.208,1.049-27.32c0.524-9.208,1.271-19.081-0.289-28.278c3.742,0.424,7.491,0.774,11.254,0.975
	C435.398,390.018,435.699,397.709,435.655,405.477z M463.918,396.917c-7.179,2.286-14.97,2.497-22.317,4.427
	c-0.218-6.377-0.981-12.421-1.899-18.744c8.098,0.473,16.075,1.297,24.092,2.631c5.299,0.882,11.452,2.172,17.073,1.86
	C477.72,392.265,468.166,395.564,463.918,396.917z M437.214,376.173c-18.354-0.278-36.535-3.888-54.854-5.079
	c-9.079-0.59-18.389-0.878-27.482-1.204c-8.827-0.316-17.486-1.23-26.352-1.222c-9.124,0.008-18.17-0.506-27.304-0.379
	c-4.518,0.062-8.992-0.163-13.499-0.177c-3.43-0.01-7.195-0.228-10.663,0.301c-7.38-0.007-14.773-0.392-22.141-0.386
	c-6.074,0.006-12.115,0.457-18.158,0.747c-3.934-0.976-8.437-0.675-12.477-0.662c-4.507,0.015-8.982,0.239-13.499,0.177
	c-9.134-0.126-18.18,0.387-27.304,0.379c-8.865-0.008-17.525,0.907-26.352,1.222c-9.094,0.326-18.404,0.614-27.482,1.204
	c-18.321,1.191-36.501,4.801-54.854,5.079c-15.096,0.229-29.71,3.428-44.459,5.902c0.989-3.26,7.735-5.545,10.353-7.124
	c3.821-2.304,7.78-4.441,11.248-7.263c3.547-2.887,7.075-5.678,10.777-8.362c3.164-2.295,6.771-3.569,9.879-5.868
	c6.817-5.044,14.066-9.541,21.443-13.739c7.81-4.445,17.592-6.122,26.354-7.25c9.867-1.271,19.838-3.507,29.77-4.093
	c7.585-0.448,15.221-0.773,22.784-1.344c11.194-0.843,22.561,0.383,33.736-0.548c4.174-0.347,8.362-0.569,12.557-0.76
	c2.239-0.015,4.491-0.161,6.73-0.297c1.384-0.061,2.768-0.127,4.152-0.196c0.348-0.009,0.696-0.017,1.043-0.02
	c7.146-0.064,14.313-0.177,21.462-0.336c11.243-0.25,23.566,1.596,35.12,0.629c5.877,0.255,11.748,0.496,17.591,0.982
	c11.174,0.931,22.542-0.295,33.736,0.548c7.563,0.57,15.199,0.896,22.784,1.344c9.932,0.586,19.903,2.823,29.77,4.093
	c8.761,1.128,18.544,2.806,26.354,7.25c7.377,4.198,14.627,8.695,21.443,13.739c3.108,2.299,6.714,3.573,9.879,5.868
	c3.701,2.684,7.231,5.475,10.777,8.362c3.467,2.822,7.426,4.959,11.248,7.263c2.618,1.579,9.366,3.866,10.353,7.124
	C466.925,379.6,452.31,376.403,437.214,376.173z"/>
<path d="M276.852,175.065c-0.229-2.351,0.19-3.68-1.278-5.759c-1.797-2.546-4.564-3.953-7.544-4.544
	c-4.311-2.846-12.179-1.635-16.821-1.161c-2.579,0.263-7.223,0.414-10.106,2.034c-1.839,0.783-3.473,1.971-4.673,3.672
	c-1.468,2.079-1.049,3.408-1.278,5.759c-0.297,3.053-0.807,5.646-0.83,8.821c-0.036,5.021-1.968,14.522,2.345,18.292
	c3.069,2.683,9.791,2.358,14.131,1.676c0.973,0.014,1.934,0.012,2.859,0.012c2.358,0.001,4.863,0.056,7.36-0.044
	c4.331,0.701,11.204,1.077,14.319-1.646c4.313-3.77,2.381-13.271,2.345-18.292C277.659,180.713,277.15,178.118,276.852,175.065z
	 M270.467,199.251c-0.306,0.107-0.63,0.175-0.962,0.225c-4.743-1.534-10.477-0.174-15.358-0.002
	c-3.29,0.116-7.605-0.757-11.136,0.06c-0.514-0.043-1.012-0.123-1.473-0.283c-4.182-1.461-3.06-9.131-3.18-12.81
	c-0.133-4.047-0.496-7.986,0.245-11.956c0.552-2.955,2.231-4.637,4.407-5.738c2.988-0.151,6.082-0.774,8.924-0.941
	c2.391-0.14,4.746-0.311,7.146-0.297c2.129,0.012,4.14,0.155,6.281,0.306c0.067,0.005,0.94,0.075,1.695,0.126
	c3.086,1.053,5.641,2.758,6.347,6.544c0.741,3.97,0.378,7.908,0.245,11.956C273.527,190.119,274.649,197.789,270.467,199.251z"/>
<g>
</g>
<g>
</g>
<g>
</g>
<g>
</g>
<g>
</g>
<g>
</g>
<g>
</g>
<g>
</g>
<g>
</g>
<g>
</g>
<g>
</g>
<g>
</g>
<g>
</g>
<g>
</g>
<g>
</g>
</svg>
