<?xml version="1.0" encoding="iso-8859-1"?>
<!-- Generator: Adobe Illustrator 19.0.0, SVG Export Plug-In . SVG Version: 6.00 Build 0)  -->
<svg version="1.1" id="Layer_1" xmlns="http://www.w3.org/2000/svg" xmlns:xlink="http://www.w3.org/1999/xlink" x="0px" y="0px"
	 viewBox="0 0 512.006 512.006" style="enable-background:new 0 0 512.006 512.006;" xml:space="preserve">
<path style="fill:#DDDDDD;" d="M408.451,164.287c0.094,0.061-11.813,7.809-13.093,8.418c-4.807,2.289-9.833,4.071-14.841,5.863
	c-5.006,1.791-9.867,4.111-14.874,5.839c-5.178,1.786-10.3,3.151-14.663,6.758c-1.206,0.997-2.402,2.42-2.063,3.95
	c0.196,0.883,0.868,1.571,1.511,2.207c10.722,10.612,23.58,19.818,36.726,27.372c6.638,3.815,13.542,7.163,20.663,9.977
	c3.77,1.489,7.6,2.83,11.474,4.019c1.559,0.478,9.85,3.854,11.044,2.961c-4.515,3.377-7.184,6.085-10.406,7.653
	c-5.967,2.902-12.019,5.623-18.061,8.368c-4.831,2.194-9.107,4.646-14.311,5.779c-2.754,0.6-5.714,1.64-7.11,4.088
	c-0.858,1.503-0.978,3.3-1.079,5.028c-0.197,3.373-0.394,6.747-0.591,10.121c-0.039,0.677-0.048,1.441,0.427,1.925
	c0.439,0.447,1.134,0.488,1.762,0.502c8.231,0.176,16.363,0.805,24.564,0.946c8.204,0.141,16.6,0.133,24.434,2.902
	c0.433,2.205,1.504,4.196,0.909,5.145c-9.063,14.461-7.439,28.858-1.81,44.239c15.676,42.829,30.632,85.924,45.657,128.99
	c3.696,10.595,8.368,21.056,8.759,33.562c-3.726,1.038-6.66,2.517-9.623,2.578c-39.879,0.831-79.716,5.072-119.659,1.489
	c-4.836-0.433-9.822-0.215-14.647,0.405c-42.993,5.527-86.217,1.434-129.297,3.202c-4.861,0.199-9.842-0.064-14.626-0.913
	c-22.692-4.023-45.478-1.555-68.25-1.695c-31.668-0.193-63.329-1.746-93.897-2.683c-4.935-8.259-1.829-14.387,0.256-20.398
	c10.948-31.556,22.089-63.044,33.106-94.575c6.178-17.684,11.796-35.579,18.511-53.053c4.958-12.901,6.66-25.082-1.187-37.391
	c-1.217-1.91-1.192-4.614-1.981-7.968c16.092-6.621,33.826-1.641,49.532-6.612c3.482-8.741,2.371-15.186-5.745-19.079
	c-10.278-4.931-20.726-9.505-31.022-14.398c-3.449-1.64-6.656-3.789-12.707-7.285c32.897-9.145,59.026-23.736,81.89-47.018
	c-17.379-16.506-40.508-16.998-59.3-30.339c3.94-3.14,6.517-5.787,9.599-7.559c42.669-24.545,80.645-55.027,115.519-89.678
	c6.863-6.819,12.548-14.973,15.088-24.403c1.184-4.397,2.136-9.677,1.493-14.236c-0.684-4.845-4.185-9.215-4.159-14.158
	c0.017-3.386,2.042-6.544,4.761-8.56c4.61-3.419,9.461-3.821,14.76-2.089c7.587,2.48,9.005,9.682,6.162,16.525
	c-1.215,2.923-2.747,5.868-2.667,9.032c0.073,2.935,1.526,5.627,2.614,8.354c1.288,3.233,0.717,6.405,1.603,9.616
	c0.962,3.485,2.888,6.927,4.815,9.956c3.855,6.059,8.953,11.243,14.399,15.883c24.793,21.123,50.021,41.782,75.798,61.689
	C378.042,145.899,393.006,154.258,408.451,164.287z"/>
<g>
	<path style="fill:#B7B7B7;" d="M149.917,181.703c11.539,0.339,24.805-6.019,36.457-7.601c17.136-2.326,34.186-3.202,51.421-3.909
		c18.92-0.776,37.706,2.379,56.492,1.736c16.018-0.548,31.99,1.871,47.667,4.917c3.044,0.592,19.214,1.818,17.735,6.701
		c-1.287,4.253-12.893,2.051-15.836,1.781c-7.006-0.642-13.946-1.483-20.94-2.436c-18.939-2.58-38.844-1.804-57.938-2.55
		c-19.931-0.779-37.924,1.288-57.324,5.496c-9.881,2.144-19.654,3.211-29.616,4.79c-5.021,0.797-12.939,2.205-17.592-0.566
		C156.204,187.539,155.822,181.877,149.917,181.703z"/>
	<path style="fill:#B7B7B7;" d="M239.053,271.068c33.995-4.741,71.091-5.526,104.965,0.288c7.701,1.321,37.358,11.273,32.941-5.159
		c9.035,1.747-6.865-1.926-10.628-2.889c-8.665-2.22-16.605-5.222-24.868-8.463c-7.73-3.032-15.325-7.699-23.016-10.516
		c-5.683-2.082-12.48-1.703-18.629-1.697c-28.525,0.027-57.6-2.118-85.97-1.149c-8.465,0.289-16.113,4.258-23.845,7.36
		c-13.905,5.577-28.252,10.087-42.377,15.069c-5.111,1.803-13.104,1.983-14.981,7.146c-2.686,7.39,6.427,10.428-2.38,15.004
		c-4.926,2.56-11.683,2.634-17.116,3.108c-5.575,0.485-26.176-4.843-30.146-0.223c-4.563,5.31,8.279,21.582,9.434,27.69
		c1.917,10.14-3.948,23.824-7.026,33.483c-4.801,15.072-11.413,28.938-17.819,43.348C55.443,420.807,45.2,449.01,35.015,477.056
		c-2.261,6.225-9.558,16.283-4.318,21.932c4.484,4.834,16.505,4.548,22.338,4.597c16.193,0.137,32.238-3.164,48.412-2.327
		c12.912,0.668,25.838,2.441,38.744,2.917c8.73,0.322,17.525-0.47,26.248-0.043c1.515,0.075,3.153,0.291,4.827,0.486
		c2.492,2.294,7.347,3.702,10.438,4.041c6.967,0.765,7.054-3.698,7.31-9.618c0.524-12.118-1.87-27.052,3.436-38.277
		c2.688-5.687,1.772-13.179,2.502-19.216c0.847-6.991,0.761-13.993,0.935-21.067c0.312-12.704,4.632-24.792,5.3-37.378
		c0.589-11.101,8.555-20.085,9.656-31.262c-0.131,1.328-7.96,6.852-9.25,8.348c-3.113,3.616-5.67,7.672-7.781,11.942
		c-4.265,8.626-6.584,18.1-8.129,27.553c-1.591,9.731-1.293,19.255-4.428,28.727c-3.406,10.291-8.746,20.047-10.071,30.941
		c-0.768,6.316-0.786,12.641-0.808,18.959c-4.601-3.714-9.133-7.504-13.277-11.771c-10.925-11.246-16.879-23.175-22.325-37.774
		c-10.064-26.973-20.284-61.742-3.482-88.286c11.675-18.443,29.882-31.766,47.414-44.212c11.307-8.028,23.952-14.849,37.295-19.524
		c-0.104,5.912-0.273,11.796-0.531,17.578c-0.58,12.992-2.016,24.027,12.685,27.646c12.088,2.974,28.092,5.84,40.415,4.163
		c4.33-0.59,11.077-1.131,14.004-4.697c2.683-3.271,1.246-8.384,2.359-12.04c-10.368-1.633-21.767,1.506-32.605,1.013
		c-7.48-0.34-21.258,3.42-26.199-3.453c-5.321-7.403-2.004-23.036-0.527-33.155C230.037,272.632,234.525,271.7,239.053,271.068z"/>
	<path style="fill:#B7B7B7;" d="M480.396,492.826c-4.314-8.762-26.687-10.126-34.562-12.351
		c-33.134-9.363-59.401-33.48-71.896-65.61c-10.328-26.556-20.135-64.259-9.695-92.196c3.283-8.786,27.628-33.836,8.692-35.205
		c-11.663,0.461-23.367-1.585-35.062-0.575c-20.92,1.806-17.348,33.857-16.699,48.808c1.013,23.314,8.047,45.289,4.5,68.533
		c-2.234,14.639-4.752,29.376-6.165,43.999c-1.035,10.72,1.855,21.258,2.858,31.792c0.538,5.65,0.865,11.396,1.134,17.07
		c0.407,8.573,1.488,8.6,10.553,8.189c25.254-1.145,50.014,0.47,75.27-1.679c12.058-1.025,24.209-0.141,36.324-0.719
		c8.551-0.407,18.9,1.188,27.274-0.563C477.755,501.31,483.192,498.505,480.396,492.826z"/>
</g>
<path style="fill:#4C4C4C;" d="M244.182,369.852c-11.728,0.01-16.635,20.343-17.627,28.679c-1.703,14.336-3.104,28.831-3.066,43.269
	c0.032,12.185,0.767,24.304,0.767,36.482c0,6.422-0.184,12.798-0.382,19.187c-0.084,2.72-0.965,7.322,1.495,8.816
	c0.861,0.524,4.79,0.226,5.852,0.279c3.885,0.195,7.719-0.274,11.608-0.296c7.028-0.042,13.896,0.261,20.925-0.087
	c4.432-0.219,8.97-0.232,13.372-0.671c2.485-0.247,7.938,0.646,10.178-0.394c5.223-2.426,2.094-24.838,2.094-30.46
	c0.001-15.769,2.031-31.351,0.487-47.125c-0.82-8.373-2.78-16.692-4.03-25.019c-0.99-6.595-0.794-13.803-4.154-19.781
	C275.034,370.867,261.171,365.555,244.182,369.852z"/>
<g>
	<path style="fill:#B7B7B7;" d="M218.126,346.862c-6.312,2.79-9.799,12.759-11.832,18.772c-2.623,7.762-4.234,15.967-5.517,24.049
		c-2.251,14.175-3.005,28.456-4.121,42.739c-0.743,9.511-0.199,20.192-3.915,29.013c-4.479,10.632-3.432,24.941-4.087,36.406
		c-0.525,9.179,8.171,9.751,15.569,10.334c4.751,0.374,12.672,2.448,16.59-0.898c4.203-3.59,5.612-15.407,0.128-17.598
		c-3.17-1.268-5.418-0.169-8.296-2.634c-3.41-2.921-4.586-7.243-5.266-11.492c-2.15-13.424-0.662-27.737-0.077-41.239
		c0.702-16.206,1.834-32.426,4.185-48.486c1.992-13.615,6.553-24.441,17.753-32.843c3.111-2.335,16.485-7.792,12.702-12.645
		C237.214,334.277,221.385,342.889,218.126,346.862z"/>
	<path style="fill:#B7B7B7;" d="M277.136,376.367c16.992,31.278,10.154,70.493,11.963,104.759c0.339,6.415,0.017,12.847,0.29,19.267
		c0.358,8.435,2.547,7.902,10.3,7.79c3.192-0.045,5.096,0.508,6.67-2.348c2.43-4.408,0.918-13.043,1.039-17.787
		c0.409-16.089,2.656-33.304-0.02-49.235c-2.117-12.608-5.745-25.437-9.454-37.656C295.602,393.51,291.632,378.604,277.136,376.367z
		"/>
</g>
<path style="fill:#C19E81;" d="M247.632,241.101c-6.19,0-11.928,0.12-17.892,1.616c-1.97,0.494-3.652,0.405-4.729,1.985
	c-1.775,2.605,0.405,12.114,0.396,15.276c-0.027,10.835-1.04,21.978-0.021,32.724c0.356,3.753-0.093,14.124,3.649,15.852
	c2.807,1.297,8.783,0.261,11.91,0.648c4.768,0.592,9.346,1.517,14.155,1.687c6.429,0.228,13.153-0.491,19.537-0.816
	c4.45-0.228,8.029,0.213,9.963-4.204c2.61-5.96,2.1-15.865,2.424-22.249c0.387-7.603,0.382-15.27,0.461-22.878
	c0.06-5.78,4.363-18.694-3.416-19.611c-3.063-0.361-6.868,0.706-10.004,0.743c-4.941,0.059-9.929,0.155-14.864-0.042
	c-4.794-0.191-9.59-0.581-14.4-0.371c-3.302,0.146-7.436,1.578-10.58,0.403"/>
<g>
	<path style="fill:#A07A5F;" d="M226.939,243.784c-0.176,13.619-0.766,27.334-0.766,41.02c0,4.824-1.993,15.965,0.746,20.289
		c2.005,3.165,8.901,2.448,12.358,2.385c7.065-0.131,13.969,1.139,20.999,1.449c4.413,0.195,21.834,3.021,22.581-3.598
		c1.033-9.168-37.687-4.331-43.271-9.394c-8.562-7.763-3.044-24.367-3.881-34.536C235.488,258.756,236.346,237.356,226.939,243.784z
		"/>
	<path style="fill:#A07A5F;" d="M246.481,256.429c6.968,0.547,15.232-2.651,21.841,0.395c6.24,2.878,6.053,9.715,5.716,16.003
		c-0.154,2.872-3.786,17.758,0.987,16.388c4.579-1.313,5.048-12.759,5.484-15.956c0.767-5.636,1.417-11.981-2.224-16.735
		C271.323,247.435,258.334,247.439,246.481,256.429z"/>
</g>
<g>
	<path style="fill:#3948B2;" d="M164.097,197.035c-5.885,3.876-11.312,10.614-16.684,15.372
		c-5.356,4.743-11.441,9.507-17.709,13.026c-7.102,3.988-14.804,7.554-22.375,10.52c-3.705,1.451-14.258,4.674-15.233,8.999
		c3.844,3.163,13.782,1.222,18.268,0.853c7.935-0.653,16.011-0.918,23.901-1.908c18.884-2.368,38.29-9.246,54.374-19.433
		c3.875-2.454,8.857-6.622,13.459-5.874c6.108,0.992,11.188,6.223,17.371,7.565c9.987,2.167,20.744,1.849,30.881,1.151
		c12.42-0.855,24.973-1.143,37.321-2.768c8.586-1.129,17.077-5.08,25.671-5.643c6.091-0.4,9.754,2.492,14.354,6.016
		c15.9,12.183,35.023,16.87,54.416,20.328c10.543,1.881,21.896,2.561,32.576,2.758c2.522,0.046,6.583,0.832,6.952-2.375
		c0.48-4.16-9.74-6.788-12.083-7.998c-9.675-5.001-21.569-9.161-30.245-15.887c-6.816-5.285-13.095-11.434-19.78-16.867
		c-8.061-6.55-16.054-8.324-26.013-10.614c-17.35-3.99-34.294-7.909-52.147-8.715c-20.87-0.942-41.463-0.573-62.273,1.288
		C200.241,188.516,178.565,190.945,164.097,197.035z"/>
	<path style="fill:#3948B2;" d="M114.282,165.614c6.038,2.355,15.104,0.225,21.45,0.001c9.042-0.321,17.595-1.621,26.107-4.887
		c6.689-2.566,13.128-6.052,19.15-9.899c4.833-3.087,7.711-5.787,13.075-4.302c18.441,5.108,37.533,8.627,56.74,10.284
		c23.686,2.042,44.383-1.509,66.537-9.93c3.342-1.27,4.455-1.941,7.521-0.263c4.033,2.206,7.814,5.36,11.821,7.693
		c9.242,5.379,19.331,8.866,29.506,11.849c9.271,2.717,21.724,4.796,31.269,3.211c13.796-2.292-0.243-8.991-5.778-12.546
		c-13.218-8.496-26.68-17.253-39.583-26.376c-13.688-9.676-28.642-20.327-40.621-32.087c-10.191-10.004-19.636-20.832-29.464-31.122
		c-5.236-5.482-9.472-15.407-17.534-15.814c-4.828-0.245-9.757,0.403-14.565-0.086c-2.699-0.274-4.431-0.936-6.952,0.415
		c-5.89,3.157-9.907,11.511-13.739,16.555c-4.936,6.497-11.357,11.649-16.973,17.526c-14.056,14.708-30.653,26.836-47.266,38.47
		c-14.827,10.383-31.103,18.718-45.816,29.133c-3.587,2.539-6.227,5.236-8.227,9.13
		C112.622,164.725,114.743,166.496,114.282,165.614z"/>
</g>
<g>
	<path style="fill:#293B91;" d="M163.713,195.503c-5.086,5.595-11.742,10.616-17.532,15.699c-6.299,5.53-12.714,10.437-20.18,14.368
		c-3.902,2.054-37.79,16.079-35.887,20.522c1.274,2.973,16.85,0.488,19.971,0.355c8.129-0.349,15.997-0.242,24.028-1.981
		c18.774-4.066,36.059-9.281,51.951-19.987c3.725-2.51,8.991-6.397,13.566-6.282c7.076,0.177,14.865,3.863,21.771,5.385
		c17.828,3.929,35.413,4.015,53.651,2.587c9.801-0.767,19.37-1.314,28.821-4.247c7.825-2.428,11.84-3.01,18.547,1.067
		c4.82,2.93,16.563,11.681,22.673,8.55c9.341-4.785-13.34-13.465-16.531-14.557c-11.727-4.008-22.734-6.109-35.191-5.796
		c-11.787,0.296-23.295,3.678-35.071,4.528c-8.106,0.585-28.609,1.405-26.727-12.214c0.519-3.756,6.416-12.338,4.419-15.786
		c-4.142-7.15-21.1-0.762-27.077,0.021c-7.257,0.952-14.624,1.005-21.933,2.385c-3.99,0.754-7.949,1.657-11.898,2.598
		C172.738,193.276,165.262,193.801,163.713,195.503z"/>
	<path style="fill:#293B91;" d="M242.266,51.424c-13.344,17.871-28.112,33.603-45.15,48.011
		c-17.797,15.051-37.978,27.426-57.448,40.216c-8.165,5.364-16.588,10.437-24.449,16.212c-2.532,1.86-12.308,7.637-6.721,10.918
		c4.64,2.725,16.67-0.148,21.685-0.783c6.797-0.861,13.418-0.852,20.125-2.54c8.723-2.195,16.327-5.639,24.226-9.829
		c5.523-2.928,11.33-8.053,17.795-7.279c15.936,1.908,30.62,9.505,46.58,11.371c21.012,2.457,44.66,1.729,64.654-6.351
		c7.903-3.193,13.466-6.274,21.754-2.719c3.464,1.487,8.876,6.996,12.568,6.67c4.564-0.404,3.75-5.437,2.272-8.863
		c-7.859-18.213-40.904-8.96-54.999-7.267c-14.432,1.733-30.668,2.207-42.718-7.286c-11.39-8.974-8.271-23.665-2.815-35.203
		c4.475-9.464,9.821-18.793,12.631-28.94c0.908-3.278,2.742-9.266,1.516-12.8C252.236,50.536,246.441,50.397,242.266,51.424z"/>
</g>
<g>
	<path style="fill:#D37C50;" d="M252.996,257.196c-2.678-0.98-8.684-0.56-10.869,1.689c-2.212,2.276-1.622,8.231-1.79,11.329
		c-0.27,4.99-0.743,11.078,0.006,16.029c0.678,4.479,2.149,4.087,6.213,4.271c4.805,0.219,9.748,0.27,14.591,0.488
		c2.349,0.105,6.534,1.194,8.633-0.535c4.679-3.854,2.13-16.714,2.375-21.976c0.13-2.791,1.548-7.571-0.757-9.791
		C268.74,256.141,257.731,256.29,252.996,257.196z"/>
	<path style="fill:#D37C50;" d="M254.912,2.758c-7.168,1.703-10.761,4.616-12.165,11.856c-1.106,5.702,2.103,8.709,3.35,13.819
		c1.701,6.969-7.072,16.629,0.3,22.214c2.432,1.843,7.803,1.167,11.867,0.777c3.263-0.314,5.687,0.091,7.847-2.205
		c2.582-2.743,2.937-8.331,1.62-11.784c-1.719-4.508-3.05-5.625-1.773-10.813c1.036-4.21,4.373-10.2,3.524-14.655
		C268.493,6.773,261.178,0.95,254.912,2.758z"/>
</g>
<g>
	<path style="fill:#BA643E;" d="M257.977,256.812c-4.992-0.629-14.481-1.598-16.443,4.219c-1.686,4.997-1.465,13.038-1.198,18.342
		c0.124,2.445-0.184,6.444,1.057,8.582c2.56,4.411,10.612,3.892,15.227,4.11c2.906,0.137,8.041,1.558,10.548-0.608
		c3.28-2.834,0.601-8.855-2.452-11.115c-5.424-4.014-16.613-0.485-13.473-11.077C251.943,266.907,260.711,255.92,257.977,256.812z"
		/>
	<path style="fill:#BA643E;" d="M256.828,3.525c-3.453,7.25-8.673,29.091,2.224,33.068c2.626,0.958,5.671,0.168,7.311,2.377
		c1.901,2.562,0.651,7.662-0.012,10.479c-5.987-0.255-11.788,3.699-17.875,1.993c-5.803-1.626-4.932-6.928-4.291-12.111
		c0.787-6.372,3.83-8.944,0.859-15.517C240.96,14.78,241.114,5.895,256.828,3.525z"/>
</g>
<g>
	<path style="fill:#4C4C4C;" d="M99.581,250.202c9.413,6.727,20.052,12.321,30.858,16.157c5.173,1.837,10.141-0.542,15.438-2.35
		c10.831-3.7,21.453-8.069,32.345-11.517c9.784-3.097,20.522-7.684,30.857-8.299c12.737-0.759,25.616-2.842,38.401-2.167
		c15.857,0.838,31.863-0.367,47.78,0.305c10.809,0.456,20.857,1.121,31.086,5.19c11.182,4.45,22.669,8.336,33.694,13.219
		c8.817,3.906,16.671,8.44,26.362,4.144c6.95-3.082,13.131-7.804,20.083-10.98c2.637-1.205,9.262-3.738,5.07-6.994
		c-1.758-1.365-5.601-0.682-7.609-0.793c-3.413-0.188-6.813-0.548-10.231-0.718c-8.682-0.429-17.365-1.302-25.966-2.605
		c-13.639-2.068-24.542-6.601-35.653-14.367c-3.833-2.68-9.067-7.52-13.801-8.227c-6.654-0.994-14.782,3.598-21.188,4.877
		c-10.932,2.182-21.946,1.796-33.024,2.326c-9.533,0.455-19.135,1.456-28.663,0.381c-8.709-0.983-16.68-4.374-25.413-5.598
		c-4.007-0.562-7.647-1.785-11.508-2.617c-4.514-0.974-7.941,2.33-11.864,4.269c-7.5,3.71-14.618,8.632-22.447,11.653
		c-9.377,3.619-20.158,7.187-30.024,9.047c-7.017,1.323-13.307,2.391-20.509,2.124C111.04,246.563,97.765,245.538,99.581,250.202z"
		/>
	<path style="fill:#4C4C4C;" d="M199.937,171.304c-9.253,0.828-18.148,3.793-27.287,5.287c-7.116,1.164-13.514,5.767-20.542,6.797
		c-5.565,0.816-12.458-1.509-17.42-3.88c-3.18-1.52-21.36-5.5-20.853-9.394c0.619-4.76,17.25-2.561,20.216-2.29
		c8.783,0.801,18.443-0.803,26.517-4.411c3.635-1.625,7.185-3.654,10.539-5.803c3.857-2.473,6.737-5.932,10.992-7.729
		c5.8-2.45,13.033-0.347,18.949,1.14c8.518,2.141,16.248,5.51,25.235,6.634c10.876,1.362,21.553,1.332,32.496,1.341
		c12.342,0.01,24.102-1.636,36.104-4.587c4.664-1.146,8.95-3.356,13.512-4.958c3.078-1.08,7.898-3.576,11.252-3.416
		c4.39,0.209,9.093,4.724,12.685,6.896c6.813,4.122,14.45,8.068,22.068,10.491c10.186,3.24,20.504,3.163,31.076,3.148
		c1.97-0.002,9.007-0.756,10.408,1.009c2.239,2.819-3.426,4.106-5.3,5.002c-6.004,2.868-11.946,5.855-18.041,8.529
		c-3.339,1.465-7.057,3.811-10.739,3.092c-6.07-1.186-12.045-3.891-18.251-5.018c-8.576-1.558-17.034-4.04-25.685-5.216
		c-18.393-2.499-36.148-3.988-54.764-2.743c-9.369,0.625-18.716,1.351-28.106,1.34C221.596,172.553,208.256,170.8,199.937,171.304z"
		/>
</g>
<path d="M486.027,494.789c-3.17-8.718-5.398-17.937-8.742-26.625c-2.675-6.947-5.048-13.837-7.357-20.923
	c-2.556-7.844-5.555-15.553-8.149-23.267c-1.107-3.29-2.715-6.345-3.665-9.647c-0.887-3.078-1.671-6.153-2.781-9.195
	c-5.259-14.422-11.497-28.885-15.781-43.506c-1.187-4.051-3.138-7.795-4.284-11.909c-1.162-4.177-2.792-8.19-3.985-12.371
	c-1.221-4.276-2.758-8.374-4.121-12.589c-1.106-3.421-3.038-8.049-1.815-11.641c2.459-7.218,7.629-14.04,9.522-21.508
	c1.291-5.094-3.115-7.257-7.535-7.741c-3.611-0.396-7.324,0.511-11.018,0.359c-3.813-0.157-7.546-0.655-11.369-0.669
	c-7.936-0.031-15.73-0.591-23.683-0.455c0.333-2.516-0.012-5.129,0.349-7.666c0.22-1.545,0.203-3.46-0.139-5.227
	c3.359-1.118,6.767-3.16,9.507-4.445c5.682-2.665,11.416-5.253,17.061-7.995c5.313-2.582,10.731-4.466,16.16-6.742
	c4.339-1.818,8.134-3.378,10.989-7.218c0.595-0.8-0.082-1.977-0.965-2.204c-0.314-1.687-1.605-3.202-3.864-3.342
	c-8.007-0.494-17.521-3.679-24.764-6.884c-7.674-3.394-15.465-7.084-22.501-11.68c-6.271-4.095-12.269-8.279-18.282-12.749
	c-3.705-2.754-6.988-5.816-10.39-8.917c-0.838-0.763-1.934-1.528-3.027-2.314c5.058-2.864,9.605-6.781,15.199-8.87
	c6.307-2.357,12.738-3.98,18.829-6.891c6.421-3.069,13.227-5.144,19.798-7.81c1.684-0.683,3.514-1.354,4.642-2.872
	c0.163-0.218,0.403-0.886,0.592-1.494c1.423-1.068,2.001-3.137,1.036-4.856c-2.572-4.586-9.218-6.234-13.563-8.375
	c-6.608-3.258-13.009-7.804-19.072-11.977c-13.184-9.079-27.362-17.456-39.249-28.219c-5.491-4.973-11.717-8.922-17.212-13.873
	c-6.015-5.419-12.505-10.142-18.474-15.576c-5.127-4.667-10.748-8.966-15.551-13.969c-4.324-4.504-7.75-9.817-12.062-14.35
	c-3.847-4.044-6.771-7.146-5.357-12.921c0.653-2.67,1.456-4.493,0.24-7.23c-1.766-3.97-5.013-4.143-2.627-9.813
	c2.456-5.835,5.698-12.144,2.633-18.576c-1.435-3.011-4.572-5.579-7.931-6.147c-3.285-2.861-10.022-1.952-13.59-0.763
	c-2.199,0.732-7.97,2.812-8.296,5.889c-0.209,0.334-0.406,0.674-0.573,1.024c-3.065,6.432,0.177,12.741,2.633,18.576
	c2.386,5.67-0.861,5.841-2.627,9.813c-1.217,2.736-0.414,4.56,0.24,7.23c1.413,5.775-1.511,8.877-5.358,12.922
	c-9.21,9.682-17.743,19.336-27.613,28.319c-5.97,5.434-12.459,10.157-18.475,15.576c-5.495,4.952-11.72,8.9-17.212,13.873
	c-11.887,10.764-26.065,19.141-39.249,28.219c-6.062,4.174-12.463,8.719-19.072,11.977c-4.344,2.141-10.991,3.789-13.563,8.375
	c-0.964,1.719-0.387,3.788,1.036,4.856c0.19,0.608,0.431,1.276,0.592,1.494c1.128,1.516,2.959,2.189,4.642,2.872
	c6.572,2.666,13.378,4.741,19.798,7.81c6.091,2.911,12.523,4.535,18.829,6.891c5.593,2.09,10.14,6.005,15.199,8.87
	c-1.091,0.786-2.188,1.549-3.027,2.314c-3.403,3.1-6.686,6.162-10.39,8.917c-6.014,4.471-12.012,8.654-18.282,12.749
	c-7.037,4.594-14.827,8.286-22.501,11.68c-7.242,3.203-16.757,6.389-24.764,6.884c-2.26,0.139-3.551,1.654-3.864,3.342
	c-0.882,0.226-1.559,1.403-0.965,2.204c2.855,3.841,6.65,5.401,10.989,7.218c5.43,2.275,10.848,4.16,16.16,6.742
	c5.644,2.743,11.378,5.33,17.061,7.995c2.738,1.285,6.148,3.327,9.507,4.445c-0.344,1.767-0.36,3.682-0.139,5.227
	c0.361,2.536,0.016,5.15,0.349,7.666c-7.953-0.136-15.747,0.423-23.683,0.455c-3.824,0.016-7.557,0.513-11.369,0.669
	c-3.694,0.153-7.407-0.755-11.018-0.358c-4.419,0.485-8.827,2.649-7.535,7.741c1.894,7.467,7.064,14.289,9.522,21.508
	c1.224,3.592-0.708,8.22-1.815,11.641c-1.363,4.214-2.9,8.313-4.121,12.589c-1.194,4.181-2.824,8.194-3.985,12.371
	c-1.144,4.115-3.097,7.858-4.284,11.909c-4.285,14.623-10.523,29.085-15.781,43.506c-1.11,3.042-1.894,6.118-2.781,9.195
	c-0.951,3.3-2.558,6.355-3.665,9.647c-2.594,7.715-5.594,15.423-8.149,23.267c-2.309,7.086-4.683,13.975-7.357,20.923
	c-3.345,8.688-5.572,17.907-8.742,26.625c-1.635,4.494-2.314,9.283,3.647,10.995c2.814,0.809,6.443,1.197,9.35,0.964
	c4.431-0.355,8.43-0.092,12.868-0.034c9.286,0.119,18.582,1.011,27.814,1.938c9.983,1.002,20.181-0.158,30.227,0.789
	c8.271,0.781,16.857-0.049,25.068-0.773c4.361-0.385,8.392,0.481,12.694,0.666c3.628,0.157,7.158-0.817,10.728-1.246
	c0.841,0.144,1.715,0.192,2.638,0.103c0.202-0.02,0.748-0.082,1.232-0.163c0.58,0.219,1.312,0.44,1.472,0.481
	c3.504,0.874,7.738,0.275,11.257-0.029c4.182-0.361,8.37,1.058,12.551,1.401c8.272,0.677,16.539,1.943,24.804,2.105
	c2.695,0.053,6.745,0.029,9.327-0.612c1.279-0.317,2.267-0.834,3.049-1.577c3.088,0.825,6.66,0.821,9.549,1.22
	c6.5,0.898,12.507,0.767,19.067,0.416c6.256-0.334,12.457-0.428,18.684-1.051c4.791-0.48,10.718,1.331,14.716-1.216
	c0.857,1.09,2.01,1.808,3.625,2.209c2.582,0.64,6.632,0.664,9.327,0.612c8.265-0.161,16.531-1.428,24.804-2.105
	c4.181-0.343,8.369-1.762,12.551-1.401c3.52,0.303,7.752,0.903,11.257,0.029c0.16-0.04,0.892-0.262,1.472-0.481
	c0.485,0.081,1.03,0.143,1.232,0.163c0.923,0.089,1.797,0.042,2.638-0.103c3.57,0.428,7.1,1.402,10.728,1.246
	c4.301-0.185,8.334-1.051,12.694-0.666c8.211,0.724,16.797,1.554,25.068,0.773c10.045-0.947,20.244,0.214,30.227-0.789
	c9.233-0.927,18.528-1.819,27.814-1.938c4.438-0.056,8.439-0.319,12.868,0.034c2.907,0.232,6.536-0.155,9.35-0.964
	C488.341,504.072,487.662,499.284,486.027,494.789z M357.752,209.18c6.857,6.121,14.229,11.487,21.532,17.02
	c7.763,5.882,17.202,10.547,26.169,14.294c3.157,1.319,6.433,2.168,9.727,3.001c-1.423,0.023-2.875-0.038-4.388-0.228
	c-6.889-0.863-13.973-0.53-20.901-1.203c-16.972-1.649-32.796-5.34-48.087-13.086c-5.889-2.983-11.685-6.082-17.355-9.327
	c-1.11-0.636-2.109-1.562-3.147-2.432c-0.071-0.257-0.213-0.499-0.445-0.671c-5.866-4.345-11.992-8.998-17.355-13.93
	c-3.906-3.592-6.891-7.975-10.173-12.028c0.065,0.009,0.13,0.013,0.195,0.022c6.35,0.793,12.765,1.523,19.157,2.123
	c6.782,0.636,13.102,1.903,19.729,3.4c4.286,0.969,9.719,2.901,14.208,1.755C349.293,202.295,354.87,206.608,357.752,209.18z
	 M313.181,215.557c-0.329,0.11-0.668,0.224-1.03,0.334c-7.188,2.201-14.85,4.427-22.277,5.564c-1.505,0.231-3.012,0.51-4.521,0.789
	c-2.596-0.22-5.396,0.251-7.771,0.701c-6.941,1.318-14.232,1.828-21.278,1.116c-2.825-0.285-5.494-0.4-8.339-0.261
	c-2.453,0.12-4.843-0.536-7.267-0.403c-0.207,0.011-1.296,0.086-2.711,0.201c-1.378-0.104-2.791-0.126-4.301-0.272
	c-3.862-0.371-7.716-1.284-11.554-1.872c-7.427-1.137-15.088-3.361-22.277-5.564c-0.362-0.111-0.7-0.224-1.03-0.334
	c0.057-0.039,0.114-0.078,0.171-0.116c3.617-2.464,7.251-4.86,10.631-7.655c5.961-4.927,12.124-11.04,16.261-17.732
	c2.536-0.164,5.004-0.421,7.5-1.132c0.903,0.015,1.806,0.028,2.708,0.045c7.538,0.148,15.532-0.745,22.971,0.035
	c6.009,0.631,12.02,0.33,18.065,0.373c2.535,0.018,5.631,0.569,8.611,0.651c0.124,0.009,0.246,0.02,0.368,0.027
	c4.138,6.692,10.301,12.805,16.261,17.732c3.381,2.795,7.015,5.19,10.631,7.655C313.067,215.479,313.124,215.518,313.181,215.557z
	 M383.701,173.227c-6.582,2.869-13.416,4.41-20.185,6.742c-0.02,0.006-0.037,0.015-0.056,0.022
	c-1.276-0.355-2.593-0.581-3.888-0.845c-4.218-0.865-8.347-1.861-12.486-3.052c-9.027-2.596-18.126-4.823-27.486-5.77
	c-2.639-0.267-5.289-0.531-7.946-0.772c2.711-3.868,5.598-7.646,8.657-11.258c1.696-2.003,3.786-4.125,5.149-6.519
	c0.502,0.385,1.042,0.79,1.662,1.186c3.424,2.185,6.916,4.037,10.617,5.707c0.054,0.024,0.108,0.046,0.161,0.07
	c3.289,2.056,6.53,4.281,9.974,5.975c6.087,2.993,12.205,4.164,18.876,4.675c7.284,0.559,14.226,0.662,21.544,0.51
	c1.533-0.032,3.066-0.127,4.596-0.248C389.764,170.728,386.677,171.93,383.701,173.227z M192.723,150.114
	c6.913,2.563,14.077,4.238,21.21,6.091c3.516,0.913,6.763,1.876,9.996,2.388c3.156,1.113,6.399,1.981,9.826,2.604
	c8.213,1.493,16.436,1.067,24.76,1.25c6.737,0.148,13.217-0.77,19.707-2.643c1.138-0.328,2.322-0.62,3.504-0.931
	c5.484,0.483,10.548-1.164,16.347-2.669c7.135-1.852,14.298-3.528,21.21-6.091c0.485-0.18,0.921-0.289,1.329-0.349
	c-2.857,3.339-5.928,6.523-8.717,9.897c-2.06,2.495-6.2,5.845-7.202,9.32c-8.91-0.614-17.85-0.724-26.675,0.464
	c-0.378-0.081-0.755-0.157-1.132-0.219c-3.368-0.555-6.865-0.328-10.269-0.325c-7.462,0.005-14.847-0.618-22.353-0.535
	c-3.258,0.037-6.498,0.317-9.748,0.382c-3.042,0.061-5.713-0.79-8.73-0.767c-5.774,0.045-12.601-0.403-18.553,0.778
	c-1.11-3.394-5.108-6.655-7.126-9.097c-2.787-3.375-5.86-6.558-8.717-9.897C191.801,149.825,192.239,149.935,192.723,150.114z
	 M192.534,140.948c1.317-1.326,2.557-2.752,3.815-3.798c3.379-2.811,6.008-5.857,8.666-9.374c3.392-4.484,7.079-8.487,10.157-13.189
	c2.825-4.318,6.901-7.377,9.636-11.714c5.499-8.722,11.132-17.368,16.628-26.051c1.679-2.651,2.636-5.621,4.041-8.418
	c1.134-2.259,2.749-4.208,3.775-6.511c1.05-2.358,2.799-4.864,3.618-7.455c0.362-0.191,0.673-0.485,0.899-0.838
	c1.357,0.239,3.185,0.502,4.821,0.421c0.166,0.164,0.349,0.31,0.552,0.417c0.817,2.593,2.567,5.099,3.618,7.455
	c1.025,2.302,2.639,4.252,3.775,6.511c1.406,2.797,2.361,5.765,4.041,8.418c5.496,8.681,11.129,17.328,16.628,26.051
	c2.735,4.338,6.81,7.396,9.636,11.714c3.077,4.702,6.764,8.704,10.157,13.189c2.66,3.515,5.287,6.562,8.666,9.374
	c1.258,1.046,2.498,2.472,3.814,3.798c-2.899,0.91-5.916,3.056-8.616,3.822c-3.581,1.016-7.158,2.145-10.765,3.052
	c-9.544,2.395-19.034,5.171-28.789,7.13c-12.095,2.428-24.111,1.444-36.242-0.48c-7.945-1.26-15.328-4.687-23.145-6.65
	c-3.608-0.905-7.185-2.035-10.765-3.052C198.449,144.004,195.432,141.858,192.534,140.948z M270.751,58.296
	c2.937,3.403,5.578,7.009,8.337,10.551c4.931,6.329,10.935,12.039,16.658,17.647c5.901,5.786,12.128,10.992,18.105,16.656
	c5.62,5.324,11.778,9.613,17.551,14.707c12.603,11.117,26.288,20.36,39.939,30.136c5.959,4.268,12.121,8.439,18.416,12.198
	c2.755,1.646,5.658,2.847,8.545,4.161c-4.456,0.472-9.304-0.021-13.118-0.141c-6.236-0.197-12.248-1.507-18.437-2.257
	c-7.077-0.858-12.812-3.437-19.32-6.145c-0.531-0.221-1.084-0.459-1.655-0.706c-2.246-1.435-4.542-2.831-6.905-4.243
	c-3.42-2.043-7.018-4.333-10.148-6.786c-1.496-1.173-2.891-2.445-4.569-3.098c-5.438-6.305-10.817-12.562-15.927-19.206
	c-3.038-3.951-5.994-7.823-8.92-11.854c-2.801-3.859-6.331-6.849-8.868-10.909c-4.76-7.615-9.721-15.376-14.689-22.81
	c-3.069-4.593-6.11-10.048-8.416-15.086c-0.852-1.861-0.984-3.699-1.941-5.504c-0.387-0.729-0.887-1.396-1.391-2.065
	c0.872-0.153,1.731-0.33,2.525-0.765c0.034-0.018,0.064-0.044,0.097-0.064c0.035,0.039,0.061,0.075,0.097,0.114
	c0.207,0.223,0.422,0.436,0.631,0.656C268.097,55.326,269.301,56.616,270.751,58.296z M247.451,8.756
	c6.588-6.935,22.972-4.229,19.298,10.178c-0.767,3.006-2.84,5.482-3.984,8.353c-2.275,5.713,2.127,7.264,2.372,12.44
	c0.175,3.69-1.122,6.016-0.832,8.533c-0.109,0.054-0.198,0.053-0.551,0.12c-0.433,0.083-0.869,0.152-1.303,0.228
	c-0.662,0.116-1.353,0.286-2.001,0.531c-1.566-0.407-3.643-0.25-4.679-0.306c-2.089-0.113-4.203-0.536-6.295-0.716
	c-0.612-0.053-1.188-0.193-1.753-0.355c0.087-2.333-1.017-4.59-0.854-8.035c0.246-5.174,4.647-6.726,2.372-12.44
	c-1.143-2.87-3.217-5.347-3.984-8.353C244.13,14.506,245.237,11.087,247.451,8.756z M113.706,164.351
	c2.888-1.314,5.79-2.517,8.545-4.161c6.295-3.759,12.457-7.93,18.416-12.198c13.651-9.776,27.337-19.019,39.939-30.136
	c5.773-5.092,11.931-9.382,17.551-14.707c5.977-5.664,12.204-10.871,18.105-16.656c5.723-5.609,11.727-11.318,16.658-17.647
	c2.759-3.542,5.401-7.147,8.337-10.551c1.449-1.68,2.654-2.97,3.4-4.811c0.209-0.22,0.425-0.433,0.631-0.656
	c0.037-0.039,0.062-0.075,0.097-0.114c0.033,0.02,0.064,0.045,0.097,0.064c0.795,0.434,1.653,0.612,2.525,0.765
	c-0.504,0.668-1.003,1.335-1.391,2.065c-0.958,1.805-1.089,3.643-1.941,5.504c-2.305,5.039-5.347,10.493-8.416,15.086
	c-4.966,7.433-9.929,15.194-14.689,22.81c-2.538,4.06-6.068,7.05-8.868,10.909c-2.926,4.03-5.882,7.903-8.92,11.854
	c-5.11,6.644-10.49,12.901-15.927,19.206c-1.678,0.653-3.072,1.925-4.569,3.098c-3.129,2.453-6.728,4.743-10.148,6.786
	c-2.363,1.412-4.658,2.808-6.905,4.243c-0.571,0.247-1.124,0.485-1.655,0.706c-6.509,2.709-12.244,5.287-19.32,6.145
	c-6.189,0.75-12.2,2.062-18.437,2.257C123.01,164.331,118.161,164.823,113.706,164.351z M148.548,179.989
	c-0.018-0.006-0.037-0.015-0.056-0.022c-6.769-2.332-13.604-3.873-20.185-6.742c-2.976-1.297-6.063-2.499-9.186-3.58
	c1.531,0.121,3.063,0.217,4.596,0.248c7.318,0.152,14.261,0.049,21.544-0.51c6.671-0.513,12.789-1.682,18.876-4.675
	c3.446-1.693,6.686-3.919,9.974-5.975c0.054-0.024,0.108-0.045,0.162-0.07c3.701-1.67,7.192-3.523,10.617-5.707
	c0.619-0.395,1.16-0.8,1.662-1.186c1.363,2.395,3.453,4.516,5.149,6.519c3.059,3.612,5.946,7.39,8.657,11.258
	c-2.656,0.242-5.307,0.505-7.946,0.772c-9.36,0.946-18.457,3.174-27.485,5.77c-4.139,1.191-8.269,2.188-12.486,3.052
	C151.139,179.409,149.824,179.634,148.548,179.989z M156.379,183.654c2.99-0.56,5.956-1.213,8.896-2.038
	c8.846-2.485,17.623-4.806,26.774-5.817c7.929-0.876,15.812-1.314,23.768-1.933c4.078-0.318,8.308,0.045,12.398,0.017
	c1.088-0.007,2.151,0.043,3.202,0.103c5.77,0.581,11.613,0.339,17.479,0.393c8.128,0.075,16.315,0.437,24.447,0.817
	c4.143,0.193,8.786,1.602,11.977-1.33c3.611-0.046,7.296-0.278,10.87,0.001c7.956,0.619,15.838,1.058,23.768,1.933
	c9.151,1.011,17.928,3.332,26.774,5.817c2.94,0.826,5.906,1.478,8.896,2.038c-2.791,1.56-5.517,3.238-8.402,4.7
	c-3.493,1.771-5.702,1.118-9.567,0.532c-3.102-0.47-6.156-1.093-9.223-1.736c-5.823-1.222-11.758-1.328-17.674-1.767
	c-7.885-0.585-16.346-1.964-24.558-1.879c-2.662-0.339-5.407-0.347-7.897-0.34c-3.606,0.01-7.204,0.032-10.809,0.15
	c-3.695,0.121-7.158-0.691-10.795-0.744c-7.117-0.103-14.564,0.843-21.76,1.002c-2.231,0.049-4.58-0.015-6.947-0.009
	c-8.89-0.396-18.16,1.182-26.748,1.819c-5.916,0.439-11.851,0.544-17.674,1.767c-3.067,0.644-6.121,1.266-9.223,1.736
	c-3.865,0.586-6.074,1.238-9.567-0.532C161.896,186.891,159.17,185.215,156.379,183.654z M96.826,243.494
	c3.294-0.833,6.571-1.682,9.727-3.001c8.967-3.748,18.407-8.412,26.169-14.294c7.303-5.533,14.677-10.898,21.532-17.02
	c2.88-2.572,8.457-6.885,11.132-11.29c4.489,1.145,9.922-0.787,14.208-1.755c6.627-1.498,12.946-2.764,19.729-3.4
	c6.391-0.6,12.806-1.33,19.157-2.123c0.065-0.009,0.13-0.013,0.195-0.022c-3.282,4.052-6.267,8.436-10.173,12.028
	c-5.363,4.932-11.488,9.585-17.355,13.93c-0.232,0.173-0.376,0.415-0.445,0.671c-1.038,0.87-2.036,1.797-3.147,2.432
	c-5.67,3.245-11.466,6.344-17.355,9.327c-15.291,7.746-31.114,11.437-48.087,13.086c-6.928,0.673-14.012,0.34-20.901,1.203
	C99.702,243.455,98.249,243.516,96.826,243.494z M120.948,256.873c-4.968-2.174-10.041-4.054-15.042-6.145
	c-1.274-0.532-2.561-1.022-3.855-1.485c5.747-0.071,11.665-0.263,17.233-1.039c7.56-1.052,15.208-0.947,22.652-2.773
	c8.219-2.015,16.353-4.198,24.151-7.508c6.787-2.881,13.701-6.141,20.25-9.487c2.117-1.082,4.517-2.021,6.48-3.386
	c0.125-0.087,2.868-2.585,2.793-2.569c0.323-0.07,3.996,1.455,4.068,1.476c7.072,2.1,14.58,4.314,21.887,5.287
	c5.738,0.763,12.557,2.244,18.367,0.642c5.778,1.231,11.498,1.7,17.63,1.425c4.563-0.204,9.071-0.351,13.63-0.432
	c1.315-0.024,2.448-0.197,3.515-0.481c5.168,0.657,10.843-0.505,15.734-1.155c7.307-0.973,14.815-3.187,21.887-5.287
	c0.073-0.022,3.745-1.547,4.068-1.476c-0.076-0.017,2.667,2.483,2.793,2.569c1.963,1.364,4.362,2.304,6.48,3.386
	c6.548,3.346,13.463,6.606,20.25,9.487c7.799,3.311,15.932,5.493,24.151,7.508c7.444,1.826,15.091,1.72,22.652,2.773
	c5.567,0.775,11.486,0.968,17.233,1.039c-1.295,0.464-2.582,0.953-3.855,1.485c-5.001,2.091-10.074,3.97-15.042,6.145
	c-4.279,1.873-9.784,5.363-14.552,5.633c-4.634,0.262-9.399-3.001-13.775-4.227c-4.471-1.253-8.101-3.329-12.423-4.924
	c-1.164-0.429-2.341-0.852-3.526-1.265c-3.797-1.819-7.744-3.238-11.905-4.424c-7.033-2.007-13.777-4.488-20.671-7.011
	c-8.151-2.984-15.482-1.402-23.972-1.325c-0.127,0.001-0.254-0.002-0.382-0.004c-3.137-1.452-5.759-0.771-9.097-0.877
	c-7.971-0.252-15.959,0.232-23.93-0.078c-5.747-0.225-11.424,0.706-17.17,1.009c-5.835-1.483-11.745,0.005-17.882-0.051
	c-8.492-0.077-15.821-1.659-23.972,1.325c-6.895,2.524-13.638,5.004-20.671,7.011c-4.163,1.188-8.109,2.605-11.905,4.424
	c-1.186,0.414-2.363,0.836-3.526,1.265c-4.322,1.594-7.953,3.671-12.423,4.924c-4.375,1.227-9.141,4.489-13.775,4.227
	C130.732,262.236,125.227,258.746,120.948,256.873z M283.681,257.915c0.656,7.853,0.531,15.679-0.768,23.495
	c-0.603,3.624-1.077,7.243-1.506,10.899c-0.433,3.684,0.379,7.504-0.111,11.127c-0.081,0.595-0.05,0.893,0.017,1.029
	c-0.11,0.075-0.25,0.182-0.436,0.347c-2.036,1.807-4.051,1.072-6.407,1.47c-1.427,0.24-2.968,0.683-4.427,1.253
	c-3.126-0.084-6.233,0.339-9.408,0.541c-4.651,0.296-8.966-0.431-13.558-0.608c-2.023-0.078-3.986-0.162-5.96-0.266
	c-1.198-0.412-2.43-0.727-3.579-0.92c-2.355-0.396-4.372,0.338-6.407-1.469c-0.186-0.165-0.327-0.273-0.436-0.348
	c0.067-0.136,0.098-0.434,0.017-1.029c-0.491-3.622,0.322-7.443-0.111-11.127c-0.429-3.655-0.903-7.275-1.506-10.899
	c-1.299-7.816-1.424-15.642-0.768-23.495c0.277-3.317-0.543-6.54-0.557-9.867c-0.004-0.941-0.064-1.774-0.192-2.571
	c1.711-0.07,3.45-0.162,5.177-0.318c1.439,0.02,2.857,0.024,4.218,0.061c6.338,0.174,12.582-0.892,18.848-0.602
	c6.907,0.318,13.838,0.239,20.755,0.231c2.584,0.377,5.255,0.522,7.855,0.628c-0.13,0.797-0.188,1.63-0.192,2.571
	C284.225,251.374,283.405,254.598,283.681,257.915z M171.751,319.987c-0.498,3.922-0.952,7.196-0.958,11.291
	c-0.029,19.897-1.893,39.753-2.22,59.586c-0.319,19.351-0.474,39.069-2.129,58.351c-0.45,5.249,0.389,10.542,0.042,15.805
	c-0.327,4.942-0.972,9.747-0.994,14.717c-0.023,5.206-0.585,10.255-0.755,15.392c-0.082,2.495,0.439,2.026-1.461,3.332
	c-0.865,0.595-1.6,0.839-2.369,0.961c-0.149-0.007-0.286-0.032-0.444-0.026c-5.302,0.223-10.138,1.778-15.501,1.02
	c-4.557-0.644-8.986-0.308-13.518,0.232c-11.401,1.363-22.805-0.656-34.194-0.587c-11.91,0.072-24.239,0.18-36.018-1.588
	c-5.33-0.8-10.864-1.04-16.23-1.386c-2.383-0.154-4.672,0.418-7.048,0.405c-1.164-0.006-2.168-0.237-3.256-0.378
	c0.257-0.705,0.505-1.399,0.689-2.059c0.76-2.748,1.594-5.461,2.541-8.155c1.934-5.506,3.825-11.141,5.939-16.556
	c4.221-10.81,7.826-21.86,11.209-32.985c1.154-3.793,2.896-7.139,4.128-10.91c0.732-2.243,1.897-4.226,2.748-6.419
	c0.942-2.425,1.238-4.991,2.058-7.476c3.607-10.939,7.79-21.744,11.645-32.608c3.105-8.756,6.535-17.163,8.558-26.277
	c2.486-11.204,6.989-21.85,10.074-32.87c0.359-1.281,0.525-2.53,0.555-3.755c5.39,1.238,11.79,0.536,16.85,0.584
	c9.695,0.091,19.513,1.206,29.137,0.706c7.018-0.365,14.62-0.018,21.69,0.316c2.886,0.136,7.163,0.848,9.415-1.005
	C171.901,318.426,171.851,319.207,171.751,319.987z M171.969,312.731c-0.283-0.121-0.578-0.199-0.855-0.234
	c-4.368-0.529-9.486-0.097-13.94-0.091c-6.699,0.01-13.134-0.291-19.721,0.086c-3.728,0.213-7.489-0.672-11.226-0.74
	c-4.437-0.082-8.888,0.035-13.323,0.117c-6.125,0.114-12.47-0.026-18.62,0.476c-1.544-5.959-5.845-11.427-8.62-17.088
	c-0.596-1.216-2.311-4.002-1.953-4.335c0.905-0.842,3.869,0.335,4.984,0.431c5.809,0.499,11.574-0.628,17.357-0.713
	c6.216-0.092,12.338-0.85,18.543-0.875c0.849-0.004,1.706-0.01,2.558-0.013c4.4,0.663,8.797,1.002,13.536,1.112
	c4.114,0.095,8.11-0.586,12.215-0.595c4.843-0.011,9.706,0.377,14.533-0.097c1.036-0.102,6.15-1.331,7.001-0.242
	c0.412,0.527-0.44,2.948-0.516,3.613c-0.497,4.347-0.755,8.474-1.539,12.817C171.995,308.5,171.959,310.62,171.969,312.731z
	 M220.28,502.542c-3.8,1.534-9.186,0.738-13.129,0.63c-5.26-0.144-10.646-0.525-15.974-0.997c0.029-9.667,0.531-19.6,1.892-29.056
	c0.436-3.027,0.584-6.076,2.172-8.636c2.288-3.685,5.064-2.426,8.885-2.533c2.726-0.075,5.305-0.817,8.045-0.886
	c2.686-0.066,5.206,0.119,7.799-0.454c-0.066,1.75-0.1,3.497-0.062,5.242c0.139,6.409-0.828,12.831,0.21,19.102
	C220.941,489.92,221.741,496.984,220.28,502.542z M273.407,500.882c-6.698,0.525-13.376,1.463-20.085,2.089
	c-6.26,0.584-12.008,0.832-18.252,0.449c-2.861-0.176-6.194-0.683-9.228-0.317c0.066-0.312,0.132-0.624,0.191-0.941
	c1.113-5.956,1.343-12.634,0.852-18.643c-0.294-3.589,0.306-6.776,0.395-10.344c0.084-3.43-0.23-6.907,0.032-10.327
	c0.582-7.582,0.834-15.013,0.866-22.644c0.059-13.934,1.494-27.668,2.957-41.468c0.597-5.628,1.384-11.512,3.649-16.76
	c1.401-3.246,3.392-5.4,5.663-7.329c3.585-1.73,7.361-3.06,11.189-3.946c4.943-1.143,9.364-0.973,14.187,0.674
	c1.352,0.461,2.638,1.109,3.91,1.791c3.021,2.36,5.725,4.717,7.491,8.81c2.265,5.248,3.052,11.132,3.649,16.76
	c1.463,13.798,2.899,27.534,2.957,41.468c0.032,7.633,0.284,15.062,0.866,22.644c0.263,3.42-0.053,6.897,0.032,10.327
	c0.088,3.568,0.689,6.755,0.395,10.344c-0.483,5.891-0.266,12.422,0.793,18.29C282.344,499.979,277.283,500.578,273.407,500.882z
	 M289.481,403.711c-0.459-5.685-0.705-11.52-2.599-16.836c-1.837-5.155-3.083-9.847-6.775-13.842
	c-5.357-9.095-21.018-10.847-30.206-8.616c-2.775,0.674-6.616,1.781-10.31,3.41c-0.377,0.057-0.748,0.135-1.099,0.267
	c-1.314,0.493-2.569,1.346-3.72,2.279c-3.432,2.2-6.107,5.009-6.689,8.528c-1.139,2.496-1.963,5.167-2.962,7.974
	c-1.894,5.316-2.14,11.152-2.599,16.836c-0.552,6.841-1.16,13.497-1.319,20.377c-0.171,7.366-0.652,14.658-0.624,22.057
	c0.012,3.24-0.185,6.481-0.372,9.716c-3.655-0.897-7.808-0.738-11.536-0.383c-3.687,0.351-7.706,0.215-11.344,0.811
	c-0.426,0.07-0.832,0.153-1.224,0.25c0.624-3.482,0.979-7.046,1.101-10.518c0.207-5.861,1.292-11.674,1.534-17.552
	c0.262-6.349,1.072-12.863,1.799-19.206c0.718-6.271,0.771-12.631,1.804-18.865c1.003-6.058,2.134-12.19,3.755-18.114
	c1.526-5.572,2.741-12.171,6.615-16.713c3.602-4.224,7.783-7.092,12.307-9.239c0.127-0.043,0.256-0.087,0.382-0.127
	c6.67-2.097,13.212-4.172,20.246-4.882c6.896-0.696,13.969-0.897,20.895-0.609c3.424,0.142,7.852,1.867,11.85,2.37
	c7.825,2.379,15.104,5.693,20.898,12.488c3.874,4.542,5.089,11.141,6.615,16.713c1.622,5.923,2.753,12.056,3.755,18.114
	c1.033,6.234,1.085,12.594,1.804,18.865c0.727,6.343,1.537,12.857,1.799,19.206c0.242,5.878,1.328,11.692,1.534,17.552
	c0.122,3.471,0.478,7.037,1.102,10.518c-0.39-0.095-0.797-0.18-1.224-0.25c-3.639-0.596-7.657-0.459-11.344-0.811
	c-3.729-0.356-7.881-0.514-11.536,0.383c-0.186-3.236-0.384-6.476-0.372-9.716c0.028-7.399-0.454-14.691-0.624-22.057
	C290.641,417.208,290.033,410.552,289.481,403.711z M304.856,503.172c-3.942,0.108-9.328,0.905-13.129-0.63
	c-1.461-5.557-0.661-12.622,0.161-17.587c1.038-6.27,0.071-12.693,0.21-19.102c0.038-1.745,0.004-3.492-0.062-5.242
	c2.593,0.573,5.113,0.388,7.799,0.454c2.741,0.067,5.319,0.81,8.045,0.886c3.821,0.105,6.597-1.153,8.885,2.533
	c1.588,2.558,1.736,5.608,2.172,8.636c1.361,9.456,1.862,19.387,1.892,29.056C315.501,502.646,310.116,503.028,304.856,503.172z
	 M336.308,500.514c-3.257-0.281-6.376,0.788-9.587,1.107c-0.394,0.039-0.795,0.075-1.191,0.113c0.28-2.746,0.173-5.595,0.186-7.644
	c0.056-8.906-1.266-17.686-1.862-26.518c-0.272-4.03-1.33-7.142-3.836-9.12c0.841-5.266,0.225-11.036-0.094-16.221
	c-0.423-6.875-1.375-13.64-1.873-20.504c-1.001-13.78-1.729-27.493-4.366-41.112c-1.345-6.945-2.594-14.719-5.556-21.185
	c-2.413-5.264-5.386-8.35-9.459-12.314c-5.659-5.507-14.436-10.121-23.052-11.636c-9.489-2.724-21.018-1.389-29.967-0.421
	c-0.164,0.018-0.329,0.049-0.492,0.067c-10.645-1.203-23.502,4.284-31.236,11.445c-0.179,0.086-0.294,0.212-0.373,0.352
	c-0.067,0.065-0.143,0.127-0.209,0.192c-4.073,3.964-7.046,7.05-9.459,12.314c-2.962,6.465-4.211,14.239-5.556,21.185
	c-2.637,13.617-3.364,27.331-4.366,41.112c-0.499,6.864-1.45,13.63-1.873,20.504c-0.319,5.184-0.935,10.955-0.094,16.221
	c-2.505,1.978-3.563,5.089-3.836,9.12c-0.596,8.832-1.919,17.612-1.862,26.518c0.013,2.048-0.094,4.898,0.186,7.644
	c-0.395-0.038-0.797-0.073-1.191-0.113c-3.211-0.319-6.329-1.389-9.587-1.107c-0.969,0.083-1.915,0.225-2.853,0.376
	c1.17-3.475,1.208-8.788,1.213-12.435c0.007-5.147-0.399-10.304-0.075-15.45c1.368-21.666,0.518-43.469,1.791-65.173
	c1.348-22.998,1.741-45.945,2.686-68.982c0.203-4.944-0.327-10.014,0.28-14.898c0.68-5.478,0.203-11.121,1.258-16.611
	c0.856-4.459,1.093-8.287,1.373-12.786c0.176-2.835,0.957-5.779-0.614-8.406c-0.63-1.053-1.481-1.795-2.458-2.311
	c-0.163-0.125-0.356-0.217-0.584-0.274c-2.095-0.881-4.648-0.879-6.874-0.695c-5.431,0.448-10.802,0.647-16.224,0.908
	c-2.944-0.33-5.73-1.126-8.735-0.779c-2.699,0.311-5.408,0.339-8.123,0.288c-0.005-0.254-0.035-0.519-0.098-0.794
	c-0.268-1.186-0.024-2.454-0.078-3.665c-0.066-1.473-0.415-2.833-0.647-4.274c-0.197-1.221-0.159-2.486-0.487-3.691
	c4.661-0.768,9.295-4.263,13.695-5.764c11.014-3.761,21.936-7.762,33.032-11.268c3.672-1.16,7.48-1.399,10.219-3.909
	c1.793-0.603,3.602-1.222,5.464-1.839c7.854-2.596,15.576-1.892,23.776-2.386c0.341-0.021,0.689-0.038,1.038-0.055
	c-0.538,1.607-0.946,3.252-1.046,4.877c-0.163,2.632,0.661,4.894,0.251,7.601c-0.22,1.455-0.62,2.878-0.751,4.355
	c-0.805,9.089,0.263,18.263,1.257,27.277c0.533,4.84,0.31,9.409,0.267,14.259c-0.023,2.726,0.451,4.362,2.54,6.136
	c3.469,2.948,10.841,4.705,15.844,3.271c0.336,0.024,0.674,0.062,1.008,0.073c9.284,0.313,18.566,1.591,27.832,0.149
	c4.952,1.002,11.676-0.718,14.942-3.492c2.087-1.774,2.563-3.41,2.54-6.136c-0.043-4.85-0.267-9.419,0.267-14.259
	c0.994-9.014,2.063-18.188,1.257-27.277c-0.131-1.478-0.531-2.9-0.751-4.355c-0.41-2.707,0.414-4.97,0.251-7.601
	c-0.1-1.626-0.508-3.272-1.046-4.877c0.349,0.017,0.696,0.035,1.038,0.055c8.2,0.494,15.922-0.21,23.776,2.386
	c1.862,0.615,3.672,1.235,5.464,1.839c2.74,2.511,6.547,2.749,10.219,3.909c6.184,1.953,12.544,3.3,18.649,5.529
	c2.824,1.03,5.11,2.741,7.833,3.88c2.087,0.874,4.402,1.126,6.55,1.859c4.4,1.501,9.035,4.996,13.695,5.764
	c-0.328,1.205-0.29,2.47-0.487,3.691c-0.232,1.441-0.582,2.802-0.647,4.274c-0.054,1.209,0.19,2.478-0.078,3.665
	c-0.062,0.275-0.093,0.54-0.098,0.794c-2.715,0.051-5.424,0.023-8.123-0.288c-3.006-0.346-5.791,0.449-8.735,0.779
	c-5.422-0.261-10.793-0.461-16.224-0.908c-2.226-0.184-4.779-0.186-6.874,0.695c-0.228,0.057-0.421,0.149-0.584,0.274
	c-0.978,0.515-1.829,1.258-2.458,2.311c-1.571,2.627-0.79,5.57-0.614,8.406c0.28,4.499,0.516,8.328,1.373,12.786
	c1.055,5.49,0.577,11.134,1.258,16.611c0.607,4.884,0.078,9.954,0.28,14.898c0.945,23.037,1.336,45.984,2.686,68.982
	c1.272,21.703,0.423,43.507,1.791,65.173c0.325,5.146-0.082,10.304-0.075,15.45c0.005,3.647,0.042,8.96,1.213,12.435
	C338.223,500.739,337.277,500.597,336.308,500.514z M339.625,306.362c-0.786-4.342-1.044-8.469-1.539-12.817
	c-0.076-0.666-0.929-3.087-0.516-3.613c0.852-1.089,5.965,0.142,7.001,0.242c4.827,0.472,9.691,0.084,14.533,0.097
	c4.105,0.009,8.101,0.689,12.215,0.595c4.739-0.109,9.135-0.449,13.536-1.112c0.853,0.004,1.709,0.01,2.558,0.013
	c6.205,0.026,12.327,0.783,18.543,0.875c5.784,0.086,11.548,1.213,17.357,0.713c1.115-0.095,4.078-1.272,4.984-0.431
	c0.359,0.333-1.357,3.119-1.953,4.335c-2.775,5.661-7.076,11.129-8.62,17.088c-6.151-0.502-12.495-0.362-18.621-0.476
	c-4.435-0.082-8.888-0.199-13.323-0.117c-3.737,0.069-7.498,0.952-11.226,0.74c-6.589-0.377-13.024-0.077-19.721-0.086
	c-4.454-0.006-9.572-0.438-13.94,0.091c-0.278,0.033-0.573,0.113-0.855,0.234C340.048,310.62,340.011,308.5,339.625,306.362z
	 M474.051,497.493c-2.377,0.013-4.664-0.559-7.048-0.405c-5.367,0.346-10.901,0.585-16.23,1.386
	c-11.779,1.768-24.107,1.66-36.018,1.588c-11.39-0.069-22.794,1.95-34.194,0.587c-4.532-0.541-8.96-0.877-13.518-0.232
	c-5.363,0.757-10.2-0.798-15.501-1.02c-0.158-0.006-0.295,0.018-0.444,0.026c-0.768-0.121-1.504-0.366-2.369-0.961
	c-1.9-1.306-1.379-0.837-1.461-3.332c-0.169-5.138-0.732-10.186-0.755-15.392c-0.022-4.97-0.667-9.776-0.994-14.717
	c-0.348-5.263,0.492-10.557,0.042-15.805c-1.655-19.282-1.81-39-2.129-58.351c-0.327-19.833-2.19-39.689-2.22-59.586
	c-0.006-4.095-0.46-7.37-0.958-11.291c-0.099-0.781-0.149-1.561-0.184-2.342c2.254,1.852,6.529,1.14,9.415,1.005
	c7.07-0.334,14.672-0.68,21.69-0.316c9.624,0.5,19.442-0.615,29.137-0.706c5.059-0.048,11.46,0.655,16.85-0.584
	c0.031,1.225,0.196,2.473,0.554,3.755c3.085,11.019,7.587,21.666,10.074,32.87c2.023,9.114,5.452,17.521,8.558,26.277
	c3.854,10.864,8.036,21.669,11.645,32.608c0.82,2.486,1.116,5.051,2.058,7.476c0.852,2.193,2.015,4.176,2.748,6.419
	c1.231,3.771,2.974,7.117,4.128,10.91c3.382,11.123,6.986,22.174,11.209,32.985c2.114,5.415,4.005,11.05,5.939,16.556
	c0.947,2.694,1.781,5.407,2.541,8.155c0.184,0.661,0.432,1.354,0.689,2.059C476.22,497.257,475.215,497.487,474.051,497.493z"/>
<path d="M273.28,256.701c-4.271-5.638-14.832-4.333-20.93-3.738c-2.262,0.22-5.148-0.006-7.591,0.633
	c-2.409,0.347-4.656,1.291-6.031,3.105c-3.26,4.302-1.949,12.834-1.468,17.762c0.459,4.7-2.206,13.706,1.635,17.42
	c2.699,2.611,9.024,2.233,12.533,2.541c5.962,0.525,16.819,2.162,21.684-2.54c3.843-3.714,1.177-12.721,1.636-17.421
	C275.229,269.535,276.539,261.003,273.28,256.701z M269.17,286.683c-0.218,0.407-0.477,0.743-0.771,1.019
	c-2.173,2.034-6.24,0.772-9.185,0.845c-2.12,0.053-4.203-0.597-6.315-0.712c-3.313-0.181-6.055-0.6-9.101-0.043
	c-0.067-0.028-0.144-0.042-0.209-0.073c-1.756-0.832-1.139-8.81-1.22-10.409c-0.209-4.148-0.087-8.308-0.105-12.458
	c-0.031-6.805,3.217-6.219,9.409-6.202c7.491,0.021,18.997-4.411,18.833,7.132c-0.05,3.528-0.793,6.827-1.135,10.311
	C269.076,279.088,270.611,283.981,269.17,286.683z"/>
<g>
</g>
<g>
</g>
<g>
</g>
<g>
</g>
<g>
</g>
<g>
</g>
<g>
</g>
<g>
</g>
<g>
</g>
<g>
</g>
<g>
</g>
<g>
</g>
<g>
</g>
<g>
</g>
<g>
</g>
</svg>
