<?xml version="1.0" encoding="iso-8859-1"?>
<!-- Generator: Adobe Illustrator 19.0.0, SVG Export Plug-In . SVG Version: 6.00 Build 0)  -->
<svg version="1.1" id="Layer_1" xmlns="http://www.w3.org/2000/svg" xmlns:xlink="http://www.w3.org/1999/xlink" x="0px" y="0px"
	 viewBox="0 0 512.004 512.004" style="enable-background:new 0 0 512.004 512.004;" xml:space="preserve">
<path style="fill:#EE2A7B;" d="M53.701,94.655c-0.223,0.084-0.461,0.096-0.693,0.056c1.014,0.595,1.866,1.53,2.314,2.616
	c0.188,0.454,0.32,0.922,0.404,1.399c0.035,0.2,0.058,0.403,0.078,0.605C55.762,96.935,55.231,95.054,53.701,94.655z"/>
<path style="fill:#CEC5A1;" d="M495.756,22.108c-16.979-1.21-33.511-2.653-50.073-3.496c-7.567-0.384-14.889-1.27-22.101,1.401
	c-7.233,2.679-15.038,2.585-22.673,2.563c-1.764-0.006-3.636-0.067-5.112-1.032c-2.553-1.668-2.883-5.235-2.743-8.281
	s0.367-6.462-1.647-8.751c-2.069-2.351-5.632-2.5-8.758-2.32c-2.683,0.154-5.418,0.435-7.857,1.563
	c-2.438,1.128-4.561,3.251-5.031,5.896c-0.411,2.309,0.453,4.624,0.893,6.927c0.442,2.303,0.3,5.047-1.541,6.5
	c-1.425,1.123-3.408,1.109-5.222,1.042c-4.521-0.167-9.043-0.335-13.564-0.503c-2.369-0.088-4.786-0.184-7.009-1.008
	c-2.224-0.824-4.262-2.512-4.879-4.801c-1.209-4.488,3.183-9.748,0.517-13.556c-1.535-2.192-4.61-2.512-7.287-2.519
	c-2.939-0.008-5.959,0.132-8.653,1.308c-2.694,1.175-5.022,3.597-5.299,6.522c-0.336,3.552,2.164,7.686-0.18,10.376
	c-1.511,1.734-4.218,1.664-6.456,1.133c-3.763-0.893-7.153-0.88-11.003-0.88h-52.753c-8.735,0-17.471,0.001-26.206,0
	c-3.298-0.001-5.91,0.733-9.072,1.177c-4.113,0.578-8.574,0.176-12.727,0.232c-1.579,0.022-3.33-0.023-4.475-1.109
	c-1.264-1.2-1.279-3.219-0.851-4.909c0.429-1.69,1.211-3.319,1.238-5.061c0.047-3.096-2.382-5.795-5.217-7.04
	c-2.836-1.245-6.023-1.334-9.119-1.405c-2.56-0.058-5.564,0.098-7.011,2.21c-1.006,1.468-0.888,3.401-0.73,5.173
	c0.222,2.492,0.444,4.983,0.665,7.475c0.129,1.452,0.221,3.049-0.642,4.224c-1.134,1.544-3.354,1.667-5.269,1.645
	c-6.907-0.077-13.815-0.153-20.722-0.231c-2.067-0.023-4.439-0.191-5.682-1.842c-1.11-1.475-0.845-3.559-0.262-5.309
	c0.585-1.75,1.446-3.48,1.375-5.324c-0.103-2.672-2.217-4.933-4.662-6.017s-5.188-1.224-7.859-1.348
	c-3.69-0.17-8.044-0.033-10.156,2.998c-1.002,1.438-1.26,3.268-1.258,5.022c0.002,2.047,0.315,4.106,0.005,6.128
	s-1.423,4.095-3.346,4.794c-1.437,0.523-3.026,0.19-4.516-0.148c-7.403-1.675-14.514-3.882-22.118-3.519
	c-7.887,0.376-15.773,0.753-23.66,1.129c-15.08,0.72-30.159,1.44-45.239,2.16c-1.58,0.076-4.256,12.998-4.573,14.683
	c-0.844,4.49-1.539,9.462-0.495,13.961c1.031,4.446,0.617,8.476,0.606,13.039c-0.014,5.487,0.455,10.974,1.404,16.377
	c1.56-1.35,3.185-2.736,5.164-3.319s4.421-0.127,5.544,1.603c0.76,1.171,0.78,2.66,0.733,4.055c-0.047,1.396-0.124,2.86,0.486,4.115
	c0.611,1.256,2.182,2.168,3.431,1.544c0.892-0.446,1.306-1.47,1.645-2.407c0.873-2.41,1.745-4.822,2.617-7.232
	c0.402-1.109,0.96-2.366,2.102-2.66c0.979-0.253,2.016,0.371,2.563,1.221c0.548,0.85,0.717,1.882,0.874,2.882
	c0.688,4.38,1.375,8.759,2.063,13.139c0.202,1.288,0.621,2.831,1.88,3.171c1.237,0.334,2.36-0.74,3.559-1.194
	c0.633-0.239,1.294-0.272,1.94-0.168c-1.43-1.012-1.293-3.465,0.281-4.523c0.239-11.895,7.483-24.518,16.612-31.522
	c9.658-7.411,20.636-6.314,29.713,1.429c11.28,9.622,14.643,24.728,15.753,38.91c0.752,9.605,0.809,19.45,0.789,29.083
	c-0.011,5.536-0.205,9.367-6.256,10.184c-3.566,0.482-7.135-0.305-10.703-0.368c-4.695-0.084-9.455,0.344-14.145,0.538
	c-9.251,0.38-18.568,2.665-27.792,1.255c-1.34-0.205-2.194-1.958-1.802-3.175c0.729-2.257,1.875-4.225,2.86-6.365
	c1.822-3.957,1.214-6.433-0.636-10.117c-1.421-2.832-2.119-4.592-1.859-7.709c0.14-1.676,1.224-6.113,1.549-10.056
	c-0.152,0.967-0.43,1.924-0.778,2.83c-0.877,2.29-2.169,4.41-2.985,6.724c-1.365,3.876-0.677,5.63,1.9,8.264
	c2.862,2.926,2.966,6.148,1.289,9.75c-1.151,2.471-2.584,5.127-1.907,7.767c0.691,2.688,3.461,4.655,3.549,7.429
	c0.049,1.539-0.761,2.962-1.103,4.463c-0.342,1.502,0.051,3.451,1.523,3.907c1.48,0.458,2.882-0.911,3.65-2.258
	c0.769-1.346,1.47-2.951,2.933-3.463c1.769-0.618,3.703,0.839,4.352,2.597c0.649,1.757,0.391,3.699,0.247,5.567
	s-0.125,3.89,0.955,5.42c1.08,1.531,3.599,2.137,4.823,0.718c0.583-0.676,0.742-1.622,1.236-2.366
	c1.388-2.09,4.924-1.539,6.381,0.503c1.457,2.042,1.318,4.818,0.72,7.255c-0.654,2.662-1.788,5.299-1.535,8.028
	c0.271,2.924,2.08,5.434,3.434,8.039c3.854,7.419-3.172,11.773-2.302,19.007c0.344,2.865,1.958,5.541,1.814,8.422
	c-0.204,4.074-3.869,7.459-3.718,11.534c0.153,4.166,4.241,7.36,4.53,11.519c0.263,3.785-2.693,7.643-1.202,11.132
	c0.594,1.388,1.806,2.416,2.533,3.739c2.482,4.515-1.066,10.576-1.046,15.36c0.029,6.545-0.283,13.144-0.065,19.726
	c0.44,13.319,1.751,26.608,1.647,39.943c-0.081,10.307-0.077,20.615-0.017,30.922c0.102,17.774,0.368,35.547,0.649,53.319
	c0.135,8.567,0.384,17.169,0.591,25.705c0.208,8.614-0.336,16.901,0.984,25.504c0.109,0.706,0.263,1.48,0.829,1.915
	c1.05,0.808,2.566-0.165,3.292-1.273c0.993-1.512,1.447-3.303,2.089-4.993s1.566-3.395,3.137-4.292
	c1.571-0.897,3.912-0.625,4.768,0.969c0.842,1.566-0.04,3.446-0.424,5.182s0.414,4.189,2.182,3.991
	c0.753-0.083,1.348-0.657,1.866-1.209c1.825-1.946,3.487-4.042,4.966-6.261c1.357-2.035,2.648-4.265,4.773-5.476
	c2.124-1.213,5.388-0.833,6.323,1.429c0.634,1.532-0.011,3.284-0.827,4.728c-0.816,1.444-1.833,2.861-1.991,4.512
	c-0.158,1.65,1.022,3.575,2.675,3.446c0.944-0.073,1.711-0.77,2.35-1.469c2.1-2.301,3.74-5.091,6.315-6.844
	c2.575-1.753,6.626-1.981,8.385,0.589c1.117,1.63,0.945,3.812,0.455,5.726c-0.519,2.026-3.421,8.552-0.598,9.674
	c1.468,0.583,3.108-0.017,4.59-0.567c1.48-0.549,3.196-1.036,4.576-0.268c1.936,1.078,1.95,3.934,1.019,5.945
	c-0.931,2.01-2.526,3.716-3.094,5.856c-0.57,2.142,0.605,5.021,2.82,4.992c1.381-0.018,2.679-1.171,4.007-0.792
	c1.785,0.51,1.756,3.076,1.075,4.804c-0.681,1.726-1.588,3.824-0.424,5.27c1.266,1.574,3.791,0.879,5.546-0.12
	c1.755-1,3.874-2.199,5.644-1.227c1.694,0.93,1.897,3.212,2.328,5.096c0.839,3.67,3.737,2.407,5.469,4.662
	c1.604,2.089,5.315,2.923,8.23,3.545c3.345,0.715,6.876,0.561,11.879,0.884c-0.229-0.015,0.1-22.562,0.096-24.716
	c-0.014-6.987-1.513-13.99-2.071-20.984c-0.366-4.598,0.082-9.658,3.208-13.048c1.43-1.552,3.348-2.662,4.49-4.436
	c1.16-1.802,1.35-4.189,0.488-6.15c-0.861-1.962-2.747-3.439-4.857-3.805c-1.224-0.213-2.613-0.118-3.548-0.936
	c-1.438-1.261-0.742-3.607,0.167-5.29c1.874-3.467,4.2-6.8,7.016-9.566c4.279-4.202,7.293-9.795,11.498-14.237
	c4.103-4.335,8.754-8.157,13.89-11.21c10.761-6.397,23.218-8.992,35.657-8.695c2.43,0.057,4.858,0.23,7.271,0.53
	c12.165,1.515,23.558,6.488,32.829,14.524c4.586,3.975,8.603,8.58,12.104,13.53c3.252,4.597,8.244,10.32,8.844,16.018
	c0.232,2.199-0.153,4.548-1.519,6.286c-1.913,2.436-5.584,3.57-6.342,6.571c-0.546,2.154,0.733,4.361,2.286,5.949
	c1.554,1.589,3.449,2.879,4.654,4.746c1.707,2.645,1.755,6.028,1.325,9.146c-0.442,3.204-1.257,6.15-0.8,9.357
	c0.474,3.314,0.415,6.599,0.415,9.982c-0.001,7.642,0.063,15.284-0.042,22.925c-0.019,1.456,0.049,3.118,1.163,4.057
	c1.086,0.913,2.685,0.734,4.084,0.506c3.44-0.563,6.92-1.137,10.12-2.519c3.2-1.382,6.142-3.676,7.587-6.847
	c0.604-1.327,0.934-2.772,1.61-4.065c0.676-1.293,1.825-2.472,3.275-2.624c3.4-0.357,5.937,4.855,9.147,3.677
	c1.58-0.58,2.23-2.497,2.219-4.18c-0.01-1.683-0.469-3.369-0.215-5.032c0.253-1.663,1.603-3.375,3.273-3.173
	c0.5,0.061,0.971,0.286,1.473,0.327c1.764,0.143,2.895-2.083,2.507-3.811c-0.389-1.726-1.69-3.072-2.683-4.537
	c-1.205-1.777-2.008-4.006-1.422-6.071c0.586-2.066,2.982-3.656,4.95-2.796c1.304,0.571,2.027,1.945,3.019,2.966
	c0.992,1.022,2.811,1.647,3.748,0.575c0.505-0.577,0.531-1.428,0.43-2.188c-0.367-2.79-2.023-5.223-2.956-7.877
	c-0.934-2.655-0.907-6.095,1.375-7.742c1.714-1.238,4.163-0.98,6,0.066c1.837,1.046,3.2,2.741,4.515,4.395l5.053,6.351
	c0.31,0.389,0.669,0.808,1.161,0.873c0.843,0.112,1.42-0.848,1.58-1.684c0.415-2.159-0.302-4.359-1.047-6.427
	c-0.745-2.068-1.539-4.222-1.278-6.405c0.262-2.183,1.97-4.369,4.169-4.339c1.924,0.027,3.41,1.63,4.623,3.124
	c3.361,4.142,6.55,8.425,9.557,12.832c1.804-1.161,1.484-3.815,1.3-5.952c-0.183-2.137,0.762-5.02,2.897-4.807
	c1.073,0.106,1.862,1.016,2.535,1.858c2.572,3.22,5.142,6.438,7.714,9.659c3.159-3.287,3.851-7.204,3.812-11.563
	c-0.312-35.576,1.332-71.285,2.013-106.856c0.309-16.105,0.254-32.219,0.995-48.313c0.635-13.774-3.688-27.94-1.604-41.698
	c0.442-2.915,1.244-5.821,1.03-8.761c-0.177-2.425-1.043-4.79-0.958-7.221c0.118-3.361,2.016-6.356,3.281-9.471
	c2.973-7.319-2.749-11.682-2.622-18.605c0.053-2.841,1.692-5.437,1.958-8.266c0.305-3.245-1.209-6.342-2.345-9.399
	c-1.136-3.056-1.868-6.659-0.16-9.437c1.095-1.781,3.005-2.885,4.387-4.455c3.511-3.986,0.324-8.193-0.471-12.397
	c-0.378-2-0.157-4.254,1.21-5.762c1.366-1.508,4.087-1.811,5.369-0.231c1.2,1.478,1.201,4.276,3.093,4.494
	c1.443,0.167,2.367-1.542,2.503-2.987c0.231-2.444-0.543-4.872-0.565-7.326c-0.022-2.454,1.096-5.27,3.477-5.865
	c2.632-0.658,4.992,1.699,6.549,3.922c0.478,0.683,1.032,1.435,1.853,1.574c1.598,0.271,2.486-1.969,2.015-3.52
	c-0.471-1.551-1.64-2.886-1.764-4.503c-0.182-2.385,1.889-4.177,3.135-6.275c-5.808-0.153-11.665-0.713-17.089-0.647
	c-9.909,0.119-19.876,0.766-29.781,0.598c-4.661-0.079-9.206-1.182-11.283-5.783c-3.213-7.117-1.689-17.543-1.218-25.074
	c0.964-15.447,0.503-33.154,11.737-45.253c9.545-10.28,24.146-11.965,35.429-3.45c7.429,5.606,15.159,17.012,13.999,27.146
	c0.364,2.084,0.683,4.197,1.223,6.261c0.17,0.254,0.3,0.565,0.366,0.947c0.016,0.094,0.047,0.172,0.065,0.263
	c0.117,0.013,0.232,0.022,0.35,0.046c1.235,0.252,2.327,1.098,3.588,1.145c1.697,0.064,3.143-1.406,3.633-3.032
	c0.491-1.624,0.251-3.37,0.007-5.051c-0.286-1.967-0.565-4.009,0.008-5.911c0.572-1.902,2.254-3.626,4.241-3.57
	c2.64,0.074,4.2,2.959,4.94,5.495c0.74,2.535,1.497,5.492,3.899,6.594c1.703-4.09,3.408-8.179,5.111-12.269
	c0.523-1.254,1.151-2.62,2.393-3.17c1.396-0.617,3.091,0.089,4.082,1.248c0.992,1.16,1.439,2.675,1.862,4.14
	c3.628-8.637,3.065-18.56,3.471-27.764C499.236,41.773,498.812,31.713,495.756,22.108z M318.37,338.254
	c-0.416,4.996-2.79,7.748-7.799,8.401c-9.628,1.256-19.836,0.238-29.487-0.267c-19.739-1.03-39.4-1.723-59.145-0.55
	c-5.463,0.324-10.935,0.572-16.405,0.24c-2.548-0.156-5.721-0.079-8.075-1.223c-5.668-2.752-4.141-11.378-3.775-16.404
	c1.407-19.364,2.012-38.752,3.901-58.085c-2.635-16.218-0.34-33.439-0.704-49.775c-0.095-4.281,0.215-8.689-0.18-12.948
	c-0.247-2.679-0.938-5.317-0.559-8.025c0.325-2.319,1.297-3.618,2.526-5.515c2.271-3.504,1.59-7.65,1.532-11.702
	c-0.072-4.931-0.525-9.262,3.668-12.015c2.645-1.737,2.214,2.878,4.807-3.803c0.766-1.976,0.485-4.441,0.531-6.492
	c0.082-3.701,0.299-6.899,1.626-10.416c4.349-11.521,13.341-18.425,23.846-23.328c4.365-5.706,12.884-7.8,19.746-8.27
	c8.224-0.564,16.483,1.741,23.687,5.617c10.471,5.633,25.044,18.285,25.828,31.63c0.015,0.026,0.033,0.048,0.048,0.076
	c2.236,4.308-0.221,7.499,0.509,11.792c0.705,4.149,5.912,3.815,7.174,7.605c1.606,4.822-3.057,9.367-0.938,14.556
	c1.894,4.64,3.453,6.314,2.851,11.712c-0.708,6.353-1.837,12.114-1.43,18.563c0.43,6.798,1.533,13.523,2.255,20.29
	c1.245,11.675,2.223,25.188-0.108,36.92c0.99,9.906,1.371,19.936,2.401,29.829C317.779,317.009,319.238,327.849,318.37,338.254z"/>
<g>
	<path style="fill:#9B7D54;" d="M153.471,171.275c-6.895-1.819-14.32-1.173-21.383-1.157c-7.103,0.016-14.044-0.626-21.137,0.001
		c-6.349,0.561-19.055-1.216-24.333,2.871c-1.557,1.206-2.382,2.891-2.029,4.834c0.395,2.18,2.408,2.337,2.994,3.461
		c2.346,4.502-2.615,8.405-2.271,13.039c5.541,1.072,12.421,0.093,18.041-0.317c10.796-0.787,21.433-1.155,32.258-1.155
		c18.256,0,36.841-1.939,55.022-1.155c3.043,0.132,5.957,1.611,8.231-0.757c2.664-2.775,1.934-10.009,0.94-13.326
		c-1.332-4.444-3.375-5.913-7.93-6.807C179.333,168.349,165.309,168.85,153.471,171.275z"/>
	<path style="fill:#9B7D54;" d="M129.197,65.701c12.361-2.831,26.896-1.583,39.728-2.313c20.939-1.192,41.517,0.027,62.388,0.001
		c3.535-0.005,7.383,1.191,10.239-0.95c4.029-3.02,3.78-5.04,9.396-5.515c4.674-0.396,11.017-1.525,15.417,0.58
		c2.662,1.273,3.459,4.289,5.85,5.442c2.54,1.224,6.208,0.057,8.897,0.057c7.85,0,15.7,0.015,23.55,0
		c12.085-0.023,24.226,0.386,36.348,0.386c12.958,0,28.393-1.176,40.884,1.994c1.277,3.271-0.102,6.358-0.771,9.517
		c-5.198-1.603-13.46-1.118-19.028-1.106c-11.545,0.024-23.015-0.625-34.563-0.766c-9.836-0.121-19.751,0.037-29.529-0.408
		c-6.205-0.283-14.304-2.445-20.338-0.47c-6.263,2.05,0.723,9.945-4.73,13.618c-4.013,2.702-16.052,1.223-20.567,1.13
		c-4.087-0.085-12.15,1.224-14.042-3.106c-1.067-2.445,0.511-5.069,0.279-7.697c-0.436-4.94-5.67-3.696-9.556-3.393
		c-7.535,0.587-15.063-0.418-22.601-0.081c-11.971,0.534-24.147,1.05-36.108,1.946c-11.3,0.847-22.485-0.914-33.672-0.386
		C129.298,74.527,128.56,73.642,129.197,65.701z"/>
	<path style="fill:#9B7D54;" d="M254.807,38.729c-4.413,2.293-11.972,4.36-13.832,9.566c4.698,1.644,10.827,0.215,15.777,0.448
		c4.271,0.201,8.846,0.538,13.022,1.101C270.029,46.112,257.685,38.64,254.807,38.729z"/>
	<path style="fill:#9B7D54;" d="M228.606,21.005c-9.631,0-21.196-1.656-30.534-0.04c-4.585,0.794-4.532,7.606-3.316,11.541
		c5.819,0.341,11.623-0.832,17.445-1.109c10.312-0.49,20.68-0.495,31.016-0.378c15.511,0.176,31.02,1.158,46.522,1.16
		c5.465,0,10.805,0.144,16.199,0.471c2.393,0.145,8.376,1.523,10.442-0.162c1.909-1.558,1.834-7.837,0.289-9.563
		c-2.9-3.24-11.94-0.224-15.834-0.36C278.306,21.78,255.779,21.776,228.606,21.005z"/>
	<path style="fill:#9B7D54;" d="M118.793,21.776c0.368-5.468,0.145-10.871,0.444-16.51c5.206-0.294,10.489-0.575,15.681-0.849
		c3.432-0.181,6.174-0.714,7.764,2.335c1.201,2.302,1.567,12.679-0.868,14.572c-1.66,1.29-5.982-0.323-7.917-0.3
		C129.491,21.076,125.463,20.949,118.793,21.776z"/>
	<path style="fill:#9B7D54;" d="M172.737,4.822c1.81,5.482-0.642,12.079,1.213,17.582c3.24-0.811,7.516-0.453,10.823-0.243
		c1.926,0.122,6.324,1.334,8.017,0.018c4.391-3.41,0.205-13.212,0.31-17.685c-6.372,0.212-13.299-2.87-19.542-1.149
		C174.261,4.387,175.042,6.072,172.737,4.822z"/>
	<path style="fill:#9B7D54;" d="M333.796,3.666c-2.637-0.736-10.553-0.645-13.014,0.866c-2.82,1.733-1.244,6.598-1.244,10.232
		c0.001,5.305-0.972,7.825,4.773,7.781c4.24-0.032,10.151,1.297,14.042-0.065c1.441-3.803,2.494-10.28,1.621-14.39
		C338.885,2.952,335.867,4.308,333.796,3.666z"/>
	<path style="fill:#9B7D54;" d="M387.739,3.666c-4.526,0.005-11.189-0.009-15.393,1.893c-2.037,0.921-1.615-0.275-2.329,2.187
		c-0.593,2.041,0.674,5.293,0.778,7.405c0.28,5.694-1.269,7.415,4.972,7.395c5.136-0.016,10.785,0.669,15.778-0.442
		c1.015-3.923,1.5-8.531,0.924-12.56C391.696,4.14,391.154,4.065,387.739,3.666z"/>
	<path style="fill:#9B7D54;" d="M316.842,171.661c-4.018,3.79-9.424,12.762-4.82,18.268c1.842,2.203,5.695,2.379,8.635,2.558
		c7.519,0.456,15.217-0.079,22.749-0.019c17.1,0.135,34.141,0.428,51.276,0.386c7.055-0.017,14.144,0.416,21.169,0.737
		c2.262,0.103,7.368,1.467,9.455,0.36c4.373-2.318,3.514-14.761,3.984-19.141c-16.377-4.279-35.088-2.312-51.939-2.957
		C358.445,171.128,339.009,169.636,316.842,171.661z"/>
	<path style="fill:#9B7D54;" d="M238.624,97.296c-15.955,1.655-32.24,12.313-39.6,26.586c-5.719,11.092-5.079,22.389-6.616,34.311
		c-0.289,2.242-2.492,8.134-1.099,10.306c1.652,2.579,9.353,2.397,11.865,2.024c6.784-1.008,3.909-12.41,5.484-17.84
		c2.579-8.89,8.735-15.102,15.86-20.619c12.917-10.003,31.185-17.172,47.059-10.589c9.111,3.779,18.718,11.328,24.822,19.052
		c3.653,4.624,7.288,9.166,8.453,15.129c1.197,6.131-2.416,13.965,5.61,15.253c11.229,1.802,12.464-5.18,10.81-14.271
		c-2.701-14.849-6.433-31.352-17.58-42.387c-6.38-6.317-15.493-11.859-23.889-15.031C266.317,94.124,254.082,96.885,238.624,97.296z
		"/>
	<path style="fill:#9B7D54;" d="M89.124,454.093c0.327-3.935-0.631-7.883-0.207-11.918c0.273-2.598,1.106-5.069,1.036-7.674
		c14.996-0.769,30.064-0.666,45.024-1.195c17.169-0.607,34.414,1.34,51.661,1.523c3.84,0.041,10.162-0.23,11.932,4.078
		c1.412,3.437-1.375,8.446-4.622,9.811c-0.94,0.396-3.598-0.164-4.2,0.724c-0.85,1.254,0.827,3.909,0.919,5.249
		c0.419,6.12-5.138,5.949-10.056,6.359c-13.412,1.119-26.206,0.924-39.413,4.562c-0.134-4.253,4.066-12.131-1.486-14.514
		c-6.504-2.79-12.096,8.449-17.749,9.899c-2.56-4.107,0.95-10.593-1.131-13.548c-4.203-5.968-10.054,7.872-11.662,9.667
		c-5.23,5.837-3.271-3.265-5.016-5.968C99.384,443.762,94.951,457.911,89.124,454.093z"/>
	<path style="fill:#9B7D54;" d="M423.188,434.056c-17.063,0.058-34.187,0.952-51.269,0.876c-14.861-0.066-29.715-1.428-44.469-1.655
		c-4.792-0.074-8.877,0.073-11.859,4.238c-3.272,4.573-1.765,6.253,1.934,8.873c3.462,2.452,3.674,2.778,3.253,6.839
		c-0.508,4.899,0.365,6.242,5.4,7.511c7.64,1.928,15.836,1.87,23.648,2.217c6.271,0.278,13.164,2.069,19.358,1.483
		c1.249-4.542-2.567-15.379,5.914-13.361c3.224,0.766,11.736,10.761,14.183,8.957c3.998-2.947-4.538-16.399,4.842-14.982
		c5.716,0.864,7.294,10.969,12.503,13.498c1.653-2.269,1.257-8.056,4.424-8.685c3.155-0.627,5.729,5.277,7.9,6.969
		C425.724,452.913,421.706,441.6,423.188,434.056z"/>
</g>
<g>
	<path style="fill:#AFA680;" d="M320.231,397.46c-0.741-9.08-1.415-18.085-1.815-27.219c-0.205-4.673,2.225-16.807-2.254-20.119
		c-3.83-2.833-7.692,2.772-10.176,5.227c-4.95,4.895-10.703,9.185-17.271,11.651c-14.399,5.406-34.258,7.23-48.44,0.039
		c-4.03-2.043-7.01-6.044-10.304-9.099c-3.993-3.703-7.509-5.436-12.665-7.213c-8.098-2.791-22.255-6.32-24.149,0.488
		c-2.656,14.165-3.083,28.25-3.083,42.608c0,7.215-0.976,14.692,0,21.832c0.525,3.841,0.908,8.04,5.071,4.078
		c3.099-2.949,5.665-7.437,8.406-10.776c17.12-20.87,45.543-30.636,71.919-22.398c9.318,2.91,18.59,7.604,26.065,13.986
		c4.707,4.02,7.471,9.654,11.839,13.966c2.945,2.908,3.494,2.923,5.239-0.729C320.879,409.044,320.652,402.619,320.231,397.46z"/>
	<path style="fill:#AFA680;" d="M188.93,428.738c0.589-3.175,0.625-10.091-1.225-12.825c-3.215-4.752-13.731-5.127-18.41-7.61
		c-16.822-8.925-24.814-23.516-29.809-41.299c-7.518-26.767-9.664-54.712-6.063-82.263c4.179-31.973,14.367-70.927,50.532-78.083
		c7.351-1.454,12.924-3.308,14.701-11.089c1.74-7.614-6.938-5.694-5.114-3.487c-4.312-1.343-9.755-0.379-14.254-0.76
		c-7.199-0.61-14.494-0.493-21.716-0.802c-10.685-0.458-21.571-0.761-32.239-0.75c-8.557,0.007-17.091,1.022-25.527,1.841
		c-4.629,0.45-11.633-0.556-15.71,2.109c-5.831,3.812-2.638,8.004-0.474,12.522c1.791,3.742,1.312,6.364,0.106,10.114
		c-1.09,3.391-3.542,7.795-2.434,11.454c0.911,3.01,3.958,5.078,4.669,8.361c0.914,4.226-1.379,8.009-1.481,12.107
		c-0.074,2.933,1.194,5.432,2.052,8.17c1.165,3.72,1.032,6.218,0.278,10.085c-2.477,12.719-1.926,25.384-1.926,38.317
		c0,17.736,1.599,35.418,2.322,53.133c0.75,18.387,1.145,36.655,1.145,55.081c0,5.362-1.162,12.051,0.087,17.272
		c1.009,4.216,4.265,4.643,8.467,4.893c15.34,0.914,30.84,1.893,46.195,1.159c11.784-0.564,23.735-0.375,35.431-1.479
		C183.72,434.423,187.877,434.408,188.93,428.738z"/>
	<path style="fill:#AFA680;" d="M426.268,195.928c-3.372-2.247-9.925-2.15-13.822-2.699c-7.473-1.052-16.051-3.001-22.01,0.395
		c-4.087,0.138-8.229-0.503-12.296-0.807c-7.436-0.555-14.834,0.384-22.296,0.421c-10.22,0.049-20.192-0.048-30.391-0.772
		c-2.556-0.182-8.9-2.246-11.324-0.498c-3.625,2.615-0.941,13.836-1.12,17.702c-1.105,23.932,1.819,48.255,3.458,72.186
		c1.53,22.321,2.571,44.686,3.467,67.034c0.488,12.161,0.05,24.313,0.366,36.498c0.271,10.465,1.832,20.816,2.341,31.243
		c0.232,4.761-2.342,13.11,2.826,15.112c4.332,1.678,10.818,0.386,15.374,0.387c7.003,0,13.637,0.546,20.593,1.165
		c14.034,1.249,28.471,1.383,42.55,1.932c3.934,0.153,13.604,2.399,16.507-0.394c2.112-2.032,2.478-6.943,2.357-9.607
		c-0.379-8.309-5.258-11.346-12.313-14.325c-11.98-5.058-23.314-10.562-31.683-20.89c-11.679-14.415-19.358-31.628-25.213-49.088
		c-7.661-22.85-9.776-47.386-6.701-71.293c2.171-16.884,5.301-36.509,16.963-49.806c8.507-9.699,22.232-13.936,34.77-14.967
		c6.579-0.54,12.477,1.573,18.843,2.172c3.716,0.35,8.496,0.144,10.409-3.361C429.64,200.527,428.918,197.693,426.268,195.928z"/>
	<path style="fill:#AFA680;" d="M357.612,475.258c-5.08,1.409-9.727,2.687-15.117,2.741c-2.457,0.025-8.732,0.043-7.792-3.87
		c0.709-2.953,8.239-3.604,10.45-3.776c5.361-0.419,12.952,1.743,17.867-0.53c1.11-5.374-11.957-5.681-15.432-6.087
		c-5.364-0.626-10.912-1.205-16.328-1.167c-7.565,0.053-6.91,3.016-10.565,5.394c0,13.02-2.025,27.547,1.234,40.021
		c3.804-1.074,7.929-2.267,11.869-3.239c2.397-0.59,6.949-0.92,8.772-2.933c2.524-2.786,0.124-7.296,3.161-9.882
		c2.981-2.536,5.935-0.334,8.678,1.105c1.523,0.8,1.268,2.51,3.199,1.433c1.525-0.85,1.239-4.646,1.231-5.946
		c-0.006-1.141-0.891-3.109-0.176-4.006c1.255-1.574,2.927,0.177,4.049-0.353c2.307-1.094,3.927-4.869,2.234-7.628
		C363.181,473.661,360.37,474.492,357.612,475.258z"/>
	<path style="fill:#AFA680;" d="M182.338,499.879c-6.313-0.452-4.346-2.598-4.669-7.081c-0.365-5.05-2.557-1.098-5.109-3.836
		c-0.909-0.976,0.17-3.529-0.66-4.812c-1.025-1.581-2.734-1.692-4.384-1.938c-2.426-0.361-5.116,0.127-7.434,0.334
		c-0.375-6.264,10.742-9.687,15.119-10.878c3.17-0.864,12.696-0.785,13.334-5.246c-4.673-5.986-11.471-3.843-18.287-3.487
		c-4.486,0.233-8.904,1.103-13.38,1.473c-1.587,0.132-6.218-0.451-7.411,0.874c-1.75,1.942,0.626,6.395,0.556,8.827
		c-0.11,3.812-3.561,6.574-3.439,9.961c1.941,1.031,6.309-0.112,7.581,1.313c1.624,1.82-1.709,6.388-0.636,9.129
		c2.379-0.729,8.808-2.575,11.144-1.521c2.891,1.304,1.778,4.532,3.16,6.867c1.096,1.852,3.682,3.594,5.658,4.489
		c2.813,1.273,11.378,3.917,14.279,3.216c2.535-0.613,3.542-3.866,1.883-6.277C187.67,498.418,185.566,500.11,182.338,499.879z"/>
	<path style="fill:#AFA680;" d="M82.094,165.59c-0.559,2.884-0.986,3.811,1.041,5.387c2.673,2.08,8.893,1.351,12.01,1.463
		c7.366,0.267,15.46,0.057,22.725-1.07c8.826-1.367,19.223-1.21,28.16-0.866c7.111,0.273,14.032,0.308,21.026,0.686
		c3.632,0.197,25.901,0.558,23.063-7.478c-1.424-4.035-9.966-3.08-13.413-4.054c-7.621-2.153-13.573-7.464-17.2-14.466
		c-4.052-7.82-1.464-11.38,1.691-18.22c2.488-5.393,0.903-8.26-2.718-9.254c-0.991-0.058-2.055,0.045-3.157,0.265
		c0.492-0.47,0.891-1.044,1.145-1.788c0.885-2.585,0.072-6.102,0.761-8.878c1.253-5.048,1.748-7.716,0.396-12.992
		c-0.778-3.033-1.441-5.835-1.282-8.973c0.109-2.159,1.304-4.714,0.969-6.843c-0.436-2.765-0.352-2.601-3.523-3.258
		c-3.62-0.748-19.956-2.619-23.05,0.471c0,12.874-0.386,25.698-0.386,38.589c0,4.034-1.573,13.818-0.207,18.976
		c-2.63,1.987-5.491,3.545-9.02,3.904c-2.458,0.249-5.046-0.682-7.513-0.599c-3.376,0.112-6.214,1.692-9.628,1.938
		c-8.771,0.633-17.477-0.288-26.257,0.39c-5.091,0.394-14.145-1.34-18.751,1.054c-3.547,1.844-4.473,9.065,0.387,8.963
		c4.397-0.092,10.207-6.135,11.283,2.114c0.708,5.419-4.871,12.045,4.029,7.811c2.493-1.186,4.483-3.233,6.844-1.089
		C83.667,159.721,82.538,163.303,82.094,165.59z M144.62,121.637c1.214-0.658,2.623-1.014,4.043-1.308
		c-2.669,1.246-5.205,2.706-7.176,3.843c-0.643,0.371-1.261,0.785-1.869,1.214C141.131,123.933,142.773,122.638,144.62,121.637z"/>
	<path style="fill:#AFA680;" d="M51.184,47.089c-4.647-24.598,43.14-13.976,55.437-14.558c2.159-0.102,8.309,0.577,13.339-0.021
		c3.531,0.969,7.518,0.707,9.246,5.013c1.597,3.984,0.382,9.358,0.389,13.587c0.008,4.722,0.182,9.455,0.825,14.137
		c4.214,1.963,13.378,0.066,18.331,0.067c5.95,0.001,12.91,1.606,18.542-0.472c-1.21-4.84-8.137-8.063-10.933-12.419
		c-7.171-11.173-2.119-28.521-19.467-30.311c-1-0.103-3.594-0.17-6.674-0.035c-1.972,0.086-4.144,0.255-6.222,0.55
		c-6.374-3.326-20.877-2.605-25.375-2.98c-14.948-1.248-29.993-1.028-44.923,0.374c-7.248,0.681-15.446,3.193-22.661,2.722
		c-4.554-0.296-10.259-2.549-14.062,1.706c-0.235,0.262-0.431,0.529-0.596,0.8c-1.159,1.905-0.729,4.004-0.596,6.151
		c0.164,2.645,0.402,5.336,0.158,8.268c-0.54,6.505-1.09,13.008-1.579,19.516c-0.381,5.076-1.499,12.538,0.685,17.345
		c3.221,7.089,6.051-7.916,10.808-1.189c1.477,2.089-0.366,16.6,5.49,13.826c3.636-1.722,1.907-11.648,6.147-13.078
		c4.06-1.369,3.678,4.698,3.947,7.446c0.268,2.74-0.384,9.273,1.824,11.001c1.969,1.541,5.398,0.339,6.762-1.268
		c2.111-2.486,1.781-7.721,2.398-10.843c0.752-3.799,1.247-7.802,2.357-11.514c0.619-2.069,2.85-5.109,3.057-7.133
		C58.347,58.768,52.17,52.305,51.184,47.089z"/>
	<path style="fill:#AFA680;" d="M117.658,121.511c2.689-0.467,3.475-10.787,3.454-12.536c-0.141-11.353-0.126-23.849-3.37-34.79
		c-1.477-4.979-4.459-10.411-9.129-13.212c-8.048-4.828-2.855,6.818-2.922,5.114c4.133,6.985,5.13,16.604,7.619,24.247
		c2.681,8.23,2.192,16.288,2.004,24.688C115.28,116.659,115.025,121.969,117.658,121.511z"/>
	<path style="fill:#AFA680;" d="M198.101,38.04c3.575-0.867,8.264-0.351,11.889-0.466c6.976-0.22,13.891,0.658,20.885,0.405
		c12.644-0.459,24.88,0.27,37.477,0.365c15.633,0.118,32.948-0.208,48.142,2.552c1.535-7.653-0.546-8.711-7.843-8.347
		c-9.514,0.476-19.139-0.304-28.673-0.755c-21.594-1.022-42.923-0.397-64.539-0.387c-6.494,0.003-14.39-2.064-20.682-0.328
		c-0.125,2.163-0.025,4.381-0.384,6.435C196.805,37.674,199.288,37.609,198.101,38.04z"/>
	<path style="fill:#AFA680;" d="M198.101,38.04c-0.373,0.09-0.745,0.181-1.09,0.304C197.53,38.221,197.876,38.123,198.101,38.04z"/>
	<path style="fill:#AFA680;" d="M206.171,114.609c5.056-5.458,10.912-10.021,17.898-12.686c8.811-3.361,17.97-5.755,27.357-6.637
		c6.148-0.578,12.667,1.022,18.697,0.085c5.439-0.844,5.959-5.585,0.403-7.638c-6.982-2.581-15.777-0.142-23.05-0.454
		c-9.414-0.404-17.276,2.637-26.598,3.967c-12.659,1.809-11.547-8.612-10.045-17.394c-4.496-0.22-14.783-2.045-16.134,1.483
		c0,9.349,0.899,18.847,0.095,28.136c-0.397,4.581-2.525,16.09,0.301,20.43C197.871,128.167,203.759,117.213,206.171,114.609z"/>
	<path style="fill:#AFA680;" d="M418.741,161.327c-2.535-1.697-5.889-2.86-7.902-4.116c-6.593-4.114-11.209-10.132-9.286-17.81
		c-3.27-4.801-5.229-7.773-5.808-13.975c-0.889-9.512-0.402-20.315,1.126-29.778c0.764-4.738,1.36-9.698,2.414-14.395
		c1.046-4.658,3.413-9.023,4.266-13.72c1.214-6.682-1.421-9.674-3.292-15.588c-2.124-6.711,0.13-16.311,2.017-22.827
		c0.628-2.169,2.954-5.921,1.111-7.341c-1.384-1.068-6.664,0.182-8.264,0.363c-3.908,0.442-12.141-0.066-13.515,4.1
		c-1.077,3.265,0.202,10.773,0.352,14.42c0.185,4.502,1.618,10.775-0.396,15.043c-1.901,4.028-6.26,5.021-10.784,4.975
		c-3.502-0.035-7.102-0.693-9.736-1.047c-7.966-1.068-15.142-3.734-20.736-9.718c-2.986-3.193-5.871-7.749-7.08-12.016
		c-1.34-4.727,1.04-10.607-3.263-14.405c-3.265-2.883-8.357-1.584-12.159-0.748c-0.056,0.404-0.101,0.81-0.137,1.216
		c-0.498,5.618,0.739,11.582,0.692,17.223c-0.061,7.279-1.074,14.455-0.689,21.763c0.031,0.581,34.221,1.208,37.38,1.378
		c6.626,0.356,13.206,1.056,19.799,1.374c2.547,0.122,5.491,0.311,8.208,0.447c0.57,4.465-1.64,8.61-0.683,13.22
		c0.642,3.09,1.896,5.697,2.233,8.891c0.959,9.066,0.221,18.393-0.316,27.461c-0.484,8.193-3.226,16.17-2.438,24.405
		c0.582,6.078,1.764,12.018,1.645,18.163c-0.017,0.864-0.127,1.73-0.268,2.582c-0.313,0.009-0.629,0.018-0.943,0.026
		c-10.765,0.319-22.859-0.819-31.866-7.305c-7.641-5.503-9.327-15.405-4.41-23.21c1.697-2.693,4.48-6.651,3.693-10.043
		c-0.41-1.763-1.348-2.616-2.534-3.101c-2.136-0.874-5.076-0.557-7.18-2.231c-0.682-0.543-1.228-1.634-1.565-1.909
		c-1.6-1.309-3.459-2.18-5.585-3.457c-8.861-5.326-1.914-23.333,5.313-27.512c7.746-4.48,17.268-3.49,25.73-2.831
		c3.161,0.246,14.367,2.269,16.683-1.263c3.458-5.275-10.721-4.801-13.157-4.921c-8.452-0.416-16.982,0.038-25.417,0.384
		c-4.724,0.196-9.441,0.3-14.191,0.3c-2.057,0-7.69-0.938-9.428,0.376c-2.694,2.039-0.917,10.336-0.755,13.601
		c0.381,7.651-0.009,15.414-0.009,23.078c0,5.664-0.253,11.433,0.491,16.973c0.716,5.341,2.044,9.877,1.746,15.247
		c-0.337,6.069,0.169,11.988,1.039,17.996c0.215,1.485-0.116,5.282,0.564,6.515c1.382,2.508,2.748,1.525,5.485,1.938
		c11.511,1.737,23.365,1.975,35.061,1.764c9.531-0.172,19.055,0.395,28.627,0.378c11.848-0.021,24.259,1.326,35.934,0.085
		c3.745-0.398,4.105-0.097,4.333-3.726C431.315,161.315,423.97,161.655,418.741,161.327z"/>
	<path style="fill:#AFA680;" d="M490.034,64.607c-3.274,0.904-5.278,8.33-8.749,7.594c-4.567-0.97,0.172-9.192-3.676-10.322
		c-2.683-0.788-5.895,4.883-9.437,4.233c-4.156-0.763-5.195-7.381-7.486-10.415c-2.751-3.641-18.706-11.07-21.682-5.266
		c-2.193,4.281,12.738,13.852,15.247,16.993c3.249,4.066,6.755,10.117,7.551,15.317c0.564,3.68,0.571,8.489,1.072,11.473
		c8.619,3.354-0.936-15.726,7.731-16.781c5.73-0.698,8.224,18.001,11.545,8.125c1.042-3.099,1.401-7.43,4.589-9.271
		c2.647-1.528,5.705,1.64,6.977,0.802C495.967,75.605,495.564,63.081,490.034,64.607z"/>
</g>
<g>
	<path style="fill:#846744;" d="M192.678,147.125c-1.336,3.456-0.352,8.82-0.837,12.592c-0.375,2.916-1.255,6.101-1.186,9.02
		c6.387,0.601,11.497,3.494,13.55-4.262c2.698-10.194,3.171-20.517,12.095-27.719c9.646-7.785,21.873-14.844,34.118-17.274
		c7.769-1.541,16.56,0.725,23.978,3.027c5.687,1.764,12.297,5.854,16.494,10.193c4.64,4.798,10.613,12.347,12.344,18.927
		c1.234,4.693-0.157,9.486,0.022,14.201c0.1,2.654,0.461,3.494,3.201,4.051c1.975,0.402,5.075,0.682,6.644-0.898
		c3.839-3.869,0.189-14.864-0.934-19.207c-2.541-9.837-7.117-17.502-15.228-23.781c-11.203-8.673-25.697-13.927-39.868-14.392
		c-14.183-0.466-25.25,6.548-35.883,14.936c-4.034,3.181-7.64,6.601-10.903,10.594c-2.015,2.465-3.823,6.572-7.534,6.347
		c-2.341-0.142-4.124-2.521-6.69-1.779C193.356,142.484,193.041,145.915,192.678,147.125z"/>
	<path style="fill:#846744;" d="M90.093,181.663c8.373-0.396,16.725,0.272,25.084,0.024c12.515-0.371,25.048-0.529,37.565-0.295
		c12.869,0.239,25.871,0.237,38.635,2.076c4.468,0.644,12.012,0.458,9.563,6.59c-1.441,3.607-3.438,2.819-7.019,2.958
		c-6.402,0.251-12.757,0.173-19.159-0.009c-17.64-0.502-35.52-0.946-53.141-0.319c-8.46,0.301-16.933,0.293-25.375,0.837
		c-2.76,0.177-7.452,1.465-9.978,0.197c1.285-3.435,2.783-10.418-1.844-12.061C81.814,180.737,88.838,181.722,90.093,181.663z"/>
	<path style="fill:#846744;" d="M312.018,182.436c23.48-3.299,47.194-0.618,70.794,0.321c9.919,0.395,20.019,0.941,29.931,0.201
		c4.299-0.32,9.055-1.39,12.313,1.941c1.826,1.867,2.18,6.176,0.07,8.311c-2.775,2.806-11.296,0.319-14.619-0.056
		c-9.553-1.076-19.3-0.539-28.896-1.052c-10.159-0.545-20.357-0.387-30.534-0.387c-10.751,0-21.478-0.154-32.227-0.259
		C315.148,191.422,307.814,190.334,312.018,182.436z"/>
	<path style="fill:#846744;" d="M90.093,443.54c5.217,0.166,10.6-1.285,15.98-1.009c5.19,0.265,10.272,0.752,15.49,0.752
		c12.956,0,25.851-0.007,38.828,0c8.46,0.005,17.001-0.625,25.448-1.088c1.751-0.096,12.819-1.668,11.64,3.085
		c-0.742,2.99-8.719,3.355-10.863,3.648c-5.338,0.731-10.785,0.836-16.164,1.321c-6.361,0.573-15.82-1.877-17.223,6.3
		c-0.421,2.458-0.026,4.495-2.439,5.949c-2.382,1.437-6.81,1.868-9.572,1.636c-1.076-5.361,2.526-14.168-6.586-10.811
		c-3.649,1.345-6.544,4.611-9.476,7.096c-4.259,3.608-4.393,0.882-4.192-3.43c0.121-2.601,1.5-7.636-0.318-9.7
		c-3.097-3.515-6.306,1.472-8.13,3.727c-1.565,1.933-5.153,7.932-7.864,8.144c-3.964,0.31-2.043-5.456-3.207-7.58
		c-2.478-4.527-5.642,1.469-7.346,3.384C88.382,461.398,86.981,449.054,90.093,443.54z"/>
	<path style="fill:#846744;" d="M312.275,441.993c16.901,0,33.79,0.041,50.725,0.001c8.39-0.021,16.716,1.304,25.112,1.288
		c7.12-0.014,14.098-0.46,21.196-0.787c2.986-0.137,10.164-1.791,11.945,1.228c1.543,2.615-0.294,8.366-1.252,10.926
		c-1.764,4.713-2.913-0.395-4.91-2.576c-2.921-3.192-5.124-1.014-6.43,2.423c-0.829,2.18-4.432,7.864-6.755,3.512
		c-0.655-1.229-0.006-2.97-0.643-4.427c-0.534-1.223-1.679-2.321-2.577-3.273c-1.908-2.024-6.385-5.288-7.493-1.191
		c-0.927,3.423,2.224,8.089-0.819,11.138c-2.966,2.972-5.385-0.397-6.952-2.724c-2.042-3.033-3.796-5.172-7.546-5.475
		c-10.823-0.877-0.797,6.708-7.263,10.113c-2.118,1.115-6.186,0.912-8.525,0.968c-3.554,0.085-7.079-0.526-10.671-0.521
		c-3.999,0.006-7.961-0.407-11.939-0.321c-3.864,0.083-8.134,0.932-11.937,0.533c-1.568-0.165-3.79-0.673-4.765-1.996
		c-1.644-2.232,0.98-4.621,0.286-6.756c-0.545-1.676-2.381-1.571-3.617-2.399C314.689,449.827,312.688,446.637,312.275,441.993z"/>
	<path style="fill:#846744;" d="M253.993,56.585c-2.637-0.071-6.348,0.438-8.798,1.455c-3.441,1.428-3.839,4.149-4.235,7.535
		c-0.437,3.737-1.396,7.378-1.858,11.11c-0.293,2.36-1.113,5.762,0.278,7.947c1.412,2.217,6.159,2.051,8.653,2.058
		c4.54,0.013,9.239-0.073,13.73-0.789c2.202-0.351,4.413-0.754,6.655-0.855c1.049-0.047,2.576,0.407,3.382-0.388
		c0.739-0.731,0.642-3.18,0.234-3.995c-1.032-2.065-4.094-1.901-5.999-1.87c-7.007,0.111-13.318-1.023-13.728-9.388
		C252.17,66.638,255.919,56.842,253.993,56.585z"/>
	<path style="fill:#846744;" d="M130.675,70.613c8.05,0.609,16.567-1.477,24.701-1.465c10.257,0.014,20.474-1.071,30.747-1.048
		c13.977,0.032,27.923-1.435,41.862-1.266c2.648,0.032,5.676-0.094,8.437,0.221c2.485,0.283,4.102,3.233,1.25,5.045
		c-1.727,1.097-6.338,0.121-8.33,0.178c-6.188,0.18-12.385,0.22-18.57,0.476c-11.365,0.47-22.636,0.644-34.016,0.362
		c-11.73-0.292-23.491,0.353-35.2,0.644c-2.914,0.072-6.823,0.842-9.683,0.205C130.099,73.568,129.279,71.217,130.675,70.613z"/>
	<path style="fill:#846744;" d="M271.37,68.101c6.868,0.188,13.823-0.487,20.728-0.423c9.74,0.09,19.523,0.116,29.26,0.413
		c17.392,0.532,34.767,0.837,52.15,0.849c2.278,0.001,5.763-0.869,6.786,1.465c0.475,1.083,0.311,1.788-0.225,2.837
		c-0.833,1.628-0.523,1.273-2.815,1.159c-20.589-1.033-41.273,0.046-61.864-1.065c-11.089-0.598-22.217-0.747-33.302-1.209
		c-2.353-0.098-6.346,0.787-8.531-0.037C272.365,71.64,271.031,69.724,271.37,68.101z"/>
	<path style="fill:#846744;" d="M326.224,3.197c-0.008,2.656-0.94,6.417,0.395,8.809c1.645,2.948,5.64,2.52,7.732,4.853
		c3.371,3.759-7.86,4.206-9.914,4.553c-1.374,0.232-4.998,1.152-6.26,0.191c-1.239-0.944-0.538-4.559-0.538-6.051
		c0-2.418-0.939-6.902-0.21-9.136C318.243,3.92,321.629,4.595,326.224,3.197z"/>
	<path style="fill:#846744;" d="M376.891,4.244c0.724,2.498,0.133,5.218,1.668,7.448c1.451,2.108,5.174,3.049,5.842,5.548
		c1.08,4.044-8.236,4.595-10.767,4.173c-3.676-0.612-3.179-4.519-3.012-7.588c0.1-1.838-1.034-5.579-0.072-7.252
		C371.666,4.631,375.564,5.499,376.891,4.244z"/>
	<path style="fill:#846744;" d="M181.342,4.662c0.008,3.11,0.265,5.294,2.093,7.914c0.764,1.095,3.488,3.825,2.924,5.366
		c-0.808,2.208-11.432,3.051-13.779,3.227c-0.85-2.274,0.113-6.035,0.073-8.463c-0.046-2.74,0.405-5.472,0.55-8.218
		C175.498,3.722,177.868,3.556,181.342,4.662z"/>
	<path style="fill:#846744;" d="M128.372,4.453c-0.263,3.509,0.683,7.199,1.941,10.435c0.42,1.08,2.115,3.705,1.631,4.685
		c-1.639,3.315-9.442,1.636-11.826,0.27c-1.009-0.579-1.532-1.141-1.805-2.188c-0.554-2.114-0.1-6.198,0.029-8.387
		c0.058-0.998-0.059-4.063,0.596-4.902C120.435,2.452,126.564,2.866,128.372,4.453z"/>
	<path style="fill:#846744;" d="M195.387,27.805c10.894-0.011,21.756-1.368,32.658-1.36c6.753,0.005,13.496-0.241,20.24-0.553
		c3.363-0.156,6.791-0.726,10.156-0.647c2.629,0.062,5.175,0.694,7.872,0.739c7.2,0.121,14.394,0.448,21.587,0.758
		c8.739,0.375,17.591,0.395,26.291,1.07c1.753,0.136,3.319-0.35,3.125,1.694c-0.234,2.48-2.273,2.632-4.349,2.812
		c-7.186,0.619-14.713-0.603-21.932-0.601c-11.6,0.005-23.16-0.929-34.703-0.795c-12.364,0.143-24.724,0.532-37.086,0.781
		c-6.76,0.136-13.521,0.341-20.282,0.355c-1.264,0.002-3.491,0.404-4.561-0.477C193.379,30.737,193.391,28.829,195.387,27.805z"/>
</g>
<path d="M500.866,39.743c-0.24-4.495,0.209-9.12-1.038-13.506c-0.888-3.124-2.426-7.103-5.937-8.033
	c-1.74-0.461-3.541,0.159-5.26,0.304c-2.283,0.192-4.654,0.064-6.941,0.095c-9.639,0.128-19.079-1.835-28.661-2.057
	c-4.969-0.116-9.947-0.079-14.918-0.154c-4.505-0.067-8.857-1.293-13.372-0.952c-5.354,0.405-10.632,0.474-16.009,0.318
	c-3.955-0.114-7.593,0.521-11.526,0.821c-0.533,0.041-1.067,0.069-1.6,0.104c0.017-3.116-0.219-6.29-0.363-9.393
	c-0.076-1.645,0.301-3.734-0.914-5.075c-1.786-1.971-4.585-1.24-6.831-1.065c-3.986,0.312-7.97,0.086-11.951,0.675
	c-1.999,0.295-5.134,0.307-6.803,1.63c-1.848,1.467-1.65,3.702-1.597,5.857c0.071,2.941-0.041,5.826-0.169,8.741
	c-8.393,0.54-16.791-0.162-25.194-0.36c0.165-1.758,0.087-3.568,0.121-5.312c0.07-3.519,0.253-7.035-0.372-10.511
	c-0.183-1.016-1.433-1.957-2.449-1.865c-3.729,0.341-7.463,0.668-11.2,0.872c-2.937,0.16-7.318-0.309-9.939,1.352
	c-2.331,1.477-2.326,4.301-2.418,6.754c-0.112,3.006,0.096,6.181-0.198,9.235c-3.24,0.151-6.474,0.319-9.693,0.511
	c-4.915,0.293-9.843,0.265-14.77,0.261c-5.673-0.698-11.273-1.246-17.092-1.297c-0.558-0.005-1.15-0.029-1.761-0.061
	c-5.607-2.116-13.126-0.321-18.705-0.237c-1.596,0.024-3.177,0.035-4.754,0.055c-3.494-0.308-7.339,0.216-10.322,0.243
	c-5.819,0.05-11.419,0.598-17.092,1.297c-4.927,0.005-9.855,0.032-14.77-0.261c-3.219-0.192-6.453-0.36-9.693-0.511
	c-0.294-3.054-0.086-6.229-0.198-9.235c-0.092-2.453-0.087-5.278-2.418-6.754c-2.621-1.66-7.002-1.191-9.939-1.352
	c-3.735-0.204-7.47-0.531-11.2-0.872c-1.016-0.093-2.267,0.849-2.449,1.865c-0.625,3.477-0.442,6.993-0.372,10.511
	c0.034,1.743-0.043,3.554,0.121,5.312c-8.401,0.198-16.801,0.901-25.194,0.36c-0.128-2.915-0.239-5.8-0.169-8.741
	c0.051-2.155,0.251-4.391-1.597-5.857c-1.669-1.325-4.805-1.335-6.803-1.63c-3.98-0.589-7.966-0.363-11.95-0.675
	c-2.246-0.176-5.045-0.906-6.831,1.065c-1.215,1.34-0.839,3.43-0.914,5.075c-0.143,3.105-0.38,6.278-0.363,9.393
	c-0.533-0.035-1.067-0.063-1.6-0.104c-3.933-0.301-7.572-0.936-11.526-0.821c-5.377,0.156-10.655,0.087-16.009-0.318
	c-4.515-0.342-8.867,0.883-13.372,0.952c-4.971,0.076-9.948,0.04-14.918,0.154c-9.582,0.222-19.022,2.186-28.661,2.057
	c-2.288-0.031-4.658,0.097-6.942-0.095c-1.719-0.145-3.52-0.764-5.26-0.304c-3.511,0.93-5.05,4.909-5.937,8.033
	c-1.247,4.386-0.797,9.011-1.038,13.506c-0.28,5.243,0.58,10.582,0.708,15.829c0.122,5.052,0.142,10.108,0.41,15.155
	c0.213,4.013-0.221,10.836,1.523,14.454c0.61,1.266,2.93,3.241,4.489,2.31c1.328-0.794,0.855-4.845,1.114-6.398
	c0.315-1.884,1.234-5.139,3.959-3.512c0.618,0.37,1.153,2.168,1.368,2.782c0.351,1.004,0.483,2.029,0.684,3.07
	c0.732,3.78,0.919,11.601,5.908,12.182c1.565,0.182,2.561-1.398,2.709-2.709c0.331-2.954,1.602-5.958,2.821-8.65
	c0.511-1.128,1.006-2.258,1.576-3.358c1.043-2.005,1.034-2.501,1.128,0.411c0.132,4.061,0.499,7.98,0.343,12.082
	c-0.098,2.593-0.331,4.738,0.884,7.122c0.689,1.35,2.672,2.18,4.121,1.677c2.144-0.745,3.216-2.019,4.968-3.353
	c0.563-0.428,1.461-0.419,1.767-0.641c0.122,1.102-0.046,3.046-0.067,3.342c-0.464,6.349-6.147,9.972-6.824,15.795
	c-0.293,2.521,2.712,4.396,4.911,3.741c8.294-2.472,1.952,9.342-0.162,11.765c-1.83,2.097-3.62,4.364-2.024,7.215
	c1.686,3.012,5.243,1.549,6.364,4.521c1.16,3.076-1.723,8.405-1.749,11.681c-0.023,2.885,3.926,3.895,5.376,1.456
	c1.195-2.011,2.662-3.769,4.304-5.412c0.47-0.47,0.534-1.173,1.062-1.616c2.037-1.716,1.97-0.577,2.502,0.901
	c1.656,4.6-1.028,10.155,0.15,14.908c0.652,2.63,4.726,4.117,6.574,1.735c1.211-1.562,2.002-4.369,3.488-5.584
	c4.608-3.767,2.802,4.416,2.1,6.292c-1.31,3.503-4.955,7.511-3.82,11.359c0.483,1.637,1.909,2.628,3.57,2.718
	c0.994,0.054,2.533-0.95,3.282-0.816c2.75,0.488,1.957,4.262,1.457,5.966c-0.618,2.108-1.817,4.546-3.195,6.32
	c-1.097,1.413-2.177,1.925-2.629,3.776c-0.898,3.689,1.923,4.426,3.547,6.976c3.147,4.944-3.535,10.909-4.012,16.038
	c-0.333,3.583,1.109,5.759,3.056,8.588c3.572,5.189,1.249,9.334,0.548,15.007c-0.439,3.554,0.734,5.655,2.589,8.459
	c1.759,2.657,1.365,3.25,0.41,6.038c-0.823,2.405-1.54,4.732-1.603,7.294c-0.112,4.562,0.678,9.302,0.895,13.886
	c0.227,4.813,0.144,9.653,0.451,14.457c0.699,10.944,0.715,21.681,0.772,32.62c0.054,10.276-0.35,20.561-0.423,30.852
	c-0.029,3.983,0.631,7.872,0.62,11.832c-0.015,5.56-0.38,11.203,0.05,16.749c0.889,11.454,0.579,23.097,0.733,34.605
	c0.076,5.633,0.928,11.137,0.88,16.795c-0.033,3.906-1.679,31.058,5.334,28.855c4.809-1.511,5.432-7.772,8.236-11.312
	c0.684-0.864,1.517-1.598,2.228-2.439c-0.581,2.734-0.16,7.366,0.194,10.012c0.27,2.02,2.153,3.518,4.16,2.386
	c3.413-1.924,4.053-6.096,6.251-9.041c1.052-1.409,2.317-2.668,3.435-4.037c0.582-0.713,2.412-3.799,3.256-4.013
	c0.962-0.244,0.491-0.654,0.59,1.06c0.302,5.211-5.616,12.433-1.931,17.21c1.678,2.176,4.36,1.867,6.312,0.308
	c3.696-2.953,5.286-7.724,9.463-10.429c1.159-0.75,2.519-1.576,3.845-1.962c0.764-0.223,1.219-0.384,1.486-0.495
	c-0.097,0.103-0.159,0.246-0.079,0.428c0.39,0.875-0.785,3.521-1.133,4.449c-1.512,4.031-3.868,7.968-4.577,12.261
	c-0.374,2.264,0.975,4.965,3.66,4.805c2.179-0.129,3.236-0.614,5.003-1.827c1.101-0.755,2.118-1.707,3.257-2.399l1.406-0.841
	c1.652-1.106,2.081-1.068,1.286,0.113c0.252,1.925-2.072,5.151-2.598,7.1c-0.558,2.067-1.051,4.335-1.03,6.48
	c0.021,1.945,2.583,3.176,3.98,1.648c0.972-1.062,4.242-1.691,4.916,0.097c0.184,0.49-0.612,2.208-0.786,2.77
	c-0.357,1.151-0.852,2.267-1.027,3.465c-0.354,2.412,0.168,4.798,2.727,5.622c2.346,0.756,4.791-0.799,6.814-1.798
	c1.046-0.517,2.808-1.878,4.007-1.69c2.48,0.39,1.038,2.913,1.19,4.842c0.247,3.123,1.918,4.41,4.551,5.578
	c2.028,0.899,4.176,1.673,6.311,2.225c3.035,0.785,4.728,2.194,7.51,3.358c3.195,1.335,7.722,0.874,10.622-1.123
	c3.049-2.098,1.777-10.84,1.765-14.243c-0.015-4.511-0.043-9.019-0.103-13.53c-0.084-6.349,0.614-13.87-1.328-20.222
	c0.345-0.317,0.662-0.666,0.907-1.086c1.125-1.928,0.461-4.36,0.559-6.458c0.104-2.21-0.835-1.741,1.236-2.834
	c1.389-0.733,3.018-0.643,4.375-1.634c1.65-1.205,2.335-2.895,2.639-4.845c0.712-4.56,0.421-10.843-4.203-13.046
	c-1.241-0.591-3.075-0.379-4.205-1.107c-0.503-0.324-0.786-0.558-0.956-0.813c4.005-9.455,10.281-18.085,17.775-25.478
	c4.345-4.286,9.788-8.314,15.189-11.12c4.472-2.323,9.259-3.625,13.961-5.139c3.71-0.756,7.431-1.496,11.141-1.707
	c4.602-0.262,9.343-0.222,13.978,0.207c6.03,2.309,12.424,3.599,18.276,6.639c5.401,2.805,10.844,6.833,15.189,11.12
	c7.494,7.392,13.769,16.023,17.775,25.478c-0.169,0.255-0.453,0.49-0.956,0.813c-1.13,0.729-2.964,0.516-4.205,1.107
	c-4.625,2.203-4.915,8.486-4.203,13.046c0.304,1.95,0.99,3.641,2.639,4.845c1.357,0.991,2.986,0.9,4.375,1.634
	c2.071,1.092,1.133,0.623,1.236,2.834c0.098,2.097-0.565,4.529,0.559,6.458c0.245,0.42,0.561,0.769,0.907,1.086
	c-1.942,6.353-1.245,13.872-1.328,20.222c-0.058,4.51-0.088,9.019-0.103,13.53c-0.011,3.402-1.284,12.145,1.765,14.243
	c2.9,1.996,7.427,2.457,10.622,1.123c2.782-1.162,4.475-2.573,7.51-3.358c2.136-0.551,4.283-1.326,6.311-2.225
	c2.632-1.167,4.304-2.455,4.551-5.578c0.152-1.929-1.29-4.452,1.19-4.842c1.2-0.189,2.962,1.173,4.007,1.69
	c2.021,1,4.467,2.555,6.814,1.798c2.558-0.824,3.08-3.21,2.727-5.622c-0.176-1.198-0.67-2.314-1.027-3.465
	c-0.174-0.562-0.971-2.28-0.786-2.77c0.674-1.788,3.943-1.159,4.916-0.097c1.398,1.527,3.959,0.296,3.98-1.648
	c0.023-2.144-0.471-4.412-1.03-6.48c-0.526-1.948-2.85-5.174-2.598-7.1c-0.795-1.181-0.366-1.218,1.286-0.113l1.406,0.841
	c1.141,0.692,2.158,1.645,3.257,2.399c1.766,1.213,2.823,1.697,5.003,1.827c2.686,0.16,4.034-2.542,3.66-4.805
	c-0.709-4.292-3.065-8.229-4.577-12.261c-0.348-0.927-1.523-3.573-1.133-4.449c0.08-0.182,0.018-0.325-0.079-0.428
	c0.267,0.111,0.722,0.272,1.486,0.495c1.326,0.387,2.686,1.213,3.845,1.962c4.177,2.704,5.767,7.477,9.463,10.429
	c1.953,1.559,4.635,1.868,6.313-0.308c3.685-4.778-2.233-11.999-1.931-17.21c0.1-1.716-0.372-1.304,0.589-1.06
	c0.844,0.214,2.673,3.3,3.256,4.013c1.119,1.369,2.383,2.628,3.435,4.037c2.198,2.945,2.837,7.118,6.251,9.041
	c2.008,1.131,3.89-0.367,4.16-2.386c0.355-2.646,0.776-7.278,0.194-10.012c0.712,0.841,1.543,1.575,2.228,2.439
	c2.804,3.538,3.425,9.799,8.234,11.312c7.013,2.203,5.366-24.949,5.334-28.855c-0.048-5.657,0.804-11.162,0.88-16.795
	c0.154-11.508-0.156-23.152,0.733-34.605c0.43-5.545,0.066-11.188,0.05-16.749c-0.01-3.96,0.649-7.848,0.62-11.832
	c-0.073-10.291-0.477-20.576-0.423-30.852c0.057-10.939,0.073-21.674,0.772-32.62c0.307-4.804,0.224-9.644,0.451-14.457
	c0.216-4.584,1.007-9.323,0.895-13.886c-0.063-2.563-0.78-4.891-1.604-7.294c-0.954-2.789-1.349-3.38,0.41-6.038
	c1.856-2.803,3.028-4.903,2.589-8.459c-0.701-5.673-3.022-9.818,0.548-15.007c1.947-2.829,3.388-5.004,3.056-8.588
	c-0.477-5.128-7.16-11.093-4.012-16.037c1.624-2.55,4.445-3.287,3.548-6.976c-0.451-1.851-1.531-2.363-2.629-3.776
	c-1.378-1.774-2.577-4.213-3.195-6.32c-0.5-1.703-1.293-5.479,1.459-5.966c0.749-0.133,2.287,0.869,3.282,0.816
	c1.661-0.09,3.086-1.081,3.57-2.718c1.135-3.847-2.51-7.856-3.82-11.359c-0.701-1.876-2.508-10.059,2.1-6.292
	c1.486,1.214,2.276,4.022,3.488,5.584c1.849,2.382,5.924,0.895,6.574-1.735c1.177-4.752-1.507-10.307,0.149-14.908
	c0.532-1.478,0.464-2.617,2.502-0.901c0.527,0.444,0.593,1.147,1.062,1.616c1.642,1.643,3.108,3.401,4.304,5.412
	c1.451,2.439,5.398,1.429,5.376-1.456c-0.026-3.276-2.908-8.606-1.749-11.681c1.12-2.972,4.677-1.509,6.364-4.521
	c1.596-2.851-0.193-5.118-2.024-7.215c-2.114-2.423-8.456-14.237-0.162-11.765c2.199,0.656,5.204-1.219,4.911-3.741
	c-0.677-5.822-6.359-9.446-6.824-15.795c-0.022-0.295-0.19-2.239-0.067-3.342c0.307,0.221,1.206,0.212,1.767,0.641
	c1.751,1.335,2.824,2.608,4.968,3.353c1.448,0.502,3.433-0.327,4.121-1.677c1.215-2.383,0.983-4.529,0.884-7.122
	c-0.156-4.101,0.212-8.019,0.343-12.082c0.094-2.91,0.085-2.416,1.128-0.411c0.572,1.099,1.065,2.228,1.576,3.358
	c1.219,2.692,2.49,5.696,2.821,8.65c0.146,1.311,1.143,2.891,2.709,2.709c4.99-0.581,5.175-8.403,5.908-12.182
	c0.201-1.041,0.333-2.066,0.684-3.07c0.215-0.614,0.749-2.413,1.368-2.782c2.725-1.627,3.645,1.627,3.959,3.512
	c0.26,1.554-0.214,5.604,1.114,6.398c1.559,0.931,3.878-1.043,4.488-2.31c1.743-3.618,1.311-10.44,1.523-14.454
	c0.267-5.047,0.286-10.104,0.41-15.155C500.286,50.323,501.147,44.985,500.866,39.743z M372.405,7.36
	c0.376,0.124,1.705,0.011,2.007-0.03c2.794-0.383,5.52-0.784,8.342-0.935c1.53-0.081,3.235,0.144,4.744-0.067
	c0.275-0.039,2.339-0.603,2.246-0.635c0.345-0.545,0.459-0.526,0.34,0.054c-0.031,0.44-0.023,0.88,0.027,1.319
	c0.168,0.841,0.283,1.681,0.365,2.529c0.237,2.425,0.177,4.929,0.611,7.332c-6.111,0.26-12.243,0.311-18.356,0.707
	c0.247-2.816-0.152-5.768-0.292-8.539c-0.011-0.573-0.023-1.147-0.034-1.722C372.404,7.368,372.405,7.364,372.405,7.36z
	 M422.104,187.366c0.106,1.082,0.415,2.552,0.884,4.109c-7.368-1.981-16.902-1.419-23.668-1.151
	c-10.592,0.419-21.061-0.466-31.635-0.855c-10.181-0.375-20.419-0.861-30.632-0.89c-4.384-0.013-8.645,0.426-13.027,0.231
	c-2.478-0.11-7.521,1.038-9.304-1.309c-0.162-0.215-0.3-0.516-0.415-0.882c-1.494-4.75-1.517-10.63,3.648-12.231
	c6.207-1.925,12.921-0.718,19.269-0.411c11.884,0.577,23.698,0.805,35.595,0.988c11.543,0.177,23.016,0.61,34.588,0.5
	c5.177-0.049,10.194-0.042,15.343,0.374c1.302,0.105,2.732,0.296,4.156,0.351c-0.368,0.221-0.724,0.458-1.054,0.718
	C422.663,179.433,421.721,183.455,422.104,187.366z M288.263,343.352c-4.903-0.487-10.195-0.452-15.122-0.13
	c-0.653,0.042-1.32,0.077-1.996,0.106c-5.253-0.013-10.512,0.019-15.749-0.11c-3.27-0.08-6.544,0.079-9.81,0.295
	c-2.301-0.1-4.578-0.152-6.721-0.292c-4.927-0.321-10.219-0.358-15.122,0.13c-8.359,0.832-18.519-1.805-27.044,0.477
	c0.291-3.975,0.096-8.149,0.045-11.693c-0.106-7.319,0.538-14.58,0.415-21.856c-0.104-6.145,0-12.617,0.566-18.737
	c0.686-7.422,0.169-14.768,0.438-22.189c0.259-7.166,0.367-14.537,0.868-21.67c0.484-6.902,1.479-13.593,1.247-20.551
	c-0.229-6.846-0.331-13.651-0.029-20.46c0.169-3.82,0.553-8.015,0.229-12.029c1.278-0.58,2.289-1.499,2.749-2.875
	c0.808-2.418-0.312-5.855-0.547-8.266c-0.275-2.833-0.305-5.473-0.834-8.105c3.788,0.256,7.405-0.907,8.794-5.157
	c0.919-2.814,0.486-5.956,0.055-8.805c-0.658-4.347,0.347-7.206,1.883-11.235c3.018-7.916,8.151-13.555,14.654-18.82
	c3.898-3.155,8.336-5.118,13.041-6.784c0.986-0.349,1.994-0.73,3.014-1.112c3.56-0.251,7.483-1.676,10.744-2.045
	c2.018-0.229,4.468-0.415,6.947-0.414c3.634,0.782,7.322,2.357,10.752,3.572c4.705,1.666,9.144,3.629,13.041,6.784
	c6.504,5.266,11.637,10.903,14.654,18.82c1.536,4.029,2.542,6.888,1.883,11.235c-0.431,2.849-0.865,5.991,0.055,8.805
	c1.389,4.25,5.006,5.413,8.794,5.157c-0.529,2.631-0.559,5.273-0.833,8.105c-0.233,2.412-1.354,5.848-0.547,8.266
	c0.46,1.376,1.471,2.295,2.749,2.875c-0.324,4.013,0.06,8.208,0.229,12.029c0.302,6.809,0.199,13.613-0.029,20.46
	c-0.232,6.958,0.763,13.649,1.247,20.551c0.501,7.134,0.61,14.505,0.868,21.67c0.268,7.421-0.248,14.767,0.438,22.189
	c0.566,6.12,0.67,12.593,0.566,18.737c-0.124,7.276,0.522,14.537,0.415,21.856c-0.051,3.544-0.247,7.717,0.045,11.693
	C306.782,341.548,296.623,344.184,288.263,343.352z M86.153,176.907c-0.328-0.261-0.685-0.497-1.054-0.718
	c1.423-0.055,2.854-0.246,4.155-0.351c5.149-0.415,10.167-0.423,15.343-0.374c11.573,0.11,23.046-0.323,34.588-0.5
	c11.896-0.183,23.711-0.411,35.595-0.988c6.347-0.308,13.061-1.515,19.269,0.411c5.165,1.602,5.142,7.482,3.648,12.231
	c-0.116,0.366-0.253,0.668-0.415,0.882c-1.783,2.346-6.826,1.199-9.304,1.309c-4.381,0.194-8.644-0.244-13.027-0.231
	c-10.215,0.03-20.451,0.516-30.632,0.89c-10.574,0.389-21.042,1.273-31.635,0.855c-6.766-0.268-16.299-0.829-23.668,1.151
	c0.469-1.557,0.778-3.027,0.884-4.109C90.285,183.455,89.345,179.433,86.153,176.907z M131.593,75.741
	c2.13,0.402,4.261,0.208,6.597,0.165c4.568-0.085,9.155,0.005,13.737,0.048c9.775,0.092,19.508-0.265,29.253-0.379
	c4.111-0.048,8.257-0.138,12.407-0.261c-2.358,8.653-0.807,19.229-1.05,27.906c-0.13,4.634,0.45,9.188,0.317,13.828
	c-0.144,5.003-0.682,10.454,0.545,15.363c-2.371-5.024-6.125-9.815-10.363-13.369c-3.72-3.12-7.937-3.911-12.394-4.116
	c0.008-2.158-0.511-4.107-0.709-6.296c-0.162-1.796-0.4-3.522-0.922-5.269c-0.88-2.949-2.836-5.501-6.197-5.413
	c-3.626,0.094-6.267,3.276-7.149,6.541c-0.933,3.458-1.435,7.903-0.715,11.638c-8.785,2.076-16.774,6.759-22.09,14.404
	c-0.506,0.728-0.977,1.461-1.417,2.201c1.157-16.571-0.428-33.352,0.103-49.936C131.618,80.445,131.624,78.095,131.593,75.741z
	 M237.932,87.737c1.822,1.74,5.244,1.699,8.271,1.035c3.715,0.45,7.561,0.39,11.251,0.485c2.905,0.073,7.346,0.666,10.856-0.111
	c2.256,0.175,4.436-0.142,5.765-1.409c2.688-2.565,2.036-9.09,1.767-12.393c-0.038-0.46-0.096-0.967-0.175-1.507
	c8.454,1.594,17.517,0.27,26.078,0.765c4.663,0.27,9.367,0.477,14.07,0.635c-0.784,3.784-0.289,7.72-0.365,11.613
	c-0.104,5.451-0.255,10.918-0.153,16.37c0.119,6.413-0.978,13.478-0.892,20.251c-3.1-5.317-7.088-10.148-10.991-13.975
	c-4.627-4.536-10.655-8.842-16.701-11.227c-4.353-1.718-10.296-3.782-15.898-4.355c-6.554-1.762-13.39-1.052-20.262-0.49
	c-1.306,0.108-2.615,0.287-3.924,0.487c-6.881-0.855-15.526,2.065-21.336,4.357c-6.046,2.386-12.072,6.691-16.701,11.227
	c-3.904,3.827-7.891,8.658-10.991,13.975c0.087-6.772-1.011-13.838-0.891-20.251c0.102-5.452-0.048-10.918-0.153-16.37
	c-0.074-3.893,0.42-7.829-0.365-11.613c4.704-0.158,9.407-0.365,14.07-0.635c8.562-0.495,17.624,0.828,26.078-0.765
	c-0.079,0.54-0.137,1.047-0.175,1.507C235.896,78.647,235.244,85.172,237.932,87.737z M197.101,53.612
	c-0.022-3.845-0.116-7.548-0.503-11.372c-0.261-2.576-0.328-5.167-0.382-7.757c0.336,0.057,0.684,0.101,1.046,0.124
	c7.398,1.205,15.753-0.014,23.014-0.467c3.93-0.245,7.831-0.539,11.73-0.826c1.303,0.041,2.587,0.063,3.787,0.122
	c4.115,0.204,8.181,0.459,12.293,0.256c8.375-0.413,17.424,0.606,25.839-0.807c5.933,0.405,11.84,0.882,17.811,1.254
	c7.261,0.453,15.615,1.671,23.014,0.467c0.362-0.023,0.708-0.066,1.046-0.124c-0.054,2.59-0.12,5.181-0.382,7.757
	c-0.388,3.824-0.482,7.527-0.503,11.372c-0.007,1.134-0.005,7.492,0.534,6.843c-0.269,0.324-0.435,0.707-0.492,1.095
	c-4.208-0.133-8.417-0.254-12.632-0.256c-10.146-0.006-20.506,0.832-30.602-0.021c-0.092-0.007-0.172,0.001-0.256,0.005
	c-1.753-3.037-4.028-5.44-6.828-6.055c-2.692-1.313-5.87-0.832-8.932-0.852c-2.468-0.017-4.895,0.121-7.129,0.709
	c-3.352,0.113-6.023,2.742-8.017,6.198c-0.085-0.002-0.166-0.011-0.256-0.005c-10.096,0.852-20.456,0.014-30.602,0.021
	c-4.214,0.002-8.424,0.124-12.632,0.256c-0.057-0.388-0.223-0.77-0.492-1.095C197.106,61.104,197.107,54.746,197.101,53.612z
	 M270.97,77.43c-0.137,1.266,0.151,5.304-0.875,6.205c-0.061,0.053-0.136,0.097-0.212,0.142c-4.494-1.038-11.184,0.5-15.217,0.508
	c-3.56,0.008-7.632-0.542-11.372-0.14c-0.594-0.093-1.083-0.246-1.384-0.51c-1.027-0.901-0.738-4.939-0.875-6.205
	c-0.677-6.259,0.971-14.386,6.434-17.705c0.194-0.063,0.389-0.124,0.587-0.176c3.043-0.808,6.204-0.599,9.303-0.649
	c1.516-0.025,3.697,0.212,5.663,0.07C269.699,61.605,271.707,70.624,270.97,77.43z M199.785,130.53
	c2.973-6.178,7.567-12.551,12.487-17.354c4.506-4.401,10.597-8.694,16.614-10.673c2.984-0.98,6.158-1.539,9.327-2.113
	c4.193-0.443,8.392-1.118,12.523-1.422c5.231-0.386,10.572-0.081,15.842-0.138c5.381,1.52,11.261,1.934,16.543,3.672
	c6.017,1.978,12.109,6.272,16.614,10.673c4.919,4.804,9.513,11.177,12.487,17.354c2.394,4.975,2.533,10.936,4.822,15.773
	c0.144,1.573,0.311,3.131,0.416,4.651c0.213,3.073,0.021,6.116,0.548,9.169c0.412,2.385,1.342,4.646,1.933,6.962
	c-3.409-0.081-6.798-0.031-10.08,0.315c-0.644-0.573-1.094-1.416-1.136-2.861c-0.141-4.836,1.207-8.391-0.978-13.141
	c-7.112-15.463-22.532-27.893-39.314-32.072c-6.903-3.679-16.608-3.45-23.898-0.227c-17.154,3.934-33.031,16.54-40.28,32.298
	c-2.185,4.75-0.837,8.305-0.978,13.141c-0.042,1.446-0.492,2.288-1.136,2.861c-3.282-0.345-6.671-0.396-10.08-0.315
	c0.591-2.315,1.521-4.577,1.933-6.962c0.527-3.053,0.335-6.096,0.549-9.169c0.105-1.52,0.271-3.078,0.416-4.651
	C197.252,141.467,197.391,135.505,199.785,130.53z M380.463,82.795c0.531,16.584-1.054,33.364,0.103,49.936
	c-0.44-0.739-0.912-1.473-1.417-2.201c-5.316-7.645-13.307-12.326-22.09-14.404c0.72-3.735,0.217-8.179-0.715-11.638
	c-0.882-3.265-3.522-6.447-7.149-6.541c-3.361-0.087-5.317,2.465-6.197,5.413c-0.522,1.747-0.76,3.473-0.922,5.269
	c-0.198,2.19-0.717,4.139-0.709,6.296c-4.457,0.204-8.674,0.996-12.394,4.116c-4.237,3.553-7.992,8.344-10.363,13.369
	c1.225-4.909,0.689-10.36,0.545-15.363c-0.134-4.64,0.447-9.194,0.317-13.828c-0.244-8.677,1.308-19.253-1.05-27.906
	c4.149,0.122,8.295,0.213,12.406,0.261c9.744,0.113,19.477,0.47,29.253,0.379c4.583-0.043,9.17-0.133,13.737-0.048
	c2.336,0.043,4.467,0.237,6.597-0.165C380.382,78.095,380.388,80.445,380.463,82.795z M348.503,102.175
	c4.497-1.809,4.856,7.983,5.431,13.325c-2.601-0.427-5.249-0.647-7.902-0.645h-0.008c0.315-2.051,0.398-4.184,0.375-6.224
	C346.374,106.491,346.293,103.063,348.503,102.175z M165.982,114.855h-0.008c-2.653-0.002-5.3,0.219-7.901,0.645
	c0.575-5.344,0.935-15.134,5.43-13.325c2.209,0.888,2.128,4.315,2.104,6.455C165.583,110.671,165.667,112.804,165.982,114.855z
	 M135.113,136.093c6.517-11.32,18.235-15.932,30.861-16.182c6.45-0.127,11.418,0.614,16.145,5.346
	c4.14,4.145,7.174,9.003,7.922,14.841c0.63,4.919-0.059,9.915-0.079,14.875c-0.015,3.893-1.495,8.294-1.074,12.22
	c-4.489,0.197-8.969,0.54-13.247,0.668c-12.166,0.365-24.275,0.691-36.453,0.804c-2.855,0.026-5.711,0.079-8.566,0.142
	C130.335,157.78,129.346,146.111,135.113,136.093z M381.385,168.809c-2.855-0.064-5.711-0.116-8.566-0.142
	c-12.178-0.113-24.287-0.439-36.453-0.804c-4.277-0.128-8.757-0.471-13.247-0.668c0.421-3.927-1.059-8.327-1.074-12.22
	c-0.019-4.96-0.709-9.956-0.079-14.875c0.748-5.839,3.782-10.697,7.922-14.841c4.727-4.732,9.695-5.473,16.145-5.346
	c12.626,0.248,24.344,4.862,30.861,16.182C382.66,146.111,381.671,157.78,381.385,168.809z M320.825,6.593
	c1.165-1.25,6.937-0.606,8.987-0.794c2.365-0.217,4.736-0.366,7.102-0.547c0.434,4.106,0.085,8.269,0.426,12.397
	c-5.364,0.001-10.76,0.117-16.154,0.317c0.033-0.724,0.042-1.44,0.052-2.122C321.258,14.356,320.061,7.415,320.825,6.593z
	 M319.392,43.307c0.488-5.921,0.451-11.835-0.238-17.677c7.666,0.355,15.347,0.647,23.06,0.972c9.263,0.39,18.49,0.564,27.721-0.213
	c3.493-0.294,6.993-0.476,10.493-0.631c-0.362,9.664,0.387,19.527,0.447,29.173c0.021,3.236-0.059,6.472-0.159,9.707
	c-2.203-0.097-4.367-0.815-6.594-1.067c-3.939-0.446-8.074-0.513-12.043-0.652c-9.675-0.34-19.217-0.983-28.929-0.964
	c-4.688,0.009-9.377-0.13-14.069-0.281C320.237,55.829,318.901,49.248,319.392,43.307z M333.15,65.895
	c9.961-0.032,19.809,0.464,29.744,0.765c5.782,0.176,12.07,0.877,17.766-0.256c-0.07,2.177-0.142,4.353-0.192,6.528
	c-7.445-1.229-14.963-1.104-22.526-1.175c-9.311-0.087-18.608-0.432-27.895-0.583c-9.392-0.153-18.899-0.076-28.301-0.62
	c-4.238-0.245-8.468-0.224-12.715-0.224c-4.614,0-9.476-0.595-14.039,0.095c-0.396-1.611-0.924-3.332-1.581-5.021
	c9.922,0.651,20.027-0.121,29.969-0.128C313.317,65.269,323.233,65.927,333.15,65.895z M233.792,22.552
	c0.493-0.008,0.98-0.013,1.452-0.003c1.11,0.021,2.333,0.08,3.616,0.143c4.67,1.02,9.924,0.604,14.449,0.605
	c3.553,0.001,7.07-0.499,10.606-0.621c4.353,0.435,9.198-0.059,12.848-0.126c0.47-0.008,0.958-0.005,1.452,0.003
	c12.667,1.488,25.308,2.319,37.991,2.937c-0.16,1.562-0.238,3.13-0.295,4.701c-2.78-1.01-6.509-0.761-8.989-0.688
	c-1.661,0.049-3.294,0.106-4.912,0.193c-3.165-0.087-6.325-0.084-9.348-0.285c-4.306-0.286-8.221,0.36-12.53,0.765
	c-0.485,0.046-0.972,0.076-1.459,0.105c-0.08-0.058-0.174-0.106-0.281-0.137c-4.536-1.346-9.203-0.726-13.871-0.733
	c-5.249-0.007-10.541-0.392-15.79-0.146c-3.459,0.162-6.874,0.006-10.329,0.095c-2.22,0.057-4.615,0.443-6.999,0.768
	c-4.123-0.405-7.91-0.994-12.056-0.717c-3.021,0.201-6.181,0.198-9.348,0.285c-1.619-0.087-3.251-0.144-4.912-0.193
	c-2.48-0.073-6.21-0.323-8.989,0.688c-0.056-1.571-0.134-3.139-0.294-4.701C208.484,24.871,221.125,24.04,233.792,22.552z
	 M208.627,65.275c9.942,0.007,20.048,0.779,29.969,0.128c-0.658,1.689-1.185,3.41-1.581,5.021
	c-4.563-0.689-9.425-0.095-14.039-0.095c-4.248,0-8.477-0.022-12.715,0.224c-9.402,0.545-18.909,0.467-28.301,0.62
	c-9.287,0.151-18.584,0.498-27.895,0.583c-7.563,0.071-15.081-0.054-22.526,1.175c-0.051-2.175-0.122-4.351-0.192-6.528
	c5.696,1.134,11.986,0.432,17.766,0.256c9.934-0.302,19.782-0.797,29.744-0.765C188.773,65.927,198.69,65.269,208.627,65.275z
	 M175.092,5.253c2.365,0.181,4.736,0.329,7.102,0.547c2.049,0.188,7.823-0.456,8.987,0.794c0.764,0.821-0.432,7.763-0.412,9.251
	c0.009,0.682,0.019,1.398,0.051,2.122c-5.394-0.199-10.789-0.315-16.154-0.317C175.008,13.521,174.658,9.36,175.092,5.253z
	 M169.793,26.603c7.714-0.325,15.396-0.618,23.06-0.972c-0.689,5.842-0.726,11.756-0.238,17.677
	c0.49,5.942-0.845,12.522,0.309,18.367c-4.69,0.15-9.38,0.289-14.069,0.281c-9.712-0.018-19.253,0.625-28.929,0.964
	c-3.968,0.14-8.104,0.206-12.043,0.652c-2.228,0.253-4.391,0.97-6.594,1.067c-0.1-3.235-0.178-6.472-0.159-9.707
	c0.061-9.646,0.809-19.509,0.447-29.173c3.501,0.156,7,0.337,10.493,0.631C151.303,27.166,160.53,26.992,169.793,26.603z
	 M121.532,9.594c0.084-0.849,0.197-1.689,0.365-2.529c0.049-0.439,0.058-0.88,0.027-1.319c-0.119-0.58-0.006-0.597,0.34-0.054
	c-0.095,0.032,1.971,0.596,2.246,0.635c1.509,0.21,3.213-0.015,4.744,0.067c2.822,0.151,5.548,0.551,8.342,0.935
	c0.302,0.042,1.63,0.153,2.007,0.03c0,0.005,0.001,0.008,0.001,0.013c-0.011,0.574-0.023,1.147-0.034,1.722
	c-0.138,2.771-0.539,5.722-0.292,8.539c-6.115-0.395-12.245-0.446-18.356-0.707C121.355,14.523,121.295,12.019,121.532,9.594z
	 M56.372,137.13c-0.08-0.09-0.168-0.166-0.257-0.241c1.335-1.408,2.917-3.88,3.117-4.243c4.034-7.318,2.534-16.589-3.827-19.09
	c1.104-1.909,2.196-3.896,2.833-6.012c1.126-3.743,1.722-8.826,0.312-12.571c-0.959-2.549-2.892-4.214-5.419-4.554
	c1.337-7.255,2.574-13.844,6.859-20.575c4.575-7.184,11.844-12.868,20.633-13.569c18.531-1.48,27.904,16.826,29.835,32.656
	c1.006,8.252,1.411,16.414,1.389,24.728c-0.014,4.889,0.133,9.81-0.014,14.696c-0.035,1.202,0.103,6.414-0.71,7.289
	c0.017-0.019-3.623,0.479-3.943,0.519c-9.383,1.177-19.161,0.098-28.634,0.285c-3.846,0.076-7.636,0.595-11.481,0.579
	C63.92,137.015,59.654,137.793,56.372,137.13z M74.702,153.254c-0.765,0.301-1.436,0.674-2.047,1.096
	c-0.032-4.519-0.741-8.824-5.218-10.348c-3-1.022-5.646,0.312-7.953,2.405c0.038-0.954-0.019-1.905-0.192-2.847
	c2.964-0.019,5.999-0.453,7.771-0.444c9.841,0.055,19.687-0.945,29.579-0.654c5.283,0.156,15.781,1.47,19.544-3.609
	c1.629-2.199,1.528-5.799,1.639-8.395c0.237-5.571-0.026-11.216-0.018-16.795c0.025-15.846-0.781-31.493-7.928-45.93
	c-7.161-14.467-23.181-21.041-38.413-15.056c-14.038,5.514-25.235,23.19-23.497,38.64c-0.455,0.196-0.898,0.404-1.31,0.629
	c0.086-1.32,0.21-2.567,0.185-3.328c-0.093-2.902-0.45-5.761-0.901-8.629c-0.588-3.727-2.47-7.737-6.921-7.383
	c-4.36,0.348-7.025,5.179-8.579,10.287c-0.269-1.295-0.538-2.588-0.955-3.847c-1.215-3.655-3.554-8.761-8.197-8.266
	c-1.411,0.15-2.569,0.742-3.525,1.599c-0.035-3.101-0.144-6.22-0.097-9.39c0.129-8.747,0.986-17.281,1.669-25.939
	c0.208-2.643-0.205-5.22,0.421-7.837c0.637-2.669,0.604-4.587,3.616-4.833c4.666-0.381,9.396,0.109,14.068-0.269
	c8.943-0.722,17.996-1.488,26.987-1.19c8.606,0.286,17.28-0.496,25.789,0.411c4.643,0.495,9.377,0.248,14.04,0.374
	c3.815,0.103,7.564,0.933,11.384,1.23c4.407,0.342,8.828,0.521,13.252,0.706c-0.59,9.482-0.976,18.988-1.322,28.516
	c-0.348,9.543,0.445,19.138-0.264,28.637c-0.813,10.887-0.324,21.954-0.35,32.865c-0.021,8.565-0.307,17.323,0.68,25.873
	c-2.582,8.726-2.351,18.028-2.59,27.416c-6.453,0.167-12.91,0.351-19.377,0.413c-5.171,0.048-10.308-0.006-15.454,0.492
	c-1.544,0.15-3.2,0.159-4.85,0.239c0.151-0.405,0.302-0.809,0.439-1.214c1.335-3.947,1.014-8.399-1.433-11.901
	C82.173,153.833,78.462,151.776,74.702,153.254z M143.888,460.665c0.782-2.488,1.256-4.943,0.948-7.126
	c1.785,0.166,3.614,0.138,5.514,0.2c5.618,0.181,11.182-0.088,16.782-0.034c6.617,0.062,14.46,0.707,21.127-0.98
	c0.17,4.034,1.549,3.906-2.293,5.338c-2.259,0.239-4.605,0.904-6.815,0.853c-4.583-0.103-8.973,0.231-13.523,0.609
	c-4.078,0.339-8.155,0.672-12.241,0.922C150.249,460.639,147.048,460.518,143.888,460.665z M189.33,503.404
	c-0.009,0.016-0.021,0.037-0.031,0.055c-2.808,1.081-4.607-0.776-6.942-1.846c-2.151-0.986-3.949-0.829-6.229-1.225
	c-0.704-0.121-4.21-0.669-4.562-1.231c-0.3-0.478,0.222-1.859,0.243-2.368c0.293-7.063-5.255-9.661-11.331-7.212
	c-0.867,0.349-2.805,1.109-4.409,1.937c0.16-0.513,0.256-1.105,0.363-1.555c0.303-1.286,0.63-2.652,0.581-3.983
	c-0.186-4.934-3.776-5.663-7.491-4.907c2.452-4.643,5.514-9.773,2.931-14.319c5.027-0.126,10.083-0.601,14.73-1.036
	c3.696-0.347,7.413-0.13,11.116-0.342c3.584-0.205,8.256-1.421,10.272,2.484c1.931,3.741,0.407,10.446,0.355,14.494
	c-0.059,4.51-0.088,9.019-0.103,13.53C188.814,498.601,188.308,501.215,189.33,503.404z M181.679,447.648
	c-4.857,0.158-9.674,0.311-14.548,0.328c-5.261,0.019-10.518,0.384-15.784,0.534c-2.733,0.078-6.294-0.311-9.264,0.227
	c-3.353-2.378-8.479-0.119-11.629,1.644c-2.723,1.524-5.07,3.588-7.082,5.952c0.243-1.06,0.461-2.123,0.613-3.208
	c0.443-3.155,0.858-7.594-2.136-9.709c-4.082-2.885-8.198,1.502-10.606,4.5c-1.518,1.89-3.274,3.753-4.683,5.73
	c0.021-4.327-0.85-8.331-5.378-8.322c-3.297,0.006-5.781,3.143-7.712,5.436c-0.324,0.384-0.654,0.794-0.983,1.215
	c-0.018-0.475-0.047-0.951-0.106-1.427c-0.16-1.297-0.423-2.565-0.675-3.834c0.206-2.158,0.408-4.315,0.591-6.468
	c0.076-0.881,0.113-1.755,0.137-2.628c2.208,0.126,4.489-0.208,6.666-0.241c4.269-0.066,8.42-0.43,12.686-0.227
	c9.82,0.47,19.722,0.273,29.562,0.276c10.037,0.002,20.159-0.618,30.176-0.332c5.752,0.164,13.453-1.85,18.879,0.1
	c1.123,0.404,2.182,1.083,2.934,1.996c0.343,0.416,0.625,0.881,0.818,1.39C196.987,447.979,185.424,447.527,181.679,447.648z
	 M193.006,246.943c-0.431,7.467-0.766,14.937-1.341,22.412c-0.57,7.412-0.256,14.823-1.191,22.23
	c-0.774,6.133-1.081,12.516-1.066,18.697c0.015,6.91-0.764,13.832-0.771,20.792c-0.007,6.263-2.057,14.215,0.328,20.135
	c0.054,0.133,0.119,0.253,0.182,0.375c-0.245,3.005-0.512,6.009-0.834,9.008c-0.875,8.152-0.574,16.553-0.503,24.746
	c0.065,7.605-0.754,15.097-0.709,22.7c0.045,7.443-1.066,14.902-0.653,22.3c0.008,0.148,0.024,0.278,0.034,0.42
	c-4.727-0.277-9.724,0.297-14.017,0.088c-9.964-0.486-20.07,0.154-30.057,0.157c-9.691,0.002-19.365-0.022-29.041-0.262
	c-6.938-0.172-14.081,0.892-21.026,0.578c-0.119-2.621-0.279-5.239-0.281-7.89c-0.011-11.444,1.277-23.118,0.208-34.528
	c-0.533-5.69-0.511-11.4-0.454-17.123c0.048-4.832-0.622-9.556-0.675-14.396c-0.065-6.02-0.194-12.037-0.315-18.055
	c-0.106-5.333-1.022-10.462-1.322-15.761c-0.642-11.322-1.277-22.871-1.203-34.201c0.033-5.088,0.747-10.192,0.706-15.268
	c-0.022-2.643-0.738-5.223-0.424-7.866c0.345-2.907,1.881-5.4,2.423-8.26c0.316-1.668,0.456-3.666-0.119-5.3
	c-0.639-1.813-2.193-2.486-3.104-3.943c-1.576-2.524,0.048-4.134,1.036-6.808c0.929-2.512,1.429-5.338,1.241-8.025
	c-0.134-1.917-0.645-3.908-1.492-5.633c-0.832-1.694-2.773-2.995-3.471-4.609c-2.144-4.96,4.283-10.899,3.588-16.257
	c-0.275-2.119-1.173-3.715-2.436-5.377c-0.48-0.633-1.266-2.034-1.997-2.321c0.869-0.543,1.67-1.503,2.382-2.665
	c3.586,0.747,7.201-0.235,10.983-0.485c5.356-0.355,10.723-0.885,16.088-1.039c5.551-0.159,11.091-0.639,16.634-0.469
	c5.672,0.174,11.491,0.757,17.151,0.437c4.984-0.281,9.886,0.41,14.871,0.141c5.076-0.275,10.117-0.793,15.221-0.692
	c4.65,0.092,9.089,0.141,13.744-0.148c1.306,0.419,3.029,0.712,4.789,0.701c-0.406,3.615-0.459,7.34-0.898,10.8
	c-0.879,6.918-1.042,13.865-0.85,20.859C194.544,233.841,193.389,240.298,193.006,246.943z M305.493,399.202
	c-4.981-5.007-11.415-9.646-17.896-12.412c-1.894-0.808-4.145-1.758-6.544-2.607c-8.018-4.313-20.468-3.594-28.269-3.184
	c-2.924,0.154-5.867,0.512-8.782,1.022c-6.421-0.792-14.351,2.534-19.593,4.77c-6.482,2.766-12.916,7.405-17.896,12.412
	c-4.515,4.539-8.803,9.995-11.633,15.992c0.014-8.3,0.668-16.524,0.699-24.789c0.035-9.273-0.896-18.617-0.58-27.883
	c0.128-3.759,0.231-7.534,0.3-11.312c0.054-0.145,0.086-0.307,0.136-0.454c3.152,0.517,6.315,0.318,9.641,0.272
	c5.942-0.081,11.942,0.252,17.828-0.737c5.72-0.96,10.908-1.731,16.732-1.447c2.663,0.129,5.458,0.214,8.238,0.08
	c2.736,0.157,5.487,0.287,8.293,0.387c5.886,0.208,11.888,0.27,17.765-0.15c1.424-0.102,2.901-0.17,4.391-0.259
	c3.583,0.227,7.072,0.765,10.783,1.388c5.886,0.988,11.885,0.656,17.828,0.737c3.327,0.046,6.49,0.244,9.642-0.272
	c0.05,0.148,0.082,0.31,0.136,0.454c0.069,3.777,0.172,7.553,0.3,11.312c0.316,9.266-0.615,18.61-0.58,27.883
	c0.031,8.265,0.685,16.491,0.699,24.789C314.298,409.195,310.01,403.74,305.493,399.202z M354.993,485.974
	c-0.05,1.332,0.277,2.696,0.581,3.983c0.106,0.45,0.202,1.042,0.363,1.555c-1.604-0.828-3.541-1.588-4.409-1.937
	c-6.076-2.449-11.624,0.149-11.33,7.212c0.021,0.509,0.542,1.89,0.243,2.368c-0.352,0.563-3.86,1.11-4.562,1.231
	c-2.28,0.396-4.078,0.24-6.229,1.225c-2.334,1.07-4.132,2.927-6.942,1.846c-0.01-0.018-0.022-0.039-0.031-0.055
	c1.023-2.187,0.517-4.801,0.508-7.527c-0.014-4.511-0.043-9.019-0.103-13.53c-0.053-4.049-1.578-10.753,0.355-14.494
	c2.016-3.903,6.688-2.688,10.272-2.484c3.703,0.213,7.419-0.005,11.116,0.342c4.647,0.436,9.703,0.911,14.73,1.036
	c-2.583,4.546,0.48,9.676,2.931,14.319C358.769,480.311,355.179,481.04,354.993,485.974z M358.618,460.446
	c-4.084-0.251-8.162-0.583-12.241-0.922c-4.548-0.379-8.94-0.713-13.523-0.609c-2.209,0.05-4.555-0.614-6.815-0.853
	c-3.841-1.432-2.463-1.304-2.293-5.338c6.667,1.686,14.51,1.042,21.127,0.98c5.6-0.053,11.164,0.215,16.782,0.034
	c1.9-0.062,3.729-0.033,5.514-0.2c-0.308,2.183,0.166,4.638,0.948,7.126C364.958,460.518,361.757,460.639,358.618,460.446z
	 M419.622,450.548c-0.06,0.476-0.088,0.952-0.106,1.427c-0.328-0.421-0.659-0.831-0.983-1.215c-1.931-2.293-4.415-5.43-7.712-5.436
	c-4.528-0.008-5.398,3.997-5.378,8.322c-1.409-1.977-3.165-3.84-4.683-5.73c-2.408-2.998-6.524-7.386-10.606-4.5
	c-2.994,2.115-2.579,6.554-2.136,9.709c0.152,1.084,0.371,2.147,0.613,3.208c-2.012-2.365-4.36-4.428-7.082-5.952
	c-3.149-1.763-8.276-4.022-11.629-1.644c-2.969-0.538-6.531-0.149-9.264-0.227c-5.266-0.15-10.522-0.515-15.784-0.534
	c-4.873-0.018-9.69-0.17-14.548-0.328c-3.747-0.121-15.308,0.331-12.483-7.069c0.194-0.509,0.475-0.974,0.819-1.39
	c0.754-0.912,1.811-1.592,2.934-1.996c5.426-1.949,13.127,0.064,18.879-0.1c10.017-0.286,20.139,0.334,30.176,0.332
	c9.839-0.002,19.743,0.194,29.563-0.276c4.266-0.205,8.416,0.16,12.686,0.227c2.177,0.033,4.458,0.368,6.666,0.241
	c0.024,0.873,0.063,1.747,0.137,2.628c0.183,2.153,0.386,4.312,0.591,6.468C420.045,447.983,419.783,449.251,419.622,450.548z
	 M426.914,223.652c-0.698,1.614-2.639,2.915-3.471,4.609c-0.847,1.725-1.358,3.716-1.492,5.633
	c-0.188,2.687,0.312,5.512,1.241,8.025c0.988,2.672,2.613,4.284,1.036,6.808c-0.911,1.457-2.464,2.13-3.104,3.943
	c-0.577,1.634-0.435,3.632-0.12,5.3c0.541,2.86,2.077,5.353,2.423,8.26c0.313,2.643-0.403,5.223-0.424,7.866
	c-0.041,5.076,0.673,10.179,0.706,15.268c0.073,11.33-0.563,22.879-1.203,34.201c-0.3,5.3-1.215,10.429-1.322,15.761
	c-0.12,6.018-0.249,12.036-0.316,18.055c-0.053,4.84-0.723,9.564-0.675,14.396c0.057,5.723,0.079,11.433-0.454,17.123
	c-1.068,11.41,0.22,23.083,0.208,34.528c-0.002,2.651-0.162,5.269-0.281,7.89c-6.944,0.315-14.087-0.749-21.026-0.578
	c-9.676,0.24-19.349,0.264-29.04,0.262c-9.987-0.002-20.093-0.644-30.057-0.157c-4.295,0.209-9.29-0.365-14.017-0.088
	c0.01-0.142,0.026-0.271,0.034-0.42c0.414-7.398-0.697-14.857-0.653-22.3c0.046-7.602-0.774-15.095-0.709-22.7
	c0.07-8.192,0.372-16.593-0.503-24.746c-0.321-2.998-0.589-6.002-0.834-9.008c0.064-0.122,0.128-0.241,0.182-0.375
	c2.385-5.92,0.335-13.872,0.328-20.135c-0.008-6.96-0.787-13.882-0.771-20.792c0.014-6.18-0.293-12.563-1.066-18.697
	c-0.935-7.407-0.622-14.818-1.192-22.23c-0.574-7.476-0.911-14.945-1.341-22.412c-0.383-6.645-1.54-13.102-1.356-19.809
	c0.191-6.994,0.027-13.941-0.85-20.859c-0.439-3.461-0.492-7.185-0.898-10.8c1.759,0.01,3.481-0.283,4.789-0.701
	c4.655,0.287,9.094,0.238,13.744,0.148c5.103-0.1,10.145,0.419,15.221,0.692c4.984,0.269,9.886-0.422,14.871-0.141
	c5.66,0.32,11.479-0.263,17.151-0.437c5.543-0.169,11.083,0.31,16.634,0.469c5.365,0.152,10.732,0.684,16.088,1.039
	c3.782,0.251,7.397,1.232,10.983,0.485c0.713,1.163,1.512,2.122,2.382,2.665c-0.731,0.287-1.517,1.689-1.997,2.321
	c-1.263,1.663-2.161,3.258-2.436,5.377C422.631,212.752,429.057,218.69,426.914,223.652z M453.456,94.972
	c-1.408,3.745-0.812,8.828,0.312,12.571c0.636,2.115,1.727,4.102,2.833,6.012c-6.361,2.501-7.86,11.77-3.827,19.09
	c0.2,0.363,1.782,2.835,3.117,4.243c-0.088,0.076-0.177,0.152-0.257,0.241c-3.283,0.665-7.549-0.114-10.693-0.101
	c-3.845,0.016-7.635-0.503-11.481-0.579c-9.473-0.185-19.251,0.893-28.634-0.285c-0.32-0.04-3.96-0.539-3.943-0.519
	c-0.815-0.875-0.675-6.088-0.71-7.289c-0.145-4.886,0-9.806-0.014-14.696c-0.023-8.314,0.382-16.477,1.389-24.728
	c1.931-15.832,11.303-34.136,29.834-32.658c8.789,0.701,16.058,6.386,20.633,13.569c4.285,6.73,5.522,13.319,6.859,20.575
	C456.348,90.757,454.414,92.424,453.456,94.972z M494.239,72.379c-0.955-0.857-2.113-1.449-3.525-1.599
	c-4.642-0.495-6.982,4.61-8.197,8.266c-0.419,1.26-0.688,2.552-0.955,3.847c-1.554-5.107-4.219-9.939-8.579-10.287
	c-4.451-0.355-6.334,3.656-6.921,7.383c-0.453,2.868-0.809,5.727-0.901,8.629c-0.024,0.762,0.1,2.008,0.185,3.328
	c-0.412-0.225-0.855-0.434-1.31-0.629c1.737-15.452-9.461-33.127-23.499-38.643c-15.232-5.985-31.253,0.589-38.413,15.056
	c-7.145,14.437-7.952,30.083-7.928,45.93c0.009,5.579-0.254,11.224-0.018,16.795c0.11,2.597,0.01,6.197,1.639,8.395
	c3.763,5.078,14.261,3.764,19.544,3.609c9.892-0.291,19.739,0.709,29.58,0.654c1.772-0.01,4.807,0.424,7.771,0.444
	c-0.173,0.944-0.23,1.893-0.192,2.847c-2.306-2.092-4.953-3.426-7.953-2.405c-4.476,1.526-5.186,5.831-5.218,10.348
	c-0.611-0.421-1.282-0.795-2.047-1.096c-3.76-1.478-7.471,0.579-9.669,3.724c-2.446,3.502-2.768,7.954-1.433,11.901
	c0.136,0.405,0.288,0.809,0.439,1.214c-1.651-0.08-3.307-0.09-4.85-0.239c-5.146-0.498-10.283-0.444-15.454-0.492
	c-6.467-0.062-12.922-0.246-19.377-0.413c-0.238-9.388-0.008-18.689-2.59-27.416c0.985-8.55,0.7-17.308,0.68-25.873
	c-0.026-10.91,0.463-21.977-0.35-32.866c-0.709-9.5,0.084-19.094-0.263-28.637c-0.347-9.528-0.732-19.034-1.322-28.516
	c4.424-0.186,8.846-0.364,13.252-0.706c3.819-0.296,7.569-1.127,11.384-1.23c4.663-0.126,9.398,0.121,14.04-0.374
	c8.508-0.907,17.183-0.125,25.789-0.411c8.992-0.299,18.044,0.468,26.987,1.19c4.672,0.378,9.402-0.112,14.068,0.269
	c3.012,0.246,2.979,2.164,3.616,4.833c0.625,2.617,0.212,5.195,0.42,7.837c0.683,8.658,1.539,17.192,1.669,25.939
	C494.383,66.161,494.275,69.278,494.239,72.379z"/>
<path d="M244.517,51.209c0.591-0.007,1.167-0.016,1.735-0.03c2.989,0.24,6.244-0.092,8.837,0.024
	c3.001,0.135,6.188,0.795,9.032-0.095c1.094,0.07,2.206,0.086,3.368,0.1c2.082,0.025,4.054,0.214,5.731-1.185
	c0.559-0.466,0.675-1.53,0.273-2.116c-0.649-0.948-1.57-1.425-2.477-2.099c-1.167-0.866-2.152-1.934-3.379-2.719
	c-0.534-0.342-1.109-0.744-1.706-1.153c-3.052-3.392-7.629-5.831-11.955-3.825c-0.758,0.352-1.525,0.698-2.291,1.047
	c-2.605,0.412-5.231,2.597-7.319,3.933c-1.227,0.786-2.212,1.853-3.379,2.719c-0.908,0.675-1.828,1.151-2.477,2.099
	c-0.402,0.587-0.286,1.651,0.273,2.116C240.463,51.423,242.435,51.234,244.517,51.209z M246.95,45.648
	c0.172-0.108,0.356-0.212,0.535-0.317c0.514-0.275,1.02-0.565,1.512-0.843c0.333-0.18,0.667-0.364,1-0.55
	c0.371-0.194,0.73-0.371,1.072-0.508c0.99-0.397,1.979-0.917,3.012-1.177c2.353-0.594,3.763-0.271,6.078,0.53
	c1.534,1.096,3.388,1.921,4.896,2.867c1.105,0.694,2.064,1.495,3.072,2.302c-1.138-0.041-2.312-0.182-2.893-0.169
	c-0.728,0.016-1.453,0.045-2.177,0.085c-0.182-0.006-0.37-0.014-0.564-0.026c-2.486-0.153-4.901-0.744-7.404-0.837
	c-3.712-0.138-7.646-0.189-11.194,0.933C244.898,47.133,245.851,46.338,246.95,45.648z"/>
<g>
</g>
<g>
</g>
<g>
</g>
<g>
</g>
<g>
</g>
<g>
</g>
<g>
</g>
<g>
</g>
<g>
</g>
<g>
</g>
<g>
</g>
<g>
</g>
<g>
</g>
<g>
</g>
<g>
</g>
</svg>
