<?xml version="1.0" encoding="iso-8859-1"?>
<!-- Generator: Adobe Illustrator 19.0.0, SVG Export Plug-In . SVG Version: 6.00 Build 0)  -->
<svg version="1.1" id="Layer_1" xmlns="http://www.w3.org/2000/svg" xmlns:xlink="http://www.w3.org/1999/xlink" x="0px" y="0px"
	 viewBox="0 0 511.999 511.999" style="enable-background:new 0 0 511.999 511.999;" xml:space="preserve">
<path style="fill:#B26E59;" d="M411.929,399.011c0.086,0.108,0.185,0.212,0.299,0.311c0.467,0.406,1.087,0.581,1.688,0.734
	c3.233,0.822,6.547,1.323,9.88,1.492c2.202,0.112,7.162-0.203,8.399,1.949c0.48,0.836,0.595,1.826,0.7,2.785
	c0.162,1.49,0.23,3.237-0.905,4.215c-0.425,0.365-0.983,0.579-1.328,1.021c-0.512,0.656-0.397,1.585-0.292,2.411
	c0.448,3.572,0.022,7.019,0.749,10.561c0.865,4.223,0.699,8.703,0.922,12.998c0.512,9.829,1.116,19.652,1.448,29.489
	c0.423,12.542,0.391,25.117-0.781,37.62c-4.939,1.126-9.316,2.936-13.713,2.987c-20.309,0.238-40.623-0.063-60.935-0.079
	c-82.056-0.059-164.114-0.054-246.171-0.157c-9.24-0.012-18.659,0.882-28.242-2.699c-0.569-0.212-1.32-4.897-1.511-5.623
	c-0.519-1.963-1.023-3.93-1.47-5.911c-0.844-3.744-1.52-7.556-1.61-11.4c-0.124-5.299,1.325-17.115,8.224-17.694
	c1.435-0.12,2.936-0.013,4.253-0.595c2.234-0.986,3.239-3.7,3.124-6.14c-0.115-2.44-1.089-4.742-1.753-7.092
	c-1.629-5.781-0.001-13.076,0.504-18.969c0.612-7.135,1.222-14.271,1.834-21.406c1.213-14.164,2.422-28.328,3.623-42.493
	c0.801-9.449,1.598-18.899,2.389-28.349c0.427-5.096,0.131-10.466-0.27-15.585c-0.086-1.089-0.259-2.312-1.136-2.964
	c-0.591-0.439-1.367-0.511-2.065-0.744c-3.476-1.162-3.819-5.355-5.323-8.13c-1.787-3.298-2.045-7.131-0.42-10.582
	c1.365-2.901,3.722-5.515,6.162-7.56c2.623-2.197,6.264-2.516,8.619-5.262c3.261-3.802,1.99-9.165,2.14-13.741
	c0.184-5.593,0.382-11.184,0.558-16.779c0.363-11.566,0.634-23.137,0.521-34.709c-0.065-6.658-3.164-13.399-5.464-19.893
	c-2.815-7.947-3.305-15.374,3.108-21.743c4.908-4.876,5.369-11.084,5.903-17.307c0.869-10.121,1.544-20.258,2.368-30.383
	c0.507-6.24,0.687-12.081-2.679-18.083c-3.727-6.647-2.982-14.647,3.149-19.244c8.356-6.266,8.401-14.3,7.906-22.925
	c-0.169-2.943-0.461-5.877-0.775-8.808c-0.264-2.467-0.032-5.36-1.46-7.477c-0.846-1.255-1.945-2.37-2.481-3.786
	c-0.751-1.986-0.256-4.256,0.722-6.141c1.367-2.634,3.577-4.674,5.905-6.453c2.556-1.952,2.849-2.754,3.348-5.95
	c1.055-6.769-0.243-13.73,1.255-20.457c1.79-8.041,8.909-12.886,17.145-10.568c4.62,1.3,8.906,3.464,9.638,8.947
	c0.722,5.404,1.046,10.86,1.604,16.289c0.349,3.4-1.524,7.558,1.012,10.491c0.782,0.904,1.882,1.458,2.861,2.144
	c2.935,2.058,5.495,6.803,4.768,10.401c-0.42,2.076-1.449,3.975-2.05,6.005c-1.239,4.182-0.573,8.383,0.094,12.557
	c0.963,6.026-0.37,12.605-0.514,18.691c-0.025,1.048-0.013,2.191,0.641,3.01c0.954,1.196,2.742,1.133,4.229,1.498
	c2.232,0.548,3.313,2.052,4.466,3.861c1.032,1.619,2.4,3.051,3.092,4.942c1.221,3.336,0.912,7.114-0.369,10.386
	c-1.215,3.104-4.273,4.9-4.885,8.442c-0.351,2.033,0.183,4.03,0.521,6.024c0.358,2.108,0.164,4.146,0.419,6.246
	c1.223,10.075,2.104,20.199,2.843,30.324c0.46,6.294,0.743,12.394,5.684,17.284c2.753,2.725,4.622,6.27,5.101,10.13
	c0.446,3.595-0.906,6.799-1.028,10.327c-0.102,2.951-0.066,4.736-2.483,6.793c-3.42,2.91-5.21,4.872-4.532,9.67
	c1.647,11.647,1.565,23.867,1.266,35.655c-0.139,5.475-0.141,10.953-0.115,16.43c0.012,2.518,0.365,5.293,0.028,7.785
	c-0.369,2.718-1.121,4.733,0.025,7.47c1.011,2.414,3.041,4.381,5.486,5.315c1.316,0.502,2.726,0.713,4.064,1.153
	c2.693,0.886,4.473,3.732,6.186,5.902c1.432,1.814,2.582,3.88,2.879,6.203c0.452,3.535-0.981,6.957-2.681,9.975
	c-1.355,2.407-2.645,5.673-5.713,6.156c-1.425,0.224-3.123-0.05-4.096,1.014c-0.717,0.785-0.697,1.975-0.634,3.037
	c0.205,3.482,0.237,7.027,0.634,10.493c0.245,2.146,1.14,3.873,1.754,5.898c1.829,6.028,1.464,13.335,2.009,19.6
	c1.201,13.817,2.393,27.633,3.579,41.452c0.637,7.415,1.129,14.844,1.702,22.264c0.414,5.37,0.735,10.76,1.278,16.118
	c0.641,6.322-0.506,13.065-0.946,19.415c-0.041,0.593-0.069,1.237,0.27,1.725c0.515,0.743,1.59,0.761,2.492,0.701
	c6.183-0.407,12.366-0.814,18.549-1.221c3.165-0.208,6.331-0.472,9.499-0.626c1.742-0.085,3.862,0.426,5.555,0.014
	c4.209-1.024,4.678-9.393,5.006-12.846c0.546-5.751,0.096-11.534,0.38-17.296c0.265-5.374,1.707-13.518-1.136-18.392
	c-0.798-1.369-1.762-2.791-1.661-4.372c0.108-1.699,1.43-3.07,2.833-4.031c2.292-1.57,5.026-2.487,7.8-2.614
	c2.633-0.122,6.362,1.042,8.804-0.257c1.699-0.904,1.755-2.779,2.224-4.452c1.342-4.792,4.094-9.38,7.125-13.293
	c6.075-7.839,14.507-13.368,23.495-17.344c5.774-2.553,11.794-4.517,17.874-6.197c11.853-3.275,30.1-3.699,46.04-2.037
	c10.991,1.146,21.631,2.425,31.557,7.754c7.012,3.765,14.056,7.837,19.708,13.525c2.841,2.86,5.276,6.116,7.083,9.726
	c0.885,1.769,1.982,3.882,2.344,5.839C411.938,395.408,410.804,397.591,411.929,399.011z"/>
<g>
	<path style="fill:#994D47;" d="M145.353,86.735c-9.915,0-18.555,0.452-27.213,5.695c-2.86,1.732-5.234,3.764-6.438,7.053
		c-1.179,3.22-2.402,10.722-0.353,13.726c1.875,2.749,3.916,0.961,4.845,4.748c1.322,5.389,0.204,13.062-0.198,18.505
		c-0.592,7.997-0.802,16.064-1.177,24.047c-0.261,5.539,1.034,11.566-1.896,16.438c-2.138,3.554-6.458,4.654-8.302,8.443
		c-2.2,4.525-2.279,14.028-0.43,18.571c2.54,6.242,10.671,2.323,15.72,1.597c8.9-1.281,17.787-3.143,26.807-2.917
		c6.925,0.173,14.131,1.655,20.872,3.228c3.522,0.822,8.021,3.751,11.688,3.137c5.576-0.933,7.976-13.458,6.642-18.551
		c-0.748-2.856-3.016-4.853-5.333-6.444c-3.393-2.329-4.492-3.025-5.011-7.421c-1.313-11.107-2.005-22.729-2.552-33.908
		c-0.291-5.956-1.791-11.658-2.059-17.558c-0.154-3.389-0.043-3.86,1.867-5.846c2.513-2.613,4.021-2.362,5.038-6.143
		c1.068-3.977,0.83-8.42-0.737-12.261C172.668,89.93,155.607,88.072,145.353,86.735z"/>
	<path style="fill:#994D47;" d="M136.406,38.274c-6.405-0.649-20.441,7.242-17.994,15.033c1.709,5.443,3.495,4.183,7.432,1.743
		c3.97-2.459,7.49-4.204,12.066-4.931c6.716-1.065,16.298-1.242,21.679,3.448c1.356,1.181,2.879,4.537,4.947,4.459
		c2.451-0.093,4.953-5.727,4.69-7.842c-0.411-3.314-5.896-6.264-8.397-7.819C152.859,37.412,145.821,36.047,136.406,38.274z"/>
	<path style="fill:#994D47;" d="M151.69,286.541c-9.71-1.152-20.89,0.94-30.676,1.409c-6.462,0.309-13.456,0.33-19.739,2.031
		c-7.658,2.073-11.064,6.701-11.027,15.064c0.014,3.124,1.392,5.976,2.823,8.709c1.618,3.09,1.799,3.194,4.922,3.727
		c5.134,0.876,11.287-0.107,16.438-0.352c6.762-0.322,13.528-0.945,20.295-1.148c9.852-0.295,19.469,0.276,29.27,0.382
		c7.085,0.076,13.893,1.459,20.702,3.271c5.777,1.538,7.193,0.804,9.655-4.838c2.065-4.732,6.201-14.138,2.188-18.481
		c-3.997-4.327-11.999-5.333-17.456-6.429C170.104,288.085,161.17,288.169,151.69,286.541z"/>
	<path style="fill:#994D47;" d="M299.68,456.154c-5.312-2.699-15.468-0.373-21.476-0.373c-6.916,0-13.578-0.001-20.446,0
		c-4.584,0.001-9.466-0.074-13.902,0.819c-6.073,1.223-6.749,2.654-7.141,9.124c-0.609,10.038-0.778,20.086-0.778,30.158
		c0,2.333-0.939,7.079,0.467,9.103c1.814,2.61,5.393,1.093,8.348,1.202c13.622,0.506,27.323,0.067,40.947,0.694
		c4.912,0.227,12.934,2.914,15.472-2.286c2.597-5.319,1.158-16.507,0.372-22.266C300.529,474.885,302.474,463.605,299.68,456.154z"
		/>
	<path style="fill:#994D47;" d="M407.039,455.781c-7.962,0.676-16.213-0.819-24.229-0.382c-4.764,0.261-9.301,0.204-14.11,0.438
		c-0.495,7.07-0.781,13.935-0.448,21.181c0.238,5.208,0.513,10.279-0.001,15.491c-0.332,3.363-1.952,8.091-1.471,11.361
		c0.682,4.631,4.575,3.588,8.753,3.759c10.157,0.419,20.388,0.328,30.566-0.115c6.651-0.289,14.449,1.267,20.892-0.255
		c3.608-0.852,4.269-2.855,4.952-6.645c1.693-9.386,0.222-19.401,0.074-28.8c-0.066-4.201,0.628-11.024-1.958-14.488
		C423.718,459.981,413.122,457.024,407.039,455.781z"/>
	<path style="fill:#994D47;" d="M234.445,506.106c-2.011,0.889-7.987,0.216-10.471,0.499c-3.193,0.365-5.542-0.168-8.667-0.578
		c-8.198-1.075-17.144-1.816-25.4-1.262c-8.955,0.601-17.685,1.189-26.701,0.325c-8.783-0.841-17.536-0.387-26.331-0.086
		c-9.641,0.331-18.798-0.89-28.427,0.364c-5.015,0.653-9.921,0.809-14.938,0.364c-1.761-0.156-5.863,0.362-7.401-0.43
		c-2.197-1.129-2.614-3.299-3.104-5.521c-1.196-5.443-1.945-11.563-2.161-17.126c-0.169-4.347-1.193-11.388,0.83-15.418
		c3.918-7.806,17.798-6.863,24.875-7.002c12.848-0.252,25.542,1.023,38.474,0.11c7.411-0.522,14.829-0.072,22.274-0.093
		c4.775-0.013,9.884,1.235,14.587,0.745c2.472-0.257,5.679,0.859,8.335,0.743c3.669-0.161,7.261,0.002,10.937,0.002
		c6.128,0,12.128-0.488,18.212-0.754c4.945-0.216,15.417-2.526,19.002,1.874c4.247,5.212-0.945,18.302-0.942,24.445
		C237.43,491.433,238.736,504.211,234.445,506.106z"/>
</g>
<path style="fill:#9B5B49;" d="M185.51,319.935c-9.777,4.644-21.007,4.597-30.178,11.146c-18.26,13.037-24.266,32.593-27.999,53.825
	c-3.021,17.182-5.743,35.063-0.101,52.118c1.626,4.913,4.347,8.517,7.033,12.805c1.169,1.868,3.17,5.141,1.499,7.282
	c-1.703,2.184-8.353,2.04-10.783,2.207c-5.889,0.404-11.607,0.661-17.511,0.669c-2.983,0.005-10.822,1.416-12.961-1.328
	c-2.067-2.652-0.953-9.935-1.47-13.219c-2.36-15.015,0.416-30.673,1.763-45.75c1.551-17.351,3.713-34.626,5.312-51.969
	c0.587-6.365,0.64-12.684,0.996-19.048c0.311-5.569,2.434-8.578,7.722-10.61c8.819-3.388,19.179-3.009,28.471-3.642
	c13.626-0.926,27.065-0.945,40.454,2.038C182.255,317.463,182.901,315.769,185.51,319.935z"/>
<g>
	<path style="fill:#DB9577;" d="M326.148,355.504c-5.635,1.213-11.593,0.304-17.281,1.567c-6.703,1.489-14.132,3.427-20.407,6.345
		c-8.953,4.163-18.704,9.089-24.736,17.117c-4.1,5.457-8.68,13.95-0.099,16.923c12.227,4.235,27.793,1.796,40.5,1.672
		c29.126-0.285,58.209,0.861,87.292,0.737c4.716-0.02,14.972,1.449,17.303-3.594c2.981-6.446-2.922-11.593-7.181-15.309
		c-10.063-8.779-20.398-15.053-33.11-19.615C354.3,356.278,340.643,355.877,326.148,355.504z"/>
	<path style="fill:#DB9577;" d="M99.874,353.641c18.193-2.814,36.346-4.687,54.88-4.847c8.239-0.072,30.387-4.462,33.448,5.794
		c1.533,5.136,1.243,10.836,1.428,16.105c0.143,4.09,0.244,4.55-3.597,4.942c-10.232,1.045-21.269,0.316-31.544,0.376
		c-13.435,0.079-26.878-1.119-40.3-1.104c-3.564,0.005-17.121,3.151-18.017-0.734c-0.513-2.224,1.605-7.855,1.838-10.282
		C98.29,360.977,98.244,356.617,99.874,353.641z"/>
	<path style="fill:#DB9577;" d="M97.638,388.682c16.211,0,32.459,0.373,48.704,0.373c8.829,0,17.66,0.001,26.49,0
		c4.527-0.001,9.723-1.136,14.163-0.2c9.139,1.929,8.78,17.205,7.765,24.438c-0.601,4.28-0.956,6.403-5.06,7.078
		c-3.806,0.626-8.153-0.093-12.009-0.021c-8.297,0.153-16.589,1.115-24.863,1.699c-13.945,0.984-27.748-0.188-41.695-0.19
		c-5.593-0.001-12.513,0.918-17.92-0.81c0.355-4.367,0.896-8.919,1.085-13.366C94.564,401.367,92.903,393.96,97.638,388.682z"/>
	<path style="fill:#DB9577;" d="M93.537,439.379c30.009,0,59.969-1.727,89.981-1.491c3.602,0.028,10.353-0.947,12.531,2.456
		c2.501,3.907-0.812,13.827-2.3,17.988c-10.923,0.587-21.87,2.371-32.843,2.686c-13.28,0.382-26.66-0.215-39.907-0.777
		c-7.206-0.306-16.66,1.221-23.546-1.151C91.481,457.034,93.18,445.281,93.537,439.379z"/>
</g>
<path style="fill:#9B5B49;" d="M121.364,206.611c-3.056,0.377-7.084,1.729-9.575,3.528c-3.235,2.335-3.043,5.136-2.853,8.828
	c0.52,10.063,1.644,20.185,1.74,30.279c0.094,9.856-0.668,19.577-1.078,29.381c-0.075,1.788-0.117,5.372,1.22,6.853
	c1.89,2.092,6.564,1.213,9.077,1.304c9.168,0.337,18.386,0.569,27.543,1.065c1.59,0.086,6.582,1.096,7.888-0.293
	c1.732-1.843-2.479-6.78-3.406-8.293c-4.054-6.622-7.943-12.477-10.07-20.103c-2.636-9.448-3.947-20.83,0.412-29.979
	c4.117-8.639,13.044-13.737,22.408-14.691c3.811-0.389,6.977,2.004,10.603,1.691c2.503-0.217,5.107-2.557,2.872-5.181
	c-1.931-2.267-9.94-3.16-12.749-3.854c-6.007-1.484-11.755-3.866-17.988-4.222C139.254,202.457,132.913,203.328,121.364,206.611z"/>
<g>
	<path style="fill:#DB9577;" d="M109.938,264.92c10.875-1.736,22.077-2.4,33.146-2.61c10.025-0.19,21.355-1.82,31.184,0.701
		c9.94,2.549,3.99,18.125,4.203,25.709c-6.816,0.838-14.824-0.333-21.713-0.668c-11.339-0.551-22.45-0.183-33.76,0.771
		c-2.915,0.245-7.969,1.437-10.798,0.703c-2.855-0.741-1.425-0.151-2.347-2.671c-1.22-3.335-0.796-7.847-0.641-11.343
		C109.376,271.845,111.145,269.963,109.938,264.92z"/>
	<path style="fill:#DB9577;" d="M109.938,240.69c4.004-1.58,10.38-1.746,15.006-2.339c8.677-1.114,17.665-2.296,26.42-2.162
		c8.756,0.135,18.174,1.001,26.363,4.091c0.302-3.915,0.892-9.266-1.882-12.646c-1.82-2.216-4.373-2.256-7.164-2.742
		c-7.65-1.331-15.255-2.059-23.032-2.098c-8.08-0.041-16.163,0.291-24.193,1.215c-2.971,0.342-8.768,0.205-11.069,2.599
		C107.401,229.714,108.364,240.828,109.938,240.69z"/>
	<path style="fill:#DB9577;" d="M264.639,411.421c-5.492-1.303-12.141-0.64-17.83-0.371c-3.72,0.176-7.254,0.453-8.18,3.579
		c-0.96,3.24,0.171,9.494,0,13.036c-0.23,4.763-0.065,9.554-0.083,14.325c-0.02,4.991-0.636,9.749,0.429,14.482
		c13.388,0.313,26.783-0.006,40.158-0.602c9.414-0.42,22.648-5.003,23.159,8.178c0.333,8.601,0.417,17.122,0,25.687
		c-0.169,3.471-2.004,12.909,0.355,15.728c2.729,3.26,10.043,0.815,12.88,0.632c10.057-0.652,20.882,1.874,31.134,1.877
		c4.003,0.001,16.5,3.086,19.375,0.007c2.4-2.571,1.75-10.853,1.878-14.058c0.357-8.981,0.977-18.849-0.59-27.702
		c-0.468-2.645-1.939-6.598,0.868-8.682c1.652-1.226,4.676-0.168,6.626-0.345c3.388-0.308,6.701-0.47,10.063-0.965
		c12.045-1.774,24.247-0.274,36.242,0.591c1.916,0.139,7.213,1.662,8.768,0.565c3.126-2.204,1.297-12.706,1.007-15.594
		c-0.718-7.131-0.744-14.141-0.744-21.323c0-3.895,0.965-7.625-2.611-9.044c-2.543-1.01-7.159,0.078-9.86,0.008
		c-6.086-0.156-12.201-0.738-18.275-1.116c-11.154-0.693-22.713-0.431-33.874-0.492c-11.875-0.066-23.765-0.264-35.663-0.264
		c-12.259,0-25.079,0.666-37.099-0.695c-5.32-0.602-11.125,0.421-16.4,1.081C273.124,410.349,267.869,412.187,264.639,411.421z"/>
</g>
<g>
	<path style="fill:#FCDBD0;" d="M329.38,346.861c-4.449-1.037-7.613,0.078-10.177,3.845c-2.14,3.144-2.188,5.48,2.103,5.727
		c2.997,0.173,6.023-0.078,9.023,0.061c2.018,0.094,4.8,0.915,6.742-0.045C341.944,354.043,335.971,348.925,329.38,346.861z"/>
	<path style="fill:#FCDBD0;" d="M132.412,52.008c-4.249-0.126-7.801,5.208-8.7,8.707c-1.431,5.572-0.089,12.442-0.089,18.221
		c0,1.874,0.068,3.766-0.045,5.633c-0.073,1.217-0.693,2.792-0.359,4.006c0.254,0.926,0.276,1.119,1.185,1.392
		c0.652,0.196,1.5-0.372,2.153-0.463c1.423-0.196,2.839-0.034,4.264-0.175c3.17-0.312,6.212-1.638,9.303-2.355
		c3.081-0.715,6.141-0.916,9.3-0.805c3.833,0.134,6.445,1.359,9.752,2.955c0.546,0.263,2.023,0.81,2.607,0.844
		c1.473,0.087,0.913,0.339,1.628-0.765c1.397-2.161,0.795-6.512,0.916-8.973c0.216-4.387,0.329-8.694-0.195-13.07
		c-0.62-5.177-0.93-11.141-5.491-14.513C151.678,47.502,139.213,48.127,132.412,52.008z"/>
	<path style="fill:#FCDBD0;" d="M301.613,409.986c-0.386,12.175-0.207,24.548-0.2,36.757c0.006,10.416-1.138,20.829-1.408,31.229
		c-0.223,8.586,1.316,17.261,1.408,25.856c0.041,3.885,1.998,2.934,5.391,3.089c5.997,0.275,12.132,0.533,18.152,0.555
		c7.319,0.026,14.496,0.205,21.816-0.156c4.118-0.203,8.147-0.362,12.245-0.443c1.389-0.027,4.533,0.899,5.722-0.001
		c1.786-1.352,1.617-7.722,1.759-9.798c0.709-10.331-0.137-20.351-0.15-30.651c-0.014-11.084,0.757-22.25-0.209-33.302
		c-0.532-6.073-0.2-12.13-0.2-18.229c0-1.667,0.512-3.671-0.695-4.704c-1.696-1.451-5.645-1.102-7.726-1.344
		c-9.796-1.143-19.454-0.958-29.297-0.849c-4.674,0.052-9.352-0.005-14.027-0.005C310.271,407.989,306.306,408.522,301.613,409.986z
		"/>
</g>
<path style="fill:#994D47;" d="M311.601,415.979c-0.58,4.424-1.875,8.839-2.502,13.299c-0.274,1.944-1.247,6.187-0.054,7.846
	c3.631-1.857,3.668-4.726,6.156-7.934c1.979-2.552,3.785-4.993,6.349-7.027c1.686-1.339,5.154-2.059,3.845-4.425
	C323.548,414.404,314.111,414.688,311.601,415.979z"/>
<path style="fill:#C17B63;" d="M252.596,410.274c-0.036,7.906-0.268,15.852-0.268,23.792c0,3.624-0.413,7.651,1.062,11.024
	c1.082,2.474,2.985,3.596,4.817,5.336c3.631,3.453,0.45,5.863-3.496,6.362c-3.32,0.419-6.606-0.756-9.958-1.016
	c-2.354-0.182-4.562,0.477-6.824,0.433c0.916-4.181-0.047-8.981-0.034-13.36c0.018-5.972,0.331-12.034,0.594-18.009
	c0.148-3.36-0.49-7.589,0.209-10.878C239.58,409.805,246.001,410.107,252.596,410.274z"/>
<path style="fill:#994D47;" d="M352.752,415.58c-1.854-0.066-10.437-0.373-9.598,3.206c0.48,2.051,5.403,3.626,6.79,5.174
	c2.602,2.9,3.429,6.607,4.655,10.259c0.358,1.067,1.095,3.785,2.752,3.555c2.317-0.324,2.513-5.81,2.618-7.303
	c0.228-3.245-1.128-6.448-2.023-9.55C357.199,418.328,356.834,416.639,352.752,415.58z"/>
<path style="fill:#3A2A29;" d="M257.525,421.592c5.299-0.792,4.285,9.072,4.462,11.761c0.184,2.791,0.04,5.783-0.394,8.544
	c-0.237,1.505-0.445,1.568-1.79,2.053c-2.227,0.802-3.787,0.925-6.158,1.001c-1.489,0.047-3.639,0.616-4.836-0.605
	c-1.064-1.086-0.825-3.252-0.939-4.664c-0.268-3.335-0.285-6.691-0.571-10.018c-0.212-2.478-0.794-4.843,1.709-6.289
	c1.674-0.967,3.666-1.1,5.546-1.107C255.873,422.262,256.135,421.801,257.525,421.592z"/>
<path style="fill:#C17B63;" d="M269.434,410.541c-0.225,9.561,0.06,19.595,0.534,29.133c0.194,3.903-0.333,7.813,0,11.72
	c0.261,3.056,0.648,3.39,3.677,3.723c5,0.548,10.323,0.189,15.351,0c2.946-0.112,7.582,1.305,9.961-0.475
	c3.901-2.92,1.338-8.421-1.922-10.562c-2.935-1.927-6.702-2.438-9.319-4.863c-2.86-2.648-3.234-6.814-3.321-10.478
	c-0.108-4.57-0.238-8.81-0.87-13.334c-0.267-1.907,0.004-4.502-1.733-5.625C279.852,408.523,270.562,409.012,269.434,410.541z"/>
<path style="fill:#823E3B;" d="M100.516,463.194c-8.597-0.002-18.811,0.49-20.937,10.588c-1.721,8.172,0.988,17.323,2.496,25.371
	c2.705,14.442,22.766,8.421,33.155,8.409c22.994-0.027,46.083-1.385,69.161-0.475c5.974,0.236,11.807,1.43,17.545-0.679
	c6.474-2.38,13.979-1.471,20.731-1.246c2.975,0.1,5.183,1.089,7.989,1.612c3.375,0.628,7.038-0.197,10.454-0.073
	c4.15,0.151,8.223,0.445,12.364,0.794c7.776,0.655,15.396,0.87,23.205,0.869c6.726-0.001,14.381,1.023,21.012-0.076
	c5.608-0.93,3.817-8.869,4.357-13.177c0.626-4.992-3.847-6.561-8.035-7.3c-5.964-1.052-12.007-1.868-17.855-3.481
	c-6.382-1.761-12.776-3.579-17.031-8.977c-3.05-3.871-2.781-7.196-2.509-11.806c0.183-3.103,1.56-5.859-1.551-6.773
	c-2.69-0.79-7.297,0.301-10.079,0.54c-4.172,0.358-6.592-0.553-7.154,3.717c-0.735,5.572-0.002,11.451-0.668,17.152
	c-0.357,3.058,0.367,10.919-2.193,13.149c-2.305,2.006-9.122,0.903-11.787-0.074c-5.23-1.918-6.759-6.22-6.953-11.479
	c-0.183-4.935,1.908-12.126-1.196-16.559c-1.436-2.05-4.757-2.897-7.087-1.854c-2.294,1.027-2.08,2.296-2.127,4.529
	c-0.182,8.551,6.055,17.684,1.082,25.608c-3.374,5.379-9.28,5.256-14.962,5.109c-8.181-0.21-16.363-0.625-24.553-0.788
	c-11.067-0.221-23.072,0.13-33.66-3.568c-6.835-2.387-14.25-5.871-15.129-13.894c-0.492-4.494,1.743-9.737-3.756-11.681
	C109.411,464.759,103.343,463.805,100.516,463.194z"/>
<g>
	<path style="fill:#3A2A29;" d="M282.776,421.187c-1.104,0.055-3.009,1.283-3.655,2.158c-1.266,1.713-0.176,4.69-0.121,6.681
		c0.093,3.333-0.392,6.621-0.552,9.937c-0.068,1.401-0.14,3.948,0.936,5.09c0.925,0.984,3.429,0.443,4.67,0.232
		c1.718-0.292,3.982-1.205,5.477-2.087c1.57-0.927,1.845-2.107,1.888-3.868c0.086-3.587-0.121-7.162-0.136-10.742
		c-0.007-1.683,0.601-4.696-0.299-6.193C289.828,420.478,286.21,421.454,282.776,421.187z"/>
	<path style="fill:#3A2A29;" d="M264.507,506.183c-2.078,1.726-5.07,0.736-7.41,0.243c-2.178-0.458-5.803,0.09-7.54-1.49
		c-1.094-0.996-0.895-2.922-1-4.291c-0.271-3.529-0.201-7.073-0.214-10.609c-0.018-5.182,1.176-13.518,6.455-16.169
		c1.327-0.667,3.486-0.768,4.881-0.293c2.213,0.753,2.85,2.721,3.247,4.849c1.222,6.556,2.523,13.173,2.704,19.853
		C265.684,500.279,266.272,504.716,264.507,506.183z"/>
	<path style="fill:#3A2A29;" d="M275.213,508.418c0.114-1.946-0.546-4.171-0.907-6.08c-0.559-2.943-0.761-5.911-0.851-8.909
		c-0.185-6.183-2.06-15.632,3.247-20.332c2.725-2.413,8.262-2.339,10.262,1.112c1.302,2.247,1.139,6.069,1.384,8.571
		c0.377,3.842,0.504,7.734,0.504,11.6c0,3.341,0.866,8.469-0.861,11.498c-0.873,1.532-2.08,2.42-3.773,2.539
		c-1.018,0.072-2.058-0.02-3.077-0.005C279.429,508.437,277.733,508.931,275.213,508.418z"/>
	<path style="fill:#3A2A29;" d="M311.672,506.257c3.158-6.311,3.389-14.022,3.747-20.931c0.445-8.591-1.201-16.963-3.069-25.331
		c-0.642-2.877-1.915-6.59,0.943-8.568c1.527-1.058,3.922-1.135,5.069-2.639c1.629-2.135,1.175-5.936,1.426-8.432
		c0.358-3.547,1.287-7.625,3.599-10.443c4.084-4.975,10.691-7.556,16.432-4.074c4.903,2.974,8.279,8.439,8.687,14.162
		c0.15,2.099-0.879,6.214,0.67,7.86c1.406,1.496,4.116,0.904,5.517,2.505c1.773,2.026,0.715,7.076,0.296,9.405
		c-0.98,5.455-1.527,10.94-1.593,16.493c-0.066,5.547-0.349,11.122,0.639,16.618c0.375,2.085,0.977,4.11,1.361,6.187
		c0.236,1.275,0.821,3.093,0.519,4.381c-1.183,5.043-11.264,4.104-14.765,4.226c-4.692,0.163-9.411-0.143-14.105-0.205
		C322.552,507.413,317.673,507.8,311.672,506.257z"/>
</g>
<path style="fill:#823E3B;" d="M366.187,457.314c1.56,5.016,0.066,11.723,0.257,16.975c0.185,5.089,0.648,10.305,1.079,15.376
	c0.322,3.781,0.143,7.929-0.008,11.693c-0.073,1.795-0.567,2.592,0.791,3.865c1.405,1.316,5.977,1.675,7.855,2.027
	c7.69,1.44,16.067,0.737,23.856,1.055c4.204,0.171,8.44-0.073,12.639-0.268c4.439-0.205,9.328,0.121,13.673-0.804
	c1.908-0.406,4.824-1.073,5.879-2.924c2.369-4.156-3.692-5.11-6.48-5.895c-12.367-3.48-30.185-7.094-34.911-20.802
	c-1.746-5.065-1.33-10.061-1.098-15.29c0.157-3.531-0.913-4.991-4.338-6.024C380.601,454.856,369.015,453.021,366.187,457.314z"/>
<path style="fill:#3A2A29;" d="M382.294,509.228c3.015-0.221,9.069,0.357,11.345-2.427c0.986-1.206,0.64-3.245,0.702-4.699
	c0.276-6.446,1.183-13.383,0.316-19.802c-0.581-4.304-3.259-10.601-8.278-10.917c-5.905-0.372-6.199,8.601-6.855,12.792
	c-1.092,6.972-0.492,13.596-0.473,20.599c0.004,1.106,0.379,1.109,0.871,2.099C380.88,508.793,380.261,509.377,382.294,509.228z"/>
<path style="fill:#C17B63;" d="M421.06,457.314c2.748,0.007,7.45,1.02,9.757-1c2.008-1.757,1.808-6.593-1.607-6.503
	c-2.819,0.074-4.24,3.417-7.429,3.024c-2.351-0.29-6.204-1.678-8.186-3.034c-4.384-2.997-4.854-8.806-5.122-13.65
	c-0.264-4.77-0.053-9.833,0.198-14.61c0.142-2.699,0.831-5.2-0.716-7.524c-1.753-2.633-7.115-3.915-8.824-1.381
	c-1.558,2.312-0.729,9.004-0.871,11.619c-0.295,5.409-0.737,10.814-1.075,16.219c-0.241,3.842,0.04,7.895-5.02,7.469
	c-6.311-0.531-10.585-4.52-11.836-10.521c-1.341-6.431-1.202-13.176-1.525-19.717c-0.12-2.418,1.635-9.562-2.727-6.897
	c-2.125-0.457-5.531-0.528-7.484,0.608c-3.315,1.928-1.889,9.794-2.204,13.491c-0.551,6.456-0.703,13.69,0.073,20.14
	c0.274,2.268-0.011,8.27,1.368,10.135c2.391,3.237,12.785,0.946,16.12,1.118c6.523,0.333,13.023,1.027,19.588,1.015
	C409.399,457.303,415.194,457.3,421.06,457.314z"/>
<g>
	<path style="fill:#3A2A29;" d="M402.414,508.553c2.744-5.285,0.938-12.651,0.945-18.331c0.005-3.581,0.539-7.135,1.489-10.589
		c0.795-2.886,1.767-6.077,4.675-7.402c4.033-1.836,7.549,5.229,8.427,8.145c1.87,6.207,2.394,12.454,2.123,18.943
		c-0.079,1.89,0.301,5.781-1.202,7.215c-1.172,1.118-4.03,0.93-5.488,1.104c-2.046,0.243-3.8,0.474-5.848,0.115
		C405.763,507.442,404.103,506.957,402.414,508.553z"/>
	<path style="fill:#3A2A29;" d="M376.893,422.673c0.187,3.611-0.41,7.464-0.569,11.086c-0.093,2.083-0.552,5.109,0.023,7.15
		c0.613,2.175,6.189,2.862,8.219,3.139c0.907,0.124,2.749,0.81,3.535,0.637c1.372-0.302,1.228-2.356,1.317-3.441
		c0.299-3.642,0.159-7.313,0.168-10.968c0.004-1.455-0.227-2.853-0.275-4.303c-0.027-0.819,0.317-2.047,0.154-2.801
		c-0.357-1.654-2.395-1.433-3.868-1.445C383.515,421.712,378.27,420.384,376.893,422.673z"/>
	<path style="fill:#3A2A29;" d="M407.545,422.538c-0.555,1.212-0.473,2.944-0.623,4.254c-0.225,1.976-0.566,3.935-0.764,5.912
		c-0.244,2.429-0.711,5.229-0.132,7.63c0.886,3.669,3.307,3.258,6.586,3.881c1.25,0.238,5.37,0.925,6.416-0.27
		c0.829-0.947,0.637-4.92,0.673-6.034c0.099-3.164,0.42-6.464,0.276-9.623c-0.079-1.728-0.309-4.206-1.793-5.362
		C415.95,421.188,411.68,421.477,407.545,422.538z"/>
	<path style="fill:#3A2A29;" d="M222.868,475.827c-2.38-0.023-3.669,3.219-4.26,5.115c-1.019,3.266-2.07,6.823-2.429,10.224
		c-0.439,4.162,0.069,8.685,0.419,12.85c0.061,0.718-0.211,2.524,0.409,3.032c0.38,0.312,1.721,0.117,2.205,0.19
		c1.258,0.188,2.324,0.232,3.605,0.168c1.338-0.067,3.11,0.666,4.136-0.411c1.923-2.019,1.588-6.827,1.654-9.285
		c0.133-5.002,0.639-10.444-0.166-15.396C227.912,479.059,226.944,476.207,222.868,475.827z"/>
	<path style="fill:#3A2A29;" d="M133.216,507.384c0.144-4.397,0.864-8.837,1.037-13.257c0.052-1.311,0.083-2.631,0.115-3.941
		c0.015-0.662,0.277-2.127-0.007-2.76c-0.447-0.997-1.98-0.987-2.97-1.05c-2.093-0.13-4.195,0.293-6.308,0.191
		c-1.627-0.079-4.413-0.607-5.965,0.009c-1.56,0.62-1.472,4.055-1.624,5.572c-0.359,3.592-0.484,7.688,0.016,11.282
		c0.298,2.138,1.241,3.187,3.413,3.339c1.9,0.132,3.77,0.437,5.662,0.622C129.391,507.666,131.921,506.965,133.216,507.384z"/>
	<path style="fill:#3A2A29;" d="M166.548,505.711c-0.95-0.77-1.098-2.813-1.486-3.942c-0.885-2.569-1.422-4.921-1.44-7.657
		c-0.04-5.859,1.898-12.23,7.866-14.53c3.239-1.248,8.066,0.102,9.535,3.419c1.104,2.492,0.203,5.781,0.338,8.397
		c0.161,3.11,0.455,6.21,0.343,9.333c-0.074,2.071-0.522,4.007-2.815,4.384c-1.752,0.289-3.621-0.001-5.389,0.092
		C171.037,505.338,168.601,505.398,166.548,505.711z"/>
</g>
<g>
	<path style="fill:#9B5B49;" d="M235.757,406.532c4.611,1.261,10.75,0.259,15.447,0.06c7.428-0.317,14.915-0.416,22.342-0.601
		c7.606-0.19,15.212-1.034,22.817-1.061c8.555-0.031,17.066-0.805,25.673-0.699c9.318,0.116,18.635,0.322,27.95,0.573
		c18.847,0.508,37.688,1.207,56.535,1.735c6.86,0.193,13.7,0.468,20.547,0.802c1.811,0.088,8.941-0.251,5.951,3.213
		c-1.074,1.244-3.386,1.067-4.841,1.059c-3.893-0.023-7.795-0.272-11.71-0.269c-10.783,0.009-21.621-0.876-32.377-1.671
		c-13.966-1.032-27.918-1.961-41.909-2.353c-13.173-0.369-26.083,1.781-39.07,2.396c-7.538,0.357-15.168-0.504-22.722-0.512
		c-7.619-0.008-15.211,0.541-22.817,0.816c-5.215,0.188-10.289,0.581-15.467,0.996C240.034,411.181,233.003,411.056,235.757,406.532
		z"/>
	<path style="fill:#9B5B49;" d="M142.211,2.413c-6.8-0.595-11.031,6.219-12.287,11.871c-1.487,6.689-1.548,14.712-1.618,21.542
		c-0.025,2.461-0.09,2.854,2.168,3.078c2.543,0.252,6.388-0.351,9.004-0.613c1.506-0.15,7.673-0.033,8.617-1.123
		c1.116-1.289-1.478-6.773-2.057-8.481c-1.963-5.789-2.348-11.593-0.195-17.509C146.665,8.929,149.243,1.404,142.211,2.413z"/>
</g>
<g>
	<path style="fill:#E0BBB1;" d="M123.769,59.876c1.199-2.792,3.521-5.507,6.085-7.164c2.123-1.371,8.316-4.071,10.744-2.275
		c2.732,2.02,0.497,9.328,0.547,12.236c0.108,6.263,2.329,10.492,8.525,12.169c6.665,1.804,15.508,3.543,14.731,12.303
		c-0.21,2.367-1.291,3.103-3.51,3.019c-5.278-0.2-10.601-2.654-16.015-2.757c-6.19-0.117-11.474,1.922-17.391,3.225
		c-6.345,1.398-4.64-6.683-4.25-10.71C123.944,72.6,120.863,66.647,123.769,59.876z"/>
	<path style="fill:#E0BBB1;" d="M302.042,412.145c0.46,6.754-0.234,14.246-0.521,21.055c-0.284,6.754-0.531,13.535-0.548,20.313
		c-0.028,11.114-0.375,22.362,0,33.496c0.163,4.841-0.41,10.427,0.528,15.184c0.729,3.699,6.769,7.565,9.635,3.763
		c1.067-1.415,1.698-4.097,1.804-5.864c0.176-2.896-1.294-2.24-3.063-3.265c-2.268-1.315-1.789-1.375-1.557-3.993
		c0.662-7.468-1.165-15.151-1.2-22.668c-0.047-10.3-1.068-20.539-1.07-30.817c-0.001-7.398,0.632-14.851,0.533-22.199
		C306.54,413.903,304.727,404.325,302.042,412.145z"/>
	<path style="fill:#E0BBB1;" d="M355.497,506.761c-0.99-6.051-2.62-12.11-2.95-18.339c-0.373-7.058,0.71-14.084,1.621-21.017
		c0.569-4.335,1.867-9.259,1.047-13.579c-0.64-3.376-3.309-4.561-5.332-7.201c-2.828-3.691-1.829-8.252-1.563-12.796
		c4.049-0.981,4.169,7.437,6.365,9.816c1.521,1.648,3.88,2.869,5.041,4.779c1.78,2.93,1.065,7.258,0.842,10.414
		c-0.418,5.896-0.675,11.843-0.929,17.749c-0.198,4.629-1.551,10.992-0.419,15.559c0.756,3.055,2.774,2.502,4.843,4.127
		c1.226,0.963,2.266,2.921,2.637,4.461C368.451,508.018,359.172,507.095,355.497,506.761z"/>
</g>
<path style="fill:#C17B63;" d="M323.424,356.017c-16.246,0.056-32.352,6.628-46.61,14c-7.962,4.117-14.897,10.201-17.114,19.122
	c-1.344,5.405,1.662,8.549,6.806,9.716c11.001,2.496,23.44,0.189,34.651,0.194c14.448,0.006,28.896,0,43.344,0
	c13.827,0,27.605,0.023,41.4,0.669c3.048,0.142,26.824,1.376,21.182-6.392c-1.629-2.242-6.35-2.784-8.828-3.311
	c-5.787-1.23-11.739-1.755-17.624-2.259c-6.942-0.594-13.863-1.315-20.69-2.754c-5.785-1.22-12.941-2.387-17.752-6.037
	c-2.973-2.255-5.245-5.623-5.966-9.292c-0.487-2.479,0.387-5.38-0.275-7.761C334.565,356.94,326.954,355.303,323.424,356.017z"/>
<path style="fill:#E0BBB1;" d="M317.811,355.75c0.276-2.781,1.968-6.303,4.53-7.489c3.731-1.726,3.214,1.533,5.474,2.685
	c1.607,0.818,10.066,0.59,6.3,4.803C331.157,359.06,321.479,356.401,317.811,355.75z"/>
<g>
	<path style="fill:#823E3B;" d="M168.074,105.884c-7.877-4.731-20.246-7.373-29.294-5.099c-3.073,0.772-5.63,2.6-8.88,2.734
		c-3.424,0.141-8.977-0.672-10.005-4.635c-0.583-2.251,0.389-6.206-3.549-4.698c-5.981,2.288-8.028,13.988-4.867,19.001
		c1.1,1.743,2.949,2.448,3.699,4.451c0.97,2.589,0.484,5.616,0.412,8.308c-0.103,3.872-0.221,7.653-0.581,11.517
		c-0.702,7.51-0.36,15.047-0.713,22.574c-0.296,6.331-1.354,12.675-1.27,19.017c0.075,5.769,8.475,4.419,12.315,2.792
		c3.523-1.493,4.703-5.681,5.879-9.035c2.361-6.734,3.5-13.827,6.114-20.491c4.776-12.175,15.066-24.315,28.66-26.365
		c1.767-0.266,3.868,0.207,5.289-1.128c1.449-1.362,1.162-3.496,1.452-5.234c0.714-4.26,3.956-6.651-0.236-10.443
		C171.132,107.915,169.649,106.83,168.074,105.884z"/>
	<path style="fill:#823E3B;" d="M123.275,57.912c6.158-6.379,15.426-9.509,24.271-8.972c3.764,0.228,7.798,1.842,11.107,3.59
		c1.296,0.686,2.632,1.41,3.8,2.302c1.045,0.797,2.01,2.523,3.237,2.929c3.264,1.082,2.638-3.347,1.757-5.131
		c-2.389-4.847-9.347-6.363-14.11-7.834c-5.809-1.795-11.997-3.146-17.943-1.269c-2.612,0.824-6.051,3.772-8.752,3.886
		c-2.501,0.106-3.26-4.022-5.984-1.418c-1.421,1.358-1.768,4.516-1.671,6.361C119.187,56.134,121.539,56.733,123.275,57.912z"/>
	<path style="fill:#823E3B;" d="M100.871,190.633c0.276-5.967,10.148-7.991,14.553-6.518c1.762,0.589,4.644,1.355,6.158,2.374
		c2.202,1.484,1.621,3.736,2.775,5.843c3.669,6.7,18.609,4.388,24.608,4.676c8.177,0.392,16.417,0.643,24.44,2.32
		c3.906,0.816,6.33,1.344,8.289,5.011c1.673,3.131,0.281,6.03-3.234,5.42c-3.266-0.566-6.295-2.018-9.533-2.808
		c-4.85-1.182-9.829-1.61-14.692-2.781c-7.377-1.776-14.38-3.192-21.985-1.924c-7.589,1.266-13.347,6.24-20.554,8.245
		C101.077,213.445,102.66,200.192,100.871,190.633z"/>
	<path style="fill:#823E3B;" d="M105.138,291.346c-7.123,0.026-14.482,3.697-14.516,11.521c-0.021,4.876,1.889,10.002,4.118,14.266
		c1.675,3.204,3.104,2.998,6.587,2.43c7.362-1.199,14.878-2.799,22.327-3.205c16.216-0.885,31.997-0.895,48.119,1.228
		c4.797,0.632,12.238,3.893,16.956,2.215c2.382-0.848,4.906-3.132,3.8-5.802c-1.955-4.721-11.887-5.139-15.812-5.49
		c-17.532-1.57-35.107-0.735-52.135-6.017c-4.926-1.527-7.188-3.433-9.085-8.039C113.874,290.516,110.583,290.207,105.138,291.346z"
		/>
</g>
<path d="M313.286,413.969c-1.632,0.155-2.641,0.534-3.484,1.909c-1.334,2.181-1.392,6.737-1.34,9.299
	c0.001,0.048,0.022,0.087,0.029,0.133c-0.452,2.428-0.799,4.877-0.92,7.403c-0.139,2.908-1.017,7.654,2.323,8.93
	c0.507,0.194,1.274-0.016,1.622-0.428c2.684-3.174,3.136-8.024,5.073-11.654c2.457-4.605,6.958-6.779,10.434-10.452
	c0.531-0.56,0.5-1.363,0-1.93C324.394,414.2,316.878,413.627,313.286,413.969z M317.181,423.389
	c-2.644,2.687-4.176,6.372-5.331,9.878c-0.095,0.286-0.501,1.007-0.96,1.826c-0.002-0.212-0.006-0.426-0.008-0.639
	c0.197-1.394,0.043-2.922,0.134-4.331c0.196-3.045,0.709-6.187,0.694-9.28c0.137-0.643,0.266-1.293,0.424-1.925
	c0.622-2.503,0.202-2.04,3.043-1.909c2.405,0.11,6.343-0.171,8.787,1.228C321.823,420.052,319.143,421.396,317.181,423.389z"/>
<path d="M247.86,446.308c2.1,1.837,6.264,0.247,8.844,0.184c2.359-0.058,4.66-0.358,5.804-2.753
	c1.282-2.683,0.727-7.161,0.675-9.959c-0.068-3.638,0.025-7.528-0.799-11.081c-0.406-1.75-0.822-2.455-2.735-2.6
	c-3.319-0.251-6.442,1.079-9.695,1.134c-2.216,0.038-3.28,1.568-3.835,3.615c-1.089,4.016-0.157,8.32,0.136,12.378
	C246.431,439.709,245.732,444.447,247.86,446.308z M249.628,424.999c0.996-1.286,2.926-0.875,4.354-0.986
	c1.213-0.095,2.306-0.804,3.555-0.567c2.703,0.514,1.829,2.479,1.982,4.507c0.264,3.514,0.579,7.027,0.304,10.558
	c-0.086,1.104-0.087,2.457-0.681,3.406c-0.878,1.401-1.584,0.97-3.099,1.074c-2.627,0.181-5.436,1.504-6.212-1.581
	c-0.68-2.699-0.465-6.125-0.471-8.875C249.354,430.498,248.255,426.772,249.628,424.999z"/>
<path d="M291.593,420.376c-1.767-1.324-5.88-0.895-7.899-0.59c-2.096,0.315-4.883-0.359-6.473,1.155
	c-0.414,0.394-0.616,1.087-0.433,1.639c0.68,2.042,0.302,4.218,0.627,6.33c-0.251,2.398-0.311,4.845-0.358,7.158
	c-0.053,2.613-1.331,7.962,0.784,10.03c2.175,2.127,7.403,0.046,9.845-0.29c3.393-0.467,4.676-1.55,5.345-4.974
	c0.808-4.129,0.582-8.774,0.371-12.956C293.3,425.832,293.429,421.751,291.593,420.376z M289.468,439.851
	c-0.655,1.564-1.282,1.804-3.034,2.285c-0.561,0.154-4.486,1.179-4.973,1.024c-1.57-0.5-0.987-2.18-1.043-3.882
	c-0.052-1.607-0.155-3.212-0.211-4.818c-0.069-1.983-0.146-4.172-0.043-6.297c0.062-0.507,0.095-1.014,0.109-1.523
	c0.077-0.799,0.185-1.581,0.339-2.327c0.047-0.224,0.021-0.419-0.033-0.599c0.564,0.156,1.14-0.12,1.693-0.161
	c1.693-0.126,4.847-1.254,6.516-0.195c0.298,0.107,0.451,0.075,0.465-0.089c0.186,0.909,0.343,1.821,0.453,2.74
	c0.149,1.402,0.141,2.785,0.134,4.193C289.828,433.027,290.563,437.239,289.468,439.851z"/>
<path d="M434.455,453.709c-0.014-7.423-0.508-14.906-0.818-22.335c-0.261-6.26-0.082-12.151-1.835-18.106
	c2.863-0.302,4.691-1.45,4.328-5.232c-0.534-5.561-2.938-8.248-8.594-9.081c-4.588-0.675-9.313-0.808-14.002-0.884
	c0.398-1.147,0.48-2.505,0.178-4.084c-2.374-12.463-14.004-22.756-24.784-28.259c-5.197-2.652-11.112-6.363-16.642-8.085
	c-7.152-2.226-15.42-2.097-22.821-3.041c-2.828-0.36-5.601-0.716-8.363-1.012c-2.224-6.193-9.305-9.404-15.541-8.707
	c-4.433,0.495-10.087,4.569-8.882,9.258c-6.344,0.938-12.627,2.274-18.758,4.162c-1.121,0.345-2.34,0.703-3.597,1.092
	c-0.662,0.2-1.322,0.41-1.979,0.629c-0.385,0.127-0.771,0.259-1.158,0.394c-4.171,1.475-8.231,3.316-12.134,5.309
	c-10.779,5.501-22.411,15.796-24.784,28.259c-0.301,1.58-0.22,2.937,0.178,4.084c-4.689,0.076-9.415,0.209-14.002,0.884
	c-5.656,0.832-8.059,3.52-8.595,9.081c-0.364,3.781,1.465,4.931,4.328,5.232c-1.754,5.954-1.574,11.845-1.835,18.106
	c-0.31,7.428-0.804,14.911-0.818,22.335c-0.001,0.978-0.026,1.957-0.034,2.935c-0.834,0.083-1.675,0.197-2.515,0.243
	c-3.471,0.19-6.956,0.181-10.435,0.218c-6.707,0.072-13.732,0.621-20.467,1.59c-1.61-0.485-2.94-0.675-3.226-0.175
	c0.038-0.065,0.082-0.116,0.116-0.185c2.347-4.732,1.491-10.077,1.464-15.232c-0.032-6.086-0.708-12.063-0.875-18.114
	c-0.161-5.858,0.312-11.518-0.416-17.365c-0.726-5.833-1.067-11.925-1.385-17.799c-0.649-12.003-2.94-23.74-3.999-35.657
	c-0.591-6.646-1.386-13.331-1.856-19.986c-0.263-3.717-0.836-7.229-1.471-10.785c3.581,0.547,6.837,0.9,8.703-3.12
	c1.092-2.354,1.498-5.331,1.968-7.875c0.566-3.068,1.989-6.148,2.218-9.265c0.386-5.263-3.193-9.044-7.1-12.02
	c-2.323-1.77-4.548-2.863-7.329-3.724c-0.737-0.228-2.391-0.36-2.991-0.785c-1.209-0.856-1.098-0.464-0.965-2.626
	c0.463-7.587-0.066-14.92-0.763-22.476c-1.41-15.279,0.768-31.148-1.512-46.379c1.85,0.067,3.498-0.771,4.589-3.176
	c1.01-2.226,1.084-4.944,1.867-7.28c1.007-3.002,1.968-6.216,2.199-9.394c0.294-4.026-0.237-10.371-2.801-13.667
	c-1.536-1.973-3.768-2.092-5.563-3.584c-2.656-2.206-2.373-6.908-2.396-10.026c-0.049-6.274-1.175-12.498-1.941-18.665
	c-0.407-3.285,0.191-6.669-0.207-9.999c-0.425-3.555-1.271-7.037-1.521-10.616c-0.188-2.7-0.102-5.265-0.905-7.877
	c0.851,0.002,1.712-0.174,2.589-0.649c4.667-2.53,3.965-8.837,3.699-13.224c-0.45-7.443-1.838-12.282-8.941-15.811
	c-1.408-0.7-2.957-1.405-4.588-2.081c1.206-5.258,0.255-10.727,0.769-16.087c0.461-4.816,0.74-8.146-0.176-12.976
	c-0.096-0.504-0.238-1.008-0.403-1.511c2.132-0.907,4.166-4.054,4.764-6.052c1.082-3.616-2.597-7.834-4.996-10.086
	c-1.614-1.514-3.569-2.962-5.7-4.149c-0.499-2.868,0.39-6.489,0.404-9.291c0.021-4.402-0.168-8.905-0.817-13.257
	c-0.477-3.197-0.485-7.308-2.828-9.817c-1.564-1.674-3.347-2.579-5.292-3.25c-4.186-3.015-8.849-3.12-14.069-1.764
	c-2.383,0.619-5.315,1.376-6.584,3.785c-0.004,0.006-0.008,0.018-0.011,0.023c-0.463,0.356-0.915,0.745-1.345,1.206
	c-2.343,2.509-2.351,6.62-2.828,9.817c-0.649,4.352-0.838,8.854-0.817,13.257c0.014,2.802,0.903,6.423,0.404,9.291
	c-2.132,1.187-4.087,2.634-5.7,4.149c-2.4,2.251-6.079,6.469-4.996,10.086c0.598,1.998,2.632,5.143,4.764,6.052
	c-0.163,0.502-0.306,1.007-0.402,1.511c-0.917,4.829-0.639,8.16-0.176,12.976c0.514,5.359-0.437,10.828,0.769,16.087
	c-1.631,0.676-3.179,1.382-4.588,2.081c-7.104,3.529-8.491,8.369-8.941,15.811c-0.265,4.387-0.966,10.694,3.699,13.224
	c0.877,0.475,1.737,0.652,2.589,0.649c-0.804,2.613-0.717,5.177-0.905,7.877c-0.25,3.579-1.096,7.06-1.521,10.616
	c-0.398,3.329,0.201,6.713-0.207,9.999c-0.765,6.167-1.891,12.391-1.941,18.665c-0.025,3.119,0.259,7.82-2.396,10.026
	c-1.795,1.492-4.028,1.611-5.563,3.584c-2.564,3.295-3.095,9.641-2.801,13.667c0.231,3.178,1.192,6.392,2.199,9.394
	c0.783,2.336,0.857,5.054,1.867,7.28c1.091,2.404,2.738,3.243,4.589,3.176c-2.28,15.232-0.102,31.101-1.512,46.379
	c-0.697,7.556-1.226,14.888-0.763,22.476c0.131,2.164,0.243,1.77-0.965,2.626c-0.601,0.425-2.254,0.558-2.992,0.785
	c-2.781,0.861-5.006,1.954-7.329,3.724c-3.907,2.976-7.486,6.759-7.1,12.02c0.229,3.117,1.652,6.197,2.218,9.265
	c0.47,2.544,0.875,5.521,1.968,7.875c1.865,4.021,5.122,3.669,8.703,3.12c-0.635,3.556-1.208,7.069-1.471,10.785
	c-0.47,6.654-1.266,13.34-1.856,19.986c-1.059,11.917-3.349,23.654-3.999,35.657c-0.318,5.873-0.66,11.965-1.385,17.799
	c-0.727,5.848-0.255,11.507-0.416,17.365c-0.166,6.052-0.842,12.029-0.875,18.114c-0.027,5.156-0.883,10.5,1.464,15.232
	c0.034,0.069,0.079,0.12,0.116,0.185c-0.771-1.351-9.136,2.317-10.147,3.294c-5.193,5.014-5.596,16.001-5.317,22.722
	c0.134,3.246,0.838,6.431,1.173,9.643c0.477,4.577,0.056,10.836,4.289,13.79c4.543,3.17,10.633,1.471,15.742,1.799
	c3.14,0.201,6.095,0.839,9.257,0.568c3.355-0.288,6.193-0.755,9.59-0.474c1.584,0.13,3.157,0.079,4.729-0.004
	c4.276,0.666,8.475,0.072,12.828,0.323c5.653,0.326,10.823,0.89,16.486,0.576c5.291-0.293,14.368,0.837,21.093-0.833
	c0.397-0.012,0.794-0.029,1.192-0.062c3.397-0.279,6.235,0.188,9.59,0.474c3.163,0.271,6.116-0.367,9.257-0.568
	c3.038-0.195,6.42,0.321,9.62,0.109c1.192,0.095,2.39,0.09,3.448,0.139c5.149,0.232,10.114-0.343,15.231-0.636
	c5.478-0.313,12.42,1.327,18.104,0.17c2.829,0.735,6.362,0.655,8.919,0.902c3.201,0.31,6.334,0.249,9.543,0.675
	c14.468,1.924,29.809,0.272,44.403-1.123c2.744,0.252,5.519,0.227,8.477-0.008c0.864-0.069,1.624-0.214,2.3-0.42
	c6.287,0.082,12.592,0.313,18.883,0.343c5.026,0.023,10.122-0.238,15.129,0.137c4.426,0.332,9.246,0.619,13.686-0.095
	c0.093,0.009,0.174,0.027,0.27,0.035c2.96,0.235,5.735,0.261,8.477,0.008c14.595,1.395,29.934,3.048,44.403,1.123
	c3.21-0.426,6.342-0.365,9.543-0.675c3.118-0.302,7.711-0.095,10.676-1.506c5.69-2.706,3.453-8.894,3.299-13.876
	C435.096,481.288,434.481,467.506,434.455,453.709z M188.67,386.69c0.44,11.769,1.876,23.469,1.459,35.258
	c-0.193,5.471,0.636,10.865,0.614,16.343c-0.02,5.009,1.68,10.595-0.014,15.484c-1.412,4.075-5.472,4.834-9.797,4.789
	c-0.475-4.872-0.217-10.216-0.212-14.846c0.007-5.919-0.502-11.81-0.794-17.713c-0.571-11.532-1.264-23.107-2.01-34.639
	c-0.821-12.707-1.552-25.434-2.255-38.152c-0.609-11.018-0.654-21.983-1.074-32.986c4.982,0.771,8.946,1.687,8.967,2.658
	c0.231,10.13,0.916,20.176,1.507,30.337C185.716,364.418,188.25,375.438,188.67,386.69z M162.544,432.7
	c-0.992-12.967-0.72-26.113-0.753-39.123c-0.033-12.917-0.445-25.774-0.464-38.684c-0.018-12.259,0.196-24.233-1.079-36.386
	c3.429,0.333,7.929,0.809,12.063,1.384c-0.958,24.44,0.892,48.83,2.286,73.264c0.656,11.49,1.357,23.024,1.786,34.515
	c0.244,6.532,0.681,12.974,0.757,19.526c0.042,3.577-0.065,7.463,0.202,11.201c-1.726-0.122-3.392-0.264-4.837-0.263
	c-3.152,0.001-6.278,0.031-9.407,0.045C163.653,449.791,163.177,440.973,162.544,432.7z M131.116,24.354
	c0.34-4.333,0.24-9.433,1.725-13.571c0.649-1.81,2.212-2.998,3.84-4.122c1.984-0.649,3.974-1.545,5.94-1.749
	c2.55-0.265,5.589,1.264,8.244,1.297c1.85,1.266,3.758,2.522,4.495,4.574c1.485,4.137,1.384,9.237,1.725,13.571
	c0.264,3.363-0.595,8.413,0.414,12.246c-2.182-0.811-4.452-1.264-6.679-1.207c-3.684-1.397-8.788-1.127-13.464-0.001
	c-2.219-0.053-4.481,0.4-6.655,1.208C131.711,32.767,130.852,27.718,131.116,24.354z M128.733,43.099
	c0.524-0.308,1.071-0.601,1.629-0.884c3.316-0.173,7.353-1.687,9.726-2.044c4.406-0.663,8.604,0.096,12.886,0.134
	c2.279,0.629,4.527,1.638,6.493,2.793c3.004,1.767,8.16,5.332,7.052,9.425c-0.247,0.909-0.822,1.679-1.28,2.497
	c-1.309-2-3.105-3.734-5.162-4.84c-3.578-3.626-11.736-4.324-16.069-4.28c-4.499,0.045-9.077,1.14-13.098,3.232
	c-3.212,0.694-6.077,3.024-7.95,5.888c-0.458-0.818-1.033-1.59-1.28-2.497C120.572,48.431,125.728,44.866,128.733,43.099z
	 M162.603,87.5c-4.928-1.698-10.228-2.869-14.812-2.656c-2.881-0.324-5.785-0.42-8.671-0.158c-0.463,0.042-0.923,0.1-1.379,0.168
	c-3.906,0.232-8.149,1.271-12.142,2.646c1.085-6.055,0.136-12.532-0.095-18.562c-0.113-2.964,0.211-8.794,2.206-11.342
	c1.437-1.835,3.74-2.926,5.953-3.913c0.225-0.092,0.447-0.187,0.677-0.274c3.882-1.476,7.916-1.921,11.99-1.559
	c2.787,0.247,5.139,0.893,7.665,1.59c2.373,1.054,4.941,2.17,6.498,4.156c1.995,2.548,2.32,8.378,2.206,11.342
	C162.467,74.968,161.518,81.445,162.603,87.5z M113.655,106.473c-0.177-3.17-0.141-5.943,2.138-8.34
	c2.503-2.634,6.22-3.541,9.501-4.728c0.973-0.352,1.936-0.733,2.896-1.12c3.016-0.67,6.084-1.807,8.334-2.252
	c6.413-1.268,13.089-0.123,19.625,0.677c2.245,0.913,4.476,1.869,6.757,2.695c3.28,1.187,6.998,2.094,9.501,4.728
	c2.28,2.397,2.315,5.17,2.138,8.34c-0.101,1.804-0.016,3.996-0.593,5.721c-0.885,2.648-1.795,1.577-4.22,0.826
	c-0.191-0.059-0.385-0.116-0.579-0.175c0.679-1.288,0.992-2.847,1.275-4.23c0.407-1.983,1.039-3.732,0.749-5.771
	c-0.154-1.084-1.483-1.924-2.492-1.898c-2.847,0.074-3.66,3.291-4.168,5.555c-0.104,0.467-0.198,0.937-0.276,1.409
	c-0.04,0.242-0.163,1.123-0.162,1.153c-0.11,0.667-0.265,1.329-0.457,1.824c-1.51-0.364-3.015-0.596-4.304-0.774
	c0.034-0.396,0.056-0.812,0.076-1.26c0.261-0.734,0.44-1.491,0.495-2.145c0.14-1.625,0.572-3.261,0.337-4.885
	c-0.355-2.452-3.588-2.153-4.719-0.616c-0.992,1.345-1.196,2.953-1.282,4.581c-0.043,0.824-0.148,1.597-0.242,2.413
	c-0.02,0.17-0.018,0.386-0.014,0.609c-2.366-0.632-5.067-0.568-7.707-0.329c-0.306-2.373-0.231-4.825-0.325-7.214
	c0.114-2.869-4.345-2.865-4.459,0c-0.099,2.465-0.474,5.21-0.202,7.765c-0.423,0.047-0.845,0.093-1.246,0.126
	c-0.83,0.07-2.131,0.074-3.605,0.126c-0.721-0.005-1.463,0.032-2.198,0.095c-0.02-0.391,0.02-0.861-0.016-1.177
	c-0.094-0.816-0.2-1.588-0.242-2.413c-0.085-1.629-0.289-3.235-1.281-4.581c-1.132-1.536-4.365-1.835-4.719,0.616
	c-0.235,1.624,0.197,3.26,0.337,4.885c0.056,0.654,0.236,1.411,0.495,2.145c0.021,0.447,0.042,0.864,0.076,1.26
	c-1.289,0.177-2.794,0.411-4.304,0.774c-0.191-0.495-0.346-1.158-0.457-1.824c0.001-0.029-0.122-0.911-0.162-1.153
	c-0.077-0.472-0.171-0.942-0.276-1.409c-0.507-2.265-1.321-5.481-4.168-5.555c-1.011-0.027-2.34,0.814-2.492,1.898
	c-0.289,2.04,0.343,3.79,0.749,5.771c0.284,1.383,0.596,2.942,1.275,4.23c-0.193,0.059-0.386,0.116-0.579,0.175
	c-2.427,0.75-3.336,1.822-4.22-0.826C113.672,110.469,113.756,108.277,113.655,106.473z M163.487,117.203
	c1.725,0.538,3.448,1.156,5.189,1.957c-0.294,8.953,1.829,18.107,1.305,27.091c-0.299,5.135,0.446,10.552,0.834,15.698
	c0.351,4.664,0.123,9.503,1.148,14.084c0.201,0.898,0.447,1.721,0.731,2.501c-1.861-0.551-3.692-1-5.378-1.399
	c0.042-2.522-0.709-5.333-0.898-7.475c-0.585-6.612-1.185-13.227-1.734-19.839C163.813,139.327,165.714,127.637,163.487,117.203z
	 M156.24,142.661c-0.296-5.342-0.599-10.728-0.619-16.083c-0.014-3.655,0.399-7.947-0.374-11.676
	c2.306,0.667,4.557,1.221,6.799,1.868c-0.043,1.728-0.171,3.939-0.168,4.177c0.041,3.375-0.223,6.784-0.275,10.163
	c-0.1,6.497-0.429,12.992-0.009,19.472c0.404,6.253,0.723,12.524,1.135,18.766c0.123,1.874-0.05,4.459,0.241,6.811
	c-0.933-0.183-1.959-0.359-3.041-0.498c-0.612-0.191-1.239-0.351-1.872-0.494c0-0.015,0.004-0.028,0.004-0.045
	C157.807,164.277,156.838,153.468,156.24,142.661z M145.47,163.621c0-6.599,0.021-13.198,0.012-19.796
	c-0.013-9.737,1.556-19.921-0.077-29.558c0.729-0.052,1.457-0.107,2.187-0.147c1.59,0.723,4.357,0.437,5.617,0.528
	c0.114,0.008,0.231,0.019,0.346,0.028c-0.191,1.799-0.501,4.627-0.51,4.768c-0.146,2.733-0.114,5.486-0.176,8.221
	c-0.12,5.289,0.133,10.605,0.344,15.886c0.412,10.327,1.102,20.675,1.178,31.032c-2.807-0.281-5.709-0.248-8.543-0.086
	C146.093,170.923,145.47,166.761,145.47,163.621z M141.848,174.791c-1.28,0.109-2.526,0.224-3.723,0.325
	c-1.351,0.114-2.7,0.209-4.044,0.315c0.423-4.697-0.466-10.077-0.494-14.536c-0.038-6.03,0.096-12.13,0.568-18.138
	c0.699-8.899,2.066-18.662,1.122-27.655c2.056-0.193,4.082-0.485,5.837-0.564c0.697-0.031,1.383-0.082,2.071-0.128
	c0.198,10.433-1.202,21.005-1.229,31.476c-0.016,6.29-0.007,12.58-0.007,18.872C141.948,167.561,141.306,171.523,141.848,174.791z
	 M130.321,175.466c-2.039,0.137-4.029,0.468-5.649,0.802c-0.444-20.015,2.431-40.009,3.25-59.99c1.23-0.335,2.467-0.659,3.717-1.003
	c0.574,0.009,1.159-0.009,1.746-0.039c-1.099,9.451-1.708,18.841-2.468,28.357c-0.456,5.722-0.551,11.559-0.566,17.3
	C130.339,165.61,129.644,170.72,130.321,175.466z M121.207,177.058c-1.77,0.416-3.724,0.891-5.702,1.477
	c0.284-0.778,0.531-1.602,0.731-2.501c1.025-4.582,0.796-9.421,1.148-14.084c0.387-5.147,1.133-10.565,0.834-15.698
	c-0.525-8.983,1.598-18.138,1.305-27.091c2.038-0.937,4.051-1.627,6.071-2.226C123.789,136.975,120.9,156.891,121.207,177.058z
	 M106.594,200.166c-1.071-3.561-1.451-7.057-0.546-10.702c0.21-0.848,0.445-1.45,0.731-1.939c5.007-2.194,10.883-3.181,16.071-4.459
	c12.871-3.169,29.581-3.181,42.502,0c5.189,1.277,11.065,2.265,16.071,4.459c0.286,0.49,0.521,1.093,0.731,1.939
	c0.905,3.644,0.524,7.141-0.546,10.702c-0.66,2.192-1.357,4.64-2.22,6.735c-0.12,0.289-0.149,0.484-0.121,0.627
	c-0.92-0.481-2.407-1.593-2.907-1.844c-0.636-0.32-1.293-0.601-1.956-0.866c0.135-0.4,0.234-0.821,0.303-1.257
	c0.514-1.49,1.02-2.982,1.527-4.475c0.647-1.904,1.46-3.697,1.114-5.737c-0.249-1.465-2.422-2.381-3.626-1.476
	c-2.573,1.934-2.96,4.614-3.531,7.591c-0.196,1.018-0.576,2.475-0.72,3.83c-1.21-0.289-2.429-0.527-3.644-0.753
	c0.103-0.85,0.083-1.754,0.097-2.578c0.002-0.112,0.018-0.231,0.022-0.345c0.525-2.495,1.58-5.041,1.722-7.578
	c0.122-2.182-2.806-3.257-4.257-1.763c-1.472,1.516-2.05,3.792-2.234,5.852c-0.115,1.291-0.495,2.53-0.555,3.834
	c-0.001,0.015-0.045,1.438,0.045,1.532c-1.385-0.292-2.793-0.555-4.204-0.743c0.041-0.436,0.059-0.871,0.04-1.29
	c-0.041-0.89-0.069-1.652-0.001-2.478c0.405-1.818,0.952-3.332,0.657-5.232c-0.386-2.479-3.737-2.309-4.888-0.639
	c-1.111,1.612-1.491,4.624-1.628,6.57c-0.066,0.919-0.115,1.732-0.217,2.571c-1.599-0.265-3.25-0.46-4.915-0.569
	c0-0.048-0.008-0.095-0.007-0.143c-0.011-0.734,0.061-1.466,0.029-2.2c-0.007-0.15-0.022-0.31-0.043-0.477
	c0.016-0.202,0.041-0.393,0.053-0.607c0.076-1.452,0.485-3.224,0.013-4.633c-0.513-1.532-2.82-2.092-3.657-0.478
	c-0.953,1.841-0.771,3.72-0.782,5.725c-0.006,0.961-0.131,1.861-0.181,2.747c-1.073,0.046-2.14,0.134-3.192,0.274
	c-0.074-0.715-0.123-1.424-0.18-2.212c-0.137-1.945-0.518-4.958-1.628-6.57c-1.152-1.671-4.502-1.841-4.888,0.639
	c-0.296,1.901,0.252,3.414,0.657,5.232c0.068,0.826,0.04,1.588-0.001,2.478c-0.019,0.419-0.001,0.855,0.04,1.29
	c-1.411,0.188-2.819,0.451-4.204,0.743c0.089-0.094,0.046-1.517,0.045-1.532c-0.06-1.304-0.44-2.542-0.555-3.834
	c-0.184-2.06-0.762-4.337-2.234-5.852c-1.451-1.493-4.379-0.419-4.257,1.763c0.142,2.537,1.197,5.083,1.722,7.578
	c0.005,0.113,0.02,0.234,0.021,0.345c0.015,0.824-0.006,1.729,0.097,2.578c-1.216,0.224-2.435,0.464-3.644,0.753
	c-0.142-1.355-0.524-2.812-0.72-3.83c-0.572-2.977-0.958-5.656-3.531-7.591c-1.206-0.905-3.378,0.011-3.626,1.476
	c-0.346,2.04,0.466,3.832,1.114,5.737c0.507,1.492,1.013,2.985,1.527,4.475c0.069,0.437,0.168,0.857,0.303,1.257
	c-0.663,0.265-1.32,0.546-1.956,0.866c-0.5,0.251-1.986,1.363-2.907,1.844c0.028-0.144-0.001-0.338-0.121-0.627
	C107.951,204.805,107.254,202.358,106.594,200.166z M169.69,270.019c-0.378-6.264-0.677-12.577-1.178-18.831
	c-0.64-7.992-0.648-15.923-0.623-23.944c0.011-3.544-0.296-7.079-0.513-10.617c-0.163-2.656-0.918-5.133-1.296-7.705
	c5.622,1.374,10.083,2.947,9.8,4.579c-2.351,13.439-1.37,28.052-1.189,41.538c0.083,6.185,1.093,12.37,1.55,18.539
	c0.249,3.348-0.795,7.826-0.669,11.789c-1.294-0.326-2.592-0.625-3.902-0.855c-0.297-0.052-0.622-0.107-0.951-0.161
	C170.914,279.631,169.963,274.529,169.69,270.019z M154.236,206.457c3.234,0.607,6.889,1.313,10.263,2.09
	c-0.761,13.608-1.125,27.707,0.039,41.285c0.545,6.352,0.89,12.748,1.246,19.115c0.269,4.796,0.166,9.982,0.735,14.89
	c-1.922-0.127-3.916-0.075-5.639,0.393c-1.475-0.028-2.935-0.019-4.371-0.019c0.02-4.657-0.745-9.424-0.778-14.053
	c-0.053-7.707-0.387-15.367-0.552-23.055c-0.161-7.509-0.32-15.081,0.102-22.565C155.613,218.646,155.369,212.319,154.236,206.457z
	 M152.128,225.507c-0.668,7.084-0.353,14.478-0.324,21.595c0.053,12.376,0.249,24.731,0.981,37.073
	c-2.807-0.039-5.621-0.094-8.436-0.108c0.531-4.251,0.04-8.879-0.243-12.93c-0.46-6.591-1.39-13.164-1.598-19.787
	c-0.241-7.692,0.23-15.472,0.652-23.141c0.197-3.59,0.349-7.177,0.556-10.77c0.184-3.193-1.027-9.021,0.255-12.302
	c0.593-0.022,1.183-0.04,1.783-0.079c0.333-0.022,0.669-0.033,1.006-0.04c1.437,0.316,3.57,0.71,6.035,1.17
	C151.65,212.51,152.731,219.104,152.128,225.507z M123.948,283.789c-1.753-0.046-3.552,0.133-5.147,0.359
	c-0.02-12.269-0.081-24.533,0.876-36.76c0.514-6.573,0.882-13.154,1.293-19.729c0.377-6.034,1.086-12.506,0.406-18.551
	c2.935-0.741,6.239-1.429,9.385-2.04c-1.895,5.615-2.065,12.067-2.701,17.894c-0.89,8.153-1.444,16.364-2.193,24.534
	c-0.608,6.629-0.495,13.245-1.001,19.855C124.538,273.623,123.673,279.016,123.948,283.789z M112.318,213.5
	c-0.228-1.316,2.639-2.592,6.701-3.758c-2.667,24.913-3.544,49.943-3.612,74.994c-0.93,0.19-1.857,0.397-2.78,0.63
	c0.126-3.963-0.918-8.44-0.669-11.789c0.457-6.168,1.466-12.354,1.55-18.539C113.689,241.552,114.671,226.937,112.318,213.5z
	 M128.527,267.904c0.531-6.29,0.459-12.625,1.011-18.944c0.639-7.306,1.308-14.605,1.925-21.915
	c0.564-6.673,0.473-13.78,1.421-20.366c0.001-0.007-0.001-0.012,0-0.019c2.813-0.533,5.383-0.997,7.274-1.376
	c0.151-0.008,0.302-0.011,0.453-0.016c-0.265,1.502-0.093,3.122-0.088,4.664c0.012,3.973-0.234,7.883-0.393,11.841
	c-0.343,8.48-0.722,16.948-0.775,25.444c-0.046,7.331,0.547,14.725,1.26,22.01c0.452,4.627,0.122,10.013,0.851,14.846
	c-2.494,0.023-4.982,0.101-7.457,0.288c-1.803,0.136-3.576,0.247-5.325,0.363c-0.386-0.18-0.803-0.318-1.23-0.441
	C126.913,279.036,128.128,272.634,128.527,267.904z M97.756,316.588c-0.193,0.201-0.384,0.403-0.576,0.605
	c-0.377-1.055-0.763-2.107-1.161-3.155c-0.477-1.343-0.774-2.719-1.206-4.063c-0.896-2.788-3.068-5.898-2.172-8.977
	c0.917-3.151,5.109-5.593,8.008-6.619c0.12-0.042,0.245-0.076,0.369-0.113c0.25-0.063,0.499-0.127,0.75-0.171
	c0.861-0.148,1.723-0.278,2.586-0.403c0.934-0.102,1.875-0.204,2.769-0.394c1.648-0.239,3.294-0.504,4.922-0.883
	c2.457-0.572,5.043-1.167,7.663-1.612c4.142-0.279,8.245-0.333,12.442-0.519c6.241-0.276,12.457-0.33,18.718-0.365
	c2.128-0.012,4.251-0.093,6.372-0.174c0.377,0.344,0.854,0.56,1.338,0.511c5.795-0.598,12.01,0.865,17.576,2.159
	c1.628,0.379,3.274,0.643,4.922,0.883c0.893,0.19,1.835,0.292,2.769,0.394c0.864,0.124,1.727,0.255,2.586,0.403
	c0.251,0.043,0.5,0.108,0.75,0.171c0.123,0.036,0.249,0.07,0.369,0.113c2.897,1.026,7.091,3.468,8.008,6.619
	c0.896,3.079-1.275,6.189-2.172,8.977c-0.432,1.345-0.729,2.72-1.206,4.063c-0.398,1.047-0.784,2.099-1.161,3.155
	c-0.191-0.201-0.384-0.403-0.576-0.605c-0.904,0.09-1.921-0.022-2.969-0.22c0.615-1.286,0.951-2.691,1.249-4.166
	c0.464-2.29,1.437-4.647,0.87-6.98c-0.58-2.387-3.558-2.33-4.809-0.629c-1.139,1.55-1.507,3.571-1.836,5.416
	c-0.291,1.634-0.838,3.278-1.167,4.927c-0.16-0.036-0.326-0.08-0.479-0.11c-1.631-0.328-3.395-0.696-5.196-0.984
	c0.046-0.419,0.077-0.839,0.09-1.256c0.006-0.183,0.02-0.37,0.027-0.553c0.041-0.396,0.086-0.79,0.176-1.16
	c0.32-1.31,0.468-2.593,0.704-3.916c0.2-1.125,0.566-2.135,0.419-3.297c-0.373-2.954-3.959-3.455-5.084-0.688
	c-1.155,2.836-1.575,6.086-1.801,9.129c-0.041,0.547-0.106,0.938-0.191,1.281c-0.488,0.012-0.973,0.039-1.451,0.088
	c-1.543-0.128-3.071-0.243-4.586-0.365c0.163-1.026,0.243-2.032,0.257-3.05c0.67-2.42,0.925-4.999,0.497-7.232
	c-0.518-2.699-3.903-2.409-5.232-0.683c-0.758,0.985-0.896,2.823-1.119,4.063c-0.294,1.631,0.026,3.28-0.169,4.919
	c-0.047,0.399-0.156,0.862-0.282,1.357c-1.428-0.159-3.179-0.315-4.974-0.384c0.022-0.129,0.039-0.262,0.043-0.397
	c0.061-1.796-0.063-3.586,0.033-5.383c0.083-1.567-0.032-2.916-0.656-4.367c-0.829-1.921-3.307-1.277-4.286,0
	c-1.268,1.654-0.424,4.096-0.633,5.996c-0.144,1.305,0.013,2.308,0.141,3.594c-2.187,0.005-4.409,0.238-6.594,0.405
	c-0.417-2.95,0.311-6.161-1.356-8.846c-1.045-1.683-4.149-1.618-4.556,0.595c-0.315,1.709-0.033,3.077,0.333,4.749
	c0.059,0.268,0.103,0.533,0.153,0.798c-0.031,0.298-0.059,0.587-0.072,0.848c-0.034,0.668-0.055,1.331-0.012,1.973
	c-2.175,0.032-4.367,0.225-6.091,0.416c-0.127-0.495-0.235-0.958-0.282-1.357c-0.195-1.64,0.124-3.288-0.169-4.919
	c-0.223-1.24-0.36-3.078-1.119-4.063c-1.329-1.726-4.715-2.016-5.232,0.683c-0.428,2.232-0.174,4.812,0.497,7.232
	c0.014,1.017,0.094,2.024,0.257,3.05c-1.514,0.122-3.043,0.237-4.586,0.365c-0.478-0.049-0.963-0.075-1.451-0.088
	c-0.085-0.343-0.15-0.734-0.191-1.281c-0.225-3.043-0.646-6.292-1.801-9.129c-1.126-2.766-4.712-2.266-5.085,0.688
	c-0.147,1.161,0.22,2.172,0.419,3.297c0.236,1.323,0.383,2.606,0.704,3.916c0.09,0.369,0.135,0.763,0.176,1.16
	c0.007,0.184,0.021,0.37,0.027,0.553c0.013,0.416,0.045,0.837,0.09,1.256c-1.801,0.288-3.565,0.656-5.196,0.984
	c-0.153,0.031-0.319,0.074-0.479,0.11c-0.329-1.649-0.876-3.294-1.167-4.927c-0.329-1.844-0.696-3.866-1.836-5.416
	c-1.25-1.701-4.23-1.757-4.809,0.629c-0.566,2.334,0.407,4.69,0.871,6.98c0.298,1.475,0.634,2.881,1.249,4.166
	C99.678,316.566,98.66,316.678,97.756,316.588z M146.549,440.944c-0.322-6.162,0.129-12.242,0.055-18.42
	c-0.157-13.068,0.167-26.387-0.541-39.452c-0.627-11.572-1.199-23.205-1.354-34.803c-0.133-9.897,1.814-20.599,0.197-30.465
	c0.349,0.013,0.701-0.097,0.988-0.405c-1.282,1.372,2.549,0.345,2.78,0.329c2.099-0.153,4.168,0.094,6.25,0.288
	c0.558,0.052,1.848,0.163,3.574,0.325c-1.17,11.563-0.302,23.754-0.319,35.386c-0.02,13.301,0.351,26.544,0.317,39.85
	c-0.032,12.66-0.504,25.519,0.345,38.147c0.587,8.74,0.895,17.68,0.514,26.461c-1.583-0.002-3.169-0.013-4.762-0.038
	c-2.785-0.045-5.757-0.155-8.725-0.09c0.019-0.039,0.046-0.069,0.061-0.112C147.765,453.097,146.817,446.065,146.549,440.944z
	 M127.716,391.483c-0.622,11.858-0.75,23.711-1.395,35.572c-0.564,10.365-1.433,20.715-1.287,31.126
	c-3.106-0.014-6.21-0.043-9.34-0.045c-1.349-0.001-2.89,0.122-4.493,0.238c0.083-1.131,0.248-2.505,0.247-2.748
	c-0.013-2.92-0.006-5.839-0.008-8.759c-0.006-6.24,0.1-12.434,0.27-18.67c0.34-12.498,1.255-24.966,1.604-37.471
	c0.338-12.1,1.362-24.224,1.459-36.319c0.048-5.9,0.573-11.844,1.131-17.72c0.522-5.493,1.305-11.359,0.942-16.924
	c4.26-0.571,8.783-1.033,12.053-1.344C125.943,342.567,128.991,367.175,127.716,391.483z M131.007,391.483
	c1.128-24.338-2.106-49.001-0.027-73.259c1.082-0.099,1.885-0.169,2.295-0.207c2.083-0.194,4.152-0.44,6.251-0.288
	c0.232,0.018,4.062,1.044,2.78-0.329c0.31,0.332,0.697,0.432,1.073,0.393c-0.001,3.867-0.861,12.374-0.91,13.601
	c-0.225,5.603-0.576,11.273-0.593,16.876c-0.034,11.895,0.492,23.792,0.947,35.667c0.492,12.81,0.203,25.785,0.338,38.587
	c0.058,5.455-0.78,10.998-0.378,16.425c0.434,5.891-1.035,13.478,1.051,18.997c0.022,0.06,0.058,0.104,0.087,0.157
	c-3.49-0.164-7.033-0.006-10.316,0.046c-1.621,0.026-3.234,0.035-4.844,0.038C129.448,435.943,129.976,413.711,131.007,391.483z
	 M97.457,438.291c-0.021-5.478,0.808-10.872,0.614-16.343c-0.416-11.79,1.019-23.489,1.459-35.258
	c0.42-11.25,2.954-22.272,3.606-33.468c0.592-10.162,1.276-20.207,1.507-30.337c0.025-1.053,4.685-2.042,10.256-2.85
	c-3.092,24.096-5.075,48.704-5.021,72.971c0.027,12.469-1.538,24.878-1.683,37.336c-0.076,6.503-0.303,12.97-0.31,19.486
	c-0.002,2.666,0.161,5.378-0.063,8.028c-0.022,0.263-0.05,0.491-0.08,0.706c-4.501,0.106-8.81-0.56-10.273-4.784
	C95.776,448.886,97.475,443.3,97.457,438.291z M132.802,492.809c-0.004,2.611-0.133,5.093-0.426,7.698
	c-0.151,1.34-0.333,2.665-0.34,3.968c-4.146-0.744-8.289-1.195-12.448-1.415c0.025-1.696,0.046-3.395,0.041-5.093
	c-0.004-1.257-1.015-8.118-0.23-9.034c1.179-1.374,7.071,0.259,8.389,0.322c1.362,0.065,3.592-0.61,5.117-0.715
	C133.049,489.938,132.804,491.536,132.802,492.809z M179.669,494.747c-0.236,2.84-1.106,5.431-0.895,8.156
	c-4.243-0.074-8.453-0.005-12.65,0.305c0.197-2.254,0.387-4.502,0.42-6.783c0.058-3.925-0.236-8.628,1.996-12.097
	c3.036-4.717,9.861-3.821,11.26,1.518C180.49,488.483,179.893,492.053,179.669,494.747z M204.851,484.537
	c-0.223,2.699-1.135,5.208-1.55,7.843c-0.367,2.33-0.065,4.817-0.905,7.079c-0.66,1.775,0.429,1.357-1.506,2.275
	c-0.957,0.456-2.584,0.23-3.619,0.24c-4.462,0.036-8.981,1.006-13.408,1.033c1.793-9.316,1.345-28.862-11.99-25.695
	c-9.947,2.363-11.369,16.935-9.08,26.194c-2.324,0.245-4.647,0.568-6.971,0.994c-2.214,0.066-4.427,0.151-6.648,0.305
	c-4.253,0.295-8.447,0.185-12.631,0.104c-0.4-2.934,0.311-6.168,0.252-9.044c-0.055-2.711,0.519-6.411-0.222-9.017
	c-0.479-1.685-1.423-2.065-3.021-2.143c-1.193-0.059-2.569,0.502-3.785,0.574c-1.755,0.104-3.334-0.063-5.057-0.189
	c-4.125-0.302-8.818-0.592-9.151,4.433c-0.293,4.426-0.501,9.022,0.096,13.39c-3.363-0.075-6.74-0.035-10.143,0.086
	c-4.8,0.17-9.725-0.99-14.582-1.028c-1.035-0.008-2.663,0.216-3.619-0.24c-1.935-0.918-0.845-0.501-1.505-2.275
	c-0.841-2.262-0.538-4.749-0.905-7.079c-0.414-2.634-1.327-5.144-1.55-7.843c-0.238-2.884,0.378-5.727,0.269-8.618
	c-0.163-4.333,0.095-6.667,4.763-8.489c2.706-1.055,5.583-0.514,8.369-1.021c1.208-0.221,2.449-0.443,3.703-0.661
	c4.8,0.109,9.625,0.04,14.401,0.045c5.947,0.006,11.757,0.209,17.715,0.031c3.714-0.11,7.66,0.115,11.532-0.053
	c3.871,0.167,7.816-0.058,11.532,0.053c5.957,0.177,11.768-0.026,17.715-0.031c4.776-0.005,9.6,0.065,14.401-0.045
	c1.253,0.218,2.495,0.441,3.703,0.661c2.786,0.507,5.663-0.034,8.369,1.021c4.668,1.822,4.926,4.156,4.763,8.489
	C204.473,478.811,205.089,481.653,204.851,484.537z M226.361,490.69c-0.094,4.06-0.704,8.34-0.513,12.362
	c0.019,0.385,0.136,0.703,0.309,0.966c-2.489-0.08-4.968-0.112-7.512,0.002c-0.303,0.014-0.603,0.04-0.906,0.056
	c0.265-1.626,0.047-8.538,0.047-8.975c0-4.177-0.136-11.586,2.281-14.98c0.807-2.908,2.846-2.97,6.119-0.185
	c-0.004,0.693,0.046,1.382,0.147,2.065C226.951,484.631,226.423,487.991,226.361,490.69z M232.459,495.07
	c-0.092,2.958-0.906,6.336-0.371,9.163c-0.389-0.001-0.784-0.007-1.196-0.026c-0.513-0.023-1.019-0.045-1.527-0.067
	c0.191-0.283,0.303-0.643,0.282-1.088c-0.239-5.021,3.79-32.538-6.993-28.846c-5.194,1.779-6.438,6.606-7.011,11.543
	c-0.714,6.147-1.114,12.375,0.218,18.444c-2.118,0.141-4.232,0.303-6.349,0.448c1.401-3.154,1.297-7.226,1.634-10.461
	c0.335-3.211,1.038-6.397,1.173-9.643c0.252-6.092-0.068-15.669-3.992-21.147c4.164-0.129,8.415-0.767,12.22-0.769
	c3.313-0.001,8.594,0.625,12.883-0.056C233.236,473.404,232.795,484.238,232.459,495.07z M321.15,352.002
	c1.529-2.611,4.366-3.119,7.194-2.815c2.633,0.283,4.624,0.824,6.314,3.043c0.221,0.289,0.434,0.58,0.647,0.87
	c-3.86-0.231-7.745-0.247-11.756,0.175c-1.044,0.109-2.087,0.229-3.129,0.358C320.623,353.08,320.84,352.529,321.15,352.002z
	 M265.264,385.024c1.673-2.43,3.771-4.704,5.745-6.892c3.918-4.343,8.419-6.875,13.36-9.894c0.507-0.31,1.019-0.588,1.53-0.875
	c4.52-1.134,8.82-2.719,13.439-3.922c8.098-2.112,16.343-3.333,24.591-4.499c7.911-1.119,15.67-0.461,23.508,0.607
	c12.354,1.686,25.238,2.005,36.176,8.689c4.941,3.019,9.444,5.552,13.36,9.894c1.975,2.188,4.073,4.462,5.745,6.892
	c1.251,1.816,4.11,6.504,3.72,9.011c-0.357,2.301-2.929,1.541-5.269,1.7c-3.577,0.242-7.12,0.407-10.708,0.533
	c-6.034,0.212-12.023-0.029-18.043-0.055c-13.273-0.056-26.387-0.987-39.61-0.019c-1.878,0.137-3.813,0.075-5.731,0.107
	c-10.425-0.904-21.139-0.133-31.517-0.089c-6.02,0.026-12.009,0.268-18.043,0.055c-3.588-0.126-7.131-0.291-10.708-0.533
	c-2.341-0.158-4.912,0.601-5.27-1.7C261.154,391.528,264.013,386.84,265.264,385.024z M262.229,505.308
	c-0.868-0.068-1.736-0.123-2.603-0.215c-2.908-0.306-5.691-0.893-8.625-0.966c-0.22-0.006-0.456-0.006-0.686-0.007
	c-0.041-4.058-0.808-8.082-0.639-12.113c0.136-3.243,0.843-6.188,1.566-9.34c0.69-3.018,3.547-8.831,7.752-6.588
	c3.066,1.635,2.954,8.802,3.197,11.725c0.224,2.685-0.112,5.494-0.129,8.191C262.04,499.043,261.53,502.346,262.229,505.308z
	 M286.244,493.866c-0.085,3.598-0.821,7.842-0.605,11.678c-3.449,0.063-6.901,0.139-10.347,0.157
	c0.17-0.189,0.296-0.418,0.317-0.694c0.433-5.565-0.124-10.988-0.09-16.525c0.019-3.172-0.217-7.679,1.021-10.547
	c2.029-4.698,7.414-6.851,9.372-0.588c0.586,1.875,0.284,4.658,0.424,6.674C286.561,487.296,286.322,490.586,286.244,493.866z
	 M299.016,501.536c-0.276,2.2-0.383,3.709-2.666,3.959c-1.956-0.034-3.914-0.031-5.873-0.015c-0.255-3.396,0.369-7.464,0.305-10.567
	c-0.081-4.013-0.223-7.985-0.551-11.966c-0.512-6.213-0.019-12.958-7.792-13.481c-15.789-1.061-10.5,26.605-9.183,35.86
	c0.021,0.15,0.073,0.269,0.133,0.378c-2.211-0.004-4.42-0.035-6.626-0.124c0.081-2.868-0.325-5.857-0.345-8.703
	c-0.026-3.783,0.288-7.579-0.511-11.298c-1.222-5.694-2.077-14.632-9.569-14.906c-7.607-0.278-8.219,8.348-9.442,13.9
	c-1.415,6.419-1.085,13.149,0.403,19.554c-2.211,0.001-4.532-0.072-6.375-0.602c-2.424-0.697-2.411-0.484-2.269-3.277
	c0.074-1.456,0.389-2.887,0.459-4.34c0.153-3.171-0.115-6.452-0.198-9.625c-0.155-5.851-0.021-11.683,0.281-17.526
	c0.158-3.075,0.127-6.155,0.089-9.236c0.093-0.297,0.077-0.601-0.011-0.891c0-0.027,0-0.054-0.001-0.08
	c3.408,0.646,7.374,0.221,10.575,0.225c6.269,0.009,12.717,0.079,18.967-0.529c6.568-0.637,13.203-0.876,19.807-0.571
	c3.077,0.142,7.047,1.709,9.989,0.729c0.005,1.089-0.001,2.182,0.027,3.262c0.196,7.609,0.221,15.237,0.373,22.896
	c0.074,3.696-0.041,7.403,0.058,11.096c0.022,0.825,0.059,1.655,0.076,2.484C299.171,499.277,299.157,500.411,299.016,501.536z
	 M239.582,413.35c9.317-0.074,18.598-0.61,27.888-0.969c-1.143,6.844-0.52,14.164-0.612,21.033
	c-0.09,6.83-0.693,13.768,0.211,20.556c-0.039,0.004-0.077,0.006-0.116,0.011c-4.833,0.495-9.69,0.262-14.519,0.733
	c-3.203,0.313-6.409,0.306-9.623,0.501c-0.777,0.046-2.259,0.364-3.558,0.59c-0.007-1.833,0.008-3.664,0.089-5.493
	C239.868,438.504,241.586,425.196,239.582,413.35z M298.657,453.578c-4.785-0.173-9.355-0.709-14.233-0.608
	c-4.348,0.09-8.622,0.274-12.917,0.605c-0.249-7.099-0.433-14.205-0.51-21.316c-0.069-6.534,0.479-13.469-0.616-19.976
	c4.811-0.163,9.625-0.266,14.451-0.207c4.985,0.061,9.947-0.089,14.901-0.322c-0.56,3.837,0.168,8.26,0.124,11.979
	c-0.031,2.542,0.108,4.993,0.329,7.428C299.42,438.61,298.823,446.156,298.657,453.578z M350.698,497.883
	c0.453,2.671,0.771,5.224,1.584,7.296c-2.376,0.016-4.759,0.087-7.112-0.093c-5.313-0.406-10.731-0.115-16.064-0.097
	c-4.085,0.014-8.678-0.378-13.21-0.367c0.668-1.966,0.974-4.301,1.389-6.74c1.18-6.956,0.823-13.713,0.515-20.707
	c-0.369-8.394-2.572-17.216-2.499-25.627c1.777-0.564,3.853-0.234,5.347-1.43c1.882-1.505,1.39-3.514,1.391-5.729
	c0.001-4.505,0.221-8.72,2.837-12.64c0.768-1.149,1.664-2.045,2.621-2.836c2.632-0.789,4.447-3.173,7.481-2.84
	c0.587,0.065,1.188,0.108,1.787,0.159c2.302,1.619,4.629,2.957,6.339,5.518c2.617,3.92,2.836,8.136,2.837,12.64
	c0.001,2.215-0.491,4.224,1.391,5.729c1.495,1.196,3.57,0.865,5.347,1.43c0.073,8.41-2.131,17.232-2.499,25.627
	C349.875,484.17,349.517,490.927,350.698,497.883z M364.958,493.889c0.001,1.517,0.42,3.041,0.404,4.547
	c-0.02,1.945,0.035,6.134-2.165,6.627c-1.743,0.391-4.979-0.391-5.9-2.015c-1.061-1.868-1.067-5.301-1.416-7.423
	c-1.863-11.343-0.09-23.557,1.122-34.897c0.325-3.044,1.964-9.232,0.309-12.041c-0.796-1.35-2.563-1.741-3.959-2.023
	c-3.581-0.723-2.793-1.512-2.954-4.955c-0.25-5.324-0.965-9.274-4.382-13.477c-0.819-1.008-1.669-1.843-2.639-2.596
	c-1.091-3.016-5.349-3.995-8.247-4.398c-2.566-0.356-6.174,0.853-8.321,2.984c-0.236,0.11-0.477,0.234-0.73,0.387
	c-1.654,1.006-2.903,2.132-4.114,3.622c-3.416,4.204-4.132,8.153-4.382,13.477c-0.162,3.443,0.626,4.232-2.954,4.955
	c-1.395,0.282-3.162,0.673-3.957,2.023c-1.656,2.811-0.018,8.999,0.308,12.042c1.213,11.339,2.985,23.553,1.122,34.896
	c-0.349,2.123-0.356,5.555-1.416,7.423c-0.578,1.017-2.202,1.489-3.235,1.792c-1.829,0.536-2.593,0.804-3.318-1.077
	c-1.203-3.127-1.112-6.667-1.109-9.875c0.004-4.534,0.045-9.054-0.2-13.581c-0.377-6.997-0.43-14.272-0.24-21.264
	c0.34-12.482,2.158-25.204,1.221-37.723c0.047-2.732,0.174-6.633-0.457-9.742c9.911-0.546,19.798-1.363,29.762-1.601
	c0.338-0.008,0.63-0.086,0.88-0.21c0.25,0.123,0.542,0.202,0.88,0.21c9.965,0.238,19.851,1.055,29.762,1.601
	c-0.63,3.108-0.505,7.01-0.457,9.742c-0.938,12.519,0.879,25.241,1.22,37.723c0.191,6.992,0.137,14.267-0.24,21.264
	C364.914,484.834,364.955,489.355,364.958,493.889z M368.251,411.754c4.954,0.234,9.917,0.384,14.901,0.322
	c4.824-0.06,9.638,0.045,14.45,0.207c-1.095,6.507-0.547,13.442-0.616,19.976c-0.076,7.111-0.259,14.217-0.509,21.316
	c-4.296-0.331-8.569-0.515-12.917-0.605c-4.878-0.101-9.448,0.436-14.233,0.608c-0.167-7.422-0.764-14.968-1.529-22.417
	c0.222-2.435,0.359-4.886,0.329-7.428C368.082,420.014,368.811,415.591,368.251,411.754z M382.344,505.544
	c0.216-3.837-0.519-8.079-0.605-11.678c-0.078-3.281-0.317-6.57-0.092-9.846c0.139-2.016-0.163-4.799,0.424-6.674
	c1.958-6.263,7.343-4.109,9.372,0.588c1.24,2.869,1.003,7.376,1.021,10.547c0.034,5.536-0.524,10.96-0.09,16.525
	c0.021,0.276,0.148,0.505,0.317,0.694C389.244,505.683,385.793,505.607,382.344,505.544z M417.667,504.119
	c-0.23,0.001-0.467,0.001-0.686,0.007c-2.934,0.074-5.717,0.66-8.625,0.966c-0.866,0.092-1.735,0.147-2.602,0.215
	c0.7-2.962,0.188-6.266,0.167-9.317c-0.019-2.697-0.353-5.506-0.13-8.191c0.243-2.922,0.13-10.09,3.197-11.725
	c4.205-2.241,7.061,3.57,7.752,6.588c0.723,3.152,1.43,6.099,1.566,9.34C418.474,496.038,417.709,500.062,417.667,504.119z
	 M427.057,503.524c-1.843,0.531-4.164,0.603-6.375,0.602c1.487-6.405,1.816-13.134,0.403-19.554
	c-1.223-5.552-1.835-14.178-9.442-13.9c-7.492,0.274-8.347,9.212-9.569,14.906c-0.798,3.72-0.485,7.516-0.511,11.298
	c-0.02,2.846-0.426,5.835-0.345,8.703c-2.206,0.089-4.414,0.121-6.625,0.124c0.059-0.109,0.11-0.228,0.131-0.378
	c1.317-9.256,6.606-36.922-9.183-35.86c-7.773,0.522-7.28,7.268-7.792,13.481c-0.328,3.982-0.47,7.955-0.551,11.966
	c-0.063,3.103,0.561,7.172,0.305,10.567c-1.959-0.016-3.916-0.02-5.872,0.015c-0.817-0.089-1.64-0.14-2.465-0.178
	c0.04-0.717-0.066-1.459-0.274-2.177c-0.035-0.12-0.06-0.241-0.086-0.363c0.4-1.485,0.191-3.017,0.151-4.631
	c-0.114-4.513-0.081-9.068,0.008-13.583c0.153-7.659,0.176-15.288,0.373-22.896c0.028-1.08,0.022-2.174,0.027-3.262
	c2.942,0.98,6.912-0.587,9.989-0.729c6.605-0.305,13.239-0.067,19.807,0.571c6.25,0.608,12.698,0.539,18.968,0.529
	c3.2-0.005,7.166,0.42,10.575-0.225c-0.04,3.405-0.096,6.809,0.079,10.207c0.302,5.843,0.436,11.675,0.281,17.526
	c-0.085,3.174-0.351,6.454-0.198,9.625c0.07,1.452,0.385,2.884,0.459,4.34C429.468,503.04,429.482,502.827,427.057,503.524z
	 M428.639,450.312c0.081,1.83,0.096,3.662,0.089,5.493c-1.3-0.225-2.782-0.544-3.558-0.59c-3.214-0.195-6.42-0.188-9.623-0.501
	c-4.829-0.471-9.685-0.237-14.519-0.733c-0.039-0.004-0.077-0.006-0.116-0.011c0.904-6.789,0.302-13.726,0.211-20.556
	c-0.09-6.869,0.533-14.189-0.61-21.033c9.29,0.358,18.571,0.895,27.888,0.969C426.396,425.196,428.115,438.504,428.639,450.312z
	 M429.001,408.829c-6.222-0.559-12.857-0.128-19.114-0.269c-12.263-0.276-24.729-0.109-36.985-0.74
	c-12.724-0.655-25.271-1.813-38.031-1.878c-0.338-0.001-0.63,0.067-0.88,0.182c-0.25-0.116-0.542-0.184-0.88-0.182
	c-12.759,0.066-25.307,1.223-38.031,1.878c-12.256,0.63-24.722,0.465-36.985,0.74c-6.257,0.141-12.891-0.29-19.114,0.269
	c-1.129,0.101-1.377,0.549-1.527,0.332c0.02,0.028,0.336-2.948,0.676-3.334c1.525-1.728,7-1.464,9.354-1.585
	c6.192-0.317,12.506-0.775,18.707-0.889c0.155-0.002,0.297-0.018,0.448-0.023c5.819,0.436,11.842,0.194,17.549-0.036
	c7.934-0.32,15.749-1.484,23.704-1.491c5.276-0.005,10.581-0.122,15.852-0.553c2.991,0.458,6.194,0.27,9.063,0.147
	c2.312-0.1,4.852-0.2,7.313-0.56c6.617,0.769,13.314,0.959,19.965,0.966c7.955,0.008,15.771,1.17,23.704,1.491
	c5.706,0.23,11.729,0.472,17.549,0.036c0.151,0.005,0.295,0.02,0.45,0.023c6.202,0.114,12.516,0.572,18.707,0.889
	c2.354,0.121,7.83-0.143,9.354,1.585c0.34,0.387,0.656,3.363,0.676,3.334C430.378,409.378,430.13,408.93,429.001,408.829z"/>
<path d="M359.491,425.31c0.007-0.046,0.028-0.085,0.029-0.133c0.052-2.562-0.006-7.119-1.34-9.299
	c-0.842-1.375-1.853-1.754-3.483-1.909c-3.592-0.343-11.108,0.23-13.737,3.211c-0.5,0.567-0.531,1.37,0,1.93
	c3.476,3.672,7.977,5.846,10.434,10.452c1.937,3.63,2.389,8.481,5.073,11.654c0.349,0.412,1.115,0.622,1.622,0.428
	c3.34-1.277,2.461-6.024,2.323-8.93C360.292,430.187,359.944,427.738,359.491,425.31z M357.094,435.093
	c-0.46-0.818-0.866-1.539-0.96-1.826c-1.155-3.505-2.686-7.191-5.33-9.878c-1.962-1.993-4.642-3.338-6.782-5.153
	c2.444-1.398,6.382-1.118,8.787-1.228c2.841-0.13,2.421-0.594,3.043,1.909c0.157,0.633,0.286,1.281,0.424,1.925
	c-0.015,3.092,0.499,6.235,0.694,9.28c0.09,1.409-0.062,2.937,0.134,4.331C357.1,434.668,357.096,434.88,357.094,435.093z"/>
<path d="M418.031,421.233c-3.253-0.055-6.376-1.385-9.696-1.134c-1.914,0.146-2.329,0.85-2.735,2.6
	c-0.824,3.554-0.73,7.443-0.799,11.081c-0.053,2.798-0.608,7.276,0.675,9.959c1.145,2.395,3.446,2.695,5.804,2.753
	c2.579,0.063,6.743,1.654,8.844-0.184c2.127-1.861,1.428-6.6,1.607-9.082c0.294-4.058,1.226-8.362,0.136-12.378
	C421.311,422.801,420.248,421.27,418.031,421.233z M418.154,441.409c-0.776,3.085-3.585,1.762-6.212,1.581
	c-1.516-0.104-2.221,0.326-3.099-1.074c-0.595-0.949-0.595-2.302-0.682-3.406c-0.275-3.53,0.04-7.043,0.304-10.558
	c0.153-2.027-0.722-3.993,1.982-4.507c1.248-0.237,2.342,0.472,3.555,0.567c1.429,0.112,3.359-0.299,4.354,0.986
	c1.372,1.773,0.274,5.5,0.27,7.535C418.618,435.284,418.833,438.71,418.154,441.409z"/>
<path d="M380.296,445.808c2.443,0.336,7.671,2.417,9.846,0.29c2.116-2.069,0.837-7.417,0.784-10.03
	c-0.047-2.313-0.107-4.759-0.358-7.158c0.325-2.112-0.052-4.289,0.627-6.33c0.183-0.552-0.019-1.244-0.433-1.639
	c-1.591-1.514-4.379-0.839-6.473-1.155c-2.019-0.304-6.132-0.734-7.899,0.591c-1.836,1.375-1.706,5.457-1.809,7.502
	c-0.211,4.182-0.437,8.827,0.371,12.956C375.62,444.258,376.903,445.34,380.296,445.808z M378.431,425.031
	c1.412-3.07,4.816-1.662,7.277-1.479c2.877,0.215,1.851,2.501,2.108,4.609c0.102,2.125,0.026,4.313-0.043,6.297
	c-0.056,1.607-0.159,3.212-0.211,4.818c-0.055,1.702,0.527,3.382-1.042,3.882c-0.487,0.155-4.412-0.87-4.973-1.024
	c-1.752-0.48-2.378-0.72-3.034-2.285c-1.094-2.612-0.359-6.824-0.373-9.649C378.134,428.716,377.794,426.415,378.431,425.031z"/>
<g>
</g>
<g>
</g>
<g>
</g>
<g>
</g>
<g>
</g>
<g>
</g>
<g>
</g>
<g>
</g>
<g>
</g>
<g>
</g>
<g>
</g>
<g>
</g>
<g>
</g>
<g>
</g>
<g>
</g>
</svg>
