<?xml version="1.0" encoding="iso-8859-1"?>
<!-- Generator: Adobe Illustrator 19.0.0, SVG Export Plug-In . SVG Version: 6.00 Build 0)  -->
<svg version="1.1" id="Layer_1" xmlns="http://www.w3.org/2000/svg" xmlns:xlink="http://www.w3.org/1999/xlink" x="0px" y="0px"
	 viewBox="0 0 511.997 511.997" style="enable-background:new 0 0 511.997 511.997;" xml:space="preserve">
<path style="fill:#D6B096;" d="M490.046,188.654c-6.113,5.828-13.527,9.795-21.176,13.219c-3.507,1.57-7.34,3.904-11.037,4.902
	c-3.451,0.932-6.481-0.289-9.426,2.77c-3.841,3.991-1.918,9.56-1.932,14.457c-0.012,4.057-0.019,8.115,0.004,12.172
	c0.021,3.582,0.363,7.277,0.025,10.842c-0.386,4.082-2.818,11.68,2.327,13.679c1.928,0.749,4.1,0.467,6.104-0.045
	c3.205-0.821,5.758-1.44,9.049-1.295c14.075,0.623,28.826-1.233,42.257,4.034c4.501,5.558,4.842,14.713,1.127,20.892
	c-3.475,5.781-12.401,2.986-17.754,2.424c-1.316-0.138-2.831-0.209-3.758,0.735c-0.627,0.64-0.806,1.582-0.937,2.469
	c-0.849,5.703-0.557,11.15-0.351,16.853c0.199,5.52-0.246,11.084-0.034,16.625c0.172,4.505,0.229,8.267-0.78,12.624
	c-0.694,2.996-1.159,10.325,2.886,10.7c1.986,0.185,4.027,0.188,5.898,0.879c4.76,1.756,5.272,7.489,3.914,11.647
	c-26.098,5.434-53.293,4.668-80.328,5.157c-27.993,0.508-56.177,0.916-84.099-0.011c-0.882-0.03-1.802-0.052-2.603,0.318
	c-1.712,0.788-2.198,2.941-2.513,4.8c-0.935,5.517-4.864,6.191-9.766,6.942c-5.236,0.803-10.564,0.832-15.847,0.662
	c-17.633-0.568-35.235-2.281-52.867-2.621c-10.21-0.197-20.444,1.54-30.685,2.094c-7.342,0.396-14.749,0.757-22.049,0.164
	c-2.788-0.227-4.788-1.6-7.318-2.43c-2.239-0.735-4.69-0.587-5.267-3.583c-0.218-1.135,0.019-2.339-0.328-3.442
	c-0.467-1.483-1.947-2.487-3.479-2.748c-1.605-0.273-3.111,0.322-4.672,0.386c-1.637,0.068-3.408-0.176-5.071-0.187
	c-32.449-0.211-64.897-0.533-97.346-0.702c-10.852-0.056-21.677-0.922-32.485-1.833c-4.994-0.421-10.357-1.401-15.292-0.872
	c-3.549,0.38-7.282-0.644-8.751-4.309c-1.423-3.549,0.593-8.103,4.203-9.364c2.377-0.831,5.283-0.43,7.152-2.118
	c2.617-2.363,1.895-8.294,2.155-11.508c0.38-4.68,0.52-9.377,0.515-14.071c-0.011-9.668-0.639-19.323-1.236-28.968
	c-7.69-2.02-15.201-3.992-23.735-6.234c0-6.504,0-12.863,0-20.317c19.138-7.984,39.503-3.067,59.964-6.434
	c3.607-15.505,1.578-30.679,1.397-46.105c-10.813-5.113-20.842-9.628-30.663-14.557c-12.209-6.128-13.302-11.851-3.598-21.841
	c16.204-16.681,34.885-30.178,57.993-34.75c49.176-9.726,98.206-10.36,146.016,7.562c14.593,5.471,28.454,5.014,43.011-0.349
	c47.864-17.633,96.895-17.044,146.027-6.929c23.085,4.752,41.51,18.614,57.662,35.315
	C485.458,179.358,487.052,183.632,490.046,188.654z"/>
<g>
	<path style="fill:#4E967A;" d="M240.622,151.222c-2.8-2.783-8.002-3.678-11.746-4.599c-6.588-1.62-13.249-3.203-19.852-4.767
		c-16.96-4.019-35.004-6.472-52.413-6.931c-24.653-0.651-49.96,0.443-73.537,8.314c-8.728,2.915-16.773,6.99-24.744,11.517
		c-5.971,3.392-13.617,7.115-17.819,12.75c-1.338,1.795-2.789,4.186-0.915,6.174c3.027,3.21,13.601,1.732,17.433,1.88
		c8.133,0.315,16.204,2.176,24.069,4.168c8.28,2.096,17.009,3.306,24.933,6.49c7.295,2.933,14.576,5.955,21.778,9.098
		c14.447,6.303,26.758,15.496,41.935,20.371c7.976,2.562,15.614,5.141,23.931,6.323c3.401,0.484,7.047,1.07,10.28-0.457
		c3.401-1.606,3.619-4.167,4.979-7.358c4.015-9.425,8.77-18.734,13.493-27.824c3.343-6.434,6.701-12.782,10.597-18.903
		C235.895,162.958,239.686,158.354,240.622,151.222z"/>
	<path style="fill:#4E967A;" d="M254.485,161.619c-10.958,9.159-15.761,26.1-20.441,39.071c-2.196,6.087-4.115,12.227-6.333,18.314
		c-1.785,4.896-1.669,5.732,3.795,5.964c16.498,0.696,33.847,3.414,50.375,1.117c4.035-0.561,5.781-0.923,5.106-5.285
		c-0.905-5.846-5.103-11.634-7.209-17.155c-3.079-8.067-7.876-15.363-11.342-23.317
		C266.674,176.283,262.085,161.695,254.485,161.619z"/>
	<path style="fill:#4E967A;" d="M285.678,145.33c-5.602,2.006-14.299,2.526-12.486,9.781c2.183,8.738,8.425,18.036,12.919,25.84
		c5.524,9.592,11.115,19.46,15.605,29.546c3.923,8.812,7.853,10.893,17.294,9.773c8.137-0.966,15.904-2.002,23.669-4.935
		c8.612-3.252,16.579-7.91,24.809-11.969c16.143-7.962,31.786-16.124,49.006-21.739c14.457-4.714,29.837-6.944,45.044-6.491
		c2.79,0.083,9.817,2.177,11.911-0.676c2.526-3.442-5.482-8.962-7.966-10.751c-10.573-7.619-23.393-12.059-34.997-17.751
		c-14.979-7.348-30.316-8.726-46.76-10.08c-18.715-1.542-36.491-0.419-55.128,1.405c-8.295,0.812-16.657,2.322-24.783,4.219
		C297.44,142.988,291.103,145.749,285.678,145.33z"/>
</g>
<g>
	<path style="fill:#3D7C61;" d="M132.415,135.878c-19.226,0-37.569,2.204-55.286,10.12c-9.988,4.462-19.875,10.292-29.004,16.318
		c-3.998,2.639-11.065,7.031-11.893,12.175c6.361,1.851,13.618-0.585,20.351,0.401c8.812,1.29,17.57,2.529,26.139,4.963
		c15.873,4.511,31.354,10.429,46.608,16.438c12.73,5.014,24.062,13.649,37.047,18.225c6.567,2.314,13.725,3.487,20.465,5.169
		c7.004,1.749,16.622,5.068,19.987-4.019c2.905-7.844-3.505-15.231-9.712-18.947c-10.606-6.349-21.567-11.474-31.541-18.981
		c-9.571-7.204-17.485-16.565-17.989-28.809C147.119,137.556,144.78,138.744,132.415,135.878z"/>
	<path style="fill:#3D7C61;" d="M236.486,198.044c-1.767,6.533-11.698,15.351-10.487,22.563c0.891,5.303,14.951,4.491,19.711,4.604
		c11.169,0.263,22.308-0.11,33.392,0.002c2.394,0.024,6.476,0.826,7.597-1.149c1.993-3.51-3.195-9.984-4.911-12.442
		c-2.098-3.005-3.518-8.123-6.776-9.455c-3.104-1.269-9.445,0.05-12.776-0.081C255.229,201.811,248.099,201.219,236.486,198.044z"/>
	<path style="fill:#3D7C61;" d="M294.507,195.282c5.839,6.17,8.872,19.779,16.567,23.843c5.029,2.656,12.489,0.489,17.485-1.154
		c11.493-3.779,22.78-8.22,34.318-11.995c24.368-7.972,47.828-19.071,72.471-26.604c9.229-2.821,19.206-3.559,28.723-4.686
		c1.758-0.208,6.817-0.071,7.304-2.431c1.011-4.898-13.133-4.663-15.232-4.831c-30.241-2.409-60.394,1.898-88.887,12.309
		c-12.635,4.617-25.266,9.603-38.85,10.412C321.244,190.571,304.725,184.316,294.507,195.282z"/>
</g>
<path style="fill:#5E626D;" d="M213.026,251.392c1.485-4.503,2.761-9.269,5.503-13.228c7.794,3.541,16.775,1.182,24.876,2.528
	c9.13,1.516,19.799,3.7,28.881,1.49c5.638-1.371,15.287-6.256,20.834-2.48c4.202,2.861,5.359,13.471,7.453,18.126
	c5.779,0.45,15.252,2.957,20.641-0.151c7.5-4.324-3.715-15.216-4.441-20.166c5.095-0.593,9.845,2.898,15.515,1.964
	c9.639-1.589,19.625-4.284,28.579-8.2c9.301-4.068,18.608-7.984,27.724-12.37c8.273-3.981,15.617-9.792,24.736-11.844
	c7.266-1.636,12.224-0.197,19.083,1.766c7.683,2.2,15.536,4.4,22.982,0.516c5.269-2.749,10.473-5.808,15.844-8.471
	c3.734-1.851,12.819-5.479,15.271-9.048c2.685-3.911-6.415-12.373-10.336-15.208c-6.042-4.367-16.321-1.837-23.297-1.134
	c-23.497,2.364-45.274,7.43-66.032,18.891c-9.696,5.354-20.132,10.552-30.645,14.239c-7.948,2.788-15.853,5.402-23.688,8.415
	c-5.189,1.995-14.801,6.613-20.482,4.836c-6.036-1.889-8.239-9.843-10.586-15.067c-3.885-8.65-8.034-17.378-12.332-25.891
	c-5.05-10.002-12.263-18.96-17.243-28.828c-2.597-1.081-11.207-0.672-13.171,1.868c-4.06,5.249,4.565,15.794,6.573,20.159
	c5.125,11.138,9.231,22.786,14.973,33.619c1.884,3.553,7.73,10.079,5.122,14.334c-2.546,4.153-16.614,2.925-20.89,3.143
	c-9.225,0.471-18.609,0.847-27.889,0.488c-2.868-0.111-6.845-0.316-9.389-1.731c-4.906-2.728-2.602-3.418-0.402-6.661
	c6.859-10.111,9.3-24.197,14.795-35.365c2.889-5.874,17.128-19.75,13.892-26.272c-1.941-3.91-9.011-3.942-12.568-2.763
	c-4.843,1.605-8.629,6.58-10.85,10.949c-4.607,9.06-8.543,18.332-12.363,27.708c-2.503,6.144-5.581,11.549-9.006,17.207
	c-2.032,3.358-3.55,7.755-6.451,10.48c-6.675,6.27-29.534-2.32-36.762-5.188c-7.63-3.028-15.106-4.76-22.264-9.036
	c-7.085-4.233-13.736-9.345-21.462-12.401c-17.74-7.017-37.498-12.898-56.581-14.829c-10.774-1.09-21.22-0.829-29.617-3.683
	c-4.015,2.86-10.908,7.137-12.381,12.153c-1.43,4.871,2.694,9.216,6.513,11.936c7.631,5.435,16.977,7.91,26.029,9.762
	c9.227,1.887,18.131-0.131,27.485-1.503c13.403-1.967,25.826,5.689,37.209,11.078c9.858,4.667,20.157,8.27,30.276,12.31
	c6.879,2.747,13.896,3.874,21.073,5.51c3.272,0.745,6.504,2.188,9.784,2.777c4.782,0.859,10.889-0.38,8.556,5.845
	c-1.268,3.382-7.516,8.523-5.31,12.77c0.882,1.698,7.048,2.29,8.844,2.551c3.299,0.479,7.25,0.676,10.464,0.002
	C210.514,258.361,211.846,254.972,213.026,251.392z"/>
<g>
	<path style="fill:#4F525B;" d="M240.03,151.59c-9.162,14.558-16.377,31.008-23.556,46.645c-3.664,7.981-7.876,18.592-14.152,24.88
		c-5.039,5.047-13.657,4.777-20.245,4.833c-22.175,0.186-42.851-11.972-62.089-21.515c-20.956-10.396-42.659-19.11-65.781-23.046
		c-6.695-1.14-14.234-2.499-20.999-0.928c-2.607,0.604-7.117,1.982-8.28,4.833c-0.905,2.22,1.127,3.555,3.352,5.099
		c3.235,2.244,6.365,4.767,9.678,6.805c5.9,3.63,11.844,7.434,18.415,9.715c9.535,3.309,19.256,1.861,28.865-0.585
		c13.036-3.318,25.485,3.37,37.242,8.563c9.363,4.136,18.681,8.156,28.491,11.102c8.102,2.434,16.435,4.051,24.526,6.386
		c4.385,1.265,8.769,2.105,13.29,2.542c2.528,0.245,6.415,0.21,6.614,3.404c0.107,1.721-1.869,3.47-2.699,4.823
		c-1.401,2.283-2.677,4.808-3.562,7.338c-1.392,3.982,1.128,3.408,4.393,4.161c6.092,1.405,7.221-1.266,10.079-6.749
		c8.83-16.941,15.522-34.989,23.642-52.263c6.308-13.419,12.1-27.075,18.396-40.493C247.901,152.34,247.268,151.316,240.03,151.59z"
		/>
	<path style="fill:#4F525B;" d="M218.974,240.202c0.162-2.074,0.995-6.687,2.515-8.208c2.296-2.296,6.77,0.086,9.746,0.641
		c16.344,3.048,33.67,0.553,50.129-0.656c1.651-0.122,6.15-0.634,7.233-1.99c1.172-1.466-0.197-4.694-0.811-6.083
		c-3.314-7.495-7.427-14.517-10.608-22.071c-5.386-12.786-10.094-26.423-16.82-38.558c-1.273-2.295-6.164-7.676-0.943-9.071
		c3.259-0.872,6.068,3.579,7.303,6.059c3.309,6.647,6.507,13.314,10.221,19.761c9.186,15.95,15.646,32.634,23.196,49.347
		c3.324,7.358,5.561,15.121,13.132,19.148c2.363,1.257,15.193,3.26,9.656,8.216c-2.619,2.345-8.944,1.305-12.086,1.306
		c-3.4,0.001-7.84,0.743-11.1-0.343c0.464-3.831-0.255-6.815-1.964-10.39c-1.009-2.11-2.266-5.532-4.354-6.8
		c-2.181-1.326-3.639-0.189-5.877,0.39c-6.671,1.727-14.9,1.942-21.792,1.937C250.248,242.821,234.472,241.008,218.974,240.202z"/>
	<path style="fill:#4F525B;" d="M327.179,238.448c11.464-1.285,21.483-2.612,32.207-7.174c11.095-4.721,21.933-10.108,32.997-14.935
		c11.391-4.97,23.725-12.859,36.347-7.809c18.845,7.541,37.01-4.263,52.655-13.67c3.248-1.953,8.515-4.755,5.835-9.052
		c-3.453-5.538-12.736-5.784-18.304-5.854c-33.482-0.418-62.583,18.821-91.95,32.15c-17.323,7.864-35.962,12.258-54.227,17.301
		c-3.245,0.896-8.925,0.629-7.572,4.87c0.627,1.965,2.695,3.327,4.116,4.465C323.041,241.755,322.684,238.951,327.179,238.448z"/>
</g>
<g>
	<path style="fill:#E2E2E2;" d="M184.758,259.796c-6.406,1.021-13.31,0.157-19.8,0.438c-11.063,0.48-22.196,0.146-33.271,0.146
		c-17.636,0-35.256,0.154-52.865-0.007c-22.863-0.208-45.909,0.063-68.661,1.826c-3.596,0.279-3.521,0.11-4.225,3.143
		c-1.099,4.734-1.482,10.27-1.301,15.108c0.074,1.989-0.542,7.482,1.702,8.543c0.573,0.271,3.275-0.452,3.957-0.531
		c2.83-0.329,5.621-0.24,8.463-0.366c18.977-0.841,38.029,0.101,57.011-0.666c21.129-0.853,42.233-0.45,63.366-0.438
		c14.851,0.008,30.304-0.666,45.055-2.323c5.82-0.654,7.052-9.747,6.745-14.872c3.465-0.355,7.337,0.575,10.912,0.533
		c4.591-0.053,9.219,0.123,13.819-0.073c3.754-0.16,13.286,1.159,15.771-1.691c1.137-1.304,1.663-6.101,0.932-7.681
		c-1.211-2.619-4.961-1.801-7.619-1.691C212.025,259.722,199.166,259.685,184.758,259.796z"/>
	<path style="fill:#E2E2E2;" d="M289.161,257.749c-2.816,0.007-9.229-0.853-10.534,1.807c-0.56,1.142-0.132,4.956,0.363,6.11
		c0.903,2.105,1.075,1.564,3.079,2.051c3.199,0.777,6.753,0.116,10.01,0.252c4.553,0.189,9.034,0.609,13.603,0.6
		c4.837-0.009,9.643,0.618,14.434,0.629c0.228,4.378,0.377,11.583,5.12,13.035c8.081,2.473,17.436,2.974,25.789,3.898
		c9.43,1.044,18.887,1.855,28.362,2.358c7.821,0.416,15.406,1.016,23.046-0.801c7.851-1.867,16.592-0.485,24.624-0.557
		c9.524-0.085,19.045-0.418,28.57-0.433c15.692-0.023,31.465,0.098,47.14,0.6c4.573,0.146,5.369-0.2,5.956-4.981
		c0.58-4.728,0.051-10.202-1.097-14.797c-0.737-2.951-0.772-4.334-3.496-5.102c-3.67-1.036-8.485-0.406-12.287-0.571
		c-1.928-0.084-3.857-0.159-5.786-0.227c-9.445-0.333-19.23,0.35-28.611-0.517c-9.576-0.884-18.233-2.594-27.927-1.019
		c-13.573,2.206-27.054,1.171-40.843,1.015c-14.998-0.17-29.997-0.453-44.997-0.428C325.922,260.7,308.319,257.429,289.161,257.749z
		"/>
	<path style="fill:#E2E2E2;" d="M61.215,345.786c13.094,0.128,26.224-0.303,39.333-0.303c13.736,0,27.376,0.476,41.156,0.066
		c9.698-0.289,19.375,0.091,29.062,0.446c2.719,0.1,9.315-0.672,11.916,0.945c4.335,2.695,2.474,16.901-2.017,18.55
		c-2.378,0.873-7.237-0.121-9.791-0.122c-9.128-0.001-18.319,0.324-27.436-0.065c-24.68-1.054-49.56-1.095-74.268-1.394
		c-10.765-0.131-21.483-1.239-32.191-2.268c-5.19-0.498-10.529-1.338-15.745-1.349c-2.906-0.006-5.642,1.07-6.027-2.739
		c-0.142-1.4-0.489-7.195,0.271-8.299c2.331-3.38,10.096-2.665,13.675-2.904C39.818,345.638,50.537,345.681,61.215,345.786z"/>
	<path style="fill:#E2E2E2;" d="M340.047,346.068c-3.03-0.831-7.418-0.268-10.374,0.878c-3.603,1.397-1.982,2.383-1.399,5.877
		c0.405,2.427-0.154,8.29,1.45,10.219c1.305,1.569,3.244,0.646,5.105,0.558c13.931-0.664,28.058,0.016,42.004,0.016
		c15.882,0,31.773-1.096,47.661-0.6c14.972,0.467,29.967,0.382,44.91-0.506c7.939-0.471,16.287-0.272,24.125-1.462
		c2.068-0.314,2.243-0.231,2.976-1.805c0.769-1.654,0.865-7.508-0.001-9.171c-1.132-2.175-1.848-1.239-4.621-1.357
		c-8.094-0.341-16.5-1.49-24.57-2.346c-22.684-2.409-45.657-1.444-68.44-1.472c-11.166-0.013-22.293,0.334-33.456,0.286
		C358.078,345.151,350.533,346.049,340.047,346.068z"/>
	<path style="fill:#E2E2E2;" d="M444.743,223.24c-3.862-1.102-8.727-0.29-12.772-0.656c-5.26-0.477-10.48-0.514-15.796-0.514
		c-4.138,0-7.101-1.066-8.053,4.08c-0.36,1.948-1.649,5.02-0.793,6.955c1.381,3.124,6.552,2.006,9.512,2.096
		c9.281,0.279,18.571,0.206,27.851,0.569c0.723-3.381,0.793-7.928,0.614-11.449C445.059,224.123,444.775,224.055,444.743,223.24z"/>
	<path style="fill:#E2E2E2;" d="M353.792,236.401c-0.512,1.068-0.052,3.06,0.007,4.468c0.154,3.686-0.163,7.395-0.018,11.082
		c0.111,2.832,0.409,5.641,0.64,8.418c3.024-1.023,6.988,1.086,9.77-0.433c3.219-1.758,0.738-7.73,0.707-11.224
		c-0.038-4.413,1.376-11.424-0.287-15.597c-0.686-1.723,0.238-1.266-1.639-1.673C361.001,231.013,355.996,233.374,353.792,236.401z"
		/>
	<path style="fill:#E2E2E2;" d="M147.617,230.259c0.665,5.002-0.933,12.363-1.173,17.893c-0.137,3.158-0.896,7.36,0.054,10.442
		c3.154-0.864,6.319,1.447,9.392,0.907c3.894-0.685,2.406-7.384,2.572-10.853c0.157-3.292,1.62-9.527,0.571-12.698
		C157.946,232.663,152.557,232.983,147.617,230.259z"/>
	<path style="fill:#E2E2E2;" d="M66.024,223.24c4.88-1.695,12.075-0.404,17.304-0.878c4.373-0.396,8.669-0.583,13.11-0.585
		c8.416-0.003,7.982,5.431,7.268,12.836c-9.494-0.769-19.348,0.543-28.911,0.912c-1.585,0.061-6.641,1.058-7.576,0.121
		C65.62,234.042,66.261,225.828,66.024,223.24z"/>
</g>
<g>
	<path style="fill:#425993;" d="M182.71,284.362c-6.815-0.226-14.132,1.038-20.959,1.463c-9.492,0.591-18.976,1.133-28.438,2.049
		c-18.129,1.756-36.211,1.493-54.388,0.882c-13.69-0.46-27.342-0.593-41.051-0.593c-2.434,0-7.026-0.915-9.363,0.009
		c-2.181,0.862-1.444,2.746-1.317,5.709c0.668,15.592,0.154,31.371,1.625,46.854c0.134,1.415-0.142,3.351,1.065,4.31
		c2.065,1.643,8.61,0.805,11.075,0.739c14.728-0.385,29.444-0.332,44.175-0.304c17.587,0.033,35.195-0.382,52.795-0.299
		c9.737,0.046,19.527,0.51,29.26,0.859c4.174,0.149,8.359-0.092,12.534,0.018c1.982,0.052,4.305,0.743,6.183-0.053
		c0.816-3.718,0.579-8.023,0.827-11.864c0.516-8.004,1.315-15.988,1.806-23.986c0.453-7.371,0.822-14.853,0.902-22.237
		c0.011-0.985,0.562-4.348-0.049-5.061C188.173,281.44,182.994,283.699,182.71,284.362z"/>
	<path style="fill:#425993;" d="M361.648,284.663c-10.214-0.207-20.514,0.123-30.65-1.113c-1.521-0.186-5.97-1.2-7.302,0.148
		c-2.073,2.099,0.739,9.342,1.079,11.957c1.566,12.061,0.983,24.827,1.237,36.97c0.043,2.063-0.398,8.499,1.264,10.117
		c1.63,1.587,9.103,0.616,11.324,0.694c22.305,0.775,44.452,2.049,66.815,2.047c18.343-0.002,36.816-0.987,55.135-1.819
		c5.17-0.235,10.177-0.24,15.306,0.504c2.781,0.404,4.575,1.516,6.466-0.572c2.898-3.202,1.318-9.895,1.024-13.641
		c-0.397-5.051-0.744-10.225-0.592-15.301c0.163-5.427-0.921-11.732,0.073-17.043c0.496-2.652,3.827-7.821,0.495-9.899
		c-2.227-1.389-5.497,0.175-7.89,0.166c-3.224-0.012-6.487-0.6-9.754-0.589c-14.726,0.054-29.527-0.484-44.241-1.1
		c-13.689-0.573-27.378-0.211-41.064-0.878C374.132,285.009,367.893,284.79,361.648,284.663z"/>
</g>
<g>
	<path style="fill:#5E626D;" d="M190.606,270.617c-0.035,22.69-4.992,45.38-5.834,68.074c-0.303,8.187-1.199,16.403-1.185,24.599
		c0.009,4.929-1.204,9.799,4.226,11.746c7.876,2.824,18.364,2.375,26.481,1.012c4.099-0.688,9.305,0.114,10.82-4.061
		c1.554-4.282,1.05-9.103,1.16-13.552c0.162-6.591,1.058-13.222,1.509-19.807c0.914-13.354-0.076-26.632,0.249-39.967
		c0.157-6.452,0.827-12.88,0.883-19.341c0.023-2.606,1.174-7.657-1.793-9.016c-1.121-0.513-4.53-0.375-5.853-0.515
		c-3.338-0.35-6.703-0.25-10.056-0.61C205.153,268.53,197.795,267.616,190.606,270.617z"/>
	<path style="fill:#5E626D;" d="M284.774,270.617c2.025,3.811-0.098,12.682-0.259,17.04c-0.343,9.301,0.2,18.415,0.267,27.691
		c0.083,11.686,0.544,23.377,0.577,35.032c0.013,4.644-0.297,9.237-0.291,13.873c0.002,2.003-0.976,7.183,0.06,8.968
		c1.162,2.002,4.354,1.287,6.247,1.517c4.143,0.504,8.103,1.649,12.314,2.027c6.23,0.56,13.407,0.205,19.486-0.803
		c2.722-0.451,3.692-0.454,4.525-3.33c1.39-4.795,0.945-10.646,0.944-15.598c-0.004-11.553-0.101-23.558-1.168-35.059
		c-1.049-11.319-3.034-22.468-4.064-33.748c-0.463-5.074-0.478-10.356-1.192-15.378c-0.28-1.97-0.448-3.276-2.203-3.991
		c-2.978-1.213-9.298-0.016-12.432,0.146C300.553,269.368,292.846,268.806,284.774,270.617z"/>
</g>
<g>
	<path style="fill:#4F525B;" d="M190.314,269.154c0.23,8.969-1.773,18.104-1.754,27.152c0.02,9.621-1.253,19.128-1.755,28.725
		c-0.538,10.281-1.835,20.428-2.575,30.694c-0.361,4.994-1.641,12.6,0.959,17.263c2.541,4.554,12.406,3.341,16.913,3.208
		c4.441-0.131,14.328-0.364,14.194-6.266c-0.037-1.605-1.221-4.129-1.616-5.644c-1.099-4.223-1.939-8.482-2.873-12.745
		c-2.094-9.549-3.36-19.03-4.395-28.744c-1.397-13.102-4.307-27.571-1.023-40.537c1.553-6.126,3.582-12.075-4.435-13.419
		C198.803,268.313,194.201,268.648,190.314,269.154z"/>
	<path style="fill:#4F525B;" d="M285.066,269.154c-0.043,21.299-0.684,42.407,0.065,63.694c0.293,8.323,0.193,16.613-0.076,24.93
		c-0.132,4.07-0.901,10.458,0.988,14.171c1.74,3.418,6.925,3.696,10.341,3.954c3.726,0.281,13.478,1.368,16.125-1.936
		c2.072-2.584,0.539-9.145,0.177-12.127c-1.042-8.572-3.562-17.028-4.889-25.591c-2.284-14.743-5.781-29.473-5.773-44.475
		c0.003-6.3,1.753-15.449-2.948-20.763C295.924,267.45,290.854,269.836,285.066,269.154z"/>
</g>
<g>
	<path style="fill:#C1C1C1;" d="M3.733,272.079c11.079,1.41,21.864,2.841,33.13,3.144c28.843,0.776,57.653,0.845,86.505,0.94
		c16.736,0.054,34.236,2.471,50.706-1.509c4.593-1.11,9.921-3.423,14.735-2.815c1.358,3.008,0.705,7.39-2.026,8.894
		c-3.652,2.011-8.446,1.944-12.487,2.248c-10.615,0.798-21.299,0.779-31.929,1.301c-22.777,1.119-45.526,3.266-68.301,4.211
		c-18.821,0.781-37.607-0.626-56.43-0.62c-2.949,0.001-7.77,0.725-10.389-1.163C4.161,284.488,5.205,278.698,3.733,272.079z"/>
	<path style="fill:#C1C1C1;" d="M15.138,356.012c3.179-1.905,7.283-1.505,10.841-1.691c7.807-0.408,15.644-0.906,23.469-0.591
		c17.922,0.723,35.884,0.179,53.853,0.819c17.965,0.64,35.983-0.145,53.939,0.65c5.568,0.247,11.045-0.074,16.609-0.065
		c2.335,0.003,5.12,0.407,7.34-0.249c2.834,2.327,2.078,8.214-0.849,9.315c-1.514,0.57-4.299,0.003-5.95,0
		c-3.863-0.008-7.698,0.255-11.559,0.292c-9.062,0.09-18.107,0.562-27.177,0.584c-32.822,0.08-65.676-1.646-98.442-2.987
		C35.081,362.002,11.207,363.894,15.138,356.012z"/>
	<path style="fill:#C1C1C1;" d="M323.378,271.787c3.818,0.03,7.681,0.582,11.507,0.812c12.026,0.724,24.076,0.044,36.11,0.416
		c27.473,0.847,55.079,2.346,82.564,2.289c14.276-0.03,28.42-0.641,42.609-2.134c3.548-0.373,8.712-1.524,11.322,1.836
		c1.887,2.428,1.342,9.463-0.747,11.638c-1.605,1.67-3.996,1.32-6.171,1.243c-5.967-0.211-11.844-0.06-17.816-0.009
		c-16.383,0.141-32.747-0.3-49.125-0.299c-15.514,0.001-30.981,1.167-46.491,1.17c-16.417,0.002-33.056-0.874-49.352-2.909
		c-3.669-0.458-12.096,0.06-15.036-2.335C320.166,281.4,320.646,275.192,323.378,271.787z"/>
	<path style="fill:#C1C1C1;" d="M328.056,354.257c9.032-0.125,18.209,1.018,27.323,0.892c18.391-0.255,36.797,0.629,55.212,0.292
		c25.658-0.468,51.283-1.77,76.938-1.77c2.943,0,10.376-1.752,8.362,3.338c-2.357,5.954-13.556,5.053-18.298,5.363
		c-30.967,2.025-61.774,2.487-92.762,2.712c-15.115,0.11-30.323-0.634-45.41-0.323c-2.852,0.059-7.367,0.961-10.058-0.425
		C326.146,362.681,326.66,357.778,328.056,354.257z"/>
	<path style="fill:#C1C1C1;" d="M68.656,229.089c6.752,0.874,13.376-0.07,20.205-0.664c4.532-0.394,10.047-1.571,14.551-1.054
		c-0.156,2.425,2.563,4.558-0.418,6.822c-2.834,2.154-10.564,1.517-13.964,1.848c-5.715,0.557-12.273,1.954-17.899,1.153
		C65.524,236.4,66.571,234.012,68.656,229.089z"/>
	<path style="fill:#C1C1C1;" d="M149.371,231.722c-2.515,7.64-2.63,19.09-2.295,27.439c0.764,0.187,2.654,1.288,3.259,1.175
		c1.954-0.363,2.711-4.259,3.109-6.079C155.176,246.329,154.329,238.943,149.371,231.722z"/>
	<path style="fill:#C1C1C1;" d="M353.499,235.523c-0.151,0.144,0.316,3.827,0.314,4.991c-0.008,4.123-0.478,8.224-0.321,12.363
		c0.08,2.096-0.361,7.669,2.683,8.044c5.337,0.657,4.072-9.846,4.049-12.192C360.204,246.597,359.563,229.578,353.499,235.523z"/>
	<path style="fill:#C1C1C1;" d="M409.064,224.41c-0.859,2.044-2.804,6.851-1.793,9.31c1.059,2.573,2.925,1.685,5.559,1.796
		c9.018,0.377,18.02,1.345,27.107,0.884c4.359-0.221,8.972-4.797,2.577-6.425c-5.555-1.414-11.445-1.73-17.154-1.764
		C422.018,228.19,411.185,228.062,409.064,224.41z"/>
</g>
<g>
	<path style="fill:#B79279;" d="M225.7,240.202c2.37,1.888,9.333,1.273,12.387,1.43c6.059,0.312,12.078,0.621,18.148,0.618
		c11.37-0.007,22.477-1.315,33.789-2.025c7.764-0.487,7.042,12.005,9.263,17.31c-1.711,0.872-4.453,0.865-6.385,1.027
		c-3.093,0.258-9.031-1.544-11.64-0.241c-2.905,1.451-2.611,11.213,0.053,12.459c-5.213-0.781-10.83-0.35-16.166-0.6
		c-8.101-0.38-16.219-0.546-24.313-1.024c-3.798-0.224-6.961,1.385-7.889-2.253c-0.672-2.636,0.344-6.458-0.872-8.735
		c-2.959,0.806-7.326-0.354-10.524-0.089c-3.92,0.325-7.98,0.718-11.905,0.504c1.778-5.081,4.927-12.772,8.45-16.624
		C220.874,238.92,222.438,240.217,225.7,240.202z"/>
	<path style="fill:#B79279;" d="M65.732,213.589c0.677-0.36-0.075,5.827-0.056,6.042c0.434,4.974,8.423,3.237,12.054,3.023
		c3.156-0.186,6.216-0.59,9.395-0.585c4.369,0.007,9.646-1.02,13.7,0.879c3.207,1.502,5.094,9.768,1.989,12.223
		c-1.695,1.34-8.865,0.48-10.86,0.579c-5.242,0.261-10.47,0.241-15.701,0.658c-2.411,0.193-7.568-0.651-8.786,1.699
		c-0.675,1.303-0.309,5.397-0.43,6.955c-0.236,3.015-1.399,8.944-0.08,11.811c1.864,4.053,10.19,2.332,13.969,2.188
		c7.975-0.302,16.056,0.681,24.059,0.741c7.905,0.061,15.856,0.663,23.758,0.297c2.708-0.125,5.195-0.961,7.878-1.17
		c2.44-0.19,6.728,0.771,8.677-1.22c0.743-0.758,1.2-6.063,0.571-7.001c-0.909-1.355-2.585-0.753-4.256-0.508
		c-6.505,0.952-16.218-5-20.626-9.616c-2.136-2.237-6.124-7.152-5.499-10.441c1.834-9.651,17.326,2.871,21.14,4.447
		c2.969,1.226,6.813,2.574,9.25,4.715c3.704-4.999,0.177-9.896-4.428-12.484c-4.004-2.25-8.554-3.302-12.762-5.106
		c-4.858-2.083-9.133-4.62-13.622-7.357c-6.975-4.254-15.036-7.268-23.338-6.209C84.194,209.112,73.74,209.333,65.732,213.589z"/>
	<path style="fill:#B79279;" d="M160.192,242.835c3.216,4.02,13.509,4.072,18.152,5.036c6.104,1.267,9.006,2.063,12.116-3.903
		c3.015-5.782-2.722-4.618-7.433-4.642c-7.266-0.038-14.55-2.048-21.7-3.184C160.343,238.026,159.976,241.4,160.192,242.835z"/>
	<path style="fill:#B79279;" d="M349.698,236.693c-6.641,0.523-13.276,1.01-19.886,1.184c-3.065,0.081-8.091,1.28-10.777,2.677
		c1.237,4.311,3.972,8.443,4.912,12.808c0.375,1.739-0.258,4.619,1.107,6.09c1.45,1.564,4.771,1.181,6.789,1.213
		c4.388,0.069,8.671-1.451,13.043-0.832c2.024,0.287,3.842,0.961,5.833-0.055c1.758-0.899,3.137-3.039,1.86-4.983
		c-2.378-3.619-11.065-1.826-14.775-3.167c-5.321-1.924-5.573-6.16,0.06-7.636c4.514-1.183,9.367-0.413,13.835-1.793
		C351.821,239.899,352.216,236.911,349.698,236.693z"/>
	<path style="fill:#B79279;" d="M365.198,232.014c0,7.585-1.039,15.801,0.065,23.267c1.089,7.363,11.459,4.22,17.072,4.223
		c12.701,0.009,25.443-0.681,38.082,0.292c5.792,0.446,22.36,3.37,24.845-3.703c2.738-7.792-8.386-7.013-13.05-7.278
		c-12.487-0.712-26.427,1.129-38.594-2.421c-8.042-2.346-9.747-10.238-4.514-16.561c3.365-4.066,8.951-7.645,13.682-9.937
		c8.972-4.346,20.464-3.794,30.103-2.652c2.752,0.326,9.714,1.753,12.182-0.263c1.799-1.47,1.802-4.898-0.236-5.979
		c-1.452-0.771-5.49-0.297-7.089-0.343c-3.64-0.106-7.208-0.033-10.795-0.855c-5.031-1.152-9.039-3-14.241-1.613
		c-10.695,2.851-21.639,7.633-31.613,12.422C374.37,223.842,363.539,224.476,365.198,232.014z"/>
	<path style="fill:#B79279;" d="M232.596,271.053c2.027-0.495,4.8-0.745,6.503,0.746c0.967,0.847,0.675,2.367,1.423,3.121
		c0.761,0.767,3.12,0.927,4.144,1.092c2.829,0.456,5.706,0.455,8.562,0.547c6.157,0.197,12.365,0.245,18.49,0.952
		c3.53,0.408,8.263,0.134,11.508,1.72c2.23,1.09-0.371,1.867-1.782,2.167c-2.614,0.556-5.673,0.615-8.233-0.203
		c-2.379-0.759-4.502-0.813-7.017-0.895c-6.072-0.198-12.134-0.615-18.207-0.802c-3.012-0.093-10.173-1.143-6.769,4.174
		c0.598,0.932,2.902,1.807,3.932,2.025c2.372,0.5,4.827,0.263,7.225,0.243c7.176-0.059,14.312,0.011,21.488,0.142
		c1.754,0.032,8.37-1.094,8.828,1.608c0.416,2.45-3.62,2.209-5.036,2.208c-8.759-0.01-17.523-0.411-26.267-0.395
		c-2.635,0.006-5.24-0.391-7.847-0.395c-3.135-0.006-2.182,3.166-1.471,5.323c0.82,2.484,4.615,1.919,6.727,1.928
		c6.203,0.024,12.39-0.181,18.594-0.127c1.201,0.01,18.001-1.036,16.221,3.552c-0.762,1.965-9.272,0.833-10.55,0.792
		c-4.824-0.152-9.639-0.334-14.464-0.505c-4.143-0.146-8.289-0.471-12.432-0.556c-1.976-0.04-3.413-0.396-3.236,1.829
		c0.124,1.561-0.022,3.858,1.636,4.697c2.43,1.229,6.425,1.094,9.076,1.124c5.628,0.064,11.229-0.414,16.848-0.401
		c2.74,0.007,5.509-0.116,8.246,0.007c1.27,0.058,3.084,0.134,4.028,1.127c1.348,1.418-0.055,2.496-1.501,2.811
		c-3.572,0.78-8.028,0.411-11.657,0.405c-3.81-0.006-7.4-0.208-11.173-0.563c-2.77-0.261-5.498-0.831-8.282-1.006
		c-1.402-0.089-3.104-0.288-4.473,0.135c-1.913,0.591-0.965,2.233-0.737,3.923c0.168,1.254,0.963,1.785,2.141,2.171
		c2.136,0.702,4.466,0.344,6.668,0.413c4.896,0.154,9.799,0.218,14.699,0.343c4.336,0.111,9.255-0.137,13.51,0.86
		c1.789,0.419,2.252,1.341,0.409,2.289c-2.699,1.388-7.317,0.528-10.221,0.528c-4.536,0-8.985-0.141-13.499-0.557
		c-1.621-0.149-3.241-0.29-4.869-0.345c-1.488-0.051-4.64-0.497-5.935,0.466c-1.341,0.998,1.238,4.804,2.418,5.715
		c1.947,1.502,4.701,1.709,7.067,1.742c4.613,0.063,9.235-0.134,13.85-0.007c2.566,0.071,5.132,0.142,7.697,0.222
		c1.42,0.044,3.478-0.181,4.843,0.391c1.337,0.561,1.792,1.54,0.406,2.263c-2.528,1.318-6.869,0.613-9.606,0.647
		c-4.366,0.055-8.728,0.312-13.064-0.388c-2.533-0.408-5.864-1.736-8.456-1.327c-2.517,0.398-0.162,2.71,0.536,4.045
		c0.518,0.994,0.636,2.092,1.547,2.814c1.591,1.265,4.244,1.22,6.163,1.12c4.126-0.214,8.21-0.342,12.337-0.209
		c0.874,0.028,12.678,0.124,9.382,2.912c-1.896,1.604-5.947,0.74-8.129,0.562c-3.589-0.293-7.317-0.345-10.864-0.955
		c-1.578-0.271-3.517-0.872-5.112-0.487c-2.798,0.675,0.357,3.199,1.163,4.546c0.91,1.522,0.988,3.5,2.976,3.939
		c2.604,0.573,5.82-0.515,8.549-0.279c1.706,0.147,12.933-0.452,11.455,2.969c-0.735,1.7-2.907,1.383-4.386,1.306
		c-2.395-0.126-4.793-0.318-7.184-0.402c-0.723-0.025-2.927-0.333-3.127,0.557c-0.378,1.679,5.428,4.95,6.526,5.801
		c2.747,2.131,5.468,4.318,7.863,6.848c2.098,2.217,5.084,5.934,3.436,9.208c-1.085,2.157-3.498,1.986-5.537,1.804
		c-6.639-0.594-13.18-1.311-19.84-1.745c-9.391-0.611-18.881,1.202-28.286,1.272c-2.193,0.017-4.85-0.34-6.201-2.261
		c-1.132-1.611-0.744-3.426-0.522-5.279c1.055-8.803,2.603-17.7,2.648-26.587c0.063-12.442-0.751-24.889-0.809-37.321
		c-0.049-10.597,1.711-21.068,1.723-31.627C229.302,270.231,231.634,271.288,232.596,271.053z"/>
</g>
<g>
	<path style="fill:#344B7A;" d="M180.745,343.055c-8.132-2.303-19.18,0.387-27.618,0.373c-12.188-0.021-24.397-0.203-36.563,0.331
		c-20.396,0.895-40.396,3.102-60.849,2.69c-6.979-0.141-19.061,3.725-24.801-1.809c-6.014-5.799-3.618-20.056-3.625-27.637
		c-0.007-5.815-0.251-11.336-0.553-17.105c-0.198-3.791,0.975-8.934-0.128-12.485c5.725-2.387,15.541-0.986,21.664-0.764
		c16.131,0.588,32.087,0.061,48.197-0.041c25.097-0.158,50.232-0.896,75.218-3.366c6.693-0.662,18.897-1.65,17.522,8.517
		c-1.488,10.993-13.699,5.872-20.888,5.838c-4.718-0.022-10.062,1.825-14.845,2.308c-5.109,0.518-10.239,0.819-15.355,1.265
		c-15.316,1.336-30.671,1.556-45.826,4.455c-7.059,1.35-14.328,3.255-20.628,6.783c-2.936,1.644-9.302,4.936-9.968,8.788
		c-2.085,12.081,41.789,8.212,48.325,8.212c13.514,0,27.032,0.413,40.535,0.377c9.224-0.024,19.745-1.513,28.67,1.248
		c4.258,1.317,9.301,3.777,7.818,8.894C185.743,344.431,181.091,344.369,180.745,343.055z"/>
	<path style="fill:#344B7A;" d="M323.134,283.665c-1.462,3.54,0.132,9.019,0.452,12.79c0.596,7.042,1.584,14.083,2.306,21.119
		c0.858,8.352,2.37,16.387,2.777,24.751c0.415,8.565,10.128,3.79,16.667,3.209c20.058-1.782,40.232-1.6,60.379-1.387
		c17.834,0.188,35.634,1.028,53.416,1.827c5.447,0.245,10.861-0.442,16.297-0.336c2.077,0.04,6.38,0.958,7.9-0.714
		c4.537-4.99-4.702-10.841-8.157-12.122c-7.587-2.814-15.987-2.598-23.958-2.657c-9.952-0.074-19.97-0.176-29.912-0.631
		c-14.779-0.676-29.482-2.836-44.183-4.321c-5.553-0.561-11.125-0.497-16.671-1.118c-4.997-0.559-14.115-0.208-18.234-4.004
		c-12.527-11.545,27.964-19.026,33.229-19.795c23.976-3.501,48.278-4.295,72.5-3.718c5.971,0.142,12.194-0.062,18.069,0.549
		c5.615,0.584,11.114,2.051,16.793,0.888c-0.082-2.832,2.498-6.701,0.663-9.238c-1.476-2.042-5.968-2.194-8.167-2.513
		c-8.221-1.192-16.561-0.732-24.835-0.741c-18.817-0.02-37.545,1.481-56.366,1.483c-14.269,0.001-28.396-0.011-42.583-1.496
		c-5.136-0.538-10.093-1.339-15.171-2.059C331.051,282.677,328.24,284.772,323.134,283.665z"/>
</g>
<path d="M511.48,265.075c-1.586-6.537-11.708-5.909-16.707-6.535c-4.909-0.613-9.795-0.644-14.724-0.641
	c-5.101,0.002-10.119-0.635-15.228-0.609c-5.377,0.029-10.916,0.579-16.268,0.151c0.581-2.809-0.237-6.955-0.27-9.512
	c-0.053-4.121-0.164-8.246-0.125-12.367c0.044-4.777-0.123-9.704,0.077-14.461c0.126-2.989,0.454-5.566,0.165-8.374
	c2.665-0.494,5.241-1.2,7.665-2.178c6.358-2.567,12.782-5.76,18.976-8.683c7.161-3.379,18.958-6.853,15.576-16.871
	c-2.148-6.36-7.731-11.65-12.56-15.978c-10.905-9.773-23.554-19.465-37.127-25.091c-13.452-5.576-27.188-7.931-41.619-9.544
	c-7.452-0.832-15.083-2.043-22.593-2.009c-7.49,0.033-14.716,0.287-22.187-0.204c-3.593-0.236-7.324,0.496-10.935,0.58
	c-3.897,0.091-7.786,0.293-11.672,0.604c-7.691,0.615-15.33,1.76-22.893,3.283c-7.033,1.418-14.08,2.836-20.972,4.845
	c-3.444,1.004-6.851,2.149-10.168,3.521c-2.886,1.194-5.369,3.116-8.439,3.898c-2.366,0.603-4.759-0.187-7.142,0.316
	c-1.729,0.366-3.866,1.075-5.446,1.984c-0.32,0.185-0.601,0.378-0.865,0.577c-0.264-0.199-0.546-0.393-0.865-0.577
	c-1.579-0.91-3.717-1.618-5.446-1.984c-2.383-0.505-4.776,0.287-7.142-0.316c-3.07-0.781-5.552-2.705-8.438-3.898
	c-3.317-1.372-6.723-2.518-10.168-3.521c-6.893-2.009-13.939-3.428-20.972-4.845c-7.562-1.524-15.202-2.668-22.893-3.283
	c-3.885-0.311-7.775-0.513-11.672-0.604c-3.611-0.085-7.343-0.816-10.935-0.58c-7.471,0.49-14.697,0.237-22.187,0.204
	c-7.511-0.033-15.141,1.176-22.593,2.009c-14.431,1.612-28.168,3.967-41.619,9.544c-13.573,5.627-26.222,15.319-37.127,25.091
	c-4.829,4.328-10.412,9.617-12.56,15.978c-3.382,10.016,8.415,13.491,15.576,16.871c6.194,2.923,12.618,6.115,18.976,8.683
	c2.424,0.978,5,1.683,7.665,2.178c-0.289,2.808,0.039,5.386,0.165,8.374c0.2,4.757,0.033,9.683,0.077,14.461
	c0.039,4.121-0.072,8.246-0.125,12.367c-0.033,2.556-0.85,6.703-0.27,9.512c-5.352,0.428-10.891-0.121-16.268-0.151
	c-5.108-0.027-10.127,0.611-15.227,0.609c-4.929-0.003-9.815,0.027-14.724,0.641c-4.999,0.625-15.121-0.002-16.707,6.535
	c-0.988,4.074-0.298,10.065-0.066,14.251c0.165,2.993,0.062,7.328,2.389,9.528c2.518,2.38,6.471,1.585,9.591,1.616
	c4.593,0.045,9.187,0.131,13.781,0.196c-1.498,7.187-0.536,15.317-0.012,22.446c0.665,9.052-0.969,17.966-0.563,27.02
	c0.064,1.422,0.174,3.161,0.674,4.69c-0.679-0.001-1.36-0.004-2.045-0.02c-5.105-0.118-10.375-0.635-11.524,5.314
	c-0.682,3.535-1.777,9.607,1.241,12.331c3.406,3.074,11.246,1.809,15.392,2.137c16.202,1.278,32.647,1.89,48.917,1.868
	c16.318-0.023,32.699,1.73,49.02,1.791c9.39,0.035,18.744-0.634,28.091-0.68c4.711-0.023,9.306-0.046,14.007-0.365
	c3.814-0.258,7.575,0.359,11.354-0.334c0.051-0.01,0.102-0.03,0.153-0.043c-0.116,2.862-0.589,6.443,1.275,8.705
	c4.611,5.6,16.841,4.122,23.129,4.151c3.98,0.019,8.198,0.538,12.131-0.204c2.731-0.515,7.107-0.627,9.291-2.593
	c0.12-0.107,0.218-0.241,0.328-0.361c2.577,0.473,5.503-0.037,8.093,0.176c5.985,0.492,12.141,0.67,18.144,0.755
	c5.525,0.079,11.122,0.374,16.646,0.724c4.745,0.3,11.008,1.072,15.439-0.925c0.072-0.032,0.138-0.076,0.206-0.12
	c2.271,1.71,6.343,1.855,8.944,2.345c3.933,0.74,8.153,0.221,12.131,0.204c6.288-0.029,18.518,1.449,23.129-4.151
	c1.864-2.262,1.391-5.843,1.275-8.705c0.051,0.014,0.102,0.034,0.153,0.043c3.779,0.692,7.541,0.075,11.354,0.334
	c4.701,0.319,9.296,0.343,14.007,0.365c9.348,0.045,18.701,0.715,28.091,0.679c16.321-0.061,32.703-1.814,49.02-1.791
	c16.269,0.023,32.715-0.59,48.917-1.868c4.147-0.328,11.987,0.937,15.392-2.137c3.018-2.723,1.922-8.796,1.241-12.331
	c-1.148-5.949-6.417-5.434-11.524-5.314c-0.685,0.016-1.366,0.019-2.045,0.02c0.5-1.529,0.611-3.268,0.674-4.69
	c0.406-9.053-1.228-17.968-0.563-27.02c0.523-7.129,1.487-15.26-0.012-22.446c4.594-0.065,9.187-0.15,13.781-0.196
	c3.121-0.031,7.074,0.765,9.591-1.616c2.327-2.201,2.224-6.536,2.389-9.528C511.778,275.14,512.469,269.15,511.48,265.075z
	 M456.73,203.602c-6.882,3.142-13.383,3.376-20.844,3.089c-2.618-0.102-5.216-0.333-7.795-0.487
	c7.532-2.463,15.183-4.541,22.739-5.637c7.515-1.091,14.759-3.374,22.365-3.976c0.094-0.008,0.185-0.02,0.278-0.028
	C467.989,199.059,462.234,201.089,456.73,203.602z M438.299,221.155c-2.893-0.399-5.514-0.854-8.468-0.817
	c-5.161,0.066-10.501-1.1-15.589-0.615c-3.719,0.354-6.825,0.761-8.418,4.416c-1.773,4.064-0.681,7.679,0.302,11.747
	c0.16,0.664,0.818,1.425,1.528,1.528c6.092,0.879,12.296,0.049,18.44,0.765c3.362,0.392,6.728,0.808,10.098,1.122
	c2.119,0.198,4.243-0.095,6.357-0.092c-0.039,2.227-0.046,4.455-0.075,6.681c-0.027,2.04-0.083,4.082-0.079,6.122
	c0.001,0.575,0.401,4.065,0.12,4.339c0.549-0.537-6.639-1.029-6.859-1.016c-3.441,0.205-6.871,0.633-10.313,0.892
	c-7.4,0.557-14.728,0.969-22.158,1.249c-7.33,0.277-14.369-0.33-21.647-0.624c-4.697-0.19-9.44-0.125-14.179-0.029
	c0.703-3.9,0.121-9.036-0.227-12.535c-0.339-3.401-0.297-7.595-1.134-11.192c6.477-2.804,13.062-5.902,19.066-9.439
	c6.985-4.115,15.478-7.384,23.099-10.261c2.479-0.936,4.997-1.888,7.543-2.833c8.787,2.266,19.169,3.736,28.755,2.732
	c-0.499,2.712-0.798,5.478-1.011,8.256C441.74,221.39,440.019,221.392,438.299,221.155z M443.24,224.598
	c-0.173,2.963-0.293,5.923-0.48,8.835c-0.028,0.427-0.04,0.855-0.062,1.284c-1.462,0.038-2.915,0.221-4.48,0.177
	c-3.166-0.09-6.486-0.722-9.615-1.093c-6.236-0.743-12.487-0.03-18.664-0.528c-1.002-3.555-1.88-7.011,2.281-8.869
	c3.557-1.589,8.065,0.073,11.766,0.169c4.229,0.111,8.295-0.195,12.523,0.183C438.813,224.961,441.03,224.962,443.24,224.598z
	 M481.043,183.758c1.073,1.135,2.064,1.706,2.906,3.103c1.245,2.065,1.747,2.809-0.191,3.957c-1.824,1.08-6.487,0.675-8.712,0.775
	c-3.014,0.134-5.944-0.162-8.983,0.123c-12.181,1.143-24.045,3.295-35.854,6.493c-7.448,2.017-14.862,4.515-22.163,7.015
	c-6.136,2.1-11.853,5.102-17.883,7.408c-12.728,4.868-24.115,12.999-37.138,17.366c-6.946,2.329-14.127,3.211-21.275,4.666
	c-4.517,0.92-8.887,0.811-13.299,0.979c-0.934-2.151-1.824-4.147-3.086-6.094c-0.98-1.512-2.141-2.241-0.743-4.181
	c1.82-2.524,6.309-1.623,8.964-2.217c3.536-0.791,6.967-1.986,10.394-3.152c6.185-2.103,12.45-3.737,18.43-6.392
	c5.859-2.602,11.587-5.3,17.19-8.409c3.104-1.722,6.352-2.976,9.527-4.584c2.938-1.486,5.639-3.366,8.619-4.762
	c14.839-6.955,30.674-10.898,46.646-14.298c13.113-2.791,27.397-5.243,41.039-4.165
	C477.372,179.457,479.104,181.707,481.043,183.758z M362.996,246.78c-0.022,2.855-0.051,5.686-0.04,8.543
	c0.002,0.489-0.083,1.041-0.142,1.595c-2.124,0.043-4.244,0.076-6.355,0.085c0.049-3.129-0.6-6.295-0.932-9.384
	c-0.369-3.441-0.715-6.828-1.056-10.22c2.728-0.793,5.433-1.714,8.117-2.845c0.126-0.053,0.253-0.108,0.378-0.162
	c-0.226,2.053-0.444,4.406-0.446,4.626C362.503,241.626,363.016,244.17,362.996,246.78z M327.118,253.962
	c-0.282-3.518-2.875-7.045-4.595-9.98c-0.459-0.784-0.881-1.592-1.298-2.404c1.365,0.397,2.759,0.715,4.244,0.788
	c3.991,0.197,8.059-0.847,11.983-1.439c4.715-0.713,9.314-1.53,13.836-2.666c-0.195,2.063-0.032,4.128-0.204,6.516
	c-0.281,3.925,0.675,8.022,0.386,11.972c-1.76-0.153-3.515-0.322-5.302-0.36c-3.479-0.074-6.761,0.759-10.211,0.872
	c-3.131,0.103-6.246,0.148-9.356,0.203C327.033,256.585,327.238,255.452,327.118,253.962z M290.663,147.054
	c7.106-2.016,14.762-3.319,22.048-4.653c15.409-2.822,31.513-3.864,47.065-2.805c7.115,0.485,14.301-0.853,21.398-0.021
	c6.634,0.778,13.327,1.524,19.984,2.105c13.633,1.19,27.436,4.551,39.827,10.379c10.456,4.918,21.078,12.595,29.809,20.752
	c-2.746-0.246-5.497-0.26-8.015-0.255c-7.468,0.017-14.59,1.131-21.932,2.403c-16.388,2.839-32.814,6.794-48.236,12.991
	c-13.101,5.265-24.973,13.262-38.188,18.113c-6.023,2.211-11.833,4.835-18.063,6.465c-3.406,0.892-6.655,2.214-10.057,3.109
	c-4.273,1.122-12.776,4.806-16.915,1.913c-1.497-1.047-1.807-3.047-2.459-4.629c-1.287-3.123-3.046-6.037-4.511-9.079
	c-4.259-8.84-9.336-17.25-13.75-26.027c-4.546-9.04-9.032-18.061-14.365-26.658C279.729,149.696,285.246,148.591,290.663,147.054z
	 M265.7,153.992c1.484-0.143,3.018-0.137,4.433-0.514c1.397,3.745,3.438,7.312,5.305,10.791c2.313,4.311,4.232,8.779,6.601,13.091
	c4.818,8.768,9.165,17.75,13.904,26.523c4.118,7.624,7.094,15.723,11.237,23.33c3.873,7.109,6.642,15.052,10.925,21.846
	c1.168,1.853,2.159,3.781,3.197,5.691c0.746,1.372,1.536,0.803-0.148,1.085c-2.689,0.448-5.123-0.12-7.942,0.512
	c-4.521,1.013-8.084,2.121-10.437-2.426c-1.953-3.776-3.144-7.987-5.022-11.839c-4.044-8.297-6.61-17.329-10.737-25.662
	c-4.548-9.185-6.942-18.858-10.899-28.215c-3.423-8.093-7.786-15.98-12.591-23.274c-1.068-1.62-4.689-5.831-4.46-7.904
	C259.362,154.317,263.62,154.192,265.7,153.992z M230.667,356.629c0.215-1.578,0.308-3.164,0.329-4.753
	c9.306,1.713,19.498,0.497,28.78,0.837c6.951,0.255,14.261,0.81,21.235-0.095c0.04,1.341,0.134,2.679,0.315,4.013
	c0.194,1.424,0.299,2.847,0.38,4.271c-10.134-0.308-20.294-0.258-30.413-0.259c-4.342-0.001-8.626-0.36-12.999-0.32
	c-2.557,0.023-5.119-0.332-7.666-0.256c-0.077,0.003-0.183,0.019-0.292,0.038C230.412,358.944,230.51,357.787,230.667,356.629z
	 M230.417,341.758c6.63,0.964,14.029,0.065,20.469,0.138c10.138,0.116,20.494,1.017,30.645,0.319
	c-0.23,2.393-0.44,4.786-0.516,7.173c-6.743-1.13-14.539,0.089-21.238-0.037c-5.366-0.101-10.659,0.016-16.017-0.237
	c-4.101-0.193-8.58-0.199-12.778,0.475C230.907,346.985,230.67,344.37,230.417,341.758z M250.064,338.346
	c-6.007-0.193-13.537-0.723-19.943,0.311c-0.23-2.503-0.417-5.001-0.423-7.481c0-0.038,0.001-0.075,0.001-0.113
	c2.478,0.37,5.119,0.237,7.471,0.314c5.623,0.185,11.245,0.32,16.878,0.486c5.678,0.168,11.322,0.827,17.011,0.843
	c3.762,0.011,7.595,0.406,11.218-0.452c-0.049,2.207-0.225,4.425-0.431,6.649C271.352,338.109,260.567,338.683,250.064,338.346z
	 M256.211,328.869c-8.698-0.445-17.754,0.74-26.491,0.279c0.051-2.821,0.205-5.691,0.385-8.521
	c7.197,0.946,14.453,0.995,21.689,1.519c4.979,0.361,10.035,0.12,15.032,0.141c4.971,0.021,10.25,0.589,15.137-0.427
	c0.157,2.583,0.266,5.179,0.302,7.739C273.609,329.117,264.875,329.312,256.211,328.869z M230.378,311.015
	c8.008,0.194,16.014,0.839,24.013,1.293c5.255,0.299,10.488,0.373,15.778,0.381c3.493,0.004,7.733-0.605,11.39-0.19
	c-0.037,1.294-0.034,2.595,0.053,3.915c0.063,0.959,0.129,1.937,0.194,2.915c-9.588-2.019-20.256,0.12-30.011-0.54
	c-7.11-0.481-14.423-1.123-21.548-0.352c0.045-0.675,0.091-1.358,0.135-2.023C230.503,314.589,230.47,312.797,230.378,311.015z
	 M281.708,309.473c-2.633-0.339-5.852,0.206-8.003,0.208c-5.886,0.007-11.726-0.274-17.592-0.396
	c-8.634-0.179-17.325-1.317-25.879-0.557c-0.148-2.062-0.325-4.121-0.39-6.213c-0.024-0.798,0.038-1.587,0.131-2.374
	c6.87,0.995,13.832,1.34,20.783,1.647c6.825,0.301,13.624-0.079,20.442,0.32c3.587,0.209,7.368,0.16,10.948-0.409
	c0.009,0.271,0.013,0.543,0.004,0.816C282.079,304.858,281.865,307.161,281.708,309.473z M270.054,298.847
	c-6.399-0.634-12.884,0.27-19.297-0.014c-6.431-0.284-13.749-1.805-20.417-1.287c0.101-0.706,0.188-1.414,0.225-2.129
	c0.09-1.755-0.107-3.539-0.175-5.31c2.417,0.234,4.86,0.231,7.34,0.253c5.854,0.051,11.639,0.79,17.455,0.811
	c5.452,0.02,10.868-0.098,16.303,0.331c3.1,0.246,6.701,0.805,10.017,0.504c-0.07,1.141-0.133,2.282-0.075,3.411
	c0.06,1.179,0.255,2.339,0.427,3.501C277.998,298.519,273.936,299.231,270.054,298.847z M270.842,288.653
	c-5.217-0.326-10.426-0.203-15.657-0.215c-5.185-0.012-10.311-0.724-15.55-0.667c-3.067,0.033-6.157,0.224-9.234,0.248
	c0.007-0.12,0.009-0.24,0.019-0.36c0.181-2.173,0.316-4.314,0.419-6.452c1.318,0.134,2.707,0.12,3.853,0.135
	c5.563,0.07,11.095-0.237,16.682,0.166c9.904,0.714,19.932,2.084,29.84,0.784c0.095,1.779,0.21,3.562,0.361,5.367
	c0.033,0.39,0.045,0.781,0.05,1.174C278.055,288.691,274.374,288.874,270.842,288.653z M231,271.665
	c8.093,1.615,17.073,1.685,25.16,1.691c5.091,0.003,10.14,0.237,15.213,0.587c3.138,0.216,6.695,0.943,9.612-0.277
	c-0.008,2.092,0.038,4.155,0.116,6.217c-5.024-0.684-9.968,0.332-14.941-0.089c-4.705-0.396-9.419-0.92-14.121-1.231
	c-4.68-0.31-9.937-0.722-14.599-0.29c-1.934,0.179-4.358,0.075-6.499,0.399C231.014,276.36,231.044,274.037,231,271.665z
	 M277.063,258.827c-1.057,2.727-1.517,6.441-0.267,9.174c0.093,0.203,0.195,0.388,0.299,0.572c-2.249-0.221-4.553-0.222-6.702-0.349
	c-5.379-0.318-10.728-0.266-16.119-0.397c-5.082-0.124-10.144-0.507-15.237-0.499c-1.183,0.002-2.359-0.097-3.536-0.158
	c0.838-2.622,0.383-5.881-0.571-8.342c-1.141-2.944-3.624-3.156-6.488-3.132c-4.376,0.037-8.921-0.294-13.226,0.399
	c-0.485,0.079-0.967,0.17-1.452,0.253c0.238-0.582,0.47-1.169,0.709-1.751c1.657-4.043,3.277-8.111,4.915-12.176
	c3.833,1.498,8.422,1.173,12.448,1.729c2.058,0.283,4.143,0.436,6.215,0.392c5.853,0.834,12.109,0.47,17.731,0.723
	c6.112,0.274,14.296,1.083,20.703-0.772c1.228-0.062,2.455-0.174,3.672-0.342c4.026-0.556,8.615-0.23,12.448-1.729
	c1.637,4.066,3.258,8.134,4.915,12.176c0.239,0.582,0.471,1.169,0.709,1.751c-0.485-0.083-0.967-0.175-1.452-0.253
	c-4.304-0.694-8.85-0.363-13.226-0.399C280.687,255.671,278.204,255.882,277.063,258.827z M221.441,237.367
	c1.49-3.64,3.032-7.255,4.622-10.848c2.567,0.906,5.628,0.614,8.355,0.624c2.58,0.01,5.087,0.325,7.572,0.395
	c2.666,0.609,5.501,0.689,8.359,0.769c6.564,0.184,13.67,0.967,20.097-0.785c2.341-0.092,4.704-0.372,7.131-0.381
	c2.727-0.01,5.788,0.282,8.355-0.624c1.59,3.593,3.133,7.21,4.622,10.848c-3.89-0.127-7.827,0.158-11.664,0.652
	c-3.921,0.505-7.852,0.299-11.643,1.11c-4.096,0.168-8.21,0.512-12.329,0.222c-4.107-0.289-8.866-0.799-13.488-0.712
	c-2.744-0.258-5.537-0.262-8.324-0.621C229.268,237.525,225.331,237.239,221.441,237.367z M255.997,162.947
	c2.12,4.032,5.161,7.637,7.263,11.646c3.142,5.993,6.704,11.976,8.989,18.379c1.912,5.357,3.343,10.813,5.528,16.084
	c1.906,4.599,4.273,8.955,6.368,13.461c-4.815-0.698-9.996-0.663-14.865,0.082c-6.543-0.626-13.545,0.316-19.976,0.375
	c-1.704,0.016-4.221-0.341-6.684-0.39c-4.842-0.731-9.989-0.761-14.774-0.068c2.096-4.506,4.462-8.862,6.368-13.461
	c2.185-5.272,3.615-10.727,5.528-16.084c2.285-6.403,5.849-12.387,8.989-18.379C250.836,170.584,253.877,166.978,255.997,162.947z
	 M246.294,153.992c2.081,0.2,6.337,0.325,6.635,3.034c0.229,2.074-3.393,6.284-4.46,7.904c-4.805,7.294-9.169,15.182-12.591,23.274
	c-3.957,9.357-6.351,19.03-10.899,28.215c-4.127,8.333-6.693,17.366-10.737,25.662c-1.878,3.852-3.068,8.063-5.022,11.839
	c-2.353,4.547-5.916,3.438-10.437,2.426c-2.82-0.631-5.253-0.064-7.942-0.512c-1.684-0.281-0.894,0.288-0.148-1.085
	c1.038-1.91,2.03-3.839,3.197-5.691c4.282-6.795,7.052-14.737,10.925-21.846c4.143-7.607,7.119-15.707,11.237-23.33
	c4.739-8.774,9.086-17.755,13.904-26.523c2.369-4.312,4.288-8.779,6.601-13.091c1.866-3.479,3.909-7.046,5.304-10.791
	C243.276,153.856,244.811,153.849,246.294,153.992z M185.393,257.463c-3.11-0.054-6.225-0.1-9.356-0.203
	c-3.449-0.113-6.732-0.946-10.211-0.872c-1.787,0.038-3.542,0.208-5.302,0.36c-0.288-3.95,0.667-8.046,0.386-11.972
	c-0.17-2.388-0.009-4.453-0.204-6.516c4.523,1.135,9.121,1.954,13.836,2.666c3.923,0.593,7.991,1.637,11.983,1.439
	c1.485-0.073,2.88-0.392,4.244-0.788c-0.418,0.811-0.839,1.62-1.298,2.404c-1.72,2.935-4.313,6.463-4.595,9.98
	C184.758,255.452,184.961,256.585,185.393,257.463z M71.011,152.058c12.391-5.829,26.194-9.19,39.827-10.379
	c6.656-0.581,13.35-1.327,19.984-2.105c7.097-0.833,14.282,0.506,21.398,0.021c15.552-1.059,31.656-0.017,47.065,2.805
	c7.286,1.335,14.942,2.637,22.048,4.653c5.417,1.537,10.934,2.643,16.363,4.101c-5.334,8.598-9.82,17.619-14.365,26.658
	c-4.413,8.777-9.491,17.187-13.75,26.027c-1.466,3.042-3.224,5.956-4.511,9.079c-0.652,1.583-0.962,3.582-2.459,4.629
	c-4.139,2.893-12.643-0.791-16.915-1.913c-3.403-0.894-6.652-2.217-10.057-3.109c-6.228-1.631-12.038-4.254-18.063-6.465
	c-13.216-4.85-25.088-12.846-38.188-18.113c-15.421-6.198-31.846-10.152-48.236-12.991c-7.342-1.272-14.464-2.387-21.932-2.403
	c-2.519-0.006-5.27,0.009-8.015,0.255C49.932,164.653,60.555,156.976,71.011,152.058z M36.949,191.594
	c-2.225-0.1-6.888,0.305-8.712-0.775c-1.94-1.149-1.436-1.892-0.191-3.957c0.843-1.398,1.833-1.968,2.906-3.103
	c1.94-2.052,3.671-4.3,5.615-6.369c13.643-1.079,27.926,1.373,41.039,4.165c15.972,3.4,31.807,7.344,46.646,14.298
	c2.979,1.397,5.68,3.276,8.619,4.762c3.175,1.607,6.423,2.861,9.527,4.584c5.603,3.11,11.33,5.808,17.19,8.409
	c5.98,2.655,12.245,4.289,18.43,6.392c3.425,1.165,6.857,2.36,10.394,3.152c2.655,0.593,7.143-0.308,8.964,2.217
	c1.4,1.94,0.238,2.67-0.743,4.181c-1.263,1.948-2.152,3.943-3.086,6.094c-4.411-0.167-8.781-0.06-13.299-0.979
	c-7.147-1.454-14.329-2.336-21.275-4.666c-13.023-4.368-24.41-12.499-37.138-17.366c-6.03-2.307-11.747-5.307-17.883-7.408
	c-7.302-2.5-14.716-4.998-22.163-7.015c-11.809-3.198-23.673-5.35-35.854-6.493C42.892,191.431,39.963,191.727,36.949,191.594z
	 M149.027,234.391c0.126,0.053,0.253,0.108,0.378,0.162c2.685,1.131,5.389,2.053,8.117,2.845c-0.341,3.392-0.687,6.78-1.056,10.22
	c-0.332,3.09-0.979,6.257-0.932,9.384c-2.111-0.009-4.232-0.042-6.355-0.085c-0.059-0.553-0.144-1.106-0.142-1.595
	c0.011-2.857-0.019-5.688-0.04-8.543c-0.02-2.609,0.492-5.154,0.475-7.764C149.472,238.797,149.253,236.443,149.027,234.391z
	 M144.639,256.823c-4.74-0.096-9.483-0.162-14.18,0.029c-7.278,0.294-14.317,0.901-21.647,0.624
	c-7.43-0.28-14.758-0.693-22.158-1.249c-3.442-0.259-6.873-0.687-10.313-0.892c-0.22-0.013-7.407,0.479-6.859,1.016
	c-0.281-0.276,0.117-3.764,0.12-4.339c0.004-2.04-0.052-4.081-0.079-6.122c-0.029-2.225-0.037-4.454-0.075-6.681
	c2.114-0.003,4.237,0.29,6.357,0.092c3.37-0.314,6.735-0.73,10.097-1.122c6.144-0.715,12.348,0.114,18.44-0.765
	c0.71-0.103,1.368-0.864,1.528-1.528c0.983-4.068,2.075-7.683,0.302-11.747c-1.594-3.654-4.699-4.061-8.418-4.416
	c-5.088-0.485-10.428,0.682-15.589,0.615c-2.954-0.038-5.575,0.417-8.468,0.817c-1.721,0.237-3.442,0.235-5.147,0.396
	c-0.214-2.779-0.512-5.544-1.011-8.256c9.586,1.004,19.968-0.466,28.755-2.732c2.546,0.945,5.064,1.897,7.543,2.833
	c7.62,2.878,16.114,6.146,23.099,10.261c6.005,3.537,12.589,6.634,19.066,9.439c-0.838,3.598-0.796,7.791-1.133,11.192
	C144.519,247.787,143.937,252.923,144.639,256.823z M69.296,234.717c-0.022-0.428-0.034-0.857-0.062-1.284
	c-0.187-2.913-0.307-5.874-0.48-8.835c2.21,0.364,4.427,0.363,6.73,0.158c4.227-0.377,8.294-0.072,12.523-0.183
	c3.701-0.096,8.209-1.758,11.766-0.169c4.161,1.858,3.282,5.314,2.281,8.869c-6.176,0.498-12.427-0.215-18.663,0.528
	c-3.129,0.372-6.448,1.004-9.615,1.093C72.21,234.939,70.757,234.756,69.296,234.717z M55.264,203.602
	c-5.503-2.513-11.258-4.543-16.744-7.04c0.093,0.008,0.184,0.02,0.278,0.028c7.605,0.602,14.85,2.885,22.365,3.976
	c7.556,1.098,15.208,3.174,22.739,5.637c-2.58,0.154-5.176,0.385-7.795,0.487C68.647,206.978,62.145,206.744,55.264,203.602z
	 M180.509,360.122c-0.547,0.774-1.401,1.259-2.434,1.554c-3.416,0.973-8.788-0.162-11.462,0.041
	c-4.798,0.363-9.598-0.145-14.392,0.18c-8.938,0.606-17.942,0.936-26.924,0.643c-17.864-0.585-35.736-1.75-53.613-1.758
	c-16.687-0.01-33.319-2.562-49.967-2.38c-2.83,0.031-4.487-2.891-3.88-5.477c1.039-4.431,6.095-2.476,9.388-2.503
	c3.644-0.03,7.489-0.43,11.037-1.115c0.322-0.063,0.655-0.135,0.99-0.214c9.318,0.233,18.993-0.245,28.29-0.627
	c20.267-0.837,40.384,0.07,60.651,0.122c5.058,0.013,9.868-0.564,14.905-0.142c5.618,0.47,11.358,0.305,16.989,0.318
	c3.933,0.008,7.868-0.013,11.799-0.135c2.161-0.068,8.518-0.477,9.82,1.641C182.808,352.055,181.692,358.449,180.509,360.122z
	 M48.327,342.377c-3.916,0.277-7.877,0.547-11.798,0.265c-5.866-0.626-4.518-3.464-4.534-8.308
	c-0.011-3.792,0.624-7.464,0.603-11.241c-0.011-1.897-0.111-3.758-0.236-5.613c5.237,0.994,10.655,0.824,16.094,0.39
	c0.092,1.856,0.177,3.703,0.232,5.532c0.144,4.733,0.104,9.581-0.111,14.31C48.512,339.175,48.233,340.831,48.327,342.377z
	 M48.189,312.499c-5.326,0.512-10.805,0.695-16.07,1.637c-0.123-1.533-0.248-3.068-0.353-4.622
	c-0.425-6.311-0.598-12.786-2.469-18.804c0.408,0.004,0.817,0.013,1.225,0.017c6.088,0.054,12.175,0.09,18.264,0.12
	C47.658,297.926,47.842,305.25,48.189,312.499z M52.349,319.967c-0.075-0.806-0.131-1.615-0.178-2.425
	c5.024-0.473,10.038-1.001,14.917-0.885c0.886,0.021,1.777,0.036,2.666,0.054c-0.002,0.118-0.003,0.216-0.004,0.283
	c-0.055,3.694,0.587,7.275,0.495,11.02c-0.112,4.533-0.375,9.14,0.216,13.639c-5.956,0.16-11.936,0.173-17.881,0.464
	c-0.344-2.653,0.16-5.706,0.144-8.222C52.693,329.244,52.783,324.598,52.349,319.967z M69.846,311.294
	c-0.92-0.006-1.841-0.01-2.759-0.018c-4.979-0.041-10.087,0.305-15.074,0.828c-0.035-7.101,0.403-14.277-0.643-21.245
	c4.216,0.02,8.432,0.039,12.647,0.061c2.235,0.011,4.47,0.054,6.704,0.105C70.238,295.216,69.974,304.966,69.846,311.294z
	 M98.684,310.727c-8.217,0.486-16.506,0.6-24.749,0.583c0.029-6.731,0.489-13.606-0.454-20.22
	c7.094,0.191,14.189,0.479,21.307,0.552c1.491,0.016,2.968-0.014,4.44-0.062C98.594,297.906,98.661,304.336,98.684,310.727z
	 M98.137,341.487c-7.828-0.205-15.659-0.31-23.502,0.032h-0.006c1.073-8.137-0.121-16.443-0.572-24.526
	c-0.004-0.071-0.006-0.142-0.01-0.214c8.191,0.105,16.446,0.022,24.613-0.448c-0.01,0.82-0.017,1.641-0.038,2.458
	C98.428,326.45,97.649,333.906,98.137,341.487z M104.633,310.31c-0.457,0.039-0.915,0.068-1.372,0.104
	c0.044-6.334-0.012-12.736-0.678-18.969c2.656-0.129,5.307-0.287,7.988-0.367c5.589-0.167,11.18,0.453,16.768,0.28
	c-0.231,6.287-0.881,12.577-1.455,18.882C118.724,310.855,111.762,309.714,104.633,310.31z M125.401,315.985
	c-0.252,3.41-0.435,6.825-0.455,10.246c-0.027,4.603-0.334,8.937-0.733,13.496c-0.059,0.675-0.144,1.498-0.173,2.355
	c-6.933-0.023-13.86-0.249-20.786-0.456c-0.193-7.609-0.089-15.174-0.061-22.837c0.003-0.916,0.012-1.84,0.02-2.766
	c0.776-0.06,1.553-0.114,2.326-0.183C112.166,315.265,118.715,316.427,125.401,315.985z M129.424,339.728
	c0.137-1.745,0.436-3.477,0.569-5.221c0.414-5.423,0.031-11.006-0.069-16.441c-0.014-0.8-0.017-1.598-0.009-2.394
	c5.388-0.363,10.85-0.562,16.201-0.548c2.798,0.008,5.594,0.012,8.392,0.02c-0.018,0.387-0.049,0.774-0.062,1.162
	c-0.182,5.783-0.105,11.587-0.11,17.372c-0.002,2.57-0.298,5.498-0.235,8.322c-3.964,0.043-7.949,0.129-11.878-0.302
	c-4.051-0.446-7.951,0.279-12.01,0.35c-0.283,0.004-0.566,0-0.849,0.004C129.463,341.318,129.368,340.44,129.424,339.728z
	 M131.034,291.209c4.034-0.197,8.101-0.494,12.1-0.764c4.116-0.279,8.287-0.168,12.402-0.464c-0.183,3.322,0.073,6.827-0.025,10.046
	c-0.094,3.098-0.365,6.176-0.618,9.252c-3.257,0.01-6.512,0.022-9.762,0.025c-4.979,0.007-10.018,0.229-15.012,0.599
	c0.193-3.477,0.478-6.945,0.687-10.446C130.978,296.585,131.356,293.852,131.034,291.209z M183.251,326.944
	c-0.474,4.663-0.78,9.326-1.078,13.986c-0.369-0.061-0.757-0.08-1.176-0.011c-7.036,1.149-14.166,1.101-21.286,1.072
	c0.039-0.531,0.061-0.956,0.065-1.12c0.08-2.723-0.004-5.465-0.007-8.189c-0.004-5.82-0.378-11.713-0.185-17.526
	c2.832,0.007,5.663,0.018,8.495,0.02c5.477,0.006,11.194,1.41,16.479-0.048C184.126,319.072,183.651,323.01,183.251,326.944z
	 M185.75,299.538c-0.082,3.323-0.315,6.645-0.62,9.965c-0.1-0.011-0.195-0.03-0.301-0.033c-8.311-0.204-16.69-0.218-25.072-0.2
	c0.079-3.386,0.097-6.762-0.008-10.197c-0.1-3.241-0.008-6.394-0.641-9.463c5.729-0.779,11.629-1.475,17.41-1.546
	c2.948-0.036,5.995-0.292,8.715-1.451c0.654-0.232,1.282-0.549,1.882-0.916C186.519,290.276,185.864,294.937,185.75,299.538z
	 M187.034,269.499c-0.155,3.236,0.519,8.108-1.861,10.788c-0.115,0.129-0.257,0.238-0.386,0.357
	c-6.766,0.136-13.59,0.065-20.397,0.599c-4.015,0.315-7.805,1.392-11.869,1.317c-4.443-0.082-8.807,0.437-13.244,0.461
	c-4.036,0.023-7.907,0.671-11.926,0.824c-4.992,0.19-10.023-0.237-15.019-0.238c-9.108-0.002-18.324,0.686-27.476,0.844
	c-8.484,0.147-16.884-0.648-25.388-0.606c-10.006,0.05-20.013,0.092-30.018,0.18c-4.967,0.044-9.932,0.087-14.898,0.214
	c-1.466,0.036-5.409,1.019-6.535,0.408c-2.096-1.139-1.667-5.639-1.699-7.378c-0.058-3.054-1.101-8.986,0.93-11.161
	c1.913-2.052,7.726-1.249,10.352-1.652c17.525-2.689,35.895,0.412,53.366-2.6c1.885-0.122,3.804-0.437,5.376-0.351
	c7.672,0.416,15.341,1.474,23.032,1.673c17.12,0.443,34.052,0.195,51.177,0.17c7.772-0.011,15.323-0.525,23.066-0.106
	c4.523,0.245,9.143,0.201,13.76-0.007C187.062,265.468,187.113,267.839,187.034,269.499z M224.326,341.143
	c0.022,3.597,0.405,7.099,0.531,10.667c0.145,4.123-1.318,8.092-1.26,12.226c0.029,2.063,0.147,4.207-0.588,6.188
	c-0.679,1.831-0.668,1.547-2.365,2.169c-3.929,1.442-8.194,1.15-12.293,1.132c-4.189-0.018-8.44,0.204-12.615-0.174
	c-1.937-0.175-5.189-0.086-6.884-1.227c-2.063-1.388-1.312-3.822-1.315-6.23c-0.017-15.98,1.706-31.852,2.627-47.791
	c0.523-9.053,0.862-18.078,1.388-27.121c0.235-4.033,2.048-10.681,1.016-15.61c0.148-1.42,0.217-2.846,0.292-4.275
	c2.275,0.604,4.443,0.688,7.064,0.484c4.442-0.348,8.735,0.79,13.237,0.653c3.943-0.121,7.852-0.259,11.776-0.351
	c-0.175,7.966-0.083,16.003-0.653,23.922c-0.562,7.817-0.27,15.541-0.476,23.386C223.616,326.542,224.28,333.824,224.326,341.143z
	 M226.995,266.509c-6.762,0.684-14.131,0.823-20.802,0.104c-2.777-0.3-12.288,2.578-12.503-1.558
	c-0.226-4.345,21.711-4.066,25.402-4.09c2.476-0.017,7.602-0.935,9.944-0.065c1.159,0.431,1.276,1.089,1.466,2.345
	C230.937,266.09,229.56,266.25,226.995,266.509z M280.116,372.502c-3.095,0.08-6.296,0.106-9.392-0.016
	c-5.186-0.204-10.379-0.448-15.553-0.676c-8.636-0.381-17.445-0.889-26.026,0.204c0.26-1.124,0.424-2.246,0.559-3.208
	c0.287-2.036,0.388-4.084,0.489-6.136c3.177,0.209,6.473,0.894,9.61,0.906c4.463,0.018,8.938,0.269,13.393,0.501
	c5.237,0.273,10.44-0.051,15.709-0.04c4.327,0.01,8.671,0.36,12.985,0.351c0.084,1.477,0.193,2.95,0.399,4.418
	c0.146,1.039,0.331,2.264,0.63,3.477C281.986,372.333,281.039,372.478,280.116,372.502z M284.999,266.509
	c-2.565-0.259-3.942-0.418-3.508-3.265c0.191-1.256,0.308-1.915,1.466-2.345c2.342-0.871,7.469,0.049,9.944,0.065
	c3.692,0.024,25.629-0.255,25.402,4.09c-0.215,4.137-9.726,1.258-12.503,1.558C299.13,267.333,291.761,267.193,284.999,266.509z
	 M323.141,372.125c-1.695,1.141-4.948,1.052-6.884,1.227c-4.174,0.379-8.426,0.157-12.615,0.174
	c-4.099,0.018-8.364,0.31-12.293-1.132c-1.698-0.623-1.685-0.338-2.365-2.169c-0.735-1.981-0.616-4.126-0.588-6.188
	c0.058-4.134-1.405-8.103-1.26-12.226c0.126-3.568,0.509-7.07,0.531-10.667c0.045-7.318,0.71-14.601,0.517-21.953
	c-0.206-7.845,0.085-15.568-0.476-23.386c-0.569-7.919-0.478-15.957-0.653-23.922c3.924,0.092,7.834,0.23,11.776,0.351
	c4.502,0.137,8.795-1,13.237-0.653c2.621,0.206,4.787,0.122,7.064-0.484c0.076,1.429,0.144,2.855,0.292,4.275
	c-1.033,4.929,0.781,11.578,1.016,15.61c0.527,9.042,0.864,18.067,1.388,27.121c0.922,15.939,2.644,31.811,2.627,47.791
	C324.453,368.303,325.204,370.737,323.141,372.125z M326.862,309.503c-0.304-3.32-0.537-6.641-0.62-9.965
	c-0.114-4.6-0.769-9.263-1.366-13.842c0.601,0.367,1.228,0.684,1.882,0.916c2.72,1.159,5.766,1.414,8.715,1.451
	c5.781,0.072,11.681,0.768,17.41,1.546c-0.633,3.068-0.541,6.222-0.641,9.463c-0.105,3.435-0.085,6.811-0.008,10.197
	c-8.383-0.018-16.762-0.002-25.072,0.2C327.057,309.473,326.963,309.491,326.862,309.503z M328.743,326.944
	c-0.399-3.934-0.874-7.873-1.307-11.816c5.286,1.456,11.003,0.052,16.479,0.048c2.831-0.002,5.663-0.013,8.495-0.02
	c0.195,5.813-0.18,11.706-0.185,17.526c-0.002,2.726-0.085,5.466-0.007,8.189c0.004,0.164,0.028,0.588,0.065,1.12
	c-7.12,0.029-14.25,0.076-21.286-1.072c-0.419-0.069-0.809-0.05-1.176,0.011C329.523,336.27,329.216,331.609,328.743,326.944z
	 M494.157,352.922c0.606,2.586-1.051,5.508-3.88,5.477c-16.648-0.18-33.28,2.372-49.967,2.38c-17.877,0.01-35.75,1.174-53.613,1.758
	c-8.98,0.294-17.984-0.036-26.924-0.643c-4.794-0.325-9.594,0.183-14.392-0.18c-2.673-0.203-8.045,0.932-11.462-0.041
	c-1.033-0.294-1.887-0.78-2.434-1.554c-1.183-1.673-2.298-8.068-1.201-9.856c1.301-2.118,7.658-1.709,9.82-1.641
	c3.931,0.122,7.866,0.143,11.799,0.135c5.632-0.011,11.371,0.154,16.989-0.318c5.039-0.423,9.847,0.155,14.905,0.142
	c20.267-0.052,40.384-0.958,60.651-0.122c9.297,0.384,18.972,0.862,28.29,0.627c0.335,0.079,0.668,0.152,0.99,0.214
	c3.548,0.685,7.392,1.085,11.037,1.115C488.061,350.446,493.118,348.49,494.157,352.922z M381.188,299.457
	c0.209,3.5,0.495,6.967,0.687,10.446c-4.993-0.371-10.034-0.592-15.012-0.599c-3.25-0.003-6.505-0.016-9.762-0.025
	c-0.251-3.075-0.522-6.154-0.618-9.252c-0.098-3.219,0.157-6.724-0.025-10.046c4.116,0.297,8.287,0.186,12.402,0.464
	c3.999,0.271,8.066,0.567,12.1,0.764C380.638,293.852,381.016,296.585,381.188,299.457z M382.001,334.507
	c0.133,1.744,0.432,3.476,0.569,5.221c0.055,0.712-0.04,1.589,0.058,2.324c-0.283-0.004-0.565,0-0.849-0.004
	c-4.058-0.071-7.959-0.796-12.01-0.35c-3.929,0.432-7.914,0.345-11.878,0.302c0.063-2.824-0.232-5.752-0.235-8.322
	c-0.004-5.786,0.073-11.589-0.11-17.372c-0.012-0.388-0.044-0.775-0.062-1.162c2.798-0.008,5.594-0.012,8.392-0.02
	c5.352-0.014,10.812,0.185,16.201,0.548c0.008,0.796,0.006,1.594-0.009,2.394C381.971,323.502,381.588,329.085,382.001,334.507z
	 M408.734,310.414c-0.457-0.035-0.916-0.065-1.373-0.104c-7.129-0.598-14.091,0.544-21.25-0.07
	c-0.574-6.305-1.225-12.595-1.455-18.882c5.587,0.173,11.179-0.448,16.768-0.28c2.681,0.081,5.332,0.238,7.988,0.367
	C408.747,297.678,408.69,304.081,408.734,310.414z M408.74,341.626c-6.927,0.207-13.853,0.433-20.786,0.456
	c-0.028-0.857-0.113-1.68-0.173-2.355c-0.398-4.559-0.706-8.893-0.733-13.496c-0.02-3.422-0.203-6.837-0.455-10.246
	c6.686,0.44,13.236-0.72,19.862-0.143c0.774,0.068,1.55,0.123,2.326,0.183c0.008,0.924,0.017,1.848,0.02,2.766
	C408.829,326.452,408.933,334.017,408.74,341.626z M438.06,311.311c-8.243,0.017-16.532-0.097-24.749-0.583
	c0.021-6.391,0.09-12.822-0.546-19.145c1.472,0.048,2.949,0.076,4.44,0.062c7.118-0.073,14.214-0.361,21.307-0.552
	C437.57,297.703,438.031,304.579,438.06,311.311z M437.365,341.519h-0.004c-7.843-0.342-15.673-0.236-23.502-0.032
	c0.487-7.581-0.291-15.037-0.487-22.697c-0.021-0.817-0.028-1.638-0.038-2.458c8.167,0.47,16.422,0.553,24.613,0.448
	c-0.004,0.071-0.006,0.143-0.01,0.214C437.485,325.076,436.291,333.382,437.365,341.519z M459.98,312.104
	c-4.987-0.522-10.095-0.869-15.074-0.828c-0.919,0.008-1.839,0.012-2.759,0.018c-0.127-6.328-0.392-16.079-0.874-20.27
	c2.234-0.05,4.469-0.094,6.704-0.105c4.215-0.022,8.432-0.041,12.647-0.061C459.577,297.827,460.016,305.003,459.98,312.104z
	 M459.416,342.118c-5.944-0.291-11.925-0.303-17.881-0.464c0.591-4.5,0.328-9.108,0.216-13.639c-0.092-3.745,0.55-7.326,0.495-11.02
	c-0.001-0.068-0.002-0.165-0.004-0.283c0.889-0.018,1.78-0.033,2.666-0.054c4.878-0.116,9.892,0.413,14.917,0.885
	c-0.046,0.81-0.102,1.619-0.178,2.425c-0.435,4.631-0.345,9.277-0.374,13.929C459.255,336.412,459.76,339.465,459.416,342.118z
	 M463.415,337.71c-0.215-4.729-0.253-9.577-0.111-14.31c0.055-1.829,0.141-3.676,0.232-5.532c5.439,0.435,10.857,0.604,16.094-0.39
	c-0.125,1.856-0.225,3.716-0.236,5.613c-0.021,3.777,0.615,7.449,0.603,11.241c-0.014,4.844,1.333,7.681-4.534,8.308
	c-3.921,0.282-7.882,0.013-11.798-0.264C463.762,340.831,463.482,339.175,463.415,337.71z M479.875,314.136
	c-5.264-0.942-10.743-1.124-16.07-1.637c0.347-7.25,0.531-14.575-0.596-21.654c6.088-0.031,12.175-0.066,18.264-0.12
	c0.408-0.004,0.817-0.012,1.225-0.017c-1.871,6.018-2.045,12.493-2.47,18.804C480.123,311.068,479.998,312.604,479.875,314.136z
	 M503.977,284.648c-1.125,0.612-5.07-0.371-6.535-0.408c-4.966-0.126-9.931-0.169-14.898-0.214
	c-10.006-0.09-20.012-0.131-30.018-0.18c-8.503-0.042-16.904,0.754-25.388,0.606c-9.152-0.158-18.367-0.848-27.476-0.844
	c-4.997,0.001-10.028,0.428-15.019,0.238c-4.019-0.154-7.889-0.802-11.926-0.824c-4.438-0.024-8.8-0.543-13.244-0.461
	c-4.064,0.075-7.854-1.002-11.869-1.317c-6.807-0.533-13.631-0.463-20.397-0.599c-0.129-0.118-0.271-0.228-0.386-0.357
	c-2.379-2.679-1.706-7.551-1.861-10.788c-0.08-1.66-0.028-4.032-0.342-6.263c4.618,0.208,9.238,0.251,13.76,0.007
	c7.743-0.418,15.294,0.095,23.066,0.106c17.125,0.024,34.057,0.273,51.177-0.17c7.689-0.199,15.358-1.257,23.032-1.673
	c1.573-0.085,3.491,0.229,5.376,0.351c17.471,3.011,35.841-0.091,53.366,2.6c2.625,0.403,8.437-0.398,10.352,1.652
	c2.031,2.176,0.987,8.106,0.93,11.161C505.643,279.009,506.072,283.51,503.977,284.648z"/>
<g>
</g>
<g>
</g>
<g>
</g>
<g>
</g>
<g>
</g>
<g>
</g>
<g>
</g>
<g>
</g>
<g>
</g>
<g>
</g>
<g>
</g>
<g>
</g>
<g>
</g>
<g>
</g>
<g>
</g>
</svg>
