<?xml version="1.0" encoding="iso-8859-1"?>
<!-- Generator: Adobe Illustrator 19.0.0, SVG Export Plug-In . SVG Version: 6.00 Build 0)  -->
<svg version="1.1" id="Layer_1" xmlns="http://www.w3.org/2000/svg" xmlns:xlink="http://www.w3.org/1999/xlink" x="0px" y="0px"
	 viewBox="0 0 511.999 511.999" style="enable-background:new 0 0 511.999 511.999;" xml:space="preserve">
<path style="fill:#54D1D1;" d="M482.144,377.091c0.113,0.019,0.226,0.035,0.335,0.049c3.079,0.393,6.156,0.784,9.235,1.177
	c2.257,0.288,4.582,0.597,6.555,1.731c3.841,2.207,4.618,7.629,3.033,11.467c-1.536,3.72-5.141,5.277-8.945,5.648
	c-18.296,1.789-36.591,4.474-54.923,4.815c-35.974,0.67-71.975-0.19-107.963-0.079c-45.595,0.14-91.195,1.195-136.782,0.779
	c-43.971-0.4-87.927-2.251-131.893-3.271c-11.738-0.273-23.475,0.596-35.218,0.443c-5.942-0.077-18.654,4.489-21.221-4.11
	c-1.831-6.134,3.55-11.354,9.178-12.105c3.245-0.433,7.325-1.432,10.578-0.995c2.006,0.269,3.139,2,4.947,2.385
	c7.389,1.568,0.273-9.888-1.26-12.139c-21.745-31.95-24.546-69.71-13.547-106.283c10.583-35.194,29.841-65.084,58.661-88.735
	c26.066-21.39,53.57-40.355,85.103-56.211c1.069-0.58,9.735,5.635,11.049,6.42c3.829,2.29,7.627,4.631,11.387,7.031
	c7.573,4.833,14.997,9.9,22.225,15.237c7.353,5.43,14.503,11.138,21.402,17.134c5.87,5.102,10.1,11.191,15.979,16.164
	c0.551,0.466,1.155,0.955,1.875,1.004c1.07,0.072,1.926-0.828,2.613-1.652c0.276-0.331,0.552-0.663,0.83-0.994
	c6.308-7.566,12.47-14.808,19.533-21.589c6.714-6.447,13.93-12.36,21.494-17.781c15.039-10.781,31.39-19.593,48.132-27.41
	c16.607-7.753,31.431-6.808,47.788,2.016c56.8,30.642,95.142,76.72,118.786,136.141c0.952,3.81,2.794,7.514,3.902,11.308
	c5.493,18.811,5.959,38.655,1.363,57.703c-2.367,9.807-6.553,18.538-10.152,27.871c-3.356,8.707-10.141,15.535-15.981,22.85
	c-0.468,0.586-0.963,1.252-0.902,2C479.439,376.35,480.87,376.88,482.144,377.091z"/>
<path style="fill:#2C8481;" d="M150.519,138.923c-9.413,3.902-17.319,10.823-25.927,16.139
	c-13.084,8.081-23.734,18.799-34.51,29.522c-11.38,11.324-22.78,24.583-31.372,38.15c-6.948,10.971-12.702,23.81-16.824,36.127
	c-4.498,13.442-4.519,29.322-3.697,43.388c0.92,15.728,6.577,30.601,12.697,44.895c5.031,11.75,14.522,18.492,23.894,26.457
	c10.107,8.592,20.018,8.585,33.06,8.574c20.454-0.017,40.886,1.127,61.388,1.127c11.104,0,22.191,0.221,33.276,0.383
	c3.055,0.044,20.239,1.389,22.032-1.485c1.812-2.906-5.862-15.026-7.077-17.405c-5.414-10.603-11.959-20.01-15.215-31.672
	c-4.273-15.305-2.554-31.692,0.788-47.023c4.768-21.871,7.806-46.671,18.209-66.525c2.255-4.305,5.32-8.01,7.115-12.605
	c2.909-7.448-1.21-10.267-5.792-15.882c-5.678-6.958-13.023-12.862-20.038-18.511c-8.478-6.827-15.093-14.934-24.488-20.65
	c-4.343-2.642-8.737-5.241-13.128-7.742C158.068,140.291,154.929,138.677,150.519,138.923z"/>
<path style="fill:#20514E;" d="M155.407,138.547c-0.155,4.517,4.444,9.53,6.1,13.526c1.974,4.764,3.765,9.271,6.194,13.918
	c3.116,5.964,4.946,12.268,7.163,18.623c2.571,7.365,5.67,14.548,7.5,22.165c2.105,8.757,3.842,17.716,4.268,26.691
	c0.791,16.69,0.78,32.484-0.696,49.169c-0.839,9.475-1.886,18.832-2.989,28.291c-1.653,14.179-7.405,25.786-12.897,38.566
	c-4.42,10.286-7.751,24.192-16.913,31.371c-9.256,7.251-24.102,2.393-34.893,2.436c-12.377,0.05-24.357-0.461-35.718-5.075
	c-10.707-4.349-18.677-13.947-25.254-23.123c-17.238-24.045-21.256-54.238-16.167-82.93c3.005-16.947,11.184-35.65,20.313-50.194
	c4.475-7.129,10.468-13.675,15.976-20.041c14.944-17.27,30.655-31.748,48.543-45.953
	C129.348,153.279,149.658,134.918,155.407,138.547z"/>
<path style="fill:#45BAB7;" d="M347.151,112.229c-18.285,3.25-36.157,13.945-51.696,23.686
	c-10.015,6.278-21.081,12.301-29.325,20.866c-6.256,6.499-12.182,13.193-18.067,20.019c-13.255,15.375-25.538,34.805-32.51,53.849
	c-8.772,23.958-12.627,47.83-12.397,73.247c0.207,22.924,3.827,45.072,19.06,63.062c15.909,18.787,46.599,14.842,68.288,14.842
	c20.76,0,41.462-0.659,62.193-1.016c24.114-0.415,48.239,1.035,72.326-0.101c11.564-0.545,24.015-0.436,35.274-3.02
	c13.784-3.163,22.704-14.917,30.083-26.367c5.952-9.236,15.383-30.424,1.441-37.489c-6.998-3.546-16.349-1.254-23.402,0.728
	c-11.237,3.155-22.185,7.16-33.577,9.776c-21.495,4.937-40.483,4.919-60.297-5.649c-19.508-10.405-33.298-27.035-39.446-48.226
	c-6.856-23.627-7.908-47.617-3.105-71.839c4.189-21.129,13.078-39.803,22.615-58.874c3.185-6.37,9.596-16.633,7.235-24.224
	C359.485,107.895,351.367,110.289,347.151,112.229z"/>
<path style="fill:#BFF7F4;" d="M42.238,380.673c-8.354,2.679-18.764,1.711-27.49,2.631c-5.897,0.622-14.826,5.386-11.91,13.198
	c1.053,2.819,3.947,2.886,6.559,2.978c6.019,0.21,12.265-0.026,18.272-0.301c7.561-0.346,15.321-0.835,22.886-0.46
	c5.044,0.25,9.531,2.162,14.635,2.355c14.88,0.558,29.74,1.47,44.619,2.072c20.25,0.821,40.824,0.019,61.054-0.75
	c6.501-0.247,13.006-0.313,19.51-0.288c15.467,0.058,30.93,0.656,46.399,0.592c7.732-0.032,15.467-0.222,23.184-0.726
	c6.181-0.403,11.413,0.25,17.446,0.504c31.022,1.308,62.549-0.334,93.579-1.124c18.327-0.466,36.578,0.388,54.926-0.347
	c14.752-0.591,29.572-0.283,44.307-1.192c7.516-0.463,15.137-1.76,22.599-2.787c2.002-0.275,6.6-0.136,8.042-1.675
	c2.495-2.662,0.648-10.466-0.669-13.333c-2.467-5.368-7.167-4.356-12.344-4.356c-15.44,0-30.848,1.544-46.298,1.231
	c-23.513-0.477-47.067-0.046-70.554,0.837c-27.745,1.043-55.531,0.75-83.271,1.659c-13.038,0.427-26.083-0.107-39.122,0.115
	c-6.676,0.114-13.283,0.854-19.938,1.135c-4.509,0.19-8.761-0.846-13.328-0.608c-26.048,1.362-52.068,2.967-78.162,1.833
	c-18.616-0.809-37.469-1.378-56.103-1.316c-6.64,0.022-13.176-0.77-19.807-0.752C55.398,381.815,48.08,378.801,42.238,380.673z"/>
<path style="fill:#95CECA;" d="M42.238,392.082c-8.354,1.339-18.764,0.855-27.49,1.316c-5.897,0.311-14.826,2.693-11.91,6.599
	c1.053,1.41,3.947,1.443,6.559,1.489c6.019,0.106,12.265-0.013,18.272-0.15c7.561-0.173,15.321-0.417,22.886-0.229
	c5.044,0.125,9.531,1.082,14.635,1.177c14.88,0.279,29.74,0.735,44.619,1.036c20.25,0.411,40.824,0.01,61.054-0.376
	c6.501-0.124,13.006-0.156,19.51-0.144c15.467,0.029,30.93,0.328,46.399,0.295c7.732-0.016,15.467-0.11,23.184-0.363
	c6.181-0.202,11.413,0.125,17.446,0.252c31.022,0.653,62.549-0.167,93.579-0.562c18.327-0.233,36.578,0.194,54.926-0.173
	c14.752-0.295,29.572-0.142,44.307-0.596c7.516-0.232,15.137-0.88,22.599-1.393c2.002-0.138,6.6-0.068,8.042-0.837
	c4.325-2.307-0.92-9.208-4.129-9.812c-4.027-0.759-8.222,0.967-12.234,1.075c-14.276,0.385-28.659,0.654-42.949,0.509
	c-23.513-0.239-47.067-0.023-70.554,0.419c-27.744,0.521-55.531,0.376-83.271,0.83c-13.038,0.214-26.083-0.054-39.122,0.058
	c-6.676,0.056-13.283,0.426-19.938,0.567c-4.509,0.095-8.761-0.423-13.328-0.304c-26.048,0.681-52.068,1.484-78.162,0.917
	c-18.616-0.405-37.469-0.689-56.103-0.658c-6.64,0.011-13.176-0.384-19.807-0.376C55.398,392.652,48.08,391.145,42.238,392.082z"/>
<g>
	<path style="fill:#45BAB7;" d="M145.973,127.064c-5.941,0.89-15.882,10.426-19.86,12.786c-8.598,5.103-16.585,11.013-24.782,16.679
		c-12.855,8.886-24.844,19.424-36.347,29.956c-14.155,12.959-27.833,26.702-37.132,43.614c-8.363,15.21-13.994,34.561-17.202,51.594
		c-3.56,18.903-1.097,38.502,2.622,57.236c3.154,15.891,8.209,34.753,24.541,41.093c7.718,2.996,15.668,4.329,23.998,3.949
		c3.58-0.163,7.135-0.686,10.704-0.959c2.383-0.183,7.916,0.606,9.925-0.828c3.78-2.7-1.299-4.601-3.777-5.987
		c-5.394-3.015-9.945-7.154-14.399-11.413c-15.641-14.955-26.978-34.711-32.512-55.708c-2.835-10.758-3.681-21.985-2.628-33.054
		c0.429-4.501,0.056-9.059,1.432-13.363c1.658-5.191,4.268-10.061,6.633-14.95c4.605-9.526,9.169-18.945,14.735-27.944
		c10.46-16.912,22.55-31.39,36.987-45.038c13.509-12.771,29.254-22.768,44.603-33.125c3.894-2.627,7.773-5.278,11.593-8.015
		c2.141-1.533,8.173-4.707,2.906-6.417C147.41,126.977,146.723,126.952,145.973,127.064z"/>
	<path style="fill:#45BAB7;" d="M238.017,180.98c-0.777-0.503-1.856-0.774-3.295-0.962c-3.769-0.492-7.166-1.123-10.685-2.662
		c-7.677-3.36-14.721-7.215-21.942-11.513c-6.802-4.049-13.491-7.614-19.825-12.473c-4.455-3.417-9.598-8.31-15.065-9.896
		c1.111,6.155,13.445,12.984,17.922,16.712c7.958,6.628,16.501,12.733,23.845,19.992c6.15,6.078,14.827,8.755,19.39,16.728
		c1.084,1.893,0.767,3.83,2.973,3.729c3.926-0.18,8.195-11.618,8.306-14.754C239.738,183.217,239.274,181.794,238.017,180.98z"/>
</g>
<path style="fill:#173D39;" d="M151.272,140.803c-10.859,11.392-17.463,26.453-22.537,41.183
	c-8.952,25.988-12.923,54.843-7.275,82.078c3.829,18.463,8.874,37.659,19.287,53.648c4.623,7.1,11.362,15.496,18.546,20.222
	c6.875,4.523,13.192,5.718,10.208,15.32c-1.857,5.978-5.132,11.181-8.647,16.26c-1.641,2.371-4.199,8.254-6.575,9.652
	c-2.305,1.358-8.473,1.382-11.098,1.609c-8.861,0.762-18.003,1.507-26.882,1.693c-9.321,0.194-18.683-0.863-27.893-2.069
	c-5.736-0.75-9.74-3.882-14.207-7.268c-30.692-23.266-39.463-64.809-34.296-101.688c3.182-22.71,14.89-43.438,28.701-61.365
	c7.047-9.147,14.809-17.732,22.993-25.871c8.069-8.027,15.179-16.256,24.821-22.769c6.055-4.091,11.947-8.284,17.985-12.371
	C139.463,145.639,145.104,144.021,151.272,140.803z"/>
<path style="fill:#226B67;" d="M171.573,348.714c-0.828,5.801-5.592,13.953-8.88,18.817c-2.862,4.235-6.372,8.544-9.597,12.396
	c10.073,5.539,26.369,1.449,37.757,0.669c7.435-0.51,14.363-1.013,21.811-0.301c2.997,0.287,10.039,2.253,12.39-0.331
	c2.876-3.16-0.173-5.443-2.273-7.42c-2.615-2.464-4.786-4.682-6.736-7.853c-4.14-6.734-6.834-14.28-9.166-21.796
	c-1.377-4.437-2.542-8.926-3.265-13.528c-0.531-3.38-0.118-7.55-1.28-10.695c-5.753,0.615-6.915,17.134-8.812,21.245
	c-1.585,3.435-4.118,8.16-7.616,9.969C181.711,352.055,175.836,349.721,171.573,348.714z"/>
<path d="M510.383,277.753c-0.624-3.961-1.883-8.098-3.253-11.864c-1.494-4.105-2.203-8.402-3.786-12.451
	c-1.414-3.619-2.784-7.007-4.607-10.43c-1.945-3.655-2.285-7.708-4.283-11.353c-2.086-3.806-4.297-7.208-5.88-11.26
	c-1.489-3.81-3.667-7.549-5.913-10.978c-2.4-3.665-5.236-7.05-7.684-10.699c-2.065-3.077-3.678-6.501-6.114-9.295
	c-5.729-6.567-10.961-13.526-16.534-20.223c-5.945-7.144-12.684-13.501-19.422-19.868c-6.589-6.227-14.239-11.069-21.306-16.725
	c-7.369-5.898-16.44-10.337-24.573-15.12c-2.769-1.628-5.853-2.914-8.488-4.492c-3.477-2.082-6.059-3.901-10.131-4.946
	c-3.643-0.934-7.644-1.909-11.396-2.194c-3.96-0.3-8.351,1.286-12.141,2.376c-6,1.724-11.637,4.228-17.084,7.135
	c-7.863,3.067-15.481,7.459-22.71,11.581c-16.466,9.389-31.653,19.179-44.248,33.547c-2.894,3.301-5.826,6.095-9.015,9.09
	c-3.733,3.507-6.621,7.995-9.816,11.982c-0.313,0.39-0.61,0.791-0.917,1.186c-0.612-0.959-1.142-2.224-1.711-2.956
	c-1.454-1.872-3.123-3.469-4.737-5.195c-3.34-3.574-6.538-7.093-10.261-10.283c-6.76-5.792-13.905-11.267-21.334-16.241
	c-8.32-5.57-16.857-11.09-24.603-17.438c-3.47-2.843-7.383-4.62-11.132-7.01c-3.1-1.976-6.262-3.065-9.483-4.816
	c-1.524-0.827-3.502-0.652-4.746,0.612c-2.626,2.669-6.63,4.446-9.808,6.409c-4.746,2.933-9.602,5.678-14.47,8.404
	c-4.317,2.418-8.627,4.848-12.858,7.416c-3.626,2.2-6.565,5.127-10.14,7.382c-14.763,9.316-28.218,20.916-41.477,32.186
	c-26.043,22.135-42.99,51.858-53.702,83.937c-5.759,17.244-6.652,35.8-5.448,53.789c1.138,16.998,5.243,35.696,14.921,49.937
	c2.592,3.815,6.114,8.627,10.22,12.15c-4.187-0.065-8.464-0.451-12.55-0.496c-4.553-0.049-9.706-0.318-13.664,2.369
	c-3.601,2.445-4.146,5.939-4.096,10.026c0.048,3.829-0.07,8.524,4.375,9.786c1.791,0.509,3.798-0.154,5.623-0.113
	c3.31,0.074,6.574,0.665,9.905,0.671c6.768,0.011,13.646,0.313,20.357-0.43c14.556-1.613,29.71,1.24,44.323,1.303
	c14.608,0.062,29.265,0.364,43.86,0.963c29.818,1.222,59.814,0.381,89.657,0.396c16.752,0.008,33.481,0.041,50.228-0.447
	c10.331-0.3,20.97-0.262,31.452-0.932c3.683,0.189,7.36,0.384,11.046,0.435c6.711,0.091,13.43-0.431,20.144-0.121
	c13.928,0.645,27.771,1.733,41.724,1.731c7.049-0.001,14.1,0.022,21.148-0.019c2.935-0.017,5.631-0.505,8.52-0.694
	c3.954-0.256,7.982,0.353,11.952,0.12c13.749-0.81,27.58-0.437,41.344-1.401c12.538-0.877,24.884-3.248,37.387-4.223
	c3.709-0.289,8.413,0.477,10.319-3.357c1.587-3.195,1.861-9.919,1.495-13.414c-1.15-11-14.394-7.832-22.422-7.669
	c1.365-1.249,2.711-2.688,4.036-4.374c10.115-12.868,16.955-28.431,21.118-44.18c1.015-3.835,1.252-7.341,1.653-11.234
	c0.45-4.355,2.113-8.479,2.489-12.865C512.436,294.666,511.658,285.857,510.383,277.753z M14.5,328.32
	c-3.236-17.331-2.567-35.981,1.149-53.197c3.464-16.053,10.786-30.877,18.213-45.347c7.443-14.501,18.066-27.588,29.686-39.021
	c6.457-6.353,13.647-12.496,20.818-18.012c7.743-5.957,15.581-12.384,23.739-17.735c3.51-2.302,6.514-5.197,10.007-7.443
	c4.459-2.867,9.199-5.367,13.83-7.944c4.877-2.714,9.65-5.594,14.492-8.363c2.991-1.71,6.421-2.84,9.447-4.504
	c2.206,1.18,4.584,2.105,6.682,3.453c3.601,2.315,7.504,3.917,10.86,6.664c7.616,6.236,15.976,11.517,24.066,17.102
	c7.58,5.234,14.986,10.761,22.132,16.508c3.967,3.191,7.414,6.935,11.098,10.432c2.094,1.987,4.297,4.892,6.764,6.701
	c-2.166,3.08-4.234,6.223-6.325,9.35c-2.052-2.928-4.68-5.562-7.138-8.01c-5.341-5.32-11.114-10.338-16.68-15.437
	c-10.283-9.421-21.997-17.232-33.175-25.544c-3.817-2.838-8.01-5.074-11.894-7.839c-4.888-3.48-6.831-6.599-13.192-3.805
	c-4.991,2.192-9.696,5.454-14.156,8.559c-6.065,4.222-12.46,7.917-18.182,12.611c-21.841,17.913-40.659,38.004-56.571,61.483
	c-8.843,13.047-15.734,28.963-19.948,44.133c-4.409,15.866-5.488,30.642-3.336,46.976c1.85,14.043,7.055,30.632,15.056,42.489
	c4.118,6.104,9.356,12.075,14.661,17.145c2.263,2.162,4.844,4.327,7.524,5.948c1.456,0.88,2.788,1.661,4.154,2.539
	c-4.471-0.202-8.944-0.412-13.432-0.46c-4.431-0.047-8.767-0.467-13.181-0.722c-4.193-0.243-9.585,0.838-13.275-1.309
	C22.462,366.45,17.598,344.915,14.5,328.32z M197.294,320.77c0.012,9.536,1.71,19.134,5.362,27.952
	c3.613,8.722,7.399,17.799,13.911,24.796c1.883,2.023,3.977,3.643,6.221,4.958c-4.593,0.064-9.188,0.128-13.778,0.088
	c-8.956-0.078-18.039,0.916-27.072,0.945c-8.354,0.026-16.708-0.042-25.062-0.104c2.67-3.376,4.708-7.785,6.505-10.685
	c4.728-7.624,8.179-15.416,11.309-23.833c6.391-17.187,11.306-34.454,12.506-52.801c1.215-18.553,3.184-36.938,1.526-55.549
	c-1.583-17.758-5.828-35.327-10.989-52.325c-1.321-4.35-3.417-8.718-5.332-12.845c-2.153-4.637-4.218-9.525-6.679-14.025
	c-2.026-3.705-4.548-7.037-6.547-10.752c-1.279-2.377-2.636-4.176-4.32-5.796c0.152,0.055,0.305,0.11,0.462,0.184
	c1.52,0.708,4.297,3.354,5.75,4.39c2.124,1.514,4.164,3.166,6.289,4.619c4.845,3.312,9.746,6.669,14.444,10.244
	c6.283,4.782,13.131,9.241,18.964,14.57c4.762,4.353,9.062,9.397,13.995,13.533c4.587,3.845,9.884,8.418,12.786,13.888
	c-0.611,0.867-1.214,1.74-1.844,2.595c-5.068,6.872-9.732,15.643-12.676,23.672c-3.801,10.37-8.07,20.879-11.026,31.524
	c-2.853,10.276-4.835,21.691-5.421,32.343C196.061,301.851,197.282,311.253,197.294,320.77z M150.917,379.362
	c-19.981-0.125-39.948-0.663-59.929-0.756c-1.831-0.008-3.66-0.059-5.487-0.115c-0.671-0.868-1.851-1.302-2.841-2.065
	c-2.108-1.629-4.052-3.142-6.253-4.654c-5.996-4.12-11.308-10.161-15.673-15.936c-7.677-10.158-12.487-21.105-15.709-33.418
	c-4.019-15.363-6.106-31.08-2.708-46.819c3.285-15.214,9.036-29.089,15.985-42.954c11.479-22.907,29.837-42.896,48.616-59.938
	c10.169-9.227,20.915-16.869,32.306-24.512c2.55-1.711,5.001-3.254,7.7-4.685c1.675-0.887,3.158-2.172,4.793-2.729
	c2.8,3.322,4.501,6.631,6.657,10.571c2.65,4.846,5.482,9.112,7.689,14.252c3.977,9.261,8.152,18.207,10.95,27.922
	c5.957,20.675,8.712,42.712,8.782,64.178c0.035,10.851-1.784,21.842-2.419,32.687c-0.609,10.404-2.168,21.199-4.883,31.295
	c-2.91,10.822-7.342,21.358-11.664,31.674c-2.265,5.407-5.213,10.059-8.43,14.957C156.226,371.627,153.911,376.248,150.917,379.362z
	 M494.494,381.983c3.023,0.074,3.448-0.419,3.881,2.496c0.275,1.848-0.435,4.17-0.653,6.041c0.092-0.788-0.333,1.46-0.265,2.503
	c-0.313,0.119-0.692,0.239-1.115,0.28c-2.979,0.288-5.928,0.487-8.885,0.909c-12.426,1.771-24.79,3.514-37.36,3.906
	c-12.972,0.403-26.106,0.995-39.049,0.958c-25.255-0.07-50.358,0.69-75.661-0.862c-7.214-0.443-14.399-0.46-21.627-0.279
	c-0.881,0.023-1.761,0.026-2.642,0.018c-3.594-0.395-7.189-0.514-10.785-0.475c-2.849-0.157-5.702-0.285-8.569-0.249
	c-7.056,0.089-13.995,0.651-21.025,0.976c-2.28,0.106-4.545,0.316-6.802,0.562c-8.713,0.174-17.427,0.315-26.149,0.318
	l-81.348,0.042c-13.909,0.007-27.782-0.383-41.685-0.624c-13.005-0.223-26.15,0.076-39.132-0.526
	c-12.125-0.562-24.755-2.042-36.825-0.433c-6.463,0.862-13.419,0.542-19.95,0.431c-2.922-0.05-5.955-0.245-8.849-0.702
	c-1.267-0.201-2.399,0.776-3.524-0.675c-0.25-0.322-0.166-4.086-0.113-4.452c1.072-7.369,12.122-5.308,17.684-5.374
	c5.635-0.067,10.99-0.249,16.525-0.858c0.118-0.013,0.239-0.03,0.357-0.043c3.225,0.22,6.708-0.267,9.747-0.238
	c4.733,0.044,9.431,0.439,14.172,0.399c20.342-0.175,40.762,0.13,61.117,0.689c24.17,0.665,48.465,0.627,72.641,0.318
	c9.879-0.126,19.732-0.602,29.674-0.562c11.213,0.044,23.005,1.512,33.958-0.714c0.108-0.022,0.205-0.06,0.305-0.095
	c2.271,0.001,4.543-0.091,6.825-0.335c10.041-1.075,21.058-0.49,31.048,0.539c10.417,1.073,20.925-0.706,31.361-0.741
	c25.841-0.085,51.746,0.424,77.578-0.05c11.075-0.203,22.297-0.761,33.334-1.5c9.399-0.628,17.6,0.199,25.014-1.036
	C476.642,382.276,485.579,381.762,494.494,381.983z M501.284,310.27c-0.981,4.142-0.875,8.341-1.847,12.457
	c-1.844,7.817-4.585,16.113-8.61,23.016c-4.39,7.531-8.009,15.155-13.759,21.815c-1.297,1.502-2.832,3.385-4.517,5.042
	c-9.25,0.419-18.391,1.748-27.672,1.961c-4.24,0.097-8.342,0.897-12.587,0.736c-4.918-0.186-9.953-0.299-14.859,0.144
	c-20.54,1.855-41.676,0.558-62.309,0.49c-10.184-0.034-20.369-0.041-30.552-0.132c-4.895-0.044-9.655,0.846-14.543,0.909
	c-4.997,0.065-9.741-0.605-14.691-1.088c-4.751-0.463-9.562,0.118-14.327,0.046c-4.54-0.068-9.009-0.271-13.538,0.11
	c-9.486,0.801-19.642-0.681-29.075-2.179c-9.866-1.567-16.482-6.719-21.291-15.493c-4.953-9.035-9.362-18.512-10.702-28.788
	c-1.143-8.771-0.648-17.585-1.737-26.369c-1.226-9.89,0.896-19.738,2.539-29.431c3.404-20.072,10.768-39.414,19.815-57.527
	c3.77-7.546,8.503-15.089,13.526-21.861c5.577-7.52,10.211-16.1,17.304-22.364c3.538-3.124,6.359-6.867,9.53-10.351
	c1.918-2.107,4.051-3.933,6.17-5.774c5.313-3.469,10.726-6.561,15.562-10.727c5.432-4.679,12.664-7.73,18.791-11.505
	c7.203-4.439,13.91-9.106,21.575-12.819c7.546-3.656,15.321-6.481,23.683-7.562c3.86-0.499,7.657,0.419,11.427,1.332
	c1.583,0.383,3.263,0.718,4.772,1.338c2.813,1.157,3.858,3.218,6.354,4.444c2.006,0.986,3.601,1.324,5.614,2.581
	c3.218,2.01,6.544,3.869,9.784,5.847c3.893,2.379,7.937,4.563,11.786,7.002c4.046,2.563,7.383,5.969,11.257,8.765
	c13.097,9.459,25.159,20.375,35.062,33.258c9.28,12.075,19.117,23.588,27.162,36.56c3.651,5.889,5.828,12.355,9.315,18.336
	c2.074,3.556,2.771,6.755,4.093,10.543c1.227,3.519,3.303,6.697,4.667,10.176c2.55,6.504,4.378,13.559,6.191,20.321
	c2.134,7.958,2.38,15.762,2.517,23.959C503.242,302.011,502.311,305.934,501.284,310.27z"/>
<g>
</g>
<g>
</g>
<g>
</g>
<g>
</g>
<g>
</g>
<g>
</g>
<g>
</g>
<g>
</g>
<g>
</g>
<g>
</g>
<g>
</g>
<g>
</g>
<g>
</g>
<g>
</g>
<g>
</g>
</svg>
