<?xml version="1.0" encoding="iso-8859-1"?>
<!-- Generator: Adobe Illustrator 19.0.0, SVG Export Plug-In . SVG Version: 6.00 Build 0)  -->
<svg version="1.1" id="Layer_1" xmlns="http://www.w3.org/2000/svg" xmlns:xlink="http://www.w3.org/1999/xlink" x="0px" y="0px"
	 viewBox="0 0 511.999 511.999" style="enable-background:new 0 0 511.999 511.999;" xml:space="preserve">
<path style="fill:#D3D3D3;" d="M17.9,482.28c0.046-1.508-0.245-3.03-0.489-4.529c-0.509-3.128,0.439-5.445,0.586-8.441
	c0.173-3.565,0.226-7.141,0.338-10.708c0.213-6.814,0.438-13.628,0.639-20.444c0.497-15.87,1.007-31.741,1.59-47.609
	c0.29-7.876,0.597-15.75,0.931-23.625c0.324-7.656-0.848-15.03-1.72-22.664c-0.174-1.529-0.553-3.339-1.983-3.908
	c-1.248-0.496-2.647,0.249-3.986,0.132c-1.753-0.153-3.075-1.808-3.433-3.531c-0.614-2.945,0.145-5.124,2.654-6.636
	c1.557-0.939,3.314-1.619,4.578-2.925c3.29-3.401,1.308-7.697,1.479-11.716c0.204-4.797,0.236-9.454-0.08-14.298
	c-0.309-4.737-0.006-9.354-0.941-14.063c-0.198-0.995-0.551-2.134-1.501-2.492c-1.284-0.484-2.538,0.806-3.896,0.999
	c-1.55,0.22-2.982-1.103-3.442-2.598c-0.462-1.496-0.198-3.108,0.07-4.65c0.305-1.761,0.882-3.847,2.593-4.364
	c0.831-0.251,1.779-0.054,2.548-0.457c0.964-0.504,1.264-1.729,1.348-2.813c0.214-2.783-0.319-5.562-0.497-8.347
	c-0.177-2.785,0.053-5.743,1.603-8.063c1.614-2.416,4.46-3.785,7.328-4.255c3.144-0.516,6.315,0.034,9.417-0.375
	c3.055-0.403,6.159-0.329,9.23-0.556c16.279-1.209,32.557-2.419,48.836-3.627c1.352-0.1,2.786-0.23,3.875-1.04
	c1.684-1.255,1.945-3.669,1.744-5.759c-0.584-6.046,0.389-12.225,0.655-18.325c0.276-6.297,0.432-12.6,0.426-18.903
	c-0.001-1.199-0.055-2.534-0.905-3.381c-0.689-0.687-1.719-0.862-2.617-1.236c-2.335-0.972-3.874-3.58-3.596-6.094
	c0.312-2.811,2.647-5.066,5.273-6.118c2.626-1.052,5.525-1.125,8.353-1.185c5.139-0.108,10.277-0.217,15.414-0.326
	c2.076-0.044,4.271-0.121,6.022-1.237c1.926-1.226,2.955-3.528,3.191-5.8c0.265-2.546-0.307-4.985-0.011-7.513
	c0.311-2.653,0.153-5.353,0.024-8.021c-0.307-6.326-0.477-12.687-0.516-19.074c-0.005-0.836-0.005-1.702,0.332-2.468
	c0.966-2.201,3.988-2.423,6.362-2.042c2.079,0.335,4.155,0.871,6.257,0.741s4.308-1.089,5.243-2.975
	c1.077-2.175,0.177-4.751-0.542-7.07s-1.118-5.178,0.611-6.88c1.271-1.251,3.237-1.388,5.021-1.388
	c5.187,0.002,9.92-0.328,11.748-5.933c1.11-3.402-0.981-8.733,1.904-11.298c2.276-2.023,5.825-0.444,8.859-0.699
	c3.553-0.297,6.561-3.683,6.438-7.245c-0.092-2.675-1.659-5.528-0.345-7.86c1.126-1.999,3.794-2.448,6.087-2.387
	c3.848,0.102,7.572-0.165,10.162-3.46c2.037-2.592,0.741-7.556,0.602-10.602c-0.024-0.525-0.038-1.091,0.253-1.529
	c0.404-0.61,1.229-0.743,1.956-0.821c4.2-0.449,8.399-0.899,12.599-1.348c0.034-3.862,0.07-7.724,0.104-11.587
	c0.007-0.822,0.028-1.693,0.47-2.387c1.069-1.68,3.577-1.208,5.529-1.599c8.692-1.744,0.686-13.473,6.842-16.878
	c2.304-1.275,5.362-0.066,6.948,2.033c1.588,2.101,2.036,4.831,2.282,7.453c1.949,1.229,4.556,1.331,6.596,0.26
	c2.039-1.071,3.435-3.276,3.53-5.578c0.08-1.937-0.616-4.152,0.621-5.644c0.713-0.86,1.876-1.186,2.757-1.872
	c2.308-1.797,2.045-5.3,1.56-8.184c-0.205-1.221-0.497-2.58-1.53-3.262c-0.761-0.503-1.733-0.502-2.632-0.663
	c-3.017-0.545-5.475-3.335-5.636-6.397c-0.209-3.978,2.509-6.369,6.06-6.417c4.59-0.064,9.141-1.096,13.758-1.142
	c4.542-0.046,9.094,0.941,13.951,1.507c0.369,0.042,0.63,7.774,0.494,8.38c-0.401,1.78-1.596,3.498-3.354,3.986
	c-1.298,0.359-2.718,0.016-4.006,0.412c-2.791,0.859-3.472,4.623-2.66,7.429c0.812,2.805,2.58,5.344,2.851,8.251
	c0.179,1.929-0.315,3.936,0.279,5.78c0.613,1.904,2.441,3.354,4.434,3.518c1.993,0.164,4.034-0.97,4.948-2.749
	c1.044-2.03,0.706-4.695,2.209-6.412c1.954-2.234,5.933-1.242,7.641,1.185c1.709,2.427,1.759,5.621,1.61,8.585
	c-0.104,2.073-0.117,4.512,1.539,5.766c1.159,0.879,2.743,0.835,4.166,1.135c3.03,0.637,6.002,3.491,6.805,6.521
	c0.827,3.123-1.791,6.928,1.103,9.602c2.797,2.581,7.985-0.072,10.856,2.427c1.81,1.575,1.718,4.361,1.501,6.751
	c-0.217,2.389-0.246,5.195,1.621,6.701c2.139,1.725,5.274,0.63,8.017,0.803c4.782,0.303,8.077,3.756,6.839,8.316
	c-0.697,2.568-1.456,5.613,0.258,7.649c0.985,1.17,2.571,1.661,4.095,1.788c1.524,0.127,3.061-0.052,4.586,0.059
	c2.529,0.184,5.038,1.215,6.769,3.068c2.896,3.097,1.621,6.705,2.549,10.385c0.655,2.597,2.643,5.051,5.298,5.397
	c2.697,0.352,5.462-1.471,8.048-0.633c1.732,0.562,2.918,2.242,3.365,4.008c0.447,1.766,0.272,3.624,0.046,5.431
	c-0.328,2.62-0.512,5.829,1.671,7.315c1.665,1.133,3.883,0.641,5.885,0.418c2.519-0.282,5.227-0.007,7.282,1.477
	c4.191,3.027,3.049,12.553,3.802,17.123c0.974,5.919-0.782,13.236-1.244,19.216c-0.126,1.631-0.232,3.363,0.534,4.809
	c1.261,2.379,4.377,3.063,7.063,2.884c3.942-0.263,7.668-0.545,11.628-0.438c4.75,0.13,12.129,0.214,15.883,3.56
	c2.197,1.957,3.002,5.67,1.058,7.879c-1.372,1.559-3.766,2.098-4.778,3.912c-0.596,1.067-0.577,2.359-0.542,3.581
	c0.205,7.189,0.414,14.274,0.121,21.391c-0.191,4.655-0.384,9.308-0.575,13.963c-0.098,2.384-0.095,5.055,1.554,6.781
	c1.759,1.841,4.674,1.845,7.192,1.471c8.312-1.232,17.286,0.719,25.625,1.563c8.955,0.907,18.34,2.769,27.333,2.769
	c3.984,0.403,7.968,0.807,11.952,1.21c1.438,0.146,5.107-0.172,6.263,0.604c1.137,0.765,1.295,3.168,1.827,4.515
	c0.892,2.257,2.095,4.037,2.157,6.542c0.095,3.763-0.643,7.692-0.991,11.439c-0.055,0.594-0.069,1.29,0.391,1.668
	c0.39,0.319,0.95,0.266,1.454,0.272c2.654,0.027,5.046,2.46,5.029,5.113c-0.017,2.654-2.441,5.055-5.094,5.048
	c-1.435-0.004-3.175-0.503-4.088,0.604c-0.511,0.62-0.502,1.503-0.468,2.306c0.25,5.856,0.983,11.928,0.55,17.765
	c-0.434,5.846-0.677,11.673-0.832,17.533c-0.049,1.887,0.067,4.113,1.642,5.153c0.955,0.63,2.194,0.621,3.25,1.058
	c1.805,0.747,2.846,2.736,3.029,4.681c0.183,1.945-0.339,3.88-0.856,5.762c-2.961-1.164-6.612-0.254-8.679,2.162
	c-2.813,3.288-1.329,6.13-0.521,9.638c0.996,4.326,0.394,9.684,0.575,14.131c0.377,9.265,0.753,18.529,1.13,27.793
	c0.626,15.405,1.252,30.81,1.878,46.215c0.27,6.627,0.954,13.083-0.359,19.563c-1.466,7.235-0.336,15.771-0.384,23.151
	c-0.006,0.855-0.001,1.752,0.405,2.503c1.063,1.967,3.871,1.72,6.088,2.015c6.777,0.9,11.015,10.606,5.779,15.48
	c-4.765,4.434-12.316,3.147-18.241,3.387c-17.24,0.7-34.576,1.05-51.79,0.074c-56.504-3.2-113.023-2.301-169.555-1.832
	c-25.111,0.209-50.231-0.521-75.341-0.246c-36.891,0.403-73.776,1.354-110.664,2.011c-15.699,0.28-31.407,0.74-47.1,0.476
	c-7.261-0.123-14.391-1.271-21.538-2.434c-1.767-0.287-4.476-0.148-5.933-1.352c-1.931-1.595-1.669-5.075-1.642-7.297
	c0.021-1.668,0.047-3.372,0.609-4.942c0.562-1.57,1.767-3.011,3.389-3.398c1.903-0.454,3.93,0.6,5.826,0.12
	c1.877-0.474,3.109-2.369,3.439-4.275C17.849,483.105,17.887,482.693,17.9,482.28z"/>
<g>
	<path style="fill:#545454;" d="M253.735,30.853c-2.807-0.14-6.668-0.753-8.631,1.322c-2.106,2.227,0.084,7.158-0.856,9.882
		c-3.229,0.418-6.224,2.304-9.625,2.043c-0.21-3.557-0.911-6.853-1.1-10.398c-2.447-0.123-8.175-0.86-9.676,1.421
		c-0.915,1.391-0.45,5.596-0.511,7.285c-0.09,2.43,0.105,4.897-0.033,7.314c-3.141,0.739-6.473,0.662-9.629,1.573
		c-3.922,1.131-2.388,4.055-2.214,7.718c0.094,1.979,1.014,5.479-0.375,6.596c-0.713,0.574-3.409,0.606-4.418,0.905
		c-1.99,0.59-5.418,1.25-7.059,2.615c-3.963,3.296,1.93,11.416-2.323,14.844c-1.977,1.594-7.72,0.987-10.141,1.105
		c-3.462,0.168-6.383-0.448-6.354,3.183c0.02,2.397,0.524,4.754,0.406,7.183c-0.054,1.107,0.292,5.749-0.385,6.592
		c-1.133,1.41-5.9,0.417-7.551,0.544c-2.124,0.163-8.719-0.792-9.841,1.737c-0.376,0.847,1.019,4.079,1.103,5.144
		c0.197,2.507,0.232,5.207-0.331,7.659c-0.65,2.833-1.026,2.432-3.944,2.644c-2.161,0.157-4.366,0.543-6.531,0.505
		c-2.104-0.037-4.57-0.72-6.304,1.044c-1.389,1.413-0.967,3.461-0.979,5.49c-0.019,3.203,1.057,9.295-2.359,11.178
		c-3.625,1.997-8.211,0.564-11.911,1.196c-1.944,0.332-1.897,0.177-2.472,2.248c-0.713,2.566-0.848,6.171-0.639,8.836
		c0.402,5.107,4.458,3.412,8.641,3.237c19.515-0.814,39.223-1.277,58.789-1.277c10.75,0,21.373,0.937,32.099,1.255
		c9.992,0.297,20.068,0.206,30.088-0.588c11.864-0.941,23.954-0.997,35.852-1.19c16.484-0.269,32.782,0.968,49.217,1.559
		c6.753,0.243,13.528-0.213,20.278,0.114c4.544,0.22,9.401,0.654,13.941,0.397c1.888-0.107,2.789-0.32,3.658-1.656
		c1.508-2.316,1.025-6.515,1.358-9.17c0.423-3.374,0.237-4.129-3.292-3.977c-3.803,0.165-10.026,1.354-13.498-0.597
		c0.595-2.936-0.018-5.585-0.252-8.621c-0.203-2.621,0.795-7.598-1.42-9.079c-3.521-2.354-9.681,1.318-13.366-1.208
		c-2.329-1.596-2.74-5.904-2.876-8.565c-0.106-2.09,0.128-4.187-0.568-6.216c-0.733-2.134-0.014-1.195-1.926-2.048
		c-3.738-1.666-9.949,0.49-13.349-1.79c-2.282-1.529-1.256-7.355-1.582-9.911c-0.647-5.064-0.172-6.875-5.788-6.616
		c-2.876,0.133-10.049,1.2-11.791-1.824c-0.948-1.649,0.278-5.951,0.287-7.778c0.011-2.109-0.514-4.182-0.569-6.271
		c-3.011-0.266-9.963,0.019-11.983-2.474c-2.354-2.906-0.842-9.527-1.547-13.118c-1.415-0.002-2.651-0.567-4.03-0.741
		c-1.494-0.19-4.234,0.644-5.432-0.55c-1.813-1.807-0.73-7.526-0.73-9.731c-0.001-3.642,0.573-6.134-3.61-7.098
		c-1.107-0.254-4.003-0.677-5.091-0.299c-1.674,0.582-0.851,0.245-1.659,1.952c-1.483,3.135-0.631,6.747-4.294,6.943
		c-2.298,0.124-5.431-0.382-6.491-2.029c-1.964-3.05,1.163-7.955-2.473-9.871c-3.249-1.712-7.454-0.586-10.899-0.544
		C254.43,30.882,254.09,30.871,253.735,30.853z"/>
	<path style="fill:#545454;" d="M256.084,206.642c-1.698,0.811-1.938,4.13-2.47,5.676c-1.876,5.45-4.711,10.247-6.041,15.979
		c-1.182,5.088-2.286,11.094,3.216,13.595c3.892,1.77,10.855,4.912,14.197,0.478c3.147-4.174,4.882-10.265,4.52-15.444
		c-0.449-6.423-2.963-14.682-8.461-18.572c-0.983-0.695-3.465-2.225-4.751-1.798C256.222,206.582,256.151,206.611,256.084,206.642z"
		/>
	<path style="fill:#545454;" d="M98.482,357.573c-0.286-0.545-0.726-0.704-2.106-1.01c-1.764-0.39-3.947-0.04-5.721,0.179
		c-1.127,0.139-4.636,0.006-5.459,0.548c-1.244,0.818-0.889,1.997-0.965,3.656c-0.422,9.352,0.048,18.758-0.379,28.063
		c-0.459,9.992-0.795,20.003-0.385,30.002c0.544,13.245,0.977,27.274,0.28,40.493c-0.356,6.755-1.944,19.284,2.58,25.182
		c1.759,2.293,11.709,3.068,13.488,0.404c1.81-2.71-1.056-11.275-1.422-14.126c-0.787-6.121-1.471-12.146-0.547-18.251
		c0.973-6.424,0.907-13.017,1.682-19.485c1.024-8.539,1.846-17.125,2.784-25.672c0.934-8.521,2.09-16.954,3.677-25.372
		c0.564-2.996,2.771-10.373,0.904-13.096c-1.441-2.101-4.057-1.053-5.915-2.513c-2.65-2.081-1.198-5.018-2.03-7.66
		C98.752,358.292,98.64,357.874,98.482,357.573z"/>
	<path style="fill:#545454;" d="M132.305,356.687c0.134,2.651-0.634,5.272-1.357,7.797c-0.395,1.376-0.872,3.837-2.013,4.556
		c-1.491,0.938-3.65,0.031-5.105,0.329c-2.084,0.426-0.838,3.301-0.862,4.963c-0.12,7.852-0.14,15.73,0.189,23.602
		c0.246,5.905,1.013,11.516,1.752,17.345c0.474,3.737,0.362,7.534,0.673,11.286c0.5,6.025,1.049,12.036,1.527,18.065
		c0.203,2.553-0.15,5.061-0.034,7.618c0.13,2.845,0.644,5.677,1.001,8.498c0.543,4.286,1.311,8.693,1.184,13.024
		c-0.068,2.313-1.838,7.178,0.079,8.691c0.885,0.697,2.233,0.602,3.249,0.795c2.22,0.422,4.298,0.828,6.566,0.977
		c2.167,0.141,4.221,0.606,6.363,0.859c0.719,0.085,2.56,0.561,3.209,0.296c1.991-0.813,1.067-6.416,1.133-8.112
		c0.355-9.018-0.226-18.156-0.144-27.197c0.053-5.934,0.948-11.899,1.244-17.831c0.338-6.788-0.115-14.227,1.368-20.884
		c0.571-2.564,1.681-4.837,2.152-7.507c0.635-3.593,1.176-7.203,1.663-10.819c0.758-5.608,0.811-11.241,1.54-16.835
		c0.231-1.771,1.777-8.302,0.172-9.626c-0.561-0.463-2.202,0.218-2.811,0.247c-1.219,0.059-2.311-0.143-3.378-0.746
		c-1.78-1.006-1.975-2.282-2.092-4.262c-0.133-2.234,1.361-3.657-1.147-4.54c-1.803-0.635-3.874-0.574-5.746-0.992
		C140.469,355.79,136.277,356.833,132.305,356.687z"/>
	<path style="fill:#545454;" d="M200.392,359.04c0.829,2.864,1.285,6.455,4.493,7.634c1.528,0.562,4.285,0.046,5.069,1.676
		c0.831,1.726-0.451,5.3-0.602,7.018c-1.15,13.085-2.092,26.228-3.374,39.31c-1.495,15.258-4.226,30.559-4.959,45.873
		c-0.296,6.185,0.147,11.967,1.327,18.014c0.484,2.485,0.517,5.147,1.496,7.495c-4.273,2.062-10.238,0.007-14.756,0.326
		c-2.077,0.147-3.955,0.249-6.03,0.004c-0.867-0.103-2.663,0.042-3.336-0.368c-1.674-1.021-0.445-2.926,0.119-4.53
		c1.422-4.044,1.019-8.188,0.807-12.421c-0.291-5.807-1.596-11.494-1.954-17.296c-0.979-15.887-0.742-31.815-1.775-47.708
		c-0.508-7.805-1.081-15.486-1.989-23.258c-0.333-2.857-0.516-5.746-1.116-8.563c-0.242-1.137-0.642-1.27,0.053-1.993
		c0.7-0.727,4.232-1.479,5.204-1.751c1.089-0.305,1.905-0.252,2.701-1.169c2.432-2.798,0.613-8.811,3.339-10.787
		c2.454-1.779,6.04-0.426,8.72-0.047C196.164,356.836,199.55,356.132,200.392,359.04z"/>
	<path style="fill:#545454;" d="M269.883,356.48c1.449,0.124,3.223-0.064,4.516,0.666c3.462,1.952-1.394,8.535,3.2,10.553
		c2.641,1.16,8.368-0.641,8.997,3.024c0.474,2.762-0.6,6.311-0.697,9.119c-0.117,3.371-0.16,6.739-0.16,10.115
		c0,8.019,0.564,16.062,0.014,24.066c-0.684,9.97-2.277,20.044-3.576,29.957c-1.105,8.434-1.588,16.926-1.857,25.424
		c-0.119,3.768-0.313,7.529-0.335,11.299c-0.006,1.012,0.343,3.7-0.157,4.639c-1.03,1.938-5.525,0.846-7.341,0.792
		c-6.389-0.193-12.865-0.234-19.276-0.219c-6.801,0.016-13.758,1.528-20.525,0.194c-3.367-0.663-0.577-6.438-0.332-8.885
		c1.114-11.18-0.88-22.933-1.899-34.053c-1.508-16.463-2.419-32.896-3.074-49.418c-0.298-7.525-1.633-14.842-2.211-22.292
		c-0.199-2.559,1.495-2.452,3.915-2.423c2.383,0.027,4.082,1.238,4.884-1.301c0.877-2.772-0.556-7.011,0.904-9.434
		c1.197-1.987,4.884-2.167,6.908-2.427c4.517-0.583,10.361-1.481,14.861-0.748C261.052,355.845,265.397,356.096,269.883,356.48z"/>
	<path style="fill:#545454;" d="M312.126,358.21c-0.432,2.581-0.233,7.221-2.652,8.799c-2.111,1.378-6.138-0.516-7.907,1.262
		c-1.269,1.276,0.292,5.206,0.492,6.835c0.689,5.631,1.251,11.267,1.692,16.929c0.569,7.323,1.157,14.637,1.864,21.948
		c0.72,7.446,2.392,14.718,3.296,22.135c1.422,11.649,1.568,23.242,2.039,34.941c0.093,2.315-0.165,4.628-0.344,6.932
		c-0.158,2.026-1.446,4.793-1.08,6.794c0.278,1.528,0.635,1.27,2.204,1.477c2.65,0.35,5.167,1.276,7.853,1.461
		c2.813,0.193,5.581-0.436,8.401-0.151c1.542,0.157,2.633,0.428,3.948-0.629c2.634-2.118,1.285-7.602,1.043-10.53
		c-0.558-6.746-0.763-13.372-0.376-20.116c0.363-6.311,1.423-12.645,2.22-18.916c1.079-8.494,2.396-17.299,2.182-25.888
		c-0.173-6.985-0.766-14.011-0.477-21.001c0.247-5.977,4.201-20.453-3.962-22.88c-1.833-0.546-3.148-1.028-3.519-3.151
		c-0.339-1.94,1.072-4.122,0.509-5.998c-0.649-2.158-3.047-2.104-4.974-2.375C320.648,355.535,317.146,355.998,312.126,358.21z"/>
	<path style="fill:#545454;" d="M363.044,357.702c0.072,2.505-0.504,5.568-2.485,7.331c-1.613,1.437-5.437,0.666-6.495,2.48
		c-0.34,0.584-0.046,1.401,0.015,2.051c0.214,2.297,0.234,4.61,0.428,6.917c0.469,5.597,1.013,11.183,1.302,16.793
		c0.652,12.682,3.12,25.292,4.282,37.937c1.006,10.936,1.602,21.892,1.601,32.875c0,5.194-0.511,10.356-0.508,15.547
		c0.002,2.708-0.984,5.332,2.057,5.803c4.86,0.753,9.592,0.055,14.458,0.284c1.363,0.065,5.621,0.952,6.672-0.424
		c0.597-0.782-0.123-3.044-0.167-3.97c-0.19-3.885-0.106-7.785-0.309-11.676c-0.375-7.181,0.345-14.102,1.316-21.214
		c2.31-16.938,4.103-33.908,3.417-51.038c-0.276-6.892-0.788-14.077-0.252-20.96c0.118-1.509,1.42-5.21,0.568-6.59
		c-0.561-0.909-2.691-1.507-3.639-1.832c-1.737-0.595-4.244-0.464-5.192-2.191c-1.235-2.249,0.46-5.129,0.439-7.408
		c-0.018-2.048-1.06-2.161-3.001-2.472C373.203,355.249,368.792,356.224,363.044,357.702z"/>
	<path style="fill:#545454;" d="M413.625,358.04c0.657,1.845,1.819,6.331-0.348,7.447c-0.838,0.431-2.803,0.189-3.794,0.411
		c-1.252,0.283-3.755,0.846-4.67,1.813c-0.917,0.967-0.613,1.66-0.45,2.875c0.331,2.474,0.199,4.921,0.419,7.404
		c0.51,5.766,1.262,11.511,1.784,17.278c2.288,25.296,7.437,50.805,6.002,76.295c-0.126,2.237,0.138,4.471,0.047,6.727
		c-0.053,1.318-1.271,4.791-0.528,5.891c0.611,0.902,4.727,1.031,5.785,1.272c2.513,0.574,4.836,0.88,7.409,0.795
		c0.046-4.196,0.964-8.321,1.372-12.491c0.802-8.18,1.667-16.32,2.063-24.535c0.881-18.287-0.756-36.232-1.349-54.482
		c-0.225-6.943-0.352-13.908-0.385-20.851c-0.021-4.582,0.362-9.604-0.377-14.14c-0.319-1.959-0.396-2.593-2.238-2.893
		C420.661,356.251,416.186,356.3,413.625,358.04z"/>
</g>
<g>
	<path style="fill:#898989;" d="M417.124,276.323c21.466-2.159,43.779-2.485,65.389-2.474c7.701,0.004,18.889-1.635,21.482,7.42
		c-3.036,3.068-12.46,1.438-16.548,1.615c-9.802,0.422-19.686,0.02-29.519,0.24c-11.138,0.25-22.509,1.254-33.545,2.774
		c-1.851,0.256-4.724,1.463-6.179,0.009c-1.471-1.471-2.224-9.357-0.774-10.546C417.916,275.311,418.227,275.527,417.124,276.323z"
		/>
	<path style="fill:#898989;" d="M431.965,327.645c4.565-2.511,13.645-1.555,18.978-1.785c7.845-0.338,15.763-0.101,23.618-0.068
		c6.689,0.027,17.971-0.835,22.932,4.311c3.314,3.439,2.825,9.979-2.264,11.455c-4.679,1.357-11.842-0.018-16.688-0.001
		c-7.423,0.026-14.889,0.328-22.305,0.63c-6.177,0.252-12.169,0.851-18.333,0.603c-2.54-0.103-6.977-1.559-9.314-0.642
		c0.113-2.313,1.364-4.593,1.507-6.936C430.222,333.083,428.896,331,431.965,327.645z"/>
	<path style="fill:#898989;" d="M249.861,259.318c-2.931,2.236-7.374,3.314-10.76,4.698c-7.199,2.944-14.636,5.521-22.013,7.969
		c-11.521,3.824-22.463,8.574-33.535,13.485c-8.592,3.81-17.006,8.171-25.757,11.583c-3.842,1.497-14.756,4.115-15.494,9.291
		c1.832,1.217,5.092,0.669,7.214,0.603c5.686-0.177,11.417-0.998,17.11-0.975c13.495,0.053,26.992,0.933,40.496,0.959
		c30.839,0.058,61.683-0.614,92.519-0.617c12.309-0.001,24.573,0.503,36.855,0.626c5.429,0.054,10.883,0.511,16.309,0.278
		c2.611-0.112,12.648-0.293,14.293-2.835c2.307-3.564-8.487-5.849-10.849-6.764c-11.568-4.477-23.208-8.653-34.675-13.413
		c-12.053-5.002-24.434-9.549-36.347-14.823C274.818,264.776,263.593,259.181,249.861,259.318z"/>
	<path style="fill:#898989;" d="M91.563,274.159c-7.755,1.786-16.591,1.06-24.496,1.263c-11.049,0.282-21.962-0.055-32.975-0.338
		c-4.785-0.123-26.444-2.245-27.257,4.95c-0.879,7.773,20.229,5.885,23.718,5.875c16.874-0.047,33.739,0.636,50.657,0.617
		c3.161-0.004,12.271,1.973,14.858-0.204C98.776,284.044,98.418,272.953,91.563,274.159z"/>
	<path style="fill:#898989;" d="M81.67,325.48c-17.157,0-34.535-1.82-51.654-0.223c-4.996,0.465-10.906,0.379-15.722,1.924
		c-3.146,1.008-3.583,2.792-3.967,5.975c-1.238,10.266,15.339,8.005,22.093,8.325c8.478,0.401,16.938,0.849,25.422,1.011
		c5.845,0.111,12.621,0.652,18.338-0.618c2.925-0.649,4.596-1.523,5.565-4.32C82.6,335.095,83.599,328.75,81.67,325.48z"/>
	<path style="fill:#898989;" d="M230.632,181.089c-17.304-0.548-35.898-3.308-52.95-0.414c-8.665,1.471-18.54,0.099-27.362,0.265
		c-9.618,0.181-19.236,0.474-28.858,0.465c-7.475-0.007-16.805-0.289-23.984,2.25c-3.462,1.224-8.665,5.742-6.302,9.823
		c2.747,4.743,14.717,4.062,19.274,4.01c12.332-0.141,24.701-0.225,37.031,0.094c4.224,0.11,8.041,1.429,12.269,1.089
		c6.359-0.511,12.698-1.266,19.062-1.74c18.309-1.365,36.663-1.949,55.006-2.624c10.736-0.395,20.79,1.651,31.506,1.566
		c12.687-0.101,25.372-0.303,38.059-0.449c25.382-0.292,50.787-0.377,76.143,0.99c8.845,0.477,17.681,1.13,26.494,2.012
		c3.663,0.368,8.687,0.974,11.603-2.046c2.522-2.614,4.143-8.264,0.926-10.644c-3.387-2.506-9.919-1.752-13.783-2.011
		c-9.631-0.646-19.273-0.919-28.893-1.707c-20.967-1.718-42.164-1.886-63.183-2.705c-14.698-0.573-29.427-0.275-44.105,0.649
		c-5.862,0.369-11.368,1.704-17.08,2.354C244.851,183.071,237.355,181.302,230.632,181.089z"/>
	<path style="fill:#898989;" d="M252.952,5.176c-2.893,0-6.619-0.617-9.435-0.012c-2.657,0.571-2.154,0.343-2.622,2.802
		c-0.455,2.383-0.687,10.923,1.843,11.77c2.54,0.851,6.412-3.029,8.29,0.283c1.318,2.326-0.015,7.927,0.11,10.773
		c3.984,0.517,8.283-1.025,12.279,0.016c1.11-3.034-0.814-7.579,0.598-10.178c1.449-2.666,6.276-0.375,8.599-2.761
		c1.482-1.523,2.938-10.784,1.528-12.549c-1.159-1.451-4.287-0.365-6.129-0.438C262.407,4.656,256.964,5.628,252.952,5.176z"/>
	<path style="fill:#898989;" d="M123.685,505.148c5.986-0.097,11.968-0.259,17.953-0.471c16.726-0.593,33.468-1.37,50.204-0.725
		c20.884,0.806,41.771,2.773,62.687,1.863c8.729-0.381,17.176-2.289,25.996-2.811c10.06-0.596,20.142-1.032,30.219-0.643
		c11.985,0.463,23.967,0.891,35.954,1.328c21.981,0.802,43.866,0.276,65.808,2.284c9.782,0.895,19.79,0.053,29.672,0.346
		c10.133,0.3,20.26,0.862,30.4,0.864c9.882,0.001,20.2,0.492,29.964-1.347c3.045-0.574,7.13-1.705,7.746-5.227
		c0.319-1.826-0.094-6.073-0.802-7.741c-2.122-4.993-10.658-6.394-15.482-6.613c-13.499-0.611-27.211,0.165-40.726,0.295
		c-16.756,0.161-34.152,1.506-50.725-0.498c-8.886-1.074-17.801-2.273-26.774-2.077c-7.396,0.161-14.737,1.258-22.064,2.287
		c-7.136,1.003-13.079,2.454-20.192,1.488c-8.046-1.092-16.754-0.431-24.88-0.67c-22.449-0.662-45.441-2.505-67.791-1.382
		c-10.729,0.538-21.49,1.643-32.238,1.718c-20.603,0.143-40.854-2.068-61.361-3.136c-10.23-0.534-20.699,0.1-30.909,0.551
		c-20.101,0.887-40.179,3.506-60.363,2.602c-10.127-0.454-20.269-0.589-30.415-0.589c-5.038,0-13.271-1.217-17.498,1.777
		c-3.801,2.692-7.437,6.872-5.763,11.95c2.405,7.295,11.762,6.305,17.93,6.326c14.085,0.048,28.17,1.16,42.268,1.146
		c11.851-0.012,23.731-0.581,35.561-1.137c3.298-0.156,6.69,0.293,9.936-0.396c2.9-0.616,5.134-1.255,8.2-1.275
		C118.694,505.217,121.189,505.188,123.685,505.148z"/>
</g>
<g>
	<path style="fill:#ADADAD;" d="M430.345,342.74c-1.403,5.465-0.138,12.341-0.273,18.009c-0.183,7.646,0.057,15.373-0.29,23.008
		c-0.633,13.949-3.203,28.103-2.882,42.064c0.287,12.508,0.455,25.024,0.578,37.536c0.055,5.541-0.378,11.009-0.508,16.521
		c-0.028,1.211-0.323,3.432,0.216,4.54c0.839,1.729,0.329,1.001,2.167,1.563c2.356,0.72,5.752,0.009,8.169-0.085
		c5.205-0.205,10.268,0.504,15.48,0.087c7.19-0.575,14.168-1.486,21.389-0.853c7.874,0.689,25.755,1.317,17.842-12.325
		c-2.37-4.087-6.39-7.298-9.103-11.198c-4.533-6.516-8.605-13.678-11.951-20.87c-7.315-15.724-13.859-33.176-16.22-50.409
		c-1.549-11.306-0.405-24.518,9.205-32.286c5.376-4.346,12.331-7.403,19.33-7.301c5.278,0.077,7.323-0.666,6.369-6.647
		c-0.831-5.208-7.571-2.488-11.684-2.229c-9.697,0.611-19.452,0.588-29.136,0.079C442.754,341.615,436.55,342.389,430.345,342.74z"
		/>
	<path style="fill:#ADADAD;" d="M396.54,360.502c1.02,7.177,0.786,14.209,0.366,21.44c-0.617,10.643-0.012,21.088,0.43,31.712
		c0.721,17.35,1.632,34.673,2.643,52.006c0.257,4.405,3.578,17.28-1.621,19.468c-4.322,1.819-11.912,0.015-14.142-4.307
		c-1.471-2.853-0.74-6.576-0.878-9.681c-0.225-5.087-0.264-10.201,0.158-15.291c0.77-9.313,2.753-18.467,3.368-27.812
		c1.195-18.137,4.146-36.726,3.517-54.906c-0.197-5.7-5.696-3.531-8.605-7.662c-1.217-1.728-3.922-5.918-2.106-7.633
		c1.474-1.393,6.877-1.271,8.733-1.438C392.325,356.045,396.088,357.259,396.54,360.502z"/>
	<path style="fill:#ADADAD;" d="M346.978,358.783c2.487,9.222,0.251,20.195,0.276,29.658c0.047,17.818,1.798,35.681,1.132,53.509
		c-0.357,9.559-0.447,19.09,0.311,28.632c0.336,4.226,1.695,9.188,0.522,13.366c-3.929-0.095-8.885,1.264-12.652,0.323
		c-2.606-0.65-3.209-4.599-3.773-7.324c-2.783-13.416,1.672-26.134,3.301-39.395c0.879-7.153,0.644-14.069,0.571-21.231
		c-0.072-7.072,0.743-13.964,1.081-21.002c0.315-6.57-0.075-13.143,0.412-19.703c0.258-3.464,0.934-6.064-2.836-7.313
		c-2.192-0.727-3.406-0.046-4.904-2.062c-0.846-1.138-1.55-3.861-1.565-5.18c-0.034-3.043,1.087-3.101,3.983-3.385
		C338.198,357.148,342.757,357.038,346.978,358.783z"/>
	<path style="fill:#ADADAD;" d="M294.551,359.356c1.758,5.674,1.179,12.543,0.93,18.416c-0.462,10.859,0.598,21.703,0.007,32.544
		c-0.869,15.957-1.464,31.712-1.223,47.683c0.078,5.171,1.01,10.125,1.509,15.248c0.231,2.373,1.238,6.715,0.496,9.051
		c-1.395,4.392-10.327,1.804-13.471,0.16c-5.524-2.886-3.429-9.547-3.432-15.244c-0.004-9.221,2.05-18.149,2.873-27.306
		c0.852-9.476,2.19-18.969,2.799-28.488c0.581-9.064-0.304-18.238,0.33-27.294c0.331-4.728,3.914-11.728-1.127-14.465
		c-1.799-0.977-4.215-1.308-5.459-2.976c-1.568-2.103-0.753-6.045-1.418-8.427C283.136,357.349,288.472,358.916,294.551,359.356z"/>
	<path style="fill:#ADADAD;" d="M216.628,359.356c1.342,5.567,0.329,11.613,0.286,17.272c-0.077,10.232-0.465,20.459-0.567,30.697
		c-0.154,15.659-0.224,31.569-0.93,47.213c-0.445,9.876,1.774,19.293,1.853,29.057c0.018,2.151,0.673,2.41-1.61,2.966
		c-2.112,0.514-7.119-0.762-9.153-1.574c-4.292-1.713-4.548-9.411-5.356-13.668c-1.909-10.048,0.908-20.927,2.224-30.935
		c2.542-19.342,1.93-39.163,4.801-58.475c0.398-2.678,3.229-11.803,0.735-13.613c-0.727-0.528-2.282,0.11-3.184-0.318
		c-1.29-0.61-1.713-1.836-2.486-2.884c-1.336-1.811-2.346-3.425-1.486-5.707C207.952,360.013,215.575,358.556,216.628,359.356z"/>
	<path style="fill:#ADADAD;" d="M168.499,359.928c-4.443,35.856-2.248,72.418-3.709,108.463c-0.179,4.412-0.093,8.458,0.485,12.811
		c0.362,2.723,0.627,2.767-1.838,3.632c-3.849,1.35-11.455,0.707-12.917-3.259c-2.721-7.384-0.73-17.483,0.293-24.979
		c1.278-9.358,1.64-19.012,2.284-28.442c0.753-11.008,2.303-21.927,2.514-32.971c0.092-4.804,0.027-9.511,0.496-14.3
		c0.3-3.069,1.311-6.179,1.517-9.232c0.263-3.895-3.481-3.159-6.331-5.708c-1.552-1.388-3.155-5.366-1.673-7.201
		C151.457,356.474,163.215,358.099,168.499,359.928z"/>
	<path style="fill:#ADADAD;" d="M117.218,359.356c-2.791,6.071-1.898,13.756-2.349,20.307c-0.898,13.025-2.427,25.986-3.181,39.028
		c-1.017,17.592-2.992,35.978-0.477,53.487c0.721,5.021,5.475,14.961-3.581,14.422c-2.178-0.13-2.79-1.784-4.54-2.744
		c-0.94-0.516-1.934-0.295-2.85-0.813c-2.003-1.135-2.077-2.025-2.422-4.399c-2.849-19.581,2.073-40.939,4.139-60.473
		c1.021-9.659,1.565-19.512,2.938-29.117c0.58-4.05,1.179-8.117,1.726-12.19c0.234-1.747,1.72-5.571,0.872-7.265
		c-1.49-2.975-8.806-1.751-10.274-5.992c-0.849-2.454,1.741-5.557,3.631-6.257C106.66,355.197,113.922,358.254,117.218,359.356z"/>
	<path style="fill:#ADADAD;" d="M22.532,343.815c-0.295,1.609-0.078,3.504,0.123,5.131c0.639,5.185-0.511,10.624-0.543,15.864
		c-0.073,12.025,0.199,24.224-0.318,36.239c-0.808,18.816,0.627,37.747-0.325,56.552c-0.299,5.904-0.498,11.827-0.772,17.722
		c-0.164,3.524-1.292,6.42,1.954,8.217c5.628,3.116,14.073,2.75,20.247,2.729c8.777-0.031,17.8-0.517,26.526-0.024
		c2.503,0.141,8.912,1.146,11.287-0.106c2.574-1.358,4.161-7.191,3.521-9.718c-1.784-7.046-12.245-10.151-17.156-14.246
		c-9.795-8.168-15.22-20.053-19.449-31.796c-4.694-13.03-8.32-27.684-8.345-41.611c-0.015-8.244-0.918-22.697,4.776-29.58
		c4.95-5.984,14.213-6.317,21.295-6.149c4.128,0.098,11.205,2.645,14.834,0.298c2.747-1.777,2.754-7.673,0.357-9.754
		c-1.573-1.364-3.434-0.624-5.247-0.58c-3.274,0.08-6.753-0.125-10.036-0.286c-8.804-0.432-17.584-0.768-26.393-1.11
		c-3.918-0.152-9.049-1.918-12.839-1.324C23.79,340.636,22.855,342.054,22.532,343.815z"/>
	<path style="fill:#ADADAD;" d="M19.241,285.73c-1.303,6.011-0.052,13.47-0.007,19.612c0.047,6.445,0.766,12.649,1.804,18.989
		c0.672,4.101,0.454,4.483,4.546,4.014c6.001-0.686,12.258-1.47,18.284-1.66c7.203-0.226,17.646,1.633,24.447-1.191
		c1.917-0.795,3.431-2.741,5.114-4.003c3.936-2.949,7.447-6.602,11.496-9.375c3.545-2.427,8.16-3.083,10.754-6.748
		c2.249-3.177,3.47-9.188-1.576-9.372c-7.719-0.282-16.861,5.948-23.777,8.759c-9.295,3.779-18.765,6.252-27.375-0.47
		c-4.149-3.24-6.173-7.794-0.131-10.043c7.303-2.718,16.608-1.801,24.3-2.287c6.103-0.385,12.01,0.247,18.079,0.586
		c2.74,0.152,4.901,0.662,6.513-1.698c3.245-4.748-3.993-4.053-6.945-4.326c-8.315-0.769-16.647-0.177-24.959-0.995
		c-9.043-0.891-18.161-1.533-27.225-2.026C27.725,283.231,22.677,281.986,19.241,285.73z"/>
	<path style="fill:#ADADAD;" d="M18.094,254.217c-1.831,4.626-5.064,12.281-4.037,17.298c0.94,4.597,6.725,3.09,10.55,3.049
		c15.022-0.163,29.996-0.379,45.032-0.012c5.936,0.145,11.808,1.58,17.778,1.139c2.969-0.219,11.43-2.971,10.616-7.604
		c-0.975-5.545-20.749-3.865-24.098-3.711c-10.839,0.498-23.599,3.984-33.915-0.576c-5.839-2.581-7.708-6.695-11.534-10.881
		C24.992,249.095,19.984,252.576,18.094,254.217z"/>
	<path style="fill:#ADADAD;" d="M100.029,197.492c-0.185,10.676-0.816,21.475-1.209,32.166c-0.447,12.176,0.272,24.266,0.356,36.431
		c0.058,8.327-0.312,16.81-1.375,25.067c-0.454,3.517-1.202,9.4,0.841,12.599c7.631-2.615,14.762-6.533,22.006-10.144
		c11.768-5.867,24.931-9.717,37.255-14.328c14.72-5.508,29.479-11.312,43.908-17.49c5.708-2.443,11.521-4.765,16.799-8.098
		c2.336-1.475,11.695-6.431,10.055-10.313c-1.226-2.902-10.392-1.765-12.625-1.937c-8.128-0.627-16.214-0.37-23.483-4.681
		c-6.957-4.125-10.523-12.812-8.018-20.589c3.552-11.025,15.03-10.336,24.747-10.369c7.44-0.025,14.838-0.88,22.283-0.865
		c15.927,0.033,31.935-0.748,47.843-0.223c19.77,0.651,39.473,1.368,59.26,1.368c16.516,0,32.822,1.57,49.314,2.227
		c5.545,0.221,11.197,0.226,16.726-0.278c1.137-0.104,7.88-0.074,8.862-1.542c0.647-0.967-0.616-3.818-0.709-5.048
		c-0.187-2.468,0.609-3.468-1.329-4.532c-1.995-1.094-7.341,0.234-9.536,0.299c-6.893,0.205-13.809,0.524-20.697,0.349
		c-12.407-0.316-25.93-2.088-38.177-0.357c-12.828,1.813-26.062,0.336-38.866-0.938c-6.225-0.62-12.474-0.847-18.702-1.473
		c-13.258-1.331-26.308-1.585-39.686-1.09c-16.577,0.613-33.315,0.748-49.828,1.813c-16.554,1.067-33.62,2.165-50.19,1.114
		C131.234,195.706,116.648,196.21,100.029,197.492z"/>
	<path style="fill:#ADADAD;" d="M128.677,155.093c-2.135,7.186-0.234,14.811,0.292,21.922c0.198,2.672-0.516,3.194,1.872,3.72
		c1.41,0.311,3.605-0.322,5.125-0.231c2.668,0.159,5.325,0.416,8.012,0.515c17.899,0.657,35.832,1.004,53.754,1.004
		c8.813,0,18.998-2.101,27.638-0.439c8.237,1.583,16.218,1.304,24.657,1.02c19.271-0.65,38.55-1.986,57.839-1.217
		c3.779,0.151,7.604,0.254,11.379,0.329c0.966,0.019,4.664,0.441,5.438-0.33c1.92-1.911-3.396-3.355-4.722-3.738
		c-9.302-2.681-19.65-3.203-29.244-4.162c-12.355-1.236-24.972-1.792-37.385-2.04c-11.085-0.221-22.166,0.299-33.243,0.568
		c-5.204,0.126-19.471,2.727-22.957-2.187c-3.865-5.448,7.483-8.316,11.032-7.995c4.278,0.389,17,1.215,18.241-5.178
		c0.437-2.251-1.456-1.689-3.477-1.684c-7.037,0.021-14.991,2.798-21.876,1.387c-4.907-1.006-9.465-1.561-14.508-1.918
		c-9.893-0.7-19.828-0.746-29.71,0.016C146.572,155.25,135.191,153.558,128.677,155.093z"/>
	<path style="fill:#ADADAD;" d="M82.267,327.843c0.756,5.807,0.934,11.63,1.376,17.51c0.204,2.71,1.681,7.668,0.657,10.179
		c3.519-1.82,8.485-0.469,12.21-0.187c9.318,0.706,18.69,0.517,28.012,1.004c9.87,0.516,19.765,0.429,29.653,0.43
		c11.343,0.001,22.609,0.938,33.935,1.16c3.434,0.067,7.073,0.533,10.493,0.143c2.081-0.238,3.862-1.167,5.901-1.519
		c6.381-1.096,13.716-0.138,20.185-0.09c13.512,0.103,27.025,0.302,40.535-0.007c20.379-0.465,40.788-0.813,61.164-0.108
		c16.373,0.565,32.521,0.856,48.895,0.713c6.635-0.058,13.273-0.643,19.908-0.611c9.585,0.047,20.12,2.052,29.613,0.244
		c6.186-1.179,4.609-8.038,3.084-12.682c-1.145-3.491-1.691-3.007-5.768-3.002c-8.515,0.009-17.031,0-25.546,0
		c-14.189,0-28.399-0.067-42.578,0.43c-17.473,0.613-34.57-0.313-52.127,0.356c-18.905,0.72-37.834,1.543-56.752,0.801
		c-30.698-1.206-61.461,2.352-92.052-0.134c-8.733-0.709-21.594-2.162-26.945-9.914c-4.138-5.994-9.41-6.883-16.581-7.014
		c-5.219-0.097-10.352,0.283-15.555,0.522C90.408,326.232,85.653,325.029,82.267,327.843z"/>
	<path style="fill:#ADADAD;" d="M415.161,303.779c0.005-4.083-0.356-8.844,1.083-12.702c1.896-5.084,6.338-2.794,10.867-2.765
		c2.784,0.018,4.734-0.34,6.961,1.41c2.503,1.967,4.63,4.85,7.086,6.974c8.823,7.625,21.192,11.762,32.451,14.554
		c4.83,1.198,14.289,2.075,17.713,6.275c1.426,1.749,3.166,6.14,0.911,7.905c-1.314,1.027-4.259,0.475-5.783,0.425
		c-6.813-0.221-13.473-0.584-20.311-0.365c-6.339,0.204-12.618-0.553-18.924,0.127c-6.093,0.657-6.858-2.18-11.338-6.008
		C429.25,313.943,419.876,312.919,415.161,303.779z"/>
	<path style="fill:#ADADAD;" d="M414.301,243.33c0.333,4.988-0.822,10.237-0.859,15.268c-0.026,3.643-1.416,10.736,0.781,13.951
		c1.971,2.885,6.329,1.707,9.41,1.72c9.779,0.04,19.551,0.573,29.355,0.573c9.915-0.001,19.876-0.112,29.76-0.917
		c3.206-0.26,12.661,0.118,8.056-5.362c-2.473-2.943-7.796-3.381-11.238-4.036c-5.491-1.045-11.013-2.068-16.545-2.865
		c-7.768-1.119-17.812-2.269-24.665-6.488c-3.881-2.389-6.177-7.434-10.557-8.671C423.633,245.329,418.935,246.875,414.301,243.33z"
		/>
	<path style="fill:#ADADAD;" d="M141.282,288.021c-14.328,7.331-29.753,11.852-43.872,19.77c-5.763,3.233-12.049,5.799-17.457,9.586
		c-2.261,1.583-6.002,4.041-6.828,6.76c3.944,1.622,9.346,0.462,13.473,0.045c10.717-1.085,21.655-1.978,32.413-2.578
		c21.28-1.186,42.11,0.528,63.256,0.132c23.037-0.431,46.086-0.026,69.117-0.833c29.421-1.032,58.917,0.666,88.397-0.452
		c18.261-0.692,36.966,0.217,55.164,1.794c11.934,1.034,24.571,2.997,36.573,2.174c3.799-0.26,5.022-0.114,4.34-3.151
		c-1.878-8.352-16.648-7.093-22.687-6.874c-25.459,0.922-50.999-0.015-76.466-0.015c-16.344,0-32.796,0.2-49.124-0.495
		c-11.895-0.507-23.602-0.325-35.43-1.668c-11.741-1.334-23.939,0.323-35.738,0.143c-13.717-0.21-27.338,1.607-40.985,2.683
		c-12.698,1-25.451,0.88-38.175,0.425c-5.127-0.183-11.287,0.035-16.016-2.281c-7.384-3.618-3.577-8.786,2.044-11.643
		C131.21,297.511,138.306,295.071,141.282,288.021z"/>
	<path style="fill:#ADADAD;" d="M259.314,258.513c7.566,4.414,17.092,5.614,25.2,8.747c9.77,3.777,19.565,7.282,28.996,11.852
		c12.947,6.273,26.05,12.04,39.348,17.496c3.864,1.586,7.482,3.716,11.381,5.179c5.616,2.108,9.04-1.371,2.708-4.808
		c-8.465-4.593-17.741-8.936-26.888-11.967c-11.58-3.838-22.404-9.478-33.553-14.4c-10.022-4.425-20.275-8.346-30.21-12.9
		c-3.056-1.401-5.991-1.953-9.325-2.069C264.833,255.568,258.179,256.289,259.314,258.513z"/>
	<path style="fill:#ADADAD;" d="M297.703,253.357c8.295,4.801,16.392,10.066,25.261,13.829
		c12.456,5.285,25.018,10.412,37.535,15.507c7.52,3.061,15.684,4.929,23.004,8.326c6.858,3.182,13.642,6.29,20.333,9.854
		c2.966,1.58,7.374,4.939,9.256,0.84c2.45-5.334,1.166-14.791,1.217-20.506c0.033-3.683,0.603-8.248-1.236-11.614
		c-2.604-4.767-9.453-4.77-14.215-4.781c-14.894-0.033-30.036,1.766-44.844-0.62c-13.324-2.147-25.571-7.176-38.253-11.487
		c-4.926-1.674-9.907-2.906-15.135-3.015c-0.908-0.019-4.394-0.457-4.957,0.661C294.825,252.025,297.293,253.969,297.703,253.357z"
		/>
</g>
<g>
	<path style="fill:#666666;" d="M238.687,263.956c-4.696,0.3-9.936,2.86-14.27,4.505c-5.372,2.037-10.857,3.996-16.118,6.303
		c-8.023,3.518-15.941,7.072-24.033,10.449c-8.241,3.439-16.529,6.668-24.921,9.663c-4.692,1.675-14.056,5.774-15.731,10.857
		c3.554,0.464,7.744-0.509,11.399-0.524c6.674-0.028,13.323,0.001,20.017,0.001c14.486,0,29.014-1.133,43.475-0.881
		c16.099,0.28,32.129-0.496,48.264,0.037c16.197,0.534,32.585,0.616,48.778-0.079c13.734-0.589,27.193,1.066,40.836,2.109
		c2.996,0.229,6.476,0.714,9.435-0.194c3.005-0.921,0.789-3.366-1.016-4.524c-3.77-2.417-8.475-2.402-12.792-2.478
		c-4.648-0.081-8.619-1.241-13.154-1.811c-11.126-1.398-22.302-2.354-33.434-3.698c-10.943-1.321-22.032-2.835-32.622-5.892
		c-6.568-1.896-14.723-4.662-19.003-10.449c-2.407-3.254-1.632-6.609-0.667-10.234c0.462-1.733,1.384-3.55,0.012-5.036
		C249.808,258.469,239.222,264.611,238.687,263.956z"/>
	<path style="fill:#666666;" d="M92.279,190.25c3.842,1.337,8.614,0.933,12.582,0.957c7.272,0.045,14.534,0.67,21.809,0.404
		c2.827-0.104,5.502,0.33,8.32,0.119c3.184-0.239,6.337-0.772,9.5-1.197c6.564-0.882,13.106-1.426,19.725-1.722
		c7.337-0.33,14.857-1.117,22.107-0.146c3.869,0.518,8.213-0.154,12.099-0.359c4.056-0.214,8.112-0.448,12.176-0.452
		c4.231-0.006,8.473-0.106,12.701,0.021c3.672,0.11,7.343,0.854,11.058,0.774c7.711-0.166,15.423-0.841,23.136-1.069
		c8.77-0.259,17.535-0.346,26.308-0.363c2.78-0.005,5.567-0.038,8.346,0.067c2.469,0.092,4.851,0.881,7.349,1.078
		c5.435,0.429,10.88-0.16,16.313-0.309c3.438-0.093,6.875-0.053,10.313,0.004c3.301,0.054,7.243-0.479,10.451,0.317
		c2.554,0.634,4.425,0.958,7.145,0.919c3.682-0.053,7.364-0.168,11.046-0.16c9.685,0.021,19.352,0.377,29.033,0.489
		c6.905,0.08,13.794,0.318,20.702,0.31c3.123-0.004,6.337,0.074,9.426,0.518c1.595,0.23,4.193,0.755,4.717,2.627
		c0.747,2.672-4.341,3.272-6.006,3.525c-9.911,1.51-20.341,0.25-30.287-0.1c-6.613-0.233-13.248-0.501-19.864-0.529
		c-7.397-0.032-14.987,1.535-22.342,1.12c-2.581-0.145-4.818-0.746-7.476-0.637c-3.598,0.147-7.199,0.178-10.801,0.172
		c-6.097-0.009-12.186,0.332-18.278,0.518c-4.531,0.139-8.581-1.33-13.044-1.222c-12.489,0.303-24.932-0.687-37.412-0.91
		c-3.248-0.058-6.498-0.059-9.745,0.045c-2.737,0.087-5.597,0.575-8.312,0.094c-5.371-0.952-10.582-0.497-16.043-0.233
		c-17.025,0.822-34.061,1.726-51.113,1.537c-6.455-0.072-12.906,0.152-19.36,0.201c-5.006,0.039-9.745,0.893-14.762,0.933
		c-10.688,0.086-21.815,1.282-32.459,0.157c-2.888-0.305-6.196-0.76-8.903-1.871c-1.523-0.626-2.678-1.515-2.814-3.314
		C89.468,190.547,90.97,189.996,92.279,190.25z"/>
	<path style="fill:#666666;" d="M415.88,281.637c5.076-0.725,10.385-0.319,15.502-0.319c7.291,0,14.632,0.243,21.918-0.014
		c12.35-0.435,24.658-0.928,36.99-1.727c1.137-0.074,15.659-1.339,12.192,3.464c-0.69,0.957-2.105,0.793-3.188,0.868
		c-4.591,0.32-9.252,0.168-13.855,0.265c-10.612,0.223-21.221,0.657-31.837,0.653c-9.549-0.004-19.116-0.183-28.643,0.59
		C422.757,285.596,411.384,286.883,415.88,281.637z"/>
	<path style="fill:#666666;" d="M429.597,333.631c4.741-0.024,9.491-0.558,14.23-0.762c6.224-0.267,12.537-0.099,18.758,0.159
		c11.243,0.468,22.475-0.361,33.7,0.798c1.892,0.196,4.661,0.246,4.417,2.796c-0.223,2.328-2.326,2.774-4.248,3.159
		c-7.878,1.573-16.356,1.428-24.355,1.514c-9.048,0.098-18.075,0.27-27.12,0.485c-4.325,0.104-9.206,1.107-13.382-0.296
		C427.777,340.201,425.852,337.447,429.597,333.631z"/>
	<path style="fill:#666666;" d="M505.991,496.787c-5.091-1.874-11.669-1.407-16.978-1.662c-10.565-0.508-21.221-0.207-31.789,0.179
		c-6.549,0.239-13.222,1.239-19.703,0.687c-7.211-0.614-14.665,0.144-21.914-0.121c-12.282-0.448-24.541-1.499-36.819-2.04
		c-12.59-0.556-25.2-0.329-37.791,0.047c-20.61,0.615-41.195,1.528-61.799,2.31c-6.266,0.238-12.548,0.378-18.818,0.434
		c-6.416,0.057-12.8-0.753-19.206-0.99c-11.581-0.428-23.188-0.438-34.775-0.439c-6.478-0.001-12.956-0.081-19.433-0.17
		c-3.305-0.045-6.609-0.092-9.914-0.131c-2.591-0.031-4.901-0.627-7.475-0.829c-13.081-1.03-26.213-0.663-39.308-0.154
		c-1.84,0.072-3.682,0.146-5.522,0.219c-6.395,0.256-12.788,0.551-19.178,0.888c-2.729,0.144-5.505,0.673-8.19,0.692
		c-3.237,0.022-6.506-0.319-9.749-0.363c-13.045-0.176-26.074,0.73-39.117,0.799c-0.52,0.002-1.038,0.005-1.557,0.005
		c-8.764,0-17.451,0.131-26.181-0.686c-3.907-0.365-9.814-1.529-13.574,0.065c-1.952,0.827-3.235,2.871-1.853,4.749
		c0.996,1.354,3.651,1.92,5.113,2.397c2.782,0.908,5.695,1.589,8.597,1.969c13.029,1.701,26.189,1.932,39.311,1.873
		c12.572-0.057,25.09,0.3,37.629,0.033c7.764-0.166,15.524-0.463,23.285-0.707c12.887-0.405,26.16,0.545,38.98-0.911
		c1.931-0.219,3.682-1.086,5.615-1.257c3.142-0.277,6.431,0.06,9.586,0.082c6.566,0.045,13.132,0.006,19.698,0.022
		c1.706,0.005,3.412,0.012,5.118,0.026c14.127,0.113,28.273,0.859,42.372,1.501c13.203,0.602,26.423,0.601,39.635,0.62
		c6.609,0.009,13.22,0.022,19.828,0.119c5.033,0.073,9.286,0.005,14.107-1.356c4.289-1.211,8.859-0.78,13.267-0.748
		c5.424,0.04,10.849,0.078,16.274-0.005c11.045-0.167,22.086-0.629,33.133-0.492c4.736,0.058,9.113,1.018,13.813,1.159
		c5.624,0.168,11.251,0.253,16.875,0.438c7.779,0.257,15.536,1.162,23.327,1.037c6.416-0.104,12.614,0.749,19.077,0.761
		c8.903,0.017,17.835,0.072,26.735,0.004c5.303-0.041,11.133,0.434,16.349-0.657c2.376-0.497,4.802-1.199,7.144-1.799
		C504.532,503.279,509.268,500.941,505.991,496.787z"/>
	<path style="fill:#666666;" d="M83.028,333.79c-13.447-0.068-26.92,0.478-40.381,0.478c-6.338,0-12.678,0.012-19.016-0.001
		c-3.285-0.007-8.789-0.448-11.681,1.391c-2.822,1.794-0.014,3.987,2.051,4.603c2.453,0.73,5.118,0.642,7.658,0.725
		c3.471,0.112,6.93,0.399,10.398,0.58c12.793,0.666,25.803,1.394,38.604,0.838C75.719,342.182,84.602,342.847,83.028,333.79z"/>
	<path style="fill:#666666;" d="M95.15,280.361c-13.045-0.038-26.092-0.983-39.136-0.959c-6.834,0.013-13.675,0.177-20.503,0.16
		c-4.863-0.012-9.774-0.405-14.633-0.127c-2.063,0.118-4.222,0.23-6.256,0.595c-0.891,0.16-4.036,0.688-4.579,1.622
		c-1.483,2.553,5.931,2.3,6.956,2.375c7.381,0.542,14.768,0.483,22.168,0.481c7.391-0.004,14.712,0.825,22.086,0.965
		c8.276,0.158,16.585,0.425,24.856,0.754c2.314,0.092,5.808,0.623,7.958-0.401C95.582,285.107,96.998,283.05,95.15,280.361z"/>
</g>
<g>
	<path style="fill:#3F3F3F;" d="M254.058,33.201c0.613,0.487,1.001,1.195,1.032,2.167c0.068,2.155-0.317,4.206-1.04,6.19
		c-0.58,1.587-1.805,3.175,0.277,4.346c2.438,1.371,7.755,0.622,10.465,0.62c4.339-0.005,8.612,0.257,12.934,0.504
		c1.502,0.086,3.034,0.423,4.536,0.428c1.438,0.005,3.347-0.813,4.741-0.485c1.298,0.305,2.022,0.491,1.054,2.051
		c-1.19,1.918-5.281,1.122-7.105,1.135c-5.966,0.04-11.914-0.004-17.878,0.004c-3.474,0.004-10.048-0.369-13.029,1.62
		c-1.741,1.162-6,7.363-3.227,8.788c1.827,0.939,5.795,0.266,7.754,0.266c3.275,0,6.549,0,9.824,0
		c7.501,0,14.976-0.062,22.469,0.005c2.663,0.024,9.441-1.483,11.56,0.551c0.942,0.906,1.357,3.197,0.265,4.052
		c-1.018,0.796-4.778-0.057-6.001-0.06c-4.207-0.011-8.409-0.357-12.616-0.449c-8.709-0.19-17.416,0.133-26.128-0.188
		c-2.634-0.098-5.306-0.352-7.936-0.283c-5.854,0.156-8.224,4.758-11.84,8.495c-2.102,2.172-1.376,3.519,1.674,3.768
		c7.93,0.649,16.018-0.227,23.98-0.22c9.697,0.009,19.394-0.022,29.091,0.002c6.309,0.016,12.6-0.664,18.91-0.462
		c2.803,0.09,4.734-0.045,5.721,2.785c0.606,1.735,0.432,3.411-1.289,4.719c-3.999,3.041-12.705,0.917-17.132,0.582
		c-9.033-0.682-18.036-1.345-27.095-1.495c-9.373-0.154-18.727-0.463-28.093,0.121c-2.779,0.173-5.596-0.437-8.363-0.011
		c-3.583,0.551-5.064,2.817-7.232,5.442c-2.498,3.022-3.775,5.38,1.197,6.206c3.732,0.62,7.483,0.071,11.236,0.046
		c5.694-0.038,11.425-0.106,17.111-0.439c13.125-0.772,26.264-0.954,39.396-1.598c8.279-0.405,16.584-0.968,24.88-0.694
		c3.472,0.115,9.511,0.168,12.317,2.789c1.576,1.471,1.488,4.416-0.146,5.515c-1.616,1.087-6.791,0.057-8.607-0.11
		c-6.086-0.56-12.197-0.873-18.308-0.914c-11.07-0.075-22.424-1.014-33.468-0.011c-12.42,1.129-24.915,1.364-37.344,2.458
		c-3.816,0.336-7.499,0.184-11.31,0.042c-4.246-0.157-5.109,1.341-6.815,4.801c-1.106,2.244-3.455,5.437,0.735,5.887
		c3.988,0.429,8.306-0.184,12.323-0.226c5.502-0.059,10.998-0.231,16.509-0.232c30.184-0.005,60.316-2.194,90.531-1.565
		c3.265,0.068,6.602-0.001,9.861,0.19c2.137,0.125,2.045,0.209,2.943,1.687c1.404,2.315,0.774,5.139-1.84,6.196
		c-3.261,1.319-8.408,0.535-11.848,0.531c-9.122-0.012-18.231-0.226-27.356-0.226c-16.684,0-33.371-0.229-50.041,0.454
		c-11.644,0.476-23.327,0.64-34.936,1.761c-3.678,0.355-14.18-1.581-8.322,4.978c3.48,3.896,9.997,3.032,14.675,3.21
		c13.291,0.507,26.679-0.425,39.981-0.41c28.022,0.033,56.03-1.499,84.023,0.022c3.12,0.17,10.039-1.098,12.817,0.49
		c1.627,0.93,1.791,6.946,0.211,8.475c-1.389,1.343-4.466,0.401-6.09,0.267c-7.317-0.601-14.632-1.243-21.967-1.594
		c-13.975-0.669-28.034-1.541-42.027-0.96c-11.044,0.458-22.093,0.716-33.143,0.972c-10.989,0.254-22.727-0.525-33.594,1.047
		c0.264,3.085,3.184,2.395,5.2,2.43c3.266,0.055,6.623,1.663,9.799,2.448c6.981,1.726,14.118,2.752,21.277,3.385
		c14.609,1.292,29.291,0.953,43.932,1.528c19.242,0.756,38.141-0.544,57.32-1.424c4.459-0.205,8.816-0.262,13.25,0.157
		c1.502,0.143,3.689,0.095,4.583,1.59c0.917,1.533-0.265,4.967-1.721,6.153c-2.826,2.302-10.023,0.186-13.416-0.088
		c-16.662-1.348-33.424-2.171-50.143-2.19c-18.371-0.021-36.753,1.912-54.936,2.684c-8.956,0.381-18.483-0.234-27.443-0.74
		c-8.144-0.461-16.294-0.181-24.452-0.361c-16.462-0.361-32.9,0.243-49.353,0.483c-9.488,0.138-18.976-1.291-28.438-0.938
		c-1.477,0.055-2.11,0.609-3.118-0.654c-1.212-1.519-0.852-5.065-0.745-6.874c0.101-1.704,0.118-4.756,1.311-5.993
		c2.221-2.301,7.143-1.364,9.903-1.236c2.263,0.106,5.65,0.643,7.03-1.815c1.579-2.811-0.723-7.672-1.09-10.608
		c-0.571-4.571,1.157-4.02,5.385-4.404c2.092-0.19,8.746,0.571,10.3-1.156c1.593-1.768-0.259-7.086-0.198-9.351
		c0.042-1.549-0.196-3.944,0.233-5.405c0.531-1.811,0.352-1.35,2.283-1.546c4.054-0.41,8.5-0.033,12.461-1.142
		c3.338-0.934,2.938-4.343,2.975-7.506c0.021-1.798-0.894-7.236,0.65-8.64c1.072-0.975,3.609-0.37,4.947-0.421
		c2.334-0.09,4.797-0.101,7.092-0.524c3.008-0.554,4.758-1.118,4.758-4.419c-0.001-2.593-1.81-8.206,0.282-10.29
		c2.552-2.542,8.889-0.006,12.017-1.588c2.672-1.352,2.363-5.093,2.486-7.7c0.114-2.432-0.423-6.416,1.969-7.986
		c2.176-1.429,6.07-0.139,7.94-2.352c1.663-1.966,0.55-6.344,0.785-8.687c0.148-1.481,0.093-5.762,1.727-6.643
		c1.863-1.005,6.219,0.66,7.117,2.161c1.623,2.713,0.091,5.821,3.864,6.207c1.335,0.137,7.467,0.393,8.428-0.708
		c1.507-1.727-0.555-5.992,0.682-8.158C246.115,32.715,251.715,31.34,254.058,33.201z"/>
	<path style="fill:#3F3F3F;" d="M259.597,3.844c-4.318-1.05-9.468,0.108-13.673,1.169c-1.091,0.276-2.436,0.375-3.143,1.301
		c-1.061,1.391-1.114,4.086-1.127,5.729c-0.014,1.751-0.26,4.463,0.958,5.948c1.006,1.228,2.855,1.005,4.297,1.111
		c3.716,0.274,4.994,1.217,4.823,5.052c-0.091,2.039-1.221,6.037,1.289,7.112c1.393,0.597,3.229,0.035,4.643-0.09
		c1.5-0.133,3.961,0.395,5.349-0.379c2.383-1.329,1.653-6.329,1.623-8.488c-0.014-1.044-0.33-2.685,0.627-3.372
		c1.14-0.819,3.666-0.115,4.973-0.362c1.561-0.295,3.5-1.078,3.99-2.648c0.568-1.819,0.183-4.853-0.067-6.692
		c-0.295-2.163-0.687-3.864-2.87-4.691C267.156,2.979,262.409,3.525,259.597,3.844z"/>
</g>
<path style="fill:#2D2D2D;" d="M241.653,7.2c-0.019,2.741-2.051,6.402-0.966,9.048c0.861,2.099,4.626,2.328,6.612,2.419
	c1.717,0.079,4.077-1.265,4.431,0.927c0.397,2.466-0.422,5.075-0.464,7.541c-0.045,2.632,1.268,3.296,3.697,3.821
	c2.081,0.449,6.357,0.637,6.694-2.281c0.145-1.262-0.992-3.194-1.541-4.226c-1.282-2.409-3.318-4.278-4.405-6.837
	c-0.92-2.167-1.189-4.474-0.279-6.672c0.484-1.169,1.557-2.072,1.951-3.253C258.682,3.789,243.086,1.429,241.653,7.2z"/>
<g>
	<path style="fill:#444444;" d="M92.382,356.598c-0.879,2.169-2.97,7.556-1.761,10.453c1.197,2.869,4.716,4.728,6.196,7.642
		c1.931,3.801,2.892,6.891,2.282,11.216c-0.95,6.733-3.056,13.293-4.236,19.992c-4.022,22.826-1.771,46.838-8.363,69.246
		c-1.332,4.527-1.778,9.787,4.423,9.974c1.372,0.041,2.756-0.253,4.115-0.383c0.642-0.061,3.028,0.166,3.415-0.066
		c1.784-1.072-0.343-9.659-0.508-11.416c-0.588-6.248-0.024-12.645,0.492-18.878c0.588-7.105,1.374-14.289,2.158-21.385
		c1.686-15.24,3.22-30.541,4.445-45.837c0.438-5.463,1.876-10.562,2.655-15.923c0.435-2.989-0.782-2.541-3.408-3.11
		c-2.719-0.589-3.945-2.344-4.559-5.067c-0.289-1.281,0.423-3.098-0.531-4.215C98.267,357.754,96.112,357.682,92.382,356.598z"/>
	<path style="fill:#444444;" d="M142.577,356.813c-1.027,2.012-2.539,5.749-2.913,8.527c-0.689,5.102,2.082,8.052,4.601,12.076
		c2.681,4.282,2.641,9.765,2.326,14.653c-0.53,8.197-2.145,16.34-2.884,24.531c-1.448,16.065-4.247,32.076-5.805,48.165
		c-0.465,4.803-2.645,15.108,2.109,18.507c1.826,1.305,5.099,1.746,7.298,1.455c2.164-0.286,2.046-0.56,1.87-3.022
		c-0.317-4.412,0.196-8.467,0.333-12.867c0.207-6.606,0.172-13.15,0.639-19.755c1.701-24.064,6.12-47.757,9.033-71.676
		c0.252-2.068,1.629-6.252,0.27-8.043c-1.059-1.396-3.512-0.748-5.084-1.733c-2.267-1.421-3.81-3.428-3.686-6.058
		C150.781,359.471,149.749,355.356,142.577,356.813z"/>
	<path style="fill:#444444;" d="M193.636,358.328c-0.672,2.831-3.116,6.967-1.965,9.867c0.906,2.283,4.28,4.07,5.913,5.975
		c2.566,2.992,2.935,6.173,2.6,10.081c-0.602,7.047-1.791,14.035-2.654,21.053c-1.984,16.128-4.689,32.25-5.577,48.483
		c-0.291,5.32-0.528,10.734-1.354,15.996c-0.537,3.426-1.449,7.601-0.984,11.049c0.643,4.769,10.581,9.341,12.451,3.273
		c1.2-3.896-0.271-9.696-0.199-13.713c0.097-5.389,0.459-10.926,0.973-16.293c1.278-13.355,2.885-26.552,3.662-39.97
		c0.666-11.509,1.542-23.236,3.058-34.655c0.553-4.163,2.987-9.71-1.423-12.056c-2.281-1.213-4.929-1.405-6.021-4.013
		C201.021,360.792,201.771,355.98,193.636,358.328z"/>
	<path style="fill:#444444;" d="M281.745,366.772c2.156,0.687,4.319,1.31,5.522,3.414c1.272,2.228,0.379,4.989,0.218,7.507
		c-0.641,10.002-1.05,19.929-1.258,29.963c-0.245,11.847-2.077,23.548-3.027,35.359c-0.657,8.181-0.752,16.392-1.256,24.581
		c-0.227,3.697-0.822,7.417-0.623,11.092c0.137,2.525,0.257,4.798-2.823,5.289c-2.154,0.343-5.552,1.003-7.622,0.332
		c-5.775-1.871-1.983-16.106-1.213-19.769c1.344-6.398,3.275-12.519,4.126-19.029c0.876-6.713,1.414-13.225,1.414-19.996
		c0-6.681,0.613-13.615-1.007-20.146c-1.618-6.524-4.482-11.851-8.156-17.423c-3.831-5.809-4.153-11.822-2.738-18.533
		c0.675-3.203,1.342-9.132,3.822-11.556c2.081-2.033,8.035-2.562,9.395,0.483c0.66,1.475,0.042,3.374,0.763,4.941
		C278.142,365.154,279.84,366.165,281.745,366.772z"/>
	<path style="fill:#444444;" d="M329.289,357.247c-0.934,3.447-2.004,7.747,1.409,10.042c1.733,1.165,3.9,0.549,5.528,1.566
		c1.675,1.046,1.782,4.155,1.939,5.896c0.859,9.53-0.96,19.127-2.144,28.562c-1.251,9.971-1.437,20.276-1.545,30.315
		c-0.097,9.056-0.838,17.904-1.78,26.904c-0.469,4.471-0.534,8.849-0.161,13.327c0.244,2.931,1.797,6.338,1.623,9.209
		c-0.204,3.38-3.814,2.566-6.733,2.686c-4.007,0.165-7.369-0.39-8.969-4.618c-1.845-4.877-0.181-12.164,0.009-17.2
		c0.371-9.722,0.866-19.392,1.105-29.125c0.302-12.322-0.032-24.617-0.018-36.936c0.011-9.073,0.073-18.124-0.866-27.158
		c-0.317-3.043-1.634-9.1-0.199-12.072C320.036,355.44,325.927,355.368,329.289,357.247z"/>
	<path style="fill:#444444;" d="M381.214,357.679c-1.76,3.287-1.951,9.696,2.086,11.196c2.063,0.766,3.545-0.002,5.01,2.002
		c1.304,1.784,1.243,4.357,1.395,6.452c0.795,10.998-0.801,22.444-2.216,33.351c-1.459,11.24-1.082,22.667-1.726,33.965
		c-0.431,7.554-1.504,14.957-1.52,22.545c-0.007,3.604,0.06,7.297,0.595,10.863c0.353,2.359,1.032,4.874-1.076,6.646
		c-2.74,2.304-6.271-0.641-9.15-1.117c-3.262-0.538-5.125-0.43-5.06-4.459c0.108-6.648,1.414-13.599,1.872-20.275
		c0.721-10.517,1.603-21.016,2.439-31.526c1.448-18.219,1.104-35.904-0.054-54.105c-0.238-3.736-2.459-9.1-1.469-12.746
		C373.05,357.854,379.46,355.766,381.214,357.679z"/>
</g>
<path d="M511.931,497.173c-0.21-8.042-2.869-11.983-11.02-12.986c-1.451-0.178-2.909-0.302-4.37-0.403
	c1.249-3.755,0.931-7.979,0.891-11.845c-0.059-5.742-0.108-11.484-0.137-17.227c-0.088-18.089-2.211-36.118-2.746-54.206
	c-0.287-9.721-0.783-19.427-0.905-29.188c-0.065-5.246-0.165-10.483-0.348-15.725c-0.094-2.701-0.574-8.158,0.351-11.372
	c2.13,0.185,4.306,0.432,6.27-0.164c4.601-1.395,5.193-7.113,4.683-11.22c-0.611-4.923-4.827-7.426-9.268-8.239
	c1.548-3.657,0.779-9.234,0.93-12.555c0.361-7.94,1.444-16.595-0.351-24.491c1.79,0.276,3.607,0.611,5.346,0.379
	c4.063-0.543,5.158-4.34,5.236-8.011c0.098-4.612-3.054-6.189-6.932-7.029c1.319-3.301,0.254-8.076-0.128-11.879
	c-0.69-6.859-1.226-11.924-9.433-12.964c-7.289-0.924-14.686-0.931-21.968-1.937c-8.42-1.164-17.014-1.416-25.466-2.17
	c-8.456-0.755-17.008-1.482-25.47-0.479c0.019-0.533,0.048-1.069,0.091-1.61c0.364-4.527,0.258-9.101,0.239-13.644
	c-0.038-9.179,0.852-19.426-0.946-28.582c4.234-0.577,7.594-2.478,7.604-8.237c0.019-11.475-11.851-11.727-20.587-11.596
	c-6.194,0.093-12.351-0.024-18.509-0.141c0.753-5.221,0.781-10.663,0.881-15.88c0.052-2.705,0.94-7.525-0.472-10.536
	c0.874-4.896,2.896-14.157-1.428-17.662c-3.717-3.012-13.608,1.508-15.787-2.148c-0.88-1.479,0.252-7.489,0.382-9.038
	c0.159-1.911,0.501-3.482-1.085-5.048c-1.766-1.742-4.824-1.933-7.129-2.061c-3.379-0.187-5.98,0.022-9.023-0.679
	c-0.292-2.264-0.389-4.531-0.34-6.826c0.047-2.271,0.758-4.469,0.455-6.734c-0.24-1.8-1.237-2.856-3.055-3.055
	c-4.082-0.447-8.883-1.708-13.198-1.422c-2.723-2.364-0.244-9.398-1.47-12.648c-1.354-3.587-3.647-3.765-7.126-3.73
	c-2.482,0.025-7.586,0.905-9.143-1.535c-0.972-1.523-0.609-5.839-0.416-7.403c0.385-3.122,0.765-5.873-2.816-7.227
	c-1.964-0.742-4.134-0.249-6.153-0.313c-0.892-0.028-3.312,0.029-4.1-0.421c-1.574-0.9-1.061-1.402-1.057-3.902
	c0.006-3.081,1.42-8.628-1.378-10.959c-2.203-1.835-7.007-1.515-10.396-1.742c-0.373-4.926,2.922-11.238-0.431-15.572
	c-1.805-2.333-4.791-1.993-7.388-1.942c-2.187,0.042-4.493-0.669-6.197,0.993c-2.122,2.07-0.717,6.96-3.189,8.585
	c0.357-0.234-3.455-0.206-3.367-0.156c-1.311-0.755-0.375-3.745-0.435-4.946c-0.073-1.442,0.264-3.241-0.358-4.605
	c-0.79-1.731-2.093-0.555-3.461-1.473c-0.812-0.544-0.778-1.727-0.653-2.697c0.118-0.919,0.237-1.839,0.355-2.758
	c0.123-0.958,0.258-1.95,0.779-2.764c1.689-2.641,6.114,0.139,8.362-2.228c1.044-1.1,1.131-2.769,1.158-4.285
	c0.053-2.952,0.106-5.906,0.16-8.858c0.015-0.852,0.013-1.765-0.465-2.468c-0.763-1.123-2.348-1.226-3.704-1.217
	c-7.619,0.051-15.374-0.527-22.955,0.148c-2.635,0.234-8.616,0.211-10.453,2.395c-1.266,1.506-1.397,3.991-1.249,5.85
	c0.172,2.172-0.167,4.499,0.5,6.637c0.633,2.029,2.323,3.884,4.444,4.026c1.122,0.074,2.254-0.325,3.358-0.118
	c3.203,0.602,3.978,5.283,2.41,7.72c-1.212,1.884-2.627,0.958-4.325,1.821c-1.861,0.947-2.295,3.429-2.261,5.324
	c0.021,1.189,0.862,3.81-0.325,4.493c0.088-0.051-3.724-0.079-3.367,0.156c-2.472-1.623-1.067-6.514-3.189-8.585
	c-1.704-1.662-4.01-0.951-6.197-0.993c-2.595-0.051-5.583-0.391-7.388,1.942c-3.353,4.334-0.057,10.647-0.431,15.572
	c-3.388,0.227-8.193-0.093-10.396,1.742c-2.798,2.33-1.384,7.879-1.378,10.959c0.005,2.5,0.518,3.002-1.057,3.902
	c-0.788,0.45-3.208,0.392-4.1,0.421c-2.019,0.065-4.189-0.429-6.153,0.313c-3.58,1.354-3.201,4.103-2.816,7.227
	c0.193,1.565,0.556,5.879-0.416,7.403c-1.557,2.44-6.661,1.56-9.143,1.535c-3.478-0.035-5.773,0.143-7.126,3.73
	c-1.226,3.25,1.252,10.284-1.47,12.648c-4.315-0.286-9.116,0.975-13.198,1.422c-1.817,0.199-2.815,1.255-3.055,3.055
	c-0.302,2.265,0.408,4.463,0.455,6.734c0.048,2.295-0.048,4.562-0.34,6.826c-3.043,0.701-5.644,0.491-9.023,0.679
	c-2.304,0.127-5.363,0.318-7.129,2.061c-1.586,1.566-1.244,3.137-1.085,5.048c0.13,1.549,1.262,7.56,0.382,9.038
	c-2.178,3.656-12.07-0.865-15.787,2.148c-4.324,3.505-2.302,12.766-1.428,17.662c-1.413,3.011-0.524,7.83-0.472,10.536
	c0.1,5.217,0.128,10.66,0.881,15.88c-6.158,0.118-12.315,0.234-18.509,0.141c-8.737-0.131-20.606,0.12-20.587,11.596
	c0.009,5.761,3.369,7.66,7.604,8.237c-1.798,9.156-0.907,19.403-0.946,28.582c-0.019,4.542-0.125,9.115,0.239,13.644
	c0.044,0.541,0.073,1.077,0.091,1.61c-8.461-1.003-17.013-0.276-25.47,0.479c-8.452,0.754-17.047,1.006-25.466,2.17
	c-7.282,1.006-14.679,1.012-21.968,1.937c-8.207,1.04-8.743,6.105-9.433,12.964c-0.383,3.804-1.448,8.579-0.128,11.879
	c-3.878,0.84-7.03,2.416-6.933,7.029c0.078,3.671,1.171,7.468,5.236,8.011c1.739,0.232,3.556-0.104,5.346-0.379
	c-1.795,7.895-0.712,16.55-0.351,24.491c0.151,3.321-0.619,8.898,0.93,12.555c-4.441,0.813-8.657,3.315-9.268,8.239
	c-0.51,4.107,0.082,9.827,4.683,11.22c1.964,0.595,4.14,0.349,6.27,0.164c0.924,3.215,0.444,8.671,0.351,11.372
	c-0.183,5.243-0.284,10.479-0.348,15.725c-0.12,9.761-0.617,19.467-0.904,29.188c-0.534,18.087-2.658,36.116-2.746,54.206
	c-0.028,5.743-0.078,11.485-0.137,17.227c-0.04,3.865-0.358,8.09,0.891,11.845c-1.46,0.1-2.918,0.224-4.37,0.403
	c-8.151,1.003-10.81,4.945-11.02,12.986c-0.075,2.891-0.447,6.235,1.85,8.408c2.445,2.314,6.621,2.74,9.803,3.096
	c7.764,0.868,15.816,1.233,23.616,1.208c19.83-0.065,39.702,0.025,59.509-0.881c9.444-0.432,19.064-0.55,28.515-0.653
	c10.337-0.111,20.623-1.049,30.938-1.338c16.64-0.47,33.468,1.477,50.136,0.717c5.855,0.099,11.766-0.379,17.567-0.176
	c2.261,0.079,4.502,0.11,6.747,0.086c2.893,0.833,6.039,0.994,9.137,1.058c6.821,0.141,13.547-0.217,20.358-0.348
	c7.972-0.152,15.947-0.026,23.9-0.257c5.839-0.168,12.109,0.178,18.112-0.454c2.439,0.068,4.879,0.13,7.309,0.09
	c16.668,0.76,33.496-1.186,50.136-0.717c10.317,0.29,20.602,1.228,30.938,1.338c9.451,0.101,19.071,0.22,28.515,0.653
	c19.806,0.905,39.679,0.816,59.509,0.881c7.8,0.025,15.854-0.339,23.616-1.208c3.182-0.356,7.358-0.781,9.804-3.096
	C512.378,503.408,512.007,500.064,511.931,497.173z M498.078,334.504c1.021,3.749-1.602,3.466-4.347,3.378
	c-2.361-0.075-4.553,0.198-6.897,0.441c-6.258,0.649-12.322,0.867-18.615,0.732c-12.184-0.262-24.42-0.629-36.66-0.798
	c-0.124-2.959-0.337-5.903-0.722-8.849c3.404,0.254,7.945,0.775,11.602-0.21c7.268,0.563,14.783-0.214,22.005,0.458
	c5.233,0.488,10.516,1.295,15.751,1.603C484.689,331.525,496.556,328.921,498.078,334.504z M431.78,405.904
	c-0.047-13.18-1.05-26.727,0.297-39.824c0.682-6.63-0.154-13.393-0.302-20.041c-0.009-0.412-0.019-0.822-0.027-1.233
	c8.558-0.112,17.127-0.24,25.684-0.173c7.492,0.058,14.897,1.233,22.451,0.568c3.042-0.269,6.1-0.726,9.152-0.981
	c-1.831,5.238-1.352,12.523-1.484,17.345c-0.254,9.291-0.229,18.592-0.33,27.885c-0.179,16.504,2.494,33.153,1.982,49.642
	c-0.291,9.378,0.478,18.963,0.444,28.399c-0.012,3.407,1.343,10.235-0.544,13.238c-1.643,2.615-8.301,1.329-11.171,1.598
	c-7.631,0.713-15.492,0.88-23.155,0.842c-4.142-0.02-8.286-0.006-12.429-0.009c-3.38-0.002-7.265,0.383-10.814,0.024
	c-0.084-0.373-0.232-0.737-0.439-1.08C434.381,456.825,431.871,431.275,431.78,405.904z M490.241,306.475
	c-0.229,3.168-0.435,6.423-0.72,9.577c-0.144,1.589-0.132,5.197-0.914,6.787c-0.337,0.399-0.528,0.829-0.602,1.266
	c-5.393-0.173-10.741-0.217-16.166-0.714c-7.972-0.73-15.853-0.901-23.86-0.787c-0.458,0.006-0.928,0.004-1.404-0.002
	c-0.029-0.034-0.055-0.075-0.085-0.108c-2.359-2.527-5.496-4.46-8.583-6.259c-0.412-0.311-0.826-0.624-1.238-0.927
	c-2.791-2.046-5.859-3.322-8.889-4.956c-3.363-1.814-6.747-3.743-10.173-5.57c0.297-2.144,1.118-7.96,1.171-9.102
	c0.09-1.916,0.165-3.892,0.216-5.876c0.119-0.024,0.238-0.044,0.362-0.084c2.383-0.765,5.26-0.27,7.738-0.282
	c4.055-0.019,8.14,0.117,12.191-0.037c7.476-0.282,14.834-0.748,22.343-0.857c6.306-0.092,13.026-0.147,19.281-0.928
	c3.393-0.424,6.871-0.439,10.312-0.386C489.799,293.535,490.707,300.043,490.241,306.475z M499.982,280.02
	c0.132,0.23,0.904,2.591,0.406,2.952c-0.095,0.07-4.77-1.045-5.55-1.084c-5.517-0.28-10.941,0.166-16.399,0.597
	c-11.284,0.894-22.845-0.642-34.058,0.647c-6.356,0.73-13.023,0.422-19.413,0.181c-1.999-0.075-4.14-0.435-5.981,0.12
	c-0.025-0.827-0.045-1.658-0.097-2.467c-0.06-0.946-0.126-1.89-0.192-2.835c7.06,0.688,14.195,0.531,21.332,0.534
	c4.351,0.001,8.619-0.706,12.962-0.661c4.937,0.052,9.572,0.745,14.487,0.163c4.88-0.578,9.946-0.388,14.834-0.787
	c2.051-0.168,4.168-0.205,6.276-0.279c2.483,0.634,4.99,0.558,7.599,0.979C498.106,278.389,499.058,278.413,499.982,280.02z
	 M437.529,249.733c6.883,0.713,13.69,1.307,20.578,1.878c5.456,0.454,10.827,1.343,16.233,1.883
	c3.639,0.363,7.323,0.74,10.981,0.735c1.545-0.002,3.963-0.358,5.426,0.325c3.068,1.433,2.389,4.064,2.594,6.458
	c0.276,3.241,2.668,8.641-1.006,9.836c-1.338,0.435-4.02-0.095-5.437-0.018c-9.445,0.517-18.731,2.37-28.233,1.484
	c-7.6-0.709-15.123,0.339-22.736,0.28c-5.881-0.046-11.809-0.708-17.67-0.536c-0.432-5.865-0.835-11.726-0.866-17.626
	c-0.014-2.634-0.217-5.159-0.293-7.71C423.793,248.751,430.609,249.017,437.529,249.733z M248.78,16.195
	c-1.005,0.111-2.032,0.335-3.014,0.135c-1.996-0.404-3.302-2.621-3.051-4.642c0.25-2.022,1.781-3.728,3.619-4.603
	c3.028-1.442,7.204-1.133,10.493-1.226c3.796-0.107,7.607-0.024,11.364,0.574c1.04,0.165,2.131,0.383,2.924,1.076
	c1.168,1.023,1.344,2.743,1.44,4.292c0.077,1.23,0.11,2.595-0.689,3.534c-1.299,1.528-3.684,0.998-5.432,1.328
	c-1.705,0.322-3.765,1.377-4.438,3.104c-1.003,2.575,2.289,7.148-0.808,8.972c-0.451,0.265-0.986,0.348-1.508,0.381
	c-3.069,0.193-6.339-0.121-6.432-3.786c-0.068-2.726,1.104-7.634-2.255-8.961C250.289,16.094,249.541,16.113,248.78,16.195z
	 M227.28,35.986c4.945-1.647,4.63,6.655,7.038,8.817c2.29,2.057,9.887,1.808,11.854-0.563c1.512-1.821,1.278-4.612,1.137-6.807
	c-0.097-1.489-0.375-1.819,0.525-2.741c0.131-0.133,0.384-0.252,0.71-0.358c2.67,0.373,5.796-0.065,8.019-0.085
	c3.387-0.032,8.434-1.638,8.123,3.186c-0.141,2.196-0.375,4.986,1.137,6.807c1.965,2.369,9.553,2.619,11.849,0.567
	c2.053-1.835,1.413-5.001,2.959-6.927c1.35-1.681,4.671-1.792,5.748,0.214c0.796,1.484-0.376,5.39-0.541,7.043
	c-0.11,1.097-0.311,2.253-0.404,3.404c-4.346-0.302-8.898-0.005-12.965-0.315c-6.775-0.515-13.515-0.217-20.291-0.574
	c-6.184-0.326-12.628,0.324-18.79,1c-2.28,0.25-4.54,0.451-6.791,0.68c-0.037-1.408-0.309-2.845-0.443-4.193
	C225.929,42.857,224.059,37.06,227.28,35.986z M216.774,55.222c1.805-0.064,3.65-0.366,5.464-0.683
	c3.765-0.082,7.593-0.609,11.153-0.901c6.17-0.505,12.621-1.183,18.79-0.822c6.774,0.395,13.522,0.143,20.291,0.686
	c4.85,0.39,11.091,1.533,16.384,0.881c2.103,0.369,4.261,0.766,6.368,0.84c0.914,0.032,1.625,0.336,1.96,0.275
	c-0.062,1.39-0.279,3.404-0.283,3.664c-0.025,1.507-0.205,3.293-0.161,5.028c-14.697-2.597-29.872-2.778-44.682-1.579
	c-8.738,0.708-17.535,0.515-26.268,1.468c-3.528,0.385-7.067,0.812-10.597,1.272c0.203-2.077-0.062-4.341-0.092-6.19
	c-0.005-0.26-0.22-2.274-0.283-3.664C215.15,55.558,215.86,55.254,216.774,55.222z M201.094,72.787
	c-0.012-0.594-0.062-0.918-0.115-1.091c0.049,0.005,0.114-0.004,0.198-0.034c0.755-0.289,2.91,0.094,3.802,0.054
	c1.691-0.074,3.969-0.131,5.843-0.66c5.283-0.339,10.621-1.294,15.715-1.672c8.767-0.653,17.56-0.614,26.324-1.151
	c9.79-0.6,19.494-0.494,29.291-0.001c5.226,0.263,11.271,1.746,16.915,1.841c0.271,0.201,0.561,0.39,0.895,0.549
	c2.005,0.951,4.981,1.003,7.057,1.094c0.892,0.04,3.047-0.343,3.802-0.054c0.084,0.032,0.148,0.04,0.198,0.034
	c-0.053,0.173-0.104,0.498-0.115,1.091c-0.053,2.765-0.171,6.313,0.695,9.279c-0.368-0.037-0.737-0.068-1.1-0.113
	c-5.686-0.716-11.386-1.278-17.116-1.521c-12.275-0.517-24.816-0.639-37.095-0.117c-12.41,0.528-24.749,1.164-37.199,1.209
	c-5.912,0.022-12.312-0.217-18.592,0.163C201.248,78.8,201.145,75.435,201.094,72.787z M183.873,90.966
	c-0.214-3.362-0.231-3.196,3.027-3.123c2.814,0.062,6.21,0.444,8.943-0.537c1.31-0.09,2.641-0.187,4.027-0.216
	c6.052-0.124,12.103-0.098,18.163-0.095c12.41,0.006,24.789-0.244,37.155-0.867c12.632-0.636,25.671-0.9,38.306-0.108
	c5.376,0.337,10.829,0.688,16.147,1.383c3.213,0.419,6.759,0.787,10.167,0.541c1.797,0.08,3.643-0.064,5.29-0.101
	c3.256-0.073,3.24-0.238,3.027,3.123c-0.139,2.184-0.602,4.332-0.299,6.529c0.094,0.688,0.275,1.328,0.491,1.942
	c-9.221-1.211-18.46-2.493-27.752-2.798c-15.396-0.504-30.876-0.563-46.274,0.173c-14.548,0.696-29.09,1.222-43.632,2.075
	c-8.173,0.479-16.309,0.588-24.496,0.702c-0.865,0.012-1.725,0.052-2.581,0.107c0.267-0.689,0.482-1.414,0.59-2.201
	C184.474,95.298,184.011,93.149,183.873,90.966z M177.102,105.002c2.368-0.078,4.745-0.225,7.097-0.194
	c8.083,0.107,16.12,0.249,24.191-0.134c15.001-0.713,29.968-1.388,44.963-2.151c15.12-0.769,30.449-1.008,45.569-0.372
	c6.603,0.278,12.951,1.005,19.522,1.839c4.981,0.633,9.825,0.735,14.708,0.716c3.921,0.789,8.085,0.695,12.117,1.034
	c-0.193,1.821-0.582,3.718-0.563,5.471c0.021,1.969,0.153,3.861,0.391,5.763c-2.152,0.079-4.315,0.233-6.452,0.223
	c-8.266-0.04-16.561-0.629-24.856-0.628c-17.665,0.002-35.388,0.818-53.071-0.058c-18.291-0.905-36.68,0.034-54.96,0.593
	c-9.255,0.283-18.509,0.331-27.77,0.378c-3.716,0.019-7.463,0.014-11.177,0.25c0.306-2.162,0.458-4.291,0.482-6.522
	c0.019-1.752-0.37-3.649-0.563-5.471C170.168,105.45,173.703,105.477,177.102,105.002z M149.738,123.879
	c0.219-1.369-0.581-0.821,1.662-0.389c1.42,0.274,3.26,0.006,4.764,0.024c1.018,0.011,1.942-0.045,2.835-0.156
	c4.51,0.238,9.519-0.65,13.405-0.577c9.327,0.176,18.602-0.266,27.909-0.199c18.931,0.135,37.889-1.59,56.84-0.809
	c17.29,0.713,34.58-0.042,51.831,0.282c8.752,0.165,17.51-0.071,26.252,0.377c4.226,0.217,8.594-0.13,12.919-0.22
	c2.667,0.866,4.82,1.334,7.678,1.302c1.503-0.016,3.345,0.252,4.764-0.024c2.242-0.434,1.443-0.98,1.662,0.389
	c0.562,3.51-0.755,7.528-0.137,11.131c-4.61-0.359-9.262-0.475-13.756-0.775c-8.446-0.564-16.896-1.476-25.379-1.383
	c-21.63,0.236-43.293,1.018-64.942,1.33c-21.116,0.304-42.216,0.494-63.323,1.305c-10.824,0.417-21.612,0.608-32.442,0.872
	c-4.132,0.101-8.426-0.072-12.714-0.074C150.839,132.377,149.11,127.808,149.738,123.879z M132.324,140.641
	c0.419-0.269,3.153-0.024,4.811,0.086c8.058,1.542,17.126,1.079,25.146,0.846c10.824-0.315,21.616-0.318,32.442-0.74
	c21.094-0.822,42.214-1.289,63.323-1.496c21.648-0.211,43.312-0.838,64.942-0.984c8.489-0.057,16.933,0.954,25.379,1.482
	c7.057,0.441,15.675,2.25,22.858,0.84c0.864,0.025,1.708,0.039,2.489,0.093c0.832,0.057,5.409-0.482,5.961-0.128
	c1.175,0.752,0.715,1.975,0.734,3.369c0.031,2.236,0.128,4.33,0.343,6.457c-1.321-0.139-2.7-0.133-3.726-0.213
	c-3.305-0.258-6.646-0.134-9.963-0.104c-7.091,0.067-14.068,0.419-21.128,0.742c-15.608,0.713-31.49-0.33-47.124-0.324
	c-3.997,0.001-8.016,0.13-12.012-0.026c-0.159-0.006-0.318-0.02-0.477-0.028c-1.069-0.165-2.167-0.254-3.27-0.298
	c-1.812-0.197-3.618-0.378-5.455-0.229c-0.95,0.077-1.904,0.192-2.856,0.295c-5.66,0.114-11.349,0.861-17.018,1.034
	c-3.991,0.121-7.97,0.139-11.95,0.17c-3.779-0.655-7.591-1.191-11.368-1.499c-3.097-0.251-6.11,0.435-9.202,0.555
	c-3.996,0.156-8.015,0.027-12.012,0.026c-15.635-0.005-31.517,1.037-47.124,0.324c-7.059-0.322-14.037-0.675-21.128-0.742
	c-3.316-0.031-6.659-0.154-9.963,0.104c-1.026,0.08-2.406,0.074-3.726,0.213c0.214-2.128,0.312-4.221,0.343-6.457
	C131.608,142.616,131.149,141.393,132.324,140.641z M132.563,161.615c-0.011-0.851-0.349-3.113-0.232-4.669
	c9.075-0.963,18.792-1.084,27.835-0.375c10.365,0.812,20.744,0.586,31.163,0.624c11.27,0.041,22.604,0.512,33.871,0.238
	c2.274-0.055,4.48-0.118,6.683-0.147c8.587,0.808,17.495,0.386,25.837,0.239c2.339-0.041,4.671-0.174,7.001-0.319
	c2.324,0.277,4.656,0.371,7.168,0.223c5.089-0.299,9.832-0.118,14.907,0.005c11.266,0.273,22.601-0.197,33.871-0.238
	c10.419-0.039,20.798,0.188,31.163-0.624c9.043-0.709,18.76-0.588,27.835,0.375c0.117,1.556-0.221,3.818-0.232,4.669
	c-0.035,2.772-0.279,5.504-0.375,8.26c-0.112,3.256,0.438,6.489,1.097,9.692c-4.787-0.08-9.579-0.128-14.394-0.045
	c-5.681,0.098-11.258-0.628-16.965-0.558c-5.925,0.072-12.139,0.515-18.025-0.066c-11.802-1.163-23.585,0.052-35.412-0.306
	c-9.318-0.283-19.825-1.805-29.374-0.219c-4.889,0.084-9.802,0.254-14.794,0.107c-1.655-0.049-3.307-0.066-4.955-0.066
	c-9.609-1.648-20.208-0.107-29.599,0.178c-11.827,0.359-23.609-0.856-35.412,0.306c-5.886,0.581-12.1,0.138-18.025,0.066
	c-5.707-0.07-11.285,0.657-16.965,0.558c-4.816-0.084-9.607-0.035-14.394,0.045c0.659-3.203,1.209-6.435,1.097-9.692
	C132.843,167.119,132.599,164.386,132.563,161.615z M95.106,192.365c-0.814-3.453,4.643-4.61,6.762-4.994
	c5.281-0.958,10.923-0.717,16.28-0.806c10.311-0.167,20.52-0.662,30.874-0.644c4.744,0.007,9.402-0.712,14.179-0.681
	c5.412,0.035,10.973,0.369,16.371,0.046c11.339-0.681,22.553-0.862,33.939-0.745c3.084,0.032,6.138-0.173,9.195-0.389
	c2.249,0.12,4.504,0.099,6.588,0.115c6.953,0.052,13.802-0.447,20.775-0.185c6.881,0.258,13.647,0.039,20.385-0.568
	c0.238,0.019,0.481,0.041,0.708,0.053c2.998,0.151,5.987,0.131,8.99,0.139c6.165,0.018,12.191,0.9,18.336,0.835
	c11.386-0.118,22.6,0.064,33.939,0.745c5.398,0.324,10.959-0.011,16.371-0.046c4.776-0.031,9.434,0.689,14.179,0.681
	c10.352-0.018,20.563,0.477,30.874,0.644c5.358,0.087,10.999-0.152,16.28,0.806c2.119,0.384,7.576,1.541,6.762,4.994
	c-0.628,2.66-4.162,1.984-6.06,2.016c-9.948,0.172-20.133,1.275-30.068,0.102c-21.577-2.544-43.958-1.258-65.683-1.288
	c-10.046-0.014-20.035,0.146-30.017-0.803c-0.754-0.094-1.515-0.168-2.283-0.223c-4.064-0.441-8.325-0.912-12.38-0.541
	c-1.103,0.101-2.364,0.326-3.687,0.564c-3.166,0.07-6.318,0.243-9.474,0.352c-0.012-0.005-0.026-0.006-0.038-0.011
	c-0.414-0.139-0.776-0.097-1.082,0.049c-0.078,0.002-0.156,0.002-0.233,0.005c-0.306-0.151-0.674-0.196-1.091-0.054
	c-0.095,0.032-0.199,0.054-0.297,0.082c-2.023,0.037-4.049,0.028-6.081-0.08c-0.501-0.027-1.019-0.039-1.524-0.062
	c-1.903-0.322-3.752-0.705-5.296-0.846c-4.286-0.392-8.805,0.158-13.077,0.616c-0.938,0.1-1.876,0.179-2.814,0.26
	c-3.565,0.105-7.697,0.104-11.516,0.596c-5.746,0.133-11.5,0.086-17.273,0.094c-21.725,0.029-44.106-1.256-65.683,1.288
	c-9.935,1.172-20.12,0.07-30.068-0.102C99.267,194.348,95.733,195.025,95.106,192.365z M270.728,223.694
	c-2.633-5.789-6.29-17.374-13.069-20.083c-2.435-0.973-3.659,0.252-4.794,2.389c-2.339,4.406-3.667,9.973-5.29,14.699
	c-2.163,6.302-6.913,14.248-1.522,18.737c-1.711,0.536-3.421,1.126-5.115,1.779c-31.762,9.34-60.634,26.688-91.363,38.825
	c-7.857,3.103-15.796,5.993-23.43,9.615c-7.368,3.495-14.45,7.367-22.028,10.459c-1.361,0.555-2.707,1.165-4.049,1.8
	c0.233-0.785,0.406-1.639,0.503-2.646c0.449-4.644,0.325-9.415,0.263-14.078c-0.128-9.524,1.093-19.038,0.997-28.579
	c-0.044-4.273,0.735-8.664,0.377-12.889c-0.439-5.184-0.59-10.298-0.635-15.513c-0.079-9.109,1.008-19.256-0.68-28.363
	c2.387-0.044,4.74-0.171,6.7-0.017c24.442,1.919,49.047-0.066,73.609-0.079c14.332-0.007,28.758,0.422,43.037-0.523
	c3.657-0.242,7.305-0.637,10.956-1.019c4.443,0.058,8.927,0.226,13.22,0.505c6.895,0.448,13.725-0.187,20.622-0.15
	c4.464,0.024,9.625,0.587,14.497,0.324c1.405,0.13,2.812,0.247,4.22,0.34c14.28,0.945,28.706,0.516,43.038,0.523
	c24.562,0.013,49.167,1.998,73.609,0.079c1.96-0.154,4.314-0.026,6.7,0.016c-1.688,9.107-0.601,19.254-0.68,28.363
	c-0.045,5.215-0.196,10.33-0.635,15.513c-0.358,4.225,0.421,8.616,0.377,12.889c-0.097,9.54,1.125,19.054,0.997,28.579
	c-0.062,4.663-0.186,9.434,0.263,14.078c0.098,1.007,0.271,1.861,0.503,2.646c-1.342-0.635-2.688-1.245-4.049-1.8
	c-7.579-3.093-14.66-6.964-22.028-10.459c-7.634-3.622-15.573-6.511-23.43-9.615c-27.69-10.938-53.877-26.09-82.023-35.818
	c-2.957-1.669-6.46-2.917-9.816-4.01C273.579,235.095,273.183,229.092,270.728,223.694z M265.549,238.584
	c-0.297-0.099-0.604-0.198-0.891-0.297c-3.102-1.072-9.779-3.055-12.998-0.419c-0.573,0.141-1.15,0.298-1.726,0.451
	c-0.911-1.945-2.264-3.534-1.866-5.905c0.448-2.664,2.043-5.544,2.969-8.089c1.066-2.93,2.036-5.886,3.141-8.803
	c0.814-2.149,1.537-7.611,3.814-6.798c1.952,0.697,3.464,4.848,4.305,6.636c1.319,2.804,2.321,5.775,3.441,8.661
	C267.413,228.341,268.799,234.486,265.549,238.584z M107.034,306.676c7.265-2.766,14.216-6.372,21.082-9.977
	c8.383-4.403,17.785-7.324,26.551-10.902c16.628-6.786,33.15-14.036,49.165-22.031c8.118-4.053,17.006-6.801,25.396-10.321
	c1.233-0.352,2.501-0.885,3.735-1.455c3.795-1.259,8.352-2.244,11.928-4.244c3.803-0.945,7.687-1.932,11.498-2.58
	c0.774-0.132,1.545-0.176,2.313-0.185c2.652,0.926,5.148,2.671,8.001,3.68c1.914,0.677,4.299,1.655,6.444,1.541
	c0.144,0.045,0.287,0.086,0.432,0.13c5.977,3.031,12.02,6.105,18.657,6.904c0.067,0.008,0.127,0.001,0.186-0.012
	c5.343,2.009,10.693,4.021,15.743,6.542c16.015,7.995,32.536,15.245,49.165,22.031c8.766,3.578,18.168,6.5,26.551,10.902
	c6.866,3.606,13.817,7.211,21.082,9.977c7.667,2.919,14.835,7.485,22.267,10.991c2.921,1.378,5.636,3.386,8.479,5.056
	c-0.118,0.015-0.234,0.032-0.351,0.051c-1.391-0.125-2.58-0.264-3.041-0.298c-3.945-0.295-7.813-1.274-11.766-1.491
	c-8.509-0.468-17.104-1.054-25.629-1.19c-7.204-0.114-14.578-1.092-21.733-0.56c-7.435,0.555-14.823,0.434-22.295,0.411
	c-15.645-0.047-31.01-0.247-46.561-1.758c-7.043-0.684-14.11-0.835-21.202-0.689c-2.342,0.049-4.649,0.278-6.957,0.477
	c-5.57,0.031-11.17,0.126-16.656,0.396c-3.255,0.16-6.508,0.333-9.762,0.488c-3.266-0.662-6.551-0.488-9.907-0.611
	c-3.673-0.135-7.288-0.673-10.989-0.75c-7.092-0.147-14.16,0.005-21.202,0.689c-15.551,1.512-30.916,1.711-46.561,1.758
	c-7.47,0.022-14.859,0.144-22.295-0.411c-7.155-0.534-14.527,0.444-21.733,0.56c-8.524,0.135-17.119,0.722-25.629,1.19
	c-3.951,0.218-7.819,1.197-11.766,1.491c-0.462,0.034-1.649,0.173-3.041,0.298c-0.117-0.018-0.233-0.034-0.351-0.051
	c2.844-1.671,5.558-3.678,8.479-5.056C92.2,314.16,99.367,309.595,107.034,306.676z M20.779,287.231
	c3.442-0.053,6.919-0.038,10.312,0.386c6.255,0.781,12.975,0.836,19.281,0.928c7.508,0.108,14.865,0.575,22.343,0.857
	c4.05,0.152,8.136,0.018,12.191,0.037c2.478,0.012,5.354-0.483,7.738,0.282c0.124,0.04,0.243,0.06,0.362,0.084
	c0.051,1.984,0.126,3.961,0.216,5.876c0.053,1.142,0.874,6.958,1.171,9.102c-3.426,1.827-6.809,3.757-10.173,5.57
	c-3.031,1.634-6.098,2.91-8.889,4.956c-0.412,0.303-0.826,0.616-1.238,0.927c-3.087,1.799-6.224,3.732-8.583,6.259
	c-0.031,0.032-0.057,0.074-0.085,0.108c-0.476,0.006-0.947,0.009-1.404,0.002c-8.008-0.114-15.888,0.057-23.86,0.787
	c-5.425,0.497-10.773,0.541-16.166,0.714c-0.074-0.437-0.265-0.867-0.602-1.266c-0.782-1.59-0.77-5.198-0.914-6.787
	c-0.285-3.154-0.49-6.409-0.72-9.577C21.29,300.043,22.198,293.535,20.779,287.231z M18.656,261.013
	c0.204-2.394-0.474-5.026,2.594-6.458c1.463-0.683,3.882-0.328,5.426-0.325c3.657,0.005,7.341-0.372,10.981-0.735
	c5.406-0.54,10.776-1.429,16.232-1.883c6.888-0.571,13.696-1.165,20.578-1.878c6.92-0.716,13.737-0.981,20.431-3.01
	c-0.075,2.551-0.279,5.075-0.293,7.71c-0.031,5.9-0.434,11.761-0.866,17.626c-5.86-0.172-11.789,0.49-17.67,0.536
	c-7.613,0.059-15.138-0.99-22.736-0.28c-9.503,0.886-18.788-0.967-28.233-1.484c-1.417-0.078-4.099,0.452-5.437,0.018
	C15.989,269.655,18.38,264.253,18.656,261.013z M11.609,282.972c-0.496-0.362,0.276-2.723,0.406-2.952
	c0.924-1.607,1.876-1.63,3.792-1.939c2.608-0.421,5.115-0.345,7.599-0.979c2.108,0.074,4.225,0.112,6.276,0.279
	c4.888,0.399,9.954,0.209,14.834,0.787c4.915,0.582,9.55-0.112,14.487-0.163c4.343-0.045,8.611,0.662,12.962,0.661
	c7.137-0.002,14.272,0.154,21.332-0.534c-0.066,0.944-0.132,1.888-0.192,2.835c-0.052,0.809-0.071,1.64-0.097,2.467
	c-1.841-0.555-3.982-0.194-5.981-0.12c-6.39,0.24-13.056,0.549-19.413-0.181c-11.213-1.289-22.773,0.247-34.058-0.647
	c-5.457-0.432-10.881-0.878-16.399-0.597C16.379,281.927,11.704,283.041,11.609,282.972z M18.266,337.881
	c-2.745,0.088-5.369,0.371-4.347-3.378c1.521-5.583,13.388-2.978,17.881-3.243c5.237-0.31,10.518-1.117,15.752-1.603
	c7.222-0.673,14.737,0.106,22.005-0.458c3.657,0.985,8.198,0.464,11.602,0.21c-0.384,2.946-0.597,5.889-0.722,8.849
	c-12.239,0.168-24.476,0.536-36.66,0.798c-6.295,0.135-12.358-0.082-18.615-0.732C22.821,338.079,20.628,337.806,18.266,337.881z
	 M22.796,439.091c-0.512-16.489,2.162-33.138,1.982-49.642c-0.101-9.293-0.074-18.594-0.329-27.885
	c-0.132-4.821,0.346-12.107-1.484-17.345c3.051,0.256,6.11,0.713,9.152,0.981c7.554,0.664,14.961-0.511,22.451-0.568
	c8.557-0.066,17.126,0.062,25.684,0.173c-0.008,0.411-0.018,0.821-0.027,1.233c-0.148,6.648-0.984,13.41-0.302,20.041
	c1.347,13.097,0.344,26.644,0.297,39.824c-0.091,25.369-2.601,50.92,0.687,76.2c-0.207,0.342-0.356,0.707-0.439,1.08
	c-3.548,0.359-7.434-0.026-10.814-0.024c-4.143,0.004-8.287-0.011-12.429,0.009c-7.664,0.038-15.524-0.13-23.155-0.842
	c-2.871-0.269-9.527,1.018-11.171-1.598c-1.887-3.004-0.533-9.831-0.544-13.238C22.317,458.054,23.087,448.469,22.796,439.091z
	 M83.84,494.535c-0.243,2.492-0.66,5.193-0.437,7.711c0.027,0.303,0.09,0.574,0.171,0.827c-4.85,0.028-9.695,0.024-14.52-0.017
	c-16.491-0.134-32.906,0.666-49.372-0.381c-3.388-0.216-8.365,0.273-11.388-1.316c-1.938-1.02-1.687-1.814-1.557-4.187
	c0.153-2.819,0.5-4.972,3.249-6.108c3.646-1.506,9.916-0.886,13.84-0.948c1.027-0.017,2.056-0.042,3.084-0.073
	c1.859-0.019,3.746-0.097,5.524,0.052c8.23,0.689,16.522,1.109,24.786,1.089c8.439-0.021,18.377,1.377,26.754-0.375
	C83.954,492.045,83.962,493.288,83.84,494.535z M87.515,404.785c-0.085-12.352,0.914-25.462-0.734-37.705
	c-0.355-2.637-0.551-5.283-0.663-7.936c1.286,0.065,2.586,0.018,4-0.068c1.954-0.119,3.844,0.074,5.741,0.303
	c-0.53,2.273-0.233,4.947,0.549,6.65c0.145,0.317,0.315,0.602,0.496,0.873c0.353,0.723,0.905,1.377,1.758,1.918
	c1.689,1.071,4.494,1.03,6.678,1.149c-0.626,3.468-1.754,6.735-2.347,10.221c-0.706,4.151-1.131,8.343-1.54,12.529
	c-0.868,8.902-1.839,17.789-2.533,26.696c-0.697,8.942-1.03,17.858-1.724,26.807c-0.713,9.2-0.735,18.528-1.712,27.681
	c-0.328,3.065-0.191,6.132,0.805,8.64c-2.466,0.193-4.924,0.561-7.38,0.905c-0.833-12.322-1.662-24.421-1.779-36.778
	C86.998,432.654,87.612,418.782,87.515,404.785z M133.964,359.214c4.474,0.053,8.951,0.147,13.42,0.249
	c-0.503,2.254-0.203,4.883,0.569,6.566c0.145,0.317,0.315,0.602,0.497,0.873c0.353,0.723,0.905,1.377,1.758,1.918
	c1.689,1.071,4.494,1.03,6.678,1.149c-0.626,3.468-1.754,6.735-2.347,10.221c-0.706,4.15-1.131,8.343-1.54,12.529
	c-0.868,8.902-1.838,17.789-2.533,26.696c-0.697,8.942-1.03,17.858-1.724,26.807c-0.713,9.2-0.735,18.528-1.712,27.681
	c-0.305,2.863-0.217,5.732,0.606,8.142c-2.324-0.156-4.651-0.291-6.994-0.322c-3.366-0.045-6.715,0.103-10.06,0.339
	c1.827-4.203,1.566-10.2,1.365-13.899c-0.538-9.971-3.583-19.815-3.664-29.783c-0.091-11.044-1.107-21.955-1.125-33.028
	c-0.019-11.47-1.005-22.737-1.739-34.157c2.476-0.068,4.815-0.484,6.458-1.739C134.65,367.335,133.962,362.533,133.964,359.214z
	 M185.513,359.644c4.451-0.002,8.898,0.049,13.34,0.196c-0.391,2.164-0.084,4.598,0.646,6.187c0.145,0.317,0.316,0.602,0.497,0.873
	c0.353,0.723,0.905,1.377,1.758,1.918c1.689,1.071,4.494,1.03,6.678,1.149c-0.626,3.468-1.754,6.735-2.347,10.221
	c-0.705,4.15-1.131,8.343-1.54,12.529c-0.868,8.902-1.838,17.789-2.533,26.696c-0.697,8.942-1.03,17.858-1.724,26.807
	c-0.713,9.2-0.735,18.528-1.712,27.681c-0.346,3.252-0.184,6.511,0.985,9.096c-6.047,0.351-12.083,0.45-18.116,0.395
	c2.578-4.171,2.269-11.124,2.048-15.233c-0.538-9.971-3.583-19.815-3.664-29.783c-0.091-11.044-1.107-21.955-1.125-33.028
	c-0.019-11.47-1.005-22.737-1.739-34.157c2.476-0.068,4.815-0.484,6.458-1.739C186.078,367.425,185.56,362.937,185.513,359.644z
	 M237.059,359.627c6.117,0.313,12.281,0.292,18.196,0.348c6.569,0.062,13.116,0.272,19.666,0.535
	c-0.092,3.174-0.319,7.087,2.11,8.944c1.643,1.256,3.981,1.672,6.458,1.739c-0.734,11.419-1.721,22.687-1.739,34.157
	c-0.018,11.073-1.034,21.986-1.125,33.028c-0.081,9.968-3.126,19.811-3.664,29.783c-0.209,3.871-0.464,10.235,1.659,14.451
	c-8.892,0.045-17.795-0.053-26.704,0.007c-5.842,0.04-11.745,0.346-17.634,0.502c-0.358-0.041-0.716-0.092-1.076-0.123
	c2.334-4.202,2.049-10.852,1.833-14.837c-0.538-9.971-3.583-19.815-3.664-29.783c-0.091-11.044-1.107-21.955-1.125-33.028
	c-0.019-11.47-1.005-22.737-1.739-34.157c2.476-0.068,4.815-0.484,6.458-1.739C237.629,367.421,237.103,362.921,237.059,359.627z
	 M313.144,359.84c4.443-0.146,8.89-0.198,13.34-0.196c-0.047,3.292-0.565,7.779,2.091,9.809c1.643,1.256,3.981,1.672,6.458,1.739
	c-0.734,11.419-1.721,22.687-1.739,34.157c-0.018,11.073-1.034,21.986-1.125,33.028c-0.081,9.968-3.126,19.811-3.664,29.783
	c-0.221,4.109-0.531,11.062,2.048,15.233c-6.033,0.054-12.069-0.045-18.116-0.395c1.169-2.585,1.332-5.845,0.985-9.096
	c-0.977-9.152-0.998-18.48-1.712-27.681c-0.694-8.949-1.026-17.865-1.724-26.807c-0.695-8.906-1.665-17.793-2.533-26.696
	c-0.409-4.186-0.834-8.379-1.54-12.529c-0.593-3.486-1.72-6.753-2.347-10.221c2.183-0.119,4.988-0.078,6.678-1.149
	c0.853-0.541,1.404-1.196,1.758-1.918c0.181-0.271,0.351-0.557,0.497-0.873C313.228,364.439,313.535,362.005,313.144,359.84z
	 M364.614,359.462c4.467-0.1,8.945-0.194,13.42-0.249c0.002,3.32-0.686,8.121,2.088,10.24c1.643,1.256,3.981,1.672,6.458,1.739
	c-0.734,11.419-1.721,22.687-1.739,34.157c-0.018,11.073-1.034,21.986-1.125,33.028c-0.081,9.968-3.126,19.811-3.664,29.783
	c-0.2,3.699-0.462,9.696,1.365,13.899c-3.345-0.236-6.694-0.383-10.06-0.339c-2.343,0.032-4.67,0.167-6.994,0.322
	c0.822-2.409,0.911-5.279,0.606-8.142c-0.977-9.152-0.998-18.48-1.712-27.681c-0.694-8.949-1.026-17.865-1.724-26.807
	c-0.695-8.906-1.665-17.793-2.533-26.696c-0.409-4.186-0.834-8.379-1.54-12.529c-0.593-3.486-1.72-6.753-2.347-10.221
	c2.183-0.119,4.988-0.078,6.678-1.149c0.853-0.541,1.404-1.196,1.758-1.918c0.181-0.271,0.351-0.557,0.497-0.873
	C364.816,364.345,365.117,361.716,364.614,359.462z M390.045,403.037c0.007-10.73,1.05-21.349,1.737-32.045
	c1.483-0.113,2.875-0.229,4.036-0.232c2.44-0.008,4.847-0.216,7.261-0.455c-0.414,7.808,1.752,15.678,2.163,23.473
	c0.544,10.316,2.482,20.573,2.81,30.935c0.303,9.552,1.205,19.13,1.884,28.689c0.361,5.085,0.342,10.106,0.492,15.195
	c0.184,6.187,3.228,14.277-6.428,14.049c-4.185-0.099-8.308-1.089-12.467-1.277c-3.49-0.158-5.148-0.578-5.616-4.629
	c-0.331-2.869-0.647-5.688-0.537-8.578c0.408-10.702,3.444-21.088,3.55-31.817c0.054-5.441,0.999-10.75,1.185-16.17
	C390.31,414.478,390.042,408.737,390.045,403.037z M395.818,366.268c-2.606-0.011-11.002,1.153-12.347-0.813
	c-0.468-0.684-0.432-3.036-0.369-4.871c1.647-0.132,4.22,0.137,5.236,0.022c3.826-0.43,7.675-0.329,11.521-0.349
	c2.2-0.012,4.401-0.004,6.601-0.034c0.885-0.012,3.339-0.501,4.066-0.105c0.801,0.436,1.246,0.887,0.954,2.394
	c-0.311,1.599-1.307,2.458-2.525,3.002c-1.319,0.092-2.766,0.071-3.235,0.111C402.418,365.906,399.133,366.282,395.818,366.268z
	 M338.501,403.037c0.007-10.73,1.05-21.349,1.737-32.045c1.483-0.113,2.875-0.229,4.036-0.232c2.44-0.008,4.847-0.216,7.261-0.455
	c-0.414,7.808,1.752,15.678,2.163,23.473c0.544,10.316,2.481,20.573,2.81,30.935c0.303,9.552,1.205,19.13,1.884,28.689
	c0.361,5.085,0.342,10.106,0.492,15.195c0.184,6.187,3.228,14.277-6.428,14.049c-4.185-0.099-8.308-1.089-12.467-1.277
	c-3.49-0.158-5.148-0.578-5.616-4.629c-0.331-2.869-0.647-5.688-0.537-8.578c0.408-10.702,3.444-21.088,3.55-31.817
	c0.054-5.441,0.999-10.75,1.185-16.17C338.766,414.478,338.496,408.737,338.501,403.037z M359.935,362.512
	c-0.311,1.599-1.307,2.458-2.525,3.002c-1.319,0.092-2.766,0.071-3.235,0.111c-3.303,0.282-6.587,0.657-9.902,0.643
	c-2.606-0.011-11.002,1.153-12.347-0.813c-0.468-0.684-0.434-3.036-0.369-4.871c1.647-0.132,4.22,0.137,5.236,0.022
	c3.826-0.43,7.675-0.329,11.521-0.349c2.201-0.012,4.401-0.004,6.602-0.034c0.885-0.012,3.339-0.501,4.067-0.105
	C359.783,360.554,360.227,361.005,359.935,362.512z M286.955,403.037c0.007-10.73,1.05-21.349,1.737-32.045
	c1.483-0.113,2.873-0.229,4.036-0.232c2.44-0.008,4.847-0.216,7.261-0.455c-0.414,7.808,1.752,15.678,2.163,23.473
	c0.544,10.316,2.481,20.573,2.81,30.935c0.303,9.552,1.206,19.13,1.884,28.689c0.361,5.085,0.342,10.106,0.492,15.195
	c0.184,6.187,3.228,14.277-6.428,14.049c-4.185-0.099-8.308-1.089-12.467-1.277c-3.49-0.158-5.148-0.578-5.616-4.629
	c-0.331-2.869-0.647-5.688-0.537-8.578c0.408-10.702,3.444-21.088,3.55-31.817c0.054-5.441,0.999-10.75,1.185-16.17
	C287.22,414.478,286.95,408.737,286.955,403.037z M308.39,362.512c-0.311,1.599-1.305,2.458-2.525,3.002
	c-1.319,0.092-2.766,0.071-3.235,0.111c-3.303,0.282-6.587,0.657-9.902,0.643c-2.606-0.011-11.002,1.153-12.347-0.813
	c-0.457-0.668-0.434-2.929-0.372-4.745c4.287,0.15,9.053,0.166,13.458-0.448c1.1-0.001,2.201,0.001,3.302-0.005
	c2.2-0.012,4.401-0.004,6.602-0.034c0.404-0.006,1.137-0.11,1.883-0.184c0.588-0.005,1.172-0.028,1.759-0.038
	c0.168,0.025,0.319,0.059,0.424,0.117C308.238,360.554,308.683,361.005,308.39,362.512z M212.008,370.305
	c2.414,0.239,4.821,0.445,7.261,0.455c1.163,0.004,2.553,0.12,4.036,0.232c0.687,10.696,1.729,21.314,1.737,32.045
	c0.004,5.701-0.265,11.442-0.07,17.138c0.186,5.419,1.131,10.729,1.185,16.17c0.106,10.729,3.142,21.115,3.55,31.817
	c0.111,2.891-0.206,5.709-0.537,8.578c-0.468,4.05-2.126,4.471-5.616,4.629c-4.159,0.188-8.282,1.178-12.467,1.277
	c-9.656,0.229-6.612-7.862-6.428-14.049c0.151-5.089,0.131-10.111,0.492-15.195c0.679-9.558,1.582-19.136,1.884-28.689
	c0.328-10.361,2.264-20.619,2.81-30.935C210.257,385.983,212.422,378.114,212.008,370.305z M231.616,365.455
	c-1.344,1.966-9.741,0.802-12.347,0.813c-3.315,0.014-6.599-0.362-9.902-0.643c-0.469-0.04-1.916-0.019-3.235-0.111
	c-1.219-0.544-2.215-1.402-2.525-3.002c-0.292-1.507,0.152-1.958,0.954-2.394c0.106-0.058,0.256-0.092,0.424-0.117
	c0.587,0.009,1.172,0.033,1.759,0.038c0.745,0.075,1.479,0.178,1.883,0.184c2.2,0.029,4.401,0.022,6.602,0.034
	c3.845,0.02,7.694-0.081,11.521,0.349c1.016,0.114,3.589-0.154,5.236-0.022C232.049,362.419,232.083,364.772,231.616,365.455z
	 M160.464,370.305c2.414,0.239,4.821,0.445,7.261,0.455c1.163,0.004,2.553,0.12,4.036,0.232c0.687,10.696,1.729,21.314,1.737,32.045
	c0.004,5.701-0.265,11.442-0.071,17.138c0.186,5.419,1.131,10.729,1.185,16.17c0.106,10.729,3.142,21.115,3.55,31.817
	c0.111,2.891-0.206,5.709-0.537,8.578c-0.468,4.05-2.126,4.471-5.616,4.629c-4.159,0.188-8.282,1.178-12.467,1.277
	c-9.656,0.229-6.612-7.862-6.428-14.049c0.151-5.089,0.131-10.111,0.492-15.195c0.679-9.558,1.581-19.136,1.884-28.689
	c0.328-10.361,2.266-20.619,2.81-30.935C158.712,385.983,160.877,378.114,160.464,370.305z M180.071,365.455
	c-1.344,1.966-9.741,0.802-12.347,0.813c-3.315,0.014-6.599-0.362-9.902-0.643c-0.469-0.04-1.916-0.019-3.235-0.111
	c-1.219-0.544-2.215-1.402-2.525-3.002c-0.292-1.507,0.152-1.958,0.954-2.394c0.727-0.396,3.182,0.093,4.066,0.105
	c2.2,0.029,4.401,0.022,6.602,0.034c3.845,0.02,7.694-0.081,11.521,0.349c1.016,0.114,3.589-0.154,5.236-0.022
	C180.504,362.419,180.539,364.772,180.071,365.455z M108.918,370.305c2.414,0.239,4.821,0.445,7.261,0.455
	c1.163,0.004,2.553,0.12,4.036,0.232c0.687,10.696,1.729,21.314,1.737,32.045c0.004,5.701-0.265,11.442-0.071,17.138
	c0.186,5.419,1.131,10.729,1.185,16.17c0.106,10.729,3.142,21.115,3.55,31.817c0.111,2.891-0.206,5.709-0.537,8.578
	c-0.468,4.05-2.126,4.471-5.616,4.629c-4.159,0.188-8.282,1.178-12.467,1.277c-9.656,0.229-6.612-7.862-6.428-14.049
	c0.151-5.089,0.131-10.111,0.492-15.195c0.679-9.558,1.582-19.136,1.884-28.689c0.328-10.361,2.266-20.619,2.81-30.935
	C107.166,385.983,109.332,378.114,108.918,370.305z M128.525,365.455c-1.344,1.966-9.742,0.802-12.347,0.813
	c-3.315,0.014-6.599-0.362-9.902-0.643c-0.469-0.04-1.916-0.019-3.235-0.111c-1.219-0.544-2.215-1.402-2.525-3.002
	c-0.292-1.507,0.152-1.958,0.954-2.394c0.727-0.396,3.182,0.093,4.066,0.105c2.2,0.029,4.401,0.022,6.602,0.034
	c3.845,0.02,7.694-0.081,11.521,0.349c1.016,0.114,3.587-0.154,5.236-0.022C128.959,362.419,128.993,364.772,128.525,365.455z
	 M423.249,489.809c-0.137,1.486-0.584,3.085-0.561,4.573c0.036,2.317,0.465,4.728,0.052,7.072c-0.105,0.594-0.066,1.113,0.061,1.568
	c-10.231-0.13-20.471-0.45-30.614-1.074c-16.728-1.031-34.056-2.211-50.806-1.291c-7.957,0.437-15.963,0.512-23.937,0.54
	c-7.786,0.027-15.662-0.861-23.411,0.131c-1.649-0.029-3.292-0.028-4.919,0.04c-0.581,0.024-1.166,0.037-1.753,0.042
	c-0.877-0.017-1.754-0.027-2.633-0.028c-8.669-0.239-17.809-1.802-26.093,0.18c-0.333,0.08-0.611,0.229-0.847,0.417
	c-1.147,0.033-2.294,0.069-3.44,0.12c-0.26-0.249-0.587-0.442-0.99-0.537c-9.696-2.32-20.566,0.223-30.479-0.194
	c-1.627-0.068-3.269-0.071-4.919-0.04c-7.75-0.992-15.625-0.104-23.411-0.131c-7.973-0.028-15.98-0.104-23.937-0.54
	c-16.749-0.92-34.077,0.262-50.806,1.291c-10.142,0.624-20.384,0.945-30.614,1.074c0.128-0.456,0.166-0.975,0.061-1.568
	c-0.414-2.344,0.016-4.755,0.052-7.072c0.024-1.489-0.424-3.088-0.561-4.573c-0.014-0.152-0.028-0.284-0.042-0.429
	c2-0.247,3.871-0.525,5.393-0.68c3.36-0.339,6.669-0.216,10.039-0.41c0.291-0.017,0.581-0.058,0.871-0.081
	c3.654,0.28,7.609-0.232,11.157-0.65c3.117-0.368,7.04-0.102,10.012-1.103c0.029-0.011,0.054-0.026,0.084-0.037
	c4.397-0.117,8.804-0.061,13.122,0.403c5.301,0.569,10.576,1.494,15.895,1.923c14.29,1.155,29.178,1.548,43.521,0.654
	c8.505-0.53,17.918,0.553,26.933,0.128c8.357,0.275,16.772-0.117,25.133-0.059c10.673,0.072,21.46,0.626,32.101,0.176
	c9.45-0.401,19.148,1.249,28.475-0.323c0.588,0.021,1.178,0.041,1.758,0.078c14.342,0.894,29.23,0.501,43.521-0.654
	c5.319-0.429,10.594-1.354,15.895-1.923c4.318-0.464,8.725-0.52,13.123-0.403c0.029,0.011,0.054,0.026,0.084,0.037
	c2.971,1,6.895,0.735,10.012,1.103c3.546,0.418,7.502,0.93,11.157,0.65c0.291,0.024,0.58,0.065,0.871,0.081
	c3.369,0.194,6.68,0.071,10.039,0.41c1.522,0.154,3.394,0.432,5.393,0.68C423.277,489.525,423.263,489.657,423.249,489.809z
	 M425.215,367.079c-1.648,12.243-0.649,25.353-0.734,37.705c-0.097,13.996,0.517,27.869,0.385,41.884
	c-0.117,12.357-0.946,24.456-1.779,36.778c-2.455-0.344-4.914-0.712-7.38-0.905c0.995-2.508,1.131-5.575,0.805-8.64
	c-0.977-9.152-0.998-18.48-1.712-27.681c-0.694-8.949-1.026-17.865-1.724-26.807c-0.695-8.906-1.665-17.793-2.533-26.696
	c-0.409-4.186-0.834-8.379-1.54-12.529c-0.593-3.486-1.72-6.753-2.347-10.221c2.183-0.119,4.988-0.078,6.678-1.149
	c0.853-0.541,1.404-1.196,1.758-1.918c0.181-0.271,0.351-0.557,0.496-0.873c0.781-1.704,1.079-4.378,0.549-6.65
	c1.897-0.229,3.786-0.421,5.741-0.303c1.415,0.086,2.713,0.133,4,0.068C425.767,361.797,425.57,364.443,425.215,367.079z
	 M426,354.429c-4.317-0.696-8.617-0.587-13.066-0.254c-6.223,0.464-12.204-0.416-18.403-0.409
	c-13.368,0.017-26.754,0.269-40.132,0.353c-14.468,0.092-29.075-1.201-43.484-0.211c-7.316,0.502-14.845-0.057-22.181,0.02
	c-5.406,0.055-10.619-0.356-15.871,0.324c-5.148-0.186-10.298-0.333-15.464-0.292c-6.021,0.048-12.053,0.397-18.056,0.243
	c-0.271-0.007-0.541-0.026-0.812-0.037c-1.791-0.204-3.578-0.29-5.371-0.313c-1.023-0.06-2.046-0.111-3.071-0.119
	c-0.753-0.006-1.474,0.057-2.18,0.157c-1.536,0.026-3.081,0.052-4.643,0.035c-7.336-0.077-14.864,0.482-22.181-0.02
	c-14.409-0.99-29.016,0.302-43.484,0.211c-13.377-0.085-26.763-0.338-40.131-0.353c-6.199-0.007-12.18,0.873-18.403,0.409
	c-4.45-0.332-8.75-0.442-13.066,0.254c-0.092-8.447,0.331-16.932-0.788-25.326c6.342-0.502,12.653-1.087,19.016-1.283
	c-0.76,3.001-0.935,6.58-0.866,9.513c0.051,2.165-0.536,5.777,0.774,7.626c1.507,2.125,4.599,0.994,4.904-0.947
	c0.152-0.31,0.259-0.661,0.297-1.058c0.277-2.902,0.763-5.594,0.694-8.532c-0.053-2.235-0.027-4.47-0.032-6.701
	c5.272-0.015,10.704,0.019,15.993-0.265c0.07,0.642,0.145,1.284,0.221,1.926c-0.782,4.289-0.085,9.252-0.24,13.249
	c-0.146,3.746,5.551,3.693,5.793,0c0.198-3.027,0.708-5.994,0.649-9.033c-0.044-2.229-0.357-4.398-0.707-6.574
	c5.022-0.439,10.184-0.133,15.324,0.132c0.032,0.845,0.113,1.692,0.203,2.541c-0.007,0.65-0.041,1.298-0.148,1.939
	c-0.583,3.484-0.277,7.161-0.362,10.685c-0.087,3.591,5.489,3.589,5.578,0c0.071-2.865,0.657-5.761,0.833-8.641
	c0.124-2.042-0.004-4.187-0.266-6.288c0.666,0.017,1.332,0.034,1.995,0.037c4.696,0.019,9.425,0.091,14.164,0.143
	c0.173,1.034,0.368,2.056,0.491,3.023c-0.138,1.146-0.289,2.275-0.365,3.328c-0.239,3.275,0.068,6.397,0.004,9.648
	c-0.073,3.684,5.489,3.637,5.693,0c0.2-3.561,0.944-7.151,0.657-10.728c-0.119-1.482-0.445-2.987-0.651-4.451
	c-0.012-0.085-0.028-0.384-0.058-0.776c6.85,0.029,13.705-0.065,20.503-0.508c-0.022,0.242-0.042,0.448-0.065,0.584
	c-0.232,1.443-0.547,2.787-0.542,4.247c0.009,3.06,0.092,6.17,0.246,9.219c0.124,2.44,2.823,3.44,4.619,1.913
	c1.704-1.449,1.245-5.141,1.385-7.148c0.22-3.159,0.317-6.189,0.16-9.285c1.065-0.105,2.13-0.217,3.19-0.344
	c4.414-0.53,8.825-0.959,13.25-1.188c-1.111,3.812-0.156,7.909-0.388,11.825c-0.154,0.958-0.297,1.92-0.401,2.899
	c-0.009,0.08-0.028,0.165-0.031,0.243c-0.004,0.031-0.008,0.06-0.012,0.091h0.016c-0.004,2.869,4.339,3.811,5.333,0.723
	c1.634-5.074,1.877-10.577,1.808-15.959c0.995-0.001,1.992,0.008,2.991,0.033c3.361,0.086,6.636,0.348,9.876,0.434
	c-0.008,1.014-0.16,2.244-0.28,3.351c-0.465,3.867-0.423,7.763,0.004,11.726c0.368,3.413,5.223,3.545,5.413,0
	c0.212-3.944-0.106-7.923,0.153-11.858c0.071-1.08,0.161-2.198,0.151-3.307c0.39-0.027,0.781-0.078,1.171-0.118
	c3.214,0.001,6.434-0.108,9.642-0.238c-0.564,1.872-0.662,3.938-0.7,5.859c-0.072,3.598-0.221,7.566,0.264,11.127
	c0.507,3.716,5.736,2.337,6.07-0.821c0.015-0.144,0.031-0.287,0.045-0.431c0.046-0.437-0.053-0.86-0.252-1.239
	c-0.373-2.954-0.309-6.356-0.369-9.269c-0.037-1.761,0.205-3.652-0.04-5.429c0.503-0.021,1.008-0.042,1.51-0.061
	c1.716-0.064,3.445-0.105,5.177-0.138c1.709,0.389,3.414,0.636,5.12,0.758c-0.011,1.109,0.079,2.227,0.151,3.307
	c0.259,3.936-0.059,7.913,0.153,11.858c0.191,3.545,5.046,3.413,5.413,0c0.428-3.963,0.469-7.859,0.004-11.726
	c-0.119-1.107-0.271-2.336-0.279-3.351c3.239-0.086,6.514-0.348,9.876-0.434c0.999-0.025,1.996-0.035,2.991-0.033
	c-0.068,5.382,0.174,10.885,1.808,15.959c0.994,3.088,5.336,2.145,5.333-0.723h0.016c-0.002-0.031-0.008-0.06-0.012-0.091
	c-0.002-0.078-0.021-0.161-0.031-0.243c-0.105-0.979-0.247-1.942-0.401-2.899c-0.232-3.916,0.723-8.012-0.388-11.825
	c4.426,0.229,8.836,0.657,13.25,1.188c1.061,0.127,2.125,0.239,3.19,0.344c-0.157,3.096-0.06,6.126,0.16,9.285
	c0.14,2.008-0.318,5.699,1.385,7.148c1.795,1.527,4.496,0.527,4.619-1.913c0.154-3.049,0.237-6.16,0.246-9.219
	c0.005-1.461-0.309-2.805-0.542-4.247c-0.022-0.137-0.042-0.344-0.065-0.584c6.798,0.443,13.652,0.536,20.503,0.508
	c-0.029,0.392-0.046,0.69-0.058,0.776c-0.206,1.466-0.534,2.969-0.652,4.451c-0.286,3.578,0.457,7.166,0.657,10.728
	c0.204,3.637,5.767,3.684,5.693,0c-0.065-3.25,0.243-6.372,0.004-9.648c-0.077-1.054-0.227-2.182-0.365-3.328
	c0.124-0.967,0.318-1.989,0.491-3.023c4.74-0.052,9.47-0.124,14.164-0.143c0.662-0.002,1.329-0.021,1.995-0.037
	c-0.262,2.101-0.39,4.246-0.266,6.288c0.176,2.88,0.762,5.776,0.833,8.641c0.09,3.589,5.665,3.591,5.578,0
	c-0.085-3.525,0.221-7.202-0.362-10.685c-0.107-0.641-0.141-1.289-0.148-1.939c0.09-0.849,0.17-1.696,0.203-2.541
	c5.14-0.266,10.3-0.571,15.324-0.132c-0.35,2.176-0.664,4.346-0.707,6.574c-0.059,3.038,0.451,6.006,0.65,9.033
	c0.241,3.693,5.939,3.746,5.793,0c-0.156-3.997,0.542-8.958-0.24-13.249c0.075-0.642,0.152-1.284,0.221-1.926
	c5.289,0.284,10.721,0.25,15.993,0.265c-0.005,2.231,0.021,4.466-0.032,6.701c-0.07,2.938,0.418,5.629,0.694,8.532
	c0.038,0.397,0.145,0.748,0.297,1.058c0.305,1.942,3.396,3.071,4.904,0.947c1.31-1.848,0.723-5.461,0.774-7.626
	c0.069-2.935-0.106-6.513-0.866-9.513c6.363,0.197,12.674,0.782,19.016,1.283C425.669,337.497,426.091,345.982,426,354.429z
	 M503.702,501.36c-3.023,1.59-7.999,1.1-11.388,1.316c-16.466,1.047-32.881,0.246-49.372,0.381c-4.824,0.04-9.669,0.046-14.52,0.017
	c0.081-0.253,0.144-0.524,0.171-0.827c0.223-2.518-0.193-5.219-0.437-7.711c-0.121-1.248-0.114-2.492-0.137-3.726
	c8.378,1.752,18.316,0.353,26.755,0.375c8.264,0.021,16.556-0.399,24.786-1.089c1.778-0.148,3.665-0.072,5.524-0.052
	c1.028,0.031,2.058,0.057,3.084,0.073c3.925,0.062,10.195-0.557,13.842,0.948c2.751,1.136,3.096,3.289,3.249,6.108
	C505.389,499.546,505.64,500.34,503.702,501.36z"/>
<path d="M157.456,309.329c9.943-0.788,19.843-1.312,29.827-1.061c10.532,0.265,21,0.333,31.534-0.001
	c2.382-0.075,4.754-0.157,7.126-0.217c3.141,0.549,6.428,0.404,9.678,0.504c6.78,0.207,13.547,0.31,20.337,0.454
	c11.871,0.251,24.143,0.626,35.965-0.781c0.418,0.013,0.836,0.027,1.256,0.04c10.535,0.333,21.002,0.266,31.534,0.001
	c9.986-0.251,19.885,0.273,29.827,1.061c5.078,0.403,16.906,3.272,18.939-3.461c0.28-0.931,0.026-2.294-0.774-2.926
	c-3.13-2.48-7.186-4.115-10.866-5.647c-5.221-2.174-10.165-4.837-15.471-6.838c-8.433-3.18-16.757-6.617-25.186-9.769
	c-8.924-3.336-17.965-6.738-26.674-10.664c-3.889-1.753-7.799-3.255-11.789-4.69c-4.028-3.028-10.169-4.813-14.484-6.363
	c-5.014-1.803-10.549-3.731-15.896-2.31c-9.531,2.531-20.437,5.827-29.284,11.024c-1.864,0.741-3.72,1.508-5.569,2.341
	c-8.709,3.927-17.749,7.328-26.674,10.664c-8.428,3.151-16.754,6.589-25.186,9.769c-5.305,2-10.25,4.664-15.471,6.838
	c-3.68,1.533-7.735,3.167-10.866,5.647c-0.799,0.633-1.054,1.997-0.774,2.926C140.55,312.6,152.377,309.732,157.456,309.329z
	 M156.733,300.566c4.84-2.362,9.705-4.487,14.732-6.415c7.886-3.022,15.649-6.392,23.508-9.412
	c8.062-3.096,16.199-6.548,23.993-10.266c3.759-1.793,7.608-3.399,11.459-5c7.02-2.033,13.965-4.48,20.844-6.795
	c10.039-3.378,18.765,4.194,28.361,5.986c4.497,1.873,9.009,3.713,13.4,5.809c7.794,3.718,15.932,7.17,23.993,10.266
	c7.859,3.02,15.622,6.389,23.508,9.412c5.028,1.927,9.893,4.051,14.732,6.415c2.587,1.263,5.594,2.363,8.378,3.71
	c-6.421-0.348-18.417-1.448-20.108-1.557c-8.239-0.53-16.51-0.06-24.747,0.205c-8.865,0.286-17.748-0.132-26.603-0.296
	c-4.035-0.075-7.997-0.345-12.041-0.31c-3.253,0.028-6.848,0.672-10.087,0.424c-0.39-0.029-0.734,0.06-1.025,0.231
	c-4.325-0.032-8.67-0.027-13.071-0.09c-6.092-0.086-12.243-0.286-18.327-0.199c-1.951-0.137-3.92-0.351-5.777-0.366
	c-4.044-0.035-8.006,0.236-12.041,0.31c-8.856,0.164-17.738,0.582-26.603,0.296c-8.237-0.266-16.509-0.735-24.747-0.205
	c-1.691,0.108-13.687,1.209-20.108,1.557C151.14,302.93,154.146,301.829,156.733,300.566z"/>
<g>
</g>
<g>
</g>
<g>
</g>
<g>
</g>
<g>
</g>
<g>
</g>
<g>
</g>
<g>
</g>
<g>
</g>
<g>
</g>
<g>
</g>
<g>
</g>
<g>
</g>
<g>
</g>
<g>
</g>
</svg>
