<?xml version="1.0" encoding="iso-8859-1"?>
<!-- Generator: Adobe Illustrator 19.0.0, SVG Export Plug-In . SVG Version: 6.00 Build 0)  -->
<svg version="1.1" id="Layer_1" xmlns="http://www.w3.org/2000/svg" xmlns:xlink="http://www.w3.org/1999/xlink" x="0px" y="0px"
	 viewBox="0 0 512.003 512.003" style="enable-background:new 0 0 512.003 512.003;" xml:space="preserve">
<g>
	<path style="fill:#E2C79F;" d="M506.24,375.499c-1.676-1.712-4.262-2.478-6.599-1.95c-1.636,0.369-3.527,1.263-4.818,0.192
		c-1.954-1.622,0.415-5.122-0.948-7.265c-1.333-2.096-5.123-1.243-6.419-3.362c-1.584-2.589,2.487-6.074,0.928-8.679
		c-0.859-1.436-2.994-1.64-3.93-3.027c-0.528-0.782-0.566-1.786-0.585-2.73c-0.286-13.63-0.096-27.016-0.568-40.643
		c-0.668-19.305-1.336-38.608-2.003-57.911c-0.33-9.529-0.659-19.058-0.987-28.587c-0.164-4.712-0.326-9.425-0.489-14.137
		c-0.149-4.33-0.66-7.724-1.664-11.819c-0.759-3.092-1.087-6.686,0.849-9.431c1.851-2.623,5.199-3.653,7.763-5.586
		c3.851-2.905,5.809-8.114,4.822-12.836c-0.275-1.317-0.762-2.635-0.598-3.97c0.469-3.819,4.991-5.892,6.017-9.728
		c0.785-2.935,0.211-6.048-0.057-9.033c-0.231-2.577-3.082-23.902-4.804-23.949c-8.543-0.233-16.062-0.678-23.576-0.599
		c-32.816,0.344-65.637,0.605-98.446,1.348c-33.56,0.761-67.113,1.953-100.659,3.221c-4.266,0.162-8.471,1.93-13.001,3.026
		c-0.699,8.84-1.709,17.72-1.432,26.465c0.218,6.887-6.641,6.042-11.269,5.787c-1.91-0.105-19.59,4.129-19.696,3.829
		c1.312,3.686,1.47,6.348,2.88,7.736c9.628,9.472,10.728,20.716,9.549,33.603c-1.875,20.48-2.297,41.107-2.899,61.684
		c-0.396,13.502-0.683,27.005-0.939,40.511c-0.127,6.707-0.247,13.415-0.37,20.121c-0.063,3.43-0.125,6.859-0.19,10.289
		c-0.054,2.814,0.551,6.062,0.052,8.809c-0.289,1.584-1.184,3.148-2.648,3.818c-1.556,0.712-3.475,0.324-4.968,1.159
		c-2.167,1.212-2.33,4.216-2.187,6.694c0.084,1.447-0.06,3.283-1.419,3.785c-0.426,0.157-0.892,0.137-1.346,0.116
		c-5.707-0.274-11.421-0.318-17.134-0.304c-2.859,0.007-5.718,0.048-8.577,0.049c-2.819,0.001-4.222,1.129-6.876,1.572
		c-1.442,0.241-3.088-0.161-3.93-1.356c-0.425-0.603-0.607-1.345-0.679-2.079c-0.157-1.619,0.187-3.263-0.053-4.872
		c-0.239-1.608-1.357-3.3-2.983-3.358c-1.863-0.066-3.682,1.994-5.308,1.084c-1.088-0.609-1.168-2.118-1.111-3.364
		c0.288-6.282,0.896-12.646,0.921-18.924c0.026-6.853-0.971-13.867-1.446-20.707c-0.946-13.615-1.871-27.231-2.703-40.854
		c-0.868-14.201-0.36-28.432-0.213-42.646c0.073-7.07,0.063-14.143-0.259-21.207c-0.194-4.255,0.033-8.827-1.559-12.862
		c-2.226-5.64-12.872-4.991-17.758-4.969c-3.133,0.014-6.558,0.779-8.459,3.268c-1.236,1.619-1.631,3.707-1.974,5.714
		c-1.361,8.022-2.912,15.889-2.003,23.936c0.503,4.457-0.375,9.356-0.63,13.828c-0.276,4.837-0.545,9.675-0.81,14.512
		c-1.061,19.352-2.053,38.708-3.089,58.059c-0.052,0.968-0.103,1.936-0.156,2.903c-0.334,6.279-0.64,12.559-0.993,18.836
		c-0.323,5.753-1.354,10.896-1.237,16.6c0.052,2.51-0.804,5.433-3.16,6.299c-1.769,0.649-3.898-0.073-5.535,0.859
		c-1.755,0.999-2.081,3.364-2.047,5.383c0.034,2.019,0.151,4.279-1.199,5.78c-0.899,0.999-2.363,1.531-2.853,2.782
		c-0.463,1.18,0.141,2.473,0.568,3.665c0.427,1.192,0.578,2.761-0.443,3.507c-0.889,0.649-2.148,0.288-3.206,0.584
		c-1.795,0.503-2.488,2.632-2.899,4.451c-0.622,2.751-0.96,6.262,1.415,7.786c1.184,0.761,2.691,0.73,4.097,0.675
		c5.409-0.213,10.817-0.427,16.226-0.641c4.068-0.16,7.852,0.643,11.922,0.679c93.861,0.844,187.722,1.467,281.583,2.241
		c8.387,0.069,16.764,0.883,25.152,1.082c16.781,0.399,33.566,0.693,50.349,0.836c4.065,0.035,8.108-1.891,8.214-6.151
		C508.825,382.131,508.416,377.722,506.24,375.499z M338.579,218.987c-0.329,22.563-1.212,45.094-2.278,67.633
		c-0.977,20.64-0.517,41.735-3.276,62.226c-0.146,1.078-1.48,1.911-2.479,1.887c-5.271-0.131-7.113,4.064-5.023,8.503
		c0.876,1.86-0.213,3.553-2.179,3.797c-12.991,1.615-26.089,0.968-39.096-0.129c-1.249-0.105-2.448-1.023-2.394-2.394
		c0.062-1.588,1.297-6.923,0.242-9.149c-1.187,0.131-2.424-0.388-2.707-1.677c-0.286-0.308-0.467-0.704-0.436-1.178
		c0.025-0.38,0.061-0.688,0.119-0.983c-2.107-15.814-0.738-31.955-1.48-47.853c-0.792-16.961-2.011-33.9-2.882-50.858
		c-0.871-16.978-0.377-34.134-1.629-51.064c-0.42-5.688-0.526-10.549,4.204-14.365c2.611-2.107,5.645-3.606,8.022-6.009
		c3.509-3.544,3.281-7.119,2.339-11.707c-0.179-0.873,0.485-1.394,1.156-1.332c0.33-0.466,0.832-0.84,1.551-1.019
		c7.954-1.993,16.874-1.683,25.038-1.533c5.155,0.095,8.122,1.838,10.96,6.042c4.152,6.152,11.183,11.817,12.255,19.502
		C340.02,197.481,338.728,208.746,338.579,218.987z M440.051,191.094c-0.738,4.876-1.289,9.474-1.254,14.433
		c0.077,11.445,0.219,22.891,0.246,34.338c0.057,23.987-1.365,47.977-2.503,71.931c-0.304,6.395-0.614,12.791-0.927,19.187
		c-0.243,4.95,0.214,10.551-0.773,15.407c-0.444,2.183-1.175,2.971-3.006,4.297c-3.142,2.275-5.309,2.967-5.782,7.208
		c-0.738,6.601-5.986,6.376-11.895,6.19c-4.915-0.154-9.83-0.648-14.727-1.085c-3.817-0.34-9.016-2.14-12.489-0.024
		c-1.434,0.874-2.987-0.841-2.362-2.142c-0.367-0.538-0.525-1.235-0.316-2.048c0.706-2.756,1.577-4.746-0.266-7.048
		c-0.499-0.624-1.578-1.055-2.14-1.73c-1.651-1.987-2.096-4.893-2.278-7.379c-0.601-8.202,0.29-16.717,0.26-24.947
		c-0.072-20.243-0.882-40.473-1.604-60.7c-0.67-18.772-0.426-37.65-2.121-56.349c-0.505-5.575-1.119-12.215,2.948-16.675
		c2.438-2.672,5.916-4.206,8.583-6.615c4.854-4.386,4.794-8.179,1.447-13.71c-0.79-1.306,0.986-2.556,2.045-1.578
		c0.163,0.151,0.313,0.308,0.468,0.463c0.291-1.152,1.194-2.129,2.726-2.139c6.701-0.04,13.413-0.497,20.112-0.179
		c3.056,0.144,7.173,0.055,9.791,1.968c2.895,2.116,4.816,6.082,7.101,8.793c2.857,3.387,6.05,6.775,7.947,10.829
		C440.722,184.86,440.551,187.782,440.051,191.094z"/>
	<path style="fill:#E2C79F;" d="M96.891,384.639c-1.801,1.964-8.93,1.726-11.337,1.987c-8.97,0.972-17.99,1.371-27.002,1.696
		c-15.497,0.56-30.852,1.057-46.333,2.137c-2.404,0.167-5,0.29-7.027-1.015c-1.877-1.208-2.907-3.607-2.487-5.801
		s2.261-4.043,4.452-4.474c1.031-0.203,2.208-0.158,2.97-0.881c0.96-0.912,0.693-2.506,0.157-3.717
		c-0.537-1.211-1.29-2.451-1.076-3.758c0.646-3.924,8.29-3.035,8.872-6.971c0.325-2.2-2.093-4.314-1.298-6.392
		c0.519-1.357,2.119-1.869,3.454-2.444c8.553-3.685,7.016-11.931,8.093-19.329c1.53-10.519,2.205-21.373,2.741-31.985
		c1.496-29.606,2.572-59.234,3.79-88.854c0.188-4.561,0.073-9.139,0.378-13.691c0.538-8.038-1.241-14.865-7.948-20.23
		c-2.615-2.092-4.001-5.723-6.94-10.15c4.888-2.143,8.05-4.552,11.382-4.813c13.604-1.069,27.254-1.562,40.895-2.05
		c2.198-0.078,4.48,0.796,6.645,1.475c8.606,2.698,11.47,13.287,3.75,17.374c-1.893,1.002-3.567,2.088-5.475,2.844
		c-2.231,0.884-3.867,1.631-5.087,3.895c-1.128,2.094-1.481,4.509-1.726,6.875c-0.939,9.076,0.538,17.573,0.88,26.501
		c0.371,9.712,0.718,19.426,1.024,29.141c0.612,19.431,1.08,38.865,1.4,58.302c0.237,14.384-0.309,28.559-1.037,42.925
		c-0.024,0.486-0.044,0.999,0.18,1.432c0.885,1.714,3.641,0.12,5.413,0.882c2.702,1.163,0.712,6.128,3.127,7.809
		c1.588,1.104,3.811-0.12,5.682,0.365c1.747,0.454,2.794,2.362,2.846,4.166s-0.662,3.531-1.364,5.194
		c2.66-0.615,5.639,0.517,7.22,2.742c1.145,1.612,2.221,6.777,0.938,8.622C96.998,384.516,96.947,384.579,96.891,384.639z"/>
</g>
<g>
	<path style="fill:#C9AA81;" d="M56.727,168.976c6.452-0.302,13.341,0.606,19.68,1.459c2.951,0.397,7.136,0.989,8.995,3.553
		c5.448,7.517-7.669,12.686-12.138,14.693c-3.828,1.719-7.71,2.966-11.537,4.599c-2.457,1.049-4.237,2.491-5.488,4.871
		c-3.747,7.131-4.345,16.96-4.982,24.815c-0.798,9.849-0.635,19.746-0.3,29.611c0.487,14.332,1.436,28.614,1.021,42.96
		c-0.325,11.236-0.806,22.985,0.405,34.17c0.632,5.833,2.443,11.814,7.183,15.636c2.733,2.204,7.393,4.665,8.971,7.82
		c0.108,0.215-7.436,0.548-8.238,0.619c-2.47,0.219-4.962,0.314-7.423,0.617c-2.334,0.288-14.644,4.522-7.506,6.701
		c3.743,1.142,8.675-0.173,12.49-0.515c4.712-0.424,9.521-0.69,14.239-0.899c2.368-0.105,5.435-0.41,7.593,0.599
		c0.512,6.308-20.214,3.922-23.758,4.043c-3.732,0.127-8.289-0.584-11.783,1.035c-3.945,1.828-2.725,5.468,0.685,6.279
		c2.589,0.616,5.493,0.402,8.131,0.262c9.864-0.52,19.735-1.313,29.586-1.787c2.742-0.132,11.97-0.082,5.661,3.872
		c-2.714,1.7-6.809,1.251-9.79,1.251c-4.802,0-9.582-0.137-14.378-0.27c-3.929-0.109-7.86-0.756-11.796-0.3
		c-6.44,0.746-2.701,3.446,1.432,4.734c12.735,3.97,26.206-1.867,39.146,0.461c3.301,0.594,5.227,2.58,2.173,4.967
		c-2.812,2.197-7.554,2.595-10.927,2.954c-13.883,1.478-28.18,1.765-42.143,1.643c-7.599-0.066-15.148-0.134-22.749-0.002
		c-3.588,0.062-9.909,1.827-13.389,0.551c-4.087-1.499-3.667-6.757-0.709-9.427c1.316-1.188,3.708-1.306,4.683-2.695
		c1.353-1.927-0.501-4.528,0.253-6.567c1.403-3.795,6.478-2.739,7.582-6.203c0.623-1.954-0.504-3.867-0.065-5.812
		c0.543-2.405,2.426-2.987,4.324-4.289c7.364-5.047,6.812-13.239,7.139-21.59c0.443-11.316,1.082-22.615,1.569-33.93
		c0.455-10.574-0.202-21.109,0.124-31.626c0.435-14.089,1.092-28.165,1.521-42.256c0.309-10.163,2.586-21.097,1.432-31.223
		c-0.503-4.412-1.639-8.904-4.627-12.291c-2.527-2.864-9.903-6.18-7.963-11.043c1.15-2.884,7.797-5.125,10.638-5.276
		c2.984-0.159,4.494,1.345,7,2.3c5.538,2.109,11.321,1.37,16.995,0.984C56.035,169.012,56.381,168.992,56.727,168.976z"/>
	<path style="fill:#C9AA81;" d="M157.493,188.918c-3.43,11.118-4.237,23.114-4.098,34.684c0.178,14.757,0.553,29.629-0.334,44.38
		c-0.931,15.464-2.56,30.703-4.022,46.104c-0.742,7.828-2.672,19.326,4.509,24.75c1.995,1.507,4.153,3.704,6.313,4.916
		c2.172,1.22,5.212,1.473,7.646,2.034c2.259,0.52,3.538,0.079,4.239,2.449c0.483,1.636,0.099,3.003-1.423,3.837
		c-3.228,1.77-10.134-0.131-13.783,0.042c-2.332,0.111-9.991-0.459-11.067,2.395c-1.34,3.557,31.923,5.164,35.24,6.526
		c2.966,1.218,5.936,3.052,9.085,3.732c4.391,0.95,9.183,0.203,13.63,0.404c4.998,0.226,13.27,3.046,16.913-1.82
		c1.623-2.167,0.841-4.724,1.259-7.337c0.802-5.011,5.072-2.646,8.881-3.675c4.026-1.087,2.707-5.624,2.519-8.896
		c-0.44-7.623-0.871-15.121-1.863-22.78c-0.982-7.573,0.55-14.786,0.845-22.34c0.322-8.235,0.061-16.486,0.567-24.716
		c0.947-15.424,0.944-30.926,1.58-46.362c0.427-10.377-0.084-21.136,1.727-31.377c0.907-5.127,0.225-9.218-2.455-13.628
		c-1.553-2.557-3.308-4.896-5.139-7.253c-1.301-1.676-4.916-4.527-4.769-6.655c0.259-3.715,8.285-6.294,11.092-7.186
		c5.812-1.845,9.368-0.117,13.751,3.724c4.368,3.826,7.976,7.45,13.763,9.263c4.502,1.41,9.709,0.03,14.157,1.478
		c7.783,2.535,1.804,7.802-3.014,8.866c-2.959,0.654-5.758,0.032-8.659,0.324c-7.538,0.758-6.372,10.505-7.238,15.917
		c-1.929,12.042-2.176,24.356-3.615,36.485c-1.633,13.774-3.294,27.569-3.811,41.441c-0.263,7.056-0.535,14.379,0.276,21.409
		c0.761,6.594,1.746,12.881,1.216,19.567c-0.698,8.817-3.245,17.676-2.2,26.512c0.333,2.822,1.377,7.535,3.472,9.479
		c2.458,2.281,6.81,1.719,9.909,2.117c5.379,0.691,11.681-0.912,16.815,0.653c-2.107,6.636-19.676,4.734-25.047,4.298
		c-2.372-0.192-12.082-2.229-13.781,0.432c-2.576,4.033,6.801,6.346,9.348,6.282c5.828-0.146,11.647-0.537,17.519-0.506
		c5.117,0.027,10.15,1.023,15.344,0.837c11.836-0.422,23.727-0.316,35.552-0.206c10.999,0.103,21.972-0.191,32.96-0.29
		c8.417-0.076,16.419-0.186,24.833,0.279c10.554,0.583,21.121,0.944,31.689,1.112c20.939,0.333,41.887-0.089,62.806-1.048
		c6.03-0.276,13.092-1.046,19.035,0.179c2.546,0.525,5.123,1.906,2.285,4.41c-1.402,1.237-3.771,1.082-5.545,1.283
		c-5.361,0.607-10.782,0.292-16.168,0.339c-9.5,0.082-19.077,0.203-28.574,0.609c-12.597,0.54-25.214,1.265-37.831,0.485
		c-23.802-1.472-47.641-1.37-71.472-1.651c-10.692-0.126-21.33-0.841-32.015-1.092c-6.024-0.142-12.148-0.113-18.164,0.206
		c-13.533,0.718-26.863,0.718-40.433,0.009c-1.66-0.087-13.815-0.092-10.039,4.179c1.857,2.1,6.113,2.105,8.598,2.707
		c7.003,1.694,15.825,2.931,22.981,1.674c7.483-1.315,15.189-0.569,22.83-0.576c12.368-0.011,24.693,0.81,37.025,0.819
		c7.431,0.006,14.869-0.554,22.298-0.212c15.299,0.704,30.908,0.489,46.21-0.121c29.143-1.163,58.43-0.434,87.586-0.761
		c7.777-0.087,15.898-0.914,23.64-0.018c3.572,0.414,6.882,3.116,3.683,6.376c-4.709,4.799-16.689,3.953-22.75,4.024
		c-13.451,0.156-27.209-0.893-40.666-1.401c-21.319-0.803-42.622-2.586-63.974-2.179c-10.003,0.191-20.022,0.702-30.018,1.052
		c-13.644,0.477-27.383-0.375-40.972,0.121c-22.796,0.833-46.53,1.336-69.149-1.698c-16.738-2.244-34.244-2.562-51.104-1.932
		c-17.058,0.637-34.191-0.396-51.245,0.356c-6.373,0.281-13.109,0.339-19.498-0.05c-2.098-0.127-6.533-0.234-7.688-2.271
		c-0.73-1.289-0.034-5.739,1.06-6.773c1.329-1.257,3.391-0.511,4.597-2.077c1.223-1.589,0.241-3.874,0.9-5.501
		c0.56-1.381,1.667-1.711,2.298-2.884c1.559-2.903,0.841-6.413,2.479-9.363c1.473-2.653,3.567-3.14,5.974-4.838
		c5.231-3.691,3.546-15.181,4.227-20.82c3.654-30.279,3.733-60.8,3.546-91.245c-0.081-13.298-0.843-27.802,1.903-40.906
		C138.578,189.988,146.404,185.396,157.493,188.918z"/>
	<path style="fill:#C9AA81;" d="M255.702,135.449c-0.716,2.592,0.019,5.454-0.192,8.119c-0.325,4.079-0.764,7.939-0.625,12.054
		c0.095,2.803,0.137,3.388,2.561,4.447c3.206,1.4,7.647,1.031,11.011,1.025c7.035-0.013,13.972,1.345,20.99,1.362
		c9.554,0.024,19.181-0.247,28.757-0.756c5.974-0.317,8.62,0.499,9.85,6.966c0.82,4.315,1.937,7.388,5.736,9.827
		c6.92,4.441,6.739,8.865,5.655,16.779c-1.34,9.788-2.494,19.828-3.478,29.669c-0.495,4.944-1.574,10.749-0.45,15.667
		c0.967,4.23,1.9,8.035,2.043,12.519c0.334,10.475-1.157,20.889-2.009,31.304c-1.191,14.566-1.845,29.602-1.829,44.222
		c0.006,4.762-0.015,9.51-0.093,14.269c-0.05,3.07,0.302,6.896-2.465,8.983c-1.885,1.424-5.433,1.588-6.575,3.972
		c-4.29,8.963,10.606,5.797,14.771,5.985c11.677,0.526,23.371,1.7,35.057,1.042c2.168-0.121,9.193-0.551,9.785-3.34
		c0.787-3.706-9.377-3.133-11.484-2.946c-6.759,0.6-13.608,1.388-20.38,0.463c-1.914-0.262-5.926-0.703-6.31-3.027
		c-0.834-5.035,7.049-3.52,9.637-3.14c6.054,0.889,12.73-0.873,18.847-1.063c2.699-0.085,4.087,0.456,5.581-2.073
		c0.924-1.566,1.119-3.181,0.006-4.664c-2.748-3.663-12.016-1.286-16.196-3.745c-7.827-4.602-8.978-15.173-10.004-23.569
		c-3.737-30.546-2.216-60.859-2.082-91.465c0.016-3.566-0.867-6.58-1.155-9.982c-0.558-6.617,3.955-14.882,9.511-18.285
		c2.531-1.551,17.441-3.178,14.437-9.238c-0.708-1.43-3.609-1.865-4.909-2.006c-1.187-0.129-5.509,0.47-6.362-0.259
		c-2.879-2.458,6.809-7.635,8.189-8.42c5.331-3.038,9.891-4.739,12.043-10.967c2.834-8.2,20.39-5.324,26.674-5.342
		c3.322-0.01,6.79,0.291,10.088-0.135c2.019-0.261,3.975-1.292,5.978-0.473c5.887,2.405,6.538,12.41,9.168,17.245
		c1.427,2.625,4.103,4.565,5.191,7.397c1.883,4.905,1.38,11.834,1.108,16.938c-0.33,6.175-1.644,12.25-2.021,18.419
		c-0.357,5.849,0.664,11.751,0.418,17.631c-0.351,8.345-0.06,16.669-0.06,25.031c0,14.946-0.813,29.791-1.092,44.703
		c-0.192,10.35-1.092,20.53-1.092,30.878c0,4.822,1.852,11.661-3.496,14.327c-2.708,1.35-4.584,0.753-6.164,3.798
		c-1.078,2.078-1.723,4.997-1.49,7.341c1.926-0.772,3.948-0.481,5.975-0.381c4.701,0.231,9.644-0.656,14.295-0.071
		c4.29,0.541,8.606,1.2,12.978,1.572c5.425,0.459,10.704-0.566,16.106-1.092c1.937-0.188,7.842-0.082,9.282-1.411
		c1.561-1.442,0.755-3.692-0.866-4.541c-3.021-1.581-9.27,0.923-12.629,1.047c-8.151,0.3-12.545-3.647-14.297-11.428
		c-3.134-13.921-2.835-28.677-3.394-42.859c-0.608-15.428,1.911-30.537,1.986-45.874c0.04-8.007,0.669-15.959,1.013-23.956
		c0.208-4.853,0.9-10.176,0.049-14.988c-0.518-2.924-2.112-5.44-2.375-8.432c-0.482-5.483,1.439-10.506,3.961-15.266
		c1.233-2.323,2.471-5.513,4.178-7.497c2.048-2.38,4.334-1.136,7.253-2.446c6.254-2.805,6.308-11.893,11.085-16.398
		c2.224-2.097,5.473-2.545,7.829-4.533c1.754-1.48,3.914-2.983,5.478-4.669c3.035-3.275,5.238-10.011,2.428-14.039
		c-2.383-3.415-11.023-3.017-14.426-2.812c-8.043,0.482-16.004,1.758-23.937,3.07c-17.333,2.866-34.942,4.802-52.516,5.065
		c-6.172,0.093-12.369,0.276-18.544,0.014c-4.376-0.187-10.164-0.274-13.862-2.782c-3.467-2.352-5.271-4.546-5.308-8.849
		c-0.033-3.915,0.994-8.971-1.549-12.399c-2.062-2.778-5.872-3.435-8.076-0.347c-1.897,2.66-2.44,8.923-2.541,12.212
		c-0.08,2.609,1.592,7.184-0.495,9.163c-2.769,2.624-10.462,1.002-13.975,1.139c-7.464,0.291-14.904,0.252-22.363-0.073
		c-7.943-0.346-15.838,0.515-23.744-0.794c-5.856-0.97-12.38-1.774-16.759-6.11c-4.169-4.127-4.787-10.759-9.125-14.594
		c-2.754-2.434-7.232-3.599-10.725-1.934c-5.405,2.578-4.578,12.412-4.565,17.171"/>
</g>
<path d="M95.321,370.438c-0.536-0.184-0.958-0.387-1.54-0.417c-0.574-0.029-0.915-0.032-1.113-0.009
	c-0.438-3.077,1.865-5.907-1.348-8.609c-1.376-1.157-2.936-1.347-4.678-1.442c-3.229-0.176-2.608-0.001-3.078-3.136
	c-0.577-3.85-3.541-5.366-7.23-5.347c-0.271,0.001-0.551,0.014-0.825,0.018c1.09-2.916,0.802-6.731,0.686-10.208
	c-0.147-4.411,0.427-8.702,0.405-13.094c-0.027-5.397-0.905-10.763-1.074-16.148c-0.337-10.668-0.699-21.337-0.646-32.034
	c0.095-19.418-1.314-38.716-1.724-58.082c-0.095-4.527-0.135-9.132-0.611-13.631c-0.43-4.07-1.881-11.683,0.619-15.413
	c2.523-3.767,8.638-4.997,12.293-7.407c2.797-1.843,4.159-4.161,4.529-7.566c1.017-9.365-4.526-15.015-13.553-15.823
	c-7.68-0.688-14.976-0.597-22.363-0.05c-5.336-0.28-10.684-0.26-15.876,0.137c-5.934,0.454-16.245,1.283-20.192,6.466
	c-3.474,4.562,0.682,10.636,4.386,13.583c3.992,3.176,9.089,4.975,9.295,10.725c0.195,5.447-0.365,11.084-0.346,16.576
	c0.032,9.08-1.585,18.148-2.255,27.208c-0.696,9.42-0.399,18.977-0.371,28.446c0.029,10-1.104,19.986-0.915,29.954
	c0.09,4.782-0.394,9.467-0.438,14.228c-0.048,5.094-0.006,10.586-0.57,15.631c-0.489,4.376-1.152,8.758-1.753,13.126
	c-0.507,3.69-1.778,8.975-0.124,12.523c0.018,0.039,0.045,0.071,0.064,0.109c-3.664,0.378-7.268,1.607-9.511,3.885
	c-2.16,2.196-0.896,4.396-0.74,7.026c0.164,2.778,1.189,1.243-0.852,2.126c-1.107,0.479-2.292,0.757-3.401,1.314
	c-2.054,1.031-3.495,1.963-4,4.334c-0.212,0.999-0.093,1.955,0.077,2.947c0.121,0.708,0.628,1.585,0.649,2.266
	c0.058,1.745-2.216,1.891-3.394,2.408c-1.435,0.629-2.464,1.574-3.063,3.044c-0.93,2.281-0.872,5.895-0.44,8.271
	c1.018,5.598,7.489,4.211,11.87,3.895c4.165-0.3,8.211,0.298,12.412-0.021c4.252-0.322,8.464-0.299,12.734-0.298
	c8.675,0.002,17.227-0.798,25.818-0.885c3.219-0.032,6.415-0.434,9.616-0.71c4.224,0.891,9.029,0.688,13.112,0.119
	c4.018-0.56,11.467,0.811,13.866-3.487c1.685-3.019,0.903-10.195-0.67-13.211C98.29,372.295,96.944,370.995,95.321,370.438z
	 M23.012,171.238c1.535-3.12,11.397-3.919,14.527-4.318c6.754-0.863,13.539-0.761,20.324-0.977
	c3.993,0.252,7.988,0.625,12.055,1.206c3.874,0.553,9.426,0.14,12.236,3.321c1.141,1.292,1.764,3.596,2.001,5.535
	c-2.285-1.239-5.593-1.627-7.528-2.088c-6.88-1.639-13.539-2.066-20.575-2.493c-10.471-0.635-21.37,0.651-31.304,3.909
	C23.51,173.848,22.56,172.159,23.012,171.238z M27.332,177.792c7.442-0.422,14.939-2.459,22.372-2.522
	c5.706-0.049,11.452,0.513,17.127,0.998c3.302,0.283,6.395,1.233,9.592,2.08c1.496,0.396,5.452,0.887,6.175,2.316
	c0.1,0.198,0.218,0.357,0.344,0.499c-0.346,0.313-0.765,0.619-1.275,0.95c-4.687,3.042-10.393,3.59-13.654,7.952
	c-5.191-1.331-10.946-0.755-16.25-0.896c-3.906-0.103-9.81-0.616-14.277,0.864c-0.263-2.108-0.838-4.195-2.078-5.781
	C33.265,181.51,30.06,179.853,27.332,177.792z M32.35,334.384c0.452-3.471,1.144-7.01,1.325-10.505
	c0.442-8.529,0.99-17.324,0.893-25.852c-0.097-8.654,0.859-17.221,0.877-25.87c0.033-16.204,0.702-32.253,1.255-48.387
	c0.164-4.795,0.931-9.395,0.828-14.245c-0.11-5.203,0.17-10.371,0.17-15.547c0-0.039-0.002-0.081-0.002-0.12
	c5.511-1.199,11.633-0.601,17.096-0.684c3.491-0.052,7.599,0.792,11.332,0.763c-1.841,5.842-0.276,12.037-0.229,18.033
	c0.125,15.741,2.002,31.537,2.594,47.311c0.683,18.208,0.195,36.522,1.617,54.673c0.345,4.395,0.895,8.801,1.041,13.211
	c0.145,4.365-0.628,8.641-0.729,13.003c-0.068,2.969,0.774,8.199-1.738,9.83c-1.51,0.982-4.278,0.428-6.089,0.607
	c-2.593,0.257-5.151,0.702-7.764,0.819c-3.906,0.174-7.711-0.561-11.597-0.546c-3.34,0.013-9.092,0.38-11.545-2.581
	C29.327,345.444,31.926,337.641,32.35,334.384z M19.851,359.452c0.211-0.597,0.581-1.096,1.102-1.354
	c3.344-1.654,6.955-2.152,10.584-2.763c3.129-0.527,6.753,0.361,9.992,0.355c6.063-0.011,12.093,0.761,18.149,0.924
	c3.345,0.09,6.693,0.049,10.037,0.195c1.631,0.071,3.261,0.183,4.882,0.377c0.911,0.109,2.956,0.01,3.496,0.942
	c1.137,1.962-1.963,3.223-3.299,3.213c-3.334-0.023-6.665,0.096-10,0.12c-5.806,0.038-11.825,0.42-17.625,0.943
	c-5.785,0.52-11.723,0.147-17.63,0.591c-2.439,0.184-5.384,0.765-7.79,0.535C19.863,363.349,19.284,361.052,19.851,359.452z
	 M13.635,370.368c0.521-0.375,1.071-0.704,1.641-0.998c1.27-0.654,2.641-1.125,4.014-1.495c1.896-0.511,3.522-0.242,5.455-0.373
	c2.748-0.187,5.49-0.415,8.244-0.442c5.109-0.052,10.142,0.1,15.207-0.337c5.84-0.503,11.864-0.868,17.713-0.96
	c5.338-0.084,11.492,0.785,16.849-0.435c1.38,0.056,2.785-0.152,3.883,0.491c1.228,0.719,0.734,2.938,0.456,4.042
	c-0.415,1.649-1.654,3.052-3.432,3.05c-4.788-0.003-9.569,0.47-14.38,0.582c-7.842,0.182-15.649,0.702-23.5,0.888
	c-7.921,0.188-15.781-0.002-23.665,0.598c-1.753,0.134-3.503,0.288-5.252,0.457c-1.152,0.112-2.449,0.677-3.432-0.104
	C11.916,374.123,12.096,371.475,13.635,370.368z M93.394,382.432c-0.018,0.015-0.037,0.03-0.055,0.046
	c-1.192,0.971-2.645,1.304-4.115,1.12c-1.672-0.21-3.157,0.632-4.766,0.552c-12.095-0.6-24.252,2.176-36.288,2.167
	c-0.17,0-0.339,0-0.509,0c-8.472-0.006-16.944-0.003-25.413,0.134c-4.222,0.069-8.455,0.117-12.672,0.322
	c-1.103,0.053-2.56,0.646-3.447-0.198c-1.281-1.22-0.53-3.207,0.619-4.169c2.334-1.954,5.502-2.404,8.446-2.493
	c3.413-0.102,6.876-0.464,10.283-0.698c8.181-0.562,16.463,0.046,24.646-0.604c8.054-0.639,16.129-0.598,24.199-1.08
	c3.826-0.229,7.672-0.213,11.486-0.487c1.817-0.131,3.911-0.801,5.706-0.424c1.548,0.324,2.47,1.472,2.515,2.973
	C94.063,380.784,94.34,381.639,93.394,382.432z"/>
<path d="M510.699,377.972c-0.805-2.817-2.17-4.306-4.669-5.777c-1.32-0.777-2.291-1.244-3.825-1.473
	c-1.485-0.221-4.085,0.607-5.082-0.824c-0.612-0.877-0.084-3.488-0.674-4.716c-0.559-1.164-1.206-1.856-2.365-2.568
	c-1.236-0.758-3.07-1.277-5.102-1.512c1.661-3.116,2.457-8.597,0.373-11.002c-0.885-1.022-2.255-1.51-3.834-1.677
	c-0.064-1.147-0.278-2.313-0.281-3.446c-0.006-3.307,0.307-6.627,0.306-9.946c-0.001-7.596,0.173-15.103-0.452-22.672
	c-1.04-12.584-2.034-25.477-2.226-38.098c-0.123-8.109,0.464-16.237-0.018-24.334c-0.485-8.139-0.82-16.28-0.814-24.434
	c0.005-6.623-0.149-13.199-0.355-19.809c-0.112-3.583-0.144-7.194-0.444-10.763c-0.064-0.764-0.117-1.519-0.2-2.281
	c-0.029-0.262-0.16-3.959-0.607-2.907c0.309-0.726,0.312-1.428,0.129-2.057c0.545-0.154,1.071-0.348,1.567-0.603
	c3.126-1.605,5.672-4.835,8.015-7.362c3.671-3.961,6.633-9.683,3.344-14.868c-0.156-0.246-0.346-0.462-0.525-0.688
	c2.383-0.144,4.659-0.853,5.961-3.082c0.836-1.431,0.645-2.895,0.57-4.434c-0.158-3.241-0.518-6.495-0.693-9.743
	c-0.326-6.047-0.487-11.907-1.624-17.873c-0.677-3.551-0.624-7.211-3.971-9.329c-4.271-2.7-10.553-2.213-15.348-2.108
	c-12.475,0.275-24.967,0.871-37.453,0.984c-26.165,0.239-52.313,1.108-78.475,1.195c-12.277,0.041-24.839-0.629-37.055,0.279
	c-11.92,0.887-23.755,1.477-35.729,1.468c-6.766-0.003-13.515,0.471-20.26,0.859c-3.969,0.229-11.439-0.562-14.676,2.274
	c-3.541,3.103-2.211,11.719-2.489,15.783c-0.403,5.892-0.346,11.607,1.064,17.284c-8.4,0.145-17.825,0.016-25.968,2.084
	c-6.203,1.576-11.252,5.408-5.825,11.214c3.656,3.912,6.421,8.014,9.66,12.221c0.96,1.247,2.037,2.112,3.261,2.683
	c-0.518,12.711-2.362,25.412-2.78,38.153c-0.468,14.238-0.907,28.584-0.71,42.829c0.191,13.728-0.586,27.34-1.143,41.055
	c-0.278,6.835-0.645,13.743-0.641,20.578c0.002,6.23-0.666,12.494,0.134,18.708c0.056,0.434,0.108,0.877,0.167,1.318
	c-1.742,0.168-3.434,0.441-4.945,0.829c-4.66,1.198-4.657,4.746-4.95,8.83c-0.045,0.629-0.061,1.231-0.044,1.805
	c-6.499-0.082-13.1,0.404-19.237,0.475c-4.544,0.053-9.577-0.267-14.514-0.089c0.219-3.653-1.268-7.991-2.41-10.476
	c-0.446-0.969-1.931-1.543-2.927-1.191c-1.669,0.591-3.396,0.924-5.147,1.157c0.536-2.207,0.186-5.153,0.359-7.269
	c0.356-4.34,0.222-8.762,0.3-13.117c0.134-7.621-0.607-15.095-0.742-22.656c-0.268-15.007-3.19-29.749-3.432-44.774
	c-0.301-18.709,0.166-37.325,0.149-56.022c-0.005-4.423,0.102-8.861-0.036-13.282c-0.074-2.408-0.139-4.426-2.222-5.972
	c-2.497-1.852-5.837-2.013-9.134-1.458c-4.246-0.58-9.584,0.425-12.953,0.91c-5.675,0.818-9.413,2.887-10.626,8.898
	c-1.354,6.709-1.172,14.279-1.725,21.12c-0.604,7.455-1.338,14.858-2.03,22.285c-1.448,15.539-1.7,31.206-2.759,46.754
	c-0.486,7.117,0.26,14.171-0.101,21.266c-0.416,8.156-0.518,16.152-1.506,24.295c-0.427,3.518-0.832,7.029-1.204,10.554
	c-0.299,2.832-1.294,6.243-0.25,9.056c-2.271,0.17-4.426,0.511-6.173,1.136c-4.379,1.568-4.45,8.157-4.419,12.062
	c-1.866,1.613-1.859,4.386-1.912,6.915c-1.914,0.466-4.006,0.267-5.692,1.964c-1.983,1.993-1.512,4.365-1.606,6.938
	c-0.087,2.397-1.322,6.121,0.557,8.161c1.755,1.906,4.804,0.969,7.029,1.151c7.758,0.637,15.19,1.367,23.028,1.414
	c10.078,0.061,20.162-0.538,30.237-0.023c16.906,0.864,33.789,0.984,50.703,1.089c16.948,0.107,34.094,0.422,51.095-0.211
	c6.517,0.989,13.569,0.687,19.913,0.521c10.636-0.281,21.31-0.339,31.933,0.127c20.369,0.895,41.007,0.482,61.404,0.559
	c21.183,0.08,42.515-0.717,63.655,0.601c7.959,0.496,15.931,0.569,23.89,1.023c9.086,0.52,18.566,0.965,27.654,0.175
	c5.167,0.409,12.341-0.308,13.558-4.956C512.491,386.102,511.573,381.025,510.699,377.972z M482.569,354.026
	c1.198,0.08,2.441,0.797,2.743,1.96c0.164,0.63,0.2,1.164,0.134,1.613c-0.418,2.843-4.923,2.376-7.103,2.4
	c-9.19,0.1-18.33,0.627-27.555,0.635c-5.079,0.005-10.125,0.038-15.193-0.245c-1.403-0.078-2.846-0.255-4.25-0.302
	c-2.739-0.094-1.651,0.753-2.367-0.997c-0.181-0.442,0.26-3.893,0.63-4.206c0.322-0.271,3.239-0.294,3.72-0.341
	c1.828-0.175,3.602-0.348,5.36-0.601c1.687,0.143,3.813-0.102,5.232-0.069c3.967,0.092,7.887-0.372,11.85-0.254
	c5.632,0.166,11.202,1.644,16.804,1.47c1.694-0.053,3.396,0.006,5.086-0.156C479.319,354.771,480.896,353.915,482.569,354.026z
	 M424.203,360.547c-6.282-0.282-12.593-0.127-18.888,0.215c-5.51,0.3-11.041,0.225-16.56,0.471
	c-0.817,0.037-1.644,0.057-2.475,0.076c1.737-3.074,2.614-8.75,0.483-11.21c-0.885-1.022-2.255-1.51-3.834-1.677
	c-0.064-1.147-0.278-2.313-0.281-3.446c-0.006-3.307,0.306-6.626,0.306-9.946c-0.001-7.596,0.173-15.103-0.452-22.672
	c-1.04-12.584-2.034-25.477-2.226-38.098c-0.123-8.109,0.464-16.237-0.018-24.334c-0.485-8.139-0.82-16.28-0.814-24.434
	c0.005-6.623-0.149-13.199-0.355-19.809c-0.112-3.583-0.146-7.194-0.444-10.763c-0.064-0.764-0.118-1.519-0.2-2.281
	c-0.029-0.262-0.16-3.959-0.607-2.907c0.309-0.726,0.312-1.428,0.129-2.057c0.545-0.154,1.071-0.348,1.567-0.603
	c3.126-1.605,5.672-4.835,8.015-7.362c3.671-3.961,6.632-9.683,3.344-14.868c-0.423-0.665-0.953-1.238-1.536-1.758
	c9.947,0.379,19.894,0.859,29.836,0.813c1.848-0.008,3.693-0.05,5.539-0.096c-1.373,1.883-1.29,4.298,1.433,7.211
	c3.656,3.912,6.421,8.014,9.66,12.221c0.96,1.247,2.037,2.112,3.261,2.683c-0.518,12.711-2.362,25.412-2.78,38.153
	c-0.469,14.238-0.908,28.584-0.71,42.829c0.191,13.728-0.586,27.34-1.143,41.055c-0.278,6.835-0.645,13.743-0.641,20.578
	c0.002,6.23-0.665,12.494,0.134,18.708c0.056,0.434,0.108,0.877,0.167,1.318c-1.742,0.168-3.434,0.441-4.945,0.829
	c-4.66,1.198-4.657,4.746-4.95,8.83C424.158,359.042,424.147,359.822,424.203,360.547z M284.175,350.1
	c-0.885-1.022-2.255-1.51-3.834-1.677c-0.064-1.147-0.278-2.313-0.281-3.446c-0.006-3.307,0.307-6.627,0.306-9.946
	c-0.001-7.596,0.173-15.103-0.452-22.672c-1.04-12.584-2.034-25.477-2.226-38.098c-0.123-8.109,0.464-16.237-0.018-24.334
	c-0.485-8.139-0.82-16.28-0.814-24.434c0.005-6.623-0.149-13.199-0.356-19.809c-0.112-3.583-0.144-7.194-0.444-10.763
	c-0.064-0.764-0.117-1.519-0.2-2.281c-0.029-0.262-0.16-3.959-0.607-2.907c0.309-0.726,0.312-1.428,0.129-2.057
	c0.545-0.153,1.071-0.348,1.567-0.603c3.126-1.605,5.672-4.835,8.015-7.362c3.624-3.911,6.545-9.536,3.455-14.669
	c2.475-0.017,4.951-0.031,7.438-0.023c8.68,0.027,17.299-0.344,25.951-0.662c-0.983,1.796-0.692,4.019,1.772,6.656
	c3.656,3.912,6.423,8.014,9.66,12.221c0.96,1.247,2.037,2.112,3.261,2.683c-0.518,12.711-2.361,25.412-2.78,38.153
	c-0.469,14.238-0.908,28.584-0.71,42.829c0.191,13.728-0.586,27.34-1.143,41.055c-0.278,6.835-0.645,13.743-0.641,20.578
	c0.002,6.23-0.665,12.494,0.134,18.708c0.056,0.434,0.108,0.877,0.167,1.318c-1.742,0.168-3.434,0.441-4.945,0.829
	c-4.66,1.198-4.657,4.746-4.95,8.83c-0.048,0.667-0.064,1.305-0.04,1.908c-1.457,0.007-2.912,0-4.361-0.06
	c-6.172-0.258-12.071-0.597-18.238-0.149c-4.707,0.341-9.814,0.176-14.639-0.005C285.61,356.738,286.013,352.222,284.175,350.1z
	 M339.063,269.553c-0.656-14.379,0.014-29.087,0.498-43.472c0.247-7.328,0.746-14.637,1.117-21.959
	c0.29-5.725,1.238-11.528,1.237-17.274c4.492,0.031,9.015-0.719,13.526-0.425c3.863,0.252,7.663,0.907,11.533,1.157
	c1.655,0.108,3.538,0.37,5.435,0.488c-0.742,3.242,0.52,6.898,0.629,10.19c0.175,5.259,0.159,10.53,0.471,15.772
	c0.746,12.561,0.41,25.276,0.966,37.868c0.557,12.622,0.038,25.204,0.818,37.836c0.772,12.492,1.858,25.027,1.734,37.543
	c-0.037,3.659,0.364,7.308,0.442,10.964c0.048,2.242,0.53,5.066-0.111,7.254c-1.632,5.565-11.763,3.534-15.831,3.072
	c-5.662-0.644-11.267-0.316-16.93-0.175c-1.026,0.026-4.826-0.903-6.814-0.99c-0.159-0.803-0.392-1.672-0.418-2.06
	C335.635,320.177,340.212,294.763,339.063,269.553z M359.85,181.716c-6.148-0.78-12.813,0.631-18.846-0.613
	c-3.31-0.683-4.479-3.368-6.417-5.853c-0.923-1.183-1.945-2.289-2.865-3.475c-0.884-0.94-1.636-1.976-2.252-3.107
	c-0.07-0.212-0.137-0.401-0.2-0.569c0.75-0.228,1.75-0.71,2.19-0.829c1.628-0.444,3.334-0.802,5.002-1.053
	c2.861-0.43,5.568-1.038,8.405-1.603c9.79-1.951,20.103-1.643,30.177-1.199c4.47,1.136,11.237,2.291,11.537,6.678
	c0.23,3.355-4.874,8.743-7.404,10.57C373.772,184.566,365.976,182.492,359.85,181.716z M327.02,354.881
	c0.322-0.271,3.239-0.294,3.72-0.341c1.828-0.175,3.604-0.348,5.36-0.601c1.687,0.143,3.813-0.102,5.232-0.069
	c3.967,0.092,7.887-0.372,11.85-0.254c5.633,0.166,11.202,1.644,16.804,1.47c1.693-0.053,3.396,0.006,5.086-0.156
	c1.659-0.159,3.236-1.015,4.909-0.904c1.198,0.08,2.441,0.797,2.743,1.96c0.164,0.63,0.199,1.164,0.134,1.613
	c-0.418,2.843-4.923,2.376-7.104,2.4c-9.19,0.1-18.33,0.627-27.555,0.635c-5.047,0.005-10.061,0.037-15.097-0.242
	c-1.134-0.117-2.271-0.205-3.414-0.245c-0.31-0.021-0.624-0.05-0.932-0.062c-0.494-0.017-0.859-0.003-1.137,0.021
	c-0.302-0.002-0.604-0.006-0.907-0.007c-0.046-0.139-0.085-0.43-0.323-1.01C326.209,358.647,326.649,355.194,327.02,354.881z
	 M441.652,269.553c-0.656-14.379,0.014-29.087,0.498-43.472c0.247-7.328,0.746-14.637,1.117-21.959
	c0.29-5.725,1.238-11.528,1.237-17.274c4.493,0.031,9.015-0.719,13.526-0.425c3.863,0.252,7.663,0.907,11.533,1.157
	c1.655,0.108,3.538,0.37,5.435,0.488c-0.742,3.242,0.52,6.898,0.629,10.19c0.175,5.259,0.159,10.53,0.471,15.772
	c0.746,12.561,0.41,25.276,0.966,37.868c0.557,12.622,0.038,25.204,0.818,37.836c0.772,12.492,1.858,25.027,1.734,37.543
	c-0.037,3.659,0.364,7.308,0.441,10.964c0.047,2.242,0.53,5.066-0.111,7.254c-1.632,5.565-11.763,3.534-15.83,3.072
	c-5.662-0.644-11.266-0.316-16.93-0.175c-1.026,0.026-4.826-0.903-6.814-0.99c-0.159-0.803-0.392-1.672-0.418-2.06
	C438.224,320.177,442.802,294.763,441.652,269.553z M481.766,180.663c-5.405,3.904-13.2,1.83-19.326,1.053
	c-6.148-0.78-12.813,0.631-18.846-0.613c-3.31-0.683-4.479-3.368-6.417-5.853c-0.923-1.183-1.945-2.289-2.865-3.475
	c-0.884-0.94-1.636-1.976-2.252-3.107c-0.07-0.212-0.137-0.401-0.2-0.569c0.75-0.228,1.75-0.71,2.19-0.829
	c1.628-0.444,3.334-0.802,5.002-1.053c2.861-0.43,5.568-1.038,8.405-1.603c9.79-1.951,20.103-1.643,30.177-1.199
	c4.47,1.136,11.237,2.291,11.537,6.678C489.4,173.447,484.296,178.835,481.766,180.663z M477.85,125.814
	c2.759-0.094,5.547-0.208,8.305-0.244c3.545-0.046,5.069,0.387,5.961,4.137c1.3,5.465,0.166,11.649,0.26,17.188
	c0.049,2.938,1.008,6.937,0.49,9.743c-0.33,1.785,0.789,0.637-0.882,1.916c-0.934,0.715-3.274,0.314-4.113,0.314
	c-2.649,0.001-5.245,0.216-7.837,0.474c-7.151-1.198-14.301-1.769-21.712-1.632c-0.165,0.003-0.337,0.005-0.503,0.008
	c-0.251-0.021-0.51-0.048-0.74-0.055c-4.228-0.139-8.455-0.363-12.684-0.475c-8.412-0.222-16.801,0.181-25.204,0.228
	c-8.042,0.046-16.192-0.958-24.211-0.517c-8.457,0.465-16.79,0.525-25.245,0.624c-3.029,0.036-6.064,0.05-9.103,0.06
	c-0.331-5.197-0.457-10.411-0.7-15.613c-0.228-4.905,0.275-9.992-0.383-14.88C398.971,127.2,438.492,127.151,477.85,125.814z
	 M258.279,129.637c1.213-2.931,10.384-2.159,13.388-2.365c5.092-0.352,10.192-0.703,15.299-0.78
	c19.953-0.299,39.876,0.493,59.816,0.559c2.726,0.009,5.455,0.017,8.181,0.024c-0.52,4.859,0.131,10.431,0.266,14.936
	c0.148,4.932-0.317,10.494,0.282,15.586c-10.218,0.024-20.456,0.069-30.606,0.663c-7.775,0.455-15.561,0.867-23.361,0.874
	c-4.249,0.003-8.51-0.069-12.747,0.213c-1.567,0.104-3.144,0.221-4.708,0.406c-0.515,0.061-1.594,0.372-2.731,0.672
	c-1.099-0.267-2.237-0.442-3.383-0.519c-6.604-1.274-13.177-2.01-19.921-2.172c0.438-3.975-0.148-7.824-0.131-11.891
	c0.01-2.451,0.373-4.928,0.473-7.381C258.49,136.241,257.461,131.614,258.279,129.637z M231.999,175.25
	c-0.923-1.183-1.945-2.289-2.865-3.475c-0.885-0.94-1.636-1.976-2.252-3.107c-0.07-0.212-0.137-0.401-0.2-0.569
	c0.75-0.228,1.75-0.71,2.19-0.829c1.628-0.444,3.334-0.802,5.002-1.053c2.861-0.43,5.568-1.038,8.405-1.603
	c9.79-1.951,20.103-1.643,30.177-1.199c4.47,1.136,11.237,2.291,11.537,6.678c0.23,3.355-4.874,8.743-7.404,10.57
	c-5.405,3.904-13.2,1.83-19.326,1.053c-6.148-0.78-12.813,0.631-18.846-0.613C235.105,180.42,233.936,177.735,231.999,175.25z
	 M236.474,269.553c-0.656-14.379,0.014-29.087,0.498-43.472c0.247-7.328,0.746-14.637,1.117-21.959
	c0.29-5.725,1.238-11.528,1.236-17.274c4.493,0.031,9.015-0.719,13.526-0.425c3.863,0.252,7.663,0.907,11.533,1.157
	c1.655,0.108,3.538,0.37,5.435,0.488c-0.742,3.242,0.52,6.898,0.629,10.19c0.175,5.259,0.159,10.53,0.471,15.772
	c0.746,12.561,0.41,25.276,0.966,37.868c0.557,12.622,0.038,25.204,0.818,37.836c0.772,12.492,1.859,25.027,1.734,37.543
	c-0.037,3.659,0.364,7.308,0.441,10.964c0.047,2.242,0.53,5.066-0.111,7.254c-1.632,5.565-11.763,3.534-15.83,3.072
	c-5.662-0.644-11.266-0.316-16.93-0.175c-1.026,0.026-4.826-0.903-6.814-0.99c-0.159-0.803-0.392-1.672-0.418-2.06
	C233.046,320.177,237.623,294.763,236.474,269.553z M224.431,354.881c0.322-0.271,3.239-0.294,3.72-0.341
	c1.828-0.175,3.604-0.348,5.36-0.601c1.687,0.143,3.813-0.102,5.232-0.069c3.967,0.092,7.887-0.372,11.85-0.254
	c5.632,0.166,11.202,1.644,16.804,1.47c1.694-0.053,3.396,0.006,5.085-0.156c1.659-0.159,3.236-1.015,4.911-0.904
	c1.198,0.08,2.441,0.797,2.743,1.96c0.164,0.63,0.2,1.164,0.134,1.613c-0.418,2.843-4.923,2.376-7.103,2.4
	c-9.19,0.1-18.33,0.627-27.555,0.635c-5.079,0.005-10.125,0.038-15.193-0.245c-1.403-0.078-2.846-0.255-4.25-0.302
	c-2.739-0.094-1.651,0.753-2.367-0.997C223.62,358.647,224.06,355.194,224.431,354.881z M133.381,343.263
	c0.415-3.387,0.883-6.751,1.31-10.137c3.013-23.862,2.777-47.807,3.699-71.805c0.536-13.961,0.881-27.963,1.216-41.878
	c0.162-6.723,0.679-13.451,1.219-20.16c0.29-3.594-0.1-6.246,4.205-8.101c1.425-0.614,3.622-0.726,5.092-0.954
	c0.427-0.066,0.997-0.167,1.649-0.281c0.211,0.188,0.478,0.305,0.783,0.293c2.89-0.112,5.417-0.155,8.197,0.211
	c1.032,0.135,2.683-0.173,3.578,0.356c1.425,0.841,0.888,0.614,0.766,2.536c-0.449,7.105-0.036,14.369-0.041,21.487
	c-0.01,13.114-0.284,26.15,0.023,39.293c0.275,11.782,0.273,23.493,2.296,35.135c2.097,12.066,2.312,25.032,2.556,37.254
	c0.131,6.545,0.655,13.252-0.149,19.766c-0.414,3.355-1.63,3.788-5.355,3.641c-2.769-0.109-5.472-0.514-8.277-0.53
	c-5.573-0.033-11.051,0.402-16.614,0.656c-2.222,0.102-5.695,0.907-6.699-2.277C132.532,346.804,133.27,344.168,133.381,343.263z
	 M121.87,358.122c0.771-2.514,2.341-2.136,4.709-2.454c1.926-0.259,3.811-0.438,5.676-0.701c2.661,0.687,5.728,0.535,8.191,0.378
	c7.416-0.474,14.806-1.216,22.235-0.566c1.534,0.134,3.457,0.19,5.324-0.06c3.657,0.129,7.502-0.269,10.948-0.688
	c0.664,1.832,1.314,4.29,0.926,5.74c-0.142,0.531-0.472,0.923-0.91,1.222c-1.372,0.222-2.714,0.519-4.013,0.908
	c-0.793,0.032-1.539,0.033-2.107,0.069c-5.48,0.344-11.347-0.104-16.825-0.455c-6.112-0.392-12.223-0.199-18.345-0.047
	c-3.895,0.096-7.708,0.095-11.59-0.191c-0.741-0.055-3.095,0.304-4.627,0.329C121.487,360.365,121.586,359.046,121.87,358.122z
	 M124.442,365.758c0.566-0.091,1.121-0.154,1.648-0.132c5.372,0.216,10.739,0.34,16.122,0.392c7.64,0.073,15.253,0.42,22.875,0.656
	c3.985,0.124,7.575,0.396,11.586-0.034c0.459-0.049,0.947-0.073,1.441-0.099c1.181-0.016,2.349-0.073,3.433-0.077
	c6.08-0.018,12.125-0.213,18.211-0.142c5.859,0.068,11.68,0.024,17.512-0.064c4.605-0.071,9.598,0.094,14.24-0.709
	c4.708,0.074,9.456-0.025,14.1-0.005c7.305,0.033,14.882,0.556,22.151-0.046c2.835-0.235,7.029,0.082,10.497-0.662
	c1.43-0.022,2.867-0.025,4.321,0.105c5.61,0.504,11.767,0.849,17.365,0.458c9.01-0.629,18.578,0.41,27.774-0.097
	c6.751,0.434,13.726,0.212,20.48,0.243c7.305,0.033,14.882,0.556,22.151-0.046c1.217-0.101,2.688-0.1,4.242-0.123
	c9.82,1.678,20.931,0.826,30.724,0.412c5.937-0.25,11.893-0.069,17.838-0.093c5.704-0.023,11.161,0.875,16.802-0.118
	c3.629,0.007,7.262-0.049,10.833-0.033c7.797,0.036,15.569,0.78,23.364,0.884c3.695,0.049,14.817-1.613,16.94,2.486
	c0.469,0.904,0.111,2.458,0.204,3.723c-3.405-0.229-6.866-0.215-10.038-0.362c-7.557-0.353-14.995-0.292-22.526,0.285
	c-6.416,0.493-12.821,1.488-19.245,1.699c-2.619,0.086-5.254,0.09-7.881,0.18c-20.866-1.348-41.791-1.521-62.702-1.541
	c-23.158-0.023-46.253-0.931-69.404-0.757c-21.311,0.16-42.46,0.472-63.757-0.517c-21.145-0.982-42.138-2.049-63.333-2.049
	c-11.834,0-23.632-0.079-35.445,0.51c-5.332,0.267-10.64-0.504-15.929,0.235c-0.171,0.024-0.328,0.055-0.495,0.081
	c-0.301-1.05-0.687-2.096-0.687-3.136C121.457,366.815,122.984,366.519,124.442,365.758z M504.908,386.164
	c-0.656,0.147-1.293,0.354-1.909,0.633c-2.521,0.728-5.094,1.267-7.67,1.833c-16.195-1.263-32.529-0.811-48.733-2.158
	c-21.091-1.754-42.496-1.049-63.655-0.969c-20.401,0.077-41.025,0.728-61.404-0.063c-10.62-0.412-21.307-0.334-31.933,0.056
	c-7.134,0.262-14.759-0.341-21.826,0.978c-15.483-0.506-31.082,0.404-46.445-1.326c-16.3-1.836-32.703-1.605-49.073-1.944
	c-17.222-0.356-34.488,0.495-51.687,0.079c-2.852-0.069-5.758,0.074-8.607-0.346c0.142-0.01,0.283-0.021,0.45-0.032
	c0.16-1.129,0.21-2.265,0.148-3.404c0.416-2.764,0.214-2.243,2.68-2.743c1.597-0.323,3.113-0.394,4.224-1.29
	c0.46-0.054,0.922-0.1,1.384-0.131c4.758-0.312,9.552,0.365,14.337,0.235c10.559-0.289,21.072-0.573,31.645-0.573
	c21.101,0,42.349-0.137,63.416,1.128c20.573,1.237,41.301,0.763,61.908,1.317c22.975,0.617,46.02,1.11,69.003,1.147
	c13.157,0.021,26.498-0.622,39.629,0.195c11.899,0.74,23.838,1.641,35.756,0.759c0.25-0.018,0.471-0.072,0.68-0.141
	c6.574,0.08,12.97-0.54,19.547-1.047c7.867-0.607,15.665-0.671,23.558-0.485c5.932,0.141,12.971,1.321,18.821-0.312
	c3.265-0.033,6.013-0.223,5.742,5.175C504.881,383.067,504.777,385.433,504.908,386.164z"/>
<g>
</g>
<g>
</g>
<g>
</g>
<g>
</g>
<g>
</g>
<g>
</g>
<g>
</g>
<g>
</g>
<g>
</g>
<g>
</g>
<g>
</g>
<g>
</g>
<g>
</g>
<g>
</g>
<g>
</g>
</svg>
