<?xml version="1.0" encoding="iso-8859-1"?>
<!-- Generator: Adobe Illustrator 19.0.0, SVG Export Plug-In . SVG Version: 6.00 Build 0)  -->
<svg version="1.1" id="Layer_1" xmlns="http://www.w3.org/2000/svg" xmlns:xlink="http://www.w3.org/1999/xlink" x="0px" y="0px"
	 viewBox="0 0 512 512" style="enable-background:new 0 0 512 512;" xml:space="preserve">
<path style="fill:#D33333;" d="M508.224,27.539c-2.23-2.727-6.633-1.785-9.448-0.812c-17.801,6.154-35.603,12.306-53.404,18.459
	c-4.499,1.555-8.998,3.111-13.497,4.665c-3.619,1.251-6.333,1.205-10.007,1.593c-9.056,0.955-18.087,2.838-27.122,4.051
	c-20.041,2.692-40.17,4.728-60.343,6.108c-40.186,2.749-80.764,2.946-120.985,1.683c-20.376-0.64-40.727-2.063-60.994-4.265
	c-20.114-2.185-40.143-5.138-60.032-8.851c-4.971-0.928-9.936-1.905-14.89-2.928c-3.998-0.826-7.521-2.301-11.361-3.342
	c-8.989-2.435-18.487-1.83-27.407-4.957c-8.619-3.022-16.777-7.312-25.646-9.614c-7.178-1.863-13.829,3.393-7.435,10.177
	c1.244,1.32,2.893,2.255,3.919,3.75c1.575,2.296,1.328,5.323,1.23,8.105c-0.157,4.402,1.629,7.073,4.341,10.262
	c1.303,1.531,2.905,2.796,4.115,4.402c4.34,5.765,2.648,14.396,6.667,20.389c2.958,4.409,8.379,6.434,13.572,7.536
	C44.69,95.053,50.131,95.545,54.837,98c5.272,2.751,9.094,7.749,11.539,13.17c2.15,4.767,2.573,9.958,4.422,14.753
	c1.089,2.827,3.844,5.957,5.991,8.012c4.494,4.302,9.747,7.184,15.915,8.228c6.127,1.037,12.396,0.525,18.598,0.12
	c3.581-0.234,7.931-0.038,9.694,3.087c1.423,2.523,0.362,5.637-0.166,8.486c-0.527,2.848,0.095,6.595,2.899,7.318
	c1.885,0.485,3.929-0.71,5.783-0.117c2.039,0.652,2.84,3.075,3.187,5.186c1.036,6.309-0.049,12.212-0.555,18.446
	c-0.37,4.548-2.285,8.019-7.15,9.048c-6.806,1.441-11.702-3.227-18.317-2.587c-2.944,0.285-5.952,1.844-7.124,4.561
	c-0.585,1.357-0.674,2.88-1.197,4.262c-1.366,3.607-5.418,5.519-9.255,5.904c-3.837,0.385-7.695-0.386-11.551-0.355
	c-6.555,0.052-10.851,2.903-11.69,9.556c-0.631,5.004,0.852,10.713,1.652,15.631c0.644,3.969,2.35,7.829,6.111,9.716
	c4.295,2.155,9.351,1.906,14.145,1.607c8.578-0.534,17.155-1.068,25.733-1.602c3.638-0.227,7.892-0.193,10.138,2.677
	c1.593,2.037,1.605,4.859,1.461,7.441c-0.412,7.403-2.528,14.501-3.184,21.798c-0.593,6.601-1.088,13.29-1.856,19.935
	c-1.707,14.755-3.419,29.51-5.144,44.263c-1.205,10.301-2.414,20.603-3.63,30.903c-1.062,8.989-3.431,17.085-3.939,26.182
	c-0.279,5.004-1.101,10.269-4.281,14.143c-1.685,2.053-3.927,3.573-5.761,5.496c-3.982,4.174-5.793,9.971-6.691,15.669
	c-1.798,11.404-2.381,22.814-4.299,34.215c-0.845,5.023-4.605,12.539,0.44,16.213c2.079,1.514,4.691,2.052,7.216,2.547
	c12.984,2.543,26.123,4.953,39.345,4.504c7.083-0.24,14.628-1.531,19.774-6.404c4.776-4.522,6.606-11.288,7.813-17.753
	c2.857-15.309,3.277-31.272,2.37-46.801c-0.129-2.206-0.637-4.886-2.731-5.597c-1.305-0.443-2.954,0.038-3.96-0.903
	c-0.801-0.75-0.75-2.014-0.64-3.106c1.516-14.898,4.549-30.541,4.138-45.471c-0.424-15.468,0.671-31.137,1.015-46.608
	c0.231-10.389,0.468-20.778,0.706-31.169c0.112-4.827-0.049-9.786,0.599-14.542c0.597-4.375-0.532-8.14-1.221-12.501
	c-0.653-4.126-0.093-9.048,3.398-11.347c2.15-1.417,4.89-1.474,7.465-1.485l45.992-0.185l62.153-0.25
	c20.291-0.082,40.643-0.776,60.918,0.151c2.922,0.134,6.098,0.4,8.251,2.38c2.629,2.418,2.775,6.5,2.237,10.03
	c-1.125,7.393-0.316,14.288-0.008,21.761c0.331,8.061,0.665,16.123,0.99,24.185c0.642,15.916,1.254,31.833,1.753,47.756
	c0.564,18.02,1.377,35.816,1.717,53.85c0.034,1.847,0.05,3.781-0.793,5.425c-0.697,1.36-1.908,2.371-2.86,3.568
	c-4.059,5.103-2.537,11.197-2.269,17.052c0.341,7.444-0.849,14.836-0.147,22.368c0.576,6.186,1.391,12.167,3.566,17.931
	c1.913,5.07,2.434,10.558,7.531,13.68c2.952,1.808,6.558,2.082,10.012,2.308c10.17,0.668,20.358,1.338,30.547,1.048
	c6.84-0.195,13.988-0.927,19.71-4.678c10.309-6.756,6.944-16.836,4.909-26.801c-2.423-11.87-5.962-23.361-8.335-35.231
	c-0.761-3.804-2.251-7.781-5.501-9.899c-1.129-0.736-2.431-1.216-3.436-2.114c-2.254-2.012-1.984-4.773-2.111-7.489
	c-0.11-2.357-0.555-4.676-0.854-7.05c-1.086-8.634-2.172-17.267-3.254-25.901c-2.577-20.558-5.138-41.117-7.67-61.679
	c-1.266-10.281-2.526-20.564-3.776-30.847c-0.504-4.149-0.53-8.45-1.167-12.517c-0.739-4.722-1.904-9.059-1.821-13.915
	c0.024-1.386,0.133-2.851,0.917-3.994c1.589-2.315,4.975-2.212,7.766-1.896c9.839,1.112,19.732,1.73,29.632,1.851
	c4.124,0.05,8.489-0.051,11.99-2.232c3.528-2.198,5.595-6.227,6.355-10.314c1.212-6.512,1.315-20.749-4.906-25.114
	c-2.774-1.945-6.429-1.902-9.815-1.783l-11.621,0.409c-2.426,0.085-5.32-0.066-6.588-2.135c-1.423-2.323,0.21-5.56-1.033-7.984
	c-1.343-2.62-5.001-2.688-7.93-2.387c-3.768,0.387-7.537,0.774-11.305,1.161c-2.593,0.267-5.382,0.495-7.647-0.798
	c-2.707-1.545-2.202-3.888-2.268-6.461c-0.068-2.622-0.792-5.335-1.175-7.929c-0.555-3.75-1.924-8.433-1.398-12.247
	c0.455-3.287,2.695-6.572,5.965-7.141c1.925-0.335,4.113,0.242,5.714-0.877c2.096-1.466,1.66-4.683,0.684-7.046
	c-0.977-2.364-2.277-5.018-1.195-7.334c1.041-2.228,3.801-3,6.249-3.234c9.717-0.93,19.912,2.567,29.087-0.767
	c5.984-2.175,10.676-7.058,13.867-12.568c5.595-9.662,6.082-22.683,17.072-28.405c4.887-2.544,10.642-2.607,15.993-3.92
	c4.282-1.052,8.41-2.968,11.667-5.939c3.258-2.972,5.596-7.051,6.049-11.437c0.417-4.021-0.603-8.556,1.837-11.778
	c1.416-1.869,3.699-2.823,5.597-4.201c2.802-2.034,3.225-5.075,3.295-8.314c0.083-3.863-0.057-8.149,2.486-11.056
	c1.365-1.559,3.343-2.49,4.678-4.074c0.921-1.093,1.428-2.593,1.546-4.161C510.058,31.382,509.476,29.071,508.224,27.539z
	 M233.579,200.162c-2.155,3.568-6.529,4.599-10.389,5.017c-5.584,0.604-11.199-0.17-16.793,0.112
	c-4.427,0.222-11.028,1.437-13.589-3.379c-1.16-2.18-0.427-4.347-0.634-6.659c-0.433-4.863-2.816-5.468-7.034-5.274
	c-5.843,0.268-11.774,1.781-17.352,3.494c-1.182,0.363-2.287-0.616-2.329-1.773c-0.285-8.023-1.404-18.84,2.686-26.294
	c-0.136-1.122,0.39-2.255,1.818-2.517c8.166-1.501,9.664-9.173,10.375-16.349c0.129-1.315,1.021-2.427,2.432-2.432
	c9.982-0.034,20.721,0.446,30.553-1.353c4.648-0.851,11.972-3.069,15.941,0.761c1.567,1.512,1.53,3.106,1.747,5.15
	c0.424,3.972,0.872,7.864,0.91,11.874c0.075,8.049,0.508,15.414,1.904,23.341C234.69,188.789,236.348,195.579,233.579,200.162z
	 M346.078,191.084c-0.287,1.021-1.258,1.764-2.32,1.766c-6.04,0.017-12.086-3.67-18.052-2.952
	c-7.546,0.908-3.897,10.09-9.458,13.484c-3.864,2.358-9.577,2.071-13.958,2.263c-5.305,0.234-10.998,0.406-16.18-0.976
	c-9.392-2.503-7.943-11.774-6.653-19.587c1.237-7.493,2.766-14.962,3.986-22.471c-0.901-4.714-0.755-9.436-0.43-14.225
	c-0.303-0.71-0.331-1.552,0.042-2.276c0.142-0.278,0.285-0.554,0.43-0.83c0.615-1.18,2.006-1.421,3.108-0.993
	c11.295-3.547,24.323-4.554,35.968-3.394c6.785,0.675,9.327,2.893,9.329,9.522c0.002,6.493,2.935,9.302,8.84,11.518
	c3.02,1.133,5.894,2.502,7.172,5.657C350.566,174.163,347.917,184.54,346.078,191.084z"/>
<g>
	<path style="fill:#38493F;" d="M114.957,406.678c-8.641-1.984-16.14,1.819-19.382,10.021c-2.464,6.237-2.842,13.509-4.478,20.014
		c-2.949,11.724-6.86,23.345-6.456,35.647c0.139,4.233,0.381,6.825,4.499,8.422c4.882,1.893,10.298,2.791,15.431,3.725
		c12.952,2.357,26.64,0.193,39.549-1.184c2.645-0.282,6.988,0.142,9.286-1.328c3.964-2.539,3.967-10.133,4.702-14.134
		c1.682-9.164,1.385-18.554,2.098-27.82c0.322-4.17,1.543-8.238,1.853-12.414c0.281-3.788,0.845-9.771-0.421-13.372
		c-1.535-4.365-7.39-4.356-11.206-5.053c-9.322-1.704-18.392-2.527-27.894-2.527C119.824,407.102,117.639,407.294,114.957,406.678z"
		/>
	<path style="fill:#38493F;" d="M386.394,408.082c-6.319-0.109-12.719,0.533-19.031,0.857c-3.894,0.199-8.495-0.447-12.188,0.898
		c-9.866,3.597-6.803,17.626-5.298,25.361c2.505,12.87,1.753,26.374,4.72,39.135c1.765,7.592,8.944,10.806,16.383,10.943
		c12.136,0.224,24.672-2.096,36.74-3.152c7.221-0.633,15.788,0.081,18.399-8.259c2.331-7.445,0.072-16.196-1.044-23.642
		c-1.956-13.05-3.333-26.393-10.015-38.103C409.059,401.607,395.439,408.239,386.394,408.082z"/>
</g>
<path style="fill:#B57C4D;" d="M233.132,142.259c-5.465,4.016-2.422,19.969-1.387,25.259c1.561,7.982,1.953,15.431,1.95,23.551
	c-0.001,3.802-0.993,11.6,2.803,13.94c3.775,2.327,11.894,0.221,16.162,0.432c6.64,0.33,15.71,1.764,20.402-3.603
	c3.823-4.373,5.045-10.97,5.839-16.549c1.093-7.679,1.431-15.627,2.222-23.355c0.476-4.652,1.938-9.093,2.258-13.76
	c0.153-2.225,0.939-5.027-1.211-6.419c-3.573-2.315-11.183-0.789-15.326-1.351c-7.396-1.003-14.822-1.76-22.296-1.519
	c-2.758,0.089-5.519,0.202-8.178,0.987C232.787,140.93,232.061,143.406,233.132,142.259z"/>
<g>
	<path style="fill:#38493F;" d="M250.398,151.319c-5.007,0.91-9.054,3.463-9.105,9.225c-0.044,5.024,1.374,9.884,2.568,14.716
		c1.168,4.726,1.11,9.532,2.089,14.193c1.657,7.891,9.815,6.764,15.956,5.881c1.733-0.249,2.147,0.164,3.226-1.135
		c1.549-1.864,1.338-6.015,1.748-8.207c1.29-6.888,1.805-14.195,2.68-21.222c0.641-5.152,2.433-11.321-3.698-12.688
		C262.012,151.226,255.673,150.36,250.398,151.319z"/>
	<path style="fill:#38493F;" d="M496.708,27.733c-9.821,4.971-20.057,9.077-30.378,12.882c-4.543,1.675-9.668,4.348-14.512,4.754
		c-6.019,0.504-11.081,1.343-16.782,3.165c-5.534,1.767-11.19,3.127-16.893,4.225c-11.224,2.161-22.611,3.29-33.971,4.456
		c-7.083,0.726-14.257,1.8-21.378,1.964c-10.217,0.236-19.796,1.152-29.93,2.668c-16.364,2.447-32.689,0.89-49.033,2.28
		c-17.244,1.467-34.556-0.522-51.817-0.463c-17.4,0.061-34.981-1.783-52.384-2.534c-12.397-0.535-24.805-0.191-37.144-1.663
		c-12.997-1.551-25.8-4.335-38.706-6.464c-12.997-2.143-25.637-3.897-38.288-7.596c-9.956-2.91-19.547-6.741-29.365-10.172
		c-8.632-3.017-18.324-7.899-27.641-7.783c-8.311,0.104-5.863,8.125-1.802,12.131c5.389,5.316,3.569,9.574,4.478,16.521
		c0.514,3.927,2.847,6.296,6.575,7.569c5.29,1.809,11.282,2.554,16.731,3.909c15.561,3.87,30.782,7.457,46.677,9.894
		c10.598,1.625,21.017,4.57,31.66,6.057c28.017,3.914,56.83,8.113,85.154,8.203c17.287,0.056,34.539,1.386,51.824,1.563
		c7.277,0.075,14.315-0.585,21.399,0.995c7.718,1.721,16.557-0.006,24.427-0.049c22.301-0.123,44.524-2.55,66.492-6.292
		c9.232-1.573,18.147-4.078,27.51-3.462c10.028,0.66,20.732-3.719,30.507-5.627c6.994-1.364,14.081-2.177,21.083-3.392
		c9.196-1.596,18.431-3.189,27.643-4.859c7.632-1.383,16.209-2.931,22.947-6.94c2.827-1.683,5.973-4.662,6.969-7.936
		c0.932-3.067,0.355-5.798,2.012-8.769c2.209-3.963,5.9-6.036,6.34-10.896C507.698,29.578,505.474,26.11,496.708,27.733z"/>
</g>
<g>
	<path style="fill:#A82929;" d="M151.084,162.49c0.451,5.687-0.799,11.997-1.482,17.629c-1.708,14.071-2.26,28.058-3.232,42.155
		c-1.961,28.406-5.768,56.67-7.687,85.058c-1.563,23.112-7.266,45.948-8.09,69.126c-0.369,10.361-0.004,22.089-3.177,31.937
		c-6.999-1.377-14.402-3.106-21.486-4.188c-0.081-8.323,2.315-17.533,3.272-25.892c1.13-9.878,3.403-19.665,4.858-29.493
		c3.152-21.296,3.687-42.767,6.586-64.125c5.053-37.246,7.414-74.755,11.051-111.998c0.417-4.264-0.921-11.078,2.924-12.649
		C137.383,158.917,150.168,160.864,151.084,162.49z"/>
	<path style="fill:#A82929;" d="M349.512,161.303c-5.324,4.052-1.398,15.795-1.136,21.743c0.25,5.682,0.986,11.445,1.323,17.11
		c0.646,10.834,1.378,21.594,1.901,32.388c1.294,26.68,2.26,53.845,1.29,80.722c-0.945,26.177,3.225,51.343,3.225,77.277
		c0,3.893-1.322,10.968,0.788,14.188c2.47,3.768,8.154,2.851,12.755,3.081c4.146,0.207,11.82,1.514,15.475-0.503
		c3.672-2.027,3.979-5.608,3.829-9.829c-0.382-10.669-3.81-22.141-5.136-32.819c-3.679-29.617-10.684-58.284-12.734-88.32
		c-1.842-26.978-2.683-54.125-4.046-81.106c-0.426-8.433,3.011-16.742,2.427-25.21c-0.379-5.485-0.714-5.959-5.047-7.992
		c-3.395-1.594-10.968-3.138-14.383-1.091C349.856,161.056,349.68,161.176,349.512,161.303z"/>
	<path style="fill:#A82929;" d="M128.468,205.46c-0.062,9.376-0.941,19.456-1.932,28.375c-1.066,9.589-11.78,8.284-19.961,8.348
		c-5.165,0.04-9.752-1.205-14.868-1.254c-5.246-0.051-11.394,2.713-16.621,1.146c-4.028-1.207-6.807-3.799-6.593-8.24
		c0.376-7.739,8.73-5.008,14.809-5.852c12.035-1.669,20.926-7.387,30.357-14.747C116.849,210.747,122.868,203.931,128.468,205.46z"
		/>
	<path style="fill:#A82929;" d="M162.956,208.876c-0.047,0.033-0.095,0.068-0.142,0.102c-5.758,4.213-2.248,24.784-0.697,30.549
		c9.042,3.718,18.191,1.73,27.529,2.628c9.186,0.883,17.95,1.952,27.305,2.015c23.236,0.154,46.469-0.517,69.69-1.307
		c12.782-0.434,25.541-1.29,38.358-1.29c6.488,0,22.048,2.721,26.616-2.581c3.975-4.614,2.441-21.786,0.577-27.351
		c-1.793-5.351-4.28-6.282-10.178-2.999c-4.639,2.582-7.156,7.686-11.487,10.682c-5.171,3.578-12.361,5.977-18.405,7.445
		c-18.696,4.543-41.35,3.382-60.51,3.194c-16.794-0.166-33.904-0.567-50.473-3.545c-8.672-1.558-16.33-2.975-23.012-8.706
		C174.35,214.473,169.221,204.497,162.956,208.876z"/>
	<path style="fill:#A82929;" d="M383.846,206.104c0.894,9.771-4.803,22.095,0.984,30.961c5.477,8.393,18.462,5.887,27.391,5.153
		c7.884-0.648,23.761,3.341,29.054-3.869c10.957-14.926-28.148-11.133-34.279-14.173
		C400.06,220.739,392.174,197.736,383.846,206.104z"/>
	<path style="fill:#A82929;" d="M65.914,110.661c6.155,4.029,18.054,5.534,25.547,6.125c13.998,1.104,28.137,3.475,42.167,4.217
		c31.36,1.658,62.732,2.139,94.063,3.878c17.448,0.968,35.497-1.323,53.066-1.323c15.846,0,31.774,0.282,47.547-0.502
		c28.213-1.403,56.505-0.262,84.728-2.08c7.833-0.504,21.379,0.1,28.068-4.032c4.666-2.882,5.666-8.985,6.963-13.379
		c1.446-4.893-20.571-0.497-22.372-0.012c-21.463,5.788-44.317,10.322-66.616,10.33c-9.858,0.004-19.528-2.606-29.374-2.543
		c-8.832,0.056-17.586,0.934-26.455,0.553c-28.395-1.219-57.144,1.052-85.718,0.377c-29.634-0.7-60.027,2.374-89.6-1.662
		c-15.246-2.08-30.457-4.185-45.573-7.374c-3.082-0.65-13.52-4.108-16.437-2.263C61.316,103.881,66.972,108.837,65.914,110.661z"/>
	<path style="fill:#A82929;" d="M22.06,66.808C14.098,86.923,57.75,86.593,68.69,88.089c35.128,4.803,70.428,8.704,105.646,12.314
		c13.969,1.431,27.928,1.84,41.832,3.182c8.886,0.858,17.295,0.631,26.233,0.627c20.498-0.011,40.946,1.015,61.478,0.055
		c45.539-2.129,90.641-6.836,135.086-16.981c13.576-3.099,28.14-4.523,41.288-9.337c5.326-1.95,17.205-9.611,4.839-9.85
		c-6.682-0.129-12.566,3.206-18.986,4.354c-5.446,0.976-10.794,0.464-16.307,1.428c-15.781,2.758-31.485,6.091-47.231,9.048
		c-17.172,3.225-34.293,4.752-51.189,8.627c-17.73,4.066-38.649,3.626-56.773,3.626c-13.851,0-27.937,0.738-41.765,0.033
		c-17.32-0.883-34.625-0.459-51.812-2.578c-31.95-3.937-64.686-4.029-96.315-9.55c-26.104-4.557-53.47-9.11-78.643-16.216
		C26.011,67.736,25.603,68.006,22.06,66.808z"/>
</g>
<g>
	<path style="fill:#28332D;" d="M134.65,410.845c0.961,5.697-6.087,14.119-7.308,18.922c-1.836,7.215-2.635,14.67-3.367,22.064
		c-0.763,7.714,1.335,18.706-3.245,25.161c-3.511,4.949-9.135,5.52-14.188,4.985c-5.379-0.57-13.684,0.129-18.591-1.904
		c-4.287-1.775,0.352-39.862,1.475-45.649c1.742-8.985,3.967-21.664,12.721-26.616c5.504-3.114,26.298-4.822,31.132,0.271
		C134.047,408.888,134.478,409.822,134.65,410.845z"/>
	<path style="fill:#28332D;" d="M386.425,407.312c-12.434,22.097-6.076,44.776,2.076,66.47c2.934,7.807,2.164,8.921-6.267,9.621
		c-5.807,0.482-11.451-0.028-17.413-0.639c-7.281-0.745-8.61-2.079-9.971-9.369c-1.127-6.034-0.757-12.01-2.523-18.046
		c-3.286-11.231-7.947-27.549-2.821-38.666c3.113-6.75,8.957-7.63,16.089-8.709C370.145,407.287,384.059,405.988,386.425,407.312z"
		/>
</g>
<path d="M510.703,26.777c-3.258-5.399-11.167-2.986-15.897-1.535c-9.07,2.781-17.816,6.631-26.841,9.502
	c-15.344,4.881-31.237,8.041-46.684,12.732c-17.311,5.259-36.19,6.303-54.062,8.103c-8.317,0.838-16.791,1.891-25.148,2.299
	c-4.168,0.203-8.263,0.921-12.421,1.303c-4.423,0.407-8.921,0.088-13.306,0.648c-7.08,0.904-14.075,0.242-21.146,0.091
	c-3.795-0.43-7.63-0.368-11.448-0.072c-6.784,0.525-13.685,0.253-20.49,0.207c-7.065-0.049-14.135,0.207-21.216,0.223
	c-3.228,0.007-6.45,0.134-9.675,0.202c-2.947-0.17-5.902-0.33-8.884-0.489c-9.372-0.497-18.525,1.025-27.827-0.163
	c-4.385-0.56-8.883-0.241-13.306-0.648c-4.159-0.383-8.253-1.1-12.421-1.303c-8.357-0.407-16.831-1.461-25.148-2.299
	c-17.872-1.8-36.752-2.845-54.062-8.103c-15.447-4.693-31.341-7.851-46.685-12.732c-9.024-2.871-17.771-6.721-26.841-9.502
	c-4.731-1.45-12.639-3.863-15.897,1.535c-2.972,4.925-0.25,11.442,2.328,15.703c1.351,2.23,2.389,2.769,4.738,4.077
	c0.002,0.001,0.006,0.004,0.009,0.005c-0.078,0.234-0.128,0.485-0.12,0.765C8.413,52.927,9.06,60.021,12.54,64.76
	c1.461,1.99,3.34,2.422,5.634,2.944c0.161,0.037,0.319,0.085,0.479,0.123c0.001,0.045-0.005,0.085-0.001,0.133
	c0.564,7.031,1.033,13.989,4.181,20.64c3.597,7.601,13.247,7.893,20.301,10.248c5.007,1.675,10.239,2.98,15.529,4.024
	c3.793,6.511,6.46,13.756,9.726,20.497c1.742,3.597,3.952,7.127,5.482,10.783c0.901,2.153,1.222,4.602,3.168,6.654
	c5.604,5.915,13.905,4.893,21.292,4.808c4.764-0.055,9.391,0.922,14.149,0.827c2.277-0.045,4.551-0.107,6.824-0.159
	c-1.967,5.333-5.097,13.356,1.046,16.055c3.082,1.354,6.918,0.997,10.394,1.034c-0.572,2.742-1.291,5.412-1.405,8.242
	c-0.183,4.541-1.257,8.979-1.659,13.501c-0.191,2.141-0.388,4.281-0.585,6.421c-3.573-1.253-7.783-1.444-11.486-1.824
	c-2.549-0.261-4.95,0.037-7.362,0.458c-0.755-0.158-1.513-0.31-2.295-0.409c-3.169-0.4-6.27,0.109-7.873,3.162
	c-1.053,2.003-1.645,5.455-1.413,8.264c-1.857-0.072-3.712-0.096-5.557,0.013c-3.774,0.223-7.497,1.046-11.275,1.264
	c-4.618,0.267-12.506-1.657-15.519,3.589c-1.465,2.552-0.72,5.967-0.548,8.715c0.255,4.054,0.58,8.115,0.781,12.172
	c0.243,4.911-1.432,11.562,2.489,15.46c2.012,2.001,4.674,2.426,7.404,2.491c4.251,0.103,8.654,0.694,12.887,0.489
	c8.42-0.411,16.855,0.214,25.381,0.22c2.466,0.001,6.132,0.633,9.39,0.415c-1.11,6.165-2.382,12.319-2.762,18.552
	c-1.194,19.628-4.435,39.152-7.085,58.621c-2.571,18.891-4.793,37.987-7.026,56.947c-0.47,3.992-0.809,7.953-1.129,11.955
	c-0.322,4.026-1.723,8.228-1.386,12.306c-2.764,0.33-5.223,1.169-6.648,2.795c-2.439,2.782-3.736,7.6-4.798,11.056
	c-1.867,6.073-3.641,12.209-4.931,18.431c-2.152,10.374-4.967,21.016-5.356,31.608c-0.284,7.703-1.192,16.695,8.446,18.137
	c9.75,1.459,19.783,1.321,29.636,1.806c5.018,0.247,10.12,0.068,15.13,0.087c5.603,0.021,10.637,0.582,16.282-0.028
	c10.087-1.088,9.971-9.821,11.295-18.014c0.776-4.811,2.606-9.373,3.163-14.234c0.769-6.71,0.7-13.616,0.818-20.363
	c0.116-6.673,0.503-13.468,0.262-20.138c-0.14-3.881-0.622-7.973-4.811-9.378c-0.612-0.205-1.257-0.31-1.914-0.368
	c2.776-7.6,0.862-16.985,1.716-24.848c1.078-9.918-0.3-19.966,0.174-29.912c0.45-9.435,0.901-19.103,1.86-28.506
	c0.947-9.293,0.399-18.63,0.474-27.963c0.09-11.12,0.763-22.269,0.786-33.434c0.011-5.154-0.064-10.312-0.132-15.47
	c1.926,0.452,3.95,0.388,6.021,0.169c4.687-0.497,8.881-0.332,13.596-0.172c8.776,0.297,17.594,0.818,26.348,0.812
	c8.913-0.006,17.713-0.84,26.595-0.745c3.37,0.036,7.569,0.31,11.487-0.216c1.323,0.034,2.497,0.062,3.35,0.134
	c5.205,0.444,11.289,0.938,16.933,0.18c2.403,0.032,4.75-0.077,6.791-0.098c8.882-0.094,17.682,0.739,26.595,0.745
	c8.754,0.006,17.572-0.515,26.348-0.812c4.715-0.159,8.908-0.324,13.596,0.172c2.071,0.22,4.094,0.284,6.021-0.169
	c-0.068,5.158-0.142,10.316-0.132,15.47c0.023,11.165,0.695,22.314,0.786,33.434c0.076,9.334-0.474,18.672,0.474,27.963
	c0.96,9.403,1.41,19.071,1.86,28.506c0.475,9.947-0.903,19.994,0.174,29.912c0.854,7.863-1.06,17.248,1.716,24.848
	c-0.657,0.058-1.302,0.163-1.914,0.368c-4.189,1.405-4.671,5.497-4.811,9.378c-0.241,6.67,0.146,13.464,0.262,20.138
	c0.117,6.747,0.049,13.654,0.817,20.363c0.557,4.861,2.387,9.423,3.163,14.234c1.323,8.195,1.208,16.926,11.295,18.014
	c5.644,0.609,10.679,0.049,16.282,0.028c5.011-0.019,10.113,0.16,15.13-0.087c9.853-0.485,19.885-0.348,29.636-1.806
	c9.638-1.442,8.729-10.432,8.446-18.137c-0.389-10.592-3.204-21.234-5.356-31.608c-1.29-6.222-3.064-12.358-4.931-18.431
	c-1.062-3.456-2.359-8.274-4.798-11.056c-1.425-1.627-3.884-2.465-6.648-2.795c0.338-4.078-1.065-8.28-1.386-12.306
	c-0.319-4.002-0.659-7.961-1.129-11.955c-2.232-18.959-4.455-38.056-7.026-56.947c-2.649-19.469-5.89-38.993-7.085-58.621
	c-0.38-6.233-1.652-12.387-2.762-18.552c3.259,0.217,6.925-0.414,9.391-0.415c8.526-0.006,16.961-0.63,25.381-0.22
	c4.233,0.207,8.636-0.386,12.887-0.489c2.73-0.066,5.392-0.49,7.404-2.491c3.921-3.899,2.245-10.549,2.489-15.46
	c0.201-4.056,0.526-8.118,0.781-12.172c0.173-2.747,0.916-6.163-0.548-8.715c-3.012-5.246-10.901-3.322-15.519-3.589
	c-3.776-0.218-7.499-1.041-11.273-1.264c-1.843-0.109-3.699-0.085-5.557-0.013c0.231-2.808-0.361-6.26-1.413-8.264
	c-1.553-2.958-4.513-3.52-7.578-3.188c-1.08-0.153-2.193-0.123-3.338-0.094c-0.722,0.019-1.408,0.064-2.082,0.132
	c-1.481-0.158-2.978-0.22-4.532-0.061c-3.703,0.379-7.914,0.57-11.486,1.824c-0.196-2.14-0.394-4.28-0.585-6.421
	c-0.402-4.523-1.478-8.96-1.659-13.501c-0.114-2.829-0.833-5.501-1.405-8.242c3.477-0.037,7.313,0.319,10.394-1.034
	c6.143-2.699,3.012-10.722,1.046-16.055c2.273,0.052,4.547,0.114,6.824,0.159c4.758,0.095,9.385-0.882,14.149-0.827
	c7.388,0.084,15.688,1.107,21.292-4.808c1.945-2.053,2.267-4.503,3.168-6.654c1.53-3.657,3.738-7.187,5.482-10.783
	c3.266-6.741,5.933-13.986,9.726-20.497c5.29-1.044,10.522-2.35,15.529-4.021c7.054-2.355,16.704-2.647,20.301-10.248
	c3.147-6.651,3.617-13.609,4.18-20.64c0.004-0.047-0.002-0.088-0.001-0.133c0.16-0.039,0.318-0.087,0.479-0.123
	c2.294-0.523,4.172-0.955,5.634-2.944c3.48-4.739,4.128-11.834,4.288-17.435c0.008-0.28-0.042-0.532-0.12-0.765
	c0.004-0.001,0.006-0.004,0.009-0.005c2.349-1.309,3.387-1.847,4.738-4.077C510.955,38.22,513.675,31.702,510.703,26.777z
	 M102.845,195.985c1.415-2.054,7.619,0.052,9.9-0.04c3.468-0.14,6.844,0.096,10.267,0.002c1.203-0.033,2.591,0.084,3.713-0.385
	c-0.228,2.492-0.455,4.985-0.681,7.477c-6.997-0.002-13.867-1.297-20.889-1.451c-0.703-0.015-1.408-0.043-2.112-0.075
	C102.622,199.635,101.949,197.285,102.845,195.985z M109.449,238.848c-6.412,0.103-12.988-1.196-19.302-0.582
	c-3.214,0.312-5.96,0.165-9.161-0.098c-3.545-0.293-8.832,1.154-9.816-3.043c-0.498-2.127,0.192-4.968,0.115-7.179
	c-0.128-3.674-0.519-7.334-0.66-11.009c-0.059-1.552-1.023-5.616-0.269-6.868c0.989-1.643,4.326-0.483,5.749-0.361
	c5.871,0.504,12.123-1.641,18.024-1.773c6.838-0.153,13.928-0.369,20.727,0.29c2.026,0.196,4.195,0.314,6.327,0.165
	c0.261,0.072,0.529,0.138,0.8,0.206c1.145,0.29,2.346,0.31,3.541,0.284c-0.095,1.049-0.192,2.098-0.281,3.15
	c-0.744,8.825-0.813,17.947-1.968,26.688c-0.018,0.136-0.042,0.274-0.061,0.411C118.763,239.591,113.757,238.779,109.449,238.848z
	 M156.448,459.766c-0.838,3.438-1.831,6.796-2.31,10.311c-0.676,4.968,0.081,9.093-5.546,10.718
	c-3.765,1.087-7.544,0.407-11.324,0.053c-3.259-0.305-6.672-0.161-9.964-0.252c-8.668-0.24-17.448-0.043-26.093-0.535
	c-2.807-0.16-6.661-0.479-9.439-1.053c-4.496-0.927-3.577-6.774-3.381-10.72c0.398-8.049,1.633-16.513,3.298-24.45
	c2.045-9.752,3.372-20.642,7.991-29.575c1.326-2.562,2.775-3.5,5.489-3.801c1.002-0.112,2.009-0.19,3.018-0.271
	c1.965,0.401,4.198,0.424,6.256,0.535c8.171,0.441,16.337,1.357,24.558,1.43c0.402,0.075,0.813,0.163,1.209,0.227
	c4.097,0.656,8.086-0.5,12.203,0.4c3.327,0.726,5.668-0.134,5.996,3.741c0.369,4.361-0.223,8.992-0.26,13.374
	C158.068,439.583,158.753,450.309,156.448,459.766z M158.143,270.112c-0.001,9.147-0.749,18.234-0.723,27.351
	c0.025,8.941,0.049,17.705-0.656,26.607c-0.662,8.348-0.733,16.728-1.512,25.059c-0.887,9.491,0.417,19.173-0.301,28.686
	c-0.335,4.441-1.037,8.569-0.891,13.052c0.112,3.439,0.894,12.471-2.882,14.5c-0.027,0.015-0.062,0.026-0.091,0.04
	c-1.467-0.097-2.928-0.127-4.547,0.057c-1.486,0.169-2.999,0.296-4.521,0.422c-1.514-0.128-2.909-0.255-3.951-0.241
	c-4.225,0.055-8.36-0.444-12.549-0.882c-4.275-0.447-8.605-0.617-12.839-1.187c-0.332-0.045-2.063-0.128-3.013-0.062
	c0.006-0.019,0.006-0.03,0.013-0.05c0.43-1.171,0.268-3.119,0.469-4.38c1.195-7.525,1.768-15.151,2.613-22.73
	c2.001-17.924,4.021-36.115,6.644-53.93c1.338-9.081,1.734-18.424,3.387-27.422c1.53-8.324,2.575-16.857,3.14-25.313
	c0.667-9.979,2.467-19.721,3.905-29.627c0.58-4.007,0.351-8.023,0.767-12.046c0.46-4.454,0.86-8.967,1.103-13.438
	c0.914-16.82,4.035-34.008,3.13-50.876c3.768,0.526,7.493,1.333,11.356,1.5c5.246,0.228,10.422,0.287,15.665,0.107
	C157.714,200.004,158.149,235.155,158.143,270.112z M144.195,158.625c-2.901-0.203-5.641-0.833-8.478-1.288
	c-2.987-0.479-6.036-0.055-9.054-0.415c-4.63-0.554-3.92-2.53-3.107-6.542c0.329-1.624,0.332-2.836,0.028-4.159
	c1.038-0.014,2.076-0.043,3.117-0.044c15.964-0.025,31.88-0.542,47.783-0.756c0.145,2.62,0.269,5.314-0.385,7.87
	c-0.781,3.052-1.301,4.427-4.776,4.804c-1.336,0.145-2.689,0.33-4.024,0.452C158.364,159.187,151.16,159.113,144.195,158.625z
	 M181.662,145.336c0.255-0.001,0.51-0.008,0.765-0.009c10.47-0.053,20.875,0.209,31.337,0.381c3.969,0.065,7.793-0.263,11.728-0.177
	c0.643,0.014,1.283-0.017,1.92-0.063c-0.611,3.662-0.681,7.425-0.293,11.089c0.516,4.891-0.088,9.699,0.642,14.599
	c1.517,10.177,3.513,20.327,4.661,30.526c-0.404,0.024-0.805,0.057-1.206,0.095c-5.723-0.221-11.527-0.348-17.059,0.331
	c-6.425,0.789-12.77,0.291-19.148,0.236c0.618-4.614,0.349-11.203-4.485-12.282c-4.566-1.019-9.828,0.174-14.369,0.769
	c-1.336,0.174-2.72,0.394-4.104,0.654c-2.053,0.246-4.119,0.532-6.087,0.98c0.017-0.242,0.033-0.483,0.051-0.724
	c0.644-8.643,1.067-17.322,2.04-25.924c0.249-0.23,0.446-0.494,0.582-0.789c2.197-0.191,4.359-0.553,6.241-1.314
	C181.631,160.982,181.681,151.741,181.662,145.336z M187.978,202.562c-0.326,0.02-0.653,0.034-0.98,0.066
	c-6.132,0.599-13.438-0.754-19.733,0.538c-0.218,0.023-0.436,0.033-0.654,0.062c-0.115,0.015-0.78,0.195-1.437,0.377
	c0.133-1.97,0.277-3.933,0.42-5.897c4.928,0.767,10.386-1.099,15.217-1.588c1.651-0.167,5.568-0.941,6.84,0.056
	C189.291,197.464,188.016,200.448,187.978,202.562z M347.901,239.256c-1.144-0.025-2.317,0.159-3.464,0.306
	c-1.494-0.25-2.982-0.443-4.324-0.663c-3.661-0.602-7.352-0.169-11.035-0.116c-8.74,0.123-17.594,0.85-26.278,0.748
	c-9.208-0.108-18.322-0.885-27.519-0.765c-3.619,0.047-7.179,0.072-10.765-0.081c-3.76-0.463-7.793-0.469-11.572-0.084
	c-1.238-0.103-2.501-0.066-3.795,0.011c-4.153,0.248-8.249,0.208-12.427,0.153c-9.197-0.12-18.311,0.657-27.519,0.765
	c-8.684,0.102-17.538-0.624-26.278-0.748c-3.683-0.052-7.374-0.485-11.035,0.116c-2.395,0.393-5.258,0.672-7.783,1.417
	c-0.052-5.157-0.077-10.312,0.036-15.465c0.107-4.859,0.338-9.739,0.62-14.619c1.737,0.293,4.172,0.163,6.444-0.152
	c5.388,0.533,11.307,0.046,15.794-0.296c3.981-0.304,7.541-0.633,11.545-0.21c4.356,0.459,8.958,0.617,13.315,0.197
	c8.391-0.811,16.76-0.589,25.211-0.746c2.51-0.046,5.633,0.026,8.567-0.409c4.408,0.145,8.935,0.347,13.331,0.166
	c2.191-0.09,4.361-0.165,6.536-0.216c0.459,0.047,0.915,0.097,1.377,0.14c2.781,0.352,5.691,0.275,8.052,0.32
	c8.452,0.158,16.82-0.064,25.211,0.747c4.356,0.421,8.959,0.262,13.315-0.197c4.004-0.423,7.565-0.094,11.545,0.21
	c4.45,0.339,10.312,0.822,15.666,0.31c2.172,0.282,4.363,0.252,6.576,0.21c0.279,4.856,0.509,9.712,0.615,14.548
	C347.965,229.65,347.946,234.453,347.901,239.256z M233.592,147.491c0.057-0.992,0.076-1.989,0.064-2.971
	c0.61-0.109,1.219-0.22,1.832-0.314c6.533-0.011,13.223,0.141,19.689,0.545c6.95,0.434,13.965,0.438,20.919,0.07
	c0.934-0.05,1.931-0.062,2.962-0.064c-1.323,3.852-0.83,8.617-1.314,12.504c-0.611,4.906-0.103,9.716-0.981,14.642
	c-1.692,9.5-3.366,19.062-4.537,28.608c-0.325,0.508-0.521,1.074-0.591,1.653c-0.123,0.012-0.248,0.025-0.371,0.038
	c-0.208-0.004-0.413-0.009-0.622-0.013c-1.253-0.019-2.503-0.078-3.751-0.154c-0.279-0.107-0.56-0.206-0.87-0.233
	c-0.974-0.081-1.886-0.113-2.737-0.012c-2.326-0.165-4.655-0.314-7-0.297c-5.358,0.04-10.708,0.068-16.051,0.084
	c-0.102-0.37-0.24-0.733-0.453-1.066c-1.171-9.545-2.845-19.107-4.537-28.608c-0.878-4.925-0.371-9.735-0.981-14.642
	C233.883,154.253,234.089,150.721,233.592,147.491z M284.585,145.466c0.637,0.046,1.277,0.077,1.92,0.063
	c3.935-0.085,7.759,0.242,11.728,0.177c10.463-0.172,20.869-0.434,31.337-0.381c0.255,0.001,0.51,0.008,0.765,0.009
	c-0.019,6.406,0.031,15.647,6.781,18.376c1.882,0.761,4.045,1.123,6.241,1.314c0.134,0.294,0.331,0.559,0.582,0.789
	c0.973,8.602,1.397,17.281,2.04,25.924c0.018,0.241,0.034,0.482,0.051,0.724c-1.968-0.449-4.034-0.735-6.087-0.98
	c-1.384-0.261-2.768-0.479-4.104-0.654c-4.541-0.595-9.803-1.789-14.369-0.769c-4.834,1.079-5.103,7.668-4.485,12.282
	c-6.378,0.055-12.722,0.553-19.148-0.236c-5.926-0.728-12.166-0.532-18.283-0.284c1.145-10.246,3.153-20.443,4.677-30.668
	c0.73-4.899,0.126-9.708,0.642-14.599C285.267,152.891,285.196,149.129,284.585,145.466z M346.406,197.708
	c0.145,1.996,0.292,3.992,0.426,5.995c-6.72-2.171-15.005-0.408-21.831-1.075c-0.328-0.032-0.654-0.046-0.98-0.066
	c-0.038-2.114-1.311-5.097,0.328-6.385c1.27-0.998,5.188-0.223,6.84-0.056C336.021,196.609,341.478,198.476,346.406,197.708z
	 M406.833,410.459c2.714,0.301,4.163,1.239,5.489,3.801c4.619,8.933,5.946,19.823,7.991,29.575
	c1.664,7.937,2.899,16.403,3.298,24.45c0.196,3.947,1.114,9.793-3.381,10.72c-2.777,0.573-6.632,0.892-9.439,1.053
	c-8.646,0.493-17.426,0.296-26.093,0.535c-3.292,0.09-6.707-0.052-9.964,0.252c-3.78,0.354-7.56,1.034-11.324-0.053
	c-5.627-1.625-4.869-5.75-5.546-10.718c-0.478-3.515-1.472-6.873-2.31-10.311c-2.306-9.455-1.62-20.183-1.701-29.869
	c-0.037-4.382-0.628-9.013-0.26-13.374c0.328-3.875,2.669-3.014,5.996-3.741c4.117-0.9,8.106,0.258,12.203-0.4
	c0.396-0.064,0.807-0.152,1.209-0.227c8.222-0.072,16.388-0.987,24.558-1.43c2.058-0.112,4.29-0.134,6.256-0.535
	C404.824,410.27,405.832,410.349,406.833,410.459z M417.873,207.934c5.9,0.133,12.152,2.277,18.023,1.773
	c1.423-0.122,4.76-1.281,5.749,0.361c0.754,1.252-0.21,5.316-0.269,6.868c-0.141,3.674-0.532,7.334-0.66,11.009
	c-0.077,2.21,0.614,5.052,0.115,7.179c-0.984,4.197-6.272,2.75-9.817,3.043c-3.201,0.265-5.947,0.412-9.161,0.098
	c-6.313-0.615-12.89,0.686-19.302,0.582c-4.308-0.07-9.314,0.743-13.764,0.28c-0.019-0.138-0.043-0.274-0.061-0.411
	c-1.155-8.741-1.224-17.862-1.968-26.688c-0.125-1.485-0.267-2.967-0.398-4.451c3.41,1.113,7.308,0.983,10.784,0.646
	C403.944,207.565,411.035,207.781,417.873,207.934z M388.988,195.947c3.423,0.094,6.799-0.142,10.267-0.002
	c2.282,0.091,8.486-2.014,9.9,0.04c0.896,1.301,0.223,3.651-0.199,5.529c-0.705,0.032-1.41,0.059-2.113,0.075
	c-7.023,0.154-13.893,1.448-20.889,1.451c-0.227-2.492-0.452-4.985-0.681-7.477C386.398,196.031,387.784,195.913,388.988,195.947z
	 M381.393,228.017c0.417,4.023,0.186,8.039,0.768,12.046c1.436,9.906,3.236,19.647,3.903,29.627
	c0.565,8.456,1.612,16.989,3.14,25.313c1.653,8.998,2.05,18.341,3.387,27.422c2.623,17.815,4.644,36.006,6.644,53.93
	c0.845,7.578,1.418,15.204,2.613,22.73c0.201,1.262,0.039,3.209,0.469,4.38c0.007,0.02,0.007,0.03,0.013,0.05
	c-0.951-0.065-2.681,0.018-3.013,0.062c-4.233,0.571-8.564,0.739-12.839,1.187c-4.189,0.438-8.324,0.936-12.549,0.882
	c-1.041-0.013-2.436,0.113-3.951,0.241c-1.522-0.128-3.035-0.254-4.521-0.422c-1.618-0.184-3.08-0.154-4.547-0.057
	c-0.028-0.014-0.063-0.025-0.091-0.04c-3.775-2.031-2.993-11.062-2.882-14.5c0.146-4.483-0.557-8.61-0.891-13.052
	c-0.717-9.513,0.585-19.195-0.301-28.686c-0.779-8.331-0.851-16.711-1.512-25.059c-0.705-8.902-0.681-17.665-0.656-26.607
	c0.026-9.117-0.722-18.204-0.723-27.351c-0.006-34.956,0.43-70.108-3.715-104.801c5.242,0.18,10.418,0.12,15.665-0.107
	c3.863-0.167,7.588-0.974,11.356-1.5c-0.907,16.869,2.216,34.055,3.13,50.876C380.534,219.05,380.933,223.563,381.393,228.017z
	 M385.336,156.922c-3.017,0.361-6.067-0.064-9.054,0.415c-2.836,0.455-5.577,1.085-8.477,1.288
	c-6.965,0.488-14.169,0.561-21.106-0.077c-1.335-0.123-2.688-0.307-4.024-0.452c-3.475-0.377-3.995-1.752-4.776-4.804
	c-0.654-2.555-0.529-5.248-0.385-7.87c15.903,0.214,31.819,0.731,47.783,0.756c1.042,0.001,2.078,0.03,3.118,0.044
	c-0.304,1.322-0.3,2.534,0.028,4.159C389.256,154.391,389.967,156.368,385.336,156.922z M440.356,114.063
	c-3.179,6.342-6.549,13.031-10.032,19.058c-3.011,5.21-8.012,4.556-13.508,4.361c-4.312-0.153-8.296,0.115-12.549,0.59
	c-8.554,0.954-17.727-0.052-26.354-0.038c-17.639,0.028-35.142-0.875-52.74-0.643c-9.742,0.128-19.496,1.113-29.226,1.092
	c-3.594-0.008-7.142-0.204-10.692-0.268c-10.295-0.714-21.012,0.292-31.093-0.131c-7.088-0.297-14.602-0.472-21.674-0.186
	c-4.557,0.184-9.941-0.025-14.937,0.565c-0.5,0.007-0.998,0.019-1.499,0.02c-9.731,0.021-19.484-0.962-29.226-1.092
	c-17.597-0.233-35.1,0.671-52.739,0.643c-8.627-0.014-17.8,0.992-26.354,0.038c-4.253-0.475-8.238-0.743-12.549-0.59
	c-5.496,0.195-10.497,0.849-13.508-4.361c-3.483-6.028-6.851-12.717-10.032-19.058c-1.708-3.406-3.252-6.781-5.199-9.835
	c2.664,0.407,5.322,0.763,7.954,1.076c10.171,1.214,20.045,3.489,30.17,4.77c10.513,1.328,20.831,3.464,31.418,4.434
	c9.982,0.914,20.011,2.633,30.05,2.495c11.018-0.152,21.961-0.198,32.975,0.304c7.584,0.345,14.887,0.207,22.101-1.075
	c2.416,0.014,4.83,0.026,7.254,0.047c10.36,0.091,20.688,0.277,31.06,0.298c9.607,0.019,19.179,0.497,28.787,0.517
	c3.153,0.007,6.305,0.009,9.458,0.018c5.015,0.434,10.1,0.432,15.318,0.193c11.015-0.502,21.957-0.455,32.975-0.304
	c10.039,0.139,20.069-1.581,30.05-2.495c10.587-0.97,20.905-3.106,31.418-4.434c10.126-1.279,19.999-3.556,30.17-4.77
	c2.632-0.314,5.29-0.669,7.954-1.076C443.608,107.282,442.064,110.657,440.356,114.063z M486.783,74.791
	c-0.597,3.937-2.768,10.881-6.355,13.043c-3.566,2.149-8.588,2.352-12.522,3.632c-4.751,1.544-9.272,2.679-14.213,3.444
	c-18.049,2.797-36.131,5.737-54.079,9.008c-18.913,3.446-39.128,5.887-58.319,5.424c-9.364-0.225-18.694,0.094-28.042,0.463
	c-8.146-1.227-17.575,0.034-25.04,0.046c-9.98,0.017-19.922-0.428-29.901-0.408c-9.998,0.02-19.958-0.256-29.945-0.169
	c-7.271,0.064-15.489-0.309-23.023,0.755c-1.352-0.033-2.7-0.072-4.042-0.126c-10.203-0.409-20.38-0.808-30.596-0.563
	c-19.192,0.463-39.405-1.977-58.319-5.424c-17.949-3.271-36.03-6.209-54.079-9.008c-4.941-0.765-9.461-1.9-14.213-3.444
	c-3.933-1.278-8.956-1.481-12.522-3.632c-3.588-2.162-5.76-9.106-6.355-13.043c-0.393-2.594-1.18-3.839-2.05-5.722
	c2.146,0.637,4.289,1.283,6.505,1.739c4.06,0.836,7.725,2.491,11.705,3.554c4.473,1.195,9.288,1.677,13.858,2.45
	c9.323,1.577,18.578,3.38,27.89,5.011c8.262,1.447,16.386,3.175,24.665,4.613c8.801,1.529,17.439,2.406,26.298,3.435
	c9.501,1.104,18.732,3.971,28.274,4.572c8.652,0.544,17.112,2.181,25.831,2.136c9.105-0.047,17.979,1.215,27.084,1.069
	c2.277-0.037,4.992-0.125,7.73-0.457c2.186-0.084,4.338-0.197,6.406-0.265c9.059-0.294,18.297-0.106,27.357,0.266
	c8.02,0.329,16.257,0.309,24.32,0.269c3.128-0.015,6.259-0.026,9.384-0.113c2.224,0.204,4.383,0.269,6.249,0.299
	c9.105,0.147,17.978-1.116,27.084-1.069c8.719,0.045,17.179-1.593,25.831-2.136c9.542-0.599,18.773-3.468,28.274-4.572
	c8.859-1.029,17.498-1.906,26.298-3.435c8.28-1.438,16.403-3.166,24.665-4.613c9.312-1.631,18.566-3.433,27.89-5.011
	c4.57-0.773,9.386-1.254,13.858-2.45c3.98-1.063,7.645-2.719,11.705-3.554c2.216-0.456,4.359-1.101,6.505-1.739
	C487.963,70.952,487.176,72.197,486.783,74.791z M495.551,58.705c-1.362,2.626-1.631,2.65-4.326,3.122
	c-1.695,0.297-3.089,0.806-4.722,1.351c-9.503,3.168-19.44,5.36-29.312,7.084c-20.411,3.564-40.72,7.188-61.081,10.839
	c-10.522,1.887-21.269,1.886-31.812,3.88c-10.339,1.955-20.643,2.859-31.085,4.075c-4.854,0.566-9.78,0.198-14.651,0.268
	c-4.121,0.059-8.175,0.803-12.255,1.055c-8.253-1.429-16.887-0.3-25.218-0.332c-8.088-0.031-16.244-0.12-24.32-0.236
	c-9.079-0.129-18.294-0.388-27.357,0.094c-1.766,0.094-3.583,0.125-5.422,0.142c-1.294-0.166-2.562-0.271-3.754-0.164
	c-1.311,0.117-2.606,0.19-3.903,0.271c-1.105,0.038-2.207,0.093-3.302,0.174c-1.45,0.058-2.898,0.116-4.371,0.138
	c-5.09,0.076-10.106-1.068-15.225-1.142c-4.871-0.071-9.797,0.297-14.651-0.268c-10.441-1.216-20.745-2.121-31.085-4.075
	c-10.544-1.994-21.29-1.993-31.812-3.88c-20.361-3.651-40.67-7.275-61.081-10.839c-9.871-1.723-19.809-3.915-29.312-7.084
	c-1.632-0.545-3.028-1.054-4.722-1.351c-2.695-0.471-2.963-0.495-4.326-3.122c-1.399-2.696-2.283-6.034-2.93-9.211
	c1.98,1.107,3.992,2.155,6.124,2.994c4.108,1.616,8.119,3.475,12.23,5.077c4.129,1.609,8.4,2.06,12.686,3.054
	c9.065,2.101,18.662,2.155,27.648,4.442c13.858,3.527,28.266,4.252,42.496,5.678c8.793,0.881,17.736,1.83,26.403,3.427
	c9.627,1.774,20.132,3.392,29.927,3.451c9.418,0.058,18.684,0.77,28.139,0.77c9.779,0,19.576,0.14,29.355-0.134
	c8.938,1.015,18.557,0.239,27.205,0.258c7.571,0.015,15.564,0.407,23.289-0.415c11.257,0.478,22.546,0.291,33.812,0.291
	c9.455,0,18.721-0.712,28.138-0.77c9.796-0.061,20.3-1.678,29.927-3.451c8.667-1.596,17.61-2.547,26.403-3.427
	c14.23-1.424,28.637-2.15,42.496-5.678c8.986-2.287,18.583-2.342,27.648-4.442c4.286-0.993,8.556-1.444,12.686-3.054
	c4.111-1.602,8.122-3.461,12.23-5.077c2.132-0.839,4.144-1.886,6.124-2.994C497.835,52.672,496.951,56.01,495.551,58.705z
	 M504.687,35.613c-2.121,5.636-9.498,8.509-15.066,10.688c-7.798,3.051-14.987,5.693-23.197,7.376
	c-8.735,1.791-17.714,2.35-26.45,4.083c-6.082,1.206-12.073,2.942-18.242,3.61c-7.294,0.79-14.721,1.015-21.987,1.867
	c-6.868,0.806-13.802,2.065-20.717,2.634c-7.542,0.621-15.032,2.089-22.546,3.177c-8.474,1.227-16.974,0.641-25.381,1.743
	c-17.26,2.263-35.318,0.127-52.795,0.833c-7.733-0.097-15.437,0.093-23.267,0.26c-13.213,0.282-26.436-0.571-39.692-0.278
	c-11.479,0.254-23.03,0.681-34.447-0.815c-8.408-1.103-16.908-0.516-25.381-1.743c-7.514-1.088-15.002-2.555-22.546-3.177
	c-6.914-0.57-13.849-1.829-20.717-2.634c-7.266-0.852-14.694-1.076-21.987-1.867c-6.169-0.668-12.161-2.404-18.242-3.61
	c-8.735-1.733-17.715-2.292-26.45-4.083c-8.21-1.683-15.399-4.325-23.197-7.376c-5.57-2.179-12.947-5.052-15.066-10.688
	c-2.169-5.764,2.732-4.106,5.888-3.236c3.96,1.092,7.806,2.567,11.703,3.858c4.067,1.347,8.162,2.613,12.184,4.093
	c4.573,1.683,9.461,2.358,13.928,4.178c7.003,2.852,14.51,3.495,21.693,5.744c6.805,2.131,13.997,3.662,20.956,5.285
	c7.906,1.843,15.843,2.433,23.861,3.569c8.452,1.197,16.866,2.352,25.386,3.024c8.145,0.643,16.258,1.444,24.418,1.949
	c4.288,0.265,8.518,0.593,12.807,0.908c5.305,0.389,10.787,0.064,16.024,0.806c6.716,0.952,13.448-0.017,20.184,0.078
	c7.593,0.107,15.424-0.431,22.938,0.338c7.489,0.767,15.255-0.531,22.803-0.463c8.925,0.077,17.876,0.217,26.725-0.714
	c8.978,0.286,18.089,2.028,27.023,0.761c5.237-0.743,10.719-0.417,16.024-0.806c4.289-0.315,8.519-0.643,12.807-0.908
	c8.16-0.503,16.273-1.305,24.418-1.949c8.52-0.673,16.933-1.826,25.386-3.024c8.018-1.136,15.954-1.726,23.861-3.569
	c6.959-1.622,14.151-3.155,20.958-5.285c7.185-2.249,14.69-2.893,21.693-5.744c4.467-1.819,9.354-2.495,13.928-4.178
	c4.022-1.48,8.116-2.747,12.184-4.093c3.899-1.291,7.743-2.766,11.703-3.858C501.955,31.506,506.857,29.848,504.687,35.613z"/>
<path d="M242.757,180.28c0.268,4.259-0.818,12.33,2.903,15.478c3.462,2.931,12.425,3.111,16.524,2.41
	c5.546-0.949,6.432-5.793,7.192-10.592c0.974-6.154,1.023-12.427,1.697-18.633c0.481-4.429,3.514-13.314-0.061-16.975
	c-2.078-2.129-5.821-2.294-8.582-2.413c-4.646-0.198-9.475,0.007-14.105,0.366c-6.252,0.483-9.077,2.49-8.508,8.812
	C239.479,166.065,242.298,173.007,242.757,180.28z M243.498,159.638c0.433-5.306,3.759-4.795,8.007-5.004
	c3.317-0.163,6.652-0.348,9.975-0.231c4.619,0.161,6.415,0.699,5.781,6.047c-0.311,2.622-0.638,5.236-0.891,7.864
	c-0.495,5.141-0.649,10.324-1.112,15.451c-0.296,3.278-0.374,6.638-3.088,8.559c-2.623,1.856-5.926,1.176-9.068,0.85
	c-4.414-0.458-4.998-1.686-5.577-5.707c-0.369-2.565-0.542-5.148-0.9-7.709c-0.875-6.252-3.137-12.342-3.49-18.668
	c-0.007-0.126-0.014-0.248-0.021-0.371C243.32,160.444,243.462,160.085,243.498,159.638z"/>
<g>
</g>
<g>
</g>
<g>
</g>
<g>
</g>
<g>
</g>
<g>
</g>
<g>
</g>
<g>
</g>
<g>
</g>
<g>
</g>
<g>
</g>
<g>
</g>
<g>
</g>
<g>
</g>
<g>
</g>
</svg>
