<svg width="512" height="512" viewBox="0 0 512 512" fill="none" xmlns="http://www.w3.org/2000/svg">
<g id="clear">
<g id="Group">
<g id="XMLID 31">
<g id="Group_2">
<g id="XMLID 1100">
<g id="XMLID 1101">
<g id="XMLID 1102">
<g id="XMLID 1103">
<g id="XMLID 1104">
<g id="XMLID 1105">
<g id="XMLID 1106">
<g id="XMLID 1107">
<g id="XMLID 1108">
<g id="XMLID 1109">
<g id="XMLID 1307">
<g id="XMLID 1371">
<g id="XMLID 1618">
<g id="XMLID 1740">
<path id="Vector" d="M256 512C397.385 512 512 397.385 512 256C512 114.615 397.385 0 256 0C114.615 0 0 114.615 0 256C0 397.385 114.615 512 256 512Z" fill="#00337A"/>
</g>
</g>
</g>
</g>
</g>
</g>
</g>
</g>
</g>
</g>
</g>
</g>
</g>
</g>
</g>
</g>
<path id="Vector_2" d="M512 256C512 235.756 509.64 216.065 505.198 197.176L410.011 101.989L347.5 128L256 38.196L243 181L38.195 256L147.25 363.75L101.988 410.011L197.175 505.198C216.065 509.64 235.756 512 256 512C397.385 512 512 397.385 512 256Z" fill="#002659"/>
<path id="Vector_3" d="M473.807 256L472.478 255.15C444.729 237.403 437.24 200.176 455.969 173.08L456.866 171.782C424.218 166.111 402.898 134.352 410.013 101.988C377.001 109.246 344.555 87.6669 338.484 54.4169C311.389 73.4919 273.856 66.1109 256.003 38.1949L255.153 39.5239C237.406 67.2729 200.179 74.7619 173.083 56.0329L171.785 55.1359C166.114 87.7829 134.355 109.104 101.992 101.989L102.331 103.529C109.404 135.699 88.375 167.318 55.972 173.235L54.42 173.518C73.495 200.614 66.114 238.147 38.198 256L39.527 256.85C67.276 274.597 74.764 311.824 56.036 338.92L55.139 340.218C87.787 345.889 109.107 377.648 101.992 410.012L103.532 409.673C135.702 402.6 167.321 423.629 173.238 456.032L173.521 457.584C200.616 438.508 238.149 445.89 256.002 473.806L256.852 472.477C274.599 444.728 311.826 437.24 338.922 455.968L340.22 456.865C345.891 424.218 377.65 402.897 410.014 410.012L409.675 408.471C402.602 376.301 423.631 344.682 456.034 338.765L457.586 338.482C438.509 311.386 445.891 273.853 473.807 256Z" fill="#FFB522"/>
<path id="Vector_4" d="M446.98 305.06C446.98 316.61 450.41 328.28 457.59 338.48L456.03 338.76C423.63 344.68 402.6 376.3 409.67 408.47L410.01 410.01C405.8 409.08 401.6 408.64 397.46 408.64C369.83 408.64 345.15 428.47 340.22 456.86L338.92 455.97C311.83 437.24 274.6 444.73 256.85 472.48L256 473.8V38.2C267.14 55.61 285.93 65.0299 305.06 65.0299C316.61 65.0299 328.28 61.5999 338.48 54.4199C343.76 83.3199 368.95 103.4 397.13 103.4C401.37 103.4 405.69 102.94 410.01 101.99C409.08 106.2 408.64 110.4 408.64 114.54C408.64 142.17 428.47 166.85 456.87 171.78L455.97 173.08C437.24 200.18 444.73 237.4 472.48 255.15L473.81 256C456.4 267.13 446.98 285.92 446.98 305.06Z" fill="#FD9827"/>
<g id="Group_3">
<g id="Group_4">
<g id="XMLID 66">
<g id="Group_5">
<g id="XMLID 1111">
<g id="XMLID 1112">
<g id="XMLID 1113">
<g id="XMLID 1160">
<g id="XMLID 1170">
<g id="XMLID 1171">
<g id="XMLID 1282">
<g id="XMLID 1283">
<g id="XMLID 1506">
<g id="XMLID 1586">
<g id="XMLID 1587">
<g id="XMLID 1588">
<g id="XMLID 1589">
<g id="XMLID 1590">
<path id="Vector_5" d="M256 408.665C340.315 408.665 408.665 340.315 408.665 256C408.665 171.685 340.315 103.335 256 103.335C171.685 103.335 103.335 171.685 103.335 256C103.335 340.315 171.685 408.665 256 408.665Z" fill="#FFE05F"/>
</g>
</g>
</g>
</g>
</g>
</g>
</g>
</g>
</g>
</g>
</g>
</g>
</g>
</g>
</g>
</g>
<g id="XMLID 70">
<g id="Group_6">
<g id="XMLID 1284">
<g id="XMLID 1285">
<g id="XMLID 1286">
<g id="XMLID 1287">
<g id="XMLID 1288">
<g id="XMLID 1289">
<g id="XMLID 1304">
<g id="XMLID 1305">
<g id="XMLID 1306">
<g id="XMLID 1474">
<g id="XMLID 1476">
<g id="XMLID 1482">
<g id="XMLID 1489">
<g id="Group_7">
<path id="Vector_6" d="M408.67 256C408.67 324.2 363.93 381.97 302.21 401.55C287.63 406.18 272.11 408.67 256 408.67V103.33C272.11 103.33 287.63 105.82 302.21 110.45C363.93 130.03 408.67 187.8 408.67 256Z" fill="#F9CB0D"/>
</g>
</g>
</g>
</g>
</g>
</g>
</g>
</g>
</g>
</g>
</g>
</g>
</g>
</g>
</g>
</g>
</g>
</g>
</g>
</g>
</svg>
