<svg width="512" height="512" viewBox="0 0 512 512" fill="none" xmlns="http://www.w3.org/2000/svg">
<g id="clouds">
<g id="Group">
<g id="XMLID 239">
<g id="Group_2">
<g id="XMLID 1728">
<g id="XMLID 1732">
<g id="XMLID 1742">
<g id="XMLID 1745">
<g id="XMLID 1836">
<g id="XMLID 1837">
<g id="XMLID 1838">
<g id="XMLID 1839">
<g id="XMLID 1840">
<g id="XMLID 1930">
<g id="XMLID 1931">
<g id="XMLID 1932">
<g id="XMLID 1933">
<g id="XMLID 1934">
<path id="Vector" d="M256 512C397.385 512 512 397.385 512 256C512 114.615 397.385 0 256 0C114.615 0 0 114.615 0 256C0 397.385 114.615 512 256 512Z" fill="#4793FF"/>
</g>
</g>
</g>
</g>
</g>
</g>
</g>
</g>
</g>
</g>
</g>
</g>
</g>
</g>
</g>
</g>
<g id="Group_3">
<g id="XMLID 109">
<g id="Group_4">
<g id="XMLID 1594">
<g id="XMLID 1597">
<g id="XMLID 1598">
<g id="XMLID 1599">
<g id="XMLID 1600">
<g id="XMLID 1602">
<g id="XMLID 1687">
<g id="XMLID 1689">
<g id="XMLID 1720">
<g id="XMLID 1721">
<g id="XMLID 1722">
<g id="XMLID 1723">
<g id="XMLID 1724">
<g id="XMLID 1726">
<path id="Vector_2" d="M256 512C397.385 512 512 397.385 512 256C512 114.615 397.385 0 256 0C114.615 0 0 114.615 0 256C0 397.385 114.615 512 256 512Z" fill="#4793FF"/>
</g>
</g>
</g>
</g>
</g>
</g>
</g>
</g>
</g>
</g>
</g>
</g>
</g>
</g>
</g>
</g>
<path id="Vector_3" d="M512 256C512 239.212 510.366 222.808 507.281 206.922L429.309 122.023C429.309 122.023 281 87 271 149.667C261 212.333 69.407 356.458 69.407 356.458L222.81 509.861C233.675 511.268 244.752 512 256 512C397.385 512 512 397.385 512 256Z" fill="#424FDD"/>
<path id="Vector_4" d="M345.953 298.016C405.436 298.016 453.657 249.795 453.657 190.312C453.657 130.829 405.436 82.608 345.953 82.608C286.47 82.608 238.249 130.829 238.249 190.312C238.249 249.795 286.47 298.016 345.953 298.016Z" fill="#FFEA92"/>
<path id="Vector_5" d="M453.66 190.31C453.66 249.8 405.44 298.02 345.95 298.02V82.61C405.44 82.61 453.66 130.83 453.66 190.31Z" fill="#FFDD50"/>
<g id="Group_5">
<g id="Group_6">
<path id="Vector_6" d="M333.483 244.515C330.871 244.515 328.3 244.683 325.767 244.977C326.016 242.14 326.151 239.27 326.151 236.368C326.151 182.655 282.608 139.111 228.894 139.111C184.159 139.111 146.484 169.316 135.137 210.443C131.534 209.969 127.86 209.721 124.128 209.721C77.965 209.721 40.543 247.143 40.543 293.306C40.543 339.469 77.965 376.891 124.128 376.891H333.483C370.038 376.891 399.671 347.258 399.671 310.703C399.671 274.148 370.038 244.515 333.483 244.515Z" fill="white"/>
<g id="Group_7">
<path id="Vector_7" d="M399.671 310.7C399.671 347.257 370.039 376.889 333.482 376.889H220.107V139.504C223.002 139.238 225.932 139.109 228.896 139.109C282.611 139.109 326.153 182.651 326.153 236.366C326.153 239.27 326.016 242.139 325.766 244.975C328.3 244.683 330.869 244.511 333.481 244.511C370.039 244.51 399.671 274.151 399.671 310.7Z" fill="#DAEFEC"/>
</g>
</g>
</g>
</g>
</g>
</g>
</svg>
