<svg width="512" height="512" viewBox="0 0 512 512" fill="none" xmlns="http://www.w3.org/2000/svg">
<g id="drizzle">
<g id="Group">
<g id="XMLID 112">
<g id="Group_2">
<g id="XMLID 1004">
<g id="XMLID 1005">
<g id="XMLID 1006">
<g id="XMLID 1007">
<g id="XMLID 1008">
<g id="XMLID 1009">
<g id="XMLID 1024">
<g id="XMLID 1077">
<g id="XMLID 1078">
<g id="XMLID 1079">
<g id="XMLID 1081">
<g id="XMLID 1518">
<g id="XMLID 1529">
<g id="XMLID 1566">
<path id="Vector" d="M256 512C397.385 512 512 397.385 512 256C512 114.615 397.385 0 256 0C114.615 0 0 114.615 0 256C0 397.385 114.615 512 256 512Z" fill="#00337A"/>
</g>
</g>
</g>
</g>
</g>
</g>
</g>
</g>
</g>
</g>
</g>
</g>
</g>
</g>
</g>
</g>
<path id="Vector_2" d="M512 256C512 248.19 511.63 240.468 510.946 232.836L347.871 69.761L87.571 276.518L137.365 326.312C137.557 326.523 104.485 368.386 104.485 368.386L153.844 417.657L129.769 440.791L193.216 504.232C213.307 509.298 234.337 512 256 512C397.385 512 512 397.385 512 256Z" fill="#002659"/>
<g id="Group_3">
<g id="Group_4">
<g id="Group_5">
<g id="Group_6">
<path id="Vector_3" d="M384.924 152.691C382 152.691 379.122 152.879 376.286 153.208C376.565 150.032 376.715 146.819 376.715 143.57C376.715 83.4379 327.968 34.6909 267.836 34.6909C217.755 34.6909 175.578 68.5059 162.875 114.547C158.842 114.016 154.729 113.738 150.55 113.738C98.871 113.738 56.977 155.632 56.977 207.311C56.977 258.99 98.871 300.884 150.55 300.884H384.923C425.846 300.884 459.021 267.709 459.021 226.786C459.021 185.863 425.847 152.691 384.924 152.691Z" fill="white"/>
<g id="Group_7">
<path id="Vector_4" d="M459.022 226.785C459.022 267.711 425.849 300.884 384.923 300.884H258V35.1319C261.241 34.8339 264.521 34.6899 267.84 34.6899C327.973 34.6899 376.719 83.4349 376.719 143.569C376.719 146.82 376.565 150.032 376.286 153.207C379.123 152.88 381.999 152.688 384.923 152.688C425.848 152.686 459.022 185.869 459.022 226.785Z" fill="#DAEFEC"/>
</g>
</g>
</g>
<g id="Group_8">
<path id="Vector_5" d="M141.637 325.801V351.927C141.637 361.013 136.105 369.184 127.669 372.559C118.112 376.382 107.18 373.14 101.251 364.726C93.682 353.983 98.808 338.982 111.368 335.117L141.637 325.801Z" fill="#51EAF2"/>
<path id="Vector_6" d="M227.975 325.801V351.927C227.975 361.013 222.443 369.184 214.007 372.559C204.45 376.382 193.518 373.14 187.589 364.726C180.02 353.983 185.146 338.982 197.706 335.117L227.975 325.801Z" fill="#51EAF2"/>
<g id="Group_9">
<path id="Vector_7" d="M314.314 325.801V351.927C314.314 361.013 308.782 369.184 300.346 372.559C290.789 376.382 279.857 373.14 273.928 364.726C266.359 353.983 271.485 338.982 284.045 335.117L314.314 325.801Z" fill="#22C2D3"/>
<path id="Vector_8" d="M400.652 325.801V351.927C400.652 361.013 395.12 369.184 386.684 372.559C377.127 376.382 366.195 373.14 360.266 364.726C352.697 353.983 357.823 338.982 370.383 335.117L400.652 325.801Z" fill="#22C2D3"/>
</g>
</g>
</g>
<path id="Vector_9" d="M167.386 398.641V424.767C167.386 433.853 161.854 442.024 153.418 445.399C143.861 449.222 132.929 445.98 127 437.566C119.431 426.823 124.557 411.822 137.117 407.957L167.386 398.641Z" fill="#51EAF2"/>
<path id="Vector_10" d="M253.724 398.641V424.767C253.724 433.853 248.192 442.024 239.756 445.399C230.199 449.222 219.267 445.98 213.338 437.566C205.769 426.823 210.895 411.822 223.455 407.957L253.724 398.641Z" fill="#51EAF2"/>
<path id="Vector_11" d="M340.062 398.641V424.767C340.062 433.853 334.53 442.024 326.094 445.399C316.537 449.222 305.605 445.98 299.676 437.566C292.107 426.823 297.233 411.822 309.793 407.957L340.062 398.641Z" fill="#22C2D3"/>
</g>
</g>
</g>
</svg>
