<svg width="512" height="512" viewBox="0 0 512 512" fill="none" xmlns="http://www.w3.org/2000/svg">
<g id="haze">
<g id="Group">
<g id="XMLID 568">
<g id="Group_2">
<g id="XMLID 1372">
<g id="XMLID 1373">
<g id="XMLID 1374">
<g id="XMLID 1375">
<g id="XMLID 1376">
<g id="XMLID 1377">
<g id="XMLID 1378">
<g id="XMLID 1405">
<g id="XMLID 1406">
<g id="XMLID 1407">
<g id="XMLID 1408">
<g id="XMLID 1409">
<g id="XMLID 1410">
<g id="XMLID 1427">
<path id="Vector" d="M256 512C397.385 512 512 397.385 512 256C512 114.615 397.385 0 256 0C114.615 0 0 114.615 0 256C0 397.385 114.615 512 256 512Z" fill="#00337A"/>
</g>
</g>
</g>
</g>
</g>
</g>
</g>
</g>
</g>
</g>
</g>
</g>
</g>
</g>
</g>
</g>
<path id="Vector_2" d="M512 256C512 242.323 510.915 228.9 508.85 215.804L397.025 103.631L329.1 107.833L321.111 129.338L387 194C387 194 63.124 228.309 59.395 243.154L320.09 503.91C430.459 475.46 512 375.253 512 256V256Z" fill="#002659"/>
<g id="Group_3">
<g id="Group_4">
<g id="Group_5">
<g id="Group_6">
<path id="Vector_3" d="M335.781 243.154H59.395V196.528H335.78C352.386 196.528 366.932 185.311 371.151 169.25C374.908 154.949 369.749 139.902 358.008 130.915C347.301 122.719 332.475 122.087 321.11 129.337L296.033 90.03C323.85 72.283 360.145 73.835 386.347 93.89C413.057 114.334 424.792 148.564 416.246 181.094C406.649 217.635 373.559 243.154 335.781 243.154V243.154Z" fill="#51EAF2"/>
</g>
</g>
<g id="Group_7">
<path id="Vector_4" d="M337.144 422.345C324.87 422.345 312.569 418.895 301.792 411.928L327.103 372.77C333.707 377.04 342.329 376.661 348.557 371.831C355.816 366.202 358.993 356.732 356.653 347.706C354.061 337.71 345.218 330.727 335.149 330.727H146.901V284.102H335.15C366.462 284.102 393.864 305.445 401.787 336.004C408.808 363.087 399.131 391.611 377.134 408.673C365.428 417.752 351.303 422.343 337.144 422.345V422.345Z" fill="#51EAF2"/>
</g>
</g>
<g id="Group_8">
<g id="Group_9">
<g id="Group_10">
<path id="Vector_5" d="M416.25 181.1C406.65 217.64 373.56 243.15 335.78 243.15H239.2V196.53H335.78C352.39 196.53 366.93 185.31 371.15 169.25C374.91 154.95 369.75 139.9 358.01 130.92C347.3 122.72 332.48 122.09 321.11 129.34L296.03 90.03C323.85 72.28 360.15 73.84 386.35 93.89C413.06 114.34 424.79 148.57 416.25 181.1V181.1Z" fill="#24CEE0"/>
</g>
</g>
<g id="Group_11">
<path id="Vector_6" d="M377.13 408.67C365.43 417.75 351.3 422.34 337.14 422.34C324.87 422.34 312.57 418.89 301.79 411.93L327.1 372.77C333.71 377.04 342.33 376.66 348.56 371.83C355.82 366.2 358.99 356.73 356.65 347.71C354.06 337.71 345.22 330.73 335.15 330.73H239.2V284.1H335.15C366.46 284.1 393.86 305.45 401.79 336C408.81 363.09 399.13 391.61 377.13 408.67V408.67Z" fill="#24CEE0"/>
</g>
</g>
</g>
</g>
</g>
</svg>
