<svg width="512" height="512" viewBox="0 0 512 512" fill="none" xmlns="http://www.w3.org/2000/svg">
<g id="night">
<g id="Group">
<g id="XMLID 17">
<g id="Group_2">
<g id="Group_3">
<path id="Vector" d="M256 512C397.385 512 512 397.385 512 256C512 114.615 397.385 0 256 0C114.615 0 0 114.615 0 256C0 397.385 114.615 512 256 512Z" fill="#4793FF"/>
</g>
</g>
</g>
<g id="Group_4">
<path id="Vector_2" d="M512 256C512 249.472 511.752 243.001 511.272 236.596L382.239 107.563L349.462 96.0559C252.423 61.9899 149.884 130.74 144.548 233.447L135.521 407.184L268.564 511.69C404.112 505.139 512 393.172 512 256V256Z" fill="#424FDD"/>
<g id="Group_5">
<path id="Vector_3" d="M208.208 251.963C208.208 171.666 277.981 106.572 364.051 106.572C370.205 106.572 376.272 106.916 382.24 107.563C347.823 76.578 302.278 57.715 252.323 57.715C145.042 57.715 58.074 144.683 58.074 251.964C58.074 359.245 145.042 446.213 252.323 446.213C302.278 446.213 347.823 427.349 382.24 396.365C376.272 397.012 370.205 397.356 364.051 397.356C277.981 397.354 208.208 332.26 208.208 251.963V251.963Z" fill="#FFF4C5"/>
<g id="Group_6">
<path id="Vector_4" d="M364.05 397.352C370.203 397.352 376.274 397.015 382.243 396.362C347.827 427.35 302.278 446.216 252.322 446.216C248.904 446.216 245.496 446.124 242.119 445.951V342.519C270.668 375.935 314.686 397.352 364.05 397.352Z" fill="#FFEA92"/>
<path id="Vector_5" d="M242.119 161.407V57.975C245.496 57.802 248.904 57.71 252.322 57.71C302.278 57.71 347.827 76.576 382.243 107.564C376.274 106.911 370.203 106.574 364.05 106.574C314.686 106.574 270.668 127.991 242.119 161.407V161.407Z" fill="#FFEA92"/>
</g>
</g>
</g>
</g>
</g>
</svg>
