<svg width="512" height="512" viewBox="0 0 512 512" fill="none" xmlns="http://www.w3.org/2000/svg">
<g id="rain">
<g id="Group">
<g id="XMLID 117">
<g id="Group_2">
<path id="Vector" d="M256 512C397.385 512 512 397.385 512 256C512 114.615 397.385 0 256 0C114.615 0 0 114.615 0 256C0 397.385 114.615 512 256 512Z" fill="#51EAF2"/>
</g>
</g>
<path id="Vector_2" d="M512 256C512 250.338 511.796 244.724 511.434 239.154L350.622 78.342L83.856 290.17L155.161 361.838L129.328 452.666L175.844 499.182C201.061 507.49 228.002 512 256 512C397.385 512 512 397.385 512 256Z" fill="#22C2D3"/>
<g id="Group_3">
<path id="Vector_3" d="M386.228 160.74C383.228 160.74 380.275 160.933 377.366 161.271C377.652 158.012 377.807 154.716 377.807 151.382C377.807 89.6839 327.791 39.6689 266.094 39.6689C214.709 39.6689 171.434 74.3639 158.401 121.605C154.263 121.06 150.043 120.775 145.755 120.775C92.731 120.775 49.746 163.76 49.746 216.784C49.746 269.808 92.731 312.793 145.755 312.793H386.229C428.217 312.793 462.256 278.755 462.256 236.766C462.256 194.777 428.217 160.74 386.228 160.74Z" fill="#4793FF"/>
<g id="Group_4">
<path id="Vector_4" d="M462.255 236.764C462.255 278.755 428.218 312.792 386.227 312.792H256V40.121C259.326 39.815 262.691 39.667 266.096 39.667C327.795 39.667 377.809 89.681 377.809 151.38C377.809 154.716 377.651 158.012 377.365 161.268C380.276 160.933 383.227 160.735 386.227 160.735C428.218 160.735 462.255 194.782 462.255 236.764Z" fill="#424FDD"/>
</g>
</g>
<g id="Group_5">
<g id="Group_6">
<path id="Vector_5" d="M278.224 350.634H308.224V452.667H278.224V350.634Z" fill="#DAEFEC"/>
</g>
<g id="Group_7">
<path id="Vector_6" d="M352.671 350.634H382.671V413.236H352.671V350.634Z" fill="#DAEFEC"/>
</g>
<g id="Group_8">
<path id="Vector_7" d="M129.329 350.634H159.329V452.667H129.329V350.634Z" fill="white"/>
</g>
<g id="Group_9">
<path id="Vector_8" d="M203.776 350.634H233.776V413.236H203.776V350.634Z" fill="white"/>
</g>
</g>
</g>
</g>
</svg>
