<svg width="512" height="512" viewBox="0 0 512 512" fill="none" xmlns="http://www.w3.org/2000/svg">
<g id="snow">
<g id="Group">
<g id="XMLID 29">
<g id="Group_2">
<g id="XMLID 1939">
<g id="XMLID 1941">
<g id="XMLID 1942">
<g id="XMLID 1943">
<g id="XMLID 1944">
<g id="XMLID 1945">
<g id="XMLID 1946">
<g id="XMLID 1947">
<g id="XMLID 1948">
<g id="XMLID 1949">
<g id="XMLID 1950">
<g id="XMLID 1951">
<g id="XMLID 1952">
<g id="XMLID 1953">
<path id="Vector" d="M256 512C397.385 512 512 397.385 512 256C512 114.615 397.385 0 256 0C114.615 0 0 114.615 0 256C0 397.385 114.615 512 256 512Z" fill="#4793FF"/>
</g>
</g>
</g>
</g>
</g>
</g>
</g>
</g>
</g>
</g>
</g>
</g>
</g>
</g>
</g>
</g>
<path id="Vector_2" d="M512 256C512 246.655 511.485 237.431 510.509 228.346L347.148 64.985L86.795 271.795L149.359 335.893L120.111 371.997L169.384 421.283C161.052 424.818 153.022 449.8 153.022 449.8L211.331 508.109C225.836 510.661 240.761 512 256 512C397.385 512 512 397.385 512 256Z" fill="#424FDD"/>
<g id="Group_3">
<g id="Group_4">
<g id="Group_5">
<path id="Vector_3" d="M384.924 148.691C382 148.691 379.122 148.879 376.286 149.208C376.565 146.032 376.715 142.819 376.715 139.57C376.715 79.4379 327.968 30.6909 267.836 30.6909C217.755 30.6909 175.578 64.5059 162.875 110.548C158.842 110.017 154.729 109.739 150.55 109.739C98.871 109.739 56.9771 151.633 56.9771 203.312C56.9771 254.991 98.871 296.885 150.55 296.885H384.923C425.846 296.885 459.021 263.71 459.021 222.787C459.021 181.864 425.847 148.691 384.924 148.691V148.691Z" fill="white"/>
<g id="Group_6">
<path id="Vector_4" d="M459.022 222.785C459.022 263.711 425.849 296.884 384.923 296.884H258V31.1319C261.241 30.8339 264.521 30.6899 267.839 30.6899C327.972 30.6899 376.718 79.4349 376.718 139.569C376.718 142.82 376.564 146.032 376.285 149.207C379.122 148.88 381.998 148.688 384.922 148.688C425.848 148.686 459.022 181.869 459.022 222.785V222.785Z" fill="#DAEFEC"/>
</g>
</g>
</g>
<g id="Group_7">
<path id="Vector_5" d="M156.865 357.087C158.907 344.413 150.288 332.484 137.614 330.442C124.94 328.401 113.011 337.02 110.969 349.693C108.928 362.367 117.547 374.296 130.22 376.338C142.894 378.38 154.823 369.761 156.865 357.087Z" fill="white"/>
<path id="Vector_6" d="M245.933 357.112C247.975 344.438 239.356 332.509 226.682 330.467C214.009 328.426 202.079 337.045 200.038 349.718C197.996 362.392 206.615 374.321 219.289 376.363C231.962 378.404 243.892 369.785 245.933 357.112Z" fill="white"/>
<g id="Group_8">
<path id="Vector_7" d="M335.264 357.513C337.498 344.865 329.056 332.801 316.408 330.566C303.76 328.332 291.696 336.774 289.461 349.422C287.227 362.07 295.669 374.135 308.317 376.369C320.965 378.603 333.03 370.161 335.264 357.513Z" fill="#DAEFEC"/>
<path id="Vector_8" d="M424.075 357.054C426.13 344.381 417.521 332.441 404.847 330.387C392.174 328.332 380.234 336.941 378.18 349.614C376.125 362.288 384.734 374.228 397.407 376.282C410.081 378.337 422.021 369.728 424.075 357.054Z" fill="#DAEFEC"/>
</g>
</g>
<g id="Group_9">
<path id="Vector_9" d="M189.753 434.895C191.795 422.222 183.176 410.292 170.502 408.251C157.829 406.209 145.9 414.828 143.858 427.502C141.816 440.175 150.435 452.105 163.109 454.146C175.783 456.188 187.712 447.569 189.753 434.895Z" fill="white"/>
<path id="Vector_10" d="M278.864 434.831C280.918 422.157 272.31 410.217 259.636 408.163C246.962 406.108 235.023 414.717 232.968 427.391C230.914 440.064 239.522 452.004 252.196 454.058C264.87 456.113 276.809 447.504 278.864 434.831Z" fill="white"/>
<path id="Vector_11" d="M367.919 434.839C369.974 422.165 361.365 410.225 348.691 408.171C336.018 406.116 324.078 414.725 322.024 427.399C319.969 440.072 328.578 452.012 341.251 454.066C353.925 456.121 365.865 447.512 367.919 434.839Z" fill="#DAEFEC"/>
</g>
<path id="Vector_12" d="M279.25 431.17C279.25 444.01 268.84 454.42 256 454.42V407.92C268.84 407.92 279.25 418.33 279.25 431.17Z" fill="#DAEFEC"/>
</g>
</g>
</g>
</svg>
