<svg width="512" height="512" viewBox="0 0 512 512" fill="none" xmlns="http://www.w3.org/2000/svg">
<g id="thunderstorm">
<g id="Group">
<g id="XMLID 45">
<g id="Group_2">
<g id="XMLID 961">
<g id="XMLID 980">
<g id="XMLID 989">
<g id="XMLID 1082">
<g id="XMLID 1083">
<g id="XMLID 1084">
<g id="XMLID 1099">
<g id="XMLID 1114">
<g id="XMLID 1325">
<g id="XMLID 1326">
<g id="XMLID 1327">
<g id="XMLID 1328">
<g id="XMLID 1329">
<g id="XMLID 1330">
<path id="Vector" d="M256 512C397.385 512 512 397.385 512 256C512 114.615 397.385 0 256 0C114.615 0 0 114.615 0 256C0 397.385 114.615 512 256 512Z" fill="#51EAF2"/>
</g>
</g>
</g>
</g>
</g>
</g>
</g>
</g>
</g>
</g>
</g>
</g>
</g>
</g>
</g>
</g>
<path id="Vector_2" d="M512 256C512 239.806 510.479 223.97 507.604 208.61L374.695 75.701L341.234 162.979L298.279 120.024L64.249 305.894L194.784 436.637L183.931 456.151L239.218 511.439C244.768 511.798 250.36 512 256 512C397.385 512 512 397.385 512 256V256Z" fill="#22C2D3"/>
<g id="Group_3">
<path id="Vector_3" d="M405.606 144.043C403.224 144.043 400.879 144.196 398.57 144.465C398.797 141.878 398.92 139.26 398.92 136.614C398.92 87.63 359.21 47.92 310.226 47.92C269.43 47.92 235.072 75.466 224.724 112.972C221.438 112.54 218.088 112.313 214.684 112.313C172.586 112.313 138.458 146.44 138.458 188.539C138.458 230.637 172.586 264.765 214.684 264.765H405.607C438.943 264.765 465.968 237.74 465.968 204.404C465.968 171.068 438.943 144.043 405.606 144.043V144.043Z" fill="#00337A"/>
<g id="Group_4">
<g id="Group_5">
<path id="Vector_4" d="M465.967 204.401C465.967 237.74 438.944 264.763 405.605 264.763H302.212V48.277C304.853 48.034 307.524 47.917 310.227 47.917C359.212 47.917 398.921 87.625 398.921 136.611C398.921 139.259 398.796 141.876 398.568 144.462C400.879 144.196 403.222 144.039 405.604 144.039C438.944 144.039 465.967 171.07 465.967 204.401V204.401Z" fill="#002659"/>
</g>
</g>
</g>
<g id="Group_6">
<g id="Group_7">
<path id="Vector_5" d="M330.689 193.608C328.059 193.608 325.47 193.777 322.92 194.073C323.171 191.216 323.306 188.326 323.306 185.404C323.306 131.317 279.46 87.4709 225.373 87.4709C180.327 87.4709 142.39 117.886 130.964 159.299C127.336 158.822 123.636 158.572 119.878 158.572C73.395 158.572 35.712 196.254 35.712 242.738C35.712 289.222 73.394 326.904 119.878 326.904H330.689C367.498 326.904 397.337 297.064 397.337 260.256C397.337 223.447 367.498 193.608 330.689 193.608V193.608Z" fill="#4793FF"/>
<g id="Group_8">
<path id="Vector_6" d="M397.337 260.253C397.337 297.064 367.499 326.903 330.687 326.903H216.525V87.867C219.44 87.599 222.391 87.469 225.375 87.469C279.463 87.469 323.308 131.314 323.308 185.402C323.308 188.326 323.17 191.216 322.919 194.071C325.471 193.777 328.058 193.604 330.688 193.604C367.499 193.603 397.337 223.45 397.337 260.253V260.253Z" fill="#424FDD"/>
</g>
</g>
<path id="Vector_7" d="M277.013 291.015H189.47L138.457 379.985H202.145L183.932 456.151L277.013 354.597H240.854L277.013 291.015Z" fill="#FFE05F"/>
<path id="Vector_8" d="M419.556 247H332.013L281 335.97H344.688L326.475 412.136L419.556 310.582H383.397L419.556 247Z" fill="#FFE05F"/>
<path id="Vector_9" d="M240.852 354.6H277.013L216.525 420.594V291.017H277.013L240.852 354.6Z" fill="#F9CB0D"/>
</g>
</g>
</g>
</svg>
